<?xml version="1.0" encoding="utf-8" standalone="no"?>
<!DOCTYPE svg PUBLIC "-//W3C//DTD SVG 1.1//EN"
  "http://www.w3.org/Graphics/SVG/1.1/DTD/svg11.dtd">
<!-- Created with matplotlib (https://matplotlib.org/) -->
<svg height="576pt" version="1.1" viewBox="0 0 1008 576" width="1008pt" xmlns="http://www.w3.org/2000/svg" xmlns:xlink="http://www.w3.org/1999/xlink">
 <metadata>
  <rdf:RDF xmlns:cc="http://creativecommons.org/ns#" xmlns:dc="http://purl.org/dc/elements/1.1/" xmlns:rdf="http://www.w3.org/1999/02/22-rdf-syntax-ns#">
   <cc:Work>
    <dc:type rdf:resource="http://purl.org/dc/dcmitype/StillImage"/>
    <dc:date>2022-11-01T20:21:43.985041</dc:date>
    <dc:format>image/svg+xml</dc:format>
    <dc:creator>
     <cc:Agent>
      <dc:title>Matplotlib v3.3.4, https://matplotlib.org/</dc:title>
     </cc:Agent>
    </dc:creator>
   </cc:Work>
  </rdf:RDF>
 </metadata>
 <defs>
  <style type="text/css">*{stroke-linecap:butt;stroke-linejoin:round;}</style>
 </defs>
 <g id="figure_1">
  <g id="patch_1">
   <path d="M 0 576 
L 1008 576 
L 1008 0 
L 0 0 
z
" style="fill:#ffffff;"/>
  </g>
  <g id="axes_1">
   <g id="patch_2">
    <path d="M 104.596681 261.684426 
L 337.228801 261.684426 
L 337.228801 63.911226 
L 104.596681 63.911226 
z
" style="fill:#ffffff;"/>
   </g>
   <g id="matplotlib.axis_1">
    <g id="xtick_1">
     <g id="line2d_1">
      <defs>
       <path d="M 0 0 
L 0 3.5 
" id="m5f22d8bb9d" style="stroke:#000000;stroke-width:0.8;"/>
      </defs>
      <g>
       <use style="stroke:#000000;stroke-width:0.8;" x="115.170868" xlink:href="#m5f22d8bb9d" y="261.684426"/>
      </g>
     </g>
     <g id="text_1">
      <!-- $\mathdefault{0}$ -->
      <g transform="translate(111.268875 279.754014)scale(0.16 -0.16)">
       <defs>
        <path d="M 42 31.640625 
C 42 37.75 41.90625 48.125 37.703125 56.109375 
C 34 63.109375 28.09375 65.59375 22.90625 65.59375 
C 18.09375 65.59375 12 63.40625 8.203125 56.203125 
C 4.203125 48.71875 3.796875 39.4375 3.796875 31.640625 
C 3.796875 25.953125 3.90625 17.28125 7 9.671875 
C 11.296875 -0.609375 19 -2 22.90625 -2 
C 27.5 -2 34.5 -0.109375 38.59375 9.375 
C 41.59375 16.28125 42 24.359375 42 31.640625 
z
M 22.90625 -0.40625 
C 16.5 -0.40625 12.703125 5.078125 11.296875 12.6875 
C 10.203125 18.5625 10.203125 27.15625 10.203125 32.75 
C 10.203125 40.4375 10.203125 46.828125 11.5 52.921875 
C 13.40625 61.390625 19 64 22.90625 64 
C 27 64 32.296875 61.296875 34.203125 53.125 
C 35.5 47.4375 35.59375 40.734375 35.59375 32.75 
C 35.59375 26.25 35.59375 18.265625 34.40625 12.375 
C 32.296875 1.484375 26.40625 -0.40625 22.90625 -0.40625 
z
" id="CMR17-48"/>
       </defs>
       <use transform="scale(0.996264)" xlink:href="#CMR17-48"/>
      </g>
     </g>
    </g>
    <g id="xtick_2">
     <g id="line2d_2">
      <g>
       <use style="stroke:#000000;stroke-width:0.8;" x="183.391431" xlink:href="#m5f22d8bb9d" y="261.684426"/>
      </g>
     </g>
     <g id="text_2">
      <!-- $\mathdefault{10}$ -->
      <g transform="translate(175.587444 279.754014)scale(0.16 -0.16)">
       <defs>
        <path d="M 26.59375 63.40625 
C 26.59375 65.5 26.5 65.5 25.09375 65.5 
C 21.203125 61.1875 15.296875 59.796875 9.703125 59.796875 
C 9.40625 59.796875 8.90625 59.796875 8.796875 59.5 
C 8.703125 59.296875 8.703125 59.09375 8.703125 57 
C 11.796875 57 17 57.59375 21 59.984375 
L 21 7.203125 
C 21 3.6875 20.796875 2.5 12.203125 2.5 
L 9.203125 2.5 
L 9.203125 0 
C 14 0 19 0 23.796875 0 
C 28.59375 0 33.59375 0 38.40625 0 
L 38.40625 2.5 
L 35.40625 2.5 
C 26.796875 2.5 26.59375 3.59375 26.59375 7.15625 
z
" id="CMR17-49"/>
       </defs>
       <use transform="scale(0.996264)" xlink:href="#CMR17-49"/>
       <use transform="translate(45.690477 0)scale(0.996264)" xlink:href="#CMR17-48"/>
      </g>
     </g>
    </g>
    <g id="xtick_3">
     <g id="line2d_3">
      <g>
       <use style="stroke:#000000;stroke-width:0.8;" x="251.611994" xlink:href="#m5f22d8bb9d" y="261.684426"/>
      </g>
     </g>
     <g id="text_3">
      <!-- $\mathdefault{20}$ -->
      <g transform="translate(243.808007 279.754014)scale(0.16 -0.16)">
       <defs>
        <path d="M 41.703125 15.453125 
L 39.90625 15.453125 
C 38.90625 8.375 38.09375 7.171875 37.703125 6.5625 
C 37.203125 5.765625 30 5.765625 28.59375 5.765625 
L 9.40625 5.765625 
C 13 9.671875 20 16.75 28.5 24.953125 
C 34.59375 30.734375 41.703125 37.53125 41.703125 47.421875 
C 41.703125 59.21875 32.296875 66 21.796875 66 
C 10.796875 66 4.09375 56.3125 4.09375 47.34375 
C 4.09375 43.4375 7 42.9375 8.203125 42.9375 
C 9.203125 42.9375 12.203125 43.546875 12.203125 47.03125 
C 12.203125 50.109375 9.59375 51 8.203125 51 
C 7.59375 51 7 50.90625 6.59375 50.703125 
C 8.5 59.21875 14.296875 63.40625 20.40625 63.40625 
C 29.09375 63.40625 34.796875 56.515625 34.796875 47.421875 
C 34.796875 38.734375 29.703125 31.25 24 24.75 
L 4.09375 2.28125 
L 4.09375 0 
L 39.296875 0 
z
" id="CMR17-50"/>
       </defs>
       <use transform="scale(0.996264)" xlink:href="#CMR17-50"/>
       <use transform="translate(45.690477 0)scale(0.996264)" xlink:href="#CMR17-48"/>
      </g>
     </g>
    </g>
    <g id="xtick_4">
     <g id="line2d_4">
      <g>
       <use style="stroke:#000000;stroke-width:0.8;" x="319.832557" xlink:href="#m5f22d8bb9d" y="261.684426"/>
      </g>
     </g>
     <g id="text_4">
      <!-- $\mathdefault{30}$ -->
      <g transform="translate(312.02857 279.754014)scale(0.16 -0.16)">
       <defs>
        <path d="M 22.09375 33.703125 
C 31 33.703125 34.90625 25.96875 34.90625 17.03125 
C 34.90625 5 28.5 0.390625 22.703125 0.390625 
C 17.40625 0.390625 8.796875 3.03125 6.09375 10.828125 
C 6.59375 10.625 7.09375 10.625 7.59375 10.625 
C 10 10.625 11.796875 12.21875 11.796875 14.8125 
C 11.796875 17.703125 9.59375 19 7.59375 19 
C 5.90625 19 3.296875 18.203125 3.296875 14.46875 
C 3.296875 5.234375 12.296875 -2 22.90625 -2 
C 34 -2 42.5 6.71875 42.5 16.953125 
C 42.5 26.671875 34.5 33.703125 25 34.796875 
C 32.59375 36.375 39.90625 43.0625 39.90625 52.015625 
C 39.90625 59.6875 32 65.296875 23 65.296875 
C 13.90625 65.296875 5.90625 59.828125 5.90625 52.015625 
C 5.90625 48.59375 8.5 48 9.796875 48 
C 11.90625 48 13.703125 49.296875 13.703125 51.890625 
C 13.703125 54.46875 11.90625 55.765625 9.796875 55.765625 
C 9.40625 55.765625 8.90625 55.765625 8.5 55.578125 
C 11.40625 61.859375 19.296875 63 22.796875 63 
C 26.296875 63 32.90625 61.328125 32.90625 51.875 
C 32.90625 49.109375 32.5 44.1875 29.09375 39.84375 
C 26.09375 36 22.703125 36 19.40625 35.6875 
C 18.90625 35.6875 16.59375 35.453125 16.203125 35.453125 
C 15.5 35.359375 15.09375 35.265625 15.09375 34.5 
C 15.09375 33.796875 15.203125 33.703125 17.203125 33.703125 
z
" id="CMR17-51"/>
       </defs>
       <use transform="scale(0.996264)" xlink:href="#CMR17-51"/>
       <use transform="translate(45.690477 0)scale(0.996264)" xlink:href="#CMR17-48"/>
      </g>
     </g>
    </g>
   </g>
   <g id="matplotlib.axis_2">
    <g id="ytick_1">
     <g id="line2d_5">
      <defs>
       <path d="M 0 0 
L -3.5 0 
" id="mba542717f5" style="stroke:#000000;stroke-width:0.8;"/>
      </defs>
      <g>
       <use style="stroke:#000000;stroke-width:0.8;" x="104.596681" xlink:href="#mba542717f5" y="252.696361"/>
      </g>
     </g>
     <g id="text_5">
      <!-- $\mathdefault{0.0}$ -->
      <g transform="translate(77.653159 258.231155)scale(0.16 -0.16)">
       <defs>
        <path d="M 18.40625 4.796875 
C 18.40625 7.6875 16 9.671875 13.59375 9.671875 
C 10.703125 9.671875 8.703125 7.28125 8.703125 4.890625 
C 8.703125 2 11.09375 0 13.5 0 
C 16.40625 0 18.40625 2.390625 18.40625 4.796875 
z
" id="CMMI12-58"/>
       </defs>
       <use transform="scale(0.996264)" xlink:href="#CMR17-48"/>
       <use transform="translate(45.690477 0)scale(0.996264)" xlink:href="#CMMI12-58"/>
       <use transform="translate(72.787654 0)scale(0.996264)" xlink:href="#CMR17-48"/>
      </g>
     </g>
    </g>
    <g id="ytick_2">
     <g id="line2d_6">
      <g>
       <use style="stroke:#000000;stroke-width:0.8;" x="104.596681" xlink:href="#mba542717f5" y="194.027685"/>
      </g>
     </g>
     <g id="text_6">
      <!-- $\mathdefault{0.5}$ -->
      <g transform="translate(77.653159 199.562479)scale(0.16 -0.16)">
       <defs>
        <path d="M 11.40625 57.6875 
C 12.40625 57.28125 16.5 56 20.703125 56 
C 30 56 35.09375 61.109375 38 64.0625 
C 38 64.953125 38 65.5 37.40625 65.5 
C 37.296875 65.5 37.09375 65.5 36.296875 65.046875 
C 32.796875 63.40625 28.703125 62.078125 23.703125 62.078125 
C 20.703125 62.078125 16.203125 62.484375 11.296875 64.671875 
C 10.203125 65.171875 10 65.171875 9.90625 65.171875 
C 9.40625 65.171875 9.296875 65.0625 9.296875 63.078125 
L 9.296875 34.421875 
C 9.296875 32.640625 9.296875 32.140625 10.296875 32.140625 
C 10.796875 32.140625 11 32.34375 11.5 33.03125 
C 14.703125 37.515625 19.09375 39.40625 24.09375 39.40625 
C 27.59375 39.40625 35.09375 37.21875 35.09375 20.140625 
C 35.09375 16.953125 35.09375 11.171875 32.09375 6.578125 
C 29.59375 2.484375 25.703125 0.390625 21.40625 0.390625 
C 14.796875 0.390625 8.09375 5 6.296875 12.71875 
C 6.703125 12.609375 7.5 12.421875 7.90625 12.421875 
C 9.203125 12.421875 11.703125 13.125 11.703125 16.21875 
C 11.703125 18.90625 9.796875 20 7.90625 20 
C 5.59375 20 4.09375 18.59375 4.09375 15.796875 
C 4.09375 7.09375 11 -2 21.59375 -2 
C 31.90625 -2 41.703125 6.875 41.703125 19.75 
C 41.703125 31.71875 33.90625 41 24.203125 41 
C 19.09375 41 14.796875 39.109375 11.40625 35.53125 
z
" id="CMR17-53"/>
       </defs>
       <use transform="scale(0.996264)" xlink:href="#CMR17-48"/>
       <use transform="translate(45.690477 0)scale(0.996264)" xlink:href="#CMMI12-58"/>
       <use transform="translate(72.787654 0)scale(0.996264)" xlink:href="#CMR17-53"/>
      </g>
     </g>
    </g>
    <g id="ytick_3">
     <g id="line2d_7">
      <g>
       <use style="stroke:#000000;stroke-width:0.8;" x="104.596681" xlink:href="#mba542717f5" y="135.359008"/>
      </g>
     </g>
     <g id="text_7">
      <!-- $\mathdefault{1.0}$ -->
      <g transform="translate(77.653159 140.893802)scale(0.16 -0.16)">
       <use transform="scale(0.996264)" xlink:href="#CMR17-49"/>
       <use transform="translate(45.690477 0)scale(0.996264)" xlink:href="#CMMI12-58"/>
       <use transform="translate(72.787654 0)scale(0.996264)" xlink:href="#CMR17-48"/>
      </g>
     </g>
    </g>
    <g id="ytick_4">
     <g id="line2d_8">
      <g>
       <use style="stroke:#000000;stroke-width:0.8;" x="104.596681" xlink:href="#mba542717f5" y="76.690331"/>
      </g>
     </g>
     <g id="text_8">
      <!-- $\mathdefault{1.5}$ -->
      <g transform="translate(77.653159 82.225125)scale(0.16 -0.16)">
       <use transform="scale(0.996264)" xlink:href="#CMR17-49"/>
       <use transform="translate(45.690477 0)scale(0.996264)" xlink:href="#CMMI12-58"/>
       <use transform="translate(72.787654 0)scale(0.996264)" xlink:href="#CMR17-53"/>
      </g>
     </g>
    </g>
    <g id="text_9">
     <!-- Real -->
     <g transform="translate(69.002401 184.258418)rotate(-90)scale(0.24 -0.24)">
      <defs>
       <path d="M 39.203125 33.53125 
C 48.703125 35.4375 56.703125 41.8125 56.703125 49.78125 
C 56.703125 59.140625 46.09375 67.59375 32.09375 67.59375 
L 5.203125 67.59375 
L 5.203125 65 
C 12.09375 65 13.203125 65 13.203125 60.515625 
L 13.203125 6.484375 
C 13.203125 2 12.09375 2 5.203125 2 
L 5.203125 -0.40625 
C 8.09375 -0.40625 13.296875 -0.40625 16.40625 -0.40625 
C 19.5 -0.40625 24.703125 -0.40625 27.59375 -0.40625 
L 27.59375 2 
C 20.703125 2 19.59375 2 19.59375 6.515625 
L 19.59375 33 
L 31.296875 33 
C 37 33 40.203125 30.6875 41.59375 29.390625 
C 45.59375 25.5 45.59375 22.796875 45.59375 16 
C 45.59375 9.296875 45.59375 5.890625 48.59375 2.5 
C 52.40625 -1.59375 57.5 -2 59.703125 -2 
C 67.09375 -2 68.203125 6.1875 68.203125 7.859375 
C 68.203125 8.4375 68.203125 9.140625 67.296875 9.140625 
C 66.5 9.140625 66.40625 8.546875 66.40625 8.15625 
C 65.90625 1.75 63 -0.40625 59.90625 -0.40625 
C 54.40625 -0.40625 53.796875 5.859375 53.203125 11.9375 
C 52.90625 14.03125 52.703125 15.515625 52.5 17.703125 
C 51.90625 22.6875 51.09375 29.953125 39.203125 33.53125 
z
M 31 34.59375 
L 19.59375 34.59375 
L 19.59375 61.140625 
C 19.59375 64.515625 19.796875 65 23.796875 65 
L 31.09375 65 
C 39.40625 65 49.09375 62.140625 49.09375 49.84375 
C 49.09375 37.0625 38.5 34.59375 31 34.59375 
z
" id="CMR17-82"/>
       <path d="M 38.09375 23 
C 38.5 23.40625 38.5 23.609375 38.5 24.625 
C 38.5 34.96875 33.09375 44 21.703125 44 
C 11.09375 44 2.703125 33.890625 2.703125 21.609375 
C 2.703125 8.609375 12.203125 -1 22.796875 -1 
C 34 -1 38.40625 9.484375 38.40625 11.5625 
C 38.40625 12.25 37.796875 12.25 37.59375 12.25 
C 36.90625 12.25 36.796875 12.046875 36.40625 10.875 
C 34.203125 4.140625 28.703125 0.796875 23.5 0.796875 
C 19.203125 0.796875 14.90625 3.171875 12.203125 7.5 
C 9.09375 12.546875 9.09375 18.375 9.09375 23 
z
M 9.203125 24.5 
C 9.90625 39.140625 17.59375 42.40625 21.59375 42.40625 
C 28.40625 42.40625 33 35.890625 33.09375 24.5 
z
" id="CMR17-101"/>
       <path d="M 36 25.828125 
C 36 32.375 36 35.84375 31.796875 39.734375 
C 28.09375 43 23.796875 44 20.40625 44 
C 12.5 44 6.796875 37.609375 6.796875 30.796875 
C 6.796875 27 9.796875 27 10.40625 27 
C 11.703125 27 14 27.78125 14 30.53125 
C 14 33 12.09375 34.078125 10.40625 34.078125 
C 10 34.078125 9.5 33.96875 9.203125 33.875 
C 11.296875 40.5 16.703125 42.40625 20.203125 42.40625 
C 25.203125 42.40625 30.703125 37.953125 30.703125 29.453125 
L 30.703125 25 
C 24.796875 25 17.703125 24.203125 12.09375 21.203125 
C 5.796875 17.703125 4 12.703125 4 8.90625 
C 4 1.203125 13 -1 18.296875 -1 
C 23.796875 -1 28.90625 2.171875 31.09375 7.984375 
C 31.296875 3.640625 34.09375 -0.28125 38.5 -0.28125 
C 40.59375 -0.28125 45.90625 1.09375 45.90625 8.859375 
L 45.90625 14.375 
L 44.09375 14.375 
L 44.09375 8.78125 
C 44.09375 2.78125 41.40625 2 40.09375 2 
C 36 2 36 7.15625 36 11.53125 
z
M 30.703125 13.59375 
C 30.703125 4.953125 24.5 0.59375 19 0.59375 
C 14 0.59375 10.09375 4.296875 10.09375 8.90625 
C 10.09375 11.890625 11.40625 17.1875 17.203125 20.390625 
C 22 23.09375 27.5 23.5 30.703125 23.5 
z
" id="CMR17-97"/>
       <path d="M 15.296875 68.6875 
L 3.40625 67.59375 
L 3.40625 65 
C 9.296875 65 10.203125 64.40625 10.203125 59.640625 
L 10.203125 6.65625 
C 10.203125 2.875 9.796875 2.390625 3.40625 2.390625 
L 3.40625 -0.203125 
C 5.796875 0 10.203125 0 12.703125 0 
C 15.296875 0 19.703125 0 22.09375 -0.203125 
L 22.09375 2.390625 
C 15.703125 2.390625 15.296875 2.78125 15.296875 6.65625 
z
" id="CMR17-108"/>
      </defs>
      <use transform="scale(0.996264)" xlink:href="#CMR17-82"/>
      <use transform="translate(67.791102 0)scale(0.996264)" xlink:href="#CMR17-101"/>
      <use transform="translate(108.276762 0)scale(0.996264)" xlink:href="#CMR17-97"/>
      <use transform="translate(153.96724 0)scale(0.996264)" xlink:href="#CMR17-108"/>
     </g>
    </g>
   </g>
   <g id="LineCollection_1">
    <path clip-path="url(#p96e4629ca0)" d="M 115.170868 73.325089 
L 115.170868 72.900917 
" style="fill:none;stroke:#ff0000;stroke-width:2;"/>
    <path clip-path="url(#p96e4629ca0)" d="M 121.992924 237.240961 
L 121.992924 237.167252 
" style="fill:none;stroke:#ff0000;stroke-width:2;"/>
    <path clip-path="url(#p96e4629ca0)" d="M 128.814981 249.771548 
L 128.814981 249.73676 
" style="fill:none;stroke:#ff0000;stroke-width:2;"/>
    <path clip-path="url(#p96e4629ca0)" d="M 135.637037 251.89341 
L 135.637037 251.878922 
" style="fill:none;stroke:#ff0000;stroke-width:2;"/>
    <path clip-path="url(#p96e4629ca0)" d="M 142.459093 252.399324 
L 142.459093 252.390942 
" style="fill:none;stroke:#ff0000;stroke-width:2;"/>
    <path clip-path="url(#p96e4629ca0)" d="M 149.28115 252.561264 
L 149.28115 252.556753 
" style="fill:none;stroke:#ff0000;stroke-width:2;"/>
    <path clip-path="url(#p96e4629ca0)" d="M 156.103206 252.626865 
L 156.103206 252.624168 
" style="fill:none;stroke:#ff0000;stroke-width:2;"/>
    <path clip-path="url(#p96e4629ca0)" d="M 162.925262 252.657499 
L 162.925262 252.655732 
" style="fill:none;stroke:#ff0000;stroke-width:2;"/>
    <path clip-path="url(#p96e4629ca0)" d="M 169.747319 252.673345 
L 169.747319 252.672194 
" style="fill:none;stroke:#ff0000;stroke-width:2;"/>
    <path clip-path="url(#p96e4629ca0)" d="M 176.569375 252.682242 
L 176.569375 252.681427 
" style="fill:none;stroke:#ff0000;stroke-width:2;"/>
    <path clip-path="url(#p96e4629ca0)" d="M 183.391431 252.687335 
L 183.391431 252.686781 
" style="fill:none;stroke:#ff0000;stroke-width:2;"/>
    <path clip-path="url(#p96e4629ca0)" d="M 190.213488 252.690453 
L 190.213488 252.689958 
" style="fill:none;stroke:#ff0000;stroke-width:2;"/>
    <path clip-path="url(#p96e4629ca0)" d="M 197.035544 252.692336 
L 197.035544 252.691974 
" style="fill:none;stroke:#ff0000;stroke-width:2;"/>
    <path clip-path="url(#p96e4629ca0)" d="M 203.8576 252.693488 
L 203.8576 252.693147 
" style="fill:none;stroke:#ff0000;stroke-width:2;"/>
    <path clip-path="url(#p96e4629ca0)" d="M 210.679656 252.69419 
L 210.679656 252.693862 
" style="fill:none;stroke:#ff0000;stroke-width:2;"/>
    <path clip-path="url(#p96e4629ca0)" d="M 217.501713 252.694588 
L 217.501713 252.694299 
" style="fill:none;stroke:#ff0000;stroke-width:2;"/>
    <path clip-path="url(#p96e4629ca0)" d="M 224.323769 252.694735 
L 224.323769 252.694429 
" style="fill:none;stroke:#ff0000;stroke-width:2;"/>
    <path clip-path="url(#p96e4629ca0)" d="M 231.145825 252.69456 
L 231.145825 252.694273 
" style="fill:none;stroke:#ff0000;stroke-width:2;"/>
    <path clip-path="url(#p96e4629ca0)" d="M 237.967882 252.694106 
L 237.967882 252.693751 
" style="fill:none;stroke:#ff0000;stroke-width:2;"/>
    <path clip-path="url(#p96e4629ca0)" d="M 244.789938 252.693216 
L 244.789938 252.692835 
" style="fill:none;stroke:#ff0000;stroke-width:2;"/>
    <path clip-path="url(#p96e4629ca0)" d="M 251.611994 252.691711 
L 251.611994 252.691242 
" style="fill:none;stroke:#ff0000;stroke-width:2;"/>
    <path clip-path="url(#p96e4629ca0)" d="M 258.434051 252.689279 
L 258.434051 252.688634 
" style="fill:none;stroke:#ff0000;stroke-width:2;"/>
    <path clip-path="url(#p96e4629ca0)" d="M 265.256107 252.685194 
L 265.256107 252.684349 
" style="fill:none;stroke:#ff0000;stroke-width:2;"/>
    <path clip-path="url(#p96e4629ca0)" d="M 272.078163 252.678567 
L 272.078163 252.677455 
" style="fill:none;stroke:#ff0000;stroke-width:2;"/>
    <path clip-path="url(#p96e4629ca0)" d="M 278.90022 252.667946 
L 278.90022 252.666394 
" style="fill:none;stroke:#ff0000;stroke-width:2;"/>
    <path clip-path="url(#p96e4629ca0)" d="M 285.722276 252.649629 
L 285.722276 252.647586 
" style="fill:none;stroke:#ff0000;stroke-width:2;"/>
    <path clip-path="url(#p96e4629ca0)" d="M 292.544332 252.616417 
L 292.544332 252.613321 
" style="fill:none;stroke:#ff0000;stroke-width:2;"/>
    <path clip-path="url(#p96e4629ca0)" d="M 299.366389 252.548132 
L 299.366389 252.543417 
" style="fill:none;stroke:#ff0000;stroke-width:2;"/>
    <path clip-path="url(#p96e4629ca0)" d="M 306.188445 252.382313 
L 306.188445 252.375766 
" style="fill:none;stroke:#ff0000;stroke-width:2;"/>
    <path clip-path="url(#p96e4629ca0)" d="M 313.010501 251.873549 
L 313.010501 251.862755 
" style="fill:none;stroke:#ff0000;stroke-width:2;"/>
    <path clip-path="url(#p96e4629ca0)" d="M 319.832557 249.745793 
L 319.832557 249.717779 
" style="fill:none;stroke:#ff0000;stroke-width:2;"/>
    <path clip-path="url(#p96e4629ca0)" d="M 326.654614 237.197473 
L 326.654614 237.116172 
" style="fill:none;stroke:#ff0000;stroke-width:2;"/>
   </g>
   <g id="line2d_9">
    <path clip-path="url(#p96e4629ca0)" d="M 115.170868 73.113003 
L 121.992924 237.204106 
L 128.814981 249.754154 
L 135.637037 251.886166 
L 142.459093 252.395133 
L 149.28115 252.559009 
L 156.103206 252.625517 
L 162.925262 252.656615 
L 169.747319 252.672769 
L 176.569375 252.681834 
L 183.391431 252.687058 
L 190.213488 252.690205 
L 197.035544 252.692155 
L 203.8576 252.693317 
L 210.679656 252.694026 
L 217.501713 252.694444 
L 224.323769 252.694582 
L 231.145825 252.694416 
L 237.967882 252.693929 
L 244.789938 252.693025 
L 251.611994 252.691476 
L 258.434051 252.688957 
L 265.256107 252.684771 
L 272.078163 252.678011 
L 278.90022 252.66717 
L 285.722276 252.648608 
L 292.544332 252.614869 
L 299.366389 252.545775 
L 306.188445 252.379039 
L 313.010501 251.868152 
L 319.832557 249.731786 
L 326.654614 237.156823 
" style="fill:none;stroke:#000000;stroke-linecap:square;stroke-width:2;"/>
   </g>
   <g id="patch_3">
    <path d="M 104.596681 261.684426 
L 104.596681 63.911226 
" style="fill:none;stroke:#000000;stroke-linecap:square;stroke-linejoin:miter;stroke-width:0.8;"/>
   </g>
   <g id="patch_4">
    <path d="M 337.228801 261.684426 
L 337.228801 63.911226 
" style="fill:none;stroke:#000000;stroke-linecap:square;stroke-linejoin:miter;stroke-width:0.8;"/>
   </g>
   <g id="patch_5">
    <path d="M 104.596681 261.684426 
L 337.228801 261.684426 
" style="fill:none;stroke:#000000;stroke-linecap:square;stroke-linejoin:miter;stroke-width:0.8;"/>
   </g>
   <g id="patch_6">
    <path d="M 104.596681 63.911226 
L 337.228801 63.911226 
" style="fill:none;stroke:#000000;stroke-linecap:square;stroke-linejoin:miter;stroke-width:0.8;"/>
   </g>
   <g id="text_10">
    <!-- $C(t)$ -->
    <g transform="translate(198.984588 57.911226)scale(0.24 -0.24)">
     <defs>
      <path d="M 74.703125 69.109375 
C 74.703125 70 74 70 73.796875 70 
C 73.59375 70 73.203125 70 72.40625 69 
L 65.5 60.65625 
C 62 66.625 56.5 70 49 70 
C 27.40625 70 5 48.25 5 24.921875 
C 5 8.328125 16.703125 -2 31.296875 -2 
C 39.296875 -2 46.296875 1.375 52.09375 6.25 
C 60.796875 13.484375 63.40625 23.140625 63.40625 23.921875 
C 63.40625 24.8125 62.59375 24.8125 62.296875 24.8125 
C 61.40625 24.8125 61.296875 24.21875 61.09375 23.8125 
C 56.5 8.34375 43 0.890625 33 0.890625 
C 22.40625 0.890625 13.203125 7.640625 13.203125 21.734375 
C 13.203125 24.921875 14.203125 42.1875 25.5 55.1875 
C 31 61.546875 40.40625 67.109375 49.90625 67.109375 
C 60.90625 67.109375 65.796875 58.078125 65.796875 47.9375 
C 65.796875 45.359375 65.5 43.1875 65.5 42.78125 
C 65.5 41.890625 66.5 41.890625 66.796875 41.890625 
C 67.90625 41.890625 68 41.984375 68.40625 43.765625 
z
" id="CMMI12-67"/>
      <path d="M 30.59375 -24.390625 
C 30.59375 -24.296875 30.59375 -24.09375 30.296875 -23.796875 
C 25.703125 -19.125 13.40625 -6.359375 13.40625 24.703125 
C 13.40625 55.765625 25.5 68.421875 30.40625 73.390625 
C 30.40625 73.5 30.59375 73.703125 30.59375 74 
C 30.59375 74.296875 30.296875 74.5 29.90625 74.5 
C 28.796875 74.5 20.296875 67.125 15.40625 56.15625 
C 10.40625 45.109375 9 34.359375 9 24.8125 
C 9 17.625 9.703125 5.484375 15.703125 -7.359375 
C 20.5 -17.734375 28.703125 -25 29.90625 -25 
C 30.40625 -25 30.59375 -24.796875 30.59375 -24.390625 
z
" id="CMR17-40"/>
      <path d="M 20.09375 40.09375 
L 29.296875 40.09375 
C 31.203125 40.09375 32.203125 40.09375 32.203125 41.890625 
C 32.203125 43 31.59375 43 29.59375 43 
L 20.796875 43 
L 24.5 57.6875 
C 24.90625 59.078125 24.90625 59.28125 24.90625 60 
C 24.90625 61.609375 23.59375 62.5 22.296875 62.5 
C 21.5 62.5 19.203125 62.203125 18.40625 58.984375 
L 14.5 43 
L 5.09375 43 
C 3.09375 43 2.203125 43 2.203125 41.09375 
C 2.203125 40.09375 2.90625 40.09375 4.796875 40.09375 
L 13.703125 40.09375 
L 7.09375 13.765625 
C 6.296875 10.28125 6 9.28125 6 7.984375 
C 6 3.296875 9.296875 -1 14.90625 -1 
C 25 -1 30.40625 13.5625 30.40625 14.25 
C 30.40625 14.859375 30 15.15625 29.40625 15.15625 
C 29.203125 15.15625 28.796875 15.15625 28.59375 14.75 
C 28.5 14.65625 28.40625 14.546875 27.703125 12.953125 
C 25.59375 7.984375 21 1 15.203125 1 
C 12.203125 1 12 3.5 12 5.6875 
C 12 5.78125 12 7.6875 12.296875 8.875 
z
" id="CMMI12-116"/>
      <path d="M 26.296875 24.703125 
C 26.296875 31.875 25.59375 44.015625 19.59375 56.859375 
C 14.796875 67.234375 6.59375 74.5 5.40625 74.5 
C 5.09375 74.5 4.703125 74.390625 4.703125 73.890625 
C 4.703125 73.703125 4.796875 73.59375 4.90625 73.390625 
C 9.703125 68.40625 21.90625 55.75 21.90625 24.75 
C 21.90625 -6.359375 9.796875 -19.015625 4.90625 -24.015625 
C 4.796875 -24.203125 4.703125 -24.3125 4.703125 -24.5 
C 4.703125 -25 5.09375 -25 5.40625 -25 
C 6.5 -25 15 -17.625 19.90625 -6.65625 
C 24.90625 4.390625 26.296875 15.140625 26.296875 24.703125 
z
" id="CMR17-41"/>
     </defs>
     <use transform="scale(0.996264)" xlink:href="#CMMI12-67"/>
     <use transform="translate(76.946847 0)scale(0.996264)" xlink:href="#CMR17-40"/>
     <use transform="translate(112.227614 0)scale(0.996264)" xlink:href="#CMMI12-116"/>
     <use transform="translate(147.453945 0)scale(0.996264)" xlink:href="#CMR17-41"/>
    </g>
   </g>
  </g>
  <g id="axes_2">
   <g id="patch_7">
    <path d="M 419.98228 261.684426 
L 652.614401 261.684426 
L 652.614401 63.911226 
L 419.98228 63.911226 
z
" style="fill:#ffffff;"/>
   </g>
   <g id="matplotlib.axis_3">
    <g id="xtick_5">
     <g id="line2d_10">
      <g>
       <use style="stroke:#000000;stroke-width:0.8;" x="430.556468" xlink:href="#m5f22d8bb9d" y="261.684426"/>
      </g>
     </g>
     <g id="text_11">
      <!-- $\mathdefault{0}$ -->
      <g transform="translate(426.654474 279.754014)scale(0.16 -0.16)">
       <use transform="scale(0.996264)" xlink:href="#CMR17-48"/>
      </g>
     </g>
    </g>
    <g id="xtick_6">
     <g id="line2d_11">
      <g>
       <use style="stroke:#000000;stroke-width:0.8;" x="496.645138" xlink:href="#m5f22d8bb9d" y="261.684426"/>
      </g>
     </g>
     <g id="text_12">
      <!-- $\mathdefault{5}$ -->
      <g transform="translate(492.743145 279.754014)scale(0.16 -0.16)">
       <use transform="scale(0.996264)" xlink:href="#CMR17-53"/>
      </g>
     </g>
    </g>
    <g id="xtick_7">
     <g id="line2d_12">
      <g>
       <use style="stroke:#000000;stroke-width:0.8;" x="562.733809" xlink:href="#m5f22d8bb9d" y="261.684426"/>
      </g>
     </g>
     <g id="text_13">
      <!-- $\mathdefault{10}$ -->
      <g transform="translate(554.929822 279.754014)scale(0.16 -0.16)">
       <use transform="scale(0.996264)" xlink:href="#CMR17-49"/>
       <use transform="translate(45.690477 0)scale(0.996264)" xlink:href="#CMR17-48"/>
      </g>
     </g>
    </g>
    <g id="xtick_8">
     <g id="line2d_13">
      <g>
       <use style="stroke:#000000;stroke-width:0.8;" x="628.822479" xlink:href="#m5f22d8bb9d" y="261.684426"/>
      </g>
     </g>
     <g id="text_14">
      <!-- $\mathdefault{15}$ -->
      <g transform="translate(621.018492 279.754014)scale(0.16 -0.16)">
       <use transform="scale(0.996264)" xlink:href="#CMR17-49"/>
       <use transform="translate(45.690477 0)scale(0.996264)" xlink:href="#CMR17-53"/>
      </g>
     </g>
    </g>
   </g>
   <g id="matplotlib.axis_4">
    <g id="ytick_5">
     <g id="line2d_14">
      <g>
       <use style="stroke:#000000;stroke-width:0.8;" x="419.98228" xlink:href="#mba542717f5" y="252.696361"/>
      </g>
     </g>
     <g id="text_15">
      <!-- $\mathdefault{0.0}$ -->
      <g transform="translate(393.038758 258.231155)scale(0.16 -0.16)">
       <use transform="scale(0.996264)" xlink:href="#CMR17-48"/>
       <use transform="translate(45.690477 0)scale(0.996264)" xlink:href="#CMMI12-58"/>
       <use transform="translate(72.787654 0)scale(0.996264)" xlink:href="#CMR17-48"/>
      </g>
     </g>
    </g>
    <g id="ytick_6">
     <g id="line2d_15">
      <g>
       <use style="stroke:#000000;stroke-width:0.8;" x="419.98228" xlink:href="#mba542717f5" y="194.027685"/>
      </g>
     </g>
     <g id="text_16">
      <!-- $\mathdefault{0.5}$ -->
      <g transform="translate(393.038758 199.562479)scale(0.16 -0.16)">
       <use transform="scale(0.996264)" xlink:href="#CMR17-48"/>
       <use transform="translate(45.690477 0)scale(0.996264)" xlink:href="#CMMI12-58"/>
       <use transform="translate(72.787654 0)scale(0.996264)" xlink:href="#CMR17-53"/>
      </g>
     </g>
    </g>
    <g id="ytick_7">
     <g id="line2d_16">
      <g>
       <use style="stroke:#000000;stroke-width:0.8;" x="419.98228" xlink:href="#mba542717f5" y="135.359008"/>
      </g>
     </g>
     <g id="text_17">
      <!-- $\mathdefault{1.0}$ -->
      <g transform="translate(393.038758 140.893802)scale(0.16 -0.16)">
       <use transform="scale(0.996264)" xlink:href="#CMR17-49"/>
       <use transform="translate(45.690477 0)scale(0.996264)" xlink:href="#CMMI12-58"/>
       <use transform="translate(72.787654 0)scale(0.996264)" xlink:href="#CMR17-48"/>
      </g>
     </g>
    </g>
    <g id="ytick_8">
     <g id="line2d_17">
      <g>
       <use style="stroke:#000000;stroke-width:0.8;" x="419.98228" xlink:href="#mba542717f5" y="76.690331"/>
      </g>
     </g>
     <g id="text_18">
      <!-- $\mathdefault{1.5}$ -->
      <g transform="translate(393.038758 82.225125)scale(0.16 -0.16)">
       <use transform="scale(0.996264)" xlink:href="#CMR17-49"/>
       <use transform="translate(45.690477 0)scale(0.996264)" xlink:href="#CMMI12-58"/>
       <use transform="translate(72.787654 0)scale(0.996264)" xlink:href="#CMR17-53"/>
      </g>
     </g>
    </g>
   </g>
   <g id="LineCollection_2">
    <path clip-path="url(#p0be32f0fb3)" d="M 430.556468 73.325089 
L 430.556468 72.900917 
" style="fill:none;stroke:#ff0000;stroke-width:2;"/>
    <path clip-path="url(#p0be32f0fb3)" d="M 443.774202 237.207569 
L 443.774202 237.15336 
" style="fill:none;stroke:#ff0000;stroke-width:2;"/>
    <path clip-path="url(#p0be32f0fb3)" d="M 456.991936 249.754225 
L 456.991936 249.731715 
" style="fill:none;stroke:#ff0000;stroke-width:2;"/>
    <path clip-path="url(#p0be32f0fb3)" d="M 470.20967 251.881715 
L 470.20967 251.872603 
" style="fill:none;stroke:#ff0000;stroke-width:2;"/>
    <path clip-path="url(#p0be32f0fb3)" d="M 483.427404 252.389728 
L 483.427404 252.384444 
" style="fill:none;stroke:#ff0000;stroke-width:2;"/>
    <path clip-path="url(#p0be32f0fb3)" d="M 496.645138 252.55409 
L 496.645138 252.550694 
" style="fill:none;stroke:#ff0000;stroke-width:2;"/>
    <path clip-path="url(#p0be32f0fb3)" d="M 509.862872 252.62128 
L 509.862872 252.619106 
" style="fill:none;stroke:#ff0000;stroke-width:2;"/>
    <path clip-path="url(#p0be32f0fb3)" d="M 523.080606 252.653296 
L 523.080606 252.651927 
" style="fill:none;stroke:#ff0000;stroke-width:2;"/>
    <path clip-path="url(#p0be32f0fb3)" d="M 536.29834 252.670454 
L 536.29834 252.669485 
" style="fill:none;stroke:#ff0000;stroke-width:2;"/>
    <path clip-path="url(#p0be32f0fb3)" d="M 549.516075 252.680276 
L 549.516075 252.67957 
" style="fill:none;stroke:#ff0000;stroke-width:2;"/>
    <path clip-path="url(#p0be32f0fb3)" d="M 562.733809 252.68616 
L 562.733809 252.685669 
" style="fill:none;stroke:#ff0000;stroke-width:2;"/>
    <path clip-path="url(#p0be32f0fb3)" d="M 575.951543 252.689795 
L 575.951543 252.689367 
" style="fill:none;stroke:#ff0000;stroke-width:2;"/>
    <path clip-path="url(#p0be32f0fb3)" d="M 589.169277 252.691952 
L 589.169277 252.691679 
" style="fill:none;stroke:#ff0000;stroke-width:2;"/>
    <path clip-path="url(#p0be32f0fb3)" d="M 602.387011 252.693301 
L 602.387011 252.693041 
" style="fill:none;stroke:#ff0000;stroke-width:2;"/>
    <path clip-path="url(#p0be32f0fb3)" d="M 615.604745 252.694101 
L 615.604745 252.693853 
" style="fill:none;stroke:#ff0000;stroke-width:2;"/>
    <path clip-path="url(#p0be32f0fb3)" d="M 628.822479 252.694532 
L 628.822479 252.694328 
" style="fill:none;stroke:#ff0000;stroke-width:2;"/>
    <path clip-path="url(#p0be32f0fb3)" d="M 642.040213 252.694735 
L 642.040213 252.694429 
" style="fill:none;stroke:#ff0000;stroke-width:2;"/>
   </g>
   <g id="line2d_18">
    <path clip-path="url(#p0be32f0fb3)" d="M 430.556468 73.113003 
L 443.774202 237.180465 
L 456.991936 249.74297 
L 470.20967 251.877159 
L 483.427404 252.387086 
L 496.645138 252.552392 
L 509.862872 252.620193 
L 523.080606 252.652611 
L 536.29834 252.66997 
L 549.516075 252.679923 
L 562.733809 252.685915 
L 575.951543 252.689581 
L 589.169277 252.691815 
L 602.387011 252.693171 
L 615.604745 252.693977 
L 628.822479 252.69443 
L 642.040213 252.694582 
" style="fill:none;stroke:#000000;stroke-linecap:square;stroke-width:2;"/>
   </g>
   <g id="patch_8">
    <path d="M 419.98228 261.684426 
L 419.98228 63.911226 
" style="fill:none;stroke:#000000;stroke-linecap:square;stroke-linejoin:miter;stroke-width:0.8;"/>
   </g>
   <g id="patch_9">
    <path d="M 652.614401 261.684426 
L 652.614401 63.911226 
" style="fill:none;stroke:#000000;stroke-linecap:square;stroke-linejoin:miter;stroke-width:0.8;"/>
   </g>
   <g id="patch_10">
    <path d="M 419.98228 261.684426 
L 652.614401 261.684426 
" style="fill:none;stroke:#000000;stroke-linecap:square;stroke-linejoin:miter;stroke-width:0.8;"/>
   </g>
   <g id="patch_11">
    <path d="M 419.98228 63.911226 
L 652.614401 63.911226 
" style="fill:none;stroke:#000000;stroke-linecap:square;stroke-linejoin:miter;stroke-width:0.8;"/>
   </g>
   <g id="text_19">
    <!-- Folded $C(t)$ -->
    <g transform="translate(478.95933 57.911226)scale(0.24 -0.24)">
     <defs>
      <path d="M 54.40625 67.578125 
L 5.09375 67.578125 
L 5.09375 65 
C 12 65 13.09375 65 13.09375 60.53125 
L 13.09375 6.96875 
C 13.09375 2.5 12 2.5 5.09375 2.5 
L 5.09375 0 
C 8 0 13.59375 0 16.703125 0 
C 20.796875 0 25.59375 0 29.703125 0 
L 29.703125 2.5 
L 27.5 2.5 
C 19.90625 2.5 19.703125 3.484375 19.703125 7.0625 
L 19.703125 32.421875 
L 28.703125 32.421875 
C 38 32.421875 38.90625 29.140625 38.90625 20.8125 
L 40.703125 20.8125 
L 40.703125 46.671875 
L 38.90625 46.671875 
C 38.90625 38.28125 38 35 28.703125 35 
L 19.703125 35 
L 19.703125 61.109375 
C 19.703125 64.5 19.90625 65 23.90625 65 
L 36.796875 65 
C 51.90625 65 53.59375 58.828125 55 45.5625 
L 56.796875 45.5625 
z
" id="CMR17-70"/>
      <path d="M 43.09375 21.1875 
C 43.09375 34 33.796875 44 22.90625 44 
C 12 44 2.703125 34 2.703125 21.1875 
C 2.703125 8.609375 12 -1 22.90625 -1 
C 33.796875 -1 43.09375 8.609375 43.09375 21.1875 
z
M 22.90625 0.796875 
C 18.203125 0.796875 14.203125 3.59375 11.90625 7.5 
C 9.40625 11.984375 9.09375 17.59375 9.09375 22 
C 9.09375 26.203125 9.296875 31.40625 11.90625 35.90625 
C 13.90625 39.203125 17.796875 42.40625 22.90625 42.40625 
C 27.40625 42.40625 31.203125 39.90625 33.59375 36.40625 
C 36.703125 31.703125 36.703125 25.109375 36.703125 22 
C 36.703125 18.09375 36.5 12.109375 33.796875 7.296875 
C 31 2.703125 26.703125 0.796875 22.90625 0.796875 
z
" id="CMR17-111"/>
      <path d="M 29.203125 67.59375 
L 29.203125 65 
C 35.09375 65 36 64.40625 36 59.6875 
L 36 36.640625 
C 35.59375 37.140625 31.5 43.59375 23.40625 43.59375 
C 13.203125 43.59375 3.296875 34.5 3.296875 21.3125 
C 3.296875 8.203125 12.59375 -1 22.40625 -1 
C 30.90625 -1 35.296875 5.265625 35.796875 5.9375 
L 35.796875 -0.984375 
L 47.90625 -0.984375 
L 47.90625 2 
C 42 2 41.09375 2.59375 41.09375 7.390625 
L 41.09375 68.6875 
z
M 35.796875 11.796875 
C 35.796875 8.796875 34 6.09375 31.703125 4.09375 
C 28.296875 1.09375 24.90625 0.59375 23 0.59375 
C 20.09375 0.59375 9.703125 2.09375 9.703125 21.1875 
C 9.703125 40.8125 21.296875 42 23.90625 42 
C 28.5 42 32.203125 39.40625 34.5 35.796875 
C 35.796875 33.703125 35.796875 33.40625 35.796875 31.609375 
z
" id="CMR17-100"/>
     </defs>
     <use transform="scale(0.996264)" xlink:href="#CMR17-70"/>
     <use transform="translate(52.176591 0)scale(0.996264)" xlink:href="#CMR17-111"/>
     <use transform="translate(97.867068 0)scale(0.996264)" xlink:href="#CMR17-108"/>
     <use transform="translate(122.738127 0)scale(0.996264)" xlink:href="#CMR17-100"/>
     <use transform="translate(173.633497 0)scale(0.996264)" xlink:href="#CMR17-101"/>
     <use transform="translate(214.119157 0)scale(0.996264)" xlink:href="#CMR17-100"/>
     <use transform="translate(295.090493 0)scale(0.996264)" xlink:href="#CMMI12-67"/>
     <use transform="translate(372.03734 0)scale(0.996264)" xlink:href="#CMR17-40"/>
     <use transform="translate(407.318108 0)scale(0.996264)" xlink:href="#CMMI12-116"/>
     <use transform="translate(442.544438 0)scale(0.996264)" xlink:href="#CMR17-41"/>
    </g>
   </g>
  </g>
  <g id="axes_3">
   <g id="patch_12">
    <path d="M 735.36788 261.684426 
L 968 261.684426 
L 968 63.911226 
L 735.36788 63.911226 
z
" style="fill:#ffffff;"/>
   </g>
   <g id="matplotlib.axis_5">
    <g id="xtick_9">
     <g id="line2d_19">
      <g>
       <use style="stroke:#000000;stroke-width:0.8;" x="745.942067" xlink:href="#m5f22d8bb9d" y="261.684426"/>
      </g>
     </g>
     <g id="text_20">
      <!-- $\mathdefault{0}$ -->
      <g transform="translate(742.040074 279.754014)scale(0.16 -0.16)">
       <use transform="scale(0.996264)" xlink:href="#CMR17-48"/>
      </g>
     </g>
    </g>
    <g id="xtick_10">
     <g id="line2d_20">
      <g>
       <use style="stroke:#000000;stroke-width:0.8;" x="812.030738" xlink:href="#m5f22d8bb9d" y="261.684426"/>
      </g>
     </g>
     <g id="text_21">
      <!-- $\mathdefault{5}$ -->
      <g transform="translate(808.128744 279.754014)scale(0.16 -0.16)">
       <use transform="scale(0.996264)" xlink:href="#CMR17-53"/>
      </g>
     </g>
    </g>
    <g id="xtick_11">
     <g id="line2d_21">
      <g>
       <use style="stroke:#000000;stroke-width:0.8;" x="878.119408" xlink:href="#m5f22d8bb9d" y="261.684426"/>
      </g>
     </g>
     <g id="text_22">
      <!-- $\mathdefault{10}$ -->
      <g transform="translate(870.315421 279.754014)scale(0.16 -0.16)">
       <use transform="scale(0.996264)" xlink:href="#CMR17-49"/>
       <use transform="translate(45.690477 0)scale(0.996264)" xlink:href="#CMR17-48"/>
      </g>
     </g>
    </g>
    <g id="xtick_12">
     <g id="line2d_22">
      <g>
       <use style="stroke:#000000;stroke-width:0.8;" x="944.208079" xlink:href="#m5f22d8bb9d" y="261.684426"/>
      </g>
     </g>
     <g id="text_23">
      <!-- $\mathdefault{15}$ -->
      <g transform="translate(936.404092 279.754014)scale(0.16 -0.16)">
       <use transform="scale(0.996264)" xlink:href="#CMR17-49"/>
       <use transform="translate(45.690477 0)scale(0.996264)" xlink:href="#CMR17-53"/>
      </g>
     </g>
    </g>
   </g>
   <g id="matplotlib.axis_6">
    <g id="ytick_9">
     <g id="line2d_23">
      <g>
       <use style="stroke:#000000;stroke-width:0.8;" x="735.36788" xlink:href="#mba542717f5" y="238.226903"/>
      </g>
     </g>
     <g id="text_24">
      <!-- $\mathdefault{−0.0004}$ -->
      <g transform="translate(672.614401 243.761697)scale(0.16 -0.16)">
       <defs>
        <path d="M 65.90625 23 
C 67.59375 23 69.40625 23 69.40625 25 
C 69.40625 27 67.59375 27 65.90625 27 
L 11.796875 27 
C 10.09375 27 8.296875 27 8.296875 25 
C 8.296875 23 10.09375 23 11.796875 23 
z
" id="CMSY10-0"/>
        <path d="M 33.59375 64.40625 
C 33.59375 66.5 33.5 66.5 31.703125 66.5 
L 2 19.59375 
L 2 17 
L 27.796875 17 
L 27.796875 7.140625 
C 27.796875 3.5 27.59375 2.5 20.59375 2.5 
L 18.703125 2.5 
L 18.703125 0 
C 21.90625 0 27.296875 0 30.703125 0 
C 34.09375 0 39.5 0 42.703125 0 
L 42.703125 2.5 
L 40.796875 2.5 
C 33.796875 2.5 33.59375 3.5 33.59375 7.140625 
L 33.59375 17 
L 43.796875 17 
L 43.796875 19.59375 
L 33.59375 19.59375 
z
M 28.09375 57.859375 
L 28.09375 19.59375 
L 4 19.59375 
z
" id="CMR17-52"/>
       </defs>
       <use transform="scale(0.996264)" xlink:href="#CMSY10-0"/>
       <use transform="translate(77.487468 0)scale(0.996264)" xlink:href="#CMR17-48"/>
       <use transform="translate(123.177945 0)scale(0.996264)" xlink:href="#CMMI12-58"/>
       <use transform="translate(150.275122 0)scale(0.996264)" xlink:href="#CMR17-48"/>
       <use transform="translate(195.965599 0)scale(0.996264)" xlink:href="#CMR17-48"/>
       <use transform="translate(241.656076 0)scale(0.996264)" xlink:href="#CMR17-48"/>
       <use transform="translate(287.346553 0)scale(0.996264)" xlink:href="#CMR17-52"/>
      </g>
     </g>
    </g>
    <g id="ytick_10">
     <g id="line2d_24">
      <g>
       <use style="stroke:#000000;stroke-width:0.8;" x="735.36788" xlink:href="#mba542717f5" y="200.230183"/>
      </g>
     </g>
     <g id="text_25">
      <!-- $\mathdefault{−0.0003}$ -->
      <g transform="translate(672.614401 205.764977)scale(0.16 -0.16)">
       <use transform="scale(0.996264)" xlink:href="#CMSY10-0"/>
       <use transform="translate(77.487468 0)scale(0.996264)" xlink:href="#CMR17-48"/>
       <use transform="translate(123.177945 0)scale(0.996264)" xlink:href="#CMMI12-58"/>
       <use transform="translate(150.275122 0)scale(0.996264)" xlink:href="#CMR17-48"/>
       <use transform="translate(195.965599 0)scale(0.996264)" xlink:href="#CMR17-48"/>
       <use transform="translate(241.656076 0)scale(0.996264)" xlink:href="#CMR17-48"/>
       <use transform="translate(287.346553 0)scale(0.996264)" xlink:href="#CMR17-51"/>
      </g>
     </g>
    </g>
    <g id="ytick_11">
     <g id="line2d_25">
      <g>
       <use style="stroke:#000000;stroke-width:0.8;" x="735.36788" xlink:href="#mba542717f5" y="162.233464"/>
      </g>
     </g>
     <g id="text_26">
      <!-- $\mathdefault{−0.0002}$ -->
      <g transform="translate(672.614401 167.768258)scale(0.16 -0.16)">
       <use transform="scale(0.996264)" xlink:href="#CMSY10-0"/>
       <use transform="translate(77.487468 0)scale(0.996264)" xlink:href="#CMR17-48"/>
       <use transform="translate(123.177945 0)scale(0.996264)" xlink:href="#CMMI12-58"/>
       <use transform="translate(150.275122 0)scale(0.996264)" xlink:href="#CMR17-48"/>
       <use transform="translate(195.965599 0)scale(0.996264)" xlink:href="#CMR17-48"/>
       <use transform="translate(241.656076 0)scale(0.996264)" xlink:href="#CMR17-48"/>
       <use transform="translate(287.346553 0)scale(0.996264)" xlink:href="#CMR17-50"/>
      </g>
     </g>
    </g>
    <g id="ytick_12">
     <g id="line2d_26">
      <g>
       <use style="stroke:#000000;stroke-width:0.8;" x="735.36788" xlink:href="#mba542717f5" y="124.236745"/>
      </g>
     </g>
     <g id="text_27">
      <!-- $\mathdefault{−0.0001}$ -->
      <g transform="translate(672.614401 129.771539)scale(0.16 -0.16)">
       <use transform="scale(0.996264)" xlink:href="#CMSY10-0"/>
       <use transform="translate(77.487468 0)scale(0.996264)" xlink:href="#CMR17-48"/>
       <use transform="translate(123.177945 0)scale(0.996264)" xlink:href="#CMMI12-58"/>
       <use transform="translate(150.275122 0)scale(0.996264)" xlink:href="#CMR17-48"/>
       <use transform="translate(195.965599 0)scale(0.996264)" xlink:href="#CMR17-48"/>
       <use transform="translate(241.656076 0)scale(0.996264)" xlink:href="#CMR17-48"/>
       <use transform="translate(287.346553 0)scale(0.996264)" xlink:href="#CMR17-49"/>
      </g>
     </g>
    </g>
    <g id="ytick_13">
     <g id="line2d_27">
      <g>
       <use style="stroke:#000000;stroke-width:0.8;" x="735.36788" xlink:href="#mba542717f5" y="86.240026"/>
      </g>
     </g>
     <g id="text_28">
      <!-- $\mathdefault{0.0000}$ -->
      <g transform="translate(685.012397 91.77482)scale(0.16 -0.16)">
       <use transform="scale(0.996264)" xlink:href="#CMR17-48"/>
       <use transform="translate(45.690477 0)scale(0.996264)" xlink:href="#CMMI12-58"/>
       <use transform="translate(72.787654 0)scale(0.996264)" xlink:href="#CMR17-48"/>
       <use transform="translate(118.478131 0)scale(0.996264)" xlink:href="#CMR17-48"/>
       <use transform="translate(164.168608 0)scale(0.996264)" xlink:href="#CMR17-48"/>
       <use transform="translate(209.859086 0)scale(0.996264)" xlink:href="#CMR17-48"/>
      </g>
     </g>
    </g>
   </g>
   <g id="LineCollection_3">
    <path clip-path="url(#pc99c421fd7)" d="M 745.942067 86.240026 
L 745.942067 86.240026 
" style="fill:none;stroke:#ff0000;stroke-width:2;"/>
    <path clip-path="url(#pc99c421fd7)" d="M 759.159801 252.694735 
L 759.159801 72.900917 
" style="fill:none;stroke:#ff0000;stroke-width:2;"/>
    <path clip-path="url(#pc99c421fd7)" d="M 772.377535 158.326137 
L 772.377535 86.58586 
" style="fill:none;stroke:#ff0000;stroke-width:2;"/>
    <path clip-path="url(#pc99c421fd7)" d="M 785.595269 129.90467 
L 785.595269 100.90883 
" style="fill:none;stroke:#ff0000;stroke-width:2;"/>
    <path clip-path="url(#pc99c421fd7)" d="M 798.813004 120.961778 
L 798.813004 103.633678 
" style="fill:none;stroke:#ff0000;stroke-width:2;"/>
    <path clip-path="url(#pc99c421fd7)" d="M 812.030738 112.725296 
L 812.030738 102.609604 
" style="fill:none;stroke:#ff0000;stroke-width:2;"/>
    <path clip-path="url(#pc99c421fd7)" d="M 825.248472 106.596022 
L 825.248472 100.365035 
" style="fill:none;stroke:#ff0000;stroke-width:2;"/>
    <path clip-path="url(#pc99c421fd7)" d="M 838.466206 101.361756 
L 838.466206 97.048659 
" style="fill:none;stroke:#ff0000;stroke-width:2;"/>
    <path clip-path="url(#pc99c421fd7)" d="M 851.68394 96.864487 
L 851.68394 93.74725 
" style="fill:none;stroke:#ff0000;stroke-width:2;"/>
    <path clip-path="url(#pc99c421fd7)" d="M 864.901674 93.519503 
L 864.901674 91.342185 
" style="fill:none;stroke:#ff0000;stroke-width:2;"/>
    <path clip-path="url(#pc99c421fd7)" d="M 878.119408 90.782223 
L 878.119408 89.102008 
" style="fill:none;stroke:#ff0000;stroke-width:2;"/>
    <path clip-path="url(#pc99c421fd7)" d="M 891.337142 88.883507 
L 891.337142 87.640573 
" style="fill:none;stroke:#ff0000;stroke-width:2;"/>
    <path clip-path="url(#pc99c421fd7)" d="M 904.554876 87.853507 
L 904.554876 86.823901 
" style="fill:none;stroke:#ff0000;stroke-width:2;"/>
    <path clip-path="url(#pc99c421fd7)" d="M 917.77261 87.118293 
L 917.77261 86.306915 
" style="fill:none;stroke:#ff0000;stroke-width:2;"/>
    <path clip-path="url(#pc99c421fd7)" d="M 930.990345 86.778237 
L 930.990345 86.016839 
" style="fill:none;stroke:#ff0000;stroke-width:2;"/>
    <path clip-path="url(#pc99c421fd7)" d="M 944.208079 86.615281 
L 944.208079 85.953836 
" style="fill:none;stroke:#ff0000;stroke-width:2;"/>
    <path clip-path="url(#pc99c421fd7)" d="M 957.425813 86.240026 
L 957.425813 86.240026 
" style="fill:none;stroke:#ff0000;stroke-width:2;"/>
   </g>
   <g id="line2d_28">
    <path clip-path="url(#pc99c421fd7)" d="M 745.942067 86.240026 
L 759.159801 162.797826 
L 772.377535 122.455998 
L 785.595269 115.40675 
L 798.813004 112.297728 
L 812.030738 107.66745 
L 825.248472 103.480529 
L 838.466206 99.205207 
L 851.68394 95.305868 
L 864.901674 92.430844 
L 878.119408 89.942116 
L 891.337142 88.26204 
L 904.554876 87.338704 
L 917.77261 86.712604 
L 930.990345 86.397538 
L 944.208079 86.284559 
L 957.425813 86.240026 
" style="fill:none;stroke:#000000;stroke-linecap:square;stroke-width:2;"/>
   </g>
   <g id="patch_13">
    <path d="M 735.36788 261.684426 
L 735.36788 63.911226 
" style="fill:none;stroke:#000000;stroke-linecap:square;stroke-linejoin:miter;stroke-width:0.8;"/>
   </g>
   <g id="patch_14">
    <path d="M 968 261.684426 
L 968 63.911226 
" style="fill:none;stroke:#000000;stroke-linecap:square;stroke-linejoin:miter;stroke-width:0.8;"/>
   </g>
   <g id="patch_15">
    <path d="M 735.36788 261.684426 
L 968 261.684426 
" style="fill:none;stroke:#000000;stroke-linecap:square;stroke-linejoin:miter;stroke-width:0.8;"/>
   </g>
   <g id="patch_16">
    <path d="M 735.36788 63.911226 
L 968 63.911226 
" style="fill:none;stroke:#000000;stroke-linecap:square;stroke-linejoin:miter;stroke-width:0.8;"/>
   </g>
   <g id="text_29">
    <!-- $C(t)$ - Folded $C(t)$ -->
    <g transform="translate(761.589429 57.911226)scale(0.24 -0.24)">
     <defs>
      <path d="M 25.5 19 
L 25.5 23.375 
L 0.40625 23.375 
L 0.40625 19 
z
" id="CMR17-45"/>
     </defs>
     <use transform="scale(0.996264)" xlink:href="#CMMI12-67"/>
     <use transform="translate(76.946847 0)scale(0.996264)" xlink:href="#CMR17-40"/>
     <use transform="translate(112.227614 0)scale(0.996264)" xlink:href="#CMMI12-116"/>
     <use transform="translate(147.453945 0)scale(0.996264)" xlink:href="#CMR17-41"/>
     <use transform="translate(212.810679 0)scale(0.996264)" xlink:href="#CMR17-45"/>
     <use transform="translate(272.962612 0)scale(0.996264)" xlink:href="#CMR17-70"/>
     <use transform="translate(325.139203 0)scale(0.996264)" xlink:href="#CMR17-111"/>
     <use transform="translate(370.82968 0)scale(0.996264)" xlink:href="#CMR17-108"/>
     <use transform="translate(395.700738 0)scale(0.996264)" xlink:href="#CMR17-100"/>
     <use transform="translate(446.596108 0)scale(0.996264)" xlink:href="#CMR17-101"/>
     <use transform="translate(487.081769 0)scale(0.996264)" xlink:href="#CMR17-100"/>
     <use transform="translate(568.053105 0)scale(0.996264)" xlink:href="#CMMI12-67"/>
     <use transform="translate(644.999951 0)scale(0.996264)" xlink:href="#CMR17-40"/>
     <use transform="translate(680.280719 0)scale(0.996264)" xlink:href="#CMMI12-116"/>
     <use transform="translate(715.507049 0)scale(0.996264)" xlink:href="#CMR17-41"/>
    </g>
   </g>
  </g>
  <g id="axes_4">
   <g id="patch_17">
    <path d="M 104.596681 514.830936 
L 337.228801 514.830936 
L 337.228801 317.057736 
L 104.596681 317.057736 
z
" style="fill:#ffffff;"/>
   </g>
   <g id="matplotlib.axis_7">
    <g id="xtick_13">
     <g id="line2d_29">
      <g>
       <use style="stroke:#000000;stroke-width:0.8;" x="115.170868" xlink:href="#m5f22d8bb9d" y="514.830936"/>
      </g>
     </g>
     <g id="text_30">
      <!-- $\mathdefault{0}$ -->
      <g transform="translate(111.268875 532.900524)scale(0.16 -0.16)">
       <use transform="scale(0.996264)" xlink:href="#CMR17-48"/>
      </g>
     </g>
    </g>
    <g id="xtick_14">
     <g id="line2d_30">
      <g>
       <use style="stroke:#000000;stroke-width:0.8;" x="183.391431" xlink:href="#m5f22d8bb9d" y="514.830936"/>
      </g>
     </g>
     <g id="text_31">
      <!-- $\mathdefault{10}$ -->
      <g transform="translate(175.587444 532.900524)scale(0.16 -0.16)">
       <use transform="scale(0.996264)" xlink:href="#CMR17-49"/>
       <use transform="translate(45.690477 0)scale(0.996264)" xlink:href="#CMR17-48"/>
      </g>
     </g>
    </g>
    <g id="xtick_15">
     <g id="line2d_31">
      <g>
       <use style="stroke:#000000;stroke-width:0.8;" x="251.611994" xlink:href="#m5f22d8bb9d" y="514.830936"/>
      </g>
     </g>
     <g id="text_32">
      <!-- $\mathdefault{20}$ -->
      <g transform="translate(243.808007 532.900524)scale(0.16 -0.16)">
       <use transform="scale(0.996264)" xlink:href="#CMR17-50"/>
       <use transform="translate(45.690477 0)scale(0.996264)" xlink:href="#CMR17-48"/>
      </g>
     </g>
    </g>
    <g id="xtick_16">
     <g id="line2d_32">
      <g>
       <use style="stroke:#000000;stroke-width:0.8;" x="319.832557" xlink:href="#m5f22d8bb9d" y="514.830936"/>
      </g>
     </g>
     <g id="text_33">
      <!-- $\mathdefault{30}$ -->
      <g transform="translate(312.02857 532.900524)scale(0.16 -0.16)">
       <use transform="scale(0.996264)" xlink:href="#CMR17-51"/>
       <use transform="translate(45.690477 0)scale(0.996264)" xlink:href="#CMR17-48"/>
      </g>
     </g>
    </g>
   </g>
   <g id="matplotlib.axis_8">
    <g id="ytick_14">
     <g id="line2d_33">
      <g>
       <use style="stroke:#000000;stroke-width:0.8;" x="104.596681" xlink:href="#mba542717f5" y="498.19462"/>
      </g>
     </g>
     <g id="text_34">
      <!-- $\mathdefault{−5.0}$ -->
      <g transform="translate(65.255163 503.729415)scale(0.16 -0.16)">
       <use transform="scale(0.996264)" xlink:href="#CMSY10-0"/>
       <use transform="translate(77.487468 0)scale(0.996264)" xlink:href="#CMR17-53"/>
       <use transform="translate(123.177945 0)scale(0.996264)" xlink:href="#CMMI12-58"/>
       <use transform="translate(150.275122 0)scale(0.996264)" xlink:href="#CMR17-48"/>
      </g>
     </g>
    </g>
    <g id="ytick_15">
     <g id="line2d_34">
      <g>
       <use style="stroke:#000000;stroke-width:0.8;" x="104.596681" xlink:href="#mba542717f5" y="463.730389"/>
      </g>
     </g>
     <g id="text_35">
      <!-- $\mathdefault{−2.5}$ -->
      <g transform="translate(65.255163 469.265183)scale(0.16 -0.16)">
       <use transform="scale(0.996264)" xlink:href="#CMSY10-0"/>
       <use transform="translate(77.487468 0)scale(0.996264)" xlink:href="#CMR17-50"/>
       <use transform="translate(123.177945 0)scale(0.996264)" xlink:href="#CMMI12-58"/>
       <use transform="translate(150.275122 0)scale(0.996264)" xlink:href="#CMR17-53"/>
      </g>
     </g>
    </g>
    <g id="ytick_16">
     <g id="line2d_35">
      <g>
       <use style="stroke:#000000;stroke-width:0.8;" x="104.596681" xlink:href="#mba542717f5" y="429.266158"/>
      </g>
     </g>
     <g id="text_36">
      <!-- $\mathdefault{0.0}$ -->
      <g transform="translate(77.653159 434.800952)scale(0.16 -0.16)">
       <use transform="scale(0.996264)" xlink:href="#CMR17-48"/>
       <use transform="translate(45.690477 0)scale(0.996264)" xlink:href="#CMMI12-58"/>
       <use transform="translate(72.787654 0)scale(0.996264)" xlink:href="#CMR17-48"/>
      </g>
     </g>
    </g>
    <g id="ytick_17">
     <g id="line2d_36">
      <g>
       <use style="stroke:#000000;stroke-width:0.8;" x="104.596681" xlink:href="#mba542717f5" y="394.801927"/>
      </g>
     </g>
     <g id="text_37">
      <!-- $\mathdefault{2.5}$ -->
      <g transform="translate(77.653159 400.336721)scale(0.16 -0.16)">
       <use transform="scale(0.996264)" xlink:href="#CMR17-50"/>
       <use transform="translate(45.690477 0)scale(0.996264)" xlink:href="#CMMI12-58"/>
       <use transform="translate(72.787654 0)scale(0.996264)" xlink:href="#CMR17-53"/>
      </g>
     </g>
    </g>
    <g id="ytick_18">
     <g id="line2d_37">
      <g>
       <use style="stroke:#000000;stroke-width:0.8;" x="104.596681" xlink:href="#mba542717f5" y="360.337696"/>
      </g>
     </g>
     <g id="text_38">
      <!-- $\mathdefault{5.0}$ -->
      <g transform="translate(77.653159 365.87249)scale(0.16 -0.16)">
       <use transform="scale(0.996264)" xlink:href="#CMR17-53"/>
       <use transform="translate(45.690477 0)scale(0.996264)" xlink:href="#CMMI12-58"/>
       <use transform="translate(72.787654 0)scale(0.996264)" xlink:href="#CMR17-48"/>
      </g>
     </g>
    </g>
    <g id="ytick_19">
     <g id="line2d_38">
      <g>
       <use style="stroke:#000000;stroke-width:0.8;" x="104.596681" xlink:href="#mba542717f5" y="325.873465"/>
      </g>
     </g>
     <g id="text_39">
      <!-- $\mathdefault{7.5}$ -->
      <g transform="translate(77.653159 331.408259)scale(0.16 -0.16)">
       <defs>
        <path d="M 45.09375 61.578125 
L 45.09375 63.765625 
L 21.59375 63.765625 
C 9.90625 63.765625 9.703125 65.078125 9.296875 67 
L 7.5 67 
L 4.59375 48.34375 
L 6.40625 48.34375 
C 6.703125 50.234375 7.40625 55.3125 8.59375 57.203125 
C 9.203125 58 16.59375 58 18.296875 58 
L 40.296875 58 
L 29.203125 41.578125 
C 21.796875 30.53125 16.703125 15.609375 16.703125 2.578125 
C 16.703125 1.390625 16.703125 -2 20.296875 -2 
C 23.90625 -2 23.90625 1.390625 23.90625 2.671875 
L 23.90625 7.265625 
C 23.90625 23.5625 26.703125 34.3125 31.296875 41.1875 
z
" id="CMR17-55"/>
       </defs>
       <use transform="scale(0.996264)" xlink:href="#CMR17-55"/>
       <use transform="translate(45.690477 0)scale(0.996264)" xlink:href="#CMMI12-58"/>
       <use transform="translate(72.787654 0)scale(0.996264)" xlink:href="#CMR17-53"/>
      </g>
     </g>
    </g>
    <g id="text_40">
     <!-- Imaginary -->
     <g transform="translate(56.604405 464.660674)rotate(-90)scale(0.24 -0.24)">
      <defs>
       <path d="M 19.703125 61.015625 
C 19.703125 65.5 20.90625 65.5 28.09375 65.5 
L 28.09375 68 
C 24.90625 68 19.796875 68 16.40625 68 
C 13 68 7.90625 68 4.703125 68 
L 4.703125 65.5 
C 11.90625 65.5 13.09375 65.5 13.09375 61.015625 
L 13.09375 6.984375 
C 13.09375 2.5 11.90625 2.5 4.703125 2.5 
L 4.703125 0 
C 7.90625 0 13 0 16.40625 0 
C 19.796875 0 24.90625 0 28.09375 0 
L 28.09375 2.5 
C 20.90625 2.5 19.703125 2.5 19.703125 6.984375 
z
" id="CMR17-73"/>
       <path d="M 67.59375 30.203125 
C 67.59375 35.1875 66.703125 43.59375 54.796875 43.59375 
C 48 43.59375 43.296875 39 41.5 33.609375 
L 41.40625 33.609375 
C 40.203125 41.8125 34.296875 43.59375 28.703125 43.59375 
C 20.796875 43.59375 16.703125 37.5 15.203125 33.5 
L 15.09375 33.5 
L 15.09375 43.59375 
L 3.296875 42.5 
L 3.296875 39.90625 
C 9.203125 39.90625 10.09375 39.296875 10.09375 34.5 
L 10.09375 6.6875 
C 10.09375 2.875 9.703125 2.390625 3.296875 2.390625 
L 3.296875 -0.203125 
C 5.703125 0 10.09375 0 12.703125 0 
C 15.296875 0 19.796875 0 22.203125 -0.203125 
L 22.203125 2.390625 
C 15.796875 2.390625 15.40625 2.78125 15.40625 6.6875 
L 15.40625 25.90625 
C 15.40625 35.109375 21 42 28 42 
C 35.40625 42 36.203125 35.40625 36.203125 30.59375 
L 36.203125 6.6875 
C 36.203125 2.875 35.796875 2.390625 29.40625 2.390625 
L 29.40625 -0.203125 
C 31.796875 0 36.203125 0 38.796875 0 
C 41.40625 0 45.90625 0 48.296875 -0.203125 
L 48.296875 2.390625 
C 41.90625 2.390625 41.5 2.78125 41.5 6.6875 
L 41.5 25.90625 
C 41.5 35.109375 47.09375 42 54.09375 42 
C 61.5 42 62.296875 35.40625 62.296875 30.59375 
L 62.296875 6.6875 
C 62.296875 2.875 61.90625 2.390625 55.5 2.390625 
L 55.5 -0.203125 
C 57.90625 0 62.296875 0 64.90625 0 
C 67.5 0 72 0 74.40625 -0.203125 
L 74.40625 2.390625 
C 68 2.390625 67.59375 2.78125 67.59375 6.6875 
z
" id="CMR17-109"/>
       <path d="M 11.09375 18.1875 
C 13 16.6875 16.296875 15 20.296875 15 
C 28.203125 15 35 21.203125 35 29.5 
C 35 32.09375 34.203125 36.09375 31.203125 39.203125 
C 34 42.0625 38.09375 43 40.40625 43 
C 40.796875 43 41.40625 43 41.90625 42.71875 
C 41.5 42.625 40.59375 42.234375 40.59375 40.703125 
C 40.59375 39.484375 41.5 38.609375 42.796875 38.609375 
C 44.296875 38.609375 45.09375 39.578125 45.09375 40.84375 
C 45.09375 42.671875 43.59375 44.59375 40.40625 44.59375 
C 36.40625 44.59375 32.90625 42.78125 30.09375 40.3125 
C 27.09375 43.015625 23.5 44 20.296875 44 
C 12.40625 44 5.59375 37.796875 5.59375 29.5 
C 5.59375 23.78125 8.90625 20.1875 9.90625 19.1875 
C 6.90625 15.6875 6.90625 11.609375 6.90625 11.109375 
C 6.90625 8.515625 7.90625 4.71875 11.296875 2.625 
C 6.09375 1.328125 2 -2.640625 2 -7.59375 
C 2 -14.734375 11.5 -20 22.90625 -20 
C 33.90625 -20 43.796875 -14.9375 43.796875 -7.484375 
C 43.796875 6 29 6 21.296875 6 
C 19 6 14.90625 6 14.40625 6.109375 
C 11.296875 6.609375 9.203125 9.40625 9.203125 12.90625 
C 9.203125 13.796875 9.203125 16 11.09375 18.1875 
z
M 20.296875 16.6875 
C 11.5 16.6875 11.5 27.5 11.5 29.515625 
C 11.5 31.5 11.5 42.3125 20.296875 42.3125 
C 29.09375 42.3125 29.09375 31.5 29.09375 29.515625 
C 29.09375 27.5 29.09375 16.6875 20.296875 16.6875 
z
M 22.90625 -18.296875 
C 12.90625 -18.296875 6 -13.046875 6 -7.59375 
C 6 -4.515625 7.703125 -1.640625 9.90625 -0.0625 
C 12.40625 1.625 13.40625 1.625 20.203125 1.625 
C 28.40625 1.625 39.796875 1.625 39.796875 -7.59375 
C 39.796875 -13.046875 32.90625 -18.296875 22.90625 -18.296875 
z
" id="CMR17-103"/>
       <path d="M 15.5 61.078125 
C 15.5 63.265625 13.703125 65.15625 11.40625 65.15625 
C 9.203125 65.15625 7.296875 63.375 7.296875 61.078125 
C 7.296875 58.890625 9.09375 57 11.40625 57 
C 13.59375 57 15.5 58.796875 15.5 61.078125 
z
M 3.796875 42.28125 
L 3.796875 39.703125 
C 9.40625 39.703125 10.203125 39.09375 10.203125 34.328125 
L 10.203125 6.671875 
C 10.203125 2.875 9.796875 2.390625 3.40625 2.390625 
L 3.40625 -0.203125 
C 5.796875 0 10.09375 0 12.59375 0 
C 15 0 19.09375 0 21.40625 -0.203125 
L 21.40625 2.390625 
C 15.5 2.390625 15.296875 2.984375 15.296875 6.5625 
L 15.296875 43.375 
z
" id="CMR17-105"/>
       <path d="M 41.5 30.203125 
C 41.5 35.296875 40.5 43.59375 28.703125 43.59375 
C 20.796875 43.59375 16.703125 37.5 15.203125 33.5 
L 15.09375 33.5 
L 15.09375 43.59375 
L 3.296875 42.5 
L 3.296875 39.90625 
C 9.203125 39.90625 10.09375 39.296875 10.09375 34.5 
L 10.09375 6.6875 
C 10.09375 2.875 9.703125 2.390625 3.296875 2.390625 
L 3.296875 -0.203125 
C 5.703125 0 10.09375 0 12.703125 0 
C 15.296875 0 19.796875 0 22.203125 -0.203125 
L 22.203125 2.390625 
C 15.796875 2.390625 15.40625 2.78125 15.40625 6.6875 
L 15.40625 25.90625 
C 15.40625 35.109375 21 42 28 42 
C 35.40625 42 36.203125 35.40625 36.203125 30.59375 
L 36.203125 6.6875 
C 36.203125 2.875 35.796875 2.390625 29.40625 2.390625 
L 29.40625 -0.203125 
C 31.796875 0 36.203125 0 38.796875 0 
C 41.40625 0 45.90625 0 48.296875 -0.203125 
L 48.296875 2.390625 
C 41.90625 2.390625 41.5 2.78125 41.5 6.6875 
z
" id="CMR17-110"/>
       <path d="M 15 23.390625 
C 15 33 19.09375 42 26.59375 42 
C 27.296875 42 28 41.90625 28.703125 41.59375 
C 28.703125 41.59375 26.5 40.890625 26.5 38.3125 
C 26.5 35.90625 28.40625 34.90625 29.90625 34.90625 
C 31.09375 34.90625 33.296875 35.609375 33.296875 38.40625 
C 33.296875 41.609375 30.09375 43.59375 26.703125 43.59375 
C 19.09375 43.59375 15.796875 36.203125 14.796875 32.703125 
L 14.703125 32.703125 
L 14.703125 43.59375 
L 3.09375 42.5 
L 3.09375 39.90625 
C 9 39.90625 9.90625 39.296875 9.90625 34.5 
L 9.90625 6.6875 
C 9.90625 2.875 9.5 2.390625 3.09375 2.390625 
L 3.09375 -0.203125 
C 5.5 0 10.09375 0 12.703125 0 
C 15.59375 0 20.703125 0 23.40625 -0.203125 
L 23.40625 2.390625 
C 16.203125 2.390625 15 2.390625 15 6.875 
z
" id="CMR17-114"/>
       <path d="M 39 34.328125 
C 41.5 40.40625 46 40.40625 47.40625 40.40625 
L 47.40625 43 
C 45.5 43 43 43 41.09375 43 
C 39 43 35.703125 43 33.703125 43.09375 
L 33.703125 40.5 
C 37.5 40.203125 37.59375 37.40625 37.59375 36.609375 
C 37.59375 35.625 37.40625 35.125 36.90625 33.921875 
L 26 7.015625 
L 14.09375 36.03125 
C 13.59375 37.21875 13.59375 37.90625 13.59375 38.015625 
C 13.59375 40.203125 15.90625 40.40625 18.296875 40.40625 
L 18.296875 43.09375 
C 15.90625 43 11.59375 43 9.09375 43 
C 6.40625 43 3.203125 43 1 43.09375 
L 1 40.40625 
C 6.40625 40.40625 7 39.90625 8.296875 36.71875 
L 23.203125 0.234375 
C 18.703125 -11.53125 16.09375 -18.40625 9.796875 -18.40625 
C 8.703125 -18.40625 6.203125 -18.109375 4.40625 -16.3125 
C 6.703125 -16.109375 7.703125 -14.71875 7.703125 -13.015625 
C 7.703125 -11.328125 6.5 -9.828125 4.5 -9.828125 
C 2.296875 -9.828125 1.203125 -11.328125 1.203125 -13.125 
C 1.203125 -17.109375 5.296875 -20 9.796875 -20 
C 15.59375 -20 19.203125 -14.40625 21.203125 -9.4375 
z
" id="CMR17-121"/>
      </defs>
      <use transform="scale(0.996264)" xlink:href="#CMR17-73"/>
      <use transform="translate(32.638409 0)scale(0.996264)" xlink:href="#CMR17-109"/>
      <use transform="translate(109.557999 0)scale(0.996264)" xlink:href="#CMR17-97"/>
      <use transform="translate(155.248476 0)scale(0.996264)" xlink:href="#CMR17-103"/>
      <use transform="translate(200.938953 0)scale(0.996264)" xlink:href="#CMR17-105"/>
      <use transform="translate(225.810012 0)scale(0.996264)" xlink:href="#CMR17-110"/>
      <use transform="translate(276.705382 0)scale(0.996264)" xlink:href="#CMR17-97"/>
      <use transform="translate(322.395859 0)scale(0.996264)" xlink:href="#CMR17-114"/>
      <use transform="translate(357.676626 0)scale(0.996264)" xlink:href="#CMR17-121"/>
     </g>
    </g>
    <g id="text_41">
     <!-- $\times\mathdefault{10^{−20}}\mathdefault{}$ -->
     <g transform="translate(104.596681 314.057736)scale(0.16 -0.16)">
      <defs>
       <path d="M 38.90625 27.890625 
L 18.90625 47.796875 
C 17.703125 49 17.5 49.1875 16.703125 49.1875 
C 15.703125 49.1875 14.703125 48.296875 14.703125 47.1875 
C 14.703125 46.5 14.90625 46.296875 16 45.1875 
L 36 25.09375 
L 16 5 
C 14.90625 3.890625 14.703125 3.6875 14.703125 3 
C 14.703125 1.890625 15.703125 1 16.703125 1 
C 17.5 1 17.703125 1.1875 18.90625 2.390625 
L 38.796875 22.296875 
L 59.5 1.59375 
C 59.703125 1.5 60.40625 1 61 1 
C 62.203125 1 63 1.890625 63 3 
C 63 3.1875 63 3.59375 62.703125 4.09375 
C 62.59375 4.296875 46.703125 20 41.703125 25.09375 
L 60 43.390625 
C 60.5 44 62 45.296875 62.5 45.890625 
C 62.59375 46.09375 63 46.5 63 47.1875 
C 63 48.296875 62.203125 49.1875 61 49.1875 
C 60.203125 49.1875 59.796875 48.796875 58.703125 47.6875 
z
" id="CMSY10-2"/>
      </defs>
      <use transform="scale(0.996264)" xlink:href="#CMSY10-2"/>
      <use transform="translate(77.487468 0)scale(0.996264)" xlink:href="#CMR17-49"/>
      <use transform="translate(123.177945 0)scale(0.996264)" xlink:href="#CMR17-48"/>
      <use transform="translate(168.868422 36.153639)scale(0.697382)" xlink:href="#CMSY10-0"/>
      <use transform="translate(223.109415 36.153639)scale(0.697382)" xlink:href="#CMR17-50"/>
      <use transform="translate(255.092597 36.153639)scale(0.697382)" xlink:href="#CMR17-48"/>
     </g>
    </g>
   </g>
   <g id="LineCollection_4">
    <path clip-path="url(#p01d01c0cb0)" d="M 115.170868 505.841245 
L 115.170868 326.047427 
" style="fill:none;stroke:#ff0000;stroke-width:2;"/>
    <path clip-path="url(#p01d01c0cb0)" d="M 121.992924 469.846403 
L 121.992924 439.955713 
" style="fill:none;stroke:#ff0000;stroke-width:2;"/>
    <path clip-path="url(#p01d01c0cb0)" d="M 128.814981 430.243995 
L 128.814981 424.222461 
" style="fill:none;stroke:#ff0000;stroke-width:2;"/>
    <path clip-path="url(#p01d01c0cb0)" d="M 135.637037 429.819767 
L 135.637037 428.284856 
" style="fill:none;stroke:#ff0000;stroke-width:2;"/>
    <path clip-path="url(#p01d01c0cb0)" d="M 142.459093 429.951136 
L 142.459093 429.455281 
" style="fill:none;stroke:#ff0000;stroke-width:2;"/>
    <path clip-path="url(#p01d01c0cb0)" d="M 149.28115 429.435924 
L 149.28115 429.276882 
" style="fill:none;stroke:#ff0000;stroke-width:2;"/>
    <path clip-path="url(#p01d01c0cb0)" d="M 156.103206 429.272215 
L 156.103206 429.208725 
" style="fill:none;stroke:#ff0000;stroke-width:2;"/>
    <path clip-path="url(#p01d01c0cb0)" d="M 162.925262 429.313324 
L 162.925262 429.263273 
" style="fill:none;stroke:#ff0000;stroke-width:2;"/>
    <path clip-path="url(#p01d01c0cb0)" d="M 169.747319 429.264327 
L 169.747319 429.234187 
" style="fill:none;stroke:#ff0000;stroke-width:2;"/>
    <path clip-path="url(#p01d01c0cb0)" d="M 176.569375 429.267813 
L 176.569375 429.250071 
" style="fill:none;stroke:#ff0000;stroke-width:2;"/>
    <path clip-path="url(#p01d01c0cb0)" d="M 183.391431 429.292469 
L 183.391431 429.278045 
" style="fill:none;stroke:#ff0000;stroke-width:2;"/>
    <path clip-path="url(#p01d01c0cb0)" d="M 190.213488 429.273371 
L 190.213488 429.263679 
" style="fill:none;stroke:#ff0000;stroke-width:2;"/>
    <path clip-path="url(#p01d01c0cb0)" d="M 197.035544 429.274902 
L 197.035544 429.268779 
" style="fill:none;stroke:#ff0000;stroke-width:2;"/>
    <path clip-path="url(#p01d01c0cb0)" d="M 203.8576 429.265377 
L 203.8576 429.259494 
" style="fill:none;stroke:#ff0000;stroke-width:2;"/>
    <path clip-path="url(#p01d01c0cb0)" d="M 210.679656 429.269171 
L 210.679656 429.265017 
" style="fill:none;stroke:#ff0000;stroke-width:2;"/>
    <path clip-path="url(#p01d01c0cb0)" d="M 217.501713 429.268101 
L 217.501713 429.264267 
" style="fill:none;stroke:#ff0000;stroke-width:2;"/>
    <path clip-path="url(#p01d01c0cb0)" d="M 224.323769 429.265783 
L 224.323769 429.262979 
" style="fill:none;stroke:#ff0000;stroke-width:2;"/>
    <path clip-path="url(#p01d01c0cb0)" d="M 231.145825 429.266964 
L 231.145825 429.262962 
" style="fill:none;stroke:#ff0000;stroke-width:2;"/>
    <path clip-path="url(#p01d01c0cb0)" d="M 237.967882 429.274616 
L 237.967882 429.267206 
" style="fill:none;stroke:#ff0000;stroke-width:2;"/>
    <path clip-path="url(#p01d01c0cb0)" d="M 244.789938 429.27422 
L 244.789938 429.266498 
" style="fill:none;stroke:#ff0000;stroke-width:2;"/>
    <path clip-path="url(#p01d01c0cb0)" d="M 251.611994 429.274449 
L 251.611994 429.265289 
" style="fill:none;stroke:#ff0000;stroke-width:2;"/>
    <path clip-path="url(#p01d01c0cb0)" d="M 258.434051 429.266607 
L 258.434051 429.255816 
" style="fill:none;stroke:#ff0000;stroke-width:2;"/>
    <path clip-path="url(#p01d01c0cb0)" d="M 265.256107 429.278943 
L 265.256107 429.259916 
" style="fill:none;stroke:#ff0000;stroke-width:2;"/>
    <path clip-path="url(#p01d01c0cb0)" d="M 272.078163 429.287979 
L 272.078163 429.266307 
" style="fill:none;stroke:#ff0000;stroke-width:2;"/>
    <path clip-path="url(#p01d01c0cb0)" d="M 278.90022 429.297554 
L 278.90022 429.257448 
" style="fill:none;stroke:#ff0000;stroke-width:2;"/>
    <path clip-path="url(#p01d01c0cb0)" d="M 285.722276 429.246031 
L 285.722276 429.18038 
" style="fill:none;stroke:#ff0000;stroke-width:2;"/>
    <path clip-path="url(#p01d01c0cb0)" d="M 292.544332 429.2905 
L 292.544332 429.200614 
" style="fill:none;stroke:#ff0000;stroke-width:2;"/>
    <path clip-path="url(#p01d01c0cb0)" d="M 299.366389 429.41163 
L 299.366389 429.213156 
" style="fill:none;stroke:#ff0000;stroke-width:2;"/>
    <path clip-path="url(#p01d01c0cb0)" d="M 306.188445 429.510262 
L 306.188445 429.048168 
" style="fill:none;stroke:#ff0000;stroke-width:2;"/>
    <path clip-path="url(#p01d01c0cb0)" d="M 313.010501 428.744892 
L 313.010501 427.099579 
" style="fill:none;stroke:#ff0000;stroke-width:2;"/>
    <path clip-path="url(#p01d01c0cb0)" d="M 319.832557 433.892457 
L 319.832557 427.808092 
" style="fill:none;stroke:#ff0000;stroke-width:2;"/>
    <path clip-path="url(#p01d01c0cb0)" d="M 326.654614 442.313303 
L 326.654614 411.239002 
" style="fill:none;stroke:#ff0000;stroke-width:2;"/>
   </g>
   <g id="line2d_39">
    <path clip-path="url(#p01d01c0cb0)" d="M 115.170868 415.944336 
L 121.992924 454.901058 
L 128.814981 427.233228 
L 135.637037 429.052311 
L 142.459093 429.703208 
L 149.28115 429.356403 
L 156.103206 429.24047 
L 162.925262 429.288299 
L 169.747319 429.249257 
L 176.569375 429.258942 
L 183.391431 429.285257 
L 190.213488 429.268525 
L 197.035544 429.27184 
L 203.8576 429.262435 
L 210.679656 429.267094 
L 217.501713 429.266184 
L 224.323769 429.264381 
L 231.145825 429.264963 
L 237.967882 429.270911 
L 244.789938 429.270359 
L 251.611994 429.269869 
L 258.434051 429.261211 
L 265.256107 429.269429 
L 272.078163 429.277143 
L 278.90022 429.277501 
L 285.722276 429.213205 
L 292.544332 429.245557 
L 299.366389 429.312393 
L 306.188445 429.279215 
L 313.010501 427.922236 
L 319.832557 430.850274 
L 326.654614 426.776153 
" style="fill:none;stroke:#000000;stroke-linecap:square;stroke-width:2;"/>
   </g>
   <g id="patch_18">
    <path d="M 104.596681 514.830936 
L 104.596681 317.057736 
" style="fill:none;stroke:#000000;stroke-linecap:square;stroke-linejoin:miter;stroke-width:0.8;"/>
   </g>
   <g id="patch_19">
    <path d="M 337.228801 514.830936 
L 337.228801 317.057736 
" style="fill:none;stroke:#000000;stroke-linecap:square;stroke-linejoin:miter;stroke-width:0.8;"/>
   </g>
   <g id="patch_20">
    <path d="M 104.596681 514.830936 
L 337.228801 514.830936 
" style="fill:none;stroke:#000000;stroke-linecap:square;stroke-linejoin:miter;stroke-width:0.8;"/>
   </g>
   <g id="patch_21">
    <path d="M 104.596681 317.057736 
L 337.228801 317.057736 
" style="fill:none;stroke:#000000;stroke-linecap:square;stroke-linejoin:miter;stroke-width:0.8;"/>
   </g>
  </g>
  <g id="axes_5">
   <g id="patch_22">
    <path d="M 419.98228 514.830936 
L 652.614401 514.830936 
L 652.614401 317.057736 
L 419.98228 317.057736 
z
" style="fill:#ffffff;"/>
   </g>
   <g id="matplotlib.axis_9">
    <g id="xtick_17">
     <g id="line2d_40">
      <g>
       <use style="stroke:#000000;stroke-width:0.8;" x="430.556468" xlink:href="#m5f22d8bb9d" y="514.830936"/>
      </g>
     </g>
     <g id="text_42">
      <!-- $\mathdefault{0}$ -->
      <g transform="translate(426.654474 532.900524)scale(0.16 -0.16)">
       <use transform="scale(0.996264)" xlink:href="#CMR17-48"/>
      </g>
     </g>
    </g>
    <g id="xtick_18">
     <g id="line2d_41">
      <g>
       <use style="stroke:#000000;stroke-width:0.8;" x="496.645138" xlink:href="#m5f22d8bb9d" y="514.830936"/>
      </g>
     </g>
     <g id="text_43">
      <!-- $\mathdefault{5}$ -->
      <g transform="translate(492.743145 532.900524)scale(0.16 -0.16)">
       <use transform="scale(0.996264)" xlink:href="#CMR17-53"/>
      </g>
     </g>
    </g>
    <g id="xtick_19">
     <g id="line2d_42">
      <g>
       <use style="stroke:#000000;stroke-width:0.8;" x="562.733809" xlink:href="#m5f22d8bb9d" y="514.830936"/>
      </g>
     </g>
     <g id="text_44">
      <!-- $\mathdefault{10}$ -->
      <g transform="translate(554.929822 532.900524)scale(0.16 -0.16)">
       <use transform="scale(0.996264)" xlink:href="#CMR17-49"/>
       <use transform="translate(45.690477 0)scale(0.996264)" xlink:href="#CMR17-48"/>
      </g>
     </g>
    </g>
    <g id="xtick_20">
     <g id="line2d_43">
      <g>
       <use style="stroke:#000000;stroke-width:0.8;" x="628.822479" xlink:href="#m5f22d8bb9d" y="514.830936"/>
      </g>
     </g>
     <g id="text_45">
      <!-- $\mathdefault{15}$ -->
      <g transform="translate(621.018492 532.900524)scale(0.16 -0.16)">
       <use transform="scale(0.996264)" xlink:href="#CMR17-49"/>
       <use transform="translate(45.690477 0)scale(0.996264)" xlink:href="#CMR17-53"/>
      </g>
     </g>
    </g>
   </g>
   <g id="matplotlib.axis_10">
    <g id="ytick_20">
     <g id="line2d_44">
      <g>
       <use style="stroke:#000000;stroke-width:0.8;" x="419.98228" xlink:href="#mba542717f5" y="498.19462"/>
      </g>
     </g>
     <g id="text_46">
      <!-- $\mathdefault{−5.0}$ -->
      <g transform="translate(380.640762 503.729415)scale(0.16 -0.16)">
       <use transform="scale(0.996264)" xlink:href="#CMSY10-0"/>
       <use transform="translate(77.487468 0)scale(0.996264)" xlink:href="#CMR17-53"/>
       <use transform="translate(123.177945 0)scale(0.996264)" xlink:href="#CMMI12-58"/>
       <use transform="translate(150.275122 0)scale(0.996264)" xlink:href="#CMR17-48"/>
      </g>
     </g>
    </g>
    <g id="ytick_21">
     <g id="line2d_45">
      <g>
       <use style="stroke:#000000;stroke-width:0.8;" x="419.98228" xlink:href="#mba542717f5" y="463.730389"/>
      </g>
     </g>
     <g id="text_47">
      <!-- $\mathdefault{−2.5}$ -->
      <g transform="translate(380.640762 469.265183)scale(0.16 -0.16)">
       <use transform="scale(0.996264)" xlink:href="#CMSY10-0"/>
       <use transform="translate(77.487468 0)scale(0.996264)" xlink:href="#CMR17-50"/>
       <use transform="translate(123.177945 0)scale(0.996264)" xlink:href="#CMMI12-58"/>
       <use transform="translate(150.275122 0)scale(0.996264)" xlink:href="#CMR17-53"/>
      </g>
     </g>
    </g>
    <g id="ytick_22">
     <g id="line2d_46">
      <g>
       <use style="stroke:#000000;stroke-width:0.8;" x="419.98228" xlink:href="#mba542717f5" y="429.266158"/>
      </g>
     </g>
     <g id="text_48">
      <!-- $\mathdefault{0.0}$ -->
      <g transform="translate(393.038758 434.800952)scale(0.16 -0.16)">
       <use transform="scale(0.996264)" xlink:href="#CMR17-48"/>
       <use transform="translate(45.690477 0)scale(0.996264)" xlink:href="#CMMI12-58"/>
       <use transform="translate(72.787654 0)scale(0.996264)" xlink:href="#CMR17-48"/>
      </g>
     </g>
    </g>
    <g id="ytick_23">
     <g id="line2d_47">
      <g>
       <use style="stroke:#000000;stroke-width:0.8;" x="419.98228" xlink:href="#mba542717f5" y="394.801927"/>
      </g>
     </g>
     <g id="text_49">
      <!-- $\mathdefault{2.5}$ -->
      <g transform="translate(393.038758 400.336721)scale(0.16 -0.16)">
       <use transform="scale(0.996264)" xlink:href="#CMR17-50"/>
       <use transform="translate(45.690477 0)scale(0.996264)" xlink:href="#CMMI12-58"/>
       <use transform="translate(72.787654 0)scale(0.996264)" xlink:href="#CMR17-53"/>
      </g>
     </g>
    </g>
    <g id="ytick_24">
     <g id="line2d_48">
      <g>
       <use style="stroke:#000000;stroke-width:0.8;" x="419.98228" xlink:href="#mba542717f5" y="360.337696"/>
      </g>
     </g>
     <g id="text_50">
      <!-- $\mathdefault{5.0}$ -->
      <g transform="translate(393.038758 365.87249)scale(0.16 -0.16)">
       <use transform="scale(0.996264)" xlink:href="#CMR17-53"/>
       <use transform="translate(45.690477 0)scale(0.996264)" xlink:href="#CMMI12-58"/>
       <use transform="translate(72.787654 0)scale(0.996264)" xlink:href="#CMR17-48"/>
      </g>
     </g>
    </g>
    <g id="ytick_25">
     <g id="line2d_49">
      <g>
       <use style="stroke:#000000;stroke-width:0.8;" x="419.98228" xlink:href="#mba542717f5" y="325.873465"/>
      </g>
     </g>
     <g id="text_51">
      <!-- $\mathdefault{7.5}$ -->
      <g transform="translate(393.038758 331.408259)scale(0.16 -0.16)">
       <use transform="scale(0.996264)" xlink:href="#CMR17-55"/>
       <use transform="translate(45.690477 0)scale(0.996264)" xlink:href="#CMMI12-58"/>
       <use transform="translate(72.787654 0)scale(0.996264)" xlink:href="#CMR17-53"/>
      </g>
     </g>
    </g>
    <g id="text_52">
     <!-- $\times\mathdefault{10^{−20}}\mathdefault{}$ -->
     <g transform="translate(419.98228 314.057736)scale(0.16 -0.16)">
      <use transform="scale(0.996264)" xlink:href="#CMSY10-2"/>
      <use transform="translate(77.487468 0)scale(0.996264)" xlink:href="#CMR17-49"/>
      <use transform="translate(123.177945 0)scale(0.996264)" xlink:href="#CMR17-48"/>
      <use transform="translate(168.868422 36.153639)scale(0.697382)" xlink:href="#CMSY10-0"/>
      <use transform="translate(223.109415 36.153639)scale(0.697382)" xlink:href="#CMR17-50"/>
      <use transform="translate(255.092597 36.153639)scale(0.697382)" xlink:href="#CMR17-48"/>
     </g>
    </g>
   </g>
   <g id="LineCollection_5">
    <path clip-path="url(#p425e5ddad6)" d="M 430.556468 505.841245 
L 430.556468 326.047427 
" style="fill:none;stroke:#ff0000;stroke-width:2;"/>
    <path clip-path="url(#p425e5ddad6)" d="M 443.774202 452.200817 
L 443.774202 429.476394 
" style="fill:none;stroke:#ff0000;stroke-width:2;"/>
    <path clip-path="url(#p425e5ddad6)" d="M 456.991936 431.271007 
L 456.991936 426.812496 
" style="fill:none;stroke:#ff0000;stroke-width:2;"/>
    <path clip-path="url(#p425e5ddad6)" d="M 470.20967 429.04932 
L 470.20967 427.925227 
" style="fill:none;stroke:#ff0000;stroke-width:2;"/>
    <path clip-path="url(#p425e5ddad6)" d="M 483.427404 429.657638 
L 483.427404 429.324786 
" style="fill:none;stroke:#ff0000;stroke-width:2;"/>
    <path clip-path="url(#p425e5ddad6)" d="M 496.645138 429.399864 
L 496.645138 429.268932 
" style="fill:none;stroke:#ff0000;stroke-width:2;"/>
    <path clip-path="url(#p425e5ddad6)" d="M 509.862872 429.270518 
L 509.862872 429.215509 
" style="fill:none;stroke:#ff0000;stroke-width:2;"/>
    <path clip-path="url(#p425e5ddad6)" d="M 523.080606 429.271783 
L 523.080606 429.229721 
" style="fill:none;stroke:#ff0000;stroke-width:2;"/>
    <path clip-path="url(#p425e5ddad6)" d="M 536.29834 429.276274 
L 536.29834 429.250484 
" style="fill:none;stroke:#ff0000;stroke-width:2;"/>
    <path clip-path="url(#p425e5ddad6)" d="M 549.516075 429.274983 
L 549.516075 429.261102 
" style="fill:none;stroke:#ff0000;stroke-width:2;"/>
    <path clip-path="url(#p425e5ddad6)" d="M 562.733809 429.28321 
L 562.733809 429.271476 
" style="fill:none;stroke:#ff0000;stroke-width:2;"/>
    <path clip-path="url(#p425e5ddad6)" d="M 575.951543 429.268359 
L 575.951543 429.261377 
" style="fill:none;stroke:#ff0000;stroke-width:2;"/>
    <path clip-path="url(#p425e5ddad6)" d="M 589.169277 429.273674 
L 589.169277 429.268035 
" style="fill:none;stroke:#ff0000;stroke-width:2;"/>
    <path clip-path="url(#p425e5ddad6)" d="M 602.387011 429.268945 
L 602.387011 429.263849 
" style="fill:none;stroke:#ff0000;stroke-width:2;"/>
    <path clip-path="url(#p425e5ddad6)" d="M 615.604745 429.271083 
L 615.604745 429.266921 
" style="fill:none;stroke:#ff0000;stroke-width:2;"/>
    <path clip-path="url(#p425e5ddad6)" d="M 628.822479 429.266961 
L 628.822479 429.264186 
" style="fill:none;stroke:#ff0000;stroke-width:2;"/>
    <path clip-path="url(#p425e5ddad6)" d="M 642.040213 429.265783 
L 642.040213 429.262979 
" style="fill:none;stroke:#ff0000;stroke-width:2;"/>
   </g>
   <g id="line2d_50">
    <path clip-path="url(#p425e5ddad6)" d="M 430.556468 415.944336 
L 443.774202 440.838605 
L 456.991936 429.041751 
L 470.20967 428.487273 
L 483.427404 429.491212 
L 496.645138 429.334398 
L 509.862872 429.243014 
L 523.080606 429.250752 
L 536.29834 429.263379 
L 549.516075 429.268043 
L 562.733809 429.277343 
L 575.951543 429.264868 
L 589.169277 429.270855 
L 602.387011 429.266397 
L 615.604745 429.269002 
L 628.822479 429.265574 
L 642.040213 429.264381 
" style="fill:none;stroke:#000000;stroke-linecap:square;stroke-width:2;"/>
   </g>
   <g id="patch_23">
    <path d="M 419.98228 514.830936 
L 419.98228 317.057736 
" style="fill:none;stroke:#000000;stroke-linecap:square;stroke-linejoin:miter;stroke-width:0.8;"/>
   </g>
   <g id="patch_24">
    <path d="M 652.614401 514.830936 
L 652.614401 317.057736 
" style="fill:none;stroke:#000000;stroke-linecap:square;stroke-linejoin:miter;stroke-width:0.8;"/>
   </g>
   <g id="patch_25">
    <path d="M 419.98228 514.830936 
L 652.614401 514.830936 
" style="fill:none;stroke:#000000;stroke-linecap:square;stroke-linejoin:miter;stroke-width:0.8;"/>
   </g>
   <g id="patch_26">
    <path d="M 419.98228 317.057736 
L 652.614401 317.057736 
" style="fill:none;stroke:#000000;stroke-linecap:square;stroke-linejoin:miter;stroke-width:0.8;"/>
   </g>
  </g>
  <g id="axes_6">
   <g id="patch_27">
    <path d="M 735.36788 514.830936 
L 968 514.830936 
L 968 317.057736 
L 735.36788 317.057736 
z
" style="fill:#ffffff;"/>
   </g>
   <g id="matplotlib.axis_11">
    <g id="xtick_21">
     <g id="line2d_51">
      <g>
       <use style="stroke:#000000;stroke-width:0.8;" x="745.942067" xlink:href="#m5f22d8bb9d" y="514.830936"/>
      </g>
     </g>
     <g id="text_53">
      <!-- $\mathdefault{0}$ -->
      <g transform="translate(742.040074 532.900524)scale(0.16 -0.16)">
       <use transform="scale(0.996264)" xlink:href="#CMR17-48"/>
      </g>
     </g>
    </g>
    <g id="xtick_22">
     <g id="line2d_52">
      <g>
       <use style="stroke:#000000;stroke-width:0.8;" x="812.030738" xlink:href="#m5f22d8bb9d" y="514.830936"/>
      </g>
     </g>
     <g id="text_54">
      <!-- $\mathdefault{5}$ -->
      <g transform="translate(808.128744 532.900524)scale(0.16 -0.16)">
       <use transform="scale(0.996264)" xlink:href="#CMR17-53"/>
      </g>
     </g>
    </g>
    <g id="xtick_23">
     <g id="line2d_53">
      <g>
       <use style="stroke:#000000;stroke-width:0.8;" x="878.119408" xlink:href="#m5f22d8bb9d" y="514.830936"/>
      </g>
     </g>
     <g id="text_55">
      <!-- $\mathdefault{10}$ -->
      <g transform="translate(870.315421 532.900524)scale(0.16 -0.16)">
       <use transform="scale(0.996264)" xlink:href="#CMR17-49"/>
       <use transform="translate(45.690477 0)scale(0.996264)" xlink:href="#CMR17-48"/>
      </g>
     </g>
    </g>
    <g id="xtick_24">
     <g id="line2d_54">
      <g>
       <use style="stroke:#000000;stroke-width:0.8;" x="944.208079" xlink:href="#m5f22d8bb9d" y="514.830936"/>
      </g>
     </g>
     <g id="text_56">
      <!-- $\mathdefault{15}$ -->
      <g transform="translate(936.404092 532.900524)scale(0.16 -0.16)">
       <use transform="scale(0.996264)" xlink:href="#CMR17-49"/>
       <use transform="translate(45.690477 0)scale(0.996264)" xlink:href="#CMR17-53"/>
      </g>
     </g>
    </g>
   </g>
   <g id="matplotlib.axis_12">
    <g id="ytick_26">
     <g id="line2d_55">
      <g>
       <use style="stroke:#000000;stroke-width:0.8;" x="735.36788" xlink:href="#mba542717f5" y="483.132341"/>
      </g>
     </g>
     <g id="text_57">
      <!-- $\mathdefault{−1.5}$ -->
      <g transform="translate(696.026362 488.667135)scale(0.16 -0.16)">
       <use transform="scale(0.996264)" xlink:href="#CMSY10-0"/>
       <use transform="translate(77.487468 0)scale(0.996264)" xlink:href="#CMR17-49"/>
       <use transform="translate(123.177945 0)scale(0.996264)" xlink:href="#CMMI12-58"/>
       <use transform="translate(150.275122 0)scale(0.996264)" xlink:href="#CMR17-53"/>
      </g>
     </g>
    </g>
    <g id="ytick_27">
     <g id="line2d_56">
      <g>
       <use style="stroke:#000000;stroke-width:0.8;" x="735.36788" xlink:href="#mba542717f5" y="438.999327"/>
      </g>
     </g>
     <g id="text_58">
      <!-- $\mathdefault{−1.0}$ -->
      <g transform="translate(696.026362 444.534122)scale(0.16 -0.16)">
       <use transform="scale(0.996264)" xlink:href="#CMSY10-0"/>
       <use transform="translate(77.487468 0)scale(0.996264)" xlink:href="#CMR17-49"/>
       <use transform="translate(123.177945 0)scale(0.996264)" xlink:href="#CMMI12-58"/>
       <use transform="translate(150.275122 0)scale(0.996264)" xlink:href="#CMR17-48"/>
      </g>
     </g>
    </g>
    <g id="ytick_28">
     <g id="line2d_57">
      <g>
       <use style="stroke:#000000;stroke-width:0.8;" x="735.36788" xlink:href="#mba542717f5" y="394.866314"/>
      </g>
     </g>
     <g id="text_59">
      <!-- $\mathdefault{−0.5}$ -->
      <g transform="translate(696.026362 400.401108)scale(0.16 -0.16)">
       <use transform="scale(0.996264)" xlink:href="#CMSY10-0"/>
       <use transform="translate(77.487468 0)scale(0.996264)" xlink:href="#CMR17-48"/>
       <use transform="translate(123.177945 0)scale(0.996264)" xlink:href="#CMMI12-58"/>
       <use transform="translate(150.275122 0)scale(0.996264)" xlink:href="#CMR17-53"/>
      </g>
     </g>
    </g>
    <g id="ytick_29">
     <g id="line2d_58">
      <g>
       <use style="stroke:#000000;stroke-width:0.8;" x="735.36788" xlink:href="#mba542717f5" y="350.733301"/>
      </g>
     </g>
     <g id="text_60">
      <!-- $\mathdefault{0.0}$ -->
      <g transform="translate(708.424358 356.268095)scale(0.16 -0.16)">
       <use transform="scale(0.996264)" xlink:href="#CMR17-48"/>
       <use transform="translate(45.690477 0)scale(0.996264)" xlink:href="#CMMI12-58"/>
       <use transform="translate(72.787654 0)scale(0.996264)" xlink:href="#CMR17-48"/>
      </g>
     </g>
    </g>
    <g id="text_61">
     <!-- $\times\mathdefault{10^{−20}}\mathdefault{}$ -->
     <g transform="translate(735.36788 314.057736)scale(0.16 -0.16)">
      <use transform="scale(0.996264)" xlink:href="#CMSY10-2"/>
      <use transform="translate(77.487468 0)scale(0.996264)" xlink:href="#CMR17-49"/>
      <use transform="translate(123.177945 0)scale(0.996264)" xlink:href="#CMR17-48"/>
      <use transform="translate(168.868422 36.153639)scale(0.697382)" xlink:href="#CMSY10-0"/>
      <use transform="translate(223.109415 36.153639)scale(0.697382)" xlink:href="#CMR17-50"/>
      <use transform="translate(255.092597 36.153639)scale(0.697382)" xlink:href="#CMR17-48"/>
     </g>
    </g>
   </g>
   <g id="LineCollection_6">
    <path clip-path="url(#p3ee3009d13)" d="M 745.942067 350.733301 
L 745.942067 350.733301 
" style="fill:none;stroke:#ff0000;stroke-width:2;"/>
    <path clip-path="url(#p3ee3009d13)" d="M 759.159801 505.841245 
L 759.159801 375.701448 
" style="fill:none;stroke:#ff0000;stroke-width:2;"/>
    <path clip-path="url(#p3ee3009d13)" d="M 772.377535 352.260215 
L 772.377535 326.047427 
" style="fill:none;stroke:#ff0000;stroke-width:2;"/>
    <path clip-path="url(#p3ee3009d13)" d="M 785.595269 357.95588 
L 785.595269 350.746289 
" style="fill:none;stroke:#ff0000;stroke-width:2;"/>
    <path clip-path="url(#p3ee3009d13)" d="M 798.813004 353.194598 
L 798.813004 350.986716 
" style="fill:none;stroke:#ff0000;stroke-width:2;"/>
    <path clip-path="url(#p3ee3009d13)" d="M 812.030738 351.268885 
L 812.030738 350.479501 
" style="fill:none;stroke:#ff0000;stroke-width:2;"/>
    <path clip-path="url(#p3ee3009d13)" d="M 825.248472 350.893213 
L 825.248472 350.540821 
" style="fill:none;stroke:#ff0000;stroke-width:2;"/>
    <path clip-path="url(#p3ee3009d13)" d="M 838.466206 351.103285 
L 838.466206 350.844119 
" style="fill:none;stroke:#ff0000;stroke-width:2;"/>
    <path clip-path="url(#p3ee3009d13)" d="M 851.68394 350.720863 
L 851.68394 350.564902 
" style="fill:none;stroke:#ff0000;stroke-width:2;"/>
    <path clip-path="url(#p3ee3009d13)" d="M 864.901674 350.720256 
L 864.901674 350.629811 
" style="fill:none;stroke:#ff0000;stroke-width:2;"/>
    <path clip-path="url(#p3ee3009d13)" d="M 878.119408 350.822835 
L 878.119408 350.745109 
" style="fill:none;stroke:#ff0000;stroke-width:2;"/>
    <path clip-path="url(#p3ee3009d13)" d="M 891.337142 350.780763 
L 891.337142 350.732665 
" style="fill:none;stroke:#ff0000;stroke-width:2;"/>
    <path clip-path="url(#p3ee3009d13)" d="M 904.554876 350.756825 
L 904.554876 350.722398 
" style="fill:none;stroke:#ff0000;stroke-width:2;"/>
    <path clip-path="url(#p3ee3009d13)" d="M 917.77261 350.72266 
L 917.77261 350.693209 
" style="fill:none;stroke:#ff0000;stroke-width:2;"/>
    <path clip-path="url(#p3ee3009d13)" d="M 930.990345 350.734948 
L 930.990345 350.707216 
" style="fill:none;stroke:#ff0000;stroke-width:2;"/>
    <path clip-path="url(#p3ee3009d13)" d="M 944.208079 350.74607 
L 944.208079 350.728352 
" style="fill:none;stroke:#ff0000;stroke-width:2;"/>
    <path clip-path="url(#p3ee3009d13)" d="M 957.425813 350.733301 
L 957.425813 350.733301 
" style="fill:none;stroke:#ff0000;stroke-width:2;"/>
   </g>
   <g id="line2d_59">
    <path clip-path="url(#p3ee3009d13)" d="M 745.942067 350.733301 
L 759.159801 440.771346 
L 772.377535 339.153821 
L 785.595269 354.351084 
L 798.813004 352.090657 
L 812.030738 350.874193 
L 825.248472 350.717017 
L 838.466206 350.973702 
L 851.68394 350.642883 
L 864.901674 350.675034 
L 878.119408 350.783972 
L 891.337142 350.756714 
L 904.554876 350.739612 
L 917.77261 350.707935 
L 930.990345 350.721082 
L 944.208079 350.737211 
L 957.425813 350.733301 
" style="fill:none;stroke:#000000;stroke-linecap:square;stroke-width:2;"/>
   </g>
   <g id="patch_28">
    <path d="M 735.36788 514.830936 
L 735.36788 317.057736 
" style="fill:none;stroke:#000000;stroke-linecap:square;stroke-linejoin:miter;stroke-width:0.8;"/>
   </g>
   <g id="patch_29">
    <path d="M 968 514.830936 
L 968 317.057736 
" style="fill:none;stroke:#000000;stroke-linecap:square;stroke-linejoin:miter;stroke-width:0.8;"/>
   </g>
   <g id="patch_30">
    <path d="M 735.36788 514.830936 
L 968 514.830936 
" style="fill:none;stroke:#000000;stroke-linecap:square;stroke-linejoin:miter;stroke-width:0.8;"/>
   </g>
   <g id="patch_31">
    <path d="M 735.36788 317.057736 
L 968 317.057736 
" style="fill:none;stroke:#000000;stroke-linecap:square;stroke-linejoin:miter;stroke-width:0.8;"/>
   </g>
  </g>
 </g>
 <defs>
  <clipPath id="p96e4629ca0">
   <rect height="197.773199" width="232.63212" x="104.596681" y="63.911226"/>
  </clipPath>
  <clipPath id="p0be32f0fb3">
   <rect height="197.773199" width="232.63212" x="419.98228" y="63.911226"/>
  </clipPath>
  <clipPath id="pc99c421fd7">
   <rect height="197.773199" width="232.63212" x="735.36788" y="63.911226"/>
  </clipPath>
  <clipPath id="p01d01c0cb0">
   <rect height="197.773199" width="232.63212" x="104.596681" y="317.057736"/>
  </clipPath>
  <clipPath id="p425e5ddad6">
   <rect height="197.773199" width="232.63212" x="419.98228" y="317.057736"/>
  </clipPath>
  <clipPath id="p3ee3009d13">
   <rect height="197.773199" width="232.63212" x="735.36788" y="317.057736"/>
  </clipPath>
 </defs>
</svg>
