<?xml version="1.0" encoding="utf-8" standalone="no"?>
<!DOCTYPE svg PUBLIC "-//W3C//DTD SVG 1.1//EN"
  "http://www.w3.org/Graphics/SVG/1.1/DTD/svg11.dtd">
<!-- Created with matplotlib (https://matplotlib.org/) -->
<svg height="576pt" version="1.1" viewBox="0 0 1008 576" width="1008pt" xmlns="http://www.w3.org/2000/svg" xmlns:xlink="http://www.w3.org/1999/xlink">
 <metadata>
  <rdf:RDF xmlns:cc="http://creativecommons.org/ns#" xmlns:dc="http://purl.org/dc/elements/1.1/" xmlns:rdf="http://www.w3.org/1999/02/22-rdf-syntax-ns#">
   <cc:Work>
    <dc:type rdf:resource="http://purl.org/dc/dcmitype/StillImage"/>
    <dc:date>2022-10-11T17:34:08.424435</dc:date>
    <dc:format>image/svg+xml</dc:format>
    <dc:creator>
     <cc:Agent>
      <dc:title>Matplotlib v3.3.4, https://matplotlib.org/</dc:title>
     </cc:Agent>
    </dc:creator>
   </cc:Work>
  </rdf:RDF>
 </metadata>
 <defs>
  <style type="text/css">*{stroke-linecap:butt;stroke-linejoin:round;}</style>
 </defs>
 <g id="figure_1">
  <g id="patch_1">
   <path d="M 0 576 
L 1008 576 
L 1008 0 
L 0 0 
z
" style="fill:#ffffff;"/>
  </g>
  <g id="axes_1">
   <g id="patch_2">
    <path d="M 92.457146 261.684426 
L 329.135777 261.684426 
L 329.135777 63.911226 
L 92.457146 63.911226 
z
" style="fill:#ffffff;"/>
   </g>
   <g id="matplotlib.axis_1">
    <g id="xtick_1">
     <g id="line2d_1">
      <defs>
       <path d="M 0 0 
L 0 3.5 
" id="m2852f9691e" style="stroke:#000000;stroke-width:0.8;"/>
      </defs>
      <g>
       <use style="stroke:#000000;stroke-width:0.8;" x="103.215265" xlink:href="#m2852f9691e" y="261.684426"/>
      </g>
     </g>
     <g id="text_1">
      <!-- $\mathdefault{0}$ -->
      <g transform="translate(99.313272 279.754014)scale(0.16 -0.16)">
       <defs>
        <path d="M 42 31.640625 
C 42 37.75 41.90625 48.125 37.703125 56.109375 
C 34 63.109375 28.09375 65.59375 22.90625 65.59375 
C 18.09375 65.59375 12 63.40625 8.203125 56.203125 
C 4.203125 48.71875 3.796875 39.4375 3.796875 31.640625 
C 3.796875 25.953125 3.90625 17.28125 7 9.671875 
C 11.296875 -0.609375 19 -2 22.90625 -2 
C 27.5 -2 34.5 -0.109375 38.59375 9.375 
C 41.59375 16.28125 42 24.359375 42 31.640625 
z
M 22.90625 -0.40625 
C 16.5 -0.40625 12.703125 5.078125 11.296875 12.6875 
C 10.203125 18.5625 10.203125 27.15625 10.203125 32.75 
C 10.203125 40.4375 10.203125 46.828125 11.5 52.921875 
C 13.40625 61.390625 19 64 22.90625 64 
C 27 64 32.296875 61.296875 34.203125 53.125 
C 35.5 47.4375 35.59375 40.734375 35.59375 32.75 
C 35.59375 26.25 35.59375 18.265625 34.40625 12.375 
C 32.296875 1.484375 26.40625 -0.40625 22.90625 -0.40625 
z
" id="CMR17-48"/>
       </defs>
       <use transform="scale(0.996264)" xlink:href="#CMR17-48"/>
      </g>
     </g>
    </g>
    <g id="xtick_2">
     <g id="line2d_2">
      <g>
       <use style="stroke:#000000;stroke-width:0.8;" x="172.622489" xlink:href="#m2852f9691e" y="261.684426"/>
      </g>
     </g>
     <g id="text_2">
      <!-- $\mathdefault{10}$ -->
      <g transform="translate(164.818502 279.754014)scale(0.16 -0.16)">
       <defs>
        <path d="M 26.59375 63.40625 
C 26.59375 65.5 26.5 65.5 25.09375 65.5 
C 21.203125 61.1875 15.296875 59.796875 9.703125 59.796875 
C 9.40625 59.796875 8.90625 59.796875 8.796875 59.5 
C 8.703125 59.296875 8.703125 59.09375 8.703125 57 
C 11.796875 57 17 57.59375 21 59.984375 
L 21 7.203125 
C 21 3.6875 20.796875 2.5 12.203125 2.5 
L 9.203125 2.5 
L 9.203125 0 
C 14 0 19 0 23.796875 0 
C 28.59375 0 33.59375 0 38.40625 0 
L 38.40625 2.5 
L 35.40625 2.5 
C 26.796875 2.5 26.59375 3.59375 26.59375 7.15625 
z
" id="CMR17-49"/>
       </defs>
       <use transform="scale(0.996264)" xlink:href="#CMR17-49"/>
       <use transform="translate(45.690477 0)scale(0.996264)" xlink:href="#CMR17-48"/>
      </g>
     </g>
    </g>
    <g id="xtick_3">
     <g id="line2d_3">
      <g>
       <use style="stroke:#000000;stroke-width:0.8;" x="242.029712" xlink:href="#m2852f9691e" y="261.684426"/>
      </g>
     </g>
     <g id="text_3">
      <!-- $\mathdefault{20}$ -->
      <g transform="translate(234.225725 279.754014)scale(0.16 -0.16)">
       <defs>
        <path d="M 41.703125 15.453125 
L 39.90625 15.453125 
C 38.90625 8.375 38.09375 7.171875 37.703125 6.5625 
C 37.203125 5.765625 30 5.765625 28.59375 5.765625 
L 9.40625 5.765625 
C 13 9.671875 20 16.75 28.5 24.953125 
C 34.59375 30.734375 41.703125 37.53125 41.703125 47.421875 
C 41.703125 59.21875 32.296875 66 21.796875 66 
C 10.796875 66 4.09375 56.3125 4.09375 47.34375 
C 4.09375 43.4375 7 42.9375 8.203125 42.9375 
C 9.203125 42.9375 12.203125 43.546875 12.203125 47.03125 
C 12.203125 50.109375 9.59375 51 8.203125 51 
C 7.59375 51 7 50.90625 6.59375 50.703125 
C 8.5 59.21875 14.296875 63.40625 20.40625 63.40625 
C 29.09375 63.40625 34.796875 56.515625 34.796875 47.421875 
C 34.796875 38.734375 29.703125 31.25 24 24.75 
L 4.09375 2.28125 
L 4.09375 0 
L 39.296875 0 
z
" id="CMR17-50"/>
       </defs>
       <use transform="scale(0.996264)" xlink:href="#CMR17-50"/>
       <use transform="translate(45.690477 0)scale(0.996264)" xlink:href="#CMR17-48"/>
      </g>
     </g>
    </g>
    <g id="xtick_4">
     <g id="line2d_4">
      <g>
       <use style="stroke:#000000;stroke-width:0.8;" x="311.436935" xlink:href="#m2852f9691e" y="261.684426"/>
      </g>
     </g>
     <g id="text_4">
      <!-- $\mathdefault{30}$ -->
      <g transform="translate(303.632948 279.754014)scale(0.16 -0.16)">
       <defs>
        <path d="M 22.09375 33.703125 
C 31 33.703125 34.90625 25.96875 34.90625 17.03125 
C 34.90625 5 28.5 0.390625 22.703125 0.390625 
C 17.40625 0.390625 8.796875 3.03125 6.09375 10.828125 
C 6.59375 10.625 7.09375 10.625 7.59375 10.625 
C 10 10.625 11.796875 12.21875 11.796875 14.8125 
C 11.796875 17.703125 9.59375 19 7.59375 19 
C 5.90625 19 3.296875 18.203125 3.296875 14.46875 
C 3.296875 5.234375 12.296875 -2 22.90625 -2 
C 34 -2 42.5 6.71875 42.5 16.953125 
C 42.5 26.671875 34.5 33.703125 25 34.796875 
C 32.59375 36.375 39.90625 43.0625 39.90625 52.015625 
C 39.90625 59.6875 32 65.296875 23 65.296875 
C 13.90625 65.296875 5.90625 59.828125 5.90625 52.015625 
C 5.90625 48.59375 8.5 48 9.796875 48 
C 11.90625 48 13.703125 49.296875 13.703125 51.890625 
C 13.703125 54.46875 11.90625 55.765625 9.796875 55.765625 
C 9.40625 55.765625 8.90625 55.765625 8.5 55.578125 
C 11.40625 61.859375 19.296875 63 22.796875 63 
C 26.296875 63 32.90625 61.328125 32.90625 51.875 
C 32.90625 49.109375 32.5 44.1875 29.09375 39.84375 
C 26.09375 36 22.703125 36 19.40625 35.6875 
C 18.90625 35.6875 16.59375 35.453125 16.203125 35.453125 
C 15.5 35.359375 15.09375 35.265625 15.09375 34.5 
C 15.09375 33.796875 15.203125 33.703125 17.203125 33.703125 
z
" id="CMR17-51"/>
       </defs>
       <use transform="scale(0.996264)" xlink:href="#CMR17-51"/>
       <use transform="translate(45.690477 0)scale(0.996264)" xlink:href="#CMR17-48"/>
      </g>
     </g>
    </g>
   </g>
   <g id="matplotlib.axis_2">
    <g id="ytick_1">
     <g id="line2d_5">
      <defs>
       <path d="M 0 0 
L -3.5 0 
" id="mf6728e1f52" style="stroke:#000000;stroke-width:0.8;"/>
      </defs>
      <g>
       <use style="stroke:#000000;stroke-width:0.8;" x="92.457146" xlink:href="#mf6728e1f52" y="252.696358"/>
      </g>
     </g>
     <g id="text_5">
      <!-- $\mathdefault{0.0}$ -->
      <g transform="translate(65.513623 258.231152)scale(0.16 -0.16)">
       <defs>
        <path d="M 18.40625 4.796875 
C 18.40625 7.6875 16 9.671875 13.59375 9.671875 
C 10.703125 9.671875 8.703125 7.28125 8.703125 4.890625 
C 8.703125 2 11.09375 0 13.5 0 
C 16.40625 0 18.40625 2.390625 18.40625 4.796875 
z
" id="CMMI12-58"/>
       </defs>
       <use transform="scale(0.996264)" xlink:href="#CMR17-48"/>
       <use transform="translate(45.690477 0)scale(0.996264)" xlink:href="#CMMI12-58"/>
       <use transform="translate(72.787654 0)scale(0.996264)" xlink:href="#CMR17-48"/>
      </g>
     </g>
    </g>
    <g id="ytick_2">
     <g id="line2d_6">
      <g>
       <use style="stroke:#000000;stroke-width:0.8;" x="92.457146" xlink:href="#mf6728e1f52" y="197.153419"/>
      </g>
     </g>
     <g id="text_6">
      <!-- $\mathdefault{0.5}$ -->
      <g transform="translate(65.513623 202.688213)scale(0.16 -0.16)">
       <defs>
        <path d="M 11.40625 57.6875 
C 12.40625 57.28125 16.5 56 20.703125 56 
C 30 56 35.09375 61.109375 38 64.0625 
C 38 64.953125 38 65.5 37.40625 65.5 
C 37.296875 65.5 37.09375 65.5 36.296875 65.046875 
C 32.796875 63.40625 28.703125 62.078125 23.703125 62.078125 
C 20.703125 62.078125 16.203125 62.484375 11.296875 64.671875 
C 10.203125 65.171875 10 65.171875 9.90625 65.171875 
C 9.40625 65.171875 9.296875 65.0625 9.296875 63.078125 
L 9.296875 34.421875 
C 9.296875 32.640625 9.296875 32.140625 10.296875 32.140625 
C 10.796875 32.140625 11 32.34375 11.5 33.03125 
C 14.703125 37.515625 19.09375 39.40625 24.09375 39.40625 
C 27.59375 39.40625 35.09375 37.21875 35.09375 20.140625 
C 35.09375 16.953125 35.09375 11.171875 32.09375 6.578125 
C 29.59375 2.484375 25.703125 0.390625 21.40625 0.390625 
C 14.796875 0.390625 8.09375 5 6.296875 12.71875 
C 6.703125 12.609375 7.5 12.421875 7.90625 12.421875 
C 9.203125 12.421875 11.703125 13.125 11.703125 16.21875 
C 11.703125 18.90625 9.796875 20 7.90625 20 
C 5.59375 20 4.09375 18.59375 4.09375 15.796875 
C 4.09375 7.09375 11 -2 21.59375 -2 
C 31.90625 -2 41.703125 6.875 41.703125 19.75 
C 41.703125 31.71875 33.90625 41 24.203125 41 
C 19.09375 41 14.796875 39.109375 11.40625 35.53125 
z
" id="CMR17-53"/>
       </defs>
       <use transform="scale(0.996264)" xlink:href="#CMR17-48"/>
       <use transform="translate(45.690477 0)scale(0.996264)" xlink:href="#CMMI12-58"/>
       <use transform="translate(72.787654 0)scale(0.996264)" xlink:href="#CMR17-53"/>
      </g>
     </g>
    </g>
    <g id="ytick_3">
     <g id="line2d_7">
      <g>
       <use style="stroke:#000000;stroke-width:0.8;" x="92.457146" xlink:href="#mf6728e1f52" y="141.61048"/>
      </g>
     </g>
     <g id="text_7">
      <!-- $\mathdefault{1.0}$ -->
      <g transform="translate(65.513623 147.145274)scale(0.16 -0.16)">
       <use transform="scale(0.996264)" xlink:href="#CMR17-49"/>
       <use transform="translate(45.690477 0)scale(0.996264)" xlink:href="#CMMI12-58"/>
       <use transform="translate(72.787654 0)scale(0.996264)" xlink:href="#CMR17-48"/>
      </g>
     </g>
    </g>
    <g id="ytick_4">
     <g id="line2d_8">
      <g>
       <use style="stroke:#000000;stroke-width:0.8;" x="92.457146" xlink:href="#mf6728e1f52" y="86.06754"/>
      </g>
     </g>
     <g id="text_8">
      <!-- $\mathdefault{1.5}$ -->
      <g transform="translate(65.513623 91.602334)scale(0.16 -0.16)">
       <use transform="scale(0.996264)" xlink:href="#CMR17-49"/>
       <use transform="translate(45.690477 0)scale(0.996264)" xlink:href="#CMMI12-58"/>
       <use transform="translate(72.787654 0)scale(0.996264)" xlink:href="#CMR17-53"/>
      </g>
     </g>
    </g>
    <g id="text_9">
     <!-- Real -->
     <g transform="translate(56.862866 184.258418)rotate(-90)scale(0.24 -0.24)">
      <defs>
       <path d="M 39.203125 33.53125 
C 48.703125 35.4375 56.703125 41.8125 56.703125 49.78125 
C 56.703125 59.140625 46.09375 67.59375 32.09375 67.59375 
L 5.203125 67.59375 
L 5.203125 65 
C 12.09375 65 13.203125 65 13.203125 60.515625 
L 13.203125 6.484375 
C 13.203125 2 12.09375 2 5.203125 2 
L 5.203125 -0.40625 
C 8.09375 -0.40625 13.296875 -0.40625 16.40625 -0.40625 
C 19.5 -0.40625 24.703125 -0.40625 27.59375 -0.40625 
L 27.59375 2 
C 20.703125 2 19.59375 2 19.59375 6.515625 
L 19.59375 33 
L 31.296875 33 
C 37 33 40.203125 30.6875 41.59375 29.390625 
C 45.59375 25.5 45.59375 22.796875 45.59375 16 
C 45.59375 9.296875 45.59375 5.890625 48.59375 2.5 
C 52.40625 -1.59375 57.5 -2 59.703125 -2 
C 67.09375 -2 68.203125 6.1875 68.203125 7.859375 
C 68.203125 8.4375 68.203125 9.140625 67.296875 9.140625 
C 66.5 9.140625 66.40625 8.546875 66.40625 8.15625 
C 65.90625 1.75 63 -0.40625 59.90625 -0.40625 
C 54.40625 -0.40625 53.796875 5.859375 53.203125 11.9375 
C 52.90625 14.03125 52.703125 15.515625 52.5 17.703125 
C 51.90625 22.6875 51.09375 29.953125 39.203125 33.53125 
z
M 31 34.59375 
L 19.59375 34.59375 
L 19.59375 61.140625 
C 19.59375 64.515625 19.796875 65 23.796875 65 
L 31.09375 65 
C 39.40625 65 49.09375 62.140625 49.09375 49.84375 
C 49.09375 37.0625 38.5 34.59375 31 34.59375 
z
" id="CMR17-82"/>
       <path d="M 38.09375 23 
C 38.5 23.40625 38.5 23.609375 38.5 24.625 
C 38.5 34.96875 33.09375 44 21.703125 44 
C 11.09375 44 2.703125 33.890625 2.703125 21.609375 
C 2.703125 8.609375 12.203125 -1 22.796875 -1 
C 34 -1 38.40625 9.484375 38.40625 11.5625 
C 38.40625 12.25 37.796875 12.25 37.59375 12.25 
C 36.90625 12.25 36.796875 12.046875 36.40625 10.875 
C 34.203125 4.140625 28.703125 0.796875 23.5 0.796875 
C 19.203125 0.796875 14.90625 3.171875 12.203125 7.5 
C 9.09375 12.546875 9.09375 18.375 9.09375 23 
z
M 9.203125 24.5 
C 9.90625 39.140625 17.59375 42.40625 21.59375 42.40625 
C 28.40625 42.40625 33 35.890625 33.09375 24.5 
z
" id="CMR17-101"/>
       <path d="M 36 25.828125 
C 36 32.375 36 35.84375 31.796875 39.734375 
C 28.09375 43 23.796875 44 20.40625 44 
C 12.5 44 6.796875 37.609375 6.796875 30.796875 
C 6.796875 27 9.796875 27 10.40625 27 
C 11.703125 27 14 27.78125 14 30.53125 
C 14 33 12.09375 34.078125 10.40625 34.078125 
C 10 34.078125 9.5 33.96875 9.203125 33.875 
C 11.296875 40.5 16.703125 42.40625 20.203125 42.40625 
C 25.203125 42.40625 30.703125 37.953125 30.703125 29.453125 
L 30.703125 25 
C 24.796875 25 17.703125 24.203125 12.09375 21.203125 
C 5.796875 17.703125 4 12.703125 4 8.90625 
C 4 1.203125 13 -1 18.296875 -1 
C 23.796875 -1 28.90625 2.171875 31.09375 7.984375 
C 31.296875 3.640625 34.09375 -0.28125 38.5 -0.28125 
C 40.59375 -0.28125 45.90625 1.09375 45.90625 8.859375 
L 45.90625 14.375 
L 44.09375 14.375 
L 44.09375 8.78125 
C 44.09375 2.78125 41.40625 2 40.09375 2 
C 36 2 36 7.15625 36 11.53125 
z
M 30.703125 13.59375 
C 30.703125 4.953125 24.5 0.59375 19 0.59375 
C 14 0.59375 10.09375 4.296875 10.09375 8.90625 
C 10.09375 11.890625 11.40625 17.1875 17.203125 20.390625 
C 22 23.09375 27.5 23.5 30.703125 23.5 
z
" id="CMR17-97"/>
       <path d="M 15.296875 68.6875 
L 3.40625 67.59375 
L 3.40625 65 
C 9.296875 65 10.203125 64.40625 10.203125 59.640625 
L 10.203125 6.65625 
C 10.203125 2.875 9.796875 2.390625 3.40625 2.390625 
L 3.40625 -0.203125 
C 5.796875 0 10.203125 0 12.703125 0 
C 15.296875 0 19.703125 0 22.09375 -0.203125 
L 22.09375 2.390625 
C 15.703125 2.390625 15.296875 2.78125 15.296875 6.65625 
z
" id="CMR17-108"/>
      </defs>
      <use transform="scale(0.996264)" xlink:href="#CMR17-82"/>
      <use transform="translate(67.791102 0)scale(0.996264)" xlink:href="#CMR17-101"/>
      <use transform="translate(108.276762 0)scale(0.996264)" xlink:href="#CMR17-97"/>
      <use transform="translate(153.96724 0)scale(0.996264)" xlink:href="#CMR17-108"/>
     </g>
    </g>
   </g>
   <g id="LineCollection_1">
    <path clip-path="url(#p25a4bcf185)" d="M 103.215265 73.261051 
L 103.215265 72.900917 
" style="fill:none;stroke:#ff0000;stroke-width:2;"/>
    <path clip-path="url(#p25a4bcf185)" d="M 110.155988 236.239537 
L 110.155988 236.189438 
" style="fill:none;stroke:#ff0000;stroke-width:2;"/>
    <path clip-path="url(#p25a4bcf185)" d="M 117.09671 249.42938 
L 117.09671 249.408685 
" style="fill:none;stroke:#ff0000;stroke-width:2;"/>
    <path clip-path="url(#p25a4bcf185)" d="M 124.037432 251.742882 
L 124.037432 251.734242 
" style="fill:none;stroke:#ff0000;stroke-width:2;"/>
    <path clip-path="url(#p25a4bcf185)" d="M 130.978155 252.316709 
L 130.978155 252.311625 
" style="fill:none;stroke:#ff0000;stroke-width:2;"/>
    <path clip-path="url(#p25a4bcf185)" d="M 137.918877 252.511921 
L 137.918877 252.50816 
" style="fill:none;stroke:#ff0000;stroke-width:2;"/>
    <path clip-path="url(#p25a4bcf185)" d="M 144.859599 252.596121 
L 144.859599 252.593785 
" style="fill:none;stroke:#ff0000;stroke-width:2;"/>
    <path clip-path="url(#p25a4bcf185)" d="M 151.800322 252.638538 
L 151.800322 252.636718 
" style="fill:none;stroke:#ff0000;stroke-width:2;"/>
    <path clip-path="url(#p25a4bcf185)" d="M 158.741044 252.661866 
L 158.741044 252.660561 
" style="fill:none;stroke:#ff0000;stroke-width:2;"/>
    <path clip-path="url(#p25a4bcf185)" d="M 165.681766 252.675257 
L 165.681766 252.67441 
" style="fill:none;stroke:#ff0000;stroke-width:2;"/>
    <path clip-path="url(#p25a4bcf185)" d="M 172.622489 252.683219 
L 172.622489 252.682636 
" style="fill:none;stroke:#ff0000;stroke-width:2;"/>
    <path clip-path="url(#p25a4bcf185)" d="M 179.563211 252.688046 
L 179.563211 252.687605 
" style="fill:none;stroke:#ff0000;stroke-width:2;"/>
    <path clip-path="url(#p25a4bcf185)" d="M 186.503933 252.691015 
L 186.503933 252.690706 
" style="fill:none;stroke:#ff0000;stroke-width:2;"/>
    <path clip-path="url(#p25a4bcf185)" d="M 193.444656 252.692846 
L 193.444656 252.692639 
" style="fill:none;stroke:#ff0000;stroke-width:2;"/>
    <path clip-path="url(#p25a4bcf185)" d="M 200.385378 252.693948 
L 200.385378 252.693788 
" style="fill:none;stroke:#ff0000;stroke-width:2;"/>
    <path clip-path="url(#p25a4bcf185)" d="M 207.3261 252.694533 
L 207.3261 252.694407 
" style="fill:none;stroke:#ff0000;stroke-width:2;"/>
    <path clip-path="url(#p25a4bcf185)" d="M 214.266823 252.694735 
L 214.266823 252.694611 
" style="fill:none;stroke:#ff0000;stroke-width:2;"/>
    <path clip-path="url(#p25a4bcf185)" d="M 221.207545 252.694579 
L 221.207545 252.694446 
" style="fill:none;stroke:#ff0000;stroke-width:2;"/>
    <path clip-path="url(#p25a4bcf185)" d="M 228.148267 252.693999 
L 228.148267 252.693822 
" style="fill:none;stroke:#ff0000;stroke-width:2;"/>
    <path clip-path="url(#p25a4bcf185)" d="M 235.08899 252.692891 
L 235.08899 252.692653 
" style="fill:none;stroke:#ff0000;stroke-width:2;"/>
    <path clip-path="url(#p25a4bcf185)" d="M 242.029712 252.6911 
L 242.029712 252.690765 
" style="fill:none;stroke:#ff0000;stroke-width:2;"/>
    <path clip-path="url(#p25a4bcf185)" d="M 248.970434 252.688096 
L 248.970434 252.68765 
" style="fill:none;stroke:#ff0000;stroke-width:2;"/>
    <path clip-path="url(#p25a4bcf185)" d="M 255.911157 252.683225 
L 255.911157 252.682664 
" style="fill:none;stroke:#ff0000;stroke-width:2;"/>
    <path clip-path="url(#p25a4bcf185)" d="M 262.851879 252.675283 
L 262.851879 252.67449 
" style="fill:none;stroke:#ff0000;stroke-width:2;"/>
    <path clip-path="url(#p25a4bcf185)" d="M 269.792601 252.661903 
L 269.792601 252.660736 
" style="fill:none;stroke:#ff0000;stroke-width:2;"/>
    <path clip-path="url(#p25a4bcf185)" d="M 276.733324 252.639003 
L 276.733324 252.637292 
" style="fill:none;stroke:#ff0000;stroke-width:2;"/>
    <path clip-path="url(#p25a4bcf185)" d="M 283.674046 252.596764 
L 283.674046 252.59421 
" style="fill:none;stroke:#ff0000;stroke-width:2;"/>
    <path clip-path="url(#p25a4bcf185)" d="M 290.614768 252.512824 
L 290.614768 252.508608 
" style="fill:none;stroke:#ff0000;stroke-width:2;"/>
    <path clip-path="url(#p25a4bcf185)" d="M 297.555491 252.31652 
L 297.555491 252.310134 
" style="fill:none;stroke:#ff0000;stroke-width:2;"/>
    <path clip-path="url(#p25a4bcf185)" d="M 304.496213 251.744977 
L 304.496213 251.733382 
" style="fill:none;stroke:#ff0000;stroke-width:2;"/>
    <path clip-path="url(#p25a4bcf185)" d="M 311.436935 249.431846 
L 311.436935 249.410348 
" style="fill:none;stroke:#ff0000;stroke-width:2;"/>
    <path clip-path="url(#p25a4bcf185)" d="M 318.377658 236.223635 
L 318.377658 236.173649 
" style="fill:none;stroke:#ff0000;stroke-width:2;"/>
   </g>
   <g id="line2d_9">
    <path clip-path="url(#p25a4bcf185)" d="M 103.215265 73.080984 
L 110.155988 236.214487 
L 117.09671 249.419033 
L 124.037432 251.738562 
L 130.978155 252.314167 
L 137.918877 252.51004 
L 144.859599 252.594953 
L 151.800322 252.637628 
L 158.741044 252.661213 
L 165.681766 252.674834 
L 172.622489 252.682927 
L 179.563211 252.687826 
L 186.503933 252.690861 
L 193.444656 252.692743 
L 200.385378 252.693868 
L 207.3261 252.69447 
L 214.266823 252.694673 
L 221.207545 252.694512 
L 228.148267 252.69391 
L 235.08899 252.692772 
L 242.029712 252.690932 
L 248.970434 252.687873 
L 255.911157 252.682944 
L 262.851879 252.674886 
L 269.792601 252.661319 
L 276.733324 252.638147 
L 283.674046 252.595487 
L 290.614768 252.510716 
L 297.555491 252.313327 
L 304.496213 251.739179 
L 311.436935 249.421097 
L 318.377658 236.198642 
" style="fill:none;stroke:#000000;stroke-linecap:square;stroke-width:2;"/>
   </g>
   <g id="patch_3">
    <path d="M 92.457146 261.684426 
L 92.457146 63.911226 
" style="fill:none;stroke:#000000;stroke-linecap:square;stroke-linejoin:miter;stroke-width:0.8;"/>
   </g>
   <g id="patch_4">
    <path d="M 329.135777 261.684426 
L 329.135777 63.911226 
" style="fill:none;stroke:#000000;stroke-linecap:square;stroke-linejoin:miter;stroke-width:0.8;"/>
   </g>
   <g id="patch_5">
    <path d="M 92.457146 261.684426 
L 329.135777 261.684426 
" style="fill:none;stroke:#000000;stroke-linecap:square;stroke-linejoin:miter;stroke-width:0.8;"/>
   </g>
   <g id="patch_6">
    <path d="M 92.457146 63.911226 
L 329.135777 63.911226 
" style="fill:none;stroke:#000000;stroke-linecap:square;stroke-linejoin:miter;stroke-width:0.8;"/>
   </g>
   <g id="text_10">
    <!-- $C(t)$ -->
    <g transform="translate(188.868308 57.911226)scale(0.24 -0.24)">
     <defs>
      <path d="M 74.703125 69.109375 
C 74.703125 70 74 70 73.796875 70 
C 73.59375 70 73.203125 70 72.40625 69 
L 65.5 60.65625 
C 62 66.625 56.5 70 49 70 
C 27.40625 70 5 48.25 5 24.921875 
C 5 8.328125 16.703125 -2 31.296875 -2 
C 39.296875 -2 46.296875 1.375 52.09375 6.25 
C 60.796875 13.484375 63.40625 23.140625 63.40625 23.921875 
C 63.40625 24.8125 62.59375 24.8125 62.296875 24.8125 
C 61.40625 24.8125 61.296875 24.21875 61.09375 23.8125 
C 56.5 8.34375 43 0.890625 33 0.890625 
C 22.40625 0.890625 13.203125 7.640625 13.203125 21.734375 
C 13.203125 24.921875 14.203125 42.1875 25.5 55.1875 
C 31 61.546875 40.40625 67.109375 49.90625 67.109375 
C 60.90625 67.109375 65.796875 58.078125 65.796875 47.9375 
C 65.796875 45.359375 65.5 43.1875 65.5 42.78125 
C 65.5 41.890625 66.5 41.890625 66.796875 41.890625 
C 67.90625 41.890625 68 41.984375 68.40625 43.765625 
z
" id="CMMI12-67"/>
      <path d="M 30.59375 -24.390625 
C 30.59375 -24.296875 30.59375 -24.09375 30.296875 -23.796875 
C 25.703125 -19.125 13.40625 -6.359375 13.40625 24.703125 
C 13.40625 55.765625 25.5 68.421875 30.40625 73.390625 
C 30.40625 73.5 30.59375 73.703125 30.59375 74 
C 30.59375 74.296875 30.296875 74.5 29.90625 74.5 
C 28.796875 74.5 20.296875 67.125 15.40625 56.15625 
C 10.40625 45.109375 9 34.359375 9 24.8125 
C 9 17.625 9.703125 5.484375 15.703125 -7.359375 
C 20.5 -17.734375 28.703125 -25 29.90625 -25 
C 30.40625 -25 30.59375 -24.796875 30.59375 -24.390625 
z
" id="CMR17-40"/>
      <path d="M 20.09375 40.09375 
L 29.296875 40.09375 
C 31.203125 40.09375 32.203125 40.09375 32.203125 41.890625 
C 32.203125 43 31.59375 43 29.59375 43 
L 20.796875 43 
L 24.5 57.6875 
C 24.90625 59.078125 24.90625 59.28125 24.90625 60 
C 24.90625 61.609375 23.59375 62.5 22.296875 62.5 
C 21.5 62.5 19.203125 62.203125 18.40625 58.984375 
L 14.5 43 
L 5.09375 43 
C 3.09375 43 2.203125 43 2.203125 41.09375 
C 2.203125 40.09375 2.90625 40.09375 4.796875 40.09375 
L 13.703125 40.09375 
L 7.09375 13.765625 
C 6.296875 10.28125 6 9.28125 6 7.984375 
C 6 3.296875 9.296875 -1 14.90625 -1 
C 25 -1 30.40625 13.5625 30.40625 14.25 
C 30.40625 14.859375 30 15.15625 29.40625 15.15625 
C 29.203125 15.15625 28.796875 15.15625 28.59375 14.75 
C 28.5 14.65625 28.40625 14.546875 27.703125 12.953125 
C 25.59375 7.984375 21 1 15.203125 1 
C 12.203125 1 12 3.5 12 5.6875 
C 12 5.78125 12 7.6875 12.296875 8.875 
z
" id="CMMI12-116"/>
      <path d="M 26.296875 24.703125 
C 26.296875 31.875 25.59375 44.015625 19.59375 56.859375 
C 14.796875 67.234375 6.59375 74.5 5.40625 74.5 
C 5.09375 74.5 4.703125 74.390625 4.703125 73.890625 
C 4.703125 73.703125 4.796875 73.59375 4.90625 73.390625 
C 9.703125 68.40625 21.90625 55.75 21.90625 24.75 
C 21.90625 -6.359375 9.796875 -19.015625 4.90625 -24.015625 
C 4.796875 -24.203125 4.703125 -24.3125 4.703125 -24.5 
C 4.703125 -25 5.09375 -25 5.40625 -25 
C 6.5 -25 15 -17.625 19.90625 -6.65625 
C 24.90625 4.390625 26.296875 15.140625 26.296875 24.703125 
z
" id="CMR17-41"/>
     </defs>
     <use transform="scale(0.996264)" xlink:href="#CMMI12-67"/>
     <use transform="translate(76.946847 0)scale(0.996264)" xlink:href="#CMR17-40"/>
     <use transform="translate(112.227614 0)scale(0.996264)" xlink:href="#CMMI12-116"/>
     <use transform="translate(147.453945 0)scale(0.996264)" xlink:href="#CMR17-41"/>
    </g>
   </g>
  </g>
  <g id="axes_2">
   <g id="patch_7">
    <path d="M 411.889257 261.684426 
L 648.567889 261.684426 
L 648.567889 63.911226 
L 411.889257 63.911226 
z
" style="fill:#ffffff;"/>
   </g>
   <g id="matplotlib.axis_3">
    <g id="xtick_5">
     <g id="line2d_10">
      <g>
       <use style="stroke:#000000;stroke-width:0.8;" x="422.647376" xlink:href="#m2852f9691e" y="261.684426"/>
      </g>
     </g>
     <g id="text_11">
      <!-- $\mathdefault{0}$ -->
      <g transform="translate(418.745383 279.754014)scale(0.16 -0.16)">
       <use transform="scale(0.996264)" xlink:href="#CMR17-48"/>
      </g>
     </g>
    </g>
    <g id="xtick_6">
     <g id="line2d_11">
      <g>
       <use style="stroke:#000000;stroke-width:0.8;" x="489.885624" xlink:href="#m2852f9691e" y="261.684426"/>
      </g>
     </g>
     <g id="text_12">
      <!-- $\mathdefault{5}$ -->
      <g transform="translate(485.983631 279.754014)scale(0.16 -0.16)">
       <use transform="scale(0.996264)" xlink:href="#CMR17-53"/>
      </g>
     </g>
    </g>
    <g id="xtick_7">
     <g id="line2d_12">
      <g>
       <use style="stroke:#000000;stroke-width:0.8;" x="557.123872" xlink:href="#m2852f9691e" y="261.684426"/>
      </g>
     </g>
     <g id="text_13">
      <!-- $\mathdefault{10}$ -->
      <g transform="translate(549.319885 279.754014)scale(0.16 -0.16)">
       <use transform="scale(0.996264)" xlink:href="#CMR17-49"/>
       <use transform="translate(45.690477 0)scale(0.996264)" xlink:href="#CMR17-48"/>
      </g>
     </g>
    </g>
    <g id="xtick_8">
     <g id="line2d_13">
      <g>
       <use style="stroke:#000000;stroke-width:0.8;" x="624.36212" xlink:href="#m2852f9691e" y="261.684426"/>
      </g>
     </g>
     <g id="text_14">
      <!-- $\mathdefault{15}$ -->
      <g transform="translate(616.558133 279.754014)scale(0.16 -0.16)">
       <use transform="scale(0.996264)" xlink:href="#CMR17-49"/>
       <use transform="translate(45.690477 0)scale(0.996264)" xlink:href="#CMR17-53"/>
      </g>
     </g>
    </g>
   </g>
   <g id="matplotlib.axis_4">
    <g id="ytick_5">
     <g id="line2d_14">
      <g>
       <use style="stroke:#000000;stroke-width:0.8;" x="411.889257" xlink:href="#mf6728e1f52" y="252.696358"/>
      </g>
     </g>
     <g id="text_15">
      <!-- $\mathdefault{0.0}$ -->
      <g transform="translate(384.945735 258.231152)scale(0.16 -0.16)">
       <use transform="scale(0.996264)" xlink:href="#CMR17-48"/>
       <use transform="translate(45.690477 0)scale(0.996264)" xlink:href="#CMMI12-58"/>
       <use transform="translate(72.787654 0)scale(0.996264)" xlink:href="#CMR17-48"/>
      </g>
     </g>
    </g>
    <g id="ytick_6">
     <g id="line2d_15">
      <g>
       <use style="stroke:#000000;stroke-width:0.8;" x="411.889257" xlink:href="#mf6728e1f52" y="197.153419"/>
      </g>
     </g>
     <g id="text_16">
      <!-- $\mathdefault{0.5}$ -->
      <g transform="translate(384.945735 202.688213)scale(0.16 -0.16)">
       <use transform="scale(0.996264)" xlink:href="#CMR17-48"/>
       <use transform="translate(45.690477 0)scale(0.996264)" xlink:href="#CMMI12-58"/>
       <use transform="translate(72.787654 0)scale(0.996264)" xlink:href="#CMR17-53"/>
      </g>
     </g>
    </g>
    <g id="ytick_7">
     <g id="line2d_16">
      <g>
       <use style="stroke:#000000;stroke-width:0.8;" x="411.889257" xlink:href="#mf6728e1f52" y="141.61048"/>
      </g>
     </g>
     <g id="text_17">
      <!-- $\mathdefault{1.0}$ -->
      <g transform="translate(384.945735 147.145274)scale(0.16 -0.16)">
       <use transform="scale(0.996264)" xlink:href="#CMR17-49"/>
       <use transform="translate(45.690477 0)scale(0.996264)" xlink:href="#CMMI12-58"/>
       <use transform="translate(72.787654 0)scale(0.996264)" xlink:href="#CMR17-48"/>
      </g>
     </g>
    </g>
    <g id="ytick_8">
     <g id="line2d_17">
      <g>
       <use style="stroke:#000000;stroke-width:0.8;" x="411.889257" xlink:href="#mf6728e1f52" y="86.06754"/>
      </g>
     </g>
     <g id="text_18">
      <!-- $\mathdefault{1.5}$ -->
      <g transform="translate(384.945735 91.602334)scale(0.16 -0.16)">
       <use transform="scale(0.996264)" xlink:href="#CMR17-49"/>
       <use transform="translate(45.690477 0)scale(0.996264)" xlink:href="#CMMI12-58"/>
       <use transform="translate(72.787654 0)scale(0.996264)" xlink:href="#CMR17-53"/>
      </g>
     </g>
    </g>
   </g>
   <g id="LineCollection_2">
    <path clip-path="url(#p4e69f588bf)" d="M 422.647376 73.261051 
L 422.647376 72.900917 
" style="fill:none;stroke:#ff0000;stroke-width:2;"/>
    <path clip-path="url(#p4e69f588bf)" d="M 436.095026 236.225807 
L 436.095026 236.187323 
" style="fill:none;stroke:#ff0000;stroke-width:2;"/>
    <path clip-path="url(#p4e69f588bf)" d="M 449.542676 249.427446 
L 449.542676 249.412683 
" style="fill:none;stroke:#ff0000;stroke-width:2;"/>
    <path clip-path="url(#p4e69f588bf)" d="M 462.990325 251.74243 
L 462.990325 251.735312 
" style="fill:none;stroke:#ff0000;stroke-width:2;"/>
    <path clip-path="url(#p4e69f588bf)" d="M 476.437975 252.315704 
L 476.437975 252.31179 
" style="fill:none;stroke:#ff0000;stroke-width:2;"/>
    <path clip-path="url(#p4e69f588bf)" d="M 489.885624 252.511813 
L 489.885624 252.508944 
" style="fill:none;stroke:#ff0000;stroke-width:2;"/>
    <path clip-path="url(#p4e69f588bf)" d="M 503.333274 252.596092 
L 503.333274 252.594348 
" style="fill:none;stroke:#ff0000;stroke-width:2;"/>
    <path clip-path="url(#p4e69f588bf)" d="M 516.780923 252.638532 
L 516.780923 252.637243 
" style="fill:none;stroke:#ff0000;stroke-width:2;"/>
    <path clip-path="url(#p4e69f588bf)" d="M 530.228573 252.661706 
L 530.228573 252.660827 
" style="fill:none;stroke:#ff0000;stroke-width:2;"/>
    <path clip-path="url(#p4e69f588bf)" d="M 543.676222 252.675139 
L 543.676222 252.674581 
" style="fill:none;stroke:#ff0000;stroke-width:2;"/>
    <path clip-path="url(#p4e69f588bf)" d="M 557.123872 252.683143 
L 557.123872 252.682729 
" style="fill:none;stroke:#ff0000;stroke-width:2;"/>
    <path clip-path="url(#p4e69f588bf)" d="M 570.571521 252.688015 
L 570.571521 252.687684 
" style="fill:none;stroke:#ff0000;stroke-width:2;"/>
    <path clip-path="url(#p4e69f588bf)" d="M 584.019171 252.691015 
L 584.019171 252.690778 
" style="fill:none;stroke:#ff0000;stroke-width:2;"/>
    <path clip-path="url(#p4e69f588bf)" d="M 597.46682 252.692838 
L 597.46682 252.692676 
" style="fill:none;stroke:#ff0000;stroke-width:2;"/>
    <path clip-path="url(#p4e69f588bf)" d="M 610.91447 252.693949 
L 610.91447 252.69383 
" style="fill:none;stroke:#ff0000;stroke-width:2;"/>
    <path clip-path="url(#p4e69f588bf)" d="M 624.36212 252.694536 
L 624.36212 252.694446 
" style="fill:none;stroke:#ff0000;stroke-width:2;"/>
    <path clip-path="url(#p4e69f588bf)" d="M 637.809769 252.694735 
L 637.809769 252.694611 
" style="fill:none;stroke:#ff0000;stroke-width:2;"/>
   </g>
   <g id="line2d_18">
    <path clip-path="url(#p4e69f588bf)" d="M 422.647376 73.080984 
L 436.095026 236.206565 
L 449.542676 249.420065 
L 462.990325 251.738871 
L 476.437975 252.313747 
L 489.885624 252.510378 
L 503.333274 252.59522 
L 516.780923 252.637888 
L 530.228573 252.661266 
L 543.676222 252.67486 
L 557.123872 252.682936 
L 570.571521 252.687849 
L 584.019171 252.690897 
L 597.46682 252.692757 
L 610.91447 252.693889 
L 624.36212 252.694491 
L 637.809769 252.694673 
" style="fill:none;stroke:#000000;stroke-linecap:square;stroke-width:2;"/>
   </g>
   <g id="patch_8">
    <path d="M 411.889257 261.684426 
L 411.889257 63.911226 
" style="fill:none;stroke:#000000;stroke-linecap:square;stroke-linejoin:miter;stroke-width:0.8;"/>
   </g>
   <g id="patch_9">
    <path d="M 648.567889 261.684426 
L 648.567889 63.911226 
" style="fill:none;stroke:#000000;stroke-linecap:square;stroke-linejoin:miter;stroke-width:0.8;"/>
   </g>
   <g id="patch_10">
    <path d="M 411.889257 261.684426 
L 648.567889 261.684426 
" style="fill:none;stroke:#000000;stroke-linecap:square;stroke-linejoin:miter;stroke-width:0.8;"/>
   </g>
   <g id="patch_11">
    <path d="M 411.889257 63.911226 
L 648.567889 63.911226 
" style="fill:none;stroke:#000000;stroke-linecap:square;stroke-linejoin:miter;stroke-width:0.8;"/>
   </g>
   <g id="text_19">
    <!-- Folded $C(t)$ -->
    <g transform="translate(472.889563 57.911226)scale(0.24 -0.24)">
     <defs>
      <path d="M 54.40625 67.578125 
L 5.09375 67.578125 
L 5.09375 65 
C 12 65 13.09375 65 13.09375 60.53125 
L 13.09375 6.96875 
C 13.09375 2.5 12 2.5 5.09375 2.5 
L 5.09375 0 
C 8 0 13.59375 0 16.703125 0 
C 20.796875 0 25.59375 0 29.703125 0 
L 29.703125 2.5 
L 27.5 2.5 
C 19.90625 2.5 19.703125 3.484375 19.703125 7.0625 
L 19.703125 32.421875 
L 28.703125 32.421875 
C 38 32.421875 38.90625 29.140625 38.90625 20.8125 
L 40.703125 20.8125 
L 40.703125 46.671875 
L 38.90625 46.671875 
C 38.90625 38.28125 38 35 28.703125 35 
L 19.703125 35 
L 19.703125 61.109375 
C 19.703125 64.5 19.90625 65 23.90625 65 
L 36.796875 65 
C 51.90625 65 53.59375 58.828125 55 45.5625 
L 56.796875 45.5625 
z
" id="CMR17-70"/>
      <path d="M 43.09375 21.1875 
C 43.09375 34 33.796875 44 22.90625 44 
C 12 44 2.703125 34 2.703125 21.1875 
C 2.703125 8.609375 12 -1 22.90625 -1 
C 33.796875 -1 43.09375 8.609375 43.09375 21.1875 
z
M 22.90625 0.796875 
C 18.203125 0.796875 14.203125 3.59375 11.90625 7.5 
C 9.40625 11.984375 9.09375 17.59375 9.09375 22 
C 9.09375 26.203125 9.296875 31.40625 11.90625 35.90625 
C 13.90625 39.203125 17.796875 42.40625 22.90625 42.40625 
C 27.40625 42.40625 31.203125 39.90625 33.59375 36.40625 
C 36.703125 31.703125 36.703125 25.109375 36.703125 22 
C 36.703125 18.09375 36.5 12.109375 33.796875 7.296875 
C 31 2.703125 26.703125 0.796875 22.90625 0.796875 
z
" id="CMR17-111"/>
      <path d="M 29.203125 67.59375 
L 29.203125 65 
C 35.09375 65 36 64.40625 36 59.6875 
L 36 36.640625 
C 35.59375 37.140625 31.5 43.59375 23.40625 43.59375 
C 13.203125 43.59375 3.296875 34.5 3.296875 21.3125 
C 3.296875 8.203125 12.59375 -1 22.40625 -1 
C 30.90625 -1 35.296875 5.265625 35.796875 5.9375 
L 35.796875 -0.984375 
L 47.90625 -0.984375 
L 47.90625 2 
C 42 2 41.09375 2.59375 41.09375 7.390625 
L 41.09375 68.6875 
z
M 35.796875 11.796875 
C 35.796875 8.796875 34 6.09375 31.703125 4.09375 
C 28.296875 1.09375 24.90625 0.59375 23 0.59375 
C 20.09375 0.59375 9.703125 2.09375 9.703125 21.1875 
C 9.703125 40.8125 21.296875 42 23.90625 42 
C 28.5 42 32.203125 39.40625 34.5 35.796875 
C 35.796875 33.703125 35.796875 33.40625 35.796875 31.609375 
z
" id="CMR17-100"/>
     </defs>
     <use transform="scale(0.996264)" xlink:href="#CMR17-70"/>
     <use transform="translate(52.176591 0)scale(0.996264)" xlink:href="#CMR17-111"/>
     <use transform="translate(97.867068 0)scale(0.996264)" xlink:href="#CMR17-108"/>
     <use transform="translate(122.738127 0)scale(0.996264)" xlink:href="#CMR17-100"/>
     <use transform="translate(173.633497 0)scale(0.996264)" xlink:href="#CMR17-101"/>
     <use transform="translate(214.119157 0)scale(0.996264)" xlink:href="#CMR17-100"/>
     <use transform="translate(295.090493 0)scale(0.996264)" xlink:href="#CMMI12-67"/>
     <use transform="translate(372.03734 0)scale(0.996264)" xlink:href="#CMR17-40"/>
     <use transform="translate(407.318108 0)scale(0.996264)" xlink:href="#CMMI12-116"/>
     <use transform="translate(442.544438 0)scale(0.996264)" xlink:href="#CMR17-41"/>
    </g>
   </g>
  </g>
  <g id="axes_3">
   <g id="patch_12">
    <path d="M 731.321368 261.684426 
L 968 261.684426 
L 968 63.911226 
L 731.321368 63.911226 
z
" style="fill:#ffffff;"/>
   </g>
   <g id="matplotlib.axis_5">
    <g id="xtick_9">
     <g id="line2d_19">
      <g>
       <use style="stroke:#000000;stroke-width:0.8;" x="742.079488" xlink:href="#m2852f9691e" y="261.684426"/>
      </g>
     </g>
     <g id="text_20">
      <!-- $\mathdefault{0}$ -->
      <g transform="translate(738.177494 279.754014)scale(0.16 -0.16)">
       <use transform="scale(0.996264)" xlink:href="#CMR17-48"/>
      </g>
     </g>
    </g>
    <g id="xtick_10">
     <g id="line2d_20">
      <g>
       <use style="stroke:#000000;stroke-width:0.8;" x="809.317735" xlink:href="#m2852f9691e" y="261.684426"/>
      </g>
     </g>
     <g id="text_21">
      <!-- $\mathdefault{5}$ -->
      <g transform="translate(805.415742 279.754014)scale(0.16 -0.16)">
       <use transform="scale(0.996264)" xlink:href="#CMR17-53"/>
      </g>
     </g>
    </g>
    <g id="xtick_11">
     <g id="line2d_21">
      <g>
       <use style="stroke:#000000;stroke-width:0.8;" x="876.555983" xlink:href="#m2852f9691e" y="261.684426"/>
      </g>
     </g>
     <g id="text_22">
      <!-- $\mathdefault{10}$ -->
      <g transform="translate(868.751996 279.754014)scale(0.16 -0.16)">
       <use transform="scale(0.996264)" xlink:href="#CMR17-49"/>
       <use transform="translate(45.690477 0)scale(0.996264)" xlink:href="#CMR17-48"/>
      </g>
     </g>
    </g>
    <g id="xtick_12">
     <g id="line2d_22">
      <g>
       <use style="stroke:#000000;stroke-width:0.8;" x="943.794231" xlink:href="#m2852f9691e" y="261.684426"/>
      </g>
     </g>
     <g id="text_23">
      <!-- $\mathdefault{15}$ -->
      <g transform="translate(935.990244 279.754014)scale(0.16 -0.16)">
       <use transform="scale(0.996264)" xlink:href="#CMR17-49"/>
       <use transform="translate(45.690477 0)scale(0.996264)" xlink:href="#CMR17-53"/>
      </g>
     </g>
    </g>
   </g>
   <g id="matplotlib.axis_6">
    <g id="ytick_9">
     <g id="line2d_23">
      <g>
       <use style="stroke:#000000;stroke-width:0.8;" x="731.321368" xlink:href="#mf6728e1f52" y="243.288463"/>
      </g>
     </g>
     <g id="text_24">
      <!-- $\mathdefault{−0.0002}$ -->
      <g transform="translate(668.567889 248.823257)scale(0.16 -0.16)">
       <defs>
        <path d="M 65.90625 23 
C 67.59375 23 69.40625 23 69.40625 25 
C 69.40625 27 67.59375 27 65.90625 27 
L 11.796875 27 
C 10.09375 27 8.296875 27 8.296875 25 
C 8.296875 23 10.09375 23 11.796875 23 
z
" id="CMSY10-0"/>
       </defs>
       <use transform="scale(0.996264)" xlink:href="#CMSY10-0"/>
       <use transform="translate(77.487468 0)scale(0.996264)" xlink:href="#CMR17-48"/>
       <use transform="translate(123.177945 0)scale(0.996264)" xlink:href="#CMMI12-58"/>
       <use transform="translate(150.275122 0)scale(0.996264)" xlink:href="#CMR17-48"/>
       <use transform="translate(195.965599 0)scale(0.996264)" xlink:href="#CMR17-48"/>
       <use transform="translate(241.656076 0)scale(0.996264)" xlink:href="#CMR17-48"/>
       <use transform="translate(287.346553 0)scale(0.996264)" xlink:href="#CMR17-50"/>
      </g>
     </g>
    </g>
    <g id="ytick_10">
     <g id="line2d_24">
      <g>
       <use style="stroke:#000000;stroke-width:0.8;" x="731.321368" xlink:href="#mf6728e1f52" y="181.809634"/>
      </g>
     </g>
     <g id="text_25">
      <!-- $\mathdefault{−0.0001}$ -->
      <g transform="translate(668.567889 187.344428)scale(0.16 -0.16)">
       <use transform="scale(0.996264)" xlink:href="#CMSY10-0"/>
       <use transform="translate(77.487468 0)scale(0.996264)" xlink:href="#CMR17-48"/>
       <use transform="translate(123.177945 0)scale(0.996264)" xlink:href="#CMMI12-58"/>
       <use transform="translate(150.275122 0)scale(0.996264)" xlink:href="#CMR17-48"/>
       <use transform="translate(195.965599 0)scale(0.996264)" xlink:href="#CMR17-48"/>
       <use transform="translate(241.656076 0)scale(0.996264)" xlink:href="#CMR17-48"/>
       <use transform="translate(287.346553 0)scale(0.996264)" xlink:href="#CMR17-49"/>
      </g>
     </g>
    </g>
    <g id="ytick_11">
     <g id="line2d_25">
      <g>
       <use style="stroke:#000000;stroke-width:0.8;" x="731.321368" xlink:href="#mf6728e1f52" y="120.330805"/>
      </g>
     </g>
     <g id="text_26">
      <!-- $\mathdefault{0.0000}$ -->
      <g transform="translate(680.965885 125.865599)scale(0.16 -0.16)">
       <use transform="scale(0.996264)" xlink:href="#CMR17-48"/>
       <use transform="translate(45.690477 0)scale(0.996264)" xlink:href="#CMMI12-58"/>
       <use transform="translate(72.787654 0)scale(0.996264)" xlink:href="#CMR17-48"/>
       <use transform="translate(118.478131 0)scale(0.996264)" xlink:href="#CMR17-48"/>
       <use transform="translate(164.168608 0)scale(0.996264)" xlink:href="#CMR17-48"/>
       <use transform="translate(209.859086 0)scale(0.996264)" xlink:href="#CMR17-48"/>
      </g>
     </g>
    </g>
   </g>
   <g id="LineCollection_3">
    <path clip-path="url(#p20c67659a3)" d="M 742.079488 120.330805 
L 742.079488 120.330805 
" style="fill:none;stroke:#ff0000;stroke-width:2;"/>
    <path clip-path="url(#p20c67659a3)" d="M 755.527137 252.694735 
L 755.527137 75.659662 
" style="fill:none;stroke:#ff0000;stroke-width:2;"/>
    <path clip-path="url(#p20c67659a3)" d="M 768.974787 156.338459 
L 768.974787 72.900917 
" style="fill:none;stroke:#ff0000;stroke-width:2;"/>
    <path clip-path="url(#p20c67659a3)" d="M 782.422436 138.936646 
L 782.422436 98.309269 
" style="fill:none;stroke:#ff0000;stroke-width:2;"/>
    <path clip-path="url(#p20c67659a3)" d="M 795.870086 134.395226 
L 795.870086 110.915678 
" style="fill:none;stroke:#ff0000;stroke-width:2;"/>
    <path clip-path="url(#p20c67659a3)" d="M 809.317735 126.153109 
L 809.317735 110.768926 
" style="fill:none;stroke:#ff0000;stroke-width:2;"/>
    <path clip-path="url(#p20c67659a3)" d="M 822.765385 123.604834 
L 822.765385 114.101591 
" style="fill:none;stroke:#ff0000;stroke-width:2;"/>
    <path clip-path="url(#p20c67659a3)" d="M 836.213035 122.235639 
L 836.213035 115.554196 
" style="fill:none;stroke:#ff0000;stroke-width:2;"/>
    <path clip-path="url(#p20c67659a3)" d="M 849.660684 122.447485 
L 849.660684 117.627518 
" style="fill:none;stroke:#ff0000;stroke-width:2;"/>
    <path clip-path="url(#p20c67659a3)" d="M 863.108334 121.84878 
L 863.108334 118.521803 
" style="fill:none;stroke:#ff0000;stroke-width:2;"/>
    <path clip-path="url(#p20c67659a3)" d="M 876.555983 121.377562 
L 876.555983 119.189045 
" style="fill:none;stroke:#ff0000;stroke-width:2;"/>
    <path clip-path="url(#p20c67659a3)" d="M 890.003633 121.011878 
L 890.003633 119.385204 
" style="fill:none;stroke:#ff0000;stroke-width:2;"/>
    <path clip-path="url(#p20c67659a3)" d="M 903.451282 120.740763 
L 903.451282 119.523265 
" style="fill:none;stroke:#ff0000;stroke-width:2;"/>
    <path clip-path="url(#p20c67659a3)" d="M 916.898932 120.673268 
L 916.898932 119.825816 
" style="fill:none;stroke:#ff0000;stroke-width:2;"/>
    <path clip-path="url(#p20c67659a3)" d="M 930.346581 120.542953 
L 930.346581 119.883285 
" style="fill:none;stroke:#ff0000;stroke-width:2;"/>
    <path clip-path="url(#p20c67659a3)" d="M 943.794231 120.470393 
L 943.794231 119.956631 
" style="fill:none;stroke:#ff0000;stroke-width:2;"/>
    <path clip-path="url(#p20c67659a3)" d="M 957.24188 120.330805 
L 957.24188 120.330805 
" style="fill:none;stroke:#ff0000;stroke-width:2;"/>
   </g>
   <g id="line2d_26">
    <path clip-path="url(#p20c67659a3)" d="M 742.079488 120.330805 
L 755.527137 164.177199 
L 768.974787 114.619688 
L 782.422436 118.622957 
L 795.870086 122.655452 
L 809.317735 118.461017 
L 822.765385 118.853212 
L 836.213035 118.894917 
L 849.660684 120.037502 
L 863.108334 120.185292 
L 876.555983 120.283303 
L 890.003633 120.198541 
L 903.451282 120.132014 
L 916.898932 120.249542 
L 930.346581 120.213119 
L 943.794231 120.213512 
L 957.24188 120.330805 
" style="fill:none;stroke:#000000;stroke-linecap:square;stroke-width:2;"/>
   </g>
   <g id="patch_13">
    <path d="M 731.321368 261.684426 
L 731.321368 63.911226 
" style="fill:none;stroke:#000000;stroke-linecap:square;stroke-linejoin:miter;stroke-width:0.8;"/>
   </g>
   <g id="patch_14">
    <path d="M 968 261.684426 
L 968 63.911226 
" style="fill:none;stroke:#000000;stroke-linecap:square;stroke-linejoin:miter;stroke-width:0.8;"/>
   </g>
   <g id="patch_15">
    <path d="M 731.321368 261.684426 
L 968 261.684426 
" style="fill:none;stroke:#000000;stroke-linecap:square;stroke-linejoin:miter;stroke-width:0.8;"/>
   </g>
   <g id="patch_16">
    <path d="M 731.321368 63.911226 
L 968 63.911226 
" style="fill:none;stroke:#000000;stroke-linecap:square;stroke-linejoin:miter;stroke-width:0.8;"/>
   </g>
   <g id="text_27">
    <!-- $C(t)$ - Folded $C(t)$ -->
    <g transform="translate(759.566173 57.911226)scale(0.24 -0.24)">
     <defs>
      <path d="M 25.5 19 
L 25.5 23.375 
L 0.40625 23.375 
L 0.40625 19 
z
" id="CMR17-45"/>
     </defs>
     <use transform="scale(0.996264)" xlink:href="#CMMI12-67"/>
     <use transform="translate(76.946847 0)scale(0.996264)" xlink:href="#CMR17-40"/>
     <use transform="translate(112.227614 0)scale(0.996264)" xlink:href="#CMMI12-116"/>
     <use transform="translate(147.453945 0)scale(0.996264)" xlink:href="#CMR17-41"/>
     <use transform="translate(212.810679 0)scale(0.996264)" xlink:href="#CMR17-45"/>
     <use transform="translate(272.962612 0)scale(0.996264)" xlink:href="#CMR17-70"/>
     <use transform="translate(325.139203 0)scale(0.996264)" xlink:href="#CMR17-111"/>
     <use transform="translate(370.82968 0)scale(0.996264)" xlink:href="#CMR17-108"/>
     <use transform="translate(395.700738 0)scale(0.996264)" xlink:href="#CMR17-100"/>
     <use transform="translate(446.596108 0)scale(0.996264)" xlink:href="#CMR17-101"/>
     <use transform="translate(487.081769 0)scale(0.996264)" xlink:href="#CMR17-100"/>
     <use transform="translate(568.053105 0)scale(0.996264)" xlink:href="#CMMI12-67"/>
     <use transform="translate(644.999951 0)scale(0.996264)" xlink:href="#CMR17-40"/>
     <use transform="translate(680.280719 0)scale(0.996264)" xlink:href="#CMMI12-116"/>
     <use transform="translate(715.507049 0)scale(0.996264)" xlink:href="#CMR17-41"/>
    </g>
   </g>
  </g>
  <g id="axes_4">
   <g id="patch_17">
    <path d="M 92.457146 514.830936 
L 329.135777 514.830936 
L 329.135777 317.057736 
L 92.457146 317.057736 
z
" style="fill:#ffffff;"/>
   </g>
   <g id="matplotlib.axis_7">
    <g id="xtick_13">
     <g id="line2d_27">
      <g>
       <use style="stroke:#000000;stroke-width:0.8;" x="103.215265" xlink:href="#m2852f9691e" y="514.830936"/>
      </g>
     </g>
     <g id="text_28">
      <!-- $\mathdefault{0}$ -->
      <g transform="translate(99.313272 532.900524)scale(0.16 -0.16)">
       <use transform="scale(0.996264)" xlink:href="#CMR17-48"/>
      </g>
     </g>
    </g>
    <g id="xtick_14">
     <g id="line2d_28">
      <g>
       <use style="stroke:#000000;stroke-width:0.8;" x="172.622489" xlink:href="#m2852f9691e" y="514.830936"/>
      </g>
     </g>
     <g id="text_29">
      <!-- $\mathdefault{10}$ -->
      <g transform="translate(164.818502 532.900524)scale(0.16 -0.16)">
       <use transform="scale(0.996264)" xlink:href="#CMR17-49"/>
       <use transform="translate(45.690477 0)scale(0.996264)" xlink:href="#CMR17-48"/>
      </g>
     </g>
    </g>
    <g id="xtick_15">
     <g id="line2d_29">
      <g>
       <use style="stroke:#000000;stroke-width:0.8;" x="242.029712" xlink:href="#m2852f9691e" y="514.830936"/>
      </g>
     </g>
     <g id="text_30">
      <!-- $\mathdefault{20}$ -->
      <g transform="translate(234.225725 532.900524)scale(0.16 -0.16)">
       <use transform="scale(0.996264)" xlink:href="#CMR17-50"/>
       <use transform="translate(45.690477 0)scale(0.996264)" xlink:href="#CMR17-48"/>
      </g>
     </g>
    </g>
    <g id="xtick_16">
     <g id="line2d_30">
      <g>
       <use style="stroke:#000000;stroke-width:0.8;" x="311.436935" xlink:href="#m2852f9691e" y="514.830936"/>
      </g>
     </g>
     <g id="text_31">
      <!-- $\mathdefault{30}$ -->
      <g transform="translate(303.632948 532.900524)scale(0.16 -0.16)">
       <use transform="scale(0.996264)" xlink:href="#CMR17-51"/>
       <use transform="translate(45.690477 0)scale(0.996264)" xlink:href="#CMR17-48"/>
      </g>
     </g>
    </g>
   </g>
   <g id="matplotlib.axis_8">
    <g id="ytick_12">
     <g id="line2d_31">
      <g>
       <use style="stroke:#000000;stroke-width:0.8;" x="92.457146" xlink:href="#mf6728e1f52" y="497.289176"/>
      </g>
     </g>
     <g id="text_32">
      <!-- $\mathdefault{−8}$ -->
      <g transform="translate(65.255163 502.823971)scale(0.16 -0.16)">
       <defs>
        <path d="M 27.203125 35.375 
C 33.5 38.546875 39.90625 43.328125 39.90625 50.984375 
C 39.90625 60.015625 31.09375 65.296875 23 65.296875 
C 13.90625 65.296875 5.90625 58.734375 5.90625 49.6875 
C 5.90625 47.203125 6.5 42.921875 10.40625 39.140625 
C 11.40625 38.15625 15.59375 35.171875 18.296875 33.28125 
C 13.796875 30.984375 3.296875 25.53125 3.296875 14.59375 
C 3.296875 4.359375 13.09375 -2 22.796875 -2 
C 33.5 -2 42.5 5.65625 42.5 15.78125 
C 42.5 24.84375 36.40625 29.015625 32.40625 31.703125 
z
M 14.09375 44.09375 
C 13.296875 44.59375 9.296875 47.671875 9.296875 52.359375 
C 9.296875 58.421875 15.59375 63 22.796875 63 
C 30.703125 63 36.5 57.4375 36.5 50.96875 
C 36.5 41.703125 26.09375 36.421875 25.59375 36.421875 
C 25.5 36.421875 25.40625 36.421875 24.59375 37.03125 
z
M 32.5 23.734375 
C 34 22.640625 38.796875 19.375 38.796875 13.296875 
C 38.796875 5.953125 31.40625 0.390625 23 0.390625 
C 13.90625 0.390625 7 6.84375 7 14.6875 
C 7 22.546875 13.09375 29.09375 20 32.1875 
z
" id="CMR17-56"/>
       </defs>
       <use transform="scale(0.996264)" xlink:href="#CMSY10-0"/>
       <use transform="translate(77.487468 0)scale(0.996264)" xlink:href="#CMR17-56"/>
      </g>
     </g>
    </g>
    <g id="ytick_13">
     <g id="line2d_32">
      <g>
       <use style="stroke:#000000;stroke-width:0.8;" x="92.457146" xlink:href="#mf6728e1f52" y="462.392593"/>
      </g>
     </g>
     <g id="text_33">
      <!-- $\mathdefault{−6}$ -->
      <g transform="translate(65.255163 467.927387)scale(0.16 -0.16)">
       <defs>
        <path d="M 10.59375 34 
C 10.59375 57.65625 21.796875 63 28.296875 63 
C 30.40625 63 35.5 62.640625 37.5 59 
C 35.90625 59 32.90625 59 32.90625 55.515625 
C 32.90625 52.828125 35.09375 51.921875 36.5 51.921875 
C 37.40625 51.921875 40.09375 52.3125 40.09375 55.625 
C 40.09375 61.78125 35.09375 65.296875 28.203125 65.296875 
C 16.296875 65.296875 3.796875 52.96875 3.796875 31 
C 3.796875 3.953125 15.09375 -2 23.09375 -2 
C 32.796875 -2 42 6.671875 42 20.046875 
C 42 32.515625 33.90625 41.59375 23.703125 41.59375 
C 17.59375 41.59375 13.09375 37.609375 10.59375 30.625 
z
M 23.09375 0.390625 
C 10.796875 0.390625 10.796875 18.75 10.796875 22.4375 
C 10.796875 29.625 14.203125 40 23.5 40 
C 25.203125 40 30.09375 40 33.40625 33.125 
C 35.203125 29.21875 35.203125 25.140625 35.203125 20.140625 
C 35.203125 14.75 35.203125 10.78125 33.09375 6.78125 
C 30.90625 2.671875 27.703125 0.390625 23.09375 0.390625 
z
" id="CMR17-54"/>
       </defs>
       <use transform="scale(0.996264)" xlink:href="#CMSY10-0"/>
       <use transform="translate(77.487468 0)scale(0.996264)" xlink:href="#CMR17-54"/>
      </g>
     </g>
    </g>
    <g id="ytick_14">
     <g id="line2d_33">
      <g>
       <use style="stroke:#000000;stroke-width:0.8;" x="92.457146" xlink:href="#mf6728e1f52" y="427.496009"/>
      </g>
     </g>
     <g id="text_34">
      <!-- $\mathdefault{−4}$ -->
      <g transform="translate(65.255163 433.030803)scale(0.16 -0.16)">
       <defs>
        <path d="M 33.59375 64.40625 
C 33.59375 66.5 33.5 66.5 31.703125 66.5 
L 2 19.59375 
L 2 17 
L 27.796875 17 
L 27.796875 7.140625 
C 27.796875 3.5 27.59375 2.5 20.59375 2.5 
L 18.703125 2.5 
L 18.703125 0 
C 21.90625 0 27.296875 0 30.703125 0 
C 34.09375 0 39.5 0 42.703125 0 
L 42.703125 2.5 
L 40.796875 2.5 
C 33.796875 2.5 33.59375 3.5 33.59375 7.140625 
L 33.59375 17 
L 43.796875 17 
L 43.796875 19.59375 
L 33.59375 19.59375 
z
M 28.09375 57.859375 
L 28.09375 19.59375 
L 4 19.59375 
z
" id="CMR17-52"/>
       </defs>
       <use transform="scale(0.996264)" xlink:href="#CMSY10-0"/>
       <use transform="translate(77.487468 0)scale(0.996264)" xlink:href="#CMR17-52"/>
      </g>
     </g>
    </g>
    <g id="ytick_15">
     <g id="line2d_34">
      <g>
       <use style="stroke:#000000;stroke-width:0.8;" x="92.457146" xlink:href="#mf6728e1f52" y="392.599425"/>
      </g>
     </g>
     <g id="text_35">
      <!-- $\mathdefault{−2}$ -->
      <g transform="translate(65.255163 398.134219)scale(0.16 -0.16)">
       <use transform="scale(0.996264)" xlink:href="#CMSY10-0"/>
       <use transform="translate(77.487468 0)scale(0.996264)" xlink:href="#CMR17-50"/>
      </g>
     </g>
    </g>
    <g id="ytick_16">
     <g id="line2d_35">
      <g>
       <use style="stroke:#000000;stroke-width:0.8;" x="92.457146" xlink:href="#mf6728e1f52" y="357.702841"/>
      </g>
     </g>
     <g id="text_36">
      <!-- $\mathdefault{0}$ -->
      <g transform="translate(77.653159 363.237635)scale(0.16 -0.16)">
       <use transform="scale(0.996264)" xlink:href="#CMR17-48"/>
      </g>
     </g>
    </g>
    <g id="ytick_17">
     <g id="line2d_36">
      <g>
       <use style="stroke:#000000;stroke-width:0.8;" x="92.457146" xlink:href="#mf6728e1f52" y="322.806257"/>
      </g>
     </g>
     <g id="text_37">
      <!-- $\mathdefault{2}$ -->
      <g transform="translate(77.653159 328.341051)scale(0.16 -0.16)">
       <use transform="scale(0.996264)" xlink:href="#CMR17-50"/>
      </g>
     </g>
    </g>
    <g id="text_38">
     <!-- Imaginary -->
     <g transform="translate(56.604405 464.660674)rotate(-90)scale(0.24 -0.24)">
      <defs>
       <path d="M 19.703125 61.015625 
C 19.703125 65.5 20.90625 65.5 28.09375 65.5 
L 28.09375 68 
C 24.90625 68 19.796875 68 16.40625 68 
C 13 68 7.90625 68 4.703125 68 
L 4.703125 65.5 
C 11.90625 65.5 13.09375 65.5 13.09375 61.015625 
L 13.09375 6.984375 
C 13.09375 2.5 11.90625 2.5 4.703125 2.5 
L 4.703125 0 
C 7.90625 0 13 0 16.40625 0 
C 19.796875 0 24.90625 0 28.09375 0 
L 28.09375 2.5 
C 20.90625 2.5 19.703125 2.5 19.703125 6.984375 
z
" id="CMR17-73"/>
       <path d="M 67.59375 30.203125 
C 67.59375 35.1875 66.703125 43.59375 54.796875 43.59375 
C 48 43.59375 43.296875 39 41.5 33.609375 
L 41.40625 33.609375 
C 40.203125 41.8125 34.296875 43.59375 28.703125 43.59375 
C 20.796875 43.59375 16.703125 37.5 15.203125 33.5 
L 15.09375 33.5 
L 15.09375 43.59375 
L 3.296875 42.5 
L 3.296875 39.90625 
C 9.203125 39.90625 10.09375 39.296875 10.09375 34.5 
L 10.09375 6.6875 
C 10.09375 2.875 9.703125 2.390625 3.296875 2.390625 
L 3.296875 -0.203125 
C 5.703125 0 10.09375 0 12.703125 0 
C 15.296875 0 19.796875 0 22.203125 -0.203125 
L 22.203125 2.390625 
C 15.796875 2.390625 15.40625 2.78125 15.40625 6.6875 
L 15.40625 25.90625 
C 15.40625 35.109375 21 42 28 42 
C 35.40625 42 36.203125 35.40625 36.203125 30.59375 
L 36.203125 6.6875 
C 36.203125 2.875 35.796875 2.390625 29.40625 2.390625 
L 29.40625 -0.203125 
C 31.796875 0 36.203125 0 38.796875 0 
C 41.40625 0 45.90625 0 48.296875 -0.203125 
L 48.296875 2.390625 
C 41.90625 2.390625 41.5 2.78125 41.5 6.6875 
L 41.5 25.90625 
C 41.5 35.109375 47.09375 42 54.09375 42 
C 61.5 42 62.296875 35.40625 62.296875 30.59375 
L 62.296875 6.6875 
C 62.296875 2.875 61.90625 2.390625 55.5 2.390625 
L 55.5 -0.203125 
C 57.90625 0 62.296875 0 64.90625 0 
C 67.5 0 72 0 74.40625 -0.203125 
L 74.40625 2.390625 
C 68 2.390625 67.59375 2.78125 67.59375 6.6875 
z
" id="CMR17-109"/>
       <path d="M 11.09375 18.1875 
C 13 16.6875 16.296875 15 20.296875 15 
C 28.203125 15 35 21.203125 35 29.5 
C 35 32.09375 34.203125 36.09375 31.203125 39.203125 
C 34 42.0625 38.09375 43 40.40625 43 
C 40.796875 43 41.40625 43 41.90625 42.71875 
C 41.5 42.625 40.59375 42.234375 40.59375 40.703125 
C 40.59375 39.484375 41.5 38.609375 42.796875 38.609375 
C 44.296875 38.609375 45.09375 39.578125 45.09375 40.84375 
C 45.09375 42.671875 43.59375 44.59375 40.40625 44.59375 
C 36.40625 44.59375 32.90625 42.78125 30.09375 40.3125 
C 27.09375 43.015625 23.5 44 20.296875 44 
C 12.40625 44 5.59375 37.796875 5.59375 29.5 
C 5.59375 23.78125 8.90625 20.1875 9.90625 19.1875 
C 6.90625 15.6875 6.90625 11.609375 6.90625 11.109375 
C 6.90625 8.515625 7.90625 4.71875 11.296875 2.625 
C 6.09375 1.328125 2 -2.640625 2 -7.59375 
C 2 -14.734375 11.5 -20 22.90625 -20 
C 33.90625 -20 43.796875 -14.9375 43.796875 -7.484375 
C 43.796875 6 29 6 21.296875 6 
C 19 6 14.90625 6 14.40625 6.109375 
C 11.296875 6.609375 9.203125 9.40625 9.203125 12.90625 
C 9.203125 13.796875 9.203125 16 11.09375 18.1875 
z
M 20.296875 16.6875 
C 11.5 16.6875 11.5 27.5 11.5 29.515625 
C 11.5 31.5 11.5 42.3125 20.296875 42.3125 
C 29.09375 42.3125 29.09375 31.5 29.09375 29.515625 
C 29.09375 27.5 29.09375 16.6875 20.296875 16.6875 
z
M 22.90625 -18.296875 
C 12.90625 -18.296875 6 -13.046875 6 -7.59375 
C 6 -4.515625 7.703125 -1.640625 9.90625 -0.0625 
C 12.40625 1.625 13.40625 1.625 20.203125 1.625 
C 28.40625 1.625 39.796875 1.625 39.796875 -7.59375 
C 39.796875 -13.046875 32.90625 -18.296875 22.90625 -18.296875 
z
" id="CMR17-103"/>
       <path d="M 15.5 61.078125 
C 15.5 63.265625 13.703125 65.15625 11.40625 65.15625 
C 9.203125 65.15625 7.296875 63.375 7.296875 61.078125 
C 7.296875 58.890625 9.09375 57 11.40625 57 
C 13.59375 57 15.5 58.796875 15.5 61.078125 
z
M 3.796875 42.28125 
L 3.796875 39.703125 
C 9.40625 39.703125 10.203125 39.09375 10.203125 34.328125 
L 10.203125 6.671875 
C 10.203125 2.875 9.796875 2.390625 3.40625 2.390625 
L 3.40625 -0.203125 
C 5.796875 0 10.09375 0 12.59375 0 
C 15 0 19.09375 0 21.40625 -0.203125 
L 21.40625 2.390625 
C 15.5 2.390625 15.296875 2.984375 15.296875 6.5625 
L 15.296875 43.375 
z
" id="CMR17-105"/>
       <path d="M 41.5 30.203125 
C 41.5 35.296875 40.5 43.59375 28.703125 43.59375 
C 20.796875 43.59375 16.703125 37.5 15.203125 33.5 
L 15.09375 33.5 
L 15.09375 43.59375 
L 3.296875 42.5 
L 3.296875 39.90625 
C 9.203125 39.90625 10.09375 39.296875 10.09375 34.5 
L 10.09375 6.6875 
C 10.09375 2.875 9.703125 2.390625 3.296875 2.390625 
L 3.296875 -0.203125 
C 5.703125 0 10.09375 0 12.703125 0 
C 15.296875 0 19.796875 0 22.203125 -0.203125 
L 22.203125 2.390625 
C 15.796875 2.390625 15.40625 2.78125 15.40625 6.6875 
L 15.40625 25.90625 
C 15.40625 35.109375 21 42 28 42 
C 35.40625 42 36.203125 35.40625 36.203125 30.59375 
L 36.203125 6.6875 
C 36.203125 2.875 35.796875 2.390625 29.40625 2.390625 
L 29.40625 -0.203125 
C 31.796875 0 36.203125 0 38.796875 0 
C 41.40625 0 45.90625 0 48.296875 -0.203125 
L 48.296875 2.390625 
C 41.90625 2.390625 41.5 2.78125 41.5 6.6875 
z
" id="CMR17-110"/>
       <path d="M 15 23.390625 
C 15 33 19.09375 42 26.59375 42 
C 27.296875 42 28 41.90625 28.703125 41.59375 
C 28.703125 41.59375 26.5 40.890625 26.5 38.3125 
C 26.5 35.90625 28.40625 34.90625 29.90625 34.90625 
C 31.09375 34.90625 33.296875 35.609375 33.296875 38.40625 
C 33.296875 41.609375 30.09375 43.59375 26.703125 43.59375 
C 19.09375 43.59375 15.796875 36.203125 14.796875 32.703125 
L 14.703125 32.703125 
L 14.703125 43.59375 
L 3.09375 42.5 
L 3.09375 39.90625 
C 9 39.90625 9.90625 39.296875 9.90625 34.5 
L 9.90625 6.6875 
C 9.90625 2.875 9.5 2.390625 3.09375 2.390625 
L 3.09375 -0.203125 
C 5.5 0 10.09375 0 12.703125 0 
C 15.59375 0 20.703125 0 23.40625 -0.203125 
L 23.40625 2.390625 
C 16.203125 2.390625 15 2.390625 15 6.875 
z
" id="CMR17-114"/>
       <path d="M 39 34.328125 
C 41.5 40.40625 46 40.40625 47.40625 40.40625 
L 47.40625 43 
C 45.5 43 43 43 41.09375 43 
C 39 43 35.703125 43 33.703125 43.09375 
L 33.703125 40.5 
C 37.5 40.203125 37.59375 37.40625 37.59375 36.609375 
C 37.59375 35.625 37.40625 35.125 36.90625 33.921875 
L 26 7.015625 
L 14.09375 36.03125 
C 13.59375 37.21875 13.59375 37.90625 13.59375 38.015625 
C 13.59375 40.203125 15.90625 40.40625 18.296875 40.40625 
L 18.296875 43.09375 
C 15.90625 43 11.59375 43 9.09375 43 
C 6.40625 43 3.203125 43 1 43.09375 
L 1 40.40625 
C 6.40625 40.40625 7 39.90625 8.296875 36.71875 
L 23.203125 0.234375 
C 18.703125 -11.53125 16.09375 -18.40625 9.796875 -18.40625 
C 8.703125 -18.40625 6.203125 -18.109375 4.40625 -16.3125 
C 6.703125 -16.109375 7.703125 -14.71875 7.703125 -13.015625 
C 7.703125 -11.328125 6.5 -9.828125 4.5 -9.828125 
C 2.296875 -9.828125 1.203125 -11.328125 1.203125 -13.125 
C 1.203125 -17.109375 5.296875 -20 9.796875 -20 
C 15.59375 -20 19.203125 -14.40625 21.203125 -9.4375 
z
" id="CMR17-121"/>
      </defs>
      <use transform="scale(0.996264)" xlink:href="#CMR17-73"/>
      <use transform="translate(32.638409 0)scale(0.996264)" xlink:href="#CMR17-109"/>
      <use transform="translate(109.557999 0)scale(0.996264)" xlink:href="#CMR17-97"/>
      <use transform="translate(155.248476 0)scale(0.996264)" xlink:href="#CMR17-103"/>
      <use transform="translate(200.938953 0)scale(0.996264)" xlink:href="#CMR17-105"/>
      <use transform="translate(225.810012 0)scale(0.996264)" xlink:href="#CMR17-110"/>
      <use transform="translate(276.705382 0)scale(0.996264)" xlink:href="#CMR17-97"/>
      <use transform="translate(322.395859 0)scale(0.996264)" xlink:href="#CMR17-114"/>
      <use transform="translate(357.676626 0)scale(0.996264)" xlink:href="#CMR17-121"/>
     </g>
    </g>
    <g id="text_39">
     <!-- $\times\mathdefault{10^{−20}}\mathdefault{}$ -->
     <g transform="translate(92.457146 314.057736)scale(0.16 -0.16)">
      <defs>
       <path d="M 38.90625 27.890625 
L 18.90625 47.796875 
C 17.703125 49 17.5 49.1875 16.703125 49.1875 
C 15.703125 49.1875 14.703125 48.296875 14.703125 47.1875 
C 14.703125 46.5 14.90625 46.296875 16 45.1875 
L 36 25.09375 
L 16 5 
C 14.90625 3.890625 14.703125 3.6875 14.703125 3 
C 14.703125 1.890625 15.703125 1 16.703125 1 
C 17.5 1 17.703125 1.1875 18.90625 2.390625 
L 38.796875 22.296875 
L 59.5 1.59375 
C 59.703125 1.5 60.40625 1 61 1 
C 62.203125 1 63 1.890625 63 3 
C 63 3.1875 63 3.59375 62.703125 4.09375 
C 62.59375 4.296875 46.703125 20 41.703125 25.09375 
L 60 43.390625 
C 60.5 44 62 45.296875 62.5 45.890625 
C 62.59375 46.09375 63 46.5 63 47.1875 
C 63 48.296875 62.203125 49.1875 61 49.1875 
C 60.203125 49.1875 59.796875 48.796875 58.703125 47.6875 
z
" id="CMSY10-2"/>
      </defs>
      <use transform="scale(0.996264)" xlink:href="#CMSY10-2"/>
      <use transform="translate(77.487468 0)scale(0.996264)" xlink:href="#CMR17-49"/>
      <use transform="translate(123.177945 0)scale(0.996264)" xlink:href="#CMR17-48"/>
      <use transform="translate(168.868422 36.153639)scale(0.697382)" xlink:href="#CMSY10-0"/>
      <use transform="translate(223.109415 36.153639)scale(0.697382)" xlink:href="#CMR17-50"/>
      <use transform="translate(255.092597 36.153639)scale(0.697382)" xlink:href="#CMR17-48"/>
     </g>
    </g>
   </g>
   <g id="LineCollection_4">
    <path clip-path="url(#p4fe290a855)" d="M 103.215265 505.841245 
L 103.215265 365.128882 
" style="fill:none;stroke:#ff0000;stroke-width:2;"/>
    <path clip-path="url(#p4fe290a855)" d="M 110.155988 352.455278 
L 110.155988 326.379164 
" style="fill:none;stroke:#ff0000;stroke-width:2;"/>
    <path clip-path="url(#p4fe290a855)" d="M 117.09671 353.301493 
L 117.09671 347.730044 
" style="fill:none;stroke:#ff0000;stroke-width:2;"/>
    <path clip-path="url(#p4fe290a855)" d="M 124.037432 357.767551 
L 124.037432 356.384982 
" style="fill:none;stroke:#ff0000;stroke-width:2;"/>
    <path clip-path="url(#p4fe290a855)" d="M 130.978155 357.783179 
L 130.978155 357.29533 
" style="fill:none;stroke:#ff0000;stroke-width:2;"/>
    <path clip-path="url(#p4fe290a855)" d="M 137.918877 357.929182 
L 137.918877 357.720531 
" style="fill:none;stroke:#ff0000;stroke-width:2;"/>
    <path clip-path="url(#p4fe290a855)" d="M 144.859599 357.754605 
L 144.859599 357.638416 
" style="fill:none;stroke:#ff0000;stroke-width:2;"/>
    <path clip-path="url(#p4fe290a855)" d="M 151.800322 357.710887 
L 151.800322 357.635082 
" style="fill:none;stroke:#ff0000;stroke-width:2;"/>
    <path clip-path="url(#p4fe290a855)" d="M 158.741044 357.740452 
L 158.741044 357.694483 
" style="fill:none;stroke:#ff0000;stroke-width:2;"/>
    <path clip-path="url(#p4fe290a855)" d="M 165.681766 357.707929 
L 165.681766 357.676997 
" style="fill:none;stroke:#ff0000;stroke-width:2;"/>
    <path clip-path="url(#p4fe290a855)" d="M 172.622489 357.694372 
L 172.622489 357.669025 
" style="fill:none;stroke:#ff0000;stroke-width:2;"/>
    <path clip-path="url(#p4fe290a855)" d="M 179.563211 357.710249 
L 179.563211 357.696251 
" style="fill:none;stroke:#ff0000;stroke-width:2;"/>
    <path clip-path="url(#p4fe290a855)" d="M 186.503933 357.71569 
L 186.503933 357.703199 
" style="fill:none;stroke:#ff0000;stroke-width:2;"/>
    <path clip-path="url(#p4fe290a855)" d="M 193.444656 357.704865 
L 193.444656 357.695953 
" style="fill:none;stroke:#ff0000;stroke-width:2;"/>
    <path clip-path="url(#p4fe290a855)" d="M 200.385378 357.700769 
L 200.385378 357.694096 
" style="fill:none;stroke:#ff0000;stroke-width:2;"/>
    <path clip-path="url(#p4fe290a855)" d="M 207.3261 357.711228 
L 207.3261 357.705036 
" style="fill:none;stroke:#ff0000;stroke-width:2;"/>
    <path clip-path="url(#p4fe290a855)" d="M 214.266823 357.703277 
L 214.266823 357.698326 
" style="fill:none;stroke:#ff0000;stroke-width:2;"/>
    <path clip-path="url(#p4fe290a855)" d="M 221.207545 357.702328 
L 221.207545 357.697289 
" style="fill:none;stroke:#ff0000;stroke-width:2;"/>
    <path clip-path="url(#p4fe290a855)" d="M 228.148267 357.702466 
L 228.148267 357.696688 
" style="fill:none;stroke:#ff0000;stroke-width:2;"/>
    <path clip-path="url(#p4fe290a855)" d="M 235.08899 357.706708 
L 235.08899 357.698641 
" style="fill:none;stroke:#ff0000;stroke-width:2;"/>
    <path clip-path="url(#p4fe290a855)" d="M 242.029712 357.705887 
L 242.029712 357.696332 
" style="fill:none;stroke:#ff0000;stroke-width:2;"/>
    <path clip-path="url(#p4fe290a855)" d="M 248.970434 357.712745 
L 248.970434 357.697136 
" style="fill:none;stroke:#ff0000;stroke-width:2;"/>
    <path clip-path="url(#p4fe290a855)" d="M 255.911157 357.72202 
L 255.911157 357.700888 
" style="fill:none;stroke:#ff0000;stroke-width:2;"/>
    <path clip-path="url(#p4fe290a855)" d="M 262.851879 357.716768 
L 262.851879 357.685358 
" style="fill:none;stroke:#ff0000;stroke-width:2;"/>
    <path clip-path="url(#p4fe290a855)" d="M 269.792601 357.741095 
L 269.792601 357.690741 
" style="fill:none;stroke:#ff0000;stroke-width:2;"/>
    <path clip-path="url(#p4fe290a855)" d="M 276.733324 357.685445 
L 276.733324 357.614363 
" style="fill:none;stroke:#ff0000;stroke-width:2;"/>
    <path clip-path="url(#p4fe290a855)" d="M 283.674046 357.804411 
L 283.674046 357.677354 
" style="fill:none;stroke:#ff0000;stroke-width:2;"/>
    <path clip-path="url(#p4fe290a855)" d="M 290.614768 357.677286 
L 290.614768 357.471198 
" style="fill:none;stroke:#ff0000;stroke-width:2;"/>
    <path clip-path="url(#p4fe290a855)" d="M 297.555491 357.863319 
L 297.555491 357.357893 
" style="fill:none;stroke:#ff0000;stroke-width:2;"/>
    <path clip-path="url(#p4fe290a855)" d="M 304.496213 357.132668 
L 304.496213 355.566373 
" style="fill:none;stroke:#ff0000;stroke-width:2;"/>
    <path clip-path="url(#p4fe290a855)" d="M 311.436935 359.131549 
L 311.436935 353.043439 
" style="fill:none;stroke:#ff0000;stroke-width:2;"/>
    <path clip-path="url(#p4fe290a855)" d="M 318.377658 352.086195 
L 318.377658 326.047427 
" style="fill:none;stroke:#ff0000;stroke-width:2;"/>
   </g>
   <g id="line2d_37">
    <path clip-path="url(#p4fe290a855)" d="M 103.215265 435.485064 
L 110.155988 339.417221 
L 117.09671 350.515768 
L 124.037432 357.076267 
L 130.978155 357.539254 
L 137.918877 357.824856 
L 144.859599 357.69651 
L 151.800322 357.672985 
L 158.741044 357.717467 
L 165.681766 357.692463 
L 172.622489 357.681699 
L 179.563211 357.70325 
L 186.503933 357.709445 
L 193.444656 357.700409 
L 200.385378 357.697433 
L 207.3261 357.708132 
L 214.266823 357.700802 
L 221.207545 357.699809 
L 228.148267 357.699577 
L 235.08899 357.702674 
L 242.029712 357.70111 
L 248.970434 357.70494 
L 255.911157 357.711454 
L 262.851879 357.701063 
L 269.792601 357.715918 
L 276.733324 357.649904 
L 283.674046 357.740883 
L 290.614768 357.574242 
L 297.555491 357.610606 
L 304.496213 356.34952 
L 311.436935 356.087494 
L 318.377658 339.066811 
" style="fill:none;stroke:#000000;stroke-linecap:square;stroke-width:2;"/>
   </g>
   <g id="patch_18">
    <path d="M 92.457146 514.830936 
L 92.457146 317.057736 
" style="fill:none;stroke:#000000;stroke-linecap:square;stroke-linejoin:miter;stroke-width:0.8;"/>
   </g>
   <g id="patch_19">
    <path d="M 329.135777 514.830936 
L 329.135777 317.057736 
" style="fill:none;stroke:#000000;stroke-linecap:square;stroke-linejoin:miter;stroke-width:0.8;"/>
   </g>
   <g id="patch_20">
    <path d="M 92.457146 514.830936 
L 329.135777 514.830936 
" style="fill:none;stroke:#000000;stroke-linecap:square;stroke-linejoin:miter;stroke-width:0.8;"/>
   </g>
   <g id="patch_21">
    <path d="M 92.457146 317.057736 
L 329.135777 317.057736 
" style="fill:none;stroke:#000000;stroke-linecap:square;stroke-linejoin:miter;stroke-width:0.8;"/>
   </g>
  </g>
  <g id="axes_5">
   <g id="patch_22">
    <path d="M 411.889257 514.830936 
L 648.567889 514.830936 
L 648.567889 317.057736 
L 411.889257 317.057736 
z
" style="fill:#ffffff;"/>
   </g>
   <g id="matplotlib.axis_9">
    <g id="xtick_17">
     <g id="line2d_38">
      <g>
       <use style="stroke:#000000;stroke-width:0.8;" x="422.647376" xlink:href="#m2852f9691e" y="514.830936"/>
      </g>
     </g>
     <g id="text_40">
      <!-- $\mathdefault{0}$ -->
      <g transform="translate(418.745383 532.900524)scale(0.16 -0.16)">
       <use transform="scale(0.996264)" xlink:href="#CMR17-48"/>
      </g>
     </g>
    </g>
    <g id="xtick_18">
     <g id="line2d_39">
      <g>
       <use style="stroke:#000000;stroke-width:0.8;" x="489.885624" xlink:href="#m2852f9691e" y="514.830936"/>
      </g>
     </g>
     <g id="text_41">
      <!-- $\mathdefault{5}$ -->
      <g transform="translate(485.983631 532.900524)scale(0.16 -0.16)">
       <use transform="scale(0.996264)" xlink:href="#CMR17-53"/>
      </g>
     </g>
    </g>
    <g id="xtick_19">
     <g id="line2d_40">
      <g>
       <use style="stroke:#000000;stroke-width:0.8;" x="557.123872" xlink:href="#m2852f9691e" y="514.830936"/>
      </g>
     </g>
     <g id="text_42">
      <!-- $\mathdefault{10}$ -->
      <g transform="translate(549.319885 532.900524)scale(0.16 -0.16)">
       <use transform="scale(0.996264)" xlink:href="#CMR17-49"/>
       <use transform="translate(45.690477 0)scale(0.996264)" xlink:href="#CMR17-48"/>
      </g>
     </g>
    </g>
    <g id="xtick_20">
     <g id="line2d_41">
      <g>
       <use style="stroke:#000000;stroke-width:0.8;" x="624.36212" xlink:href="#m2852f9691e" y="514.830936"/>
      </g>
     </g>
     <g id="text_43">
      <!-- $\mathdefault{15}$ -->
      <g transform="translate(616.558133 532.900524)scale(0.16 -0.16)">
       <use transform="scale(0.996264)" xlink:href="#CMR17-49"/>
       <use transform="translate(45.690477 0)scale(0.996264)" xlink:href="#CMR17-53"/>
      </g>
     </g>
    </g>
   </g>
   <g id="matplotlib.axis_10">
    <g id="ytick_18">
     <g id="line2d_42">
      <g>
       <use style="stroke:#000000;stroke-width:0.8;" x="411.889257" xlink:href="#mf6728e1f52" y="497.093598"/>
      </g>
     </g>
     <g id="text_44">
      <!-- $\mathdefault{−8}$ -->
      <g transform="translate(384.687274 502.628392)scale(0.16 -0.16)">
       <use transform="scale(0.996264)" xlink:href="#CMSY10-0"/>
       <use transform="translate(77.487468 0)scale(0.996264)" xlink:href="#CMR17-56"/>
      </g>
     </g>
    </g>
    <g id="ytick_19">
     <g id="line2d_43">
      <g>
       <use style="stroke:#000000;stroke-width:0.8;" x="411.889257" xlink:href="#mf6728e1f52" y="461.398958"/>
      </g>
     </g>
     <g id="text_45">
      <!-- $\mathdefault{−6}$ -->
      <g transform="translate(384.687274 466.933752)scale(0.16 -0.16)">
       <use transform="scale(0.996264)" xlink:href="#CMSY10-0"/>
       <use transform="translate(77.487468 0)scale(0.996264)" xlink:href="#CMR17-54"/>
      </g>
     </g>
    </g>
    <g id="ytick_20">
     <g id="line2d_44">
      <g>
       <use style="stroke:#000000;stroke-width:0.8;" x="411.889257" xlink:href="#mf6728e1f52" y="425.704317"/>
      </g>
     </g>
     <g id="text_46">
      <!-- $\mathdefault{−4}$ -->
      <g transform="translate(384.687274 431.239112)scale(0.16 -0.16)">
       <use transform="scale(0.996264)" xlink:href="#CMSY10-0"/>
       <use transform="translate(77.487468 0)scale(0.996264)" xlink:href="#CMR17-52"/>
      </g>
     </g>
    </g>
    <g id="ytick_21">
     <g id="line2d_45">
      <g>
       <use style="stroke:#000000;stroke-width:0.8;" x="411.889257" xlink:href="#mf6728e1f52" y="390.009677"/>
      </g>
     </g>
     <g id="text_47">
      <!-- $\mathdefault{−2}$ -->
      <g transform="translate(384.687274 395.544472)scale(0.16 -0.16)">
       <use transform="scale(0.996264)" xlink:href="#CMSY10-0"/>
       <use transform="translate(77.487468 0)scale(0.996264)" xlink:href="#CMR17-50"/>
      </g>
     </g>
    </g>
    <g id="ytick_22">
     <g id="line2d_46">
      <g>
       <use style="stroke:#000000;stroke-width:0.8;" x="411.889257" xlink:href="#mf6728e1f52" y="354.315037"/>
      </g>
     </g>
     <g id="text_48">
      <!-- $\mathdefault{0}$ -->
      <g transform="translate(397.08527 359.849831)scale(0.16 -0.16)">
       <use transform="scale(0.996264)" xlink:href="#CMR17-48"/>
      </g>
     </g>
    </g>
    <g id="ytick_23">
     <g id="line2d_47">
      <g>
       <use style="stroke:#000000;stroke-width:0.8;" x="411.889257" xlink:href="#mf6728e1f52" y="318.620397"/>
      </g>
     </g>
     <g id="text_49">
      <!-- $\mathdefault{2}$ -->
      <g transform="translate(397.08527 324.155191)scale(0.16 -0.16)">
       <use transform="scale(0.996264)" xlink:href="#CMR17-50"/>
      </g>
     </g>
    </g>
    <g id="text_50">
     <!-- $\times\mathdefault{10^{−20}}\mathdefault{}$ -->
     <g transform="translate(411.889257 314.057736)scale(0.16 -0.16)">
      <use transform="scale(0.996264)" xlink:href="#CMSY10-2"/>
      <use transform="translate(77.487468 0)scale(0.996264)" xlink:href="#CMR17-49"/>
      <use transform="translate(123.177945 0)scale(0.996264)" xlink:href="#CMR17-48"/>
      <use transform="translate(168.868422 36.153639)scale(0.697382)" xlink:href="#CMSY10-0"/>
      <use transform="translate(223.109415 36.153639)scale(0.697382)" xlink:href="#CMR17-50"/>
      <use transform="translate(255.092597 36.153639)scale(0.697382)" xlink:href="#CMR17-48"/>
     </g>
    </g>
   </g>
   <g id="LineCollection_5">
    <path clip-path="url(#pd229f430b6)" d="M 422.647376 505.841245 
L 422.647376 361.910906 
" style="fill:none;stroke:#ff0000;stroke-width:2;"/>
    <path clip-path="url(#pd229f430b6)" d="M 436.095026 344.81663 
L 436.095026 326.047427 
" style="fill:none;stroke:#ff0000;stroke-width:2;"/>
    <path clip-path="url(#pd229f430b6)" d="M 449.542676 352.01786 
L 449.542676 347.608491 
" style="fill:none;stroke:#ff0000;stroke-width:2;"/>
    <path clip-path="url(#pd229f430b6)" d="M 462.990325 353.817141 
L 462.990325 352.78776 
" style="fill:none;stroke:#ff0000;stroke-width:2;"/>
    <path clip-path="url(#pd229f430b6)" d="M 476.437975 354.365414 
L 476.437975 354.002989 
" style="fill:none;stroke:#ff0000;stroke-width:2;"/>
    <path clip-path="url(#pd229f430b6)" d="M 489.885624 354.385926 
L 489.885624 354.237415 
" style="fill:none;stroke:#ff0000;stroke-width:2;"/>
    <path clip-path="url(#pd229f430b6)" d="M 503.333274 354.374828 
L 503.333274 354.287684 
" style="fill:none;stroke:#ff0000;stroke-width:2;"/>
    <path clip-path="url(#pd229f430b6)" d="M 516.780923 354.299824 
L 516.780923 354.245564 
" style="fill:none;stroke:#ff0000;stroke-width:2;"/>
    <path clip-path="url(#pd229f430b6)" d="M 530.228573 354.346676 
L 530.228573 354.311737 
" style="fill:none;stroke:#ff0000;stroke-width:2;"/>
    <path clip-path="url(#pd229f430b6)" d="M 543.676222 354.319531 
L 543.676222 354.29811 
" style="fill:none;stroke:#ff0000;stroke-width:2;"/>
    <path clip-path="url(#pd229f430b6)" d="M 557.123872 354.317074 
L 557.123872 354.300185 
" style="fill:none;stroke:#ff0000;stroke-width:2;"/>
    <path clip-path="url(#pd229f430b6)" d="M 570.571521 354.321335 
L 570.571521 354.311305 
" style="fill:none;stroke:#ff0000;stroke-width:2;"/>
    <path clip-path="url(#pd229f430b6)" d="M 584.019171 354.321439 
L 584.019171 354.31362 
" style="fill:none;stroke:#ff0000;stroke-width:2;"/>
    <path clip-path="url(#pd229f430b6)" d="M 597.46682 354.316852 
L 597.46682 354.310565 
" style="fill:none;stroke:#ff0000;stroke-width:2;"/>
    <path clip-path="url(#pd229f430b6)" d="M 610.91447 354.312676 
L 610.91447 354.308529 
" style="fill:none;stroke:#ff0000;stroke-width:2;"/>
    <path clip-path="url(#pd229f430b6)" d="M 624.36212 354.318359 
L 624.36212 354.314027 
" style="fill:none;stroke:#ff0000;stroke-width:2;"/>
    <path clip-path="url(#pd229f430b6)" d="M 637.809769 354.315483 
L 637.809769 354.31042 
" style="fill:none;stroke:#ff0000;stroke-width:2;"/>
   </g>
   <g id="line2d_48">
    <path clip-path="url(#pd229f430b6)" d="M 422.647376 433.876076 
L 436.095026 335.432029 
L 449.542676 349.813176 
L 462.990325 353.302451 
L 476.437975 354.184201 
L 489.885624 354.31167 
L 503.333274 354.331256 
L 516.780923 354.272694 
L 530.228573 354.329206 
L 543.676222 354.30882 
L 557.123872 354.30863 
L 570.571521 354.31632 
L 584.019171 354.317529 
L 597.46682 354.313709 
L 610.91447 354.310602 
L 624.36212 354.316193 
L 637.809769 354.312952 
" style="fill:none;stroke:#000000;stroke-linecap:square;stroke-width:2;"/>
   </g>
   <g id="patch_23">
    <path d="M 411.889257 514.830936 
L 411.889257 317.057736 
" style="fill:none;stroke:#000000;stroke-linecap:square;stroke-linejoin:miter;stroke-width:0.8;"/>
   </g>
   <g id="patch_24">
    <path d="M 648.567889 514.830936 
L 648.567889 317.057736 
" style="fill:none;stroke:#000000;stroke-linecap:square;stroke-linejoin:miter;stroke-width:0.8;"/>
   </g>
   <g id="patch_25">
    <path d="M 411.889257 514.830936 
L 648.567889 514.830936 
" style="fill:none;stroke:#000000;stroke-linecap:square;stroke-linejoin:miter;stroke-width:0.8;"/>
   </g>
   <g id="patch_26">
    <path d="M 411.889257 317.057736 
L 648.567889 317.057736 
" style="fill:none;stroke:#000000;stroke-linecap:square;stroke-linejoin:miter;stroke-width:0.8;"/>
   </g>
  </g>
  <g id="axes_6">
   <g id="patch_27">
    <path d="M 731.321368 514.830936 
L 968 514.830936 
L 968 317.057736 
L 731.321368 317.057736 
z
" style="fill:#ffffff;"/>
   </g>
   <g id="matplotlib.axis_11">
    <g id="xtick_21">
     <g id="line2d_49">
      <g>
       <use style="stroke:#000000;stroke-width:0.8;" x="742.079488" xlink:href="#m2852f9691e" y="514.830936"/>
      </g>
     </g>
     <g id="text_51">
      <!-- $\mathdefault{0}$ -->
      <g transform="translate(738.177494 532.900524)scale(0.16 -0.16)">
       <use transform="scale(0.996264)" xlink:href="#CMR17-48"/>
      </g>
     </g>
    </g>
    <g id="xtick_22">
     <g id="line2d_50">
      <g>
       <use style="stroke:#000000;stroke-width:0.8;" x="809.317735" xlink:href="#m2852f9691e" y="514.830936"/>
      </g>
     </g>
     <g id="text_52">
      <!-- $\mathdefault{5}$ -->
      <g transform="translate(805.415742 532.900524)scale(0.16 -0.16)">
       <use transform="scale(0.996264)" xlink:href="#CMR17-53"/>
      </g>
     </g>
    </g>
    <g id="xtick_23">
     <g id="line2d_51">
      <g>
       <use style="stroke:#000000;stroke-width:0.8;" x="876.555983" xlink:href="#m2852f9691e" y="514.830936"/>
      </g>
     </g>
     <g id="text_53">
      <!-- $\mathdefault{10}$ -->
      <g transform="translate(868.751996 532.900524)scale(0.16 -0.16)">
       <use transform="scale(0.996264)" xlink:href="#CMR17-49"/>
       <use transform="translate(45.690477 0)scale(0.996264)" xlink:href="#CMR17-48"/>
      </g>
     </g>
    </g>
    <g id="xtick_24">
     <g id="line2d_52">
      <g>
       <use style="stroke:#000000;stroke-width:0.8;" x="943.794231" xlink:href="#m2852f9691e" y="514.830936"/>
      </g>
     </g>
     <g id="text_54">
      <!-- $\mathdefault{15}$ -->
      <g transform="translate(935.990244 532.900524)scale(0.16 -0.16)">
       <use transform="scale(0.996264)" xlink:href="#CMR17-49"/>
       <use transform="translate(45.690477 0)scale(0.996264)" xlink:href="#CMR17-53"/>
      </g>
     </g>
    </g>
   </g>
   <g id="matplotlib.axis_12">
    <g id="ytick_24">
     <g id="line2d_53">
      <g>
       <use style="stroke:#000000;stroke-width:0.8;" x="731.321368" xlink:href="#mf6728e1f52" y="482.067381"/>
      </g>
     </g>
     <g id="text_55">
      <!-- $\mathdefault{−4}$ -->
      <g transform="translate(704.119385 487.602175)scale(0.16 -0.16)">
       <use transform="scale(0.996264)" xlink:href="#CMSY10-0"/>
       <use transform="translate(77.487468 0)scale(0.996264)" xlink:href="#CMR17-52"/>
      </g>
     </g>
    </g>
    <g id="ytick_25">
     <g id="line2d_54">
      <g>
       <use style="stroke:#000000;stroke-width:0.8;" x="731.321368" xlink:href="#mf6728e1f52" y="448.154529"/>
      </g>
     </g>
     <g id="text_56">
      <!-- $\mathdefault{−2}$ -->
      <g transform="translate(704.119385 453.689323)scale(0.16 -0.16)">
       <use transform="scale(0.996264)" xlink:href="#CMSY10-0"/>
       <use transform="translate(77.487468 0)scale(0.996264)" xlink:href="#CMR17-50"/>
      </g>
     </g>
    </g>
    <g id="ytick_26">
     <g id="line2d_55">
      <g>
       <use style="stroke:#000000;stroke-width:0.8;" x="731.321368" xlink:href="#mf6728e1f52" y="414.241678"/>
      </g>
     </g>
     <g id="text_57">
      <!-- $\mathdefault{0}$ -->
      <g transform="translate(716.517381 419.776472)scale(0.16 -0.16)">
       <use transform="scale(0.996264)" xlink:href="#CMR17-48"/>
      </g>
     </g>
    </g>
    <g id="ytick_27">
     <g id="line2d_56">
      <g>
       <use style="stroke:#000000;stroke-width:0.8;" x="731.321368" xlink:href="#mf6728e1f52" y="380.328826"/>
      </g>
     </g>
     <g id="text_58">
      <!-- $\mathdefault{2}$ -->
      <g transform="translate(716.517381 385.863621)scale(0.16 -0.16)">
       <use transform="scale(0.996264)" xlink:href="#CMR17-50"/>
      </g>
     </g>
    </g>
    <g id="ytick_28">
     <g id="line2d_57">
      <g>
       <use style="stroke:#000000;stroke-width:0.8;" x="731.321368" xlink:href="#mf6728e1f52" y="346.415975"/>
      </g>
     </g>
     <g id="text_59">
      <!-- $\mathdefault{4}$ -->
      <g transform="translate(716.517381 351.950769)scale(0.16 -0.16)">
       <use transform="scale(0.996264)" xlink:href="#CMR17-52"/>
      </g>
     </g>
    </g>
    <g id="text_60">
     <!-- $\times\mathdefault{10^{−21}}\mathdefault{}$ -->
     <g transform="translate(731.321368 314.057736)scale(0.16 -0.16)">
      <use transform="scale(0.996264)" xlink:href="#CMSY10-2"/>
      <use transform="translate(77.487468 0)scale(0.996264)" xlink:href="#CMR17-49"/>
      <use transform="translate(123.177945 0)scale(0.996264)" xlink:href="#CMR17-48"/>
      <use transform="translate(168.868422 36.153639)scale(0.697382)" xlink:href="#CMSY10-0"/>
      <use transform="translate(223.109415 36.153639)scale(0.697382)" xlink:href="#CMR17-50"/>
      <use transform="translate(255.092597 36.153639)scale(0.697382)" xlink:href="#CMR17-49"/>
     </g>
    </g>
   </g>
   <g id="LineCollection_6">
    <path clip-path="url(#pf6d3774ef1)" d="M 742.079488 414.241678 
L 742.079488 414.241678 
" style="fill:none;stroke:#ff0000;stroke-width:2;"/>
    <path clip-path="url(#pf6d3774ef1)" d="M 755.527137 505.841245 
L 755.527137 326.047427 
" style="fill:none;stroke:#ff0000;stroke-width:2;"/>
    <path clip-path="url(#pf6d3774ef1)" d="M 768.974787 406.280087 
L 768.974787 368.056677 
" style="fill:none;stroke:#ff0000;stroke-width:2;"/>
    <path clip-path="url(#pf6d3774ef1)" d="M 782.422436 423.02798 
L 782.422436 412.51797 
" style="fill:none;stroke:#ff0000;stroke-width:2;"/>
    <path clip-path="url(#pf6d3774ef1)" d="M 795.870086 415.586468 
L 795.870086 412.203482 
" style="fill:none;stroke:#ff0000;stroke-width:2;"/>
    <path clip-path="url(#pf6d3774ef1)" d="M 809.317735 416.178879 
L 809.317735 414.739973 
" style="fill:none;stroke:#ff0000;stroke-width:2;"/>
    <path clip-path="url(#pf6d3774ef1)" d="M 822.765385 414.448648 
L 822.765385 413.60349 
" style="fill:none;stroke:#ff0000;stroke-width:2;"/>
    <path clip-path="url(#pf6d3774ef1)" d="M 836.213035 414.600906 
L 836.213035 414.106752 
" style="fill:none;stroke:#ff0000;stroke-width:2;"/>
    <path clip-path="url(#pf6d3774ef1)" d="M 849.660684 414.414523 
L 849.660684 414.083889 
" style="fill:none;stroke:#ff0000;stroke-width:2;"/>
    <path clip-path="url(#pf6d3774ef1)" d="M 863.108334 414.312082 
L 863.108334 414.087695 
" style="fill:none;stroke:#ff0000;stroke-width:2;"/>
    <path clip-path="url(#pf6d3774ef1)" d="M 876.555983 414.177213 
L 876.555983 414.016977 
" style="fill:none;stroke:#ff0000;stroke-width:2;"/>
    <path clip-path="url(#pf6d3774ef1)" d="M 890.003633 414.287495 
L 890.003633 414.179439 
" style="fill:none;stroke:#ff0000;stroke-width:2;"/>
    <path clip-path="url(#pf6d3774ef1)" d="M 903.451282 414.321426 
L 903.451282 414.242931 
" style="fill:none;stroke:#ff0000;stroke-width:2;"/>
    <path clip-path="url(#pf6d3774ef1)" d="M 916.898932 414.259198 
L 916.898932 414.202143 
" style="fill:none;stroke:#ff0000;stroke-width:2;"/>
    <path clip-path="url(#pf6d3774ef1)" d="M 930.346581 414.254313 
L 930.346581 414.208201 
" style="fill:none;stroke:#ff0000;stroke-width:2;"/>
    <path clip-path="url(#pf6d3774ef1)" d="M 943.794231 414.300259 
L 943.794231 414.263986 
" style="fill:none;stroke:#ff0000;stroke-width:2;"/>
    <path clip-path="url(#pf6d3774ef1)" d="M 957.24188 414.241678 
L 957.24188 414.241678 
" style="fill:none;stroke:#ff0000;stroke-width:2;"/>
   </g>
   <g id="line2d_58">
    <path clip-path="url(#pf6d3774ef1)" d="M 742.079488 414.241678 
L 755.527137 415.944336 
L 768.974787 387.168382 
L 782.422436 417.772975 
L 795.870086 413.894975 
L 809.317735 415.459426 
L 822.765385 414.026069 
L 836.213035 414.353829 
L 849.660684 414.249206 
L 863.108334 414.199888 
L 876.555983 414.097095 
L 890.003633 414.233467 
L 903.451282 414.282178 
L 916.898932 414.23067 
L 930.346581 414.231257 
L 943.794231 414.282122 
L 957.24188 414.241678 
" style="fill:none;stroke:#000000;stroke-linecap:square;stroke-width:2;"/>
   </g>
   <g id="patch_28">
    <path d="M 731.321368 514.830936 
L 731.321368 317.057736 
" style="fill:none;stroke:#000000;stroke-linecap:square;stroke-linejoin:miter;stroke-width:0.8;"/>
   </g>
   <g id="patch_29">
    <path d="M 968 514.830936 
L 968 317.057736 
" style="fill:none;stroke:#000000;stroke-linecap:square;stroke-linejoin:miter;stroke-width:0.8;"/>
   </g>
   <g id="patch_30">
    <path d="M 731.321368 514.830936 
L 968 514.830936 
" style="fill:none;stroke:#000000;stroke-linecap:square;stroke-linejoin:miter;stroke-width:0.8;"/>
   </g>
   <g id="patch_31">
    <path d="M 731.321368 317.057736 
L 968 317.057736 
" style="fill:none;stroke:#000000;stroke-linecap:square;stroke-linejoin:miter;stroke-width:0.8;"/>
   </g>
  </g>
 </g>
 <defs>
  <clipPath id="p25a4bcf185">
   <rect height="197.773199" width="236.678632" x="92.457146" y="63.911226"/>
  </clipPath>
  <clipPath id="p4e69f588bf">
   <rect height="197.773199" width="236.678632" x="411.889257" y="63.911226"/>
  </clipPath>
  <clipPath id="p20c67659a3">
   <rect height="197.773199" width="236.678632" x="731.321368" y="63.911226"/>
  </clipPath>
  <clipPath id="p4fe290a855">
   <rect height="197.773199" width="236.678632" x="92.457146" y="317.057736"/>
  </clipPath>
  <clipPath id="pd229f430b6">
   <rect height="197.773199" width="236.678632" x="411.889257" y="317.057736"/>
  </clipPath>
  <clipPath id="pf6d3774ef1">
   <rect height="197.773199" width="236.678632" x="731.321368" y="317.057736"/>
  </clipPath>
 </defs>
</svg>
