<?xml version="1.0" encoding="utf-8" standalone="no"?>
<!DOCTYPE svg PUBLIC "-//W3C//DTD SVG 1.1//EN"
  "http://www.w3.org/Graphics/SVG/1.1/DTD/svg11.dtd">
<!-- Created with matplotlib (https://matplotlib.org/) -->
<svg height="576pt" version="1.1" viewBox="0 0 1008 576" width="1008pt" xmlns="http://www.w3.org/2000/svg" xmlns:xlink="http://www.w3.org/1999/xlink">
 <metadata>
  <rdf:RDF xmlns:cc="http://creativecommons.org/ns#" xmlns:dc="http://purl.org/dc/elements/1.1/" xmlns:rdf="http://www.w3.org/1999/02/22-rdf-syntax-ns#">
   <cc:Work>
    <dc:type rdf:resource="http://purl.org/dc/dcmitype/StillImage"/>
    <dc:date>2022-11-03T14:19:23.297174</dc:date>
    <dc:format>image/svg+xml</dc:format>
    <dc:creator>
     <cc:Agent>
      <dc:title>Matplotlib v3.3.4, https://matplotlib.org/</dc:title>
     </cc:Agent>
    </dc:creator>
   </cc:Work>
  </rdf:RDF>
 </metadata>
 <defs>
  <style type="text/css">*{stroke-linecap:butt;stroke-linejoin:round;}</style>
 </defs>
 <g id="figure_1">
  <g id="patch_1">
   <path d="M 0 576 
L 1008 576 
L 1008 0 
L 0 0 
z
" style="fill:#ffffff;"/>
  </g>
  <g id="axes_1">
   <g id="patch_2">
    <path d="M 100.002672 261.684426 
L 344.571444 261.684426 
L 344.571444 63.911226 
L 100.002672 63.911226 
z
" style="fill:#ffffff;"/>
   </g>
   <g id="matplotlib.axis_1">
    <g id="xtick_1">
     <g id="line2d_1">
      <defs>
       <path d="M 0 0 
L 0 3.5 
" id="m5c5517bdf9" style="stroke:#000000;stroke-width:0.8;"/>
      </defs>
      <g>
       <use style="stroke:#000000;stroke-width:0.8;" x="111.119434" xlink:href="#m5c5517bdf9" y="261.684426"/>
      </g>
     </g>
     <g id="text_1">
      <!-- $\mathdefault{0}$ -->
      <g transform="translate(107.217441 279.754014)scale(0.16 -0.16)">
       <defs>
        <path d="M 42 31.640625 
C 42 37.75 41.90625 48.125 37.703125 56.109375 
C 34 63.109375 28.09375 65.59375 22.90625 65.59375 
C 18.09375 65.59375 12 63.40625 8.203125 56.203125 
C 4.203125 48.71875 3.796875 39.4375 3.796875 31.640625 
C 3.796875 25.953125 3.90625 17.28125 7 9.671875 
C 11.296875 -0.609375 19 -2 22.90625 -2 
C 27.5 -2 34.5 -0.109375 38.59375 9.375 
C 41.59375 16.28125 42 24.359375 42 31.640625 
z
M 22.90625 -0.40625 
C 16.5 -0.40625 12.703125 5.078125 11.296875 12.6875 
C 10.203125 18.5625 10.203125 27.15625 10.203125 32.75 
C 10.203125 40.4375 10.203125 46.828125 11.5 52.921875 
C 13.40625 61.390625 19 64 22.90625 64 
C 27 64 32.296875 61.296875 34.203125 53.125 
C 35.5 47.4375 35.59375 40.734375 35.59375 32.75 
C 35.59375 26.25 35.59375 18.265625 34.40625 12.375 
C 32.296875 1.484375 26.40625 -0.40625 22.90625 -0.40625 
z
" id="CMR17-48"/>
       </defs>
       <use transform="scale(0.996264)" xlink:href="#CMR17-48"/>
      </g>
     </g>
    </g>
    <g id="xtick_2">
     <g id="line2d_2">
      <g>
       <use style="stroke:#000000;stroke-width:0.8;" x="182.840482" xlink:href="#m5c5517bdf9" y="261.684426"/>
      </g>
     </g>
     <g id="text_2">
      <!-- $\mathdefault{10}$ -->
      <g transform="translate(175.036495 279.754014)scale(0.16 -0.16)">
       <defs>
        <path d="M 26.59375 63.40625 
C 26.59375 65.5 26.5 65.5 25.09375 65.5 
C 21.203125 61.1875 15.296875 59.796875 9.703125 59.796875 
C 9.40625 59.796875 8.90625 59.796875 8.796875 59.5 
C 8.703125 59.296875 8.703125 59.09375 8.703125 57 
C 11.796875 57 17 57.59375 21 59.984375 
L 21 7.203125 
C 21 3.6875 20.796875 2.5 12.203125 2.5 
L 9.203125 2.5 
L 9.203125 0 
C 14 0 19 0 23.796875 0 
C 28.59375 0 33.59375 0 38.40625 0 
L 38.40625 2.5 
L 35.40625 2.5 
C 26.796875 2.5 26.59375 3.59375 26.59375 7.15625 
z
" id="CMR17-49"/>
       </defs>
       <use transform="scale(0.996264)" xlink:href="#CMR17-49"/>
       <use transform="translate(45.690477 0)scale(0.996264)" xlink:href="#CMR17-48"/>
      </g>
     </g>
    </g>
    <g id="xtick_3">
     <g id="line2d_3">
      <g>
       <use style="stroke:#000000;stroke-width:0.8;" x="254.56153" xlink:href="#m5c5517bdf9" y="261.684426"/>
      </g>
     </g>
     <g id="text_3">
      <!-- $\mathdefault{20}$ -->
      <g transform="translate(246.757543 279.754014)scale(0.16 -0.16)">
       <defs>
        <path d="M 41.703125 15.453125 
L 39.90625 15.453125 
C 38.90625 8.375 38.09375 7.171875 37.703125 6.5625 
C 37.203125 5.765625 30 5.765625 28.59375 5.765625 
L 9.40625 5.765625 
C 13 9.671875 20 16.75 28.5 24.953125 
C 34.59375 30.734375 41.703125 37.53125 41.703125 47.421875 
C 41.703125 59.21875 32.296875 66 21.796875 66 
C 10.796875 66 4.09375 56.3125 4.09375 47.34375 
C 4.09375 43.4375 7 42.9375 8.203125 42.9375 
C 9.203125 42.9375 12.203125 43.546875 12.203125 47.03125 
C 12.203125 50.109375 9.59375 51 8.203125 51 
C 7.59375 51 7 50.90625 6.59375 50.703125 
C 8.5 59.21875 14.296875 63.40625 20.40625 63.40625 
C 29.09375 63.40625 34.796875 56.515625 34.796875 47.421875 
C 34.796875 38.734375 29.703125 31.25 24 24.75 
L 4.09375 2.28125 
L 4.09375 0 
L 39.296875 0 
z
" id="CMR17-50"/>
       </defs>
       <use transform="scale(0.996264)" xlink:href="#CMR17-50"/>
       <use transform="translate(45.690477 0)scale(0.996264)" xlink:href="#CMR17-48"/>
      </g>
     </g>
    </g>
    <g id="xtick_4">
     <g id="line2d_4">
      <g>
       <use style="stroke:#000000;stroke-width:0.8;" x="326.282577" xlink:href="#m5c5517bdf9" y="261.684426"/>
      </g>
     </g>
     <g id="text_4">
      <!-- $\mathdefault{30}$ -->
      <g transform="translate(318.47859 279.754014)scale(0.16 -0.16)">
       <defs>
        <path d="M 22.09375 33.703125 
C 31 33.703125 34.90625 25.96875 34.90625 17.03125 
C 34.90625 5 28.5 0.390625 22.703125 0.390625 
C 17.40625 0.390625 8.796875 3.03125 6.09375 10.828125 
C 6.59375 10.625 7.09375 10.625 7.59375 10.625 
C 10 10.625 11.796875 12.21875 11.796875 14.8125 
C 11.796875 17.703125 9.59375 19 7.59375 19 
C 5.90625 19 3.296875 18.203125 3.296875 14.46875 
C 3.296875 5.234375 12.296875 -2 22.90625 -2 
C 34 -2 42.5 6.71875 42.5 16.953125 
C 42.5 26.671875 34.5 33.703125 25 34.796875 
C 32.59375 36.375 39.90625 43.0625 39.90625 52.015625 
C 39.90625 59.6875 32 65.296875 23 65.296875 
C 13.90625 65.296875 5.90625 59.828125 5.90625 52.015625 
C 5.90625 48.59375 8.5 48 9.796875 48 
C 11.90625 48 13.703125 49.296875 13.703125 51.890625 
C 13.703125 54.46875 11.90625 55.765625 9.796875 55.765625 
C 9.40625 55.765625 8.90625 55.765625 8.5 55.578125 
C 11.40625 61.859375 19.296875 63 22.796875 63 
C 26.296875 63 32.90625 61.328125 32.90625 51.875 
C 32.90625 49.109375 32.5 44.1875 29.09375 39.84375 
C 26.09375 36 22.703125 36 19.40625 35.6875 
C 18.90625 35.6875 16.59375 35.453125 16.203125 35.453125 
C 15.5 35.359375 15.09375 35.265625 15.09375 34.5 
C 15.09375 33.796875 15.203125 33.703125 17.203125 33.703125 
z
" id="CMR17-51"/>
       </defs>
       <use transform="scale(0.996264)" xlink:href="#CMR17-51"/>
       <use transform="translate(45.690477 0)scale(0.996264)" xlink:href="#CMR17-48"/>
      </g>
     </g>
    </g>
   </g>
   <g id="matplotlib.axis_2">
    <g id="ytick_1">
     <g id="line2d_5">
      <defs>
       <path d="M 0 0 
L -3.5 0 
" id="m0bc7a51ab2" style="stroke:#000000;stroke-width:0.8;"/>
      </defs>
      <g>
       <use style="stroke:#000000;stroke-width:0.8;" x="100.002672" xlink:href="#m0bc7a51ab2" y="253.588423"/>
      </g>
     </g>
     <g id="text_5">
      <!-- $\mathdefault{0.0}$ -->
      <g transform="translate(73.05915 259.123217)scale(0.16 -0.16)">
       <defs>
        <path d="M 18.40625 4.796875 
C 18.40625 7.6875 16 9.671875 13.59375 9.671875 
C 10.703125 9.671875 8.703125 7.28125 8.703125 4.890625 
C 8.703125 2 11.09375 0 13.5 0 
C 16.40625 0 18.40625 2.390625 18.40625 4.796875 
z
" id="CMMI12-58"/>
       </defs>
       <use transform="scale(0.996264)" xlink:href="#CMR17-48"/>
       <use transform="translate(45.690477 0)scale(0.996264)" xlink:href="#CMMI12-58"/>
       <use transform="translate(72.787654 0)scale(0.996264)" xlink:href="#CMR17-48"/>
      </g>
     </g>
    </g>
    <g id="ytick_2">
     <g id="line2d_6">
      <g>
       <use style="stroke:#000000;stroke-width:0.8;" x="100.002672" xlink:href="#m0bc7a51ab2" y="214.912175"/>
      </g>
     </g>
     <g id="text_6">
      <!-- $\mathdefault{2.5}$ -->
      <g transform="translate(73.05915 220.446969)scale(0.16 -0.16)">
       <defs>
        <path d="M 11.40625 57.6875 
C 12.40625 57.28125 16.5 56 20.703125 56 
C 30 56 35.09375 61.109375 38 64.0625 
C 38 64.953125 38 65.5 37.40625 65.5 
C 37.296875 65.5 37.09375 65.5 36.296875 65.046875 
C 32.796875 63.40625 28.703125 62.078125 23.703125 62.078125 
C 20.703125 62.078125 16.203125 62.484375 11.296875 64.671875 
C 10.203125 65.171875 10 65.171875 9.90625 65.171875 
C 9.40625 65.171875 9.296875 65.0625 9.296875 63.078125 
L 9.296875 34.421875 
C 9.296875 32.640625 9.296875 32.140625 10.296875 32.140625 
C 10.796875 32.140625 11 32.34375 11.5 33.03125 
C 14.703125 37.515625 19.09375 39.40625 24.09375 39.40625 
C 27.59375 39.40625 35.09375 37.21875 35.09375 20.140625 
C 35.09375 16.953125 35.09375 11.171875 32.09375 6.578125 
C 29.59375 2.484375 25.703125 0.390625 21.40625 0.390625 
C 14.796875 0.390625 8.09375 5 6.296875 12.71875 
C 6.703125 12.609375 7.5 12.421875 7.90625 12.421875 
C 9.203125 12.421875 11.703125 13.125 11.703125 16.21875 
C 11.703125 18.90625 9.796875 20 7.90625 20 
C 5.59375 20 4.09375 18.59375 4.09375 15.796875 
C 4.09375 7.09375 11 -2 21.59375 -2 
C 31.90625 -2 41.703125 6.875 41.703125 19.75 
C 41.703125 31.71875 33.90625 41 24.203125 41 
C 19.09375 41 14.796875 39.109375 11.40625 35.53125 
z
" id="CMR17-53"/>
       </defs>
       <use transform="scale(0.996264)" xlink:href="#CMR17-50"/>
       <use transform="translate(45.690477 0)scale(0.996264)" xlink:href="#CMMI12-58"/>
       <use transform="translate(72.787654 0)scale(0.996264)" xlink:href="#CMR17-53"/>
      </g>
     </g>
    </g>
    <g id="ytick_3">
     <g id="line2d_7">
      <g>
       <use style="stroke:#000000;stroke-width:0.8;" x="100.002672" xlink:href="#m0bc7a51ab2" y="176.235926"/>
      </g>
     </g>
     <g id="text_7">
      <!-- $\mathdefault{5.0}$ -->
      <g transform="translate(73.05915 181.77072)scale(0.16 -0.16)">
       <use transform="scale(0.996264)" xlink:href="#CMR17-53"/>
       <use transform="translate(45.690477 0)scale(0.996264)" xlink:href="#CMMI12-58"/>
       <use transform="translate(72.787654 0)scale(0.996264)" xlink:href="#CMR17-48"/>
      </g>
     </g>
    </g>
    <g id="ytick_4">
     <g id="line2d_8">
      <g>
       <use style="stroke:#000000;stroke-width:0.8;" x="100.002672" xlink:href="#m0bc7a51ab2" y="137.559678"/>
      </g>
     </g>
     <g id="text_8">
      <!-- $\mathdefault{7.5}$ -->
      <g transform="translate(73.05915 143.094472)scale(0.16 -0.16)">
       <defs>
        <path d="M 45.09375 61.578125 
L 45.09375 63.765625 
L 21.59375 63.765625 
C 9.90625 63.765625 9.703125 65.078125 9.296875 67 
L 7.5 67 
L 4.59375 48.34375 
L 6.40625 48.34375 
C 6.703125 50.234375 7.40625 55.3125 8.59375 57.203125 
C 9.203125 58 16.59375 58 18.296875 58 
L 40.296875 58 
L 29.203125 41.578125 
C 21.796875 30.53125 16.703125 15.609375 16.703125 2.578125 
C 16.703125 1.390625 16.703125 -2 20.296875 -2 
C 23.90625 -2 23.90625 1.390625 23.90625 2.671875 
L 23.90625 7.265625 
C 23.90625 23.5625 26.703125 34.3125 31.296875 41.1875 
z
" id="CMR17-55"/>
       </defs>
       <use transform="scale(0.996264)" xlink:href="#CMR17-55"/>
       <use transform="translate(45.690477 0)scale(0.996264)" xlink:href="#CMMI12-58"/>
       <use transform="translate(72.787654 0)scale(0.996264)" xlink:href="#CMR17-53"/>
      </g>
     </g>
    </g>
    <g id="ytick_5">
     <g id="line2d_9">
      <g>
       <use style="stroke:#000000;stroke-width:0.8;" x="100.002672" xlink:href="#m0bc7a51ab2" y="98.883429"/>
      </g>
     </g>
     <g id="text_9">
      <!-- $\mathdefault{10.0}$ -->
      <g transform="translate(65.255163 104.418223)scale(0.16 -0.16)">
       <use transform="scale(0.996264)" xlink:href="#CMR17-49"/>
       <use transform="translate(45.690477 0)scale(0.996264)" xlink:href="#CMR17-48"/>
       <use transform="translate(91.380954 0)scale(0.996264)" xlink:href="#CMMI12-58"/>
       <use transform="translate(118.478131 0)scale(0.996264)" xlink:href="#CMR17-48"/>
      </g>
     </g>
    </g>
    <g id="text_10">
     <!-- Real -->
     <g transform="translate(56.604405 184.258418)rotate(-90)scale(0.24 -0.24)">
      <defs>
       <path d="M 39.203125 33.53125 
C 48.703125 35.4375 56.703125 41.8125 56.703125 49.78125 
C 56.703125 59.140625 46.09375 67.59375 32.09375 67.59375 
L 5.203125 67.59375 
L 5.203125 65 
C 12.09375 65 13.203125 65 13.203125 60.515625 
L 13.203125 6.484375 
C 13.203125 2 12.09375 2 5.203125 2 
L 5.203125 -0.40625 
C 8.09375 -0.40625 13.296875 -0.40625 16.40625 -0.40625 
C 19.5 -0.40625 24.703125 -0.40625 27.59375 -0.40625 
L 27.59375 2 
C 20.703125 2 19.59375 2 19.59375 6.515625 
L 19.59375 33 
L 31.296875 33 
C 37 33 40.203125 30.6875 41.59375 29.390625 
C 45.59375 25.5 45.59375 22.796875 45.59375 16 
C 45.59375 9.296875 45.59375 5.890625 48.59375 2.5 
C 52.40625 -1.59375 57.5 -2 59.703125 -2 
C 67.09375 -2 68.203125 6.1875 68.203125 7.859375 
C 68.203125 8.4375 68.203125 9.140625 67.296875 9.140625 
C 66.5 9.140625 66.40625 8.546875 66.40625 8.15625 
C 65.90625 1.75 63 -0.40625 59.90625 -0.40625 
C 54.40625 -0.40625 53.796875 5.859375 53.203125 11.9375 
C 52.90625 14.03125 52.703125 15.515625 52.5 17.703125 
C 51.90625 22.6875 51.09375 29.953125 39.203125 33.53125 
z
M 31 34.59375 
L 19.59375 34.59375 
L 19.59375 61.140625 
C 19.59375 64.515625 19.796875 65 23.796875 65 
L 31.09375 65 
C 39.40625 65 49.09375 62.140625 49.09375 49.84375 
C 49.09375 37.0625 38.5 34.59375 31 34.59375 
z
" id="CMR17-82"/>
       <path d="M 38.09375 23 
C 38.5 23.40625 38.5 23.609375 38.5 24.625 
C 38.5 34.96875 33.09375 44 21.703125 44 
C 11.09375 44 2.703125 33.890625 2.703125 21.609375 
C 2.703125 8.609375 12.203125 -1 22.796875 -1 
C 34 -1 38.40625 9.484375 38.40625 11.5625 
C 38.40625 12.25 37.796875 12.25 37.59375 12.25 
C 36.90625 12.25 36.796875 12.046875 36.40625 10.875 
C 34.203125 4.140625 28.703125 0.796875 23.5 0.796875 
C 19.203125 0.796875 14.90625 3.171875 12.203125 7.5 
C 9.09375 12.546875 9.09375 18.375 9.09375 23 
z
M 9.203125 24.5 
C 9.90625 39.140625 17.59375 42.40625 21.59375 42.40625 
C 28.40625 42.40625 33 35.890625 33.09375 24.5 
z
" id="CMR17-101"/>
       <path d="M 36 25.828125 
C 36 32.375 36 35.84375 31.796875 39.734375 
C 28.09375 43 23.796875 44 20.40625 44 
C 12.5 44 6.796875 37.609375 6.796875 30.796875 
C 6.796875 27 9.796875 27 10.40625 27 
C 11.703125 27 14 27.78125 14 30.53125 
C 14 33 12.09375 34.078125 10.40625 34.078125 
C 10 34.078125 9.5 33.96875 9.203125 33.875 
C 11.296875 40.5 16.703125 42.40625 20.203125 42.40625 
C 25.203125 42.40625 30.703125 37.953125 30.703125 29.453125 
L 30.703125 25 
C 24.796875 25 17.703125 24.203125 12.09375 21.203125 
C 5.796875 17.703125 4 12.703125 4 8.90625 
C 4 1.203125 13 -1 18.296875 -1 
C 23.796875 -1 28.90625 2.171875 31.09375 7.984375 
C 31.296875 3.640625 34.09375 -0.28125 38.5 -0.28125 
C 40.59375 -0.28125 45.90625 1.09375 45.90625 8.859375 
L 45.90625 14.375 
L 44.09375 14.375 
L 44.09375 8.78125 
C 44.09375 2.78125 41.40625 2 40.09375 2 
C 36 2 36 7.15625 36 11.53125 
z
M 30.703125 13.59375 
C 30.703125 4.953125 24.5 0.59375 19 0.59375 
C 14 0.59375 10.09375 4.296875 10.09375 8.90625 
C 10.09375 11.890625 11.40625 17.1875 17.203125 20.390625 
C 22 23.09375 27.5 23.5 30.703125 23.5 
z
" id="CMR17-97"/>
       <path d="M 15.296875 68.6875 
L 3.40625 67.59375 
L 3.40625 65 
C 9.296875 65 10.203125 64.40625 10.203125 59.640625 
L 10.203125 6.65625 
C 10.203125 2.875 9.796875 2.390625 3.40625 2.390625 
L 3.40625 -0.203125 
C 5.796875 0 10.203125 0 12.703125 0 
C 15.296875 0 19.703125 0 22.09375 -0.203125 
L 22.09375 2.390625 
C 15.703125 2.390625 15.296875 2.78125 15.296875 6.65625 
z
" id="CMR17-108"/>
      </defs>
      <use transform="scale(0.996264)" xlink:href="#CMR17-82"/>
      <use transform="translate(67.791102 0)scale(0.996264)" xlink:href="#CMR17-101"/>
      <use transform="translate(108.276762 0)scale(0.996264)" xlink:href="#CMR17-97"/>
      <use transform="translate(153.96724 0)scale(0.996264)" xlink:href="#CMR17-108"/>
     </g>
    </g>
   </g>
   <g id="LineCollection_1">
    <path clip-path="url(#pdf98505fed)" d="M 111.119434 74.370857 
L 111.119434 72.900917 
" style="fill:none;stroke:#ff0000;stroke-width:2;"/>
    <path clip-path="url(#pdf98505fed)" d="M 118.291539 198.30676 
L 118.291539 197.026715 
" style="fill:none;stroke:#ff0000;stroke-width:2;"/>
    <path clip-path="url(#pdf98505fed)" d="M 125.463644 217.334 
L 125.463644 216.388855 
" style="fill:none;stroke:#ff0000;stroke-width:2;"/>
    <path clip-path="url(#pdf98505fed)" d="M 132.635749 228.263007 
L 132.635749 227.480457 
" style="fill:none;stroke:#ff0000;stroke-width:2;"/>
    <path clip-path="url(#pdf98505fed)" d="M 139.807853 235.048522 
L 139.807853 234.349973 
" style="fill:none;stroke:#ff0000;stroke-width:2;"/>
    <path clip-path="url(#pdf98505fed)" d="M 146.979958 240.079915 
L 146.979958 239.438658 
" style="fill:none;stroke:#ff0000;stroke-width:2;"/>
    <path clip-path="url(#pdf98505fed)" d="M 154.152063 243.530225 
L 154.152063 242.992527 
" style="fill:none;stroke:#ff0000;stroke-width:2;"/>
    <path clip-path="url(#pdf98505fed)" d="M 161.324168 246.051834 
L 161.324168 245.653852 
" style="fill:none;stroke:#ff0000;stroke-width:2;"/>
    <path clip-path="url(#pdf98505fed)" d="M 168.496272 248.070466 
L 168.496272 247.751024 
" style="fill:none;stroke:#ff0000;stroke-width:2;"/>
    <path clip-path="url(#pdf98505fed)" d="M 175.668377 249.42753 
L 175.668377 249.170482 
" style="fill:none;stroke:#ff0000;stroke-width:2;"/>
    <path clip-path="url(#pdf98505fed)" d="M 182.840482 250.483218 
L 182.840482 250.285023 
" style="fill:none;stroke:#ff0000;stroke-width:2;"/>
    <path clip-path="url(#pdf98505fed)" d="M 190.012587 251.277378 
L 190.012587 251.113709 
" style="fill:none;stroke:#ff0000;stroke-width:2;"/>
    <path clip-path="url(#pdf98505fed)" d="M 197.184691 251.819632 
L 197.184691 251.682686 
" style="fill:none;stroke:#ff0000;stroke-width:2;"/>
    <path clip-path="url(#pdf98505fed)" d="M 204.356796 252.259835 
L 204.356796 252.164303 
" style="fill:none;stroke:#ff0000;stroke-width:2;"/>
    <path clip-path="url(#pdf98505fed)" d="M 211.528901 252.494175 
L 211.528901 252.416902 
" style="fill:none;stroke:#ff0000;stroke-width:2;"/>
    <path clip-path="url(#pdf98505fed)" d="M 218.701006 252.641946 
L 218.701006 252.568088 
" style="fill:none;stroke:#ff0000;stroke-width:2;"/>
    <path clip-path="url(#pdf98505fed)" d="M 225.87311 252.694735 
L 225.87311 252.631968 
" style="fill:none;stroke:#ff0000;stroke-width:2;"/>
    <path clip-path="url(#pdf98505fed)" d="M 233.045215 252.665132 
L 233.045215 252.602198 
" style="fill:none;stroke:#ff0000;stroke-width:2;"/>
    <path clip-path="url(#pdf98505fed)" d="M 240.21732 252.4761 
L 240.21732 252.410611 
" style="fill:none;stroke:#ff0000;stroke-width:2;"/>
    <path clip-path="url(#pdf98505fed)" d="M 247.389425 252.161176 
L 247.389425 252.071085 
" style="fill:none;stroke:#ff0000;stroke-width:2;"/>
    <path clip-path="url(#pdf98505fed)" d="M 254.56153 251.693006 
L 254.56153 251.570086 
" style="fill:none;stroke:#ff0000;stroke-width:2;"/>
    <path clip-path="url(#pdf98505fed)" d="M 261.733634 251.049118 
L 261.733634 250.901015 
" style="fill:none;stroke:#ff0000;stroke-width:2;"/>
    <path clip-path="url(#pdf98505fed)" d="M 268.905739 250.174605 
L 268.905739 249.946871 
" style="fill:none;stroke:#ff0000;stroke-width:2;"/>
    <path clip-path="url(#pdf98505fed)" d="M 276.077844 249.022006 
L 276.077844 248.739431 
" style="fill:none;stroke:#ff0000;stroke-width:2;"/>
    <path clip-path="url(#pdf98505fed)" d="M 283.249949 247.488683 
L 283.249949 247.161271 
" style="fill:none;stroke:#ff0000;stroke-width:2;"/>
    <path clip-path="url(#pdf98505fed)" d="M 290.422053 245.54902 
L 290.422053 245.088676 
" style="fill:none;stroke:#ff0000;stroke-width:2;"/>
    <path clip-path="url(#pdf98505fed)" d="M 297.594158 242.93674 
L 297.594158 242.355429 
" style="fill:none;stroke:#ff0000;stroke-width:2;"/>
    <path clip-path="url(#pdf98505fed)" d="M 304.766263 239.183086 
L 304.766263 238.550609 
" style="fill:none;stroke:#ff0000;stroke-width:2;"/>
    <path clip-path="url(#pdf98505fed)" d="M 311.938368 234.038267 
L 311.938368 233.326303 
" style="fill:none;stroke:#ff0000;stroke-width:2;"/>
    <path clip-path="url(#pdf98505fed)" d="M 319.110472 227.349291 
L 319.110472 226.281851 
" style="fill:none;stroke:#ff0000;stroke-width:2;"/>
    <path clip-path="url(#pdf98505fed)" d="M 326.282577 216.967513 
L 326.282577 216.003801 
" style="fill:none;stroke:#ff0000;stroke-width:2;"/>
    <path clip-path="url(#pdf98505fed)" d="M 333.454682 198.99261 
L 333.454682 197.727626 
" style="fill:none;stroke:#ff0000;stroke-width:2;"/>
   </g>
   <g id="line2d_10">
    <path clip-path="url(#pdf98505fed)" d="M 111.119434 73.635887 
L 118.291539 197.666738 
L 125.463644 216.861428 
L 132.635749 227.871732 
L 139.807853 234.699248 
L 146.979958 239.759286 
L 154.152063 243.261376 
L 161.324168 245.852843 
L 168.496272 247.910745 
L 175.668377 249.299006 
L 182.840482 250.38412 
L 190.012587 251.195543 
L 197.184691 251.751159 
L 204.356796 252.212069 
L 211.528901 252.455538 
L 218.701006 252.605017 
L 225.87311 252.663352 
L 233.045215 252.633665 
L 240.21732 252.443355 
L 247.389425 252.116131 
L 254.56153 251.631546 
L 261.733634 250.975066 
L 268.905739 250.060738 
L 276.077844 248.880718 
L 283.249949 247.324977 
L 290.422053 245.318848 
L 297.594158 242.646084 
L 304.766263 238.866848 
L 311.938368 233.682285 
L 319.110472 226.815571 
L 326.282577 216.485657 
L 333.454682 198.360118 
" style="fill:none;stroke:#000000;stroke-linecap:square;stroke-width:2;"/>
   </g>
   <g id="patch_3">
    <path d="M 100.002672 261.684426 
L 100.002672 63.911226 
" style="fill:none;stroke:#000000;stroke-linecap:square;stroke-linejoin:miter;stroke-width:0.8;"/>
   </g>
   <g id="patch_4">
    <path d="M 344.571444 261.684426 
L 344.571444 63.911226 
" style="fill:none;stroke:#000000;stroke-linecap:square;stroke-linejoin:miter;stroke-width:0.8;"/>
   </g>
   <g id="patch_5">
    <path d="M 100.002672 261.684426 
L 344.571444 261.684426 
" style="fill:none;stroke:#000000;stroke-linecap:square;stroke-linejoin:miter;stroke-width:0.8;"/>
   </g>
   <g id="patch_6">
    <path d="M 100.002672 63.911226 
L 344.571444 63.911226 
" style="fill:none;stroke:#000000;stroke-linecap:square;stroke-linejoin:miter;stroke-width:0.8;"/>
   </g>
   <g id="text_11">
    <!-- $C(t)$ -->
    <g transform="translate(200.358905 57.911226)scale(0.24 -0.24)">
     <defs>
      <path d="M 74.703125 69.109375 
C 74.703125 70 74 70 73.796875 70 
C 73.59375 70 73.203125 70 72.40625 69 
L 65.5 60.65625 
C 62 66.625 56.5 70 49 70 
C 27.40625 70 5 48.25 5 24.921875 
C 5 8.328125 16.703125 -2 31.296875 -2 
C 39.296875 -2 46.296875 1.375 52.09375 6.25 
C 60.796875 13.484375 63.40625 23.140625 63.40625 23.921875 
C 63.40625 24.8125 62.59375 24.8125 62.296875 24.8125 
C 61.40625 24.8125 61.296875 24.21875 61.09375 23.8125 
C 56.5 8.34375 43 0.890625 33 0.890625 
C 22.40625 0.890625 13.203125 7.640625 13.203125 21.734375 
C 13.203125 24.921875 14.203125 42.1875 25.5 55.1875 
C 31 61.546875 40.40625 67.109375 49.90625 67.109375 
C 60.90625 67.109375 65.796875 58.078125 65.796875 47.9375 
C 65.796875 45.359375 65.5 43.1875 65.5 42.78125 
C 65.5 41.890625 66.5 41.890625 66.796875 41.890625 
C 67.90625 41.890625 68 41.984375 68.40625 43.765625 
z
" id="CMMI12-67"/>
      <path d="M 30.59375 -24.390625 
C 30.59375 -24.296875 30.59375 -24.09375 30.296875 -23.796875 
C 25.703125 -19.125 13.40625 -6.359375 13.40625 24.703125 
C 13.40625 55.765625 25.5 68.421875 30.40625 73.390625 
C 30.40625 73.5 30.59375 73.703125 30.59375 74 
C 30.59375 74.296875 30.296875 74.5 29.90625 74.5 
C 28.796875 74.5 20.296875 67.125 15.40625 56.15625 
C 10.40625 45.109375 9 34.359375 9 24.8125 
C 9 17.625 9.703125 5.484375 15.703125 -7.359375 
C 20.5 -17.734375 28.703125 -25 29.90625 -25 
C 30.40625 -25 30.59375 -24.796875 30.59375 -24.390625 
z
" id="CMR17-40"/>
      <path d="M 20.09375 40.09375 
L 29.296875 40.09375 
C 31.203125 40.09375 32.203125 40.09375 32.203125 41.890625 
C 32.203125 43 31.59375 43 29.59375 43 
L 20.796875 43 
L 24.5 57.6875 
C 24.90625 59.078125 24.90625 59.28125 24.90625 60 
C 24.90625 61.609375 23.59375 62.5 22.296875 62.5 
C 21.5 62.5 19.203125 62.203125 18.40625 58.984375 
L 14.5 43 
L 5.09375 43 
C 3.09375 43 2.203125 43 2.203125 41.09375 
C 2.203125 40.09375 2.90625 40.09375 4.796875 40.09375 
L 13.703125 40.09375 
L 7.09375 13.765625 
C 6.296875 10.28125 6 9.28125 6 7.984375 
C 6 3.296875 9.296875 -1 14.90625 -1 
C 25 -1 30.40625 13.5625 30.40625 14.25 
C 30.40625 14.859375 30 15.15625 29.40625 15.15625 
C 29.203125 15.15625 28.796875 15.15625 28.59375 14.75 
C 28.5 14.65625 28.40625 14.546875 27.703125 12.953125 
C 25.59375 7.984375 21 1 15.203125 1 
C 12.203125 1 12 3.5 12 5.6875 
C 12 5.78125 12 7.6875 12.296875 8.875 
z
" id="CMMI12-116"/>
      <path d="M 26.296875 24.703125 
C 26.296875 31.875 25.59375 44.015625 19.59375 56.859375 
C 14.796875 67.234375 6.59375 74.5 5.40625 74.5 
C 5.09375 74.5 4.703125 74.390625 4.703125 73.890625 
C 4.703125 73.703125 4.796875 73.59375 4.90625 73.390625 
C 9.703125 68.40625 21.90625 55.75 21.90625 24.75 
C 21.90625 -6.359375 9.796875 -19.015625 4.90625 -24.015625 
C 4.796875 -24.203125 4.703125 -24.3125 4.703125 -24.5 
C 4.703125 -25 5.09375 -25 5.40625 -25 
C 6.5 -25 15 -17.625 19.90625 -6.65625 
C 24.90625 4.390625 26.296875 15.140625 26.296875 24.703125 
z
" id="CMR17-41"/>
     </defs>
     <use transform="scale(0.996264)" xlink:href="#CMMI12-67"/>
     <use transform="translate(76.946847 0)scale(0.996264)" xlink:href="#CMR17-40"/>
     <use transform="translate(112.227614 0)scale(0.996264)" xlink:href="#CMMI12-116"/>
     <use transform="translate(147.453945 0)scale(0.996264)" xlink:href="#CMR17-41"/>
    </g>
   </g>
  </g>
  <g id="axes_2">
   <g id="patch_7">
    <path d="M 411.71695 261.684426 
L 656.285722 261.684426 
L 656.285722 63.911226 
L 411.71695 63.911226 
z
" style="fill:#ffffff;"/>
   </g>
   <g id="matplotlib.axis_3">
    <g id="xtick_5">
     <g id="line2d_11">
      <g>
       <use style="stroke:#000000;stroke-width:0.8;" x="422.833712" xlink:href="#m5c5517bdf9" y="261.684426"/>
      </g>
     </g>
     <g id="text_12">
      <!-- $\mathdefault{0}$ -->
      <g transform="translate(418.931719 279.754014)scale(0.16 -0.16)">
       <use transform="scale(0.996264)" xlink:href="#CMR17-48"/>
      </g>
     </g>
    </g>
    <g id="xtick_6">
     <g id="line2d_12">
      <g>
       <use style="stroke:#000000;stroke-width:0.8;" x="492.313477" xlink:href="#m5c5517bdf9" y="261.684426"/>
      </g>
     </g>
     <g id="text_13">
      <!-- $\mathdefault{5}$ -->
      <g transform="translate(488.411483 279.754014)scale(0.16 -0.16)">
       <use transform="scale(0.996264)" xlink:href="#CMR17-53"/>
      </g>
     </g>
    </g>
    <g id="xtick_7">
     <g id="line2d_13">
      <g>
       <use style="stroke:#000000;stroke-width:0.8;" x="561.793242" xlink:href="#m5c5517bdf9" y="261.684426"/>
      </g>
     </g>
     <g id="text_14">
      <!-- $\mathdefault{10}$ -->
      <g transform="translate(553.989255 279.754014)scale(0.16 -0.16)">
       <use transform="scale(0.996264)" xlink:href="#CMR17-49"/>
       <use transform="translate(45.690477 0)scale(0.996264)" xlink:href="#CMR17-48"/>
      </g>
     </g>
    </g>
    <g id="xtick_8">
     <g id="line2d_14">
      <g>
       <use style="stroke:#000000;stroke-width:0.8;" x="631.273007" xlink:href="#m5c5517bdf9" y="261.684426"/>
      </g>
     </g>
     <g id="text_15">
      <!-- $\mathdefault{15}$ -->
      <g transform="translate(623.46902 279.754014)scale(0.16 -0.16)">
       <use transform="scale(0.996264)" xlink:href="#CMR17-49"/>
       <use transform="translate(45.690477 0)scale(0.996264)" xlink:href="#CMR17-53"/>
      </g>
     </g>
    </g>
   </g>
   <g id="matplotlib.axis_4">
    <g id="ytick_6">
     <g id="line2d_15">
      <g>
       <use style="stroke:#000000;stroke-width:0.8;" x="411.71695" xlink:href="#m0bc7a51ab2" y="253.588423"/>
      </g>
     </g>
     <g id="text_16">
      <!-- $\mathdefault{0.0}$ -->
      <g transform="translate(384.773427 259.123217)scale(0.16 -0.16)">
       <use transform="scale(0.996264)" xlink:href="#CMR17-48"/>
       <use transform="translate(45.690477 0)scale(0.996264)" xlink:href="#CMMI12-58"/>
       <use transform="translate(72.787654 0)scale(0.996264)" xlink:href="#CMR17-48"/>
      </g>
     </g>
    </g>
    <g id="ytick_7">
     <g id="line2d_16">
      <g>
       <use style="stroke:#000000;stroke-width:0.8;" x="411.71695" xlink:href="#m0bc7a51ab2" y="214.912175"/>
      </g>
     </g>
     <g id="text_17">
      <!-- $\mathdefault{2.5}$ -->
      <g transform="translate(384.773427 220.446969)scale(0.16 -0.16)">
       <use transform="scale(0.996264)" xlink:href="#CMR17-50"/>
       <use transform="translate(45.690477 0)scale(0.996264)" xlink:href="#CMMI12-58"/>
       <use transform="translate(72.787654 0)scale(0.996264)" xlink:href="#CMR17-53"/>
      </g>
     </g>
    </g>
    <g id="ytick_8">
     <g id="line2d_17">
      <g>
       <use style="stroke:#000000;stroke-width:0.8;" x="411.71695" xlink:href="#m0bc7a51ab2" y="176.235926"/>
      </g>
     </g>
     <g id="text_18">
      <!-- $\mathdefault{5.0}$ -->
      <g transform="translate(384.773427 181.77072)scale(0.16 -0.16)">
       <use transform="scale(0.996264)" xlink:href="#CMR17-53"/>
       <use transform="translate(45.690477 0)scale(0.996264)" xlink:href="#CMMI12-58"/>
       <use transform="translate(72.787654 0)scale(0.996264)" xlink:href="#CMR17-48"/>
      </g>
     </g>
    </g>
    <g id="ytick_9">
     <g id="line2d_18">
      <g>
       <use style="stroke:#000000;stroke-width:0.8;" x="411.71695" xlink:href="#m0bc7a51ab2" y="137.559678"/>
      </g>
     </g>
     <g id="text_19">
      <!-- $\mathdefault{7.5}$ -->
      <g transform="translate(384.773427 143.094472)scale(0.16 -0.16)">
       <use transform="scale(0.996264)" xlink:href="#CMR17-55"/>
       <use transform="translate(45.690477 0)scale(0.996264)" xlink:href="#CMMI12-58"/>
       <use transform="translate(72.787654 0)scale(0.996264)" xlink:href="#CMR17-53"/>
      </g>
     </g>
    </g>
    <g id="ytick_10">
     <g id="line2d_19">
      <g>
       <use style="stroke:#000000;stroke-width:0.8;" x="411.71695" xlink:href="#m0bc7a51ab2" y="98.883429"/>
      </g>
     </g>
     <g id="text_20">
      <!-- $\mathdefault{10.0}$ -->
      <g transform="translate(376.96944 104.418223)scale(0.16 -0.16)">
       <use transform="scale(0.996264)" xlink:href="#CMR17-49"/>
       <use transform="translate(45.690477 0)scale(0.996264)" xlink:href="#CMR17-48"/>
       <use transform="translate(91.380954 0)scale(0.996264)" xlink:href="#CMMI12-58"/>
       <use transform="translate(118.478131 0)scale(0.996264)" xlink:href="#CMR17-48"/>
      </g>
     </g>
    </g>
   </g>
   <g id="LineCollection_2">
    <path clip-path="url(#p2fbeb54462)" d="M 422.833712 74.370857 
L 422.833712 72.900917 
" style="fill:none;stroke:#ff0000;stroke-width:2;"/>
    <path clip-path="url(#p2fbeb54462)" d="M 436.729665 198.42441 
L 436.729665 197.602446 
" style="fill:none;stroke:#ff0000;stroke-width:2;"/>
    <path clip-path="url(#p2fbeb54462)" d="M 450.625618 217.01605 
L 450.625618 216.331035 
" style="fill:none;stroke:#ff0000;stroke-width:2;"/>
    <path clip-path="url(#p2fbeb54462)" d="M 464.521571 227.684046 
L 464.521571 227.003257 
" style="fill:none;stroke:#ff0000;stroke-width:2;"/>
    <path clip-path="url(#p2fbeb54462)" d="M 478.417524 234.43054 
L 478.417524 233.950993 
" style="fill:none;stroke:#ff0000;stroke-width:2;"/>
    <path clip-path="url(#p2fbeb54462)" d="M 492.313477 239.530254 
L 492.313477 239.09588 
" style="fill:none;stroke:#ff0000;stroke-width:2;"/>
    <path clip-path="url(#p2fbeb54462)" d="M 506.20943 243.157562 
L 506.20943 242.749898 
" style="fill:none;stroke:#ff0000;stroke-width:2;"/>
    <path clip-path="url(#p2fbeb54462)" d="M 520.105383 245.745859 
L 520.105383 245.425832 
" style="fill:none;stroke:#ff0000;stroke-width:2;"/>
    <path clip-path="url(#p2fbeb54462)" d="M 534.001336 247.734925 
L 534.001336 247.500797 
" style="fill:none;stroke:#ff0000;stroke-width:2;"/>
    <path clip-path="url(#p2fbeb54462)" d="M 547.897289 249.187741 
L 547.897289 248.991983 
" style="fill:none;stroke:#ff0000;stroke-width:2;"/>
    <path clip-path="url(#p2fbeb54462)" d="M 561.793242 250.298546 
L 561.793242 250.146313 
" style="fill:none;stroke:#ff0000;stroke-width:2;"/>
    <path clip-path="url(#p2fbeb54462)" d="M 575.689195 251.138763 
L 575.689195 251.031847 
" style="fill:none;stroke:#ff0000;stroke-width:2;"/>
    <path clip-path="url(#p2fbeb54462)" d="M 589.585148 251.739052 
L 589.585148 251.643653 
" style="fill:none;stroke:#ff0000;stroke-width:2;"/>
    <path clip-path="url(#p2fbeb54462)" d="M 603.481101 252.196336 
L 603.481101 252.131864 
" style="fill:none;stroke:#ff0000;stroke-width:2;"/>
    <path clip-path="url(#p2fbeb54462)" d="M 617.377054 252.475294 
L 617.377054 252.4236 
" style="fill:none;stroke:#ff0000;stroke-width:2;"/>
    <path clip-path="url(#p2fbeb54462)" d="M 631.273007 252.64446 
L 631.273007 252.594222 
" style="fill:none;stroke:#ff0000;stroke-width:2;"/>
    <path clip-path="url(#p2fbeb54462)" d="M 645.16896 252.694735 
L 645.16896 252.631968 
" style="fill:none;stroke:#ff0000;stroke-width:2;"/>
   </g>
   <g id="line2d_20">
    <path clip-path="url(#p2fbeb54462)" d="M 422.833712 73.635887 
L 436.729665 198.013428 
L 450.625618 216.673542 
L 464.521571 227.343652 
L 478.417524 234.190767 
L 492.313477 239.313067 
L 506.20943 242.95373 
L 520.105383 245.585846 
L 534.001336 247.617861 
L 547.897289 249.089862 
L 561.793242 250.222429 
L 575.689195 251.085305 
L 589.585148 251.691353 
L 603.481101 252.1641 
L 617.377054 252.449447 
L 631.273007 252.619341 
L 645.16896 252.663352 
" style="fill:none;stroke:#000000;stroke-linecap:square;stroke-width:2;"/>
   </g>
   <g id="patch_8">
    <path d="M 411.71695 261.684426 
L 411.71695 63.911226 
" style="fill:none;stroke:#000000;stroke-linecap:square;stroke-linejoin:miter;stroke-width:0.8;"/>
   </g>
   <g id="patch_9">
    <path d="M 656.285722 261.684426 
L 656.285722 63.911226 
" style="fill:none;stroke:#000000;stroke-linecap:square;stroke-linejoin:miter;stroke-width:0.8;"/>
   </g>
   <g id="patch_10">
    <path d="M 411.71695 261.684426 
L 656.285722 261.684426 
" style="fill:none;stroke:#000000;stroke-linecap:square;stroke-linejoin:miter;stroke-width:0.8;"/>
   </g>
   <g id="patch_11">
    <path d="M 411.71695 63.911226 
L 656.285722 63.911226 
" style="fill:none;stroke:#000000;stroke-linecap:square;stroke-linejoin:miter;stroke-width:0.8;"/>
   </g>
   <g id="text_21">
    <!-- Folded $C(t)$ -->
    <g transform="translate(476.662326 57.911226)scale(0.24 -0.24)">
     <defs>
      <path d="M 54.40625 67.578125 
L 5.09375 67.578125 
L 5.09375 65 
C 12 65 13.09375 65 13.09375 60.53125 
L 13.09375 6.96875 
C 13.09375 2.5 12 2.5 5.09375 2.5 
L 5.09375 0 
C 8 0 13.59375 0 16.703125 0 
C 20.796875 0 25.59375 0 29.703125 0 
L 29.703125 2.5 
L 27.5 2.5 
C 19.90625 2.5 19.703125 3.484375 19.703125 7.0625 
L 19.703125 32.421875 
L 28.703125 32.421875 
C 38 32.421875 38.90625 29.140625 38.90625 20.8125 
L 40.703125 20.8125 
L 40.703125 46.671875 
L 38.90625 46.671875 
C 38.90625 38.28125 38 35 28.703125 35 
L 19.703125 35 
L 19.703125 61.109375 
C 19.703125 64.5 19.90625 65 23.90625 65 
L 36.796875 65 
C 51.90625 65 53.59375 58.828125 55 45.5625 
L 56.796875 45.5625 
z
" id="CMR17-70"/>
      <path d="M 43.09375 21.1875 
C 43.09375 34 33.796875 44 22.90625 44 
C 12 44 2.703125 34 2.703125 21.1875 
C 2.703125 8.609375 12 -1 22.90625 -1 
C 33.796875 -1 43.09375 8.609375 43.09375 21.1875 
z
M 22.90625 0.796875 
C 18.203125 0.796875 14.203125 3.59375 11.90625 7.5 
C 9.40625 11.984375 9.09375 17.59375 9.09375 22 
C 9.09375 26.203125 9.296875 31.40625 11.90625 35.90625 
C 13.90625 39.203125 17.796875 42.40625 22.90625 42.40625 
C 27.40625 42.40625 31.203125 39.90625 33.59375 36.40625 
C 36.703125 31.703125 36.703125 25.109375 36.703125 22 
C 36.703125 18.09375 36.5 12.109375 33.796875 7.296875 
C 31 2.703125 26.703125 0.796875 22.90625 0.796875 
z
" id="CMR17-111"/>
      <path d="M 29.203125 67.59375 
L 29.203125 65 
C 35.09375 65 36 64.40625 36 59.6875 
L 36 36.640625 
C 35.59375 37.140625 31.5 43.59375 23.40625 43.59375 
C 13.203125 43.59375 3.296875 34.5 3.296875 21.3125 
C 3.296875 8.203125 12.59375 -1 22.40625 -1 
C 30.90625 -1 35.296875 5.265625 35.796875 5.9375 
L 35.796875 -0.984375 
L 47.90625 -0.984375 
L 47.90625 2 
C 42 2 41.09375 2.59375 41.09375 7.390625 
L 41.09375 68.6875 
z
M 35.796875 11.796875 
C 35.796875 8.796875 34 6.09375 31.703125 4.09375 
C 28.296875 1.09375 24.90625 0.59375 23 0.59375 
C 20.09375 0.59375 9.703125 2.09375 9.703125 21.1875 
C 9.703125 40.8125 21.296875 42 23.90625 42 
C 28.5 42 32.203125 39.40625 34.5 35.796875 
C 35.796875 33.703125 35.796875 33.40625 35.796875 31.609375 
z
" id="CMR17-100"/>
     </defs>
     <use transform="scale(0.996264)" xlink:href="#CMR17-70"/>
     <use transform="translate(52.176591 0)scale(0.996264)" xlink:href="#CMR17-111"/>
     <use transform="translate(97.867068 0)scale(0.996264)" xlink:href="#CMR17-108"/>
     <use transform="translate(122.738127 0)scale(0.996264)" xlink:href="#CMR17-100"/>
     <use transform="translate(173.633497 0)scale(0.996264)" xlink:href="#CMR17-101"/>
     <use transform="translate(214.119157 0)scale(0.996264)" xlink:href="#CMR17-100"/>
     <use transform="translate(295.090493 0)scale(0.996264)" xlink:href="#CMMI12-67"/>
     <use transform="translate(372.03734 0)scale(0.996264)" xlink:href="#CMR17-40"/>
     <use transform="translate(407.318108 0)scale(0.996264)" xlink:href="#CMMI12-116"/>
     <use transform="translate(442.544438 0)scale(0.996264)" xlink:href="#CMR17-41"/>
    </g>
   </g>
  </g>
  <g id="axes_3">
   <g id="patch_12">
    <path d="M 723.431228 261.684426 
L 968 261.684426 
L 968 63.911226 
L 723.431228 63.911226 
z
" style="fill:#ffffff;"/>
   </g>
   <g id="matplotlib.axis_5">
    <g id="xtick_9">
     <g id="line2d_21">
      <g>
       <use style="stroke:#000000;stroke-width:0.8;" x="734.54799" xlink:href="#m5c5517bdf9" y="261.684426"/>
      </g>
     </g>
     <g id="text_22">
      <!-- $\mathdefault{0}$ -->
      <g transform="translate(730.645996 279.754014)scale(0.16 -0.16)">
       <use transform="scale(0.996264)" xlink:href="#CMR17-48"/>
      </g>
     </g>
    </g>
    <g id="xtick_10">
     <g id="line2d_22">
      <g>
       <use style="stroke:#000000;stroke-width:0.8;" x="804.027755" xlink:href="#m5c5517bdf9" y="261.684426"/>
      </g>
     </g>
     <g id="text_23">
      <!-- $\mathdefault{5}$ -->
      <g transform="translate(800.125761 279.754014)scale(0.16 -0.16)">
       <use transform="scale(0.996264)" xlink:href="#CMR17-53"/>
      </g>
     </g>
    </g>
    <g id="xtick_11">
     <g id="line2d_23">
      <g>
       <use style="stroke:#000000;stroke-width:0.8;" x="873.50752" xlink:href="#m5c5517bdf9" y="261.684426"/>
      </g>
     </g>
     <g id="text_24">
      <!-- $\mathdefault{10}$ -->
      <g transform="translate(865.703533 279.754014)scale(0.16 -0.16)">
       <use transform="scale(0.996264)" xlink:href="#CMR17-49"/>
       <use transform="translate(45.690477 0)scale(0.996264)" xlink:href="#CMR17-48"/>
      </g>
     </g>
    </g>
    <g id="xtick_12">
     <g id="line2d_24">
      <g>
       <use style="stroke:#000000;stroke-width:0.8;" x="942.987285" xlink:href="#m5c5517bdf9" y="261.684426"/>
      </g>
     </g>
     <g id="text_25">
      <!-- $\mathdefault{15}$ -->
      <g transform="translate(935.183298 279.754014)scale(0.16 -0.16)">
       <use transform="scale(0.996264)" xlink:href="#CMR17-49"/>
       <use transform="translate(45.690477 0)scale(0.996264)" xlink:href="#CMR17-53"/>
      </g>
     </g>
    </g>
   </g>
   <g id="matplotlib.axis_6">
    <g id="ytick_11">
     <g id="line2d_25">
      <g>
       <use style="stroke:#000000;stroke-width:0.8;" x="723.431228" xlink:href="#m0bc7a51ab2" y="261.146066"/>
      </g>
     </g>
     <g id="text_26">
      <!-- $\mathdefault{−0.06}$ -->
      <g transform="translate(676.285722 266.68086)scale(0.16 -0.16)">
       <defs>
        <path d="M 65.90625 23 
C 67.59375 23 69.40625 23 69.40625 25 
C 69.40625 27 67.59375 27 65.90625 27 
L 11.796875 27 
C 10.09375 27 8.296875 27 8.296875 25 
C 8.296875 23 10.09375 23 11.796875 23 
z
" id="CMSY10-0"/>
        <path d="M 10.59375 34 
C 10.59375 57.65625 21.796875 63 28.296875 63 
C 30.40625 63 35.5 62.640625 37.5 59 
C 35.90625 59 32.90625 59 32.90625 55.515625 
C 32.90625 52.828125 35.09375 51.921875 36.5 51.921875 
C 37.40625 51.921875 40.09375 52.3125 40.09375 55.625 
C 40.09375 61.78125 35.09375 65.296875 28.203125 65.296875 
C 16.296875 65.296875 3.796875 52.96875 3.796875 31 
C 3.796875 3.953125 15.09375 -2 23.09375 -2 
C 32.796875 -2 42 6.671875 42 20.046875 
C 42 32.515625 33.90625 41.59375 23.703125 41.59375 
C 17.59375 41.59375 13.09375 37.609375 10.59375 30.625 
z
M 23.09375 0.390625 
C 10.796875 0.390625 10.796875 18.75 10.796875 22.4375 
C 10.796875 29.625 14.203125 40 23.5 40 
C 25.203125 40 30.09375 40 33.40625 33.125 
C 35.203125 29.21875 35.203125 25.140625 35.203125 20.140625 
C 35.203125 14.75 35.203125 10.78125 33.09375 6.78125 
C 30.90625 2.671875 27.703125 0.390625 23.09375 0.390625 
z
" id="CMR17-54"/>
       </defs>
       <use transform="scale(0.996264)" xlink:href="#CMSY10-0"/>
       <use transform="translate(77.487468 0)scale(0.996264)" xlink:href="#CMR17-48"/>
       <use transform="translate(123.177945 0)scale(0.996264)" xlink:href="#CMMI12-58"/>
       <use transform="translate(150.275122 0)scale(0.996264)" xlink:href="#CMR17-48"/>
       <use transform="translate(195.965599 0)scale(0.996264)" xlink:href="#CMR17-54"/>
      </g>
     </g>
    </g>
    <g id="ytick_12">
     <g id="line2d_26">
      <g>
       <use style="stroke:#000000;stroke-width:0.8;" x="723.431228" xlink:href="#m0bc7a51ab2" y="228.064538"/>
      </g>
     </g>
     <g id="text_27">
      <!-- $\mathdefault{−0.04}$ -->
      <g transform="translate(676.285722 233.599332)scale(0.16 -0.16)">
       <defs>
        <path d="M 33.59375 64.40625 
C 33.59375 66.5 33.5 66.5 31.703125 66.5 
L 2 19.59375 
L 2 17 
L 27.796875 17 
L 27.796875 7.140625 
C 27.796875 3.5 27.59375 2.5 20.59375 2.5 
L 18.703125 2.5 
L 18.703125 0 
C 21.90625 0 27.296875 0 30.703125 0 
C 34.09375 0 39.5 0 42.703125 0 
L 42.703125 2.5 
L 40.796875 2.5 
C 33.796875 2.5 33.59375 3.5 33.59375 7.140625 
L 33.59375 17 
L 43.796875 17 
L 43.796875 19.59375 
L 33.59375 19.59375 
z
M 28.09375 57.859375 
L 28.09375 19.59375 
L 4 19.59375 
z
" id="CMR17-52"/>
       </defs>
       <use transform="scale(0.996264)" xlink:href="#CMSY10-0"/>
       <use transform="translate(77.487468 0)scale(0.996264)" xlink:href="#CMR17-48"/>
       <use transform="translate(123.177945 0)scale(0.996264)" xlink:href="#CMMI12-58"/>
       <use transform="translate(150.275122 0)scale(0.996264)" xlink:href="#CMR17-48"/>
       <use transform="translate(195.965599 0)scale(0.996264)" xlink:href="#CMR17-52"/>
      </g>
     </g>
    </g>
    <g id="ytick_13">
     <g id="line2d_27">
      <g>
       <use style="stroke:#000000;stroke-width:0.8;" x="723.431228" xlink:href="#m0bc7a51ab2" y="194.983009"/>
      </g>
     </g>
     <g id="text_28">
      <!-- $\mathdefault{−0.02}$ -->
      <g transform="translate(676.285722 200.517804)scale(0.16 -0.16)">
       <use transform="scale(0.996264)" xlink:href="#CMSY10-0"/>
       <use transform="translate(77.487468 0)scale(0.996264)" xlink:href="#CMR17-48"/>
       <use transform="translate(123.177945 0)scale(0.996264)" xlink:href="#CMMI12-58"/>
       <use transform="translate(150.275122 0)scale(0.996264)" xlink:href="#CMR17-48"/>
       <use transform="translate(195.965599 0)scale(0.996264)" xlink:href="#CMR17-50"/>
      </g>
     </g>
    </g>
    <g id="ytick_14">
     <g id="line2d_28">
      <g>
       <use style="stroke:#000000;stroke-width:0.8;" x="723.431228" xlink:href="#m0bc7a51ab2" y="161.901481"/>
      </g>
     </g>
     <g id="text_29">
      <!-- $\mathdefault{0.00}$ -->
      <g transform="translate(688.683718 167.436275)scale(0.16 -0.16)">
       <use transform="scale(0.996264)" xlink:href="#CMR17-48"/>
       <use transform="translate(45.690477 0)scale(0.996264)" xlink:href="#CMMI12-58"/>
       <use transform="translate(72.787654 0)scale(0.996264)" xlink:href="#CMR17-48"/>
       <use transform="translate(118.478131 0)scale(0.996264)" xlink:href="#CMR17-48"/>
      </g>
     </g>
    </g>
    <g id="ytick_15">
     <g id="line2d_29">
      <g>
       <use style="stroke:#000000;stroke-width:0.8;" x="723.431228" xlink:href="#m0bc7a51ab2" y="128.819953"/>
      </g>
     </g>
     <g id="text_30">
      <!-- $\mathdefault{0.02}$ -->
      <g transform="translate(688.683718 134.354747)scale(0.16 -0.16)">
       <use transform="scale(0.996264)" xlink:href="#CMR17-48"/>
       <use transform="translate(45.690477 0)scale(0.996264)" xlink:href="#CMMI12-58"/>
       <use transform="translate(72.787654 0)scale(0.996264)" xlink:href="#CMR17-48"/>
       <use transform="translate(118.478131 0)scale(0.996264)" xlink:href="#CMR17-50"/>
      </g>
     </g>
    </g>
    <g id="ytick_16">
     <g id="line2d_30">
      <g>
       <use style="stroke:#000000;stroke-width:0.8;" x="723.431228" xlink:href="#m0bc7a51ab2" y="95.738424"/>
      </g>
     </g>
     <g id="text_31">
      <!-- $\mathdefault{0.04}$ -->
      <g transform="translate(688.683718 101.273218)scale(0.16 -0.16)">
       <use transform="scale(0.996264)" xlink:href="#CMR17-48"/>
       <use transform="translate(45.690477 0)scale(0.996264)" xlink:href="#CMMI12-58"/>
       <use transform="translate(72.787654 0)scale(0.996264)" xlink:href="#CMR17-48"/>
       <use transform="translate(118.478131 0)scale(0.996264)" xlink:href="#CMR17-52"/>
      </g>
     </g>
    </g>
   </g>
   <g id="LineCollection_3">
    <path clip-path="url(#pcb721dfd6b)" d="M 734.54799 161.901481 
L 734.54799 161.901481 
" style="fill:none;stroke:#ff0000;stroke-width:2;"/>
    <path clip-path="url(#pcb721dfd6b)" d="M 748.443943 176.767127 
L 748.443943 72.900917 
" style="fill:none;stroke:#ff0000;stroke-width:2;"/>
    <path clip-path="url(#pcb721dfd6b)" d="M 762.339896 217.521983 
L 762.339896 146.457677 
" style="fill:none;stroke:#ff0000;stroke-width:2;"/>
    <path clip-path="url(#pcb721dfd6b)" d="M 776.235849 252.694735 
L 776.235849 184.030961 
" style="fill:none;stroke:#ff0000;stroke-width:2;"/>
    <path clip-path="url(#pcb721dfd6b)" d="M 790.131802 243.914824 
L 790.131802 188.619813 
" style="fill:none;stroke:#ff0000;stroke-width:2;"/>
    <path clip-path="url(#pcb721dfd6b)" d="M 804.027755 234.509768 
L 804.027755 184.711033 
" style="fill:none;stroke:#ff0000;stroke-width:2;"/>
    <path clip-path="url(#pcb721dfd6b)" d="M 817.923708 215.314017 
L 817.923708 174.274762 
" style="fill:none;stroke:#ff0000;stroke-width:2;"/>
    <path clip-path="url(#pcb721dfd6b)" d="M 831.819661 205.825217 
L 831.819661 175.071447 
" style="fill:none;stroke:#ff0000;stroke-width:2;"/>
    <path clip-path="url(#pcb721dfd6b)" d="M 845.715614 205.146481 
L 845.715614 181.285609 
" style="fill:none;stroke:#ff0000;stroke-width:2;"/>
    <path clip-path="url(#pcb721dfd6b)" d="M 859.611567 194.212434 
L 859.611567 174.313039 
" style="fill:none;stroke:#ff0000;stroke-width:2;"/>
    <path clip-path="url(#pcb721dfd6b)" d="M 873.50752 187.189621 
L 873.50752 171.188725 
" style="fill:none;stroke:#ff0000;stroke-width:2;"/>
    <path clip-path="url(#pcb721dfd6b)" d="M 887.403473 179.766824 
L 887.403473 167.609113 
" style="fill:none;stroke:#ff0000;stroke-width:2;"/>
    <path clip-path="url(#pcb721dfd6b)" d="M 901.299426 173.026587 
L 901.299426 163.565198 
" style="fill:none;stroke:#ff0000;stroke-width:2;"/>
    <path clip-path="url(#pcb721dfd6b)" d="M 915.195379 170.602295 
L 915.195379 163.458222 
" style="fill:none;stroke:#ff0000;stroke-width:2;"/>
    <path clip-path="url(#pcb721dfd6b)" d="M 929.091332 165.203004 
L 929.091332 159.902552 
" style="fill:none;stroke:#ff0000;stroke-width:2;"/>
    <path clip-path="url(#pcb721dfd6b)" d="M 942.987285 162.868234 
L 942.987285 157.871695 
" style="fill:none;stroke:#ff0000;stroke-width:2;"/>
    <path clip-path="url(#pcb721dfd6b)" d="M 956.883238 161.901481 
L 956.883238 161.901481 
" style="fill:none;stroke:#ff0000;stroke-width:2;"/>
   </g>
   <g id="line2d_31">
    <path clip-path="url(#pcb721dfd6b)" d="M 734.54799 161.901481 
L 748.443943 124.834022 
L 762.339896 181.98983 
L 776.235849 218.362848 
L 790.131802 216.267319 
L 804.027755 209.610401 
L 817.923708 194.79439 
L 831.819661 190.448332 
L 845.715614 193.216045 
L 859.611567 184.262736 
L 873.50752 179.189173 
L 887.403473 173.687969 
L 901.299426 168.295892 
L 915.195379 167.030258 
L 929.091332 162.552778 
L 942.987285 160.369965 
L 956.883238 161.901481 
" style="fill:none;stroke:#000000;stroke-linecap:square;stroke-width:2;"/>
   </g>
   <g id="patch_13">
    <path d="M 723.431228 261.684426 
L 723.431228 63.911226 
" style="fill:none;stroke:#000000;stroke-linecap:square;stroke-linejoin:miter;stroke-width:0.8;"/>
   </g>
   <g id="patch_14">
    <path d="M 968 261.684426 
L 968 63.911226 
" style="fill:none;stroke:#000000;stroke-linecap:square;stroke-linejoin:miter;stroke-width:0.8;"/>
   </g>
   <g id="patch_15">
    <path d="M 723.431228 261.684426 
L 968 261.684426 
" style="fill:none;stroke:#000000;stroke-linecap:square;stroke-linejoin:miter;stroke-width:0.8;"/>
   </g>
   <g id="patch_16">
    <path d="M 723.431228 63.911226 
L 968 63.911226 
" style="fill:none;stroke:#000000;stroke-linecap:square;stroke-linejoin:miter;stroke-width:0.8;"/>
   </g>
   <g id="text_32">
    <!-- $C(t)$ - Folded $C(t)$ -->
    <g transform="translate(755.621103 57.911226)scale(0.24 -0.24)">
     <defs>
      <path d="M 25.5 19 
L 25.5 23.375 
L 0.40625 23.375 
L 0.40625 19 
z
" id="CMR17-45"/>
     </defs>
     <use transform="scale(0.996264)" xlink:href="#CMMI12-67"/>
     <use transform="translate(76.946847 0)scale(0.996264)" xlink:href="#CMR17-40"/>
     <use transform="translate(112.227614 0)scale(0.996264)" xlink:href="#CMMI12-116"/>
     <use transform="translate(147.453945 0)scale(0.996264)" xlink:href="#CMR17-41"/>
     <use transform="translate(212.810679 0)scale(0.996264)" xlink:href="#CMR17-45"/>
     <use transform="translate(272.962612 0)scale(0.996264)" xlink:href="#CMR17-70"/>
     <use transform="translate(325.139203 0)scale(0.996264)" xlink:href="#CMR17-111"/>
     <use transform="translate(370.82968 0)scale(0.996264)" xlink:href="#CMR17-108"/>
     <use transform="translate(395.700738 0)scale(0.996264)" xlink:href="#CMR17-100"/>
     <use transform="translate(446.596108 0)scale(0.996264)" xlink:href="#CMR17-101"/>
     <use transform="translate(487.081769 0)scale(0.996264)" xlink:href="#CMR17-100"/>
     <use transform="translate(568.053105 0)scale(0.996264)" xlink:href="#CMMI12-67"/>
     <use transform="translate(644.999951 0)scale(0.996264)" xlink:href="#CMR17-40"/>
     <use transform="translate(680.280719 0)scale(0.996264)" xlink:href="#CMMI12-116"/>
     <use transform="translate(715.507049 0)scale(0.996264)" xlink:href="#CMR17-41"/>
    </g>
   </g>
  </g>
  <g id="axes_4">
   <g id="patch_17">
    <path d="M 100.002672 514.830936 
L 344.571444 514.830936 
L 344.571444 317.057736 
L 100.002672 317.057736 
z
" style="fill:#ffffff;"/>
   </g>
   <g id="matplotlib.axis_7">
    <g id="xtick_13">
     <g id="line2d_32">
      <g>
       <use style="stroke:#000000;stroke-width:0.8;" x="111.119434" xlink:href="#m5c5517bdf9" y="514.830936"/>
      </g>
     </g>
     <g id="text_33">
      <!-- $\mathdefault{0}$ -->
      <g transform="translate(107.217441 532.900524)scale(0.16 -0.16)">
       <use transform="scale(0.996264)" xlink:href="#CMR17-48"/>
      </g>
     </g>
    </g>
    <g id="xtick_14">
     <g id="line2d_33">
      <g>
       <use style="stroke:#000000;stroke-width:0.8;" x="182.840482" xlink:href="#m5c5517bdf9" y="514.830936"/>
      </g>
     </g>
     <g id="text_34">
      <!-- $\mathdefault{10}$ -->
      <g transform="translate(175.036495 532.900524)scale(0.16 -0.16)">
       <use transform="scale(0.996264)" xlink:href="#CMR17-49"/>
       <use transform="translate(45.690477 0)scale(0.996264)" xlink:href="#CMR17-48"/>
      </g>
     </g>
    </g>
    <g id="xtick_15">
     <g id="line2d_34">
      <g>
       <use style="stroke:#000000;stroke-width:0.8;" x="254.56153" xlink:href="#m5c5517bdf9" y="514.830936"/>
      </g>
     </g>
     <g id="text_35">
      <!-- $\mathdefault{20}$ -->
      <g transform="translate(246.757543 532.900524)scale(0.16 -0.16)">
       <use transform="scale(0.996264)" xlink:href="#CMR17-50"/>
       <use transform="translate(45.690477 0)scale(0.996264)" xlink:href="#CMR17-48"/>
      </g>
     </g>
    </g>
    <g id="xtick_16">
     <g id="line2d_35">
      <g>
       <use style="stroke:#000000;stroke-width:0.8;" x="326.282577" xlink:href="#m5c5517bdf9" y="514.830936"/>
      </g>
     </g>
     <g id="text_36">
      <!-- $\mathdefault{30}$ -->
      <g transform="translate(318.47859 532.900524)scale(0.16 -0.16)">
       <use transform="scale(0.996264)" xlink:href="#CMR17-51"/>
       <use transform="translate(45.690477 0)scale(0.996264)" xlink:href="#CMR17-48"/>
      </g>
     </g>
    </g>
   </g>
   <g id="matplotlib.axis_8">
    <g id="ytick_17">
     <g id="line2d_36">
      <g>
       <use style="stroke:#000000;stroke-width:0.8;" x="100.002672" xlink:href="#m0bc7a51ab2" y="507.694775"/>
      </g>
     </g>
     <g id="text_37">
      <!-- $\mathdefault{−3}$ -->
      <g transform="translate(72.800689 513.229569)scale(0.16 -0.16)">
       <use transform="scale(0.996264)" xlink:href="#CMSY10-0"/>
       <use transform="translate(77.487468 0)scale(0.996264)" xlink:href="#CMR17-51"/>
      </g>
     </g>
    </g>
    <g id="ytick_18">
     <g id="line2d_37">
      <g>
       <use style="stroke:#000000;stroke-width:0.8;" x="100.002672" xlink:href="#m0bc7a51ab2" y="474.136732"/>
      </g>
     </g>
     <g id="text_38">
      <!-- $\mathdefault{−2}$ -->
      <g transform="translate(72.800689 479.671526)scale(0.16 -0.16)">
       <use transform="scale(0.996264)" xlink:href="#CMSY10-0"/>
       <use transform="translate(77.487468 0)scale(0.996264)" xlink:href="#CMR17-50"/>
      </g>
     </g>
    </g>
    <g id="ytick_19">
     <g id="line2d_38">
      <g>
       <use style="stroke:#000000;stroke-width:0.8;" x="100.002672" xlink:href="#m0bc7a51ab2" y="440.57869"/>
      </g>
     </g>
     <g id="text_39">
      <!-- $\mathdefault{−1}$ -->
      <g transform="translate(72.800689 446.113484)scale(0.16 -0.16)">
       <use transform="scale(0.996264)" xlink:href="#CMSY10-0"/>
       <use transform="translate(77.487468 0)scale(0.996264)" xlink:href="#CMR17-49"/>
      </g>
     </g>
    </g>
    <g id="ytick_20">
     <g id="line2d_39">
      <g>
       <use style="stroke:#000000;stroke-width:0.8;" x="100.002672" xlink:href="#m0bc7a51ab2" y="407.020648"/>
      </g>
     </g>
     <g id="text_40">
      <!-- $\mathdefault{0}$ -->
      <g transform="translate(85.198685 412.555442)scale(0.16 -0.16)">
       <use transform="scale(0.996264)" xlink:href="#CMR17-48"/>
      </g>
     </g>
    </g>
    <g id="ytick_21">
     <g id="line2d_40">
      <g>
       <use style="stroke:#000000;stroke-width:0.8;" x="100.002672" xlink:href="#m0bc7a51ab2" y="373.462605"/>
      </g>
     </g>
     <g id="text_41">
      <!-- $\mathdefault{1}$ -->
      <g transform="translate(85.198685 378.9974)scale(0.16 -0.16)">
       <use transform="scale(0.996264)" xlink:href="#CMR17-49"/>
      </g>
     </g>
    </g>
    <g id="ytick_22">
     <g id="line2d_41">
      <g>
       <use style="stroke:#000000;stroke-width:0.8;" x="100.002672" xlink:href="#m0bc7a51ab2" y="339.904563"/>
      </g>
     </g>
     <g id="text_42">
      <!-- $\mathdefault{2}$ -->
      <g transform="translate(85.198685 345.439357)scale(0.16 -0.16)">
       <use transform="scale(0.996264)" xlink:href="#CMR17-50"/>
      </g>
     </g>
    </g>
    <g id="text_43">
     <!-- Imaginary -->
     <g transform="translate(64.149932 464.660674)rotate(-90)scale(0.24 -0.24)">
      <defs>
       <path d="M 19.703125 61.015625 
C 19.703125 65.5 20.90625 65.5 28.09375 65.5 
L 28.09375 68 
C 24.90625 68 19.796875 68 16.40625 68 
C 13 68 7.90625 68 4.703125 68 
L 4.703125 65.5 
C 11.90625 65.5 13.09375 65.5 13.09375 61.015625 
L 13.09375 6.984375 
C 13.09375 2.5 11.90625 2.5 4.703125 2.5 
L 4.703125 0 
C 7.90625 0 13 0 16.40625 0 
C 19.796875 0 24.90625 0 28.09375 0 
L 28.09375 2.5 
C 20.90625 2.5 19.703125 2.5 19.703125 6.984375 
z
" id="CMR17-73"/>
       <path d="M 67.59375 30.203125 
C 67.59375 35.1875 66.703125 43.59375 54.796875 43.59375 
C 48 43.59375 43.296875 39 41.5 33.609375 
L 41.40625 33.609375 
C 40.203125 41.8125 34.296875 43.59375 28.703125 43.59375 
C 20.796875 43.59375 16.703125 37.5 15.203125 33.5 
L 15.09375 33.5 
L 15.09375 43.59375 
L 3.296875 42.5 
L 3.296875 39.90625 
C 9.203125 39.90625 10.09375 39.296875 10.09375 34.5 
L 10.09375 6.6875 
C 10.09375 2.875 9.703125 2.390625 3.296875 2.390625 
L 3.296875 -0.203125 
C 5.703125 0 10.09375 0 12.703125 0 
C 15.296875 0 19.796875 0 22.203125 -0.203125 
L 22.203125 2.390625 
C 15.796875 2.390625 15.40625 2.78125 15.40625 6.6875 
L 15.40625 25.90625 
C 15.40625 35.109375 21 42 28 42 
C 35.40625 42 36.203125 35.40625 36.203125 30.59375 
L 36.203125 6.6875 
C 36.203125 2.875 35.796875 2.390625 29.40625 2.390625 
L 29.40625 -0.203125 
C 31.796875 0 36.203125 0 38.796875 0 
C 41.40625 0 45.90625 0 48.296875 -0.203125 
L 48.296875 2.390625 
C 41.90625 2.390625 41.5 2.78125 41.5 6.6875 
L 41.5 25.90625 
C 41.5 35.109375 47.09375 42 54.09375 42 
C 61.5 42 62.296875 35.40625 62.296875 30.59375 
L 62.296875 6.6875 
C 62.296875 2.875 61.90625 2.390625 55.5 2.390625 
L 55.5 -0.203125 
C 57.90625 0 62.296875 0 64.90625 0 
C 67.5 0 72 0 74.40625 -0.203125 
L 74.40625 2.390625 
C 68 2.390625 67.59375 2.78125 67.59375 6.6875 
z
" id="CMR17-109"/>
       <path d="M 11.09375 18.1875 
C 13 16.6875 16.296875 15 20.296875 15 
C 28.203125 15 35 21.203125 35 29.5 
C 35 32.09375 34.203125 36.09375 31.203125 39.203125 
C 34 42.0625 38.09375 43 40.40625 43 
C 40.796875 43 41.40625 43 41.90625 42.71875 
C 41.5 42.625 40.59375 42.234375 40.59375 40.703125 
C 40.59375 39.484375 41.5 38.609375 42.796875 38.609375 
C 44.296875 38.609375 45.09375 39.578125 45.09375 40.84375 
C 45.09375 42.671875 43.59375 44.59375 40.40625 44.59375 
C 36.40625 44.59375 32.90625 42.78125 30.09375 40.3125 
C 27.09375 43.015625 23.5 44 20.296875 44 
C 12.40625 44 5.59375 37.796875 5.59375 29.5 
C 5.59375 23.78125 8.90625 20.1875 9.90625 19.1875 
C 6.90625 15.6875 6.90625 11.609375 6.90625 11.109375 
C 6.90625 8.515625 7.90625 4.71875 11.296875 2.625 
C 6.09375 1.328125 2 -2.640625 2 -7.59375 
C 2 -14.734375 11.5 -20 22.90625 -20 
C 33.90625 -20 43.796875 -14.9375 43.796875 -7.484375 
C 43.796875 6 29 6 21.296875 6 
C 19 6 14.90625 6 14.40625 6.109375 
C 11.296875 6.609375 9.203125 9.40625 9.203125 12.90625 
C 9.203125 13.796875 9.203125 16 11.09375 18.1875 
z
M 20.296875 16.6875 
C 11.5 16.6875 11.5 27.5 11.5 29.515625 
C 11.5 31.5 11.5 42.3125 20.296875 42.3125 
C 29.09375 42.3125 29.09375 31.5 29.09375 29.515625 
C 29.09375 27.5 29.09375 16.6875 20.296875 16.6875 
z
M 22.90625 -18.296875 
C 12.90625 -18.296875 6 -13.046875 6 -7.59375 
C 6 -4.515625 7.703125 -1.640625 9.90625 -0.0625 
C 12.40625 1.625 13.40625 1.625 20.203125 1.625 
C 28.40625 1.625 39.796875 1.625 39.796875 -7.59375 
C 39.796875 -13.046875 32.90625 -18.296875 22.90625 -18.296875 
z
" id="CMR17-103"/>
       <path d="M 15.5 61.078125 
C 15.5 63.265625 13.703125 65.15625 11.40625 65.15625 
C 9.203125 65.15625 7.296875 63.375 7.296875 61.078125 
C 7.296875 58.890625 9.09375 57 11.40625 57 
C 13.59375 57 15.5 58.796875 15.5 61.078125 
z
M 3.796875 42.28125 
L 3.796875 39.703125 
C 9.40625 39.703125 10.203125 39.09375 10.203125 34.328125 
L 10.203125 6.671875 
C 10.203125 2.875 9.796875 2.390625 3.40625 2.390625 
L 3.40625 -0.203125 
C 5.796875 0 10.09375 0 12.59375 0 
C 15 0 19.09375 0 21.40625 -0.203125 
L 21.40625 2.390625 
C 15.5 2.390625 15.296875 2.984375 15.296875 6.5625 
L 15.296875 43.375 
z
" id="CMR17-105"/>
       <path d="M 41.5 30.203125 
C 41.5 35.296875 40.5 43.59375 28.703125 43.59375 
C 20.796875 43.59375 16.703125 37.5 15.203125 33.5 
L 15.09375 33.5 
L 15.09375 43.59375 
L 3.296875 42.5 
L 3.296875 39.90625 
C 9.203125 39.90625 10.09375 39.296875 10.09375 34.5 
L 10.09375 6.6875 
C 10.09375 2.875 9.703125 2.390625 3.296875 2.390625 
L 3.296875 -0.203125 
C 5.703125 0 10.09375 0 12.703125 0 
C 15.296875 0 19.796875 0 22.203125 -0.203125 
L 22.203125 2.390625 
C 15.796875 2.390625 15.40625 2.78125 15.40625 6.6875 
L 15.40625 25.90625 
C 15.40625 35.109375 21 42 28 42 
C 35.40625 42 36.203125 35.40625 36.203125 30.59375 
L 36.203125 6.6875 
C 36.203125 2.875 35.796875 2.390625 29.40625 2.390625 
L 29.40625 -0.203125 
C 31.796875 0 36.203125 0 38.796875 0 
C 41.40625 0 45.90625 0 48.296875 -0.203125 
L 48.296875 2.390625 
C 41.90625 2.390625 41.5 2.78125 41.5 6.6875 
z
" id="CMR17-110"/>
       <path d="M 15 23.390625 
C 15 33 19.09375 42 26.59375 42 
C 27.296875 42 28 41.90625 28.703125 41.59375 
C 28.703125 41.59375 26.5 40.890625 26.5 38.3125 
C 26.5 35.90625 28.40625 34.90625 29.90625 34.90625 
C 31.09375 34.90625 33.296875 35.609375 33.296875 38.40625 
C 33.296875 41.609375 30.09375 43.59375 26.703125 43.59375 
C 19.09375 43.59375 15.796875 36.203125 14.796875 32.703125 
L 14.703125 32.703125 
L 14.703125 43.59375 
L 3.09375 42.5 
L 3.09375 39.90625 
C 9 39.90625 9.90625 39.296875 9.90625 34.5 
L 9.90625 6.6875 
C 9.90625 2.875 9.5 2.390625 3.09375 2.390625 
L 3.09375 -0.203125 
C 5.5 0 10.09375 0 12.703125 0 
C 15.59375 0 20.703125 0 23.40625 -0.203125 
L 23.40625 2.390625 
C 16.203125 2.390625 15 2.390625 15 6.875 
z
" id="CMR17-114"/>
       <path d="M 39 34.328125 
C 41.5 40.40625 46 40.40625 47.40625 40.40625 
L 47.40625 43 
C 45.5 43 43 43 41.09375 43 
C 39 43 35.703125 43 33.703125 43.09375 
L 33.703125 40.5 
C 37.5 40.203125 37.59375 37.40625 37.59375 36.609375 
C 37.59375 35.625 37.40625 35.125 36.90625 33.921875 
L 26 7.015625 
L 14.09375 36.03125 
C 13.59375 37.21875 13.59375 37.90625 13.59375 38.015625 
C 13.59375 40.203125 15.90625 40.40625 18.296875 40.40625 
L 18.296875 43.09375 
C 15.90625 43 11.59375 43 9.09375 43 
C 6.40625 43 3.203125 43 1 43.09375 
L 1 40.40625 
C 6.40625 40.40625 7 39.90625 8.296875 36.71875 
L 23.203125 0.234375 
C 18.703125 -11.53125 16.09375 -18.40625 9.796875 -18.40625 
C 8.703125 -18.40625 6.203125 -18.109375 4.40625 -16.3125 
C 6.703125 -16.109375 7.703125 -14.71875 7.703125 -13.015625 
C 7.703125 -11.328125 6.5 -9.828125 4.5 -9.828125 
C 2.296875 -9.828125 1.203125 -11.328125 1.203125 -13.125 
C 1.203125 -17.109375 5.296875 -20 9.796875 -20 
C 15.59375 -20 19.203125 -14.40625 21.203125 -9.4375 
z
" id="CMR17-121"/>
      </defs>
      <use transform="scale(0.996264)" xlink:href="#CMR17-73"/>
      <use transform="translate(32.638409 0)scale(0.996264)" xlink:href="#CMR17-109"/>
      <use transform="translate(109.557999 0)scale(0.996264)" xlink:href="#CMR17-97"/>
      <use transform="translate(155.248476 0)scale(0.996264)" xlink:href="#CMR17-103"/>
      <use transform="translate(200.938953 0)scale(0.996264)" xlink:href="#CMR17-105"/>
      <use transform="translate(225.810012 0)scale(0.996264)" xlink:href="#CMR17-110"/>
      <use transform="translate(276.705382 0)scale(0.996264)" xlink:href="#CMR17-97"/>
      <use transform="translate(322.395859 0)scale(0.996264)" xlink:href="#CMR17-114"/>
      <use transform="translate(357.676626 0)scale(0.996264)" xlink:href="#CMR17-121"/>
     </g>
    </g>
    <g id="text_44">
     <!-- $\times\mathdefault{10^{−18}}\mathdefault{}$ -->
     <g transform="translate(100.002672 314.057736)scale(0.16 -0.16)">
      <defs>
       <path d="M 38.90625 27.890625 
L 18.90625 47.796875 
C 17.703125 49 17.5 49.1875 16.703125 49.1875 
C 15.703125 49.1875 14.703125 48.296875 14.703125 47.1875 
C 14.703125 46.5 14.90625 46.296875 16 45.1875 
L 36 25.09375 
L 16 5 
C 14.90625 3.890625 14.703125 3.6875 14.703125 3 
C 14.703125 1.890625 15.703125 1 16.703125 1 
C 17.5 1 17.703125 1.1875 18.90625 2.390625 
L 38.796875 22.296875 
L 59.5 1.59375 
C 59.703125 1.5 60.40625 1 61 1 
C 62.203125 1 63 1.890625 63 3 
C 63 3.1875 63 3.59375 62.703125 4.09375 
C 62.59375 4.296875 46.703125 20 41.703125 25.09375 
L 60 43.390625 
C 60.5 44 62 45.296875 62.5 45.890625 
C 62.59375 46.09375 63 46.5 63 47.1875 
C 63 48.296875 62.203125 49.1875 61 49.1875 
C 60.203125 49.1875 59.796875 48.796875 58.703125 47.6875 
z
" id="CMSY10-2"/>
       <path d="M 27.203125 35.375 
C 33.5 38.546875 39.90625 43.328125 39.90625 50.984375 
C 39.90625 60.015625 31.09375 65.296875 23 65.296875 
C 13.90625 65.296875 5.90625 58.734375 5.90625 49.6875 
C 5.90625 47.203125 6.5 42.921875 10.40625 39.140625 
C 11.40625 38.15625 15.59375 35.171875 18.296875 33.28125 
C 13.796875 30.984375 3.296875 25.53125 3.296875 14.59375 
C 3.296875 4.359375 13.09375 -2 22.796875 -2 
C 33.5 -2 42.5 5.65625 42.5 15.78125 
C 42.5 24.84375 36.40625 29.015625 32.40625 31.703125 
z
M 14.09375 44.09375 
C 13.296875 44.59375 9.296875 47.671875 9.296875 52.359375 
C 9.296875 58.421875 15.59375 63 22.796875 63 
C 30.703125 63 36.5 57.4375 36.5 50.96875 
C 36.5 41.703125 26.09375 36.421875 25.59375 36.421875 
C 25.5 36.421875 25.40625 36.421875 24.59375 37.03125 
z
M 32.5 23.734375 
C 34 22.640625 38.796875 19.375 38.796875 13.296875 
C 38.796875 5.953125 31.40625 0.390625 23 0.390625 
C 13.90625 0.390625 7 6.84375 7 14.6875 
C 7 22.546875 13.09375 29.09375 20 32.1875 
z
" id="CMR17-56"/>
      </defs>
      <use transform="scale(0.996264)" xlink:href="#CMSY10-2"/>
      <use transform="translate(77.487468 0)scale(0.996264)" xlink:href="#CMR17-49"/>
      <use transform="translate(123.177945 0)scale(0.996264)" xlink:href="#CMR17-48"/>
      <use transform="translate(168.868422 36.153639)scale(0.697382)" xlink:href="#CMSY10-0"/>
      <use transform="translate(223.109415 36.153639)scale(0.697382)" xlink:href="#CMR17-49"/>
      <use transform="translate(255.092597 36.153639)scale(0.697382)" xlink:href="#CMR17-56"/>
     </g>
    </g>
   </g>
   <g id="LineCollection_4">
    <path clip-path="url(#p460844e28c)" d="M 111.119434 433.753636 
L 111.119434 388.099896 
" style="fill:none;stroke:#ff0000;stroke-width:2;"/>
    <path clip-path="url(#p460844e28c)" d="M 118.291539 457.117713 
L 118.291539 357.31728 
" style="fill:none;stroke:#ff0000;stroke-width:2;"/>
    <path clip-path="url(#p460844e28c)" d="M 125.463644 386.61422 
L 125.463644 326.047427 
" style="fill:none;stroke:#ff0000;stroke-width:2;"/>
    <path clip-path="url(#p460844e28c)" d="M 132.635749 421.274785 
L 132.635749 385.427999 
" style="fill:none;stroke:#ff0000;stroke-width:2;"/>
    <path clip-path="url(#p460844e28c)" d="M 139.807853 438.682493 
L 139.807853 404.122838 
" style="fill:none;stroke:#ff0000;stroke-width:2;"/>
    <path clip-path="url(#p460844e28c)" d="M 146.979958 433.324281 
L 146.979958 414.340142 
" style="fill:none;stroke:#ff0000;stroke-width:2;"/>
    <path clip-path="url(#p460844e28c)" d="M 154.152063 438.06409 
L 154.152063 420.183375 
" style="fill:none;stroke:#ff0000;stroke-width:2;"/>
    <path clip-path="url(#p460844e28c)" d="M 161.324168 410.96694 
L 161.324168 398.616539 
" style="fill:none;stroke:#ff0000;stroke-width:2;"/>
    <path clip-path="url(#p460844e28c)" d="M 168.496272 411.556203 
L 168.496272 403.387261 
" style="fill:none;stroke:#ff0000;stroke-width:2;"/>
    <path clip-path="url(#p460844e28c)" d="M 175.668377 410.276063 
L 175.668377 404.236798 
" style="fill:none;stroke:#ff0000;stroke-width:2;"/>
    <path clip-path="url(#p460844e28c)" d="M 182.840482 409.041022 
L 182.840482 403.301366 
" style="fill:none;stroke:#ff0000;stroke-width:2;"/>
    <path clip-path="url(#p460844e28c)" d="M 190.012587 410.21766 
L 190.012587 406.363886 
" style="fill:none;stroke:#ff0000;stroke-width:2;"/>
    <path clip-path="url(#p460844e28c)" d="M 197.184691 408.148829 
L 197.184691 405.273595 
" style="fill:none;stroke:#ff0000;stroke-width:2;"/>
    <path clip-path="url(#p460844e28c)" d="M 204.356796 407.668345 
L 204.356796 405.675449 
" style="fill:none;stroke:#ff0000;stroke-width:2;"/>
    <path clip-path="url(#p460844e28c)" d="M 211.528901 405.929015 
L 211.528901 403.809767 
" style="fill:none;stroke:#ff0000;stroke-width:2;"/>
    <path clip-path="url(#p460844e28c)" d="M 218.701006 407.765822 
L 218.701006 406.368953 
" style="fill:none;stroke:#ff0000;stroke-width:2;"/>
    <path clip-path="url(#p460844e28c)" d="M 225.87311 408.493899 
L 225.87311 406.979677 
" style="fill:none;stroke:#ff0000;stroke-width:2;"/>
    <path clip-path="url(#p460844e28c)" d="M 233.045215 408.386805 
L 233.045215 406.936285 
" style="fill:none;stroke:#ff0000;stroke-width:2;"/>
    <path clip-path="url(#p460844e28c)" d="M 240.21732 408.366392 
L 240.21732 406.350721 
" style="fill:none;stroke:#ff0000;stroke-width:2;"/>
    <path clip-path="url(#p460844e28c)" d="M 247.389425 407.580769 
L 247.389425 404.923901 
" style="fill:none;stroke:#ff0000;stroke-width:2;"/>
    <path clip-path="url(#p460844e28c)" d="M 254.56153 407.267337 
L 254.56153 404.174899 
" style="fill:none;stroke:#ff0000;stroke-width:2;"/>
    <path clip-path="url(#p460844e28c)" d="M 261.733634 410.171587 
L 261.733634 405.576578 
" style="fill:none;stroke:#ff0000;stroke-width:2;"/>
    <path clip-path="url(#p460844e28c)" d="M 268.905739 406.571079 
L 268.905739 400.809564 
" style="fill:none;stroke:#ff0000;stroke-width:2;"/>
    <path clip-path="url(#p460844e28c)" d="M 276.077844 408.633212 
L 276.077844 400.425594 
" style="fill:none;stroke:#ff0000;stroke-width:2;"/>
    <path clip-path="url(#p460844e28c)" d="M 283.249949 417.248001 
L 283.249949 408.931049 
" style="fill:none;stroke:#ff0000;stroke-width:2;"/>
    <path clip-path="url(#p460844e28c)" d="M 290.422053 416.878324 
L 290.422053 401.168882 
" style="fill:none;stroke:#ff0000;stroke-width:2;"/>
    <path clip-path="url(#p460844e28c)" d="M 297.594158 412.21052 
L 297.594158 395.310216 
" style="fill:none;stroke:#ff0000;stroke-width:2;"/>
    <path clip-path="url(#p460844e28c)" d="M 304.766263 407.116524 
L 304.766263 386.946221 
" style="fill:none;stroke:#ff0000;stroke-width:2;"/>
    <path clip-path="url(#p460844e28c)" d="M 311.938368 413.147119 
L 311.938368 387.270071 
" style="fill:none;stroke:#ff0000;stroke-width:2;"/>
    <path clip-path="url(#p460844e28c)" d="M 319.110472 440.298482 
L 319.110472 402.46405 
" style="fill:none;stroke:#ff0000;stroke-width:2;"/>
    <path clip-path="url(#p460844e28c)" d="M 326.282577 456.480975 
L 326.282577 399.162632 
" style="fill:none;stroke:#ff0000;stroke-width:2;"/>
    <path clip-path="url(#p460844e28c)" d="M 333.454682 505.841245 
L 333.454682 430.375832 
" style="fill:none;stroke:#ff0000;stroke-width:2;"/>
   </g>
   <g id="line2d_42">
    <path clip-path="url(#p460844e28c)" d="M 111.119434 410.926766 
L 118.291539 407.217496 
L 125.463644 356.330823 
L 132.635749 403.351392 
L 139.807853 421.402665 
L 146.979958 423.832211 
L 154.152063 429.123732 
L 161.324168 404.791739 
L 168.496272 407.471732 
L 175.668377 407.25643 
L 182.840482 406.171194 
L 190.012587 408.290773 
L 197.184691 406.711212 
L 204.356796 406.671897 
L 211.528901 404.869391 
L 218.701006 407.067388 
L 225.87311 407.736788 
L 233.045215 407.661545 
L 240.21732 407.358557 
L 247.389425 406.252335 
L 254.56153 405.721118 
L 261.733634 407.874083 
L 268.905739 403.690321 
L 276.077844 404.529403 
L 283.249949 413.089525 
L 290.422053 409.023603 
L 297.594158 403.760368 
L 304.766263 397.031372 
L 311.938368 400.208595 
L 319.110472 421.381266 
L 326.282577 427.821804 
L 333.454682 468.108538 
" style="fill:none;stroke:#000000;stroke-linecap:square;stroke-width:2;"/>
   </g>
   <g id="patch_18">
    <path d="M 100.002672 514.830936 
L 100.002672 317.057736 
" style="fill:none;stroke:#000000;stroke-linecap:square;stroke-linejoin:miter;stroke-width:0.8;"/>
   </g>
   <g id="patch_19">
    <path d="M 344.571444 514.830936 
L 344.571444 317.057736 
" style="fill:none;stroke:#000000;stroke-linecap:square;stroke-linejoin:miter;stroke-width:0.8;"/>
   </g>
   <g id="patch_20">
    <path d="M 100.002672 514.830936 
L 344.571444 514.830936 
" style="fill:none;stroke:#000000;stroke-linecap:square;stroke-linejoin:miter;stroke-width:0.8;"/>
   </g>
   <g id="patch_21">
    <path d="M 100.002672 317.057736 
L 344.571444 317.057736 
" style="fill:none;stroke:#000000;stroke-linecap:square;stroke-linejoin:miter;stroke-width:0.8;"/>
   </g>
  </g>
  <g id="axes_5">
   <g id="patch_22">
    <path d="M 411.71695 514.830936 
L 656.285722 514.830936 
L 656.285722 317.057736 
L 411.71695 317.057736 
z
" style="fill:#ffffff;"/>
   </g>
   <g id="matplotlib.axis_9">
    <g id="xtick_17">
     <g id="line2d_43">
      <g>
       <use style="stroke:#000000;stroke-width:0.8;" x="422.833712" xlink:href="#m5c5517bdf9" y="514.830936"/>
      </g>
     </g>
     <g id="text_45">
      <!-- $\mathdefault{0}$ -->
      <g transform="translate(418.931719 532.900524)scale(0.16 -0.16)">
       <use transform="scale(0.996264)" xlink:href="#CMR17-48"/>
      </g>
     </g>
    </g>
    <g id="xtick_18">
     <g id="line2d_44">
      <g>
       <use style="stroke:#000000;stroke-width:0.8;" x="492.313477" xlink:href="#m5c5517bdf9" y="514.830936"/>
      </g>
     </g>
     <g id="text_46">
      <!-- $\mathdefault{5}$ -->
      <g transform="translate(488.411483 532.900524)scale(0.16 -0.16)">
       <use transform="scale(0.996264)" xlink:href="#CMR17-53"/>
      </g>
     </g>
    </g>
    <g id="xtick_19">
     <g id="line2d_45">
      <g>
       <use style="stroke:#000000;stroke-width:0.8;" x="561.793242" xlink:href="#m5c5517bdf9" y="514.830936"/>
      </g>
     </g>
     <g id="text_47">
      <!-- $\mathdefault{10}$ -->
      <g transform="translate(553.989255 532.900524)scale(0.16 -0.16)">
       <use transform="scale(0.996264)" xlink:href="#CMR17-49"/>
       <use transform="translate(45.690477 0)scale(0.996264)" xlink:href="#CMR17-48"/>
      </g>
     </g>
    </g>
    <g id="xtick_20">
     <g id="line2d_46">
      <g>
       <use style="stroke:#000000;stroke-width:0.8;" x="631.273007" xlink:href="#m5c5517bdf9" y="514.830936"/>
      </g>
     </g>
     <g id="text_48">
      <!-- $\mathdefault{15}$ -->
      <g transform="translate(623.46902 532.900524)scale(0.16 -0.16)">
       <use transform="scale(0.996264)" xlink:href="#CMR17-49"/>
       <use transform="translate(45.690477 0)scale(0.996264)" xlink:href="#CMR17-53"/>
      </g>
     </g>
    </g>
   </g>
   <g id="matplotlib.axis_10">
    <g id="ytick_23">
     <g id="line2d_47">
      <g>
       <use style="stroke:#000000;stroke-width:0.8;" x="411.71695" xlink:href="#m0bc7a51ab2" y="513.211615"/>
      </g>
     </g>
     <g id="text_49">
      <!-- $\mathdefault{−2}$ -->
      <g transform="translate(384.514967 518.746409)scale(0.16 -0.16)">
       <use transform="scale(0.996264)" xlink:href="#CMSY10-0"/>
       <use transform="translate(77.487468 0)scale(0.996264)" xlink:href="#CMR17-50"/>
      </g>
     </g>
    </g>
    <g id="ytick_24">
     <g id="line2d_48">
      <g>
       <use style="stroke:#000000;stroke-width:0.8;" x="411.71695" xlink:href="#m0bc7a51ab2" y="452.088483"/>
      </g>
     </g>
     <g id="text_50">
      <!-- $\mathdefault{−1}$ -->
      <g transform="translate(384.514967 457.623277)scale(0.16 -0.16)">
       <use transform="scale(0.996264)" xlink:href="#CMSY10-0"/>
       <use transform="translate(77.487468 0)scale(0.996264)" xlink:href="#CMR17-49"/>
      </g>
     </g>
    </g>
    <g id="ytick_25">
     <g id="line2d_49">
      <g>
       <use style="stroke:#000000;stroke-width:0.8;" x="411.71695" xlink:href="#m0bc7a51ab2" y="390.965351"/>
      </g>
     </g>
     <g id="text_51">
      <!-- $\mathdefault{0}$ -->
      <g transform="translate(396.912963 396.500145)scale(0.16 -0.16)">
       <use transform="scale(0.996264)" xlink:href="#CMR17-48"/>
      </g>
     </g>
    </g>
    <g id="ytick_26">
     <g id="line2d_50">
      <g>
       <use style="stroke:#000000;stroke-width:0.8;" x="411.71695" xlink:href="#m0bc7a51ab2" y="329.842219"/>
      </g>
     </g>
     <g id="text_52">
      <!-- $\mathdefault{1}$ -->
      <g transform="translate(396.912963 335.377013)scale(0.16 -0.16)">
       <use transform="scale(0.996264)" xlink:href="#CMR17-49"/>
      </g>
     </g>
    </g>
    <g id="text_53">
     <!-- $\times\mathdefault{10^{−18}}\mathdefault{}$ -->
     <g transform="translate(411.71695 314.057736)scale(0.16 -0.16)">
      <use transform="scale(0.996264)" xlink:href="#CMSY10-2"/>
      <use transform="translate(77.487468 0)scale(0.996264)" xlink:href="#CMR17-49"/>
      <use transform="translate(123.177945 0)scale(0.996264)" xlink:href="#CMR17-48"/>
      <use transform="translate(168.868422 36.153639)scale(0.697382)" xlink:href="#CMSY10-0"/>
      <use transform="translate(223.109415 36.153639)scale(0.697382)" xlink:href="#CMR17-49"/>
      <use transform="translate(255.092597 36.153639)scale(0.697382)" xlink:href="#CMR17-56"/>
     </g>
    </g>
   </g>
   <g id="LineCollection_5">
    <path clip-path="url(#p2f03aaf774)" d="M 422.833712 439.657224 
L 422.833712 356.502803 
" style="fill:none;stroke:#ff0000;stroke-width:2;"/>
    <path clip-path="url(#p2f03aaf774)" d="M 436.729665 505.841245 
L 436.729665 387.714419 
" style="fill:none;stroke:#ff0000;stroke-width:2;"/>
    <path clip-path="url(#p2f03aaf774)" d="M 450.625618 401.443597 
L 450.625618 326.047427 
" style="fill:none;stroke:#ff0000;stroke-width:2;"/>
    <path clip-path="url(#p2f03aaf774)" d="M 464.521571 424.400675 
L 464.521571 377.003438 
" style="fill:none;stroke:#ff0000;stroke-width:2;"/>
    <path clip-path="url(#p2f03aaf774)" d="M 478.417524 417.923439 
L 478.417524 377.795313 
" style="fill:none;stroke:#ff0000;stroke-width:2;"/>
    <path clip-path="url(#p2f03aaf774)" d="M 492.313477 410.022187 
L 492.313477 384.334736 
" style="fill:none;stroke:#ff0000;stroke-width:2;"/>
    <path clip-path="url(#p2f03aaf774)" d="M 506.20943 419.031622 
L 506.20943 397.219653 
" style="fill:none;stroke:#ff0000;stroke-width:2;"/>
    <path clip-path="url(#p2f03aaf774)" d="M 520.105383 400.044736 
L 520.105383 381.474412 
" style="fill:none;stroke:#ff0000;stroke-width:2;"/>
    <path clip-path="url(#p2f03aaf774)" d="M 534.001336 402.041506 
L 534.001336 391.764754 
" style="fill:none;stroke:#ff0000;stroke-width:2;"/>
    <path clip-path="url(#p2f03aaf774)" d="M 547.897289 393.672851 
L 547.897289 384.149719 
" style="fill:none;stroke:#ff0000;stroke-width:2;"/>
    <path clip-path="url(#p2f03aaf774)" d="M 561.793242 390.860216 
L 561.793242 383.457371 
" style="fill:none;stroke:#ff0000;stroke-width:2;"/>
    <path clip-path="url(#p2f03aaf774)" d="M 575.689195 395.62476 
L 575.689195 390.173828 
" style="fill:none;stroke:#ff0000;stroke-width:2;"/>
    <path clip-path="url(#p2f03aaf774)" d="M 589.585148 391.343613 
L 589.585148 387.656495 
" style="fill:none;stroke:#ff0000;stroke-width:2;"/>
    <path clip-path="url(#p2f03aaf774)" d="M 603.481101 391.50224 
L 603.481101 388.393826 
" style="fill:none;stroke:#ff0000;stroke-width:2;"/>
    <path clip-path="url(#p2f03aaf774)" d="M 617.377054 390.670142 
L 617.377054 387.957701 
" style="fill:none;stroke:#ff0000;stroke-width:2;"/>
    <path clip-path="url(#p2f03aaf774)" d="M 631.273007 392.524896 
L 631.273007 390.658279 
" style="fill:none;stroke:#ff0000;stroke-width:2;"/>
    <path clip-path="url(#p2f03aaf774)" d="M 645.16896 393.648754 
L 645.16896 390.890727 
" style="fill:none;stroke:#ff0000;stroke-width:2;"/>
   </g>
   <g id="line2d_51">
    <path clip-path="url(#p2f03aaf774)" d="M 422.833712 398.080014 
L 436.729665 446.777832 
L 450.625618 363.745512 
L 464.521571 400.702057 
L 478.417524 397.859376 
L 492.313477 397.178461 
L 506.20943 408.125638 
L 520.105383 390.759574 
L 534.001336 396.90313 
L 547.897289 388.911285 
L 561.793242 387.158793 
L 575.689195 392.899294 
L 589.585148 389.500054 
L 603.481101 389.948033 
L 617.377054 389.313921 
L 631.273007 391.591588 
L 645.16896 392.269741 
" style="fill:none;stroke:#000000;stroke-linecap:square;stroke-width:2;"/>
   </g>
   <g id="patch_23">
    <path d="M 411.71695 514.830936 
L 411.71695 317.057736 
" style="fill:none;stroke:#000000;stroke-linecap:square;stroke-linejoin:miter;stroke-width:0.8;"/>
   </g>
   <g id="patch_24">
    <path d="M 656.285722 514.830936 
L 656.285722 317.057736 
" style="fill:none;stroke:#000000;stroke-linecap:square;stroke-linejoin:miter;stroke-width:0.8;"/>
   </g>
   <g id="patch_25">
    <path d="M 411.71695 514.830936 
L 656.285722 514.830936 
" style="fill:none;stroke:#000000;stroke-linecap:square;stroke-linejoin:miter;stroke-width:0.8;"/>
   </g>
   <g id="patch_26">
    <path d="M 411.71695 317.057736 
L 656.285722 317.057736 
" style="fill:none;stroke:#000000;stroke-linecap:square;stroke-linejoin:miter;stroke-width:0.8;"/>
   </g>
  </g>
  <g id="axes_6">
   <g id="patch_27">
    <path d="M 723.431228 514.830936 
L 968 514.830936 
L 968 317.057736 
L 723.431228 317.057736 
z
" style="fill:#ffffff;"/>
   </g>
   <g id="matplotlib.axis_11">
    <g id="xtick_21">
     <g id="line2d_52">
      <g>
       <use style="stroke:#000000;stroke-width:0.8;" x="734.54799" xlink:href="#m5c5517bdf9" y="514.830936"/>
      </g>
     </g>
     <g id="text_54">
      <!-- $\mathdefault{0}$ -->
      <g transform="translate(730.645996 532.900524)scale(0.16 -0.16)">
       <use transform="scale(0.996264)" xlink:href="#CMR17-48"/>
      </g>
     </g>
    </g>
    <g id="xtick_22">
     <g id="line2d_53">
      <g>
       <use style="stroke:#000000;stroke-width:0.8;" x="804.027755" xlink:href="#m5c5517bdf9" y="514.830936"/>
      </g>
     </g>
     <g id="text_55">
      <!-- $\mathdefault{5}$ -->
      <g transform="translate(800.125761 532.900524)scale(0.16 -0.16)">
       <use transform="scale(0.996264)" xlink:href="#CMR17-53"/>
      </g>
     </g>
    </g>
    <g id="xtick_23">
     <g id="line2d_54">
      <g>
       <use style="stroke:#000000;stroke-width:0.8;" x="873.50752" xlink:href="#m5c5517bdf9" y="514.830936"/>
      </g>
     </g>
     <g id="text_56">
      <!-- $\mathdefault{10}$ -->
      <g transform="translate(865.703533 532.900524)scale(0.16 -0.16)">
       <use transform="scale(0.996264)" xlink:href="#CMR17-49"/>
       <use transform="translate(45.690477 0)scale(0.996264)" xlink:href="#CMR17-48"/>
      </g>
     </g>
    </g>
    <g id="xtick_24">
     <g id="line2d_55">
      <g>
       <use style="stroke:#000000;stroke-width:0.8;" x="942.987285" xlink:href="#m5c5517bdf9" y="514.830936"/>
      </g>
     </g>
     <g id="text_57">
      <!-- $\mathdefault{15}$ -->
      <g transform="translate(935.183298 532.900524)scale(0.16 -0.16)">
       <use transform="scale(0.996264)" xlink:href="#CMR17-49"/>
       <use transform="translate(45.690477 0)scale(0.996264)" xlink:href="#CMR17-53"/>
      </g>
     </g>
    </g>
   </g>
   <g id="matplotlib.axis_12">
    <g id="ytick_27">
     <g id="line2d_56">
      <g>
       <use style="stroke:#000000;stroke-width:0.8;" x="723.431228" xlink:href="#m0bc7a51ab2" y="496.191888"/>
      </g>
     </g>
     <g id="text_58">
      <!-- $\mathdefault{−0.5}$ -->
      <g transform="translate(684.089709 501.726682)scale(0.16 -0.16)">
       <use transform="scale(0.996264)" xlink:href="#CMSY10-0"/>
       <use transform="translate(77.487468 0)scale(0.996264)" xlink:href="#CMR17-48"/>
       <use transform="translate(123.177945 0)scale(0.996264)" xlink:href="#CMMI12-58"/>
       <use transform="translate(150.275122 0)scale(0.996264)" xlink:href="#CMR17-53"/>
      </g>
     </g>
    </g>
    <g id="ytick_28">
     <g id="line2d_57">
      <g>
       <use style="stroke:#000000;stroke-width:0.8;" x="723.431228" xlink:href="#m0bc7a51ab2" y="459.266357"/>
      </g>
     </g>
     <g id="text_59">
      <!-- $\mathdefault{0.0}$ -->
      <g transform="translate(696.487705 464.801151)scale(0.16 -0.16)">
       <use transform="scale(0.996264)" xlink:href="#CMR17-48"/>
       <use transform="translate(45.690477 0)scale(0.996264)" xlink:href="#CMMI12-58"/>
       <use transform="translate(72.787654 0)scale(0.996264)" xlink:href="#CMR17-48"/>
      </g>
     </g>
    </g>
    <g id="ytick_29">
     <g id="line2d_58">
      <g>
       <use style="stroke:#000000;stroke-width:0.8;" x="723.431228" xlink:href="#m0bc7a51ab2" y="422.340825"/>
      </g>
     </g>
     <g id="text_60">
      <!-- $\mathdefault{0.5}$ -->
      <g transform="translate(696.487705 427.875619)scale(0.16 -0.16)">
       <use transform="scale(0.996264)" xlink:href="#CMR17-48"/>
       <use transform="translate(45.690477 0)scale(0.996264)" xlink:href="#CMMI12-58"/>
       <use transform="translate(72.787654 0)scale(0.996264)" xlink:href="#CMR17-53"/>
      </g>
     </g>
    </g>
    <g id="ytick_30">
     <g id="line2d_59">
      <g>
       <use style="stroke:#000000;stroke-width:0.8;" x="723.431228" xlink:href="#m0bc7a51ab2" y="385.415294"/>
      </g>
     </g>
     <g id="text_61">
      <!-- $\mathdefault{1.0}$ -->
      <g transform="translate(696.487705 390.950088)scale(0.16 -0.16)">
       <use transform="scale(0.996264)" xlink:href="#CMR17-49"/>
       <use transform="translate(45.690477 0)scale(0.996264)" xlink:href="#CMMI12-58"/>
       <use transform="translate(72.787654 0)scale(0.996264)" xlink:href="#CMR17-48"/>
      </g>
     </g>
    </g>
    <g id="ytick_31">
     <g id="line2d_60">
      <g>
       <use style="stroke:#000000;stroke-width:0.8;" x="723.431228" xlink:href="#m0bc7a51ab2" y="348.489763"/>
      </g>
     </g>
     <g id="text_62">
      <!-- $\mathdefault{1.5}$ -->
      <g transform="translate(696.487705 354.024557)scale(0.16 -0.16)">
       <use transform="scale(0.996264)" xlink:href="#CMR17-49"/>
       <use transform="translate(45.690477 0)scale(0.996264)" xlink:href="#CMMI12-58"/>
       <use transform="translate(72.787654 0)scale(0.996264)" xlink:href="#CMR17-53"/>
      </g>
     </g>
    </g>
    <g id="text_63">
     <!-- $\times\mathdefault{10^{−18}}\mathdefault{}$ -->
     <g transform="translate(723.431228 314.057736)scale(0.16 -0.16)">
      <use transform="scale(0.996264)" xlink:href="#CMSY10-2"/>
      <use transform="translate(77.487468 0)scale(0.996264)" xlink:href="#CMR17-49"/>
      <use transform="translate(123.177945 0)scale(0.996264)" xlink:href="#CMR17-48"/>
      <use transform="translate(168.868422 36.153639)scale(0.697382)" xlink:href="#CMSY10-0"/>
      <use transform="translate(223.109415 36.153639)scale(0.697382)" xlink:href="#CMR17-49"/>
      <use transform="translate(255.092597 36.153639)scale(0.697382)" xlink:href="#CMR17-56"/>
     </g>
    </g>
   </g>
   <g id="LineCollection_6">
    <path clip-path="url(#pe704cc09a4)" d="M 734.54799 459.266357 
L 734.54799 459.266357 
" style="fill:none;stroke:#ff0000;stroke-width:2;"/>
    <path clip-path="url(#pe704cc09a4)" d="M 748.443943 458.48259 
L 748.443943 326.047427 
" style="fill:none;stroke:#ff0000;stroke-width:2;"/>
    <path clip-path="url(#pe704cc09a4)" d="M 762.339896 426.807865 
L 762.339896 334.394907 
" style="fill:none;stroke:#ff0000;stroke-width:2;"/>
    <path clip-path="url(#pe704cc09a4)" d="M 776.235849 468.143209 
L 776.235849 410.711225 
" style="fill:none;stroke:#ff0000;stroke-width:2;"/>
    <path clip-path="url(#pe704cc09a4)" d="M 790.131802 505.841245 
L 790.131802 459.333182 
" style="fill:none;stroke:#ff0000;stroke-width:2;"/>
    <path clip-path="url(#pe704cc09a4)" d="M 804.027755 503.711806 
L 804.027755 473.801416 
" style="fill:none;stroke:#ff0000;stroke-width:2;"/>
    <path clip-path="url(#pe704cc09a4)" d="M 817.923708 501.061207 
L 817.923708 473.288571 
" style="fill:none;stroke:#ff0000;stroke-width:2;"/>
    <path clip-path="url(#pe704cc09a4)" d="M 831.819661 465.374721 
L 831.819661 443.844945 
" style="fill:none;stroke:#ff0000;stroke-width:2;"/>
    <path clip-path="url(#pe704cc09a4)" d="M 845.715614 459.697679 
L 845.715614 446.471977 
" style="fill:none;stroke:#ff0000;stroke-width:2;"/>
    <path clip-path="url(#pe704cc09a4)" d="M 859.611567 467.722637 
L 859.611567 456.811434 
" style="fill:none;stroke:#ff0000;stroke-width:2;"/>
    <path clip-path="url(#pe704cc09a4)" d="M 873.50752 466.472653 
L 873.50752 457.519707 
" style="fill:none;stroke:#ff0000;stroke-width:2;"/>
    <path clip-path="url(#pe704cc09a4)" d="M 887.403473 463.030788 
L 887.403473 456.418934 
" style="fill:none;stroke:#ff0000;stroke-width:2;"/>
    <path clip-path="url(#pe704cc09a4)" d="M 901.299426 462.770868 
L 901.299426 457.940743 
" style="fill:none;stroke:#ff0000;stroke-width:2;"/>
    <path clip-path="url(#pe704cc09a4)" d="M 915.195379 461.503245 
L 915.195379 457.952797 
" style="fill:none;stroke:#ff0000;stroke-width:2;"/>
    <path clip-path="url(#pe704cc09a4)" d="M 929.091332 458.106464 
L 929.091332 454.948352 
" style="fill:none;stroke:#ff0000;stroke-width:2;"/>
    <path clip-path="url(#pe704cc09a4)" d="M 942.987285 459.700405 
L 942.987285 457.524747 
" style="fill:none;stroke:#ff0000;stroke-width:2;"/>
    <path clip-path="url(#pe704cc09a4)" d="M 956.883238 459.266357 
L 956.883238 459.266357 
" style="fill:none;stroke:#ff0000;stroke-width:2;"/>
   </g>
   <g id="line2d_61">
    <path clip-path="url(#pe704cc09a4)" d="M 734.54799 459.266357 
L 748.443943 392.265008 
L 762.339896 380.601386 
L 776.235849 439.427217 
L 790.131802 482.587213 
L 804.027755 488.756611 
L 817.923708 487.174889 
L 831.819661 454.609833 
L 845.715614 453.084828 
L 859.611567 462.267036 
L 873.50752 461.99618 
L 887.403473 459.724861 
L 901.299426 460.355805 
L 915.195379 459.728021 
L 929.091332 456.527408 
L 942.987285 458.612576 
L 956.883238 459.266357 
" style="fill:none;stroke:#000000;stroke-linecap:square;stroke-width:2;"/>
   </g>
   <g id="patch_28">
    <path d="M 723.431228 514.830936 
L 723.431228 317.057736 
" style="fill:none;stroke:#000000;stroke-linecap:square;stroke-linejoin:miter;stroke-width:0.8;"/>
   </g>
   <g id="patch_29">
    <path d="M 968 514.830936 
L 968 317.057736 
" style="fill:none;stroke:#000000;stroke-linecap:square;stroke-linejoin:miter;stroke-width:0.8;"/>
   </g>
   <g id="patch_30">
    <path d="M 723.431228 514.830936 
L 968 514.830936 
" style="fill:none;stroke:#000000;stroke-linecap:square;stroke-linejoin:miter;stroke-width:0.8;"/>
   </g>
   <g id="patch_31">
    <path d="M 723.431228 317.057736 
L 968 317.057736 
" style="fill:none;stroke:#000000;stroke-linecap:square;stroke-linejoin:miter;stroke-width:0.8;"/>
   </g>
  </g>
 </g>
 <defs>
  <clipPath id="pdf98505fed">
   <rect height="197.773199" width="244.568772" x="100.002672" y="63.911226"/>
  </clipPath>
  <clipPath id="p2fbeb54462">
   <rect height="197.773199" width="244.568772" x="411.71695" y="63.911226"/>
  </clipPath>
  <clipPath id="pcb721dfd6b">
   <rect height="197.773199" width="244.568772" x="723.431228" y="63.911226"/>
  </clipPath>
  <clipPath id="p460844e28c">
   <rect height="197.773199" width="244.568772" x="100.002672" y="317.057736"/>
  </clipPath>
  <clipPath id="p2f03aaf774">
   <rect height="197.773199" width="244.568772" x="411.71695" y="317.057736"/>
  </clipPath>
  <clipPath id="pe704cc09a4">
   <rect height="197.773199" width="244.568772" x="723.431228" y="317.057736"/>
  </clipPath>
 </defs>
</svg>
