<?xml version="1.0" encoding="utf-8" standalone="no"?>
<!DOCTYPE svg PUBLIC "-//W3C//DTD SVG 1.1//EN"
  "http://www.w3.org/Graphics/SVG/1.1/DTD/svg11.dtd">
<!-- Created with matplotlib (https://matplotlib.org/) -->
<svg height="576pt" version="1.1" viewBox="0 0 1008 576" width="1008pt" xmlns="http://www.w3.org/2000/svg" xmlns:xlink="http://www.w3.org/1999/xlink">
 <metadata>
  <rdf:RDF xmlns:cc="http://creativecommons.org/ns#" xmlns:dc="http://purl.org/dc/elements/1.1/" xmlns:rdf="http://www.w3.org/1999/02/22-rdf-syntax-ns#">
   <cc:Work>
    <dc:type rdf:resource="http://purl.org/dc/dcmitype/StillImage"/>
    <dc:date>2022-10-12T16:29:31.427220</dc:date>
    <dc:format>image/svg+xml</dc:format>
    <dc:creator>
     <cc:Agent>
      <dc:title>Matplotlib v3.3.4, https://matplotlib.org/</dc:title>
     </cc:Agent>
    </dc:creator>
   </cc:Work>
  </rdf:RDF>
 </metadata>
 <defs>
  <style type="text/css">*{stroke-linecap:butt;stroke-linejoin:round;}</style>
 </defs>
 <g id="figure_1">
  <g id="patch_1">
   <path d="M 0 576 
L 1008 576 
L 1008 0 
L 0 0 
z
" style="fill:#ffffff;"/>
  </g>
  <g id="axes_1">
   <g id="patch_2">
    <path d="M 95.667124 261.684426 
L 346.883737 261.684426 
L 346.883737 63.911226 
L 95.667124 63.911226 
z
" style="fill:#ffffff;"/>
   </g>
   <g id="matplotlib.axis_1">
    <g id="xtick_1">
     <g id="line2d_1">
      <defs>
       <path d="M 0 0 
L 0 3.5 
" id="m36add094ed" style="stroke:#000000;stroke-width:0.8;"/>
      </defs>
      <g>
       <use style="stroke:#000000;stroke-width:0.8;" x="107.08606" xlink:href="#m36add094ed" y="261.684426"/>
      </g>
     </g>
     <g id="text_1">
      <!-- $\mathdefault{0}$ -->
      <g transform="translate(103.184067 279.754014)scale(0.16 -0.16)">
       <defs>
        <path d="M 42 31.640625 
C 42 37.75 41.90625 48.125 37.703125 56.109375 
C 34 63.109375 28.09375 65.59375 22.90625 65.59375 
C 18.09375 65.59375 12 63.40625 8.203125 56.203125 
C 4.203125 48.71875 3.796875 39.4375 3.796875 31.640625 
C 3.796875 25.953125 3.90625 17.28125 7 9.671875 
C 11.296875 -0.609375 19 -2 22.90625 -2 
C 27.5 -2 34.5 -0.109375 38.59375 9.375 
C 41.59375 16.28125 42 24.359375 42 31.640625 
z
M 22.90625 -0.40625 
C 16.5 -0.40625 12.703125 5.078125 11.296875 12.6875 
C 10.203125 18.5625 10.203125 27.15625 10.203125 32.75 
C 10.203125 40.4375 10.203125 46.828125 11.5 52.921875 
C 13.40625 61.390625 19 64 22.90625 64 
C 27 64 32.296875 61.296875 34.203125 53.125 
C 35.5 47.4375 35.59375 40.734375 35.59375 32.75 
C 35.59375 26.25 35.59375 18.265625 34.40625 12.375 
C 32.296875 1.484375 26.40625 -0.40625 22.90625 -0.40625 
z
" id="CMR17-48"/>
       </defs>
       <use transform="scale(0.996264)" xlink:href="#CMR17-48"/>
      </g>
     </g>
    </g>
    <g id="xtick_2">
     <g id="line2d_2">
      <g>
       <use style="stroke:#000000;stroke-width:0.8;" x="180.756622" xlink:href="#m36add094ed" y="261.684426"/>
      </g>
     </g>
     <g id="text_2">
      <!-- $\mathdefault{10}$ -->
      <g transform="translate(172.952635 279.754014)scale(0.16 -0.16)">
       <defs>
        <path d="M 26.59375 63.40625 
C 26.59375 65.5 26.5 65.5 25.09375 65.5 
C 21.203125 61.1875 15.296875 59.796875 9.703125 59.796875 
C 9.40625 59.796875 8.90625 59.796875 8.796875 59.5 
C 8.703125 59.296875 8.703125 59.09375 8.703125 57 
C 11.796875 57 17 57.59375 21 59.984375 
L 21 7.203125 
C 21 3.6875 20.796875 2.5 12.203125 2.5 
L 9.203125 2.5 
L 9.203125 0 
C 14 0 19 0 23.796875 0 
C 28.59375 0 33.59375 0 38.40625 0 
L 38.40625 2.5 
L 35.40625 2.5 
C 26.796875 2.5 26.59375 3.59375 26.59375 7.15625 
z
" id="CMR17-49"/>
       </defs>
       <use transform="scale(0.996264)" xlink:href="#CMR17-49"/>
       <use transform="translate(45.690477 0)scale(0.996264)" xlink:href="#CMR17-48"/>
      </g>
     </g>
    </g>
    <g id="xtick_3">
     <g id="line2d_3">
      <g>
       <use style="stroke:#000000;stroke-width:0.8;" x="254.427183" xlink:href="#m36add094ed" y="261.684426"/>
      </g>
     </g>
     <g id="text_3">
      <!-- $\mathdefault{20}$ -->
      <g transform="translate(246.623196 279.754014)scale(0.16 -0.16)">
       <defs>
        <path d="M 41.703125 15.453125 
L 39.90625 15.453125 
C 38.90625 8.375 38.09375 7.171875 37.703125 6.5625 
C 37.203125 5.765625 30 5.765625 28.59375 5.765625 
L 9.40625 5.765625 
C 13 9.671875 20 16.75 28.5 24.953125 
C 34.59375 30.734375 41.703125 37.53125 41.703125 47.421875 
C 41.703125 59.21875 32.296875 66 21.796875 66 
C 10.796875 66 4.09375 56.3125 4.09375 47.34375 
C 4.09375 43.4375 7 42.9375 8.203125 42.9375 
C 9.203125 42.9375 12.203125 43.546875 12.203125 47.03125 
C 12.203125 50.109375 9.59375 51 8.203125 51 
C 7.59375 51 7 50.90625 6.59375 50.703125 
C 8.5 59.21875 14.296875 63.40625 20.40625 63.40625 
C 29.09375 63.40625 34.796875 56.515625 34.796875 47.421875 
C 34.796875 38.734375 29.703125 31.25 24 24.75 
L 4.09375 2.28125 
L 4.09375 0 
L 39.296875 0 
z
" id="CMR17-50"/>
       </defs>
       <use transform="scale(0.996264)" xlink:href="#CMR17-50"/>
       <use transform="translate(45.690477 0)scale(0.996264)" xlink:href="#CMR17-48"/>
      </g>
     </g>
    </g>
    <g id="xtick_4">
     <g id="line2d_4">
      <g>
       <use style="stroke:#000000;stroke-width:0.8;" x="328.097744" xlink:href="#m36add094ed" y="261.684426"/>
      </g>
     </g>
     <g id="text_4">
      <!-- $\mathdefault{30}$ -->
      <g transform="translate(320.293757 279.754014)scale(0.16 -0.16)">
       <defs>
        <path d="M 22.09375 33.703125 
C 31 33.703125 34.90625 25.96875 34.90625 17.03125 
C 34.90625 5 28.5 0.390625 22.703125 0.390625 
C 17.40625 0.390625 8.796875 3.03125 6.09375 10.828125 
C 6.59375 10.625 7.09375 10.625 7.59375 10.625 
C 10 10.625 11.796875 12.21875 11.796875 14.8125 
C 11.796875 17.703125 9.59375 19 7.59375 19 
C 5.90625 19 3.296875 18.203125 3.296875 14.46875 
C 3.296875 5.234375 12.296875 -2 22.90625 -2 
C 34 -2 42.5 6.71875 42.5 16.953125 
C 42.5 26.671875 34.5 33.703125 25 34.796875 
C 32.59375 36.375 39.90625 43.0625 39.90625 52.015625 
C 39.90625 59.6875 32 65.296875 23 65.296875 
C 13.90625 65.296875 5.90625 59.828125 5.90625 52.015625 
C 5.90625 48.59375 8.5 48 9.796875 48 
C 11.90625 48 13.703125 49.296875 13.703125 51.890625 
C 13.703125 54.46875 11.90625 55.765625 9.796875 55.765625 
C 9.40625 55.765625 8.90625 55.765625 8.5 55.578125 
C 11.40625 61.859375 19.296875 63 22.796875 63 
C 26.296875 63 32.90625 61.328125 32.90625 51.875 
C 32.90625 49.109375 32.5 44.1875 29.09375 39.84375 
C 26.09375 36 22.703125 36 19.40625 35.6875 
C 18.90625 35.6875 16.59375 35.453125 16.203125 35.453125 
C 15.5 35.359375 15.09375 35.265625 15.09375 34.5 
C 15.09375 33.796875 15.203125 33.703125 17.203125 33.703125 
z
" id="CMR17-51"/>
       </defs>
       <use transform="scale(0.996264)" xlink:href="#CMR17-51"/>
       <use transform="translate(45.690477 0)scale(0.996264)" xlink:href="#CMR17-48"/>
      </g>
     </g>
    </g>
   </g>
   <g id="matplotlib.axis_2">
    <g id="ytick_1">
     <g id="line2d_5">
      <defs>
       <path d="M 0 0 
L -3.5 0 
" id="meb2d1c9810" style="stroke:#000000;stroke-width:0.8;"/>
      </defs>
      <g>
       <use style="stroke:#000000;stroke-width:0.8;" x="95.667124" xlink:href="#meb2d1c9810" y="252.981615"/>
      </g>
     </g>
     <g id="text_5">
      <!-- $\mathdefault{0}$ -->
      <g transform="translate(80.863137 258.516409)scale(0.16 -0.16)">
       <use transform="scale(0.996264)" xlink:href="#CMR17-48"/>
      </g>
     </g>
    </g>
    <g id="ytick_2">
     <g id="line2d_6">
      <g>
       <use style="stroke:#000000;stroke-width:0.8;" x="95.667124" xlink:href="#meb2d1c9810" y="214.151335"/>
      </g>
     </g>
     <g id="text_6">
      <!-- $\mathdefault{50}$ -->
      <g transform="translate(73.05915 219.686129)scale(0.16 -0.16)">
       <defs>
        <path d="M 11.40625 57.6875 
C 12.40625 57.28125 16.5 56 20.703125 56 
C 30 56 35.09375 61.109375 38 64.0625 
C 38 64.953125 38 65.5 37.40625 65.5 
C 37.296875 65.5 37.09375 65.5 36.296875 65.046875 
C 32.796875 63.40625 28.703125 62.078125 23.703125 62.078125 
C 20.703125 62.078125 16.203125 62.484375 11.296875 64.671875 
C 10.203125 65.171875 10 65.171875 9.90625 65.171875 
C 9.40625 65.171875 9.296875 65.0625 9.296875 63.078125 
L 9.296875 34.421875 
C 9.296875 32.640625 9.296875 32.140625 10.296875 32.140625 
C 10.796875 32.140625 11 32.34375 11.5 33.03125 
C 14.703125 37.515625 19.09375 39.40625 24.09375 39.40625 
C 27.59375 39.40625 35.09375 37.21875 35.09375 20.140625 
C 35.09375 16.953125 35.09375 11.171875 32.09375 6.578125 
C 29.59375 2.484375 25.703125 0.390625 21.40625 0.390625 
C 14.796875 0.390625 8.09375 5 6.296875 12.71875 
C 6.703125 12.609375 7.5 12.421875 7.90625 12.421875 
C 9.203125 12.421875 11.703125 13.125 11.703125 16.21875 
C 11.703125 18.90625 9.796875 20 7.90625 20 
C 5.59375 20 4.09375 18.59375 4.09375 15.796875 
C 4.09375 7.09375 11 -2 21.59375 -2 
C 31.90625 -2 41.703125 6.875 41.703125 19.75 
C 41.703125 31.71875 33.90625 41 24.203125 41 
C 19.09375 41 14.796875 39.109375 11.40625 35.53125 
z
" id="CMR17-53"/>
       </defs>
       <use transform="scale(0.996264)" xlink:href="#CMR17-53"/>
       <use transform="translate(45.690477 0)scale(0.996264)" xlink:href="#CMR17-48"/>
      </g>
     </g>
    </g>
    <g id="ytick_3">
     <g id="line2d_7">
      <g>
       <use style="stroke:#000000;stroke-width:0.8;" x="95.667124" xlink:href="#meb2d1c9810" y="175.321055"/>
      </g>
     </g>
     <g id="text_7">
      <!-- $\mathdefault{100}$ -->
      <g transform="translate(65.255163 180.855849)scale(0.16 -0.16)">
       <use transform="scale(0.996264)" xlink:href="#CMR17-49"/>
       <use transform="translate(45.690477 0)scale(0.996264)" xlink:href="#CMR17-48"/>
       <use transform="translate(91.380954 0)scale(0.996264)" xlink:href="#CMR17-48"/>
      </g>
     </g>
    </g>
    <g id="ytick_4">
     <g id="line2d_8">
      <g>
       <use style="stroke:#000000;stroke-width:0.8;" x="95.667124" xlink:href="#meb2d1c9810" y="136.490775"/>
      </g>
     </g>
     <g id="text_8">
      <!-- $\mathdefault{150}$ -->
      <g transform="translate(65.255163 142.02557)scale(0.16 -0.16)">
       <use transform="scale(0.996264)" xlink:href="#CMR17-49"/>
       <use transform="translate(45.690477 0)scale(0.996264)" xlink:href="#CMR17-53"/>
       <use transform="translate(91.380954 0)scale(0.996264)" xlink:href="#CMR17-48"/>
      </g>
     </g>
    </g>
    <g id="ytick_5">
     <g id="line2d_9">
      <g>
       <use style="stroke:#000000;stroke-width:0.8;" x="95.667124" xlink:href="#meb2d1c9810" y="97.660496"/>
      </g>
     </g>
     <g id="text_9">
      <!-- $\mathdefault{200}$ -->
      <g transform="translate(65.255163 103.19529)scale(0.16 -0.16)">
       <use transform="scale(0.996264)" xlink:href="#CMR17-50"/>
       <use transform="translate(45.690477 0)scale(0.996264)" xlink:href="#CMR17-48"/>
       <use transform="translate(91.380954 0)scale(0.996264)" xlink:href="#CMR17-48"/>
      </g>
     </g>
    </g>
    <g id="text_10">
     <!-- Real -->
     <g transform="translate(56.604405 184.258418)rotate(-90)scale(0.24 -0.24)">
      <defs>
       <path d="M 39.203125 33.53125 
C 48.703125 35.4375 56.703125 41.8125 56.703125 49.78125 
C 56.703125 59.140625 46.09375 67.59375 32.09375 67.59375 
L 5.203125 67.59375 
L 5.203125 65 
C 12.09375 65 13.203125 65 13.203125 60.515625 
L 13.203125 6.484375 
C 13.203125 2 12.09375 2 5.203125 2 
L 5.203125 -0.40625 
C 8.09375 -0.40625 13.296875 -0.40625 16.40625 -0.40625 
C 19.5 -0.40625 24.703125 -0.40625 27.59375 -0.40625 
L 27.59375 2 
C 20.703125 2 19.59375 2 19.59375 6.515625 
L 19.59375 33 
L 31.296875 33 
C 37 33 40.203125 30.6875 41.59375 29.390625 
C 45.59375 25.5 45.59375 22.796875 45.59375 16 
C 45.59375 9.296875 45.59375 5.890625 48.59375 2.5 
C 52.40625 -1.59375 57.5 -2 59.703125 -2 
C 67.09375 -2 68.203125 6.1875 68.203125 7.859375 
C 68.203125 8.4375 68.203125 9.140625 67.296875 9.140625 
C 66.5 9.140625 66.40625 8.546875 66.40625 8.15625 
C 65.90625 1.75 63 -0.40625 59.90625 -0.40625 
C 54.40625 -0.40625 53.796875 5.859375 53.203125 11.9375 
C 52.90625 14.03125 52.703125 15.515625 52.5 17.703125 
C 51.90625 22.6875 51.09375 29.953125 39.203125 33.53125 
z
M 31 34.59375 
L 19.59375 34.59375 
L 19.59375 61.140625 
C 19.59375 64.515625 19.796875 65 23.796875 65 
L 31.09375 65 
C 39.40625 65 49.09375 62.140625 49.09375 49.84375 
C 49.09375 37.0625 38.5 34.59375 31 34.59375 
z
" id="CMR17-82"/>
       <path d="M 38.09375 23 
C 38.5 23.40625 38.5 23.609375 38.5 24.625 
C 38.5 34.96875 33.09375 44 21.703125 44 
C 11.09375 44 2.703125 33.890625 2.703125 21.609375 
C 2.703125 8.609375 12.203125 -1 22.796875 -1 
C 34 -1 38.40625 9.484375 38.40625 11.5625 
C 38.40625 12.25 37.796875 12.25 37.59375 12.25 
C 36.90625 12.25 36.796875 12.046875 36.40625 10.875 
C 34.203125 4.140625 28.703125 0.796875 23.5 0.796875 
C 19.203125 0.796875 14.90625 3.171875 12.203125 7.5 
C 9.09375 12.546875 9.09375 18.375 9.09375 23 
z
M 9.203125 24.5 
C 9.90625 39.140625 17.59375 42.40625 21.59375 42.40625 
C 28.40625 42.40625 33 35.890625 33.09375 24.5 
z
" id="CMR17-101"/>
       <path d="M 36 25.828125 
C 36 32.375 36 35.84375 31.796875 39.734375 
C 28.09375 43 23.796875 44 20.40625 44 
C 12.5 44 6.796875 37.609375 6.796875 30.796875 
C 6.796875 27 9.796875 27 10.40625 27 
C 11.703125 27 14 27.78125 14 30.53125 
C 14 33 12.09375 34.078125 10.40625 34.078125 
C 10 34.078125 9.5 33.96875 9.203125 33.875 
C 11.296875 40.5 16.703125 42.40625 20.203125 42.40625 
C 25.203125 42.40625 30.703125 37.953125 30.703125 29.453125 
L 30.703125 25 
C 24.796875 25 17.703125 24.203125 12.09375 21.203125 
C 5.796875 17.703125 4 12.703125 4 8.90625 
C 4 1.203125 13 -1 18.296875 -1 
C 23.796875 -1 28.90625 2.171875 31.09375 7.984375 
C 31.296875 3.640625 34.09375 -0.28125 38.5 -0.28125 
C 40.59375 -0.28125 45.90625 1.09375 45.90625 8.859375 
L 45.90625 14.375 
L 44.09375 14.375 
L 44.09375 8.78125 
C 44.09375 2.78125 41.40625 2 40.09375 2 
C 36 2 36 7.15625 36 11.53125 
z
M 30.703125 13.59375 
C 30.703125 4.953125 24.5 0.59375 19 0.59375 
C 14 0.59375 10.09375 4.296875 10.09375 8.90625 
C 10.09375 11.890625 11.40625 17.1875 17.203125 20.390625 
C 22 23.09375 27.5 23.5 30.703125 23.5 
z
" id="CMR17-97"/>
       <path d="M 15.296875 68.6875 
L 3.40625 67.59375 
L 3.40625 65 
C 9.296875 65 10.203125 64.40625 10.203125 59.640625 
L 10.203125 6.65625 
C 10.203125 2.875 9.796875 2.390625 3.40625 2.390625 
L 3.40625 -0.203125 
C 5.796875 0 10.203125 0 12.703125 0 
C 15.296875 0 19.703125 0 22.09375 -0.203125 
L 22.09375 2.390625 
C 15.703125 2.390625 15.296875 2.78125 15.296875 6.65625 
z
" id="CMR17-108"/>
      </defs>
      <use transform="scale(0.996264)" xlink:href="#CMR17-82"/>
      <use transform="translate(67.791102 0)scale(0.996264)" xlink:href="#CMR17-101"/>
      <use transform="translate(108.276762 0)scale(0.996264)" xlink:href="#CMR17-97"/>
      <use transform="translate(153.96724 0)scale(0.996264)" xlink:href="#CMR17-108"/>
     </g>
    </g>
   </g>
   <g id="LineCollection_1">
    <path clip-path="url(#p84a9190e0a)" d="M 107.08606 73.275574 
L 107.08606 72.900917 
" style="fill:none;stroke:#ff0000;stroke-width:2;"/>
    <path clip-path="url(#p84a9190e0a)" d="M 114.453117 186.198122 
L 114.453117 186.050362 
" style="fill:none;stroke:#ff0000;stroke-width:2;"/>
    <path clip-path="url(#p84a9190e0a)" d="M 121.820173 220.567502 
L 121.820173 220.394195 
" style="fill:none;stroke:#ff0000;stroke-width:2;"/>
    <path clip-path="url(#p84a9190e0a)" d="M 129.187229 235.128512 
L 129.187229 234.93906 
" style="fill:none;stroke:#ff0000;stroke-width:2;"/>
    <path clip-path="url(#p84a9190e0a)" d="M 136.554285 242.332839 
L 136.554285 242.147676 
" style="fill:none;stroke:#ff0000;stroke-width:2;"/>
    <path clip-path="url(#p84a9190e0a)" d="M 143.921341 246.235309 
L 143.921341 246.08259 
" style="fill:none;stroke:#ff0000;stroke-width:2;"/>
    <path clip-path="url(#p84a9190e0a)" d="M 151.288397 248.515379 
L 151.288397 248.371343 
" style="fill:none;stroke:#ff0000;stroke-width:2;"/>
    <path clip-path="url(#p84a9190e0a)" d="M 158.655453 249.919737 
L 158.655453 249.789038 
" style="fill:none;stroke:#ff0000;stroke-width:2;"/>
    <path clip-path="url(#p84a9190e0a)" d="M 166.022509 250.840556 
L 166.022509 250.742746 
" style="fill:none;stroke:#ff0000;stroke-width:2;"/>
    <path clip-path="url(#p84a9190e0a)" d="M 173.389565 251.480083 
L 173.389565 251.40491 
" style="fill:none;stroke:#ff0000;stroke-width:2;"/>
    <path clip-path="url(#p84a9190e0a)" d="M 180.756622 251.923728 
L 180.756622 251.865277 
" style="fill:none;stroke:#ff0000;stroke-width:2;"/>
    <path clip-path="url(#p84a9190e0a)" d="M 188.123678 252.225795 
L 188.123678 252.186508 
" style="fill:none;stroke:#ff0000;stroke-width:2;"/>
    <path clip-path="url(#p84a9190e0a)" d="M 195.490734 252.426658 
L 195.490734 252.398568 
" style="fill:none;stroke:#ff0000;stroke-width:2;"/>
    <path clip-path="url(#p84a9190e0a)" d="M 202.85779 252.563131 
L 202.85779 252.540901 
" style="fill:none;stroke:#ff0000;stroke-width:2;"/>
    <path clip-path="url(#p84a9190e0a)" d="M 210.224846 252.64433 
L 210.224846 252.625326 
" style="fill:none;stroke:#ff0000;stroke-width:2;"/>
    <path clip-path="url(#p84a9190e0a)" d="M 217.591902 252.688011 
L 217.591902 252.66957 
" style="fill:none;stroke:#ff0000;stroke-width:2;"/>
    <path clip-path="url(#p84a9190e0a)" d="M 224.958958 252.694735 
L 224.958958 252.677469 
" style="fill:none;stroke:#ff0000;stroke-width:2;"/>
    <path clip-path="url(#p84a9190e0a)" d="M 232.326014 252.666796 
L 232.326014 252.649029 
" style="fill:none;stroke:#ff0000;stroke-width:2;"/>
    <path clip-path="url(#p84a9190e0a)" d="M 239.69307 252.597588 
L 239.69307 252.571899 
" style="fill:none;stroke:#ff0000;stroke-width:2;"/>
    <path clip-path="url(#p84a9190e0a)" d="M 247.060127 252.483052 
L 247.060127 252.453832 
" style="fill:none;stroke:#ff0000;stroke-width:2;"/>
    <path clip-path="url(#p84a9190e0a)" d="M 254.427183 252.316383 
L 254.427183 252.276733 
" style="fill:none;stroke:#ff0000;stroke-width:2;"/>
    <path clip-path="url(#p84a9190e0a)" d="M 261.794239 252.079749 
L 261.794239 252.033625 
" style="fill:none;stroke:#ff0000;stroke-width:2;"/>
    <path clip-path="url(#p84a9190e0a)" d="M 269.161295 251.762022 
L 269.161295 251.701015 
" style="fill:none;stroke:#ff0000;stroke-width:2;"/>
    <path clip-path="url(#p84a9190e0a)" d="M 276.528351 251.314355 
L 276.528351 251.231274 
" style="fill:none;stroke:#ff0000;stroke-width:2;"/>
    <path clip-path="url(#p84a9190e0a)" d="M 283.895407 250.675093 
L 283.895407 250.573301 
" style="fill:none;stroke:#ff0000;stroke-width:2;"/>
    <path clip-path="url(#p84a9190e0a)" d="M 291.262463 249.756975 
L 291.262463 249.634593 
" style="fill:none;stroke:#ff0000;stroke-width:2;"/>
    <path clip-path="url(#p84a9190e0a)" d="M 298.629519 248.370407 
L 298.629519 248.215003 
" style="fill:none;stroke:#ff0000;stroke-width:2;"/>
    <path clip-path="url(#p84a9190e0a)" d="M 305.996575 246.13089 
L 305.996575 245.954733 
" style="fill:none;stroke:#ff0000;stroke-width:2;"/>
    <path clip-path="url(#p84a9190e0a)" d="M 313.363631 242.244691 
L 313.363631 242.086982 
" style="fill:none;stroke:#ff0000;stroke-width:2;"/>
    <path clip-path="url(#p84a9190e0a)" d="M 320.730688 235.127166 
L 320.730688 234.969882 
" style="fill:none;stroke:#ff0000;stroke-width:2;"/>
    <path clip-path="url(#p84a9190e0a)" d="M 328.097744 220.516385 
L 328.097744 220.382091 
" style="fill:none;stroke:#ff0000;stroke-width:2;"/>
    <path clip-path="url(#p84a9190e0a)" d="M 335.4648 186.30998 
L 335.4648 186.148902 
" style="fill:none;stroke:#ff0000;stroke-width:2;"/>
   </g>
   <g id="line2d_10">
    <path clip-path="url(#p84a9190e0a)" d="M 107.08606 73.088246 
L 114.453117 186.124242 
L 121.820173 220.480848 
L 129.187229 235.033786 
L 136.554285 242.240258 
L 143.921341 246.15895 
L 151.288397 248.443361 
L 158.655453 249.854387 
L 166.022509 250.791651 
L 173.389565 251.442497 
L 180.756622 251.894502 
L 188.123678 252.206152 
L 195.490734 252.412613 
L 202.85779 252.552016 
L 210.224846 252.634828 
L 217.591902 252.67879 
L 224.958958 252.686102 
L 232.326014 252.657912 
L 239.69307 252.584743 
L 247.060127 252.468442 
L 254.427183 252.296558 
L 261.794239 252.056687 
L 269.161295 251.731518 
L 276.528351 251.272814 
L 283.895407 250.624197 
L 291.262463 249.695784 
L 298.629519 248.292705 
L 305.996575 246.042811 
L 313.363631 242.165837 
L 320.730688 235.048524 
L 328.097744 220.449238 
L 335.4648 186.229441 
" style="fill:none;stroke:#000000;stroke-linecap:square;stroke-width:2;"/>
   </g>
   <g id="patch_3">
    <path d="M 95.667124 261.684426 
L 95.667124 63.911226 
" style="fill:none;stroke:#000000;stroke-linecap:square;stroke-linejoin:miter;stroke-width:0.8;"/>
   </g>
   <g id="patch_4">
    <path d="M 346.883737 261.684426 
L 346.883737 63.911226 
" style="fill:none;stroke:#000000;stroke-linecap:square;stroke-linejoin:miter;stroke-width:0.8;"/>
   </g>
   <g id="patch_5">
    <path d="M 95.667124 261.684426 
L 346.883737 261.684426 
" style="fill:none;stroke:#000000;stroke-linecap:square;stroke-linejoin:miter;stroke-width:0.8;"/>
   </g>
   <g id="patch_6">
    <path d="M 95.667124 63.911226 
L 346.883737 63.911226 
" style="fill:none;stroke:#000000;stroke-linecap:square;stroke-linejoin:miter;stroke-width:0.8;"/>
   </g>
   <g id="text_11">
    <!-- $C(t)$ -->
    <g transform="translate(199.347277 57.911226)scale(0.24 -0.24)">
     <defs>
      <path d="M 74.703125 69.109375 
C 74.703125 70 74 70 73.796875 70 
C 73.59375 70 73.203125 70 72.40625 69 
L 65.5 60.65625 
C 62 66.625 56.5 70 49 70 
C 27.40625 70 5 48.25 5 24.921875 
C 5 8.328125 16.703125 -2 31.296875 -2 
C 39.296875 -2 46.296875 1.375 52.09375 6.25 
C 60.796875 13.484375 63.40625 23.140625 63.40625 23.921875 
C 63.40625 24.8125 62.59375 24.8125 62.296875 24.8125 
C 61.40625 24.8125 61.296875 24.21875 61.09375 23.8125 
C 56.5 8.34375 43 0.890625 33 0.890625 
C 22.40625 0.890625 13.203125 7.640625 13.203125 21.734375 
C 13.203125 24.921875 14.203125 42.1875 25.5 55.1875 
C 31 61.546875 40.40625 67.109375 49.90625 67.109375 
C 60.90625 67.109375 65.796875 58.078125 65.796875 47.9375 
C 65.796875 45.359375 65.5 43.1875 65.5 42.78125 
C 65.5 41.890625 66.5 41.890625 66.796875 41.890625 
C 67.90625 41.890625 68 41.984375 68.40625 43.765625 
z
" id="CMMI12-67"/>
      <path d="M 30.59375 -24.390625 
C 30.59375 -24.296875 30.59375 -24.09375 30.296875 -23.796875 
C 25.703125 -19.125 13.40625 -6.359375 13.40625 24.703125 
C 13.40625 55.765625 25.5 68.421875 30.40625 73.390625 
C 30.40625 73.5 30.59375 73.703125 30.59375 74 
C 30.59375 74.296875 30.296875 74.5 29.90625 74.5 
C 28.796875 74.5 20.296875 67.125 15.40625 56.15625 
C 10.40625 45.109375 9 34.359375 9 24.8125 
C 9 17.625 9.703125 5.484375 15.703125 -7.359375 
C 20.5 -17.734375 28.703125 -25 29.90625 -25 
C 30.40625 -25 30.59375 -24.796875 30.59375 -24.390625 
z
" id="CMR17-40"/>
      <path d="M 20.09375 40.09375 
L 29.296875 40.09375 
C 31.203125 40.09375 32.203125 40.09375 32.203125 41.890625 
C 32.203125 43 31.59375 43 29.59375 43 
L 20.796875 43 
L 24.5 57.6875 
C 24.90625 59.078125 24.90625 59.28125 24.90625 60 
C 24.90625 61.609375 23.59375 62.5 22.296875 62.5 
C 21.5 62.5 19.203125 62.203125 18.40625 58.984375 
L 14.5 43 
L 5.09375 43 
C 3.09375 43 2.203125 43 2.203125 41.09375 
C 2.203125 40.09375 2.90625 40.09375 4.796875 40.09375 
L 13.703125 40.09375 
L 7.09375 13.765625 
C 6.296875 10.28125 6 9.28125 6 7.984375 
C 6 3.296875 9.296875 -1 14.90625 -1 
C 25 -1 30.40625 13.5625 30.40625 14.25 
C 30.40625 14.859375 30 15.15625 29.40625 15.15625 
C 29.203125 15.15625 28.796875 15.15625 28.59375 14.75 
C 28.5 14.65625 28.40625 14.546875 27.703125 12.953125 
C 25.59375 7.984375 21 1 15.203125 1 
C 12.203125 1 12 3.5 12 5.6875 
C 12 5.78125 12 7.6875 12.296875 8.875 
z
" id="CMMI12-116"/>
      <path d="M 26.296875 24.703125 
C 26.296875 31.875 25.59375 44.015625 19.59375 56.859375 
C 14.796875 67.234375 6.59375 74.5 5.40625 74.5 
C 5.09375 74.5 4.703125 74.390625 4.703125 73.890625 
C 4.703125 73.703125 4.796875 73.59375 4.90625 73.390625 
C 9.703125 68.40625 21.90625 55.75 21.90625 24.75 
C 21.90625 -6.359375 9.796875 -19.015625 4.90625 -24.015625 
C 4.796875 -24.203125 4.703125 -24.3125 4.703125 -24.5 
C 4.703125 -25 5.09375 -25 5.40625 -25 
C 6.5 -25 15 -17.625 19.90625 -6.65625 
C 24.90625 4.390625 26.296875 15.140625 26.296875 24.703125 
z
" id="CMR17-41"/>
     </defs>
     <use transform="scale(0.996264)" xlink:href="#CMMI12-67"/>
     <use transform="translate(76.946847 0)scale(0.996264)" xlink:href="#CMR17-40"/>
     <use transform="translate(112.227614 0)scale(0.996264)" xlink:href="#CMMI12-116"/>
     <use transform="translate(147.453945 0)scale(0.996264)" xlink:href="#CMR17-41"/>
    </g>
   </g>
  </g>
  <g id="axes_2">
   <g id="patch_7">
    <path d="M 406.225255 261.684426 
L 657.441868 261.684426 
L 657.441868 63.911226 
L 406.225255 63.911226 
z
" style="fill:#ffffff;"/>
   </g>
   <g id="matplotlib.axis_3">
    <g id="xtick_5">
     <g id="line2d_11">
      <g>
       <use style="stroke:#000000;stroke-width:0.8;" x="417.644192" xlink:href="#m36add094ed" y="261.684426"/>
      </g>
     </g>
     <g id="text_12">
      <!-- $\mathdefault{0}$ -->
      <g transform="translate(413.742199 279.754014)scale(0.16 -0.16)">
       <use transform="scale(0.996264)" xlink:href="#CMR17-48"/>
      </g>
     </g>
    </g>
    <g id="xtick_6">
     <g id="line2d_12">
      <g>
       <use style="stroke:#000000;stroke-width:0.8;" x="489.012548" xlink:href="#m36add094ed" y="261.684426"/>
      </g>
     </g>
     <g id="text_13">
      <!-- $\mathdefault{5}$ -->
      <g transform="translate(485.110555 279.754014)scale(0.16 -0.16)">
       <use transform="scale(0.996264)" xlink:href="#CMR17-53"/>
      </g>
     </g>
    </g>
    <g id="xtick_7">
     <g id="line2d_13">
      <g>
       <use style="stroke:#000000;stroke-width:0.8;" x="560.380904" xlink:href="#m36add094ed" y="261.684426"/>
      </g>
     </g>
     <g id="text_14">
      <!-- $\mathdefault{10}$ -->
      <g transform="translate(552.576917 279.754014)scale(0.16 -0.16)">
       <use transform="scale(0.996264)" xlink:href="#CMR17-49"/>
       <use transform="translate(45.690477 0)scale(0.996264)" xlink:href="#CMR17-48"/>
      </g>
     </g>
    </g>
    <g id="xtick_8">
     <g id="line2d_14">
      <g>
       <use style="stroke:#000000;stroke-width:0.8;" x="631.74926" xlink:href="#m36add094ed" y="261.684426"/>
      </g>
     </g>
     <g id="text_15">
      <!-- $\mathdefault{15}$ -->
      <g transform="translate(623.945273 279.754014)scale(0.16 -0.16)">
       <use transform="scale(0.996264)" xlink:href="#CMR17-49"/>
       <use transform="translate(45.690477 0)scale(0.996264)" xlink:href="#CMR17-53"/>
      </g>
     </g>
    </g>
   </g>
   <g id="matplotlib.axis_4">
    <g id="ytick_6">
     <g id="line2d_15">
      <g>
       <use style="stroke:#000000;stroke-width:0.8;" x="406.225255" xlink:href="#meb2d1c9810" y="252.981615"/>
      </g>
     </g>
     <g id="text_16">
      <!-- $\mathdefault{0}$ -->
      <g transform="translate(391.421268 258.516409)scale(0.16 -0.16)">
       <use transform="scale(0.996264)" xlink:href="#CMR17-48"/>
      </g>
     </g>
    </g>
    <g id="ytick_7">
     <g id="line2d_16">
      <g>
       <use style="stroke:#000000;stroke-width:0.8;" x="406.225255" xlink:href="#meb2d1c9810" y="214.151335"/>
      </g>
     </g>
     <g id="text_17">
      <!-- $\mathdefault{50}$ -->
      <g transform="translate(383.617281 219.686129)scale(0.16 -0.16)">
       <use transform="scale(0.996264)" xlink:href="#CMR17-53"/>
       <use transform="translate(45.690477 0)scale(0.996264)" xlink:href="#CMR17-48"/>
      </g>
     </g>
    </g>
    <g id="ytick_8">
     <g id="line2d_17">
      <g>
       <use style="stroke:#000000;stroke-width:0.8;" x="406.225255" xlink:href="#meb2d1c9810" y="175.321055"/>
      </g>
     </g>
     <g id="text_18">
      <!-- $\mathdefault{100}$ -->
      <g transform="translate(375.813294 180.855849)scale(0.16 -0.16)">
       <use transform="scale(0.996264)" xlink:href="#CMR17-49"/>
       <use transform="translate(45.690477 0)scale(0.996264)" xlink:href="#CMR17-48"/>
       <use transform="translate(91.380954 0)scale(0.996264)" xlink:href="#CMR17-48"/>
      </g>
     </g>
    </g>
    <g id="ytick_9">
     <g id="line2d_18">
      <g>
       <use style="stroke:#000000;stroke-width:0.8;" x="406.225255" xlink:href="#meb2d1c9810" y="136.490775"/>
      </g>
     </g>
     <g id="text_19">
      <!-- $\mathdefault{150}$ -->
      <g transform="translate(375.813294 142.02557)scale(0.16 -0.16)">
       <use transform="scale(0.996264)" xlink:href="#CMR17-49"/>
       <use transform="translate(45.690477 0)scale(0.996264)" xlink:href="#CMR17-53"/>
       <use transform="translate(91.380954 0)scale(0.996264)" xlink:href="#CMR17-48"/>
      </g>
     </g>
    </g>
    <g id="ytick_10">
     <g id="line2d_19">
      <g>
       <use style="stroke:#000000;stroke-width:0.8;" x="406.225255" xlink:href="#meb2d1c9810" y="97.660496"/>
      </g>
     </g>
     <g id="text_20">
      <!-- $\mathdefault{200}$ -->
      <g transform="translate(375.813294 103.19529)scale(0.16 -0.16)">
       <use transform="scale(0.996264)" xlink:href="#CMR17-50"/>
       <use transform="translate(45.690477 0)scale(0.996264)" xlink:href="#CMR17-48"/>
       <use transform="translate(91.380954 0)scale(0.996264)" xlink:href="#CMR17-48"/>
      </g>
     </g>
    </g>
   </g>
   <g id="LineCollection_2">
    <path clip-path="url(#p806409d164)" d="M 417.644192 73.275574 
L 417.644192 72.900917 
" style="fill:none;stroke:#ff0000;stroke-width:2;"/>
    <path clip-path="url(#p806409d164)" d="M 431.917863 186.230695 
L 431.917863 186.122988 
" style="fill:none;stroke:#ff0000;stroke-width:2;"/>
    <path clip-path="url(#p806409d164)" d="M 446.191535 220.521761 
L 446.191535 220.408325 
" style="fill:none;stroke:#ff0000;stroke-width:2;"/>
    <path clip-path="url(#p806409d164)" d="M 460.465206 235.106646 
L 460.465206 234.975664 
" style="fill:none;stroke:#ff0000;stroke-width:2;"/>
    <path clip-path="url(#p806409d164)" d="M 474.738877 242.26368 
L 474.738877 242.142414 
" style="fill:none;stroke:#ff0000;stroke-width:2;"/>
    <path clip-path="url(#p806409d164)" d="M 489.012548 246.162521 
L 489.012548 246.03924 
" style="fill:none;stroke:#ff0000;stroke-width:2;"/>
    <path clip-path="url(#p806409d164)" d="M 503.286219 248.420433 
L 503.286219 248.315634 
" style="fill:none;stroke:#ff0000;stroke-width:2;"/>
    <path clip-path="url(#p806409d164)" d="M 517.559891 249.817431 
L 517.559891 249.732741 
" style="fill:none;stroke:#ff0000;stroke-width:2;"/>
    <path clip-path="url(#p806409d164)" d="M 531.833562 250.744977 
L 531.833562 250.670871 
" style="fill:none;stroke:#ff0000;stroke-width:2;"/>
    <path clip-path="url(#p806409d164)" d="M 546.107233 251.384647 
L 546.107233 251.330664 
" style="fill:none;stroke:#ff0000;stroke-width:2;"/>
    <path clip-path="url(#p806409d164)" d="M 560.380904 251.833877 
L 560.380904 251.792144 
" style="fill:none;stroke:#ff0000;stroke-width:2;"/>
    <path clip-path="url(#p806409d164)" d="M 574.654575 252.146675 
L 574.654575 252.116164 
" style="fill:none;stroke:#ff0000;stroke-width:2;"/>
    <path clip-path="url(#p806409d164)" d="M 588.928247 252.366213 
L 588.928247 252.342958 
" style="fill:none;stroke:#ff0000;stroke-width:2;"/>
    <path clip-path="url(#p806409d164)" d="M 603.201918 252.519625 
L 603.201918 252.500833 
" style="fill:none;stroke:#ff0000;stroke-width:2;"/>
    <path clip-path="url(#p806409d164)" d="M 617.475589 252.617718 
L 617.475589 252.601854 
" style="fill:none;stroke:#ff0000;stroke-width:2;"/>
    <path clip-path="url(#p806409d164)" d="M 631.74926 252.674988 
L 631.74926 252.661714 
" style="fill:none;stroke:#ff0000;stroke-width:2;"/>
    <path clip-path="url(#p806409d164)" d="M 646.022931 252.694735 
L 646.022931 252.677469 
" style="fill:none;stroke:#ff0000;stroke-width:2;"/>
   </g>
   <g id="line2d_20">
    <path clip-path="url(#p806409d164)" d="M 417.644192 73.088246 
L 431.917863 186.176841 
L 446.191535 220.465043 
L 460.465206 235.041155 
L 474.738877 242.203047 
L 489.012548 246.10088 
L 503.286219 248.368033 
L 517.559891 249.775086 
L 531.833562 250.707924 
L 546.107233 251.357655 
L 560.380904 251.81301 
L 574.654575 252.13142 
L 588.928247 252.354585 
L 603.201918 252.510229 
L 617.475589 252.609786 
L 631.74926 252.668351 
L 646.022931 252.686102 
" style="fill:none;stroke:#000000;stroke-linecap:square;stroke-width:2;"/>
   </g>
   <g id="patch_8">
    <path d="M 406.225255 261.684426 
L 406.225255 63.911226 
" style="fill:none;stroke:#000000;stroke-linecap:square;stroke-linejoin:miter;stroke-width:0.8;"/>
   </g>
   <g id="patch_9">
    <path d="M 657.441868 261.684426 
L 657.441868 63.911226 
" style="fill:none;stroke:#000000;stroke-linecap:square;stroke-linejoin:miter;stroke-width:0.8;"/>
   </g>
   <g id="patch_10">
    <path d="M 406.225255 261.684426 
L 657.441868 261.684426 
" style="fill:none;stroke:#000000;stroke-linecap:square;stroke-linejoin:miter;stroke-width:0.8;"/>
   </g>
   <g id="patch_11">
    <path d="M 406.225255 63.911226 
L 657.441868 63.911226 
" style="fill:none;stroke:#000000;stroke-linecap:square;stroke-linejoin:miter;stroke-width:0.8;"/>
   </g>
   <g id="text_21">
    <!-- Folded $C(t)$ -->
    <g transform="translate(474.494552 57.911226)scale(0.24 -0.24)">
     <defs>
      <path d="M 54.40625 67.578125 
L 5.09375 67.578125 
L 5.09375 65 
C 12 65 13.09375 65 13.09375 60.53125 
L 13.09375 6.96875 
C 13.09375 2.5 12 2.5 5.09375 2.5 
L 5.09375 0 
C 8 0 13.59375 0 16.703125 0 
C 20.796875 0 25.59375 0 29.703125 0 
L 29.703125 2.5 
L 27.5 2.5 
C 19.90625 2.5 19.703125 3.484375 19.703125 7.0625 
L 19.703125 32.421875 
L 28.703125 32.421875 
C 38 32.421875 38.90625 29.140625 38.90625 20.8125 
L 40.703125 20.8125 
L 40.703125 46.671875 
L 38.90625 46.671875 
C 38.90625 38.28125 38 35 28.703125 35 
L 19.703125 35 
L 19.703125 61.109375 
C 19.703125 64.5 19.90625 65 23.90625 65 
L 36.796875 65 
C 51.90625 65 53.59375 58.828125 55 45.5625 
L 56.796875 45.5625 
z
" id="CMR17-70"/>
      <path d="M 43.09375 21.1875 
C 43.09375 34 33.796875 44 22.90625 44 
C 12 44 2.703125 34 2.703125 21.1875 
C 2.703125 8.609375 12 -1 22.90625 -1 
C 33.796875 -1 43.09375 8.609375 43.09375 21.1875 
z
M 22.90625 0.796875 
C 18.203125 0.796875 14.203125 3.59375 11.90625 7.5 
C 9.40625 11.984375 9.09375 17.59375 9.09375 22 
C 9.09375 26.203125 9.296875 31.40625 11.90625 35.90625 
C 13.90625 39.203125 17.796875 42.40625 22.90625 42.40625 
C 27.40625 42.40625 31.203125 39.90625 33.59375 36.40625 
C 36.703125 31.703125 36.703125 25.109375 36.703125 22 
C 36.703125 18.09375 36.5 12.109375 33.796875 7.296875 
C 31 2.703125 26.703125 0.796875 22.90625 0.796875 
z
" id="CMR17-111"/>
      <path d="M 29.203125 67.59375 
L 29.203125 65 
C 35.09375 65 36 64.40625 36 59.6875 
L 36 36.640625 
C 35.59375 37.140625 31.5 43.59375 23.40625 43.59375 
C 13.203125 43.59375 3.296875 34.5 3.296875 21.3125 
C 3.296875 8.203125 12.59375 -1 22.40625 -1 
C 30.90625 -1 35.296875 5.265625 35.796875 5.9375 
L 35.796875 -0.984375 
L 47.90625 -0.984375 
L 47.90625 2 
C 42 2 41.09375 2.59375 41.09375 7.390625 
L 41.09375 68.6875 
z
M 35.796875 11.796875 
C 35.796875 8.796875 34 6.09375 31.703125 4.09375 
C 28.296875 1.09375 24.90625 0.59375 23 0.59375 
C 20.09375 0.59375 9.703125 2.09375 9.703125 21.1875 
C 9.703125 40.8125 21.296875 42 23.90625 42 
C 28.5 42 32.203125 39.40625 34.5 35.796875 
C 35.796875 33.703125 35.796875 33.40625 35.796875 31.609375 
z
" id="CMR17-100"/>
     </defs>
     <use transform="scale(0.996264)" xlink:href="#CMR17-70"/>
     <use transform="translate(52.176591 0)scale(0.996264)" xlink:href="#CMR17-111"/>
     <use transform="translate(97.867068 0)scale(0.996264)" xlink:href="#CMR17-108"/>
     <use transform="translate(122.738127 0)scale(0.996264)" xlink:href="#CMR17-100"/>
     <use transform="translate(173.633497 0)scale(0.996264)" xlink:href="#CMR17-101"/>
     <use transform="translate(214.119157 0)scale(0.996264)" xlink:href="#CMR17-100"/>
     <use transform="translate(295.090493 0)scale(0.996264)" xlink:href="#CMMI12-67"/>
     <use transform="translate(372.03734 0)scale(0.996264)" xlink:href="#CMR17-40"/>
     <use transform="translate(407.318108 0)scale(0.996264)" xlink:href="#CMMI12-116"/>
     <use transform="translate(442.544438 0)scale(0.996264)" xlink:href="#CMR17-41"/>
    </g>
   </g>
  </g>
  <g id="axes_3">
   <g id="patch_12">
    <path d="M 716.783387 261.684426 
L 968 261.684426 
L 968 63.911226 
L 716.783387 63.911226 
z
" style="fill:#ffffff;"/>
   </g>
   <g id="matplotlib.axis_5">
    <g id="xtick_9">
     <g id="line2d_21">
      <g>
       <use style="stroke:#000000;stroke-width:0.8;" x="728.202324" xlink:href="#m36add094ed" y="261.684426"/>
      </g>
     </g>
     <g id="text_22">
      <!-- $\mathdefault{0}$ -->
      <g transform="translate(724.30033 279.754014)scale(0.16 -0.16)">
       <use transform="scale(0.996264)" xlink:href="#CMR17-48"/>
      </g>
     </g>
    </g>
    <g id="xtick_10">
     <g id="line2d_22">
      <g>
       <use style="stroke:#000000;stroke-width:0.8;" x="799.57068" xlink:href="#m36add094ed" y="261.684426"/>
      </g>
     </g>
     <g id="text_23">
      <!-- $\mathdefault{5}$ -->
      <g transform="translate(795.668686 279.754014)scale(0.16 -0.16)">
       <use transform="scale(0.996264)" xlink:href="#CMR17-53"/>
      </g>
     </g>
    </g>
    <g id="xtick_11">
     <g id="line2d_23">
      <g>
       <use style="stroke:#000000;stroke-width:0.8;" x="870.939036" xlink:href="#m36add094ed" y="261.684426"/>
      </g>
     </g>
     <g id="text_24">
      <!-- $\mathdefault{10}$ -->
      <g transform="translate(863.135049 279.754014)scale(0.16 -0.16)">
       <use transform="scale(0.996264)" xlink:href="#CMR17-49"/>
       <use transform="translate(45.690477 0)scale(0.996264)" xlink:href="#CMR17-48"/>
      </g>
     </g>
    </g>
    <g id="xtick_12">
     <g id="line2d_24">
      <g>
       <use style="stroke:#000000;stroke-width:0.8;" x="942.307392" xlink:href="#m36add094ed" y="261.684426"/>
      </g>
     </g>
     <g id="text_25">
      <!-- $\mathdefault{15}$ -->
      <g transform="translate(934.503405 279.754014)scale(0.16 -0.16)">
       <use transform="scale(0.996264)" xlink:href="#CMR17-49"/>
       <use transform="translate(45.690477 0)scale(0.996264)" xlink:href="#CMR17-53"/>
      </g>
     </g>
    </g>
   </g>
   <g id="matplotlib.axis_6">
    <g id="ytick_11">
     <g id="line2d_25">
      <g>
       <use style="stroke:#000000;stroke-width:0.8;" x="716.783387" xlink:href="#meb2d1c9810" y="213.830909"/>
      </g>
     </g>
     <g id="text_26">
      <!-- $\mathdefault{−0.1}$ -->
      <g transform="translate(677.441868 219.365704)scale(0.16 -0.16)">
       <defs>
        <path d="M 65.90625 23 
C 67.59375 23 69.40625 23 69.40625 25 
C 69.40625 27 67.59375 27 65.90625 27 
L 11.796875 27 
C 10.09375 27 8.296875 27 8.296875 25 
C 8.296875 23 10.09375 23 11.796875 23 
z
" id="CMSY10-0"/>
        <path d="M 18.40625 4.796875 
C 18.40625 7.6875 16 9.671875 13.59375 9.671875 
C 10.703125 9.671875 8.703125 7.28125 8.703125 4.890625 
C 8.703125 2 11.09375 0 13.5 0 
C 16.40625 0 18.40625 2.390625 18.40625 4.796875 
z
" id="CMMI12-58"/>
       </defs>
       <use transform="scale(0.996264)" xlink:href="#CMSY10-0"/>
       <use transform="translate(77.487468 0)scale(0.996264)" xlink:href="#CMR17-48"/>
       <use transform="translate(123.177945 0)scale(0.996264)" xlink:href="#CMMI12-58"/>
       <use transform="translate(150.275122 0)scale(0.996264)" xlink:href="#CMR17-49"/>
      </g>
     </g>
    </g>
    <g id="ytick_12">
     <g id="line2d_26">
      <g>
       <use style="stroke:#000000;stroke-width:0.8;" x="716.783387" xlink:href="#meb2d1c9810" y="154.889296"/>
      </g>
     </g>
     <g id="text_27">
      <!-- $\mathdefault{0.0}$ -->
      <g transform="translate(689.839864 160.42409)scale(0.16 -0.16)">
       <use transform="scale(0.996264)" xlink:href="#CMR17-48"/>
       <use transform="translate(45.690477 0)scale(0.996264)" xlink:href="#CMMI12-58"/>
       <use transform="translate(72.787654 0)scale(0.996264)" xlink:href="#CMR17-48"/>
      </g>
     </g>
    </g>
    <g id="ytick_13">
     <g id="line2d_27">
      <g>
       <use style="stroke:#000000;stroke-width:0.8;" x="716.783387" xlink:href="#meb2d1c9810" y="95.947682"/>
      </g>
     </g>
     <g id="text_28">
      <!-- $\mathdefault{0.1}$ -->
      <g transform="translate(689.839864 101.482476)scale(0.16 -0.16)">
       <use transform="scale(0.996264)" xlink:href="#CMR17-48"/>
       <use transform="translate(45.690477 0)scale(0.996264)" xlink:href="#CMMI12-58"/>
       <use transform="translate(72.787654 0)scale(0.996264)" xlink:href="#CMR17-49"/>
      </g>
     </g>
    </g>
   </g>
   <g id="LineCollection_3">
    <path clip-path="url(#p2fbe269b23)" d="M 728.202324 154.889296 
L 728.202324 154.889296 
" style="fill:none;stroke:#ff0000;stroke-width:2;"/>
    <path clip-path="url(#p2fbe269b23)" d="M 742.475995 157.035593 
L 742.475995 72.900917 
" style="fill:none;stroke:#ff0000;stroke-width:2;"/>
    <path clip-path="url(#p2fbe269b23)" d="M 756.749666 206.986588 
L 756.749666 126.78309 
" style="fill:none;stroke:#ff0000;stroke-width:2;"/>
    <path clip-path="url(#p2fbe269b23)" d="M 771.023337 192.827813 
L 771.023337 105.765185 
" style="fill:none;stroke:#ff0000;stroke-width:2;"/>
    <path clip-path="url(#p2fbe269b23)" d="M 785.297009 229.411129 
L 785.297009 136.850194 
" style="fill:none;stroke:#ff0000;stroke-width:2;"/>
    <path clip-path="url(#p2fbe269b23)" d="M 799.57068 240.495048 
L 799.57068 157.428261 
" style="fill:none;stroke:#ff0000;stroke-width:2;"/>
    <path clip-path="url(#p2fbe269b23)" d="M 813.844351 252.694735 
L 813.844351 171.426471 
" style="fill:none;stroke:#ff0000;stroke-width:2;"/>
    <path clip-path="url(#p2fbe269b23)" d="M 828.118022 250.79098 
L 828.118022 179.36174 
" style="fill:none;stroke:#ff0000;stroke-width:2;"/>
    <path clip-path="url(#p2fbe269b23)" d="M 842.391693 243.813479 
L 842.391693 193.056595 
" style="fill:none;stroke:#ff0000;stroke-width:2;"/>
    <path clip-path="url(#p2fbe269b23)" d="M 856.665365 241.285814 
L 856.665365 197.275641 
" style="fill:none;stroke:#ff0000;stroke-width:2;"/>
    <path clip-path="url(#p2fbe269b23)" d="M 870.939036 232.961769 
L 870.939036 200.515952 
" style="fill:none;stroke:#ff0000;stroke-width:2;"/>
    <path clip-path="url(#p2fbe269b23)" d="M 885.212707 223.021646 
L 885.212707 200.195284 
" style="fill:none;stroke:#ff0000;stroke-width:2;"/>
    <path clip-path="url(#p2fbe269b23)" d="M 899.486378 208.528712 
L 899.486378 189.33191 
" style="fill:none;stroke:#ff0000;stroke-width:2;"/>
    <path clip-path="url(#p2fbe269b23)" d="M 913.760049 193.401551 
L 913.760049 179.807074 
" style="fill:none;stroke:#ff0000;stroke-width:2;"/>
    <path clip-path="url(#p2fbe269b23)" d="M 928.033721 180.001423 
L 928.033721 167.789951 
" style="fill:none;stroke:#ff0000;stroke-width:2;"/>
    <path clip-path="url(#p2fbe269b23)" d="M 942.307392 167.485451 
L 942.307392 158.13867 
" style="fill:none;stroke:#ff0000;stroke-width:2;"/>
    <path clip-path="url(#p2fbe269b23)" d="M 956.581063 154.889296 
L 956.581063 154.889296 
" style="fill:none;stroke:#ff0000;stroke-width:2;"/>
   </g>
   <g id="line2d_28">
    <path clip-path="url(#p2fbe269b23)" d="M 728.202324 154.889296 
L 742.475995 114.968255 
L 756.749666 166.884839 
L 771.023337 149.296499 
L 785.297009 183.130662 
L 799.57068 198.961654 
L 813.844351 212.060603 
L 828.118022 215.07636 
L 842.391693 218.435037 
L 856.665365 219.280727 
L 870.939036 216.73886 
L 885.212707 211.608465 
L 899.486378 198.930311 
L 913.760049 186.604313 
L 928.033721 173.895687 
L 942.307392 162.81206 
L 956.581063 154.889296 
" style="fill:none;stroke:#000000;stroke-linecap:square;stroke-width:2;"/>
   </g>
   <g id="patch_13">
    <path d="M 716.783387 261.684426 
L 716.783387 63.911226 
" style="fill:none;stroke:#000000;stroke-linecap:square;stroke-linejoin:miter;stroke-width:0.8;"/>
   </g>
   <g id="patch_14">
    <path d="M 968 261.684426 
L 968 63.911226 
" style="fill:none;stroke:#000000;stroke-linecap:square;stroke-linejoin:miter;stroke-width:0.8;"/>
   </g>
   <g id="patch_15">
    <path d="M 716.783387 261.684426 
L 968 261.684426 
" style="fill:none;stroke:#000000;stroke-linecap:square;stroke-linejoin:miter;stroke-width:0.8;"/>
   </g>
   <g id="patch_16">
    <path d="M 716.783387 63.911226 
L 968 63.911226 
" style="fill:none;stroke:#000000;stroke-linecap:square;stroke-linejoin:miter;stroke-width:0.8;"/>
   </g>
   <g id="text_29">
    <!-- $C(t)$ - Folded $C(t)$ -->
    <g transform="translate(752.297182 57.911226)scale(0.24 -0.24)">
     <defs>
      <path d="M 25.5 19 
L 25.5 23.375 
L 0.40625 23.375 
L 0.40625 19 
z
" id="CMR17-45"/>
     </defs>
     <use transform="scale(0.996264)" xlink:href="#CMMI12-67"/>
     <use transform="translate(76.946847 0)scale(0.996264)" xlink:href="#CMR17-40"/>
     <use transform="translate(112.227614 0)scale(0.996264)" xlink:href="#CMMI12-116"/>
     <use transform="translate(147.453945 0)scale(0.996264)" xlink:href="#CMR17-41"/>
     <use transform="translate(212.810679 0)scale(0.996264)" xlink:href="#CMR17-45"/>
     <use transform="translate(272.962612 0)scale(0.996264)" xlink:href="#CMR17-70"/>
     <use transform="translate(325.139203 0)scale(0.996264)" xlink:href="#CMR17-111"/>
     <use transform="translate(370.82968 0)scale(0.996264)" xlink:href="#CMR17-108"/>
     <use transform="translate(395.700738 0)scale(0.996264)" xlink:href="#CMR17-100"/>
     <use transform="translate(446.596108 0)scale(0.996264)" xlink:href="#CMR17-101"/>
     <use transform="translate(487.081769 0)scale(0.996264)" xlink:href="#CMR17-100"/>
     <use transform="translate(568.053105 0)scale(0.996264)" xlink:href="#CMMI12-67"/>
     <use transform="translate(644.999951 0)scale(0.996264)" xlink:href="#CMR17-40"/>
     <use transform="translate(680.280719 0)scale(0.996264)" xlink:href="#CMMI12-116"/>
     <use transform="translate(715.507049 0)scale(0.996264)" xlink:href="#CMR17-41"/>
    </g>
   </g>
  </g>
  <g id="axes_4">
   <g id="patch_17">
    <path d="M 95.667124 514.830936 
L 346.883737 514.830936 
L 346.883737 317.057736 
L 95.667124 317.057736 
z
" style="fill:#ffffff;"/>
   </g>
   <g id="matplotlib.axis_7">
    <g id="xtick_13">
     <g id="line2d_29">
      <g>
       <use style="stroke:#000000;stroke-width:0.8;" x="107.08606" xlink:href="#m36add094ed" y="514.830936"/>
      </g>
     </g>
     <g id="text_30">
      <!-- $\mathdefault{0}$ -->
      <g transform="translate(103.184067 532.900524)scale(0.16 -0.16)">
       <use transform="scale(0.996264)" xlink:href="#CMR17-48"/>
      </g>
     </g>
    </g>
    <g id="xtick_14">
     <g id="line2d_30">
      <g>
       <use style="stroke:#000000;stroke-width:0.8;" x="180.756622" xlink:href="#m36add094ed" y="514.830936"/>
      </g>
     </g>
     <g id="text_31">
      <!-- $\mathdefault{10}$ -->
      <g transform="translate(172.952635 532.900524)scale(0.16 -0.16)">
       <use transform="scale(0.996264)" xlink:href="#CMR17-49"/>
       <use transform="translate(45.690477 0)scale(0.996264)" xlink:href="#CMR17-48"/>
      </g>
     </g>
    </g>
    <g id="xtick_15">
     <g id="line2d_31">
      <g>
       <use style="stroke:#000000;stroke-width:0.8;" x="254.427183" xlink:href="#m36add094ed" y="514.830936"/>
      </g>
     </g>
     <g id="text_32">
      <!-- $\mathdefault{20}$ -->
      <g transform="translate(246.623196 532.900524)scale(0.16 -0.16)">
       <use transform="scale(0.996264)" xlink:href="#CMR17-50"/>
       <use transform="translate(45.690477 0)scale(0.996264)" xlink:href="#CMR17-48"/>
      </g>
     </g>
    </g>
    <g id="xtick_16">
     <g id="line2d_32">
      <g>
       <use style="stroke:#000000;stroke-width:0.8;" x="328.097744" xlink:href="#m36add094ed" y="514.830936"/>
      </g>
     </g>
     <g id="text_33">
      <!-- $\mathdefault{30}$ -->
      <g transform="translate(320.293757 532.900524)scale(0.16 -0.16)">
       <use transform="scale(0.996264)" xlink:href="#CMR17-51"/>
       <use transform="translate(45.690477 0)scale(0.996264)" xlink:href="#CMR17-48"/>
      </g>
     </g>
    </g>
   </g>
   <g id="matplotlib.axis_8">
    <g id="ytick_14">
     <g id="line2d_33">
      <g>
       <use style="stroke:#000000;stroke-width:0.8;" x="95.667124" xlink:href="#meb2d1c9810" y="479.671336"/>
      </g>
     </g>
     <g id="text_34">
      <!-- $\mathdefault{−5}$ -->
      <g transform="translate(68.46514 485.20613)scale(0.16 -0.16)">
       <use transform="scale(0.996264)" xlink:href="#CMSY10-0"/>
       <use transform="translate(77.487468 0)scale(0.996264)" xlink:href="#CMR17-53"/>
      </g>
     </g>
    </g>
    <g id="ytick_15">
     <g id="line2d_34">
      <g>
       <use style="stroke:#000000;stroke-width:0.8;" x="95.667124" xlink:href="#meb2d1c9810" y="415.306778"/>
      </g>
     </g>
     <g id="text_35">
      <!-- $\mathdefault{0}$ -->
      <g transform="translate(80.863137 420.841572)scale(0.16 -0.16)">
       <use transform="scale(0.996264)" xlink:href="#CMR17-48"/>
      </g>
     </g>
    </g>
    <g id="ytick_16">
     <g id="line2d_35">
      <g>
       <use style="stroke:#000000;stroke-width:0.8;" x="95.667124" xlink:href="#meb2d1c9810" y="350.942219"/>
      </g>
     </g>
     <g id="text_36">
      <!-- $\mathdefault{5}$ -->
      <g transform="translate(80.863137 356.477013)scale(0.16 -0.16)">
       <use transform="scale(0.996264)" xlink:href="#CMR17-53"/>
      </g>
     </g>
    </g>
    <g id="text_37">
     <!-- Imaginary -->
     <g transform="translate(59.814383 464.660674)rotate(-90)scale(0.24 -0.24)">
      <defs>
       <path d="M 19.703125 61.015625 
C 19.703125 65.5 20.90625 65.5 28.09375 65.5 
L 28.09375 68 
C 24.90625 68 19.796875 68 16.40625 68 
C 13 68 7.90625 68 4.703125 68 
L 4.703125 65.5 
C 11.90625 65.5 13.09375 65.5 13.09375 61.015625 
L 13.09375 6.984375 
C 13.09375 2.5 11.90625 2.5 4.703125 2.5 
L 4.703125 0 
C 7.90625 0 13 0 16.40625 0 
C 19.796875 0 24.90625 0 28.09375 0 
L 28.09375 2.5 
C 20.90625 2.5 19.703125 2.5 19.703125 6.984375 
z
" id="CMR17-73"/>
       <path d="M 67.59375 30.203125 
C 67.59375 35.1875 66.703125 43.59375 54.796875 43.59375 
C 48 43.59375 43.296875 39 41.5 33.609375 
L 41.40625 33.609375 
C 40.203125 41.8125 34.296875 43.59375 28.703125 43.59375 
C 20.796875 43.59375 16.703125 37.5 15.203125 33.5 
L 15.09375 33.5 
L 15.09375 43.59375 
L 3.296875 42.5 
L 3.296875 39.90625 
C 9.203125 39.90625 10.09375 39.296875 10.09375 34.5 
L 10.09375 6.6875 
C 10.09375 2.875 9.703125 2.390625 3.296875 2.390625 
L 3.296875 -0.203125 
C 5.703125 0 10.09375 0 12.703125 0 
C 15.296875 0 19.796875 0 22.203125 -0.203125 
L 22.203125 2.390625 
C 15.796875 2.390625 15.40625 2.78125 15.40625 6.6875 
L 15.40625 25.90625 
C 15.40625 35.109375 21 42 28 42 
C 35.40625 42 36.203125 35.40625 36.203125 30.59375 
L 36.203125 6.6875 
C 36.203125 2.875 35.796875 2.390625 29.40625 2.390625 
L 29.40625 -0.203125 
C 31.796875 0 36.203125 0 38.796875 0 
C 41.40625 0 45.90625 0 48.296875 -0.203125 
L 48.296875 2.390625 
C 41.90625 2.390625 41.5 2.78125 41.5 6.6875 
L 41.5 25.90625 
C 41.5 35.109375 47.09375 42 54.09375 42 
C 61.5 42 62.296875 35.40625 62.296875 30.59375 
L 62.296875 6.6875 
C 62.296875 2.875 61.90625 2.390625 55.5 2.390625 
L 55.5 -0.203125 
C 57.90625 0 62.296875 0 64.90625 0 
C 67.5 0 72 0 74.40625 -0.203125 
L 74.40625 2.390625 
C 68 2.390625 67.59375 2.78125 67.59375 6.6875 
z
" id="CMR17-109"/>
       <path d="M 11.09375 18.1875 
C 13 16.6875 16.296875 15 20.296875 15 
C 28.203125 15 35 21.203125 35 29.5 
C 35 32.09375 34.203125 36.09375 31.203125 39.203125 
C 34 42.0625 38.09375 43 40.40625 43 
C 40.796875 43 41.40625 43 41.90625 42.71875 
C 41.5 42.625 40.59375 42.234375 40.59375 40.703125 
C 40.59375 39.484375 41.5 38.609375 42.796875 38.609375 
C 44.296875 38.609375 45.09375 39.578125 45.09375 40.84375 
C 45.09375 42.671875 43.59375 44.59375 40.40625 44.59375 
C 36.40625 44.59375 32.90625 42.78125 30.09375 40.3125 
C 27.09375 43.015625 23.5 44 20.296875 44 
C 12.40625 44 5.59375 37.796875 5.59375 29.5 
C 5.59375 23.78125 8.90625 20.1875 9.90625 19.1875 
C 6.90625 15.6875 6.90625 11.609375 6.90625 11.109375 
C 6.90625 8.515625 7.90625 4.71875 11.296875 2.625 
C 6.09375 1.328125 2 -2.640625 2 -7.59375 
C 2 -14.734375 11.5 -20 22.90625 -20 
C 33.90625 -20 43.796875 -14.9375 43.796875 -7.484375 
C 43.796875 6 29 6 21.296875 6 
C 19 6 14.90625 6 14.40625 6.109375 
C 11.296875 6.609375 9.203125 9.40625 9.203125 12.90625 
C 9.203125 13.796875 9.203125 16 11.09375 18.1875 
z
M 20.296875 16.6875 
C 11.5 16.6875 11.5 27.5 11.5 29.515625 
C 11.5 31.5 11.5 42.3125 20.296875 42.3125 
C 29.09375 42.3125 29.09375 31.5 29.09375 29.515625 
C 29.09375 27.5 29.09375 16.6875 20.296875 16.6875 
z
M 22.90625 -18.296875 
C 12.90625 -18.296875 6 -13.046875 6 -7.59375 
C 6 -4.515625 7.703125 -1.640625 9.90625 -0.0625 
C 12.40625 1.625 13.40625 1.625 20.203125 1.625 
C 28.40625 1.625 39.796875 1.625 39.796875 -7.59375 
C 39.796875 -13.046875 32.90625 -18.296875 22.90625 -18.296875 
z
" id="CMR17-103"/>
       <path d="M 15.5 61.078125 
C 15.5 63.265625 13.703125 65.15625 11.40625 65.15625 
C 9.203125 65.15625 7.296875 63.375 7.296875 61.078125 
C 7.296875 58.890625 9.09375 57 11.40625 57 
C 13.59375 57 15.5 58.796875 15.5 61.078125 
z
M 3.796875 42.28125 
L 3.796875 39.703125 
C 9.40625 39.703125 10.203125 39.09375 10.203125 34.328125 
L 10.203125 6.671875 
C 10.203125 2.875 9.796875 2.390625 3.40625 2.390625 
L 3.40625 -0.203125 
C 5.796875 0 10.09375 0 12.59375 0 
C 15 0 19.09375 0 21.40625 -0.203125 
L 21.40625 2.390625 
C 15.5 2.390625 15.296875 2.984375 15.296875 6.5625 
L 15.296875 43.375 
z
" id="CMR17-105"/>
       <path d="M 41.5 30.203125 
C 41.5 35.296875 40.5 43.59375 28.703125 43.59375 
C 20.796875 43.59375 16.703125 37.5 15.203125 33.5 
L 15.09375 33.5 
L 15.09375 43.59375 
L 3.296875 42.5 
L 3.296875 39.90625 
C 9.203125 39.90625 10.09375 39.296875 10.09375 34.5 
L 10.09375 6.6875 
C 10.09375 2.875 9.703125 2.390625 3.296875 2.390625 
L 3.296875 -0.203125 
C 5.703125 0 10.09375 0 12.703125 0 
C 15.296875 0 19.796875 0 22.203125 -0.203125 
L 22.203125 2.390625 
C 15.796875 2.390625 15.40625 2.78125 15.40625 6.6875 
L 15.40625 25.90625 
C 15.40625 35.109375 21 42 28 42 
C 35.40625 42 36.203125 35.40625 36.203125 30.59375 
L 36.203125 6.6875 
C 36.203125 2.875 35.796875 2.390625 29.40625 2.390625 
L 29.40625 -0.203125 
C 31.796875 0 36.203125 0 38.796875 0 
C 41.40625 0 45.90625 0 48.296875 -0.203125 
L 48.296875 2.390625 
C 41.90625 2.390625 41.5 2.78125 41.5 6.6875 
z
" id="CMR17-110"/>
       <path d="M 15 23.390625 
C 15 33 19.09375 42 26.59375 42 
C 27.296875 42 28 41.90625 28.703125 41.59375 
C 28.703125 41.59375 26.5 40.890625 26.5 38.3125 
C 26.5 35.90625 28.40625 34.90625 29.90625 34.90625 
C 31.09375 34.90625 33.296875 35.609375 33.296875 38.40625 
C 33.296875 41.609375 30.09375 43.59375 26.703125 43.59375 
C 19.09375 43.59375 15.796875 36.203125 14.796875 32.703125 
L 14.703125 32.703125 
L 14.703125 43.59375 
L 3.09375 42.5 
L 3.09375 39.90625 
C 9 39.90625 9.90625 39.296875 9.90625 34.5 
L 9.90625 6.6875 
C 9.90625 2.875 9.5 2.390625 3.09375 2.390625 
L 3.09375 -0.203125 
C 5.5 0 10.09375 0 12.703125 0 
C 15.59375 0 20.703125 0 23.40625 -0.203125 
L 23.40625 2.390625 
C 16.203125 2.390625 15 2.390625 15 6.875 
z
" id="CMR17-114"/>
       <path d="M 39 34.328125 
C 41.5 40.40625 46 40.40625 47.40625 40.40625 
L 47.40625 43 
C 45.5 43 43 43 41.09375 43 
C 39 43 35.703125 43 33.703125 43.09375 
L 33.703125 40.5 
C 37.5 40.203125 37.59375 37.40625 37.59375 36.609375 
C 37.59375 35.625 37.40625 35.125 36.90625 33.921875 
L 26 7.015625 
L 14.09375 36.03125 
C 13.59375 37.21875 13.59375 37.90625 13.59375 38.015625 
C 13.59375 40.203125 15.90625 40.40625 18.296875 40.40625 
L 18.296875 43.09375 
C 15.90625 43 11.59375 43 9.09375 43 
C 6.40625 43 3.203125 43 1 43.09375 
L 1 40.40625 
C 6.40625 40.40625 7 39.90625 8.296875 36.71875 
L 23.203125 0.234375 
C 18.703125 -11.53125 16.09375 -18.40625 9.796875 -18.40625 
C 8.703125 -18.40625 6.203125 -18.109375 4.40625 -16.3125 
C 6.703125 -16.109375 7.703125 -14.71875 7.703125 -13.015625 
C 7.703125 -11.328125 6.5 -9.828125 4.5 -9.828125 
C 2.296875 -9.828125 1.203125 -11.328125 1.203125 -13.125 
C 1.203125 -17.109375 5.296875 -20 9.796875 -20 
C 15.59375 -20 19.203125 -14.40625 21.203125 -9.4375 
z
" id="CMR17-121"/>
      </defs>
      <use transform="scale(0.996264)" xlink:href="#CMR17-73"/>
      <use transform="translate(32.638409 0)scale(0.996264)" xlink:href="#CMR17-109"/>
      <use transform="translate(109.557999 0)scale(0.996264)" xlink:href="#CMR17-97"/>
      <use transform="translate(155.248476 0)scale(0.996264)" xlink:href="#CMR17-103"/>
      <use transform="translate(200.938953 0)scale(0.996264)" xlink:href="#CMR17-105"/>
      <use transform="translate(225.810012 0)scale(0.996264)" xlink:href="#CMR17-110"/>
      <use transform="translate(276.705382 0)scale(0.996264)" xlink:href="#CMR17-97"/>
      <use transform="translate(322.395859 0)scale(0.996264)" xlink:href="#CMR17-114"/>
      <use transform="translate(357.676626 0)scale(0.996264)" xlink:href="#CMR17-121"/>
     </g>
    </g>
    <g id="text_38">
     <!-- $\times\mathdefault{10^{−18}}\mathdefault{}$ -->
     <g transform="translate(95.667124 314.057736)scale(0.16 -0.16)">
      <defs>
       <path d="M 38.90625 27.890625 
L 18.90625 47.796875 
C 17.703125 49 17.5 49.1875 16.703125 49.1875 
C 15.703125 49.1875 14.703125 48.296875 14.703125 47.1875 
C 14.703125 46.5 14.90625 46.296875 16 45.1875 
L 36 25.09375 
L 16 5 
C 14.90625 3.890625 14.703125 3.6875 14.703125 3 
C 14.703125 1.890625 15.703125 1 16.703125 1 
C 17.5 1 17.703125 1.1875 18.90625 2.390625 
L 38.796875 22.296875 
L 59.5 1.59375 
C 59.703125 1.5 60.40625 1 61 1 
C 62.203125 1 63 1.890625 63 3 
C 63 3.1875 63 3.59375 62.703125 4.09375 
C 62.59375 4.296875 46.703125 20 41.703125 25.09375 
L 60 43.390625 
C 60.5 44 62 45.296875 62.5 45.890625 
C 62.59375 46.09375 63 46.5 63 47.1875 
C 63 48.296875 62.203125 49.1875 61 49.1875 
C 60.203125 49.1875 59.796875 48.796875 58.703125 47.6875 
z
" id="CMSY10-2"/>
       <path d="M 27.203125 35.375 
C 33.5 38.546875 39.90625 43.328125 39.90625 50.984375 
C 39.90625 60.015625 31.09375 65.296875 23 65.296875 
C 13.90625 65.296875 5.90625 58.734375 5.90625 49.6875 
C 5.90625 47.203125 6.5 42.921875 10.40625 39.140625 
C 11.40625 38.15625 15.59375 35.171875 18.296875 33.28125 
C 13.796875 30.984375 3.296875 25.53125 3.296875 14.59375 
C 3.296875 4.359375 13.09375 -2 22.796875 -2 
C 33.5 -2 42.5 5.65625 42.5 15.78125 
C 42.5 24.84375 36.40625 29.015625 32.40625 31.703125 
z
M 14.09375 44.09375 
C 13.296875 44.59375 9.296875 47.671875 9.296875 52.359375 
C 9.296875 58.421875 15.59375 63 22.796875 63 
C 30.703125 63 36.5 57.4375 36.5 50.96875 
C 36.5 41.703125 26.09375 36.421875 25.59375 36.421875 
C 25.5 36.421875 25.40625 36.421875 24.59375 37.03125 
z
M 32.5 23.734375 
C 34 22.640625 38.796875 19.375 38.796875 13.296875 
C 38.796875 5.953125 31.40625 0.390625 23 0.390625 
C 13.90625 0.390625 7 6.84375 7 14.6875 
C 7 22.546875 13.09375 29.09375 20 32.1875 
z
" id="CMR17-56"/>
      </defs>
      <use transform="scale(0.996264)" xlink:href="#CMSY10-2"/>
      <use transform="translate(77.487468 0)scale(0.996264)" xlink:href="#CMR17-49"/>
      <use transform="translate(123.177945 0)scale(0.996264)" xlink:href="#CMR17-48"/>
      <use transform="translate(168.868422 36.153639)scale(0.697382)" xlink:href="#CMSY10-0"/>
      <use transform="translate(223.109415 36.153639)scale(0.697382)" xlink:href="#CMR17-49"/>
      <use transform="translate(255.092597 36.153639)scale(0.697382)" xlink:href="#CMR17-56"/>
     </g>
    </g>
   </g>
   <g id="LineCollection_4">
    <path clip-path="url(#p01743a9098)" d="M 107.08606 461.298166 
L 107.08606 381.290296 
" style="fill:none;stroke:#ff0000;stroke-width:2;"/>
    <path clip-path="url(#p01743a9098)" d="M 114.453117 426.560238 
L 114.453117 335.696184 
" style="fill:none;stroke:#ff0000;stroke-width:2;"/>
    <path clip-path="url(#p01743a9098)" d="M 121.820173 390.447364 
L 121.820173 326.047427 
" style="fill:none;stroke:#ff0000;stroke-width:2;"/>
    <path clip-path="url(#p01743a9098)" d="M 129.187229 437.032514 
L 129.187229 405.896806 
" style="fill:none;stroke:#ff0000;stroke-width:2;"/>
    <path clip-path="url(#p01743a9098)" d="M 136.554285 460.898828 
L 136.554285 436.119762 
" style="fill:none;stroke:#ff0000;stroke-width:2;"/>
    <path clip-path="url(#p01743a9098)" d="M 143.921341 417.403664 
L 143.921341 400.776658 
" style="fill:none;stroke:#ff0000;stroke-width:2;"/>
    <path clip-path="url(#p01743a9098)" d="M 151.288397 421.626267 
L 151.288397 408.381329 
" style="fill:none;stroke:#ff0000;stroke-width:2;"/>
    <path clip-path="url(#p01743a9098)" d="M 158.655453 426.035703 
L 158.655453 415.37739 
" style="fill:none;stroke:#ff0000;stroke-width:2;"/>
    <path clip-path="url(#p01743a9098)" d="M 166.022509 422.017333 
L 166.022509 414.792798 
" style="fill:none;stroke:#ff0000;stroke-width:2;"/>
    <path clip-path="url(#p01743a9098)" d="M 173.389565 420.317465 
L 173.389565 415.964635 
" style="fill:none;stroke:#ff0000;stroke-width:2;"/>
    <path clip-path="url(#p01743a9098)" d="M 180.756622 418.438638 
L 180.756622 415.11238 
" style="fill:none;stroke:#ff0000;stroke-width:2;"/>
    <path clip-path="url(#p01743a9098)" d="M 188.123678 417.004488 
L 188.123678 414.549818 
" style="fill:none;stroke:#ff0000;stroke-width:2;"/>
    <path clip-path="url(#p01743a9098)" d="M 195.490734 416.234698 
L 195.490734 414.30191 
" style="fill:none;stroke:#ff0000;stroke-width:2;"/>
    <path clip-path="url(#p01743a9098)" d="M 202.85779 415.707139 
L 202.85779 414.234625 
" style="fill:none;stroke:#ff0000;stroke-width:2;"/>
    <path clip-path="url(#p01743a9098)" d="M 210.224846 414.986493 
L 210.224846 413.814114 
" style="fill:none;stroke:#ff0000;stroke-width:2;"/>
    <path clip-path="url(#p01743a9098)" d="M 217.591902 416.501342 
L 217.591902 415.32961 
" style="fill:none;stroke:#ff0000;stroke-width:2;"/>
    <path clip-path="url(#p01743a9098)" d="M 224.958958 415.311489 
L 224.958958 414.416935 
" style="fill:none;stroke:#ff0000;stroke-width:2;"/>
    <path clip-path="url(#p01743a9098)" d="M 232.326014 415.561874 
L 232.326014 414.645589 
" style="fill:none;stroke:#ff0000;stroke-width:2;"/>
    <path clip-path="url(#p01743a9098)" d="M 239.69307 415.790832 
L 239.69307 414.493333 
" style="fill:none;stroke:#ff0000;stroke-width:2;"/>
    <path clip-path="url(#p01743a9098)" d="M 247.060127 415.989745 
L 247.060127 414.231412 
" style="fill:none;stroke:#ff0000;stroke-width:2;"/>
    <path clip-path="url(#p01743a9098)" d="M 254.427183 416.893322 
L 254.427183 415.074889 
" style="fill:none;stroke:#ff0000;stroke-width:2;"/>
    <path clip-path="url(#p01743a9098)" d="M 261.794239 420.504386 
L 261.794239 417.448681 
" style="fill:none;stroke:#ff0000;stroke-width:2;"/>
    <path clip-path="url(#p01743a9098)" d="M 269.161295 414.186852 
L 269.161295 410.404837 
" style="fill:none;stroke:#ff0000;stroke-width:2;"/>
    <path clip-path="url(#p01743a9098)" d="M 276.528351 422.218938 
L 276.528351 417.048043 
" style="fill:none;stroke:#ff0000;stroke-width:2;"/>
    <path clip-path="url(#p01743a9098)" d="M 283.895407 419.023918 
L 283.895407 411.772988 
" style="fill:none;stroke:#ff0000;stroke-width:2;"/>
    <path clip-path="url(#p01743a9098)" d="M 291.262463 423.606153 
L 291.262463 413.244312 
" style="fill:none;stroke:#ff0000;stroke-width:2;"/>
    <path clip-path="url(#p01743a9098)" d="M 298.629519 415.737213 
L 298.629519 405.3156 
" style="fill:none;stroke:#ff0000;stroke-width:2;"/>
    <path clip-path="url(#p01743a9098)" d="M 305.996575 422.76461 
L 305.996575 405.560662 
" style="fill:none;stroke:#ff0000;stroke-width:2;"/>
    <path clip-path="url(#p01743a9098)" d="M 313.363631 421.431717 
L 313.363631 390.627222 
" style="fill:none;stroke:#ff0000;stroke-width:2;"/>
    <path clip-path="url(#p01743a9098)" d="M 320.730688 434.117035 
L 320.730688 393.097125 
" style="fill:none;stroke:#ff0000;stroke-width:2;"/>
    <path clip-path="url(#p01743a9098)" d="M 328.097744 453.109778 
L 328.097744 388.026164 
" style="fill:none;stroke:#ff0000;stroke-width:2;"/>
    <path clip-path="url(#p01743a9098)" d="M 335.4648 505.841245 
L 335.4648 399.678307 
" style="fill:none;stroke:#ff0000;stroke-width:2;"/>
   </g>
   <g id="line2d_36">
    <path clip-path="url(#p01743a9098)" d="M 107.08606 421.294231 
L 114.453117 381.128211 
L 121.820173 358.247395 
L 129.187229 421.46466 
L 136.554285 448.509295 
L 143.921341 409.090161 
L 151.288397 415.003798 
L 158.655453 420.706546 
L 166.022509 418.405065 
L 173.389565 418.14105 
L 180.756622 416.775509 
L 188.123678 415.777153 
L 195.490734 415.268304 
L 202.85779 414.970882 
L 210.224846 414.400303 
L 217.591902 415.915476 
L 224.958958 414.864212 
L 232.326014 415.103731 
L 239.69307 415.142082 
L 247.060127 415.110579 
L 254.427183 415.984106 
L 261.794239 418.976533 
L 269.161295 412.295844 
L 276.528351 419.633491 
L 283.895407 415.398453 
L 291.262463 418.425232 
L 298.629519 410.526406 
L 305.996575 414.162636 
L 313.363631 406.02947 
L 320.730688 413.60708 
L 328.097744 420.567971 
L 335.4648 452.759776 
" style="fill:none;stroke:#000000;stroke-linecap:square;stroke-width:2;"/>
   </g>
   <g id="patch_18">
    <path d="M 95.667124 514.830936 
L 95.667124 317.057736 
" style="fill:none;stroke:#000000;stroke-linecap:square;stroke-linejoin:miter;stroke-width:0.8;"/>
   </g>
   <g id="patch_19">
    <path d="M 346.883737 514.830936 
L 346.883737 317.057736 
" style="fill:none;stroke:#000000;stroke-linecap:square;stroke-linejoin:miter;stroke-width:0.8;"/>
   </g>
   <g id="patch_20">
    <path d="M 95.667124 514.830936 
L 346.883737 514.830936 
" style="fill:none;stroke:#000000;stroke-linecap:square;stroke-linejoin:miter;stroke-width:0.8;"/>
   </g>
   <g id="patch_21">
    <path d="M 95.667124 317.057736 
L 346.883737 317.057736 
" style="fill:none;stroke:#000000;stroke-linecap:square;stroke-linejoin:miter;stroke-width:0.8;"/>
   </g>
  </g>
  <g id="axes_5">
   <g id="patch_22">
    <path d="M 406.225255 514.830936 
L 657.441868 514.830936 
L 657.441868 317.057736 
L 406.225255 317.057736 
z
" style="fill:#ffffff;"/>
   </g>
   <g id="matplotlib.axis_9">
    <g id="xtick_17">
     <g id="line2d_37">
      <g>
       <use style="stroke:#000000;stroke-width:0.8;" x="417.644192" xlink:href="#m36add094ed" y="514.830936"/>
      </g>
     </g>
     <g id="text_39">
      <!-- $\mathdefault{0}$ -->
      <g transform="translate(413.742199 532.900524)scale(0.16 -0.16)">
       <use transform="scale(0.996264)" xlink:href="#CMR17-48"/>
      </g>
     </g>
    </g>
    <g id="xtick_18">
     <g id="line2d_38">
      <g>
       <use style="stroke:#000000;stroke-width:0.8;" x="489.012548" xlink:href="#m36add094ed" y="514.830936"/>
      </g>
     </g>
     <g id="text_40">
      <!-- $\mathdefault{5}$ -->
      <g transform="translate(485.110555 532.900524)scale(0.16 -0.16)">
       <use transform="scale(0.996264)" xlink:href="#CMR17-53"/>
      </g>
     </g>
    </g>
    <g id="xtick_19">
     <g id="line2d_39">
      <g>
       <use style="stroke:#000000;stroke-width:0.8;" x="560.380904" xlink:href="#m36add094ed" y="514.830936"/>
      </g>
     </g>
     <g id="text_41">
      <!-- $\mathdefault{10}$ -->
      <g transform="translate(552.576917 532.900524)scale(0.16 -0.16)">
       <use transform="scale(0.996264)" xlink:href="#CMR17-49"/>
       <use transform="translate(45.690477 0)scale(0.996264)" xlink:href="#CMR17-48"/>
      </g>
     </g>
    </g>
    <g id="xtick_20">
     <g id="line2d_40">
      <g>
       <use style="stroke:#000000;stroke-width:0.8;" x="631.74926" xlink:href="#m36add094ed" y="514.830936"/>
      </g>
     </g>
     <g id="text_42">
      <!-- $\mathdefault{15}$ -->
      <g transform="translate(623.945273 532.900524)scale(0.16 -0.16)">
       <use transform="scale(0.996264)" xlink:href="#CMR17-49"/>
       <use transform="translate(45.690477 0)scale(0.996264)" xlink:href="#CMR17-53"/>
      </g>
     </g>
    </g>
   </g>
   <g id="matplotlib.axis_10">
    <g id="ytick_17">
     <g id="line2d_41">
      <g>
       <use style="stroke:#000000;stroke-width:0.8;" x="406.225255" xlink:href="#meb2d1c9810" y="467.727404"/>
      </g>
     </g>
     <g id="text_43">
      <!-- $\mathdefault{−2}$ -->
      <g transform="translate(379.023272 473.262198)scale(0.16 -0.16)">
       <use transform="scale(0.996264)" xlink:href="#CMSY10-0"/>
       <use transform="translate(77.487468 0)scale(0.996264)" xlink:href="#CMR17-50"/>
      </g>
     </g>
    </g>
    <g id="ytick_18">
     <g id="line2d_42">
      <g>
       <use style="stroke:#000000;stroke-width:0.8;" x="406.225255" xlink:href="#meb2d1c9810" y="419.258902"/>
      </g>
     </g>
     <g id="text_44">
      <!-- $\mathdefault{0}$ -->
      <g transform="translate(391.421268 424.793696)scale(0.16 -0.16)">
       <use transform="scale(0.996264)" xlink:href="#CMR17-48"/>
      </g>
     </g>
    </g>
    <g id="ytick_19">
     <g id="line2d_43">
      <g>
       <use style="stroke:#000000;stroke-width:0.8;" x="406.225255" xlink:href="#meb2d1c9810" y="370.790399"/>
      </g>
     </g>
     <g id="text_45">
      <!-- $\mathdefault{2}$ -->
      <g transform="translate(391.421268 376.325193)scale(0.16 -0.16)">
       <use transform="scale(0.996264)" xlink:href="#CMR17-50"/>
      </g>
     </g>
    </g>
    <g id="ytick_20">
     <g id="line2d_44">
      <g>
       <use style="stroke:#000000;stroke-width:0.8;" x="406.225255" xlink:href="#meb2d1c9810" y="322.321896"/>
      </g>
     </g>
     <g id="text_46">
      <!-- $\mathdefault{4}$ -->
      <g transform="translate(391.421268 327.856691)scale(0.16 -0.16)">
       <defs>
        <path d="M 33.59375 64.40625 
C 33.59375 66.5 33.5 66.5 31.703125 66.5 
L 2 19.59375 
L 2 17 
L 27.796875 17 
L 27.796875 7.140625 
C 27.796875 3.5 27.59375 2.5 20.59375 2.5 
L 18.703125 2.5 
L 18.703125 0 
C 21.90625 0 27.296875 0 30.703125 0 
C 34.09375 0 39.5 0 42.703125 0 
L 42.703125 2.5 
L 40.796875 2.5 
C 33.796875 2.5 33.59375 3.5 33.59375 7.140625 
L 33.59375 17 
L 43.796875 17 
L 43.796875 19.59375 
L 33.59375 19.59375 
z
M 28.09375 57.859375 
L 28.09375 19.59375 
L 4 19.59375 
z
" id="CMR17-52"/>
       </defs>
       <use transform="scale(0.996264)" xlink:href="#CMR17-52"/>
      </g>
     </g>
    </g>
    <g id="text_47">
     <!-- $\times\mathdefault{10^{−18}}\mathdefault{}$ -->
     <g transform="translate(406.225255 314.057736)scale(0.16 -0.16)">
      <use transform="scale(0.996264)" xlink:href="#CMSY10-2"/>
      <use transform="translate(77.487468 0)scale(0.996264)" xlink:href="#CMR17-49"/>
      <use transform="translate(123.177945 0)scale(0.996264)" xlink:href="#CMR17-48"/>
      <use transform="translate(168.868422 36.153639)scale(0.697382)" xlink:href="#CMSY10-0"/>
      <use transform="translate(223.109415 36.153639)scale(0.697382)" xlink:href="#CMR17-49"/>
      <use transform="translate(255.092597 36.153639)scale(0.697382)" xlink:href="#CMR17-56"/>
     </g>
    </g>
   </g>
   <g id="LineCollection_5">
    <path clip-path="url(#p9542476e41)" d="M 417.644192 505.841245 
L 417.644192 355.220245 
" style="fill:none;stroke:#ff0000;stroke-width:2;"/>
    <path clip-path="url(#p9542476e41)" d="M 431.917863 485.004754 
L 431.917863 359.67742 
" style="fill:none;stroke:#ff0000;stroke-width:2;"/>
    <path clip-path="url(#p9542476e41)" d="M 446.191535 414.956282 
L 446.191535 326.047427 
" style="fill:none;stroke:#ff0000;stroke-width:2;"/>
    <path clip-path="url(#p9542476e41)" d="M 460.465206 447.86891 
L 460.465206 399.041771 
" style="fill:none;stroke:#ff0000;stroke-width:2;"/>
    <path clip-path="url(#p9542476e41)" d="M 474.738877 459.700294 
L 474.738877 423.858565 
" style="fill:none;stroke:#ff0000;stroke-width:2;"/>
    <path clip-path="url(#p9542476e41)" d="M 489.012548 422.733943 
L 489.012548 401.926664 
" style="fill:none;stroke:#ff0000;stroke-width:2;"/>
    <path clip-path="url(#p9542476e41)" d="M 503.286219 422.442453 
L 503.286219 406.505549 
" style="fill:none;stroke:#ff0000;stroke-width:2;"/>
    <path clip-path="url(#p9542476e41)" d="M 517.559891 433.771082 
L 517.559891 420.782935 
" style="fill:none;stroke:#ff0000;stroke-width:2;"/>
    <path clip-path="url(#p9542476e41)" d="M 531.833562 427.091199 
L 531.833562 417.431957 
" style="fill:none;stroke:#ff0000;stroke-width:2;"/>
    <path clip-path="url(#p9542476e41)" d="M 546.107233 429.366456 
L 546.107233 422.632455 
" style="fill:none;stroke:#ff0000;stroke-width:2;"/>
    <path clip-path="url(#p9542476e41)" d="M 560.380904 420.093557 
L 560.380904 415.520931 
" style="fill:none;stroke:#ff0000;stroke-width:2;"/>
    <path clip-path="url(#p9542476e41)" d="M 574.654575 424.917083 
L 574.654575 421.394837 
" style="fill:none;stroke:#ff0000;stroke-width:2;"/>
    <path clip-path="url(#p9542476e41)" d="M 588.928247 421.104585 
L 588.928247 418.615912 
" style="fill:none;stroke:#ff0000;stroke-width:2;"/>
    <path clip-path="url(#p9542476e41)" d="M 603.201918 419.781433 
L 603.201918 417.734661 
" style="fill:none;stroke:#ff0000;stroke-width:2;"/>
    <path clip-path="url(#p9542476e41)" d="M 617.475589 419.093733 
L 617.475589 417.407511 
" style="fill:none;stroke:#ff0000;stroke-width:2;"/>
    <path clip-path="url(#p9542476e41)" d="M 631.74926 420.333093 
L 631.74926 418.948381 
" style="fill:none;stroke:#ff0000;stroke-width:2;"/>
    <path clip-path="url(#p9542476e41)" d="M 646.022931 419.267771 
L 646.022931 417.583705 
" style="fill:none;stroke:#ff0000;stroke-width:2;"/>
   </g>
   <g id="line2d_45">
    <path clip-path="url(#p9542476e41)" d="M 417.644192 430.530745 
L 431.917863 422.341087 
L 446.191535 370.501855 
L 460.465206 423.45534 
L 474.738877 441.77943 
L 489.012548 412.330303 
L 503.286219 414.474001 
L 517.559891 427.277008 
L 531.833562 422.261578 
L 546.107233 425.999456 
L 560.380904 417.807244 
L 574.654575 423.15596 
L 588.928247 419.860249 
L 603.201918 418.758047 
L 617.475589 418.250622 
L 631.74926 419.640737 
L 646.022931 418.425738 
" style="fill:none;stroke:#000000;stroke-linecap:square;stroke-width:2;"/>
   </g>
   <g id="patch_23">
    <path d="M 406.225255 514.830936 
L 406.225255 317.057736 
" style="fill:none;stroke:#000000;stroke-linecap:square;stroke-linejoin:miter;stroke-width:0.8;"/>
   </g>
   <g id="patch_24">
    <path d="M 657.441868 514.830936 
L 657.441868 317.057736 
" style="fill:none;stroke:#000000;stroke-linecap:square;stroke-linejoin:miter;stroke-width:0.8;"/>
   </g>
   <g id="patch_25">
    <path d="M 406.225255 514.830936 
L 657.441868 514.830936 
" style="fill:none;stroke:#000000;stroke-linecap:square;stroke-linejoin:miter;stroke-width:0.8;"/>
   </g>
   <g id="patch_26">
    <path d="M 406.225255 317.057736 
L 657.441868 317.057736 
" style="fill:none;stroke:#000000;stroke-linecap:square;stroke-linejoin:miter;stroke-width:0.8;"/>
   </g>
  </g>
  <g id="axes_6">
   <g id="patch_27">
    <path d="M 716.783387 514.830936 
L 968 514.830936 
L 968 317.057736 
L 716.783387 317.057736 
z
" style="fill:#ffffff;"/>
   </g>
   <g id="matplotlib.axis_11">
    <g id="xtick_21">
     <g id="line2d_46">
      <g>
       <use style="stroke:#000000;stroke-width:0.8;" x="728.202324" xlink:href="#m36add094ed" y="514.830936"/>
      </g>
     </g>
     <g id="text_48">
      <!-- $\mathdefault{0}$ -->
      <g transform="translate(724.30033 532.900524)scale(0.16 -0.16)">
       <use transform="scale(0.996264)" xlink:href="#CMR17-48"/>
      </g>
     </g>
    </g>
    <g id="xtick_22">
     <g id="line2d_47">
      <g>
       <use style="stroke:#000000;stroke-width:0.8;" x="799.57068" xlink:href="#m36add094ed" y="514.830936"/>
      </g>
     </g>
     <g id="text_49">
      <!-- $\mathdefault{5}$ -->
      <g transform="translate(795.668686 532.900524)scale(0.16 -0.16)">
       <use transform="scale(0.996264)" xlink:href="#CMR17-53"/>
      </g>
     </g>
    </g>
    <g id="xtick_23">
     <g id="line2d_48">
      <g>
       <use style="stroke:#000000;stroke-width:0.8;" x="870.939036" xlink:href="#m36add094ed" y="514.830936"/>
      </g>
     </g>
     <g id="text_50">
      <!-- $\mathdefault{10}$ -->
      <g transform="translate(863.135049 532.900524)scale(0.16 -0.16)">
       <use transform="scale(0.996264)" xlink:href="#CMR17-49"/>
       <use transform="translate(45.690477 0)scale(0.996264)" xlink:href="#CMR17-48"/>
      </g>
     </g>
    </g>
    <g id="xtick_24">
     <g id="line2d_49">
      <g>
       <use style="stroke:#000000;stroke-width:0.8;" x="942.307392" xlink:href="#m36add094ed" y="514.830936"/>
      </g>
     </g>
     <g id="text_51">
      <!-- $\mathdefault{15}$ -->
      <g transform="translate(934.503405 532.900524)scale(0.16 -0.16)">
       <use transform="scale(0.996264)" xlink:href="#CMR17-49"/>
       <use transform="translate(45.690477 0)scale(0.996264)" xlink:href="#CMR17-53"/>
      </g>
     </g>
    </g>
   </g>
   <g id="matplotlib.axis_12">
    <g id="ytick_21">
     <g id="line2d_50">
      <g>
       <use style="stroke:#000000;stroke-width:0.8;" x="716.783387" xlink:href="#meb2d1c9810" y="495.918368"/>
      </g>
     </g>
     <g id="text_52">
      <!-- $\mathdefault{−2}$ -->
      <g transform="translate(689.581404 501.453163)scale(0.16 -0.16)">
       <use transform="scale(0.996264)" xlink:href="#CMSY10-0"/>
       <use transform="translate(77.487468 0)scale(0.996264)" xlink:href="#CMR17-50"/>
      </g>
     </g>
    </g>
    <g id="ytick_22">
     <g id="line2d_51">
      <g>
       <use style="stroke:#000000;stroke-width:0.8;" x="716.783387" xlink:href="#meb2d1c9810" y="451.323179"/>
      </g>
     </g>
     <g id="text_53">
      <!-- $\mathdefault{0}$ -->
      <g transform="translate(701.9794 456.857974)scale(0.16 -0.16)">
       <use transform="scale(0.996264)" xlink:href="#CMR17-48"/>
      </g>
     </g>
    </g>
    <g id="ytick_23">
     <g id="line2d_52">
      <g>
       <use style="stroke:#000000;stroke-width:0.8;" x="716.783387" xlink:href="#meb2d1c9810" y="406.727991"/>
      </g>
     </g>
     <g id="text_54">
      <!-- $\mathdefault{2}$ -->
      <g transform="translate(701.9794 412.262785)scale(0.16 -0.16)">
       <use transform="scale(0.996264)" xlink:href="#CMR17-50"/>
      </g>
     </g>
    </g>
    <g id="ytick_24">
     <g id="line2d_53">
      <g>
       <use style="stroke:#000000;stroke-width:0.8;" x="716.783387" xlink:href="#meb2d1c9810" y="362.132802"/>
      </g>
     </g>
     <g id="text_55">
      <!-- $\mathdefault{4}$ -->
      <g transform="translate(701.9794 367.667596)scale(0.16 -0.16)">
       <use transform="scale(0.996264)" xlink:href="#CMR17-52"/>
      </g>
     </g>
    </g>
    <g id="ytick_25">
     <g id="line2d_54">
      <g>
       <use style="stroke:#000000;stroke-width:0.8;" x="716.783387" xlink:href="#meb2d1c9810" y="317.537613"/>
      </g>
     </g>
     <g id="text_56">
      <!-- $\mathdefault{6}$ -->
      <g transform="translate(701.9794 323.072407)scale(0.16 -0.16)">
       <defs>
        <path d="M 10.59375 34 
C 10.59375 57.65625 21.796875 63 28.296875 63 
C 30.40625 63 35.5 62.640625 37.5 59 
C 35.90625 59 32.90625 59 32.90625 55.515625 
C 32.90625 52.828125 35.09375 51.921875 36.5 51.921875 
C 37.40625 51.921875 40.09375 52.3125 40.09375 55.625 
C 40.09375 61.78125 35.09375 65.296875 28.203125 65.296875 
C 16.296875 65.296875 3.796875 52.96875 3.796875 31 
C 3.796875 3.953125 15.09375 -2 23.09375 -2 
C 32.796875 -2 42 6.671875 42 20.046875 
C 42 32.515625 33.90625 41.59375 23.703125 41.59375 
C 17.59375 41.59375 13.09375 37.609375 10.59375 30.625 
z
M 23.09375 0.390625 
C 10.796875 0.390625 10.796875 18.75 10.796875 22.4375 
C 10.796875 29.625 14.203125 40 23.5 40 
C 25.203125 40 30.09375 40 33.40625 33.125 
C 35.203125 29.21875 35.203125 25.140625 35.203125 20.140625 
C 35.203125 14.75 35.203125 10.78125 33.09375 6.78125 
C 30.90625 2.671875 27.703125 0.390625 23.09375 0.390625 
z
" id="CMR17-54"/>
       </defs>
       <use transform="scale(0.996264)" xlink:href="#CMR17-54"/>
      </g>
     </g>
    </g>
    <g id="text_57">
     <!-- $\times\mathdefault{10^{−18}}\mathdefault{}$ -->
     <g transform="translate(716.783387 314.057736)scale(0.16 -0.16)">
      <use transform="scale(0.996264)" xlink:href="#CMSY10-2"/>
      <use transform="translate(77.487468 0)scale(0.996264)" xlink:href="#CMR17-49"/>
      <use transform="translate(123.177945 0)scale(0.996264)" xlink:href="#CMR17-48"/>
      <use transform="translate(168.868422 36.153639)scale(0.697382)" xlink:href="#CMSY10-0"/>
      <use transform="translate(223.109415 36.153639)scale(0.697382)" xlink:href="#CMR17-49"/>
      <use transform="translate(255.092597 36.153639)scale(0.697382)" xlink:href="#CMR17-56"/>
     </g>
    </g>
   </g>
   <g id="LineCollection_6">
    <path clip-path="url(#pf9a49c3c86)" d="M 728.202324 451.323179 
L 728.202324 451.323179 
" style="fill:none;stroke:#ff0000;stroke-width:2;"/>
    <path clip-path="url(#pf9a49c3c86)" d="M 742.475995 452.523539 
L 742.475995 326.047427 
" style="fill:none;stroke:#ff0000;stroke-width:2;"/>
    <path clip-path="url(#pf9a49c3c86)" d="M 756.749666 435.703609 
L 756.749666 358.995229 
" style="fill:none;stroke:#ff0000;stroke-width:2;"/>
    <path clip-path="url(#pf9a49c3c86)" d="M 771.023337 480.265467 
L 771.023337 435.991266 
" style="fill:none;stroke:#ff0000;stroke-width:2;"/>
    <path clip-path="url(#pf9a49c3c86)" d="M 785.297009 505.841245 
L 785.297009 470.385818 
" style="fill:none;stroke:#ff0000;stroke-width:2;"/>
    <path clip-path="url(#pf9a49c3c86)" d="M 799.57068 458.023092 
L 799.57068 435.837066 
" style="fill:none;stroke:#ff0000;stroke-width:2;"/>
    <path clip-path="url(#pf9a49c3c86)" d="M 813.844351 462.465281 
L 813.844351 447.936516 
" style="fill:none;stroke:#ff0000;stroke-width:2;"/>
    <path clip-path="url(#pf9a49c3c86)" d="M 828.118022 460.166899 
L 828.118022 446.430999 
" style="fill:none;stroke:#ff0000;stroke-width:2;"/>
    <path clip-path="url(#pf9a49c3c86)" d="M 842.391693 458.348222 
L 842.391693 449.505989 
" style="fill:none;stroke:#ff0000;stroke-width:2;"/>
    <path clip-path="url(#pf9a49c3c86)" d="M 856.665365 452.775884 
L 856.665365 447.285368 
" style="fill:none;stroke:#ff0000;stroke-width:2;"/>
    <path clip-path="url(#pf9a49c3c86)" d="M 870.939036 457.458662 
L 870.939036 452.947071 
" style="fill:none;stroke:#ff0000;stroke-width:2;"/>
    <path clip-path="url(#pf9a49c3c86)" d="M 885.212707 450.323158 
L 885.212707 446.781448 
" style="fill:none;stroke:#ff0000;stroke-width:2;"/>
    <path clip-path="url(#pf9a49c3c86)" d="M 899.486378 451.856656 
L 899.486378 449.549839 
" style="fill:none;stroke:#ff0000;stroke-width:2;"/>
    <path clip-path="url(#pf9a49c3c86)" d="M 913.760049 452.244346 
L 913.760049 450.160039 
" style="fill:none;stroke:#ff0000;stroke-width:2;"/>
    <path clip-path="url(#pf9a49c3c86)" d="M 928.033721 451.419049 
L 928.033721 449.94245 
" style="fill:none;stroke:#ff0000;stroke-width:2;"/>
    <path clip-path="url(#pf9a49c3c86)" d="M 942.307392 452.677338 
L 942.307392 451.375071 
" style="fill:none;stroke:#ff0000;stroke-width:2;"/>
    <path clip-path="url(#pf9a49c3c86)" d="M 956.581063 451.323179 
L 956.581063 451.323179 
" style="fill:none;stroke:#ff0000;stroke-width:2;"/>
   </g>
   <g id="line2d_55">
    <path clip-path="url(#pf9a49c3c86)" d="M 728.202324 451.323179 
L 742.475995 389.285483 
L 756.749666 397.349419 
L 771.023337 458.128366 
L 785.297009 488.113532 
L 799.57068 446.930079 
L 813.844351 455.200899 
L 828.118022 453.298949 
L 842.391693 453.927106 
L 856.665365 450.030626 
L 870.939036 455.202867 
L 885.212707 448.552303 
L 899.486378 450.703248 
L 913.760049 451.202193 
L 928.033721 450.68075 
L 942.307392 452.026204 
L 956.581063 451.323179 
" style="fill:none;stroke:#000000;stroke-linecap:square;stroke-width:2;"/>
   </g>
   <g id="patch_28">
    <path d="M 716.783387 514.830936 
L 716.783387 317.057736 
" style="fill:none;stroke:#000000;stroke-linecap:square;stroke-linejoin:miter;stroke-width:0.8;"/>
   </g>
   <g id="patch_29">
    <path d="M 968 514.830936 
L 968 317.057736 
" style="fill:none;stroke:#000000;stroke-linecap:square;stroke-linejoin:miter;stroke-width:0.8;"/>
   </g>
   <g id="patch_30">
    <path d="M 716.783387 514.830936 
L 968 514.830936 
" style="fill:none;stroke:#000000;stroke-linecap:square;stroke-linejoin:miter;stroke-width:0.8;"/>
   </g>
   <g id="patch_31">
    <path d="M 716.783387 317.057736 
L 968 317.057736 
" style="fill:none;stroke:#000000;stroke-linecap:square;stroke-linejoin:miter;stroke-width:0.8;"/>
   </g>
  </g>
 </g>
 <defs>
  <clipPath id="p84a9190e0a">
   <rect height="197.773199" width="251.216613" x="95.667124" y="63.911226"/>
  </clipPath>
  <clipPath id="p806409d164">
   <rect height="197.773199" width="251.216613" x="406.225255" y="63.911226"/>
  </clipPath>
  <clipPath id="p2fbe269b23">
   <rect height="197.773199" width="251.216613" x="716.783387" y="63.911226"/>
  </clipPath>
  <clipPath id="p01743a9098">
   <rect height="197.773199" width="251.216613" x="95.667124" y="317.057736"/>
  </clipPath>
  <clipPath id="p9542476e41">
   <rect height="197.773199" width="251.216613" x="406.225255" y="317.057736"/>
  </clipPath>
  <clipPath id="pf9a49c3c86">
   <rect height="197.773199" width="251.216613" x="716.783387" y="317.057736"/>
  </clipPath>
 </defs>
</svg>
