<?xml version="1.0" encoding="utf-8" standalone="no"?>
<!DOCTYPE svg PUBLIC "-//W3C//DTD SVG 1.1//EN"
  "http://www.w3.org/Graphics/SVG/1.1/DTD/svg11.dtd">
<!-- Created with matplotlib (https://matplotlib.org/) -->
<svg height="576pt" version="1.1" viewBox="0 0 1008 576" width="1008pt" xmlns="http://www.w3.org/2000/svg" xmlns:xlink="http://www.w3.org/1999/xlink">
 <metadata>
  <rdf:RDF xmlns:cc="http://creativecommons.org/ns#" xmlns:dc="http://purl.org/dc/elements/1.1/" xmlns:rdf="http://www.w3.org/1999/02/22-rdf-syntax-ns#">
   <cc:Work>
    <dc:type rdf:resource="http://purl.org/dc/dcmitype/StillImage"/>
    <dc:date>2022-10-25T15:45:53.397426</dc:date>
    <dc:format>image/svg+xml</dc:format>
    <dc:creator>
     <cc:Agent>
      <dc:title>Matplotlib v3.3.4, https://matplotlib.org/</dc:title>
     </cc:Agent>
    </dc:creator>
   </cc:Work>
  </rdf:RDF>
 </metadata>
 <defs>
  <style type="text/css">*{stroke-linecap:butt;stroke-linejoin:round;}</style>
 </defs>
 <g id="figure_1">
  <g id="patch_1">
   <path d="M 0 576 
L 1008 576 
L 1008 0 
L 0 0 
z
" style="fill:#ffffff;"/>
  </g>
  <g id="axes_1">
   <g id="patch_2">
    <path d="M 104.596681 261.684426 
L 352.836775 261.684426 
L 352.836775 63.911226 
L 104.596681 63.911226 
z
" style="fill:#ffffff;"/>
   </g>
   <g id="matplotlib.axis_1">
    <g id="xtick_1">
     <g id="line2d_1">
      <defs>
       <path d="M 0 0 
L 0 3.5 
" id="m9e9afb3dac" style="stroke:#000000;stroke-width:0.8;"/>
      </defs>
      <g>
       <use style="stroke:#000000;stroke-width:0.8;" x="115.880322" xlink:href="#m9e9afb3dac" y="261.684426"/>
      </g>
     </g>
     <g id="text_1">
      <!-- $\mathdefault{0}$ -->
      <g transform="translate(111.978328 279.754014)scale(0.16 -0.16)">
       <defs>
        <path d="M 42 31.640625 
C 42 37.75 41.90625 48.125 37.703125 56.109375 
C 34 63.109375 28.09375 65.59375 22.90625 65.59375 
C 18.09375 65.59375 12 63.40625 8.203125 56.203125 
C 4.203125 48.71875 3.796875 39.4375 3.796875 31.640625 
C 3.796875 25.953125 3.90625 17.28125 7 9.671875 
C 11.296875 -0.609375 19 -2 22.90625 -2 
C 27.5 -2 34.5 -0.109375 38.59375 9.375 
C 41.59375 16.28125 42 24.359375 42 31.640625 
z
M 22.90625 -0.40625 
C 16.5 -0.40625 12.703125 5.078125 11.296875 12.6875 
C 10.203125 18.5625 10.203125 27.15625 10.203125 32.75 
C 10.203125 40.4375 10.203125 46.828125 11.5 52.921875 
C 13.40625 61.390625 19 64 22.90625 64 
C 27 64 32.296875 61.296875 34.203125 53.125 
C 35.5 47.4375 35.59375 40.734375 35.59375 32.75 
C 35.59375 26.25 35.59375 18.265625 34.40625 12.375 
C 32.296875 1.484375 26.40625 -0.40625 22.90625 -0.40625 
z
" id="CMR17-48"/>
       </defs>
       <use transform="scale(0.996264)" xlink:href="#CMR17-48"/>
      </g>
     </g>
    </g>
    <g id="xtick_2">
     <g id="line2d_2">
      <g>
       <use style="stroke:#000000;stroke-width:0.8;" x="188.678003" xlink:href="#m9e9afb3dac" y="261.684426"/>
      </g>
     </g>
     <g id="text_2">
      <!-- $\mathdefault{10}$ -->
      <g transform="translate(180.874016 279.754014)scale(0.16 -0.16)">
       <defs>
        <path d="M 26.59375 63.40625 
C 26.59375 65.5 26.5 65.5 25.09375 65.5 
C 21.203125 61.1875 15.296875 59.796875 9.703125 59.796875 
C 9.40625 59.796875 8.90625 59.796875 8.796875 59.5 
C 8.703125 59.296875 8.703125 59.09375 8.703125 57 
C 11.796875 57 17 57.59375 21 59.984375 
L 21 7.203125 
C 21 3.6875 20.796875 2.5 12.203125 2.5 
L 9.203125 2.5 
L 9.203125 0 
C 14 0 19 0 23.796875 0 
C 28.59375 0 33.59375 0 38.40625 0 
L 38.40625 2.5 
L 35.40625 2.5 
C 26.796875 2.5 26.59375 3.59375 26.59375 7.15625 
z
" id="CMR17-49"/>
       </defs>
       <use transform="scale(0.996264)" xlink:href="#CMR17-49"/>
       <use transform="translate(45.690477 0)scale(0.996264)" xlink:href="#CMR17-48"/>
      </g>
     </g>
    </g>
    <g id="xtick_3">
     <g id="line2d_3">
      <g>
       <use style="stroke:#000000;stroke-width:0.8;" x="261.475685" xlink:href="#m9e9afb3dac" y="261.684426"/>
      </g>
     </g>
     <g id="text_3">
      <!-- $\mathdefault{20}$ -->
      <g transform="translate(253.671698 279.754014)scale(0.16 -0.16)">
       <defs>
        <path d="M 41.703125 15.453125 
L 39.90625 15.453125 
C 38.90625 8.375 38.09375 7.171875 37.703125 6.5625 
C 37.203125 5.765625 30 5.765625 28.59375 5.765625 
L 9.40625 5.765625 
C 13 9.671875 20 16.75 28.5 24.953125 
C 34.59375 30.734375 41.703125 37.53125 41.703125 47.421875 
C 41.703125 59.21875 32.296875 66 21.796875 66 
C 10.796875 66 4.09375 56.3125 4.09375 47.34375 
C 4.09375 43.4375 7 42.9375 8.203125 42.9375 
C 9.203125 42.9375 12.203125 43.546875 12.203125 47.03125 
C 12.203125 50.109375 9.59375 51 8.203125 51 
C 7.59375 51 7 50.90625 6.59375 50.703125 
C 8.5 59.21875 14.296875 63.40625 20.40625 63.40625 
C 29.09375 63.40625 34.796875 56.515625 34.796875 47.421875 
C 34.796875 38.734375 29.703125 31.25 24 24.75 
L 4.09375 2.28125 
L 4.09375 0 
L 39.296875 0 
z
" id="CMR17-50"/>
       </defs>
       <use transform="scale(0.996264)" xlink:href="#CMR17-50"/>
       <use transform="translate(45.690477 0)scale(0.996264)" xlink:href="#CMR17-48"/>
      </g>
     </g>
    </g>
    <g id="xtick_4">
     <g id="line2d_4">
      <g>
       <use style="stroke:#000000;stroke-width:0.8;" x="334.273366" xlink:href="#m9e9afb3dac" y="261.684426"/>
      </g>
     </g>
     <g id="text_4">
      <!-- $\mathdefault{30}$ -->
      <g transform="translate(326.469379 279.754014)scale(0.16 -0.16)">
       <defs>
        <path d="M 22.09375 33.703125 
C 31 33.703125 34.90625 25.96875 34.90625 17.03125 
C 34.90625 5 28.5 0.390625 22.703125 0.390625 
C 17.40625 0.390625 8.796875 3.03125 6.09375 10.828125 
C 6.59375 10.625 7.09375 10.625 7.59375 10.625 
C 10 10.625 11.796875 12.21875 11.796875 14.8125 
C 11.796875 17.703125 9.59375 19 7.59375 19 
C 5.90625 19 3.296875 18.203125 3.296875 14.46875 
C 3.296875 5.234375 12.296875 -2 22.90625 -2 
C 34 -2 42.5 6.71875 42.5 16.953125 
C 42.5 26.671875 34.5 33.703125 25 34.796875 
C 32.59375 36.375 39.90625 43.0625 39.90625 52.015625 
C 39.90625 59.6875 32 65.296875 23 65.296875 
C 13.90625 65.296875 5.90625 59.828125 5.90625 52.015625 
C 5.90625 48.59375 8.5 48 9.796875 48 
C 11.90625 48 13.703125 49.296875 13.703125 51.890625 
C 13.703125 54.46875 11.90625 55.765625 9.796875 55.765625 
C 9.40625 55.765625 8.90625 55.765625 8.5 55.578125 
C 11.40625 61.859375 19.296875 63 22.796875 63 
C 26.296875 63 32.90625 61.328125 32.90625 51.875 
C 32.90625 49.109375 32.5 44.1875 29.09375 39.84375 
C 26.09375 36 22.703125 36 19.40625 35.6875 
C 18.90625 35.6875 16.59375 35.453125 16.203125 35.453125 
C 15.5 35.359375 15.09375 35.265625 15.09375 34.5 
C 15.09375 33.796875 15.203125 33.703125 17.203125 33.703125 
z
" id="CMR17-51"/>
       </defs>
       <use transform="scale(0.996264)" xlink:href="#CMR17-51"/>
       <use transform="translate(45.690477 0)scale(0.996264)" xlink:href="#CMR17-48"/>
      </g>
     </g>
    </g>
   </g>
   <g id="matplotlib.axis_2">
    <g id="ytick_1">
     <g id="line2d_5">
      <defs>
       <path d="M 0 0 
L -3.5 0 
" id="m7ccef59b46" style="stroke:#000000;stroke-width:0.8;"/>
      </defs>
      <g>
       <use style="stroke:#000000;stroke-width:0.8;" x="104.596681" xlink:href="#m7ccef59b46" y="253.130725"/>
      </g>
     </g>
     <g id="text_5">
      <!-- $\mathdefault{0}$ -->
      <g transform="translate(89.792694 258.665519)scale(0.16 -0.16)">
       <use transform="scale(0.996264)" xlink:href="#CMR17-48"/>
      </g>
     </g>
    </g>
    <g id="ytick_2">
     <g id="line2d_6">
      <g>
       <use style="stroke:#000000;stroke-width:0.8;" x="104.596681" xlink:href="#m7ccef59b46" y="215.486441"/>
      </g>
     </g>
     <g id="text_6">
      <!-- $\mathdefault{25}$ -->
      <g transform="translate(81.988707 221.021235)scale(0.16 -0.16)">
       <defs>
        <path d="M 11.40625 57.6875 
C 12.40625 57.28125 16.5 56 20.703125 56 
C 30 56 35.09375 61.109375 38 64.0625 
C 38 64.953125 38 65.5 37.40625 65.5 
C 37.296875 65.5 37.09375 65.5 36.296875 65.046875 
C 32.796875 63.40625 28.703125 62.078125 23.703125 62.078125 
C 20.703125 62.078125 16.203125 62.484375 11.296875 64.671875 
C 10.203125 65.171875 10 65.171875 9.90625 65.171875 
C 9.40625 65.171875 9.296875 65.0625 9.296875 63.078125 
L 9.296875 34.421875 
C 9.296875 32.640625 9.296875 32.140625 10.296875 32.140625 
C 10.796875 32.140625 11 32.34375 11.5 33.03125 
C 14.703125 37.515625 19.09375 39.40625 24.09375 39.40625 
C 27.59375 39.40625 35.09375 37.21875 35.09375 20.140625 
C 35.09375 16.953125 35.09375 11.171875 32.09375 6.578125 
C 29.59375 2.484375 25.703125 0.390625 21.40625 0.390625 
C 14.796875 0.390625 8.09375 5 6.296875 12.71875 
C 6.703125 12.609375 7.5 12.421875 7.90625 12.421875 
C 9.203125 12.421875 11.703125 13.125 11.703125 16.21875 
C 11.703125 18.90625 9.796875 20 7.90625 20 
C 5.59375 20 4.09375 18.59375 4.09375 15.796875 
C 4.09375 7.09375 11 -2 21.59375 -2 
C 31.90625 -2 41.703125 6.875 41.703125 19.75 
C 41.703125 31.71875 33.90625 41 24.203125 41 
C 19.09375 41 14.796875 39.109375 11.40625 35.53125 
z
" id="CMR17-53"/>
       </defs>
       <use transform="scale(0.996264)" xlink:href="#CMR17-50"/>
       <use transform="translate(45.690477 0)scale(0.996264)" xlink:href="#CMR17-53"/>
      </g>
     </g>
    </g>
    <g id="ytick_3">
     <g id="line2d_7">
      <g>
       <use style="stroke:#000000;stroke-width:0.8;" x="104.596681" xlink:href="#m7ccef59b46" y="177.842157"/>
      </g>
     </g>
     <g id="text_7">
      <!-- $\mathdefault{50}$ -->
      <g transform="translate(81.988707 183.376951)scale(0.16 -0.16)">
       <use transform="scale(0.996264)" xlink:href="#CMR17-53"/>
       <use transform="translate(45.690477 0)scale(0.996264)" xlink:href="#CMR17-48"/>
      </g>
     </g>
    </g>
    <g id="ytick_4">
     <g id="line2d_8">
      <g>
       <use style="stroke:#000000;stroke-width:0.8;" x="104.596681" xlink:href="#m7ccef59b46" y="140.197873"/>
      </g>
     </g>
     <g id="text_8">
      <!-- $\mathdefault{75}$ -->
      <g transform="translate(81.988707 145.732667)scale(0.16 -0.16)">
       <defs>
        <path d="M 45.09375 61.578125 
L 45.09375 63.765625 
L 21.59375 63.765625 
C 9.90625 63.765625 9.703125 65.078125 9.296875 67 
L 7.5 67 
L 4.59375 48.34375 
L 6.40625 48.34375 
C 6.703125 50.234375 7.40625 55.3125 8.59375 57.203125 
C 9.203125 58 16.59375 58 18.296875 58 
L 40.296875 58 
L 29.203125 41.578125 
C 21.796875 30.53125 16.703125 15.609375 16.703125 2.578125 
C 16.703125 1.390625 16.703125 -2 20.296875 -2 
C 23.90625 -2 23.90625 1.390625 23.90625 2.671875 
L 23.90625 7.265625 
C 23.90625 23.5625 26.703125 34.3125 31.296875 41.1875 
z
" id="CMR17-55"/>
       </defs>
       <use transform="scale(0.996264)" xlink:href="#CMR17-55"/>
       <use transform="translate(45.690477 0)scale(0.996264)" xlink:href="#CMR17-53"/>
      </g>
     </g>
    </g>
    <g id="ytick_5">
     <g id="line2d_9">
      <g>
       <use style="stroke:#000000;stroke-width:0.8;" x="104.596681" xlink:href="#m7ccef59b46" y="102.553589"/>
      </g>
     </g>
     <g id="text_9">
      <!-- $\mathdefault{100}$ -->
      <g transform="translate(74.18472 108.088383)scale(0.16 -0.16)">
       <use transform="scale(0.996264)" xlink:href="#CMR17-49"/>
       <use transform="translate(45.690477 0)scale(0.996264)" xlink:href="#CMR17-48"/>
       <use transform="translate(91.380954 0)scale(0.996264)" xlink:href="#CMR17-48"/>
      </g>
     </g>
    </g>
    <g id="ytick_6">
     <g id="line2d_10">
      <g>
       <use style="stroke:#000000;stroke-width:0.8;" x="104.596681" xlink:href="#m7ccef59b46" y="64.909305"/>
      </g>
     </g>
     <g id="text_10">
      <!-- $\mathdefault{125}$ -->
      <g transform="translate(74.18472 70.444099)scale(0.16 -0.16)">
       <use transform="scale(0.996264)" xlink:href="#CMR17-49"/>
       <use transform="translate(45.690477 0)scale(0.996264)" xlink:href="#CMR17-50"/>
       <use transform="translate(91.380954 0)scale(0.996264)" xlink:href="#CMR17-53"/>
      </g>
     </g>
    </g>
    <g id="text_11">
     <!-- Real -->
     <g transform="translate(65.533963 184.258418)rotate(-90)scale(0.24 -0.24)">
      <defs>
       <path d="M 39.203125 33.53125 
C 48.703125 35.4375 56.703125 41.8125 56.703125 49.78125 
C 56.703125 59.140625 46.09375 67.59375 32.09375 67.59375 
L 5.203125 67.59375 
L 5.203125 65 
C 12.09375 65 13.203125 65 13.203125 60.515625 
L 13.203125 6.484375 
C 13.203125 2 12.09375 2 5.203125 2 
L 5.203125 -0.40625 
C 8.09375 -0.40625 13.296875 -0.40625 16.40625 -0.40625 
C 19.5 -0.40625 24.703125 -0.40625 27.59375 -0.40625 
L 27.59375 2 
C 20.703125 2 19.59375 2 19.59375 6.515625 
L 19.59375 33 
L 31.296875 33 
C 37 33 40.203125 30.6875 41.59375 29.390625 
C 45.59375 25.5 45.59375 22.796875 45.59375 16 
C 45.59375 9.296875 45.59375 5.890625 48.59375 2.5 
C 52.40625 -1.59375 57.5 -2 59.703125 -2 
C 67.09375 -2 68.203125 6.1875 68.203125 7.859375 
C 68.203125 8.4375 68.203125 9.140625 67.296875 9.140625 
C 66.5 9.140625 66.40625 8.546875 66.40625 8.15625 
C 65.90625 1.75 63 -0.40625 59.90625 -0.40625 
C 54.40625 -0.40625 53.796875 5.859375 53.203125 11.9375 
C 52.90625 14.03125 52.703125 15.515625 52.5 17.703125 
C 51.90625 22.6875 51.09375 29.953125 39.203125 33.53125 
z
M 31 34.59375 
L 19.59375 34.59375 
L 19.59375 61.140625 
C 19.59375 64.515625 19.796875 65 23.796875 65 
L 31.09375 65 
C 39.40625 65 49.09375 62.140625 49.09375 49.84375 
C 49.09375 37.0625 38.5 34.59375 31 34.59375 
z
" id="CMR17-82"/>
       <path d="M 38.09375 23 
C 38.5 23.40625 38.5 23.609375 38.5 24.625 
C 38.5 34.96875 33.09375 44 21.703125 44 
C 11.09375 44 2.703125 33.890625 2.703125 21.609375 
C 2.703125 8.609375 12.203125 -1 22.796875 -1 
C 34 -1 38.40625 9.484375 38.40625 11.5625 
C 38.40625 12.25 37.796875 12.25 37.59375 12.25 
C 36.90625 12.25 36.796875 12.046875 36.40625 10.875 
C 34.203125 4.140625 28.703125 0.796875 23.5 0.796875 
C 19.203125 0.796875 14.90625 3.171875 12.203125 7.5 
C 9.09375 12.546875 9.09375 18.375 9.09375 23 
z
M 9.203125 24.5 
C 9.90625 39.140625 17.59375 42.40625 21.59375 42.40625 
C 28.40625 42.40625 33 35.890625 33.09375 24.5 
z
" id="CMR17-101"/>
       <path d="M 36 25.828125 
C 36 32.375 36 35.84375 31.796875 39.734375 
C 28.09375 43 23.796875 44 20.40625 44 
C 12.5 44 6.796875 37.609375 6.796875 30.796875 
C 6.796875 27 9.796875 27 10.40625 27 
C 11.703125 27 14 27.78125 14 30.53125 
C 14 33 12.09375 34.078125 10.40625 34.078125 
C 10 34.078125 9.5 33.96875 9.203125 33.875 
C 11.296875 40.5 16.703125 42.40625 20.203125 42.40625 
C 25.203125 42.40625 30.703125 37.953125 30.703125 29.453125 
L 30.703125 25 
C 24.796875 25 17.703125 24.203125 12.09375 21.203125 
C 5.796875 17.703125 4 12.703125 4 8.90625 
C 4 1.203125 13 -1 18.296875 -1 
C 23.796875 -1 28.90625 2.171875 31.09375 7.984375 
C 31.296875 3.640625 34.09375 -0.28125 38.5 -0.28125 
C 40.59375 -0.28125 45.90625 1.09375 45.90625 8.859375 
L 45.90625 14.375 
L 44.09375 14.375 
L 44.09375 8.78125 
C 44.09375 2.78125 41.40625 2 40.09375 2 
C 36 2 36 7.15625 36 11.53125 
z
M 30.703125 13.59375 
C 30.703125 4.953125 24.5 0.59375 19 0.59375 
C 14 0.59375 10.09375 4.296875 10.09375 8.90625 
C 10.09375 11.890625 11.40625 17.1875 17.203125 20.390625 
C 22 23.09375 27.5 23.5 30.703125 23.5 
z
" id="CMR17-97"/>
       <path d="M 15.296875 68.6875 
L 3.40625 67.59375 
L 3.40625 65 
C 9.296875 65 10.203125 64.40625 10.203125 59.640625 
L 10.203125 6.65625 
C 10.203125 2.875 9.796875 2.390625 3.40625 2.390625 
L 3.40625 -0.203125 
C 5.796875 0 10.203125 0 12.703125 0 
C 15.296875 0 19.703125 0 22.09375 -0.203125 
L 22.09375 2.390625 
C 15.703125 2.390625 15.296875 2.78125 15.296875 6.65625 
z
" id="CMR17-108"/>
      </defs>
      <use transform="scale(0.996264)" xlink:href="#CMR17-82"/>
      <use transform="translate(67.791102 0)scale(0.996264)" xlink:href="#CMR17-101"/>
      <use transform="translate(108.276762 0)scale(0.996264)" xlink:href="#CMR17-97"/>
      <use transform="translate(153.96724 0)scale(0.996264)" xlink:href="#CMR17-108"/>
     </g>
    </g>
   </g>
   <g id="LineCollection_1">
    <path clip-path="url(#pe3c6207380)" d="M 115.880322 73.474841 
L 115.880322 72.900917 
" style="fill:none;stroke:#ff0000;stroke-width:2;"/>
    <path clip-path="url(#pe3c6207380)" d="M 123.16009 189.314225 
L 123.16009 189.03603 
" style="fill:none;stroke:#ff0000;stroke-width:2;"/>
    <path clip-path="url(#pe3c6207380)" d="M 130.439858 216.333182 
L 130.439858 216.083697 
" style="fill:none;stroke:#ff0000;stroke-width:2;"/>
    <path clip-path="url(#pe3c6207380)" d="M 137.719626 229.975707 
L 137.719626 229.717959 
" style="fill:none;stroke:#ff0000;stroke-width:2;"/>
    <path clip-path="url(#pe3c6207380)" d="M 144.999394 237.96959 
L 144.999394 237.729809 
" style="fill:none;stroke:#ff0000;stroke-width:2;"/>
    <path clip-path="url(#pe3c6207380)" d="M 152.279162 242.955704 
L 152.279162 242.742087 
" style="fill:none;stroke:#ff0000;stroke-width:2;"/>
    <path clip-path="url(#pe3c6207380)" d="M 159.55893 246.13381 
L 159.55893 245.957815 
" style="fill:none;stroke:#ff0000;stroke-width:2;"/>
    <path clip-path="url(#pe3c6207380)" d="M 166.838699 248.249692 
L 166.838699 248.105012 
" style="fill:none;stroke:#ff0000;stroke-width:2;"/>
    <path clip-path="url(#pe3c6207380)" d="M 174.118467 249.682804 
L 174.118467 249.56565 
" style="fill:none;stroke:#ff0000;stroke-width:2;"/>
    <path clip-path="url(#pe3c6207380)" d="M 181.398235 250.658136 
L 181.398235 250.565565 
" style="fill:none;stroke:#ff0000;stroke-width:2;"/>
    <path clip-path="url(#pe3c6207380)" d="M 188.678003 251.362072 
L 188.678003 251.286791 
" style="fill:none;stroke:#ff0000;stroke-width:2;"/>
    <path clip-path="url(#pe3c6207380)" d="M 195.957771 251.863848 
L 195.957771 251.795703 
" style="fill:none;stroke:#ff0000;stroke-width:2;"/>
    <path clip-path="url(#pe3c6207380)" d="M 203.237539 252.198962 
L 203.237539 252.149948 
" style="fill:none;stroke:#ff0000;stroke-width:2;"/>
    <path clip-path="url(#pe3c6207380)" d="M 210.517308 252.430576 
L 210.517308 252.392922 
" style="fill:none;stroke:#ff0000;stroke-width:2;"/>
    <path clip-path="url(#pe3c6207380)" d="M 217.797076 252.581787 
L 217.797076 252.552296 
" style="fill:none;stroke:#ff0000;stroke-width:2;"/>
    <path clip-path="url(#pe3c6207380)" d="M 225.076844 252.664359 
L 225.076844 252.639704 
" style="fill:none;stroke:#ff0000;stroke-width:2;"/>
    <path clip-path="url(#pe3c6207380)" d="M 232.356612 252.694735 
L 232.356612 252.669506 
" style="fill:none;stroke:#ff0000;stroke-width:2;"/>
    <path clip-path="url(#pe3c6207380)" d="M 239.63638 252.663894 
L 239.63638 252.63982 
" style="fill:none;stroke:#ff0000;stroke-width:2;"/>
    <path clip-path="url(#pe3c6207380)" d="M 246.916148 252.576778 
L 246.916148 252.548593 
" style="fill:none;stroke:#ff0000;stroke-width:2;"/>
    <path clip-path="url(#pe3c6207380)" d="M 254.195917 252.415763 
L 254.195917 252.383032 
" style="fill:none;stroke:#ff0000;stroke-width:2;"/>
    <path clip-path="url(#pe3c6207380)" d="M 261.475685 252.1698 
L 261.475685 252.126946 
" style="fill:none;stroke:#ff0000;stroke-width:2;"/>
    <path clip-path="url(#pe3c6207380)" d="M 268.755453 251.800188 
L 268.755453 251.74609 
" style="fill:none;stroke:#ff0000;stroke-width:2;"/>
    <path clip-path="url(#pe3c6207380)" d="M 276.035221 251.276457 
L 276.035221 251.203571 
" style="fill:none;stroke:#ff0000;stroke-width:2;"/>
    <path clip-path="url(#pe3c6207380)" d="M 283.314989 250.53943 
L 283.314989 250.454748 
" style="fill:none;stroke:#ff0000;stroke-width:2;"/>
    <path clip-path="url(#pe3c6207380)" d="M 290.594757 249.498462 
L 290.594757 249.38126 
" style="fill:none;stroke:#ff0000;stroke-width:2;"/>
    <path clip-path="url(#pe3c6207380)" d="M 297.874525 248.012975 
L 297.874525 247.858564 
" style="fill:none;stroke:#ff0000;stroke-width:2;"/>
    <path clip-path="url(#pe3c6207380)" d="M 305.154294 245.796316 
L 305.154294 245.642427 
" style="fill:none;stroke:#ff0000;stroke-width:2;"/>
    <path clip-path="url(#pe3c6207380)" d="M 312.434062 242.630302 
L 312.434062 242.422183 
" style="fill:none;stroke:#ff0000;stroke-width:2;"/>
    <path clip-path="url(#pe3c6207380)" d="M 319.71383 237.680798 
L 319.71383 237.447832 
" style="fill:none;stroke:#ff0000;stroke-width:2;"/>
    <path clip-path="url(#pe3c6207380)" d="M 326.993598 229.823074 
L 326.993598 229.561111 
" style="fill:none;stroke:#ff0000;stroke-width:2;"/>
    <path clip-path="url(#pe3c6207380)" d="M 334.273366 216.314234 
L 334.273366 216.092945 
" style="fill:none;stroke:#ff0000;stroke-width:2;"/>
    <path clip-path="url(#pe3c6207380)" d="M 341.553134 189.599176 
L 341.553134 189.254892 
" style="fill:none;stroke:#ff0000;stroke-width:2;"/>
   </g>
   <g id="line2d_11">
    <path clip-path="url(#pe3c6207380)" d="M 115.880322 73.187879 
L 123.16009 189.175128 
L 130.439858 216.208439 
L 137.719626 229.846833 
L 144.999394 237.849699 
L 152.279162 242.848896 
L 159.55893 246.045812 
L 166.838699 248.177352 
L 174.118467 249.624227 
L 181.398235 250.611851 
L 188.678003 251.324432 
L 195.957771 251.829776 
L 203.237539 252.174455 
L 210.517308 252.411749 
L 217.797076 252.567042 
L 225.076844 252.652031 
L 232.356612 252.68212 
L 239.63638 252.651857 
L 246.916148 252.562685 
L 254.195917 252.399398 
L 261.475685 252.148373 
L 268.755453 251.773139 
L 276.035221 251.240014 
L 283.314989 250.497089 
L 290.594757 249.439861 
L 297.874525 247.93577 
L 305.154294 245.719372 
L 312.434062 242.526242 
L 319.71383 237.564315 
L 326.993598 229.692093 
L 334.273366 216.203589 
L 341.553134 189.427034 
" style="fill:none;stroke:#000000;stroke-linecap:square;stroke-width:2;"/>
   </g>
   <g id="patch_3">
    <path d="M 104.596681 261.684426 
L 104.596681 63.911226 
" style="fill:none;stroke:#000000;stroke-linecap:square;stroke-linejoin:miter;stroke-width:0.8;"/>
   </g>
   <g id="patch_4">
    <path d="M 352.836775 261.684426 
L 352.836775 63.911226 
" style="fill:none;stroke:#000000;stroke-linecap:square;stroke-linejoin:miter;stroke-width:0.8;"/>
   </g>
   <g id="patch_5">
    <path d="M 104.596681 261.684426 
L 352.836775 261.684426 
" style="fill:none;stroke:#000000;stroke-linecap:square;stroke-linejoin:miter;stroke-width:0.8;"/>
   </g>
   <g id="patch_6">
    <path d="M 104.596681 63.911226 
L 352.836775 63.911226 
" style="fill:none;stroke:#000000;stroke-linecap:square;stroke-linejoin:miter;stroke-width:0.8;"/>
   </g>
   <g id="text_12">
    <!-- $C(t)$ -->
    <g transform="translate(206.788575 57.911226)scale(0.24 -0.24)">
     <defs>
      <path d="M 74.703125 69.109375 
C 74.703125 70 74 70 73.796875 70 
C 73.59375 70 73.203125 70 72.40625 69 
L 65.5 60.65625 
C 62 66.625 56.5 70 49 70 
C 27.40625 70 5 48.25 5 24.921875 
C 5 8.328125 16.703125 -2 31.296875 -2 
C 39.296875 -2 46.296875 1.375 52.09375 6.25 
C 60.796875 13.484375 63.40625 23.140625 63.40625 23.921875 
C 63.40625 24.8125 62.59375 24.8125 62.296875 24.8125 
C 61.40625 24.8125 61.296875 24.21875 61.09375 23.8125 
C 56.5 8.34375 43 0.890625 33 0.890625 
C 22.40625 0.890625 13.203125 7.640625 13.203125 21.734375 
C 13.203125 24.921875 14.203125 42.1875 25.5 55.1875 
C 31 61.546875 40.40625 67.109375 49.90625 67.109375 
C 60.90625 67.109375 65.796875 58.078125 65.796875 47.9375 
C 65.796875 45.359375 65.5 43.1875 65.5 42.78125 
C 65.5 41.890625 66.5 41.890625 66.796875 41.890625 
C 67.90625 41.890625 68 41.984375 68.40625 43.765625 
z
" id="CMMI12-67"/>
      <path d="M 30.59375 -24.390625 
C 30.59375 -24.296875 30.59375 -24.09375 30.296875 -23.796875 
C 25.703125 -19.125 13.40625 -6.359375 13.40625 24.703125 
C 13.40625 55.765625 25.5 68.421875 30.40625 73.390625 
C 30.40625 73.5 30.59375 73.703125 30.59375 74 
C 30.59375 74.296875 30.296875 74.5 29.90625 74.5 
C 28.796875 74.5 20.296875 67.125 15.40625 56.15625 
C 10.40625 45.109375 9 34.359375 9 24.8125 
C 9 17.625 9.703125 5.484375 15.703125 -7.359375 
C 20.5 -17.734375 28.703125 -25 29.90625 -25 
C 30.40625 -25 30.59375 -24.796875 30.59375 -24.390625 
z
" id="CMR17-40"/>
      <path d="M 20.09375 40.09375 
L 29.296875 40.09375 
C 31.203125 40.09375 32.203125 40.09375 32.203125 41.890625 
C 32.203125 43 31.59375 43 29.59375 43 
L 20.796875 43 
L 24.5 57.6875 
C 24.90625 59.078125 24.90625 59.28125 24.90625 60 
C 24.90625 61.609375 23.59375 62.5 22.296875 62.5 
C 21.5 62.5 19.203125 62.203125 18.40625 58.984375 
L 14.5 43 
L 5.09375 43 
C 3.09375 43 2.203125 43 2.203125 41.09375 
C 2.203125 40.09375 2.90625 40.09375 4.796875 40.09375 
L 13.703125 40.09375 
L 7.09375 13.765625 
C 6.296875 10.28125 6 9.28125 6 7.984375 
C 6 3.296875 9.296875 -1 14.90625 -1 
C 25 -1 30.40625 13.5625 30.40625 14.25 
C 30.40625 14.859375 30 15.15625 29.40625 15.15625 
C 29.203125 15.15625 28.796875 15.15625 28.59375 14.75 
C 28.5 14.65625 28.40625 14.546875 27.703125 12.953125 
C 25.59375 7.984375 21 1 15.203125 1 
C 12.203125 1 12 3.5 12 5.6875 
C 12 5.78125 12 7.6875 12.296875 8.875 
z
" id="CMMI12-116"/>
      <path d="M 26.296875 24.703125 
C 26.296875 31.875 25.59375 44.015625 19.59375 56.859375 
C 14.796875 67.234375 6.59375 74.5 5.40625 74.5 
C 5.09375 74.5 4.703125 74.390625 4.703125 73.890625 
C 4.703125 73.703125 4.796875 73.59375 4.90625 73.390625 
C 9.703125 68.40625 21.90625 55.75 21.90625 24.75 
C 21.90625 -6.359375 9.796875 -19.015625 4.90625 -24.015625 
C 4.796875 -24.203125 4.703125 -24.3125 4.703125 -24.5 
C 4.703125 -25 5.09375 -25 5.40625 -25 
C 6.5 -25 15 -17.625 19.90625 -6.65625 
C 24.90625 4.390625 26.296875 15.140625 26.296875 24.703125 
z
" id="CMR17-41"/>
     </defs>
     <use transform="scale(0.996264)" xlink:href="#CMMI12-67"/>
     <use transform="translate(76.946847 0)scale(0.996264)" xlink:href="#CMR17-40"/>
     <use transform="translate(112.227614 0)scale(0.996264)" xlink:href="#CMMI12-116"/>
     <use transform="translate(147.453945 0)scale(0.996264)" xlink:href="#CMR17-41"/>
    </g>
   </g>
  </g>
  <g id="axes_2">
   <g id="patch_7">
    <path d="M 412.178293 261.684426 
L 660.418388 261.684426 
L 660.418388 63.911226 
L 412.178293 63.911226 
z
" style="fill:#ffffff;"/>
   </g>
   <g id="matplotlib.axis_3">
    <g id="xtick_5">
     <g id="line2d_12">
      <g>
       <use style="stroke:#000000;stroke-width:0.8;" x="423.461934" xlink:href="#m9e9afb3dac" y="261.684426"/>
      </g>
     </g>
     <g id="text_13">
      <!-- $\mathdefault{0}$ -->
      <g transform="translate(419.559941 279.754014)scale(0.16 -0.16)">
       <use transform="scale(0.996264)" xlink:href="#CMR17-48"/>
      </g>
     </g>
    </g>
    <g id="xtick_6">
     <g id="line2d_13">
      <g>
       <use style="stroke:#000000;stroke-width:0.8;" x="493.984688" xlink:href="#m9e9afb3dac" y="261.684426"/>
      </g>
     </g>
     <g id="text_14">
      <!-- $\mathdefault{5}$ -->
      <g transform="translate(490.082695 279.754014)scale(0.16 -0.16)">
       <use transform="scale(0.996264)" xlink:href="#CMR17-53"/>
      </g>
     </g>
    </g>
    <g id="xtick_7">
     <g id="line2d_14">
      <g>
       <use style="stroke:#000000;stroke-width:0.8;" x="564.507442" xlink:href="#m9e9afb3dac" y="261.684426"/>
      </g>
     </g>
     <g id="text_15">
      <!-- $\mathdefault{10}$ -->
      <g transform="translate(556.703455 279.754014)scale(0.16 -0.16)">
       <use transform="scale(0.996264)" xlink:href="#CMR17-49"/>
       <use transform="translate(45.690477 0)scale(0.996264)" xlink:href="#CMR17-48"/>
      </g>
     </g>
    </g>
    <g id="xtick_8">
     <g id="line2d_15">
      <g>
       <use style="stroke:#000000;stroke-width:0.8;" x="635.030196" xlink:href="#m9e9afb3dac" y="261.684426"/>
      </g>
     </g>
     <g id="text_16">
      <!-- $\mathdefault{15}$ -->
      <g transform="translate(627.226209 279.754014)scale(0.16 -0.16)">
       <use transform="scale(0.996264)" xlink:href="#CMR17-49"/>
       <use transform="translate(45.690477 0)scale(0.996264)" xlink:href="#CMR17-53"/>
      </g>
     </g>
    </g>
   </g>
   <g id="matplotlib.axis_4">
    <g id="ytick_7">
     <g id="line2d_16">
      <g>
       <use style="stroke:#000000;stroke-width:0.8;" x="412.178293" xlink:href="#m7ccef59b46" y="253.130725"/>
      </g>
     </g>
     <g id="text_17">
      <!-- $\mathdefault{0}$ -->
      <g transform="translate(397.374306 258.665519)scale(0.16 -0.16)">
       <use transform="scale(0.996264)" xlink:href="#CMR17-48"/>
      </g>
     </g>
    </g>
    <g id="ytick_8">
     <g id="line2d_17">
      <g>
       <use style="stroke:#000000;stroke-width:0.8;" x="412.178293" xlink:href="#m7ccef59b46" y="215.486441"/>
      </g>
     </g>
     <g id="text_18">
      <!-- $\mathdefault{25}$ -->
      <g transform="translate(389.570319 221.021235)scale(0.16 -0.16)">
       <use transform="scale(0.996264)" xlink:href="#CMR17-50"/>
       <use transform="translate(45.690477 0)scale(0.996264)" xlink:href="#CMR17-53"/>
      </g>
     </g>
    </g>
    <g id="ytick_9">
     <g id="line2d_18">
      <g>
       <use style="stroke:#000000;stroke-width:0.8;" x="412.178293" xlink:href="#m7ccef59b46" y="177.842157"/>
      </g>
     </g>
     <g id="text_19">
      <!-- $\mathdefault{50}$ -->
      <g transform="translate(389.570319 183.376951)scale(0.16 -0.16)">
       <use transform="scale(0.996264)" xlink:href="#CMR17-53"/>
       <use transform="translate(45.690477 0)scale(0.996264)" xlink:href="#CMR17-48"/>
      </g>
     </g>
    </g>
    <g id="ytick_10">
     <g id="line2d_19">
      <g>
       <use style="stroke:#000000;stroke-width:0.8;" x="412.178293" xlink:href="#m7ccef59b46" y="140.197873"/>
      </g>
     </g>
     <g id="text_20">
      <!-- $\mathdefault{75}$ -->
      <g transform="translate(389.570319 145.732667)scale(0.16 -0.16)">
       <use transform="scale(0.996264)" xlink:href="#CMR17-55"/>
       <use transform="translate(45.690477 0)scale(0.996264)" xlink:href="#CMR17-53"/>
      </g>
     </g>
    </g>
    <g id="ytick_11">
     <g id="line2d_20">
      <g>
       <use style="stroke:#000000;stroke-width:0.8;" x="412.178293" xlink:href="#m7ccef59b46" y="102.553589"/>
      </g>
     </g>
     <g id="text_21">
      <!-- $\mathdefault{100}$ -->
      <g transform="translate(381.766332 108.088383)scale(0.16 -0.16)">
       <use transform="scale(0.996264)" xlink:href="#CMR17-49"/>
       <use transform="translate(45.690477 0)scale(0.996264)" xlink:href="#CMR17-48"/>
       <use transform="translate(91.380954 0)scale(0.996264)" xlink:href="#CMR17-48"/>
      </g>
     </g>
    </g>
    <g id="ytick_12">
     <g id="line2d_21">
      <g>
       <use style="stroke:#000000;stroke-width:0.8;" x="412.178293" xlink:href="#m7ccef59b46" y="64.909305"/>
      </g>
     </g>
     <g id="text_22">
      <!-- $\mathdefault{125}$ -->
      <g transform="translate(381.766332 70.444099)scale(0.16 -0.16)">
       <use transform="scale(0.996264)" xlink:href="#CMR17-49"/>
       <use transform="translate(45.690477 0)scale(0.996264)" xlink:href="#CMR17-50"/>
       <use transform="translate(91.380954 0)scale(0.996264)" xlink:href="#CMR17-53"/>
      </g>
     </g>
    </g>
   </g>
   <g id="LineCollection_2">
    <path clip-path="url(#pd8571bfe83)" d="M 423.461934 73.474841 
L 423.461934 72.900917 
" style="fill:none;stroke:#ff0000;stroke-width:2;"/>
    <path clip-path="url(#pd8571bfe83)" d="M 437.566485 189.407974 
L 437.566485 189.194188 
" style="fill:none;stroke:#ff0000;stroke-width:2;"/>
    <path clip-path="url(#pd8571bfe83)" d="M 451.671036 216.291211 
L 451.671036 216.120818 
" style="fill:none;stroke:#ff0000;stroke-width:2;"/>
    <path clip-path="url(#pd8571bfe83)" d="M 465.775586 229.856982 
L 465.775586 229.681943 
" style="fill:none;stroke:#ff0000;stroke-width:2;"/>
    <path clip-path="url(#pd8571bfe83)" d="M 479.880137 237.792645 
L 479.880137 237.62137 
" style="fill:none;stroke:#ff0000;stroke-width:2;"/>
    <path clip-path="url(#pd8571bfe83)" d="M 493.984688 242.76121 
L 493.984688 242.613928 
" style="fill:none;stroke:#ff0000;stroke-width:2;"/>
    <path clip-path="url(#pd8571bfe83)" d="M 508.089239 245.939769 
L 508.089239 245.825415 
" style="fill:none;stroke:#ff0000;stroke-width:2;"/>
    <path clip-path="url(#pd8571bfe83)" d="M 522.19379 248.111286 
L 522.19379 248.001836 
" style="fill:none;stroke:#ff0000;stroke-width:2;"/>
    <path clip-path="url(#pd8571bfe83)" d="M 536.29834 249.574089 
L 536.29834 249.489999 
" style="fill:none;stroke:#ff0000;stroke-width:2;"/>
    <path clip-path="url(#pd8571bfe83)" d="M 550.402891 250.58694 
L 550.402891 250.521999 
" style="fill:none;stroke:#ff0000;stroke-width:2;"/>
    <path clip-path="url(#pd8571bfe83)" d="M 564.507442 251.30633 
L 564.507442 251.258116 
" style="fill:none;stroke:#ff0000;stroke-width:2;"/>
    <path clip-path="url(#pd8571bfe83)" d="M 578.611993 251.824582 
L 578.611993 251.778333 
" style="fill:none;stroke:#ff0000;stroke-width:2;"/>
    <path clip-path="url(#pd8571bfe83)" d="M 592.716544 252.177183 
L 592.716544 252.145645 
" style="fill:none;stroke:#ff0000;stroke-width:2;"/>
    <path clip-path="url(#pd8571bfe83)" d="M 606.821094 252.417651 
L 606.821094 252.393496 
" style="fill:none;stroke:#ff0000;stroke-width:2;"/>
    <path clip-path="url(#pd8571bfe83)" d="M 620.925645 252.575507 
L 620.925645 252.55422 
" style="fill:none;stroke:#ff0000;stroke-width:2;"/>
    <path clip-path="url(#pd8571bfe83)" d="M 635.030196 252.660311 
L 635.030196 252.643576 
" style="fill:none;stroke:#ff0000;stroke-width:2;"/>
    <path clip-path="url(#pd8571bfe83)" d="M 649.134747 252.694735 
L 649.134747 252.669506 
" style="fill:none;stroke:#ff0000;stroke-width:2;"/>
   </g>
   <g id="line2d_22">
    <path clip-path="url(#pd8571bfe83)" d="M 423.461934 73.187879 
L 437.566485 189.301081 
L 451.671036 216.206014 
L 465.775586 229.769463 
L 479.880137 237.707007 
L 493.984688 242.687569 
L 508.089239 245.882592 
L 522.19379 248.056561 
L 536.29834 249.532044 
L 550.402891 250.55447 
L 564.507442 251.282223 
L 578.611993 251.801457 
L 592.716544 252.161414 
L 606.821094 252.405573 
L 620.925645 252.564864 
L 635.030196 252.651944 
L 649.134747 252.68212 
" style="fill:none;stroke:#000000;stroke-linecap:square;stroke-width:2;"/>
   </g>
   <g id="patch_8">
    <path d="M 412.178293 261.684426 
L 412.178293 63.911226 
" style="fill:none;stroke:#000000;stroke-linecap:square;stroke-linejoin:miter;stroke-width:0.8;"/>
   </g>
   <g id="patch_9">
    <path d="M 660.418388 261.684426 
L 660.418388 63.911226 
" style="fill:none;stroke:#000000;stroke-linecap:square;stroke-linejoin:miter;stroke-width:0.8;"/>
   </g>
   <g id="patch_10">
    <path d="M 412.178293 261.684426 
L 660.418388 261.684426 
" style="fill:none;stroke:#000000;stroke-linecap:square;stroke-linejoin:miter;stroke-width:0.8;"/>
   </g>
   <g id="patch_11">
    <path d="M 412.178293 63.911226 
L 660.418388 63.911226 
" style="fill:none;stroke:#000000;stroke-linecap:square;stroke-linejoin:miter;stroke-width:0.8;"/>
   </g>
   <g id="text_23">
    <!-- Folded $C(t)$ -->
    <g transform="translate(478.95933 57.911226)scale(0.24 -0.24)">
     <defs>
      <path d="M 54.40625 67.578125 
L 5.09375 67.578125 
L 5.09375 65 
C 12 65 13.09375 65 13.09375 60.53125 
L 13.09375 6.96875 
C 13.09375 2.5 12 2.5 5.09375 2.5 
L 5.09375 0 
C 8 0 13.59375 0 16.703125 0 
C 20.796875 0 25.59375 0 29.703125 0 
L 29.703125 2.5 
L 27.5 2.5 
C 19.90625 2.5 19.703125 3.484375 19.703125 7.0625 
L 19.703125 32.421875 
L 28.703125 32.421875 
C 38 32.421875 38.90625 29.140625 38.90625 20.8125 
L 40.703125 20.8125 
L 40.703125 46.671875 
L 38.90625 46.671875 
C 38.90625 38.28125 38 35 28.703125 35 
L 19.703125 35 
L 19.703125 61.109375 
C 19.703125 64.5 19.90625 65 23.90625 65 
L 36.796875 65 
C 51.90625 65 53.59375 58.828125 55 45.5625 
L 56.796875 45.5625 
z
" id="CMR17-70"/>
      <path d="M 43.09375 21.1875 
C 43.09375 34 33.796875 44 22.90625 44 
C 12 44 2.703125 34 2.703125 21.1875 
C 2.703125 8.609375 12 -1 22.90625 -1 
C 33.796875 -1 43.09375 8.609375 43.09375 21.1875 
z
M 22.90625 0.796875 
C 18.203125 0.796875 14.203125 3.59375 11.90625 7.5 
C 9.40625 11.984375 9.09375 17.59375 9.09375 22 
C 9.09375 26.203125 9.296875 31.40625 11.90625 35.90625 
C 13.90625 39.203125 17.796875 42.40625 22.90625 42.40625 
C 27.40625 42.40625 31.203125 39.90625 33.59375 36.40625 
C 36.703125 31.703125 36.703125 25.109375 36.703125 22 
C 36.703125 18.09375 36.5 12.109375 33.796875 7.296875 
C 31 2.703125 26.703125 0.796875 22.90625 0.796875 
z
" id="CMR17-111"/>
      <path d="M 29.203125 67.59375 
L 29.203125 65 
C 35.09375 65 36 64.40625 36 59.6875 
L 36 36.640625 
C 35.59375 37.140625 31.5 43.59375 23.40625 43.59375 
C 13.203125 43.59375 3.296875 34.5 3.296875 21.3125 
C 3.296875 8.203125 12.59375 -1 22.40625 -1 
C 30.90625 -1 35.296875 5.265625 35.796875 5.9375 
L 35.796875 -0.984375 
L 47.90625 -0.984375 
L 47.90625 2 
C 42 2 41.09375 2.59375 41.09375 7.390625 
L 41.09375 68.6875 
z
M 35.796875 11.796875 
C 35.796875 8.796875 34 6.09375 31.703125 4.09375 
C 28.296875 1.09375 24.90625 0.59375 23 0.59375 
C 20.09375 0.59375 9.703125 2.09375 9.703125 21.1875 
C 9.703125 40.8125 21.296875 42 23.90625 42 
C 28.5 42 32.203125 39.40625 34.5 35.796875 
C 35.796875 33.703125 35.796875 33.40625 35.796875 31.609375 
z
" id="CMR17-100"/>
     </defs>
     <use transform="scale(0.996264)" xlink:href="#CMR17-70"/>
     <use transform="translate(52.176591 0)scale(0.996264)" xlink:href="#CMR17-111"/>
     <use transform="translate(97.867068 0)scale(0.996264)" xlink:href="#CMR17-108"/>
     <use transform="translate(122.738127 0)scale(0.996264)" xlink:href="#CMR17-100"/>
     <use transform="translate(173.633497 0)scale(0.996264)" xlink:href="#CMR17-101"/>
     <use transform="translate(214.119157 0)scale(0.996264)" xlink:href="#CMR17-100"/>
     <use transform="translate(295.090493 0)scale(0.996264)" xlink:href="#CMMI12-67"/>
     <use transform="translate(372.03734 0)scale(0.996264)" xlink:href="#CMR17-40"/>
     <use transform="translate(407.318108 0)scale(0.996264)" xlink:href="#CMMI12-116"/>
     <use transform="translate(442.544438 0)scale(0.996264)" xlink:href="#CMR17-41"/>
    </g>
   </g>
  </g>
  <g id="axes_3">
   <g id="patch_12">
    <path d="M 719.759906 261.684426 
L 968 261.684426 
L 968 63.911226 
L 719.759906 63.911226 
z
" style="fill:#ffffff;"/>
   </g>
   <g id="matplotlib.axis_5">
    <g id="xtick_9">
     <g id="line2d_23">
      <g>
       <use style="stroke:#000000;stroke-width:0.8;" x="731.043547" xlink:href="#m9e9afb3dac" y="261.684426"/>
      </g>
     </g>
     <g id="text_24">
      <!-- $\mathdefault{0}$ -->
      <g transform="translate(727.141553 279.754014)scale(0.16 -0.16)">
       <use transform="scale(0.996264)" xlink:href="#CMR17-48"/>
      </g>
     </g>
    </g>
    <g id="xtick_10">
     <g id="line2d_24">
      <g>
       <use style="stroke:#000000;stroke-width:0.8;" x="801.566301" xlink:href="#m9e9afb3dac" y="261.684426"/>
      </g>
     </g>
     <g id="text_25">
      <!-- $\mathdefault{5}$ -->
      <g transform="translate(797.664307 279.754014)scale(0.16 -0.16)">
       <use transform="scale(0.996264)" xlink:href="#CMR17-53"/>
      </g>
     </g>
    </g>
    <g id="xtick_11">
     <g id="line2d_25">
      <g>
       <use style="stroke:#000000;stroke-width:0.8;" x="872.089055" xlink:href="#m9e9afb3dac" y="261.684426"/>
      </g>
     </g>
     <g id="text_26">
      <!-- $\mathdefault{10}$ -->
      <g transform="translate(864.285068 279.754014)scale(0.16 -0.16)">
       <use transform="scale(0.996264)" xlink:href="#CMR17-49"/>
       <use transform="translate(45.690477 0)scale(0.996264)" xlink:href="#CMR17-48"/>
      </g>
     </g>
    </g>
    <g id="xtick_12">
     <g id="line2d_26">
      <g>
       <use style="stroke:#000000;stroke-width:0.8;" x="942.611809" xlink:href="#m9e9afb3dac" y="261.684426"/>
      </g>
     </g>
     <g id="text_27">
      <!-- $\mathdefault{15}$ -->
      <g transform="translate(934.807822 279.754014)scale(0.16 -0.16)">
       <use transform="scale(0.996264)" xlink:href="#CMR17-49"/>
       <use transform="translate(45.690477 0)scale(0.996264)" xlink:href="#CMR17-53"/>
      </g>
     </g>
    </g>
   </g>
   <g id="matplotlib.axis_6">
    <g id="ytick_13">
     <g id="line2d_27">
      <g>
       <use style="stroke:#000000;stroke-width:0.8;" x="719.759906" xlink:href="#m7ccef59b46" y="220.200588"/>
      </g>
     </g>
     <g id="text_28">
      <!-- $\mathdefault{−0.1}$ -->
      <g transform="translate(680.418388 225.735382)scale(0.16 -0.16)">
       <defs>
        <path d="M 65.90625 23 
C 67.59375 23 69.40625 23 69.40625 25 
C 69.40625 27 67.59375 27 65.90625 27 
L 11.796875 27 
C 10.09375 27 8.296875 27 8.296875 25 
C 8.296875 23 10.09375 23 11.796875 23 
z
" id="CMSY10-0"/>
        <path d="M 18.40625 4.796875 
C 18.40625 7.6875 16 9.671875 13.59375 9.671875 
C 10.703125 9.671875 8.703125 7.28125 8.703125 4.890625 
C 8.703125 2 11.09375 0 13.5 0 
C 16.40625 0 18.40625 2.390625 18.40625 4.796875 
z
" id="CMMI12-58"/>
       </defs>
       <use transform="scale(0.996264)" xlink:href="#CMSY10-0"/>
       <use transform="translate(77.487468 0)scale(0.996264)" xlink:href="#CMR17-48"/>
       <use transform="translate(123.177945 0)scale(0.996264)" xlink:href="#CMMI12-58"/>
       <use transform="translate(150.275122 0)scale(0.996264)" xlink:href="#CMR17-49"/>
      </g>
     </g>
    </g>
    <g id="ytick_14">
     <g id="line2d_28">
      <g>
       <use style="stroke:#000000;stroke-width:0.8;" x="719.759906" xlink:href="#m7ccef59b46" y="163.449548"/>
      </g>
     </g>
     <g id="text_29">
      <!-- $\mathdefault{0.0}$ -->
      <g transform="translate(692.816384 168.984342)scale(0.16 -0.16)">
       <use transform="scale(0.996264)" xlink:href="#CMR17-48"/>
       <use transform="translate(45.690477 0)scale(0.996264)" xlink:href="#CMMI12-58"/>
       <use transform="translate(72.787654 0)scale(0.996264)" xlink:href="#CMR17-48"/>
      </g>
     </g>
    </g>
    <g id="ytick_15">
     <g id="line2d_29">
      <g>
       <use style="stroke:#000000;stroke-width:0.8;" x="719.759906" xlink:href="#m7ccef59b46" y="106.698507"/>
      </g>
     </g>
     <g id="text_30">
      <!-- $\mathdefault{0.1}$ -->
      <g transform="translate(692.816384 112.233301)scale(0.16 -0.16)">
       <use transform="scale(0.996264)" xlink:href="#CMR17-48"/>
       <use transform="translate(45.690477 0)scale(0.996264)" xlink:href="#CMMI12-58"/>
       <use transform="translate(72.787654 0)scale(0.996264)" xlink:href="#CMR17-49"/>
      </g>
     </g>
    </g>
   </g>
   <g id="LineCollection_3">
    <path clip-path="url(#p0d144b5cc7)" d="M 731.043547 163.449548 
L 731.043547 163.449548 
" style="fill:none;stroke:#ff0000;stroke-width:2;"/>
    <path clip-path="url(#p0d144b5cc7)" d="M 745.148097 159.057159 
L 745.148097 72.900917 
" style="fill:none;stroke:#ff0000;stroke-width:2;"/>
    <path clip-path="url(#p0d144b5cc7)" d="M 759.252648 195.081829 
L 759.252648 133.645137 
" style="fill:none;stroke:#ff0000;stroke-width:2;"/>
    <path clip-path="url(#p0d144b5cc7)" d="M 773.357199 228.803963 
L 773.357199 156.41519 
" style="fill:none;stroke:#ff0000;stroke-width:2;"/>
    <path clip-path="url(#p0d144b5cc7)" d="M 787.46175 247.933554 
L 787.46175 186.52394 
" style="fill:none;stroke:#ff0000;stroke-width:2;"/>
    <path clip-path="url(#p0d144b5cc7)" d="M 801.566301 252.694735 
L 801.566301 195.809128 
" style="fill:none;stroke:#ff0000;stroke-width:2;"/>
    <path clip-path="url(#p0d144b5cc7)" d="M 815.670851 247.461949 
L 815.670851 202.469316 
" style="fill:none;stroke:#ff0000;stroke-width:2;"/>
    <path clip-path="url(#p0d144b5cc7)" d="M 829.775402 228.199746 
L 829.775402 189.749442 
" style="fill:none;stroke:#ff0000;stroke-width:2;"/>
    <path clip-path="url(#p0d144b5cc7)" d="M 843.879953 213.570598 
L 843.879953 182.814285 
" style="fill:none;stroke:#ff0000;stroke-width:2;"/>
    <path clip-path="url(#p0d144b5cc7)" d="M 857.984504 196.465398 
L 857.984504 173.686248 
" style="fill:none;stroke:#ff0000;stroke-width:2;"/>
    <path clip-path="url(#p0d144b5cc7)" d="M 872.089055 189.959705 
L 872.089055 168.755756 
" style="fill:none;stroke:#ff0000;stroke-width:2;"/>
    <path clip-path="url(#p0d144b5cc7)" d="M 886.193605 181.768297 
L 886.193605 166.47653 
" style="fill:none;stroke:#ff0000;stroke-width:2;"/>
    <path clip-path="url(#p0d144b5cc7)" d="M 900.298156 174.684733 
L 900.298156 162.044412 
" style="fill:none;stroke:#ff0000;stroke-width:2;"/>
    <path clip-path="url(#p0d144b5cc7)" d="M 914.402707 170.622448 
L 914.402707 160.931728 
" style="fill:none;stroke:#ff0000;stroke-width:2;"/>
    <path clip-path="url(#p0d144b5cc7)" d="M 928.507258 167.938906 
L 928.507258 160.60207 
" style="fill:none;stroke:#ff0000;stroke-width:2;"/>
    <path clip-path="url(#p0d144b5cc7)" d="M 942.611809 166.819812 
L 942.611809 160.145037 
" style="fill:none;stroke:#ff0000;stroke-width:2;"/>
    <path clip-path="url(#p0d144b5cc7)" d="M 956.716359 163.449548 
L 956.716359 163.449548 
" style="fill:none;stroke:#ff0000;stroke-width:2;"/>
   </g>
   <g id="line2d_30">
    <path clip-path="url(#p0d144b5cc7)" d="M 731.043547 163.449548 
L 745.148097 115.979038 
L 759.252648 164.363483 
L 773.357199 192.609576 
L 787.46175 217.228747 
L 801.566301 224.251931 
L 815.670851 224.965633 
L 829.775402 208.974594 
L 843.879953 198.192441 
L 857.984504 185.075823 
L 872.089055 179.357731 
L 886.193605 174.122413 
L 900.298156 168.364572 
L 914.402707 165.777088 
L 928.507258 164.270488 
L 942.611809 163.482425 
L 956.716359 163.449548 
" style="fill:none;stroke:#000000;stroke-linecap:square;stroke-width:2;"/>
   </g>
   <g id="patch_13">
    <path d="M 719.759906 261.684426 
L 719.759906 63.911226 
" style="fill:none;stroke:#000000;stroke-linecap:square;stroke-linejoin:miter;stroke-width:0.8;"/>
   </g>
   <g id="patch_14">
    <path d="M 968 261.684426 
L 968 63.911226 
" style="fill:none;stroke:#000000;stroke-linecap:square;stroke-linejoin:miter;stroke-width:0.8;"/>
   </g>
   <g id="patch_15">
    <path d="M 719.759906 261.684426 
L 968 261.684426 
" style="fill:none;stroke:#000000;stroke-linecap:square;stroke-linejoin:miter;stroke-width:0.8;"/>
   </g>
   <g id="patch_16">
    <path d="M 719.759906 63.911226 
L 968 63.911226 
" style="fill:none;stroke:#000000;stroke-linecap:square;stroke-linejoin:miter;stroke-width:0.8;"/>
   </g>
   <g id="text_31">
    <!-- $C(t)$ - Folded $C(t)$ -->
    <g transform="translate(753.785442 57.911226)scale(0.24 -0.24)">
     <defs>
      <path d="M 25.5 19 
L 25.5 23.375 
L 0.40625 23.375 
L 0.40625 19 
z
" id="CMR17-45"/>
     </defs>
     <use transform="scale(0.996264)" xlink:href="#CMMI12-67"/>
     <use transform="translate(76.946847 0)scale(0.996264)" xlink:href="#CMR17-40"/>
     <use transform="translate(112.227614 0)scale(0.996264)" xlink:href="#CMMI12-116"/>
     <use transform="translate(147.453945 0)scale(0.996264)" xlink:href="#CMR17-41"/>
     <use transform="translate(212.810679 0)scale(0.996264)" xlink:href="#CMR17-45"/>
     <use transform="translate(272.962612 0)scale(0.996264)" xlink:href="#CMR17-70"/>
     <use transform="translate(325.139203 0)scale(0.996264)" xlink:href="#CMR17-111"/>
     <use transform="translate(370.82968 0)scale(0.996264)" xlink:href="#CMR17-108"/>
     <use transform="translate(395.700738 0)scale(0.996264)" xlink:href="#CMR17-100"/>
     <use transform="translate(446.596108 0)scale(0.996264)" xlink:href="#CMR17-101"/>
     <use transform="translate(487.081769 0)scale(0.996264)" xlink:href="#CMR17-100"/>
     <use transform="translate(568.053105 0)scale(0.996264)" xlink:href="#CMMI12-67"/>
     <use transform="translate(644.999951 0)scale(0.996264)" xlink:href="#CMR17-40"/>
     <use transform="translate(680.280719 0)scale(0.996264)" xlink:href="#CMMI12-116"/>
     <use transform="translate(715.507049 0)scale(0.996264)" xlink:href="#CMR17-41"/>
    </g>
   </g>
  </g>
  <g id="axes_4">
   <g id="patch_17">
    <path d="M 104.596681 514.830936 
L 352.836775 514.830936 
L 352.836775 317.057736 
L 104.596681 317.057736 
z
" style="fill:#ffffff;"/>
   </g>
   <g id="matplotlib.axis_7">
    <g id="xtick_13">
     <g id="line2d_31">
      <g>
       <use style="stroke:#000000;stroke-width:0.8;" x="115.880322" xlink:href="#m9e9afb3dac" y="514.830936"/>
      </g>
     </g>
     <g id="text_32">
      <!-- $\mathdefault{0}$ -->
      <g transform="translate(111.978328 532.900524)scale(0.16 -0.16)">
       <use transform="scale(0.996264)" xlink:href="#CMR17-48"/>
      </g>
     </g>
    </g>
    <g id="xtick_14">
     <g id="line2d_32">
      <g>
       <use style="stroke:#000000;stroke-width:0.8;" x="188.678003" xlink:href="#m9e9afb3dac" y="514.830936"/>
      </g>
     </g>
     <g id="text_33">
      <!-- $\mathdefault{10}$ -->
      <g transform="translate(180.874016 532.900524)scale(0.16 -0.16)">
       <use transform="scale(0.996264)" xlink:href="#CMR17-49"/>
       <use transform="translate(45.690477 0)scale(0.996264)" xlink:href="#CMR17-48"/>
      </g>
     </g>
    </g>
    <g id="xtick_15">
     <g id="line2d_33">
      <g>
       <use style="stroke:#000000;stroke-width:0.8;" x="261.475685" xlink:href="#m9e9afb3dac" y="514.830936"/>
      </g>
     </g>
     <g id="text_34">
      <!-- $\mathdefault{20}$ -->
      <g transform="translate(253.671698 532.900524)scale(0.16 -0.16)">
       <use transform="scale(0.996264)" xlink:href="#CMR17-50"/>
       <use transform="translate(45.690477 0)scale(0.996264)" xlink:href="#CMR17-48"/>
      </g>
     </g>
    </g>
    <g id="xtick_16">
     <g id="line2d_34">
      <g>
       <use style="stroke:#000000;stroke-width:0.8;" x="334.273366" xlink:href="#m9e9afb3dac" y="514.830936"/>
      </g>
     </g>
     <g id="text_35">
      <!-- $\mathdefault{30}$ -->
      <g transform="translate(326.469379 532.900524)scale(0.16 -0.16)">
       <use transform="scale(0.996264)" xlink:href="#CMR17-51"/>
       <use transform="translate(45.690477 0)scale(0.996264)" xlink:href="#CMR17-48"/>
      </g>
     </g>
    </g>
   </g>
   <g id="matplotlib.axis_8">
    <g id="ytick_16">
     <g id="line2d_35">
      <g>
       <use style="stroke:#000000;stroke-width:0.8;" x="104.596681" xlink:href="#m7ccef59b46" y="498.082289"/>
      </g>
     </g>
     <g id="text_36">
      <!-- $\mathdefault{−1.0}$ -->
      <g transform="translate(65.255163 503.617083)scale(0.16 -0.16)">
       <use transform="scale(0.996264)" xlink:href="#CMSY10-0"/>
       <use transform="translate(77.487468 0)scale(0.996264)" xlink:href="#CMR17-49"/>
       <use transform="translate(123.177945 0)scale(0.996264)" xlink:href="#CMMI12-58"/>
       <use transform="translate(150.275122 0)scale(0.996264)" xlink:href="#CMR17-48"/>
      </g>
     </g>
    </g>
    <g id="ytick_17">
     <g id="line2d_36">
      <g>
       <use style="stroke:#000000;stroke-width:0.8;" x="104.596681" xlink:href="#m7ccef59b46" y="459.556156"/>
      </g>
     </g>
     <g id="text_37">
      <!-- $\mathdefault{−0.5}$ -->
      <g transform="translate(65.255163 465.09095)scale(0.16 -0.16)">
       <use transform="scale(0.996264)" xlink:href="#CMSY10-0"/>
       <use transform="translate(77.487468 0)scale(0.996264)" xlink:href="#CMR17-48"/>
       <use transform="translate(123.177945 0)scale(0.996264)" xlink:href="#CMMI12-58"/>
       <use transform="translate(150.275122 0)scale(0.996264)" xlink:href="#CMR17-53"/>
      </g>
     </g>
    </g>
    <g id="ytick_18">
     <g id="line2d_37">
      <g>
       <use style="stroke:#000000;stroke-width:0.8;" x="104.596681" xlink:href="#m7ccef59b46" y="421.030023"/>
      </g>
     </g>
     <g id="text_38">
      <!-- $\mathdefault{0.0}$ -->
      <g transform="translate(77.653159 426.564817)scale(0.16 -0.16)">
       <use transform="scale(0.996264)" xlink:href="#CMR17-48"/>
       <use transform="translate(45.690477 0)scale(0.996264)" xlink:href="#CMMI12-58"/>
       <use transform="translate(72.787654 0)scale(0.996264)" xlink:href="#CMR17-48"/>
      </g>
     </g>
    </g>
    <g id="ytick_19">
     <g id="line2d_38">
      <g>
       <use style="stroke:#000000;stroke-width:0.8;" x="104.596681" xlink:href="#m7ccef59b46" y="382.50389"/>
      </g>
     </g>
     <g id="text_39">
      <!-- $\mathdefault{0.5}$ -->
      <g transform="translate(77.653159 388.038685)scale(0.16 -0.16)">
       <use transform="scale(0.996264)" xlink:href="#CMR17-48"/>
       <use transform="translate(45.690477 0)scale(0.996264)" xlink:href="#CMMI12-58"/>
       <use transform="translate(72.787654 0)scale(0.996264)" xlink:href="#CMR17-53"/>
      </g>
     </g>
    </g>
    <g id="ytick_20">
     <g id="line2d_39">
      <g>
       <use style="stroke:#000000;stroke-width:0.8;" x="104.596681" xlink:href="#m7ccef59b46" y="343.977758"/>
      </g>
     </g>
     <g id="text_40">
      <!-- $\mathdefault{1.0}$ -->
      <g transform="translate(77.653159 349.512552)scale(0.16 -0.16)">
       <use transform="scale(0.996264)" xlink:href="#CMR17-49"/>
       <use transform="translate(45.690477 0)scale(0.996264)" xlink:href="#CMMI12-58"/>
       <use transform="translate(72.787654 0)scale(0.996264)" xlink:href="#CMR17-48"/>
      </g>
     </g>
    </g>
    <g id="text_41">
     <!-- Imaginary -->
     <g transform="translate(56.604405 464.660674)rotate(-90)scale(0.24 -0.24)">
      <defs>
       <path d="M 19.703125 61.015625 
C 19.703125 65.5 20.90625 65.5 28.09375 65.5 
L 28.09375 68 
C 24.90625 68 19.796875 68 16.40625 68 
C 13 68 7.90625 68 4.703125 68 
L 4.703125 65.5 
C 11.90625 65.5 13.09375 65.5 13.09375 61.015625 
L 13.09375 6.984375 
C 13.09375 2.5 11.90625 2.5 4.703125 2.5 
L 4.703125 0 
C 7.90625 0 13 0 16.40625 0 
C 19.796875 0 24.90625 0 28.09375 0 
L 28.09375 2.5 
C 20.90625 2.5 19.703125 2.5 19.703125 6.984375 
z
" id="CMR17-73"/>
       <path d="M 67.59375 30.203125 
C 67.59375 35.1875 66.703125 43.59375 54.796875 43.59375 
C 48 43.59375 43.296875 39 41.5 33.609375 
L 41.40625 33.609375 
C 40.203125 41.8125 34.296875 43.59375 28.703125 43.59375 
C 20.796875 43.59375 16.703125 37.5 15.203125 33.5 
L 15.09375 33.5 
L 15.09375 43.59375 
L 3.296875 42.5 
L 3.296875 39.90625 
C 9.203125 39.90625 10.09375 39.296875 10.09375 34.5 
L 10.09375 6.6875 
C 10.09375 2.875 9.703125 2.390625 3.296875 2.390625 
L 3.296875 -0.203125 
C 5.703125 0 10.09375 0 12.703125 0 
C 15.296875 0 19.796875 0 22.203125 -0.203125 
L 22.203125 2.390625 
C 15.796875 2.390625 15.40625 2.78125 15.40625 6.6875 
L 15.40625 25.90625 
C 15.40625 35.109375 21 42 28 42 
C 35.40625 42 36.203125 35.40625 36.203125 30.59375 
L 36.203125 6.6875 
C 36.203125 2.875 35.796875 2.390625 29.40625 2.390625 
L 29.40625 -0.203125 
C 31.796875 0 36.203125 0 38.796875 0 
C 41.40625 0 45.90625 0 48.296875 -0.203125 
L 48.296875 2.390625 
C 41.90625 2.390625 41.5 2.78125 41.5 6.6875 
L 41.5 25.90625 
C 41.5 35.109375 47.09375 42 54.09375 42 
C 61.5 42 62.296875 35.40625 62.296875 30.59375 
L 62.296875 6.6875 
C 62.296875 2.875 61.90625 2.390625 55.5 2.390625 
L 55.5 -0.203125 
C 57.90625 0 62.296875 0 64.90625 0 
C 67.5 0 72 0 74.40625 -0.203125 
L 74.40625 2.390625 
C 68 2.390625 67.59375 2.78125 67.59375 6.6875 
z
" id="CMR17-109"/>
       <path d="M 11.09375 18.1875 
C 13 16.6875 16.296875 15 20.296875 15 
C 28.203125 15 35 21.203125 35 29.5 
C 35 32.09375 34.203125 36.09375 31.203125 39.203125 
C 34 42.0625 38.09375 43 40.40625 43 
C 40.796875 43 41.40625 43 41.90625 42.71875 
C 41.5 42.625 40.59375 42.234375 40.59375 40.703125 
C 40.59375 39.484375 41.5 38.609375 42.796875 38.609375 
C 44.296875 38.609375 45.09375 39.578125 45.09375 40.84375 
C 45.09375 42.671875 43.59375 44.59375 40.40625 44.59375 
C 36.40625 44.59375 32.90625 42.78125 30.09375 40.3125 
C 27.09375 43.015625 23.5 44 20.296875 44 
C 12.40625 44 5.59375 37.796875 5.59375 29.5 
C 5.59375 23.78125 8.90625 20.1875 9.90625 19.1875 
C 6.90625 15.6875 6.90625 11.609375 6.90625 11.109375 
C 6.90625 8.515625 7.90625 4.71875 11.296875 2.625 
C 6.09375 1.328125 2 -2.640625 2 -7.59375 
C 2 -14.734375 11.5 -20 22.90625 -20 
C 33.90625 -20 43.796875 -14.9375 43.796875 -7.484375 
C 43.796875 6 29 6 21.296875 6 
C 19 6 14.90625 6 14.40625 6.109375 
C 11.296875 6.609375 9.203125 9.40625 9.203125 12.90625 
C 9.203125 13.796875 9.203125 16 11.09375 18.1875 
z
M 20.296875 16.6875 
C 11.5 16.6875 11.5 27.5 11.5 29.515625 
C 11.5 31.5 11.5 42.3125 20.296875 42.3125 
C 29.09375 42.3125 29.09375 31.5 29.09375 29.515625 
C 29.09375 27.5 29.09375 16.6875 20.296875 16.6875 
z
M 22.90625 -18.296875 
C 12.90625 -18.296875 6 -13.046875 6 -7.59375 
C 6 -4.515625 7.703125 -1.640625 9.90625 -0.0625 
C 12.40625 1.625 13.40625 1.625 20.203125 1.625 
C 28.40625 1.625 39.796875 1.625 39.796875 -7.59375 
C 39.796875 -13.046875 32.90625 -18.296875 22.90625 -18.296875 
z
" id="CMR17-103"/>
       <path d="M 15.5 61.078125 
C 15.5 63.265625 13.703125 65.15625 11.40625 65.15625 
C 9.203125 65.15625 7.296875 63.375 7.296875 61.078125 
C 7.296875 58.890625 9.09375 57 11.40625 57 
C 13.59375 57 15.5 58.796875 15.5 61.078125 
z
M 3.796875 42.28125 
L 3.796875 39.703125 
C 9.40625 39.703125 10.203125 39.09375 10.203125 34.328125 
L 10.203125 6.671875 
C 10.203125 2.875 9.796875 2.390625 3.40625 2.390625 
L 3.40625 -0.203125 
C 5.796875 0 10.09375 0 12.59375 0 
C 15 0 19.09375 0 21.40625 -0.203125 
L 21.40625 2.390625 
C 15.5 2.390625 15.296875 2.984375 15.296875 6.5625 
L 15.296875 43.375 
z
" id="CMR17-105"/>
       <path d="M 41.5 30.203125 
C 41.5 35.296875 40.5 43.59375 28.703125 43.59375 
C 20.796875 43.59375 16.703125 37.5 15.203125 33.5 
L 15.09375 33.5 
L 15.09375 43.59375 
L 3.296875 42.5 
L 3.296875 39.90625 
C 9.203125 39.90625 10.09375 39.296875 10.09375 34.5 
L 10.09375 6.6875 
C 10.09375 2.875 9.703125 2.390625 3.296875 2.390625 
L 3.296875 -0.203125 
C 5.703125 0 10.09375 0 12.703125 0 
C 15.296875 0 19.796875 0 22.203125 -0.203125 
L 22.203125 2.390625 
C 15.796875 2.390625 15.40625 2.78125 15.40625 6.6875 
L 15.40625 25.90625 
C 15.40625 35.109375 21 42 28 42 
C 35.40625 42 36.203125 35.40625 36.203125 30.59375 
L 36.203125 6.6875 
C 36.203125 2.875 35.796875 2.390625 29.40625 2.390625 
L 29.40625 -0.203125 
C 31.796875 0 36.203125 0 38.796875 0 
C 41.40625 0 45.90625 0 48.296875 -0.203125 
L 48.296875 2.390625 
C 41.90625 2.390625 41.5 2.78125 41.5 6.6875 
z
" id="CMR17-110"/>
       <path d="M 15 23.390625 
C 15 33 19.09375 42 26.59375 42 
C 27.296875 42 28 41.90625 28.703125 41.59375 
C 28.703125 41.59375 26.5 40.890625 26.5 38.3125 
C 26.5 35.90625 28.40625 34.90625 29.90625 34.90625 
C 31.09375 34.90625 33.296875 35.609375 33.296875 38.40625 
C 33.296875 41.609375 30.09375 43.59375 26.703125 43.59375 
C 19.09375 43.59375 15.796875 36.203125 14.796875 32.703125 
L 14.703125 32.703125 
L 14.703125 43.59375 
L 3.09375 42.5 
L 3.09375 39.90625 
C 9 39.90625 9.90625 39.296875 9.90625 34.5 
L 9.90625 6.6875 
C 9.90625 2.875 9.5 2.390625 3.09375 2.390625 
L 3.09375 -0.203125 
C 5.5 0 10.09375 0 12.703125 0 
C 15.59375 0 20.703125 0 23.40625 -0.203125 
L 23.40625 2.390625 
C 16.203125 2.390625 15 2.390625 15 6.875 
z
" id="CMR17-114"/>
       <path d="M 39 34.328125 
C 41.5 40.40625 46 40.40625 47.40625 40.40625 
L 47.40625 43 
C 45.5 43 43 43 41.09375 43 
C 39 43 35.703125 43 33.703125 43.09375 
L 33.703125 40.5 
C 37.5 40.203125 37.59375 37.40625 37.59375 36.609375 
C 37.59375 35.625 37.40625 35.125 36.90625 33.921875 
L 26 7.015625 
L 14.09375 36.03125 
C 13.59375 37.21875 13.59375 37.90625 13.59375 38.015625 
C 13.59375 40.203125 15.90625 40.40625 18.296875 40.40625 
L 18.296875 43.09375 
C 15.90625 43 11.59375 43 9.09375 43 
C 6.40625 43 3.203125 43 1 43.09375 
L 1 40.40625 
C 6.40625 40.40625 7 39.90625 8.296875 36.71875 
L 23.203125 0.234375 
C 18.703125 -11.53125 16.09375 -18.40625 9.796875 -18.40625 
C 8.703125 -18.40625 6.203125 -18.109375 4.40625 -16.3125 
C 6.703125 -16.109375 7.703125 -14.71875 7.703125 -13.015625 
C 7.703125 -11.328125 6.5 -9.828125 4.5 -9.828125 
C 2.296875 -9.828125 1.203125 -11.328125 1.203125 -13.125 
C 1.203125 -17.109375 5.296875 -20 9.796875 -20 
C 15.59375 -20 19.203125 -14.40625 21.203125 -9.4375 
z
" id="CMR17-121"/>
      </defs>
      <use transform="scale(0.996264)" xlink:href="#CMR17-73"/>
      <use transform="translate(32.638409 0)scale(0.996264)" xlink:href="#CMR17-109"/>
      <use transform="translate(109.557999 0)scale(0.996264)" xlink:href="#CMR17-97"/>
      <use transform="translate(155.248476 0)scale(0.996264)" xlink:href="#CMR17-103"/>
      <use transform="translate(200.938953 0)scale(0.996264)" xlink:href="#CMR17-105"/>
      <use transform="translate(225.810012 0)scale(0.996264)" xlink:href="#CMR17-110"/>
      <use transform="translate(276.705382 0)scale(0.996264)" xlink:href="#CMR17-97"/>
      <use transform="translate(322.395859 0)scale(0.996264)" xlink:href="#CMR17-114"/>
      <use transform="translate(357.676626 0)scale(0.996264)" xlink:href="#CMR17-121"/>
     </g>
    </g>
    <g id="text_42">
     <!-- $\times\mathdefault{10^{−16}}\mathdefault{}$ -->
     <g transform="translate(104.596681 314.057736)scale(0.16 -0.16)">
      <defs>
       <path d="M 38.90625 27.890625 
L 18.90625 47.796875 
C 17.703125 49 17.5 49.1875 16.703125 49.1875 
C 15.703125 49.1875 14.703125 48.296875 14.703125 47.1875 
C 14.703125 46.5 14.90625 46.296875 16 45.1875 
L 36 25.09375 
L 16 5 
C 14.90625 3.890625 14.703125 3.6875 14.703125 3 
C 14.703125 1.890625 15.703125 1 16.703125 1 
C 17.5 1 17.703125 1.1875 18.90625 2.390625 
L 38.796875 22.296875 
L 59.5 1.59375 
C 59.703125 1.5 60.40625 1 61 1 
C 62.203125 1 63 1.890625 63 3 
C 63 3.1875 63 3.59375 62.703125 4.09375 
C 62.59375 4.296875 46.703125 20 41.703125 25.09375 
L 60 43.390625 
C 60.5 44 62 45.296875 62.5 45.890625 
C 62.59375 46.09375 63 46.5 63 47.1875 
C 63 48.296875 62.203125 49.1875 61 49.1875 
C 60.203125 49.1875 59.796875 48.796875 58.703125 47.6875 
z
" id="CMSY10-2"/>
       <path d="M 10.59375 34 
C 10.59375 57.65625 21.796875 63 28.296875 63 
C 30.40625 63 35.5 62.640625 37.5 59 
C 35.90625 59 32.90625 59 32.90625 55.515625 
C 32.90625 52.828125 35.09375 51.921875 36.5 51.921875 
C 37.40625 51.921875 40.09375 52.3125 40.09375 55.625 
C 40.09375 61.78125 35.09375 65.296875 28.203125 65.296875 
C 16.296875 65.296875 3.796875 52.96875 3.796875 31 
C 3.796875 3.953125 15.09375 -2 23.09375 -2 
C 32.796875 -2 42 6.671875 42 20.046875 
C 42 32.515625 33.90625 41.59375 23.703125 41.59375 
C 17.59375 41.59375 13.09375 37.609375 10.59375 30.625 
z
M 23.09375 0.390625 
C 10.796875 0.390625 10.796875 18.75 10.796875 22.4375 
C 10.796875 29.625 14.203125 40 23.5 40 
C 25.203125 40 30.09375 40 33.40625 33.125 
C 35.203125 29.21875 35.203125 25.140625 35.203125 20.140625 
C 35.203125 14.75 35.203125 10.78125 33.09375 6.78125 
C 30.90625 2.671875 27.703125 0.390625 23.09375 0.390625 
z
" id="CMR17-54"/>
      </defs>
      <use transform="scale(0.996264)" xlink:href="#CMSY10-2"/>
      <use transform="translate(77.487468 0)scale(0.996264)" xlink:href="#CMR17-49"/>
      <use transform="translate(123.177945 0)scale(0.996264)" xlink:href="#CMR17-48"/>
      <use transform="translate(168.868422 36.153639)scale(0.697382)" xlink:href="#CMSY10-0"/>
      <use transform="translate(223.109415 36.153639)scale(0.697382)" xlink:href="#CMR17-49"/>
      <use transform="translate(255.092597 36.153639)scale(0.697382)" xlink:href="#CMR17-54"/>
     </g>
    </g>
   </g>
   <g id="LineCollection_4">
    <path clip-path="url(#pdcb60d1e3b)" d="M 115.880322 482.44081 
L 115.880322 392.87949 
" style="fill:none;stroke:#ff0000;stroke-width:2;"/>
    <path clip-path="url(#pdcb60d1e3b)" d="M 123.16009 426.414449 
L 123.16009 326.047427 
" style="fill:none;stroke:#ff0000;stroke-width:2;"/>
    <path clip-path="url(#pdcb60d1e3b)" d="M 130.439858 475.061427 
L 130.439858 397.273648 
" style="fill:none;stroke:#ff0000;stroke-width:2;"/>
    <path clip-path="url(#pdcb60d1e3b)" d="M 137.719626 466.587795 
L 137.719626 418.327709 
" style="fill:none;stroke:#ff0000;stroke-width:2;"/>
    <path clip-path="url(#pdcb60d1e3b)" d="M 144.999394 456.410488 
L 144.999394 415.173354 
" style="fill:none;stroke:#ff0000;stroke-width:2;"/>
    <path clip-path="url(#pdcb60d1e3b)" d="M 152.279162 424.227475 
L 152.279162 387.310256 
" style="fill:none;stroke:#ff0000;stroke-width:2;"/>
    <path clip-path="url(#pdcb60d1e3b)" d="M 159.55893 439.402054 
L 159.55893 417.540396 
" style="fill:none;stroke:#ff0000;stroke-width:2;"/>
    <path clip-path="url(#pdcb60d1e3b)" d="M 166.838699 428.216238 
L 166.838699 411.009744 
" style="fill:none;stroke:#ff0000;stroke-width:2;"/>
    <path clip-path="url(#pdcb60d1e3b)" d="M 174.118467 418.529101 
L 174.118467 402.144536 
" style="fill:none;stroke:#ff0000;stroke-width:2;"/>
    <path clip-path="url(#pdcb60d1e3b)" d="M 181.398235 433.910233 
L 181.398235 422.844448 
" style="fill:none;stroke:#ff0000;stroke-width:2;"/>
    <path clip-path="url(#pdcb60d1e3b)" d="M 188.678003 424.0221 
L 188.678003 414.59626 
" style="fill:none;stroke:#ff0000;stroke-width:2;"/>
    <path clip-path="url(#pdcb60d1e3b)" d="M 195.957771 420.5074 
L 195.957771 411.922469 
" style="fill:none;stroke:#ff0000;stroke-width:2;"/>
    <path clip-path="url(#pdcb60d1e3b)" d="M 203.237539 425.516229 
L 203.237539 419.072837 
" style="fill:none;stroke:#ff0000;stroke-width:2;"/>
    <path clip-path="url(#pdcb60d1e3b)" d="M 210.517308 424.488292 
L 210.517308 419.848486 
" style="fill:none;stroke:#ff0000;stroke-width:2;"/>
    <path clip-path="url(#pdcb60d1e3b)" d="M 217.797076 426.442456 
L 217.797076 422.569786 
" style="fill:none;stroke:#ff0000;stroke-width:2;"/>
    <path clip-path="url(#pdcb60d1e3b)" d="M 225.076844 424.272535 
L 225.076844 420.280395 
" style="fill:none;stroke:#ff0000;stroke-width:2;"/>
    <path clip-path="url(#pdcb60d1e3b)" d="M 232.356612 421.716049 
L 232.356612 418.926053 
" style="fill:none;stroke:#ff0000;stroke-width:2;"/>
    <path clip-path="url(#pdcb60d1e3b)" d="M 239.63638 422.45862 
L 239.63638 418.194777 
" style="fill:none;stroke:#ff0000;stroke-width:2;"/>
    <path clip-path="url(#pdcb60d1e3b)" d="M 246.916148 425.137256 
L 246.916148 420.736243 
" style="fill:none;stroke:#ff0000;stroke-width:2;"/>
    <path clip-path="url(#pdcb60d1e3b)" d="M 254.195917 425.000834 
L 254.195917 420.78654 
" style="fill:none;stroke:#ff0000;stroke-width:2;"/>
    <path clip-path="url(#pdcb60d1e3b)" d="M 261.475685 420.082162 
L 261.475685 415.097242 
" style="fill:none;stroke:#ff0000;stroke-width:2;"/>
    <path clip-path="url(#pdcb60d1e3b)" d="M 268.755453 429.717319 
L 268.755453 420.582392 
" style="fill:none;stroke:#ff0000;stroke-width:2;"/>
    <path clip-path="url(#pdcb60d1e3b)" d="M 276.035221 427.199113 
L 276.035221 419.017474 
" style="fill:none;stroke:#ff0000;stroke-width:2;"/>
    <path clip-path="url(#pdcb60d1e3b)" d="M 283.314989 433.93506 
L 283.314989 421.131998 
" style="fill:none;stroke:#ff0000;stroke-width:2;"/>
    <path clip-path="url(#pdcb60d1e3b)" d="M 290.594757 443.006556 
L 290.594757 429.171337 
" style="fill:none;stroke:#ff0000;stroke-width:2;"/>
    <path clip-path="url(#pdcb60d1e3b)" d="M 297.874525 416.618063 
L 297.874525 397.382387 
" style="fill:none;stroke:#ff0000;stroke-width:2;"/>
    <path clip-path="url(#pdcb60d1e3b)" d="M 305.154294 416.084602 
L 305.154294 387.603435 
" style="fill:none;stroke:#ff0000;stroke-width:2;"/>
    <path clip-path="url(#pdcb60d1e3b)" d="M 312.434062 439.225756 
L 312.434062 408.10351 
" style="fill:none;stroke:#ff0000;stroke-width:2;"/>
    <path clip-path="url(#pdcb60d1e3b)" d="M 319.71383 431.743458 
L 319.71383 383.379038 
" style="fill:none;stroke:#ff0000;stroke-width:2;"/>
    <path clip-path="url(#pdcb60d1e3b)" d="M 326.993598 470.281937 
L 326.993598 421.117642 
" style="fill:none;stroke:#ff0000;stroke-width:2;"/>
    <path clip-path="url(#pdcb60d1e3b)" d="M 334.273366 454.40104 
L 334.273366 381.638213 
" style="fill:none;stroke:#ff0000;stroke-width:2;"/>
    <path clip-path="url(#pdcb60d1e3b)" d="M 341.553134 505.841245 
L 341.553134 421.845048 
" style="fill:none;stroke:#ff0000;stroke-width:2;"/>
   </g>
   <g id="line2d_40">
    <path clip-path="url(#pdcb60d1e3b)" d="M 115.880322 437.66015 
L 123.16009 376.230938 
L 130.439858 436.167537 
L 137.719626 442.457752 
L 144.999394 435.791921 
L 152.279162 405.768865 
L 159.55893 428.471225 
L 166.838699 419.612991 
L 174.118467 410.336818 
L 181.398235 428.37734 
L 188.678003 419.30918 
L 195.957771 416.214934 
L 203.237539 422.294533 
L 210.517308 422.168389 
L 217.797076 424.506121 
L 225.076844 422.276465 
L 232.356612 420.321051 
L 239.63638 420.326699 
L 246.916148 422.936749 
L 254.195917 422.893687 
L 261.475685 417.589702 
L 268.755453 425.149856 
L 276.035221 423.108294 
L 283.314989 427.533529 
L 290.594757 436.088946 
L 297.874525 407.000225 
L 305.154294 401.844019 
L 312.434062 423.664633 
L 319.71383 407.561248 
L 326.993598 445.69979 
L 334.273366 418.019627 
L 341.553134 463.843146 
" style="fill:none;stroke:#000000;stroke-linecap:square;stroke-width:2;"/>
   </g>
   <g id="patch_18">
    <path d="M 104.596681 514.830936 
L 104.596681 317.057736 
" style="fill:none;stroke:#000000;stroke-linecap:square;stroke-linejoin:miter;stroke-width:0.8;"/>
   </g>
   <g id="patch_19">
    <path d="M 352.836775 514.830936 
L 352.836775 317.057736 
" style="fill:none;stroke:#000000;stroke-linecap:square;stroke-linejoin:miter;stroke-width:0.8;"/>
   </g>
   <g id="patch_20">
    <path d="M 104.596681 514.830936 
L 352.836775 514.830936 
" style="fill:none;stroke:#000000;stroke-linecap:square;stroke-linejoin:miter;stroke-width:0.8;"/>
   </g>
   <g id="patch_21">
    <path d="M 104.596681 317.057736 
L 352.836775 317.057736 
" style="fill:none;stroke:#000000;stroke-linecap:square;stroke-linejoin:miter;stroke-width:0.8;"/>
   </g>
  </g>
  <g id="axes_5">
   <g id="patch_22">
    <path d="M 412.178293 514.830936 
L 660.418388 514.830936 
L 660.418388 317.057736 
L 412.178293 317.057736 
z
" style="fill:#ffffff;"/>
   </g>
   <g id="matplotlib.axis_9">
    <g id="xtick_17">
     <g id="line2d_41">
      <g>
       <use style="stroke:#000000;stroke-width:0.8;" x="423.461934" xlink:href="#m9e9afb3dac" y="514.830936"/>
      </g>
     </g>
     <g id="text_43">
      <!-- $\mathdefault{0}$ -->
      <g transform="translate(419.559941 532.900524)scale(0.16 -0.16)">
       <use transform="scale(0.996264)" xlink:href="#CMR17-48"/>
      </g>
     </g>
    </g>
    <g id="xtick_18">
     <g id="line2d_42">
      <g>
       <use style="stroke:#000000;stroke-width:0.8;" x="493.984688" xlink:href="#m9e9afb3dac" y="514.830936"/>
      </g>
     </g>
     <g id="text_44">
      <!-- $\mathdefault{5}$ -->
      <g transform="translate(490.082695 532.900524)scale(0.16 -0.16)">
       <use transform="scale(0.996264)" xlink:href="#CMR17-53"/>
      </g>
     </g>
    </g>
    <g id="xtick_19">
     <g id="line2d_43">
      <g>
       <use style="stroke:#000000;stroke-width:0.8;" x="564.507442" xlink:href="#m9e9afb3dac" y="514.830936"/>
      </g>
     </g>
     <g id="text_45">
      <!-- $\mathdefault{10}$ -->
      <g transform="translate(556.703455 532.900524)scale(0.16 -0.16)">
       <use transform="scale(0.996264)" xlink:href="#CMR17-49"/>
       <use transform="translate(45.690477 0)scale(0.996264)" xlink:href="#CMR17-48"/>
      </g>
     </g>
    </g>
    <g id="xtick_20">
     <g id="line2d_44">
      <g>
       <use style="stroke:#000000;stroke-width:0.8;" x="635.030196" xlink:href="#m9e9afb3dac" y="514.830936"/>
      </g>
     </g>
     <g id="text_46">
      <!-- $\mathdefault{15}$ -->
      <g transform="translate(627.226209 532.900524)scale(0.16 -0.16)">
       <use transform="scale(0.996264)" xlink:href="#CMR17-49"/>
       <use transform="translate(45.690477 0)scale(0.996264)" xlink:href="#CMR17-53"/>
      </g>
     </g>
    </g>
   </g>
   <g id="matplotlib.axis_10">
    <g id="ytick_21">
     <g id="line2d_45">
      <g>
       <use style="stroke:#000000;stroke-width:0.8;" x="412.178293" xlink:href="#m7ccef59b46" y="499.027886"/>
      </g>
     </g>
     <g id="text_47">
      <!-- $\mathdefault{−7.5}$ -->
      <g transform="translate(372.836775 504.56268)scale(0.16 -0.16)">
       <use transform="scale(0.996264)" xlink:href="#CMSY10-0"/>
       <use transform="translate(77.487468 0)scale(0.996264)" xlink:href="#CMR17-55"/>
       <use transform="translate(123.177945 0)scale(0.996264)" xlink:href="#CMMI12-58"/>
       <use transform="translate(150.275122 0)scale(0.996264)" xlink:href="#CMR17-53"/>
      </g>
     </g>
    </g>
    <g id="ytick_22">
     <g id="line2d_46">
      <g>
       <use style="stroke:#000000;stroke-width:0.8;" x="412.178293" xlink:href="#m7ccef59b46" y="462.787931"/>
      </g>
     </g>
     <g id="text_48">
      <!-- $\mathdefault{−5.0}$ -->
      <g transform="translate(372.836775 468.322725)scale(0.16 -0.16)">
       <use transform="scale(0.996264)" xlink:href="#CMSY10-0"/>
       <use transform="translate(77.487468 0)scale(0.996264)" xlink:href="#CMR17-53"/>
       <use transform="translate(123.177945 0)scale(0.996264)" xlink:href="#CMMI12-58"/>
       <use transform="translate(150.275122 0)scale(0.996264)" xlink:href="#CMR17-48"/>
      </g>
     </g>
    </g>
    <g id="ytick_23">
     <g id="line2d_47">
      <g>
       <use style="stroke:#000000;stroke-width:0.8;" x="412.178293" xlink:href="#m7ccef59b46" y="426.547977"/>
      </g>
     </g>
     <g id="text_49">
      <!-- $\mathdefault{−2.5}$ -->
      <g transform="translate(372.836775 432.082771)scale(0.16 -0.16)">
       <use transform="scale(0.996264)" xlink:href="#CMSY10-0"/>
       <use transform="translate(77.487468 0)scale(0.996264)" xlink:href="#CMR17-50"/>
       <use transform="translate(123.177945 0)scale(0.996264)" xlink:href="#CMMI12-58"/>
       <use transform="translate(150.275122 0)scale(0.996264)" xlink:href="#CMR17-53"/>
      </g>
     </g>
    </g>
    <g id="ytick_24">
     <g id="line2d_48">
      <g>
       <use style="stroke:#000000;stroke-width:0.8;" x="412.178293" xlink:href="#m7ccef59b46" y="390.308022"/>
      </g>
     </g>
     <g id="text_50">
      <!-- $\mathdefault{0.0}$ -->
      <g transform="translate(385.234771 395.842816)scale(0.16 -0.16)">
       <use transform="scale(0.996264)" xlink:href="#CMR17-48"/>
       <use transform="translate(45.690477 0)scale(0.996264)" xlink:href="#CMMI12-58"/>
       <use transform="translate(72.787654 0)scale(0.996264)" xlink:href="#CMR17-48"/>
      </g>
     </g>
    </g>
    <g id="ytick_25">
     <g id="line2d_49">
      <g>
       <use style="stroke:#000000;stroke-width:0.8;" x="412.178293" xlink:href="#m7ccef59b46" y="354.068067"/>
      </g>
     </g>
     <g id="text_51">
      <!-- $\mathdefault{2.5}$ -->
      <g transform="translate(385.234771 359.602862)scale(0.16 -0.16)">
       <use transform="scale(0.996264)" xlink:href="#CMR17-50"/>
       <use transform="translate(45.690477 0)scale(0.996264)" xlink:href="#CMMI12-58"/>
       <use transform="translate(72.787654 0)scale(0.996264)" xlink:href="#CMR17-53"/>
      </g>
     </g>
    </g>
    <g id="ytick_26">
     <g id="line2d_50">
      <g>
       <use style="stroke:#000000;stroke-width:0.8;" x="412.178293" xlink:href="#m7ccef59b46" y="317.828113"/>
      </g>
     </g>
     <g id="text_52">
      <!-- $\mathdefault{5.0}$ -->
      <g transform="translate(385.234771 323.362907)scale(0.16 -0.16)">
       <use transform="scale(0.996264)" xlink:href="#CMR17-53"/>
       <use transform="translate(45.690477 0)scale(0.996264)" xlink:href="#CMMI12-58"/>
       <use transform="translate(72.787654 0)scale(0.996264)" xlink:href="#CMR17-48"/>
      </g>
     </g>
    </g>
    <g id="text_53">
     <!-- $\times\mathdefault{10^{−17}}\mathdefault{}$ -->
     <g transform="translate(412.178293 314.057736)scale(0.16 -0.16)">
      <use transform="scale(0.996264)" xlink:href="#CMSY10-2"/>
      <use transform="translate(77.487468 0)scale(0.996264)" xlink:href="#CMR17-49"/>
      <use transform="translate(123.177945 0)scale(0.996264)" xlink:href="#CMR17-48"/>
      <use transform="translate(168.868422 36.153639)scale(0.697382)" xlink:href="#CMSY10-0"/>
      <use transform="translate(223.109415 36.153639)scale(0.697382)" xlink:href="#CMR17-49"/>
      <use transform="translate(255.092597 36.153639)scale(0.697382)" xlink:href="#CMR17-55"/>
     </g>
    </g>
   </g>
   <g id="LineCollection_5">
    <path clip-path="url(#pddfa4bb9cc)" d="M 423.461934 505.841245 
L 423.461934 337.347915 
" style="fill:none;stroke:#ff0000;stroke-width:2;"/>
    <path clip-path="url(#pddfa4bb9cc)" d="M 437.566485 450.83239 
L 437.566485 326.047427 
" style="fill:none;stroke:#ff0000;stroke-width:2;"/>
    <path clip-path="url(#pddfa4bb9cc)" d="M 451.671036 451.242075 
L 451.671036 352.188935 
" style="fill:none;stroke:#ff0000;stroke-width:2;"/>
    <path clip-path="url(#pddfa4bb9cc)" d="M 465.775586 466.821549 
L 465.775586 400.518545 
" style="fill:none;stroke:#ff0000;stroke-width:2;"/>
    <path clip-path="url(#pddfa4bb9cc)" d="M 479.880137 421.304862 
L 479.880137 361.743957 
" style="fill:none;stroke:#ff0000;stroke-width:2;"/>
    <path clip-path="url(#pddfa4bb9cc)" d="M 493.984688 400.852012 
L 493.984688 356.009478 
" style="fill:none;stroke:#ff0000;stroke-width:2;"/>
    <path clip-path="url(#pddfa4bb9cc)" d="M 508.089239 397.244558 
L 508.089239 361.275777 
" style="fill:none;stroke:#ff0000;stroke-width:2;"/>
    <path clip-path="url(#pddfa4bb9cc)" d="M 522.19379 387.682722 
L 522.19379 363.87292 
" style="fill:none;stroke:#ff0000;stroke-width:2;"/>
    <path clip-path="url(#pddfa4bb9cc)" d="M 536.29834 404.507951 
L 536.29834 384.321398 
" style="fill:none;stroke:#ff0000;stroke-width:2;"/>
    <path clip-path="url(#pddfa4bb9cc)" d="M 550.402891 411.539911 
L 550.402891 395.133937 
" style="fill:none;stroke:#ff0000;stroke-width:2;"/>
    <path clip-path="url(#pddfa4bb9cc)" d="M 564.507442 396.441018 
L 564.507442 384.847461 
" style="fill:none;stroke:#ff0000;stroke-width:2;"/>
    <path clip-path="url(#pddfa4bb9cc)" d="M 578.611993 395.817312 
L 578.611993 383.490734 
" style="fill:none;stroke:#ff0000;stroke-width:2;"/>
    <path clip-path="url(#pddfa4bb9cc)" d="M 592.716544 392.127833 
L 592.716544 384.394817 
" style="fill:none;stroke:#ff0000;stroke-width:2;"/>
    <path clip-path="url(#pddfa4bb9cc)" d="M 606.821094 396.040542 
L 606.821094 390.223273 
" style="fill:none;stroke:#ff0000;stroke-width:2;"/>
    <path clip-path="url(#pddfa4bb9cc)" d="M 620.925645 398.013618 
L 620.925645 392.72923 
" style="fill:none;stroke:#ff0000;stroke-width:2;"/>
    <path clip-path="url(#pddfa4bb9cc)" d="M 635.030196 393.625557 
L 635.030196 388.012262 
" style="fill:none;stroke:#ff0000;stroke-width:2;"/>
    <path clip-path="url(#pddfa4bb9cc)" d="M 649.134747 391.598655 
L 649.134747 386.349785 
" style="fill:none;stroke:#ff0000;stroke-width:2;"/>
   </g>
   <g id="line2d_51">
    <path clip-path="url(#pddfa4bb9cc)" d="M 423.461934 421.59458 
L 437.566485 388.439909 
L 451.671036 401.715505 
L 465.775586 433.670047 
L 479.880137 391.524409 
L 493.984688 378.430745 
L 508.089239 379.260167 
L 522.19379 375.777821 
L 536.29834 394.414674 
L 550.402891 403.336924 
L 564.507442 390.644239 
L 578.611993 389.654023 
L 592.716544 388.261325 
L 606.821094 393.131908 
L 620.925645 395.371424 
L 635.030196 390.81891 
L 649.134747 388.97422 
" style="fill:none;stroke:#000000;stroke-linecap:square;stroke-width:2;"/>
   </g>
   <g id="patch_23">
    <path d="M 412.178293 514.830936 
L 412.178293 317.057736 
" style="fill:none;stroke:#000000;stroke-linecap:square;stroke-linejoin:miter;stroke-width:0.8;"/>
   </g>
   <g id="patch_24">
    <path d="M 660.418388 514.830936 
L 660.418388 317.057736 
" style="fill:none;stroke:#000000;stroke-linecap:square;stroke-linejoin:miter;stroke-width:0.8;"/>
   </g>
   <g id="patch_25">
    <path d="M 412.178293 514.830936 
L 660.418388 514.830936 
" style="fill:none;stroke:#000000;stroke-linecap:square;stroke-linejoin:miter;stroke-width:0.8;"/>
   </g>
   <g id="patch_26">
    <path d="M 412.178293 317.057736 
L 660.418388 317.057736 
" style="fill:none;stroke:#000000;stroke-linecap:square;stroke-linejoin:miter;stroke-width:0.8;"/>
   </g>
  </g>
  <g id="axes_6">
   <g id="patch_27">
    <path d="M 719.759906 514.830936 
L 968 514.830936 
L 968 317.057736 
L 719.759906 317.057736 
z
" style="fill:#ffffff;"/>
   </g>
   <g id="matplotlib.axis_11">
    <g id="xtick_21">
     <g id="line2d_52">
      <g>
       <use style="stroke:#000000;stroke-width:0.8;" x="731.043547" xlink:href="#m9e9afb3dac" y="514.830936"/>
      </g>
     </g>
     <g id="text_54">
      <!-- $\mathdefault{0}$ -->
      <g transform="translate(727.141553 532.900524)scale(0.16 -0.16)">
       <use transform="scale(0.996264)" xlink:href="#CMR17-48"/>
      </g>
     </g>
    </g>
    <g id="xtick_22">
     <g id="line2d_53">
      <g>
       <use style="stroke:#000000;stroke-width:0.8;" x="801.566301" xlink:href="#m9e9afb3dac" y="514.830936"/>
      </g>
     </g>
     <g id="text_55">
      <!-- $\mathdefault{5}$ -->
      <g transform="translate(797.664307 532.900524)scale(0.16 -0.16)">
       <use transform="scale(0.996264)" xlink:href="#CMR17-53"/>
      </g>
     </g>
    </g>
    <g id="xtick_23">
     <g id="line2d_54">
      <g>
       <use style="stroke:#000000;stroke-width:0.8;" x="872.089055" xlink:href="#m9e9afb3dac" y="514.830936"/>
      </g>
     </g>
     <g id="text_56">
      <!-- $\mathdefault{10}$ -->
      <g transform="translate(864.285068 532.900524)scale(0.16 -0.16)">
       <use transform="scale(0.996264)" xlink:href="#CMR17-49"/>
       <use transform="translate(45.690477 0)scale(0.996264)" xlink:href="#CMR17-48"/>
      </g>
     </g>
    </g>
    <g id="xtick_24">
     <g id="line2d_55">
      <g>
       <use style="stroke:#000000;stroke-width:0.8;" x="942.611809" xlink:href="#m9e9afb3dac" y="514.830936"/>
      </g>
     </g>
     <g id="text_57">
      <!-- $\mathdefault{15}$ -->
      <g transform="translate(934.807822 532.900524)scale(0.16 -0.16)">
       <use transform="scale(0.996264)" xlink:href="#CMR17-49"/>
       <use transform="translate(45.690477 0)scale(0.996264)" xlink:href="#CMR17-53"/>
      </g>
     </g>
    </g>
   </g>
   <g id="matplotlib.axis_12">
    <g id="ytick_27">
     <g id="line2d_56">
      <g>
       <use style="stroke:#000000;stroke-width:0.8;" x="719.759906" xlink:href="#m7ccef59b46" y="509.889826"/>
      </g>
     </g>
     <g id="text_58">
      <!-- $\mathdefault{−0.5}$ -->
      <g transform="translate(680.418388 515.42462)scale(0.16 -0.16)">
       <use transform="scale(0.996264)" xlink:href="#CMSY10-0"/>
       <use transform="translate(77.487468 0)scale(0.996264)" xlink:href="#CMR17-48"/>
       <use transform="translate(123.177945 0)scale(0.996264)" xlink:href="#CMMI12-58"/>
       <use transform="translate(150.275122 0)scale(0.996264)" xlink:href="#CMR17-53"/>
      </g>
     </g>
    </g>
    <g id="ytick_28">
     <g id="line2d_57">
      <g>
       <use style="stroke:#000000;stroke-width:0.8;" x="719.759906" xlink:href="#m7ccef59b46" y="448.086152"/>
      </g>
     </g>
     <g id="text_59">
      <!-- $\mathdefault{0.0}$ -->
      <g transform="translate(692.816384 453.620947)scale(0.16 -0.16)">
       <use transform="scale(0.996264)" xlink:href="#CMR17-48"/>
       <use transform="translate(45.690477 0)scale(0.996264)" xlink:href="#CMMI12-58"/>
       <use transform="translate(72.787654 0)scale(0.996264)" xlink:href="#CMR17-48"/>
      </g>
     </g>
    </g>
    <g id="ytick_29">
     <g id="line2d_58">
      <g>
       <use style="stroke:#000000;stroke-width:0.8;" x="719.759906" xlink:href="#m7ccef59b46" y="386.282479"/>
      </g>
     </g>
     <g id="text_60">
      <!-- $\mathdefault{0.5}$ -->
      <g transform="translate(692.816384 391.817273)scale(0.16 -0.16)">
       <use transform="scale(0.996264)" xlink:href="#CMR17-48"/>
       <use transform="translate(45.690477 0)scale(0.996264)" xlink:href="#CMMI12-58"/>
       <use transform="translate(72.787654 0)scale(0.996264)" xlink:href="#CMR17-53"/>
      </g>
     </g>
    </g>
    <g id="ytick_30">
     <g id="line2d_59">
      <g>
       <use style="stroke:#000000;stroke-width:0.8;" x="719.759906" xlink:href="#m7ccef59b46" y="324.478805"/>
      </g>
     </g>
     <g id="text_61">
      <!-- $\mathdefault{1.0}$ -->
      <g transform="translate(692.816384 330.013599)scale(0.16 -0.16)">
       <use transform="scale(0.996264)" xlink:href="#CMR17-49"/>
       <use transform="translate(45.690477 0)scale(0.996264)" xlink:href="#CMMI12-58"/>
       <use transform="translate(72.787654 0)scale(0.996264)" xlink:href="#CMR17-48"/>
      </g>
     </g>
    </g>
    <g id="text_62">
     <!-- $\times\mathdefault{10^{−16}}\mathdefault{}$ -->
     <g transform="translate(719.759906 314.057736)scale(0.16 -0.16)">
      <use transform="scale(0.996264)" xlink:href="#CMSY10-2"/>
      <use transform="translate(77.487468 0)scale(0.996264)" xlink:href="#CMR17-49"/>
      <use transform="translate(123.177945 0)scale(0.996264)" xlink:href="#CMR17-48"/>
      <use transform="translate(168.868422 36.153639)scale(0.697382)" xlink:href="#CMSY10-0"/>
      <use transform="translate(223.109415 36.153639)scale(0.697382)" xlink:href="#CMR17-49"/>
      <use transform="translate(255.092597 36.153639)scale(0.697382)" xlink:href="#CMR17-54"/>
     </g>
    </g>
   </g>
   <g id="LineCollection_6">
    <path clip-path="url(#pf08f06df10)" d="M 731.043547 448.086152 
L 731.043547 448.086152 
" style="fill:none;stroke:#ff0000;stroke-width:2;"/>
    <path clip-path="url(#pf08f06df10)" d="M 745.148097 429.577256 
L 745.148097 326.047427 
" style="fill:none;stroke:#ff0000;stroke-width:2;"/>
    <path clip-path="url(#pf08f06df10)" d="M 759.252648 505.841245 
L 759.252648 419.443963 
" style="fill:none;stroke:#ff0000;stroke-width:2;"/>
    <path clip-path="url(#pf08f06df10)" d="M 773.357199 472.460915 
L 773.357199 418.510508 
" style="fill:none;stroke:#ff0000;stroke-width:2;"/>
    <path clip-path="url(#pf08f06df10)" d="M 787.46175 496.315726 
L 787.46175 445.144263 
" style="fill:none;stroke:#ff0000;stroke-width:2;"/>
    <path clip-path="url(#pf08f06df10)" d="M 801.566301 453.339935 
L 801.566301 414.123955 
" style="fill:none;stroke:#ff0000;stroke-width:2;"/>
    <path clip-path="url(#pf08f06df10)" d="M 815.670851 482.842082 
L 815.670851 456.045623 
" style="fill:none;stroke:#ff0000;stroke-width:2;"/>
    <path clip-path="url(#pf08f06df10)" d="M 829.775402 468.748734 
L 829.775402 447.656987 
" style="fill:none;stroke:#ff0000;stroke-width:2;"/>
    <path clip-path="url(#pf08f06df10)" d="M 843.879953 436.024464 
L 843.879953 418.836243 
" style="fill:none;stroke:#ff0000;stroke-width:2;"/>
    <path clip-path="url(#pf08f06df10)" d="M 857.984504 455.33523 
L 857.984504 442.190718 
" style="fill:none;stroke:#ff0000;stroke-width:2;"/>
    <path clip-path="url(#pf08f06df10)" d="M 872.089055 450.106536 
L 872.089055 439.971226 
" style="fill:none;stroke:#ff0000;stroke-width:2;"/>
    <path clip-path="url(#pf08f06df10)" d="M 886.193605 445.708195 
L 886.193605 436.130697 
" style="fill:none;stroke:#ff0000;stroke-width:2;"/>
    <path clip-path="url(#pf08f06df10)" d="M 900.298156 455.097027 
L 900.298156 448.622773 
" style="fill:none;stroke:#ff0000;stroke-width:2;"/>
    <path clip-path="url(#pf08f06df10)" d="M 914.402707 450.051336 
L 914.402707 444.957445 
" style="fill:none;stroke:#ff0000;stroke-width:2;"/>
    <path clip-path="url(#pf08f06df10)" d="M 928.507258 451.790165 
L 928.507258 446.899728 
" style="fill:none;stroke:#ff0000;stroke-width:2;"/>
    <path clip-path="url(#pf08f06df10)" d="M 942.611809 451.940797 
L 942.611809 447.359325 
" style="fill:none;stroke:#ff0000;stroke-width:2;"/>
    <path clip-path="url(#pf08f06df10)" d="M 956.716359 448.086152 
L 956.716359 448.086152 
" style="fill:none;stroke:#ff0000;stroke-width:2;"/>
   </g>
   <g id="line2d_60">
    <path clip-path="url(#pf08f06df10)" d="M 731.043547 448.086152 
L 745.148097 377.812341 
L 759.252648 462.642604 
L 773.357199 445.485712 
L 787.46175 470.729994 
L 801.566301 433.731945 
L 815.670851 469.443852 
L 829.775402 458.202861 
L 843.879953 427.430353 
L 857.984504 448.762974 
L 872.089055 445.038881 
L 886.193605 440.919446 
L 900.298156 451.8599 
L 914.402707 447.50439 
L 928.507258 449.344947 
L 942.611809 449.650061 
L 956.716359 448.086152 
" style="fill:none;stroke:#000000;stroke-linecap:square;stroke-width:2;"/>
   </g>
   <g id="patch_28">
    <path d="M 719.759906 514.830936 
L 719.759906 317.057736 
" style="fill:none;stroke:#000000;stroke-linecap:square;stroke-linejoin:miter;stroke-width:0.8;"/>
   </g>
   <g id="patch_29">
    <path d="M 968 514.830936 
L 968 317.057736 
" style="fill:none;stroke:#000000;stroke-linecap:square;stroke-linejoin:miter;stroke-width:0.8;"/>
   </g>
   <g id="patch_30">
    <path d="M 719.759906 514.830936 
L 968 514.830936 
" style="fill:none;stroke:#000000;stroke-linecap:square;stroke-linejoin:miter;stroke-width:0.8;"/>
   </g>
   <g id="patch_31">
    <path d="M 719.759906 317.057736 
L 968 317.057736 
" style="fill:none;stroke:#000000;stroke-linecap:square;stroke-linejoin:miter;stroke-width:0.8;"/>
   </g>
  </g>
 </g>
 <defs>
  <clipPath id="pe3c6207380">
   <rect height="197.773199" width="248.240094" x="104.596681" y="63.911226"/>
  </clipPath>
  <clipPath id="pd8571bfe83">
   <rect height="197.773199" width="248.240094" x="412.178293" y="63.911226"/>
  </clipPath>
  <clipPath id="p0d144b5cc7">
   <rect height="197.773199" width="248.240094" x="719.759906" y="63.911226"/>
  </clipPath>
  <clipPath id="pdcb60d1e3b">
   <rect height="197.773199" width="248.240094" x="104.596681" y="317.057736"/>
  </clipPath>
  <clipPath id="pddfa4bb9cc">
   <rect height="197.773199" width="248.240094" x="412.178293" y="317.057736"/>
  </clipPath>
  <clipPath id="pf08f06df10">
   <rect height="197.773199" width="248.240094" x="719.759906" y="317.057736"/>
  </clipPath>
 </defs>
</svg>
