<?xml version="1.0" encoding="utf-8" standalone="no"?>
<!DOCTYPE svg PUBLIC "-//W3C//DTD SVG 1.1//EN"
  "http://www.w3.org/Graphics/SVG/1.1/DTD/svg11.dtd">
<!-- Created with matplotlib (https://matplotlib.org/) -->
<svg height="576pt" version="1.1" viewBox="0 0 1008 576" width="1008pt" xmlns="http://www.w3.org/2000/svg" xmlns:xlink="http://www.w3.org/1999/xlink">
 <metadata>
  <rdf:RDF xmlns:cc="http://creativecommons.org/ns#" xmlns:dc="http://purl.org/dc/elements/1.1/" xmlns:rdf="http://www.w3.org/1999/02/22-rdf-syntax-ns#">
   <cc:Work>
    <dc:type rdf:resource="http://purl.org/dc/dcmitype/StillImage"/>
    <dc:date>2022-10-25T15:46:22.277742</dc:date>
    <dc:format>image/svg+xml</dc:format>
    <dc:creator>
     <cc:Agent>
      <dc:title>Matplotlib v3.3.4, https://matplotlib.org/</dc:title>
     </cc:Agent>
    </dc:creator>
   </cc:Work>
  </rdf:RDF>
 </metadata>
 <defs>
  <style type="text/css">*{stroke-linecap:butt;stroke-linejoin:round;}</style>
 </defs>
 <g id="figure_1">
  <g id="patch_1">
   <path d="M 0 576 
L 1008 576 
L 1008 0 
L 0 0 
z
" style="fill:#ffffff;"/>
  </g>
  <g id="axes_1">
   <g id="patch_2">
    <path d="M 95.667124 261.684426 
L 346.883737 261.684426 
L 346.883737 63.911226 
L 95.667124 63.911226 
z
" style="fill:#ffffff;"/>
   </g>
   <g id="matplotlib.axis_1">
    <g id="xtick_1">
     <g id="line2d_1">
      <defs>
       <path d="M 0 0 
L 0 3.5 
" id="mca3640d589" style="stroke:#000000;stroke-width:0.8;"/>
      </defs>
      <g>
       <use style="stroke:#000000;stroke-width:0.8;" x="107.08606" xlink:href="#mca3640d589" y="261.684426"/>
      </g>
     </g>
     <g id="text_1">
      <!-- $\mathdefault{0}$ -->
      <g transform="translate(103.184067 279.754014)scale(0.16 -0.16)">
       <defs>
        <path d="M 42 31.640625 
C 42 37.75 41.90625 48.125 37.703125 56.109375 
C 34 63.109375 28.09375 65.59375 22.90625 65.59375 
C 18.09375 65.59375 12 63.40625 8.203125 56.203125 
C 4.203125 48.71875 3.796875 39.4375 3.796875 31.640625 
C 3.796875 25.953125 3.90625 17.28125 7 9.671875 
C 11.296875 -0.609375 19 -2 22.90625 -2 
C 27.5 -2 34.5 -0.109375 38.59375 9.375 
C 41.59375 16.28125 42 24.359375 42 31.640625 
z
M 22.90625 -0.40625 
C 16.5 -0.40625 12.703125 5.078125 11.296875 12.6875 
C 10.203125 18.5625 10.203125 27.15625 10.203125 32.75 
C 10.203125 40.4375 10.203125 46.828125 11.5 52.921875 
C 13.40625 61.390625 19 64 22.90625 64 
C 27 64 32.296875 61.296875 34.203125 53.125 
C 35.5 47.4375 35.59375 40.734375 35.59375 32.75 
C 35.59375 26.25 35.59375 18.265625 34.40625 12.375 
C 32.296875 1.484375 26.40625 -0.40625 22.90625 -0.40625 
z
" id="CMR17-48"/>
       </defs>
       <use transform="scale(0.996264)" xlink:href="#CMR17-48"/>
      </g>
     </g>
    </g>
    <g id="xtick_2">
     <g id="line2d_2">
      <g>
       <use style="stroke:#000000;stroke-width:0.8;" x="180.756622" xlink:href="#mca3640d589" y="261.684426"/>
      </g>
     </g>
     <g id="text_2">
      <!-- $\mathdefault{10}$ -->
      <g transform="translate(172.952635 279.754014)scale(0.16 -0.16)">
       <defs>
        <path d="M 26.59375 63.40625 
C 26.59375 65.5 26.5 65.5 25.09375 65.5 
C 21.203125 61.1875 15.296875 59.796875 9.703125 59.796875 
C 9.40625 59.796875 8.90625 59.796875 8.796875 59.5 
C 8.703125 59.296875 8.703125 59.09375 8.703125 57 
C 11.796875 57 17 57.59375 21 59.984375 
L 21 7.203125 
C 21 3.6875 20.796875 2.5 12.203125 2.5 
L 9.203125 2.5 
L 9.203125 0 
C 14 0 19 0 23.796875 0 
C 28.59375 0 33.59375 0 38.40625 0 
L 38.40625 2.5 
L 35.40625 2.5 
C 26.796875 2.5 26.59375 3.59375 26.59375 7.15625 
z
" id="CMR17-49"/>
       </defs>
       <use transform="scale(0.996264)" xlink:href="#CMR17-49"/>
       <use transform="translate(45.690477 0)scale(0.996264)" xlink:href="#CMR17-48"/>
      </g>
     </g>
    </g>
    <g id="xtick_3">
     <g id="line2d_3">
      <g>
       <use style="stroke:#000000;stroke-width:0.8;" x="254.427183" xlink:href="#mca3640d589" y="261.684426"/>
      </g>
     </g>
     <g id="text_3">
      <!-- $\mathdefault{20}$ -->
      <g transform="translate(246.623196 279.754014)scale(0.16 -0.16)">
       <defs>
        <path d="M 41.703125 15.453125 
L 39.90625 15.453125 
C 38.90625 8.375 38.09375 7.171875 37.703125 6.5625 
C 37.203125 5.765625 30 5.765625 28.59375 5.765625 
L 9.40625 5.765625 
C 13 9.671875 20 16.75 28.5 24.953125 
C 34.59375 30.734375 41.703125 37.53125 41.703125 47.421875 
C 41.703125 59.21875 32.296875 66 21.796875 66 
C 10.796875 66 4.09375 56.3125 4.09375 47.34375 
C 4.09375 43.4375 7 42.9375 8.203125 42.9375 
C 9.203125 42.9375 12.203125 43.546875 12.203125 47.03125 
C 12.203125 50.109375 9.59375 51 8.203125 51 
C 7.59375 51 7 50.90625 6.59375 50.703125 
C 8.5 59.21875 14.296875 63.40625 20.40625 63.40625 
C 29.09375 63.40625 34.796875 56.515625 34.796875 47.421875 
C 34.796875 38.734375 29.703125 31.25 24 24.75 
L 4.09375 2.28125 
L 4.09375 0 
L 39.296875 0 
z
" id="CMR17-50"/>
       </defs>
       <use transform="scale(0.996264)" xlink:href="#CMR17-50"/>
       <use transform="translate(45.690477 0)scale(0.996264)" xlink:href="#CMR17-48"/>
      </g>
     </g>
    </g>
    <g id="xtick_4">
     <g id="line2d_4">
      <g>
       <use style="stroke:#000000;stroke-width:0.8;" x="328.097744" xlink:href="#mca3640d589" y="261.684426"/>
      </g>
     </g>
     <g id="text_4">
      <!-- $\mathdefault{30}$ -->
      <g transform="translate(320.293757 279.754014)scale(0.16 -0.16)">
       <defs>
        <path d="M 22.09375 33.703125 
C 31 33.703125 34.90625 25.96875 34.90625 17.03125 
C 34.90625 5 28.5 0.390625 22.703125 0.390625 
C 17.40625 0.390625 8.796875 3.03125 6.09375 10.828125 
C 6.59375 10.625 7.09375 10.625 7.59375 10.625 
C 10 10.625 11.796875 12.21875 11.796875 14.8125 
C 11.796875 17.703125 9.59375 19 7.59375 19 
C 5.90625 19 3.296875 18.203125 3.296875 14.46875 
C 3.296875 5.234375 12.296875 -2 22.90625 -2 
C 34 -2 42.5 6.71875 42.5 16.953125 
C 42.5 26.671875 34.5 33.703125 25 34.796875 
C 32.59375 36.375 39.90625 43.0625 39.90625 52.015625 
C 39.90625 59.6875 32 65.296875 23 65.296875 
C 13.90625 65.296875 5.90625 59.828125 5.90625 52.015625 
C 5.90625 48.59375 8.5 48 9.796875 48 
C 11.90625 48 13.703125 49.296875 13.703125 51.890625 
C 13.703125 54.46875 11.90625 55.765625 9.796875 55.765625 
C 9.40625 55.765625 8.90625 55.765625 8.5 55.578125 
C 11.40625 61.859375 19.296875 63 22.796875 63 
C 26.296875 63 32.90625 61.328125 32.90625 51.875 
C 32.90625 49.109375 32.5 44.1875 29.09375 39.84375 
C 26.09375 36 22.703125 36 19.40625 35.6875 
C 18.90625 35.6875 16.59375 35.453125 16.203125 35.453125 
C 15.5 35.359375 15.09375 35.265625 15.09375 34.5 
C 15.09375 33.796875 15.203125 33.703125 17.203125 33.703125 
z
" id="CMR17-51"/>
       </defs>
       <use transform="scale(0.996264)" xlink:href="#CMR17-51"/>
       <use transform="translate(45.690477 0)scale(0.996264)" xlink:href="#CMR17-48"/>
      </g>
     </g>
    </g>
   </g>
   <g id="matplotlib.axis_2">
    <g id="ytick_1">
     <g id="line2d_5">
      <defs>
       <path d="M 0 0 
L -3.5 0 
" id="m8092ef2765" style="stroke:#000000;stroke-width:0.8;"/>
      </defs>
      <g>
       <use style="stroke:#000000;stroke-width:0.8;" x="95.667124" xlink:href="#m8092ef2765" y="253.099465"/>
      </g>
     </g>
     <g id="text_5">
      <!-- $\mathdefault{0}$ -->
      <g transform="translate(80.863137 258.634259)scale(0.16 -0.16)">
       <use transform="scale(0.996264)" xlink:href="#CMR17-48"/>
      </g>
     </g>
    </g>
    <g id="ytick_2">
     <g id="line2d_6">
      <g>
       <use style="stroke:#000000;stroke-width:0.8;" x="95.667124" xlink:href="#m8092ef2765" y="191.914028"/>
      </g>
     </g>
     <g id="text_6">
      <!-- $\mathdefault{50}$ -->
      <g transform="translate(73.05915 197.448822)scale(0.16 -0.16)">
       <defs>
        <path d="M 11.40625 57.6875 
C 12.40625 57.28125 16.5 56 20.703125 56 
C 30 56 35.09375 61.109375 38 64.0625 
C 38 64.953125 38 65.5 37.40625 65.5 
C 37.296875 65.5 37.09375 65.5 36.296875 65.046875 
C 32.796875 63.40625 28.703125 62.078125 23.703125 62.078125 
C 20.703125 62.078125 16.203125 62.484375 11.296875 64.671875 
C 10.203125 65.171875 10 65.171875 9.90625 65.171875 
C 9.40625 65.171875 9.296875 65.0625 9.296875 63.078125 
L 9.296875 34.421875 
C 9.296875 32.640625 9.296875 32.140625 10.296875 32.140625 
C 10.796875 32.140625 11 32.34375 11.5 33.03125 
C 14.703125 37.515625 19.09375 39.40625 24.09375 39.40625 
C 27.59375 39.40625 35.09375 37.21875 35.09375 20.140625 
C 35.09375 16.953125 35.09375 11.171875 32.09375 6.578125 
C 29.59375 2.484375 25.703125 0.390625 21.40625 0.390625 
C 14.796875 0.390625 8.09375 5 6.296875 12.71875 
C 6.703125 12.609375 7.5 12.421875 7.90625 12.421875 
C 9.203125 12.421875 11.703125 13.125 11.703125 16.21875 
C 11.703125 18.90625 9.796875 20 7.90625 20 
C 5.59375 20 4.09375 18.59375 4.09375 15.796875 
C 4.09375 7.09375 11 -2 21.59375 -2 
C 31.90625 -2 41.703125 6.875 41.703125 19.75 
C 41.703125 31.71875 33.90625 41 24.203125 41 
C 19.09375 41 14.796875 39.109375 11.40625 35.53125 
z
" id="CMR17-53"/>
       </defs>
       <use transform="scale(0.996264)" xlink:href="#CMR17-53"/>
       <use transform="translate(45.690477 0)scale(0.996264)" xlink:href="#CMR17-48"/>
      </g>
     </g>
    </g>
    <g id="ytick_3">
     <g id="line2d_7">
      <g>
       <use style="stroke:#000000;stroke-width:0.8;" x="95.667124" xlink:href="#m8092ef2765" y="130.728592"/>
      </g>
     </g>
     <g id="text_7">
      <!-- $\mathdefault{100}$ -->
      <g transform="translate(65.255163 136.263386)scale(0.16 -0.16)">
       <use transform="scale(0.996264)" xlink:href="#CMR17-49"/>
       <use transform="translate(45.690477 0)scale(0.996264)" xlink:href="#CMR17-48"/>
       <use transform="translate(91.380954 0)scale(0.996264)" xlink:href="#CMR17-48"/>
      </g>
     </g>
    </g>
    <g id="ytick_4">
     <g id="line2d_8">
      <g>
       <use style="stroke:#000000;stroke-width:0.8;" x="95.667124" xlink:href="#m8092ef2765" y="69.543155"/>
      </g>
     </g>
     <g id="text_8">
      <!-- $\mathdefault{150}$ -->
      <g transform="translate(65.255163 75.077949)scale(0.16 -0.16)">
       <use transform="scale(0.996264)" xlink:href="#CMR17-49"/>
       <use transform="translate(45.690477 0)scale(0.996264)" xlink:href="#CMR17-53"/>
       <use transform="translate(91.380954 0)scale(0.996264)" xlink:href="#CMR17-48"/>
      </g>
     </g>
    </g>
    <g id="text_9">
     <!-- Real -->
     <g transform="translate(56.604405 184.258418)rotate(-90)scale(0.24 -0.24)">
      <defs>
       <path d="M 39.203125 33.53125 
C 48.703125 35.4375 56.703125 41.8125 56.703125 49.78125 
C 56.703125 59.140625 46.09375 67.59375 32.09375 67.59375 
L 5.203125 67.59375 
L 5.203125 65 
C 12.09375 65 13.203125 65 13.203125 60.515625 
L 13.203125 6.484375 
C 13.203125 2 12.09375 2 5.203125 2 
L 5.203125 -0.40625 
C 8.09375 -0.40625 13.296875 -0.40625 16.40625 -0.40625 
C 19.5 -0.40625 24.703125 -0.40625 27.59375 -0.40625 
L 27.59375 2 
C 20.703125 2 19.59375 2 19.59375 6.515625 
L 19.59375 33 
L 31.296875 33 
C 37 33 40.203125 30.6875 41.59375 29.390625 
C 45.59375 25.5 45.59375 22.796875 45.59375 16 
C 45.59375 9.296875 45.59375 5.890625 48.59375 2.5 
C 52.40625 -1.59375 57.5 -2 59.703125 -2 
C 67.09375 -2 68.203125 6.1875 68.203125 7.859375 
C 68.203125 8.4375 68.203125 9.140625 67.296875 9.140625 
C 66.5 9.140625 66.40625 8.546875 66.40625 8.15625 
C 65.90625 1.75 63 -0.40625 59.90625 -0.40625 
C 54.40625 -0.40625 53.796875 5.859375 53.203125 11.9375 
C 52.90625 14.03125 52.703125 15.515625 52.5 17.703125 
C 51.90625 22.6875 51.09375 29.953125 39.203125 33.53125 
z
M 31 34.59375 
L 19.59375 34.59375 
L 19.59375 61.140625 
C 19.59375 64.515625 19.796875 65 23.796875 65 
L 31.09375 65 
C 39.40625 65 49.09375 62.140625 49.09375 49.84375 
C 49.09375 37.0625 38.5 34.59375 31 34.59375 
z
" id="CMR17-82"/>
       <path d="M 38.09375 23 
C 38.5 23.40625 38.5 23.609375 38.5 24.625 
C 38.5 34.96875 33.09375 44 21.703125 44 
C 11.09375 44 2.703125 33.890625 2.703125 21.609375 
C 2.703125 8.609375 12.203125 -1 22.796875 -1 
C 34 -1 38.40625 9.484375 38.40625 11.5625 
C 38.40625 12.25 37.796875 12.25 37.59375 12.25 
C 36.90625 12.25 36.796875 12.046875 36.40625 10.875 
C 34.203125 4.140625 28.703125 0.796875 23.5 0.796875 
C 19.203125 0.796875 14.90625 3.171875 12.203125 7.5 
C 9.09375 12.546875 9.09375 18.375 9.09375 23 
z
M 9.203125 24.5 
C 9.90625 39.140625 17.59375 42.40625 21.59375 42.40625 
C 28.40625 42.40625 33 35.890625 33.09375 24.5 
z
" id="CMR17-101"/>
       <path d="M 36 25.828125 
C 36 32.375 36 35.84375 31.796875 39.734375 
C 28.09375 43 23.796875 44 20.40625 44 
C 12.5 44 6.796875 37.609375 6.796875 30.796875 
C 6.796875 27 9.796875 27 10.40625 27 
C 11.703125 27 14 27.78125 14 30.53125 
C 14 33 12.09375 34.078125 10.40625 34.078125 
C 10 34.078125 9.5 33.96875 9.203125 33.875 
C 11.296875 40.5 16.703125 42.40625 20.203125 42.40625 
C 25.203125 42.40625 30.703125 37.953125 30.703125 29.453125 
L 30.703125 25 
C 24.796875 25 17.703125 24.203125 12.09375 21.203125 
C 5.796875 17.703125 4 12.703125 4 8.90625 
C 4 1.203125 13 -1 18.296875 -1 
C 23.796875 -1 28.90625 2.171875 31.09375 7.984375 
C 31.296875 3.640625 34.09375 -0.28125 38.5 -0.28125 
C 40.59375 -0.28125 45.90625 1.09375 45.90625 8.859375 
L 45.90625 14.375 
L 44.09375 14.375 
L 44.09375 8.78125 
C 44.09375 2.78125 41.40625 2 40.09375 2 
C 36 2 36 7.15625 36 11.53125 
z
M 30.703125 13.59375 
C 30.703125 4.953125 24.5 0.59375 19 0.59375 
C 14 0.59375 10.09375 4.296875 10.09375 8.90625 
C 10.09375 11.890625 11.40625 17.1875 17.203125 20.390625 
C 22 23.09375 27.5 23.5 30.703125 23.5 
z
" id="CMR17-97"/>
       <path d="M 15.296875 68.6875 
L 3.40625 67.59375 
L 3.40625 65 
C 9.296875 65 10.203125 64.40625 10.203125 59.640625 
L 10.203125 6.65625 
C 10.203125 2.875 9.796875 2.390625 3.40625 2.390625 
L 3.40625 -0.203125 
C 5.796875 0 10.203125 0 12.703125 0 
C 15.296875 0 19.703125 0 22.09375 -0.203125 
L 22.09375 2.390625 
C 15.703125 2.390625 15.296875 2.78125 15.296875 6.65625 
z
" id="CMR17-108"/>
      </defs>
      <use transform="scale(0.996264)" xlink:href="#CMR17-82"/>
      <use transform="translate(67.791102 0)scale(0.996264)" xlink:href="#CMR17-101"/>
      <use transform="translate(108.276762 0)scale(0.996264)" xlink:href="#CMR17-97"/>
      <use transform="translate(153.96724 0)scale(0.996264)" xlink:href="#CMR17-108"/>
     </g>
    </g>
   </g>
   <g id="LineCollection_1">
    <path clip-path="url(#p4aa4cb8d4a)" d="M 107.08606 73.453427 
L 107.08606 72.900917 
" style="fill:none;stroke:#ff0000;stroke-width:2;"/>
    <path clip-path="url(#p4aa4cb8d4a)" d="M 114.453117 188.394034 
L 114.453117 188.179524 
" style="fill:none;stroke:#ff0000;stroke-width:2;"/>
    <path clip-path="url(#p4aa4cb8d4a)" d="M 121.820173 216.6512 
L 121.820173 216.456514 
" style="fill:none;stroke:#ff0000;stroke-width:2;"/>
    <path clip-path="url(#p4aa4cb8d4a)" d="M 129.187229 230.665783 
L 129.187229 230.487109 
" style="fill:none;stroke:#ff0000;stroke-width:2;"/>
    <path clip-path="url(#p4aa4cb8d4a)" d="M 136.554285 238.61203 
L 136.554285 238.43291 
" style="fill:none;stroke:#ff0000;stroke-width:2;"/>
    <path clip-path="url(#p4aa4cb8d4a)" d="M 143.921341 243.488455 
L 143.921341 243.303575 
" style="fill:none;stroke:#ff0000;stroke-width:2;"/>
    <path clip-path="url(#p4aa4cb8d4a)" d="M 151.288397 246.543012 
L 151.288397 246.380937 
" style="fill:none;stroke:#ff0000;stroke-width:2;"/>
    <path clip-path="url(#p4aa4cb8d4a)" d="M 158.655453 248.535575 
L 158.655453 248.400904 
" style="fill:none;stroke:#ff0000;stroke-width:2;"/>
    <path clip-path="url(#p4aa4cb8d4a)" d="M 166.022509 249.894176 
L 166.022509 249.785923 
" style="fill:none;stroke:#ff0000;stroke-width:2;"/>
    <path clip-path="url(#p4aa4cb8d4a)" d="M 173.389565 250.815566 
L 173.389565 250.727974 
" style="fill:none;stroke:#ff0000;stroke-width:2;"/>
    <path clip-path="url(#p4aa4cb8d4a)" d="M 180.756622 251.468921 
L 180.756622 251.401523 
" style="fill:none;stroke:#ff0000;stroke-width:2;"/>
    <path clip-path="url(#p4aa4cb8d4a)" d="M 188.123678 251.923332 
L 188.123678 251.872001 
" style="fill:none;stroke:#ff0000;stroke-width:2;"/>
    <path clip-path="url(#p4aa4cb8d4a)" d="M 195.490734 252.237749 
L 195.490734 252.193991 
" style="fill:none;stroke:#ff0000;stroke-width:2;"/>
    <path clip-path="url(#p4aa4cb8d4a)" d="M 202.85779 252.451248 
L 202.85779 252.417844 
" style="fill:none;stroke:#ff0000;stroke-width:2;"/>
    <path clip-path="url(#p4aa4cb8d4a)" d="M 210.224846 252.590745 
L 210.224846 252.562552 
" style="fill:none;stroke:#ff0000;stroke-width:2;"/>
    <path clip-path="url(#p4aa4cb8d4a)" d="M 217.591902 252.6698 
L 217.591902 252.645138 
" style="fill:none;stroke:#ff0000;stroke-width:2;"/>
    <path clip-path="url(#p4aa4cb8d4a)" d="M 224.958958 252.694735 
L 224.958958 252.671932 
" style="fill:none;stroke:#ff0000;stroke-width:2;"/>
    <path clip-path="url(#p4aa4cb8d4a)" d="M 232.326014 252.669594 
L 232.326014 252.645268 
" style="fill:none;stroke:#ff0000;stroke-width:2;"/>
    <path clip-path="url(#p4aa4cb8d4a)" d="M 239.69307 252.585548 
L 239.69307 252.562034 
" style="fill:none;stroke:#ff0000;stroke-width:2;"/>
    <path clip-path="url(#p4aa4cb8d4a)" d="M 247.060127 252.440678 
L 247.060127 252.411926 
" style="fill:none;stroke:#ff0000;stroke-width:2;"/>
    <path clip-path="url(#p4aa4cb8d4a)" d="M 254.427183 252.213443 
L 254.427183 252.175623 
" style="fill:none;stroke:#ff0000;stroke-width:2;"/>
    <path clip-path="url(#p4aa4cb8d4a)" d="M 261.794239 251.873729 
L 261.794239 251.830687 
" style="fill:none;stroke:#ff0000;stroke-width:2;"/>
    <path clip-path="url(#p4aa4cb8d4a)" d="M 269.161295 251.396658 
L 269.161295 251.33548 
" style="fill:none;stroke:#ff0000;stroke-width:2;"/>
    <path clip-path="url(#p4aa4cb8d4a)" d="M 276.528351 250.71494 
L 276.528351 250.639093 
" style="fill:none;stroke:#ff0000;stroke-width:2;"/>
    <path clip-path="url(#p4aa4cb8d4a)" d="M 283.895407 249.745242 
L 283.895407 249.648039 
" style="fill:none;stroke:#ff0000;stroke-width:2;"/>
    <path clip-path="url(#p4aa4cb8d4a)" d="M 291.262463 248.350166 
L 291.262463 248.236017 
" style="fill:none;stroke:#ff0000;stroke-width:2;"/>
    <path clip-path="url(#p4aa4cb8d4a)" d="M 298.629519 246.284033 
L 298.629519 246.138088 
" style="fill:none;stroke:#ff0000;stroke-width:2;"/>
    <path clip-path="url(#p4aa4cb8d4a)" d="M 305.996575 243.220915 
L 305.996575 243.052533 
" style="fill:none;stroke:#ff0000;stroke-width:2;"/>
    <path clip-path="url(#p4aa4cb8d4a)" d="M 313.363631 238.405931 
L 313.363631 238.226184 
" style="fill:none;stroke:#ff0000;stroke-width:2;"/>
    <path clip-path="url(#p4aa4cb8d4a)" d="M 320.730688 230.55824 
L 320.730688 230.357578 
" style="fill:none;stroke:#ff0000;stroke-width:2;"/>
    <path clip-path="url(#p4aa4cb8d4a)" d="M 328.097744 216.697842 
L 328.097744 216.497482 
" style="fill:none;stroke:#ff0000;stroke-width:2;"/>
    <path clip-path="url(#p4aa4cb8d4a)" d="M 335.4648 188.659852 
L 335.4648 188.403513 
" style="fill:none;stroke:#ff0000;stroke-width:2;"/>
   </g>
   <g id="line2d_9">
    <path clip-path="url(#p4aa4cb8d4a)" d="M 107.08606 73.177172 
L 114.453117 188.286779 
L 121.820173 216.553857 
L 129.187229 230.576446 
L 136.554285 238.52247 
L 143.921341 243.396015 
L 151.288397 246.461974 
L 158.655453 248.468239 
L 166.022509 249.840049 
L 173.389565 250.77177 
L 180.756622 251.435222 
L 188.123678 251.897666 
L 195.490734 252.21587 
L 202.85779 252.434546 
L 210.224846 252.576648 
L 217.591902 252.657469 
L 224.958958 252.683333 
L 232.326014 252.657431 
L 239.69307 252.573791 
L 247.060127 252.426302 
L 254.427183 252.194533 
L 261.794239 251.852208 
L 269.161295 251.366069 
L 276.528351 250.677016 
L 283.895407 249.69664 
L 291.262463 248.293092 
L 298.629519 246.21106 
L 305.996575 243.136724 
L 313.363631 238.316057 
L 320.730688 230.457909 
L 328.097744 216.597662 
L 335.4648 188.531682 
" style="fill:none;stroke:#000000;stroke-linecap:square;stroke-width:2;"/>
   </g>
   <g id="patch_3">
    <path d="M 95.667124 261.684426 
L 95.667124 63.911226 
" style="fill:none;stroke:#000000;stroke-linecap:square;stroke-linejoin:miter;stroke-width:0.8;"/>
   </g>
   <g id="patch_4">
    <path d="M 346.883737 261.684426 
L 346.883737 63.911226 
" style="fill:none;stroke:#000000;stroke-linecap:square;stroke-linejoin:miter;stroke-width:0.8;"/>
   </g>
   <g id="patch_5">
    <path d="M 95.667124 261.684426 
L 346.883737 261.684426 
" style="fill:none;stroke:#000000;stroke-linecap:square;stroke-linejoin:miter;stroke-width:0.8;"/>
   </g>
   <g id="patch_6">
    <path d="M 95.667124 63.911226 
L 346.883737 63.911226 
" style="fill:none;stroke:#000000;stroke-linecap:square;stroke-linejoin:miter;stroke-width:0.8;"/>
   </g>
   <g id="text_10">
    <!-- $C(t)$ -->
    <g transform="translate(199.347277 57.911226)scale(0.24 -0.24)">
     <defs>
      <path d="M 74.703125 69.109375 
C 74.703125 70 74 70 73.796875 70 
C 73.59375 70 73.203125 70 72.40625 69 
L 65.5 60.65625 
C 62 66.625 56.5 70 49 70 
C 27.40625 70 5 48.25 5 24.921875 
C 5 8.328125 16.703125 -2 31.296875 -2 
C 39.296875 -2 46.296875 1.375 52.09375 6.25 
C 60.796875 13.484375 63.40625 23.140625 63.40625 23.921875 
C 63.40625 24.8125 62.59375 24.8125 62.296875 24.8125 
C 61.40625 24.8125 61.296875 24.21875 61.09375 23.8125 
C 56.5 8.34375 43 0.890625 33 0.890625 
C 22.40625 0.890625 13.203125 7.640625 13.203125 21.734375 
C 13.203125 24.921875 14.203125 42.1875 25.5 55.1875 
C 31 61.546875 40.40625 67.109375 49.90625 67.109375 
C 60.90625 67.109375 65.796875 58.078125 65.796875 47.9375 
C 65.796875 45.359375 65.5 43.1875 65.5 42.78125 
C 65.5 41.890625 66.5 41.890625 66.796875 41.890625 
C 67.90625 41.890625 68 41.984375 68.40625 43.765625 
z
" id="CMMI12-67"/>
      <path d="M 30.59375 -24.390625 
C 30.59375 -24.296875 30.59375 -24.09375 30.296875 -23.796875 
C 25.703125 -19.125 13.40625 -6.359375 13.40625 24.703125 
C 13.40625 55.765625 25.5 68.421875 30.40625 73.390625 
C 30.40625 73.5 30.59375 73.703125 30.59375 74 
C 30.59375 74.296875 30.296875 74.5 29.90625 74.5 
C 28.796875 74.5 20.296875 67.125 15.40625 56.15625 
C 10.40625 45.109375 9 34.359375 9 24.8125 
C 9 17.625 9.703125 5.484375 15.703125 -7.359375 
C 20.5 -17.734375 28.703125 -25 29.90625 -25 
C 30.40625 -25 30.59375 -24.796875 30.59375 -24.390625 
z
" id="CMR17-40"/>
      <path d="M 20.09375 40.09375 
L 29.296875 40.09375 
C 31.203125 40.09375 32.203125 40.09375 32.203125 41.890625 
C 32.203125 43 31.59375 43 29.59375 43 
L 20.796875 43 
L 24.5 57.6875 
C 24.90625 59.078125 24.90625 59.28125 24.90625 60 
C 24.90625 61.609375 23.59375 62.5 22.296875 62.5 
C 21.5 62.5 19.203125 62.203125 18.40625 58.984375 
L 14.5 43 
L 5.09375 43 
C 3.09375 43 2.203125 43 2.203125 41.09375 
C 2.203125 40.09375 2.90625 40.09375 4.796875 40.09375 
L 13.703125 40.09375 
L 7.09375 13.765625 
C 6.296875 10.28125 6 9.28125 6 7.984375 
C 6 3.296875 9.296875 -1 14.90625 -1 
C 25 -1 30.40625 13.5625 30.40625 14.25 
C 30.40625 14.859375 30 15.15625 29.40625 15.15625 
C 29.203125 15.15625 28.796875 15.15625 28.59375 14.75 
C 28.5 14.65625 28.40625 14.546875 27.703125 12.953125 
C 25.59375 7.984375 21 1 15.203125 1 
C 12.203125 1 12 3.5 12 5.6875 
C 12 5.78125 12 7.6875 12.296875 8.875 
z
" id="CMMI12-116"/>
      <path d="M 26.296875 24.703125 
C 26.296875 31.875 25.59375 44.015625 19.59375 56.859375 
C 14.796875 67.234375 6.59375 74.5 5.40625 74.5 
C 5.09375 74.5 4.703125 74.390625 4.703125 73.890625 
C 4.703125 73.703125 4.796875 73.59375 4.90625 73.390625 
C 9.703125 68.40625 21.90625 55.75 21.90625 24.75 
C 21.90625 -6.359375 9.796875 -19.015625 4.90625 -24.015625 
C 4.796875 -24.203125 4.703125 -24.3125 4.703125 -24.5 
C 4.703125 -25 5.09375 -25 5.40625 -25 
C 6.5 -25 15 -17.625 19.90625 -6.65625 
C 24.90625 4.390625 26.296875 15.140625 26.296875 24.703125 
z
" id="CMR17-41"/>
     </defs>
     <use transform="scale(0.996264)" xlink:href="#CMMI12-67"/>
     <use transform="translate(76.946847 0)scale(0.996264)" xlink:href="#CMR17-40"/>
     <use transform="translate(112.227614 0)scale(0.996264)" xlink:href="#CMMI12-116"/>
     <use transform="translate(147.453945 0)scale(0.996264)" xlink:href="#CMR17-41"/>
    </g>
   </g>
  </g>
  <g id="axes_2">
   <g id="patch_7">
    <path d="M 406.225255 261.684426 
L 657.441868 261.684426 
L 657.441868 63.911226 
L 406.225255 63.911226 
z
" style="fill:#ffffff;"/>
   </g>
   <g id="matplotlib.axis_3">
    <g id="xtick_5">
     <g id="line2d_10">
      <g>
       <use style="stroke:#000000;stroke-width:0.8;" x="417.644192" xlink:href="#mca3640d589" y="261.684426"/>
      </g>
     </g>
     <g id="text_11">
      <!-- $\mathdefault{0}$ -->
      <g transform="translate(413.742199 279.754014)scale(0.16 -0.16)">
       <use transform="scale(0.996264)" xlink:href="#CMR17-48"/>
      </g>
     </g>
    </g>
    <g id="xtick_6">
     <g id="line2d_11">
      <g>
       <use style="stroke:#000000;stroke-width:0.8;" x="489.012548" xlink:href="#mca3640d589" y="261.684426"/>
      </g>
     </g>
     <g id="text_12">
      <!-- $\mathdefault{5}$ -->
      <g transform="translate(485.110555 279.754014)scale(0.16 -0.16)">
       <use transform="scale(0.996264)" xlink:href="#CMR17-53"/>
      </g>
     </g>
    </g>
    <g id="xtick_7">
     <g id="line2d_12">
      <g>
       <use style="stroke:#000000;stroke-width:0.8;" x="560.380904" xlink:href="#mca3640d589" y="261.684426"/>
      </g>
     </g>
     <g id="text_13">
      <!-- $\mathdefault{10}$ -->
      <g transform="translate(552.576917 279.754014)scale(0.16 -0.16)">
       <use transform="scale(0.996264)" xlink:href="#CMR17-49"/>
       <use transform="translate(45.690477 0)scale(0.996264)" xlink:href="#CMR17-48"/>
      </g>
     </g>
    </g>
    <g id="xtick_8">
     <g id="line2d_13">
      <g>
       <use style="stroke:#000000;stroke-width:0.8;" x="631.74926" xlink:href="#mca3640d589" y="261.684426"/>
      </g>
     </g>
     <g id="text_14">
      <!-- $\mathdefault{15}$ -->
      <g transform="translate(623.945273 279.754014)scale(0.16 -0.16)">
       <use transform="scale(0.996264)" xlink:href="#CMR17-49"/>
       <use transform="translate(45.690477 0)scale(0.996264)" xlink:href="#CMR17-53"/>
      </g>
     </g>
    </g>
   </g>
   <g id="matplotlib.axis_4">
    <g id="ytick_5">
     <g id="line2d_14">
      <g>
       <use style="stroke:#000000;stroke-width:0.8;" x="406.225255" xlink:href="#m8092ef2765" y="253.099465"/>
      </g>
     </g>
     <g id="text_15">
      <!-- $\mathdefault{0}$ -->
      <g transform="translate(391.421268 258.634259)scale(0.16 -0.16)">
       <use transform="scale(0.996264)" xlink:href="#CMR17-48"/>
      </g>
     </g>
    </g>
    <g id="ytick_6">
     <g id="line2d_15">
      <g>
       <use style="stroke:#000000;stroke-width:0.8;" x="406.225255" xlink:href="#m8092ef2765" y="191.914028"/>
      </g>
     </g>
     <g id="text_16">
      <!-- $\mathdefault{50}$ -->
      <g transform="translate(383.617281 197.448822)scale(0.16 -0.16)">
       <use transform="scale(0.996264)" xlink:href="#CMR17-53"/>
       <use transform="translate(45.690477 0)scale(0.996264)" xlink:href="#CMR17-48"/>
      </g>
     </g>
    </g>
    <g id="ytick_7">
     <g id="line2d_16">
      <g>
       <use style="stroke:#000000;stroke-width:0.8;" x="406.225255" xlink:href="#m8092ef2765" y="130.728592"/>
      </g>
     </g>
     <g id="text_17">
      <!-- $\mathdefault{100}$ -->
      <g transform="translate(375.813294 136.263386)scale(0.16 -0.16)">
       <use transform="scale(0.996264)" xlink:href="#CMR17-49"/>
       <use transform="translate(45.690477 0)scale(0.996264)" xlink:href="#CMR17-48"/>
       <use transform="translate(91.380954 0)scale(0.996264)" xlink:href="#CMR17-48"/>
      </g>
     </g>
    </g>
    <g id="ytick_8">
     <g id="line2d_17">
      <g>
       <use style="stroke:#000000;stroke-width:0.8;" x="406.225255" xlink:href="#m8092ef2765" y="69.543155"/>
      </g>
     </g>
     <g id="text_18">
      <!-- $\mathdefault{150}$ -->
      <g transform="translate(375.813294 75.077949)scale(0.16 -0.16)">
       <use transform="scale(0.996264)" xlink:href="#CMR17-49"/>
       <use transform="translate(45.690477 0)scale(0.996264)" xlink:href="#CMR17-53"/>
       <use transform="translate(91.380954 0)scale(0.996264)" xlink:href="#CMR17-48"/>
      </g>
     </g>
    </g>
   </g>
   <g id="LineCollection_2">
    <path clip-path="url(#p0a3d1d2063)" d="M 417.644192 73.453427 
L 417.644192 72.900917 
" style="fill:none;stroke:#ff0000;stroke-width:2;"/>
    <path clip-path="url(#p0a3d1d2063)" d="M 431.917863 188.492961 
L 431.917863 188.3255 
" style="fill:none;stroke:#ff0000;stroke-width:2;"/>
    <path clip-path="url(#p0a3d1d2063)" d="M 446.191535 216.646453 
L 446.191535 216.505066 
" style="fill:none;stroke:#ff0000;stroke-width:2;"/>
    <path clip-path="url(#p0a3d1d2063)" d="M 460.465206 230.58689 
L 460.465206 230.447465 
" style="fill:none;stroke:#ff0000;stroke-width:2;"/>
    <path clip-path="url(#p0a3d1d2063)" d="M 474.738877 238.481004 
L 474.738877 238.357523 
" style="fill:none;stroke:#ff0000;stroke-width:2;"/>
    <path clip-path="url(#p0a3d1d2063)" d="M 489.012548 243.327153 
L 489.012548 243.205586 
" style="fill:none;stroke:#ff0000;stroke-width:2;"/>
    <path clip-path="url(#p0a3d1d2063)" d="M 503.286219 246.391211 
L 503.286219 246.281823 
" style="fill:none;stroke:#ff0000;stroke-width:2;"/>
    <path clip-path="url(#p0a3d1d2063)" d="M 517.559891 248.424321 
L 517.559891 248.33701 
" style="fill:none;stroke:#ff0000;stroke-width:2;"/>
    <path clip-path="url(#p0a3d1d2063)" d="M 531.833562 249.806664 
L 531.833562 249.730026 
" style="fill:none;stroke:#ff0000;stroke-width:2;"/>
    <path clip-path="url(#p0a3d1d2063)" d="M 546.107233 250.751887 
L 546.107233 250.6969 
" style="fill:none;stroke:#ff0000;stroke-width:2;"/>
    <path clip-path="url(#p0a3d1d2063)" d="M 560.380904 251.423827 
L 560.380904 251.377464 
" style="fill:none;stroke:#ff0000;stroke-width:2;"/>
    <path clip-path="url(#p0a3d1d2063)" d="M 574.654575 251.891949 
L 574.654575 251.857925 
" style="fill:none;stroke:#ff0000;stroke-width:2;"/>
    <path clip-path="url(#p0a3d1d2063)" d="M 588.928247 252.219969 
L 588.928247 252.190434 
" style="fill:none;stroke:#ff0000;stroke-width:2;"/>
    <path clip-path="url(#p0a3d1d2063)" d="M 603.201918 252.44144 
L 603.201918 252.419407 
" style="fill:none;stroke:#ff0000;stroke-width:2;"/>
    <path clip-path="url(#p0a3d1d2063)" d="M 617.475589 252.584292 
L 617.475589 252.566147 
" style="fill:none;stroke:#ff0000;stroke-width:2;"/>
    <path clip-path="url(#p0a3d1d2063)" d="M 631.74926 252.666464 
L 631.74926 252.648436 
" style="fill:none;stroke:#ff0000;stroke-width:2;"/>
    <path clip-path="url(#p0a3d1d2063)" d="M 646.022931 252.694735 
L 646.022931 252.671932 
" style="fill:none;stroke:#ff0000;stroke-width:2;"/>
   </g>
   <g id="line2d_18">
    <path clip-path="url(#p0a3d1d2063)" d="M 417.644192 73.177172 
L 431.917863 188.409231 
L 446.191535 216.575759 
L 460.465206 230.517178 
L 474.738877 238.419264 
L 489.012548 243.26637 
L 503.286219 246.336517 
L 517.559891 248.380665 
L 531.833562 249.768345 
L 546.107233 250.724393 
L 560.380904 251.400646 
L 574.654575 251.874937 
L 588.928247 252.205202 
L 603.201918 252.430424 
L 617.475589 252.57522 
L 631.74926 252.65745 
L 646.022931 252.683333 
" style="fill:none;stroke:#000000;stroke-linecap:square;stroke-width:2;"/>
   </g>
   <g id="patch_8">
    <path d="M 406.225255 261.684426 
L 406.225255 63.911226 
" style="fill:none;stroke:#000000;stroke-linecap:square;stroke-linejoin:miter;stroke-width:0.8;"/>
   </g>
   <g id="patch_9">
    <path d="M 657.441868 261.684426 
L 657.441868 63.911226 
" style="fill:none;stroke:#000000;stroke-linecap:square;stroke-linejoin:miter;stroke-width:0.8;"/>
   </g>
   <g id="patch_10">
    <path d="M 406.225255 261.684426 
L 657.441868 261.684426 
" style="fill:none;stroke:#000000;stroke-linecap:square;stroke-linejoin:miter;stroke-width:0.8;"/>
   </g>
   <g id="patch_11">
    <path d="M 406.225255 63.911226 
L 657.441868 63.911226 
" style="fill:none;stroke:#000000;stroke-linecap:square;stroke-linejoin:miter;stroke-width:0.8;"/>
   </g>
   <g id="text_19">
    <!-- Folded $C(t)$ -->
    <g transform="translate(474.494552 57.911226)scale(0.24 -0.24)">
     <defs>
      <path d="M 54.40625 67.578125 
L 5.09375 67.578125 
L 5.09375 65 
C 12 65 13.09375 65 13.09375 60.53125 
L 13.09375 6.96875 
C 13.09375 2.5 12 2.5 5.09375 2.5 
L 5.09375 0 
C 8 0 13.59375 0 16.703125 0 
C 20.796875 0 25.59375 0 29.703125 0 
L 29.703125 2.5 
L 27.5 2.5 
C 19.90625 2.5 19.703125 3.484375 19.703125 7.0625 
L 19.703125 32.421875 
L 28.703125 32.421875 
C 38 32.421875 38.90625 29.140625 38.90625 20.8125 
L 40.703125 20.8125 
L 40.703125 46.671875 
L 38.90625 46.671875 
C 38.90625 38.28125 38 35 28.703125 35 
L 19.703125 35 
L 19.703125 61.109375 
C 19.703125 64.5 19.90625 65 23.90625 65 
L 36.796875 65 
C 51.90625 65 53.59375 58.828125 55 45.5625 
L 56.796875 45.5625 
z
" id="CMR17-70"/>
      <path d="M 43.09375 21.1875 
C 43.09375 34 33.796875 44 22.90625 44 
C 12 44 2.703125 34 2.703125 21.1875 
C 2.703125 8.609375 12 -1 22.90625 -1 
C 33.796875 -1 43.09375 8.609375 43.09375 21.1875 
z
M 22.90625 0.796875 
C 18.203125 0.796875 14.203125 3.59375 11.90625 7.5 
C 9.40625 11.984375 9.09375 17.59375 9.09375 22 
C 9.09375 26.203125 9.296875 31.40625 11.90625 35.90625 
C 13.90625 39.203125 17.796875 42.40625 22.90625 42.40625 
C 27.40625 42.40625 31.203125 39.90625 33.59375 36.40625 
C 36.703125 31.703125 36.703125 25.109375 36.703125 22 
C 36.703125 18.09375 36.5 12.109375 33.796875 7.296875 
C 31 2.703125 26.703125 0.796875 22.90625 0.796875 
z
" id="CMR17-111"/>
      <path d="M 29.203125 67.59375 
L 29.203125 65 
C 35.09375 65 36 64.40625 36 59.6875 
L 36 36.640625 
C 35.59375 37.140625 31.5 43.59375 23.40625 43.59375 
C 13.203125 43.59375 3.296875 34.5 3.296875 21.3125 
C 3.296875 8.203125 12.59375 -1 22.40625 -1 
C 30.90625 -1 35.296875 5.265625 35.796875 5.9375 
L 35.796875 -0.984375 
L 47.90625 -0.984375 
L 47.90625 2 
C 42 2 41.09375 2.59375 41.09375 7.390625 
L 41.09375 68.6875 
z
M 35.796875 11.796875 
C 35.796875 8.796875 34 6.09375 31.703125 4.09375 
C 28.296875 1.09375 24.90625 0.59375 23 0.59375 
C 20.09375 0.59375 9.703125 2.09375 9.703125 21.1875 
C 9.703125 40.8125 21.296875 42 23.90625 42 
C 28.5 42 32.203125 39.40625 34.5 35.796875 
C 35.796875 33.703125 35.796875 33.40625 35.796875 31.609375 
z
" id="CMR17-100"/>
     </defs>
     <use transform="scale(0.996264)" xlink:href="#CMR17-70"/>
     <use transform="translate(52.176591 0)scale(0.996264)" xlink:href="#CMR17-111"/>
     <use transform="translate(97.867068 0)scale(0.996264)" xlink:href="#CMR17-108"/>
     <use transform="translate(122.738127 0)scale(0.996264)" xlink:href="#CMR17-100"/>
     <use transform="translate(173.633497 0)scale(0.996264)" xlink:href="#CMR17-101"/>
     <use transform="translate(214.119157 0)scale(0.996264)" xlink:href="#CMR17-100"/>
     <use transform="translate(295.090493 0)scale(0.996264)" xlink:href="#CMMI12-67"/>
     <use transform="translate(372.03734 0)scale(0.996264)" xlink:href="#CMR17-40"/>
     <use transform="translate(407.318108 0)scale(0.996264)" xlink:href="#CMMI12-116"/>
     <use transform="translate(442.544438 0)scale(0.996264)" xlink:href="#CMR17-41"/>
    </g>
   </g>
  </g>
  <g id="axes_3">
   <g id="patch_12">
    <path d="M 716.783387 261.684426 
L 968 261.684426 
L 968 63.911226 
L 716.783387 63.911226 
z
" style="fill:#ffffff;"/>
   </g>
   <g id="matplotlib.axis_5">
    <g id="xtick_9">
     <g id="line2d_19">
      <g>
       <use style="stroke:#000000;stroke-width:0.8;" x="728.202324" xlink:href="#mca3640d589" y="261.684426"/>
      </g>
     </g>
     <g id="text_20">
      <!-- $\mathdefault{0}$ -->
      <g transform="translate(724.30033 279.754014)scale(0.16 -0.16)">
       <use transform="scale(0.996264)" xlink:href="#CMR17-48"/>
      </g>
     </g>
    </g>
    <g id="xtick_10">
     <g id="line2d_20">
      <g>
       <use style="stroke:#000000;stroke-width:0.8;" x="799.57068" xlink:href="#mca3640d589" y="261.684426"/>
      </g>
     </g>
     <g id="text_21">
      <!-- $\mathdefault{5}$ -->
      <g transform="translate(795.668686 279.754014)scale(0.16 -0.16)">
       <use transform="scale(0.996264)" xlink:href="#CMR17-53"/>
      </g>
     </g>
    </g>
    <g id="xtick_11">
     <g id="line2d_21">
      <g>
       <use style="stroke:#000000;stroke-width:0.8;" x="870.939036" xlink:href="#mca3640d589" y="261.684426"/>
      </g>
     </g>
     <g id="text_22">
      <!-- $\mathdefault{10}$ -->
      <g transform="translate(863.135049 279.754014)scale(0.16 -0.16)">
       <use transform="scale(0.996264)" xlink:href="#CMR17-49"/>
       <use transform="translate(45.690477 0)scale(0.996264)" xlink:href="#CMR17-48"/>
      </g>
     </g>
    </g>
    <g id="xtick_12">
     <g id="line2d_22">
      <g>
       <use style="stroke:#000000;stroke-width:0.8;" x="942.307392" xlink:href="#mca3640d589" y="261.684426"/>
      </g>
     </g>
     <g id="text_23">
      <!-- $\mathdefault{15}$ -->
      <g transform="translate(934.503405 279.754014)scale(0.16 -0.16)">
       <use transform="scale(0.996264)" xlink:href="#CMR17-49"/>
       <use transform="translate(45.690477 0)scale(0.996264)" xlink:href="#CMR17-53"/>
      </g>
     </g>
    </g>
   </g>
   <g id="matplotlib.axis_6">
    <g id="ytick_9">
     <g id="line2d_23">
      <g>
       <use style="stroke:#000000;stroke-width:0.8;" x="716.783387" xlink:href="#m8092ef2765" y="220.542208"/>
      </g>
     </g>
     <g id="text_24">
      <!-- $\mathdefault{−0.1}$ -->
      <g transform="translate(677.441868 226.077002)scale(0.16 -0.16)">
       <defs>
        <path d="M 65.90625 23 
C 67.59375 23 69.40625 23 69.40625 25 
C 69.40625 27 67.59375 27 65.90625 27 
L 11.796875 27 
C 10.09375 27 8.296875 27 8.296875 25 
C 8.296875 23 10.09375 23 11.796875 23 
z
" id="CMSY10-0"/>
        <path d="M 18.40625 4.796875 
C 18.40625 7.6875 16 9.671875 13.59375 9.671875 
C 10.703125 9.671875 8.703125 7.28125 8.703125 4.890625 
C 8.703125 2 11.09375 0 13.5 0 
C 16.40625 0 18.40625 2.390625 18.40625 4.796875 
z
" id="CMMI12-58"/>
       </defs>
       <use transform="scale(0.996264)" xlink:href="#CMSY10-0"/>
       <use transform="translate(77.487468 0)scale(0.996264)" xlink:href="#CMR17-48"/>
       <use transform="translate(123.177945 0)scale(0.996264)" xlink:href="#CMMI12-58"/>
       <use transform="translate(150.275122 0)scale(0.996264)" xlink:href="#CMR17-49"/>
      </g>
     </g>
    </g>
    <g id="ytick_10">
     <g id="line2d_24">
      <g>
       <use style="stroke:#000000;stroke-width:0.8;" x="716.783387" xlink:href="#m8092ef2765" y="165.496456"/>
      </g>
     </g>
     <g id="text_25">
      <!-- $\mathdefault{0.0}$ -->
      <g transform="translate(689.839864 171.03125)scale(0.16 -0.16)">
       <use transform="scale(0.996264)" xlink:href="#CMR17-48"/>
       <use transform="translate(45.690477 0)scale(0.996264)" xlink:href="#CMMI12-58"/>
       <use transform="translate(72.787654 0)scale(0.996264)" xlink:href="#CMR17-48"/>
      </g>
     </g>
    </g>
    <g id="ytick_11">
     <g id="line2d_25">
      <g>
       <use style="stroke:#000000;stroke-width:0.8;" x="716.783387" xlink:href="#m8092ef2765" y="110.450704"/>
      </g>
     </g>
     <g id="text_26">
      <!-- $\mathdefault{0.1}$ -->
      <g transform="translate(689.839864 115.985499)scale(0.16 -0.16)">
       <use transform="scale(0.996264)" xlink:href="#CMR17-48"/>
       <use transform="translate(45.690477 0)scale(0.996264)" xlink:href="#CMMI12-58"/>
       <use transform="translate(72.787654 0)scale(0.996264)" xlink:href="#CMR17-49"/>
      </g>
     </g>
    </g>
   </g>
   <g id="LineCollection_3">
    <path clip-path="url(#pc1f8292bdb)" d="M 728.202324 165.496456 
L 728.202324 165.496456 
" style="fill:none;stroke:#ff0000;stroke-width:2;"/>
    <path clip-path="url(#pc1f8292bdb)" d="M 742.475995 147.927838 
L 742.475995 72.900917 
" style="fill:none;stroke:#ff0000;stroke-width:2;"/>
    <path clip-path="url(#pc1f8292bdb)" d="M 756.749666 186.673086 
L 756.749666 124.615282 
" style="fill:none;stroke:#ff0000;stroke-width:2;"/>
    <path clip-path="url(#pc1f8292bdb)" d="M 771.023337 221.183538 
L 771.023337 163.130651 
" style="fill:none;stroke:#ff0000;stroke-width:2;"/>
    <path clip-path="url(#pc1f8292bdb)" d="M 785.297009 241.20259 
L 785.297009 182.640484 
" style="fill:none;stroke:#ff0000;stroke-width:2;"/>
    <path clip-path="url(#pc1f8292bdb)" d="M 799.57068 252.694735 
L 799.57068 194.934431 
" style="fill:none;stroke:#ff0000;stroke-width:2;"/>
    <path clip-path="url(#pc1f8292bdb)" d="M 813.844351 246.381382 
L 813.844351 197.479382 
" style="fill:none;stroke:#ff0000;stroke-width:2;"/>
    <path clip-path="url(#pc1f8292bdb)" d="M 828.118022 224.956161 
L 828.118022 184.82285 
" style="fill:none;stroke:#ff0000;stroke-width:2;"/>
    <path clip-path="url(#pc1f8292bdb)" d="M 842.391693 213.187076 
L 842.391693 182.315072 
" style="fill:none;stroke:#ff0000;stroke-width:2;"/>
    <path clip-path="url(#pc1f8292bdb)" d="M 856.665365 200.468603 
L 856.665365 173.147081 
" style="fill:none;stroke:#ff0000;stroke-width:2;"/>
    <path clip-path="url(#pc1f8292bdb)" d="M 870.939036 191.090957 
L 870.939036 171.008817 
" style="fill:none;stroke:#ff0000;stroke-width:2;"/>
    <path clip-path="url(#pc1f8292bdb)" d="M 885.212707 183.132717 
L 885.212707 168.308583 
" style="fill:none;stroke:#ff0000;stroke-width:2;"/>
    <path clip-path="url(#pc1f8292bdb)" d="M 899.486378 176.658216 
L 899.486378 163.932811 
" style="fill:none;stroke:#ff0000;stroke-width:2;"/>
    <path clip-path="url(#pc1f8292bdb)" d="M 913.760049 172.307874 
L 913.760049 162.393399 
" style="fill:none;stroke:#ff0000;stroke-width:2;"/>
    <path clip-path="url(#pc1f8292bdb)" d="M 928.033721 170.314427 
L 928.033721 161.963756 
" style="fill:none;stroke:#ff0000;stroke-width:2;"/>
    <path clip-path="url(#pc1f8292bdb)" d="M 942.307392 169.234588 
L 942.307392 161.775506 
" style="fill:none;stroke:#ff0000;stroke-width:2;"/>
    <path clip-path="url(#pc1f8292bdb)" d="M 956.581063 165.496456 
L 956.581063 165.496456 
" style="fill:none;stroke:#ff0000;stroke-width:2;"/>
   </g>
   <g id="line2d_26">
    <path clip-path="url(#pc1f8292bdb)" d="M 728.202324 165.496456 
L 742.475995 110.414378 
L 756.749666 155.644184 
L 771.023337 192.157094 
L 785.297009 211.921537 
L 799.57068 223.814583 
L 813.844351 221.930382 
L 828.118022 204.889506 
L 842.391693 197.751074 
L 856.665365 186.807842 
L 870.939036 181.049887 
L 885.212707 175.72065 
L 899.486378 170.295514 
L 913.760049 167.350636 
L 928.033721 166.139091 
L 942.307392 165.505047 
L 956.581063 165.496456 
" style="fill:none;stroke:#000000;stroke-linecap:square;stroke-width:2;"/>
   </g>
   <g id="patch_13">
    <path d="M 716.783387 261.684426 
L 716.783387 63.911226 
" style="fill:none;stroke:#000000;stroke-linecap:square;stroke-linejoin:miter;stroke-width:0.8;"/>
   </g>
   <g id="patch_14">
    <path d="M 968 261.684426 
L 968 63.911226 
" style="fill:none;stroke:#000000;stroke-linecap:square;stroke-linejoin:miter;stroke-width:0.8;"/>
   </g>
   <g id="patch_15">
    <path d="M 716.783387 261.684426 
L 968 261.684426 
" style="fill:none;stroke:#000000;stroke-linecap:square;stroke-linejoin:miter;stroke-width:0.8;"/>
   </g>
   <g id="patch_16">
    <path d="M 716.783387 63.911226 
L 968 63.911226 
" style="fill:none;stroke:#000000;stroke-linecap:square;stroke-linejoin:miter;stroke-width:0.8;"/>
   </g>
   <g id="text_27">
    <!-- $C(t)$ - Folded $C(t)$ -->
    <g transform="translate(752.297182 57.911226)scale(0.24 -0.24)">
     <defs>
      <path d="M 25.5 19 
L 25.5 23.375 
L 0.40625 23.375 
L 0.40625 19 
z
" id="CMR17-45"/>
     </defs>
     <use transform="scale(0.996264)" xlink:href="#CMMI12-67"/>
     <use transform="translate(76.946847 0)scale(0.996264)" xlink:href="#CMR17-40"/>
     <use transform="translate(112.227614 0)scale(0.996264)" xlink:href="#CMMI12-116"/>
     <use transform="translate(147.453945 0)scale(0.996264)" xlink:href="#CMR17-41"/>
     <use transform="translate(212.810679 0)scale(0.996264)" xlink:href="#CMR17-45"/>
     <use transform="translate(272.962612 0)scale(0.996264)" xlink:href="#CMR17-70"/>
     <use transform="translate(325.139203 0)scale(0.996264)" xlink:href="#CMR17-111"/>
     <use transform="translate(370.82968 0)scale(0.996264)" xlink:href="#CMR17-108"/>
     <use transform="translate(395.700738 0)scale(0.996264)" xlink:href="#CMR17-100"/>
     <use transform="translate(446.596108 0)scale(0.996264)" xlink:href="#CMR17-101"/>
     <use transform="translate(487.081769 0)scale(0.996264)" xlink:href="#CMR17-100"/>
     <use transform="translate(568.053105 0)scale(0.996264)" xlink:href="#CMMI12-67"/>
     <use transform="translate(644.999951 0)scale(0.996264)" xlink:href="#CMR17-40"/>
     <use transform="translate(680.280719 0)scale(0.996264)" xlink:href="#CMMI12-116"/>
     <use transform="translate(715.507049 0)scale(0.996264)" xlink:href="#CMR17-41"/>
    </g>
   </g>
  </g>
  <g id="axes_4">
   <g id="patch_17">
    <path d="M 95.667124 514.830936 
L 346.883737 514.830936 
L 346.883737 317.057736 
L 95.667124 317.057736 
z
" style="fill:#ffffff;"/>
   </g>
   <g id="matplotlib.axis_7">
    <g id="xtick_13">
     <g id="line2d_27">
      <g>
       <use style="stroke:#000000;stroke-width:0.8;" x="107.08606" xlink:href="#mca3640d589" y="514.830936"/>
      </g>
     </g>
     <g id="text_28">
      <!-- $\mathdefault{0}$ -->
      <g transform="translate(103.184067 532.900524)scale(0.16 -0.16)">
       <use transform="scale(0.996264)" xlink:href="#CMR17-48"/>
      </g>
     </g>
    </g>
    <g id="xtick_14">
     <g id="line2d_28">
      <g>
       <use style="stroke:#000000;stroke-width:0.8;" x="180.756622" xlink:href="#mca3640d589" y="514.830936"/>
      </g>
     </g>
     <g id="text_29">
      <!-- $\mathdefault{10}$ -->
      <g transform="translate(172.952635 532.900524)scale(0.16 -0.16)">
       <use transform="scale(0.996264)" xlink:href="#CMR17-49"/>
       <use transform="translate(45.690477 0)scale(0.996264)" xlink:href="#CMR17-48"/>
      </g>
     </g>
    </g>
    <g id="xtick_15">
     <g id="line2d_29">
      <g>
       <use style="stroke:#000000;stroke-width:0.8;" x="254.427183" xlink:href="#mca3640d589" y="514.830936"/>
      </g>
     </g>
     <g id="text_30">
      <!-- $\mathdefault{20}$ -->
      <g transform="translate(246.623196 532.900524)scale(0.16 -0.16)">
       <use transform="scale(0.996264)" xlink:href="#CMR17-50"/>
       <use transform="translate(45.690477 0)scale(0.996264)" xlink:href="#CMR17-48"/>
      </g>
     </g>
    </g>
    <g id="xtick_16">
     <g id="line2d_30">
      <g>
       <use style="stroke:#000000;stroke-width:0.8;" x="328.097744" xlink:href="#mca3640d589" y="514.830936"/>
      </g>
     </g>
     <g id="text_31">
      <!-- $\mathdefault{30}$ -->
      <g transform="translate(320.293757 532.900524)scale(0.16 -0.16)">
       <use transform="scale(0.996264)" xlink:href="#CMR17-51"/>
       <use transform="translate(45.690477 0)scale(0.996264)" xlink:href="#CMR17-48"/>
      </g>
     </g>
    </g>
   </g>
   <g id="matplotlib.axis_8">
    <g id="ytick_12">
     <g id="line2d_31">
      <g>
       <use style="stroke:#000000;stroke-width:0.8;" x="95.667124" xlink:href="#m8092ef2765" y="469.435504"/>
      </g>
     </g>
     <g id="text_32">
      <!-- $\mathdefault{−1}$ -->
      <g transform="translate(68.46514 474.970298)scale(0.16 -0.16)">
       <use transform="scale(0.996264)" xlink:href="#CMSY10-0"/>
       <use transform="translate(77.487468 0)scale(0.996264)" xlink:href="#CMR17-49"/>
      </g>
     </g>
    </g>
    <g id="ytick_13">
     <g id="line2d_32">
      <g>
       <use style="stroke:#000000;stroke-width:0.8;" x="95.667124" xlink:href="#m8092ef2765" y="407.113212"/>
      </g>
     </g>
     <g id="text_33">
      <!-- $\mathdefault{0}$ -->
      <g transform="translate(80.863137 412.648006)scale(0.16 -0.16)">
       <use transform="scale(0.996264)" xlink:href="#CMR17-48"/>
      </g>
     </g>
    </g>
    <g id="ytick_14">
     <g id="line2d_33">
      <g>
       <use style="stroke:#000000;stroke-width:0.8;" x="95.667124" xlink:href="#m8092ef2765" y="344.79092"/>
      </g>
     </g>
     <g id="text_34">
      <!-- $\mathdefault{1}$ -->
      <g transform="translate(80.863137 350.325714)scale(0.16 -0.16)">
       <use transform="scale(0.996264)" xlink:href="#CMR17-49"/>
      </g>
     </g>
    </g>
    <g id="text_35">
     <!-- Imaginary -->
     <g transform="translate(59.814383 464.660674)rotate(-90)scale(0.24 -0.24)">
      <defs>
       <path d="M 19.703125 61.015625 
C 19.703125 65.5 20.90625 65.5 28.09375 65.5 
L 28.09375 68 
C 24.90625 68 19.796875 68 16.40625 68 
C 13 68 7.90625 68 4.703125 68 
L 4.703125 65.5 
C 11.90625 65.5 13.09375 65.5 13.09375 61.015625 
L 13.09375 6.984375 
C 13.09375 2.5 11.90625 2.5 4.703125 2.5 
L 4.703125 0 
C 7.90625 0 13 0 16.40625 0 
C 19.796875 0 24.90625 0 28.09375 0 
L 28.09375 2.5 
C 20.90625 2.5 19.703125 2.5 19.703125 6.984375 
z
" id="CMR17-73"/>
       <path d="M 67.59375 30.203125 
C 67.59375 35.1875 66.703125 43.59375 54.796875 43.59375 
C 48 43.59375 43.296875 39 41.5 33.609375 
L 41.40625 33.609375 
C 40.203125 41.8125 34.296875 43.59375 28.703125 43.59375 
C 20.796875 43.59375 16.703125 37.5 15.203125 33.5 
L 15.09375 33.5 
L 15.09375 43.59375 
L 3.296875 42.5 
L 3.296875 39.90625 
C 9.203125 39.90625 10.09375 39.296875 10.09375 34.5 
L 10.09375 6.6875 
C 10.09375 2.875 9.703125 2.390625 3.296875 2.390625 
L 3.296875 -0.203125 
C 5.703125 0 10.09375 0 12.703125 0 
C 15.296875 0 19.796875 0 22.203125 -0.203125 
L 22.203125 2.390625 
C 15.796875 2.390625 15.40625 2.78125 15.40625 6.6875 
L 15.40625 25.90625 
C 15.40625 35.109375 21 42 28 42 
C 35.40625 42 36.203125 35.40625 36.203125 30.59375 
L 36.203125 6.6875 
C 36.203125 2.875 35.796875 2.390625 29.40625 2.390625 
L 29.40625 -0.203125 
C 31.796875 0 36.203125 0 38.796875 0 
C 41.40625 0 45.90625 0 48.296875 -0.203125 
L 48.296875 2.390625 
C 41.90625 2.390625 41.5 2.78125 41.5 6.6875 
L 41.5 25.90625 
C 41.5 35.109375 47.09375 42 54.09375 42 
C 61.5 42 62.296875 35.40625 62.296875 30.59375 
L 62.296875 6.6875 
C 62.296875 2.875 61.90625 2.390625 55.5 2.390625 
L 55.5 -0.203125 
C 57.90625 0 62.296875 0 64.90625 0 
C 67.5 0 72 0 74.40625 -0.203125 
L 74.40625 2.390625 
C 68 2.390625 67.59375 2.78125 67.59375 6.6875 
z
" id="CMR17-109"/>
       <path d="M 11.09375 18.1875 
C 13 16.6875 16.296875 15 20.296875 15 
C 28.203125 15 35 21.203125 35 29.5 
C 35 32.09375 34.203125 36.09375 31.203125 39.203125 
C 34 42.0625 38.09375 43 40.40625 43 
C 40.796875 43 41.40625 43 41.90625 42.71875 
C 41.5 42.625 40.59375 42.234375 40.59375 40.703125 
C 40.59375 39.484375 41.5 38.609375 42.796875 38.609375 
C 44.296875 38.609375 45.09375 39.578125 45.09375 40.84375 
C 45.09375 42.671875 43.59375 44.59375 40.40625 44.59375 
C 36.40625 44.59375 32.90625 42.78125 30.09375 40.3125 
C 27.09375 43.015625 23.5 44 20.296875 44 
C 12.40625 44 5.59375 37.796875 5.59375 29.5 
C 5.59375 23.78125 8.90625 20.1875 9.90625 19.1875 
C 6.90625 15.6875 6.90625 11.609375 6.90625 11.109375 
C 6.90625 8.515625 7.90625 4.71875 11.296875 2.625 
C 6.09375 1.328125 2 -2.640625 2 -7.59375 
C 2 -14.734375 11.5 -20 22.90625 -20 
C 33.90625 -20 43.796875 -14.9375 43.796875 -7.484375 
C 43.796875 6 29 6 21.296875 6 
C 19 6 14.90625 6 14.40625 6.109375 
C 11.296875 6.609375 9.203125 9.40625 9.203125 12.90625 
C 9.203125 13.796875 9.203125 16 11.09375 18.1875 
z
M 20.296875 16.6875 
C 11.5 16.6875 11.5 27.5 11.5 29.515625 
C 11.5 31.5 11.5 42.3125 20.296875 42.3125 
C 29.09375 42.3125 29.09375 31.5 29.09375 29.515625 
C 29.09375 27.5 29.09375 16.6875 20.296875 16.6875 
z
M 22.90625 -18.296875 
C 12.90625 -18.296875 6 -13.046875 6 -7.59375 
C 6 -4.515625 7.703125 -1.640625 9.90625 -0.0625 
C 12.40625 1.625 13.40625 1.625 20.203125 1.625 
C 28.40625 1.625 39.796875 1.625 39.796875 -7.59375 
C 39.796875 -13.046875 32.90625 -18.296875 22.90625 -18.296875 
z
" id="CMR17-103"/>
       <path d="M 15.5 61.078125 
C 15.5 63.265625 13.703125 65.15625 11.40625 65.15625 
C 9.203125 65.15625 7.296875 63.375 7.296875 61.078125 
C 7.296875 58.890625 9.09375 57 11.40625 57 
C 13.59375 57 15.5 58.796875 15.5 61.078125 
z
M 3.796875 42.28125 
L 3.796875 39.703125 
C 9.40625 39.703125 10.203125 39.09375 10.203125 34.328125 
L 10.203125 6.671875 
C 10.203125 2.875 9.796875 2.390625 3.40625 2.390625 
L 3.40625 -0.203125 
C 5.796875 0 10.09375 0 12.59375 0 
C 15 0 19.09375 0 21.40625 -0.203125 
L 21.40625 2.390625 
C 15.5 2.390625 15.296875 2.984375 15.296875 6.5625 
L 15.296875 43.375 
z
" id="CMR17-105"/>
       <path d="M 41.5 30.203125 
C 41.5 35.296875 40.5 43.59375 28.703125 43.59375 
C 20.796875 43.59375 16.703125 37.5 15.203125 33.5 
L 15.09375 33.5 
L 15.09375 43.59375 
L 3.296875 42.5 
L 3.296875 39.90625 
C 9.203125 39.90625 10.09375 39.296875 10.09375 34.5 
L 10.09375 6.6875 
C 10.09375 2.875 9.703125 2.390625 3.296875 2.390625 
L 3.296875 -0.203125 
C 5.703125 0 10.09375 0 12.703125 0 
C 15.296875 0 19.796875 0 22.203125 -0.203125 
L 22.203125 2.390625 
C 15.796875 2.390625 15.40625 2.78125 15.40625 6.6875 
L 15.40625 25.90625 
C 15.40625 35.109375 21 42 28 42 
C 35.40625 42 36.203125 35.40625 36.203125 30.59375 
L 36.203125 6.6875 
C 36.203125 2.875 35.796875 2.390625 29.40625 2.390625 
L 29.40625 -0.203125 
C 31.796875 0 36.203125 0 38.796875 0 
C 41.40625 0 45.90625 0 48.296875 -0.203125 
L 48.296875 2.390625 
C 41.90625 2.390625 41.5 2.78125 41.5 6.6875 
z
" id="CMR17-110"/>
       <path d="M 15 23.390625 
C 15 33 19.09375 42 26.59375 42 
C 27.296875 42 28 41.90625 28.703125 41.59375 
C 28.703125 41.59375 26.5 40.890625 26.5 38.3125 
C 26.5 35.90625 28.40625 34.90625 29.90625 34.90625 
C 31.09375 34.90625 33.296875 35.609375 33.296875 38.40625 
C 33.296875 41.609375 30.09375 43.59375 26.703125 43.59375 
C 19.09375 43.59375 15.796875 36.203125 14.796875 32.703125 
L 14.703125 32.703125 
L 14.703125 43.59375 
L 3.09375 42.5 
L 3.09375 39.90625 
C 9 39.90625 9.90625 39.296875 9.90625 34.5 
L 9.90625 6.6875 
C 9.90625 2.875 9.5 2.390625 3.09375 2.390625 
L 3.09375 -0.203125 
C 5.5 0 10.09375 0 12.703125 0 
C 15.59375 0 20.703125 0 23.40625 -0.203125 
L 23.40625 2.390625 
C 16.203125 2.390625 15 2.390625 15 6.875 
z
" id="CMR17-114"/>
       <path d="M 39 34.328125 
C 41.5 40.40625 46 40.40625 47.40625 40.40625 
L 47.40625 43 
C 45.5 43 43 43 41.09375 43 
C 39 43 35.703125 43 33.703125 43.09375 
L 33.703125 40.5 
C 37.5 40.203125 37.59375 37.40625 37.59375 36.609375 
C 37.59375 35.625 37.40625 35.125 36.90625 33.921875 
L 26 7.015625 
L 14.09375 36.03125 
C 13.59375 37.21875 13.59375 37.90625 13.59375 38.015625 
C 13.59375 40.203125 15.90625 40.40625 18.296875 40.40625 
L 18.296875 43.09375 
C 15.90625 43 11.59375 43 9.09375 43 
C 6.40625 43 3.203125 43 1 43.09375 
L 1 40.40625 
C 6.40625 40.40625 7 39.90625 8.296875 36.71875 
L 23.203125 0.234375 
C 18.703125 -11.53125 16.09375 -18.40625 9.796875 -18.40625 
C 8.703125 -18.40625 6.203125 -18.109375 4.40625 -16.3125 
C 6.703125 -16.109375 7.703125 -14.71875 7.703125 -13.015625 
C 7.703125 -11.328125 6.5 -9.828125 4.5 -9.828125 
C 2.296875 -9.828125 1.203125 -11.328125 1.203125 -13.125 
C 1.203125 -17.109375 5.296875 -20 9.796875 -20 
C 15.59375 -20 19.203125 -14.40625 21.203125 -9.4375 
z
" id="CMR17-121"/>
      </defs>
      <use transform="scale(0.996264)" xlink:href="#CMR17-73"/>
      <use transform="translate(32.638409 0)scale(0.996264)" xlink:href="#CMR17-109"/>
      <use transform="translate(109.557999 0)scale(0.996264)" xlink:href="#CMR17-97"/>
      <use transform="translate(155.248476 0)scale(0.996264)" xlink:href="#CMR17-103"/>
      <use transform="translate(200.938953 0)scale(0.996264)" xlink:href="#CMR17-105"/>
      <use transform="translate(225.810012 0)scale(0.996264)" xlink:href="#CMR17-110"/>
      <use transform="translate(276.705382 0)scale(0.996264)" xlink:href="#CMR17-97"/>
      <use transform="translate(322.395859 0)scale(0.996264)" xlink:href="#CMR17-114"/>
      <use transform="translate(357.676626 0)scale(0.996264)" xlink:href="#CMR17-121"/>
     </g>
    </g>
    <g id="text_36">
     <!-- $\times\mathdefault{10^{−16}}\mathdefault{}$ -->
     <g transform="translate(95.667124 314.057736)scale(0.16 -0.16)">
      <defs>
       <path d="M 38.90625 27.890625 
L 18.90625 47.796875 
C 17.703125 49 17.5 49.1875 16.703125 49.1875 
C 15.703125 49.1875 14.703125 48.296875 14.703125 47.1875 
C 14.703125 46.5 14.90625 46.296875 16 45.1875 
L 36 25.09375 
L 16 5 
C 14.90625 3.890625 14.703125 3.6875 14.703125 3 
C 14.703125 1.890625 15.703125 1 16.703125 1 
C 17.5 1 17.703125 1.1875 18.90625 2.390625 
L 38.796875 22.296875 
L 59.5 1.59375 
C 59.703125 1.5 60.40625 1 61 1 
C 62.203125 1 63 1.890625 63 3 
C 63 3.1875 63 3.59375 62.703125 4.09375 
C 62.59375 4.296875 46.703125 20 41.703125 25.09375 
L 60 43.390625 
C 60.5 44 62 45.296875 62.5 45.890625 
C 62.59375 46.09375 63 46.5 63 47.1875 
C 63 48.296875 62.203125 49.1875 61 49.1875 
C 60.203125 49.1875 59.796875 48.796875 58.703125 47.6875 
z
" id="CMSY10-2"/>
       <path d="M 10.59375 34 
C 10.59375 57.65625 21.796875 63 28.296875 63 
C 30.40625 63 35.5 62.640625 37.5 59 
C 35.90625 59 32.90625 59 32.90625 55.515625 
C 32.90625 52.828125 35.09375 51.921875 36.5 51.921875 
C 37.40625 51.921875 40.09375 52.3125 40.09375 55.625 
C 40.09375 61.78125 35.09375 65.296875 28.203125 65.296875 
C 16.296875 65.296875 3.796875 52.96875 3.796875 31 
C 3.796875 3.953125 15.09375 -2 23.09375 -2 
C 32.796875 -2 42 6.671875 42 20.046875 
C 42 32.515625 33.90625 41.59375 23.703125 41.59375 
C 17.59375 41.59375 13.09375 37.609375 10.59375 30.625 
z
M 23.09375 0.390625 
C 10.796875 0.390625 10.796875 18.75 10.796875 22.4375 
C 10.796875 29.625 14.203125 40 23.5 40 
C 25.203125 40 30.09375 40 33.40625 33.125 
C 35.203125 29.21875 35.203125 25.140625 35.203125 20.140625 
C 35.203125 14.75 35.203125 10.78125 33.09375 6.78125 
C 30.90625 2.671875 27.703125 0.390625 23.09375 0.390625 
z
" id="CMR17-54"/>
      </defs>
      <use transform="scale(0.996264)" xlink:href="#CMSY10-2"/>
      <use transform="translate(77.487468 0)scale(0.996264)" xlink:href="#CMR17-49"/>
      <use transform="translate(123.177945 0)scale(0.996264)" xlink:href="#CMR17-48"/>
      <use transform="translate(168.868422 36.153639)scale(0.697382)" xlink:href="#CMSY10-0"/>
      <use transform="translate(223.109415 36.153639)scale(0.697382)" xlink:href="#CMR17-49"/>
      <use transform="translate(255.092597 36.153639)scale(0.697382)" xlink:href="#CMR17-54"/>
     </g>
    </g>
   </g>
   <g id="LineCollection_4">
    <path clip-path="url(#p9c3847dc12)" d="M 107.08606 505.841245 
L 107.08606 403.93215 
" style="fill:none;stroke:#ff0000;stroke-width:2;"/>
    <path clip-path="url(#p9c3847dc12)" d="M 114.453117 448.37601 
L 114.453117 350.415736 
" style="fill:none;stroke:#ff0000;stroke-width:2;"/>
    <path clip-path="url(#p9c3847dc12)" d="M 121.820173 403.785901 
L 121.820173 326.047427 
" style="fill:none;stroke:#ff0000;stroke-width:2;"/>
    <path clip-path="url(#p9c3847dc12)" d="M 129.187229 444.868149 
L 129.187229 399.589898 
" style="fill:none;stroke:#ff0000;stroke-width:2;"/>
    <path clip-path="url(#p9c3847dc12)" d="M 136.554285 425.795446 
L 136.554285 381.877134 
" style="fill:none;stroke:#ff0000;stroke-width:2;"/>
    <path clip-path="url(#p9c3847dc12)" d="M 143.921341 436.700454 
L 143.921341 400.606432 
" style="fill:none;stroke:#ff0000;stroke-width:2;"/>
    <path clip-path="url(#p9c3847dc12)" d="M 151.288397 433.976307 
L 151.288397 409.472919 
" style="fill:none;stroke:#ff0000;stroke-width:2;"/>
    <path clip-path="url(#p9c3847dc12)" d="M 158.655453 418.734075 
L 158.655453 400.010138 
" style="fill:none;stroke:#ff0000;stroke-width:2;"/>
    <path clip-path="url(#p9c3847dc12)" d="M 166.022509 405.201901 
L 166.022509 388.384716 
" style="fill:none;stroke:#ff0000;stroke-width:2;"/>
    <path clip-path="url(#p9c3847dc12)" d="M 173.389565 409.376285 
L 173.389565 397.439684 
" style="fill:none;stroke:#ff0000;stroke-width:2;"/>
    <path clip-path="url(#p9c3847dc12)" d="M 180.756622 409.272147 
L 180.756622 398.467896 
" style="fill:none;stroke:#ff0000;stroke-width:2;"/>
    <path clip-path="url(#p9c3847dc12)" d="M 188.123678 409.067 
L 188.123678 400.646229 
" style="fill:none;stroke:#ff0000;stroke-width:2;"/>
    <path clip-path="url(#p9c3847dc12)" d="M 195.490734 409.296007 
L 195.490734 402.262326 
" style="fill:none;stroke:#ff0000;stroke-width:2;"/>
    <path clip-path="url(#p9c3847dc12)" d="M 202.85779 409.357359 
L 202.85779 405.52535 
" style="fill:none;stroke:#ff0000;stroke-width:2;"/>
    <path clip-path="url(#p9c3847dc12)" d="M 210.224846 410.406642 
L 210.224846 406.245759 
" style="fill:none;stroke:#ff0000;stroke-width:2;"/>
    <path clip-path="url(#p9c3847dc12)" d="M 217.591902 410.426839 
L 217.591902 407.070491 
" style="fill:none;stroke:#ff0000;stroke-width:2;"/>
    <path clip-path="url(#p9c3847dc12)" d="M 224.958958 407.522329 
L 224.958958 404.266883 
" style="fill:none;stroke:#ff0000;stroke-width:2;"/>
    <path clip-path="url(#p9c3847dc12)" d="M 232.326014 407.883941 
L 232.326014 403.117972 
" style="fill:none;stroke:#ff0000;stroke-width:2;"/>
    <path clip-path="url(#p9c3847dc12)" d="M 239.69307 409.703918 
L 239.69307 405.824187 
" style="fill:none;stroke:#ff0000;stroke-width:2;"/>
    <path clip-path="url(#p9c3847dc12)" d="M 247.060127 411.197752 
L 247.060127 406.844128 
" style="fill:none;stroke:#ff0000;stroke-width:2;"/>
    <path clip-path="url(#p9c3847dc12)" d="M 254.427183 414.086951 
L 254.427183 407.502721 
" style="fill:none;stroke:#ff0000;stroke-width:2;"/>
    <path clip-path="url(#p9c3847dc12)" d="M 261.794239 415.662375 
L 261.794239 407.384701 
" style="fill:none;stroke:#ff0000;stroke-width:2;"/>
    <path clip-path="url(#p9c3847dc12)" d="M 269.161295 416.417054 
L 269.161295 407.737949 
" style="fill:none;stroke:#ff0000;stroke-width:2;"/>
    <path clip-path="url(#p9c3847dc12)" d="M 276.528351 413.854438 
L 276.528351 401.580442 
" style="fill:none;stroke:#ff0000;stroke-width:2;"/>
    <path clip-path="url(#p9c3847dc12)" d="M 283.895407 414.091254 
L 283.895407 400.363486 
" style="fill:none;stroke:#ff0000;stroke-width:2;"/>
    <path clip-path="url(#p9c3847dc12)" d="M 291.262463 414.6013 
L 291.262463 397.426607 
" style="fill:none;stroke:#ff0000;stroke-width:2;"/>
    <path clip-path="url(#p9c3847dc12)" d="M 298.629519 421.592717 
L 298.629519 393.527765 
" style="fill:none;stroke:#ff0000;stroke-width:2;"/>
    <path clip-path="url(#p9c3847dc12)" d="M 305.996575 437.4576 
L 305.996575 402.829676 
" style="fill:none;stroke:#ff0000;stroke-width:2;"/>
    <path clip-path="url(#p9c3847dc12)" d="M 313.363631 467.001043 
L 313.363631 417.373884 
" style="fill:none;stroke:#ff0000;stroke-width:2;"/>
    <path clip-path="url(#p9c3847dc12)" d="M 320.730688 465.274172 
L 320.730688 409.444886 
" style="fill:none;stroke:#ff0000;stroke-width:2;"/>
    <path clip-path="url(#p9c3847dc12)" d="M 328.097744 426.802559 
L 328.097744 356.971537 
" style="fill:none;stroke:#ff0000;stroke-width:2;"/>
    <path clip-path="url(#p9c3847dc12)" d="M 335.4648 482.955817 
L 335.4648 375.428608 
" style="fill:none;stroke:#ff0000;stroke-width:2;"/>
   </g>
   <g id="line2d_34">
    <path clip-path="url(#p9c3847dc12)" d="M 107.08606 454.886697 
L 114.453117 399.395873 
L 121.820173 364.916664 
L 129.187229 422.229023 
L 136.554285 403.83629 
L 143.921341 418.653443 
L 151.288397 421.724613 
L 158.655453 409.372106 
L 166.022509 396.793308 
L 173.389565 403.407985 
L 180.756622 403.870021 
L 188.123678 404.856615 
L 195.490734 405.779166 
L 202.85779 407.441355 
L 210.224846 408.3262 
L 217.591902 408.748665 
L 224.958958 405.894606 
L 232.326014 405.500956 
L 239.69307 407.764053 
L 247.060127 409.02094 
L 254.427183 410.794836 
L 261.794239 411.523538 
L 269.161295 412.077501 
L 276.528351 407.71744 
L 283.895407 407.22737 
L 291.262463 406.013954 
L 298.629519 407.560241 
L 305.996575 420.143638 
L 313.363631 442.187464 
L 320.730688 437.359529 
L 328.097744 391.887048 
L 335.4648 429.192212 
" style="fill:none;stroke:#000000;stroke-linecap:square;stroke-width:2;"/>
   </g>
   <g id="patch_18">
    <path d="M 95.667124 514.830936 
L 95.667124 317.057736 
" style="fill:none;stroke:#000000;stroke-linecap:square;stroke-linejoin:miter;stroke-width:0.8;"/>
   </g>
   <g id="patch_19">
    <path d="M 346.883737 514.830936 
L 346.883737 317.057736 
" style="fill:none;stroke:#000000;stroke-linecap:square;stroke-linejoin:miter;stroke-width:0.8;"/>
   </g>
   <g id="patch_20">
    <path d="M 95.667124 514.830936 
L 346.883737 514.830936 
" style="fill:none;stroke:#000000;stroke-linecap:square;stroke-linejoin:miter;stroke-width:0.8;"/>
   </g>
   <g id="patch_21">
    <path d="M 95.667124 317.057736 
L 346.883737 317.057736 
" style="fill:none;stroke:#000000;stroke-linecap:square;stroke-linejoin:miter;stroke-width:0.8;"/>
   </g>
  </g>
  <g id="axes_5">
   <g id="patch_22">
    <path d="M 406.225255 514.830936 
L 657.441868 514.830936 
L 657.441868 317.057736 
L 406.225255 317.057736 
z
" style="fill:#ffffff;"/>
   </g>
   <g id="matplotlib.axis_9">
    <g id="xtick_17">
     <g id="line2d_35">
      <g>
       <use style="stroke:#000000;stroke-width:0.8;" x="417.644192" xlink:href="#mca3640d589" y="514.830936"/>
      </g>
     </g>
     <g id="text_37">
      <!-- $\mathdefault{0}$ -->
      <g transform="translate(413.742199 532.900524)scale(0.16 -0.16)">
       <use transform="scale(0.996264)" xlink:href="#CMR17-48"/>
      </g>
     </g>
    </g>
    <g id="xtick_18">
     <g id="line2d_36">
      <g>
       <use style="stroke:#000000;stroke-width:0.8;" x="489.012548" xlink:href="#mca3640d589" y="514.830936"/>
      </g>
     </g>
     <g id="text_38">
      <!-- $\mathdefault{5}$ -->
      <g transform="translate(485.110555 532.900524)scale(0.16 -0.16)">
       <use transform="scale(0.996264)" xlink:href="#CMR17-53"/>
      </g>
     </g>
    </g>
    <g id="xtick_19">
     <g id="line2d_37">
      <g>
       <use style="stroke:#000000;stroke-width:0.8;" x="560.380904" xlink:href="#mca3640d589" y="514.830936"/>
      </g>
     </g>
     <g id="text_39">
      <!-- $\mathdefault{10}$ -->
      <g transform="translate(552.576917 532.900524)scale(0.16 -0.16)">
       <use transform="scale(0.996264)" xlink:href="#CMR17-49"/>
       <use transform="translate(45.690477 0)scale(0.996264)" xlink:href="#CMR17-48"/>
      </g>
     </g>
    </g>
    <g id="xtick_20">
     <g id="line2d_38">
      <g>
       <use style="stroke:#000000;stroke-width:0.8;" x="631.74926" xlink:href="#mca3640d589" y="514.830936"/>
      </g>
     </g>
     <g id="text_40">
      <!-- $\mathdefault{15}$ -->
      <g transform="translate(623.945273 532.900524)scale(0.16 -0.16)">
       <use transform="scale(0.996264)" xlink:href="#CMR17-49"/>
       <use transform="translate(45.690477 0)scale(0.996264)" xlink:href="#CMR17-53"/>
      </g>
     </g>
    </g>
   </g>
   <g id="matplotlib.axis_10">
    <g id="ytick_15">
     <g id="line2d_39">
      <g>
       <use style="stroke:#000000;stroke-width:0.8;" x="406.225255" xlink:href="#m8092ef2765" y="499.719169"/>
      </g>
     </g>
     <g id="text_41">
      <!-- $\mathdefault{−1.5}$ -->
      <g transform="translate(366.883737 505.253963)scale(0.16 -0.16)">
       <use transform="scale(0.996264)" xlink:href="#CMSY10-0"/>
       <use transform="translate(77.487468 0)scale(0.996264)" xlink:href="#CMR17-49"/>
       <use transform="translate(123.177945 0)scale(0.996264)" xlink:href="#CMMI12-58"/>
       <use transform="translate(150.275122 0)scale(0.996264)" xlink:href="#CMR17-53"/>
      </g>
     </g>
    </g>
    <g id="ytick_16">
     <g id="line2d_40">
      <g>
       <use style="stroke:#000000;stroke-width:0.8;" x="406.225255" xlink:href="#m8092ef2765" y="463.344405"/>
      </g>
     </g>
     <g id="text_42">
      <!-- $\mathdefault{−1.0}$ -->
      <g transform="translate(366.883737 468.879199)scale(0.16 -0.16)">
       <use transform="scale(0.996264)" xlink:href="#CMSY10-0"/>
       <use transform="translate(77.487468 0)scale(0.996264)" xlink:href="#CMR17-49"/>
       <use transform="translate(123.177945 0)scale(0.996264)" xlink:href="#CMMI12-58"/>
       <use transform="translate(150.275122 0)scale(0.996264)" xlink:href="#CMR17-48"/>
      </g>
     </g>
    </g>
    <g id="ytick_17">
     <g id="line2d_41">
      <g>
       <use style="stroke:#000000;stroke-width:0.8;" x="406.225255" xlink:href="#m8092ef2765" y="426.969642"/>
      </g>
     </g>
     <g id="text_43">
      <!-- $\mathdefault{−0.5}$ -->
      <g transform="translate(366.883737 432.504436)scale(0.16 -0.16)">
       <use transform="scale(0.996264)" xlink:href="#CMSY10-0"/>
       <use transform="translate(77.487468 0)scale(0.996264)" xlink:href="#CMR17-48"/>
       <use transform="translate(123.177945 0)scale(0.996264)" xlink:href="#CMMI12-58"/>
       <use transform="translate(150.275122 0)scale(0.996264)" xlink:href="#CMR17-53"/>
      </g>
     </g>
    </g>
    <g id="ytick_18">
     <g id="line2d_42">
      <g>
       <use style="stroke:#000000;stroke-width:0.8;" x="406.225255" xlink:href="#m8092ef2765" y="390.594878"/>
      </g>
     </g>
     <g id="text_44">
      <!-- $\mathdefault{0.0}$ -->
      <g transform="translate(379.281733 396.129672)scale(0.16 -0.16)">
       <use transform="scale(0.996264)" xlink:href="#CMR17-48"/>
       <use transform="translate(45.690477 0)scale(0.996264)" xlink:href="#CMMI12-58"/>
       <use transform="translate(72.787654 0)scale(0.996264)" xlink:href="#CMR17-48"/>
      </g>
     </g>
    </g>
    <g id="ytick_19">
     <g id="line2d_43">
      <g>
       <use style="stroke:#000000;stroke-width:0.8;" x="406.225255" xlink:href="#m8092ef2765" y="354.220115"/>
      </g>
     </g>
     <g id="text_45">
      <!-- $\mathdefault{0.5}$ -->
      <g transform="translate(379.281733 359.754909)scale(0.16 -0.16)">
       <use transform="scale(0.996264)" xlink:href="#CMR17-48"/>
       <use transform="translate(45.690477 0)scale(0.996264)" xlink:href="#CMMI12-58"/>
       <use transform="translate(72.787654 0)scale(0.996264)" xlink:href="#CMR17-53"/>
      </g>
     </g>
    </g>
    <g id="ytick_20">
     <g id="line2d_44">
      <g>
       <use style="stroke:#000000;stroke-width:0.8;" x="406.225255" xlink:href="#m8092ef2765" y="317.845351"/>
      </g>
     </g>
     <g id="text_46">
      <!-- $\mathdefault{1.0}$ -->
      <g transform="translate(379.281733 323.380145)scale(0.16 -0.16)">
       <use transform="scale(0.996264)" xlink:href="#CMR17-49"/>
       <use transform="translate(45.690477 0)scale(0.996264)" xlink:href="#CMMI12-58"/>
       <use transform="translate(72.787654 0)scale(0.996264)" xlink:href="#CMR17-48"/>
      </g>
     </g>
    </g>
    <g id="text_47">
     <!-- $\times\mathdefault{10^{−16}}\mathdefault{}$ -->
     <g transform="translate(406.225255 314.057736)scale(0.16 -0.16)">
      <use transform="scale(0.996264)" xlink:href="#CMSY10-2"/>
      <use transform="translate(77.487468 0)scale(0.996264)" xlink:href="#CMR17-49"/>
      <use transform="translate(123.177945 0)scale(0.996264)" xlink:href="#CMR17-48"/>
      <use transform="translate(168.868422 36.153639)scale(0.697382)" xlink:href="#CMSY10-0"/>
      <use transform="translate(223.109415 36.153639)scale(0.697382)" xlink:href="#CMR17-49"/>
      <use transform="translate(255.092597 36.153639)scale(0.697382)" xlink:href="#CMR17-54"/>
     </g>
    </g>
   </g>
   <g id="LineCollection_5">
    <path clip-path="url(#pb4b6289824)" d="M 417.644192 505.841245 
L 417.644192 386.881587 
" style="fill:none;stroke:#ff0000;stroke-width:2;"/>
    <path clip-path="url(#pb4b6289824)" d="M 431.917863 441.560986 
L 431.917863 356.393303 
" style="fill:none;stroke:#ff0000;stroke-width:2;"/>
    <path clip-path="url(#pb4b6289824)" d="M 446.191535 388.112138 
L 446.191535 326.047427 
" style="fill:none;stroke:#ff0000;stroke-width:2;"/>
    <path clip-path="url(#pb4b6289824)" d="M 460.465206 438.4337 
L 460.465206 395.70779 
" style="fill:none;stroke:#ff0000;stroke-width:2;"/>
    <path clip-path="url(#pb4b6289824)" d="M 474.738877 428.472029 
L 474.738877 389.835116 
" style="fill:none;stroke:#ff0000;stroke-width:2;"/>
    <path clip-path="url(#pb4b6289824)" d="M 489.012548 418.908119 
L 489.012548 390.963248 
" style="fill:none;stroke:#ff0000;stroke-width:2;"/>
    <path clip-path="url(#pb4b6289824)" d="M 503.286219 409.288205 
L 503.286219 389.479429 
" style="fill:none;stroke:#ff0000;stroke-width:2;"/>
    <path clip-path="url(#pb4b6289824)" d="M 517.559891 398.408849 
L 517.559891 384.134563 
" style="fill:none;stroke:#ff0000;stroke-width:2;"/>
    <path clip-path="url(#pb4b6289824)" d="M 531.833562 390.978559 
L 531.833562 378.297913 
" style="fill:none;stroke:#ff0000;stroke-width:2;"/>
    <path clip-path="url(#pb4b6289824)" d="M 546.107233 393.7544 
L 546.107233 383.815525 
" style="fill:none;stroke:#ff0000;stroke-width:2;"/>
    <path clip-path="url(#pb4b6289824)" d="M 560.380904 395.547134 
L 560.380904 387.65168 
" style="fill:none;stroke:#ff0000;stroke-width:2;"/>
    <path clip-path="url(#pb4b6289824)" d="M 574.654575 395.407715 
L 574.654575 388.296113 
" style="fill:none;stroke:#ff0000;stroke-width:2;"/>
    <path clip-path="url(#pb4b6289824)" d="M 588.928247 394.8189 
L 588.928247 389.111212 
" style="fill:none;stroke:#ff0000;stroke-width:2;"/>
    <path clip-path="url(#pb4b6289824)" d="M 603.201918 393.640283 
L 603.201918 390.159431 
" style="fill:none;stroke:#ff0000;stroke-width:2;"/>
    <path clip-path="url(#pb4b6289824)" d="M 617.475589 393.449285 
L 617.475589 389.91614 
" style="fill:none;stroke:#ff0000;stroke-width:2;"/>
    <path clip-path="url(#pb4b6289824)" d="M 631.74926 392.223099 
L 631.74926 388.993736 
" style="fill:none;stroke:#ff0000;stroke-width:2;"/>
    <path clip-path="url(#pb4b6289824)" d="M 646.022931 391.072445 
L 646.022931 387.272325 
" style="fill:none;stroke:#ff0000;stroke-width:2;"/>
   </g>
   <g id="line2d_45">
    <path clip-path="url(#pb4b6289824)" d="M 417.644192 446.361416 
L 431.917863 398.977144 
L 446.191535 357.079782 
L 460.465206 417.070745 
L 474.738877 409.153572 
L 489.012548 404.935683 
L 503.286219 399.383817 
L 517.559891 391.271706 
L 531.833562 384.638236 
L 546.107233 388.784962 
L 560.380904 391.599407 
L 574.654575 391.851914 
L 588.928247 391.965056 
L 603.201918 391.899857 
L 617.475589 391.682713 
L 631.74926 390.608417 
L 646.022931 389.172385 
" style="fill:none;stroke:#000000;stroke-linecap:square;stroke-width:2;"/>
   </g>
   <g id="patch_23">
    <path d="M 406.225255 514.830936 
L 406.225255 317.057736 
" style="fill:none;stroke:#000000;stroke-linecap:square;stroke-linejoin:miter;stroke-width:0.8;"/>
   </g>
   <g id="patch_24">
    <path d="M 657.441868 514.830936 
L 657.441868 317.057736 
" style="fill:none;stroke:#000000;stroke-linecap:square;stroke-linejoin:miter;stroke-width:0.8;"/>
   </g>
   <g id="patch_25">
    <path d="M 406.225255 514.830936 
L 657.441868 514.830936 
" style="fill:none;stroke:#000000;stroke-linecap:square;stroke-linejoin:miter;stroke-width:0.8;"/>
   </g>
   <g id="patch_26">
    <path d="M 406.225255 317.057736 
L 657.441868 317.057736 
" style="fill:none;stroke:#000000;stroke-linecap:square;stroke-linejoin:miter;stroke-width:0.8;"/>
   </g>
  </g>
  <g id="axes_6">
   <g id="patch_27">
    <path d="M 716.783387 514.830936 
L 968 514.830936 
L 968 317.057736 
L 716.783387 317.057736 
z
" style="fill:#ffffff;"/>
   </g>
   <g id="matplotlib.axis_11">
    <g id="xtick_21">
     <g id="line2d_46">
      <g>
       <use style="stroke:#000000;stroke-width:0.8;" x="728.202324" xlink:href="#mca3640d589" y="514.830936"/>
      </g>
     </g>
     <g id="text_48">
      <!-- $\mathdefault{0}$ -->
      <g transform="translate(724.30033 532.900524)scale(0.16 -0.16)">
       <use transform="scale(0.996264)" xlink:href="#CMR17-48"/>
      </g>
     </g>
    </g>
    <g id="xtick_22">
     <g id="line2d_47">
      <g>
       <use style="stroke:#000000;stroke-width:0.8;" x="799.57068" xlink:href="#mca3640d589" y="514.830936"/>
      </g>
     </g>
     <g id="text_49">
      <!-- $\mathdefault{5}$ -->
      <g transform="translate(795.668686 532.900524)scale(0.16 -0.16)">
       <use transform="scale(0.996264)" xlink:href="#CMR17-53"/>
      </g>
     </g>
    </g>
    <g id="xtick_23">
     <g id="line2d_48">
      <g>
       <use style="stroke:#000000;stroke-width:0.8;" x="870.939036" xlink:href="#mca3640d589" y="514.830936"/>
      </g>
     </g>
     <g id="text_50">
      <!-- $\mathdefault{10}$ -->
      <g transform="translate(863.135049 532.900524)scale(0.16 -0.16)">
       <use transform="scale(0.996264)" xlink:href="#CMR17-49"/>
       <use transform="translate(45.690477 0)scale(0.996264)" xlink:href="#CMR17-48"/>
      </g>
     </g>
    </g>
    <g id="xtick_24">
     <g id="line2d_49">
      <g>
       <use style="stroke:#000000;stroke-width:0.8;" x="942.307392" xlink:href="#mca3640d589" y="514.830936"/>
      </g>
     </g>
     <g id="text_51">
      <!-- $\mathdefault{15}$ -->
      <g transform="translate(934.503405 532.900524)scale(0.16 -0.16)">
       <use transform="scale(0.996264)" xlink:href="#CMR17-49"/>
       <use transform="translate(45.690477 0)scale(0.996264)" xlink:href="#CMR17-53"/>
      </g>
     </g>
    </g>
   </g>
   <g id="matplotlib.axis_12">
    <g id="ytick_21">
     <g id="line2d_50">
      <g>
       <use style="stroke:#000000;stroke-width:0.8;" x="716.783387" xlink:href="#m8092ef2765" y="491.531415"/>
      </g>
     </g>
     <g id="text_52">
      <!-- $\mathdefault{−2.5}$ -->
      <g transform="translate(677.441868 497.066209)scale(0.16 -0.16)">
       <use transform="scale(0.996264)" xlink:href="#CMSY10-0"/>
       <use transform="translate(77.487468 0)scale(0.996264)" xlink:href="#CMR17-50"/>
       <use transform="translate(123.177945 0)scale(0.996264)" xlink:href="#CMMI12-58"/>
       <use transform="translate(150.275122 0)scale(0.996264)" xlink:href="#CMR17-53"/>
      </g>
     </g>
    </g>
    <g id="ytick_22">
     <g id="line2d_51">
      <g>
       <use style="stroke:#000000;stroke-width:0.8;" x="716.783387" xlink:href="#m8092ef2765" y="452.891697"/>
      </g>
     </g>
     <g id="text_53">
      <!-- $\mathdefault{0.0}$ -->
      <g transform="translate(689.839864 458.426491)scale(0.16 -0.16)">
       <use transform="scale(0.996264)" xlink:href="#CMR17-48"/>
       <use transform="translate(45.690477 0)scale(0.996264)" xlink:href="#CMMI12-58"/>
       <use transform="translate(72.787654 0)scale(0.996264)" xlink:href="#CMR17-48"/>
      </g>
     </g>
    </g>
    <g id="ytick_23">
     <g id="line2d_52">
      <g>
       <use style="stroke:#000000;stroke-width:0.8;" x="716.783387" xlink:href="#m8092ef2765" y="414.25198"/>
      </g>
     </g>
     <g id="text_54">
      <!-- $\mathdefault{2.5}$ -->
      <g transform="translate(689.839864 419.786774)scale(0.16 -0.16)">
       <use transform="scale(0.996264)" xlink:href="#CMR17-50"/>
       <use transform="translate(45.690477 0)scale(0.996264)" xlink:href="#CMMI12-58"/>
       <use transform="translate(72.787654 0)scale(0.996264)" xlink:href="#CMR17-53"/>
      </g>
     </g>
    </g>
    <g id="ytick_24">
     <g id="line2d_53">
      <g>
       <use style="stroke:#000000;stroke-width:0.8;" x="716.783387" xlink:href="#m8092ef2765" y="375.612263"/>
      </g>
     </g>
     <g id="text_55">
      <!-- $\mathdefault{5.0}$ -->
      <g transform="translate(689.839864 381.147057)scale(0.16 -0.16)">
       <use transform="scale(0.996264)" xlink:href="#CMR17-53"/>
       <use transform="translate(45.690477 0)scale(0.996264)" xlink:href="#CMMI12-58"/>
       <use transform="translate(72.787654 0)scale(0.996264)" xlink:href="#CMR17-48"/>
      </g>
     </g>
    </g>
    <g id="ytick_25">
     <g id="line2d_54">
      <g>
       <use style="stroke:#000000;stroke-width:0.8;" x="716.783387" xlink:href="#m8092ef2765" y="336.972546"/>
      </g>
     </g>
     <g id="text_56">
      <!-- $\mathdefault{7.5}$ -->
      <g transform="translate(689.839864 342.50734)scale(0.16 -0.16)">
       <defs>
        <path d="M 45.09375 61.578125 
L 45.09375 63.765625 
L 21.59375 63.765625 
C 9.90625 63.765625 9.703125 65.078125 9.296875 67 
L 7.5 67 
L 4.59375 48.34375 
L 6.40625 48.34375 
C 6.703125 50.234375 7.40625 55.3125 8.59375 57.203125 
C 9.203125 58 16.59375 58 18.296875 58 
L 40.296875 58 
L 29.203125 41.578125 
C 21.796875 30.53125 16.703125 15.609375 16.703125 2.578125 
C 16.703125 1.390625 16.703125 -2 20.296875 -2 
C 23.90625 -2 23.90625 1.390625 23.90625 2.671875 
L 23.90625 7.265625 
C 23.90625 23.5625 26.703125 34.3125 31.296875 41.1875 
z
" id="CMR17-55"/>
       </defs>
       <use transform="scale(0.996264)" xlink:href="#CMR17-55"/>
       <use transform="translate(45.690477 0)scale(0.996264)" xlink:href="#CMMI12-58"/>
       <use transform="translate(72.787654 0)scale(0.996264)" xlink:href="#CMR17-53"/>
      </g>
     </g>
    </g>
    <g id="text_57">
     <!-- $\times\mathdefault{10^{−17}}\mathdefault{}$ -->
     <g transform="translate(716.783387 314.057736)scale(0.16 -0.16)">
      <use transform="scale(0.996264)" xlink:href="#CMSY10-2"/>
      <use transform="translate(77.487468 0)scale(0.996264)" xlink:href="#CMR17-49"/>
      <use transform="translate(123.177945 0)scale(0.996264)" xlink:href="#CMR17-48"/>
      <use transform="translate(168.868422 36.153639)scale(0.697382)" xlink:href="#CMSY10-0"/>
      <use transform="translate(223.109415 36.153639)scale(0.697382)" xlink:href="#CMR17-49"/>
      <use transform="translate(255.092597 36.153639)scale(0.697382)" xlink:href="#CMR17-55"/>
     </g>
    </g>
   </g>
   <g id="LineCollection_6">
    <path clip-path="url(#p03173f9615)" d="M 728.202324 452.891697 
L 728.202324 452.891697 
" style="fill:none;stroke:#ff0000;stroke-width:2;"/>
    <path clip-path="url(#p03173f9615)" d="M 742.475995 505.841245 
L 742.475995 326.047427 
" style="fill:none;stroke:#ff0000;stroke-width:2;"/>
    <path clip-path="url(#p03173f9615)" d="M 756.749666 483.074783 
L 756.749666 355.822239 
" style="fill:none;stroke:#ff0000;stroke-width:2;"/>
    <path clip-path="url(#p03173f9615)" d="M 771.023337 477.861735 
L 771.023337 390.398105 
" style="fill:none;stroke:#ff0000;stroke-width:2;"/>
    <path clip-path="url(#p03173f9615)" d="M 785.297009 446.467803 
L 785.297009 364.204936 
" style="fill:none;stroke:#ff0000;stroke-width:2;"/>
    <path clip-path="url(#p03173f9615)" d="M 799.57068 483.327511 
L 799.57068 418.76021 
" style="fill:none;stroke:#ff0000;stroke-width:2;"/>
    <path clip-path="url(#p03173f9615)" d="M 813.844351 495.442632 
L 813.844351 445.46831 
" style="fill:none;stroke:#ff0000;stroke-width:2;"/>
    <path clip-path="url(#p03173f9615)" d="M 828.118022 473.376977 
L 828.118022 440.734614 
" style="fill:none;stroke:#ff0000;stroke-width:2;"/>
    <path clip-path="url(#p03173f9615)" d="M 842.391693 453.402016 
L 842.391693 426.504975 
" style="fill:none;stroke:#ff0000;stroke-width:2;"/>
    <path clip-path="url(#p03173f9615)" d="M 856.665365 458.220095 
L 856.665365 436.87588 
" style="fill:none;stroke:#ff0000;stroke-width:2;"/>
    <path clip-path="url(#p03173f9615)" d="M 870.939036 451.507105 
L 870.939036 433.921794 
" style="fill:none;stroke:#ff0000;stroke-width:2;"/>
    <path clip-path="url(#p03173f9615)" d="M 885.212707 451.70452 
L 885.212707 437.544949 
" style="fill:none;stroke:#ff0000;stroke-width:2;"/>
    <path clip-path="url(#p03173f9615)" d="M 899.486378 452.55465 
L 899.486378 440.789917 
" style="fill:none;stroke:#ff0000;stroke-width:2;"/>
    <path clip-path="url(#p03173f9615)" d="M 913.760049 454.424263 
L 913.760049 447.44177 
" style="fill:none;stroke:#ff0000;stroke-width:2;"/>
    <path clip-path="url(#p03173f9615)" d="M 928.033721 456.874515 
L 928.033721 450.303002 
" style="fill:none;stroke:#ff0000;stroke-width:2;"/>
    <path clip-path="url(#p03173f9615)" d="M 942.307392 460.707693 
L 942.307392 453.129998 
" style="fill:none;stroke:#ff0000;stroke-width:2;"/>
    <path clip-path="url(#p03173f9615)" d="M 956.581063 452.891697 
L 956.581063 452.891697 
" style="fill:none;stroke:#ff0000;stroke-width:2;"/>
   </g>
   <g id="line2d_55">
    <path clip-path="url(#p03173f9615)" d="M 728.202324 452.891697 
L 742.475995 415.944336 
L 756.749666 419.448511 
L 771.023337 434.12992 
L 785.297009 405.33637 
L 799.57068 451.04386 
L 813.844351 470.455471 
L 828.118022 457.055795 
L 842.391693 439.953495 
L 856.665365 447.547988 
L 870.939036 442.714449 
L 885.212707 444.624735 
L 899.486378 446.672284 
L 913.760049 450.933016 
L 928.033721 453.588758 
L 942.307392 456.918846 
L 956.581063 452.891697 
" style="fill:none;stroke:#000000;stroke-linecap:square;stroke-width:2;"/>
   </g>
   <g id="patch_28">
    <path d="M 716.783387 514.830936 
L 716.783387 317.057736 
" style="fill:none;stroke:#000000;stroke-linecap:square;stroke-linejoin:miter;stroke-width:0.8;"/>
   </g>
   <g id="patch_29">
    <path d="M 968 514.830936 
L 968 317.057736 
" style="fill:none;stroke:#000000;stroke-linecap:square;stroke-linejoin:miter;stroke-width:0.8;"/>
   </g>
   <g id="patch_30">
    <path d="M 716.783387 514.830936 
L 968 514.830936 
" style="fill:none;stroke:#000000;stroke-linecap:square;stroke-linejoin:miter;stroke-width:0.8;"/>
   </g>
   <g id="patch_31">
    <path d="M 716.783387 317.057736 
L 968 317.057736 
" style="fill:none;stroke:#000000;stroke-linecap:square;stroke-linejoin:miter;stroke-width:0.8;"/>
   </g>
  </g>
 </g>
 <defs>
  <clipPath id="p4aa4cb8d4a">
   <rect height="197.773199" width="251.216613" x="95.667124" y="63.911226"/>
  </clipPath>
  <clipPath id="p0a3d1d2063">
   <rect height="197.773199" width="251.216613" x="406.225255" y="63.911226"/>
  </clipPath>
  <clipPath id="pc1f8292bdb">
   <rect height="197.773199" width="251.216613" x="716.783387" y="63.911226"/>
  </clipPath>
  <clipPath id="p9c3847dc12">
   <rect height="197.773199" width="251.216613" x="95.667124" y="317.057736"/>
  </clipPath>
  <clipPath id="pb4b6289824">
   <rect height="197.773199" width="251.216613" x="406.225255" y="317.057736"/>
  </clipPath>
  <clipPath id="p03173f9615">
   <rect height="197.773199" width="251.216613" x="716.783387" y="317.057736"/>
  </clipPath>
 </defs>
</svg>
