<?xml version="1.0" encoding="utf-8" standalone="no"?>
<!DOCTYPE svg PUBLIC "-//W3C//DTD SVG 1.1//EN"
  "http://www.w3.org/Graphics/SVG/1.1/DTD/svg11.dtd">
<!-- Created with matplotlib (https://matplotlib.org/) -->
<svg height="576pt" version="1.1" viewBox="0 0 1008 576" width="1008pt" xmlns="http://www.w3.org/2000/svg" xmlns:xlink="http://www.w3.org/1999/xlink">
 <metadata>
  <rdf:RDF xmlns:cc="http://creativecommons.org/ns#" xmlns:dc="http://purl.org/dc/elements/1.1/" xmlns:rdf="http://www.w3.org/1999/02/22-rdf-syntax-ns#">
   <cc:Work>
    <dc:type rdf:resource="http://purl.org/dc/dcmitype/StillImage"/>
    <dc:date>2022-11-01T20:21:26.427942</dc:date>
    <dc:format>image/svg+xml</dc:format>
    <dc:creator>
     <cc:Agent>
      <dc:title>Matplotlib v3.3.4, https://matplotlib.org/</dc:title>
     </cc:Agent>
    </dc:creator>
   </cc:Work>
  </rdf:RDF>
 </metadata>
 <defs>
  <style type="text/css">*{stroke-linecap:butt;stroke-linejoin:round;}</style>
 </defs>
 <g id="figure_1">
  <g id="patch_1">
   <path d="M 0 576 
L 1008 576 
L 1008 0 
L 0 0 
z
" style="fill:#ffffff;"/>
  </g>
  <g id="axes_1">
   <g id="patch_2">
    <path d="M 92.457146 261.684426 
L 329.135777 261.684426 
L 329.135777 63.911226 
L 92.457146 63.911226 
z
" style="fill:#ffffff;"/>
   </g>
   <g id="matplotlib.axis_1">
    <g id="xtick_1">
     <g id="line2d_1">
      <defs>
       <path d="M 0 0 
L 0 3.5 
" id="m9f522d18b2" style="stroke:#000000;stroke-width:0.8;"/>
      </defs>
      <g>
       <use style="stroke:#000000;stroke-width:0.8;" x="103.215265" xlink:href="#m9f522d18b2" y="261.684426"/>
      </g>
     </g>
     <g id="text_1">
      <!-- $\mathdefault{0}$ -->
      <g transform="translate(99.313272 279.754014)scale(0.16 -0.16)">
       <defs>
        <path d="M 42 31.640625 
C 42 37.75 41.90625 48.125 37.703125 56.109375 
C 34 63.109375 28.09375 65.59375 22.90625 65.59375 
C 18.09375 65.59375 12 63.40625 8.203125 56.203125 
C 4.203125 48.71875 3.796875 39.4375 3.796875 31.640625 
C 3.796875 25.953125 3.90625 17.28125 7 9.671875 
C 11.296875 -0.609375 19 -2 22.90625 -2 
C 27.5 -2 34.5 -0.109375 38.59375 9.375 
C 41.59375 16.28125 42 24.359375 42 31.640625 
z
M 22.90625 -0.40625 
C 16.5 -0.40625 12.703125 5.078125 11.296875 12.6875 
C 10.203125 18.5625 10.203125 27.15625 10.203125 32.75 
C 10.203125 40.4375 10.203125 46.828125 11.5 52.921875 
C 13.40625 61.390625 19 64 22.90625 64 
C 27 64 32.296875 61.296875 34.203125 53.125 
C 35.5 47.4375 35.59375 40.734375 35.59375 32.75 
C 35.59375 26.25 35.59375 18.265625 34.40625 12.375 
C 32.296875 1.484375 26.40625 -0.40625 22.90625 -0.40625 
z
" id="CMR17-48"/>
       </defs>
       <use transform="scale(0.996264)" xlink:href="#CMR17-48"/>
      </g>
     </g>
    </g>
    <g id="xtick_2">
     <g id="line2d_2">
      <g>
       <use style="stroke:#000000;stroke-width:0.8;" x="172.622489" xlink:href="#m9f522d18b2" y="261.684426"/>
      </g>
     </g>
     <g id="text_2">
      <!-- $\mathdefault{10}$ -->
      <g transform="translate(164.818502 279.754014)scale(0.16 -0.16)">
       <defs>
        <path d="M 26.59375 63.40625 
C 26.59375 65.5 26.5 65.5 25.09375 65.5 
C 21.203125 61.1875 15.296875 59.796875 9.703125 59.796875 
C 9.40625 59.796875 8.90625 59.796875 8.796875 59.5 
C 8.703125 59.296875 8.703125 59.09375 8.703125 57 
C 11.796875 57 17 57.59375 21 59.984375 
L 21 7.203125 
C 21 3.6875 20.796875 2.5 12.203125 2.5 
L 9.203125 2.5 
L 9.203125 0 
C 14 0 19 0 23.796875 0 
C 28.59375 0 33.59375 0 38.40625 0 
L 38.40625 2.5 
L 35.40625 2.5 
C 26.796875 2.5 26.59375 3.59375 26.59375 7.15625 
z
" id="CMR17-49"/>
       </defs>
       <use transform="scale(0.996264)" xlink:href="#CMR17-49"/>
       <use transform="translate(45.690477 0)scale(0.996264)" xlink:href="#CMR17-48"/>
      </g>
     </g>
    </g>
    <g id="xtick_3">
     <g id="line2d_3">
      <g>
       <use style="stroke:#000000;stroke-width:0.8;" x="242.029712" xlink:href="#m9f522d18b2" y="261.684426"/>
      </g>
     </g>
     <g id="text_3">
      <!-- $\mathdefault{20}$ -->
      <g transform="translate(234.225725 279.754014)scale(0.16 -0.16)">
       <defs>
        <path d="M 41.703125 15.453125 
L 39.90625 15.453125 
C 38.90625 8.375 38.09375 7.171875 37.703125 6.5625 
C 37.203125 5.765625 30 5.765625 28.59375 5.765625 
L 9.40625 5.765625 
C 13 9.671875 20 16.75 28.5 24.953125 
C 34.59375 30.734375 41.703125 37.53125 41.703125 47.421875 
C 41.703125 59.21875 32.296875 66 21.796875 66 
C 10.796875 66 4.09375 56.3125 4.09375 47.34375 
C 4.09375 43.4375 7 42.9375 8.203125 42.9375 
C 9.203125 42.9375 12.203125 43.546875 12.203125 47.03125 
C 12.203125 50.109375 9.59375 51 8.203125 51 
C 7.59375 51 7 50.90625 6.59375 50.703125 
C 8.5 59.21875 14.296875 63.40625 20.40625 63.40625 
C 29.09375 63.40625 34.796875 56.515625 34.796875 47.421875 
C 34.796875 38.734375 29.703125 31.25 24 24.75 
L 4.09375 2.28125 
L 4.09375 0 
L 39.296875 0 
z
" id="CMR17-50"/>
       </defs>
       <use transform="scale(0.996264)" xlink:href="#CMR17-50"/>
       <use transform="translate(45.690477 0)scale(0.996264)" xlink:href="#CMR17-48"/>
      </g>
     </g>
    </g>
    <g id="xtick_4">
     <g id="line2d_4">
      <g>
       <use style="stroke:#000000;stroke-width:0.8;" x="311.436935" xlink:href="#m9f522d18b2" y="261.684426"/>
      </g>
     </g>
     <g id="text_4">
      <!-- $\mathdefault{30}$ -->
      <g transform="translate(303.632948 279.754014)scale(0.16 -0.16)">
       <defs>
        <path d="M 22.09375 33.703125 
C 31 33.703125 34.90625 25.96875 34.90625 17.03125 
C 34.90625 5 28.5 0.390625 22.703125 0.390625 
C 17.40625 0.390625 8.796875 3.03125 6.09375 10.828125 
C 6.59375 10.625 7.09375 10.625 7.59375 10.625 
C 10 10.625 11.796875 12.21875 11.796875 14.8125 
C 11.796875 17.703125 9.59375 19 7.59375 19 
C 5.90625 19 3.296875 18.203125 3.296875 14.46875 
C 3.296875 5.234375 12.296875 -2 22.90625 -2 
C 34 -2 42.5 6.71875 42.5 16.953125 
C 42.5 26.671875 34.5 33.703125 25 34.796875 
C 32.59375 36.375 39.90625 43.0625 39.90625 52.015625 
C 39.90625 59.6875 32 65.296875 23 65.296875 
C 13.90625 65.296875 5.90625 59.828125 5.90625 52.015625 
C 5.90625 48.59375 8.5 48 9.796875 48 
C 11.90625 48 13.703125 49.296875 13.703125 51.890625 
C 13.703125 54.46875 11.90625 55.765625 9.796875 55.765625 
C 9.40625 55.765625 8.90625 55.765625 8.5 55.578125 
C 11.40625 61.859375 19.296875 63 22.796875 63 
C 26.296875 63 32.90625 61.328125 32.90625 51.875 
C 32.90625 49.109375 32.5 44.1875 29.09375 39.84375 
C 26.09375 36 22.703125 36 19.40625 35.6875 
C 18.90625 35.6875 16.59375 35.453125 16.203125 35.453125 
C 15.5 35.359375 15.09375 35.265625 15.09375 34.5 
C 15.09375 33.796875 15.203125 33.703125 17.203125 33.703125 
z
" id="CMR17-51"/>
       </defs>
       <use transform="scale(0.996264)" xlink:href="#CMR17-51"/>
       <use transform="translate(45.690477 0)scale(0.996264)" xlink:href="#CMR17-48"/>
      </g>
     </g>
    </g>
   </g>
   <g id="matplotlib.axis_2">
    <g id="ytick_1">
     <g id="line2d_5">
      <defs>
       <path d="M 0 0 
L -3.5 0 
" id="mf59d48d99e" style="stroke:#000000;stroke-width:0.8;"/>
      </defs>
      <g>
       <use style="stroke:#000000;stroke-width:0.8;" x="92.457146" xlink:href="#mf59d48d99e" y="252.697309"/>
      </g>
     </g>
     <g id="text_5">
      <!-- $\mathdefault{0.0}$ -->
      <g transform="translate(65.513623 258.232103)scale(0.16 -0.16)">
       <defs>
        <path d="M 18.40625 4.796875 
C 18.40625 7.6875 16 9.671875 13.59375 9.671875 
C 10.703125 9.671875 8.703125 7.28125 8.703125 4.890625 
C 8.703125 2 11.09375 0 13.5 0 
C 16.40625 0 18.40625 2.390625 18.40625 4.796875 
z
" id="CMMI12-58"/>
       </defs>
       <use transform="scale(0.996264)" xlink:href="#CMR17-48"/>
       <use transform="translate(45.690477 0)scale(0.996264)" xlink:href="#CMMI12-58"/>
       <use transform="translate(72.787654 0)scale(0.996264)" xlink:href="#CMR17-48"/>
      </g>
     </g>
    </g>
    <g id="ytick_2">
     <g id="line2d_6">
      <g>
       <use style="stroke:#000000;stroke-width:0.8;" x="92.457146" xlink:href="#mf59d48d99e" y="194.024952"/>
      </g>
     </g>
     <g id="text_6">
      <!-- $\mathdefault{0.5}$ -->
      <g transform="translate(65.513623 199.559746)scale(0.16 -0.16)">
       <defs>
        <path d="M 11.40625 57.6875 
C 12.40625 57.28125 16.5 56 20.703125 56 
C 30 56 35.09375 61.109375 38 64.0625 
C 38 64.953125 38 65.5 37.40625 65.5 
C 37.296875 65.5 37.09375 65.5 36.296875 65.046875 
C 32.796875 63.40625 28.703125 62.078125 23.703125 62.078125 
C 20.703125 62.078125 16.203125 62.484375 11.296875 64.671875 
C 10.203125 65.171875 10 65.171875 9.90625 65.171875 
C 9.40625 65.171875 9.296875 65.0625 9.296875 63.078125 
L 9.296875 34.421875 
C 9.296875 32.640625 9.296875 32.140625 10.296875 32.140625 
C 10.796875 32.140625 11 32.34375 11.5 33.03125 
C 14.703125 37.515625 19.09375 39.40625 24.09375 39.40625 
C 27.59375 39.40625 35.09375 37.21875 35.09375 20.140625 
C 35.09375 16.953125 35.09375 11.171875 32.09375 6.578125 
C 29.59375 2.484375 25.703125 0.390625 21.40625 0.390625 
C 14.796875 0.390625 8.09375 5 6.296875 12.71875 
C 6.703125 12.609375 7.5 12.421875 7.90625 12.421875 
C 9.203125 12.421875 11.703125 13.125 11.703125 16.21875 
C 11.703125 18.90625 9.796875 20 7.90625 20 
C 5.59375 20 4.09375 18.59375 4.09375 15.796875 
C 4.09375 7.09375 11 -2 21.59375 -2 
C 31.90625 -2 41.703125 6.875 41.703125 19.75 
C 41.703125 31.71875 33.90625 41 24.203125 41 
C 19.09375 41 14.796875 39.109375 11.40625 35.53125 
z
" id="CMR17-53"/>
       </defs>
       <use transform="scale(0.996264)" xlink:href="#CMR17-48"/>
       <use transform="translate(45.690477 0)scale(0.996264)" xlink:href="#CMMI12-58"/>
       <use transform="translate(72.787654 0)scale(0.996264)" xlink:href="#CMR17-53"/>
      </g>
     </g>
    </g>
    <g id="ytick_3">
     <g id="line2d_7">
      <g>
       <use style="stroke:#000000;stroke-width:0.8;" x="92.457146" xlink:href="#mf59d48d99e" y="135.352596"/>
      </g>
     </g>
     <g id="text_7">
      <!-- $\mathdefault{1.0}$ -->
      <g transform="translate(65.513623 140.88739)scale(0.16 -0.16)">
       <use transform="scale(0.996264)" xlink:href="#CMR17-49"/>
       <use transform="translate(45.690477 0)scale(0.996264)" xlink:href="#CMMI12-58"/>
       <use transform="translate(72.787654 0)scale(0.996264)" xlink:href="#CMR17-48"/>
      </g>
     </g>
    </g>
    <g id="ytick_4">
     <g id="line2d_8">
      <g>
       <use style="stroke:#000000;stroke-width:0.8;" x="92.457146" xlink:href="#mf59d48d99e" y="76.680239"/>
      </g>
     </g>
     <g id="text_8">
      <!-- $\mathdefault{1.5}$ -->
      <g transform="translate(65.513623 82.215033)scale(0.16 -0.16)">
       <use transform="scale(0.996264)" xlink:href="#CMR17-49"/>
       <use transform="translate(45.690477 0)scale(0.996264)" xlink:href="#CMMI12-58"/>
       <use transform="translate(72.787654 0)scale(0.996264)" xlink:href="#CMR17-53"/>
      </g>
     </g>
    </g>
    <g id="text_9">
     <!-- Real -->
     <g transform="translate(56.862866 184.258418)rotate(-90)scale(0.24 -0.24)">
      <defs>
       <path d="M 39.203125 33.53125 
C 48.703125 35.4375 56.703125 41.8125 56.703125 49.78125 
C 56.703125 59.140625 46.09375 67.59375 32.09375 67.59375 
L 5.203125 67.59375 
L 5.203125 65 
C 12.09375 65 13.203125 65 13.203125 60.515625 
L 13.203125 6.484375 
C 13.203125 2 12.09375 2 5.203125 2 
L 5.203125 -0.40625 
C 8.09375 -0.40625 13.296875 -0.40625 16.40625 -0.40625 
C 19.5 -0.40625 24.703125 -0.40625 27.59375 -0.40625 
L 27.59375 2 
C 20.703125 2 19.59375 2 19.59375 6.515625 
L 19.59375 33 
L 31.296875 33 
C 37 33 40.203125 30.6875 41.59375 29.390625 
C 45.59375 25.5 45.59375 22.796875 45.59375 16 
C 45.59375 9.296875 45.59375 5.890625 48.59375 2.5 
C 52.40625 -1.59375 57.5 -2 59.703125 -2 
C 67.09375 -2 68.203125 6.1875 68.203125 7.859375 
C 68.203125 8.4375 68.203125 9.140625 67.296875 9.140625 
C 66.5 9.140625 66.40625 8.546875 66.40625 8.15625 
C 65.90625 1.75 63 -0.40625 59.90625 -0.40625 
C 54.40625 -0.40625 53.796875 5.859375 53.203125 11.9375 
C 52.90625 14.03125 52.703125 15.515625 52.5 17.703125 
C 51.90625 22.6875 51.09375 29.953125 39.203125 33.53125 
z
M 31 34.59375 
L 19.59375 34.59375 
L 19.59375 61.140625 
C 19.59375 64.515625 19.796875 65 23.796875 65 
L 31.09375 65 
C 39.40625 65 49.09375 62.140625 49.09375 49.84375 
C 49.09375 37.0625 38.5 34.59375 31 34.59375 
z
" id="CMR17-82"/>
       <path d="M 38.09375 23 
C 38.5 23.40625 38.5 23.609375 38.5 24.625 
C 38.5 34.96875 33.09375 44 21.703125 44 
C 11.09375 44 2.703125 33.890625 2.703125 21.609375 
C 2.703125 8.609375 12.203125 -1 22.796875 -1 
C 34 -1 38.40625 9.484375 38.40625 11.5625 
C 38.40625 12.25 37.796875 12.25 37.59375 12.25 
C 36.90625 12.25 36.796875 12.046875 36.40625 10.875 
C 34.203125 4.140625 28.703125 0.796875 23.5 0.796875 
C 19.203125 0.796875 14.90625 3.171875 12.203125 7.5 
C 9.09375 12.546875 9.09375 18.375 9.09375 23 
z
M 9.203125 24.5 
C 9.90625 39.140625 17.59375 42.40625 21.59375 42.40625 
C 28.40625 42.40625 33 35.890625 33.09375 24.5 
z
" id="CMR17-101"/>
       <path d="M 36 25.828125 
C 36 32.375 36 35.84375 31.796875 39.734375 
C 28.09375 43 23.796875 44 20.40625 44 
C 12.5 44 6.796875 37.609375 6.796875 30.796875 
C 6.796875 27 9.796875 27 10.40625 27 
C 11.703125 27 14 27.78125 14 30.53125 
C 14 33 12.09375 34.078125 10.40625 34.078125 
C 10 34.078125 9.5 33.96875 9.203125 33.875 
C 11.296875 40.5 16.703125 42.40625 20.203125 42.40625 
C 25.203125 42.40625 30.703125 37.953125 30.703125 29.453125 
L 30.703125 25 
C 24.796875 25 17.703125 24.203125 12.09375 21.203125 
C 5.796875 17.703125 4 12.703125 4 8.90625 
C 4 1.203125 13 -1 18.296875 -1 
C 23.796875 -1 28.90625 2.171875 31.09375 7.984375 
C 31.296875 3.640625 34.09375 -0.28125 38.5 -0.28125 
C 40.59375 -0.28125 45.90625 1.09375 45.90625 8.859375 
L 45.90625 14.375 
L 44.09375 14.375 
L 44.09375 8.78125 
C 44.09375 2.78125 41.40625 2 40.09375 2 
C 36 2 36 7.15625 36 11.53125 
z
M 30.703125 13.59375 
C 30.703125 4.953125 24.5 0.59375 19 0.59375 
C 14 0.59375 10.09375 4.296875 10.09375 8.90625 
C 10.09375 11.890625 11.40625 17.1875 17.203125 20.390625 
C 22 23.09375 27.5 23.5 30.703125 23.5 
z
" id="CMR17-97"/>
       <path d="M 15.296875 68.6875 
L 3.40625 67.59375 
L 3.40625 65 
C 9.296875 65 10.203125 64.40625 10.203125 59.640625 
L 10.203125 6.65625 
C 10.203125 2.875 9.796875 2.390625 3.40625 2.390625 
L 3.40625 -0.203125 
C 5.796875 0 10.203125 0 12.703125 0 
C 15.296875 0 19.703125 0 22.09375 -0.203125 
L 22.09375 2.390625 
C 15.703125 2.390625 15.296875 2.78125 15.296875 6.65625 
z
" id="CMR17-108"/>
      </defs>
      <use transform="scale(0.996264)" xlink:href="#CMR17-82"/>
      <use transform="translate(67.791102 0)scale(0.996264)" xlink:href="#CMR17-101"/>
      <use transform="translate(108.276762 0)scale(0.996264)" xlink:href="#CMR17-97"/>
      <use transform="translate(153.96724 0)scale(0.996264)" xlink:href="#CMR17-108"/>
     </g>
    </g>
   </g>
   <g id="LineCollection_1">
    <path clip-path="url(#p6d3520bf0a)" d="M 103.215265 73.268476 
L 103.215265 72.900917 
" style="fill:none;stroke:#ff0000;stroke-width:2;"/>
    <path clip-path="url(#p6d3520bf0a)" d="M 110.155988 237.177707 
L 110.155988 237.096748 
" style="fill:none;stroke:#ff0000;stroke-width:2;"/>
    <path clip-path="url(#p6d3520bf0a)" d="M 117.09671 249.69224 
L 117.09671 249.662064 
" style="fill:none;stroke:#ff0000;stroke-width:2;"/>
    <path clip-path="url(#p6d3520bf0a)" d="M 124.037432 251.836564 
L 124.037432 251.824407 
" style="fill:none;stroke:#ff0000;stroke-width:2;"/>
    <path clip-path="url(#p6d3520bf0a)" d="M 130.978155 252.357074 
L 130.978155 252.349019 
" style="fill:none;stroke:#ff0000;stroke-width:2;"/>
    <path clip-path="url(#p6d3520bf0a)" d="M 137.918877 252.531347 
L 137.918877 252.52631 
" style="fill:none;stroke:#ff0000;stroke-width:2;"/>
    <path clip-path="url(#p6d3520bf0a)" d="M 144.859599 252.60541 
L 144.859599 252.601792 
" style="fill:none;stroke:#ff0000;stroke-width:2;"/>
    <path clip-path="url(#p6d3520bf0a)" d="M 151.800322 252.642656 
L 151.800322 252.640002 
" style="fill:none;stroke:#ff0000;stroke-width:2;"/>
    <path clip-path="url(#p6d3520bf0a)" d="M 158.741044 252.663323 
L 158.741044 252.66134 
" style="fill:none;stroke:#ff0000;stroke-width:2;"/>
    <path clip-path="url(#p6d3520bf0a)" d="M 165.681766 252.675731 
L 165.681766 252.674377 
" style="fill:none;stroke:#ff0000;stroke-width:2;"/>
    <path clip-path="url(#p6d3520bf0a)" d="M 172.622489 252.683302 
L 172.622489 252.682287 
" style="fill:none;stroke:#ff0000;stroke-width:2;"/>
    <path clip-path="url(#p6d3520bf0a)" d="M 179.563211 252.68804 
L 179.563211 252.687354 
" style="fill:none;stroke:#ff0000;stroke-width:2;"/>
    <path clip-path="url(#p6d3520bf0a)" d="M 186.503933 252.691003 
L 186.503933 252.690516 
" style="fill:none;stroke:#ff0000;stroke-width:2;"/>
    <path clip-path="url(#p6d3520bf0a)" d="M 193.444656 252.692875 
L 193.444656 252.692568 
" style="fill:none;stroke:#ff0000;stroke-width:2;"/>
    <path clip-path="url(#p6d3520bf0a)" d="M 200.385378 252.693985 
L 200.385378 252.693765 
" style="fill:none;stroke:#ff0000;stroke-width:2;"/>
    <path clip-path="url(#p6d3520bf0a)" d="M 207.3261 252.694564 
L 207.3261 252.694371 
" style="fill:none;stroke:#ff0000;stroke-width:2;"/>
    <path clip-path="url(#p6d3520bf0a)" d="M 214.266823 252.694735 
L 214.266823 252.694516 
" style="fill:none;stroke:#ff0000;stroke-width:2;"/>
    <path clip-path="url(#p6d3520bf0a)" d="M 221.207545 252.694484 
L 221.207545 252.694213 
" style="fill:none;stroke:#ff0000;stroke-width:2;"/>
    <path clip-path="url(#p6d3520bf0a)" d="M 228.148267 252.693812 
L 228.148267 252.693428 
" style="fill:none;stroke:#ff0000;stroke-width:2;"/>
    <path clip-path="url(#p6d3520bf0a)" d="M 235.08899 252.692606 
L 235.08899 252.692117 
" style="fill:none;stroke:#ff0000;stroke-width:2;"/>
    <path clip-path="url(#p6d3520bf0a)" d="M 242.029712 252.690595 
L 242.029712 252.689883 
" style="fill:none;stroke:#ff0000;stroke-width:2;"/>
    <path clip-path="url(#p6d3520bf0a)" d="M 248.970434 252.687327 
L 248.970434 252.686524 
" style="fill:none;stroke:#ff0000;stroke-width:2;"/>
    <path clip-path="url(#p6d3520bf0a)" d="M 255.911157 252.682213 
L 255.911157 252.681125 
" style="fill:none;stroke:#ff0000;stroke-width:2;"/>
    <path clip-path="url(#p6d3520bf0a)" d="M 262.851879 252.6738 
L 262.851879 252.672344 
" style="fill:none;stroke:#ff0000;stroke-width:2;"/>
    <path clip-path="url(#p6d3520bf0a)" d="M 269.792601 252.660587 
L 269.792601 252.658572 
" style="fill:none;stroke:#ff0000;stroke-width:2;"/>
    <path clip-path="url(#p6d3520bf0a)" d="M 276.733324 252.638642 
L 276.733324 252.636071 
" style="fill:none;stroke:#ff0000;stroke-width:2;"/>
    <path clip-path="url(#p6d3520bf0a)" d="M 283.674046 252.599811 
L 283.674046 252.59633 
" style="fill:none;stroke:#ff0000;stroke-width:2;"/>
    <path clip-path="url(#p6d3520bf0a)" d="M 290.614768 252.524712 
L 290.614768 252.519773 
" style="fill:none;stroke:#ff0000;stroke-width:2;"/>
    <path clip-path="url(#p6d3520bf0a)" d="M 297.555491 252.349515 
L 297.555491 252.343113 
" style="fill:none;stroke:#ff0000;stroke-width:2;"/>
    <path clip-path="url(#p6d3520bf0a)" d="M 304.496213 251.830051 
L 304.496213 251.817701 
" style="fill:none;stroke:#ff0000;stroke-width:2;"/>
    <path clip-path="url(#p6d3520bf0a)" d="M 311.436935 249.681917 
L 311.436935 249.650006 
" style="fill:none;stroke:#ff0000;stroke-width:2;"/>
    <path clip-path="url(#p6d3520bf0a)" d="M 318.377658 237.133145 
L 318.377658 237.047549 
" style="fill:none;stroke:#ff0000;stroke-width:2;"/>
   </g>
   <g id="line2d_9">
    <path clip-path="url(#p6d3520bf0a)" d="M 103.215265 73.084696 
L 110.155988 237.137227 
L 117.09671 249.677152 
L 124.037432 251.830486 
L 130.978155 252.353047 
L 137.918877 252.528829 
L 144.859599 252.603601 
L 151.800322 252.641329 
L 158.741044 252.662331 
L 165.681766 252.675054 
L 172.622489 252.682795 
L 179.563211 252.687697 
L 186.503933 252.690759 
L 193.444656 252.692721 
L 200.385378 252.693875 
L 207.3261 252.694468 
L 214.266823 252.694625 
L 221.207545 252.694348 
L 228.148267 252.69362 
L 235.08899 252.692361 
L 242.029712 252.690239 
L 248.970434 252.686926 
L 255.911157 252.681669 
L 262.851879 252.673072 
L 269.792601 252.65958 
L 276.733324 252.637357 
L 283.674046 252.59807 
L 290.614768 252.522243 
L 297.555491 252.346314 
L 304.496213 251.823876 
L 311.436935 249.665962 
L 318.377658 237.090347 
" style="fill:none;stroke:#000000;stroke-linecap:square;stroke-width:2;"/>
   </g>
   <g id="patch_3">
    <path d="M 92.457146 261.684426 
L 92.457146 63.911226 
" style="fill:none;stroke:#000000;stroke-linecap:square;stroke-linejoin:miter;stroke-width:0.8;"/>
   </g>
   <g id="patch_4">
    <path d="M 329.135777 261.684426 
L 329.135777 63.911226 
" style="fill:none;stroke:#000000;stroke-linecap:square;stroke-linejoin:miter;stroke-width:0.8;"/>
   </g>
   <g id="patch_5">
    <path d="M 92.457146 261.684426 
L 329.135777 261.684426 
" style="fill:none;stroke:#000000;stroke-linecap:square;stroke-linejoin:miter;stroke-width:0.8;"/>
   </g>
   <g id="patch_6">
    <path d="M 92.457146 63.911226 
L 329.135777 63.911226 
" style="fill:none;stroke:#000000;stroke-linecap:square;stroke-linejoin:miter;stroke-width:0.8;"/>
   </g>
   <g id="text_10">
    <!-- $C(t)$ -->
    <g transform="translate(188.868308 57.911226)scale(0.24 -0.24)">
     <defs>
      <path d="M 74.703125 69.109375 
C 74.703125 70 74 70 73.796875 70 
C 73.59375 70 73.203125 70 72.40625 69 
L 65.5 60.65625 
C 62 66.625 56.5 70 49 70 
C 27.40625 70 5 48.25 5 24.921875 
C 5 8.328125 16.703125 -2 31.296875 -2 
C 39.296875 -2 46.296875 1.375 52.09375 6.25 
C 60.796875 13.484375 63.40625 23.140625 63.40625 23.921875 
C 63.40625 24.8125 62.59375 24.8125 62.296875 24.8125 
C 61.40625 24.8125 61.296875 24.21875 61.09375 23.8125 
C 56.5 8.34375 43 0.890625 33 0.890625 
C 22.40625 0.890625 13.203125 7.640625 13.203125 21.734375 
C 13.203125 24.921875 14.203125 42.1875 25.5 55.1875 
C 31 61.546875 40.40625 67.109375 49.90625 67.109375 
C 60.90625 67.109375 65.796875 58.078125 65.796875 47.9375 
C 65.796875 45.359375 65.5 43.1875 65.5 42.78125 
C 65.5 41.890625 66.5 41.890625 66.796875 41.890625 
C 67.90625 41.890625 68 41.984375 68.40625 43.765625 
z
" id="CMMI12-67"/>
      <path d="M 30.59375 -24.390625 
C 30.59375 -24.296875 30.59375 -24.09375 30.296875 -23.796875 
C 25.703125 -19.125 13.40625 -6.359375 13.40625 24.703125 
C 13.40625 55.765625 25.5 68.421875 30.40625 73.390625 
C 30.40625 73.5 30.59375 73.703125 30.59375 74 
C 30.59375 74.296875 30.296875 74.5 29.90625 74.5 
C 28.796875 74.5 20.296875 67.125 15.40625 56.15625 
C 10.40625 45.109375 9 34.359375 9 24.8125 
C 9 17.625 9.703125 5.484375 15.703125 -7.359375 
C 20.5 -17.734375 28.703125 -25 29.90625 -25 
C 30.40625 -25 30.59375 -24.796875 30.59375 -24.390625 
z
" id="CMR17-40"/>
      <path d="M 20.09375 40.09375 
L 29.296875 40.09375 
C 31.203125 40.09375 32.203125 40.09375 32.203125 41.890625 
C 32.203125 43 31.59375 43 29.59375 43 
L 20.796875 43 
L 24.5 57.6875 
C 24.90625 59.078125 24.90625 59.28125 24.90625 60 
C 24.90625 61.609375 23.59375 62.5 22.296875 62.5 
C 21.5 62.5 19.203125 62.203125 18.40625 58.984375 
L 14.5 43 
L 5.09375 43 
C 3.09375 43 2.203125 43 2.203125 41.09375 
C 2.203125 40.09375 2.90625 40.09375 4.796875 40.09375 
L 13.703125 40.09375 
L 7.09375 13.765625 
C 6.296875 10.28125 6 9.28125 6 7.984375 
C 6 3.296875 9.296875 -1 14.90625 -1 
C 25 -1 30.40625 13.5625 30.40625 14.25 
C 30.40625 14.859375 30 15.15625 29.40625 15.15625 
C 29.203125 15.15625 28.796875 15.15625 28.59375 14.75 
C 28.5 14.65625 28.40625 14.546875 27.703125 12.953125 
C 25.59375 7.984375 21 1 15.203125 1 
C 12.203125 1 12 3.5 12 5.6875 
C 12 5.78125 12 7.6875 12.296875 8.875 
z
" id="CMMI12-116"/>
      <path d="M 26.296875 24.703125 
C 26.296875 31.875 25.59375 44.015625 19.59375 56.859375 
C 14.796875 67.234375 6.59375 74.5 5.40625 74.5 
C 5.09375 74.5 4.703125 74.390625 4.703125 73.890625 
C 4.703125 73.703125 4.796875 73.59375 4.90625 73.390625 
C 9.703125 68.40625 21.90625 55.75 21.90625 24.75 
C 21.90625 -6.359375 9.796875 -19.015625 4.90625 -24.015625 
C 4.796875 -24.203125 4.703125 -24.3125 4.703125 -24.5 
C 4.703125 -25 5.09375 -25 5.40625 -25 
C 6.5 -25 15 -17.625 19.90625 -6.65625 
C 24.90625 4.390625 26.296875 15.140625 26.296875 24.703125 
z
" id="CMR17-41"/>
     </defs>
     <use transform="scale(0.996264)" xlink:href="#CMMI12-67"/>
     <use transform="translate(76.946847 0)scale(0.996264)" xlink:href="#CMR17-40"/>
     <use transform="translate(112.227614 0)scale(0.996264)" xlink:href="#CMMI12-116"/>
     <use transform="translate(147.453945 0)scale(0.996264)" xlink:href="#CMR17-41"/>
    </g>
   </g>
  </g>
  <g id="axes_2">
   <g id="patch_7">
    <path d="M 411.889257 261.684426 
L 648.567889 261.684426 
L 648.567889 63.911226 
L 411.889257 63.911226 
z
" style="fill:#ffffff;"/>
   </g>
   <g id="matplotlib.axis_3">
    <g id="xtick_5">
     <g id="line2d_10">
      <g>
       <use style="stroke:#000000;stroke-width:0.8;" x="422.647376" xlink:href="#m9f522d18b2" y="261.684426"/>
      </g>
     </g>
     <g id="text_11">
      <!-- $\mathdefault{0}$ -->
      <g transform="translate(418.745383 279.754014)scale(0.16 -0.16)">
       <use transform="scale(0.996264)" xlink:href="#CMR17-48"/>
      </g>
     </g>
    </g>
    <g id="xtick_6">
     <g id="line2d_11">
      <g>
       <use style="stroke:#000000;stroke-width:0.8;" x="489.885624" xlink:href="#m9f522d18b2" y="261.684426"/>
      </g>
     </g>
     <g id="text_12">
      <!-- $\mathdefault{5}$ -->
      <g transform="translate(485.983631 279.754014)scale(0.16 -0.16)">
       <use transform="scale(0.996264)" xlink:href="#CMR17-53"/>
      </g>
     </g>
    </g>
    <g id="xtick_7">
     <g id="line2d_12">
      <g>
       <use style="stroke:#000000;stroke-width:0.8;" x="557.123872" xlink:href="#m9f522d18b2" y="261.684426"/>
      </g>
     </g>
     <g id="text_13">
      <!-- $\mathdefault{10}$ -->
      <g transform="translate(549.319885 279.754014)scale(0.16 -0.16)">
       <use transform="scale(0.996264)" xlink:href="#CMR17-49"/>
       <use transform="translate(45.690477 0)scale(0.996264)" xlink:href="#CMR17-48"/>
      </g>
     </g>
    </g>
    <g id="xtick_8">
     <g id="line2d_13">
      <g>
       <use style="stroke:#000000;stroke-width:0.8;" x="624.36212" xlink:href="#m9f522d18b2" y="261.684426"/>
      </g>
     </g>
     <g id="text_14">
      <!-- $\mathdefault{15}$ -->
      <g transform="translate(616.558133 279.754014)scale(0.16 -0.16)">
       <use transform="scale(0.996264)" xlink:href="#CMR17-49"/>
       <use transform="translate(45.690477 0)scale(0.996264)" xlink:href="#CMR17-53"/>
      </g>
     </g>
    </g>
   </g>
   <g id="matplotlib.axis_4">
    <g id="ytick_5">
     <g id="line2d_14">
      <g>
       <use style="stroke:#000000;stroke-width:0.8;" x="411.889257" xlink:href="#mf59d48d99e" y="252.697309"/>
      </g>
     </g>
     <g id="text_15">
      <!-- $\mathdefault{0.0}$ -->
      <g transform="translate(384.945735 258.232103)scale(0.16 -0.16)">
       <use transform="scale(0.996264)" xlink:href="#CMR17-48"/>
       <use transform="translate(45.690477 0)scale(0.996264)" xlink:href="#CMMI12-58"/>
       <use transform="translate(72.787654 0)scale(0.996264)" xlink:href="#CMR17-48"/>
      </g>
     </g>
    </g>
    <g id="ytick_6">
     <g id="line2d_15">
      <g>
       <use style="stroke:#000000;stroke-width:0.8;" x="411.889257" xlink:href="#mf59d48d99e" y="194.024952"/>
      </g>
     </g>
     <g id="text_16">
      <!-- $\mathdefault{0.5}$ -->
      <g transform="translate(384.945735 199.559746)scale(0.16 -0.16)">
       <use transform="scale(0.996264)" xlink:href="#CMR17-48"/>
       <use transform="translate(45.690477 0)scale(0.996264)" xlink:href="#CMMI12-58"/>
       <use transform="translate(72.787654 0)scale(0.996264)" xlink:href="#CMR17-53"/>
      </g>
     </g>
    </g>
    <g id="ytick_7">
     <g id="line2d_16">
      <g>
       <use style="stroke:#000000;stroke-width:0.8;" x="411.889257" xlink:href="#mf59d48d99e" y="135.352596"/>
      </g>
     </g>
     <g id="text_17">
      <!-- $\mathdefault{1.0}$ -->
      <g transform="translate(384.945735 140.88739)scale(0.16 -0.16)">
       <use transform="scale(0.996264)" xlink:href="#CMR17-49"/>
       <use transform="translate(45.690477 0)scale(0.996264)" xlink:href="#CMMI12-58"/>
       <use transform="translate(72.787654 0)scale(0.996264)" xlink:href="#CMR17-48"/>
      </g>
     </g>
    </g>
    <g id="ytick_8">
     <g id="line2d_17">
      <g>
       <use style="stroke:#000000;stroke-width:0.8;" x="411.889257" xlink:href="#mf59d48d99e" y="76.680239"/>
      </g>
     </g>
     <g id="text_18">
      <!-- $\mathdefault{1.5}$ -->
      <g transform="translate(384.945735 82.215033)scale(0.16 -0.16)">
       <use transform="scale(0.996264)" xlink:href="#CMR17-49"/>
       <use transform="translate(45.690477 0)scale(0.996264)" xlink:href="#CMMI12-58"/>
       <use transform="translate(72.787654 0)scale(0.996264)" xlink:href="#CMR17-53"/>
      </g>
     </g>
    </g>
   </g>
   <g id="LineCollection_2">
    <path clip-path="url(#p808327ac2a)" d="M 422.647376 73.268476 
L 422.647376 72.900917 
" style="fill:none;stroke:#ff0000;stroke-width:2;"/>
    <path clip-path="url(#p808327ac2a)" d="M 436.095026 237.143266 
L 436.095026 237.084309 
" style="fill:none;stroke:#ff0000;stroke-width:2;"/>
    <path clip-path="url(#p808327ac2a)" d="M 449.542676 249.681875 
L 449.542676 249.661238 
" style="fill:none;stroke:#ff0000;stroke-width:2;"/>
    <path clip-path="url(#p808327ac2a)" d="M 462.990325 251.831485 
L 462.990325 251.822877 
" style="fill:none;stroke:#ff0000;stroke-width:2;"/>
    <path clip-path="url(#p808327ac2a)" d="M 476.437975 252.352318 
L 476.437975 252.347043 
" style="fill:none;stroke:#ff0000;stroke-width:2;"/>
    <path clip-path="url(#p808327ac2a)" d="M 489.885624 252.527388 
L 489.885624 252.523684 
" style="fill:none;stroke:#ff0000;stroke-width:2;"/>
    <path clip-path="url(#p808327ac2a)" d="M 503.333274 252.602127 
L 503.333274 252.599543 
" style="fill:none;stroke:#ff0000;stroke-width:2;"/>
    <path clip-path="url(#p808327ac2a)" d="M 516.780923 252.640293 
L 516.780923 252.638393 
" style="fill:none;stroke:#ff0000;stroke-width:2;"/>
    <path clip-path="url(#p808327ac2a)" d="M 530.228573 252.661684 
L 530.228573 252.660227 
" style="fill:none;stroke:#ff0000;stroke-width:2;"/>
    <path clip-path="url(#p808327ac2a)" d="M 543.676222 252.674602 
L 543.676222 252.673524 
" style="fill:none;stroke:#ff0000;stroke-width:2;"/>
    <path clip-path="url(#p808327ac2a)" d="M 557.123872 252.682589 
L 557.123872 252.681874 
" style="fill:none;stroke:#ff0000;stroke-width:2;"/>
    <path clip-path="url(#p808327ac2a)" d="M 570.571521 252.687581 
L 570.571521 252.687042 
" style="fill:none;stroke:#ff0000;stroke-width:2;"/>
    <path clip-path="url(#p808327ac2a)" d="M 584.019171 252.690717 
L 584.019171 252.690281 
" style="fill:none;stroke:#ff0000;stroke-width:2;"/>
    <path clip-path="url(#p808327ac2a)" d="M 597.46682 252.692685 
L 597.46682 252.692398 
" style="fill:none;stroke:#ff0000;stroke-width:2;"/>
    <path clip-path="url(#p808327ac2a)" d="M 610.91447 252.693855 
L 610.91447 252.69364 
" style="fill:none;stroke:#ff0000;stroke-width:2;"/>
    <path clip-path="url(#p808327ac2a)" d="M 624.36212 252.694492 
L 624.36212 252.694324 
" style="fill:none;stroke:#ff0000;stroke-width:2;"/>
    <path clip-path="url(#p808327ac2a)" d="M 637.809769 252.694735 
L 637.809769 252.694516 
" style="fill:none;stroke:#ff0000;stroke-width:2;"/>
   </g>
   <g id="line2d_18">
    <path clip-path="url(#p808327ac2a)" d="M 422.647376 73.084696 
L 436.095026 237.113787 
L 449.542676 249.671557 
L 462.990325 251.827181 
L 476.437975 252.34968 
L 489.885624 252.525536 
L 503.333274 252.600835 
L 516.780923 252.639343 
L 530.228573 252.660955 
L 543.676222 252.674063 
L 557.123872 252.682232 
L 570.571521 252.687311 
L 584.019171 252.690499 
L 597.46682 252.692541 
L 610.91447 252.693748 
L 624.36212 252.694408 
L 637.809769 252.694625 
" style="fill:none;stroke:#000000;stroke-linecap:square;stroke-width:2;"/>
   </g>
   <g id="patch_8">
    <path d="M 411.889257 261.684426 
L 411.889257 63.911226 
" style="fill:none;stroke:#000000;stroke-linecap:square;stroke-linejoin:miter;stroke-width:0.8;"/>
   </g>
   <g id="patch_9">
    <path d="M 648.567889 261.684426 
L 648.567889 63.911226 
" style="fill:none;stroke:#000000;stroke-linecap:square;stroke-linejoin:miter;stroke-width:0.8;"/>
   </g>
   <g id="patch_10">
    <path d="M 411.889257 261.684426 
L 648.567889 261.684426 
" style="fill:none;stroke:#000000;stroke-linecap:square;stroke-linejoin:miter;stroke-width:0.8;"/>
   </g>
   <g id="patch_11">
    <path d="M 411.889257 63.911226 
L 648.567889 63.911226 
" style="fill:none;stroke:#000000;stroke-linecap:square;stroke-linejoin:miter;stroke-width:0.8;"/>
   </g>
   <g id="text_19">
    <!-- Folded $C(t)$ -->
    <g transform="translate(472.889563 57.911226)scale(0.24 -0.24)">
     <defs>
      <path d="M 54.40625 67.578125 
L 5.09375 67.578125 
L 5.09375 65 
C 12 65 13.09375 65 13.09375 60.53125 
L 13.09375 6.96875 
C 13.09375 2.5 12 2.5 5.09375 2.5 
L 5.09375 0 
C 8 0 13.59375 0 16.703125 0 
C 20.796875 0 25.59375 0 29.703125 0 
L 29.703125 2.5 
L 27.5 2.5 
C 19.90625 2.5 19.703125 3.484375 19.703125 7.0625 
L 19.703125 32.421875 
L 28.703125 32.421875 
C 38 32.421875 38.90625 29.140625 38.90625 20.8125 
L 40.703125 20.8125 
L 40.703125 46.671875 
L 38.90625 46.671875 
C 38.90625 38.28125 38 35 28.703125 35 
L 19.703125 35 
L 19.703125 61.109375 
C 19.703125 64.5 19.90625 65 23.90625 65 
L 36.796875 65 
C 51.90625 65 53.59375 58.828125 55 45.5625 
L 56.796875 45.5625 
z
" id="CMR17-70"/>
      <path d="M 43.09375 21.1875 
C 43.09375 34 33.796875 44 22.90625 44 
C 12 44 2.703125 34 2.703125 21.1875 
C 2.703125 8.609375 12 -1 22.90625 -1 
C 33.796875 -1 43.09375 8.609375 43.09375 21.1875 
z
M 22.90625 0.796875 
C 18.203125 0.796875 14.203125 3.59375 11.90625 7.5 
C 9.40625 11.984375 9.09375 17.59375 9.09375 22 
C 9.09375 26.203125 9.296875 31.40625 11.90625 35.90625 
C 13.90625 39.203125 17.796875 42.40625 22.90625 42.40625 
C 27.40625 42.40625 31.203125 39.90625 33.59375 36.40625 
C 36.703125 31.703125 36.703125 25.109375 36.703125 22 
C 36.703125 18.09375 36.5 12.109375 33.796875 7.296875 
C 31 2.703125 26.703125 0.796875 22.90625 0.796875 
z
" id="CMR17-111"/>
      <path d="M 29.203125 67.59375 
L 29.203125 65 
C 35.09375 65 36 64.40625 36 59.6875 
L 36 36.640625 
C 35.59375 37.140625 31.5 43.59375 23.40625 43.59375 
C 13.203125 43.59375 3.296875 34.5 3.296875 21.3125 
C 3.296875 8.203125 12.59375 -1 22.40625 -1 
C 30.90625 -1 35.296875 5.265625 35.796875 5.9375 
L 35.796875 -0.984375 
L 47.90625 -0.984375 
L 47.90625 2 
C 42 2 41.09375 2.59375 41.09375 7.390625 
L 41.09375 68.6875 
z
M 35.796875 11.796875 
C 35.796875 8.796875 34 6.09375 31.703125 4.09375 
C 28.296875 1.09375 24.90625 0.59375 23 0.59375 
C 20.09375 0.59375 9.703125 2.09375 9.703125 21.1875 
C 9.703125 40.8125 21.296875 42 23.90625 42 
C 28.5 42 32.203125 39.40625 34.5 35.796875 
C 35.796875 33.703125 35.796875 33.40625 35.796875 31.609375 
z
" id="CMR17-100"/>
     </defs>
     <use transform="scale(0.996264)" xlink:href="#CMR17-70"/>
     <use transform="translate(52.176591 0)scale(0.996264)" xlink:href="#CMR17-111"/>
     <use transform="translate(97.867068 0)scale(0.996264)" xlink:href="#CMR17-108"/>
     <use transform="translate(122.738127 0)scale(0.996264)" xlink:href="#CMR17-100"/>
     <use transform="translate(173.633497 0)scale(0.996264)" xlink:href="#CMR17-101"/>
     <use transform="translate(214.119157 0)scale(0.996264)" xlink:href="#CMR17-100"/>
     <use transform="translate(295.090493 0)scale(0.996264)" xlink:href="#CMMI12-67"/>
     <use transform="translate(372.03734 0)scale(0.996264)" xlink:href="#CMR17-40"/>
     <use transform="translate(407.318108 0)scale(0.996264)" xlink:href="#CMMI12-116"/>
     <use transform="translate(442.544438 0)scale(0.996264)" xlink:href="#CMR17-41"/>
    </g>
   </g>
  </g>
  <g id="axes_3">
   <g id="patch_12">
    <path d="M 731.321368 261.684426 
L 968 261.684426 
L 968 63.911226 
L 731.321368 63.911226 
z
" style="fill:#ffffff;"/>
   </g>
   <g id="matplotlib.axis_5">
    <g id="xtick_9">
     <g id="line2d_19">
      <g>
       <use style="stroke:#000000;stroke-width:0.8;" x="742.079488" xlink:href="#m9f522d18b2" y="261.684426"/>
      </g>
     </g>
     <g id="text_20">
      <!-- $\mathdefault{0}$ -->
      <g transform="translate(738.177494 279.754014)scale(0.16 -0.16)">
       <use transform="scale(0.996264)" xlink:href="#CMR17-48"/>
      </g>
     </g>
    </g>
    <g id="xtick_10">
     <g id="line2d_20">
      <g>
       <use style="stroke:#000000;stroke-width:0.8;" x="809.317735" xlink:href="#m9f522d18b2" y="261.684426"/>
      </g>
     </g>
     <g id="text_21">
      <!-- $\mathdefault{5}$ -->
      <g transform="translate(805.415742 279.754014)scale(0.16 -0.16)">
       <use transform="scale(0.996264)" xlink:href="#CMR17-53"/>
      </g>
     </g>
    </g>
    <g id="xtick_11">
     <g id="line2d_21">
      <g>
       <use style="stroke:#000000;stroke-width:0.8;" x="876.555983" xlink:href="#m9f522d18b2" y="261.684426"/>
      </g>
     </g>
     <g id="text_22">
      <!-- $\mathdefault{10}$ -->
      <g transform="translate(868.751996 279.754014)scale(0.16 -0.16)">
       <use transform="scale(0.996264)" xlink:href="#CMR17-49"/>
       <use transform="translate(45.690477 0)scale(0.996264)" xlink:href="#CMR17-48"/>
      </g>
     </g>
    </g>
    <g id="xtick_12">
     <g id="line2d_22">
      <g>
       <use style="stroke:#000000;stroke-width:0.8;" x="943.794231" xlink:href="#m9f522d18b2" y="261.684426"/>
      </g>
     </g>
     <g id="text_23">
      <!-- $\mathdefault{15}$ -->
      <g transform="translate(935.990244 279.754014)scale(0.16 -0.16)">
       <use transform="scale(0.996264)" xlink:href="#CMR17-49"/>
       <use transform="translate(45.690477 0)scale(0.996264)" xlink:href="#CMR17-53"/>
      </g>
     </g>
    </g>
   </g>
   <g id="matplotlib.axis_6">
    <g id="ytick_9">
     <g id="line2d_23">
      <g>
       <use style="stroke:#000000;stroke-width:0.8;" x="731.321368" xlink:href="#mf59d48d99e" y="234.579877"/>
      </g>
     </g>
     <g id="text_24">
      <!-- $\mathdefault{−0.0004}$ -->
      <g transform="translate(668.567889 240.114671)scale(0.16 -0.16)">
       <defs>
        <path d="M 65.90625 23 
C 67.59375 23 69.40625 23 69.40625 25 
C 69.40625 27 67.59375 27 65.90625 27 
L 11.796875 27 
C 10.09375 27 8.296875 27 8.296875 25 
C 8.296875 23 10.09375 23 11.796875 23 
z
" id="CMSY10-0"/>
        <path d="M 33.59375 64.40625 
C 33.59375 66.5 33.5 66.5 31.703125 66.5 
L 2 19.59375 
L 2 17 
L 27.796875 17 
L 27.796875 7.140625 
C 27.796875 3.5 27.59375 2.5 20.59375 2.5 
L 18.703125 2.5 
L 18.703125 0 
C 21.90625 0 27.296875 0 30.703125 0 
C 34.09375 0 39.5 0 42.703125 0 
L 42.703125 2.5 
L 40.796875 2.5 
C 33.796875 2.5 33.59375 3.5 33.59375 7.140625 
L 33.59375 17 
L 43.796875 17 
L 43.796875 19.59375 
L 33.59375 19.59375 
z
M 28.09375 57.859375 
L 28.09375 19.59375 
L 4 19.59375 
z
" id="CMR17-52"/>
       </defs>
       <use transform="scale(0.996264)" xlink:href="#CMSY10-0"/>
       <use transform="translate(77.487468 0)scale(0.996264)" xlink:href="#CMR17-48"/>
       <use transform="translate(123.177945 0)scale(0.996264)" xlink:href="#CMMI12-58"/>
       <use transform="translate(150.275122 0)scale(0.996264)" xlink:href="#CMR17-48"/>
       <use transform="translate(195.965599 0)scale(0.996264)" xlink:href="#CMR17-48"/>
       <use transform="translate(241.656076 0)scale(0.996264)" xlink:href="#CMR17-48"/>
       <use transform="translate(287.346553 0)scale(0.996264)" xlink:href="#CMR17-52"/>
      </g>
     </g>
    </g>
    <g id="ytick_10">
     <g id="line2d_24">
      <g>
       <use style="stroke:#000000;stroke-width:0.8;" x="731.321368" xlink:href="#mf59d48d99e" y="198.746861"/>
      </g>
     </g>
     <g id="text_25">
      <!-- $\mathdefault{−0.0003}$ -->
      <g transform="translate(668.567889 204.281655)scale(0.16 -0.16)">
       <use transform="scale(0.996264)" xlink:href="#CMSY10-0"/>
       <use transform="translate(77.487468 0)scale(0.996264)" xlink:href="#CMR17-48"/>
       <use transform="translate(123.177945 0)scale(0.996264)" xlink:href="#CMMI12-58"/>
       <use transform="translate(150.275122 0)scale(0.996264)" xlink:href="#CMR17-48"/>
       <use transform="translate(195.965599 0)scale(0.996264)" xlink:href="#CMR17-48"/>
       <use transform="translate(241.656076 0)scale(0.996264)" xlink:href="#CMR17-48"/>
       <use transform="translate(287.346553 0)scale(0.996264)" xlink:href="#CMR17-51"/>
      </g>
     </g>
    </g>
    <g id="ytick_11">
     <g id="line2d_25">
      <g>
       <use style="stroke:#000000;stroke-width:0.8;" x="731.321368" xlink:href="#mf59d48d99e" y="162.913846"/>
      </g>
     </g>
     <g id="text_26">
      <!-- $\mathdefault{−0.0002}$ -->
      <g transform="translate(668.567889 168.44864)scale(0.16 -0.16)">
       <use transform="scale(0.996264)" xlink:href="#CMSY10-0"/>
       <use transform="translate(77.487468 0)scale(0.996264)" xlink:href="#CMR17-48"/>
       <use transform="translate(123.177945 0)scale(0.996264)" xlink:href="#CMMI12-58"/>
       <use transform="translate(150.275122 0)scale(0.996264)" xlink:href="#CMR17-48"/>
       <use transform="translate(195.965599 0)scale(0.996264)" xlink:href="#CMR17-48"/>
       <use transform="translate(241.656076 0)scale(0.996264)" xlink:href="#CMR17-48"/>
       <use transform="translate(287.346553 0)scale(0.996264)" xlink:href="#CMR17-50"/>
      </g>
     </g>
    </g>
    <g id="ytick_12">
     <g id="line2d_26">
      <g>
       <use style="stroke:#000000;stroke-width:0.8;" x="731.321368" xlink:href="#mf59d48d99e" y="127.08083"/>
      </g>
     </g>
     <g id="text_27">
      <!-- $\mathdefault{−0.0001}$ -->
      <g transform="translate(668.567889 132.615624)scale(0.16 -0.16)">
       <use transform="scale(0.996264)" xlink:href="#CMSY10-0"/>
       <use transform="translate(77.487468 0)scale(0.996264)" xlink:href="#CMR17-48"/>
       <use transform="translate(123.177945 0)scale(0.996264)" xlink:href="#CMMI12-58"/>
       <use transform="translate(150.275122 0)scale(0.996264)" xlink:href="#CMR17-48"/>
       <use transform="translate(195.965599 0)scale(0.996264)" xlink:href="#CMR17-48"/>
       <use transform="translate(241.656076 0)scale(0.996264)" xlink:href="#CMR17-48"/>
       <use transform="translate(287.346553 0)scale(0.996264)" xlink:href="#CMR17-49"/>
      </g>
     </g>
    </g>
    <g id="ytick_13">
     <g id="line2d_27">
      <g>
       <use style="stroke:#000000;stroke-width:0.8;" x="731.321368" xlink:href="#mf59d48d99e" y="91.247814"/>
      </g>
     </g>
     <g id="text_28">
      <!-- $\mathdefault{0.0000}$ -->
      <g transform="translate(680.965885 96.782608)scale(0.16 -0.16)">
       <use transform="scale(0.996264)" xlink:href="#CMR17-48"/>
       <use transform="translate(45.690477 0)scale(0.996264)" xlink:href="#CMMI12-58"/>
       <use transform="translate(72.787654 0)scale(0.996264)" xlink:href="#CMR17-48"/>
       <use transform="translate(118.478131 0)scale(0.996264)" xlink:href="#CMR17-48"/>
       <use transform="translate(164.168608 0)scale(0.996264)" xlink:href="#CMR17-48"/>
       <use transform="translate(209.859086 0)scale(0.996264)" xlink:href="#CMR17-48"/>
      </g>
     </g>
    </g>
   </g>
   <g id="LineCollection_3">
    <path clip-path="url(#p33f5ad4cb2)" d="M 742.079488 91.247814 
L 742.079488 91.247814 
" style="fill:none;stroke:#ff0000;stroke-width:2;"/>
    <path clip-path="url(#p33f5ad4cb2)" d="M 755.527137 252.694735 
L 755.527137 72.957046 
" style="fill:none;stroke:#ff0000;stroke-width:2;"/>
    <path clip-path="url(#p33f5ad4cb2)" d="M 768.974787 143.765756 
L 768.974787 72.900917 
" style="fill:none;stroke:#ff0000;stroke-width:2;"/>
    <path clip-path="url(#p33f5ad4cb2)" d="M 782.422436 114.65366 
L 782.422436 88.025368 
" style="fill:none;stroke:#ff0000;stroke-width:2;"/>
    <path clip-path="url(#p33f5ad4cb2)" d="M 795.870086 109.177776 
L 795.870086 93.877944 
" style="fill:none;stroke:#ff0000;stroke-width:2;"/>
    <path clip-path="url(#p33f5ad4cb2)" d="M 809.317735 106.405123 
L 809.317735 96.203037 
" style="fill:none;stroke:#ff0000;stroke-width:2;"/>
    <path clip-path="url(#p33f5ad4cb2)" d="M 822.765385 103.40988 
L 822.765385 95.974864 
" style="fill:none;stroke:#ff0000;stroke-width:2;"/>
    <path clip-path="url(#p33f5ad4cb2)" d="M 836.213035 100.050102 
L 836.213035 94.574953 
" style="fill:none;stroke:#ff0000;stroke-width:2;"/>
    <path clip-path="url(#p33f5ad4cb2)" d="M 849.660684 97.537659 
L 849.660684 93.361236 
" style="fill:none;stroke:#ff0000;stroke-width:2;"/>
    <path clip-path="url(#p33f5ad4cb2)" d="M 863.108334 95.651475 
L 863.108334 92.895927 
" style="fill:none;stroke:#ff0000;stroke-width:2;"/>
    <path clip-path="url(#p33f5ad4cb2)" d="M 876.555983 94.146515 
L 876.555983 91.78693 
" style="fill:none;stroke:#ff0000;stroke-width:2;"/>
    <path clip-path="url(#p33f5ad4cb2)" d="M 890.003633 93.214697 
L 890.003633 91.636509 
" style="fill:none;stroke:#ff0000;stroke-width:2;"/>
    <path clip-path="url(#p33f5ad4cb2)" d="M 903.451282 92.693839 
L 903.451282 91.391384 
" style="fill:none;stroke:#ff0000;stroke-width:2;"/>
    <path clip-path="url(#p33f5ad4cb2)" d="M 916.898932 92.240614 
L 916.898932 91.354255 
" style="fill:none;stroke:#ff0000;stroke-width:2;"/>
    <path clip-path="url(#p33f5ad4cb2)" d="M 930.346581 91.983587 
L 930.346581 91.290839 
" style="fill:none;stroke:#ff0000;stroke-width:2;"/>
    <path clip-path="url(#p33f5ad4cb2)" d="M 943.794231 91.681717 
L 943.794231 91.178343 
" style="fill:none;stroke:#ff0000;stroke-width:2;"/>
    <path clip-path="url(#p33f5ad4cb2)" d="M 957.24188 91.247814 
L 957.24188 91.247814 
" style="fill:none;stroke:#ff0000;stroke-width:2;"/>
   </g>
   <g id="line2d_28">
    <path clip-path="url(#p33f5ad4cb2)" d="M 742.079488 91.247814 
L 755.527137 162.82589 
L 768.974787 108.333336 
L 782.422436 101.339514 
L 795.870086 101.52786 
L 809.317735 101.30408 
L 822.765385 99.692372 
L 836.213035 97.312528 
L 849.660684 95.449447 
L 863.108334 94.273701 
L 876.555983 92.966722 
L 890.003633 92.425603 
L 903.451282 92.042612 
L 916.898932 91.797434 
L 930.346581 91.637213 
L 943.794231 91.43003 
L 957.24188 91.247814 
" style="fill:none;stroke:#000000;stroke-linecap:square;stroke-width:2;"/>
   </g>
   <g id="patch_13">
    <path d="M 731.321368 261.684426 
L 731.321368 63.911226 
" style="fill:none;stroke:#000000;stroke-linecap:square;stroke-linejoin:miter;stroke-width:0.8;"/>
   </g>
   <g id="patch_14">
    <path d="M 968 261.684426 
L 968 63.911226 
" style="fill:none;stroke:#000000;stroke-linecap:square;stroke-linejoin:miter;stroke-width:0.8;"/>
   </g>
   <g id="patch_15">
    <path d="M 731.321368 261.684426 
L 968 261.684426 
" style="fill:none;stroke:#000000;stroke-linecap:square;stroke-linejoin:miter;stroke-width:0.8;"/>
   </g>
   <g id="patch_16">
    <path d="M 731.321368 63.911226 
L 968 63.911226 
" style="fill:none;stroke:#000000;stroke-linecap:square;stroke-linejoin:miter;stroke-width:0.8;"/>
   </g>
   <g id="text_29">
    <!-- $C(t)$ - Folded $C(t)$ -->
    <g transform="translate(759.566173 57.911226)scale(0.24 -0.24)">
     <defs>
      <path d="M 25.5 19 
L 25.5 23.375 
L 0.40625 23.375 
L 0.40625 19 
z
" id="CMR17-45"/>
     </defs>
     <use transform="scale(0.996264)" xlink:href="#CMMI12-67"/>
     <use transform="translate(76.946847 0)scale(0.996264)" xlink:href="#CMR17-40"/>
     <use transform="translate(112.227614 0)scale(0.996264)" xlink:href="#CMMI12-116"/>
     <use transform="translate(147.453945 0)scale(0.996264)" xlink:href="#CMR17-41"/>
     <use transform="translate(212.810679 0)scale(0.996264)" xlink:href="#CMR17-45"/>
     <use transform="translate(272.962612 0)scale(0.996264)" xlink:href="#CMR17-70"/>
     <use transform="translate(325.139203 0)scale(0.996264)" xlink:href="#CMR17-111"/>
     <use transform="translate(370.82968 0)scale(0.996264)" xlink:href="#CMR17-108"/>
     <use transform="translate(395.700738 0)scale(0.996264)" xlink:href="#CMR17-100"/>
     <use transform="translate(446.596108 0)scale(0.996264)" xlink:href="#CMR17-101"/>
     <use transform="translate(487.081769 0)scale(0.996264)" xlink:href="#CMR17-100"/>
     <use transform="translate(568.053105 0)scale(0.996264)" xlink:href="#CMMI12-67"/>
     <use transform="translate(644.999951 0)scale(0.996264)" xlink:href="#CMR17-40"/>
     <use transform="translate(680.280719 0)scale(0.996264)" xlink:href="#CMMI12-116"/>
     <use transform="translate(715.507049 0)scale(0.996264)" xlink:href="#CMR17-41"/>
    </g>
   </g>
  </g>
  <g id="axes_4">
   <g id="patch_17">
    <path d="M 92.457146 514.830936 
L 329.135777 514.830936 
L 329.135777 317.057736 
L 92.457146 317.057736 
z
" style="fill:#ffffff;"/>
   </g>
   <g id="matplotlib.axis_7">
    <g id="xtick_13">
     <g id="line2d_29">
      <g>
       <use style="stroke:#000000;stroke-width:0.8;" x="103.215265" xlink:href="#m9f522d18b2" y="514.830936"/>
      </g>
     </g>
     <g id="text_30">
      <!-- $\mathdefault{0}$ -->
      <g transform="translate(99.313272 532.900524)scale(0.16 -0.16)">
       <use transform="scale(0.996264)" xlink:href="#CMR17-48"/>
      </g>
     </g>
    </g>
    <g id="xtick_14">
     <g id="line2d_30">
      <g>
       <use style="stroke:#000000;stroke-width:0.8;" x="172.622489" xlink:href="#m9f522d18b2" y="514.830936"/>
      </g>
     </g>
     <g id="text_31">
      <!-- $\mathdefault{10}$ -->
      <g transform="translate(164.818502 532.900524)scale(0.16 -0.16)">
       <use transform="scale(0.996264)" xlink:href="#CMR17-49"/>
       <use transform="translate(45.690477 0)scale(0.996264)" xlink:href="#CMR17-48"/>
      </g>
     </g>
    </g>
    <g id="xtick_15">
     <g id="line2d_31">
      <g>
       <use style="stroke:#000000;stroke-width:0.8;" x="242.029712" xlink:href="#m9f522d18b2" y="514.830936"/>
      </g>
     </g>
     <g id="text_32">
      <!-- $\mathdefault{20}$ -->
      <g transform="translate(234.225725 532.900524)scale(0.16 -0.16)">
       <use transform="scale(0.996264)" xlink:href="#CMR17-50"/>
       <use transform="translate(45.690477 0)scale(0.996264)" xlink:href="#CMR17-48"/>
      </g>
     </g>
    </g>
    <g id="xtick_16">
     <g id="line2d_32">
      <g>
       <use style="stroke:#000000;stroke-width:0.8;" x="311.436935" xlink:href="#m9f522d18b2" y="514.830936"/>
      </g>
     </g>
     <g id="text_33">
      <!-- $\mathdefault{30}$ -->
      <g transform="translate(303.632948 532.900524)scale(0.16 -0.16)">
       <use transform="scale(0.996264)" xlink:href="#CMR17-51"/>
       <use transform="translate(45.690477 0)scale(0.996264)" xlink:href="#CMR17-48"/>
      </g>
     </g>
    </g>
   </g>
   <g id="matplotlib.axis_8">
    <g id="ytick_14">
     <g id="line2d_33">
      <g>
       <use style="stroke:#000000;stroke-width:0.8;" x="92.457146" xlink:href="#mf59d48d99e" y="471.987134"/>
      </g>
     </g>
     <g id="text_34">
      <!-- $\mathdefault{−6}$ -->
      <g transform="translate(65.255163 477.521928)scale(0.16 -0.16)">
       <defs>
        <path d="M 10.59375 34 
C 10.59375 57.65625 21.796875 63 28.296875 63 
C 30.40625 63 35.5 62.640625 37.5 59 
C 35.90625 59 32.90625 59 32.90625 55.515625 
C 32.90625 52.828125 35.09375 51.921875 36.5 51.921875 
C 37.40625 51.921875 40.09375 52.3125 40.09375 55.625 
C 40.09375 61.78125 35.09375 65.296875 28.203125 65.296875 
C 16.296875 65.296875 3.796875 52.96875 3.796875 31 
C 3.796875 3.953125 15.09375 -2 23.09375 -2 
C 32.796875 -2 42 6.671875 42 20.046875 
C 42 32.515625 33.90625 41.59375 23.703125 41.59375 
C 17.59375 41.59375 13.09375 37.609375 10.59375 30.625 
z
M 23.09375 0.390625 
C 10.796875 0.390625 10.796875 18.75 10.796875 22.4375 
C 10.796875 29.625 14.203125 40 23.5 40 
C 25.203125 40 30.09375 40 33.40625 33.125 
C 35.203125 29.21875 35.203125 25.140625 35.203125 20.140625 
C 35.203125 14.75 35.203125 10.78125 33.09375 6.78125 
C 30.90625 2.671875 27.703125 0.390625 23.09375 0.390625 
z
" id="CMR17-54"/>
       </defs>
       <use transform="scale(0.996264)" xlink:href="#CMSY10-0"/>
       <use transform="translate(77.487468 0)scale(0.996264)" xlink:href="#CMR17-54"/>
      </g>
     </g>
    </g>
    <g id="ytick_15">
     <g id="line2d_34">
      <g>
       <use style="stroke:#000000;stroke-width:0.8;" x="92.457146" xlink:href="#mf59d48d99e" y="428.638984"/>
      </g>
     </g>
     <g id="text_35">
      <!-- $\mathdefault{−4}$ -->
      <g transform="translate(65.255163 434.173778)scale(0.16 -0.16)">
       <use transform="scale(0.996264)" xlink:href="#CMSY10-0"/>
       <use transform="translate(77.487468 0)scale(0.996264)" xlink:href="#CMR17-52"/>
      </g>
     </g>
    </g>
    <g id="ytick_16">
     <g id="line2d_35">
      <g>
       <use style="stroke:#000000;stroke-width:0.8;" x="92.457146" xlink:href="#mf59d48d99e" y="385.290833"/>
      </g>
     </g>
     <g id="text_36">
      <!-- $\mathdefault{−2}$ -->
      <g transform="translate(65.255163 390.825627)scale(0.16 -0.16)">
       <use transform="scale(0.996264)" xlink:href="#CMSY10-0"/>
       <use transform="translate(77.487468 0)scale(0.996264)" xlink:href="#CMR17-50"/>
      </g>
     </g>
    </g>
    <g id="ytick_17">
     <g id="line2d_36">
      <g>
       <use style="stroke:#000000;stroke-width:0.8;" x="92.457146" xlink:href="#mf59d48d99e" y="341.942682"/>
      </g>
     </g>
     <g id="text_37">
      <!-- $\mathdefault{0}$ -->
      <g transform="translate(77.653159 347.477476)scale(0.16 -0.16)">
       <use transform="scale(0.996264)" xlink:href="#CMR17-48"/>
      </g>
     </g>
    </g>
    <g id="text_38">
     <!-- Imaginary -->
     <g transform="translate(56.604405 464.660674)rotate(-90)scale(0.24 -0.24)">
      <defs>
       <path d="M 19.703125 61.015625 
C 19.703125 65.5 20.90625 65.5 28.09375 65.5 
L 28.09375 68 
C 24.90625 68 19.796875 68 16.40625 68 
C 13 68 7.90625 68 4.703125 68 
L 4.703125 65.5 
C 11.90625 65.5 13.09375 65.5 13.09375 61.015625 
L 13.09375 6.984375 
C 13.09375 2.5 11.90625 2.5 4.703125 2.5 
L 4.703125 0 
C 7.90625 0 13 0 16.40625 0 
C 19.796875 0 24.90625 0 28.09375 0 
L 28.09375 2.5 
C 20.90625 2.5 19.703125 2.5 19.703125 6.984375 
z
" id="CMR17-73"/>
       <path d="M 67.59375 30.203125 
C 67.59375 35.1875 66.703125 43.59375 54.796875 43.59375 
C 48 43.59375 43.296875 39 41.5 33.609375 
L 41.40625 33.609375 
C 40.203125 41.8125 34.296875 43.59375 28.703125 43.59375 
C 20.796875 43.59375 16.703125 37.5 15.203125 33.5 
L 15.09375 33.5 
L 15.09375 43.59375 
L 3.296875 42.5 
L 3.296875 39.90625 
C 9.203125 39.90625 10.09375 39.296875 10.09375 34.5 
L 10.09375 6.6875 
C 10.09375 2.875 9.703125 2.390625 3.296875 2.390625 
L 3.296875 -0.203125 
C 5.703125 0 10.09375 0 12.703125 0 
C 15.296875 0 19.796875 0 22.203125 -0.203125 
L 22.203125 2.390625 
C 15.796875 2.390625 15.40625 2.78125 15.40625 6.6875 
L 15.40625 25.90625 
C 15.40625 35.109375 21 42 28 42 
C 35.40625 42 36.203125 35.40625 36.203125 30.59375 
L 36.203125 6.6875 
C 36.203125 2.875 35.796875 2.390625 29.40625 2.390625 
L 29.40625 -0.203125 
C 31.796875 0 36.203125 0 38.796875 0 
C 41.40625 0 45.90625 0 48.296875 -0.203125 
L 48.296875 2.390625 
C 41.90625 2.390625 41.5 2.78125 41.5 6.6875 
L 41.5 25.90625 
C 41.5 35.109375 47.09375 42 54.09375 42 
C 61.5 42 62.296875 35.40625 62.296875 30.59375 
L 62.296875 6.6875 
C 62.296875 2.875 61.90625 2.390625 55.5 2.390625 
L 55.5 -0.203125 
C 57.90625 0 62.296875 0 64.90625 0 
C 67.5 0 72 0 74.40625 -0.203125 
L 74.40625 2.390625 
C 68 2.390625 67.59375 2.78125 67.59375 6.6875 
z
" id="CMR17-109"/>
       <path d="M 11.09375 18.1875 
C 13 16.6875 16.296875 15 20.296875 15 
C 28.203125 15 35 21.203125 35 29.5 
C 35 32.09375 34.203125 36.09375 31.203125 39.203125 
C 34 42.0625 38.09375 43 40.40625 43 
C 40.796875 43 41.40625 43 41.90625 42.71875 
C 41.5 42.625 40.59375 42.234375 40.59375 40.703125 
C 40.59375 39.484375 41.5 38.609375 42.796875 38.609375 
C 44.296875 38.609375 45.09375 39.578125 45.09375 40.84375 
C 45.09375 42.671875 43.59375 44.59375 40.40625 44.59375 
C 36.40625 44.59375 32.90625 42.78125 30.09375 40.3125 
C 27.09375 43.015625 23.5 44 20.296875 44 
C 12.40625 44 5.59375 37.796875 5.59375 29.5 
C 5.59375 23.78125 8.90625 20.1875 9.90625 19.1875 
C 6.90625 15.6875 6.90625 11.609375 6.90625 11.109375 
C 6.90625 8.515625 7.90625 4.71875 11.296875 2.625 
C 6.09375 1.328125 2 -2.640625 2 -7.59375 
C 2 -14.734375 11.5 -20 22.90625 -20 
C 33.90625 -20 43.796875 -14.9375 43.796875 -7.484375 
C 43.796875 6 29 6 21.296875 6 
C 19 6 14.90625 6 14.40625 6.109375 
C 11.296875 6.609375 9.203125 9.40625 9.203125 12.90625 
C 9.203125 13.796875 9.203125 16 11.09375 18.1875 
z
M 20.296875 16.6875 
C 11.5 16.6875 11.5 27.5 11.5 29.515625 
C 11.5 31.5 11.5 42.3125 20.296875 42.3125 
C 29.09375 42.3125 29.09375 31.5 29.09375 29.515625 
C 29.09375 27.5 29.09375 16.6875 20.296875 16.6875 
z
M 22.90625 -18.296875 
C 12.90625 -18.296875 6 -13.046875 6 -7.59375 
C 6 -4.515625 7.703125 -1.640625 9.90625 -0.0625 
C 12.40625 1.625 13.40625 1.625 20.203125 1.625 
C 28.40625 1.625 39.796875 1.625 39.796875 -7.59375 
C 39.796875 -13.046875 32.90625 -18.296875 22.90625 -18.296875 
z
" id="CMR17-103"/>
       <path d="M 15.5 61.078125 
C 15.5 63.265625 13.703125 65.15625 11.40625 65.15625 
C 9.203125 65.15625 7.296875 63.375 7.296875 61.078125 
C 7.296875 58.890625 9.09375 57 11.40625 57 
C 13.59375 57 15.5 58.796875 15.5 61.078125 
z
M 3.796875 42.28125 
L 3.796875 39.703125 
C 9.40625 39.703125 10.203125 39.09375 10.203125 34.328125 
L 10.203125 6.671875 
C 10.203125 2.875 9.796875 2.390625 3.40625 2.390625 
L 3.40625 -0.203125 
C 5.796875 0 10.09375 0 12.59375 0 
C 15 0 19.09375 0 21.40625 -0.203125 
L 21.40625 2.390625 
C 15.5 2.390625 15.296875 2.984375 15.296875 6.5625 
L 15.296875 43.375 
z
" id="CMR17-105"/>
       <path d="M 41.5 30.203125 
C 41.5 35.296875 40.5 43.59375 28.703125 43.59375 
C 20.796875 43.59375 16.703125 37.5 15.203125 33.5 
L 15.09375 33.5 
L 15.09375 43.59375 
L 3.296875 42.5 
L 3.296875 39.90625 
C 9.203125 39.90625 10.09375 39.296875 10.09375 34.5 
L 10.09375 6.6875 
C 10.09375 2.875 9.703125 2.390625 3.296875 2.390625 
L 3.296875 -0.203125 
C 5.703125 0 10.09375 0 12.703125 0 
C 15.296875 0 19.796875 0 22.203125 -0.203125 
L 22.203125 2.390625 
C 15.796875 2.390625 15.40625 2.78125 15.40625 6.6875 
L 15.40625 25.90625 
C 15.40625 35.109375 21 42 28 42 
C 35.40625 42 36.203125 35.40625 36.203125 30.59375 
L 36.203125 6.6875 
C 36.203125 2.875 35.796875 2.390625 29.40625 2.390625 
L 29.40625 -0.203125 
C 31.796875 0 36.203125 0 38.796875 0 
C 41.40625 0 45.90625 0 48.296875 -0.203125 
L 48.296875 2.390625 
C 41.90625 2.390625 41.5 2.78125 41.5 6.6875 
z
" id="CMR17-110"/>
       <path d="M 15 23.390625 
C 15 33 19.09375 42 26.59375 42 
C 27.296875 42 28 41.90625 28.703125 41.59375 
C 28.703125 41.59375 26.5 40.890625 26.5 38.3125 
C 26.5 35.90625 28.40625 34.90625 29.90625 34.90625 
C 31.09375 34.90625 33.296875 35.609375 33.296875 38.40625 
C 33.296875 41.609375 30.09375 43.59375 26.703125 43.59375 
C 19.09375 43.59375 15.796875 36.203125 14.796875 32.703125 
L 14.703125 32.703125 
L 14.703125 43.59375 
L 3.09375 42.5 
L 3.09375 39.90625 
C 9 39.90625 9.90625 39.296875 9.90625 34.5 
L 9.90625 6.6875 
C 9.90625 2.875 9.5 2.390625 3.09375 2.390625 
L 3.09375 -0.203125 
C 5.5 0 10.09375 0 12.703125 0 
C 15.59375 0 20.703125 0 23.40625 -0.203125 
L 23.40625 2.390625 
C 16.203125 2.390625 15 2.390625 15 6.875 
z
" id="CMR17-114"/>
       <path d="M 39 34.328125 
C 41.5 40.40625 46 40.40625 47.40625 40.40625 
L 47.40625 43 
C 45.5 43 43 43 41.09375 43 
C 39 43 35.703125 43 33.703125 43.09375 
L 33.703125 40.5 
C 37.5 40.203125 37.59375 37.40625 37.59375 36.609375 
C 37.59375 35.625 37.40625 35.125 36.90625 33.921875 
L 26 7.015625 
L 14.09375 36.03125 
C 13.59375 37.21875 13.59375 37.90625 13.59375 38.015625 
C 13.59375 40.203125 15.90625 40.40625 18.296875 40.40625 
L 18.296875 43.09375 
C 15.90625 43 11.59375 43 9.09375 43 
C 6.40625 43 3.203125 43 1 43.09375 
L 1 40.40625 
C 6.40625 40.40625 7 39.90625 8.296875 36.71875 
L 23.203125 0.234375 
C 18.703125 -11.53125 16.09375 -18.40625 9.796875 -18.40625 
C 8.703125 -18.40625 6.203125 -18.109375 4.40625 -16.3125 
C 6.703125 -16.109375 7.703125 -14.71875 7.703125 -13.015625 
C 7.703125 -11.328125 6.5 -9.828125 4.5 -9.828125 
C 2.296875 -9.828125 1.203125 -11.328125 1.203125 -13.125 
C 1.203125 -17.109375 5.296875 -20 9.796875 -20 
C 15.59375 -20 19.203125 -14.40625 21.203125 -9.4375 
z
" id="CMR17-121"/>
      </defs>
      <use transform="scale(0.996264)" xlink:href="#CMR17-73"/>
      <use transform="translate(32.638409 0)scale(0.996264)" xlink:href="#CMR17-109"/>
      <use transform="translate(109.557999 0)scale(0.996264)" xlink:href="#CMR17-97"/>
      <use transform="translate(155.248476 0)scale(0.996264)" xlink:href="#CMR17-103"/>
      <use transform="translate(200.938953 0)scale(0.996264)" xlink:href="#CMR17-105"/>
      <use transform="translate(225.810012 0)scale(0.996264)" xlink:href="#CMR17-110"/>
      <use transform="translate(276.705382 0)scale(0.996264)" xlink:href="#CMR17-97"/>
      <use transform="translate(322.395859 0)scale(0.996264)" xlink:href="#CMR17-114"/>
      <use transform="translate(357.676626 0)scale(0.996264)" xlink:href="#CMR17-121"/>
     </g>
    </g>
    <g id="text_39">
     <!-- $\times\mathdefault{10^{−20}}\mathdefault{}$ -->
     <g transform="translate(92.457146 314.057736)scale(0.16 -0.16)">
      <defs>
       <path d="M 38.90625 27.890625 
L 18.90625 47.796875 
C 17.703125 49 17.5 49.1875 16.703125 49.1875 
C 15.703125 49.1875 14.703125 48.296875 14.703125 47.1875 
C 14.703125 46.5 14.90625 46.296875 16 45.1875 
L 36 25.09375 
L 16 5 
C 14.90625 3.890625 14.703125 3.6875 14.703125 3 
C 14.703125 1.890625 15.703125 1 16.703125 1 
C 17.5 1 17.703125 1.1875 18.90625 2.390625 
L 38.796875 22.296875 
L 59.5 1.59375 
C 59.703125 1.5 60.40625 1 61 1 
C 62.203125 1 63 1.890625 63 3 
C 63 3.1875 63 3.59375 62.703125 4.09375 
C 62.59375 4.296875 46.703125 20 41.703125 25.09375 
L 60 43.390625 
C 60.5 44 62 45.296875 62.5 45.890625 
C 62.59375 46.09375 63 46.5 63 47.1875 
C 63 48.296875 62.203125 49.1875 61 49.1875 
C 60.203125 49.1875 59.796875 48.796875 58.703125 47.6875 
z
" id="CMSY10-2"/>
      </defs>
      <use transform="scale(0.996264)" xlink:href="#CMSY10-2"/>
      <use transform="translate(77.487468 0)scale(0.996264)" xlink:href="#CMR17-49"/>
      <use transform="translate(123.177945 0)scale(0.996264)" xlink:href="#CMR17-48"/>
      <use transform="translate(168.868422 36.153639)scale(0.697382)" xlink:href="#CMSY10-0"/>
      <use transform="translate(223.109415 36.153639)scale(0.697382)" xlink:href="#CMR17-50"/>
      <use transform="translate(255.092597 36.153639)scale(0.697382)" xlink:href="#CMR17-48"/>
     </g>
    </g>
   </g>
   <g id="LineCollection_4">
    <path clip-path="url(#p6b5bde183d)" d="M 103.215265 375.758143 
L 103.215265 348.586754 
" style="fill:none;stroke:#ff0000;stroke-width:2;"/>
    <path clip-path="url(#p6b5bde183d)" d="M 110.155988 489.528843 
L 110.155988 344.665709 
" style="fill:none;stroke:#ff0000;stroke-width:2;"/>
    <path clip-path="url(#p6b5bde183d)" d="M 117.09671 396.969332 
L 117.09671 365.802586 
" style="fill:none;stroke:#ff0000;stroke-width:2;"/>
    <path clip-path="url(#p6b5bde183d)" d="M 124.037432 345.067616 
L 124.037432 339.104862 
" style="fill:none;stroke:#ff0000;stroke-width:2;"/>
    <path clip-path="url(#p6b5bde183d)" d="M 130.978155 341.334798 
L 130.978155 339.529962 
" style="fill:none;stroke:#ff0000;stroke-width:2;"/>
    <path clip-path="url(#p6b5bde183d)" d="M 137.918877 342.227224 
L 137.918877 341.722176 
" style="fill:none;stroke:#ff0000;stroke-width:2;"/>
    <path clip-path="url(#p6b5bde183d)" d="M 144.859599 342.079004 
L 144.859599 341.889863 
" style="fill:none;stroke:#ff0000;stroke-width:2;"/>
    <path clip-path="url(#p6b5bde183d)" d="M 151.800322 342.009623 
L 151.800322 341.899812 
" style="fill:none;stroke:#ff0000;stroke-width:2;"/>
    <path clip-path="url(#p6b5bde183d)" d="M 158.741044 341.886273 
L 158.741044 341.828657 
" style="fill:none;stroke:#ff0000;stroke-width:2;"/>
    <path clip-path="url(#p6b5bde183d)" d="M 165.681766 341.943593 
L 165.681766 341.912326 
" style="fill:none;stroke:#ff0000;stroke-width:2;"/>
    <path clip-path="url(#p6b5bde183d)" d="M 172.622489 341.94489 
L 172.622489 341.925776 
" style="fill:none;stroke:#ff0000;stroke-width:2;"/>
    <path clip-path="url(#p6b5bde183d)" d="M 179.563211 341.944887 
L 179.563211 341.927986 
" style="fill:none;stroke:#ff0000;stroke-width:2;"/>
    <path clip-path="url(#p6b5bde183d)" d="M 186.503933 341.957497 
L 186.503933 341.946279 
" style="fill:none;stroke:#ff0000;stroke-width:2;"/>
    <path clip-path="url(#p6b5bde183d)" d="M 193.444656 341.950555 
L 193.444656 341.942808 
" style="fill:none;stroke:#ff0000;stroke-width:2;"/>
    <path clip-path="url(#p6b5bde183d)" d="M 200.385378 341.94386 
L 200.385378 341.936938 
" style="fill:none;stroke:#ff0000;stroke-width:2;"/>
    <path clip-path="url(#p6b5bde183d)" d="M 207.3261 341.946786 
L 207.3261 341.939931 
" style="fill:none;stroke:#ff0000;stroke-width:2;"/>
    <path clip-path="url(#p6b5bde183d)" d="M 214.266823 341.95191 
L 214.266823 341.945153 
" style="fill:none;stroke:#ff0000;stroke-width:2;"/>
    <path clip-path="url(#p6b5bde183d)" d="M 221.207545 341.950052 
L 221.207545 341.94343 
" style="fill:none;stroke:#ff0000;stroke-width:2;"/>
    <path clip-path="url(#p6b5bde183d)" d="M 228.148267 341.946915 
L 228.148267 341.939533 
" style="fill:none;stroke:#ff0000;stroke-width:2;"/>
    <path clip-path="url(#p6b5bde183d)" d="M 235.08899 341.942832 
L 235.08899 341.93185 
" style="fill:none;stroke:#ff0000;stroke-width:2;"/>
    <path clip-path="url(#p6b5bde183d)" d="M 242.029712 341.94483 
L 242.029712 341.93182 
" style="fill:none;stroke:#ff0000;stroke-width:2;"/>
    <path clip-path="url(#p6b5bde183d)" d="M 248.970434 341.943265 
L 248.970434 341.923118 
" style="fill:none;stroke:#ff0000;stroke-width:2;"/>
    <path clip-path="url(#p6b5bde183d)" d="M 255.911157 341.959638 
L 255.911157 341.929116 
" style="fill:none;stroke:#ff0000;stroke-width:2;"/>
    <path clip-path="url(#p6b5bde183d)" d="M 262.851879 341.952987 
L 262.851879 341.910786 
" style="fill:none;stroke:#ff0000;stroke-width:2;"/>
    <path clip-path="url(#p6b5bde183d)" d="M 269.792601 341.995239 
L 269.792601 341.931867 
" style="fill:none;stroke:#ff0000;stroke-width:2;"/>
    <path clip-path="url(#p6b5bde183d)" d="M 276.733324 341.988021 
L 276.733324 341.866307 
" style="fill:none;stroke:#ff0000;stroke-width:2;"/>
    <path clip-path="url(#p6b5bde183d)" d="M 283.674046 342.017013 
L 283.674046 341.838055 
" style="fill:none;stroke:#ff0000;stroke-width:2;"/>
    <path clip-path="url(#p6b5bde183d)" d="M 290.614768 341.9243 
L 290.614768 341.354689 
" style="fill:none;stroke:#ff0000;stroke-width:2;"/>
    <path clip-path="url(#p6b5bde183d)" d="M 297.555491 342.38881 
L 297.555491 340.836206 
" style="fill:none;stroke:#ff0000;stroke-width:2;"/>
    <path clip-path="url(#p6b5bde183d)" d="M 304.496213 341.474279 
L 304.496213 336.196345 
" style="fill:none;stroke:#ff0000;stroke-width:2;"/>
    <path clip-path="url(#p6b5bde183d)" d="M 311.436935 359.19124 
L 311.436935 326.047427 
" style="fill:none;stroke:#ff0000;stroke-width:2;"/>
    <path clip-path="url(#p6b5bde183d)" d="M 318.377658 505.841245 
L 318.377658 330.694053 
" style="fill:none;stroke:#ff0000;stroke-width:2;"/>
   </g>
   <g id="line2d_37">
    <path clip-path="url(#p6b5bde183d)" d="M 103.215265 362.172449 
L 110.155988 417.097276 
L 117.09671 381.385959 
L 124.037432 342.086239 
L 130.978155 340.43238 
L 137.918877 341.9747 
L 144.859599 341.984434 
L 151.800322 341.954718 
L 158.741044 341.857465 
L 165.681766 341.92796 
L 172.622489 341.935333 
L 179.563211 341.936436 
L 186.503933 341.951888 
L 193.444656 341.946681 
L 200.385378 341.940399 
L 207.3261 341.943359 
L 214.266823 341.948532 
L 221.207545 341.946741 
L 228.148267 341.943224 
L 235.08899 341.937341 
L 242.029712 341.938325 
L 248.970434 341.933191 
L 255.911157 341.944377 
L 262.851879 341.931887 
L 269.792601 341.963553 
L 276.733324 341.927164 
L 283.674046 341.927534 
L 290.614768 341.639494 
L 297.555491 341.612508 
L 304.496213 338.835312 
L 311.436935 342.619333 
L 318.377658 418.267649 
" style="fill:none;stroke:#000000;stroke-linecap:square;stroke-width:2;"/>
   </g>
   <g id="patch_18">
    <path d="M 92.457146 514.830936 
L 92.457146 317.057736 
" style="fill:none;stroke:#000000;stroke-linecap:square;stroke-linejoin:miter;stroke-width:0.8;"/>
   </g>
   <g id="patch_19">
    <path d="M 329.135777 514.830936 
L 329.135777 317.057736 
" style="fill:none;stroke:#000000;stroke-linecap:square;stroke-linejoin:miter;stroke-width:0.8;"/>
   </g>
   <g id="patch_20">
    <path d="M 92.457146 514.830936 
L 329.135777 514.830936 
" style="fill:none;stroke:#000000;stroke-linecap:square;stroke-linejoin:miter;stroke-width:0.8;"/>
   </g>
   <g id="patch_21">
    <path d="M 92.457146 317.057736 
L 329.135777 317.057736 
" style="fill:none;stroke:#000000;stroke-linecap:square;stroke-linejoin:miter;stroke-width:0.8;"/>
   </g>
  </g>
  <g id="axes_5">
   <g id="patch_22">
    <path d="M 411.889257 514.830936 
L 648.567889 514.830936 
L 648.567889 317.057736 
L 411.889257 317.057736 
z
" style="fill:#ffffff;"/>
   </g>
   <g id="matplotlib.axis_9">
    <g id="xtick_17">
     <g id="line2d_38">
      <g>
       <use style="stroke:#000000;stroke-width:0.8;" x="422.647376" xlink:href="#m9f522d18b2" y="514.830936"/>
      </g>
     </g>
     <g id="text_40">
      <!-- $\mathdefault{0}$ -->
      <g transform="translate(418.745383 532.900524)scale(0.16 -0.16)">
       <use transform="scale(0.996264)" xlink:href="#CMR17-48"/>
      </g>
     </g>
    </g>
    <g id="xtick_18">
     <g id="line2d_39">
      <g>
       <use style="stroke:#000000;stroke-width:0.8;" x="489.885624" xlink:href="#m9f522d18b2" y="514.830936"/>
      </g>
     </g>
     <g id="text_41">
      <!-- $\mathdefault{5}$ -->
      <g transform="translate(485.983631 532.900524)scale(0.16 -0.16)">
       <use transform="scale(0.996264)" xlink:href="#CMR17-53"/>
      </g>
     </g>
    </g>
    <g id="xtick_19">
     <g id="line2d_40">
      <g>
       <use style="stroke:#000000;stroke-width:0.8;" x="557.123872" xlink:href="#m9f522d18b2" y="514.830936"/>
      </g>
     </g>
     <g id="text_42">
      <!-- $\mathdefault{10}$ -->
      <g transform="translate(549.319885 532.900524)scale(0.16 -0.16)">
       <use transform="scale(0.996264)" xlink:href="#CMR17-49"/>
       <use transform="translate(45.690477 0)scale(0.996264)" xlink:href="#CMR17-48"/>
      </g>
     </g>
    </g>
    <g id="xtick_20">
     <g id="line2d_41">
      <g>
       <use style="stroke:#000000;stroke-width:0.8;" x="624.36212" xlink:href="#m9f522d18b2" y="514.830936"/>
      </g>
     </g>
     <g id="text_43">
      <!-- $\mathdefault{15}$ -->
      <g transform="translate(616.558133 532.900524)scale(0.16 -0.16)">
       <use transform="scale(0.996264)" xlink:href="#CMR17-49"/>
       <use transform="translate(45.690477 0)scale(0.996264)" xlink:href="#CMR17-53"/>
      </g>
     </g>
    </g>
   </g>
   <g id="matplotlib.axis_10">
    <g id="ytick_18">
     <g id="line2d_42">
      <g>
       <use style="stroke:#000000;stroke-width:0.8;" x="411.889257" xlink:href="#mf59d48d99e" y="498.602251"/>
      </g>
     </g>
     <g id="text_44">
      <!-- $\mathdefault{−6}$ -->
      <g transform="translate(384.687274 504.137045)scale(0.16 -0.16)">
       <use transform="scale(0.996264)" xlink:href="#CMSY10-0"/>
       <use transform="translate(77.487468 0)scale(0.996264)" xlink:href="#CMR17-54"/>
      </g>
     </g>
    </g>
    <g id="ytick_19">
     <g id="line2d_43">
      <g>
       <use style="stroke:#000000;stroke-width:0.8;" x="411.889257" xlink:href="#mf59d48d99e" y="442.53021"/>
      </g>
     </g>
     <g id="text_45">
      <!-- $\mathdefault{−4}$ -->
      <g transform="translate(384.687274 448.065004)scale(0.16 -0.16)">
       <use transform="scale(0.996264)" xlink:href="#CMSY10-0"/>
       <use transform="translate(77.487468 0)scale(0.996264)" xlink:href="#CMR17-52"/>
      </g>
     </g>
    </g>
    <g id="ytick_20">
     <g id="line2d_44">
      <g>
       <use style="stroke:#000000;stroke-width:0.8;" x="411.889257" xlink:href="#mf59d48d99e" y="386.458169"/>
      </g>
     </g>
     <g id="text_46">
      <!-- $\mathdefault{−2}$ -->
      <g transform="translate(384.687274 391.992963)scale(0.16 -0.16)">
       <use transform="scale(0.996264)" xlink:href="#CMSY10-0"/>
       <use transform="translate(77.487468 0)scale(0.996264)" xlink:href="#CMR17-50"/>
      </g>
     </g>
    </g>
    <g id="ytick_21">
     <g id="line2d_45">
      <g>
       <use style="stroke:#000000;stroke-width:0.8;" x="411.889257" xlink:href="#mf59d48d99e" y="330.386128"/>
      </g>
     </g>
     <g id="text_47">
      <!-- $\mathdefault{0}$ -->
      <g transform="translate(397.08527 335.920922)scale(0.16 -0.16)">
       <use transform="scale(0.996264)" xlink:href="#CMR17-48"/>
      </g>
     </g>
    </g>
    <g id="text_48">
     <!-- $\times\mathdefault{10^{−20}}\mathdefault{}$ -->
     <g transform="translate(411.889257 314.057736)scale(0.16 -0.16)">
      <use transform="scale(0.996264)" xlink:href="#CMSY10-2"/>
      <use transform="translate(77.487468 0)scale(0.996264)" xlink:href="#CMR17-49"/>
      <use transform="translate(123.177945 0)scale(0.996264)" xlink:href="#CMR17-48"/>
      <use transform="translate(168.868422 36.153639)scale(0.697382)" xlink:href="#CMSY10-0"/>
      <use transform="translate(223.109415 36.153639)scale(0.697382)" xlink:href="#CMR17-50"/>
      <use transform="translate(255.092597 36.153639)scale(0.697382)" xlink:href="#CMR17-48"/>
     </g>
    </g>
   </g>
   <g id="LineCollection_5">
    <path clip-path="url(#paeedad8cbe)" d="M 422.647376 374.127369 
L 422.647376 338.98042 
" style="fill:none;stroke:#ff0000;stroke-width:2;"/>
    <path clip-path="url(#paeedad8cbe)" d="M 436.095026 505.841245 
L 436.095026 350.874044 
" style="fill:none;stroke:#ff0000;stroke-width:2;"/>
    <path clip-path="url(#paeedad8cbe)" d="M 449.542676 372.436828 
L 449.542676 340.231673 
" style="fill:none;stroke:#ff0000;stroke-width:2;"/>
    <path clip-path="url(#paeedad8cbe)" d="M 462.990325 330.891054 
L 462.990325 326.047427 
" style="fill:none;stroke:#ff0000;stroke-width:2;"/>
    <path clip-path="url(#paeedad8cbe)" d="M 476.437975 329.971836 
L 476.437975 328.419713 
" style="fill:none;stroke:#ff0000;stroke-width:2;"/>
    <path clip-path="url(#paeedad8cbe)" d="M 489.885624 330.449762 
L 489.885624 329.971728 
" style="fill:none;stroke:#ff0000;stroke-width:2;"/>
    <path clip-path="url(#paeedad8cbe)" d="M 503.333274 330.49063 
L 503.333274 330.316039 
" style="fill:none;stroke:#ff0000;stroke-width:2;"/>
    <path clip-path="url(#paeedad8cbe)" d="M 516.780923 330.43969 
L 516.780923 330.328061 
" style="fill:none;stroke:#ff0000;stroke-width:2;"/>
    <path clip-path="url(#paeedad8cbe)" d="M 530.228573 330.372534 
L 530.228573 330.316488 
" style="fill:none;stroke:#ff0000;stroke-width:2;"/>
    <path clip-path="url(#paeedad8cbe)" d="M 543.676222 330.385184 
L 543.676222 330.354064 
" style="fill:none;stroke:#ff0000;stroke-width:2;"/>
    <path clip-path="url(#paeedad8cbe)" d="M 557.123872 330.394467 
L 557.123872 330.370475 
" style="fill:none;stroke:#ff0000;stroke-width:2;"/>
    <path clip-path="url(#paeedad8cbe)" d="M 570.571521 330.3841 
L 570.571521 330.367801 
" style="fill:none;stroke:#ff0000;stroke-width:2;"/>
    <path clip-path="url(#paeedad8cbe)" d="M 584.019171 330.394849 
L 584.019171 330.383679 
" style="fill:none;stroke:#ff0000;stroke-width:2;"/>
    <path clip-path="url(#paeedad8cbe)" d="M 597.46682 330.389592 
L 597.46682 330.380929 
" style="fill:none;stroke:#ff0000;stroke-width:2;"/>
    <path clip-path="url(#paeedad8cbe)" d="M 610.91447 330.388325 
L 610.91447 330.381679 
" style="fill:none;stroke:#ff0000;stroke-width:2;"/>
    <path clip-path="url(#paeedad8cbe)" d="M 624.36212 330.392061 
L 624.36212 330.38632 
" style="fill:none;stroke:#ff0000;stroke-width:2;"/>
    <path clip-path="url(#paeedad8cbe)" d="M 637.809769 330.398065 
L 637.809769 330.389325 
" style="fill:none;stroke:#ff0000;stroke-width:2;"/>
   </g>
   <g id="line2d_46">
    <path clip-path="url(#paeedad8cbe)" d="M 422.647376 356.553895 
L 436.095026 428.357644 
L 449.542676 356.334251 
L 462.990325 328.46924 
L 476.437975 329.195774 
L 489.885624 330.210745 
L 503.333274 330.403334 
L 516.780923 330.383876 
L 530.228573 330.344511 
L 543.676222 330.369624 
L 557.123872 330.382471 
L 570.571521 330.37595 
L 584.019171 330.389264 
L 597.46682 330.38526 
L 610.91447 330.385002 
L 624.36212 330.389191 
L 637.809769 330.393695 
" style="fill:none;stroke:#000000;stroke-linecap:square;stroke-width:2;"/>
   </g>
   <g id="patch_23">
    <path d="M 411.889257 514.830936 
L 411.889257 317.057736 
" style="fill:none;stroke:#000000;stroke-linecap:square;stroke-linejoin:miter;stroke-width:0.8;"/>
   </g>
   <g id="patch_24">
    <path d="M 648.567889 514.830936 
L 648.567889 317.057736 
" style="fill:none;stroke:#000000;stroke-linecap:square;stroke-linejoin:miter;stroke-width:0.8;"/>
   </g>
   <g id="patch_25">
    <path d="M 411.889257 514.830936 
L 648.567889 514.830936 
" style="fill:none;stroke:#000000;stroke-linecap:square;stroke-linejoin:miter;stroke-width:0.8;"/>
   </g>
   <g id="patch_26">
    <path d="M 411.889257 317.057736 
L 648.567889 317.057736 
" style="fill:none;stroke:#000000;stroke-linecap:square;stroke-linejoin:miter;stroke-width:0.8;"/>
   </g>
  </g>
  <g id="axes_6">
   <g id="patch_27">
    <path d="M 731.321368 514.830936 
L 968 514.830936 
L 968 317.057736 
L 731.321368 317.057736 
z
" style="fill:#ffffff;"/>
   </g>
   <g id="matplotlib.axis_11">
    <g id="xtick_21">
     <g id="line2d_47">
      <g>
       <use style="stroke:#000000;stroke-width:0.8;" x="742.079488" xlink:href="#m9f522d18b2" y="514.830936"/>
      </g>
     </g>
     <g id="text_49">
      <!-- $\mathdefault{0}$ -->
      <g transform="translate(738.177494 532.900524)scale(0.16 -0.16)">
       <use transform="scale(0.996264)" xlink:href="#CMR17-48"/>
      </g>
     </g>
    </g>
    <g id="xtick_22">
     <g id="line2d_48">
      <g>
       <use style="stroke:#000000;stroke-width:0.8;" x="809.317735" xlink:href="#m9f522d18b2" y="514.830936"/>
      </g>
     </g>
     <g id="text_50">
      <!-- $\mathdefault{5}$ -->
      <g transform="translate(805.415742 532.900524)scale(0.16 -0.16)">
       <use transform="scale(0.996264)" xlink:href="#CMR17-53"/>
      </g>
     </g>
    </g>
    <g id="xtick_23">
     <g id="line2d_49">
      <g>
       <use style="stroke:#000000;stroke-width:0.8;" x="876.555983" xlink:href="#m9f522d18b2" y="514.830936"/>
      </g>
     </g>
     <g id="text_51">
      <!-- $\mathdefault{10}$ -->
      <g transform="translate(868.751996 532.900524)scale(0.16 -0.16)">
       <use transform="scale(0.996264)" xlink:href="#CMR17-49"/>
       <use transform="translate(45.690477 0)scale(0.996264)" xlink:href="#CMR17-48"/>
      </g>
     </g>
    </g>
    <g id="xtick_24">
     <g id="line2d_50">
      <g>
       <use style="stroke:#000000;stroke-width:0.8;" x="943.794231" xlink:href="#m9f522d18b2" y="514.830936"/>
      </g>
     </g>
     <g id="text_52">
      <!-- $\mathdefault{15}$ -->
      <g transform="translate(935.990244 532.900524)scale(0.16 -0.16)">
       <use transform="scale(0.996264)" xlink:href="#CMR17-49"/>
       <use transform="translate(45.690477 0)scale(0.996264)" xlink:href="#CMR17-53"/>
      </g>
     </g>
    </g>
   </g>
   <g id="matplotlib.axis_12">
    <g id="ytick_22">
     <g id="line2d_51">
      <g>
       <use style="stroke:#000000;stroke-width:0.8;" x="731.321368" xlink:href="#mf59d48d99e" y="489.671566"/>
      </g>
     </g>
     <g id="text_53">
      <!-- $\mathdefault{−2}$ -->
      <g transform="translate(704.119385 495.20636)scale(0.16 -0.16)">
       <use transform="scale(0.996264)" xlink:href="#CMSY10-0"/>
       <use transform="translate(77.487468 0)scale(0.996264)" xlink:href="#CMR17-50"/>
      </g>
     </g>
    </g>
    <g id="ytick_23">
     <g id="line2d_52">
      <g>
       <use style="stroke:#000000;stroke-width:0.8;" x="731.321368" xlink:href="#mf59d48d99e" y="453.29897"/>
      </g>
     </g>
     <g id="text_54">
      <!-- $\mathdefault{−1}$ -->
      <g transform="translate(704.119385 458.833764)scale(0.16 -0.16)">
       <use transform="scale(0.996264)" xlink:href="#CMSY10-0"/>
       <use transform="translate(77.487468 0)scale(0.996264)" xlink:href="#CMR17-49"/>
      </g>
     </g>
    </g>
    <g id="ytick_24">
     <g id="line2d_53">
      <g>
       <use style="stroke:#000000;stroke-width:0.8;" x="731.321368" xlink:href="#mf59d48d99e" y="416.926373"/>
      </g>
     </g>
     <g id="text_55">
      <!-- $\mathdefault{0}$ -->
      <g transform="translate(716.517381 422.461167)scale(0.16 -0.16)">
       <use transform="scale(0.996264)" xlink:href="#CMR17-48"/>
      </g>
     </g>
    </g>
    <g id="ytick_25">
     <g id="line2d_54">
      <g>
       <use style="stroke:#000000;stroke-width:0.8;" x="731.321368" xlink:href="#mf59d48d99e" y="380.553777"/>
      </g>
     </g>
     <g id="text_56">
      <!-- $\mathdefault{1}$ -->
      <g transform="translate(716.517381 386.088571)scale(0.16 -0.16)">
       <use transform="scale(0.996264)" xlink:href="#CMR17-49"/>
      </g>
     </g>
    </g>
    <g id="ytick_26">
     <g id="line2d_55">
      <g>
       <use style="stroke:#000000;stroke-width:0.8;" x="731.321368" xlink:href="#mf59d48d99e" y="344.18118"/>
      </g>
     </g>
     <g id="text_57">
      <!-- $\mathdefault{2}$ -->
      <g transform="translate(716.517381 349.715974)scale(0.16 -0.16)">
       <use transform="scale(0.996264)" xlink:href="#CMR17-50"/>
      </g>
     </g>
    </g>
    <g id="text_58">
     <!-- $\times\mathdefault{10^{−20}}\mathdefault{}$ -->
     <g transform="translate(731.321368 314.057736)scale(0.16 -0.16)">
      <use transform="scale(0.996264)" xlink:href="#CMSY10-2"/>
      <use transform="translate(77.487468 0)scale(0.996264)" xlink:href="#CMR17-49"/>
      <use transform="translate(123.177945 0)scale(0.996264)" xlink:href="#CMR17-48"/>
      <use transform="translate(168.868422 36.153639)scale(0.697382)" xlink:href="#CMSY10-0"/>
      <use transform="translate(223.109415 36.153639)scale(0.697382)" xlink:href="#CMR17-50"/>
      <use transform="translate(255.092597 36.153639)scale(0.697382)" xlink:href="#CMR17-48"/>
     </g>
    </g>
   </g>
   <g id="LineCollection_6">
    <path clip-path="url(#pe0c419d808)" d="M 742.079488 416.926373 
L 742.079488 416.926373 
" style="fill:none;stroke:#ff0000;stroke-width:2;"/>
    <path clip-path="url(#pe0c419d808)" d="M 755.527137 505.841245 
L 755.527137 326.047427 
" style="fill:none;stroke:#ff0000;stroke-width:2;"/>
    <path clip-path="url(#pe0c419d808)" d="M 768.974787 466.54954 
L 768.974787 432.359861 
" style="fill:none;stroke:#ff0000;stroke-width:2;"/>
    <path clip-path="url(#pe0c419d808)" d="M 782.422436 423.182711 
L 782.422436 416.125616 
" style="fill:none;stroke:#ff0000;stroke-width:2;"/>
    <path clip-path="url(#pe0c419d808)" d="M 795.870086 416.926909 
L 795.870086 414.945391 
" style="fill:none;stroke:#ff0000;stroke-width:2;"/>
    <path clip-path="url(#pe0c419d808)" d="M 809.317735 417.536052 
L 809.317735 416.879224 
" style="fill:none;stroke:#ff0000;stroke-width:2;"/>
    <path clip-path="url(#pe0c419d808)" d="M 822.765385 417.079195 
L 822.765385 416.869038 
" style="fill:none;stroke:#ff0000;stroke-width:2;"/>
    <path clip-path="url(#pe0c419d808)" d="M 836.213035 417.014427 
L 836.213035 416.884558 
" style="fill:none;stroke:#ff0000;stroke-width:2;"/>
    <path clip-path="url(#pe0c419d808)" d="M 849.660684 416.872862 
L 849.660684 416.801851 
" style="fill:none;stroke:#ff0000;stroke-width:2;"/>
    <path clip-path="url(#pe0c419d808)" d="M 863.108334 416.946818 
L 863.108334 416.899338 
" style="fill:none;stroke:#ff0000;stroke-width:2;"/>
    <path clip-path="url(#pe0c419d808)" d="M 876.555983 416.933425 
L 876.555983 416.904144 
" style="fill:none;stroke:#ff0000;stroke-width:2;"/>
    <path clip-path="url(#pe0c419d808)" d="M 890.003633 416.940571 
L 890.003633 416.917621 
" style="fill:none;stroke:#ff0000;stroke-width:2;"/>
    <path clip-path="url(#pe0c419d808)" d="M 903.451282 416.944922 
L 903.451282 416.930585 
" style="fill:none;stroke:#ff0000;stroke-width:2;"/>
    <path clip-path="url(#pe0c419d808)" d="M 916.898932 416.939868 
L 916.898932 416.928553 
" style="fill:none;stroke:#ff0000;stroke-width:2;"/>
    <path clip-path="url(#pe0c419d808)" d="M 930.346581 416.928182 
L 930.346581 416.919823 
" style="fill:none;stroke:#ff0000;stroke-width:2;"/>
    <path clip-path="url(#pe0c419d808)" d="M 943.794231 416.92779 
L 943.794231 416.91928 
" style="fill:none;stroke:#ff0000;stroke-width:2;"/>
    <path clip-path="url(#pe0c419d808)" d="M 957.24188 416.926373 
L 957.24188 416.926373 
" style="fill:none;stroke:#ff0000;stroke-width:2;"/>
   </g>
   <g id="line2d_56">
    <path clip-path="url(#pe0c419d808)" d="M 742.079488 416.926373 
L 755.527137 415.944336 
L 768.974787 449.454701 
L 782.422436 419.654164 
L 795.870086 415.93615 
L 809.317735 417.207638 
L 822.765385 416.974117 
L 836.213035 416.949493 
L 849.660684 416.837357 
L 863.108334 416.923078 
L 876.555983 416.918785 
L 890.003633 416.929096 
L 903.451282 416.937753 
L 916.898932 416.934211 
L 930.346581 416.924002 
L 943.794231 416.923535 
L 957.24188 416.926373 
" style="fill:none;stroke:#000000;stroke-linecap:square;stroke-width:2;"/>
   </g>
   <g id="patch_28">
    <path d="M 731.321368 514.830936 
L 731.321368 317.057736 
" style="fill:none;stroke:#000000;stroke-linecap:square;stroke-linejoin:miter;stroke-width:0.8;"/>
   </g>
   <g id="patch_29">
    <path d="M 968 514.830936 
L 968 317.057736 
" style="fill:none;stroke:#000000;stroke-linecap:square;stroke-linejoin:miter;stroke-width:0.8;"/>
   </g>
   <g id="patch_30">
    <path d="M 731.321368 514.830936 
L 968 514.830936 
" style="fill:none;stroke:#000000;stroke-linecap:square;stroke-linejoin:miter;stroke-width:0.8;"/>
   </g>
   <g id="patch_31">
    <path d="M 731.321368 317.057736 
L 968 317.057736 
" style="fill:none;stroke:#000000;stroke-linecap:square;stroke-linejoin:miter;stroke-width:0.8;"/>
   </g>
  </g>
 </g>
 <defs>
  <clipPath id="p6d3520bf0a">
   <rect height="197.773199" width="236.678632" x="92.457146" y="63.911226"/>
  </clipPath>
  <clipPath id="p808327ac2a">
   <rect height="197.773199" width="236.678632" x="411.889257" y="63.911226"/>
  </clipPath>
  <clipPath id="p33f5ad4cb2">
   <rect height="197.773199" width="236.678632" x="731.321368" y="63.911226"/>
  </clipPath>
  <clipPath id="p6b5bde183d">
   <rect height="197.773199" width="236.678632" x="92.457146" y="317.057736"/>
  </clipPath>
  <clipPath id="paeedad8cbe">
   <rect height="197.773199" width="236.678632" x="411.889257" y="317.057736"/>
  </clipPath>
  <clipPath id="pe0c419d808">
   <rect height="197.773199" width="236.678632" x="731.321368" y="317.057736"/>
  </clipPath>
 </defs>
</svg>
