<?xml version="1.0" encoding="utf-8" standalone="no"?>
<!DOCTYPE svg PUBLIC "-//W3C//DTD SVG 1.1//EN"
  "http://www.w3.org/Graphics/SVG/1.1/DTD/svg11.dtd">
<!-- Created with matplotlib (https://matplotlib.org/) -->
<svg height="648pt" version="1.1" viewBox="0 0 720 648" width="720pt" xmlns="http://www.w3.org/2000/svg" xmlns:xlink="http://www.w3.org/1999/xlink">
 <metadata>
  <rdf:RDF xmlns:cc="http://creativecommons.org/ns#" xmlns:dc="http://purl.org/dc/elements/1.1/" xmlns:rdf="http://www.w3.org/1999/02/22-rdf-syntax-ns#">
   <cc:Work>
    <dc:type rdf:resource="http://purl.org/dc/dcmitype/StillImage"/>
    <dc:date>2022-10-14T18:36:40.401116</dc:date>
    <dc:format>image/svg+xml</dc:format>
    <dc:creator>
     <cc:Agent>
      <dc:title>Matplotlib v3.3.4, https://matplotlib.org/</dc:title>
     </cc:Agent>
    </dc:creator>
   </cc:Work>
  </rdf:RDF>
 </metadata>
 <defs>
  <style type="text/css">*{stroke-linecap:butt;stroke-linejoin:round;}</style>
 </defs>
 <g id="figure_1">
  <g id="patch_1">
   <path d="M 0 648 
L 720 648 
L 720 0 
L 0 0 
z
" style="fill:#ffffff;"/>
  </g>
  <g id="axes_1">
   <g id="patch_2">
    <path d="M 90.476779 195.208657 
L 355.56763 195.208657 
L 355.56763 72 
L 90.476779 72 
z
" style="fill:#ffffff;"/>
   </g>
   <g id="matplotlib.axis_1">
    <g id="xtick_1">
     <g id="line2d_1">
      <defs>
       <path d="M 0 0 
L 0 3.5 
" id="m9a005329f4" style="stroke:#000000;stroke-width:0.8;"/>
      </defs>
      <g>
       <use style="stroke:#000000;stroke-width:0.8;" x="162.774284" xlink:href="#m9a005329f4" y="195.208657"/>
      </g>
     </g>
     <g id="text_1">
      <!-- $\mathdefault{5}$ -->
      <g transform="translate(158.87229 213.278245)scale(0.16 -0.16)">
       <defs>
        <path d="M 11.40625 57.6875 
C 12.40625 57.28125 16.5 56 20.703125 56 
C 30 56 35.09375 61.109375 38 64.0625 
C 38 64.953125 38 65.5 37.40625 65.5 
C 37.296875 65.5 37.09375 65.5 36.296875 65.046875 
C 32.796875 63.40625 28.703125 62.078125 23.703125 62.078125 
C 20.703125 62.078125 16.203125 62.484375 11.296875 64.671875 
C 10.203125 65.171875 10 65.171875 9.90625 65.171875 
C 9.40625 65.171875 9.296875 65.0625 9.296875 63.078125 
L 9.296875 34.421875 
C 9.296875 32.640625 9.296875 32.140625 10.296875 32.140625 
C 10.796875 32.140625 11 32.34375 11.5 33.03125 
C 14.703125 37.515625 19.09375 39.40625 24.09375 39.40625 
C 27.59375 39.40625 35.09375 37.21875 35.09375 20.140625 
C 35.09375 16.953125 35.09375 11.171875 32.09375 6.578125 
C 29.59375 2.484375 25.703125 0.390625 21.40625 0.390625 
C 14.796875 0.390625 8.09375 5 6.296875 12.71875 
C 6.703125 12.609375 7.5 12.421875 7.90625 12.421875 
C 9.203125 12.421875 11.703125 13.125 11.703125 16.21875 
C 11.703125 18.90625 9.796875 20 7.90625 20 
C 5.59375 20 4.09375 18.59375 4.09375 15.796875 
C 4.09375 7.09375 11 -2 21.59375 -2 
C 31.90625 -2 41.703125 6.875 41.703125 19.75 
C 41.703125 31.71875 33.90625 41 24.203125 41 
C 19.09375 41 14.796875 39.109375 11.40625 35.53125 
z
" id="CMR17-53"/>
       </defs>
       <use transform="scale(0.996264)" xlink:href="#CMR17-53"/>
      </g>
     </g>
    </g>
    <g id="xtick_2">
     <g id="line2d_2">
      <g>
       <use style="stroke:#000000;stroke-width:0.8;" x="263.187485" xlink:href="#m9a005329f4" y="195.208657"/>
      </g>
     </g>
     <g id="text_2">
      <!-- $\mathdefault{10}$ -->
      <g transform="translate(255.383498 213.278245)scale(0.16 -0.16)">
       <defs>
        <path d="M 26.59375 63.40625 
C 26.59375 65.5 26.5 65.5 25.09375 65.5 
C 21.203125 61.1875 15.296875 59.796875 9.703125 59.796875 
C 9.40625 59.796875 8.90625 59.796875 8.796875 59.5 
C 8.703125 59.296875 8.703125 59.09375 8.703125 57 
C 11.796875 57 17 57.59375 21 59.984375 
L 21 7.203125 
C 21 3.6875 20.796875 2.5 12.203125 2.5 
L 9.203125 2.5 
L 9.203125 0 
C 14 0 19 0 23.796875 0 
C 28.59375 0 33.59375 0 38.40625 0 
L 38.40625 2.5 
L 35.40625 2.5 
C 26.796875 2.5 26.59375 3.59375 26.59375 7.15625 
z
" id="CMR17-49"/>
        <path d="M 42 31.640625 
C 42 37.75 41.90625 48.125 37.703125 56.109375 
C 34 63.109375 28.09375 65.59375 22.90625 65.59375 
C 18.09375 65.59375 12 63.40625 8.203125 56.203125 
C 4.203125 48.71875 3.796875 39.4375 3.796875 31.640625 
C 3.796875 25.953125 3.90625 17.28125 7 9.671875 
C 11.296875 -0.609375 19 -2 22.90625 -2 
C 27.5 -2 34.5 -0.109375 38.59375 9.375 
C 41.59375 16.28125 42 24.359375 42 31.640625 
z
M 22.90625 -0.40625 
C 16.5 -0.40625 12.703125 5.078125 11.296875 12.6875 
C 10.203125 18.5625 10.203125 27.15625 10.203125 32.75 
C 10.203125 40.4375 10.203125 46.828125 11.5 52.921875 
C 13.40625 61.390625 19 64 22.90625 64 
C 27 64 32.296875 61.296875 34.203125 53.125 
C 35.5 47.4375 35.59375 40.734375 35.59375 32.75 
C 35.59375 26.25 35.59375 18.265625 34.40625 12.375 
C 32.296875 1.484375 26.40625 -0.40625 22.90625 -0.40625 
z
" id="CMR17-48"/>
       </defs>
       <use transform="scale(0.996264)" xlink:href="#CMR17-49"/>
       <use transform="translate(45.690477 0)scale(0.996264)" xlink:href="#CMR17-48"/>
      </g>
     </g>
    </g>
   </g>
   <g id="matplotlib.axis_2">
    <g id="ytick_1">
     <g id="line2d_3">
      <defs>
       <path d="M 0 0 
L -3.5 0 
" id="m5209347d45" style="stroke:#000000;stroke-width:0.8;"/>
      </defs>
      <g>
       <use style="stroke:#000000;stroke-width:0.8;" x="90.476779" xlink:href="#m5209347d45" y="191.820767"/>
      </g>
     </g>
     <g id="text_3">
      <!-- $\mathdefault{0}$ -->
      <g transform="translate(75.672792 197.355561)scale(0.16 -0.16)">
       <use transform="scale(0.996264)" xlink:href="#CMR17-48"/>
      </g>
     </g>
    </g>
    <g id="ytick_2">
     <g id="line2d_4">
      <g>
       <use style="stroke:#000000;stroke-width:0.8;" x="90.476779" xlink:href="#m5209347d45" y="136.907128"/>
      </g>
     </g>
     <g id="text_4">
      <!-- $\mathdefault{10}$ -->
      <g transform="translate(67.868805 142.441922)scale(0.16 -0.16)">
       <use transform="scale(0.996264)" xlink:href="#CMR17-49"/>
       <use transform="translate(45.690477 0)scale(0.996264)" xlink:href="#CMR17-48"/>
      </g>
     </g>
    </g>
    <g id="ytick_3">
     <g id="line2d_5">
      <g>
       <use style="stroke:#000000;stroke-width:0.8;" x="90.476779" xlink:href="#m5209347d45" y="81.993489"/>
      </g>
     </g>
     <g id="text_5">
      <!-- $\mathdefault{20}$ -->
      <g transform="translate(67.868805 87.528283)scale(0.16 -0.16)">
       <defs>
        <path d="M 41.703125 15.453125 
L 39.90625 15.453125 
C 38.90625 8.375 38.09375 7.171875 37.703125 6.5625 
C 37.203125 5.765625 30 5.765625 28.59375 5.765625 
L 9.40625 5.765625 
C 13 9.671875 20 16.75 28.5 24.953125 
C 34.59375 30.734375 41.703125 37.53125 41.703125 47.421875 
C 41.703125 59.21875 32.296875 66 21.796875 66 
C 10.796875 66 4.09375 56.3125 4.09375 47.34375 
C 4.09375 43.4375 7 42.9375 8.203125 42.9375 
C 9.203125 42.9375 12.203125 43.546875 12.203125 47.03125 
C 12.203125 50.109375 9.59375 51 8.203125 51 
C 7.59375 51 7 50.90625 6.59375 50.703125 
C 8.5 59.21875 14.296875 63.40625 20.40625 63.40625 
C 29.09375 63.40625 34.796875 56.515625 34.796875 47.421875 
C 34.796875 38.734375 29.703125 31.25 24 24.75 
L 4.09375 2.28125 
L 4.09375 0 
L 39.296875 0 
z
" id="CMR17-50"/>
       </defs>
       <use transform="scale(0.996264)" xlink:href="#CMR17-50"/>
       <use transform="translate(45.690477 0)scale(0.996264)" xlink:href="#CMR17-48"/>
      </g>
     </g>
    </g>
    <g id="text_6">
     <!-- (2, 13) -->
     <g transform="translate(57.911226 165.113922)rotate(-90)scale(0.24 -0.24)">
      <defs>
       <path d="M 30.59375 -24.390625 
C 30.59375 -24.296875 30.59375 -24.09375 30.296875 -23.796875 
C 25.703125 -19.125 13.40625 -6.359375 13.40625 24.703125 
C 13.40625 55.765625 25.5 68.421875 30.40625 73.390625 
C 30.40625 73.5 30.59375 73.703125 30.59375 74 
C 30.59375 74.296875 30.296875 74.5 29.90625 74.5 
C 28.796875 74.5 20.296875 67.125 15.40625 56.15625 
C 10.40625 45.109375 9 34.359375 9 24.8125 
C 9 17.625 9.703125 5.484375 15.703125 -7.359375 
C 20.5 -17.734375 28.703125 -25 29.90625 -25 
C 30.40625 -25 30.59375 -24.796875 30.59375 -24.390625 
z
" id="CMR17-40"/>
       <path d="M 15.796875 1.59375 
C 16 0.703125 16 0.390625 16 -1.203125 
C 16 -7.234375 14 -12.765625 9.796875 -17.796875 
C 9.296875 -18.28125 9.296875 -18.484375 9.296875 -18.703125 
C 9.296875 -19.09375 9.703125 -19.5 10.09375 -19.5 
C 10.703125 -19.5 17.59375 -12.484375 17.59375 -1.359375 
C 17.59375 1.9375 17.203125 8.15625 12.5 8.15625 
C 10.296875 8.15625 8.40625 6.671875 8.40625 4.078125 
C 8.40625 1.5 10.296875 0 12.5 0 
C 13.703125 0 15 0.5 15.796875 1.59375 
z
" id="CMR17-44"/>
       <path d="M 22.09375 33.703125 
C 31 33.703125 34.90625 25.96875 34.90625 17.03125 
C 34.90625 5 28.5 0.390625 22.703125 0.390625 
C 17.40625 0.390625 8.796875 3.03125 6.09375 10.828125 
C 6.59375 10.625 7.09375 10.625 7.59375 10.625 
C 10 10.625 11.796875 12.21875 11.796875 14.8125 
C 11.796875 17.703125 9.59375 19 7.59375 19 
C 5.90625 19 3.296875 18.203125 3.296875 14.46875 
C 3.296875 5.234375 12.296875 -2 22.90625 -2 
C 34 -2 42.5 6.71875 42.5 16.953125 
C 42.5 26.671875 34.5 33.703125 25 34.796875 
C 32.59375 36.375 39.90625 43.0625 39.90625 52.015625 
C 39.90625 59.6875 32 65.296875 23 65.296875 
C 13.90625 65.296875 5.90625 59.828125 5.90625 52.015625 
C 5.90625 48.59375 8.5 48 9.796875 48 
C 11.90625 48 13.703125 49.296875 13.703125 51.890625 
C 13.703125 54.46875 11.90625 55.765625 9.796875 55.765625 
C 9.40625 55.765625 8.90625 55.765625 8.5 55.578125 
C 11.40625 61.859375 19.296875 63 22.796875 63 
C 26.296875 63 32.90625 61.328125 32.90625 51.875 
C 32.90625 49.109375 32.5 44.1875 29.09375 39.84375 
C 26.09375 36 22.703125 36 19.40625 35.6875 
C 18.90625 35.6875 16.59375 35.453125 16.203125 35.453125 
C 15.5 35.359375 15.09375 35.265625 15.09375 34.5 
C 15.09375 33.796875 15.203125 33.703125 17.203125 33.703125 
z
" id="CMR17-51"/>
       <path d="M 26.296875 24.703125 
C 26.296875 31.875 25.59375 44.015625 19.59375 56.859375 
C 14.796875 67.234375 6.59375 74.5 5.40625 74.5 
C 5.09375 74.5 4.703125 74.390625 4.703125 73.890625 
C 4.703125 73.703125 4.796875 73.59375 4.90625 73.390625 
C 9.703125 68.40625 21.90625 55.75 21.90625 24.75 
C 21.90625 -6.359375 9.796875 -19.015625 4.90625 -24.015625 
C 4.796875 -24.203125 4.703125 -24.3125 4.703125 -24.5 
C 4.703125 -25 5.09375 -25 5.40625 -25 
C 6.5 -25 15 -17.625 19.90625 -6.65625 
C 24.90625 4.390625 26.296875 15.140625 26.296875 24.703125 
z
" id="CMR17-41"/>
      </defs>
      <use transform="scale(0.996264)" xlink:href="#CMR17-40"/>
      <use transform="translate(35.280768 0)scale(0.996264)" xlink:href="#CMR17-50"/>
      <use transform="translate(80.971245 0)scale(0.996264)" xlink:href="#CMR17-44"/>
      <use transform="translate(135.91827 0)scale(0.996264)" xlink:href="#CMR17-49"/>
      <use transform="translate(181.608747 0)scale(0.996264)" xlink:href="#CMR17-51"/>
      <use transform="translate(227.299224 0)scale(0.996264)" xlink:href="#CMR17-41"/>
     </g>
    </g>
   </g>
   <g id="LineCollection_1">
    <path clip-path="url(#pc3f1100a0c)" d="M 102.526363 77.967545 
L 102.526363 77.600394 
" style="fill:none;stroke:#ff0000;stroke-opacity:0.2;stroke-width:2;"/>
    <path clip-path="url(#pc3f1100a0c)" d="M 122.609003 121.251454 
L 122.609003 120.997431 
" style="fill:none;stroke:#ff0000;stroke-opacity:0.2;stroke-width:2;"/>
    <path clip-path="url(#pc3f1100a0c)" d="M 142.691644 145.512022 
L 142.691644 145.32932 
" style="fill:none;stroke:#ff0000;stroke-opacity:0.2;stroke-width:2;"/>
    <path clip-path="url(#pc3f1100a0c)" d="M 162.774284 160.14957 
L 162.774284 159.978548 
" style="fill:none;stroke:#ff0000;stroke-opacity:0.2;stroke-width:2;"/>
    <path clip-path="url(#pc3f1100a0c)" d="M 182.856924 169.536923 
L 182.856924 169.378707 
" style="fill:none;stroke:#ff0000;stroke-opacity:0.2;stroke-width:2;"/>
    <path clip-path="url(#pc3f1100a0c)" d="M 202.939564 175.839632 
L 202.939564 175.712411 
" style="fill:none;stroke:#ff0000;stroke-opacity:0.2;stroke-width:2;"/>
    <path clip-path="url(#pc3f1100a0c)" d="M 223.022205 180.212481 
L 223.022205 180.116773 
" style="fill:none;stroke:#ff0000;stroke-opacity:0.2;stroke-width:2;"/>
    <path clip-path="url(#pc3f1100a0c)" d="M 243.104845 183.31144 
L 243.104845 183.234672 
" style="fill:none;stroke:#ff0000;stroke-opacity:0.2;stroke-width:2;"/>
    <path clip-path="url(#pc3f1100a0c)" d="M 263.187485 185.531443 
L 263.187485 185.460028 
" style="fill:none;stroke:#ff0000;stroke-opacity:0.2;stroke-width:2;"/>
    <path clip-path="url(#pc3f1100a0c)" d="M 283.270125 187.12231 
L 283.270125 187.049899 
" style="fill:none;stroke:#ff0000;stroke-opacity:0.2;stroke-width:2;"/>
    <path clip-path="url(#pc3f1100a0c)" d="M 303.352766 188.250349 
L 303.352766 188.176246 
" style="fill:none;stroke:#ff0000;stroke-opacity:0.2;stroke-width:2;"/>
    <path clip-path="url(#pc3f1100a0c)" d="M 323.435406 189.029494 
L 323.435406 188.954707 
" style="fill:none;stroke:#ff0000;stroke-opacity:0.2;stroke-width:2;"/>
    <path clip-path="url(#pc3f1100a0c)" d="M 343.518046 189.537097 
L 343.518046 189.462472 
" style="fill:none;stroke:#ff0000;stroke-opacity:0.2;stroke-width:2;"/>
   </g>
   <g id="LineCollection_2">
    <path clip-path="url(#pc3f1100a0c)" d="M 102.526363 77.967545 
L 102.526363 77.600394 
" style="fill:none;stroke:#ff0000;stroke-width:2;"/>
    <path clip-path="url(#pc3f1100a0c)" d="M 122.609003 121.251454 
L 122.609003 120.997431 
" style="fill:none;stroke:#ff0000;stroke-width:2;"/>
    <path clip-path="url(#pc3f1100a0c)" d="M 142.691644 145.512022 
L 142.691644 145.32932 
" style="fill:none;stroke:#ff0000;stroke-width:2;"/>
    <path clip-path="url(#pc3f1100a0c)" d="M 162.774284 160.14957 
L 162.774284 159.978548 
" style="fill:none;stroke:#ff0000;stroke-width:2;"/>
    <path clip-path="url(#pc3f1100a0c)" d="M 182.856924 169.536923 
L 182.856924 169.378707 
" style="fill:none;stroke:#ff0000;stroke-width:2;"/>
    <path clip-path="url(#pc3f1100a0c)" d="M 202.939564 175.839632 
L 202.939564 175.712411 
" style="fill:none;stroke:#ff0000;stroke-width:2;"/>
    <path clip-path="url(#pc3f1100a0c)" d="M 223.022205 180.212481 
L 223.022205 180.116773 
" style="fill:none;stroke:#ff0000;stroke-width:2;"/>
    <path clip-path="url(#pc3f1100a0c)" d="M 243.104845 183.31144 
L 243.104845 183.234672 
" style="fill:none;stroke:#ff0000;stroke-width:2;"/>
    <path clip-path="url(#pc3f1100a0c)" d="M 263.187485 185.531443 
L 263.187485 185.460028 
" style="fill:none;stroke:#ff0000;stroke-width:2;"/>
    <path clip-path="url(#pc3f1100a0c)" d="M 283.270125 187.12231 
L 283.270125 187.049899 
" style="fill:none;stroke:#ff0000;stroke-width:2;"/>
    <path clip-path="url(#pc3f1100a0c)" d="M 303.352766 188.250349 
L 303.352766 188.176246 
" style="fill:none;stroke:#ff0000;stroke-width:2;"/>
   </g>
   <g id="LineCollection_3">
    <path clip-path="url(#pc3f1100a0c)" d="M 102.526363 78.004443 
L 102.526363 77.621289 
" style="fill:none;stroke:#000000;stroke-width:2;"/>
    <path clip-path="url(#pc3f1100a0c)" d="M 122.609003 121.268468 
L 122.609003 120.95242 
" style="fill:none;stroke:#000000;stroke-width:2;"/>
    <path clip-path="url(#pc3f1100a0c)" d="M 142.691644 145.560074 
L 142.691644 145.187812 
" style="fill:none;stroke:#000000;stroke-width:2;"/>
    <path clip-path="url(#pc3f1100a0c)" d="M 162.774284 160.317699 
L 162.774284 159.964686 
" style="fill:none;stroke:#000000;stroke-width:2;"/>
    <path clip-path="url(#pc3f1100a0c)" d="M 182.856924 169.656772 
L 182.856924 169.359891 
" style="fill:none;stroke:#000000;stroke-width:2;"/>
    <path clip-path="url(#pc3f1100a0c)" d="M 202.939564 175.913273 
L 202.939564 175.647387 
" style="fill:none;stroke:#000000;stroke-width:2;"/>
    <path clip-path="url(#pc3f1100a0c)" d="M 223.022205 180.232172 
L 223.022205 180.000497 
" style="fill:none;stroke:#000000;stroke-width:2;"/>
    <path clip-path="url(#pc3f1100a0c)" d="M 243.104845 183.338657 
L 243.104845 183.131695 
" style="fill:none;stroke:#000000;stroke-width:2;"/>
    <path clip-path="url(#pc3f1100a0c)" d="M 263.187485 185.548932 
L 263.187485 185.377561 
" style="fill:none;stroke:#000000;stroke-width:2;"/>
    <path clip-path="url(#pc3f1100a0c)" d="M 283.270125 187.149872 
L 283.270125 187.02167 
" style="fill:none;stroke:#000000;stroke-width:2;"/>
    <path clip-path="url(#pc3f1100a0c)" d="M 303.352766 188.298482 
L 303.352766 188.184543 
" style="fill:none;stroke:#000000;stroke-width:2;"/>
    <path clip-path="url(#pc3f1100a0c)" d="M 323.435406 189.089259 
L 323.435406 188.994895 
" style="fill:none;stroke:#000000;stroke-width:2;"/>
    <path clip-path="url(#pc3f1100a0c)" d="M 343.518046 189.608264 
L 343.518046 189.523291 
" style="fill:none;stroke:#000000;stroke-width:2;"/>
   </g>
   <g id="line2d_6">
    <path clip-path="url(#pc3f1100a0c)" d="M 102.526363 77.783969 
L 122.609003 121.124442 
L 142.691644 145.420671 
L 162.774284 160.064059 
L 182.856924 169.457815 
L 202.939564 175.776022 
L 223.022205 180.164627 
L 243.104845 183.273056 
L 263.187485 185.495735 
L 283.270125 187.086105 
L 303.352766 188.213297 
L 323.435406 188.992101 
L 343.518046 189.499784 
" style="fill:none;stroke:#ff0000;stroke-linecap:square;stroke-opacity:0.2;stroke-width:2;"/>
    <defs>
     <path d="M 0 4 
C 1.060812 4 2.078319 3.578535 2.828427 2.828427 
C 3.578535 2.078319 4 1.060812 4 0 
C 4 -1.060812 3.578535 -2.078319 2.828427 -2.828427 
C 2.078319 -3.578535 1.060812 -4 0 -4 
C -1.060812 -4 -2.078319 -3.578535 -2.828427 -2.828427 
C -3.578535 -2.078319 -4 -1.060812 -4 0 
C -4 1.060812 -3.578535 2.078319 -2.828427 2.828427 
C -2.078319 3.578535 -1.060812 4 0 4 
z
" id="ma50dc28225" style="stroke:#ff0000;stroke-opacity:0.2;"/>
    </defs>
    <g clip-path="url(#pc3f1100a0c)">
     <use style="fill:#ff0000;fill-opacity:0.2;stroke:#ff0000;stroke-opacity:0.2;" x="102.526363" xlink:href="#ma50dc28225" y="77.783969"/>
     <use style="fill:#ff0000;fill-opacity:0.2;stroke:#ff0000;stroke-opacity:0.2;" x="122.609003" xlink:href="#ma50dc28225" y="121.124442"/>
     <use style="fill:#ff0000;fill-opacity:0.2;stroke:#ff0000;stroke-opacity:0.2;" x="142.691644" xlink:href="#ma50dc28225" y="145.420671"/>
     <use style="fill:#ff0000;fill-opacity:0.2;stroke:#ff0000;stroke-opacity:0.2;" x="162.774284" xlink:href="#ma50dc28225" y="160.064059"/>
     <use style="fill:#ff0000;fill-opacity:0.2;stroke:#ff0000;stroke-opacity:0.2;" x="182.856924" xlink:href="#ma50dc28225" y="169.457815"/>
     <use style="fill:#ff0000;fill-opacity:0.2;stroke:#ff0000;stroke-opacity:0.2;" x="202.939564" xlink:href="#ma50dc28225" y="175.776022"/>
     <use style="fill:#ff0000;fill-opacity:0.2;stroke:#ff0000;stroke-opacity:0.2;" x="223.022205" xlink:href="#ma50dc28225" y="180.164627"/>
     <use style="fill:#ff0000;fill-opacity:0.2;stroke:#ff0000;stroke-opacity:0.2;" x="243.104845" xlink:href="#ma50dc28225" y="183.273056"/>
     <use style="fill:#ff0000;fill-opacity:0.2;stroke:#ff0000;stroke-opacity:0.2;" x="263.187485" xlink:href="#ma50dc28225" y="185.495735"/>
     <use style="fill:#ff0000;fill-opacity:0.2;stroke:#ff0000;stroke-opacity:0.2;" x="283.270125" xlink:href="#ma50dc28225" y="187.086105"/>
     <use style="fill:#ff0000;fill-opacity:0.2;stroke:#ff0000;stroke-opacity:0.2;" x="303.352766" xlink:href="#ma50dc28225" y="188.213297"/>
     <use style="fill:#ff0000;fill-opacity:0.2;stroke:#ff0000;stroke-opacity:0.2;" x="323.435406" xlink:href="#ma50dc28225" y="188.992101"/>
     <use style="fill:#ff0000;fill-opacity:0.2;stroke:#ff0000;stroke-opacity:0.2;" x="343.518046" xlink:href="#ma50dc28225" y="189.499784"/>
    </g>
   </g>
   <g id="line2d_7">
    <path clip-path="url(#pc3f1100a0c)" d="M 102.526363 77.783969 
L 122.609003 121.124442 
L 142.691644 145.420671 
L 162.774284 160.064059 
L 182.856924 169.457815 
L 202.939564 175.776022 
L 223.022205 180.164627 
L 243.104845 183.273056 
L 263.187485 185.495735 
L 283.270125 187.086105 
L 303.352766 188.213297 
" style="fill:none;stroke:#ff0000;stroke-linecap:square;stroke-width:2;"/>
    <defs>
     <path d="M 0 4 
C 1.060812 4 2.078319 3.578535 2.828427 2.828427 
C 3.578535 2.078319 4 1.060812 4 0 
C 4 -1.060812 3.578535 -2.078319 2.828427 -2.828427 
C 2.078319 -3.578535 1.060812 -4 0 -4 
C -1.060812 -4 -2.078319 -3.578535 -2.828427 -2.828427 
C -3.578535 -2.078319 -4 -1.060812 -4 0 
C -4 1.060812 -3.578535 2.078319 -2.828427 2.828427 
C -2.078319 3.578535 -1.060812 4 0 4 
z
" id="m94daff97d4" style="stroke:#ff0000;"/>
    </defs>
    <g clip-path="url(#pc3f1100a0c)">
     <use style="fill:#ff0000;stroke:#ff0000;" x="102.526363" xlink:href="#m94daff97d4" y="77.783969"/>
     <use style="fill:#ff0000;stroke:#ff0000;" x="122.609003" xlink:href="#m94daff97d4" y="121.124442"/>
     <use style="fill:#ff0000;stroke:#ff0000;" x="142.691644" xlink:href="#m94daff97d4" y="145.420671"/>
     <use style="fill:#ff0000;stroke:#ff0000;" x="162.774284" xlink:href="#m94daff97d4" y="160.064059"/>
     <use style="fill:#ff0000;stroke:#ff0000;" x="182.856924" xlink:href="#m94daff97d4" y="169.457815"/>
     <use style="fill:#ff0000;stroke:#ff0000;" x="202.939564" xlink:href="#m94daff97d4" y="175.776022"/>
     <use style="fill:#ff0000;stroke:#ff0000;" x="223.022205" xlink:href="#m94daff97d4" y="180.164627"/>
     <use style="fill:#ff0000;stroke:#ff0000;" x="243.104845" xlink:href="#m94daff97d4" y="183.273056"/>
     <use style="fill:#ff0000;stroke:#ff0000;" x="263.187485" xlink:href="#m94daff97d4" y="185.495735"/>
     <use style="fill:#ff0000;stroke:#ff0000;" x="283.270125" xlink:href="#m94daff97d4" y="187.086105"/>
     <use style="fill:#ff0000;stroke:#ff0000;" x="303.352766" xlink:href="#m94daff97d4" y="188.213297"/>
    </g>
   </g>
   <g id="line2d_8">
    <defs>
     <path d="M 0 4 
C 1.060812 4 2.078319 3.578535 2.828427 2.828427 
C 3.578535 2.078319 4 1.060812 4 0 
C 4 -1.060812 3.578535 -2.078319 2.828427 -2.828427 
C 2.078319 -3.578535 1.060812 -4 0 -4 
C -1.060812 -4 -2.078319 -3.578535 -2.828427 -2.828427 
C -3.578535 -2.078319 -4 -1.060812 -4 0 
C -4 1.060812 -3.578535 2.078319 -2.828427 2.828427 
C -2.078319 3.578535 -1.060812 4 0 4 
z
" id="me41585dde9" style="stroke:#000000;"/>
    </defs>
    <g clip-path="url(#pc3f1100a0c)">
     <use style="stroke:#000000;" x="102.526363" xlink:href="#me41585dde9" y="77.812866"/>
     <use style="stroke:#000000;" x="122.609003" xlink:href="#me41585dde9" y="121.110444"/>
     <use style="stroke:#000000;" x="142.691644" xlink:href="#me41585dde9" y="145.373943"/>
     <use style="stroke:#000000;" x="162.774284" xlink:href="#me41585dde9" y="160.141193"/>
     <use style="stroke:#000000;" x="182.856924" xlink:href="#me41585dde9" y="169.508331"/>
     <use style="stroke:#000000;" x="202.939564" xlink:href="#me41585dde9" y="175.78033"/>
     <use style="stroke:#000000;" x="223.022205" xlink:href="#me41585dde9" y="180.116335"/>
     <use style="stroke:#000000;" x="243.104845" xlink:href="#me41585dde9" y="183.235176"/>
     <use style="stroke:#000000;" x="263.187485" xlink:href="#me41585dde9" y="185.463246"/>
     <use style="stroke:#000000;" x="283.270125" xlink:href="#me41585dde9" y="187.085771"/>
     <use style="stroke:#000000;" x="303.352766" xlink:href="#me41585dde9" y="188.241513"/>
     <use style="stroke:#000000;" x="323.435406" xlink:href="#me41585dde9" y="189.042077"/>
     <use style="stroke:#000000;" x="343.518046" xlink:href="#me41585dde9" y="189.565777"/>
    </g>
   </g>
   <g id="patch_3">
    <path d="M 90.476779 195.208657 
L 90.476779 72 
" style="fill:none;stroke:#000000;stroke-linecap:square;stroke-linejoin:miter;stroke-width:0.8;"/>
   </g>
   <g id="patch_4">
    <path d="M 355.56763 195.208657 
L 355.56763 72 
" style="fill:none;stroke:#000000;stroke-linecap:square;stroke-linejoin:miter;stroke-width:0.8;"/>
   </g>
   <g id="patch_5">
    <path d="M 90.476779 195.208657 
L 355.56763 195.208657 
" style="fill:none;stroke:#000000;stroke-linecap:square;stroke-linejoin:miter;stroke-width:0.8;"/>
   </g>
   <g id="patch_6">
    <path d="M 90.476779 72 
L 355.56763 72 
" style="fill:none;stroke:#000000;stroke-linecap:square;stroke-linejoin:miter;stroke-width:0.8;"/>
   </g>
   <g id="text_7">
    <!-- $C(t)$ -->
    <g transform="translate(201.094052 66)scale(0.24 -0.24)">
     <defs>
      <path d="M 74.703125 69.109375 
C 74.703125 70 74 70 73.796875 70 
C 73.59375 70 73.203125 70 72.40625 69 
L 65.5 60.65625 
C 62 66.625 56.5 70 49 70 
C 27.40625 70 5 48.25 5 24.921875 
C 5 8.328125 16.703125 -2 31.296875 -2 
C 39.296875 -2 46.296875 1.375 52.09375 6.25 
C 60.796875 13.484375 63.40625 23.140625 63.40625 23.921875 
C 63.40625 24.8125 62.59375 24.8125 62.296875 24.8125 
C 61.40625 24.8125 61.296875 24.21875 61.09375 23.8125 
C 56.5 8.34375 43 0.890625 33 0.890625 
C 22.40625 0.890625 13.203125 7.640625 13.203125 21.734375 
C 13.203125 24.921875 14.203125 42.1875 25.5 55.1875 
C 31 61.546875 40.40625 67.109375 49.90625 67.109375 
C 60.90625 67.109375 65.796875 58.078125 65.796875 47.9375 
C 65.796875 45.359375 65.5 43.1875 65.5 42.78125 
C 65.5 41.890625 66.5 41.890625 66.796875 41.890625 
C 67.90625 41.890625 68 41.984375 68.40625 43.765625 
z
" id="CMMI12-67"/>
      <path d="M 20.09375 40.09375 
L 29.296875 40.09375 
C 31.203125 40.09375 32.203125 40.09375 32.203125 41.890625 
C 32.203125 43 31.59375 43 29.59375 43 
L 20.796875 43 
L 24.5 57.6875 
C 24.90625 59.078125 24.90625 59.28125 24.90625 60 
C 24.90625 61.609375 23.59375 62.5 22.296875 62.5 
C 21.5 62.5 19.203125 62.203125 18.40625 58.984375 
L 14.5 43 
L 5.09375 43 
C 3.09375 43 2.203125 43 2.203125 41.09375 
C 2.203125 40.09375 2.90625 40.09375 4.796875 40.09375 
L 13.703125 40.09375 
L 7.09375 13.765625 
C 6.296875 10.28125 6 9.28125 6 7.984375 
C 6 3.296875 9.296875 -1 14.90625 -1 
C 25 -1 30.40625 13.5625 30.40625 14.25 
C 30.40625 14.859375 30 15.15625 29.40625 15.15625 
C 29.203125 15.15625 28.796875 15.15625 28.59375 14.75 
C 28.5 14.65625 28.40625 14.546875 27.703125 12.953125 
C 25.59375 7.984375 21 1 15.203125 1 
C 12.203125 1 12 3.5 12 5.6875 
C 12 5.78125 12 7.6875 12.296875 8.875 
z
" id="CMMI12-116"/>
     </defs>
     <use transform="scale(0.996264)" xlink:href="#CMMI12-67"/>
     <use transform="translate(76.946847 0)scale(0.996264)" xlink:href="#CMR17-40"/>
     <use transform="translate(112.227614 0)scale(0.996264)" xlink:href="#CMMI12-116"/>
     <use transform="translate(147.453945 0)scale(0.996264)" xlink:href="#CMR17-41"/>
    </g>
   </g>
  </g>
  <g id="axes_2">
   <g id="patch_7">
    <path d="M 414.909149 195.208657 
L 680 195.208657 
L 680 72 
L 414.909149 72 
z
" style="fill:#ffffff;"/>
   </g>
   <g id="matplotlib.axis_3">
    <g id="xtick_3">
     <g id="line2d_9">
      <g>
       <use style="stroke:#000000;stroke-width:0.8;" x="487.206654" xlink:href="#m9a005329f4" y="195.208657"/>
      </g>
     </g>
     <g id="text_8">
      <!-- $\mathdefault{5}$ -->
      <g transform="translate(483.30466 213.278245)scale(0.16 -0.16)">
       <use transform="scale(0.996264)" xlink:href="#CMR17-53"/>
      </g>
     </g>
    </g>
    <g id="xtick_4">
     <g id="line2d_10">
      <g>
       <use style="stroke:#000000;stroke-width:0.8;" x="587.619855" xlink:href="#m9a005329f4" y="195.208657"/>
      </g>
     </g>
     <g id="text_9">
      <!-- $\mathdefault{10}$ -->
      <g transform="translate(579.815868 213.278245)scale(0.16 -0.16)">
       <use transform="scale(0.996264)" xlink:href="#CMR17-49"/>
       <use transform="translate(45.690477 0)scale(0.996264)" xlink:href="#CMR17-48"/>
      </g>
     </g>
    </g>
   </g>
   <g id="matplotlib.axis_4">
    <g id="ytick_4">
     <g id="line2d_11">
      <g>
       <use style="stroke:#000000;stroke-width:0.8;" x="414.909149" xlink:href="#m5209347d45" y="195.208657"/>
      </g>
     </g>
     <g id="text_10">
      <!-- $\mathdefault{−5}$ -->
      <g transform="translate(387.707166 200.743451)scale(0.16 -0.16)">
       <defs>
        <path d="M 65.90625 23 
C 67.59375 23 69.40625 23 69.40625 25 
C 69.40625 27 67.59375 27 65.90625 27 
L 11.796875 27 
C 10.09375 27 8.296875 27 8.296875 25 
C 8.296875 23 10.09375 23 11.796875 23 
z
" id="CMSY10-0"/>
       </defs>
       <use transform="scale(0.996264)" xlink:href="#CMSY10-0"/>
       <use transform="translate(77.487468 0)scale(0.996264)" xlink:href="#CMR17-53"/>
      </g>
     </g>
    </g>
    <g id="ytick_5">
     <g id="line2d_12">
      <g>
       <use style="stroke:#000000;stroke-width:0.8;" x="414.909149" xlink:href="#m5209347d45" y="133.604329"/>
      </g>
     </g>
     <g id="text_11">
      <!-- $\mathdefault{0}$ -->
      <g transform="translate(400.105162 139.139123)scale(0.16 -0.16)">
       <use transform="scale(0.996264)" xlink:href="#CMR17-48"/>
      </g>
     </g>
    </g>
    <g id="ytick_6">
     <g id="line2d_13">
      <g>
       <use style="stroke:#000000;stroke-width:0.8;" x="414.909149" xlink:href="#m5209347d45" y="72"/>
      </g>
     </g>
     <g id="text_12">
      <!-- $\mathdefault{5}$ -->
      <g transform="translate(400.105162 77.534794)scale(0.16 -0.16)">
       <use transform="scale(0.996264)" xlink:href="#CMR17-53"/>
      </g>
     </g>
    </g>
   </g>
   <g id="LineCollection_4">
    <path clip-path="url(#pbaa2e8bd70)" d="M 426.958733 143.552211 
L 426.958733 119.939633 
" style="fill:none;stroke:#ff0000;stroke-opacity:0.2;stroke-width:2;"/>
    <path clip-path="url(#pbaa2e8bd70)" d="M 447.041373 144.59867 
L 447.041373 124.79285 
" style="fill:none;stroke:#ff0000;stroke-opacity:0.2;stroke-width:2;"/>
    <path clip-path="url(#pbaa2e8bd70)" d="M 467.124013 142.744458 
L 467.124013 130.650571 
" style="fill:none;stroke:#ff0000;stroke-opacity:0.2;stroke-width:2;"/>
    <path clip-path="url(#pbaa2e8bd70)" d="M 487.206654 134.189127 
L 487.206654 122.251091 
" style="fill:none;stroke:#ff0000;stroke-opacity:0.2;stroke-width:2;"/>
    <path clip-path="url(#pbaa2e8bd70)" d="M 507.289294 135.977543 
L 507.289294 122.845193 
" style="fill:none;stroke:#ff0000;stroke-opacity:0.2;stroke-width:2;"/>
    <path clip-path="url(#pbaa2e8bd70)" d="M 527.371934 139.100317 
L 527.371934 127.309766 
" style="fill:none;stroke:#ff0000;stroke-opacity:0.2;stroke-width:2;"/>
    <path clip-path="url(#pbaa2e8bd70)" d="M 547.454574 143.830705 
L 547.454574 133.650989 
" style="fill:none;stroke:#ff0000;stroke-opacity:0.2;stroke-width:2;"/>
    <path clip-path="url(#pbaa2e8bd70)" d="M 567.537215 142.684586 
L 567.537215 133.544341 
" style="fill:none;stroke:#ff0000;stroke-opacity:0.2;stroke-width:2;"/>
    <path clip-path="url(#pbaa2e8bd70)" d="M 587.619855 143.410414 
L 587.619855 133.14149 
" style="fill:none;stroke:#ff0000;stroke-opacity:0.2;stroke-width:2;"/>
    <path clip-path="url(#pbaa2e8bd70)" d="M 607.702495 140.627494 
L 607.702495 126.709347 
" style="fill:none;stroke:#ff0000;stroke-opacity:0.2;stroke-width:2;"/>
    <path clip-path="url(#pbaa2e8bd70)" d="M 627.785135 135.51542 
L 627.785135 119.488934 
" style="fill:none;stroke:#ff0000;stroke-opacity:0.2;stroke-width:2;"/>
    <path clip-path="url(#pbaa2e8bd70)" d="M 647.867776 130.318407 
L 647.867776 110.788956 
" style="fill:none;stroke:#ff0000;stroke-opacity:0.2;stroke-width:2;"/>
    <path clip-path="url(#pbaa2e8bd70)" d="M 667.950416 125.287065 
L 667.950416 103.646087 
" style="fill:none;stroke:#ff0000;stroke-opacity:0.2;stroke-width:2;"/>
   </g>
   <g id="LineCollection_5">
    <path clip-path="url(#pbaa2e8bd70)" d="M 426.958733 143.552211 
L 426.958733 119.939633 
" style="fill:none;stroke:#ff0000;stroke-width:2;"/>
    <path clip-path="url(#pbaa2e8bd70)" d="M 447.041373 144.59867 
L 447.041373 124.79285 
" style="fill:none;stroke:#ff0000;stroke-width:2;"/>
    <path clip-path="url(#pbaa2e8bd70)" d="M 467.124013 142.744458 
L 467.124013 130.650571 
" style="fill:none;stroke:#ff0000;stroke-width:2;"/>
    <path clip-path="url(#pbaa2e8bd70)" d="M 487.206654 134.189127 
L 487.206654 122.251091 
" style="fill:none;stroke:#ff0000;stroke-width:2;"/>
    <path clip-path="url(#pbaa2e8bd70)" d="M 507.289294 135.977543 
L 507.289294 122.845193 
" style="fill:none;stroke:#ff0000;stroke-width:2;"/>
    <path clip-path="url(#pbaa2e8bd70)" d="M 527.371934 139.100317 
L 527.371934 127.309766 
" style="fill:none;stroke:#ff0000;stroke-width:2;"/>
    <path clip-path="url(#pbaa2e8bd70)" d="M 547.454574 143.830705 
L 547.454574 133.650989 
" style="fill:none;stroke:#ff0000;stroke-width:2;"/>
    <path clip-path="url(#pbaa2e8bd70)" d="M 567.537215 142.684586 
L 567.537215 133.544341 
" style="fill:none;stroke:#ff0000;stroke-width:2;"/>
    <path clip-path="url(#pbaa2e8bd70)" d="M 587.619855 143.410414 
L 587.619855 133.14149 
" style="fill:none;stroke:#ff0000;stroke-width:2;"/>
    <path clip-path="url(#pbaa2e8bd70)" d="M 607.702495 140.627494 
L 607.702495 126.709347 
" style="fill:none;stroke:#ff0000;stroke-width:2;"/>
    <path clip-path="url(#pbaa2e8bd70)" d="M 627.785135 135.51542 
L 627.785135 119.488934 
" style="fill:none;stroke:#ff0000;stroke-width:2;"/>
   </g>
   <g id="line2d_14">
    <path clip-path="url(#pbaa2e8bd70)" d="M 414.909149 133.604329 
L 680 133.604329 
" style="fill:none;stroke:#000000;stroke-linecap:square;stroke-width:2;"/>
   </g>
   <g id="line2d_15">
    <path clip-path="url(#pbaa2e8bd70)" d="M 426.958733 131.745922 
L 447.041373 134.69576 
L 467.124013 136.697515 
L 487.206654 128.220109 
L 507.289294 129.411368 
L 527.371934 133.205042 
L 547.454574 138.740847 
L 567.537215 138.114464 
L 587.619855 138.275952 
L 607.702495 133.66842 
L 627.785135 127.502177 
L 647.867776 120.553681 
L 667.950416 114.466576 
" style="fill:none;stroke:#ff0000;stroke-linecap:square;stroke-opacity:0.2;stroke-width:2;"/>
   </g>
   <g id="line2d_16">
    <path clip-path="url(#pbaa2e8bd70)" d="M 426.958733 131.745922 
L 447.041373 134.69576 
L 467.124013 136.697515 
L 487.206654 128.220109 
L 507.289294 129.411368 
L 527.371934 133.205042 
L 547.454574 138.740847 
L 567.537215 138.114464 
L 587.619855 138.275952 
L 607.702495 133.66842 
L 627.785135 127.502177 
" style="fill:none;stroke:#ff0000;stroke-linecap:square;stroke-width:2;"/>
   </g>
   <g id="patch_8">
    <path d="M 414.909149 195.208657 
L 414.909149 72 
" style="fill:none;stroke:#000000;stroke-linecap:square;stroke-linejoin:miter;stroke-width:0.8;"/>
   </g>
   <g id="patch_9">
    <path d="M 680 195.208657 
L 680 72 
" style="fill:none;stroke:#000000;stroke-linecap:square;stroke-linejoin:miter;stroke-width:0.8;"/>
   </g>
   <g id="patch_10">
    <path d="M 414.909149 195.208657 
L 680 195.208657 
" style="fill:none;stroke:#000000;stroke-linecap:square;stroke-linejoin:miter;stroke-width:0.8;"/>
   </g>
   <g id="patch_11">
    <path d="M 414.909149 72 
L 680 72 
" style="fill:none;stroke:#000000;stroke-linecap:square;stroke-linejoin:miter;stroke-width:0.8;"/>
   </g>
   <g id="text_13">
    <!-- $(C_{\rm fit}(t) - C(t))/\sigma_t$ -->
    <g transform="translate(457.924156 66)scale(0.24 -0.24)">
     <defs>
      <path d="M 39.90625 43.1875 
C 37.5 43.1875 30.09375 43.1875 28.203125 42.796875 
C 27.59375 42.578125 27.40625 42.578125 26.203125 42.578125 
L 14.796875 42.578125 
L 14.796875 54.203125 
C 14.796875 63.640625 22.40625 68 28.40625 68 
C 30.296875 68 34.59375 67.5 36.796875 64.078125 
C 35.796875 64.078125 32.59375 64.078125 32.59375 60.59375 
C 32.59375 58.203125 34.203125 57 36.203125 57 
C 38 57 39.796875 58 39.796875 60.703125 
C 39.796875 65.703125 35 69.59375 28.796875 69.59375 
C 20.90625 69.59375 9.90625 65.125 9.90625 54.203125 
L 9.90625 42.578125 
L 1.90625 42.578125 
L 1.90625 40 
L 9.90625 40 
L 9.90625 6.671875 
C 9.90625 2.875 9.5 2.390625 3.09375 2.390625 
L 3.09375 -0.203125 
C 5.5 0 9.90625 0 12.40625 0 
C 15 0 19.40625 0 21.796875 -0.203125 
L 21.796875 2.390625 
C 15.40625 2.390625 15 2.78125 15 6.671875 
L 15 40 
L 29.703125 40 
C 34 40 34.796875 39.09375 34.796875 34.71875 
L 34.796875 6.671875 
C 34.796875 2.875 34.40625 2.390625 28 2.390625 
L 28 -0.203125 
C 30.40625 0 34.796875 0 37.296875 0 
C 39.90625 0 44.296875 0 46.703125 -0.203125 
L 46.703125 2.390625 
C 40.296875 2.390625 39.90625 2.78125 39.90625 6.671875 
z
" id="CMR17-12"/>
      <path d="M 15.09375 40 
L 29.09375 40 
L 29.09375 42.578125 
L 15.09375 42.578125 
L 15.09375 61 
L 13.296875 61 
C 13.09375 50.703125 9.59375 41.6875 1.09375 41.6875 
L 1.09375 40 
L 9.796875 40 
L 9.796875 12.046875 
C 9.796875 10.15625 9.796875 -1 21.40625 -1 
C 27.296875 -1 30.703125 4.78125 30.703125 12.140625 
L 30.703125 17.8125 
L 28.90625 17.8125 
L 28.90625 12.234375 
C 28.90625 5.375 26.203125 0.796875 22 0.796875 
C 19.09375 0.796875 15.09375 2.78125 15.09375 11.84375 
z
" id="CMR17-116"/>
      <path d="M 42.90625 71.28125 
C 42.90625 71.390625 43.5 72.90625 43.5 73.09375 
C 43.5 74.296875 42.5 75 41.703125 75 
C 41.203125 75 40.296875 75 39.5 72.796875 
L 6 -21.296875 
C 6 -21.40625 5.40625 -22.890625 5.40625 -23.09375 
C 5.40625 -24.296875 6.40625 -25 7.203125 -25 
C 7.796875 -25 8.703125 -24.890625 9.40625 -22.796875 
z
" id="CMMI12-61"/>
      <path d="M 50.796875 37.625 
C 52.09375 37.625 55.40625 37.625 55.40625 40.8125 
C 55.40625 43 53.5 43 51.703125 43 
L 29.59375 43 
C 14.59375 43 3.796875 26.34375 3.796875 14.5625 
C 3.796875 6.09375 9.296875 -1 18.296875 -1 
C 30.09375 -1 43 11.671875 43 26.640625 
C 43 30.53125 42.09375 34.3125 39.703125 37.625 
z
M 18.40625 1 
C 13.296875 1 9.59375 4.890625 9.59375 11.78125 
C 9.59375 17.765625 13.203125 37.625 27.90625 37.625 
C 32.203125 37.625 37 35.53125 37 27.828125 
C 37 24.34375 35.40625 15.953125 31.90625 10.1875 
C 28.296875 4.296875 22.90625 1 18.40625 1 
z
" id="CMMI12-27"/>
     </defs>
     <use transform="scale(0.996264)" xlink:href="#CMR17-40"/>
     <use transform="translate(35.280768 0)scale(0.996264)" xlink:href="#CMMI12-67"/>
     <use transform="translate(105.072804 -14.943915)scale(0.697382)" xlink:href="#CMR17-12"/>
     <use transform="translate(139.892198 -14.943915)scale(0.697382)" xlink:href="#CMR17-116"/>
     <use transform="translate(165.08675 0)scale(0.996264)" xlink:href="#CMR17-40"/>
     <use transform="translate(200.367518 0)scale(0.996264)" xlink:href="#CMMI12-116"/>
     <use transform="translate(235.593849 0)scale(0.996264)" xlink:href="#CMR17-41"/>
     <use transform="translate(293.013823 0)scale(0.996264)" xlink:href="#CMSY10-0"/>
     <use transform="translate(392.640498 0)scale(0.996264)" xlink:href="#CMMI12-67"/>
     <use transform="translate(469.587345 0)scale(0.996264)" xlink:href="#CMR17-40"/>
     <use transform="translate(504.868112 0)scale(0.996264)" xlink:href="#CMMI12-116"/>
     <use transform="translate(540.094443 0)scale(0.996264)" xlink:href="#CMR17-41"/>
     <use transform="translate(575.37521 0)scale(0.996264)" xlink:href="#CMR17-41"/>
     <use transform="translate(610.655978 0)scale(0.996264)" xlink:href="#CMMI12-61"/>
     <use transform="translate(659.430897 0)scale(0.996264)" xlink:href="#CMMI12-27"/>
     <use transform="translate(714.876358 -14.943915)scale(0.697382)" xlink:href="#CMMI12-116"/>
    </g>
   </g>
  </g>
  <g id="axes_3">
   <g id="patch_12">
    <path d="M 90.476779 391.019796 
L 355.56763 391.019796 
L 355.56763 267.811139 
L 90.476779 267.811139 
z
" style="fill:#ffffff;"/>
   </g>
   <g id="matplotlib.axis_5">
    <g id="xtick_5">
     <g id="line2d_17">
      <g>
       <use style="stroke:#000000;stroke-width:0.8;" x="162.774284" xlink:href="#m9a005329f4" y="391.019796"/>
      </g>
     </g>
     <g id="text_14">
      <!-- $\mathdefault{5}$ -->
      <g transform="translate(158.87229 409.089385)scale(0.16 -0.16)">
       <use transform="scale(0.996264)" xlink:href="#CMR17-53"/>
      </g>
     </g>
    </g>
    <g id="xtick_6">
     <g id="line2d_18">
      <g>
       <use style="stroke:#000000;stroke-width:0.8;" x="263.187485" xlink:href="#m9a005329f4" y="391.019796"/>
      </g>
     </g>
     <g id="text_15">
      <!-- $\mathdefault{10}$ -->
      <g transform="translate(255.383498 409.089385)scale(0.16 -0.16)">
       <use transform="scale(0.996264)" xlink:href="#CMR17-49"/>
       <use transform="translate(45.690477 0)scale(0.996264)" xlink:href="#CMR17-48"/>
      </g>
     </g>
    </g>
   </g>
   <g id="matplotlib.axis_6">
    <g id="ytick_7">
     <g id="line2d_19">
      <g>
       <use style="stroke:#000000;stroke-width:0.8;" x="90.476779" xlink:href="#m5209347d45" y="387.631863"/>
      </g>
     </g>
     <g id="text_16">
      <!-- $\mathdefault{0}$ -->
      <g transform="translate(75.672792 393.166657)scale(0.16 -0.16)">
       <use transform="scale(0.996264)" xlink:href="#CMR17-48"/>
      </g>
     </g>
    </g>
    <g id="ytick_8">
     <g id="line2d_20">
      <g>
       <use style="stroke:#000000;stroke-width:0.8;" x="90.476779" xlink:href="#m5209347d45" y="332.719299"/>
      </g>
     </g>
     <g id="text_17">
      <!-- $\mathdefault{10}$ -->
      <g transform="translate(67.868805 338.254093)scale(0.16 -0.16)">
       <use transform="scale(0.996264)" xlink:href="#CMR17-49"/>
       <use transform="translate(45.690477 0)scale(0.996264)" xlink:href="#CMR17-48"/>
      </g>
     </g>
    </g>
    <g id="ytick_9">
     <g id="line2d_21">
      <g>
       <use style="stroke:#000000;stroke-width:0.8;" x="90.476779" xlink:href="#m5209347d45" y="277.806735"/>
      </g>
     </g>
     <g id="text_18">
      <!-- $\mathdefault{20}$ -->
      <g transform="translate(67.868805 283.341529)scale(0.16 -0.16)">
       <use transform="scale(0.996264)" xlink:href="#CMR17-50"/>
       <use transform="translate(45.690477 0)scale(0.996264)" xlink:href="#CMR17-48"/>
      </g>
     </g>
    </g>
    <g id="text_19">
     <!-- (2, 14) -->
     <g transform="translate(57.911226 360.925061)rotate(-90)scale(0.24 -0.24)">
      <defs>
       <path d="M 33.59375 64.40625 
C 33.59375 66.5 33.5 66.5 31.703125 66.5 
L 2 19.59375 
L 2 17 
L 27.796875 17 
L 27.796875 7.140625 
C 27.796875 3.5 27.59375 2.5 20.59375 2.5 
L 18.703125 2.5 
L 18.703125 0 
C 21.90625 0 27.296875 0 30.703125 0 
C 34.09375 0 39.5 0 42.703125 0 
L 42.703125 2.5 
L 40.796875 2.5 
C 33.796875 2.5 33.59375 3.5 33.59375 7.140625 
L 33.59375 17 
L 43.796875 17 
L 43.796875 19.59375 
L 33.59375 19.59375 
z
M 28.09375 57.859375 
L 28.09375 19.59375 
L 4 19.59375 
z
" id="CMR17-52"/>
      </defs>
      <use transform="scale(0.996264)" xlink:href="#CMR17-40"/>
      <use transform="translate(35.280768 0)scale(0.996264)" xlink:href="#CMR17-50"/>
      <use transform="translate(80.971245 0)scale(0.996264)" xlink:href="#CMR17-44"/>
      <use transform="translate(135.91827 0)scale(0.996264)" xlink:href="#CMR17-49"/>
      <use transform="translate(181.608747 0)scale(0.996264)" xlink:href="#CMR17-52"/>
      <use transform="translate(227.299224 0)scale(0.996264)" xlink:href="#CMR17-41"/>
     </g>
    </g>
   </g>
   <g id="LineCollection_6">
    <path clip-path="url(#pbb3a928042)" d="M 102.526363 273.778719 
L 102.526363 273.411533 
" style="fill:none;stroke:#ff0000;stroke-opacity:0.2;stroke-width:2;"/>
    <path clip-path="url(#pbb3a928042)" d="M 122.609003 317.069114 
L 122.609003 316.815765 
" style="fill:none;stroke:#ff0000;stroke-opacity:0.2;stroke-width:2;"/>
    <path clip-path="url(#pbb3a928042)" d="M 142.691644 341.309163 
L 142.691644 341.129787 
" style="fill:none;stroke:#ff0000;stroke-opacity:0.2;stroke-width:2;"/>
    <path clip-path="url(#pbb3a928042)" d="M 162.774284 355.938951 
L 162.774284 355.774764 
" style="fill:none;stroke:#ff0000;stroke-opacity:0.2;stroke-width:2;"/>
    <path clip-path="url(#pbb3a928042)" d="M 182.856924 365.332749 
L 182.856924 365.178848 
" style="fill:none;stroke:#ff0000;stroke-opacity:0.2;stroke-width:2;"/>
    <path clip-path="url(#pbb3a928042)" d="M 202.939564 371.646253 
L 202.939564 371.520343 
" style="fill:none;stroke:#ff0000;stroke-opacity:0.2;stroke-width:2;"/>
    <path clip-path="url(#pbb3a928042)" d="M 223.022205 376.02784 
L 223.022205 375.933729 
" style="fill:none;stroke:#ff0000;stroke-opacity:0.2;stroke-width:2;"/>
    <path clip-path="url(#pbb3a928042)" d="M 243.104845 379.131048 
L 243.104845 379.060709 
" style="fill:none;stroke:#ff0000;stroke-opacity:0.2;stroke-width:2;"/>
    <path clip-path="url(#pbb3a928042)" d="M 263.187485 381.352007 
L 263.187485 381.293561 
" style="fill:none;stroke:#ff0000;stroke-opacity:0.2;stroke-width:2;"/>
    <path clip-path="url(#pbb3a928042)" d="M 283.270125 382.942956 
L 283.270125 382.887843 
" style="fill:none;stroke:#ff0000;stroke-opacity:0.2;stroke-width:2;"/>
    <path clip-path="url(#pbb3a928042)" d="M 303.352766 384.071007 
L 303.352766 384.01597 
" style="fill:none;stroke:#ff0000;stroke-opacity:0.2;stroke-width:2;"/>
    <path clip-path="url(#pbb3a928042)" d="M 323.435406 384.850095 
L 323.435406 384.794735 
" style="fill:none;stroke:#ff0000;stroke-opacity:0.2;stroke-width:2;"/>
    <path clip-path="url(#pbb3a928042)" d="M 343.518046 385.357582 
L 343.518046 385.3022 
" style="fill:none;stroke:#ff0000;stroke-opacity:0.2;stroke-width:2;"/>
   </g>
   <g id="LineCollection_7">
    <path clip-path="url(#pbb3a928042)" d="M 102.526363 273.778719 
L 102.526363 273.411533 
" style="fill:none;stroke:#ff0000;stroke-width:2;"/>
    <path clip-path="url(#pbb3a928042)" d="M 122.609003 317.069114 
L 122.609003 316.815765 
" style="fill:none;stroke:#ff0000;stroke-width:2;"/>
    <path clip-path="url(#pbb3a928042)" d="M 142.691644 341.309163 
L 142.691644 341.129787 
" style="fill:none;stroke:#ff0000;stroke-width:2;"/>
    <path clip-path="url(#pbb3a928042)" d="M 162.774284 355.938951 
L 162.774284 355.774764 
" style="fill:none;stroke:#ff0000;stroke-width:2;"/>
    <path clip-path="url(#pbb3a928042)" d="M 182.856924 365.332749 
L 182.856924 365.178848 
" style="fill:none;stroke:#ff0000;stroke-width:2;"/>
    <path clip-path="url(#pbb3a928042)" d="M 202.939564 371.646253 
L 202.939564 371.520343 
" style="fill:none;stroke:#ff0000;stroke-width:2;"/>
    <path clip-path="url(#pbb3a928042)" d="M 223.022205 376.02784 
L 223.022205 375.933729 
" style="fill:none;stroke:#ff0000;stroke-width:2;"/>
    <path clip-path="url(#pbb3a928042)" d="M 243.104845 379.131048 
L 243.104845 379.060709 
" style="fill:none;stroke:#ff0000;stroke-width:2;"/>
    <path clip-path="url(#pbb3a928042)" d="M 263.187485 381.352007 
L 263.187485 381.293561 
" style="fill:none;stroke:#ff0000;stroke-width:2;"/>
    <path clip-path="url(#pbb3a928042)" d="M 283.270125 382.942956 
L 283.270125 382.887843 
" style="fill:none;stroke:#ff0000;stroke-width:2;"/>
    <path clip-path="url(#pbb3a928042)" d="M 303.352766 384.071007 
L 303.352766 384.01597 
" style="fill:none;stroke:#ff0000;stroke-width:2;"/>
    <path clip-path="url(#pbb3a928042)" d="M 323.435406 384.850095 
L 323.435406 384.794735 
" style="fill:none;stroke:#ff0000;stroke-width:2;"/>
   </g>
   <g id="LineCollection_8">
    <path clip-path="url(#pbb3a928042)" d="M 102.526363 273.817766 
L 102.526363 273.43462 
" style="fill:none;stroke:#000000;stroke-width:2;"/>
    <path clip-path="url(#pbb3a928042)" d="M 122.609003 317.080944 
L 122.609003 316.764903 
" style="fill:none;stroke:#000000;stroke-width:2;"/>
    <path clip-path="url(#pbb3a928042)" d="M 142.691644 341.372075 
L 142.691644 340.999821 
" style="fill:none;stroke:#000000;stroke-width:2;"/>
    <path clip-path="url(#pbb3a928042)" d="M 162.774284 356.129411 
L 162.774284 355.776406 
" style="fill:none;stroke:#000000;stroke-width:2;"/>
    <path clip-path="url(#pbb3a928042)" d="M 182.856924 365.468301 
L 182.856924 365.171427 
" style="fill:none;stroke:#000000;stroke-width:2;"/>
    <path clip-path="url(#pbb3a928042)" d="M 202.939564 371.72468 
L 202.939564 371.4588 
" style="fill:none;stroke:#000000;stroke-width:2;"/>
    <path clip-path="url(#pbb3a928042)" d="M 223.022205 376.043495 
L 223.022205 375.811824 
" style="fill:none;stroke:#000000;stroke-width:2;"/>
    <path clip-path="url(#pbb3a928042)" d="M 243.104845 379.149919 
L 243.104845 378.942961 
" style="fill:none;stroke:#000000;stroke-width:2;"/>
    <path clip-path="url(#pbb3a928042)" d="M 263.187485 381.360151 
L 263.187485 381.188783 
" style="fill:none;stroke:#000000;stroke-width:2;"/>
    <path clip-path="url(#pbb3a928042)" d="M 283.270125 382.96106 
L 283.270125 382.83286 
" style="fill:none;stroke:#000000;stroke-width:2;"/>
    <path clip-path="url(#pbb3a928042)" d="M 303.352766 384.109646 
L 303.352766 383.995711 
" style="fill:none;stroke:#000000;stroke-width:2;"/>
    <path clip-path="url(#pbb3a928042)" d="M 323.435406 384.900409 
L 323.435406 384.806047 
" style="fill:none;stroke:#000000;stroke-width:2;"/>
    <path clip-path="url(#pbb3a928042)" d="M 343.518046 385.419403 
L 343.518046 385.334432 
" style="fill:none;stroke:#000000;stroke-width:2;"/>
   </g>
   <g id="line2d_22">
    <path clip-path="url(#pbb3a928042)" d="M 102.526363 273.595126 
L 122.609003 316.942439 
L 142.691644 341.219475 
L 162.774284 355.856858 
L 182.856924 365.255798 
L 202.939564 371.583298 
L 223.022205 375.980785 
L 243.104845 379.095879 
L 263.187485 381.322784 
L 283.270125 382.915399 
L 303.352766 384.043489 
L 323.435406 384.822415 
L 343.518046 385.329891 
" style="fill:none;stroke:#ff0000;stroke-linecap:square;stroke-opacity:0.2;stroke-width:2;"/>
    <g clip-path="url(#pbb3a928042)">
     <use style="fill:#ff0000;fill-opacity:0.2;stroke:#ff0000;stroke-opacity:0.2;" x="102.526363" xlink:href="#ma50dc28225" y="273.595126"/>
     <use style="fill:#ff0000;fill-opacity:0.2;stroke:#ff0000;stroke-opacity:0.2;" x="122.609003" xlink:href="#ma50dc28225" y="316.942439"/>
     <use style="fill:#ff0000;fill-opacity:0.2;stroke:#ff0000;stroke-opacity:0.2;" x="142.691644" xlink:href="#ma50dc28225" y="341.219475"/>
     <use style="fill:#ff0000;fill-opacity:0.2;stroke:#ff0000;stroke-opacity:0.2;" x="162.774284" xlink:href="#ma50dc28225" y="355.856858"/>
     <use style="fill:#ff0000;fill-opacity:0.2;stroke:#ff0000;stroke-opacity:0.2;" x="182.856924" xlink:href="#ma50dc28225" y="365.255798"/>
     <use style="fill:#ff0000;fill-opacity:0.2;stroke:#ff0000;stroke-opacity:0.2;" x="202.939564" xlink:href="#ma50dc28225" y="371.583298"/>
     <use style="fill:#ff0000;fill-opacity:0.2;stroke:#ff0000;stroke-opacity:0.2;" x="223.022205" xlink:href="#ma50dc28225" y="375.980785"/>
     <use style="fill:#ff0000;fill-opacity:0.2;stroke:#ff0000;stroke-opacity:0.2;" x="243.104845" xlink:href="#ma50dc28225" y="379.095879"/>
     <use style="fill:#ff0000;fill-opacity:0.2;stroke:#ff0000;stroke-opacity:0.2;" x="263.187485" xlink:href="#ma50dc28225" y="381.322784"/>
     <use style="fill:#ff0000;fill-opacity:0.2;stroke:#ff0000;stroke-opacity:0.2;" x="283.270125" xlink:href="#ma50dc28225" y="382.915399"/>
     <use style="fill:#ff0000;fill-opacity:0.2;stroke:#ff0000;stroke-opacity:0.2;" x="303.352766" xlink:href="#ma50dc28225" y="384.043489"/>
     <use style="fill:#ff0000;fill-opacity:0.2;stroke:#ff0000;stroke-opacity:0.2;" x="323.435406" xlink:href="#ma50dc28225" y="384.822415"/>
     <use style="fill:#ff0000;fill-opacity:0.2;stroke:#ff0000;stroke-opacity:0.2;" x="343.518046" xlink:href="#ma50dc28225" y="385.329891"/>
    </g>
   </g>
   <g id="line2d_23">
    <path clip-path="url(#pbb3a928042)" d="M 102.526363 273.595126 
L 122.609003 316.942439 
L 142.691644 341.219475 
L 162.774284 355.856858 
L 182.856924 365.255798 
L 202.939564 371.583298 
L 223.022205 375.980785 
L 243.104845 379.095879 
L 263.187485 381.322784 
L 283.270125 382.915399 
L 303.352766 384.043489 
L 323.435406 384.822415 
" style="fill:none;stroke:#ff0000;stroke-linecap:square;stroke-width:2;"/>
    <g clip-path="url(#pbb3a928042)">
     <use style="fill:#ff0000;stroke:#ff0000;" x="102.526363" xlink:href="#m94daff97d4" y="273.595126"/>
     <use style="fill:#ff0000;stroke:#ff0000;" x="122.609003" xlink:href="#m94daff97d4" y="316.942439"/>
     <use style="fill:#ff0000;stroke:#ff0000;" x="142.691644" xlink:href="#m94daff97d4" y="341.219475"/>
     <use style="fill:#ff0000;stroke:#ff0000;" x="162.774284" xlink:href="#m94daff97d4" y="355.856858"/>
     <use style="fill:#ff0000;stroke:#ff0000;" x="182.856924" xlink:href="#m94daff97d4" y="365.255798"/>
     <use style="fill:#ff0000;stroke:#ff0000;" x="202.939564" xlink:href="#m94daff97d4" y="371.583298"/>
     <use style="fill:#ff0000;stroke:#ff0000;" x="223.022205" xlink:href="#m94daff97d4" y="375.980785"/>
     <use style="fill:#ff0000;stroke:#ff0000;" x="243.104845" xlink:href="#m94daff97d4" y="379.095879"/>
     <use style="fill:#ff0000;stroke:#ff0000;" x="263.187485" xlink:href="#m94daff97d4" y="381.322784"/>
     <use style="fill:#ff0000;stroke:#ff0000;" x="283.270125" xlink:href="#m94daff97d4" y="382.915399"/>
     <use style="fill:#ff0000;stroke:#ff0000;" x="303.352766" xlink:href="#m94daff97d4" y="384.043489"/>
     <use style="fill:#ff0000;stroke:#ff0000;" x="323.435406" xlink:href="#m94daff97d4" y="384.822415"/>
    </g>
   </g>
   <g id="line2d_24">
    <g clip-path="url(#pbb3a928042)">
     <use style="stroke:#000000;" x="102.526363" xlink:href="#me41585dde9" y="273.626193"/>
     <use style="stroke:#000000;" x="122.609003" xlink:href="#me41585dde9" y="316.922924"/>
     <use style="stroke:#000000;" x="142.691644" xlink:href="#me41585dde9" y="341.185948"/>
     <use style="stroke:#000000;" x="162.774284" xlink:href="#me41585dde9" y="355.952909"/>
     <use style="stroke:#000000;" x="182.856924" xlink:href="#me41585dde9" y="365.319864"/>
     <use style="stroke:#000000;" x="202.939564" xlink:href="#me41585dde9" y="371.59174"/>
     <use style="stroke:#000000;" x="223.022205" xlink:href="#me41585dde9" y="375.92766"/>
     <use style="stroke:#000000;" x="243.104845" xlink:href="#me41585dde9" y="379.04644"/>
     <use style="stroke:#000000;" x="263.187485" xlink:href="#me41585dde9" y="381.274467"/>
     <use style="stroke:#000000;" x="283.270125" xlink:href="#me41585dde9" y="382.89696"/>
     <use style="stroke:#000000;" x="303.352766" xlink:href="#me41585dde9" y="384.052679"/>
     <use style="stroke:#000000;" x="323.435406" xlink:href="#me41585dde9" y="384.853228"/>
     <use style="stroke:#000000;" x="343.518046" xlink:href="#me41585dde9" y="385.376917"/>
    </g>
   </g>
   <g id="patch_13">
    <path d="M 90.476779 391.019796 
L 90.476779 267.811139 
" style="fill:none;stroke:#000000;stroke-linecap:square;stroke-linejoin:miter;stroke-width:0.8;"/>
   </g>
   <g id="patch_14">
    <path d="M 355.56763 391.019796 
L 355.56763 267.811139 
" style="fill:none;stroke:#000000;stroke-linecap:square;stroke-linejoin:miter;stroke-width:0.8;"/>
   </g>
   <g id="patch_15">
    <path d="M 90.476779 391.019796 
L 355.56763 391.019796 
" style="fill:none;stroke:#000000;stroke-linecap:square;stroke-linejoin:miter;stroke-width:0.8;"/>
   </g>
   <g id="patch_16">
    <path d="M 90.476779 267.811139 
L 355.56763 267.811139 
" style="fill:none;stroke:#000000;stroke-linecap:square;stroke-linejoin:miter;stroke-width:0.8;"/>
   </g>
   <g id="text_20">
    <!-- $C(t)$ -->
    <g transform="translate(201.094052 261.811139)scale(0.24 -0.24)">
     <use transform="scale(0.996264)" xlink:href="#CMMI12-67"/>
     <use transform="translate(76.946847 0)scale(0.996264)" xlink:href="#CMR17-40"/>
     <use transform="translate(112.227614 0)scale(0.996264)" xlink:href="#CMMI12-116"/>
     <use transform="translate(147.453945 0)scale(0.996264)" xlink:href="#CMR17-41"/>
    </g>
   </g>
  </g>
  <g id="axes_4">
   <g id="patch_17">
    <path d="M 414.909149 391.019796 
L 680 391.019796 
L 680 267.811139 
L 414.909149 267.811139 
z
" style="fill:#ffffff;"/>
   </g>
   <g id="matplotlib.axis_7">
    <g id="xtick_7">
     <g id="line2d_25">
      <g>
       <use style="stroke:#000000;stroke-width:0.8;" x="487.206654" xlink:href="#m9a005329f4" y="391.019796"/>
      </g>
     </g>
     <g id="text_21">
      <!-- $\mathdefault{5}$ -->
      <g transform="translate(483.30466 409.089385)scale(0.16 -0.16)">
       <use transform="scale(0.996264)" xlink:href="#CMR17-53"/>
      </g>
     </g>
    </g>
    <g id="xtick_8">
     <g id="line2d_26">
      <g>
       <use style="stroke:#000000;stroke-width:0.8;" x="587.619855" xlink:href="#m9a005329f4" y="391.019796"/>
      </g>
     </g>
     <g id="text_22">
      <!-- $\mathdefault{10}$ -->
      <g transform="translate(579.815868 409.089385)scale(0.16 -0.16)">
       <use transform="scale(0.996264)" xlink:href="#CMR17-49"/>
       <use transform="translate(45.690477 0)scale(0.996264)" xlink:href="#CMR17-48"/>
      </g>
     </g>
    </g>
   </g>
   <g id="matplotlib.axis_8">
    <g id="ytick_10">
     <g id="line2d_27">
      <g>
       <use style="stroke:#000000;stroke-width:0.8;" x="414.909149" xlink:href="#m5209347d45" y="391.019796"/>
      </g>
     </g>
     <g id="text_23">
      <!-- $\mathdefault{−5}$ -->
      <g transform="translate(387.707166 396.55459)scale(0.16 -0.16)">
       <use transform="scale(0.996264)" xlink:href="#CMSY10-0"/>
       <use transform="translate(77.487468 0)scale(0.996264)" xlink:href="#CMR17-53"/>
      </g>
     </g>
    </g>
    <g id="ytick_11">
     <g id="line2d_28">
      <g>
       <use style="stroke:#000000;stroke-width:0.8;" x="414.909149" xlink:href="#m5209347d45" y="329.415468"/>
      </g>
     </g>
     <g id="text_24">
      <!-- $\mathdefault{0}$ -->
      <g transform="translate(400.105162 334.950262)scale(0.16 -0.16)">
       <use transform="scale(0.996264)" xlink:href="#CMR17-48"/>
      </g>
     </g>
    </g>
    <g id="ytick_12">
     <g id="line2d_29">
      <g>
       <use style="stroke:#000000;stroke-width:0.8;" x="414.909149" xlink:href="#m5209347d45" y="267.811139"/>
      </g>
     </g>
     <g id="text_25">
      <!-- $\mathdefault{5}$ -->
      <g transform="translate(400.105162 273.345933)scale(0.16 -0.16)">
       <use transform="scale(0.996264)" xlink:href="#CMR17-53"/>
      </g>
     </g>
    </g>
   </g>
   <g id="LineCollection_9">
    <path clip-path="url(#p6db4f16a89)" d="M 426.958733 339.225068 
L 426.958733 315.609796 
" style="fill:none;stroke:#ff0000;stroke-opacity:0.2;stroke-width:2;"/>
    <path clip-path="url(#p6db4f16a89)" d="M 447.041373 340.813948 
L 447.041373 321.060269 
" style="fill:none;stroke:#ff0000;stroke-opacity:0.2;stroke-width:2;"/>
    <path clip-path="url(#p6db4f16a89)" d="M 467.124013 337.571851 
L 467.124013 325.697879 
" style="fill:none;stroke:#ff0000;stroke-opacity:0.2;stroke-width:2;"/>
    <path clip-path="url(#p6db4f16a89)" d="M 487.206654 328.441182 
L 487.206654 316.980006 
" style="fill:none;stroke:#ff0000;stroke-opacity:0.2;stroke-width:2;"/>
    <path clip-path="url(#p6db4f16a89)" d="M 507.289294 330.484942 
L 507.289294 317.710625 
" style="fill:none;stroke:#ff0000;stroke-opacity:0.2;stroke-width:2;"/>
    <path clip-path="url(#p6db4f16a89)" d="M 527.371934 334.467751 
L 527.371934 322.798405 
" style="fill:none;stroke:#ff0000;stroke-opacity:0.2;stroke-width:2;"/>
    <path clip-path="url(#p6db4f16a89)" d="M 547.454574 340.071189 
L 547.454574 330.061063 
" style="fill:none;stroke:#ff0000;stroke-opacity:0.2;stroke-width:2;"/>
    <path clip-path="url(#p6db4f16a89)" d="M 567.537215 339.489351 
L 567.537215 331.114465 
" style="fill:none;stroke:#ff0000;stroke-opacity:0.2;stroke-width:2;"/>
    <path clip-path="url(#p6db4f16a89)" d="M 587.619855 340.565357 
L 587.619855 332.161045 
" style="fill:none;stroke:#ff0000;stroke-opacity:0.2;stroke-width:2;"/>
    <path clip-path="url(#p6db4f16a89)" d="M 607.702495 338.256532 
L 607.702495 327.66302 
" style="fill:none;stroke:#ff0000;stroke-opacity:0.2;stroke-width:2;"/>
    <path clip-path="url(#p6db4f16a89)" d="M 627.785135 333.379591 
L 627.785135 321.476217 
" style="fill:none;stroke:#ff0000;stroke-opacity:0.2;stroke-width:2;"/>
    <path clip-path="url(#p6db4f16a89)" d="M 647.867776 328.597492 
L 647.867776 314.140611 
" style="fill:none;stroke:#ff0000;stroke-opacity:0.2;stroke-width:2;"/>
    <path clip-path="url(#p6db4f16a89)" d="M 667.950416 323.808276 
L 667.950416 307.747195 
" style="fill:none;stroke:#ff0000;stroke-opacity:0.2;stroke-width:2;"/>
   </g>
   <g id="LineCollection_10">
    <path clip-path="url(#p6db4f16a89)" d="M 426.958733 339.225068 
L 426.958733 315.609796 
" style="fill:none;stroke:#ff0000;stroke-width:2;"/>
    <path clip-path="url(#p6db4f16a89)" d="M 447.041373 340.813948 
L 447.041373 321.060269 
" style="fill:none;stroke:#ff0000;stroke-width:2;"/>
    <path clip-path="url(#p6db4f16a89)" d="M 467.124013 337.571851 
L 467.124013 325.697879 
" style="fill:none;stroke:#ff0000;stroke-width:2;"/>
    <path clip-path="url(#p6db4f16a89)" d="M 487.206654 328.441182 
L 487.206654 316.980006 
" style="fill:none;stroke:#ff0000;stroke-width:2;"/>
    <path clip-path="url(#p6db4f16a89)" d="M 507.289294 330.484942 
L 507.289294 317.710625 
" style="fill:none;stroke:#ff0000;stroke-width:2;"/>
    <path clip-path="url(#p6db4f16a89)" d="M 527.371934 334.467751 
L 527.371934 322.798405 
" style="fill:none;stroke:#ff0000;stroke-width:2;"/>
    <path clip-path="url(#p6db4f16a89)" d="M 547.454574 340.071189 
L 547.454574 330.061063 
" style="fill:none;stroke:#ff0000;stroke-width:2;"/>
    <path clip-path="url(#p6db4f16a89)" d="M 567.537215 339.489351 
L 567.537215 331.114465 
" style="fill:none;stroke:#ff0000;stroke-width:2;"/>
    <path clip-path="url(#p6db4f16a89)" d="M 587.619855 340.565357 
L 587.619855 332.161045 
" style="fill:none;stroke:#ff0000;stroke-width:2;"/>
    <path clip-path="url(#p6db4f16a89)" d="M 607.702495 338.256532 
L 607.702495 327.66302 
" style="fill:none;stroke:#ff0000;stroke-width:2;"/>
    <path clip-path="url(#p6db4f16a89)" d="M 627.785135 333.379591 
L 627.785135 321.476217 
" style="fill:none;stroke:#ff0000;stroke-width:2;"/>
    <path clip-path="url(#p6db4f16a89)" d="M 647.867776 328.597492 
L 647.867776 314.140611 
" style="fill:none;stroke:#ff0000;stroke-width:2;"/>
   </g>
   <g id="line2d_30">
    <path clip-path="url(#p6db4f16a89)" d="M 414.909149 329.415468 
L 680 329.415468 
" style="fill:none;stroke:#000000;stroke-linecap:square;stroke-width:2;"/>
   </g>
   <g id="line2d_31">
    <path clip-path="url(#p6db4f16a89)" d="M 426.958733 327.417432 
L 447.041373 330.937109 
L 467.124013 331.634865 
L 487.206654 322.710594 
L 507.289294 324.097784 
L 527.371934 328.633078 
L 547.454574 335.066126 
L 567.537215 335.301908 
L 587.619855 336.363201 
L 607.702495 332.959776 
L 627.785135 327.427904 
L 647.867776 321.369051 
L 667.950416 315.777736 
" style="fill:none;stroke:#ff0000;stroke-linecap:square;stroke-opacity:0.2;stroke-width:2;"/>
   </g>
   <g id="line2d_32">
    <path clip-path="url(#p6db4f16a89)" d="M 426.958733 327.417432 
L 447.041373 330.937109 
L 467.124013 331.634865 
L 487.206654 322.710594 
L 507.289294 324.097784 
L 527.371934 328.633078 
L 547.454574 335.066126 
L 567.537215 335.301908 
L 587.619855 336.363201 
L 607.702495 332.959776 
L 627.785135 327.427904 
L 647.867776 321.369051 
" style="fill:none;stroke:#ff0000;stroke-linecap:square;stroke-width:2;"/>
   </g>
   <g id="patch_18">
    <path d="M 414.909149 391.019796 
L 414.909149 267.811139 
" style="fill:none;stroke:#000000;stroke-linecap:square;stroke-linejoin:miter;stroke-width:0.8;"/>
   </g>
   <g id="patch_19">
    <path d="M 680 391.019796 
L 680 267.811139 
" style="fill:none;stroke:#000000;stroke-linecap:square;stroke-linejoin:miter;stroke-width:0.8;"/>
   </g>
   <g id="patch_20">
    <path d="M 414.909149 391.019796 
L 680 391.019796 
" style="fill:none;stroke:#000000;stroke-linecap:square;stroke-linejoin:miter;stroke-width:0.8;"/>
   </g>
   <g id="patch_21">
    <path d="M 414.909149 267.811139 
L 680 267.811139 
" style="fill:none;stroke:#000000;stroke-linecap:square;stroke-linejoin:miter;stroke-width:0.8;"/>
   </g>
   <g id="text_26">
    <!-- $(C_{\rm fit}(t) - C(t))/\sigma_t$ -->
    <g transform="translate(457.924156 261.811139)scale(0.24 -0.24)">
     <use transform="scale(0.996264)" xlink:href="#CMR17-40"/>
     <use transform="translate(35.280768 0)scale(0.996264)" xlink:href="#CMMI12-67"/>
     <use transform="translate(105.072804 -14.943915)scale(0.697382)" xlink:href="#CMR17-12"/>
     <use transform="translate(139.892198 -14.943915)scale(0.697382)" xlink:href="#CMR17-116"/>
     <use transform="translate(165.08675 0)scale(0.996264)" xlink:href="#CMR17-40"/>
     <use transform="translate(200.367518 0)scale(0.996264)" xlink:href="#CMMI12-116"/>
     <use transform="translate(235.593849 0)scale(0.996264)" xlink:href="#CMR17-41"/>
     <use transform="translate(293.013823 0)scale(0.996264)" xlink:href="#CMSY10-0"/>
     <use transform="translate(392.640498 0)scale(0.996264)" xlink:href="#CMMI12-67"/>
     <use transform="translate(469.587345 0)scale(0.996264)" xlink:href="#CMR17-40"/>
     <use transform="translate(504.868112 0)scale(0.996264)" xlink:href="#CMMI12-116"/>
     <use transform="translate(540.094443 0)scale(0.996264)" xlink:href="#CMR17-41"/>
     <use transform="translate(575.37521 0)scale(0.996264)" xlink:href="#CMR17-41"/>
     <use transform="translate(610.655978 0)scale(0.996264)" xlink:href="#CMMI12-61"/>
     <use transform="translate(659.430897 0)scale(0.996264)" xlink:href="#CMMI12-27"/>
     <use transform="translate(714.876358 -14.943915)scale(0.697382)" xlink:href="#CMMI12-116"/>
    </g>
   </g>
  </g>
  <g id="axes_5">
   <g id="patch_22">
    <path d="M 90.476779 586.830936 
L 355.56763 586.830936 
L 355.56763 463.622278 
L 90.476779 463.622278 
z
" style="fill:#ffffff;"/>
   </g>
   <g id="matplotlib.axis_9">
    <g id="xtick_9">
     <g id="line2d_33">
      <g>
       <use style="stroke:#000000;stroke-width:0.8;" x="162.774284" xlink:href="#m9a005329f4" y="586.830936"/>
      </g>
     </g>
     <g id="text_27">
      <!-- $\mathdefault{5}$ -->
      <g transform="translate(158.87229 604.900524)scale(0.16 -0.16)">
       <use transform="scale(0.996264)" xlink:href="#CMR17-53"/>
      </g>
     </g>
    </g>
    <g id="xtick_10">
     <g id="line2d_34">
      <g>
       <use style="stroke:#000000;stroke-width:0.8;" x="263.187485" xlink:href="#m9a005329f4" y="586.830936"/>
      </g>
     </g>
     <g id="text_28">
      <!-- $\mathdefault{10}$ -->
      <g transform="translate(255.383498 604.900524)scale(0.16 -0.16)">
       <use transform="scale(0.996264)" xlink:href="#CMR17-49"/>
       <use transform="translate(45.690477 0)scale(0.996264)" xlink:href="#CMR17-48"/>
      </g>
     </g>
    </g>
   </g>
   <g id="matplotlib.axis_10">
    <g id="ytick_13">
     <g id="line2d_35">
      <g>
       <use style="stroke:#000000;stroke-width:0.8;" x="90.476779" xlink:href="#m5209347d45" y="583.400058"/>
      </g>
     </g>
     <g id="text_29">
      <!-- $\mathdefault{0}$ -->
      <g transform="translate(75.672792 588.934852)scale(0.16 -0.16)">
       <use transform="scale(0.996264)" xlink:href="#CMR17-48"/>
      </g>
     </g>
    </g>
    <g id="ytick_14">
     <g id="line2d_36">
      <g>
       <use style="stroke:#000000;stroke-width:0.8;" x="90.476779" xlink:href="#m5209347d45" y="529.553365"/>
      </g>
     </g>
     <g id="text_30">
      <!-- $\mathdefault{10}$ -->
      <g transform="translate(67.868805 535.088159)scale(0.16 -0.16)">
       <use transform="scale(0.996264)" xlink:href="#CMR17-49"/>
       <use transform="translate(45.690477 0)scale(0.996264)" xlink:href="#CMR17-48"/>
      </g>
     </g>
    </g>
    <g id="ytick_15">
     <g id="line2d_37">
      <g>
       <use style="stroke:#000000;stroke-width:0.8;" x="90.476779" xlink:href="#m5209347d45" y="475.706673"/>
      </g>
     </g>
     <g id="text_31">
      <!-- $\mathdefault{20}$ -->
      <g transform="translate(67.868805 481.241467)scale(0.16 -0.16)">
       <use transform="scale(0.996264)" xlink:href="#CMR17-50"/>
       <use transform="translate(45.690477 0)scale(0.996264)" xlink:href="#CMR17-48"/>
      </g>
     </g>
    </g>
    <g id="text_32">
     <!-- (3, 14) -->
     <g transform="translate(57.911226 556.7362)rotate(-90)scale(0.24 -0.24)">
      <use transform="scale(0.996264)" xlink:href="#CMR17-40"/>
      <use transform="translate(35.280768 0)scale(0.996264)" xlink:href="#CMR17-51"/>
      <use transform="translate(80.971245 0)scale(0.996264)" xlink:href="#CMR17-44"/>
      <use transform="translate(135.91827 0)scale(0.996264)" xlink:href="#CMR17-49"/>
      <use transform="translate(181.608747 0)scale(0.996264)" xlink:href="#CMR17-52"/>
      <use transform="translate(227.299224 0)scale(0.996264)" xlink:href="#CMR17-41"/>
     </g>
    </g>
   </g>
   <g id="LineCollection_11">
    <path clip-path="url(#p68eda9ed69)" d="M 102.526363 472.27364 
L 102.526363 469.222672 
" style="fill:none;stroke:#ff0000;stroke-opacity:0.2;stroke-width:2;"/>
    <path clip-path="url(#p68eda9ed69)" d="M 122.609003 514.189823 
L 122.609003 513.886212 
" style="fill:none;stroke:#ff0000;stroke-opacity:0.2;stroke-width:2;"/>
    <path clip-path="url(#p68eda9ed69)" d="M 142.691644 538.082653 
L 142.691644 537.807236 
" style="fill:none;stroke:#ff0000;stroke-opacity:0.2;stroke-width:2;"/>
    <path clip-path="url(#p68eda9ed69)" d="M 162.774284 552.368805 
L 162.774284 552.171143 
" style="fill:none;stroke:#ff0000;stroke-opacity:0.2;stroke-width:2;"/>
    <path clip-path="url(#p68eda9ed69)" d="M 182.856924 561.534529 
L 182.856924 561.381313 
" style="fill:none;stroke:#ff0000;stroke-opacity:0.2;stroke-width:2;"/>
    <path clip-path="url(#p68eda9ed69)" d="M 202.939564 567.71681 
L 202.939564 567.584565 
" style="fill:none;stroke:#ff0000;stroke-opacity:0.2;stroke-width:2;"/>
    <path clip-path="url(#p68eda9ed69)" d="M 223.022205 572.01452 
L 223.022205 571.909181 
" style="fill:none;stroke:#ff0000;stroke-opacity:0.2;stroke-width:2;"/>
    <path clip-path="url(#p68eda9ed69)" d="M 243.104845 575.059405 
L 243.104845 574.980712 
" style="fill:none;stroke:#ff0000;stroke-opacity:0.2;stroke-width:2;"/>
    <path clip-path="url(#p68eda9ed69)" d="M 263.187485 577.238793 
L 263.187485 577.17764 
" style="fill:none;stroke:#ff0000;stroke-opacity:0.2;stroke-width:2;"/>
    <path clip-path="url(#p68eda9ed69)" d="M 283.270125 578.80106 
L 283.270125 578.74648 
" style="fill:none;stroke:#ff0000;stroke-opacity:0.2;stroke-width:2;"/>
    <path clip-path="url(#p68eda9ed69)" d="M 303.352766 579.909989 
L 303.352766 579.855588 
" style="fill:none;stroke:#ff0000;stroke-opacity:0.2;stroke-width:2;"/>
    <path clip-path="url(#p68eda9ed69)" d="M 323.435406 580.676417 
L 323.435406 580.620522 
" style="fill:none;stroke:#ff0000;stroke-opacity:0.2;stroke-width:2;"/>
    <path clip-path="url(#p68eda9ed69)" d="M 343.518046 581.175786 
L 343.518046 581.118672 
" style="fill:none;stroke:#ff0000;stroke-opacity:0.2;stroke-width:2;"/>
   </g>
   <g id="LineCollection_12">
    <path clip-path="url(#p68eda9ed69)" d="M 122.609003 514.189823 
L 122.609003 513.886212 
" style="fill:none;stroke:#ff0000;stroke-width:2;"/>
    <path clip-path="url(#p68eda9ed69)" d="M 142.691644 538.082653 
L 142.691644 537.807236 
" style="fill:none;stroke:#ff0000;stroke-width:2;"/>
    <path clip-path="url(#p68eda9ed69)" d="M 162.774284 552.368805 
L 162.774284 552.171143 
" style="fill:none;stroke:#ff0000;stroke-width:2;"/>
    <path clip-path="url(#p68eda9ed69)" d="M 182.856924 561.534529 
L 182.856924 561.381313 
" style="fill:none;stroke:#ff0000;stroke-width:2;"/>
    <path clip-path="url(#p68eda9ed69)" d="M 202.939564 567.71681 
L 202.939564 567.584565 
" style="fill:none;stroke:#ff0000;stroke-width:2;"/>
    <path clip-path="url(#p68eda9ed69)" d="M 223.022205 572.01452 
L 223.022205 571.909181 
" style="fill:none;stroke:#ff0000;stroke-width:2;"/>
    <path clip-path="url(#p68eda9ed69)" d="M 243.104845 575.059405 
L 243.104845 574.980712 
" style="fill:none;stroke:#ff0000;stroke-width:2;"/>
    <path clip-path="url(#p68eda9ed69)" d="M 263.187485 577.238793 
L 263.187485 577.17764 
" style="fill:none;stroke:#ff0000;stroke-width:2;"/>
    <path clip-path="url(#p68eda9ed69)" d="M 283.270125 578.80106 
L 283.270125 578.74648 
" style="fill:none;stroke:#ff0000;stroke-width:2;"/>
    <path clip-path="url(#p68eda9ed69)" d="M 303.352766 579.909989 
L 303.352766 579.855588 
" style="fill:none;stroke:#ff0000;stroke-width:2;"/>
    <path clip-path="url(#p68eda9ed69)" d="M 323.435406 580.676417 
L 323.435406 580.620522 
" style="fill:none;stroke:#ff0000;stroke-width:2;"/>
   </g>
   <g id="LineCollection_13">
    <path clip-path="url(#p68eda9ed69)" d="M 102.526363 471.795132 
L 102.526363 471.419422 
" style="fill:none;stroke:#000000;stroke-width:2;"/>
    <path clip-path="url(#p68eda9ed69)" d="M 122.609003 514.218556 
L 122.609003 513.90865 
" style="fill:none;stroke:#000000;stroke-width:2;"/>
    <path clip-path="url(#p68eda9ed69)" d="M 142.691644 538.038188 
L 142.691644 537.673159 
" style="fill:none;stroke:#000000;stroke-width:2;"/>
    <path clip-path="url(#p68eda9ed69)" d="M 162.774284 552.509079 
L 162.774284 552.162926 
" style="fill:none;stroke:#000000;stroke-width:2;"/>
    <path clip-path="url(#p68eda9ed69)" d="M 182.856924 561.666698 
L 182.856924 561.375586 
" style="fill:none;stroke:#000000;stroke-width:2;"/>
    <path clip-path="url(#p68eda9ed69)" d="M 202.939564 567.801638 
L 202.939564 567.540919 
" style="fill:none;stroke:#000000;stroke-width:2;"/>
    <path clip-path="url(#p68eda9ed69)" d="M 223.022205 572.036624 
L 223.022205 571.80945 
" style="fill:none;stroke:#000000;stroke-width:2;"/>
    <path clip-path="url(#p68eda9ed69)" d="M 243.104845 575.082751 
L 243.104845 574.87981 
" style="fill:none;stroke:#000000;stroke-width:2;"/>
    <path clip-path="url(#p68eda9ed69)" d="M 263.187485 577.250081 
L 263.187485 577.08204 
" style="fill:none;stroke:#000000;stroke-width:2;"/>
    <path clip-path="url(#p68eda9ed69)" d="M 283.270125 578.819916 
L 283.270125 578.694205 
" style="fill:none;stroke:#000000;stroke-width:2;"/>
    <path clip-path="url(#p68eda9ed69)" d="M 303.352766 579.946208 
L 303.352766 579.834484 
" style="fill:none;stroke:#000000;stroke-width:2;"/>
    <path clip-path="url(#p68eda9ed69)" d="M 323.435406 580.721622 
L 323.435406 580.629091 
" style="fill:none;stroke:#000000;stroke-width:2;"/>
    <path clip-path="url(#p68eda9ed69)" d="M 343.518046 581.230542 
L 343.518046 581.147221 
" style="fill:none;stroke:#000000;stroke-width:2;"/>
   </g>
   <g id="line2d_38">
    <path clip-path="url(#p68eda9ed69)" d="M 102.526363 470.748156 
L 122.609003 514.038017 
L 142.691644 537.944945 
L 162.774284 552.269974 
L 182.856924 561.457921 
L 202.939564 567.650688 
L 223.022205 571.961851 
L 243.104845 575.020058 
L 263.187485 577.208216 
L 283.270125 578.77377 
L 303.352766 579.882788 
L 323.435406 580.648469 
L 343.518046 581.147229 
" style="fill:none;stroke:#ff0000;stroke-linecap:square;stroke-opacity:0.2;stroke-width:2;"/>
    <g clip-path="url(#p68eda9ed69)">
     <use style="fill:#ff0000;fill-opacity:0.2;stroke:#ff0000;stroke-opacity:0.2;" x="102.526363" xlink:href="#ma50dc28225" y="470.748156"/>
     <use style="fill:#ff0000;fill-opacity:0.2;stroke:#ff0000;stroke-opacity:0.2;" x="122.609003" xlink:href="#ma50dc28225" y="514.038017"/>
     <use style="fill:#ff0000;fill-opacity:0.2;stroke:#ff0000;stroke-opacity:0.2;" x="142.691644" xlink:href="#ma50dc28225" y="537.944945"/>
     <use style="fill:#ff0000;fill-opacity:0.2;stroke:#ff0000;stroke-opacity:0.2;" x="162.774284" xlink:href="#ma50dc28225" y="552.269974"/>
     <use style="fill:#ff0000;fill-opacity:0.2;stroke:#ff0000;stroke-opacity:0.2;" x="182.856924" xlink:href="#ma50dc28225" y="561.457921"/>
     <use style="fill:#ff0000;fill-opacity:0.2;stroke:#ff0000;stroke-opacity:0.2;" x="202.939564" xlink:href="#ma50dc28225" y="567.650688"/>
     <use style="fill:#ff0000;fill-opacity:0.2;stroke:#ff0000;stroke-opacity:0.2;" x="223.022205" xlink:href="#ma50dc28225" y="571.961851"/>
     <use style="fill:#ff0000;fill-opacity:0.2;stroke:#ff0000;stroke-opacity:0.2;" x="243.104845" xlink:href="#ma50dc28225" y="575.020058"/>
     <use style="fill:#ff0000;fill-opacity:0.2;stroke:#ff0000;stroke-opacity:0.2;" x="263.187485" xlink:href="#ma50dc28225" y="577.208216"/>
     <use style="fill:#ff0000;fill-opacity:0.2;stroke:#ff0000;stroke-opacity:0.2;" x="283.270125" xlink:href="#ma50dc28225" y="578.77377"/>
     <use style="fill:#ff0000;fill-opacity:0.2;stroke:#ff0000;stroke-opacity:0.2;" x="303.352766" xlink:href="#ma50dc28225" y="579.882788"/>
     <use style="fill:#ff0000;fill-opacity:0.2;stroke:#ff0000;stroke-opacity:0.2;" x="323.435406" xlink:href="#ma50dc28225" y="580.648469"/>
     <use style="fill:#ff0000;fill-opacity:0.2;stroke:#ff0000;stroke-opacity:0.2;" x="343.518046" xlink:href="#ma50dc28225" y="581.147229"/>
    </g>
   </g>
   <g id="line2d_39">
    <path clip-path="url(#p68eda9ed69)" d="M 122.609003 514.038017 
L 142.691644 537.944945 
L 162.774284 552.269974 
L 182.856924 561.457921 
L 202.939564 567.650688 
L 223.022205 571.961851 
L 243.104845 575.020058 
L 263.187485 577.208216 
L 283.270125 578.77377 
L 303.352766 579.882788 
L 323.435406 580.648469 
" style="fill:none;stroke:#ff0000;stroke-linecap:square;stroke-width:2;"/>
    <g clip-path="url(#p68eda9ed69)">
     <use style="fill:#ff0000;stroke:#ff0000;" x="122.609003" xlink:href="#m94daff97d4" y="514.038017"/>
     <use style="fill:#ff0000;stroke:#ff0000;" x="142.691644" xlink:href="#m94daff97d4" y="537.944945"/>
     <use style="fill:#ff0000;stroke:#ff0000;" x="162.774284" xlink:href="#m94daff97d4" y="552.269974"/>
     <use style="fill:#ff0000;stroke:#ff0000;" x="182.856924" xlink:href="#m94daff97d4" y="561.457921"/>
     <use style="fill:#ff0000;stroke:#ff0000;" x="202.939564" xlink:href="#m94daff97d4" y="567.650688"/>
     <use style="fill:#ff0000;stroke:#ff0000;" x="223.022205" xlink:href="#m94daff97d4" y="571.961851"/>
     <use style="fill:#ff0000;stroke:#ff0000;" x="243.104845" xlink:href="#m94daff97d4" y="575.020058"/>
     <use style="fill:#ff0000;stroke:#ff0000;" x="263.187485" xlink:href="#m94daff97d4" y="577.208216"/>
     <use style="fill:#ff0000;stroke:#ff0000;" x="283.270125" xlink:href="#m94daff97d4" y="578.77377"/>
     <use style="fill:#ff0000;stroke:#ff0000;" x="303.352766" xlink:href="#m94daff97d4" y="579.882788"/>
     <use style="fill:#ff0000;stroke:#ff0000;" x="323.435406" xlink:href="#m94daff97d4" y="580.648469"/>
    </g>
   </g>
   <g id="line2d_40">
    <g clip-path="url(#p68eda9ed69)">
     <use style="stroke:#000000;" x="102.526363" xlink:href="#me41585dde9" y="471.607277"/>
     <use style="stroke:#000000;" x="122.609003" xlink:href="#me41585dde9" y="514.063603"/>
     <use style="stroke:#000000;" x="142.691644" xlink:href="#me41585dde9" y="537.855673"/>
     <use style="stroke:#000000;" x="162.774284" xlink:href="#me41585dde9" y="552.336003"/>
     <use style="stroke:#000000;" x="182.856924" xlink:href="#me41585dde9" y="561.521142"/>
     <use style="stroke:#000000;" x="202.939564" xlink:href="#me41585dde9" y="567.671279"/>
     <use style="stroke:#000000;" x="223.022205" xlink:href="#me41585dde9" y="571.923037"/>
     <use style="stroke:#000000;" x="243.104845" xlink:href="#me41585dde9" y="574.981281"/>
     <use style="stroke:#000000;" x="263.187485" xlink:href="#me41585dde9" y="577.166061"/>
     <use style="stroke:#000000;" x="283.270125" xlink:href="#me41585dde9" y="578.757061"/>
     <use style="stroke:#000000;" x="303.352766" xlink:href="#me41585dde9" y="579.890346"/>
     <use style="stroke:#000000;" x="323.435406" xlink:href="#me41585dde9" y="580.675356"/>
     <use style="stroke:#000000;" x="343.518046" xlink:href="#me41585dde9" y="581.188881"/>
    </g>
   </g>
   <g id="patch_23">
    <path d="M 90.476779 586.830936 
L 90.476779 463.622278 
" style="fill:none;stroke:#000000;stroke-linecap:square;stroke-linejoin:miter;stroke-width:0.8;"/>
   </g>
   <g id="patch_24">
    <path d="M 355.56763 586.830936 
L 355.56763 463.622278 
" style="fill:none;stroke:#000000;stroke-linecap:square;stroke-linejoin:miter;stroke-width:0.8;"/>
   </g>
   <g id="patch_25">
    <path d="M 90.476779 586.830936 
L 355.56763 586.830936 
" style="fill:none;stroke:#000000;stroke-linecap:square;stroke-linejoin:miter;stroke-width:0.8;"/>
   </g>
   <g id="patch_26">
    <path d="M 90.476779 463.622278 
L 355.56763 463.622278 
" style="fill:none;stroke:#000000;stroke-linecap:square;stroke-linejoin:miter;stroke-width:0.8;"/>
   </g>
   <g id="text_33">
    <!-- $C(t)$ -->
    <g transform="translate(201.094052 457.622278)scale(0.24 -0.24)">
     <use transform="scale(0.996264)" xlink:href="#CMMI12-67"/>
     <use transform="translate(76.946847 0)scale(0.996264)" xlink:href="#CMR17-40"/>
     <use transform="translate(112.227614 0)scale(0.996264)" xlink:href="#CMMI12-116"/>
     <use transform="translate(147.453945 0)scale(0.996264)" xlink:href="#CMR17-41"/>
    </g>
   </g>
  </g>
  <g id="axes_6">
   <g id="patch_27">
    <path d="M 414.909149 586.830936 
L 680 586.830936 
L 680 463.622278 
L 414.909149 463.622278 
z
" style="fill:#ffffff;"/>
   </g>
   <g id="matplotlib.axis_11">
    <g id="xtick_11">
     <g id="line2d_41">
      <g>
       <use style="stroke:#000000;stroke-width:0.8;" x="487.206654" xlink:href="#m9a005329f4" y="586.830936"/>
      </g>
     </g>
     <g id="text_34">
      <!-- $\mathdefault{5}$ -->
      <g transform="translate(483.30466 604.900524)scale(0.16 -0.16)">
       <use transform="scale(0.996264)" xlink:href="#CMR17-53"/>
      </g>
     </g>
    </g>
    <g id="xtick_12">
     <g id="line2d_42">
      <g>
       <use style="stroke:#000000;stroke-width:0.8;" x="587.619855" xlink:href="#m9a005329f4" y="586.830936"/>
      </g>
     </g>
     <g id="text_35">
      <!-- $\mathdefault{10}$ -->
      <g transform="translate(579.815868 604.900524)scale(0.16 -0.16)">
       <use transform="scale(0.996264)" xlink:href="#CMR17-49"/>
       <use transform="translate(45.690477 0)scale(0.996264)" xlink:href="#CMR17-48"/>
      </g>
     </g>
    </g>
   </g>
   <g id="matplotlib.axis_12">
    <g id="ytick_16">
     <g id="line2d_43">
      <g>
       <use style="stroke:#000000;stroke-width:0.8;" x="414.909149" xlink:href="#m5209347d45" y="586.830936"/>
      </g>
     </g>
     <g id="text_36">
      <!-- $\mathdefault{−5}$ -->
      <g transform="translate(387.707166 592.36573)scale(0.16 -0.16)">
       <use transform="scale(0.996264)" xlink:href="#CMSY10-0"/>
       <use transform="translate(77.487468 0)scale(0.996264)" xlink:href="#CMR17-53"/>
      </g>
     </g>
    </g>
    <g id="ytick_17">
     <g id="line2d_44">
      <g>
       <use style="stroke:#000000;stroke-width:0.8;" x="414.909149" xlink:href="#m5209347d45" y="525.226607"/>
      </g>
     </g>
     <g id="text_37">
      <!-- $\mathdefault{0}$ -->
      <g transform="translate(400.105162 530.761401)scale(0.16 -0.16)">
       <use transform="scale(0.996264)" xlink:href="#CMR17-48"/>
      </g>
     </g>
    </g>
    <g id="ytick_18">
     <g id="line2d_45">
      <g>
       <use style="stroke:#000000;stroke-width:0.8;" x="414.909149" xlink:href="#m5209347d45" y="463.622278"/>
      </g>
     </g>
     <g id="text_38">
      <!-- $\mathdefault{5}$ -->
      <g transform="translate(400.105162 469.157073)scale(0.16 -0.16)">
       <use transform="scale(0.996264)" xlink:href="#CMR17-53"/>
      </g>
     </g>
    </g>
   </g>
   <g id="LineCollection_14">
    <path clip-path="url(#pf68999c448)" d="M 426.958733 568.931496 
L 426.958733 368.827151 
" style="fill:none;stroke:#ff0000;stroke-opacity:0.2;stroke-width:2;"/>
    <path clip-path="url(#pf68999c448)" d="M 447.041373 535.262781 
L 447.041373 511.121599 
" style="fill:none;stroke:#ff0000;stroke-opacity:0.2;stroke-width:2;"/>
    <path clip-path="url(#pf68999c448)" d="M 467.124013 540.549151 
L 467.124013 521.956774 
" style="fill:none;stroke:#ff0000;stroke-opacity:0.2;stroke-width:2;"/>
    <path clip-path="url(#pf68999c448)" d="M 487.206654 527.561748 
L 487.206654 513.49067 
" style="fill:none;stroke:#ff0000;stroke-opacity:0.2;stroke-width:2;"/>
    <path clip-path="url(#pf68999c448)" d="M 507.289294 526.359739 
L 507.289294 513.390494 
" style="fill:none;stroke:#ff0000;stroke-opacity:0.2;stroke-width:2;"/>
    <path clip-path="url(#pf68999c448)" d="M 527.371934 529.529966 
L 527.371934 517.030936 
" style="fill:none;stroke:#ff0000;stroke-opacity:0.2;stroke-width:2;"/>
    <path clip-path="url(#pf68999c448)" d="M 547.454574 535.149899 
L 547.454574 523.723671 
" style="fill:none;stroke:#ff0000;stroke-opacity:0.2;stroke-width:2;"/>
    <path clip-path="url(#pf68999c448)" d="M 567.537215 534.712666 
L 567.537215 525.157529 
" style="fill:none;stroke:#ff0000;stroke-opacity:0.2;stroke-width:2;"/>
    <path clip-path="url(#pf68999c448)" d="M 587.619855 535.892174 
L 587.619855 526.924557 
" style="fill:none;stroke:#ff0000;stroke-opacity:0.2;stroke-width:2;"/>
    <path clip-path="url(#pf68999c448)" d="M 607.702495 533.85128 
L 607.702495 523.152597 
" style="fill:none;stroke:#ff0000;stroke-opacity:0.2;stroke-width:2;"/>
    <path clip-path="url(#pf68999c448)" d="M 627.785135 529.558897 
L 627.785135 517.560278 
" style="fill:none;stroke:#ff0000;stroke-opacity:0.2;stroke-width:2;"/>
    <path clip-path="url(#pf68999c448)" d="M 647.867776 525.508957 
L 647.867776 510.623665 
" style="fill:none;stroke:#ff0000;stroke-opacity:0.2;stroke-width:2;"/>
    <path clip-path="url(#pf68999c448)" d="M 667.950416 521.353867 
L 667.950416 504.46267 
" style="fill:none;stroke:#ff0000;stroke-opacity:0.2;stroke-width:2;"/>
   </g>
   <g id="LineCollection_15">
    <path clip-path="url(#pf68999c448)" d="M 447.041373 535.262781 
L 447.041373 511.121599 
" style="fill:none;stroke:#ff0000;stroke-width:2;"/>
    <path clip-path="url(#pf68999c448)" d="M 467.124013 540.549151 
L 467.124013 521.956774 
" style="fill:none;stroke:#ff0000;stroke-width:2;"/>
    <path clip-path="url(#pf68999c448)" d="M 487.206654 527.561748 
L 487.206654 513.49067 
" style="fill:none;stroke:#ff0000;stroke-width:2;"/>
    <path clip-path="url(#pf68999c448)" d="M 507.289294 526.359739 
L 507.289294 513.390494 
" style="fill:none;stroke:#ff0000;stroke-width:2;"/>
    <path clip-path="url(#pf68999c448)" d="M 527.371934 529.529966 
L 527.371934 517.030936 
" style="fill:none;stroke:#ff0000;stroke-width:2;"/>
    <path clip-path="url(#pf68999c448)" d="M 547.454574 535.149899 
L 547.454574 523.723671 
" style="fill:none;stroke:#ff0000;stroke-width:2;"/>
    <path clip-path="url(#pf68999c448)" d="M 567.537215 534.712666 
L 567.537215 525.157529 
" style="fill:none;stroke:#ff0000;stroke-width:2;"/>
    <path clip-path="url(#pf68999c448)" d="M 587.619855 535.892174 
L 587.619855 526.924557 
" style="fill:none;stroke:#ff0000;stroke-width:2;"/>
    <path clip-path="url(#pf68999c448)" d="M 607.702495 533.85128 
L 607.702495 523.152597 
" style="fill:none;stroke:#ff0000;stroke-width:2;"/>
    <path clip-path="url(#pf68999c448)" d="M 627.785135 529.558897 
L 627.785135 517.560278 
" style="fill:none;stroke:#ff0000;stroke-width:2;"/>
    <path clip-path="url(#pf68999c448)" d="M 647.867776 525.508957 
L 647.867776 510.623665 
" style="fill:none;stroke:#ff0000;stroke-width:2;"/>
   </g>
   <g id="line2d_46">
    <path clip-path="url(#pf68999c448)" d="M 414.909149 525.226607 
L 680 525.226607 
" style="fill:none;stroke:#000000;stroke-linecap:square;stroke-width:2;"/>
   </g>
   <g id="line2d_47">
    <path clip-path="url(#pf68999c448)" d="M 426.958733 468.879323 
L 447.041373 523.19219 
L 467.124013 531.252963 
L 487.206654 520.526209 
L 507.289294 519.875116 
L 527.371934 523.280451 
L 547.454574 529.436785 
L 567.537215 529.935098 
L 587.619855 531.408365 
L 607.702495 528.501939 
L 627.785135 523.559588 
L 647.867776 518.066311 
L 667.950416 512.908268 
" style="fill:none;stroke:#ff0000;stroke-linecap:square;stroke-opacity:0.2;stroke-width:2;"/>
   </g>
   <g id="line2d_48">
    <path clip-path="url(#pf68999c448)" d="M 447.041373 523.19219 
L 467.124013 531.252963 
L 487.206654 520.526209 
L 507.289294 519.875116 
L 527.371934 523.280451 
L 547.454574 529.436785 
L 567.537215 529.935098 
L 587.619855 531.408365 
L 607.702495 528.501939 
L 627.785135 523.559588 
L 647.867776 518.066311 
" style="fill:none;stroke:#ff0000;stroke-linecap:square;stroke-width:2;"/>
   </g>
   <g id="patch_28">
    <path d="M 414.909149 586.830936 
L 414.909149 463.622278 
" style="fill:none;stroke:#000000;stroke-linecap:square;stroke-linejoin:miter;stroke-width:0.8;"/>
   </g>
   <g id="patch_29">
    <path d="M 680 586.830936 
L 680 463.622278 
" style="fill:none;stroke:#000000;stroke-linecap:square;stroke-linejoin:miter;stroke-width:0.8;"/>
   </g>
   <g id="patch_30">
    <path d="M 414.909149 586.830936 
L 680 586.830936 
" style="fill:none;stroke:#000000;stroke-linecap:square;stroke-linejoin:miter;stroke-width:0.8;"/>
   </g>
   <g id="patch_31">
    <path d="M 414.909149 463.622278 
L 680 463.622278 
" style="fill:none;stroke:#000000;stroke-linecap:square;stroke-linejoin:miter;stroke-width:0.8;"/>
   </g>
   <g id="text_39">
    <!-- $(C_{\rm fit}(t) - C(t))/\sigma_t$ -->
    <g transform="translate(457.924156 457.622278)scale(0.24 -0.24)">
     <use transform="scale(0.996264)" xlink:href="#CMR17-40"/>
     <use transform="translate(35.280768 0)scale(0.996264)" xlink:href="#CMMI12-67"/>
     <use transform="translate(105.072804 -14.943915)scale(0.697382)" xlink:href="#CMR17-12"/>
     <use transform="translate(139.892198 -14.943915)scale(0.697382)" xlink:href="#CMR17-116"/>
     <use transform="translate(165.08675 0)scale(0.996264)" xlink:href="#CMR17-40"/>
     <use transform="translate(200.367518 0)scale(0.996264)" xlink:href="#CMMI12-116"/>
     <use transform="translate(235.593849 0)scale(0.996264)" xlink:href="#CMR17-41"/>
     <use transform="translate(293.013823 0)scale(0.996264)" xlink:href="#CMSY10-0"/>
     <use transform="translate(392.640498 0)scale(0.996264)" xlink:href="#CMMI12-67"/>
     <use transform="translate(469.587345 0)scale(0.996264)" xlink:href="#CMR17-40"/>
     <use transform="translate(504.868112 0)scale(0.996264)" xlink:href="#CMMI12-116"/>
     <use transform="translate(540.094443 0)scale(0.996264)" xlink:href="#CMR17-41"/>
     <use transform="translate(575.37521 0)scale(0.996264)" xlink:href="#CMR17-41"/>
     <use transform="translate(610.655978 0)scale(0.996264)" xlink:href="#CMMI12-61"/>
     <use transform="translate(659.430897 0)scale(0.996264)" xlink:href="#CMMI12-27"/>
     <use transform="translate(714.876358 -14.943915)scale(0.697382)" xlink:href="#CMMI12-116"/>
    </g>
   </g>
  </g>
  <g id="text_40">
   <!-- cosh2 Fit -->
   <g transform="translate(315.747011 29.564405)scale(0.24 -0.24)">
    <defs>
     <path d="M 34.90625 35 
C 33 35 30.203125 35 30.203125 31.515625 
C 30.203125 28.71875 32.5 27.921875 33.796875 27.921875 
C 34.5 27.921875 37.40625 28.234375 37.40625 31.625 
C 37.40625 38.546875 30.59375 43.796875 22.90625 43.796875 
C 12.296875 43.796875 3.296875 34.03125 3.296875 21.296875 
C 3.296875 8.0625 12.703125 -1 22.90625 -1 
C 35.296875 -1 38.40625 10.578125 38.40625 11.6875 
C 38.40625 12.09375 38.296875 12.390625 37.59375 12.390625 
C 36.90625 12.390625 36.796875 12.296875 36.40625 10.984375 
C 33.796875 2.8125 28.09375 0.796875 23.796875 0.796875 
C 17.40625 0.796875 9.703125 6.671875 9.703125 21.390625 
C 9.703125 36.53125 17.09375 42 23 42 
C 26.90625 42 32.703125 40.203125 34.90625 35 
z
" id="CMR17-99"/>
     <path d="M 43.09375 21.1875 
C 43.09375 34 33.796875 44 22.90625 44 
C 12 44 2.703125 34 2.703125 21.1875 
C 2.703125 8.609375 12 -1 22.90625 -1 
C 33.796875 -1 43.09375 8.609375 43.09375 21.1875 
z
M 22.90625 0.796875 
C 18.203125 0.796875 14.203125 3.59375 11.90625 7.5 
C 9.40625 11.984375 9.09375 17.59375 9.09375 22 
C 9.09375 26.203125 9.296875 31.40625 11.90625 35.90625 
C 13.90625 39.203125 17.796875 42.40625 22.90625 42.40625 
C 27.40625 42.40625 31.203125 39.90625 33.59375 36.40625 
C 36.703125 31.703125 36.703125 25.109375 36.703125 22 
C 36.703125 18.09375 36.5 12.109375 33.796875 7.296875 
C 31 2.703125 26.703125 0.796875 22.90625 0.796875 
z
" id="CMR17-111"/>
     <path d="M 30.90625 42.140625 
C 30.90625 43.953125 30.796875 44.046875 30.203125 44.046875 
C 29.796875 44.046875 29.703125 43.953125 28.5 42.453125 
C 28.203125 42.046875 27.296875 41.03125 27 40.640625 
C 23.796875 44.046875 19.296875 44.046875 17.59375 44.046875 
C 6.5 44.046875 2.5 38.234375 2.5 32.4375 
C 2.5 23.40625 12.703125 21.328125 15.59375 20.703125 
C 21.90625 19.421875 24.09375 19.015625 26.203125 17.203125 
C 27.5 16.015625 29.703125 13.8125 29.703125 10.21875 
C 29.703125 6 27.296875 0.59375 18.09375 0.59375 
C 9.40625 0.59375 6.296875 7.1875 4.5 15.953125 
C 4.203125 17.34375 4.203125 17.453125 3.40625 17.453125 
C 2.59375 17.453125 2.5 17.34375 2.5 15.359375 
L 2.5 0.984375 
C 2.5 -0.796875 2.59375 -0.90625 3.203125 -0.90625 
C 3.703125 -0.90625 3.796875 -0.796875 4.296875 0 
C 4.90625 0.890625 6.40625 3.296875 7 4.3125 
C 9 1.609375 12.5 -1 18.09375 -1 
C 28 -1 33.296875 4.421875 33.296875 12.25 
C 33.296875 17.375 30.59375 20.078125 29.296875 21.28125 
C 26.296875 24.390625 22.796875 25.09375 18.59375 25.890625 
C 13.09375 27.109375 6.09375 28.515625 6.09375 34.640625 
C 6.09375 37.234375 7.5 42.765625 17.59375 42.765625 
C 28.296875 42.765625 28.90625 32.71875 29.09375 29.5 
C 29.203125 29 29.703125 28.890625 30 28.890625 
C 30.90625 28.890625 30.90625 29.203125 30.90625 30.90625 
z
" id="CMR17-115"/>
     <path d="M 41.5 30.203125 
C 41.5 35.296875 40.5 43.59375 28.703125 43.59375 
C 20.5 43.59375 16.5 37 15.296875 33.703125 
L 15.203125 33.703125 
L 15.203125 68.6875 
L 3.296875 67.59375 
L 3.296875 65 
C 9.203125 65 10.09375 64.40625 10.09375 59.640625 
L 10.09375 6.65625 
C 10.09375 2.875 9.703125 2.390625 3.296875 2.390625 
L 3.296875 -0.203125 
C 5.703125 0 10.09375 0 12.703125 0 
C 15.296875 0 19.796875 0 22.203125 -0.203125 
L 22.203125 2.390625 
C 15.796875 2.390625 15.40625 2.78125 15.40625 6.6875 
L 15.40625 25.90625 
C 15.40625 35.109375 21 42 28 42 
C 35.40625 42 36.203125 35.40625 36.203125 30.59375 
L 36.203125 6.6875 
C 36.203125 2.875 35.796875 2.390625 29.40625 2.390625 
L 29.40625 -0.203125 
C 31.796875 0 36.203125 0 38.796875 0 
C 41.40625 0 45.90625 0 48.296875 -0.203125 
L 48.296875 2.390625 
C 41.90625 2.390625 41.5 2.78125 41.5 6.6875 
z
" id="CMR17-104"/>
     <path d="M 54.40625 67.578125 
L 5.09375 67.578125 
L 5.09375 65 
C 12 65 13.09375 65 13.09375 60.53125 
L 13.09375 6.96875 
C 13.09375 2.5 12 2.5 5.09375 2.5 
L 5.09375 0 
C 8 0 13.59375 0 16.703125 0 
C 20.796875 0 25.59375 0 29.703125 0 
L 29.703125 2.5 
L 27.5 2.5 
C 19.90625 2.5 19.703125 3.484375 19.703125 7.0625 
L 19.703125 32.421875 
L 28.703125 32.421875 
C 38 32.421875 38.90625 29.140625 38.90625 20.8125 
L 40.703125 20.8125 
L 40.703125 46.671875 
L 38.90625 46.671875 
C 38.90625 38.28125 38 35 28.703125 35 
L 19.703125 35 
L 19.703125 61.109375 
C 19.703125 64.5 19.90625 65 23.90625 65 
L 36.796875 65 
C 51.90625 65 53.59375 58.828125 55 45.5625 
L 56.796875 45.5625 
z
" id="CMR17-70"/>
     <path d="M 15.5 61.078125 
C 15.5 63.265625 13.703125 65.15625 11.40625 65.15625 
C 9.203125 65.15625 7.296875 63.375 7.296875 61.078125 
C 7.296875 58.890625 9.09375 57 11.40625 57 
C 13.59375 57 15.5 58.796875 15.5 61.078125 
z
M 3.796875 42.28125 
L 3.796875 39.703125 
C 9.40625 39.703125 10.203125 39.09375 10.203125 34.328125 
L 10.203125 6.671875 
C 10.203125 2.875 9.796875 2.390625 3.40625 2.390625 
L 3.40625 -0.203125 
C 5.796875 0 10.09375 0 12.59375 0 
C 15 0 19.09375 0 21.40625 -0.203125 
L 21.40625 2.390625 
C 15.5 2.390625 15.296875 2.984375 15.296875 6.5625 
L 15.296875 43.375 
z
" id="CMR17-105"/>
    </defs>
    <use transform="scale(0.996264)" xlink:href="#CMR17-99"/>
    <use transform="translate(40.48566 0)scale(0.996264)" xlink:href="#CMR17-111"/>
    <use transform="translate(86.176138 0)scale(0.996264)" xlink:href="#CMR17-115"/>
    <use transform="translate(121.977475 0)scale(0.996264)" xlink:href="#CMR17-104"/>
    <use transform="translate(172.872845 0)scale(0.996264)" xlink:href="#CMR17-50"/>
    <use transform="translate(248.639288 0)scale(0.996264)" xlink:href="#CMR17-70"/>
    <use transform="translate(308.623135 0)scale(0.996264)" xlink:href="#CMR17-105"/>
    <use transform="translate(333.494194 0)scale(0.996264)" xlink:href="#CMR17-116"/>
   </g>
  </g>
 </g>
 <defs>
  <clipPath id="pc3f1100a0c">
   <rect height="123.208657" width="265.090851" x="90.476779" y="72"/>
  </clipPath>
  <clipPath id="pbaa2e8bd70">
   <rect height="123.208657" width="265.090851" x="414.909149" y="72"/>
  </clipPath>
  <clipPath id="pbb3a928042">
   <rect height="123.208657" width="265.090851" x="90.476779" y="267.811139"/>
  </clipPath>
  <clipPath id="p6db4f16a89">
   <rect height="123.208657" width="265.090851" x="414.909149" y="267.811139"/>
  </clipPath>
  <clipPath id="p68eda9ed69">
   <rect height="123.208657" width="265.090851" x="90.476779" y="463.622278"/>
  </clipPath>
  <clipPath id="pf68999c448">
   <rect height="123.208657" width="265.090851" x="414.909149" y="463.622278"/>
  </clipPath>
 </defs>
</svg>
