<?xml version="1.0" encoding="utf-8" standalone="no"?>
<!DOCTYPE svg PUBLIC "-//W3C//DTD SVG 1.1//EN"
  "http://www.w3.org/Graphics/SVG/1.1/DTD/svg11.dtd">
<!-- Created with matplotlib (https://matplotlib.org/) -->
<svg height="576pt" version="1.1" viewBox="0 0 1008 576" width="1008pt" xmlns="http://www.w3.org/2000/svg" xmlns:xlink="http://www.w3.org/1999/xlink">
 <metadata>
  <rdf:RDF xmlns:cc="http://creativecommons.org/ns#" xmlns:dc="http://purl.org/dc/elements/1.1/" xmlns:rdf="http://www.w3.org/1999/02/22-rdf-syntax-ns#">
   <cc:Work>
    <dc:type rdf:resource="http://purl.org/dc/dcmitype/StillImage"/>
    <dc:date>2022-10-25T16:00:30.964872</dc:date>
    <dc:format>image/svg+xml</dc:format>
    <dc:creator>
     <cc:Agent>
      <dc:title>Matplotlib v3.3.4, https://matplotlib.org/</dc:title>
     </cc:Agent>
    </dc:creator>
   </cc:Work>
  </rdf:RDF>
 </metadata>
 <defs>
  <style type="text/css">*{stroke-linecap:butt;stroke-linejoin:round;}</style>
 </defs>
 <g id="figure_1">
  <g id="patch_1">
   <path d="M 0 576 
L 1008 576 
L 1008 0 
L 0 0 
z
" style="fill:#ffffff;"/>
  </g>
  <g id="axes_1">
   <g id="patch_2">
    <path d="M 92.457146 261.684426 
L 329.135777 261.684426 
L 329.135777 63.911226 
L 92.457146 63.911226 
z
" style="fill:#ffffff;"/>
   </g>
   <g id="matplotlib.axis_1">
    <g id="xtick_1">
     <g id="line2d_1">
      <defs>
       <path d="M 0 0 
L 0 3.5 
" id="m7d77cea229" style="stroke:#000000;stroke-width:0.8;"/>
      </defs>
      <g>
       <use style="stroke:#000000;stroke-width:0.8;" x="103.215265" xlink:href="#m7d77cea229" y="261.684426"/>
      </g>
     </g>
     <g id="text_1">
      <!-- $\mathdefault{0}$ -->
      <g transform="translate(99.313272 279.754014)scale(0.16 -0.16)">
       <defs>
        <path d="M 42 31.640625 
C 42 37.75 41.90625 48.125 37.703125 56.109375 
C 34 63.109375 28.09375 65.59375 22.90625 65.59375 
C 18.09375 65.59375 12 63.40625 8.203125 56.203125 
C 4.203125 48.71875 3.796875 39.4375 3.796875 31.640625 
C 3.796875 25.953125 3.90625 17.28125 7 9.671875 
C 11.296875 -0.609375 19 -2 22.90625 -2 
C 27.5 -2 34.5 -0.109375 38.59375 9.375 
C 41.59375 16.28125 42 24.359375 42 31.640625 
z
M 22.90625 -0.40625 
C 16.5 -0.40625 12.703125 5.078125 11.296875 12.6875 
C 10.203125 18.5625 10.203125 27.15625 10.203125 32.75 
C 10.203125 40.4375 10.203125 46.828125 11.5 52.921875 
C 13.40625 61.390625 19 64 22.90625 64 
C 27 64 32.296875 61.296875 34.203125 53.125 
C 35.5 47.4375 35.59375 40.734375 35.59375 32.75 
C 35.59375 26.25 35.59375 18.265625 34.40625 12.375 
C 32.296875 1.484375 26.40625 -0.40625 22.90625 -0.40625 
z
" id="CMR17-48"/>
       </defs>
       <use transform="scale(0.996264)" xlink:href="#CMR17-48"/>
      </g>
     </g>
    </g>
    <g id="xtick_2">
     <g id="line2d_2">
      <g>
       <use style="stroke:#000000;stroke-width:0.8;" x="172.622489" xlink:href="#m7d77cea229" y="261.684426"/>
      </g>
     </g>
     <g id="text_2">
      <!-- $\mathdefault{10}$ -->
      <g transform="translate(164.818502 279.754014)scale(0.16 -0.16)">
       <defs>
        <path d="M 26.59375 63.40625 
C 26.59375 65.5 26.5 65.5 25.09375 65.5 
C 21.203125 61.1875 15.296875 59.796875 9.703125 59.796875 
C 9.40625 59.796875 8.90625 59.796875 8.796875 59.5 
C 8.703125 59.296875 8.703125 59.09375 8.703125 57 
C 11.796875 57 17 57.59375 21 59.984375 
L 21 7.203125 
C 21 3.6875 20.796875 2.5 12.203125 2.5 
L 9.203125 2.5 
L 9.203125 0 
C 14 0 19 0 23.796875 0 
C 28.59375 0 33.59375 0 38.40625 0 
L 38.40625 2.5 
L 35.40625 2.5 
C 26.796875 2.5 26.59375 3.59375 26.59375 7.15625 
z
" id="CMR17-49"/>
       </defs>
       <use transform="scale(0.996264)" xlink:href="#CMR17-49"/>
       <use transform="translate(45.690477 0)scale(0.996264)" xlink:href="#CMR17-48"/>
      </g>
     </g>
    </g>
    <g id="xtick_3">
     <g id="line2d_3">
      <g>
       <use style="stroke:#000000;stroke-width:0.8;" x="242.029712" xlink:href="#m7d77cea229" y="261.684426"/>
      </g>
     </g>
     <g id="text_3">
      <!-- $\mathdefault{20}$ -->
      <g transform="translate(234.225725 279.754014)scale(0.16 -0.16)">
       <defs>
        <path d="M 41.703125 15.453125 
L 39.90625 15.453125 
C 38.90625 8.375 38.09375 7.171875 37.703125 6.5625 
C 37.203125 5.765625 30 5.765625 28.59375 5.765625 
L 9.40625 5.765625 
C 13 9.671875 20 16.75 28.5 24.953125 
C 34.59375 30.734375 41.703125 37.53125 41.703125 47.421875 
C 41.703125 59.21875 32.296875 66 21.796875 66 
C 10.796875 66 4.09375 56.3125 4.09375 47.34375 
C 4.09375 43.4375 7 42.9375 8.203125 42.9375 
C 9.203125 42.9375 12.203125 43.546875 12.203125 47.03125 
C 12.203125 50.109375 9.59375 51 8.203125 51 
C 7.59375 51 7 50.90625 6.59375 50.703125 
C 8.5 59.21875 14.296875 63.40625 20.40625 63.40625 
C 29.09375 63.40625 34.796875 56.515625 34.796875 47.421875 
C 34.796875 38.734375 29.703125 31.25 24 24.75 
L 4.09375 2.28125 
L 4.09375 0 
L 39.296875 0 
z
" id="CMR17-50"/>
       </defs>
       <use transform="scale(0.996264)" xlink:href="#CMR17-50"/>
       <use transform="translate(45.690477 0)scale(0.996264)" xlink:href="#CMR17-48"/>
      </g>
     </g>
    </g>
    <g id="xtick_4">
     <g id="line2d_4">
      <g>
       <use style="stroke:#000000;stroke-width:0.8;" x="311.436935" xlink:href="#m7d77cea229" y="261.684426"/>
      </g>
     </g>
     <g id="text_4">
      <!-- $\mathdefault{30}$ -->
      <g transform="translate(303.632948 279.754014)scale(0.16 -0.16)">
       <defs>
        <path d="M 22.09375 33.703125 
C 31 33.703125 34.90625 25.96875 34.90625 17.03125 
C 34.90625 5 28.5 0.390625 22.703125 0.390625 
C 17.40625 0.390625 8.796875 3.03125 6.09375 10.828125 
C 6.59375 10.625 7.09375 10.625 7.59375 10.625 
C 10 10.625 11.796875 12.21875 11.796875 14.8125 
C 11.796875 17.703125 9.59375 19 7.59375 19 
C 5.90625 19 3.296875 18.203125 3.296875 14.46875 
C 3.296875 5.234375 12.296875 -2 22.90625 -2 
C 34 -2 42.5 6.71875 42.5 16.953125 
C 42.5 26.671875 34.5 33.703125 25 34.796875 
C 32.59375 36.375 39.90625 43.0625 39.90625 52.015625 
C 39.90625 59.6875 32 65.296875 23 65.296875 
C 13.90625 65.296875 5.90625 59.828125 5.90625 52.015625 
C 5.90625 48.59375 8.5 48 9.796875 48 
C 11.90625 48 13.703125 49.296875 13.703125 51.890625 
C 13.703125 54.46875 11.90625 55.765625 9.796875 55.765625 
C 9.40625 55.765625 8.90625 55.765625 8.5 55.578125 
C 11.40625 61.859375 19.296875 63 22.796875 63 
C 26.296875 63 32.90625 61.328125 32.90625 51.875 
C 32.90625 49.109375 32.5 44.1875 29.09375 39.84375 
C 26.09375 36 22.703125 36 19.40625 35.6875 
C 18.90625 35.6875 16.59375 35.453125 16.203125 35.453125 
C 15.5 35.359375 15.09375 35.265625 15.09375 34.5 
C 15.09375 33.796875 15.203125 33.703125 17.203125 33.703125 
z
" id="CMR17-51"/>
       </defs>
       <use transform="scale(0.996264)" xlink:href="#CMR17-51"/>
       <use transform="translate(45.690477 0)scale(0.996264)" xlink:href="#CMR17-48"/>
      </g>
     </g>
    </g>
   </g>
   <g id="matplotlib.axis_2">
    <g id="ytick_1">
     <g id="line2d_5">
      <defs>
       <path d="M 0 0 
L -3.5 0 
" id="mf2b60afa70" style="stroke:#000000;stroke-width:0.8;"/>
      </defs>
      <g>
       <use style="stroke:#000000;stroke-width:0.8;" x="92.457146" xlink:href="#mf2b60afa70" y="252.696865"/>
      </g>
     </g>
     <g id="text_5">
      <!-- $\mathdefault{0.0}$ -->
      <g transform="translate(65.513623 258.231659)scale(0.16 -0.16)">
       <defs>
        <path d="M 18.40625 4.796875 
C 18.40625 7.6875 16 9.671875 13.59375 9.671875 
C 10.703125 9.671875 8.703125 7.28125 8.703125 4.890625 
C 8.703125 2 11.09375 0 13.5 0 
C 16.40625 0 18.40625 2.390625 18.40625 4.796875 
z
" id="CMMI12-58"/>
       </defs>
       <use transform="scale(0.996264)" xlink:href="#CMR17-48"/>
       <use transform="translate(45.690477 0)scale(0.996264)" xlink:href="#CMMI12-58"/>
       <use transform="translate(72.787654 0)scale(0.996264)" xlink:href="#CMR17-48"/>
      </g>
     </g>
    </g>
    <g id="ytick_2">
     <g id="line2d_6">
      <g>
       <use style="stroke:#000000;stroke-width:0.8;" x="92.457146" xlink:href="#mf2b60afa70" y="193.960828"/>
      </g>
     </g>
     <g id="text_6">
      <!-- $\mathdefault{0.5}$ -->
      <g transform="translate(65.513623 199.495622)scale(0.16 -0.16)">
       <defs>
        <path d="M 11.40625 57.6875 
C 12.40625 57.28125 16.5 56 20.703125 56 
C 30 56 35.09375 61.109375 38 64.0625 
C 38 64.953125 38 65.5 37.40625 65.5 
C 37.296875 65.5 37.09375 65.5 36.296875 65.046875 
C 32.796875 63.40625 28.703125 62.078125 23.703125 62.078125 
C 20.703125 62.078125 16.203125 62.484375 11.296875 64.671875 
C 10.203125 65.171875 10 65.171875 9.90625 65.171875 
C 9.40625 65.171875 9.296875 65.0625 9.296875 63.078125 
L 9.296875 34.421875 
C 9.296875 32.640625 9.296875 32.140625 10.296875 32.140625 
C 10.796875 32.140625 11 32.34375 11.5 33.03125 
C 14.703125 37.515625 19.09375 39.40625 24.09375 39.40625 
C 27.59375 39.40625 35.09375 37.21875 35.09375 20.140625 
C 35.09375 16.953125 35.09375 11.171875 32.09375 6.578125 
C 29.59375 2.484375 25.703125 0.390625 21.40625 0.390625 
C 14.796875 0.390625 8.09375 5 6.296875 12.71875 
C 6.703125 12.609375 7.5 12.421875 7.90625 12.421875 
C 9.203125 12.421875 11.703125 13.125 11.703125 16.21875 
C 11.703125 18.90625 9.796875 20 7.90625 20 
C 5.59375 20 4.09375 18.59375 4.09375 15.796875 
C 4.09375 7.09375 11 -2 21.59375 -2 
C 31.90625 -2 41.703125 6.875 41.703125 19.75 
C 41.703125 31.71875 33.90625 41 24.203125 41 
C 19.09375 41 14.796875 39.109375 11.40625 35.53125 
z
" id="CMR17-53"/>
       </defs>
       <use transform="scale(0.996264)" xlink:href="#CMR17-48"/>
       <use transform="translate(45.690477 0)scale(0.996264)" xlink:href="#CMMI12-58"/>
       <use transform="translate(72.787654 0)scale(0.996264)" xlink:href="#CMR17-53"/>
      </g>
     </g>
    </g>
    <g id="ytick_3">
     <g id="line2d_7">
      <g>
       <use style="stroke:#000000;stroke-width:0.8;" x="92.457146" xlink:href="#mf2b60afa70" y="135.224791"/>
      </g>
     </g>
     <g id="text_7">
      <!-- $\mathdefault{1.0}$ -->
      <g transform="translate(65.513623 140.759585)scale(0.16 -0.16)">
       <use transform="scale(0.996264)" xlink:href="#CMR17-49"/>
       <use transform="translate(45.690477 0)scale(0.996264)" xlink:href="#CMMI12-58"/>
       <use transform="translate(72.787654 0)scale(0.996264)" xlink:href="#CMR17-48"/>
      </g>
     </g>
    </g>
    <g id="ytick_4">
     <g id="line2d_8">
      <g>
       <use style="stroke:#000000;stroke-width:0.8;" x="92.457146" xlink:href="#mf2b60afa70" y="76.488754"/>
      </g>
     </g>
     <g id="text_8">
      <!-- $\mathdefault{1.5}$ -->
      <g transform="translate(65.513623 82.023548)scale(0.16 -0.16)">
       <use transform="scale(0.996264)" xlink:href="#CMR17-49"/>
       <use transform="translate(45.690477 0)scale(0.996264)" xlink:href="#CMMI12-58"/>
       <use transform="translate(72.787654 0)scale(0.996264)" xlink:href="#CMR17-53"/>
      </g>
     </g>
    </g>
    <g id="text_9">
     <!-- Real -->
     <g transform="translate(56.862866 184.258418)rotate(-90)scale(0.24 -0.24)">
      <defs>
       <path d="M 39.203125 33.53125 
C 48.703125 35.4375 56.703125 41.8125 56.703125 49.78125 
C 56.703125 59.140625 46.09375 67.59375 32.09375 67.59375 
L 5.203125 67.59375 
L 5.203125 65 
C 12.09375 65 13.203125 65 13.203125 60.515625 
L 13.203125 6.484375 
C 13.203125 2 12.09375 2 5.203125 2 
L 5.203125 -0.40625 
C 8.09375 -0.40625 13.296875 -0.40625 16.40625 -0.40625 
C 19.5 -0.40625 24.703125 -0.40625 27.59375 -0.40625 
L 27.59375 2 
C 20.703125 2 19.59375 2 19.59375 6.515625 
L 19.59375 33 
L 31.296875 33 
C 37 33 40.203125 30.6875 41.59375 29.390625 
C 45.59375 25.5 45.59375 22.796875 45.59375 16 
C 45.59375 9.296875 45.59375 5.890625 48.59375 2.5 
C 52.40625 -1.59375 57.5 -2 59.703125 -2 
C 67.09375 -2 68.203125 6.1875 68.203125 7.859375 
C 68.203125 8.4375 68.203125 9.140625 67.296875 9.140625 
C 66.5 9.140625 66.40625 8.546875 66.40625 8.15625 
C 65.90625 1.75 63 -0.40625 59.90625 -0.40625 
C 54.40625 -0.40625 53.796875 5.859375 53.203125 11.9375 
C 52.90625 14.03125 52.703125 15.515625 52.5 17.703125 
C 51.90625 22.6875 51.09375 29.953125 39.203125 33.53125 
z
M 31 34.59375 
L 19.59375 34.59375 
L 19.59375 61.140625 
C 19.59375 64.515625 19.796875 65 23.796875 65 
L 31.09375 65 
C 39.40625 65 49.09375 62.140625 49.09375 49.84375 
C 49.09375 37.0625 38.5 34.59375 31 34.59375 
z
" id="CMR17-82"/>
       <path d="M 38.09375 23 
C 38.5 23.40625 38.5 23.609375 38.5 24.625 
C 38.5 34.96875 33.09375 44 21.703125 44 
C 11.09375 44 2.703125 33.890625 2.703125 21.609375 
C 2.703125 8.609375 12.203125 -1 22.796875 -1 
C 34 -1 38.40625 9.484375 38.40625 11.5625 
C 38.40625 12.25 37.796875 12.25 37.59375 12.25 
C 36.90625 12.25 36.796875 12.046875 36.40625 10.875 
C 34.203125 4.140625 28.703125 0.796875 23.5 0.796875 
C 19.203125 0.796875 14.90625 3.171875 12.203125 7.5 
C 9.09375 12.546875 9.09375 18.375 9.09375 23 
z
M 9.203125 24.5 
C 9.90625 39.140625 17.59375 42.40625 21.59375 42.40625 
C 28.40625 42.40625 33 35.890625 33.09375 24.5 
z
" id="CMR17-101"/>
       <path d="M 36 25.828125 
C 36 32.375 36 35.84375 31.796875 39.734375 
C 28.09375 43 23.796875 44 20.40625 44 
C 12.5 44 6.796875 37.609375 6.796875 30.796875 
C 6.796875 27 9.796875 27 10.40625 27 
C 11.703125 27 14 27.78125 14 30.53125 
C 14 33 12.09375 34.078125 10.40625 34.078125 
C 10 34.078125 9.5 33.96875 9.203125 33.875 
C 11.296875 40.5 16.703125 42.40625 20.203125 42.40625 
C 25.203125 42.40625 30.703125 37.953125 30.703125 29.453125 
L 30.703125 25 
C 24.796875 25 17.703125 24.203125 12.09375 21.203125 
C 5.796875 17.703125 4 12.703125 4 8.90625 
C 4 1.203125 13 -1 18.296875 -1 
C 23.796875 -1 28.90625 2.171875 31.09375 7.984375 
C 31.296875 3.640625 34.09375 -0.28125 38.5 -0.28125 
C 40.59375 -0.28125 45.90625 1.09375 45.90625 8.859375 
L 45.90625 14.375 
L 44.09375 14.375 
L 44.09375 8.78125 
C 44.09375 2.78125 41.40625 2 40.09375 2 
C 36 2 36 7.15625 36 11.53125 
z
M 30.703125 13.59375 
C 30.703125 4.953125 24.5 0.59375 19 0.59375 
C 14 0.59375 10.09375 4.296875 10.09375 8.90625 
C 10.09375 11.890625 11.40625 17.1875 17.203125 20.390625 
C 22 23.09375 27.5 23.5 30.703125 23.5 
z
" id="CMR17-97"/>
       <path d="M 15.296875 68.6875 
L 3.40625 67.59375 
L 3.40625 65 
C 9.296875 65 10.203125 64.40625 10.203125 59.640625 
L 10.203125 6.65625 
C 10.203125 2.875 9.796875 2.390625 3.40625 2.390625 
L 3.40625 -0.203125 
C 5.796875 0 10.203125 0 12.703125 0 
C 15.296875 0 19.703125 0 22.09375 -0.203125 
L 22.09375 2.390625 
C 15.703125 2.390625 15.296875 2.78125 15.296875 6.65625 
z
" id="CMR17-108"/>
      </defs>
      <use transform="scale(0.996264)" xlink:href="#CMR17-82"/>
      <use transform="translate(67.791102 0)scale(0.996264)" xlink:href="#CMR17-101"/>
      <use transform="translate(108.276762 0)scale(0.996264)" xlink:href="#CMR17-97"/>
      <use transform="translate(153.96724 0)scale(0.996264)" xlink:href="#CMR17-108"/>
     </g>
    </g>
   </g>
   <g id="LineCollection_1">
    <path clip-path="url(#p96cf0615dc)" d="M 103.215265 73.177435 
L 103.215265 72.900917 
" style="fill:none;stroke:#ff0000;stroke-width:2;"/>
    <path clip-path="url(#p96cf0615dc)" d="M 110.155988 237.171258 
L 110.155988 237.11883 
" style="fill:none;stroke:#ff0000;stroke-width:2;"/>
    <path clip-path="url(#p96cf0615dc)" d="M 117.09671 249.733073 
L 117.09671 249.714652 
" style="fill:none;stroke:#ff0000;stroke-width:2;"/>
    <path clip-path="url(#p96cf0615dc)" d="M 124.037432 251.869466 
L 124.037432 251.861135 
" style="fill:none;stroke:#ff0000;stroke-width:2;"/>
    <path clip-path="url(#p96cf0615dc)" d="M 130.978155 252.381295 
L 130.978155 252.376057 
" style="fill:none;stroke:#ff0000;stroke-width:2;"/>
    <path clip-path="url(#p96cf0615dc)" d="M 137.918877 252.547713 
L 137.918877 252.544577 
" style="fill:none;stroke:#ff0000;stroke-width:2;"/>
    <path clip-path="url(#p96cf0615dc)" d="M 144.859599 252.617141 
L 144.859599 252.614652 
" style="fill:none;stroke:#ff0000;stroke-width:2;"/>
    <path clip-path="url(#p96cf0615dc)" d="M 151.800322 252.650739 
L 151.800322 252.648908 
" style="fill:none;stroke:#ff0000;stroke-width:2;"/>
    <path clip-path="url(#p96cf0615dc)" d="M 158.741044 252.66895 
L 158.741044 252.667592 
" style="fill:none;stroke:#ff0000;stroke-width:2;"/>
    <path clip-path="url(#p96cf0615dc)" d="M 165.681766 252.679191 
L 165.681766 252.678142 
" style="fill:none;stroke:#ff0000;stroke-width:2;"/>
    <path clip-path="url(#p96cf0615dc)" d="M 172.622489 252.685439 
L 172.622489 252.684637 
" style="fill:none;stroke:#ff0000;stroke-width:2;"/>
    <path clip-path="url(#p96cf0615dc)" d="M 179.563211 252.689277 
L 179.563211 252.688677 
" style="fill:none;stroke:#ff0000;stroke-width:2;"/>
    <path clip-path="url(#p96cf0615dc)" d="M 186.503933 252.691674 
L 186.503933 252.691211 
" style="fill:none;stroke:#ff0000;stroke-width:2;"/>
    <path clip-path="url(#p96cf0615dc)" d="M 193.444656 252.693194 
L 193.444656 252.692791 
" style="fill:none;stroke:#ff0000;stroke-width:2;"/>
    <path clip-path="url(#p96cf0615dc)" d="M 200.385378 252.694115 
L 200.385378 252.693825 
" style="fill:none;stroke:#ff0000;stroke-width:2;"/>
    <path clip-path="url(#p96cf0615dc)" d="M 207.3261 252.694593 
L 207.3261 252.694379 
" style="fill:none;stroke:#ff0000;stroke-width:2;"/>
    <path clip-path="url(#p96cf0615dc)" d="M 214.266823 252.694735 
L 214.266823 252.694536 
" style="fill:none;stroke:#ff0000;stroke-width:2;"/>
    <path clip-path="url(#p96cf0615dc)" d="M 221.207545 252.694516 
L 221.207545 252.694338 
" style="fill:none;stroke:#ff0000;stroke-width:2;"/>
    <path clip-path="url(#p96cf0615dc)" d="M 228.148267 252.693946 
L 228.148267 252.693739 
" style="fill:none;stroke:#ff0000;stroke-width:2;"/>
    <path clip-path="url(#p96cf0615dc)" d="M 235.08899 252.692885 
L 235.08899 252.692628 
" style="fill:none;stroke:#ff0000;stroke-width:2;"/>
    <path clip-path="url(#p96cf0615dc)" d="M 242.029712 252.691167 
L 242.029712 252.690842 
" style="fill:none;stroke:#ff0000;stroke-width:2;"/>
    <path clip-path="url(#p96cf0615dc)" d="M 248.970434 252.688445 
L 248.970434 252.687965 
" style="fill:none;stroke:#ff0000;stroke-width:2;"/>
    <path clip-path="url(#p96cf0615dc)" d="M 255.911157 252.684153 
L 255.911157 252.683531 
" style="fill:none;stroke:#ff0000;stroke-width:2;"/>
    <path clip-path="url(#p96cf0615dc)" d="M 262.851879 252.677508 
L 262.851879 252.676604 
" style="fill:none;stroke:#ff0000;stroke-width:2;"/>
    <path clip-path="url(#p96cf0615dc)" d="M 269.792601 252.666635 
L 269.792601 252.665481 
" style="fill:none;stroke:#ff0000;stroke-width:2;"/>
    <path clip-path="url(#p96cf0615dc)" d="M 276.733324 252.648246 
L 276.733324 252.646609 
" style="fill:none;stroke:#ff0000;stroke-width:2;"/>
    <path clip-path="url(#p96cf0615dc)" d="M 283.674046 252.614823 
L 283.674046 252.612778 
" style="fill:none;stroke:#ff0000;stroke-width:2;"/>
    <path clip-path="url(#p96cf0615dc)" d="M 290.614768 252.54614 
L 290.614768 252.543037 
" style="fill:none;stroke:#ff0000;stroke-width:2;"/>
    <path clip-path="url(#p96cf0615dc)" d="M 297.555491 252.380551 
L 297.555491 252.376126 
" style="fill:none;stroke:#ff0000;stroke-width:2;"/>
    <path clip-path="url(#p96cf0615dc)" d="M 304.496213 251.871 
L 304.496213 251.863228 
" style="fill:none;stroke:#ff0000;stroke-width:2;"/>
    <path clip-path="url(#p96cf0615dc)" d="M 311.436935 249.730997 
L 311.436935 249.711916 
" style="fill:none;stroke:#ff0000;stroke-width:2;"/>
    <path clip-path="url(#p96cf0615dc)" d="M 318.377658 237.178375 
L 318.377658 237.127765 
" style="fill:none;stroke:#ff0000;stroke-width:2;"/>
   </g>
   <g id="line2d_9">
    <path clip-path="url(#p96cf0615dc)" d="M 103.215265 73.039176 
L 110.155988 237.145044 
L 117.09671 249.723862 
L 124.037432 251.865301 
L 130.978155 252.378676 
L 137.918877 252.546145 
L 144.859599 252.615896 
L 151.800322 252.649823 
L 158.741044 252.668271 
L 165.681766 252.678666 
L 172.622489 252.685038 
L 179.563211 252.688977 
L 186.503933 252.691442 
L 193.444656 252.692992 
L 200.385378 252.69397 
L 207.3261 252.694486 
L 214.266823 252.694636 
L 221.207545 252.694427 
L 228.148267 252.693842 
L 235.08899 252.692756 
L 242.029712 252.691005 
L 248.970434 252.688205 
L 255.911157 252.683842 
L 262.851879 252.677056 
L 269.792601 252.666058 
L 276.733324 252.647427 
L 283.674046 252.613801 
L 290.614768 252.544589 
L 297.555491 252.378338 
L 304.496213 251.867114 
L 311.436935 249.721457 
L 318.377658 237.15307 
" style="fill:none;stroke:#000000;stroke-linecap:square;stroke-width:2;"/>
   </g>
   <g id="patch_3">
    <path d="M 92.457146 261.684426 
L 92.457146 63.911226 
" style="fill:none;stroke:#000000;stroke-linecap:square;stroke-linejoin:miter;stroke-width:0.8;"/>
   </g>
   <g id="patch_4">
    <path d="M 329.135777 261.684426 
L 329.135777 63.911226 
" style="fill:none;stroke:#000000;stroke-linecap:square;stroke-linejoin:miter;stroke-width:0.8;"/>
   </g>
   <g id="patch_5">
    <path d="M 92.457146 261.684426 
L 329.135777 261.684426 
" style="fill:none;stroke:#000000;stroke-linecap:square;stroke-linejoin:miter;stroke-width:0.8;"/>
   </g>
   <g id="patch_6">
    <path d="M 92.457146 63.911226 
L 329.135777 63.911226 
" style="fill:none;stroke:#000000;stroke-linecap:square;stroke-linejoin:miter;stroke-width:0.8;"/>
   </g>
   <g id="text_10">
    <!-- $C(t)$ -->
    <g transform="translate(188.868308 57.911226)scale(0.24 -0.24)">
     <defs>
      <path d="M 74.703125 69.109375 
C 74.703125 70 74 70 73.796875 70 
C 73.59375 70 73.203125 70 72.40625 69 
L 65.5 60.65625 
C 62 66.625 56.5 70 49 70 
C 27.40625 70 5 48.25 5 24.921875 
C 5 8.328125 16.703125 -2 31.296875 -2 
C 39.296875 -2 46.296875 1.375 52.09375 6.25 
C 60.796875 13.484375 63.40625 23.140625 63.40625 23.921875 
C 63.40625 24.8125 62.59375 24.8125 62.296875 24.8125 
C 61.40625 24.8125 61.296875 24.21875 61.09375 23.8125 
C 56.5 8.34375 43 0.890625 33 0.890625 
C 22.40625 0.890625 13.203125 7.640625 13.203125 21.734375 
C 13.203125 24.921875 14.203125 42.1875 25.5 55.1875 
C 31 61.546875 40.40625 67.109375 49.90625 67.109375 
C 60.90625 67.109375 65.796875 58.078125 65.796875 47.9375 
C 65.796875 45.359375 65.5 43.1875 65.5 42.78125 
C 65.5 41.890625 66.5 41.890625 66.796875 41.890625 
C 67.90625 41.890625 68 41.984375 68.40625 43.765625 
z
" id="CMMI12-67"/>
      <path d="M 30.59375 -24.390625 
C 30.59375 -24.296875 30.59375 -24.09375 30.296875 -23.796875 
C 25.703125 -19.125 13.40625 -6.359375 13.40625 24.703125 
C 13.40625 55.765625 25.5 68.421875 30.40625 73.390625 
C 30.40625 73.5 30.59375 73.703125 30.59375 74 
C 30.59375 74.296875 30.296875 74.5 29.90625 74.5 
C 28.796875 74.5 20.296875 67.125 15.40625 56.15625 
C 10.40625 45.109375 9 34.359375 9 24.8125 
C 9 17.625 9.703125 5.484375 15.703125 -7.359375 
C 20.5 -17.734375 28.703125 -25 29.90625 -25 
C 30.40625 -25 30.59375 -24.796875 30.59375 -24.390625 
z
" id="CMR17-40"/>
      <path d="M 20.09375 40.09375 
L 29.296875 40.09375 
C 31.203125 40.09375 32.203125 40.09375 32.203125 41.890625 
C 32.203125 43 31.59375 43 29.59375 43 
L 20.796875 43 
L 24.5 57.6875 
C 24.90625 59.078125 24.90625 59.28125 24.90625 60 
C 24.90625 61.609375 23.59375 62.5 22.296875 62.5 
C 21.5 62.5 19.203125 62.203125 18.40625 58.984375 
L 14.5 43 
L 5.09375 43 
C 3.09375 43 2.203125 43 2.203125 41.09375 
C 2.203125 40.09375 2.90625 40.09375 4.796875 40.09375 
L 13.703125 40.09375 
L 7.09375 13.765625 
C 6.296875 10.28125 6 9.28125 6 7.984375 
C 6 3.296875 9.296875 -1 14.90625 -1 
C 25 -1 30.40625 13.5625 30.40625 14.25 
C 30.40625 14.859375 30 15.15625 29.40625 15.15625 
C 29.203125 15.15625 28.796875 15.15625 28.59375 14.75 
C 28.5 14.65625 28.40625 14.546875 27.703125 12.953125 
C 25.59375 7.984375 21 1 15.203125 1 
C 12.203125 1 12 3.5 12 5.6875 
C 12 5.78125 12 7.6875 12.296875 8.875 
z
" id="CMMI12-116"/>
      <path d="M 26.296875 24.703125 
C 26.296875 31.875 25.59375 44.015625 19.59375 56.859375 
C 14.796875 67.234375 6.59375 74.5 5.40625 74.5 
C 5.09375 74.5 4.703125 74.390625 4.703125 73.890625 
C 4.703125 73.703125 4.796875 73.59375 4.90625 73.390625 
C 9.703125 68.40625 21.90625 55.75 21.90625 24.75 
C 21.90625 -6.359375 9.796875 -19.015625 4.90625 -24.015625 
C 4.796875 -24.203125 4.703125 -24.3125 4.703125 -24.5 
C 4.703125 -25 5.09375 -25 5.40625 -25 
C 6.5 -25 15 -17.625 19.90625 -6.65625 
C 24.90625 4.390625 26.296875 15.140625 26.296875 24.703125 
z
" id="CMR17-41"/>
     </defs>
     <use transform="scale(0.996264)" xlink:href="#CMMI12-67"/>
     <use transform="translate(76.946847 0)scale(0.996264)" xlink:href="#CMR17-40"/>
     <use transform="translate(112.227614 0)scale(0.996264)" xlink:href="#CMMI12-116"/>
     <use transform="translate(147.453945 0)scale(0.996264)" xlink:href="#CMR17-41"/>
    </g>
   </g>
  </g>
  <g id="axes_2">
   <g id="patch_7">
    <path d="M 411.889257 261.684426 
L 648.567889 261.684426 
L 648.567889 63.911226 
L 411.889257 63.911226 
z
" style="fill:#ffffff;"/>
   </g>
   <g id="matplotlib.axis_3">
    <g id="xtick_5">
     <g id="line2d_10">
      <g>
       <use style="stroke:#000000;stroke-width:0.8;" x="422.647376" xlink:href="#m7d77cea229" y="261.684426"/>
      </g>
     </g>
     <g id="text_11">
      <!-- $\mathdefault{0}$ -->
      <g transform="translate(418.745383 279.754014)scale(0.16 -0.16)">
       <use transform="scale(0.996264)" xlink:href="#CMR17-48"/>
      </g>
     </g>
    </g>
    <g id="xtick_6">
     <g id="line2d_11">
      <g>
       <use style="stroke:#000000;stroke-width:0.8;" x="489.885624" xlink:href="#m7d77cea229" y="261.684426"/>
      </g>
     </g>
     <g id="text_12">
      <!-- $\mathdefault{5}$ -->
      <g transform="translate(485.983631 279.754014)scale(0.16 -0.16)">
       <use transform="scale(0.996264)" xlink:href="#CMR17-53"/>
      </g>
     </g>
    </g>
    <g id="xtick_7">
     <g id="line2d_12">
      <g>
       <use style="stroke:#000000;stroke-width:0.8;" x="557.123872" xlink:href="#m7d77cea229" y="261.684426"/>
      </g>
     </g>
     <g id="text_13">
      <!-- $\mathdefault{10}$ -->
      <g transform="translate(549.319885 279.754014)scale(0.16 -0.16)">
       <use transform="scale(0.996264)" xlink:href="#CMR17-49"/>
       <use transform="translate(45.690477 0)scale(0.996264)" xlink:href="#CMR17-48"/>
      </g>
     </g>
    </g>
    <g id="xtick_8">
     <g id="line2d_13">
      <g>
       <use style="stroke:#000000;stroke-width:0.8;" x="624.36212" xlink:href="#m7d77cea229" y="261.684426"/>
      </g>
     </g>
     <g id="text_14">
      <!-- $\mathdefault{15}$ -->
      <g transform="translate(616.558133 279.754014)scale(0.16 -0.16)">
       <use transform="scale(0.996264)" xlink:href="#CMR17-49"/>
       <use transform="translate(45.690477 0)scale(0.996264)" xlink:href="#CMR17-53"/>
      </g>
     </g>
    </g>
   </g>
   <g id="matplotlib.axis_4">
    <g id="ytick_5">
     <g id="line2d_14">
      <g>
       <use style="stroke:#000000;stroke-width:0.8;" x="411.889257" xlink:href="#mf2b60afa70" y="252.696865"/>
      </g>
     </g>
     <g id="text_15">
      <!-- $\mathdefault{0.0}$ -->
      <g transform="translate(384.945735 258.231659)scale(0.16 -0.16)">
       <use transform="scale(0.996264)" xlink:href="#CMR17-48"/>
       <use transform="translate(45.690477 0)scale(0.996264)" xlink:href="#CMMI12-58"/>
       <use transform="translate(72.787654 0)scale(0.996264)" xlink:href="#CMR17-48"/>
      </g>
     </g>
    </g>
    <g id="ytick_6">
     <g id="line2d_15">
      <g>
       <use style="stroke:#000000;stroke-width:0.8;" x="411.889257" xlink:href="#mf2b60afa70" y="193.960828"/>
      </g>
     </g>
     <g id="text_16">
      <!-- $\mathdefault{0.5}$ -->
      <g transform="translate(384.945735 199.495622)scale(0.16 -0.16)">
       <use transform="scale(0.996264)" xlink:href="#CMR17-48"/>
       <use transform="translate(45.690477 0)scale(0.996264)" xlink:href="#CMMI12-58"/>
       <use transform="translate(72.787654 0)scale(0.996264)" xlink:href="#CMR17-53"/>
      </g>
     </g>
    </g>
    <g id="ytick_7">
     <g id="line2d_16">
      <g>
       <use style="stroke:#000000;stroke-width:0.8;" x="411.889257" xlink:href="#mf2b60afa70" y="135.224791"/>
      </g>
     </g>
     <g id="text_17">
      <!-- $\mathdefault{1.0}$ -->
      <g transform="translate(384.945735 140.759585)scale(0.16 -0.16)">
       <use transform="scale(0.996264)" xlink:href="#CMR17-49"/>
       <use transform="translate(45.690477 0)scale(0.996264)" xlink:href="#CMMI12-58"/>
       <use transform="translate(72.787654 0)scale(0.996264)" xlink:href="#CMR17-48"/>
      </g>
     </g>
    </g>
    <g id="ytick_8">
     <g id="line2d_17">
      <g>
       <use style="stroke:#000000;stroke-width:0.8;" x="411.889257" xlink:href="#mf2b60afa70" y="76.488754"/>
      </g>
     </g>
     <g id="text_18">
      <!-- $\mathdefault{1.5}$ -->
      <g transform="translate(384.945735 82.023548)scale(0.16 -0.16)">
       <use transform="scale(0.996264)" xlink:href="#CMR17-49"/>
       <use transform="translate(45.690477 0)scale(0.996264)" xlink:href="#CMMI12-58"/>
       <use transform="translate(72.787654 0)scale(0.996264)" xlink:href="#CMR17-53"/>
      </g>
     </g>
    </g>
   </g>
   <g id="LineCollection_2">
    <path clip-path="url(#p920901cf63)" d="M 422.647376 73.177435 
L 422.647376 72.900917 
" style="fill:none;stroke:#ff0000;stroke-width:2;"/>
    <path clip-path="url(#p920901cf63)" d="M 436.095026 237.16741 
L 436.095026 237.130705 
" style="fill:none;stroke:#ff0000;stroke-width:2;"/>
    <path clip-path="url(#p920901cf63)" d="M 449.542676 249.729517 
L 449.542676 249.715802 
" style="fill:none;stroke:#ff0000;stroke-width:2;"/>
    <path clip-path="url(#p920901cf63)" d="M 462.990325 251.868871 
L 462.990325 251.863543 
" style="fill:none;stroke:#ff0000;stroke-width:2;"/>
    <path clip-path="url(#p920901cf63)" d="M 476.437975 252.380198 
L 476.437975 252.376816 
" style="fill:none;stroke:#ff0000;stroke-width:2;"/>
    <path clip-path="url(#p920901cf63)" d="M 489.885624 252.546529 
L 489.885624 252.544204 
" style="fill:none;stroke:#ff0000;stroke-width:2;"/>
    <path clip-path="url(#p920901cf63)" d="M 503.333274 252.615617 
L 503.333274 252.61408 
" style="fill:none;stroke:#ff0000;stroke-width:2;"/>
    <path clip-path="url(#p920901cf63)" d="M 516.780923 252.649263 
L 516.780923 252.647988 
" style="fill:none;stroke:#ff0000;stroke-width:2;"/>
    <path clip-path="url(#p920901cf63)" d="M 530.228573 252.667598 
L 530.228573 252.666731 
" style="fill:none;stroke:#ff0000;stroke-width:2;"/>
    <path clip-path="url(#p920901cf63)" d="M 543.676222 252.67822 
L 543.676222 252.677502 
" style="fill:none;stroke:#ff0000;stroke-width:2;"/>
    <path clip-path="url(#p920901cf63)" d="M 557.123872 252.684681 
L 557.123872 252.684199 
" style="fill:none;stroke:#ff0000;stroke-width:2;"/>
    <path clip-path="url(#p920901cf63)" d="M 570.571521 252.688785 
L 570.571521 252.688397 
" style="fill:none;stroke:#ff0000;stroke-width:2;"/>
    <path clip-path="url(#p920901cf63)" d="M 584.019171 252.691362 
L 584.019171 252.691086 
" style="fill:none;stroke:#ff0000;stroke-width:2;"/>
    <path clip-path="url(#p920901cf63)" d="M 597.46682 252.692999 
L 597.46682 252.69275 
" style="fill:none;stroke:#ff0000;stroke-width:2;"/>
    <path clip-path="url(#p920901cf63)" d="M 610.91447 252.693995 
L 610.91447 252.693817 
" style="fill:none;stroke:#ff0000;stroke-width:2;"/>
    <path clip-path="url(#p920901cf63)" d="M 624.36212 252.694526 
L 624.36212 252.694387 
" style="fill:none;stroke:#ff0000;stroke-width:2;"/>
    <path clip-path="url(#p920901cf63)" d="M 637.809769 252.694735 
L 637.809769 252.694536 
" style="fill:none;stroke:#ff0000;stroke-width:2;"/>
   </g>
   <g id="line2d_18">
    <path clip-path="url(#p920901cf63)" d="M 422.647376 73.039176 
L 436.095026 237.149057 
L 449.542676 249.722659 
L 462.990325 251.866207 
L 476.437975 252.378507 
L 489.885624 252.545367 
L 503.333274 252.614849 
L 516.780923 252.648625 
L 530.228573 252.667165 
L 543.676222 252.677861 
L 557.123872 252.68444 
L 570.571521 252.688591 
L 584.019171 252.691224 
L 597.46682 252.692874 
L 610.91447 252.693906 
L 624.36212 252.694456 
L 637.809769 252.694636 
" style="fill:none;stroke:#000000;stroke-linecap:square;stroke-width:2;"/>
   </g>
   <g id="patch_8">
    <path d="M 411.889257 261.684426 
L 411.889257 63.911226 
" style="fill:none;stroke:#000000;stroke-linecap:square;stroke-linejoin:miter;stroke-width:0.8;"/>
   </g>
   <g id="patch_9">
    <path d="M 648.567889 261.684426 
L 648.567889 63.911226 
" style="fill:none;stroke:#000000;stroke-linecap:square;stroke-linejoin:miter;stroke-width:0.8;"/>
   </g>
   <g id="patch_10">
    <path d="M 411.889257 261.684426 
L 648.567889 261.684426 
" style="fill:none;stroke:#000000;stroke-linecap:square;stroke-linejoin:miter;stroke-width:0.8;"/>
   </g>
   <g id="patch_11">
    <path d="M 411.889257 63.911226 
L 648.567889 63.911226 
" style="fill:none;stroke:#000000;stroke-linecap:square;stroke-linejoin:miter;stroke-width:0.8;"/>
   </g>
   <g id="text_19">
    <!-- Folded $C(t)$ -->
    <g transform="translate(472.889563 57.911226)scale(0.24 -0.24)">
     <defs>
      <path d="M 54.40625 67.578125 
L 5.09375 67.578125 
L 5.09375 65 
C 12 65 13.09375 65 13.09375 60.53125 
L 13.09375 6.96875 
C 13.09375 2.5 12 2.5 5.09375 2.5 
L 5.09375 0 
C 8 0 13.59375 0 16.703125 0 
C 20.796875 0 25.59375 0 29.703125 0 
L 29.703125 2.5 
L 27.5 2.5 
C 19.90625 2.5 19.703125 3.484375 19.703125 7.0625 
L 19.703125 32.421875 
L 28.703125 32.421875 
C 38 32.421875 38.90625 29.140625 38.90625 20.8125 
L 40.703125 20.8125 
L 40.703125 46.671875 
L 38.90625 46.671875 
C 38.90625 38.28125 38 35 28.703125 35 
L 19.703125 35 
L 19.703125 61.109375 
C 19.703125 64.5 19.90625 65 23.90625 65 
L 36.796875 65 
C 51.90625 65 53.59375 58.828125 55 45.5625 
L 56.796875 45.5625 
z
" id="CMR17-70"/>
      <path d="M 43.09375 21.1875 
C 43.09375 34 33.796875 44 22.90625 44 
C 12 44 2.703125 34 2.703125 21.1875 
C 2.703125 8.609375 12 -1 22.90625 -1 
C 33.796875 -1 43.09375 8.609375 43.09375 21.1875 
z
M 22.90625 0.796875 
C 18.203125 0.796875 14.203125 3.59375 11.90625 7.5 
C 9.40625 11.984375 9.09375 17.59375 9.09375 22 
C 9.09375 26.203125 9.296875 31.40625 11.90625 35.90625 
C 13.90625 39.203125 17.796875 42.40625 22.90625 42.40625 
C 27.40625 42.40625 31.203125 39.90625 33.59375 36.40625 
C 36.703125 31.703125 36.703125 25.109375 36.703125 22 
C 36.703125 18.09375 36.5 12.109375 33.796875 7.296875 
C 31 2.703125 26.703125 0.796875 22.90625 0.796875 
z
" id="CMR17-111"/>
      <path d="M 29.203125 67.59375 
L 29.203125 65 
C 35.09375 65 36 64.40625 36 59.6875 
L 36 36.640625 
C 35.59375 37.140625 31.5 43.59375 23.40625 43.59375 
C 13.203125 43.59375 3.296875 34.5 3.296875 21.3125 
C 3.296875 8.203125 12.59375 -1 22.40625 -1 
C 30.90625 -1 35.296875 5.265625 35.796875 5.9375 
L 35.796875 -0.984375 
L 47.90625 -0.984375 
L 47.90625 2 
C 42 2 41.09375 2.59375 41.09375 7.390625 
L 41.09375 68.6875 
z
M 35.796875 11.796875 
C 35.796875 8.796875 34 6.09375 31.703125 4.09375 
C 28.296875 1.09375 24.90625 0.59375 23 0.59375 
C 20.09375 0.59375 9.703125 2.09375 9.703125 21.1875 
C 9.703125 40.8125 21.296875 42 23.90625 42 
C 28.5 42 32.203125 39.40625 34.5 35.796875 
C 35.796875 33.703125 35.796875 33.40625 35.796875 31.609375 
z
" id="CMR17-100"/>
     </defs>
     <use transform="scale(0.996264)" xlink:href="#CMR17-70"/>
     <use transform="translate(52.176591 0)scale(0.996264)" xlink:href="#CMR17-111"/>
     <use transform="translate(97.867068 0)scale(0.996264)" xlink:href="#CMR17-108"/>
     <use transform="translate(122.738127 0)scale(0.996264)" xlink:href="#CMR17-100"/>
     <use transform="translate(173.633497 0)scale(0.996264)" xlink:href="#CMR17-101"/>
     <use transform="translate(214.119157 0)scale(0.996264)" xlink:href="#CMR17-100"/>
     <use transform="translate(295.090493 0)scale(0.996264)" xlink:href="#CMMI12-67"/>
     <use transform="translate(372.03734 0)scale(0.996264)" xlink:href="#CMR17-40"/>
     <use transform="translate(407.318108 0)scale(0.996264)" xlink:href="#CMMI12-116"/>
     <use transform="translate(442.544438 0)scale(0.996264)" xlink:href="#CMR17-41"/>
    </g>
   </g>
  </g>
  <g id="axes_3">
   <g id="patch_12">
    <path d="M 731.321368 261.684426 
L 968 261.684426 
L 968 63.911226 
L 731.321368 63.911226 
z
" style="fill:#ffffff;"/>
   </g>
   <g id="matplotlib.axis_5">
    <g id="xtick_9">
     <g id="line2d_19">
      <g>
       <use style="stroke:#000000;stroke-width:0.8;" x="742.079488" xlink:href="#m7d77cea229" y="261.684426"/>
      </g>
     </g>
     <g id="text_20">
      <!-- $\mathdefault{0}$ -->
      <g transform="translate(738.177494 279.754014)scale(0.16 -0.16)">
       <use transform="scale(0.996264)" xlink:href="#CMR17-48"/>
      </g>
     </g>
    </g>
    <g id="xtick_10">
     <g id="line2d_20">
      <g>
       <use style="stroke:#000000;stroke-width:0.8;" x="809.317735" xlink:href="#m7d77cea229" y="261.684426"/>
      </g>
     </g>
     <g id="text_21">
      <!-- $\mathdefault{5}$ -->
      <g transform="translate(805.415742 279.754014)scale(0.16 -0.16)">
       <use transform="scale(0.996264)" xlink:href="#CMR17-53"/>
      </g>
     </g>
    </g>
    <g id="xtick_11">
     <g id="line2d_21">
      <g>
       <use style="stroke:#000000;stroke-width:0.8;" x="876.555983" xlink:href="#m7d77cea229" y="261.684426"/>
      </g>
     </g>
     <g id="text_22">
      <!-- $\mathdefault{10}$ -->
      <g transform="translate(868.751996 279.754014)scale(0.16 -0.16)">
       <use transform="scale(0.996264)" xlink:href="#CMR17-49"/>
       <use transform="translate(45.690477 0)scale(0.996264)" xlink:href="#CMR17-48"/>
      </g>
     </g>
    </g>
    <g id="xtick_12">
     <g id="line2d_22">
      <g>
       <use style="stroke:#000000;stroke-width:0.8;" x="943.794231" xlink:href="#m7d77cea229" y="261.684426"/>
      </g>
     </g>
     <g id="text_23">
      <!-- $\mathdefault{15}$ -->
      <g transform="translate(935.990244 279.754014)scale(0.16 -0.16)">
       <use transform="scale(0.996264)" xlink:href="#CMR17-49"/>
       <use transform="translate(45.690477 0)scale(0.996264)" xlink:href="#CMR17-53"/>
      </g>
     </g>
    </g>
   </g>
   <g id="matplotlib.axis_6">
    <g id="ytick_9">
     <g id="line2d_23">
      <g>
       <use style="stroke:#000000;stroke-width:0.8;" x="731.321368" xlink:href="#mf2b60afa70" y="241.153498"/>
      </g>
     </g>
     <g id="text_24">
      <!-- $\mathdefault{−0.0001}$ -->
      <g transform="translate(668.567889 246.688292)scale(0.16 -0.16)">
       <defs>
        <path d="M 65.90625 23 
C 67.59375 23 69.40625 23 69.40625 25 
C 69.40625 27 67.59375 27 65.90625 27 
L 11.796875 27 
C 10.09375 27 8.296875 27 8.296875 25 
C 8.296875 23 10.09375 23 11.796875 23 
z
" id="CMSY10-0"/>
       </defs>
       <use transform="scale(0.996264)" xlink:href="#CMSY10-0"/>
       <use transform="translate(77.487468 0)scale(0.996264)" xlink:href="#CMR17-48"/>
       <use transform="translate(123.177945 0)scale(0.996264)" xlink:href="#CMMI12-58"/>
       <use transform="translate(150.275122 0)scale(0.996264)" xlink:href="#CMR17-48"/>
       <use transform="translate(195.965599 0)scale(0.996264)" xlink:href="#CMR17-48"/>
       <use transform="translate(241.656076 0)scale(0.996264)" xlink:href="#CMR17-48"/>
       <use transform="translate(287.346553 0)scale(0.996264)" xlink:href="#CMR17-49"/>
      </g>
     </g>
    </g>
    <g id="ytick_10">
     <g id="line2d_24">
      <g>
       <use style="stroke:#000000;stroke-width:0.8;" x="731.321368" xlink:href="#mf2b60afa70" y="182.750062"/>
      </g>
     </g>
     <g id="text_25">
      <!-- $\mathdefault{0.0000}$ -->
      <g transform="translate(680.965885 188.284856)scale(0.16 -0.16)">
       <use transform="scale(0.996264)" xlink:href="#CMR17-48"/>
       <use transform="translate(45.690477 0)scale(0.996264)" xlink:href="#CMMI12-58"/>
       <use transform="translate(72.787654 0)scale(0.996264)" xlink:href="#CMR17-48"/>
       <use transform="translate(118.478131 0)scale(0.996264)" xlink:href="#CMR17-48"/>
       <use transform="translate(164.168608 0)scale(0.996264)" xlink:href="#CMR17-48"/>
       <use transform="translate(209.859086 0)scale(0.996264)" xlink:href="#CMR17-48"/>
      </g>
     </g>
    </g>
    <g id="ytick_11">
     <g id="line2d_25">
      <g>
       <use style="stroke:#000000;stroke-width:0.8;" x="731.321368" xlink:href="#mf2b60afa70" y="124.346626"/>
      </g>
     </g>
     <g id="text_26">
      <!-- $\mathdefault{0.0001}$ -->
      <g transform="translate(680.965885 129.88142)scale(0.16 -0.16)">
       <use transform="scale(0.996264)" xlink:href="#CMR17-48"/>
       <use transform="translate(45.690477 0)scale(0.996264)" xlink:href="#CMMI12-58"/>
       <use transform="translate(72.787654 0)scale(0.996264)" xlink:href="#CMR17-48"/>
       <use transform="translate(118.478131 0)scale(0.996264)" xlink:href="#CMR17-48"/>
       <use transform="translate(164.168608 0)scale(0.996264)" xlink:href="#CMR17-48"/>
       <use transform="translate(209.859086 0)scale(0.996264)" xlink:href="#CMR17-49"/>
      </g>
     </g>
    </g>
    <g id="ytick_12">
     <g id="line2d_26">
      <g>
       <use style="stroke:#000000;stroke-width:0.8;" x="731.321368" xlink:href="#mf2b60afa70" y="65.943191"/>
      </g>
     </g>
     <g id="text_27">
      <!-- $\mathdefault{0.0002}$ -->
      <g transform="translate(680.965885 71.477985)scale(0.16 -0.16)">
       <use transform="scale(0.996264)" xlink:href="#CMR17-48"/>
       <use transform="translate(45.690477 0)scale(0.996264)" xlink:href="#CMMI12-58"/>
       <use transform="translate(72.787654 0)scale(0.996264)" xlink:href="#CMR17-48"/>
       <use transform="translate(118.478131 0)scale(0.996264)" xlink:href="#CMR17-48"/>
       <use transform="translate(164.168608 0)scale(0.996264)" xlink:href="#CMR17-48"/>
       <use transform="translate(209.859086 0)scale(0.996264)" xlink:href="#CMR17-50"/>
      </g>
     </g>
    </g>
   </g>
   <g id="LineCollection_3">
    <path clip-path="url(#p9c9e7ec04b)" d="M 742.079488 182.750062 
L 742.079488 182.750062 
" style="fill:none;stroke:#ff0000;stroke-width:2;"/>
    <path clip-path="url(#p9c9e7ec04b)" d="M 755.527137 252.694735 
L 755.527137 72.900917 
" style="fill:none;stroke:#ff0000;stroke-width:2;"/>
    <path clip-path="url(#p9c9e7ec04b)" d="M 768.974787 220.528603 
L 768.974787 156.9313 
" style="fill:none;stroke:#ff0000;stroke-width:2;"/>
    <path clip-path="url(#p9c9e7ec04b)" d="M 782.422436 193.26527 
L 782.422436 163.220372 
" style="fill:none;stroke:#ff0000;stroke-width:2;"/>
    <path clip-path="url(#p9c9e7ec04b)" d="M 795.870086 192.226002 
L 795.870086 174.953425 
" style="fill:none;stroke:#ff0000;stroke-width:2;"/>
    <path clip-path="url(#p9c9e7ec04b)" d="M 809.317735 191.787957 
L 809.317735 181.449943 
" style="fill:none;stroke:#ff0000;stroke-width:2;"/>
    <path clip-path="url(#p9c9e7ec04b)" d="M 822.765385 192.13717 
L 822.765385 183.7819 
" style="fill:none;stroke:#ff0000;stroke-width:2;"/>
    <path clip-path="url(#p9c9e7ec04b)" d="M 836.213035 191.635398 
L 836.213035 185.776835 
" style="fill:none;stroke:#ff0000;stroke-width:2;"/>
    <path clip-path="url(#p9c9e7ec04b)" d="M 849.660684 190.521665 
L 849.660684 185.979533 
" style="fill:none;stroke:#ff0000;stroke-width:2;"/>
    <path clip-path="url(#p9c9e7ec04b)" d="M 863.108334 188.410121 
L 863.108334 185.097408 
" style="fill:none;stroke:#ff0000;stroke-width:2;"/>
    <path clip-path="url(#p9c9e7ec04b)" d="M 876.555983 187.044034 
L 876.555983 184.403138 
" style="fill:none;stroke:#ff0000;stroke-width:2;"/>
    <path clip-path="url(#p9c9e7ec04b)" d="M 890.003633 185.612144 
L 890.003633 183.723432 
" style="fill:none;stroke:#ff0000;stroke-width:2;"/>
    <path clip-path="url(#p9c9e7ec04b)" d="M 903.451282 184.556878 
L 903.451282 183.118703 
" style="fill:none;stroke:#ff0000;stroke-width:2;"/>
    <path clip-path="url(#p9c9e7ec04b)" d="M 916.898932 183.905731 
L 916.898932 182.767886 
" style="fill:none;stroke:#ff0000;stroke-width:2;"/>
    <path clip-path="url(#p9c9e7ec04b)" d="M 930.346581 183.509947 
L 930.346581 182.624071 
" style="fill:none;stroke:#ff0000;stroke-width:2;"/>
    <path clip-path="url(#p9c9e7ec04b)" d="M 943.794231 183.243081 
L 943.794231 182.550723 
" style="fill:none;stroke:#ff0000;stroke-width:2;"/>
    <path clip-path="url(#p9c9e7ec04b)" d="M 957.24188 182.750062 
L 957.24188 182.750062 
" style="fill:none;stroke:#ff0000;stroke-width:2;"/>
   </g>
   <g id="line2d_27">
    <path clip-path="url(#p9c9e7ec04b)" d="M 742.079488 182.750062 
L 755.527137 162.797826 
L 768.974787 188.729952 
L 782.422436 178.242821 
L 795.870086 183.589714 
L 809.317735 186.61895 
L 822.765385 187.959535 
L 836.213035 188.706117 
L 849.660684 188.250599 
L 863.108334 186.753765 
L 876.555983 185.723586 
L 890.003633 184.667788 
L 903.451282 183.837791 
L 916.898932 183.336809 
L 930.346581 183.067009 
L 943.794231 182.896902 
L 957.24188 182.750062 
" style="fill:none;stroke:#000000;stroke-linecap:square;stroke-width:2;"/>
   </g>
   <g id="patch_13">
    <path d="M 731.321368 261.684426 
L 731.321368 63.911226 
" style="fill:none;stroke:#000000;stroke-linecap:square;stroke-linejoin:miter;stroke-width:0.8;"/>
   </g>
   <g id="patch_14">
    <path d="M 968 261.684426 
L 968 63.911226 
" style="fill:none;stroke:#000000;stroke-linecap:square;stroke-linejoin:miter;stroke-width:0.8;"/>
   </g>
   <g id="patch_15">
    <path d="M 731.321368 261.684426 
L 968 261.684426 
" style="fill:none;stroke:#000000;stroke-linecap:square;stroke-linejoin:miter;stroke-width:0.8;"/>
   </g>
   <g id="patch_16">
    <path d="M 731.321368 63.911226 
L 968 63.911226 
" style="fill:none;stroke:#000000;stroke-linecap:square;stroke-linejoin:miter;stroke-width:0.8;"/>
   </g>
   <g id="text_28">
    <!-- $C(t)$ - Folded $C(t)$ -->
    <g transform="translate(759.566173 57.911226)scale(0.24 -0.24)">
     <defs>
      <path d="M 25.5 19 
L 25.5 23.375 
L 0.40625 23.375 
L 0.40625 19 
z
" id="CMR17-45"/>
     </defs>
     <use transform="scale(0.996264)" xlink:href="#CMMI12-67"/>
     <use transform="translate(76.946847 0)scale(0.996264)" xlink:href="#CMR17-40"/>
     <use transform="translate(112.227614 0)scale(0.996264)" xlink:href="#CMMI12-116"/>
     <use transform="translate(147.453945 0)scale(0.996264)" xlink:href="#CMR17-41"/>
     <use transform="translate(212.810679 0)scale(0.996264)" xlink:href="#CMR17-45"/>
     <use transform="translate(272.962612 0)scale(0.996264)" xlink:href="#CMR17-70"/>
     <use transform="translate(325.139203 0)scale(0.996264)" xlink:href="#CMR17-111"/>
     <use transform="translate(370.82968 0)scale(0.996264)" xlink:href="#CMR17-108"/>
     <use transform="translate(395.700738 0)scale(0.996264)" xlink:href="#CMR17-100"/>
     <use transform="translate(446.596108 0)scale(0.996264)" xlink:href="#CMR17-101"/>
     <use transform="translate(487.081769 0)scale(0.996264)" xlink:href="#CMR17-100"/>
     <use transform="translate(568.053105 0)scale(0.996264)" xlink:href="#CMMI12-67"/>
     <use transform="translate(644.999951 0)scale(0.996264)" xlink:href="#CMR17-40"/>
     <use transform="translate(680.280719 0)scale(0.996264)" xlink:href="#CMMI12-116"/>
     <use transform="translate(715.507049 0)scale(0.996264)" xlink:href="#CMR17-41"/>
    </g>
   </g>
  </g>
  <g id="axes_4">
   <g id="patch_17">
    <path d="M 92.457146 514.830936 
L 329.135777 514.830936 
L 329.135777 317.057736 
L 92.457146 317.057736 
z
" style="fill:#ffffff;"/>
   </g>
   <g id="matplotlib.axis_7">
    <g id="xtick_13">
     <g id="line2d_28">
      <g>
       <use style="stroke:#000000;stroke-width:0.8;" x="103.215265" xlink:href="#m7d77cea229" y="514.830936"/>
      </g>
     </g>
     <g id="text_29">
      <!-- $\mathdefault{0}$ -->
      <g transform="translate(99.313272 532.900524)scale(0.16 -0.16)">
       <use transform="scale(0.996264)" xlink:href="#CMR17-48"/>
      </g>
     </g>
    </g>
    <g id="xtick_14">
     <g id="line2d_29">
      <g>
       <use style="stroke:#000000;stroke-width:0.8;" x="172.622489" xlink:href="#m7d77cea229" y="514.830936"/>
      </g>
     </g>
     <g id="text_30">
      <!-- $\mathdefault{10}$ -->
      <g transform="translate(164.818502 532.900524)scale(0.16 -0.16)">
       <use transform="scale(0.996264)" xlink:href="#CMR17-49"/>
       <use transform="translate(45.690477 0)scale(0.996264)" xlink:href="#CMR17-48"/>
      </g>
     </g>
    </g>
    <g id="xtick_15">
     <g id="line2d_30">
      <g>
       <use style="stroke:#000000;stroke-width:0.8;" x="242.029712" xlink:href="#m7d77cea229" y="514.830936"/>
      </g>
     </g>
     <g id="text_31">
      <!-- $\mathdefault{20}$ -->
      <g transform="translate(234.225725 532.900524)scale(0.16 -0.16)">
       <use transform="scale(0.996264)" xlink:href="#CMR17-50"/>
       <use transform="translate(45.690477 0)scale(0.996264)" xlink:href="#CMR17-48"/>
      </g>
     </g>
    </g>
    <g id="xtick_16">
     <g id="line2d_31">
      <g>
       <use style="stroke:#000000;stroke-width:0.8;" x="311.436935" xlink:href="#m7d77cea229" y="514.830936"/>
      </g>
     </g>
     <g id="text_32">
      <!-- $\mathdefault{30}$ -->
      <g transform="translate(303.632948 532.900524)scale(0.16 -0.16)">
       <use transform="scale(0.996264)" xlink:href="#CMR17-51"/>
       <use transform="translate(45.690477 0)scale(0.996264)" xlink:href="#CMR17-48"/>
      </g>
     </g>
    </g>
   </g>
   <g id="matplotlib.axis_8">
    <g id="ytick_13">
     <g id="line2d_32">
      <g>
       <use style="stroke:#000000;stroke-width:0.8;" x="92.457146" xlink:href="#mf2b60afa70" y="493.083327"/>
      </g>
     </g>
     <g id="text_33">
      <!-- $\mathdefault{−6}$ -->
      <g transform="translate(65.255163 498.618121)scale(0.16 -0.16)">
       <defs>
        <path d="M 10.59375 34 
C 10.59375 57.65625 21.796875 63 28.296875 63 
C 30.40625 63 35.5 62.640625 37.5 59 
C 35.90625 59 32.90625 59 32.90625 55.515625 
C 32.90625 52.828125 35.09375 51.921875 36.5 51.921875 
C 37.40625 51.921875 40.09375 52.3125 40.09375 55.625 
C 40.09375 61.78125 35.09375 65.296875 28.203125 65.296875 
C 16.296875 65.296875 3.796875 52.96875 3.796875 31 
C 3.796875 3.953125 15.09375 -2 23.09375 -2 
C 32.796875 -2 42 6.671875 42 20.046875 
C 42 32.515625 33.90625 41.59375 23.703125 41.59375 
C 17.59375 41.59375 13.09375 37.609375 10.59375 30.625 
z
M 23.09375 0.390625 
C 10.796875 0.390625 10.796875 18.75 10.796875 22.4375 
C 10.796875 29.625 14.203125 40 23.5 40 
C 25.203125 40 30.09375 40 33.40625 33.125 
C 35.203125 29.21875 35.203125 25.140625 35.203125 20.140625 
C 35.203125 14.75 35.203125 10.78125 33.09375 6.78125 
C 30.90625 2.671875 27.703125 0.390625 23.09375 0.390625 
z
" id="CMR17-54"/>
       </defs>
       <use transform="scale(0.996264)" xlink:href="#CMSY10-0"/>
       <use transform="translate(77.487468 0)scale(0.996264)" xlink:href="#CMR17-54"/>
      </g>
     </g>
    </g>
    <g id="ytick_14">
     <g id="line2d_33">
      <g>
       <use style="stroke:#000000;stroke-width:0.8;" x="92.457146" xlink:href="#mf2b60afa70" y="444.250744"/>
      </g>
     </g>
     <g id="text_34">
      <!-- $\mathdefault{−4}$ -->
      <g transform="translate(65.255163 449.785538)scale(0.16 -0.16)">
       <defs>
        <path d="M 33.59375 64.40625 
C 33.59375 66.5 33.5 66.5 31.703125 66.5 
L 2 19.59375 
L 2 17 
L 27.796875 17 
L 27.796875 7.140625 
C 27.796875 3.5 27.59375 2.5 20.59375 2.5 
L 18.703125 2.5 
L 18.703125 0 
C 21.90625 0 27.296875 0 30.703125 0 
C 34.09375 0 39.5 0 42.703125 0 
L 42.703125 2.5 
L 40.796875 2.5 
C 33.796875 2.5 33.59375 3.5 33.59375 7.140625 
L 33.59375 17 
L 43.796875 17 
L 43.796875 19.59375 
L 33.59375 19.59375 
z
M 28.09375 57.859375 
L 28.09375 19.59375 
L 4 19.59375 
z
" id="CMR17-52"/>
       </defs>
       <use transform="scale(0.996264)" xlink:href="#CMSY10-0"/>
       <use transform="translate(77.487468 0)scale(0.996264)" xlink:href="#CMR17-52"/>
      </g>
     </g>
    </g>
    <g id="ytick_15">
     <g id="line2d_34">
      <g>
       <use style="stroke:#000000;stroke-width:0.8;" x="92.457146" xlink:href="#mf2b60afa70" y="395.41816"/>
      </g>
     </g>
     <g id="text_35">
      <!-- $\mathdefault{−2}$ -->
      <g transform="translate(65.255163 400.952954)scale(0.16 -0.16)">
       <use transform="scale(0.996264)" xlink:href="#CMSY10-0"/>
       <use transform="translate(77.487468 0)scale(0.996264)" xlink:href="#CMR17-50"/>
      </g>
     </g>
    </g>
    <g id="ytick_16">
     <g id="line2d_35">
      <g>
       <use style="stroke:#000000;stroke-width:0.8;" x="92.457146" xlink:href="#mf2b60afa70" y="346.585577"/>
      </g>
     </g>
     <g id="text_36">
      <!-- $\mathdefault{0}$ -->
      <g transform="translate(77.653159 352.120371)scale(0.16 -0.16)">
       <use transform="scale(0.996264)" xlink:href="#CMR17-48"/>
      </g>
     </g>
    </g>
    <g id="text_37">
     <!-- Imaginary -->
     <g transform="translate(56.604405 464.660674)rotate(-90)scale(0.24 -0.24)">
      <defs>
       <path d="M 19.703125 61.015625 
C 19.703125 65.5 20.90625 65.5 28.09375 65.5 
L 28.09375 68 
C 24.90625 68 19.796875 68 16.40625 68 
C 13 68 7.90625 68 4.703125 68 
L 4.703125 65.5 
C 11.90625 65.5 13.09375 65.5 13.09375 61.015625 
L 13.09375 6.984375 
C 13.09375 2.5 11.90625 2.5 4.703125 2.5 
L 4.703125 0 
C 7.90625 0 13 0 16.40625 0 
C 19.796875 0 24.90625 0 28.09375 0 
L 28.09375 2.5 
C 20.90625 2.5 19.703125 2.5 19.703125 6.984375 
z
" id="CMR17-73"/>
       <path d="M 67.59375 30.203125 
C 67.59375 35.1875 66.703125 43.59375 54.796875 43.59375 
C 48 43.59375 43.296875 39 41.5 33.609375 
L 41.40625 33.609375 
C 40.203125 41.8125 34.296875 43.59375 28.703125 43.59375 
C 20.796875 43.59375 16.703125 37.5 15.203125 33.5 
L 15.09375 33.5 
L 15.09375 43.59375 
L 3.296875 42.5 
L 3.296875 39.90625 
C 9.203125 39.90625 10.09375 39.296875 10.09375 34.5 
L 10.09375 6.6875 
C 10.09375 2.875 9.703125 2.390625 3.296875 2.390625 
L 3.296875 -0.203125 
C 5.703125 0 10.09375 0 12.703125 0 
C 15.296875 0 19.796875 0 22.203125 -0.203125 
L 22.203125 2.390625 
C 15.796875 2.390625 15.40625 2.78125 15.40625 6.6875 
L 15.40625 25.90625 
C 15.40625 35.109375 21 42 28 42 
C 35.40625 42 36.203125 35.40625 36.203125 30.59375 
L 36.203125 6.6875 
C 36.203125 2.875 35.796875 2.390625 29.40625 2.390625 
L 29.40625 -0.203125 
C 31.796875 0 36.203125 0 38.796875 0 
C 41.40625 0 45.90625 0 48.296875 -0.203125 
L 48.296875 2.390625 
C 41.90625 2.390625 41.5 2.78125 41.5 6.6875 
L 41.5 25.90625 
C 41.5 35.109375 47.09375 42 54.09375 42 
C 61.5 42 62.296875 35.40625 62.296875 30.59375 
L 62.296875 6.6875 
C 62.296875 2.875 61.90625 2.390625 55.5 2.390625 
L 55.5 -0.203125 
C 57.90625 0 62.296875 0 64.90625 0 
C 67.5 0 72 0 74.40625 -0.203125 
L 74.40625 2.390625 
C 68 2.390625 67.59375 2.78125 67.59375 6.6875 
z
" id="CMR17-109"/>
       <path d="M 11.09375 18.1875 
C 13 16.6875 16.296875 15 20.296875 15 
C 28.203125 15 35 21.203125 35 29.5 
C 35 32.09375 34.203125 36.09375 31.203125 39.203125 
C 34 42.0625 38.09375 43 40.40625 43 
C 40.796875 43 41.40625 43 41.90625 42.71875 
C 41.5 42.625 40.59375 42.234375 40.59375 40.703125 
C 40.59375 39.484375 41.5 38.609375 42.796875 38.609375 
C 44.296875 38.609375 45.09375 39.578125 45.09375 40.84375 
C 45.09375 42.671875 43.59375 44.59375 40.40625 44.59375 
C 36.40625 44.59375 32.90625 42.78125 30.09375 40.3125 
C 27.09375 43.015625 23.5 44 20.296875 44 
C 12.40625 44 5.59375 37.796875 5.59375 29.5 
C 5.59375 23.78125 8.90625 20.1875 9.90625 19.1875 
C 6.90625 15.6875 6.90625 11.609375 6.90625 11.109375 
C 6.90625 8.515625 7.90625 4.71875 11.296875 2.625 
C 6.09375 1.328125 2 -2.640625 2 -7.59375 
C 2 -14.734375 11.5 -20 22.90625 -20 
C 33.90625 -20 43.796875 -14.9375 43.796875 -7.484375 
C 43.796875 6 29 6 21.296875 6 
C 19 6 14.90625 6 14.40625 6.109375 
C 11.296875 6.609375 9.203125 9.40625 9.203125 12.90625 
C 9.203125 13.796875 9.203125 16 11.09375 18.1875 
z
M 20.296875 16.6875 
C 11.5 16.6875 11.5 27.5 11.5 29.515625 
C 11.5 31.5 11.5 42.3125 20.296875 42.3125 
C 29.09375 42.3125 29.09375 31.5 29.09375 29.515625 
C 29.09375 27.5 29.09375 16.6875 20.296875 16.6875 
z
M 22.90625 -18.296875 
C 12.90625 -18.296875 6 -13.046875 6 -7.59375 
C 6 -4.515625 7.703125 -1.640625 9.90625 -0.0625 
C 12.40625 1.625 13.40625 1.625 20.203125 1.625 
C 28.40625 1.625 39.796875 1.625 39.796875 -7.59375 
C 39.796875 -13.046875 32.90625 -18.296875 22.90625 -18.296875 
z
" id="CMR17-103"/>
       <path d="M 15.5 61.078125 
C 15.5 63.265625 13.703125 65.15625 11.40625 65.15625 
C 9.203125 65.15625 7.296875 63.375 7.296875 61.078125 
C 7.296875 58.890625 9.09375 57 11.40625 57 
C 13.59375 57 15.5 58.796875 15.5 61.078125 
z
M 3.796875 42.28125 
L 3.796875 39.703125 
C 9.40625 39.703125 10.203125 39.09375 10.203125 34.328125 
L 10.203125 6.671875 
C 10.203125 2.875 9.796875 2.390625 3.40625 2.390625 
L 3.40625 -0.203125 
C 5.796875 0 10.09375 0 12.59375 0 
C 15 0 19.09375 0 21.40625 -0.203125 
L 21.40625 2.390625 
C 15.5 2.390625 15.296875 2.984375 15.296875 6.5625 
L 15.296875 43.375 
z
" id="CMR17-105"/>
       <path d="M 41.5 30.203125 
C 41.5 35.296875 40.5 43.59375 28.703125 43.59375 
C 20.796875 43.59375 16.703125 37.5 15.203125 33.5 
L 15.09375 33.5 
L 15.09375 43.59375 
L 3.296875 42.5 
L 3.296875 39.90625 
C 9.203125 39.90625 10.09375 39.296875 10.09375 34.5 
L 10.09375 6.6875 
C 10.09375 2.875 9.703125 2.390625 3.296875 2.390625 
L 3.296875 -0.203125 
C 5.703125 0 10.09375 0 12.703125 0 
C 15.296875 0 19.796875 0 22.203125 -0.203125 
L 22.203125 2.390625 
C 15.796875 2.390625 15.40625 2.78125 15.40625 6.6875 
L 15.40625 25.90625 
C 15.40625 35.109375 21 42 28 42 
C 35.40625 42 36.203125 35.40625 36.203125 30.59375 
L 36.203125 6.6875 
C 36.203125 2.875 35.796875 2.390625 29.40625 2.390625 
L 29.40625 -0.203125 
C 31.796875 0 36.203125 0 38.796875 0 
C 41.40625 0 45.90625 0 48.296875 -0.203125 
L 48.296875 2.390625 
C 41.90625 2.390625 41.5 2.78125 41.5 6.6875 
z
" id="CMR17-110"/>
       <path d="M 15 23.390625 
C 15 33 19.09375 42 26.59375 42 
C 27.296875 42 28 41.90625 28.703125 41.59375 
C 28.703125 41.59375 26.5 40.890625 26.5 38.3125 
C 26.5 35.90625 28.40625 34.90625 29.90625 34.90625 
C 31.09375 34.90625 33.296875 35.609375 33.296875 38.40625 
C 33.296875 41.609375 30.09375 43.59375 26.703125 43.59375 
C 19.09375 43.59375 15.796875 36.203125 14.796875 32.703125 
L 14.703125 32.703125 
L 14.703125 43.59375 
L 3.09375 42.5 
L 3.09375 39.90625 
C 9 39.90625 9.90625 39.296875 9.90625 34.5 
L 9.90625 6.6875 
C 9.90625 2.875 9.5 2.390625 3.09375 2.390625 
L 3.09375 -0.203125 
C 5.5 0 10.09375 0 12.703125 0 
C 15.59375 0 20.703125 0 23.40625 -0.203125 
L 23.40625 2.390625 
C 16.203125 2.390625 15 2.390625 15 6.875 
z
" id="CMR17-114"/>
       <path d="M 39 34.328125 
C 41.5 40.40625 46 40.40625 47.40625 40.40625 
L 47.40625 43 
C 45.5 43 43 43 41.09375 43 
C 39 43 35.703125 43 33.703125 43.09375 
L 33.703125 40.5 
C 37.5 40.203125 37.59375 37.40625 37.59375 36.609375 
C 37.59375 35.625 37.40625 35.125 36.90625 33.921875 
L 26 7.015625 
L 14.09375 36.03125 
C 13.59375 37.21875 13.59375 37.90625 13.59375 38.015625 
C 13.59375 40.203125 15.90625 40.40625 18.296875 40.40625 
L 18.296875 43.09375 
C 15.90625 43 11.59375 43 9.09375 43 
C 6.40625 43 3.203125 43 1 43.09375 
L 1 40.40625 
C 6.40625 40.40625 7 39.90625 8.296875 36.71875 
L 23.203125 0.234375 
C 18.703125 -11.53125 16.09375 -18.40625 9.796875 -18.40625 
C 8.703125 -18.40625 6.203125 -18.109375 4.40625 -16.3125 
C 6.703125 -16.109375 7.703125 -14.71875 7.703125 -13.015625 
C 7.703125 -11.328125 6.5 -9.828125 4.5 -9.828125 
C 2.296875 -9.828125 1.203125 -11.328125 1.203125 -13.125 
C 1.203125 -17.109375 5.296875 -20 9.796875 -20 
C 15.59375 -20 19.203125 -14.40625 21.203125 -9.4375 
z
" id="CMR17-121"/>
      </defs>
      <use transform="scale(0.996264)" xlink:href="#CMR17-73"/>
      <use transform="translate(32.638409 0)scale(0.996264)" xlink:href="#CMR17-109"/>
      <use transform="translate(109.557999 0)scale(0.996264)" xlink:href="#CMR17-97"/>
      <use transform="translate(155.248476 0)scale(0.996264)" xlink:href="#CMR17-103"/>
      <use transform="translate(200.938953 0)scale(0.996264)" xlink:href="#CMR17-105"/>
      <use transform="translate(225.810012 0)scale(0.996264)" xlink:href="#CMR17-110"/>
      <use transform="translate(276.705382 0)scale(0.996264)" xlink:href="#CMR17-97"/>
      <use transform="translate(322.395859 0)scale(0.996264)" xlink:href="#CMR17-114"/>
      <use transform="translate(357.676626 0)scale(0.996264)" xlink:href="#CMR17-121"/>
     </g>
    </g>
    <g id="text_38">
     <!-- $\times\mathdefault{10^{−20}}\mathdefault{}$ -->
     <g transform="translate(92.457146 314.057736)scale(0.16 -0.16)">
      <defs>
       <path d="M 38.90625 27.890625 
L 18.90625 47.796875 
C 17.703125 49 17.5 49.1875 16.703125 49.1875 
C 15.703125 49.1875 14.703125 48.296875 14.703125 47.1875 
C 14.703125 46.5 14.90625 46.296875 16 45.1875 
L 36 25.09375 
L 16 5 
C 14.90625 3.890625 14.703125 3.6875 14.703125 3 
C 14.703125 1.890625 15.703125 1 16.703125 1 
C 17.5 1 17.703125 1.1875 18.90625 2.390625 
L 38.796875 22.296875 
L 59.5 1.59375 
C 59.703125 1.5 60.40625 1 61 1 
C 62.203125 1 63 1.890625 63 3 
C 63 3.1875 63 3.59375 62.703125 4.09375 
C 62.59375 4.296875 46.703125 20 41.703125 25.09375 
L 60 43.390625 
C 60.5 44 62 45.296875 62.5 45.890625 
C 62.59375 46.09375 63 46.5 63 47.1875 
C 63 48.296875 62.203125 49.1875 61 49.1875 
C 60.203125 49.1875 59.796875 48.796875 58.703125 47.6875 
z
" id="CMSY10-2"/>
      </defs>
      <use transform="scale(0.996264)" xlink:href="#CMSY10-2"/>
      <use transform="translate(77.487468 0)scale(0.996264)" xlink:href="#CMR17-49"/>
      <use transform="translate(123.177945 0)scale(0.996264)" xlink:href="#CMR17-48"/>
      <use transform="translate(168.868422 36.153639)scale(0.697382)" xlink:href="#CMSY10-0"/>
      <use transform="translate(223.109415 36.153639)scale(0.697382)" xlink:href="#CMR17-50"/>
      <use transform="translate(255.092597 36.153639)scale(0.697382)" xlink:href="#CMR17-48"/>
     </g>
    </g>
   </g>
   <g id="LineCollection_4">
    <path clip-path="url(#p15b810f027)" d="M 103.215265 505.841245 
L 103.215265 329.492309 
" style="fill:none;stroke:#ff0000;stroke-width:2;"/>
    <path clip-path="url(#p15b810f027)" d="M 110.155988 395.132223 
L 110.155988 363.668741 
" style="fill:none;stroke:#ff0000;stroke-width:2;"/>
    <path clip-path="url(#p15b810f027)" d="M 117.09671 347.266987 
L 117.09671 340.367048 
" style="fill:none;stroke:#ff0000;stroke-width:2;"/>
    <path clip-path="url(#p15b810f027)" d="M 124.037432 346.488317 
L 124.037432 344.782487 
" style="fill:none;stroke:#ff0000;stroke-width:2;"/>
    <path clip-path="url(#p15b810f027)" d="M 130.978155 346.99246 
L 130.978155 346.499352 
" style="fill:none;stroke:#ff0000;stroke-width:2;"/>
    <path clip-path="url(#p15b810f027)" d="M 137.918877 346.792972 
L 137.918877 346.615037 
" style="fill:none;stroke:#ff0000;stroke-width:2;"/>
    <path clip-path="url(#p15b810f027)" d="M 144.859599 346.671512 
L 144.859599 346.57341 
" style="fill:none;stroke:#ff0000;stroke-width:2;"/>
    <path clip-path="url(#p15b810f027)" d="M 151.800322 346.667991 
L 151.800322 346.612022 
" style="fill:none;stroke:#ff0000;stroke-width:2;"/>
    <path clip-path="url(#p15b810f027)" d="M 158.741044 346.606658 
L 158.741044 346.566269 
" style="fill:none;stroke:#ff0000;stroke-width:2;"/>
    <path clip-path="url(#p15b810f027)" d="M 165.681766 346.588998 
L 165.681766 346.556102 
" style="fill:none;stroke:#ff0000;stroke-width:2;"/>
    <path clip-path="url(#p15b810f027)" d="M 172.622489 346.611545 
L 172.622489 346.592578 
" style="fill:none;stroke:#ff0000;stroke-width:2;"/>
    <path clip-path="url(#p15b810f027)" d="M 179.563211 346.577854 
L 179.563211 346.562664 
" style="fill:none;stroke:#ff0000;stroke-width:2;"/>
    <path clip-path="url(#p15b810f027)" d="M 186.503933 346.588776 
L 186.503933 346.577777 
" style="fill:none;stroke:#ff0000;stroke-width:2;"/>
    <path clip-path="url(#p15b810f027)" d="M 193.444656 346.587334 
L 193.444656 346.580313 
" style="fill:none;stroke:#ff0000;stroke-width:2;"/>
    <path clip-path="url(#p15b810f027)" d="M 200.385378 346.590335 
L 200.385378 346.583951 
" style="fill:none;stroke:#ff0000;stroke-width:2;"/>
    <path clip-path="url(#p15b810f027)" d="M 207.3261 346.582845 
L 207.3261 346.576535 
" style="fill:none;stroke:#ff0000;stroke-width:2;"/>
    <path clip-path="url(#p15b810f027)" d="M 214.266823 346.581374 
L 214.266823 346.574868 
" style="fill:none;stroke:#ff0000;stroke-width:2;"/>
    <path clip-path="url(#p15b810f027)" d="M 221.207545 346.584904 
L 221.207545 346.579997 
" style="fill:none;stroke:#ff0000;stroke-width:2;"/>
    <path clip-path="url(#p15b810f027)" d="M 228.148267 346.592648 
L 228.148267 346.585666 
" style="fill:none;stroke:#ff0000;stroke-width:2;"/>
    <path clip-path="url(#p15b810f027)" d="M 235.08899 346.593167 
L 235.08899 346.585651 
" style="fill:none;stroke:#ff0000;stroke-width:2;"/>
    <path clip-path="url(#p15b810f027)" d="M 242.029712 346.598184 
L 242.029712 346.586937 
" style="fill:none;stroke:#ff0000;stroke-width:2;"/>
    <path clip-path="url(#p15b810f027)" d="M 248.970434 346.593721 
L 248.970434 346.579527 
" style="fill:none;stroke:#ff0000;stroke-width:2;"/>
    <path clip-path="url(#p15b810f027)" d="M 255.911157 346.6022 
L 255.911157 346.583212 
" style="fill:none;stroke:#ff0000;stroke-width:2;"/>
    <path clip-path="url(#p15b810f027)" d="M 262.851879 346.607341 
L 262.851879 346.577819 
" style="fill:none;stroke:#ff0000;stroke-width:2;"/>
    <path clip-path="url(#p15b810f027)" d="M 269.792601 346.610502 
L 269.792601 346.571309 
" style="fill:none;stroke:#ff0000;stroke-width:2;"/>
    <path clip-path="url(#p15b810f027)" d="M 276.733324 346.565333 
L 276.733324 346.499412 
" style="fill:none;stroke:#ff0000;stroke-width:2;"/>
    <path clip-path="url(#p15b810f027)" d="M 283.674046 346.548263 
L 283.674046 346.4719 
" style="fill:none;stroke:#ff0000;stroke-width:2;"/>
    <path clip-path="url(#p15b810f027)" d="M 290.614768 346.824524 
L 290.614768 346.628676 
" style="fill:none;stroke:#ff0000;stroke-width:2;"/>
    <path clip-path="url(#p15b810f027)" d="M 297.555491 346.669302 
L 297.555491 346.234617 
" style="fill:none;stroke:#ff0000;stroke-width:2;"/>
    <path clip-path="url(#p15b810f027)" d="M 304.496213 347.256291 
L 304.496213 345.610084 
" style="fill:none;stroke:#ff0000;stroke-width:2;"/>
    <path clip-path="url(#p15b810f027)" d="M 311.436935 354.128333 
L 311.436935 348.450736 
" style="fill:none;stroke:#ff0000;stroke-width:2;"/>
    <path clip-path="url(#p15b810f027)" d="M 318.377658 359.10865 
L 318.377658 326.047427 
" style="fill:none;stroke:#ff0000;stroke-width:2;"/>
   </g>
   <g id="line2d_36">
    <path clip-path="url(#p15b810f027)" d="M 103.215265 417.666777 
L 110.155988 379.400482 
L 117.09671 343.817017 
L 124.037432 345.635402 
L 130.978155 346.745906 
L 137.918877 346.704004 
L 144.859599 346.622461 
L 151.800322 346.640006 
L 158.741044 346.586464 
L 165.681766 346.57255 
L 172.622489 346.602062 
L 179.563211 346.570259 
L 186.503933 346.583276 
L 193.444656 346.583824 
L 200.385378 346.587143 
L 207.3261 346.57969 
L 214.266823 346.578121 
L 221.207545 346.58245 
L 228.148267 346.589157 
L 235.08899 346.589409 
L 242.029712 346.592561 
L 248.970434 346.586624 
L 255.911157 346.592706 
L 262.851879 346.59258 
L 269.792601 346.590905 
L 276.733324 346.532373 
L 283.674046 346.510081 
L 290.614768 346.7266 
L 297.555491 346.451959 
L 304.496213 346.433188 
L 311.436935 351.289534 
L 318.377658 342.578038 
" style="fill:none;stroke:#000000;stroke-linecap:square;stroke-width:2;"/>
   </g>
   <g id="patch_18">
    <path d="M 92.457146 514.830936 
L 92.457146 317.057736 
" style="fill:none;stroke:#000000;stroke-linecap:square;stroke-linejoin:miter;stroke-width:0.8;"/>
   </g>
   <g id="patch_19">
    <path d="M 329.135777 514.830936 
L 329.135777 317.057736 
" style="fill:none;stroke:#000000;stroke-linecap:square;stroke-linejoin:miter;stroke-width:0.8;"/>
   </g>
   <g id="patch_20">
    <path d="M 92.457146 514.830936 
L 329.135777 514.830936 
" style="fill:none;stroke:#000000;stroke-linecap:square;stroke-linejoin:miter;stroke-width:0.8;"/>
   </g>
   <g id="patch_21">
    <path d="M 92.457146 317.057736 
L 329.135777 317.057736 
" style="fill:none;stroke:#000000;stroke-linecap:square;stroke-linejoin:miter;stroke-width:0.8;"/>
   </g>
  </g>
  <g id="axes_5">
   <g id="patch_22">
    <path d="M 411.889257 514.830936 
L 648.567889 514.830936 
L 648.567889 317.057736 
L 411.889257 317.057736 
z
" style="fill:#ffffff;"/>
   </g>
   <g id="matplotlib.axis_9">
    <g id="xtick_17">
     <g id="line2d_37">
      <g>
       <use style="stroke:#000000;stroke-width:0.8;" x="422.647376" xlink:href="#m7d77cea229" y="514.830936"/>
      </g>
     </g>
     <g id="text_39">
      <!-- $\mathdefault{0}$ -->
      <g transform="translate(418.745383 532.900524)scale(0.16 -0.16)">
       <use transform="scale(0.996264)" xlink:href="#CMR17-48"/>
      </g>
     </g>
    </g>
    <g id="xtick_18">
     <g id="line2d_38">
      <g>
       <use style="stroke:#000000;stroke-width:0.8;" x="489.885624" xlink:href="#m7d77cea229" y="514.830936"/>
      </g>
     </g>
     <g id="text_40">
      <!-- $\mathdefault{5}$ -->
      <g transform="translate(485.983631 532.900524)scale(0.16 -0.16)">
       <use transform="scale(0.996264)" xlink:href="#CMR17-53"/>
      </g>
     </g>
    </g>
    <g id="xtick_19">
     <g id="line2d_39">
      <g>
       <use style="stroke:#000000;stroke-width:0.8;" x="557.123872" xlink:href="#m7d77cea229" y="514.830936"/>
      </g>
     </g>
     <g id="text_41">
      <!-- $\mathdefault{10}$ -->
      <g transform="translate(549.319885 532.900524)scale(0.16 -0.16)">
       <use transform="scale(0.996264)" xlink:href="#CMR17-49"/>
       <use transform="translate(45.690477 0)scale(0.996264)" xlink:href="#CMR17-48"/>
      </g>
     </g>
    </g>
    <g id="xtick_20">
     <g id="line2d_40">
      <g>
       <use style="stroke:#000000;stroke-width:0.8;" x="624.36212" xlink:href="#m7d77cea229" y="514.830936"/>
      </g>
     </g>
     <g id="text_42">
      <!-- $\mathdefault{15}$ -->
      <g transform="translate(616.558133 532.900524)scale(0.16 -0.16)">
       <use transform="scale(0.996264)" xlink:href="#CMR17-49"/>
       <use transform="translate(45.690477 0)scale(0.996264)" xlink:href="#CMR17-53"/>
      </g>
     </g>
    </g>
   </g>
   <g id="matplotlib.axis_10">
    <g id="ytick_17">
     <g id="line2d_41">
      <g>
       <use style="stroke:#000000;stroke-width:0.8;" x="411.889257" xlink:href="#mf2b60afa70" y="492.834108"/>
      </g>
     </g>
     <g id="text_43">
      <!-- $\mathdefault{−6}$ -->
      <g transform="translate(384.687274 498.368902)scale(0.16 -0.16)">
       <use transform="scale(0.996264)" xlink:href="#CMSY10-0"/>
       <use transform="translate(77.487468 0)scale(0.996264)" xlink:href="#CMR17-54"/>
      </g>
     </g>
    </g>
    <g id="ytick_18">
     <g id="line2d_42">
      <g>
       <use style="stroke:#000000;stroke-width:0.8;" x="411.889257" xlink:href="#mf2b60afa70" y="443.047606"/>
      </g>
     </g>
     <g id="text_44">
      <!-- $\mathdefault{−4}$ -->
      <g transform="translate(384.687274 448.5824)scale(0.16 -0.16)">
       <use transform="scale(0.996264)" xlink:href="#CMSY10-0"/>
       <use transform="translate(77.487468 0)scale(0.996264)" xlink:href="#CMR17-52"/>
      </g>
     </g>
    </g>
    <g id="ytick_19">
     <g id="line2d_43">
      <g>
       <use style="stroke:#000000;stroke-width:0.8;" x="411.889257" xlink:href="#mf2b60afa70" y="393.261104"/>
      </g>
     </g>
     <g id="text_45">
      <!-- $\mathdefault{−2}$ -->
      <g transform="translate(384.687274 398.795898)scale(0.16 -0.16)">
       <use transform="scale(0.996264)" xlink:href="#CMSY10-0"/>
       <use transform="translate(77.487468 0)scale(0.996264)" xlink:href="#CMR17-50"/>
      </g>
     </g>
    </g>
    <g id="ytick_20">
     <g id="line2d_44">
      <g>
       <use style="stroke:#000000;stroke-width:0.8;" x="411.889257" xlink:href="#mf2b60afa70" y="343.474602"/>
      </g>
     </g>
     <g id="text_46">
      <!-- $\mathdefault{0}$ -->
      <g transform="translate(397.08527 349.009397)scale(0.16 -0.16)">
       <use transform="scale(0.996264)" xlink:href="#CMR17-48"/>
      </g>
     </g>
    </g>
    <g id="text_47">
     <!-- $\times\mathdefault{10^{−20}}\mathdefault{}$ -->
     <g transform="translate(411.889257 314.057736)scale(0.16 -0.16)">
      <use transform="scale(0.996264)" xlink:href="#CMSY10-2"/>
      <use transform="translate(77.487468 0)scale(0.996264)" xlink:href="#CMR17-49"/>
      <use transform="translate(123.177945 0)scale(0.996264)" xlink:href="#CMR17-48"/>
      <use transform="translate(168.868422 36.153639)scale(0.697382)" xlink:href="#CMSY10-0"/>
      <use transform="translate(223.109415 36.153639)scale(0.697382)" xlink:href="#CMR17-50"/>
      <use transform="translate(255.092597 36.153639)scale(0.697382)" xlink:href="#CMR17-48"/>
     </g>
    </g>
   </g>
   <g id="LineCollection_5">
    <path clip-path="url(#p54e588a870)" d="M 422.647376 505.841245 
L 422.647376 326.047427 
" style="fill:none;stroke:#ff0000;stroke-width:2;"/>
    <path clip-path="url(#p54e588a870)" d="M 436.095026 369.726882 
L 436.095026 346.592426 
" style="fill:none;stroke:#ff0000;stroke-width:2;"/>
    <path clip-path="url(#p54e588a870)" d="M 449.542676 346.864077 
L 449.542676 342.058332 
" style="fill:none;stroke:#ff0000;stroke-width:2;"/>
    <path clip-path="url(#p54e588a870)" d="M 462.990325 343.55652 
L 462.990325 342.268582 
" style="fill:none;stroke:#ff0000;stroke-width:2;"/>
    <path clip-path="url(#p54e588a870)" d="M 476.437975 343.648844 
L 476.437975 343.327593 
" style="fill:none;stroke:#ff0000;stroke-width:2;"/>
    <path clip-path="url(#p54e588a870)" d="M 489.885624 343.677991 
L 489.885624 343.535733 
" style="fill:none;stroke:#ff0000;stroke-width:2;"/>
    <path clip-path="url(#p54e588a870)" d="M 503.333274 343.485922 
L 503.333274 343.423917 
" style="fill:none;stroke:#ff0000;stroke-width:2;"/>
    <path clip-path="url(#p54e588a870)" d="M 516.780923 343.49708 
L 516.780923 343.453374 
" style="fill:none;stroke:#ff0000;stroke-width:2;"/>
    <path clip-path="url(#p54e588a870)" d="M 530.228573 343.491679 
L 530.228573 343.463862 
" style="fill:none;stroke:#ff0000;stroke-width:2;"/>
    <path clip-path="url(#p54e588a870)" d="M 543.676222 343.48301 
L 543.676222 343.460053 
" style="fill:none;stroke:#ff0000;stroke-width:2;"/>
    <path clip-path="url(#p54e588a870)" d="M 557.123872 343.493591 
L 557.123872 343.479689 
" style="fill:none;stroke:#ff0000;stroke-width:2;"/>
    <path clip-path="url(#p54e588a870)" d="M 570.571521 343.472962 
L 570.571521 343.461693 
" style="fill:none;stroke:#ff0000;stroke-width:2;"/>
    <path clip-path="url(#p54e588a870)" d="M 584.019171 343.481034 
L 584.019171 343.472945 
" style="fill:none;stroke:#ff0000;stroke-width:2;"/>
    <path clip-path="url(#p54e588a870)" d="M 597.46682 343.478302 
L 597.46682 343.473022 
" style="fill:none;stroke:#ff0000;stroke-width:2;"/>
    <path clip-path="url(#p54e588a870)" d="M 610.91447 343.479618 
L 610.91447 343.474833 
" style="fill:none;stroke:#ff0000;stroke-width:2;"/>
    <path clip-path="url(#p54e588a870)" d="M 624.36212 343.47212 
L 624.36212 343.467895 
" style="fill:none;stroke:#ff0000;stroke-width:2;"/>
    <path clip-path="url(#p54e588a870)" d="M 637.809769 343.470318 
L 637.809769 343.463684 
" style="fill:none;stroke:#ff0000;stroke-width:2;"/>
   </g>
   <g id="line2d_45">
    <path clip-path="url(#p54e588a870)" d="M 422.647376 415.944336 
L 436.095026 358.159654 
L 449.542676 344.461204 
L 462.990325 342.912551 
L 476.437975 343.488219 
L 489.885624 343.606862 
L 503.333274 343.454919 
L 516.780923 343.475227 
L 530.228573 343.47777 
L 543.676222 343.471531 
L 557.123872 343.48664 
L 570.571521 343.467328 
L 584.019171 343.47699 
L 597.46682 343.475662 
L 610.91447 343.477226 
L 624.36212 343.470008 
L 637.809769 343.467001 
" style="fill:none;stroke:#000000;stroke-linecap:square;stroke-width:2;"/>
   </g>
   <g id="patch_23">
    <path d="M 411.889257 514.830936 
L 411.889257 317.057736 
" style="fill:none;stroke:#000000;stroke-linecap:square;stroke-linejoin:miter;stroke-width:0.8;"/>
   </g>
   <g id="patch_24">
    <path d="M 648.567889 514.830936 
L 648.567889 317.057736 
" style="fill:none;stroke:#000000;stroke-linecap:square;stroke-linejoin:miter;stroke-width:0.8;"/>
   </g>
   <g id="patch_25">
    <path d="M 411.889257 514.830936 
L 648.567889 514.830936 
" style="fill:none;stroke:#000000;stroke-linecap:square;stroke-linejoin:miter;stroke-width:0.8;"/>
   </g>
   <g id="patch_26">
    <path d="M 411.889257 317.057736 
L 648.567889 317.057736 
" style="fill:none;stroke:#000000;stroke-linecap:square;stroke-linejoin:miter;stroke-width:0.8;"/>
   </g>
  </g>
  <g id="axes_6">
   <g id="patch_27">
    <path d="M 731.321368 514.830936 
L 968 514.830936 
L 968 317.057736 
L 731.321368 317.057736 
z
" style="fill:#ffffff;"/>
   </g>
   <g id="matplotlib.axis_11">
    <g id="xtick_21">
     <g id="line2d_46">
      <g>
       <use style="stroke:#000000;stroke-width:0.8;" x="742.079488" xlink:href="#m7d77cea229" y="514.830936"/>
      </g>
     </g>
     <g id="text_48">
      <!-- $\mathdefault{0}$ -->
      <g transform="translate(738.177494 532.900524)scale(0.16 -0.16)">
       <use transform="scale(0.996264)" xlink:href="#CMR17-48"/>
      </g>
     </g>
    </g>
    <g id="xtick_22">
     <g id="line2d_47">
      <g>
       <use style="stroke:#000000;stroke-width:0.8;" x="809.317735" xlink:href="#m7d77cea229" y="514.830936"/>
      </g>
     </g>
     <g id="text_49">
      <!-- $\mathdefault{5}$ -->
      <g transform="translate(805.415742 532.900524)scale(0.16 -0.16)">
       <use transform="scale(0.996264)" xlink:href="#CMR17-53"/>
      </g>
     </g>
    </g>
    <g id="xtick_23">
     <g id="line2d_48">
      <g>
       <use style="stroke:#000000;stroke-width:0.8;" x="876.555983" xlink:href="#m7d77cea229" y="514.830936"/>
      </g>
     </g>
     <g id="text_50">
      <!-- $\mathdefault{10}$ -->
      <g transform="translate(868.751996 532.900524)scale(0.16 -0.16)">
       <use transform="scale(0.996264)" xlink:href="#CMR17-49"/>
       <use transform="translate(45.690477 0)scale(0.996264)" xlink:href="#CMR17-48"/>
      </g>
     </g>
    </g>
    <g id="xtick_24">
     <g id="line2d_49">
      <g>
       <use style="stroke:#000000;stroke-width:0.8;" x="943.794231" xlink:href="#m7d77cea229" y="514.830936"/>
      </g>
     </g>
     <g id="text_51">
      <!-- $\mathdefault{15}$ -->
      <g transform="translate(935.990244 532.900524)scale(0.16 -0.16)">
       <use transform="scale(0.996264)" xlink:href="#CMR17-49"/>
       <use transform="translate(45.690477 0)scale(0.996264)" xlink:href="#CMR17-53"/>
      </g>
     </g>
    </g>
   </g>
   <g id="matplotlib.axis_12">
    <g id="ytick_21">
     <g id="line2d_50">
      <g>
       <use style="stroke:#000000;stroke-width:0.8;" x="731.321368" xlink:href="#mf2b60afa70" y="478.318024"/>
      </g>
     </g>
     <g id="text_52">
      <!-- $\mathdefault{−1.0}$ -->
      <g transform="translate(691.97985 483.852818)scale(0.16 -0.16)">
       <use transform="scale(0.996264)" xlink:href="#CMSY10-0"/>
       <use transform="translate(77.487468 0)scale(0.996264)" xlink:href="#CMR17-49"/>
       <use transform="translate(123.177945 0)scale(0.996264)" xlink:href="#CMMI12-58"/>
       <use transform="translate(150.275122 0)scale(0.996264)" xlink:href="#CMR17-48"/>
      </g>
     </g>
    </g>
    <g id="ytick_22">
     <g id="line2d_51">
      <g>
       <use style="stroke:#000000;stroke-width:0.8;" x="731.321368" xlink:href="#mf2b60afa70" y="416.878255"/>
      </g>
     </g>
     <g id="text_53">
      <!-- $\mathdefault{−0.5}$ -->
      <g transform="translate(691.97985 422.413049)scale(0.16 -0.16)">
       <use transform="scale(0.996264)" xlink:href="#CMSY10-0"/>
       <use transform="translate(77.487468 0)scale(0.996264)" xlink:href="#CMR17-48"/>
       <use transform="translate(123.177945 0)scale(0.996264)" xlink:href="#CMMI12-58"/>
       <use transform="translate(150.275122 0)scale(0.996264)" xlink:href="#CMR17-53"/>
      </g>
     </g>
    </g>
    <g id="ytick_23">
     <g id="line2d_52">
      <g>
       <use style="stroke:#000000;stroke-width:0.8;" x="731.321368" xlink:href="#mf2b60afa70" y="355.438485"/>
      </g>
     </g>
     <g id="text_54">
      <!-- $\mathdefault{0.0}$ -->
      <g transform="translate(704.377846 360.97328)scale(0.16 -0.16)">
       <use transform="scale(0.996264)" xlink:href="#CMR17-48"/>
       <use transform="translate(45.690477 0)scale(0.996264)" xlink:href="#CMMI12-58"/>
       <use transform="translate(72.787654 0)scale(0.996264)" xlink:href="#CMR17-48"/>
      </g>
     </g>
    </g>
    <g id="text_55">
     <!-- $\times\mathdefault{10^{−20}}\mathdefault{}$ -->
     <g transform="translate(731.321368 314.057736)scale(0.16 -0.16)">
      <use transform="scale(0.996264)" xlink:href="#CMSY10-2"/>
      <use transform="translate(77.487468 0)scale(0.996264)" xlink:href="#CMR17-49"/>
      <use transform="translate(123.177945 0)scale(0.996264)" xlink:href="#CMR17-48"/>
      <use transform="translate(168.868422 36.153639)scale(0.697382)" xlink:href="#CMSY10-0"/>
      <use transform="translate(223.109415 36.153639)scale(0.697382)" xlink:href="#CMR17-50"/>
      <use transform="translate(255.092597 36.153639)scale(0.697382)" xlink:href="#CMR17-48"/>
     </g>
    </g>
   </g>
   <g id="LineCollection_6">
    <path clip-path="url(#p870bf5822c)" d="M 742.079488 355.438485 
L 742.079488 355.438485 
" style="fill:none;stroke:#ff0000;stroke-width:2;"/>
    <path clip-path="url(#p870bf5822c)" d="M 755.527137 505.841245 
L 755.527137 390.35154 
" style="fill:none;stroke:#ff0000;stroke-width:2;"/>
    <path clip-path="url(#p870bf5822c)" d="M 768.974787 347.222709 
L 768.974787 326.047427 
" style="fill:none;stroke:#ff0000;stroke-width:2;"/>
    <path clip-path="url(#p870bf5822c)" d="M 782.422436 356.203644 
L 782.422436 350.658321 
" style="fill:none;stroke:#ff0000;stroke-width:2;"/>
    <path clip-path="url(#p870bf5822c)" d="M 795.870086 357.038024 
L 795.870086 355.318288 
" style="fill:none;stroke:#ff0000;stroke-width:2;"/>
    <path clip-path="url(#p870bf5822c)" d="M 809.317735 355.695304 
L 809.317735 355.06795 
" style="fill:none;stroke:#ff0000;stroke-width:2;"/>
    <path clip-path="url(#p870bf5822c)" d="M 822.765385 355.880993 
L 822.765385 355.561551 
" style="fill:none;stroke:#ff0000;stroke-width:2;"/>
    <path clip-path="url(#p870bf5822c)" d="M 836.213035 355.819054 
L 836.213035 355.599604 
" style="fill:none;stroke:#ff0000;stroke-width:2;"/>
    <path clip-path="url(#p870bf5822c)" d="M 849.660684 355.500208 
L 849.660684 355.35441 
" style="fill:none;stroke:#ff0000;stroke-width:2;"/>
    <path clip-path="url(#p870bf5822c)" d="M 863.108334 355.442628 
L 863.108334 355.333538 
" style="fill:none;stroke:#ff0000;stroke-width:2;"/>
    <path clip-path="url(#p870bf5822c)" d="M 876.555983 355.495241 
L 876.555983 355.428815 
" style="fill:none;stroke:#ff0000;stroke-width:2;"/>
    <path clip-path="url(#p870bf5822c)" d="M 890.003633 355.421698 
L 890.003633 355.372915 
" style="fill:none;stroke:#ff0000;stroke-width:2;"/>
    <path clip-path="url(#p870bf5822c)" d="M 903.451282 355.43474 
L 903.451282 355.395507 
" style="fill:none;stroke:#ff0000;stroke-width:2;"/>
    <path clip-path="url(#p870bf5822c)" d="M 916.898932 355.437281 
L 916.898932 355.411583 
" style="fill:none;stroke:#ff0000;stroke-width:2;"/>
    <path clip-path="url(#p870bf5822c)" d="M 930.346581 355.445412 
L 930.346581 355.421422 
" style="fill:none;stroke:#ff0000;stroke-width:2;"/>
    <path clip-path="url(#p870bf5822c)" d="M 943.794231 355.441214 
L 943.794231 355.421865 
" style="fill:none;stroke:#ff0000;stroke-width:2;"/>
    <path clip-path="url(#p870bf5822c)" d="M 957.24188 355.438485 
L 957.24188 355.438485 
" style="fill:none;stroke:#ff0000;stroke-width:2;"/>
   </g>
   <g id="line2d_53">
    <path clip-path="url(#p870bf5822c)" d="M 742.079488 355.438485 
L 755.527137 448.096393 
L 768.974787 336.635068 
L 782.422436 353.430983 
L 795.870086 356.178156 
L 809.317735 355.381627 
L 822.765385 355.721272 
L 836.213035 355.709329 
L 849.660684 355.427309 
L 863.108334 355.388083 
L 876.555983 355.462028 
L 890.003633 355.397306 
L 903.451282 355.415123 
L 916.898932 355.424432 
L 930.346581 355.433417 
L 943.794231 355.43154 
L 957.24188 355.438485 
" style="fill:none;stroke:#000000;stroke-linecap:square;stroke-width:2;"/>
   </g>
   <g id="patch_28">
    <path d="M 731.321368 514.830936 
L 731.321368 317.057736 
" style="fill:none;stroke:#000000;stroke-linecap:square;stroke-linejoin:miter;stroke-width:0.8;"/>
   </g>
   <g id="patch_29">
    <path d="M 968 514.830936 
L 968 317.057736 
" style="fill:none;stroke:#000000;stroke-linecap:square;stroke-linejoin:miter;stroke-width:0.8;"/>
   </g>
   <g id="patch_30">
    <path d="M 731.321368 514.830936 
L 968 514.830936 
" style="fill:none;stroke:#000000;stroke-linecap:square;stroke-linejoin:miter;stroke-width:0.8;"/>
   </g>
   <g id="patch_31">
    <path d="M 731.321368 317.057736 
L 968 317.057736 
" style="fill:none;stroke:#000000;stroke-linecap:square;stroke-linejoin:miter;stroke-width:0.8;"/>
   </g>
  </g>
 </g>
 <defs>
  <clipPath id="p96cf0615dc">
   <rect height="197.773199" width="236.678632" x="92.457146" y="63.911226"/>
  </clipPath>
  <clipPath id="p920901cf63">
   <rect height="197.773199" width="236.678632" x="411.889257" y="63.911226"/>
  </clipPath>
  <clipPath id="p9c9e7ec04b">
   <rect height="197.773199" width="236.678632" x="731.321368" y="63.911226"/>
  </clipPath>
  <clipPath id="p15b810f027">
   <rect height="197.773199" width="236.678632" x="92.457146" y="317.057736"/>
  </clipPath>
  <clipPath id="p54e588a870">
   <rect height="197.773199" width="236.678632" x="411.889257" y="317.057736"/>
  </clipPath>
  <clipPath id="p870bf5822c">
   <rect height="197.773199" width="236.678632" x="731.321368" y="317.057736"/>
  </clipPath>
 </defs>
</svg>
