<?xml version="1.0" encoding="utf-8" standalone="no"?>
<!DOCTYPE svg PUBLIC "-//W3C//DTD SVG 1.1//EN"
  "http://www.w3.org/Graphics/SVG/1.1/DTD/svg11.dtd">
<!-- Created with matplotlib (https://matplotlib.org/) -->
<svg height="576pt" version="1.1" viewBox="0 0 1008 576" width="1008pt" xmlns="http://www.w3.org/2000/svg" xmlns:xlink="http://www.w3.org/1999/xlink">
 <metadata>
  <rdf:RDF xmlns:cc="http://creativecommons.org/ns#" xmlns:dc="http://purl.org/dc/elements/1.1/" xmlns:rdf="http://www.w3.org/1999/02/22-rdf-syntax-ns#">
   <cc:Work>
    <dc:type rdf:resource="http://purl.org/dc/dcmitype/StillImage"/>
    <dc:date>2022-10-25T15:48:01.283704</dc:date>
    <dc:format>image/svg+xml</dc:format>
    <dc:creator>
     <cc:Agent>
      <dc:title>Matplotlib v3.3.4, https://matplotlib.org/</dc:title>
     </cc:Agent>
    </dc:creator>
   </cc:Work>
  </rdf:RDF>
 </metadata>
 <defs>
  <style type="text/css">*{stroke-linecap:butt;stroke-linejoin:round;}</style>
 </defs>
 <g id="figure_1">
  <g id="patch_1">
   <path d="M 0 576 
L 1008 576 
L 1008 0 
L 0 0 
z
" style="fill:#ffffff;"/>
  </g>
  <g id="axes_1">
   <g id="patch_2">
    <path d="M 95.667124 261.684426 
L 341.681079 261.684426 
L 341.681079 63.911226 
L 95.667124 63.911226 
z
" style="fill:#ffffff;"/>
   </g>
   <g id="matplotlib.axis_1">
    <g id="xtick_1">
     <g id="line2d_1">
      <defs>
       <path d="M 0 0 
L 0 3.5 
" id="m62efb5e4f9" style="stroke:#000000;stroke-width:0.8;"/>
      </defs>
      <g>
       <use style="stroke:#000000;stroke-width:0.8;" x="106.849576" xlink:href="#m62efb5e4f9" y="261.684426"/>
      </g>
     </g>
     <g id="text_1">
      <!-- $\mathdefault{0}$ -->
      <g transform="translate(102.947583 279.754014)scale(0.16 -0.16)">
       <defs>
        <path d="M 42 31.640625 
C 42 37.75 41.90625 48.125 37.703125 56.109375 
C 34 63.109375 28.09375 65.59375 22.90625 65.59375 
C 18.09375 65.59375 12 63.40625 8.203125 56.203125 
C 4.203125 48.71875 3.796875 39.4375 3.796875 31.640625 
C 3.796875 25.953125 3.90625 17.28125 7 9.671875 
C 11.296875 -0.609375 19 -2 22.90625 -2 
C 27.5 -2 34.5 -0.109375 38.59375 9.375 
C 41.59375 16.28125 42 24.359375 42 31.640625 
z
M 22.90625 -0.40625 
C 16.5 -0.40625 12.703125 5.078125 11.296875 12.6875 
C 10.203125 18.5625 10.203125 27.15625 10.203125 32.75 
C 10.203125 40.4375 10.203125 46.828125 11.5 52.921875 
C 13.40625 61.390625 19 64 22.90625 64 
C 27 64 32.296875 61.296875 34.203125 53.125 
C 35.5 47.4375 35.59375 40.734375 35.59375 32.75 
C 35.59375 26.25 35.59375 18.265625 34.40625 12.375 
C 32.296875 1.484375 26.40625 -0.40625 22.90625 -0.40625 
z
" id="CMR17-48"/>
       </defs>
       <use transform="scale(0.996264)" xlink:href="#CMR17-48"/>
      </g>
     </g>
    </g>
    <g id="xtick_2">
     <g id="line2d_2">
      <g>
       <use style="stroke:#000000;stroke-width:0.8;" x="178.994431" xlink:href="#m62efb5e4f9" y="261.684426"/>
      </g>
     </g>
     <g id="text_2">
      <!-- $\mathdefault{10}$ -->
      <g transform="translate(171.190444 279.754014)scale(0.16 -0.16)">
       <defs>
        <path d="M 26.59375 63.40625 
C 26.59375 65.5 26.5 65.5 25.09375 65.5 
C 21.203125 61.1875 15.296875 59.796875 9.703125 59.796875 
C 9.40625 59.796875 8.90625 59.796875 8.796875 59.5 
C 8.703125 59.296875 8.703125 59.09375 8.703125 57 
C 11.796875 57 17 57.59375 21 59.984375 
L 21 7.203125 
C 21 3.6875 20.796875 2.5 12.203125 2.5 
L 9.203125 2.5 
L 9.203125 0 
C 14 0 19 0 23.796875 0 
C 28.59375 0 33.59375 0 38.40625 0 
L 38.40625 2.5 
L 35.40625 2.5 
C 26.796875 2.5 26.59375 3.59375 26.59375 7.15625 
z
" id="CMR17-49"/>
       </defs>
       <use transform="scale(0.996264)" xlink:href="#CMR17-49"/>
       <use transform="translate(45.690477 0)scale(0.996264)" xlink:href="#CMR17-48"/>
      </g>
     </g>
    </g>
    <g id="xtick_3">
     <g id="line2d_3">
      <g>
       <use style="stroke:#000000;stroke-width:0.8;" x="251.139286" xlink:href="#m62efb5e4f9" y="261.684426"/>
      </g>
     </g>
     <g id="text_3">
      <!-- $\mathdefault{20}$ -->
      <g transform="translate(243.335299 279.754014)scale(0.16 -0.16)">
       <defs>
        <path d="M 41.703125 15.453125 
L 39.90625 15.453125 
C 38.90625 8.375 38.09375 7.171875 37.703125 6.5625 
C 37.203125 5.765625 30 5.765625 28.59375 5.765625 
L 9.40625 5.765625 
C 13 9.671875 20 16.75 28.5 24.953125 
C 34.59375 30.734375 41.703125 37.53125 41.703125 47.421875 
C 41.703125 59.21875 32.296875 66 21.796875 66 
C 10.796875 66 4.09375 56.3125 4.09375 47.34375 
C 4.09375 43.4375 7 42.9375 8.203125 42.9375 
C 9.203125 42.9375 12.203125 43.546875 12.203125 47.03125 
C 12.203125 50.109375 9.59375 51 8.203125 51 
C 7.59375 51 7 50.90625 6.59375 50.703125 
C 8.5 59.21875 14.296875 63.40625 20.40625 63.40625 
C 29.09375 63.40625 34.796875 56.515625 34.796875 47.421875 
C 34.796875 38.734375 29.703125 31.25 24 24.75 
L 4.09375 2.28125 
L 4.09375 0 
L 39.296875 0 
z
" id="CMR17-50"/>
       </defs>
       <use transform="scale(0.996264)" xlink:href="#CMR17-50"/>
       <use transform="translate(45.690477 0)scale(0.996264)" xlink:href="#CMR17-48"/>
      </g>
     </g>
    </g>
    <g id="xtick_4">
     <g id="line2d_4">
      <g>
       <use style="stroke:#000000;stroke-width:0.8;" x="323.284141" xlink:href="#m62efb5e4f9" y="261.684426"/>
      </g>
     </g>
     <g id="text_4">
      <!-- $\mathdefault{30}$ -->
      <g transform="translate(315.480154 279.754014)scale(0.16 -0.16)">
       <defs>
        <path d="M 22.09375 33.703125 
C 31 33.703125 34.90625 25.96875 34.90625 17.03125 
C 34.90625 5 28.5 0.390625 22.703125 0.390625 
C 17.40625 0.390625 8.796875 3.03125 6.09375 10.828125 
C 6.59375 10.625 7.09375 10.625 7.59375 10.625 
C 10 10.625 11.796875 12.21875 11.796875 14.8125 
C 11.796875 17.703125 9.59375 19 7.59375 19 
C 5.90625 19 3.296875 18.203125 3.296875 14.46875 
C 3.296875 5.234375 12.296875 -2 22.90625 -2 
C 34 -2 42.5 6.71875 42.5 16.953125 
C 42.5 26.671875 34.5 33.703125 25 34.796875 
C 32.59375 36.375 39.90625 43.0625 39.90625 52.015625 
C 39.90625 59.6875 32 65.296875 23 65.296875 
C 13.90625 65.296875 5.90625 59.828125 5.90625 52.015625 
C 5.90625 48.59375 8.5 48 9.796875 48 
C 11.90625 48 13.703125 49.296875 13.703125 51.890625 
C 13.703125 54.46875 11.90625 55.765625 9.796875 55.765625 
C 9.40625 55.765625 8.90625 55.765625 8.5 55.578125 
C 11.40625 61.859375 19.296875 63 22.796875 63 
C 26.296875 63 32.90625 61.328125 32.90625 51.875 
C 32.90625 49.109375 32.5 44.1875 29.09375 39.84375 
C 26.09375 36 22.703125 36 19.40625 35.6875 
C 18.90625 35.6875 16.59375 35.453125 16.203125 35.453125 
C 15.5 35.359375 15.09375 35.265625 15.09375 34.5 
C 15.09375 33.796875 15.203125 33.703125 17.203125 33.703125 
z
" id="CMR17-51"/>
       </defs>
       <use transform="scale(0.996264)" xlink:href="#CMR17-51"/>
       <use transform="translate(45.690477 0)scale(0.996264)" xlink:href="#CMR17-48"/>
      </g>
     </g>
    </g>
   </g>
   <g id="matplotlib.axis_2">
    <g id="ytick_1">
     <g id="line2d_5">
      <defs>
       <path d="M 0 0 
L -3.5 0 
" id="m45d7274aad" style="stroke:#000000;stroke-width:0.8;"/>
      </defs>
      <g>
       <use style="stroke:#000000;stroke-width:0.8;" x="95.667124" xlink:href="#m45d7274aad" y="253.220762"/>
      </g>
     </g>
     <g id="text_5">
      <!-- $\mathdefault{0}$ -->
      <g transform="translate(80.863137 258.755556)scale(0.16 -0.16)">
       <use transform="scale(0.996264)" xlink:href="#CMR17-48"/>
      </g>
     </g>
    </g>
    <g id="ytick_2">
     <g id="line2d_6">
      <g>
       <use style="stroke:#000000;stroke-width:0.8;" x="95.667124" xlink:href="#m45d7274aad" y="219.165144"/>
      </g>
     </g>
     <g id="text_6">
      <!-- $\mathdefault{25}$ -->
      <g transform="translate(73.05915 224.699938)scale(0.16 -0.16)">
       <defs>
        <path d="M 11.40625 57.6875 
C 12.40625 57.28125 16.5 56 20.703125 56 
C 30 56 35.09375 61.109375 38 64.0625 
C 38 64.953125 38 65.5 37.40625 65.5 
C 37.296875 65.5 37.09375 65.5 36.296875 65.046875 
C 32.796875 63.40625 28.703125 62.078125 23.703125 62.078125 
C 20.703125 62.078125 16.203125 62.484375 11.296875 64.671875 
C 10.203125 65.171875 10 65.171875 9.90625 65.171875 
C 9.40625 65.171875 9.296875 65.0625 9.296875 63.078125 
L 9.296875 34.421875 
C 9.296875 32.640625 9.296875 32.140625 10.296875 32.140625 
C 10.796875 32.140625 11 32.34375 11.5 33.03125 
C 14.703125 37.515625 19.09375 39.40625 24.09375 39.40625 
C 27.59375 39.40625 35.09375 37.21875 35.09375 20.140625 
C 35.09375 16.953125 35.09375 11.171875 32.09375 6.578125 
C 29.59375 2.484375 25.703125 0.390625 21.40625 0.390625 
C 14.796875 0.390625 8.09375 5 6.296875 12.71875 
C 6.703125 12.609375 7.5 12.421875 7.90625 12.421875 
C 9.203125 12.421875 11.703125 13.125 11.703125 16.21875 
C 11.703125 18.90625 9.796875 20 7.90625 20 
C 5.59375 20 4.09375 18.59375 4.09375 15.796875 
C 4.09375 7.09375 11 -2 21.59375 -2 
C 31.90625 -2 41.703125 6.875 41.703125 19.75 
C 41.703125 31.71875 33.90625 41 24.203125 41 
C 19.09375 41 14.796875 39.109375 11.40625 35.53125 
z
" id="CMR17-53"/>
       </defs>
       <use transform="scale(0.996264)" xlink:href="#CMR17-50"/>
       <use transform="translate(45.690477 0)scale(0.996264)" xlink:href="#CMR17-53"/>
      </g>
     </g>
    </g>
    <g id="ytick_3">
     <g id="line2d_7">
      <g>
       <use style="stroke:#000000;stroke-width:0.8;" x="95.667124" xlink:href="#m45d7274aad" y="185.109525"/>
      </g>
     </g>
     <g id="text_7">
      <!-- $\mathdefault{50}$ -->
      <g transform="translate(73.05915 190.644319)scale(0.16 -0.16)">
       <use transform="scale(0.996264)" xlink:href="#CMR17-53"/>
       <use transform="translate(45.690477 0)scale(0.996264)" xlink:href="#CMR17-48"/>
      </g>
     </g>
    </g>
    <g id="ytick_4">
     <g id="line2d_8">
      <g>
       <use style="stroke:#000000;stroke-width:0.8;" x="95.667124" xlink:href="#m45d7274aad" y="151.053907"/>
      </g>
     </g>
     <g id="text_8">
      <!-- $\mathdefault{75}$ -->
      <g transform="translate(73.05915 156.588701)scale(0.16 -0.16)">
       <defs>
        <path d="M 45.09375 61.578125 
L 45.09375 63.765625 
L 21.59375 63.765625 
C 9.90625 63.765625 9.703125 65.078125 9.296875 67 
L 7.5 67 
L 4.59375 48.34375 
L 6.40625 48.34375 
C 6.703125 50.234375 7.40625 55.3125 8.59375 57.203125 
C 9.203125 58 16.59375 58 18.296875 58 
L 40.296875 58 
L 29.203125 41.578125 
C 21.796875 30.53125 16.703125 15.609375 16.703125 2.578125 
C 16.703125 1.390625 16.703125 -2 20.296875 -2 
C 23.90625 -2 23.90625 1.390625 23.90625 2.671875 
L 23.90625 7.265625 
C 23.90625 23.5625 26.703125 34.3125 31.296875 41.1875 
z
" id="CMR17-55"/>
       </defs>
       <use transform="scale(0.996264)" xlink:href="#CMR17-55"/>
       <use transform="translate(45.690477 0)scale(0.996264)" xlink:href="#CMR17-53"/>
      </g>
     </g>
    </g>
    <g id="ytick_5">
     <g id="line2d_9">
      <g>
       <use style="stroke:#000000;stroke-width:0.8;" x="95.667124" xlink:href="#m45d7274aad" y="116.998289"/>
      </g>
     </g>
     <g id="text_9">
      <!-- $\mathdefault{100}$ -->
      <g transform="translate(65.255163 122.533083)scale(0.16 -0.16)">
       <use transform="scale(0.996264)" xlink:href="#CMR17-49"/>
       <use transform="translate(45.690477 0)scale(0.996264)" xlink:href="#CMR17-48"/>
       <use transform="translate(91.380954 0)scale(0.996264)" xlink:href="#CMR17-48"/>
      </g>
     </g>
    </g>
    <g id="ytick_6">
     <g id="line2d_10">
      <g>
       <use style="stroke:#000000;stroke-width:0.8;" x="95.667124" xlink:href="#m45d7274aad" y="82.94267"/>
      </g>
     </g>
     <g id="text_10">
      <!-- $\mathdefault{125}$ -->
      <g transform="translate(65.255163 88.477464)scale(0.16 -0.16)">
       <use transform="scale(0.996264)" xlink:href="#CMR17-49"/>
       <use transform="translate(45.690477 0)scale(0.996264)" xlink:href="#CMR17-50"/>
       <use transform="translate(91.380954 0)scale(0.996264)" xlink:href="#CMR17-53"/>
      </g>
     </g>
    </g>
    <g id="text_11">
     <!-- Real -->
     <g transform="translate(56.604405 184.258418)rotate(-90)scale(0.24 -0.24)">
      <defs>
       <path d="M 39.203125 33.53125 
C 48.703125 35.4375 56.703125 41.8125 56.703125 49.78125 
C 56.703125 59.140625 46.09375 67.59375 32.09375 67.59375 
L 5.203125 67.59375 
L 5.203125 65 
C 12.09375 65 13.203125 65 13.203125 60.515625 
L 13.203125 6.484375 
C 13.203125 2 12.09375 2 5.203125 2 
L 5.203125 -0.40625 
C 8.09375 -0.40625 13.296875 -0.40625 16.40625 -0.40625 
C 19.5 -0.40625 24.703125 -0.40625 27.59375 -0.40625 
L 27.59375 2 
C 20.703125 2 19.59375 2 19.59375 6.515625 
L 19.59375 33 
L 31.296875 33 
C 37 33 40.203125 30.6875 41.59375 29.390625 
C 45.59375 25.5 45.59375 22.796875 45.59375 16 
C 45.59375 9.296875 45.59375 5.890625 48.59375 2.5 
C 52.40625 -1.59375 57.5 -2 59.703125 -2 
C 67.09375 -2 68.203125 6.1875 68.203125 7.859375 
C 68.203125 8.4375 68.203125 9.140625 67.296875 9.140625 
C 66.5 9.140625 66.40625 8.546875 66.40625 8.15625 
C 65.90625 1.75 63 -0.40625 59.90625 -0.40625 
C 54.40625 -0.40625 53.796875 5.859375 53.203125 11.9375 
C 52.90625 14.03125 52.703125 15.515625 52.5 17.703125 
C 51.90625 22.6875 51.09375 29.953125 39.203125 33.53125 
z
M 31 34.59375 
L 19.59375 34.59375 
L 19.59375 61.140625 
C 19.59375 64.515625 19.796875 65 23.796875 65 
L 31.09375 65 
C 39.40625 65 49.09375 62.140625 49.09375 49.84375 
C 49.09375 37.0625 38.5 34.59375 31 34.59375 
z
" id="CMR17-82"/>
       <path d="M 38.09375 23 
C 38.5 23.40625 38.5 23.609375 38.5 24.625 
C 38.5 34.96875 33.09375 44 21.703125 44 
C 11.09375 44 2.703125 33.890625 2.703125 21.609375 
C 2.703125 8.609375 12.203125 -1 22.796875 -1 
C 34 -1 38.40625 9.484375 38.40625 11.5625 
C 38.40625 12.25 37.796875 12.25 37.59375 12.25 
C 36.90625 12.25 36.796875 12.046875 36.40625 10.875 
C 34.203125 4.140625 28.703125 0.796875 23.5 0.796875 
C 19.203125 0.796875 14.90625 3.171875 12.203125 7.5 
C 9.09375 12.546875 9.09375 18.375 9.09375 23 
z
M 9.203125 24.5 
C 9.90625 39.140625 17.59375 42.40625 21.59375 42.40625 
C 28.40625 42.40625 33 35.890625 33.09375 24.5 
z
" id="CMR17-101"/>
       <path d="M 36 25.828125 
C 36 32.375 36 35.84375 31.796875 39.734375 
C 28.09375 43 23.796875 44 20.40625 44 
C 12.5 44 6.796875 37.609375 6.796875 30.796875 
C 6.796875 27 9.796875 27 10.40625 27 
C 11.703125 27 14 27.78125 14 30.53125 
C 14 33 12.09375 34.078125 10.40625 34.078125 
C 10 34.078125 9.5 33.96875 9.203125 33.875 
C 11.296875 40.5 16.703125 42.40625 20.203125 42.40625 
C 25.203125 42.40625 30.703125 37.953125 30.703125 29.453125 
L 30.703125 25 
C 24.796875 25 17.703125 24.203125 12.09375 21.203125 
C 5.796875 17.703125 4 12.703125 4 8.90625 
C 4 1.203125 13 -1 18.296875 -1 
C 23.796875 -1 28.90625 2.171875 31.09375 7.984375 
C 31.296875 3.640625 34.09375 -0.28125 38.5 -0.28125 
C 40.59375 -0.28125 45.90625 1.09375 45.90625 8.859375 
L 45.90625 14.375 
L 44.09375 14.375 
L 44.09375 8.78125 
C 44.09375 2.78125 41.40625 2 40.09375 2 
C 36 2 36 7.15625 36 11.53125 
z
M 30.703125 13.59375 
C 30.703125 4.953125 24.5 0.59375 19 0.59375 
C 14 0.59375 10.09375 4.296875 10.09375 8.90625 
C 10.09375 11.890625 11.40625 17.1875 17.203125 20.390625 
C 22 23.09375 27.5 23.5 30.703125 23.5 
z
" id="CMR17-97"/>
       <path d="M 15.296875 68.6875 
L 3.40625 67.59375 
L 3.40625 65 
C 9.296875 65 10.203125 64.40625 10.203125 59.640625 
L 10.203125 6.65625 
C 10.203125 2.875 9.796875 2.390625 3.40625 2.390625 
L 3.40625 -0.203125 
C 5.796875 0 10.203125 0 12.703125 0 
C 15.296875 0 19.703125 0 22.09375 -0.203125 
L 22.09375 2.390625 
C 15.703125 2.390625 15.296875 2.78125 15.296875 6.65625 
z
" id="CMR17-108"/>
      </defs>
      <use transform="scale(0.996264)" xlink:href="#CMR17-82"/>
      <use transform="translate(67.791102 0)scale(0.996264)" xlink:href="#CMR17-101"/>
      <use transform="translate(108.276762 0)scale(0.996264)" xlink:href="#CMR17-97"/>
      <use transform="translate(153.96724 0)scale(0.996264)" xlink:href="#CMR17-108"/>
     </g>
    </g>
   </g>
   <g id="LineCollection_1">
    <path clip-path="url(#p465ce3aa84)" d="M 106.849576 73.260075 
L 106.849576 72.900917 
" style="fill:none;stroke:#ff0000;stroke-width:2;"/>
    <path clip-path="url(#p465ce3aa84)" d="M 114.064062 181.544838 
L 114.064062 181.396139 
" style="fill:none;stroke:#ff0000;stroke-width:2;"/>
    <path clip-path="url(#p465ce3aa84)" d="M 121.278547 214.877727 
L 121.278547 214.731443 
" style="fill:none;stroke:#ff0000;stroke-width:2;"/>
    <path clip-path="url(#p465ce3aa84)" d="M 128.493033 230.487943 
L 128.493033 230.339471 
" style="fill:none;stroke:#ff0000;stroke-width:2;"/>
    <path clip-path="url(#p465ce3aa84)" d="M 135.707518 238.837704 
L 135.707518 238.694507 
" style="fill:none;stroke:#ff0000;stroke-width:2;"/>
    <path clip-path="url(#p465ce3aa84)" d="M 142.922003 243.687783 
L 142.922003 243.550392 
" style="fill:none;stroke:#ff0000;stroke-width:2;"/>
    <path clip-path="url(#p465ce3aa84)" d="M 150.136489 246.661632 
L 150.136489 246.542994 
" style="fill:none;stroke:#ff0000;stroke-width:2;"/>
    <path clip-path="url(#p465ce3aa84)" d="M 157.350974 248.594655 
L 157.350974 248.481253 
" style="fill:none;stroke:#ff0000;stroke-width:2;"/>
    <path clip-path="url(#p465ce3aa84)" d="M 164.56546 249.883822 
L 164.56546 249.78629 
" style="fill:none;stroke:#ff0000;stroke-width:2;"/>
    <path clip-path="url(#p465ce3aa84)" d="M 171.779945 250.785691 
L 171.779945 250.696245 
" style="fill:none;stroke:#ff0000;stroke-width:2;"/>
    <path clip-path="url(#p465ce3aa84)" d="M 178.994431 251.43407 
L 178.994431 251.360378 
" style="fill:none;stroke:#ff0000;stroke-width:2;"/>
    <path clip-path="url(#p465ce3aa84)" d="M 186.208916 251.886239 
L 186.208916 251.825817 
" style="fill:none;stroke:#ff0000;stroke-width:2;"/>
    <path clip-path="url(#p465ce3aa84)" d="M 193.423402 252.208997 
L 193.423402 252.15855 
" style="fill:none;stroke:#ff0000;stroke-width:2;"/>
    <path clip-path="url(#p465ce3aa84)" d="M 200.637887 252.433134 
L 200.637887 252.39255 
" style="fill:none;stroke:#ff0000;stroke-width:2;"/>
    <path clip-path="url(#p465ce3aa84)" d="M 207.852373 252.583247 
L 207.852373 252.544461 
" style="fill:none;stroke:#ff0000;stroke-width:2;"/>
    <path clip-path="url(#p465ce3aa84)" d="M 215.066858 252.664945 
L 215.066858 252.632974 
" style="fill:none;stroke:#ff0000;stroke-width:2;"/>
    <path clip-path="url(#p465ce3aa84)" d="M 222.281344 252.694735 
L 222.281344 252.66238 
" style="fill:none;stroke:#ff0000;stroke-width:2;"/>
    <path clip-path="url(#p465ce3aa84)" d="M 229.495829 252.66944 
L 229.495829 252.638556 
" style="fill:none;stroke:#ff0000;stroke-width:2;"/>
    <path clip-path="url(#p465ce3aa84)" d="M 236.710315 252.577035 
L 236.710315 252.545965 
" style="fill:none;stroke:#ff0000;stroke-width:2;"/>
    <path clip-path="url(#p465ce3aa84)" d="M 243.9248 252.423705 
L 243.9248 252.390963 
" style="fill:none;stroke:#ff0000;stroke-width:2;"/>
    <path clip-path="url(#p465ce3aa84)" d="M 251.139286 252.180346 
L 251.139286 252.147847 
" style="fill:none;stroke:#ff0000;stroke-width:2;"/>
    <path clip-path="url(#p465ce3aa84)" d="M 258.353771 251.833866 
L 258.353771 251.791747 
" style="fill:none;stroke:#ff0000;stroke-width:2;"/>
    <path clip-path="url(#p465ce3aa84)" d="M 265.568257 251.350239 
L 265.568257 251.29793 
" style="fill:none;stroke:#ff0000;stroke-width:2;"/>
    <path clip-path="url(#p465ce3aa84)" d="M 272.782742 250.672501 
L 272.782742 250.601383 
" style="fill:none;stroke:#ff0000;stroke-width:2;"/>
    <path clip-path="url(#p465ce3aa84)" d="M 279.997228 249.731742 
L 279.997228 249.651424 
" style="fill:none;stroke:#ff0000;stroke-width:2;"/>
    <path clip-path="url(#p465ce3aa84)" d="M 287.211713 248.427881 
L 287.211713 248.326619 
" style="fill:none;stroke:#ff0000;stroke-width:2;"/>
    <path clip-path="url(#p465ce3aa84)" d="M 294.426199 246.499931 
L 294.426199 246.374767 
" style="fill:none;stroke:#ff0000;stroke-width:2;"/>
    <path clip-path="url(#p465ce3aa84)" d="M 301.640684 243.559011 
L 301.640684 243.420698 
" style="fill:none;stroke:#ff0000;stroke-width:2;"/>
    <path clip-path="url(#p465ce3aa84)" d="M 308.85517 238.7831 
L 308.85517 238.645293 
" style="fill:none;stroke:#ff0000;stroke-width:2;"/>
    <path clip-path="url(#p465ce3aa84)" d="M 316.069655 230.530205 
L 316.069655 230.388006 
" style="fill:none;stroke:#ff0000;stroke-width:2;"/>
    <path clip-path="url(#p465ce3aa84)" d="M 323.284141 214.978015 
L 323.284141 214.819271 
" style="fill:none;stroke:#ff0000;stroke-width:2;"/>
    <path clip-path="url(#p465ce3aa84)" d="M 330.498626 181.673031 
L 330.498626 181.465431 
" style="fill:none;stroke:#ff0000;stroke-width:2;"/>
   </g>
   <g id="line2d_11">
    <path clip-path="url(#p465ce3aa84)" d="M 106.849576 73.080496 
L 114.064062 181.470488 
L 121.278547 214.804585 
L 128.493033 230.413707 
L 135.707518 238.766105 
L 142.922003 243.619087 
L 150.136489 246.602313 
L 157.350974 248.537954 
L 164.56546 249.835056 
L 171.779945 250.740968 
L 178.994431 251.397224 
L 186.208916 251.856028 
L 193.423402 252.183774 
L 200.637887 252.412842 
L 207.852373 252.563854 
L 215.066858 252.648959 
L 222.281344 252.678558 
L 229.495829 252.653998 
L 236.710315 252.5615 
L 243.9248 252.407334 
L 251.139286 252.164096 
L 258.353771 251.812807 
L 265.568257 251.324084 
L 272.782742 250.636942 
L 279.997228 249.691583 
L 287.211713 248.37725 
L 294.426199 246.437349 
L 301.640684 243.489854 
L 308.85517 238.714197 
L 316.069655 230.459106 
L 323.284141 214.898643 
L 330.498626 181.569231 
" style="fill:none;stroke:#000000;stroke-linecap:square;stroke-width:2;"/>
   </g>
   <g id="patch_3">
    <path d="M 95.667124 261.684426 
L 95.667124 63.911226 
" style="fill:none;stroke:#000000;stroke-linecap:square;stroke-linejoin:miter;stroke-width:0.8;"/>
   </g>
   <g id="patch_4">
    <path d="M 341.681079 261.684426 
L 341.681079 63.911226 
" style="fill:none;stroke:#000000;stroke-linecap:square;stroke-linejoin:miter;stroke-width:0.8;"/>
   </g>
   <g id="patch_5">
    <path d="M 95.667124 261.684426 
L 341.681079 261.684426 
" style="fill:none;stroke:#000000;stroke-linecap:square;stroke-linejoin:miter;stroke-width:0.8;"/>
   </g>
   <g id="patch_6">
    <path d="M 95.667124 63.911226 
L 341.681079 63.911226 
" style="fill:none;stroke:#000000;stroke-linecap:square;stroke-linejoin:miter;stroke-width:0.8;"/>
   </g>
   <g id="text_12">
    <!-- $C(t)$ -->
    <g transform="translate(196.745948 57.911226)scale(0.24 -0.24)">
     <defs>
      <path d="M 74.703125 69.109375 
C 74.703125 70 74 70 73.796875 70 
C 73.59375 70 73.203125 70 72.40625 69 
L 65.5 60.65625 
C 62 66.625 56.5 70 49 70 
C 27.40625 70 5 48.25 5 24.921875 
C 5 8.328125 16.703125 -2 31.296875 -2 
C 39.296875 -2 46.296875 1.375 52.09375 6.25 
C 60.796875 13.484375 63.40625 23.140625 63.40625 23.921875 
C 63.40625 24.8125 62.59375 24.8125 62.296875 24.8125 
C 61.40625 24.8125 61.296875 24.21875 61.09375 23.8125 
C 56.5 8.34375 43 0.890625 33 0.890625 
C 22.40625 0.890625 13.203125 7.640625 13.203125 21.734375 
C 13.203125 24.921875 14.203125 42.1875 25.5 55.1875 
C 31 61.546875 40.40625 67.109375 49.90625 67.109375 
C 60.90625 67.109375 65.796875 58.078125 65.796875 47.9375 
C 65.796875 45.359375 65.5 43.1875 65.5 42.78125 
C 65.5 41.890625 66.5 41.890625 66.796875 41.890625 
C 67.90625 41.890625 68 41.984375 68.40625 43.765625 
z
" id="CMMI12-67"/>
      <path d="M 30.59375 -24.390625 
C 30.59375 -24.296875 30.59375 -24.09375 30.296875 -23.796875 
C 25.703125 -19.125 13.40625 -6.359375 13.40625 24.703125 
C 13.40625 55.765625 25.5 68.421875 30.40625 73.390625 
C 30.40625 73.5 30.59375 73.703125 30.59375 74 
C 30.59375 74.296875 30.296875 74.5 29.90625 74.5 
C 28.796875 74.5 20.296875 67.125 15.40625 56.15625 
C 10.40625 45.109375 9 34.359375 9 24.8125 
C 9 17.625 9.703125 5.484375 15.703125 -7.359375 
C 20.5 -17.734375 28.703125 -25 29.90625 -25 
C 30.40625 -25 30.59375 -24.796875 30.59375 -24.390625 
z
" id="CMR17-40"/>
      <path d="M 20.09375 40.09375 
L 29.296875 40.09375 
C 31.203125 40.09375 32.203125 40.09375 32.203125 41.890625 
C 32.203125 43 31.59375 43 29.59375 43 
L 20.796875 43 
L 24.5 57.6875 
C 24.90625 59.078125 24.90625 59.28125 24.90625 60 
C 24.90625 61.609375 23.59375 62.5 22.296875 62.5 
C 21.5 62.5 19.203125 62.203125 18.40625 58.984375 
L 14.5 43 
L 5.09375 43 
C 3.09375 43 2.203125 43 2.203125 41.09375 
C 2.203125 40.09375 2.90625 40.09375 4.796875 40.09375 
L 13.703125 40.09375 
L 7.09375 13.765625 
C 6.296875 10.28125 6 9.28125 6 7.984375 
C 6 3.296875 9.296875 -1 14.90625 -1 
C 25 -1 30.40625 13.5625 30.40625 14.25 
C 30.40625 14.859375 30 15.15625 29.40625 15.15625 
C 29.203125 15.15625 28.796875 15.15625 28.59375 14.75 
C 28.5 14.65625 28.40625 14.546875 27.703125 12.953125 
C 25.59375 7.984375 21 1 15.203125 1 
C 12.203125 1 12 3.5 12 5.6875 
C 12 5.78125 12 7.6875 12.296875 8.875 
z
" id="CMMI12-116"/>
      <path d="M 26.296875 24.703125 
C 26.296875 31.875 25.59375 44.015625 19.59375 56.859375 
C 14.796875 67.234375 6.59375 74.5 5.40625 74.5 
C 5.09375 74.5 4.703125 74.390625 4.703125 73.890625 
C 4.703125 73.703125 4.796875 73.59375 4.90625 73.390625 
C 9.703125 68.40625 21.90625 55.75 21.90625 24.75 
C 21.90625 -6.359375 9.796875 -19.015625 4.90625 -24.015625 
C 4.796875 -24.203125 4.703125 -24.3125 4.703125 -24.5 
C 4.703125 -25 5.09375 -25 5.40625 -25 
C 6.5 -25 15 -17.625 19.90625 -6.65625 
C 24.90625 4.390625 26.296875 15.140625 26.296875 24.703125 
z
" id="CMR17-41"/>
     </defs>
     <use transform="scale(0.996264)" xlink:href="#CMMI12-67"/>
     <use transform="translate(76.946847 0)scale(0.996264)" xlink:href="#CMR17-40"/>
     <use transform="translate(112.227614 0)scale(0.996264)" xlink:href="#CMMI12-116"/>
     <use transform="translate(147.453945 0)scale(0.996264)" xlink:href="#CMR17-41"/>
    </g>
   </g>
  </g>
  <g id="axes_2">
   <g id="patch_7">
    <path d="M 408.826584 261.684426 
L 654.840539 261.684426 
L 654.840539 63.911226 
L 408.826584 63.911226 
z
" style="fill:#ffffff;"/>
   </g>
   <g id="matplotlib.axis_3">
    <g id="xtick_5">
     <g id="line2d_12">
      <g>
       <use style="stroke:#000000;stroke-width:0.8;" x="420.009037" xlink:href="#m62efb5e4f9" y="261.684426"/>
      </g>
     </g>
     <g id="text_13">
      <!-- $\mathdefault{0}$ -->
      <g transform="translate(416.107043 279.754014)scale(0.16 -0.16)">
       <use transform="scale(0.996264)" xlink:href="#CMR17-48"/>
      </g>
     </g>
    </g>
    <g id="xtick_6">
     <g id="line2d_13">
      <g>
       <use style="stroke:#000000;stroke-width:0.8;" x="489.899365" xlink:href="#m62efb5e4f9" y="261.684426"/>
      </g>
     </g>
     <g id="text_14">
      <!-- $\mathdefault{5}$ -->
      <g transform="translate(485.997371 279.754014)scale(0.16 -0.16)">
       <use transform="scale(0.996264)" xlink:href="#CMR17-53"/>
      </g>
     </g>
    </g>
    <g id="xtick_7">
     <g id="line2d_14">
      <g>
       <use style="stroke:#000000;stroke-width:0.8;" x="559.789693" xlink:href="#m62efb5e4f9" y="261.684426"/>
      </g>
     </g>
     <g id="text_15">
      <!-- $\mathdefault{10}$ -->
      <g transform="translate(551.985706 279.754014)scale(0.16 -0.16)">
       <use transform="scale(0.996264)" xlink:href="#CMR17-49"/>
       <use transform="translate(45.690477 0)scale(0.996264)" xlink:href="#CMR17-48"/>
      </g>
     </g>
    </g>
    <g id="xtick_8">
     <g id="line2d_15">
      <g>
       <use style="stroke:#000000;stroke-width:0.8;" x="629.680021" xlink:href="#m62efb5e4f9" y="261.684426"/>
      </g>
     </g>
     <g id="text_16">
      <!-- $\mathdefault{15}$ -->
      <g transform="translate(621.876034 279.754014)scale(0.16 -0.16)">
       <use transform="scale(0.996264)" xlink:href="#CMR17-49"/>
       <use transform="translate(45.690477 0)scale(0.996264)" xlink:href="#CMR17-53"/>
      </g>
     </g>
    </g>
   </g>
   <g id="matplotlib.axis_4">
    <g id="ytick_7">
     <g id="line2d_16">
      <g>
       <use style="stroke:#000000;stroke-width:0.8;" x="408.826584" xlink:href="#m45d7274aad" y="253.220762"/>
      </g>
     </g>
     <g id="text_17">
      <!-- $\mathdefault{0}$ -->
      <g transform="translate(394.022597 258.755556)scale(0.16 -0.16)">
       <use transform="scale(0.996264)" xlink:href="#CMR17-48"/>
      </g>
     </g>
    </g>
    <g id="ytick_8">
     <g id="line2d_17">
      <g>
       <use style="stroke:#000000;stroke-width:0.8;" x="408.826584" xlink:href="#m45d7274aad" y="219.165144"/>
      </g>
     </g>
     <g id="text_18">
      <!-- $\mathdefault{25}$ -->
      <g transform="translate(386.21861 224.699938)scale(0.16 -0.16)">
       <use transform="scale(0.996264)" xlink:href="#CMR17-50"/>
       <use transform="translate(45.690477 0)scale(0.996264)" xlink:href="#CMR17-53"/>
      </g>
     </g>
    </g>
    <g id="ytick_9">
     <g id="line2d_18">
      <g>
       <use style="stroke:#000000;stroke-width:0.8;" x="408.826584" xlink:href="#m45d7274aad" y="185.109525"/>
      </g>
     </g>
     <g id="text_19">
      <!-- $\mathdefault{50}$ -->
      <g transform="translate(386.21861 190.644319)scale(0.16 -0.16)">
       <use transform="scale(0.996264)" xlink:href="#CMR17-53"/>
       <use transform="translate(45.690477 0)scale(0.996264)" xlink:href="#CMR17-48"/>
      </g>
     </g>
    </g>
    <g id="ytick_10">
     <g id="line2d_19">
      <g>
       <use style="stroke:#000000;stroke-width:0.8;" x="408.826584" xlink:href="#m45d7274aad" y="151.053907"/>
      </g>
     </g>
     <g id="text_20">
      <!-- $\mathdefault{75}$ -->
      <g transform="translate(386.21861 156.588701)scale(0.16 -0.16)">
       <use transform="scale(0.996264)" xlink:href="#CMR17-55"/>
       <use transform="translate(45.690477 0)scale(0.996264)" xlink:href="#CMR17-53"/>
      </g>
     </g>
    </g>
    <g id="ytick_11">
     <g id="line2d_20">
      <g>
       <use style="stroke:#000000;stroke-width:0.8;" x="408.826584" xlink:href="#m45d7274aad" y="116.998289"/>
      </g>
     </g>
     <g id="text_21">
      <!-- $\mathdefault{100}$ -->
      <g transform="translate(378.414623 122.533083)scale(0.16 -0.16)">
       <use transform="scale(0.996264)" xlink:href="#CMR17-49"/>
       <use transform="translate(45.690477 0)scale(0.996264)" xlink:href="#CMR17-48"/>
       <use transform="translate(91.380954 0)scale(0.996264)" xlink:href="#CMR17-48"/>
      </g>
     </g>
    </g>
    <g id="ytick_12">
     <g id="line2d_21">
      <g>
       <use style="stroke:#000000;stroke-width:0.8;" x="408.826584" xlink:href="#m45d7274aad" y="82.94267"/>
      </g>
     </g>
     <g id="text_22">
      <!-- $\mathdefault{125}$ -->
      <g transform="translate(378.414623 88.477464)scale(0.16 -0.16)">
       <use transform="scale(0.996264)" xlink:href="#CMR17-49"/>
       <use transform="translate(45.690477 0)scale(0.996264)" xlink:href="#CMR17-50"/>
       <use transform="translate(91.380954 0)scale(0.996264)" xlink:href="#CMR17-53"/>
      </g>
     </g>
    </g>
   </g>
   <g id="LineCollection_2">
    <path clip-path="url(#p5b044cf735)" d="M 420.009037 73.260075 
L 420.009037 72.900917 
" style="fill:none;stroke:#ff0000;stroke-width:2;"/>
    <path clip-path="url(#p5b044cf735)" d="M 433.987102 181.581611 
L 433.987102 181.458108 
" style="fill:none;stroke:#ff0000;stroke-width:2;"/>
    <path clip-path="url(#p5b044cf735)" d="M 447.965168 214.907543 
L 447.965168 214.795685 
" style="fill:none;stroke:#ff0000;stroke-width:2;"/>
    <path clip-path="url(#p5b044cf735)" d="M 461.943234 230.488028 
L 461.943234 230.384785 
" style="fill:none;stroke:#ff0000;stroke-width:2;"/>
    <path clip-path="url(#p5b044cf735)" d="M 475.921299 238.787892 
L 475.921299 238.69241 
" style="fill:none;stroke:#ff0000;stroke-width:2;"/>
    <path clip-path="url(#p5b044cf735)" d="M 489.899365 243.604785 
L 489.899365 243.504157 
" style="fill:none;stroke:#ff0000;stroke-width:2;"/>
    <path clip-path="url(#p5b044cf735)" d="M 503.87743 246.562038 
L 503.87743 246.477625 
" style="fill:none;stroke:#ff0000;stroke-width:2;"/>
    <path clip-path="url(#p5b044cf735)" d="M 517.855496 248.492967 
L 517.855496 248.422237 
" style="fill:none;stroke:#ff0000;stroke-width:2;"/>
    <path clip-path="url(#p5b044cf735)" d="M 531.833562 249.796561 
L 531.833562 249.730078 
" style="fill:none;stroke:#ff0000;stroke-width:2;"/>
    <path clip-path="url(#p5b044cf735)" d="M 545.811627 250.716829 
L 545.811627 250.661081 
" style="fill:none;stroke:#ff0000;stroke-width:2;"/>
    <path clip-path="url(#p5b044cf735)" d="M 559.789693 251.384525 
L 559.789693 251.336783 
" style="fill:none;stroke:#ff0000;stroke-width:2;"/>
    <path clip-path="url(#p5b044cf735)" d="M 573.767759 251.852983 
L 573.767759 251.815852 
" style="fill:none;stroke:#ff0000;stroke-width:2;"/>
    <path clip-path="url(#p5b044cf735)" d="M 587.745824 252.188815 
L 587.745824 252.159055 
" style="fill:none;stroke:#ff0000;stroke-width:2;"/>
    <path clip-path="url(#p5b044cf735)" d="M 601.72389 252.422424 
L 601.72389 252.397752 
" style="fill:none;stroke:#ff0000;stroke-width:2;"/>
    <path clip-path="url(#p5b044cf735)" d="M 615.701956 252.575274 
L 615.701956 252.550081 
" style="fill:none;stroke:#ff0000;stroke-width:2;"/>
    <path clip-path="url(#p5b044cf735)" d="M 629.680021 252.662611 
L 629.680021 252.640346 
" style="fill:none;stroke:#ff0000;stroke-width:2;"/>
    <path clip-path="url(#p5b044cf735)" d="M 643.658087 252.694735 
L 643.658087 252.66238 
" style="fill:none;stroke:#ff0000;stroke-width:2;"/>
   </g>
   <g id="line2d_22">
    <path clip-path="url(#p5b044cf735)" d="M 420.009037 73.080496 
L 433.987102 181.51986 
L 447.965168 214.851614 
L 461.943234 230.436406 
L 475.921299 238.740151 
L 489.899365 243.554471 
L 503.87743 246.519831 
L 517.855496 248.457602 
L 531.833562 249.76332 
L 545.811627 250.688955 
L 559.789693 251.360654 
L 573.767759 251.834417 
L 587.745824 252.173935 
L 601.72389 252.410088 
L 615.701956 252.562677 
L 629.680021 252.651478 
L 643.658087 252.678558 
" style="fill:none;stroke:#000000;stroke-linecap:square;stroke-width:2;"/>
   </g>
   <g id="patch_8">
    <path d="M 408.826584 261.684426 
L 408.826584 63.911226 
" style="fill:none;stroke:#000000;stroke-linecap:square;stroke-linejoin:miter;stroke-width:0.8;"/>
   </g>
   <g id="patch_9">
    <path d="M 654.840539 261.684426 
L 654.840539 63.911226 
" style="fill:none;stroke:#000000;stroke-linecap:square;stroke-linejoin:miter;stroke-width:0.8;"/>
   </g>
   <g id="patch_10">
    <path d="M 408.826584 261.684426 
L 654.840539 261.684426 
" style="fill:none;stroke:#000000;stroke-linecap:square;stroke-linejoin:miter;stroke-width:0.8;"/>
   </g>
   <g id="patch_11">
    <path d="M 408.826584 63.911226 
L 654.840539 63.911226 
" style="fill:none;stroke:#000000;stroke-linecap:square;stroke-linejoin:miter;stroke-width:0.8;"/>
   </g>
   <g id="text_23">
    <!-- Folded $C(t)$ -->
    <g transform="translate(474.494552 57.911226)scale(0.24 -0.24)">
     <defs>
      <path d="M 54.40625 67.578125 
L 5.09375 67.578125 
L 5.09375 65 
C 12 65 13.09375 65 13.09375 60.53125 
L 13.09375 6.96875 
C 13.09375 2.5 12 2.5 5.09375 2.5 
L 5.09375 0 
C 8 0 13.59375 0 16.703125 0 
C 20.796875 0 25.59375 0 29.703125 0 
L 29.703125 2.5 
L 27.5 2.5 
C 19.90625 2.5 19.703125 3.484375 19.703125 7.0625 
L 19.703125 32.421875 
L 28.703125 32.421875 
C 38 32.421875 38.90625 29.140625 38.90625 20.8125 
L 40.703125 20.8125 
L 40.703125 46.671875 
L 38.90625 46.671875 
C 38.90625 38.28125 38 35 28.703125 35 
L 19.703125 35 
L 19.703125 61.109375 
C 19.703125 64.5 19.90625 65 23.90625 65 
L 36.796875 65 
C 51.90625 65 53.59375 58.828125 55 45.5625 
L 56.796875 45.5625 
z
" id="CMR17-70"/>
      <path d="M 43.09375 21.1875 
C 43.09375 34 33.796875 44 22.90625 44 
C 12 44 2.703125 34 2.703125 21.1875 
C 2.703125 8.609375 12 -1 22.90625 -1 
C 33.796875 -1 43.09375 8.609375 43.09375 21.1875 
z
M 22.90625 0.796875 
C 18.203125 0.796875 14.203125 3.59375 11.90625 7.5 
C 9.40625 11.984375 9.09375 17.59375 9.09375 22 
C 9.09375 26.203125 9.296875 31.40625 11.90625 35.90625 
C 13.90625 39.203125 17.796875 42.40625 22.90625 42.40625 
C 27.40625 42.40625 31.203125 39.90625 33.59375 36.40625 
C 36.703125 31.703125 36.703125 25.109375 36.703125 22 
C 36.703125 18.09375 36.5 12.109375 33.796875 7.296875 
C 31 2.703125 26.703125 0.796875 22.90625 0.796875 
z
" id="CMR17-111"/>
      <path d="M 29.203125 67.59375 
L 29.203125 65 
C 35.09375 65 36 64.40625 36 59.6875 
L 36 36.640625 
C 35.59375 37.140625 31.5 43.59375 23.40625 43.59375 
C 13.203125 43.59375 3.296875 34.5 3.296875 21.3125 
C 3.296875 8.203125 12.59375 -1 22.40625 -1 
C 30.90625 -1 35.296875 5.265625 35.796875 5.9375 
L 35.796875 -0.984375 
L 47.90625 -0.984375 
L 47.90625 2 
C 42 2 41.09375 2.59375 41.09375 7.390625 
L 41.09375 68.6875 
z
M 35.796875 11.796875 
C 35.796875 8.796875 34 6.09375 31.703125 4.09375 
C 28.296875 1.09375 24.90625 0.59375 23 0.59375 
C 20.09375 0.59375 9.703125 2.09375 9.703125 21.1875 
C 9.703125 40.8125 21.296875 42 23.90625 42 
C 28.5 42 32.203125 39.40625 34.5 35.796875 
C 35.796875 33.703125 35.796875 33.40625 35.796875 31.609375 
z
" id="CMR17-100"/>
     </defs>
     <use transform="scale(0.996264)" xlink:href="#CMR17-70"/>
     <use transform="translate(52.176591 0)scale(0.996264)" xlink:href="#CMR17-111"/>
     <use transform="translate(97.867068 0)scale(0.996264)" xlink:href="#CMR17-108"/>
     <use transform="translate(122.738127 0)scale(0.996264)" xlink:href="#CMR17-100"/>
     <use transform="translate(173.633497 0)scale(0.996264)" xlink:href="#CMR17-101"/>
     <use transform="translate(214.119157 0)scale(0.996264)" xlink:href="#CMR17-100"/>
     <use transform="translate(295.090493 0)scale(0.996264)" xlink:href="#CMMI12-67"/>
     <use transform="translate(372.03734 0)scale(0.996264)" xlink:href="#CMR17-40"/>
     <use transform="translate(407.318108 0)scale(0.996264)" xlink:href="#CMMI12-116"/>
     <use transform="translate(442.544438 0)scale(0.996264)" xlink:href="#CMR17-41"/>
    </g>
   </g>
  </g>
  <g id="axes_3">
   <g id="patch_12">
    <path d="M 721.986045 261.684426 
L 968 261.684426 
L 968 63.911226 
L 721.986045 63.911226 
z
" style="fill:#ffffff;"/>
   </g>
   <g id="matplotlib.axis_5">
    <g id="xtick_9">
     <g id="line2d_23">
      <g>
       <use style="stroke:#000000;stroke-width:0.8;" x="733.168497" xlink:href="#m62efb5e4f9" y="261.684426"/>
      </g>
     </g>
     <g id="text_24">
      <!-- $\mathdefault{0}$ -->
      <g transform="translate(729.266504 279.754014)scale(0.16 -0.16)">
       <use transform="scale(0.996264)" xlink:href="#CMR17-48"/>
      </g>
     </g>
    </g>
    <g id="xtick_10">
     <g id="line2d_24">
      <g>
       <use style="stroke:#000000;stroke-width:0.8;" x="803.058825" xlink:href="#m62efb5e4f9" y="261.684426"/>
      </g>
     </g>
     <g id="text_25">
      <!-- $\mathdefault{5}$ -->
      <g transform="translate(799.156832 279.754014)scale(0.16 -0.16)">
       <use transform="scale(0.996264)" xlink:href="#CMR17-53"/>
      </g>
     </g>
    </g>
    <g id="xtick_11">
     <g id="line2d_25">
      <g>
       <use style="stroke:#000000;stroke-width:0.8;" x="872.949154" xlink:href="#m62efb5e4f9" y="261.684426"/>
      </g>
     </g>
     <g id="text_26">
      <!-- $\mathdefault{10}$ -->
      <g transform="translate(865.145167 279.754014)scale(0.16 -0.16)">
       <use transform="scale(0.996264)" xlink:href="#CMR17-49"/>
       <use transform="translate(45.690477 0)scale(0.996264)" xlink:href="#CMR17-48"/>
      </g>
     </g>
    </g>
    <g id="xtick_12">
     <g id="line2d_26">
      <g>
       <use style="stroke:#000000;stroke-width:0.8;" x="942.839482" xlink:href="#m62efb5e4f9" y="261.684426"/>
      </g>
     </g>
     <g id="text_27">
      <!-- $\mathdefault{15}$ -->
      <g transform="translate(935.035495 279.754014)scale(0.16 -0.16)">
       <use transform="scale(0.996264)" xlink:href="#CMR17-49"/>
       <use transform="translate(45.690477 0)scale(0.996264)" xlink:href="#CMR17-53"/>
      </g>
     </g>
    </g>
   </g>
   <g id="matplotlib.axis_6">
    <g id="ytick_13">
     <g id="line2d_27">
      <g>
       <use style="stroke:#000000;stroke-width:0.8;" x="721.986045" xlink:href="#m45d7274aad" y="259.937838"/>
      </g>
     </g>
     <g id="text_28">
      <!-- $\mathdefault{−0.10}$ -->
      <g transform="translate(674.840539 265.472632)scale(0.16 -0.16)">
       <defs>
        <path d="M 65.90625 23 
C 67.59375 23 69.40625 23 69.40625 25 
C 69.40625 27 67.59375 27 65.90625 27 
L 11.796875 27 
C 10.09375 27 8.296875 27 8.296875 25 
C 8.296875 23 10.09375 23 11.796875 23 
z
" id="CMSY10-0"/>
        <path d="M 18.40625 4.796875 
C 18.40625 7.6875 16 9.671875 13.59375 9.671875 
C 10.703125 9.671875 8.703125 7.28125 8.703125 4.890625 
C 8.703125 2 11.09375 0 13.5 0 
C 16.40625 0 18.40625 2.390625 18.40625 4.796875 
z
" id="CMMI12-58"/>
       </defs>
       <use transform="scale(0.996264)" xlink:href="#CMSY10-0"/>
       <use transform="translate(77.487468 0)scale(0.996264)" xlink:href="#CMR17-48"/>
       <use transform="translate(123.177945 0)scale(0.996264)" xlink:href="#CMMI12-58"/>
       <use transform="translate(150.275122 0)scale(0.996264)" xlink:href="#CMR17-49"/>
       <use transform="translate(195.965599 0)scale(0.996264)" xlink:href="#CMR17-48"/>
      </g>
     </g>
    </g>
    <g id="ytick_14">
     <g id="line2d_28">
      <g>
       <use style="stroke:#000000;stroke-width:0.8;" x="721.986045" xlink:href="#m45d7274aad" y="209.275713"/>
      </g>
     </g>
     <g id="text_29">
      <!-- $\mathdefault{−0.05}$ -->
      <g transform="translate(674.840539 214.810507)scale(0.16 -0.16)">
       <use transform="scale(0.996264)" xlink:href="#CMSY10-0"/>
       <use transform="translate(77.487468 0)scale(0.996264)" xlink:href="#CMR17-48"/>
       <use transform="translate(123.177945 0)scale(0.996264)" xlink:href="#CMMI12-58"/>
       <use transform="translate(150.275122 0)scale(0.996264)" xlink:href="#CMR17-48"/>
       <use transform="translate(195.965599 0)scale(0.996264)" xlink:href="#CMR17-53"/>
      </g>
     </g>
    </g>
    <g id="ytick_15">
     <g id="line2d_29">
      <g>
       <use style="stroke:#000000;stroke-width:0.8;" x="721.986045" xlink:href="#m45d7274aad" y="158.613587"/>
      </g>
     </g>
     <g id="text_30">
      <!-- $\mathdefault{0.00}$ -->
      <g transform="translate(687.238535 164.148382)scale(0.16 -0.16)">
       <use transform="scale(0.996264)" xlink:href="#CMR17-48"/>
       <use transform="translate(45.690477 0)scale(0.996264)" xlink:href="#CMMI12-58"/>
       <use transform="translate(72.787654 0)scale(0.996264)" xlink:href="#CMR17-48"/>
       <use transform="translate(118.478131 0)scale(0.996264)" xlink:href="#CMR17-48"/>
      </g>
     </g>
    </g>
    <g id="ytick_16">
     <g id="line2d_30">
      <g>
       <use style="stroke:#000000;stroke-width:0.8;" x="721.986045" xlink:href="#m45d7274aad" y="107.951462"/>
      </g>
     </g>
     <g id="text_31">
      <!-- $\mathdefault{0.05}$ -->
      <g transform="translate(687.238535 113.486256)scale(0.16 -0.16)">
       <use transform="scale(0.996264)" xlink:href="#CMR17-48"/>
       <use transform="translate(45.690477 0)scale(0.996264)" xlink:href="#CMMI12-58"/>
       <use transform="translate(72.787654 0)scale(0.996264)" xlink:href="#CMR17-48"/>
       <use transform="translate(118.478131 0)scale(0.996264)" xlink:href="#CMR17-53"/>
      </g>
     </g>
    </g>
   </g>
   <g id="LineCollection_3">
    <path clip-path="url(#p4a3dbfc79a)" d="M 733.168497 158.613587 
L 733.168497 158.613587 
" style="fill:none;stroke:#ff0000;stroke-width:2;"/>
    <path clip-path="url(#p4a3dbfc79a)" d="M 747.146563 170.880019 
L 747.146563 72.900917 
" style="fill:none;stroke:#ff0000;stroke-width:2;"/>
    <path clip-path="url(#p4a3dbfc79a)" d="M 761.124629 162.258823 
L 761.124629 85.006427 
" style="fill:none;stroke:#ff0000;stroke-width:2;"/>
    <path clip-path="url(#p4a3dbfc79a)" d="M 775.102694 179.789828 
L 775.102694 103.669486 
" style="fill:none;stroke:#ff0000;stroke-width:2;"/>
    <path clip-path="url(#p4a3dbfc79a)" d="M 789.08076 216.264917 
L 789.08076 139.57254 
" style="fill:none;stroke:#ff0000;stroke-width:2;"/>
    <path clip-path="url(#p4a3dbfc79a)" d="M 803.058825 241.717048 
L 803.058825 171.635402 
" style="fill:none;stroke:#ff0000;stroke-width:2;"/>
    <path clip-path="url(#p4a3dbfc79a)" d="M 817.036891 252.694735 
L 817.036891 187.235136 
" style="fill:none;stroke:#ff0000;stroke-width:2;"/>
    <path clip-path="url(#p4a3dbfc79a)" d="M 831.014957 248.489735 
L 831.014957 188.27153 
" style="fill:none;stroke:#ff0000;stroke-width:2;"/>
    <path clip-path="url(#p4a3dbfc79a)" d="M 844.993022 234.167637 
L 844.993022 189.77681 
" style="fill:none;stroke:#ff0000;stroke-width:2;"/>
    <path clip-path="url(#p4a3dbfc79a)" d="M 858.971088 219.054836 
L 858.971088 175.548042 
" style="fill:none;stroke:#ff0000;stroke-width:2;"/>
    <path clip-path="url(#p4a3dbfc79a)" d="M 872.949154 201.611435 
L 872.949154 170.017762 
" style="fill:none;stroke:#ff0000;stroke-width:2;"/>
    <path clip-path="url(#p4a3dbfc79a)" d="M 886.927219 188.269872 
L 886.927219 161.105786 
" style="fill:none;stroke:#ff0000;stroke-width:2;"/>
    <path clip-path="url(#p4a3dbfc79a)" d="M 900.905285 177.181163 
L 900.905285 154.682412 
" style="fill:none;stroke:#ff0000;stroke-width:2;"/>
    <path clip-path="url(#p4a3dbfc79a)" d="M 914.883351 170.853216 
L 914.883351 150.471296 
" style="fill:none;stroke:#ff0000;stroke-width:2;"/>
    <path clip-path="url(#p4a3dbfc79a)" d="M 928.861416 168.599855 
L 928.861416 150.377998 
" style="fill:none;stroke:#ff0000;stroke-width:2;"/>
    <path clip-path="url(#p4a3dbfc79a)" d="M 942.839482 164.991102 
L 942.839482 148.488265 
" style="fill:none;stroke:#ff0000;stroke-width:2;"/>
    <path clip-path="url(#p4a3dbfc79a)" d="M 956.817547 158.613587 
L 956.817547 158.613587 
" style="fill:none;stroke:#ff0000;stroke-width:2;"/>
   </g>
   <g id="line2d_31">
    <path clip-path="url(#p4a3dbfc79a)" d="M 733.168497 158.613587 
L 747.146563 121.890468 
L 761.124629 123.632625 
L 775.102694 141.729657 
L 789.08076 177.918729 
L 803.058825 206.676225 
L 817.036891 219.964936 
L 831.014957 218.380633 
L 844.993022 211.972224 
L 858.971088 197.301439 
L 872.949154 185.814599 
L 886.927219 174.687829 
L 900.905285 165.931788 
L 914.883351 160.662256 
L 928.861416 159.488927 
L 942.839482 156.739684 
L 956.817547 158.613587 
" style="fill:none;stroke:#000000;stroke-linecap:square;stroke-width:2;"/>
   </g>
   <g id="patch_13">
    <path d="M 721.986045 261.684426 
L 721.986045 63.911226 
" style="fill:none;stroke:#000000;stroke-linecap:square;stroke-linejoin:miter;stroke-width:0.8;"/>
   </g>
   <g id="patch_14">
    <path d="M 968 261.684426 
L 968 63.911226 
" style="fill:none;stroke:#000000;stroke-linecap:square;stroke-linejoin:miter;stroke-width:0.8;"/>
   </g>
   <g id="patch_15">
    <path d="M 721.986045 261.684426 
L 968 261.684426 
" style="fill:none;stroke:#000000;stroke-linecap:square;stroke-linejoin:miter;stroke-width:0.8;"/>
   </g>
   <g id="patch_16">
    <path d="M 721.986045 63.911226 
L 968 63.911226 
" style="fill:none;stroke:#000000;stroke-linecap:square;stroke-linejoin:miter;stroke-width:0.8;"/>
   </g>
   <g id="text_32">
    <!-- $C(t)$ - Folded $C(t)$ -->
    <g transform="translate(754.898511 57.911226)scale(0.24 -0.24)">
     <defs>
      <path d="M 25.5 19 
L 25.5 23.375 
L 0.40625 23.375 
L 0.40625 19 
z
" id="CMR17-45"/>
     </defs>
     <use transform="scale(0.996264)" xlink:href="#CMMI12-67"/>
     <use transform="translate(76.946847 0)scale(0.996264)" xlink:href="#CMR17-40"/>
     <use transform="translate(112.227614 0)scale(0.996264)" xlink:href="#CMMI12-116"/>
     <use transform="translate(147.453945 0)scale(0.996264)" xlink:href="#CMR17-41"/>
     <use transform="translate(212.810679 0)scale(0.996264)" xlink:href="#CMR17-45"/>
     <use transform="translate(272.962612 0)scale(0.996264)" xlink:href="#CMR17-70"/>
     <use transform="translate(325.139203 0)scale(0.996264)" xlink:href="#CMR17-111"/>
     <use transform="translate(370.82968 0)scale(0.996264)" xlink:href="#CMR17-108"/>
     <use transform="translate(395.700738 0)scale(0.996264)" xlink:href="#CMR17-100"/>
     <use transform="translate(446.596108 0)scale(0.996264)" xlink:href="#CMR17-101"/>
     <use transform="translate(487.081769 0)scale(0.996264)" xlink:href="#CMR17-100"/>
     <use transform="translate(568.053105 0)scale(0.996264)" xlink:href="#CMMI12-67"/>
     <use transform="translate(644.999951 0)scale(0.996264)" xlink:href="#CMR17-40"/>
     <use transform="translate(680.280719 0)scale(0.996264)" xlink:href="#CMMI12-116"/>
     <use transform="translate(715.507049 0)scale(0.996264)" xlink:href="#CMR17-41"/>
    </g>
   </g>
  </g>
  <g id="axes_4">
   <g id="patch_17">
    <path d="M 95.667124 514.830936 
L 341.681079 514.830936 
L 341.681079 317.057736 
L 95.667124 317.057736 
z
" style="fill:#ffffff;"/>
   </g>
   <g id="matplotlib.axis_7">
    <g id="xtick_13">
     <g id="line2d_32">
      <g>
       <use style="stroke:#000000;stroke-width:0.8;" x="106.849576" xlink:href="#m62efb5e4f9" y="514.830936"/>
      </g>
     </g>
     <g id="text_33">
      <!-- $\mathdefault{0}$ -->
      <g transform="translate(102.947583 532.900524)scale(0.16 -0.16)">
       <use transform="scale(0.996264)" xlink:href="#CMR17-48"/>
      </g>
     </g>
    </g>
    <g id="xtick_14">
     <g id="line2d_33">
      <g>
       <use style="stroke:#000000;stroke-width:0.8;" x="178.994431" xlink:href="#m62efb5e4f9" y="514.830936"/>
      </g>
     </g>
     <g id="text_34">
      <!-- $\mathdefault{10}$ -->
      <g transform="translate(171.190444 532.900524)scale(0.16 -0.16)">
       <use transform="scale(0.996264)" xlink:href="#CMR17-49"/>
       <use transform="translate(45.690477 0)scale(0.996264)" xlink:href="#CMR17-48"/>
      </g>
     </g>
    </g>
    <g id="xtick_15">
     <g id="line2d_34">
      <g>
       <use style="stroke:#000000;stroke-width:0.8;" x="251.139286" xlink:href="#m62efb5e4f9" y="514.830936"/>
      </g>
     </g>
     <g id="text_35">
      <!-- $\mathdefault{20}$ -->
      <g transform="translate(243.335299 532.900524)scale(0.16 -0.16)">
       <use transform="scale(0.996264)" xlink:href="#CMR17-50"/>
       <use transform="translate(45.690477 0)scale(0.996264)" xlink:href="#CMR17-48"/>
      </g>
     </g>
    </g>
    <g id="xtick_16">
     <g id="line2d_35">
      <g>
       <use style="stroke:#000000;stroke-width:0.8;" x="323.284141" xlink:href="#m62efb5e4f9" y="514.830936"/>
      </g>
     </g>
     <g id="text_36">
      <!-- $\mathdefault{30}$ -->
      <g transform="translate(315.480154 532.900524)scale(0.16 -0.16)">
       <use transform="scale(0.996264)" xlink:href="#CMR17-51"/>
       <use transform="translate(45.690477 0)scale(0.996264)" xlink:href="#CMR17-48"/>
      </g>
     </g>
    </g>
   </g>
   <g id="matplotlib.axis_8">
    <g id="ytick_17">
     <g id="line2d_36">
      <g>
       <use style="stroke:#000000;stroke-width:0.8;" x="95.667124" xlink:href="#m45d7274aad" y="476.800456"/>
      </g>
     </g>
     <g id="text_37">
      <!-- $\mathdefault{−4}$ -->
      <g transform="translate(68.46514 482.33525)scale(0.16 -0.16)">
       <defs>
        <path d="M 33.59375 64.40625 
C 33.59375 66.5 33.5 66.5 31.703125 66.5 
L 2 19.59375 
L 2 17 
L 27.796875 17 
L 27.796875 7.140625 
C 27.796875 3.5 27.59375 2.5 20.59375 2.5 
L 18.703125 2.5 
L 18.703125 0 
C 21.90625 0 27.296875 0 30.703125 0 
C 34.09375 0 39.5 0 42.703125 0 
L 42.703125 2.5 
L 40.796875 2.5 
C 33.796875 2.5 33.59375 3.5 33.59375 7.140625 
L 33.59375 17 
L 43.796875 17 
L 43.796875 19.59375 
L 33.59375 19.59375 
z
M 28.09375 57.859375 
L 28.09375 19.59375 
L 4 19.59375 
z
" id="CMR17-52"/>
       </defs>
       <use transform="scale(0.996264)" xlink:href="#CMSY10-0"/>
       <use transform="translate(77.487468 0)scale(0.996264)" xlink:href="#CMR17-52"/>
      </g>
     </g>
    </g>
    <g id="ytick_18">
     <g id="line2d_37">
      <g>
       <use style="stroke:#000000;stroke-width:0.8;" x="95.667124" xlink:href="#m45d7274aad" y="437.711521"/>
      </g>
     </g>
     <g id="text_38">
      <!-- $\mathdefault{−2}$ -->
      <g transform="translate(68.46514 443.246315)scale(0.16 -0.16)">
       <use transform="scale(0.996264)" xlink:href="#CMSY10-0"/>
       <use transform="translate(77.487468 0)scale(0.996264)" xlink:href="#CMR17-50"/>
      </g>
     </g>
    </g>
    <g id="ytick_19">
     <g id="line2d_38">
      <g>
       <use style="stroke:#000000;stroke-width:0.8;" x="95.667124" xlink:href="#m45d7274aad" y="398.622587"/>
      </g>
     </g>
     <g id="text_39">
      <!-- $\mathdefault{0}$ -->
      <g transform="translate(80.863137 404.157381)scale(0.16 -0.16)">
       <use transform="scale(0.996264)" xlink:href="#CMR17-48"/>
      </g>
     </g>
    </g>
    <g id="ytick_20">
     <g id="line2d_39">
      <g>
       <use style="stroke:#000000;stroke-width:0.8;" x="95.667124" xlink:href="#m45d7274aad" y="359.533653"/>
      </g>
     </g>
     <g id="text_40">
      <!-- $\mathdefault{2}$ -->
      <g transform="translate(80.863137 365.068447)scale(0.16 -0.16)">
       <use transform="scale(0.996264)" xlink:href="#CMR17-50"/>
      </g>
     </g>
    </g>
    <g id="ytick_21">
     <g id="line2d_40">
      <g>
       <use style="stroke:#000000;stroke-width:0.8;" x="95.667124" xlink:href="#m45d7274aad" y="320.444718"/>
      </g>
     </g>
     <g id="text_41">
      <!-- $\mathdefault{4}$ -->
      <g transform="translate(80.863137 325.979512)scale(0.16 -0.16)">
       <use transform="scale(0.996264)" xlink:href="#CMR17-52"/>
      </g>
     </g>
    </g>
    <g id="text_42">
     <!-- Imaginary -->
     <g transform="translate(59.814383 464.660674)rotate(-90)scale(0.24 -0.24)">
      <defs>
       <path d="M 19.703125 61.015625 
C 19.703125 65.5 20.90625 65.5 28.09375 65.5 
L 28.09375 68 
C 24.90625 68 19.796875 68 16.40625 68 
C 13 68 7.90625 68 4.703125 68 
L 4.703125 65.5 
C 11.90625 65.5 13.09375 65.5 13.09375 61.015625 
L 13.09375 6.984375 
C 13.09375 2.5 11.90625 2.5 4.703125 2.5 
L 4.703125 0 
C 7.90625 0 13 0 16.40625 0 
C 19.796875 0 24.90625 0 28.09375 0 
L 28.09375 2.5 
C 20.90625 2.5 19.703125 2.5 19.703125 6.984375 
z
" id="CMR17-73"/>
       <path d="M 67.59375 30.203125 
C 67.59375 35.1875 66.703125 43.59375 54.796875 43.59375 
C 48 43.59375 43.296875 39 41.5 33.609375 
L 41.40625 33.609375 
C 40.203125 41.8125 34.296875 43.59375 28.703125 43.59375 
C 20.796875 43.59375 16.703125 37.5 15.203125 33.5 
L 15.09375 33.5 
L 15.09375 43.59375 
L 3.296875 42.5 
L 3.296875 39.90625 
C 9.203125 39.90625 10.09375 39.296875 10.09375 34.5 
L 10.09375 6.6875 
C 10.09375 2.875 9.703125 2.390625 3.296875 2.390625 
L 3.296875 -0.203125 
C 5.703125 0 10.09375 0 12.703125 0 
C 15.296875 0 19.796875 0 22.203125 -0.203125 
L 22.203125 2.390625 
C 15.796875 2.390625 15.40625 2.78125 15.40625 6.6875 
L 15.40625 25.90625 
C 15.40625 35.109375 21 42 28 42 
C 35.40625 42 36.203125 35.40625 36.203125 30.59375 
L 36.203125 6.6875 
C 36.203125 2.875 35.796875 2.390625 29.40625 2.390625 
L 29.40625 -0.203125 
C 31.796875 0 36.203125 0 38.796875 0 
C 41.40625 0 45.90625 0 48.296875 -0.203125 
L 48.296875 2.390625 
C 41.90625 2.390625 41.5 2.78125 41.5 6.6875 
L 41.5 25.90625 
C 41.5 35.109375 47.09375 42 54.09375 42 
C 61.5 42 62.296875 35.40625 62.296875 30.59375 
L 62.296875 6.6875 
C 62.296875 2.875 61.90625 2.390625 55.5 2.390625 
L 55.5 -0.203125 
C 57.90625 0 62.296875 0 64.90625 0 
C 67.5 0 72 0 74.40625 -0.203125 
L 74.40625 2.390625 
C 68 2.390625 67.59375 2.78125 67.59375 6.6875 
z
" id="CMR17-109"/>
       <path d="M 11.09375 18.1875 
C 13 16.6875 16.296875 15 20.296875 15 
C 28.203125 15 35 21.203125 35 29.5 
C 35 32.09375 34.203125 36.09375 31.203125 39.203125 
C 34 42.0625 38.09375 43 40.40625 43 
C 40.796875 43 41.40625 43 41.90625 42.71875 
C 41.5 42.625 40.59375 42.234375 40.59375 40.703125 
C 40.59375 39.484375 41.5 38.609375 42.796875 38.609375 
C 44.296875 38.609375 45.09375 39.578125 45.09375 40.84375 
C 45.09375 42.671875 43.59375 44.59375 40.40625 44.59375 
C 36.40625 44.59375 32.90625 42.78125 30.09375 40.3125 
C 27.09375 43.015625 23.5 44 20.296875 44 
C 12.40625 44 5.59375 37.796875 5.59375 29.5 
C 5.59375 23.78125 8.90625 20.1875 9.90625 19.1875 
C 6.90625 15.6875 6.90625 11.609375 6.90625 11.109375 
C 6.90625 8.515625 7.90625 4.71875 11.296875 2.625 
C 6.09375 1.328125 2 -2.640625 2 -7.59375 
C 2 -14.734375 11.5 -20 22.90625 -20 
C 33.90625 -20 43.796875 -14.9375 43.796875 -7.484375 
C 43.796875 6 29 6 21.296875 6 
C 19 6 14.90625 6 14.40625 6.109375 
C 11.296875 6.609375 9.203125 9.40625 9.203125 12.90625 
C 9.203125 13.796875 9.203125 16 11.09375 18.1875 
z
M 20.296875 16.6875 
C 11.5 16.6875 11.5 27.5 11.5 29.515625 
C 11.5 31.5 11.5 42.3125 20.296875 42.3125 
C 29.09375 42.3125 29.09375 31.5 29.09375 29.515625 
C 29.09375 27.5 29.09375 16.6875 20.296875 16.6875 
z
M 22.90625 -18.296875 
C 12.90625 -18.296875 6 -13.046875 6 -7.59375 
C 6 -4.515625 7.703125 -1.640625 9.90625 -0.0625 
C 12.40625 1.625 13.40625 1.625 20.203125 1.625 
C 28.40625 1.625 39.796875 1.625 39.796875 -7.59375 
C 39.796875 -13.046875 32.90625 -18.296875 22.90625 -18.296875 
z
" id="CMR17-103"/>
       <path d="M 15.5 61.078125 
C 15.5 63.265625 13.703125 65.15625 11.40625 65.15625 
C 9.203125 65.15625 7.296875 63.375 7.296875 61.078125 
C 7.296875 58.890625 9.09375 57 11.40625 57 
C 13.59375 57 15.5 58.796875 15.5 61.078125 
z
M 3.796875 42.28125 
L 3.796875 39.703125 
C 9.40625 39.703125 10.203125 39.09375 10.203125 34.328125 
L 10.203125 6.671875 
C 10.203125 2.875 9.796875 2.390625 3.40625 2.390625 
L 3.40625 -0.203125 
C 5.796875 0 10.09375 0 12.59375 0 
C 15 0 19.09375 0 21.40625 -0.203125 
L 21.40625 2.390625 
C 15.5 2.390625 15.296875 2.984375 15.296875 6.5625 
L 15.296875 43.375 
z
" id="CMR17-105"/>
       <path d="M 41.5 30.203125 
C 41.5 35.296875 40.5 43.59375 28.703125 43.59375 
C 20.796875 43.59375 16.703125 37.5 15.203125 33.5 
L 15.09375 33.5 
L 15.09375 43.59375 
L 3.296875 42.5 
L 3.296875 39.90625 
C 9.203125 39.90625 10.09375 39.296875 10.09375 34.5 
L 10.09375 6.6875 
C 10.09375 2.875 9.703125 2.390625 3.296875 2.390625 
L 3.296875 -0.203125 
C 5.703125 0 10.09375 0 12.703125 0 
C 15.296875 0 19.796875 0 22.203125 -0.203125 
L 22.203125 2.390625 
C 15.796875 2.390625 15.40625 2.78125 15.40625 6.6875 
L 15.40625 25.90625 
C 15.40625 35.109375 21 42 28 42 
C 35.40625 42 36.203125 35.40625 36.203125 30.59375 
L 36.203125 6.6875 
C 36.203125 2.875 35.796875 2.390625 29.40625 2.390625 
L 29.40625 -0.203125 
C 31.796875 0 36.203125 0 38.796875 0 
C 41.40625 0 45.90625 0 48.296875 -0.203125 
L 48.296875 2.390625 
C 41.90625 2.390625 41.5 2.78125 41.5 6.6875 
z
" id="CMR17-110"/>
       <path d="M 15 23.390625 
C 15 33 19.09375 42 26.59375 42 
C 27.296875 42 28 41.90625 28.703125 41.59375 
C 28.703125 41.59375 26.5 40.890625 26.5 38.3125 
C 26.5 35.90625 28.40625 34.90625 29.90625 34.90625 
C 31.09375 34.90625 33.296875 35.609375 33.296875 38.40625 
C 33.296875 41.609375 30.09375 43.59375 26.703125 43.59375 
C 19.09375 43.59375 15.796875 36.203125 14.796875 32.703125 
L 14.703125 32.703125 
L 14.703125 43.59375 
L 3.09375 42.5 
L 3.09375 39.90625 
C 9 39.90625 9.90625 39.296875 9.90625 34.5 
L 9.90625 6.6875 
C 9.90625 2.875 9.5 2.390625 3.09375 2.390625 
L 3.09375 -0.203125 
C 5.5 0 10.09375 0 12.703125 0 
C 15.59375 0 20.703125 0 23.40625 -0.203125 
L 23.40625 2.390625 
C 16.203125 2.390625 15 2.390625 15 6.875 
z
" id="CMR17-114"/>
       <path d="M 39 34.328125 
C 41.5 40.40625 46 40.40625 47.40625 40.40625 
L 47.40625 43 
C 45.5 43 43 43 41.09375 43 
C 39 43 35.703125 43 33.703125 43.09375 
L 33.703125 40.5 
C 37.5 40.203125 37.59375 37.40625 37.59375 36.609375 
C 37.59375 35.625 37.40625 35.125 36.90625 33.921875 
L 26 7.015625 
L 14.09375 36.03125 
C 13.59375 37.21875 13.59375 37.90625 13.59375 38.015625 
C 13.59375 40.203125 15.90625 40.40625 18.296875 40.40625 
L 18.296875 43.09375 
C 15.90625 43 11.59375 43 9.09375 43 
C 6.40625 43 3.203125 43 1 43.09375 
L 1 40.40625 
C 6.40625 40.40625 7 39.90625 8.296875 36.71875 
L 23.203125 0.234375 
C 18.703125 -11.53125 16.09375 -18.40625 9.796875 -18.40625 
C 8.703125 -18.40625 6.203125 -18.109375 4.40625 -16.3125 
C 6.703125 -16.109375 7.703125 -14.71875 7.703125 -13.015625 
C 7.703125 -11.328125 6.5 -9.828125 4.5 -9.828125 
C 2.296875 -9.828125 1.203125 -11.328125 1.203125 -13.125 
C 1.203125 -17.109375 5.296875 -20 9.796875 -20 
C 15.59375 -20 19.203125 -14.40625 21.203125 -9.4375 
z
" id="CMR17-121"/>
      </defs>
      <use transform="scale(0.996264)" xlink:href="#CMR17-73"/>
      <use transform="translate(32.638409 0)scale(0.996264)" xlink:href="#CMR17-109"/>
      <use transform="translate(109.557999 0)scale(0.996264)" xlink:href="#CMR17-97"/>
      <use transform="translate(155.248476 0)scale(0.996264)" xlink:href="#CMR17-103"/>
      <use transform="translate(200.938953 0)scale(0.996264)" xlink:href="#CMR17-105"/>
      <use transform="translate(225.810012 0)scale(0.996264)" xlink:href="#CMR17-110"/>
      <use transform="translate(276.705382 0)scale(0.996264)" xlink:href="#CMR17-97"/>
      <use transform="translate(322.395859 0)scale(0.996264)" xlink:href="#CMR17-114"/>
      <use transform="translate(357.676626 0)scale(0.996264)" xlink:href="#CMR17-121"/>
     </g>
    </g>
    <g id="text_43">
     <!-- $\times\mathdefault{10^{−18}}\mathdefault{}$ -->
     <g transform="translate(95.667124 314.057736)scale(0.16 -0.16)">
      <defs>
       <path d="M 38.90625 27.890625 
L 18.90625 47.796875 
C 17.703125 49 17.5 49.1875 16.703125 49.1875 
C 15.703125 49.1875 14.703125 48.296875 14.703125 47.1875 
C 14.703125 46.5 14.90625 46.296875 16 45.1875 
L 36 25.09375 
L 16 5 
C 14.90625 3.890625 14.703125 3.6875 14.703125 3 
C 14.703125 1.890625 15.703125 1 16.703125 1 
C 17.5 1 17.703125 1.1875 18.90625 2.390625 
L 38.796875 22.296875 
L 59.5 1.59375 
C 59.703125 1.5 60.40625 1 61 1 
C 62.203125 1 63 1.890625 63 3 
C 63 3.1875 63 3.59375 62.703125 4.09375 
C 62.59375 4.296875 46.703125 20 41.703125 25.09375 
L 60 43.390625 
C 60.5 44 62 45.296875 62.5 45.890625 
C 62.59375 46.09375 63 46.5 63 47.1875 
C 63 48.296875 62.203125 49.1875 61 49.1875 
C 60.203125 49.1875 59.796875 48.796875 58.703125 47.6875 
z
" id="CMSY10-2"/>
       <path d="M 27.203125 35.375 
C 33.5 38.546875 39.90625 43.328125 39.90625 50.984375 
C 39.90625 60.015625 31.09375 65.296875 23 65.296875 
C 13.90625 65.296875 5.90625 58.734375 5.90625 49.6875 
C 5.90625 47.203125 6.5 42.921875 10.40625 39.140625 
C 11.40625 38.15625 15.59375 35.171875 18.296875 33.28125 
C 13.796875 30.984375 3.296875 25.53125 3.296875 14.59375 
C 3.296875 4.359375 13.09375 -2 22.796875 -2 
C 33.5 -2 42.5 5.65625 42.5 15.78125 
C 42.5 24.84375 36.40625 29.015625 32.40625 31.703125 
z
M 14.09375 44.09375 
C 13.296875 44.59375 9.296875 47.671875 9.296875 52.359375 
C 9.296875 58.421875 15.59375 63 22.796875 63 
C 30.703125 63 36.5 57.4375 36.5 50.96875 
C 36.5 41.703125 26.09375 36.421875 25.59375 36.421875 
C 25.5 36.421875 25.40625 36.421875 24.59375 37.03125 
z
M 32.5 23.734375 
C 34 22.640625 38.796875 19.375 38.796875 13.296875 
C 38.796875 5.953125 31.40625 0.390625 23 0.390625 
C 13.90625 0.390625 7 6.84375 7 14.6875 
C 7 22.546875 13.09375 29.09375 20 32.1875 
z
" id="CMR17-56"/>
      </defs>
      <use transform="scale(0.996264)" xlink:href="#CMSY10-2"/>
      <use transform="translate(77.487468 0)scale(0.996264)" xlink:href="#CMR17-49"/>
      <use transform="translate(123.177945 0)scale(0.996264)" xlink:href="#CMR17-48"/>
      <use transform="translate(168.868422 36.153639)scale(0.697382)" xlink:href="#CMSY10-0"/>
      <use transform="translate(223.109415 36.153639)scale(0.697382)" xlink:href="#CMR17-49"/>
      <use transform="translate(255.092597 36.153639)scale(0.697382)" xlink:href="#CMR17-56"/>
     </g>
    </g>
   </g>
   <g id="LineCollection_4">
    <path clip-path="url(#p79cca9a682)" d="M 106.849576 411.81021 
L 106.849576 349.975751 
" style="fill:none;stroke:#ff0000;stroke-width:2;"/>
    <path clip-path="url(#p79cca9a682)" d="M 114.064062 505.841245 
L 114.064062 411.059588 
" style="fill:none;stroke:#ff0000;stroke-width:2;"/>
    <path clip-path="url(#p79cca9a682)" d="M 121.278547 376.904207 
L 121.278547 326.047427 
" style="fill:none;stroke:#ff0000;stroke-width:2;"/>
    <path clip-path="url(#p79cca9a682)" d="M 128.493033 412.36415 
L 128.493033 378.836584 
" style="fill:none;stroke:#ff0000;stroke-width:2;"/>
    <path clip-path="url(#p79cca9a682)" d="M 135.707518 447.070924 
L 135.707518 421.646353 
" style="fill:none;stroke:#ff0000;stroke-width:2;"/>
    <path clip-path="url(#p79cca9a682)" d="M 142.922003 401.219317 
L 142.922003 384.029457 
" style="fill:none;stroke:#ff0000;stroke-width:2;"/>
    <path clip-path="url(#p79cca9a682)" d="M 150.136489 405.367173 
L 150.136489 391.955688 
" style="fill:none;stroke:#ff0000;stroke-width:2;"/>
    <path clip-path="url(#p79cca9a682)" d="M 157.350974 402.315376 
L 157.350974 392.737869 
" style="fill:none;stroke:#ff0000;stroke-width:2;"/>
    <path clip-path="url(#p79cca9a682)" d="M 164.56546 403.121865 
L 164.56546 396.15867 
" style="fill:none;stroke:#ff0000;stroke-width:2;"/>
    <path clip-path="url(#p79cca9a682)" d="M 171.779945 403.402178 
L 171.779945 398.614593 
" style="fill:none;stroke:#ff0000;stroke-width:2;"/>
    <path clip-path="url(#p79cca9a682)" d="M 178.994431 404.371497 
L 178.994431 399.762089 
" style="fill:none;stroke:#ff0000;stroke-width:2;"/>
    <path clip-path="url(#p79cca9a682)" d="M 186.208916 400.456171 
L 186.208916 397.732543 
" style="fill:none;stroke:#ff0000;stroke-width:2;"/>
    <path clip-path="url(#p79cca9a682)" d="M 193.423402 400.857737 
L 193.423402 398.515665 
" style="fill:none;stroke:#ff0000;stroke-width:2;"/>
    <path clip-path="url(#p79cca9a682)" d="M 200.637887 398.910333 
L 200.637887 397.367605 
" style="fill:none;stroke:#ff0000;stroke-width:2;"/>
    <path clip-path="url(#p79cca9a682)" d="M 207.852373 398.979122 
L 207.852373 397.654375 
" style="fill:none;stroke:#ff0000;stroke-width:2;"/>
    <path clip-path="url(#p79cca9a682)" d="M 215.066858 400.358372 
L 215.066858 399.003003 
" style="fill:none;stroke:#ff0000;stroke-width:2;"/>
    <path clip-path="url(#p79cca9a682)" d="M 222.281344 399.132026 
L 222.281344 398.027851 
" style="fill:none;stroke:#ff0000;stroke-width:2;"/>
    <path clip-path="url(#p79cca9a682)" d="M 229.495829 399.331103 
L 229.495829 397.957591 
" style="fill:none;stroke:#ff0000;stroke-width:2;"/>
    <path clip-path="url(#p79cca9a682)" d="M 236.710315 398.702238 
L 236.710315 397.132184 
" style="fill:none;stroke:#ff0000;stroke-width:2;"/>
    <path clip-path="url(#p79cca9a682)" d="M 243.9248 400.158445 
L 243.9248 398.292016 
" style="fill:none;stroke:#ff0000;stroke-width:2;"/>
    <path clip-path="url(#p79cca9a682)" d="M 251.139286 398.387124 
L 251.139286 396.062138 
" style="fill:none;stroke:#ff0000;stroke-width:2;"/>
    <path clip-path="url(#p79cca9a682)" d="M 258.353771 400.913101 
L 258.353771 397.308906 
" style="fill:none;stroke:#ff0000;stroke-width:2;"/>
    <path clip-path="url(#p79cca9a682)" d="M 265.568257 397.183227 
L 265.568257 392.299882 
" style="fill:none;stroke:#ff0000;stroke-width:2;"/>
    <path clip-path="url(#p79cca9a682)" d="M 272.782742 403.056091 
L 272.782742 397.262256 
" style="fill:none;stroke:#ff0000;stroke-width:2;"/>
    <path clip-path="url(#p79cca9a682)" d="M 279.997228 399.416367 
L 279.997228 391.934213 
" style="fill:none;stroke:#ff0000;stroke-width:2;"/>
    <path clip-path="url(#p79cca9a682)" d="M 287.211713 403.626147 
L 287.211713 393.155953 
" style="fill:none;stroke:#ff0000;stroke-width:2;"/>
    <path clip-path="url(#p79cca9a682)" d="M 294.426199 410.65486 
L 294.426199 398.503023 
" style="fill:none;stroke:#ff0000;stroke-width:2;"/>
    <path clip-path="url(#p79cca9a682)" d="M 301.640684 408.944969 
L 301.640684 392.584606 
" style="fill:none;stroke:#ff0000;stroke-width:2;"/>
    <path clip-path="url(#p79cca9a682)" d="M 308.85517 411.551395 
L 308.85517 387.61432 
" style="fill:none;stroke:#ff0000;stroke-width:2;"/>
    <path clip-path="url(#p79cca9a682)" d="M 316.069655 435.355849 
L 316.069655 400.579531 
" style="fill:none;stroke:#ff0000;stroke-width:2;"/>
    <path clip-path="url(#p79cca9a682)" d="M 323.284141 456.6555 
L 323.284141 399.49468 
" style="fill:none;stroke:#ff0000;stroke-width:2;"/>
    <path clip-path="url(#p79cca9a682)" d="M 330.498626 437.436596 
L 330.498626 349.359361 
" style="fill:none;stroke:#ff0000;stroke-width:2;"/>
   </g>
   <g id="line2d_41">
    <path clip-path="url(#p79cca9a682)" d="M 106.849576 380.892981 
L 114.064062 458.450416 
L 121.278547 351.475817 
L 128.493033 395.600367 
L 135.707518 434.358638 
L 142.922003 392.624387 
L 150.136489 398.661431 
L 157.350974 397.526623 
L 164.56546 399.640267 
L 171.779945 401.008385 
L 178.994431 402.066793 
L 186.208916 399.094357 
L 193.423402 399.686701 
L 200.637887 398.138969 
L 207.852373 398.316748 
L 215.066858 399.680688 
L 222.281344 398.579938 
L 229.495829 398.644347 
L 236.710315 397.917211 
L 243.9248 399.22523 
L 251.139286 397.224631 
L 258.353771 399.111003 
L 265.568257 394.741555 
L 272.782742 400.159174 
L 279.997228 395.67529 
L 287.211713 398.39105 
L 294.426199 404.578942 
L 301.640684 400.764788 
L 308.85517 399.582858 
L 316.069655 417.96769 
L 323.284141 428.07509 
L 330.498626 393.397978 
" style="fill:none;stroke:#000000;stroke-linecap:square;stroke-width:2;"/>
   </g>
   <g id="patch_18">
    <path d="M 95.667124 514.830936 
L 95.667124 317.057736 
" style="fill:none;stroke:#000000;stroke-linecap:square;stroke-linejoin:miter;stroke-width:0.8;"/>
   </g>
   <g id="patch_19">
    <path d="M 341.681079 514.830936 
L 341.681079 317.057736 
" style="fill:none;stroke:#000000;stroke-linecap:square;stroke-linejoin:miter;stroke-width:0.8;"/>
   </g>
   <g id="patch_20">
    <path d="M 95.667124 514.830936 
L 341.681079 514.830936 
" style="fill:none;stroke:#000000;stroke-linecap:square;stroke-linejoin:miter;stroke-width:0.8;"/>
   </g>
   <g id="patch_21">
    <path d="M 95.667124 317.057736 
L 341.681079 317.057736 
" style="fill:none;stroke:#000000;stroke-linecap:square;stroke-linejoin:miter;stroke-width:0.8;"/>
   </g>
  </g>
  <g id="axes_5">
   <g id="patch_22">
    <path d="M 408.826584 514.830936 
L 654.840539 514.830936 
L 654.840539 317.057736 
L 408.826584 317.057736 
z
" style="fill:#ffffff;"/>
   </g>
   <g id="matplotlib.axis_9">
    <g id="xtick_17">
     <g id="line2d_42">
      <g>
       <use style="stroke:#000000;stroke-width:0.8;" x="420.009037" xlink:href="#m62efb5e4f9" y="514.830936"/>
      </g>
     </g>
     <g id="text_44">
      <!-- $\mathdefault{0}$ -->
      <g transform="translate(416.107043 532.900524)scale(0.16 -0.16)">
       <use transform="scale(0.996264)" xlink:href="#CMR17-48"/>
      </g>
     </g>
    </g>
    <g id="xtick_18">
     <g id="line2d_43">
      <g>
       <use style="stroke:#000000;stroke-width:0.8;" x="489.899365" xlink:href="#m62efb5e4f9" y="514.830936"/>
      </g>
     </g>
     <g id="text_45">
      <!-- $\mathdefault{5}$ -->
      <g transform="translate(485.997371 532.900524)scale(0.16 -0.16)">
       <use transform="scale(0.996264)" xlink:href="#CMR17-53"/>
      </g>
     </g>
    </g>
    <g id="xtick_19">
     <g id="line2d_44">
      <g>
       <use style="stroke:#000000;stroke-width:0.8;" x="559.789693" xlink:href="#m62efb5e4f9" y="514.830936"/>
      </g>
     </g>
     <g id="text_46">
      <!-- $\mathdefault{10}$ -->
      <g transform="translate(551.985706 532.900524)scale(0.16 -0.16)">
       <use transform="scale(0.996264)" xlink:href="#CMR17-49"/>
       <use transform="translate(45.690477 0)scale(0.996264)" xlink:href="#CMR17-48"/>
      </g>
     </g>
    </g>
    <g id="xtick_20">
     <g id="line2d_45">
      <g>
       <use style="stroke:#000000;stroke-width:0.8;" x="629.680021" xlink:href="#m62efb5e4f9" y="514.830936"/>
      </g>
     </g>
     <g id="text_47">
      <!-- $\mathdefault{15}$ -->
      <g transform="translate(621.876034 532.900524)scale(0.16 -0.16)">
       <use transform="scale(0.996264)" xlink:href="#CMR17-49"/>
       <use transform="translate(45.690477 0)scale(0.996264)" xlink:href="#CMR17-53"/>
      </g>
     </g>
    </g>
   </g>
   <g id="matplotlib.axis_10">
    <g id="ytick_22">
     <g id="line2d_46">
      <g>
       <use style="stroke:#000000;stroke-width:0.8;" x="408.826584" xlink:href="#m45d7274aad" y="473.585241"/>
      </g>
     </g>
     <g id="text_48">
      <!-- $\mathdefault{−2}$ -->
      <g transform="translate(381.624601 479.120035)scale(0.16 -0.16)">
       <use transform="scale(0.996264)" xlink:href="#CMSY10-0"/>
       <use transform="translate(77.487468 0)scale(0.996264)" xlink:href="#CMR17-50"/>
      </g>
     </g>
    </g>
    <g id="ytick_23">
     <g id="line2d_47">
      <g>
       <use style="stroke:#000000;stroke-width:0.8;" x="408.826584" xlink:href="#m45d7274aad" y="407.852691"/>
      </g>
     </g>
     <g id="text_49">
      <!-- $\mathdefault{0}$ -->
      <g transform="translate(394.022597 413.387485)scale(0.16 -0.16)">
       <use transform="scale(0.996264)" xlink:href="#CMR17-48"/>
      </g>
     </g>
    </g>
    <g id="ytick_24">
     <g id="line2d_48">
      <g>
       <use style="stroke:#000000;stroke-width:0.8;" x="408.826584" xlink:href="#m45d7274aad" y="342.12014"/>
      </g>
     </g>
     <g id="text_50">
      <!-- $\mathdefault{2}$ -->
      <g transform="translate(394.022597 347.654934)scale(0.16 -0.16)">
       <use transform="scale(0.996264)" xlink:href="#CMR17-50"/>
      </g>
     </g>
    </g>
    <g id="text_51">
     <!-- $\times\mathdefault{10^{−18}}\mathdefault{}$ -->
     <g transform="translate(408.826584 314.057736)scale(0.16 -0.16)">
      <use transform="scale(0.996264)" xlink:href="#CMSY10-2"/>
      <use transform="translate(77.487468 0)scale(0.996264)" xlink:href="#CMR17-49"/>
      <use transform="translate(123.177945 0)scale(0.996264)" xlink:href="#CMR17-48"/>
      <use transform="translate(168.868422 36.153639)scale(0.697382)" xlink:href="#CMSY10-0"/>
      <use transform="translate(223.109415 36.153639)scale(0.697382)" xlink:href="#CMR17-49"/>
      <use transform="translate(255.092597 36.153639)scale(0.697382)" xlink:href="#CMR17-56"/>
     </g>
    </g>
   </g>
   <g id="LineCollection_5">
    <path clip-path="url(#pe2002b447a)" d="M 420.009037 430.0292 
L 420.009037 326.047427 
" style="fill:none;stroke:#ff0000;stroke-width:2;"/>
    <path clip-path="url(#pe2002b447a)" d="M 433.987102 505.841245 
L 433.987102 401.68575 
" style="fill:none;stroke:#ff0000;stroke-width:2;"/>
    <path clip-path="url(#pe2002b447a)" d="M 447.965168 423.665918 
L 447.965168 362.284514 
" style="fill:none;stroke:#ff0000;stroke-width:2;"/>
    <path clip-path="url(#pe2002b447a)" d="M 461.943234 442.188463 
L 461.943234 400.96573 
" style="fill:none;stroke:#ff0000;stroke-width:2;"/>
    <path clip-path="url(#pe2002b447a)" d="M 475.921299 453.154119 
L 475.921299 424.26036 
" style="fill:none;stroke:#ff0000;stroke-width:2;"/>
    <path clip-path="url(#pe2002b447a)" d="M 489.899365 414.246979 
L 489.899365 394.974095 
" style="fill:none;stroke:#ff0000;stroke-width:2;"/>
    <path clip-path="url(#pe2002b447a)" d="M 503.87743 421.142882 
L 503.87743 404.644117 
" style="fill:none;stroke:#ff0000;stroke-width:2;"/>
    <path clip-path="url(#pe2002b447a)" d="M 517.855496 412.344 
L 517.855496 401.129036 
" style="fill:none;stroke:#ff0000;stroke-width:2;"/>
    <path clip-path="url(#pe2002b447a)" d="M 531.833562 410.273046 
L 531.833562 402.187462 
" style="fill:none;stroke:#ff0000;stroke-width:2;"/>
    <path clip-path="url(#pe2002b447a)" d="M 545.811627 414.21148 
L 545.811627 408.089845 
" style="fill:none;stroke:#ff0000;stroke-width:2;"/>
    <path clip-path="url(#pe2002b447a)" d="M 559.789693 410.371331 
L 559.789693 404.599477 
" style="fill:none;stroke:#ff0000;stroke-width:2;"/>
    <path clip-path="url(#pe2002b447a)" d="M 573.767759 410.559706 
L 573.767759 406.76034 
" style="fill:none;stroke:#ff0000;stroke-width:2;"/>
    <path clip-path="url(#pe2002b447a)" d="M 587.745824 408.949139 
L 587.745824 406.194849 
" style="fill:none;stroke:#ff0000;stroke-width:2;"/>
    <path clip-path="url(#pe2002b447a)" d="M 601.72389 408.976161 
L 601.72389 406.929376 
" style="fill:none;stroke:#ff0000;stroke-width:2;"/>
    <path clip-path="url(#pe2002b447a)" d="M 615.701956 407.911215 
L 615.701956 406.093694 
" style="fill:none;stroke:#ff0000;stroke-width:2;"/>
    <path clip-path="url(#pe2002b447a)" d="M 629.680021 409.618863 
L 629.680021 407.902429 
" style="fill:none;stroke:#ff0000;stroke-width:2;"/>
    <path clip-path="url(#pe2002b447a)" d="M 643.658087 408.709371 
L 643.658087 406.852574 
" style="fill:none;stroke:#ff0000;stroke-width:2;"/>
   </g>
   <g id="line2d_49">
    <path clip-path="url(#pe2002b447a)" d="M 420.009037 378.038314 
L 433.987102 453.763497 
L 447.965168 392.975216 
L 461.943234 421.577096 
L 475.921299 438.707239 
L 489.899365 404.610537 
L 503.87743 412.893499 
L 517.855496 406.736518 
L 531.833562 406.230254 
L 545.811627 411.150662 
L 559.789693 407.485404 
L 573.767759 408.660023 
L 587.745824 407.571994 
L 601.72389 407.952769 
L 615.701956 407.002454 
L 629.680021 408.760646 
L 643.658087 407.780972 
" style="fill:none;stroke:#000000;stroke-linecap:square;stroke-width:2;"/>
   </g>
   <g id="patch_23">
    <path d="M 408.826584 514.830936 
L 408.826584 317.057736 
" style="fill:none;stroke:#000000;stroke-linecap:square;stroke-linejoin:miter;stroke-width:0.8;"/>
   </g>
   <g id="patch_24">
    <path d="M 654.840539 514.830936 
L 654.840539 317.057736 
" style="fill:none;stroke:#000000;stroke-linecap:square;stroke-linejoin:miter;stroke-width:0.8;"/>
   </g>
   <g id="patch_25">
    <path d="M 408.826584 514.830936 
L 654.840539 514.830936 
" style="fill:none;stroke:#000000;stroke-linecap:square;stroke-linejoin:miter;stroke-width:0.8;"/>
   </g>
   <g id="patch_26">
    <path d="M 408.826584 317.057736 
L 654.840539 317.057736 
" style="fill:none;stroke:#000000;stroke-linecap:square;stroke-linejoin:miter;stroke-width:0.8;"/>
   </g>
  </g>
  <g id="axes_6">
   <g id="patch_27">
    <path d="M 721.986045 514.830936 
L 968 514.830936 
L 968 317.057736 
L 721.986045 317.057736 
z
" style="fill:#ffffff;"/>
   </g>
   <g id="matplotlib.axis_11">
    <g id="xtick_21">
     <g id="line2d_50">
      <g>
       <use style="stroke:#000000;stroke-width:0.8;" x="733.168497" xlink:href="#m62efb5e4f9" y="514.830936"/>
      </g>
     </g>
     <g id="text_52">
      <!-- $\mathdefault{0}$ -->
      <g transform="translate(729.266504 532.900524)scale(0.16 -0.16)">
       <use transform="scale(0.996264)" xlink:href="#CMR17-48"/>
      </g>
     </g>
    </g>
    <g id="xtick_22">
     <g id="line2d_51">
      <g>
       <use style="stroke:#000000;stroke-width:0.8;" x="803.058825" xlink:href="#m62efb5e4f9" y="514.830936"/>
      </g>
     </g>
     <g id="text_53">
      <!-- $\mathdefault{5}$ -->
      <g transform="translate(799.156832 532.900524)scale(0.16 -0.16)">
       <use transform="scale(0.996264)" xlink:href="#CMR17-53"/>
      </g>
     </g>
    </g>
    <g id="xtick_23">
     <g id="line2d_52">
      <g>
       <use style="stroke:#000000;stroke-width:0.8;" x="872.949154" xlink:href="#m62efb5e4f9" y="514.830936"/>
      </g>
     </g>
     <g id="text_54">
      <!-- $\mathdefault{10}$ -->
      <g transform="translate(865.145167 532.900524)scale(0.16 -0.16)">
       <use transform="scale(0.996264)" xlink:href="#CMR17-49"/>
       <use transform="translate(45.690477 0)scale(0.996264)" xlink:href="#CMR17-48"/>
      </g>
     </g>
    </g>
    <g id="xtick_24">
     <g id="line2d_53">
      <g>
       <use style="stroke:#000000;stroke-width:0.8;" x="942.839482" xlink:href="#m62efb5e4f9" y="514.830936"/>
      </g>
     </g>
     <g id="text_55">
      <!-- $\mathdefault{15}$ -->
      <g transform="translate(935.035495 532.900524)scale(0.16 -0.16)">
       <use transform="scale(0.996264)" xlink:href="#CMR17-49"/>
       <use transform="translate(45.690477 0)scale(0.996264)" xlink:href="#CMR17-53"/>
      </g>
     </g>
    </g>
   </g>
   <g id="matplotlib.axis_12">
    <g id="ytick_25">
     <g id="line2d_54">
      <g>
       <use style="stroke:#000000;stroke-width:0.8;" x="721.986045" xlink:href="#m45d7274aad" y="466.684416"/>
      </g>
     </g>
     <g id="text_56">
      <!-- $\mathdefault{−2}$ -->
      <g transform="translate(694.784062 472.21921)scale(0.16 -0.16)">
       <use transform="scale(0.996264)" xlink:href="#CMSY10-0"/>
       <use transform="translate(77.487468 0)scale(0.996264)" xlink:href="#CMR17-50"/>
      </g>
     </g>
    </g>
    <g id="ytick_26">
     <g id="line2d_55">
      <g>
       <use style="stroke:#000000;stroke-width:0.8;" x="721.986045" xlink:href="#m45d7274aad" y="410.216986"/>
      </g>
     </g>
     <g id="text_57">
      <!-- $\mathdefault{0}$ -->
      <g transform="translate(707.182058 415.75178)scale(0.16 -0.16)">
       <use transform="scale(0.996264)" xlink:href="#CMR17-48"/>
      </g>
     </g>
    </g>
    <g id="ytick_27">
     <g id="line2d_56">
      <g>
       <use style="stroke:#000000;stroke-width:0.8;" x="721.986045" xlink:href="#m45d7274aad" y="353.749556"/>
      </g>
     </g>
     <g id="text_58">
      <!-- $\mathdefault{2}$ -->
      <g transform="translate(707.182058 359.28435)scale(0.16 -0.16)">
       <use transform="scale(0.996264)" xlink:href="#CMR17-50"/>
      </g>
     </g>
    </g>
    <g id="text_59">
     <!-- $\times\mathdefault{10^{−18}}\mathdefault{}$ -->
     <g transform="translate(721.986045 314.057736)scale(0.16 -0.16)">
      <use transform="scale(0.996264)" xlink:href="#CMSY10-2"/>
      <use transform="translate(77.487468 0)scale(0.996264)" xlink:href="#CMR17-49"/>
      <use transform="translate(123.177945 0)scale(0.996264)" xlink:href="#CMR17-48"/>
      <use transform="translate(168.868422 36.153639)scale(0.697382)" xlink:href="#CMSY10-0"/>
      <use transform="translate(223.109415 36.153639)scale(0.697382)" xlink:href="#CMR17-49"/>
      <use transform="translate(255.092597 36.153639)scale(0.697382)" xlink:href="#CMR17-56"/>
     </g>
    </g>
   </g>
   <g id="LineCollection_6">
    <path clip-path="url(#pc178764d4b)" d="M 733.168497 410.216986 
L 733.168497 410.216986 
" style="fill:none;stroke:#ff0000;stroke-width:2;"/>
    <path clip-path="url(#pc178764d4b)" d="M 747.146563 505.841245 
L 747.146563 408.56674 
" style="fill:none;stroke:#ff0000;stroke-width:2;"/>
    <path clip-path="url(#pc178764d4b)" d="M 761.124629 383.732106 
L 761.124629 326.047427 
" style="fill:none;stroke:#ff0000;stroke-width:2;"/>
    <path clip-path="url(#pc178764d4b)" d="M 775.102694 411.24239 
L 775.102694 376.880002 
" style="fill:none;stroke:#ff0000;stroke-width:2;"/>
    <path clip-path="url(#pc178764d4b)" d="M 789.08076 448.143999 
L 789.08076 422.52667 
" style="fill:none;stroke:#ff0000;stroke-width:2;"/>
    <path clip-path="url(#pc178764d4b)" d="M 803.058825 413.190066 
L 803.058825 395.484375 
" style="fill:none;stroke:#ff0000;stroke-width:2;"/>
    <path clip-path="url(#pc178764d4b)" d="M 817.036891 411.877351 
L 817.036891 400.008252 
" style="fill:none;stroke:#ff0000;stroke-width:2;"/>
    <path clip-path="url(#pc178764d4b)" d="M 831.014957 415.00737 
L 831.014957 404.17786 
" style="fill:none;stroke:#ff0000;stroke-width:2;"/>
    <path clip-path="url(#pc178764d4b)" d="M 844.993022 416.978267 
L 844.993022 409.183466 
" style="fill:none;stroke:#ff0000;stroke-width:2;"/>
    <path clip-path="url(#pc178764d4b)" d="M 858.971088 413.627124 
L 858.971088 408.03361 
" style="fill:none;stroke:#ff0000;stroke-width:2;"/>
    <path clip-path="url(#pc178764d4b)" d="M 872.949154 417.877924 
L 872.949154 413.138004 
" style="fill:none;stroke:#ff0000;stroke-width:2;"/>
    <path clip-path="url(#pc178764d4b)" d="M 886.927219 411.836053 
L 886.927219 408.573873 
" style="fill:none;stroke:#ff0000;stroke-width:2;"/>
    <path clip-path="url(#pc178764d4b)" d="M 900.905285 413.195892 
L 900.905285 410.794759 
" style="fill:none;stroke:#ff0000;stroke-width:2;"/>
    <path clip-path="url(#pc178764d4b)" d="M 914.883351 410.302239 
L 914.883351 408.562532 
" style="fill:none;stroke:#ff0000;stroke-width:2;"/>
    <path clip-path="url(#pc178764d4b)" d="M 928.861416 411.206546 
L 928.861416 409.804593 
" style="fill:none;stroke:#ff0000;stroke-width:2;"/>
    <path clip-path="url(#pc178764d4b)" d="M 942.839482 411.61957 
L 942.839482 410.311488 
" style="fill:none;stroke:#ff0000;stroke-width:2;"/>
    <path clip-path="url(#pc178764d4b)" d="M 956.817547 410.216986 
L 956.817547 410.216986 
" style="fill:none;stroke:#ff0000;stroke-width:2;"/>
   </g>
   <g id="line2d_57">
    <path clip-path="url(#pc178764d4b)" d="M 733.168497 410.216986 
L 747.146563 457.203992 
L 761.124629 354.889767 
L 775.102694 394.061196 
L 789.08076 435.335335 
L 803.058825 404.337221 
L 817.036891 405.942802 
L 831.014957 409.592615 
L 844.993022 413.080867 
L 858.971088 410.830367 
L 872.949154 415.507964 
L 886.927219 410.204963 
L 900.905285 411.995326 
L 914.883351 409.432386 
L 928.861416 410.505569 
L 942.839482 410.965529 
L 956.817547 410.216986 
" style="fill:none;stroke:#000000;stroke-linecap:square;stroke-width:2;"/>
   </g>
   <g id="patch_28">
    <path d="M 721.986045 514.830936 
L 721.986045 317.057736 
" style="fill:none;stroke:#000000;stroke-linecap:square;stroke-linejoin:miter;stroke-width:0.8;"/>
   </g>
   <g id="patch_29">
    <path d="M 968 514.830936 
L 968 317.057736 
" style="fill:none;stroke:#000000;stroke-linecap:square;stroke-linejoin:miter;stroke-width:0.8;"/>
   </g>
   <g id="patch_30">
    <path d="M 721.986045 514.830936 
L 968 514.830936 
" style="fill:none;stroke:#000000;stroke-linecap:square;stroke-linejoin:miter;stroke-width:0.8;"/>
   </g>
   <g id="patch_31">
    <path d="M 721.986045 317.057736 
L 968 317.057736 
" style="fill:none;stroke:#000000;stroke-linecap:square;stroke-linejoin:miter;stroke-width:0.8;"/>
   </g>
  </g>
 </g>
 <defs>
  <clipPath id="p465ce3aa84">
   <rect height="197.773199" width="246.013955" x="95.667124" y="63.911226"/>
  </clipPath>
  <clipPath id="p5b044cf735">
   <rect height="197.773199" width="246.013955" x="408.826584" y="63.911226"/>
  </clipPath>
  <clipPath id="p4a3dbfc79a">
   <rect height="197.773199" width="246.013955" x="721.986045" y="63.911226"/>
  </clipPath>
  <clipPath id="p79cca9a682">
   <rect height="197.773199" width="246.013955" x="95.667124" y="317.057736"/>
  </clipPath>
  <clipPath id="pe2002b447a">
   <rect height="197.773199" width="246.013955" x="408.826584" y="317.057736"/>
  </clipPath>
  <clipPath id="pc178764d4b">
   <rect height="197.773199" width="246.013955" x="721.986045" y="317.057736"/>
  </clipPath>
 </defs>
</svg>
