<?xml version="1.0" encoding="utf-8" standalone="no"?>
<!DOCTYPE svg PUBLIC "-//W3C//DTD SVG 1.1//EN"
  "http://www.w3.org/Graphics/SVG/1.1/DTD/svg11.dtd">
<!-- Created with matplotlib (https://matplotlib.org/) -->
<svg height="576pt" version="1.1" viewBox="0 0 1008 576" width="1008pt" xmlns="http://www.w3.org/2000/svg" xmlns:xlink="http://www.w3.org/1999/xlink">
 <metadata>
  <rdf:RDF xmlns:cc="http://creativecommons.org/ns#" xmlns:dc="http://purl.org/dc/elements/1.1/" xmlns:rdf="http://www.w3.org/1999/02/22-rdf-syntax-ns#">
   <cc:Work>
    <dc:type rdf:resource="http://purl.org/dc/dcmitype/StillImage"/>
    <dc:date>2022-10-25T17:05:58.383217</dc:date>
    <dc:format>image/svg+xml</dc:format>
    <dc:creator>
     <cc:Agent>
      <dc:title>Matplotlib v3.3.4, https://matplotlib.org/</dc:title>
     </cc:Agent>
    </dc:creator>
   </cc:Work>
  </rdf:RDF>
 </metadata>
 <defs>
  <style type="text/css">*{stroke-linecap:butt;stroke-linejoin:round;}</style>
 </defs>
 <g id="figure_1">
  <g id="patch_1">
   <path d="M 0 576 
L 1008 576 
L 1008 0 
L 0 0 
z
" style="fill:#ffffff;"/>
  </g>
  <g id="axes_1">
   <g id="patch_2">
    <path d="M 92.457146 261.684426 
L 334.338435 261.684426 
L 334.338435 63.911226 
L 92.457146 63.911226 
z
" style="fill:#ffffff;"/>
   </g>
   <g id="matplotlib.axis_1">
    <g id="xtick_1">
     <g id="line2d_1">
      <defs>
       <path d="M 0 0 
L 0 3.5 
" id="m71eb6fd22a" style="stroke:#000000;stroke-width:0.8;"/>
      </defs>
      <g>
       <use style="stroke:#000000;stroke-width:0.8;" x="103.45175" xlink:href="#m71eb6fd22a" y="261.684426"/>
      </g>
     </g>
     <g id="text_1">
      <!-- $\mathdefault{0}$ -->
      <g transform="translate(99.549756 279.754014)scale(0.16 -0.16)">
       <defs>
        <path d="M 42 31.640625 
C 42 37.75 41.90625 48.125 37.703125 56.109375 
C 34 63.109375 28.09375 65.59375 22.90625 65.59375 
C 18.09375 65.59375 12 63.40625 8.203125 56.203125 
C 4.203125 48.71875 3.796875 39.4375 3.796875 31.640625 
C 3.796875 25.953125 3.90625 17.28125 7 9.671875 
C 11.296875 -0.609375 19 -2 22.90625 -2 
C 27.5 -2 34.5 -0.109375 38.59375 9.375 
C 41.59375 16.28125 42 24.359375 42 31.640625 
z
M 22.90625 -0.40625 
C 16.5 -0.40625 12.703125 5.078125 11.296875 12.6875 
C 10.203125 18.5625 10.203125 27.15625 10.203125 32.75 
C 10.203125 40.4375 10.203125 46.828125 11.5 52.921875 
C 13.40625 61.390625 19 64 22.90625 64 
C 27 64 32.296875 61.296875 34.203125 53.125 
C 35.5 47.4375 35.59375 40.734375 35.59375 32.75 
C 35.59375 26.25 35.59375 18.265625 34.40625 12.375 
C 32.296875 1.484375 26.40625 -0.40625 22.90625 -0.40625 
z
" id="CMR17-48"/>
       </defs>
       <use transform="scale(0.996264)" xlink:href="#CMR17-48"/>
      </g>
     </g>
    </g>
    <g id="xtick_2">
     <g id="line2d_2">
      <g>
       <use style="stroke:#000000;stroke-width:0.8;" x="174.384679" xlink:href="#m71eb6fd22a" y="261.684426"/>
      </g>
     </g>
     <g id="text_2">
      <!-- $\mathdefault{10}$ -->
      <g transform="translate(166.580692 279.754014)scale(0.16 -0.16)">
       <defs>
        <path d="M 26.59375 63.40625 
C 26.59375 65.5 26.5 65.5 25.09375 65.5 
C 21.203125 61.1875 15.296875 59.796875 9.703125 59.796875 
C 9.40625 59.796875 8.90625 59.796875 8.796875 59.5 
C 8.703125 59.296875 8.703125 59.09375 8.703125 57 
C 11.796875 57 17 57.59375 21 59.984375 
L 21 7.203125 
C 21 3.6875 20.796875 2.5 12.203125 2.5 
L 9.203125 2.5 
L 9.203125 0 
C 14 0 19 0 23.796875 0 
C 28.59375 0 33.59375 0 38.40625 0 
L 38.40625 2.5 
L 35.40625 2.5 
C 26.796875 2.5 26.59375 3.59375 26.59375 7.15625 
z
" id="CMR17-49"/>
       </defs>
       <use transform="scale(0.996264)" xlink:href="#CMR17-49"/>
       <use transform="translate(45.690477 0)scale(0.996264)" xlink:href="#CMR17-48"/>
      </g>
     </g>
    </g>
    <g id="xtick_3">
     <g id="line2d_3">
      <g>
       <use style="stroke:#000000;stroke-width:0.8;" x="245.317609" xlink:href="#m71eb6fd22a" y="261.684426"/>
      </g>
     </g>
     <g id="text_3">
      <!-- $\mathdefault{20}$ -->
      <g transform="translate(237.513622 279.754014)scale(0.16 -0.16)">
       <defs>
        <path d="M 41.703125 15.453125 
L 39.90625 15.453125 
C 38.90625 8.375 38.09375 7.171875 37.703125 6.5625 
C 37.203125 5.765625 30 5.765625 28.59375 5.765625 
L 9.40625 5.765625 
C 13 9.671875 20 16.75 28.5 24.953125 
C 34.59375 30.734375 41.703125 37.53125 41.703125 47.421875 
C 41.703125 59.21875 32.296875 66 21.796875 66 
C 10.796875 66 4.09375 56.3125 4.09375 47.34375 
C 4.09375 43.4375 7 42.9375 8.203125 42.9375 
C 9.203125 42.9375 12.203125 43.546875 12.203125 47.03125 
C 12.203125 50.109375 9.59375 51 8.203125 51 
C 7.59375 51 7 50.90625 6.59375 50.703125 
C 8.5 59.21875 14.296875 63.40625 20.40625 63.40625 
C 29.09375 63.40625 34.796875 56.515625 34.796875 47.421875 
C 34.796875 38.734375 29.703125 31.25 24 24.75 
L 4.09375 2.28125 
L 4.09375 0 
L 39.296875 0 
z
" id="CMR17-50"/>
       </defs>
       <use transform="scale(0.996264)" xlink:href="#CMR17-50"/>
       <use transform="translate(45.690477 0)scale(0.996264)" xlink:href="#CMR17-48"/>
      </g>
     </g>
    </g>
    <g id="xtick_4">
     <g id="line2d_4">
      <g>
       <use style="stroke:#000000;stroke-width:0.8;" x="316.250538" xlink:href="#m71eb6fd22a" y="261.684426"/>
      </g>
     </g>
     <g id="text_4">
      <!-- $\mathdefault{30}$ -->
      <g transform="translate(308.446551 279.754014)scale(0.16 -0.16)">
       <defs>
        <path d="M 22.09375 33.703125 
C 31 33.703125 34.90625 25.96875 34.90625 17.03125 
C 34.90625 5 28.5 0.390625 22.703125 0.390625 
C 17.40625 0.390625 8.796875 3.03125 6.09375 10.828125 
C 6.59375 10.625 7.09375 10.625 7.59375 10.625 
C 10 10.625 11.796875 12.21875 11.796875 14.8125 
C 11.796875 17.703125 9.59375 19 7.59375 19 
C 5.90625 19 3.296875 18.203125 3.296875 14.46875 
C 3.296875 5.234375 12.296875 -2 22.90625 -2 
C 34 -2 42.5 6.71875 42.5 16.953125 
C 42.5 26.671875 34.5 33.703125 25 34.796875 
C 32.59375 36.375 39.90625 43.0625 39.90625 52.015625 
C 39.90625 59.6875 32 65.296875 23 65.296875 
C 13.90625 65.296875 5.90625 59.828125 5.90625 52.015625 
C 5.90625 48.59375 8.5 48 9.796875 48 
C 11.90625 48 13.703125 49.296875 13.703125 51.890625 
C 13.703125 54.46875 11.90625 55.765625 9.796875 55.765625 
C 9.40625 55.765625 8.90625 55.765625 8.5 55.578125 
C 11.40625 61.859375 19.296875 63 22.796875 63 
C 26.296875 63 32.90625 61.328125 32.90625 51.875 
C 32.90625 49.109375 32.5 44.1875 29.09375 39.84375 
C 26.09375 36 22.703125 36 19.40625 35.6875 
C 18.90625 35.6875 16.59375 35.453125 16.203125 35.453125 
C 15.5 35.359375 15.09375 35.265625 15.09375 34.5 
C 15.09375 33.796875 15.203125 33.703125 17.203125 33.703125 
z
" id="CMR17-51"/>
       </defs>
       <use transform="scale(0.996264)" xlink:href="#CMR17-51"/>
       <use transform="translate(45.690477 0)scale(0.996264)" xlink:href="#CMR17-48"/>
      </g>
     </g>
    </g>
   </g>
   <g id="matplotlib.axis_2">
    <g id="ytick_1">
     <g id="line2d_5">
      <defs>
       <path d="M 0 0 
L -3.5 0 
" id="md505d3dae2" style="stroke:#000000;stroke-width:0.8;"/>
      </defs>
      <g>
       <use style="stroke:#000000;stroke-width:0.8;" x="92.457146" xlink:href="#md505d3dae2" y="253.673401"/>
      </g>
     </g>
     <g id="text_5">
      <!-- $\mathdefault{0}$ -->
      <g transform="translate(77.653159 259.208195)scale(0.16 -0.16)">
       <use transform="scale(0.996264)" xlink:href="#CMR17-48"/>
      </g>
     </g>
    </g>
    <g id="ytick_2">
     <g id="line2d_6">
      <g>
       <use style="stroke:#000000;stroke-width:0.8;" x="92.457146" xlink:href="#md505d3dae2" y="215.025241"/>
      </g>
     </g>
     <g id="text_6">
      <!-- $\mathdefault{5}$ -->
      <g transform="translate(77.653159 220.560035)scale(0.16 -0.16)">
       <defs>
        <path d="M 11.40625 57.6875 
C 12.40625 57.28125 16.5 56 20.703125 56 
C 30 56 35.09375 61.109375 38 64.0625 
C 38 64.953125 38 65.5 37.40625 65.5 
C 37.296875 65.5 37.09375 65.5 36.296875 65.046875 
C 32.796875 63.40625 28.703125 62.078125 23.703125 62.078125 
C 20.703125 62.078125 16.203125 62.484375 11.296875 64.671875 
C 10.203125 65.171875 10 65.171875 9.90625 65.171875 
C 9.40625 65.171875 9.296875 65.0625 9.296875 63.078125 
L 9.296875 34.421875 
C 9.296875 32.640625 9.296875 32.140625 10.296875 32.140625 
C 10.796875 32.140625 11 32.34375 11.5 33.03125 
C 14.703125 37.515625 19.09375 39.40625 24.09375 39.40625 
C 27.59375 39.40625 35.09375 37.21875 35.09375 20.140625 
C 35.09375 16.953125 35.09375 11.171875 32.09375 6.578125 
C 29.59375 2.484375 25.703125 0.390625 21.40625 0.390625 
C 14.796875 0.390625 8.09375 5 6.296875 12.71875 
C 6.703125 12.609375 7.5 12.421875 7.90625 12.421875 
C 9.203125 12.421875 11.703125 13.125 11.703125 16.21875 
C 11.703125 18.90625 9.796875 20 7.90625 20 
C 5.59375 20 4.09375 18.59375 4.09375 15.796875 
C 4.09375 7.09375 11 -2 21.59375 -2 
C 31.90625 -2 41.703125 6.875 41.703125 19.75 
C 41.703125 31.71875 33.90625 41 24.203125 41 
C 19.09375 41 14.796875 39.109375 11.40625 35.53125 
z
" id="CMR17-53"/>
       </defs>
       <use transform="scale(0.996264)" xlink:href="#CMR17-53"/>
      </g>
     </g>
    </g>
    <g id="ytick_3">
     <g id="line2d_7">
      <g>
       <use style="stroke:#000000;stroke-width:0.8;" x="92.457146" xlink:href="#md505d3dae2" y="176.377081"/>
      </g>
     </g>
     <g id="text_7">
      <!-- $\mathdefault{10}$ -->
      <g transform="translate(69.849172 181.911875)scale(0.16 -0.16)">
       <use transform="scale(0.996264)" xlink:href="#CMR17-49"/>
       <use transform="translate(45.690477 0)scale(0.996264)" xlink:href="#CMR17-48"/>
      </g>
     </g>
    </g>
    <g id="ytick_4">
     <g id="line2d_8">
      <g>
       <use style="stroke:#000000;stroke-width:0.8;" x="92.457146" xlink:href="#md505d3dae2" y="137.728921"/>
      </g>
     </g>
     <g id="text_8">
      <!-- $\mathdefault{15}$ -->
      <g transform="translate(69.849172 143.263715)scale(0.16 -0.16)">
       <use transform="scale(0.996264)" xlink:href="#CMR17-49"/>
       <use transform="translate(45.690477 0)scale(0.996264)" xlink:href="#CMR17-53"/>
      </g>
     </g>
    </g>
    <g id="ytick_5">
     <g id="line2d_9">
      <g>
       <use style="stroke:#000000;stroke-width:0.8;" x="92.457146" xlink:href="#md505d3dae2" y="99.080761"/>
      </g>
     </g>
     <g id="text_9">
      <!-- $\mathdefault{20}$ -->
      <g transform="translate(69.849172 104.615555)scale(0.16 -0.16)">
       <use transform="scale(0.996264)" xlink:href="#CMR17-50"/>
       <use transform="translate(45.690477 0)scale(0.996264)" xlink:href="#CMR17-48"/>
      </g>
     </g>
    </g>
    <g id="text_10">
     <!-- Real -->
     <g transform="translate(61.198414 184.258418)rotate(-90)scale(0.24 -0.24)">
      <defs>
       <path d="M 39.203125 33.53125 
C 48.703125 35.4375 56.703125 41.8125 56.703125 49.78125 
C 56.703125 59.140625 46.09375 67.59375 32.09375 67.59375 
L 5.203125 67.59375 
L 5.203125 65 
C 12.09375 65 13.203125 65 13.203125 60.515625 
L 13.203125 6.484375 
C 13.203125 2 12.09375 2 5.203125 2 
L 5.203125 -0.40625 
C 8.09375 -0.40625 13.296875 -0.40625 16.40625 -0.40625 
C 19.5 -0.40625 24.703125 -0.40625 27.59375 -0.40625 
L 27.59375 2 
C 20.703125 2 19.59375 2 19.59375 6.515625 
L 19.59375 33 
L 31.296875 33 
C 37 33 40.203125 30.6875 41.59375 29.390625 
C 45.59375 25.5 45.59375 22.796875 45.59375 16 
C 45.59375 9.296875 45.59375 5.890625 48.59375 2.5 
C 52.40625 -1.59375 57.5 -2 59.703125 -2 
C 67.09375 -2 68.203125 6.1875 68.203125 7.859375 
C 68.203125 8.4375 68.203125 9.140625 67.296875 9.140625 
C 66.5 9.140625 66.40625 8.546875 66.40625 8.15625 
C 65.90625 1.75 63 -0.40625 59.90625 -0.40625 
C 54.40625 -0.40625 53.796875 5.859375 53.203125 11.9375 
C 52.90625 14.03125 52.703125 15.515625 52.5 17.703125 
C 51.90625 22.6875 51.09375 29.953125 39.203125 33.53125 
z
M 31 34.59375 
L 19.59375 34.59375 
L 19.59375 61.140625 
C 19.59375 64.515625 19.796875 65 23.796875 65 
L 31.09375 65 
C 39.40625 65 49.09375 62.140625 49.09375 49.84375 
C 49.09375 37.0625 38.5 34.59375 31 34.59375 
z
" id="CMR17-82"/>
       <path d="M 38.09375 23 
C 38.5 23.40625 38.5 23.609375 38.5 24.625 
C 38.5 34.96875 33.09375 44 21.703125 44 
C 11.09375 44 2.703125 33.890625 2.703125 21.609375 
C 2.703125 8.609375 12.203125 -1 22.796875 -1 
C 34 -1 38.40625 9.484375 38.40625 11.5625 
C 38.40625 12.25 37.796875 12.25 37.59375 12.25 
C 36.90625 12.25 36.796875 12.046875 36.40625 10.875 
C 34.203125 4.140625 28.703125 0.796875 23.5 0.796875 
C 19.203125 0.796875 14.90625 3.171875 12.203125 7.5 
C 9.09375 12.546875 9.09375 18.375 9.09375 23 
z
M 9.203125 24.5 
C 9.90625 39.140625 17.59375 42.40625 21.59375 42.40625 
C 28.40625 42.40625 33 35.890625 33.09375 24.5 
z
" id="CMR17-101"/>
       <path d="M 36 25.828125 
C 36 32.375 36 35.84375 31.796875 39.734375 
C 28.09375 43 23.796875 44 20.40625 44 
C 12.5 44 6.796875 37.609375 6.796875 30.796875 
C 6.796875 27 9.796875 27 10.40625 27 
C 11.703125 27 14 27.78125 14 30.53125 
C 14 33 12.09375 34.078125 10.40625 34.078125 
C 10 34.078125 9.5 33.96875 9.203125 33.875 
C 11.296875 40.5 16.703125 42.40625 20.203125 42.40625 
C 25.203125 42.40625 30.703125 37.953125 30.703125 29.453125 
L 30.703125 25 
C 24.796875 25 17.703125 24.203125 12.09375 21.203125 
C 5.796875 17.703125 4 12.703125 4 8.90625 
C 4 1.203125 13 -1 18.296875 -1 
C 23.796875 -1 28.90625 2.171875 31.09375 7.984375 
C 31.296875 3.640625 34.09375 -0.28125 38.5 -0.28125 
C 40.59375 -0.28125 45.90625 1.09375 45.90625 8.859375 
L 45.90625 14.375 
L 44.09375 14.375 
L 44.09375 8.78125 
C 44.09375 2.78125 41.40625 2 40.09375 2 
C 36 2 36 7.15625 36 11.53125 
z
M 30.703125 13.59375 
C 30.703125 4.953125 24.5 0.59375 19 0.59375 
C 14 0.59375 10.09375 4.296875 10.09375 8.90625 
C 10.09375 11.890625 11.40625 17.1875 17.203125 20.390625 
C 22 23.09375 27.5 23.5 30.703125 23.5 
z
" id="CMR17-97"/>
       <path d="M 15.296875 68.6875 
L 3.40625 67.59375 
L 3.40625 65 
C 9.296875 65 10.203125 64.40625 10.203125 59.640625 
L 10.203125 6.65625 
C 10.203125 2.875 9.796875 2.390625 3.40625 2.390625 
L 3.40625 -0.203125 
C 5.796875 0 10.203125 0 12.703125 0 
C 15.296875 0 19.703125 0 22.09375 -0.203125 
L 22.09375 2.390625 
C 15.703125 2.390625 15.296875 2.78125 15.296875 6.65625 
z
" id="CMR17-108"/>
      </defs>
      <use transform="scale(0.996264)" xlink:href="#CMR17-82"/>
      <use transform="translate(67.791102 0)scale(0.996264)" xlink:href="#CMR17-101"/>
      <use transform="translate(108.276762 0)scale(0.996264)" xlink:href="#CMR17-97"/>
      <use transform="translate(153.96724 0)scale(0.996264)" xlink:href="#CMR17-108"/>
     </g>
    </g>
   </g>
   <g id="LineCollection_1">
    <path clip-path="url(#pce48ef2860)" d="M 103.45175 73.968962 
L 103.45175 72.900917 
" style="fill:none;stroke:#ff0000;stroke-width:2;"/>
    <path clip-path="url(#pce48ef2860)" d="M 110.545043 187.016681 
L 110.545043 186.325753 
" style="fill:none;stroke:#ff0000;stroke-width:2;"/>
    <path clip-path="url(#pce48ef2860)" d="M 117.638336 210.801739 
L 117.638336 210.117042 
" style="fill:none;stroke:#ff0000;stroke-width:2;"/>
    <path clip-path="url(#pce48ef2860)" d="M 124.731629 224.016731 
L 124.731629 223.487131 
" style="fill:none;stroke:#ff0000;stroke-width:2;"/>
    <path clip-path="url(#pce48ef2860)" d="M 131.824921 232.906329 
L 131.824921 232.375442 
" style="fill:none;stroke:#ff0000;stroke-width:2;"/>
    <path clip-path="url(#pce48ef2860)" d="M 138.918214 238.776694 
L 138.918214 238.311506 
" style="fill:none;stroke:#ff0000;stroke-width:2;"/>
    <path clip-path="url(#pce48ef2860)" d="M 146.011507 242.876376 
L 146.011507 242.440891 
" style="fill:none;stroke:#ff0000;stroke-width:2;"/>
    <path clip-path="url(#pce48ef2860)" d="M 153.1048 245.684729 
L 153.1048 245.367373 
" style="fill:none;stroke:#ff0000;stroke-width:2;"/>
    <path clip-path="url(#pce48ef2860)" d="M 160.198093 247.799919 
L 160.198093 247.530747 
" style="fill:none;stroke:#ff0000;stroke-width:2;"/>
    <path clip-path="url(#pce48ef2860)" d="M 167.291386 249.250298 
L 167.291386 249.042509 
" style="fill:none;stroke:#ff0000;stroke-width:2;"/>
    <path clip-path="url(#pce48ef2860)" d="M 174.384679 250.388122 
L 174.384679 250.207356 
" style="fill:none;stroke:#ff0000;stroke-width:2;"/>
    <path clip-path="url(#pce48ef2860)" d="M 181.477972 251.212833 
L 181.477972 251.05994 
" style="fill:none;stroke:#ff0000;stroke-width:2;"/>
    <path clip-path="url(#pce48ef2860)" d="M 188.571265 251.791186 
L 188.571265 251.676921 
" style="fill:none;stroke:#ff0000;stroke-width:2;"/>
    <path clip-path="url(#pce48ef2860)" d="M 195.664558 252.206898 
L 195.664558 252.117835 
" style="fill:none;stroke:#ff0000;stroke-width:2;"/>
    <path clip-path="url(#pce48ef2860)" d="M 202.757851 252.485418 
L 202.757851 252.402783 
" style="fill:none;stroke:#ff0000;stroke-width:2;"/>
    <path clip-path="url(#pce48ef2860)" d="M 209.851144 252.634237 
L 209.851144 252.566917 
" style="fill:none;stroke:#ff0000;stroke-width:2;"/>
    <path clip-path="url(#pce48ef2860)" d="M 216.944437 252.694735 
L 216.944437 252.63118 
" style="fill:none;stroke:#ff0000;stroke-width:2;"/>
    <path clip-path="url(#pce48ef2860)" d="M 224.03773 252.641272 
L 224.03773 252.576931 
" style="fill:none;stroke:#ff0000;stroke-width:2;"/>
    <path clip-path="url(#pce48ef2860)" d="M 231.131023 252.467992 
L 231.131023 252.390222 
" style="fill:none;stroke:#ff0000;stroke-width:2;"/>
    <path clip-path="url(#pce48ef2860)" d="M 238.224316 252.131102 
L 238.224316 252.050992 
" style="fill:none;stroke:#ff0000;stroke-width:2;"/>
    <path clip-path="url(#pce48ef2860)" d="M 245.317609 251.672067 
L 245.317609 251.575582 
" style="fill:none;stroke:#ff0000;stroke-width:2;"/>
    <path clip-path="url(#pce48ef2860)" d="M 252.410902 250.981186 
L 252.410902 250.848009 
" style="fill:none;stroke:#ff0000;stroke-width:2;"/>
    <path clip-path="url(#pce48ef2860)" d="M 259.504195 250.051983 
L 259.504195 249.889276 
" style="fill:none;stroke:#ff0000;stroke-width:2;"/>
    <path clip-path="url(#pce48ef2860)" d="M 266.597488 248.816169 
L 266.597488 248.61213 
" style="fill:none;stroke:#ff0000;stroke-width:2;"/>
    <path clip-path="url(#pce48ef2860)" d="M 273.690781 247.126875 
L 273.690781 246.840725 
" style="fill:none;stroke:#ff0000;stroke-width:2;"/>
    <path clip-path="url(#pce48ef2860)" d="M 280.784074 244.900087 
L 280.784074 244.537221 
" style="fill:none;stroke:#ff0000;stroke-width:2;"/>
    <path clip-path="url(#pce48ef2860)" d="M 287.877367 241.930528 
L 287.877367 241.508057 
" style="fill:none;stroke:#ff0000;stroke-width:2;"/>
    <path clip-path="url(#pce48ef2860)" d="M 294.97066 237.820855 
L 294.97066 237.326856 
" style="fill:none;stroke:#ff0000;stroke-width:2;"/>
    <path clip-path="url(#pce48ef2860)" d="M 302.063952 231.952798 
L 302.063952 231.383067 
" style="fill:none;stroke:#ff0000;stroke-width:2;"/>
    <path clip-path="url(#pce48ef2860)" d="M 309.157245 223.627956 
L 309.157245 222.943914 
" style="fill:none;stroke:#ff0000;stroke-width:2;"/>
    <path clip-path="url(#pce48ef2860)" d="M 316.250538 210.479719 
L 316.250538 209.781661 
" style="fill:none;stroke:#ff0000;stroke-width:2;"/>
    <path clip-path="url(#pce48ef2860)" d="M 323.343831 187.103451 
L 323.343831 186.339225 
" style="fill:none;stroke:#ff0000;stroke-width:2;"/>
   </g>
   <g id="line2d_10">
    <path clip-path="url(#pce48ef2860)" d="M 103.45175 73.43494 
L 110.545043 186.671217 
L 117.638336 210.45939 
L 124.731629 223.751931 
L 131.824921 232.640885 
L 138.918214 238.5441 
L 146.011507 242.658633 
L 153.1048 245.526051 
L 160.198093 247.665333 
L 167.291386 249.146404 
L 174.384679 250.297739 
L 181.477972 251.136386 
L 188.571265 251.734053 
L 195.664558 252.162366 
L 202.757851 252.444101 
L 209.851144 252.600577 
L 216.944437 252.662958 
L 224.03773 252.609102 
L 231.131023 252.429107 
L 238.224316 252.091047 
L 245.317609 251.623825 
L 252.410902 250.914598 
L 259.504195 249.97063 
L 266.597488 248.71415 
L 273.690781 246.9838 
L 280.784074 244.718654 
L 287.877367 241.719292 
L 294.97066 237.573855 
L 302.063952 231.667933 
L 309.157245 223.285935 
L 316.250538 210.13069 
L 323.343831 186.721338 
" style="fill:none;stroke:#000000;stroke-linecap:square;stroke-width:2;"/>
   </g>
   <g id="patch_3">
    <path d="M 92.457146 261.684426 
L 92.457146 63.911226 
" style="fill:none;stroke:#000000;stroke-linecap:square;stroke-linejoin:miter;stroke-width:0.8;"/>
   </g>
   <g id="patch_4">
    <path d="M 334.338435 261.684426 
L 334.338435 63.911226 
" style="fill:none;stroke:#000000;stroke-linecap:square;stroke-linejoin:miter;stroke-width:0.8;"/>
   </g>
   <g id="patch_5">
    <path d="M 92.457146 261.684426 
L 334.338435 261.684426 
" style="fill:none;stroke:#000000;stroke-linecap:square;stroke-linejoin:miter;stroke-width:0.8;"/>
   </g>
   <g id="patch_6">
    <path d="M 92.457146 63.911226 
L 334.338435 63.911226 
" style="fill:none;stroke:#000000;stroke-linecap:square;stroke-linejoin:miter;stroke-width:0.8;"/>
   </g>
   <g id="text_11">
    <!-- $C(t)$ -->
    <g transform="translate(191.469637 57.911226)scale(0.24 -0.24)">
     <defs>
      <path d="M 74.703125 69.109375 
C 74.703125 70 74 70 73.796875 70 
C 73.59375 70 73.203125 70 72.40625 69 
L 65.5 60.65625 
C 62 66.625 56.5 70 49 70 
C 27.40625 70 5 48.25 5 24.921875 
C 5 8.328125 16.703125 -2 31.296875 -2 
C 39.296875 -2 46.296875 1.375 52.09375 6.25 
C 60.796875 13.484375 63.40625 23.140625 63.40625 23.921875 
C 63.40625 24.8125 62.59375 24.8125 62.296875 24.8125 
C 61.40625 24.8125 61.296875 24.21875 61.09375 23.8125 
C 56.5 8.34375 43 0.890625 33 0.890625 
C 22.40625 0.890625 13.203125 7.640625 13.203125 21.734375 
C 13.203125 24.921875 14.203125 42.1875 25.5 55.1875 
C 31 61.546875 40.40625 67.109375 49.90625 67.109375 
C 60.90625 67.109375 65.796875 58.078125 65.796875 47.9375 
C 65.796875 45.359375 65.5 43.1875 65.5 42.78125 
C 65.5 41.890625 66.5 41.890625 66.796875 41.890625 
C 67.90625 41.890625 68 41.984375 68.40625 43.765625 
z
" id="CMMI12-67"/>
      <path d="M 30.59375 -24.390625 
C 30.59375 -24.296875 30.59375 -24.09375 30.296875 -23.796875 
C 25.703125 -19.125 13.40625 -6.359375 13.40625 24.703125 
C 13.40625 55.765625 25.5 68.421875 30.40625 73.390625 
C 30.40625 73.5 30.59375 73.703125 30.59375 74 
C 30.59375 74.296875 30.296875 74.5 29.90625 74.5 
C 28.796875 74.5 20.296875 67.125 15.40625 56.15625 
C 10.40625 45.109375 9 34.359375 9 24.8125 
C 9 17.625 9.703125 5.484375 15.703125 -7.359375 
C 20.5 -17.734375 28.703125 -25 29.90625 -25 
C 30.40625 -25 30.59375 -24.796875 30.59375 -24.390625 
z
" id="CMR17-40"/>
      <path d="M 20.09375 40.09375 
L 29.296875 40.09375 
C 31.203125 40.09375 32.203125 40.09375 32.203125 41.890625 
C 32.203125 43 31.59375 43 29.59375 43 
L 20.796875 43 
L 24.5 57.6875 
C 24.90625 59.078125 24.90625 59.28125 24.90625 60 
C 24.90625 61.609375 23.59375 62.5 22.296875 62.5 
C 21.5 62.5 19.203125 62.203125 18.40625 58.984375 
L 14.5 43 
L 5.09375 43 
C 3.09375 43 2.203125 43 2.203125 41.09375 
C 2.203125 40.09375 2.90625 40.09375 4.796875 40.09375 
L 13.703125 40.09375 
L 7.09375 13.765625 
C 6.296875 10.28125 6 9.28125 6 7.984375 
C 6 3.296875 9.296875 -1 14.90625 -1 
C 25 -1 30.40625 13.5625 30.40625 14.25 
C 30.40625 14.859375 30 15.15625 29.40625 15.15625 
C 29.203125 15.15625 28.796875 15.15625 28.59375 14.75 
C 28.5 14.65625 28.40625 14.546875 27.703125 12.953125 
C 25.59375 7.984375 21 1 15.203125 1 
C 12.203125 1 12 3.5 12 5.6875 
C 12 5.78125 12 7.6875 12.296875 8.875 
z
" id="CMMI12-116"/>
      <path d="M 26.296875 24.703125 
C 26.296875 31.875 25.59375 44.015625 19.59375 56.859375 
C 14.796875 67.234375 6.59375 74.5 5.40625 74.5 
C 5.09375 74.5 4.703125 74.390625 4.703125 73.890625 
C 4.703125 73.703125 4.796875 73.59375 4.90625 73.390625 
C 9.703125 68.40625 21.90625 55.75 21.90625 24.75 
C 21.90625 -6.359375 9.796875 -19.015625 4.90625 -24.015625 
C 4.796875 -24.203125 4.703125 -24.3125 4.703125 -24.5 
C 4.703125 -25 5.09375 -25 5.40625 -25 
C 6.5 -25 15 -17.625 19.90625 -6.65625 
C 24.90625 4.390625 26.296875 15.140625 26.296875 24.703125 
z
" id="CMR17-41"/>
     </defs>
     <use transform="scale(0.996264)" xlink:href="#CMMI12-67"/>
     <use transform="translate(76.946847 0)scale(0.996264)" xlink:href="#CMR17-40"/>
     <use transform="translate(112.227614 0)scale(0.996264)" xlink:href="#CMMI12-116"/>
     <use transform="translate(147.453945 0)scale(0.996264)" xlink:href="#CMR17-41"/>
    </g>
   </g>
  </g>
  <g id="axes_2">
   <g id="patch_7">
    <path d="M 409.287928 261.684426 
L 651.169218 261.684426 
L 651.169218 63.911226 
L 409.287928 63.911226 
z
" style="fill:#ffffff;"/>
   </g>
   <g id="matplotlib.axis_3">
    <g id="xtick_5">
     <g id="line2d_11">
      <g>
       <use style="stroke:#000000;stroke-width:0.8;" x="420.282532" xlink:href="#m71eb6fd22a" y="261.684426"/>
      </g>
     </g>
     <g id="text_12">
      <!-- $\mathdefault{0}$ -->
      <g transform="translate(416.380538 279.754014)scale(0.16 -0.16)">
       <use transform="scale(0.996264)" xlink:href="#CMR17-48"/>
      </g>
     </g>
    </g>
    <g id="xtick_6">
     <g id="line2d_12">
      <g>
       <use style="stroke:#000000;stroke-width:0.8;" x="488.998807" xlink:href="#m71eb6fd22a" y="261.684426"/>
      </g>
     </g>
     <g id="text_13">
      <!-- $\mathdefault{5}$ -->
      <g transform="translate(485.096814 279.754014)scale(0.16 -0.16)">
       <use transform="scale(0.996264)" xlink:href="#CMR17-53"/>
      </g>
     </g>
    </g>
    <g id="xtick_7">
     <g id="line2d_13">
      <g>
       <use style="stroke:#000000;stroke-width:0.8;" x="557.715083" xlink:href="#m71eb6fd22a" y="261.684426"/>
      </g>
     </g>
     <g id="text_14">
      <!-- $\mathdefault{10}$ -->
      <g transform="translate(549.911096 279.754014)scale(0.16 -0.16)">
       <use transform="scale(0.996264)" xlink:href="#CMR17-49"/>
       <use transform="translate(45.690477 0)scale(0.996264)" xlink:href="#CMR17-48"/>
      </g>
     </g>
    </g>
    <g id="xtick_8">
     <g id="line2d_14">
      <g>
       <use style="stroke:#000000;stroke-width:0.8;" x="626.431359" xlink:href="#m71eb6fd22a" y="261.684426"/>
      </g>
     </g>
     <g id="text_15">
      <!-- $\mathdefault{15}$ -->
      <g transform="translate(618.627372 279.754014)scale(0.16 -0.16)">
       <use transform="scale(0.996264)" xlink:href="#CMR17-49"/>
       <use transform="translate(45.690477 0)scale(0.996264)" xlink:href="#CMR17-53"/>
      </g>
     </g>
    </g>
   </g>
   <g id="matplotlib.axis_4">
    <g id="ytick_6">
     <g id="line2d_15">
      <g>
       <use style="stroke:#000000;stroke-width:0.8;" x="409.287928" xlink:href="#md505d3dae2" y="253.673401"/>
      </g>
     </g>
     <g id="text_16">
      <!-- $\mathdefault{0}$ -->
      <g transform="translate(394.483941 259.208195)scale(0.16 -0.16)">
       <use transform="scale(0.996264)" xlink:href="#CMR17-48"/>
      </g>
     </g>
    </g>
    <g id="ytick_7">
     <g id="line2d_16">
      <g>
       <use style="stroke:#000000;stroke-width:0.8;" x="409.287928" xlink:href="#md505d3dae2" y="215.025241"/>
      </g>
     </g>
     <g id="text_17">
      <!-- $\mathdefault{5}$ -->
      <g transform="translate(394.483941 220.560035)scale(0.16 -0.16)">
       <use transform="scale(0.996264)" xlink:href="#CMR17-53"/>
      </g>
     </g>
    </g>
    <g id="ytick_8">
     <g id="line2d_17">
      <g>
       <use style="stroke:#000000;stroke-width:0.8;" x="409.287928" xlink:href="#md505d3dae2" y="176.377081"/>
      </g>
     </g>
     <g id="text_18">
      <!-- $\mathdefault{10}$ -->
      <g transform="translate(386.679954 181.911875)scale(0.16 -0.16)">
       <use transform="scale(0.996264)" xlink:href="#CMR17-49"/>
       <use transform="translate(45.690477 0)scale(0.996264)" xlink:href="#CMR17-48"/>
      </g>
     </g>
    </g>
    <g id="ytick_9">
     <g id="line2d_18">
      <g>
       <use style="stroke:#000000;stroke-width:0.8;" x="409.287928" xlink:href="#md505d3dae2" y="137.728921"/>
      </g>
     </g>
     <g id="text_19">
      <!-- $\mathdefault{15}$ -->
      <g transform="translate(386.679954 143.263715)scale(0.16 -0.16)">
       <use transform="scale(0.996264)" xlink:href="#CMR17-49"/>
       <use transform="translate(45.690477 0)scale(0.996264)" xlink:href="#CMR17-53"/>
      </g>
     </g>
    </g>
    <g id="ytick_10">
     <g id="line2d_19">
      <g>
       <use style="stroke:#000000;stroke-width:0.8;" x="409.287928" xlink:href="#md505d3dae2" y="99.080761"/>
      </g>
     </g>
     <g id="text_20">
      <!-- $\mathdefault{20}$ -->
      <g transform="translate(386.679954 104.615555)scale(0.16 -0.16)">
       <use transform="scale(0.996264)" xlink:href="#CMR17-50"/>
       <use transform="translate(45.690477 0)scale(0.996264)" xlink:href="#CMR17-48"/>
      </g>
     </g>
    </g>
   </g>
   <g id="LineCollection_2">
    <path clip-path="url(#p1f18d778b8)" d="M 420.282532 73.968962 
L 420.282532 72.900917 
" style="fill:none;stroke:#ff0000;stroke-width:2;"/>
    <path clip-path="url(#p1f18d778b8)" d="M 434.025787 186.967603 
L 434.025787 186.424952 
" style="fill:none;stroke:#ff0000;stroke-width:2;"/>
    <path clip-path="url(#p1f18d778b8)" d="M 447.769042 210.537556 
L 447.769042 210.052524 
" style="fill:none;stroke:#ff0000;stroke-width:2;"/>
    <path clip-path="url(#p1f18d778b8)" d="M 461.512297 223.729885 
L 461.512297 223.307981 
" style="fill:none;stroke:#ff0000;stroke-width:2;"/>
    <path clip-path="url(#p1f18d778b8)" d="M 475.255552 232.351185 
L 475.255552 231.957633 
" style="fill:none;stroke:#ff0000;stroke-width:2;"/>
    <path clip-path="url(#p1f18d778b8)" d="M 488.998807 238.235613 
L 488.998807 237.882343 
" style="fill:none;stroke:#ff0000;stroke-width:2;"/>
    <path clip-path="url(#p1f18d778b8)" d="M 502.742063 242.338586 
L 502.742063 242.039339 
" style="fill:none;stroke:#ff0000;stroke-width:2;"/>
    <path clip-path="url(#p1f18d778b8)" d="M 516.485318 245.243531 
L 516.485318 245.001174 
" style="fill:none;stroke:#ff0000;stroke-width:2;"/>
    <path clip-path="url(#p1f18d778b8)" d="M 530.228573 247.426502 
L 530.228573 247.222632 
" style="fill:none;stroke:#ff0000;stroke-width:2;"/>
    <path clip-path="url(#p1f18d778b8)" d="M 543.971828 249.007036 
L 543.971828 248.853517 
" style="fill:none;stroke:#ff0000;stroke-width:2;"/>
    <path clip-path="url(#p1f18d778b8)" d="M 557.715083 250.190981 
L 557.715083 250.077388 
" style="fill:none;stroke:#ff0000;stroke-width:2;"/>
    <path clip-path="url(#p1f18d778b8)" d="M 571.458338 251.077531 
L 571.458338 250.973453 
" style="fill:none;stroke:#ff0000;stroke-width:2;"/>
    <path clip-path="url(#p1f18d778b8)" d="M 585.201593 251.714478 
L 585.201593 251.6434 
" style="fill:none;stroke:#ff0000;stroke-width:2;"/>
    <path clip-path="url(#p1f18d778b8)" d="M 598.944848 252.156918 
L 598.944848 252.096495 
" style="fill:none;stroke:#ff0000;stroke-width:2;"/>
    <path clip-path="url(#p1f18d778b8)" d="M 612.688103 252.465475 
L 612.688103 252.407732 
" style="fill:none;stroke:#ff0000;stroke-width:2;"/>
    <path clip-path="url(#p1f18d778b8)" d="M 626.431359 252.628145 
L 626.431359 252.581533 
" style="fill:none;stroke:#ff0000;stroke-width:2;"/>
    <path clip-path="url(#p1f18d778b8)" d="M 640.174614 252.694735 
L 640.174614 252.63118 
" style="fill:none;stroke:#ff0000;stroke-width:2;"/>
   </g>
   <g id="line2d_20">
    <path clip-path="url(#p1f18d778b8)" d="M 420.282532 73.43494 
L 434.025787 186.696278 
L 447.769042 210.29504 
L 461.512297 223.518933 
L 475.255552 232.154409 
L 488.998807 238.058978 
L 502.742063 242.188963 
L 516.485318 245.122353 
L 530.228573 247.324567 
L 543.971828 248.930277 
L 557.715083 250.134184 
L 571.458338 251.025492 
L 585.201593 251.678939 
L 598.944848 252.126707 
L 612.688103 252.436604 
L 626.431359 252.604839 
L 640.174614 252.662958 
" style="fill:none;stroke:#000000;stroke-linecap:square;stroke-width:2;"/>
   </g>
   <g id="patch_8">
    <path d="M 409.287928 261.684426 
L 409.287928 63.911226 
" style="fill:none;stroke:#000000;stroke-linecap:square;stroke-linejoin:miter;stroke-width:0.8;"/>
   </g>
   <g id="patch_9">
    <path d="M 651.169218 261.684426 
L 651.169218 63.911226 
" style="fill:none;stroke:#000000;stroke-linecap:square;stroke-linejoin:miter;stroke-width:0.8;"/>
   </g>
   <g id="patch_10">
    <path d="M 409.287928 261.684426 
L 651.169218 261.684426 
" style="fill:none;stroke:#000000;stroke-linecap:square;stroke-linejoin:miter;stroke-width:0.8;"/>
   </g>
   <g id="patch_11">
    <path d="M 409.287928 63.911226 
L 651.169218 63.911226 
" style="fill:none;stroke:#000000;stroke-linecap:square;stroke-linejoin:miter;stroke-width:0.8;"/>
   </g>
   <g id="text_21">
    <!-- Folded $C(t)$ -->
    <g transform="translate(472.889563 57.911226)scale(0.24 -0.24)">
     <defs>
      <path d="M 54.40625 67.578125 
L 5.09375 67.578125 
L 5.09375 65 
C 12 65 13.09375 65 13.09375 60.53125 
L 13.09375 6.96875 
C 13.09375 2.5 12 2.5 5.09375 2.5 
L 5.09375 0 
C 8 0 13.59375 0 16.703125 0 
C 20.796875 0 25.59375 0 29.703125 0 
L 29.703125 2.5 
L 27.5 2.5 
C 19.90625 2.5 19.703125 3.484375 19.703125 7.0625 
L 19.703125 32.421875 
L 28.703125 32.421875 
C 38 32.421875 38.90625 29.140625 38.90625 20.8125 
L 40.703125 20.8125 
L 40.703125 46.671875 
L 38.90625 46.671875 
C 38.90625 38.28125 38 35 28.703125 35 
L 19.703125 35 
L 19.703125 61.109375 
C 19.703125 64.5 19.90625 65 23.90625 65 
L 36.796875 65 
C 51.90625 65 53.59375 58.828125 55 45.5625 
L 56.796875 45.5625 
z
" id="CMR17-70"/>
      <path d="M 43.09375 21.1875 
C 43.09375 34 33.796875 44 22.90625 44 
C 12 44 2.703125 34 2.703125 21.1875 
C 2.703125 8.609375 12 -1 22.90625 -1 
C 33.796875 -1 43.09375 8.609375 43.09375 21.1875 
z
M 22.90625 0.796875 
C 18.203125 0.796875 14.203125 3.59375 11.90625 7.5 
C 9.40625 11.984375 9.09375 17.59375 9.09375 22 
C 9.09375 26.203125 9.296875 31.40625 11.90625 35.90625 
C 13.90625 39.203125 17.796875 42.40625 22.90625 42.40625 
C 27.40625 42.40625 31.203125 39.90625 33.59375 36.40625 
C 36.703125 31.703125 36.703125 25.109375 36.703125 22 
C 36.703125 18.09375 36.5 12.109375 33.796875 7.296875 
C 31 2.703125 26.703125 0.796875 22.90625 0.796875 
z
" id="CMR17-111"/>
      <path d="M 29.203125 67.59375 
L 29.203125 65 
C 35.09375 65 36 64.40625 36 59.6875 
L 36 36.640625 
C 35.59375 37.140625 31.5 43.59375 23.40625 43.59375 
C 13.203125 43.59375 3.296875 34.5 3.296875 21.3125 
C 3.296875 8.203125 12.59375 -1 22.40625 -1 
C 30.90625 -1 35.296875 5.265625 35.796875 5.9375 
L 35.796875 -0.984375 
L 47.90625 -0.984375 
L 47.90625 2 
C 42 2 41.09375 2.59375 41.09375 7.390625 
L 41.09375 68.6875 
z
M 35.796875 11.796875 
C 35.796875 8.796875 34 6.09375 31.703125 4.09375 
C 28.296875 1.09375 24.90625 0.59375 23 0.59375 
C 20.09375 0.59375 9.703125 2.09375 9.703125 21.1875 
C 9.703125 40.8125 21.296875 42 23.90625 42 
C 28.5 42 32.203125 39.40625 34.5 35.796875 
C 35.796875 33.703125 35.796875 33.40625 35.796875 31.609375 
z
" id="CMR17-100"/>
     </defs>
     <use transform="scale(0.996264)" xlink:href="#CMR17-70"/>
     <use transform="translate(52.176591 0)scale(0.996264)" xlink:href="#CMR17-111"/>
     <use transform="translate(97.867068 0)scale(0.996264)" xlink:href="#CMR17-108"/>
     <use transform="translate(122.738127 0)scale(0.996264)" xlink:href="#CMR17-100"/>
     <use transform="translate(173.633497 0)scale(0.996264)" xlink:href="#CMR17-101"/>
     <use transform="translate(214.119157 0)scale(0.996264)" xlink:href="#CMR17-100"/>
     <use transform="translate(295.090493 0)scale(0.996264)" xlink:href="#CMMI12-67"/>
     <use transform="translate(372.03734 0)scale(0.996264)" xlink:href="#CMR17-40"/>
     <use transform="translate(407.318108 0)scale(0.996264)" xlink:href="#CMMI12-116"/>
     <use transform="translate(442.544438 0)scale(0.996264)" xlink:href="#CMR17-41"/>
    </g>
   </g>
  </g>
  <g id="axes_3">
   <g id="patch_12">
    <path d="M 726.11871 261.684426 
L 968 261.684426 
L 968 63.911226 
L 726.11871 63.911226 
z
" style="fill:#ffffff;"/>
   </g>
   <g id="matplotlib.axis_5">
    <g id="xtick_9">
     <g id="line2d_21">
      <g>
       <use style="stroke:#000000;stroke-width:0.8;" x="737.113314" xlink:href="#m71eb6fd22a" y="261.684426"/>
      </g>
     </g>
     <g id="text_22">
      <!-- $\mathdefault{0}$ -->
      <g transform="translate(733.211321 279.754014)scale(0.16 -0.16)">
       <use transform="scale(0.996264)" xlink:href="#CMR17-48"/>
      </g>
     </g>
    </g>
    <g id="xtick_10">
     <g id="line2d_22">
      <g>
       <use style="stroke:#000000;stroke-width:0.8;" x="805.82959" xlink:href="#m71eb6fd22a" y="261.684426"/>
      </g>
     </g>
     <g id="text_23">
      <!-- $\mathdefault{5}$ -->
      <g transform="translate(801.927596 279.754014)scale(0.16 -0.16)">
       <use transform="scale(0.996264)" xlink:href="#CMR17-53"/>
      </g>
     </g>
    </g>
    <g id="xtick_11">
     <g id="line2d_23">
      <g>
       <use style="stroke:#000000;stroke-width:0.8;" x="874.545865" xlink:href="#m71eb6fd22a" y="261.684426"/>
      </g>
     </g>
     <g id="text_24">
      <!-- $\mathdefault{10}$ -->
      <g transform="translate(866.741878 279.754014)scale(0.16 -0.16)">
       <use transform="scale(0.996264)" xlink:href="#CMR17-49"/>
       <use transform="translate(45.690477 0)scale(0.996264)" xlink:href="#CMR17-48"/>
      </g>
     </g>
    </g>
    <g id="xtick_12">
     <g id="line2d_24">
      <g>
       <use style="stroke:#000000;stroke-width:0.8;" x="943.262141" xlink:href="#m71eb6fd22a" y="261.684426"/>
      </g>
     </g>
     <g id="text_25">
      <!-- $\mathdefault{15}$ -->
      <g transform="translate(935.458154 279.754014)scale(0.16 -0.16)">
       <use transform="scale(0.996264)" xlink:href="#CMR17-49"/>
       <use transform="translate(45.690477 0)scale(0.996264)" xlink:href="#CMR17-53"/>
      </g>
     </g>
    </g>
   </g>
   <g id="matplotlib.axis_6">
    <g id="ytick_11">
     <g id="line2d_25">
      <g>
       <use style="stroke:#000000;stroke-width:0.8;" x="726.11871" xlink:href="#md505d3dae2" y="233.840053"/>
      </g>
     </g>
     <g id="text_26">
      <!-- $\mathdefault{−0.075}$ -->
      <g transform="translate(671.169218 239.374847)scale(0.16 -0.16)">
       <defs>
        <path d="M 65.90625 23 
C 67.59375 23 69.40625 23 69.40625 25 
C 69.40625 27 67.59375 27 65.90625 27 
L 11.796875 27 
C 10.09375 27 8.296875 27 8.296875 25 
C 8.296875 23 10.09375 23 11.796875 23 
z
" id="CMSY10-0"/>
        <path d="M 18.40625 4.796875 
C 18.40625 7.6875 16 9.671875 13.59375 9.671875 
C 10.703125 9.671875 8.703125 7.28125 8.703125 4.890625 
C 8.703125 2 11.09375 0 13.5 0 
C 16.40625 0 18.40625 2.390625 18.40625 4.796875 
z
" id="CMMI12-58"/>
        <path d="M 45.09375 61.578125 
L 45.09375 63.765625 
L 21.59375 63.765625 
C 9.90625 63.765625 9.703125 65.078125 9.296875 67 
L 7.5 67 
L 4.59375 48.34375 
L 6.40625 48.34375 
C 6.703125 50.234375 7.40625 55.3125 8.59375 57.203125 
C 9.203125 58 16.59375 58 18.296875 58 
L 40.296875 58 
L 29.203125 41.578125 
C 21.796875 30.53125 16.703125 15.609375 16.703125 2.578125 
C 16.703125 1.390625 16.703125 -2 20.296875 -2 
C 23.90625 -2 23.90625 1.390625 23.90625 2.671875 
L 23.90625 7.265625 
C 23.90625 23.5625 26.703125 34.3125 31.296875 41.1875 
z
" id="CMR17-55"/>
       </defs>
       <use transform="scale(0.996264)" xlink:href="#CMSY10-0"/>
       <use transform="translate(77.487468 0)scale(0.996264)" xlink:href="#CMR17-48"/>
       <use transform="translate(123.177945 0)scale(0.996264)" xlink:href="#CMMI12-58"/>
       <use transform="translate(150.275122 0)scale(0.996264)" xlink:href="#CMR17-48"/>
       <use transform="translate(195.965599 0)scale(0.996264)" xlink:href="#CMR17-55"/>
       <use transform="translate(241.656076 0)scale(0.996264)" xlink:href="#CMR17-53"/>
      </g>
     </g>
    </g>
    <g id="ytick_12">
     <g id="line2d_26">
      <g>
       <use style="stroke:#000000;stroke-width:0.8;" x="726.11871" xlink:href="#md505d3dae2" y="197.15714"/>
      </g>
     </g>
     <g id="text_27">
      <!-- $\mathdefault{−0.050}$ -->
      <g transform="translate(671.169218 202.691934)scale(0.16 -0.16)">
       <use transform="scale(0.996264)" xlink:href="#CMSY10-0"/>
       <use transform="translate(77.487468 0)scale(0.996264)" xlink:href="#CMR17-48"/>
       <use transform="translate(123.177945 0)scale(0.996264)" xlink:href="#CMMI12-58"/>
       <use transform="translate(150.275122 0)scale(0.996264)" xlink:href="#CMR17-48"/>
       <use transform="translate(195.965599 0)scale(0.996264)" xlink:href="#CMR17-53"/>
       <use transform="translate(241.656076 0)scale(0.996264)" xlink:href="#CMR17-48"/>
      </g>
     </g>
    </g>
    <g id="ytick_13">
     <g id="line2d_27">
      <g>
       <use style="stroke:#000000;stroke-width:0.8;" x="726.11871" xlink:href="#md505d3dae2" y="160.474227"/>
      </g>
     </g>
     <g id="text_28">
      <!-- $\mathdefault{−0.025}$ -->
      <g transform="translate(671.169218 166.009022)scale(0.16 -0.16)">
       <use transform="scale(0.996264)" xlink:href="#CMSY10-0"/>
       <use transform="translate(77.487468 0)scale(0.996264)" xlink:href="#CMR17-48"/>
       <use transform="translate(123.177945 0)scale(0.996264)" xlink:href="#CMMI12-58"/>
       <use transform="translate(150.275122 0)scale(0.996264)" xlink:href="#CMR17-48"/>
       <use transform="translate(195.965599 0)scale(0.996264)" xlink:href="#CMR17-50"/>
       <use transform="translate(241.656076 0)scale(0.996264)" xlink:href="#CMR17-53"/>
      </g>
     </g>
    </g>
    <g id="ytick_14">
     <g id="line2d_28">
      <g>
       <use style="stroke:#000000;stroke-width:0.8;" x="726.11871" xlink:href="#md505d3dae2" y="123.791315"/>
      </g>
     </g>
     <g id="text_29">
      <!-- $\mathdefault{0.000}$ -->
      <g transform="translate(683.567214 129.326109)scale(0.16 -0.16)">
       <use transform="scale(0.996264)" xlink:href="#CMR17-48"/>
       <use transform="translate(45.690477 0)scale(0.996264)" xlink:href="#CMMI12-58"/>
       <use transform="translate(72.787654 0)scale(0.996264)" xlink:href="#CMR17-48"/>
       <use transform="translate(118.478131 0)scale(0.996264)" xlink:href="#CMR17-48"/>
       <use transform="translate(164.168608 0)scale(0.996264)" xlink:href="#CMR17-48"/>
      </g>
     </g>
    </g>
    <g id="ytick_15">
     <g id="line2d_29">
      <g>
       <use style="stroke:#000000;stroke-width:0.8;" x="726.11871" xlink:href="#md505d3dae2" y="87.108402"/>
      </g>
     </g>
     <g id="text_30">
      <!-- $\mathdefault{0.025}$ -->
      <g transform="translate(683.567214 92.643196)scale(0.16 -0.16)">
       <use transform="scale(0.996264)" xlink:href="#CMR17-48"/>
       <use transform="translate(45.690477 0)scale(0.996264)" xlink:href="#CMMI12-58"/>
       <use transform="translate(72.787654 0)scale(0.996264)" xlink:href="#CMR17-48"/>
       <use transform="translate(118.478131 0)scale(0.996264)" xlink:href="#CMR17-50"/>
       <use transform="translate(164.168608 0)scale(0.996264)" xlink:href="#CMR17-53"/>
      </g>
     </g>
    </g>
   </g>
   <g id="LineCollection_3">
    <path clip-path="url(#p33467744f6)" d="M 737.113314 123.791315 
L 737.113314 123.791315 
" style="fill:none;stroke:#ff0000;stroke-width:2;"/>
    <path clip-path="url(#p33467744f6)" d="M 750.856569 165.167379 
L 750.856569 72.900917 
" style="fill:none;stroke:#ff0000;stroke-width:2;"/>
    <path clip-path="url(#p33467744f6)" d="M 764.599824 201.758326 
L 764.599824 108.221531 
" style="fill:none;stroke:#ff0000;stroke-width:2;"/>
    <path clip-path="url(#p33467744f6)" d="M 778.34308 210.062567 
L 778.34308 125.980048 
" style="fill:none;stroke:#ff0000;stroke-width:2;"/>
    <path clip-path="url(#p33467744f6)" d="M 792.086335 252.694735 
L 792.086335 179.583501 
" style="fill:none;stroke:#ff0000;stroke-width:2;"/>
    <path clip-path="url(#p33467744f6)" d="M 805.82959 246.699235 
L 805.82959 185.065057 
" style="fill:none;stroke:#ff0000;stroke-width:2;"/>
    <path clip-path="url(#p33467744f6)" d="M 819.572845 242.128961 
L 819.572845 183.768756 
" style="fill:none;stroke:#ff0000;stroke-width:2;"/>
    <path clip-path="url(#p33467744f6)" d="M 833.3161 223.176607 
L 833.3161 177.674296 
" style="fill:none;stroke:#ff0000;stroke-width:2;"/>
    <path clip-path="url(#p33467744f6)" d="M 847.059355 206.38873 
L 847.059355 170.569355 
" style="fill:none;stroke:#ff0000;stroke-width:2;"/>
    <path clip-path="url(#p33467744f6)" d="M 860.80261 177.845302 
L 860.80261 151.792093 
" style="fill:none;stroke:#ff0000;stroke-width:2;"/>
    <path clip-path="url(#p33467744f6)" d="M 874.545865 167.094205 
L 874.545865 142.583587 
" style="fill:none;stroke:#ff0000;stroke-width:2;"/>
    <path clip-path="url(#p33467744f6)" d="M 888.28912 154.201999 
L 888.28912 135.48279 
" style="fill:none;stroke:#ff0000;stroke-width:2;"/>
    <path clip-path="url(#p33467744f6)" d="M 902.032375 141.685456 
L 902.032375 126.821928 
" style="fill:none;stroke:#ff0000;stroke-width:2;"/>
    <path clip-path="url(#p33467744f6)" d="M 915.775631 136.195016 
L 915.775631 124.92623 
" style="fill:none;stroke:#ff0000;stroke-width:2;"/>
    <path clip-path="url(#p33467744f6)" d="M 929.518886 130.502573 
L 929.518886 119.926288 
" style="fill:none;stroke:#ff0000;stroke-width:2;"/>
    <path clip-path="url(#p33467744f6)" d="M 943.262141 127.396676 
L 943.262141 118.567727 
" style="fill:none;stroke:#ff0000;stroke-width:2;"/>
    <path clip-path="url(#p33467744f6)" d="M 957.005396 123.791315 
L 957.005396 123.791315 
" style="fill:none;stroke:#ff0000;stroke-width:2;"/>
   </g>
   <g id="line2d_30">
    <path clip-path="url(#p33467744f6)" d="M 737.113314 123.791315 
L 750.856569 119.034148 
L 764.599824 154.989929 
L 778.34308 168.021307 
L 792.086335 216.139118 
L 805.82959 215.882146 
L 819.572845 212.948859 
L 833.3161 200.425451 
L 847.059355 188.479042 
L 860.80261 164.818697 
L 874.545865 154.838896 
L 888.28912 144.842395 
L 902.032375 134.253692 
L 915.775631 130.560623 
L 929.518886 125.21443 
L 943.262141 122.982201 
L 957.005396 123.791315 
" style="fill:none;stroke:#000000;stroke-linecap:square;stroke-width:2;"/>
   </g>
   <g id="patch_13">
    <path d="M 726.11871 261.684426 
L 726.11871 63.911226 
" style="fill:none;stroke:#000000;stroke-linecap:square;stroke-linejoin:miter;stroke-width:0.8;"/>
   </g>
   <g id="patch_14">
    <path d="M 968 261.684426 
L 968 63.911226 
" style="fill:none;stroke:#000000;stroke-linecap:square;stroke-linejoin:miter;stroke-width:0.8;"/>
   </g>
   <g id="patch_15">
    <path d="M 726.11871 261.684426 
L 968 261.684426 
" style="fill:none;stroke:#000000;stroke-linecap:square;stroke-linejoin:miter;stroke-width:0.8;"/>
   </g>
   <g id="patch_16">
    <path d="M 726.11871 63.911226 
L 968 63.911226 
" style="fill:none;stroke:#000000;stroke-linecap:square;stroke-linejoin:miter;stroke-width:0.8;"/>
   </g>
   <g id="text_31">
    <!-- $C(t)$ - Folded $C(t)$ -->
    <g transform="translate(756.964844 57.911226)scale(0.24 -0.24)">
     <defs>
      <path d="M 25.5 19 
L 25.5 23.375 
L 0.40625 23.375 
L 0.40625 19 
z
" id="CMR17-45"/>
     </defs>
     <use transform="scale(0.996264)" xlink:href="#CMMI12-67"/>
     <use transform="translate(76.946847 0)scale(0.996264)" xlink:href="#CMR17-40"/>
     <use transform="translate(112.227614 0)scale(0.996264)" xlink:href="#CMMI12-116"/>
     <use transform="translate(147.453945 0)scale(0.996264)" xlink:href="#CMR17-41"/>
     <use transform="translate(212.810679 0)scale(0.996264)" xlink:href="#CMR17-45"/>
     <use transform="translate(272.962612 0)scale(0.996264)" xlink:href="#CMR17-70"/>
     <use transform="translate(325.139203 0)scale(0.996264)" xlink:href="#CMR17-111"/>
     <use transform="translate(370.82968 0)scale(0.996264)" xlink:href="#CMR17-108"/>
     <use transform="translate(395.700738 0)scale(0.996264)" xlink:href="#CMR17-100"/>
     <use transform="translate(446.596108 0)scale(0.996264)" xlink:href="#CMR17-101"/>
     <use transform="translate(487.081769 0)scale(0.996264)" xlink:href="#CMR17-100"/>
     <use transform="translate(568.053105 0)scale(0.996264)" xlink:href="#CMMI12-67"/>
     <use transform="translate(644.999951 0)scale(0.996264)" xlink:href="#CMR17-40"/>
     <use transform="translate(680.280719 0)scale(0.996264)" xlink:href="#CMMI12-116"/>
     <use transform="translate(715.507049 0)scale(0.996264)" xlink:href="#CMR17-41"/>
    </g>
   </g>
  </g>
  <g id="axes_4">
   <g id="patch_17">
    <path d="M 92.457146 514.830936 
L 334.338435 514.830936 
L 334.338435 317.057736 
L 92.457146 317.057736 
z
" style="fill:#ffffff;"/>
   </g>
   <g id="matplotlib.axis_7">
    <g id="xtick_13">
     <g id="line2d_31">
      <g>
       <use style="stroke:#000000;stroke-width:0.8;" x="103.45175" xlink:href="#m71eb6fd22a" y="514.830936"/>
      </g>
     </g>
     <g id="text_32">
      <!-- $\mathdefault{0}$ -->
      <g transform="translate(99.549756 532.900524)scale(0.16 -0.16)">
       <use transform="scale(0.996264)" xlink:href="#CMR17-48"/>
      </g>
     </g>
    </g>
    <g id="xtick_14">
     <g id="line2d_32">
      <g>
       <use style="stroke:#000000;stroke-width:0.8;" x="174.384679" xlink:href="#m71eb6fd22a" y="514.830936"/>
      </g>
     </g>
     <g id="text_33">
      <!-- $\mathdefault{10}$ -->
      <g transform="translate(166.580692 532.900524)scale(0.16 -0.16)">
       <use transform="scale(0.996264)" xlink:href="#CMR17-49"/>
       <use transform="translate(45.690477 0)scale(0.996264)" xlink:href="#CMR17-48"/>
      </g>
     </g>
    </g>
    <g id="xtick_15">
     <g id="line2d_33">
      <g>
       <use style="stroke:#000000;stroke-width:0.8;" x="245.317609" xlink:href="#m71eb6fd22a" y="514.830936"/>
      </g>
     </g>
     <g id="text_34">
      <!-- $\mathdefault{20}$ -->
      <g transform="translate(237.513622 532.900524)scale(0.16 -0.16)">
       <use transform="scale(0.996264)" xlink:href="#CMR17-50"/>
       <use transform="translate(45.690477 0)scale(0.996264)" xlink:href="#CMR17-48"/>
      </g>
     </g>
    </g>
    <g id="xtick_16">
     <g id="line2d_34">
      <g>
       <use style="stroke:#000000;stroke-width:0.8;" x="316.250538" xlink:href="#m71eb6fd22a" y="514.830936"/>
      </g>
     </g>
     <g id="text_35">
      <!-- $\mathdefault{30}$ -->
      <g transform="translate(308.446551 532.900524)scale(0.16 -0.16)">
       <use transform="scale(0.996264)" xlink:href="#CMR17-51"/>
       <use transform="translate(45.690477 0)scale(0.996264)" xlink:href="#CMR17-48"/>
      </g>
     </g>
    </g>
   </g>
   <g id="matplotlib.axis_8">
    <g id="ytick_16">
     <g id="line2d_35">
      <g>
       <use style="stroke:#000000;stroke-width:0.8;" x="92.457146" xlink:href="#md505d3dae2" y="475.15883"/>
      </g>
     </g>
     <g id="text_36">
      <!-- $\mathdefault{−2}$ -->
      <g transform="translate(65.255163 480.693624)scale(0.16 -0.16)">
       <use transform="scale(0.996264)" xlink:href="#CMSY10-0"/>
       <use transform="translate(77.487468 0)scale(0.996264)" xlink:href="#CMR17-50"/>
      </g>
     </g>
    </g>
    <g id="ytick_17">
     <g id="line2d_36">
      <g>
       <use style="stroke:#000000;stroke-width:0.8;" x="92.457146" xlink:href="#md505d3dae2" y="423.349029"/>
      </g>
     </g>
     <g id="text_37">
      <!-- $\mathdefault{0}$ -->
      <g transform="translate(77.653159 428.883823)scale(0.16 -0.16)">
       <use transform="scale(0.996264)" xlink:href="#CMR17-48"/>
      </g>
     </g>
    </g>
    <g id="ytick_18">
     <g id="line2d_37">
      <g>
       <use style="stroke:#000000;stroke-width:0.8;" x="92.457146" xlink:href="#md505d3dae2" y="371.539227"/>
      </g>
     </g>
     <g id="text_38">
      <!-- $\mathdefault{2}$ -->
      <g transform="translate(77.653159 377.074021)scale(0.16 -0.16)">
       <use transform="scale(0.996264)" xlink:href="#CMR17-50"/>
      </g>
     </g>
    </g>
    <g id="ytick_19">
     <g id="line2d_38">
      <g>
       <use style="stroke:#000000;stroke-width:0.8;" x="92.457146" xlink:href="#md505d3dae2" y="319.729426"/>
      </g>
     </g>
     <g id="text_39">
      <!-- $\mathdefault{4}$ -->
      <g transform="translate(77.653159 325.26422)scale(0.16 -0.16)">
       <defs>
        <path d="M 33.59375 64.40625 
C 33.59375 66.5 33.5 66.5 31.703125 66.5 
L 2 19.59375 
L 2 17 
L 27.796875 17 
L 27.796875 7.140625 
C 27.796875 3.5 27.59375 2.5 20.59375 2.5 
L 18.703125 2.5 
L 18.703125 0 
C 21.90625 0 27.296875 0 30.703125 0 
C 34.09375 0 39.5 0 42.703125 0 
L 42.703125 2.5 
L 40.796875 2.5 
C 33.796875 2.5 33.59375 3.5 33.59375 7.140625 
L 33.59375 17 
L 43.796875 17 
L 43.796875 19.59375 
L 33.59375 19.59375 
z
M 28.09375 57.859375 
L 28.09375 19.59375 
L 4 19.59375 
z
" id="CMR17-52"/>
       </defs>
       <use transform="scale(0.996264)" xlink:href="#CMR17-52"/>
      </g>
     </g>
    </g>
    <g id="text_40">
     <!-- Imaginary -->
     <g transform="translate(56.604405 464.660674)rotate(-90)scale(0.24 -0.24)">
      <defs>
       <path d="M 19.703125 61.015625 
C 19.703125 65.5 20.90625 65.5 28.09375 65.5 
L 28.09375 68 
C 24.90625 68 19.796875 68 16.40625 68 
C 13 68 7.90625 68 4.703125 68 
L 4.703125 65.5 
C 11.90625 65.5 13.09375 65.5 13.09375 61.015625 
L 13.09375 6.984375 
C 13.09375 2.5 11.90625 2.5 4.703125 2.5 
L 4.703125 0 
C 7.90625 0 13 0 16.40625 0 
C 19.796875 0 24.90625 0 28.09375 0 
L 28.09375 2.5 
C 20.90625 2.5 19.703125 2.5 19.703125 6.984375 
z
" id="CMR17-73"/>
       <path d="M 67.59375 30.203125 
C 67.59375 35.1875 66.703125 43.59375 54.796875 43.59375 
C 48 43.59375 43.296875 39 41.5 33.609375 
L 41.40625 33.609375 
C 40.203125 41.8125 34.296875 43.59375 28.703125 43.59375 
C 20.796875 43.59375 16.703125 37.5 15.203125 33.5 
L 15.09375 33.5 
L 15.09375 43.59375 
L 3.296875 42.5 
L 3.296875 39.90625 
C 9.203125 39.90625 10.09375 39.296875 10.09375 34.5 
L 10.09375 6.6875 
C 10.09375 2.875 9.703125 2.390625 3.296875 2.390625 
L 3.296875 -0.203125 
C 5.703125 0 10.09375 0 12.703125 0 
C 15.296875 0 19.796875 0 22.203125 -0.203125 
L 22.203125 2.390625 
C 15.796875 2.390625 15.40625 2.78125 15.40625 6.6875 
L 15.40625 25.90625 
C 15.40625 35.109375 21 42 28 42 
C 35.40625 42 36.203125 35.40625 36.203125 30.59375 
L 36.203125 6.6875 
C 36.203125 2.875 35.796875 2.390625 29.40625 2.390625 
L 29.40625 -0.203125 
C 31.796875 0 36.203125 0 38.796875 0 
C 41.40625 0 45.90625 0 48.296875 -0.203125 
L 48.296875 2.390625 
C 41.90625 2.390625 41.5 2.78125 41.5 6.6875 
L 41.5 25.90625 
C 41.5 35.109375 47.09375 42 54.09375 42 
C 61.5 42 62.296875 35.40625 62.296875 30.59375 
L 62.296875 6.6875 
C 62.296875 2.875 61.90625 2.390625 55.5 2.390625 
L 55.5 -0.203125 
C 57.90625 0 62.296875 0 64.90625 0 
C 67.5 0 72 0 74.40625 -0.203125 
L 74.40625 2.390625 
C 68 2.390625 67.59375 2.78125 67.59375 6.6875 
z
" id="CMR17-109"/>
       <path d="M 11.09375 18.1875 
C 13 16.6875 16.296875 15 20.296875 15 
C 28.203125 15 35 21.203125 35 29.5 
C 35 32.09375 34.203125 36.09375 31.203125 39.203125 
C 34 42.0625 38.09375 43 40.40625 43 
C 40.796875 43 41.40625 43 41.90625 42.71875 
C 41.5 42.625 40.59375 42.234375 40.59375 40.703125 
C 40.59375 39.484375 41.5 38.609375 42.796875 38.609375 
C 44.296875 38.609375 45.09375 39.578125 45.09375 40.84375 
C 45.09375 42.671875 43.59375 44.59375 40.40625 44.59375 
C 36.40625 44.59375 32.90625 42.78125 30.09375 40.3125 
C 27.09375 43.015625 23.5 44 20.296875 44 
C 12.40625 44 5.59375 37.796875 5.59375 29.5 
C 5.59375 23.78125 8.90625 20.1875 9.90625 19.1875 
C 6.90625 15.6875 6.90625 11.609375 6.90625 11.109375 
C 6.90625 8.515625 7.90625 4.71875 11.296875 2.625 
C 6.09375 1.328125 2 -2.640625 2 -7.59375 
C 2 -14.734375 11.5 -20 22.90625 -20 
C 33.90625 -20 43.796875 -14.9375 43.796875 -7.484375 
C 43.796875 6 29 6 21.296875 6 
C 19 6 14.90625 6 14.40625 6.109375 
C 11.296875 6.609375 9.203125 9.40625 9.203125 12.90625 
C 9.203125 13.796875 9.203125 16 11.09375 18.1875 
z
M 20.296875 16.6875 
C 11.5 16.6875 11.5 27.5 11.5 29.515625 
C 11.5 31.5 11.5 42.3125 20.296875 42.3125 
C 29.09375 42.3125 29.09375 31.5 29.09375 29.515625 
C 29.09375 27.5 29.09375 16.6875 20.296875 16.6875 
z
M 22.90625 -18.296875 
C 12.90625 -18.296875 6 -13.046875 6 -7.59375 
C 6 -4.515625 7.703125 -1.640625 9.90625 -0.0625 
C 12.40625 1.625 13.40625 1.625 20.203125 1.625 
C 28.40625 1.625 39.796875 1.625 39.796875 -7.59375 
C 39.796875 -13.046875 32.90625 -18.296875 22.90625 -18.296875 
z
" id="CMR17-103"/>
       <path d="M 15.5 61.078125 
C 15.5 63.265625 13.703125 65.15625 11.40625 65.15625 
C 9.203125 65.15625 7.296875 63.375 7.296875 61.078125 
C 7.296875 58.890625 9.09375 57 11.40625 57 
C 13.59375 57 15.5 58.796875 15.5 61.078125 
z
M 3.796875 42.28125 
L 3.796875 39.703125 
C 9.40625 39.703125 10.203125 39.09375 10.203125 34.328125 
L 10.203125 6.671875 
C 10.203125 2.875 9.796875 2.390625 3.40625 2.390625 
L 3.40625 -0.203125 
C 5.796875 0 10.09375 0 12.59375 0 
C 15 0 19.09375 0 21.40625 -0.203125 
L 21.40625 2.390625 
C 15.5 2.390625 15.296875 2.984375 15.296875 6.5625 
L 15.296875 43.375 
z
" id="CMR17-105"/>
       <path d="M 41.5 30.203125 
C 41.5 35.296875 40.5 43.59375 28.703125 43.59375 
C 20.796875 43.59375 16.703125 37.5 15.203125 33.5 
L 15.09375 33.5 
L 15.09375 43.59375 
L 3.296875 42.5 
L 3.296875 39.90625 
C 9.203125 39.90625 10.09375 39.296875 10.09375 34.5 
L 10.09375 6.6875 
C 10.09375 2.875 9.703125 2.390625 3.296875 2.390625 
L 3.296875 -0.203125 
C 5.703125 0 10.09375 0 12.703125 0 
C 15.296875 0 19.796875 0 22.203125 -0.203125 
L 22.203125 2.390625 
C 15.796875 2.390625 15.40625 2.78125 15.40625 6.6875 
L 15.40625 25.90625 
C 15.40625 35.109375 21 42 28 42 
C 35.40625 42 36.203125 35.40625 36.203125 30.59375 
L 36.203125 6.6875 
C 36.203125 2.875 35.796875 2.390625 29.40625 2.390625 
L 29.40625 -0.203125 
C 31.796875 0 36.203125 0 38.796875 0 
C 41.40625 0 45.90625 0 48.296875 -0.203125 
L 48.296875 2.390625 
C 41.90625 2.390625 41.5 2.78125 41.5 6.6875 
z
" id="CMR17-110"/>
       <path d="M 15 23.390625 
C 15 33 19.09375 42 26.59375 42 
C 27.296875 42 28 41.90625 28.703125 41.59375 
C 28.703125 41.59375 26.5 40.890625 26.5 38.3125 
C 26.5 35.90625 28.40625 34.90625 29.90625 34.90625 
C 31.09375 34.90625 33.296875 35.609375 33.296875 38.40625 
C 33.296875 41.609375 30.09375 43.59375 26.703125 43.59375 
C 19.09375 43.59375 15.796875 36.203125 14.796875 32.703125 
L 14.703125 32.703125 
L 14.703125 43.59375 
L 3.09375 42.5 
L 3.09375 39.90625 
C 9 39.90625 9.90625 39.296875 9.90625 34.5 
L 9.90625 6.6875 
C 9.90625 2.875 9.5 2.390625 3.09375 2.390625 
L 3.09375 -0.203125 
C 5.5 0 10.09375 0 12.703125 0 
C 15.59375 0 20.703125 0 23.40625 -0.203125 
L 23.40625 2.390625 
C 16.203125 2.390625 15 2.390625 15 6.875 
z
" id="CMR17-114"/>
       <path d="M 39 34.328125 
C 41.5 40.40625 46 40.40625 47.40625 40.40625 
L 47.40625 43 
C 45.5 43 43 43 41.09375 43 
C 39 43 35.703125 43 33.703125 43.09375 
L 33.703125 40.5 
C 37.5 40.203125 37.59375 37.40625 37.59375 36.609375 
C 37.59375 35.625 37.40625 35.125 36.90625 33.921875 
L 26 7.015625 
L 14.09375 36.03125 
C 13.59375 37.21875 13.59375 37.90625 13.59375 38.015625 
C 13.59375 40.203125 15.90625 40.40625 18.296875 40.40625 
L 18.296875 43.09375 
C 15.90625 43 11.59375 43 9.09375 43 
C 6.40625 43 3.203125 43 1 43.09375 
L 1 40.40625 
C 6.40625 40.40625 7 39.90625 8.296875 36.71875 
L 23.203125 0.234375 
C 18.703125 -11.53125 16.09375 -18.40625 9.796875 -18.40625 
C 8.703125 -18.40625 6.203125 -18.109375 4.40625 -16.3125 
C 6.703125 -16.109375 7.703125 -14.71875 7.703125 -13.015625 
C 7.703125 -11.328125 6.5 -9.828125 4.5 -9.828125 
C 2.296875 -9.828125 1.203125 -11.328125 1.203125 -13.125 
C 1.203125 -17.109375 5.296875 -20 9.796875 -20 
C 15.59375 -20 19.203125 -14.40625 21.203125 -9.4375 
z
" id="CMR17-121"/>
      </defs>
      <use transform="scale(0.996264)" xlink:href="#CMR17-73"/>
      <use transform="translate(32.638409 0)scale(0.996264)" xlink:href="#CMR17-109"/>
      <use transform="translate(109.557999 0)scale(0.996264)" xlink:href="#CMR17-97"/>
      <use transform="translate(155.248476 0)scale(0.996264)" xlink:href="#CMR17-103"/>
      <use transform="translate(200.938953 0)scale(0.996264)" xlink:href="#CMR17-105"/>
      <use transform="translate(225.810012 0)scale(0.996264)" xlink:href="#CMR17-110"/>
      <use transform="translate(276.705382 0)scale(0.996264)" xlink:href="#CMR17-97"/>
      <use transform="translate(322.395859 0)scale(0.996264)" xlink:href="#CMR17-114"/>
      <use transform="translate(357.676626 0)scale(0.996264)" xlink:href="#CMR17-121"/>
     </g>
    </g>
    <g id="text_41">
     <!-- $\times\mathdefault{10^{−18}}\mathdefault{}$ -->
     <g transform="translate(92.457146 314.057736)scale(0.16 -0.16)">
      <defs>
       <path d="M 38.90625 27.890625 
L 18.90625 47.796875 
C 17.703125 49 17.5 49.1875 16.703125 49.1875 
C 15.703125 49.1875 14.703125 48.296875 14.703125 47.1875 
C 14.703125 46.5 14.90625 46.296875 16 45.1875 
L 36 25.09375 
L 16 5 
C 14.90625 3.890625 14.703125 3.6875 14.703125 3 
C 14.703125 1.890625 15.703125 1 16.703125 1 
C 17.5 1 17.703125 1.1875 18.90625 2.390625 
L 38.796875 22.296875 
L 59.5 1.59375 
C 59.703125 1.5 60.40625 1 61 1 
C 62.203125 1 63 1.890625 63 3 
C 63 3.1875 63 3.59375 62.703125 4.09375 
C 62.59375 4.296875 46.703125 20 41.703125 25.09375 
L 60 43.390625 
C 60.5 44 62 45.296875 62.5 45.890625 
C 62.59375 46.09375 63 46.5 63 47.1875 
C 63 48.296875 62.203125 49.1875 61 49.1875 
C 60.203125 49.1875 59.796875 48.796875 58.703125 47.6875 
z
" id="CMSY10-2"/>
       <path d="M 27.203125 35.375 
C 33.5 38.546875 39.90625 43.328125 39.90625 50.984375 
C 39.90625 60.015625 31.09375 65.296875 23 65.296875 
C 13.90625 65.296875 5.90625 58.734375 5.90625 49.6875 
C 5.90625 47.203125 6.5 42.921875 10.40625 39.140625 
C 11.40625 38.15625 15.59375 35.171875 18.296875 33.28125 
C 13.796875 30.984375 3.296875 25.53125 3.296875 14.59375 
C 3.296875 4.359375 13.09375 -2 22.796875 -2 
C 33.5 -2 42.5 5.65625 42.5 15.78125 
C 42.5 24.84375 36.40625 29.015625 32.40625 31.703125 
z
M 14.09375 44.09375 
C 13.296875 44.59375 9.296875 47.671875 9.296875 52.359375 
C 9.296875 58.421875 15.59375 63 22.796875 63 
C 30.703125 63 36.5 57.4375 36.5 50.96875 
C 36.5 41.703125 26.09375 36.421875 25.59375 36.421875 
C 25.5 36.421875 25.40625 36.421875 24.59375 37.03125 
z
M 32.5 23.734375 
C 34 22.640625 38.796875 19.375 38.796875 13.296875 
C 38.796875 5.953125 31.40625 0.390625 23 0.390625 
C 13.90625 0.390625 7 6.84375 7 14.6875 
C 7 22.546875 13.09375 29.09375 20 32.1875 
z
" id="CMR17-56"/>
      </defs>
      <use transform="scale(0.996264)" xlink:href="#CMSY10-2"/>
      <use transform="translate(77.487468 0)scale(0.996264)" xlink:href="#CMR17-49"/>
      <use transform="translate(123.177945 0)scale(0.996264)" xlink:href="#CMR17-48"/>
      <use transform="translate(168.868422 36.153639)scale(0.697382)" xlink:href="#CMSY10-0"/>
      <use transform="translate(223.109415 36.153639)scale(0.697382)" xlink:href="#CMR17-49"/>
      <use transform="translate(255.092597 36.153639)scale(0.697382)" xlink:href="#CMR17-56"/>
     </g>
    </g>
   </g>
   <g id="LineCollection_4">
    <path clip-path="url(#p4eb959ebef)" d="M 103.45175 427.423254 
L 103.45175 378.274647 
" style="fill:none;stroke:#ff0000;stroke-width:2;"/>
    <path clip-path="url(#p4eb959ebef)" d="M 110.545043 486.749554 
L 110.545043 406.255013 
" style="fill:none;stroke:#ff0000;stroke-width:2;"/>
    <path clip-path="url(#p4eb959ebef)" d="M 117.638336 379.888356 
L 117.638336 326.047427 
" style="fill:none;stroke:#ff0000;stroke-width:2;"/>
    <path clip-path="url(#p4eb959ebef)" d="M 124.731629 435.893123 
L 124.731629 398.184226 
" style="fill:none;stroke:#ff0000;stroke-width:2;"/>
    <path clip-path="url(#p4eb959ebef)" d="M 131.824921 473.088107 
L 131.824921 441.102474 
" style="fill:none;stroke:#ff0000;stroke-width:2;"/>
    <path clip-path="url(#p4eb959ebef)" d="M 138.918214 427.507682 
L 138.918214 408.430079 
" style="fill:none;stroke:#ff0000;stroke-width:2;"/>
    <path clip-path="url(#p4eb959ebef)" d="M 146.011507 432.449221 
L 146.011507 417.065284 
" style="fill:none;stroke:#ff0000;stroke-width:2;"/>
    <path clip-path="url(#p4eb959ebef)" d="M 153.1048 427.125769 
L 153.1048 415.719824 
" style="fill:none;stroke:#ff0000;stroke-width:2;"/>
    <path clip-path="url(#p4eb959ebef)" d="M 160.198093 425.290985 
L 160.198093 416.880876 
" style="fill:none;stroke:#ff0000;stroke-width:2;"/>
    <path clip-path="url(#p4eb959ebef)" d="M 167.291386 430.931049 
L 167.291386 424.573284 
" style="fill:none;stroke:#ff0000;stroke-width:2;"/>
    <path clip-path="url(#p4eb959ebef)" d="M 174.384679 429.573662 
L 174.384679 424.032795 
" style="fill:none;stroke:#ff0000;stroke-width:2;"/>
    <path clip-path="url(#p4eb959ebef)" d="M 181.477972 425.902881 
L 181.477972 422.583781 
" style="fill:none;stroke:#ff0000;stroke-width:2;"/>
    <path clip-path="url(#p4eb959ebef)" d="M 188.571265 424.931336 
L 188.571265 422.319712 
" style="fill:none;stroke:#ff0000;stroke-width:2;"/>
    <path clip-path="url(#p4eb959ebef)" d="M 195.664558 422.746817 
L 195.664558 420.724829 
" style="fill:none;stroke:#ff0000;stroke-width:2;"/>
    <path clip-path="url(#p4eb959ebef)" d="M 202.757851 424.152943 
L 202.757851 422.593612 
" style="fill:none;stroke:#ff0000;stroke-width:2;"/>
    <path clip-path="url(#p4eb959ebef)" d="M 209.851144 425.645957 
L 209.851144 423.932408 
" style="fill:none;stroke:#ff0000;stroke-width:2;"/>
    <path clip-path="url(#p4eb959ebef)" d="M 216.944437 424.541515 
L 216.944437 423.329048 
" style="fill:none;stroke:#ff0000;stroke-width:2;"/>
    <path clip-path="url(#p4eb959ebef)" d="M 224.03773 424.124631 
L 224.03773 422.616991 
" style="fill:none;stroke:#ff0000;stroke-width:2;"/>
    <path clip-path="url(#p4eb959ebef)" d="M 231.131023 423.790586 
L 231.131023 421.962656 
" style="fill:none;stroke:#ff0000;stroke-width:2;"/>
    <path clip-path="url(#p4eb959ebef)" d="M 238.224316 424.955094 
L 238.224316 422.460925 
" style="fill:none;stroke:#ff0000;stroke-width:2;"/>
    <path clip-path="url(#p4eb959ebef)" d="M 245.317609 422.798896 
L 245.317609 419.633214 
" style="fill:none;stroke:#ff0000;stroke-width:2;"/>
    <path clip-path="url(#p4eb959ebef)" d="M 252.410902 425.65564 
L 252.410902 421.373493 
" style="fill:none;stroke:#ff0000;stroke-width:2;"/>
    <path clip-path="url(#p4eb959ebef)" d="M 259.504195 421.858236 
L 259.504195 415.763014 
" style="fill:none;stroke:#ff0000;stroke-width:2;"/>
    <path clip-path="url(#p4eb959ebef)" d="M 266.597488 427.185684 
L 266.597488 419.808228 
" style="fill:none;stroke:#ff0000;stroke-width:2;"/>
    <path clip-path="url(#p4eb959ebef)" d="M 273.690781 425.934737 
L 273.690781 416.921021 
" style="fill:none;stroke:#ff0000;stroke-width:2;"/>
    <path clip-path="url(#p4eb959ebef)" d="M 280.784074 429.298774 
L 280.784074 417.443129 
" style="fill:none;stroke:#ff0000;stroke-width:2;"/>
    <path clip-path="url(#p4eb959ebef)" d="M 287.877367 432.110527 
L 287.877367 417.495689 
" style="fill:none;stroke:#ff0000;stroke-width:2;"/>
    <path clip-path="url(#p4eb959ebef)" d="M 294.97066 439.08372 
L 294.97066 416.385919 
" style="fill:none;stroke:#ff0000;stroke-width:2;"/>
    <path clip-path="url(#p4eb959ebef)" d="M 302.063952 442.733038 
L 302.063952 415.132989 
" style="fill:none;stroke:#ff0000;stroke-width:2;"/>
    <path clip-path="url(#p4eb959ebef)" d="M 309.157245 457.935133 
L 309.157245 417.494594 
" style="fill:none;stroke:#ff0000;stroke-width:2;"/>
    <path clip-path="url(#p4eb959ebef)" d="M 316.250538 477.594059 
L 316.250538 423.877651 
" style="fill:none;stroke:#ff0000;stroke-width:2;"/>
    <path clip-path="url(#p4eb959ebef)" d="M 323.343831 505.841245 
L 323.343831 411.133721 
" style="fill:none;stroke:#ff0000;stroke-width:2;"/>
   </g>
   <g id="line2d_39">
    <path clip-path="url(#p4eb959ebef)" d="M 103.45175 402.848951 
L 110.545043 446.502284 
L 117.638336 352.967891 
L 124.731629 417.038674 
L 131.824921 457.095291 
L 138.918214 417.968881 
L 146.011507 424.757253 
L 153.1048 421.422796 
L 160.198093 421.08593 
L 167.291386 427.752166 
L 174.384679 426.803229 
L 181.477972 424.243331 
L 188.571265 423.625524 
L 195.664558 421.735823 
L 202.757851 423.373278 
L 209.851144 424.789182 
L 216.944437 423.935281 
L 224.03773 423.370811 
L 231.131023 422.876621 
L 238.224316 423.70801 
L 245.317609 421.216055 
L 252.410902 423.514567 
L 259.504195 418.810625 
L 266.597488 423.496956 
L 273.690781 421.427879 
L 280.784074 423.370952 
L 287.877367 424.803108 
L 294.97066 427.73482 
L 302.063952 428.933013 
L 309.157245 437.714863 
L 316.250538 450.735855 
L 323.343831 458.487483 
" style="fill:none;stroke:#000000;stroke-linecap:square;stroke-width:2;"/>
   </g>
   <g id="patch_18">
    <path d="M 92.457146 514.830936 
L 92.457146 317.057736 
" style="fill:none;stroke:#000000;stroke-linecap:square;stroke-linejoin:miter;stroke-width:0.8;"/>
   </g>
   <g id="patch_19">
    <path d="M 334.338435 514.830936 
L 334.338435 317.057736 
" style="fill:none;stroke:#000000;stroke-linecap:square;stroke-linejoin:miter;stroke-width:0.8;"/>
   </g>
   <g id="patch_20">
    <path d="M 92.457146 514.830936 
L 334.338435 514.830936 
" style="fill:none;stroke:#000000;stroke-linecap:square;stroke-linejoin:miter;stroke-width:0.8;"/>
   </g>
   <g id="patch_21">
    <path d="M 92.457146 317.057736 
L 334.338435 317.057736 
" style="fill:none;stroke:#000000;stroke-linecap:square;stroke-linejoin:miter;stroke-width:0.8;"/>
   </g>
  </g>
  <g id="axes_5">
   <g id="patch_22">
    <path d="M 409.287928 514.830936 
L 651.169218 514.830936 
L 651.169218 317.057736 
L 409.287928 317.057736 
z
" style="fill:#ffffff;"/>
   </g>
   <g id="matplotlib.axis_9">
    <g id="xtick_17">
     <g id="line2d_40">
      <g>
       <use style="stroke:#000000;stroke-width:0.8;" x="420.282532" xlink:href="#m71eb6fd22a" y="514.830936"/>
      </g>
     </g>
     <g id="text_42">
      <!-- $\mathdefault{0}$ -->
      <g transform="translate(416.380538 532.900524)scale(0.16 -0.16)">
       <use transform="scale(0.996264)" xlink:href="#CMR17-48"/>
      </g>
     </g>
    </g>
    <g id="xtick_18">
     <g id="line2d_41">
      <g>
       <use style="stroke:#000000;stroke-width:0.8;" x="488.998807" xlink:href="#m71eb6fd22a" y="514.830936"/>
      </g>
     </g>
     <g id="text_43">
      <!-- $\mathdefault{5}$ -->
      <g transform="translate(485.096814 532.900524)scale(0.16 -0.16)">
       <use transform="scale(0.996264)" xlink:href="#CMR17-53"/>
      </g>
     </g>
    </g>
    <g id="xtick_19">
     <g id="line2d_42">
      <g>
       <use style="stroke:#000000;stroke-width:0.8;" x="557.715083" xlink:href="#m71eb6fd22a" y="514.830936"/>
      </g>
     </g>
     <g id="text_44">
      <!-- $\mathdefault{10}$ -->
      <g transform="translate(549.911096 532.900524)scale(0.16 -0.16)">
       <use transform="scale(0.996264)" xlink:href="#CMR17-49"/>
       <use transform="translate(45.690477 0)scale(0.996264)" xlink:href="#CMR17-48"/>
      </g>
     </g>
    </g>
    <g id="xtick_20">
     <g id="line2d_43">
      <g>
       <use style="stroke:#000000;stroke-width:0.8;" x="626.431359" xlink:href="#m71eb6fd22a" y="514.830936"/>
      </g>
     </g>
     <g id="text_45">
      <!-- $\mathdefault{15}$ -->
      <g transform="translate(618.627372 532.900524)scale(0.16 -0.16)">
       <use transform="scale(0.996264)" xlink:href="#CMR17-49"/>
       <use transform="translate(45.690477 0)scale(0.996264)" xlink:href="#CMR17-53"/>
      </g>
     </g>
    </g>
   </g>
   <g id="matplotlib.axis_10">
    <g id="ytick_20">
     <g id="line2d_44">
      <g>
       <use style="stroke:#000000;stroke-width:0.8;" x="409.287928" xlink:href="#md505d3dae2" y="492.363231"/>
      </g>
     </g>
     <g id="text_46">
      <!-- $\mathdefault{−2}$ -->
      <g transform="translate(382.085945 497.898025)scale(0.16 -0.16)">
       <use transform="scale(0.996264)" xlink:href="#CMSY10-0"/>
       <use transform="translate(77.487468 0)scale(0.996264)" xlink:href="#CMR17-50"/>
      </g>
     </g>
    </g>
    <g id="ytick_21">
     <g id="line2d_45">
      <g>
       <use style="stroke:#000000;stroke-width:0.8;" x="409.287928" xlink:href="#md505d3dae2" y="447.893698"/>
      </g>
     </g>
     <g id="text_47">
      <!-- $\mathdefault{−1}$ -->
      <g transform="translate(382.085945 453.428492)scale(0.16 -0.16)">
       <use transform="scale(0.996264)" xlink:href="#CMSY10-0"/>
       <use transform="translate(77.487468 0)scale(0.996264)" xlink:href="#CMR17-49"/>
      </g>
     </g>
    </g>
    <g id="ytick_22">
     <g id="line2d_46">
      <g>
       <use style="stroke:#000000;stroke-width:0.8;" x="409.287928" xlink:href="#md505d3dae2" y="403.424164"/>
      </g>
     </g>
     <g id="text_48">
      <!-- $\mathdefault{0}$ -->
      <g transform="translate(394.483941 408.958959)scale(0.16 -0.16)">
       <use transform="scale(0.996264)" xlink:href="#CMR17-48"/>
      </g>
     </g>
    </g>
    <g id="ytick_23">
     <g id="line2d_47">
      <g>
       <use style="stroke:#000000;stroke-width:0.8;" x="409.287928" xlink:href="#md505d3dae2" y="358.954631"/>
      </g>
     </g>
     <g id="text_49">
      <!-- $\mathdefault{1}$ -->
      <g transform="translate(394.483941 364.489425)scale(0.16 -0.16)">
       <use transform="scale(0.996264)" xlink:href="#CMR17-49"/>
      </g>
     </g>
    </g>
    <g id="text_50">
     <!-- $\times\mathdefault{10^{−18}}\mathdefault{}$ -->
     <g transform="translate(409.287928 314.057736)scale(0.16 -0.16)">
      <use transform="scale(0.996264)" xlink:href="#CMSY10-2"/>
      <use transform="translate(77.487468 0)scale(0.996264)" xlink:href="#CMR17-49"/>
      <use transform="translate(123.177945 0)scale(0.996264)" xlink:href="#CMR17-48"/>
      <use transform="translate(168.868422 36.153639)scale(0.697382)" xlink:href="#CMSY10-0"/>
      <use transform="translate(223.109415 36.153639)scale(0.697382)" xlink:href="#CMR17-49"/>
      <use transform="translate(255.092597 36.153639)scale(0.697382)" xlink:href="#CMR17-56"/>
     </g>
    </g>
   </g>
   <g id="LineCollection_5">
    <path clip-path="url(#pcdfc15143d)" d="M 420.282532 410.418165 
L 420.282532 326.047427 
" style="fill:none;stroke:#ff0000;stroke-width:2;"/>
    <path clip-path="url(#pcdfc15143d)" d="M 434.025787 505.841245 
L 434.025787 401.073289 
" style="fill:none;stroke:#ff0000;stroke-width:2;"/>
    <path clip-path="url(#pcdfc15143d)" d="M 447.769042 399.767581 
L 447.769042 333.274754 
" style="fill:none;stroke:#ff0000;stroke-width:2;"/>
    <path clip-path="url(#pcdfc15143d)" d="M 461.512297 434.973549 
L 461.512297 385.703184 
" style="fill:none;stroke:#ff0000;stroke-width:2;"/>
    <path clip-path="url(#pcdfc15143d)" d="M 475.255552 456.335192 
L 475.255552 418.029231 
" style="fill:none;stroke:#ff0000;stroke-width:2;"/>
    <path clip-path="url(#pcdfc15143d)" d="M 488.998807 414.873711 
L 488.998807 390.267659 
" style="fill:none;stroke:#ff0000;stroke-width:2;"/>
    <path clip-path="url(#pcdfc15143d)" d="M 502.742063 414.322917 
L 502.742063 397.438972 
" style="fill:none;stroke:#ff0000;stroke-width:2;"/>
    <path clip-path="url(#pcdfc15143d)" d="M 516.485318 408.822258 
L 516.485318 394.757046 
" style="fill:none;stroke:#ff0000;stroke-width:2;"/>
    <path clip-path="url(#pcdfc15143d)" d="M 530.228573 405.04826 
L 530.228573 394.617197 
" style="fill:none;stroke:#ff0000;stroke-width:2;"/>
    <path clip-path="url(#pcdfc15143d)" d="M 543.971828 411.488878 
L 543.971828 403.172018 
" style="fill:none;stroke:#ff0000;stroke-width:2;"/>
    <path clip-path="url(#pcdfc15143d)" d="M 557.715083 405.877299 
L 557.715083 399.109837 
" style="fill:none;stroke:#ff0000;stroke-width:2;"/>
    <path clip-path="url(#pcdfc15143d)" d="M 571.458338 406.73766 
L 571.458338 401.930038 
" style="fill:none;stroke:#ff0000;stroke-width:2;"/>
    <path clip-path="url(#pcdfc15143d)" d="M 585.201593 403.704873 
L 585.201593 399.956541 
" style="fill:none;stroke:#ff0000;stroke-width:2;"/>
    <path clip-path="url(#pcdfc15143d)" d="M 598.944848 403.786857 
L 598.944848 400.908413 
" style="fill:none;stroke:#ff0000;stroke-width:2;"/>
    <path clip-path="url(#pcdfc15143d)" d="M 612.688103 404.052061 
L 612.688103 402.026938 
" style="fill:none;stroke:#ff0000;stroke-width:2;"/>
    <path clip-path="url(#pcdfc15143d)" d="M 626.431359 405.6863 
L 626.431359 403.671655 
" style="fill:none;stroke:#ff0000;stroke-width:2;"/>
    <path clip-path="url(#pcdfc15143d)" d="M 640.174614 405.47124 
L 640.174614 403.389865 
" style="fill:none;stroke:#ff0000;stroke-width:2;"/>
   </g>
   <g id="line2d_48">
    <path clip-path="url(#pcdfc15143d)" d="M 420.282532 368.232796 
L 434.025787 453.457267 
L 447.769042 366.521168 
L 461.512297 410.338367 
L 475.255552 437.182211 
L 488.998807 402.570685 
L 502.742063 405.880945 
L 516.485318 401.789652 
L 530.228573 399.832729 
L 543.971828 407.330448 
L 557.715083 402.493568 
L 571.458338 404.333849 
L 585.201593 401.830707 
L 598.944848 402.347635 
L 612.688103 403.0395 
L 626.431359 404.678978 
L 640.174614 404.430553 
" style="fill:none;stroke:#000000;stroke-linecap:square;stroke-width:2;"/>
   </g>
   <g id="patch_23">
    <path d="M 409.287928 514.830936 
L 409.287928 317.057736 
" style="fill:none;stroke:#000000;stroke-linecap:square;stroke-linejoin:miter;stroke-width:0.8;"/>
   </g>
   <g id="patch_24">
    <path d="M 651.169218 514.830936 
L 651.169218 317.057736 
" style="fill:none;stroke:#000000;stroke-linecap:square;stroke-linejoin:miter;stroke-width:0.8;"/>
   </g>
   <g id="patch_25">
    <path d="M 409.287928 514.830936 
L 651.169218 514.830936 
" style="fill:none;stroke:#000000;stroke-linecap:square;stroke-linejoin:miter;stroke-width:0.8;"/>
   </g>
   <g id="patch_26">
    <path d="M 409.287928 317.057736 
L 651.169218 317.057736 
" style="fill:none;stroke:#000000;stroke-linecap:square;stroke-linejoin:miter;stroke-width:0.8;"/>
   </g>
  </g>
  <g id="axes_6">
   <g id="patch_27">
    <path d="M 726.11871 514.830936 
L 968 514.830936 
L 968 317.057736 
L 726.11871 317.057736 
z
" style="fill:#ffffff;"/>
   </g>
   <g id="matplotlib.axis_11">
    <g id="xtick_21">
     <g id="line2d_49">
      <g>
       <use style="stroke:#000000;stroke-width:0.8;" x="737.113314" xlink:href="#m71eb6fd22a" y="514.830936"/>
      </g>
     </g>
     <g id="text_51">
      <!-- $\mathdefault{0}$ -->
      <g transform="translate(733.211321 532.900524)scale(0.16 -0.16)">
       <use transform="scale(0.996264)" xlink:href="#CMR17-48"/>
      </g>
     </g>
    </g>
    <g id="xtick_22">
     <g id="line2d_50">
      <g>
       <use style="stroke:#000000;stroke-width:0.8;" x="805.82959" xlink:href="#m71eb6fd22a" y="514.830936"/>
      </g>
     </g>
     <g id="text_52">
      <!-- $\mathdefault{5}$ -->
      <g transform="translate(801.927596 532.900524)scale(0.16 -0.16)">
       <use transform="scale(0.996264)" xlink:href="#CMR17-53"/>
      </g>
     </g>
    </g>
    <g id="xtick_23">
     <g id="line2d_51">
      <g>
       <use style="stroke:#000000;stroke-width:0.8;" x="874.545865" xlink:href="#m71eb6fd22a" y="514.830936"/>
      </g>
     </g>
     <g id="text_53">
      <!-- $\mathdefault{10}$ -->
      <g transform="translate(866.741878 532.900524)scale(0.16 -0.16)">
       <use transform="scale(0.996264)" xlink:href="#CMR17-49"/>
       <use transform="translate(45.690477 0)scale(0.996264)" xlink:href="#CMR17-48"/>
      </g>
     </g>
    </g>
    <g id="xtick_24">
     <g id="line2d_52">
      <g>
       <use style="stroke:#000000;stroke-width:0.8;" x="943.262141" xlink:href="#m71eb6fd22a" y="514.830936"/>
      </g>
     </g>
     <g id="text_54">
      <!-- $\mathdefault{15}$ -->
      <g transform="translate(935.458154 532.900524)scale(0.16 -0.16)">
       <use transform="scale(0.996264)" xlink:href="#CMR17-49"/>
       <use transform="translate(45.690477 0)scale(0.996264)" xlink:href="#CMR17-53"/>
      </g>
     </g>
    </g>
   </g>
   <g id="matplotlib.axis_12">
    <g id="ytick_24">
     <g id="line2d_53">
      <g>
       <use style="stroke:#000000;stroke-width:0.8;" x="726.11871" xlink:href="#md505d3dae2" y="506.373655"/>
      </g>
     </g>
     <g id="text_55">
      <!-- $\mathdefault{−1}$ -->
      <g transform="translate(698.916727 511.908449)scale(0.16 -0.16)">
       <use transform="scale(0.996264)" xlink:href="#CMSY10-0"/>
       <use transform="translate(77.487468 0)scale(0.996264)" xlink:href="#CMR17-49"/>
      </g>
     </g>
    </g>
    <g id="ytick_25">
     <g id="line2d_54">
      <g>
       <use style="stroke:#000000;stroke-width:0.8;" x="726.11871" xlink:href="#md505d3dae2" y="456.382073"/>
      </g>
     </g>
     <g id="text_56">
      <!-- $\mathdefault{0}$ -->
      <g transform="translate(711.314723 461.916867)scale(0.16 -0.16)">
       <use transform="scale(0.996264)" xlink:href="#CMR17-48"/>
      </g>
     </g>
    </g>
    <g id="ytick_26">
     <g id="line2d_55">
      <g>
       <use style="stroke:#000000;stroke-width:0.8;" x="726.11871" xlink:href="#md505d3dae2" y="406.390491"/>
      </g>
     </g>
     <g id="text_57">
      <!-- $\mathdefault{1}$ -->
      <g transform="translate(711.314723 411.925286)scale(0.16 -0.16)">
       <use transform="scale(0.996264)" xlink:href="#CMR17-49"/>
      </g>
     </g>
    </g>
    <g id="ytick_27">
     <g id="line2d_56">
      <g>
       <use style="stroke:#000000;stroke-width:0.8;" x="726.11871" xlink:href="#md505d3dae2" y="356.39891"/>
      </g>
     </g>
     <g id="text_58">
      <!-- $\mathdefault{2}$ -->
      <g transform="translate(711.314723 361.933704)scale(0.16 -0.16)">
       <use transform="scale(0.996264)" xlink:href="#CMR17-50"/>
      </g>
     </g>
    </g>
    <g id="text_59">
     <!-- $\times\mathdefault{10^{−18}}\mathdefault{}$ -->
     <g transform="translate(726.11871 314.057736)scale(0.16 -0.16)">
      <use transform="scale(0.996264)" xlink:href="#CMSY10-2"/>
      <use transform="translate(77.487468 0)scale(0.996264)" xlink:href="#CMR17-49"/>
      <use transform="translate(123.177945 0)scale(0.996264)" xlink:href="#CMR17-48"/>
      <use transform="translate(168.868422 36.153639)scale(0.697382)" xlink:href="#CMSY10-0"/>
      <use transform="translate(223.109415 36.153639)scale(0.697382)" xlink:href="#CMR17-49"/>
      <use transform="translate(255.092597 36.153639)scale(0.697382)" xlink:href="#CMR17-56"/>
     </g>
    </g>
   </g>
   <g id="LineCollection_6">
    <path clip-path="url(#pc9c15193be)" d="M 737.113314 456.382073 
L 737.113314 456.382073 
" style="fill:none;stroke:#ff0000;stroke-width:2;"/>
    <path clip-path="url(#pc9c15193be)" d="M 750.856569 505.841245 
L 750.856569 383.793724 
" style="fill:none;stroke:#ff0000;stroke-width:2;"/>
    <path clip-path="url(#pc9c15193be)" d="M 764.599824 398.042954 
L 764.599824 326.047427 
" style="fill:none;stroke:#ff0000;stroke-width:2;"/>
    <path clip-path="url(#pc9c15193be)" d="M 778.34308 462.050082 
L 778.34308 410.812911 
" style="fill:none;stroke:#ff0000;stroke-width:2;"/>
    <path clip-path="url(#pc9c15193be)" d="M 792.086335 502.720715 
L 792.086335 464.391325 
" style="fill:none;stroke:#ff0000;stroke-width:2;"/>
    <path clip-path="url(#pc9c15193be)" d="M 805.82959 461.722702 
L 805.82959 432.19502 
" style="fill:none;stroke:#ff0000;stroke-width:2;"/>
    <path clip-path="url(#pc9c15193be)" d="M 819.572845 467.271273 
L 819.572845 445.404381 
" style="fill:none;stroke:#ff0000;stroke-width:2;"/>
    <path clip-path="url(#pc9c15193be)" d="M 833.3161 462.470429 
L 833.3161 446.534144 
" style="fill:none;stroke:#ff0000;stroke-width:2;"/>
    <path clip-path="url(#pc9c15193be)" d="M 847.059355 462.083026 
L 847.059355 450.021224 
" style="fill:none;stroke:#ff0000;stroke-width:2;"/>
    <path clip-path="url(#pc9c15193be)" d="M 860.80261 465.210238 
L 860.80261 455.765663 
" style="fill:none;stroke:#ff0000;stroke-width:2;"/>
    <path clip-path="url(#pc9c15193be)" d="M 874.545865 468.231487 
L 874.545865 459.95688 
" style="fill:none;stroke:#ff0000;stroke-width:2;"/>
    <path clip-path="url(#pc9c15193be)" d="M 888.28912 459.607581 
L 888.28912 454.562942 
" style="fill:none;stroke:#ff0000;stroke-width:2;"/>
    <path clip-path="url(#pc9c15193be)" d="M 902.032375 460.551266 
L 902.032375 456.862702 
" style="fill:none;stroke:#ff0000;stroke-width:2;"/>
    <path clip-path="url(#pc9c15193be)" d="M 915.775631 455.956084 
L 915.775631 453.002114 
" style="fill:none;stroke:#ff0000;stroke-width:2;"/>
    <path clip-path="url(#pc9c15193be)" d="M 929.518886 458.040988 
L 929.518886 455.681613 
" style="fill:none;stroke:#ff0000;stroke-width:2;"/>
    <path clip-path="url(#pc9c15193be)" d="M 943.262141 458.819622 
L 943.262141 456.681714 
" style="fill:none;stroke:#ff0000;stroke-width:2;"/>
    <path clip-path="url(#pc9c15193be)" d="M 957.005396 456.382073 
L 957.005396 456.382073 
" style="fill:none;stroke:#ff0000;stroke-width:2;"/>
   </g>
   <g id="line2d_57">
    <path clip-path="url(#pc9c15193be)" d="M 737.113314 456.382073 
L 750.856569 444.817484 
L 764.599824 362.04519 
L 778.34308 436.431497 
L 792.086335 483.55602 
L 805.82959 446.958861 
L 819.572845 456.337827 
L 833.3161 454.502287 
L 847.059355 456.052125 
L 860.80261 460.487951 
L 874.545865 464.094183 
L 888.28912 457.085262 
L 902.032375 458.706984 
L 915.775631 454.479099 
L 929.518886 456.861301 
L 943.262141 457.750668 
L 957.005396 456.382073 
" style="fill:none;stroke:#000000;stroke-linecap:square;stroke-width:2;"/>
   </g>
   <g id="patch_28">
    <path d="M 726.11871 514.830936 
L 726.11871 317.057736 
" style="fill:none;stroke:#000000;stroke-linecap:square;stroke-linejoin:miter;stroke-width:0.8;"/>
   </g>
   <g id="patch_29">
    <path d="M 968 514.830936 
L 968 317.057736 
" style="fill:none;stroke:#000000;stroke-linecap:square;stroke-linejoin:miter;stroke-width:0.8;"/>
   </g>
   <g id="patch_30">
    <path d="M 726.11871 514.830936 
L 968 514.830936 
" style="fill:none;stroke:#000000;stroke-linecap:square;stroke-linejoin:miter;stroke-width:0.8;"/>
   </g>
   <g id="patch_31">
    <path d="M 726.11871 317.057736 
L 968 317.057736 
" style="fill:none;stroke:#000000;stroke-linecap:square;stroke-linejoin:miter;stroke-width:0.8;"/>
   </g>
  </g>
 </g>
 <defs>
  <clipPath id="pce48ef2860">
   <rect height="197.773199" width="241.88129" x="92.457146" y="63.911226"/>
  </clipPath>
  <clipPath id="p1f18d778b8">
   <rect height="197.773199" width="241.88129" x="409.287928" y="63.911226"/>
  </clipPath>
  <clipPath id="p33467744f6">
   <rect height="197.773199" width="241.88129" x="726.11871" y="63.911226"/>
  </clipPath>
  <clipPath id="p4eb959ebef">
   <rect height="197.773199" width="241.88129" x="92.457146" y="317.057736"/>
  </clipPath>
  <clipPath id="pcdfc15143d">
   <rect height="197.773199" width="241.88129" x="409.287928" y="317.057736"/>
  </clipPath>
  <clipPath id="pc9c15193be">
   <rect height="197.773199" width="241.88129" x="726.11871" y="317.057736"/>
  </clipPath>
 </defs>
</svg>
