<?xml version="1.0" encoding="utf-8" standalone="no"?>
<!DOCTYPE svg PUBLIC "-//W3C//DTD SVG 1.1//EN"
  "http://www.w3.org/Graphics/SVG/1.1/DTD/svg11.dtd">
<!-- Created with matplotlib (https://matplotlib.org/) -->
<svg height="648pt" version="1.1" viewBox="0 0 720 648" width="720pt" xmlns="http://www.w3.org/2000/svg" xmlns:xlink="http://www.w3.org/1999/xlink">
 <metadata>
  <rdf:RDF xmlns:cc="http://creativecommons.org/ns#" xmlns:dc="http://purl.org/dc/elements/1.1/" xmlns:rdf="http://www.w3.org/1999/02/22-rdf-syntax-ns#">
   <cc:Work>
    <dc:type rdf:resource="http://purl.org/dc/dcmitype/StillImage"/>
    <dc:date>2022-10-16T16:42:17.762840</dc:date>
    <dc:format>image/svg+xml</dc:format>
    <dc:creator>
     <cc:Agent>
      <dc:title>Matplotlib v3.3.4, https://matplotlib.org/</dc:title>
     </cc:Agent>
    </dc:creator>
   </cc:Work>
  </rdf:RDF>
 </metadata>
 <defs>
  <style type="text/css">*{stroke-linecap:butt;stroke-linejoin:round;}</style>
 </defs>
 <g id="figure_1">
  <g id="patch_1">
   <path d="M 0 648 
L 720 648 
L 720 0 
L 0 0 
z
" style="fill:#ffffff;"/>
  </g>
  <g id="axes_1">
   <g id="patch_2">
    <path d="M 110.420301 195.208657 
L 365.539391 195.208657 
L 365.539391 72 
L 110.420301 72 
z
" style="fill:#ffffff;"/>
   </g>
   <g id="matplotlib.axis_1">
    <g id="xtick_1">
     <g id="line2d_1">
      <defs>
       <path d="M 0 0 
L 0 3.5 
" id="m5d242598f0" style="stroke:#000000;stroke-width:0.8;"/>
      </defs>
      <g>
       <use style="stroke:#000000;stroke-width:0.8;" x="179.998235" xlink:href="#m5d242598f0" y="195.208657"/>
      </g>
     </g>
     <g id="text_1">
      <!-- $\mathdefault{5}$ -->
      <g transform="translate(176.096241 213.278245)scale(0.16 -0.16)">
       <defs>
        <path d="M 11.40625 57.6875 
C 12.40625 57.28125 16.5 56 20.703125 56 
C 30 56 35.09375 61.109375 38 64.0625 
C 38 64.953125 38 65.5 37.40625 65.5 
C 37.296875 65.5 37.09375 65.5 36.296875 65.046875 
C 32.796875 63.40625 28.703125 62.078125 23.703125 62.078125 
C 20.703125 62.078125 16.203125 62.484375 11.296875 64.671875 
C 10.203125 65.171875 10 65.171875 9.90625 65.171875 
C 9.40625 65.171875 9.296875 65.0625 9.296875 63.078125 
L 9.296875 34.421875 
C 9.296875 32.640625 9.296875 32.140625 10.296875 32.140625 
C 10.796875 32.140625 11 32.34375 11.5 33.03125 
C 14.703125 37.515625 19.09375 39.40625 24.09375 39.40625 
C 27.59375 39.40625 35.09375 37.21875 35.09375 20.140625 
C 35.09375 16.953125 35.09375 11.171875 32.09375 6.578125 
C 29.59375 2.484375 25.703125 0.390625 21.40625 0.390625 
C 14.796875 0.390625 8.09375 5 6.296875 12.71875 
C 6.703125 12.609375 7.5 12.421875 7.90625 12.421875 
C 9.203125 12.421875 11.703125 13.125 11.703125 16.21875 
C 11.703125 18.90625 9.796875 20 7.90625 20 
C 5.59375 20 4.09375 18.59375 4.09375 15.796875 
C 4.09375 7.09375 11 -2 21.59375 -2 
C 31.90625 -2 41.703125 6.875 41.703125 19.75 
C 41.703125 31.71875 33.90625 41 24.203125 41 
C 19.09375 41 14.796875 39.109375 11.40625 35.53125 
z
" id="CMR17-53"/>
       </defs>
       <use transform="scale(0.996264)" xlink:href="#CMR17-53"/>
      </g>
     </g>
    </g>
    <g id="xtick_2">
     <g id="line2d_2">
      <g>
       <use style="stroke:#000000;stroke-width:0.8;" x="276.634254" xlink:href="#m5d242598f0" y="195.208657"/>
      </g>
     </g>
     <g id="text_2">
      <!-- $\mathdefault{10}$ -->
      <g transform="translate(268.830267 213.278245)scale(0.16 -0.16)">
       <defs>
        <path d="M 26.59375 63.40625 
C 26.59375 65.5 26.5 65.5 25.09375 65.5 
C 21.203125 61.1875 15.296875 59.796875 9.703125 59.796875 
C 9.40625 59.796875 8.90625 59.796875 8.796875 59.5 
C 8.703125 59.296875 8.703125 59.09375 8.703125 57 
C 11.796875 57 17 57.59375 21 59.984375 
L 21 7.203125 
C 21 3.6875 20.796875 2.5 12.203125 2.5 
L 9.203125 2.5 
L 9.203125 0 
C 14 0 19 0 23.796875 0 
C 28.59375 0 33.59375 0 38.40625 0 
L 38.40625 2.5 
L 35.40625 2.5 
C 26.796875 2.5 26.59375 3.59375 26.59375 7.15625 
z
" id="CMR17-49"/>
        <path d="M 42 31.640625 
C 42 37.75 41.90625 48.125 37.703125 56.109375 
C 34 63.109375 28.09375 65.59375 22.90625 65.59375 
C 18.09375 65.59375 12 63.40625 8.203125 56.203125 
C 4.203125 48.71875 3.796875 39.4375 3.796875 31.640625 
C 3.796875 25.953125 3.90625 17.28125 7 9.671875 
C 11.296875 -0.609375 19 -2 22.90625 -2 
C 27.5 -2 34.5 -0.109375 38.59375 9.375 
C 41.59375 16.28125 42 24.359375 42 31.640625 
z
M 22.90625 -0.40625 
C 16.5 -0.40625 12.703125 5.078125 11.296875 12.6875 
C 10.203125 18.5625 10.203125 27.15625 10.203125 32.75 
C 10.203125 40.4375 10.203125 46.828125 11.5 52.921875 
C 13.40625 61.390625 19 64 22.90625 64 
C 27 64 32.296875 61.296875 34.203125 53.125 
C 35.5 47.4375 35.59375 40.734375 35.59375 32.75 
C 35.59375 26.25 35.59375 18.265625 34.40625 12.375 
C 32.296875 1.484375 26.40625 -0.40625 22.90625 -0.40625 
z
" id="CMR17-48"/>
       </defs>
       <use transform="scale(0.996264)" xlink:href="#CMR17-49"/>
       <use transform="translate(45.690477 0)scale(0.996264)" xlink:href="#CMR17-48"/>
      </g>
     </g>
    </g>
   </g>
   <g id="matplotlib.axis_2">
    <g id="ytick_1">
     <g id="line2d_3">
      <defs>
       <path d="M 0 0 
L -3.5 0 
" id="mfaf207c6af" style="stroke:#000000;stroke-width:0.8;"/>
      </defs>
      <g>
       <use style="stroke:#000000;stroke-width:0.8;" x="110.420301" xlink:href="#mfaf207c6af" y="189.60951"/>
      </g>
     </g>
     <g id="text_3">
      <!-- $\mathdefault{0.000}$ -->
      <g transform="translate(67.868805 195.144304)scale(0.16 -0.16)">
       <defs>
        <path d="M 18.40625 4.796875 
C 18.40625 7.6875 16 9.671875 13.59375 9.671875 
C 10.703125 9.671875 8.703125 7.28125 8.703125 4.890625 
C 8.703125 2 11.09375 0 13.5 0 
C 16.40625 0 18.40625 2.390625 18.40625 4.796875 
z
" id="CMMI12-58"/>
       </defs>
       <use transform="scale(0.996264)" xlink:href="#CMR17-48"/>
       <use transform="translate(45.690477 0)scale(0.996264)" xlink:href="#CMMI12-58"/>
       <use transform="translate(72.787654 0)scale(0.996264)" xlink:href="#CMR17-48"/>
       <use transform="translate(118.478131 0)scale(0.996264)" xlink:href="#CMR17-48"/>
       <use transform="translate(164.168608 0)scale(0.996264)" xlink:href="#CMR17-48"/>
      </g>
     </g>
    </g>
    <g id="ytick_2">
     <g id="line2d_4">
      <g>
       <use style="stroke:#000000;stroke-width:0.8;" x="110.420301" xlink:href="#mfaf207c6af" y="142.015649"/>
      </g>
     </g>
     <g id="text_4">
      <!-- $\mathdefault{0.005}$ -->
      <g transform="translate(67.868805 147.550443)scale(0.16 -0.16)">
       <use transform="scale(0.996264)" xlink:href="#CMR17-48"/>
       <use transform="translate(45.690477 0)scale(0.996264)" xlink:href="#CMMI12-58"/>
       <use transform="translate(72.787654 0)scale(0.996264)" xlink:href="#CMR17-48"/>
       <use transform="translate(118.478131 0)scale(0.996264)" xlink:href="#CMR17-48"/>
       <use transform="translate(164.168608 0)scale(0.996264)" xlink:href="#CMR17-53"/>
      </g>
     </g>
    </g>
    <g id="ytick_3">
     <g id="line2d_5">
      <g>
       <use style="stroke:#000000;stroke-width:0.8;" x="110.420301" xlink:href="#mfaf207c6af" y="94.421789"/>
      </g>
     </g>
     <g id="text_5">
      <!-- $\mathdefault{0.010}$ -->
      <g transform="translate(67.868805 99.956583)scale(0.16 -0.16)">
       <use transform="scale(0.996264)" xlink:href="#CMR17-48"/>
       <use transform="translate(45.690477 0)scale(0.996264)" xlink:href="#CMMI12-58"/>
       <use transform="translate(72.787654 0)scale(0.996264)" xlink:href="#CMR17-48"/>
       <use transform="translate(118.478131 0)scale(0.996264)" xlink:href="#CMR17-49"/>
       <use transform="translate(164.168608 0)scale(0.996264)" xlink:href="#CMR17-48"/>
      </g>
     </g>
    </g>
    <g id="text_6">
     <!-- (3, 9) -->
     <g transform="translate(57.911226 159.631065)rotate(-90)scale(0.24 -0.24)">
      <defs>
       <path d="M 30.59375 -24.390625 
C 30.59375 -24.296875 30.59375 -24.09375 30.296875 -23.796875 
C 25.703125 -19.125 13.40625 -6.359375 13.40625 24.703125 
C 13.40625 55.765625 25.5 68.421875 30.40625 73.390625 
C 30.40625 73.5 30.59375 73.703125 30.59375 74 
C 30.59375 74.296875 30.296875 74.5 29.90625 74.5 
C 28.796875 74.5 20.296875 67.125 15.40625 56.15625 
C 10.40625 45.109375 9 34.359375 9 24.8125 
C 9 17.625 9.703125 5.484375 15.703125 -7.359375 
C 20.5 -17.734375 28.703125 -25 29.90625 -25 
C 30.40625 -25 30.59375 -24.796875 30.59375 -24.390625 
z
" id="CMR17-40"/>
       <path d="M 22.09375 33.703125 
C 31 33.703125 34.90625 25.96875 34.90625 17.03125 
C 34.90625 5 28.5 0.390625 22.703125 0.390625 
C 17.40625 0.390625 8.796875 3.03125 6.09375 10.828125 
C 6.59375 10.625 7.09375 10.625 7.59375 10.625 
C 10 10.625 11.796875 12.21875 11.796875 14.8125 
C 11.796875 17.703125 9.59375 19 7.59375 19 
C 5.90625 19 3.296875 18.203125 3.296875 14.46875 
C 3.296875 5.234375 12.296875 -2 22.90625 -2 
C 34 -2 42.5 6.71875 42.5 16.953125 
C 42.5 26.671875 34.5 33.703125 25 34.796875 
C 32.59375 36.375 39.90625 43.0625 39.90625 52.015625 
C 39.90625 59.6875 32 65.296875 23 65.296875 
C 13.90625 65.296875 5.90625 59.828125 5.90625 52.015625 
C 5.90625 48.59375 8.5 48 9.796875 48 
C 11.90625 48 13.703125 49.296875 13.703125 51.890625 
C 13.703125 54.46875 11.90625 55.765625 9.796875 55.765625 
C 9.40625 55.765625 8.90625 55.765625 8.5 55.578125 
C 11.40625 61.859375 19.296875 63 22.796875 63 
C 26.296875 63 32.90625 61.328125 32.90625 51.875 
C 32.90625 49.109375 32.5 44.1875 29.09375 39.84375 
C 26.09375 36 22.703125 36 19.40625 35.6875 
C 18.90625 35.6875 16.59375 35.453125 16.203125 35.453125 
C 15.5 35.359375 15.09375 35.265625 15.09375 34.5 
C 15.09375 33.796875 15.203125 33.703125 17.203125 33.703125 
z
" id="CMR17-51"/>
       <path d="M 15.796875 1.59375 
C 16 0.703125 16 0.390625 16 -1.203125 
C 16 -7.234375 14 -12.765625 9.796875 -17.796875 
C 9.296875 -18.28125 9.296875 -18.484375 9.296875 -18.703125 
C 9.296875 -19.09375 9.703125 -19.5 10.09375 -19.5 
C 10.703125 -19.5 17.59375 -12.484375 17.59375 -1.359375 
C 17.59375 1.9375 17.203125 8.15625 12.5 8.15625 
C 10.296875 8.15625 8.40625 6.671875 8.40625 4.078125 
C 8.40625 1.5 10.296875 0 12.5 0 
C 13.703125 0 15 0.5 15.796875 1.59375 
z
" id="CMR17-44"/>
       <path d="M 35.203125 29.125 
C 35.203125 7.25 26.09375 0.484375 18.59375 0.484375 
C 16.296875 0.484375 10.703125 0.484375 8.40625 4.59375 
C 11 4.1875 12.90625 5.578125 12.90625 8.09375 
C 12.90625 10.8125 10.703125 11.703125 9.296875 11.703125 
C 8.40625 11.703125 5.703125 11.296875 5.703125 7.90625 
C 5.703125 1.109375 11.59375 -2 18.796875 -2 
C 30.296875 -2 42 10.53125 42 32.390625 
C 42 59.640625 30.796875 65.296875 23.203125 65.296875 
C 13.296875 65.296875 3.796875 56.6875 3.796875 43.40625 
C 3.796875 31.109375 11.90625 22 22.09375 22 
C 30.5 22 34.203125 29.734375 35.203125 33 
z
M 22.296875 23.59375 
C 19.59375 23.59375 15.796875 24.09375 12.703125 30.03125 
C 10.59375 33.890625 10.59375 38.453125 10.59375 43.296875 
C 10.59375 49.15625 10.59375 53.203125 13.40625 57.5625 
C 14.796875 59.640625 17.40625 63 23.203125 63 
C 35 63 35 45.078125 35 41.125 
C 35 34.09375 31.796875 23.59375 22.296875 23.59375 
z
" id="CMR17-57"/>
       <path d="M 26.296875 24.703125 
C 26.296875 31.875 25.59375 44.015625 19.59375 56.859375 
C 14.796875 67.234375 6.59375 74.5 5.40625 74.5 
C 5.09375 74.5 4.703125 74.390625 4.703125 73.890625 
C 4.703125 73.703125 4.796875 73.59375 4.90625 73.390625 
C 9.703125 68.40625 21.90625 55.75 21.90625 24.75 
C 21.90625 -6.359375 9.796875 -19.015625 4.90625 -24.015625 
C 4.796875 -24.203125 4.703125 -24.3125 4.703125 -24.5 
C 4.703125 -25 5.09375 -25 5.40625 -25 
C 6.5 -25 15 -17.625 19.90625 -6.65625 
C 24.90625 4.390625 26.296875 15.140625 26.296875 24.703125 
z
" id="CMR17-41"/>
      </defs>
      <use transform="scale(0.996264)" xlink:href="#CMR17-40"/>
      <use transform="translate(35.280768 0)scale(0.996264)" xlink:href="#CMR17-51"/>
      <use transform="translate(80.971245 0)scale(0.996264)" xlink:href="#CMR17-44"/>
      <use transform="translate(135.91827 0)scale(0.996264)" xlink:href="#CMR17-57"/>
      <use transform="translate(181.608747 0)scale(0.996264)" xlink:href="#CMR17-41"/>
     </g>
    </g>
   </g>
   <g id="LineCollection_1">
    <path clip-path="url(#p3469980291)" d="M 122.016624 146.258059 
L 122.016624 83.585159 
" style="fill:none;stroke:#ff0000;stroke-opacity:0.2;stroke-width:2;"/>
    <path clip-path="url(#p3469980291)" d="M 141.343827 177.263301 
L 141.343827 169.097736 
" style="fill:none;stroke:#ff0000;stroke-opacity:0.2;stroke-width:2;"/>
    <path clip-path="url(#p3469980291)" d="M 160.671031 185.59124 
L 160.671031 184.995912 
" style="fill:none;stroke:#ff0000;stroke-opacity:0.2;stroke-width:2;"/>
    <path clip-path="url(#p3469980291)" d="M 179.998235 188.221035 
L 179.998235 188.160267 
" style="fill:none;stroke:#ff0000;stroke-opacity:0.2;stroke-width:2;"/>
    <path clip-path="url(#p3469980291)" d="M 199.325439 189.050139 
L 199.325439 189.030497 
" style="fill:none;stroke:#ff0000;stroke-opacity:0.2;stroke-width:2;"/>
    <path clip-path="url(#p3469980291)" d="M 218.652643 189.382033 
L 218.652643 189.316248 
" style="fill:none;stroke:#ff0000;stroke-opacity:0.2;stroke-width:2;"/>
    <path clip-path="url(#p3469980291)" d="M 237.979846 189.513128 
L 237.979846 189.449379 
" style="fill:none;stroke:#ff0000;stroke-opacity:0.2;stroke-width:2;"/>
    <path clip-path="url(#p3469980291)" d="M 257.30705 189.567078 
L 257.30705 189.520272 
" style="fill:none;stroke:#ff0000;stroke-opacity:0.2;stroke-width:2;"/>
    <path clip-path="url(#p3469980291)" d="M 276.634254 189.590122 
L 276.634254 189.559624 
" style="fill:none;stroke:#ff0000;stroke-opacity:0.2;stroke-width:2;"/>
    <path clip-path="url(#p3469980291)" d="M 295.961458 189.600327 
L 295.961458 189.581634 
" style="fill:none;stroke:#ff0000;stroke-opacity:0.2;stroke-width:2;"/>
    <path clip-path="url(#p3469980291)" d="M 315.288662 189.605005 
L 315.288662 189.593902 
" style="fill:none;stroke:#ff0000;stroke-opacity:0.2;stroke-width:2;"/>
    <path clip-path="url(#p3469980291)" d="M 334.615865 189.607212 
L 334.615865 189.600668 
" style="fill:none;stroke:#ff0000;stroke-opacity:0.2;stroke-width:2;"/>
    <path clip-path="url(#p3469980291)" d="M 353.943069 189.608264 
L 353.943069 189.604293 
" style="fill:none;stroke:#ff0000;stroke-opacity:0.2;stroke-width:2;"/>
   </g>
   <g id="LineCollection_2">
    <path clip-path="url(#p3469980291)" d="M 141.343827 177.263301 
L 141.343827 169.097736 
" style="fill:none;stroke:#ff0000;stroke-width:2;"/>
    <path clip-path="url(#p3469980291)" d="M 160.671031 185.59124 
L 160.671031 184.995912 
" style="fill:none;stroke:#ff0000;stroke-width:2;"/>
    <path clip-path="url(#p3469980291)" d="M 179.998235 188.221035 
L 179.998235 188.160267 
" style="fill:none;stroke:#ff0000;stroke-width:2;"/>
    <path clip-path="url(#p3469980291)" d="M 199.325439 189.050139 
L 199.325439 189.030497 
" style="fill:none;stroke:#ff0000;stroke-width:2;"/>
    <path clip-path="url(#p3469980291)" d="M 218.652643 189.382033 
L 218.652643 189.316248 
" style="fill:none;stroke:#ff0000;stroke-width:2;"/>
    <path clip-path="url(#p3469980291)" d="M 237.979846 189.513128 
L 237.979846 189.449379 
" style="fill:none;stroke:#ff0000;stroke-width:2;"/>
   </g>
   <g id="LineCollection_3">
    <path clip-path="url(#p3469980291)" d="M 122.016624 80.839981 
L 122.016624 77.600394 
" style="fill:none;stroke:#000000;stroke-width:2;"/>
    <path clip-path="url(#p3469980291)" d="M 141.343827 170.528643 
L 141.343827 170.135538 
" style="fill:none;stroke:#000000;stroke-width:2;"/>
    <path clip-path="url(#p3469980291)" d="M 160.671031 185.133832 
L 160.671031 185.071979 
" style="fill:none;stroke:#000000;stroke-width:2;"/>
    <path clip-path="url(#p3469980291)" d="M 179.998235 188.210812 
L 179.998235 188.188981 
" style="fill:none;stroke:#000000;stroke-width:2;"/>
    <path clip-path="url(#p3469980291)" d="M 199.325439 189.042569 
L 199.325439 189.031833 
" style="fill:none;stroke:#000000;stroke-width:2;"/>
    <path clip-path="url(#p3469980291)" d="M 218.652643 189.333569 
L 218.652643 189.327338 
" style="fill:none;stroke:#000000;stroke-width:2;"/>
    <path clip-path="url(#p3469980291)" d="M 237.979846 189.460536 
L 237.979846 189.454858 
" style="fill:none;stroke:#000000;stroke-width:2;"/>
    <path clip-path="url(#p3469980291)" d="M 257.30705 189.520943 
L 257.30705 189.518569 
" style="fill:none;stroke:#000000;stroke-width:2;"/>
    <path clip-path="url(#p3469980291)" d="M 276.634254 189.553609 
L 276.634254 189.550502 
" style="fill:none;stroke:#000000;stroke-width:2;"/>
    <path clip-path="url(#p3469980291)" d="M 295.961458 189.572678 
L 295.961458 189.571176 
" style="fill:none;stroke:#000000;stroke-width:2;"/>
    <path clip-path="url(#p3469980291)" d="M 315.288662 189.585196 
L 315.288662 189.583693 
" style="fill:none;stroke:#000000;stroke-width:2;"/>
    <path clip-path="url(#p3469980291)" d="M 334.615865 189.592172 
L 334.615865 189.590816 
" style="fill:none;stroke:#000000;stroke-width:2;"/>
    <path clip-path="url(#p3469980291)" d="M 353.943069 189.596457 
L 353.943069 189.59555 
" style="fill:none;stroke:#000000;stroke-width:2;"/>
   </g>
   <g id="line2d_6">
    <path clip-path="url(#p3469980291)" d="M 122.016624 114.921609 
L 141.343827 173.180518 
L 160.671031 185.293576 
L 179.998235 188.190651 
L 199.325439 189.040318 
L 218.652643 189.349141 
L 237.979846 189.481253 
L 257.30705 189.543675 
L 276.634254 189.574873 
L 295.961458 189.590981 
L 315.288662 189.599454 
L 334.615865 189.60394 
L 353.943069 189.606278 
" style="fill:none;stroke:#ff0000;stroke-linecap:square;stroke-opacity:0.2;stroke-width:2;"/>
    <defs>
     <path d="M 0 4 
C 1.060812 4 2.078319 3.578535 2.828427 2.828427 
C 3.578535 2.078319 4 1.060812 4 0 
C 4 -1.060812 3.578535 -2.078319 2.828427 -2.828427 
C 2.078319 -3.578535 1.060812 -4 0 -4 
C -1.060812 -4 -2.078319 -3.578535 -2.828427 -2.828427 
C -3.578535 -2.078319 -4 -1.060812 -4 0 
C -4 1.060812 -3.578535 2.078319 -2.828427 2.828427 
C -2.078319 3.578535 -1.060812 4 0 4 
z
" id="mf6118bcb0a" style="stroke:#ff0000;stroke-opacity:0.2;"/>
    </defs>
    <g clip-path="url(#p3469980291)">
     <use style="fill:#ff0000;fill-opacity:0.2;stroke:#ff0000;stroke-opacity:0.2;" x="122.016624" xlink:href="#mf6118bcb0a" y="114.921609"/>
     <use style="fill:#ff0000;fill-opacity:0.2;stroke:#ff0000;stroke-opacity:0.2;" x="141.343827" xlink:href="#mf6118bcb0a" y="173.180518"/>
     <use style="fill:#ff0000;fill-opacity:0.2;stroke:#ff0000;stroke-opacity:0.2;" x="160.671031" xlink:href="#mf6118bcb0a" y="185.293576"/>
     <use style="fill:#ff0000;fill-opacity:0.2;stroke:#ff0000;stroke-opacity:0.2;" x="179.998235" xlink:href="#mf6118bcb0a" y="188.190651"/>
     <use style="fill:#ff0000;fill-opacity:0.2;stroke:#ff0000;stroke-opacity:0.2;" x="199.325439" xlink:href="#mf6118bcb0a" y="189.040318"/>
     <use style="fill:#ff0000;fill-opacity:0.2;stroke:#ff0000;stroke-opacity:0.2;" x="218.652643" xlink:href="#mf6118bcb0a" y="189.349141"/>
     <use style="fill:#ff0000;fill-opacity:0.2;stroke:#ff0000;stroke-opacity:0.2;" x="237.979846" xlink:href="#mf6118bcb0a" y="189.481253"/>
     <use style="fill:#ff0000;fill-opacity:0.2;stroke:#ff0000;stroke-opacity:0.2;" x="257.30705" xlink:href="#mf6118bcb0a" y="189.543675"/>
     <use style="fill:#ff0000;fill-opacity:0.2;stroke:#ff0000;stroke-opacity:0.2;" x="276.634254" xlink:href="#mf6118bcb0a" y="189.574873"/>
     <use style="fill:#ff0000;fill-opacity:0.2;stroke:#ff0000;stroke-opacity:0.2;" x="295.961458" xlink:href="#mf6118bcb0a" y="189.590981"/>
     <use style="fill:#ff0000;fill-opacity:0.2;stroke:#ff0000;stroke-opacity:0.2;" x="315.288662" xlink:href="#mf6118bcb0a" y="189.599454"/>
     <use style="fill:#ff0000;fill-opacity:0.2;stroke:#ff0000;stroke-opacity:0.2;" x="334.615865" xlink:href="#mf6118bcb0a" y="189.60394"/>
     <use style="fill:#ff0000;fill-opacity:0.2;stroke:#ff0000;stroke-opacity:0.2;" x="353.943069" xlink:href="#mf6118bcb0a" y="189.606278"/>
    </g>
   </g>
   <g id="line2d_7">
    <path clip-path="url(#p3469980291)" d="M 141.343827 173.180518 
L 160.671031 185.293576 
L 179.998235 188.190651 
L 199.325439 189.040318 
L 218.652643 189.349141 
L 237.979846 189.481253 
" style="fill:none;stroke:#ff0000;stroke-linecap:square;stroke-width:2;"/>
    <defs>
     <path d="M 0 4 
C 1.060812 4 2.078319 3.578535 2.828427 2.828427 
C 3.578535 2.078319 4 1.060812 4 0 
C 4 -1.060812 3.578535 -2.078319 2.828427 -2.828427 
C 2.078319 -3.578535 1.060812 -4 0 -4 
C -1.060812 -4 -2.078319 -3.578535 -2.828427 -2.828427 
C -3.578535 -2.078319 -4 -1.060812 -4 0 
C -4 1.060812 -3.578535 2.078319 -2.828427 2.828427 
C -2.078319 3.578535 -1.060812 4 0 4 
z
" id="m5e29bad6ec" style="stroke:#ff0000;"/>
    </defs>
    <g clip-path="url(#p3469980291)">
     <use style="fill:#ff0000;stroke:#ff0000;" x="141.343827" xlink:href="#m5e29bad6ec" y="173.180518"/>
     <use style="fill:#ff0000;stroke:#ff0000;" x="160.671031" xlink:href="#m5e29bad6ec" y="185.293576"/>
     <use style="fill:#ff0000;stroke:#ff0000;" x="179.998235" xlink:href="#m5e29bad6ec" y="188.190651"/>
     <use style="fill:#ff0000;stroke:#ff0000;" x="199.325439" xlink:href="#m5e29bad6ec" y="189.040318"/>
     <use style="fill:#ff0000;stroke:#ff0000;" x="218.652643" xlink:href="#m5e29bad6ec" y="189.349141"/>
     <use style="fill:#ff0000;stroke:#ff0000;" x="237.979846" xlink:href="#m5e29bad6ec" y="189.481253"/>
    </g>
   </g>
   <g id="line2d_8">
    <defs>
     <path d="M 0 4 
C 1.060812 4 2.078319 3.578535 2.828427 2.828427 
C 3.578535 2.078319 4 1.060812 4 0 
C 4 -1.060812 3.578535 -2.078319 2.828427 -2.828427 
C 2.078319 -3.578535 1.060812 -4 0 -4 
C -1.060812 -4 -2.078319 -3.578535 -2.828427 -2.828427 
C -3.578535 -2.078319 -4 -1.060812 -4 0 
C -4 1.060812 -3.578535 2.078319 -2.828427 2.828427 
C -2.078319 3.578535 -1.060812 4 0 4 
z
" id="m85c2e535ab" style="stroke:#000000;"/>
    </defs>
    <g clip-path="url(#p3469980291)">
     <use style="stroke:#000000;" x="122.016624" xlink:href="#m85c2e535ab" y="79.220187"/>
     <use style="stroke:#000000;" x="141.343827" xlink:href="#m85c2e535ab" y="170.332091"/>
     <use style="stroke:#000000;" x="160.671031" xlink:href="#m85c2e535ab" y="185.102905"/>
     <use style="stroke:#000000;" x="179.998235" xlink:href="#m85c2e535ab" y="188.199897"/>
     <use style="stroke:#000000;" x="199.325439" xlink:href="#m85c2e535ab" y="189.037201"/>
     <use style="stroke:#000000;" x="218.652643" xlink:href="#m85c2e535ab" y="189.330453"/>
     <use style="stroke:#000000;" x="237.979846" xlink:href="#m85c2e535ab" y="189.457697"/>
     <use style="stroke:#000000;" x="257.30705" xlink:href="#m85c2e535ab" y="189.519756"/>
     <use style="stroke:#000000;" x="276.634254" xlink:href="#m85c2e535ab" y="189.552056"/>
     <use style="stroke:#000000;" x="295.961458" xlink:href="#m85c2e535ab" y="189.571927"/>
     <use style="stroke:#000000;" x="315.288662" xlink:href="#m85c2e535ab" y="189.584444"/>
     <use style="stroke:#000000;" x="334.615865" xlink:href="#m85c2e535ab" y="189.591494"/>
     <use style="stroke:#000000;" x="353.943069" xlink:href="#m85c2e535ab" y="189.596004"/>
    </g>
   </g>
   <g id="patch_3">
    <path d="M 110.420301 195.208657 
L 110.420301 72 
" style="fill:none;stroke:#000000;stroke-linecap:square;stroke-linejoin:miter;stroke-width:0.8;"/>
   </g>
   <g id="patch_4">
    <path d="M 365.539391 195.208657 
L 365.539391 72 
" style="fill:none;stroke:#000000;stroke-linecap:square;stroke-linejoin:miter;stroke-width:0.8;"/>
   </g>
   <g id="patch_5">
    <path d="M 110.420301 195.208657 
L 365.539391 195.208657 
" style="fill:none;stroke:#000000;stroke-linecap:square;stroke-linejoin:miter;stroke-width:0.8;"/>
   </g>
   <g id="patch_6">
    <path d="M 110.420301 72 
L 365.539391 72 
" style="fill:none;stroke:#000000;stroke-linecap:square;stroke-linejoin:miter;stroke-width:0.8;"/>
   </g>
   <g id="text_7">
    <!-- $p=7.47e-04$ -->
    <g transform="translate(212.467937 90.481299)scale(0.24 -0.24)">
     <defs>
      <path d="M 4.296875 -12.328125 
C 3.59375 -15.3125 3.203125 -16.109375 -0.90625 -16.109375 
C -2.09375 -16.109375 -3.09375 -16.109375 -3.09375 -18 
C -3.09375 -18.203125 -3 -19 -1.90625 -19 
C -0.59375 -19 0.796875 -19 2.09375 -19 
L 6.40625 -19 
C 8.5 -19 13.59375 -19 15.703125 -19 
C 16.296875 -19 17.5 -19 17.5 -17.203125 
C 17.5 -16.109375 16.796875 -16.109375 15.09375 -16.109375 
C 10.5 -16.109375 10.203125 -15.421875 10.203125 -14.640625 
C 10.203125 -13.453125 14.703125 3.421875 15.296875 5.6875 
C 16.40625 2.890625 19.09375 -1 24.296875 -1 
C 35.59375 -1 47.796875 13.671875 47.796875 28.34375 
C 47.796875 37.515625 42.59375 44 35.09375 44 
C 28.703125 44 23.296875 37.8125 22.203125 36.421875 
C 21.40625 41.40625 17.5 44 13.5 44 
C 10.59375 44 8.296875 42.609375 6.40625 38.8125 
C 4.59375 35.21875 3.203125 29.140625 3.203125 28.734375 
C 3.203125 28.34375 3.59375 27.84375 4.296875 27.84375 
C 5.09375 27.84375 5.203125 27.9375 5.796875 30.234375 
C 7.296875 36.125 9.203125 42.015625 13.203125 42.015625 
C 15.5 42.015625 16.296875 40.421875 16.296875 37.453125 
C 16.296875 35.078125 16 34.078125 15.59375 32.296875 
z
M 21.59375 31.140625 
C 22.296875 33.921875 25.09375 36.828125 26.703125 38.21875 
C 27.796875 39.21875 31.09375 42.015625 34.90625 42.015625 
C 39.296875 42.015625 41.296875 37.625 41.296875 32.4375 
C 41.296875 27.640625 38.5 16.359375 36 11.171875 
C 33.5 5.78125 28.90625 1 24.296875 1 
C 17.5 1 16.40625 9.578125 16.40625 9.984375 
C 16.40625 10.28125 16.59375 11.078125 16.703125 11.578125 
z
" id="CMMI12-112"/>
      <path d="M 64.296875 31.515625 
C 65.796875 31.515625 67.296875 31.515625 67.296875 33.203125 
C 67.296875 35 65.59375 35 63.90625 35 
L 8 35 
C 6.296875 35 4.59375 35 4.59375 33.203125 
C 4.59375 31.515625 6.09375 31.515625 7.59375 31.515625 
z
M 63.90625 14 
C 65.59375 14 67.296875 14 67.296875 15.796875 
C 67.296875 17.484375 65.796875 17.484375 64.296875 17.484375 
L 7.59375 17.484375 
C 6.09375 17.484375 4.59375 17.484375 4.59375 15.796875 
C 4.59375 14 6.296875 14 8 14 
z
" id="CMR17-61"/>
      <path d="M 45.09375 61.578125 
L 45.09375 63.765625 
L 21.59375 63.765625 
C 9.90625 63.765625 9.703125 65.078125 9.296875 67 
L 7.5 67 
L 4.59375 48.34375 
L 6.40625 48.34375 
C 6.703125 50.234375 7.40625 55.3125 8.59375 57.203125 
C 9.203125 58 16.59375 58 18.296875 58 
L 40.296875 58 
L 29.203125 41.578125 
C 21.796875 30.53125 16.703125 15.609375 16.703125 2.578125 
C 16.703125 1.390625 16.703125 -2 20.296875 -2 
C 23.90625 -2 23.90625 1.390625 23.90625 2.671875 
L 23.90625 7.265625 
C 23.90625 23.5625 26.703125 34.3125 31.296875 41.1875 
z
" id="CMR17-55"/>
      <path d="M 33.59375 64.40625 
C 33.59375 66.5 33.5 66.5 31.703125 66.5 
L 2 19.59375 
L 2 17 
L 27.796875 17 
L 27.796875 7.140625 
C 27.796875 3.5 27.59375 2.5 20.59375 2.5 
L 18.703125 2.5 
L 18.703125 0 
C 21.90625 0 27.296875 0 30.703125 0 
C 34.09375 0 39.5 0 42.703125 0 
L 42.703125 2.5 
L 40.796875 2.5 
C 33.796875 2.5 33.59375 3.5 33.59375 7.140625 
L 33.59375 17 
L 43.796875 17 
L 43.796875 19.59375 
L 33.59375 19.59375 
z
M 28.09375 57.859375 
L 28.09375 19.59375 
L 4 19.59375 
z
" id="CMR17-52"/>
      <path d="M 17.90625 23.109375 
C 20.59375 23.109375 27.40625 23.109375 32.203125 24.921875 
C 39.796875 27.859375 40.5 33.71875 40.5 35.53125 
C 40.5 39.96875 36.703125 44 30.09375 44 
C 19.59375 44 4.5 34.53125 4.5 16.765625 
C 4.5 6.28125 10.5 -1 19.59375 -1 
C 33.203125 -1 41.796875 9.515625 41.796875 10.8125 
C 41.796875 11.40625 41.203125 11.90625 40.796875 11.90625 
C 40.5 11.90625 40.40625 11.8125 39.5 10.921875 
C 33.09375 2.484375 23.59375 1 19.796875 1 
C 14.09375 1 11.09375 5.46875 11.09375 12.84375 
C 11.09375 14.234375 11.09375 16.734375 12.59375 23.109375 
z
M 13.09375 25 
C 17.40625 40.5 26.90625 42.015625 30.09375 42.015625 
C 34.5 42.015625 37.5 39.40625 37.5 35.578125 
C 37.5 25 21.5 25 17.296875 25 
z
" id="CMMI12-101"/>
      <path d="M 65.90625 23 
C 67.59375 23 69.40625 23 69.40625 25 
C 69.40625 27 67.59375 27 65.90625 27 
L 11.796875 27 
C 10.09375 27 8.296875 27 8.296875 25 
C 8.296875 23 10.09375 23 11.796875 23 
z
" id="CMSY10-0"/>
     </defs>
     <use transform="scale(0.996264)" xlink:href="#CMMI12-112"/>
     <use transform="translate(76.633523 0)scale(0.996264)" xlink:href="#CMR17-61"/>
     <use transform="translate(176.02232 0)scale(0.996264)" xlink:href="#CMR17-55"/>
     <use transform="translate(221.712797 0)scale(0.996264)" xlink:href="#CMMI12-58"/>
     <use transform="translate(248.809974 0)scale(0.996264)" xlink:href="#CMR17-52"/>
     <use transform="translate(294.500451 0)scale(0.996264)" xlink:href="#CMR17-55"/>
     <use transform="translate(340.190928 0)scale(0.996264)" xlink:href="#CMMI12-101"/>
     <use transform="translate(407.542136 0)scale(0.996264)" xlink:href="#CMSY10-0"/>
     <use transform="translate(507.168811 0)scale(0.996264)" xlink:href="#CMR17-48"/>
     <use transform="translate(552.859288 0)scale(0.996264)" xlink:href="#CMR17-52"/>
    </g>
   </g>
   <g id="text_8">
    <!-- $C(t)$ -->
    <g transform="translate(216.051693 66)scale(0.24 -0.24)">
     <defs>
      <path d="M 74.703125 69.109375 
C 74.703125 70 74 70 73.796875 70 
C 73.59375 70 73.203125 70 72.40625 69 
L 65.5 60.65625 
C 62 66.625 56.5 70 49 70 
C 27.40625 70 5 48.25 5 24.921875 
C 5 8.328125 16.703125 -2 31.296875 -2 
C 39.296875 -2 46.296875 1.375 52.09375 6.25 
C 60.796875 13.484375 63.40625 23.140625 63.40625 23.921875 
C 63.40625 24.8125 62.59375 24.8125 62.296875 24.8125 
C 61.40625 24.8125 61.296875 24.21875 61.09375 23.8125 
C 56.5 8.34375 43 0.890625 33 0.890625 
C 22.40625 0.890625 13.203125 7.640625 13.203125 21.734375 
C 13.203125 24.921875 14.203125 42.1875 25.5 55.1875 
C 31 61.546875 40.40625 67.109375 49.90625 67.109375 
C 60.90625 67.109375 65.796875 58.078125 65.796875 47.9375 
C 65.796875 45.359375 65.5 43.1875 65.5 42.78125 
C 65.5 41.890625 66.5 41.890625 66.796875 41.890625 
C 67.90625 41.890625 68 41.984375 68.40625 43.765625 
z
" id="CMMI12-67"/>
      <path d="M 20.09375 40.09375 
L 29.296875 40.09375 
C 31.203125 40.09375 32.203125 40.09375 32.203125 41.890625 
C 32.203125 43 31.59375 43 29.59375 43 
L 20.796875 43 
L 24.5 57.6875 
C 24.90625 59.078125 24.90625 59.28125 24.90625 60 
C 24.90625 61.609375 23.59375 62.5 22.296875 62.5 
C 21.5 62.5 19.203125 62.203125 18.40625 58.984375 
L 14.5 43 
L 5.09375 43 
C 3.09375 43 2.203125 43 2.203125 41.09375 
C 2.203125 40.09375 2.90625 40.09375 4.796875 40.09375 
L 13.703125 40.09375 
L 7.09375 13.765625 
C 6.296875 10.28125 6 9.28125 6 7.984375 
C 6 3.296875 9.296875 -1 14.90625 -1 
C 25 -1 30.40625 13.5625 30.40625 14.25 
C 30.40625 14.859375 30 15.15625 29.40625 15.15625 
C 29.203125 15.15625 28.796875 15.15625 28.59375 14.75 
C 28.5 14.65625 28.40625 14.546875 27.703125 12.953125 
C 25.59375 7.984375 21 1 15.203125 1 
C 12.203125 1 12 3.5 12 5.6875 
C 12 5.78125 12 7.6875 12.296875 8.875 
z
" id="CMMI12-116"/>
     </defs>
     <use transform="scale(0.996264)" xlink:href="#CMMI12-67"/>
     <use transform="translate(76.946847 0)scale(0.996264)" xlink:href="#CMR17-40"/>
     <use transform="translate(112.227614 0)scale(0.996264)" xlink:href="#CMMI12-116"/>
     <use transform="translate(147.453945 0)scale(0.996264)" xlink:href="#CMR17-41"/>
    </g>
   </g>
  </g>
  <g id="axes_2">
   <g id="patch_7">
    <path d="M 424.88091 195.208657 
L 680 195.208657 
L 680 72 
L 424.88091 72 
z
" style="fill:#ffffff;"/>
   </g>
   <g id="matplotlib.axis_3">
    <g id="xtick_3">
     <g id="line2d_9">
      <g>
       <use style="stroke:#000000;stroke-width:0.8;" x="494.458844" xlink:href="#m5d242598f0" y="195.208657"/>
      </g>
     </g>
     <g id="text_9">
      <!-- $\mathdefault{5}$ -->
      <g transform="translate(490.55685 213.278245)scale(0.16 -0.16)">
       <use transform="scale(0.996264)" xlink:href="#CMR17-53"/>
      </g>
     </g>
    </g>
    <g id="xtick_4">
     <g id="line2d_10">
      <g>
       <use style="stroke:#000000;stroke-width:0.8;" x="591.094863" xlink:href="#m5d242598f0" y="195.208657"/>
      </g>
     </g>
     <g id="text_10">
      <!-- $\mathdefault{10}$ -->
      <g transform="translate(583.290876 213.278245)scale(0.16 -0.16)">
       <use transform="scale(0.996264)" xlink:href="#CMR17-49"/>
       <use transform="translate(45.690477 0)scale(0.996264)" xlink:href="#CMR17-48"/>
      </g>
     </g>
    </g>
   </g>
   <g id="matplotlib.axis_4">
    <g id="ytick_4">
     <g id="line2d_11">
      <g>
       <use style="stroke:#000000;stroke-width:0.8;" x="424.88091" xlink:href="#mfaf207c6af" y="195.208657"/>
      </g>
     </g>
     <g id="text_11">
      <!-- $\mathdefault{−5}$ -->
      <g transform="translate(397.678927 200.743451)scale(0.16 -0.16)">
       <use transform="scale(0.996264)" xlink:href="#CMSY10-0"/>
       <use transform="translate(77.487468 0)scale(0.996264)" xlink:href="#CMR17-53"/>
      </g>
     </g>
    </g>
    <g id="ytick_5">
     <g id="line2d_12">
      <g>
       <use style="stroke:#000000;stroke-width:0.8;" x="424.88091" xlink:href="#mfaf207c6af" y="133.604329"/>
      </g>
     </g>
     <g id="text_12">
      <!-- $\mathdefault{0}$ -->
      <g transform="translate(410.076923 139.139123)scale(0.16 -0.16)">
       <use transform="scale(0.996264)" xlink:href="#CMR17-48"/>
      </g>
     </g>
    </g>
    <g id="ytick_6">
     <g id="line2d_13">
      <g>
       <use style="stroke:#000000;stroke-width:0.8;" x="424.88091" xlink:href="#mfaf207c6af" y="72"/>
      </g>
     </g>
     <g id="text_13">
      <!-- $\mathdefault{5}$ -->
      <g transform="translate(410.076923 77.534794)scale(0.16 -0.16)">
       <use transform="scale(0.996264)" xlink:href="#CMR17-53"/>
      </g>
     </g>
    </g>
   </g>
   <g id="LineCollection_4">
    <path clip-path="url(#p42bc533aeb)" d="M 436.477232 643.523879 
L 436.477232 166.806224 
" style="fill:none;stroke:#ff0000;stroke-opacity:0.2;stroke-width:2;"/>
    <path clip-path="url(#p42bc533aeb)" d="M 455.804436 568.086019 
L 455.804436 56.229014 
" style="fill:none;stroke:#ff0000;stroke-opacity:0.2;stroke-width:2;"/>
    <path clip-path="url(#p42bc533aeb)" d="M 475.13164 328.151709 
L 475.13164 90.979472 
" style="fill:none;stroke:#ff0000;stroke-opacity:0.2;stroke-width:2;"/>
    <path clip-path="url(#p42bc533aeb)" d="M 494.458844 157.463318 
L 494.458844 88.872658 
" style="fill:none;stroke:#ff0000;stroke-opacity:0.2;stroke-width:2;"/>
    <path clip-path="url(#p42bc533aeb)" d="M 513.786047 163.299248 
L 513.786047 118.216056 
" style="fill:none;stroke:#ff0000;stroke-opacity:0.2;stroke-width:2;"/>
    <path clip-path="url(#p42bc533aeb)" d="M 533.113251 337.585672 
L 533.113251 77.427895 
" style="fill:none;stroke:#ff0000;stroke-opacity:0.2;stroke-width:2;"/>
    <path clip-path="url(#p42bc533aeb)" d="M 552.440455 374.1386 
L 552.440455 97.510353 
" style="fill:none;stroke:#ff0000;stroke-opacity:0.2;stroke-width:2;"/>
    <path clip-path="url(#p42bc533aeb)" d="M 571.767659 624.919267 
L 571.767659 138.964449 
" style="fill:none;stroke:#ff0000;stroke-opacity:0.2;stroke-width:2;"/>
    <path clip-path="url(#p42bc533aeb)" d="M 591.094863 435.565478 
L 591.094863 193.644318 
" style="fill:none;stroke:#ff0000;stroke-opacity:0.2;stroke-width:2;"/>
    <path clip-path="url(#p42bc533aeb)" d="M 610.422066 599.504485 
L 610.422066 292.848853 
" style="fill:none;stroke:#ff0000;stroke-opacity:0.2;stroke-width:2;"/>
    <path clip-path="url(#p42bc533aeb)" d="M 629.74927 470.692068 
L 629.74927 288.663838 
" style="fill:none;stroke:#ff0000;stroke-opacity:0.2;stroke-width:2;"/>
    <path clip-path="url(#p42bc533aeb)" d="M 649.076474 419.179658 
L 649.076474 300.278048 
" style="fill:none;stroke:#ff0000;stroke-opacity:0.2;stroke-width:2;"/>
    <path clip-path="url(#p42bc533aeb)" d="M 668.403678 466.692076 
L 668.403678 358.817804 
" style="fill:none;stroke:#ff0000;stroke-opacity:0.2;stroke-width:2;"/>
   </g>
   <g id="LineCollection_5">
    <path clip-path="url(#p42bc533aeb)" d="M 455.804436 568.086019 
L 455.804436 56.229014 
" style="fill:none;stroke:#ff0000;stroke-width:2;"/>
    <path clip-path="url(#p42bc533aeb)" d="M 475.13164 328.151709 
L 475.13164 90.979472 
" style="fill:none;stroke:#ff0000;stroke-width:2;"/>
    <path clip-path="url(#p42bc533aeb)" d="M 494.458844 157.463318 
L 494.458844 88.872658 
" style="fill:none;stroke:#ff0000;stroke-width:2;"/>
    <path clip-path="url(#p42bc533aeb)" d="M 513.786047 163.299248 
L 513.786047 118.216056 
" style="fill:none;stroke:#ff0000;stroke-width:2;"/>
    <path clip-path="url(#p42bc533aeb)" d="M 533.113251 337.585672 
L 533.113251 77.427895 
" style="fill:none;stroke:#ff0000;stroke-width:2;"/>
    <path clip-path="url(#p42bc533aeb)" d="M 552.440455 374.1386 
L 552.440455 97.510353 
" style="fill:none;stroke:#ff0000;stroke-width:2;"/>
   </g>
   <g id="line2d_14">
    <path clip-path="url(#p42bc533aeb)" d="M 424.88091 133.604329 
L 680 133.604329 
" style="fill:none;stroke:#000000;stroke-linecap:square;stroke-width:2;"/>
   </g>
   <g id="line2d_15">
    <path clip-path="url(#p42bc533aeb)" d="M 436.477232 405.165051 
L 455.804436 312.157517 
L 475.13164 209.565591 
L 494.458844 123.167988 
L 513.786047 140.757652 
L 533.113251 207.506783 
L 552.440455 235.824477 
L 571.767659 381.941858 
L 591.094863 314.604898 
L 610.422066 446.176669 
L 629.74927 379.677953 
L 649.076474 359.728853 
L 668.403678 412.75494 
" style="fill:none;stroke:#ff0000;stroke-linecap:square;stroke-opacity:0.2;stroke-width:2;"/>
   </g>
   <g id="line2d_16">
    <path clip-path="url(#p42bc533aeb)" d="M 455.804436 312.157517 
L 475.13164 209.565591 
L 494.458844 123.167988 
L 513.786047 140.757652 
L 533.113251 207.506783 
L 552.440455 235.824477 
" style="fill:none;stroke:#ff0000;stroke-linecap:square;stroke-width:2;"/>
   </g>
   <g id="patch_8">
    <path d="M 424.88091 195.208657 
L 424.88091 72 
" style="fill:none;stroke:#000000;stroke-linecap:square;stroke-linejoin:miter;stroke-width:0.8;"/>
   </g>
   <g id="patch_9">
    <path d="M 680 195.208657 
L 680 72 
" style="fill:none;stroke:#000000;stroke-linecap:square;stroke-linejoin:miter;stroke-width:0.8;"/>
   </g>
   <g id="patch_10">
    <path d="M 424.88091 195.208657 
L 680 195.208657 
" style="fill:none;stroke:#000000;stroke-linecap:square;stroke-linejoin:miter;stroke-width:0.8;"/>
   </g>
   <g id="patch_11">
    <path d="M 424.88091 72 
L 680 72 
" style="fill:none;stroke:#000000;stroke-linecap:square;stroke-linejoin:miter;stroke-width:0.8;"/>
   </g>
   <g id="text_14">
    <!-- $(C_{\rm fit}(t) - C(t))/\sigma_t$ -->
    <g transform="translate(462.910036 66)scale(0.24 -0.24)">
     <defs>
      <path d="M 39.90625 43.1875 
C 37.5 43.1875 30.09375 43.1875 28.203125 42.796875 
C 27.59375 42.578125 27.40625 42.578125 26.203125 42.578125 
L 14.796875 42.578125 
L 14.796875 54.203125 
C 14.796875 63.640625 22.40625 68 28.40625 68 
C 30.296875 68 34.59375 67.5 36.796875 64.078125 
C 35.796875 64.078125 32.59375 64.078125 32.59375 60.59375 
C 32.59375 58.203125 34.203125 57 36.203125 57 
C 38 57 39.796875 58 39.796875 60.703125 
C 39.796875 65.703125 35 69.59375 28.796875 69.59375 
C 20.90625 69.59375 9.90625 65.125 9.90625 54.203125 
L 9.90625 42.578125 
L 1.90625 42.578125 
L 1.90625 40 
L 9.90625 40 
L 9.90625 6.671875 
C 9.90625 2.875 9.5 2.390625 3.09375 2.390625 
L 3.09375 -0.203125 
C 5.5 0 9.90625 0 12.40625 0 
C 15 0 19.40625 0 21.796875 -0.203125 
L 21.796875 2.390625 
C 15.40625 2.390625 15 2.78125 15 6.671875 
L 15 40 
L 29.703125 40 
C 34 40 34.796875 39.09375 34.796875 34.71875 
L 34.796875 6.671875 
C 34.796875 2.875 34.40625 2.390625 28 2.390625 
L 28 -0.203125 
C 30.40625 0 34.796875 0 37.296875 0 
C 39.90625 0 44.296875 0 46.703125 -0.203125 
L 46.703125 2.390625 
C 40.296875 2.390625 39.90625 2.78125 39.90625 6.671875 
z
" id="CMR17-12"/>
      <path d="M 15.09375 40 
L 29.09375 40 
L 29.09375 42.578125 
L 15.09375 42.578125 
L 15.09375 61 
L 13.296875 61 
C 13.09375 50.703125 9.59375 41.6875 1.09375 41.6875 
L 1.09375 40 
L 9.796875 40 
L 9.796875 12.046875 
C 9.796875 10.15625 9.796875 -1 21.40625 -1 
C 27.296875 -1 30.703125 4.78125 30.703125 12.140625 
L 30.703125 17.8125 
L 28.90625 17.8125 
L 28.90625 12.234375 
C 28.90625 5.375 26.203125 0.796875 22 0.796875 
C 19.09375 0.796875 15.09375 2.78125 15.09375 11.84375 
z
" id="CMR17-116"/>
      <path d="M 42.90625 71.28125 
C 42.90625 71.390625 43.5 72.90625 43.5 73.09375 
C 43.5 74.296875 42.5 75 41.703125 75 
C 41.203125 75 40.296875 75 39.5 72.796875 
L 6 -21.296875 
C 6 -21.40625 5.40625 -22.890625 5.40625 -23.09375 
C 5.40625 -24.296875 6.40625 -25 7.203125 -25 
C 7.796875 -25 8.703125 -24.890625 9.40625 -22.796875 
z
" id="CMMI12-61"/>
      <path d="M 50.796875 37.625 
C 52.09375 37.625 55.40625 37.625 55.40625 40.8125 
C 55.40625 43 53.5 43 51.703125 43 
L 29.59375 43 
C 14.59375 43 3.796875 26.34375 3.796875 14.5625 
C 3.796875 6.09375 9.296875 -1 18.296875 -1 
C 30.09375 -1 43 11.671875 43 26.640625 
C 43 30.53125 42.09375 34.3125 39.703125 37.625 
z
M 18.40625 1 
C 13.296875 1 9.59375 4.890625 9.59375 11.78125 
C 9.59375 17.765625 13.203125 37.625 27.90625 37.625 
C 32.203125 37.625 37 35.53125 37 27.828125 
C 37 24.34375 35.40625 15.953125 31.90625 10.1875 
C 28.296875 4.296875 22.90625 1 18.40625 1 
z
" id="CMMI12-27"/>
     </defs>
     <use transform="scale(0.996264)" xlink:href="#CMR17-40"/>
     <use transform="translate(35.280768 0)scale(0.996264)" xlink:href="#CMMI12-67"/>
     <use transform="translate(105.072804 -14.943915)scale(0.697382)" xlink:href="#CMR17-12"/>
     <use transform="translate(139.892198 -14.943915)scale(0.697382)" xlink:href="#CMR17-116"/>
     <use transform="translate(165.08675 0)scale(0.996264)" xlink:href="#CMR17-40"/>
     <use transform="translate(200.367518 0)scale(0.996264)" xlink:href="#CMMI12-116"/>
     <use transform="translate(235.593849 0)scale(0.996264)" xlink:href="#CMR17-41"/>
     <use transform="translate(293.013823 0)scale(0.996264)" xlink:href="#CMSY10-0"/>
     <use transform="translate(392.640498 0)scale(0.996264)" xlink:href="#CMMI12-67"/>
     <use transform="translate(469.587345 0)scale(0.996264)" xlink:href="#CMR17-40"/>
     <use transform="translate(504.868112 0)scale(0.996264)" xlink:href="#CMMI12-116"/>
     <use transform="translate(540.094443 0)scale(0.996264)" xlink:href="#CMR17-41"/>
     <use transform="translate(575.37521 0)scale(0.996264)" xlink:href="#CMR17-41"/>
     <use transform="translate(610.655978 0)scale(0.996264)" xlink:href="#CMMI12-61"/>
     <use transform="translate(659.430897 0)scale(0.996264)" xlink:href="#CMMI12-27"/>
     <use transform="translate(714.876358 -14.943915)scale(0.697382)" xlink:href="#CMMI12-116"/>
    </g>
   </g>
  </g>
  <g id="axes_3">
   <g id="patch_12">
    <path d="M 110.420301 391.019796 
L 365.539391 391.019796 
L 365.539391 267.811139 
L 110.420301 267.811139 
z
" style="fill:#ffffff;"/>
   </g>
   <g id="matplotlib.axis_5">
    <g id="xtick_5">
     <g id="line2d_17">
      <g>
       <use style="stroke:#000000;stroke-width:0.8;" x="179.998235" xlink:href="#m5d242598f0" y="391.019796"/>
      </g>
     </g>
     <g id="text_15">
      <!-- $\mathdefault{5}$ -->
      <g transform="translate(176.096241 409.089385)scale(0.16 -0.16)">
       <use transform="scale(0.996264)" xlink:href="#CMR17-53"/>
      </g>
     </g>
    </g>
    <g id="xtick_6">
     <g id="line2d_18">
      <g>
       <use style="stroke:#000000;stroke-width:0.8;" x="276.634254" xlink:href="#m5d242598f0" y="391.019796"/>
      </g>
     </g>
     <g id="text_16">
      <!-- $\mathdefault{10}$ -->
      <g transform="translate(268.830267 409.089385)scale(0.16 -0.16)">
       <use transform="scale(0.996264)" xlink:href="#CMR17-49"/>
       <use transform="translate(45.690477 0)scale(0.996264)" xlink:href="#CMR17-48"/>
      </g>
     </g>
    </g>
   </g>
   <g id="matplotlib.axis_6">
    <g id="ytick_7">
     <g id="line2d_19">
      <g>
       <use style="stroke:#000000;stroke-width:0.8;" x="110.420301" xlink:href="#mfaf207c6af" y="380.069855"/>
      </g>
     </g>
     <g id="text_17">
      <!-- $\mathdefault{0.000}$ -->
      <g transform="translate(67.868805 385.604649)scale(0.16 -0.16)">
       <use transform="scale(0.996264)" xlink:href="#CMR17-48"/>
       <use transform="translate(45.690477 0)scale(0.996264)" xlink:href="#CMMI12-58"/>
       <use transform="translate(72.787654 0)scale(0.996264)" xlink:href="#CMR17-48"/>
       <use transform="translate(118.478131 0)scale(0.996264)" xlink:href="#CMR17-48"/>
       <use transform="translate(164.168608 0)scale(0.996264)" xlink:href="#CMR17-48"/>
      </g>
     </g>
    </g>
    <g id="ytick_8">
     <g id="line2d_20">
      <g>
       <use style="stroke:#000000;stroke-width:0.8;" x="110.420301" xlink:href="#mfaf207c6af" y="334.749604"/>
      </g>
     </g>
     <g id="text_18">
      <!-- $\mathdefault{0.005}$ -->
      <g transform="translate(67.868805 340.284398)scale(0.16 -0.16)">
       <use transform="scale(0.996264)" xlink:href="#CMR17-48"/>
       <use transform="translate(45.690477 0)scale(0.996264)" xlink:href="#CMMI12-58"/>
       <use transform="translate(72.787654 0)scale(0.996264)" xlink:href="#CMR17-48"/>
       <use transform="translate(118.478131 0)scale(0.996264)" xlink:href="#CMR17-48"/>
       <use transform="translate(164.168608 0)scale(0.996264)" xlink:href="#CMR17-53"/>
      </g>
     </g>
    </g>
    <g id="ytick_9">
     <g id="line2d_21">
      <g>
       <use style="stroke:#000000;stroke-width:0.8;" x="110.420301" xlink:href="#mfaf207c6af" y="289.429352"/>
      </g>
     </g>
     <g id="text_19">
      <!-- $\mathdefault{0.010}$ -->
      <g transform="translate(67.868805 294.964147)scale(0.16 -0.16)">
       <use transform="scale(0.996264)" xlink:href="#CMR17-48"/>
       <use transform="translate(45.690477 0)scale(0.996264)" xlink:href="#CMMI12-58"/>
       <use transform="translate(72.787654 0)scale(0.996264)" xlink:href="#CMR17-48"/>
       <use transform="translate(118.478131 0)scale(0.996264)" xlink:href="#CMR17-49"/>
       <use transform="translate(164.168608 0)scale(0.996264)" xlink:href="#CMR17-48"/>
      </g>
     </g>
    </g>
    <g id="text_20">
     <!-- (5, 12) -->
     <g transform="translate(57.911226 360.925061)rotate(-90)scale(0.24 -0.24)">
      <defs>
       <path d="M 41.703125 15.453125 
L 39.90625 15.453125 
C 38.90625 8.375 38.09375 7.171875 37.703125 6.5625 
C 37.203125 5.765625 30 5.765625 28.59375 5.765625 
L 9.40625 5.765625 
C 13 9.671875 20 16.75 28.5 24.953125 
C 34.59375 30.734375 41.703125 37.53125 41.703125 47.421875 
C 41.703125 59.21875 32.296875 66 21.796875 66 
C 10.796875 66 4.09375 56.3125 4.09375 47.34375 
C 4.09375 43.4375 7 42.9375 8.203125 42.9375 
C 9.203125 42.9375 12.203125 43.546875 12.203125 47.03125 
C 12.203125 50.109375 9.59375 51 8.203125 51 
C 7.59375 51 7 50.90625 6.59375 50.703125 
C 8.5 59.21875 14.296875 63.40625 20.40625 63.40625 
C 29.09375 63.40625 34.796875 56.515625 34.796875 47.421875 
C 34.796875 38.734375 29.703125 31.25 24 24.75 
L 4.09375 2.28125 
L 4.09375 0 
L 39.296875 0 
z
" id="CMR17-50"/>
      </defs>
      <use transform="scale(0.996264)" xlink:href="#CMR17-40"/>
      <use transform="translate(35.280768 0)scale(0.996264)" xlink:href="#CMR17-53"/>
      <use transform="translate(80.971245 0)scale(0.996264)" xlink:href="#CMR17-44"/>
      <use transform="translate(135.91827 0)scale(0.996264)" xlink:href="#CMR17-49"/>
      <use transform="translate(181.608747 0)scale(0.996264)" xlink:href="#CMR17-50"/>
      <use transform="translate(227.299224 0)scale(0.996264)" xlink:href="#CMR17-41"/>
     </g>
    </g>
   </g>
   <g id="LineCollection_6">
    <path clip-path="url(#pfd7afdeceb)" d="M 122.016624 385.419403 
L 122.016624 354.79366 
" style="fill:none;stroke:#ff0000;stroke-opacity:0.2;stroke-width:2;"/>
    <path clip-path="url(#pfd7afdeceb)" d="M 141.343827 381.776317 
L 141.343827 371.925131 
" style="fill:none;stroke:#ff0000;stroke-opacity:0.2;stroke-width:2;"/>
    <path clip-path="url(#pfd7afdeceb)" d="M 160.671031 380.644851 
L 160.671031 377.317176 
" style="fill:none;stroke:#ff0000;stroke-opacity:0.2;stroke-width:2;"/>
    <path clip-path="url(#pfd7afdeceb)" d="M 179.998235 380.28067 
L 179.998235 379.059863 
" style="fill:none;stroke:#ff0000;stroke-opacity:0.2;stroke-width:2;"/>
    <path clip-path="url(#pfd7afdeceb)" d="M 199.325439 380.157175 
L 199.325439 379.651509 
" style="fill:none;stroke:#ff0000;stroke-opacity:0.2;stroke-width:2;"/>
    <path clip-path="url(#pfd7afdeceb)" d="M 218.652643 380.111585 
L 218.652643 379.869931 
" style="fill:none;stroke:#ff0000;stroke-opacity:0.2;stroke-width:2;"/>
    <path clip-path="url(#pfd7afdeceb)" d="M 237.979846 380.092563 
L 237.979846 379.961061 
" style="fill:none;stroke:#ff0000;stroke-opacity:0.2;stroke-width:2;"/>
    <path clip-path="url(#pfd7afdeceb)" d="M 257.30705 380.083417 
L 257.30705 380.004883 
" style="fill:none;stroke:#ff0000;stroke-opacity:0.2;stroke-width:2;"/>
    <path clip-path="url(#pfd7afdeceb)" d="M 276.634254 380.07843 
L 276.634254 380.028783 
" style="fill:none;stroke:#ff0000;stroke-opacity:0.2;stroke-width:2;"/>
    <path clip-path="url(#pfd7afdeceb)" d="M 295.961458 380.075469 
L 295.961458 380.042984 
" style="fill:none;stroke:#ff0000;stroke-opacity:0.2;stroke-width:2;"/>
    <path clip-path="url(#pfd7afdeceb)" d="M 315.288662 380.073633 
L 315.288662 380.051806 
" style="fill:none;stroke:#ff0000;stroke-opacity:0.2;stroke-width:2;"/>
    <path clip-path="url(#pfd7afdeceb)" d="M 334.615865 380.072484 
L 334.615865 380.057334 
" style="fill:none;stroke:#ff0000;stroke-opacity:0.2;stroke-width:2;"/>
    <path clip-path="url(#pfd7afdeceb)" d="M 353.943069 380.071789 
L 353.943069 380.060686 
" style="fill:none;stroke:#ff0000;stroke-opacity:0.2;stroke-width:2;"/>
   </g>
   <g id="LineCollection_7">
    <path clip-path="url(#pfd7afdeceb)" d="M 179.998235 380.28067 
L 179.998235 379.059863 
" style="fill:none;stroke:#ff0000;stroke-width:2;"/>
    <path clip-path="url(#pfd7afdeceb)" d="M 199.325439 380.157175 
L 199.325439 379.651509 
" style="fill:none;stroke:#ff0000;stroke-width:2;"/>
    <path clip-path="url(#pfd7afdeceb)" d="M 218.652643 380.111585 
L 218.652643 379.869931 
" style="fill:none;stroke:#ff0000;stroke-width:2;"/>
    <path clip-path="url(#pfd7afdeceb)" d="M 237.979846 380.092563 
L 237.979846 379.961061 
" style="fill:none;stroke:#ff0000;stroke-width:2;"/>
    <path clip-path="url(#pfd7afdeceb)" d="M 257.30705 380.083417 
L 257.30705 380.004883 
" style="fill:none;stroke:#ff0000;stroke-width:2;"/>
    <path clip-path="url(#pfd7afdeceb)" d="M 276.634254 380.07843 
L 276.634254 380.028783 
" style="fill:none;stroke:#ff0000;stroke-width:2;"/>
    <path clip-path="url(#pfd7afdeceb)" d="M 295.961458 380.075469 
L 295.961458 380.042984 
" style="fill:none;stroke:#ff0000;stroke-width:2;"/>
   </g>
   <g id="LineCollection_8">
    <path clip-path="url(#pfd7afdeceb)" d="M 122.016624 276.496362 
L 122.016624 273.411533 
" style="fill:none;stroke:#000000;stroke-width:2;"/>
    <path clip-path="url(#pfd7afdeceb)" d="M 141.343827 361.900502 
L 141.343827 361.526176 
" style="fill:none;stroke:#000000;stroke-width:2;"/>
    <path clip-path="url(#pfd7afdeceb)" d="M 160.671031 375.807986 
L 160.671031 375.749087 
" style="fill:none;stroke:#000000;stroke-width:2;"/>
    <path clip-path="url(#pfd7afdeceb)" d="M 179.998235 378.737975 
L 179.998235 378.717187 
" style="fill:none;stroke:#000000;stroke-width:2;"/>
    <path clip-path="url(#pfd7afdeceb)" d="M 199.325439 379.529998 
L 199.325439 379.519775 
" style="fill:none;stroke:#000000;stroke-width:2;"/>
    <path clip-path="url(#pfd7afdeceb)" d="M 218.652643 379.807097 
L 218.652643 379.801163 
" style="fill:none;stroke:#000000;stroke-width:2;"/>
    <path clip-path="url(#pfd7afdeceb)" d="M 237.979846 379.927999 
L 237.979846 379.922591 
" style="fill:none;stroke:#000000;stroke-width:2;"/>
    <path clip-path="url(#pfd7afdeceb)" d="M 257.30705 379.985519 
L 257.30705 379.983259 
" style="fill:none;stroke:#000000;stroke-width:2;"/>
    <path clip-path="url(#pfd7afdeceb)" d="M 276.634254 380.016625 
L 276.634254 380.013667 
" style="fill:none;stroke:#000000;stroke-width:2;"/>
    <path clip-path="url(#pfd7afdeceb)" d="M 295.961458 380.034784 
L 295.961458 380.033353 
" style="fill:none;stroke:#000000;stroke-width:2;"/>
    <path clip-path="url(#pfd7afdeceb)" d="M 315.288662 380.046703 
L 315.288662 380.045272 
" style="fill:none;stroke:#000000;stroke-width:2;"/>
    <path clip-path="url(#pfd7afdeceb)" d="M 334.615865 380.053346 
L 334.615865 380.052055 
" style="fill:none;stroke:#000000;stroke-width:2;"/>
    <path clip-path="url(#pfd7afdeceb)" d="M 353.943069 380.057426 
L 353.943069 380.056563 
" style="fill:none;stroke:#000000;stroke-width:2;"/>
   </g>
   <g id="line2d_22">
    <path clip-path="url(#pfd7afdeceb)" d="M 122.016624 370.106532 
L 141.343827 376.850724 
L 160.671031 378.981014 
L 179.998235 379.670266 
L 199.325439 379.904342 
L 218.652643 379.990758 
L 237.979846 380.026812 
L 257.30705 380.04415 
L 276.634254 380.053606 
L 295.961458 380.059227 
L 315.288662 380.06272 
L 334.615865 380.064909 
L 353.943069 380.066237 
" style="fill:none;stroke:#ff0000;stroke-linecap:square;stroke-opacity:0.2;stroke-width:2;"/>
    <g clip-path="url(#pfd7afdeceb)">
     <use style="fill:#ff0000;fill-opacity:0.2;stroke:#ff0000;stroke-opacity:0.2;" x="122.016624" xlink:href="#mf6118bcb0a" y="370.106532"/>
     <use style="fill:#ff0000;fill-opacity:0.2;stroke:#ff0000;stroke-opacity:0.2;" x="141.343827" xlink:href="#mf6118bcb0a" y="376.850724"/>
     <use style="fill:#ff0000;fill-opacity:0.2;stroke:#ff0000;stroke-opacity:0.2;" x="160.671031" xlink:href="#mf6118bcb0a" y="378.981014"/>
     <use style="fill:#ff0000;fill-opacity:0.2;stroke:#ff0000;stroke-opacity:0.2;" x="179.998235" xlink:href="#mf6118bcb0a" y="379.670266"/>
     <use style="fill:#ff0000;fill-opacity:0.2;stroke:#ff0000;stroke-opacity:0.2;" x="199.325439" xlink:href="#mf6118bcb0a" y="379.904342"/>
     <use style="fill:#ff0000;fill-opacity:0.2;stroke:#ff0000;stroke-opacity:0.2;" x="218.652643" xlink:href="#mf6118bcb0a" y="379.990758"/>
     <use style="fill:#ff0000;fill-opacity:0.2;stroke:#ff0000;stroke-opacity:0.2;" x="237.979846" xlink:href="#mf6118bcb0a" y="380.026812"/>
     <use style="fill:#ff0000;fill-opacity:0.2;stroke:#ff0000;stroke-opacity:0.2;" x="257.30705" xlink:href="#mf6118bcb0a" y="380.04415"/>
     <use style="fill:#ff0000;fill-opacity:0.2;stroke:#ff0000;stroke-opacity:0.2;" x="276.634254" xlink:href="#mf6118bcb0a" y="380.053606"/>
     <use style="fill:#ff0000;fill-opacity:0.2;stroke:#ff0000;stroke-opacity:0.2;" x="295.961458" xlink:href="#mf6118bcb0a" y="380.059227"/>
     <use style="fill:#ff0000;fill-opacity:0.2;stroke:#ff0000;stroke-opacity:0.2;" x="315.288662" xlink:href="#mf6118bcb0a" y="380.06272"/>
     <use style="fill:#ff0000;fill-opacity:0.2;stroke:#ff0000;stroke-opacity:0.2;" x="334.615865" xlink:href="#mf6118bcb0a" y="380.064909"/>
     <use style="fill:#ff0000;fill-opacity:0.2;stroke:#ff0000;stroke-opacity:0.2;" x="353.943069" xlink:href="#mf6118bcb0a" y="380.066237"/>
    </g>
   </g>
   <g id="line2d_23">
    <path clip-path="url(#pfd7afdeceb)" d="M 179.998235 379.670266 
L 199.325439 379.904342 
L 218.652643 379.990758 
L 237.979846 380.026812 
L 257.30705 380.04415 
L 276.634254 380.053606 
L 295.961458 380.059227 
" style="fill:none;stroke:#ff0000;stroke-linecap:square;stroke-width:2;"/>
    <g clip-path="url(#pfd7afdeceb)">
     <use style="fill:#ff0000;stroke:#ff0000;" x="179.998235" xlink:href="#m5e29bad6ec" y="379.670266"/>
     <use style="fill:#ff0000;stroke:#ff0000;" x="199.325439" xlink:href="#m5e29bad6ec" y="379.904342"/>
     <use style="fill:#ff0000;stroke:#ff0000;" x="218.652643" xlink:href="#m5e29bad6ec" y="379.990758"/>
     <use style="fill:#ff0000;stroke:#ff0000;" x="237.979846" xlink:href="#m5e29bad6ec" y="380.026812"/>
     <use style="fill:#ff0000;stroke:#ff0000;" x="257.30705" xlink:href="#m5e29bad6ec" y="380.04415"/>
     <use style="fill:#ff0000;stroke:#ff0000;" x="276.634254" xlink:href="#m5e29bad6ec" y="380.053606"/>
     <use style="fill:#ff0000;stroke:#ff0000;" x="295.961458" xlink:href="#m5e29bad6ec" y="380.059227"/>
    </g>
   </g>
   <g id="line2d_24">
    <g clip-path="url(#pfd7afdeceb)">
     <use style="stroke:#000000;" x="122.016624" xlink:href="#m85c2e535ab" y="274.953947"/>
     <use style="stroke:#000000;" x="141.343827" xlink:href="#m85c2e535ab" y="361.713339"/>
     <use style="stroke:#000000;" x="160.671031" xlink:href="#m85c2e535ab" y="375.778536"/>
     <use style="stroke:#000000;" x="179.998235" xlink:href="#m85c2e535ab" y="378.727581"/>
     <use style="stroke:#000000;" x="199.325439" xlink:href="#m85c2e535ab" y="379.524887"/>
     <use style="stroke:#000000;" x="218.652643" xlink:href="#m85c2e535ab" y="379.80413"/>
     <use style="stroke:#000000;" x="237.979846" xlink:href="#m85c2e535ab" y="379.925295"/>
     <use style="stroke:#000000;" x="257.30705" xlink:href="#m85c2e535ab" y="379.984389"/>
     <use style="stroke:#000000;" x="276.634254" xlink:href="#m85c2e535ab" y="380.015146"/>
     <use style="stroke:#000000;" x="295.961458" xlink:href="#m85c2e535ab" y="380.034069"/>
     <use style="stroke:#000000;" x="315.288662" xlink:href="#m85c2e535ab" y="380.045988"/>
     <use style="stroke:#000000;" x="334.615865" xlink:href="#m85c2e535ab" y="380.052701"/>
     <use style="stroke:#000000;" x="353.943069" xlink:href="#m85c2e535ab" y="380.056995"/>
    </g>
   </g>
   <g id="patch_13">
    <path d="M 110.420301 391.019796 
L 110.420301 267.811139 
" style="fill:none;stroke:#000000;stroke-linecap:square;stroke-linejoin:miter;stroke-width:0.8;"/>
   </g>
   <g id="patch_14">
    <path d="M 365.539391 391.019796 
L 365.539391 267.811139 
" style="fill:none;stroke:#000000;stroke-linecap:square;stroke-linejoin:miter;stroke-width:0.8;"/>
   </g>
   <g id="patch_15">
    <path d="M 110.420301 391.019796 
L 365.539391 391.019796 
" style="fill:none;stroke:#000000;stroke-linecap:square;stroke-linejoin:miter;stroke-width:0.8;"/>
   </g>
   <g id="patch_16">
    <path d="M 110.420301 267.811139 
L 365.539391 267.811139 
" style="fill:none;stroke:#000000;stroke-linecap:square;stroke-linejoin:miter;stroke-width:0.8;"/>
   </g>
   <g id="text_21">
    <!-- $p=0.00e+00$ -->
    <g transform="translate(212.467937 286.292438)scale(0.24 -0.24)">
     <defs>
      <path d="M 37.703125 23 
L 64.203125 23 
C 65.59375 23 67.296875 23 67.296875 24.6875 
C 67.296875 26.484375 65.703125 26.484375 64.203125 26.484375 
L 37.703125 26.484375 
L 37.703125 52.90625 
C 37.703125 54.296875 37.703125 56 36 56 
C 34.203125 56 34.203125 54.40625 34.203125 52.90625 
L 34.203125 26.484375 
L 7.703125 26.484375 
C 6.296875 26.484375 4.59375 26.484375 4.59375 24.796875 
C 4.59375 23 6.203125 23 7.703125 23 
L 34.203125 23 
L 34.203125 -3.40625 
C 34.203125 -4.796875 34.203125 -6.5 35.90625 -6.5 
C 37.703125 -6.5 37.703125 -4.90625 37.703125 -3.40625 
z
" id="CMR17-43"/>
     </defs>
     <use transform="scale(0.996264)" xlink:href="#CMMI12-112"/>
     <use transform="translate(76.633523 0)scale(0.996264)" xlink:href="#CMR17-61"/>
     <use transform="translate(176.02232 0)scale(0.996264)" xlink:href="#CMR17-48"/>
     <use transform="translate(221.712797 0)scale(0.996264)" xlink:href="#CMMI12-58"/>
     <use transform="translate(248.809974 0)scale(0.996264)" xlink:href="#CMR17-48"/>
     <use transform="translate(294.500451 0)scale(0.996264)" xlink:href="#CMR17-48"/>
     <use transform="translate(340.190928 0)scale(0.996264)" xlink:href="#CMMI12-101"/>
     <use transform="translate(407.542136 0)scale(0.996264)" xlink:href="#CMR17-43"/>
     <use transform="translate(501.396132 0)scale(0.996264)" xlink:href="#CMR17-48"/>
     <use transform="translate(547.086609 0)scale(0.996264)" xlink:href="#CMR17-48"/>
    </g>
   </g>
   <g id="text_22">
    <!-- $C(t)$ -->
    <g transform="translate(216.051693 261.811139)scale(0.24 -0.24)">
     <use transform="scale(0.996264)" xlink:href="#CMMI12-67"/>
     <use transform="translate(76.946847 0)scale(0.996264)" xlink:href="#CMR17-40"/>
     <use transform="translate(112.227614 0)scale(0.996264)" xlink:href="#CMMI12-116"/>
     <use transform="translate(147.453945 0)scale(0.996264)" xlink:href="#CMR17-41"/>
    </g>
   </g>
  </g>
  <g id="axes_4">
   <g id="patch_17">
    <path d="M 424.88091 391.019796 
L 680 391.019796 
L 680 267.811139 
L 424.88091 267.811139 
z
" style="fill:#ffffff;"/>
   </g>
   <g id="matplotlib.axis_7">
    <g id="xtick_7">
     <g id="line2d_25">
      <g>
       <use style="stroke:#000000;stroke-width:0.8;" x="494.458844" xlink:href="#m5d242598f0" y="391.019796"/>
      </g>
     </g>
     <g id="text_23">
      <!-- $\mathdefault{5}$ -->
      <g transform="translate(490.55685 409.089385)scale(0.16 -0.16)">
       <use transform="scale(0.996264)" xlink:href="#CMR17-53"/>
      </g>
     </g>
    </g>
    <g id="xtick_8">
     <g id="line2d_26">
      <g>
       <use style="stroke:#000000;stroke-width:0.8;" x="591.094863" xlink:href="#m5d242598f0" y="391.019796"/>
      </g>
     </g>
     <g id="text_24">
      <!-- $\mathdefault{10}$ -->
      <g transform="translate(583.290876 409.089385)scale(0.16 -0.16)">
       <use transform="scale(0.996264)" xlink:href="#CMR17-49"/>
       <use transform="translate(45.690477 0)scale(0.996264)" xlink:href="#CMR17-48"/>
      </g>
     </g>
    </g>
   </g>
   <g id="matplotlib.axis_8">
    <g id="ytick_10">
     <g id="line2d_27">
      <g>
       <use style="stroke:#000000;stroke-width:0.8;" x="424.88091" xlink:href="#mfaf207c6af" y="391.019796"/>
      </g>
     </g>
     <g id="text_25">
      <!-- $\mathdefault{−5}$ -->
      <g transform="translate(397.678927 396.55459)scale(0.16 -0.16)">
       <use transform="scale(0.996264)" xlink:href="#CMSY10-0"/>
       <use transform="translate(77.487468 0)scale(0.996264)" xlink:href="#CMR17-53"/>
      </g>
     </g>
    </g>
    <g id="ytick_11">
     <g id="line2d_28">
      <g>
       <use style="stroke:#000000;stroke-width:0.8;" x="424.88091" xlink:href="#mfaf207c6af" y="329.415468"/>
      </g>
     </g>
     <g id="text_26">
      <!-- $\mathdefault{0}$ -->
      <g transform="translate(410.076923 334.950262)scale(0.16 -0.16)">
       <use transform="scale(0.996264)" xlink:href="#CMR17-48"/>
      </g>
     </g>
    </g>
    <g id="ytick_12">
     <g id="line2d_29">
      <g>
       <use style="stroke:#000000;stroke-width:0.8;" x="424.88091" xlink:href="#mfaf207c6af" y="267.811139"/>
      </g>
     </g>
     <g id="text_27">
      <!-- $\mathdefault{5}$ -->
      <g transform="translate(410.076923 273.345933)scale(0.16 -0.16)">
       <use transform="scale(0.996264)" xlink:href="#CMR17-53"/>
      </g>
     </g>
    </g>
   </g>
   <g id="LineCollection_9">
    <path clip-path="url(#pf92d619e50)" style="fill:none;stroke:#ff0000;stroke-opacity:0.2;stroke-width:2;"/>
    <path clip-path="url(#pf92d619e50)" style="fill:none;stroke:#ff0000;stroke-opacity:0.2;stroke-width:2;"/>
    <path clip-path="url(#pf92d619e50)" style="fill:none;stroke:#ff0000;stroke-opacity:0.2;stroke-width:2;"/>
    <path clip-path="url(#pf92d619e50)" style="fill:none;stroke:#ff0000;stroke-opacity:0.2;stroke-width:2;"/>
    <path clip-path="url(#pf92d619e50)" d="M 513.786047 649 
L 513.786047 634.624166 
" style="fill:none;stroke:#ff0000;stroke-opacity:0.2;stroke-width:2;"/>
    <path clip-path="url(#pf92d619e50)" d="M 533.113251 649 
L 533.113251 602.691277 
" style="fill:none;stroke:#ff0000;stroke-opacity:0.2;stroke-width:2;"/>
    <path clip-path="url(#pf92d619e50)" d="M 552.440455 649 
L 552.440455 492.403137 
" style="fill:none;stroke:#ff0000;stroke-opacity:0.2;stroke-width:2;"/>
    <path clip-path="url(#pf92d619e50)" d="M 571.767659 649 
L 571.767659 552.866714 
" style="fill:none;stroke:#ff0000;stroke-opacity:0.2;stroke-width:2;"/>
    <path clip-path="url(#pf92d619e50)" d="M 591.094863 649 
L 591.094863 443.014122 
" style="fill:none;stroke:#ff0000;stroke-opacity:0.2;stroke-width:2;"/>
    <path clip-path="url(#pf92d619e50)" d="M 610.422066 649 
L 610.422066 483.017785 
" style="fill:none;stroke:#ff0000;stroke-opacity:0.2;stroke-width:2;"/>
    <path clip-path="url(#pf92d619e50)" d="M 629.74927 649 
L 629.74927 429.597755 
" style="fill:none;stroke:#ff0000;stroke-opacity:0.2;stroke-width:2;"/>
    <path clip-path="url(#pf92d619e50)" d="M 649.076474 649 
L 649.076474 417.823817 
" style="fill:none;stroke:#ff0000;stroke-opacity:0.2;stroke-width:2;"/>
    <path clip-path="url(#pf92d619e50)" d="M 668.403678 649 
L 668.403678 434.729583 
" style="fill:none;stroke:#ff0000;stroke-opacity:0.2;stroke-width:2;"/>
   </g>
   <g id="LineCollection_10">
    <path clip-path="url(#pf92d619e50)" style="fill:none;stroke:#ff0000;stroke-width:2;"/>
    <path clip-path="url(#pf92d619e50)" d="M 513.786047 649 
L 513.786047 634.624166 
" style="fill:none;stroke:#ff0000;stroke-width:2;"/>
    <path clip-path="url(#pf92d619e50)" d="M 533.113251 649 
L 533.113251 602.691277 
" style="fill:none;stroke:#ff0000;stroke-width:2;"/>
    <path clip-path="url(#pf92d619e50)" d="M 552.440455 649 
L 552.440455 492.403137 
" style="fill:none;stroke:#ff0000;stroke-width:2;"/>
    <path clip-path="url(#pf92d619e50)" d="M 571.767659 649 
L 571.767659 552.866714 
" style="fill:none;stroke:#ff0000;stroke-width:2;"/>
    <path clip-path="url(#pf92d619e50)" d="M 591.094863 649 
L 591.094863 443.014122 
" style="fill:none;stroke:#ff0000;stroke-width:2;"/>
    <path clip-path="url(#pf92d619e50)" d="M 610.422066 649 
L 610.422066 483.017785 
" style="fill:none;stroke:#ff0000;stroke-width:2;"/>
   </g>
   <g id="line2d_30">
    <path clip-path="url(#pf92d619e50)" d="M 424.88091 329.415468 
L 680 329.415468 
" style="fill:none;stroke:#000000;stroke-linecap:square;stroke-width:2;"/>
   </g>
   <g id="line2d_31">
    <path clip-path="url(#pf92d619e50)" d="M 625.560433 649 
L 629.74927 617.498153 
L 649.076474 562.3595 
L 668.403678 593.125148 
" style="fill:none;stroke:#ff0000;stroke-linecap:square;stroke-opacity:0.2;stroke-width:2;"/>
   </g>
   <g id="line2d_32">
    <path clip-path="url(#pf92d619e50)" style="fill:none;stroke:#ff0000;stroke-linecap:square;stroke-width:2;"/>
   </g>
   <g id="patch_18">
    <path d="M 424.88091 391.019796 
L 424.88091 267.811139 
" style="fill:none;stroke:#000000;stroke-linecap:square;stroke-linejoin:miter;stroke-width:0.8;"/>
   </g>
   <g id="patch_19">
    <path d="M 680 391.019796 
L 680 267.811139 
" style="fill:none;stroke:#000000;stroke-linecap:square;stroke-linejoin:miter;stroke-width:0.8;"/>
   </g>
   <g id="patch_20">
    <path d="M 424.88091 391.019796 
L 680 391.019796 
" style="fill:none;stroke:#000000;stroke-linecap:square;stroke-linejoin:miter;stroke-width:0.8;"/>
   </g>
   <g id="patch_21">
    <path d="M 424.88091 267.811139 
L 680 267.811139 
" style="fill:none;stroke:#000000;stroke-linecap:square;stroke-linejoin:miter;stroke-width:0.8;"/>
   </g>
   <g id="text_28">
    <!-- $(C_{\rm fit}(t) - C(t))/\sigma_t$ -->
    <g transform="translate(462.910036 261.811139)scale(0.24 -0.24)">
     <use transform="scale(0.996264)" xlink:href="#CMR17-40"/>
     <use transform="translate(35.280768 0)scale(0.996264)" xlink:href="#CMMI12-67"/>
     <use transform="translate(105.072804 -14.943915)scale(0.697382)" xlink:href="#CMR17-12"/>
     <use transform="translate(139.892198 -14.943915)scale(0.697382)" xlink:href="#CMR17-116"/>
     <use transform="translate(165.08675 0)scale(0.996264)" xlink:href="#CMR17-40"/>
     <use transform="translate(200.367518 0)scale(0.996264)" xlink:href="#CMMI12-116"/>
     <use transform="translate(235.593849 0)scale(0.996264)" xlink:href="#CMR17-41"/>
     <use transform="translate(293.013823 0)scale(0.996264)" xlink:href="#CMSY10-0"/>
     <use transform="translate(392.640498 0)scale(0.996264)" xlink:href="#CMMI12-67"/>
     <use transform="translate(469.587345 0)scale(0.996264)" xlink:href="#CMR17-40"/>
     <use transform="translate(504.868112 0)scale(0.996264)" xlink:href="#CMMI12-116"/>
     <use transform="translate(540.094443 0)scale(0.996264)" xlink:href="#CMR17-41"/>
     <use transform="translate(575.37521 0)scale(0.996264)" xlink:href="#CMR17-41"/>
     <use transform="translate(610.655978 0)scale(0.996264)" xlink:href="#CMMI12-61"/>
     <use transform="translate(659.430897 0)scale(0.996264)" xlink:href="#CMMI12-27"/>
     <use transform="translate(714.876358 -14.943915)scale(0.697382)" xlink:href="#CMMI12-116"/>
    </g>
   </g>
  </g>
  <g id="axes_5">
   <g id="patch_22">
    <path d="M 110.420301 586.830936 
L 365.539391 586.830936 
L 365.539391 463.622278 
L 110.420301 463.622278 
z
" style="fill:#ffffff;"/>
   </g>
   <g id="matplotlib.axis_9">
    <g id="xtick_9">
     <g id="line2d_33">
      <g>
       <use style="stroke:#000000;stroke-width:0.8;" x="179.998235" xlink:href="#m5d242598f0" y="586.830936"/>
      </g>
     </g>
     <g id="text_29">
      <!-- $\mathdefault{5}$ -->
      <g transform="translate(176.096241 604.900524)scale(0.16 -0.16)">
       <use transform="scale(0.996264)" xlink:href="#CMR17-53"/>
      </g>
     </g>
    </g>
    <g id="xtick_10">
     <g id="line2d_34">
      <g>
       <use style="stroke:#000000;stroke-width:0.8;" x="276.634254" xlink:href="#m5d242598f0" y="586.830936"/>
      </g>
     </g>
     <g id="text_30">
      <!-- $\mathdefault{10}$ -->
      <g transform="translate(268.830267 604.900524)scale(0.16 -0.16)">
       <use transform="scale(0.996264)" xlink:href="#CMR17-49"/>
       <use transform="translate(45.690477 0)scale(0.996264)" xlink:href="#CMR17-48"/>
      </g>
     </g>
    </g>
   </g>
   <g id="matplotlib.axis_10">
    <g id="ytick_13">
     <g id="line2d_35">
      <g>
       <use style="stroke:#000000;stroke-width:0.8;" x="110.420301" xlink:href="#mfaf207c6af" y="581.233199"/>
      </g>
     </g>
     <g id="text_31">
      <!-- $\mathdefault{0.000}$ -->
      <g transform="translate(67.868805 586.767993)scale(0.16 -0.16)">
       <use transform="scale(0.996264)" xlink:href="#CMR17-48"/>
       <use transform="translate(45.690477 0)scale(0.996264)" xlink:href="#CMMI12-58"/>
       <use transform="translate(72.787654 0)scale(0.996264)" xlink:href="#CMR17-48"/>
       <use transform="translate(118.478131 0)scale(0.996264)" xlink:href="#CMR17-48"/>
       <use transform="translate(164.168608 0)scale(0.996264)" xlink:href="#CMR17-48"/>
      </g>
     </g>
    </g>
    <g id="ytick_14">
     <g id="line2d_36">
      <g>
       <use style="stroke:#000000;stroke-width:0.8;" x="110.420301" xlink:href="#mfaf207c6af" y="533.638739"/>
      </g>
     </g>
     <g id="text_32">
      <!-- $\mathdefault{0.005}$ -->
      <g transform="translate(67.868805 539.173533)scale(0.16 -0.16)">
       <use transform="scale(0.996264)" xlink:href="#CMR17-48"/>
       <use transform="translate(45.690477 0)scale(0.996264)" xlink:href="#CMMI12-58"/>
       <use transform="translate(72.787654 0)scale(0.996264)" xlink:href="#CMR17-48"/>
       <use transform="translate(118.478131 0)scale(0.996264)" xlink:href="#CMR17-48"/>
       <use transform="translate(164.168608 0)scale(0.996264)" xlink:href="#CMR17-53"/>
      </g>
     </g>
    </g>
    <g id="ytick_15">
     <g id="line2d_37">
      <g>
       <use style="stroke:#000000;stroke-width:0.8;" x="110.420301" xlink:href="#mfaf207c6af" y="486.044279"/>
      </g>
     </g>
     <g id="text_33">
      <!-- $\mathdefault{0.010}$ -->
      <g transform="translate(67.868805 491.579073)scale(0.16 -0.16)">
       <use transform="scale(0.996264)" xlink:href="#CMR17-48"/>
       <use transform="translate(45.690477 0)scale(0.996264)" xlink:href="#CMMI12-58"/>
       <use transform="translate(72.787654 0)scale(0.996264)" xlink:href="#CMR17-48"/>
       <use transform="translate(118.478131 0)scale(0.996264)" xlink:href="#CMR17-49"/>
       <use transform="translate(164.168608 0)scale(0.996264)" xlink:href="#CMR17-48"/>
      </g>
     </g>
    </g>
    <g id="text_34">
     <!-- (5, 13) -->
     <g transform="translate(57.911226 556.7362)rotate(-90)scale(0.24 -0.24)">
      <use transform="scale(0.996264)" xlink:href="#CMR17-40"/>
      <use transform="translate(35.280768 0)scale(0.996264)" xlink:href="#CMR17-53"/>
      <use transform="translate(80.971245 0)scale(0.996264)" xlink:href="#CMR17-44"/>
      <use transform="translate(135.91827 0)scale(0.996264)" xlink:href="#CMR17-49"/>
      <use transform="translate(181.608747 0)scale(0.996264)" xlink:href="#CMR17-51"/>
      <use transform="translate(227.299224 0)scale(0.996264)" xlink:href="#CMR17-41"/>
     </g>
    </g>
   </g>
   <g id="LineCollection_11">
    <path clip-path="url(#pca8ac42ac3)" d="M 122.016624 572.598989 
L 122.016624 539.749121 
" style="fill:none;stroke:#ff0000;stroke-opacity:0.2;stroke-width:2;"/>
    <path clip-path="url(#pca8ac42ac3)" d="M 141.343827 578.146015 
L 141.343827 568.055039 
" style="fill:none;stroke:#ff0000;stroke-opacity:0.2;stroke-width:2;"/>
    <path clip-path="url(#pca8ac42ac3)" d="M 160.671031 580.092123 
L 160.671031 576.793882 
" style="fill:none;stroke:#ff0000;stroke-opacity:0.2;stroke-width:2;"/>
    <path clip-path="url(#pca8ac42ac3)" d="M 179.998235 580.79194 
L 179.998235 579.583825 
" style="fill:none;stroke:#ff0000;stroke-opacity:0.2;stroke-width:2;"/>
    <path clip-path="url(#pca8ac42ac3)" d="M 199.325439 581.047706 
L 199.325439 580.537021 
" style="fill:none;stroke:#ff0000;stroke-opacity:0.2;stroke-width:2;"/>
    <path clip-path="url(#pca8ac42ac3)" d="M 218.652643 581.144365 
L 218.652643 580.898796 
" style="fill:none;stroke:#ff0000;stroke-opacity:0.2;stroke-width:2;"/>
    <path clip-path="url(#pca8ac42ac3)" d="M 237.979846 581.18513 
L 237.979846 581.053698 
" style="fill:none;stroke:#ff0000;stroke-opacity:0.2;stroke-width:2;"/>
    <path clip-path="url(#pca8ac42ac3)" d="M 257.30705 581.205349 
L 257.30705 581.128203 
" style="fill:none;stroke:#ff0000;stroke-opacity:0.2;stroke-width:2;"/>
    <path clip-path="url(#pca8ac42ac3)" d="M 276.634254 581.216613 
L 276.634254 581.16799 
" style="fill:none;stroke:#ff0000;stroke-opacity:0.2;stroke-width:2;"/>
    <path clip-path="url(#pca8ac42ac3)" d="M 295.961458 581.223174 
L 295.961458 581.191072 
" style="fill:none;stroke:#ff0000;stroke-opacity:0.2;stroke-width:2;"/>
    <path clip-path="url(#pca8ac42ac3)" d="M 315.288662 581.227025 
L 315.288662 581.205163 
" style="fill:none;stroke:#ff0000;stroke-opacity:0.2;stroke-width:2;"/>
    <path clip-path="url(#pca8ac42ac3)" d="M 334.615865 581.22927 
L 334.615865 581.213899 
" style="fill:none;stroke:#ff0000;stroke-opacity:0.2;stroke-width:2;"/>
    <path clip-path="url(#pca8ac42ac3)" d="M 353.943069 581.230542 
L 353.943069 581.219164 
" style="fill:none;stroke:#ff0000;stroke-opacity:0.2;stroke-width:2;"/>
   </g>
   <g id="LineCollection_12">
    <path clip-path="url(#pca8ac42ac3)" d="M 179.998235 580.79194 
L 179.998235 579.583825 
" style="fill:none;stroke:#ff0000;stroke-width:2;"/>
    <path clip-path="url(#pca8ac42ac3)" d="M 199.325439 581.047706 
L 199.325439 580.537021 
" style="fill:none;stroke:#ff0000;stroke-width:2;"/>
    <path clip-path="url(#pca8ac42ac3)" d="M 218.652643 581.144365 
L 218.652643 580.898796 
" style="fill:none;stroke:#ff0000;stroke-width:2;"/>
    <path clip-path="url(#pca8ac42ac3)" d="M 237.979846 581.18513 
L 237.979846 581.053698 
" style="fill:none;stroke:#ff0000;stroke-width:2;"/>
    <path clip-path="url(#pca8ac42ac3)" d="M 257.30705 581.205349 
L 257.30705 581.128203 
" style="fill:none;stroke:#ff0000;stroke-width:2;"/>
    <path clip-path="url(#pca8ac42ac3)" d="M 276.634254 581.216613 
L 276.634254 581.16799 
" style="fill:none;stroke:#ff0000;stroke-width:2;"/>
    <path clip-path="url(#pca8ac42ac3)" d="M 295.961458 581.223174 
L 295.961458 581.191072 
" style="fill:none;stroke:#ff0000;stroke-width:2;"/>
    <path clip-path="url(#pca8ac42ac3)" d="M 315.288662 581.227025 
L 315.288662 581.205163 
" style="fill:none;stroke:#ff0000;stroke-width:2;"/>
   </g>
   <g id="LineCollection_13">
    <path clip-path="url(#pca8ac42ac3)" d="M 122.016624 472.462301 
L 122.016624 469.222672 
" style="fill:none;stroke:#000000;stroke-width:2;"/>
    <path clip-path="url(#pca8ac42ac3)" d="M 141.343827 562.152092 
L 141.343827 561.758982 
" style="fill:none;stroke:#000000;stroke-width:2;"/>
    <path clip-path="url(#pca8ac42ac3)" d="M 160.671031 576.757465 
L 160.671031 576.695611 
" style="fill:none;stroke:#000000;stroke-width:2;"/>
    <path clip-path="url(#pca8ac42ac3)" d="M 179.998235 579.834484 
L 179.998235 579.812652 
" style="fill:none;stroke:#000000;stroke-width:2;"/>
    <path clip-path="url(#pca8ac42ac3)" d="M 199.325439 580.666251 
L 199.325439 580.655515 
" style="fill:none;stroke:#000000;stroke-width:2;"/>
    <path clip-path="url(#pca8ac42ac3)" d="M 218.652643 580.957254 
L 218.652643 580.951023 
" style="fill:none;stroke:#000000;stroke-width:2;"/>
    <path clip-path="url(#pca8ac42ac3)" d="M 237.979846 581.084223 
L 237.979846 581.078545 
" style="fill:none;stroke:#000000;stroke-width:2;"/>
    <path clip-path="url(#pca8ac42ac3)" d="M 257.30705 581.144631 
L 257.30705 581.142257 
" style="fill:none;stroke:#000000;stroke-width:2;"/>
    <path clip-path="url(#pca8ac42ac3)" d="M 276.634254 581.177297 
L 276.634254 581.174191 
" style="fill:none;stroke:#000000;stroke-width:2;"/>
    <path clip-path="url(#pca8ac42ac3)" d="M 295.961458 581.196367 
L 295.961458 581.194865 
" style="fill:none;stroke:#000000;stroke-width:2;"/>
    <path clip-path="url(#pca8ac42ac3)" d="M 315.288662 581.208885 
L 315.288662 581.207382 
" style="fill:none;stroke:#000000;stroke-width:2;"/>
    <path clip-path="url(#pca8ac42ac3)" d="M 334.615865 581.215861 
L 334.615865 581.214505 
" style="fill:none;stroke:#000000;stroke-width:2;"/>
    <path clip-path="url(#pca8ac42ac3)" d="M 353.943069 581.220146 
L 353.943069 581.219239 
" style="fill:none;stroke:#000000;stroke-width:2;"/>
   </g>
   <g id="line2d_38">
    <path clip-path="url(#pca8ac42ac3)" d="M 122.016624 556.174055 
L 141.343827 573.100527 
L 160.671031 578.443002 
L 179.998235 580.187882 
L 199.325439 580.792364 
L 218.652643 581.02158 
L 237.979846 581.119414 
L 257.30705 581.166776 
L 276.634254 581.192302 
L 295.961458 581.207123 
L 315.288662 581.216094 
L 334.615865 581.221585 
L 353.943069 581.224853 
" style="fill:none;stroke:#ff0000;stroke-linecap:square;stroke-opacity:0.2;stroke-width:2;"/>
    <g clip-path="url(#pca8ac42ac3)">
     <use style="fill:#ff0000;fill-opacity:0.2;stroke:#ff0000;stroke-opacity:0.2;" x="122.016624" xlink:href="#mf6118bcb0a" y="556.174055"/>
     <use style="fill:#ff0000;fill-opacity:0.2;stroke:#ff0000;stroke-opacity:0.2;" x="141.343827" xlink:href="#mf6118bcb0a" y="573.100527"/>
     <use style="fill:#ff0000;fill-opacity:0.2;stroke:#ff0000;stroke-opacity:0.2;" x="160.671031" xlink:href="#mf6118bcb0a" y="578.443002"/>
     <use style="fill:#ff0000;fill-opacity:0.2;stroke:#ff0000;stroke-opacity:0.2;" x="179.998235" xlink:href="#mf6118bcb0a" y="580.187882"/>
     <use style="fill:#ff0000;fill-opacity:0.2;stroke:#ff0000;stroke-opacity:0.2;" x="199.325439" xlink:href="#mf6118bcb0a" y="580.792364"/>
     <use style="fill:#ff0000;fill-opacity:0.2;stroke:#ff0000;stroke-opacity:0.2;" x="218.652643" xlink:href="#mf6118bcb0a" y="581.02158"/>
     <use style="fill:#ff0000;fill-opacity:0.2;stroke:#ff0000;stroke-opacity:0.2;" x="237.979846" xlink:href="#mf6118bcb0a" y="581.119414"/>
     <use style="fill:#ff0000;fill-opacity:0.2;stroke:#ff0000;stroke-opacity:0.2;" x="257.30705" xlink:href="#mf6118bcb0a" y="581.166776"/>
     <use style="fill:#ff0000;fill-opacity:0.2;stroke:#ff0000;stroke-opacity:0.2;" x="276.634254" xlink:href="#mf6118bcb0a" y="581.192302"/>
     <use style="fill:#ff0000;fill-opacity:0.2;stroke:#ff0000;stroke-opacity:0.2;" x="295.961458" xlink:href="#mf6118bcb0a" y="581.207123"/>
     <use style="fill:#ff0000;fill-opacity:0.2;stroke:#ff0000;stroke-opacity:0.2;" x="315.288662" xlink:href="#mf6118bcb0a" y="581.216094"/>
     <use style="fill:#ff0000;fill-opacity:0.2;stroke:#ff0000;stroke-opacity:0.2;" x="334.615865" xlink:href="#mf6118bcb0a" y="581.221585"/>
     <use style="fill:#ff0000;fill-opacity:0.2;stroke:#ff0000;stroke-opacity:0.2;" x="353.943069" xlink:href="#mf6118bcb0a" y="581.224853"/>
    </g>
   </g>
   <g id="line2d_39">
    <path clip-path="url(#pca8ac42ac3)" d="M 179.998235 580.187882 
L 199.325439 580.792364 
L 218.652643 581.02158 
L 237.979846 581.119414 
L 257.30705 581.166776 
L 276.634254 581.192302 
L 295.961458 581.207123 
L 315.288662 581.216094 
" style="fill:none;stroke:#ff0000;stroke-linecap:square;stroke-width:2;"/>
    <g clip-path="url(#pca8ac42ac3)">
     <use style="fill:#ff0000;stroke:#ff0000;" x="179.998235" xlink:href="#m5e29bad6ec" y="580.187882"/>
     <use style="fill:#ff0000;stroke:#ff0000;" x="199.325439" xlink:href="#m5e29bad6ec" y="580.792364"/>
     <use style="fill:#ff0000;stroke:#ff0000;" x="218.652643" xlink:href="#m5e29bad6ec" y="581.02158"/>
     <use style="fill:#ff0000;stroke:#ff0000;" x="237.979846" xlink:href="#m5e29bad6ec" y="581.119414"/>
     <use style="fill:#ff0000;stroke:#ff0000;" x="257.30705" xlink:href="#m5e29bad6ec" y="581.166776"/>
     <use style="fill:#ff0000;stroke:#ff0000;" x="276.634254" xlink:href="#m5e29bad6ec" y="581.192302"/>
     <use style="fill:#ff0000;stroke:#ff0000;" x="295.961458" xlink:href="#m5e29bad6ec" y="581.207123"/>
     <use style="fill:#ff0000;stroke:#ff0000;" x="315.288662" xlink:href="#m5e29bad6ec" y="581.216094"/>
    </g>
   </g>
   <g id="line2d_40">
    <g clip-path="url(#pca8ac42ac3)">
     <use style="stroke:#000000;" x="122.016624" xlink:href="#m85c2e535ab" y="470.842486"/>
     <use style="stroke:#000000;" x="141.343827" xlink:href="#m85c2e535ab" y="561.955537"/>
     <use style="stroke:#000000;" x="160.671031" xlink:href="#m85c2e535ab" y="576.726538"/>
     <use style="stroke:#000000;" x="179.998235" xlink:href="#m85c2e535ab" y="579.823568"/>
     <use style="stroke:#000000;" x="199.325439" xlink:href="#m85c2e535ab" y="580.660883"/>
     <use style="stroke:#000000;" x="218.652643" xlink:href="#m85c2e535ab" y="580.954139"/>
     <use style="stroke:#000000;" x="237.979846" xlink:href="#m85c2e535ab" y="581.081384"/>
     <use style="stroke:#000000;" x="257.30705" xlink:href="#m85c2e535ab" y="581.143444"/>
     <use style="stroke:#000000;" x="276.634254" xlink:href="#m85c2e535ab" y="581.175744"/>
     <use style="stroke:#000000;" x="295.961458" xlink:href="#m85c2e535ab" y="581.195616"/>
     <use style="stroke:#000000;" x="315.288662" xlink:href="#m85c2e535ab" y="581.208133"/>
     <use style="stroke:#000000;" x="334.615865" xlink:href="#m85c2e535ab" y="581.215183"/>
     <use style="stroke:#000000;" x="353.943069" xlink:href="#m85c2e535ab" y="581.219692"/>
    </g>
   </g>
   <g id="patch_23">
    <path d="M 110.420301 586.830936 
L 110.420301 463.622278 
" style="fill:none;stroke:#000000;stroke-linecap:square;stroke-linejoin:miter;stroke-width:0.8;"/>
   </g>
   <g id="patch_24">
    <path d="M 365.539391 586.830936 
L 365.539391 463.622278 
" style="fill:none;stroke:#000000;stroke-linecap:square;stroke-linejoin:miter;stroke-width:0.8;"/>
   </g>
   <g id="patch_25">
    <path d="M 110.420301 586.830936 
L 365.539391 586.830936 
" style="fill:none;stroke:#000000;stroke-linecap:square;stroke-linejoin:miter;stroke-width:0.8;"/>
   </g>
   <g id="patch_26">
    <path d="M 110.420301 463.622278 
L 365.539391 463.622278 
" style="fill:none;stroke:#000000;stroke-linecap:square;stroke-linejoin:miter;stroke-width:0.8;"/>
   </g>
   <g id="text_35">
    <!-- $p=1.00$ -->
    <g transform="translate(212.467937 482.103577)scale(0.24 -0.24)">
     <use transform="scale(0.996264)" xlink:href="#CMMI12-112"/>
     <use transform="translate(76.633523 0)scale(0.996264)" xlink:href="#CMR17-61"/>
     <use transform="translate(176.02232 0)scale(0.996264)" xlink:href="#CMR17-49"/>
     <use transform="translate(221.712797 0)scale(0.996264)" xlink:href="#CMMI12-58"/>
     <use transform="translate(248.809974 0)scale(0.996264)" xlink:href="#CMR17-48"/>
     <use transform="translate(294.500451 0)scale(0.996264)" xlink:href="#CMR17-48"/>
    </g>
   </g>
   <g id="text_36">
    <!-- $C(t)$ -->
    <g transform="translate(216.051693 457.622278)scale(0.24 -0.24)">
     <use transform="scale(0.996264)" xlink:href="#CMMI12-67"/>
     <use transform="translate(76.946847 0)scale(0.996264)" xlink:href="#CMR17-40"/>
     <use transform="translate(112.227614 0)scale(0.996264)" xlink:href="#CMMI12-116"/>
     <use transform="translate(147.453945 0)scale(0.996264)" xlink:href="#CMR17-41"/>
    </g>
   </g>
  </g>
  <g id="axes_6">
   <g id="patch_27">
    <path d="M 424.88091 586.830936 
L 680 586.830936 
L 680 463.622278 
L 424.88091 463.622278 
z
" style="fill:#ffffff;"/>
   </g>
   <g id="matplotlib.axis_11">
    <g id="xtick_11">
     <g id="line2d_41">
      <g>
       <use style="stroke:#000000;stroke-width:0.8;" x="494.458844" xlink:href="#m5d242598f0" y="586.830936"/>
      </g>
     </g>
     <g id="text_37">
      <!-- $\mathdefault{5}$ -->
      <g transform="translate(490.55685 604.900524)scale(0.16 -0.16)">
       <use transform="scale(0.996264)" xlink:href="#CMR17-53"/>
      </g>
     </g>
    </g>
    <g id="xtick_12">
     <g id="line2d_42">
      <g>
       <use style="stroke:#000000;stroke-width:0.8;" x="591.094863" xlink:href="#m5d242598f0" y="586.830936"/>
      </g>
     </g>
     <g id="text_38">
      <!-- $\mathdefault{10}$ -->
      <g transform="translate(583.290876 604.900524)scale(0.16 -0.16)">
       <use transform="scale(0.996264)" xlink:href="#CMR17-49"/>
       <use transform="translate(45.690477 0)scale(0.996264)" xlink:href="#CMR17-48"/>
      </g>
     </g>
    </g>
   </g>
   <g id="matplotlib.axis_12">
    <g id="ytick_16">
     <g id="line2d_43">
      <g>
       <use style="stroke:#000000;stroke-width:0.8;" x="424.88091" xlink:href="#mfaf207c6af" y="586.830936"/>
      </g>
     </g>
     <g id="text_39">
      <!-- $\mathdefault{−5}$ -->
      <g transform="translate(397.678927 592.36573)scale(0.16 -0.16)">
       <use transform="scale(0.996264)" xlink:href="#CMSY10-0"/>
       <use transform="translate(77.487468 0)scale(0.996264)" xlink:href="#CMR17-53"/>
      </g>
     </g>
    </g>
    <g id="ytick_17">
     <g id="line2d_44">
      <g>
       <use style="stroke:#000000;stroke-width:0.8;" x="424.88091" xlink:href="#mfaf207c6af" y="525.226607"/>
      </g>
     </g>
     <g id="text_40">
      <!-- $\mathdefault{0}$ -->
      <g transform="translate(410.076923 530.761401)scale(0.16 -0.16)">
       <use transform="scale(0.996264)" xlink:href="#CMR17-48"/>
      </g>
     </g>
    </g>
    <g id="ytick_18">
     <g id="line2d_45">
      <g>
       <use style="stroke:#000000;stroke-width:0.8;" x="424.88091" xlink:href="#mfaf207c6af" y="463.622278"/>
      </g>
     </g>
     <g id="text_41">
      <!-- $\mathdefault{5}$ -->
      <g transform="translate(410.076923 469.157073)scale(0.16 -0.16)">
       <use transform="scale(0.996264)" xlink:href="#CMR17-53"/>
      </g>
     </g>
    </g>
   </g>
   <g id="LineCollection_14">
    <path clip-path="url(#p662ba66845)" style="fill:none;stroke:#ff0000;stroke-opacity:0.2;stroke-width:2;"/>
    <path clip-path="url(#p662ba66845)" style="fill:none;stroke:#ff0000;stroke-opacity:0.2;stroke-width:2;"/>
    <path clip-path="url(#p662ba66845)" d="M 475.13164 649 
L 475.13164 552.055539 
" style="fill:none;stroke:#ff0000;stroke-opacity:0.2;stroke-width:2;"/>
    <path clip-path="url(#p662ba66845)" d="M 494.458844 649 
L 494.458844 254.623903 
" style="fill:none;stroke:#ff0000;stroke-opacity:0.2;stroke-width:2;"/>
    <path clip-path="url(#p662ba66845)" d="M 513.786047 649 
L 513.786047 240.937209 
" style="fill:none;stroke:#ff0000;stroke-opacity:0.2;stroke-width:2;"/>
    <path clip-path="url(#p662ba66845)" d="M 533.113251 649 
L 533.113251 306.365285 
" style="fill:none;stroke:#ff0000;stroke-opacity:0.2;stroke-width:2;"/>
    <path clip-path="url(#p662ba66845)" d="M 552.440455 649 
L 552.440455 405.087785 
" style="fill:none;stroke:#ff0000;stroke-opacity:0.2;stroke-width:2;"/>
    <path clip-path="url(#p662ba66845)" d="M 571.767659 649 
L 571.767659 366.991619 
" style="fill:none;stroke:#ff0000;stroke-opacity:0.2;stroke-width:2;"/>
    <path clip-path="url(#p662ba66845)" d="M 591.094863 649 
L 591.094863 463.722551 
" style="fill:none;stroke:#ff0000;stroke-opacity:0.2;stroke-width:2;"/>
    <path clip-path="url(#p662ba66845)" d="M 610.422066 649 
L 610.422066 450.684094 
" style="fill:none;stroke:#ff0000;stroke-opacity:0.2;stroke-width:2;"/>
    <path clip-path="url(#p662ba66845)" d="M 629.74927 649 
L 629.74927 476.524388 
" style="fill:none;stroke:#ff0000;stroke-opacity:0.2;stroke-width:2;"/>
    <path clip-path="url(#p662ba66845)" d="M 649.076474 649 
L 649.076474 501.893422 
" style="fill:none;stroke:#ff0000;stroke-opacity:0.2;stroke-width:2;"/>
    <path clip-path="url(#p662ba66845)" d="M 668.403678 649 
L 668.403678 510.870798 
" style="fill:none;stroke:#ff0000;stroke-opacity:0.2;stroke-width:2;"/>
   </g>
   <g id="LineCollection_15">
    <path clip-path="url(#p662ba66845)" d="M 494.458844 649 
L 494.458844 254.623903 
" style="fill:none;stroke:#ff0000;stroke-width:2;"/>
    <path clip-path="url(#p662ba66845)" d="M 513.786047 649 
L 513.786047 240.937209 
" style="fill:none;stroke:#ff0000;stroke-width:2;"/>
    <path clip-path="url(#p662ba66845)" d="M 533.113251 649 
L 533.113251 306.365285 
" style="fill:none;stroke:#ff0000;stroke-width:2;"/>
    <path clip-path="url(#p662ba66845)" d="M 552.440455 649 
L 552.440455 405.087785 
" style="fill:none;stroke:#ff0000;stroke-width:2;"/>
    <path clip-path="url(#p662ba66845)" d="M 571.767659 649 
L 571.767659 366.991619 
" style="fill:none;stroke:#ff0000;stroke-width:2;"/>
    <path clip-path="url(#p662ba66845)" d="M 591.094863 649 
L 591.094863 463.722551 
" style="fill:none;stroke:#ff0000;stroke-width:2;"/>
    <path clip-path="url(#p662ba66845)" d="M 610.422066 649 
L 610.422066 450.684094 
" style="fill:none;stroke:#ff0000;stroke-width:2;"/>
    <path clip-path="url(#p662ba66845)" d="M 629.74927 649 
L 629.74927 476.524388 
" style="fill:none;stroke:#ff0000;stroke-width:2;"/>
   </g>
   <g id="line2d_46">
    <path clip-path="url(#p662ba66845)" d="M 424.88091 525.226607 
L 680 525.226607 
" style="fill:none;stroke:#000000;stroke-linecap:square;stroke-width:2;"/>
   </g>
   <g id="line2d_47">
    <path clip-path="url(#p662ba66845)" d="M 638.91681 649 
L 649.076474 641.533867 
L 655.11489 649 
" style="fill:none;stroke:#ff0000;stroke-linecap:square;stroke-opacity:0.2;stroke-width:2;"/>
   </g>
   <g id="line2d_48">
    <path clip-path="url(#p662ba66845)" style="fill:none;stroke:#ff0000;stroke-linecap:square;stroke-width:2;"/>
   </g>
   <g id="patch_28">
    <path d="M 424.88091 586.830936 
L 424.88091 463.622278 
" style="fill:none;stroke:#000000;stroke-linecap:square;stroke-linejoin:miter;stroke-width:0.8;"/>
   </g>
   <g id="patch_29">
    <path d="M 680 586.830936 
L 680 463.622278 
" style="fill:none;stroke:#000000;stroke-linecap:square;stroke-linejoin:miter;stroke-width:0.8;"/>
   </g>
   <g id="patch_30">
    <path d="M 424.88091 586.830936 
L 680 586.830936 
" style="fill:none;stroke:#000000;stroke-linecap:square;stroke-linejoin:miter;stroke-width:0.8;"/>
   </g>
   <g id="patch_31">
    <path d="M 424.88091 463.622278 
L 680 463.622278 
" style="fill:none;stroke:#000000;stroke-linecap:square;stroke-linejoin:miter;stroke-width:0.8;"/>
   </g>
   <g id="text_42">
    <!-- $(C_{\rm fit}(t) - C(t))/\sigma_t$ -->
    <g transform="translate(462.910036 457.622278)scale(0.24 -0.24)">
     <use transform="scale(0.996264)" xlink:href="#CMR17-40"/>
     <use transform="translate(35.280768 0)scale(0.996264)" xlink:href="#CMMI12-67"/>
     <use transform="translate(105.072804 -14.943915)scale(0.697382)" xlink:href="#CMR17-12"/>
     <use transform="translate(139.892198 -14.943915)scale(0.697382)" xlink:href="#CMR17-116"/>
     <use transform="translate(165.08675 0)scale(0.996264)" xlink:href="#CMR17-40"/>
     <use transform="translate(200.367518 0)scale(0.996264)" xlink:href="#CMMI12-116"/>
     <use transform="translate(235.593849 0)scale(0.996264)" xlink:href="#CMR17-41"/>
     <use transform="translate(293.013823 0)scale(0.996264)" xlink:href="#CMSY10-0"/>
     <use transform="translate(392.640498 0)scale(0.996264)" xlink:href="#CMMI12-67"/>
     <use transform="translate(469.587345 0)scale(0.996264)" xlink:href="#CMR17-40"/>
     <use transform="translate(504.868112 0)scale(0.996264)" xlink:href="#CMMI12-116"/>
     <use transform="translate(540.094443 0)scale(0.996264)" xlink:href="#CMR17-41"/>
     <use transform="translate(575.37521 0)scale(0.996264)" xlink:href="#CMR17-41"/>
     <use transform="translate(610.655978 0)scale(0.996264)" xlink:href="#CMMI12-61"/>
     <use transform="translate(659.430897 0)scale(0.996264)" xlink:href="#CMMI12-27"/>
     <use transform="translate(714.876358 -14.943915)scale(0.697382)" xlink:href="#CMMI12-116"/>
    </g>
   </g>
  </g>
  <g id="text_43">
   <!-- cosh2 Fit -->
   <g transform="translate(315.747011 29.564405)scale(0.24 -0.24)">
    <defs>
     <path d="M 34.90625 35 
C 33 35 30.203125 35 30.203125 31.515625 
C 30.203125 28.71875 32.5 27.921875 33.796875 27.921875 
C 34.5 27.921875 37.40625 28.234375 37.40625 31.625 
C 37.40625 38.546875 30.59375 43.796875 22.90625 43.796875 
C 12.296875 43.796875 3.296875 34.03125 3.296875 21.296875 
C 3.296875 8.0625 12.703125 -1 22.90625 -1 
C 35.296875 -1 38.40625 10.578125 38.40625 11.6875 
C 38.40625 12.09375 38.296875 12.390625 37.59375 12.390625 
C 36.90625 12.390625 36.796875 12.296875 36.40625 10.984375 
C 33.796875 2.8125 28.09375 0.796875 23.796875 0.796875 
C 17.40625 0.796875 9.703125 6.671875 9.703125 21.390625 
C 9.703125 36.53125 17.09375 42 23 42 
C 26.90625 42 32.703125 40.203125 34.90625 35 
z
" id="CMR17-99"/>
     <path d="M 43.09375 21.1875 
C 43.09375 34 33.796875 44 22.90625 44 
C 12 44 2.703125 34 2.703125 21.1875 
C 2.703125 8.609375 12 -1 22.90625 -1 
C 33.796875 -1 43.09375 8.609375 43.09375 21.1875 
z
M 22.90625 0.796875 
C 18.203125 0.796875 14.203125 3.59375 11.90625 7.5 
C 9.40625 11.984375 9.09375 17.59375 9.09375 22 
C 9.09375 26.203125 9.296875 31.40625 11.90625 35.90625 
C 13.90625 39.203125 17.796875 42.40625 22.90625 42.40625 
C 27.40625 42.40625 31.203125 39.90625 33.59375 36.40625 
C 36.703125 31.703125 36.703125 25.109375 36.703125 22 
C 36.703125 18.09375 36.5 12.109375 33.796875 7.296875 
C 31 2.703125 26.703125 0.796875 22.90625 0.796875 
z
" id="CMR17-111"/>
     <path d="M 30.90625 42.140625 
C 30.90625 43.953125 30.796875 44.046875 30.203125 44.046875 
C 29.796875 44.046875 29.703125 43.953125 28.5 42.453125 
C 28.203125 42.046875 27.296875 41.03125 27 40.640625 
C 23.796875 44.046875 19.296875 44.046875 17.59375 44.046875 
C 6.5 44.046875 2.5 38.234375 2.5 32.4375 
C 2.5 23.40625 12.703125 21.328125 15.59375 20.703125 
C 21.90625 19.421875 24.09375 19.015625 26.203125 17.203125 
C 27.5 16.015625 29.703125 13.8125 29.703125 10.21875 
C 29.703125 6 27.296875 0.59375 18.09375 0.59375 
C 9.40625 0.59375 6.296875 7.1875 4.5 15.953125 
C 4.203125 17.34375 4.203125 17.453125 3.40625 17.453125 
C 2.59375 17.453125 2.5 17.34375 2.5 15.359375 
L 2.5 0.984375 
C 2.5 -0.796875 2.59375 -0.90625 3.203125 -0.90625 
C 3.703125 -0.90625 3.796875 -0.796875 4.296875 0 
C 4.90625 0.890625 6.40625 3.296875 7 4.3125 
C 9 1.609375 12.5 -1 18.09375 -1 
C 28 -1 33.296875 4.421875 33.296875 12.25 
C 33.296875 17.375 30.59375 20.078125 29.296875 21.28125 
C 26.296875 24.390625 22.796875 25.09375 18.59375 25.890625 
C 13.09375 27.109375 6.09375 28.515625 6.09375 34.640625 
C 6.09375 37.234375 7.5 42.765625 17.59375 42.765625 
C 28.296875 42.765625 28.90625 32.71875 29.09375 29.5 
C 29.203125 29 29.703125 28.890625 30 28.890625 
C 30.90625 28.890625 30.90625 29.203125 30.90625 30.90625 
z
" id="CMR17-115"/>
     <path d="M 41.5 30.203125 
C 41.5 35.296875 40.5 43.59375 28.703125 43.59375 
C 20.5 43.59375 16.5 37 15.296875 33.703125 
L 15.203125 33.703125 
L 15.203125 68.6875 
L 3.296875 67.59375 
L 3.296875 65 
C 9.203125 65 10.09375 64.40625 10.09375 59.640625 
L 10.09375 6.65625 
C 10.09375 2.875 9.703125 2.390625 3.296875 2.390625 
L 3.296875 -0.203125 
C 5.703125 0 10.09375 0 12.703125 0 
C 15.296875 0 19.796875 0 22.203125 -0.203125 
L 22.203125 2.390625 
C 15.796875 2.390625 15.40625 2.78125 15.40625 6.6875 
L 15.40625 25.90625 
C 15.40625 35.109375 21 42 28 42 
C 35.40625 42 36.203125 35.40625 36.203125 30.59375 
L 36.203125 6.6875 
C 36.203125 2.875 35.796875 2.390625 29.40625 2.390625 
L 29.40625 -0.203125 
C 31.796875 0 36.203125 0 38.796875 0 
C 41.40625 0 45.90625 0 48.296875 -0.203125 
L 48.296875 2.390625 
C 41.90625 2.390625 41.5 2.78125 41.5 6.6875 
z
" id="CMR17-104"/>
     <path d="M 54.40625 67.578125 
L 5.09375 67.578125 
L 5.09375 65 
C 12 65 13.09375 65 13.09375 60.53125 
L 13.09375 6.96875 
C 13.09375 2.5 12 2.5 5.09375 2.5 
L 5.09375 0 
C 8 0 13.59375 0 16.703125 0 
C 20.796875 0 25.59375 0 29.703125 0 
L 29.703125 2.5 
L 27.5 2.5 
C 19.90625 2.5 19.703125 3.484375 19.703125 7.0625 
L 19.703125 32.421875 
L 28.703125 32.421875 
C 38 32.421875 38.90625 29.140625 38.90625 20.8125 
L 40.703125 20.8125 
L 40.703125 46.671875 
L 38.90625 46.671875 
C 38.90625 38.28125 38 35 28.703125 35 
L 19.703125 35 
L 19.703125 61.109375 
C 19.703125 64.5 19.90625 65 23.90625 65 
L 36.796875 65 
C 51.90625 65 53.59375 58.828125 55 45.5625 
L 56.796875 45.5625 
z
" id="CMR17-70"/>
     <path d="M 15.5 61.078125 
C 15.5 63.265625 13.703125 65.15625 11.40625 65.15625 
C 9.203125 65.15625 7.296875 63.375 7.296875 61.078125 
C 7.296875 58.890625 9.09375 57 11.40625 57 
C 13.59375 57 15.5 58.796875 15.5 61.078125 
z
M 3.796875 42.28125 
L 3.796875 39.703125 
C 9.40625 39.703125 10.203125 39.09375 10.203125 34.328125 
L 10.203125 6.671875 
C 10.203125 2.875 9.796875 2.390625 3.40625 2.390625 
L 3.40625 -0.203125 
C 5.796875 0 10.09375 0 12.59375 0 
C 15 0 19.09375 0 21.40625 -0.203125 
L 21.40625 2.390625 
C 15.5 2.390625 15.296875 2.984375 15.296875 6.5625 
L 15.296875 43.375 
z
" id="CMR17-105"/>
    </defs>
    <use transform="scale(0.996264)" xlink:href="#CMR17-99"/>
    <use transform="translate(40.48566 0)scale(0.996264)" xlink:href="#CMR17-111"/>
    <use transform="translate(86.176138 0)scale(0.996264)" xlink:href="#CMR17-115"/>
    <use transform="translate(121.977475 0)scale(0.996264)" xlink:href="#CMR17-104"/>
    <use transform="translate(172.872845 0)scale(0.996264)" xlink:href="#CMR17-50"/>
    <use transform="translate(248.639288 0)scale(0.996264)" xlink:href="#CMR17-70"/>
    <use transform="translate(308.623135 0)scale(0.996264)" xlink:href="#CMR17-105"/>
    <use transform="translate(333.494194 0)scale(0.996264)" xlink:href="#CMR17-116"/>
   </g>
  </g>
 </g>
 <defs>
  <clipPath id="p3469980291">
   <rect height="123.208657" width="255.11909" x="110.420301" y="72"/>
  </clipPath>
  <clipPath id="p42bc533aeb">
   <rect height="123.208657" width="255.11909" x="424.88091" y="72"/>
  </clipPath>
  <clipPath id="pfd7afdeceb">
   <rect height="123.208657" width="255.11909" x="110.420301" y="267.811139"/>
  </clipPath>
  <clipPath id="pf92d619e50">
   <rect height="123.208657" width="255.11909" x="424.88091" y="267.811139"/>
  </clipPath>
  <clipPath id="pca8ac42ac3">
   <rect height="123.208657" width="255.11909" x="110.420301" y="463.622278"/>
  </clipPath>
  <clipPath id="p662ba66845">
   <rect height="123.208657" width="255.11909" x="424.88091" y="463.622278"/>
  </clipPath>
 </defs>
</svg>
