<?xml version="1.0" encoding="utf-8" standalone="no"?>
<!DOCTYPE svg PUBLIC "-//W3C//DTD SVG 1.1//EN"
  "http://www.w3.org/Graphics/SVG/1.1/DTD/svg11.dtd">
<!-- Created with matplotlib (https://matplotlib.org/) -->
<svg height="576pt" version="1.1" viewBox="0 0 1008 576" width="1008pt" xmlns="http://www.w3.org/2000/svg" xmlns:xlink="http://www.w3.org/1999/xlink">
 <metadata>
  <rdf:RDF xmlns:cc="http://creativecommons.org/ns#" xmlns:dc="http://purl.org/dc/elements/1.1/" xmlns:rdf="http://www.w3.org/1999/02/22-rdf-syntax-ns#">
   <cc:Work>
    <dc:type rdf:resource="http://purl.org/dc/dcmitype/StillImage"/>
    <dc:date>2022-11-03T14:18:36.607131</dc:date>
    <dc:format>image/svg+xml</dc:format>
    <dc:creator>
     <cc:Agent>
      <dc:title>Matplotlib v3.3.4, https://matplotlib.org/</dc:title>
     </cc:Agent>
    </dc:creator>
   </cc:Work>
  </rdf:RDF>
 </metadata>
 <defs>
  <style type="text/css">*{stroke-linecap:butt;stroke-linejoin:round;}</style>
 </defs>
 <g id="figure_1">
  <g id="patch_1">
   <path d="M 0 576 
L 1008 576 
L 1008 0 
L 0 0 
z
" style="fill:#ffffff;"/>
  </g>
  <g id="axes_1">
   <g id="patch_2">
    <path d="M 92.457146 261.684426 
L 339.541093 261.684426 
L 339.541093 63.911226 
L 92.457146 63.911226 
z
" style="fill:#ffffff;"/>
   </g>
   <g id="matplotlib.axis_1">
    <g id="xtick_1">
     <g id="line2d_1">
      <defs>
       <path d="M 0 0 
L 0 3.5 
" id="m814df1ba90" style="stroke:#000000;stroke-width:0.8;"/>
      </defs>
      <g>
       <use style="stroke:#000000;stroke-width:0.8;" x="103.688234" xlink:href="#m814df1ba90" y="261.684426"/>
      </g>
     </g>
     <g id="text_1">
      <!-- $\mathdefault{0}$ -->
      <g transform="translate(99.786241 279.754014)scale(0.16 -0.16)">
       <defs>
        <path d="M 42 31.640625 
C 42 37.75 41.90625 48.125 37.703125 56.109375 
C 34 63.109375 28.09375 65.59375 22.90625 65.59375 
C 18.09375 65.59375 12 63.40625 8.203125 56.203125 
C 4.203125 48.71875 3.796875 39.4375 3.796875 31.640625 
C 3.796875 25.953125 3.90625 17.28125 7 9.671875 
C 11.296875 -0.609375 19 -2 22.90625 -2 
C 27.5 -2 34.5 -0.109375 38.59375 9.375 
C 41.59375 16.28125 42 24.359375 42 31.640625 
z
M 22.90625 -0.40625 
C 16.5 -0.40625 12.703125 5.078125 11.296875 12.6875 
C 10.203125 18.5625 10.203125 27.15625 10.203125 32.75 
C 10.203125 40.4375 10.203125 46.828125 11.5 52.921875 
C 13.40625 61.390625 19 64 22.90625 64 
C 27 64 32.296875 61.296875 34.203125 53.125 
C 35.5 47.4375 35.59375 40.734375 35.59375 32.75 
C 35.59375 26.25 35.59375 18.265625 34.40625 12.375 
C 32.296875 1.484375 26.40625 -0.40625 22.90625 -0.40625 
z
" id="CMR17-48"/>
       </defs>
       <use transform="scale(0.996264)" xlink:href="#CMR17-48"/>
      </g>
     </g>
    </g>
    <g id="xtick_2">
     <g id="line2d_2">
      <g>
       <use style="stroke:#000000;stroke-width:0.8;" x="176.14687" xlink:href="#m814df1ba90" y="261.684426"/>
      </g>
     </g>
     <g id="text_2">
      <!-- $\mathdefault{10}$ -->
      <g transform="translate(168.342883 279.754014)scale(0.16 -0.16)">
       <defs>
        <path d="M 26.59375 63.40625 
C 26.59375 65.5 26.5 65.5 25.09375 65.5 
C 21.203125 61.1875 15.296875 59.796875 9.703125 59.796875 
C 9.40625 59.796875 8.90625 59.796875 8.796875 59.5 
C 8.703125 59.296875 8.703125 59.09375 8.703125 57 
C 11.796875 57 17 57.59375 21 59.984375 
L 21 7.203125 
C 21 3.6875 20.796875 2.5 12.203125 2.5 
L 9.203125 2.5 
L 9.203125 0 
C 14 0 19 0 23.796875 0 
C 28.59375 0 33.59375 0 38.40625 0 
L 38.40625 2.5 
L 35.40625 2.5 
C 26.796875 2.5 26.59375 3.59375 26.59375 7.15625 
z
" id="CMR17-49"/>
       </defs>
       <use transform="scale(0.996264)" xlink:href="#CMR17-49"/>
       <use transform="translate(45.690477 0)scale(0.996264)" xlink:href="#CMR17-48"/>
      </g>
     </g>
    </g>
    <g id="xtick_3">
     <g id="line2d_3">
      <g>
       <use style="stroke:#000000;stroke-width:0.8;" x="248.605506" xlink:href="#m814df1ba90" y="261.684426"/>
      </g>
     </g>
     <g id="text_3">
      <!-- $\mathdefault{20}$ -->
      <g transform="translate(240.801519 279.754014)scale(0.16 -0.16)">
       <defs>
        <path d="M 41.703125 15.453125 
L 39.90625 15.453125 
C 38.90625 8.375 38.09375 7.171875 37.703125 6.5625 
C 37.203125 5.765625 30 5.765625 28.59375 5.765625 
L 9.40625 5.765625 
C 13 9.671875 20 16.75 28.5 24.953125 
C 34.59375 30.734375 41.703125 37.53125 41.703125 47.421875 
C 41.703125 59.21875 32.296875 66 21.796875 66 
C 10.796875 66 4.09375 56.3125 4.09375 47.34375 
C 4.09375 43.4375 7 42.9375 8.203125 42.9375 
C 9.203125 42.9375 12.203125 43.546875 12.203125 47.03125 
C 12.203125 50.109375 9.59375 51 8.203125 51 
C 7.59375 51 7 50.90625 6.59375 50.703125 
C 8.5 59.21875 14.296875 63.40625 20.40625 63.40625 
C 29.09375 63.40625 34.796875 56.515625 34.796875 47.421875 
C 34.796875 38.734375 29.703125 31.25 24 24.75 
L 4.09375 2.28125 
L 4.09375 0 
L 39.296875 0 
z
" id="CMR17-50"/>
       </defs>
       <use transform="scale(0.996264)" xlink:href="#CMR17-50"/>
       <use transform="translate(45.690477 0)scale(0.996264)" xlink:href="#CMR17-48"/>
      </g>
     </g>
    </g>
    <g id="xtick_4">
     <g id="line2d_4">
      <g>
       <use style="stroke:#000000;stroke-width:0.8;" x="321.064141" xlink:href="#m814df1ba90" y="261.684426"/>
      </g>
     </g>
     <g id="text_4">
      <!-- $\mathdefault{30}$ -->
      <g transform="translate(313.260154 279.754014)scale(0.16 -0.16)">
       <defs>
        <path d="M 22.09375 33.703125 
C 31 33.703125 34.90625 25.96875 34.90625 17.03125 
C 34.90625 5 28.5 0.390625 22.703125 0.390625 
C 17.40625 0.390625 8.796875 3.03125 6.09375 10.828125 
C 6.59375 10.625 7.09375 10.625 7.59375 10.625 
C 10 10.625 11.796875 12.21875 11.796875 14.8125 
C 11.796875 17.703125 9.59375 19 7.59375 19 
C 5.90625 19 3.296875 18.203125 3.296875 14.46875 
C 3.296875 5.234375 12.296875 -2 22.90625 -2 
C 34 -2 42.5 6.71875 42.5 16.953125 
C 42.5 26.671875 34.5 33.703125 25 34.796875 
C 32.59375 36.375 39.90625 43.0625 39.90625 52.015625 
C 39.90625 59.6875 32 65.296875 23 65.296875 
C 13.90625 65.296875 5.90625 59.828125 5.90625 52.015625 
C 5.90625 48.59375 8.5 48 9.796875 48 
C 11.90625 48 13.703125 49.296875 13.703125 51.890625 
C 13.703125 54.46875 11.90625 55.765625 9.796875 55.765625 
C 9.40625 55.765625 8.90625 55.765625 8.5 55.578125 
C 11.40625 61.859375 19.296875 63 22.796875 63 
C 26.296875 63 32.90625 61.328125 32.90625 51.875 
C 32.90625 49.109375 32.5 44.1875 29.09375 39.84375 
C 26.09375 36 22.703125 36 19.40625 35.6875 
C 18.90625 35.6875 16.59375 35.453125 16.203125 35.453125 
C 15.5 35.359375 15.09375 35.265625 15.09375 34.5 
C 15.09375 33.796875 15.203125 33.703125 17.203125 33.703125 
z
" id="CMR17-51"/>
       </defs>
       <use transform="scale(0.996264)" xlink:href="#CMR17-51"/>
       <use transform="translate(45.690477 0)scale(0.996264)" xlink:href="#CMR17-48"/>
      </g>
     </g>
    </g>
   </g>
   <g id="matplotlib.axis_2">
    <g id="ytick_1">
     <g id="line2d_5">
      <defs>
       <path d="M 0 0 
L -3.5 0 
" id="m8b45bd0a60" style="stroke:#000000;stroke-width:0.8;"/>
      </defs>
      <g>
       <use style="stroke:#000000;stroke-width:0.8;" x="92.457146" xlink:href="#m8b45bd0a60" y="253.13024"/>
      </g>
     </g>
     <g id="text_5">
      <!-- $\mathdefault{0}$ -->
      <g transform="translate(77.653159 258.665034)scale(0.16 -0.16)">
       <use transform="scale(0.996264)" xlink:href="#CMR17-48"/>
      </g>
     </g>
    </g>
    <g id="ytick_2">
     <g id="line2d_6">
      <g>
       <use style="stroke:#000000;stroke-width:0.8;" x="92.457146" xlink:href="#m8b45bd0a60" y="197.250695"/>
      </g>
     </g>
     <g id="text_6">
      <!-- $\mathdefault{10}$ -->
      <g transform="translate(69.849172 202.785489)scale(0.16 -0.16)">
       <use transform="scale(0.996264)" xlink:href="#CMR17-49"/>
       <use transform="translate(45.690477 0)scale(0.996264)" xlink:href="#CMR17-48"/>
      </g>
     </g>
    </g>
    <g id="ytick_3">
     <g id="line2d_7">
      <g>
       <use style="stroke:#000000;stroke-width:0.8;" x="92.457146" xlink:href="#m8b45bd0a60" y="141.371149"/>
      </g>
     </g>
     <g id="text_7">
      <!-- $\mathdefault{20}$ -->
      <g transform="translate(69.849172 146.905944)scale(0.16 -0.16)">
       <use transform="scale(0.996264)" xlink:href="#CMR17-50"/>
       <use transform="translate(45.690477 0)scale(0.996264)" xlink:href="#CMR17-48"/>
      </g>
     </g>
    </g>
    <g id="ytick_4">
     <g id="line2d_8">
      <g>
       <use style="stroke:#000000;stroke-width:0.8;" x="92.457146" xlink:href="#m8b45bd0a60" y="85.491604"/>
      </g>
     </g>
     <g id="text_8">
      <!-- $\mathdefault{30}$ -->
      <g transform="translate(69.849172 91.026399)scale(0.16 -0.16)">
       <use transform="scale(0.996264)" xlink:href="#CMR17-51"/>
       <use transform="translate(45.690477 0)scale(0.996264)" xlink:href="#CMR17-48"/>
      </g>
     </g>
    </g>
    <g id="text_9">
     <!-- Real -->
     <g transform="translate(61.198414 184.258418)rotate(-90)scale(0.24 -0.24)">
      <defs>
       <path d="M 39.203125 33.53125 
C 48.703125 35.4375 56.703125 41.8125 56.703125 49.78125 
C 56.703125 59.140625 46.09375 67.59375 32.09375 67.59375 
L 5.203125 67.59375 
L 5.203125 65 
C 12.09375 65 13.203125 65 13.203125 60.515625 
L 13.203125 6.484375 
C 13.203125 2 12.09375 2 5.203125 2 
L 5.203125 -0.40625 
C 8.09375 -0.40625 13.296875 -0.40625 16.40625 -0.40625 
C 19.5 -0.40625 24.703125 -0.40625 27.59375 -0.40625 
L 27.59375 2 
C 20.703125 2 19.59375 2 19.59375 6.515625 
L 19.59375 33 
L 31.296875 33 
C 37 33 40.203125 30.6875 41.59375 29.390625 
C 45.59375 25.5 45.59375 22.796875 45.59375 16 
C 45.59375 9.296875 45.59375 5.890625 48.59375 2.5 
C 52.40625 -1.59375 57.5 -2 59.703125 -2 
C 67.09375 -2 68.203125 6.1875 68.203125 7.859375 
C 68.203125 8.4375 68.203125 9.140625 67.296875 9.140625 
C 66.5 9.140625 66.40625 8.546875 66.40625 8.15625 
C 65.90625 1.75 63 -0.40625 59.90625 -0.40625 
C 54.40625 -0.40625 53.796875 5.859375 53.203125 11.9375 
C 52.90625 14.03125 52.703125 15.515625 52.5 17.703125 
C 51.90625 22.6875 51.09375 29.953125 39.203125 33.53125 
z
M 31 34.59375 
L 19.59375 34.59375 
L 19.59375 61.140625 
C 19.59375 64.515625 19.796875 65 23.796875 65 
L 31.09375 65 
C 39.40625 65 49.09375 62.140625 49.09375 49.84375 
C 49.09375 37.0625 38.5 34.59375 31 34.59375 
z
" id="CMR17-82"/>
       <path d="M 38.09375 23 
C 38.5 23.40625 38.5 23.609375 38.5 24.625 
C 38.5 34.96875 33.09375 44 21.703125 44 
C 11.09375 44 2.703125 33.890625 2.703125 21.609375 
C 2.703125 8.609375 12.203125 -1 22.796875 -1 
C 34 -1 38.40625 9.484375 38.40625 11.5625 
C 38.40625 12.25 37.796875 12.25 37.59375 12.25 
C 36.90625 12.25 36.796875 12.046875 36.40625 10.875 
C 34.203125 4.140625 28.703125 0.796875 23.5 0.796875 
C 19.203125 0.796875 14.90625 3.171875 12.203125 7.5 
C 9.09375 12.546875 9.09375 18.375 9.09375 23 
z
M 9.203125 24.5 
C 9.90625 39.140625 17.59375 42.40625 21.59375 42.40625 
C 28.40625 42.40625 33 35.890625 33.09375 24.5 
z
" id="CMR17-101"/>
       <path d="M 36 25.828125 
C 36 32.375 36 35.84375 31.796875 39.734375 
C 28.09375 43 23.796875 44 20.40625 44 
C 12.5 44 6.796875 37.609375 6.796875 30.796875 
C 6.796875 27 9.796875 27 10.40625 27 
C 11.703125 27 14 27.78125 14 30.53125 
C 14 33 12.09375 34.078125 10.40625 34.078125 
C 10 34.078125 9.5 33.96875 9.203125 33.875 
C 11.296875 40.5 16.703125 42.40625 20.203125 42.40625 
C 25.203125 42.40625 30.703125 37.953125 30.703125 29.453125 
L 30.703125 25 
C 24.796875 25 17.703125 24.203125 12.09375 21.203125 
C 5.796875 17.703125 4 12.703125 4 8.90625 
C 4 1.203125 13 -1 18.296875 -1 
C 23.796875 -1 28.90625 2.171875 31.09375 7.984375 
C 31.296875 3.640625 34.09375 -0.28125 38.5 -0.28125 
C 40.59375 -0.28125 45.90625 1.09375 45.90625 8.859375 
L 45.90625 14.375 
L 44.09375 14.375 
L 44.09375 8.78125 
C 44.09375 2.78125 41.40625 2 40.09375 2 
C 36 2 36 7.15625 36 11.53125 
z
M 30.703125 13.59375 
C 30.703125 4.953125 24.5 0.59375 19 0.59375 
C 14 0.59375 10.09375 4.296875 10.09375 8.90625 
C 10.09375 11.890625 11.40625 17.1875 17.203125 20.390625 
C 22 23.09375 27.5 23.5 30.703125 23.5 
z
" id="CMR17-97"/>
       <path d="M 15.296875 68.6875 
L 3.40625 67.59375 
L 3.40625 65 
C 9.296875 65 10.203125 64.40625 10.203125 59.640625 
L 10.203125 6.65625 
C 10.203125 2.875 9.796875 2.390625 3.40625 2.390625 
L 3.40625 -0.203125 
C 5.796875 0 10.203125 0 12.703125 0 
C 15.296875 0 19.703125 0 22.09375 -0.203125 
L 22.09375 2.390625 
C 15.703125 2.390625 15.296875 2.78125 15.296875 6.65625 
z
" id="CMR17-108"/>
      </defs>
      <use transform="scale(0.996264)" xlink:href="#CMR17-82"/>
      <use transform="translate(67.791102 0)scale(0.996264)" xlink:href="#CMR17-101"/>
      <use transform="translate(108.276762 0)scale(0.996264)" xlink:href="#CMR17-97"/>
      <use transform="translate(153.96724 0)scale(0.996264)" xlink:href="#CMR17-108"/>
     </g>
    </g>
   </g>
   <g id="LineCollection_1">
    <path clip-path="url(#p2a8e1f87d5)" d="M 103.688234 74.146594 
L 103.688234 72.900917 
" style="fill:none;stroke:#ff0000;stroke-width:2;"/>
    <path clip-path="url(#p2a8e1f87d5)" d="M 110.934098 205.422644 
L 110.934098 204.201522 
" style="fill:none;stroke:#ff0000;stroke-width:2;"/>
    <path clip-path="url(#p2a8e1f87d5)" d="M 118.179961 223.372287 
L 118.179961 222.492288 
" style="fill:none;stroke:#ff0000;stroke-width:2;"/>
    <path clip-path="url(#p2a8e1f87d5)" d="M 125.425825 233.221124 
L 125.425825 232.50541 
" style="fill:none;stroke:#ff0000;stroke-width:2;"/>
    <path clip-path="url(#p2a8e1f87d5)" d="M 132.671688 238.902696 
L 132.671688 238.233986 
" style="fill:none;stroke:#ff0000;stroke-width:2;"/>
    <path clip-path="url(#p2a8e1f87d5)" d="M 139.917552 243.121532 
L 139.917552 242.593017 
" style="fill:none;stroke:#ff0000;stroke-width:2;"/>
    <path clip-path="url(#p2a8e1f87d5)" d="M 147.163416 245.944099 
L 147.163416 245.508812 
" style="fill:none;stroke:#ff0000;stroke-width:2;"/>
    <path clip-path="url(#p2a8e1f87d5)" d="M 154.409279 247.939566 
L 154.409279 247.613004 
" style="fill:none;stroke:#ff0000;stroke-width:2;"/>
    <path clip-path="url(#p2a8e1f87d5)" d="M 161.655143 249.440122 
L 161.655143 249.218477 
" style="fill:none;stroke:#ff0000;stroke-width:2;"/>
    <path clip-path="url(#p2a8e1f87d5)" d="M 168.901006 250.442426 
L 168.901006 250.279632 
" style="fill:none;stroke:#ff0000;stroke-width:2;"/>
    <path clip-path="url(#p2a8e1f87d5)" d="M 176.14687 251.191468 
L 176.14687 251.068409 
" style="fill:none;stroke:#ff0000;stroke-width:2;"/>
    <path clip-path="url(#p2a8e1f87d5)" d="M 183.392733 251.756878 
L 183.392733 251.661203 
" style="fill:none;stroke:#ff0000;stroke-width:2;"/>
    <path clip-path="url(#p2a8e1f87d5)" d="M 190.638597 252.133345 
L 190.638597 252.054288 
" style="fill:none;stroke:#ff0000;stroke-width:2;"/>
    <path clip-path="url(#p2a8e1f87d5)" d="M 197.884461 252.419 
L 197.884461 252.368739 
" style="fill:none;stroke:#ff0000;stroke-width:2;"/>
    <path clip-path="url(#p2a8e1f87d5)" d="M 205.130324 252.57623 
L 205.130324 252.540074 
" style="fill:none;stroke:#ff0000;stroke-width:2;"/>
    <path clip-path="url(#p2a8e1f87d5)" d="M 212.376188 252.662934 
L 212.376188 252.631497 
" style="fill:none;stroke:#ff0000;stroke-width:2;"/>
    <path clip-path="url(#p2a8e1f87d5)" d="M 219.622051 252.694735 
L 219.622051 252.664744 
" style="fill:none;stroke:#ff0000;stroke-width:2;"/>
    <path clip-path="url(#p2a8e1f87d5)" d="M 226.867915 252.672813 
L 226.867915 252.642197 
" style="fill:none;stroke:#ff0000;stroke-width:2;"/>
    <path clip-path="url(#p2a8e1f87d5)" d="M 234.113778 252.562822 
L 234.113778 252.526856 
" style="fill:none;stroke:#ff0000;stroke-width:2;"/>
    <path clip-path="url(#p2a8e1f87d5)" d="M 241.359642 252.373069 
L 241.359642 252.32144 
" style="fill:none;stroke:#ff0000;stroke-width:2;"/>
    <path clip-path="url(#p2a8e1f87d5)" d="M 248.605506 252.078921 
L 248.605506 252.013951 
" style="fill:none;stroke:#ff0000;stroke-width:2;"/>
    <path clip-path="url(#p2a8e1f87d5)" d="M 255.851369 251.682326 
L 255.851369 251.59145 
" style="fill:none;stroke:#ff0000;stroke-width:2;"/>
    <path clip-path="url(#p2a8e1f87d5)" d="M 263.097233 251.081597 
L 263.097233 250.940366 
" style="fill:none;stroke:#ff0000;stroke-width:2;"/>
    <path clip-path="url(#p2a8e1f87d5)" d="M 270.343096 250.299992 
L 270.343096 250.127367 
" style="fill:none;stroke:#ff0000;stroke-width:2;"/>
    <path clip-path="url(#p2a8e1f87d5)" d="M 277.58896 249.211031 
L 277.58896 248.967775 
" style="fill:none;stroke:#ff0000;stroke-width:2;"/>
    <path clip-path="url(#p2a8e1f87d5)" d="M 284.834823 247.745469 
L 284.834823 247.416378 
" style="fill:none;stroke:#ff0000;stroke-width:2;"/>
    <path clip-path="url(#p2a8e1f87d5)" d="M 292.080687 245.695939 
L 292.080687 245.250781 
" style="fill:none;stroke:#ff0000;stroke-width:2;"/>
    <path clip-path="url(#p2a8e1f87d5)" d="M 299.326551 242.540312 
L 299.326551 242.032106 
" style="fill:none;stroke:#ff0000;stroke-width:2;"/>
    <path clip-path="url(#p2a8e1f87d5)" d="M 306.572414 238.251975 
L 306.572414 237.642941 
" style="fill:none;stroke:#ff0000;stroke-width:2;"/>
    <path clip-path="url(#p2a8e1f87d5)" d="M 313.818278 232.290049 
L 313.818278 231.603804 
" style="fill:none;stroke:#ff0000;stroke-width:2;"/>
    <path clip-path="url(#p2a8e1f87d5)" d="M 321.064141 223.116684 
L 321.064141 222.275694 
" style="fill:none;stroke:#ff0000;stroke-width:2;"/>
    <path clip-path="url(#p2a8e1f87d5)" d="M 328.310005 206.06524 
L 328.310005 204.991729 
" style="fill:none;stroke:#ff0000;stroke-width:2;"/>
   </g>
   <g id="line2d_9">
    <path clip-path="url(#p2a8e1f87d5)" d="M 103.688234 73.523756 
L 110.934098 204.812083 
L 118.179961 222.932288 
L 125.425825 232.863267 
L 132.671688 238.568341 
L 139.917552 242.857275 
L 147.163416 245.726456 
L 154.409279 247.776285 
L 161.655143 249.329299 
L 168.901006 250.361029 
L 176.14687 251.129939 
L 183.392733 251.709041 
L 190.638597 252.093816 
L 197.884461 252.393869 
L 205.130324 252.558152 
L 212.376188 252.647215 
L 219.622051 252.679739 
L 226.867915 252.657505 
L 234.113778 252.544839 
L 241.359642 252.347254 
L 248.605506 252.046436 
L 255.851369 251.636888 
L 263.097233 251.010981 
L 270.343096 250.213679 
L 277.58896 249.089403 
L 284.834823 247.580923 
L 292.080687 245.47336 
L 299.326551 242.286209 
L 306.572414 237.947458 
L 313.818278 231.946927 
L 321.064141 222.696189 
L 328.310005 205.528484 
" style="fill:none;stroke:#000000;stroke-linecap:square;stroke-width:2;"/>
   </g>
   <g id="patch_3">
    <path d="M 92.457146 261.684426 
L 92.457146 63.911226 
" style="fill:none;stroke:#000000;stroke-linecap:square;stroke-linejoin:miter;stroke-width:0.8;"/>
   </g>
   <g id="patch_4">
    <path d="M 339.541093 261.684426 
L 339.541093 63.911226 
" style="fill:none;stroke:#000000;stroke-linecap:square;stroke-linejoin:miter;stroke-width:0.8;"/>
   </g>
   <g id="patch_5">
    <path d="M 92.457146 261.684426 
L 339.541093 261.684426 
" style="fill:none;stroke:#000000;stroke-linecap:square;stroke-linejoin:miter;stroke-width:0.8;"/>
   </g>
   <g id="patch_6">
    <path d="M 92.457146 63.911226 
L 339.541093 63.911226 
" style="fill:none;stroke:#000000;stroke-linecap:square;stroke-linejoin:miter;stroke-width:0.8;"/>
   </g>
   <g id="text_10">
    <!-- $C(t)$ -->
    <g transform="translate(194.070966 57.911226)scale(0.24 -0.24)">
     <defs>
      <path d="M 74.703125 69.109375 
C 74.703125 70 74 70 73.796875 70 
C 73.59375 70 73.203125 70 72.40625 69 
L 65.5 60.65625 
C 62 66.625 56.5 70 49 70 
C 27.40625 70 5 48.25 5 24.921875 
C 5 8.328125 16.703125 -2 31.296875 -2 
C 39.296875 -2 46.296875 1.375 52.09375 6.25 
C 60.796875 13.484375 63.40625 23.140625 63.40625 23.921875 
C 63.40625 24.8125 62.59375 24.8125 62.296875 24.8125 
C 61.40625 24.8125 61.296875 24.21875 61.09375 23.8125 
C 56.5 8.34375 43 0.890625 33 0.890625 
C 22.40625 0.890625 13.203125 7.640625 13.203125 21.734375 
C 13.203125 24.921875 14.203125 42.1875 25.5 55.1875 
C 31 61.546875 40.40625 67.109375 49.90625 67.109375 
C 60.90625 67.109375 65.796875 58.078125 65.796875 47.9375 
C 65.796875 45.359375 65.5 43.1875 65.5 42.78125 
C 65.5 41.890625 66.5 41.890625 66.796875 41.890625 
C 67.90625 41.890625 68 41.984375 68.40625 43.765625 
z
" id="CMMI12-67"/>
      <path d="M 30.59375 -24.390625 
C 30.59375 -24.296875 30.59375 -24.09375 30.296875 -23.796875 
C 25.703125 -19.125 13.40625 -6.359375 13.40625 24.703125 
C 13.40625 55.765625 25.5 68.421875 30.40625 73.390625 
C 30.40625 73.5 30.59375 73.703125 30.59375 74 
C 30.59375 74.296875 30.296875 74.5 29.90625 74.5 
C 28.796875 74.5 20.296875 67.125 15.40625 56.15625 
C 10.40625 45.109375 9 34.359375 9 24.8125 
C 9 17.625 9.703125 5.484375 15.703125 -7.359375 
C 20.5 -17.734375 28.703125 -25 29.90625 -25 
C 30.40625 -25 30.59375 -24.796875 30.59375 -24.390625 
z
" id="CMR17-40"/>
      <path d="M 20.09375 40.09375 
L 29.296875 40.09375 
C 31.203125 40.09375 32.203125 40.09375 32.203125 41.890625 
C 32.203125 43 31.59375 43 29.59375 43 
L 20.796875 43 
L 24.5 57.6875 
C 24.90625 59.078125 24.90625 59.28125 24.90625 60 
C 24.90625 61.609375 23.59375 62.5 22.296875 62.5 
C 21.5 62.5 19.203125 62.203125 18.40625 58.984375 
L 14.5 43 
L 5.09375 43 
C 3.09375 43 2.203125 43 2.203125 41.09375 
C 2.203125 40.09375 2.90625 40.09375 4.796875 40.09375 
L 13.703125 40.09375 
L 7.09375 13.765625 
C 6.296875 10.28125 6 9.28125 6 7.984375 
C 6 3.296875 9.296875 -1 14.90625 -1 
C 25 -1 30.40625 13.5625 30.40625 14.25 
C 30.40625 14.859375 30 15.15625 29.40625 15.15625 
C 29.203125 15.15625 28.796875 15.15625 28.59375 14.75 
C 28.5 14.65625 28.40625 14.546875 27.703125 12.953125 
C 25.59375 7.984375 21 1 15.203125 1 
C 12.203125 1 12 3.5 12 5.6875 
C 12 5.78125 12 7.6875 12.296875 8.875 
z
" id="CMMI12-116"/>
      <path d="M 26.296875 24.703125 
C 26.296875 31.875 25.59375 44.015625 19.59375 56.859375 
C 14.796875 67.234375 6.59375 74.5 5.40625 74.5 
C 5.09375 74.5 4.703125 74.390625 4.703125 73.890625 
C 4.703125 73.703125 4.796875 73.59375 4.90625 73.390625 
C 9.703125 68.40625 21.90625 55.75 21.90625 24.75 
C 21.90625 -6.359375 9.796875 -19.015625 4.90625 -24.015625 
C 4.796875 -24.203125 4.703125 -24.3125 4.703125 -24.5 
C 4.703125 -25 5.09375 -25 5.40625 -25 
C 6.5 -25 15 -17.625 19.90625 -6.65625 
C 24.90625 4.390625 26.296875 15.140625 26.296875 24.703125 
z
" id="CMR17-41"/>
     </defs>
     <use transform="scale(0.996264)" xlink:href="#CMMI12-67"/>
     <use transform="translate(76.946847 0)scale(0.996264)" xlink:href="#CMR17-40"/>
     <use transform="translate(112.227614 0)scale(0.996264)" xlink:href="#CMMI12-116"/>
     <use transform="translate(147.453945 0)scale(0.996264)" xlink:href="#CMR17-41"/>
    </g>
   </g>
  </g>
  <g id="axes_2">
   <g id="patch_7">
    <path d="M 406.686599 261.684426 
L 653.770547 261.684426 
L 653.770547 63.911226 
L 406.686599 63.911226 
z
" style="fill:#ffffff;"/>
   </g>
   <g id="matplotlib.axis_3">
    <g id="xtick_5">
     <g id="line2d_10">
      <g>
       <use style="stroke:#000000;stroke-width:0.8;" x="417.917687" xlink:href="#m814df1ba90" y="261.684426"/>
      </g>
     </g>
     <g id="text_11">
      <!-- $\mathdefault{0}$ -->
      <g transform="translate(414.015694 279.754014)scale(0.16 -0.16)">
       <use transform="scale(0.996264)" xlink:href="#CMR17-48"/>
      </g>
     </g>
    </g>
    <g id="xtick_6">
     <g id="line2d_11">
      <g>
       <use style="stroke:#000000;stroke-width:0.8;" x="488.111991" xlink:href="#m814df1ba90" y="261.684426"/>
      </g>
     </g>
     <g id="text_12">
      <!-- $\mathdefault{5}$ -->
      <g transform="translate(484.209997 279.754014)scale(0.16 -0.16)">
       <defs>
        <path d="M 11.40625 57.6875 
C 12.40625 57.28125 16.5 56 20.703125 56 
C 30 56 35.09375 61.109375 38 64.0625 
C 38 64.953125 38 65.5 37.40625 65.5 
C 37.296875 65.5 37.09375 65.5 36.296875 65.046875 
C 32.796875 63.40625 28.703125 62.078125 23.703125 62.078125 
C 20.703125 62.078125 16.203125 62.484375 11.296875 64.671875 
C 10.203125 65.171875 10 65.171875 9.90625 65.171875 
C 9.40625 65.171875 9.296875 65.0625 9.296875 63.078125 
L 9.296875 34.421875 
C 9.296875 32.640625 9.296875 32.140625 10.296875 32.140625 
C 10.796875 32.140625 11 32.34375 11.5 33.03125 
C 14.703125 37.515625 19.09375 39.40625 24.09375 39.40625 
C 27.59375 39.40625 35.09375 37.21875 35.09375 20.140625 
C 35.09375 16.953125 35.09375 11.171875 32.09375 6.578125 
C 29.59375 2.484375 25.703125 0.390625 21.40625 0.390625 
C 14.796875 0.390625 8.09375 5 6.296875 12.71875 
C 6.703125 12.609375 7.5 12.421875 7.90625 12.421875 
C 9.203125 12.421875 11.703125 13.125 11.703125 16.21875 
C 11.703125 18.90625 9.796875 20 7.90625 20 
C 5.59375 20 4.09375 18.59375 4.09375 15.796875 
C 4.09375 7.09375 11 -2 21.59375 -2 
C 31.90625 -2 41.703125 6.875 41.703125 19.75 
C 41.703125 31.71875 33.90625 41 24.203125 41 
C 19.09375 41 14.796875 39.109375 11.40625 35.53125 
z
" id="CMR17-53"/>
       </defs>
       <use transform="scale(0.996264)" xlink:href="#CMR17-53"/>
      </g>
     </g>
    </g>
    <g id="xtick_7">
     <g id="line2d_12">
      <g>
       <use style="stroke:#000000;stroke-width:0.8;" x="558.306294" xlink:href="#m814df1ba90" y="261.684426"/>
      </g>
     </g>
     <g id="text_13">
      <!-- $\mathdefault{10}$ -->
      <g transform="translate(550.502307 279.754014)scale(0.16 -0.16)">
       <use transform="scale(0.996264)" xlink:href="#CMR17-49"/>
       <use transform="translate(45.690477 0)scale(0.996264)" xlink:href="#CMR17-48"/>
      </g>
     </g>
    </g>
    <g id="xtick_8">
     <g id="line2d_13">
      <g>
       <use style="stroke:#000000;stroke-width:0.8;" x="628.500598" xlink:href="#m814df1ba90" y="261.684426"/>
      </g>
     </g>
     <g id="text_14">
      <!-- $\mathdefault{15}$ -->
      <g transform="translate(620.696611 279.754014)scale(0.16 -0.16)">
       <use transform="scale(0.996264)" xlink:href="#CMR17-49"/>
       <use transform="translate(45.690477 0)scale(0.996264)" xlink:href="#CMR17-53"/>
      </g>
     </g>
    </g>
   </g>
   <g id="matplotlib.axis_4">
    <g id="ytick_5">
     <g id="line2d_14">
      <g>
       <use style="stroke:#000000;stroke-width:0.8;" x="406.686599" xlink:href="#m8b45bd0a60" y="253.13024"/>
      </g>
     </g>
     <g id="text_15">
      <!-- $\mathdefault{0}$ -->
      <g transform="translate(391.882612 258.665034)scale(0.16 -0.16)">
       <use transform="scale(0.996264)" xlink:href="#CMR17-48"/>
      </g>
     </g>
    </g>
    <g id="ytick_6">
     <g id="line2d_15">
      <g>
       <use style="stroke:#000000;stroke-width:0.8;" x="406.686599" xlink:href="#m8b45bd0a60" y="197.250695"/>
      </g>
     </g>
     <g id="text_16">
      <!-- $\mathdefault{10}$ -->
      <g transform="translate(384.078625 202.785489)scale(0.16 -0.16)">
       <use transform="scale(0.996264)" xlink:href="#CMR17-49"/>
       <use transform="translate(45.690477 0)scale(0.996264)" xlink:href="#CMR17-48"/>
      </g>
     </g>
    </g>
    <g id="ytick_7">
     <g id="line2d_16">
      <g>
       <use style="stroke:#000000;stroke-width:0.8;" x="406.686599" xlink:href="#m8b45bd0a60" y="141.371149"/>
      </g>
     </g>
     <g id="text_17">
      <!-- $\mathdefault{20}$ -->
      <g transform="translate(384.078625 146.905944)scale(0.16 -0.16)">
       <use transform="scale(0.996264)" xlink:href="#CMR17-50"/>
       <use transform="translate(45.690477 0)scale(0.996264)" xlink:href="#CMR17-48"/>
      </g>
     </g>
    </g>
    <g id="ytick_8">
     <g id="line2d_17">
      <g>
       <use style="stroke:#000000;stroke-width:0.8;" x="406.686599" xlink:href="#m8b45bd0a60" y="85.491604"/>
      </g>
     </g>
     <g id="text_18">
      <!-- $\mathdefault{30}$ -->
      <g transform="translate(384.078625 91.026399)scale(0.16 -0.16)">
       <use transform="scale(0.996264)" xlink:href="#CMR17-51"/>
       <use transform="translate(45.690477 0)scale(0.996264)" xlink:href="#CMR17-48"/>
      </g>
     </g>
    </g>
   </g>
   <g id="LineCollection_2">
    <path clip-path="url(#pbdff92065c)" d="M 417.917687 74.146594 
L 417.917687 72.900917 
" style="fill:none;stroke:#ff0000;stroke-width:2;"/>
    <path clip-path="url(#pbdff92065c)" d="M 431.956548 205.598858 
L 431.956548 204.74171 
" style="fill:none;stroke:#ff0000;stroke-width:2;"/>
    <path clip-path="url(#pbdff92065c)" d="M 445.995409 223.125113 
L 445.995409 222.503364 
" style="fill:none;stroke:#ff0000;stroke-width:2;"/>
    <path clip-path="url(#pbdff92065c)" d="M 460.034269 232.65371 
L 460.034269 232.156484 
" style="fill:none;stroke:#ff0000;stroke-width:2;"/>
    <path clip-path="url(#pbdff92065c)" d="M 474.07313 238.493403 
L 474.07313 238.022396 
" style="fill:none;stroke:#ff0000;stroke-width:2;"/>
    <path clip-path="url(#pbdff92065c)" d="M 488.111991 242.762672 
L 488.111991 242.380812 
" style="fill:none;stroke:#ff0000;stroke-width:2;"/>
    <path clip-path="url(#pbdff92065c)" d="M 502.150851 245.7497 
L 502.150851 245.450115 
" style="fill:none;stroke:#ff0000;stroke-width:2;"/>
    <path clip-path="url(#pbdff92065c)" d="M 516.189712 247.801165 
L 516.189712 247.556043 
" style="fill:none;stroke:#ff0000;stroke-width:2;"/>
    <path clip-path="url(#pbdff92065c)" d="M 530.228573 249.286192 
L 530.228573 249.132511 
" style="fill:none;stroke:#ff0000;stroke-width:2;"/>
    <path clip-path="url(#pbdff92065c)" d="M 544.267433 250.343275 
L 544.267433 250.231433 
" style="fill:none;stroke:#ff0000;stroke-width:2;"/>
    <path clip-path="url(#pbdff92065c)" d="M 558.306294 251.115841 
L 558.306294 251.025079 
" style="fill:none;stroke:#ff0000;stroke-width:2;"/>
    <path clip-path="url(#pbdff92065c)" d="M 572.345155 251.705422 
L 572.345155 251.640507 
" style="fill:none;stroke:#ff0000;stroke-width:2;"/>
    <path clip-path="url(#pbdff92065c)" d="M 586.384015 252.095319 
L 586.384015 252.044934 
" style="fill:none;stroke:#ff0000;stroke-width:2;"/>
    <path clip-path="url(#pbdff92065c)" d="M 600.422876 252.388212 
L 600.422876 252.352912 
" style="fill:none;stroke:#ff0000;stroke-width:2;"/>
    <path clip-path="url(#pbdff92065c)" d="M 614.461737 252.563724 
L 614.461737 252.539267 
" style="fill:none;stroke:#ff0000;stroke-width:2;"/>
    <path clip-path="url(#pbdff92065c)" d="M 628.500598 252.663946 
L 628.500598 252.640774 
" style="fill:none;stroke:#ff0000;stroke-width:2;"/>
    <path clip-path="url(#pbdff92065c)" d="M 642.539458 252.694735 
L 642.539458 252.664744 
" style="fill:none;stroke:#ff0000;stroke-width:2;"/>
   </g>
   <g id="line2d_18">
    <path clip-path="url(#pbdff92065c)" d="M 417.917687 73.523756 
L 431.956548 205.170284 
L 445.995409 222.814238 
L 460.034269 232.405097 
L 474.07313 238.2579 
L 488.111991 242.571742 
L 502.150851 245.599908 
L 516.189712 247.678604 
L 530.228573 249.209351 
L 544.267433 250.287354 
L 558.306294 251.07046 
L 572.345155 251.672964 
L 586.384015 252.070126 
L 600.422876 252.370562 
L 614.461737 252.551496 
L 628.500598 252.65236 
L 642.539458 252.679739 
" style="fill:none;stroke:#000000;stroke-linecap:square;stroke-width:2;"/>
   </g>
   <g id="patch_8">
    <path d="M 406.686599 261.684426 
L 406.686599 63.911226 
" style="fill:none;stroke:#000000;stroke-linecap:square;stroke-linejoin:miter;stroke-width:0.8;"/>
   </g>
   <g id="patch_9">
    <path d="M 653.770547 261.684426 
L 653.770547 63.911226 
" style="fill:none;stroke:#000000;stroke-linecap:square;stroke-linejoin:miter;stroke-width:0.8;"/>
   </g>
   <g id="patch_10">
    <path d="M 406.686599 261.684426 
L 653.770547 261.684426 
" style="fill:none;stroke:#000000;stroke-linecap:square;stroke-linejoin:miter;stroke-width:0.8;"/>
   </g>
   <g id="patch_11">
    <path d="M 406.686599 63.911226 
L 653.770547 63.911226 
" style="fill:none;stroke:#000000;stroke-linecap:square;stroke-linejoin:miter;stroke-width:0.8;"/>
   </g>
   <g id="text_19">
    <!-- Folded $C(t)$ -->
    <g transform="translate(472.889563 57.911226)scale(0.24 -0.24)">
     <defs>
      <path d="M 54.40625 67.578125 
L 5.09375 67.578125 
L 5.09375 65 
C 12 65 13.09375 65 13.09375 60.53125 
L 13.09375 6.96875 
C 13.09375 2.5 12 2.5 5.09375 2.5 
L 5.09375 0 
C 8 0 13.59375 0 16.703125 0 
C 20.796875 0 25.59375 0 29.703125 0 
L 29.703125 2.5 
L 27.5 2.5 
C 19.90625 2.5 19.703125 3.484375 19.703125 7.0625 
L 19.703125 32.421875 
L 28.703125 32.421875 
C 38 32.421875 38.90625 29.140625 38.90625 20.8125 
L 40.703125 20.8125 
L 40.703125 46.671875 
L 38.90625 46.671875 
C 38.90625 38.28125 38 35 28.703125 35 
L 19.703125 35 
L 19.703125 61.109375 
C 19.703125 64.5 19.90625 65 23.90625 65 
L 36.796875 65 
C 51.90625 65 53.59375 58.828125 55 45.5625 
L 56.796875 45.5625 
z
" id="CMR17-70"/>
      <path d="M 43.09375 21.1875 
C 43.09375 34 33.796875 44 22.90625 44 
C 12 44 2.703125 34 2.703125 21.1875 
C 2.703125 8.609375 12 -1 22.90625 -1 
C 33.796875 -1 43.09375 8.609375 43.09375 21.1875 
z
M 22.90625 0.796875 
C 18.203125 0.796875 14.203125 3.59375 11.90625 7.5 
C 9.40625 11.984375 9.09375 17.59375 9.09375 22 
C 9.09375 26.203125 9.296875 31.40625 11.90625 35.90625 
C 13.90625 39.203125 17.796875 42.40625 22.90625 42.40625 
C 27.40625 42.40625 31.203125 39.90625 33.59375 36.40625 
C 36.703125 31.703125 36.703125 25.109375 36.703125 22 
C 36.703125 18.09375 36.5 12.109375 33.796875 7.296875 
C 31 2.703125 26.703125 0.796875 22.90625 0.796875 
z
" id="CMR17-111"/>
      <path d="M 29.203125 67.59375 
L 29.203125 65 
C 35.09375 65 36 64.40625 36 59.6875 
L 36 36.640625 
C 35.59375 37.140625 31.5 43.59375 23.40625 43.59375 
C 13.203125 43.59375 3.296875 34.5 3.296875 21.3125 
C 3.296875 8.203125 12.59375 -1 22.40625 -1 
C 30.90625 -1 35.296875 5.265625 35.796875 5.9375 
L 35.796875 -0.984375 
L 47.90625 -0.984375 
L 47.90625 2 
C 42 2 41.09375 2.59375 41.09375 7.390625 
L 41.09375 68.6875 
z
M 35.796875 11.796875 
C 35.796875 8.796875 34 6.09375 31.703125 4.09375 
C 28.296875 1.09375 24.90625 0.59375 23 0.59375 
C 20.09375 0.59375 9.703125 2.09375 9.703125 21.1875 
C 9.703125 40.8125 21.296875 42 23.90625 42 
C 28.5 42 32.203125 39.40625 34.5 35.796875 
C 35.796875 33.703125 35.796875 33.40625 35.796875 31.609375 
z
" id="CMR17-100"/>
     </defs>
     <use transform="scale(0.996264)" xlink:href="#CMR17-70"/>
     <use transform="translate(52.176591 0)scale(0.996264)" xlink:href="#CMR17-111"/>
     <use transform="translate(97.867068 0)scale(0.996264)" xlink:href="#CMR17-108"/>
     <use transform="translate(122.738127 0)scale(0.996264)" xlink:href="#CMR17-100"/>
     <use transform="translate(173.633497 0)scale(0.996264)" xlink:href="#CMR17-101"/>
     <use transform="translate(214.119157 0)scale(0.996264)" xlink:href="#CMR17-100"/>
     <use transform="translate(295.090493 0)scale(0.996264)" xlink:href="#CMMI12-67"/>
     <use transform="translate(372.03734 0)scale(0.996264)" xlink:href="#CMR17-40"/>
     <use transform="translate(407.318108 0)scale(0.996264)" xlink:href="#CMMI12-116"/>
     <use transform="translate(442.544438 0)scale(0.996264)" xlink:href="#CMR17-41"/>
    </g>
   </g>
  </g>
  <g id="axes_3">
   <g id="patch_12">
    <path d="M 720.916052 261.684426 
L 968 261.684426 
L 968 63.911226 
L 720.916052 63.911226 
z
" style="fill:#ffffff;"/>
   </g>
   <g id="matplotlib.axis_5">
    <g id="xtick_9">
     <g id="line2d_19">
      <g>
       <use style="stroke:#000000;stroke-width:0.8;" x="732.147141" xlink:href="#m814df1ba90" y="261.684426"/>
      </g>
     </g>
     <g id="text_20">
      <!-- $\mathdefault{0}$ -->
      <g transform="translate(728.245147 279.754014)scale(0.16 -0.16)">
       <use transform="scale(0.996264)" xlink:href="#CMR17-48"/>
      </g>
     </g>
    </g>
    <g id="xtick_10">
     <g id="line2d_20">
      <g>
       <use style="stroke:#000000;stroke-width:0.8;" x="802.341444" xlink:href="#m814df1ba90" y="261.684426"/>
      </g>
     </g>
     <g id="text_21">
      <!-- $\mathdefault{5}$ -->
      <g transform="translate(798.439451 279.754014)scale(0.16 -0.16)">
       <use transform="scale(0.996264)" xlink:href="#CMR17-53"/>
      </g>
     </g>
    </g>
    <g id="xtick_11">
     <g id="line2d_21">
      <g>
       <use style="stroke:#000000;stroke-width:0.8;" x="872.535747" xlink:href="#m814df1ba90" y="261.684426"/>
      </g>
     </g>
     <g id="text_22">
      <!-- $\mathdefault{10}$ -->
      <g transform="translate(864.73176 279.754014)scale(0.16 -0.16)">
       <use transform="scale(0.996264)" xlink:href="#CMR17-49"/>
       <use transform="translate(45.690477 0)scale(0.996264)" xlink:href="#CMR17-48"/>
      </g>
     </g>
    </g>
    <g id="xtick_12">
     <g id="line2d_22">
      <g>
       <use style="stroke:#000000;stroke-width:0.8;" x="942.730051" xlink:href="#m814df1ba90" y="261.684426"/>
      </g>
     </g>
     <g id="text_23">
      <!-- $\mathdefault{15}$ -->
      <g transform="translate(934.926064 279.754014)scale(0.16 -0.16)">
       <use transform="scale(0.996264)" xlink:href="#CMR17-49"/>
       <use transform="translate(45.690477 0)scale(0.996264)" xlink:href="#CMR17-53"/>
      </g>
     </g>
    </g>
   </g>
   <g id="matplotlib.axis_6">
    <g id="ytick_9">
     <g id="line2d_23">
      <g>
       <use style="stroke:#000000;stroke-width:0.8;" x="720.916052" xlink:href="#m8b45bd0a60" y="234.482623"/>
      </g>
     </g>
     <g id="text_24">
      <!-- $\mathdefault{−0.10}$ -->
      <g transform="translate(673.770547 240.017417)scale(0.16 -0.16)">
       <defs>
        <path d="M 65.90625 23 
C 67.59375 23 69.40625 23 69.40625 25 
C 69.40625 27 67.59375 27 65.90625 27 
L 11.796875 27 
C 10.09375 27 8.296875 27 8.296875 25 
C 8.296875 23 10.09375 23 11.796875 23 
z
" id="CMSY10-0"/>
        <path d="M 18.40625 4.796875 
C 18.40625 7.6875 16 9.671875 13.59375 9.671875 
C 10.703125 9.671875 8.703125 7.28125 8.703125 4.890625 
C 8.703125 2 11.09375 0 13.5 0 
C 16.40625 0 18.40625 2.390625 18.40625 4.796875 
z
" id="CMMI12-58"/>
       </defs>
       <use transform="scale(0.996264)" xlink:href="#CMSY10-0"/>
       <use transform="translate(77.487468 0)scale(0.996264)" xlink:href="#CMR17-48"/>
       <use transform="translate(123.177945 0)scale(0.996264)" xlink:href="#CMMI12-58"/>
       <use transform="translate(150.275122 0)scale(0.996264)" xlink:href="#CMR17-49"/>
       <use transform="translate(195.965599 0)scale(0.996264)" xlink:href="#CMR17-48"/>
      </g>
     </g>
    </g>
    <g id="ytick_10">
     <g id="line2d_24">
      <g>
       <use style="stroke:#000000;stroke-width:0.8;" x="720.916052" xlink:href="#m8b45bd0a60" y="199.757977"/>
      </g>
     </g>
     <g id="text_25">
      <!-- $\mathdefault{−0.05}$ -->
      <g transform="translate(673.770547 205.292771)scale(0.16 -0.16)">
       <use transform="scale(0.996264)" xlink:href="#CMSY10-0"/>
       <use transform="translate(77.487468 0)scale(0.996264)" xlink:href="#CMR17-48"/>
       <use transform="translate(123.177945 0)scale(0.996264)" xlink:href="#CMMI12-58"/>
       <use transform="translate(150.275122 0)scale(0.996264)" xlink:href="#CMR17-48"/>
       <use transform="translate(195.965599 0)scale(0.996264)" xlink:href="#CMR17-53"/>
      </g>
     </g>
    </g>
    <g id="ytick_11">
     <g id="line2d_25">
      <g>
       <use style="stroke:#000000;stroke-width:0.8;" x="720.916052" xlink:href="#m8b45bd0a60" y="165.03333"/>
      </g>
     </g>
     <g id="text_26">
      <!-- $\mathdefault{0.00}$ -->
      <g transform="translate(686.168543 170.568124)scale(0.16 -0.16)">
       <use transform="scale(0.996264)" xlink:href="#CMR17-48"/>
       <use transform="translate(45.690477 0)scale(0.996264)" xlink:href="#CMMI12-58"/>
       <use transform="translate(72.787654 0)scale(0.996264)" xlink:href="#CMR17-48"/>
       <use transform="translate(118.478131 0)scale(0.996264)" xlink:href="#CMR17-48"/>
      </g>
     </g>
    </g>
    <g id="ytick_12">
     <g id="line2d_26">
      <g>
       <use style="stroke:#000000;stroke-width:0.8;" x="720.916052" xlink:href="#m8b45bd0a60" y="130.308683"/>
      </g>
     </g>
     <g id="text_27">
      <!-- $\mathdefault{0.05}$ -->
      <g transform="translate(686.168543 135.843477)scale(0.16 -0.16)">
       <use transform="scale(0.996264)" xlink:href="#CMR17-48"/>
       <use transform="translate(45.690477 0)scale(0.996264)" xlink:href="#CMMI12-58"/>
       <use transform="translate(72.787654 0)scale(0.996264)" xlink:href="#CMR17-48"/>
       <use transform="translate(118.478131 0)scale(0.996264)" xlink:href="#CMR17-53"/>
      </g>
     </g>
    </g>
    <g id="ytick_13">
     <g id="line2d_27">
      <g>
       <use style="stroke:#000000;stroke-width:0.8;" x="720.916052" xlink:href="#m8b45bd0a60" y="95.584037"/>
      </g>
     </g>
     <g id="text_28">
      <!-- $\mathdefault{0.10}$ -->
      <g transform="translate(686.168543 101.118831)scale(0.16 -0.16)">
       <use transform="scale(0.996264)" xlink:href="#CMR17-48"/>
       <use transform="translate(45.690477 0)scale(0.996264)" xlink:href="#CMMI12-58"/>
       <use transform="translate(72.787654 0)scale(0.996264)" xlink:href="#CMR17-49"/>
       <use transform="translate(118.478131 0)scale(0.996264)" xlink:href="#CMR17-48"/>
      </g>
     </g>
    </g>
   </g>
   <g id="LineCollection_3">
    <path clip-path="url(#p671f01278d)" d="M 732.147141 165.03333 
L 732.147141 165.03333 
" style="fill:none;stroke:#ff0000;stroke-width:2;"/>
    <path clip-path="url(#p671f01278d)" d="M 746.186001 168.128603 
L 746.186001 72.900917 
" style="fill:none;stroke:#ff0000;stroke-width:2;"/>
    <path clip-path="url(#p671f01278d)" d="M 760.224862 216.691624 
L 760.224862 142.718316 
" style="fill:none;stroke:#ff0000;stroke-width:2;"/>
    <path clip-path="url(#p671f01278d)" d="M 774.263723 252.694735 
L 774.263723 191.258339 
" style="fill:none;stroke:#ff0000;stroke-width:2;"/>
    <path clip-path="url(#p671f01278d)" d="M 788.302583 230.502935 
L 788.302583 176.729532 
" style="fill:none;stroke:#ff0000;stroke-width:2;"/>
    <path clip-path="url(#p671f01278d)" d="M 802.341444 222.313121 
L 802.341444 178.727863 
" style="fill:none;stroke:#ff0000;stroke-width:2;"/>
    <path clip-path="url(#p671f01278d)" d="M 816.380305 200.808071 
L 816.380305 160.714318 
" style="fill:none;stroke:#ff0000;stroke-width:2;"/>
    <path clip-path="url(#p671f01278d)" d="M 830.419165 190.700913 
L 830.419165 163.646105 
" style="fill:none;stroke:#ff0000;stroke-width:2;"/>
    <path clip-path="url(#p671f01278d)" d="M 844.458026 190.799248 
L 844.458026 169.082612 
" style="fill:none;stroke:#ff0000;stroke-width:2;"/>
    <path clip-path="url(#p671f01278d)" d="M 858.496887 181.961878 
L 858.496887 166.418014 
" style="fill:none;stroke:#ff0000;stroke-width:2;"/>
    <path clip-path="url(#p671f01278d)" d="M 872.535747 178.420653 
L 872.535747 166.430482 
" style="fill:none;stroke:#ff0000;stroke-width:2;"/>
    <path clip-path="url(#p671f01278d)" d="M 886.574608 173.682001 
L 886.574608 165.352063 
" style="fill:none;stroke:#ff0000;stroke-width:2;"/>
    <path clip-path="url(#p671f01278d)" d="M 900.613469 171.204801 
L 900.613469 164.750478 
" style="fill:none;stroke:#ff0000;stroke-width:2;"/>
    <path clip-path="url(#p671f01278d)" d="M 914.652329 170.21312 
L 914.652329 165.647 
" style="fill:none;stroke:#ff0000;stroke-width:2;"/>
    <path clip-path="url(#p671f01278d)" d="M 928.69119 167.507398 
L 928.69119 164.213867 
" style="fill:none;stroke:#ff0000;stroke-width:2;"/>
    <path clip-path="url(#p671f01278d)" d="M 942.730051 165.676346 
L 942.730051 163.111498 
" style="fill:none;stroke:#ff0000;stroke-width:2;"/>
    <path clip-path="url(#p671f01278d)" d="M 956.768911 165.03333 
L 956.768911 165.03333 
" style="fill:none;stroke:#ff0000;stroke-width:2;"/>
   </g>
   <g id="line2d_28">
    <path clip-path="url(#p671f01278d)" d="M 732.147141 165.03333 
L 746.186001 120.51476 
L 760.224862 179.70497 
L 774.263723 221.976537 
L 788.302583 203.616233 
L 802.341444 200.520492 
L 816.380305 180.761195 
L 830.419165 177.173509 
L 844.458026 179.94093 
L 858.496887 174.189946 
L 872.535747 172.425567 
L 886.574608 169.517032 
L 900.613469 167.97764 
L 914.652329 167.93006 
L 928.69119 165.860632 
L 942.730051 164.393922 
L 956.768911 165.03333 
" style="fill:none;stroke:#000000;stroke-linecap:square;stroke-width:2;"/>
   </g>
   <g id="patch_13">
    <path d="M 720.916052 261.684426 
L 720.916052 63.911226 
" style="fill:none;stroke:#000000;stroke-linecap:square;stroke-linejoin:miter;stroke-width:0.8;"/>
   </g>
   <g id="patch_14">
    <path d="M 968 261.684426 
L 968 63.911226 
" style="fill:none;stroke:#000000;stroke-linecap:square;stroke-linejoin:miter;stroke-width:0.8;"/>
   </g>
   <g id="patch_15">
    <path d="M 720.916052 261.684426 
L 968 261.684426 
" style="fill:none;stroke:#000000;stroke-linecap:square;stroke-linejoin:miter;stroke-width:0.8;"/>
   </g>
   <g id="patch_16">
    <path d="M 720.916052 63.911226 
L 968 63.911226 
" style="fill:none;stroke:#000000;stroke-linecap:square;stroke-linejoin:miter;stroke-width:0.8;"/>
   </g>
   <g id="text_29">
    <!-- $C(t)$ - Folded $C(t)$ -->
    <g transform="translate(754.363515 57.911226)scale(0.24 -0.24)">
     <defs>
      <path d="M 25.5 19 
L 25.5 23.375 
L 0.40625 23.375 
L 0.40625 19 
z
" id="CMR17-45"/>
     </defs>
     <use transform="scale(0.996264)" xlink:href="#CMMI12-67"/>
     <use transform="translate(76.946847 0)scale(0.996264)" xlink:href="#CMR17-40"/>
     <use transform="translate(112.227614 0)scale(0.996264)" xlink:href="#CMMI12-116"/>
     <use transform="translate(147.453945 0)scale(0.996264)" xlink:href="#CMR17-41"/>
     <use transform="translate(212.810679 0)scale(0.996264)" xlink:href="#CMR17-45"/>
     <use transform="translate(272.962612 0)scale(0.996264)" xlink:href="#CMR17-70"/>
     <use transform="translate(325.139203 0)scale(0.996264)" xlink:href="#CMR17-111"/>
     <use transform="translate(370.82968 0)scale(0.996264)" xlink:href="#CMR17-108"/>
     <use transform="translate(395.700738 0)scale(0.996264)" xlink:href="#CMR17-100"/>
     <use transform="translate(446.596108 0)scale(0.996264)" xlink:href="#CMR17-101"/>
     <use transform="translate(487.081769 0)scale(0.996264)" xlink:href="#CMR17-100"/>
     <use transform="translate(568.053105 0)scale(0.996264)" xlink:href="#CMMI12-67"/>
     <use transform="translate(644.999951 0)scale(0.996264)" xlink:href="#CMR17-40"/>
     <use transform="translate(680.280719 0)scale(0.996264)" xlink:href="#CMMI12-116"/>
     <use transform="translate(715.507049 0)scale(0.996264)" xlink:href="#CMR17-41"/>
    </g>
   </g>
  </g>
  <g id="axes_4">
   <g id="patch_17">
    <path d="M 92.457146 514.830936 
L 339.541093 514.830936 
L 339.541093 317.057736 
L 92.457146 317.057736 
z
" style="fill:#ffffff;"/>
   </g>
   <g id="matplotlib.axis_7">
    <g id="xtick_13">
     <g id="line2d_29">
      <g>
       <use style="stroke:#000000;stroke-width:0.8;" x="103.688234" xlink:href="#m814df1ba90" y="514.830936"/>
      </g>
     </g>
     <g id="text_30">
      <!-- $\mathdefault{0}$ -->
      <g transform="translate(99.786241 532.900524)scale(0.16 -0.16)">
       <use transform="scale(0.996264)" xlink:href="#CMR17-48"/>
      </g>
     </g>
    </g>
    <g id="xtick_14">
     <g id="line2d_30">
      <g>
       <use style="stroke:#000000;stroke-width:0.8;" x="176.14687" xlink:href="#m814df1ba90" y="514.830936"/>
      </g>
     </g>
     <g id="text_31">
      <!-- $\mathdefault{10}$ -->
      <g transform="translate(168.342883 532.900524)scale(0.16 -0.16)">
       <use transform="scale(0.996264)" xlink:href="#CMR17-49"/>
       <use transform="translate(45.690477 0)scale(0.996264)" xlink:href="#CMR17-48"/>
      </g>
     </g>
    </g>
    <g id="xtick_15">
     <g id="line2d_31">
      <g>
       <use style="stroke:#000000;stroke-width:0.8;" x="248.605506" xlink:href="#m814df1ba90" y="514.830936"/>
      </g>
     </g>
     <g id="text_32">
      <!-- $\mathdefault{20}$ -->
      <g transform="translate(240.801519 532.900524)scale(0.16 -0.16)">
       <use transform="scale(0.996264)" xlink:href="#CMR17-50"/>
       <use transform="translate(45.690477 0)scale(0.996264)" xlink:href="#CMR17-48"/>
      </g>
     </g>
    </g>
    <g id="xtick_16">
     <g id="line2d_32">
      <g>
       <use style="stroke:#000000;stroke-width:0.8;" x="321.064141" xlink:href="#m814df1ba90" y="514.830936"/>
      </g>
     </g>
     <g id="text_33">
      <!-- $\mathdefault{30}$ -->
      <g transform="translate(313.260154 532.900524)scale(0.16 -0.16)">
       <use transform="scale(0.996264)" xlink:href="#CMR17-51"/>
       <use transform="translate(45.690477 0)scale(0.996264)" xlink:href="#CMR17-48"/>
      </g>
     </g>
    </g>
   </g>
   <g id="matplotlib.axis_8">
    <g id="ytick_14">
     <g id="line2d_33">
      <g>
       <use style="stroke:#000000;stroke-width:0.8;" x="92.457146" xlink:href="#m8b45bd0a60" y="513.540973"/>
      </g>
     </g>
     <g id="text_34">
      <!-- $\mathdefault{−1}$ -->
      <g transform="translate(65.255163 519.075767)scale(0.16 -0.16)">
       <use transform="scale(0.996264)" xlink:href="#CMSY10-0"/>
       <use transform="translate(77.487468 0)scale(0.996264)" xlink:href="#CMR17-49"/>
      </g>
     </g>
    </g>
    <g id="ytick_15">
     <g id="line2d_34">
      <g>
       <use style="stroke:#000000;stroke-width:0.8;" x="92.457146" xlink:href="#m8b45bd0a60" y="462.58435"/>
      </g>
     </g>
     <g id="text_35">
      <!-- $\mathdefault{0}$ -->
      <g transform="translate(77.653159 468.119144)scale(0.16 -0.16)">
       <use transform="scale(0.996264)" xlink:href="#CMR17-48"/>
      </g>
     </g>
    </g>
    <g id="ytick_16">
     <g id="line2d_35">
      <g>
       <use style="stroke:#000000;stroke-width:0.8;" x="92.457146" xlink:href="#m8b45bd0a60" y="411.627727"/>
      </g>
     </g>
     <g id="text_36">
      <!-- $\mathdefault{1}$ -->
      <g transform="translate(77.653159 417.162521)scale(0.16 -0.16)">
       <use transform="scale(0.996264)" xlink:href="#CMR17-49"/>
      </g>
     </g>
    </g>
    <g id="ytick_17">
     <g id="line2d_36">
      <g>
       <use style="stroke:#000000;stroke-width:0.8;" x="92.457146" xlink:href="#m8b45bd0a60" y="360.671104"/>
      </g>
     </g>
     <g id="text_37">
      <!-- $\mathdefault{2}$ -->
      <g transform="translate(77.653159 366.205898)scale(0.16 -0.16)">
       <use transform="scale(0.996264)" xlink:href="#CMR17-50"/>
      </g>
     </g>
    </g>
    <g id="text_38">
     <!-- Imaginary -->
     <g transform="translate(56.604405 464.660674)rotate(-90)scale(0.24 -0.24)">
      <defs>
       <path d="M 19.703125 61.015625 
C 19.703125 65.5 20.90625 65.5 28.09375 65.5 
L 28.09375 68 
C 24.90625 68 19.796875 68 16.40625 68 
C 13 68 7.90625 68 4.703125 68 
L 4.703125 65.5 
C 11.90625 65.5 13.09375 65.5 13.09375 61.015625 
L 13.09375 6.984375 
C 13.09375 2.5 11.90625 2.5 4.703125 2.5 
L 4.703125 0 
C 7.90625 0 13 0 16.40625 0 
C 19.796875 0 24.90625 0 28.09375 0 
L 28.09375 2.5 
C 20.90625 2.5 19.703125 2.5 19.703125 6.984375 
z
" id="CMR17-73"/>
       <path d="M 67.59375 30.203125 
C 67.59375 35.1875 66.703125 43.59375 54.796875 43.59375 
C 48 43.59375 43.296875 39 41.5 33.609375 
L 41.40625 33.609375 
C 40.203125 41.8125 34.296875 43.59375 28.703125 43.59375 
C 20.796875 43.59375 16.703125 37.5 15.203125 33.5 
L 15.09375 33.5 
L 15.09375 43.59375 
L 3.296875 42.5 
L 3.296875 39.90625 
C 9.203125 39.90625 10.09375 39.296875 10.09375 34.5 
L 10.09375 6.6875 
C 10.09375 2.875 9.703125 2.390625 3.296875 2.390625 
L 3.296875 -0.203125 
C 5.703125 0 10.09375 0 12.703125 0 
C 15.296875 0 19.796875 0 22.203125 -0.203125 
L 22.203125 2.390625 
C 15.796875 2.390625 15.40625 2.78125 15.40625 6.6875 
L 15.40625 25.90625 
C 15.40625 35.109375 21 42 28 42 
C 35.40625 42 36.203125 35.40625 36.203125 30.59375 
L 36.203125 6.6875 
C 36.203125 2.875 35.796875 2.390625 29.40625 2.390625 
L 29.40625 -0.203125 
C 31.796875 0 36.203125 0 38.796875 0 
C 41.40625 0 45.90625 0 48.296875 -0.203125 
L 48.296875 2.390625 
C 41.90625 2.390625 41.5 2.78125 41.5 6.6875 
L 41.5 25.90625 
C 41.5 35.109375 47.09375 42 54.09375 42 
C 61.5 42 62.296875 35.40625 62.296875 30.59375 
L 62.296875 6.6875 
C 62.296875 2.875 61.90625 2.390625 55.5 2.390625 
L 55.5 -0.203125 
C 57.90625 0 62.296875 0 64.90625 0 
C 67.5 0 72 0 74.40625 -0.203125 
L 74.40625 2.390625 
C 68 2.390625 67.59375 2.78125 67.59375 6.6875 
z
" id="CMR17-109"/>
       <path d="M 11.09375 18.1875 
C 13 16.6875 16.296875 15 20.296875 15 
C 28.203125 15 35 21.203125 35 29.5 
C 35 32.09375 34.203125 36.09375 31.203125 39.203125 
C 34 42.0625 38.09375 43 40.40625 43 
C 40.796875 43 41.40625 43 41.90625 42.71875 
C 41.5 42.625 40.59375 42.234375 40.59375 40.703125 
C 40.59375 39.484375 41.5 38.609375 42.796875 38.609375 
C 44.296875 38.609375 45.09375 39.578125 45.09375 40.84375 
C 45.09375 42.671875 43.59375 44.59375 40.40625 44.59375 
C 36.40625 44.59375 32.90625 42.78125 30.09375 40.3125 
C 27.09375 43.015625 23.5 44 20.296875 44 
C 12.40625 44 5.59375 37.796875 5.59375 29.5 
C 5.59375 23.78125 8.90625 20.1875 9.90625 19.1875 
C 6.90625 15.6875 6.90625 11.609375 6.90625 11.109375 
C 6.90625 8.515625 7.90625 4.71875 11.296875 2.625 
C 6.09375 1.328125 2 -2.640625 2 -7.59375 
C 2 -14.734375 11.5 -20 22.90625 -20 
C 33.90625 -20 43.796875 -14.9375 43.796875 -7.484375 
C 43.796875 6 29 6 21.296875 6 
C 19 6 14.90625 6 14.40625 6.109375 
C 11.296875 6.609375 9.203125 9.40625 9.203125 12.90625 
C 9.203125 13.796875 9.203125 16 11.09375 18.1875 
z
M 20.296875 16.6875 
C 11.5 16.6875 11.5 27.5 11.5 29.515625 
C 11.5 31.5 11.5 42.3125 20.296875 42.3125 
C 29.09375 42.3125 29.09375 31.5 29.09375 29.515625 
C 29.09375 27.5 29.09375 16.6875 20.296875 16.6875 
z
M 22.90625 -18.296875 
C 12.90625 -18.296875 6 -13.046875 6 -7.59375 
C 6 -4.515625 7.703125 -1.640625 9.90625 -0.0625 
C 12.40625 1.625 13.40625 1.625 20.203125 1.625 
C 28.40625 1.625 39.796875 1.625 39.796875 -7.59375 
C 39.796875 -13.046875 32.90625 -18.296875 22.90625 -18.296875 
z
" id="CMR17-103"/>
       <path d="M 15.5 61.078125 
C 15.5 63.265625 13.703125 65.15625 11.40625 65.15625 
C 9.203125 65.15625 7.296875 63.375 7.296875 61.078125 
C 7.296875 58.890625 9.09375 57 11.40625 57 
C 13.59375 57 15.5 58.796875 15.5 61.078125 
z
M 3.796875 42.28125 
L 3.796875 39.703125 
C 9.40625 39.703125 10.203125 39.09375 10.203125 34.328125 
L 10.203125 6.671875 
C 10.203125 2.875 9.796875 2.390625 3.40625 2.390625 
L 3.40625 -0.203125 
C 5.796875 0 10.09375 0 12.59375 0 
C 15 0 19.09375 0 21.40625 -0.203125 
L 21.40625 2.390625 
C 15.5 2.390625 15.296875 2.984375 15.296875 6.5625 
L 15.296875 43.375 
z
" id="CMR17-105"/>
       <path d="M 41.5 30.203125 
C 41.5 35.296875 40.5 43.59375 28.703125 43.59375 
C 20.796875 43.59375 16.703125 37.5 15.203125 33.5 
L 15.09375 33.5 
L 15.09375 43.59375 
L 3.296875 42.5 
L 3.296875 39.90625 
C 9.203125 39.90625 10.09375 39.296875 10.09375 34.5 
L 10.09375 6.6875 
C 10.09375 2.875 9.703125 2.390625 3.296875 2.390625 
L 3.296875 -0.203125 
C 5.703125 0 10.09375 0 12.703125 0 
C 15.296875 0 19.796875 0 22.203125 -0.203125 
L 22.203125 2.390625 
C 15.796875 2.390625 15.40625 2.78125 15.40625 6.6875 
L 15.40625 25.90625 
C 15.40625 35.109375 21 42 28 42 
C 35.40625 42 36.203125 35.40625 36.203125 30.59375 
L 36.203125 6.6875 
C 36.203125 2.875 35.796875 2.390625 29.40625 2.390625 
L 29.40625 -0.203125 
C 31.796875 0 36.203125 0 38.796875 0 
C 41.40625 0 45.90625 0 48.296875 -0.203125 
L 48.296875 2.390625 
C 41.90625 2.390625 41.5 2.78125 41.5 6.6875 
z
" id="CMR17-110"/>
       <path d="M 15 23.390625 
C 15 33 19.09375 42 26.59375 42 
C 27.296875 42 28 41.90625 28.703125 41.59375 
C 28.703125 41.59375 26.5 40.890625 26.5 38.3125 
C 26.5 35.90625 28.40625 34.90625 29.90625 34.90625 
C 31.09375 34.90625 33.296875 35.609375 33.296875 38.40625 
C 33.296875 41.609375 30.09375 43.59375 26.703125 43.59375 
C 19.09375 43.59375 15.796875 36.203125 14.796875 32.703125 
L 14.703125 32.703125 
L 14.703125 43.59375 
L 3.09375 42.5 
L 3.09375 39.90625 
C 9 39.90625 9.90625 39.296875 9.90625 34.5 
L 9.90625 6.6875 
C 9.90625 2.875 9.5 2.390625 3.09375 2.390625 
L 3.09375 -0.203125 
C 5.5 0 10.09375 0 12.703125 0 
C 15.59375 0 20.703125 0 23.40625 -0.203125 
L 23.40625 2.390625 
C 16.203125 2.390625 15 2.390625 15 6.875 
z
" id="CMR17-114"/>
       <path d="M 39 34.328125 
C 41.5 40.40625 46 40.40625 47.40625 40.40625 
L 47.40625 43 
C 45.5 43 43 43 41.09375 43 
C 39 43 35.703125 43 33.703125 43.09375 
L 33.703125 40.5 
C 37.5 40.203125 37.59375 37.40625 37.59375 36.609375 
C 37.59375 35.625 37.40625 35.125 36.90625 33.921875 
L 26 7.015625 
L 14.09375 36.03125 
C 13.59375 37.21875 13.59375 37.90625 13.59375 38.015625 
C 13.59375 40.203125 15.90625 40.40625 18.296875 40.40625 
L 18.296875 43.09375 
C 15.90625 43 11.59375 43 9.09375 43 
C 6.40625 43 3.203125 43 1 43.09375 
L 1 40.40625 
C 6.40625 40.40625 7 39.90625 8.296875 36.71875 
L 23.203125 0.234375 
C 18.703125 -11.53125 16.09375 -18.40625 9.796875 -18.40625 
C 8.703125 -18.40625 6.203125 -18.109375 4.40625 -16.3125 
C 6.703125 -16.109375 7.703125 -14.71875 7.703125 -13.015625 
C 7.703125 -11.328125 6.5 -9.828125 4.5 -9.828125 
C 2.296875 -9.828125 1.203125 -11.328125 1.203125 -13.125 
C 1.203125 -17.109375 5.296875 -20 9.796875 -20 
C 15.59375 -20 19.203125 -14.40625 21.203125 -9.4375 
z
" id="CMR17-121"/>
      </defs>
      <use transform="scale(0.996264)" xlink:href="#CMR17-73"/>
      <use transform="translate(32.638409 0)scale(0.996264)" xlink:href="#CMR17-109"/>
      <use transform="translate(109.557999 0)scale(0.996264)" xlink:href="#CMR17-97"/>
      <use transform="translate(155.248476 0)scale(0.996264)" xlink:href="#CMR17-103"/>
      <use transform="translate(200.938953 0)scale(0.996264)" xlink:href="#CMR17-105"/>
      <use transform="translate(225.810012 0)scale(0.996264)" xlink:href="#CMR17-110"/>
      <use transform="translate(276.705382 0)scale(0.996264)" xlink:href="#CMR17-97"/>
      <use transform="translate(322.395859 0)scale(0.996264)" xlink:href="#CMR17-114"/>
      <use transform="translate(357.676626 0)scale(0.996264)" xlink:href="#CMR17-121"/>
     </g>
    </g>
    <g id="text_39">
     <!-- $\times\mathdefault{10^{−17}}\mathdefault{}$ -->
     <g transform="translate(92.457146 314.057736)scale(0.16 -0.16)">
      <defs>
       <path d="M 38.90625 27.890625 
L 18.90625 47.796875 
C 17.703125 49 17.5 49.1875 16.703125 49.1875 
C 15.703125 49.1875 14.703125 48.296875 14.703125 47.1875 
C 14.703125 46.5 14.90625 46.296875 16 45.1875 
L 36 25.09375 
L 16 5 
C 14.90625 3.890625 14.703125 3.6875 14.703125 3 
C 14.703125 1.890625 15.703125 1 16.703125 1 
C 17.5 1 17.703125 1.1875 18.90625 2.390625 
L 38.796875 22.296875 
L 59.5 1.59375 
C 59.703125 1.5 60.40625 1 61 1 
C 62.203125 1 63 1.890625 63 3 
C 63 3.1875 63 3.59375 62.703125 4.09375 
C 62.59375 4.296875 46.703125 20 41.703125 25.09375 
L 60 43.390625 
C 60.5 44 62 45.296875 62.5 45.890625 
C 62.59375 46.09375 63 46.5 63 47.1875 
C 63 48.296875 62.203125 49.1875 61 49.1875 
C 60.203125 49.1875 59.796875 48.796875 58.703125 47.6875 
z
" id="CMSY10-2"/>
       <path d="M 45.09375 61.578125 
L 45.09375 63.765625 
L 21.59375 63.765625 
C 9.90625 63.765625 9.703125 65.078125 9.296875 67 
L 7.5 67 
L 4.59375 48.34375 
L 6.40625 48.34375 
C 6.703125 50.234375 7.40625 55.3125 8.59375 57.203125 
C 9.203125 58 16.59375 58 18.296875 58 
L 40.296875 58 
L 29.203125 41.578125 
C 21.796875 30.53125 16.703125 15.609375 16.703125 2.578125 
C 16.703125 1.390625 16.703125 -2 20.296875 -2 
C 23.90625 -2 23.90625 1.390625 23.90625 2.671875 
L 23.90625 7.265625 
C 23.90625 23.5625 26.703125 34.3125 31.296875 41.1875 
z
" id="CMR17-55"/>
      </defs>
      <use transform="scale(0.996264)" xlink:href="#CMSY10-2"/>
      <use transform="translate(77.487468 0)scale(0.996264)" xlink:href="#CMR17-49"/>
      <use transform="translate(123.177945 0)scale(0.996264)" xlink:href="#CMR17-48"/>
      <use transform="translate(168.868422 36.153639)scale(0.697382)" xlink:href="#CMSY10-0"/>
      <use transform="translate(223.109415 36.153639)scale(0.697382)" xlink:href="#CMR17-49"/>
      <use transform="translate(255.092597 36.153639)scale(0.697382)" xlink:href="#CMR17-55"/>
     </g>
    </g>
   </g>
   <g id="LineCollection_4">
    <path clip-path="url(#p5f3e0270cf)" d="M 103.688234 462.087121 
L 103.688234 396.32341 
" style="fill:none;stroke:#ff0000;stroke-width:2;"/>
    <path clip-path="url(#p5f3e0270cf)" d="M 110.934098 399.109575 
L 110.934098 326.047427 
" style="fill:none;stroke:#ff0000;stroke-width:2;"/>
    <path clip-path="url(#p5f3e0270cf)" d="M 118.179961 505.841245 
L 118.179961 444.854664 
" style="fill:none;stroke:#ff0000;stroke-width:2;"/>
    <path clip-path="url(#p5f3e0270cf)" d="M 125.425825 453.809971 
L 125.425825 415.725597 
" style="fill:none;stroke:#ff0000;stroke-width:2;"/>
    <path clip-path="url(#p5f3e0270cf)" d="M 132.671688 492.128075 
L 132.671688 457.244786 
" style="fill:none;stroke:#ff0000;stroke-width:2;"/>
    <path clip-path="url(#p5f3e0270cf)" d="M 139.917552 471.762765 
L 139.917552 444.290261 
" style="fill:none;stroke:#ff0000;stroke-width:2;"/>
    <path clip-path="url(#p5f3e0270cf)" d="M 147.163416 481.679733 
L 147.163416 460.725004 
" style="fill:none;stroke:#ff0000;stroke-width:2;"/>
    <path clip-path="url(#p5f3e0270cf)" d="M 154.409279 463.93576 
L 154.409279 447.57747 
" style="fill:none;stroke:#ff0000;stroke-width:2;"/>
    <path clip-path="url(#p5f3e0270cf)" d="M 161.655143 468.862109 
L 161.655143 453.813551 
" style="fill:none;stroke:#ff0000;stroke-width:2;"/>
    <path clip-path="url(#p5f3e0270cf)" d="M 168.901006 452.228208 
L 168.901006 443.235195 
" style="fill:none;stroke:#ff0000;stroke-width:2;"/>
    <path clip-path="url(#p5f3e0270cf)" d="M 176.14687 463.298745 
L 176.14687 454.941088 
" style="fill:none;stroke:#ff0000;stroke-width:2;"/>
    <path clip-path="url(#p5f3e0270cf)" d="M 183.392733 469.090892 
L 183.392733 461.032327 
" style="fill:none;stroke:#ff0000;stroke-width:2;"/>
    <path clip-path="url(#p5f3e0270cf)" d="M 190.638597 465.653593 
L 190.638597 460.711886 
" style="fill:none;stroke:#ff0000;stroke-width:2;"/>
    <path clip-path="url(#p5f3e0270cf)" d="M 197.884461 465.785423 
L 197.884461 460.976513 
" style="fill:none;stroke:#ff0000;stroke-width:2;"/>
    <path clip-path="url(#p5f3e0270cf)" d="M 205.130324 464.83003 
L 205.130324 461.047574 
" style="fill:none;stroke:#ff0000;stroke-width:2;"/>
    <path clip-path="url(#p5f3e0270cf)" d="M 212.376188 463.650274 
L 212.376188 461.243526 
" style="fill:none;stroke:#ff0000;stroke-width:2;"/>
    <path clip-path="url(#p5f3e0270cf)" d="M 219.622051 466.580169 
L 219.622051 463.872375 
" style="fill:none;stroke:#ff0000;stroke-width:2;"/>
    <path clip-path="url(#p5f3e0270cf)" d="M 226.867915 463.416555 
L 226.867915 459.872992 
" style="fill:none;stroke:#ff0000;stroke-width:2;"/>
    <path clip-path="url(#p5f3e0270cf)" d="M 234.113778 465.298603 
L 234.113778 462.562223 
" style="fill:none;stroke:#ff0000;stroke-width:2;"/>
    <path clip-path="url(#p5f3e0270cf)" d="M 241.359642 465.737875 
L 241.359642 462.376364 
" style="fill:none;stroke:#ff0000;stroke-width:2;"/>
    <path clip-path="url(#p5f3e0270cf)" d="M 248.605506 461.066817 
L 248.605506 455.915887 
" style="fill:none;stroke:#ff0000;stroke-width:2;"/>
    <path clip-path="url(#p5f3e0270cf)" d="M 255.851369 460.630122 
L 255.851369 454.219175 
" style="fill:none;stroke:#ff0000;stroke-width:2;"/>
    <path clip-path="url(#p5f3e0270cf)" d="M 263.097233 468.419782 
L 263.097233 458.836732 
" style="fill:none;stroke:#ff0000;stroke-width:2;"/>
    <path clip-path="url(#p5f3e0270cf)" d="M 270.343096 468.5505 
L 270.343096 455.59449 
" style="fill:none;stroke:#ff0000;stroke-width:2;"/>
    <path clip-path="url(#p5f3e0270cf)" d="M 277.58896 472.737069 
L 277.58896 459.517796 
" style="fill:none;stroke:#ff0000;stroke-width:2;"/>
    <path clip-path="url(#p5f3e0270cf)" d="M 284.834823 463.346939 
L 284.834823 445.385425 
" style="fill:none;stroke:#ff0000;stroke-width:2;"/>
    <path clip-path="url(#p5f3e0270cf)" d="M 292.080687 473.902622 
L 292.080687 453.291853 
" style="fill:none;stroke:#ff0000;stroke-width:2;"/>
    <path clip-path="url(#p5f3e0270cf)" d="M 299.326551 464.207744 
L 299.326551 437.338472 
" style="fill:none;stroke:#ff0000;stroke-width:2;"/>
    <path clip-path="url(#p5f3e0270cf)" d="M 306.572414 476.311252 
L 306.572414 436.869193 
" style="fill:none;stroke:#ff0000;stroke-width:2;"/>
    <path clip-path="url(#p5f3e0270cf)" d="M 313.818278 484.125774 
L 313.818278 438.773605 
" style="fill:none;stroke:#ff0000;stroke-width:2;"/>
    <path clip-path="url(#p5f3e0270cf)" d="M 321.064141 457.367816 
L 321.064141 400.612138 
" style="fill:none;stroke:#ff0000;stroke-width:2;"/>
    <path clip-path="url(#p5f3e0270cf)" d="M 328.310005 487.257858 
L 328.310005 401.141749 
" style="fill:none;stroke:#ff0000;stroke-width:2;"/>
   </g>
   <g id="line2d_37">
    <path clip-path="url(#p5f3e0270cf)" d="M 103.688234 429.205265 
L 110.934098 362.578501 
L 118.179961 475.347954 
L 125.425825 434.767784 
L 132.671688 474.686431 
L 139.917552 458.026513 
L 147.163416 471.202369 
L 154.409279 455.756615 
L 161.655143 461.33783 
L 168.901006 447.731702 
L 176.14687 459.119917 
L 183.392733 465.061609 
L 190.638597 463.182739 
L 197.884461 463.380968 
L 205.130324 462.938802 
L 212.376188 462.4469 
L 219.622051 465.226272 
L 226.867915 461.644773 
L 234.113778 463.930413 
L 241.359642 464.05712 
L 248.605506 458.491352 
L 255.851369 457.424649 
L 263.097233 463.628257 
L 270.343096 462.072495 
L 277.58896 466.127433 
L 284.834823 454.366182 
L 292.080687 463.597238 
L 299.326551 450.773108 
L 306.572414 456.590223 
L 313.818278 461.449689 
L 321.064141 428.989977 
L 328.310005 444.199803 
" style="fill:none;stroke:#000000;stroke-linecap:square;stroke-width:2;"/>
   </g>
   <g id="patch_18">
    <path d="M 92.457146 514.830936 
L 92.457146 317.057736 
" style="fill:none;stroke:#000000;stroke-linecap:square;stroke-linejoin:miter;stroke-width:0.8;"/>
   </g>
   <g id="patch_19">
    <path d="M 339.541093 514.830936 
L 339.541093 317.057736 
" style="fill:none;stroke:#000000;stroke-linecap:square;stroke-linejoin:miter;stroke-width:0.8;"/>
   </g>
   <g id="patch_20">
    <path d="M 92.457146 514.830936 
L 339.541093 514.830936 
" style="fill:none;stroke:#000000;stroke-linecap:square;stroke-linejoin:miter;stroke-width:0.8;"/>
   </g>
   <g id="patch_21">
    <path d="M 92.457146 317.057736 
L 339.541093 317.057736 
" style="fill:none;stroke:#000000;stroke-linecap:square;stroke-linejoin:miter;stroke-width:0.8;"/>
   </g>
  </g>
  <g id="axes_5">
   <g id="patch_22">
    <path d="M 406.686599 514.830936 
L 653.770547 514.830936 
L 653.770547 317.057736 
L 406.686599 317.057736 
z
" style="fill:#ffffff;"/>
   </g>
   <g id="matplotlib.axis_9">
    <g id="xtick_17">
     <g id="line2d_38">
      <g>
       <use style="stroke:#000000;stroke-width:0.8;" x="417.917687" xlink:href="#m814df1ba90" y="514.830936"/>
      </g>
     </g>
     <g id="text_40">
      <!-- $\mathdefault{0}$ -->
      <g transform="translate(414.015694 532.900524)scale(0.16 -0.16)">
       <use transform="scale(0.996264)" xlink:href="#CMR17-48"/>
      </g>
     </g>
    </g>
    <g id="xtick_18">
     <g id="line2d_39">
      <g>
       <use style="stroke:#000000;stroke-width:0.8;" x="488.111991" xlink:href="#m814df1ba90" y="514.830936"/>
      </g>
     </g>
     <g id="text_41">
      <!-- $\mathdefault{5}$ -->
      <g transform="translate(484.209997 532.900524)scale(0.16 -0.16)">
       <use transform="scale(0.996264)" xlink:href="#CMR17-53"/>
      </g>
     </g>
    </g>
    <g id="xtick_19">
     <g id="line2d_40">
      <g>
       <use style="stroke:#000000;stroke-width:0.8;" x="558.306294" xlink:href="#m814df1ba90" y="514.830936"/>
      </g>
     </g>
     <g id="text_42">
      <!-- $\mathdefault{10}$ -->
      <g transform="translate(550.502307 532.900524)scale(0.16 -0.16)">
       <use transform="scale(0.996264)" xlink:href="#CMR17-49"/>
       <use transform="translate(45.690477 0)scale(0.996264)" xlink:href="#CMR17-48"/>
      </g>
     </g>
    </g>
    <g id="xtick_20">
     <g id="line2d_41">
      <g>
       <use style="stroke:#000000;stroke-width:0.8;" x="628.500598" xlink:href="#m814df1ba90" y="514.830936"/>
      </g>
     </g>
     <g id="text_43">
      <!-- $\mathdefault{15}$ -->
      <g transform="translate(620.696611 532.900524)scale(0.16 -0.16)">
       <use transform="scale(0.996264)" xlink:href="#CMR17-49"/>
       <use transform="translate(45.690477 0)scale(0.996264)" xlink:href="#CMR17-53"/>
      </g>
     </g>
    </g>
   </g>
   <g id="matplotlib.axis_10">
    <g id="ytick_18">
     <g id="line2d_42">
      <g>
       <use style="stroke:#000000;stroke-width:0.8;" x="406.686599" xlink:href="#m8b45bd0a60" y="477.133991"/>
      </g>
     </g>
     <g id="text_44">
      <!-- $\mathdefault{0.0}$ -->
      <g transform="translate(379.743077 482.668786)scale(0.16 -0.16)">
       <use transform="scale(0.996264)" xlink:href="#CMR17-48"/>
       <use transform="translate(45.690477 0)scale(0.996264)" xlink:href="#CMMI12-58"/>
       <use transform="translate(72.787654 0)scale(0.996264)" xlink:href="#CMR17-48"/>
      </g>
     </g>
    </g>
    <g id="ytick_19">
     <g id="line2d_43">
      <g>
       <use style="stroke:#000000;stroke-width:0.8;" x="406.686599" xlink:href="#m8b45bd0a60" y="433.286073"/>
      </g>
     </g>
     <g id="text_45">
      <!-- $\mathdefault{0.5}$ -->
      <g transform="translate(379.743077 438.820867)scale(0.16 -0.16)">
       <use transform="scale(0.996264)" xlink:href="#CMR17-48"/>
       <use transform="translate(45.690477 0)scale(0.996264)" xlink:href="#CMMI12-58"/>
       <use transform="translate(72.787654 0)scale(0.996264)" xlink:href="#CMR17-53"/>
      </g>
     </g>
    </g>
    <g id="ytick_20">
     <g id="line2d_44">
      <g>
       <use style="stroke:#000000;stroke-width:0.8;" x="406.686599" xlink:href="#m8b45bd0a60" y="389.438154"/>
      </g>
     </g>
     <g id="text_46">
      <!-- $\mathdefault{1.0}$ -->
      <g transform="translate(379.743077 394.972948)scale(0.16 -0.16)">
       <use transform="scale(0.996264)" xlink:href="#CMR17-49"/>
       <use transform="translate(45.690477 0)scale(0.996264)" xlink:href="#CMMI12-58"/>
       <use transform="translate(72.787654 0)scale(0.996264)" xlink:href="#CMR17-48"/>
      </g>
     </g>
    </g>
    <g id="ytick_21">
     <g id="line2d_45">
      <g>
       <use style="stroke:#000000;stroke-width:0.8;" x="406.686599" xlink:href="#m8b45bd0a60" y="345.590235"/>
      </g>
     </g>
     <g id="text_47">
      <!-- $\mathdefault{1.5}$ -->
      <g transform="translate(379.743077 351.125029)scale(0.16 -0.16)">
       <use transform="scale(0.996264)" xlink:href="#CMR17-49"/>
       <use transform="translate(45.690477 0)scale(0.996264)" xlink:href="#CMMI12-58"/>
       <use transform="translate(72.787654 0)scale(0.996264)" xlink:href="#CMR17-53"/>
      </g>
     </g>
    </g>
    <g id="text_48">
     <!-- $\times\mathdefault{10^{−17}}\mathdefault{}$ -->
     <g transform="translate(406.686599 314.057736)scale(0.16 -0.16)">
      <use transform="scale(0.996264)" xlink:href="#CMSY10-2"/>
      <use transform="translate(77.487468 0)scale(0.996264)" xlink:href="#CMR17-49"/>
      <use transform="translate(123.177945 0)scale(0.996264)" xlink:href="#CMR17-48"/>
      <use transform="translate(168.868422 36.153639)scale(0.697382)" xlink:href="#CMSY10-0"/>
      <use transform="translate(223.109415 36.153639)scale(0.697382)" xlink:href="#CMR17-49"/>
      <use transform="translate(255.092597 36.153639)scale(0.697382)" xlink:href="#CMR17-55"/>
     </g>
    </g>
   </g>
   <g id="LineCollection_5">
    <path clip-path="url(#p806de8abd2)" d="M 417.917687 476.278265 
L 417.917687 363.099578 
" style="fill:none;stroke:#ff0000;stroke-width:2;"/>
    <path clip-path="url(#p806de8abd2)" d="M 431.956548 424.471872 
L 431.956548 326.047427 
" style="fill:none;stroke:#ff0000;stroke-width:2;"/>
    <path clip-path="url(#p806de8abd2)" d="M 445.995409 496.892178 
L 445.995409 421.52626 
" style="fill:none;stroke:#ff0000;stroke-width:2;"/>
    <path clip-path="url(#p806de8abd2)" d="M 460.034269 477.440304 
L 460.034269 427.002909 
" style="fill:none;stroke:#ff0000;stroke-width:2;"/>
    <path clip-path="url(#p806de8abd2)" d="M 474.07313 505.841245 
L 474.07313 458.938466 
" style="fill:none;stroke:#ff0000;stroke-width:2;"/>
    <path clip-path="url(#p806de8abd2)" d="M 488.111991 479.213127 
L 488.111991 446.883835 
" style="fill:none;stroke:#ff0000;stroke-width:2;"/>
    <path clip-path="url(#p806de8abd2)" d="M 502.150851 498.122056 
L 502.150851 472.72062 
" style="fill:none;stroke:#ff0000;stroke-width:2;"/>
    <path clip-path="url(#p806de8abd2)" d="M 516.189712 473.954134 
L 516.189712 454.420001 
" style="fill:none;stroke:#ff0000;stroke-width:2;"/>
    <path clip-path="url(#p806de8abd2)" d="M 530.228573 487.475597 
L 530.228573 470.744748 
" style="fill:none;stroke:#ff0000;stroke-width:2;"/>
    <path clip-path="url(#p806de8abd2)" d="M 544.267433 470.736665 
L 544.267433 457.089162 
" style="fill:none;stroke:#ff0000;stroke-width:2;"/>
    <path clip-path="url(#p806de8abd2)" d="M 558.306294 480.505577 
L 558.306294 469.596705 
" style="fill:none;stroke:#ff0000;stroke-width:2;"/>
    <path clip-path="url(#p806de8abd2)" d="M 572.345155 479.485427 
L 572.345155 470.1661 
" style="fill:none;stroke:#ff0000;stroke-width:2;"/>
    <path clip-path="url(#p806de8abd2)" d="M 586.384015 477.14141 
L 586.384015 471.112387 
" style="fill:none;stroke:#ff0000;stroke-width:2;"/>
    <path clip-path="url(#p806de8abd2)" d="M 600.422876 481.604163 
L 600.422876 476.569413 
" style="fill:none;stroke:#ff0000;stroke-width:2;"/>
    <path clip-path="url(#p806de8abd2)" d="M 614.461737 480.467515 
L 614.461737 476.727038 
" style="fill:none;stroke:#ff0000;stroke-width:2;"/>
    <path clip-path="url(#p806de8abd2)" d="M 628.500598 478.052626 
L 628.500598 474.361806 
" style="fill:none;stroke:#ff0000;stroke-width:2;"/>
    <path clip-path="url(#p806de8abd2)" d="M 642.539458 484.010755 
L 642.539458 479.350669 
" style="fill:none;stroke:#ff0000;stroke-width:2;"/>
   </g>
   <g id="line2d_46">
    <path clip-path="url(#p806de8abd2)" d="M 417.917687 419.688922 
L 431.956548 375.25965 
L 445.995409 459.209219 
L 460.034269 452.221607 
L 474.07313 482.389855 
L 488.111991 463.048481 
L 502.150851 485.421338 
L 516.189712 464.187068 
L 530.228573 479.110173 
L 544.267433 463.912914 
L 558.306294 475.051141 
L 572.345155 474.825764 
L 586.384015 474.126898 
L 600.422876 479.086788 
L 614.461737 478.597276 
L 628.500598 476.207216 
L 642.539458 481.680712 
" style="fill:none;stroke:#000000;stroke-linecap:square;stroke-width:2;"/>
   </g>
   <g id="patch_23">
    <path d="M 406.686599 514.830936 
L 406.686599 317.057736 
" style="fill:none;stroke:#000000;stroke-linecap:square;stroke-linejoin:miter;stroke-width:0.8;"/>
   </g>
   <g id="patch_24">
    <path d="M 653.770547 514.830936 
L 653.770547 317.057736 
" style="fill:none;stroke:#000000;stroke-linecap:square;stroke-linejoin:miter;stroke-width:0.8;"/>
   </g>
   <g id="patch_25">
    <path d="M 406.686599 514.830936 
L 653.770547 514.830936 
" style="fill:none;stroke:#000000;stroke-linecap:square;stroke-linejoin:miter;stroke-width:0.8;"/>
   </g>
   <g id="patch_26">
    <path d="M 406.686599 317.057736 
L 653.770547 317.057736 
" style="fill:none;stroke:#000000;stroke-linecap:square;stroke-linejoin:miter;stroke-width:0.8;"/>
   </g>
  </g>
  <g id="axes_6">
   <g id="patch_27">
    <path d="M 720.916052 514.830936 
L 968 514.830936 
L 968 317.057736 
L 720.916052 317.057736 
z
" style="fill:#ffffff;"/>
   </g>
   <g id="matplotlib.axis_11">
    <g id="xtick_21">
     <g id="line2d_47">
      <g>
       <use style="stroke:#000000;stroke-width:0.8;" x="732.147141" xlink:href="#m814df1ba90" y="514.830936"/>
      </g>
     </g>
     <g id="text_49">
      <!-- $\mathdefault{0}$ -->
      <g transform="translate(728.245147 532.900524)scale(0.16 -0.16)">
       <use transform="scale(0.996264)" xlink:href="#CMR17-48"/>
      </g>
     </g>
    </g>
    <g id="xtick_22">
     <g id="line2d_48">
      <g>
       <use style="stroke:#000000;stroke-width:0.8;" x="802.341444" xlink:href="#m814df1ba90" y="514.830936"/>
      </g>
     </g>
     <g id="text_50">
      <!-- $\mathdefault{5}$ -->
      <g transform="translate(798.439451 532.900524)scale(0.16 -0.16)">
       <use transform="scale(0.996264)" xlink:href="#CMR17-53"/>
      </g>
     </g>
    </g>
    <g id="xtick_23">
     <g id="line2d_49">
      <g>
       <use style="stroke:#000000;stroke-width:0.8;" x="872.535747" xlink:href="#m814df1ba90" y="514.830936"/>
      </g>
     </g>
     <g id="text_51">
      <!-- $\mathdefault{10}$ -->
      <g transform="translate(864.73176 532.900524)scale(0.16 -0.16)">
       <use transform="scale(0.996264)" xlink:href="#CMR17-49"/>
       <use transform="translate(45.690477 0)scale(0.996264)" xlink:href="#CMR17-48"/>
      </g>
     </g>
    </g>
    <g id="xtick_24">
     <g id="line2d_50">
      <g>
       <use style="stroke:#000000;stroke-width:0.8;" x="942.730051" xlink:href="#m814df1ba90" y="514.830936"/>
      </g>
     </g>
     <g id="text_52">
      <!-- $\mathdefault{15}$ -->
      <g transform="translate(934.926064 532.900524)scale(0.16 -0.16)">
       <use transform="scale(0.996264)" xlink:href="#CMR17-49"/>
       <use transform="translate(45.690477 0)scale(0.996264)" xlink:href="#CMR17-53"/>
      </g>
     </g>
    </g>
   </g>
   <g id="matplotlib.axis_12">
    <g id="ytick_22">
     <g id="line2d_51">
      <g>
       <use style="stroke:#000000;stroke-width:0.8;" x="720.916052" xlink:href="#m8b45bd0a60" y="477.795414"/>
      </g>
     </g>
     <g id="text_53">
      <!-- $\mathdefault{−0.5}$ -->
      <g transform="translate(681.574534 483.330208)scale(0.16 -0.16)">
       <use transform="scale(0.996264)" xlink:href="#CMSY10-0"/>
       <use transform="translate(77.487468 0)scale(0.996264)" xlink:href="#CMR17-48"/>
       <use transform="translate(123.177945 0)scale(0.996264)" xlink:href="#CMMI12-58"/>
       <use transform="translate(150.275122 0)scale(0.996264)" xlink:href="#CMR17-53"/>
      </g>
     </g>
    </g>
    <g id="ytick_23">
     <g id="line2d_52">
      <g>
       <use style="stroke:#000000;stroke-width:0.8;" x="720.916052" xlink:href="#m8b45bd0a60" y="436.732855"/>
      </g>
     </g>
     <g id="text_54">
      <!-- $\mathdefault{0.0}$ -->
      <g transform="translate(693.97253 442.267649)scale(0.16 -0.16)">
       <use transform="scale(0.996264)" xlink:href="#CMR17-48"/>
       <use transform="translate(45.690477 0)scale(0.996264)" xlink:href="#CMMI12-58"/>
       <use transform="translate(72.787654 0)scale(0.996264)" xlink:href="#CMR17-48"/>
      </g>
     </g>
    </g>
    <g id="ytick_24">
     <g id="line2d_53">
      <g>
       <use style="stroke:#000000;stroke-width:0.8;" x="720.916052" xlink:href="#m8b45bd0a60" y="395.670296"/>
      </g>
     </g>
     <g id="text_55">
      <!-- $\mathdefault{0.5}$ -->
      <g transform="translate(693.97253 401.20509)scale(0.16 -0.16)">
       <use transform="scale(0.996264)" xlink:href="#CMR17-48"/>
       <use transform="translate(45.690477 0)scale(0.996264)" xlink:href="#CMMI12-58"/>
       <use transform="translate(72.787654 0)scale(0.996264)" xlink:href="#CMR17-53"/>
      </g>
     </g>
    </g>
    <g id="ytick_25">
     <g id="line2d_54">
      <g>
       <use style="stroke:#000000;stroke-width:0.8;" x="720.916052" xlink:href="#m8b45bd0a60" y="354.607737"/>
      </g>
     </g>
     <g id="text_56">
      <!-- $\mathdefault{1.0}$ -->
      <g transform="translate(693.97253 360.142531)scale(0.16 -0.16)">
       <use transform="scale(0.996264)" xlink:href="#CMR17-49"/>
       <use transform="translate(45.690477 0)scale(0.996264)" xlink:href="#CMMI12-58"/>
       <use transform="translate(72.787654 0)scale(0.996264)" xlink:href="#CMR17-48"/>
      </g>
     </g>
    </g>
    <g id="text_57">
     <!-- $\times\mathdefault{10^{−17}}\mathdefault{}$ -->
     <g transform="translate(720.916052 314.057736)scale(0.16 -0.16)">
      <use transform="scale(0.996264)" xlink:href="#CMSY10-2"/>
      <use transform="translate(77.487468 0)scale(0.996264)" xlink:href="#CMR17-49"/>
      <use transform="translate(123.177945 0)scale(0.996264)" xlink:href="#CMR17-48"/>
      <use transform="translate(168.868422 36.153639)scale(0.697382)" xlink:href="#CMSY10-0"/>
      <use transform="translate(223.109415 36.153639)scale(0.697382)" xlink:href="#CMR17-49"/>
      <use transform="translate(255.092597 36.153639)scale(0.697382)" xlink:href="#CMR17-55"/>
     </g>
    </g>
   </g>
   <g id="LineCollection_6">
    <path clip-path="url(#p371fa1cf8c)" d="M 732.147141 436.732855 
L 732.147141 436.732855 
" style="fill:none;stroke:#ff0000;stroke-width:2;"/>
    <path clip-path="url(#p371fa1cf8c)" d="M 746.186001 415.871908 
L 746.186001 326.047427 
" style="fill:none;stroke:#ff0000;stroke-width:2;"/>
    <path clip-path="url(#p371fa1cf8c)" d="M 760.224862 505.841245 
L 760.224862 442.338097 
" style="fill:none;stroke:#ff0000;stroke-width:2;"/>
    <path clip-path="url(#p371fa1cf8c)" d="M 774.263723 439.335501 
L 774.263723 391.127857 
" style="fill:none;stroke:#ff0000;stroke-width:2;"/>
    <path clip-path="url(#p371fa1cf8c)" d="M 788.302583 471.757429 
L 788.302583 430.873346 
" style="fill:none;stroke:#ff0000;stroke-width:2;"/>
    <path clip-path="url(#p371fa1cf8c)" d="M 802.341444 458.398954 
L 802.341444 426.75683 
" style="fill:none;stroke:#ff0000;stroke-width:2;"/>
    <path clip-path="url(#p371fa1cf8c)" d="M 816.380305 454.652438 
L 816.380305 431.070212 
" style="fill:none;stroke:#ff0000;stroke-width:2;"/>
    <path clip-path="url(#p371fa1cf8c)" d="M 830.419165 448.244208 
L 830.419165 427.462417 
" style="fill:none;stroke:#ff0000;stroke-width:2;"/>
    <path clip-path="url(#p371fa1cf8c)" d="M 844.458026 441.173467 
L 844.458026 424.572997 
" style="fill:none;stroke:#ff0000;stroke-width:2;"/>
    <path clip-path="url(#p371fa1cf8c)" d="M 858.496887 431.495081 
L 858.496887 418.858043 
" style="fill:none;stroke:#ff0000;stroke-width:2;"/>
    <path clip-path="url(#p371fa1cf8c)" d="M 872.535747 438.238504 
L 872.535747 427.961262 
" style="fill:none;stroke:#ff0000;stroke-width:2;"/>
    <path clip-path="url(#p371fa1cf8c)" d="M 886.574608 446.809744 
L 886.574608 438.964204 
" style="fill:none;stroke:#ff0000;stroke-width:2;"/>
    <path clip-path="url(#p371fa1cf8c)" d="M 900.613469 443.441476 
L 900.613469 437.585188 
" style="fill:none;stroke:#ff0000;stroke-width:2;"/>
    <path clip-path="url(#p371fa1cf8c)" d="M 914.652329 438.558587 
L 914.652329 433.817391 
" style="fill:none;stroke:#ff0000;stroke-width:2;"/>
    <path clip-path="url(#p371fa1cf8c)" d="M 928.69119 437.936 
L 928.69119 433.931564 
" style="fill:none;stroke:#ff0000;stroke-width:2;"/>
    <path clip-path="url(#p371fa1cf8c)" d="M 942.730051 439.102923 
L 942.730051 435.655548 
" style="fill:none;stroke:#ff0000;stroke-width:2;"/>
    <path clip-path="url(#p371fa1cf8c)" d="M 956.768911 436.732855 
L 956.768911 436.732855 
" style="fill:none;stroke:#ff0000;stroke-width:2;"/>
   </g>
   <g id="line2d_55">
    <path clip-path="url(#p371fa1cf8c)" d="M 732.147141 436.732855 
L 746.186001 370.959667 
L 760.224862 474.089671 
L 774.263723 415.231679 
L 788.302583 451.315387 
L 802.341444 442.577892 
L 816.380305 442.861325 
L 830.419165 437.853312 
L 844.458026 432.873232 
L 858.496887 425.176562 
L 872.535747 433.099883 
L 886.574608 442.886974 
L 900.613469 440.513332 
L 914.652329 436.187989 
L 928.69119 435.933782 
L 942.730051 437.379235 
L 956.768911 436.732855 
" style="fill:none;stroke:#000000;stroke-linecap:square;stroke-width:2;"/>
   </g>
   <g id="patch_28">
    <path d="M 720.916052 514.830936 
L 720.916052 317.057736 
" style="fill:none;stroke:#000000;stroke-linecap:square;stroke-linejoin:miter;stroke-width:0.8;"/>
   </g>
   <g id="patch_29">
    <path d="M 968 514.830936 
L 968 317.057736 
" style="fill:none;stroke:#000000;stroke-linecap:square;stroke-linejoin:miter;stroke-width:0.8;"/>
   </g>
   <g id="patch_30">
    <path d="M 720.916052 514.830936 
L 968 514.830936 
" style="fill:none;stroke:#000000;stroke-linecap:square;stroke-linejoin:miter;stroke-width:0.8;"/>
   </g>
   <g id="patch_31">
    <path d="M 720.916052 317.057736 
L 968 317.057736 
" style="fill:none;stroke:#000000;stroke-linecap:square;stroke-linejoin:miter;stroke-width:0.8;"/>
   </g>
  </g>
 </g>
 <defs>
  <clipPath id="p2a8e1f87d5">
   <rect height="197.773199" width="247.083948" x="92.457146" y="63.911226"/>
  </clipPath>
  <clipPath id="pbdff92065c">
   <rect height="197.773199" width="247.083948" x="406.686599" y="63.911226"/>
  </clipPath>
  <clipPath id="p671f01278d">
   <rect height="197.773199" width="247.083948" x="720.916052" y="63.911226"/>
  </clipPath>
  <clipPath id="p5f3e0270cf">
   <rect height="197.773199" width="247.083948" x="92.457146" y="317.057736"/>
  </clipPath>
  <clipPath id="p806de8abd2">
   <rect height="197.773199" width="247.083948" x="406.686599" y="317.057736"/>
  </clipPath>
  <clipPath id="p371fa1cf8c">
   <rect height="197.773199" width="247.083948" x="720.916052" y="317.057736"/>
  </clipPath>
 </defs>
</svg>
