<?xml version="1.0" encoding="utf-8" standalone="no"?>
<!DOCTYPE svg PUBLIC "-//W3C//DTD SVG 1.1//EN"
  "http://www.w3.org/Graphics/SVG/1.1/DTD/svg11.dtd">
<!-- Created with matplotlib (https://matplotlib.org/) -->
<svg height="576pt" version="1.1" viewBox="0 0 1008 576" width="1008pt" xmlns="http://www.w3.org/2000/svg" xmlns:xlink="http://www.w3.org/1999/xlink">
 <metadata>
  <rdf:RDF xmlns:cc="http://creativecommons.org/ns#" xmlns:dc="http://purl.org/dc/elements/1.1/" xmlns:rdf="http://www.w3.org/1999/02/22-rdf-syntax-ns#">
   <cc:Work>
    <dc:type rdf:resource="http://purl.org/dc/dcmitype/StillImage"/>
    <dc:date>2022-10-25T15:45:43.918286</dc:date>
    <dc:format>image/svg+xml</dc:format>
    <dc:creator>
     <cc:Agent>
      <dc:title>Matplotlib v3.3.4, https://matplotlib.org/</dc:title>
     </cc:Agent>
    </dc:creator>
   </cc:Work>
  </rdf:RDF>
 </metadata>
 <defs>
  <style type="text/css">*{stroke-linecap:butt;stroke-linejoin:round;}</style>
 </defs>
 <g id="figure_1">
  <g id="patch_1">
   <path d="M 0 576 
L 1008 576 
L 1008 0 
L 0 0 
z
" style="fill:#ffffff;"/>
  </g>
  <g id="axes_1">
   <g id="patch_2">
    <path d="M 104.596681 261.684426 
L 347.634117 261.684426 
L 347.634117 63.911226 
L 104.596681 63.911226 
z
" style="fill:#ffffff;"/>
   </g>
   <g id="matplotlib.axis_1">
    <g id="xtick_1">
     <g id="line2d_1">
      <defs>
       <path d="M 0 0 
L 0 3.5 
" id="ma236c89e73" style="stroke:#000000;stroke-width:0.8;"/>
      </defs>
      <g>
       <use style="stroke:#000000;stroke-width:0.8;" x="115.643837" xlink:href="#ma236c89e73" y="261.684426"/>
      </g>
     </g>
     <g id="text_1">
      <!-- $\mathdefault{0}$ -->
      <g transform="translate(111.741844 279.754014)scale(0.16 -0.16)">
       <defs>
        <path d="M 42 31.640625 
C 42 37.75 41.90625 48.125 37.703125 56.109375 
C 34 63.109375 28.09375 65.59375 22.90625 65.59375 
C 18.09375 65.59375 12 63.40625 8.203125 56.203125 
C 4.203125 48.71875 3.796875 39.4375 3.796875 31.640625 
C 3.796875 25.953125 3.90625 17.28125 7 9.671875 
C 11.296875 -0.609375 19 -2 22.90625 -2 
C 27.5 -2 34.5 -0.109375 38.59375 9.375 
C 41.59375 16.28125 42 24.359375 42 31.640625 
z
M 22.90625 -0.40625 
C 16.5 -0.40625 12.703125 5.078125 11.296875 12.6875 
C 10.203125 18.5625 10.203125 27.15625 10.203125 32.75 
C 10.203125 40.4375 10.203125 46.828125 11.5 52.921875 
C 13.40625 61.390625 19 64 22.90625 64 
C 27 64 32.296875 61.296875 34.203125 53.125 
C 35.5 47.4375 35.59375 40.734375 35.59375 32.75 
C 35.59375 26.25 35.59375 18.265625 34.40625 12.375 
C 32.296875 1.484375 26.40625 -0.40625 22.90625 -0.40625 
z
" id="CMR17-48"/>
       </defs>
       <use transform="scale(0.996264)" xlink:href="#CMR17-48"/>
      </g>
     </g>
    </g>
    <g id="xtick_2">
     <g id="line2d_2">
      <g>
       <use style="stroke:#000000;stroke-width:0.8;" x="186.915812" xlink:href="#ma236c89e73" y="261.684426"/>
      </g>
     </g>
     <g id="text_2">
      <!-- $\mathdefault{10}$ -->
      <g transform="translate(179.111825 279.754014)scale(0.16 -0.16)">
       <defs>
        <path d="M 26.59375 63.40625 
C 26.59375 65.5 26.5 65.5 25.09375 65.5 
C 21.203125 61.1875 15.296875 59.796875 9.703125 59.796875 
C 9.40625 59.796875 8.90625 59.796875 8.796875 59.5 
C 8.703125 59.296875 8.703125 59.09375 8.703125 57 
C 11.796875 57 17 57.59375 21 59.984375 
L 21 7.203125 
C 21 3.6875 20.796875 2.5 12.203125 2.5 
L 9.203125 2.5 
L 9.203125 0 
C 14 0 19 0 23.796875 0 
C 28.59375 0 33.59375 0 38.40625 0 
L 38.40625 2.5 
L 35.40625 2.5 
C 26.796875 2.5 26.59375 3.59375 26.59375 7.15625 
z
" id="CMR17-49"/>
       </defs>
       <use transform="scale(0.996264)" xlink:href="#CMR17-49"/>
       <use transform="translate(45.690477 0)scale(0.996264)" xlink:href="#CMR17-48"/>
      </g>
     </g>
    </g>
    <g id="xtick_3">
     <g id="line2d_3">
      <g>
       <use style="stroke:#000000;stroke-width:0.8;" x="258.187788" xlink:href="#ma236c89e73" y="261.684426"/>
      </g>
     </g>
     <g id="text_3">
      <!-- $\mathdefault{20}$ -->
      <g transform="translate(250.383801 279.754014)scale(0.16 -0.16)">
       <defs>
        <path d="M 41.703125 15.453125 
L 39.90625 15.453125 
C 38.90625 8.375 38.09375 7.171875 37.703125 6.5625 
C 37.203125 5.765625 30 5.765625 28.59375 5.765625 
L 9.40625 5.765625 
C 13 9.671875 20 16.75 28.5 24.953125 
C 34.59375 30.734375 41.703125 37.53125 41.703125 47.421875 
C 41.703125 59.21875 32.296875 66 21.796875 66 
C 10.796875 66 4.09375 56.3125 4.09375 47.34375 
C 4.09375 43.4375 7 42.9375 8.203125 42.9375 
C 9.203125 42.9375 12.203125 43.546875 12.203125 47.03125 
C 12.203125 50.109375 9.59375 51 8.203125 51 
C 7.59375 51 7 50.90625 6.59375 50.703125 
C 8.5 59.21875 14.296875 63.40625 20.40625 63.40625 
C 29.09375 63.40625 34.796875 56.515625 34.796875 47.421875 
C 34.796875 38.734375 29.703125 31.25 24 24.75 
L 4.09375 2.28125 
L 4.09375 0 
L 39.296875 0 
z
" id="CMR17-50"/>
       </defs>
       <use transform="scale(0.996264)" xlink:href="#CMR17-50"/>
       <use transform="translate(45.690477 0)scale(0.996264)" xlink:href="#CMR17-48"/>
      </g>
     </g>
    </g>
    <g id="xtick_4">
     <g id="line2d_4">
      <g>
       <use style="stroke:#000000;stroke-width:0.8;" x="329.459763" xlink:href="#ma236c89e73" y="261.684426"/>
      </g>
     </g>
     <g id="text_4">
      <!-- $\mathdefault{30}$ -->
      <g transform="translate(321.655776 279.754014)scale(0.16 -0.16)">
       <defs>
        <path d="M 22.09375 33.703125 
C 31 33.703125 34.90625 25.96875 34.90625 17.03125 
C 34.90625 5 28.5 0.390625 22.703125 0.390625 
C 17.40625 0.390625 8.796875 3.03125 6.09375 10.828125 
C 6.59375 10.625 7.09375 10.625 7.59375 10.625 
C 10 10.625 11.796875 12.21875 11.796875 14.8125 
C 11.796875 17.703125 9.59375 19 7.59375 19 
C 5.90625 19 3.296875 18.203125 3.296875 14.46875 
C 3.296875 5.234375 12.296875 -2 22.90625 -2 
C 34 -2 42.5 6.71875 42.5 16.953125 
C 42.5 26.671875 34.5 33.703125 25 34.796875 
C 32.59375 36.375 39.90625 43.0625 39.90625 52.015625 
C 39.90625 59.6875 32 65.296875 23 65.296875 
C 13.90625 65.296875 5.90625 59.828125 5.90625 52.015625 
C 5.90625 48.59375 8.5 48 9.796875 48 
C 11.90625 48 13.703125 49.296875 13.703125 51.890625 
C 13.703125 54.46875 11.90625 55.765625 9.796875 55.765625 
C 9.40625 55.765625 8.90625 55.765625 8.5 55.578125 
C 11.40625 61.859375 19.296875 63 22.796875 63 
C 26.296875 63 32.90625 61.328125 32.90625 51.875 
C 32.90625 49.109375 32.5 44.1875 29.09375 39.84375 
C 26.09375 36 22.703125 36 19.40625 35.6875 
C 18.90625 35.6875 16.59375 35.453125 16.203125 35.453125 
C 15.5 35.359375 15.09375 35.265625 15.09375 34.5 
C 15.09375 33.796875 15.203125 33.703125 17.203125 33.703125 
z
" id="CMR17-51"/>
       </defs>
       <use transform="scale(0.996264)" xlink:href="#CMR17-51"/>
       <use transform="translate(45.690477 0)scale(0.996264)" xlink:href="#CMR17-48"/>
      </g>
     </g>
    </g>
   </g>
   <g id="matplotlib.axis_2">
    <g id="ytick_1">
     <g id="line2d_5">
      <defs>
       <path d="M 0 0 
L -3.5 0 
" id="m2b4a1eea09" style="stroke:#000000;stroke-width:0.8;"/>
      </defs>
      <g>
       <use style="stroke:#000000;stroke-width:0.8;" x="104.596681" xlink:href="#m2b4a1eea09" y="253.242309"/>
      </g>
     </g>
     <g id="text_5">
      <!-- $\mathdefault{0}$ -->
      <g transform="translate(89.792694 258.777103)scale(0.16 -0.16)">
       <use transform="scale(0.996264)" xlink:href="#CMR17-48"/>
      </g>
     </g>
    </g>
    <g id="ytick_2">
     <g id="line2d_6">
      <g>
       <use style="stroke:#000000;stroke-width:0.8;" x="104.596681" xlink:href="#m2b4a1eea09" y="209.796969"/>
      </g>
     </g>
     <g id="text_6">
      <!-- $\mathdefault{20}$ -->
      <g transform="translate(81.988707 215.331763)scale(0.16 -0.16)">
       <use transform="scale(0.996264)" xlink:href="#CMR17-50"/>
       <use transform="translate(45.690477 0)scale(0.996264)" xlink:href="#CMR17-48"/>
      </g>
     </g>
    </g>
    <g id="ytick_3">
     <g id="line2d_7">
      <g>
       <use style="stroke:#000000;stroke-width:0.8;" x="104.596681" xlink:href="#m2b4a1eea09" y="166.35163"/>
      </g>
     </g>
     <g id="text_7">
      <!-- $\mathdefault{40}$ -->
      <g transform="translate(81.988707 171.886424)scale(0.16 -0.16)">
       <defs>
        <path d="M 33.59375 64.40625 
C 33.59375 66.5 33.5 66.5 31.703125 66.5 
L 2 19.59375 
L 2 17 
L 27.796875 17 
L 27.796875 7.140625 
C 27.796875 3.5 27.59375 2.5 20.59375 2.5 
L 18.703125 2.5 
L 18.703125 0 
C 21.90625 0 27.296875 0 30.703125 0 
C 34.09375 0 39.5 0 42.703125 0 
L 42.703125 2.5 
L 40.796875 2.5 
C 33.796875 2.5 33.59375 3.5 33.59375 7.140625 
L 33.59375 17 
L 43.796875 17 
L 43.796875 19.59375 
L 33.59375 19.59375 
z
M 28.09375 57.859375 
L 28.09375 19.59375 
L 4 19.59375 
z
" id="CMR17-52"/>
       </defs>
       <use transform="scale(0.996264)" xlink:href="#CMR17-52"/>
       <use transform="translate(45.690477 0)scale(0.996264)" xlink:href="#CMR17-48"/>
      </g>
     </g>
    </g>
    <g id="ytick_4">
     <g id="line2d_8">
      <g>
       <use style="stroke:#000000;stroke-width:0.8;" x="104.596681" xlink:href="#m2b4a1eea09" y="122.90629"/>
      </g>
     </g>
     <g id="text_8">
      <!-- $\mathdefault{60}$ -->
      <g transform="translate(81.988707 128.441084)scale(0.16 -0.16)">
       <defs>
        <path d="M 10.59375 34 
C 10.59375 57.65625 21.796875 63 28.296875 63 
C 30.40625 63 35.5 62.640625 37.5 59 
C 35.90625 59 32.90625 59 32.90625 55.515625 
C 32.90625 52.828125 35.09375 51.921875 36.5 51.921875 
C 37.40625 51.921875 40.09375 52.3125 40.09375 55.625 
C 40.09375 61.78125 35.09375 65.296875 28.203125 65.296875 
C 16.296875 65.296875 3.796875 52.96875 3.796875 31 
C 3.796875 3.953125 15.09375 -2 23.09375 -2 
C 32.796875 -2 42 6.671875 42 20.046875 
C 42 32.515625 33.90625 41.59375 23.703125 41.59375 
C 17.59375 41.59375 13.09375 37.609375 10.59375 30.625 
z
M 23.09375 0.390625 
C 10.796875 0.390625 10.796875 18.75 10.796875 22.4375 
C 10.796875 29.625 14.203125 40 23.5 40 
C 25.203125 40 30.09375 40 33.40625 33.125 
C 35.203125 29.21875 35.203125 25.140625 35.203125 20.140625 
C 35.203125 14.75 35.203125 10.78125 33.09375 6.78125 
C 30.90625 2.671875 27.703125 0.390625 23.09375 0.390625 
z
" id="CMR17-54"/>
       </defs>
       <use transform="scale(0.996264)" xlink:href="#CMR17-54"/>
       <use transform="translate(45.690477 0)scale(0.996264)" xlink:href="#CMR17-48"/>
      </g>
     </g>
    </g>
    <g id="ytick_5">
     <g id="line2d_9">
      <g>
       <use style="stroke:#000000;stroke-width:0.8;" x="104.596681" xlink:href="#m2b4a1eea09" y="79.460951"/>
      </g>
     </g>
     <g id="text_9">
      <!-- $\mathdefault{80}$ -->
      <g transform="translate(81.988707 84.995745)scale(0.16 -0.16)">
       <defs>
        <path d="M 27.203125 35.375 
C 33.5 38.546875 39.90625 43.328125 39.90625 50.984375 
C 39.90625 60.015625 31.09375 65.296875 23 65.296875 
C 13.90625 65.296875 5.90625 58.734375 5.90625 49.6875 
C 5.90625 47.203125 6.5 42.921875 10.40625 39.140625 
C 11.40625 38.15625 15.59375 35.171875 18.296875 33.28125 
C 13.796875 30.984375 3.296875 25.53125 3.296875 14.59375 
C 3.296875 4.359375 13.09375 -2 22.796875 -2 
C 33.5 -2 42.5 5.65625 42.5 15.78125 
C 42.5 24.84375 36.40625 29.015625 32.40625 31.703125 
z
M 14.09375 44.09375 
C 13.296875 44.59375 9.296875 47.671875 9.296875 52.359375 
C 9.296875 58.421875 15.59375 63 22.796875 63 
C 30.703125 63 36.5 57.4375 36.5 50.96875 
C 36.5 41.703125 26.09375 36.421875 25.59375 36.421875 
C 25.5 36.421875 25.40625 36.421875 24.59375 37.03125 
z
M 32.5 23.734375 
C 34 22.640625 38.796875 19.375 38.796875 13.296875 
C 38.796875 5.953125 31.40625 0.390625 23 0.390625 
C 13.90625 0.390625 7 6.84375 7 14.6875 
C 7 22.546875 13.09375 29.09375 20 32.1875 
z
" id="CMR17-56"/>
       </defs>
       <use transform="scale(0.996264)" xlink:href="#CMR17-56"/>
       <use transform="translate(45.690477 0)scale(0.996264)" xlink:href="#CMR17-48"/>
      </g>
     </g>
    </g>
    <g id="text_10">
     <!-- Real -->
     <g transform="translate(73.33795 184.258418)rotate(-90)scale(0.24 -0.24)">
      <defs>
       <path d="M 39.203125 33.53125 
C 48.703125 35.4375 56.703125 41.8125 56.703125 49.78125 
C 56.703125 59.140625 46.09375 67.59375 32.09375 67.59375 
L 5.203125 67.59375 
L 5.203125 65 
C 12.09375 65 13.203125 65 13.203125 60.515625 
L 13.203125 6.484375 
C 13.203125 2 12.09375 2 5.203125 2 
L 5.203125 -0.40625 
C 8.09375 -0.40625 13.296875 -0.40625 16.40625 -0.40625 
C 19.5 -0.40625 24.703125 -0.40625 27.59375 -0.40625 
L 27.59375 2 
C 20.703125 2 19.59375 2 19.59375 6.515625 
L 19.59375 33 
L 31.296875 33 
C 37 33 40.203125 30.6875 41.59375 29.390625 
C 45.59375 25.5 45.59375 22.796875 45.59375 16 
C 45.59375 9.296875 45.59375 5.890625 48.59375 2.5 
C 52.40625 -1.59375 57.5 -2 59.703125 -2 
C 67.09375 -2 68.203125 6.1875 68.203125 7.859375 
C 68.203125 8.4375 68.203125 9.140625 67.296875 9.140625 
C 66.5 9.140625 66.40625 8.546875 66.40625 8.15625 
C 65.90625 1.75 63 -0.40625 59.90625 -0.40625 
C 54.40625 -0.40625 53.796875 5.859375 53.203125 11.9375 
C 52.90625 14.03125 52.703125 15.515625 52.5 17.703125 
C 51.90625 22.6875 51.09375 29.953125 39.203125 33.53125 
z
M 31 34.59375 
L 19.59375 34.59375 
L 19.59375 61.140625 
C 19.59375 64.515625 19.796875 65 23.796875 65 
L 31.09375 65 
C 39.40625 65 49.09375 62.140625 49.09375 49.84375 
C 49.09375 37.0625 38.5 34.59375 31 34.59375 
z
" id="CMR17-82"/>
       <path d="M 38.09375 23 
C 38.5 23.40625 38.5 23.609375 38.5 24.625 
C 38.5 34.96875 33.09375 44 21.703125 44 
C 11.09375 44 2.703125 33.890625 2.703125 21.609375 
C 2.703125 8.609375 12.203125 -1 22.796875 -1 
C 34 -1 38.40625 9.484375 38.40625 11.5625 
C 38.40625 12.25 37.796875 12.25 37.59375 12.25 
C 36.90625 12.25 36.796875 12.046875 36.40625 10.875 
C 34.203125 4.140625 28.703125 0.796875 23.5 0.796875 
C 19.203125 0.796875 14.90625 3.171875 12.203125 7.5 
C 9.09375 12.546875 9.09375 18.375 9.09375 23 
z
M 9.203125 24.5 
C 9.90625 39.140625 17.59375 42.40625 21.59375 42.40625 
C 28.40625 42.40625 33 35.890625 33.09375 24.5 
z
" id="CMR17-101"/>
       <path d="M 36 25.828125 
C 36 32.375 36 35.84375 31.796875 39.734375 
C 28.09375 43 23.796875 44 20.40625 44 
C 12.5 44 6.796875 37.609375 6.796875 30.796875 
C 6.796875 27 9.796875 27 10.40625 27 
C 11.703125 27 14 27.78125 14 30.53125 
C 14 33 12.09375 34.078125 10.40625 34.078125 
C 10 34.078125 9.5 33.96875 9.203125 33.875 
C 11.296875 40.5 16.703125 42.40625 20.203125 42.40625 
C 25.203125 42.40625 30.703125 37.953125 30.703125 29.453125 
L 30.703125 25 
C 24.796875 25 17.703125 24.203125 12.09375 21.203125 
C 5.796875 17.703125 4 12.703125 4 8.90625 
C 4 1.203125 13 -1 18.296875 -1 
C 23.796875 -1 28.90625 2.171875 31.09375 7.984375 
C 31.296875 3.640625 34.09375 -0.28125 38.5 -0.28125 
C 40.59375 -0.28125 45.90625 1.09375 45.90625 8.859375 
L 45.90625 14.375 
L 44.09375 14.375 
L 44.09375 8.78125 
C 44.09375 2.78125 41.40625 2 40.09375 2 
C 36 2 36 7.15625 36 11.53125 
z
M 30.703125 13.59375 
C 30.703125 4.953125 24.5 0.59375 19 0.59375 
C 14 0.59375 10.09375 4.296875 10.09375 8.90625 
C 10.09375 11.890625 11.40625 17.1875 17.203125 20.390625 
C 22 23.09375 27.5 23.5 30.703125 23.5 
z
" id="CMR17-97"/>
       <path d="M 15.296875 68.6875 
L 3.40625 67.59375 
L 3.40625 65 
C 9.296875 65 10.203125 64.40625 10.203125 59.640625 
L 10.203125 6.65625 
C 10.203125 2.875 9.796875 2.390625 3.40625 2.390625 
L 3.40625 -0.203125 
C 5.796875 0 10.203125 0 12.703125 0 
C 15.296875 0 19.703125 0 22.09375 -0.203125 
L 22.09375 2.390625 
C 15.703125 2.390625 15.296875 2.78125 15.296875 6.65625 
z
" id="CMR17-108"/>
      </defs>
      <use transform="scale(0.996264)" xlink:href="#CMR17-82"/>
      <use transform="translate(67.791102 0)scale(0.996264)" xlink:href="#CMR17-101"/>
      <use transform="translate(108.276762 0)scale(0.996264)" xlink:href="#CMR17-97"/>
      <use transform="translate(153.96724 0)scale(0.996264)" xlink:href="#CMR17-108"/>
     </g>
    </g>
   </g>
   <g id="LineCollection_1">
    <path clip-path="url(#p16cacfe23f)" d="M 115.643837 73.559173 
L 115.643837 72.900917 
" style="fill:none;stroke:#ff0000;stroke-width:2;"/>
    <path clip-path="url(#p16cacfe23f)" d="M 122.771035 187.045222 
L 122.771035 186.655732 
" style="fill:none;stroke:#ff0000;stroke-width:2;"/>
    <path clip-path="url(#p16cacfe23f)" d="M 129.898232 214.437339 
L 129.898232 214.098852 
" style="fill:none;stroke:#ff0000;stroke-width:2;"/>
    <path clip-path="url(#p16cacfe23f)" d="M 137.02543 228.49302 
L 137.02543 228.192196 
" style="fill:none;stroke:#ff0000;stroke-width:2;"/>
    <path clip-path="url(#p16cacfe23f)" d="M 144.152627 236.77461 
L 144.152627 236.510265 
" style="fill:none;stroke:#ff0000;stroke-width:2;"/>
    <path clip-path="url(#p16cacfe23f)" d="M 151.279825 242.061536 
L 151.279825 241.806627 
" style="fill:none;stroke:#ff0000;stroke-width:2;"/>
    <path clip-path="url(#p16cacfe23f)" d="M 158.407022 245.461451 
L 158.407022 245.251168 
" style="fill:none;stroke:#ff0000;stroke-width:2;"/>
    <path clip-path="url(#p16cacfe23f)" d="M 165.53422 247.746814 
L 165.53422 247.590284 
" style="fill:none;stroke:#ff0000;stroke-width:2;"/>
    <path clip-path="url(#p16cacfe23f)" d="M 172.661417 249.308982 
L 172.661417 249.168225 
" style="fill:none;stroke:#ff0000;stroke-width:2;"/>
    <path clip-path="url(#p16cacfe23f)" d="M 179.788615 250.393836 
L 179.788615 250.285872 
" style="fill:none;stroke:#ff0000;stroke-width:2;"/>
    <path clip-path="url(#p16cacfe23f)" d="M 186.915812 251.180385 
L 186.915812 251.087554 
" style="fill:none;stroke:#ff0000;stroke-width:2;"/>
    <path clip-path="url(#p16cacfe23f)" d="M 194.04301 251.736325 
L 194.04301 251.663921 
" style="fill:none;stroke:#ff0000;stroke-width:2;"/>
    <path clip-path="url(#p16cacfe23f)" d="M 201.170208 252.118634 
L 201.170208 252.059003 
" style="fill:none;stroke:#ff0000;stroke-width:2;"/>
    <path clip-path="url(#p16cacfe23f)" d="M 208.297405 252.384513 
L 208.297405 252.338092 
" style="fill:none;stroke:#ff0000;stroke-width:2;"/>
    <path clip-path="url(#p16cacfe23f)" d="M 215.424603 252.568293 
L 215.424603 252.52365 
" style="fill:none;stroke:#ff0000;stroke-width:2;"/>
    <path clip-path="url(#p16cacfe23f)" d="M 222.5518 252.66464 
L 222.5518 252.62766 
" style="fill:none;stroke:#ff0000;stroke-width:2;"/>
    <path clip-path="url(#p16cacfe23f)" d="M 229.678998 252.694735 
L 229.678998 252.660884 
" style="fill:none;stroke:#ff0000;stroke-width:2;"/>
    <path clip-path="url(#p16cacfe23f)" d="M 236.806195 252.665686 
L 236.806195 252.628811 
" style="fill:none;stroke:#ff0000;stroke-width:2;"/>
    <path clip-path="url(#p16cacfe23f)" d="M 243.933393 252.560154 
L 243.933393 252.525427 
" style="fill:none;stroke:#ff0000;stroke-width:2;"/>
    <path clip-path="url(#p16cacfe23f)" d="M 251.06059 252.372025 
L 251.06059 252.329357 
" style="fill:none;stroke:#ff0000;stroke-width:2;"/>
    <path clip-path="url(#p16cacfe23f)" d="M 258.187788 252.082132 
L 258.187788 252.034537 
" style="fill:none;stroke:#ff0000;stroke-width:2;"/>
    <path clip-path="url(#p16cacfe23f)" d="M 265.314985 251.664767 
L 265.314985 251.601728 
" style="fill:none;stroke:#ff0000;stroke-width:2;"/>
    <path clip-path="url(#p16cacfe23f)" d="M 272.442183 251.064072 
L 272.442183 250.977967 
" style="fill:none;stroke:#ff0000;stroke-width:2;"/>
    <path clip-path="url(#p16cacfe23f)" d="M 279.569381 250.242186 
L 279.569381 250.134699 
" style="fill:none;stroke:#ff0000;stroke-width:2;"/>
    <path clip-path="url(#p16cacfe23f)" d="M 286.696578 249.072265 
L 286.696578 248.919939 
" style="fill:none;stroke:#ff0000;stroke-width:2;"/>
    <path clip-path="url(#p16cacfe23f)" d="M 293.823776 247.443356 
L 293.823776 247.266833 
" style="fill:none;stroke:#ff0000;stroke-width:2;"/>
    <path clip-path="url(#p16cacfe23f)" d="M 300.950973 245.071207 
L 300.950973 244.858065 
" style="fill:none;stroke:#ff0000;stroke-width:2;"/>
    <path clip-path="url(#p16cacfe23f)" d="M 308.078171 241.673459 
L 308.078171 241.388017 
" style="fill:none;stroke:#ff0000;stroke-width:2;"/>
    <path clip-path="url(#p16cacfe23f)" d="M 315.205368 236.414681 
L 315.205368 236.114647 
" style="fill:none;stroke:#ff0000;stroke-width:2;"/>
    <path clip-path="url(#p16cacfe23f)" d="M 322.332566 228.221581 
L 322.332566 227.902585 
" style="fill:none;stroke:#ff0000;stroke-width:2;"/>
    <path clip-path="url(#p16cacfe23f)" d="M 329.459763 214.313097 
L 329.459763 213.967406 
" style="fill:none;stroke:#ff0000;stroke-width:2;"/>
    <path clip-path="url(#p16cacfe23f)" d="M 336.586961 187.248621 
L 336.586961 186.82171 
" style="fill:none;stroke:#ff0000;stroke-width:2;"/>
   </g>
   <g id="line2d_10">
    <path clip-path="url(#p16cacfe23f)" d="M 115.643837 73.230045 
L 122.771035 186.850477 
L 129.898232 214.268096 
L 137.02543 228.342608 
L 144.152627 236.642438 
L 151.279825 241.934082 
L 158.407022 245.356309 
L 165.53422 247.668549 
L 172.661417 249.238603 
L 179.788615 250.339854 
L 186.915812 251.133969 
L 194.04301 251.700123 
L 201.170208 252.088819 
L 208.297405 252.361302 
L 215.424603 252.545972 
L 222.5518 252.64615 
L 229.678998 252.677809 
L 236.806195 252.647248 
L 243.933393 252.542791 
L 251.06059 252.350691 
L 258.187788 252.058335 
L 265.314985 251.633247 
L 272.442183 251.02102 
L 279.569381 250.188443 
L 286.696578 248.996102 
L 293.823776 247.355095 
L 300.950973 244.964636 
L 308.078171 241.530738 
L 315.205368 236.264664 
L 322.332566 228.062083 
L 329.459763 214.140251 
L 336.586961 187.035166 
" style="fill:none;stroke:#000000;stroke-linecap:square;stroke-width:2;"/>
   </g>
   <g id="patch_3">
    <path d="M 104.596681 261.684426 
L 104.596681 63.911226 
" style="fill:none;stroke:#000000;stroke-linecap:square;stroke-linejoin:miter;stroke-width:0.8;"/>
   </g>
   <g id="patch_4">
    <path d="M 347.634117 261.684426 
L 347.634117 63.911226 
" style="fill:none;stroke:#000000;stroke-linecap:square;stroke-linejoin:miter;stroke-width:0.8;"/>
   </g>
   <g id="patch_5">
    <path d="M 104.596681 261.684426 
L 347.634117 261.684426 
" style="fill:none;stroke:#000000;stroke-linecap:square;stroke-linejoin:miter;stroke-width:0.8;"/>
   </g>
   <g id="patch_6">
    <path d="M 104.596681 63.911226 
L 347.634117 63.911226 
" style="fill:none;stroke:#000000;stroke-linecap:square;stroke-linejoin:miter;stroke-width:0.8;"/>
   </g>
   <g id="text_11">
    <!-- $C(t)$ -->
    <g transform="translate(204.187246 57.911226)scale(0.24 -0.24)">
     <defs>
      <path d="M 74.703125 69.109375 
C 74.703125 70 74 70 73.796875 70 
C 73.59375 70 73.203125 70 72.40625 69 
L 65.5 60.65625 
C 62 66.625 56.5 70 49 70 
C 27.40625 70 5 48.25 5 24.921875 
C 5 8.328125 16.703125 -2 31.296875 -2 
C 39.296875 -2 46.296875 1.375 52.09375 6.25 
C 60.796875 13.484375 63.40625 23.140625 63.40625 23.921875 
C 63.40625 24.8125 62.59375 24.8125 62.296875 24.8125 
C 61.40625 24.8125 61.296875 24.21875 61.09375 23.8125 
C 56.5 8.34375 43 0.890625 33 0.890625 
C 22.40625 0.890625 13.203125 7.640625 13.203125 21.734375 
C 13.203125 24.921875 14.203125 42.1875 25.5 55.1875 
C 31 61.546875 40.40625 67.109375 49.90625 67.109375 
C 60.90625 67.109375 65.796875 58.078125 65.796875 47.9375 
C 65.796875 45.359375 65.5 43.1875 65.5 42.78125 
C 65.5 41.890625 66.5 41.890625 66.796875 41.890625 
C 67.90625 41.890625 68 41.984375 68.40625 43.765625 
z
" id="CMMI12-67"/>
      <path d="M 30.59375 -24.390625 
C 30.59375 -24.296875 30.59375 -24.09375 30.296875 -23.796875 
C 25.703125 -19.125 13.40625 -6.359375 13.40625 24.703125 
C 13.40625 55.765625 25.5 68.421875 30.40625 73.390625 
C 30.40625 73.5 30.59375 73.703125 30.59375 74 
C 30.59375 74.296875 30.296875 74.5 29.90625 74.5 
C 28.796875 74.5 20.296875 67.125 15.40625 56.15625 
C 10.40625 45.109375 9 34.359375 9 24.8125 
C 9 17.625 9.703125 5.484375 15.703125 -7.359375 
C 20.5 -17.734375 28.703125 -25 29.90625 -25 
C 30.40625 -25 30.59375 -24.796875 30.59375 -24.390625 
z
" id="CMR17-40"/>
      <path d="M 20.09375 40.09375 
L 29.296875 40.09375 
C 31.203125 40.09375 32.203125 40.09375 32.203125 41.890625 
C 32.203125 43 31.59375 43 29.59375 43 
L 20.796875 43 
L 24.5 57.6875 
C 24.90625 59.078125 24.90625 59.28125 24.90625 60 
C 24.90625 61.609375 23.59375 62.5 22.296875 62.5 
C 21.5 62.5 19.203125 62.203125 18.40625 58.984375 
L 14.5 43 
L 5.09375 43 
C 3.09375 43 2.203125 43 2.203125 41.09375 
C 2.203125 40.09375 2.90625 40.09375 4.796875 40.09375 
L 13.703125 40.09375 
L 7.09375 13.765625 
C 6.296875 10.28125 6 9.28125 6 7.984375 
C 6 3.296875 9.296875 -1 14.90625 -1 
C 25 -1 30.40625 13.5625 30.40625 14.25 
C 30.40625 14.859375 30 15.15625 29.40625 15.15625 
C 29.203125 15.15625 28.796875 15.15625 28.59375 14.75 
C 28.5 14.65625 28.40625 14.546875 27.703125 12.953125 
C 25.59375 7.984375 21 1 15.203125 1 
C 12.203125 1 12 3.5 12 5.6875 
C 12 5.78125 12 7.6875 12.296875 8.875 
z
" id="CMMI12-116"/>
      <path d="M 26.296875 24.703125 
C 26.296875 31.875 25.59375 44.015625 19.59375 56.859375 
C 14.796875 67.234375 6.59375 74.5 5.40625 74.5 
C 5.09375 74.5 4.703125 74.390625 4.703125 73.890625 
C 4.703125 73.703125 4.796875 73.59375 4.90625 73.390625 
C 9.703125 68.40625 21.90625 55.75 21.90625 24.75 
C 21.90625 -6.359375 9.796875 -19.015625 4.90625 -24.015625 
C 4.796875 -24.203125 4.703125 -24.3125 4.703125 -24.5 
C 4.703125 -25 5.09375 -25 5.40625 -25 
C 6.5 -25 15 -17.625 19.90625 -6.65625 
C 24.90625 4.390625 26.296875 15.140625 26.296875 24.703125 
z
" id="CMR17-41"/>
     </defs>
     <use transform="scale(0.996264)" xlink:href="#CMMI12-67"/>
     <use transform="translate(76.946847 0)scale(0.996264)" xlink:href="#CMR17-40"/>
     <use transform="translate(112.227614 0)scale(0.996264)" xlink:href="#CMMI12-116"/>
     <use transform="translate(147.453945 0)scale(0.996264)" xlink:href="#CMR17-41"/>
    </g>
   </g>
  </g>
  <g id="axes_2">
   <g id="patch_7">
    <path d="M 414.779622 261.684426 
L 657.817059 261.684426 
L 657.817059 63.911226 
L 414.779622 63.911226 
z
" style="fill:#ffffff;"/>
   </g>
   <g id="matplotlib.axis_3">
    <g id="xtick_5">
     <g id="line2d_11">
      <g>
       <use style="stroke:#000000;stroke-width:0.8;" x="425.826779" xlink:href="#ma236c89e73" y="261.684426"/>
      </g>
     </g>
     <g id="text_12">
      <!-- $\mathdefault{0}$ -->
      <g transform="translate(421.924785 279.754014)scale(0.16 -0.16)">
       <use transform="scale(0.996264)" xlink:href="#CMR17-48"/>
      </g>
     </g>
    </g>
    <g id="xtick_6">
     <g id="line2d_12">
      <g>
       <use style="stroke:#000000;stroke-width:0.8;" x="494.871505" xlink:href="#ma236c89e73" y="261.684426"/>
      </g>
     </g>
     <g id="text_13">
      <!-- $\mathdefault{5}$ -->
      <g transform="translate(490.969511 279.754014)scale(0.16 -0.16)">
       <defs>
        <path d="M 11.40625 57.6875 
C 12.40625 57.28125 16.5 56 20.703125 56 
C 30 56 35.09375 61.109375 38 64.0625 
C 38 64.953125 38 65.5 37.40625 65.5 
C 37.296875 65.5 37.09375 65.5 36.296875 65.046875 
C 32.796875 63.40625 28.703125 62.078125 23.703125 62.078125 
C 20.703125 62.078125 16.203125 62.484375 11.296875 64.671875 
C 10.203125 65.171875 10 65.171875 9.90625 65.171875 
C 9.40625 65.171875 9.296875 65.0625 9.296875 63.078125 
L 9.296875 34.421875 
C 9.296875 32.640625 9.296875 32.140625 10.296875 32.140625 
C 10.796875 32.140625 11 32.34375 11.5 33.03125 
C 14.703125 37.515625 19.09375 39.40625 24.09375 39.40625 
C 27.59375 39.40625 35.09375 37.21875 35.09375 20.140625 
C 35.09375 16.953125 35.09375 11.171875 32.09375 6.578125 
C 29.59375 2.484375 25.703125 0.390625 21.40625 0.390625 
C 14.796875 0.390625 8.09375 5 6.296875 12.71875 
C 6.703125 12.609375 7.5 12.421875 7.90625 12.421875 
C 9.203125 12.421875 11.703125 13.125 11.703125 16.21875 
C 11.703125 18.90625 9.796875 20 7.90625 20 
C 5.59375 20 4.09375 18.59375 4.09375 15.796875 
C 4.09375 7.09375 11 -2 21.59375 -2 
C 31.90625 -2 41.703125 6.875 41.703125 19.75 
C 41.703125 31.71875 33.90625 41 24.203125 41 
C 19.09375 41 14.796875 39.109375 11.40625 35.53125 
z
" id="CMR17-53"/>
       </defs>
       <use transform="scale(0.996264)" xlink:href="#CMR17-53"/>
      </g>
     </g>
    </g>
    <g id="xtick_7">
     <g id="line2d_13">
      <g>
       <use style="stroke:#000000;stroke-width:0.8;" x="563.916231" xlink:href="#ma236c89e73" y="261.684426"/>
      </g>
     </g>
     <g id="text_14">
      <!-- $\mathdefault{10}$ -->
      <g transform="translate(556.112244 279.754014)scale(0.16 -0.16)">
       <use transform="scale(0.996264)" xlink:href="#CMR17-49"/>
       <use transform="translate(45.690477 0)scale(0.996264)" xlink:href="#CMR17-48"/>
      </g>
     </g>
    </g>
    <g id="xtick_8">
     <g id="line2d_14">
      <g>
       <use style="stroke:#000000;stroke-width:0.8;" x="632.960957" xlink:href="#ma236c89e73" y="261.684426"/>
      </g>
     </g>
     <g id="text_15">
      <!-- $\mathdefault{15}$ -->
      <g transform="translate(625.15697 279.754014)scale(0.16 -0.16)">
       <use transform="scale(0.996264)" xlink:href="#CMR17-49"/>
       <use transform="translate(45.690477 0)scale(0.996264)" xlink:href="#CMR17-53"/>
      </g>
     </g>
    </g>
   </g>
   <g id="matplotlib.axis_4">
    <g id="ytick_6">
     <g id="line2d_15">
      <g>
       <use style="stroke:#000000;stroke-width:0.8;" x="414.779622" xlink:href="#m2b4a1eea09" y="253.242309"/>
      </g>
     </g>
     <g id="text_16">
      <!-- $\mathdefault{0}$ -->
      <g transform="translate(399.975635 258.777103)scale(0.16 -0.16)">
       <use transform="scale(0.996264)" xlink:href="#CMR17-48"/>
      </g>
     </g>
    </g>
    <g id="ytick_7">
     <g id="line2d_16">
      <g>
       <use style="stroke:#000000;stroke-width:0.8;" x="414.779622" xlink:href="#m2b4a1eea09" y="209.796969"/>
      </g>
     </g>
     <g id="text_17">
      <!-- $\mathdefault{20}$ -->
      <g transform="translate(392.171648 215.331763)scale(0.16 -0.16)">
       <use transform="scale(0.996264)" xlink:href="#CMR17-50"/>
       <use transform="translate(45.690477 0)scale(0.996264)" xlink:href="#CMR17-48"/>
      </g>
     </g>
    </g>
    <g id="ytick_8">
     <g id="line2d_17">
      <g>
       <use style="stroke:#000000;stroke-width:0.8;" x="414.779622" xlink:href="#m2b4a1eea09" y="166.35163"/>
      </g>
     </g>
     <g id="text_18">
      <!-- $\mathdefault{40}$ -->
      <g transform="translate(392.171648 171.886424)scale(0.16 -0.16)">
       <use transform="scale(0.996264)" xlink:href="#CMR17-52"/>
       <use transform="translate(45.690477 0)scale(0.996264)" xlink:href="#CMR17-48"/>
      </g>
     </g>
    </g>
    <g id="ytick_9">
     <g id="line2d_18">
      <g>
       <use style="stroke:#000000;stroke-width:0.8;" x="414.779622" xlink:href="#m2b4a1eea09" y="122.90629"/>
      </g>
     </g>
     <g id="text_19">
      <!-- $\mathdefault{60}$ -->
      <g transform="translate(392.171648 128.441084)scale(0.16 -0.16)">
       <use transform="scale(0.996264)" xlink:href="#CMR17-54"/>
       <use transform="translate(45.690477 0)scale(0.996264)" xlink:href="#CMR17-48"/>
      </g>
     </g>
    </g>
    <g id="ytick_10">
     <g id="line2d_19">
      <g>
       <use style="stroke:#000000;stroke-width:0.8;" x="414.779622" xlink:href="#m2b4a1eea09" y="79.460951"/>
      </g>
     </g>
     <g id="text_20">
      <!-- $\mathdefault{80}$ -->
      <g transform="translate(392.171648 84.995745)scale(0.16 -0.16)">
       <use transform="scale(0.996264)" xlink:href="#CMR17-56"/>
       <use transform="translate(45.690477 0)scale(0.996264)" xlink:href="#CMR17-48"/>
      </g>
     </g>
    </g>
   </g>
   <g id="LineCollection_2">
    <path clip-path="url(#pd6dbbd088d)" d="M 425.826779 73.559173 
L 425.826779 72.900917 
" style="fill:none;stroke:#ff0000;stroke-width:2;"/>
    <path clip-path="url(#pd6dbbd088d)" d="M 439.635724 187.087024 
L 439.635724 186.798619 
" style="fill:none;stroke:#ff0000;stroke-width:2;"/>
    <path clip-path="url(#pd6dbbd088d)" d="M 453.444669 214.330336 
L 453.444669 214.078011 
" style="fill:none;stroke:#ff0000;stroke-width:2;"/>
    <path clip-path="url(#pd6dbbd088d)" d="M 467.253614 228.312198 
L 467.253614 228.092493 
" style="fill:none;stroke:#ff0000;stroke-width:2;"/>
    <path clip-path="url(#pd6dbbd088d)" d="M 481.06256 236.553354 
L 481.06256 236.353747 
" style="fill:none;stroke:#ff0000;stroke-width:2;"/>
    <path clip-path="url(#pd6dbbd088d)" d="M 494.871505 241.823547 
L 494.871505 241.641273 
" style="fill:none;stroke:#ff0000;stroke-width:2;"/>
    <path clip-path="url(#pd6dbbd088d)" d="M 508.68045 245.2378 
L 508.68045 245.083145 
" style="fill:none;stroke:#ff0000;stroke-width:2;"/>
    <path clip-path="url(#pd6dbbd088d)" d="M 522.489395 247.57008 
L 522.489395 247.453564 
" style="fill:none;stroke:#ff0000;stroke-width:2;"/>
    <path clip-path="url(#pd6dbbd088d)" d="M 536.29834 249.170304 
L 536.29834 249.064401 
" style="fill:none;stroke:#ff0000;stroke-width:2;"/>
    <path clip-path="url(#pd6dbbd088d)" d="M 550.107286 250.302894 
L 550.107286 250.225402 
" style="fill:none;stroke:#ff0000;stroke-width:2;"/>
    <path clip-path="url(#pd6dbbd088d)" d="M 563.916231 251.107982 
L 563.916231 251.047007 
" style="fill:none;stroke:#ff0000;stroke-width:2;"/>
    <path clip-path="url(#pd6dbbd088d)" d="M 577.725176 251.690593 
L 577.725176 251.642778 
" style="fill:none;stroke:#ff0000;stroke-width:2;"/>
    <path clip-path="url(#pd6dbbd088d)" d="M 591.534121 252.09131 
L 591.534121 252.055843 
" style="fill:none;stroke:#ff0000;stroke-width:2;"/>
    <path clip-path="url(#pd6dbbd088d)" d="M 605.343067 252.371946 
L 605.343067 252.340048 
" style="fill:none;stroke:#ff0000;stroke-width:2;"/>
    <path clip-path="url(#pd6dbbd088d)" d="M 619.152012 252.558699 
L 619.152012 252.530063 
" style="fill:none;stroke:#ff0000;stroke-width:2;"/>
    <path clip-path="url(#pd6dbbd088d)" d="M 632.960957 252.659025 
L 632.960957 252.634373 
" style="fill:none;stroke:#ff0000;stroke-width:2;"/>
    <path clip-path="url(#pd6dbbd088d)" d="M 646.769902 252.694735 
L 646.769902 252.660884 
" style="fill:none;stroke:#ff0000;stroke-width:2;"/>
   </g>
   <g id="line2d_20">
    <path clip-path="url(#pd6dbbd088d)" d="M 425.826779 73.230045 
L 439.635724 186.942821 
L 453.444669 214.204173 
L 467.253614 228.202346 
L 481.06256 236.453551 
L 494.871505 241.73241 
L 508.68045 245.160473 
L 522.489395 247.511822 
L 536.29834 249.117353 
L 550.107286 250.264148 
L 563.916231 251.077494 
L 577.725176 251.666685 
L 591.534121 252.073577 
L 605.343067 252.355997 
L 619.152012 252.544381 
L 632.960957 252.646699 
L 646.769902 252.677809 
" style="fill:none;stroke:#000000;stroke-linecap:square;stroke-width:2;"/>
   </g>
   <g id="patch_8">
    <path d="M 414.779622 261.684426 
L 414.779622 63.911226 
" style="fill:none;stroke:#000000;stroke-linecap:square;stroke-linejoin:miter;stroke-width:0.8;"/>
   </g>
   <g id="patch_9">
    <path d="M 657.817059 261.684426 
L 657.817059 63.911226 
" style="fill:none;stroke:#000000;stroke-linecap:square;stroke-linejoin:miter;stroke-width:0.8;"/>
   </g>
   <g id="patch_10">
    <path d="M 414.779622 261.684426 
L 657.817059 261.684426 
" style="fill:none;stroke:#000000;stroke-linecap:square;stroke-linejoin:miter;stroke-width:0.8;"/>
   </g>
   <g id="patch_11">
    <path d="M 414.779622 63.911226 
L 657.817059 63.911226 
" style="fill:none;stroke:#000000;stroke-linecap:square;stroke-linejoin:miter;stroke-width:0.8;"/>
   </g>
   <g id="text_21">
    <!-- Folded $C(t)$ -->
    <g transform="translate(478.95933 57.911226)scale(0.24 -0.24)">
     <defs>
      <path d="M 54.40625 67.578125 
L 5.09375 67.578125 
L 5.09375 65 
C 12 65 13.09375 65 13.09375 60.53125 
L 13.09375 6.96875 
C 13.09375 2.5 12 2.5 5.09375 2.5 
L 5.09375 0 
C 8 0 13.59375 0 16.703125 0 
C 20.796875 0 25.59375 0 29.703125 0 
L 29.703125 2.5 
L 27.5 2.5 
C 19.90625 2.5 19.703125 3.484375 19.703125 7.0625 
L 19.703125 32.421875 
L 28.703125 32.421875 
C 38 32.421875 38.90625 29.140625 38.90625 20.8125 
L 40.703125 20.8125 
L 40.703125 46.671875 
L 38.90625 46.671875 
C 38.90625 38.28125 38 35 28.703125 35 
L 19.703125 35 
L 19.703125 61.109375 
C 19.703125 64.5 19.90625 65 23.90625 65 
L 36.796875 65 
C 51.90625 65 53.59375 58.828125 55 45.5625 
L 56.796875 45.5625 
z
" id="CMR17-70"/>
      <path d="M 43.09375 21.1875 
C 43.09375 34 33.796875 44 22.90625 44 
C 12 44 2.703125 34 2.703125 21.1875 
C 2.703125 8.609375 12 -1 22.90625 -1 
C 33.796875 -1 43.09375 8.609375 43.09375 21.1875 
z
M 22.90625 0.796875 
C 18.203125 0.796875 14.203125 3.59375 11.90625 7.5 
C 9.40625 11.984375 9.09375 17.59375 9.09375 22 
C 9.09375 26.203125 9.296875 31.40625 11.90625 35.90625 
C 13.90625 39.203125 17.796875 42.40625 22.90625 42.40625 
C 27.40625 42.40625 31.203125 39.90625 33.59375 36.40625 
C 36.703125 31.703125 36.703125 25.109375 36.703125 22 
C 36.703125 18.09375 36.5 12.109375 33.796875 7.296875 
C 31 2.703125 26.703125 0.796875 22.90625 0.796875 
z
" id="CMR17-111"/>
      <path d="M 29.203125 67.59375 
L 29.203125 65 
C 35.09375 65 36 64.40625 36 59.6875 
L 36 36.640625 
C 35.59375 37.140625 31.5 43.59375 23.40625 43.59375 
C 13.203125 43.59375 3.296875 34.5 3.296875 21.3125 
C 3.296875 8.203125 12.59375 -1 22.40625 -1 
C 30.90625 -1 35.296875 5.265625 35.796875 5.9375 
L 35.796875 -0.984375 
L 47.90625 -0.984375 
L 47.90625 2 
C 42 2 41.09375 2.59375 41.09375 7.390625 
L 41.09375 68.6875 
z
M 35.796875 11.796875 
C 35.796875 8.796875 34 6.09375 31.703125 4.09375 
C 28.296875 1.09375 24.90625 0.59375 23 0.59375 
C 20.09375 0.59375 9.703125 2.09375 9.703125 21.1875 
C 9.703125 40.8125 21.296875 42 23.90625 42 
C 28.5 42 32.203125 39.40625 34.5 35.796875 
C 35.796875 33.703125 35.796875 33.40625 35.796875 31.609375 
z
" id="CMR17-100"/>
     </defs>
     <use transform="scale(0.996264)" xlink:href="#CMR17-70"/>
     <use transform="translate(52.176591 0)scale(0.996264)" xlink:href="#CMR17-111"/>
     <use transform="translate(97.867068 0)scale(0.996264)" xlink:href="#CMR17-108"/>
     <use transform="translate(122.738127 0)scale(0.996264)" xlink:href="#CMR17-100"/>
     <use transform="translate(173.633497 0)scale(0.996264)" xlink:href="#CMR17-101"/>
     <use transform="translate(214.119157 0)scale(0.996264)" xlink:href="#CMR17-100"/>
     <use transform="translate(295.090493 0)scale(0.996264)" xlink:href="#CMMI12-67"/>
     <use transform="translate(372.03734 0)scale(0.996264)" xlink:href="#CMR17-40"/>
     <use transform="translate(407.318108 0)scale(0.996264)" xlink:href="#CMMI12-116"/>
     <use transform="translate(442.544438 0)scale(0.996264)" xlink:href="#CMR17-41"/>
    </g>
   </g>
  </g>
  <g id="axes_3">
   <g id="patch_12">
    <path d="M 724.962564 261.684426 
L 968 261.684426 
L 968 63.911226 
L 724.962564 63.911226 
z
" style="fill:#ffffff;"/>
   </g>
   <g id="matplotlib.axis_5">
    <g id="xtick_9">
     <g id="line2d_21">
      <g>
       <use style="stroke:#000000;stroke-width:0.8;" x="736.00972" xlink:href="#ma236c89e73" y="261.684426"/>
      </g>
     </g>
     <g id="text_22">
      <!-- $\mathdefault{0}$ -->
      <g transform="translate(732.107727 279.754014)scale(0.16 -0.16)">
       <use transform="scale(0.996264)" xlink:href="#CMR17-48"/>
      </g>
     </g>
    </g>
    <g id="xtick_10">
     <g id="line2d_22">
      <g>
       <use style="stroke:#000000;stroke-width:0.8;" x="805.054446" xlink:href="#ma236c89e73" y="261.684426"/>
      </g>
     </g>
     <g id="text_23">
      <!-- $\mathdefault{5}$ -->
      <g transform="translate(801.152453 279.754014)scale(0.16 -0.16)">
       <use transform="scale(0.996264)" xlink:href="#CMR17-53"/>
      </g>
     </g>
    </g>
    <g id="xtick_11">
     <g id="line2d_23">
      <g>
       <use style="stroke:#000000;stroke-width:0.8;" x="874.099172" xlink:href="#ma236c89e73" y="261.684426"/>
      </g>
     </g>
     <g id="text_24">
      <!-- $\mathdefault{10}$ -->
      <g transform="translate(866.295185 279.754014)scale(0.16 -0.16)">
       <use transform="scale(0.996264)" xlink:href="#CMR17-49"/>
       <use transform="translate(45.690477 0)scale(0.996264)" xlink:href="#CMR17-48"/>
      </g>
     </g>
    </g>
    <g id="xtick_12">
     <g id="line2d_24">
      <g>
       <use style="stroke:#000000;stroke-width:0.8;" x="943.143899" xlink:href="#ma236c89e73" y="261.684426"/>
      </g>
     </g>
     <g id="text_25">
      <!-- $\mathdefault{15}$ -->
      <g transform="translate(935.339912 279.754014)scale(0.16 -0.16)">
       <use transform="scale(0.996264)" xlink:href="#CMR17-49"/>
       <use transform="translate(45.690477 0)scale(0.996264)" xlink:href="#CMR17-53"/>
      </g>
     </g>
    </g>
   </g>
   <g id="matplotlib.axis_6">
    <g id="ytick_11">
     <g id="line2d_25">
      <g>
       <use style="stroke:#000000;stroke-width:0.8;" x="724.962564" xlink:href="#m2b4a1eea09" y="260.758404"/>
      </g>
     </g>
     <g id="text_26">
      <!-- $\mathdefault{−0.15}$ -->
      <g transform="translate(677.817059 266.293198)scale(0.16 -0.16)">
       <defs>
        <path d="M 65.90625 23 
C 67.59375 23 69.40625 23 69.40625 25 
C 69.40625 27 67.59375 27 65.90625 27 
L 11.796875 27 
C 10.09375 27 8.296875 27 8.296875 25 
C 8.296875 23 10.09375 23 11.796875 23 
z
" id="CMSY10-0"/>
        <path d="M 18.40625 4.796875 
C 18.40625 7.6875 16 9.671875 13.59375 9.671875 
C 10.703125 9.671875 8.703125 7.28125 8.703125 4.890625 
C 8.703125 2 11.09375 0 13.5 0 
C 16.40625 0 18.40625 2.390625 18.40625 4.796875 
z
" id="CMMI12-58"/>
       </defs>
       <use transform="scale(0.996264)" xlink:href="#CMSY10-0"/>
       <use transform="translate(77.487468 0)scale(0.996264)" xlink:href="#CMR17-48"/>
       <use transform="translate(123.177945 0)scale(0.996264)" xlink:href="#CMMI12-58"/>
       <use transform="translate(150.275122 0)scale(0.996264)" xlink:href="#CMR17-49"/>
       <use transform="translate(195.965599 0)scale(0.996264)" xlink:href="#CMR17-53"/>
      </g>
     </g>
    </g>
    <g id="ytick_12">
     <g id="line2d_26">
      <g>
       <use style="stroke:#000000;stroke-width:0.8;" x="724.962564" xlink:href="#m2b4a1eea09" y="224.512356"/>
      </g>
     </g>
     <g id="text_27">
      <!-- $\mathdefault{−0.10}$ -->
      <g transform="translate(677.817059 230.04715)scale(0.16 -0.16)">
       <use transform="scale(0.996264)" xlink:href="#CMSY10-0"/>
       <use transform="translate(77.487468 0)scale(0.996264)" xlink:href="#CMR17-48"/>
       <use transform="translate(123.177945 0)scale(0.996264)" xlink:href="#CMMI12-58"/>
       <use transform="translate(150.275122 0)scale(0.996264)" xlink:href="#CMR17-49"/>
       <use transform="translate(195.965599 0)scale(0.996264)" xlink:href="#CMR17-48"/>
      </g>
     </g>
    </g>
    <g id="ytick_13">
     <g id="line2d_27">
      <g>
       <use style="stroke:#000000;stroke-width:0.8;" x="724.962564" xlink:href="#m2b4a1eea09" y="188.266308"/>
      </g>
     </g>
     <g id="text_28">
      <!-- $\mathdefault{−0.05}$ -->
      <g transform="translate(677.817059 193.801102)scale(0.16 -0.16)">
       <use transform="scale(0.996264)" xlink:href="#CMSY10-0"/>
       <use transform="translate(77.487468 0)scale(0.996264)" xlink:href="#CMR17-48"/>
       <use transform="translate(123.177945 0)scale(0.996264)" xlink:href="#CMMI12-58"/>
       <use transform="translate(150.275122 0)scale(0.996264)" xlink:href="#CMR17-48"/>
       <use transform="translate(195.965599 0)scale(0.996264)" xlink:href="#CMR17-53"/>
      </g>
     </g>
    </g>
    <g id="ytick_14">
     <g id="line2d_28">
      <g>
       <use style="stroke:#000000;stroke-width:0.8;" x="724.962564" xlink:href="#m2b4a1eea09" y="152.02026"/>
      </g>
     </g>
     <g id="text_29">
      <!-- $\mathdefault{0.00}$ -->
      <g transform="translate(690.215055 157.555054)scale(0.16 -0.16)">
       <use transform="scale(0.996264)" xlink:href="#CMR17-48"/>
       <use transform="translate(45.690477 0)scale(0.996264)" xlink:href="#CMMI12-58"/>
       <use transform="translate(72.787654 0)scale(0.996264)" xlink:href="#CMR17-48"/>
       <use transform="translate(118.478131 0)scale(0.996264)" xlink:href="#CMR17-48"/>
      </g>
     </g>
    </g>
    <g id="ytick_15">
     <g id="line2d_29">
      <g>
       <use style="stroke:#000000;stroke-width:0.8;" x="724.962564" xlink:href="#m2b4a1eea09" y="115.774212"/>
      </g>
     </g>
     <g id="text_30">
      <!-- $\mathdefault{0.05}$ -->
      <g transform="translate(690.215055 121.309006)scale(0.16 -0.16)">
       <use transform="scale(0.996264)" xlink:href="#CMR17-48"/>
       <use transform="translate(45.690477 0)scale(0.996264)" xlink:href="#CMMI12-58"/>
       <use transform="translate(72.787654 0)scale(0.996264)" xlink:href="#CMR17-48"/>
       <use transform="translate(118.478131 0)scale(0.996264)" xlink:href="#CMR17-53"/>
      </g>
     </g>
    </g>
    <g id="ytick_16">
     <g id="line2d_30">
      <g>
       <use style="stroke:#000000;stroke-width:0.8;" x="724.962564" xlink:href="#m2b4a1eea09" y="79.528164"/>
      </g>
     </g>
     <g id="text_31">
      <!-- $\mathdefault{0.10}$ -->
      <g transform="translate(690.215055 85.062958)scale(0.16 -0.16)">
       <use transform="scale(0.996264)" xlink:href="#CMR17-48"/>
       <use transform="translate(45.690477 0)scale(0.996264)" xlink:href="#CMMI12-58"/>
       <use transform="translate(72.787654 0)scale(0.996264)" xlink:href="#CMR17-49"/>
       <use transform="translate(118.478131 0)scale(0.996264)" xlink:href="#CMR17-48"/>
      </g>
     </g>
    </g>
   </g>
   <g id="LineCollection_3">
    <path clip-path="url(#p534a758f81)" d="M 736.00972 152.02026 
L 736.00972 152.02026 
" style="fill:none;stroke:#ff0000;stroke-width:2;"/>
    <path clip-path="url(#p534a758f81)" d="M 749.818665 169.505886 
L 749.818665 72.900917 
" style="fill:none;stroke:#ff0000;stroke-width:2;"/>
    <path clip-path="url(#p534a758f81)" d="M 763.627611 211.89953 
L 763.627611 134.804794 
" style="fill:none;stroke:#ff0000;stroke-width:2;"/>
    <path clip-path="url(#p534a758f81)" d="M 777.436556 235.330145 
L 777.436556 162.326006 
" style="fill:none;stroke:#ff0000;stroke-width:2;"/>
    <path clip-path="url(#p534a758f81)" d="M 791.245501 248.470889 
L 791.245501 181.638993 
" style="fill:none;stroke:#ff0000;stroke-width:2;"/>
    <path clip-path="url(#p534a758f81)" d="M 805.054446 252.694735 
L 805.054446 185.948136 
" style="fill:none;stroke:#ff0000;stroke-width:2;"/>
    <path clip-path="url(#p534a758f81)" d="M 818.863391 241.500266 
L 818.863391 193.248019 
" style="fill:none;stroke:#ff0000;stroke-width:2;"/>
    <path clip-path="url(#p534a758f81)" d="M 832.672337 224.244693 
L 832.672337 184.400793 
" style="fill:none;stroke:#ff0000;stroke-width:2;"/>
    <path clip-path="url(#p534a758f81)" d="M 846.481282 209.411578 
L 846.481282 175.555595 
" style="fill:none;stroke:#ff0000;stroke-width:2;"/>
    <path clip-path="url(#p534a758f81)" d="M 860.290227 189.770925 
L 860.290227 164.798079 
" style="fill:none;stroke:#ff0000;stroke-width:2;"/>
    <path clip-path="url(#p534a758f81)" d="M 874.099172 181.805608 
L 874.099172 159.927915 
" style="fill:none;stroke:#ff0000;stroke-width:2;"/>
    <path clip-path="url(#p534a758f81)" d="M 887.908118 171.219214 
L 887.908118 155.1388 
" style="fill:none;stroke:#ff0000;stroke-width:2;"/>
    <path clip-path="url(#p534a758f81)" d="M 901.717063 163.890117 
L 901.717063 150.32336 
" style="fill:none;stroke:#ff0000;stroke-width:2;"/>
    <path clip-path="url(#p534a758f81)" d="M 915.526008 158.988233 
L 915.526008 148.593404 
" style="fill:none;stroke:#ff0000;stroke-width:2;"/>
    <path clip-path="url(#p534a758f81)" d="M 929.334953 157.20946 
L 929.334953 147.892536 
" style="fill:none;stroke:#ff0000;stroke-width:2;"/>
    <path clip-path="url(#p534a758f81)" d="M 943.143899 156.424687 
L 943.143899 147.249341 
" style="fill:none;stroke:#ff0000;stroke-width:2;"/>
    <path clip-path="url(#p534a758f81)" d="M 956.952844 152.02026 
L 956.952844 152.02026 
" style="fill:none;stroke:#ff0000;stroke-width:2;"/>
   </g>
   <g id="line2d_31">
    <path clip-path="url(#p534a758f81)" d="M 736.00972 152.02026 
L 749.818665 121.203402 
L 763.627611 173.352162 
L 777.436556 198.828076 
L 791.245501 215.054941 
L 805.054446 219.321435 
L 818.863391 217.374143 
L 832.672337 204.322743 
L 846.481282 192.483586 
L 860.290227 177.284502 
L 874.099172 170.866761 
L 887.908118 163.179007 
L 901.717063 157.106738 
L 915.526008 153.790819 
L 929.334953 152.550998 
L 943.143899 151.837014 
L 956.952844 152.02026 
" style="fill:none;stroke:#000000;stroke-linecap:square;stroke-width:2;"/>
   </g>
   <g id="patch_13">
    <path d="M 724.962564 261.684426 
L 724.962564 63.911226 
" style="fill:none;stroke:#000000;stroke-linecap:square;stroke-linejoin:miter;stroke-width:0.8;"/>
   </g>
   <g id="patch_14">
    <path d="M 968 261.684426 
L 968 63.911226 
" style="fill:none;stroke:#000000;stroke-linecap:square;stroke-linejoin:miter;stroke-width:0.8;"/>
   </g>
   <g id="patch_15">
    <path d="M 724.962564 261.684426 
L 968 261.684426 
" style="fill:none;stroke:#000000;stroke-linecap:square;stroke-linejoin:miter;stroke-width:0.8;"/>
   </g>
   <g id="patch_16">
    <path d="M 724.962564 63.911226 
L 968 63.911226 
" style="fill:none;stroke:#000000;stroke-linecap:square;stroke-linejoin:miter;stroke-width:0.8;"/>
   </g>
   <g id="text_32">
    <!-- $C(t)$ - Folded $C(t)$ -->
    <g transform="translate(756.386771 57.911226)scale(0.24 -0.24)">
     <defs>
      <path d="M 25.5 19 
L 25.5 23.375 
L 0.40625 23.375 
L 0.40625 19 
z
" id="CMR17-45"/>
     </defs>
     <use transform="scale(0.996264)" xlink:href="#CMMI12-67"/>
     <use transform="translate(76.946847 0)scale(0.996264)" xlink:href="#CMR17-40"/>
     <use transform="translate(112.227614 0)scale(0.996264)" xlink:href="#CMMI12-116"/>
     <use transform="translate(147.453945 0)scale(0.996264)" xlink:href="#CMR17-41"/>
     <use transform="translate(212.810679 0)scale(0.996264)" xlink:href="#CMR17-45"/>
     <use transform="translate(272.962612 0)scale(0.996264)" xlink:href="#CMR17-70"/>
     <use transform="translate(325.139203 0)scale(0.996264)" xlink:href="#CMR17-111"/>
     <use transform="translate(370.82968 0)scale(0.996264)" xlink:href="#CMR17-108"/>
     <use transform="translate(395.700738 0)scale(0.996264)" xlink:href="#CMR17-100"/>
     <use transform="translate(446.596108 0)scale(0.996264)" xlink:href="#CMR17-101"/>
     <use transform="translate(487.081769 0)scale(0.996264)" xlink:href="#CMR17-100"/>
     <use transform="translate(568.053105 0)scale(0.996264)" xlink:href="#CMMI12-67"/>
     <use transform="translate(644.999951 0)scale(0.996264)" xlink:href="#CMR17-40"/>
     <use transform="translate(680.280719 0)scale(0.996264)" xlink:href="#CMMI12-116"/>
     <use transform="translate(715.507049 0)scale(0.996264)" xlink:href="#CMR17-41"/>
    </g>
   </g>
  </g>
  <g id="axes_4">
   <g id="patch_17">
    <path d="M 104.596681 514.830936 
L 347.634117 514.830936 
L 347.634117 317.057736 
L 104.596681 317.057736 
z
" style="fill:#ffffff;"/>
   </g>
   <g id="matplotlib.axis_7">
    <g id="xtick_13">
     <g id="line2d_32">
      <g>
       <use style="stroke:#000000;stroke-width:0.8;" x="115.643837" xlink:href="#ma236c89e73" y="514.830936"/>
      </g>
     </g>
     <g id="text_33">
      <!-- $\mathdefault{0}$ -->
      <g transform="translate(111.741844 532.900524)scale(0.16 -0.16)">
       <use transform="scale(0.996264)" xlink:href="#CMR17-48"/>
      </g>
     </g>
    </g>
    <g id="xtick_14">
     <g id="line2d_33">
      <g>
       <use style="stroke:#000000;stroke-width:0.8;" x="186.915812" xlink:href="#ma236c89e73" y="514.830936"/>
      </g>
     </g>
     <g id="text_34">
      <!-- $\mathdefault{10}$ -->
      <g transform="translate(179.111825 532.900524)scale(0.16 -0.16)">
       <use transform="scale(0.996264)" xlink:href="#CMR17-49"/>
       <use transform="translate(45.690477 0)scale(0.996264)" xlink:href="#CMR17-48"/>
      </g>
     </g>
    </g>
    <g id="xtick_15">
     <g id="line2d_34">
      <g>
       <use style="stroke:#000000;stroke-width:0.8;" x="258.187788" xlink:href="#ma236c89e73" y="514.830936"/>
      </g>
     </g>
     <g id="text_35">
      <!-- $\mathdefault{20}$ -->
      <g transform="translate(250.383801 532.900524)scale(0.16 -0.16)">
       <use transform="scale(0.996264)" xlink:href="#CMR17-50"/>
       <use transform="translate(45.690477 0)scale(0.996264)" xlink:href="#CMR17-48"/>
      </g>
     </g>
    </g>
    <g id="xtick_16">
     <g id="line2d_35">
      <g>
       <use style="stroke:#000000;stroke-width:0.8;" x="329.459763" xlink:href="#ma236c89e73" y="514.830936"/>
      </g>
     </g>
     <g id="text_36">
      <!-- $\mathdefault{30}$ -->
      <g transform="translate(321.655776 532.900524)scale(0.16 -0.16)">
       <use transform="scale(0.996264)" xlink:href="#CMR17-51"/>
       <use transform="translate(45.690477 0)scale(0.996264)" xlink:href="#CMR17-48"/>
      </g>
     </g>
    </g>
   </g>
   <g id="matplotlib.axis_8">
    <g id="ytick_17">
     <g id="line2d_36">
      <g>
       <use style="stroke:#000000;stroke-width:0.8;" x="104.596681" xlink:href="#m2b4a1eea09" y="484.225922"/>
      </g>
     </g>
     <g id="text_37">
      <!-- $\mathdefault{−5.0}$ -->
      <g transform="translate(65.255163 489.760716)scale(0.16 -0.16)">
       <use transform="scale(0.996264)" xlink:href="#CMSY10-0"/>
       <use transform="translate(77.487468 0)scale(0.996264)" xlink:href="#CMR17-53"/>
       <use transform="translate(123.177945 0)scale(0.996264)" xlink:href="#CMMI12-58"/>
       <use transform="translate(150.275122 0)scale(0.996264)" xlink:href="#CMR17-48"/>
      </g>
     </g>
    </g>
    <g id="ytick_18">
     <g id="line2d_37">
      <g>
       <use style="stroke:#000000;stroke-width:0.8;" x="104.596681" xlink:href="#m2b4a1eea09" y="448.117401"/>
      </g>
     </g>
     <g id="text_38">
      <!-- $\mathdefault{−2.5}$ -->
      <g transform="translate(65.255163 453.652195)scale(0.16 -0.16)">
       <use transform="scale(0.996264)" xlink:href="#CMSY10-0"/>
       <use transform="translate(77.487468 0)scale(0.996264)" xlink:href="#CMR17-50"/>
       <use transform="translate(123.177945 0)scale(0.996264)" xlink:href="#CMMI12-58"/>
       <use transform="translate(150.275122 0)scale(0.996264)" xlink:href="#CMR17-53"/>
      </g>
     </g>
    </g>
    <g id="ytick_19">
     <g id="line2d_38">
      <g>
       <use style="stroke:#000000;stroke-width:0.8;" x="104.596681" xlink:href="#m2b4a1eea09" y="412.008881"/>
      </g>
     </g>
     <g id="text_39">
      <!-- $\mathdefault{0.0}$ -->
      <g transform="translate(77.653159 417.543675)scale(0.16 -0.16)">
       <use transform="scale(0.996264)" xlink:href="#CMR17-48"/>
       <use transform="translate(45.690477 0)scale(0.996264)" xlink:href="#CMMI12-58"/>
       <use transform="translate(72.787654 0)scale(0.996264)" xlink:href="#CMR17-48"/>
      </g>
     </g>
    </g>
    <g id="ytick_20">
     <g id="line2d_39">
      <g>
       <use style="stroke:#000000;stroke-width:0.8;" x="104.596681" xlink:href="#m2b4a1eea09" y="375.90036"/>
      </g>
     </g>
     <g id="text_40">
      <!-- $\mathdefault{2.5}$ -->
      <g transform="translate(77.653159 381.435154)scale(0.16 -0.16)">
       <use transform="scale(0.996264)" xlink:href="#CMR17-50"/>
       <use transform="translate(45.690477 0)scale(0.996264)" xlink:href="#CMMI12-58"/>
       <use transform="translate(72.787654 0)scale(0.996264)" xlink:href="#CMR17-53"/>
      </g>
     </g>
    </g>
    <g id="ytick_21">
     <g id="line2d_40">
      <g>
       <use style="stroke:#000000;stroke-width:0.8;" x="104.596681" xlink:href="#m2b4a1eea09" y="339.791839"/>
      </g>
     </g>
     <g id="text_41">
      <!-- $\mathdefault{5.0}$ -->
      <g transform="translate(77.653159 345.326633)scale(0.16 -0.16)">
       <use transform="scale(0.996264)" xlink:href="#CMR17-53"/>
       <use transform="translate(45.690477 0)scale(0.996264)" xlink:href="#CMMI12-58"/>
       <use transform="translate(72.787654 0)scale(0.996264)" xlink:href="#CMR17-48"/>
      </g>
     </g>
    </g>
    <g id="text_42">
     <!-- Imaginary -->
     <g transform="translate(56.604405 464.660674)rotate(-90)scale(0.24 -0.24)">
      <defs>
       <path d="M 19.703125 61.015625 
C 19.703125 65.5 20.90625 65.5 28.09375 65.5 
L 28.09375 68 
C 24.90625 68 19.796875 68 16.40625 68 
C 13 68 7.90625 68 4.703125 68 
L 4.703125 65.5 
C 11.90625 65.5 13.09375 65.5 13.09375 61.015625 
L 13.09375 6.984375 
C 13.09375 2.5 11.90625 2.5 4.703125 2.5 
L 4.703125 0 
C 7.90625 0 13 0 16.40625 0 
C 19.796875 0 24.90625 0 28.09375 0 
L 28.09375 2.5 
C 20.90625 2.5 19.703125 2.5 19.703125 6.984375 
z
" id="CMR17-73"/>
       <path d="M 67.59375 30.203125 
C 67.59375 35.1875 66.703125 43.59375 54.796875 43.59375 
C 48 43.59375 43.296875 39 41.5 33.609375 
L 41.40625 33.609375 
C 40.203125 41.8125 34.296875 43.59375 28.703125 43.59375 
C 20.796875 43.59375 16.703125 37.5 15.203125 33.5 
L 15.09375 33.5 
L 15.09375 43.59375 
L 3.296875 42.5 
L 3.296875 39.90625 
C 9.203125 39.90625 10.09375 39.296875 10.09375 34.5 
L 10.09375 6.6875 
C 10.09375 2.875 9.703125 2.390625 3.296875 2.390625 
L 3.296875 -0.203125 
C 5.703125 0 10.09375 0 12.703125 0 
C 15.296875 0 19.796875 0 22.203125 -0.203125 
L 22.203125 2.390625 
C 15.796875 2.390625 15.40625 2.78125 15.40625 6.6875 
L 15.40625 25.90625 
C 15.40625 35.109375 21 42 28 42 
C 35.40625 42 36.203125 35.40625 36.203125 30.59375 
L 36.203125 6.6875 
C 36.203125 2.875 35.796875 2.390625 29.40625 2.390625 
L 29.40625 -0.203125 
C 31.796875 0 36.203125 0 38.796875 0 
C 41.40625 0 45.90625 0 48.296875 -0.203125 
L 48.296875 2.390625 
C 41.90625 2.390625 41.5 2.78125 41.5 6.6875 
L 41.5 25.90625 
C 41.5 35.109375 47.09375 42 54.09375 42 
C 61.5 42 62.296875 35.40625 62.296875 30.59375 
L 62.296875 6.6875 
C 62.296875 2.875 61.90625 2.390625 55.5 2.390625 
L 55.5 -0.203125 
C 57.90625 0 62.296875 0 64.90625 0 
C 67.5 0 72 0 74.40625 -0.203125 
L 74.40625 2.390625 
C 68 2.390625 67.59375 2.78125 67.59375 6.6875 
z
" id="CMR17-109"/>
       <path d="M 11.09375 18.1875 
C 13 16.6875 16.296875 15 20.296875 15 
C 28.203125 15 35 21.203125 35 29.5 
C 35 32.09375 34.203125 36.09375 31.203125 39.203125 
C 34 42.0625 38.09375 43 40.40625 43 
C 40.796875 43 41.40625 43 41.90625 42.71875 
C 41.5 42.625 40.59375 42.234375 40.59375 40.703125 
C 40.59375 39.484375 41.5 38.609375 42.796875 38.609375 
C 44.296875 38.609375 45.09375 39.578125 45.09375 40.84375 
C 45.09375 42.671875 43.59375 44.59375 40.40625 44.59375 
C 36.40625 44.59375 32.90625 42.78125 30.09375 40.3125 
C 27.09375 43.015625 23.5 44 20.296875 44 
C 12.40625 44 5.59375 37.796875 5.59375 29.5 
C 5.59375 23.78125 8.90625 20.1875 9.90625 19.1875 
C 6.90625 15.6875 6.90625 11.609375 6.90625 11.109375 
C 6.90625 8.515625 7.90625 4.71875 11.296875 2.625 
C 6.09375 1.328125 2 -2.640625 2 -7.59375 
C 2 -14.734375 11.5 -20 22.90625 -20 
C 33.90625 -20 43.796875 -14.9375 43.796875 -7.484375 
C 43.796875 6 29 6 21.296875 6 
C 19 6 14.90625 6 14.40625 6.109375 
C 11.296875 6.609375 9.203125 9.40625 9.203125 12.90625 
C 9.203125 13.796875 9.203125 16 11.09375 18.1875 
z
M 20.296875 16.6875 
C 11.5 16.6875 11.5 27.5 11.5 29.515625 
C 11.5 31.5 11.5 42.3125 20.296875 42.3125 
C 29.09375 42.3125 29.09375 31.5 29.09375 29.515625 
C 29.09375 27.5 29.09375 16.6875 20.296875 16.6875 
z
M 22.90625 -18.296875 
C 12.90625 -18.296875 6 -13.046875 6 -7.59375 
C 6 -4.515625 7.703125 -1.640625 9.90625 -0.0625 
C 12.40625 1.625 13.40625 1.625 20.203125 1.625 
C 28.40625 1.625 39.796875 1.625 39.796875 -7.59375 
C 39.796875 -13.046875 32.90625 -18.296875 22.90625 -18.296875 
z
" id="CMR17-103"/>
       <path d="M 15.5 61.078125 
C 15.5 63.265625 13.703125 65.15625 11.40625 65.15625 
C 9.203125 65.15625 7.296875 63.375 7.296875 61.078125 
C 7.296875 58.890625 9.09375 57 11.40625 57 
C 13.59375 57 15.5 58.796875 15.5 61.078125 
z
M 3.796875 42.28125 
L 3.796875 39.703125 
C 9.40625 39.703125 10.203125 39.09375 10.203125 34.328125 
L 10.203125 6.671875 
C 10.203125 2.875 9.796875 2.390625 3.40625 2.390625 
L 3.40625 -0.203125 
C 5.796875 0 10.09375 0 12.59375 0 
C 15 0 19.09375 0 21.40625 -0.203125 
L 21.40625 2.390625 
C 15.5 2.390625 15.296875 2.984375 15.296875 6.5625 
L 15.296875 43.375 
z
" id="CMR17-105"/>
       <path d="M 41.5 30.203125 
C 41.5 35.296875 40.5 43.59375 28.703125 43.59375 
C 20.796875 43.59375 16.703125 37.5 15.203125 33.5 
L 15.09375 33.5 
L 15.09375 43.59375 
L 3.296875 42.5 
L 3.296875 39.90625 
C 9.203125 39.90625 10.09375 39.296875 10.09375 34.5 
L 10.09375 6.6875 
C 10.09375 2.875 9.703125 2.390625 3.296875 2.390625 
L 3.296875 -0.203125 
C 5.703125 0 10.09375 0 12.703125 0 
C 15.296875 0 19.796875 0 22.203125 -0.203125 
L 22.203125 2.390625 
C 15.796875 2.390625 15.40625 2.78125 15.40625 6.6875 
L 15.40625 25.90625 
C 15.40625 35.109375 21 42 28 42 
C 35.40625 42 36.203125 35.40625 36.203125 30.59375 
L 36.203125 6.6875 
C 36.203125 2.875 35.796875 2.390625 29.40625 2.390625 
L 29.40625 -0.203125 
C 31.796875 0 36.203125 0 38.796875 0 
C 41.40625 0 45.90625 0 48.296875 -0.203125 
L 48.296875 2.390625 
C 41.90625 2.390625 41.5 2.78125 41.5 6.6875 
z
" id="CMR17-110"/>
       <path d="M 15 23.390625 
C 15 33 19.09375 42 26.59375 42 
C 27.296875 42 28 41.90625 28.703125 41.59375 
C 28.703125 41.59375 26.5 40.890625 26.5 38.3125 
C 26.5 35.90625 28.40625 34.90625 29.90625 34.90625 
C 31.09375 34.90625 33.296875 35.609375 33.296875 38.40625 
C 33.296875 41.609375 30.09375 43.59375 26.703125 43.59375 
C 19.09375 43.59375 15.796875 36.203125 14.796875 32.703125 
L 14.703125 32.703125 
L 14.703125 43.59375 
L 3.09375 42.5 
L 3.09375 39.90625 
C 9 39.90625 9.90625 39.296875 9.90625 34.5 
L 9.90625 6.6875 
C 9.90625 2.875 9.5 2.390625 3.09375 2.390625 
L 3.09375 -0.203125 
C 5.5 0 10.09375 0 12.703125 0 
C 15.59375 0 20.703125 0 23.40625 -0.203125 
L 23.40625 2.390625 
C 16.203125 2.390625 15 2.390625 15 6.875 
z
" id="CMR17-114"/>
       <path d="M 39 34.328125 
C 41.5 40.40625 46 40.40625 47.40625 40.40625 
L 47.40625 43 
C 45.5 43 43 43 41.09375 43 
C 39 43 35.703125 43 33.703125 43.09375 
L 33.703125 40.5 
C 37.5 40.203125 37.59375 37.40625 37.59375 36.609375 
C 37.59375 35.625 37.40625 35.125 36.90625 33.921875 
L 26 7.015625 
L 14.09375 36.03125 
C 13.59375 37.21875 13.59375 37.90625 13.59375 38.015625 
C 13.59375 40.203125 15.90625 40.40625 18.296875 40.40625 
L 18.296875 43.09375 
C 15.90625 43 11.59375 43 9.09375 43 
C 6.40625 43 3.203125 43 1 43.09375 
L 1 40.40625 
C 6.40625 40.40625 7 39.90625 8.296875 36.71875 
L 23.203125 0.234375 
C 18.703125 -11.53125 16.09375 -18.40625 9.796875 -18.40625 
C 8.703125 -18.40625 6.203125 -18.109375 4.40625 -16.3125 
C 6.703125 -16.109375 7.703125 -14.71875 7.703125 -13.015625 
C 7.703125 -11.328125 6.5 -9.828125 4.5 -9.828125 
C 2.296875 -9.828125 1.203125 -11.328125 1.203125 -13.125 
C 1.203125 -17.109375 5.296875 -20 9.796875 -20 
C 15.59375 -20 19.203125 -14.40625 21.203125 -9.4375 
z
" id="CMR17-121"/>
      </defs>
      <use transform="scale(0.996264)" xlink:href="#CMR17-73"/>
      <use transform="translate(32.638409 0)scale(0.996264)" xlink:href="#CMR17-109"/>
      <use transform="translate(109.557999 0)scale(0.996264)" xlink:href="#CMR17-97"/>
      <use transform="translate(155.248476 0)scale(0.996264)" xlink:href="#CMR17-103"/>
      <use transform="translate(200.938953 0)scale(0.996264)" xlink:href="#CMR17-105"/>
      <use transform="translate(225.810012 0)scale(0.996264)" xlink:href="#CMR17-110"/>
      <use transform="translate(276.705382 0)scale(0.996264)" xlink:href="#CMR17-97"/>
      <use transform="translate(322.395859 0)scale(0.996264)" xlink:href="#CMR17-114"/>
      <use transform="translate(357.676626 0)scale(0.996264)" xlink:href="#CMR17-121"/>
     </g>
    </g>
    <g id="text_43">
     <!-- $\times\mathdefault{10^{−17}}\mathdefault{}$ -->
     <g transform="translate(104.596681 314.057736)scale(0.16 -0.16)">
      <defs>
       <path d="M 38.90625 27.890625 
L 18.90625 47.796875 
C 17.703125 49 17.5 49.1875 16.703125 49.1875 
C 15.703125 49.1875 14.703125 48.296875 14.703125 47.1875 
C 14.703125 46.5 14.90625 46.296875 16 45.1875 
L 36 25.09375 
L 16 5 
C 14.90625 3.890625 14.703125 3.6875 14.703125 3 
C 14.703125 1.890625 15.703125 1 16.703125 1 
C 17.5 1 17.703125 1.1875 18.90625 2.390625 
L 38.796875 22.296875 
L 59.5 1.59375 
C 59.703125 1.5 60.40625 1 61 1 
C 62.203125 1 63 1.890625 63 3 
C 63 3.1875 63 3.59375 62.703125 4.09375 
C 62.59375 4.296875 46.703125 20 41.703125 25.09375 
L 60 43.390625 
C 60.5 44 62 45.296875 62.5 45.890625 
C 62.59375 46.09375 63 46.5 63 47.1875 
C 63 48.296875 62.203125 49.1875 61 49.1875 
C 60.203125 49.1875 59.796875 48.796875 58.703125 47.6875 
z
" id="CMSY10-2"/>
       <path d="M 45.09375 61.578125 
L 45.09375 63.765625 
L 21.59375 63.765625 
C 9.90625 63.765625 9.703125 65.078125 9.296875 67 
L 7.5 67 
L 4.59375 48.34375 
L 6.40625 48.34375 
C 6.703125 50.234375 7.40625 55.3125 8.59375 57.203125 
C 9.203125 58 16.59375 58 18.296875 58 
L 40.296875 58 
L 29.203125 41.578125 
C 21.796875 30.53125 16.703125 15.609375 16.703125 2.578125 
C 16.703125 1.390625 16.703125 -2 20.296875 -2 
C 23.90625 -2 23.90625 1.390625 23.90625 2.671875 
L 23.90625 7.265625 
C 23.90625 23.5625 26.703125 34.3125 31.296875 41.1875 
z
" id="CMR17-55"/>
      </defs>
      <use transform="scale(0.996264)" xlink:href="#CMSY10-2"/>
      <use transform="translate(77.487468 0)scale(0.996264)" xlink:href="#CMR17-49"/>
      <use transform="translate(123.177945 0)scale(0.996264)" xlink:href="#CMR17-48"/>
      <use transform="translate(168.868422 36.153639)scale(0.697382)" xlink:href="#CMSY10-0"/>
      <use transform="translate(223.109415 36.153639)scale(0.697382)" xlink:href="#CMR17-49"/>
      <use transform="translate(255.092597 36.153639)scale(0.697382)" xlink:href="#CMR17-55"/>
     </g>
    </g>
   </g>
   <g id="LineCollection_4">
    <path clip-path="url(#p63fdff75d3)" d="M 115.643837 480.66114 
L 115.643837 353.716108 
" style="fill:none;stroke:#ff0000;stroke-width:2;"/>
    <path clip-path="url(#p63fdff75d3)" d="M 122.771035 444.796496 
L 122.771035 326.047427 
" style="fill:none;stroke:#ff0000;stroke-width:2;"/>
    <path clip-path="url(#p63fdff75d3)" d="M 129.898232 466.791325 
L 129.898232 374.644036 
" style="fill:none;stroke:#ff0000;stroke-width:2;"/>
    <path clip-path="url(#p63fdff75d3)" d="M 137.02543 408.276878 
L 137.02543 340.096253 
" style="fill:none;stroke:#ff0000;stroke-width:2;"/>
    <path clip-path="url(#p63fdff75d3)" d="M 144.152627 411.804321 
L 144.152627 351.026042 
" style="fill:none;stroke:#ff0000;stroke-width:2;"/>
    <path clip-path="url(#p63fdff75d3)" d="M 151.279825 435.09203 
L 151.279825 390.353827 
" style="fill:none;stroke:#ff0000;stroke-width:2;"/>
    <path clip-path="url(#p63fdff75d3)" d="M 158.407022 423.39166 
L 158.407022 393.294242 
" style="fill:none;stroke:#ff0000;stroke-width:2;"/>
    <path clip-path="url(#p63fdff75d3)" d="M 165.53422 425.922889 
L 165.53422 405.039565 
" style="fill:none;stroke:#ff0000;stroke-width:2;"/>
    <path clip-path="url(#p63fdff75d3)" d="M 172.661417 409.319201 
L 172.661417 387.099607 
" style="fill:none;stroke:#ff0000;stroke-width:2;"/>
    <path clip-path="url(#p63fdff75d3)" d="M 179.788615 426.604494 
L 179.788615 412.460641 
" style="fill:none;stroke:#ff0000;stroke-width:2;"/>
    <path clip-path="url(#p63fdff75d3)" d="M 186.915812 412.834696 
L 186.915812 399.956018 
" style="fill:none;stroke:#ff0000;stroke-width:2;"/>
    <path clip-path="url(#p63fdff75d3)" d="M 194.04301 415.192425 
L 194.04301 403.956677 
" style="fill:none;stroke:#ff0000;stroke-width:2;"/>
    <path clip-path="url(#p63fdff75d3)" d="M 201.170208 420.147315 
L 201.170208 412.550141 
" style="fill:none;stroke:#ff0000;stroke-width:2;"/>
    <path clip-path="url(#p63fdff75d3)" d="M 208.297405 416.490892 
L 208.297405 410.948064 
" style="fill:none;stroke:#ff0000;stroke-width:2;"/>
    <path clip-path="url(#p63fdff75d3)" d="M 215.424603 412.723609 
L 215.424603 408.458765 
" style="fill:none;stroke:#ff0000;stroke-width:2;"/>
    <path clip-path="url(#p63fdff75d3)" d="M 222.5518 415.635254 
L 222.5518 411.884909 
" style="fill:none;stroke:#ff0000;stroke-width:2;"/>
    <path clip-path="url(#p63fdff75d3)" d="M 229.678998 413.570469 
L 229.678998 409.359597 
" style="fill:none;stroke:#ff0000;stroke-width:2;"/>
    <path clip-path="url(#p63fdff75d3)" d="M 236.806195 411.741908 
L 236.806195 407.001989 
" style="fill:none;stroke:#ff0000;stroke-width:2;"/>
    <path clip-path="url(#p63fdff75d3)" d="M 243.933393 417.67535 
L 243.933393 411.987233 
" style="fill:none;stroke:#ff0000;stroke-width:2;"/>
    <path clip-path="url(#p63fdff75d3)" d="M 251.06059 416.146239 
L 251.06059 410.781846 
" style="fill:none;stroke:#ff0000;stroke-width:2;"/>
    <path clip-path="url(#p63fdff75d3)" d="M 258.187788 410.439333 
L 258.187788 403.798144 
" style="fill:none;stroke:#ff0000;stroke-width:2;"/>
    <path clip-path="url(#p63fdff75d3)" d="M 265.314985 421.691057 
L 265.314985 410.490025 
" style="fill:none;stroke:#ff0000;stroke-width:2;"/>
    <path clip-path="url(#p63fdff75d3)" d="M 272.442183 420.814585 
L 272.442183 407.369477 
" style="fill:none;stroke:#ff0000;stroke-width:2;"/>
    <path clip-path="url(#p63fdff75d3)" d="M 279.569381 425.532334 
L 279.569381 408.140534 
" style="fill:none;stroke:#ff0000;stroke-width:2;"/>
    <path clip-path="url(#p63fdff75d3)" d="M 286.696578 441.853396 
L 286.696578 422.926908 
" style="fill:none;stroke:#ff0000;stroke-width:2;"/>
    <path clip-path="url(#p63fdff75d3)" d="M 293.823776 402.31731 
L 293.823776 375.972487 
" style="fill:none;stroke:#ff0000;stroke-width:2;"/>
    <path clip-path="url(#p63fdff75d3)" d="M 300.950973 409.863832 
L 300.950973 378.925048 
" style="fill:none;stroke:#ff0000;stroke-width:2;"/>
    <path clip-path="url(#p63fdff75d3)" d="M 308.078171 409.02183 
L 308.078171 367.747695 
" style="fill:none;stroke:#ff0000;stroke-width:2;"/>
    <path clip-path="url(#p63fdff75d3)" d="M 315.205368 383.873784 
L 315.205368 328.114304 
" style="fill:none;stroke:#ff0000;stroke-width:2;"/>
    <path clip-path="url(#p63fdff75d3)" d="M 322.332566 481.671258 
L 322.332566 411.671814 
" style="fill:none;stroke:#ff0000;stroke-width:2;"/>
    <path clip-path="url(#p63fdff75d3)" d="M 329.459763 487.273518 
L 329.459763 384.960488 
" style="fill:none;stroke:#ff0000;stroke-width:2;"/>
    <path clip-path="url(#p63fdff75d3)" d="M 336.586961 505.841245 
L 336.586961 376.39135 
" style="fill:none;stroke:#ff0000;stroke-width:2;"/>
   </g>
   <g id="line2d_41">
    <path clip-path="url(#p63fdff75d3)" d="M 115.643837 417.188624 
L 122.771035 385.421961 
L 129.898232 420.717681 
L 137.02543 374.186565 
L 144.152627 381.415182 
L 151.279825 412.722928 
L 158.407022 408.342951 
L 165.53422 415.481227 
L 172.661417 398.209404 
L 179.788615 419.532568 
L 186.915812 406.395357 
L 194.04301 409.574551 
L 201.170208 416.348728 
L 208.297405 413.719478 
L 215.424603 410.591187 
L 222.5518 413.760082 
L 229.678998 411.465033 
L 236.806195 409.371949 
L 243.933393 414.831291 
L 251.06059 413.464043 
L 258.187788 407.118739 
L 265.314985 416.090541 
L 272.442183 414.092031 
L 279.569381 416.836434 
L 286.696578 432.390152 
L 293.823776 389.144899 
L 300.950973 394.39444 
L 308.078171 388.384762 
L 315.205368 355.994044 
L 322.332566 446.671536 
L 329.459763 436.117003 
L 336.586961 441.116297 
" style="fill:none;stroke:#000000;stroke-linecap:square;stroke-width:2;"/>
   </g>
   <g id="patch_18">
    <path d="M 104.596681 514.830936 
L 104.596681 317.057736 
" style="fill:none;stroke:#000000;stroke-linecap:square;stroke-linejoin:miter;stroke-width:0.8;"/>
   </g>
   <g id="patch_19">
    <path d="M 347.634117 514.830936 
L 347.634117 317.057736 
" style="fill:none;stroke:#000000;stroke-linecap:square;stroke-linejoin:miter;stroke-width:0.8;"/>
   </g>
   <g id="patch_20">
    <path d="M 104.596681 514.830936 
L 347.634117 514.830936 
" style="fill:none;stroke:#000000;stroke-linecap:square;stroke-linejoin:miter;stroke-width:0.8;"/>
   </g>
   <g id="patch_21">
    <path d="M 104.596681 317.057736 
L 347.634117 317.057736 
" style="fill:none;stroke:#000000;stroke-linecap:square;stroke-linejoin:miter;stroke-width:0.8;"/>
   </g>
  </g>
  <g id="axes_5">
   <g id="patch_22">
    <path d="M 414.779622 514.830936 
L 657.817059 514.830936 
L 657.817059 317.057736 
L 414.779622 317.057736 
z
" style="fill:#ffffff;"/>
   </g>
   <g id="matplotlib.axis_9">
    <g id="xtick_17">
     <g id="line2d_42">
      <g>
       <use style="stroke:#000000;stroke-width:0.8;" x="425.826779" xlink:href="#ma236c89e73" y="514.830936"/>
      </g>
     </g>
     <g id="text_44">
      <!-- $\mathdefault{0}$ -->
      <g transform="translate(421.924785 532.900524)scale(0.16 -0.16)">
       <use transform="scale(0.996264)" xlink:href="#CMR17-48"/>
      </g>
     </g>
    </g>
    <g id="xtick_18">
     <g id="line2d_43">
      <g>
       <use style="stroke:#000000;stroke-width:0.8;" x="494.871505" xlink:href="#ma236c89e73" y="514.830936"/>
      </g>
     </g>
     <g id="text_45">
      <!-- $\mathdefault{5}$ -->
      <g transform="translate(490.969511 532.900524)scale(0.16 -0.16)">
       <use transform="scale(0.996264)" xlink:href="#CMR17-53"/>
      </g>
     </g>
    </g>
    <g id="xtick_19">
     <g id="line2d_44">
      <g>
       <use style="stroke:#000000;stroke-width:0.8;" x="563.916231" xlink:href="#ma236c89e73" y="514.830936"/>
      </g>
     </g>
     <g id="text_46">
      <!-- $\mathdefault{10}$ -->
      <g transform="translate(556.112244 532.900524)scale(0.16 -0.16)">
       <use transform="scale(0.996264)" xlink:href="#CMR17-49"/>
       <use transform="translate(45.690477 0)scale(0.996264)" xlink:href="#CMR17-48"/>
      </g>
     </g>
    </g>
    <g id="xtick_20">
     <g id="line2d_45">
      <g>
       <use style="stroke:#000000;stroke-width:0.8;" x="632.960957" xlink:href="#ma236c89e73" y="514.830936"/>
      </g>
     </g>
     <g id="text_47">
      <!-- $\mathdefault{15}$ -->
      <g transform="translate(625.15697 532.900524)scale(0.16 -0.16)">
       <use transform="scale(0.996264)" xlink:href="#CMR17-49"/>
       <use transform="translate(45.690477 0)scale(0.996264)" xlink:href="#CMR17-53"/>
      </g>
     </g>
    </g>
   </g>
   <g id="matplotlib.axis_10">
    <g id="ytick_22">
     <g id="line2d_46">
      <g>
       <use style="stroke:#000000;stroke-width:0.8;" x="414.779622" xlink:href="#m2b4a1eea09" y="491.032477"/>
      </g>
     </g>
     <g id="text_48">
      <!-- $\mathdefault{−4}$ -->
      <g transform="translate(387.577639 496.567271)scale(0.16 -0.16)">
       <use transform="scale(0.996264)" xlink:href="#CMSY10-0"/>
       <use transform="translate(77.487468 0)scale(0.996264)" xlink:href="#CMR17-52"/>
      </g>
     </g>
    </g>
    <g id="ytick_23">
     <g id="line2d_47">
      <g>
       <use style="stroke:#000000;stroke-width:0.8;" x="414.779622" xlink:href="#m2b4a1eea09" y="451.709667"/>
      </g>
     </g>
     <g id="text_49">
      <!-- $\mathdefault{−2}$ -->
      <g transform="translate(387.577639 457.244461)scale(0.16 -0.16)">
       <use transform="scale(0.996264)" xlink:href="#CMSY10-0"/>
       <use transform="translate(77.487468 0)scale(0.996264)" xlink:href="#CMR17-50"/>
      </g>
     </g>
    </g>
    <g id="ytick_24">
     <g id="line2d_48">
      <g>
       <use style="stroke:#000000;stroke-width:0.8;" x="414.779622" xlink:href="#m2b4a1eea09" y="412.386858"/>
      </g>
     </g>
     <g id="text_50">
      <!-- $\mathdefault{0}$ -->
      <g transform="translate(399.975635 417.921652)scale(0.16 -0.16)">
       <use transform="scale(0.996264)" xlink:href="#CMR17-48"/>
      </g>
     </g>
    </g>
    <g id="ytick_25">
     <g id="line2d_49">
      <g>
       <use style="stroke:#000000;stroke-width:0.8;" x="414.779622" xlink:href="#m2b4a1eea09" y="373.064048"/>
      </g>
     </g>
     <g id="text_51">
      <!-- $\mathdefault{2}$ -->
      <g transform="translate(399.975635 378.598842)scale(0.16 -0.16)">
       <use transform="scale(0.996264)" xlink:href="#CMR17-50"/>
      </g>
     </g>
    </g>
    <g id="ytick_26">
     <g id="line2d_50">
      <g>
       <use style="stroke:#000000;stroke-width:0.8;" x="414.779622" xlink:href="#m2b4a1eea09" y="333.741238"/>
      </g>
     </g>
     <g id="text_52">
      <!-- $\mathdefault{4}$ -->
      <g transform="translate(399.975635 339.276032)scale(0.16 -0.16)">
       <use transform="scale(0.996264)" xlink:href="#CMR17-52"/>
      </g>
     </g>
    </g>
    <g id="text_53">
     <!-- $\times\mathdefault{10^{−17}}\mathdefault{}$ -->
     <g transform="translate(414.779622 314.057736)scale(0.16 -0.16)">
      <use transform="scale(0.996264)" xlink:href="#CMSY10-2"/>
      <use transform="translate(77.487468 0)scale(0.996264)" xlink:href="#CMR17-49"/>
      <use transform="translate(123.177945 0)scale(0.996264)" xlink:href="#CMR17-48"/>
      <use transform="translate(168.868422 36.153639)scale(0.697382)" xlink:href="#CMSY10-0"/>
      <use transform="translate(223.109415 36.153639)scale(0.697382)" xlink:href="#CMR17-49"/>
      <use transform="translate(255.092597 36.153639)scale(0.697382)" xlink:href="#CMR17-55"/>
     </g>
    </g>
   </g>
   <g id="LineCollection_5">
    <path clip-path="url(#p1a5ff5d537)" d="M 425.826779 505.841245 
L 425.826779 333.034549 
" style="fill:none;stroke:#ff0000;stroke-width:2;"/>
    <path clip-path="url(#p1a5ff5d537)" d="M 439.635724 474.275161 
L 439.635724 353.929636 
" style="fill:none;stroke:#ff0000;stroke-width:2;"/>
    <path clip-path="url(#p1a5ff5d537)" d="M 453.444669 481.977779 
L 453.444669 387.468689 
" style="fill:none;stroke:#ff0000;stroke-width:2;"/>
    <path clip-path="url(#p1a5ff5d537)" d="M 467.253614 442.388539 
L 467.253614 378.08402 
" style="fill:none;stroke:#ff0000;stroke-width:2;"/>
    <path clip-path="url(#p1a5ff5d537)" d="M 481.06256 380.828529 
L 481.06256 326.047427 
" style="fill:none;stroke:#ff0000;stroke-width:2;"/>
    <path clip-path="url(#p1a5ff5d537)" d="M 494.871505 416.461821 
L 494.871505 377.12506 
" style="fill:none;stroke:#ff0000;stroke-width:2;"/>
    <path clip-path="url(#p1a5ff5d537)" d="M 508.68045 413.354172 
L 508.68045 382.451175 
" style="fill:none;stroke:#ff0000;stroke-width:2;"/>
    <path clip-path="url(#p1a5ff5d537)" d="M 522.489395 410.669977 
L 522.489395 387.706451 
" style="fill:none;stroke:#ff0000;stroke-width:2;"/>
    <path clip-path="url(#p1a5ff5d537)" d="M 536.29834 426.190664 
L 536.29834 407.542663 
" style="fill:none;stroke:#ff0000;stroke-width:2;"/>
    <path clip-path="url(#p1a5ff5d537)" d="M 550.107286 428.495813 
L 550.107286 413.091298 
" style="fill:none;stroke:#ff0000;stroke-width:2;"/>
    <path clip-path="url(#p1a5ff5d537)" d="M 563.916231 416.724734 
L 563.916231 403.243183 
" style="fill:none;stroke:#ff0000;stroke-width:2;"/>
    <path clip-path="url(#p1a5ff5d537)" d="M 577.725176 418.839689 
L 577.725176 408.176491 
" style="fill:none;stroke:#ff0000;stroke-width:2;"/>
    <path clip-path="url(#p1a5ff5d537)" d="M 591.534121 415.551804 
L 591.534121 408.472811 
" style="fill:none;stroke:#ff0000;stroke-width:2;"/>
    <path clip-path="url(#p1a5ff5d537)" d="M 605.343067 417.105262 
L 605.343067 411.977912 
" style="fill:none;stroke:#ff0000;stroke-width:2;"/>
    <path clip-path="url(#p1a5ff5d537)" d="M 619.152012 415.750081 
L 619.152012 410.935835 
" style="fill:none;stroke:#ff0000;stroke-width:2;"/>
    <path clip-path="url(#p1a5ff5d537)" d="M 632.960957 413.989811 
L 632.960957 409.578184 
" style="fill:none;stroke:#ff0000;stroke-width:2;"/>
    <path clip-path="url(#p1a5ff5d537)" d="M 646.769902 414.512604 
L 646.769902 408.780462 
" style="fill:none;stroke:#ff0000;stroke-width:2;"/>
   </g>
   <g id="line2d_51">
    <path clip-path="url(#p1a5ff5d537)" d="M 425.826779 419.437897 
L 439.635724 414.102399 
L 453.444669 434.723234 
L 467.253614 410.23628 
L 481.06256 353.437978 
L 494.871505 396.793441 
L 508.68045 397.902674 
L 522.489395 399.188214 
L 536.29834 416.866664 
L 550.107286 420.793555 
L 563.916231 409.983959 
L 577.725176 413.50809 
L 591.534121 412.012307 
L 605.343067 414.541587 
L 619.152012 413.342958 
L 632.960957 411.783997 
L 646.769902 411.646533 
" style="fill:none;stroke:#000000;stroke-linecap:square;stroke-width:2;"/>
   </g>
   <g id="patch_23">
    <path d="M 414.779622 514.830936 
L 414.779622 317.057736 
" style="fill:none;stroke:#000000;stroke-linecap:square;stroke-linejoin:miter;stroke-width:0.8;"/>
   </g>
   <g id="patch_24">
    <path d="M 657.817059 514.830936 
L 657.817059 317.057736 
" style="fill:none;stroke:#000000;stroke-linecap:square;stroke-linejoin:miter;stroke-width:0.8;"/>
   </g>
   <g id="patch_25">
    <path d="M 414.779622 514.830936 
L 657.817059 514.830936 
" style="fill:none;stroke:#000000;stroke-linecap:square;stroke-linejoin:miter;stroke-width:0.8;"/>
   </g>
   <g id="patch_26">
    <path d="M 414.779622 317.057736 
L 657.817059 317.057736 
" style="fill:none;stroke:#000000;stroke-linecap:square;stroke-linejoin:miter;stroke-width:0.8;"/>
   </g>
  </g>
  <g id="axes_6">
   <g id="patch_27">
    <path d="M 724.962564 514.830936 
L 968 514.830936 
L 968 317.057736 
L 724.962564 317.057736 
z
" style="fill:#ffffff;"/>
   </g>
   <g id="matplotlib.axis_11">
    <g id="xtick_21">
     <g id="line2d_52">
      <g>
       <use style="stroke:#000000;stroke-width:0.8;" x="736.00972" xlink:href="#ma236c89e73" y="514.830936"/>
      </g>
     </g>
     <g id="text_54">
      <!-- $\mathdefault{0}$ -->
      <g transform="translate(732.107727 532.900524)scale(0.16 -0.16)">
       <use transform="scale(0.996264)" xlink:href="#CMR17-48"/>
      </g>
     </g>
    </g>
    <g id="xtick_22">
     <g id="line2d_53">
      <g>
       <use style="stroke:#000000;stroke-width:0.8;" x="805.054446" xlink:href="#ma236c89e73" y="514.830936"/>
      </g>
     </g>
     <g id="text_55">
      <!-- $\mathdefault{5}$ -->
      <g transform="translate(801.152453 532.900524)scale(0.16 -0.16)">
       <use transform="scale(0.996264)" xlink:href="#CMR17-53"/>
      </g>
     </g>
    </g>
    <g id="xtick_23">
     <g id="line2d_54">
      <g>
       <use style="stroke:#000000;stroke-width:0.8;" x="874.099172" xlink:href="#ma236c89e73" y="514.830936"/>
      </g>
     </g>
     <g id="text_56">
      <!-- $\mathdefault{10}$ -->
      <g transform="translate(866.295185 532.900524)scale(0.16 -0.16)">
       <use transform="scale(0.996264)" xlink:href="#CMR17-49"/>
       <use transform="translate(45.690477 0)scale(0.996264)" xlink:href="#CMR17-48"/>
      </g>
     </g>
    </g>
    <g id="xtick_24">
     <g id="line2d_55">
      <g>
       <use style="stroke:#000000;stroke-width:0.8;" x="943.143899" xlink:href="#ma236c89e73" y="514.830936"/>
      </g>
     </g>
     <g id="text_57">
      <!-- $\mathdefault{15}$ -->
      <g transform="translate(935.339912 532.900524)scale(0.16 -0.16)">
       <use transform="scale(0.996264)" xlink:href="#CMR17-49"/>
       <use transform="translate(45.690477 0)scale(0.996264)" xlink:href="#CMR17-53"/>
      </g>
     </g>
    </g>
   </g>
   <g id="matplotlib.axis_12">
    <g id="ytick_27">
     <g id="line2d_56">
      <g>
       <use style="stroke:#000000;stroke-width:0.8;" x="724.962564" xlink:href="#m2b4a1eea09" y="497.420982"/>
      </g>
     </g>
     <g id="text_58">
      <!-- $\mathdefault{−2}$ -->
      <g transform="translate(697.760581 502.955776)scale(0.16 -0.16)">
       <use transform="scale(0.996264)" xlink:href="#CMSY10-0"/>
       <use transform="translate(77.487468 0)scale(0.996264)" xlink:href="#CMR17-50"/>
      </g>
     </g>
    </g>
    <g id="ytick_28">
     <g id="line2d_57">
      <g>
       <use style="stroke:#000000;stroke-width:0.8;" x="724.962564" xlink:href="#m2b4a1eea09" y="448.095109"/>
      </g>
     </g>
     <g id="text_59">
      <!-- $\mathdefault{0}$ -->
      <g transform="translate(710.158577 453.629903)scale(0.16 -0.16)">
       <use transform="scale(0.996264)" xlink:href="#CMR17-48"/>
      </g>
     </g>
    </g>
    <g id="ytick_29">
     <g id="line2d_58">
      <g>
       <use style="stroke:#000000;stroke-width:0.8;" x="724.962564" xlink:href="#m2b4a1eea09" y="398.769237"/>
      </g>
     </g>
     <g id="text_60">
      <!-- $\mathdefault{2}$ -->
      <g transform="translate(710.158577 404.304031)scale(0.16 -0.16)">
       <use transform="scale(0.996264)" xlink:href="#CMR17-50"/>
      </g>
     </g>
    </g>
    <g id="ytick_30">
     <g id="line2d_59">
      <g>
       <use style="stroke:#000000;stroke-width:0.8;" x="724.962564" xlink:href="#m2b4a1eea09" y="349.443364"/>
      </g>
     </g>
     <g id="text_61">
      <!-- $\mathdefault{4}$ -->
      <g transform="translate(710.158577 354.978158)scale(0.16 -0.16)">
       <use transform="scale(0.996264)" xlink:href="#CMR17-52"/>
      </g>
     </g>
    </g>
    <g id="text_62">
     <!-- $\times\mathdefault{10^{−17}}\mathdefault{}$ -->
     <g transform="translate(724.962564 314.057736)scale(0.16 -0.16)">
      <use transform="scale(0.996264)" xlink:href="#CMSY10-2"/>
      <use transform="translate(77.487468 0)scale(0.996264)" xlink:href="#CMR17-49"/>
      <use transform="translate(123.177945 0)scale(0.996264)" xlink:href="#CMR17-48"/>
      <use transform="translate(168.868422 36.153639)scale(0.697382)" xlink:href="#CMSY10-0"/>
      <use transform="translate(223.109415 36.153639)scale(0.697382)" xlink:href="#CMR17-49"/>
      <use transform="translate(255.092597 36.153639)scale(0.697382)" xlink:href="#CMR17-55"/>
     </g>
    </g>
   </g>
   <g id="LineCollection_6">
    <path clip-path="url(#p47bf32a238)" d="M 736.00972 448.095109 
L 736.00972 448.095109 
" style="fill:none;stroke:#ff0000;stroke-width:2;"/>
    <path clip-path="url(#p47bf32a238)" d="M 749.818665 475.041564 
L 749.818665 326.047427 
" style="fill:none;stroke:#ff0000;stroke-width:2;"/>
    <path clip-path="url(#p47bf32a238)" d="M 763.627611 493.226384 
L 763.627611 376.668621 
" style="fill:none;stroke:#ff0000;stroke-width:2;"/>
    <path clip-path="url(#p47bf32a238)" d="M 777.436556 429.261613 
L 777.436556 343.156419 
" style="fill:none;stroke:#ff0000;stroke-width:2;"/>
    <path clip-path="url(#p47bf32a238)" d="M 791.245501 505.841245 
L 791.245501 433.757004 
" style="fill:none;stroke:#ff0000;stroke-width:2;"/>
    <path clip-path="url(#p47bf32a238)" d="M 805.054446 496.108429 
L 805.054446 441.640584 
" style="fill:none;stroke:#ff0000;stroke-width:2;"/>
    <path clip-path="url(#p47bf32a238)" d="M 818.863391 477.421342 
L 818.863391 442.586747 
" style="fill:none;stroke:#ff0000;stroke-width:2;"/>
    <path clip-path="url(#p47bf32a238)" d="M 832.672337 484.880007 
L 832.672337 456.280981 
" style="fill:none;stroke:#ff0000;stroke-width:2;"/>
    <path clip-path="url(#p47bf32a238)" d="M 846.481282 432.092072 
L 846.481282 405.732587 
" style="fill:none;stroke:#ff0000;stroke-width:2;"/>
    <path clip-path="url(#p47bf32a238)" d="M 860.290227 459.873708 
L 860.290227 440.920311 
" style="fill:none;stroke:#ff0000;stroke-width:2;"/>
    <path clip-path="url(#p47bf32a238)" d="M 874.099172 448.929294 
L 874.099172 434.118418 
" style="fill:none;stroke:#ff0000;stroke-width:2;"/>
    <path clip-path="url(#p47bf32a238)" d="M 887.908118 449.388359 
L 887.908118 435.675437 
" style="fill:none;stroke:#ff0000;stroke-width:2;"/>
    <path clip-path="url(#p47bf32a238)" d="M 901.717063 460.146627 
L 901.717063 451.804321 
" style="fill:none;stroke:#ff0000;stroke-width:2;"/>
    <path clip-path="url(#p47bf32a238)" d="M 915.526008 451.681308 
L 915.526008 444.945081 
" style="fill:none;stroke:#ff0000;stroke-width:2;"/>
    <path clip-path="url(#p47bf32a238)" d="M 929.334953 447.525319 
L 929.334953 441.424682 
" style="fill:none;stroke:#ff0000;stroke-width:2;"/>
    <path clip-path="url(#p47bf32a238)" d="M 943.143899 454.220427 
L 943.143899 449.462777 
" style="fill:none;stroke:#ff0000;stroke-width:2;"/>
    <path clip-path="url(#p47bf32a238)" d="M 956.952844 448.095109 
L 956.952844 448.095109 
" style="fill:none;stroke:#ff0000;stroke-width:2;"/>
   </g>
   <g id="line2d_60">
    <path clip-path="url(#p47bf32a238)" d="M 736.00972 448.095109 
L 749.818665 400.544495 
L 763.627611 434.947502 
L 777.436556 386.209016 
L 791.245501 469.799124 
L 805.054446 468.874506 
L 818.863391 460.004045 
L 832.672337 470.580494 
L 846.481282 418.912329 
L 860.290227 450.397009 
L 874.099172 441.523856 
L 887.908118 442.531898 
L 901.717063 455.975474 
L 915.526008 448.313194 
L 929.334953 444.475 
L 943.143899 451.841602 
L 956.952844 448.095109 
" style="fill:none;stroke:#000000;stroke-linecap:square;stroke-width:2;"/>
   </g>
   <g id="patch_28">
    <path d="M 724.962564 514.830936 
L 724.962564 317.057736 
" style="fill:none;stroke:#000000;stroke-linecap:square;stroke-linejoin:miter;stroke-width:0.8;"/>
   </g>
   <g id="patch_29">
    <path d="M 968 514.830936 
L 968 317.057736 
" style="fill:none;stroke:#000000;stroke-linecap:square;stroke-linejoin:miter;stroke-width:0.8;"/>
   </g>
   <g id="patch_30">
    <path d="M 724.962564 514.830936 
L 968 514.830936 
" style="fill:none;stroke:#000000;stroke-linecap:square;stroke-linejoin:miter;stroke-width:0.8;"/>
   </g>
   <g id="patch_31">
    <path d="M 724.962564 317.057736 
L 968 317.057736 
" style="fill:none;stroke:#000000;stroke-linecap:square;stroke-linejoin:miter;stroke-width:0.8;"/>
   </g>
  </g>
 </g>
 <defs>
  <clipPath id="p16cacfe23f">
   <rect height="197.773199" width="243.037436" x="104.596681" y="63.911226"/>
  </clipPath>
  <clipPath id="pd6dbbd088d">
   <rect height="197.773199" width="243.037436" x="414.779622" y="63.911226"/>
  </clipPath>
  <clipPath id="p534a758f81">
   <rect height="197.773199" width="243.037436" x="724.962564" y="63.911226"/>
  </clipPath>
  <clipPath id="p63fdff75d3">
   <rect height="197.773199" width="243.037436" x="104.596681" y="317.057736"/>
  </clipPath>
  <clipPath id="p1a5ff5d537">
   <rect height="197.773199" width="243.037436" x="414.779622" y="317.057736"/>
  </clipPath>
  <clipPath id="p47bf32a238">
   <rect height="197.773199" width="243.037436" x="724.962564" y="317.057736"/>
  </clipPath>
 </defs>
</svg>
