<?xml version="1.0" encoding="utf-8" standalone="no"?>
<!DOCTYPE svg PUBLIC "-//W3C//DTD SVG 1.1//EN"
  "http://www.w3.org/Graphics/SVG/1.1/DTD/svg11.dtd">
<!-- Created with matplotlib (https://matplotlib.org/) -->
<svg height="576pt" version="1.1" viewBox="0 0 1008 576" width="1008pt" xmlns="http://www.w3.org/2000/svg" xmlns:xlink="http://www.w3.org/1999/xlink">
 <metadata>
  <rdf:RDF xmlns:cc="http://creativecommons.org/ns#" xmlns:dc="http://purl.org/dc/elements/1.1/" xmlns:rdf="http://www.w3.org/1999/02/22-rdf-syntax-ns#">
   <cc:Work>
    <dc:type rdf:resource="http://purl.org/dc/dcmitype/StillImage"/>
    <dc:date>2022-10-25T15:48:15.112873</dc:date>
    <dc:format>image/svg+xml</dc:format>
    <dc:creator>
     <cc:Agent>
      <dc:title>Matplotlib v3.3.4, https://matplotlib.org/</dc:title>
     </cc:Agent>
    </dc:creator>
   </cc:Work>
  </rdf:RDF>
 </metadata>
 <defs>
  <style type="text/css">*{stroke-linecap:butt;stroke-linejoin:round;}</style>
 </defs>
 <g id="figure_1">
  <g id="patch_1">
   <path d="M 0 576 
L 1008 576 
L 1008 0 
L 0 0 
z
" style="fill:#ffffff;"/>
  </g>
  <g id="axes_1">
   <g id="patch_2">
    <path d="M 104.596681 261.684426 
L 352.836775 261.684426 
L 352.836775 63.911226 
L 104.596681 63.911226 
z
" style="fill:#ffffff;"/>
   </g>
   <g id="matplotlib.axis_1">
    <g id="xtick_1">
     <g id="line2d_1">
      <defs>
       <path d="M 0 0 
L 0 3.5 
" id="md915ebee61" style="stroke:#000000;stroke-width:0.8;"/>
      </defs>
      <g>
       <use style="stroke:#000000;stroke-width:0.8;" x="115.880322" xlink:href="#md915ebee61" y="261.684426"/>
      </g>
     </g>
     <g id="text_1">
      <!-- $\mathdefault{0}$ -->
      <g transform="translate(111.978328 279.754014)scale(0.16 -0.16)">
       <defs>
        <path d="M 42 31.640625 
C 42 37.75 41.90625 48.125 37.703125 56.109375 
C 34 63.109375 28.09375 65.59375 22.90625 65.59375 
C 18.09375 65.59375 12 63.40625 8.203125 56.203125 
C 4.203125 48.71875 3.796875 39.4375 3.796875 31.640625 
C 3.796875 25.953125 3.90625 17.28125 7 9.671875 
C 11.296875 -0.609375 19 -2 22.90625 -2 
C 27.5 -2 34.5 -0.109375 38.59375 9.375 
C 41.59375 16.28125 42 24.359375 42 31.640625 
z
M 22.90625 -0.40625 
C 16.5 -0.40625 12.703125 5.078125 11.296875 12.6875 
C 10.203125 18.5625 10.203125 27.15625 10.203125 32.75 
C 10.203125 40.4375 10.203125 46.828125 11.5 52.921875 
C 13.40625 61.390625 19 64 22.90625 64 
C 27 64 32.296875 61.296875 34.203125 53.125 
C 35.5 47.4375 35.59375 40.734375 35.59375 32.75 
C 35.59375 26.25 35.59375 18.265625 34.40625 12.375 
C 32.296875 1.484375 26.40625 -0.40625 22.90625 -0.40625 
z
" id="CMR17-48"/>
       </defs>
       <use transform="scale(0.996264)" xlink:href="#CMR17-48"/>
      </g>
     </g>
    </g>
    <g id="xtick_2">
     <g id="line2d_2">
      <g>
       <use style="stroke:#000000;stroke-width:0.8;" x="188.678003" xlink:href="#md915ebee61" y="261.684426"/>
      </g>
     </g>
     <g id="text_2">
      <!-- $\mathdefault{10}$ -->
      <g transform="translate(180.874016 279.754014)scale(0.16 -0.16)">
       <defs>
        <path d="M 26.59375 63.40625 
C 26.59375 65.5 26.5 65.5 25.09375 65.5 
C 21.203125 61.1875 15.296875 59.796875 9.703125 59.796875 
C 9.40625 59.796875 8.90625 59.796875 8.796875 59.5 
C 8.703125 59.296875 8.703125 59.09375 8.703125 57 
C 11.796875 57 17 57.59375 21 59.984375 
L 21 7.203125 
C 21 3.6875 20.796875 2.5 12.203125 2.5 
L 9.203125 2.5 
L 9.203125 0 
C 14 0 19 0 23.796875 0 
C 28.59375 0 33.59375 0 38.40625 0 
L 38.40625 2.5 
L 35.40625 2.5 
C 26.796875 2.5 26.59375 3.59375 26.59375 7.15625 
z
" id="CMR17-49"/>
       </defs>
       <use transform="scale(0.996264)" xlink:href="#CMR17-49"/>
       <use transform="translate(45.690477 0)scale(0.996264)" xlink:href="#CMR17-48"/>
      </g>
     </g>
    </g>
    <g id="xtick_3">
     <g id="line2d_3">
      <g>
       <use style="stroke:#000000;stroke-width:0.8;" x="261.475685" xlink:href="#md915ebee61" y="261.684426"/>
      </g>
     </g>
     <g id="text_3">
      <!-- $\mathdefault{20}$ -->
      <g transform="translate(253.671698 279.754014)scale(0.16 -0.16)">
       <defs>
        <path d="M 41.703125 15.453125 
L 39.90625 15.453125 
C 38.90625 8.375 38.09375 7.171875 37.703125 6.5625 
C 37.203125 5.765625 30 5.765625 28.59375 5.765625 
L 9.40625 5.765625 
C 13 9.671875 20 16.75 28.5 24.953125 
C 34.59375 30.734375 41.703125 37.53125 41.703125 47.421875 
C 41.703125 59.21875 32.296875 66 21.796875 66 
C 10.796875 66 4.09375 56.3125 4.09375 47.34375 
C 4.09375 43.4375 7 42.9375 8.203125 42.9375 
C 9.203125 42.9375 12.203125 43.546875 12.203125 47.03125 
C 12.203125 50.109375 9.59375 51 8.203125 51 
C 7.59375 51 7 50.90625 6.59375 50.703125 
C 8.5 59.21875 14.296875 63.40625 20.40625 63.40625 
C 29.09375 63.40625 34.796875 56.515625 34.796875 47.421875 
C 34.796875 38.734375 29.703125 31.25 24 24.75 
L 4.09375 2.28125 
L 4.09375 0 
L 39.296875 0 
z
" id="CMR17-50"/>
       </defs>
       <use transform="scale(0.996264)" xlink:href="#CMR17-50"/>
       <use transform="translate(45.690477 0)scale(0.996264)" xlink:href="#CMR17-48"/>
      </g>
     </g>
    </g>
    <g id="xtick_4">
     <g id="line2d_4">
      <g>
       <use style="stroke:#000000;stroke-width:0.8;" x="334.273366" xlink:href="#md915ebee61" y="261.684426"/>
      </g>
     </g>
     <g id="text_4">
      <!-- $\mathdefault{30}$ -->
      <g transform="translate(326.469379 279.754014)scale(0.16 -0.16)">
       <defs>
        <path d="M 22.09375 33.703125 
C 31 33.703125 34.90625 25.96875 34.90625 17.03125 
C 34.90625 5 28.5 0.390625 22.703125 0.390625 
C 17.40625 0.390625 8.796875 3.03125 6.09375 10.828125 
C 6.59375 10.625 7.09375 10.625 7.59375 10.625 
C 10 10.625 11.796875 12.21875 11.796875 14.8125 
C 11.796875 17.703125 9.59375 19 7.59375 19 
C 5.90625 19 3.296875 18.203125 3.296875 14.46875 
C 3.296875 5.234375 12.296875 -2 22.90625 -2 
C 34 -2 42.5 6.71875 42.5 16.953125 
C 42.5 26.671875 34.5 33.703125 25 34.796875 
C 32.59375 36.375 39.90625 43.0625 39.90625 52.015625 
C 39.90625 59.6875 32 65.296875 23 65.296875 
C 13.90625 65.296875 5.90625 59.828125 5.90625 52.015625 
C 5.90625 48.59375 8.5 48 9.796875 48 
C 11.90625 48 13.703125 49.296875 13.703125 51.890625 
C 13.703125 54.46875 11.90625 55.765625 9.796875 55.765625 
C 9.40625 55.765625 8.90625 55.765625 8.5 55.578125 
C 11.40625 61.859375 19.296875 63 22.796875 63 
C 26.296875 63 32.90625 61.328125 32.90625 51.875 
C 32.90625 49.109375 32.5 44.1875 29.09375 39.84375 
C 26.09375 36 22.703125 36 19.40625 35.6875 
C 18.90625 35.6875 16.59375 35.453125 16.203125 35.453125 
C 15.5 35.359375 15.09375 35.265625 15.09375 34.5 
C 15.09375 33.796875 15.203125 33.703125 17.203125 33.703125 
z
" id="CMR17-51"/>
       </defs>
       <use transform="scale(0.996264)" xlink:href="#CMR17-51"/>
       <use transform="translate(45.690477 0)scale(0.996264)" xlink:href="#CMR17-48"/>
      </g>
     </g>
    </g>
   </g>
   <g id="matplotlib.axis_2">
    <g id="ytick_1">
     <g id="line2d_5">
      <defs>
       <path d="M 0 0 
L -3.5 0 
" id="m2299a3942f" style="stroke:#000000;stroke-width:0.8;"/>
      </defs>
      <g>
       <use style="stroke:#000000;stroke-width:0.8;" x="104.596681" xlink:href="#m2299a3942f" y="252.918917"/>
      </g>
     </g>
     <g id="text_5">
      <!-- $\mathdefault{0}$ -->
      <g transform="translate(89.792694 258.453711)scale(0.16 -0.16)">
       <use transform="scale(0.996264)" xlink:href="#CMR17-48"/>
      </g>
     </g>
    </g>
    <g id="ytick_2">
     <g id="line2d_6">
      <g>
       <use style="stroke:#000000;stroke-width:0.8;" x="104.596681" xlink:href="#m2299a3942f" y="210.720947"/>
      </g>
     </g>
     <g id="text_6">
      <!-- $\mathdefault{100}$ -->
      <g transform="translate(74.18472 216.255741)scale(0.16 -0.16)">
       <use transform="scale(0.996264)" xlink:href="#CMR17-49"/>
       <use transform="translate(45.690477 0)scale(0.996264)" xlink:href="#CMR17-48"/>
       <use transform="translate(91.380954 0)scale(0.996264)" xlink:href="#CMR17-48"/>
      </g>
     </g>
    </g>
    <g id="ytick_3">
     <g id="line2d_7">
      <g>
       <use style="stroke:#000000;stroke-width:0.8;" x="104.596681" xlink:href="#m2299a3942f" y="168.522978"/>
      </g>
     </g>
     <g id="text_7">
      <!-- $\mathdefault{200}$ -->
      <g transform="translate(74.18472 174.057772)scale(0.16 -0.16)">
       <use transform="scale(0.996264)" xlink:href="#CMR17-50"/>
       <use transform="translate(45.690477 0)scale(0.996264)" xlink:href="#CMR17-48"/>
       <use transform="translate(91.380954 0)scale(0.996264)" xlink:href="#CMR17-48"/>
      </g>
     </g>
    </g>
    <g id="ytick_4">
     <g id="line2d_8">
      <g>
       <use style="stroke:#000000;stroke-width:0.8;" x="104.596681" xlink:href="#m2299a3942f" y="126.325008"/>
      </g>
     </g>
     <g id="text_8">
      <!-- $\mathdefault{300}$ -->
      <g transform="translate(74.18472 131.859802)scale(0.16 -0.16)">
       <use transform="scale(0.996264)" xlink:href="#CMR17-51"/>
       <use transform="translate(45.690477 0)scale(0.996264)" xlink:href="#CMR17-48"/>
       <use transform="translate(91.380954 0)scale(0.996264)" xlink:href="#CMR17-48"/>
      </g>
     </g>
    </g>
    <g id="ytick_5">
     <g id="line2d_9">
      <g>
       <use style="stroke:#000000;stroke-width:0.8;" x="104.596681" xlink:href="#m2299a3942f" y="84.127038"/>
      </g>
     </g>
     <g id="text_9">
      <!-- $\mathdefault{400}$ -->
      <g transform="translate(74.18472 89.661832)scale(0.16 -0.16)">
       <defs>
        <path d="M 33.59375 64.40625 
C 33.59375 66.5 33.5 66.5 31.703125 66.5 
L 2 19.59375 
L 2 17 
L 27.796875 17 
L 27.796875 7.140625 
C 27.796875 3.5 27.59375 2.5 20.59375 2.5 
L 18.703125 2.5 
L 18.703125 0 
C 21.90625 0 27.296875 0 30.703125 0 
C 34.09375 0 39.5 0 42.703125 0 
L 42.703125 2.5 
L 40.796875 2.5 
C 33.796875 2.5 33.59375 3.5 33.59375 7.140625 
L 33.59375 17 
L 43.796875 17 
L 43.796875 19.59375 
L 33.59375 19.59375 
z
M 28.09375 57.859375 
L 28.09375 19.59375 
L 4 19.59375 
z
" id="CMR17-52"/>
       </defs>
       <use transform="scale(0.996264)" xlink:href="#CMR17-52"/>
       <use transform="translate(45.690477 0)scale(0.996264)" xlink:href="#CMR17-48"/>
       <use transform="translate(91.380954 0)scale(0.996264)" xlink:href="#CMR17-48"/>
      </g>
     </g>
    </g>
    <g id="text_10">
     <!-- Real -->
     <g transform="translate(65.533963 184.258418)rotate(-90)scale(0.24 -0.24)">
      <defs>
       <path d="M 39.203125 33.53125 
C 48.703125 35.4375 56.703125 41.8125 56.703125 49.78125 
C 56.703125 59.140625 46.09375 67.59375 32.09375 67.59375 
L 5.203125 67.59375 
L 5.203125 65 
C 12.09375 65 13.203125 65 13.203125 60.515625 
L 13.203125 6.484375 
C 13.203125 2 12.09375 2 5.203125 2 
L 5.203125 -0.40625 
C 8.09375 -0.40625 13.296875 -0.40625 16.40625 -0.40625 
C 19.5 -0.40625 24.703125 -0.40625 27.59375 -0.40625 
L 27.59375 2 
C 20.703125 2 19.59375 2 19.59375 6.515625 
L 19.59375 33 
L 31.296875 33 
C 37 33 40.203125 30.6875 41.59375 29.390625 
C 45.59375 25.5 45.59375 22.796875 45.59375 16 
C 45.59375 9.296875 45.59375 5.890625 48.59375 2.5 
C 52.40625 -1.59375 57.5 -2 59.703125 -2 
C 67.09375 -2 68.203125 6.1875 68.203125 7.859375 
C 68.203125 8.4375 68.203125 9.140625 67.296875 9.140625 
C 66.5 9.140625 66.40625 8.546875 66.40625 8.15625 
C 65.90625 1.75 63 -0.40625 59.90625 -0.40625 
C 54.40625 -0.40625 53.796875 5.859375 53.203125 11.9375 
C 52.90625 14.03125 52.703125 15.515625 52.5 17.703125 
C 51.90625 22.6875 51.09375 29.953125 39.203125 33.53125 
z
M 31 34.59375 
L 19.59375 34.59375 
L 19.59375 61.140625 
C 19.59375 64.515625 19.796875 65 23.796875 65 
L 31.09375 65 
C 39.40625 65 49.09375 62.140625 49.09375 49.84375 
C 49.09375 37.0625 38.5 34.59375 31 34.59375 
z
" id="CMR17-82"/>
       <path d="M 38.09375 23 
C 38.5 23.40625 38.5 23.609375 38.5 24.625 
C 38.5 34.96875 33.09375 44 21.703125 44 
C 11.09375 44 2.703125 33.890625 2.703125 21.609375 
C 2.703125 8.609375 12.203125 -1 22.796875 -1 
C 34 -1 38.40625 9.484375 38.40625 11.5625 
C 38.40625 12.25 37.796875 12.25 37.59375 12.25 
C 36.90625 12.25 36.796875 12.046875 36.40625 10.875 
C 34.203125 4.140625 28.703125 0.796875 23.5 0.796875 
C 19.203125 0.796875 14.90625 3.171875 12.203125 7.5 
C 9.09375 12.546875 9.09375 18.375 9.09375 23 
z
M 9.203125 24.5 
C 9.90625 39.140625 17.59375 42.40625 21.59375 42.40625 
C 28.40625 42.40625 33 35.890625 33.09375 24.5 
z
" id="CMR17-101"/>
       <path d="M 36 25.828125 
C 36 32.375 36 35.84375 31.796875 39.734375 
C 28.09375 43 23.796875 44 20.40625 44 
C 12.5 44 6.796875 37.609375 6.796875 30.796875 
C 6.796875 27 9.796875 27 10.40625 27 
C 11.703125 27 14 27.78125 14 30.53125 
C 14 33 12.09375 34.078125 10.40625 34.078125 
C 10 34.078125 9.5 33.96875 9.203125 33.875 
C 11.296875 40.5 16.703125 42.40625 20.203125 42.40625 
C 25.203125 42.40625 30.703125 37.953125 30.703125 29.453125 
L 30.703125 25 
C 24.796875 25 17.703125 24.203125 12.09375 21.203125 
C 5.796875 17.703125 4 12.703125 4 8.90625 
C 4 1.203125 13 -1 18.296875 -1 
C 23.796875 -1 28.90625 2.171875 31.09375 7.984375 
C 31.296875 3.640625 34.09375 -0.28125 38.5 -0.28125 
C 40.59375 -0.28125 45.90625 1.09375 45.90625 8.859375 
L 45.90625 14.375 
L 44.09375 14.375 
L 44.09375 8.78125 
C 44.09375 2.78125 41.40625 2 40.09375 2 
C 36 2 36 7.15625 36 11.53125 
z
M 30.703125 13.59375 
C 30.703125 4.953125 24.5 0.59375 19 0.59375 
C 14 0.59375 10.09375 4.296875 10.09375 8.90625 
C 10.09375 11.890625 11.40625 17.1875 17.203125 20.390625 
C 22 23.09375 27.5 23.5 30.703125 23.5 
z
" id="CMR17-97"/>
       <path d="M 15.296875 68.6875 
L 3.40625 67.59375 
L 3.40625 65 
C 9.296875 65 10.203125 64.40625 10.203125 59.640625 
L 10.203125 6.65625 
C 10.203125 2.875 9.796875 2.390625 3.40625 2.390625 
L 3.40625 -0.203125 
C 5.796875 0 10.203125 0 12.703125 0 
C 15.296875 0 19.703125 0 22.09375 -0.203125 
L 22.09375 2.390625 
C 15.703125 2.390625 15.296875 2.78125 15.296875 6.65625 
z
" id="CMR17-108"/>
      </defs>
      <use transform="scale(0.996264)" xlink:href="#CMR17-82"/>
      <use transform="translate(67.791102 0)scale(0.996264)" xlink:href="#CMR17-101"/>
      <use transform="translate(108.276762 0)scale(0.996264)" xlink:href="#CMR17-97"/>
      <use transform="translate(153.96724 0)scale(0.996264)" xlink:href="#CMR17-108"/>
     </g>
    </g>
   </g>
   <g id="LineCollection_1">
    <path clip-path="url(#p5b04b4a588)" d="M 115.880322 73.225657 
L 115.880322 72.900917 
" style="fill:none;stroke:#ff0000;stroke-width:2;"/>
    <path clip-path="url(#p5b04b4a588)" d="M 123.16009 190.403431 
L 123.16009 190.310817 
" style="fill:none;stroke:#ff0000;stroke-width:2;"/>
    <path clip-path="url(#p5b04b4a588)" d="M 130.439858 223.012443 
L 130.439858 222.928651 
" style="fill:none;stroke:#ff0000;stroke-width:2;"/>
    <path clip-path="url(#p5b04b4a588)" d="M 137.719626 236.741616 
L 137.719626 236.657645 
" style="fill:none;stroke:#ff0000;stroke-width:2;"/>
    <path clip-path="url(#p5b04b4a588)" d="M 144.999394 243.441581 
L 144.999394 243.362949 
" style="fill:none;stroke:#ff0000;stroke-width:2;"/>
    <path clip-path="url(#p5b04b4a588)" d="M 152.279162 247.024088 
L 152.279162 246.949518 
" style="fill:none;stroke:#ff0000;stroke-width:2;"/>
    <path clip-path="url(#p5b04b4a588)" d="M 159.55893 249.083053 
L 159.55893 249.008544 
" style="fill:none;stroke:#ff0000;stroke-width:2;"/>
    <path clip-path="url(#p5b04b4a588)" d="M 166.838699 250.322994 
L 166.838699 250.269114 
" style="fill:none;stroke:#ff0000;stroke-width:2;"/>
    <path clip-path="url(#p5b04b4a588)" d="M 174.118467 251.128724 
L 174.118467 251.078431 
" style="fill:none;stroke:#ff0000;stroke-width:2;"/>
    <path clip-path="url(#p5b04b4a588)" d="M 181.398235 251.656567 
L 181.398235 251.616416 
" style="fill:none;stroke:#ff0000;stroke-width:2;"/>
    <path clip-path="url(#p5b04b4a588)" d="M 188.678003 252.021873 
L 188.678003 251.987895 
" style="fill:none;stroke:#ff0000;stroke-width:2;"/>
    <path clip-path="url(#p5b04b4a588)" d="M 195.957771 252.275653 
L 195.957771 252.249653 
" style="fill:none;stroke:#ff0000;stroke-width:2;"/>
    <path clip-path="url(#p5b04b4a588)" d="M 203.237539 252.446361 
L 203.237539 252.426011 
" style="fill:none;stroke:#ff0000;stroke-width:2;"/>
    <path clip-path="url(#p5b04b4a588)" d="M 210.517308 252.563961 
L 210.517308 252.546797 
" style="fill:none;stroke:#ff0000;stroke-width:2;"/>
    <path clip-path="url(#p5b04b4a588)" d="M 217.797076 252.638019 
L 217.797076 252.624429 
" style="fill:none;stroke:#ff0000;stroke-width:2;"/>
    <path clip-path="url(#p5b04b4a588)" d="M 225.076844 252.680742 
L 225.076844 252.667618 
" style="fill:none;stroke:#ff0000;stroke-width:2;"/>
    <path clip-path="url(#p5b04b4a588)" d="M 232.356612 252.694735 
L 232.356612 252.683051 
" style="fill:none;stroke:#ff0000;stroke-width:2;"/>
    <path clip-path="url(#p5b04b4a588)" d="M 239.63638 252.681685 
L 239.63638 252.670495 
" style="fill:none;stroke:#ff0000;stroke-width:2;"/>
    <path clip-path="url(#p5b04b4a588)" d="M 246.916148 252.638011 
L 246.916148 252.625579 
" style="fill:none;stroke:#ff0000;stroke-width:2;"/>
    <path clip-path="url(#p5b04b4a588)" d="M 254.195917 252.561621 
L 254.195917 252.546347 
" style="fill:none;stroke:#ff0000;stroke-width:2;"/>
    <path clip-path="url(#p5b04b4a588)" d="M 261.475685 252.440554 
L 261.475685 252.42345 
" style="fill:none;stroke:#ff0000;stroke-width:2;"/>
    <path clip-path="url(#p5b04b4a588)" d="M 268.755453 252.259316 
L 268.755453 252.237415 
" style="fill:none;stroke:#ff0000;stroke-width:2;"/>
    <path clip-path="url(#p5b04b4a588)" d="M 276.035221 251.998593 
L 276.035221 251.972249 
" style="fill:none;stroke:#ff0000;stroke-width:2;"/>
    <path clip-path="url(#p5b04b4a588)" d="M 283.314989 251.622707 
L 283.314989 251.590683 
" style="fill:none;stroke:#ff0000;stroke-width:2;"/>
    <path clip-path="url(#p5b04b4a588)" d="M 290.594757 251.077899 
L 290.594757 251.031958 
" style="fill:none;stroke:#ff0000;stroke-width:2;"/>
    <path clip-path="url(#p5b04b4a588)" d="M 297.874525 250.264406 
L 297.874525 250.21136 
" style="fill:none;stroke:#ff0000;stroke-width:2;"/>
    <path clip-path="url(#p5b04b4a588)" d="M 305.154294 249.003613 
L 305.154294 248.938402 
" style="fill:none;stroke:#ff0000;stroke-width:2;"/>
    <path clip-path="url(#p5b04b4a588)" d="M 312.434062 246.948243 
L 312.434062 246.878852 
" style="fill:none;stroke:#ff0000;stroke-width:2;"/>
    <path clip-path="url(#p5b04b4a588)" d="M 319.71383 243.376503 
L 319.71383 243.297861 
" style="fill:none;stroke:#ff0000;stroke-width:2;"/>
    <path clip-path="url(#p5b04b4a588)" d="M 326.993598 236.728942 
L 326.993598 236.649624 
" style="fill:none;stroke:#ff0000;stroke-width:2;"/>
    <path clip-path="url(#p5b04b4a588)" d="M 334.273366 223.024647 
L 334.273366 222.945253 
" style="fill:none;stroke:#ff0000;stroke-width:2;"/>
    <path clip-path="url(#p5b04b4a588)" d="M 341.553134 190.474255 
L 341.553134 190.365712 
" style="fill:none;stroke:#ff0000;stroke-width:2;"/>
   </g>
   <g id="line2d_10">
    <path clip-path="url(#p5b04b4a588)" d="M 115.880322 73.063287 
L 123.16009 190.357124 
L 130.439858 222.970547 
L 137.719626 236.69963 
L 144.999394 243.402265 
L 152.279162 246.986803 
L 159.55893 249.045799 
L 166.838699 250.296054 
L 174.118467 251.103577 
L 181.398235 251.636491 
L 188.678003 252.004884 
L 195.957771 252.262653 
L 203.237539 252.436186 
L 210.517308 252.555379 
L 217.797076 252.631224 
L 225.076844 252.67418 
L 232.356612 252.688893 
L 239.63638 252.67609 
L 246.916148 252.631795 
L 254.195917 252.553984 
L 261.475685 252.432002 
L 268.755453 252.248365 
L 276.035221 251.985421 
L 283.314989 251.606695 
L 290.594757 251.054929 
L 297.874525 250.237883 
L 305.154294 248.971008 
L 312.434062 246.913548 
L 319.71383 243.337182 
L 326.993598 236.689283 
L 334.273366 222.98495 
L 341.553134 190.419983 
" style="fill:none;stroke:#000000;stroke-linecap:square;stroke-width:2;"/>
   </g>
   <g id="patch_3">
    <path d="M 104.596681 261.684426 
L 104.596681 63.911226 
" style="fill:none;stroke:#000000;stroke-linecap:square;stroke-linejoin:miter;stroke-width:0.8;"/>
   </g>
   <g id="patch_4">
    <path d="M 352.836775 261.684426 
L 352.836775 63.911226 
" style="fill:none;stroke:#000000;stroke-linecap:square;stroke-linejoin:miter;stroke-width:0.8;"/>
   </g>
   <g id="patch_5">
    <path d="M 104.596681 261.684426 
L 352.836775 261.684426 
" style="fill:none;stroke:#000000;stroke-linecap:square;stroke-linejoin:miter;stroke-width:0.8;"/>
   </g>
   <g id="patch_6">
    <path d="M 104.596681 63.911226 
L 352.836775 63.911226 
" style="fill:none;stroke:#000000;stroke-linecap:square;stroke-linejoin:miter;stroke-width:0.8;"/>
   </g>
   <g id="text_11">
    <!-- $C(t)$ -->
    <g transform="translate(206.788575 57.911226)scale(0.24 -0.24)">
     <defs>
      <path d="M 74.703125 69.109375 
C 74.703125 70 74 70 73.796875 70 
C 73.59375 70 73.203125 70 72.40625 69 
L 65.5 60.65625 
C 62 66.625 56.5 70 49 70 
C 27.40625 70 5 48.25 5 24.921875 
C 5 8.328125 16.703125 -2 31.296875 -2 
C 39.296875 -2 46.296875 1.375 52.09375 6.25 
C 60.796875 13.484375 63.40625 23.140625 63.40625 23.921875 
C 63.40625 24.8125 62.59375 24.8125 62.296875 24.8125 
C 61.40625 24.8125 61.296875 24.21875 61.09375 23.8125 
C 56.5 8.34375 43 0.890625 33 0.890625 
C 22.40625 0.890625 13.203125 7.640625 13.203125 21.734375 
C 13.203125 24.921875 14.203125 42.1875 25.5 55.1875 
C 31 61.546875 40.40625 67.109375 49.90625 67.109375 
C 60.90625 67.109375 65.796875 58.078125 65.796875 47.9375 
C 65.796875 45.359375 65.5 43.1875 65.5 42.78125 
C 65.5 41.890625 66.5 41.890625 66.796875 41.890625 
C 67.90625 41.890625 68 41.984375 68.40625 43.765625 
z
" id="CMMI12-67"/>
      <path d="M 30.59375 -24.390625 
C 30.59375 -24.296875 30.59375 -24.09375 30.296875 -23.796875 
C 25.703125 -19.125 13.40625 -6.359375 13.40625 24.703125 
C 13.40625 55.765625 25.5 68.421875 30.40625 73.390625 
C 30.40625 73.5 30.59375 73.703125 30.59375 74 
C 30.59375 74.296875 30.296875 74.5 29.90625 74.5 
C 28.796875 74.5 20.296875 67.125 15.40625 56.15625 
C 10.40625 45.109375 9 34.359375 9 24.8125 
C 9 17.625 9.703125 5.484375 15.703125 -7.359375 
C 20.5 -17.734375 28.703125 -25 29.90625 -25 
C 30.40625 -25 30.59375 -24.796875 30.59375 -24.390625 
z
" id="CMR17-40"/>
      <path d="M 20.09375 40.09375 
L 29.296875 40.09375 
C 31.203125 40.09375 32.203125 40.09375 32.203125 41.890625 
C 32.203125 43 31.59375 43 29.59375 43 
L 20.796875 43 
L 24.5 57.6875 
C 24.90625 59.078125 24.90625 59.28125 24.90625 60 
C 24.90625 61.609375 23.59375 62.5 22.296875 62.5 
C 21.5 62.5 19.203125 62.203125 18.40625 58.984375 
L 14.5 43 
L 5.09375 43 
C 3.09375 43 2.203125 43 2.203125 41.09375 
C 2.203125 40.09375 2.90625 40.09375 4.796875 40.09375 
L 13.703125 40.09375 
L 7.09375 13.765625 
C 6.296875 10.28125 6 9.28125 6 7.984375 
C 6 3.296875 9.296875 -1 14.90625 -1 
C 25 -1 30.40625 13.5625 30.40625 14.25 
C 30.40625 14.859375 30 15.15625 29.40625 15.15625 
C 29.203125 15.15625 28.796875 15.15625 28.59375 14.75 
C 28.5 14.65625 28.40625 14.546875 27.703125 12.953125 
C 25.59375 7.984375 21 1 15.203125 1 
C 12.203125 1 12 3.5 12 5.6875 
C 12 5.78125 12 7.6875 12.296875 8.875 
z
" id="CMMI12-116"/>
      <path d="M 26.296875 24.703125 
C 26.296875 31.875 25.59375 44.015625 19.59375 56.859375 
C 14.796875 67.234375 6.59375 74.5 5.40625 74.5 
C 5.09375 74.5 4.703125 74.390625 4.703125 73.890625 
C 4.703125 73.703125 4.796875 73.59375 4.90625 73.390625 
C 9.703125 68.40625 21.90625 55.75 21.90625 24.75 
C 21.90625 -6.359375 9.796875 -19.015625 4.90625 -24.015625 
C 4.796875 -24.203125 4.703125 -24.3125 4.703125 -24.5 
C 4.703125 -25 5.09375 -25 5.40625 -25 
C 6.5 -25 15 -17.625 19.90625 -6.65625 
C 24.90625 4.390625 26.296875 15.140625 26.296875 24.703125 
z
" id="CMR17-41"/>
     </defs>
     <use transform="scale(0.996264)" xlink:href="#CMMI12-67"/>
     <use transform="translate(76.946847 0)scale(0.996264)" xlink:href="#CMR17-40"/>
     <use transform="translate(112.227614 0)scale(0.996264)" xlink:href="#CMMI12-116"/>
     <use transform="translate(147.453945 0)scale(0.996264)" xlink:href="#CMR17-41"/>
    </g>
   </g>
  </g>
  <g id="axes_2">
   <g id="patch_7">
    <path d="M 412.178293 261.684426 
L 660.418388 261.684426 
L 660.418388 63.911226 
L 412.178293 63.911226 
z
" style="fill:#ffffff;"/>
   </g>
   <g id="matplotlib.axis_3">
    <g id="xtick_5">
     <g id="line2d_11">
      <g>
       <use style="stroke:#000000;stroke-width:0.8;" x="423.461934" xlink:href="#md915ebee61" y="261.684426"/>
      </g>
     </g>
     <g id="text_12">
      <!-- $\mathdefault{0}$ -->
      <g transform="translate(419.559941 279.754014)scale(0.16 -0.16)">
       <use transform="scale(0.996264)" xlink:href="#CMR17-48"/>
      </g>
     </g>
    </g>
    <g id="xtick_6">
     <g id="line2d_12">
      <g>
       <use style="stroke:#000000;stroke-width:0.8;" x="493.984688" xlink:href="#md915ebee61" y="261.684426"/>
      </g>
     </g>
     <g id="text_13">
      <!-- $\mathdefault{5}$ -->
      <g transform="translate(490.082695 279.754014)scale(0.16 -0.16)">
       <defs>
        <path d="M 11.40625 57.6875 
C 12.40625 57.28125 16.5 56 20.703125 56 
C 30 56 35.09375 61.109375 38 64.0625 
C 38 64.953125 38 65.5 37.40625 65.5 
C 37.296875 65.5 37.09375 65.5 36.296875 65.046875 
C 32.796875 63.40625 28.703125 62.078125 23.703125 62.078125 
C 20.703125 62.078125 16.203125 62.484375 11.296875 64.671875 
C 10.203125 65.171875 10 65.171875 9.90625 65.171875 
C 9.40625 65.171875 9.296875 65.0625 9.296875 63.078125 
L 9.296875 34.421875 
C 9.296875 32.640625 9.296875 32.140625 10.296875 32.140625 
C 10.796875 32.140625 11 32.34375 11.5 33.03125 
C 14.703125 37.515625 19.09375 39.40625 24.09375 39.40625 
C 27.59375 39.40625 35.09375 37.21875 35.09375 20.140625 
C 35.09375 16.953125 35.09375 11.171875 32.09375 6.578125 
C 29.59375 2.484375 25.703125 0.390625 21.40625 0.390625 
C 14.796875 0.390625 8.09375 5 6.296875 12.71875 
C 6.703125 12.609375 7.5 12.421875 7.90625 12.421875 
C 9.203125 12.421875 11.703125 13.125 11.703125 16.21875 
C 11.703125 18.90625 9.796875 20 7.90625 20 
C 5.59375 20 4.09375 18.59375 4.09375 15.796875 
C 4.09375 7.09375 11 -2 21.59375 -2 
C 31.90625 -2 41.703125 6.875 41.703125 19.75 
C 41.703125 31.71875 33.90625 41 24.203125 41 
C 19.09375 41 14.796875 39.109375 11.40625 35.53125 
z
" id="CMR17-53"/>
       </defs>
       <use transform="scale(0.996264)" xlink:href="#CMR17-53"/>
      </g>
     </g>
    </g>
    <g id="xtick_7">
     <g id="line2d_13">
      <g>
       <use style="stroke:#000000;stroke-width:0.8;" x="564.507442" xlink:href="#md915ebee61" y="261.684426"/>
      </g>
     </g>
     <g id="text_14">
      <!-- $\mathdefault{10}$ -->
      <g transform="translate(556.703455 279.754014)scale(0.16 -0.16)">
       <use transform="scale(0.996264)" xlink:href="#CMR17-49"/>
       <use transform="translate(45.690477 0)scale(0.996264)" xlink:href="#CMR17-48"/>
      </g>
     </g>
    </g>
    <g id="xtick_8">
     <g id="line2d_14">
      <g>
       <use style="stroke:#000000;stroke-width:0.8;" x="635.030196" xlink:href="#md915ebee61" y="261.684426"/>
      </g>
     </g>
     <g id="text_15">
      <!-- $\mathdefault{15}$ -->
      <g transform="translate(627.226209 279.754014)scale(0.16 -0.16)">
       <use transform="scale(0.996264)" xlink:href="#CMR17-49"/>
       <use transform="translate(45.690477 0)scale(0.996264)" xlink:href="#CMR17-53"/>
      </g>
     </g>
    </g>
   </g>
   <g id="matplotlib.axis_4">
    <g id="ytick_6">
     <g id="line2d_15">
      <g>
       <use style="stroke:#000000;stroke-width:0.8;" x="412.178293" xlink:href="#m2299a3942f" y="252.918917"/>
      </g>
     </g>
     <g id="text_16">
      <!-- $\mathdefault{0}$ -->
      <g transform="translate(397.374306 258.453711)scale(0.16 -0.16)">
       <use transform="scale(0.996264)" xlink:href="#CMR17-48"/>
      </g>
     </g>
    </g>
    <g id="ytick_7">
     <g id="line2d_16">
      <g>
       <use style="stroke:#000000;stroke-width:0.8;" x="412.178293" xlink:href="#m2299a3942f" y="210.720947"/>
      </g>
     </g>
     <g id="text_17">
      <!-- $\mathdefault{100}$ -->
      <g transform="translate(381.766332 216.255741)scale(0.16 -0.16)">
       <use transform="scale(0.996264)" xlink:href="#CMR17-49"/>
       <use transform="translate(45.690477 0)scale(0.996264)" xlink:href="#CMR17-48"/>
       <use transform="translate(91.380954 0)scale(0.996264)" xlink:href="#CMR17-48"/>
      </g>
     </g>
    </g>
    <g id="ytick_8">
     <g id="line2d_17">
      <g>
       <use style="stroke:#000000;stroke-width:0.8;" x="412.178293" xlink:href="#m2299a3942f" y="168.522978"/>
      </g>
     </g>
     <g id="text_18">
      <!-- $\mathdefault{200}$ -->
      <g transform="translate(381.766332 174.057772)scale(0.16 -0.16)">
       <use transform="scale(0.996264)" xlink:href="#CMR17-50"/>
       <use transform="translate(45.690477 0)scale(0.996264)" xlink:href="#CMR17-48"/>
       <use transform="translate(91.380954 0)scale(0.996264)" xlink:href="#CMR17-48"/>
      </g>
     </g>
    </g>
    <g id="ytick_9">
     <g id="line2d_18">
      <g>
       <use style="stroke:#000000;stroke-width:0.8;" x="412.178293" xlink:href="#m2299a3942f" y="126.325008"/>
      </g>
     </g>
     <g id="text_19">
      <!-- $\mathdefault{300}$ -->
      <g transform="translate(381.766332 131.859802)scale(0.16 -0.16)">
       <use transform="scale(0.996264)" xlink:href="#CMR17-51"/>
       <use transform="translate(45.690477 0)scale(0.996264)" xlink:href="#CMR17-48"/>
       <use transform="translate(91.380954 0)scale(0.996264)" xlink:href="#CMR17-48"/>
      </g>
     </g>
    </g>
    <g id="ytick_10">
     <g id="line2d_19">
      <g>
       <use style="stroke:#000000;stroke-width:0.8;" x="412.178293" xlink:href="#m2299a3942f" y="84.127038"/>
      </g>
     </g>
     <g id="text_20">
      <!-- $\mathdefault{400}$ -->
      <g transform="translate(381.766332 89.661832)scale(0.16 -0.16)">
       <use transform="scale(0.996264)" xlink:href="#CMR17-52"/>
       <use transform="translate(45.690477 0)scale(0.996264)" xlink:href="#CMR17-48"/>
       <use transform="translate(91.380954 0)scale(0.996264)" xlink:href="#CMR17-48"/>
      </g>
     </g>
    </g>
   </g>
   <g id="LineCollection_2">
    <path clip-path="url(#p3865a5f6f6)" d="M 423.461934 73.225657 
L 423.461934 72.900917 
" style="fill:none;stroke:#ff0000;stroke-width:2;"/>
    <path clip-path="url(#p3865a5f6f6)" d="M 437.566485 190.426151 
L 437.566485 190.350956 
" style="fill:none;stroke:#ff0000;stroke-width:2;"/>
    <path clip-path="url(#p3865a5f6f6)" d="M 451.671036 223.006942 
L 451.671036 222.948555 
" style="fill:none;stroke:#ff0000;stroke-width:2;"/>
    <path clip-path="url(#p3865a5f6f6)" d="M 465.775586 236.723136 
L 465.775586 236.665777 
" style="fill:none;stroke:#ff0000;stroke-width:2;"/>
    <path clip-path="url(#p3865a5f6f6)" d="M 479.880137 243.398045 
L 479.880137 243.341402 
" style="fill:none;stroke:#ff0000;stroke-width:2;"/>
    <path clip-path="url(#p3865a5f6f6)" d="M 493.984688 246.974722 
L 493.984688 246.925628 
" style="fill:none;stroke:#ff0000;stroke-width:2;"/>
    <path clip-path="url(#p3865a5f6f6)" d="M 508.089239 249.033354 
L 508.089239 248.983452 
" style="fill:none;stroke:#ff0000;stroke-width:2;"/>
    <path clip-path="url(#p3865a5f6f6)" d="M 522.19379 250.285112 
L 522.19379 250.248825 
" style="fill:none;stroke:#ff0000;stroke-width:2;"/>
    <path clip-path="url(#p3865a5f6f6)" d="M 536.29834 251.095609 
L 536.29834 251.062898 
" style="fill:none;stroke:#ff0000;stroke-width:2;"/>
    <path clip-path="url(#p3865a5f6f6)" d="M 550.402891 251.634284 
L 550.402891 251.608903 
" style="fill:none;stroke:#ff0000;stroke-width:2;"/>
    <path clip-path="url(#p3865a5f6f6)" d="M 564.507442 252.005759 
L 564.507442 251.984545 
" style="fill:none;stroke:#ff0000;stroke-width:2;"/>
    <path clip-path="url(#p3865a5f6f6)" d="M 578.611993 252.264012 
L 578.611993 252.247006 
" style="fill:none;stroke:#ff0000;stroke-width:2;"/>
    <path clip-path="url(#p3865a5f6f6)" d="M 592.716544 252.440716 
L 592.716544 252.427472 
" style="fill:none;stroke:#ff0000;stroke-width:2;"/>
    <path clip-path="url(#p3865a5f6f6)" d="M 606.821094 252.560441 
L 606.821094 252.548922 
" style="fill:none;stroke:#ff0000;stroke-width:2;"/>
    <path clip-path="url(#p3865a5f6f6)" d="M 620.925645 252.636085 
L 620.925645 252.626934 
" style="fill:none;stroke:#ff0000;stroke-width:2;"/>
    <path clip-path="url(#p3865a5f6f6)" d="M 635.030196 252.679428 
L 635.030196 252.670843 
" style="fill:none;stroke:#ff0000;stroke-width:2;"/>
    <path clip-path="url(#p3865a5f6f6)" d="M 649.134747 252.694735 
L 649.134747 252.683051 
" style="fill:none;stroke:#ff0000;stroke-width:2;"/>
   </g>
   <g id="line2d_20">
    <path clip-path="url(#p3865a5f6f6)" d="M 423.461934 73.063287 
L 437.566485 190.388554 
L 451.671036 222.977749 
L 465.775586 236.694457 
L 479.880137 243.369724 
L 493.984688 246.950175 
L 508.089239 249.008403 
L 522.19379 250.266968 
L 536.29834 251.079253 
L 550.402891 251.621593 
L 564.507442 251.995152 
L 578.611993 252.255509 
L 592.716544 252.434094 
L 606.821094 252.554681 
L 620.925645 252.63151 
L 635.030196 252.675135 
L 649.134747 252.688893 
" style="fill:none;stroke:#000000;stroke-linecap:square;stroke-width:2;"/>
   </g>
   <g id="patch_8">
    <path d="M 412.178293 261.684426 
L 412.178293 63.911226 
" style="fill:none;stroke:#000000;stroke-linecap:square;stroke-linejoin:miter;stroke-width:0.8;"/>
   </g>
   <g id="patch_9">
    <path d="M 660.418388 261.684426 
L 660.418388 63.911226 
" style="fill:none;stroke:#000000;stroke-linecap:square;stroke-linejoin:miter;stroke-width:0.8;"/>
   </g>
   <g id="patch_10">
    <path d="M 412.178293 261.684426 
L 660.418388 261.684426 
" style="fill:none;stroke:#000000;stroke-linecap:square;stroke-linejoin:miter;stroke-width:0.8;"/>
   </g>
   <g id="patch_11">
    <path d="M 412.178293 63.911226 
L 660.418388 63.911226 
" style="fill:none;stroke:#000000;stroke-linecap:square;stroke-linejoin:miter;stroke-width:0.8;"/>
   </g>
   <g id="text_21">
    <!-- Folded $C(t)$ -->
    <g transform="translate(478.95933 57.911226)scale(0.24 -0.24)">
     <defs>
      <path d="M 54.40625 67.578125 
L 5.09375 67.578125 
L 5.09375 65 
C 12 65 13.09375 65 13.09375 60.53125 
L 13.09375 6.96875 
C 13.09375 2.5 12 2.5 5.09375 2.5 
L 5.09375 0 
C 8 0 13.59375 0 16.703125 0 
C 20.796875 0 25.59375 0 29.703125 0 
L 29.703125 2.5 
L 27.5 2.5 
C 19.90625 2.5 19.703125 3.484375 19.703125 7.0625 
L 19.703125 32.421875 
L 28.703125 32.421875 
C 38 32.421875 38.90625 29.140625 38.90625 20.8125 
L 40.703125 20.8125 
L 40.703125 46.671875 
L 38.90625 46.671875 
C 38.90625 38.28125 38 35 28.703125 35 
L 19.703125 35 
L 19.703125 61.109375 
C 19.703125 64.5 19.90625 65 23.90625 65 
L 36.796875 65 
C 51.90625 65 53.59375 58.828125 55 45.5625 
L 56.796875 45.5625 
z
" id="CMR17-70"/>
      <path d="M 43.09375 21.1875 
C 43.09375 34 33.796875 44 22.90625 44 
C 12 44 2.703125 34 2.703125 21.1875 
C 2.703125 8.609375 12 -1 22.90625 -1 
C 33.796875 -1 43.09375 8.609375 43.09375 21.1875 
z
M 22.90625 0.796875 
C 18.203125 0.796875 14.203125 3.59375 11.90625 7.5 
C 9.40625 11.984375 9.09375 17.59375 9.09375 22 
C 9.09375 26.203125 9.296875 31.40625 11.90625 35.90625 
C 13.90625 39.203125 17.796875 42.40625 22.90625 42.40625 
C 27.40625 42.40625 31.203125 39.90625 33.59375 36.40625 
C 36.703125 31.703125 36.703125 25.109375 36.703125 22 
C 36.703125 18.09375 36.5 12.109375 33.796875 7.296875 
C 31 2.703125 26.703125 0.796875 22.90625 0.796875 
z
" id="CMR17-111"/>
      <path d="M 29.203125 67.59375 
L 29.203125 65 
C 35.09375 65 36 64.40625 36 59.6875 
L 36 36.640625 
C 35.59375 37.140625 31.5 43.59375 23.40625 43.59375 
C 13.203125 43.59375 3.296875 34.5 3.296875 21.3125 
C 3.296875 8.203125 12.59375 -1 22.40625 -1 
C 30.90625 -1 35.296875 5.265625 35.796875 5.9375 
L 35.796875 -0.984375 
L 47.90625 -0.984375 
L 47.90625 2 
C 42 2 41.09375 2.59375 41.09375 7.390625 
L 41.09375 68.6875 
z
M 35.796875 11.796875 
C 35.796875 8.796875 34 6.09375 31.703125 4.09375 
C 28.296875 1.09375 24.90625 0.59375 23 0.59375 
C 20.09375 0.59375 9.703125 2.09375 9.703125 21.1875 
C 9.703125 40.8125 21.296875 42 23.90625 42 
C 28.5 42 32.203125 39.40625 34.5 35.796875 
C 35.796875 33.703125 35.796875 33.40625 35.796875 31.609375 
z
" id="CMR17-100"/>
     </defs>
     <use transform="scale(0.996264)" xlink:href="#CMR17-70"/>
     <use transform="translate(52.176591 0)scale(0.996264)" xlink:href="#CMR17-111"/>
     <use transform="translate(97.867068 0)scale(0.996264)" xlink:href="#CMR17-108"/>
     <use transform="translate(122.738127 0)scale(0.996264)" xlink:href="#CMR17-100"/>
     <use transform="translate(173.633497 0)scale(0.996264)" xlink:href="#CMR17-101"/>
     <use transform="translate(214.119157 0)scale(0.996264)" xlink:href="#CMR17-100"/>
     <use transform="translate(295.090493 0)scale(0.996264)" xlink:href="#CMMI12-67"/>
     <use transform="translate(372.03734 0)scale(0.996264)" xlink:href="#CMR17-40"/>
     <use transform="translate(407.318108 0)scale(0.996264)" xlink:href="#CMMI12-116"/>
     <use transform="translate(442.544438 0)scale(0.996264)" xlink:href="#CMR17-41"/>
    </g>
   </g>
  </g>
  <g id="axes_3">
   <g id="patch_12">
    <path d="M 719.759906 261.684426 
L 968 261.684426 
L 968 63.911226 
L 719.759906 63.911226 
z
" style="fill:#ffffff;"/>
   </g>
   <g id="matplotlib.axis_5">
    <g id="xtick_9">
     <g id="line2d_21">
      <g>
       <use style="stroke:#000000;stroke-width:0.8;" x="731.043547" xlink:href="#md915ebee61" y="261.684426"/>
      </g>
     </g>
     <g id="text_22">
      <!-- $\mathdefault{0}$ -->
      <g transform="translate(727.141553 279.754014)scale(0.16 -0.16)">
       <use transform="scale(0.996264)" xlink:href="#CMR17-48"/>
      </g>
     </g>
    </g>
    <g id="xtick_10">
     <g id="line2d_22">
      <g>
       <use style="stroke:#000000;stroke-width:0.8;" x="801.566301" xlink:href="#md915ebee61" y="261.684426"/>
      </g>
     </g>
     <g id="text_23">
      <!-- $\mathdefault{5}$ -->
      <g transform="translate(797.664307 279.754014)scale(0.16 -0.16)">
       <use transform="scale(0.996264)" xlink:href="#CMR17-53"/>
      </g>
     </g>
    </g>
    <g id="xtick_11">
     <g id="line2d_23">
      <g>
       <use style="stroke:#000000;stroke-width:0.8;" x="872.089055" xlink:href="#md915ebee61" y="261.684426"/>
      </g>
     </g>
     <g id="text_24">
      <!-- $\mathdefault{10}$ -->
      <g transform="translate(864.285068 279.754014)scale(0.16 -0.16)">
       <use transform="scale(0.996264)" xlink:href="#CMR17-49"/>
       <use transform="translate(45.690477 0)scale(0.996264)" xlink:href="#CMR17-48"/>
      </g>
     </g>
    </g>
    <g id="xtick_12">
     <g id="line2d_24">
      <g>
       <use style="stroke:#000000;stroke-width:0.8;" x="942.611809" xlink:href="#md915ebee61" y="261.684426"/>
      </g>
     </g>
     <g id="text_25">
      <!-- $\mathdefault{15}$ -->
      <g transform="translate(934.807822 279.754014)scale(0.16 -0.16)">
       <use transform="scale(0.996264)" xlink:href="#CMR17-49"/>
       <use transform="translate(45.690477 0)scale(0.996264)" xlink:href="#CMR17-53"/>
      </g>
     </g>
    </g>
   </g>
   <g id="matplotlib.axis_6">
    <g id="ytick_11">
     <g id="line2d_25">
      <g>
       <use style="stroke:#000000;stroke-width:0.8;" x="719.759906" xlink:href="#m2299a3942f" y="223.513804"/>
      </g>
     </g>
     <g id="text_26">
      <!-- $\mathdefault{−0.1}$ -->
      <g transform="translate(680.418388 229.048598)scale(0.16 -0.16)">
       <defs>
        <path d="M 65.90625 23 
C 67.59375 23 69.40625 23 69.40625 25 
C 69.40625 27 67.59375 27 65.90625 27 
L 11.796875 27 
C 10.09375 27 8.296875 27 8.296875 25 
C 8.296875 23 10.09375 23 11.796875 23 
z
" id="CMSY10-0"/>
        <path d="M 18.40625 4.796875 
C 18.40625 7.6875 16 9.671875 13.59375 9.671875 
C 10.703125 9.671875 8.703125 7.28125 8.703125 4.890625 
C 8.703125 2 11.09375 0 13.5 0 
C 16.40625 0 18.40625 2.390625 18.40625 4.796875 
z
" id="CMMI12-58"/>
       </defs>
       <use transform="scale(0.996264)" xlink:href="#CMSY10-0"/>
       <use transform="translate(77.487468 0)scale(0.996264)" xlink:href="#CMR17-48"/>
       <use transform="translate(123.177945 0)scale(0.996264)" xlink:href="#CMMI12-58"/>
       <use transform="translate(150.275122 0)scale(0.996264)" xlink:href="#CMR17-49"/>
      </g>
     </g>
    </g>
    <g id="ytick_12">
     <g id="line2d_26">
      <g>
       <use style="stroke:#000000;stroke-width:0.8;" x="719.759906" xlink:href="#m2299a3942f" y="164.261189"/>
      </g>
     </g>
     <g id="text_27">
      <!-- $\mathdefault{0.0}$ -->
      <g transform="translate(692.816384 169.795983)scale(0.16 -0.16)">
       <use transform="scale(0.996264)" xlink:href="#CMR17-48"/>
       <use transform="translate(45.690477 0)scale(0.996264)" xlink:href="#CMMI12-58"/>
       <use transform="translate(72.787654 0)scale(0.996264)" xlink:href="#CMR17-48"/>
      </g>
     </g>
    </g>
    <g id="ytick_13">
     <g id="line2d_27">
      <g>
       <use style="stroke:#000000;stroke-width:0.8;" x="719.759906" xlink:href="#m2299a3942f" y="105.008574"/>
      </g>
     </g>
     <g id="text_28">
      <!-- $\mathdefault{0.1}$ -->
      <g transform="translate(692.816384 110.543368)scale(0.16 -0.16)">
       <use transform="scale(0.996264)" xlink:href="#CMR17-48"/>
       <use transform="translate(45.690477 0)scale(0.996264)" xlink:href="#CMMI12-58"/>
       <use transform="translate(72.787654 0)scale(0.996264)" xlink:href="#CMR17-49"/>
      </g>
     </g>
    </g>
   </g>
   <g id="LineCollection_3">
    <path clip-path="url(#p8b2fd45a7a)" d="M 731.043547 164.261189 
L 731.043547 164.261189 
" style="fill:none;stroke:#ff0000;stroke-width:2;"/>
    <path clip-path="url(#p8b2fd45a7a)" d="M 745.148097 167.35758 
L 745.148097 72.900917 
" style="fill:none;stroke:#ff0000;stroke-width:2;"/>
    <path clip-path="url(#p8b2fd45a7a)" d="M 759.252648 194.193338 
L 759.252648 114.105475 
" style="fill:none;stroke:#ff0000;stroke-width:2;"/>
    <path clip-path="url(#p8b2fd45a7a)" d="M 773.357199 212.350056 
L 773.357199 130.701828 
" style="fill:none;stroke:#ff0000;stroke-width:2;"/>
    <path clip-path="url(#p8b2fd45a7a)" d="M 787.46175 248.249899 
L 787.46175 171.659483 
" style="fill:none;stroke:#ff0000;stroke-width:2;"/>
    <path clip-path="url(#p8b2fd45a7a)" d="M 801.566301 252.694735 
L 801.566301 178.690012 
" style="fill:none;stroke:#ff0000;stroke-width:2;"/>
    <path clip-path="url(#p8b2fd45a7a)" d="M 815.670851 251.249729 
L 815.670851 182.290534 
" style="fill:none;stroke:#ff0000;stroke-width:2;"/>
    <path clip-path="url(#p8b2fd45a7a)" d="M 829.775402 232.669069 
L 829.775402 177.535021 
" style="fill:none;stroke:#ff0000;stroke-width:2;"/>
    <path clip-path="url(#p8b2fd45a7a)" d="M 843.879953 223.238249 
L 843.879953 173.594635 
" style="fill:none;stroke:#ff0000;stroke-width:2;"/>
    <path clip-path="url(#p8b2fd45a7a)" d="M 857.984504 203.415545 
L 857.984504 166.944931 
" style="fill:none;stroke:#ff0000;stroke-width:2;"/>
    <path clip-path="url(#p8b2fd45a7a)" d="M 872.089055 193.214364 
L 872.089055 162.636395 
" style="fill:none;stroke:#ff0000;stroke-width:2;"/>
    <path clip-path="url(#p8b2fd45a7a)" d="M 886.193605 186.220155 
L 886.193605 162.364154 
" style="fill:none;stroke:#ff0000;stroke-width:2;"/>
    <path clip-path="url(#p8b2fd45a7a)" d="M 900.298156 176.563603 
L 900.298156 157.834227 
" style="fill:none;stroke:#ff0000;stroke-width:2;"/>
    <path clip-path="url(#p8b2fd45a7a)" d="M 914.402707 173.283916 
L 914.402707 157.197472 
" style="fill:none;stroke:#ff0000;stroke-width:2;"/>
    <path clip-path="url(#p8b2fd45a7a)" d="M 928.507258 170.366836 
L 928.507258 157.353786 
" style="fill:none;stroke:#ff0000;stroke-width:2;"/>
    <path clip-path="url(#p8b2fd45a7a)" d="M 942.611809 169.001556 
L 942.611809 156.838301 
" style="fill:none;stroke:#ff0000;stroke-width:2;"/>
    <path clip-path="url(#p8b2fd45a7a)" d="M 956.716359 164.261189 
L 956.716359 164.261189 
" style="fill:none;stroke:#ff0000;stroke-width:2;"/>
   </g>
   <g id="line2d_28">
    <path clip-path="url(#p8b2fd45a7a)" d="M 731.043547 164.261189 
L 745.148097 120.129249 
L 759.252648 154.149407 
L 773.357199 171.525942 
L 787.46175 209.954691 
L 801.566301 215.692374 
L 815.670851 216.770132 
L 829.775402 205.102045 
L 843.879953 198.416442 
L 857.984504 185.180238 
L 872.089055 177.925379 
L 886.193605 174.292154 
L 900.298156 167.198915 
L 914.402707 165.240694 
L 928.507258 163.860311 
L 942.611809 162.919929 
L 956.716359 164.261189 
" style="fill:none;stroke:#000000;stroke-linecap:square;stroke-width:2;"/>
   </g>
   <g id="patch_13">
    <path d="M 719.759906 261.684426 
L 719.759906 63.911226 
" style="fill:none;stroke:#000000;stroke-linecap:square;stroke-linejoin:miter;stroke-width:0.8;"/>
   </g>
   <g id="patch_14">
    <path d="M 968 261.684426 
L 968 63.911226 
" style="fill:none;stroke:#000000;stroke-linecap:square;stroke-linejoin:miter;stroke-width:0.8;"/>
   </g>
   <g id="patch_15">
    <path d="M 719.759906 261.684426 
L 968 261.684426 
" style="fill:none;stroke:#000000;stroke-linecap:square;stroke-linejoin:miter;stroke-width:0.8;"/>
   </g>
   <g id="patch_16">
    <path d="M 719.759906 63.911226 
L 968 63.911226 
" style="fill:none;stroke:#000000;stroke-linecap:square;stroke-linejoin:miter;stroke-width:0.8;"/>
   </g>
   <g id="text_29">
    <!-- $C(t)$ - Folded $C(t)$ -->
    <g transform="translate(753.785442 57.911226)scale(0.24 -0.24)">
     <defs>
      <path d="M 25.5 19 
L 25.5 23.375 
L 0.40625 23.375 
L 0.40625 19 
z
" id="CMR17-45"/>
     </defs>
     <use transform="scale(0.996264)" xlink:href="#CMMI12-67"/>
     <use transform="translate(76.946847 0)scale(0.996264)" xlink:href="#CMR17-40"/>
     <use transform="translate(112.227614 0)scale(0.996264)" xlink:href="#CMMI12-116"/>
     <use transform="translate(147.453945 0)scale(0.996264)" xlink:href="#CMR17-41"/>
     <use transform="translate(212.810679 0)scale(0.996264)" xlink:href="#CMR17-45"/>
     <use transform="translate(272.962612 0)scale(0.996264)" xlink:href="#CMR17-70"/>
     <use transform="translate(325.139203 0)scale(0.996264)" xlink:href="#CMR17-111"/>
     <use transform="translate(370.82968 0)scale(0.996264)" xlink:href="#CMR17-108"/>
     <use transform="translate(395.700738 0)scale(0.996264)" xlink:href="#CMR17-100"/>
     <use transform="translate(446.596108 0)scale(0.996264)" xlink:href="#CMR17-101"/>
     <use transform="translate(487.081769 0)scale(0.996264)" xlink:href="#CMR17-100"/>
     <use transform="translate(568.053105 0)scale(0.996264)" xlink:href="#CMMI12-67"/>
     <use transform="translate(644.999951 0)scale(0.996264)" xlink:href="#CMR17-40"/>
     <use transform="translate(680.280719 0)scale(0.996264)" xlink:href="#CMMI12-116"/>
     <use transform="translate(715.507049 0)scale(0.996264)" xlink:href="#CMR17-41"/>
    </g>
   </g>
  </g>
  <g id="axes_4">
   <g id="patch_17">
    <path d="M 104.596681 514.830936 
L 352.836775 514.830936 
L 352.836775 317.057736 
L 104.596681 317.057736 
z
" style="fill:#ffffff;"/>
   </g>
   <g id="matplotlib.axis_7">
    <g id="xtick_13">
     <g id="line2d_29">
      <g>
       <use style="stroke:#000000;stroke-width:0.8;" x="115.880322" xlink:href="#md915ebee61" y="514.830936"/>
      </g>
     </g>
     <g id="text_30">
      <!-- $\mathdefault{0}$ -->
      <g transform="translate(111.978328 532.900524)scale(0.16 -0.16)">
       <use transform="scale(0.996264)" xlink:href="#CMR17-48"/>
      </g>
     </g>
    </g>
    <g id="xtick_14">
     <g id="line2d_30">
      <g>
       <use style="stroke:#000000;stroke-width:0.8;" x="188.678003" xlink:href="#md915ebee61" y="514.830936"/>
      </g>
     </g>
     <g id="text_31">
      <!-- $\mathdefault{10}$ -->
      <g transform="translate(180.874016 532.900524)scale(0.16 -0.16)">
       <use transform="scale(0.996264)" xlink:href="#CMR17-49"/>
       <use transform="translate(45.690477 0)scale(0.996264)" xlink:href="#CMR17-48"/>
      </g>
     </g>
    </g>
    <g id="xtick_15">
     <g id="line2d_31">
      <g>
       <use style="stroke:#000000;stroke-width:0.8;" x="261.475685" xlink:href="#md915ebee61" y="514.830936"/>
      </g>
     </g>
     <g id="text_32">
      <!-- $\mathdefault{20}$ -->
      <g transform="translate(253.671698 532.900524)scale(0.16 -0.16)">
       <use transform="scale(0.996264)" xlink:href="#CMR17-50"/>
       <use transform="translate(45.690477 0)scale(0.996264)" xlink:href="#CMR17-48"/>
      </g>
     </g>
    </g>
    <g id="xtick_16">
     <g id="line2d_32">
      <g>
       <use style="stroke:#000000;stroke-width:0.8;" x="334.273366" xlink:href="#md915ebee61" y="514.830936"/>
      </g>
     </g>
     <g id="text_33">
      <!-- $\mathdefault{30}$ -->
      <g transform="translate(326.469379 532.900524)scale(0.16 -0.16)">
       <use transform="scale(0.996264)" xlink:href="#CMR17-51"/>
       <use transform="translate(45.690477 0)scale(0.996264)" xlink:href="#CMR17-48"/>
      </g>
     </g>
    </g>
   </g>
   <g id="matplotlib.axis_8">
    <g id="ytick_14">
     <g id="line2d_33">
      <g>
       <use style="stroke:#000000;stroke-width:0.8;" x="104.596681" xlink:href="#m2299a3942f" y="509.533096"/>
      </g>
     </g>
     <g id="text_34">
      <!-- $\mathdefault{−5.0}$ -->
      <g transform="translate(65.255163 515.06789)scale(0.16 -0.16)">
       <use transform="scale(0.996264)" xlink:href="#CMSY10-0"/>
       <use transform="translate(77.487468 0)scale(0.996264)" xlink:href="#CMR17-53"/>
       <use transform="translate(123.177945 0)scale(0.996264)" xlink:href="#CMMI12-58"/>
       <use transform="translate(150.275122 0)scale(0.996264)" xlink:href="#CMR17-48"/>
      </g>
     </g>
    </g>
    <g id="ytick_15">
     <g id="line2d_34">
      <g>
       <use style="stroke:#000000;stroke-width:0.8;" x="104.596681" xlink:href="#m2299a3942f" y="471.845411"/>
      </g>
     </g>
     <g id="text_35">
      <!-- $\mathdefault{−2.5}$ -->
      <g transform="translate(65.255163 477.380205)scale(0.16 -0.16)">
       <use transform="scale(0.996264)" xlink:href="#CMSY10-0"/>
       <use transform="translate(77.487468 0)scale(0.996264)" xlink:href="#CMR17-50"/>
       <use transform="translate(123.177945 0)scale(0.996264)" xlink:href="#CMMI12-58"/>
       <use transform="translate(150.275122 0)scale(0.996264)" xlink:href="#CMR17-53"/>
      </g>
     </g>
    </g>
    <g id="ytick_16">
     <g id="line2d_35">
      <g>
       <use style="stroke:#000000;stroke-width:0.8;" x="104.596681" xlink:href="#m2299a3942f" y="434.157725"/>
      </g>
     </g>
     <g id="text_36">
      <!-- $\mathdefault{0.0}$ -->
      <g transform="translate(77.653159 439.692519)scale(0.16 -0.16)">
       <use transform="scale(0.996264)" xlink:href="#CMR17-48"/>
       <use transform="translate(45.690477 0)scale(0.996264)" xlink:href="#CMMI12-58"/>
       <use transform="translate(72.787654 0)scale(0.996264)" xlink:href="#CMR17-48"/>
      </g>
     </g>
    </g>
    <g id="ytick_17">
     <g id="line2d_36">
      <g>
       <use style="stroke:#000000;stroke-width:0.8;" x="104.596681" xlink:href="#m2299a3942f" y="396.47004"/>
      </g>
     </g>
     <g id="text_37">
      <!-- $\mathdefault{2.5}$ -->
      <g transform="translate(77.653159 402.004834)scale(0.16 -0.16)">
       <use transform="scale(0.996264)" xlink:href="#CMR17-50"/>
       <use transform="translate(45.690477 0)scale(0.996264)" xlink:href="#CMMI12-58"/>
       <use transform="translate(72.787654 0)scale(0.996264)" xlink:href="#CMR17-53"/>
      </g>
     </g>
    </g>
    <g id="ytick_18">
     <g id="line2d_37">
      <g>
       <use style="stroke:#000000;stroke-width:0.8;" x="104.596681" xlink:href="#m2299a3942f" y="358.782355"/>
      </g>
     </g>
     <g id="text_38">
      <!-- $\mathdefault{5.0}$ -->
      <g transform="translate(77.653159 364.317149)scale(0.16 -0.16)">
       <use transform="scale(0.996264)" xlink:href="#CMR17-53"/>
       <use transform="translate(45.690477 0)scale(0.996264)" xlink:href="#CMMI12-58"/>
       <use transform="translate(72.787654 0)scale(0.996264)" xlink:href="#CMR17-48"/>
      </g>
     </g>
    </g>
    <g id="ytick_19">
     <g id="line2d_38">
      <g>
       <use style="stroke:#000000;stroke-width:0.8;" x="104.596681" xlink:href="#m2299a3942f" y="321.094669"/>
      </g>
     </g>
     <g id="text_39">
      <!-- $\mathdefault{7.5}$ -->
      <g transform="translate(77.653159 326.629463)scale(0.16 -0.16)">
       <defs>
        <path d="M 45.09375 61.578125 
L 45.09375 63.765625 
L 21.59375 63.765625 
C 9.90625 63.765625 9.703125 65.078125 9.296875 67 
L 7.5 67 
L 4.59375 48.34375 
L 6.40625 48.34375 
C 6.703125 50.234375 7.40625 55.3125 8.59375 57.203125 
C 9.203125 58 16.59375 58 18.296875 58 
L 40.296875 58 
L 29.203125 41.578125 
C 21.796875 30.53125 16.703125 15.609375 16.703125 2.578125 
C 16.703125 1.390625 16.703125 -2 20.296875 -2 
C 23.90625 -2 23.90625 1.390625 23.90625 2.671875 
L 23.90625 7.265625 
C 23.90625 23.5625 26.703125 34.3125 31.296875 41.1875 
z
" id="CMR17-55"/>
       </defs>
       <use transform="scale(0.996264)" xlink:href="#CMR17-55"/>
       <use transform="translate(45.690477 0)scale(0.996264)" xlink:href="#CMMI12-58"/>
       <use transform="translate(72.787654 0)scale(0.996264)" xlink:href="#CMR17-53"/>
      </g>
     </g>
    </g>
    <g id="text_40">
     <!-- Imaginary -->
     <g transform="translate(56.604405 464.660674)rotate(-90)scale(0.24 -0.24)">
      <defs>
       <path d="M 19.703125 61.015625 
C 19.703125 65.5 20.90625 65.5 28.09375 65.5 
L 28.09375 68 
C 24.90625 68 19.796875 68 16.40625 68 
C 13 68 7.90625 68 4.703125 68 
L 4.703125 65.5 
C 11.90625 65.5 13.09375 65.5 13.09375 61.015625 
L 13.09375 6.984375 
C 13.09375 2.5 11.90625 2.5 4.703125 2.5 
L 4.703125 0 
C 7.90625 0 13 0 16.40625 0 
C 19.796875 0 24.90625 0 28.09375 0 
L 28.09375 2.5 
C 20.90625 2.5 19.703125 2.5 19.703125 6.984375 
z
" id="CMR17-73"/>
       <path d="M 67.59375 30.203125 
C 67.59375 35.1875 66.703125 43.59375 54.796875 43.59375 
C 48 43.59375 43.296875 39 41.5 33.609375 
L 41.40625 33.609375 
C 40.203125 41.8125 34.296875 43.59375 28.703125 43.59375 
C 20.796875 43.59375 16.703125 37.5 15.203125 33.5 
L 15.09375 33.5 
L 15.09375 43.59375 
L 3.296875 42.5 
L 3.296875 39.90625 
C 9.203125 39.90625 10.09375 39.296875 10.09375 34.5 
L 10.09375 6.6875 
C 10.09375 2.875 9.703125 2.390625 3.296875 2.390625 
L 3.296875 -0.203125 
C 5.703125 0 10.09375 0 12.703125 0 
C 15.296875 0 19.796875 0 22.203125 -0.203125 
L 22.203125 2.390625 
C 15.796875 2.390625 15.40625 2.78125 15.40625 6.6875 
L 15.40625 25.90625 
C 15.40625 35.109375 21 42 28 42 
C 35.40625 42 36.203125 35.40625 36.203125 30.59375 
L 36.203125 6.6875 
C 36.203125 2.875 35.796875 2.390625 29.40625 2.390625 
L 29.40625 -0.203125 
C 31.796875 0 36.203125 0 38.796875 0 
C 41.40625 0 45.90625 0 48.296875 -0.203125 
L 48.296875 2.390625 
C 41.90625 2.390625 41.5 2.78125 41.5 6.6875 
L 41.5 25.90625 
C 41.5 35.109375 47.09375 42 54.09375 42 
C 61.5 42 62.296875 35.40625 62.296875 30.59375 
L 62.296875 6.6875 
C 62.296875 2.875 61.90625 2.390625 55.5 2.390625 
L 55.5 -0.203125 
C 57.90625 0 62.296875 0 64.90625 0 
C 67.5 0 72 0 74.40625 -0.203125 
L 74.40625 2.390625 
C 68 2.390625 67.59375 2.78125 67.59375 6.6875 
z
" id="CMR17-109"/>
       <path d="M 11.09375 18.1875 
C 13 16.6875 16.296875 15 20.296875 15 
C 28.203125 15 35 21.203125 35 29.5 
C 35 32.09375 34.203125 36.09375 31.203125 39.203125 
C 34 42.0625 38.09375 43 40.40625 43 
C 40.796875 43 41.40625 43 41.90625 42.71875 
C 41.5 42.625 40.59375 42.234375 40.59375 40.703125 
C 40.59375 39.484375 41.5 38.609375 42.796875 38.609375 
C 44.296875 38.609375 45.09375 39.578125 45.09375 40.84375 
C 45.09375 42.671875 43.59375 44.59375 40.40625 44.59375 
C 36.40625 44.59375 32.90625 42.78125 30.09375 40.3125 
C 27.09375 43.015625 23.5 44 20.296875 44 
C 12.40625 44 5.59375 37.796875 5.59375 29.5 
C 5.59375 23.78125 8.90625 20.1875 9.90625 19.1875 
C 6.90625 15.6875 6.90625 11.609375 6.90625 11.109375 
C 6.90625 8.515625 7.90625 4.71875 11.296875 2.625 
C 6.09375 1.328125 2 -2.640625 2 -7.59375 
C 2 -14.734375 11.5 -20 22.90625 -20 
C 33.90625 -20 43.796875 -14.9375 43.796875 -7.484375 
C 43.796875 6 29 6 21.296875 6 
C 19 6 14.90625 6 14.40625 6.109375 
C 11.296875 6.609375 9.203125 9.40625 9.203125 12.90625 
C 9.203125 13.796875 9.203125 16 11.09375 18.1875 
z
M 20.296875 16.6875 
C 11.5 16.6875 11.5 27.5 11.5 29.515625 
C 11.5 31.5 11.5 42.3125 20.296875 42.3125 
C 29.09375 42.3125 29.09375 31.5 29.09375 29.515625 
C 29.09375 27.5 29.09375 16.6875 20.296875 16.6875 
z
M 22.90625 -18.296875 
C 12.90625 -18.296875 6 -13.046875 6 -7.59375 
C 6 -4.515625 7.703125 -1.640625 9.90625 -0.0625 
C 12.40625 1.625 13.40625 1.625 20.203125 1.625 
C 28.40625 1.625 39.796875 1.625 39.796875 -7.59375 
C 39.796875 -13.046875 32.90625 -18.296875 22.90625 -18.296875 
z
" id="CMR17-103"/>
       <path d="M 15.5 61.078125 
C 15.5 63.265625 13.703125 65.15625 11.40625 65.15625 
C 9.203125 65.15625 7.296875 63.375 7.296875 61.078125 
C 7.296875 58.890625 9.09375 57 11.40625 57 
C 13.59375 57 15.5 58.796875 15.5 61.078125 
z
M 3.796875 42.28125 
L 3.796875 39.703125 
C 9.40625 39.703125 10.203125 39.09375 10.203125 34.328125 
L 10.203125 6.671875 
C 10.203125 2.875 9.796875 2.390625 3.40625 2.390625 
L 3.40625 -0.203125 
C 5.796875 0 10.09375 0 12.59375 0 
C 15 0 19.09375 0 21.40625 -0.203125 
L 21.40625 2.390625 
C 15.5 2.390625 15.296875 2.984375 15.296875 6.5625 
L 15.296875 43.375 
z
" id="CMR17-105"/>
       <path d="M 41.5 30.203125 
C 41.5 35.296875 40.5 43.59375 28.703125 43.59375 
C 20.796875 43.59375 16.703125 37.5 15.203125 33.5 
L 15.09375 33.5 
L 15.09375 43.59375 
L 3.296875 42.5 
L 3.296875 39.90625 
C 9.203125 39.90625 10.09375 39.296875 10.09375 34.5 
L 10.09375 6.6875 
C 10.09375 2.875 9.703125 2.390625 3.296875 2.390625 
L 3.296875 -0.203125 
C 5.703125 0 10.09375 0 12.703125 0 
C 15.296875 0 19.796875 0 22.203125 -0.203125 
L 22.203125 2.390625 
C 15.796875 2.390625 15.40625 2.78125 15.40625 6.6875 
L 15.40625 25.90625 
C 15.40625 35.109375 21 42 28 42 
C 35.40625 42 36.203125 35.40625 36.203125 30.59375 
L 36.203125 6.6875 
C 36.203125 2.875 35.796875 2.390625 29.40625 2.390625 
L 29.40625 -0.203125 
C 31.796875 0 36.203125 0 38.796875 0 
C 41.40625 0 45.90625 0 48.296875 -0.203125 
L 48.296875 2.390625 
C 41.90625 2.390625 41.5 2.78125 41.5 6.6875 
z
" id="CMR17-110"/>
       <path d="M 15 23.390625 
C 15 33 19.09375 42 26.59375 42 
C 27.296875 42 28 41.90625 28.703125 41.59375 
C 28.703125 41.59375 26.5 40.890625 26.5 38.3125 
C 26.5 35.90625 28.40625 34.90625 29.90625 34.90625 
C 31.09375 34.90625 33.296875 35.609375 33.296875 38.40625 
C 33.296875 41.609375 30.09375 43.59375 26.703125 43.59375 
C 19.09375 43.59375 15.796875 36.203125 14.796875 32.703125 
L 14.703125 32.703125 
L 14.703125 43.59375 
L 3.09375 42.5 
L 3.09375 39.90625 
C 9 39.90625 9.90625 39.296875 9.90625 34.5 
L 9.90625 6.6875 
C 9.90625 2.875 9.5 2.390625 3.09375 2.390625 
L 3.09375 -0.203125 
C 5.5 0 10.09375 0 12.703125 0 
C 15.59375 0 20.703125 0 23.40625 -0.203125 
L 23.40625 2.390625 
C 16.203125 2.390625 15 2.390625 15 6.875 
z
" id="CMR17-114"/>
       <path d="M 39 34.328125 
C 41.5 40.40625 46 40.40625 47.40625 40.40625 
L 47.40625 43 
C 45.5 43 43 43 41.09375 43 
C 39 43 35.703125 43 33.703125 43.09375 
L 33.703125 40.5 
C 37.5 40.203125 37.59375 37.40625 37.59375 36.609375 
C 37.59375 35.625 37.40625 35.125 36.90625 33.921875 
L 26 7.015625 
L 14.09375 36.03125 
C 13.59375 37.21875 13.59375 37.90625 13.59375 38.015625 
C 13.59375 40.203125 15.90625 40.40625 18.296875 40.40625 
L 18.296875 43.09375 
C 15.90625 43 11.59375 43 9.09375 43 
C 6.40625 43 3.203125 43 1 43.09375 
L 1 40.40625 
C 6.40625 40.40625 7 39.90625 8.296875 36.71875 
L 23.203125 0.234375 
C 18.703125 -11.53125 16.09375 -18.40625 9.796875 -18.40625 
C 8.703125 -18.40625 6.203125 -18.109375 4.40625 -16.3125 
C 6.703125 -16.109375 7.703125 -14.71875 7.703125 -13.015625 
C 7.703125 -11.328125 6.5 -9.828125 4.5 -9.828125 
C 2.296875 -9.828125 1.203125 -11.328125 1.203125 -13.125 
C 1.203125 -17.109375 5.296875 -20 9.796875 -20 
C 15.59375 -20 19.203125 -14.40625 21.203125 -9.4375 
z
" id="CMR17-121"/>
      </defs>
      <use transform="scale(0.996264)" xlink:href="#CMR17-73"/>
      <use transform="translate(32.638409 0)scale(0.996264)" xlink:href="#CMR17-109"/>
      <use transform="translate(109.557999 0)scale(0.996264)" xlink:href="#CMR17-97"/>
      <use transform="translate(155.248476 0)scale(0.996264)" xlink:href="#CMR17-103"/>
      <use transform="translate(200.938953 0)scale(0.996264)" xlink:href="#CMR17-105"/>
      <use transform="translate(225.810012 0)scale(0.996264)" xlink:href="#CMR17-110"/>
      <use transform="translate(276.705382 0)scale(0.996264)" xlink:href="#CMR17-97"/>
      <use transform="translate(322.395859 0)scale(0.996264)" xlink:href="#CMR17-114"/>
      <use transform="translate(357.676626 0)scale(0.996264)" xlink:href="#CMR17-121"/>
     </g>
    </g>
    <g id="text_41">
     <!-- $\times\mathdefault{10^{−16}}\mathdefault{}$ -->
     <g transform="translate(104.596681 314.057736)scale(0.16 -0.16)">
      <defs>
       <path d="M 38.90625 27.890625 
L 18.90625 47.796875 
C 17.703125 49 17.5 49.1875 16.703125 49.1875 
C 15.703125 49.1875 14.703125 48.296875 14.703125 47.1875 
C 14.703125 46.5 14.90625 46.296875 16 45.1875 
L 36 25.09375 
L 16 5 
C 14.90625 3.890625 14.703125 3.6875 14.703125 3 
C 14.703125 1.890625 15.703125 1 16.703125 1 
C 17.5 1 17.703125 1.1875 18.90625 2.390625 
L 38.796875 22.296875 
L 59.5 1.59375 
C 59.703125 1.5 60.40625 1 61 1 
C 62.203125 1 63 1.890625 63 3 
C 63 3.1875 63 3.59375 62.703125 4.09375 
C 62.59375 4.296875 46.703125 20 41.703125 25.09375 
L 60 43.390625 
C 60.5 44 62 45.296875 62.5 45.890625 
C 62.59375 46.09375 63 46.5 63 47.1875 
C 63 48.296875 62.203125 49.1875 61 49.1875 
C 60.203125 49.1875 59.796875 48.796875 58.703125 47.6875 
z
" id="CMSY10-2"/>
       <path d="M 10.59375 34 
C 10.59375 57.65625 21.796875 63 28.296875 63 
C 30.40625 63 35.5 62.640625 37.5 59 
C 35.90625 59 32.90625 59 32.90625 55.515625 
C 32.90625 52.828125 35.09375 51.921875 36.5 51.921875 
C 37.40625 51.921875 40.09375 52.3125 40.09375 55.625 
C 40.09375 61.78125 35.09375 65.296875 28.203125 65.296875 
C 16.296875 65.296875 3.796875 52.96875 3.796875 31 
C 3.796875 3.953125 15.09375 -2 23.09375 -2 
C 32.796875 -2 42 6.671875 42 20.046875 
C 42 32.515625 33.90625 41.59375 23.703125 41.59375 
C 17.59375 41.59375 13.09375 37.609375 10.59375 30.625 
z
M 23.09375 0.390625 
C 10.796875 0.390625 10.796875 18.75 10.796875 22.4375 
C 10.796875 29.625 14.203125 40 23.5 40 
C 25.203125 40 30.09375 40 33.40625 33.125 
C 35.203125 29.21875 35.203125 25.140625 35.203125 20.140625 
C 35.203125 14.75 35.203125 10.78125 33.09375 6.78125 
C 30.90625 2.671875 27.703125 0.390625 23.09375 0.390625 
z
" id="CMR17-54"/>
      </defs>
      <use transform="scale(0.996264)" xlink:href="#CMSY10-2"/>
      <use transform="translate(77.487468 0)scale(0.996264)" xlink:href="#CMR17-49"/>
      <use transform="translate(123.177945 0)scale(0.996264)" xlink:href="#CMR17-48"/>
      <use transform="translate(168.868422 36.153639)scale(0.697382)" xlink:href="#CMSY10-0"/>
      <use transform="translate(223.109415 36.153639)scale(0.697382)" xlink:href="#CMR17-49"/>
      <use transform="translate(255.092597 36.153639)scale(0.697382)" xlink:href="#CMR17-54"/>
     </g>
    </g>
   </g>
   <g id="LineCollection_4">
    <path clip-path="url(#pa3fdaf0065)" d="M 115.880322 505.841245 
L 115.880322 414.091949 
" style="fill:none;stroke:#ff0000;stroke-width:2;"/>
    <path clip-path="url(#pa3fdaf0065)" d="M 123.16009 417.688972 
L 123.16009 326.047427 
" style="fill:none;stroke:#ff0000;stroke-width:2;"/>
    <path clip-path="url(#pa3fdaf0065)" d="M 130.439858 434.061356 
L 130.439858 368.712407 
" style="fill:none;stroke:#ff0000;stroke-width:2;"/>
    <path clip-path="url(#pa3fdaf0065)" d="M 137.719626 464.146258 
L 137.719626 419.772037 
" style="fill:none;stroke:#ff0000;stroke-width:2;"/>
    <path clip-path="url(#pa3fdaf0065)" d="M 144.999394 442.725353 
L 144.999394 411.741712 
" style="fill:none;stroke:#ff0000;stroke-width:2;"/>
    <path clip-path="url(#pa3fdaf0065)" d="M 152.279162 444.639667 
L 152.279162 424.255787 
" style="fill:none;stroke:#ff0000;stroke-width:2;"/>
    <path clip-path="url(#pa3fdaf0065)" d="M 159.55893 455.966493 
L 159.55893 440.726123 
" style="fill:none;stroke:#ff0000;stroke-width:2;"/>
    <path clip-path="url(#pa3fdaf0065)" d="M 166.838699 444.078112 
L 166.838699 432.731847 
" style="fill:none;stroke:#ff0000;stroke-width:2;"/>
    <path clip-path="url(#pa3fdaf0065)" d="M 174.118467 436.078626 
L 174.118467 426.635575 
" style="fill:none;stroke:#ff0000;stroke-width:2;"/>
    <path clip-path="url(#pa3fdaf0065)" d="M 181.398235 444.829779 
L 181.398235 438.188798 
" style="fill:none;stroke:#ff0000;stroke-width:2;"/>
    <path clip-path="url(#pa3fdaf0065)" d="M 188.678003 435.823444 
L 188.678003 429.960736 
" style="fill:none;stroke:#ff0000;stroke-width:2;"/>
    <path clip-path="url(#pa3fdaf0065)" d="M 195.957771 438.531128 
L 195.957771 432.822702 
" style="fill:none;stroke:#ff0000;stroke-width:2;"/>
    <path clip-path="url(#pa3fdaf0065)" d="M 203.237539 437.241903 
L 203.237539 433.272254 
" style="fill:none;stroke:#ff0000;stroke-width:2;"/>
    <path clip-path="url(#pa3fdaf0065)" d="M 210.517308 434.938828 
L 210.517308 432.454273 
" style="fill:none;stroke:#ff0000;stroke-width:2;"/>
    <path clip-path="url(#pa3fdaf0065)" d="M 217.797076 435.284284 
L 217.797076 433.204931 
" style="fill:none;stroke:#ff0000;stroke-width:2;"/>
    <path clip-path="url(#pa3fdaf0065)" d="M 225.076844 434.394589 
L 225.076844 432.587577 
" style="fill:none;stroke:#ff0000;stroke-width:2;"/>
    <path clip-path="url(#pa3fdaf0065)" d="M 232.356612 434.130174 
L 232.356612 432.495825 
" style="fill:none;stroke:#ff0000;stroke-width:2;"/>
    <path clip-path="url(#pa3fdaf0065)" d="M 239.63638 433.431635 
L 239.63638 431.470352 
" style="fill:none;stroke:#ff0000;stroke-width:2;"/>
    <path clip-path="url(#pa3fdaf0065)" d="M 246.916148 434.848751 
L 246.916148 432.624701 
" style="fill:none;stroke:#ff0000;stroke-width:2;"/>
    <path clip-path="url(#pa3fdaf0065)" d="M 254.195917 435.064373 
L 254.195917 432.656646 
" style="fill:none;stroke:#ff0000;stroke-width:2;"/>
    <path clip-path="url(#pa3fdaf0065)" d="M 261.475685 436.966083 
L 261.475685 433.756752 
" style="fill:none;stroke:#ff0000;stroke-width:2;"/>
    <path clip-path="url(#pa3fdaf0065)" d="M 268.755453 436.691953 
L 268.755453 432.042421 
" style="fill:none;stroke:#ff0000;stroke-width:2;"/>
    <path clip-path="url(#pa3fdaf0065)" d="M 276.035221 431.933439 
L 276.035221 425.721444 
" style="fill:none;stroke:#ff0000;stroke-width:2;"/>
    <path clip-path="url(#pa3fdaf0065)" d="M 283.314989 441.183994 
L 283.314989 434.483472 
" style="fill:none;stroke:#ff0000;stroke-width:2;"/>
    <path clip-path="url(#pa3fdaf0065)" d="M 290.594757 434.705808 
L 290.594757 423.890656 
" style="fill:none;stroke:#ff0000;stroke-width:2;"/>
    <path clip-path="url(#pa3fdaf0065)" d="M 297.874525 445.24283 
L 297.874525 435.017948 
" style="fill:none;stroke:#ff0000;stroke-width:2;"/>
    <path clip-path="url(#pa3fdaf0065)" d="M 305.154294 443.889053 
L 305.154294 429.240686 
" style="fill:none;stroke:#ff0000;stroke-width:2;"/>
    <path clip-path="url(#pa3fdaf0065)" d="M 312.434062 437.999433 
L 312.434062 417.070937 
" style="fill:none;stroke:#ff0000;stroke-width:2;"/>
    <path clip-path="url(#pa3fdaf0065)" d="M 319.71383 447.591355 
L 319.71383 420.978185 
" style="fill:none;stroke:#ff0000;stroke-width:2;"/>
    <path clip-path="url(#pa3fdaf0065)" d="M 326.993598 447.865512 
L 326.993598 411.753983 
" style="fill:none;stroke:#ff0000;stroke-width:2;"/>
    <path clip-path="url(#pa3fdaf0065)" d="M 334.273366 498.152275 
L 334.273366 449.102489 
" style="fill:none;stroke:#ff0000;stroke-width:2;"/>
    <path clip-path="url(#pa3fdaf0065)" d="M 341.553134 455.060563 
L 341.553134 363.488515 
" style="fill:none;stroke:#ff0000;stroke-width:2;"/>
   </g>
   <g id="line2d_39">
    <path clip-path="url(#pa3fdaf0065)" d="M 115.880322 459.966597 
L 123.16009 371.8682 
L 130.439858 401.386882 
L 137.719626 441.959147 
L 144.999394 427.233532 
L 152.279162 434.447727 
L 159.55893 448.346308 
L 166.838699 438.404979 
L 174.118467 431.357101 
L 181.398235 441.509288 
L 188.678003 432.89209 
L 195.957771 435.676915 
L 203.237539 435.257078 
L 210.517308 433.69655 
L 217.797076 434.244608 
L 225.076844 433.491083 
L 232.356612 433.313 
L 239.63638 432.450994 
L 246.916148 433.736726 
L 254.195917 433.860509 
L 261.475685 435.361417 
L 268.755453 434.367187 
L 276.035221 428.827441 
L 283.314989 437.833733 
L 290.594757 429.298232 
L 297.874525 440.130389 
L 305.154294 436.56487 
L 312.434062 427.535185 
L 319.71383 434.28477 
L 326.993598 429.809748 
L 334.273366 473.627382 
L 341.553134 409.274539 
" style="fill:none;stroke:#000000;stroke-linecap:square;stroke-width:2;"/>
   </g>
   <g id="patch_18">
    <path d="M 104.596681 514.830936 
L 104.596681 317.057736 
" style="fill:none;stroke:#000000;stroke-linecap:square;stroke-linejoin:miter;stroke-width:0.8;"/>
   </g>
   <g id="patch_19">
    <path d="M 352.836775 514.830936 
L 352.836775 317.057736 
" style="fill:none;stroke:#000000;stroke-linecap:square;stroke-linejoin:miter;stroke-width:0.8;"/>
   </g>
   <g id="patch_20">
    <path d="M 104.596681 514.830936 
L 352.836775 514.830936 
" style="fill:none;stroke:#000000;stroke-linecap:square;stroke-linejoin:miter;stroke-width:0.8;"/>
   </g>
   <g id="patch_21">
    <path d="M 104.596681 317.057736 
L 352.836775 317.057736 
" style="fill:none;stroke:#000000;stroke-linecap:square;stroke-linejoin:miter;stroke-width:0.8;"/>
   </g>
  </g>
  <g id="axes_5">
   <g id="patch_22">
    <path d="M 412.178293 514.830936 
L 660.418388 514.830936 
L 660.418388 317.057736 
L 412.178293 317.057736 
z
" style="fill:#ffffff;"/>
   </g>
   <g id="matplotlib.axis_9">
    <g id="xtick_17">
     <g id="line2d_40">
      <g>
       <use style="stroke:#000000;stroke-width:0.8;" x="423.461934" xlink:href="#md915ebee61" y="514.830936"/>
      </g>
     </g>
     <g id="text_42">
      <!-- $\mathdefault{0}$ -->
      <g transform="translate(419.559941 532.900524)scale(0.16 -0.16)">
       <use transform="scale(0.996264)" xlink:href="#CMR17-48"/>
      </g>
     </g>
    </g>
    <g id="xtick_18">
     <g id="line2d_41">
      <g>
       <use style="stroke:#000000;stroke-width:0.8;" x="493.984688" xlink:href="#md915ebee61" y="514.830936"/>
      </g>
     </g>
     <g id="text_43">
      <!-- $\mathdefault{5}$ -->
      <g transform="translate(490.082695 532.900524)scale(0.16 -0.16)">
       <use transform="scale(0.996264)" xlink:href="#CMR17-53"/>
      </g>
     </g>
    </g>
    <g id="xtick_19">
     <g id="line2d_42">
      <g>
       <use style="stroke:#000000;stroke-width:0.8;" x="564.507442" xlink:href="#md915ebee61" y="514.830936"/>
      </g>
     </g>
     <g id="text_44">
      <!-- $\mathdefault{10}$ -->
      <g transform="translate(556.703455 532.900524)scale(0.16 -0.16)">
       <use transform="scale(0.996264)" xlink:href="#CMR17-49"/>
       <use transform="translate(45.690477 0)scale(0.996264)" xlink:href="#CMR17-48"/>
      </g>
     </g>
    </g>
    <g id="xtick_20">
     <g id="line2d_43">
      <g>
       <use style="stroke:#000000;stroke-width:0.8;" x="635.030196" xlink:href="#md915ebee61" y="514.830936"/>
      </g>
     </g>
     <g id="text_45">
      <!-- $\mathdefault{15}$ -->
      <g transform="translate(627.226209 532.900524)scale(0.16 -0.16)">
       <use transform="scale(0.996264)" xlink:href="#CMR17-49"/>
       <use transform="translate(45.690477 0)scale(0.996264)" xlink:href="#CMR17-53"/>
      </g>
     </g>
    </g>
   </g>
   <g id="matplotlib.axis_10">
    <g id="ytick_20">
     <g id="line2d_44">
      <g>
       <use style="stroke:#000000;stroke-width:0.8;" x="412.178293" xlink:href="#m2299a3942f" y="491.933991"/>
      </g>
     </g>
     <g id="text_46">
      <!-- $\mathdefault{−4}$ -->
      <g transform="translate(384.97631 497.468785)scale(0.16 -0.16)">
       <use transform="scale(0.996264)" xlink:href="#CMSY10-0"/>
       <use transform="translate(77.487468 0)scale(0.996264)" xlink:href="#CMR17-52"/>
      </g>
     </g>
    </g>
    <g id="ytick_21">
     <g id="line2d_45">
      <g>
       <use style="stroke:#000000;stroke-width:0.8;" x="412.178293" xlink:href="#m2299a3942f" y="455.098574"/>
      </g>
     </g>
     <g id="text_47">
      <!-- $\mathdefault{−2}$ -->
      <g transform="translate(384.97631 460.633368)scale(0.16 -0.16)">
       <use transform="scale(0.996264)" xlink:href="#CMSY10-0"/>
       <use transform="translate(77.487468 0)scale(0.996264)" xlink:href="#CMR17-50"/>
      </g>
     </g>
    </g>
    <g id="ytick_22">
     <g id="line2d_46">
      <g>
       <use style="stroke:#000000;stroke-width:0.8;" x="412.178293" xlink:href="#m2299a3942f" y="418.263156"/>
      </g>
     </g>
     <g id="text_48">
      <!-- $\mathdefault{0}$ -->
      <g transform="translate(397.374306 423.797951)scale(0.16 -0.16)">
       <use transform="scale(0.996264)" xlink:href="#CMR17-48"/>
      </g>
     </g>
    </g>
    <g id="ytick_23">
     <g id="line2d_47">
      <g>
       <use style="stroke:#000000;stroke-width:0.8;" x="412.178293" xlink:href="#m2299a3942f" y="381.427739"/>
      </g>
     </g>
     <g id="text_49">
      <!-- $\mathdefault{2}$ -->
      <g transform="translate(397.374306 386.962533)scale(0.16 -0.16)">
       <use transform="scale(0.996264)" xlink:href="#CMR17-50"/>
      </g>
     </g>
    </g>
    <g id="ytick_24">
     <g id="line2d_48">
      <g>
       <use style="stroke:#000000;stroke-width:0.8;" x="412.178293" xlink:href="#m2299a3942f" y="344.592322"/>
      </g>
     </g>
     <g id="text_50">
      <!-- $\mathdefault{4}$ -->
      <g transform="translate(397.374306 350.127116)scale(0.16 -0.16)">
       <use transform="scale(0.996264)" xlink:href="#CMR17-52"/>
      </g>
     </g>
    </g>
    <g id="text_51">
     <!-- $\times\mathdefault{10^{−16}}\mathdefault{}$ -->
     <g transform="translate(412.178293 314.057736)scale(0.16 -0.16)">
      <use transform="scale(0.996264)" xlink:href="#CMSY10-2"/>
      <use transform="translate(77.487468 0)scale(0.996264)" xlink:href="#CMR17-49"/>
      <use transform="translate(123.177945 0)scale(0.996264)" xlink:href="#CMR17-48"/>
      <use transform="translate(168.868422 36.153639)scale(0.697382)" xlink:href="#CMSY10-0"/>
      <use transform="translate(223.109415 36.153639)scale(0.697382)" xlink:href="#CMR17-49"/>
      <use transform="translate(255.092597 36.153639)scale(0.697382)" xlink:href="#CMR17-54"/>
     </g>
    </g>
   </g>
   <g id="LineCollection_5">
    <path clip-path="url(#p57eac960c4)" d="M 423.461934 505.841245 
L 423.461934 393.748144 
" style="fill:none;stroke:#ff0000;stroke-width:2;"/>
    <path clip-path="url(#p57eac960c4)" d="M 437.566485 403.977146 
L 437.566485 326.047427 
" style="fill:none;stroke:#ff0000;stroke-width:2;"/>
    <path clip-path="url(#p57eac960c4)" d="M 451.671036 447.534365 
L 451.671036 397.176106 
" style="fill:none;stroke:#ff0000;stroke-width:2;"/>
    <path clip-path="url(#p57eac960c4)" d="M 465.775586 437.093925 
L 465.775586 403.651573 
" style="fill:none;stroke:#ff0000;stroke-width:2;"/>
    <path clip-path="url(#p57eac960c4)" d="M 479.880137 426.980076 
L 479.880137 401.241939 
" style="fill:none;stroke:#ff0000;stroke-width:2;"/>
    <path clip-path="url(#p57eac960c4)" d="M 493.984688 423.526873 
L 493.984688 405.262771 
" style="fill:none;stroke:#ff0000;stroke-width:2;"/>
    <path clip-path="url(#p57eac960c4)" d="M 508.089239 434.930211 
L 508.089239 421.871641 
" style="fill:none;stroke:#ff0000;stroke-width:2;"/>
    <path clip-path="url(#p57eac960c4)" d="M 522.19379 429.217367 
L 522.19379 419.794952 
" style="fill:none;stroke:#ff0000;stroke-width:2;"/>
    <path clip-path="url(#p57eac960c4)" d="M 536.29834 417.809442 
L 536.29834 409.358255 
" style="fill:none;stroke:#ff0000;stroke-width:2;"/>
    <path clip-path="url(#p57eac960c4)" d="M 550.402891 427.949204 
L 550.402891 422.049851 
" style="fill:none;stroke:#ff0000;stroke-width:2;"/>
    <path clip-path="url(#p57eac960c4)" d="M 564.507442 416.802985 
L 564.507442 411.664879 
" style="fill:none;stroke:#ff0000;stroke-width:2;"/>
    <path clip-path="url(#p57eac960c4)" d="M 578.611993 421.640618 
L 578.611993 416.997645 
" style="fill:none;stroke:#ff0000;stroke-width:2;"/>
    <path clip-path="url(#p57eac960c4)" d="M 592.716544 421.122316 
L 592.716544 418.217702 
" style="fill:none;stroke:#ff0000;stroke-width:2;"/>
    <path clip-path="url(#p57eac960c4)" d="M 606.821094 418.858702 
L 606.821094 416.74106 
" style="fill:none;stroke:#ff0000;stroke-width:2;"/>
    <path clip-path="url(#p57eac960c4)" d="M 620.925645 419.000324 
L 620.925645 417.117787 
" style="fill:none;stroke:#ff0000;stroke-width:2;"/>
    <path clip-path="url(#p57eac960c4)" d="M 635.030196 417.561002 
L 635.030196 416.065683 
" style="fill:none;stroke:#ff0000;stroke-width:2;"/>
    <path clip-path="url(#p57eac960c4)" d="M 649.134747 418.229497 
L 649.134747 416.232759 
" style="fill:none;stroke:#ff0000;stroke-width:2;"/>
   </g>
   <g id="line2d_49">
    <path clip-path="url(#p57eac960c4)" d="M 423.461934 449.794694 
L 437.566485 365.012287 
L 451.671036 422.355235 
L 465.775586 420.372749 
L 479.880137 414.111008 
L 493.984688 414.394822 
L 508.089239 428.400926 
L 522.19379 424.506159 
L 536.29834 413.583849 
L 550.402891 424.999528 
L 564.507442 414.233932 
L 578.611993 419.319131 
L 592.716544 419.670009 
L 606.821094 417.799881 
L 620.925645 418.059056 
L 635.030196 416.813342 
L 649.134747 417.231128 
" style="fill:none;stroke:#000000;stroke-linecap:square;stroke-width:2;"/>
   </g>
   <g id="patch_23">
    <path d="M 412.178293 514.830936 
L 412.178293 317.057736 
" style="fill:none;stroke:#000000;stroke-linecap:square;stroke-linejoin:miter;stroke-width:0.8;"/>
   </g>
   <g id="patch_24">
    <path d="M 660.418388 514.830936 
L 660.418388 317.057736 
" style="fill:none;stroke:#000000;stroke-linecap:square;stroke-linejoin:miter;stroke-width:0.8;"/>
   </g>
   <g id="patch_25">
    <path d="M 412.178293 514.830936 
L 660.418388 514.830936 
" style="fill:none;stroke:#000000;stroke-linecap:square;stroke-linejoin:miter;stroke-width:0.8;"/>
   </g>
   <g id="patch_26">
    <path d="M 412.178293 317.057736 
L 660.418388 317.057736 
" style="fill:none;stroke:#000000;stroke-linecap:square;stroke-linejoin:miter;stroke-width:0.8;"/>
   </g>
  </g>
  <g id="axes_6">
   <g id="patch_27">
    <path d="M 719.759906 514.830936 
L 968 514.830936 
L 968 317.057736 
L 719.759906 317.057736 
z
" style="fill:#ffffff;"/>
   </g>
   <g id="matplotlib.axis_11">
    <g id="xtick_21">
     <g id="line2d_50">
      <g>
       <use style="stroke:#000000;stroke-width:0.8;" x="731.043547" xlink:href="#md915ebee61" y="514.830936"/>
      </g>
     </g>
     <g id="text_52">
      <!-- $\mathdefault{0}$ -->
      <g transform="translate(727.141553 532.900524)scale(0.16 -0.16)">
       <use transform="scale(0.996264)" xlink:href="#CMR17-48"/>
      </g>
     </g>
    </g>
    <g id="xtick_22">
     <g id="line2d_51">
      <g>
       <use style="stroke:#000000;stroke-width:0.8;" x="801.566301" xlink:href="#md915ebee61" y="514.830936"/>
      </g>
     </g>
     <g id="text_53">
      <!-- $\mathdefault{5}$ -->
      <g transform="translate(797.664307 532.900524)scale(0.16 -0.16)">
       <use transform="scale(0.996264)" xlink:href="#CMR17-53"/>
      </g>
     </g>
    </g>
    <g id="xtick_23">
     <g id="line2d_52">
      <g>
       <use style="stroke:#000000;stroke-width:0.8;" x="872.089055" xlink:href="#md915ebee61" y="514.830936"/>
      </g>
     </g>
     <g id="text_54">
      <!-- $\mathdefault{10}$ -->
      <g transform="translate(864.285068 532.900524)scale(0.16 -0.16)">
       <use transform="scale(0.996264)" xlink:href="#CMR17-49"/>
       <use transform="translate(45.690477 0)scale(0.996264)" xlink:href="#CMR17-48"/>
      </g>
     </g>
    </g>
    <g id="xtick_24">
     <g id="line2d_53">
      <g>
       <use style="stroke:#000000;stroke-width:0.8;" x="942.611809" xlink:href="#md915ebee61" y="514.830936"/>
      </g>
     </g>
     <g id="text_55">
      <!-- $\mathdefault{15}$ -->
      <g transform="translate(934.807822 532.900524)scale(0.16 -0.16)">
       <use transform="scale(0.996264)" xlink:href="#CMR17-49"/>
       <use transform="translate(45.690477 0)scale(0.996264)" xlink:href="#CMR17-53"/>
      </g>
     </g>
    </g>
   </g>
   <g id="matplotlib.axis_12">
    <g id="ytick_25">
     <g id="line2d_54">
      <g>
       <use style="stroke:#000000;stroke-width:0.8;" x="719.759906" xlink:href="#m2299a3942f" y="492.13966"/>
      </g>
     </g>
     <g id="text_56">
      <!-- $\mathdefault{−1}$ -->
      <g transform="translate(692.557923 497.674454)scale(0.16 -0.16)">
       <use transform="scale(0.996264)" xlink:href="#CMSY10-0"/>
       <use transform="translate(77.487468 0)scale(0.996264)" xlink:href="#CMR17-49"/>
      </g>
     </g>
    </g>
    <g id="ytick_26">
     <g id="line2d_55">
      <g>
       <use style="stroke:#000000;stroke-width:0.8;" x="719.759906" xlink:href="#m2299a3942f" y="457.090761"/>
      </g>
     </g>
     <g id="text_57">
      <!-- $\mathdefault{0}$ -->
      <g transform="translate(704.955919 462.625555)scale(0.16 -0.16)">
       <use transform="scale(0.996264)" xlink:href="#CMR17-48"/>
      </g>
     </g>
    </g>
    <g id="ytick_27">
     <g id="line2d_56">
      <g>
       <use style="stroke:#000000;stroke-width:0.8;" x="719.759906" xlink:href="#m2299a3942f" y="422.041862"/>
      </g>
     </g>
     <g id="text_58">
      <!-- $\mathdefault{1}$ -->
      <g transform="translate(704.955919 427.576657)scale(0.16 -0.16)">
       <use transform="scale(0.996264)" xlink:href="#CMR17-49"/>
      </g>
     </g>
    </g>
    <g id="ytick_28">
     <g id="line2d_57">
      <g>
       <use style="stroke:#000000;stroke-width:0.8;" x="719.759906" xlink:href="#m2299a3942f" y="386.992964"/>
      </g>
     </g>
     <g id="text_59">
      <!-- $\mathdefault{2}$ -->
      <g transform="translate(704.955919 392.527758)scale(0.16 -0.16)">
       <use transform="scale(0.996264)" xlink:href="#CMR17-50"/>
      </g>
     </g>
    </g>
    <g id="ytick_29">
     <g id="line2d_58">
      <g>
       <use style="stroke:#000000;stroke-width:0.8;" x="719.759906" xlink:href="#m2299a3942f" y="351.944065"/>
      </g>
     </g>
     <g id="text_60">
      <!-- $\mathdefault{3}$ -->
      <g transform="translate(704.955919 357.478859)scale(0.16 -0.16)">
       <use transform="scale(0.996264)" xlink:href="#CMR17-51"/>
      </g>
     </g>
    </g>
    <g id="text_61">
     <!-- $\times\mathdefault{10^{−16}}\mathdefault{}$ -->
     <g transform="translate(719.759906 314.057736)scale(0.16 -0.16)">
      <use transform="scale(0.996264)" xlink:href="#CMSY10-2"/>
      <use transform="translate(77.487468 0)scale(0.996264)" xlink:href="#CMR17-49"/>
      <use transform="translate(123.177945 0)scale(0.996264)" xlink:href="#CMR17-48"/>
      <use transform="translate(168.868422 36.153639)scale(0.697382)" xlink:href="#CMSY10-0"/>
      <use transform="translate(223.109415 36.153639)scale(0.697382)" xlink:href="#CMR17-49"/>
      <use transform="translate(255.092597 36.153639)scale(0.697382)" xlink:href="#CMR17-54"/>
     </g>
    </g>
   </g>
   <g id="LineCollection_6">
    <path clip-path="url(#pc506cf7ec1)" d="M 731.043547 457.090761 
L 731.043547 457.090761 
" style="fill:none;stroke:#ff0000;stroke-width:2;"/>
    <path clip-path="url(#pc506cf7ec1)" d="M 745.148097 490.040188 
L 745.148097 337.173205 
" style="fill:none;stroke:#ff0000;stroke-width:2;"/>
    <path clip-path="url(#pc506cf7ec1)" d="M 759.252648 420.17804 
L 759.252648 326.047427 
" style="fill:none;stroke:#ff0000;stroke-width:2;"/>
    <path clip-path="url(#pc506cf7ec1)" d="M 773.357199 505.841245 
L 773.357199 436.587109 
" style="fill:none;stroke:#ff0000;stroke-width:2;"/>
    <path clip-path="url(#pc506cf7ec1)" d="M 787.46175 471.860038 
L 787.46175 425.927661 
" style="fill:none;stroke:#ff0000;stroke-width:2;"/>
    <path clip-path="url(#pc506cf7ec1)" d="M 801.566301 481.700195 
L 801.566301 448.552691 
" style="fill:none;stroke:#ff0000;stroke-width:2;"/>
    <path clip-path="url(#pc506cf7ec1)" d="M 815.670851 482.932874 
L 815.670851 458.639986 
" style="fill:none;stroke:#ff0000;stroke-width:2;"/>
    <path clip-path="url(#pc506cf7ec1)" d="M 829.775402 463.874054 
L 829.775402 446.295965 
" style="fill:none;stroke:#ff0000;stroke-width:2;"/>
    <path clip-path="url(#pc506cf7ec1)" d="M 843.879953 468.122488 
L 843.879953 450.845815 
" style="fill:none;stroke:#ff0000;stroke-width:2;"/>
    <path clip-path="url(#pc506cf7ec1)" d="M 857.984504 466.713907 
L 857.984504 456.013122 
" style="fill:none;stroke:#ff0000;stroke-width:2;"/>
    <path clip-path="url(#pc506cf7ec1)" d="M 872.089055 466.855293 
L 872.089055 456.776363 
" style="fill:none;stroke:#ff0000;stroke-width:2;"/>
    <path clip-path="url(#pc506cf7ec1)" d="M 886.193605 462.749447 
L 886.193605 454.477135 
" style="fill:none;stroke:#ff0000;stroke-width:2;"/>
    <path clip-path="url(#pc506cf7ec1)" d="M 900.298156 460.126763 
L 900.298156 453.812176 
" style="fill:none;stroke:#ff0000;stroke-width:2;"/>
    <path clip-path="url(#pc506cf7ec1)" d="M 914.402707 458.907154 
L 914.402707 454.893171 
" style="fill:none;stroke:#ff0000;stroke-width:2;"/>
    <path clip-path="url(#pc506cf7ec1)" d="M 928.507258 459.429046 
L 928.507258 455.933279 
" style="fill:none;stroke:#ff0000;stroke-width:2;"/>
    <path clip-path="url(#pc506cf7ec1)" d="M 942.611809 459.967483 
L 942.611809 456.632203 
" style="fill:none;stroke:#ff0000;stroke-width:2;"/>
    <path clip-path="url(#pc506cf7ec1)" d="M 956.716359 457.090761 
L 956.716359 457.090761 
" style="fill:none;stroke:#ff0000;stroke-width:2;"/>
   </g>
   <g id="line2d_59">
    <path clip-path="url(#pc506cf7ec1)" d="M 731.043547 457.090761 
L 745.148097 413.606697 
L 759.252648 373.112733 
L 773.357199 471.214177 
L 787.46175 448.893849 
L 801.566301 465.126443 
L 815.670851 470.78643 
L 829.775402 455.085009 
L 843.879953 459.484151 
L 857.984504 461.363515 
L 872.089055 461.815828 
L 886.193605 458.613291 
L 900.298156 456.969469 
L 914.402707 456.900162 
L 928.507258 457.681162 
L 942.611809 458.299843 
L 956.716359 457.090761 
" style="fill:none;stroke:#000000;stroke-linecap:square;stroke-width:2;"/>
   </g>
   <g id="patch_28">
    <path d="M 719.759906 514.830936 
L 719.759906 317.057736 
" style="fill:none;stroke:#000000;stroke-linecap:square;stroke-linejoin:miter;stroke-width:0.8;"/>
   </g>
   <g id="patch_29">
    <path d="M 968 514.830936 
L 968 317.057736 
" style="fill:none;stroke:#000000;stroke-linecap:square;stroke-linejoin:miter;stroke-width:0.8;"/>
   </g>
   <g id="patch_30">
    <path d="M 719.759906 514.830936 
L 968 514.830936 
" style="fill:none;stroke:#000000;stroke-linecap:square;stroke-linejoin:miter;stroke-width:0.8;"/>
   </g>
   <g id="patch_31">
    <path d="M 719.759906 317.057736 
L 968 317.057736 
" style="fill:none;stroke:#000000;stroke-linecap:square;stroke-linejoin:miter;stroke-width:0.8;"/>
   </g>
  </g>
 </g>
 <defs>
  <clipPath id="p5b04b4a588">
   <rect height="197.773199" width="248.240094" x="104.596681" y="63.911226"/>
  </clipPath>
  <clipPath id="p3865a5f6f6">
   <rect height="197.773199" width="248.240094" x="412.178293" y="63.911226"/>
  </clipPath>
  <clipPath id="p8b2fd45a7a">
   <rect height="197.773199" width="248.240094" x="719.759906" y="63.911226"/>
  </clipPath>
  <clipPath id="pa3fdaf0065">
   <rect height="197.773199" width="248.240094" x="104.596681" y="317.057736"/>
  </clipPath>
  <clipPath id="p57eac960c4">
   <rect height="197.773199" width="248.240094" x="412.178293" y="317.057736"/>
  </clipPath>
  <clipPath id="pc506cf7ec1">
   <rect height="197.773199" width="248.240094" x="719.759906" y="317.057736"/>
  </clipPath>
 </defs>
</svg>
