<?xml version="1.0" encoding="utf-8" standalone="no"?>
<!DOCTYPE svg PUBLIC "-//W3C//DTD SVG 1.1//EN"
  "http://www.w3.org/Graphics/SVG/1.1/DTD/svg11.dtd">
<!-- Created with matplotlib (https://matplotlib.org/) -->
<svg height="648pt" version="1.1" viewBox="0 0 720 648" width="720pt" xmlns="http://www.w3.org/2000/svg" xmlns:xlink="http://www.w3.org/1999/xlink">
 <metadata>
  <rdf:RDF xmlns:cc="http://creativecommons.org/ns#" xmlns:dc="http://purl.org/dc/elements/1.1/" xmlns:rdf="http://www.w3.org/1999/02/22-rdf-syntax-ns#">
   <cc:Work>
    <dc:type rdf:resource="http://purl.org/dc/dcmitype/StillImage"/>
    <dc:date>2022-10-14T16:30:55.850529</dc:date>
    <dc:format>image/svg+xml</dc:format>
    <dc:creator>
     <cc:Agent>
      <dc:title>Matplotlib v3.3.4, https://matplotlib.org/</dc:title>
     </cc:Agent>
    </dc:creator>
   </cc:Work>
  </rdf:RDF>
 </metadata>
 <defs>
  <style type="text/css">*{stroke-linecap:butt;stroke-linejoin:round;}</style>
 </defs>
 <g id="figure_1">
  <g id="patch_1">
   <path d="M 0 648 
L 720 648 
L 720 0 
L 0 0 
z
" style="fill:#ffffff;"/>
  </g>
  <g id="axes_1">
   <g id="patch_2">
    <path d="M 90.476779 195.208657 
L 355.56763 195.208657 
L 355.56763 72 
L 90.476779 72 
z
" style="fill:#ffffff;"/>
   </g>
   <g id="matplotlib.axis_1">
    <g id="xtick_1">
     <g id="line2d_1">
      <defs>
       <path d="M 0 0 
L 0 3.5 
" id="me57e3674d6" style="stroke:#000000;stroke-width:0.8;"/>
      </defs>
      <g>
       <use style="stroke:#000000;stroke-width:0.8;" x="162.774284" xlink:href="#me57e3674d6" y="195.208657"/>
      </g>
     </g>
     <g id="text_1">
      <!-- $\mathdefault{5}$ -->
      <g transform="translate(158.87229 213.278245)scale(0.16 -0.16)">
       <defs>
        <path d="M 11.40625 57.6875 
C 12.40625 57.28125 16.5 56 20.703125 56 
C 30 56 35.09375 61.109375 38 64.0625 
C 38 64.953125 38 65.5 37.40625 65.5 
C 37.296875 65.5 37.09375 65.5 36.296875 65.046875 
C 32.796875 63.40625 28.703125 62.078125 23.703125 62.078125 
C 20.703125 62.078125 16.203125 62.484375 11.296875 64.671875 
C 10.203125 65.171875 10 65.171875 9.90625 65.171875 
C 9.40625 65.171875 9.296875 65.0625 9.296875 63.078125 
L 9.296875 34.421875 
C 9.296875 32.640625 9.296875 32.140625 10.296875 32.140625 
C 10.796875 32.140625 11 32.34375 11.5 33.03125 
C 14.703125 37.515625 19.09375 39.40625 24.09375 39.40625 
C 27.59375 39.40625 35.09375 37.21875 35.09375 20.140625 
C 35.09375 16.953125 35.09375 11.171875 32.09375 6.578125 
C 29.59375 2.484375 25.703125 0.390625 21.40625 0.390625 
C 14.796875 0.390625 8.09375 5 6.296875 12.71875 
C 6.703125 12.609375 7.5 12.421875 7.90625 12.421875 
C 9.203125 12.421875 11.703125 13.125 11.703125 16.21875 
C 11.703125 18.90625 9.796875 20 7.90625 20 
C 5.59375 20 4.09375 18.59375 4.09375 15.796875 
C 4.09375 7.09375 11 -2 21.59375 -2 
C 31.90625 -2 41.703125 6.875 41.703125 19.75 
C 41.703125 31.71875 33.90625 41 24.203125 41 
C 19.09375 41 14.796875 39.109375 11.40625 35.53125 
z
" id="CMR17-53"/>
       </defs>
       <use transform="scale(0.996264)" xlink:href="#CMR17-53"/>
      </g>
     </g>
    </g>
    <g id="xtick_2">
     <g id="line2d_2">
      <g>
       <use style="stroke:#000000;stroke-width:0.8;" x="263.187485" xlink:href="#me57e3674d6" y="195.208657"/>
      </g>
     </g>
     <g id="text_2">
      <!-- $\mathdefault{10}$ -->
      <g transform="translate(255.383498 213.278245)scale(0.16 -0.16)">
       <defs>
        <path d="M 26.59375 63.40625 
C 26.59375 65.5 26.5 65.5 25.09375 65.5 
C 21.203125 61.1875 15.296875 59.796875 9.703125 59.796875 
C 9.40625 59.796875 8.90625 59.796875 8.796875 59.5 
C 8.703125 59.296875 8.703125 59.09375 8.703125 57 
C 11.796875 57 17 57.59375 21 59.984375 
L 21 7.203125 
C 21 3.6875 20.796875 2.5 12.203125 2.5 
L 9.203125 2.5 
L 9.203125 0 
C 14 0 19 0 23.796875 0 
C 28.59375 0 33.59375 0 38.40625 0 
L 38.40625 2.5 
L 35.40625 2.5 
C 26.796875 2.5 26.59375 3.59375 26.59375 7.15625 
z
" id="CMR17-49"/>
        <path d="M 42 31.640625 
C 42 37.75 41.90625 48.125 37.703125 56.109375 
C 34 63.109375 28.09375 65.59375 22.90625 65.59375 
C 18.09375 65.59375 12 63.40625 8.203125 56.203125 
C 4.203125 48.71875 3.796875 39.4375 3.796875 31.640625 
C 3.796875 25.953125 3.90625 17.28125 7 9.671875 
C 11.296875 -0.609375 19 -2 22.90625 -2 
C 27.5 -2 34.5 -0.109375 38.59375 9.375 
C 41.59375 16.28125 42 24.359375 42 31.640625 
z
M 22.90625 -0.40625 
C 16.5 -0.40625 12.703125 5.078125 11.296875 12.6875 
C 10.203125 18.5625 10.203125 27.15625 10.203125 32.75 
C 10.203125 40.4375 10.203125 46.828125 11.5 52.921875 
C 13.40625 61.390625 19 64 22.90625 64 
C 27 64 32.296875 61.296875 34.203125 53.125 
C 35.5 47.4375 35.59375 40.734375 35.59375 32.75 
C 35.59375 26.25 35.59375 18.265625 34.40625 12.375 
C 32.296875 1.484375 26.40625 -0.40625 22.90625 -0.40625 
z
" id="CMR17-48"/>
       </defs>
       <use transform="scale(0.996264)" xlink:href="#CMR17-49"/>
       <use transform="translate(45.690477 0)scale(0.996264)" xlink:href="#CMR17-48"/>
      </g>
     </g>
    </g>
   </g>
   <g id="matplotlib.axis_2">
    <g id="ytick_1">
     <g id="line2d_3">
      <defs>
       <path d="M 0 0 
L -3.5 0 
" id="md26bdbd217" style="stroke:#000000;stroke-width:0.8;"/>
      </defs>
      <g>
       <use style="stroke:#000000;stroke-width:0.8;" x="90.476779" xlink:href="#md26bdbd217" y="191.339543"/>
      </g>
     </g>
     <g id="text_3">
      <!-- $\mathdefault{0}$ -->
      <g transform="translate(75.672792 196.874337)scale(0.16 -0.16)">
       <use transform="scale(0.996264)" xlink:href="#CMR17-48"/>
      </g>
     </g>
    </g>
    <g id="ytick_2">
     <g id="line2d_4">
      <g>
       <use style="stroke:#000000;stroke-width:0.8;" x="90.476779" xlink:href="#md26bdbd217" y="125.123848"/>
      </g>
     </g>
     <g id="text_4">
      <!-- $\mathdefault{20}$ -->
      <g transform="translate(67.868805 130.658643)scale(0.16 -0.16)">
       <defs>
        <path d="M 41.703125 15.453125 
L 39.90625 15.453125 
C 38.90625 8.375 38.09375 7.171875 37.703125 6.5625 
C 37.203125 5.765625 30 5.765625 28.59375 5.765625 
L 9.40625 5.765625 
C 13 9.671875 20 16.75 28.5 24.953125 
C 34.59375 30.734375 41.703125 37.53125 41.703125 47.421875 
C 41.703125 59.21875 32.296875 66 21.796875 66 
C 10.796875 66 4.09375 56.3125 4.09375 47.34375 
C 4.09375 43.4375 7 42.9375 8.203125 42.9375 
C 9.203125 42.9375 12.203125 43.546875 12.203125 47.03125 
C 12.203125 50.109375 9.59375 51 8.203125 51 
C 7.59375 51 7 50.90625 6.59375 50.703125 
C 8.5 59.21875 14.296875 63.40625 20.40625 63.40625 
C 29.09375 63.40625 34.796875 56.515625 34.796875 47.421875 
C 34.796875 38.734375 29.703125 31.25 24 24.75 
L 4.09375 2.28125 
L 4.09375 0 
L 39.296875 0 
z
" id="CMR17-50"/>
       </defs>
       <use transform="scale(0.996264)" xlink:href="#CMR17-50"/>
       <use transform="translate(45.690477 0)scale(0.996264)" xlink:href="#CMR17-48"/>
      </g>
     </g>
    </g>
    <g id="text_5">
     <!-- (2, 13) -->
     <g transform="translate(57.911226 165.113922)rotate(-90)scale(0.24 -0.24)">
      <defs>
       <path d="M 30.59375 -24.390625 
C 30.59375 -24.296875 30.59375 -24.09375 30.296875 -23.796875 
C 25.703125 -19.125 13.40625 -6.359375 13.40625 24.703125 
C 13.40625 55.765625 25.5 68.421875 30.40625 73.390625 
C 30.40625 73.5 30.59375 73.703125 30.59375 74 
C 30.59375 74.296875 30.296875 74.5 29.90625 74.5 
C 28.796875 74.5 20.296875 67.125 15.40625 56.15625 
C 10.40625 45.109375 9 34.359375 9 24.8125 
C 9 17.625 9.703125 5.484375 15.703125 -7.359375 
C 20.5 -17.734375 28.703125 -25 29.90625 -25 
C 30.40625 -25 30.59375 -24.796875 30.59375 -24.390625 
z
" id="CMR17-40"/>
       <path d="M 15.796875 1.59375 
C 16 0.703125 16 0.390625 16 -1.203125 
C 16 -7.234375 14 -12.765625 9.796875 -17.796875 
C 9.296875 -18.28125 9.296875 -18.484375 9.296875 -18.703125 
C 9.296875 -19.09375 9.703125 -19.5 10.09375 -19.5 
C 10.703125 -19.5 17.59375 -12.484375 17.59375 -1.359375 
C 17.59375 1.9375 17.203125 8.15625 12.5 8.15625 
C 10.296875 8.15625 8.40625 6.671875 8.40625 4.078125 
C 8.40625 1.5 10.296875 0 12.5 0 
C 13.703125 0 15 0.5 15.796875 1.59375 
z
" id="CMR17-44"/>
       <path d="M 22.09375 33.703125 
C 31 33.703125 34.90625 25.96875 34.90625 17.03125 
C 34.90625 5 28.5 0.390625 22.703125 0.390625 
C 17.40625 0.390625 8.796875 3.03125 6.09375 10.828125 
C 6.59375 10.625 7.09375 10.625 7.59375 10.625 
C 10 10.625 11.796875 12.21875 11.796875 14.8125 
C 11.796875 17.703125 9.59375 19 7.59375 19 
C 5.90625 19 3.296875 18.203125 3.296875 14.46875 
C 3.296875 5.234375 12.296875 -2 22.90625 -2 
C 34 -2 42.5 6.71875 42.5 16.953125 
C 42.5 26.671875 34.5 33.703125 25 34.796875 
C 32.59375 36.375 39.90625 43.0625 39.90625 52.015625 
C 39.90625 59.6875 32 65.296875 23 65.296875 
C 13.90625 65.296875 5.90625 59.828125 5.90625 52.015625 
C 5.90625 48.59375 8.5 48 9.796875 48 
C 11.90625 48 13.703125 49.296875 13.703125 51.890625 
C 13.703125 54.46875 11.90625 55.765625 9.796875 55.765625 
C 9.40625 55.765625 8.90625 55.765625 8.5 55.578125 
C 11.40625 61.859375 19.296875 63 22.796875 63 
C 26.296875 63 32.90625 61.328125 32.90625 51.875 
C 32.90625 49.109375 32.5 44.1875 29.09375 39.84375 
C 26.09375 36 22.703125 36 19.40625 35.6875 
C 18.90625 35.6875 16.59375 35.453125 16.203125 35.453125 
C 15.5 35.359375 15.09375 35.265625 15.09375 34.5 
C 15.09375 33.796875 15.203125 33.703125 17.203125 33.703125 
z
" id="CMR17-51"/>
       <path d="M 26.296875 24.703125 
C 26.296875 31.875 25.59375 44.015625 19.59375 56.859375 
C 14.796875 67.234375 6.59375 74.5 5.40625 74.5 
C 5.09375 74.5 4.703125 74.390625 4.703125 73.890625 
C 4.703125 73.703125 4.796875 73.59375 4.90625 73.390625 
C 9.703125 68.40625 21.90625 55.75 21.90625 24.75 
C 21.90625 -6.359375 9.796875 -19.015625 4.90625 -24.015625 
C 4.796875 -24.203125 4.703125 -24.3125 4.703125 -24.5 
C 4.703125 -25 5.09375 -25 5.40625 -25 
C 6.5 -25 15 -17.625 19.90625 -6.65625 
C 24.90625 4.390625 26.296875 15.140625 26.296875 24.703125 
z
" id="CMR17-41"/>
      </defs>
      <use transform="scale(0.996264)" xlink:href="#CMR17-40"/>
      <use transform="translate(35.280768 0)scale(0.996264)" xlink:href="#CMR17-50"/>
      <use transform="translate(80.971245 0)scale(0.996264)" xlink:href="#CMR17-44"/>
      <use transform="translate(135.91827 0)scale(0.996264)" xlink:href="#CMR17-49"/>
      <use transform="translate(181.608747 0)scale(0.996264)" xlink:href="#CMR17-51"/>
      <use transform="translate(227.299224 0)scale(0.996264)" xlink:href="#CMR17-41"/>
     </g>
    </g>
   </g>
   <g id="LineCollection_1">
    <path clip-path="url(#pba2f30a466)" d="M 102.526363 77.890535 
L 102.526363 77.602856 
" style="fill:none;stroke:#ff0000;stroke-opacity:0.2;stroke-width:2;"/>
    <path clip-path="url(#pba2f30a466)" d="M 122.609003 126.175317 
L 122.609003 125.949108 
" style="fill:none;stroke:#ff0000;stroke-opacity:0.2;stroke-width:2;"/>
    <path clip-path="url(#pba2f30a466)" d="M 142.691644 150.938341 
L 142.691644 150.779432 
" style="fill:none;stroke:#ff0000;stroke-opacity:0.2;stroke-width:2;"/>
    <path clip-path="url(#pba2f30a466)" d="M 162.774284 164.745329 
L 162.774284 164.611499 
" style="fill:none;stroke:#ff0000;stroke-opacity:0.2;stroke-width:2;"/>
    <path clip-path="url(#pba2f30a466)" d="M 182.856924 173.07889 
L 182.856924 172.958841 
" style="fill:none;stroke:#ff0000;stroke-opacity:0.2;stroke-width:2;"/>
    <path clip-path="url(#pba2f30a466)" d="M 202.939564 178.443158 
L 202.939564 178.346734 
" style="fill:none;stroke:#ff0000;stroke-opacity:0.2;stroke-width:2;"/>
    <path clip-path="url(#pba2f30a466)" d="M 223.022205 182.064628 
L 223.022205 181.99151 
" style="fill:none;stroke:#ff0000;stroke-opacity:0.2;stroke-width:2;"/>
    <path clip-path="url(#pba2f30a466)" d="M 243.104845 184.587234 
L 243.104845 184.528629 
" style="fill:none;stroke:#ff0000;stroke-opacity:0.2;stroke-width:2;"/>
    <path clip-path="url(#pba2f30a466)" d="M 263.187485 186.374501 
L 263.187485 186.321239 
" style="fill:none;stroke:#ff0000;stroke-opacity:0.2;stroke-width:2;"/>
    <path clip-path="url(#pba2f30a466)" d="M 283.270125 187.646145 
L 283.270125 187.593726 
" style="fill:none;stroke:#ff0000;stroke-opacity:0.2;stroke-width:2;"/>
    <path clip-path="url(#pba2f30a466)" d="M 303.352766 188.543604 
L 303.352766 188.491198 
" style="fill:none;stroke:#ff0000;stroke-opacity:0.2;stroke-width:2;"/>
    <path clip-path="url(#pba2f30a466)" d="M 323.435406 189.161504 
L 323.435406 189.109467 
" style="fill:none;stroke:#ff0000;stroke-opacity:0.2;stroke-width:2;"/>
    <path clip-path="url(#pba2f30a466)" d="M 343.518046 189.563171 
L 343.518046 189.511803 
" style="fill:none;stroke:#ff0000;stroke-opacity:0.2;stroke-width:2;"/>
   </g>
   <g id="LineCollection_2">
    <path clip-path="url(#pba2f30a466)" d="M 102.526363 77.890535 
L 102.526363 77.602856 
" style="fill:none;stroke:#ff0000;stroke-width:2;"/>
    <path clip-path="url(#pba2f30a466)" d="M 122.609003 126.175317 
L 122.609003 125.949108 
" style="fill:none;stroke:#ff0000;stroke-width:2;"/>
    <path clip-path="url(#pba2f30a466)" d="M 142.691644 150.938341 
L 142.691644 150.779432 
" style="fill:none;stroke:#ff0000;stroke-width:2;"/>
    <path clip-path="url(#pba2f30a466)" d="M 162.774284 164.745329 
L 162.774284 164.611499 
" style="fill:none;stroke:#ff0000;stroke-width:2;"/>
    <path clip-path="url(#pba2f30a466)" d="M 182.856924 173.07889 
L 182.856924 172.958841 
" style="fill:none;stroke:#ff0000;stroke-width:2;"/>
    <path clip-path="url(#pba2f30a466)" d="M 202.939564 178.443158 
L 202.939564 178.346734 
" style="fill:none;stroke:#ff0000;stroke-width:2;"/>
    <path clip-path="url(#pba2f30a466)" d="M 223.022205 182.064628 
L 223.022205 181.99151 
" style="fill:none;stroke:#ff0000;stroke-width:2;"/>
    <path clip-path="url(#pba2f30a466)" d="M 243.104845 184.587234 
L 243.104845 184.528629 
" style="fill:none;stroke:#ff0000;stroke-width:2;"/>
    <path clip-path="url(#pba2f30a466)" d="M 263.187485 186.374501 
L 263.187485 186.321239 
" style="fill:none;stroke:#ff0000;stroke-width:2;"/>
    <path clip-path="url(#pba2f30a466)" d="M 283.270125 187.646145 
L 283.270125 187.593726 
" style="fill:none;stroke:#ff0000;stroke-width:2;"/>
    <path clip-path="url(#pba2f30a466)" d="M 303.352766 188.543604 
L 303.352766 188.491198 
" style="fill:none;stroke:#ff0000;stroke-width:2;"/>
   </g>
   <g id="LineCollection_3">
    <path clip-path="url(#pba2f30a466)" d="M 102.526363 77.892572 
L 102.526363 77.600394 
" style="fill:none;stroke:#000000;stroke-width:2;"/>
    <path clip-path="url(#pba2f30a466)" d="M 122.609003 126.219792 
L 122.609003 125.94466 
" style="fill:none;stroke:#000000;stroke-width:2;"/>
    <path clip-path="url(#pba2f30a466)" d="M 142.691644 150.931576 
L 142.691644 150.672619 
" style="fill:none;stroke:#000000;stroke-width:2;"/>
    <path clip-path="url(#pba2f30a466)" d="M 162.774284 164.8445 
L 162.774284 164.584837 
" style="fill:none;stroke:#000000;stroke-width:2;"/>
    <path clip-path="url(#pba2f30a466)" d="M 182.856924 173.177962 
L 182.856924 172.957551 
" style="fill:none;stroke:#000000;stroke-width:2;"/>
    <path clip-path="url(#pba2f30a466)" d="M 202.939564 178.508474 
L 202.939564 178.318603 
" style="fill:none;stroke:#000000;stroke-width:2;"/>
    <path clip-path="url(#pba2f30a466)" d="M 223.022205 182.0873 
L 223.022205 181.928768 
" style="fill:none;stroke:#000000;stroke-width:2;"/>
    <path clip-path="url(#pba2f30a466)" d="M 243.104845 184.603462 
L 243.104845 184.459347 
" style="fill:none;stroke:#000000;stroke-width:2;"/>
    <path clip-path="url(#pba2f30a466)" d="M 263.187485 186.391747 
L 263.187485 186.272693 
" style="fill:none;stroke:#000000;stroke-width:2;"/>
    <path clip-path="url(#pba2f30a466)" d="M 283.270125 187.666116 
L 283.270125 187.571831 
" style="fill:none;stroke:#000000;stroke-width:2;"/>
    <path clip-path="url(#pba2f30a466)" d="M 303.352766 188.57789 
L 303.352766 188.487732 
" style="fill:none;stroke:#000000;stroke-width:2;"/>
    <path clip-path="url(#pba2f30a466)" d="M 323.435406 189.20239 
L 323.435406 189.125342 
" style="fill:none;stroke:#000000;stroke-width:2;"/>
    <path clip-path="url(#pba2f30a466)" d="M 343.518046 189.608264 
L 343.518046 189.542898 
" style="fill:none;stroke:#000000;stroke-width:2;"/>
   </g>
   <g id="line2d_5">
    <path clip-path="url(#pba2f30a466)" d="M 102.526363 77.746695 
L 122.609003 126.062213 
L 142.691644 150.858887 
L 162.774284 164.678414 
L 182.856924 173.018866 
L 202.939564 178.394946 
L 223.022205 182.028069 
L 243.104845 184.557931 
L 263.187485 186.34787 
L 283.270125 187.619935 
L 303.352766 188.517401 
L 323.435406 189.135485 
L 343.518046 189.537487 
" style="fill:none;stroke:#ff0000;stroke-linecap:square;stroke-opacity:0.2;stroke-width:2;"/>
    <defs>
     <path d="M 0 4 
C 1.060812 4 2.078319 3.578535 2.828427 2.828427 
C 3.578535 2.078319 4 1.060812 4 0 
C 4 -1.060812 3.578535 -2.078319 2.828427 -2.828427 
C 2.078319 -3.578535 1.060812 -4 0 -4 
C -1.060812 -4 -2.078319 -3.578535 -2.828427 -2.828427 
C -3.578535 -2.078319 -4 -1.060812 -4 0 
C -4 1.060812 -3.578535 2.078319 -2.828427 2.828427 
C -2.078319 3.578535 -1.060812 4 0 4 
z
" id="m24597be334" style="stroke:#ff0000;stroke-opacity:0.2;"/>
    </defs>
    <g clip-path="url(#pba2f30a466)">
     <use style="fill:#ff0000;fill-opacity:0.2;stroke:#ff0000;stroke-opacity:0.2;" x="102.526363" xlink:href="#m24597be334" y="77.746695"/>
     <use style="fill:#ff0000;fill-opacity:0.2;stroke:#ff0000;stroke-opacity:0.2;" x="122.609003" xlink:href="#m24597be334" y="126.062213"/>
     <use style="fill:#ff0000;fill-opacity:0.2;stroke:#ff0000;stroke-opacity:0.2;" x="142.691644" xlink:href="#m24597be334" y="150.858887"/>
     <use style="fill:#ff0000;fill-opacity:0.2;stroke:#ff0000;stroke-opacity:0.2;" x="162.774284" xlink:href="#m24597be334" y="164.678414"/>
     <use style="fill:#ff0000;fill-opacity:0.2;stroke:#ff0000;stroke-opacity:0.2;" x="182.856924" xlink:href="#m24597be334" y="173.018866"/>
     <use style="fill:#ff0000;fill-opacity:0.2;stroke:#ff0000;stroke-opacity:0.2;" x="202.939564" xlink:href="#m24597be334" y="178.394946"/>
     <use style="fill:#ff0000;fill-opacity:0.2;stroke:#ff0000;stroke-opacity:0.2;" x="223.022205" xlink:href="#m24597be334" y="182.028069"/>
     <use style="fill:#ff0000;fill-opacity:0.2;stroke:#ff0000;stroke-opacity:0.2;" x="243.104845" xlink:href="#m24597be334" y="184.557931"/>
     <use style="fill:#ff0000;fill-opacity:0.2;stroke:#ff0000;stroke-opacity:0.2;" x="263.187485" xlink:href="#m24597be334" y="186.34787"/>
     <use style="fill:#ff0000;fill-opacity:0.2;stroke:#ff0000;stroke-opacity:0.2;" x="283.270125" xlink:href="#m24597be334" y="187.619935"/>
     <use style="fill:#ff0000;fill-opacity:0.2;stroke:#ff0000;stroke-opacity:0.2;" x="303.352766" xlink:href="#m24597be334" y="188.517401"/>
     <use style="fill:#ff0000;fill-opacity:0.2;stroke:#ff0000;stroke-opacity:0.2;" x="323.435406" xlink:href="#m24597be334" y="189.135485"/>
     <use style="fill:#ff0000;fill-opacity:0.2;stroke:#ff0000;stroke-opacity:0.2;" x="343.518046" xlink:href="#m24597be334" y="189.537487"/>
    </g>
   </g>
   <g id="line2d_6">
    <path clip-path="url(#pba2f30a466)" d="M 102.526363 77.746695 
L 122.609003 126.062213 
L 142.691644 150.858887 
L 162.774284 164.678414 
L 182.856924 173.018866 
L 202.939564 178.394946 
L 223.022205 182.028069 
L 243.104845 184.557931 
L 263.187485 186.34787 
L 283.270125 187.619935 
L 303.352766 188.517401 
" style="fill:none;stroke:#ff0000;stroke-linecap:square;stroke-width:2;"/>
    <defs>
     <path d="M 0 4 
C 1.060812 4 2.078319 3.578535 2.828427 2.828427 
C 3.578535 2.078319 4 1.060812 4 0 
C 4 -1.060812 3.578535 -2.078319 2.828427 -2.828427 
C 2.078319 -3.578535 1.060812 -4 0 -4 
C -1.060812 -4 -2.078319 -3.578535 -2.828427 -2.828427 
C -3.578535 -2.078319 -4 -1.060812 -4 0 
C -4 1.060812 -3.578535 2.078319 -2.828427 2.828427 
C -2.078319 3.578535 -1.060812 4 0 4 
z
" id="m2878654fc5" style="stroke:#ff0000;"/>
    </defs>
    <g clip-path="url(#pba2f30a466)">
     <use style="fill:#ff0000;stroke:#ff0000;" x="102.526363" xlink:href="#m2878654fc5" y="77.746695"/>
     <use style="fill:#ff0000;stroke:#ff0000;" x="122.609003" xlink:href="#m2878654fc5" y="126.062213"/>
     <use style="fill:#ff0000;stroke:#ff0000;" x="142.691644" xlink:href="#m2878654fc5" y="150.858887"/>
     <use style="fill:#ff0000;stroke:#ff0000;" x="162.774284" xlink:href="#m2878654fc5" y="164.678414"/>
     <use style="fill:#ff0000;stroke:#ff0000;" x="182.856924" xlink:href="#m2878654fc5" y="173.018866"/>
     <use style="fill:#ff0000;stroke:#ff0000;" x="202.939564" xlink:href="#m2878654fc5" y="178.394946"/>
     <use style="fill:#ff0000;stroke:#ff0000;" x="223.022205" xlink:href="#m2878654fc5" y="182.028069"/>
     <use style="fill:#ff0000;stroke:#ff0000;" x="243.104845" xlink:href="#m2878654fc5" y="184.557931"/>
     <use style="fill:#ff0000;stroke:#ff0000;" x="263.187485" xlink:href="#m2878654fc5" y="186.34787"/>
     <use style="fill:#ff0000;stroke:#ff0000;" x="283.270125" xlink:href="#m2878654fc5" y="187.619935"/>
     <use style="fill:#ff0000;stroke:#ff0000;" x="303.352766" xlink:href="#m2878654fc5" y="188.517401"/>
    </g>
   </g>
   <g id="line2d_7">
    <defs>
     <path d="M 0 4 
C 1.060812 4 2.078319 3.578535 2.828427 2.828427 
C 3.578535 2.078319 4 1.060812 4 0 
C 4 -1.060812 3.578535 -2.078319 2.828427 -2.828427 
C 2.078319 -3.578535 1.060812 -4 0 -4 
C -1.060812 -4 -2.078319 -3.578535 -2.828427 -2.828427 
C -3.578535 -2.078319 -4 -1.060812 -4 0 
C -4 1.060812 -3.578535 2.078319 -2.828427 2.828427 
C -2.078319 3.578535 -1.060812 4 0 4 
z
" id="m3aee93c136" style="stroke:#000000;"/>
    </defs>
    <g clip-path="url(#pba2f30a466)">
     <use style="stroke:#000000;" x="102.526363" xlink:href="#m3aee93c136" y="77.746483"/>
     <use style="stroke:#000000;" x="122.609003" xlink:href="#m3aee93c136" y="126.082226"/>
     <use style="stroke:#000000;" x="142.691644" xlink:href="#m3aee93c136" y="150.802097"/>
     <use style="stroke:#000000;" x="162.774284" xlink:href="#m3aee93c136" y="164.714668"/>
     <use style="stroke:#000000;" x="182.856924" xlink:href="#m3aee93c136" y="173.067757"/>
     <use style="stroke:#000000;" x="202.939564" xlink:href="#m3aee93c136" y="178.413538"/>
     <use style="stroke:#000000;" x="223.022205" xlink:href="#m3aee93c136" y="182.008034"/>
     <use style="stroke:#000000;" x="243.104845" xlink:href="#m3aee93c136" y="184.531404"/>
     <use style="stroke:#000000;" x="263.187485" xlink:href="#m3aee93c136" y="186.33222"/>
     <use style="stroke:#000000;" x="283.270125" xlink:href="#m3aee93c136" y="187.618974"/>
     <use style="stroke:#000000;" x="303.352766" xlink:href="#m3aee93c136" y="188.532811"/>
     <use style="stroke:#000000;" x="323.435406" xlink:href="#m3aee93c136" y="189.163866"/>
     <use style="stroke:#000000;" x="343.518046" xlink:href="#m3aee93c136" y="189.575581"/>
    </g>
   </g>
   <g id="patch_3">
    <path d="M 90.476779 195.208657 
L 90.476779 72 
" style="fill:none;stroke:#000000;stroke-linecap:square;stroke-linejoin:miter;stroke-width:0.8;"/>
   </g>
   <g id="patch_4">
    <path d="M 355.56763 195.208657 
L 355.56763 72 
" style="fill:none;stroke:#000000;stroke-linecap:square;stroke-linejoin:miter;stroke-width:0.8;"/>
   </g>
   <g id="patch_5">
    <path d="M 90.476779 195.208657 
L 355.56763 195.208657 
" style="fill:none;stroke:#000000;stroke-linecap:square;stroke-linejoin:miter;stroke-width:0.8;"/>
   </g>
   <g id="patch_6">
    <path d="M 90.476779 72 
L 355.56763 72 
" style="fill:none;stroke:#000000;stroke-linecap:square;stroke-linejoin:miter;stroke-width:0.8;"/>
   </g>
   <g id="text_6">
    <!-- $C(t)$ -->
    <g transform="translate(201.094052 66)scale(0.24 -0.24)">
     <defs>
      <path d="M 74.703125 69.109375 
C 74.703125 70 74 70 73.796875 70 
C 73.59375 70 73.203125 70 72.40625 69 
L 65.5 60.65625 
C 62 66.625 56.5 70 49 70 
C 27.40625 70 5 48.25 5 24.921875 
C 5 8.328125 16.703125 -2 31.296875 -2 
C 39.296875 -2 46.296875 1.375 52.09375 6.25 
C 60.796875 13.484375 63.40625 23.140625 63.40625 23.921875 
C 63.40625 24.8125 62.59375 24.8125 62.296875 24.8125 
C 61.40625 24.8125 61.296875 24.21875 61.09375 23.8125 
C 56.5 8.34375 43 0.890625 33 0.890625 
C 22.40625 0.890625 13.203125 7.640625 13.203125 21.734375 
C 13.203125 24.921875 14.203125 42.1875 25.5 55.1875 
C 31 61.546875 40.40625 67.109375 49.90625 67.109375 
C 60.90625 67.109375 65.796875 58.078125 65.796875 47.9375 
C 65.796875 45.359375 65.5 43.1875 65.5 42.78125 
C 65.5 41.890625 66.5 41.890625 66.796875 41.890625 
C 67.90625 41.890625 68 41.984375 68.40625 43.765625 
z
" id="CMMI12-67"/>
      <path d="M 20.09375 40.09375 
L 29.296875 40.09375 
C 31.203125 40.09375 32.203125 40.09375 32.203125 41.890625 
C 32.203125 43 31.59375 43 29.59375 43 
L 20.796875 43 
L 24.5 57.6875 
C 24.90625 59.078125 24.90625 59.28125 24.90625 60 
C 24.90625 61.609375 23.59375 62.5 22.296875 62.5 
C 21.5 62.5 19.203125 62.203125 18.40625 58.984375 
L 14.5 43 
L 5.09375 43 
C 3.09375 43 2.203125 43 2.203125 41.09375 
C 2.203125 40.09375 2.90625 40.09375 4.796875 40.09375 
L 13.703125 40.09375 
L 7.09375 13.765625 
C 6.296875 10.28125 6 9.28125 6 7.984375 
C 6 3.296875 9.296875 -1 14.90625 -1 
C 25 -1 30.40625 13.5625 30.40625 14.25 
C 30.40625 14.859375 30 15.15625 29.40625 15.15625 
C 29.203125 15.15625 28.796875 15.15625 28.59375 14.75 
C 28.5 14.65625 28.40625 14.546875 27.703125 12.953125 
C 25.59375 7.984375 21 1 15.203125 1 
C 12.203125 1 12 3.5 12 5.6875 
C 12 5.78125 12 7.6875 12.296875 8.875 
z
" id="CMMI12-116"/>
     </defs>
     <use transform="scale(0.996264)" xlink:href="#CMMI12-67"/>
     <use transform="translate(76.946847 0)scale(0.996264)" xlink:href="#CMR17-40"/>
     <use transform="translate(112.227614 0)scale(0.996264)" xlink:href="#CMMI12-116"/>
     <use transform="translate(147.453945 0)scale(0.996264)" xlink:href="#CMR17-41"/>
    </g>
   </g>
  </g>
  <g id="axes_2">
   <g id="patch_7">
    <path d="M 414.909149 195.208657 
L 680 195.208657 
L 680 72 
L 414.909149 72 
z
" style="fill:#ffffff;"/>
   </g>
   <g id="matplotlib.axis_3">
    <g id="xtick_3">
     <g id="line2d_8">
      <g>
       <use style="stroke:#000000;stroke-width:0.8;" x="487.206654" xlink:href="#me57e3674d6" y="195.208657"/>
      </g>
     </g>
     <g id="text_7">
      <!-- $\mathdefault{5}$ -->
      <g transform="translate(483.30466 213.278245)scale(0.16 -0.16)">
       <use transform="scale(0.996264)" xlink:href="#CMR17-53"/>
      </g>
     </g>
    </g>
    <g id="xtick_4">
     <g id="line2d_9">
      <g>
       <use style="stroke:#000000;stroke-width:0.8;" x="587.619855" xlink:href="#me57e3674d6" y="195.208657"/>
      </g>
     </g>
     <g id="text_8">
      <!-- $\mathdefault{10}$ -->
      <g transform="translate(579.815868 213.278245)scale(0.16 -0.16)">
       <use transform="scale(0.996264)" xlink:href="#CMR17-49"/>
       <use transform="translate(45.690477 0)scale(0.996264)" xlink:href="#CMR17-48"/>
      </g>
     </g>
    </g>
   </g>
   <g id="matplotlib.axis_4">
    <g id="ytick_3">
     <g id="line2d_10">
      <g>
       <use style="stroke:#000000;stroke-width:0.8;" x="414.909149" xlink:href="#md26bdbd217" y="195.208657"/>
      </g>
     </g>
     <g id="text_9">
      <!-- $\mathdefault{−5}$ -->
      <g transform="translate(387.707166 200.743451)scale(0.16 -0.16)">
       <defs>
        <path d="M 65.90625 23 
C 67.59375 23 69.40625 23 69.40625 25 
C 69.40625 27 67.59375 27 65.90625 27 
L 11.796875 27 
C 10.09375 27 8.296875 27 8.296875 25 
C 8.296875 23 10.09375 23 11.796875 23 
z
" id="CMSY10-0"/>
       </defs>
       <use transform="scale(0.996264)" xlink:href="#CMSY10-0"/>
       <use transform="translate(77.487468 0)scale(0.996264)" xlink:href="#CMR17-53"/>
      </g>
     </g>
    </g>
    <g id="ytick_4">
     <g id="line2d_11">
      <g>
       <use style="stroke:#000000;stroke-width:0.8;" x="414.909149" xlink:href="#md26bdbd217" y="133.604329"/>
      </g>
     </g>
     <g id="text_10">
      <!-- $\mathdefault{0}$ -->
      <g transform="translate(400.105162 139.139123)scale(0.16 -0.16)">
       <use transform="scale(0.996264)" xlink:href="#CMR17-48"/>
      </g>
     </g>
    </g>
    <g id="ytick_5">
     <g id="line2d_12">
      <g>
       <use style="stroke:#000000;stroke-width:0.8;" x="414.909149" xlink:href="#md26bdbd217" y="72"/>
      </g>
     </g>
     <g id="text_11">
      <!-- $\mathdefault{5}$ -->
      <g transform="translate(400.105162 77.534794)scale(0.16 -0.16)">
       <use transform="scale(0.996264)" xlink:href="#CMR17-53"/>
      </g>
     </g>
    </g>
   </g>
   <g id="LineCollection_4">
    <path clip-path="url(#p0283b13790)" d="M 426.958733 145.753384 
L 426.958733 121.491126 
" style="fill:none;stroke:#ff0000;stroke-opacity:0.2;stroke-width:2;"/>
    <path clip-path="url(#p0283b13790)" d="M 447.041373 141.941892 
L 447.041373 121.681836 
" style="fill:none;stroke:#ff0000;stroke-opacity:0.2;stroke-width:2;"/>
    <path clip-path="url(#p0283b13790)" d="M 467.124013 146.569 
L 467.124013 131.447566 
" style="fill:none;stroke:#ff0000;stroke-opacity:0.2;stroke-width:2;"/>
    <path clip-path="url(#p0283b13790)" d="M 487.206654 136.51404 
L 487.206654 123.813667 
" style="fill:none;stroke:#ff0000;stroke-opacity:0.2;stroke-width:2;"/>
    <path clip-path="url(#p0283b13790)" d="M 507.289294 134.849041 
L 507.289294 121.427669 
" style="fill:none;stroke:#ff0000;stroke-opacity:0.2;stroke-width:2;"/>
    <path clip-path="url(#p0283b13790)" d="M 527.371934 137.448481 
L 527.371934 124.934327 
" style="fill:none;stroke:#ff0000;stroke-opacity:0.2;stroke-width:2;"/>
    <path clip-path="url(#p0283b13790)" d="M 547.454574 142.401088 
L 547.454574 131.035814 
" style="fill:none;stroke:#ff0000;stroke-opacity:0.2;stroke-width:2;"/>
    <path clip-path="url(#p0283b13790)" d="M 567.537215 143.150513 
L 567.537215 133.129686 
" style="fill:none;stroke:#ff0000;stroke-opacity:0.2;stroke-width:2;"/>
    <path clip-path="url(#p0283b13790)" d="M 587.619855 142.355727 
L 587.619855 131.331499 
" style="fill:none;stroke:#ff0000;stroke-opacity:0.2;stroke-width:2;"/>
    <path clip-path="url(#p0283b13790)" d="M 607.702495 140.705541 
L 607.702495 127.005763 
" style="fill:none;stroke:#ff0000;stroke-opacity:0.2;stroke-width:2;"/>
    <path clip-path="url(#p0283b13790)" d="M 627.785135 136.554349 
L 627.785135 122.23095 
" style="fill:none;stroke:#ff0000;stroke-opacity:0.2;stroke-width:2;"/>
    <path clip-path="url(#p0283b13790)" d="M 647.867776 132.848838 
L 647.867776 116.206286 
" style="fill:none;stroke:#ff0000;stroke-opacity:0.2;stroke-width:2;"/>
    <path clip-path="url(#p0283b13790)" d="M 667.950416 128.926184 
L 667.950416 109.561135 
" style="fill:none;stroke:#ff0000;stroke-opacity:0.2;stroke-width:2;"/>
   </g>
   <g id="LineCollection_5">
    <path clip-path="url(#p0283b13790)" d="M 426.958733 145.753384 
L 426.958733 121.491126 
" style="fill:none;stroke:#ff0000;stroke-width:2;"/>
    <path clip-path="url(#p0283b13790)" d="M 447.041373 141.941892 
L 447.041373 121.681836 
" style="fill:none;stroke:#ff0000;stroke-width:2;"/>
    <path clip-path="url(#p0283b13790)" d="M 467.124013 146.569 
L 467.124013 131.447566 
" style="fill:none;stroke:#ff0000;stroke-width:2;"/>
    <path clip-path="url(#p0283b13790)" d="M 487.206654 136.51404 
L 487.206654 123.813667 
" style="fill:none;stroke:#ff0000;stroke-width:2;"/>
    <path clip-path="url(#p0283b13790)" d="M 507.289294 134.849041 
L 507.289294 121.427669 
" style="fill:none;stroke:#ff0000;stroke-width:2;"/>
    <path clip-path="url(#p0283b13790)" d="M 527.371934 137.448481 
L 527.371934 124.934327 
" style="fill:none;stroke:#ff0000;stroke-width:2;"/>
    <path clip-path="url(#p0283b13790)" d="M 547.454574 142.401088 
L 547.454574 131.035814 
" style="fill:none;stroke:#ff0000;stroke-width:2;"/>
    <path clip-path="url(#p0283b13790)" d="M 567.537215 143.150513 
L 567.537215 133.129686 
" style="fill:none;stroke:#ff0000;stroke-width:2;"/>
    <path clip-path="url(#p0283b13790)" d="M 587.619855 142.355727 
L 587.619855 131.331499 
" style="fill:none;stroke:#ff0000;stroke-width:2;"/>
    <path clip-path="url(#p0283b13790)" d="M 607.702495 140.705541 
L 607.702495 127.005763 
" style="fill:none;stroke:#ff0000;stroke-width:2;"/>
    <path clip-path="url(#p0283b13790)" d="M 627.785135 136.554349 
L 627.785135 122.23095 
" style="fill:none;stroke:#ff0000;stroke-width:2;"/>
   </g>
   <g id="line2d_13">
    <path clip-path="url(#p0283b13790)" d="M 414.909149 133.604329 
L 680 133.604329 
" style="fill:none;stroke:#000000;stroke-linecap:square;stroke-width:2;"/>
   </g>
   <g id="line2d_14">
    <path clip-path="url(#p0283b13790)" d="M 426.958733 133.622255 
L 447.041373 131.811864 
L 467.124013 139.008283 
L 487.206654 130.163853 
L 507.289294 128.138355 
L 527.371934 131.191404 
L 547.454574 136.718451 
L 567.537215 138.1401 
L 587.619855 136.843613 
L 607.702495 133.855652 
L 627.785135 129.392649 
L 647.867776 124.527562 
L 667.950416 119.243659 
" style="fill:none;stroke:#ff0000;stroke-linecap:square;stroke-opacity:0.2;stroke-width:2;"/>
   </g>
   <g id="line2d_15">
    <path clip-path="url(#p0283b13790)" d="M 426.958733 133.622255 
L 447.041373 131.811864 
L 467.124013 139.008283 
L 487.206654 130.163853 
L 507.289294 128.138355 
L 527.371934 131.191404 
L 547.454574 136.718451 
L 567.537215 138.1401 
L 587.619855 136.843613 
L 607.702495 133.855652 
L 627.785135 129.392649 
" style="fill:none;stroke:#ff0000;stroke-linecap:square;stroke-width:2;"/>
   </g>
   <g id="patch_8">
    <path d="M 414.909149 195.208657 
L 414.909149 72 
" style="fill:none;stroke:#000000;stroke-linecap:square;stroke-linejoin:miter;stroke-width:0.8;"/>
   </g>
   <g id="patch_9">
    <path d="M 680 195.208657 
L 680 72 
" style="fill:none;stroke:#000000;stroke-linecap:square;stroke-linejoin:miter;stroke-width:0.8;"/>
   </g>
   <g id="patch_10">
    <path d="M 414.909149 195.208657 
L 680 195.208657 
" style="fill:none;stroke:#000000;stroke-linecap:square;stroke-linejoin:miter;stroke-width:0.8;"/>
   </g>
   <g id="patch_11">
    <path d="M 414.909149 72 
L 680 72 
" style="fill:none;stroke:#000000;stroke-linecap:square;stroke-linejoin:miter;stroke-width:0.8;"/>
   </g>
   <g id="text_12">
    <!-- $(C_{\rm fit}(t) - C(t))/\sigma_t$ -->
    <g transform="translate(457.924156 66)scale(0.24 -0.24)">
     <defs>
      <path d="M 39.90625 43.1875 
C 37.5 43.1875 30.09375 43.1875 28.203125 42.796875 
C 27.59375 42.578125 27.40625 42.578125 26.203125 42.578125 
L 14.796875 42.578125 
L 14.796875 54.203125 
C 14.796875 63.640625 22.40625 68 28.40625 68 
C 30.296875 68 34.59375 67.5 36.796875 64.078125 
C 35.796875 64.078125 32.59375 64.078125 32.59375 60.59375 
C 32.59375 58.203125 34.203125 57 36.203125 57 
C 38 57 39.796875 58 39.796875 60.703125 
C 39.796875 65.703125 35 69.59375 28.796875 69.59375 
C 20.90625 69.59375 9.90625 65.125 9.90625 54.203125 
L 9.90625 42.578125 
L 1.90625 42.578125 
L 1.90625 40 
L 9.90625 40 
L 9.90625 6.671875 
C 9.90625 2.875 9.5 2.390625 3.09375 2.390625 
L 3.09375 -0.203125 
C 5.5 0 9.90625 0 12.40625 0 
C 15 0 19.40625 0 21.796875 -0.203125 
L 21.796875 2.390625 
C 15.40625 2.390625 15 2.78125 15 6.671875 
L 15 40 
L 29.703125 40 
C 34 40 34.796875 39.09375 34.796875 34.71875 
L 34.796875 6.671875 
C 34.796875 2.875 34.40625 2.390625 28 2.390625 
L 28 -0.203125 
C 30.40625 0 34.796875 0 37.296875 0 
C 39.90625 0 44.296875 0 46.703125 -0.203125 
L 46.703125 2.390625 
C 40.296875 2.390625 39.90625 2.78125 39.90625 6.671875 
z
" id="CMR17-12"/>
      <path d="M 15.09375 40 
L 29.09375 40 
L 29.09375 42.578125 
L 15.09375 42.578125 
L 15.09375 61 
L 13.296875 61 
C 13.09375 50.703125 9.59375 41.6875 1.09375 41.6875 
L 1.09375 40 
L 9.796875 40 
L 9.796875 12.046875 
C 9.796875 10.15625 9.796875 -1 21.40625 -1 
C 27.296875 -1 30.703125 4.78125 30.703125 12.140625 
L 30.703125 17.8125 
L 28.90625 17.8125 
L 28.90625 12.234375 
C 28.90625 5.375 26.203125 0.796875 22 0.796875 
C 19.09375 0.796875 15.09375 2.78125 15.09375 11.84375 
z
" id="CMR17-116"/>
      <path d="M 42.90625 71.28125 
C 42.90625 71.390625 43.5 72.90625 43.5 73.09375 
C 43.5 74.296875 42.5 75 41.703125 75 
C 41.203125 75 40.296875 75 39.5 72.796875 
L 6 -21.296875 
C 6 -21.40625 5.40625 -22.890625 5.40625 -23.09375 
C 5.40625 -24.296875 6.40625 -25 7.203125 -25 
C 7.796875 -25 8.703125 -24.890625 9.40625 -22.796875 
z
" id="CMMI12-61"/>
      <path d="M 50.796875 37.625 
C 52.09375 37.625 55.40625 37.625 55.40625 40.8125 
C 55.40625 43 53.5 43 51.703125 43 
L 29.59375 43 
C 14.59375 43 3.796875 26.34375 3.796875 14.5625 
C 3.796875 6.09375 9.296875 -1 18.296875 -1 
C 30.09375 -1 43 11.671875 43 26.640625 
C 43 30.53125 42.09375 34.3125 39.703125 37.625 
z
M 18.40625 1 
C 13.296875 1 9.59375 4.890625 9.59375 11.78125 
C 9.59375 17.765625 13.203125 37.625 27.90625 37.625 
C 32.203125 37.625 37 35.53125 37 27.828125 
C 37 24.34375 35.40625 15.953125 31.90625 10.1875 
C 28.296875 4.296875 22.90625 1 18.40625 1 
z
" id="CMMI12-27"/>
     </defs>
     <use transform="scale(0.996264)" xlink:href="#CMR17-40"/>
     <use transform="translate(35.280768 0)scale(0.996264)" xlink:href="#CMMI12-67"/>
     <use transform="translate(105.072804 -14.943915)scale(0.697382)" xlink:href="#CMR17-12"/>
     <use transform="translate(139.892198 -14.943915)scale(0.697382)" xlink:href="#CMR17-116"/>
     <use transform="translate(165.08675 0)scale(0.996264)" xlink:href="#CMR17-40"/>
     <use transform="translate(200.367518 0)scale(0.996264)" xlink:href="#CMMI12-116"/>
     <use transform="translate(235.593849 0)scale(0.996264)" xlink:href="#CMR17-41"/>
     <use transform="translate(293.013823 0)scale(0.996264)" xlink:href="#CMSY10-0"/>
     <use transform="translate(392.640498 0)scale(0.996264)" xlink:href="#CMMI12-67"/>
     <use transform="translate(469.587345 0)scale(0.996264)" xlink:href="#CMR17-40"/>
     <use transform="translate(504.868112 0)scale(0.996264)" xlink:href="#CMMI12-116"/>
     <use transform="translate(540.094443 0)scale(0.996264)" xlink:href="#CMR17-41"/>
     <use transform="translate(575.37521 0)scale(0.996264)" xlink:href="#CMR17-41"/>
     <use transform="translate(610.655978 0)scale(0.996264)" xlink:href="#CMMI12-61"/>
     <use transform="translate(659.430897 0)scale(0.996264)" xlink:href="#CMMI12-27"/>
     <use transform="translate(714.876358 -14.943915)scale(0.697382)" xlink:href="#CMMI12-116"/>
    </g>
   </g>
  </g>
  <g id="axes_3">
   <g id="patch_12">
    <path d="M 90.476779 391.019796 
L 355.56763 391.019796 
L 355.56763 267.811139 
L 90.476779 267.811139 
z
" style="fill:#ffffff;"/>
   </g>
   <g id="matplotlib.axis_5">
    <g id="xtick_5">
     <g id="line2d_16">
      <g>
       <use style="stroke:#000000;stroke-width:0.8;" x="162.774284" xlink:href="#me57e3674d6" y="391.019796"/>
      </g>
     </g>
     <g id="text_13">
      <!-- $\mathdefault{5}$ -->
      <g transform="translate(158.87229 409.089385)scale(0.16 -0.16)">
       <use transform="scale(0.996264)" xlink:href="#CMR17-53"/>
      </g>
     </g>
    </g>
    <g id="xtick_6">
     <g id="line2d_17">
      <g>
       <use style="stroke:#000000;stroke-width:0.8;" x="263.187485" xlink:href="#me57e3674d6" y="391.019796"/>
      </g>
     </g>
     <g id="text_14">
      <!-- $\mathdefault{10}$ -->
      <g transform="translate(255.383498 409.089385)scale(0.16 -0.16)">
       <use transform="scale(0.996264)" xlink:href="#CMR17-49"/>
       <use transform="translate(45.690477 0)scale(0.996264)" xlink:href="#CMR17-48"/>
      </g>
     </g>
    </g>
   </g>
   <g id="matplotlib.axis_6">
    <g id="ytick_6">
     <g id="line2d_18">
      <g>
       <use style="stroke:#000000;stroke-width:0.8;" x="90.476779" xlink:href="#md26bdbd217" y="387.150632"/>
      </g>
     </g>
     <g id="text_15">
      <!-- $\mathdefault{0}$ -->
      <g transform="translate(75.672792 392.685426)scale(0.16 -0.16)">
       <use transform="scale(0.996264)" xlink:href="#CMR17-48"/>
      </g>
     </g>
    </g>
    <g id="ytick_7">
     <g id="line2d_19">
      <g>
       <use style="stroke:#000000;stroke-width:0.8;" x="90.476779" xlink:href="#md26bdbd217" y="320.936844"/>
      </g>
     </g>
     <g id="text_16">
      <!-- $\mathdefault{20}$ -->
      <g transform="translate(67.868805 326.471639)scale(0.16 -0.16)">
       <use transform="scale(0.996264)" xlink:href="#CMR17-50"/>
       <use transform="translate(45.690477 0)scale(0.996264)" xlink:href="#CMR17-48"/>
      </g>
     </g>
    </g>
    <g id="text_17">
     <!-- (2, 14) -->
     <g transform="translate(57.911226 360.925061)rotate(-90)scale(0.24 -0.24)">
      <defs>
       <path d="M 33.59375 64.40625 
C 33.59375 66.5 33.5 66.5 31.703125 66.5 
L 2 19.59375 
L 2 17 
L 27.796875 17 
L 27.796875 7.140625 
C 27.796875 3.5 27.59375 2.5 20.59375 2.5 
L 18.703125 2.5 
L 18.703125 0 
C 21.90625 0 27.296875 0 30.703125 0 
C 34.09375 0 39.5 0 42.703125 0 
L 42.703125 2.5 
L 40.796875 2.5 
C 33.796875 2.5 33.59375 3.5 33.59375 7.140625 
L 33.59375 17 
L 43.796875 17 
L 43.796875 19.59375 
L 33.59375 19.59375 
z
M 28.09375 57.859375 
L 28.09375 19.59375 
L 4 19.59375 
z
" id="CMR17-52"/>
      </defs>
      <use transform="scale(0.996264)" xlink:href="#CMR17-40"/>
      <use transform="translate(35.280768 0)scale(0.996264)" xlink:href="#CMR17-50"/>
      <use transform="translate(80.971245 0)scale(0.996264)" xlink:href="#CMR17-44"/>
      <use transform="translate(135.91827 0)scale(0.996264)" xlink:href="#CMR17-49"/>
      <use transform="translate(181.608747 0)scale(0.996264)" xlink:href="#CMR17-52"/>
      <use transform="translate(227.299224 0)scale(0.996264)" xlink:href="#CMR17-41"/>
     </g>
    </g>
   </g>
   <g id="LineCollection_6">
    <path clip-path="url(#pa9ba7a9d35)" d="M 102.526363 273.698478 
L 102.526363 273.411533 
" style="fill:none;stroke:#ff0000;stroke-opacity:0.2;stroke-width:2;"/>
    <path clip-path="url(#pa9ba7a9d35)" d="M 122.609003 321.996029 
L 122.609003 321.772001 
" style="fill:none;stroke:#ff0000;stroke-opacity:0.2;stroke-width:2;"/>
    <path clip-path="url(#pa9ba7a9d35)" d="M 142.691644 346.745554 
L 142.691644 346.587515 
" style="fill:none;stroke:#ff0000;stroke-opacity:0.2;stroke-width:2;"/>
    <path clip-path="url(#pa9ba7a9d35)" d="M 162.774284 360.543835 
L 162.774284 360.4148 
" style="fill:none;stroke:#ff0000;stroke-opacity:0.2;stroke-width:2;"/>
    <path clip-path="url(#pa9ba7a9d35)" d="M 182.856924 368.878803 
L 182.856924 368.763038 
" style="fill:none;stroke:#ff0000;stroke-opacity:0.2;stroke-width:2;"/>
    <path clip-path="url(#pa9ba7a9d35)" d="M 202.939564 374.248951 
L 202.939564 374.154149 
" style="fill:none;stroke:#ff0000;stroke-opacity:0.2;stroke-width:2;"/>
    <path clip-path="url(#pa9ba7a9d35)" d="M 223.022205 377.875941 
L 223.022205 377.803109 
" style="fill:none;stroke:#ff0000;stroke-opacity:0.2;stroke-width:2;"/>
    <path clip-path="url(#pa9ba7a9d35)" d="M 243.104845 380.401695 
L 243.104845 380.344738 
" style="fill:none;stroke:#ff0000;stroke-opacity:0.2;stroke-width:2;"/>
    <path clip-path="url(#pa9ba7a9d35)" d="M 263.187485 382.190006 
L 263.187485 382.141375 
" style="fill:none;stroke:#ff0000;stroke-opacity:0.2;stroke-width:2;"/>
    <path clip-path="url(#pa9ba7a9d35)" d="M 283.270125 383.461811 
L 283.270125 383.416573 
" style="fill:none;stroke:#ff0000;stroke-opacity:0.2;stroke-width:2;"/>
    <path clip-path="url(#pa9ba7a9d35)" d="M 303.352766 384.359217 
L 303.352766 384.315427 
" style="fill:none;stroke:#ff0000;stroke-opacity:0.2;stroke-width:2;"/>
    <path clip-path="url(#pa9ba7a9d35)" d="M 323.435406 384.977014 
L 323.435406 384.934205 
" style="fill:none;stroke:#ff0000;stroke-opacity:0.2;stroke-width:2;"/>
    <path clip-path="url(#pa9ba7a9d35)" d="M 343.518046 385.378577 
L 343.518046 385.336614 
" style="fill:none;stroke:#ff0000;stroke-opacity:0.2;stroke-width:2;"/>
   </g>
   <g id="LineCollection_7">
    <path clip-path="url(#pa9ba7a9d35)" d="M 102.526363 273.698478 
L 102.526363 273.411533 
" style="fill:none;stroke:#ff0000;stroke-width:2;"/>
    <path clip-path="url(#pa9ba7a9d35)" d="M 122.609003 321.996029 
L 122.609003 321.772001 
" style="fill:none;stroke:#ff0000;stroke-width:2;"/>
    <path clip-path="url(#pa9ba7a9d35)" d="M 142.691644 346.745554 
L 142.691644 346.587515 
" style="fill:none;stroke:#ff0000;stroke-width:2;"/>
    <path clip-path="url(#pa9ba7a9d35)" d="M 162.774284 360.543835 
L 162.774284 360.4148 
" style="fill:none;stroke:#ff0000;stroke-width:2;"/>
    <path clip-path="url(#pa9ba7a9d35)" d="M 182.856924 368.878803 
L 182.856924 368.763038 
" style="fill:none;stroke:#ff0000;stroke-width:2;"/>
    <path clip-path="url(#pa9ba7a9d35)" d="M 202.939564 374.248951 
L 202.939564 374.154149 
" style="fill:none;stroke:#ff0000;stroke-width:2;"/>
    <path clip-path="url(#pa9ba7a9d35)" d="M 223.022205 377.875941 
L 223.022205 377.803109 
" style="fill:none;stroke:#ff0000;stroke-width:2;"/>
    <path clip-path="url(#pa9ba7a9d35)" d="M 243.104845 380.401695 
L 243.104845 380.344738 
" style="fill:none;stroke:#ff0000;stroke-width:2;"/>
    <path clip-path="url(#pa9ba7a9d35)" d="M 263.187485 382.190006 
L 263.187485 382.141375 
" style="fill:none;stroke:#ff0000;stroke-width:2;"/>
    <path clip-path="url(#pa9ba7a9d35)" d="M 283.270125 383.461811 
L 283.270125 383.416573 
" style="fill:none;stroke:#ff0000;stroke-width:2;"/>
    <path clip-path="url(#pa9ba7a9d35)" d="M 303.352766 384.359217 
L 303.352766 384.315427 
" style="fill:none;stroke:#ff0000;stroke-width:2;"/>
    <path clip-path="url(#pa9ba7a9d35)" d="M 323.435406 384.977014 
L 323.435406 384.934205 
" style="fill:none;stroke:#ff0000;stroke-width:2;"/>
   </g>
   <g id="LineCollection_8">
    <path clip-path="url(#pa9ba7a9d35)" d="M 102.526363 273.706928 
L 102.526363 273.414758 
" style="fill:none;stroke:#000000;stroke-width:2;"/>
    <path clip-path="url(#pa9ba7a9d35)" d="M 122.609003 322.032756 
L 122.609003 321.757633 
" style="fill:none;stroke:#000000;stroke-width:2;"/>
    <path clip-path="url(#pa9ba7a9d35)" d="M 142.691644 346.743829 
L 142.691644 346.484879 
" style="fill:none;stroke:#000000;stroke-width:2;"/>
    <path clip-path="url(#pa9ba7a9d35)" d="M 162.774284 360.656352 
L 162.774284 360.396696 
" style="fill:none;stroke:#000000;stroke-width:2;"/>
    <path clip-path="url(#pa9ba7a9d35)" d="M 182.856924 368.989575 
L 182.856924 368.76917 
" style="fill:none;stroke:#000000;stroke-width:2;"/>
    <path clip-path="url(#pa9ba7a9d35)" d="M 202.939564 374.319932 
L 202.939564 374.130067 
" style="fill:none;stroke:#000000;stroke-width:2;"/>
    <path clip-path="url(#pa9ba7a9d35)" d="M 223.022205 377.898656 
L 223.022205 377.740129 
" style="fill:none;stroke:#000000;stroke-width:2;"/>
    <path clip-path="url(#pa9ba7a9d35)" d="M 243.104845 380.414745 
L 243.104845 380.270635 
" style="fill:none;stroke:#000000;stroke-width:2;"/>
    <path clip-path="url(#pa9ba7a9d35)" d="M 263.187485 382.202979 
L 263.187485 382.083929 
" style="fill:none;stroke:#000000;stroke-width:2;"/>
    <path clip-path="url(#pa9ba7a9d35)" d="M 283.270125 383.477312 
L 283.270125 383.383029 
" style="fill:none;stroke:#000000;stroke-width:2;"/>
    <path clip-path="url(#pa9ba7a9d35)" d="M 303.352766 384.389059 
L 303.352766 384.298903 
" style="fill:none;stroke:#000000;stroke-width:2;"/>
    <path clip-path="url(#pa9ba7a9d35)" d="M 323.435406 385.013541 
L 323.435406 384.936495 
" style="fill:none;stroke:#000000;stroke-width:2;"/>
    <path clip-path="url(#pa9ba7a9d35)" d="M 343.518046 385.419403 
L 343.518046 385.354039 
" style="fill:none;stroke:#000000;stroke-width:2;"/>
   </g>
   <g id="line2d_20">
    <path clip-path="url(#pa9ba7a9d35)" d="M 102.526363 273.555005 
L 122.609003 321.884015 
L 142.691644 346.666534 
L 162.774284 360.479317 
L 182.856924 368.820921 
L 202.939564 374.20155 
L 223.022205 377.839525 
L 243.104845 380.373217 
L 263.187485 382.165691 
L 283.270125 383.439192 
L 303.352766 384.337322 
L 323.435406 384.95561 
L 343.518046 385.357595 
" style="fill:none;stroke:#ff0000;stroke-linecap:square;stroke-opacity:0.2;stroke-width:2;"/>
    <g clip-path="url(#pa9ba7a9d35)">
     <use style="fill:#ff0000;fill-opacity:0.2;stroke:#ff0000;stroke-opacity:0.2;" x="102.526363" xlink:href="#m24597be334" y="273.555005"/>
     <use style="fill:#ff0000;fill-opacity:0.2;stroke:#ff0000;stroke-opacity:0.2;" x="122.609003" xlink:href="#m24597be334" y="321.884015"/>
     <use style="fill:#ff0000;fill-opacity:0.2;stroke:#ff0000;stroke-opacity:0.2;" x="142.691644" xlink:href="#m24597be334" y="346.666534"/>
     <use style="fill:#ff0000;fill-opacity:0.2;stroke:#ff0000;stroke-opacity:0.2;" x="162.774284" xlink:href="#m24597be334" y="360.479317"/>
     <use style="fill:#ff0000;fill-opacity:0.2;stroke:#ff0000;stroke-opacity:0.2;" x="182.856924" xlink:href="#m24597be334" y="368.820921"/>
     <use style="fill:#ff0000;fill-opacity:0.2;stroke:#ff0000;stroke-opacity:0.2;" x="202.939564" xlink:href="#m24597be334" y="374.20155"/>
     <use style="fill:#ff0000;fill-opacity:0.2;stroke:#ff0000;stroke-opacity:0.2;" x="223.022205" xlink:href="#m24597be334" y="377.839525"/>
     <use style="fill:#ff0000;fill-opacity:0.2;stroke:#ff0000;stroke-opacity:0.2;" x="243.104845" xlink:href="#m24597be334" y="380.373217"/>
     <use style="fill:#ff0000;fill-opacity:0.2;stroke:#ff0000;stroke-opacity:0.2;" x="263.187485" xlink:href="#m24597be334" y="382.165691"/>
     <use style="fill:#ff0000;fill-opacity:0.2;stroke:#ff0000;stroke-opacity:0.2;" x="283.270125" xlink:href="#m24597be334" y="383.439192"/>
     <use style="fill:#ff0000;fill-opacity:0.2;stroke:#ff0000;stroke-opacity:0.2;" x="303.352766" xlink:href="#m24597be334" y="384.337322"/>
     <use style="fill:#ff0000;fill-opacity:0.2;stroke:#ff0000;stroke-opacity:0.2;" x="323.435406" xlink:href="#m24597be334" y="384.95561"/>
     <use style="fill:#ff0000;fill-opacity:0.2;stroke:#ff0000;stroke-opacity:0.2;" x="343.518046" xlink:href="#m24597be334" y="385.357595"/>
    </g>
   </g>
   <g id="line2d_21">
    <path clip-path="url(#pa9ba7a9d35)" d="M 102.526363 273.555005 
L 122.609003 321.884015 
L 142.691644 346.666534 
L 162.774284 360.479317 
L 182.856924 368.820921 
L 202.939564 374.20155 
L 223.022205 377.839525 
L 243.104845 380.373217 
L 263.187485 382.165691 
L 283.270125 383.439192 
L 303.352766 384.337322 
L 323.435406 384.95561 
" style="fill:none;stroke:#ff0000;stroke-linecap:square;stroke-width:2;"/>
    <g clip-path="url(#pa9ba7a9d35)">
     <use style="fill:#ff0000;stroke:#ff0000;" x="102.526363" xlink:href="#m2878654fc5" y="273.555005"/>
     <use style="fill:#ff0000;stroke:#ff0000;" x="122.609003" xlink:href="#m2878654fc5" y="321.884015"/>
     <use style="fill:#ff0000;stroke:#ff0000;" x="142.691644" xlink:href="#m2878654fc5" y="346.666534"/>
     <use style="fill:#ff0000;stroke:#ff0000;" x="162.774284" xlink:href="#m2878654fc5" y="360.479317"/>
     <use style="fill:#ff0000;stroke:#ff0000;" x="182.856924" xlink:href="#m2878654fc5" y="368.820921"/>
     <use style="fill:#ff0000;stroke:#ff0000;" x="202.939564" xlink:href="#m2878654fc5" y="374.20155"/>
     <use style="fill:#ff0000;stroke:#ff0000;" x="223.022205" xlink:href="#m2878654fc5" y="377.839525"/>
     <use style="fill:#ff0000;stroke:#ff0000;" x="243.104845" xlink:href="#m2878654fc5" y="380.373217"/>
     <use style="fill:#ff0000;stroke:#ff0000;" x="263.187485" xlink:href="#m2878654fc5" y="382.165691"/>
     <use style="fill:#ff0000;stroke:#ff0000;" x="283.270125" xlink:href="#m2878654fc5" y="383.439192"/>
     <use style="fill:#ff0000;stroke:#ff0000;" x="303.352766" xlink:href="#m2878654fc5" y="384.337322"/>
     <use style="fill:#ff0000;stroke:#ff0000;" x="323.435406" xlink:href="#m2878654fc5" y="384.95561"/>
    </g>
   </g>
   <g id="line2d_22">
    <g clip-path="url(#pa9ba7a9d35)">
     <use style="stroke:#000000;" x="102.526363" xlink:href="#m3aee93c136" y="273.560843"/>
     <use style="stroke:#000000;" x="122.609003" xlink:href="#m3aee93c136" y="321.895195"/>
     <use style="stroke:#000000;" x="142.691644" xlink:href="#m3aee93c136" y="346.614354"/>
     <use style="stroke:#000000;" x="162.774284" xlink:href="#m3aee93c136" y="360.526524"/>
     <use style="stroke:#000000;" x="182.856924" xlink:href="#m3aee93c136" y="368.879372"/>
     <use style="stroke:#000000;" x="202.939564" xlink:href="#m3aee93c136" y="374.225"/>
     <use style="stroke:#000000;" x="223.022205" xlink:href="#m3aee93c136" y="377.819392"/>
     <use style="stroke:#000000;" x="243.104845" xlink:href="#m3aee93c136" y="380.34269"/>
     <use style="stroke:#000000;" x="263.187485" xlink:href="#m3aee93c136" y="382.143454"/>
     <use style="stroke:#000000;" x="283.270125" xlink:href="#m3aee93c136" y="383.43017"/>
     <use style="stroke:#000000;" x="303.352766" xlink:href="#m3aee93c136" y="384.343981"/>
     <use style="stroke:#000000;" x="323.435406" xlink:href="#m3aee93c136" y="384.975018"/>
     <use style="stroke:#000000;" x="343.518046" xlink:href="#m3aee93c136" y="385.386721"/>
    </g>
   </g>
   <g id="patch_13">
    <path d="M 90.476779 391.019796 
L 90.476779 267.811139 
" style="fill:none;stroke:#000000;stroke-linecap:square;stroke-linejoin:miter;stroke-width:0.8;"/>
   </g>
   <g id="patch_14">
    <path d="M 355.56763 391.019796 
L 355.56763 267.811139 
" style="fill:none;stroke:#000000;stroke-linecap:square;stroke-linejoin:miter;stroke-width:0.8;"/>
   </g>
   <g id="patch_15">
    <path d="M 90.476779 391.019796 
L 355.56763 391.019796 
" style="fill:none;stroke:#000000;stroke-linecap:square;stroke-linejoin:miter;stroke-width:0.8;"/>
   </g>
   <g id="patch_16">
    <path d="M 90.476779 267.811139 
L 355.56763 267.811139 
" style="fill:none;stroke:#000000;stroke-linecap:square;stroke-linejoin:miter;stroke-width:0.8;"/>
   </g>
   <g id="text_18">
    <!-- $C(t)$ -->
    <g transform="translate(201.094052 261.811139)scale(0.24 -0.24)">
     <use transform="scale(0.996264)" xlink:href="#CMMI12-67"/>
     <use transform="translate(76.946847 0)scale(0.996264)" xlink:href="#CMR17-40"/>
     <use transform="translate(112.227614 0)scale(0.996264)" xlink:href="#CMMI12-116"/>
     <use transform="translate(147.453945 0)scale(0.996264)" xlink:href="#CMR17-41"/>
    </g>
   </g>
  </g>
  <g id="axes_4">
   <g id="patch_17">
    <path d="M 414.909149 391.019796 
L 680 391.019796 
L 680 267.811139 
L 414.909149 267.811139 
z
" style="fill:#ffffff;"/>
   </g>
   <g id="matplotlib.axis_7">
    <g id="xtick_7">
     <g id="line2d_23">
      <g>
       <use style="stroke:#000000;stroke-width:0.8;" x="487.206654" xlink:href="#me57e3674d6" y="391.019796"/>
      </g>
     </g>
     <g id="text_19">
      <!-- $\mathdefault{5}$ -->
      <g transform="translate(483.30466 409.089385)scale(0.16 -0.16)">
       <use transform="scale(0.996264)" xlink:href="#CMR17-53"/>
      </g>
     </g>
    </g>
    <g id="xtick_8">
     <g id="line2d_24">
      <g>
       <use style="stroke:#000000;stroke-width:0.8;" x="587.619855" xlink:href="#me57e3674d6" y="391.019796"/>
      </g>
     </g>
     <g id="text_20">
      <!-- $\mathdefault{10}$ -->
      <g transform="translate(579.815868 409.089385)scale(0.16 -0.16)">
       <use transform="scale(0.996264)" xlink:href="#CMR17-49"/>
       <use transform="translate(45.690477 0)scale(0.996264)" xlink:href="#CMR17-48"/>
      </g>
     </g>
    </g>
   </g>
   <g id="matplotlib.axis_8">
    <g id="ytick_8">
     <g id="line2d_25">
      <g>
       <use style="stroke:#000000;stroke-width:0.8;" x="414.909149" xlink:href="#md26bdbd217" y="391.019796"/>
      </g>
     </g>
     <g id="text_21">
      <!-- $\mathdefault{−5}$ -->
      <g transform="translate(387.707166 396.55459)scale(0.16 -0.16)">
       <use transform="scale(0.996264)" xlink:href="#CMSY10-0"/>
       <use transform="translate(77.487468 0)scale(0.996264)" xlink:href="#CMR17-53"/>
      </g>
     </g>
    </g>
    <g id="ytick_9">
     <g id="line2d_26">
      <g>
       <use style="stroke:#000000;stroke-width:0.8;" x="414.909149" xlink:href="#md26bdbd217" y="329.415468"/>
      </g>
     </g>
     <g id="text_22">
      <!-- $\mathdefault{0}$ -->
      <g transform="translate(400.105162 334.950262)scale(0.16 -0.16)">
       <use transform="scale(0.996264)" xlink:href="#CMR17-48"/>
      </g>
     </g>
    </g>
    <g id="ytick_10">
     <g id="line2d_27">
      <g>
       <use style="stroke:#000000;stroke-width:0.8;" x="414.909149" xlink:href="#md26bdbd217" y="267.811139"/>
      </g>
     </g>
     <g id="text_23">
      <!-- $\mathdefault{5}$ -->
      <g transform="translate(400.105162 273.345933)scale(0.16 -0.16)">
       <use transform="scale(0.996264)" xlink:href="#CMR17-53"/>
      </g>
     </g>
    </g>
   </g>
   <g id="LineCollection_9">
    <path clip-path="url(#p4faaa0f1c6)" d="M 426.958733 341.023622 
L 426.958733 316.822604 
" style="fill:none;stroke:#ff0000;stroke-opacity:0.2;stroke-width:2;"/>
    <path clip-path="url(#p4faaa0f1c6)" d="M 447.041373 338.446838 
L 447.041373 318.381537 
" style="fill:none;stroke:#ff0000;stroke-opacity:0.2;stroke-width:2;"/>
    <path clip-path="url(#p4faaa0f1c6)" d="M 467.124013 341.900521 
L 467.124013 326.861451 
" style="fill:none;stroke:#ff0000;stroke-opacity:0.2;stroke-width:2;"/>
    <path clip-path="url(#p4faaa0f1c6)" d="M 487.206654 331.058241 
L 487.206654 318.812702 
" style="fill:none;stroke:#ff0000;stroke-opacity:0.2;stroke-width:2;"/>
    <path clip-path="url(#p4faaa0f1c6)" d="M 507.289294 329.35183 
L 507.289294 316.409076 
" style="fill:none;stroke:#ff0000;stroke-opacity:0.2;stroke-width:2;"/>
    <path clip-path="url(#p4faaa0f1c6)" d="M 527.371934 332.523981 
L 527.371934 320.220031 
" style="fill:none;stroke:#ff0000;stroke-opacity:0.2;stroke-width:2;"/>
    <path clip-path="url(#p4faaa0f1c6)" d="M 547.454574 338.205545 
L 547.454574 326.884375 
" style="fill:none;stroke:#ff0000;stroke-opacity:0.2;stroke-width:2;"/>
    <path clip-path="url(#p4faaa0f1c6)" d="M 567.537215 339.504902 
L 567.537215 329.765716 
" style="fill:none;stroke:#ff0000;stroke-opacity:0.2;stroke-width:2;"/>
    <path clip-path="url(#p4faaa0f1c6)" d="M 587.619855 339.051149 
L 587.619855 328.985268 
" style="fill:none;stroke:#ff0000;stroke-opacity:0.2;stroke-width:2;"/>
    <path clip-path="url(#p4faaa0f1c6)" d="M 607.702495 337.685021 
L 607.702495 325.861595 
" style="fill:none;stroke:#ff0000;stroke-opacity:0.2;stroke-width:2;"/>
    <path clip-path="url(#p4faaa0f1c6)" d="M 627.785135 333.5798 
L 627.785135 321.611071 
" style="fill:none;stroke:#ff0000;stroke-opacity:0.2;stroke-width:2;"/>
    <path clip-path="url(#p4faaa0f1c6)" d="M 647.867776 330.053974 
L 647.867776 316.36217 
" style="fill:none;stroke:#ff0000;stroke-opacity:0.2;stroke-width:2;"/>
    <path clip-path="url(#p4faaa0f1c6)" d="M 667.950416 326.345321 
L 667.950416 310.525223 
" style="fill:none;stroke:#ff0000;stroke-opacity:0.2;stroke-width:2;"/>
   </g>
   <g id="LineCollection_10">
    <path clip-path="url(#p4faaa0f1c6)" d="M 426.958733 341.023622 
L 426.958733 316.822604 
" style="fill:none;stroke:#ff0000;stroke-width:2;"/>
    <path clip-path="url(#p4faaa0f1c6)" d="M 447.041373 338.446838 
L 447.041373 318.381537 
" style="fill:none;stroke:#ff0000;stroke-width:2;"/>
    <path clip-path="url(#p4faaa0f1c6)" d="M 467.124013 341.900521 
L 467.124013 326.861451 
" style="fill:none;stroke:#ff0000;stroke-width:2;"/>
    <path clip-path="url(#p4faaa0f1c6)" d="M 487.206654 331.058241 
L 487.206654 318.812702 
" style="fill:none;stroke:#ff0000;stroke-width:2;"/>
    <path clip-path="url(#p4faaa0f1c6)" d="M 507.289294 329.35183 
L 507.289294 316.409076 
" style="fill:none;stroke:#ff0000;stroke-width:2;"/>
    <path clip-path="url(#p4faaa0f1c6)" d="M 527.371934 332.523981 
L 527.371934 320.220031 
" style="fill:none;stroke:#ff0000;stroke-width:2;"/>
    <path clip-path="url(#p4faaa0f1c6)" d="M 547.454574 338.205545 
L 547.454574 326.884375 
" style="fill:none;stroke:#ff0000;stroke-width:2;"/>
    <path clip-path="url(#p4faaa0f1c6)" d="M 567.537215 339.504902 
L 567.537215 329.765716 
" style="fill:none;stroke:#ff0000;stroke-width:2;"/>
    <path clip-path="url(#p4faaa0f1c6)" d="M 587.619855 339.051149 
L 587.619855 328.985268 
" style="fill:none;stroke:#ff0000;stroke-width:2;"/>
    <path clip-path="url(#p4faaa0f1c6)" d="M 607.702495 337.685021 
L 607.702495 325.861595 
" style="fill:none;stroke:#ff0000;stroke-width:2;"/>
    <path clip-path="url(#p4faaa0f1c6)" d="M 627.785135 333.5798 
L 627.785135 321.611071 
" style="fill:none;stroke:#ff0000;stroke-width:2;"/>
    <path clip-path="url(#p4faaa0f1c6)" d="M 647.867776 330.053974 
L 647.867776 316.36217 
" style="fill:none;stroke:#ff0000;stroke-width:2;"/>
   </g>
   <g id="line2d_28">
    <path clip-path="url(#p4faaa0f1c6)" d="M 414.909149 329.415468 
L 680 329.415468 
" style="fill:none;stroke:#000000;stroke-linecap:square;stroke-width:2;"/>
   </g>
   <g id="line2d_29">
    <path clip-path="url(#p4faaa0f1c6)" d="M 426.958733 328.923113 
L 447.041373 328.414187 
L 467.124013 334.380986 
L 487.206654 324.935471 
L 507.289294 322.880453 
L 527.371934 326.372006 
L 547.454574 332.54496 
L 567.537215 334.635309 
L 587.619855 334.018209 
L 607.702495 331.773308 
L 627.785135 327.595436 
L 647.867776 323.208072 
L 667.950416 318.435272 
" style="fill:none;stroke:#ff0000;stroke-linecap:square;stroke-opacity:0.2;stroke-width:2;"/>
   </g>
   <g id="line2d_30">
    <path clip-path="url(#p4faaa0f1c6)" d="M 426.958733 328.923113 
L 447.041373 328.414187 
L 467.124013 334.380986 
L 487.206654 324.935471 
L 507.289294 322.880453 
L 527.371934 326.372006 
L 547.454574 332.54496 
L 567.537215 334.635309 
L 587.619855 334.018209 
L 607.702495 331.773308 
L 627.785135 327.595436 
L 647.867776 323.208072 
" style="fill:none;stroke:#ff0000;stroke-linecap:square;stroke-width:2;"/>
   </g>
   <g id="patch_18">
    <path d="M 414.909149 391.019796 
L 414.909149 267.811139 
" style="fill:none;stroke:#000000;stroke-linecap:square;stroke-linejoin:miter;stroke-width:0.8;"/>
   </g>
   <g id="patch_19">
    <path d="M 680 391.019796 
L 680 267.811139 
" style="fill:none;stroke:#000000;stroke-linecap:square;stroke-linejoin:miter;stroke-width:0.8;"/>
   </g>
   <g id="patch_20">
    <path d="M 414.909149 391.019796 
L 680 391.019796 
" style="fill:none;stroke:#000000;stroke-linecap:square;stroke-linejoin:miter;stroke-width:0.8;"/>
   </g>
   <g id="patch_21">
    <path d="M 414.909149 267.811139 
L 680 267.811139 
" style="fill:none;stroke:#000000;stroke-linecap:square;stroke-linejoin:miter;stroke-width:0.8;"/>
   </g>
   <g id="text_24">
    <!-- $(C_{\rm fit}(t) - C(t))/\sigma_t$ -->
    <g transform="translate(457.924156 261.811139)scale(0.24 -0.24)">
     <use transform="scale(0.996264)" xlink:href="#CMR17-40"/>
     <use transform="translate(35.280768 0)scale(0.996264)" xlink:href="#CMMI12-67"/>
     <use transform="translate(105.072804 -14.943915)scale(0.697382)" xlink:href="#CMR17-12"/>
     <use transform="translate(139.892198 -14.943915)scale(0.697382)" xlink:href="#CMR17-116"/>
     <use transform="translate(165.08675 0)scale(0.996264)" xlink:href="#CMR17-40"/>
     <use transform="translate(200.367518 0)scale(0.996264)" xlink:href="#CMMI12-116"/>
     <use transform="translate(235.593849 0)scale(0.996264)" xlink:href="#CMR17-41"/>
     <use transform="translate(293.013823 0)scale(0.996264)" xlink:href="#CMSY10-0"/>
     <use transform="translate(392.640498 0)scale(0.996264)" xlink:href="#CMMI12-67"/>
     <use transform="translate(469.587345 0)scale(0.996264)" xlink:href="#CMR17-40"/>
     <use transform="translate(504.868112 0)scale(0.996264)" xlink:href="#CMMI12-116"/>
     <use transform="translate(540.094443 0)scale(0.996264)" xlink:href="#CMR17-41"/>
     <use transform="translate(575.37521 0)scale(0.996264)" xlink:href="#CMR17-41"/>
     <use transform="translate(610.655978 0)scale(0.996264)" xlink:href="#CMMI12-61"/>
     <use transform="translate(659.430897 0)scale(0.996264)" xlink:href="#CMMI12-27"/>
     <use transform="translate(714.876358 -14.943915)scale(0.697382)" xlink:href="#CMMI12-116"/>
    </g>
   </g>
  </g>
  <g id="axes_5">
   <g id="patch_22">
    <path d="M 90.476779 586.830936 
L 355.56763 586.830936 
L 355.56763 463.622278 
L 90.476779 463.622278 
z
" style="fill:#ffffff;"/>
   </g>
   <g id="matplotlib.axis_9">
    <g id="xtick_9">
     <g id="line2d_31">
      <g>
       <use style="stroke:#000000;stroke-width:0.8;" x="162.774284" xlink:href="#me57e3674d6" y="586.830936"/>
      </g>
     </g>
     <g id="text_25">
      <!-- $\mathdefault{5}$ -->
      <g transform="translate(158.87229 604.900524)scale(0.16 -0.16)">
       <use transform="scale(0.996264)" xlink:href="#CMR17-53"/>
      </g>
     </g>
    </g>
    <g id="xtick_10">
     <g id="line2d_32">
      <g>
       <use style="stroke:#000000;stroke-width:0.8;" x="263.187485" xlink:href="#me57e3674d6" y="586.830936"/>
      </g>
     </g>
     <g id="text_26">
      <!-- $\mathdefault{10}$ -->
      <g transform="translate(255.383498 604.900524)scale(0.16 -0.16)">
       <use transform="scale(0.996264)" xlink:href="#CMR17-49"/>
       <use transform="translate(45.690477 0)scale(0.996264)" xlink:href="#CMR17-48"/>
      </g>
     </g>
    </g>
   </g>
   <g id="matplotlib.axis_10">
    <g id="ytick_11">
     <g id="line2d_33">
      <g>
       <use style="stroke:#000000;stroke-width:0.8;" x="90.476779" xlink:href="#md26bdbd217" y="582.943228"/>
      </g>
     </g>
     <g id="text_27">
      <!-- $\mathdefault{0}$ -->
      <g transform="translate(75.672792 588.478022)scale(0.16 -0.16)">
       <use transform="scale(0.996264)" xlink:href="#CMR17-48"/>
      </g>
     </g>
    </g>
    <g id="ytick_12">
     <g id="line2d_34">
      <g>
       <use style="stroke:#000000;stroke-width:0.8;" x="90.476779" xlink:href="#md26bdbd217" y="517.438675"/>
      </g>
     </g>
     <g id="text_28">
      <!-- $\mathdefault{20}$ -->
      <g transform="translate(67.868805 522.973469)scale(0.16 -0.16)">
       <use transform="scale(0.996264)" xlink:href="#CMR17-50"/>
       <use transform="translate(45.690477 0)scale(0.996264)" xlink:href="#CMR17-48"/>
      </g>
     </g>
    </g>
    <g id="text_29">
     <!-- (3, 14) -->
     <g transform="translate(57.911226 556.7362)rotate(-90)scale(0.24 -0.24)">
      <use transform="scale(0.996264)" xlink:href="#CMR17-40"/>
      <use transform="translate(35.280768 0)scale(0.996264)" xlink:href="#CMR17-51"/>
      <use transform="translate(80.971245 0)scale(0.996264)" xlink:href="#CMR17-44"/>
      <use transform="translate(135.91827 0)scale(0.996264)" xlink:href="#CMR17-49"/>
      <use transform="translate(181.608747 0)scale(0.996264)" xlink:href="#CMR17-52"/>
      <use transform="translate(227.299224 0)scale(0.996264)" xlink:href="#CMR17-41"/>
     </g>
    </g>
   </g>
   <g id="LineCollection_11">
    <path clip-path="url(#pdd4b439443)" d="M 102.526363 471.464221 
L 102.526363 469.222672 
" style="fill:none;stroke:#ff0000;stroke-opacity:0.2;stroke-width:2;"/>
    <path clip-path="url(#pdd4b439443)" d="M 122.609003 518.494501 
L 122.609003 518.232626 
" style="fill:none;stroke:#ff0000;stroke-opacity:0.2;stroke-width:2;"/>
    <path clip-path="url(#pdd4b439443)" d="M 142.691644 543.010211 
L 142.691644 542.80069 
" style="fill:none;stroke:#ff0000;stroke-opacity:0.2;stroke-width:2;"/>
    <path clip-path="url(#pdd4b439443)" d="M 162.774284 556.63545 
L 162.774284 556.490522 
" style="fill:none;stroke:#ff0000;stroke-opacity:0.2;stroke-width:2;"/>
    <path clip-path="url(#pdd4b439443)" d="M 182.856924 564.866324 
L 182.856924 564.751133 
" style="fill:none;stroke:#ff0000;stroke-opacity:0.2;stroke-width:2;"/>
    <path clip-path="url(#pdd4b439443)" d="M 202.939564 570.180001 
L 202.939564 570.078952 
" style="fill:none;stroke:#ff0000;stroke-opacity:0.2;stroke-width:2;"/>
    <path clip-path="url(#pdd4b439443)" d="M 223.022205 573.769403 
L 223.022205 573.688036 
" style="fill:none;stroke:#ff0000;stroke-opacity:0.2;stroke-width:2;"/>
    <path clip-path="url(#pdd4b439443)" d="M 243.104845 576.267434 
L 243.104845 576.205307 
" style="fill:none;stroke:#ff0000;stroke-opacity:0.2;stroke-width:2;"/>
    <path clip-path="url(#pdd4b439443)" d="M 263.187485 578.03564 
L 263.187485 577.985929 
" style="fill:none;stroke:#ff0000;stroke-opacity:0.2;stroke-width:2;"/>
    <path clip-path="url(#pdd4b439443)" d="M 283.270125 579.293918 
L 283.270125 579.249157 
" style="fill:none;stroke:#ff0000;stroke-opacity:0.2;stroke-width:2;"/>
    <path clip-path="url(#pdd4b439443)" d="M 303.352766 580.182628 
L 303.352766 580.138687 
" style="fill:none;stroke:#ff0000;stroke-opacity:0.2;stroke-width:2;"/>
    <path clip-path="url(#pdd4b439443)" d="M 323.435406 580.794832 
L 323.435406 580.750568 
" style="fill:none;stroke:#ff0000;stroke-opacity:0.2;stroke-width:2;"/>
    <path clip-path="url(#pdd4b439443)" d="M 343.518046 581.192871 
L 343.518046 581.148317 
" style="fill:none;stroke:#ff0000;stroke-opacity:0.2;stroke-width:2;"/>
   </g>
   <g id="LineCollection_12">
    <path clip-path="url(#pdd4b439443)" d="M 122.609003 518.494501 
L 122.609003 518.232626 
" style="fill:none;stroke:#ff0000;stroke-width:2;"/>
    <path clip-path="url(#pdd4b439443)" d="M 142.691644 543.010211 
L 142.691644 542.80069 
" style="fill:none;stroke:#ff0000;stroke-width:2;"/>
    <path clip-path="url(#pdd4b439443)" d="M 162.774284 556.63545 
L 162.774284 556.490522 
" style="fill:none;stroke:#ff0000;stroke-width:2;"/>
    <path clip-path="url(#pdd4b439443)" d="M 182.856924 564.866324 
L 182.856924 564.751133 
" style="fill:none;stroke:#ff0000;stroke-width:2;"/>
    <path clip-path="url(#pdd4b439443)" d="M 202.939564 570.180001 
L 202.939564 570.078952 
" style="fill:none;stroke:#ff0000;stroke-width:2;"/>
    <path clip-path="url(#pdd4b439443)" d="M 223.022205 573.769403 
L 223.022205 573.688036 
" style="fill:none;stroke:#ff0000;stroke-width:2;"/>
    <path clip-path="url(#pdd4b439443)" d="M 243.104845 576.267434 
L 243.104845 576.205307 
" style="fill:none;stroke:#ff0000;stroke-width:2;"/>
    <path clip-path="url(#pdd4b439443)" d="M 263.187485 578.03564 
L 263.187485 577.985929 
" style="fill:none;stroke:#ff0000;stroke-width:2;"/>
    <path clip-path="url(#pdd4b439443)" d="M 283.270125 579.293918 
L 283.270125 579.249157 
" style="fill:none;stroke:#ff0000;stroke-width:2;"/>
    <path clip-path="url(#pdd4b439443)" d="M 303.352766 580.182628 
L 303.352766 580.138687 
" style="fill:none;stroke:#ff0000;stroke-width:2;"/>
    <path clip-path="url(#pdd4b439443)" d="M 323.435406 580.794832 
L 323.435406 580.750568 
" style="fill:none;stroke:#ff0000;stroke-width:2;"/>
   </g>
   <g id="LineCollection_13">
    <path clip-path="url(#pdd4b439443)" d="M 102.526363 470.714651 
L 102.526363 470.425611 
" style="fill:none;stroke:#000000;stroke-width:2;"/>
    <path clip-path="url(#pdd4b439443)" d="M 122.609003 518.522848 
L 122.609003 518.250671 
" style="fill:none;stroke:#000000;stroke-width:2;"/>
    <path clip-path="url(#pdd4b439443)" d="M 142.691644 542.969233 
L 142.691644 542.713057 
" style="fill:none;stroke:#000000;stroke-width:2;"/>
    <path clip-path="url(#pdd4b439443)" d="M 162.774284 556.732735 
L 162.774284 556.475861 
" style="fill:none;stroke:#000000;stroke-width:2;"/>
    <path clip-path="url(#pdd4b439443)" d="M 182.856924 564.976698 
L 182.856924 564.758654 
" style="fill:none;stroke:#000000;stroke-width:2;"/>
    <path clip-path="url(#pdd4b439443)" d="M 202.939564 570.249961 
L 202.939564 570.06213 
" style="fill:none;stroke:#000000;stroke-width:2;"/>
    <path clip-path="url(#pdd4b439443)" d="M 223.022205 573.790352 
L 223.022205 573.633523 
" style="fill:none;stroke:#000000;stroke-width:2;"/>
    <path clip-path="url(#pdd4b439443)" d="M 243.104845 576.279491 
L 243.104845 576.136924 
" style="fill:none;stroke:#000000;stroke-width:2;"/>
    <path clip-path="url(#pdd4b439443)" d="M 263.187485 578.04857 
L 263.187485 577.930795 
" style="fill:none;stroke:#000000;stroke-width:2;"/>
    <path clip-path="url(#pdd4b439443)" d="M 283.270125 579.309253 
L 283.270125 579.21598 
" style="fill:none;stroke:#000000;stroke-width:2;"/>
    <path clip-path="url(#pdd4b439443)" d="M 303.352766 580.211235 
L 303.352766 580.122044 
" style="fill:none;stroke:#000000;stroke-width:2;"/>
    <path clip-path="url(#pdd4b439443)" d="M 323.435406 580.829028 
L 323.435406 580.752807 
" style="fill:none;stroke:#000000;stroke-width:2;"/>
    <path clip-path="url(#pdd4b439443)" d="M 343.518046 581.230542 
L 343.518046 581.165879 
" style="fill:none;stroke:#000000;stroke-width:2;"/>
   </g>
   <g id="line2d_35">
    <path clip-path="url(#pdd4b439443)" d="M 102.526363 470.343447 
L 122.609003 518.363563 
L 142.691644 542.905451 
L 162.774284 556.562986 
L 182.856924 564.808728 
L 202.939564 570.129476 
L 223.022205 573.72872 
L 243.104845 576.23637 
L 263.187485 578.010784 
L 283.270125 579.271538 
L 303.352766 580.160658 
L 323.435406 580.7727 
L 343.518046 581.170594 
" style="fill:none;stroke:#ff0000;stroke-linecap:square;stroke-opacity:0.2;stroke-width:2;"/>
    <g clip-path="url(#pdd4b439443)">
     <use style="fill:#ff0000;fill-opacity:0.2;stroke:#ff0000;stroke-opacity:0.2;" x="102.526363" xlink:href="#m24597be334" y="470.343447"/>
     <use style="fill:#ff0000;fill-opacity:0.2;stroke:#ff0000;stroke-opacity:0.2;" x="122.609003" xlink:href="#m24597be334" y="518.363563"/>
     <use style="fill:#ff0000;fill-opacity:0.2;stroke:#ff0000;stroke-opacity:0.2;" x="142.691644" xlink:href="#m24597be334" y="542.905451"/>
     <use style="fill:#ff0000;fill-opacity:0.2;stroke:#ff0000;stroke-opacity:0.2;" x="162.774284" xlink:href="#m24597be334" y="556.562986"/>
     <use style="fill:#ff0000;fill-opacity:0.2;stroke:#ff0000;stroke-opacity:0.2;" x="182.856924" xlink:href="#m24597be334" y="564.808728"/>
     <use style="fill:#ff0000;fill-opacity:0.2;stroke:#ff0000;stroke-opacity:0.2;" x="202.939564" xlink:href="#m24597be334" y="570.129476"/>
     <use style="fill:#ff0000;fill-opacity:0.2;stroke:#ff0000;stroke-opacity:0.2;" x="223.022205" xlink:href="#m24597be334" y="573.72872"/>
     <use style="fill:#ff0000;fill-opacity:0.2;stroke:#ff0000;stroke-opacity:0.2;" x="243.104845" xlink:href="#m24597be334" y="576.23637"/>
     <use style="fill:#ff0000;fill-opacity:0.2;stroke:#ff0000;stroke-opacity:0.2;" x="263.187485" xlink:href="#m24597be334" y="578.010784"/>
     <use style="fill:#ff0000;fill-opacity:0.2;stroke:#ff0000;stroke-opacity:0.2;" x="283.270125" xlink:href="#m24597be334" y="579.271538"/>
     <use style="fill:#ff0000;fill-opacity:0.2;stroke:#ff0000;stroke-opacity:0.2;" x="303.352766" xlink:href="#m24597be334" y="580.160658"/>
     <use style="fill:#ff0000;fill-opacity:0.2;stroke:#ff0000;stroke-opacity:0.2;" x="323.435406" xlink:href="#m24597be334" y="580.7727"/>
     <use style="fill:#ff0000;fill-opacity:0.2;stroke:#ff0000;stroke-opacity:0.2;" x="343.518046" xlink:href="#m24597be334" y="581.170594"/>
    </g>
   </g>
   <g id="line2d_36">
    <path clip-path="url(#pdd4b439443)" d="M 122.609003 518.363563 
L 142.691644 542.905451 
L 162.774284 556.562986 
L 182.856924 564.808728 
L 202.939564 570.129476 
L 223.022205 573.72872 
L 243.104845 576.23637 
L 263.187485 578.010784 
L 283.270125 579.271538 
L 303.352766 580.160658 
L 323.435406 580.7727 
" style="fill:none;stroke:#ff0000;stroke-linecap:square;stroke-width:2;"/>
    <g clip-path="url(#pdd4b439443)">
     <use style="fill:#ff0000;stroke:#ff0000;" x="122.609003" xlink:href="#m2878654fc5" y="518.363563"/>
     <use style="fill:#ff0000;stroke:#ff0000;" x="142.691644" xlink:href="#m2878654fc5" y="542.905451"/>
     <use style="fill:#ff0000;stroke:#ff0000;" x="162.774284" xlink:href="#m2878654fc5" y="556.562986"/>
     <use style="fill:#ff0000;stroke:#ff0000;" x="182.856924" xlink:href="#m2878654fc5" y="564.808728"/>
     <use style="fill:#ff0000;stroke:#ff0000;" x="202.939564" xlink:href="#m2878654fc5" y="570.129476"/>
     <use style="fill:#ff0000;stroke:#ff0000;" x="223.022205" xlink:href="#m2878654fc5" y="573.72872"/>
     <use style="fill:#ff0000;stroke:#ff0000;" x="243.104845" xlink:href="#m2878654fc5" y="576.23637"/>
     <use style="fill:#ff0000;stroke:#ff0000;" x="263.187485" xlink:href="#m2878654fc5" y="578.010784"/>
     <use style="fill:#ff0000;stroke:#ff0000;" x="283.270125" xlink:href="#m2878654fc5" y="579.271538"/>
     <use style="fill:#ff0000;stroke:#ff0000;" x="303.352766" xlink:href="#m2878654fc5" y="580.160658"/>
     <use style="fill:#ff0000;stroke:#ff0000;" x="323.435406" xlink:href="#m2878654fc5" y="580.7727"/>
    </g>
   </g>
   <g id="line2d_37">
    <g clip-path="url(#pdd4b439443)">
     <use style="stroke:#000000;" x="102.526363" xlink:href="#m3aee93c136" y="470.570131"/>
     <use style="stroke:#000000;" x="122.609003" xlink:href="#m3aee93c136" y="518.38676"/>
     <use style="stroke:#000000;" x="142.691644" xlink:href="#m3aee93c136" y="542.841145"/>
     <use style="stroke:#000000;" x="162.774284" xlink:href="#m3aee93c136" y="556.604298"/>
     <use style="stroke:#000000;" x="182.856924" xlink:href="#m3aee93c136" y="564.867676"/>
     <use style="stroke:#000000;" x="202.939564" xlink:href="#m3aee93c136" y="570.156045"/>
     <use style="stroke:#000000;" x="223.022205" xlink:href="#m3aee93c136" y="573.711937"/>
     <use style="stroke:#000000;" x="243.104845" xlink:href="#m3aee93c136" y="576.208207"/>
     <use style="stroke:#000000;" x="263.187485" xlink:href="#m3aee93c136" y="577.989683"/>
     <use style="stroke:#000000;" x="283.270125" xlink:href="#m3aee93c136" y="579.262617"/>
     <use style="stroke:#000000;" x="303.352766" xlink:href="#m3aee93c136" y="580.166639"/>
     <use style="stroke:#000000;" x="323.435406" xlink:href="#m3aee93c136" y="580.790917"/>
     <use style="stroke:#000000;" x="343.518046" xlink:href="#m3aee93c136" y="581.19821"/>
    </g>
   </g>
   <g id="patch_23">
    <path d="M 90.476779 586.830936 
L 90.476779 463.622278 
" style="fill:none;stroke:#000000;stroke-linecap:square;stroke-linejoin:miter;stroke-width:0.8;"/>
   </g>
   <g id="patch_24">
    <path d="M 355.56763 586.830936 
L 355.56763 463.622278 
" style="fill:none;stroke:#000000;stroke-linecap:square;stroke-linejoin:miter;stroke-width:0.8;"/>
   </g>
   <g id="patch_25">
    <path d="M 90.476779 586.830936 
L 355.56763 586.830936 
" style="fill:none;stroke:#000000;stroke-linecap:square;stroke-linejoin:miter;stroke-width:0.8;"/>
   </g>
   <g id="patch_26">
    <path d="M 90.476779 463.622278 
L 355.56763 463.622278 
" style="fill:none;stroke:#000000;stroke-linecap:square;stroke-linejoin:miter;stroke-width:0.8;"/>
   </g>
   <g id="text_30">
    <!-- $C(t)$ -->
    <g transform="translate(201.094052 457.622278)scale(0.24 -0.24)">
     <use transform="scale(0.996264)" xlink:href="#CMMI12-67"/>
     <use transform="translate(76.946847 0)scale(0.996264)" xlink:href="#CMR17-40"/>
     <use transform="translate(112.227614 0)scale(0.996264)" xlink:href="#CMMI12-116"/>
     <use transform="translate(147.453945 0)scale(0.996264)" xlink:href="#CMR17-41"/>
    </g>
   </g>
  </g>
  <g id="axes_6">
   <g id="patch_27">
    <path d="M 414.909149 586.830936 
L 680 586.830936 
L 680 463.622278 
L 414.909149 463.622278 
z
" style="fill:#ffffff;"/>
   </g>
   <g id="matplotlib.axis_11">
    <g id="xtick_11">
     <g id="line2d_38">
      <g>
       <use style="stroke:#000000;stroke-width:0.8;" x="487.206654" xlink:href="#me57e3674d6" y="586.830936"/>
      </g>
     </g>
     <g id="text_31">
      <!-- $\mathdefault{5}$ -->
      <g transform="translate(483.30466 604.900524)scale(0.16 -0.16)">
       <use transform="scale(0.996264)" xlink:href="#CMR17-53"/>
      </g>
     </g>
    </g>
    <g id="xtick_12">
     <g id="line2d_39">
      <g>
       <use style="stroke:#000000;stroke-width:0.8;" x="587.619855" xlink:href="#me57e3674d6" y="586.830936"/>
      </g>
     </g>
     <g id="text_32">
      <!-- $\mathdefault{10}$ -->
      <g transform="translate(579.815868 604.900524)scale(0.16 -0.16)">
       <use transform="scale(0.996264)" xlink:href="#CMR17-49"/>
       <use transform="translate(45.690477 0)scale(0.996264)" xlink:href="#CMR17-48"/>
      </g>
     </g>
    </g>
   </g>
   <g id="matplotlib.axis_12">
    <g id="ytick_13">
     <g id="line2d_40">
      <g>
       <use style="stroke:#000000;stroke-width:0.8;" x="414.909149" xlink:href="#md26bdbd217" y="586.830936"/>
      </g>
     </g>
     <g id="text_33">
      <!-- $\mathdefault{−5}$ -->
      <g transform="translate(387.707166 592.36573)scale(0.16 -0.16)">
       <use transform="scale(0.996264)" xlink:href="#CMSY10-0"/>
       <use transform="translate(77.487468 0)scale(0.996264)" xlink:href="#CMR17-53"/>
      </g>
     </g>
    </g>
    <g id="ytick_14">
     <g id="line2d_41">
      <g>
       <use style="stroke:#000000;stroke-width:0.8;" x="414.909149" xlink:href="#md26bdbd217" y="525.226607"/>
      </g>
     </g>
     <g id="text_34">
      <!-- $\mathdefault{0}$ -->
      <g transform="translate(400.105162 530.761401)scale(0.16 -0.16)">
       <use transform="scale(0.996264)" xlink:href="#CMR17-48"/>
      </g>
     </g>
    </g>
    <g id="ytick_15">
     <g id="line2d_42">
      <g>
       <use style="stroke:#000000;stroke-width:0.8;" x="414.909149" xlink:href="#md26bdbd217" y="463.622278"/>
      </g>
     </g>
     <g id="text_35">
      <!-- $\mathdefault{5}$ -->
      <g transform="translate(400.105162 469.157073)scale(0.16 -0.16)">
       <use transform="scale(0.996264)" xlink:href="#CMR17-53"/>
      </g>
     </g>
    </g>
   </g>
   <g id="LineCollection_14">
    <path clip-path="url(#p074f3bd661)" d="M 426.958733 601.450908 
L 426.958733 410.351067 
" style="fill:none;stroke:#ff0000;stroke-opacity:0.2;stroke-width:2;"/>
    <path clip-path="url(#p074f3bd661)" d="M 447.041373 534.981074 
L 447.041373 511.271973 
" style="fill:none;stroke:#ff0000;stroke-opacity:0.2;stroke-width:2;"/>
    <path clip-path="url(#p074f3bd661)" d="M 467.124013 541.489223 
L 467.124013 521.335248 
" style="fill:none;stroke:#ff0000;stroke-opacity:0.2;stroke-width:2;"/>
    <path clip-path="url(#p074f3bd661)" d="M 487.206654 528.214943 
L 487.206654 514.312134 
" style="fill:none;stroke:#ff0000;stroke-opacity:0.2;stroke-width:2;"/>
    <path clip-path="url(#p074f3bd661)" d="M 507.289294 525.073785 
L 507.289294 512.055692 
" style="fill:none;stroke:#ff0000;stroke-opacity:0.2;stroke-width:2;"/>
    <path clip-path="url(#p074f3bd661)" d="M 527.371934 528.369311 
L 527.371934 515.112605 
" style="fill:none;stroke:#ff0000;stroke-opacity:0.2;stroke-width:2;"/>
    <path clip-path="url(#p074f3bd661)" d="M 547.454574 534.255944 
L 547.454574 521.471158 
" style="fill:none;stroke:#ff0000;stroke-opacity:0.2;stroke-width:2;"/>
    <path clip-path="url(#p074f3bd661)" d="M 567.537215 535.46358 
L 567.537215 524.725248 
" style="fill:none;stroke:#ff0000;stroke-opacity:0.2;stroke-width:2;"/>
    <path clip-path="url(#p074f3bd661)" d="M 587.619855 534.842115 
L 587.619855 524.441333 
" style="fill:none;stroke:#ff0000;stroke-opacity:0.2;stroke-width:2;"/>
    <path clip-path="url(#p074f3bd661)" d="M 607.702495 533.496235 
L 607.702495 521.670798 
" style="fill:none;stroke:#ff0000;stroke-opacity:0.2;stroke-width:2;"/>
    <path clip-path="url(#p074f3bd661)" d="M 627.785135 529.643952 
L 627.785135 517.50386 
" style="fill:none;stroke:#ff0000;stroke-opacity:0.2;stroke-width:2;"/>
    <path clip-path="url(#p074f3bd661)" d="M 647.867776 526.492233 
L 647.867776 512.182011 
" style="fill:none;stroke:#ff0000;stroke-opacity:0.2;stroke-width:2;"/>
    <path clip-path="url(#p074f3bd661)" d="M 667.950416 523.192087 
L 667.950416 506.213515 
" style="fill:none;stroke:#ff0000;stroke-opacity:0.2;stroke-width:2;"/>
   </g>
   <g id="LineCollection_15">
    <path clip-path="url(#p074f3bd661)" d="M 447.041373 534.981074 
L 447.041373 511.271973 
" style="fill:none;stroke:#ff0000;stroke-width:2;"/>
    <path clip-path="url(#p074f3bd661)" d="M 467.124013 541.489223 
L 467.124013 521.335248 
" style="fill:none;stroke:#ff0000;stroke-width:2;"/>
    <path clip-path="url(#p074f3bd661)" d="M 487.206654 528.214943 
L 487.206654 514.312134 
" style="fill:none;stroke:#ff0000;stroke-width:2;"/>
    <path clip-path="url(#p074f3bd661)" d="M 507.289294 525.073785 
L 507.289294 512.055692 
" style="fill:none;stroke:#ff0000;stroke-width:2;"/>
    <path clip-path="url(#p074f3bd661)" d="M 527.371934 528.369311 
L 527.371934 515.112605 
" style="fill:none;stroke:#ff0000;stroke-width:2;"/>
    <path clip-path="url(#p074f3bd661)" d="M 547.454574 534.255944 
L 547.454574 521.471158 
" style="fill:none;stroke:#ff0000;stroke-width:2;"/>
    <path clip-path="url(#p074f3bd661)" d="M 567.537215 535.46358 
L 567.537215 524.725248 
" style="fill:none;stroke:#ff0000;stroke-width:2;"/>
    <path clip-path="url(#p074f3bd661)" d="M 587.619855 534.842115 
L 587.619855 524.441333 
" style="fill:none;stroke:#ff0000;stroke-width:2;"/>
    <path clip-path="url(#p074f3bd661)" d="M 607.702495 533.496235 
L 607.702495 521.670798 
" style="fill:none;stroke:#ff0000;stroke-width:2;"/>
    <path clip-path="url(#p074f3bd661)" d="M 627.785135 529.643952 
L 627.785135 517.50386 
" style="fill:none;stroke:#ff0000;stroke-width:2;"/>
    <path clip-path="url(#p074f3bd661)" d="M 647.867776 526.492233 
L 647.867776 512.182011 
" style="fill:none;stroke:#ff0000;stroke-width:2;"/>
   </g>
   <g id="line2d_43">
    <path clip-path="url(#p074f3bd661)" d="M 414.909149 525.226607 
L 680 525.226607 
" style="fill:none;stroke:#000000;stroke-linecap:square;stroke-width:2;"/>
   </g>
   <g id="line2d_44">
    <path clip-path="url(#p074f3bd661)" d="M 426.958733 505.900988 
L 447.041373 523.126523 
L 467.124013 531.412236 
L 487.206654 521.263538 
L 507.289294 518.564739 
L 527.371934 521.740958 
L 547.454574 527.863551 
L 567.537215 530.094414 
L 587.619855 529.641724 
L 607.702495 527.583516 
L 627.785135 523.573906 
L 647.867776 519.337122 
L 667.950416 514.702801 
" style="fill:none;stroke:#ff0000;stroke-linecap:square;stroke-opacity:0.2;stroke-width:2;"/>
   </g>
   <g id="line2d_45">
    <path clip-path="url(#p074f3bd661)" d="M 447.041373 523.126523 
L 467.124013 531.412236 
L 487.206654 521.263538 
L 507.289294 518.564739 
L 527.371934 521.740958 
L 547.454574 527.863551 
L 567.537215 530.094414 
L 587.619855 529.641724 
L 607.702495 527.583516 
L 627.785135 523.573906 
L 647.867776 519.337122 
" style="fill:none;stroke:#ff0000;stroke-linecap:square;stroke-width:2;"/>
   </g>
   <g id="patch_28">
    <path d="M 414.909149 586.830936 
L 414.909149 463.622278 
" style="fill:none;stroke:#000000;stroke-linecap:square;stroke-linejoin:miter;stroke-width:0.8;"/>
   </g>
   <g id="patch_29">
    <path d="M 680 586.830936 
L 680 463.622278 
" style="fill:none;stroke:#000000;stroke-linecap:square;stroke-linejoin:miter;stroke-width:0.8;"/>
   </g>
   <g id="patch_30">
    <path d="M 414.909149 586.830936 
L 680 586.830936 
" style="fill:none;stroke:#000000;stroke-linecap:square;stroke-linejoin:miter;stroke-width:0.8;"/>
   </g>
   <g id="patch_31">
    <path d="M 414.909149 463.622278 
L 680 463.622278 
" style="fill:none;stroke:#000000;stroke-linecap:square;stroke-linejoin:miter;stroke-width:0.8;"/>
   </g>
   <g id="text_36">
    <!-- $(C_{\rm fit}(t) - C(t))/\sigma_t$ -->
    <g transform="translate(457.924156 457.622278)scale(0.24 -0.24)">
     <use transform="scale(0.996264)" xlink:href="#CMR17-40"/>
     <use transform="translate(35.280768 0)scale(0.996264)" xlink:href="#CMMI12-67"/>
     <use transform="translate(105.072804 -14.943915)scale(0.697382)" xlink:href="#CMR17-12"/>
     <use transform="translate(139.892198 -14.943915)scale(0.697382)" xlink:href="#CMR17-116"/>
     <use transform="translate(165.08675 0)scale(0.996264)" xlink:href="#CMR17-40"/>
     <use transform="translate(200.367518 0)scale(0.996264)" xlink:href="#CMMI12-116"/>
     <use transform="translate(235.593849 0)scale(0.996264)" xlink:href="#CMR17-41"/>
     <use transform="translate(293.013823 0)scale(0.996264)" xlink:href="#CMSY10-0"/>
     <use transform="translate(392.640498 0)scale(0.996264)" xlink:href="#CMMI12-67"/>
     <use transform="translate(469.587345 0)scale(0.996264)" xlink:href="#CMR17-40"/>
     <use transform="translate(504.868112 0)scale(0.996264)" xlink:href="#CMMI12-116"/>
     <use transform="translate(540.094443 0)scale(0.996264)" xlink:href="#CMR17-41"/>
     <use transform="translate(575.37521 0)scale(0.996264)" xlink:href="#CMR17-41"/>
     <use transform="translate(610.655978 0)scale(0.996264)" xlink:href="#CMMI12-61"/>
     <use transform="translate(659.430897 0)scale(0.996264)" xlink:href="#CMMI12-27"/>
     <use transform="translate(714.876358 -14.943915)scale(0.697382)" xlink:href="#CMMI12-116"/>
    </g>
   </g>
  </g>
  <g id="text_37">
   <!-- cosh2 Fit -->
   <g transform="translate(315.747011 29.564405)scale(0.24 -0.24)">
    <defs>
     <path d="M 34.90625 35 
C 33 35 30.203125 35 30.203125 31.515625 
C 30.203125 28.71875 32.5 27.921875 33.796875 27.921875 
C 34.5 27.921875 37.40625 28.234375 37.40625 31.625 
C 37.40625 38.546875 30.59375 43.796875 22.90625 43.796875 
C 12.296875 43.796875 3.296875 34.03125 3.296875 21.296875 
C 3.296875 8.0625 12.703125 -1 22.90625 -1 
C 35.296875 -1 38.40625 10.578125 38.40625 11.6875 
C 38.40625 12.09375 38.296875 12.390625 37.59375 12.390625 
C 36.90625 12.390625 36.796875 12.296875 36.40625 10.984375 
C 33.796875 2.8125 28.09375 0.796875 23.796875 0.796875 
C 17.40625 0.796875 9.703125 6.671875 9.703125 21.390625 
C 9.703125 36.53125 17.09375 42 23 42 
C 26.90625 42 32.703125 40.203125 34.90625 35 
z
" id="CMR17-99"/>
     <path d="M 43.09375 21.1875 
C 43.09375 34 33.796875 44 22.90625 44 
C 12 44 2.703125 34 2.703125 21.1875 
C 2.703125 8.609375 12 -1 22.90625 -1 
C 33.796875 -1 43.09375 8.609375 43.09375 21.1875 
z
M 22.90625 0.796875 
C 18.203125 0.796875 14.203125 3.59375 11.90625 7.5 
C 9.40625 11.984375 9.09375 17.59375 9.09375 22 
C 9.09375 26.203125 9.296875 31.40625 11.90625 35.90625 
C 13.90625 39.203125 17.796875 42.40625 22.90625 42.40625 
C 27.40625 42.40625 31.203125 39.90625 33.59375 36.40625 
C 36.703125 31.703125 36.703125 25.109375 36.703125 22 
C 36.703125 18.09375 36.5 12.109375 33.796875 7.296875 
C 31 2.703125 26.703125 0.796875 22.90625 0.796875 
z
" id="CMR17-111"/>
     <path d="M 30.90625 42.140625 
C 30.90625 43.953125 30.796875 44.046875 30.203125 44.046875 
C 29.796875 44.046875 29.703125 43.953125 28.5 42.453125 
C 28.203125 42.046875 27.296875 41.03125 27 40.640625 
C 23.796875 44.046875 19.296875 44.046875 17.59375 44.046875 
C 6.5 44.046875 2.5 38.234375 2.5 32.4375 
C 2.5 23.40625 12.703125 21.328125 15.59375 20.703125 
C 21.90625 19.421875 24.09375 19.015625 26.203125 17.203125 
C 27.5 16.015625 29.703125 13.8125 29.703125 10.21875 
C 29.703125 6 27.296875 0.59375 18.09375 0.59375 
C 9.40625 0.59375 6.296875 7.1875 4.5 15.953125 
C 4.203125 17.34375 4.203125 17.453125 3.40625 17.453125 
C 2.59375 17.453125 2.5 17.34375 2.5 15.359375 
L 2.5 0.984375 
C 2.5 -0.796875 2.59375 -0.90625 3.203125 -0.90625 
C 3.703125 -0.90625 3.796875 -0.796875 4.296875 0 
C 4.90625 0.890625 6.40625 3.296875 7 4.3125 
C 9 1.609375 12.5 -1 18.09375 -1 
C 28 -1 33.296875 4.421875 33.296875 12.25 
C 33.296875 17.375 30.59375 20.078125 29.296875 21.28125 
C 26.296875 24.390625 22.796875 25.09375 18.59375 25.890625 
C 13.09375 27.109375 6.09375 28.515625 6.09375 34.640625 
C 6.09375 37.234375 7.5 42.765625 17.59375 42.765625 
C 28.296875 42.765625 28.90625 32.71875 29.09375 29.5 
C 29.203125 29 29.703125 28.890625 30 28.890625 
C 30.90625 28.890625 30.90625 29.203125 30.90625 30.90625 
z
" id="CMR17-115"/>
     <path d="M 41.5 30.203125 
C 41.5 35.296875 40.5 43.59375 28.703125 43.59375 
C 20.5 43.59375 16.5 37 15.296875 33.703125 
L 15.203125 33.703125 
L 15.203125 68.6875 
L 3.296875 67.59375 
L 3.296875 65 
C 9.203125 65 10.09375 64.40625 10.09375 59.640625 
L 10.09375 6.65625 
C 10.09375 2.875 9.703125 2.390625 3.296875 2.390625 
L 3.296875 -0.203125 
C 5.703125 0 10.09375 0 12.703125 0 
C 15.296875 0 19.796875 0 22.203125 -0.203125 
L 22.203125 2.390625 
C 15.796875 2.390625 15.40625 2.78125 15.40625 6.6875 
L 15.40625 25.90625 
C 15.40625 35.109375 21 42 28 42 
C 35.40625 42 36.203125 35.40625 36.203125 30.59375 
L 36.203125 6.6875 
C 36.203125 2.875 35.796875 2.390625 29.40625 2.390625 
L 29.40625 -0.203125 
C 31.796875 0 36.203125 0 38.796875 0 
C 41.40625 0 45.90625 0 48.296875 -0.203125 
L 48.296875 2.390625 
C 41.90625 2.390625 41.5 2.78125 41.5 6.6875 
z
" id="CMR17-104"/>
     <path d="M 54.40625 67.578125 
L 5.09375 67.578125 
L 5.09375 65 
C 12 65 13.09375 65 13.09375 60.53125 
L 13.09375 6.96875 
C 13.09375 2.5 12 2.5 5.09375 2.5 
L 5.09375 0 
C 8 0 13.59375 0 16.703125 0 
C 20.796875 0 25.59375 0 29.703125 0 
L 29.703125 2.5 
L 27.5 2.5 
C 19.90625 2.5 19.703125 3.484375 19.703125 7.0625 
L 19.703125 32.421875 
L 28.703125 32.421875 
C 38 32.421875 38.90625 29.140625 38.90625 20.8125 
L 40.703125 20.8125 
L 40.703125 46.671875 
L 38.90625 46.671875 
C 38.90625 38.28125 38 35 28.703125 35 
L 19.703125 35 
L 19.703125 61.109375 
C 19.703125 64.5 19.90625 65 23.90625 65 
L 36.796875 65 
C 51.90625 65 53.59375 58.828125 55 45.5625 
L 56.796875 45.5625 
z
" id="CMR17-70"/>
     <path d="M 15.5 61.078125 
C 15.5 63.265625 13.703125 65.15625 11.40625 65.15625 
C 9.203125 65.15625 7.296875 63.375 7.296875 61.078125 
C 7.296875 58.890625 9.09375 57 11.40625 57 
C 13.59375 57 15.5 58.796875 15.5 61.078125 
z
M 3.796875 42.28125 
L 3.796875 39.703125 
C 9.40625 39.703125 10.203125 39.09375 10.203125 34.328125 
L 10.203125 6.671875 
C 10.203125 2.875 9.796875 2.390625 3.40625 2.390625 
L 3.40625 -0.203125 
C 5.796875 0 10.09375 0 12.59375 0 
C 15 0 19.09375 0 21.40625 -0.203125 
L 21.40625 2.390625 
C 15.5 2.390625 15.296875 2.984375 15.296875 6.5625 
L 15.296875 43.375 
z
" id="CMR17-105"/>
    </defs>
    <use transform="scale(0.996264)" xlink:href="#CMR17-99"/>
    <use transform="translate(40.48566 0)scale(0.996264)" xlink:href="#CMR17-111"/>
    <use transform="translate(86.176138 0)scale(0.996264)" xlink:href="#CMR17-115"/>
    <use transform="translate(121.977475 0)scale(0.996264)" xlink:href="#CMR17-104"/>
    <use transform="translate(172.872845 0)scale(0.996264)" xlink:href="#CMR17-50"/>
    <use transform="translate(248.639288 0)scale(0.996264)" xlink:href="#CMR17-70"/>
    <use transform="translate(308.623135 0)scale(0.996264)" xlink:href="#CMR17-105"/>
    <use transform="translate(333.494194 0)scale(0.996264)" xlink:href="#CMR17-116"/>
   </g>
  </g>
 </g>
 <defs>
  <clipPath id="pba2f30a466">
   <rect height="123.208657" width="265.090851" x="90.476779" y="72"/>
  </clipPath>
  <clipPath id="p0283b13790">
   <rect height="123.208657" width="265.090851" x="414.909149" y="72"/>
  </clipPath>
  <clipPath id="pa9ba7a9d35">
   <rect height="123.208657" width="265.090851" x="90.476779" y="267.811139"/>
  </clipPath>
  <clipPath id="p4faaa0f1c6">
   <rect height="123.208657" width="265.090851" x="414.909149" y="267.811139"/>
  </clipPath>
  <clipPath id="pdd4b439443">
   <rect height="123.208657" width="265.090851" x="90.476779" y="463.622278"/>
  </clipPath>
  <clipPath id="p074f3bd661">
   <rect height="123.208657" width="265.090851" x="414.909149" y="463.622278"/>
  </clipPath>
 </defs>
</svg>
