<?xml version="1.0" encoding="utf-8" standalone="no"?>
<!DOCTYPE svg PUBLIC "-//W3C//DTD SVG 1.1//EN"
  "http://www.w3.org/Graphics/SVG/1.1/DTD/svg11.dtd">
<!-- Created with matplotlib (https://matplotlib.org/) -->
<svg height="576pt" version="1.1" viewBox="0 0 1008 576" width="1008pt" xmlns="http://www.w3.org/2000/svg" xmlns:xlink="http://www.w3.org/1999/xlink">
 <metadata>
  <rdf:RDF xmlns:cc="http://creativecommons.org/ns#" xmlns:dc="http://purl.org/dc/elements/1.1/" xmlns:rdf="http://www.w3.org/1999/02/22-rdf-syntax-ns#">
   <cc:Work>
    <dc:type rdf:resource="http://purl.org/dc/dcmitype/StillImage"/>
    <dc:date>2022-10-25T16:39:31.396592</dc:date>
    <dc:format>image/svg+xml</dc:format>
    <dc:creator>
     <cc:Agent>
      <dc:title>Matplotlib v3.3.4, https://matplotlib.org/</dc:title>
     </cc:Agent>
    </dc:creator>
   </cc:Work>
  </rdf:RDF>
 </metadata>
 <defs>
  <style type="text/css">*{stroke-linecap:butt;stroke-linejoin:round;}</style>
 </defs>
 <g id="figure_1">
  <g id="patch_1">
   <path d="M 0 576 
L 1008 576 
L 1008 0 
L 0 0 
z
" style="fill:#ffffff;"/>
  </g>
  <g id="axes_1">
   <g id="patch_2">
    <path d="M 87.863137 261.684426 
L 336.478421 261.684426 
L 336.478421 63.911226 
L 87.863137 63.911226 
z
" style="fill:#ffffff;"/>
   </g>
   <g id="matplotlib.axis_1">
    <g id="xtick_1">
     <g id="line2d_1">
      <defs>
       <path d="M 0 0 
L 0 3.5 
" id="m6700351c99" style="stroke:#000000;stroke-width:0.8;"/>
      </defs>
      <g>
       <use style="stroke:#000000;stroke-width:0.8;" x="99.163831" xlink:href="#m6700351c99" y="261.684426"/>
      </g>
     </g>
     <g id="text_1">
      <!-- $\mathdefault{0}$ -->
      <g transform="translate(95.261838 279.754014)scale(0.16 -0.16)">
       <defs>
        <path d="M 42 31.640625 
C 42 37.75 41.90625 48.125 37.703125 56.109375 
C 34 63.109375 28.09375 65.59375 22.90625 65.59375 
C 18.09375 65.59375 12 63.40625 8.203125 56.203125 
C 4.203125 48.71875 3.796875 39.4375 3.796875 31.640625 
C 3.796875 25.953125 3.90625 17.28125 7 9.671875 
C 11.296875 -0.609375 19 -2 22.90625 -2 
C 27.5 -2 34.5 -0.109375 38.59375 9.375 
C 41.59375 16.28125 42 24.359375 42 31.640625 
z
M 22.90625 -0.40625 
C 16.5 -0.40625 12.703125 5.078125 11.296875 12.6875 
C 10.203125 18.5625 10.203125 27.15625 10.203125 32.75 
C 10.203125 40.4375 10.203125 46.828125 11.5 52.921875 
C 13.40625 61.390625 19 64 22.90625 64 
C 27 64 32.296875 61.296875 34.203125 53.125 
C 35.5 47.4375 35.59375 40.734375 35.59375 32.75 
C 35.59375 26.25 35.59375 18.265625 34.40625 12.375 
C 32.296875 1.484375 26.40625 -0.40625 22.90625 -0.40625 
z
" id="CMR17-48"/>
       </defs>
       <use transform="scale(0.996264)" xlink:href="#CMR17-48"/>
      </g>
     </g>
    </g>
    <g id="xtick_2">
     <g id="line2d_2">
      <g>
       <use style="stroke:#000000;stroke-width:0.8;" x="172.071539" xlink:href="#m6700351c99" y="261.684426"/>
      </g>
     </g>
     <g id="text_2">
      <!-- $\mathdefault{10}$ -->
      <g transform="translate(164.267552 279.754014)scale(0.16 -0.16)">
       <defs>
        <path d="M 26.59375 63.40625 
C 26.59375 65.5 26.5 65.5 25.09375 65.5 
C 21.203125 61.1875 15.296875 59.796875 9.703125 59.796875 
C 9.40625 59.796875 8.90625 59.796875 8.796875 59.5 
C 8.703125 59.296875 8.703125 59.09375 8.703125 57 
C 11.796875 57 17 57.59375 21 59.984375 
L 21 7.203125 
C 21 3.6875 20.796875 2.5 12.203125 2.5 
L 9.203125 2.5 
L 9.203125 0 
C 14 0 19 0 23.796875 0 
C 28.59375 0 33.59375 0 38.40625 0 
L 38.40625 2.5 
L 35.40625 2.5 
C 26.796875 2.5 26.59375 3.59375 26.59375 7.15625 
z
" id="CMR17-49"/>
       </defs>
       <use transform="scale(0.996264)" xlink:href="#CMR17-49"/>
       <use transform="translate(45.690477 0)scale(0.996264)" xlink:href="#CMR17-48"/>
      </g>
     </g>
    </g>
    <g id="xtick_3">
     <g id="line2d_3">
      <g>
       <use style="stroke:#000000;stroke-width:0.8;" x="244.979247" xlink:href="#m6700351c99" y="261.684426"/>
      </g>
     </g>
     <g id="text_3">
      <!-- $\mathdefault{20}$ -->
      <g transform="translate(237.17526 279.754014)scale(0.16 -0.16)">
       <defs>
        <path d="M 41.703125 15.453125 
L 39.90625 15.453125 
C 38.90625 8.375 38.09375 7.171875 37.703125 6.5625 
C 37.203125 5.765625 30 5.765625 28.59375 5.765625 
L 9.40625 5.765625 
C 13 9.671875 20 16.75 28.5 24.953125 
C 34.59375 30.734375 41.703125 37.53125 41.703125 47.421875 
C 41.703125 59.21875 32.296875 66 21.796875 66 
C 10.796875 66 4.09375 56.3125 4.09375 47.34375 
C 4.09375 43.4375 7 42.9375 8.203125 42.9375 
C 9.203125 42.9375 12.203125 43.546875 12.203125 47.03125 
C 12.203125 50.109375 9.59375 51 8.203125 51 
C 7.59375 51 7 50.90625 6.59375 50.703125 
C 8.5 59.21875 14.296875 63.40625 20.40625 63.40625 
C 29.09375 63.40625 34.796875 56.515625 34.796875 47.421875 
C 34.796875 38.734375 29.703125 31.25 24 24.75 
L 4.09375 2.28125 
L 4.09375 0 
L 39.296875 0 
z
" id="CMR17-50"/>
       </defs>
       <use transform="scale(0.996264)" xlink:href="#CMR17-50"/>
       <use transform="translate(45.690477 0)scale(0.996264)" xlink:href="#CMR17-48"/>
      </g>
     </g>
    </g>
    <g id="xtick_4">
     <g id="line2d_4">
      <g>
       <use style="stroke:#000000;stroke-width:0.8;" x="317.886955" xlink:href="#m6700351c99" y="261.684426"/>
      </g>
     </g>
     <g id="text_4">
      <!-- $\mathdefault{30}$ -->
      <g transform="translate(310.082968 279.754014)scale(0.16 -0.16)">
       <defs>
        <path d="M 22.09375 33.703125 
C 31 33.703125 34.90625 25.96875 34.90625 17.03125 
C 34.90625 5 28.5 0.390625 22.703125 0.390625 
C 17.40625 0.390625 8.796875 3.03125 6.09375 10.828125 
C 6.59375 10.625 7.09375 10.625 7.59375 10.625 
C 10 10.625 11.796875 12.21875 11.796875 14.8125 
C 11.796875 17.703125 9.59375 19 7.59375 19 
C 5.90625 19 3.296875 18.203125 3.296875 14.46875 
C 3.296875 5.234375 12.296875 -2 22.90625 -2 
C 34 -2 42.5 6.71875 42.5 16.953125 
C 42.5 26.671875 34.5 33.703125 25 34.796875 
C 32.59375 36.375 39.90625 43.0625 39.90625 52.015625 
C 39.90625 59.6875 32 65.296875 23 65.296875 
C 13.90625 65.296875 5.90625 59.828125 5.90625 52.015625 
C 5.90625 48.59375 8.5 48 9.796875 48 
C 11.90625 48 13.703125 49.296875 13.703125 51.890625 
C 13.703125 54.46875 11.90625 55.765625 9.796875 55.765625 
C 9.40625 55.765625 8.90625 55.765625 8.5 55.578125 
C 11.40625 61.859375 19.296875 63 22.796875 63 
C 26.296875 63 32.90625 61.328125 32.90625 51.875 
C 32.90625 49.109375 32.5 44.1875 29.09375 39.84375 
C 26.09375 36 22.703125 36 19.40625 35.6875 
C 18.90625 35.6875 16.59375 35.453125 16.203125 35.453125 
C 15.5 35.359375 15.09375 35.265625 15.09375 34.5 
C 15.09375 33.796875 15.203125 33.703125 17.203125 33.703125 
z
" id="CMR17-51"/>
       </defs>
       <use transform="scale(0.996264)" xlink:href="#CMR17-51"/>
       <use transform="translate(45.690477 0)scale(0.996264)" xlink:href="#CMR17-48"/>
      </g>
     </g>
    </g>
   </g>
   <g id="matplotlib.axis_2">
    <g id="ytick_1">
     <g id="line2d_5">
      <defs>
       <path d="M 0 0 
L -3.5 0 
" id="mc91189444b" style="stroke:#000000;stroke-width:0.8;"/>
      </defs>
      <g>
       <use style="stroke:#000000;stroke-width:0.8;" x="87.863137" xlink:href="#mc91189444b" y="253.13053"/>
      </g>
     </g>
     <g id="text_5">
      <!-- $\mathdefault{0}$ -->
      <g transform="translate(73.05915 258.665324)scale(0.16 -0.16)">
       <use transform="scale(0.996264)" xlink:href="#CMR17-48"/>
      </g>
     </g>
    </g>
    <g id="ytick_2">
     <g id="line2d_6">
      <g>
       <use style="stroke:#000000;stroke-width:0.8;" x="87.863137" xlink:href="#mc91189444b" y="197.251815"/>
      </g>
     </g>
     <g id="text_6">
      <!-- $\mathdefault{10}$ -->
      <g transform="translate(65.255163 202.786609)scale(0.16 -0.16)">
       <use transform="scale(0.996264)" xlink:href="#CMR17-49"/>
       <use transform="translate(45.690477 0)scale(0.996264)" xlink:href="#CMR17-48"/>
      </g>
     </g>
    </g>
    <g id="ytick_3">
     <g id="line2d_7">
      <g>
       <use style="stroke:#000000;stroke-width:0.8;" x="87.863137" xlink:href="#mc91189444b" y="141.373099"/>
      </g>
     </g>
     <g id="text_7">
      <!-- $\mathdefault{20}$ -->
      <g transform="translate(65.255163 146.907893)scale(0.16 -0.16)">
       <use transform="scale(0.996264)" xlink:href="#CMR17-50"/>
       <use transform="translate(45.690477 0)scale(0.996264)" xlink:href="#CMR17-48"/>
      </g>
     </g>
    </g>
    <g id="ytick_4">
     <g id="line2d_8">
      <g>
       <use style="stroke:#000000;stroke-width:0.8;" x="87.863137" xlink:href="#mc91189444b" y="85.494384"/>
      </g>
     </g>
     <g id="text_8">
      <!-- $\mathdefault{30}$ -->
      <g transform="translate(65.255163 91.029178)scale(0.16 -0.16)">
       <use transform="scale(0.996264)" xlink:href="#CMR17-51"/>
       <use transform="translate(45.690477 0)scale(0.996264)" xlink:href="#CMR17-48"/>
      </g>
     </g>
    </g>
    <g id="text_9">
     <!-- Real -->
     <g transform="translate(56.604405 184.258418)rotate(-90)scale(0.24 -0.24)">
      <defs>
       <path d="M 39.203125 33.53125 
C 48.703125 35.4375 56.703125 41.8125 56.703125 49.78125 
C 56.703125 59.140625 46.09375 67.59375 32.09375 67.59375 
L 5.203125 67.59375 
L 5.203125 65 
C 12.09375 65 13.203125 65 13.203125 60.515625 
L 13.203125 6.484375 
C 13.203125 2 12.09375 2 5.203125 2 
L 5.203125 -0.40625 
C 8.09375 -0.40625 13.296875 -0.40625 16.40625 -0.40625 
C 19.5 -0.40625 24.703125 -0.40625 27.59375 -0.40625 
L 27.59375 2 
C 20.703125 2 19.59375 2 19.59375 6.515625 
L 19.59375 33 
L 31.296875 33 
C 37 33 40.203125 30.6875 41.59375 29.390625 
C 45.59375 25.5 45.59375 22.796875 45.59375 16 
C 45.59375 9.296875 45.59375 5.890625 48.59375 2.5 
C 52.40625 -1.59375 57.5 -2 59.703125 -2 
C 67.09375 -2 68.203125 6.1875 68.203125 7.859375 
C 68.203125 8.4375 68.203125 9.140625 67.296875 9.140625 
C 66.5 9.140625 66.40625 8.546875 66.40625 8.15625 
C 65.90625 1.75 63 -0.40625 59.90625 -0.40625 
C 54.40625 -0.40625 53.796875 5.859375 53.203125 11.9375 
C 52.90625 14.03125 52.703125 15.515625 52.5 17.703125 
C 51.90625 22.6875 51.09375 29.953125 39.203125 33.53125 
z
M 31 34.59375 
L 19.59375 34.59375 
L 19.59375 61.140625 
C 19.59375 64.515625 19.796875 65 23.796875 65 
L 31.09375 65 
C 39.40625 65 49.09375 62.140625 49.09375 49.84375 
C 49.09375 37.0625 38.5 34.59375 31 34.59375 
z
" id="CMR17-82"/>
       <path d="M 38.09375 23 
C 38.5 23.40625 38.5 23.609375 38.5 24.625 
C 38.5 34.96875 33.09375 44 21.703125 44 
C 11.09375 44 2.703125 33.890625 2.703125 21.609375 
C 2.703125 8.609375 12.203125 -1 22.796875 -1 
C 34 -1 38.40625 9.484375 38.40625 11.5625 
C 38.40625 12.25 37.796875 12.25 37.59375 12.25 
C 36.90625 12.25 36.796875 12.046875 36.40625 10.875 
C 34.203125 4.140625 28.703125 0.796875 23.5 0.796875 
C 19.203125 0.796875 14.90625 3.171875 12.203125 7.5 
C 9.09375 12.546875 9.09375 18.375 9.09375 23 
z
M 9.203125 24.5 
C 9.90625 39.140625 17.59375 42.40625 21.59375 42.40625 
C 28.40625 42.40625 33 35.890625 33.09375 24.5 
z
" id="CMR17-101"/>
       <path d="M 36 25.828125 
C 36 32.375 36 35.84375 31.796875 39.734375 
C 28.09375 43 23.796875 44 20.40625 44 
C 12.5 44 6.796875 37.609375 6.796875 30.796875 
C 6.796875 27 9.796875 27 10.40625 27 
C 11.703125 27 14 27.78125 14 30.53125 
C 14 33 12.09375 34.078125 10.40625 34.078125 
C 10 34.078125 9.5 33.96875 9.203125 33.875 
C 11.296875 40.5 16.703125 42.40625 20.203125 42.40625 
C 25.203125 42.40625 30.703125 37.953125 30.703125 29.453125 
L 30.703125 25 
C 24.796875 25 17.703125 24.203125 12.09375 21.203125 
C 5.796875 17.703125 4 12.703125 4 8.90625 
C 4 1.203125 13 -1 18.296875 -1 
C 23.796875 -1 28.90625 2.171875 31.09375 7.984375 
C 31.296875 3.640625 34.09375 -0.28125 38.5 -0.28125 
C 40.59375 -0.28125 45.90625 1.09375 45.90625 8.859375 
L 45.90625 14.375 
L 44.09375 14.375 
L 44.09375 8.78125 
C 44.09375 2.78125 41.40625 2 40.09375 2 
C 36 2 36 7.15625 36 11.53125 
z
M 30.703125 13.59375 
C 30.703125 4.953125 24.5 0.59375 19 0.59375 
C 14 0.59375 10.09375 4.296875 10.09375 8.90625 
C 10.09375 11.890625 11.40625 17.1875 17.203125 20.390625 
C 22 23.09375 27.5 23.5 30.703125 23.5 
z
" id="CMR17-97"/>
       <path d="M 15.296875 68.6875 
L 3.40625 67.59375 
L 3.40625 65 
C 9.296875 65 10.203125 64.40625 10.203125 59.640625 
L 10.203125 6.65625 
C 10.203125 2.875 9.796875 2.390625 3.40625 2.390625 
L 3.40625 -0.203125 
C 5.796875 0 10.203125 0 12.703125 0 
C 15.296875 0 19.703125 0 22.09375 -0.203125 
L 22.09375 2.390625 
C 15.703125 2.390625 15.296875 2.78125 15.296875 6.65625 
z
" id="CMR17-108"/>
      </defs>
      <use transform="scale(0.996264)" xlink:href="#CMR17-82"/>
      <use transform="translate(67.791102 0)scale(0.996264)" xlink:href="#CMR17-101"/>
      <use transform="translate(108.276762 0)scale(0.996264)" xlink:href="#CMR17-97"/>
      <use transform="translate(153.96724 0)scale(0.996264)" xlink:href="#CMR17-108"/>
     </g>
    </g>
   </g>
   <g id="LineCollection_1">
    <path clip-path="url(#p86f485a01d)" d="M 99.163831 74.267439 
L 99.163831 72.900917 
" style="fill:none;stroke:#ff0000;stroke-width:2;"/>
    <path clip-path="url(#p86f485a01d)" d="M 106.454602 205.428119 
L 106.454602 204.292223 
" style="fill:none;stroke:#ff0000;stroke-width:2;"/>
    <path clip-path="url(#p86f485a01d)" d="M 113.745373 223.395507 
L 113.745373 222.451023 
" style="fill:none;stroke:#ff0000;stroke-width:2;"/>
    <path clip-path="url(#p86f485a01d)" d="M 121.036144 233.205134 
L 121.036144 232.414914 
" style="fill:none;stroke:#ff0000;stroke-width:2;"/>
    <path clip-path="url(#p86f485a01d)" d="M 128.326914 238.920522 
L 128.326914 238.26903 
" style="fill:none;stroke:#ff0000;stroke-width:2;"/>
    <path clip-path="url(#p86f485a01d)" d="M 135.617685 243.131138 
L 135.617685 242.60233 
" style="fill:none;stroke:#ff0000;stroke-width:2;"/>
    <path clip-path="url(#p86f485a01d)" d="M 142.908456 245.945522 
L 142.908456 245.56176 
" style="fill:none;stroke:#ff0000;stroke-width:2;"/>
    <path clip-path="url(#p86f485a01d)" d="M 150.199227 247.911044 
L 150.199227 247.627948 
" style="fill:none;stroke:#ff0000;stroke-width:2;"/>
    <path clip-path="url(#p86f485a01d)" d="M 157.489998 249.439505 
L 157.489998 249.21932 
" style="fill:none;stroke:#ff0000;stroke-width:2;"/>
    <path clip-path="url(#p86f485a01d)" d="M 164.780768 250.453939 
L 164.780768 250.268938 
" style="fill:none;stroke:#ff0000;stroke-width:2;"/>
    <path clip-path="url(#p86f485a01d)" d="M 172.071539 251.189362 
L 172.071539 251.079939 
" style="fill:none;stroke:#ff0000;stroke-width:2;"/>
    <path clip-path="url(#p86f485a01d)" d="M 179.36231 251.763424 
L 179.36231 251.667725 
" style="fill:none;stroke:#ff0000;stroke-width:2;"/>
    <path clip-path="url(#p86f485a01d)" d="M 186.653081 252.131148 
L 186.653081 252.061066 
" style="fill:none;stroke:#ff0000;stroke-width:2;"/>
    <path clip-path="url(#p86f485a01d)" d="M 193.943852 252.41664 
L 193.943852 252.36881 
" style="fill:none;stroke:#ff0000;stroke-width:2;"/>
    <path clip-path="url(#p86f485a01d)" d="M 201.234622 252.576872 
L 201.234622 252.541071 
" style="fill:none;stroke:#ff0000;stroke-width:2;"/>
    <path clip-path="url(#p86f485a01d)" d="M 208.525393 252.664002 
L 208.525393 252.629743 
" style="fill:none;stroke:#ff0000;stroke-width:2;"/>
    <path clip-path="url(#p86f485a01d)" d="M 215.816164 252.694735 
L 215.816164 252.66576 
" style="fill:none;stroke:#ff0000;stroke-width:2;"/>
    <path clip-path="url(#p86f485a01d)" d="M 223.106935 252.675631 
L 223.106935 252.643168 
" style="fill:none;stroke:#ff0000;stroke-width:2;"/>
    <path clip-path="url(#p86f485a01d)" d="M 230.397706 252.562833 
L 230.397706 252.526819 
" style="fill:none;stroke:#ff0000;stroke-width:2;"/>
    <path clip-path="url(#p86f485a01d)" d="M 237.688476 252.369478 
L 237.688476 252.322123 
" style="fill:none;stroke:#ff0000;stroke-width:2;"/>
    <path clip-path="url(#p86f485a01d)" d="M 244.979247 252.081479 
L 244.979247 252.011528 
" style="fill:none;stroke:#ff0000;stroke-width:2;"/>
    <path clip-path="url(#p86f485a01d)" d="M 252.270018 251.67684 
L 252.270018 251.578397 
" style="fill:none;stroke:#ff0000;stroke-width:2;"/>
    <path clip-path="url(#p86f485a01d)" d="M 259.560789 251.079913 
L 259.560789 250.954128 
" style="fill:none;stroke:#ff0000;stroke-width:2;"/>
    <path clip-path="url(#p86f485a01d)" d="M 266.85156 250.292517 
L 266.85156 250.116858 
" style="fill:none;stroke:#ff0000;stroke-width:2;"/>
    <path clip-path="url(#p86f485a01d)" d="M 274.14233 249.192886 
L 274.14233 248.959559 
" style="fill:none;stroke:#ff0000;stroke-width:2;"/>
    <path clip-path="url(#p86f485a01d)" d="M 281.433101 247.773854 
L 281.433101 247.432526 
" style="fill:none;stroke:#ff0000;stroke-width:2;"/>
    <path clip-path="url(#p86f485a01d)" d="M 288.723872 245.675512 
L 288.723872 245.266215 
" style="fill:none;stroke:#ff0000;stroke-width:2;"/>
    <path clip-path="url(#p86f485a01d)" d="M 296.014643 242.532308 
L 296.014643 242.064779 
" style="fill:none;stroke:#ff0000;stroke-width:2;"/>
    <path clip-path="url(#p86f485a01d)" d="M 303.305414 238.274325 
L 303.305414 237.648859 
" style="fill:none;stroke:#ff0000;stroke-width:2;"/>
    <path clip-path="url(#p86f485a01d)" d="M 310.596184 232.337045 
L 310.596184 231.581995 
" style="fill:none;stroke:#ff0000;stroke-width:2;"/>
    <path clip-path="url(#p86f485a01d)" d="M 317.886955 223.140295 
L 317.886955 222.289494 
" style="fill:none;stroke:#ff0000;stroke-width:2;"/>
    <path clip-path="url(#p86f485a01d)" d="M 325.177726 206.032128 
L 325.177726 205.007916 
" style="fill:none;stroke:#ff0000;stroke-width:2;"/>
   </g>
   <g id="line2d_9">
    <path clip-path="url(#p86f485a01d)" d="M 99.163831 73.584178 
L 106.454602 204.860171 
L 113.745373 222.923265 
L 121.036144 232.810024 
L 128.326914 238.594776 
L 135.617685 242.866734 
L 142.908456 245.753641 
L 150.199227 247.769496 
L 157.489998 249.329412 
L 164.780768 250.361438 
L 172.071539 251.13465 
L 179.36231 251.715574 
L 186.653081 252.096107 
L 193.943852 252.392725 
L 201.234622 252.558972 
L 208.525393 252.646872 
L 215.816164 252.680247 
L 223.106935 252.659399 
L 230.397706 252.544826 
L 237.688476 252.3458 
L 244.979247 252.046504 
L 252.270018 251.627618 
L 259.560789 251.017021 
L 266.85156 250.204687 
L 274.14233 249.076223 
L 281.433101 247.60319 
L 288.723872 245.470864 
L 296.014643 242.298543 
L 303.305414 237.961592 
L 310.596184 231.95952 
L 317.886955 222.714895 
L 325.177726 205.520022 
" style="fill:none;stroke:#000000;stroke-linecap:square;stroke-width:2;"/>
   </g>
   <g id="patch_3">
    <path d="M 87.863137 261.684426 
L 87.863137 63.911226 
" style="fill:none;stroke:#000000;stroke-linecap:square;stroke-linejoin:miter;stroke-width:0.8;"/>
   </g>
   <g id="patch_4">
    <path d="M 336.478421 261.684426 
L 336.478421 63.911226 
" style="fill:none;stroke:#000000;stroke-linecap:square;stroke-linejoin:miter;stroke-width:0.8;"/>
   </g>
   <g id="patch_5">
    <path d="M 87.863137 261.684426 
L 336.478421 261.684426 
" style="fill:none;stroke:#000000;stroke-linecap:square;stroke-linejoin:miter;stroke-width:0.8;"/>
   </g>
   <g id="patch_6">
    <path d="M 87.863137 63.911226 
L 336.478421 63.911226 
" style="fill:none;stroke:#000000;stroke-linecap:square;stroke-linejoin:miter;stroke-width:0.8;"/>
   </g>
   <g id="text_10">
    <!-- $C(t)$ -->
    <g transform="translate(190.242626 57.911226)scale(0.24 -0.24)">
     <defs>
      <path d="M 74.703125 69.109375 
C 74.703125 70 74 70 73.796875 70 
C 73.59375 70 73.203125 70 72.40625 69 
L 65.5 60.65625 
C 62 66.625 56.5 70 49 70 
C 27.40625 70 5 48.25 5 24.921875 
C 5 8.328125 16.703125 -2 31.296875 -2 
C 39.296875 -2 46.296875 1.375 52.09375 6.25 
C 60.796875 13.484375 63.40625 23.140625 63.40625 23.921875 
C 63.40625 24.8125 62.59375 24.8125 62.296875 24.8125 
C 61.40625 24.8125 61.296875 24.21875 61.09375 23.8125 
C 56.5 8.34375 43 0.890625 33 0.890625 
C 22.40625 0.890625 13.203125 7.640625 13.203125 21.734375 
C 13.203125 24.921875 14.203125 42.1875 25.5 55.1875 
C 31 61.546875 40.40625 67.109375 49.90625 67.109375 
C 60.90625 67.109375 65.796875 58.078125 65.796875 47.9375 
C 65.796875 45.359375 65.5 43.1875 65.5 42.78125 
C 65.5 41.890625 66.5 41.890625 66.796875 41.890625 
C 67.90625 41.890625 68 41.984375 68.40625 43.765625 
z
" id="CMMI12-67"/>
      <path d="M 30.59375 -24.390625 
C 30.59375 -24.296875 30.59375 -24.09375 30.296875 -23.796875 
C 25.703125 -19.125 13.40625 -6.359375 13.40625 24.703125 
C 13.40625 55.765625 25.5 68.421875 30.40625 73.390625 
C 30.40625 73.5 30.59375 73.703125 30.59375 74 
C 30.59375 74.296875 30.296875 74.5 29.90625 74.5 
C 28.796875 74.5 20.296875 67.125 15.40625 56.15625 
C 10.40625 45.109375 9 34.359375 9 24.8125 
C 9 17.625 9.703125 5.484375 15.703125 -7.359375 
C 20.5 -17.734375 28.703125 -25 29.90625 -25 
C 30.40625 -25 30.59375 -24.796875 30.59375 -24.390625 
z
" id="CMR17-40"/>
      <path d="M 20.09375 40.09375 
L 29.296875 40.09375 
C 31.203125 40.09375 32.203125 40.09375 32.203125 41.890625 
C 32.203125 43 31.59375 43 29.59375 43 
L 20.796875 43 
L 24.5 57.6875 
C 24.90625 59.078125 24.90625 59.28125 24.90625 60 
C 24.90625 61.609375 23.59375 62.5 22.296875 62.5 
C 21.5 62.5 19.203125 62.203125 18.40625 58.984375 
L 14.5 43 
L 5.09375 43 
C 3.09375 43 2.203125 43 2.203125 41.09375 
C 2.203125 40.09375 2.90625 40.09375 4.796875 40.09375 
L 13.703125 40.09375 
L 7.09375 13.765625 
C 6.296875 10.28125 6 9.28125 6 7.984375 
C 6 3.296875 9.296875 -1 14.90625 -1 
C 25 -1 30.40625 13.5625 30.40625 14.25 
C 30.40625 14.859375 30 15.15625 29.40625 15.15625 
C 29.203125 15.15625 28.796875 15.15625 28.59375 14.75 
C 28.5 14.65625 28.40625 14.546875 27.703125 12.953125 
C 25.59375 7.984375 21 1 15.203125 1 
C 12.203125 1 12 3.5 12 5.6875 
C 12 5.78125 12 7.6875 12.296875 8.875 
z
" id="CMMI12-116"/>
      <path d="M 26.296875 24.703125 
C 26.296875 31.875 25.59375 44.015625 19.59375 56.859375 
C 14.796875 67.234375 6.59375 74.5 5.40625 74.5 
C 5.09375 74.5 4.703125 74.390625 4.703125 73.890625 
C 4.703125 73.703125 4.796875 73.59375 4.90625 73.390625 
C 9.703125 68.40625 21.90625 55.75 21.90625 24.75 
C 21.90625 -6.359375 9.796875 -19.015625 4.90625 -24.015625 
C 4.796875 -24.203125 4.703125 -24.3125 4.703125 -24.5 
C 4.703125 -25 5.09375 -25 5.40625 -25 
C 6.5 -25 15 -17.625 19.90625 -6.65625 
C 24.90625 4.390625 26.296875 15.140625 26.296875 24.703125 
z
" id="CMR17-41"/>
     </defs>
     <use transform="scale(0.996264)" xlink:href="#CMMI12-67"/>
     <use transform="translate(76.946847 0)scale(0.996264)" xlink:href="#CMR17-40"/>
     <use transform="translate(112.227614 0)scale(0.996264)" xlink:href="#CMMI12-116"/>
     <use transform="translate(147.453945 0)scale(0.996264)" xlink:href="#CMR17-41"/>
    </g>
   </g>
  </g>
  <g id="axes_2">
   <g id="patch_7">
    <path d="M 403.623926 261.684426 
L 652.23921 261.684426 
L 652.23921 63.911226 
L 403.623926 63.911226 
z
" style="fill:#ffffff;"/>
   </g>
   <g id="matplotlib.axis_3">
    <g id="xtick_5">
     <g id="line2d_10">
      <g>
       <use style="stroke:#000000;stroke-width:0.8;" x="414.924621" xlink:href="#m6700351c99" y="261.684426"/>
      </g>
     </g>
     <g id="text_11">
      <!-- $\mathdefault{0}$ -->
      <g transform="translate(411.022627 279.754014)scale(0.16 -0.16)">
       <use transform="scale(0.996264)" xlink:href="#CMR17-48"/>
      </g>
     </g>
    </g>
    <g id="xtick_6">
     <g id="line2d_11">
      <g>
       <use style="stroke:#000000;stroke-width:0.8;" x="485.553963" xlink:href="#m6700351c99" y="261.684426"/>
      </g>
     </g>
     <g id="text_12">
      <!-- $\mathdefault{5}$ -->
      <g transform="translate(481.651969 279.754014)scale(0.16 -0.16)">
       <defs>
        <path d="M 11.40625 57.6875 
C 12.40625 57.28125 16.5 56 20.703125 56 
C 30 56 35.09375 61.109375 38 64.0625 
C 38 64.953125 38 65.5 37.40625 65.5 
C 37.296875 65.5 37.09375 65.5 36.296875 65.046875 
C 32.796875 63.40625 28.703125 62.078125 23.703125 62.078125 
C 20.703125 62.078125 16.203125 62.484375 11.296875 64.671875 
C 10.203125 65.171875 10 65.171875 9.90625 65.171875 
C 9.40625 65.171875 9.296875 65.0625 9.296875 63.078125 
L 9.296875 34.421875 
C 9.296875 32.640625 9.296875 32.140625 10.296875 32.140625 
C 10.796875 32.140625 11 32.34375 11.5 33.03125 
C 14.703125 37.515625 19.09375 39.40625 24.09375 39.40625 
C 27.59375 39.40625 35.09375 37.21875 35.09375 20.140625 
C 35.09375 16.953125 35.09375 11.171875 32.09375 6.578125 
C 29.59375 2.484375 25.703125 0.390625 21.40625 0.390625 
C 14.796875 0.390625 8.09375 5 6.296875 12.71875 
C 6.703125 12.609375 7.5 12.421875 7.90625 12.421875 
C 9.203125 12.421875 11.703125 13.125 11.703125 16.21875 
C 11.703125 18.90625 9.796875 20 7.90625 20 
C 5.59375 20 4.09375 18.59375 4.09375 15.796875 
C 4.09375 7.09375 11 -2 21.59375 -2 
C 31.90625 -2 41.703125 6.875 41.703125 19.75 
C 41.703125 31.71875 33.90625 41 24.203125 41 
C 19.09375 41 14.796875 39.109375 11.40625 35.53125 
z
" id="CMR17-53"/>
       </defs>
       <use transform="scale(0.996264)" xlink:href="#CMR17-53"/>
      </g>
     </g>
    </g>
    <g id="xtick_7">
     <g id="line2d_12">
      <g>
       <use style="stroke:#000000;stroke-width:0.8;" x="556.183305" xlink:href="#m6700351c99" y="261.684426"/>
      </g>
     </g>
     <g id="text_13">
      <!-- $\mathdefault{10}$ -->
      <g transform="translate(548.379318 279.754014)scale(0.16 -0.16)">
       <use transform="scale(0.996264)" xlink:href="#CMR17-49"/>
       <use transform="translate(45.690477 0)scale(0.996264)" xlink:href="#CMR17-48"/>
      </g>
     </g>
    </g>
    <g id="xtick_8">
     <g id="line2d_13">
      <g>
       <use style="stroke:#000000;stroke-width:0.8;" x="626.812647" xlink:href="#m6700351c99" y="261.684426"/>
      </g>
     </g>
     <g id="text_14">
      <!-- $\mathdefault{15}$ -->
      <g transform="translate(619.00866 279.754014)scale(0.16 -0.16)">
       <use transform="scale(0.996264)" xlink:href="#CMR17-49"/>
       <use transform="translate(45.690477 0)scale(0.996264)" xlink:href="#CMR17-53"/>
      </g>
     </g>
    </g>
   </g>
   <g id="matplotlib.axis_4">
    <g id="ytick_5">
     <g id="line2d_14">
      <g>
       <use style="stroke:#000000;stroke-width:0.8;" x="403.623926" xlink:href="#mc91189444b" y="253.13053"/>
      </g>
     </g>
     <g id="text_15">
      <!-- $\mathdefault{0}$ -->
      <g transform="translate(388.819939 258.665324)scale(0.16 -0.16)">
       <use transform="scale(0.996264)" xlink:href="#CMR17-48"/>
      </g>
     </g>
    </g>
    <g id="ytick_6">
     <g id="line2d_15">
      <g>
       <use style="stroke:#000000;stroke-width:0.8;" x="403.623926" xlink:href="#mc91189444b" y="197.251815"/>
      </g>
     </g>
     <g id="text_16">
      <!-- $\mathdefault{10}$ -->
      <g transform="translate(381.015952 202.786609)scale(0.16 -0.16)">
       <use transform="scale(0.996264)" xlink:href="#CMR17-49"/>
       <use transform="translate(45.690477 0)scale(0.996264)" xlink:href="#CMR17-48"/>
      </g>
     </g>
    </g>
    <g id="ytick_7">
     <g id="line2d_16">
      <g>
       <use style="stroke:#000000;stroke-width:0.8;" x="403.623926" xlink:href="#mc91189444b" y="141.373099"/>
      </g>
     </g>
     <g id="text_17">
      <!-- $\mathdefault{20}$ -->
      <g transform="translate(381.015952 146.907893)scale(0.16 -0.16)">
       <use transform="scale(0.996264)" xlink:href="#CMR17-50"/>
       <use transform="translate(45.690477 0)scale(0.996264)" xlink:href="#CMR17-48"/>
      </g>
     </g>
    </g>
    <g id="ytick_8">
     <g id="line2d_17">
      <g>
       <use style="stroke:#000000;stroke-width:0.8;" x="403.623926" xlink:href="#mc91189444b" y="85.494384"/>
      </g>
     </g>
     <g id="text_18">
      <!-- $\mathdefault{30}$ -->
      <g transform="translate(381.015952 91.029178)scale(0.16 -0.16)">
       <use transform="scale(0.996264)" xlink:href="#CMR17-51"/>
       <use transform="translate(45.690477 0)scale(0.996264)" xlink:href="#CMR17-48"/>
      </g>
     </g>
    </g>
   </g>
   <g id="LineCollection_2">
    <path clip-path="url(#p63bfc64e81)" d="M 414.924621 74.267439 
L 414.924621 72.900917 
" style="fill:none;stroke:#ff0000;stroke-width:2;"/>
    <path clip-path="url(#p63bfc64e81)" d="M 429.050489 205.549898 
L 429.050489 204.830295 
" style="fill:none;stroke:#ff0000;stroke-width:2;"/>
    <path clip-path="url(#p63bfc64e81)" d="M 443.176358 223.135863 
L 443.176358 222.502298 
" style="fill:none;stroke:#ff0000;stroke-width:2;"/>
    <path clip-path="url(#p63bfc64e81)" d="M 457.302226 232.659161 
L 457.302226 232.110384 
" style="fill:none;stroke:#ff0000;stroke-width:2;"/>
    <path clip-path="url(#p63bfc64e81)" d="M 471.428095 238.495579 
L 471.428095 238.060789 
" style="fill:none;stroke:#ff0000;stroke-width:2;"/>
    <path clip-path="url(#p63bfc64e81)" d="M 485.553963 242.764549 
L 485.553963 242.400729 
" style="fill:none;stroke:#ff0000;stroke-width:2;"/>
    <path clip-path="url(#p63bfc64e81)" d="M 499.679831 245.749327 
L 499.679831 245.475177 
" style="fill:none;stroke:#ff0000;stroke-width:2;"/>
    <path clip-path="url(#p63bfc64e81)" d="M 513.8057 247.792013 
L 513.8057 247.580673 
" style="fill:none;stroke:#ff0000;stroke-width:2;"/>
    <path clip-path="url(#p63bfc64e81)" d="M 527.931568 249.279866 
L 527.931568 249.125769 
" style="fill:none;stroke:#ff0000;stroke-width:2;"/>
    <path clip-path="url(#p63bfc64e81)" d="M 542.057437 250.344952 
L 542.057437 250.221174 
" style="fill:none;stroke:#ff0000;stroke-width:2;"/>
    <path clip-path="url(#p63bfc64e81)" d="M 556.183305 251.118297 
L 556.183305 251.033373 
" style="fill:none;stroke:#ff0000;stroke-width:2;"/>
    <path clip-path="url(#p63bfc64e81)" d="M 570.309174 251.706099 
L 570.309174 251.637094 
" style="fill:none;stroke:#ff0000;stroke-width:2;"/>
    <path clip-path="url(#p63bfc64e81)" d="M 584.435042 252.096318 
L 584.435042 252.046292 
" style="fill:none;stroke:#ff0000;stroke-width:2;"/>
    <path clip-path="url(#p63bfc64e81)" d="M 598.56091 252.386634 
L 598.56091 252.351892 
" style="fill:none;stroke:#ff0000;stroke-width:2;"/>
    <path clip-path="url(#p63bfc64e81)" d="M 612.686779 252.565143 
L 612.686779 252.538655 
" style="fill:none;stroke:#ff0000;stroke-width:2;"/>
    <path clip-path="url(#p63bfc64e81)" d="M 626.812647 252.664811 
L 626.812647 252.641461 
" style="fill:none;stroke:#ff0000;stroke-width:2;"/>
    <path clip-path="url(#p63bfc64e81)" d="M 640.938516 252.694735 
L 640.938516 252.66576 
" style="fill:none;stroke:#ff0000;stroke-width:2;"/>
   </g>
   <g id="line2d_18">
    <path clip-path="url(#p63bfc64e81)" d="M 414.924621 73.584178 
L 429.050489 205.190097 
L 443.176358 222.81908 
L 457.302226 232.384772 
L 471.428095 238.278184 
L 485.553963 242.582639 
L 499.679831 245.612252 
L 513.8057 247.686343 
L 527.931568 249.202817 
L 542.057437 250.283063 
L 556.183305 251.075835 
L 570.309174 251.671596 
L 584.435042 252.071305 
L 598.56091 252.369263 
L 612.686779 252.551899 
L 626.812647 252.653136 
L 640.938516 252.680247 
" style="fill:none;stroke:#000000;stroke-linecap:square;stroke-width:2;"/>
   </g>
   <g id="patch_8">
    <path d="M 403.623926 261.684426 
L 403.623926 63.911226 
" style="fill:none;stroke:#000000;stroke-linecap:square;stroke-linejoin:miter;stroke-width:0.8;"/>
   </g>
   <g id="patch_9">
    <path d="M 652.23921 261.684426 
L 652.23921 63.911226 
" style="fill:none;stroke:#000000;stroke-linecap:square;stroke-linejoin:miter;stroke-width:0.8;"/>
   </g>
   <g id="patch_10">
    <path d="M 403.623926 261.684426 
L 652.23921 261.684426 
" style="fill:none;stroke:#000000;stroke-linecap:square;stroke-linejoin:miter;stroke-width:0.8;"/>
   </g>
   <g id="patch_11">
    <path d="M 403.623926 63.911226 
L 652.23921 63.911226 
" style="fill:none;stroke:#000000;stroke-linecap:square;stroke-linejoin:miter;stroke-width:0.8;"/>
   </g>
   <g id="text_19">
    <!-- Folded $C(t)$ -->
    <g transform="translate(470.592558 57.911226)scale(0.24 -0.24)">
     <defs>
      <path d="M 54.40625 67.578125 
L 5.09375 67.578125 
L 5.09375 65 
C 12 65 13.09375 65 13.09375 60.53125 
L 13.09375 6.96875 
C 13.09375 2.5 12 2.5 5.09375 2.5 
L 5.09375 0 
C 8 0 13.59375 0 16.703125 0 
C 20.796875 0 25.59375 0 29.703125 0 
L 29.703125 2.5 
L 27.5 2.5 
C 19.90625 2.5 19.703125 3.484375 19.703125 7.0625 
L 19.703125 32.421875 
L 28.703125 32.421875 
C 38 32.421875 38.90625 29.140625 38.90625 20.8125 
L 40.703125 20.8125 
L 40.703125 46.671875 
L 38.90625 46.671875 
C 38.90625 38.28125 38 35 28.703125 35 
L 19.703125 35 
L 19.703125 61.109375 
C 19.703125 64.5 19.90625 65 23.90625 65 
L 36.796875 65 
C 51.90625 65 53.59375 58.828125 55 45.5625 
L 56.796875 45.5625 
z
" id="CMR17-70"/>
      <path d="M 43.09375 21.1875 
C 43.09375 34 33.796875 44 22.90625 44 
C 12 44 2.703125 34 2.703125 21.1875 
C 2.703125 8.609375 12 -1 22.90625 -1 
C 33.796875 -1 43.09375 8.609375 43.09375 21.1875 
z
M 22.90625 0.796875 
C 18.203125 0.796875 14.203125 3.59375 11.90625 7.5 
C 9.40625 11.984375 9.09375 17.59375 9.09375 22 
C 9.09375 26.203125 9.296875 31.40625 11.90625 35.90625 
C 13.90625 39.203125 17.796875 42.40625 22.90625 42.40625 
C 27.40625 42.40625 31.203125 39.90625 33.59375 36.40625 
C 36.703125 31.703125 36.703125 25.109375 36.703125 22 
C 36.703125 18.09375 36.5 12.109375 33.796875 7.296875 
C 31 2.703125 26.703125 0.796875 22.90625 0.796875 
z
" id="CMR17-111"/>
      <path d="M 29.203125 67.59375 
L 29.203125 65 
C 35.09375 65 36 64.40625 36 59.6875 
L 36 36.640625 
C 35.59375 37.140625 31.5 43.59375 23.40625 43.59375 
C 13.203125 43.59375 3.296875 34.5 3.296875 21.3125 
C 3.296875 8.203125 12.59375 -1 22.40625 -1 
C 30.90625 -1 35.296875 5.265625 35.796875 5.9375 
L 35.796875 -0.984375 
L 47.90625 -0.984375 
L 47.90625 2 
C 42 2 41.09375 2.59375 41.09375 7.390625 
L 41.09375 68.6875 
z
M 35.796875 11.796875 
C 35.796875 8.796875 34 6.09375 31.703125 4.09375 
C 28.296875 1.09375 24.90625 0.59375 23 0.59375 
C 20.09375 0.59375 9.703125 2.09375 9.703125 21.1875 
C 9.703125 40.8125 21.296875 42 23.90625 42 
C 28.5 42 32.203125 39.40625 34.5 35.796875 
C 35.796875 33.703125 35.796875 33.40625 35.796875 31.609375 
z
" id="CMR17-100"/>
     </defs>
     <use transform="scale(0.996264)" xlink:href="#CMR17-70"/>
     <use transform="translate(52.176591 0)scale(0.996264)" xlink:href="#CMR17-111"/>
     <use transform="translate(97.867068 0)scale(0.996264)" xlink:href="#CMR17-108"/>
     <use transform="translate(122.738127 0)scale(0.996264)" xlink:href="#CMR17-100"/>
     <use transform="translate(173.633497 0)scale(0.996264)" xlink:href="#CMR17-101"/>
     <use transform="translate(214.119157 0)scale(0.996264)" xlink:href="#CMR17-100"/>
     <use transform="translate(295.090493 0)scale(0.996264)" xlink:href="#CMMI12-67"/>
     <use transform="translate(372.03734 0)scale(0.996264)" xlink:href="#CMR17-40"/>
     <use transform="translate(407.318108 0)scale(0.996264)" xlink:href="#CMMI12-116"/>
     <use transform="translate(442.544438 0)scale(0.996264)" xlink:href="#CMR17-41"/>
    </g>
   </g>
  </g>
  <g id="axes_3">
   <g id="patch_12">
    <path d="M 719.384716 261.684426 
L 968 261.684426 
L 968 63.911226 
L 719.384716 63.911226 
z
" style="fill:#ffffff;"/>
   </g>
   <g id="matplotlib.axis_5">
    <g id="xtick_9">
     <g id="line2d_19">
      <g>
       <use style="stroke:#000000;stroke-width:0.8;" x="730.685411" xlink:href="#m6700351c99" y="261.684426"/>
      </g>
     </g>
     <g id="text_20">
      <!-- $\mathdefault{0}$ -->
      <g transform="translate(726.783417 279.754014)scale(0.16 -0.16)">
       <use transform="scale(0.996264)" xlink:href="#CMR17-48"/>
      </g>
     </g>
    </g>
    <g id="xtick_10">
     <g id="line2d_20">
      <g>
       <use style="stroke:#000000;stroke-width:0.8;" x="801.314753" xlink:href="#m6700351c99" y="261.684426"/>
      </g>
     </g>
     <g id="text_21">
      <!-- $\mathdefault{5}$ -->
      <g transform="translate(797.412759 279.754014)scale(0.16 -0.16)">
       <use transform="scale(0.996264)" xlink:href="#CMR17-53"/>
      </g>
     </g>
    </g>
    <g id="xtick_11">
     <g id="line2d_21">
      <g>
       <use style="stroke:#000000;stroke-width:0.8;" x="871.944095" xlink:href="#m6700351c99" y="261.684426"/>
      </g>
     </g>
     <g id="text_22">
      <!-- $\mathdefault{10}$ -->
      <g transform="translate(864.140108 279.754014)scale(0.16 -0.16)">
       <use transform="scale(0.996264)" xlink:href="#CMR17-49"/>
       <use transform="translate(45.690477 0)scale(0.996264)" xlink:href="#CMR17-48"/>
      </g>
     </g>
    </g>
    <g id="xtick_12">
     <g id="line2d_22">
      <g>
       <use style="stroke:#000000;stroke-width:0.8;" x="942.573437" xlink:href="#m6700351c99" y="261.684426"/>
      </g>
     </g>
     <g id="text_23">
      <!-- $\mathdefault{15}$ -->
      <g transform="translate(934.76945 279.754014)scale(0.16 -0.16)">
       <use transform="scale(0.996264)" xlink:href="#CMR17-49"/>
       <use transform="translate(45.690477 0)scale(0.996264)" xlink:href="#CMR17-53"/>
      </g>
     </g>
    </g>
   </g>
   <g id="matplotlib.axis_6">
    <g id="ytick_9">
     <g id="line2d_23">
      <g>
       <use style="stroke:#000000;stroke-width:0.8;" x="719.384716" xlink:href="#mc91189444b" y="235.286418"/>
      </g>
     </g>
     <g id="text_24">
      <!-- $\mathdefault{−0.10}$ -->
      <g transform="translate(672.23921 240.821212)scale(0.16 -0.16)">
       <defs>
        <path d="M 65.90625 23 
C 67.59375 23 69.40625 23 69.40625 25 
C 69.40625 27 67.59375 27 65.90625 27 
L 11.796875 27 
C 10.09375 27 8.296875 27 8.296875 25 
C 8.296875 23 10.09375 23 11.796875 23 
z
" id="CMSY10-0"/>
        <path d="M 18.40625 4.796875 
C 18.40625 7.6875 16 9.671875 13.59375 9.671875 
C 10.703125 9.671875 8.703125 7.28125 8.703125 4.890625 
C 8.703125 2 11.09375 0 13.5 0 
C 16.40625 0 18.40625 2.390625 18.40625 4.796875 
z
" id="CMMI12-58"/>
       </defs>
       <use transform="scale(0.996264)" xlink:href="#CMSY10-0"/>
       <use transform="translate(77.487468 0)scale(0.996264)" xlink:href="#CMR17-48"/>
       <use transform="translate(123.177945 0)scale(0.996264)" xlink:href="#CMMI12-58"/>
       <use transform="translate(150.275122 0)scale(0.996264)" xlink:href="#CMR17-49"/>
       <use transform="translate(195.965599 0)scale(0.996264)" xlink:href="#CMR17-48"/>
      </g>
     </g>
    </g>
    <g id="ytick_10">
     <g id="line2d_24">
      <g>
       <use style="stroke:#000000;stroke-width:0.8;" x="719.384716" xlink:href="#mc91189444b" y="200.181194"/>
      </g>
     </g>
     <g id="text_25">
      <!-- $\mathdefault{−0.05}$ -->
      <g transform="translate(672.23921 205.715988)scale(0.16 -0.16)">
       <use transform="scale(0.996264)" xlink:href="#CMSY10-0"/>
       <use transform="translate(77.487468 0)scale(0.996264)" xlink:href="#CMR17-48"/>
       <use transform="translate(123.177945 0)scale(0.996264)" xlink:href="#CMMI12-58"/>
       <use transform="translate(150.275122 0)scale(0.996264)" xlink:href="#CMR17-48"/>
       <use transform="translate(195.965599 0)scale(0.996264)" xlink:href="#CMR17-53"/>
      </g>
     </g>
    </g>
    <g id="ytick_11">
     <g id="line2d_25">
      <g>
       <use style="stroke:#000000;stroke-width:0.8;" x="719.384716" xlink:href="#mc91189444b" y="165.07597"/>
      </g>
     </g>
     <g id="text_26">
      <!-- $\mathdefault{0.00}$ -->
      <g transform="translate(684.637206 170.610764)scale(0.16 -0.16)">
       <use transform="scale(0.996264)" xlink:href="#CMR17-48"/>
       <use transform="translate(45.690477 0)scale(0.996264)" xlink:href="#CMMI12-58"/>
       <use transform="translate(72.787654 0)scale(0.996264)" xlink:href="#CMR17-48"/>
       <use transform="translate(118.478131 0)scale(0.996264)" xlink:href="#CMR17-48"/>
      </g>
     </g>
    </g>
    <g id="ytick_12">
     <g id="line2d_26">
      <g>
       <use style="stroke:#000000;stroke-width:0.8;" x="719.384716" xlink:href="#mc91189444b" y="129.970745"/>
      </g>
     </g>
     <g id="text_27">
      <!-- $\mathdefault{0.05}$ -->
      <g transform="translate(684.637206 135.505539)scale(0.16 -0.16)">
       <use transform="scale(0.996264)" xlink:href="#CMR17-48"/>
       <use transform="translate(45.690477 0)scale(0.996264)" xlink:href="#CMMI12-58"/>
       <use transform="translate(72.787654 0)scale(0.996264)" xlink:href="#CMR17-48"/>
       <use transform="translate(118.478131 0)scale(0.996264)" xlink:href="#CMR17-53"/>
      </g>
     </g>
    </g>
    <g id="ytick_13">
     <g id="line2d_27">
      <g>
       <use style="stroke:#000000;stroke-width:0.8;" x="719.384716" xlink:href="#mc91189444b" y="94.865521"/>
      </g>
     </g>
     <g id="text_28">
      <!-- $\mathdefault{0.10}$ -->
      <g transform="translate(684.637206 100.400315)scale(0.16 -0.16)">
       <use transform="scale(0.996264)" xlink:href="#CMR17-48"/>
       <use transform="translate(45.690477 0)scale(0.996264)" xlink:href="#CMMI12-58"/>
       <use transform="translate(72.787654 0)scale(0.996264)" xlink:href="#CMR17-49"/>
       <use transform="translate(118.478131 0)scale(0.996264)" xlink:href="#CMR17-48"/>
      </g>
     </g>
    </g>
   </g>
   <g id="LineCollection_3">
    <path clip-path="url(#p971de55b99)" d="M 730.685411 165.07597 
L 730.685411 165.07597 
" style="fill:none;stroke:#ff0000;stroke-width:2;"/>
    <path clip-path="url(#p971de55b99)" d="M 744.811279 174.34211 
L 744.811279 72.900917 
" style="fill:none;stroke:#ff0000;stroke-width:2;"/>
    <path clip-path="url(#p971de55b99)" d="M 758.937147 218.224075 
L 758.937147 138.109178 
" style="fill:none;stroke:#ff0000;stroke-width:2;"/>
    <path clip-path="url(#p971de55b99)" d="M 773.063016 252.694735 
L 773.063016 184.321229 
" style="fill:none;stroke:#ff0000;stroke-width:2;"/>
    <path clip-path="url(#p971de55b99)" d="M 787.188884 234.240414 
L 787.188884 175.469712 
" style="fill:none;stroke:#ff0000;stroke-width:2;"/>
    <path clip-path="url(#p971de55b99)" d="M 801.314753 222.237622 
L 801.314753 179.30629 
" style="fill:none;stroke:#ff0000;stroke-width:2;"/>
    <path clip-path="url(#p971de55b99)" d="M 815.440621 200.857562 
L 815.440621 164.824732 
" style="fill:none;stroke:#ff0000;stroke-width:2;"/>
    <path clip-path="url(#p971de55b99)" d="M 829.566489 190.076901 
L 829.566489 160.971082 
" style="fill:none;stroke:#ff0000;stroke-width:2;"/>
    <path clip-path="url(#p971de55b99)" d="M 843.692358 191.441265 
L 843.692358 170.523409 
" style="fill:none;stroke:#ff0000;stroke-width:2;"/>
    <path clip-path="url(#p971de55b99)" d="M 857.818226 183.167693 
L 857.818226 166.679709 
" style="fill:none;stroke:#ff0000;stroke-width:2;"/>
    <path clip-path="url(#p971de55b99)" d="M 871.944095 177.602783 
L 871.944095 167.329066 
" style="fill:none;stroke:#ff0000;stroke-width:2;"/>
    <path clip-path="url(#p971de55b99)" d="M 886.069963 174.89174 
L 886.069963 166.3117 
" style="fill:none;stroke:#ff0000;stroke-width:2;"/>
    <path clip-path="url(#p971de55b99)" d="M 900.195832 171.269772 
L 900.195832 165.114683 
" style="fill:none;stroke:#ff0000;stroke-width:2;"/>
    <path clip-path="url(#p971de55b99)" d="M 914.3217 170.067572 
L 914.3217 165.98036 
" style="fill:none;stroke:#ff0000;stroke-width:2;"/>
    <path clip-path="url(#p971de55b99)" d="M 928.447568 167.487695 
L 928.447568 164.441566 
" style="fill:none;stroke:#ff0000;stroke-width:2;"/>
    <path clip-path="url(#p971de55b99)" d="M 942.573437 165.786965 
L 942.573437 162.790991 
" style="fill:none;stroke:#ff0000;stroke-width:2;"/>
    <path clip-path="url(#p971de55b99)" d="M 956.699305 165.07597 
L 956.699305 165.07597 
" style="fill:none;stroke:#ff0000;stroke-width:2;"/>
   </g>
   <g id="line2d_28">
    <path clip-path="url(#p971de55b99)" d="M 730.685411 165.07597 
L 744.811279 123.621514 
L 758.937147 178.166627 
L 773.063016 218.507982 
L 787.188884 204.855063 
L 801.314753 200.771956 
L 815.440621 182.841147 
L 829.566489 175.523991 
L 843.692358 180.982337 
L 857.818226 174.923701 
L 871.944095 172.465925 
L 886.069963 170.60172 
L 900.195832 168.192228 
L 914.3217 168.023966 
L 928.447568 165.96463 
L 942.573437 164.288978 
L 956.699305 165.07597 
" style="fill:none;stroke:#000000;stroke-linecap:square;stroke-width:2;"/>
   </g>
   <g id="patch_13">
    <path d="M 719.384716 261.684426 
L 719.384716 63.911226 
" style="fill:none;stroke:#000000;stroke-linecap:square;stroke-linejoin:miter;stroke-width:0.8;"/>
   </g>
   <g id="patch_14">
    <path d="M 968 261.684426 
L 968 63.911226 
" style="fill:none;stroke:#000000;stroke-linecap:square;stroke-linejoin:miter;stroke-width:0.8;"/>
   </g>
   <g id="patch_15">
    <path d="M 719.384716 261.684426 
L 968 261.684426 
" style="fill:none;stroke:#000000;stroke-linecap:square;stroke-linejoin:miter;stroke-width:0.8;"/>
   </g>
   <g id="patch_16">
    <path d="M 719.384716 63.911226 
L 968 63.911226 
" style="fill:none;stroke:#000000;stroke-linecap:square;stroke-linejoin:miter;stroke-width:0.8;"/>
   </g>
   <g id="text_29">
    <!-- $C(t)$ - Folded $C(t)$ -->
    <g transform="translate(753.597847 57.911226)scale(0.24 -0.24)">
     <defs>
      <path d="M 25.5 19 
L 25.5 23.375 
L 0.40625 23.375 
L 0.40625 19 
z
" id="CMR17-45"/>
     </defs>
     <use transform="scale(0.996264)" xlink:href="#CMMI12-67"/>
     <use transform="translate(76.946847 0)scale(0.996264)" xlink:href="#CMR17-40"/>
     <use transform="translate(112.227614 0)scale(0.996264)" xlink:href="#CMMI12-116"/>
     <use transform="translate(147.453945 0)scale(0.996264)" xlink:href="#CMR17-41"/>
     <use transform="translate(212.810679 0)scale(0.996264)" xlink:href="#CMR17-45"/>
     <use transform="translate(272.962612 0)scale(0.996264)" xlink:href="#CMR17-70"/>
     <use transform="translate(325.139203 0)scale(0.996264)" xlink:href="#CMR17-111"/>
     <use transform="translate(370.82968 0)scale(0.996264)" xlink:href="#CMR17-108"/>
     <use transform="translate(395.700738 0)scale(0.996264)" xlink:href="#CMR17-100"/>
     <use transform="translate(446.596108 0)scale(0.996264)" xlink:href="#CMR17-101"/>
     <use transform="translate(487.081769 0)scale(0.996264)" xlink:href="#CMR17-100"/>
     <use transform="translate(568.053105 0)scale(0.996264)" xlink:href="#CMMI12-67"/>
     <use transform="translate(644.999951 0)scale(0.996264)" xlink:href="#CMR17-40"/>
     <use transform="translate(680.280719 0)scale(0.996264)" xlink:href="#CMMI12-116"/>
     <use transform="translate(715.507049 0)scale(0.996264)" xlink:href="#CMR17-41"/>
    </g>
   </g>
  </g>
  <g id="axes_4">
   <g id="patch_17">
    <path d="M 87.863137 514.830936 
L 336.478421 514.830936 
L 336.478421 317.057736 
L 87.863137 317.057736 
z
" style="fill:#ffffff;"/>
   </g>
   <g id="matplotlib.axis_7">
    <g id="xtick_13">
     <g id="line2d_29">
      <g>
       <use style="stroke:#000000;stroke-width:0.8;" x="99.163831" xlink:href="#m6700351c99" y="514.830936"/>
      </g>
     </g>
     <g id="text_30">
      <!-- $\mathdefault{0}$ -->
      <g transform="translate(95.261838 532.900524)scale(0.16 -0.16)">
       <use transform="scale(0.996264)" xlink:href="#CMR17-48"/>
      </g>
     </g>
    </g>
    <g id="xtick_14">
     <g id="line2d_30">
      <g>
       <use style="stroke:#000000;stroke-width:0.8;" x="172.071539" xlink:href="#m6700351c99" y="514.830936"/>
      </g>
     </g>
     <g id="text_31">
      <!-- $\mathdefault{10}$ -->
      <g transform="translate(164.267552 532.900524)scale(0.16 -0.16)">
       <use transform="scale(0.996264)" xlink:href="#CMR17-49"/>
       <use transform="translate(45.690477 0)scale(0.996264)" xlink:href="#CMR17-48"/>
      </g>
     </g>
    </g>
    <g id="xtick_15">
     <g id="line2d_31">
      <g>
       <use style="stroke:#000000;stroke-width:0.8;" x="244.979247" xlink:href="#m6700351c99" y="514.830936"/>
      </g>
     </g>
     <g id="text_32">
      <!-- $\mathdefault{20}$ -->
      <g transform="translate(237.17526 532.900524)scale(0.16 -0.16)">
       <use transform="scale(0.996264)" xlink:href="#CMR17-50"/>
       <use transform="translate(45.690477 0)scale(0.996264)" xlink:href="#CMR17-48"/>
      </g>
     </g>
    </g>
    <g id="xtick_16">
     <g id="line2d_32">
      <g>
       <use style="stroke:#000000;stroke-width:0.8;" x="317.886955" xlink:href="#m6700351c99" y="514.830936"/>
      </g>
     </g>
     <g id="text_33">
      <!-- $\mathdefault{30}$ -->
      <g transform="translate(310.082968 532.900524)scale(0.16 -0.16)">
       <use transform="scale(0.996264)" xlink:href="#CMR17-51"/>
       <use transform="translate(45.690477 0)scale(0.996264)" xlink:href="#CMR17-48"/>
      </g>
     </g>
    </g>
   </g>
   <g id="matplotlib.axis_8">
    <g id="ytick_14">
     <g id="line2d_33">
      <g>
       <use style="stroke:#000000;stroke-width:0.8;" x="87.863137" xlink:href="#mc91189444b" y="462.937003"/>
      </g>
     </g>
     <g id="text_34">
      <!-- $\mathdefault{0}$ -->
      <g transform="translate(73.05915 468.471798)scale(0.16 -0.16)">
       <use transform="scale(0.996264)" xlink:href="#CMR17-48"/>
      </g>
     </g>
    </g>
    <g id="ytick_15">
     <g id="line2d_34">
      <g>
       <use style="stroke:#000000;stroke-width:0.8;" x="87.863137" xlink:href="#mc91189444b" y="409.914686"/>
      </g>
     </g>
     <g id="text_35">
      <!-- $\mathdefault{1}$ -->
      <g transform="translate(73.05915 415.44948)scale(0.16 -0.16)">
       <use transform="scale(0.996264)" xlink:href="#CMR17-49"/>
      </g>
     </g>
    </g>
    <g id="ytick_16">
     <g id="line2d_35">
      <g>
       <use style="stroke:#000000;stroke-width:0.8;" x="87.863137" xlink:href="#mc91189444b" y="356.892368"/>
      </g>
     </g>
     <g id="text_36">
      <!-- $\mathdefault{2}$ -->
      <g transform="translate(73.05915 362.427163)scale(0.16 -0.16)">
       <use transform="scale(0.996264)" xlink:href="#CMR17-50"/>
      </g>
     </g>
    </g>
    <g id="text_37">
     <!-- Imaginary -->
     <g transform="translate(64.408392 464.660674)rotate(-90)scale(0.24 -0.24)">
      <defs>
       <path d="M 19.703125 61.015625 
C 19.703125 65.5 20.90625 65.5 28.09375 65.5 
L 28.09375 68 
C 24.90625 68 19.796875 68 16.40625 68 
C 13 68 7.90625 68 4.703125 68 
L 4.703125 65.5 
C 11.90625 65.5 13.09375 65.5 13.09375 61.015625 
L 13.09375 6.984375 
C 13.09375 2.5 11.90625 2.5 4.703125 2.5 
L 4.703125 0 
C 7.90625 0 13 0 16.40625 0 
C 19.796875 0 24.90625 0 28.09375 0 
L 28.09375 2.5 
C 20.90625 2.5 19.703125 2.5 19.703125 6.984375 
z
" id="CMR17-73"/>
       <path d="M 67.59375 30.203125 
C 67.59375 35.1875 66.703125 43.59375 54.796875 43.59375 
C 48 43.59375 43.296875 39 41.5 33.609375 
L 41.40625 33.609375 
C 40.203125 41.8125 34.296875 43.59375 28.703125 43.59375 
C 20.796875 43.59375 16.703125 37.5 15.203125 33.5 
L 15.09375 33.5 
L 15.09375 43.59375 
L 3.296875 42.5 
L 3.296875 39.90625 
C 9.203125 39.90625 10.09375 39.296875 10.09375 34.5 
L 10.09375 6.6875 
C 10.09375 2.875 9.703125 2.390625 3.296875 2.390625 
L 3.296875 -0.203125 
C 5.703125 0 10.09375 0 12.703125 0 
C 15.296875 0 19.796875 0 22.203125 -0.203125 
L 22.203125 2.390625 
C 15.796875 2.390625 15.40625 2.78125 15.40625 6.6875 
L 15.40625 25.90625 
C 15.40625 35.109375 21 42 28 42 
C 35.40625 42 36.203125 35.40625 36.203125 30.59375 
L 36.203125 6.6875 
C 36.203125 2.875 35.796875 2.390625 29.40625 2.390625 
L 29.40625 -0.203125 
C 31.796875 0 36.203125 0 38.796875 0 
C 41.40625 0 45.90625 0 48.296875 -0.203125 
L 48.296875 2.390625 
C 41.90625 2.390625 41.5 2.78125 41.5 6.6875 
L 41.5 25.90625 
C 41.5 35.109375 47.09375 42 54.09375 42 
C 61.5 42 62.296875 35.40625 62.296875 30.59375 
L 62.296875 6.6875 
C 62.296875 2.875 61.90625 2.390625 55.5 2.390625 
L 55.5 -0.203125 
C 57.90625 0 62.296875 0 64.90625 0 
C 67.5 0 72 0 74.40625 -0.203125 
L 74.40625 2.390625 
C 68 2.390625 67.59375 2.78125 67.59375 6.6875 
z
" id="CMR17-109"/>
       <path d="M 11.09375 18.1875 
C 13 16.6875 16.296875 15 20.296875 15 
C 28.203125 15 35 21.203125 35 29.5 
C 35 32.09375 34.203125 36.09375 31.203125 39.203125 
C 34 42.0625 38.09375 43 40.40625 43 
C 40.796875 43 41.40625 43 41.90625 42.71875 
C 41.5 42.625 40.59375 42.234375 40.59375 40.703125 
C 40.59375 39.484375 41.5 38.609375 42.796875 38.609375 
C 44.296875 38.609375 45.09375 39.578125 45.09375 40.84375 
C 45.09375 42.671875 43.59375 44.59375 40.40625 44.59375 
C 36.40625 44.59375 32.90625 42.78125 30.09375 40.3125 
C 27.09375 43.015625 23.5 44 20.296875 44 
C 12.40625 44 5.59375 37.796875 5.59375 29.5 
C 5.59375 23.78125 8.90625 20.1875 9.90625 19.1875 
C 6.90625 15.6875 6.90625 11.609375 6.90625 11.109375 
C 6.90625 8.515625 7.90625 4.71875 11.296875 2.625 
C 6.09375 1.328125 2 -2.640625 2 -7.59375 
C 2 -14.734375 11.5 -20 22.90625 -20 
C 33.90625 -20 43.796875 -14.9375 43.796875 -7.484375 
C 43.796875 6 29 6 21.296875 6 
C 19 6 14.90625 6 14.40625 6.109375 
C 11.296875 6.609375 9.203125 9.40625 9.203125 12.90625 
C 9.203125 13.796875 9.203125 16 11.09375 18.1875 
z
M 20.296875 16.6875 
C 11.5 16.6875 11.5 27.5 11.5 29.515625 
C 11.5 31.5 11.5 42.3125 20.296875 42.3125 
C 29.09375 42.3125 29.09375 31.5 29.09375 29.515625 
C 29.09375 27.5 29.09375 16.6875 20.296875 16.6875 
z
M 22.90625 -18.296875 
C 12.90625 -18.296875 6 -13.046875 6 -7.59375 
C 6 -4.515625 7.703125 -1.640625 9.90625 -0.0625 
C 12.40625 1.625 13.40625 1.625 20.203125 1.625 
C 28.40625 1.625 39.796875 1.625 39.796875 -7.59375 
C 39.796875 -13.046875 32.90625 -18.296875 22.90625 -18.296875 
z
" id="CMR17-103"/>
       <path d="M 15.5 61.078125 
C 15.5 63.265625 13.703125 65.15625 11.40625 65.15625 
C 9.203125 65.15625 7.296875 63.375 7.296875 61.078125 
C 7.296875 58.890625 9.09375 57 11.40625 57 
C 13.59375 57 15.5 58.796875 15.5 61.078125 
z
M 3.796875 42.28125 
L 3.796875 39.703125 
C 9.40625 39.703125 10.203125 39.09375 10.203125 34.328125 
L 10.203125 6.671875 
C 10.203125 2.875 9.796875 2.390625 3.40625 2.390625 
L 3.40625 -0.203125 
C 5.796875 0 10.09375 0 12.59375 0 
C 15 0 19.09375 0 21.40625 -0.203125 
L 21.40625 2.390625 
C 15.5 2.390625 15.296875 2.984375 15.296875 6.5625 
L 15.296875 43.375 
z
" id="CMR17-105"/>
       <path d="M 41.5 30.203125 
C 41.5 35.296875 40.5 43.59375 28.703125 43.59375 
C 20.796875 43.59375 16.703125 37.5 15.203125 33.5 
L 15.09375 33.5 
L 15.09375 43.59375 
L 3.296875 42.5 
L 3.296875 39.90625 
C 9.203125 39.90625 10.09375 39.296875 10.09375 34.5 
L 10.09375 6.6875 
C 10.09375 2.875 9.703125 2.390625 3.296875 2.390625 
L 3.296875 -0.203125 
C 5.703125 0 10.09375 0 12.703125 0 
C 15.296875 0 19.796875 0 22.203125 -0.203125 
L 22.203125 2.390625 
C 15.796875 2.390625 15.40625 2.78125 15.40625 6.6875 
L 15.40625 25.90625 
C 15.40625 35.109375 21 42 28 42 
C 35.40625 42 36.203125 35.40625 36.203125 30.59375 
L 36.203125 6.6875 
C 36.203125 2.875 35.796875 2.390625 29.40625 2.390625 
L 29.40625 -0.203125 
C 31.796875 0 36.203125 0 38.796875 0 
C 41.40625 0 45.90625 0 48.296875 -0.203125 
L 48.296875 2.390625 
C 41.90625 2.390625 41.5 2.78125 41.5 6.6875 
z
" id="CMR17-110"/>
       <path d="M 15 23.390625 
C 15 33 19.09375 42 26.59375 42 
C 27.296875 42 28 41.90625 28.703125 41.59375 
C 28.703125 41.59375 26.5 40.890625 26.5 38.3125 
C 26.5 35.90625 28.40625 34.90625 29.90625 34.90625 
C 31.09375 34.90625 33.296875 35.609375 33.296875 38.40625 
C 33.296875 41.609375 30.09375 43.59375 26.703125 43.59375 
C 19.09375 43.59375 15.796875 36.203125 14.796875 32.703125 
L 14.703125 32.703125 
L 14.703125 43.59375 
L 3.09375 42.5 
L 3.09375 39.90625 
C 9 39.90625 9.90625 39.296875 9.90625 34.5 
L 9.90625 6.6875 
C 9.90625 2.875 9.5 2.390625 3.09375 2.390625 
L 3.09375 -0.203125 
C 5.5 0 10.09375 0 12.703125 0 
C 15.59375 0 20.703125 0 23.40625 -0.203125 
L 23.40625 2.390625 
C 16.203125 2.390625 15 2.390625 15 6.875 
z
" id="CMR17-114"/>
       <path d="M 39 34.328125 
C 41.5 40.40625 46 40.40625 47.40625 40.40625 
L 47.40625 43 
C 45.5 43 43 43 41.09375 43 
C 39 43 35.703125 43 33.703125 43.09375 
L 33.703125 40.5 
C 37.5 40.203125 37.59375 37.40625 37.59375 36.609375 
C 37.59375 35.625 37.40625 35.125 36.90625 33.921875 
L 26 7.015625 
L 14.09375 36.03125 
C 13.59375 37.21875 13.59375 37.90625 13.59375 38.015625 
C 13.59375 40.203125 15.90625 40.40625 18.296875 40.40625 
L 18.296875 43.09375 
C 15.90625 43 11.59375 43 9.09375 43 
C 6.40625 43 3.203125 43 1 43.09375 
L 1 40.40625 
C 6.40625 40.40625 7 39.90625 8.296875 36.71875 
L 23.203125 0.234375 
C 18.703125 -11.53125 16.09375 -18.40625 9.796875 -18.40625 
C 8.703125 -18.40625 6.203125 -18.109375 4.40625 -16.3125 
C 6.703125 -16.109375 7.703125 -14.71875 7.703125 -13.015625 
C 7.703125 -11.328125 6.5 -9.828125 4.5 -9.828125 
C 2.296875 -9.828125 1.203125 -11.328125 1.203125 -13.125 
C 1.203125 -17.109375 5.296875 -20 9.796875 -20 
C 15.59375 -20 19.203125 -14.40625 21.203125 -9.4375 
z
" id="CMR17-121"/>
      </defs>
      <use transform="scale(0.996264)" xlink:href="#CMR17-73"/>
      <use transform="translate(32.638409 0)scale(0.996264)" xlink:href="#CMR17-109"/>
      <use transform="translate(109.557999 0)scale(0.996264)" xlink:href="#CMR17-97"/>
      <use transform="translate(155.248476 0)scale(0.996264)" xlink:href="#CMR17-103"/>
      <use transform="translate(200.938953 0)scale(0.996264)" xlink:href="#CMR17-105"/>
      <use transform="translate(225.810012 0)scale(0.996264)" xlink:href="#CMR17-110"/>
      <use transform="translate(276.705382 0)scale(0.996264)" xlink:href="#CMR17-97"/>
      <use transform="translate(322.395859 0)scale(0.996264)" xlink:href="#CMR17-114"/>
      <use transform="translate(357.676626 0)scale(0.996264)" xlink:href="#CMR17-121"/>
     </g>
    </g>
    <g id="text_38">
     <!-- $\times\mathdefault{10^{−17}}\mathdefault{}$ -->
     <g transform="translate(87.863137 314.057736)scale(0.16 -0.16)">
      <defs>
       <path d="M 38.90625 27.890625 
L 18.90625 47.796875 
C 17.703125 49 17.5 49.1875 16.703125 49.1875 
C 15.703125 49.1875 14.703125 48.296875 14.703125 47.1875 
C 14.703125 46.5 14.90625 46.296875 16 45.1875 
L 36 25.09375 
L 16 5 
C 14.90625 3.890625 14.703125 3.6875 14.703125 3 
C 14.703125 1.890625 15.703125 1 16.703125 1 
C 17.5 1 17.703125 1.1875 18.90625 2.390625 
L 38.796875 22.296875 
L 59.5 1.59375 
C 59.703125 1.5 60.40625 1 61 1 
C 62.203125 1 63 1.890625 63 3 
C 63 3.1875 63 3.59375 62.703125 4.09375 
C 62.59375 4.296875 46.703125 20 41.703125 25.09375 
L 60 43.390625 
C 60.5 44 62 45.296875 62.5 45.890625 
C 62.59375 46.09375 63 46.5 63 47.1875 
C 63 48.296875 62.203125 49.1875 61 49.1875 
C 60.203125 49.1875 59.796875 48.796875 58.703125 47.6875 
z
" id="CMSY10-2"/>
       <path d="M 45.09375 61.578125 
L 45.09375 63.765625 
L 21.59375 63.765625 
C 9.90625 63.765625 9.703125 65.078125 9.296875 67 
L 7.5 67 
L 4.59375 48.34375 
L 6.40625 48.34375 
C 6.703125 50.234375 7.40625 55.3125 8.59375 57.203125 
C 9.203125 58 16.59375 58 18.296875 58 
L 40.296875 58 
L 29.203125 41.578125 
C 21.796875 30.53125 16.703125 15.609375 16.703125 2.578125 
C 16.703125 1.390625 16.703125 -2 20.296875 -2 
C 23.90625 -2 23.90625 1.390625 23.90625 2.671875 
L 23.90625 7.265625 
C 23.90625 23.5625 26.703125 34.3125 31.296875 41.1875 
z
" id="CMR17-55"/>
      </defs>
      <use transform="scale(0.996264)" xlink:href="#CMSY10-2"/>
      <use transform="translate(77.487468 0)scale(0.996264)" xlink:href="#CMR17-49"/>
      <use transform="translate(123.177945 0)scale(0.996264)" xlink:href="#CMR17-48"/>
      <use transform="translate(168.868422 36.153639)scale(0.697382)" xlink:href="#CMSY10-0"/>
      <use transform="translate(223.109415 36.153639)scale(0.697382)" xlink:href="#CMR17-49"/>
      <use transform="translate(255.092597 36.153639)scale(0.697382)" xlink:href="#CMR17-55"/>
     </g>
    </g>
   </g>
   <g id="LineCollection_4">
    <path clip-path="url(#p0af6211e78)" d="M 99.163831 457.868869 
L 99.163831 392.532791 
" style="fill:none;stroke:#ff0000;stroke-width:2;"/>
    <path clip-path="url(#p0af6211e78)" d="M 106.454602 394.400308 
L 106.454602 326.047427 
" style="fill:none;stroke:#ff0000;stroke-width:2;"/>
    <path clip-path="url(#p0af6211e78)" d="M 113.745373 505.841245 
L 113.745373 443.12068 
" style="fill:none;stroke:#ff0000;stroke-width:2;"/>
    <path clip-path="url(#p0af6211e78)" d="M 121.036144 451.767958 
L 121.036144 414.162205 
" style="fill:none;stroke:#ff0000;stroke-width:2;"/>
    <path clip-path="url(#p0af6211e78)" d="M 128.326914 491.347991 
L 128.326914 455.854635 
" style="fill:none;stroke:#ff0000;stroke-width:2;"/>
    <path clip-path="url(#p0af6211e78)" d="M 135.617685 471.142151 
L 135.617685 444.014438 
" style="fill:none;stroke:#ff0000;stroke-width:2;"/>
    <path clip-path="url(#p0af6211e78)" d="M 142.908456 480.287536 
L 142.908456 460.538919 
" style="fill:none;stroke:#ff0000;stroke-width:2;"/>
    <path clip-path="url(#p0af6211e78)" d="M 150.199227 465.214418 
L 150.199227 445.707 
" style="fill:none;stroke:#ff0000;stroke-width:2;"/>
    <path clip-path="url(#p0af6211e78)" d="M 157.489998 470.422301 
L 157.489998 454.268423 
" style="fill:none;stroke:#ff0000;stroke-width:2;"/>
    <path clip-path="url(#p0af6211e78)" d="M 164.780768 451.980277 
L 164.780768 442.948747 
" style="fill:none;stroke:#ff0000;stroke-width:2;"/>
    <path clip-path="url(#p0af6211e78)" d="M 172.071539 463.157801 
L 172.071539 454.824246 
" style="fill:none;stroke:#ff0000;stroke-width:2;"/>
    <path clip-path="url(#p0af6211e78)" d="M 179.36231 470.192178 
L 179.36231 461.413773 
" style="fill:none;stroke:#ff0000;stroke-width:2;"/>
    <path clip-path="url(#p0af6211e78)" d="M 186.653081 466.10097 
L 186.653081 460.766416 
" style="fill:none;stroke:#ff0000;stroke-width:2;"/>
    <path clip-path="url(#p0af6211e78)" d="M 193.943852 465.858169 
L 193.943852 461.668621 
" style="fill:none;stroke:#ff0000;stroke-width:2;"/>
    <path clip-path="url(#p0af6211e78)" d="M 201.234622 465.384673 
L 201.234622 461.371202 
" style="fill:none;stroke:#ff0000;stroke-width:2;"/>
    <path clip-path="url(#p0af6211e78)" d="M 208.525393 463.972799 
L 208.525393 461.385127 
" style="fill:none;stroke:#ff0000;stroke-width:2;"/>
    <path clip-path="url(#p0af6211e78)" d="M 215.816164 466.794698 
L 215.816164 464.112027 
" style="fill:none;stroke:#ff0000;stroke-width:2;"/>
    <path clip-path="url(#p0af6211e78)" d="M 223.106935 463.823376 
L 223.106935 460.423585 
" style="fill:none;stroke:#ff0000;stroke-width:2;"/>
    <path clip-path="url(#p0af6211e78)" d="M 230.397706 465.677026 
L 230.397706 462.928514 
" style="fill:none;stroke:#ff0000;stroke-width:2;"/>
    <path clip-path="url(#p0af6211e78)" d="M 237.688476 466.251948 
L 237.688476 462.630182 
" style="fill:none;stroke:#ff0000;stroke-width:2;"/>
    <path clip-path="url(#p0af6211e78)" d="M 244.979247 460.915233 
L 244.979247 456.018109 
" style="fill:none;stroke:#ff0000;stroke-width:2;"/>
    <path clip-path="url(#p0af6211e78)" d="M 252.270018 460.951024 
L 252.270018 454.752642 
" style="fill:none;stroke:#ff0000;stroke-width:2;"/>
    <path clip-path="url(#p0af6211e78)" d="M 259.560789 468.186435 
L 259.560789 459.236579 
" style="fill:none;stroke:#ff0000;stroke-width:2;"/>
    <path clip-path="url(#p0af6211e78)" d="M 266.85156 469.738839 
L 266.85156 455.732236 
" style="fill:none;stroke:#ff0000;stroke-width:2;"/>
    <path clip-path="url(#p0af6211e78)" d="M 274.14233 472.351699 
L 274.14233 458.273952 
" style="fill:none;stroke:#ff0000;stroke-width:2;"/>
    <path clip-path="url(#p0af6211e78)" d="M 281.433101 465.45609 
L 281.433101 445.830498 
" style="fill:none;stroke:#ff0000;stroke-width:2;"/>
    <path clip-path="url(#p0af6211e78)" d="M 288.723872 473.568818 
L 288.723872 453.585536 
" style="fill:none;stroke:#ff0000;stroke-width:2;"/>
    <path clip-path="url(#p0af6211e78)" d="M 296.014643 467.806123 
L 296.014643 435.283175 
" style="fill:none;stroke:#ff0000;stroke-width:2;"/>
    <path clip-path="url(#p0af6211e78)" d="M 303.305414 477.934316 
L 303.305414 439.578987 
" style="fill:none;stroke:#ff0000;stroke-width:2;"/>
    <path clip-path="url(#p0af6211e78)" d="M 310.596184 479.610628 
L 310.596184 435.610556 
" style="fill:none;stroke:#ff0000;stroke-width:2;"/>
    <path clip-path="url(#p0af6211e78)" d="M 317.886955 456.522997 
L 317.886955 403.440489 
" style="fill:none;stroke:#ff0000;stroke-width:2;"/>
    <path clip-path="url(#p0af6211e78)" d="M 325.177726 488.724864 
L 325.177726 398.292332 
" style="fill:none;stroke:#ff0000;stroke-width:2;"/>
   </g>
   <g id="line2d_36">
    <path clip-path="url(#p0af6211e78)" d="M 99.163831 425.20083 
L 106.454602 360.223868 
L 113.745373 474.480962 
L 121.036144 432.965081 
L 128.326914 473.601313 
L 135.617685 457.578295 
L 142.908456 470.413228 
L 150.199227 455.460709 
L 157.489998 462.345362 
L 164.780768 447.464512 
L 172.071539 458.991024 
L 179.36231 465.802976 
L 186.653081 463.433693 
L 193.943852 463.763395 
L 201.234622 463.377938 
L 208.525393 462.678963 
L 215.816164 465.453362 
L 223.106935 462.12348 
L 230.397706 464.30277 
L 237.688476 464.441065 
L 244.979247 458.466671 
L 252.270018 457.851833 
L 259.560789 463.711507 
L 266.85156 462.735537 
L 274.14233 465.312825 
L 281.433101 455.643294 
L 288.723872 463.577177 
L 296.014643 451.544649 
L 303.305414 458.756651 
L 310.596184 457.610592 
L 317.886955 429.981743 
L 325.177726 443.508598 
" style="fill:none;stroke:#000000;stroke-linecap:square;stroke-width:2;"/>
   </g>
   <g id="patch_18">
    <path d="M 87.863137 514.830936 
L 87.863137 317.057736 
" style="fill:none;stroke:#000000;stroke-linecap:square;stroke-linejoin:miter;stroke-width:0.8;"/>
   </g>
   <g id="patch_19">
    <path d="M 336.478421 514.830936 
L 336.478421 317.057736 
" style="fill:none;stroke:#000000;stroke-linecap:square;stroke-linejoin:miter;stroke-width:0.8;"/>
   </g>
   <g id="patch_20">
    <path d="M 87.863137 514.830936 
L 336.478421 514.830936 
" style="fill:none;stroke:#000000;stroke-linecap:square;stroke-linejoin:miter;stroke-width:0.8;"/>
   </g>
   <g id="patch_21">
    <path d="M 87.863137 317.057736 
L 336.478421 317.057736 
" style="fill:none;stroke:#000000;stroke-linecap:square;stroke-linejoin:miter;stroke-width:0.8;"/>
   </g>
  </g>
  <g id="axes_5">
   <g id="patch_22">
    <path d="M 403.623926 514.830936 
L 652.23921 514.830936 
L 652.23921 317.057736 
L 403.623926 317.057736 
z
" style="fill:#ffffff;"/>
   </g>
   <g id="matplotlib.axis_9">
    <g id="xtick_17">
     <g id="line2d_37">
      <g>
       <use style="stroke:#000000;stroke-width:0.8;" x="414.924621" xlink:href="#m6700351c99" y="514.830936"/>
      </g>
     </g>
     <g id="text_39">
      <!-- $\mathdefault{0}$ -->
      <g transform="translate(411.022627 532.900524)scale(0.16 -0.16)">
       <use transform="scale(0.996264)" xlink:href="#CMR17-48"/>
      </g>
     </g>
    </g>
    <g id="xtick_18">
     <g id="line2d_38">
      <g>
       <use style="stroke:#000000;stroke-width:0.8;" x="485.553963" xlink:href="#m6700351c99" y="514.830936"/>
      </g>
     </g>
     <g id="text_40">
      <!-- $\mathdefault{5}$ -->
      <g transform="translate(481.651969 532.900524)scale(0.16 -0.16)">
       <use transform="scale(0.996264)" xlink:href="#CMR17-53"/>
      </g>
     </g>
    </g>
    <g id="xtick_19">
     <g id="line2d_39">
      <g>
       <use style="stroke:#000000;stroke-width:0.8;" x="556.183305" xlink:href="#m6700351c99" y="514.830936"/>
      </g>
     </g>
     <g id="text_41">
      <!-- $\mathdefault{10}$ -->
      <g transform="translate(548.379318 532.900524)scale(0.16 -0.16)">
       <use transform="scale(0.996264)" xlink:href="#CMR17-49"/>
       <use transform="translate(45.690477 0)scale(0.996264)" xlink:href="#CMR17-48"/>
      </g>
     </g>
    </g>
    <g id="xtick_20">
     <g id="line2d_40">
      <g>
       <use style="stroke:#000000;stroke-width:0.8;" x="626.812647" xlink:href="#m6700351c99" y="514.830936"/>
      </g>
     </g>
     <g id="text_42">
      <!-- $\mathdefault{15}$ -->
      <g transform="translate(619.00866 532.900524)scale(0.16 -0.16)">
       <use transform="scale(0.996264)" xlink:href="#CMR17-49"/>
       <use transform="translate(45.690477 0)scale(0.996264)" xlink:href="#CMR17-53"/>
      </g>
     </g>
    </g>
   </g>
   <g id="matplotlib.axis_10">
    <g id="ytick_17">
     <g id="line2d_41">
      <g>
       <use style="stroke:#000000;stroke-width:0.8;" x="403.623926" xlink:href="#mc91189444b" y="476.466668"/>
      </g>
     </g>
     <g id="text_43">
      <!-- $\mathdefault{0.0}$ -->
      <g transform="translate(376.680404 482.001462)scale(0.16 -0.16)">
       <use transform="scale(0.996264)" xlink:href="#CMR17-48"/>
       <use transform="translate(45.690477 0)scale(0.996264)" xlink:href="#CMMI12-58"/>
       <use transform="translate(72.787654 0)scale(0.996264)" xlink:href="#CMR17-48"/>
      </g>
     </g>
    </g>
    <g id="ytick_18">
     <g id="line2d_42">
      <g>
       <use style="stroke:#000000;stroke-width:0.8;" x="403.623926" xlink:href="#mc91189444b" y="430.673318"/>
      </g>
     </g>
     <g id="text_44">
      <!-- $\mathdefault{0.5}$ -->
      <g transform="translate(376.680404 436.208112)scale(0.16 -0.16)">
       <use transform="scale(0.996264)" xlink:href="#CMR17-48"/>
       <use transform="translate(45.690477 0)scale(0.996264)" xlink:href="#CMMI12-58"/>
       <use transform="translate(72.787654 0)scale(0.996264)" xlink:href="#CMR17-53"/>
      </g>
     </g>
    </g>
    <g id="ytick_19">
     <g id="line2d_43">
      <g>
       <use style="stroke:#000000;stroke-width:0.8;" x="403.623926" xlink:href="#mc91189444b" y="384.879968"/>
      </g>
     </g>
     <g id="text_45">
      <!-- $\mathdefault{1.0}$ -->
      <g transform="translate(376.680404 390.414762)scale(0.16 -0.16)">
       <use transform="scale(0.996264)" xlink:href="#CMR17-49"/>
       <use transform="translate(45.690477 0)scale(0.996264)" xlink:href="#CMMI12-58"/>
       <use transform="translate(72.787654 0)scale(0.996264)" xlink:href="#CMR17-48"/>
      </g>
     </g>
    </g>
    <g id="ytick_20">
     <g id="line2d_44">
      <g>
       <use style="stroke:#000000;stroke-width:0.8;" x="403.623926" xlink:href="#mc91189444b" y="339.086618"/>
      </g>
     </g>
     <g id="text_46">
      <!-- $\mathdefault{1.5}$ -->
      <g transform="translate(376.680404 344.621412)scale(0.16 -0.16)">
       <use transform="scale(0.996264)" xlink:href="#CMR17-49"/>
       <use transform="translate(45.690477 0)scale(0.996264)" xlink:href="#CMMI12-58"/>
       <use transform="translate(72.787654 0)scale(0.996264)" xlink:href="#CMR17-53"/>
      </g>
     </g>
    </g>
    <g id="text_47">
     <!-- $\times\mathdefault{10^{−17}}\mathdefault{}$ -->
     <g transform="translate(403.623926 314.057736)scale(0.16 -0.16)">
      <use transform="scale(0.996264)" xlink:href="#CMSY10-2"/>
      <use transform="translate(77.487468 0)scale(0.996264)" xlink:href="#CMR17-49"/>
      <use transform="translate(123.177945 0)scale(0.996264)" xlink:href="#CMR17-48"/>
      <use transform="translate(168.868422 36.153639)scale(0.697382)" xlink:href="#CMSY10-0"/>
      <use transform="translate(223.109415 36.153639)scale(0.697382)" xlink:href="#CMR17-49"/>
      <use transform="translate(255.092597 36.153639)scale(0.697382)" xlink:href="#CMR17-55"/>
     </g>
    </g>
   </g>
   <g id="LineCollection_5">
    <path clip-path="url(#pcd45a083fb)" d="M 414.924621 467.71236 
L 414.924621 354.855812 
" style="fill:none;stroke:#ff0000;stroke-width:2;"/>
    <path clip-path="url(#pcd45a083fb)" d="M 429.050489 415.907944 
L 429.050489 326.047427 
" style="fill:none;stroke:#ff0000;stroke-width:2;"/>
    <path clip-path="url(#pcd45a083fb)" d="M 443.176358 493.868119 
L 443.176358 422.080971 
" style="fill:none;stroke:#ff0000;stroke-width:2;"/>
    <path clip-path="url(#pcd45a083fb)" d="M 457.302226 470.281597 
L 457.302226 421.680094 
" style="fill:none;stroke:#ff0000;stroke-width:2;"/>
    <path clip-path="url(#pcd45a083fb)" d="M 471.428095 505.841245 
L 471.428095 458.291985 
" style="fill:none;stroke:#ff0000;stroke-width:2;"/>
    <path clip-path="url(#pcd45a083fb)" d="M 485.553963 478.543673 
L 485.553963 445.455158 
" style="fill:none;stroke:#ff0000;stroke-width:2;"/>
    <path clip-path="url(#pcd45a083fb)" d="M 499.679831 495.630489 
L 499.679831 471.322492 
" style="fill:none;stroke:#ff0000;stroke-width:2;"/>
    <path clip-path="url(#pcd45a083fb)" d="M 513.8057 475.478364 
L 513.8057 451.942395 
" style="fill:none;stroke:#ff0000;stroke-width:2;"/>
    <path clip-path="url(#pcd45a083fb)" d="M 527.931568 487.3887 
L 527.931568 468.626493 
" style="fill:none;stroke:#ff0000;stroke-width:2;"/>
    <path clip-path="url(#pcd45a083fb)" d="M 542.057437 470.288205 
L 542.057437 455.571135 
" style="fill:none;stroke:#ff0000;stroke-width:2;"/>
    <path clip-path="url(#pcd45a083fb)" d="M 556.183305 479.142188 
L 556.183305 468.312982 
" style="fill:none;stroke:#ff0000;stroke-width:2;"/>
    <path clip-path="url(#pcd45a083fb)" d="M 570.309174 479.185019 
L 570.309174 469.915045 
" style="fill:none;stroke:#ff0000;stroke-width:2;"/>
    <path clip-path="url(#pcd45a083fb)" d="M 584.435042 476.082783 
L 584.435042 469.986786 
" style="fill:none;stroke:#ff0000;stroke-width:2;"/>
    <path clip-path="url(#pcd45a083fb)" d="M 598.56091 480.730916 
L 598.56091 476.227867 
" style="fill:none;stroke:#ff0000;stroke-width:2;"/>
    <path clip-path="url(#pcd45a083fb)" d="M 612.686779 480.033854 
L 612.686779 476.020241 
" style="fill:none;stroke:#ff0000;stroke-width:2;"/>
    <path clip-path="url(#pcd45a083fb)" d="M 626.812647 477.334346 
L 626.812647 473.748054 
" style="fill:none;stroke:#ff0000;stroke-width:2;"/>
    <path clip-path="url(#pcd45a083fb)" d="M 640.938516 483.130154 
L 640.938516 478.496315 
" style="fill:none;stroke:#ff0000;stroke-width:2;"/>
   </g>
   <g id="line2d_45">
    <path clip-path="url(#pcd45a083fb)" d="M 414.924621 411.284086 
L 429.050489 370.977685 
L 443.176358 457.974545 
L 457.302226 445.980846 
L 471.428095 482.066615 
L 485.553963 461.999415 
L 499.679831 483.476491 
L 513.8057 463.71038 
L 527.931568 478.007597 
L 542.057437 462.92967 
L 556.183305 473.727585 
L 570.309174 474.550032 
L 584.435042 473.034785 
L 598.56091 478.479392 
L 612.686779 478.027047 
L 626.812647 475.5412 
L 640.938516 480.813234 
" style="fill:none;stroke:#000000;stroke-linecap:square;stroke-width:2;"/>
   </g>
   <g id="patch_23">
    <path d="M 403.623926 514.830936 
L 403.623926 317.057736 
" style="fill:none;stroke:#000000;stroke-linecap:square;stroke-linejoin:miter;stroke-width:0.8;"/>
   </g>
   <g id="patch_24">
    <path d="M 652.23921 514.830936 
L 652.23921 317.057736 
" style="fill:none;stroke:#000000;stroke-linecap:square;stroke-linejoin:miter;stroke-width:0.8;"/>
   </g>
   <g id="patch_25">
    <path d="M 403.623926 514.830936 
L 652.23921 514.830936 
" style="fill:none;stroke:#000000;stroke-linecap:square;stroke-linejoin:miter;stroke-width:0.8;"/>
   </g>
   <g id="patch_26">
    <path d="M 403.623926 317.057736 
L 652.23921 317.057736 
" style="fill:none;stroke:#000000;stroke-linecap:square;stroke-linejoin:miter;stroke-width:0.8;"/>
   </g>
  </g>
  <g id="axes_6">
   <g id="patch_27">
    <path d="M 719.384716 514.830936 
L 968 514.830936 
L 968 317.057736 
L 719.384716 317.057736 
z
" style="fill:#ffffff;"/>
   </g>
   <g id="matplotlib.axis_11">
    <g id="xtick_21">
     <g id="line2d_46">
      <g>
       <use style="stroke:#000000;stroke-width:0.8;" x="730.685411" xlink:href="#m6700351c99" y="514.830936"/>
      </g>
     </g>
     <g id="text_48">
      <!-- $\mathdefault{0}$ -->
      <g transform="translate(726.783417 532.900524)scale(0.16 -0.16)">
       <use transform="scale(0.996264)" xlink:href="#CMR17-48"/>
      </g>
     </g>
    </g>
    <g id="xtick_22">
     <g id="line2d_47">
      <g>
       <use style="stroke:#000000;stroke-width:0.8;" x="801.314753" xlink:href="#m6700351c99" y="514.830936"/>
      </g>
     </g>
     <g id="text_49">
      <!-- $\mathdefault{5}$ -->
      <g transform="translate(797.412759 532.900524)scale(0.16 -0.16)">
       <use transform="scale(0.996264)" xlink:href="#CMR17-53"/>
      </g>
     </g>
    </g>
    <g id="xtick_23">
     <g id="line2d_48">
      <g>
       <use style="stroke:#000000;stroke-width:0.8;" x="871.944095" xlink:href="#m6700351c99" y="514.830936"/>
      </g>
     </g>
     <g id="text_50">
      <!-- $\mathdefault{10}$ -->
      <g transform="translate(864.140108 532.900524)scale(0.16 -0.16)">
       <use transform="scale(0.996264)" xlink:href="#CMR17-49"/>
       <use transform="translate(45.690477 0)scale(0.996264)" xlink:href="#CMR17-48"/>
      </g>
     </g>
    </g>
    <g id="xtick_24">
     <g id="line2d_49">
      <g>
       <use style="stroke:#000000;stroke-width:0.8;" x="942.573437" xlink:href="#m6700351c99" y="514.830936"/>
      </g>
     </g>
     <g id="text_51">
      <!-- $\mathdefault{15}$ -->
      <g transform="translate(934.76945 532.900524)scale(0.16 -0.16)">
       <use transform="scale(0.996264)" xlink:href="#CMR17-49"/>
       <use transform="translate(45.690477 0)scale(0.996264)" xlink:href="#CMR17-53"/>
      </g>
     </g>
    </g>
   </g>
   <g id="matplotlib.axis_12">
    <g id="ytick_21">
     <g id="line2d_50">
      <g>
       <use style="stroke:#000000;stroke-width:0.8;" x="719.384716" xlink:href="#mc91189444b" y="480.694946"/>
      </g>
     </g>
     <g id="text_52">
      <!-- $\mathdefault{−0.5}$ -->
      <g transform="translate(680.043197 486.22974)scale(0.16 -0.16)">
       <use transform="scale(0.996264)" xlink:href="#CMSY10-0"/>
       <use transform="translate(77.487468 0)scale(0.996264)" xlink:href="#CMR17-48"/>
       <use transform="translate(123.177945 0)scale(0.996264)" xlink:href="#CMMI12-58"/>
       <use transform="translate(150.275122 0)scale(0.996264)" xlink:href="#CMR17-53"/>
      </g>
     </g>
    </g>
    <g id="ytick_22">
     <g id="line2d_51">
      <g>
       <use style="stroke:#000000;stroke-width:0.8;" x="719.384716" xlink:href="#mc91189444b" y="439.132532"/>
      </g>
     </g>
     <g id="text_53">
      <!-- $\mathdefault{0.0}$ -->
      <g transform="translate(692.441193 444.667326)scale(0.16 -0.16)">
       <use transform="scale(0.996264)" xlink:href="#CMR17-48"/>
       <use transform="translate(45.690477 0)scale(0.996264)" xlink:href="#CMMI12-58"/>
       <use transform="translate(72.787654 0)scale(0.996264)" xlink:href="#CMR17-48"/>
      </g>
     </g>
    </g>
    <g id="ytick_23">
     <g id="line2d_52">
      <g>
       <use style="stroke:#000000;stroke-width:0.8;" x="719.384716" xlink:href="#mc91189444b" y="397.570118"/>
      </g>
     </g>
     <g id="text_54">
      <!-- $\mathdefault{0.5}$ -->
      <g transform="translate(692.441193 403.104912)scale(0.16 -0.16)">
       <use transform="scale(0.996264)" xlink:href="#CMR17-48"/>
       <use transform="translate(45.690477 0)scale(0.996264)" xlink:href="#CMMI12-58"/>
       <use transform="translate(72.787654 0)scale(0.996264)" xlink:href="#CMR17-53"/>
      </g>
     </g>
    </g>
    <g id="ytick_24">
     <g id="line2d_53">
      <g>
       <use style="stroke:#000000;stroke-width:0.8;" x="719.384716" xlink:href="#mc91189444b" y="356.007705"/>
      </g>
     </g>
     <g id="text_55">
      <!-- $\mathdefault{1.0}$ -->
      <g transform="translate(692.441193 361.542499)scale(0.16 -0.16)">
       <use transform="scale(0.996264)" xlink:href="#CMR17-49"/>
       <use transform="translate(45.690477 0)scale(0.996264)" xlink:href="#CMMI12-58"/>
       <use transform="translate(72.787654 0)scale(0.996264)" xlink:href="#CMR17-48"/>
      </g>
     </g>
    </g>
    <g id="text_56">
     <!-- $\times\mathdefault{10^{−17}}\mathdefault{}$ -->
     <g transform="translate(719.384716 314.057736)scale(0.16 -0.16)">
      <use transform="scale(0.996264)" xlink:href="#CMSY10-2"/>
      <use transform="translate(77.487468 0)scale(0.996264)" xlink:href="#CMR17-49"/>
      <use transform="translate(123.177945 0)scale(0.996264)" xlink:href="#CMR17-48"/>
      <use transform="translate(168.868422 36.153639)scale(0.697382)" xlink:href="#CMSY10-0"/>
      <use transform="translate(223.109415 36.153639)scale(0.697382)" xlink:href="#CMR17-49"/>
      <use transform="translate(255.092597 36.153639)scale(0.697382)" xlink:href="#CMR17-55"/>
     </g>
    </g>
   </g>
   <g id="LineCollection_6">
    <path clip-path="url(#pdf17741478)" d="M 730.685411 439.132532 
L 730.685411 439.132532 
" style="fill:none;stroke:#ff0000;stroke-width:2;"/>
    <path clip-path="url(#pdf17741478)" d="M 744.811279 421.649432 
L 744.811279 326.047427 
" style="fill:none;stroke:#ff0000;stroke-width:2;"/>
    <path clip-path="url(#pdf17741478)" d="M 758.937147 505.841245 
L 758.937147 442.186706 
" style="fill:none;stroke:#ff0000;stroke-width:2;"/>
    <path clip-path="url(#pdf17741478)" d="M 773.063016 443.112058 
L 773.063016 396.515429 
" style="fill:none;stroke:#ff0000;stroke-width:2;"/>
    <path clip-path="url(#pdf17741478)" d="M 787.188884 470.091986 
L 787.188884 431.445542 
" style="fill:none;stroke:#ff0000;stroke-width:2;"/>
    <path clip-path="url(#pdf17741478)" d="M 801.314753 461.905974 
L 801.314753 425.818234 
" style="fill:none;stroke:#ff0000;stroke-width:2;"/>
    <path clip-path="url(#pdf17741478)" d="M 815.440621 455.482852 
L 815.440621 433.499312 
" style="fill:none;stroke:#ff0000;stroke-width:2;"/>
    <path clip-path="url(#pdf17741478)" d="M 829.566489 449.996868 
L 829.566489 427.981952 
" style="fill:none;stroke:#ff0000;stroke-width:2;"/>
    <path clip-path="url(#pdf17741478)" d="M 843.692358 445.086608 
L 843.692358 428.526267 
" style="fill:none;stroke:#ff0000;stroke-width:2;"/>
    <path clip-path="url(#pdf17741478)" d="M 857.818226 433.543918 
L 857.818226 420.780259 
" style="fill:none;stroke:#ff0000;stroke-width:2;"/>
    <path clip-path="url(#pdf17741478)" d="M 871.944095 440.100702 
L 871.944095 430.763906 
" style="fill:none;stroke:#ff0000;stroke-width:2;"/>
    <path clip-path="url(#pdf17741478)" d="M 886.069963 449.581975 
L 886.069963 441.148356 
" style="fill:none;stroke:#ff0000;stroke-width:2;"/>
    <path clip-path="url(#pdf17741478)" d="M 900.195832 445.93422 
L 900.195832 440.117807 
" style="fill:none;stroke:#ff0000;stroke-width:2;"/>
    <path clip-path="url(#pdf17741478)" d="M 914.3217 440.89185 
L 914.3217 436.310808 
" style="fill:none;stroke:#ff0000;stroke-width:2;"/>
    <path clip-path="url(#pdf17741478)" d="M 928.447568 440.395582 
L 928.447568 436.419592 
" style="fill:none;stroke:#ff0000;stroke-width:2;"/>
    <path clip-path="url(#pdf17741478)" d="M 942.573437 441.288298 
L 942.573437 437.847615 
" style="fill:none;stroke:#ff0000;stroke-width:2;"/>
    <path clip-path="url(#pdf17741478)" d="M 956.699305 439.132532 
L 956.699305 439.132532 
" style="fill:none;stroke:#ff0000;stroke-width:2;"/>
   </g>
   <g id="line2d_54">
    <path clip-path="url(#pdf17741478)" d="M 730.685411 439.132532 
L 744.811279 373.848429 
L 758.937147 474.013975 
L 773.063016 419.813744 
L 787.188884 450.768764 
L 801.314753 443.862104 
L 815.440621 444.491082 
L 829.566489 438.98941 
L 843.692358 436.806437 
L 857.818226 427.162088 
L 871.944095 435.432304 
L 886.069963 445.365165 
L 900.195832 443.026014 
L 914.3217 438.601329 
L 928.447568 438.407587 
L 942.573437 439.567956 
L 956.699305 439.132532 
" style="fill:none;stroke:#000000;stroke-linecap:square;stroke-width:2;"/>
   </g>
   <g id="patch_28">
    <path d="M 719.384716 514.830936 
L 719.384716 317.057736 
" style="fill:none;stroke:#000000;stroke-linecap:square;stroke-linejoin:miter;stroke-width:0.8;"/>
   </g>
   <g id="patch_29">
    <path d="M 968 514.830936 
L 968 317.057736 
" style="fill:none;stroke:#000000;stroke-linecap:square;stroke-linejoin:miter;stroke-width:0.8;"/>
   </g>
   <g id="patch_30">
    <path d="M 719.384716 514.830936 
L 968 514.830936 
" style="fill:none;stroke:#000000;stroke-linecap:square;stroke-linejoin:miter;stroke-width:0.8;"/>
   </g>
   <g id="patch_31">
    <path d="M 719.384716 317.057736 
L 968 317.057736 
" style="fill:none;stroke:#000000;stroke-linecap:square;stroke-linejoin:miter;stroke-width:0.8;"/>
   </g>
  </g>
 </g>
 <defs>
  <clipPath id="p86f485a01d">
   <rect height="197.773199" width="248.615284" x="87.863137" y="63.911226"/>
  </clipPath>
  <clipPath id="p63bfc64e81">
   <rect height="197.773199" width="248.615284" x="403.623926" y="63.911226"/>
  </clipPath>
  <clipPath id="p971de55b99">
   <rect height="197.773199" width="248.615284" x="719.384716" y="63.911226"/>
  </clipPath>
  <clipPath id="p0af6211e78">
   <rect height="197.773199" width="248.615284" x="87.863137" y="317.057736"/>
  </clipPath>
  <clipPath id="pcd45a083fb">
   <rect height="197.773199" width="248.615284" x="403.623926" y="317.057736"/>
  </clipPath>
  <clipPath id="pdf17741478">
   <rect height="197.773199" width="248.615284" x="719.384716" y="317.057736"/>
  </clipPath>
 </defs>
</svg>
