<?xml version="1.0" encoding="utf-8" standalone="no"?>
<!DOCTYPE svg PUBLIC "-//W3C//DTD SVG 1.1//EN"
  "http://www.w3.org/Graphics/SVG/1.1/DTD/svg11.dtd">
<!-- Created with matplotlib (https://matplotlib.org/) -->
<svg height="576pt" version="1.1" viewBox="0 0 1008 576" width="1008pt" xmlns="http://www.w3.org/2000/svg" xmlns:xlink="http://www.w3.org/1999/xlink">
 <metadata>
  <rdf:RDF xmlns:cc="http://creativecommons.org/ns#" xmlns:dc="http://purl.org/dc/elements/1.1/" xmlns:rdf="http://www.w3.org/1999/02/22-rdf-syntax-ns#">
   <cc:Work>
    <dc:type rdf:resource="http://purl.org/dc/dcmitype/StillImage"/>
    <dc:date>2022-10-25T15:46:35.566534</dc:date>
    <dc:format>image/svg+xml</dc:format>
    <dc:creator>
     <cc:Agent>
      <dc:title>Matplotlib v3.3.4, https://matplotlib.org/</dc:title>
     </cc:Agent>
    </dc:creator>
   </cc:Work>
  </rdf:RDF>
 </metadata>
 <defs>
  <style type="text/css">*{stroke-linecap:butt;stroke-linejoin:round;}</style>
 </defs>
 <g id="figure_1">
  <g id="patch_1">
   <path d="M 0 576 
L 1008 576 
L 1008 0 
L 0 0 
z
" style="fill:#ffffff;"/>
  </g>
  <g id="axes_1">
   <g id="patch_2">
    <path d="M 92.457146 261.684426 
L 339.541093 261.684426 
L 339.541093 63.911226 
L 92.457146 63.911226 
z
" style="fill:#ffffff;"/>
   </g>
   <g id="matplotlib.axis_1">
    <g id="xtick_1">
     <g id="line2d_1">
      <defs>
       <path d="M 0 0 
L 0 3.5 
" id="mde1bb2d2da" style="stroke:#000000;stroke-width:0.8;"/>
      </defs>
      <g>
       <use style="stroke:#000000;stroke-width:0.8;" x="103.688234" xlink:href="#mde1bb2d2da" y="261.684426"/>
      </g>
     </g>
     <g id="text_1">
      <!-- $\mathdefault{0}$ -->
      <g transform="translate(99.786241 279.754014)scale(0.16 -0.16)">
       <defs>
        <path d="M 42 31.640625 
C 42 37.75 41.90625 48.125 37.703125 56.109375 
C 34 63.109375 28.09375 65.59375 22.90625 65.59375 
C 18.09375 65.59375 12 63.40625 8.203125 56.203125 
C 4.203125 48.71875 3.796875 39.4375 3.796875 31.640625 
C 3.796875 25.953125 3.90625 17.28125 7 9.671875 
C 11.296875 -0.609375 19 -2 22.90625 -2 
C 27.5 -2 34.5 -0.109375 38.59375 9.375 
C 41.59375 16.28125 42 24.359375 42 31.640625 
z
M 22.90625 -0.40625 
C 16.5 -0.40625 12.703125 5.078125 11.296875 12.6875 
C 10.203125 18.5625 10.203125 27.15625 10.203125 32.75 
C 10.203125 40.4375 10.203125 46.828125 11.5 52.921875 
C 13.40625 61.390625 19 64 22.90625 64 
C 27 64 32.296875 61.296875 34.203125 53.125 
C 35.5 47.4375 35.59375 40.734375 35.59375 32.75 
C 35.59375 26.25 35.59375 18.265625 34.40625 12.375 
C 32.296875 1.484375 26.40625 -0.40625 22.90625 -0.40625 
z
" id="CMR17-48"/>
       </defs>
       <use transform="scale(0.996264)" xlink:href="#CMR17-48"/>
      </g>
     </g>
    </g>
    <g id="xtick_2">
     <g id="line2d_2">
      <g>
       <use style="stroke:#000000;stroke-width:0.8;" x="176.14687" xlink:href="#mde1bb2d2da" y="261.684426"/>
      </g>
     </g>
     <g id="text_2">
      <!-- $\mathdefault{10}$ -->
      <g transform="translate(168.342883 279.754014)scale(0.16 -0.16)">
       <defs>
        <path d="M 26.59375 63.40625 
C 26.59375 65.5 26.5 65.5 25.09375 65.5 
C 21.203125 61.1875 15.296875 59.796875 9.703125 59.796875 
C 9.40625 59.796875 8.90625 59.796875 8.796875 59.5 
C 8.703125 59.296875 8.703125 59.09375 8.703125 57 
C 11.796875 57 17 57.59375 21 59.984375 
L 21 7.203125 
C 21 3.6875 20.796875 2.5 12.203125 2.5 
L 9.203125 2.5 
L 9.203125 0 
C 14 0 19 0 23.796875 0 
C 28.59375 0 33.59375 0 38.40625 0 
L 38.40625 2.5 
L 35.40625 2.5 
C 26.796875 2.5 26.59375 3.59375 26.59375 7.15625 
z
" id="CMR17-49"/>
       </defs>
       <use transform="scale(0.996264)" xlink:href="#CMR17-49"/>
       <use transform="translate(45.690477 0)scale(0.996264)" xlink:href="#CMR17-48"/>
      </g>
     </g>
    </g>
    <g id="xtick_3">
     <g id="line2d_3">
      <g>
       <use style="stroke:#000000;stroke-width:0.8;" x="248.605506" xlink:href="#mde1bb2d2da" y="261.684426"/>
      </g>
     </g>
     <g id="text_3">
      <!-- $\mathdefault{20}$ -->
      <g transform="translate(240.801519 279.754014)scale(0.16 -0.16)">
       <defs>
        <path d="M 41.703125 15.453125 
L 39.90625 15.453125 
C 38.90625 8.375 38.09375 7.171875 37.703125 6.5625 
C 37.203125 5.765625 30 5.765625 28.59375 5.765625 
L 9.40625 5.765625 
C 13 9.671875 20 16.75 28.5 24.953125 
C 34.59375 30.734375 41.703125 37.53125 41.703125 47.421875 
C 41.703125 59.21875 32.296875 66 21.796875 66 
C 10.796875 66 4.09375 56.3125 4.09375 47.34375 
C 4.09375 43.4375 7 42.9375 8.203125 42.9375 
C 9.203125 42.9375 12.203125 43.546875 12.203125 47.03125 
C 12.203125 50.109375 9.59375 51 8.203125 51 
C 7.59375 51 7 50.90625 6.59375 50.703125 
C 8.5 59.21875 14.296875 63.40625 20.40625 63.40625 
C 29.09375 63.40625 34.796875 56.515625 34.796875 47.421875 
C 34.796875 38.734375 29.703125 31.25 24 24.75 
L 4.09375 2.28125 
L 4.09375 0 
L 39.296875 0 
z
" id="CMR17-50"/>
       </defs>
       <use transform="scale(0.996264)" xlink:href="#CMR17-50"/>
       <use transform="translate(45.690477 0)scale(0.996264)" xlink:href="#CMR17-48"/>
      </g>
     </g>
    </g>
    <g id="xtick_4">
     <g id="line2d_4">
      <g>
       <use style="stroke:#000000;stroke-width:0.8;" x="321.064141" xlink:href="#mde1bb2d2da" y="261.684426"/>
      </g>
     </g>
     <g id="text_4">
      <!-- $\mathdefault{30}$ -->
      <g transform="translate(313.260154 279.754014)scale(0.16 -0.16)">
       <defs>
        <path d="M 22.09375 33.703125 
C 31 33.703125 34.90625 25.96875 34.90625 17.03125 
C 34.90625 5 28.5 0.390625 22.703125 0.390625 
C 17.40625 0.390625 8.796875 3.03125 6.09375 10.828125 
C 6.59375 10.625 7.09375 10.625 7.59375 10.625 
C 10 10.625 11.796875 12.21875 11.796875 14.8125 
C 11.796875 17.703125 9.59375 19 7.59375 19 
C 5.90625 19 3.296875 18.203125 3.296875 14.46875 
C 3.296875 5.234375 12.296875 -2 22.90625 -2 
C 34 -2 42.5 6.71875 42.5 16.953125 
C 42.5 26.671875 34.5 33.703125 25 34.796875 
C 32.59375 36.375 39.90625 43.0625 39.90625 52.015625 
C 39.90625 59.6875 32 65.296875 23 65.296875 
C 13.90625 65.296875 5.90625 59.828125 5.90625 52.015625 
C 5.90625 48.59375 8.5 48 9.796875 48 
C 11.90625 48 13.703125 49.296875 13.703125 51.890625 
C 13.703125 54.46875 11.90625 55.765625 9.796875 55.765625 
C 9.40625 55.765625 8.90625 55.765625 8.5 55.578125 
C 11.40625 61.859375 19.296875 63 22.796875 63 
C 26.296875 63 32.90625 61.328125 32.90625 51.875 
C 32.90625 49.109375 32.5 44.1875 29.09375 39.84375 
C 26.09375 36 22.703125 36 19.40625 35.6875 
C 18.90625 35.6875 16.59375 35.453125 16.203125 35.453125 
C 15.5 35.359375 15.09375 35.265625 15.09375 34.5 
C 15.09375 33.796875 15.203125 33.703125 17.203125 33.703125 
z
" id="CMR17-51"/>
       </defs>
       <use transform="scale(0.996264)" xlink:href="#CMR17-51"/>
       <use transform="translate(45.690477 0)scale(0.996264)" xlink:href="#CMR17-48"/>
      </g>
     </g>
    </g>
   </g>
   <g id="matplotlib.axis_2">
    <g id="ytick_1">
     <g id="line2d_5">
      <defs>
       <path d="M 0 0 
L -3.5 0 
" id="m5c03059ad0" style="stroke:#000000;stroke-width:0.8;"/>
      </defs>
      <g>
       <use style="stroke:#000000;stroke-width:0.8;" x="92.457146" xlink:href="#m5c03059ad0" y="253.504923"/>
      </g>
     </g>
     <g id="text_5">
      <!-- $\mathdefault{0}$ -->
      <g transform="translate(77.653159 259.039717)scale(0.16 -0.16)">
       <use transform="scale(0.996264)" xlink:href="#CMR17-48"/>
      </g>
     </g>
    </g>
    <g id="ytick_2">
     <g id="line2d_6">
      <g>
       <use style="stroke:#000000;stroke-width:0.8;" x="92.457146" xlink:href="#m5c03059ad0" y="190.565069"/>
      </g>
     </g>
     <g id="text_6">
      <!-- $\mathdefault{20}$ -->
      <g transform="translate(69.849172 196.099863)scale(0.16 -0.16)">
       <use transform="scale(0.996264)" xlink:href="#CMR17-50"/>
       <use transform="translate(45.690477 0)scale(0.996264)" xlink:href="#CMR17-48"/>
      </g>
     </g>
    </g>
    <g id="ytick_3">
     <g id="line2d_7">
      <g>
       <use style="stroke:#000000;stroke-width:0.8;" x="92.457146" xlink:href="#m5c03059ad0" y="127.625215"/>
      </g>
     </g>
     <g id="text_7">
      <!-- $\mathdefault{40}$ -->
      <g transform="translate(69.849172 133.160009)scale(0.16 -0.16)">
       <defs>
        <path d="M 33.59375 64.40625 
C 33.59375 66.5 33.5 66.5 31.703125 66.5 
L 2 19.59375 
L 2 17 
L 27.796875 17 
L 27.796875 7.140625 
C 27.796875 3.5 27.59375 2.5 20.59375 2.5 
L 18.703125 2.5 
L 18.703125 0 
C 21.90625 0 27.296875 0 30.703125 0 
C 34.09375 0 39.5 0 42.703125 0 
L 42.703125 2.5 
L 40.796875 2.5 
C 33.796875 2.5 33.59375 3.5 33.59375 7.140625 
L 33.59375 17 
L 43.796875 17 
L 43.796875 19.59375 
L 33.59375 19.59375 
z
M 28.09375 57.859375 
L 28.09375 19.59375 
L 4 19.59375 
z
" id="CMR17-52"/>
       </defs>
       <use transform="scale(0.996264)" xlink:href="#CMR17-52"/>
       <use transform="translate(45.690477 0)scale(0.996264)" xlink:href="#CMR17-48"/>
      </g>
     </g>
    </g>
    <g id="ytick_4">
     <g id="line2d_8">
      <g>
       <use style="stroke:#000000;stroke-width:0.8;" x="92.457146" xlink:href="#m5c03059ad0" y="64.685361"/>
      </g>
     </g>
     <g id="text_8">
      <!-- $\mathdefault{60}$ -->
      <g transform="translate(69.849172 70.220155)scale(0.16 -0.16)">
       <defs>
        <path d="M 10.59375 34 
C 10.59375 57.65625 21.796875 63 28.296875 63 
C 30.40625 63 35.5 62.640625 37.5 59 
C 35.90625 59 32.90625 59 32.90625 55.515625 
C 32.90625 52.828125 35.09375 51.921875 36.5 51.921875 
C 37.40625 51.921875 40.09375 52.3125 40.09375 55.625 
C 40.09375 61.78125 35.09375 65.296875 28.203125 65.296875 
C 16.296875 65.296875 3.796875 52.96875 3.796875 31 
C 3.796875 3.953125 15.09375 -2 23.09375 -2 
C 32.796875 -2 42 6.671875 42 20.046875 
C 42 32.515625 33.90625 41.59375 23.703125 41.59375 
C 17.59375 41.59375 13.09375 37.609375 10.59375 30.625 
z
M 23.09375 0.390625 
C 10.796875 0.390625 10.796875 18.75 10.796875 22.4375 
C 10.796875 29.625 14.203125 40 23.5 40 
C 25.203125 40 30.09375 40 33.40625 33.125 
C 35.203125 29.21875 35.203125 25.140625 35.203125 20.140625 
C 35.203125 14.75 35.203125 10.78125 33.09375 6.78125 
C 30.90625 2.671875 27.703125 0.390625 23.09375 0.390625 
z
" id="CMR17-54"/>
       </defs>
       <use transform="scale(0.996264)" xlink:href="#CMR17-54"/>
       <use transform="translate(45.690477 0)scale(0.996264)" xlink:href="#CMR17-48"/>
      </g>
     </g>
    </g>
    <g id="text_9">
     <!-- Real -->
     <g transform="translate(61.198414 184.258418)rotate(-90)scale(0.24 -0.24)">
      <defs>
       <path d="M 39.203125 33.53125 
C 48.703125 35.4375 56.703125 41.8125 56.703125 49.78125 
C 56.703125 59.140625 46.09375 67.59375 32.09375 67.59375 
L 5.203125 67.59375 
L 5.203125 65 
C 12.09375 65 13.203125 65 13.203125 60.515625 
L 13.203125 6.484375 
C 13.203125 2 12.09375 2 5.203125 2 
L 5.203125 -0.40625 
C 8.09375 -0.40625 13.296875 -0.40625 16.40625 -0.40625 
C 19.5 -0.40625 24.703125 -0.40625 27.59375 -0.40625 
L 27.59375 2 
C 20.703125 2 19.59375 2 19.59375 6.515625 
L 19.59375 33 
L 31.296875 33 
C 37 33 40.203125 30.6875 41.59375 29.390625 
C 45.59375 25.5 45.59375 22.796875 45.59375 16 
C 45.59375 9.296875 45.59375 5.890625 48.59375 2.5 
C 52.40625 -1.59375 57.5 -2 59.703125 -2 
C 67.09375 -2 68.203125 6.1875 68.203125 7.859375 
C 68.203125 8.4375 68.203125 9.140625 67.296875 9.140625 
C 66.5 9.140625 66.40625 8.546875 66.40625 8.15625 
C 65.90625 1.75 63 -0.40625 59.90625 -0.40625 
C 54.40625 -0.40625 53.796875 5.859375 53.203125 11.9375 
C 52.90625 14.03125 52.703125 15.515625 52.5 17.703125 
C 51.90625 22.6875 51.09375 29.953125 39.203125 33.53125 
z
M 31 34.59375 
L 19.59375 34.59375 
L 19.59375 61.140625 
C 19.59375 64.515625 19.796875 65 23.796875 65 
L 31.09375 65 
C 39.40625 65 49.09375 62.140625 49.09375 49.84375 
C 49.09375 37.0625 38.5 34.59375 31 34.59375 
z
" id="CMR17-82"/>
       <path d="M 38.09375 23 
C 38.5 23.40625 38.5 23.609375 38.5 24.625 
C 38.5 34.96875 33.09375 44 21.703125 44 
C 11.09375 44 2.703125 33.890625 2.703125 21.609375 
C 2.703125 8.609375 12.203125 -1 22.796875 -1 
C 34 -1 38.40625 9.484375 38.40625 11.5625 
C 38.40625 12.25 37.796875 12.25 37.59375 12.25 
C 36.90625 12.25 36.796875 12.046875 36.40625 10.875 
C 34.203125 4.140625 28.703125 0.796875 23.5 0.796875 
C 19.203125 0.796875 14.90625 3.171875 12.203125 7.5 
C 9.09375 12.546875 9.09375 18.375 9.09375 23 
z
M 9.203125 24.5 
C 9.90625 39.140625 17.59375 42.40625 21.59375 42.40625 
C 28.40625 42.40625 33 35.890625 33.09375 24.5 
z
" id="CMR17-101"/>
       <path d="M 36 25.828125 
C 36 32.375 36 35.84375 31.796875 39.734375 
C 28.09375 43 23.796875 44 20.40625 44 
C 12.5 44 6.796875 37.609375 6.796875 30.796875 
C 6.796875 27 9.796875 27 10.40625 27 
C 11.703125 27 14 27.78125 14 30.53125 
C 14 33 12.09375 34.078125 10.40625 34.078125 
C 10 34.078125 9.5 33.96875 9.203125 33.875 
C 11.296875 40.5 16.703125 42.40625 20.203125 42.40625 
C 25.203125 42.40625 30.703125 37.953125 30.703125 29.453125 
L 30.703125 25 
C 24.796875 25 17.703125 24.203125 12.09375 21.203125 
C 5.796875 17.703125 4 12.703125 4 8.90625 
C 4 1.203125 13 -1 18.296875 -1 
C 23.796875 -1 28.90625 2.171875 31.09375 7.984375 
C 31.296875 3.640625 34.09375 -0.28125 38.5 -0.28125 
C 40.59375 -0.28125 45.90625 1.09375 45.90625 8.859375 
L 45.90625 14.375 
L 44.09375 14.375 
L 44.09375 8.78125 
C 44.09375 2.78125 41.40625 2 40.09375 2 
C 36 2 36 7.15625 36 11.53125 
z
M 30.703125 13.59375 
C 30.703125 4.953125 24.5 0.59375 19 0.59375 
C 14 0.59375 10.09375 4.296875 10.09375 8.90625 
C 10.09375 11.890625 11.40625 17.1875 17.203125 20.390625 
C 22 23.09375 27.5 23.5 30.703125 23.5 
z
" id="CMR17-97"/>
       <path d="M 15.296875 68.6875 
L 3.40625 67.59375 
L 3.40625 65 
C 9.296875 65 10.203125 64.40625 10.203125 59.640625 
L 10.203125 6.65625 
C 10.203125 2.875 9.796875 2.390625 3.40625 2.390625 
L 3.40625 -0.203125 
C 5.796875 0 10.203125 0 12.703125 0 
C 15.296875 0 19.703125 0 22.09375 -0.203125 
L 22.09375 2.390625 
C 15.703125 2.390625 15.296875 2.78125 15.296875 6.65625 
z
" id="CMR17-108"/>
      </defs>
      <use transform="scale(0.996264)" xlink:href="#CMR17-82"/>
      <use transform="translate(67.791102 0)scale(0.996264)" xlink:href="#CMR17-101"/>
      <use transform="translate(108.276762 0)scale(0.996264)" xlink:href="#CMR17-97"/>
      <use transform="translate(153.96724 0)scale(0.996264)" xlink:href="#CMR17-108"/>
     </g>
    </g>
   </g>
   <g id="LineCollection_1">
    <path clip-path="url(#p7b993cdfdc)" d="M 103.688234 73.406649 
L 103.688234 72.900917 
" style="fill:none;stroke:#ff0000;stroke-width:2;"/>
    <path clip-path="url(#p7b993cdfdc)" d="M 110.934098 179.93772 
L 110.934098 179.684513 
" style="fill:none;stroke:#ff0000;stroke-width:2;"/>
    <path clip-path="url(#p7b993cdfdc)" d="M 118.179961 209.488779 
L 118.179961 209.265942 
" style="fill:none;stroke:#ff0000;stroke-width:2;"/>
    <path clip-path="url(#p7b993cdfdc)" d="M 125.425825 225.047787 
L 125.425825 224.811144 
" style="fill:none;stroke:#ff0000;stroke-width:2;"/>
    <path clip-path="url(#p7b993cdfdc)" d="M 132.671688 234.306087 
L 132.671688 234.0394 
" style="fill:none;stroke:#ff0000;stroke-width:2;"/>
    <path clip-path="url(#p7b993cdfdc)" d="M 139.917552 240.232174 
L 139.917552 239.975755 
" style="fill:none;stroke:#ff0000;stroke-width:2;"/>
    <path clip-path="url(#p7b993cdfdc)" d="M 147.163416 244.066612 
L 147.163416 243.846115 
" style="fill:none;stroke:#ff0000;stroke-width:2;"/>
    <path clip-path="url(#p7b993cdfdc)" d="M 154.409279 246.697086 
L 154.409279 246.495945 
" style="fill:none;stroke:#ff0000;stroke-width:2;"/>
    <path clip-path="url(#p7b993cdfdc)" d="M 161.655143 248.54895 
L 161.655143 248.381122 
" style="fill:none;stroke:#ff0000;stroke-width:2;"/>
    <path clip-path="url(#p7b993cdfdc)" d="M 168.901006 249.835066 
L 168.901006 249.702463 
" style="fill:none;stroke:#ff0000;stroke-width:2;"/>
    <path clip-path="url(#p7b993cdfdc)" d="M 176.14687 250.795841 
L 176.14687 250.678232 
" style="fill:none;stroke:#ff0000;stroke-width:2;"/>
    <path clip-path="url(#p7b993cdfdc)" d="M 183.392733 251.48016 
L 183.392733 251.379734 
" style="fill:none;stroke:#ff0000;stroke-width:2;"/>
    <path clip-path="url(#p7b993cdfdc)" d="M 190.638597 251.960525 
L 190.638597 251.875835 
" style="fill:none;stroke:#ff0000;stroke-width:2;"/>
    <path clip-path="url(#p7b993cdfdc)" d="M 197.884461 252.299481 
L 197.884461 252.23224 
" style="fill:none;stroke:#ff0000;stroke-width:2;"/>
    <path clip-path="url(#p7b993cdfdc)" d="M 205.130324 252.522446 
L 205.130324 252.474392 
" style="fill:none;stroke:#ff0000;stroke-width:2;"/>
    <path clip-path="url(#p7b993cdfdc)" d="M 212.376188 252.651178 
L 212.376188 252.597407 
" style="fill:none;stroke:#ff0000;stroke-width:2;"/>
    <path clip-path="url(#p7b993cdfdc)" d="M 219.622051 252.694735 
L 219.622051 252.645928 
" style="fill:none;stroke:#ff0000;stroke-width:2;"/>
    <path clip-path="url(#p7b993cdfdc)" d="M 226.867915 252.651364 
L 226.867915 252.603359 
" style="fill:none;stroke:#ff0000;stroke-width:2;"/>
    <path clip-path="url(#p7b993cdfdc)" d="M 234.113778 252.510408 
L 234.113778 252.460825 
" style="fill:none;stroke:#ff0000;stroke-width:2;"/>
    <path clip-path="url(#p7b993cdfdc)" d="M 241.359642 252.269162 
L 241.359642 252.216073 
" style="fill:none;stroke:#ff0000;stroke-width:2;"/>
    <path clip-path="url(#p7b993cdfdc)" d="M 248.605506 251.907622 
L 248.605506 251.843173 
" style="fill:none;stroke:#ff0000;stroke-width:2;"/>
    <path clip-path="url(#p7b993cdfdc)" d="M 255.851369 251.359175 
L 255.851369 251.281824 
" style="fill:none;stroke:#ff0000;stroke-width:2;"/>
    <path clip-path="url(#p7b993cdfdc)" d="M 263.097233 250.629268 
L 263.097233 250.529852 
" style="fill:none;stroke:#ff0000;stroke-width:2;"/>
    <path clip-path="url(#p7b993cdfdc)" d="M 270.343096 249.607233 
L 270.343096 249.488411 
" style="fill:none;stroke:#ff0000;stroke-width:2;"/>
    <path clip-path="url(#p7b993cdfdc)" d="M 277.58896 248.213564 
L 277.58896 248.060698 
" style="fill:none;stroke:#ff0000;stroke-width:2;"/>
    <path clip-path="url(#p7b993cdfdc)" d="M 284.834823 246.311724 
L 284.834823 246.143295 
" style="fill:none;stroke:#ff0000;stroke-width:2;"/>
    <path clip-path="url(#p7b993cdfdc)" d="M 292.080687 243.663609 
L 292.080687 243.443375 
" style="fill:none;stroke:#ff0000;stroke-width:2;"/>
    <path clip-path="url(#p7b993cdfdc)" d="M 299.326551 239.849919 
L 299.326551 239.596974 
" style="fill:none;stroke:#ff0000;stroke-width:2;"/>
    <path clip-path="url(#p7b993cdfdc)" d="M 306.572414 234.093073 
L 306.572414 233.841064 
" style="fill:none;stroke:#ff0000;stroke-width:2;"/>
    <path clip-path="url(#p7b993cdfdc)" d="M 313.818278 225.02975 
L 313.818278 224.781748 
" style="fill:none;stroke:#ff0000;stroke-width:2;"/>
    <path clip-path="url(#p7b993cdfdc)" d="M 321.064141 209.629307 
L 321.064141 209.387419 
" style="fill:none;stroke:#ff0000;stroke-width:2;"/>
    <path clip-path="url(#p7b993cdfdc)" d="M 328.310005 180.219023 
L 328.310005 179.910669 
" style="fill:none;stroke:#ff0000;stroke-width:2;"/>
   </g>
   <g id="line2d_9">
    <path clip-path="url(#p7b993cdfdc)" d="M 103.688234 73.153783 
L 110.934098 179.811117 
L 118.179961 209.37736 
L 125.425825 224.929466 
L 132.671688 234.172744 
L 139.917552 240.103965 
L 147.163416 243.956364 
L 154.409279 246.596516 
L 161.655143 248.465036 
L 168.901006 249.768765 
L 176.14687 250.737037 
L 183.392733 251.429947 
L 190.638597 251.91818 
L 197.884461 252.26586 
L 205.130324 252.498419 
L 212.376188 252.624292 
L 219.622051 252.670331 
L 226.867915 252.627362 
L 234.113778 252.485616 
L 241.359642 252.242617 
L 248.605506 251.875397 
L 255.851369 251.3205 
L 263.097233 250.57956 
L 270.343096 249.547822 
L 277.58896 248.137131 
L 284.834823 246.22751 
L 292.080687 243.553492 
L 299.326551 239.723446 
L 306.572414 233.967069 
L 313.818278 224.905749 
L 321.064141 209.508363 
L 328.310005 180.064846 
" style="fill:none;stroke:#000000;stroke-linecap:square;stroke-width:2;"/>
   </g>
   <g id="patch_3">
    <path d="M 92.457146 261.684426 
L 92.457146 63.911226 
" style="fill:none;stroke:#000000;stroke-linecap:square;stroke-linejoin:miter;stroke-width:0.8;"/>
   </g>
   <g id="patch_4">
    <path d="M 339.541093 261.684426 
L 339.541093 63.911226 
" style="fill:none;stroke:#000000;stroke-linecap:square;stroke-linejoin:miter;stroke-width:0.8;"/>
   </g>
   <g id="patch_5">
    <path d="M 92.457146 261.684426 
L 339.541093 261.684426 
" style="fill:none;stroke:#000000;stroke-linecap:square;stroke-linejoin:miter;stroke-width:0.8;"/>
   </g>
   <g id="patch_6">
    <path d="M 92.457146 63.911226 
L 339.541093 63.911226 
" style="fill:none;stroke:#000000;stroke-linecap:square;stroke-linejoin:miter;stroke-width:0.8;"/>
   </g>
   <g id="text_10">
    <!-- $C(t)$ -->
    <g transform="translate(194.070966 57.911226)scale(0.24 -0.24)">
     <defs>
      <path d="M 74.703125 69.109375 
C 74.703125 70 74 70 73.796875 70 
C 73.59375 70 73.203125 70 72.40625 69 
L 65.5 60.65625 
C 62 66.625 56.5 70 49 70 
C 27.40625 70 5 48.25 5 24.921875 
C 5 8.328125 16.703125 -2 31.296875 -2 
C 39.296875 -2 46.296875 1.375 52.09375 6.25 
C 60.796875 13.484375 63.40625 23.140625 63.40625 23.921875 
C 63.40625 24.8125 62.59375 24.8125 62.296875 24.8125 
C 61.40625 24.8125 61.296875 24.21875 61.09375 23.8125 
C 56.5 8.34375 43 0.890625 33 0.890625 
C 22.40625 0.890625 13.203125 7.640625 13.203125 21.734375 
C 13.203125 24.921875 14.203125 42.1875 25.5 55.1875 
C 31 61.546875 40.40625 67.109375 49.90625 67.109375 
C 60.90625 67.109375 65.796875 58.078125 65.796875 47.9375 
C 65.796875 45.359375 65.5 43.1875 65.5 42.78125 
C 65.5 41.890625 66.5 41.890625 66.796875 41.890625 
C 67.90625 41.890625 68 41.984375 68.40625 43.765625 
z
" id="CMMI12-67"/>
      <path d="M 30.59375 -24.390625 
C 30.59375 -24.296875 30.59375 -24.09375 30.296875 -23.796875 
C 25.703125 -19.125 13.40625 -6.359375 13.40625 24.703125 
C 13.40625 55.765625 25.5 68.421875 30.40625 73.390625 
C 30.40625 73.5 30.59375 73.703125 30.59375 74 
C 30.59375 74.296875 30.296875 74.5 29.90625 74.5 
C 28.796875 74.5 20.296875 67.125 15.40625 56.15625 
C 10.40625 45.109375 9 34.359375 9 24.8125 
C 9 17.625 9.703125 5.484375 15.703125 -7.359375 
C 20.5 -17.734375 28.703125 -25 29.90625 -25 
C 30.40625 -25 30.59375 -24.796875 30.59375 -24.390625 
z
" id="CMR17-40"/>
      <path d="M 20.09375 40.09375 
L 29.296875 40.09375 
C 31.203125 40.09375 32.203125 40.09375 32.203125 41.890625 
C 32.203125 43 31.59375 43 29.59375 43 
L 20.796875 43 
L 24.5 57.6875 
C 24.90625 59.078125 24.90625 59.28125 24.90625 60 
C 24.90625 61.609375 23.59375 62.5 22.296875 62.5 
C 21.5 62.5 19.203125 62.203125 18.40625 58.984375 
L 14.5 43 
L 5.09375 43 
C 3.09375 43 2.203125 43 2.203125 41.09375 
C 2.203125 40.09375 2.90625 40.09375 4.796875 40.09375 
L 13.703125 40.09375 
L 7.09375 13.765625 
C 6.296875 10.28125 6 9.28125 6 7.984375 
C 6 3.296875 9.296875 -1 14.90625 -1 
C 25 -1 30.40625 13.5625 30.40625 14.25 
C 30.40625 14.859375 30 15.15625 29.40625 15.15625 
C 29.203125 15.15625 28.796875 15.15625 28.59375 14.75 
C 28.5 14.65625 28.40625 14.546875 27.703125 12.953125 
C 25.59375 7.984375 21 1 15.203125 1 
C 12.203125 1 12 3.5 12 5.6875 
C 12 5.78125 12 7.6875 12.296875 8.875 
z
" id="CMMI12-116"/>
      <path d="M 26.296875 24.703125 
C 26.296875 31.875 25.59375 44.015625 19.59375 56.859375 
C 14.796875 67.234375 6.59375 74.5 5.40625 74.5 
C 5.09375 74.5 4.703125 74.390625 4.703125 73.890625 
C 4.703125 73.703125 4.796875 73.59375 4.90625 73.390625 
C 9.703125 68.40625 21.90625 55.75 21.90625 24.75 
C 21.90625 -6.359375 9.796875 -19.015625 4.90625 -24.015625 
C 4.796875 -24.203125 4.703125 -24.3125 4.703125 -24.5 
C 4.703125 -25 5.09375 -25 5.40625 -25 
C 6.5 -25 15 -17.625 19.90625 -6.65625 
C 24.90625 4.390625 26.296875 15.140625 26.296875 24.703125 
z
" id="CMR17-41"/>
     </defs>
     <use transform="scale(0.996264)" xlink:href="#CMMI12-67"/>
     <use transform="translate(76.946847 0)scale(0.996264)" xlink:href="#CMR17-40"/>
     <use transform="translate(112.227614 0)scale(0.996264)" xlink:href="#CMMI12-116"/>
     <use transform="translate(147.453945 0)scale(0.996264)" xlink:href="#CMR17-41"/>
    </g>
   </g>
  </g>
  <g id="axes_2">
   <g id="patch_7">
    <path d="M 406.686599 261.684426 
L 653.770547 261.684426 
L 653.770547 63.911226 
L 406.686599 63.911226 
z
" style="fill:#ffffff;"/>
   </g>
   <g id="matplotlib.axis_3">
    <g id="xtick_5">
     <g id="line2d_10">
      <g>
       <use style="stroke:#000000;stroke-width:0.8;" x="417.917687" xlink:href="#mde1bb2d2da" y="261.684426"/>
      </g>
     </g>
     <g id="text_11">
      <!-- $\mathdefault{0}$ -->
      <g transform="translate(414.015694 279.754014)scale(0.16 -0.16)">
       <use transform="scale(0.996264)" xlink:href="#CMR17-48"/>
      </g>
     </g>
    </g>
    <g id="xtick_6">
     <g id="line2d_11">
      <g>
       <use style="stroke:#000000;stroke-width:0.8;" x="488.111991" xlink:href="#mde1bb2d2da" y="261.684426"/>
      </g>
     </g>
     <g id="text_12">
      <!-- $\mathdefault{5}$ -->
      <g transform="translate(484.209997 279.754014)scale(0.16 -0.16)">
       <defs>
        <path d="M 11.40625 57.6875 
C 12.40625 57.28125 16.5 56 20.703125 56 
C 30 56 35.09375 61.109375 38 64.0625 
C 38 64.953125 38 65.5 37.40625 65.5 
C 37.296875 65.5 37.09375 65.5 36.296875 65.046875 
C 32.796875 63.40625 28.703125 62.078125 23.703125 62.078125 
C 20.703125 62.078125 16.203125 62.484375 11.296875 64.671875 
C 10.203125 65.171875 10 65.171875 9.90625 65.171875 
C 9.40625 65.171875 9.296875 65.0625 9.296875 63.078125 
L 9.296875 34.421875 
C 9.296875 32.640625 9.296875 32.140625 10.296875 32.140625 
C 10.796875 32.140625 11 32.34375 11.5 33.03125 
C 14.703125 37.515625 19.09375 39.40625 24.09375 39.40625 
C 27.59375 39.40625 35.09375 37.21875 35.09375 20.140625 
C 35.09375 16.953125 35.09375 11.171875 32.09375 6.578125 
C 29.59375 2.484375 25.703125 0.390625 21.40625 0.390625 
C 14.796875 0.390625 8.09375 5 6.296875 12.71875 
C 6.703125 12.609375 7.5 12.421875 7.90625 12.421875 
C 9.203125 12.421875 11.703125 13.125 11.703125 16.21875 
C 11.703125 18.90625 9.796875 20 7.90625 20 
C 5.59375 20 4.09375 18.59375 4.09375 15.796875 
C 4.09375 7.09375 11 -2 21.59375 -2 
C 31.90625 -2 41.703125 6.875 41.703125 19.75 
C 41.703125 31.71875 33.90625 41 24.203125 41 
C 19.09375 41 14.796875 39.109375 11.40625 35.53125 
z
" id="CMR17-53"/>
       </defs>
       <use transform="scale(0.996264)" xlink:href="#CMR17-53"/>
      </g>
     </g>
    </g>
    <g id="xtick_7">
     <g id="line2d_12">
      <g>
       <use style="stroke:#000000;stroke-width:0.8;" x="558.306294" xlink:href="#mde1bb2d2da" y="261.684426"/>
      </g>
     </g>
     <g id="text_13">
      <!-- $\mathdefault{10}$ -->
      <g transform="translate(550.502307 279.754014)scale(0.16 -0.16)">
       <use transform="scale(0.996264)" xlink:href="#CMR17-49"/>
       <use transform="translate(45.690477 0)scale(0.996264)" xlink:href="#CMR17-48"/>
      </g>
     </g>
    </g>
    <g id="xtick_8">
     <g id="line2d_13">
      <g>
       <use style="stroke:#000000;stroke-width:0.8;" x="628.500598" xlink:href="#mde1bb2d2da" y="261.684426"/>
      </g>
     </g>
     <g id="text_14">
      <!-- $\mathdefault{15}$ -->
      <g transform="translate(620.696611 279.754014)scale(0.16 -0.16)">
       <use transform="scale(0.996264)" xlink:href="#CMR17-49"/>
       <use transform="translate(45.690477 0)scale(0.996264)" xlink:href="#CMR17-53"/>
      </g>
     </g>
    </g>
   </g>
   <g id="matplotlib.axis_4">
    <g id="ytick_5">
     <g id="line2d_14">
      <g>
       <use style="stroke:#000000;stroke-width:0.8;" x="406.686599" xlink:href="#m5c03059ad0" y="253.504923"/>
      </g>
     </g>
     <g id="text_15">
      <!-- $\mathdefault{0}$ -->
      <g transform="translate(391.882612 259.039717)scale(0.16 -0.16)">
       <use transform="scale(0.996264)" xlink:href="#CMR17-48"/>
      </g>
     </g>
    </g>
    <g id="ytick_6">
     <g id="line2d_15">
      <g>
       <use style="stroke:#000000;stroke-width:0.8;" x="406.686599" xlink:href="#m5c03059ad0" y="190.565069"/>
      </g>
     </g>
     <g id="text_16">
      <!-- $\mathdefault{20}$ -->
      <g transform="translate(384.078625 196.099863)scale(0.16 -0.16)">
       <use transform="scale(0.996264)" xlink:href="#CMR17-50"/>
       <use transform="translate(45.690477 0)scale(0.996264)" xlink:href="#CMR17-48"/>
      </g>
     </g>
    </g>
    <g id="ytick_7">
     <g id="line2d_16">
      <g>
       <use style="stroke:#000000;stroke-width:0.8;" x="406.686599" xlink:href="#m5c03059ad0" y="127.625215"/>
      </g>
     </g>
     <g id="text_17">
      <!-- $\mathdefault{40}$ -->
      <g transform="translate(384.078625 133.160009)scale(0.16 -0.16)">
       <use transform="scale(0.996264)" xlink:href="#CMR17-52"/>
       <use transform="translate(45.690477 0)scale(0.996264)" xlink:href="#CMR17-48"/>
      </g>
     </g>
    </g>
    <g id="ytick_8">
     <g id="line2d_17">
      <g>
       <use style="stroke:#000000;stroke-width:0.8;" x="406.686599" xlink:href="#m5c03059ad0" y="64.685361"/>
      </g>
     </g>
     <g id="text_18">
      <!-- $\mathdefault{60}$ -->
      <g transform="translate(384.078625 70.220155)scale(0.16 -0.16)">
       <use transform="scale(0.996264)" xlink:href="#CMR17-54"/>
       <use transform="translate(45.690477 0)scale(0.996264)" xlink:href="#CMR17-48"/>
      </g>
     </g>
    </g>
   </g>
   <g id="LineCollection_2">
    <path clip-path="url(#p8ee85e2df6)" d="M 417.917687 73.406649 
L 417.917687 72.900917 
" style="fill:none;stroke:#ff0000;stroke-width:2;"/>
    <path clip-path="url(#p8ee85e2df6)" d="M 431.956548 180.037988 
L 431.956548 179.837975 
" style="fill:none;stroke:#ff0000;stroke-width:2;"/>
    <path clip-path="url(#p8ee85e2df6)" d="M 445.995409 209.526997 
L 445.995409 209.358725 
" style="fill:none;stroke:#ff0000;stroke-width:2;"/>
    <path clip-path="url(#p8ee85e2df6)" d="M 460.034269 225.00375 
L 460.034269 224.831464 
" style="fill:none;stroke:#ff0000;stroke-width:2;"/>
    <path clip-path="url(#p8ee85e2df6)" d="M 474.07313 234.159381 
L 474.07313 233.980431 
" style="fill:none;stroke:#ff0000;stroke-width:2;"/>
    <path clip-path="url(#p8ee85e2df6)" d="M 488.111991 240.000891 
L 488.111991 239.82652 
" style="fill:none;stroke:#ff0000;stroke-width:2;"/>
    <path clip-path="url(#p8ee85e2df6)" d="M 502.150851 243.834456 
L 502.150851 243.6754 
" style="fill:none;stroke:#ff0000;stroke-width:2;"/>
    <path clip-path="url(#p8ee85e2df6)" d="M 516.189712 246.478294 
L 516.189712 246.345731 
" style="fill:none;stroke:#ff0000;stroke-width:2;"/>
    <path clip-path="url(#p8ee85e2df6)" d="M 530.228573 248.355948 
L 530.228573 248.246219 
" style="fill:none;stroke:#ff0000;stroke-width:2;"/>
    <path clip-path="url(#p8ee85e2df6)" d="M 544.267433 249.70296 
L 544.267433 249.613626 
" style="fill:none;stroke:#ff0000;stroke-width:2;"/>
    <path clip-path="url(#p8ee85e2df6)" d="M 558.306294 250.698084 
L 558.306294 250.618512 
" style="fill:none;stroke:#ff0000;stroke-width:2;"/>
    <path clip-path="url(#p8ee85e2df6)" d="M 572.345155 251.407212 
L 572.345155 251.343235 
" style="fill:none;stroke:#ff0000;stroke-width:2;"/>
    <path clip-path="url(#p8ee85e2df6)" d="M 586.384015 251.923983 
L 586.384015 251.869595 
" style="fill:none;stroke:#ff0000;stroke-width:2;"/>
    <path clip-path="url(#p8ee85e2df6)" d="M 600.422876 252.275022 
L 600.422876 252.233455 
" style="fill:none;stroke:#ff0000;stroke-width:2;"/>
    <path clip-path="url(#p8ee85e2df6)" d="M 614.461737 252.510378 
L 614.461737 252.473657 
" style="fill:none;stroke:#ff0000;stroke-width:2;"/>
    <path clip-path="url(#p8ee85e2df6)" d="M 628.500598 252.644916 
L 628.500598 252.606738 
" style="fill:none;stroke:#ff0000;stroke-width:2;"/>
    <path clip-path="url(#p8ee85e2df6)" d="M 642.539458 252.694735 
L 642.539458 252.645928 
" style="fill:none;stroke:#ff0000;stroke-width:2;"/>
   </g>
   <g id="line2d_18">
    <path clip-path="url(#p8ee85e2df6)" d="M 417.917687 73.153783 
L 431.956548 179.937981 
L 445.995409 209.442861 
L 460.034269 224.917607 
L 474.07313 234.069906 
L 488.111991 239.913706 
L 502.150851 243.754928 
L 516.189712 246.412013 
L 530.228573 248.301084 
L 544.267433 249.658293 
L 558.306294 250.658298 
L 572.345155 251.375223 
L 586.384015 251.896789 
L 600.422876 252.254239 
L 614.461737 252.492018 
L 628.500598 252.625827 
L 642.539458 252.670331 
" style="fill:none;stroke:#000000;stroke-linecap:square;stroke-width:2;"/>
   </g>
   <g id="patch_8">
    <path d="M 406.686599 261.684426 
L 406.686599 63.911226 
" style="fill:none;stroke:#000000;stroke-linecap:square;stroke-linejoin:miter;stroke-width:0.8;"/>
   </g>
   <g id="patch_9">
    <path d="M 653.770547 261.684426 
L 653.770547 63.911226 
" style="fill:none;stroke:#000000;stroke-linecap:square;stroke-linejoin:miter;stroke-width:0.8;"/>
   </g>
   <g id="patch_10">
    <path d="M 406.686599 261.684426 
L 653.770547 261.684426 
" style="fill:none;stroke:#000000;stroke-linecap:square;stroke-linejoin:miter;stroke-width:0.8;"/>
   </g>
   <g id="patch_11">
    <path d="M 406.686599 63.911226 
L 653.770547 63.911226 
" style="fill:none;stroke:#000000;stroke-linecap:square;stroke-linejoin:miter;stroke-width:0.8;"/>
   </g>
   <g id="text_19">
    <!-- Folded $C(t)$ -->
    <g transform="translate(472.889563 57.911226)scale(0.24 -0.24)">
     <defs>
      <path d="M 54.40625 67.578125 
L 5.09375 67.578125 
L 5.09375 65 
C 12 65 13.09375 65 13.09375 60.53125 
L 13.09375 6.96875 
C 13.09375 2.5 12 2.5 5.09375 2.5 
L 5.09375 0 
C 8 0 13.59375 0 16.703125 0 
C 20.796875 0 25.59375 0 29.703125 0 
L 29.703125 2.5 
L 27.5 2.5 
C 19.90625 2.5 19.703125 3.484375 19.703125 7.0625 
L 19.703125 32.421875 
L 28.703125 32.421875 
C 38 32.421875 38.90625 29.140625 38.90625 20.8125 
L 40.703125 20.8125 
L 40.703125 46.671875 
L 38.90625 46.671875 
C 38.90625 38.28125 38 35 28.703125 35 
L 19.703125 35 
L 19.703125 61.109375 
C 19.703125 64.5 19.90625 65 23.90625 65 
L 36.796875 65 
C 51.90625 65 53.59375 58.828125 55 45.5625 
L 56.796875 45.5625 
z
" id="CMR17-70"/>
      <path d="M 43.09375 21.1875 
C 43.09375 34 33.796875 44 22.90625 44 
C 12 44 2.703125 34 2.703125 21.1875 
C 2.703125 8.609375 12 -1 22.90625 -1 
C 33.796875 -1 43.09375 8.609375 43.09375 21.1875 
z
M 22.90625 0.796875 
C 18.203125 0.796875 14.203125 3.59375 11.90625 7.5 
C 9.40625 11.984375 9.09375 17.59375 9.09375 22 
C 9.09375 26.203125 9.296875 31.40625 11.90625 35.90625 
C 13.90625 39.203125 17.796875 42.40625 22.90625 42.40625 
C 27.40625 42.40625 31.203125 39.90625 33.59375 36.40625 
C 36.703125 31.703125 36.703125 25.109375 36.703125 22 
C 36.703125 18.09375 36.5 12.109375 33.796875 7.296875 
C 31 2.703125 26.703125 0.796875 22.90625 0.796875 
z
" id="CMR17-111"/>
      <path d="M 29.203125 67.59375 
L 29.203125 65 
C 35.09375 65 36 64.40625 36 59.6875 
L 36 36.640625 
C 35.59375 37.140625 31.5 43.59375 23.40625 43.59375 
C 13.203125 43.59375 3.296875 34.5 3.296875 21.3125 
C 3.296875 8.203125 12.59375 -1 22.40625 -1 
C 30.90625 -1 35.296875 5.265625 35.796875 5.9375 
L 35.796875 -0.984375 
L 47.90625 -0.984375 
L 47.90625 2 
C 42 2 41.09375 2.59375 41.09375 7.390625 
L 41.09375 68.6875 
z
M 35.796875 11.796875 
C 35.796875 8.796875 34 6.09375 31.703125 4.09375 
C 28.296875 1.09375 24.90625 0.59375 23 0.59375 
C 20.09375 0.59375 9.703125 2.09375 9.703125 21.1875 
C 9.703125 40.8125 21.296875 42 23.90625 42 
C 28.5 42 32.203125 39.40625 34.5 35.796875 
C 35.796875 33.703125 35.796875 33.40625 35.796875 31.609375 
z
" id="CMR17-100"/>
     </defs>
     <use transform="scale(0.996264)" xlink:href="#CMR17-70"/>
     <use transform="translate(52.176591 0)scale(0.996264)" xlink:href="#CMR17-111"/>
     <use transform="translate(97.867068 0)scale(0.996264)" xlink:href="#CMR17-108"/>
     <use transform="translate(122.738127 0)scale(0.996264)" xlink:href="#CMR17-100"/>
     <use transform="translate(173.633497 0)scale(0.996264)" xlink:href="#CMR17-101"/>
     <use transform="translate(214.119157 0)scale(0.996264)" xlink:href="#CMR17-100"/>
     <use transform="translate(295.090493 0)scale(0.996264)" xlink:href="#CMMI12-67"/>
     <use transform="translate(372.03734 0)scale(0.996264)" xlink:href="#CMR17-40"/>
     <use transform="translate(407.318108 0)scale(0.996264)" xlink:href="#CMMI12-116"/>
     <use transform="translate(442.544438 0)scale(0.996264)" xlink:href="#CMR17-41"/>
    </g>
   </g>
  </g>
  <g id="axes_3">
   <g id="patch_12">
    <path d="M 720.916052 261.684426 
L 968 261.684426 
L 968 63.911226 
L 720.916052 63.911226 
z
" style="fill:#ffffff;"/>
   </g>
   <g id="matplotlib.axis_5">
    <g id="xtick_9">
     <g id="line2d_19">
      <g>
       <use style="stroke:#000000;stroke-width:0.8;" x="732.147141" xlink:href="#mde1bb2d2da" y="261.684426"/>
      </g>
     </g>
     <g id="text_20">
      <!-- $\mathdefault{0}$ -->
      <g transform="translate(728.245147 279.754014)scale(0.16 -0.16)">
       <use transform="scale(0.996264)" xlink:href="#CMR17-48"/>
      </g>
     </g>
    </g>
    <g id="xtick_10">
     <g id="line2d_20">
      <g>
       <use style="stroke:#000000;stroke-width:0.8;" x="802.341444" xlink:href="#mde1bb2d2da" y="261.684426"/>
      </g>
     </g>
     <g id="text_21">
      <!-- $\mathdefault{5}$ -->
      <g transform="translate(798.439451 279.754014)scale(0.16 -0.16)">
       <use transform="scale(0.996264)" xlink:href="#CMR17-53"/>
      </g>
     </g>
    </g>
    <g id="xtick_11">
     <g id="line2d_21">
      <g>
       <use style="stroke:#000000;stroke-width:0.8;" x="872.535747" xlink:href="#mde1bb2d2da" y="261.684426"/>
      </g>
     </g>
     <g id="text_22">
      <!-- $\mathdefault{10}$ -->
      <g transform="translate(864.73176 279.754014)scale(0.16 -0.16)">
       <use transform="scale(0.996264)" xlink:href="#CMR17-49"/>
       <use transform="translate(45.690477 0)scale(0.996264)" xlink:href="#CMR17-48"/>
      </g>
     </g>
    </g>
    <g id="xtick_12">
     <g id="line2d_22">
      <g>
       <use style="stroke:#000000;stroke-width:0.8;" x="942.730051" xlink:href="#mde1bb2d2da" y="261.684426"/>
      </g>
     </g>
     <g id="text_23">
      <!-- $\mathdefault{15}$ -->
      <g transform="translate(934.926064 279.754014)scale(0.16 -0.16)">
       <use transform="scale(0.996264)" xlink:href="#CMR17-49"/>
       <use transform="translate(45.690477 0)scale(0.996264)" xlink:href="#CMR17-53"/>
      </g>
     </g>
    </g>
   </g>
   <g id="matplotlib.axis_6">
    <g id="ytick_9">
     <g id="line2d_23">
      <g>
       <use style="stroke:#000000;stroke-width:0.8;" x="720.916052" xlink:href="#m5c03059ad0" y="208.321586"/>
      </g>
     </g>
     <g id="text_24">
      <!-- $\mathdefault{−0.05}$ -->
      <g transform="translate(673.770547 213.85638)scale(0.16 -0.16)">
       <defs>
        <path d="M 65.90625 23 
C 67.59375 23 69.40625 23 69.40625 25 
C 69.40625 27 67.59375 27 65.90625 27 
L 11.796875 27 
C 10.09375 27 8.296875 27 8.296875 25 
C 8.296875 23 10.09375 23 11.796875 23 
z
" id="CMSY10-0"/>
        <path d="M 18.40625 4.796875 
C 18.40625 7.6875 16 9.671875 13.59375 9.671875 
C 10.703125 9.671875 8.703125 7.28125 8.703125 4.890625 
C 8.703125 2 11.09375 0 13.5 0 
C 16.40625 0 18.40625 2.390625 18.40625 4.796875 
z
" id="CMMI12-58"/>
       </defs>
       <use transform="scale(0.996264)" xlink:href="#CMSY10-0"/>
       <use transform="translate(77.487468 0)scale(0.996264)" xlink:href="#CMR17-48"/>
       <use transform="translate(123.177945 0)scale(0.996264)" xlink:href="#CMMI12-58"/>
       <use transform="translate(150.275122 0)scale(0.996264)" xlink:href="#CMR17-48"/>
       <use transform="translate(195.965599 0)scale(0.996264)" xlink:href="#CMR17-53"/>
      </g>
     </g>
    </g>
    <g id="ytick_10">
     <g id="line2d_24">
      <g>
       <use style="stroke:#000000;stroke-width:0.8;" x="720.916052" xlink:href="#m5c03059ad0" y="152.788171"/>
      </g>
     </g>
     <g id="text_25">
      <!-- $\mathdefault{0.00}$ -->
      <g transform="translate(686.168543 158.322966)scale(0.16 -0.16)">
       <use transform="scale(0.996264)" xlink:href="#CMR17-48"/>
       <use transform="translate(45.690477 0)scale(0.996264)" xlink:href="#CMMI12-58"/>
       <use transform="translate(72.787654 0)scale(0.996264)" xlink:href="#CMR17-48"/>
       <use transform="translate(118.478131 0)scale(0.996264)" xlink:href="#CMR17-48"/>
      </g>
     </g>
    </g>
    <g id="ytick_11">
     <g id="line2d_25">
      <g>
       <use style="stroke:#000000;stroke-width:0.8;" x="720.916052" xlink:href="#m5c03059ad0" y="97.254757"/>
      </g>
     </g>
     <g id="text_26">
      <!-- $\mathdefault{0.05}$ -->
      <g transform="translate(686.168543 102.789551)scale(0.16 -0.16)">
       <use transform="scale(0.996264)" xlink:href="#CMR17-48"/>
       <use transform="translate(45.690477 0)scale(0.996264)" xlink:href="#CMMI12-58"/>
       <use transform="translate(72.787654 0)scale(0.996264)" xlink:href="#CMR17-48"/>
       <use transform="translate(118.478131 0)scale(0.996264)" xlink:href="#CMR17-53"/>
      </g>
     </g>
    </g>
   </g>
   <g id="LineCollection_3">
    <path clip-path="url(#p69cac90b98)" d="M 732.147141 152.788171 
L 732.147141 152.788171 
" style="fill:none;stroke:#ff0000;stroke-width:2;"/>
    <path clip-path="url(#p69cac90b98)" d="M 746.186001 143.126559 
L 746.186001 72.900917 
" style="fill:none;stroke:#ff0000;stroke-width:2;"/>
    <path clip-path="url(#p69cac90b98)" d="M 760.224862 157.99741 
L 760.224862 101.344196 
" style="fill:none;stroke:#ff0000;stroke-width:2;"/>
    <path clip-path="url(#p69cac90b98)" d="M 774.263723 187.060422 
L 774.263723 126.886179 
" style="fill:none;stroke:#ff0000;stroke-width:2;"/>
    <path clip-path="url(#p69cac90b98)" d="M 788.302583 222.233806 
L 788.302583 155.931304 
" style="fill:none;stroke:#ff0000;stroke-width:2;"/>
    <path clip-path="url(#p69cac90b98)" d="M 802.341444 252.694735 
L 802.341444 187.177932 
" style="fill:none;stroke:#ff0000;stroke-width:2;"/>
    <path clip-path="url(#p69cac90b98)" d="M 816.380305 250.795316 
L 816.380305 196.966619 
" style="fill:none;stroke:#ff0000;stroke-width:2;"/>
    <path clip-path="url(#p69cac90b98)" d="M 830.419165 240.804777 
L 830.419165 195.004986 
" style="fill:none;stroke:#ff0000;stroke-width:2;"/>
    <path clip-path="url(#p69cac90b98)" d="M 844.458026 231.326784 
L 844.458026 189.977027 
" style="fill:none;stroke:#ff0000;stroke-width:2;"/>
    <path clip-path="url(#p69cac90b98)" d="M 858.496887 207.432199 
L 858.496887 176.121408 
" style="fill:none;stroke:#ff0000;stroke-width:2;"/>
    <path clip-path="url(#p69cac90b98)" d="M 872.535747 193.695393 
L 872.535747 167.459232 
" style="fill:none;stroke:#ff0000;stroke-width:2;"/>
    <path clip-path="url(#p69cac90b98)" d="M 886.574608 183.180001 
L 886.574608 161.023623 
" style="fill:none;stroke:#ff0000;stroke-width:2;"/>
    <path clip-path="url(#p69cac90b98)" d="M 900.613469 169.51571 
L 900.613469 151.159827 
" style="fill:none;stroke:#ff0000;stroke-width:2;"/>
    <path clip-path="url(#p69cac90b98)" d="M 914.652329 164.666364 
L 914.652329 149.113162 
" style="fill:none;stroke:#ff0000;stroke-width:2;"/>
    <path clip-path="url(#p69cac90b98)" d="M 928.69119 160.725497 
L 928.69119 149.369222 
" style="fill:none;stroke:#ff0000;stroke-width:2;"/>
    <path clip-path="url(#p69cac90b98)" d="M 942.730051 158.205834 
L 942.730051 146.28727 
" style="fill:none;stroke:#ff0000;stroke-width:2;"/>
    <path clip-path="url(#p69cac90b98)" d="M 956.768911 152.788171 
L 956.768911 152.788171 
" style="fill:none;stroke:#ff0000;stroke-width:2;"/>
   </g>
   <g id="line2d_26">
    <path clip-path="url(#p69cac90b98)" d="M 732.147141 152.788171 
L 746.186001 108.013738 
L 760.224862 129.670803 
L 774.263723 156.9733 
L 788.302583 189.082555 
L 802.341444 219.936333 
L 816.380305 223.880968 
L 830.419165 217.904881 
L 844.458026 210.651905 
L 858.496887 191.776804 
L 872.535747 180.577312 
L 886.574608 172.101812 
L 900.613469 160.337769 
L 914.652329 156.889763 
L 928.69119 155.04736 
L 942.730051 152.246552 
L 956.768911 152.788171 
" style="fill:none;stroke:#000000;stroke-linecap:square;stroke-width:2;"/>
   </g>
   <g id="patch_13">
    <path d="M 720.916052 261.684426 
L 720.916052 63.911226 
" style="fill:none;stroke:#000000;stroke-linecap:square;stroke-linejoin:miter;stroke-width:0.8;"/>
   </g>
   <g id="patch_14">
    <path d="M 968 261.684426 
L 968 63.911226 
" style="fill:none;stroke:#000000;stroke-linecap:square;stroke-linejoin:miter;stroke-width:0.8;"/>
   </g>
   <g id="patch_15">
    <path d="M 720.916052 261.684426 
L 968 261.684426 
" style="fill:none;stroke:#000000;stroke-linecap:square;stroke-linejoin:miter;stroke-width:0.8;"/>
   </g>
   <g id="patch_16">
    <path d="M 720.916052 63.911226 
L 968 63.911226 
" style="fill:none;stroke:#000000;stroke-linecap:square;stroke-linejoin:miter;stroke-width:0.8;"/>
   </g>
   <g id="text_27">
    <!-- $C(t)$ - Folded $C(t)$ -->
    <g transform="translate(754.363515 57.911226)scale(0.24 -0.24)">
     <defs>
      <path d="M 25.5 19 
L 25.5 23.375 
L 0.40625 23.375 
L 0.40625 19 
z
" id="CMR17-45"/>
     </defs>
     <use transform="scale(0.996264)" xlink:href="#CMMI12-67"/>
     <use transform="translate(76.946847 0)scale(0.996264)" xlink:href="#CMR17-40"/>
     <use transform="translate(112.227614 0)scale(0.996264)" xlink:href="#CMMI12-116"/>
     <use transform="translate(147.453945 0)scale(0.996264)" xlink:href="#CMR17-41"/>
     <use transform="translate(212.810679 0)scale(0.996264)" xlink:href="#CMR17-45"/>
     <use transform="translate(272.962612 0)scale(0.996264)" xlink:href="#CMR17-70"/>
     <use transform="translate(325.139203 0)scale(0.996264)" xlink:href="#CMR17-111"/>
     <use transform="translate(370.82968 0)scale(0.996264)" xlink:href="#CMR17-108"/>
     <use transform="translate(395.700738 0)scale(0.996264)" xlink:href="#CMR17-100"/>
     <use transform="translate(446.596108 0)scale(0.996264)" xlink:href="#CMR17-101"/>
     <use transform="translate(487.081769 0)scale(0.996264)" xlink:href="#CMR17-100"/>
     <use transform="translate(568.053105 0)scale(0.996264)" xlink:href="#CMMI12-67"/>
     <use transform="translate(644.999951 0)scale(0.996264)" xlink:href="#CMR17-40"/>
     <use transform="translate(680.280719 0)scale(0.996264)" xlink:href="#CMMI12-116"/>
     <use transform="translate(715.507049 0)scale(0.996264)" xlink:href="#CMR17-41"/>
    </g>
   </g>
  </g>
  <g id="axes_4">
   <g id="patch_17">
    <path d="M 92.457146 514.830936 
L 339.541093 514.830936 
L 339.541093 317.057736 
L 92.457146 317.057736 
z
" style="fill:#ffffff;"/>
   </g>
   <g id="matplotlib.axis_7">
    <g id="xtick_13">
     <g id="line2d_27">
      <g>
       <use style="stroke:#000000;stroke-width:0.8;" x="103.688234" xlink:href="#mde1bb2d2da" y="514.830936"/>
      </g>
     </g>
     <g id="text_28">
      <!-- $\mathdefault{0}$ -->
      <g transform="translate(99.786241 532.900524)scale(0.16 -0.16)">
       <use transform="scale(0.996264)" xlink:href="#CMR17-48"/>
      </g>
     </g>
    </g>
    <g id="xtick_14">
     <g id="line2d_28">
      <g>
       <use style="stroke:#000000;stroke-width:0.8;" x="176.14687" xlink:href="#mde1bb2d2da" y="514.830936"/>
      </g>
     </g>
     <g id="text_29">
      <!-- $\mathdefault{10}$ -->
      <g transform="translate(168.342883 532.900524)scale(0.16 -0.16)">
       <use transform="scale(0.996264)" xlink:href="#CMR17-49"/>
       <use transform="translate(45.690477 0)scale(0.996264)" xlink:href="#CMR17-48"/>
      </g>
     </g>
    </g>
    <g id="xtick_15">
     <g id="line2d_29">
      <g>
       <use style="stroke:#000000;stroke-width:0.8;" x="248.605506" xlink:href="#mde1bb2d2da" y="514.830936"/>
      </g>
     </g>
     <g id="text_30">
      <!-- $\mathdefault{20}$ -->
      <g transform="translate(240.801519 532.900524)scale(0.16 -0.16)">
       <use transform="scale(0.996264)" xlink:href="#CMR17-50"/>
       <use transform="translate(45.690477 0)scale(0.996264)" xlink:href="#CMR17-48"/>
      </g>
     </g>
    </g>
    <g id="xtick_16">
     <g id="line2d_30">
      <g>
       <use style="stroke:#000000;stroke-width:0.8;" x="321.064141" xlink:href="#mde1bb2d2da" y="514.830936"/>
      </g>
     </g>
     <g id="text_31">
      <!-- $\mathdefault{30}$ -->
      <g transform="translate(313.260154 532.900524)scale(0.16 -0.16)">
       <use transform="scale(0.996264)" xlink:href="#CMR17-51"/>
       <use transform="translate(45.690477 0)scale(0.996264)" xlink:href="#CMR17-48"/>
      </g>
     </g>
    </g>
   </g>
   <g id="matplotlib.axis_8">
    <g id="ytick_12">
     <g id="line2d_31">
      <g>
       <use style="stroke:#000000;stroke-width:0.8;" x="92.457146" xlink:href="#m5c03059ad0" y="493.096108"/>
      </g>
     </g>
     <g id="text_32">
      <!-- $\mathdefault{−4}$ -->
      <g transform="translate(65.255163 498.630902)scale(0.16 -0.16)">
       <use transform="scale(0.996264)" xlink:href="#CMSY10-0"/>
       <use transform="translate(77.487468 0)scale(0.996264)" xlink:href="#CMR17-52"/>
      </g>
     </g>
    </g>
    <g id="ytick_13">
     <g id="line2d_32">
      <g>
       <use style="stroke:#000000;stroke-width:0.8;" x="92.457146" xlink:href="#m5c03059ad0" y="449.678308"/>
      </g>
     </g>
     <g id="text_33">
      <!-- $\mathdefault{−2}$ -->
      <g transform="translate(65.255163 455.213102)scale(0.16 -0.16)">
       <use transform="scale(0.996264)" xlink:href="#CMSY10-0"/>
       <use transform="translate(77.487468 0)scale(0.996264)" xlink:href="#CMR17-50"/>
      </g>
     </g>
    </g>
    <g id="ytick_14">
     <g id="line2d_33">
      <g>
       <use style="stroke:#000000;stroke-width:0.8;" x="92.457146" xlink:href="#m5c03059ad0" y="406.260507"/>
      </g>
     </g>
     <g id="text_34">
      <!-- $\mathdefault{0}$ -->
      <g transform="translate(77.653159 411.795302)scale(0.16 -0.16)">
       <use transform="scale(0.996264)" xlink:href="#CMR17-48"/>
      </g>
     </g>
    </g>
    <g id="ytick_15">
     <g id="line2d_34">
      <g>
       <use style="stroke:#000000;stroke-width:0.8;" x="92.457146" xlink:href="#m5c03059ad0" y="362.842707"/>
      </g>
     </g>
     <g id="text_35">
      <!-- $\mathdefault{2}$ -->
      <g transform="translate(77.653159 368.377501)scale(0.16 -0.16)">
       <use transform="scale(0.996264)" xlink:href="#CMR17-50"/>
      </g>
     </g>
    </g>
    <g id="ytick_16">
     <g id="line2d_35">
      <g>
       <use style="stroke:#000000;stroke-width:0.8;" x="92.457146" xlink:href="#m5c03059ad0" y="319.424907"/>
      </g>
     </g>
     <g id="text_36">
      <!-- $\mathdefault{4}$ -->
      <g transform="translate(77.653159 324.959701)scale(0.16 -0.16)">
       <use transform="scale(0.996264)" xlink:href="#CMR17-52"/>
      </g>
     </g>
    </g>
    <g id="text_37">
     <!-- Imaginary -->
     <g transform="translate(56.604405 464.660674)rotate(-90)scale(0.24 -0.24)">
      <defs>
       <path d="M 19.703125 61.015625 
C 19.703125 65.5 20.90625 65.5 28.09375 65.5 
L 28.09375 68 
C 24.90625 68 19.796875 68 16.40625 68 
C 13 68 7.90625 68 4.703125 68 
L 4.703125 65.5 
C 11.90625 65.5 13.09375 65.5 13.09375 61.015625 
L 13.09375 6.984375 
C 13.09375 2.5 11.90625 2.5 4.703125 2.5 
L 4.703125 0 
C 7.90625 0 13 0 16.40625 0 
C 19.796875 0 24.90625 0 28.09375 0 
L 28.09375 2.5 
C 20.90625 2.5 19.703125 2.5 19.703125 6.984375 
z
" id="CMR17-73"/>
       <path d="M 67.59375 30.203125 
C 67.59375 35.1875 66.703125 43.59375 54.796875 43.59375 
C 48 43.59375 43.296875 39 41.5 33.609375 
L 41.40625 33.609375 
C 40.203125 41.8125 34.296875 43.59375 28.703125 43.59375 
C 20.796875 43.59375 16.703125 37.5 15.203125 33.5 
L 15.09375 33.5 
L 15.09375 43.59375 
L 3.296875 42.5 
L 3.296875 39.90625 
C 9.203125 39.90625 10.09375 39.296875 10.09375 34.5 
L 10.09375 6.6875 
C 10.09375 2.875 9.703125 2.390625 3.296875 2.390625 
L 3.296875 -0.203125 
C 5.703125 0 10.09375 0 12.703125 0 
C 15.296875 0 19.796875 0 22.203125 -0.203125 
L 22.203125 2.390625 
C 15.796875 2.390625 15.40625 2.78125 15.40625 6.6875 
L 15.40625 25.90625 
C 15.40625 35.109375 21 42 28 42 
C 35.40625 42 36.203125 35.40625 36.203125 30.59375 
L 36.203125 6.6875 
C 36.203125 2.875 35.796875 2.390625 29.40625 2.390625 
L 29.40625 -0.203125 
C 31.796875 0 36.203125 0 38.796875 0 
C 41.40625 0 45.90625 0 48.296875 -0.203125 
L 48.296875 2.390625 
C 41.90625 2.390625 41.5 2.78125 41.5 6.6875 
L 41.5 25.90625 
C 41.5 35.109375 47.09375 42 54.09375 42 
C 61.5 42 62.296875 35.40625 62.296875 30.59375 
L 62.296875 6.6875 
C 62.296875 2.875 61.90625 2.390625 55.5 2.390625 
L 55.5 -0.203125 
C 57.90625 0 62.296875 0 64.90625 0 
C 67.5 0 72 0 74.40625 -0.203125 
L 74.40625 2.390625 
C 68 2.390625 67.59375 2.78125 67.59375 6.6875 
z
" id="CMR17-109"/>
       <path d="M 11.09375 18.1875 
C 13 16.6875 16.296875 15 20.296875 15 
C 28.203125 15 35 21.203125 35 29.5 
C 35 32.09375 34.203125 36.09375 31.203125 39.203125 
C 34 42.0625 38.09375 43 40.40625 43 
C 40.796875 43 41.40625 43 41.90625 42.71875 
C 41.5 42.625 40.59375 42.234375 40.59375 40.703125 
C 40.59375 39.484375 41.5 38.609375 42.796875 38.609375 
C 44.296875 38.609375 45.09375 39.578125 45.09375 40.84375 
C 45.09375 42.671875 43.59375 44.59375 40.40625 44.59375 
C 36.40625 44.59375 32.90625 42.78125 30.09375 40.3125 
C 27.09375 43.015625 23.5 44 20.296875 44 
C 12.40625 44 5.59375 37.796875 5.59375 29.5 
C 5.59375 23.78125 8.90625 20.1875 9.90625 19.1875 
C 6.90625 15.6875 6.90625 11.609375 6.90625 11.109375 
C 6.90625 8.515625 7.90625 4.71875 11.296875 2.625 
C 6.09375 1.328125 2 -2.640625 2 -7.59375 
C 2 -14.734375 11.5 -20 22.90625 -20 
C 33.90625 -20 43.796875 -14.9375 43.796875 -7.484375 
C 43.796875 6 29 6 21.296875 6 
C 19 6 14.90625 6 14.40625 6.109375 
C 11.296875 6.609375 9.203125 9.40625 9.203125 12.90625 
C 9.203125 13.796875 9.203125 16 11.09375 18.1875 
z
M 20.296875 16.6875 
C 11.5 16.6875 11.5 27.5 11.5 29.515625 
C 11.5 31.5 11.5 42.3125 20.296875 42.3125 
C 29.09375 42.3125 29.09375 31.5 29.09375 29.515625 
C 29.09375 27.5 29.09375 16.6875 20.296875 16.6875 
z
M 22.90625 -18.296875 
C 12.90625 -18.296875 6 -13.046875 6 -7.59375 
C 6 -4.515625 7.703125 -1.640625 9.90625 -0.0625 
C 12.40625 1.625 13.40625 1.625 20.203125 1.625 
C 28.40625 1.625 39.796875 1.625 39.796875 -7.59375 
C 39.796875 -13.046875 32.90625 -18.296875 22.90625 -18.296875 
z
" id="CMR17-103"/>
       <path d="M 15.5 61.078125 
C 15.5 63.265625 13.703125 65.15625 11.40625 65.15625 
C 9.203125 65.15625 7.296875 63.375 7.296875 61.078125 
C 7.296875 58.890625 9.09375 57 11.40625 57 
C 13.59375 57 15.5 58.796875 15.5 61.078125 
z
M 3.796875 42.28125 
L 3.796875 39.703125 
C 9.40625 39.703125 10.203125 39.09375 10.203125 34.328125 
L 10.203125 6.671875 
C 10.203125 2.875 9.796875 2.390625 3.40625 2.390625 
L 3.40625 -0.203125 
C 5.796875 0 10.09375 0 12.59375 0 
C 15 0 19.09375 0 21.40625 -0.203125 
L 21.40625 2.390625 
C 15.5 2.390625 15.296875 2.984375 15.296875 6.5625 
L 15.296875 43.375 
z
" id="CMR17-105"/>
       <path d="M 41.5 30.203125 
C 41.5 35.296875 40.5 43.59375 28.703125 43.59375 
C 20.796875 43.59375 16.703125 37.5 15.203125 33.5 
L 15.09375 33.5 
L 15.09375 43.59375 
L 3.296875 42.5 
L 3.296875 39.90625 
C 9.203125 39.90625 10.09375 39.296875 10.09375 34.5 
L 10.09375 6.6875 
C 10.09375 2.875 9.703125 2.390625 3.296875 2.390625 
L 3.296875 -0.203125 
C 5.703125 0 10.09375 0 12.703125 0 
C 15.296875 0 19.796875 0 22.203125 -0.203125 
L 22.203125 2.390625 
C 15.796875 2.390625 15.40625 2.78125 15.40625 6.6875 
L 15.40625 25.90625 
C 15.40625 35.109375 21 42 28 42 
C 35.40625 42 36.203125 35.40625 36.203125 30.59375 
L 36.203125 6.6875 
C 36.203125 2.875 35.796875 2.390625 29.40625 2.390625 
L 29.40625 -0.203125 
C 31.796875 0 36.203125 0 38.796875 0 
C 41.40625 0 45.90625 0 48.296875 -0.203125 
L 48.296875 2.390625 
C 41.90625 2.390625 41.5 2.78125 41.5 6.6875 
z
" id="CMR17-110"/>
       <path d="M 15 23.390625 
C 15 33 19.09375 42 26.59375 42 
C 27.296875 42 28 41.90625 28.703125 41.59375 
C 28.703125 41.59375 26.5 40.890625 26.5 38.3125 
C 26.5 35.90625 28.40625 34.90625 29.90625 34.90625 
C 31.09375 34.90625 33.296875 35.609375 33.296875 38.40625 
C 33.296875 41.609375 30.09375 43.59375 26.703125 43.59375 
C 19.09375 43.59375 15.796875 36.203125 14.796875 32.703125 
L 14.703125 32.703125 
L 14.703125 43.59375 
L 3.09375 42.5 
L 3.09375 39.90625 
C 9 39.90625 9.90625 39.296875 9.90625 34.5 
L 9.90625 6.6875 
C 9.90625 2.875 9.5 2.390625 3.09375 2.390625 
L 3.09375 -0.203125 
C 5.5 0 10.09375 0 12.703125 0 
C 15.59375 0 20.703125 0 23.40625 -0.203125 
L 23.40625 2.390625 
C 16.203125 2.390625 15 2.390625 15 6.875 
z
" id="CMR17-114"/>
       <path d="M 39 34.328125 
C 41.5 40.40625 46 40.40625 47.40625 40.40625 
L 47.40625 43 
C 45.5 43 43 43 41.09375 43 
C 39 43 35.703125 43 33.703125 43.09375 
L 33.703125 40.5 
C 37.5 40.203125 37.59375 37.40625 37.59375 36.609375 
C 37.59375 35.625 37.40625 35.125 36.90625 33.921875 
L 26 7.015625 
L 14.09375 36.03125 
C 13.59375 37.21875 13.59375 37.90625 13.59375 38.015625 
C 13.59375 40.203125 15.90625 40.40625 18.296875 40.40625 
L 18.296875 43.09375 
C 15.90625 43 11.59375 43 9.09375 43 
C 6.40625 43 3.203125 43 1 43.09375 
L 1 40.40625 
C 6.40625 40.40625 7 39.90625 8.296875 36.71875 
L 23.203125 0.234375 
C 18.703125 -11.53125 16.09375 -18.40625 9.796875 -18.40625 
C 8.703125 -18.40625 6.203125 -18.109375 4.40625 -16.3125 
C 6.703125 -16.109375 7.703125 -14.71875 7.703125 -13.015625 
C 7.703125 -11.328125 6.5 -9.828125 4.5 -9.828125 
C 2.296875 -9.828125 1.203125 -11.328125 1.203125 -13.125 
C 1.203125 -17.109375 5.296875 -20 9.796875 -20 
C 15.59375 -20 19.203125 -14.40625 21.203125 -9.4375 
z
" id="CMR17-121"/>
      </defs>
      <use transform="scale(0.996264)" xlink:href="#CMR17-73"/>
      <use transform="translate(32.638409 0)scale(0.996264)" xlink:href="#CMR17-109"/>
      <use transform="translate(109.557999 0)scale(0.996264)" xlink:href="#CMR17-97"/>
      <use transform="translate(155.248476 0)scale(0.996264)" xlink:href="#CMR17-103"/>
      <use transform="translate(200.938953 0)scale(0.996264)" xlink:href="#CMR17-105"/>
      <use transform="translate(225.810012 0)scale(0.996264)" xlink:href="#CMR17-110"/>
      <use transform="translate(276.705382 0)scale(0.996264)" xlink:href="#CMR17-97"/>
      <use transform="translate(322.395859 0)scale(0.996264)" xlink:href="#CMR17-114"/>
      <use transform="translate(357.676626 0)scale(0.996264)" xlink:href="#CMR17-121"/>
     </g>
    </g>
    <g id="text_38">
     <!-- $\times\mathdefault{10^{−18}}\mathdefault{}$ -->
     <g transform="translate(92.457146 314.057736)scale(0.16 -0.16)">
      <defs>
       <path d="M 38.90625 27.890625 
L 18.90625 47.796875 
C 17.703125 49 17.5 49.1875 16.703125 49.1875 
C 15.703125 49.1875 14.703125 48.296875 14.703125 47.1875 
C 14.703125 46.5 14.90625 46.296875 16 45.1875 
L 36 25.09375 
L 16 5 
C 14.90625 3.890625 14.703125 3.6875 14.703125 3 
C 14.703125 1.890625 15.703125 1 16.703125 1 
C 17.5 1 17.703125 1.1875 18.90625 2.390625 
L 38.796875 22.296875 
L 59.5 1.59375 
C 59.703125 1.5 60.40625 1 61 1 
C 62.203125 1 63 1.890625 63 3 
C 63 3.1875 63 3.59375 62.703125 4.09375 
C 62.59375 4.296875 46.703125 20 41.703125 25.09375 
L 60 43.390625 
C 60.5 44 62 45.296875 62.5 45.890625 
C 62.59375 46.09375 63 46.5 63 47.1875 
C 63 48.296875 62.203125 49.1875 61 49.1875 
C 60.203125 49.1875 59.796875 48.796875 58.703125 47.6875 
z
" id="CMSY10-2"/>
       <path d="M 27.203125 35.375 
C 33.5 38.546875 39.90625 43.328125 39.90625 50.984375 
C 39.90625 60.015625 31.09375 65.296875 23 65.296875 
C 13.90625 65.296875 5.90625 58.734375 5.90625 49.6875 
C 5.90625 47.203125 6.5 42.921875 10.40625 39.140625 
C 11.40625 38.15625 15.59375 35.171875 18.296875 33.28125 
C 13.796875 30.984375 3.296875 25.53125 3.296875 14.59375 
C 3.296875 4.359375 13.09375 -2 22.796875 -2 
C 33.5 -2 42.5 5.65625 42.5 15.78125 
C 42.5 24.84375 36.40625 29.015625 32.40625 31.703125 
z
M 14.09375 44.09375 
C 13.296875 44.59375 9.296875 47.671875 9.296875 52.359375 
C 9.296875 58.421875 15.59375 63 22.796875 63 
C 30.703125 63 36.5 57.4375 36.5 50.96875 
C 36.5 41.703125 26.09375 36.421875 25.59375 36.421875 
C 25.5 36.421875 25.40625 36.421875 24.59375 37.03125 
z
M 32.5 23.734375 
C 34 22.640625 38.796875 19.375 38.796875 13.296875 
C 38.796875 5.953125 31.40625 0.390625 23 0.390625 
C 13.90625 0.390625 7 6.84375 7 14.6875 
C 7 22.546875 13.09375 29.09375 20 32.1875 
z
" id="CMR17-56"/>
      </defs>
      <use transform="scale(0.996264)" xlink:href="#CMSY10-2"/>
      <use transform="translate(77.487468 0)scale(0.996264)" xlink:href="#CMR17-49"/>
      <use transform="translate(123.177945 0)scale(0.996264)" xlink:href="#CMR17-48"/>
      <use transform="translate(168.868422 36.153639)scale(0.697382)" xlink:href="#CMSY10-0"/>
      <use transform="translate(223.109415 36.153639)scale(0.697382)" xlink:href="#CMR17-49"/>
      <use transform="translate(255.092597 36.153639)scale(0.697382)" xlink:href="#CMR17-56"/>
     </g>
    </g>
   </g>
   <g id="LineCollection_4">
    <path clip-path="url(#p0a950a070a)" d="M 103.688234 420.398665 
L 103.688234 368.214036 
" style="fill:none;stroke:#ff0000;stroke-width:2;"/>
    <path clip-path="url(#p0a950a070a)" d="M 110.934098 505.841245 
L 110.934098 424.622825 
" style="fill:none;stroke:#ff0000;stroke-width:2;"/>
    <path clip-path="url(#p0a950a070a)" d="M 118.179961 378.688532 
L 118.179961 326.047427 
" style="fill:none;stroke:#ff0000;stroke-width:2;"/>
    <path clip-path="url(#p0a950a070a)" d="M 125.425825 430.175754 
L 125.425825 395.398 
" style="fill:none;stroke:#ff0000;stroke-width:2;"/>
    <path clip-path="url(#p0a950a070a)" d="M 132.671688 462.328026 
L 132.671688 432.084148 
" style="fill:none;stroke:#ff0000;stroke-width:2;"/>
    <path clip-path="url(#p0a950a070a)" d="M 139.917552 407.496036 
L 139.917552 389.927233 
" style="fill:none;stroke:#ff0000;stroke-width:2;"/>
    <path clip-path="url(#p0a950a070a)" d="M 147.163416 413.178222 
L 147.163416 399.031218 
" style="fill:none;stroke:#ff0000;stroke-width:2;"/>
    <path clip-path="url(#p0a950a070a)" d="M 154.409279 409.809818 
L 154.409279 398.926221 
" style="fill:none;stroke:#ff0000;stroke-width:2;"/>
    <path clip-path="url(#p0a950a070a)" d="M 161.655143 410.493023 
L 161.655143 403.084533 
" style="fill:none;stroke:#ff0000;stroke-width:2;"/>
    <path clip-path="url(#p0a950a070a)" d="M 168.901006 411.228702 
L 168.901006 405.971128 
" style="fill:none;stroke:#ff0000;stroke-width:2;"/>
    <path clip-path="url(#p0a950a070a)" d="M 176.14687 412.613807 
L 176.14687 407.886909 
" style="fill:none;stroke:#ff0000;stroke-width:2;"/>
    <path clip-path="url(#p0a950a070a)" d="M 183.392733 407.909497 
L 183.392733 404.872814 
" style="fill:none;stroke:#ff0000;stroke-width:2;"/>
    <path clip-path="url(#p0a950a070a)" d="M 190.638597 408.433275 
L 190.638597 405.723165 
" style="fill:none;stroke:#ff0000;stroke-width:2;"/>
    <path clip-path="url(#p0a950a070a)" d="M 197.884461 406.466008 
L 197.884461 404.609308 
" style="fill:none;stroke:#ff0000;stroke-width:2;"/>
    <path clip-path="url(#p0a950a070a)" d="M 205.130324 406.678551 
L 205.130324 405.154621 
" style="fill:none;stroke:#ff0000;stroke-width:2;"/>
    <path clip-path="url(#p0a950a070a)" d="M 212.376188 408.267507 
L 212.376188 406.745288 
" style="fill:none;stroke:#ff0000;stroke-width:2;"/>
    <path clip-path="url(#p0a950a070a)" d="M 219.622051 407.075063 
L 219.622051 405.995851 
" style="fill:none;stroke:#ff0000;stroke-width:2;"/>
    <path clip-path="url(#p0a950a070a)" d="M 226.867915 406.91578 
L 226.867915 405.562246 
" style="fill:none;stroke:#ff0000;stroke-width:2;"/>
    <path clip-path="url(#p0a950a070a)" d="M 234.113778 406.687357 
L 234.113778 404.830738 
" style="fill:none;stroke:#ff0000;stroke-width:2;"/>
    <path clip-path="url(#p0a950a070a)" d="M 241.359642 408.069842 
L 241.359642 405.594884 
" style="fill:none;stroke:#ff0000;stroke-width:2;"/>
    <path clip-path="url(#p0a950a070a)" d="M 248.605506 406.206444 
L 248.605506 403.60973 
" style="fill:none;stroke:#ff0000;stroke-width:2;"/>
    <path clip-path="url(#p0a950a070a)" d="M 255.851369 407.899294 
L 255.851369 404.524982 
" style="fill:none;stroke:#ff0000;stroke-width:2;"/>
    <path clip-path="url(#p0a950a070a)" d="M 263.097233 405.150196 
L 263.097233 399.907745 
" style="fill:none;stroke:#ff0000;stroke-width:2;"/>
    <path clip-path="url(#p0a950a070a)" d="M 270.343096 410.152859 
L 270.343096 403.706427 
" style="fill:none;stroke:#ff0000;stroke-width:2;"/>
    <path clip-path="url(#p0a950a070a)" d="M 277.58896 407.909874 
L 277.58896 400.295271 
" style="fill:none;stroke:#ff0000;stroke-width:2;"/>
    <path clip-path="url(#p0a950a070a)" d="M 284.834823 411.705204 
L 284.834823 399.912969 
" style="fill:none;stroke:#ff0000;stroke-width:2;"/>
    <path clip-path="url(#p0a950a070a)" d="M 292.080687 418.559562 
L 292.080687 405.488313 
" style="fill:none;stroke:#ff0000;stroke-width:2;"/>
    <path clip-path="url(#p0a950a070a)" d="M 299.326551 416.122998 
L 299.326551 397.546174 
" style="fill:none;stroke:#ff0000;stroke-width:2;"/>
    <path clip-path="url(#p0a950a070a)" d="M 306.572414 424.235501 
L 306.572414 398.849807 
" style="fill:none;stroke:#ff0000;stroke-width:2;"/>
    <path clip-path="url(#p0a950a070a)" d="M 313.818278 457.604685 
L 313.818278 423.141757 
" style="fill:none;stroke:#ff0000;stroke-width:2;"/>
    <path clip-path="url(#p0a950a070a)" d="M 321.064141 462.472612 
L 321.064141 406.810003 
" style="fill:none;stroke:#ff0000;stroke-width:2;"/>
    <path clip-path="url(#p0a950a070a)" d="M 328.310005 459.257013 
L 328.310005 370.13194 
" style="fill:none;stroke:#ff0000;stroke-width:2;"/>
   </g>
   <g id="line2d_36">
    <path clip-path="url(#p0a950a070a)" d="M 103.688234 394.306351 
L 110.934098 465.232035 
L 118.179961 352.367979 
L 125.425825 412.786877 
L 132.671688 447.206087 
L 139.917552 398.711634 
L 147.163416 406.10472 
L 154.409279 404.368019 
L 161.655143 406.788778 
L 168.901006 408.599915 
L 176.14687 410.250358 
L 183.392733 406.391156 
L 190.638597 407.07822 
L 197.884461 405.537658 
L 205.130324 405.916586 
L 212.376188 407.506398 
L 219.622051 406.535457 
L 226.867915 406.239013 
L 234.113778 405.759048 
L 241.359642 406.832363 
L 248.605506 404.908087 
L 255.851369 406.212138 
L 263.097233 402.528971 
L 270.343096 406.929643 
L 277.58896 404.102572 
L 284.834823 405.809086 
L 292.080687 412.023938 
L 299.326551 406.834586 
L 306.572414 411.542654 
L 313.818278 440.373221 
L 321.064141 434.641308 
L 328.310005 414.694477 
" style="fill:none;stroke:#000000;stroke-linecap:square;stroke-width:2;"/>
   </g>
   <g id="patch_18">
    <path d="M 92.457146 514.830936 
L 92.457146 317.057736 
" style="fill:none;stroke:#000000;stroke-linecap:square;stroke-linejoin:miter;stroke-width:0.8;"/>
   </g>
   <g id="patch_19">
    <path d="M 339.541093 514.830936 
L 339.541093 317.057736 
" style="fill:none;stroke:#000000;stroke-linecap:square;stroke-linejoin:miter;stroke-width:0.8;"/>
   </g>
   <g id="patch_20">
    <path d="M 92.457146 514.830936 
L 339.541093 514.830936 
" style="fill:none;stroke:#000000;stroke-linecap:square;stroke-linejoin:miter;stroke-width:0.8;"/>
   </g>
   <g id="patch_21">
    <path d="M 92.457146 317.057736 
L 339.541093 317.057736 
" style="fill:none;stroke:#000000;stroke-linecap:square;stroke-linejoin:miter;stroke-width:0.8;"/>
   </g>
  </g>
  <g id="axes_5">
   <g id="patch_22">
    <path d="M 406.686599 514.830936 
L 653.770547 514.830936 
L 653.770547 317.057736 
L 406.686599 317.057736 
z
" style="fill:#ffffff;"/>
   </g>
   <g id="matplotlib.axis_9">
    <g id="xtick_17">
     <g id="line2d_37">
      <g>
       <use style="stroke:#000000;stroke-width:0.8;" x="417.917687" xlink:href="#mde1bb2d2da" y="514.830936"/>
      </g>
     </g>
     <g id="text_39">
      <!-- $\mathdefault{0}$ -->
      <g transform="translate(414.015694 532.900524)scale(0.16 -0.16)">
       <use transform="scale(0.996264)" xlink:href="#CMR17-48"/>
      </g>
     </g>
    </g>
    <g id="xtick_18">
     <g id="line2d_38">
      <g>
       <use style="stroke:#000000;stroke-width:0.8;" x="488.111991" xlink:href="#mde1bb2d2da" y="514.830936"/>
      </g>
     </g>
     <g id="text_40">
      <!-- $\mathdefault{5}$ -->
      <g transform="translate(484.209997 532.900524)scale(0.16 -0.16)">
       <use transform="scale(0.996264)" xlink:href="#CMR17-53"/>
      </g>
     </g>
    </g>
    <g id="xtick_19">
     <g id="line2d_39">
      <g>
       <use style="stroke:#000000;stroke-width:0.8;" x="558.306294" xlink:href="#mde1bb2d2da" y="514.830936"/>
      </g>
     </g>
     <g id="text_41">
      <!-- $\mathdefault{10}$ -->
      <g transform="translate(550.502307 532.900524)scale(0.16 -0.16)">
       <use transform="scale(0.996264)" xlink:href="#CMR17-49"/>
       <use transform="translate(45.690477 0)scale(0.996264)" xlink:href="#CMR17-48"/>
      </g>
     </g>
    </g>
    <g id="xtick_20">
     <g id="line2d_40">
      <g>
       <use style="stroke:#000000;stroke-width:0.8;" x="628.500598" xlink:href="#mde1bb2d2da" y="514.830936"/>
      </g>
     </g>
     <g id="text_42">
      <!-- $\mathdefault{15}$ -->
      <g transform="translate(620.696611 532.900524)scale(0.16 -0.16)">
       <use transform="scale(0.996264)" xlink:href="#CMR17-49"/>
       <use transform="translate(45.690477 0)scale(0.996264)" xlink:href="#CMR17-53"/>
      </g>
     </g>
    </g>
   </g>
   <g id="matplotlib.axis_10">
    <g id="ytick_17">
     <g id="line2d_41">
      <g>
       <use style="stroke:#000000;stroke-width:0.8;" x="406.686599" xlink:href="#m5c03059ad0" y="502.913314"/>
      </g>
     </g>
     <g id="text_43">
      <!-- $\mathdefault{−3}$ -->
      <g transform="translate(379.484616 508.448108)scale(0.16 -0.16)">
       <use transform="scale(0.996264)" xlink:href="#CMSY10-0"/>
       <use transform="translate(77.487468 0)scale(0.996264)" xlink:href="#CMR17-51"/>
      </g>
     </g>
    </g>
    <g id="ytick_18">
     <g id="line2d_42">
      <g>
       <use style="stroke:#000000;stroke-width:0.8;" x="406.686599" xlink:href="#m5c03059ad0" y="465.698563"/>
      </g>
     </g>
     <g id="text_44">
      <!-- $\mathdefault{−2}$ -->
      <g transform="translate(379.484616 471.233358)scale(0.16 -0.16)">
       <use transform="scale(0.996264)" xlink:href="#CMSY10-0"/>
       <use transform="translate(77.487468 0)scale(0.996264)" xlink:href="#CMR17-50"/>
      </g>
     </g>
    </g>
    <g id="ytick_19">
     <g id="line2d_43">
      <g>
       <use style="stroke:#000000;stroke-width:0.8;" x="406.686599" xlink:href="#m5c03059ad0" y="428.483813"/>
      </g>
     </g>
     <g id="text_45">
      <!-- $\mathdefault{−1}$ -->
      <g transform="translate(379.484616 434.018607)scale(0.16 -0.16)">
       <use transform="scale(0.996264)" xlink:href="#CMSY10-0"/>
       <use transform="translate(77.487468 0)scale(0.996264)" xlink:href="#CMR17-49"/>
      </g>
     </g>
    </g>
    <g id="ytick_20">
     <g id="line2d_44">
      <g>
       <use style="stroke:#000000;stroke-width:0.8;" x="406.686599" xlink:href="#m5c03059ad0" y="391.269062"/>
      </g>
     </g>
     <g id="text_46">
      <!-- $\mathdefault{0}$ -->
      <g transform="translate(391.882612 396.803856)scale(0.16 -0.16)">
       <use transform="scale(0.996264)" xlink:href="#CMR17-48"/>
      </g>
     </g>
    </g>
    <g id="ytick_21">
     <g id="line2d_45">
      <g>
       <use style="stroke:#000000;stroke-width:0.8;" x="406.686599" xlink:href="#m5c03059ad0" y="354.054311"/>
      </g>
     </g>
     <g id="text_47">
      <!-- $\mathdefault{1}$ -->
      <g transform="translate(391.882612 359.589105)scale(0.16 -0.16)">
       <use transform="scale(0.996264)" xlink:href="#CMR17-49"/>
      </g>
     </g>
    </g>
    <g id="text_48">
     <!-- $\times\mathdefault{10^{−18}}\mathdefault{}$ -->
     <g transform="translate(406.686599 314.057736)scale(0.16 -0.16)">
      <use transform="scale(0.996264)" xlink:href="#CMSY10-2"/>
      <use transform="translate(77.487468 0)scale(0.996264)" xlink:href="#CMR17-49"/>
      <use transform="translate(123.177945 0)scale(0.996264)" xlink:href="#CMR17-48"/>
      <use transform="translate(168.868422 36.153639)scale(0.697382)" xlink:href="#CMSY10-0"/>
      <use transform="translate(223.109415 36.153639)scale(0.697382)" xlink:href="#CMR17-49"/>
      <use transform="translate(255.092597 36.153639)scale(0.697382)" xlink:href="#CMR17-56"/>
     </g>
    </g>
   </g>
   <g id="LineCollection_5">
    <path clip-path="url(#p1347fa8890)" d="M 417.917687 415.505574 
L 417.917687 326.047427 
" style="fill:none;stroke:#ff0000;stroke-width:2;"/>
    <path clip-path="url(#p1347fa8890)" d="M 431.956548 505.841245 
L 431.956548 392.247586 
" style="fill:none;stroke:#ff0000;stroke-width:2;"/>
    <path clip-path="url(#p1347fa8890)" d="M 445.995409 401.556931 
L 445.995409 337.247397 
" style="fill:none;stroke:#ff0000;stroke-width:2;"/>
    <path clip-path="url(#p1347fa8890)" d="M 460.034269 447.290971 
L 460.034269 404.913205 
" style="fill:none;stroke:#ff0000;stroke-width:2;"/>
    <path clip-path="url(#p1347fa8890)" d="M 474.07313 448.454406 
L 474.07313 413.330169 
" style="fill:none;stroke:#ff0000;stroke-width:2;"/>
    <path clip-path="url(#p1347fa8890)" d="M 488.111991 396.87911 
L 488.111991 373.702387 
" style="fill:none;stroke:#ff0000;stroke-width:2;"/>
    <path clip-path="url(#p1347fa8890)" d="M 502.150851 404.608463 
L 502.150851 387.542633 
" style="fill:none;stroke:#ff0000;stroke-width:2;"/>
    <path clip-path="url(#p1347fa8890)" d="M 516.189712 396.04895 
L 516.189712 382.471098 
" style="fill:none;stroke:#ff0000;stroke-width:2;"/>
    <path clip-path="url(#p1347fa8890)" d="M 530.228573 394.417861 
L 530.228573 385.32659 
" style="fill:none;stroke:#ff0000;stroke-width:2;"/>
    <path clip-path="url(#p1347fa8890)" d="M 544.267433 397.352524 
L 544.267433 390.343032 
" style="fill:none;stroke:#ff0000;stroke-width:2;"/>
    <path clip-path="url(#p1347fa8890)" d="M 558.306294 394.562073 
L 558.306294 388.418869 
" style="fill:none;stroke:#ff0000;stroke-width:2;"/>
    <path clip-path="url(#p1347fa8890)" d="M 572.345155 393.359697 
L 572.345155 389.319475 
" style="fill:none;stroke:#ff0000;stroke-width:2;"/>
    <path clip-path="url(#p1347fa8890)" d="M 586.384015 392.502753 
L 586.384015 389.118741 
" style="fill:none;stroke:#ff0000;stroke-width:2;"/>
    <path clip-path="url(#p1347fa8890)" d="M 600.422876 392.477427 
L 600.422876 389.801854 
" style="fill:none;stroke:#ff0000;stroke-width:2;"/>
    <path clip-path="url(#p1347fa8890)" d="M 614.461737 391.512216 
L 614.461737 389.576702 
" style="fill:none;stroke:#ff0000;stroke-width:2;"/>
    <path clip-path="url(#p1347fa8890)" d="M 628.500598 393.157826 
L 628.500598 391.479233 
" style="fill:none;stroke:#ff0000;stroke-width:2;"/>
    <path clip-path="url(#p1347fa8890)" d="M 642.539458 392.665424 
L 642.539458 390.815372 
" style="fill:none;stroke:#ff0000;stroke-width:2;"/>
   </g>
   <g id="line2d_46">
    <path clip-path="url(#p1347fa8890)" d="M 417.917687 370.776501 
L 431.956548 449.044415 
L 445.995409 369.402164 
L 460.034269 426.102088 
L 474.07313 430.892288 
L 488.111991 385.290748 
L 502.150851 396.075548 
L 516.189712 389.260024 
L 530.228573 389.872225 
L 544.267433 393.847778 
L 558.306294 391.490471 
L 572.345155 391.339586 
L 586.384015 390.810747 
L 600.422876 391.13964 
L 614.461737 390.544459 
L 628.500598 392.31853 
L 642.539458 391.740398 
" style="fill:none;stroke:#000000;stroke-linecap:square;stroke-width:2;"/>
   </g>
   <g id="patch_23">
    <path d="M 406.686599 514.830936 
L 406.686599 317.057736 
" style="fill:none;stroke:#000000;stroke-linecap:square;stroke-linejoin:miter;stroke-width:0.8;"/>
   </g>
   <g id="patch_24">
    <path d="M 653.770547 514.830936 
L 653.770547 317.057736 
" style="fill:none;stroke:#000000;stroke-linecap:square;stroke-linejoin:miter;stroke-width:0.8;"/>
   </g>
   <g id="patch_25">
    <path d="M 406.686599 514.830936 
L 653.770547 514.830936 
" style="fill:none;stroke:#000000;stroke-linecap:square;stroke-linejoin:miter;stroke-width:0.8;"/>
   </g>
   <g id="patch_26">
    <path d="M 406.686599 317.057736 
L 653.770547 317.057736 
" style="fill:none;stroke:#000000;stroke-linecap:square;stroke-linejoin:miter;stroke-width:0.8;"/>
   </g>
  </g>
  <g id="axes_6">
   <g id="patch_27">
    <path d="M 720.916052 514.830936 
L 968 514.830936 
L 968 317.057736 
L 720.916052 317.057736 
z
" style="fill:#ffffff;"/>
   </g>
   <g id="matplotlib.axis_11">
    <g id="xtick_21">
     <g id="line2d_47">
      <g>
       <use style="stroke:#000000;stroke-width:0.8;" x="732.147141" xlink:href="#mde1bb2d2da" y="514.830936"/>
      </g>
     </g>
     <g id="text_49">
      <!-- $\mathdefault{0}$ -->
      <g transform="translate(728.245147 532.900524)scale(0.16 -0.16)">
       <use transform="scale(0.996264)" xlink:href="#CMR17-48"/>
      </g>
     </g>
    </g>
    <g id="xtick_22">
     <g id="line2d_48">
      <g>
       <use style="stroke:#000000;stroke-width:0.8;" x="802.341444" xlink:href="#mde1bb2d2da" y="514.830936"/>
      </g>
     </g>
     <g id="text_50">
      <!-- $\mathdefault{5}$ -->
      <g transform="translate(798.439451 532.900524)scale(0.16 -0.16)">
       <use transform="scale(0.996264)" xlink:href="#CMR17-53"/>
      </g>
     </g>
    </g>
    <g id="xtick_23">
     <g id="line2d_49">
      <g>
       <use style="stroke:#000000;stroke-width:0.8;" x="872.535747" xlink:href="#mde1bb2d2da" y="514.830936"/>
      </g>
     </g>
     <g id="text_51">
      <!-- $\mathdefault{10}$ -->
      <g transform="translate(864.73176 532.900524)scale(0.16 -0.16)">
       <use transform="scale(0.996264)" xlink:href="#CMR17-49"/>
       <use transform="translate(45.690477 0)scale(0.996264)" xlink:href="#CMR17-48"/>
      </g>
     </g>
    </g>
    <g id="xtick_24">
     <g id="line2d_50">
      <g>
       <use style="stroke:#000000;stroke-width:0.8;" x="942.730051" xlink:href="#mde1bb2d2da" y="514.830936"/>
      </g>
     </g>
     <g id="text_52">
      <!-- $\mathdefault{15}$ -->
      <g transform="translate(934.926064 532.900524)scale(0.16 -0.16)">
       <use transform="scale(0.996264)" xlink:href="#CMR17-49"/>
       <use transform="translate(45.690477 0)scale(0.996264)" xlink:href="#CMR17-53"/>
      </g>
     </g>
    </g>
   </g>
   <g id="matplotlib.axis_12">
    <g id="ytick_22">
     <g id="line2d_51">
      <g>
       <use style="stroke:#000000;stroke-width:0.8;" x="720.916052" xlink:href="#m5c03059ad0" y="492.004597"/>
      </g>
     </g>
     <g id="text_53">
      <!-- $\mathdefault{−2}$ -->
      <g transform="translate(693.714069 497.539392)scale(0.16 -0.16)">
       <use transform="scale(0.996264)" xlink:href="#CMSY10-0"/>
       <use transform="translate(77.487468 0)scale(0.996264)" xlink:href="#CMR17-50"/>
      </g>
     </g>
    </g>
    <g id="ytick_23">
     <g id="line2d_52">
      <g>
       <use style="stroke:#000000;stroke-width:0.8;" x="720.916052" xlink:href="#m5c03059ad0" y="457.394505"/>
      </g>
     </g>
     <g id="text_54">
      <!-- $\mathdefault{−1}$ -->
      <g transform="translate(693.714069 462.929299)scale(0.16 -0.16)">
       <use transform="scale(0.996264)" xlink:href="#CMSY10-0"/>
       <use transform="translate(77.487468 0)scale(0.996264)" xlink:href="#CMR17-49"/>
      </g>
     </g>
    </g>
    <g id="ytick_24">
     <g id="line2d_53">
      <g>
       <use style="stroke:#000000;stroke-width:0.8;" x="720.916052" xlink:href="#m5c03059ad0" y="422.784412"/>
      </g>
     </g>
     <g id="text_55">
      <!-- $\mathdefault{0}$ -->
      <g transform="translate(706.112065 428.319206)scale(0.16 -0.16)">
       <use transform="scale(0.996264)" xlink:href="#CMR17-48"/>
      </g>
     </g>
    </g>
    <g id="ytick_25">
     <g id="line2d_54">
      <g>
       <use style="stroke:#000000;stroke-width:0.8;" x="720.916052" xlink:href="#m5c03059ad0" y="388.174319"/>
      </g>
     </g>
     <g id="text_56">
      <!-- $\mathdefault{1}$ -->
      <g transform="translate(706.112065 393.709113)scale(0.16 -0.16)">
       <use transform="scale(0.996264)" xlink:href="#CMR17-49"/>
      </g>
     </g>
    </g>
    <g id="ytick_26">
     <g id="line2d_55">
      <g>
       <use style="stroke:#000000;stroke-width:0.8;" x="720.916052" xlink:href="#m5c03059ad0" y="353.564226"/>
      </g>
     </g>
     <g id="text_57">
      <!-- $\mathdefault{2}$ -->
      <g transform="translate(706.112065 359.09902)scale(0.16 -0.16)">
       <use transform="scale(0.996264)" xlink:href="#CMR17-50"/>
      </g>
     </g>
    </g>
    <g id="ytick_27">
     <g id="line2d_56">
      <g>
       <use style="stroke:#000000;stroke-width:0.8;" x="720.916052" xlink:href="#m5c03059ad0" y="318.954133"/>
      </g>
     </g>
     <g id="text_58">
      <!-- $\mathdefault{3}$ -->
      <g transform="translate(706.112065 324.488927)scale(0.16 -0.16)">
       <use transform="scale(0.996264)" xlink:href="#CMR17-51"/>
      </g>
     </g>
    </g>
    <g id="text_59">
     <!-- $\times\mathdefault{10^{−18}}\mathdefault{}$ -->
     <g transform="translate(720.916052 314.057736)scale(0.16 -0.16)">
      <use transform="scale(0.996264)" xlink:href="#CMSY10-2"/>
      <use transform="translate(77.487468 0)scale(0.996264)" xlink:href="#CMR17-49"/>
      <use transform="translate(123.177945 0)scale(0.996264)" xlink:href="#CMR17-48"/>
      <use transform="translate(168.868422 36.153639)scale(0.697382)" xlink:href="#CMSY10-0"/>
      <use transform="translate(223.109415 36.153639)scale(0.697382)" xlink:href="#CMR17-49"/>
      <use transform="translate(255.092597 36.153639)scale(0.697382)" xlink:href="#CMR17-56"/>
     </g>
    </g>
   </g>
   <g id="LineCollection_6">
    <path clip-path="url(#p0e59c86737)" d="M 732.147141 422.784412 
L 732.147141 422.784412 
" style="fill:none;stroke:#ff0000;stroke-width:2;"/>
    <path clip-path="url(#p0e59c86737)" d="M 746.186001 505.841245 
L 746.186001 420.298661 
" style="fill:none;stroke:#ff0000;stroke-width:2;"/>
    <path clip-path="url(#p0e59c86737)" d="M 760.224862 388.35457 
L 760.224862 326.047427 
" style="fill:none;stroke:#ff0000;stroke-width:2;"/>
    <path clip-path="url(#p0e59c86737)" d="M 774.263723 420.115296 
L 774.263723 381.473135 
" style="fill:none;stroke:#ff0000;stroke-width:2;"/>
    <path clip-path="url(#p0e59c86737)" d="M 788.302583 466.332539 
L 788.302583 436.093827 
" style="fill:none;stroke:#ff0000;stroke-width:2;"/>
    <path clip-path="url(#p0e59c86737)" d="M 802.341444 425.878015 
L 802.341444 406.740538 
" style="fill:none;stroke:#ff0000;stroke-width:2;"/>
    <path clip-path="url(#p0e59c86737)" d="M 816.380305 425.475151 
L 816.380305 410.656775 
" style="fill:none;stroke:#ff0000;stroke-width:2;"/>
    <path clip-path="url(#p0e59c86737)" d="M 830.419165 428.112665 
L 830.419165 415.158692 
" style="fill:none;stroke:#ff0000;stroke-width:2;"/>
    <path clip-path="url(#p0e59c86737)" d="M 844.458026 429.166964 
L 844.458026 420.684426 
" style="fill:none;stroke:#ff0000;stroke-width:2;"/>
    <path clip-path="url(#p0e59c86737)" d="M 858.496887 427.48654 
L 858.496887 420.745167 
" style="fill:none;stroke:#ff0000;stroke-width:2;"/>
    <path clip-path="url(#p0e59c86737)" d="M 872.535747 431.709017 
L 872.535747 426.169869 
" style="fill:none;stroke:#ff0000;stroke-width:2;"/>
    <path clip-path="url(#p0e59c86737)" d="M 886.574608 424.664272 
L 886.574608 421.189956 
" style="fill:none;stroke:#ff0000;stroke-width:2;"/>
    <path clip-path="url(#p0e59c86737)" d="M 900.613469 425.928422 
L 900.613469 423.100203 
" style="fill:none;stroke:#ff0000;stroke-width:2;"/>
    <path clip-path="url(#p0e59c86737)" d="M 914.652329 422.974438 
L 914.652329 420.530261 
" style="fill:none;stroke:#ff0000;stroke-width:2;"/>
    <path clip-path="url(#p0e59c86737)" d="M 928.69119 423.921421 
L 928.69119 421.898563 
" style="fill:none;stroke:#ff0000;stroke-width:2;"/>
    <path clip-path="url(#p0e59c86737)" d="M 942.730051 424.63672 
L 942.730051 422.952671 
" style="fill:none;stroke:#ff0000;stroke-width:2;"/>
    <path clip-path="url(#p0e59c86737)" d="M 956.768911 422.784412 
L 956.768911 422.784412 
" style="fill:none;stroke:#ff0000;stroke-width:2;"/>
   </g>
   <g id="line2d_57">
    <path clip-path="url(#p0e59c86737)" d="M 732.147141 422.784412 
L 746.186001 463.069953 
L 760.224862 357.200998 
L 774.263723 400.794216 
L 788.302583 451.213183 
L 802.341444 416.309276 
L 816.380305 418.065963 
L 830.419165 421.635678 
L 844.458026 424.925695 
L 858.496887 424.115853 
L 872.535747 428.939443 
L 886.574608 422.927114 
L 900.613469 424.514313 
L 914.652329 421.75235 
L 928.69119 422.909992 
L 942.730051 423.794696 
L 956.768911 422.784412 
" style="fill:none;stroke:#000000;stroke-linecap:square;stroke-width:2;"/>
   </g>
   <g id="patch_28">
    <path d="M 720.916052 514.830936 
L 720.916052 317.057736 
" style="fill:none;stroke:#000000;stroke-linecap:square;stroke-linejoin:miter;stroke-width:0.8;"/>
   </g>
   <g id="patch_29">
    <path d="M 968 514.830936 
L 968 317.057736 
" style="fill:none;stroke:#000000;stroke-linecap:square;stroke-linejoin:miter;stroke-width:0.8;"/>
   </g>
   <g id="patch_30">
    <path d="M 720.916052 514.830936 
L 968 514.830936 
" style="fill:none;stroke:#000000;stroke-linecap:square;stroke-linejoin:miter;stroke-width:0.8;"/>
   </g>
   <g id="patch_31">
    <path d="M 720.916052 317.057736 
L 968 317.057736 
" style="fill:none;stroke:#000000;stroke-linecap:square;stroke-linejoin:miter;stroke-width:0.8;"/>
   </g>
  </g>
 </g>
 <defs>
  <clipPath id="p7b993cdfdc">
   <rect height="197.773199" width="247.083948" x="92.457146" y="63.911226"/>
  </clipPath>
  <clipPath id="p8ee85e2df6">
   <rect height="197.773199" width="247.083948" x="406.686599" y="63.911226"/>
  </clipPath>
  <clipPath id="p69cac90b98">
   <rect height="197.773199" width="247.083948" x="720.916052" y="63.911226"/>
  </clipPath>
  <clipPath id="p0a950a070a">
   <rect height="197.773199" width="247.083948" x="92.457146" y="317.057736"/>
  </clipPath>
  <clipPath id="p1347fa8890">
   <rect height="197.773199" width="247.083948" x="406.686599" y="317.057736"/>
  </clipPath>
  <clipPath id="p0e59c86737">
   <rect height="197.773199" width="247.083948" x="720.916052" y="317.057736"/>
  </clipPath>
 </defs>
</svg>
