<?xml version="1.0" encoding="utf-8" standalone="no"?>
<!DOCTYPE svg PUBLIC "-//W3C//DTD SVG 1.1//EN"
  "http://www.w3.org/Graphics/SVG/1.1/DTD/svg11.dtd">
<!-- Created with matplotlib (https://matplotlib.org/) -->
<svg height="504pt" version="1.1" viewBox="0 0 576 504" width="576pt" xmlns="http://www.w3.org/2000/svg" xmlns:xlink="http://www.w3.org/1999/xlink">
 <metadata>
  <rdf:RDF xmlns:cc="http://creativecommons.org/ns#" xmlns:dc="http://purl.org/dc/elements/1.1/" xmlns:rdf="http://www.w3.org/1999/02/22-rdf-syntax-ns#">
   <cc:Work>
    <dc:type rdf:resource="http://purl.org/dc/dcmitype/StillImage"/>
    <dc:date>2023-01-25T11:51:47.495930</dc:date>
    <dc:format>image/svg+xml</dc:format>
    <dc:creator>
     <cc:Agent>
      <dc:title>Matplotlib v3.3.4, https://matplotlib.org/</dc:title>
     </cc:Agent>
    </dc:creator>
   </cc:Work>
  </rdf:RDF>
 </metadata>
 <defs>
  <style type="text/css">*{stroke-linecap:butt;stroke-linejoin:round;}</style>
 </defs>
 <g id="figure_1">
  <g id="patch_1">
   <path d="M 0 504 
L 576 504 
L 576 0 
L 0 0 
z
" style="fill:#ffffff;"/>
  </g>
  <g id="axes_1">
   <g id="patch_2">
    <path d="M 65.143137 440.295773 
L 503.052876 440.295773 
L 503.052876 100.8 
L 65.143137 100.8 
z
" style="fill:#ffffff;"/>
   </g>
   <g id="matplotlib.axis_1">
    <g id="xtick_1">
     <g id="line2d_1">
      <defs>
       <path d="M 0 0 
L 0 3.5 
" id="mabb618395b" style="stroke:#000000;stroke-width:0.8;"/>
      </defs>
      <g>
       <use style="stroke:#000000;stroke-width:0.8;" x="85.048125" xlink:href="#mabb618395b" y="440.295773"/>
      </g>
     </g>
     <g id="text_1">
      <!-- $\mathdefault{0}$ -->
      <g transform="translate(81.146131 458.365361)scale(0.16 -0.16)">
       <defs>
        <path d="M 42 31.640625 
C 42 37.75 41.90625 48.125 37.703125 56.109375 
C 34 63.109375 28.09375 65.59375 22.90625 65.59375 
C 18.09375 65.59375 12 63.40625 8.203125 56.203125 
C 4.203125 48.71875 3.796875 39.4375 3.796875 31.640625 
C 3.796875 25.953125 3.90625 17.28125 7 9.671875 
C 11.296875 -0.609375 19 -2 22.90625 -2 
C 27.5 -2 34.5 -0.109375 38.59375 9.375 
C 41.59375 16.28125 42 24.359375 42 31.640625 
z
M 22.90625 -0.40625 
C 16.5 -0.40625 12.703125 5.078125 11.296875 12.6875 
C 10.203125 18.5625 10.203125 27.15625 10.203125 32.75 
C 10.203125 40.4375 10.203125 46.828125 11.5 52.921875 
C 13.40625 61.390625 19 64 22.90625 64 
C 27 64 32.296875 61.296875 34.203125 53.125 
C 35.5 47.4375 35.59375 40.734375 35.59375 32.75 
C 35.59375 26.25 35.59375 18.265625 34.40625 12.375 
C 32.296875 1.484375 26.40625 -0.40625 22.90625 -0.40625 
z
" id="CMR17-48"/>
       </defs>
       <use transform="scale(0.996264)" xlink:href="#CMR17-48"/>
      </g>
     </g>
    </g>
    <g id="xtick_2">
     <g id="line2d_2">
      <g>
       <use style="stroke:#000000;stroke-width:0.8;" x="148.238563" xlink:href="#mabb618395b" y="440.295773"/>
      </g>
     </g>
     <g id="text_2">
      <!-- $\mathdefault{10}$ -->
      <g transform="translate(140.434576 458.365361)scale(0.16 -0.16)">
       <defs>
        <path d="M 26.59375 63.40625 
C 26.59375 65.5 26.5 65.5 25.09375 65.5 
C 21.203125 61.1875 15.296875 59.796875 9.703125 59.796875 
C 9.40625 59.796875 8.90625 59.796875 8.796875 59.5 
C 8.703125 59.296875 8.703125 59.09375 8.703125 57 
C 11.796875 57 17 57.59375 21 59.984375 
L 21 7.203125 
C 21 3.6875 20.796875 2.5 12.203125 2.5 
L 9.203125 2.5 
L 9.203125 0 
C 14 0 19 0 23.796875 0 
C 28.59375 0 33.59375 0 38.40625 0 
L 38.40625 2.5 
L 35.40625 2.5 
C 26.796875 2.5 26.59375 3.59375 26.59375 7.15625 
z
" id="CMR17-49"/>
       </defs>
       <use transform="scale(0.996264)" xlink:href="#CMR17-49"/>
       <use transform="translate(45.690477 0)scale(0.996264)" xlink:href="#CMR17-48"/>
      </g>
     </g>
    </g>
    <g id="xtick_3">
     <g id="line2d_3">
      <g>
       <use style="stroke:#000000;stroke-width:0.8;" x="211.429002" xlink:href="#mabb618395b" y="440.295773"/>
      </g>
     </g>
     <g id="text_3">
      <!-- $\mathdefault{20}$ -->
      <g transform="translate(203.625015 458.365361)scale(0.16 -0.16)">
       <defs>
        <path d="M 41.703125 15.453125 
L 39.90625 15.453125 
C 38.90625 8.375 38.09375 7.171875 37.703125 6.5625 
C 37.203125 5.765625 30 5.765625 28.59375 5.765625 
L 9.40625 5.765625 
C 13 9.671875 20 16.75 28.5 24.953125 
C 34.59375 30.734375 41.703125 37.53125 41.703125 47.421875 
C 41.703125 59.21875 32.296875 66 21.796875 66 
C 10.796875 66 4.09375 56.3125 4.09375 47.34375 
C 4.09375 43.4375 7 42.9375 8.203125 42.9375 
C 9.203125 42.9375 12.203125 43.546875 12.203125 47.03125 
C 12.203125 50.109375 9.59375 51 8.203125 51 
C 7.59375 51 7 50.90625 6.59375 50.703125 
C 8.5 59.21875 14.296875 63.40625 20.40625 63.40625 
C 29.09375 63.40625 34.796875 56.515625 34.796875 47.421875 
C 34.796875 38.734375 29.703125 31.25 24 24.75 
L 4.09375 2.28125 
L 4.09375 0 
L 39.296875 0 
z
" id="CMR17-50"/>
       </defs>
       <use transform="scale(0.996264)" xlink:href="#CMR17-50"/>
       <use transform="translate(45.690477 0)scale(0.996264)" xlink:href="#CMR17-48"/>
      </g>
     </g>
    </g>
    <g id="xtick_4">
     <g id="line2d_4">
      <g>
       <use style="stroke:#000000;stroke-width:0.8;" x="274.619441" xlink:href="#mabb618395b" y="440.295773"/>
      </g>
     </g>
     <g id="text_4">
      <!-- $\mathdefault{30}$ -->
      <g transform="translate(266.815454 458.365361)scale(0.16 -0.16)">
       <defs>
        <path d="M 22.09375 33.703125 
C 31 33.703125 34.90625 25.96875 34.90625 17.03125 
C 34.90625 5 28.5 0.390625 22.703125 0.390625 
C 17.40625 0.390625 8.796875 3.03125 6.09375 10.828125 
C 6.59375 10.625 7.09375 10.625 7.59375 10.625 
C 10 10.625 11.796875 12.21875 11.796875 14.8125 
C 11.796875 17.703125 9.59375 19 7.59375 19 
C 5.90625 19 3.296875 18.203125 3.296875 14.46875 
C 3.296875 5.234375 12.296875 -2 22.90625 -2 
C 34 -2 42.5 6.71875 42.5 16.953125 
C 42.5 26.671875 34.5 33.703125 25 34.796875 
C 32.59375 36.375 39.90625 43.0625 39.90625 52.015625 
C 39.90625 59.6875 32 65.296875 23 65.296875 
C 13.90625 65.296875 5.90625 59.828125 5.90625 52.015625 
C 5.90625 48.59375 8.5 48 9.796875 48 
C 11.90625 48 13.703125 49.296875 13.703125 51.890625 
C 13.703125 54.46875 11.90625 55.765625 9.796875 55.765625 
C 9.40625 55.765625 8.90625 55.765625 8.5 55.578125 
C 11.40625 61.859375 19.296875 63 22.796875 63 
C 26.296875 63 32.90625 61.328125 32.90625 51.875 
C 32.90625 49.109375 32.5 44.1875 29.09375 39.84375 
C 26.09375 36 22.703125 36 19.40625 35.6875 
C 18.90625 35.6875 16.59375 35.453125 16.203125 35.453125 
C 15.5 35.359375 15.09375 35.265625 15.09375 34.5 
C 15.09375 33.796875 15.203125 33.703125 17.203125 33.703125 
z
" id="CMR17-51"/>
       </defs>
       <use transform="scale(0.996264)" xlink:href="#CMR17-51"/>
       <use transform="translate(45.690477 0)scale(0.996264)" xlink:href="#CMR17-48"/>
      </g>
     </g>
    </g>
    <g id="xtick_5">
     <g id="line2d_5">
      <g>
       <use style="stroke:#000000;stroke-width:0.8;" x="337.809879" xlink:href="#mabb618395b" y="440.295773"/>
      </g>
     </g>
     <g id="text_5">
      <!-- $\mathdefault{40}$ -->
      <g transform="translate(330.005892 458.365361)scale(0.16 -0.16)">
       <defs>
        <path d="M 33.59375 64.40625 
C 33.59375 66.5 33.5 66.5 31.703125 66.5 
L 2 19.59375 
L 2 17 
L 27.796875 17 
L 27.796875 7.140625 
C 27.796875 3.5 27.59375 2.5 20.59375 2.5 
L 18.703125 2.5 
L 18.703125 0 
C 21.90625 0 27.296875 0 30.703125 0 
C 34.09375 0 39.5 0 42.703125 0 
L 42.703125 2.5 
L 40.796875 2.5 
C 33.796875 2.5 33.59375 3.5 33.59375 7.140625 
L 33.59375 17 
L 43.796875 17 
L 43.796875 19.59375 
L 33.59375 19.59375 
z
M 28.09375 57.859375 
L 28.09375 19.59375 
L 4 19.59375 
z
" id="CMR17-52"/>
       </defs>
       <use transform="scale(0.996264)" xlink:href="#CMR17-52"/>
       <use transform="translate(45.690477 0)scale(0.996264)" xlink:href="#CMR17-48"/>
      </g>
     </g>
    </g>
    <g id="xtick_6">
     <g id="line2d_6">
      <g>
       <use style="stroke:#000000;stroke-width:0.8;" x="401.000318" xlink:href="#mabb618395b" y="440.295773"/>
      </g>
     </g>
     <g id="text_6">
      <!-- $\mathdefault{50}$ -->
      <g transform="translate(393.196331 458.365361)scale(0.16 -0.16)">
       <defs>
        <path d="M 11.40625 57.6875 
C 12.40625 57.28125 16.5 56 20.703125 56 
C 30 56 35.09375 61.109375 38 64.0625 
C 38 64.953125 38 65.5 37.40625 65.5 
C 37.296875 65.5 37.09375 65.5 36.296875 65.046875 
C 32.796875 63.40625 28.703125 62.078125 23.703125 62.078125 
C 20.703125 62.078125 16.203125 62.484375 11.296875 64.671875 
C 10.203125 65.171875 10 65.171875 9.90625 65.171875 
C 9.40625 65.171875 9.296875 65.0625 9.296875 63.078125 
L 9.296875 34.421875 
C 9.296875 32.640625 9.296875 32.140625 10.296875 32.140625 
C 10.796875 32.140625 11 32.34375 11.5 33.03125 
C 14.703125 37.515625 19.09375 39.40625 24.09375 39.40625 
C 27.59375 39.40625 35.09375 37.21875 35.09375 20.140625 
C 35.09375 16.953125 35.09375 11.171875 32.09375 6.578125 
C 29.59375 2.484375 25.703125 0.390625 21.40625 0.390625 
C 14.796875 0.390625 8.09375 5 6.296875 12.71875 
C 6.703125 12.609375 7.5 12.421875 7.90625 12.421875 
C 9.203125 12.421875 11.703125 13.125 11.703125 16.21875 
C 11.703125 18.90625 9.796875 20 7.90625 20 
C 5.59375 20 4.09375 18.59375 4.09375 15.796875 
C 4.09375 7.09375 11 -2 21.59375 -2 
C 31.90625 -2 41.703125 6.875 41.703125 19.75 
C 41.703125 31.71875 33.90625 41 24.203125 41 
C 19.09375 41 14.796875 39.109375 11.40625 35.53125 
z
" id="CMR17-53"/>
       </defs>
       <use transform="scale(0.996264)" xlink:href="#CMR17-53"/>
       <use transform="translate(45.690477 0)scale(0.996264)" xlink:href="#CMR17-48"/>
      </g>
     </g>
    </g>
    <g id="xtick_7">
     <g id="line2d_7">
      <g>
       <use style="stroke:#000000;stroke-width:0.8;" x="464.190757" xlink:href="#mabb618395b" y="440.295773"/>
      </g>
     </g>
     <g id="text_7">
      <!-- $\mathdefault{60}$ -->
      <g transform="translate(456.38677 458.365361)scale(0.16 -0.16)">
       <defs>
        <path d="M 10.59375 34 
C 10.59375 57.65625 21.796875 63 28.296875 63 
C 30.40625 63 35.5 62.640625 37.5 59 
C 35.90625 59 32.90625 59 32.90625 55.515625 
C 32.90625 52.828125 35.09375 51.921875 36.5 51.921875 
C 37.40625 51.921875 40.09375 52.3125 40.09375 55.625 
C 40.09375 61.78125 35.09375 65.296875 28.203125 65.296875 
C 16.296875 65.296875 3.796875 52.96875 3.796875 31 
C 3.796875 3.953125 15.09375 -2 23.09375 -2 
C 32.796875 -2 42 6.671875 42 20.046875 
C 42 32.515625 33.90625 41.59375 23.703125 41.59375 
C 17.59375 41.59375 13.09375 37.609375 10.59375 30.625 
z
M 23.09375 0.390625 
C 10.796875 0.390625 10.796875 18.75 10.796875 22.4375 
C 10.796875 29.625 14.203125 40 23.5 40 
C 25.203125 40 30.09375 40 33.40625 33.125 
C 35.203125 29.21875 35.203125 25.140625 35.203125 20.140625 
C 35.203125 14.75 35.203125 10.78125 33.09375 6.78125 
C 30.90625 2.671875 27.703125 0.390625 23.09375 0.390625 
z
" id="CMR17-54"/>
       </defs>
       <use transform="scale(0.996264)" xlink:href="#CMR17-54"/>
       <use transform="translate(45.690477 0)scale(0.996264)" xlink:href="#CMR17-48"/>
      </g>
     </g>
    </g>
    <g id="text_8">
     <!-- $t$ -->
     <g transform="translate(279.870847 482.069243)scale(0.24 -0.24)">
      <defs>
       <path d="M 20.09375 40.09375 
L 29.296875 40.09375 
C 31.203125 40.09375 32.203125 40.09375 32.203125 41.890625 
C 32.203125 43 31.59375 43 29.59375 43 
L 20.796875 43 
L 24.5 57.6875 
C 24.90625 59.078125 24.90625 59.28125 24.90625 60 
C 24.90625 61.609375 23.59375 62.5 22.296875 62.5 
C 21.5 62.5 19.203125 62.203125 18.40625 58.984375 
L 14.5 43 
L 5.09375 43 
C 3.09375 43 2.203125 43 2.203125 41.09375 
C 2.203125 40.09375 2.90625 40.09375 4.796875 40.09375 
L 13.703125 40.09375 
L 7.09375 13.765625 
C 6.296875 10.28125 6 9.28125 6 7.984375 
C 6 3.296875 9.296875 -1 14.90625 -1 
C 25 -1 30.40625 13.5625 30.40625 14.25 
C 30.40625 14.859375 30 15.15625 29.40625 15.15625 
C 29.203125 15.15625 28.796875 15.15625 28.59375 14.75 
C 28.5 14.65625 28.40625 14.546875 27.703125 12.953125 
C 25.59375 7.984375 21 1 15.203125 1 
C 12.203125 1 12 3.5 12 5.6875 
C 12 5.78125 12 7.6875 12.296875 8.875 
z
" id="CMMI12-116"/>
      </defs>
      <use transform="scale(0.996264)" xlink:href="#CMMI12-116"/>
     </g>
    </g>
   </g>
   <g id="matplotlib.axis_2">
    <g id="ytick_1">
     <g id="line2d_8">
      <defs>
       <path d="M 0 0 
L -3.5 0 
" id="m302224c12d" style="stroke:#000000;stroke-width:0.8;"/>
      </defs>
      <g>
       <use style="stroke:#000000;stroke-width:0.8;" x="65.143137" xlink:href="#m302224c12d" y="429.567028"/>
      </g>
     </g>
     <g id="text_9">
      <!-- $\mathdefault{0}$ -->
      <g transform="translate(50.33915 435.101822)scale(0.16 -0.16)">
       <use transform="scale(0.996264)" xlink:href="#CMR17-48"/>
      </g>
     </g>
    </g>
    <g id="ytick_2">
     <g id="line2d_9">
      <g>
       <use style="stroke:#000000;stroke-width:0.8;" x="65.143137" xlink:href="#m302224c12d" y="366.147992"/>
      </g>
     </g>
     <g id="text_10">
      <!-- $\mathdefault{5}$ -->
      <g transform="translate(50.33915 371.682787)scale(0.16 -0.16)">
       <use transform="scale(0.996264)" xlink:href="#CMR17-53"/>
      </g>
     </g>
    </g>
    <g id="ytick_3">
     <g id="line2d_10">
      <g>
       <use style="stroke:#000000;stroke-width:0.8;" x="65.143137" xlink:href="#m302224c12d" y="302.728957"/>
      </g>
     </g>
     <g id="text_11">
      <!-- $\mathdefault{10}$ -->
      <g transform="translate(42.535163 308.263751)scale(0.16 -0.16)">
       <use transform="scale(0.996264)" xlink:href="#CMR17-49"/>
       <use transform="translate(45.690477 0)scale(0.996264)" xlink:href="#CMR17-48"/>
      </g>
     </g>
    </g>
    <g id="ytick_4">
     <g id="line2d_11">
      <g>
       <use style="stroke:#000000;stroke-width:0.8;" x="65.143137" xlink:href="#m302224c12d" y="239.309921"/>
      </g>
     </g>
     <g id="text_12">
      <!-- $\mathdefault{15}$ -->
      <g transform="translate(42.535163 244.844715)scale(0.16 -0.16)">
       <use transform="scale(0.996264)" xlink:href="#CMR17-49"/>
       <use transform="translate(45.690477 0)scale(0.996264)" xlink:href="#CMR17-53"/>
      </g>
     </g>
    </g>
    <g id="ytick_5">
     <g id="line2d_12">
      <g>
       <use style="stroke:#000000;stroke-width:0.8;" x="65.143137" xlink:href="#m302224c12d" y="175.890885"/>
      </g>
     </g>
     <g id="text_13">
      <!-- $\mathdefault{20}$ -->
      <g transform="translate(42.535163 181.425679)scale(0.16 -0.16)">
       <use transform="scale(0.996264)" xlink:href="#CMR17-50"/>
       <use transform="translate(45.690477 0)scale(0.996264)" xlink:href="#CMR17-48"/>
      </g>
     </g>
    </g>
    <g id="ytick_6">
     <g id="line2d_13">
      <g>
       <use style="stroke:#000000;stroke-width:0.8;" x="65.143137" xlink:href="#m302224c12d" y="112.471849"/>
      </g>
     </g>
     <g id="text_14">
      <!-- $\mathdefault{25}$ -->
      <g transform="translate(42.535163 118.006644)scale(0.16 -0.16)">
       <use transform="scale(0.996264)" xlink:href="#CMR17-50"/>
       <use transform="translate(45.690477 0)scale(0.996264)" xlink:href="#CMR17-53"/>
      </g>
     </g>
    </g>
    <g id="text_15">
     <!-- $\tau_{\rm int}$ -->
     <g transform="translate(33.884405 285.418992)rotate(-90)scale(0.24 -0.24)">
      <defs>
       <path d="M 28.703125 37.625 
L 45.296875 37.625 
C 46.59375 37.625 49.90625 37.625 49.90625 40.8125 
C 49.90625 43 48 43 46.203125 43 
L 18.703125 43 
C 16.40625 43 13 43 8.40625 38.125 
C 5.796875 35.234375 2.59375 29.953125 2.59375 29.359375 
C 2.59375 28.765625 3.09375 28.5625 3.703125 28.5625 
C 4.40625 28.5625 4.5 28.859375 5 29.453125 
C 10.203125 37.625 15.40625 37.625 17.90625 37.625 
L 26.203125 37.625 
L 15.796875 3.484375 
C 15.296875 1.984375 15.296875 1.78125 15.296875 1.484375 
C 15.296875 0.390625 16 -1 18 -1 
C 21.09375 -1 21.59375 1.6875 21.90625 3.171875 
z
" id="CMMI12-28"/>
       <path d="M 15.5 61.078125 
C 15.5 63.265625 13.703125 65.15625 11.40625 65.15625 
C 9.203125 65.15625 7.296875 63.375 7.296875 61.078125 
C 7.296875 58.890625 9.09375 57 11.40625 57 
C 13.59375 57 15.5 58.796875 15.5 61.078125 
z
M 3.796875 42.28125 
L 3.796875 39.703125 
C 9.40625 39.703125 10.203125 39.09375 10.203125 34.328125 
L 10.203125 6.671875 
C 10.203125 2.875 9.796875 2.390625 3.40625 2.390625 
L 3.40625 -0.203125 
C 5.796875 0 10.09375 0 12.59375 0 
C 15 0 19.09375 0 21.40625 -0.203125 
L 21.40625 2.390625 
C 15.5 2.390625 15.296875 2.984375 15.296875 6.5625 
L 15.296875 43.375 
z
" id="CMR17-105"/>
       <path d="M 41.5 30.203125 
C 41.5 35.296875 40.5 43.59375 28.703125 43.59375 
C 20.796875 43.59375 16.703125 37.5 15.203125 33.5 
L 15.09375 33.5 
L 15.09375 43.59375 
L 3.296875 42.5 
L 3.296875 39.90625 
C 9.203125 39.90625 10.09375 39.296875 10.09375 34.5 
L 10.09375 6.6875 
C 10.09375 2.875 9.703125 2.390625 3.296875 2.390625 
L 3.296875 -0.203125 
C 5.703125 0 10.09375 0 12.703125 0 
C 15.296875 0 19.796875 0 22.203125 -0.203125 
L 22.203125 2.390625 
C 15.796875 2.390625 15.40625 2.78125 15.40625 6.6875 
L 15.40625 25.90625 
C 15.40625 35.109375 21 42 28 42 
C 35.40625 42 36.203125 35.40625 36.203125 30.59375 
L 36.203125 6.6875 
C 36.203125 2.875 35.796875 2.390625 29.40625 2.390625 
L 29.40625 -0.203125 
C 31.796875 0 36.203125 0 38.796875 0 
C 41.40625 0 45.90625 0 48.296875 -0.203125 
L 48.296875 2.390625 
C 41.90625 2.390625 41.5 2.78125 41.5 6.6875 
z
" id="CMR17-110"/>
       <path d="M 15.09375 40 
L 29.09375 40 
L 29.09375 42.578125 
L 15.09375 42.578125 
L 15.09375 61 
L 13.296875 61 
C 13.09375 50.703125 9.59375 41.6875 1.09375 41.6875 
L 1.09375 40 
L 9.796875 40 
L 9.796875 12.046875 
C 9.796875 10.15625 9.796875 -1 21.40625 -1 
C 27.296875 -1 30.703125 4.78125 30.703125 12.140625 
L 30.703125 17.8125 
L 28.90625 17.8125 
L 28.90625 12.234375 
C 28.90625 5.375 26.203125 0.796875 22 0.796875 
C 19.09375 0.796875 15.09375 2.78125 15.09375 11.84375 
z
" id="CMR17-116"/>
      </defs>
      <use transform="scale(0.996264)" xlink:href="#CMMI12-28"/>
      <use transform="translate(42.363841 -14.943915)scale(0.697382)" xlink:href="#CMR17-105"/>
      <use transform="translate(59.7735 -14.943915)scale(0.697382)" xlink:href="#CMR17-110"/>
      <use transform="translate(93.578387 -14.943915)scale(0.697382)" xlink:href="#CMR17-116"/>
     </g>
    </g>
   </g>
   <g id="LineCollection_1">
    <path clip-path="url(#p115af03c83)" d="M 85.048125 424.069169 
L 85.048125 421.747825 
" style="fill:none;stroke:#000000;stroke-width:2;"/>
    <path clip-path="url(#p115af03c83)" d="M 91.367169 422.772762 
L 91.367169 419.195133 
" style="fill:none;stroke:#000000;stroke-width:2;"/>
    <path clip-path="url(#p115af03c83)" d="M 97.686212 424.413424 
L 97.686212 422.216114 
" style="fill:none;stroke:#000000;stroke-width:2;"/>
    <path clip-path="url(#p115af03c83)" d="M 104.005256 424.111591 
L 104.005256 421.805378 
" style="fill:none;stroke:#000000;stroke-width:2;"/>
    <path clip-path="url(#p115af03c83)" d="M 110.3243 423.686743 
L 110.3243 420.529218 
" style="fill:none;stroke:#000000;stroke-width:2;"/>
    <path clip-path="url(#p115af03c83)" d="M 116.643344 423.120719 
L 116.643344 419.700794 
" style="fill:none;stroke:#000000;stroke-width:2;"/>
    <path clip-path="url(#p115af03c83)" d="M 122.962388 422.512695 
L 122.962388 418.818988 
" style="fill:none;stroke:#000000;stroke-width:2;"/>
    <path clip-path="url(#p115af03c83)" d="M 129.281432 422.167727 
L 129.281432 418.322411 
" style="fill:none;stroke:#000000;stroke-width:2;"/>
    <path clip-path="url(#p115af03c83)" d="M 135.600476 421.578444 
L 135.600476 417.480383 
" style="fill:none;stroke:#000000;stroke-width:2;"/>
    <path clip-path="url(#p115af03c83)" d="M 141.91952 421.114452 
L 141.91952 416.822918 
" style="fill:none;stroke:#000000;stroke-width:2;"/>
    <path clip-path="url(#p115af03c83)" d="M 148.238563 419.939259 
L 148.238563 414.108906 
" style="fill:none;stroke:#000000;stroke-width:2;"/>
    <path clip-path="url(#p115af03c83)" d="M 154.557607 418.536593 
L 154.557607 412.027689 
" style="fill:none;stroke:#000000;stroke-width:2;"/>
    <path clip-path="url(#p115af03c83)" d="M 160.876651 414.783634 
L 160.876651 405.105614 
" style="fill:none;stroke:#000000;stroke-width:2;"/>
    <path clip-path="url(#p115af03c83)" d="M 167.195695 411.11576 
L 167.195695 397.891406 
" style="fill:none;stroke:#000000;stroke-width:2;"/>
    <path clip-path="url(#p115af03c83)" d="M 173.514739 405.10698 
L 173.514739 384.385333 
" style="fill:none;stroke:#000000;stroke-width:2;"/>
    <path clip-path="url(#p115af03c83)" d="M 179.833783 397.658067 
L 179.833783 367.202523 
" style="fill:none;stroke:#000000;stroke-width:2;"/>
    <path clip-path="url(#p115af03c83)" d="M 186.152827 386.42342 
L 186.152827 338.799227 
" style="fill:none;stroke:#000000;stroke-width:2;"/>
    <path clip-path="url(#p115af03c83)" d="M 192.47187 373.826478 
L 192.47187 305.375871 
" style="fill:none;stroke:#000000;stroke-width:2;"/>
    <path clip-path="url(#p115af03c83)" d="M 198.790914 359.410817 
L 198.790914 266.555045 
" style="fill:none;stroke:#000000;stroke-width:2;"/>
    <path clip-path="url(#p115af03c83)" d="M 205.109958 347.681053 
L 205.109958 236.284039 
" style="fill:none;stroke:#000000;stroke-width:2;"/>
    <path clip-path="url(#p115af03c83)" d="M 211.429002 337.091251 
L 211.429002 207.017413 
" style="fill:none;stroke:#000000;stroke-width:2;"/>
    <path clip-path="url(#p115af03c83)" d="M 217.748046 329.710196 
L 217.748046 189.187649 
" style="fill:none;stroke:#000000;stroke-width:2;"/>
    <path clip-path="url(#p115af03c83)" d="M 224.06709 324.049841 
L 224.06709 173.673388 
" style="fill:none;stroke:#000000;stroke-width:2;"/>
    <path clip-path="url(#p115af03c83)" d="M 230.386134 320.208088 
L 230.386134 168.539144 
" style="fill:none;stroke:#000000;stroke-width:2;"/>
    <path clip-path="url(#p115af03c83)" d="M 236.705178 315.243514 
L 236.705178 153.889777 
" style="fill:none;stroke:#000000;stroke-width:2;"/>
    <path clip-path="url(#p115af03c83)" d="M 243.024221 312.1373 
L 243.024221 149.929516 
" style="fill:none;stroke:#000000;stroke-width:2;"/>
    <path clip-path="url(#p115af03c83)" d="M 249.343265 307.63637 
L 249.343265 135.745583 
" style="fill:none;stroke:#000000;stroke-width:2;"/>
    <path clip-path="url(#p115af03c83)" d="M 255.662309 304.73093 
L 255.662309 132.180281 
" style="fill:none;stroke:#000000;stroke-width:2;"/>
    <path clip-path="url(#p115af03c83)" d="M 261.981353 300.604439 
L 261.981353 118.307014 
" style="fill:none;stroke:#000000;stroke-width:2;"/>
    <path clip-path="url(#p115af03c83)" d="M 268.300397 298.86423 
L 268.300397 116.231626 
" style="fill:none;stroke:#000000;stroke-width:2;"/>
    <path clip-path="url(#p115af03c83)" d="M 274.619441 299.006602 
L 274.619441 116.400194 
" style="fill:none;stroke:#000000;stroke-width:2;"/>
    <path clip-path="url(#p115af03c83)" d="M 280.938485 301.725692 
L 280.938485 119.661627 
" style="fill:none;stroke:#000000;stroke-width:2;"/>
    <path clip-path="url(#p115af03c83)" d="M 287.257528 308.713303 
L 287.257528 137.091298 
" style="fill:none;stroke:#000000;stroke-width:2;"/>
    <path clip-path="url(#p115af03c83)" d="M 293.576572 318.566646 
L 293.576572 158.253735 
" style="fill:none;stroke:#000000;stroke-width:2;"/>
    <path clip-path="url(#p115af03c83)" d="M 299.895616 328.910081 
L 299.895616 188.07958 
" style="fill:none;stroke:#000000;stroke-width:2;"/>
    <path clip-path="url(#p115af03c83)" d="M 306.21466 338.615269 
L 306.21466 209.233533 
" style="fill:none;stroke:#000000;stroke-width:2;"/>
    <path clip-path="url(#p115af03c83)" d="M 312.533704 347.668766 
L 312.533704 236.265658 
" style="fill:none;stroke:#000000;stroke-width:2;"/>
    <path clip-path="url(#p115af03c83)" d="M 318.852748 355.336441 
L 318.852748 254.268336 
" style="fill:none;stroke:#000000;stroke-width:2;"/>
    <path clip-path="url(#p115af03c83)" d="M 325.171792 362.857605 
L 325.171792 277.604004 
" style="fill:none;stroke:#000000;stroke-width:2;"/>
    <path clip-path="url(#p115af03c83)" d="M 331.490835 369.831032 
L 331.490835 293.990296 
" style="fill:none;stroke:#000000;stroke-width:2;"/>
    <path clip-path="url(#p115af03c83)" d="M 337.809879 376.012881 
L 337.809879 313.569484 
" style="fill:none;stroke:#000000;stroke-width:2;"/>
    <path clip-path="url(#p115af03c83)" d="M 344.128923 380.896842 
L 344.128923 325.802683 
" style="fill:none;stroke:#000000;stroke-width:2;"/>
    <path clip-path="url(#p115af03c83)" d="M 350.447967 385.039362 
L 350.447967 336.551307 
" style="fill:none;stroke:#000000;stroke-width:2;"/>
    <path clip-path="url(#p115af03c83)" d="M 356.767011 388.337758 
L 356.767011 345.635835 
" style="fill:none;stroke:#000000;stroke-width:2;"/>
    <path clip-path="url(#p115af03c83)" d="M 363.086055 390.512971 
L 363.086055 349.153198 
" style="fill:none;stroke:#000000;stroke-width:2;"/>
    <path clip-path="url(#p115af03c83)" d="M 369.405099 393.342332 
L 369.405099 357.13792 
" style="fill:none;stroke:#000000;stroke-width:2;"/>
    <path clip-path="url(#p115af03c83)" d="M 375.724143 395.341703 
L 375.724143 360.398548 
" style="fill:none;stroke:#000000;stroke-width:2;"/>
    <path clip-path="url(#p115af03c83)" d="M 382.043186 397.712361 
L 382.043186 367.290122 
" style="fill:none;stroke:#000000;stroke-width:2;"/>
    <path clip-path="url(#p115af03c83)" d="M 388.36223 400.806018 
L 388.36223 375.050706 
" style="fill:none;stroke:#000000;stroke-width:2;"/>
    <path clip-path="url(#p115af03c83)" d="M 394.681274 403.998317 
L 394.681274 382.639195 
" style="fill:none;stroke:#000000;stroke-width:2;"/>
    <path clip-path="url(#p115af03c83)" d="M 401.000318 407.254483 
L 401.000318 389.985208 
" style="fill:none;stroke:#000000;stroke-width:2;"/>
    <path clip-path="url(#p115af03c83)" d="M 407.319362 408.707951 
L 407.319362 392.240634 
" style="fill:none;stroke:#000000;stroke-width:2;"/>
    <path clip-path="url(#p115af03c83)" d="M 413.638406 410.778612 
L 413.638406 397.380258 
" style="fill:none;stroke:#000000;stroke-width:2;"/>
    <path clip-path="url(#p115af03c83)" d="M 419.95745 412.199884 
L 419.95745 399.550777 
" style="fill:none;stroke:#000000;stroke-width:2;"/>
    <path clip-path="url(#p115af03c83)" d="M 426.276493 413.691779 
L 426.276493 401.873775 
" style="fill:none;stroke:#000000;stroke-width:2;"/>
    <path clip-path="url(#p115af03c83)" d="M 432.595537 415.800888 
L 432.595537 406.637124 
" style="fill:none;stroke:#000000;stroke-width:2;"/>
    <path clip-path="url(#p115af03c83)" d="M 438.914581 418.594308 
L 438.914581 412.112481 
" style="fill:none;stroke:#000000;stroke-width:2;"/>
    <path clip-path="url(#p115af03c83)" d="M 445.233625 420.669043 
L 445.233625 415.208676 
" style="fill:none;stroke:#000000;stroke-width:2;"/>
    <path clip-path="url(#p115af03c83)" d="M 451.552669 422.526408 
L 451.552669 418.838782 
" style="fill:none;stroke:#000000;stroke-width:2;"/>
    <path clip-path="url(#p115af03c83)" d="M 457.871713 423.633112 
L 457.871713 420.450414 
" style="fill:none;stroke:#000000;stroke-width:2;"/>
    <path clip-path="url(#p115af03c83)" d="M 464.190757 424.001169 
L 464.190757 420.992547 
" style="fill:none;stroke:#000000;stroke-width:2;"/>
    <path clip-path="url(#p115af03c83)" d="M 470.509801 424.028714 
L 470.509801 421.033244 
" style="fill:none;stroke:#000000;stroke-width:2;"/>
    <path clip-path="url(#p115af03c83)" d="M 476.828844 424.864147 
L 476.828844 422.275736 
" style="fill:none;stroke:#000000;stroke-width:2;"/>
    <path clip-path="url(#p115af03c83)" d="M 483.147888 424.11082 
L 483.147888 421.80433 
" style="fill:none;stroke:#000000;stroke-width:2;"/>
   </g>
   <g id="line2d_14">
    <path clip-path="url(#p115af03c83)" d="M 85.048125 422.908497 
L 91.367169 420.983947 
L 97.686212 423.314769 
L 104.005256 422.958484 
L 110.3243 422.107981 
L 116.643344 421.410757 
L 122.962388 420.665842 
L 129.281432 420.245069 
L 135.600476 419.529414 
L 141.91952 418.968685 
L 148.238563 417.024083 
L 154.557607 415.282141 
L 160.876651 409.944624 
L 167.195695 404.503583 
L 173.514739 394.746157 
L 179.833783 382.430295 
L 186.152827 362.611323 
L 192.47187 339.601175 
L 198.790914 312.982931 
L 205.109958 291.982546 
L 211.429002 272.054332 
L 217.748046 259.448922 
L 224.06709 248.861615 
L 230.386134 244.373616 
L 236.705178 234.566645 
L 243.024221 231.033408 
L 249.343265 221.690977 
L 255.662309 218.455605 
L 261.981353 209.455726 
L 268.300397 207.547928 
L 274.619441 207.703398 
L 280.938485 210.69366 
L 287.257528 222.9023 
L 293.576572 238.41019 
L 299.895616 258.494831 
L 306.21466 273.924401 
L 312.533704 291.967212 
L 318.852748 304.802389 
L 325.171792 320.230804 
L 331.490835 331.910664 
L 337.809879 344.791182 
L 344.128923 353.349763 
L 350.447967 360.795335 
L 356.767011 366.986797 
L 363.086055 369.833084 
L 369.405099 375.240126 
L 375.724143 377.870126 
L 382.043186 382.501242 
L 388.36223 387.928362 
L 394.681274 393.318756 
L 401.000318 398.619846 
L 407.319362 400.474293 
L 413.638406 404.079435 
L 419.95745 405.875331 
L 426.276493 407.782777 
L 432.595537 411.219006 
L 438.914581 415.353394 
L 445.233625 417.93886 
L 451.552669 420.682595 
L 457.871713 422.041763 
L 464.190757 422.496858 
L 470.509801 422.530979 
L 476.828844 423.569942 
L 483.147888 422.957575 
" style="fill:none;stroke:#000000;stroke-linecap:square;stroke-width:2;"/>
   </g>
   <g id="patch_3">
    <path d="M 65.143137 440.295773 
L 65.143137 100.8 
" style="fill:none;stroke:#000000;stroke-linecap:square;stroke-linejoin:miter;stroke-width:0.8;"/>
   </g>
   <g id="patch_4">
    <path d="M 503.052876 440.295773 
L 503.052876 100.8 
" style="fill:none;stroke:#000000;stroke-linecap:square;stroke-linejoin:miter;stroke-width:0.8;"/>
   </g>
   <g id="patch_5">
    <path d="M 65.143137 440.295773 
L 503.052876 440.295773 
" style="fill:none;stroke:#000000;stroke-linecap:square;stroke-linejoin:miter;stroke-width:0.8;"/>
   </g>
   <g id="patch_6">
    <path d="M 65.143137 100.8 
L 503.052876 100.8 
" style="fill:none;stroke:#000000;stroke-linecap:square;stroke-linejoin:miter;stroke-width:0.8;"/>
   </g>
  </g>
  <g id="axes_2">
   <g id="matplotlib.axis_3">
    <g id="ytick_7">
     <g id="line2d_15">
      <defs>
       <path d="M 0 0 
L 3.5 0 
" id="ma8f735cc53" style="stroke:#000000;stroke-width:0.8;"/>
      </defs>
      <g>
       <use style="stroke:#000000;stroke-width:0.8;" x="503.052876" xlink:href="#ma8f735cc53" y="428.954302"/>
      </g>
     </g>
     <g id="text_16">
      <!-- $\mathdefault{0}$ -->
      <g transform="translate(510.052876 434.489096)scale(0.16 -0.16)">
       <use transform="scale(0.996264)" xlink:href="#CMR17-48"/>
      </g>
     </g>
    </g>
    <g id="ytick_8">
     <g id="line2d_16">
      <g>
       <use style="stroke:#000000;stroke-width:0.8;" x="503.052876" xlink:href="#ma8f735cc53" y="382.179436"/>
      </g>
     </g>
     <g id="text_17">
      <!-- $\mathdefault{50}$ -->
      <g transform="translate(510.052876 387.71423)scale(0.16 -0.16)">
       <use transform="scale(0.996264)" xlink:href="#CMR17-53"/>
       <use transform="translate(45.690477 0)scale(0.996264)" xlink:href="#CMR17-48"/>
      </g>
     </g>
    </g>
    <g id="ytick_9">
     <g id="line2d_17">
      <g>
       <use style="stroke:#000000;stroke-width:0.8;" x="503.052876" xlink:href="#ma8f735cc53" y="335.404571"/>
      </g>
     </g>
     <g id="text_18">
      <!-- $\mathdefault{100}$ -->
      <g transform="translate(510.052876 340.939365)scale(0.16 -0.16)">
       <use transform="scale(0.996264)" xlink:href="#CMR17-49"/>
       <use transform="translate(45.690477 0)scale(0.996264)" xlink:href="#CMR17-48"/>
       <use transform="translate(91.380954 0)scale(0.996264)" xlink:href="#CMR17-48"/>
      </g>
     </g>
    </g>
    <g id="ytick_10">
     <g id="line2d_18">
      <g>
       <use style="stroke:#000000;stroke-width:0.8;" x="503.052876" xlink:href="#ma8f735cc53" y="288.629705"/>
      </g>
     </g>
     <g id="text_19">
      <!-- $\mathdefault{150}$ -->
      <g transform="translate(510.052876 294.1645)scale(0.16 -0.16)">
       <use transform="scale(0.996264)" xlink:href="#CMR17-49"/>
       <use transform="translate(45.690477 0)scale(0.996264)" xlink:href="#CMR17-53"/>
       <use transform="translate(91.380954 0)scale(0.996264)" xlink:href="#CMR17-48"/>
      </g>
     </g>
    </g>
    <g id="ytick_11">
     <g id="line2d_19">
      <g>
       <use style="stroke:#000000;stroke-width:0.8;" x="503.052876" xlink:href="#ma8f735cc53" y="241.85484"/>
      </g>
     </g>
     <g id="text_20">
      <!-- $\mathdefault{200}$ -->
      <g transform="translate(510.052876 247.389634)scale(0.16 -0.16)">
       <use transform="scale(0.996264)" xlink:href="#CMR17-50"/>
       <use transform="translate(45.690477 0)scale(0.996264)" xlink:href="#CMR17-48"/>
       <use transform="translate(91.380954 0)scale(0.996264)" xlink:href="#CMR17-48"/>
      </g>
     </g>
    </g>
    <g id="ytick_12">
     <g id="line2d_20">
      <g>
       <use style="stroke:#000000;stroke-width:0.8;" x="503.052876" xlink:href="#ma8f735cc53" y="195.079975"/>
      </g>
     </g>
     <g id="text_21">
      <!-- $\mathdefault{250}$ -->
      <g transform="translate(510.052876 200.614769)scale(0.16 -0.16)">
       <use transform="scale(0.996264)" xlink:href="#CMR17-50"/>
       <use transform="translate(45.690477 0)scale(0.996264)" xlink:href="#CMR17-53"/>
       <use transform="translate(91.380954 0)scale(0.996264)" xlink:href="#CMR17-48"/>
      </g>
     </g>
    </g>
    <g id="ytick_13">
     <g id="line2d_21">
      <g>
       <use style="stroke:#000000;stroke-width:0.8;" x="503.052876" xlink:href="#ma8f735cc53" y="148.305109"/>
      </g>
     </g>
     <g id="text_22">
      <!-- $\mathdefault{300}$ -->
      <g transform="translate(510.052876 153.839903)scale(0.16 -0.16)">
       <use transform="scale(0.996264)" xlink:href="#CMR17-51"/>
       <use transform="translate(45.690477 0)scale(0.996264)" xlink:href="#CMR17-48"/>
       <use transform="translate(91.380954 0)scale(0.996264)" xlink:href="#CMR17-48"/>
      </g>
     </g>
    </g>
    <g id="ytick_14">
     <g id="line2d_22">
      <g>
       <use style="stroke:#000000;stroke-width:0.8;" x="503.052876" xlink:href="#ma8f735cc53" y="101.530244"/>
      </g>
     </g>
     <g id="text_23">
      <!-- $\mathdefault{350}$ -->
      <g transform="translate(510.052876 107.065038)scale(0.16 -0.16)">
       <use transform="scale(0.996264)" xlink:href="#CMR17-51"/>
       <use transform="translate(45.690477 0)scale(0.996264)" xlink:href="#CMR17-53"/>
       <use transform="translate(91.380954 0)scale(0.996264)" xlink:href="#CMR17-48"/>
      </g>
     </g>
    </g>
    <g id="text_24">
     <!-- $N_{\rm ind}$ -->
     <g style="fill:#0000ff;" transform="translate(554.069243 291.302454)rotate(-90)scale(0.24 -0.24)">
      <defs>
       <path d="M 74 57.78125 
C 75.09375 62.09375 76.703125 65.09375 84.296875 65.09375 
C 84.59375 65.09375 85.796875 65.09375 85.796875 66.859375 
C 85.796875 68 84.90625 68 84.5 68 
C 82.5 68 77.40625 68 75.40625 68 
L 70.59375 68 
C 69.203125 68 67.40625 68 66 68 
C 65.40625 68 64.203125 68 64.203125 66.09375 
C 64.203125 65.09375 65 65.09375 65.703125 65.09375 
C 71.703125 65.09375 72.09375 62.796875 72.09375 60.984375 
C 72.09375 60.09375 72 59.78125 71.703125 58.390625 
L 60.40625 13.28125 
L 39 66.390625 
C 38.296875 68 38.203125 68 36 68 
L 23.796875 68 
C 21.796875 68 20.90625 68 20.90625 66.09375 
C 20.90625 65.09375 21.59375 65.09375 23.5 65.09375 
C 24 65.09375 29.90625 65.09375 29.90625 64.296875 
C 29.90625 64.09375 29.703125 63.296875 29.59375 63 
L 16.296875 9.921875 
C 15.09375 5 12.703125 2.90625 6.09375 2.90625 
C 5.59375 2.90625 4.59375 2.90625 4.59375 1.046875 
C 4.59375 0 5.59375 0 5.90625 0 
C 7.90625 0 13 0 15 0 
L 19.796875 0 
C 21.203125 0 22.90625 0 24.296875 0 
C 25 0 26.09375 0 26.09375 1.90625 
C 26.09375 2.8125 25.09375 2.90625 24.703125 2.90625 
C 21.40625 2.90625 18.203125 3.5 18.203125 7.09375 
C 18.203125 7.890625 18.40625 8.78125 18.59375 9.578125 
L 32.09375 63 
C 32.703125 62 32.703125 61.8125 33.09375 60.90625 
L 56.90625 1.796875 
C 57.40625 0.59375 57.59375 0 58.5 0 
C 59.5 0 59.59375 0.296875 60 2 
z
" id="CMMI12-78"/>
       <path d="M 29.203125 67.59375 
L 29.203125 65 
C 35.09375 65 36 64.40625 36 59.6875 
L 36 36.640625 
C 35.59375 37.140625 31.5 43.59375 23.40625 43.59375 
C 13.203125 43.59375 3.296875 34.5 3.296875 21.3125 
C 3.296875 8.203125 12.59375 -1 22.40625 -1 
C 30.90625 -1 35.296875 5.265625 35.796875 5.9375 
L 35.796875 -0.984375 
L 47.90625 -0.984375 
L 47.90625 2 
C 42 2 41.09375 2.59375 41.09375 7.390625 
L 41.09375 68.6875 
z
M 35.796875 11.796875 
C 35.796875 8.796875 34 6.09375 31.703125 4.09375 
C 28.296875 1.09375 24.90625 0.59375 23 0.59375 
C 20.09375 0.59375 9.703125 2.09375 9.703125 21.1875 
C 9.703125 40.8125 21.296875 42 23.90625 42 
C 28.5 42 32.203125 39.40625 34.5 35.796875 
C 35.796875 33.703125 35.796875 33.40625 35.796875 31.609375 
z
" id="CMR17-100"/>
      </defs>
      <use transform="scale(0.996264)" xlink:href="#CMMI12-78"/>
      <use transform="translate(78.115119 -14.943915)scale(0.697382)" xlink:href="#CMR17-105"/>
      <use transform="translate(95.524778 -14.943915)scale(0.697382)" xlink:href="#CMR17-110"/>
      <use transform="translate(131.151386 -14.943915)scale(0.697382)" xlink:href="#CMR17-100"/>
     </g>
    </g>
   </g>
   <g id="LineCollection_2">
    <path clip-path="url(#p115af03c83)" d="M 85.048125 237.6731 
L 85.048125 156.909065 
" style="fill:none;stroke:#0000ff;stroke-width:2;"/>
    <path clip-path="url(#p115af03c83)" d="M 91.367169 286.691398 
L 91.367169 211.780594 
" style="fill:none;stroke:#0000ff;stroke-width:2;"/>
    <path clip-path="url(#p115af03c83)" d="M 97.686212 225.590976 
L 97.686212 138.884236 
" style="fill:none;stroke:#0000ff;stroke-width:2;"/>
    <path clip-path="url(#p115af03c83)" d="M 104.005256 236.266811 
L 104.005256 154.810723 
" style="fill:none;stroke:#0000ff;stroke-width:2;"/>
    <path clip-path="url(#p115af03c83)" d="M 110.3243 265.924433 
L 110.3243 178.382638 
" style="fill:none;stroke:#0000ff;stroke-width:2;"/>
    <path clip-path="url(#p115af03c83)" d="M 116.643344 279.481117 
L 116.643344 200.181919 
" style="fill:none;stroke:#0000ff;stroke-width:2;"/>
    <path clip-path="url(#p115af03c83)" d="M 122.962388 291.614735 
L 122.962388 219.702595 
" style="fill:none;stroke:#0000ff;stroke-width:2;"/>
    <path clip-path="url(#p115af03c83)" d="M 129.281432 297.609819 
L 129.281432 229.351881 
" style="fill:none;stroke:#0000ff;stroke-width:2;"/>
    <path clip-path="url(#p115af03c83)" d="M 135.600476 306.649281 
L 135.600476 243.908059 
" style="fill:none;stroke:#0000ff;stroke-width:2;"/>
    <path clip-path="url(#p115af03c83)" d="M 141.91952 312.876642 
L 141.91952 253.941797 
" style="fill:none;stroke:#0000ff;stroke-width:2;"/>
    <path clip-path="url(#p115af03c83)" d="M 148.238563 334.556447 
L 148.238563 277.39131 
" style="fill:none;stroke:#0000ff;stroke-width:2;"/>
    <path clip-path="url(#p115af03c83)" d="M 154.557607 345.57187 
L 154.557607 296.369077 
" style="fill:none;stroke:#0000ff;stroke-width:2;"/>
    <path clip-path="url(#p115af03c83)" d="M 160.876651 369.729279 
L 160.876651 330.95733 
" style="fill:none;stroke:#0000ff;stroke-width:2;"/>
    <path clip-path="url(#p115af03c83)" d="M 167.195695 383.645747 
L 167.195695 351.172296 
" style="fill:none;stroke:#0000ff;stroke-width:2;"/>
    <path clip-path="url(#p115af03c83)" d="M 173.514739 397.836166 
L 173.514739 371.474036 
" style="fill:none;stroke:#0000ff;stroke-width:2;"/>
    <path clip-path="url(#p115af03c83)" d="M 179.833783 406.801471 
L 179.833783 385.657676 
" style="fill:none;stroke:#0000ff;stroke-width:2;"/>
    <path clip-path="url(#p115af03c83)" d="M 186.152827 414.109417 
L 186.152827 397.72285 
" style="fill:none;stroke:#0000ff;stroke-width:2;"/>
    <path clip-path="url(#p115af03c83)" d="M 192.47187 418.331199 
L 192.47187 405.285799 
" style="fill:none;stroke:#0000ff;stroke-width:2;"/>
    <path clip-path="url(#p115af03c83)" d="M 198.790914 420.992286 
L 198.790914 410.454101 
" style="fill:none;stroke:#0000ff;stroke-width:2;"/>
    <path clip-path="url(#p115af03c83)" d="M 205.109958 422.281532 
L 205.109958 413.20395 
" style="fill:none;stroke:#0000ff;stroke-width:2;"/>
    <path clip-path="url(#p115af03c83)" d="M 211.429002 423.204771 
L 211.429002 415.117643 
" style="fill:none;stroke:#0000ff;stroke-width:2;"/>
    <path clip-path="url(#p115af03c83)" d="M 217.748046 423.631844 
L 217.748046 416.141867 
" style="fill:none;stroke:#0000ff;stroke-width:2;"/>
    <path clip-path="url(#p115af03c83)" d="M 224.06709 423.969861 
L 224.06709 416.866351 
" style="fill:none;stroke:#0000ff;stroke-width:2;"/>
    <path clip-path="url(#p115af03c83)" d="M 230.386134 424.035733 
L 230.386134 417.214213 
" style="fill:none;stroke:#0000ff;stroke-width:2;"/>
    <path clip-path="url(#p115af03c83)" d="M 236.705178 424.316628 
L 236.705178 417.771116 
" style="fill:none;stroke:#0000ff;stroke-width:2;"/>
    <path clip-path="url(#p115af03c83)" d="M 243.024221 424.358667 
L 243.024221 418.010636 
" style="fill:none;stroke:#0000ff;stroke-width:2;"/>
    <path clip-path="url(#p115af03c83)" d="M 249.343265 424.601794 
L 249.343265 418.465881 
" style="fill:none;stroke:#0000ff;stroke-width:2;"/>
    <path clip-path="url(#p115af03c83)" d="M 255.662309 424.63362 
L 255.662309 418.661498 
" style="fill:none;stroke:#0000ff;stroke-width:2;"/>
    <path clip-path="url(#p115af03c83)" d="M 261.981353 424.848343 
L 261.981353 419.04429 
" style="fill:none;stroke:#0000ff;stroke-width:2;"/>
    <path clip-path="url(#p115af03c83)" d="M 268.300397 424.864147 
L 268.300397 419.148924 
" style="fill:none;stroke:#0000ff;stroke-width:2;"/>
    <path clip-path="url(#p115af03c83)" d="M 274.619441 424.862874 
L 274.619441 419.14046 
" style="fill:none;stroke:#0000ff;stroke-width:2;"/>
    <path clip-path="url(#p115af03c83)" d="M 280.938485 424.837869 
L 280.938485 418.97549 
" style="fill:none;stroke:#0000ff;stroke-width:2;"/>
    <path clip-path="url(#p115af03c83)" d="M 287.257528 424.589517 
L 287.257528 418.391171 
" style="fill:none;stroke:#0000ff;stroke-width:2;"/>
    <path clip-path="url(#p115af03c83)" d="M 293.576572 424.268539 
L 293.576572 417.5011 
" style="fill:none;stroke:#0000ff;stroke-width:2;"/>
    <path clip-path="url(#p115af03c83)" d="M 299.895616 423.648874 
L 299.895616 416.225978 
" style="fill:none;stroke:#0000ff;stroke-width:2;"/>
    <path clip-path="url(#p115af03c83)" d="M 306.21466 423.162822 
L 306.21466 414.924261 
" style="fill:none;stroke:#0000ff;stroke-width:2;"/>
    <path clip-path="url(#p115af03c83)" d="M 312.533704 422.282018 
L 312.533704 413.205963 
" style="fill:none;stroke:#0000ff;stroke-width:2;"/>
    <path clip-path="url(#p115af03c83)" d="M 318.852748 421.598409 
L 318.852748 411.583048 
" style="fill:none;stroke:#0000ff;stroke-width:2;"/>
    <path clip-path="url(#p115af03c83)" d="M 325.171792 420.346454 
L 325.171792 409.345759 
" style="fill:none;stroke:#0000ff;stroke-width:2;"/>
    <path clip-path="url(#p115af03c83)" d="M 331.490835 419.292224 
L 331.490835 407.025263 
" style="fill:none;stroke:#0000ff;stroke-width:2;"/>
    <path clip-path="url(#p115af03c83)" d="M 337.809879 417.459953 
L 337.809879 404.057701 
" style="fill:none;stroke:#0000ff;stroke-width:2;"/>
    <path clip-path="url(#p115af03c83)" d="M 344.128923 416.030455 
L 344.128923 401.400791 
" style="fill:none;stroke:#0000ff;stroke-width:2;"/>
    <path clip-path="url(#p115af03c83)" d="M 350.447967 414.431647 
L 350.447967 398.617315 
" style="fill:none;stroke:#0000ff;stroke-width:2;"/>
    <path clip-path="url(#p115af03c83)" d="M 356.767011 412.715019 
L 356.767011 395.895692 
" style="fill:none;stroke:#0000ff;stroke-width:2;"/>
    <path clip-path="url(#p115af03c83)" d="M 363.086055 412.070925 
L 363.086055 394.190769 
" style="fill:none;stroke:#0000ff;stroke-width:2;"/>
    <path clip-path="url(#p115af03c83)" d="M 369.405099 410.021696 
L 369.405099 391.099691 
" style="fill:none;stroke:#0000ff;stroke-width:2;"/>
    <path clip-path="url(#p115af03c83)" d="M 375.724143 409.200347 
L 375.724143 389.032079 
" style="fill:none;stroke:#0000ff;stroke-width:2;"/>
    <path clip-path="url(#p115af03c83)" d="M 382.043186 406.772442 
L 382.043186 385.588047 
" style="fill:none;stroke:#0000ff;stroke-width:2;"/>
    <path clip-path="url(#p115af03c83)" d="M 388.36223 403.36573 
L 388.36223 380.451318 
" style="fill:none;stroke:#0000ff;stroke-width:2;"/>
    <path clip-path="url(#p115af03c83)" d="M 394.681274 398.937131 
L 394.681274 373.861938 
" style="fill:none;stroke:#0000ff;stroke-width:2;"/>
    <path clip-path="url(#p115af03c83)" d="M 401.000318 393.017254 
L 401.000318 365.203 
" style="fill:none;stroke:#0000ff;stroke-width:2;"/>
    <path clip-path="url(#p115af03c83)" d="M 407.319362 390.938733 
L 407.319362 360.927126 
" style="fill:none;stroke:#0000ff;stroke-width:2;"/>
    <path clip-path="url(#p115af03c83)" d="M 413.638406 384.340623 
L 413.638406 352.525813 
" style="fill:none;stroke:#0000ff;stroke-width:2;"/>
    <path clip-path="url(#p115af03c83)" d="M 419.95745 381.226485 
L 419.95745 346.464622 
" style="fill:none;stroke:#0000ff;stroke-width:2;"/>
    <path clip-path="url(#p115af03c83)" d="M 426.276493 377.351794 
L 426.276493 338.937367 
" style="fill:none;stroke:#0000ff;stroke-width:2;"/>
    <path clip-path="url(#p115af03c83)" d="M 432.595537 365.877567 
L 432.595537 323.889016 
" style="fill:none;stroke:#0000ff;stroke-width:2;"/>
    <path clip-path="url(#p115af03c83)" d="M 438.914581 345.17445 
L 438.914581 295.683852 
" style="fill:none;stroke:#0000ff;stroke-width:2;"/>
    <path clip-path="url(#p115af03c83)" d="M 445.233625 327.445298 
L 445.233625 265.152951 
" style="fill:none;stroke:#0000ff;stroke-width:2;"/>
    <path clip-path="url(#p115af03c83)" d="M 451.552669 291.364258 
L 451.552669 219.299513 
" style="fill:none;stroke:#0000ff;stroke-width:2;"/>
    <path clip-path="url(#p115af03c83)" d="M 457.871713 267.320088 
L 457.871713 180.626428 
" style="fill:none;stroke:#0000ff;stroke-width:2;"/>
    <path clip-path="url(#p115af03c83)" d="M 464.190757 257.199842 
L 464.190757 164.358089 
" style="fill:none;stroke:#0000ff;stroke-width:2;"/>
    <path clip-path="url(#p115af03c83)" d="M 470.509801 256.388237 
L 470.509801 163.053615 
" style="fill:none;stroke:#0000ff;stroke-width:2;"/>
    <path clip-path="url(#p115af03c83)" d="M 476.828844 227.248259 
L 476.828844 116.231626 
" style="fill:none;stroke:#0000ff;stroke-width:2;"/>
    <path clip-path="url(#p115af03c83)" d="M 483.147888 236.292591 
L 483.147888 154.849189 
" style="fill:none;stroke:#0000ff;stroke-width:2;"/>
   </g>
   <g id="line2d_23">
    <path clip-path="url(#p115af03c83)" d="M 85.048125 197.291082 
L 91.367169 249.235996 
L 97.686212 182.237606 
L 104.005256 195.538767 
L 110.3243 222.153535 
L 116.643344 239.831518 
L 122.962388 255.658665 
L 129.281432 263.48085 
L 135.600476 275.27867 
L 141.91952 283.409219 
L 148.238563 305.973878 
L 154.557607 320.970474 
L 160.876651 350.343304 
L 167.195695 367.409022 
L 173.514739 384.655101 
L 179.833783 396.229574 
L 186.152827 405.916134 
L 192.47187 411.808499 
L 198.790914 415.723194 
L 205.109958 417.742741 
L 211.429002 419.161207 
L 217.748046 419.886855 
L 224.06709 420.418106 
L 230.386134 420.624973 
L 236.705178 421.043872 
L 243.024221 421.184651 
L 249.343265 421.533838 
L 255.662309 421.647559 
L 261.981353 421.946316 
L 268.300397 422.006536 
L 274.619441 422.001667 
L 280.938485 421.90668 
L 287.257528 421.490344 
L 293.576572 420.884819 
L 299.895616 419.937426 
L 306.21466 419.043541 
L 312.533704 417.74399 
L 318.852748 416.590728 
L 325.171792 414.846107 
L 331.490835 413.158744 
L 337.809879 410.758827 
L 344.128923 408.715623 
L 350.447967 406.524481 
L 356.767011 404.305355 
L 363.086055 403.130847 
L 369.405099 400.560693 
L 375.724143 399.116213 
L 382.043186 396.180245 
L 388.36223 391.908524 
L 394.681274 386.399535 
L 401.000318 379.110127 
L 407.319362 375.932929 
L 413.638406 368.433218 
L 419.95745 363.845553 
L 426.276493 358.14458 
L 432.595537 344.883292 
L 438.914581 320.429151 
L 445.233625 296.299124 
L 451.552669 255.331886 
L 457.871713 223.973258 
L 464.190757 210.778965 
L 470.509801 209.720926 
L 476.828844 171.739943 
L 483.147888 195.57089 
" style="fill:none;stroke:#0000ff;stroke-linecap:square;stroke-width:2;"/>
   </g>
   <g id="patch_7">
    <path d="M 65.143137 440.295773 
L 65.143137 100.8 
" style="fill:none;stroke:#000000;stroke-linecap:square;stroke-linejoin:miter;stroke-width:0.8;"/>
   </g>
   <g id="patch_8">
    <path d="M 503.052876 440.295773 
L 503.052876 100.8 
" style="fill:none;stroke:#000000;stroke-linecap:square;stroke-linejoin:miter;stroke-width:0.8;"/>
   </g>
   <g id="patch_9">
    <path d="M 65.143137 440.295773 
L 503.052876 440.295773 
" style="fill:none;stroke:#000000;stroke-linecap:square;stroke-linejoin:miter;stroke-width:0.8;"/>
   </g>
   <g id="patch_10">
    <path d="M 65.143137 100.8 
L 503.052876 100.8 
" style="fill:none;stroke:#000000;stroke-linecap:square;stroke-linejoin:miter;stroke-width:0.8;"/>
   </g>
   <g id="text_25">
    <!-- L32 beta12p0 kappa0p1475 N260 MCMC5 Buchoff -->
    <g transform="translate(39.922379 70.223956)scale(0.24 -0.24)">
     <defs>
      <path d="M 54.203125 25.234375 
L 52.40625 25.234375 
C 51.59375 15.359375 50.296875 2.59375 33.203125 2.59375 
L 23.90625 2.59375 
C 19.90625 2.59375 19.703125 3.078125 19.703125 6.46875 
L 19.703125 60.90625 
C 19.703125 64.515625 19.90625 65.5 27.5 65.5 
L 29.703125 65.5 
L 29.703125 68 
C 25.59375 68 20.796875 68 16.703125 68 
C 13.59375 68 8 68 5.09375 68 
L 5.09375 65.5 
C 12 65.5 13.09375 65.5 13.09375 61.015625 
L 13.09375 7.0625 
C 13.09375 2.59375 12 2.59375 5.09375 2.59375 
L 5.09375 0 
L 51.796875 0 
z
" id="CMR17-76"/>
      <path d="M 15 68.6875 
L 3.09375 67.59375 
L 3.09375 65 
C 9 65 9.90625 64.40625 9.90625 59.640625 
L 9.90625 -0.203125 
L 11.703125 -0.203125 
L 14.59375 6.890625 
C 17.5 2.203125 21.796875 -1 27.59375 -1 
C 37.59375 -1 47.703125 7.8125 47.703125 21.40625 
C 47.703125 34.1875 38.703125 43.59375 28.59375 43.59375 
C 22.40625 43.59375 18 40.296875 15 36.40625 
z
M 15.203125 31.3125 
C 15.203125 33.09375 15.203125 33.40625 16.59375 35.5 
C 20.5 41.515625 26.09375 42 28 42 
C 31 42 41.296875 40.390625 41.296875 21.5 
C 41.296875 1.6875 29.5 0.59375 27.09375 0.59375 
C 24 0.59375 19.5 1.78125 16.296875 7.59375 
C 15.203125 9.5 15.203125 9.703125 15.203125 11.484375 
z
" id="CMR17-98"/>
      <path d="M 38.09375 23 
C 38.5 23.40625 38.5 23.609375 38.5 24.625 
C 38.5 34.96875 33.09375 44 21.703125 44 
C 11.09375 44 2.703125 33.890625 2.703125 21.609375 
C 2.703125 8.609375 12.203125 -1 22.796875 -1 
C 34 -1 38.40625 9.484375 38.40625 11.5625 
C 38.40625 12.25 37.796875 12.25 37.59375 12.25 
C 36.90625 12.25 36.796875 12.046875 36.40625 10.875 
C 34.203125 4.140625 28.703125 0.796875 23.5 0.796875 
C 19.203125 0.796875 14.90625 3.171875 12.203125 7.5 
C 9.09375 12.546875 9.09375 18.375 9.09375 23 
z
M 9.203125 24.5 
C 9.90625 39.140625 17.59375 42.40625 21.59375 42.40625 
C 28.40625 42.40625 33 35.890625 33.09375 24.5 
z
" id="CMR17-101"/>
      <path d="M 36 25.828125 
C 36 32.375 36 35.84375 31.796875 39.734375 
C 28.09375 43 23.796875 44 20.40625 44 
C 12.5 44 6.796875 37.609375 6.796875 30.796875 
C 6.796875 27 9.796875 27 10.40625 27 
C 11.703125 27 14 27.78125 14 30.53125 
C 14 33 12.09375 34.078125 10.40625 34.078125 
C 10 34.078125 9.5 33.96875 9.203125 33.875 
C 11.296875 40.5 16.703125 42.40625 20.203125 42.40625 
C 25.203125 42.40625 30.703125 37.953125 30.703125 29.453125 
L 30.703125 25 
C 24.796875 25 17.703125 24.203125 12.09375 21.203125 
C 5.796875 17.703125 4 12.703125 4 8.90625 
C 4 1.203125 13 -1 18.296875 -1 
C 23.796875 -1 28.90625 2.171875 31.09375 7.984375 
C 31.296875 3.640625 34.09375 -0.28125 38.5 -0.28125 
C 40.59375 -0.28125 45.90625 1.09375 45.90625 8.859375 
L 45.90625 14.375 
L 44.09375 14.375 
L 44.09375 8.78125 
C 44.09375 2.78125 41.40625 2 40.09375 2 
C 36 2 36 7.15625 36 11.53125 
z
M 30.703125 13.59375 
C 30.703125 4.953125 24.5 0.59375 19 0.59375 
C 14 0.59375 10.09375 4.296875 10.09375 8.90625 
C 10.09375 11.890625 11.40625 17.1875 17.203125 20.390625 
C 22 23.09375 27.5 23.5 30.703125 23.5 
z
" id="CMR17-97"/>
      <path d="M 22 -16.609375 
C 15.59375 -16.609375 15.203125 -16.203125 15.203125 -12.328125 
L 15.203125 6.28125 
C 18.09375 2.09375 22.296875 -0.59375 27.59375 -0.59375 
C 37.59375 -0.59375 47.703125 8.171875 47.703125 21.6875 
C 47.703125 34.234375 39 43.78125 28.703125 43.78125 
C 22.703125 43.78125 17.796875 40.5 15 36.53125 
L 15 43.78125 
L 3.09375 42.6875 
L 3.09375 40.109375 
C 9 40.109375 9.90625 39.5 9.90625 34.734375 
L 9.90625 -12.328125 
C 9.90625 -16.109375 9.5 -16.609375 3.09375 -16.609375 
L 3.09375 -19.1875 
C 5.5 -19 9.90625 -19 12.5 -19 
C 15.09375 -19 19.59375 -19 22 -19.1875 
z
M 15.203125 31.4375 
C 15.203125 32.84375 15.203125 34.921875 19.09375 38.609375 
C 19.59375 39.015625 23 42 28 42 
C 35.296875 42 41.296875 32.9375 41.296875 21.59375 
C 41.296875 10.25 34.90625 1 27 1 
C 23.40625 1 19.5 2.6875 16.5 7.375 
C 15.203125 9.5625 15.203125 10.15625 15.203125 11.75 
z
" id="CMR17-112"/>
      <path d="M 26.09375 26.140625 
C 26 26.34375 25.5 26.9375 25.5 27.234375 
C 25.5 27.4375 32.59375 33.921875 33.5 34.71875 
C 39.203125 39.5 42.796875 40 45.40625 40 
L 45.40625 42.703125 
C 44.796875 42.703125 44.59375 42.703125 44.5 42.5 
L 39.59375 42.5 
C 36.796875 42.5 32.5 42.5 29.796875 42.703125 
L 29.796875 40.09375 
C 31.203125 39.984375 32.203125 39.1875 32.203125 37.796875 
C 32.203125 35.796875 30.203125 33.90625 30.09375 33.90625 
L 15 20.140625 
L 15 68.6875 
L 3.09375 67.59375 
L 3.09375 65 
C 9 65 9.90625 64.40625 9.90625 59.640625 
L 9.90625 6.65625 
C 9.90625 2.875 9.5 2.390625 3.09375 2.390625 
L 3.09375 -0.203125 
C 5.5 0 9.90625 0 12.40625 0 
C 14.90625 0 19.296875 0 21.703125 -0.203125 
L 21.703125 2.390625 
C 15.296875 2.390625 14.90625 2.78125 14.90625 6.6875 
L 14.90625 17.65625 
L 21.796875 23.9375 
L 31.90625 8.96875 
C 33.09375 7.171875 34.09375 5.765625 34.09375 4.46875 
C 34.09375 2.6875 32.296875 2.390625 31.09375 2.390625 
L 31.09375 -0.203125 
C 33.5 0 37.796875 0 40.296875 0 
C 42.09375 0 45.796875 0 47.5 0 
L 47.5 2.390625 
C 42.796875 2.390625 41.703125 3.28125 38.703125 7.671875 
z
" id="CMR17-107"/>
      <path d="M 45.09375 61.578125 
L 45.09375 63.765625 
L 21.59375 63.765625 
C 9.90625 63.765625 9.703125 65.078125 9.296875 67 
L 7.5 67 
L 4.59375 48.34375 
L 6.40625 48.34375 
C 6.703125 50.234375 7.40625 55.3125 8.59375 57.203125 
C 9.203125 58 16.59375 58 18.296875 58 
L 40.296875 58 
L 29.203125 41.578125 
C 21.796875 30.53125 16.703125 15.609375 16.703125 2.578125 
C 16.703125 1.390625 16.703125 -2 20.296875 -2 
C 23.90625 -2 23.90625 1.390625 23.90625 2.671875 
L 23.90625 7.265625 
C 23.90625 23.5625 26.703125 34.3125 31.296875 41.1875 
z
" id="CMR17-55"/>
      <path d="M 20.5 66.40625 
C 19.796875 67.5 19.703125 67.5 17.796875 67.5 
L 5.09375 67.5 
L 5.09375 65 
L 7 65 
C 11 65 12.796875 64.515625 13.09375 64.40625 
L 13.09375 9.53125 
C 13.09375 7.046875 13.09375 2.390625 5.09375 2.390625 
L 5.09375 -0.203125 
C 7.40625 0 11.59375 0 14.09375 0 
C 16.59375 0 20.796875 0 23.09375 -0.203125 
L 23.09375 2.390625 
C 15.09375 2.390625 15.09375 7.046875 15.09375 9.53125 
L 15.09375 63.015625 
C 15.796875 62.421875 15.796875 62.21875 16.5 61.234375 
L 53.59375 1.1875 
C 54.296875 0 54.59375 0 55.09375 0 
C 56.09375 0 56.09375 0.296875 56.09375 2.171875 
L 56.09375 57.890625 
C 56.09375 60.359375 56.09375 65 64.09375 65 
L 64.09375 67.59375 
C 61.796875 67.5 57.59375 67.5 55.09375 67.5 
C 52.59375 67.5 48.40625 67.5 46.09375 67.59375 
L 46.09375 65 
C 54.09375 65 54.09375 60.34375 54.09375 57.859375 
L 54.09375 11.921875 
z
" id="CMR17-78"/>
      <path d="M 20.90625 66 
C 20.296875 67.5 20.203125 67.5 18.09375 67.5 
L 5.296875 67.5 
L 5.296875 65 
C 12.203125 65 13.296875 65 13.296875 60.546875 
L 13.296875 9.53125 
C 13.296875 7.046875 13.296875 2.390625 5.296875 2.390625 
L 5.296875 -0.203125 
C 7.59375 0 11.796875 0 14.296875 0 
C 16.796875 0 21 0 23.296875 -0.203125 
L 23.296875 2.390625 
C 15.296875 2.390625 15.296875 7.046875 15.296875 9.53125 
L 15.296875 64.609375 
L 15.40625 64.609375 
L 38.90625 1.390625 
C 39.296875 0.390625 39.5 -0.203125 40.296875 -0.203125 
C 41.09375 -0.203125 41.296875 0.390625 41.703125 1.390625 
L 65.40625 65.09375 
L 65.5 65.09375 
L 65.5 6.84375 
C 65.5 2.390625 64.40625 2.390625 57.5 2.390625 
L 57.5 -0.203125 
C 60.203125 0 65.59375 0 68.5 0 
C 71.40625 0 76.90625 0 79.59375 -0.203125 
L 79.59375 2.390625 
C 72.703125 2.390625 71.59375 2.390625 71.59375 6.84375 
L 71.59375 60.546875 
C 71.59375 65 72.703125 65 79.59375 65 
L 79.59375 67.5 
L 66.90625 67.5 
C 64.796875 67.5 64.703125 67.40625 64.09375 65.90625 
L 42.5 7.84375 
z
" id="CMR17-77"/>
      <path d="M 62.09375 67.015625 
C 62.09375 68.796875 62 68.90625 61.40625 68.90625 
C 61 68.90625 60.90625 68.796875 60.203125 67.609375 
L 55.796875 59.25 
C 50.90625 65.421875 44.90625 69 37.203125 69 
C 20.09375 69 4.59375 54 4.59375 33.5625 
C 4.59375 12.90625 20.09375 -2 37.296875 -2 
C 52.59375 -2 62.09375 11.40625 62.09375 22.828125 
C 62.09375 23.8125 62.09375 24.21875 61.203125 24.21875 
C 60.40625 24.21875 60.40625 23.921875 60.296875 23.03125 
C 59.5 9.140625 49.5 0.59375 38.703125 0.59375 
C 28.5 0.59375 12.203125 7.734375 12.203125 33.546875 
C 12.203125 59.453125 28.796875 66.40625 38.5 66.40625 
C 49.796875 66.40625 58 56.6875 59.90625 42.890625 
C 60.09375 41.6875 60.09375 41.484375 61 41.484375 
C 62.09375 41.484375 62.09375 41.6875 62.09375 43.484375 
z
" id="CMR17-67"/>
      <path d="M 5.203125 68 
L 5.203125 65.40625 
C 12.09375 65.40625 13.203125 65.40625 13.203125 60.9375 
L 13.203125 7.0625 
C 13.203125 2.59375 12.09375 2.59375 5.203125 2.59375 
L 5.203125 0 
L 39.59375 0 
C 52.40625 0 60.703125 9.109375 60.703125 18.1875 
C 60.703125 27.203125 52.5 34.890625 41.796875 34.890625 
C 51.40625 36.8125 58.09375 43.296875 58.09375 51 
C 58.09375 59.40625 49.90625 68 37 68 
z
M 19.5 36 
L 19.5 61.515625 
C 19.5 64.921875 19.703125 65.40625 23.703125 65.40625 
L 36.5 65.40625 
C 46.40625 65.40625 50.796875 57.40625 50.796875 51.203125 
C 50.796875 43.609375 44.703125 36 33.90625 36 
z
M 23.703125 2.59375 
C 19.703125 2.59375 19.5 3.078125 19.5 6.453125 
L 19.5 34.40625 
L 38 34.40625 
C 48.296875 34.40625 53.296875 25.390625 53.296875 18.15625 
C 53.296875 10.921875 47.59375 2.59375 36.703125 2.59375 
z
" id="CMR17-66"/>
      <path d="M 29.40625 42.078125 
L 29.40625 39.5 
C 35.296875 39.5 36.203125 38.890625 36.203125 34.15625 
L 36.203125 16.125 
C 36.203125 7.8125 31.703125 0.59375 24.296875 0.59375 
C 16.09375 0.59375 15.40625 5.4375 15.40625 10.59375 
L 15.40625 43.171875 
L 3.296875 42.078125 
L 3.296875 39.5 
C 7.296875 39.5 10 39.5 10.09375 35.53125 
L 10.09375 16.53125 
C 10.09375 9.890625 10.09375 5.640625 12.703125 2.859375 
C 14 1.578125 16.5 -1 23.703125 -1 
C 32.203125 -1 35.5 5.890625 36.296875 7.90625 
L 36.40625 7.90625 
L 36.40625 -0.984375 
L 48.296875 -0.984375 
L 48.296875 2 
C 42.40625 2 41.5 2.59375 41.5 7.390625 
L 41.5 43.171875 
z
" id="CMR17-117"/>
      <path d="M 34.90625 35 
C 33 35 30.203125 35 30.203125 31.515625 
C 30.203125 28.71875 32.5 27.921875 33.796875 27.921875 
C 34.5 27.921875 37.40625 28.234375 37.40625 31.625 
C 37.40625 38.546875 30.59375 43.796875 22.90625 43.796875 
C 12.296875 43.796875 3.296875 34.03125 3.296875 21.296875 
C 3.296875 8.0625 12.703125 -1 22.90625 -1 
C 35.296875 -1 38.40625 10.578125 38.40625 11.6875 
C 38.40625 12.09375 38.296875 12.390625 37.59375 12.390625 
C 36.90625 12.390625 36.796875 12.296875 36.40625 10.984375 
C 33.796875 2.8125 28.09375 0.796875 23.796875 0.796875 
C 17.40625 0.796875 9.703125 6.671875 9.703125 21.390625 
C 9.703125 36.53125 17.09375 42 23 42 
C 26.90625 42 32.703125 40.203125 34.90625 35 
z
" id="CMR17-99"/>
      <path d="M 41.5 30.203125 
C 41.5 35.296875 40.5 43.59375 28.703125 43.59375 
C 20.5 43.59375 16.5 37 15.296875 33.703125 
L 15.203125 33.703125 
L 15.203125 68.6875 
L 3.296875 67.59375 
L 3.296875 65 
C 9.203125 65 10.09375 64.40625 10.09375 59.640625 
L 10.09375 6.65625 
C 10.09375 2.875 9.703125 2.390625 3.296875 2.390625 
L 3.296875 -0.203125 
C 5.703125 0 10.09375 0 12.703125 0 
C 15.296875 0 19.796875 0 22.203125 -0.203125 
L 22.203125 2.390625 
C 15.796875 2.390625 15.40625 2.78125 15.40625 6.6875 
L 15.40625 25.90625 
C 15.40625 35.109375 21 42 28 42 
C 35.40625 42 36.203125 35.40625 36.203125 30.59375 
L 36.203125 6.6875 
C 36.203125 2.875 35.796875 2.390625 29.40625 2.390625 
L 29.40625 -0.203125 
C 31.796875 0 36.203125 0 38.796875 0 
C 41.40625 0 45.90625 0 48.296875 -0.203125 
L 48.296875 2.390625 
C 41.90625 2.390625 41.5 2.78125 41.5 6.6875 
z
" id="CMR17-104"/>
      <path d="M 43.09375 21.1875 
C 43.09375 34 33.796875 44 22.90625 44 
C 12 44 2.703125 34 2.703125 21.1875 
C 2.703125 8.609375 12 -1 22.90625 -1 
C 33.796875 -1 43.09375 8.609375 43.09375 21.1875 
z
M 22.90625 0.796875 
C 18.203125 0.796875 14.203125 3.59375 11.90625 7.5 
C 9.40625 11.984375 9.09375 17.59375 9.09375 22 
C 9.09375 26.203125 9.296875 31.40625 11.90625 35.90625 
C 13.90625 39.203125 17.796875 42.40625 22.90625 42.40625 
C 27.40625 42.40625 31.203125 39.90625 33.59375 36.40625 
C 36.703125 31.703125 36.703125 25.109375 36.703125 22 
C 36.703125 18.09375 36.5 12.109375 33.796875 7.296875 
C 31 2.703125 26.703125 0.796875 22.90625 0.796875 
z
" id="CMR17-111"/>
      <path d="M 39.90625 40 
L 51.296875 40 
L 51.296875 42.578125 
L 39.703125 42.578125 
L 39.703125 54.59375 
C 39.703125 62.84375 43.90625 68 48.203125 68 
C 49.5 68 51 67.609375 52 66.90625 
C 51.203125 66.703125 49.09375 66.015625 49.09375 63.546875 
C 49.09375 60.953125 51.09375 60.15625 52.5 60.15625 
C 53.90625 60.15625 55.90625 60.953125 55.90625 63.546875 
C 55.90625 67.3125 52.296875 69.59375 48.296875 69.59375 
C 44.40625 69.59375 41.203125 67.703125 38.703125 65.328125 
C 36.40625 68.59375 32.59375 69.59375 28.703125 69.59375 
C 20.90625 69.59375 9.90625 65.125 9.90625 54.203125 
L 9.90625 42.578125 
L 1.90625 42.578125 
L 1.90625 40 
L 9.90625 40 
L 9.90625 6.671875 
C 9.90625 2.875 9.5 2.390625 3.09375 2.390625 
L 3.09375 -0.203125 
C 5.5 0 9.90625 0 12.40625 0 
C 15 0 19.40625 0 21.796875 -0.203125 
L 21.796875 2.390625 
C 15.40625 2.390625 15 2.78125 15 6.671875 
L 15 40 
L 34.796875 40 
L 34.796875 6.671875 
C 34.796875 2.875 34.40625 2.390625 28 2.390625 
L 28 -0.203125 
C 30.40625 0 35 0 37.59375 0 
C 40.5 0 45.59375 0 48.296875 -0.203125 
L 48.296875 2.390625 
C 41.09375 2.390625 39.90625 2.390625 39.90625 6.859375 
z
M 14.796875 42.578125 
L 14.796875 54.203125 
C 14.796875 63.234375 21.796875 68 28.5 68 
C 30 68 33.90625 67.6875 36.296875 65.421875 
C 34.5 65.421875 32.796875 64.625 32.796875 62.140625 
C 32.796875 59.5625 35.09375 58.859375 35.296875 58.859375 
C 34.796875 57.0625 34.796875 55.09375 34.796875 54.390625 
L 34.796875 42.578125 
z
" id="CMR17-11"/>
     </defs>
     <use transform="scale(0.996264)" xlink:href="#CMR17-76"/>
     <use transform="translate(57.381408 0)scale(0.996264)" xlink:href="#CMR17-51"/>
     <use transform="translate(103.071885 0)scale(0.996264)" xlink:href="#CMR17-50"/>
     <use transform="translate(178.838328 0)scale(0.996264)" xlink:href="#CMR17-98"/>
     <use transform="translate(232.336137 0)scale(0.996264)" xlink:href="#CMR17-101"/>
     <use transform="translate(272.821797 0)scale(0.996264)" xlink:href="#CMR17-116"/>
     <use transform="translate(308.102565 0)scale(0.996264)" xlink:href="#CMR17-97"/>
     <use transform="translate(353.793042 0)scale(0.996264)" xlink:href="#CMR17-49"/>
     <use transform="translate(399.483519 0)scale(0.996264)" xlink:href="#CMR17-50"/>
     <use transform="translate(445.173997 0)scale(0.996264)" xlink:href="#CMR17-112"/>
     <use transform="translate(496.069366 0)scale(0.996264)" xlink:href="#CMR17-48"/>
     <use transform="translate(571.83581 0)scale(0.996264)" xlink:href="#CMR17-107"/>
     <use transform="translate(614.923909 0)scale(0.996264)" xlink:href="#CMR17-97"/>
     <use transform="translate(660.614386 0)scale(0.996264)" xlink:href="#CMR17-112"/>
     <use transform="translate(711.509756 0)scale(0.996264)" xlink:href="#CMR17-112"/>
     <use transform="translate(762.405126 0)scale(0.996264)" xlink:href="#CMR17-97"/>
     <use transform="translate(808.095603 0)scale(0.996264)" xlink:href="#CMR17-48"/>
     <use transform="translate(853.78608 0)scale(0.996264)" xlink:href="#CMR17-112"/>
     <use transform="translate(904.68145 0)scale(0.996264)" xlink:href="#CMR17-49"/>
     <use transform="translate(950.371927 0)scale(0.996264)" xlink:href="#CMR17-52"/>
     <use transform="translate(996.062404 0)scale(0.996264)" xlink:href="#CMR17-55"/>
     <use transform="translate(1041.752881 0)scale(0.996264)" xlink:href="#CMR17-53"/>
     <use transform="translate(1117.519325 0)scale(0.996264)" xlink:href="#CMR17-78"/>
     <use transform="translate(1186.591754 0)scale(0.996264)" xlink:href="#CMR17-50"/>
     <use transform="translate(1232.282231 0)scale(0.996264)" xlink:href="#CMR17-54"/>
     <use transform="translate(1277.972709 0)scale(0.996264)" xlink:href="#CMR17-48"/>
     <use transform="translate(1353.739152 0)scale(0.996264)" xlink:href="#CMR17-77"/>
     <use transform="translate(1438.426093 0)scale(0.996264)" xlink:href="#CMR17-67"/>
     <use transform="translate(1504.935973 0)scale(0.996264)" xlink:href="#CMR17-77"/>
     <use transform="translate(1589.622914 0)scale(0.996264)" xlink:href="#CMR17-67"/>
     <use transform="translate(1656.132794 0)scale(0.996264)" xlink:href="#CMR17-53"/>
     <use transform="translate(1731.899238 0)scale(0.996264)" xlink:href="#CMR17-66"/>
     <use transform="translate(1797.087992 0)scale(0.996264)" xlink:href="#CMR17-117"/>
     <use transform="translate(1847.983362 0)scale(0.996264)" xlink:href="#CMR17-99"/>
     <use transform="translate(1885.866568 0)scale(0.996264)" xlink:href="#CMR17-104"/>
     <use transform="translate(1936.761938 0)scale(0.996264)" xlink:href="#CMR17-111"/>
     <use transform="translate(1982.452415 0)scale(0.996264)" xlink:href="#CMR17-11"/>
    </g>
    <!-- vector1 -->
    <g transform="translate(249.465511 94.8)scale(0.24 -0.24)">
     <defs>
      <path d="M 39.09375 33.796875 
C 40 36 41.59375 40 47.40625 40 
L 47.40625 42.59375 
C 45.5 42.59375 43 42.59375 41.09375 42.59375 
C 39 42.59375 35.703125 42.59375 33.703125 42.6875 
L 33.703125 40.09375 
C 36.203125 39.890625 37.59375 38.703125 37.59375 36.109375 
C 37.59375 35.203125 37.59375 35 37 33.609375 
L 26 5.890625 
L 14.09375 35.71875 
C 13.5 37.015625 13.5 37.203125 13.5 37.609375 
C 13.5 40 16.796875 40 18.296875 40 
L 18.296875 42.6875 
C 15.90625 42.59375 11.5 42.59375 9 42.59375 
C 6.296875 42.59375 3.203125 42.59375 1 42.6875 
L 1 40 
C 4.796875 40 6.90625 40 8.09375 36.90625 
L 22.59375 0.6875 
C 23.203125 -0.796875 23.296875 -1 24.203125 -1 
C 25.09375 -1 25.203125 -0.796875 25.796875 0.6875 
z
" id="CMR17-118"/>
      <path d="M 15 23.390625 
C 15 33 19.09375 42 26.59375 42 
C 27.296875 42 28 41.90625 28.703125 41.59375 
C 28.703125 41.59375 26.5 40.890625 26.5 38.3125 
C 26.5 35.90625 28.40625 34.90625 29.90625 34.90625 
C 31.09375 34.90625 33.296875 35.609375 33.296875 38.40625 
C 33.296875 41.609375 30.09375 43.59375 26.703125 43.59375 
C 19.09375 43.59375 15.796875 36.203125 14.796875 32.703125 
L 14.703125 32.703125 
L 14.703125 43.59375 
L 3.09375 42.5 
L 3.09375 39.90625 
C 9 39.90625 9.90625 39.296875 9.90625 34.5 
L 9.90625 6.6875 
C 9.90625 2.875 9.5 2.390625 3.09375 2.390625 
L 3.09375 -0.203125 
C 5.5 0 10.09375 0 12.703125 0 
C 15.59375 0 20.703125 0 23.40625 -0.203125 
L 23.40625 2.390625 
C 16.203125 2.390625 15 2.390625 15 6.875 
z
" id="CMR17-114"/>
     </defs>
     <use transform="scale(0.996264)" xlink:href="#CMR17-118"/>
     <use transform="translate(45.690462 0)scale(0.996264)" xlink:href="#CMR17-101"/>
     <use transform="translate(86.176122 0)scale(0.996264)" xlink:href="#CMR17-99"/>
     <use transform="translate(126.661783 0)scale(0.996264)" xlink:href="#CMR17-116"/>
     <use transform="translate(161.942551 0)scale(0.996264)" xlink:href="#CMR17-111"/>
     <use transform="translate(207.633028 0)scale(0.996264)" xlink:href="#CMR17-114"/>
     <use transform="translate(242.913796 0)scale(0.996264)" xlink:href="#CMR17-49"/>
    </g>
   </g>
  </g>
 </g>
 <defs>
  <clipPath id="p115af03c83">
   <rect height="339.495773" width="437.90974" x="65.143137" y="100.8"/>
  </clipPath>
 </defs>
</svg>
