<?xml version="1.0" encoding="utf-8" standalone="no"?>
<!DOCTYPE svg PUBLIC "-//W3C//DTD SVG 1.1//EN"
  "http://www.w3.org/Graphics/SVG/1.1/DTD/svg11.dtd">
<!-- Created with matplotlib (https://matplotlib.org/) -->
<svg height="360pt" version="1.1" viewBox="0 0 720 360" width="720pt" xmlns="http://www.w3.org/2000/svg" xmlns:xlink="http://www.w3.org/1999/xlink">
 <metadata>
  <rdf:RDF xmlns:cc="http://creativecommons.org/ns#" xmlns:dc="http://purl.org/dc/elements/1.1/" xmlns:rdf="http://www.w3.org/1999/02/22-rdf-syntax-ns#">
   <cc:Work>
    <dc:type rdf:resource="http://purl.org/dc/dcmitype/StillImage"/>
    <dc:date>2022-11-03T16:06:11.848450</dc:date>
    <dc:format>image/svg+xml</dc:format>
    <dc:creator>
     <cc:Agent>
      <dc:title>Matplotlib v3.3.4, https://matplotlib.org/</dc:title>
     </cc:Agent>
    </dc:creator>
   </cc:Work>
  </rdf:RDF>
 </metadata>
 <defs>
  <style type="text/css">*{stroke-linecap:butt;stroke-linejoin:round;}</style>
 </defs>
 <g id="figure_1">
  <g id="patch_1">
   <path d="M 0 360 
L 720 360 
L 720 0 
L 0 0 
z
" style="fill:#ffffff;"/>
  </g>
  <g id="axes_1">
   <g id="patch_2">
    <path d="M 76.865589 273.575773 
L 345.063296 273.575773 
L 345.063296 63.911226 
L 76.865589 63.911226 
z
" style="fill:#ffffff;"/>
   </g>
   <g id="matplotlib.axis_1">
    <g id="xtick_1">
     <g id="line2d_1">
      <defs>
       <path d="M 0 0 
L 0 3.5 
" id="mc222fbb03b" style="stroke:#000000;stroke-width:0.8;"/>
      </defs>
      <g>
       <use style="stroke:#000000;stroke-width:0.8;" x="89.056394" xlink:href="#mc222fbb03b" y="273.575773"/>
      </g>
     </g>
     <g id="text_1">
      <!-- $\mathdefault{0}$ -->
      <g transform="translate(85.1544 291.645361)scale(0.16 -0.16)">
       <defs>
        <path d="M 42 31.640625 
C 42 37.75 41.90625 48.125 37.703125 56.109375 
C 34 63.109375 28.09375 65.59375 22.90625 65.59375 
C 18.09375 65.59375 12 63.40625 8.203125 56.203125 
C 4.203125 48.71875 3.796875 39.4375 3.796875 31.640625 
C 3.796875 25.953125 3.90625 17.28125 7 9.671875 
C 11.296875 -0.609375 19 -2 22.90625 -2 
C 27.5 -2 34.5 -0.109375 38.59375 9.375 
C 41.59375 16.28125 42 24.359375 42 31.640625 
z
M 22.90625 -0.40625 
C 16.5 -0.40625 12.703125 5.078125 11.296875 12.6875 
C 10.203125 18.5625 10.203125 27.15625 10.203125 32.75 
C 10.203125 40.4375 10.203125 46.828125 11.5 52.921875 
C 13.40625 61.390625 19 64 22.90625 64 
C 27 64 32.296875 61.296875 34.203125 53.125 
C 35.5 47.4375 35.59375 40.734375 35.59375 32.75 
C 35.59375 26.25 35.59375 18.265625 34.40625 12.375 
C 32.296875 1.484375 26.40625 -0.40625 22.90625 -0.40625 
z
" id="CMR17-48"/>
       </defs>
       <use transform="scale(0.996264)" xlink:href="#CMR17-48"/>
      </g>
     </g>
    </g>
    <g id="xtick_2">
     <g id="line2d_2">
      <g>
       <use style="stroke:#000000;stroke-width:0.8;" x="166.458329" xlink:href="#mc222fbb03b" y="273.575773"/>
      </g>
     </g>
     <g id="text_2">
      <!-- $\mathdefault{20}$ -->
      <g transform="translate(158.654342 291.645361)scale(0.16 -0.16)">
       <defs>
        <path d="M 41.703125 15.453125 
L 39.90625 15.453125 
C 38.90625 8.375 38.09375 7.171875 37.703125 6.5625 
C 37.203125 5.765625 30 5.765625 28.59375 5.765625 
L 9.40625 5.765625 
C 13 9.671875 20 16.75 28.5 24.953125 
C 34.59375 30.734375 41.703125 37.53125 41.703125 47.421875 
C 41.703125 59.21875 32.296875 66 21.796875 66 
C 10.796875 66 4.09375 56.3125 4.09375 47.34375 
C 4.09375 43.4375 7 42.9375 8.203125 42.9375 
C 9.203125 42.9375 12.203125 43.546875 12.203125 47.03125 
C 12.203125 50.109375 9.59375 51 8.203125 51 
C 7.59375 51 7 50.90625 6.59375 50.703125 
C 8.5 59.21875 14.296875 63.40625 20.40625 63.40625 
C 29.09375 63.40625 34.796875 56.515625 34.796875 47.421875 
C 34.796875 38.734375 29.703125 31.25 24 24.75 
L 4.09375 2.28125 
L 4.09375 0 
L 39.296875 0 
z
" id="CMR17-50"/>
       </defs>
       <use transform="scale(0.996264)" xlink:href="#CMR17-50"/>
       <use transform="translate(45.690477 0)scale(0.996264)" xlink:href="#CMR17-48"/>
      </g>
     </g>
    </g>
    <g id="xtick_3">
     <g id="line2d_3">
      <g>
       <use style="stroke:#000000;stroke-width:0.8;" x="243.860265" xlink:href="#mc222fbb03b" y="273.575773"/>
      </g>
     </g>
     <g id="text_3">
      <!-- $\mathdefault{40}$ -->
      <g transform="translate(236.056278 291.645361)scale(0.16 -0.16)">
       <defs>
        <path d="M 33.59375 64.40625 
C 33.59375 66.5 33.5 66.5 31.703125 66.5 
L 2 19.59375 
L 2 17 
L 27.796875 17 
L 27.796875 7.140625 
C 27.796875 3.5 27.59375 2.5 20.59375 2.5 
L 18.703125 2.5 
L 18.703125 0 
C 21.90625 0 27.296875 0 30.703125 0 
C 34.09375 0 39.5 0 42.703125 0 
L 42.703125 2.5 
L 40.796875 2.5 
C 33.796875 2.5 33.59375 3.5 33.59375 7.140625 
L 33.59375 17 
L 43.796875 17 
L 43.796875 19.59375 
L 33.59375 19.59375 
z
M 28.09375 57.859375 
L 28.09375 19.59375 
L 4 19.59375 
z
" id="CMR17-52"/>
       </defs>
       <use transform="scale(0.996264)" xlink:href="#CMR17-52"/>
       <use transform="translate(45.690477 0)scale(0.996264)" xlink:href="#CMR17-48"/>
      </g>
     </g>
    </g>
    <g id="xtick_4">
     <g id="line2d_4">
      <g>
       <use style="stroke:#000000;stroke-width:0.8;" x="321.262201" xlink:href="#mc222fbb03b" y="273.575773"/>
      </g>
     </g>
     <g id="text_4">
      <!-- $\mathdefault{60}$ -->
      <g transform="translate(313.458214 291.645361)scale(0.16 -0.16)">
       <defs>
        <path d="M 10.59375 34 
C 10.59375 57.65625 21.796875 63 28.296875 63 
C 30.40625 63 35.5 62.640625 37.5 59 
C 35.90625 59 32.90625 59 32.90625 55.515625 
C 32.90625 52.828125 35.09375 51.921875 36.5 51.921875 
C 37.40625 51.921875 40.09375 52.3125 40.09375 55.625 
C 40.09375 61.78125 35.09375 65.296875 28.203125 65.296875 
C 16.296875 65.296875 3.796875 52.96875 3.796875 31 
C 3.796875 3.953125 15.09375 -2 23.09375 -2 
C 32.796875 -2 42 6.671875 42 20.046875 
C 42 32.515625 33.90625 41.59375 23.703125 41.59375 
C 17.59375 41.59375 13.09375 37.609375 10.59375 30.625 
z
M 23.09375 0.390625 
C 10.796875 0.390625 10.796875 18.75 10.796875 22.4375 
C 10.796875 29.625 14.203125 40 23.5 40 
C 25.203125 40 30.09375 40 33.40625 33.125 
C 35.203125 29.21875 35.203125 25.140625 35.203125 20.140625 
C 35.203125 14.75 35.203125 10.78125 33.09375 6.78125 
C 30.90625 2.671875 27.703125 0.390625 23.09375 0.390625 
z
" id="CMR17-54"/>
       </defs>
       <use transform="scale(0.996264)" xlink:href="#CMR17-54"/>
       <use transform="translate(45.690477 0)scale(0.996264)" xlink:href="#CMR17-48"/>
      </g>
     </g>
    </g>
    <g id="text_5">
     <!-- $t$ -->
     <g transform="translate(206.737283 315.349243)scale(0.24 -0.24)">
      <defs>
       <path d="M 20.09375 40.09375 
L 29.296875 40.09375 
C 31.203125 40.09375 32.203125 40.09375 32.203125 41.890625 
C 32.203125 43 31.59375 43 29.59375 43 
L 20.796875 43 
L 24.5 57.6875 
C 24.90625 59.078125 24.90625 59.28125 24.90625 60 
C 24.90625 61.609375 23.59375 62.5 22.296875 62.5 
C 21.5 62.5 19.203125 62.203125 18.40625 58.984375 
L 14.5 43 
L 5.09375 43 
C 3.09375 43 2.203125 43 2.203125 41.09375 
C 2.203125 40.09375 2.90625 40.09375 4.796875 40.09375 
L 13.703125 40.09375 
L 7.09375 13.765625 
C 6.296875 10.28125 6 9.28125 6 7.984375 
C 6 3.296875 9.296875 -1 14.90625 -1 
C 25 -1 30.40625 13.5625 30.40625 14.25 
C 30.40625 14.859375 30 15.15625 29.40625 15.15625 
C 29.203125 15.15625 28.796875 15.15625 28.59375 14.75 
C 28.5 14.65625 28.40625 14.546875 27.703125 12.953125 
C 25.59375 7.984375 21 1 15.203125 1 
C 12.203125 1 12 3.5 12 5.6875 
C 12 5.78125 12 7.6875 12.296875 8.875 
z
" id="CMMI12-116"/>
      </defs>
      <use transform="scale(0.996264)" xlink:href="#CMMI12-116"/>
     </g>
    </g>
   </g>
   <g id="matplotlib.axis_2">
    <g id="ytick_1">
     <g id="line2d_5">
      <defs>
       <path d="M 0 0 
L -3.5 0 
" id="m32026eb327" style="stroke:#000000;stroke-width:0.8;"/>
      </defs>
      <g>
       <use style="stroke:#000000;stroke-width:0.8;" x="76.865589" xlink:href="#m32026eb327" y="229.589121"/>
      </g>
     </g>
     <g id="text_6">
      <!-- $\mathdefault{10^{-1}}$ -->
      <g transform="translate(40 235.123915)scale(0.16 -0.16)">
       <defs>
        <path d="M 26.59375 63.40625 
C 26.59375 65.5 26.5 65.5 25.09375 65.5 
C 21.203125 61.1875 15.296875 59.796875 9.703125 59.796875 
C 9.40625 59.796875 8.90625 59.796875 8.796875 59.5 
C 8.703125 59.296875 8.703125 59.09375 8.703125 57 
C 11.796875 57 17 57.59375 21 59.984375 
L 21 7.203125 
C 21 3.6875 20.796875 2.5 12.203125 2.5 
L 9.203125 2.5 
L 9.203125 0 
C 14 0 19 0 23.796875 0 
C 28.59375 0 33.59375 0 38.40625 0 
L 38.40625 2.5 
L 35.40625 2.5 
C 26.796875 2.5 26.59375 3.59375 26.59375 7.15625 
z
" id="CMR17-49"/>
        <path d="M 65.90625 23 
C 67.59375 23 69.40625 23 69.40625 25 
C 69.40625 27 67.59375 27 65.90625 27 
L 11.796875 27 
C 10.09375 27 8.296875 27 8.296875 25 
C 8.296875 23 10.09375 23 11.796875 23 
z
" id="CMSY10-0"/>
       </defs>
       <use transform="scale(0.996264)" xlink:href="#CMR17-49"/>
       <use transform="translate(45.690477 0)scale(0.996264)" xlink:href="#CMR17-48"/>
       <use transform="translate(91.380954 36.153639)scale(0.697382)" xlink:href="#CMSY10-0"/>
       <use transform="translate(145.621947 36.153639)scale(0.697382)" xlink:href="#CMR17-49"/>
      </g>
     </g>
    </g>
    <g id="ytick_2">
     <g id="line2d_6">
      <g>
       <use style="stroke:#000000;stroke-width:0.8;" x="76.865589" xlink:href="#m32026eb327" y="184.062233"/>
      </g>
     </g>
     <g id="text_7">
      <!-- $\mathdefault{10^{0}}$ -->
      <g transform="translate(48.678546 189.597027)scale(0.16 -0.16)">
       <use transform="scale(0.996264)" xlink:href="#CMR17-49"/>
       <use transform="translate(45.690477 0)scale(0.996264)" xlink:href="#CMR17-48"/>
       <use transform="translate(91.380954 36.153639)scale(0.697382)" xlink:href="#CMR17-48"/>
      </g>
     </g>
    </g>
    <g id="ytick_3">
     <g id="line2d_7">
      <g>
       <use style="stroke:#000000;stroke-width:0.8;" x="76.865589" xlink:href="#m32026eb327" y="138.535345"/>
      </g>
     </g>
     <g id="text_8">
      <!-- $\mathdefault{10^{1}}$ -->
      <g transform="translate(48.678546 144.070139)scale(0.16 -0.16)">
       <use transform="scale(0.996264)" xlink:href="#CMR17-49"/>
       <use transform="translate(45.690477 0)scale(0.996264)" xlink:href="#CMR17-48"/>
       <use transform="translate(91.380954 36.153639)scale(0.697382)" xlink:href="#CMR17-49"/>
      </g>
     </g>
    </g>
    <g id="ytick_4">
     <g id="line2d_8">
      <g>
       <use style="stroke:#000000;stroke-width:0.8;" x="76.865589" xlink:href="#m32026eb327" y="93.008457"/>
      </g>
     </g>
     <g id="text_9">
      <!-- $\mathdefault{10^{2}}$ -->
      <g transform="translate(48.678546 98.543251)scale(0.16 -0.16)">
       <use transform="scale(0.996264)" xlink:href="#CMR17-49"/>
       <use transform="translate(45.690477 0)scale(0.996264)" xlink:href="#CMR17-48"/>
       <use transform="translate(91.380954 36.153639)scale(0.697382)" xlink:href="#CMR17-50"/>
      </g>
     </g>
    </g>
    <g id="ytick_5">
     <g id="line2d_9">
      <defs>
       <path d="M 0 0 
L -2 0 
" id="maac95c7c81" style="stroke:#000000;stroke-width:0.6;"/>
      </defs>
      <g>
       <use style="stroke:#000000;stroke-width:0.6;" x="76.865589" xlink:href="#maac95c7c81" y="261.41105"/>
      </g>
     </g>
    </g>
    <g id="ytick_6">
     <g id="line2d_10">
      <g>
       <use style="stroke:#000000;stroke-width:0.6;" x="76.865589" xlink:href="#maac95c7c81" y="253.394163"/>
      </g>
     </g>
    </g>
    <g id="ytick_7">
     <g id="line2d_11">
      <g>
       <use style="stroke:#000000;stroke-width:0.6;" x="76.865589" xlink:href="#maac95c7c81" y="247.706091"/>
      </g>
     </g>
    </g>
    <g id="ytick_8">
     <g id="line2d_12">
      <g>
       <use style="stroke:#000000;stroke-width:0.6;" x="76.865589" xlink:href="#maac95c7c81" y="243.294079"/>
      </g>
     </g>
    </g>
    <g id="ytick_9">
     <g id="line2d_13">
      <g>
       <use style="stroke:#000000;stroke-width:0.6;" x="76.865589" xlink:href="#maac95c7c81" y="239.689204"/>
      </g>
     </g>
    </g>
    <g id="ytick_10">
     <g id="line2d_14">
      <g>
       <use style="stroke:#000000;stroke-width:0.6;" x="76.865589" xlink:href="#maac95c7c81" y="236.641325"/>
      </g>
     </g>
    </g>
    <g id="ytick_11">
     <g id="line2d_15">
      <g>
       <use style="stroke:#000000;stroke-width:0.6;" x="76.865589" xlink:href="#maac95c7c81" y="234.001132"/>
      </g>
     </g>
    </g>
    <g id="ytick_12">
     <g id="line2d_16">
      <g>
       <use style="stroke:#000000;stroke-width:0.6;" x="76.865589" xlink:href="#maac95c7c81" y="231.672317"/>
      </g>
     </g>
    </g>
    <g id="ytick_13">
     <g id="line2d_17">
      <g>
       <use style="stroke:#000000;stroke-width:0.6;" x="76.865589" xlink:href="#maac95c7c81" y="215.884162"/>
      </g>
     </g>
    </g>
    <g id="ytick_14">
     <g id="line2d_18">
      <g>
       <use style="stroke:#000000;stroke-width:0.6;" x="76.865589" xlink:href="#maac95c7c81" y="207.867275"/>
      </g>
     </g>
    </g>
    <g id="ytick_15">
     <g id="line2d_19">
      <g>
       <use style="stroke:#000000;stroke-width:0.6;" x="76.865589" xlink:href="#maac95c7c81" y="202.179203"/>
      </g>
     </g>
    </g>
    <g id="ytick_16">
     <g id="line2d_20">
      <g>
       <use style="stroke:#000000;stroke-width:0.6;" x="76.865589" xlink:href="#maac95c7c81" y="197.767192"/>
      </g>
     </g>
    </g>
    <g id="ytick_17">
     <g id="line2d_21">
      <g>
       <use style="stroke:#000000;stroke-width:0.6;" x="76.865589" xlink:href="#maac95c7c81" y="194.162316"/>
      </g>
     </g>
    </g>
    <g id="ytick_18">
     <g id="line2d_22">
      <g>
       <use style="stroke:#000000;stroke-width:0.6;" x="76.865589" xlink:href="#maac95c7c81" y="191.114437"/>
      </g>
     </g>
    </g>
    <g id="ytick_19">
     <g id="line2d_23">
      <g>
       <use style="stroke:#000000;stroke-width:0.6;" x="76.865589" xlink:href="#maac95c7c81" y="188.474244"/>
      </g>
     </g>
    </g>
    <g id="ytick_20">
     <g id="line2d_24">
      <g>
       <use style="stroke:#000000;stroke-width:0.6;" x="76.865589" xlink:href="#maac95c7c81" y="186.145429"/>
      </g>
     </g>
    </g>
    <g id="ytick_21">
     <g id="line2d_25">
      <g>
       <use style="stroke:#000000;stroke-width:0.6;" x="76.865589" xlink:href="#maac95c7c81" y="170.357274"/>
      </g>
     </g>
    </g>
    <g id="ytick_22">
     <g id="line2d_26">
      <g>
       <use style="stroke:#000000;stroke-width:0.6;" x="76.865589" xlink:href="#maac95c7c81" y="162.340387"/>
      </g>
     </g>
    </g>
    <g id="ytick_23">
     <g id="line2d_27">
      <g>
       <use style="stroke:#000000;stroke-width:0.6;" x="76.865589" xlink:href="#maac95c7c81" y="156.652315"/>
      </g>
     </g>
    </g>
    <g id="ytick_24">
     <g id="line2d_28">
      <g>
       <use style="stroke:#000000;stroke-width:0.6;" x="76.865589" xlink:href="#maac95c7c81" y="152.240304"/>
      </g>
     </g>
    </g>
    <g id="ytick_25">
     <g id="line2d_29">
      <g>
       <use style="stroke:#000000;stroke-width:0.6;" x="76.865589" xlink:href="#maac95c7c81" y="148.635428"/>
      </g>
     </g>
    </g>
    <g id="ytick_26">
     <g id="line2d_30">
      <g>
       <use style="stroke:#000000;stroke-width:0.6;" x="76.865589" xlink:href="#maac95c7c81" y="145.587549"/>
      </g>
     </g>
    </g>
    <g id="ytick_27">
     <g id="line2d_31">
      <g>
       <use style="stroke:#000000;stroke-width:0.6;" x="76.865589" xlink:href="#maac95c7c81" y="142.947356"/>
      </g>
     </g>
    </g>
    <g id="ytick_28">
     <g id="line2d_32">
      <g>
       <use style="stroke:#000000;stroke-width:0.6;" x="76.865589" xlink:href="#maac95c7c81" y="140.618541"/>
      </g>
     </g>
    </g>
    <g id="ytick_29">
     <g id="line2d_33">
      <g>
       <use style="stroke:#000000;stroke-width:0.6;" x="76.865589" xlink:href="#maac95c7c81" y="124.830386"/>
      </g>
     </g>
    </g>
    <g id="ytick_30">
     <g id="line2d_34">
      <g>
       <use style="stroke:#000000;stroke-width:0.6;" x="76.865589" xlink:href="#maac95c7c81" y="116.813499"/>
      </g>
     </g>
    </g>
    <g id="ytick_31">
     <g id="line2d_35">
      <g>
       <use style="stroke:#000000;stroke-width:0.6;" x="76.865589" xlink:href="#maac95c7c81" y="111.125427"/>
      </g>
     </g>
    </g>
    <g id="ytick_32">
     <g id="line2d_36">
      <g>
       <use style="stroke:#000000;stroke-width:0.6;" x="76.865589" xlink:href="#maac95c7c81" y="106.713416"/>
      </g>
     </g>
    </g>
    <g id="ytick_33">
     <g id="line2d_37">
      <g>
       <use style="stroke:#000000;stroke-width:0.6;" x="76.865589" xlink:href="#maac95c7c81" y="103.10854"/>
      </g>
     </g>
    </g>
    <g id="ytick_34">
     <g id="line2d_38">
      <g>
       <use style="stroke:#000000;stroke-width:0.6;" x="76.865589" xlink:href="#maac95c7c81" y="100.060661"/>
      </g>
     </g>
    </g>
    <g id="ytick_35">
     <g id="line2d_39">
      <g>
       <use style="stroke:#000000;stroke-width:0.6;" x="76.865589" xlink:href="#maac95c7c81" y="97.420468"/>
      </g>
     </g>
    </g>
    <g id="ytick_36">
     <g id="line2d_40">
      <g>
       <use style="stroke:#000000;stroke-width:0.6;" x="76.865589" xlink:href="#maac95c7c81" y="95.091653"/>
      </g>
     </g>
    </g>
    <g id="ytick_37">
     <g id="line2d_41">
      <g>
       <use style="stroke:#000000;stroke-width:0.6;" x="76.865589" xlink:href="#maac95c7c81" y="79.303498"/>
      </g>
     </g>
    </g>
    <g id="ytick_38">
     <g id="line2d_42">
      <g>
       <use style="stroke:#000000;stroke-width:0.6;" x="76.865589" xlink:href="#maac95c7c81" y="71.286611"/>
      </g>
     </g>
    </g>
    <g id="ytick_39">
     <g id="line2d_43">
      <g>
       <use style="stroke:#000000;stroke-width:0.6;" x="76.865589" xlink:href="#maac95c7c81" y="65.598539"/>
      </g>
     </g>
    </g>
   </g>
   <g id="LineCollection_1">
    <path clip-path="url(#pae6a7c799b)" d="M 89.056394 73.460633 
L 89.056394 73.441433 
" style="fill:none;stroke:#ff0000;stroke-width:2;"/>
    <path clip-path="url(#pae6a7c799b)" d="M 92.926491 96.531022 
L 92.926491 96.497982 
" style="fill:none;stroke:#ff0000;stroke-width:2;"/>
    <path clip-path="url(#pae6a7c799b)" d="M 96.796587 105.509065 
L 96.796587 105.474631 
" style="fill:none;stroke:#ff0000;stroke-width:2;"/>
    <path clip-path="url(#pae6a7c799b)" d="M 100.666684 113.285861 
L 100.666684 113.242795 
" style="fill:none;stroke:#ff0000;stroke-width:2;"/>
    <path clip-path="url(#pae6a7c799b)" d="M 104.536781 120.590416 
L 104.536781 120.538596 
" style="fill:none;stroke:#ff0000;stroke-width:2;"/>
    <path clip-path="url(#pae6a7c799b)" d="M 108.406878 127.57251 
L 108.406878 127.521017 
" style="fill:none;stroke:#ff0000;stroke-width:2;"/>
    <path clip-path="url(#pae6a7c799b)" d="M 112.276974 134.322294 
L 112.276974 134.265986 
" style="fill:none;stroke:#ff0000;stroke-width:2;"/>
    <path clip-path="url(#pae6a7c799b)" d="M 116.147071 140.842249 
L 116.147071 140.778697 
" style="fill:none;stroke:#ff0000;stroke-width:2;"/>
    <path clip-path="url(#pae6a7c799b)" d="M 120.017168 147.220399 
L 120.017168 147.142839 
" style="fill:none;stroke:#ff0000;stroke-width:2;"/>
    <path clip-path="url(#pae6a7c799b)" d="M 123.887265 153.446225 
L 123.887265 153.360104 
" style="fill:none;stroke:#ff0000;stroke-width:2;"/>
    <path clip-path="url(#pae6a7c799b)" d="M 127.757362 159.590074 
L 127.757362 159.498087 
" style="fill:none;stroke:#ff0000;stroke-width:2;"/>
    <path clip-path="url(#pae6a7c799b)" d="M 131.627458 165.575271 
L 131.627458 165.456827 
" style="fill:none;stroke:#ff0000;stroke-width:2;"/>
    <path clip-path="url(#pae6a7c799b)" d="M 135.497555 171.475272 
L 135.497555 171.344542 
" style="fill:none;stroke:#ff0000;stroke-width:2;"/>
    <path clip-path="url(#pae6a7c799b)" d="M 139.367652 177.257357 
L 139.367652 177.127274 
" style="fill:none;stroke:#ff0000;stroke-width:2;"/>
    <path clip-path="url(#pae6a7c799b)" d="M 143.237749 182.99909 
L 143.237749 182.812624 
" style="fill:none;stroke:#ff0000;stroke-width:2;"/>
    <path clip-path="url(#pae6a7c799b)" d="M 147.107846 188.745804 
L 147.107846 188.540532 
" style="fill:none;stroke:#ff0000;stroke-width:2;"/>
    <path clip-path="url(#pae6a7c799b)" d="M 150.977942 194.37241 
L 150.977942 194.107116 
" style="fill:none;stroke:#ff0000;stroke-width:2;"/>
    <path clip-path="url(#pae6a7c799b)" d="M 154.848039 199.94104 
L 154.848039 199.630682 
" style="fill:none;stroke:#ff0000;stroke-width:2;"/>
    <path clip-path="url(#pae6a7c799b)" d="M 158.718136 205.519332 
L 158.718136 205.127352 
" style="fill:none;stroke:#ff0000;stroke-width:2;"/>
    <path clip-path="url(#pae6a7c799b)" d="M 162.588233 210.978216 
L 162.588233 210.61723 
" style="fill:none;stroke:#ff0000;stroke-width:2;"/>
    <path clip-path="url(#pae6a7c799b)" d="M 166.458329 216.442279 
L 166.458329 215.955335 
" style="fill:none;stroke:#ff0000;stroke-width:2;"/>
    <path clip-path="url(#pae6a7c799b)" d="M 170.328426 221.842688 
L 170.328426 221.338219 
" style="fill:none;stroke:#ff0000;stroke-width:2;"/>
    <path clip-path="url(#pae6a7c799b)" d="M 174.198523 227.104103 
L 174.198523 226.579109 
" style="fill:none;stroke:#ff0000;stroke-width:2;"/>
    <path clip-path="url(#pae6a7c799b)" d="M 178.06862 232.443603 
L 178.06862 231.776907 
" style="fill:none;stroke:#ff0000;stroke-width:2;"/>
    <path clip-path="url(#pae6a7c799b)" d="M 181.938717 237.530597 
L 181.938717 236.852992 
" style="fill:none;stroke:#ff0000;stroke-width:2;"/>
    <path clip-path="url(#pae6a7c799b)" d="M 185.808813 242.57945 
L 185.808813 241.856171 
" style="fill:none;stroke:#ff0000;stroke-width:2;"/>
    <path clip-path="url(#pae6a7c799b)" d="M 189.67891 247.392395 
L 189.67891 246.66643 
" style="fill:none;stroke:#ff0000;stroke-width:2;"/>
    <path clip-path="url(#pae6a7c799b)" d="M 193.549007 251.887875 
L 193.549007 251.084006 
" style="fill:none;stroke:#ff0000;stroke-width:2;"/>
    <path clip-path="url(#pae6a7c799b)" d="M 197.419104 256.101591 
L 197.419104 255.129295 
" style="fill:none;stroke:#ff0000;stroke-width:2;"/>
    <path clip-path="url(#pae6a7c799b)" d="M 201.289201 259.44587 
L 201.289201 258.559759 
" style="fill:none;stroke:#ff0000;stroke-width:2;"/>
    <path clip-path="url(#pae6a7c799b)" d="M 205.159297 262.125472 
L 205.159297 261.142327 
" style="fill:none;stroke:#ff0000;stroke-width:2;"/>
    <path clip-path="url(#pae6a7c799b)" d="M 209.029394 263.738908 
L 209.029394 262.746111 
" style="fill:none;stroke:#ff0000;stroke-width:2;"/>
    <path clip-path="url(#pae6a7c799b)" d="M 212.899491 264.045566 
L 212.899491 263.160579 
" style="fill:none;stroke:#ff0000;stroke-width:2;"/>
    <path clip-path="url(#pae6a7c799b)" d="M 216.769588 263.16159 
L 216.769588 262.164356 
" style="fill:none;stroke:#ff0000;stroke-width:2;"/>
    <path clip-path="url(#pae6a7c799b)" d="M 220.639684 261.188242 
L 220.639684 260.287616 
" style="fill:none;stroke:#ff0000;stroke-width:2;"/>
    <path clip-path="url(#pae6a7c799b)" d="M 224.509781 258.211839 
L 224.509781 257.37129 
" style="fill:none;stroke:#ff0000;stroke-width:2;"/>
    <path clip-path="url(#pae6a7c799b)" d="M 228.379878 254.559214 
L 228.379878 253.78274 
" style="fill:none;stroke:#ff0000;stroke-width:2;"/>
    <path clip-path="url(#pae6a7c799b)" d="M 232.249975 250.323468 
L 232.249975 249.692115 
" style="fill:none;stroke:#ff0000;stroke-width:2;"/>
    <path clip-path="url(#pae6a7c799b)" d="M 236.120072 245.810697 
L 236.120072 245.181304 
" style="fill:none;stroke:#ff0000;stroke-width:2;"/>
    <path clip-path="url(#pae6a7c799b)" d="M 239.990168 241.080714 
L 239.990168 240.515099 
" style="fill:none;stroke:#ff0000;stroke-width:2;"/>
    <path clip-path="url(#pae6a7c799b)" d="M 243.860265 236.090665 
L 243.860265 235.61816 
" style="fill:none;stroke:#ff0000;stroke-width:2;"/>
    <path clip-path="url(#pae6a7c799b)" d="M 247.730362 231.047019 
L 247.730362 230.638725 
" style="fill:none;stroke:#ff0000;stroke-width:2;"/>
    <path clip-path="url(#pae6a7c799b)" d="M 251.600459 225.89298 
L 251.600459 225.553928 
" style="fill:none;stroke:#ff0000;stroke-width:2;"/>
    <path clip-path="url(#pae6a7c799b)" d="M 255.470555 220.727168 
L 255.470555 220.404548 
" style="fill:none;stroke:#ff0000;stroke-width:2;"/>
    <path clip-path="url(#pae6a7c799b)" d="M 259.340652 215.45125 
L 259.340652 215.17271 
" style="fill:none;stroke:#ff0000;stroke-width:2;"/>
    <path clip-path="url(#pae6a7c799b)" d="M 263.210749 210.112616 
L 263.210749 209.891577 
" style="fill:none;stroke:#ff0000;stroke-width:2;"/>
    <path clip-path="url(#pae6a7c799b)" d="M 267.080846 204.791359 
L 267.080846 204.576006 
" style="fill:none;stroke:#ff0000;stroke-width:2;"/>
    <path clip-path="url(#pae6a7c799b)" d="M 270.950943 199.348371 
L 270.950943 199.168834 
" style="fill:none;stroke:#ff0000;stroke-width:2;"/>
    <path clip-path="url(#pae6a7c799b)" d="M 274.821039 193.843281 
L 274.821039 193.684532 
" style="fill:none;stroke:#ff0000;stroke-width:2;"/>
    <path clip-path="url(#pae6a7c799b)" d="M 278.691136 188.353324 
L 278.691136 188.222119 
" style="fill:none;stroke:#ff0000;stroke-width:2;"/>
    <path clip-path="url(#pae6a7c799b)" d="M 282.561233 182.746422 
L 282.561233 182.634272 
" style="fill:none;stroke:#ff0000;stroke-width:2;"/>
    <path clip-path="url(#pae6a7c799b)" d="M 286.43133 177.083447 
L 286.43133 176.972878 
" style="fill:none;stroke:#ff0000;stroke-width:2;"/>
    <path clip-path="url(#pae6a7c799b)" d="M 290.301427 171.366787 
L 290.301427 171.26157 
" style="fill:none;stroke:#ff0000;stroke-width:2;"/>
    <path clip-path="url(#pae6a7c799b)" d="M 294.171523 165.532528 
L 294.171523 165.439007 
" style="fill:none;stroke:#ff0000;stroke-width:2;"/>
    <path clip-path="url(#pae6a7c799b)" d="M 298.04162 159.601547 
L 298.04162 159.511183 
" style="fill:none;stroke:#ff0000;stroke-width:2;"/>
    <path clip-path="url(#pae6a7c799b)" d="M 301.911717 153.540093 
L 301.911717 153.454139 
" style="fill:none;stroke:#ff0000;stroke-width:2;"/>
    <path clip-path="url(#pae6a7c799b)" d="M 305.781814 147.340413 
L 305.781814 147.268488 
" style="fill:none;stroke:#ff0000;stroke-width:2;"/>
    <path clip-path="url(#pae6a7c799b)" d="M 309.65191 140.951444 
L 309.65191 140.887588 
" style="fill:none;stroke:#ff0000;stroke-width:2;"/>
    <path clip-path="url(#pae6a7c799b)" d="M 313.522007 134.416899 
L 313.522007 134.35019 
" style="fill:none;stroke:#ff0000;stroke-width:2;"/>
    <path clip-path="url(#pae6a7c799b)" d="M 317.392104 127.647231 
L 317.392104 127.593139 
" style="fill:none;stroke:#ff0000;stroke-width:2;"/>
    <path clip-path="url(#pae6a7c799b)" d="M 321.262201 120.644074 
L 321.262201 120.597721 
" style="fill:none;stroke:#ff0000;stroke-width:2;"/>
    <path clip-path="url(#pae6a7c799b)" d="M 325.132298 113.299552 
L 325.132298 113.258241 
" style="fill:none;stroke:#ff0000;stroke-width:2;"/>
    <path clip-path="url(#pae6a7c799b)" d="M 329.002394 105.520282 
L 329.002394 105.480664 
" style="fill:none;stroke:#ff0000;stroke-width:2;"/>
    <path clip-path="url(#pae6a7c799b)" d="M 332.872491 96.546351 
L 332.872491 96.509026 
" style="fill:none;stroke:#ff0000;stroke-width:2;"/>
   </g>
   <g id="line2d_44">
    <path clip-path="url(#pae6a7c799b)" d="M 89.056394 73.451031 
L 92.926491 96.514495 
L 96.796587 105.491841 
L 100.666684 113.264316 
L 104.536781 120.564489 
L 108.406878 127.546747 
L 112.276974 134.29412 
L 116.147071 140.810447 
L 120.017168 147.181581 
L 123.887265 153.403118 
L 127.757362 159.544027 
L 131.627458 165.51596 
L 135.497555 171.409799 
L 139.367652 177.192209 
L 143.237749 182.905637 
L 147.107846 188.642902 
L 150.977942 194.239318 
L 154.848039 199.785252 
L 158.718136 205.322371 
L 162.588233 210.796899 
L 166.458329 216.197308 
L 170.328426 221.588844 
L 174.198523 226.839864 
L 178.06862 232.107445 
L 181.938717 237.188892 
L 185.808813 242.214503 
L 189.67891 247.026081 
L 193.549007 251.481856 
L 197.419104 255.609467 
L 201.289201 258.997851 
L 205.159297 261.62779 
L 209.029394 263.236279 
L 212.899491 263.598122 
L 216.769588 262.656687 
L 220.639684 260.732801 
L 224.509781 257.787098 
L 228.379878 254.167166 
L 232.249975 250.005272 
L 236.120072 245.493496 
L 239.990168 240.795884 
L 243.860265 235.853002 
L 247.730362 230.841818 
L 251.600459 225.722727 
L 255.470555 220.5652 
L 259.340652 215.31149 
L 263.210749 210.001788 
L 267.080846 204.683389 
L 270.950943 199.258399 
L 274.821039 193.763747 
L 278.691136 188.287613 
L 282.561233 182.690267 
L 286.43133 177.028085 
L 290.301427 171.314109 
L 294.171523 165.485712 
L 298.04162 159.556313 
L 301.911717 153.497069 
L 305.781814 147.304418 
L 309.65191 140.91949 
L 313.522007 134.383516 
L 317.392104 127.620167 
L 321.262201 120.620884 
L 325.132298 113.278886 
L 329.002394 105.500463 
L 332.872491 96.52768 
" style="fill:none;stroke:#000000;stroke-linecap:square;stroke-width:2;"/>
   </g>
   <g id="patch_3">
    <path d="M 76.865589 273.575773 
L 76.865589 63.911226 
" style="fill:none;stroke:#000000;stroke-linecap:square;stroke-linejoin:miter;stroke-width:0.8;"/>
   </g>
   <g id="patch_4">
    <path d="M 345.063296 273.575773 
L 345.063296 63.911226 
" style="fill:none;stroke:#000000;stroke-linecap:square;stroke-linejoin:miter;stroke-width:0.8;"/>
   </g>
   <g id="patch_5">
    <path d="M 76.865589 273.575773 
L 345.063296 273.575773 
" style="fill:none;stroke:#000000;stroke-linecap:square;stroke-linejoin:miter;stroke-width:0.8;"/>
   </g>
   <g id="patch_6">
    <path d="M 76.865589 63.911226 
L 345.063296 63.911226 
" style="fill:none;stroke:#000000;stroke-linecap:square;stroke-linejoin:miter;stroke-width:0.8;"/>
   </g>
   <g id="text_10">
    <!-- $C(t)$ -->
    <g transform="translate(189.036289 57.911226)scale(0.24 -0.24)">
     <defs>
      <path d="M 74.703125 69.109375 
C 74.703125 70 74 70 73.796875 70 
C 73.59375 70 73.203125 70 72.40625 69 
L 65.5 60.65625 
C 62 66.625 56.5 70 49 70 
C 27.40625 70 5 48.25 5 24.921875 
C 5 8.328125 16.703125 -2 31.296875 -2 
C 39.296875 -2 46.296875 1.375 52.09375 6.25 
C 60.796875 13.484375 63.40625 23.140625 63.40625 23.921875 
C 63.40625 24.8125 62.59375 24.8125 62.296875 24.8125 
C 61.40625 24.8125 61.296875 24.21875 61.09375 23.8125 
C 56.5 8.34375 43 0.890625 33 0.890625 
C 22.40625 0.890625 13.203125 7.640625 13.203125 21.734375 
C 13.203125 24.921875 14.203125 42.1875 25.5 55.1875 
C 31 61.546875 40.40625 67.109375 49.90625 67.109375 
C 60.90625 67.109375 65.796875 58.078125 65.796875 47.9375 
C 65.796875 45.359375 65.5 43.1875 65.5 42.78125 
C 65.5 41.890625 66.5 41.890625 66.796875 41.890625 
C 67.90625 41.890625 68 41.984375 68.40625 43.765625 
z
" id="CMMI12-67"/>
      <path d="M 30.59375 -24.390625 
C 30.59375 -24.296875 30.59375 -24.09375 30.296875 -23.796875 
C 25.703125 -19.125 13.40625 -6.359375 13.40625 24.703125 
C 13.40625 55.765625 25.5 68.421875 30.40625 73.390625 
C 30.40625 73.5 30.59375 73.703125 30.59375 74 
C 30.59375 74.296875 30.296875 74.5 29.90625 74.5 
C 28.796875 74.5 20.296875 67.125 15.40625 56.15625 
C 10.40625 45.109375 9 34.359375 9 24.8125 
C 9 17.625 9.703125 5.484375 15.703125 -7.359375 
C 20.5 -17.734375 28.703125 -25 29.90625 -25 
C 30.40625 -25 30.59375 -24.796875 30.59375 -24.390625 
z
" id="CMR17-40"/>
      <path d="M 26.296875 24.703125 
C 26.296875 31.875 25.59375 44.015625 19.59375 56.859375 
C 14.796875 67.234375 6.59375 74.5 5.40625 74.5 
C 5.09375 74.5 4.703125 74.390625 4.703125 73.890625 
C 4.703125 73.703125 4.796875 73.59375 4.90625 73.390625 
C 9.703125 68.40625 21.90625 55.75 21.90625 24.75 
C 21.90625 -6.359375 9.796875 -19.015625 4.90625 -24.015625 
C 4.796875 -24.203125 4.703125 -24.3125 4.703125 -24.5 
C 4.703125 -25 5.09375 -25 5.40625 -25 
C 6.5 -25 15 -17.625 19.90625 -6.65625 
C 24.90625 4.390625 26.296875 15.140625 26.296875 24.703125 
z
" id="CMR17-41"/>
     </defs>
     <use transform="scale(0.996264)" xlink:href="#CMMI12-67"/>
     <use transform="translate(76.946847 0)scale(0.996264)" xlink:href="#CMR17-40"/>
     <use transform="translate(112.227614 0)scale(0.996264)" xlink:href="#CMMI12-116"/>
     <use transform="translate(147.453945 0)scale(0.996264)" xlink:href="#CMR17-41"/>
    </g>
   </g>
  </g>
  <g id="axes_2">
   <g id="patch_7">
    <path d="M 407.614792 273.575773 
L 675.8125 273.575773 
L 675.8125 63.911226 
L 407.614792 63.911226 
z
" style="fill:#ffffff;"/>
   </g>
   <g id="matplotlib.axis_3">
    <g id="xtick_5">
     <g id="line2d_45">
      <g>
       <use style="stroke:#000000;stroke-width:0.8;" x="492.047404" xlink:href="#mc222fbb03b" y="273.575773"/>
      </g>
     </g>
     <g id="text_11">
      <!-- $\mathdefault{10}$ -->
      <g transform="translate(484.243417 291.645361)scale(0.16 -0.16)">
       <use transform="scale(0.996264)" xlink:href="#CMR17-49"/>
       <use transform="translate(45.690477 0)scale(0.996264)" xlink:href="#CMR17-48"/>
      </g>
     </g>
    </g>
    <g id="xtick_6">
     <g id="line2d_46">
      <g>
       <use style="stroke:#000000;stroke-width:0.8;" x="582.349662" xlink:href="#mc222fbb03b" y="273.575773"/>
      </g>
     </g>
     <g id="text_12">
      <!-- $\mathdefault{20}$ -->
      <g transform="translate(574.545675 291.645361)scale(0.16 -0.16)">
       <use transform="scale(0.996264)" xlink:href="#CMR17-50"/>
       <use transform="translate(45.690477 0)scale(0.996264)" xlink:href="#CMR17-48"/>
      </g>
     </g>
    </g>
    <g id="xtick_7">
     <g id="line2d_47">
      <g>
       <use style="stroke:#000000;stroke-width:0.8;" x="672.651921" xlink:href="#mc222fbb03b" y="273.575773"/>
      </g>
     </g>
     <g id="text_13">
      <!-- $\mathdefault{30}$ -->
      <g transform="translate(664.847934 291.645361)scale(0.16 -0.16)">
       <defs>
        <path d="M 22.09375 33.703125 
C 31 33.703125 34.90625 25.96875 34.90625 17.03125 
C 34.90625 5 28.5 0.390625 22.703125 0.390625 
C 17.40625 0.390625 8.796875 3.03125 6.09375 10.828125 
C 6.59375 10.625 7.09375 10.625 7.59375 10.625 
C 10 10.625 11.796875 12.21875 11.796875 14.8125 
C 11.796875 17.703125 9.59375 19 7.59375 19 
C 5.90625 19 3.296875 18.203125 3.296875 14.46875 
C 3.296875 5.234375 12.296875 -2 22.90625 -2 
C 34 -2 42.5 6.71875 42.5 16.953125 
C 42.5 26.671875 34.5 33.703125 25 34.796875 
C 32.59375 36.375 39.90625 43.0625 39.90625 52.015625 
C 39.90625 59.6875 32 65.296875 23 65.296875 
C 13.90625 65.296875 5.90625 59.828125 5.90625 52.015625 
C 5.90625 48.59375 8.5 48 9.796875 48 
C 11.90625 48 13.703125 49.296875 13.703125 51.890625 
C 13.703125 54.46875 11.90625 55.765625 9.796875 55.765625 
C 9.40625 55.765625 8.90625 55.765625 8.5 55.578125 
C 11.40625 61.859375 19.296875 63 22.796875 63 
C 26.296875 63 32.90625 61.328125 32.90625 51.875 
C 32.90625 49.109375 32.5 44.1875 29.09375 39.84375 
C 26.09375 36 22.703125 36 19.40625 35.6875 
C 18.90625 35.6875 16.59375 35.453125 16.203125 35.453125 
C 15.5 35.359375 15.09375 35.265625 15.09375 34.5 
C 15.09375 33.796875 15.203125 33.703125 17.203125 33.703125 
z
" id="CMR17-51"/>
       </defs>
       <use transform="scale(0.996264)" xlink:href="#CMR17-51"/>
       <use transform="translate(45.690477 0)scale(0.996264)" xlink:href="#CMR17-48"/>
      </g>
     </g>
    </g>
    <g id="text_14">
     <!-- $t$ -->
     <g transform="translate(537.486486 315.349243)scale(0.24 -0.24)">
      <use transform="scale(0.996264)" xlink:href="#CMMI12-116"/>
     </g>
    </g>
   </g>
   <g id="matplotlib.axis_4">
    <g id="ytick_40">
     <g id="line2d_48">
      <g>
       <use style="stroke:#000000;stroke-width:0.8;" x="407.614792" xlink:href="#m32026eb327" y="223.585841"/>
      </g>
     </g>
     <g id="text_15">
      <!-- $\mathdefault{0.25}$ -->
      <g transform="translate(372.867283 229.120635)scale(0.16 -0.16)">
       <defs>
        <path d="M 18.40625 4.796875 
C 18.40625 7.6875 16 9.671875 13.59375 9.671875 
C 10.703125 9.671875 8.703125 7.28125 8.703125 4.890625 
C 8.703125 2 11.09375 0 13.5 0 
C 16.40625 0 18.40625 2.390625 18.40625 4.796875 
z
" id="CMMI12-58"/>
        <path d="M 11.40625 57.6875 
C 12.40625 57.28125 16.5 56 20.703125 56 
C 30 56 35.09375 61.109375 38 64.0625 
C 38 64.953125 38 65.5 37.40625 65.5 
C 37.296875 65.5 37.09375 65.5 36.296875 65.046875 
C 32.796875 63.40625 28.703125 62.078125 23.703125 62.078125 
C 20.703125 62.078125 16.203125 62.484375 11.296875 64.671875 
C 10.203125 65.171875 10 65.171875 9.90625 65.171875 
C 9.40625 65.171875 9.296875 65.0625 9.296875 63.078125 
L 9.296875 34.421875 
C 9.296875 32.640625 9.296875 32.140625 10.296875 32.140625 
C 10.796875 32.140625 11 32.34375 11.5 33.03125 
C 14.703125 37.515625 19.09375 39.40625 24.09375 39.40625 
C 27.59375 39.40625 35.09375 37.21875 35.09375 20.140625 
C 35.09375 16.953125 35.09375 11.171875 32.09375 6.578125 
C 29.59375 2.484375 25.703125 0.390625 21.40625 0.390625 
C 14.796875 0.390625 8.09375 5 6.296875 12.71875 
C 6.703125 12.609375 7.5 12.421875 7.90625 12.421875 
C 9.203125 12.421875 11.703125 13.125 11.703125 16.21875 
C 11.703125 18.90625 9.796875 20 7.90625 20 
C 5.59375 20 4.09375 18.59375 4.09375 15.796875 
C 4.09375 7.09375 11 -2 21.59375 -2 
C 31.90625 -2 41.703125 6.875 41.703125 19.75 
C 41.703125 31.71875 33.90625 41 24.203125 41 
C 19.09375 41 14.796875 39.109375 11.40625 35.53125 
z
" id="CMR17-53"/>
       </defs>
       <use transform="scale(0.996264)" xlink:href="#CMR17-48"/>
       <use transform="translate(45.690477 0)scale(0.996264)" xlink:href="#CMMI12-58"/>
       <use transform="translate(72.787654 0)scale(0.996264)" xlink:href="#CMR17-50"/>
       <use transform="translate(118.478131 0)scale(0.996264)" xlink:href="#CMR17-53"/>
      </g>
     </g>
    </g>
    <g id="ytick_41">
     <g id="line2d_49">
      <g>
       <use style="stroke:#000000;stroke-width:0.8;" x="407.614792" xlink:href="#m32026eb327" y="171.541904"/>
      </g>
     </g>
     <g id="text_16">
      <!-- $\mathdefault{0.30}$ -->
      <g transform="translate(372.867283 177.076698)scale(0.16 -0.16)">
       <use transform="scale(0.996264)" xlink:href="#CMR17-48"/>
       <use transform="translate(45.690477 0)scale(0.996264)" xlink:href="#CMMI12-58"/>
       <use transform="translate(72.787654 0)scale(0.996264)" xlink:href="#CMR17-51"/>
       <use transform="translate(118.478131 0)scale(0.996264)" xlink:href="#CMR17-48"/>
      </g>
     </g>
    </g>
    <g id="ytick_42">
     <g id="line2d_50">
      <g>
       <use style="stroke:#000000;stroke-width:0.8;" x="407.614792" xlink:href="#m32026eb327" y="119.497966"/>
      </g>
     </g>
     <g id="text_17">
      <!-- $\mathdefault{0.35}$ -->
      <g transform="translate(372.867283 125.032761)scale(0.16 -0.16)">
       <use transform="scale(0.996264)" xlink:href="#CMR17-48"/>
       <use transform="translate(45.690477 0)scale(0.996264)" xlink:href="#CMMI12-58"/>
       <use transform="translate(72.787654 0)scale(0.996264)" xlink:href="#CMR17-51"/>
       <use transform="translate(118.478131 0)scale(0.996264)" xlink:href="#CMR17-53"/>
      </g>
     </g>
    </g>
    <g id="ytick_43">
     <g id="line2d_51">
      <g>
       <use style="stroke:#000000;stroke-width:0.8;" x="407.614792" xlink:href="#m32026eb327" y="67.454029"/>
      </g>
     </g>
     <g id="text_18">
      <!-- $\mathdefault{0.40}$ -->
      <g transform="translate(372.867283 72.988824)scale(0.16 -0.16)">
       <use transform="scale(0.996264)" xlink:href="#CMR17-48"/>
       <use transform="translate(45.690477 0)scale(0.996264)" xlink:href="#CMMI12-58"/>
       <use transform="translate(72.787654 0)scale(0.996264)" xlink:href="#CMR17-52"/>
       <use transform="translate(118.478131 0)scale(0.996264)" xlink:href="#CMR17-48"/>
      </g>
     </g>
    </g>
   </g>
   <g id="LineCollection_2">
    <path clip-path="url(#p3a2211b4f2)" d="M 419.805597 75.509884 
L 419.805597 73.441433 
" style="fill:none;stroke:#ff0000;stroke-width:2;"/>
    <path clip-path="url(#p3a2211b4f2)" d="M 428.835823 99.611255 
L 428.835823 97.180793 
" style="fill:none;stroke:#ff0000;stroke-width:2;"/>
    <path clip-path="url(#p3a2211b4f2)" d="M 437.866049 117.134411 
L 437.866049 114.435202 
" style="fill:none;stroke:#ff0000;stroke-width:2;"/>
    <path clip-path="url(#p3a2211b4f2)" d="M 446.896275 129.529304 
L 446.896275 126.825954 
" style="fill:none;stroke:#ff0000;stroke-width:2;"/>
    <path clip-path="url(#p3a2211b4f2)" d="M 455.926501 141.7801 
L 455.926501 138.708391 
" style="fill:none;stroke:#ff0000;stroke-width:2;"/>
    <path clip-path="url(#p3a2211b4f2)" d="M 464.956726 149.938336 
L 464.956726 146.144029 
" style="fill:none;stroke:#ff0000;stroke-width:2;"/>
    <path clip-path="url(#p3a2211b4f2)" d="M 473.986952 159.13899 
L 473.986952 154.932854 
" style="fill:none;stroke:#ff0000;stroke-width:2;"/>
    <path clip-path="url(#p3a2211b4f2)" d="M 483.017178 165.106093 
L 483.017178 160.228529 
" style="fill:none;stroke:#ff0000;stroke-width:2;"/>
    <path clip-path="url(#p3a2211b4f2)" d="M 492.047404 173.16884 
L 492.047404 167.898139 
" style="fill:none;stroke:#ff0000;stroke-width:2;"/>
    <path clip-path="url(#p3a2211b4f2)" d="M 501.07763 178.271697 
L 501.07763 172.219148 
" style="fill:none;stroke:#ff0000;stroke-width:2;"/>
    <path clip-path="url(#p3a2211b4f2)" d="M 510.107856 184.297909 
L 510.107856 178.074861 
" style="fill:none;stroke:#ff0000;stroke-width:2;"/>
    <path clip-path="url(#p3a2211b4f2)" d="M 519.138081 187.744231 
L 519.138081 180.955846 
" style="fill:none;stroke:#ff0000;stroke-width:2;"/>
    <path clip-path="url(#p3a2211b4f2)" d="M 528.168307 189.642351 
L 528.168307 181.209114 
" style="fill:none;stroke:#ff0000;stroke-width:2;"/>
    <path clip-path="url(#p3a2211b4f2)" d="M 537.198533 197.894211 
L 537.198533 186.678255 
" style="fill:none;stroke:#ff0000;stroke-width:2;"/>
    <path clip-path="url(#p3a2211b4f2)" d="M 546.228759 199.24259 
L 546.228759 186.834551 
" style="fill:none;stroke:#ff0000;stroke-width:2;"/>
    <path clip-path="url(#p3a2211b4f2)" d="M 555.258985 202.806666 
L 555.258985 187.202588 
" style="fill:none;stroke:#ff0000;stroke-width:2;"/>
    <path clip-path="url(#p3a2211b4f2)" d="M 564.289211 207.144554 
L 564.289211 191.430374 
" style="fill:none;stroke:#ff0000;stroke-width:2;"/>
    <path clip-path="url(#p3a2211b4f2)" d="M 573.319436 209.722525 
L 573.319436 192.415401 
" style="fill:none;stroke:#ff0000;stroke-width:2;"/>
    <path clip-path="url(#p3a2211b4f2)" d="M 582.349662 212.746346 
L 582.349662 191.660834 
" style="fill:none;stroke:#ff0000;stroke-width:2;"/>
    <path clip-path="url(#p3a2211b4f2)" d="M 591.379888 218.475863 
L 591.379888 196.37211 
" style="fill:none;stroke:#ff0000;stroke-width:2;"/>
    <path clip-path="url(#p3a2211b4f2)" d="M 600.410114 219.518299 
L 600.410114 193.043766 
" style="fill:none;stroke:#ff0000;stroke-width:2;"/>
    <path clip-path="url(#p3a2211b4f2)" d="M 609.44034 228.074852 
L 609.44034 194.336799 
" style="fill:none;stroke:#ff0000;stroke-width:2;"/>
    <path clip-path="url(#p3a2211b4f2)" d="M 618.470566 226.772151 
L 618.470566 192.623369 
" style="fill:none;stroke:#ff0000;stroke-width:2;"/>
    <path clip-path="url(#p3a2211b4f2)" d="M 627.500791 232.60032 
L 627.500791 196.145606 
" style="fill:none;stroke:#ff0000;stroke-width:2;"/>
    <path clip-path="url(#p3a2211b4f2)" d="M 636.531017 236.971727 
L 636.531017 196.01348 
" style="fill:none;stroke:#ff0000;stroke-width:2;"/>
    <path clip-path="url(#p3a2211b4f2)" d="M 645.561243 241.531602 
L 645.561243 188.302679 
" style="fill:none;stroke:#ff0000;stroke-width:2;"/>
    <path clip-path="url(#p3a2211b4f2)" d="M 654.591469 254.607176 
L 654.591469 189.437244 
" style="fill:none;stroke:#ff0000;stroke-width:2;"/>
    <path clip-path="url(#p3a2211b4f2)" d="M 663.621695 264.045566 
L 663.621695 171.456201 
" style="fill:none;stroke:#ff0000;stroke-width:2;"/>
   </g>
   <g id="line2d_52">
    <path clip-path="url(#p3a2211b4f2)" d="M 419.805597 74.475658 
L 428.835823 98.396024 
L 437.866049 115.784806 
L 446.896275 128.177629 
L 455.926501 140.244246 
L 464.956726 148.041182 
L 473.986952 157.035922 
L 483.017178 162.667311 
L 492.047404 170.533489 
L 501.07763 175.245423 
L 510.107856 181.186385 
L 519.138081 184.350039 
L 528.168307 185.425733 
L 537.198533 192.286233 
L 546.228759 193.03857 
L 555.258985 195.004627 
L 564.289211 199.287464 
L 573.319436 201.068963 
L 582.349662 202.20359 
L 591.379888 207.423987 
L 600.410114 206.281032 
L 609.44034 211.205825 
L 618.470566 209.69776 
L 627.500791 214.372963 
L 636.531017 216.492604 
L 645.561243 214.91714 
L 654.591469 222.02221 
L 663.621695 217.750884 
" style="fill:none;stroke:#000000;stroke-linecap:square;stroke-width:2;"/>
   </g>
   <g id="patch_8">
    <path d="M 407.614792 273.575773 
L 407.614792 63.911226 
" style="fill:none;stroke:#000000;stroke-linecap:square;stroke-linejoin:miter;stroke-width:0.8;"/>
   </g>
   <g id="patch_9">
    <path d="M 675.8125 273.575773 
L 675.8125 63.911226 
" style="fill:none;stroke:#000000;stroke-linecap:square;stroke-linejoin:miter;stroke-width:0.8;"/>
   </g>
   <g id="patch_10">
    <path d="M 407.614792 273.575773 
L 675.8125 273.575773 
" style="fill:none;stroke:#000000;stroke-linecap:square;stroke-linejoin:miter;stroke-width:0.8;"/>
   </g>
   <g id="patch_11">
    <path d="M 407.614792 63.911226 
L 675.8125 63.911226 
" style="fill:none;stroke:#000000;stroke-linecap:square;stroke-linejoin:miter;stroke-width:0.8;"/>
   </g>
   <g id="text_19">
    <!-- cosh effective mass -->
    <g transform="translate(452.029613 57.911226)scale(0.24 -0.24)">
     <defs>
      <path d="M 34.90625 35 
C 33 35 30.203125 35 30.203125 31.515625 
C 30.203125 28.71875 32.5 27.921875 33.796875 27.921875 
C 34.5 27.921875 37.40625 28.234375 37.40625 31.625 
C 37.40625 38.546875 30.59375 43.796875 22.90625 43.796875 
C 12.296875 43.796875 3.296875 34.03125 3.296875 21.296875 
C 3.296875 8.0625 12.703125 -1 22.90625 -1 
C 35.296875 -1 38.40625 10.578125 38.40625 11.6875 
C 38.40625 12.09375 38.296875 12.390625 37.59375 12.390625 
C 36.90625 12.390625 36.796875 12.296875 36.40625 10.984375 
C 33.796875 2.8125 28.09375 0.796875 23.796875 0.796875 
C 17.40625 0.796875 9.703125 6.671875 9.703125 21.390625 
C 9.703125 36.53125 17.09375 42 23 42 
C 26.90625 42 32.703125 40.203125 34.90625 35 
z
" id="CMR17-99"/>
      <path d="M 43.09375 21.1875 
C 43.09375 34 33.796875 44 22.90625 44 
C 12 44 2.703125 34 2.703125 21.1875 
C 2.703125 8.609375 12 -1 22.90625 -1 
C 33.796875 -1 43.09375 8.609375 43.09375 21.1875 
z
M 22.90625 0.796875 
C 18.203125 0.796875 14.203125 3.59375 11.90625 7.5 
C 9.40625 11.984375 9.09375 17.59375 9.09375 22 
C 9.09375 26.203125 9.296875 31.40625 11.90625 35.90625 
C 13.90625 39.203125 17.796875 42.40625 22.90625 42.40625 
C 27.40625 42.40625 31.203125 39.90625 33.59375 36.40625 
C 36.703125 31.703125 36.703125 25.109375 36.703125 22 
C 36.703125 18.09375 36.5 12.109375 33.796875 7.296875 
C 31 2.703125 26.703125 0.796875 22.90625 0.796875 
z
" id="CMR17-111"/>
      <path d="M 30.90625 42.140625 
C 30.90625 43.953125 30.796875 44.046875 30.203125 44.046875 
C 29.796875 44.046875 29.703125 43.953125 28.5 42.453125 
C 28.203125 42.046875 27.296875 41.03125 27 40.640625 
C 23.796875 44.046875 19.296875 44.046875 17.59375 44.046875 
C 6.5 44.046875 2.5 38.234375 2.5 32.4375 
C 2.5 23.40625 12.703125 21.328125 15.59375 20.703125 
C 21.90625 19.421875 24.09375 19.015625 26.203125 17.203125 
C 27.5 16.015625 29.703125 13.8125 29.703125 10.21875 
C 29.703125 6 27.296875 0.59375 18.09375 0.59375 
C 9.40625 0.59375 6.296875 7.1875 4.5 15.953125 
C 4.203125 17.34375 4.203125 17.453125 3.40625 17.453125 
C 2.59375 17.453125 2.5 17.34375 2.5 15.359375 
L 2.5 0.984375 
C 2.5 -0.796875 2.59375 -0.90625 3.203125 -0.90625 
C 3.703125 -0.90625 3.796875 -0.796875 4.296875 0 
C 4.90625 0.890625 6.40625 3.296875 7 4.3125 
C 9 1.609375 12.5 -1 18.09375 -1 
C 28 -1 33.296875 4.421875 33.296875 12.25 
C 33.296875 17.375 30.59375 20.078125 29.296875 21.28125 
C 26.296875 24.390625 22.796875 25.09375 18.59375 25.890625 
C 13.09375 27.109375 6.09375 28.515625 6.09375 34.640625 
C 6.09375 37.234375 7.5 42.765625 17.59375 42.765625 
C 28.296875 42.765625 28.90625 32.71875 29.09375 29.5 
C 29.203125 29 29.703125 28.890625 30 28.890625 
C 30.90625 28.890625 30.90625 29.203125 30.90625 30.90625 
z
" id="CMR17-115"/>
      <path d="M 41.5 30.203125 
C 41.5 35.296875 40.5 43.59375 28.703125 43.59375 
C 20.5 43.59375 16.5 37 15.296875 33.703125 
L 15.203125 33.703125 
L 15.203125 68.6875 
L 3.296875 67.59375 
L 3.296875 65 
C 9.203125 65 10.09375 64.40625 10.09375 59.640625 
L 10.09375 6.65625 
C 10.09375 2.875 9.703125 2.390625 3.296875 2.390625 
L 3.296875 -0.203125 
C 5.703125 0 10.09375 0 12.703125 0 
C 15.296875 0 19.796875 0 22.203125 -0.203125 
L 22.203125 2.390625 
C 15.796875 2.390625 15.40625 2.78125 15.40625 6.6875 
L 15.40625 25.90625 
C 15.40625 35.109375 21 42 28 42 
C 35.40625 42 36.203125 35.40625 36.203125 30.59375 
L 36.203125 6.6875 
C 36.203125 2.875 35.796875 2.390625 29.40625 2.390625 
L 29.40625 -0.203125 
C 31.796875 0 36.203125 0 38.796875 0 
C 41.40625 0 45.90625 0 48.296875 -0.203125 
L 48.296875 2.390625 
C 41.90625 2.390625 41.5 2.78125 41.5 6.6875 
z
" id="CMR17-104"/>
      <path d="M 38.09375 23 
C 38.5 23.40625 38.5 23.609375 38.5 24.625 
C 38.5 34.96875 33.09375 44 21.703125 44 
C 11.09375 44 2.703125 33.890625 2.703125 21.609375 
C 2.703125 8.609375 12.203125 -1 22.796875 -1 
C 34 -1 38.40625 9.484375 38.40625 11.5625 
C 38.40625 12.25 37.796875 12.25 37.59375 12.25 
C 36.90625 12.25 36.796875 12.046875 36.40625 10.875 
C 34.203125 4.140625 28.703125 0.796875 23.5 0.796875 
C 19.203125 0.796875 14.90625 3.171875 12.203125 7.5 
C 9.09375 12.546875 9.09375 18.375 9.09375 23 
z
M 9.203125 24.5 
C 9.90625 39.140625 17.59375 42.40625 21.59375 42.40625 
C 28.40625 42.40625 33 35.890625 33.09375 24.5 
z
" id="CMR17-101"/>
      <path d="M 39.90625 40 
L 51.296875 40 
L 51.296875 42.578125 
L 39.703125 42.578125 
L 39.703125 54.59375 
C 39.703125 62.84375 43.90625 68 48.203125 68 
C 49.5 68 51 67.609375 52 66.90625 
C 51.203125 66.703125 49.09375 66.015625 49.09375 63.546875 
C 49.09375 60.953125 51.09375 60.15625 52.5 60.15625 
C 53.90625 60.15625 55.90625 60.953125 55.90625 63.546875 
C 55.90625 67.3125 52.296875 69.59375 48.296875 69.59375 
C 44.40625 69.59375 41.203125 67.703125 38.703125 65.328125 
C 36.40625 68.59375 32.59375 69.59375 28.703125 69.59375 
C 20.90625 69.59375 9.90625 65.125 9.90625 54.203125 
L 9.90625 42.578125 
L 1.90625 42.578125 
L 1.90625 40 
L 9.90625 40 
L 9.90625 6.671875 
C 9.90625 2.875 9.5 2.390625 3.09375 2.390625 
L 3.09375 -0.203125 
C 5.5 0 9.90625 0 12.40625 0 
C 15 0 19.40625 0 21.796875 -0.203125 
L 21.796875 2.390625 
C 15.40625 2.390625 15 2.78125 15 6.671875 
L 15 40 
L 34.796875 40 
L 34.796875 6.671875 
C 34.796875 2.875 34.40625 2.390625 28 2.390625 
L 28 -0.203125 
C 30.40625 0 35 0 37.59375 0 
C 40.5 0 45.59375 0 48.296875 -0.203125 
L 48.296875 2.390625 
C 41.09375 2.390625 39.90625 2.390625 39.90625 6.859375 
z
M 14.796875 42.578125 
L 14.796875 54.203125 
C 14.796875 63.234375 21.796875 68 28.5 68 
C 30 68 33.90625 67.6875 36.296875 65.421875 
C 34.5 65.421875 32.796875 64.625 32.796875 62.140625 
C 32.796875 59.5625 35.09375 58.859375 35.296875 58.859375 
C 34.796875 57.0625 34.796875 55.09375 34.796875 54.390625 
L 34.796875 42.578125 
z
" id="CMR17-11"/>
      <path d="M 15.09375 40 
L 29.09375 40 
L 29.09375 42.578125 
L 15.09375 42.578125 
L 15.09375 61 
L 13.296875 61 
C 13.09375 50.703125 9.59375 41.6875 1.09375 41.6875 
L 1.09375 40 
L 9.796875 40 
L 9.796875 12.046875 
C 9.796875 10.15625 9.796875 -1 21.40625 -1 
C 27.296875 -1 30.703125 4.78125 30.703125 12.140625 
L 30.703125 17.8125 
L 28.90625 17.8125 
L 28.90625 12.234375 
C 28.90625 5.375 26.203125 0.796875 22 0.796875 
C 19.09375 0.796875 15.09375 2.78125 15.09375 11.84375 
z
" id="CMR17-116"/>
      <path d="M 15.5 61.078125 
C 15.5 63.265625 13.703125 65.15625 11.40625 65.15625 
C 9.203125 65.15625 7.296875 63.375 7.296875 61.078125 
C 7.296875 58.890625 9.09375 57 11.40625 57 
C 13.59375 57 15.5 58.796875 15.5 61.078125 
z
M 3.796875 42.28125 
L 3.796875 39.703125 
C 9.40625 39.703125 10.203125 39.09375 10.203125 34.328125 
L 10.203125 6.671875 
C 10.203125 2.875 9.796875 2.390625 3.40625 2.390625 
L 3.40625 -0.203125 
C 5.796875 0 10.09375 0 12.59375 0 
C 15 0 19.09375 0 21.40625 -0.203125 
L 21.40625 2.390625 
C 15.5 2.390625 15.296875 2.984375 15.296875 6.5625 
L 15.296875 43.375 
z
" id="CMR17-105"/>
      <path d="M 39.09375 33.796875 
C 40 36 41.59375 40 47.40625 40 
L 47.40625 42.59375 
C 45.5 42.59375 43 42.59375 41.09375 42.59375 
C 39 42.59375 35.703125 42.59375 33.703125 42.6875 
L 33.703125 40.09375 
C 36.203125 39.890625 37.59375 38.703125 37.59375 36.109375 
C 37.59375 35.203125 37.59375 35 37 33.609375 
L 26 5.890625 
L 14.09375 35.71875 
C 13.5 37.015625 13.5 37.203125 13.5 37.609375 
C 13.5 40 16.796875 40 18.296875 40 
L 18.296875 42.6875 
C 15.90625 42.59375 11.5 42.59375 9 42.59375 
C 6.296875 42.59375 3.203125 42.59375 1 42.6875 
L 1 40 
C 4.796875 40 6.90625 40 8.09375 36.90625 
L 22.59375 0.6875 
C 23.203125 -0.796875 23.296875 -1 24.203125 -1 
C 25.09375 -1 25.203125 -0.796875 25.796875 0.6875 
z
" id="CMR17-118"/>
      <path d="M 67.59375 30.203125 
C 67.59375 35.1875 66.703125 43.59375 54.796875 43.59375 
C 48 43.59375 43.296875 39 41.5 33.609375 
L 41.40625 33.609375 
C 40.203125 41.8125 34.296875 43.59375 28.703125 43.59375 
C 20.796875 43.59375 16.703125 37.5 15.203125 33.5 
L 15.09375 33.5 
L 15.09375 43.59375 
L 3.296875 42.5 
L 3.296875 39.90625 
C 9.203125 39.90625 10.09375 39.296875 10.09375 34.5 
L 10.09375 6.6875 
C 10.09375 2.875 9.703125 2.390625 3.296875 2.390625 
L 3.296875 -0.203125 
C 5.703125 0 10.09375 0 12.703125 0 
C 15.296875 0 19.796875 0 22.203125 -0.203125 
L 22.203125 2.390625 
C 15.796875 2.390625 15.40625 2.78125 15.40625 6.6875 
L 15.40625 25.90625 
C 15.40625 35.109375 21 42 28 42 
C 35.40625 42 36.203125 35.40625 36.203125 30.59375 
L 36.203125 6.6875 
C 36.203125 2.875 35.796875 2.390625 29.40625 2.390625 
L 29.40625 -0.203125 
C 31.796875 0 36.203125 0 38.796875 0 
C 41.40625 0 45.90625 0 48.296875 -0.203125 
L 48.296875 2.390625 
C 41.90625 2.390625 41.5 2.78125 41.5 6.6875 
L 41.5 25.90625 
C 41.5 35.109375 47.09375 42 54.09375 42 
C 61.5 42 62.296875 35.40625 62.296875 30.59375 
L 62.296875 6.6875 
C 62.296875 2.875 61.90625 2.390625 55.5 2.390625 
L 55.5 -0.203125 
C 57.90625 0 62.296875 0 64.90625 0 
C 67.5 0 72 0 74.40625 -0.203125 
L 74.40625 2.390625 
C 68 2.390625 67.59375 2.78125 67.59375 6.6875 
z
" id="CMR17-109"/>
      <path d="M 36 25.828125 
C 36 32.375 36 35.84375 31.796875 39.734375 
C 28.09375 43 23.796875 44 20.40625 44 
C 12.5 44 6.796875 37.609375 6.796875 30.796875 
C 6.796875 27 9.796875 27 10.40625 27 
C 11.703125 27 14 27.78125 14 30.53125 
C 14 33 12.09375 34.078125 10.40625 34.078125 
C 10 34.078125 9.5 33.96875 9.203125 33.875 
C 11.296875 40.5 16.703125 42.40625 20.203125 42.40625 
C 25.203125 42.40625 30.703125 37.953125 30.703125 29.453125 
L 30.703125 25 
C 24.796875 25 17.703125 24.203125 12.09375 21.203125 
C 5.796875 17.703125 4 12.703125 4 8.90625 
C 4 1.203125 13 -1 18.296875 -1 
C 23.796875 -1 28.90625 2.171875 31.09375 7.984375 
C 31.296875 3.640625 34.09375 -0.28125 38.5 -0.28125 
C 40.59375 -0.28125 45.90625 1.09375 45.90625 8.859375 
L 45.90625 14.375 
L 44.09375 14.375 
L 44.09375 8.78125 
C 44.09375 2.78125 41.40625 2 40.09375 2 
C 36 2 36 7.15625 36 11.53125 
z
M 30.703125 13.59375 
C 30.703125 4.953125 24.5 0.59375 19 0.59375 
C 14 0.59375 10.09375 4.296875 10.09375 8.90625 
C 10.09375 11.890625 11.40625 17.1875 17.203125 20.390625 
C 22 23.09375 27.5 23.5 30.703125 23.5 
z
" id="CMR17-97"/>
     </defs>
     <use transform="scale(0.996264)" xlink:href="#CMR17-99"/>
     <use transform="translate(40.48566 0)scale(0.996264)" xlink:href="#CMR17-111"/>
     <use transform="translate(86.176138 0)scale(0.996264)" xlink:href="#CMR17-115"/>
     <use transform="translate(121.977475 0)scale(0.996264)" xlink:href="#CMR17-104"/>
     <use transform="translate(202.948811 0)scale(0.996264)" xlink:href="#CMR17-101"/>
     <use transform="translate(243.434472 0)scale(0.996264)" xlink:href="#CMR17-11"/>
     <use transform="translate(295.779149 0)scale(0.996264)" xlink:href="#CMR17-101"/>
     <use transform="translate(336.26481 0)scale(0.996264)" xlink:href="#CMR17-99"/>
     <use transform="translate(376.75047 0)scale(0.996264)" xlink:href="#CMR17-116"/>
     <use transform="translate(412.031238 0)scale(0.996264)" xlink:href="#CMR17-105"/>
     <use transform="translate(436.902296 0)scale(0.996264)" xlink:href="#CMR17-118"/>
     <use transform="translate(482.592758 0)scale(0.996264)" xlink:href="#CMR17-101"/>
     <use transform="translate(553.154385 0)scale(0.996264)" xlink:href="#CMR17-109"/>
     <use transform="translate(630.073975 0)scale(0.996264)" xlink:href="#CMR17-97"/>
     <use transform="translate(675.764452 0)scale(0.996264)" xlink:href="#CMR17-115"/>
     <use transform="translate(711.56579 0)scale(0.996264)" xlink:href="#CMR17-115"/>
    </g>
   </g>
  </g>
 </g>
 <defs>
  <clipPath id="pae6a7c799b">
   <rect height="209.664547" width="268.197707" x="76.865589" y="63.911226"/>
  </clipPath>
  <clipPath id="p3a2211b4f2">
   <rect height="209.664547" width="268.197707" x="407.614792" y="63.911226"/>
  </clipPath>
 </defs>
</svg>
