<?xml version="1.0" encoding="utf-8" standalone="no"?>
<!DOCTYPE svg PUBLIC "-//W3C//DTD SVG 1.1//EN"
  "http://www.w3.org/Graphics/SVG/1.1/DTD/svg11.dtd">
<!-- Created with matplotlib (https://matplotlib.org/) -->
<svg height="504pt" version="1.1" viewBox="0 0 576 504" width="576pt" xmlns="http://www.w3.org/2000/svg" xmlns:xlink="http://www.w3.org/1999/xlink">
 <metadata>
  <rdf:RDF xmlns:cc="http://creativecommons.org/ns#" xmlns:dc="http://purl.org/dc/elements/1.1/" xmlns:rdf="http://www.w3.org/1999/02/22-rdf-syntax-ns#">
   <cc:Work>
    <dc:type rdf:resource="http://purl.org/dc/dcmitype/StillImage"/>
    <dc:date>2023-01-24T17:14:29.201934</dc:date>
    <dc:format>image/svg+xml</dc:format>
    <dc:creator>
     <cc:Agent>
      <dc:title>Matplotlib v3.3.4, https://matplotlib.org/</dc:title>
     </cc:Agent>
    </dc:creator>
   </cc:Work>
  </rdf:RDF>
 </metadata>
 <defs>
  <style type="text/css">*{stroke-linecap:butt;stroke-linejoin:round;}</style>
 </defs>
 <g id="figure_1">
  <g id="patch_1">
   <path d="M 0 504 
L 576 504 
L 576 0 
L 0 0 
z
" style="fill:#ffffff;"/>
  </g>
  <g id="axes_1">
   <g id="patch_2">
    <path d="M 65.143137 440.295773 
L 503.052876 440.295773 
L 503.052876 75.6 
L 65.143137 75.6 
z
" style="fill:#ffffff;"/>
   </g>
   <g id="matplotlib.axis_1">
    <g id="xtick_1">
     <g id="line2d_1">
      <defs>
       <path d="M 0 0 
L 0 3.5 
" id="me828fd44c2" style="stroke:#000000;stroke-width:0.8;"/>
      </defs>
      <g>
       <use style="stroke:#000000;stroke-width:0.8;" x="85.048125" xlink:href="#me828fd44c2" y="440.295773"/>
      </g>
     </g>
     <g id="text_1">
      <!-- $\mathdefault{0}$ -->
      <g transform="translate(81.146131 458.365361)scale(0.16 -0.16)">
       <defs>
        <path d="M 42 31.640625 
C 42 37.75 41.90625 48.125 37.703125 56.109375 
C 34 63.109375 28.09375 65.59375 22.90625 65.59375 
C 18.09375 65.59375 12 63.40625 8.203125 56.203125 
C 4.203125 48.71875 3.796875 39.4375 3.796875 31.640625 
C 3.796875 25.953125 3.90625 17.28125 7 9.671875 
C 11.296875 -0.609375 19 -2 22.90625 -2 
C 27.5 -2 34.5 -0.109375 38.59375 9.375 
C 41.59375 16.28125 42 24.359375 42 31.640625 
z
M 22.90625 -0.40625 
C 16.5 -0.40625 12.703125 5.078125 11.296875 12.6875 
C 10.203125 18.5625 10.203125 27.15625 10.203125 32.75 
C 10.203125 40.4375 10.203125 46.828125 11.5 52.921875 
C 13.40625 61.390625 19 64 22.90625 64 
C 27 64 32.296875 61.296875 34.203125 53.125 
C 35.5 47.4375 35.59375 40.734375 35.59375 32.75 
C 35.59375 26.25 35.59375 18.265625 34.40625 12.375 
C 32.296875 1.484375 26.40625 -0.40625 22.90625 -0.40625 
z
" id="CMR17-48"/>
       </defs>
       <use transform="scale(0.996264)" xlink:href="#CMR17-48"/>
      </g>
     </g>
    </g>
    <g id="xtick_2">
     <g id="line2d_2">
      <g>
       <use style="stroke:#000000;stroke-width:0.8;" x="148.238563" xlink:href="#me828fd44c2" y="440.295773"/>
      </g>
     </g>
     <g id="text_2">
      <!-- $\mathdefault{10}$ -->
      <g transform="translate(140.434576 458.365361)scale(0.16 -0.16)">
       <defs>
        <path d="M 26.59375 63.40625 
C 26.59375 65.5 26.5 65.5 25.09375 65.5 
C 21.203125 61.1875 15.296875 59.796875 9.703125 59.796875 
C 9.40625 59.796875 8.90625 59.796875 8.796875 59.5 
C 8.703125 59.296875 8.703125 59.09375 8.703125 57 
C 11.796875 57 17 57.59375 21 59.984375 
L 21 7.203125 
C 21 3.6875 20.796875 2.5 12.203125 2.5 
L 9.203125 2.5 
L 9.203125 0 
C 14 0 19 0 23.796875 0 
C 28.59375 0 33.59375 0 38.40625 0 
L 38.40625 2.5 
L 35.40625 2.5 
C 26.796875 2.5 26.59375 3.59375 26.59375 7.15625 
z
" id="CMR17-49"/>
       </defs>
       <use transform="scale(0.996264)" xlink:href="#CMR17-49"/>
       <use transform="translate(45.690477 0)scale(0.996264)" xlink:href="#CMR17-48"/>
      </g>
     </g>
    </g>
    <g id="xtick_3">
     <g id="line2d_3">
      <g>
       <use style="stroke:#000000;stroke-width:0.8;" x="211.429002" xlink:href="#me828fd44c2" y="440.295773"/>
      </g>
     </g>
     <g id="text_3">
      <!-- $\mathdefault{20}$ -->
      <g transform="translate(203.625015 458.365361)scale(0.16 -0.16)">
       <defs>
        <path d="M 41.703125 15.453125 
L 39.90625 15.453125 
C 38.90625 8.375 38.09375 7.171875 37.703125 6.5625 
C 37.203125 5.765625 30 5.765625 28.59375 5.765625 
L 9.40625 5.765625 
C 13 9.671875 20 16.75 28.5 24.953125 
C 34.59375 30.734375 41.703125 37.53125 41.703125 47.421875 
C 41.703125 59.21875 32.296875 66 21.796875 66 
C 10.796875 66 4.09375 56.3125 4.09375 47.34375 
C 4.09375 43.4375 7 42.9375 8.203125 42.9375 
C 9.203125 42.9375 12.203125 43.546875 12.203125 47.03125 
C 12.203125 50.109375 9.59375 51 8.203125 51 
C 7.59375 51 7 50.90625 6.59375 50.703125 
C 8.5 59.21875 14.296875 63.40625 20.40625 63.40625 
C 29.09375 63.40625 34.796875 56.515625 34.796875 47.421875 
C 34.796875 38.734375 29.703125 31.25 24 24.75 
L 4.09375 2.28125 
L 4.09375 0 
L 39.296875 0 
z
" id="CMR17-50"/>
       </defs>
       <use transform="scale(0.996264)" xlink:href="#CMR17-50"/>
       <use transform="translate(45.690477 0)scale(0.996264)" xlink:href="#CMR17-48"/>
      </g>
     </g>
    </g>
    <g id="xtick_4">
     <g id="line2d_4">
      <g>
       <use style="stroke:#000000;stroke-width:0.8;" x="274.619441" xlink:href="#me828fd44c2" y="440.295773"/>
      </g>
     </g>
     <g id="text_4">
      <!-- $\mathdefault{30}$ -->
      <g transform="translate(266.815454 458.365361)scale(0.16 -0.16)">
       <defs>
        <path d="M 22.09375 33.703125 
C 31 33.703125 34.90625 25.96875 34.90625 17.03125 
C 34.90625 5 28.5 0.390625 22.703125 0.390625 
C 17.40625 0.390625 8.796875 3.03125 6.09375 10.828125 
C 6.59375 10.625 7.09375 10.625 7.59375 10.625 
C 10 10.625 11.796875 12.21875 11.796875 14.8125 
C 11.796875 17.703125 9.59375 19 7.59375 19 
C 5.90625 19 3.296875 18.203125 3.296875 14.46875 
C 3.296875 5.234375 12.296875 -2 22.90625 -2 
C 34 -2 42.5 6.71875 42.5 16.953125 
C 42.5 26.671875 34.5 33.703125 25 34.796875 
C 32.59375 36.375 39.90625 43.0625 39.90625 52.015625 
C 39.90625 59.6875 32 65.296875 23 65.296875 
C 13.90625 65.296875 5.90625 59.828125 5.90625 52.015625 
C 5.90625 48.59375 8.5 48 9.796875 48 
C 11.90625 48 13.703125 49.296875 13.703125 51.890625 
C 13.703125 54.46875 11.90625 55.765625 9.796875 55.765625 
C 9.40625 55.765625 8.90625 55.765625 8.5 55.578125 
C 11.40625 61.859375 19.296875 63 22.796875 63 
C 26.296875 63 32.90625 61.328125 32.90625 51.875 
C 32.90625 49.109375 32.5 44.1875 29.09375 39.84375 
C 26.09375 36 22.703125 36 19.40625 35.6875 
C 18.90625 35.6875 16.59375 35.453125 16.203125 35.453125 
C 15.5 35.359375 15.09375 35.265625 15.09375 34.5 
C 15.09375 33.796875 15.203125 33.703125 17.203125 33.703125 
z
" id="CMR17-51"/>
       </defs>
       <use transform="scale(0.996264)" xlink:href="#CMR17-51"/>
       <use transform="translate(45.690477 0)scale(0.996264)" xlink:href="#CMR17-48"/>
      </g>
     </g>
    </g>
    <g id="xtick_5">
     <g id="line2d_5">
      <g>
       <use style="stroke:#000000;stroke-width:0.8;" x="337.809879" xlink:href="#me828fd44c2" y="440.295773"/>
      </g>
     </g>
     <g id="text_5">
      <!-- $\mathdefault{40}$ -->
      <g transform="translate(330.005892 458.365361)scale(0.16 -0.16)">
       <defs>
        <path d="M 33.59375 64.40625 
C 33.59375 66.5 33.5 66.5 31.703125 66.5 
L 2 19.59375 
L 2 17 
L 27.796875 17 
L 27.796875 7.140625 
C 27.796875 3.5 27.59375 2.5 20.59375 2.5 
L 18.703125 2.5 
L 18.703125 0 
C 21.90625 0 27.296875 0 30.703125 0 
C 34.09375 0 39.5 0 42.703125 0 
L 42.703125 2.5 
L 40.796875 2.5 
C 33.796875 2.5 33.59375 3.5 33.59375 7.140625 
L 33.59375 17 
L 43.796875 17 
L 43.796875 19.59375 
L 33.59375 19.59375 
z
M 28.09375 57.859375 
L 28.09375 19.59375 
L 4 19.59375 
z
" id="CMR17-52"/>
       </defs>
       <use transform="scale(0.996264)" xlink:href="#CMR17-52"/>
       <use transform="translate(45.690477 0)scale(0.996264)" xlink:href="#CMR17-48"/>
      </g>
     </g>
    </g>
    <g id="xtick_6">
     <g id="line2d_6">
      <g>
       <use style="stroke:#000000;stroke-width:0.8;" x="401.000318" xlink:href="#me828fd44c2" y="440.295773"/>
      </g>
     </g>
     <g id="text_6">
      <!-- $\mathdefault{50}$ -->
      <g transform="translate(393.196331 458.365361)scale(0.16 -0.16)">
       <defs>
        <path d="M 11.40625 57.6875 
C 12.40625 57.28125 16.5 56 20.703125 56 
C 30 56 35.09375 61.109375 38 64.0625 
C 38 64.953125 38 65.5 37.40625 65.5 
C 37.296875 65.5 37.09375 65.5 36.296875 65.046875 
C 32.796875 63.40625 28.703125 62.078125 23.703125 62.078125 
C 20.703125 62.078125 16.203125 62.484375 11.296875 64.671875 
C 10.203125 65.171875 10 65.171875 9.90625 65.171875 
C 9.40625 65.171875 9.296875 65.0625 9.296875 63.078125 
L 9.296875 34.421875 
C 9.296875 32.640625 9.296875 32.140625 10.296875 32.140625 
C 10.796875 32.140625 11 32.34375 11.5 33.03125 
C 14.703125 37.515625 19.09375 39.40625 24.09375 39.40625 
C 27.59375 39.40625 35.09375 37.21875 35.09375 20.140625 
C 35.09375 16.953125 35.09375 11.171875 32.09375 6.578125 
C 29.59375 2.484375 25.703125 0.390625 21.40625 0.390625 
C 14.796875 0.390625 8.09375 5 6.296875 12.71875 
C 6.703125 12.609375 7.5 12.421875 7.90625 12.421875 
C 9.203125 12.421875 11.703125 13.125 11.703125 16.21875 
C 11.703125 18.90625 9.796875 20 7.90625 20 
C 5.59375 20 4.09375 18.59375 4.09375 15.796875 
C 4.09375 7.09375 11 -2 21.59375 -2 
C 31.90625 -2 41.703125 6.875 41.703125 19.75 
C 41.703125 31.71875 33.90625 41 24.203125 41 
C 19.09375 41 14.796875 39.109375 11.40625 35.53125 
z
" id="CMR17-53"/>
       </defs>
       <use transform="scale(0.996264)" xlink:href="#CMR17-53"/>
       <use transform="translate(45.690477 0)scale(0.996264)" xlink:href="#CMR17-48"/>
      </g>
     </g>
    </g>
    <g id="xtick_7">
     <g id="line2d_7">
      <g>
       <use style="stroke:#000000;stroke-width:0.8;" x="464.190757" xlink:href="#me828fd44c2" y="440.295773"/>
      </g>
     </g>
     <g id="text_7">
      <!-- $\mathdefault{60}$ -->
      <g transform="translate(456.38677 458.365361)scale(0.16 -0.16)">
       <defs>
        <path d="M 10.59375 34 
C 10.59375 57.65625 21.796875 63 28.296875 63 
C 30.40625 63 35.5 62.640625 37.5 59 
C 35.90625 59 32.90625 59 32.90625 55.515625 
C 32.90625 52.828125 35.09375 51.921875 36.5 51.921875 
C 37.40625 51.921875 40.09375 52.3125 40.09375 55.625 
C 40.09375 61.78125 35.09375 65.296875 28.203125 65.296875 
C 16.296875 65.296875 3.796875 52.96875 3.796875 31 
C 3.796875 3.953125 15.09375 -2 23.09375 -2 
C 32.796875 -2 42 6.671875 42 20.046875 
C 42 32.515625 33.90625 41.59375 23.703125 41.59375 
C 17.59375 41.59375 13.09375 37.609375 10.59375 30.625 
z
M 23.09375 0.390625 
C 10.796875 0.390625 10.796875 18.75 10.796875 22.4375 
C 10.796875 29.625 14.203125 40 23.5 40 
C 25.203125 40 30.09375 40 33.40625 33.125 
C 35.203125 29.21875 35.203125 25.140625 35.203125 20.140625 
C 35.203125 14.75 35.203125 10.78125 33.09375 6.78125 
C 30.90625 2.671875 27.703125 0.390625 23.09375 0.390625 
z
" id="CMR17-54"/>
       </defs>
       <use transform="scale(0.996264)" xlink:href="#CMR17-54"/>
       <use transform="translate(45.690477 0)scale(0.996264)" xlink:href="#CMR17-48"/>
      </g>
     </g>
    </g>
    <g id="text_8">
     <!-- $t$ -->
     <g transform="translate(279.870847 482.069243)scale(0.24 -0.24)">
      <defs>
       <path d="M 20.09375 40.09375 
L 29.296875 40.09375 
C 31.203125 40.09375 32.203125 40.09375 32.203125 41.890625 
C 32.203125 43 31.59375 43 29.59375 43 
L 20.796875 43 
L 24.5 57.6875 
C 24.90625 59.078125 24.90625 59.28125 24.90625 60 
C 24.90625 61.609375 23.59375 62.5 22.296875 62.5 
C 21.5 62.5 19.203125 62.203125 18.40625 58.984375 
L 14.5 43 
L 5.09375 43 
C 3.09375 43 2.203125 43 2.203125 41.09375 
C 2.203125 40.09375 2.90625 40.09375 4.796875 40.09375 
L 13.703125 40.09375 
L 7.09375 13.765625 
C 6.296875 10.28125 6 9.28125 6 7.984375 
C 6 3.296875 9.296875 -1 14.90625 -1 
C 25 -1 30.40625 13.5625 30.40625 14.25 
C 30.40625 14.859375 30 15.15625 29.40625 15.15625 
C 29.203125 15.15625 28.796875 15.15625 28.59375 14.75 
C 28.5 14.65625 28.40625 14.546875 27.703125 12.953125 
C 25.59375 7.984375 21 1 15.203125 1 
C 12.203125 1 12 3.5 12 5.6875 
C 12 5.78125 12 7.6875 12.296875 8.875 
z
" id="CMMI12-116"/>
      </defs>
      <use transform="scale(0.996264)" xlink:href="#CMMI12-116"/>
     </g>
    </g>
   </g>
   <g id="matplotlib.axis_2">
    <g id="ytick_1">
     <g id="line2d_8">
      <defs>
       <path d="M 0 0 
L -3.5 0 
" id="mf31ce9ca07" style="stroke:#000000;stroke-width:0.8;"/>
      </defs>
      <g>
       <use style="stroke:#000000;stroke-width:0.8;" x="65.143137" xlink:href="#mf31ce9ca07" y="435.583489"/>
      </g>
     </g>
     <g id="text_9">
      <!-- $\mathdefault{0}$ -->
      <g transform="translate(50.33915 441.118283)scale(0.16 -0.16)">
       <use transform="scale(0.996264)" xlink:href="#CMR17-48"/>
      </g>
     </g>
    </g>
    <g id="ytick_2">
     <g id="line2d_9">
      <g>
       <use style="stroke:#000000;stroke-width:0.8;" x="65.143137" xlink:href="#mf31ce9ca07" y="381.90163"/>
      </g>
     </g>
     <g id="text_10">
      <!-- $\mathdefault{2}$ -->
      <g transform="translate(50.33915 387.436424)scale(0.16 -0.16)">
       <use transform="scale(0.996264)" xlink:href="#CMR17-50"/>
      </g>
     </g>
    </g>
    <g id="ytick_3">
     <g id="line2d_10">
      <g>
       <use style="stroke:#000000;stroke-width:0.8;" x="65.143137" xlink:href="#mf31ce9ca07" y="328.219771"/>
      </g>
     </g>
     <g id="text_11">
      <!-- $\mathdefault{4}$ -->
      <g transform="translate(50.33915 333.754565)scale(0.16 -0.16)">
       <use transform="scale(0.996264)" xlink:href="#CMR17-52"/>
      </g>
     </g>
    </g>
    <g id="ytick_4">
     <g id="line2d_11">
      <g>
       <use style="stroke:#000000;stroke-width:0.8;" x="65.143137" xlink:href="#mf31ce9ca07" y="274.537912"/>
      </g>
     </g>
     <g id="text_12">
      <!-- $\mathdefault{6}$ -->
      <g transform="translate(50.33915 280.072706)scale(0.16 -0.16)">
       <use transform="scale(0.996264)" xlink:href="#CMR17-54"/>
      </g>
     </g>
    </g>
    <g id="ytick_5">
     <g id="line2d_12">
      <g>
       <use style="stroke:#000000;stroke-width:0.8;" x="65.143137" xlink:href="#mf31ce9ca07" y="220.856053"/>
      </g>
     </g>
     <g id="text_13">
      <!-- $\mathdefault{8}$ -->
      <g transform="translate(50.33915 226.390847)scale(0.16 -0.16)">
       <defs>
        <path d="M 27.203125 35.375 
C 33.5 38.546875 39.90625 43.328125 39.90625 50.984375 
C 39.90625 60.015625 31.09375 65.296875 23 65.296875 
C 13.90625 65.296875 5.90625 58.734375 5.90625 49.6875 
C 5.90625 47.203125 6.5 42.921875 10.40625 39.140625 
C 11.40625 38.15625 15.59375 35.171875 18.296875 33.28125 
C 13.796875 30.984375 3.296875 25.53125 3.296875 14.59375 
C 3.296875 4.359375 13.09375 -2 22.796875 -2 
C 33.5 -2 42.5 5.65625 42.5 15.78125 
C 42.5 24.84375 36.40625 29.015625 32.40625 31.703125 
z
M 14.09375 44.09375 
C 13.296875 44.59375 9.296875 47.671875 9.296875 52.359375 
C 9.296875 58.421875 15.59375 63 22.796875 63 
C 30.703125 63 36.5 57.4375 36.5 50.96875 
C 36.5 41.703125 26.09375 36.421875 25.59375 36.421875 
C 25.5 36.421875 25.40625 36.421875 24.59375 37.03125 
z
M 32.5 23.734375 
C 34 22.640625 38.796875 19.375 38.796875 13.296875 
C 38.796875 5.953125 31.40625 0.390625 23 0.390625 
C 13.90625 0.390625 7 6.84375 7 14.6875 
C 7 22.546875 13.09375 29.09375 20 32.1875 
z
" id="CMR17-56"/>
       </defs>
       <use transform="scale(0.996264)" xlink:href="#CMR17-56"/>
      </g>
     </g>
    </g>
    <g id="ytick_6">
     <g id="line2d_13">
      <g>
       <use style="stroke:#000000;stroke-width:0.8;" x="65.143137" xlink:href="#mf31ce9ca07" y="167.174194"/>
      </g>
     </g>
     <g id="text_14">
      <!-- $\mathdefault{10}$ -->
      <g transform="translate(42.535163 172.708988)scale(0.16 -0.16)">
       <use transform="scale(0.996264)" xlink:href="#CMR17-49"/>
       <use transform="translate(45.690477 0)scale(0.996264)" xlink:href="#CMR17-48"/>
      </g>
     </g>
    </g>
    <g id="ytick_7">
     <g id="line2d_14">
      <g>
       <use style="stroke:#000000;stroke-width:0.8;" x="65.143137" xlink:href="#mf31ce9ca07" y="113.492334"/>
      </g>
     </g>
     <g id="text_15">
      <!-- $\mathdefault{12}$ -->
      <g transform="translate(42.535163 119.027129)scale(0.16 -0.16)">
       <use transform="scale(0.996264)" xlink:href="#CMR17-49"/>
       <use transform="translate(45.690477 0)scale(0.996264)" xlink:href="#CMR17-50"/>
      </g>
     </g>
    </g>
    <g id="text_16">
     <!-- $\tau_{\rm int}$ -->
     <g transform="translate(33.884405 272.818992)rotate(-90)scale(0.24 -0.24)">
      <defs>
       <path d="M 28.703125 37.625 
L 45.296875 37.625 
C 46.59375 37.625 49.90625 37.625 49.90625 40.8125 
C 49.90625 43 48 43 46.203125 43 
L 18.703125 43 
C 16.40625 43 13 43 8.40625 38.125 
C 5.796875 35.234375 2.59375 29.953125 2.59375 29.359375 
C 2.59375 28.765625 3.09375 28.5625 3.703125 28.5625 
C 4.40625 28.5625 4.5 28.859375 5 29.453125 
C 10.203125 37.625 15.40625 37.625 17.90625 37.625 
L 26.203125 37.625 
L 15.796875 3.484375 
C 15.296875 1.984375 15.296875 1.78125 15.296875 1.484375 
C 15.296875 0.390625 16 -1 18 -1 
C 21.09375 -1 21.59375 1.6875 21.90625 3.171875 
z
" id="CMMI12-28"/>
       <path d="M 15.5 61.078125 
C 15.5 63.265625 13.703125 65.15625 11.40625 65.15625 
C 9.203125 65.15625 7.296875 63.375 7.296875 61.078125 
C 7.296875 58.890625 9.09375 57 11.40625 57 
C 13.59375 57 15.5 58.796875 15.5 61.078125 
z
M 3.796875 42.28125 
L 3.796875 39.703125 
C 9.40625 39.703125 10.203125 39.09375 10.203125 34.328125 
L 10.203125 6.671875 
C 10.203125 2.875 9.796875 2.390625 3.40625 2.390625 
L 3.40625 -0.203125 
C 5.796875 0 10.09375 0 12.59375 0 
C 15 0 19.09375 0 21.40625 -0.203125 
L 21.40625 2.390625 
C 15.5 2.390625 15.296875 2.984375 15.296875 6.5625 
L 15.296875 43.375 
z
" id="CMR17-105"/>
       <path d="M 41.5 30.203125 
C 41.5 35.296875 40.5 43.59375 28.703125 43.59375 
C 20.796875 43.59375 16.703125 37.5 15.203125 33.5 
L 15.09375 33.5 
L 15.09375 43.59375 
L 3.296875 42.5 
L 3.296875 39.90625 
C 9.203125 39.90625 10.09375 39.296875 10.09375 34.5 
L 10.09375 6.6875 
C 10.09375 2.875 9.703125 2.390625 3.296875 2.390625 
L 3.296875 -0.203125 
C 5.703125 0 10.09375 0 12.703125 0 
C 15.296875 0 19.796875 0 22.203125 -0.203125 
L 22.203125 2.390625 
C 15.796875 2.390625 15.40625 2.78125 15.40625 6.6875 
L 15.40625 25.90625 
C 15.40625 35.109375 21 42 28 42 
C 35.40625 42 36.203125 35.40625 36.203125 30.59375 
L 36.203125 6.6875 
C 36.203125 2.875 35.796875 2.390625 29.40625 2.390625 
L 29.40625 -0.203125 
C 31.796875 0 36.203125 0 38.796875 0 
C 41.40625 0 45.90625 0 48.296875 -0.203125 
L 48.296875 2.390625 
C 41.90625 2.390625 41.5 2.78125 41.5 6.6875 
z
" id="CMR17-110"/>
       <path d="M 15.09375 40 
L 29.09375 40 
L 29.09375 42.578125 
L 15.09375 42.578125 
L 15.09375 61 
L 13.296875 61 
C 13.09375 50.703125 9.59375 41.6875 1.09375 41.6875 
L 1.09375 40 
L 9.796875 40 
L 9.796875 12.046875 
C 9.796875 10.15625 9.796875 -1 21.40625 -1 
C 27.296875 -1 30.703125 4.78125 30.703125 12.140625 
L 30.703125 17.8125 
L 28.90625 17.8125 
L 28.90625 12.234375 
C 28.90625 5.375 26.203125 0.796875 22 0.796875 
C 19.09375 0.796875 15.09375 2.78125 15.09375 11.84375 
z
" id="CMR17-116"/>
      </defs>
      <use transform="scale(0.996264)" xlink:href="#CMMI12-28"/>
      <use transform="translate(42.363841 -14.943915)scale(0.697382)" xlink:href="#CMR17-105"/>
      <use transform="translate(59.7735 -14.943915)scale(0.697382)" xlink:href="#CMR17-110"/>
      <use transform="translate(93.578387 -14.943915)scale(0.697382)" xlink:href="#CMR17-116"/>
     </g>
    </g>
   </g>
   <g id="LineCollection_1">
    <path clip-path="url(#p7e02e9e557)" d="M 85.048125 423.718692 
L 85.048125 417.310714 
" style="fill:none;stroke:#000000;stroke-width:2;"/>
    <path clip-path="url(#p7e02e9e557)" d="M 91.367169 420.865012 
L 91.367169 413.141717 
" style="fill:none;stroke:#000000;stroke-width:2;"/>
    <path clip-path="url(#p7e02e9e557)" d="M 97.686212 414.193768 
L 97.686212 401.35421 
" style="fill:none;stroke:#000000;stroke-width:2;"/>
    <path clip-path="url(#p7e02e9e557)" d="M 104.005256 409.119179 
L 104.005256 391.139505 
" style="fill:none;stroke:#000000;stroke-width:2;"/>
    <path clip-path="url(#p7e02e9e557)" d="M 110.3243 407.67523 
L 110.3243 388.922104 
" style="fill:none;stroke:#000000;stroke-width:2;"/>
    <path clip-path="url(#p7e02e9e557)" d="M 116.643344 407.593557 
L 116.643344 388.797306 
" style="fill:none;stroke:#000000;stroke-width:2;"/>
    <path clip-path="url(#p7e02e9e557)" d="M 122.962388 406.420959 
L 122.962388 387.012886 
" style="fill:none;stroke:#000000;stroke-width:2;"/>
    <path clip-path="url(#p7e02e9e557)" d="M 129.281432 404.74976 
L 129.281432 384.493363 
" style="fill:none;stroke:#000000;stroke-width:2;"/>
    <path clip-path="url(#p7e02e9e557)" d="M 135.600476 404.275522 
L 135.600476 383.783445 
" style="fill:none;stroke:#000000;stroke-width:2;"/>
    <path clip-path="url(#p7e02e9e557)" d="M 141.91952 404.851554 
L 141.91952 384.646037 
" style="fill:none;stroke:#000000;stroke-width:2;"/>
    <path clip-path="url(#p7e02e9e557)" d="M 148.238563 405.698391 
L 148.238563 385.920127 
" style="fill:none;stroke:#000000;stroke-width:2;"/>
    <path clip-path="url(#p7e02e9e557)" d="M 154.557607 405.939744 
L 154.557607 386.284553 
" style="fill:none;stroke:#000000;stroke-width:2;"/>
    <path clip-path="url(#p7e02e9e557)" d="M 160.876651 405.440614 
L 160.876651 385.531539 
" style="fill:none;stroke:#000000;stroke-width:2;"/>
    <path clip-path="url(#p7e02e9e557)" d="M 167.195695 404.019659 
L 167.195695 383.401352 
" style="fill:none;stroke:#000000;stroke-width:2;"/>
    <path clip-path="url(#p7e02e9e557)" d="M 173.514739 399.270133 
L 173.514739 372.740971 
" style="fill:none;stroke:#000000;stroke-width:2;"/>
    <path clip-path="url(#p7e02e9e557)" d="M 179.833783 394.409395 
L 179.833783 361.284173 
" style="fill:none;stroke:#000000;stroke-width:2;"/>
    <path clip-path="url(#p7e02e9e557)" d="M 186.152827 389.973504 
L 186.152827 354.304447 
" style="fill:none;stroke:#000000;stroke-width:2;"/>
    <path clip-path="url(#p7e02e9e557)" d="M 192.47187 385.315141 
L 192.47187 342.350006 
" style="fill:none;stroke:#000000;stroke-width:2;"/>
    <path clip-path="url(#p7e02e9e557)" d="M 198.790914 382.670416 
L 198.790914 338.151515 
" style="fill:none;stroke:#000000;stroke-width:2;"/>
    <path clip-path="url(#p7e02e9e557)" d="M 205.109958 380.777278 
L 205.109958 335.186063 
" style="fill:none;stroke:#000000;stroke-width:2;"/>
    <path clip-path="url(#p7e02e9e557)" d="M 211.429002 376.686315 
L 211.429002 323.360214 
" style="fill:none;stroke:#000000;stroke-width:2;"/>
    <path clip-path="url(#p7e02e9e557)" d="M 217.748046 373.819029 
L 217.748046 318.789009 
" style="fill:none;stroke:#000000;stroke-width:2;"/>
    <path clip-path="url(#p7e02e9e557)" d="M 224.06709 368.475966 
L 224.06709 304.283519 
" style="fill:none;stroke:#000000;stroke-width:2;"/>
    <path clip-path="url(#p7e02e9e557)" d="M 230.386134 362.316739 
L 230.386134 287.828583 
" style="fill:none;stroke:#000000;stroke-width:2;"/>
    <path clip-path="url(#p7e02e9e557)" d="M 236.705178 354.189015 
L 236.705178 267.46834 
" style="fill:none;stroke:#000000;stroke-width:2;"/>
    <path clip-path="url(#p7e02e9e557)" d="M 243.024221 343.704513 
L 243.024221 242.556218 
" style="fill:none;stroke:#000000;stroke-width:2;"/>
    <path clip-path="url(#p7e02e9e557)" d="M 249.343265 333.436189 
L 249.343265 217.36709 
" style="fill:none;stroke:#000000;stroke-width:2;"/>
    <path clip-path="url(#p7e02e9e557)" d="M 255.662309 323.07685 
L 255.662309 191.427165 
" style="fill:none;stroke:#000000;stroke-width:2;"/>
    <path clip-path="url(#p7e02e9e557)" d="M 261.981353 312.537604 
L 261.981353 164.626776 
" style="fill:none;stroke:#000000;stroke-width:2;"/>
    <path clip-path="url(#p7e02e9e557)" d="M 268.300397 302.579895 
L 268.300397 138.191085 
" style="fill:none;stroke:#000000;stroke-width:2;"/>
    <path clip-path="url(#p7e02e9e557)" d="M 274.619441 293.73886 
L 274.619441 112.949136 
" style="fill:none;stroke:#000000;stroke-width:2;"/>
    <path clip-path="url(#p7e02e9e557)" d="M 280.938485 288.110779 
L 280.938485 92.177081 
" style="fill:none;stroke:#000000;stroke-width:2;"/>
    <path clip-path="url(#p7e02e9e557)" d="M 287.257528 289.854036 
L 287.257528 94.931911 
" style="fill:none;stroke:#000000;stroke-width:2;"/>
    <path clip-path="url(#p7e02e9e557)" d="M 293.576572 297.363495 
L 293.576572 118.64711 
" style="fill:none;stroke:#000000;stroke-width:2;"/>
    <path clip-path="url(#p7e02e9e557)" d="M 299.895616 306.951074 
L 299.895616 145.10874 
" style="fill:none;stroke:#000000;stroke-width:2;"/>
    <path clip-path="url(#p7e02e9e557)" d="M 306.21466 315.877893 
L 306.21466 169.950885 
" style="fill:none;stroke:#000000;stroke-width:2;"/>
    <path clip-path="url(#p7e02e9e557)" d="M 312.533704 322.344904 
L 312.533704 190.258502 
" style="fill:none;stroke:#000000;stroke-width:2;"/>
    <path clip-path="url(#p7e02e9e557)" d="M 318.852748 328.342667 
L 318.852748 199.963648 
" style="fill:none;stroke:#000000;stroke-width:2;"/>
    <path clip-path="url(#p7e02e9e557)" d="M 325.171792 332.840025 
L 325.171792 216.404914 
" style="fill:none;stroke:#000000;stroke-width:2;"/>
    <path clip-path="url(#p7e02e9e557)" d="M 331.490835 336.115324 
L 331.490835 221.727699 
" style="fill:none;stroke:#000000;stroke-width:2;"/>
    <path clip-path="url(#p7e02e9e557)" d="M 337.809879 338.137645 
L 337.809879 225.059289 
" style="fill:none;stroke:#000000;stroke-width:2;"/>
    <path clip-path="url(#p7e02e9e557)" d="M 344.128923 339.841411 
L 344.128923 236.316278 
" style="fill:none;stroke:#000000;stroke-width:2;"/>
    <path clip-path="url(#p7e02e9e557)" d="M 350.447967 341.597851 
L 350.447967 239.137727 
" style="fill:none;stroke:#000000;stroke-width:2;"/>
    <path clip-path="url(#p7e02e9e557)" d="M 356.767011 344.366063 
L 356.767011 243.637529 
" style="fill:none;stroke:#000000;stroke-width:2;"/>
    <path clip-path="url(#p7e02e9e557)" d="M 363.086055 350.535947 
L 363.086055 261.506604 
" style="fill:none;stroke:#000000;stroke-width:2;"/>
    <path clip-path="url(#p7e02e9e557)" d="M 369.405099 357.657705 
L 369.405099 280.274031 
" style="fill:none;stroke:#000000;stroke-width:2;"/>
    <path clip-path="url(#p7e02e9e557)" d="M 375.724143 365.09063 
L 375.724143 298.862006 
" style="fill:none;stroke:#000000;stroke-width:2;"/>
    <path clip-path="url(#p7e02e9e557)" d="M 382.043186 369.132791 
L 382.043186 305.347321 
" style="fill:none;stroke:#000000;stroke-width:2;"/>
    <path clip-path="url(#p7e02e9e557)" d="M 388.36223 375.040288 
L 388.36223 320.726846 
" style="fill:none;stroke:#000000;stroke-width:2;"/>
    <path clip-path="url(#p7e02e9e557)" d="M 394.681274 376.222423 
L 394.681274 322.615556 
" style="fill:none;stroke:#000000;stroke-width:2;"/>
    <path clip-path="url(#p7e02e9e557)" d="M 401.000318 377.612667 
L 401.000318 324.85315 
" style="fill:none;stroke:#000000;stroke-width:2;"/>
    <path clip-path="url(#p7e02e9e557)" d="M 407.319362 380.707775 
L 407.319362 335.077821 
" style="fill:none;stroke:#000000;stroke-width:2;"/>
    <path clip-path="url(#p7e02e9e557)" d="M 413.638406 384.384998 
L 413.638406 340.865966 
" style="fill:none;stroke:#000000;stroke-width:2;"/>
    <path clip-path="url(#p7e02e9e557)" d="M 419.95745 391.083751 
L 419.95745 356.033822 
" style="fill:none;stroke:#000000;stroke-width:2;"/>
    <path clip-path="url(#p7e02e9e557)" d="M 426.276493 396.020159 
L 426.276493 367.767756 
" style="fill:none;stroke:#000000;stroke-width:2;"/>
    <path clip-path="url(#p7e02e9e557)" d="M 432.595537 397.757664 
L 432.595537 370.413838 
" style="fill:none;stroke:#000000;stroke-width:2;"/>
    <path clip-path="url(#p7e02e9e557)" d="M 438.914581 398.5794 
L 438.914581 371.675436 
" style="fill:none;stroke:#000000;stroke-width:2;"/>
    <path clip-path="url(#p7e02e9e557)" d="M 445.233625 400.459961 
L 445.233625 374.587294 
" style="fill:none;stroke:#000000;stroke-width:2;"/>
    <path clip-path="url(#p7e02e9e557)" d="M 451.552669 403.027224 
L 451.552669 381.925428 
" style="fill:none;stroke:#000000;stroke-width:2;"/>
    <path clip-path="url(#p7e02e9e557)" d="M 457.871713 403.468803 
L 457.871713 382.58093 
" style="fill:none;stroke:#000000;stroke-width:2;"/>
    <path clip-path="url(#p7e02e9e557)" d="M 464.190757 399.64239 
L 464.190757 373.317142 
" style="fill:none;stroke:#000000;stroke-width:2;"/>
    <path clip-path="url(#p7e02e9e557)" d="M 470.509801 398.303123 
L 470.509801 371.250542 
" style="fill:none;stroke:#000000;stroke-width:2;"/>
    <path clip-path="url(#p7e02e9e557)" d="M 476.828844 405.352661 
L 476.828844 385.399106 
" style="fill:none;stroke:#000000;stroke-width:2;"/>
    <path clip-path="url(#p7e02e9e557)" d="M 483.147888 414.176464 
L 483.147888 401.328453 
" style="fill:none;stroke:#000000;stroke-width:2;"/>
   </g>
   <g id="line2d_15">
    <path clip-path="url(#p7e02e9e557)" d="M 85.048125 420.514703 
L 91.367169 417.003364 
L 97.686212 407.773989 
L 104.005256 400.129342 
L 110.3243 398.298667 
L 116.643344 398.195432 
L 122.962388 396.716923 
L 129.281432 394.621561 
L 135.600476 394.029484 
L 141.91952 394.748795 
L 148.238563 395.809259 
L 154.557607 396.112149 
L 160.876651 395.486076 
L 167.195695 393.710506 
L 173.514739 386.005552 
L 179.833783 377.846784 
L 186.152827 372.138976 
L 192.47187 363.832573 
L 198.790914 360.410966 
L 205.109958 357.981671 
L 211.429002 350.023264 
L 217.748046 346.304019 
L 224.06709 336.379743 
L 230.386134 325.072661 
L 236.705178 310.828677 
L 243.024221 293.130366 
L 249.343265 275.40164 
L 255.662309 257.252007 
L 261.981353 238.58219 
L 268.300397 220.38549 
L 274.619441 203.343998 
L 280.938485 190.14393 
L 287.257528 192.392974 
L 293.576572 208.005303 
L 299.895616 226.029907 
L 306.21466 242.914389 
L 312.533704 256.301703 
L 318.852748 264.153157 
L 325.171792 274.622469 
L 331.490835 278.921512 
L 337.809879 281.598467 
L 344.128923 288.078844 
L 350.447967 290.367789 
L 356.767011 294.001796 
L 363.086055 306.021276 
L 369.405099 318.965868 
L 375.724143 331.976318 
L 382.043186 337.240056 
L 388.36223 347.883567 
L 394.681274 349.418989 
L 401.000318 351.232909 
L 407.319362 357.892798 
L 413.638406 362.625482 
L 419.95745 373.558786 
L 426.276493 381.893958 
L 432.595537 384.085751 
L 438.914581 385.127418 
L 445.233625 387.523628 
L 451.552669 392.476326 
L 457.871713 393.024866 
L 464.190757 386.479766 
L 470.509801 384.776832 
L 476.828844 395.375884 
L 483.147888 407.752458 
" style="fill:none;stroke:#000000;stroke-linecap:square;stroke-width:2;"/>
   </g>
   <g id="patch_3">
    <path d="M 65.143137 440.295773 
L 65.143137 75.6 
" style="fill:none;stroke:#000000;stroke-linecap:square;stroke-linejoin:miter;stroke-width:0.8;"/>
   </g>
   <g id="patch_4">
    <path d="M 503.052876 440.295773 
L 503.052876 75.6 
" style="fill:none;stroke:#000000;stroke-linecap:square;stroke-linejoin:miter;stroke-width:0.8;"/>
   </g>
   <g id="patch_5">
    <path d="M 65.143137 440.295773 
L 503.052876 440.295773 
" style="fill:none;stroke:#000000;stroke-linecap:square;stroke-linejoin:miter;stroke-width:0.8;"/>
   </g>
   <g id="patch_6">
    <path d="M 65.143137 75.6 
L 503.052876 75.6 
" style="fill:none;stroke:#000000;stroke-linecap:square;stroke-linejoin:miter;stroke-width:0.8;"/>
   </g>
  </g>
  <g id="axes_2">
   <g id="matplotlib.axis_3">
    <g id="ytick_8">
     <g id="line2d_16">
      <defs>
       <path d="M 0 0 
L 3.5 0 
" id="m8ff965bf7e" style="stroke:#000000;stroke-width:0.8;"/>
      </defs>
      <g>
       <use style="stroke:#000000;stroke-width:0.8;" x="503.052876" xlink:href="#m8ff965bf7e" y="434.120994"/>
      </g>
     </g>
     <g id="text_17">
      <!-- $\mathdefault{0}$ -->
      <g transform="translate(510.052876 439.655788)scale(0.16 -0.16)">
       <use transform="scale(0.996264)" xlink:href="#CMR17-48"/>
      </g>
     </g>
    </g>
    <g id="ytick_9">
     <g id="line2d_17">
      <g>
       <use style="stroke:#000000;stroke-width:0.8;" x="503.052876" xlink:href="#m8ff965bf7e" y="373.232393"/>
      </g>
     </g>
     <g id="text_18">
      <!-- $\mathdefault{50}$ -->
      <g transform="translate(510.052876 378.767187)scale(0.16 -0.16)">
       <use transform="scale(0.996264)" xlink:href="#CMR17-53"/>
       <use transform="translate(45.690477 0)scale(0.996264)" xlink:href="#CMR17-48"/>
      </g>
     </g>
    </g>
    <g id="ytick_10">
     <g id="line2d_18">
      <g>
       <use style="stroke:#000000;stroke-width:0.8;" x="503.052876" xlink:href="#m8ff965bf7e" y="312.343793"/>
      </g>
     </g>
     <g id="text_19">
      <!-- $\mathdefault{100}$ -->
      <g transform="translate(510.052876 317.878587)scale(0.16 -0.16)">
       <use transform="scale(0.996264)" xlink:href="#CMR17-49"/>
       <use transform="translate(45.690477 0)scale(0.996264)" xlink:href="#CMR17-48"/>
       <use transform="translate(91.380954 0)scale(0.996264)" xlink:href="#CMR17-48"/>
      </g>
     </g>
    </g>
    <g id="ytick_11">
     <g id="line2d_19">
      <g>
       <use style="stroke:#000000;stroke-width:0.8;" x="503.052876" xlink:href="#m8ff965bf7e" y="251.455192"/>
      </g>
     </g>
     <g id="text_20">
      <!-- $\mathdefault{150}$ -->
      <g transform="translate(510.052876 256.989986)scale(0.16 -0.16)">
       <use transform="scale(0.996264)" xlink:href="#CMR17-49"/>
       <use transform="translate(45.690477 0)scale(0.996264)" xlink:href="#CMR17-53"/>
       <use transform="translate(91.380954 0)scale(0.996264)" xlink:href="#CMR17-48"/>
      </g>
     </g>
    </g>
    <g id="ytick_12">
     <g id="line2d_20">
      <g>
       <use style="stroke:#000000;stroke-width:0.8;" x="503.052876" xlink:href="#m8ff965bf7e" y="190.566592"/>
      </g>
     </g>
     <g id="text_21">
      <!-- $\mathdefault{200}$ -->
      <g transform="translate(510.052876 196.101386)scale(0.16 -0.16)">
       <use transform="scale(0.996264)" xlink:href="#CMR17-50"/>
       <use transform="translate(45.690477 0)scale(0.996264)" xlink:href="#CMR17-48"/>
       <use transform="translate(91.380954 0)scale(0.996264)" xlink:href="#CMR17-48"/>
      </g>
     </g>
    </g>
    <g id="ytick_13">
     <g id="line2d_21">
      <g>
       <use style="stroke:#000000;stroke-width:0.8;" x="503.052876" xlink:href="#m8ff965bf7e" y="129.677991"/>
      </g>
     </g>
     <g id="text_22">
      <!-- $\mathdefault{250}$ -->
      <g transform="translate(510.052876 135.212785)scale(0.16 -0.16)">
       <use transform="scale(0.996264)" xlink:href="#CMR17-50"/>
       <use transform="translate(45.690477 0)scale(0.996264)" xlink:href="#CMR17-53"/>
       <use transform="translate(91.380954 0)scale(0.996264)" xlink:href="#CMR17-48"/>
      </g>
     </g>
    </g>
    <g id="text_23">
     <!-- $N_{\rm ind}$ -->
     <g style="fill:#0000ff;" transform="translate(554.069243 278.702454)rotate(-90)scale(0.24 -0.24)">
      <defs>
       <path d="M 74 57.78125 
C 75.09375 62.09375 76.703125 65.09375 84.296875 65.09375 
C 84.59375 65.09375 85.796875 65.09375 85.796875 66.859375 
C 85.796875 68 84.90625 68 84.5 68 
C 82.5 68 77.40625 68 75.40625 68 
L 70.59375 68 
C 69.203125 68 67.40625 68 66 68 
C 65.40625 68 64.203125 68 64.203125 66.09375 
C 64.203125 65.09375 65 65.09375 65.703125 65.09375 
C 71.703125 65.09375 72.09375 62.796875 72.09375 60.984375 
C 72.09375 60.09375 72 59.78125 71.703125 58.390625 
L 60.40625 13.28125 
L 39 66.390625 
C 38.296875 68 38.203125 68 36 68 
L 23.796875 68 
C 21.796875 68 20.90625 68 20.90625 66.09375 
C 20.90625 65.09375 21.59375 65.09375 23.5 65.09375 
C 24 65.09375 29.90625 65.09375 29.90625 64.296875 
C 29.90625 64.09375 29.703125 63.296875 29.59375 63 
L 16.296875 9.921875 
C 15.09375 5 12.703125 2.90625 6.09375 2.90625 
C 5.59375 2.90625 4.59375 2.90625 4.59375 1.046875 
C 4.59375 0 5.59375 0 5.90625 0 
C 7.90625 0 13 0 15 0 
L 19.796875 0 
C 21.203125 0 22.90625 0 24.296875 0 
C 25 0 26.09375 0 26.09375 1.90625 
C 26.09375 2.8125 25.09375 2.90625 24.703125 2.90625 
C 21.40625 2.90625 18.203125 3.5 18.203125 7.09375 
C 18.203125 7.890625 18.40625 8.78125 18.59375 9.578125 
L 32.09375 63 
C 32.703125 62 32.703125 61.8125 33.09375 60.90625 
L 56.90625 1.796875 
C 57.40625 0.59375 57.59375 0 58.5 0 
C 59.5 0 59.59375 0.296875 60 2 
z
" id="CMMI12-78"/>
       <path d="M 29.203125 67.59375 
L 29.203125 65 
C 35.09375 65 36 64.40625 36 59.6875 
L 36 36.640625 
C 35.59375 37.140625 31.5 43.59375 23.40625 43.59375 
C 13.203125 43.59375 3.296875 34.5 3.296875 21.3125 
C 3.296875 8.203125 12.59375 -1 22.40625 -1 
C 30.90625 -1 35.296875 5.265625 35.796875 5.9375 
L 35.796875 -0.984375 
L 47.90625 -0.984375 
L 47.90625 2 
C 42 2 41.09375 2.59375 41.09375 7.390625 
L 41.09375 68.6875 
z
M 35.796875 11.796875 
C 35.796875 8.796875 34 6.09375 31.703125 4.09375 
C 28.296875 1.09375 24.90625 0.59375 23 0.59375 
C 20.09375 0.59375 9.703125 2.09375 9.703125 21.1875 
C 9.703125 40.8125 21.296875 42 23.90625 42 
C 28.5 42 32.203125 39.40625 34.5 35.796875 
C 35.796875 33.703125 35.796875 33.40625 35.796875 31.609375 
z
" id="CMR17-100"/>
      </defs>
      <use transform="scale(0.996264)" xlink:href="#CMMI12-78"/>
      <use transform="translate(78.115119 -14.943915)scale(0.697382)" xlink:href="#CMR17-105"/>
      <use transform="translate(95.524778 -14.943915)scale(0.697382)" xlink:href="#CMR17-110"/>
      <use transform="translate(131.151386 -14.943915)scale(0.697382)" xlink:href="#CMR17-100"/>
     </g>
    </g>
   </g>
   <g id="LineCollection_2">
    <path clip-path="url(#p7e02e9e557)" d="M 85.048125 212.091496 
L 85.048125 92.177081 
" style="fill:none;stroke:#0000ff;stroke-width:2;"/>
    <path clip-path="url(#p7e02e9e557)" d="M 91.367169 252.956734 
L 91.367169 157.893569 
" style="fill:none;stroke:#0000ff;stroke-width:2;"/>
    <path clip-path="url(#p7e02e9e557)" d="M 97.686212 316.597241 
L 97.686212 246.051532 
" style="fill:none;stroke:#0000ff;stroke-width:2;"/>
    <path clip-path="url(#p7e02e9e557)" d="M 104.005256 344.660068 
L 104.005256 283.880917 
" style="fill:none;stroke:#0000ff;stroke-width:2;"/>
    <path clip-path="url(#p7e02e9e557)" d="M 110.3243 348.815797 
L 110.3243 291.494445 
" style="fill:none;stroke:#0000ff;stroke-width:2;"/>
    <path clip-path="url(#p7e02e9e557)" d="M 116.643344 349.037968 
L 116.643344 291.901639 
" style="fill:none;stroke:#0000ff;stroke-width:2;"/>
    <path clip-path="url(#p7e02e9e557)" d="M 122.962388 352.089666 
L 122.962388 297.496667 
" style="fill:none;stroke:#0000ff;stroke-width:2;"/>
    <path clip-path="url(#p7e02e9e557)" d="M 129.281432 356.035175 
L 129.281432 304.736243 
" style="fill:none;stroke:#0000ff;stroke-width:2;"/>
    <path clip-path="url(#p7e02e9e557)" d="M 135.600476 357.077499 
L 135.600476 306.650039 
" style="fill:none;stroke:#0000ff;stroke-width:2;"/>
    <path clip-path="url(#p7e02e9e557)" d="M 141.91952 355.807213 
L 141.91952 304.31776 
" style="fill:none;stroke:#0000ff;stroke-width:2;"/>
    <path clip-path="url(#p7e02e9e557)" d="M 148.238563 353.850116 
L 148.238563 300.726026 
" style="fill:none;stroke:#0000ff;stroke-width:2;"/>
    <path clip-path="url(#p7e02e9e557)" d="M 154.557607 353.271703 
L 154.557607 299.66484 
" style="fill:none;stroke:#0000ff;stroke-width:2;"/>
    <path clip-path="url(#p7e02e9e557)" d="M 160.876651 354.457588 
L 160.876651 301.840687 
" style="fill:none;stroke:#0000ff;stroke-width:2;"/>
    <path clip-path="url(#p7e02e9e557)" d="M 167.195695 357.626746 
L 167.195695 307.658732 
" style="fill:none;stroke:#0000ff;stroke-width:2;"/>
    <path clip-path="url(#p7e02e9e557)" d="M 173.514739 371.344598 
L 173.514739 325.482541 
" style="fill:none;stroke:#0000ff;stroke-width:2;"/>
    <path clip-path="url(#p7e02e9e557)" d="M 179.833783 381.63699 
L 179.833783 339.412765 
" style="fill:none;stroke:#0000ff;stroke-width:2;"/>
    <path clip-path="url(#p7e02e9e557)" d="M 186.152827 385.972946 
L 186.152827 348.319011 
" style="fill:none;stroke:#0000ff;stroke-width:2;"/>
    <path clip-path="url(#p7e02e9e557)" d="M 192.47187 392.63069 
L 192.47187 357.168286 
" style="fill:none;stroke:#0000ff;stroke-width:2;"/>
    <path clip-path="url(#p7e02e9e557)" d="M 198.790914 394.333039 
L 198.790914 360.857076 
" style="fill:none;stroke:#0000ff;stroke-width:2;"/>
    <path clip-path="url(#p7e02e9e557)" d="M 205.109958 395.449329 
L 205.109958 363.279832 
" style="fill:none;stroke:#0000ff;stroke-width:2;"/>
    <path clip-path="url(#p7e02e9e557)" d="M 211.429002 399.934267 
L 211.429002 368.981257 
" style="fill:none;stroke:#0000ff;stroke-width:2;"/>
    <path clip-path="url(#p7e02e9e557)" d="M 217.748046 401.194739 
L 217.748046 371.858573 
" style="fill:none;stroke:#0000ff;stroke-width:2;"/>
    <path clip-path="url(#p7e02e9e557)" d="M 224.06709 405.146093 
L 224.06709 377.42983 
" style="fill:none;stroke:#0000ff;stroke-width:2;"/>
    <path clip-path="url(#p7e02e9e557)" d="M 230.386134 408.628979 
L 230.386134 382.711996 
" style="fill:none;stroke:#0000ff;stroke-width:2;"/>
    <path clip-path="url(#p7e02e9e557)" d="M 236.705178 411.898786 
L 236.705178 388.222426 
" style="fill:none;stroke:#0000ff;stroke-width:2;"/>
    <path clip-path="url(#p7e02e9e557)" d="M 243.024221 414.882145 
L 243.024221 393.702362 
" style="fill:none;stroke:#0000ff;stroke-width:2;"/>
    <path clip-path="url(#p7e02e9e557)" d="M 249.343265 417.204624 
L 249.343265 397.982698 
" style="fill:none;stroke:#0000ff;stroke-width:2;"/>
    <path clip-path="url(#p7e02e9e557)" d="M 255.662309 419.08857 
L 255.662309 401.498374 
" style="fill:none;stroke:#0000ff;stroke-width:2;"/>
    <path clip-path="url(#p7e02e9e557)" d="M 261.981353 420.648878 
L 261.981353 404.454335 
" style="fill:none;stroke:#0000ff;stroke-width:2;"/>
    <path clip-path="url(#p7e02e9e557)" d="M 268.300397 421.917229 
L 268.300397 406.83371 
" style="fill:none;stroke:#0000ff;stroke-width:2;"/>
    <path clip-path="url(#p7e02e9e557)" d="M 274.619441 422.945991 
L 274.619441 408.702761 
" style="fill:none;stroke:#0000ff;stroke-width:2;"/>
    <path clip-path="url(#p7e02e9e557)" d="M 280.938485 423.718692 
L 280.938485 409.898092 
" style="fill:none;stroke:#0000ff;stroke-width:2;"/>
    <path clip-path="url(#p7e02e9e557)" d="M 287.257528 423.650649 
L 287.257528 409.645919 
" style="fill:none;stroke:#0000ff;stroke-width:2;"/>
    <path clip-path="url(#p7e02e9e557)" d="M 293.576572 422.780904 
L 293.576572 408.118337 
" style="fill:none;stroke:#0000ff;stroke-width:2;"/>
    <path clip-path="url(#p7e02e9e557)" d="M 299.895616 421.673924 
L 299.895616 406.013307 
" style="fill:none;stroke:#0000ff;stroke-width:2;"/>
    <path clip-path="url(#p7e02e9e557)" d="M 306.21466 420.418576 
L 306.21466 403.714655 
" style="fill:none;stroke:#0000ff;stroke-width:2;"/>
    <path clip-path="url(#p7e02e9e557)" d="M 312.533704 419.150746 
L 312.533704 401.688799 
" style="fill:none;stroke:#0000ff;stroke-width:2;"/>
    <path clip-path="url(#p7e02e9e557)" d="M 318.852748 418.615282 
L 318.852748 400.053246 
" style="fill:none;stroke:#0000ff;stroke-width:2;"/>
    <path clip-path="url(#p7e02e9e557)" d="M 325.171792 417.270227 
L 325.171792 398.173918 
" style="fill:none;stroke:#0000ff;stroke-width:2;"/>
    <path clip-path="url(#p7e02e9e557)" d="M 331.490835 416.899779 
L 331.490835 397.095514 
" style="fill:none;stroke:#0000ff;stroke-width:2;"/>
    <path clip-path="url(#p7e02e9e557)" d="M 337.809879 416.658219 
L 337.809879 396.394021 
" style="fill:none;stroke:#0000ff;stroke-width:2;"/>
    <path clip-path="url(#p7e02e9e557)" d="M 344.128923 415.422856 
L 344.128923 395.204712 
" style="fill:none;stroke:#0000ff;stroke-width:2;"/>
    <path clip-path="url(#p7e02e9e557)" d="M 350.447967 415.182683 
L 350.447967 394.536745 
" style="fill:none;stroke:#0000ff;stroke-width:2;"/>
    <path clip-path="url(#p7e02e9e557)" d="M 356.767011 414.784822 
L 356.767011 393.432495 
" style="fill:none;stroke:#0000ff;stroke-width:2;"/>
    <path clip-path="url(#p7e02e9e557)" d="M 363.086055 412.592585 
L 363.086055 390.056247 
" style="fill:none;stroke:#0000ff;stroke-width:2;"/>
    <path clip-path="url(#p7e02e9e557)" d="M 369.405099 409.773194 
L 369.405099 385.594776 
" style="fill:none;stroke:#0000ff;stroke-width:2;"/>
    <path clip-path="url(#p7e02e9e557)" d="M 375.724143 406.216613 
L 375.724143 380.000217 
" style="fill:none;stroke:#0000ff;stroke-width:2;"/>
    <path clip-path="url(#p7e02e9e557)" d="M 382.043186 404.925508 
L 382.043186 376.901004 
" style="fill:none;stroke:#0000ff;stroke-width:2;"/>
    <path clip-path="url(#p7e02e9e557)" d="M 388.36223 400.672708 
L 388.36223 370.666177 
" style="fill:none;stroke:#0000ff;stroke-width:2;"/>
    <path clip-path="url(#p7e02e9e557)" d="M 394.681274 400.14659 
L 394.681274 369.465514 
" style="fill:none;stroke:#0000ff;stroke-width:2;"/>
    <path clip-path="url(#p7e02e9e557)" d="M 401.000318 399.499946 
L 401.000318 367.991169 
" style="fill:none;stroke:#0000ff;stroke-width:2;"/>
    <path clip-path="url(#p7e02e9e557)" d="M 407.319362 395.488823 
L 407.319362 363.365612 
" style="fill:none;stroke:#0000ff;stroke-width:2;"/>
    <path clip-path="url(#p7e02e9e557)" d="M 413.638406 393.249724 
L 413.638406 358.508894 
" style="fill:none;stroke:#0000ff;stroke-width:2;"/>
    <path clip-path="url(#p7e02e9e557)" d="M 419.95745 384.969699 
L 419.95745 346.256001 
" style="fill:none;stroke:#0000ff;stroke-width:2;"/>
    <path clip-path="url(#p7e02e9e557)" d="M 426.276493 375.800593 
L 426.276493 334.153656 
" style="fill:none;stroke:#0000ff;stroke-width:2;"/>
    <path clip-path="url(#p7e02e9e557)" d="M 432.595537 373.514523 
L 432.595537 329.702847 
" style="fill:none;stroke:#0000ff;stroke-width:2;"/>
    <path clip-path="url(#p7e02e9e557)" d="M 438.914581 372.357799 
L 438.914581 327.452633 
" style="fill:none;stroke:#0000ff;stroke-width:2;"/>
    <path clip-path="url(#p7e02e9e557)" d="M 445.233625 369.505005 
L 445.233625 321.907623 
" style="fill:none;stroke:#0000ff;stroke-width:2;"/>
    <path clip-path="url(#p7e02e9e557)" d="M 451.552669 359.674785 
L 451.552669 311.42144 
" style="fill:none;stroke:#0000ff;stroke-width:2;"/>
    <path clip-path="url(#p7e02e9e557)" d="M 457.871713 358.779288 
L 457.871713 309.775915 
" style="fill:none;stroke:#0000ff;stroke-width:2;"/>
    <path clip-path="url(#p7e02e9e557)" d="M 464.190757 370.782257 
L 464.190757 324.389464 
" style="fill:none;stroke:#0000ff;stroke-width:2;"/>
    <path clip-path="url(#p7e02e9e557)" d="M 470.509801 372.752449 
L 470.509801 328.220227 
" style="fill:none;stroke:#0000ff;stroke-width:2;"/>
    <path clip-path="url(#p7e02e9e557)" d="M 476.828844 354.662466 
L 476.828844 302.216661 
" style="fill:none;stroke:#0000ff;stroke-width:2;"/>
    <path clip-path="url(#p7e02e9e557)" d="M 483.147888 316.684078 
L 483.147888 246.201107 
" style="fill:none;stroke:#0000ff;stroke-width:2;"/>
   </g>
   <g id="line2d_22">
    <path clip-path="url(#p7e02e9e557)" d="M 85.048125 152.134288 
L 91.367169 205.425152 
L 97.686212 281.324387 
L 104.005256 314.270493 
L 110.3243 320.155121 
L 116.643344 320.469803 
L 122.962388 324.793167 
L 129.281432 330.385709 
L 135.600476 331.863769 
L 141.91952 330.062487 
L 148.238563 327.288071 
L 154.557607 326.468271 
L 160.876651 328.149137 
L 167.195695 332.642739 
L 173.514739 348.41357 
L 179.833783 360.524877 
L 186.152827 367.145978 
L 192.47187 374.899488 
L 198.790914 377.595058 
L 205.109958 379.36458 
L 211.429002 384.457762 
L 217.748046 386.526656 
L 224.06709 391.287962 
L 230.386134 395.670488 
L 236.705178 400.060606 
L 243.024221 404.292253 
L 249.343265 407.593661 
L 255.662309 410.293472 
L 261.981353 412.551607 
L 268.300397 414.37547 
L 274.619441 415.824376 
L 280.938485 416.808392 
L 287.257528 416.648284 
L 293.576572 415.44962 
L 299.895616 413.843615 
L 306.21466 412.066615 
L 312.533704 410.419773 
L 318.852748 409.334264 
L 325.171792 407.722073 
L 331.490835 406.997646 
L 337.809879 406.52612 
L 344.128923 405.313784 
L 350.447967 404.859714 
L 356.767011 404.108658 
L 363.086055 401.324416 
L 369.405099 397.683985 
L 375.724143 393.108415 
L 382.043186 390.913256 
L 388.36223 385.669443 
L 394.681274 384.806052 
L 401.000318 383.745558 
L 407.319362 379.427218 
L 413.638406 375.879309 
L 419.95745 365.61285 
L 426.276493 354.977124 
L 432.595537 351.608685 
L 438.914581 349.905216 
L 445.233625 345.706314 
L 451.552669 335.548113 
L 457.871713 334.277602 
L 464.190757 347.58586 
L 470.509801 350.486338 
L 476.828844 328.439564 
L 483.147888 281.442593 
" style="fill:none;stroke:#0000ff;stroke-linecap:square;stroke-width:2;"/>
   </g>
   <g id="patch_7">
    <path d="M 65.143137 440.295773 
L 65.143137 75.6 
" style="fill:none;stroke:#000000;stroke-linecap:square;stroke-linejoin:miter;stroke-width:0.8;"/>
   </g>
   <g id="patch_8">
    <path d="M 503.052876 440.295773 
L 503.052876 75.6 
" style="fill:none;stroke:#000000;stroke-linecap:square;stroke-linejoin:miter;stroke-width:0.8;"/>
   </g>
   <g id="patch_9">
    <path d="M 65.143137 440.295773 
L 503.052876 440.295773 
" style="fill:none;stroke:#000000;stroke-linecap:square;stroke-linejoin:miter;stroke-width:0.8;"/>
   </g>
   <g id="patch_10">
    <path d="M 65.143137 75.6 
L 503.052876 75.6 
" style="fill:none;stroke:#000000;stroke-linecap:square;stroke-linejoin:miter;stroke-width:0.8;"/>
   </g>
   <g id="text_24">
    <!-- L32 beta11p028 kappa0p1554 Buchoff pion -->
    <g transform="translate(78.390855 69.6)scale(0.24 -0.24)">
     <defs>
      <path d="M 54.203125 25.234375 
L 52.40625 25.234375 
C 51.59375 15.359375 50.296875 2.59375 33.203125 2.59375 
L 23.90625 2.59375 
C 19.90625 2.59375 19.703125 3.078125 19.703125 6.46875 
L 19.703125 60.90625 
C 19.703125 64.515625 19.90625 65.5 27.5 65.5 
L 29.703125 65.5 
L 29.703125 68 
C 25.59375 68 20.796875 68 16.703125 68 
C 13.59375 68 8 68 5.09375 68 
L 5.09375 65.5 
C 12 65.5 13.09375 65.5 13.09375 61.015625 
L 13.09375 7.0625 
C 13.09375 2.59375 12 2.59375 5.09375 2.59375 
L 5.09375 0 
L 51.796875 0 
z
" id="CMR17-76"/>
      <path d="M 15 68.6875 
L 3.09375 67.59375 
L 3.09375 65 
C 9 65 9.90625 64.40625 9.90625 59.640625 
L 9.90625 -0.203125 
L 11.703125 -0.203125 
L 14.59375 6.890625 
C 17.5 2.203125 21.796875 -1 27.59375 -1 
C 37.59375 -1 47.703125 7.8125 47.703125 21.40625 
C 47.703125 34.1875 38.703125 43.59375 28.59375 43.59375 
C 22.40625 43.59375 18 40.296875 15 36.40625 
z
M 15.203125 31.3125 
C 15.203125 33.09375 15.203125 33.40625 16.59375 35.5 
C 20.5 41.515625 26.09375 42 28 42 
C 31 42 41.296875 40.390625 41.296875 21.5 
C 41.296875 1.6875 29.5 0.59375 27.09375 0.59375 
C 24 0.59375 19.5 1.78125 16.296875 7.59375 
C 15.203125 9.5 15.203125 9.703125 15.203125 11.484375 
z
" id="CMR17-98"/>
      <path d="M 38.09375 23 
C 38.5 23.40625 38.5 23.609375 38.5 24.625 
C 38.5 34.96875 33.09375 44 21.703125 44 
C 11.09375 44 2.703125 33.890625 2.703125 21.609375 
C 2.703125 8.609375 12.203125 -1 22.796875 -1 
C 34 -1 38.40625 9.484375 38.40625 11.5625 
C 38.40625 12.25 37.796875 12.25 37.59375 12.25 
C 36.90625 12.25 36.796875 12.046875 36.40625 10.875 
C 34.203125 4.140625 28.703125 0.796875 23.5 0.796875 
C 19.203125 0.796875 14.90625 3.171875 12.203125 7.5 
C 9.09375 12.546875 9.09375 18.375 9.09375 23 
z
M 9.203125 24.5 
C 9.90625 39.140625 17.59375 42.40625 21.59375 42.40625 
C 28.40625 42.40625 33 35.890625 33.09375 24.5 
z
" id="CMR17-101"/>
      <path d="M 36 25.828125 
C 36 32.375 36 35.84375 31.796875 39.734375 
C 28.09375 43 23.796875 44 20.40625 44 
C 12.5 44 6.796875 37.609375 6.796875 30.796875 
C 6.796875 27 9.796875 27 10.40625 27 
C 11.703125 27 14 27.78125 14 30.53125 
C 14 33 12.09375 34.078125 10.40625 34.078125 
C 10 34.078125 9.5 33.96875 9.203125 33.875 
C 11.296875 40.5 16.703125 42.40625 20.203125 42.40625 
C 25.203125 42.40625 30.703125 37.953125 30.703125 29.453125 
L 30.703125 25 
C 24.796875 25 17.703125 24.203125 12.09375 21.203125 
C 5.796875 17.703125 4 12.703125 4 8.90625 
C 4 1.203125 13 -1 18.296875 -1 
C 23.796875 -1 28.90625 2.171875 31.09375 7.984375 
C 31.296875 3.640625 34.09375 -0.28125 38.5 -0.28125 
C 40.59375 -0.28125 45.90625 1.09375 45.90625 8.859375 
L 45.90625 14.375 
L 44.09375 14.375 
L 44.09375 8.78125 
C 44.09375 2.78125 41.40625 2 40.09375 2 
C 36 2 36 7.15625 36 11.53125 
z
M 30.703125 13.59375 
C 30.703125 4.953125 24.5 0.59375 19 0.59375 
C 14 0.59375 10.09375 4.296875 10.09375 8.90625 
C 10.09375 11.890625 11.40625 17.1875 17.203125 20.390625 
C 22 23.09375 27.5 23.5 30.703125 23.5 
z
" id="CMR17-97"/>
      <path d="M 22 -16.609375 
C 15.59375 -16.609375 15.203125 -16.203125 15.203125 -12.328125 
L 15.203125 6.28125 
C 18.09375 2.09375 22.296875 -0.59375 27.59375 -0.59375 
C 37.59375 -0.59375 47.703125 8.171875 47.703125 21.6875 
C 47.703125 34.234375 39 43.78125 28.703125 43.78125 
C 22.703125 43.78125 17.796875 40.5 15 36.53125 
L 15 43.78125 
L 3.09375 42.6875 
L 3.09375 40.109375 
C 9 40.109375 9.90625 39.5 9.90625 34.734375 
L 9.90625 -12.328125 
C 9.90625 -16.109375 9.5 -16.609375 3.09375 -16.609375 
L 3.09375 -19.1875 
C 5.5 -19 9.90625 -19 12.5 -19 
C 15.09375 -19 19.59375 -19 22 -19.1875 
z
M 15.203125 31.4375 
C 15.203125 32.84375 15.203125 34.921875 19.09375 38.609375 
C 19.59375 39.015625 23 42 28 42 
C 35.296875 42 41.296875 32.9375 41.296875 21.59375 
C 41.296875 10.25 34.90625 1 27 1 
C 23.40625 1 19.5 2.6875 16.5 7.375 
C 15.203125 9.5625 15.203125 10.15625 15.203125 11.75 
z
" id="CMR17-112"/>
      <path d="M 26.09375 26.140625 
C 26 26.34375 25.5 26.9375 25.5 27.234375 
C 25.5 27.4375 32.59375 33.921875 33.5 34.71875 
C 39.203125 39.5 42.796875 40 45.40625 40 
L 45.40625 42.703125 
C 44.796875 42.703125 44.59375 42.703125 44.5 42.5 
L 39.59375 42.5 
C 36.796875 42.5 32.5 42.5 29.796875 42.703125 
L 29.796875 40.09375 
C 31.203125 39.984375 32.203125 39.1875 32.203125 37.796875 
C 32.203125 35.796875 30.203125 33.90625 30.09375 33.90625 
L 15 20.140625 
L 15 68.6875 
L 3.09375 67.59375 
L 3.09375 65 
C 9 65 9.90625 64.40625 9.90625 59.640625 
L 9.90625 6.65625 
C 9.90625 2.875 9.5 2.390625 3.09375 2.390625 
L 3.09375 -0.203125 
C 5.5 0 9.90625 0 12.40625 0 
C 14.90625 0 19.296875 0 21.703125 -0.203125 
L 21.703125 2.390625 
C 15.296875 2.390625 14.90625 2.78125 14.90625 6.6875 
L 14.90625 17.65625 
L 21.796875 23.9375 
L 31.90625 8.96875 
C 33.09375 7.171875 34.09375 5.765625 34.09375 4.46875 
C 34.09375 2.6875 32.296875 2.390625 31.09375 2.390625 
L 31.09375 -0.203125 
C 33.5 0 37.796875 0 40.296875 0 
C 42.09375 0 45.796875 0 47.5 0 
L 47.5 2.390625 
C 42.796875 2.390625 41.703125 3.28125 38.703125 7.671875 
z
" id="CMR17-107"/>
      <path d="M 5.203125 68 
L 5.203125 65.40625 
C 12.09375 65.40625 13.203125 65.40625 13.203125 60.9375 
L 13.203125 7.0625 
C 13.203125 2.59375 12.09375 2.59375 5.203125 2.59375 
L 5.203125 0 
L 39.59375 0 
C 52.40625 0 60.703125 9.109375 60.703125 18.1875 
C 60.703125 27.203125 52.5 34.890625 41.796875 34.890625 
C 51.40625 36.8125 58.09375 43.296875 58.09375 51 
C 58.09375 59.40625 49.90625 68 37 68 
z
M 19.5 36 
L 19.5 61.515625 
C 19.5 64.921875 19.703125 65.40625 23.703125 65.40625 
L 36.5 65.40625 
C 46.40625 65.40625 50.796875 57.40625 50.796875 51.203125 
C 50.796875 43.609375 44.703125 36 33.90625 36 
z
M 23.703125 2.59375 
C 19.703125 2.59375 19.5 3.078125 19.5 6.453125 
L 19.5 34.40625 
L 38 34.40625 
C 48.296875 34.40625 53.296875 25.390625 53.296875 18.15625 
C 53.296875 10.921875 47.59375 2.59375 36.703125 2.59375 
z
" id="CMR17-66"/>
      <path d="M 29.40625 42.078125 
L 29.40625 39.5 
C 35.296875 39.5 36.203125 38.890625 36.203125 34.15625 
L 36.203125 16.125 
C 36.203125 7.8125 31.703125 0.59375 24.296875 0.59375 
C 16.09375 0.59375 15.40625 5.4375 15.40625 10.59375 
L 15.40625 43.171875 
L 3.296875 42.078125 
L 3.296875 39.5 
C 7.296875 39.5 10 39.5 10.09375 35.53125 
L 10.09375 16.53125 
C 10.09375 9.890625 10.09375 5.640625 12.703125 2.859375 
C 14 1.578125 16.5 -1 23.703125 -1 
C 32.203125 -1 35.5 5.890625 36.296875 7.90625 
L 36.40625 7.90625 
L 36.40625 -0.984375 
L 48.296875 -0.984375 
L 48.296875 2 
C 42.40625 2 41.5 2.59375 41.5 7.390625 
L 41.5 43.171875 
z
" id="CMR17-117"/>
      <path d="M 34.90625 35 
C 33 35 30.203125 35 30.203125 31.515625 
C 30.203125 28.71875 32.5 27.921875 33.796875 27.921875 
C 34.5 27.921875 37.40625 28.234375 37.40625 31.625 
C 37.40625 38.546875 30.59375 43.796875 22.90625 43.796875 
C 12.296875 43.796875 3.296875 34.03125 3.296875 21.296875 
C 3.296875 8.0625 12.703125 -1 22.90625 -1 
C 35.296875 -1 38.40625 10.578125 38.40625 11.6875 
C 38.40625 12.09375 38.296875 12.390625 37.59375 12.390625 
C 36.90625 12.390625 36.796875 12.296875 36.40625 10.984375 
C 33.796875 2.8125 28.09375 0.796875 23.796875 0.796875 
C 17.40625 0.796875 9.703125 6.671875 9.703125 21.390625 
C 9.703125 36.53125 17.09375 42 23 42 
C 26.90625 42 32.703125 40.203125 34.90625 35 
z
" id="CMR17-99"/>
      <path d="M 41.5 30.203125 
C 41.5 35.296875 40.5 43.59375 28.703125 43.59375 
C 20.5 43.59375 16.5 37 15.296875 33.703125 
L 15.203125 33.703125 
L 15.203125 68.6875 
L 3.296875 67.59375 
L 3.296875 65 
C 9.203125 65 10.09375 64.40625 10.09375 59.640625 
L 10.09375 6.65625 
C 10.09375 2.875 9.703125 2.390625 3.296875 2.390625 
L 3.296875 -0.203125 
C 5.703125 0 10.09375 0 12.703125 0 
C 15.296875 0 19.796875 0 22.203125 -0.203125 
L 22.203125 2.390625 
C 15.796875 2.390625 15.40625 2.78125 15.40625 6.6875 
L 15.40625 25.90625 
C 15.40625 35.109375 21 42 28 42 
C 35.40625 42 36.203125 35.40625 36.203125 30.59375 
L 36.203125 6.6875 
C 36.203125 2.875 35.796875 2.390625 29.40625 2.390625 
L 29.40625 -0.203125 
C 31.796875 0 36.203125 0 38.796875 0 
C 41.40625 0 45.90625 0 48.296875 -0.203125 
L 48.296875 2.390625 
C 41.90625 2.390625 41.5 2.78125 41.5 6.6875 
z
" id="CMR17-104"/>
      <path d="M 43.09375 21.1875 
C 43.09375 34 33.796875 44 22.90625 44 
C 12 44 2.703125 34 2.703125 21.1875 
C 2.703125 8.609375 12 -1 22.90625 -1 
C 33.796875 -1 43.09375 8.609375 43.09375 21.1875 
z
M 22.90625 0.796875 
C 18.203125 0.796875 14.203125 3.59375 11.90625 7.5 
C 9.40625 11.984375 9.09375 17.59375 9.09375 22 
C 9.09375 26.203125 9.296875 31.40625 11.90625 35.90625 
C 13.90625 39.203125 17.796875 42.40625 22.90625 42.40625 
C 27.40625 42.40625 31.203125 39.90625 33.59375 36.40625 
C 36.703125 31.703125 36.703125 25.109375 36.703125 22 
C 36.703125 18.09375 36.5 12.109375 33.796875 7.296875 
C 31 2.703125 26.703125 0.796875 22.90625 0.796875 
z
" id="CMR17-111"/>
      <path d="M 39.90625 40 
L 51.296875 40 
L 51.296875 42.578125 
L 39.703125 42.578125 
L 39.703125 54.59375 
C 39.703125 62.84375 43.90625 68 48.203125 68 
C 49.5 68 51 67.609375 52 66.90625 
C 51.203125 66.703125 49.09375 66.015625 49.09375 63.546875 
C 49.09375 60.953125 51.09375 60.15625 52.5 60.15625 
C 53.90625 60.15625 55.90625 60.953125 55.90625 63.546875 
C 55.90625 67.3125 52.296875 69.59375 48.296875 69.59375 
C 44.40625 69.59375 41.203125 67.703125 38.703125 65.328125 
C 36.40625 68.59375 32.59375 69.59375 28.703125 69.59375 
C 20.90625 69.59375 9.90625 65.125 9.90625 54.203125 
L 9.90625 42.578125 
L 1.90625 42.578125 
L 1.90625 40 
L 9.90625 40 
L 9.90625 6.671875 
C 9.90625 2.875 9.5 2.390625 3.09375 2.390625 
L 3.09375 -0.203125 
C 5.5 0 9.90625 0 12.40625 0 
C 15 0 19.40625 0 21.796875 -0.203125 
L 21.796875 2.390625 
C 15.40625 2.390625 15 2.78125 15 6.671875 
L 15 40 
L 34.796875 40 
L 34.796875 6.671875 
C 34.796875 2.875 34.40625 2.390625 28 2.390625 
L 28 -0.203125 
C 30.40625 0 35 0 37.59375 0 
C 40.5 0 45.59375 0 48.296875 -0.203125 
L 48.296875 2.390625 
C 41.09375 2.390625 39.90625 2.390625 39.90625 6.859375 
z
M 14.796875 42.578125 
L 14.796875 54.203125 
C 14.796875 63.234375 21.796875 68 28.5 68 
C 30 68 33.90625 67.6875 36.296875 65.421875 
C 34.5 65.421875 32.796875 64.625 32.796875 62.140625 
C 32.796875 59.5625 35.09375 58.859375 35.296875 58.859375 
C 34.796875 57.0625 34.796875 55.09375 34.796875 54.390625 
L 34.796875 42.578125 
z
" id="CMR17-11"/>
     </defs>
     <use transform="scale(0.996264)" xlink:href="#CMR17-76"/>
     <use transform="translate(57.381408 0)scale(0.996264)" xlink:href="#CMR17-51"/>
     <use transform="translate(103.071885 0)scale(0.996264)" xlink:href="#CMR17-50"/>
     <use transform="translate(178.838328 0)scale(0.996264)" xlink:href="#CMR17-98"/>
     <use transform="translate(232.336137 0)scale(0.996264)" xlink:href="#CMR17-101"/>
     <use transform="translate(272.821797 0)scale(0.996264)" xlink:href="#CMR17-116"/>
     <use transform="translate(308.102565 0)scale(0.996264)" xlink:href="#CMR17-97"/>
     <use transform="translate(353.793042 0)scale(0.996264)" xlink:href="#CMR17-49"/>
     <use transform="translate(399.483519 0)scale(0.996264)" xlink:href="#CMR17-49"/>
     <use transform="translate(445.173997 0)scale(0.996264)" xlink:href="#CMR17-112"/>
     <use transform="translate(496.069366 0)scale(0.996264)" xlink:href="#CMR17-48"/>
     <use transform="translate(541.759843 0)scale(0.996264)" xlink:href="#CMR17-50"/>
     <use transform="translate(587.450321 0)scale(0.996264)" xlink:href="#CMR17-56"/>
     <use transform="translate(663.216764 0)scale(0.996264)" xlink:href="#CMR17-107"/>
     <use transform="translate(706.304863 0)scale(0.996264)" xlink:href="#CMR17-97"/>
     <use transform="translate(751.99534 0)scale(0.996264)" xlink:href="#CMR17-112"/>
     <use transform="translate(802.89071 0)scale(0.996264)" xlink:href="#CMR17-112"/>
     <use transform="translate(853.78608 0)scale(0.996264)" xlink:href="#CMR17-97"/>
     <use transform="translate(899.476557 0)scale(0.996264)" xlink:href="#CMR17-48"/>
     <use transform="translate(945.167034 0)scale(0.996264)" xlink:href="#CMR17-112"/>
     <use transform="translate(996.062404 0)scale(0.996264)" xlink:href="#CMR17-49"/>
     <use transform="translate(1041.752881 0)scale(0.996264)" xlink:href="#CMR17-53"/>
     <use transform="translate(1087.443358 0)scale(0.996264)" xlink:href="#CMR17-53"/>
     <use transform="translate(1133.133835 0)scale(0.996264)" xlink:href="#CMR17-52"/>
     <use transform="translate(1208.900279 0)scale(0.996264)" xlink:href="#CMR17-66"/>
     <use transform="translate(1274.089033 0)scale(0.996264)" xlink:href="#CMR17-117"/>
     <use transform="translate(1324.984403 0)scale(0.996264)" xlink:href="#CMR17-99"/>
     <use transform="translate(1362.86761 0)scale(0.996264)" xlink:href="#CMR17-104"/>
     <use transform="translate(1413.762979 0)scale(0.996264)" xlink:href="#CMR17-111"/>
     <use transform="translate(1459.453456 0)scale(0.996264)" xlink:href="#CMR17-11"/>
     <use transform="translate(1541.8741 0)scale(0.996264)" xlink:href="#CMR17-112"/>
     <use transform="translate(1592.76947 0)scale(0.996264)" xlink:href="#CMR17-105"/>
     <use transform="translate(1617.640528 0)scale(0.996264)" xlink:href="#CMR17-111"/>
     <use transform="translate(1663.331005 0)scale(0.996264)" xlink:href="#CMR17-110"/>
    </g>
   </g>
  </g>
 </g>
 <defs>
  <clipPath id="p7e02e9e557">
   <rect height="364.695773" width="437.90974" x="65.143137" y="75.6"/>
  </clipPath>
 </defs>
</svg>
