<?xml version="1.0" encoding="utf-8" standalone="no"?>
<!DOCTYPE svg PUBLIC "-//W3C//DTD SVG 1.1//EN"
  "http://www.w3.org/Graphics/SVG/1.1/DTD/svg11.dtd">
<!-- Created with matplotlib (https://matplotlib.org/) -->
<svg height="504pt" version="1.1" viewBox="0 0 720 504" width="720pt" xmlns="http://www.w3.org/2000/svg" xmlns:xlink="http://www.w3.org/1999/xlink">
 <metadata>
  <rdf:RDF xmlns:cc="http://creativecommons.org/ns#" xmlns:dc="http://purl.org/dc/elements/1.1/" xmlns:rdf="http://www.w3.org/1999/02/22-rdf-syntax-ns#">
   <cc:Work>
    <dc:type rdf:resource="http://purl.org/dc/dcmitype/StillImage"/>
    <dc:date>2023-01-24T17:16:59.578613</dc:date>
    <dc:format>image/svg+xml</dc:format>
    <dc:creator>
     <cc:Agent>
      <dc:title>Matplotlib v3.3.4, https://matplotlib.org/</dc:title>
     </cc:Agent>
    </dc:creator>
   </cc:Work>
  </rdf:RDF>
 </metadata>
 <defs>
  <style type="text/css">*{stroke-linecap:butt;stroke-linejoin:round;}</style>
 </defs>
 <g id="figure_1">
  <g id="patch_1">
   <path d="M 0 504 
L 720 504 
L 720 0 
L 0 0 
z
" style="fill:#ffffff;"/>
  </g>
  <g id="axes_1">
   <g id="patch_2">
    <path d="M 72.133859 156.422282 
L 702.72 156.422282 
L 702.72 71.224945 
L 72.133859 71.224945 
z
" style="fill:#ffffff;"/>
   </g>
   <g id="matplotlib.axis_1">
    <g id="xtick_1">
     <g id="line2d_1">
      <defs>
       <path d="M 0 0 
L 0 3.5 
" id="m52ca804b99" style="stroke:#000000;stroke-width:0.8;"/>
      </defs>
      <g>
       <use style="stroke:#000000;stroke-width:0.8;" x="91.697498" xlink:href="#m52ca804b99" y="156.422282"/>
      </g>
     </g>
    </g>
    <g id="xtick_2">
     <g id="line2d_2">
      <g>
       <use style="stroke:#000000;stroke-width:0.8;" x="182.691169" xlink:href="#m52ca804b99" y="156.422282"/>
      </g>
     </g>
    </g>
    <g id="xtick_3">
     <g id="line2d_3">
      <g>
       <use style="stroke:#000000;stroke-width:0.8;" x="273.68484" xlink:href="#m52ca804b99" y="156.422282"/>
      </g>
     </g>
    </g>
    <g id="xtick_4">
     <g id="line2d_4">
      <g>
       <use style="stroke:#000000;stroke-width:0.8;" x="364.678511" xlink:href="#m52ca804b99" y="156.422282"/>
      </g>
     </g>
    </g>
    <g id="xtick_5">
     <g id="line2d_5">
      <g>
       <use style="stroke:#000000;stroke-width:0.8;" x="455.672183" xlink:href="#m52ca804b99" y="156.422282"/>
      </g>
     </g>
    </g>
    <g id="xtick_6">
     <g id="line2d_6">
      <g>
       <use style="stroke:#000000;stroke-width:0.8;" x="546.665854" xlink:href="#m52ca804b99" y="156.422282"/>
      </g>
     </g>
    </g>
    <g id="xtick_7">
     <g id="line2d_7">
      <g>
       <use style="stroke:#000000;stroke-width:0.8;" x="637.659525" xlink:href="#m52ca804b99" y="156.422282"/>
      </g>
     </g>
    </g>
    <g id="text_1">
     <!-- $W$ -->
     <g transform="translate(376.375424 177.026687)scale(0.24 -0.24)">
      <defs>
       <path d="M 90.296875 56.96875 
C 92.59375 60.84375 94.796875 64.515625 100.796875 65.125 
C 101.703125 65.21875 102.59375 65.3125 102.59375 66.90625 
C 102.59375 68 101.703125 68 101.40625 68 
C 101.203125 68 100.5 68 93.90625 68 
C 90.90625 68 87.796875 68 84.90625 68 
C 84.296875 68 83.09375 68 83.09375 66.03125 
C 83.09375 65.09375 83.90625 65 84.5 65 
C 86.5 65 89.703125 64.40625 89.703125 61.328125 
C 89.703125 60.03125 89.296875 59.328125 88.296875 57.65625 
L 61 10.125 
L 57.40625 61.921875 
C 57.40625 63.109375 58.5 65 64.09375 65 
C 65.40625 65 66.40625 65 66.40625 66.96875 
C 66.40625 68 65.40625 68 64.90625 68 
C 61.40625 68 57.703125 68 54.09375 68 
L 48.90625 68 
C 47.40625 68 45.59375 68 44.09375 68 
C 43.5 68 42.296875 68 42.296875 66.03125 
C 42.296875 65 43 65 44.703125 65 
C 49.296875 65 49.296875 64.890625 49.703125 58.9375 
L 50 55.359375 
L 24.09375 10.125 
L 20.40625 61.421875 
C 20.40625 62.53125 20.40625 65 27.203125 65 
C 28.296875 65 29.40625 65 29.40625 66.859375 
C 29.40625 68 28.5 68 27.90625 68 
C 24.40625 68 20.703125 68 17.09375 68 
L 11.90625 68 
C 10.40625 68 8.59375 68 7.09375 68 
C 6.5 68 5.296875 68 5.296875 66.03125 
C 5.296875 65 6.09375 65 7.5 65 
C 12.203125 65 12.296875 64.390625 12.5 61.21875 
L 16.90625 0.28125 
C 17 -1.40625 17.09375 -2 18.296875 -2 
C 19.296875 -2 19.5 -1.609375 20.40625 -0.109375 
L 50.203125 51.671875 
L 53.90625 0.28125 
C 54 -1.40625 54.09375 -2 55.296875 -2 
C 56.296875 -2 56.59375 -1.5 57.40625 -0.109375 
z
" id="CMMI12-87"/>
      </defs>
      <use transform="scale(0.996264)" xlink:href="#CMMI12-87"/>
     </g>
    </g>
   </g>
   <g id="matplotlib.axis_2">
    <g id="ytick_1">
     <g id="line2d_8">
      <defs>
       <path d="M 0 0 
L -3.5 0 
" id="m5df71aee41" style="stroke:#000000;stroke-width:0.8;"/>
      </defs>
      <g>
       <use style="stroke:#000000;stroke-width:0.8;" x="72.133859" xlink:href="#m5df71aee41" y="155.984375"/>
      </g>
     </g>
     <g id="text_2">
      <!-- $\mathdefault{0}$ -->
      <g transform="translate(57.329872 161.519169)scale(0.16 -0.16)">
       <defs>
        <path d="M 42 31.640625 
C 42 37.75 41.90625 48.125 37.703125 56.109375 
C 34 63.109375 28.09375 65.59375 22.90625 65.59375 
C 18.09375 65.59375 12 63.40625 8.203125 56.203125 
C 4.203125 48.71875 3.796875 39.4375 3.796875 31.640625 
C 3.796875 25.953125 3.90625 17.28125 7 9.671875 
C 11.296875 -0.609375 19 -2 22.90625 -2 
C 27.5 -2 34.5 -0.109375 38.59375 9.375 
C 41.59375 16.28125 42 24.359375 42 31.640625 
z
M 22.90625 -0.40625 
C 16.5 -0.40625 12.703125 5.078125 11.296875 12.6875 
C 10.203125 18.5625 10.203125 27.15625 10.203125 32.75 
C 10.203125 40.4375 10.203125 46.828125 11.5 52.921875 
C 13.40625 61.390625 19 64 22.90625 64 
C 27 64 32.296875 61.296875 34.203125 53.125 
C 35.5 47.4375 35.59375 40.734375 35.59375 32.75 
C 35.59375 26.25 35.59375 18.265625 34.40625 12.375 
C 32.296875 1.484375 26.40625 -0.40625 22.90625 -0.40625 
z
" id="CMR17-48"/>
       </defs>
       <use transform="scale(0.996264)" xlink:href="#CMR17-48"/>
      </g>
     </g>
    </g>
    <g id="ytick_2">
     <g id="line2d_9">
      <g>
       <use style="stroke:#000000;stroke-width:0.8;" x="72.133859" xlink:href="#m5df71aee41" y="85.187199"/>
      </g>
     </g>
     <g id="text_3">
      <!-- $\mathdefault{20}$ -->
      <g transform="translate(49.525885 90.721994)scale(0.16 -0.16)">
       <defs>
        <path d="M 41.703125 15.453125 
L 39.90625 15.453125 
C 38.90625 8.375 38.09375 7.171875 37.703125 6.5625 
C 37.203125 5.765625 30 5.765625 28.59375 5.765625 
L 9.40625 5.765625 
C 13 9.671875 20 16.75 28.5 24.953125 
C 34.59375 30.734375 41.703125 37.53125 41.703125 47.421875 
C 41.703125 59.21875 32.296875 66 21.796875 66 
C 10.796875 66 4.09375 56.3125 4.09375 47.34375 
C 4.09375 43.4375 7 42.9375 8.203125 42.9375 
C 9.203125 42.9375 12.203125 43.546875 12.203125 47.03125 
C 12.203125 50.109375 9.59375 51 8.203125 51 
C 7.59375 51 7 50.90625 6.59375 50.703125 
C 8.5 59.21875 14.296875 63.40625 20.40625 63.40625 
C 29.09375 63.40625 34.796875 56.515625 34.796875 47.421875 
C 34.796875 38.734375 29.703125 31.25 24 24.75 
L 4.09375 2.28125 
L 4.09375 0 
L 39.296875 0 
z
" id="CMR17-50"/>
       </defs>
       <use transform="scale(0.996264)" xlink:href="#CMR17-50"/>
       <use transform="translate(45.690477 0)scale(0.996264)" xlink:href="#CMR17-48"/>
      </g>
     </g>
    </g>
    <g id="text_4">
     <!-- $\tau_{\mathrm{int}}$ -->
     <g transform="translate(40.875127 128.694719)rotate(-90)scale(0.24 -0.24)">
      <defs>
       <path d="M 28.703125 37.625 
L 45.296875 37.625 
C 46.59375 37.625 49.90625 37.625 49.90625 40.8125 
C 49.90625 43 48 43 46.203125 43 
L 18.703125 43 
C 16.40625 43 13 43 8.40625 38.125 
C 5.796875 35.234375 2.59375 29.953125 2.59375 29.359375 
C 2.59375 28.765625 3.09375 28.5625 3.703125 28.5625 
C 4.40625 28.5625 4.5 28.859375 5 29.453125 
C 10.203125 37.625 15.40625 37.625 17.90625 37.625 
L 26.203125 37.625 
L 15.796875 3.484375 
C 15.296875 1.984375 15.296875 1.78125 15.296875 1.484375 
C 15.296875 0.390625 16 -1 18 -1 
C 21.09375 -1 21.59375 1.6875 21.90625 3.171875 
z
" id="CMMI12-28"/>
       <path d="M 15.5 61.078125 
C 15.5 63.265625 13.703125 65.15625 11.40625 65.15625 
C 9.203125 65.15625 7.296875 63.375 7.296875 61.078125 
C 7.296875 58.890625 9.09375 57 11.40625 57 
C 13.59375 57 15.5 58.796875 15.5 61.078125 
z
M 3.796875 42.28125 
L 3.796875 39.703125 
C 9.40625 39.703125 10.203125 39.09375 10.203125 34.328125 
L 10.203125 6.671875 
C 10.203125 2.875 9.796875 2.390625 3.40625 2.390625 
L 3.40625 -0.203125 
C 5.796875 0 10.09375 0 12.59375 0 
C 15 0 19.09375 0 21.40625 -0.203125 
L 21.40625 2.390625 
C 15.5 2.390625 15.296875 2.984375 15.296875 6.5625 
L 15.296875 43.375 
z
" id="CMR17-105"/>
       <path d="M 41.5 30.203125 
C 41.5 35.296875 40.5 43.59375 28.703125 43.59375 
C 20.796875 43.59375 16.703125 37.5 15.203125 33.5 
L 15.09375 33.5 
L 15.09375 43.59375 
L 3.296875 42.5 
L 3.296875 39.90625 
C 9.203125 39.90625 10.09375 39.296875 10.09375 34.5 
L 10.09375 6.6875 
C 10.09375 2.875 9.703125 2.390625 3.296875 2.390625 
L 3.296875 -0.203125 
C 5.703125 0 10.09375 0 12.703125 0 
C 15.296875 0 19.796875 0 22.203125 -0.203125 
L 22.203125 2.390625 
C 15.796875 2.390625 15.40625 2.78125 15.40625 6.6875 
L 15.40625 25.90625 
C 15.40625 35.109375 21 42 28 42 
C 35.40625 42 36.203125 35.40625 36.203125 30.59375 
L 36.203125 6.6875 
C 36.203125 2.875 35.796875 2.390625 29.40625 2.390625 
L 29.40625 -0.203125 
C 31.796875 0 36.203125 0 38.796875 0 
C 41.40625 0 45.90625 0 48.296875 -0.203125 
L 48.296875 2.390625 
C 41.90625 2.390625 41.5 2.78125 41.5 6.6875 
z
" id="CMR17-110"/>
       <path d="M 15.09375 40 
L 29.09375 40 
L 29.09375 42.578125 
L 15.09375 42.578125 
L 15.09375 61 
L 13.296875 61 
C 13.09375 50.703125 9.59375 41.6875 1.09375 41.6875 
L 1.09375 40 
L 9.796875 40 
L 9.796875 12.046875 
C 9.796875 10.15625 9.796875 -1 21.40625 -1 
C 27.296875 -1 30.703125 4.78125 30.703125 12.140625 
L 30.703125 17.8125 
L 28.90625 17.8125 
L 28.90625 12.234375 
C 28.90625 5.375 26.203125 0.796875 22 0.796875 
C 19.09375 0.796875 15.09375 2.78125 15.09375 11.84375 
z
" id="CMR17-116"/>
      </defs>
      <use transform="scale(0.996264)" xlink:href="#CMMI12-28"/>
      <use transform="translate(42.363841 -14.943915)scale(0.697382)" xlink:href="#CMR17-105"/>
      <use transform="translate(59.7735 -14.943915)scale(0.697382)" xlink:href="#CMR17-110"/>
      <use transform="translate(93.578387 -14.943915)scale(0.697382)" xlink:href="#CMR17-116"/>
     </g>
    </g>
   </g>
   <g id="LineCollection_1">
    <path clip-path="url(#pc1c85f8f5e)" d="M 100.796865 152.549676 
L 100.796865 151.931954 
" style="fill:none;stroke:#0000ff;stroke-width:2;"/>
    <path clip-path="url(#pc1c85f8f5e)" d="M 109.896232 151.331412 
L 109.896232 150.014102 
" style="fill:none;stroke:#0000ff;stroke-width:2;"/>
    <path clip-path="url(#pc1c85f8f5e)" d="M 118.995599 150.569791 
L 118.995599 148.497052 
" style="fill:none;stroke:#0000ff;stroke-width:2;"/>
    <path clip-path="url(#pc1c85f8f5e)" d="M 128.094966 149.960662 
L 128.094966 147.099381 
" style="fill:none;stroke:#0000ff;stroke-width:2;"/>
    <path clip-path="url(#pc1c85f8f5e)" d="M 137.194333 149.190071 
L 137.194333 145.432688 
" style="fill:none;stroke:#0000ff;stroke-width:2;"/>
    <path clip-path="url(#pc1c85f8f5e)" d="M 146.293701 148.614537 
L 146.293701 143.947749 
" style="fill:none;stroke:#0000ff;stroke-width:2;"/>
    <path clip-path="url(#pc1c85f8f5e)" d="M 155.393068 147.940893 
L 155.393068 142.261344 
" style="fill:none;stroke:#0000ff;stroke-width:2;"/>
    <path clip-path="url(#pc1c85f8f5e)" d="M 164.492435 147.485406 
L 164.492435 140.819696 
" style="fill:none;stroke:#0000ff;stroke-width:2;"/>
    <path clip-path="url(#pc1c85f8f5e)" d="M 173.591802 147.276648 
L 173.591802 139.703269 
" style="fill:none;stroke:#0000ff;stroke-width:2;"/>
    <path clip-path="url(#pc1c85f8f5e)" d="M 182.691169 147.059541 
L 182.691169 138.547906 
" style="fill:none;stroke:#0000ff;stroke-width:2;"/>
    <path clip-path="url(#pc1c85f8f5e)" d="M 191.790536 146.765818 
L 191.790536 137.233986 
" style="fill:none;stroke:#0000ff;stroke-width:2;"/>
    <path clip-path="url(#pc1c85f8f5e)" d="M 200.889903 146.489081 
L 200.889903 135.906994 
" style="fill:none;stroke:#0000ff;stroke-width:2;"/>
    <path clip-path="url(#pc1c85f8f5e)" d="M 209.98927 146.20152 
L 209.98927 134.518094 
" style="fill:none;stroke:#0000ff;stroke-width:2;"/>
    <path clip-path="url(#pc1c85f8f5e)" d="M 219.088638 145.889978 
L 219.088638 133.039371 
" style="fill:none;stroke:#0000ff;stroke-width:2;"/>
    <path clip-path="url(#pc1c85f8f5e)" d="M 228.188005 145.637415 
L 228.188005 131.622823 
" style="fill:none;stroke:#0000ff;stroke-width:2;"/>
    <path clip-path="url(#pc1c85f8f5e)" d="M 237.287372 145.386678 
L 237.287372 130.164938 
" style="fill:none;stroke:#0000ff;stroke-width:2;"/>
    <path clip-path="url(#pc1c85f8f5e)" d="M 246.386739 145.170918 
L 246.386739 128.731143 
" style="fill:none;stroke:#0000ff;stroke-width:2;"/>
    <path clip-path="url(#pc1c85f8f5e)" d="M 255.486106 145.054805 
L 255.486106 127.459919 
" style="fill:none;stroke:#0000ff;stroke-width:2;"/>
    <path clip-path="url(#pc1c85f8f5e)" d="M 264.585473 144.978246 
L 264.585473 126.239681 
" style="fill:none;stroke:#0000ff;stroke-width:2;"/>
    <path clip-path="url(#pc1c85f8f5e)" d="M 273.68484 145.005797 
L 273.68484 125.219495 
" style="fill:none;stroke:#0000ff;stroke-width:2;"/>
    <path clip-path="url(#pc1c85f8f5e)" d="M 282.784207 144.987295 
L 282.784207 124.076487 
" style="fill:none;stroke:#0000ff;stroke-width:2;"/>
    <path clip-path="url(#pc1c85f8f5e)" d="M 291.883575 145.005701 
L 291.883575 122.994869 
" style="fill:none;stroke:#0000ff;stroke-width:2;"/>
    <path clip-path="url(#pc1c85f8f5e)" d="M 300.982942 144.940023 
L 300.982942 121.686685 
" style="fill:none;stroke:#0000ff;stroke-width:2;"/>
    <path clip-path="url(#pc1c85f8f5e)" d="M 310.082309 144.959275 
L 310.082309 120.555347 
" style="fill:none;stroke:#0000ff;stroke-width:2;"/>
    <path clip-path="url(#pc1c85f8f5e)" d="M 319.181676 144.938453 
L 319.181676 119.295693 
" style="fill:none;stroke:#0000ff;stroke-width:2;"/>
    <path clip-path="url(#pc1c85f8f5e)" d="M 328.281043 144.978906 
L 328.281043 118.165948 
" style="fill:none;stroke:#0000ff;stroke-width:2;"/>
    <path clip-path="url(#pc1c85f8f5e)" d="M 337.38041 145.012253 
L 337.38041 116.991915 
" style="fill:none;stroke:#0000ff;stroke-width:2;"/>
    <path clip-path="url(#pc1c85f8f5e)" d="M 346.479777 144.899306 
L 346.479777 115.380501 
" style="fill:none;stroke:#0000ff;stroke-width:2;"/>
    <path clip-path="url(#pc1c85f8f5e)" d="M 355.579144 144.793336 
L 355.579144 113.739381 
" style="fill:none;stroke:#0000ff;stroke-width:2;"/>
    <path clip-path="url(#pc1c85f8f5e)" d="M 364.678511 144.748437 
L 364.678511 112.226278 
" style="fill:none;stroke:#0000ff;stroke-width:2;"/>
    <path clip-path="url(#pc1c85f8f5e)" d="M 373.777879 144.686268 
L 373.777879 110.617496 
" style="fill:none;stroke:#0000ff;stroke-width:2;"/>
    <path clip-path="url(#pc1c85f8f5e)" d="M 382.877246 144.651518 
L 382.877246 109.044572 
" style="fill:none;stroke:#0000ff;stroke-width:2;"/>
    <path clip-path="url(#pc1c85f8f5e)" d="M 391.976613 144.600055 
L 391.976613 107.373391 
" style="fill:none;stroke:#0000ff;stroke-width:2;"/>
    <path clip-path="url(#pc1c85f8f5e)" d="M 401.07598 144.617095 
L 401.07598 105.871396 
" style="fill:none;stroke:#0000ff;stroke-width:2;"/>
    <path clip-path="url(#pc1c85f8f5e)" d="M 410.175347 144.798837 
L 410.175347 104.869689 
" style="fill:none;stroke:#0000ff;stroke-width:2;"/>
    <path clip-path="url(#pc1c85f8f5e)" d="M 419.274714 144.931873 
L 419.274714 103.688032 
" style="fill:none;stroke:#0000ff;stroke-width:2;"/>
    <path clip-path="url(#pc1c85f8f5e)" d="M 428.374081 145.067126 
L 428.374081 102.488832 
" style="fill:none;stroke:#0000ff;stroke-width:2;"/>
    <path clip-path="url(#pc1c85f8f5e)" d="M 437.473448 145.23838 
L 437.473448 101.392692 
" style="fill:none;stroke:#0000ff;stroke-width:2;"/>
    <path clip-path="url(#pc1c85f8f5e)" d="M 446.572816 145.365335 
L 446.572816 100.111859 
" style="fill:none;stroke:#0000ff;stroke-width:2;"/>
    <path clip-path="url(#pc1c85f8f5e)" d="M 455.672183 145.500029 
L 455.672183 98.829021 
" style="fill:none;stroke:#0000ff;stroke-width:2;"/>
    <path clip-path="url(#pc1c85f8f5e)" d="M 464.77155 145.646493 
L 464.77155 97.560533 
" style="fill:none;stroke:#0000ff;stroke-width:2;"/>
    <path clip-path="url(#pc1c85f8f5e)" d="M 473.870917 145.806728 
L 473.870917 96.31639 
" style="fill:none;stroke:#0000ff;stroke-width:2;"/>
    <path clip-path="url(#pc1c85f8f5e)" d="M 482.970284 146.023029 
L 482.970284 95.274456 
" style="fill:none;stroke:#0000ff;stroke-width:2;"/>
    <path clip-path="url(#pc1c85f8f5e)" d="M 492.069651 146.166043 
L 492.069651 93.902088 
" style="fill:none;stroke:#0000ff;stroke-width:2;"/>
    <path clip-path="url(#pc1c85f8f5e)" d="M 501.169018 146.356538 
L 501.169018 92.699996 
" style="fill:none;stroke:#0000ff;stroke-width:2;"/>
    <path clip-path="url(#pc1c85f8f5e)" d="M 510.268385 146.519916 
L 510.268385 91.34774 
" style="fill:none;stroke:#0000ff;stroke-width:2;"/>
    <path clip-path="url(#pc1c85f8f5e)" d="M 519.367753 146.642117 
L 519.367753 89.768523 
" style="fill:none;stroke:#0000ff;stroke-width:2;"/>
    <path clip-path="url(#pc1c85f8f5e)" d="M 528.46712 146.834633 
L 528.46712 88.473469 
" style="fill:none;stroke:#0000ff;stroke-width:2;"/>
    <path clip-path="url(#pc1c85f8f5e)" d="M 537.566487 147.072757 
L 537.566487 87.367566 
" style="fill:none;stroke:#0000ff;stroke-width:2;"/>
    <path clip-path="url(#pc1c85f8f5e)" d="M 546.665854 147.400854 
L 546.665854 86.694692 
" style="fill:none;stroke:#0000ff;stroke-width:2;"/>
    <path clip-path="url(#pc1c85f8f5e)" d="M 555.765221 147.673421 
L 555.765221 85.736877 
" style="fill:none;stroke:#0000ff;stroke-width:2;"/>
    <path clip-path="url(#pc1c85f8f5e)" d="M 564.864588 147.967884 
L 564.864588 84.884166 
" style="fill:none;stroke:#0000ff;stroke-width:2;"/>
    <path clip-path="url(#pc1c85f8f5e)" d="M 573.963955 148.250862 
L 573.963955 83.959791 
" style="fill:none;stroke:#0000ff;stroke-width:2;"/>
    <path clip-path="url(#pc1c85f8f5e)" d="M 583.063322 148.519801 
L 583.063322 82.940937 
" style="fill:none;stroke:#0000ff;stroke-width:2;"/>
    <path clip-path="url(#pc1c85f8f5e)" d="M 592.162689 148.813789 
L 592.162689 82.053607 
" style="fill:none;stroke:#0000ff;stroke-width:2;"/>
    <path clip-path="url(#pc1c85f8f5e)" d="M 601.262057 149.097784 
L 601.262057 81.092958 
" style="fill:none;stroke:#0000ff;stroke-width:2;"/>
    <path clip-path="url(#pc1c85f8f5e)" d="M 610.361424 149.419789 
L 610.361424 80.363005 
" style="fill:none;stroke:#0000ff;stroke-width:2;"/>
    <path clip-path="url(#pc1c85f8f5e)" d="M 619.460791 149.758443 
L 619.460791 79.747051 
" style="fill:none;stroke:#0000ff;stroke-width:2;"/>
    <path clip-path="url(#pc1c85f8f5e)" d="M 628.560158 150.088032 
L 628.560158 79.077082 
" style="fill:none;stroke:#0000ff;stroke-width:2;"/>
    <path clip-path="url(#pc1c85f8f5e)" d="M 637.659525 150.411809 
L 637.659525 78.369295 
" style="fill:none;stroke:#0000ff;stroke-width:2;"/>
    <path clip-path="url(#pc1c85f8f5e)" d="M 646.758892 150.688598 
L 646.758892 77.301326 
" style="fill:none;stroke:#0000ff;stroke-width:2;"/>
    <path clip-path="url(#pc1c85f8f5e)" d="M 655.858259 150.996956 
L 655.858259 76.456385 
" style="fill:none;stroke:#0000ff;stroke-width:2;"/>
    <path clip-path="url(#pc1c85f8f5e)" d="M 664.957626 151.337497 
L 664.957626 75.869452 
" style="fill:none;stroke:#0000ff;stroke-width:2;"/>
    <path clip-path="url(#pc1c85f8f5e)" d="M 674.056994 151.655586 
L 674.056994 75.097551 
" style="fill:none;stroke:#0000ff;stroke-width:2;"/>
   </g>
   <g id="LineCollection_2">
    <path clip-path="url(#pc1c85f8f5e)" d="M 182.691169 147.059541 
L 182.691169 138.547906 
" style="fill:none;stroke:#ff0000;stroke-width:2;"/>
   </g>
   <g id="line2d_10">
    <defs>
     <path d="M 0 4 
C 1.060812 4 2.078319 3.578535 2.828427 2.828427 
C 3.578535 2.078319 4 1.060812 4 0 
C 4 -1.060812 3.578535 -2.078319 2.828427 -2.828427 
C 2.078319 -3.578535 1.060812 -4 0 -4 
C -1.060812 -4 -2.078319 -3.578535 -2.828427 -2.828427 
C -3.578535 -2.078319 -4 -1.060812 -4 0 
C -4 1.060812 -3.578535 2.078319 -2.828427 2.828427 
C -2.078319 3.578535 -1.060812 4 0 4 
z
" id="m30ab2583f0" style="stroke:#0000ff;"/>
    </defs>
    <g clip-path="url(#pc1c85f8f5e)">
     <use style="fill:#0000ff;stroke:#0000ff;" x="100.796865" xlink:href="#m30ab2583f0" y="152.240815"/>
     <use style="fill:#0000ff;stroke:#0000ff;" x="109.896232" xlink:href="#m30ab2583f0" y="150.672757"/>
     <use style="fill:#0000ff;stroke:#0000ff;" x="118.995599" xlink:href="#m30ab2583f0" y="149.533421"/>
     <use style="fill:#0000ff;stroke:#0000ff;" x="128.094966" xlink:href="#m30ab2583f0" y="148.530022"/>
     <use style="fill:#0000ff;stroke:#0000ff;" x="137.194333" xlink:href="#m30ab2583f0" y="147.311379"/>
     <use style="fill:#0000ff;stroke:#0000ff;" x="146.293701" xlink:href="#m30ab2583f0" y="146.281143"/>
     <use style="fill:#0000ff;stroke:#0000ff;" x="155.393068" xlink:href="#m30ab2583f0" y="145.101119"/>
     <use style="fill:#0000ff;stroke:#0000ff;" x="164.492435" xlink:href="#m30ab2583f0" y="144.152551"/>
     <use style="fill:#0000ff;stroke:#0000ff;" x="173.591802" xlink:href="#m30ab2583f0" y="143.489958"/>
     <use style="fill:#0000ff;stroke:#0000ff;" x="182.691169" xlink:href="#m30ab2583f0" y="142.803724"/>
     <use style="fill:#0000ff;stroke:#0000ff;" x="191.790536" xlink:href="#m30ab2583f0" y="141.999902"/>
     <use style="fill:#0000ff;stroke:#0000ff;" x="200.889903" xlink:href="#m30ab2583f0" y="141.198038"/>
     <use style="fill:#0000ff;stroke:#0000ff;" x="209.98927" xlink:href="#m30ab2583f0" y="140.359807"/>
     <use style="fill:#0000ff;stroke:#0000ff;" x="219.088638" xlink:href="#m30ab2583f0" y="139.464674"/>
     <use style="fill:#0000ff;stroke:#0000ff;" x="228.188005" xlink:href="#m30ab2583f0" y="138.630119"/>
     <use style="fill:#0000ff;stroke:#0000ff;" x="237.287372" xlink:href="#m30ab2583f0" y="137.775808"/>
     <use style="fill:#0000ff;stroke:#0000ff;" x="246.386739" xlink:href="#m30ab2583f0" y="136.95103"/>
     <use style="fill:#0000ff;stroke:#0000ff;" x="255.486106" xlink:href="#m30ab2583f0" y="136.257362"/>
     <use style="fill:#0000ff;stroke:#0000ff;" x="264.585473" xlink:href="#m30ab2583f0" y="135.608963"/>
     <use style="fill:#0000ff;stroke:#0000ff;" x="273.68484" xlink:href="#m30ab2583f0" y="135.112646"/>
     <use style="fill:#0000ff;stroke:#0000ff;" x="282.784207" xlink:href="#m30ab2583f0" y="134.531891"/>
     <use style="fill:#0000ff;stroke:#0000ff;" x="291.883575" xlink:href="#m30ab2583f0" y="134.000285"/>
     <use style="fill:#0000ff;stroke:#0000ff;" x="300.982942" xlink:href="#m30ab2583f0" y="133.313354"/>
     <use style="fill:#0000ff;stroke:#0000ff;" x="310.082309" xlink:href="#m30ab2583f0" y="132.757311"/>
     <use style="fill:#0000ff;stroke:#0000ff;" x="319.181676" xlink:href="#m30ab2583f0" y="132.117073"/>
     <use style="fill:#0000ff;stroke:#0000ff;" x="328.281043" xlink:href="#m30ab2583f0" y="131.572427"/>
     <use style="fill:#0000ff;stroke:#0000ff;" x="337.38041" xlink:href="#m30ab2583f0" y="131.002084"/>
     <use style="fill:#0000ff;stroke:#0000ff;" x="346.479777" xlink:href="#m30ab2583f0" y="130.139904"/>
     <use style="fill:#0000ff;stroke:#0000ff;" x="355.579144" xlink:href="#m30ab2583f0" y="129.266359"/>
     <use style="fill:#0000ff;stroke:#0000ff;" x="364.678511" xlink:href="#m30ab2583f0" y="128.487358"/>
     <use style="fill:#0000ff;stroke:#0000ff;" x="373.777879" xlink:href="#m30ab2583f0" y="127.651882"/>
     <use style="fill:#0000ff;stroke:#0000ff;" x="382.877246" xlink:href="#m30ab2583f0" y="126.848045"/>
     <use style="fill:#0000ff;stroke:#0000ff;" x="391.976613" xlink:href="#m30ab2583f0" y="125.986723"/>
     <use style="fill:#0000ff;stroke:#0000ff;" x="401.07598" xlink:href="#m30ab2583f0" y="125.244245"/>
     <use style="fill:#0000ff;stroke:#0000ff;" x="410.175347" xlink:href="#m30ab2583f0" y="124.834263"/>
     <use style="fill:#0000ff;stroke:#0000ff;" x="419.274714" xlink:href="#m30ab2583f0" y="124.309953"/>
     <use style="fill:#0000ff;stroke:#0000ff;" x="428.374081" xlink:href="#m30ab2583f0" y="123.777979"/>
     <use style="fill:#0000ff;stroke:#0000ff;" x="437.473448" xlink:href="#m30ab2583f0" y="123.315536"/>
     <use style="fill:#0000ff;stroke:#0000ff;" x="446.572816" xlink:href="#m30ab2583f0" y="122.738597"/>
     <use style="fill:#0000ff;stroke:#0000ff;" x="455.672183" xlink:href="#m30ab2583f0" y="122.164525"/>
     <use style="fill:#0000ff;stroke:#0000ff;" x="464.77155" xlink:href="#m30ab2583f0" y="121.603513"/>
     <use style="fill:#0000ff;stroke:#0000ff;" x="473.870917" xlink:href="#m30ab2583f0" y="121.061559"/>
     <use style="fill:#0000ff;stroke:#0000ff;" x="482.970284" xlink:href="#m30ab2583f0" y="120.648743"/>
     <use style="fill:#0000ff;stroke:#0000ff;" x="492.069651" xlink:href="#m30ab2583f0" y="120.034066"/>
     <use style="fill:#0000ff;stroke:#0000ff;" x="501.169018" xlink:href="#m30ab2583f0" y="119.528267"/>
     <use style="fill:#0000ff;stroke:#0000ff;" x="510.268385" xlink:href="#m30ab2583f0" y="118.933828"/>
     <use style="fill:#0000ff;stroke:#0000ff;" x="519.367753" xlink:href="#m30ab2583f0" y="118.20532"/>
     <use style="fill:#0000ff;stroke:#0000ff;" x="528.46712" xlink:href="#m30ab2583f0" y="117.654051"/>
     <use style="fill:#0000ff;stroke:#0000ff;" x="537.566487" xlink:href="#m30ab2583f0" y="117.220162"/>
     <use style="fill:#0000ff;stroke:#0000ff;" x="546.665854" xlink:href="#m30ab2583f0" y="117.047773"/>
     <use style="fill:#0000ff;stroke:#0000ff;" x="555.765221" xlink:href="#m30ab2583f0" y="116.705149"/>
     <use style="fill:#0000ff;stroke:#0000ff;" x="564.864588" xlink:href="#m30ab2583f0" y="116.426025"/>
     <use style="fill:#0000ff;stroke:#0000ff;" x="573.963955" xlink:href="#m30ab2583f0" y="116.105327"/>
     <use style="fill:#0000ff;stroke:#0000ff;" x="583.063322" xlink:href="#m30ab2583f0" y="115.730369"/>
     <use style="fill:#0000ff;stroke:#0000ff;" x="592.162689" xlink:href="#m30ab2583f0" y="115.433698"/>
     <use style="fill:#0000ff;stroke:#0000ff;" x="601.262057" xlink:href="#m30ab2583f0" y="115.095371"/>
     <use style="fill:#0000ff;stroke:#0000ff;" x="610.361424" xlink:href="#m30ab2583f0" y="114.891397"/>
     <use style="fill:#0000ff;stroke:#0000ff;" x="619.460791" xlink:href="#m30ab2583f0" y="114.752747"/>
     <use style="fill:#0000ff;stroke:#0000ff;" x="628.560158" xlink:href="#m30ab2583f0" y="114.582557"/>
     <use style="fill:#0000ff;stroke:#0000ff;" x="637.659525" xlink:href="#m30ab2583f0" y="114.390552"/>
     <use style="fill:#0000ff;stroke:#0000ff;" x="646.758892" xlink:href="#m30ab2583f0" y="113.994962"/>
     <use style="fill:#0000ff;stroke:#0000ff;" x="655.858259" xlink:href="#m30ab2583f0" y="113.72667"/>
     <use style="fill:#0000ff;stroke:#0000ff;" x="664.957626" xlink:href="#m30ab2583f0" y="113.603475"/>
     <use style="fill:#0000ff;stroke:#0000ff;" x="674.056994" xlink:href="#m30ab2583f0" y="113.376568"/>
    </g>
   </g>
   <g id="line2d_11">
    <defs>
     <path d="M 0 4 
C 1.060812 4 2.078319 3.578535 2.828427 2.828427 
C 3.578535 2.078319 4 1.060812 4 0 
C 4 -1.060812 3.578535 -2.078319 2.828427 -2.828427 
C 2.078319 -3.578535 1.060812 -4 0 -4 
C -1.060812 -4 -2.078319 -3.578535 -2.828427 -2.828427 
C -3.578535 -2.078319 -4 -1.060812 -4 0 
C -4 1.060812 -3.578535 2.078319 -2.828427 2.828427 
C -2.078319 3.578535 -1.060812 4 0 4 
z
" id="m4fab23964d" style="stroke:#ff0000;"/>
    </defs>
    <g clip-path="url(#pc1c85f8f5e)">
     <use style="fill:#ff0000;stroke:#ff0000;" x="182.691169" xlink:href="#m4fab23964d" y="142.803724"/>
    </g>
   </g>
   <g id="patch_3">
    <path d="M 72.133859 156.422282 
L 72.133859 71.224945 
" style="fill:none;stroke:#000000;stroke-linecap:square;stroke-linejoin:miter;stroke-width:0.8;"/>
   </g>
   <g id="patch_4">
    <path d="M 702.72 156.422282 
L 702.72 71.224945 
" style="fill:none;stroke:#000000;stroke-linecap:square;stroke-linejoin:miter;stroke-width:0.8;"/>
   </g>
   <g id="patch_5">
    <path d="M 72.133859 156.422282 
L 702.72 156.422282 
" style="fill:none;stroke:#000000;stroke-linecap:square;stroke-linejoin:miter;stroke-width:0.8;"/>
   </g>
   <g id="patch_6">
    <path d="M 72.133859 71.224945 
L 702.72 71.224945 
" style="fill:none;stroke:#000000;stroke-linecap:square;stroke-linejoin:miter;stroke-width:0.8;"/>
   </g>
  </g>
  <g id="axes_2">
   <g id="patch_7">
    <path d="M 72.133859 298.359028 
L 702.72 298.359028 
L 702.72 213.16169 
L 72.133859 213.16169 
z
" style="fill:#ffffff;"/>
   </g>
   <g id="matplotlib.axis_3">
    <g id="xtick_8">
     <g id="line2d_12">
      <g>
       <use style="stroke:#000000;stroke-width:0.8;" x="91.697498" xlink:href="#m52ca804b99" y="298.359028"/>
      </g>
     </g>
    </g>
    <g id="xtick_9">
     <g id="line2d_13">
      <g>
       <use style="stroke:#000000;stroke-width:0.8;" x="182.691169" xlink:href="#m52ca804b99" y="298.359028"/>
      </g>
     </g>
    </g>
    <g id="xtick_10">
     <g id="line2d_14">
      <g>
       <use style="stroke:#000000;stroke-width:0.8;" x="273.68484" xlink:href="#m52ca804b99" y="298.359028"/>
      </g>
     </g>
    </g>
    <g id="xtick_11">
     <g id="line2d_15">
      <g>
       <use style="stroke:#000000;stroke-width:0.8;" x="364.678511" xlink:href="#m52ca804b99" y="298.359028"/>
      </g>
     </g>
    </g>
    <g id="xtick_12">
     <g id="line2d_16">
      <g>
       <use style="stroke:#000000;stroke-width:0.8;" x="455.672183" xlink:href="#m52ca804b99" y="298.359028"/>
      </g>
     </g>
    </g>
    <g id="xtick_13">
     <g id="line2d_17">
      <g>
       <use style="stroke:#000000;stroke-width:0.8;" x="546.665854" xlink:href="#m52ca804b99" y="298.359028"/>
      </g>
     </g>
    </g>
    <g id="xtick_14">
     <g id="line2d_18">
      <g>
       <use style="stroke:#000000;stroke-width:0.8;" x="637.659525" xlink:href="#m52ca804b99" y="298.359028"/>
      </g>
     </g>
    </g>
    <g id="text_5">
     <!-- $W$ -->
     <g transform="translate(376.375424 318.963433)scale(0.24 -0.24)">
      <use transform="scale(0.996264)" xlink:href="#CMMI12-87"/>
     </g>
    </g>
   </g>
   <g id="matplotlib.axis_4">
    <g id="ytick_3">
     <g id="line2d_19">
      <g>
       <use style="stroke:#000000;stroke-width:0.8;" x="72.133859" xlink:href="#m5df71aee41" y="288.721115"/>
      </g>
     </g>
     <g id="text_6">
      <!-- $\mathdefault{0.5}$ -->
      <g transform="translate(45.190336 294.255909)scale(0.16 -0.16)">
       <defs>
        <path d="M 18.40625 4.796875 
C 18.40625 7.6875 16 9.671875 13.59375 9.671875 
C 10.703125 9.671875 8.703125 7.28125 8.703125 4.890625 
C 8.703125 2 11.09375 0 13.5 0 
C 16.40625 0 18.40625 2.390625 18.40625 4.796875 
z
" id="CMMI12-58"/>
        <path d="M 11.40625 57.6875 
C 12.40625 57.28125 16.5 56 20.703125 56 
C 30 56 35.09375 61.109375 38 64.0625 
C 38 64.953125 38 65.5 37.40625 65.5 
C 37.296875 65.5 37.09375 65.5 36.296875 65.046875 
C 32.796875 63.40625 28.703125 62.078125 23.703125 62.078125 
C 20.703125 62.078125 16.203125 62.484375 11.296875 64.671875 
C 10.203125 65.171875 10 65.171875 9.90625 65.171875 
C 9.40625 65.171875 9.296875 65.0625 9.296875 63.078125 
L 9.296875 34.421875 
C 9.296875 32.640625 9.296875 32.140625 10.296875 32.140625 
C 10.796875 32.140625 11 32.34375 11.5 33.03125 
C 14.703125 37.515625 19.09375 39.40625 24.09375 39.40625 
C 27.59375 39.40625 35.09375 37.21875 35.09375 20.140625 
C 35.09375 16.953125 35.09375 11.171875 32.09375 6.578125 
C 29.59375 2.484375 25.703125 0.390625 21.40625 0.390625 
C 14.796875 0.390625 8.09375 5 6.296875 12.71875 
C 6.703125 12.609375 7.5 12.421875 7.90625 12.421875 
C 9.203125 12.421875 11.703125 13.125 11.703125 16.21875 
C 11.703125 18.90625 9.796875 20 7.90625 20 
C 5.59375 20 4.09375 18.59375 4.09375 15.796875 
C 4.09375 7.09375 11 -2 21.59375 -2 
C 31.90625 -2 41.703125 6.875 41.703125 19.75 
C 41.703125 31.71875 33.90625 41 24.203125 41 
C 19.09375 41 14.796875 39.109375 11.40625 35.53125 
z
" id="CMR17-53"/>
       </defs>
       <use transform="scale(0.996264)" xlink:href="#CMR17-48"/>
       <use transform="translate(45.690477 0)scale(0.996264)" xlink:href="#CMMI12-58"/>
       <use transform="translate(72.787654 0)scale(0.996264)" xlink:href="#CMR17-53"/>
      </g>
     </g>
    </g>
    <g id="ytick_4">
     <g id="line2d_20">
      <g>
       <use style="stroke:#000000;stroke-width:0.8;" x="72.133859" xlink:href="#m5df71aee41" y="215.909785"/>
      </g>
     </g>
     <g id="text_7">
      <!-- $\mathdefault{1.0}$ -->
      <g transform="translate(45.190336 221.44458)scale(0.16 -0.16)">
       <defs>
        <path d="M 26.59375 63.40625 
C 26.59375 65.5 26.5 65.5 25.09375 65.5 
C 21.203125 61.1875 15.296875 59.796875 9.703125 59.796875 
C 9.40625 59.796875 8.90625 59.796875 8.796875 59.5 
C 8.703125 59.296875 8.703125 59.09375 8.703125 57 
C 11.796875 57 17 57.59375 21 59.984375 
L 21 7.203125 
C 21 3.6875 20.796875 2.5 12.203125 2.5 
L 9.203125 2.5 
L 9.203125 0 
C 14 0 19 0 23.796875 0 
C 28.59375 0 33.59375 0 38.40625 0 
L 38.40625 2.5 
L 35.40625 2.5 
C 26.796875 2.5 26.59375 3.59375 26.59375 7.15625 
z
" id="CMR17-49"/>
       </defs>
       <use transform="scale(0.996264)" xlink:href="#CMR17-49"/>
       <use transform="translate(45.690477 0)scale(0.996264)" xlink:href="#CMMI12-58"/>
       <use transform="translate(72.787654 0)scale(0.996264)" xlink:href="#CMR17-48"/>
      </g>
     </g>
    </g>
    <g id="text_8">
     <!-- $\delta(\sigma_F)/\sigma_F$ -->
     <g transform="translate(35.212752 301.016574)rotate(-90)scale(0.24 -0.24)">
      <defs>
       <path d="M 26 43.671875 
C 13.203125 40.578125 4 27.3125 4 15.640625 
C 4 4.984375 11.203125 -1 19.203125 -1 
C 31 -1 39 15.15625 39 28.40625 
C 39 37.375 34.796875 42.875 32.296875 46.15625 
C 28.59375 50.84375 22.59375 58.53125 22.59375 63.3125 
C 22.59375 65.015625 23.90625 68 28.296875 68 
C 31.40625 68 33.296875 66.90625 36.296875 65.203125 
C 37.203125 64.59375 39.5 63.3125 40.796875 63.3125 
C 42.90625 63.3125 44.40625 65.390625 44.40625 66.984375 
C 44.40625 68.890625 42.90625 69.1875 39.40625 69.984375 
C 34.703125 70.984375 33.296875 70.984375 31.59375 70.984375 
C 29.90625 70.984375 20.09375 70.984375 20.09375 60.8125 
C 20.09375 55.921875 22.59375 50.25 26 43.671875 
z
M 27.09375 41.703125 
C 30.90625 33.828125 32.40625 30.84375 32.40625 24.375 
C 32.40625 16.609375 28.203125 0.984375 19.296875 0.984375 
C 15.40625 0.984375 9.796875 3.578125 9.796875 12.828125 
C 9.796875 19.296875 13.5 38.109375 27.09375 41.703125 
z
" id="CMMI12-14"/>
       <path d="M 30.59375 -24.390625 
C 30.59375 -24.296875 30.59375 -24.09375 30.296875 -23.796875 
C 25.703125 -19.125 13.40625 -6.359375 13.40625 24.703125 
C 13.40625 55.765625 25.5 68.421875 30.40625 73.390625 
C 30.40625 73.5 30.59375 73.703125 30.59375 74 
C 30.59375 74.296875 30.296875 74.5 29.90625 74.5 
C 28.796875 74.5 20.296875 67.125 15.40625 56.15625 
C 10.40625 45.109375 9 34.359375 9 24.8125 
C 9 17.625 9.703125 5.484375 15.703125 -7.359375 
C 20.5 -17.734375 28.703125 -25 29.90625 -25 
C 30.40625 -25 30.59375 -24.796875 30.59375 -24.390625 
z
" id="CMR17-40"/>
       <path d="M 50.796875 37.625 
C 52.09375 37.625 55.40625 37.625 55.40625 40.8125 
C 55.40625 43 53.5 43 51.703125 43 
L 29.59375 43 
C 14.59375 43 3.796875 26.34375 3.796875 14.5625 
C 3.796875 6.09375 9.296875 -1 18.296875 -1 
C 30.09375 -1 43 11.671875 43 26.640625 
C 43 30.53125 42.09375 34.3125 39.703125 37.625 
z
M 18.40625 1 
C 13.296875 1 9.59375 4.890625 9.59375 11.78125 
C 9.59375 17.765625 13.203125 37.625 27.90625 37.625 
C 32.203125 37.625 37 35.53125 37 27.828125 
C 37 24.34375 35.40625 15.953125 31.90625 10.1875 
C 28.296875 4.296875 22.90625 1 18.40625 1 
z
" id="CMMI12-27"/>
       <path d="M 29.703125 32.109375 
L 39.296875 32.109375 
C 46.90625 32.109375 47.5 30.40625 47.5 27.515625 
C 47.5 26.21875 47.296875 24.828125 46.796875 22.625 
C 46.59375 22.234375 46.5 21.734375 46.5 21.53125 
C 46.5 20.828125 46.90625 20.4375 47.59375 20.4375 
C 48.40625 20.4375 48.5 20.828125 48.90625 22.421875 
L 54.703125 45.859375 
C 54.703125 46.265625 54.40625 46.859375 53.703125 46.859375 
C 52.796875 46.859375 52.703125 46.46875 52.296875 44.734375 
C 50.203125 37.125 48.203125 35 39.5 35 
L 30.40625 35 
L 36.90625 61.34375 
C 37.796875 64.90625 38 64.90625 42.09375 64.90625 
L 55.5 64.90625 
C 68 64.90625 69.796875 61.21875 69.796875 54.125 
C 69.796875 53.53125 69.796875 51.328125 69.5 48.734375 
C 69.40625 48.34375 69.203125 47.046875 69.203125 46.640625 
C 69.203125 45.84375 69.703125 45.546875 70.296875 45.546875 
C 71 45.546875 71.40625 45.953125 71.59375 47.734375 
L 73.703125 65.21875 
C 73.703125 65.546875 73.90625 66.609375 73.90625 66.828125 
C 73.90625 68 73 68 71.203125 68 
L 23.796875 68 
C 21.90625 68 20.90625 68 20.90625 66.078125 
C 20.90625 64.90625 21.59375 64.90625 23.296875 64.90625 
C 29.5 64.90625 29.5 64.265625 29.5 63.28125 
C 29.5 62.78125 29.40625 62.375 29.09375 61.28125 
L 15.59375 7.390625 
C 14.703125 3.890625 14.5 2.890625 7.5 2.890625 
C 5.59375 2.890625 4.59375 2.890625 4.59375 1.09375 
C 4.59375 0 5.5 0 6.09375 0 
C 8 0 10 0 11.90625 0 
L 24.90625 0 
C 27.09375 0 29.5 0 31.703125 0 
C 32.59375 0 33.796875 0 33.796875 1.796875 
C 33.796875 2.890625 33.203125 2.890625 31 2.890625 
C 23.09375 2.890625 22.90625 3.578125 22.90625 5.0625 
C 22.90625 5.5625 23.09375 6.34375 23.296875 7.015625 
z
" id="CMMI12-70"/>
       <path d="M 26.296875 24.703125 
C 26.296875 31.875 25.59375 44.015625 19.59375 56.859375 
C 14.796875 67.234375 6.59375 74.5 5.40625 74.5 
C 5.09375 74.5 4.703125 74.390625 4.703125 73.890625 
C 4.703125 73.703125 4.796875 73.59375 4.90625 73.390625 
C 9.703125 68.40625 21.90625 55.75 21.90625 24.75 
C 21.90625 -6.359375 9.796875 -19.015625 4.90625 -24.015625 
C 4.796875 -24.203125 4.703125 -24.3125 4.703125 -24.5 
C 4.703125 -25 5.09375 -25 5.40625 -25 
C 6.5 -25 15 -17.625 19.90625 -6.65625 
C 24.90625 4.390625 26.296875 15.140625 26.296875 24.703125 
z
" id="CMR17-41"/>
       <path d="M 42.90625 71.28125 
C 42.90625 71.390625 43.5 72.90625 43.5 73.09375 
C 43.5 74.296875 42.5 75 41.703125 75 
C 41.203125 75 40.296875 75 39.5 72.796875 
L 6 -21.296875 
C 6 -21.40625 5.40625 -22.890625 5.40625 -23.09375 
C 5.40625 -24.296875 6.40625 -25 7.203125 -25 
C 7.796875 -25 8.703125 -24.890625 9.40625 -22.796875 
z
" id="CMMI12-61"/>
      </defs>
      <use transform="scale(0.996264)" xlink:href="#CMMI12-14"/>
      <use transform="translate(46.941386 0)scale(0.996264)" xlink:href="#CMR17-40"/>
      <use transform="translate(82.222154 0)scale(0.996264)" xlink:href="#CMMI12-27"/>
      <use transform="translate(137.667615 -14.943915)scale(0.697382)" xlink:href="#CMMI12-70"/>
      <use transform="translate(191.853258 0)scale(0.996264)" xlink:href="#CMR17-41"/>
      <use transform="translate(227.134026 0)scale(0.996264)" xlink:href="#CMMI12-61"/>
      <use transform="translate(275.908945 0)scale(0.996264)" xlink:href="#CMMI12-27"/>
      <use transform="translate(331.354406 -14.943915)scale(0.697382)" xlink:href="#CMMI12-70"/>
     </g>
    </g>
   </g>
   <g id="line2d_21">
    <path clip-path="url(#p4569b876b7)" d="M 100.796865 232.145164 
L 109.896232 250.883252 
L 118.995599 265.186738 
L 128.094966 275.670388 
L 137.194333 283.12085 
L 146.293701 288.221334 
L 155.393068 291.522566 
L 164.492435 293.456751 
L 173.591802 294.358813 
L 182.691169 294.486421 
L 191.790536 294.036873 
L 200.889903 293.16069 
L 209.98927 291.972352 
L 219.088638 290.558671 
L 228.188005 288.985279 
L 237.287372 287.30162 
L 246.386739 285.544804 
L 255.486106 283.742549 
L 264.585473 281.915441 
L 273.68484 280.078658 
L 282.784207 278.243285 
L 291.883575 276.417321 
L 300.982942 274.606441 
L 310.082309 272.81458 
L 319.181676 271.04437 
L 328.281043 269.297478 
L 337.38041 267.574859 
L 346.479777 265.876945 
L 355.579144 264.203791 
L 364.678511 262.555182 
L 373.777879 260.930715 
L 382.877246 259.329859 
L 391.976613 257.751998 
L 401.07598 256.196468 
L 410.175347 254.662578 
L 419.274714 253.149626 
L 428.374081 251.656917 
L 437.473448 250.183764 
L 446.572816 248.729503 
L 455.672183 247.293486 
L 464.77155 245.875094 
L 473.870917 244.473731 
L 482.970284 243.088828 
L 492.069651 241.719839 
L 501.169018 240.366247 
L 510.268385 239.027556 
L 519.367753 237.703295 
L 528.46712 236.393015 
L 537.566487 235.096289 
L 546.665854 233.812709 
L 555.765221 232.541887 
L 564.864588 231.283453 
L 573.963955 230.037054 
L 583.063322 228.802352 
L 592.162689 227.579025 
L 601.262057 226.366766 
L 610.361424 225.16528 
L 619.460791 223.974286 
L 628.560158 222.793513 
L 637.659525 221.622705 
L 646.758892 220.461612 
L 655.858259 219.309996 
L 664.957626 218.167631 
L 674.056994 217.034297 
" style="fill:none;stroke:#0000ff;stroke-linecap:square;stroke-width:2;"/>
    <g clip-path="url(#p4569b876b7)">
     <use style="fill:#0000ff;stroke:#0000ff;" x="100.796865" xlink:href="#m30ab2583f0" y="232.145164"/>
     <use style="fill:#0000ff;stroke:#0000ff;" x="109.896232" xlink:href="#m30ab2583f0" y="250.883252"/>
     <use style="fill:#0000ff;stroke:#0000ff;" x="118.995599" xlink:href="#m30ab2583f0" y="265.186738"/>
     <use style="fill:#0000ff;stroke:#0000ff;" x="128.094966" xlink:href="#m30ab2583f0" y="275.670388"/>
     <use style="fill:#0000ff;stroke:#0000ff;" x="137.194333" xlink:href="#m30ab2583f0" y="283.12085"/>
     <use style="fill:#0000ff;stroke:#0000ff;" x="146.293701" xlink:href="#m30ab2583f0" y="288.221334"/>
     <use style="fill:#0000ff;stroke:#0000ff;" x="155.393068" xlink:href="#m30ab2583f0" y="291.522566"/>
     <use style="fill:#0000ff;stroke:#0000ff;" x="164.492435" xlink:href="#m30ab2583f0" y="293.456751"/>
     <use style="fill:#0000ff;stroke:#0000ff;" x="173.591802" xlink:href="#m30ab2583f0" y="294.358813"/>
     <use style="fill:#0000ff;stroke:#0000ff;" x="182.691169" xlink:href="#m30ab2583f0" y="294.486421"/>
     <use style="fill:#0000ff;stroke:#0000ff;" x="191.790536" xlink:href="#m30ab2583f0" y="294.036873"/>
     <use style="fill:#0000ff;stroke:#0000ff;" x="200.889903" xlink:href="#m30ab2583f0" y="293.16069"/>
     <use style="fill:#0000ff;stroke:#0000ff;" x="209.98927" xlink:href="#m30ab2583f0" y="291.972352"/>
     <use style="fill:#0000ff;stroke:#0000ff;" x="219.088638" xlink:href="#m30ab2583f0" y="290.558671"/>
     <use style="fill:#0000ff;stroke:#0000ff;" x="228.188005" xlink:href="#m30ab2583f0" y="288.985279"/>
     <use style="fill:#0000ff;stroke:#0000ff;" x="237.287372" xlink:href="#m30ab2583f0" y="287.30162"/>
     <use style="fill:#0000ff;stroke:#0000ff;" x="246.386739" xlink:href="#m30ab2583f0" y="285.544804"/>
     <use style="fill:#0000ff;stroke:#0000ff;" x="255.486106" xlink:href="#m30ab2583f0" y="283.742549"/>
     <use style="fill:#0000ff;stroke:#0000ff;" x="264.585473" xlink:href="#m30ab2583f0" y="281.915441"/>
     <use style="fill:#0000ff;stroke:#0000ff;" x="273.68484" xlink:href="#m30ab2583f0" y="280.078658"/>
     <use style="fill:#0000ff;stroke:#0000ff;" x="282.784207" xlink:href="#m30ab2583f0" y="278.243285"/>
     <use style="fill:#0000ff;stroke:#0000ff;" x="291.883575" xlink:href="#m30ab2583f0" y="276.417321"/>
     <use style="fill:#0000ff;stroke:#0000ff;" x="300.982942" xlink:href="#m30ab2583f0" y="274.606441"/>
     <use style="fill:#0000ff;stroke:#0000ff;" x="310.082309" xlink:href="#m30ab2583f0" y="272.81458"/>
     <use style="fill:#0000ff;stroke:#0000ff;" x="319.181676" xlink:href="#m30ab2583f0" y="271.04437"/>
     <use style="fill:#0000ff;stroke:#0000ff;" x="328.281043" xlink:href="#m30ab2583f0" y="269.297478"/>
     <use style="fill:#0000ff;stroke:#0000ff;" x="337.38041" xlink:href="#m30ab2583f0" y="267.574859"/>
     <use style="fill:#0000ff;stroke:#0000ff;" x="346.479777" xlink:href="#m30ab2583f0" y="265.876945"/>
     <use style="fill:#0000ff;stroke:#0000ff;" x="355.579144" xlink:href="#m30ab2583f0" y="264.203791"/>
     <use style="fill:#0000ff;stroke:#0000ff;" x="364.678511" xlink:href="#m30ab2583f0" y="262.555182"/>
     <use style="fill:#0000ff;stroke:#0000ff;" x="373.777879" xlink:href="#m30ab2583f0" y="260.930715"/>
     <use style="fill:#0000ff;stroke:#0000ff;" x="382.877246" xlink:href="#m30ab2583f0" y="259.329859"/>
     <use style="fill:#0000ff;stroke:#0000ff;" x="391.976613" xlink:href="#m30ab2583f0" y="257.751998"/>
     <use style="fill:#0000ff;stroke:#0000ff;" x="401.07598" xlink:href="#m30ab2583f0" y="256.196468"/>
     <use style="fill:#0000ff;stroke:#0000ff;" x="410.175347" xlink:href="#m30ab2583f0" y="254.662578"/>
     <use style="fill:#0000ff;stroke:#0000ff;" x="419.274714" xlink:href="#m30ab2583f0" y="253.149626"/>
     <use style="fill:#0000ff;stroke:#0000ff;" x="428.374081" xlink:href="#m30ab2583f0" y="251.656917"/>
     <use style="fill:#0000ff;stroke:#0000ff;" x="437.473448" xlink:href="#m30ab2583f0" y="250.183764"/>
     <use style="fill:#0000ff;stroke:#0000ff;" x="446.572816" xlink:href="#m30ab2583f0" y="248.729503"/>
     <use style="fill:#0000ff;stroke:#0000ff;" x="455.672183" xlink:href="#m30ab2583f0" y="247.293486"/>
     <use style="fill:#0000ff;stroke:#0000ff;" x="464.77155" xlink:href="#m30ab2583f0" y="245.875094"/>
     <use style="fill:#0000ff;stroke:#0000ff;" x="473.870917" xlink:href="#m30ab2583f0" y="244.473731"/>
     <use style="fill:#0000ff;stroke:#0000ff;" x="482.970284" xlink:href="#m30ab2583f0" y="243.088828"/>
     <use style="fill:#0000ff;stroke:#0000ff;" x="492.069651" xlink:href="#m30ab2583f0" y="241.719839"/>
     <use style="fill:#0000ff;stroke:#0000ff;" x="501.169018" xlink:href="#m30ab2583f0" y="240.366247"/>
     <use style="fill:#0000ff;stroke:#0000ff;" x="510.268385" xlink:href="#m30ab2583f0" y="239.027556"/>
     <use style="fill:#0000ff;stroke:#0000ff;" x="519.367753" xlink:href="#m30ab2583f0" y="237.703295"/>
     <use style="fill:#0000ff;stroke:#0000ff;" x="528.46712" xlink:href="#m30ab2583f0" y="236.393015"/>
     <use style="fill:#0000ff;stroke:#0000ff;" x="537.566487" xlink:href="#m30ab2583f0" y="235.096289"/>
     <use style="fill:#0000ff;stroke:#0000ff;" x="546.665854" xlink:href="#m30ab2583f0" y="233.812709"/>
     <use style="fill:#0000ff;stroke:#0000ff;" x="555.765221" xlink:href="#m30ab2583f0" y="232.541887"/>
     <use style="fill:#0000ff;stroke:#0000ff;" x="564.864588" xlink:href="#m30ab2583f0" y="231.283453"/>
     <use style="fill:#0000ff;stroke:#0000ff;" x="573.963955" xlink:href="#m30ab2583f0" y="230.037054"/>
     <use style="fill:#0000ff;stroke:#0000ff;" x="583.063322" xlink:href="#m30ab2583f0" y="228.802352"/>
     <use style="fill:#0000ff;stroke:#0000ff;" x="592.162689" xlink:href="#m30ab2583f0" y="227.579025"/>
     <use style="fill:#0000ff;stroke:#0000ff;" x="601.262057" xlink:href="#m30ab2583f0" y="226.366766"/>
     <use style="fill:#0000ff;stroke:#0000ff;" x="610.361424" xlink:href="#m30ab2583f0" y="225.16528"/>
     <use style="fill:#0000ff;stroke:#0000ff;" x="619.460791" xlink:href="#m30ab2583f0" y="223.974286"/>
     <use style="fill:#0000ff;stroke:#0000ff;" x="628.560158" xlink:href="#m30ab2583f0" y="222.793513"/>
     <use style="fill:#0000ff;stroke:#0000ff;" x="637.659525" xlink:href="#m30ab2583f0" y="221.622705"/>
     <use style="fill:#0000ff;stroke:#0000ff;" x="646.758892" xlink:href="#m30ab2583f0" y="220.461612"/>
     <use style="fill:#0000ff;stroke:#0000ff;" x="655.858259" xlink:href="#m30ab2583f0" y="219.309996"/>
     <use style="fill:#0000ff;stroke:#0000ff;" x="664.957626" xlink:href="#m30ab2583f0" y="218.167631"/>
     <use style="fill:#0000ff;stroke:#0000ff;" x="674.056994" xlink:href="#m30ab2583f0" y="217.034297"/>
    </g>
   </g>
   <g id="line2d_22">
    <path clip-path="url(#p4569b876b7)" d="M 182.691169 294.486421 
" style="fill:none;stroke:#ff0000;stroke-linecap:square;stroke-width:2;"/>
    <g clip-path="url(#p4569b876b7)">
     <use style="fill:#ff0000;stroke:#ff0000;" x="182.691169" xlink:href="#m4fab23964d" y="294.486421"/>
    </g>
   </g>
   <g id="patch_8">
    <path d="M 72.133859 298.359028 
L 72.133859 213.16169 
" style="fill:none;stroke:#000000;stroke-linecap:square;stroke-linejoin:miter;stroke-width:0.8;"/>
   </g>
   <g id="patch_9">
    <path d="M 702.72 298.359028 
L 702.72 213.16169 
" style="fill:none;stroke:#000000;stroke-linecap:square;stroke-linejoin:miter;stroke-width:0.8;"/>
   </g>
   <g id="patch_10">
    <path d="M 72.133859 298.359028 
L 702.72 298.359028 
" style="fill:none;stroke:#000000;stroke-linecap:square;stroke-linejoin:miter;stroke-width:0.8;"/>
   </g>
   <g id="patch_11">
    <path d="M 72.133859 213.16169 
L 702.72 213.16169 
" style="fill:none;stroke:#000000;stroke-linecap:square;stroke-linejoin:miter;stroke-width:0.8;"/>
   </g>
   <g id="text_9">
    <!-- $W_{\rm opt} = 10$ -->
    <g transform="translate(164.492435 232.524721)scale(0.16 -0.16)">
     <defs>
      <path d="M 43.09375 21.1875 
C 43.09375 34 33.796875 44 22.90625 44 
C 12 44 2.703125 34 2.703125 21.1875 
C 2.703125 8.609375 12 -1 22.90625 -1 
C 33.796875 -1 43.09375 8.609375 43.09375 21.1875 
z
M 22.90625 0.796875 
C 18.203125 0.796875 14.203125 3.59375 11.90625 7.5 
C 9.40625 11.984375 9.09375 17.59375 9.09375 22 
C 9.09375 26.203125 9.296875 31.40625 11.90625 35.90625 
C 13.90625 39.203125 17.796875 42.40625 22.90625 42.40625 
C 27.40625 42.40625 31.203125 39.90625 33.59375 36.40625 
C 36.703125 31.703125 36.703125 25.109375 36.703125 22 
C 36.703125 18.09375 36.5 12.109375 33.796875 7.296875 
C 31 2.703125 26.703125 0.796875 22.90625 0.796875 
z
" id="CMR17-111"/>
      <path d="M 22 -16.609375 
C 15.59375 -16.609375 15.203125 -16.203125 15.203125 -12.328125 
L 15.203125 6.28125 
C 18.09375 2.09375 22.296875 -0.59375 27.59375 -0.59375 
C 37.59375 -0.59375 47.703125 8.171875 47.703125 21.6875 
C 47.703125 34.234375 39 43.78125 28.703125 43.78125 
C 22.703125 43.78125 17.796875 40.5 15 36.53125 
L 15 43.78125 
L 3.09375 42.6875 
L 3.09375 40.109375 
C 9 40.109375 9.90625 39.5 9.90625 34.734375 
L 9.90625 -12.328125 
C 9.90625 -16.109375 9.5 -16.609375 3.09375 -16.609375 
L 3.09375 -19.1875 
C 5.5 -19 9.90625 -19 12.5 -19 
C 15.09375 -19 19.59375 -19 22 -19.1875 
z
M 15.203125 31.4375 
C 15.203125 32.84375 15.203125 34.921875 19.09375 38.609375 
C 19.59375 39.015625 23 42 28 42 
C 35.296875 42 41.296875 32.9375 41.296875 21.59375 
C 41.296875 10.25 34.90625 1 27 1 
C 23.40625 1 19.5 2.6875 16.5 7.375 
C 15.203125 9.5625 15.203125 10.15625 15.203125 11.75 
z
" id="CMR17-112"/>
      <path d="M 64.296875 31.515625 
C 65.796875 31.515625 67.296875 31.515625 67.296875 33.203125 
C 67.296875 35 65.59375 35 63.90625 35 
L 8 35 
C 6.296875 35 4.59375 35 4.59375 33.203125 
C 4.59375 31.515625 6.09375 31.515625 7.59375 31.515625 
z
M 63.90625 14 
C 65.59375 14 67.296875 14 67.296875 15.796875 
C 67.296875 17.484375 65.796875 17.484375 64.296875 17.484375 
L 7.59375 17.484375 
C 6.09375 17.484375 4.59375 17.484375 4.59375 15.796875 
C 4.59375 14 6.296875 14 8 14 
z
" id="CMR17-61"/>
     </defs>
     <use transform="scale(0.996264)" xlink:href="#CMMI12-87"/>
     <use transform="translate(92.095909 -14.943915)scale(0.697382)" xlink:href="#CMR17-111"/>
     <use transform="translate(124.079091 -14.943915)scale(0.697382)" xlink:href="#CMR17-112"/>
     <use transform="translate(159.7057 -14.943915)scale(0.697382)" xlink:href="#CMR17-116"/>
     <use transform="translate(212.574261 0)scale(0.996264)" xlink:href="#CMR17-61"/>
     <use transform="translate(311.963058 0)scale(0.996264)" xlink:href="#CMR17-49"/>
     <use transform="translate(357.653535 0)scale(0.996264)" xlink:href="#CMR17-48"/>
    </g>
   </g>
   <g id="text_10">
    <!-- $\tau_{\rm opt} = 3.7$ -->
    <g transform="translate(164.492435 248.015146)scale(0.16 -0.16)">
     <defs>
      <path d="M 22.09375 33.703125 
C 31 33.703125 34.90625 25.96875 34.90625 17.03125 
C 34.90625 5 28.5 0.390625 22.703125 0.390625 
C 17.40625 0.390625 8.796875 3.03125 6.09375 10.828125 
C 6.59375 10.625 7.09375 10.625 7.59375 10.625 
C 10 10.625 11.796875 12.21875 11.796875 14.8125 
C 11.796875 17.703125 9.59375 19 7.59375 19 
C 5.90625 19 3.296875 18.203125 3.296875 14.46875 
C 3.296875 5.234375 12.296875 -2 22.90625 -2 
C 34 -2 42.5 6.71875 42.5 16.953125 
C 42.5 26.671875 34.5 33.703125 25 34.796875 
C 32.59375 36.375 39.90625 43.0625 39.90625 52.015625 
C 39.90625 59.6875 32 65.296875 23 65.296875 
C 13.90625 65.296875 5.90625 59.828125 5.90625 52.015625 
C 5.90625 48.59375 8.5 48 9.796875 48 
C 11.90625 48 13.703125 49.296875 13.703125 51.890625 
C 13.703125 54.46875 11.90625 55.765625 9.796875 55.765625 
C 9.40625 55.765625 8.90625 55.765625 8.5 55.578125 
C 11.40625 61.859375 19.296875 63 22.796875 63 
C 26.296875 63 32.90625 61.328125 32.90625 51.875 
C 32.90625 49.109375 32.5 44.1875 29.09375 39.84375 
C 26.09375 36 22.703125 36 19.40625 35.6875 
C 18.90625 35.6875 16.59375 35.453125 16.203125 35.453125 
C 15.5 35.359375 15.09375 35.265625 15.09375 34.5 
C 15.09375 33.796875 15.203125 33.703125 17.203125 33.703125 
z
" id="CMR17-51"/>
      <path d="M 45.09375 61.578125 
L 45.09375 63.765625 
L 21.59375 63.765625 
C 9.90625 63.765625 9.703125 65.078125 9.296875 67 
L 7.5 67 
L 4.59375 48.34375 
L 6.40625 48.34375 
C 6.703125 50.234375 7.40625 55.3125 8.59375 57.203125 
C 9.203125 58 16.59375 58 18.296875 58 
L 40.296875 58 
L 29.203125 41.578125 
C 21.796875 30.53125 16.703125 15.609375 16.703125 2.578125 
C 16.703125 1.390625 16.703125 -2 20.296875 -2 
C 23.90625 -2 23.90625 1.390625 23.90625 2.671875 
L 23.90625 7.265625 
C 23.90625 23.5625 26.703125 34.3125 31.296875 41.1875 
z
" id="CMR17-55"/>
     </defs>
     <use transform="scale(0.996264)" xlink:href="#CMMI12-28"/>
     <use transform="translate(42.363841 -14.943915)scale(0.697382)" xlink:href="#CMR17-111"/>
     <use transform="translate(74.347023 -14.943915)scale(0.697382)" xlink:href="#CMR17-112"/>
     <use transform="translate(109.973631 -14.943915)scale(0.697382)" xlink:href="#CMR17-116"/>
     <use transform="translate(162.842192 0)scale(0.996264)" xlink:href="#CMR17-61"/>
     <use transform="translate(262.230989 0)scale(0.996264)" xlink:href="#CMR17-51"/>
     <use transform="translate(307.921466 0)scale(0.996264)" xlink:href="#CMMI12-58"/>
     <use transform="translate(335.018643 0)scale(0.996264)" xlink:href="#CMR17-55"/>
    </g>
   </g>
   <g id="text_11">
    <!-- $N = 260, N_{\rm ind} = 34$ -->
    <g transform="translate(164.492435 263.505571)scale(0.16 -0.16)">
     <defs>
      <path d="M 74 57.78125 
C 75.09375 62.09375 76.703125 65.09375 84.296875 65.09375 
C 84.59375 65.09375 85.796875 65.09375 85.796875 66.859375 
C 85.796875 68 84.90625 68 84.5 68 
C 82.5 68 77.40625 68 75.40625 68 
L 70.59375 68 
C 69.203125 68 67.40625 68 66 68 
C 65.40625 68 64.203125 68 64.203125 66.09375 
C 64.203125 65.09375 65 65.09375 65.703125 65.09375 
C 71.703125 65.09375 72.09375 62.796875 72.09375 60.984375 
C 72.09375 60.09375 72 59.78125 71.703125 58.390625 
L 60.40625 13.28125 
L 39 66.390625 
C 38.296875 68 38.203125 68 36 68 
L 23.796875 68 
C 21.796875 68 20.90625 68 20.90625 66.09375 
C 20.90625 65.09375 21.59375 65.09375 23.5 65.09375 
C 24 65.09375 29.90625 65.09375 29.90625 64.296875 
C 29.90625 64.09375 29.703125 63.296875 29.59375 63 
L 16.296875 9.921875 
C 15.09375 5 12.703125 2.90625 6.09375 2.90625 
C 5.59375 2.90625 4.59375 2.90625 4.59375 1.046875 
C 4.59375 0 5.59375 0 5.90625 0 
C 7.90625 0 13 0 15 0 
L 19.796875 0 
C 21.203125 0 22.90625 0 24.296875 0 
C 25 0 26.09375 0 26.09375 1.90625 
C 26.09375 2.8125 25.09375 2.90625 24.703125 2.90625 
C 21.40625 2.90625 18.203125 3.5 18.203125 7.09375 
C 18.203125 7.890625 18.40625 8.78125 18.59375 9.578125 
L 32.09375 63 
C 32.703125 62 32.703125 61.8125 33.09375 60.90625 
L 56.90625 1.796875 
C 57.40625 0.59375 57.59375 0 58.5 0 
C 59.5 0 59.59375 0.296875 60 2 
z
" id="CMMI12-78"/>
      <path d="M 10.59375 34 
C 10.59375 57.65625 21.796875 63 28.296875 63 
C 30.40625 63 35.5 62.640625 37.5 59 
C 35.90625 59 32.90625 59 32.90625 55.515625 
C 32.90625 52.828125 35.09375 51.921875 36.5 51.921875 
C 37.40625 51.921875 40.09375 52.3125 40.09375 55.625 
C 40.09375 61.78125 35.09375 65.296875 28.203125 65.296875 
C 16.296875 65.296875 3.796875 52.96875 3.796875 31 
C 3.796875 3.953125 15.09375 -2 23.09375 -2 
C 32.796875 -2 42 6.671875 42 20.046875 
C 42 32.515625 33.90625 41.59375 23.703125 41.59375 
C 17.59375 41.59375 13.09375 37.609375 10.59375 30.625 
z
M 23.09375 0.390625 
C 10.796875 0.390625 10.796875 18.75 10.796875 22.4375 
C 10.796875 29.625 14.203125 40 23.5 40 
C 25.203125 40 30.09375 40 33.40625 33.125 
C 35.203125 29.21875 35.203125 25.140625 35.203125 20.140625 
C 35.203125 14.75 35.203125 10.78125 33.09375 6.78125 
C 30.90625 2.671875 27.703125 0.390625 23.09375 0.390625 
z
" id="CMR17-54"/>
      <path d="M 19.5 -0.484375 
C 19.5 5.359375 17.59375 9.671875 13.5 9.671875 
C 10.296875 9.671875 8.703125 7.078125 8.703125 4.890625 
C 8.703125 2.6875 10.203125 0 13.59375 0 
C 14.90625 0 16 0.40625 16.90625 1.296875 
C 17.09375 1.5 17.203125 1.5 17.296875 1.5 
C 17.5 1.5 17.5 0.078125 17.5 -0.421875 
C 17.5 -3.75 16.90625 -10.296875 11.09375 -16.875 
C 10 -18.078125 10 -18.28125 10 -18.484375 
C 10 -19 10.5 -19.5 11 -19.5 
C 11.796875 -19.5 19.5 -12.046875 19.5 -0.484375 
z
" id="CMMI12-59"/>
      <path d="M 29.203125 67.59375 
L 29.203125 65 
C 35.09375 65 36 64.40625 36 59.6875 
L 36 36.640625 
C 35.59375 37.140625 31.5 43.59375 23.40625 43.59375 
C 13.203125 43.59375 3.296875 34.5 3.296875 21.3125 
C 3.296875 8.203125 12.59375 -1 22.40625 -1 
C 30.90625 -1 35.296875 5.265625 35.796875 5.9375 
L 35.796875 -0.984375 
L 47.90625 -0.984375 
L 47.90625 2 
C 42 2 41.09375 2.59375 41.09375 7.390625 
L 41.09375 68.6875 
z
M 35.796875 11.796875 
C 35.796875 8.796875 34 6.09375 31.703125 4.09375 
C 28.296875 1.09375 24.90625 0.59375 23 0.59375 
C 20.09375 0.59375 9.703125 2.09375 9.703125 21.1875 
C 9.703125 40.8125 21.296875 42 23.90625 42 
C 28.5 42 32.203125 39.40625 34.5 35.796875 
C 35.796875 33.703125 35.796875 33.40625 35.796875 31.609375 
z
" id="CMR17-100"/>
      <path d="M 33.59375 64.40625 
C 33.59375 66.5 33.5 66.5 31.703125 66.5 
L 2 19.59375 
L 2 17 
L 27.796875 17 
L 27.796875 7.140625 
C 27.796875 3.5 27.59375 2.5 20.59375 2.5 
L 18.703125 2.5 
L 18.703125 0 
C 21.90625 0 27.296875 0 30.703125 0 
C 34.09375 0 39.5 0 42.703125 0 
L 42.703125 2.5 
L 40.796875 2.5 
C 33.796875 2.5 33.59375 3.5 33.59375 7.140625 
L 33.59375 17 
L 43.796875 17 
L 43.796875 19.59375 
L 33.59375 19.59375 
z
M 28.09375 57.859375 
L 28.09375 19.59375 
L 4 19.59375 
z
" id="CMR17-52"/>
     </defs>
     <use transform="scale(0.996264)" xlink:href="#CMMI12-78"/>
     <use transform="translate(116.195781 0)scale(0.996264)" xlink:href="#CMR17-61"/>
     <use transform="translate(215.584578 0)scale(0.996264)" xlink:href="#CMR17-50"/>
     <use transform="translate(261.275056 0)scale(0.996264)" xlink:href="#CMR17-54"/>
     <use transform="translate(306.965533 0)scale(0.996264)" xlink:href="#CMR17-48"/>
     <use transform="translate(352.65601 0)scale(0.996264)" xlink:href="#CMMI12-59"/>
     <use transform="translate(396.357592 0)scale(0.996264)" xlink:href="#CMMI12-78"/>
     <use transform="translate(474.472711 -14.943915)scale(0.697382)" xlink:href="#CMR17-105"/>
     <use transform="translate(491.88237 -14.943915)scale(0.697382)" xlink:href="#CMR17-110"/>
     <use transform="translate(527.508978 -14.943915)scale(0.697382)" xlink:href="#CMR17-100"/>
     <use transform="translate(591.307727 0)scale(0.996264)" xlink:href="#CMR17-61"/>
     <use transform="translate(690.696524 0)scale(0.996264)" xlink:href="#CMR17-51"/>
     <use transform="translate(736.387002 0)scale(0.996264)" xlink:href="#CMR17-52"/>
    </g>
   </g>
  </g>
  <g id="axes_3">
   <g id="patch_12">
    <path d="M 72.133859 440.295773 
L 702.72 440.295773 
L 702.72 355.098436 
L 72.133859 355.098436 
z
" style="fill:#ffffff;"/>
   </g>
   <g id="matplotlib.axis_5">
    <g id="xtick_15">
     <g id="line2d_23">
      <g>
       <use style="stroke:#000000;stroke-width:0.8;" x="91.697498" xlink:href="#m52ca804b99" y="440.295773"/>
      </g>
     </g>
     <g id="text_12">
      <!-- $\mathdefault{0}$ -->
      <g transform="translate(87.795504 458.365361)scale(0.16 -0.16)">
       <use transform="scale(0.996264)" xlink:href="#CMR17-48"/>
      </g>
     </g>
    </g>
    <g id="xtick_16">
     <g id="line2d_24">
      <g>
       <use style="stroke:#000000;stroke-width:0.8;" x="182.691169" xlink:href="#m52ca804b99" y="440.295773"/>
      </g>
     </g>
     <g id="text_13">
      <!-- $\mathdefault{10}$ -->
      <g transform="translate(174.887182 458.365361)scale(0.16 -0.16)">
       <use transform="scale(0.996264)" xlink:href="#CMR17-49"/>
       <use transform="translate(45.690477 0)scale(0.996264)" xlink:href="#CMR17-48"/>
      </g>
     </g>
    </g>
    <g id="xtick_17">
     <g id="line2d_25">
      <g>
       <use style="stroke:#000000;stroke-width:0.8;" x="273.68484" xlink:href="#m52ca804b99" y="440.295773"/>
      </g>
     </g>
     <g id="text_14">
      <!-- $\mathdefault{20}$ -->
      <g transform="translate(265.880853 458.365361)scale(0.16 -0.16)">
       <use transform="scale(0.996264)" xlink:href="#CMR17-50"/>
       <use transform="translate(45.690477 0)scale(0.996264)" xlink:href="#CMR17-48"/>
      </g>
     </g>
    </g>
    <g id="xtick_18">
     <g id="line2d_26">
      <g>
       <use style="stroke:#000000;stroke-width:0.8;" x="364.678511" xlink:href="#m52ca804b99" y="440.295773"/>
      </g>
     </g>
     <g id="text_15">
      <!-- $\mathdefault{30}$ -->
      <g transform="translate(356.874524 458.365361)scale(0.16 -0.16)">
       <use transform="scale(0.996264)" xlink:href="#CMR17-51"/>
       <use transform="translate(45.690477 0)scale(0.996264)" xlink:href="#CMR17-48"/>
      </g>
     </g>
    </g>
    <g id="xtick_19">
     <g id="line2d_27">
      <g>
       <use style="stroke:#000000;stroke-width:0.8;" x="455.672183" xlink:href="#m52ca804b99" y="440.295773"/>
      </g>
     </g>
     <g id="text_16">
      <!-- $\mathdefault{40}$ -->
      <g transform="translate(447.868196 458.365361)scale(0.16 -0.16)">
       <use transform="scale(0.996264)" xlink:href="#CMR17-52"/>
       <use transform="translate(45.690477 0)scale(0.996264)" xlink:href="#CMR17-48"/>
      </g>
     </g>
    </g>
    <g id="xtick_20">
     <g id="line2d_28">
      <g>
       <use style="stroke:#000000;stroke-width:0.8;" x="546.665854" xlink:href="#m52ca804b99" y="440.295773"/>
      </g>
     </g>
     <g id="text_17">
      <!-- $\mathdefault{50}$ -->
      <g transform="translate(538.861867 458.365361)scale(0.16 -0.16)">
       <use transform="scale(0.996264)" xlink:href="#CMR17-53"/>
       <use transform="translate(45.690477 0)scale(0.996264)" xlink:href="#CMR17-48"/>
      </g>
     </g>
    </g>
    <g id="xtick_21">
     <g id="line2d_29">
      <g>
       <use style="stroke:#000000;stroke-width:0.8;" x="637.659525" xlink:href="#m52ca804b99" y="440.295773"/>
      </g>
     </g>
     <g id="text_18">
      <!-- $\mathdefault{60}$ -->
      <g transform="translate(629.855538 458.365361)scale(0.16 -0.16)">
       <use transform="scale(0.996264)" xlink:href="#CMR17-54"/>
       <use transform="translate(45.690477 0)scale(0.996264)" xlink:href="#CMR17-48"/>
      </g>
     </g>
    </g>
    <g id="text_19">
     <!-- $\Delta$ -->
     <g transform="translate(378.196582 482.069243)scale(0.24 -0.24)">
      <defs>
       <path d="M 40.59375 68.796875 
C 39.796875 70.5 39.40625 70.5 38.59375 70.5 
C 37.40625 70.5 37.296875 70.296875 36.59375 68.890625 
L 4.203125 1.703125 
C 4.09375 1.5 3.703125 0.59375 3.703125 0.5 
C 3.703125 0.09375 3.796875 0 5.59375 0 
L 71.5 0 
C 73.296875 0 73.40625 0.09375 73.40625 0.5 
C 73.40625 0.59375 73 1.5 72.90625 1.703125 
z
M 36.09375 63.09375 
L 63.796875 5.59375 
L 8.296875 5.59375 
z
" id="CMR17-1"/>
      </defs>
      <use transform="scale(0.996264)" xlink:href="#CMR17-1"/>
     </g>
    </g>
   </g>
   <g id="matplotlib.axis_6">
    <g id="ytick_5">
     <g id="line2d_30">
      <g>
       <use style="stroke:#000000;stroke-width:0.8;" x="72.133859" xlink:href="#m5df71aee41" y="436.423167"/>
      </g>
     </g>
     <g id="text_20">
      <!-- $\mathdefault{0}$ -->
      <g transform="translate(57.329872 441.957961)scale(0.16 -0.16)">
       <use transform="scale(0.996264)" xlink:href="#CMR17-48"/>
      </g>
     </g>
    </g>
    <g id="ytick_6">
     <g id="line2d_31">
      <g>
       <use style="stroke:#000000;stroke-width:0.8;" x="72.133859" xlink:href="#m5df71aee41" y="372.435519"/>
      </g>
     </g>
     <g id="text_21">
      <!-- $\mathdefault{5}$ -->
      <g transform="translate(57.329872 377.970313)scale(0.16 -0.16)">
       <use transform="scale(0.996264)" xlink:href="#CMR17-53"/>
      </g>
     </g>
    </g>
    <g id="text_22">
     <!-- $\Gamma(\Delta)$ -->
     <g transform="translate(47.372293 422.280598)rotate(-90)scale(0.24 -0.24)">
      <defs>
       <path d="M 51.796875 68 
L 5.09375 68 
L 5.09375 65.40625 
C 12 65.40625 13.09375 65.40625 13.09375 60.90625 
L 13.09375 7 
C 13.09375 2.5 12 2.5 5.09375 2.5 
L 5.09375 0 
C 8 0 13.59375 0 16.703125 0 
C 20.796875 0 25.59375 0 29.703125 0 
L 29.703125 2.5 
L 27.5 2.5 
C 19.90625 2.5 19.703125 3.5 19.703125 7.109375 
L 19.703125 61.5 
C 19.703125 64.90625 19.90625 65.40625 23.90625 65.40625 
L 34.90625 65.40625 
C 50.09375 65.40625 50.90625 58.40625 52.40625 45.90625 
L 54.203125 45.90625 
z
" id="CMR17-0"/>
      </defs>
      <use transform="scale(0.996264)" xlink:href="#CMR17-0"/>
      <use transform="translate(57.381408 0)scale(0.996264)" xlink:href="#CMR17-40"/>
      <use transform="translate(92.662176 0)scale(0.996264)" xlink:href="#CMR17-1"/>
      <use transform="translate(169.581766 0)scale(0.996264)" xlink:href="#CMR17-41"/>
     </g>
    </g>
    <g id="text_23">
     <!-- $\times\mathdefault{10^{13}}\mathdefault{}$ -->
     <g transform="translate(72.133859 352.098436)scale(0.16 -0.16)">
      <defs>
       <path d="M 38.90625 27.890625 
L 18.90625 47.796875 
C 17.703125 49 17.5 49.1875 16.703125 49.1875 
C 15.703125 49.1875 14.703125 48.296875 14.703125 47.1875 
C 14.703125 46.5 14.90625 46.296875 16 45.1875 
L 36 25.09375 
L 16 5 
C 14.90625 3.890625 14.703125 3.6875 14.703125 3 
C 14.703125 1.890625 15.703125 1 16.703125 1 
C 17.5 1 17.703125 1.1875 18.90625 2.390625 
L 38.796875 22.296875 
L 59.5 1.59375 
C 59.703125 1.5 60.40625 1 61 1 
C 62.203125 1 63 1.890625 63 3 
C 63 3.1875 63 3.59375 62.703125 4.09375 
C 62.59375 4.296875 46.703125 20 41.703125 25.09375 
L 60 43.390625 
C 60.5 44 62 45.296875 62.5 45.890625 
C 62.59375 46.09375 63 46.5 63 47.1875 
C 63 48.296875 62.203125 49.1875 61 49.1875 
C 60.203125 49.1875 59.796875 48.796875 58.703125 47.6875 
z
" id="CMSY10-2"/>
       <path d="M 65.90625 23 
C 67.59375 23 69.40625 23 69.40625 25 
C 69.40625 27 67.59375 27 65.90625 27 
L 11.796875 27 
C 10.09375 27 8.296875 27 8.296875 25 
C 8.296875 23 10.09375 23 11.796875 23 
z
" id="CMSY10-0"/>
      </defs>
      <use transform="scale(0.996264)" xlink:href="#CMSY10-2"/>
      <use transform="translate(77.487468 0)scale(0.996264)" xlink:href="#CMR17-49"/>
      <use transform="translate(123.177945 0)scale(0.996264)" xlink:href="#CMR17-48"/>
      <use transform="translate(168.868422 36.153639)scale(0.697382)" xlink:href="#CMSY10-0"/>
      <use transform="translate(223.109415 36.153639)scale(0.697382)" xlink:href="#CMR17-49"/>
      <use transform="translate(255.092597 36.153639)scale(0.697382)" xlink:href="#CMR17-51"/>
     </g>
    </g>
   </g>
   <g id="line2d_32">
    <path clip-path="url(#p0d9aceb710)" d="M 72.133859 436.423167 
L 702.72 436.423167 
" style="fill:none;stroke:#000000;stroke-linecap:square;stroke-width:2;"/>
   </g>
   <g id="line2d_33">
    <path clip-path="url(#p0d9aceb710)" d="M 100.796865 358.971042 
L 109.896232 374.887113 
L 118.995599 391.711664 
L 128.094966 397.046272 
L 137.194333 388.599404 
L 146.293701 395.993114 
L 155.393068 390.114896 
L 164.492435 399.198065 
L 173.591802 410.420724 
L 182.691169 409.492934 
L 191.790536 404.878414 
L 200.889903 404.955213 
L 209.98927 403.528071 
L 219.088638 401.295046 
L 228.188005 403.672325 
L 237.287372 402.897026 
L 246.386739 404.056013 
L 255.486106 409.201204 
L 264.585473 410.977751 
L 273.68484 416.945929 
L 282.784207 413.632331 
L 291.883575 415.561097 
L 300.982942 409.46561 
L 310.082309 414.602112 
L 319.181676 411.297973 
L 328.281043 415.049376 
L 337.38041 414.040926 
L 346.479777 402.588209 
L 355.579144 402.142216 
L 364.678511 405.852455 
L 373.777879 403.636186 
L 382.877246 404.877829 
L 391.976613 402.621893 
L 401.07598 407.285737 
L 410.175347 420.334029 
L 419.274714 415.847427 
L 428.374081 415.54667 
L 437.473448 418.27528 
L 446.572816 413.782086 
L 455.672183 413.894554 
L 464.77155 414.407126 
L 473.870917 415.154996 
L 482.970284 420.222828 
L 492.069651 412.301093 
L 501.169018 416.573874 
L 510.268385 413.095302 
L 519.367753 407.833969 
L 528.46712 414.789476 
L 537.566487 419.39583 
L 546.665854 429.658023 
L 555.765221 422.977414 
L 564.864588 425.469364 
L 573.963955 423.83787 
L 583.063322 421.7085 
L 592.162689 424.780776 
L 601.262057 423.146041 
L 610.361424 428.418525 
L 619.460791 430.982057 
L 628.560158 429.744315 
L 637.659525 428.888211 
L 646.758892 420.898833 
L 655.858259 425.894482 
L 664.957626 431.588532 
L 674.056994 427.51858 
" style="fill:none;stroke:#0000ff;stroke-linecap:square;stroke-width:2;"/>
    <g clip-path="url(#p0d9aceb710)">
     <use style="fill:#0000ff;stroke:#0000ff;" x="100.796865" xlink:href="#m30ab2583f0" y="358.971042"/>
     <use style="fill:#0000ff;stroke:#0000ff;" x="109.896232" xlink:href="#m30ab2583f0" y="374.887113"/>
     <use style="fill:#0000ff;stroke:#0000ff;" x="118.995599" xlink:href="#m30ab2583f0" y="391.711664"/>
     <use style="fill:#0000ff;stroke:#0000ff;" x="128.094966" xlink:href="#m30ab2583f0" y="397.046272"/>
     <use style="fill:#0000ff;stroke:#0000ff;" x="137.194333" xlink:href="#m30ab2583f0" y="388.599404"/>
     <use style="fill:#0000ff;stroke:#0000ff;" x="146.293701" xlink:href="#m30ab2583f0" y="395.993114"/>
     <use style="fill:#0000ff;stroke:#0000ff;" x="155.393068" xlink:href="#m30ab2583f0" y="390.114896"/>
     <use style="fill:#0000ff;stroke:#0000ff;" x="164.492435" xlink:href="#m30ab2583f0" y="399.198065"/>
     <use style="fill:#0000ff;stroke:#0000ff;" x="173.591802" xlink:href="#m30ab2583f0" y="410.420724"/>
     <use style="fill:#0000ff;stroke:#0000ff;" x="182.691169" xlink:href="#m30ab2583f0" y="409.492934"/>
     <use style="fill:#0000ff;stroke:#0000ff;" x="191.790536" xlink:href="#m30ab2583f0" y="404.878414"/>
     <use style="fill:#0000ff;stroke:#0000ff;" x="200.889903" xlink:href="#m30ab2583f0" y="404.955213"/>
     <use style="fill:#0000ff;stroke:#0000ff;" x="209.98927" xlink:href="#m30ab2583f0" y="403.528071"/>
     <use style="fill:#0000ff;stroke:#0000ff;" x="219.088638" xlink:href="#m30ab2583f0" y="401.295046"/>
     <use style="fill:#0000ff;stroke:#0000ff;" x="228.188005" xlink:href="#m30ab2583f0" y="403.672325"/>
     <use style="fill:#0000ff;stroke:#0000ff;" x="237.287372" xlink:href="#m30ab2583f0" y="402.897026"/>
     <use style="fill:#0000ff;stroke:#0000ff;" x="246.386739" xlink:href="#m30ab2583f0" y="404.056013"/>
     <use style="fill:#0000ff;stroke:#0000ff;" x="255.486106" xlink:href="#m30ab2583f0" y="409.201204"/>
     <use style="fill:#0000ff;stroke:#0000ff;" x="264.585473" xlink:href="#m30ab2583f0" y="410.977751"/>
     <use style="fill:#0000ff;stroke:#0000ff;" x="273.68484" xlink:href="#m30ab2583f0" y="416.945929"/>
     <use style="fill:#0000ff;stroke:#0000ff;" x="282.784207" xlink:href="#m30ab2583f0" y="413.632331"/>
     <use style="fill:#0000ff;stroke:#0000ff;" x="291.883575" xlink:href="#m30ab2583f0" y="415.561097"/>
     <use style="fill:#0000ff;stroke:#0000ff;" x="300.982942" xlink:href="#m30ab2583f0" y="409.46561"/>
     <use style="fill:#0000ff;stroke:#0000ff;" x="310.082309" xlink:href="#m30ab2583f0" y="414.602112"/>
     <use style="fill:#0000ff;stroke:#0000ff;" x="319.181676" xlink:href="#m30ab2583f0" y="411.297973"/>
     <use style="fill:#0000ff;stroke:#0000ff;" x="328.281043" xlink:href="#m30ab2583f0" y="415.049376"/>
     <use style="fill:#0000ff;stroke:#0000ff;" x="337.38041" xlink:href="#m30ab2583f0" y="414.040926"/>
     <use style="fill:#0000ff;stroke:#0000ff;" x="346.479777" xlink:href="#m30ab2583f0" y="402.588209"/>
     <use style="fill:#0000ff;stroke:#0000ff;" x="355.579144" xlink:href="#m30ab2583f0" y="402.142216"/>
     <use style="fill:#0000ff;stroke:#0000ff;" x="364.678511" xlink:href="#m30ab2583f0" y="405.852455"/>
     <use style="fill:#0000ff;stroke:#0000ff;" x="373.777879" xlink:href="#m30ab2583f0" y="403.636186"/>
     <use style="fill:#0000ff;stroke:#0000ff;" x="382.877246" xlink:href="#m30ab2583f0" y="404.877829"/>
     <use style="fill:#0000ff;stroke:#0000ff;" x="391.976613" xlink:href="#m30ab2583f0" y="402.621893"/>
     <use style="fill:#0000ff;stroke:#0000ff;" x="401.07598" xlink:href="#m30ab2583f0" y="407.285737"/>
     <use style="fill:#0000ff;stroke:#0000ff;" x="410.175347" xlink:href="#m30ab2583f0" y="420.334029"/>
     <use style="fill:#0000ff;stroke:#0000ff;" x="419.274714" xlink:href="#m30ab2583f0" y="415.847427"/>
     <use style="fill:#0000ff;stroke:#0000ff;" x="428.374081" xlink:href="#m30ab2583f0" y="415.54667"/>
     <use style="fill:#0000ff;stroke:#0000ff;" x="437.473448" xlink:href="#m30ab2583f0" y="418.27528"/>
     <use style="fill:#0000ff;stroke:#0000ff;" x="446.572816" xlink:href="#m30ab2583f0" y="413.782086"/>
     <use style="fill:#0000ff;stroke:#0000ff;" x="455.672183" xlink:href="#m30ab2583f0" y="413.894554"/>
     <use style="fill:#0000ff;stroke:#0000ff;" x="464.77155" xlink:href="#m30ab2583f0" y="414.407126"/>
     <use style="fill:#0000ff;stroke:#0000ff;" x="473.870917" xlink:href="#m30ab2583f0" y="415.154996"/>
     <use style="fill:#0000ff;stroke:#0000ff;" x="482.970284" xlink:href="#m30ab2583f0" y="420.222828"/>
     <use style="fill:#0000ff;stroke:#0000ff;" x="492.069651" xlink:href="#m30ab2583f0" y="412.301093"/>
     <use style="fill:#0000ff;stroke:#0000ff;" x="501.169018" xlink:href="#m30ab2583f0" y="416.573874"/>
     <use style="fill:#0000ff;stroke:#0000ff;" x="510.268385" xlink:href="#m30ab2583f0" y="413.095302"/>
     <use style="fill:#0000ff;stroke:#0000ff;" x="519.367753" xlink:href="#m30ab2583f0" y="407.833969"/>
     <use style="fill:#0000ff;stroke:#0000ff;" x="528.46712" xlink:href="#m30ab2583f0" y="414.789476"/>
     <use style="fill:#0000ff;stroke:#0000ff;" x="537.566487" xlink:href="#m30ab2583f0" y="419.39583"/>
     <use style="fill:#0000ff;stroke:#0000ff;" x="546.665854" xlink:href="#m30ab2583f0" y="429.658023"/>
     <use style="fill:#0000ff;stroke:#0000ff;" x="555.765221" xlink:href="#m30ab2583f0" y="422.977414"/>
     <use style="fill:#0000ff;stroke:#0000ff;" x="564.864588" xlink:href="#m30ab2583f0" y="425.469364"/>
     <use style="fill:#0000ff;stroke:#0000ff;" x="573.963955" xlink:href="#m30ab2583f0" y="423.83787"/>
     <use style="fill:#0000ff;stroke:#0000ff;" x="583.063322" xlink:href="#m30ab2583f0" y="421.7085"/>
     <use style="fill:#0000ff;stroke:#0000ff;" x="592.162689" xlink:href="#m30ab2583f0" y="424.780776"/>
     <use style="fill:#0000ff;stroke:#0000ff;" x="601.262057" xlink:href="#m30ab2583f0" y="423.146041"/>
     <use style="fill:#0000ff;stroke:#0000ff;" x="610.361424" xlink:href="#m30ab2583f0" y="428.418525"/>
     <use style="fill:#0000ff;stroke:#0000ff;" x="619.460791" xlink:href="#m30ab2583f0" y="430.982057"/>
     <use style="fill:#0000ff;stroke:#0000ff;" x="628.560158" xlink:href="#m30ab2583f0" y="429.744315"/>
     <use style="fill:#0000ff;stroke:#0000ff;" x="637.659525" xlink:href="#m30ab2583f0" y="428.888211"/>
     <use style="fill:#0000ff;stroke:#0000ff;" x="646.758892" xlink:href="#m30ab2583f0" y="420.898833"/>
     <use style="fill:#0000ff;stroke:#0000ff;" x="655.858259" xlink:href="#m30ab2583f0" y="425.894482"/>
     <use style="fill:#0000ff;stroke:#0000ff;" x="664.957626" xlink:href="#m30ab2583f0" y="431.588532"/>
     <use style="fill:#0000ff;stroke:#0000ff;" x="674.056994" xlink:href="#m30ab2583f0" y="427.51858"/>
    </g>
   </g>
   <g id="line2d_34">
    <path clip-path="url(#p0d9aceb710)" d="M 182.691169 409.492934 
" style="fill:none;stroke:#ff0000;stroke-linecap:square;stroke-width:2;"/>
    <g clip-path="url(#p0d9aceb710)">
     <use style="fill:#ff0000;stroke:#ff0000;" x="182.691169" xlink:href="#m4fab23964d" y="409.492934"/>
    </g>
   </g>
   <g id="patch_13">
    <path d="M 72.133859 440.295773 
L 72.133859 355.098436 
" style="fill:none;stroke:#000000;stroke-linecap:square;stroke-linejoin:miter;stroke-width:0.8;"/>
   </g>
   <g id="patch_14">
    <path d="M 702.72 440.295773 
L 702.72 355.098436 
" style="fill:none;stroke:#000000;stroke-linecap:square;stroke-linejoin:miter;stroke-width:0.8;"/>
   </g>
   <g id="patch_15">
    <path d="M 72.133859 440.295773 
L 702.72 440.295773 
" style="fill:none;stroke:#000000;stroke-linecap:square;stroke-linejoin:miter;stroke-width:0.8;"/>
   </g>
   <g id="patch_16">
    <path d="M 72.133859 355.098436 
L 702.72 355.098436 
" style="fill:none;stroke:#000000;stroke-linecap:square;stroke-linejoin:miter;stroke-width:0.8;"/>
   </g>
  </g>
  <g id="text_24">
   <!-- L32 beta12p0 kappa0p1475 Buchoff axial -->
   <g transform="translate(202.568844 23.363515)scale(0.192 -0.192)">
    <defs>
     <path d="M 54.203125 25.234375 
L 52.40625 25.234375 
C 51.59375 15.359375 50.296875 2.59375 33.203125 2.59375 
L 23.90625 2.59375 
C 19.90625 2.59375 19.703125 3.078125 19.703125 6.46875 
L 19.703125 60.90625 
C 19.703125 64.515625 19.90625 65.5 27.5 65.5 
L 29.703125 65.5 
L 29.703125 68 
C 25.59375 68 20.796875 68 16.703125 68 
C 13.59375 68 8 68 5.09375 68 
L 5.09375 65.5 
C 12 65.5 13.09375 65.5 13.09375 61.015625 
L 13.09375 7.0625 
C 13.09375 2.59375 12 2.59375 5.09375 2.59375 
L 5.09375 0 
L 51.796875 0 
z
" id="CMR17-76"/>
     <path d="M 15 68.6875 
L 3.09375 67.59375 
L 3.09375 65 
C 9 65 9.90625 64.40625 9.90625 59.640625 
L 9.90625 -0.203125 
L 11.703125 -0.203125 
L 14.59375 6.890625 
C 17.5 2.203125 21.796875 -1 27.59375 -1 
C 37.59375 -1 47.703125 7.8125 47.703125 21.40625 
C 47.703125 34.1875 38.703125 43.59375 28.59375 43.59375 
C 22.40625 43.59375 18 40.296875 15 36.40625 
z
M 15.203125 31.3125 
C 15.203125 33.09375 15.203125 33.40625 16.59375 35.5 
C 20.5 41.515625 26.09375 42 28 42 
C 31 42 41.296875 40.390625 41.296875 21.5 
C 41.296875 1.6875 29.5 0.59375 27.09375 0.59375 
C 24 0.59375 19.5 1.78125 16.296875 7.59375 
C 15.203125 9.5 15.203125 9.703125 15.203125 11.484375 
z
" id="CMR17-98"/>
     <path d="M 38.09375 23 
C 38.5 23.40625 38.5 23.609375 38.5 24.625 
C 38.5 34.96875 33.09375 44 21.703125 44 
C 11.09375 44 2.703125 33.890625 2.703125 21.609375 
C 2.703125 8.609375 12.203125 -1 22.796875 -1 
C 34 -1 38.40625 9.484375 38.40625 11.5625 
C 38.40625 12.25 37.796875 12.25 37.59375 12.25 
C 36.90625 12.25 36.796875 12.046875 36.40625 10.875 
C 34.203125 4.140625 28.703125 0.796875 23.5 0.796875 
C 19.203125 0.796875 14.90625 3.171875 12.203125 7.5 
C 9.09375 12.546875 9.09375 18.375 9.09375 23 
z
M 9.203125 24.5 
C 9.90625 39.140625 17.59375 42.40625 21.59375 42.40625 
C 28.40625 42.40625 33 35.890625 33.09375 24.5 
z
" id="CMR17-101"/>
     <path d="M 36 25.828125 
C 36 32.375 36 35.84375 31.796875 39.734375 
C 28.09375 43 23.796875 44 20.40625 44 
C 12.5 44 6.796875 37.609375 6.796875 30.796875 
C 6.796875 27 9.796875 27 10.40625 27 
C 11.703125 27 14 27.78125 14 30.53125 
C 14 33 12.09375 34.078125 10.40625 34.078125 
C 10 34.078125 9.5 33.96875 9.203125 33.875 
C 11.296875 40.5 16.703125 42.40625 20.203125 42.40625 
C 25.203125 42.40625 30.703125 37.953125 30.703125 29.453125 
L 30.703125 25 
C 24.796875 25 17.703125 24.203125 12.09375 21.203125 
C 5.796875 17.703125 4 12.703125 4 8.90625 
C 4 1.203125 13 -1 18.296875 -1 
C 23.796875 -1 28.90625 2.171875 31.09375 7.984375 
C 31.296875 3.640625 34.09375 -0.28125 38.5 -0.28125 
C 40.59375 -0.28125 45.90625 1.09375 45.90625 8.859375 
L 45.90625 14.375 
L 44.09375 14.375 
L 44.09375 8.78125 
C 44.09375 2.78125 41.40625 2 40.09375 2 
C 36 2 36 7.15625 36 11.53125 
z
M 30.703125 13.59375 
C 30.703125 4.953125 24.5 0.59375 19 0.59375 
C 14 0.59375 10.09375 4.296875 10.09375 8.90625 
C 10.09375 11.890625 11.40625 17.1875 17.203125 20.390625 
C 22 23.09375 27.5 23.5 30.703125 23.5 
z
" id="CMR17-97"/>
     <path d="M 26.09375 26.140625 
C 26 26.34375 25.5 26.9375 25.5 27.234375 
C 25.5 27.4375 32.59375 33.921875 33.5 34.71875 
C 39.203125 39.5 42.796875 40 45.40625 40 
L 45.40625 42.703125 
C 44.796875 42.703125 44.59375 42.703125 44.5 42.5 
L 39.59375 42.5 
C 36.796875 42.5 32.5 42.5 29.796875 42.703125 
L 29.796875 40.09375 
C 31.203125 39.984375 32.203125 39.1875 32.203125 37.796875 
C 32.203125 35.796875 30.203125 33.90625 30.09375 33.90625 
L 15 20.140625 
L 15 68.6875 
L 3.09375 67.59375 
L 3.09375 65 
C 9 65 9.90625 64.40625 9.90625 59.640625 
L 9.90625 6.65625 
C 9.90625 2.875 9.5 2.390625 3.09375 2.390625 
L 3.09375 -0.203125 
C 5.5 0 9.90625 0 12.40625 0 
C 14.90625 0 19.296875 0 21.703125 -0.203125 
L 21.703125 2.390625 
C 15.296875 2.390625 14.90625 2.78125 14.90625 6.6875 
L 14.90625 17.65625 
L 21.796875 23.9375 
L 31.90625 8.96875 
C 33.09375 7.171875 34.09375 5.765625 34.09375 4.46875 
C 34.09375 2.6875 32.296875 2.390625 31.09375 2.390625 
L 31.09375 -0.203125 
C 33.5 0 37.796875 0 40.296875 0 
C 42.09375 0 45.796875 0 47.5 0 
L 47.5 2.390625 
C 42.796875 2.390625 41.703125 3.28125 38.703125 7.671875 
z
" id="CMR17-107"/>
     <path d="M 5.203125 68 
L 5.203125 65.40625 
C 12.09375 65.40625 13.203125 65.40625 13.203125 60.9375 
L 13.203125 7.0625 
C 13.203125 2.59375 12.09375 2.59375 5.203125 2.59375 
L 5.203125 0 
L 39.59375 0 
C 52.40625 0 60.703125 9.109375 60.703125 18.1875 
C 60.703125 27.203125 52.5 34.890625 41.796875 34.890625 
C 51.40625 36.8125 58.09375 43.296875 58.09375 51 
C 58.09375 59.40625 49.90625 68 37 68 
z
M 19.5 36 
L 19.5 61.515625 
C 19.5 64.921875 19.703125 65.40625 23.703125 65.40625 
L 36.5 65.40625 
C 46.40625 65.40625 50.796875 57.40625 50.796875 51.203125 
C 50.796875 43.609375 44.703125 36 33.90625 36 
z
M 23.703125 2.59375 
C 19.703125 2.59375 19.5 3.078125 19.5 6.453125 
L 19.5 34.40625 
L 38 34.40625 
C 48.296875 34.40625 53.296875 25.390625 53.296875 18.15625 
C 53.296875 10.921875 47.59375 2.59375 36.703125 2.59375 
z
" id="CMR17-66"/>
     <path d="M 29.40625 42.078125 
L 29.40625 39.5 
C 35.296875 39.5 36.203125 38.890625 36.203125 34.15625 
L 36.203125 16.125 
C 36.203125 7.8125 31.703125 0.59375 24.296875 0.59375 
C 16.09375 0.59375 15.40625 5.4375 15.40625 10.59375 
L 15.40625 43.171875 
L 3.296875 42.078125 
L 3.296875 39.5 
C 7.296875 39.5 10 39.5 10.09375 35.53125 
L 10.09375 16.53125 
C 10.09375 9.890625 10.09375 5.640625 12.703125 2.859375 
C 14 1.578125 16.5 -1 23.703125 -1 
C 32.203125 -1 35.5 5.890625 36.296875 7.90625 
L 36.40625 7.90625 
L 36.40625 -0.984375 
L 48.296875 -0.984375 
L 48.296875 2 
C 42.40625 2 41.5 2.59375 41.5 7.390625 
L 41.5 43.171875 
z
" id="CMR17-117"/>
     <path d="M 34.90625 35 
C 33 35 30.203125 35 30.203125 31.515625 
C 30.203125 28.71875 32.5 27.921875 33.796875 27.921875 
C 34.5 27.921875 37.40625 28.234375 37.40625 31.625 
C 37.40625 38.546875 30.59375 43.796875 22.90625 43.796875 
C 12.296875 43.796875 3.296875 34.03125 3.296875 21.296875 
C 3.296875 8.0625 12.703125 -1 22.90625 -1 
C 35.296875 -1 38.40625 10.578125 38.40625 11.6875 
C 38.40625 12.09375 38.296875 12.390625 37.59375 12.390625 
C 36.90625 12.390625 36.796875 12.296875 36.40625 10.984375 
C 33.796875 2.8125 28.09375 0.796875 23.796875 0.796875 
C 17.40625 0.796875 9.703125 6.671875 9.703125 21.390625 
C 9.703125 36.53125 17.09375 42 23 42 
C 26.90625 42 32.703125 40.203125 34.90625 35 
z
" id="CMR17-99"/>
     <path d="M 41.5 30.203125 
C 41.5 35.296875 40.5 43.59375 28.703125 43.59375 
C 20.5 43.59375 16.5 37 15.296875 33.703125 
L 15.203125 33.703125 
L 15.203125 68.6875 
L 3.296875 67.59375 
L 3.296875 65 
C 9.203125 65 10.09375 64.40625 10.09375 59.640625 
L 10.09375 6.65625 
C 10.09375 2.875 9.703125 2.390625 3.296875 2.390625 
L 3.296875 -0.203125 
C 5.703125 0 10.09375 0 12.703125 0 
C 15.296875 0 19.796875 0 22.203125 -0.203125 
L 22.203125 2.390625 
C 15.796875 2.390625 15.40625 2.78125 15.40625 6.6875 
L 15.40625 25.90625 
C 15.40625 35.109375 21 42 28 42 
C 35.40625 42 36.203125 35.40625 36.203125 30.59375 
L 36.203125 6.6875 
C 36.203125 2.875 35.796875 2.390625 29.40625 2.390625 
L 29.40625 -0.203125 
C 31.796875 0 36.203125 0 38.796875 0 
C 41.40625 0 45.90625 0 48.296875 -0.203125 
L 48.296875 2.390625 
C 41.90625 2.390625 41.5 2.78125 41.5 6.6875 
z
" id="CMR17-104"/>
     <path d="M 39.90625 40 
L 51.296875 40 
L 51.296875 42.578125 
L 39.703125 42.578125 
L 39.703125 54.59375 
C 39.703125 62.84375 43.90625 68 48.203125 68 
C 49.5 68 51 67.609375 52 66.90625 
C 51.203125 66.703125 49.09375 66.015625 49.09375 63.546875 
C 49.09375 60.953125 51.09375 60.15625 52.5 60.15625 
C 53.90625 60.15625 55.90625 60.953125 55.90625 63.546875 
C 55.90625 67.3125 52.296875 69.59375 48.296875 69.59375 
C 44.40625 69.59375 41.203125 67.703125 38.703125 65.328125 
C 36.40625 68.59375 32.59375 69.59375 28.703125 69.59375 
C 20.90625 69.59375 9.90625 65.125 9.90625 54.203125 
L 9.90625 42.578125 
L 1.90625 42.578125 
L 1.90625 40 
L 9.90625 40 
L 9.90625 6.671875 
C 9.90625 2.875 9.5 2.390625 3.09375 2.390625 
L 3.09375 -0.203125 
C 5.5 0 9.90625 0 12.40625 0 
C 15 0 19.40625 0 21.796875 -0.203125 
L 21.796875 2.390625 
C 15.40625 2.390625 15 2.78125 15 6.671875 
L 15 40 
L 34.796875 40 
L 34.796875 6.671875 
C 34.796875 2.875 34.40625 2.390625 28 2.390625 
L 28 -0.203125 
C 30.40625 0 35 0 37.59375 0 
C 40.5 0 45.59375 0 48.296875 -0.203125 
L 48.296875 2.390625 
C 41.09375 2.390625 39.90625 2.390625 39.90625 6.859375 
z
M 14.796875 42.578125 
L 14.796875 54.203125 
C 14.796875 63.234375 21.796875 68 28.5 68 
C 30 68 33.90625 67.6875 36.296875 65.421875 
C 34.5 65.421875 32.796875 64.625 32.796875 62.140625 
C 32.796875 59.5625 35.09375 58.859375 35.296875 58.859375 
C 34.796875 57.0625 34.796875 55.09375 34.796875 54.390625 
L 34.796875 42.578125 
z
" id="CMR17-11"/>
     <path d="M 26 23.078125 
C 29 26.96875 32.40625 31.34375 35.203125 34.625 
C 38.5 38.40625 42.296875 40 46.703125 40 
L 46.703125 42.59375 
C 45 42.59375 41.5 42.59375 39.703125 42.59375 
C 37 42.59375 33.90625 42.59375 31.59375 42.6875 
L 31.59375 40.09375 
C 33 39.890625 33.796875 38.890625 33.796875 37.5 
C 33.796875 35.703125 32.796875 34.609375 32.296875 33.921875 
L 24.90625 24.578125 
L 16.09375 36.03125 
C 15.203125 37.125 15.203125 37.3125 15.203125 37.8125 
C 15.203125 39.015625 16.203125 40 17.90625 40 
L 17.90625 42.6875 
C 15.5 42.59375 11.203125 42.59375 8.703125 42.59375 
C 6 42.59375 2.796875 42.59375 0.59375 42.6875 
L 0.59375 40 
C 6 40 7.203125 39.59375 9.59375 36.609375 
L 21.09375 21.796875 
C 21.296875 21.59375 21.796875 21 21.796875 20.703125 
C 21.796875 20.296875 13.09375 9.671875 12 8.28125 
C 7.5 2.890625 2.796875 2.5 0.09375 2.5 
L 0.09375 0 
C 1.796875 0 5.296875 0 7.09375 0 
C 9.09375 0 13.5 0 15.296875 -0.09375 
L 15.296875 2.5 
C 14.703125 2.59375 13.09375 2.796875 13.09375 5.078125 
C 13.09375 6.875 13.90625 7.96875 14.796875 9.15625 
L 23.09375 19.3125 
L 31.796875 8 
C 32.59375 6.90625 33.796875 5.40625 33.796875 4.703125 
C 33.796875 3.296875 32.59375 2.5 31 2.5 
L 31 -0.09375 
C 33.40625 0 37.703125 0 40.203125 0 
C 42.90625 0 46.09375 0 48.296875 -0.09375 
L 48.296875 2.5 
C 43.296875 2.5 41.796875 2.6875 39.40625 5.78125 
z
" id="CMR17-120"/>
     <path d="M 15.296875 68.6875 
L 3.40625 67.59375 
L 3.40625 65 
C 9.296875 65 10.203125 64.40625 10.203125 59.640625 
L 10.203125 6.65625 
C 10.203125 2.875 9.796875 2.390625 3.40625 2.390625 
L 3.40625 -0.203125 
C 5.796875 0 10.203125 0 12.703125 0 
C 15.296875 0 19.703125 0 22.09375 -0.203125 
L 22.09375 2.390625 
C 15.703125 2.390625 15.296875 2.78125 15.296875 6.65625 
z
" id="CMR17-108"/>
    </defs>
    <use transform="scale(0.996264)" xlink:href="#CMR17-76"/>
    <use transform="translate(57.381408 0)scale(0.996264)" xlink:href="#CMR17-51"/>
    <use transform="translate(103.071885 0)scale(0.996264)" xlink:href="#CMR17-50"/>
    <use transform="translate(178.838328 0)scale(0.996264)" xlink:href="#CMR17-98"/>
    <use transform="translate(232.336137 0)scale(0.996264)" xlink:href="#CMR17-101"/>
    <use transform="translate(272.821797 0)scale(0.996264)" xlink:href="#CMR17-116"/>
    <use transform="translate(308.102565 0)scale(0.996264)" xlink:href="#CMR17-97"/>
    <use transform="translate(353.793042 0)scale(0.996264)" xlink:href="#CMR17-49"/>
    <use transform="translate(399.483519 0)scale(0.996264)" xlink:href="#CMR17-50"/>
    <use transform="translate(445.173997 0)scale(0.996264)" xlink:href="#CMR17-112"/>
    <use transform="translate(496.069366 0)scale(0.996264)" xlink:href="#CMR17-48"/>
    <use transform="translate(571.83581 0)scale(0.996264)" xlink:href="#CMR17-107"/>
    <use transform="translate(614.923909 0)scale(0.996264)" xlink:href="#CMR17-97"/>
    <use transform="translate(660.614386 0)scale(0.996264)" xlink:href="#CMR17-112"/>
    <use transform="translate(711.509756 0)scale(0.996264)" xlink:href="#CMR17-112"/>
    <use transform="translate(762.405126 0)scale(0.996264)" xlink:href="#CMR17-97"/>
    <use transform="translate(808.095603 0)scale(0.996264)" xlink:href="#CMR17-48"/>
    <use transform="translate(853.78608 0)scale(0.996264)" xlink:href="#CMR17-112"/>
    <use transform="translate(904.68145 0)scale(0.996264)" xlink:href="#CMR17-49"/>
    <use transform="translate(950.371927 0)scale(0.996264)" xlink:href="#CMR17-52"/>
    <use transform="translate(996.062404 0)scale(0.996264)" xlink:href="#CMR17-55"/>
    <use transform="translate(1041.752881 0)scale(0.996264)" xlink:href="#CMR17-53"/>
    <use transform="translate(1117.519325 0)scale(0.996264)" xlink:href="#CMR17-66"/>
    <use transform="translate(1182.708079 0)scale(0.996264)" xlink:href="#CMR17-117"/>
    <use transform="translate(1233.603449 0)scale(0.996264)" xlink:href="#CMR17-99"/>
    <use transform="translate(1271.486655 0)scale(0.996264)" xlink:href="#CMR17-104"/>
    <use transform="translate(1322.382025 0)scale(0.996264)" xlink:href="#CMR17-111"/>
    <use transform="translate(1368.072502 0)scale(0.996264)" xlink:href="#CMR17-11"/>
    <use transform="translate(1450.493146 0)scale(0.996264)" xlink:href="#CMR17-97"/>
    <use transform="translate(1496.183623 0)scale(0.996264)" xlink:href="#CMR17-120"/>
    <use transform="translate(1544.476539 0)scale(0.996264)" xlink:href="#CMR17-105"/>
    <use transform="translate(1569.347597 0)scale(0.996264)" xlink:href="#CMR17-97"/>
    <use transform="translate(1615.038074 0)scale(0.996264)" xlink:href="#CMR17-108"/>
   </g>
   <!--  $t = 16$ -->
   <g transform="translate(335.647695 43.024339)scale(0.192 -0.192)">
    <defs>
     <path d="M 20.09375 40.09375 
L 29.296875 40.09375 
C 31.203125 40.09375 32.203125 40.09375 32.203125 41.890625 
C 32.203125 43 31.59375 43 29.59375 43 
L 20.796875 43 
L 24.5 57.6875 
C 24.90625 59.078125 24.90625 59.28125 24.90625 60 
C 24.90625 61.609375 23.59375 62.5 22.296875 62.5 
C 21.5 62.5 19.203125 62.203125 18.40625 58.984375 
L 14.5 43 
L 5.09375 43 
C 3.09375 43 2.203125 43 2.203125 41.09375 
C 2.203125 40.09375 2.90625 40.09375 4.796875 40.09375 
L 13.703125 40.09375 
L 7.09375 13.765625 
C 6.296875 10.28125 6 9.28125 6 7.984375 
C 6 3.296875 9.296875 -1 14.90625 -1 
C 25 -1 30.40625 13.5625 30.40625 14.25 
C 30.40625 14.859375 30 15.15625 29.40625 15.15625 
C 29.203125 15.15625 28.796875 15.15625 28.59375 14.75 
C 28.5 14.65625 28.40625 14.546875 27.703125 12.953125 
C 25.59375 7.984375 21 1 15.203125 1 
C 12.203125 1 12 3.5 12 5.6875 
C 12 5.78125 12 7.6875 12.296875 8.875 
z
" id="CMMI12-116"/>
    </defs>
    <use transform="scale(0.996264)" xlink:href="#CMMI12-116"/>
    <use transform="translate(62.900339 0)scale(0.996264)" xlink:href="#CMR17-61"/>
    <use transform="translate(162.289136 0)scale(0.996264)" xlink:href="#CMR17-49"/>
    <use transform="translate(207.979613 0)scale(0.996264)" xlink:href="#CMR17-54"/>
   </g>
  </g>
 </g>
 <defs>
  <clipPath id="pc1c85f8f5e">
   <rect height="85.197337" width="630.586141" x="72.133859" y="71.224945"/>
  </clipPath>
  <clipPath id="p4569b876b7">
   <rect height="85.197337" width="630.586141" x="72.133859" y="213.16169"/>
  </clipPath>
  <clipPath id="p0d9aceb710">
   <rect height="85.197337" width="630.586141" x="72.133859" y="355.098436"/>
  </clipPath>
 </defs>
</svg>
