<?xml version="1.0" encoding="utf-8" standalone="no"?>
<!DOCTYPE svg PUBLIC "-//W3C//DTD SVG 1.1//EN"
  "http://www.w3.org/Graphics/SVG/1.1/DTD/svg11.dtd">
<!-- Created with matplotlib (https://matplotlib.org/) -->
<svg height="504pt" version="1.1" viewBox="0 0 576 504" width="576pt" xmlns="http://www.w3.org/2000/svg" xmlns:xlink="http://www.w3.org/1999/xlink">
 <metadata>
  <rdf:RDF xmlns:cc="http://creativecommons.org/ns#" xmlns:dc="http://purl.org/dc/elements/1.1/" xmlns:rdf="http://www.w3.org/1999/02/22-rdf-syntax-ns#">
   <cc:Work>
    <dc:type rdf:resource="http://purl.org/dc/dcmitype/StillImage"/>
    <dc:date>2023-01-25T16:43:30.664530</dc:date>
    <dc:format>image/svg+xml</dc:format>
    <dc:creator>
     <cc:Agent>
      <dc:title>Matplotlib v3.3.4, https://matplotlib.org/</dc:title>
     </cc:Agent>
    </dc:creator>
   </cc:Work>
  </rdf:RDF>
 </metadata>
 <defs>
  <style type="text/css">*{stroke-linecap:butt;stroke-linejoin:round;}</style>
 </defs>
 <g id="figure_1">
  <g id="patch_1">
   <path d="M 0 504 
L 576 504 
L 576 0 
L 0 0 
z
" style="fill:#ffffff;"/>
  </g>
  <g id="axes_1">
   <g id="patch_2">
    <path d="M 69.478685 440.295773 
L 503.052876 440.295773 
L 503.052876 100.8 
L 69.478685 100.8 
z
" style="fill:#ffffff;"/>
   </g>
   <g id="matplotlib.axis_1">
    <g id="xtick_1">
     <g id="line2d_1">
      <defs>
       <path d="M 0 0 
L 0 3.5 
" id="m11f57394f6" style="stroke:#000000;stroke-width:0.8;"/>
      </defs>
      <g>
       <use style="stroke:#000000;stroke-width:0.8;" x="89.186603" xlink:href="#m11f57394f6" y="440.295773"/>
      </g>
     </g>
     <g id="text_1">
      <!-- $\mathdefault{0}$ -->
      <g transform="translate(85.284609 458.365361)scale(0.16 -0.16)">
       <defs>
        <path d="M 42 31.640625 
C 42 37.75 41.90625 48.125 37.703125 56.109375 
C 34 63.109375 28.09375 65.59375 22.90625 65.59375 
C 18.09375 65.59375 12 63.40625 8.203125 56.203125 
C 4.203125 48.71875 3.796875 39.4375 3.796875 31.640625 
C 3.796875 25.953125 3.90625 17.28125 7 9.671875 
C 11.296875 -0.609375 19 -2 22.90625 -2 
C 27.5 -2 34.5 -0.109375 38.59375 9.375 
C 41.59375 16.28125 42 24.359375 42 31.640625 
z
M 22.90625 -0.40625 
C 16.5 -0.40625 12.703125 5.078125 11.296875 12.6875 
C 10.203125 18.5625 10.203125 27.15625 10.203125 32.75 
C 10.203125 40.4375 10.203125 46.828125 11.5 52.921875 
C 13.40625 61.390625 19 64 22.90625 64 
C 27 64 32.296875 61.296875 34.203125 53.125 
C 35.5 47.4375 35.59375 40.734375 35.59375 32.75 
C 35.59375 26.25 35.59375 18.265625 34.40625 12.375 
C 32.296875 1.484375 26.40625 -0.40625 22.90625 -0.40625 
z
" id="CMR17-48"/>
       </defs>
       <use transform="scale(0.996264)" xlink:href="#CMR17-48"/>
      </g>
     </g>
    </g>
    <g id="xtick_2">
     <g id="line2d_2">
      <g>
       <use style="stroke:#000000;stroke-width:0.8;" x="151.751421" xlink:href="#m11f57394f6" y="440.295773"/>
      </g>
     </g>
     <g id="text_2">
      <!-- $\mathdefault{10}$ -->
      <g transform="translate(143.947434 458.365361)scale(0.16 -0.16)">
       <defs>
        <path d="M 26.59375 63.40625 
C 26.59375 65.5 26.5 65.5 25.09375 65.5 
C 21.203125 61.1875 15.296875 59.796875 9.703125 59.796875 
C 9.40625 59.796875 8.90625 59.796875 8.796875 59.5 
C 8.703125 59.296875 8.703125 59.09375 8.703125 57 
C 11.796875 57 17 57.59375 21 59.984375 
L 21 7.203125 
C 21 3.6875 20.796875 2.5 12.203125 2.5 
L 9.203125 2.5 
L 9.203125 0 
C 14 0 19 0 23.796875 0 
C 28.59375 0 33.59375 0 38.40625 0 
L 38.40625 2.5 
L 35.40625 2.5 
C 26.796875 2.5 26.59375 3.59375 26.59375 7.15625 
z
" id="CMR17-49"/>
       </defs>
       <use transform="scale(0.996264)" xlink:href="#CMR17-49"/>
       <use transform="translate(45.690477 0)scale(0.996264)" xlink:href="#CMR17-48"/>
      </g>
     </g>
    </g>
    <g id="xtick_3">
     <g id="line2d_3">
      <g>
       <use style="stroke:#000000;stroke-width:0.8;" x="214.316239" xlink:href="#m11f57394f6" y="440.295773"/>
      </g>
     </g>
     <g id="text_3">
      <!-- $\mathdefault{20}$ -->
      <g transform="translate(206.512252 458.365361)scale(0.16 -0.16)">
       <defs>
        <path d="M 41.703125 15.453125 
L 39.90625 15.453125 
C 38.90625 8.375 38.09375 7.171875 37.703125 6.5625 
C 37.203125 5.765625 30 5.765625 28.59375 5.765625 
L 9.40625 5.765625 
C 13 9.671875 20 16.75 28.5 24.953125 
C 34.59375 30.734375 41.703125 37.53125 41.703125 47.421875 
C 41.703125 59.21875 32.296875 66 21.796875 66 
C 10.796875 66 4.09375 56.3125 4.09375 47.34375 
C 4.09375 43.4375 7 42.9375 8.203125 42.9375 
C 9.203125 42.9375 12.203125 43.546875 12.203125 47.03125 
C 12.203125 50.109375 9.59375 51 8.203125 51 
C 7.59375 51 7 50.90625 6.59375 50.703125 
C 8.5 59.21875 14.296875 63.40625 20.40625 63.40625 
C 29.09375 63.40625 34.796875 56.515625 34.796875 47.421875 
C 34.796875 38.734375 29.703125 31.25 24 24.75 
L 4.09375 2.28125 
L 4.09375 0 
L 39.296875 0 
z
" id="CMR17-50"/>
       </defs>
       <use transform="scale(0.996264)" xlink:href="#CMR17-50"/>
       <use transform="translate(45.690477 0)scale(0.996264)" xlink:href="#CMR17-48"/>
      </g>
     </g>
    </g>
    <g id="xtick_4">
     <g id="line2d_4">
      <g>
       <use style="stroke:#000000;stroke-width:0.8;" x="276.881058" xlink:href="#m11f57394f6" y="440.295773"/>
      </g>
     </g>
     <g id="text_4">
      <!-- $\mathdefault{30}$ -->
      <g transform="translate(269.077071 458.365361)scale(0.16 -0.16)">
       <defs>
        <path d="M 22.09375 33.703125 
C 31 33.703125 34.90625 25.96875 34.90625 17.03125 
C 34.90625 5 28.5 0.390625 22.703125 0.390625 
C 17.40625 0.390625 8.796875 3.03125 6.09375 10.828125 
C 6.59375 10.625 7.09375 10.625 7.59375 10.625 
C 10 10.625 11.796875 12.21875 11.796875 14.8125 
C 11.796875 17.703125 9.59375 19 7.59375 19 
C 5.90625 19 3.296875 18.203125 3.296875 14.46875 
C 3.296875 5.234375 12.296875 -2 22.90625 -2 
C 34 -2 42.5 6.71875 42.5 16.953125 
C 42.5 26.671875 34.5 33.703125 25 34.796875 
C 32.59375 36.375 39.90625 43.0625 39.90625 52.015625 
C 39.90625 59.6875 32 65.296875 23 65.296875 
C 13.90625 65.296875 5.90625 59.828125 5.90625 52.015625 
C 5.90625 48.59375 8.5 48 9.796875 48 
C 11.90625 48 13.703125 49.296875 13.703125 51.890625 
C 13.703125 54.46875 11.90625 55.765625 9.796875 55.765625 
C 9.40625 55.765625 8.90625 55.765625 8.5 55.578125 
C 11.40625 61.859375 19.296875 63 22.796875 63 
C 26.296875 63 32.90625 61.328125 32.90625 51.875 
C 32.90625 49.109375 32.5 44.1875 29.09375 39.84375 
C 26.09375 36 22.703125 36 19.40625 35.6875 
C 18.90625 35.6875 16.59375 35.453125 16.203125 35.453125 
C 15.5 35.359375 15.09375 35.265625 15.09375 34.5 
C 15.09375 33.796875 15.203125 33.703125 17.203125 33.703125 
z
" id="CMR17-51"/>
       </defs>
       <use transform="scale(0.996264)" xlink:href="#CMR17-51"/>
       <use transform="translate(45.690477 0)scale(0.996264)" xlink:href="#CMR17-48"/>
      </g>
     </g>
    </g>
    <g id="xtick_5">
     <g id="line2d_5">
      <g>
       <use style="stroke:#000000;stroke-width:0.8;" x="339.445876" xlink:href="#m11f57394f6" y="440.295773"/>
      </g>
     </g>
     <g id="text_5">
      <!-- $\mathdefault{40}$ -->
      <g transform="translate(331.641889 458.365361)scale(0.16 -0.16)">
       <defs>
        <path d="M 33.59375 64.40625 
C 33.59375 66.5 33.5 66.5 31.703125 66.5 
L 2 19.59375 
L 2 17 
L 27.796875 17 
L 27.796875 7.140625 
C 27.796875 3.5 27.59375 2.5 20.59375 2.5 
L 18.703125 2.5 
L 18.703125 0 
C 21.90625 0 27.296875 0 30.703125 0 
C 34.09375 0 39.5 0 42.703125 0 
L 42.703125 2.5 
L 40.796875 2.5 
C 33.796875 2.5 33.59375 3.5 33.59375 7.140625 
L 33.59375 17 
L 43.796875 17 
L 43.796875 19.59375 
L 33.59375 19.59375 
z
M 28.09375 57.859375 
L 28.09375 19.59375 
L 4 19.59375 
z
" id="CMR17-52"/>
       </defs>
       <use transform="scale(0.996264)" xlink:href="#CMR17-52"/>
       <use transform="translate(45.690477 0)scale(0.996264)" xlink:href="#CMR17-48"/>
      </g>
     </g>
    </g>
    <g id="xtick_6">
     <g id="line2d_6">
      <g>
       <use style="stroke:#000000;stroke-width:0.8;" x="402.010695" xlink:href="#m11f57394f6" y="440.295773"/>
      </g>
     </g>
     <g id="text_6">
      <!-- $\mathdefault{50}$ -->
      <g transform="translate(394.206708 458.365361)scale(0.16 -0.16)">
       <defs>
        <path d="M 11.40625 57.6875 
C 12.40625 57.28125 16.5 56 20.703125 56 
C 30 56 35.09375 61.109375 38 64.0625 
C 38 64.953125 38 65.5 37.40625 65.5 
C 37.296875 65.5 37.09375 65.5 36.296875 65.046875 
C 32.796875 63.40625 28.703125 62.078125 23.703125 62.078125 
C 20.703125 62.078125 16.203125 62.484375 11.296875 64.671875 
C 10.203125 65.171875 10 65.171875 9.90625 65.171875 
C 9.40625 65.171875 9.296875 65.0625 9.296875 63.078125 
L 9.296875 34.421875 
C 9.296875 32.640625 9.296875 32.140625 10.296875 32.140625 
C 10.796875 32.140625 11 32.34375 11.5 33.03125 
C 14.703125 37.515625 19.09375 39.40625 24.09375 39.40625 
C 27.59375 39.40625 35.09375 37.21875 35.09375 20.140625 
C 35.09375 16.953125 35.09375 11.171875 32.09375 6.578125 
C 29.59375 2.484375 25.703125 0.390625 21.40625 0.390625 
C 14.796875 0.390625 8.09375 5 6.296875 12.71875 
C 6.703125 12.609375 7.5 12.421875 7.90625 12.421875 
C 9.203125 12.421875 11.703125 13.125 11.703125 16.21875 
C 11.703125 18.90625 9.796875 20 7.90625 20 
C 5.59375 20 4.09375 18.59375 4.09375 15.796875 
C 4.09375 7.09375 11 -2 21.59375 -2 
C 31.90625 -2 41.703125 6.875 41.703125 19.75 
C 41.703125 31.71875 33.90625 41 24.203125 41 
C 19.09375 41 14.796875 39.109375 11.40625 35.53125 
z
" id="CMR17-53"/>
       </defs>
       <use transform="scale(0.996264)" xlink:href="#CMR17-53"/>
       <use transform="translate(45.690477 0)scale(0.996264)" xlink:href="#CMR17-48"/>
      </g>
     </g>
    </g>
    <g id="xtick_7">
     <g id="line2d_7">
      <g>
       <use style="stroke:#000000;stroke-width:0.8;" x="464.575513" xlink:href="#m11f57394f6" y="440.295773"/>
      </g>
     </g>
     <g id="text_7">
      <!-- $\mathdefault{60}$ -->
      <g transform="translate(456.771526 458.365361)scale(0.16 -0.16)">
       <defs>
        <path d="M 10.59375 34 
C 10.59375 57.65625 21.796875 63 28.296875 63 
C 30.40625 63 35.5 62.640625 37.5 59 
C 35.90625 59 32.90625 59 32.90625 55.515625 
C 32.90625 52.828125 35.09375 51.921875 36.5 51.921875 
C 37.40625 51.921875 40.09375 52.3125 40.09375 55.625 
C 40.09375 61.78125 35.09375 65.296875 28.203125 65.296875 
C 16.296875 65.296875 3.796875 52.96875 3.796875 31 
C 3.796875 3.953125 15.09375 -2 23.09375 -2 
C 32.796875 -2 42 6.671875 42 20.046875 
C 42 32.515625 33.90625 41.59375 23.703125 41.59375 
C 17.59375 41.59375 13.09375 37.609375 10.59375 30.625 
z
M 23.09375 0.390625 
C 10.796875 0.390625 10.796875 18.75 10.796875 22.4375 
C 10.796875 29.625 14.203125 40 23.5 40 
C 25.203125 40 30.09375 40 33.40625 33.125 
C 35.203125 29.21875 35.203125 25.140625 35.203125 20.140625 
C 35.203125 14.75 35.203125 10.78125 33.09375 6.78125 
C 30.90625 2.671875 27.703125 0.390625 23.09375 0.390625 
z
" id="CMR17-54"/>
       </defs>
       <use transform="scale(0.996264)" xlink:href="#CMR17-54"/>
       <use transform="translate(45.690477 0)scale(0.996264)" xlink:href="#CMR17-48"/>
      </g>
     </g>
    </g>
    <g id="text_8">
     <!-- $t$ -->
     <g transform="translate(282.038621 482.069243)scale(0.24 -0.24)">
      <defs>
       <path d="M 20.09375 40.09375 
L 29.296875 40.09375 
C 31.203125 40.09375 32.203125 40.09375 32.203125 41.890625 
C 32.203125 43 31.59375 43 29.59375 43 
L 20.796875 43 
L 24.5 57.6875 
C 24.90625 59.078125 24.90625 59.28125 24.90625 60 
C 24.90625 61.609375 23.59375 62.5 22.296875 62.5 
C 21.5 62.5 19.203125 62.203125 18.40625 58.984375 
L 14.5 43 
L 5.09375 43 
C 3.09375 43 2.203125 43 2.203125 41.09375 
C 2.203125 40.09375 2.90625 40.09375 4.796875 40.09375 
L 13.703125 40.09375 
L 7.09375 13.765625 
C 6.296875 10.28125 6 9.28125 6 7.984375 
C 6 3.296875 9.296875 -1 14.90625 -1 
C 25 -1 30.40625 13.5625 30.40625 14.25 
C 30.40625 14.859375 30 15.15625 29.40625 15.15625 
C 29.203125 15.15625 28.796875 15.15625 28.59375 14.75 
C 28.5 14.65625 28.40625 14.546875 27.703125 12.953125 
C 25.59375 7.984375 21 1 15.203125 1 
C 12.203125 1 12 3.5 12 5.6875 
C 12 5.78125 12 7.6875 12.296875 8.875 
z
" id="CMMI12-116"/>
      </defs>
      <use transform="scale(0.996264)" xlink:href="#CMMI12-116"/>
     </g>
    </g>
   </g>
   <g id="matplotlib.axis_2">
    <g id="ytick_1">
     <g id="line2d_8">
      <defs>
       <path d="M 0 0 
L -3.5 0 
" id="mdab2cf9f3c" style="stroke:#000000;stroke-width:0.8;"/>
      </defs>
      <g>
       <use style="stroke:#000000;stroke-width:0.8;" x="69.478685" xlink:href="#mdab2cf9f3c" y="410.674179"/>
      </g>
     </g>
     <g id="text_9">
      <!-- $\mathdefault{0.2}$ -->
      <g transform="translate(42.535163 416.208973)scale(0.16 -0.16)">
       <defs>
        <path d="M 18.40625 4.796875 
C 18.40625 7.6875 16 9.671875 13.59375 9.671875 
C 10.703125 9.671875 8.703125 7.28125 8.703125 4.890625 
C 8.703125 2 11.09375 0 13.5 0 
C 16.40625 0 18.40625 2.390625 18.40625 4.796875 
z
" id="CMMI12-58"/>
       </defs>
       <use transform="scale(0.996264)" xlink:href="#CMR17-48"/>
       <use transform="translate(45.690477 0)scale(0.996264)" xlink:href="#CMMI12-58"/>
       <use transform="translate(72.787654 0)scale(0.996264)" xlink:href="#CMR17-50"/>
      </g>
     </g>
    </g>
    <g id="ytick_2">
     <g id="line2d_9">
      <g>
       <use style="stroke:#000000;stroke-width:0.8;" x="69.478685" xlink:href="#mdab2cf9f3c" y="335.587563"/>
      </g>
     </g>
     <g id="text_10">
      <!-- $\mathdefault{0.4}$ -->
      <g transform="translate(42.535163 341.122357)scale(0.16 -0.16)">
       <use transform="scale(0.996264)" xlink:href="#CMR17-48"/>
       <use transform="translate(45.690477 0)scale(0.996264)" xlink:href="#CMMI12-58"/>
       <use transform="translate(72.787654 0)scale(0.996264)" xlink:href="#CMR17-52"/>
      </g>
     </g>
    </g>
    <g id="ytick_3">
     <g id="line2d_10">
      <g>
       <use style="stroke:#000000;stroke-width:0.8;" x="69.478685" xlink:href="#mdab2cf9f3c" y="260.500948"/>
      </g>
     </g>
     <g id="text_11">
      <!-- $\mathdefault{0.6}$ -->
      <g transform="translate(42.535163 266.035742)scale(0.16 -0.16)">
       <use transform="scale(0.996264)" xlink:href="#CMR17-48"/>
       <use transform="translate(45.690477 0)scale(0.996264)" xlink:href="#CMMI12-58"/>
       <use transform="translate(72.787654 0)scale(0.996264)" xlink:href="#CMR17-54"/>
      </g>
     </g>
    </g>
    <g id="ytick_4">
     <g id="line2d_11">
      <g>
       <use style="stroke:#000000;stroke-width:0.8;" x="69.478685" xlink:href="#mdab2cf9f3c" y="185.414332"/>
      </g>
     </g>
     <g id="text_12">
      <!-- $\mathdefault{0.8}$ -->
      <g transform="translate(42.535163 190.949126)scale(0.16 -0.16)">
       <defs>
        <path d="M 27.203125 35.375 
C 33.5 38.546875 39.90625 43.328125 39.90625 50.984375 
C 39.90625 60.015625 31.09375 65.296875 23 65.296875 
C 13.90625 65.296875 5.90625 58.734375 5.90625 49.6875 
C 5.90625 47.203125 6.5 42.921875 10.40625 39.140625 
C 11.40625 38.15625 15.59375 35.171875 18.296875 33.28125 
C 13.796875 30.984375 3.296875 25.53125 3.296875 14.59375 
C 3.296875 4.359375 13.09375 -2 22.796875 -2 
C 33.5 -2 42.5 5.65625 42.5 15.78125 
C 42.5 24.84375 36.40625 29.015625 32.40625 31.703125 
z
M 14.09375 44.09375 
C 13.296875 44.59375 9.296875 47.671875 9.296875 52.359375 
C 9.296875 58.421875 15.59375 63 22.796875 63 
C 30.703125 63 36.5 57.4375 36.5 50.96875 
C 36.5 41.703125 26.09375 36.421875 25.59375 36.421875 
C 25.5 36.421875 25.40625 36.421875 24.59375 37.03125 
z
M 32.5 23.734375 
C 34 22.640625 38.796875 19.375 38.796875 13.296875 
C 38.796875 5.953125 31.40625 0.390625 23 0.390625 
C 13.90625 0.390625 7 6.84375 7 14.6875 
C 7 22.546875 13.09375 29.09375 20 32.1875 
z
" id="CMR17-56"/>
       </defs>
       <use transform="scale(0.996264)" xlink:href="#CMR17-48"/>
       <use transform="translate(45.690477 0)scale(0.996264)" xlink:href="#CMMI12-58"/>
       <use transform="translate(72.787654 0)scale(0.996264)" xlink:href="#CMR17-56"/>
      </g>
     </g>
    </g>
    <g id="ytick_5">
     <g id="line2d_12">
      <g>
       <use style="stroke:#000000;stroke-width:0.8;" x="69.478685" xlink:href="#mdab2cf9f3c" y="110.327717"/>
      </g>
     </g>
     <g id="text_13">
      <!-- $\mathdefault{1.0}$ -->
      <g transform="translate(42.535163 115.862511)scale(0.16 -0.16)">
       <use transform="scale(0.996264)" xlink:href="#CMR17-49"/>
       <use transform="translate(45.690477 0)scale(0.996264)" xlink:href="#CMMI12-58"/>
       <use transform="translate(72.787654 0)scale(0.996264)" xlink:href="#CMR17-48"/>
      </g>
     </g>
    </g>
    <g id="text_14">
     <!-- $\tau_{\rm int}$ -->
     <g transform="translate(33.884405 285.418992)rotate(-90)scale(0.24 -0.24)">
      <defs>
       <path d="M 28.703125 37.625 
L 45.296875 37.625 
C 46.59375 37.625 49.90625 37.625 49.90625 40.8125 
C 49.90625 43 48 43 46.203125 43 
L 18.703125 43 
C 16.40625 43 13 43 8.40625 38.125 
C 5.796875 35.234375 2.59375 29.953125 2.59375 29.359375 
C 2.59375 28.765625 3.09375 28.5625 3.703125 28.5625 
C 4.40625 28.5625 4.5 28.859375 5 29.453125 
C 10.203125 37.625 15.40625 37.625 17.90625 37.625 
L 26.203125 37.625 
L 15.796875 3.484375 
C 15.296875 1.984375 15.296875 1.78125 15.296875 1.484375 
C 15.296875 0.390625 16 -1 18 -1 
C 21.09375 -1 21.59375 1.6875 21.90625 3.171875 
z
" id="CMMI12-28"/>
       <path d="M 15.5 61.078125 
C 15.5 63.265625 13.703125 65.15625 11.40625 65.15625 
C 9.203125 65.15625 7.296875 63.375 7.296875 61.078125 
C 7.296875 58.890625 9.09375 57 11.40625 57 
C 13.59375 57 15.5 58.796875 15.5 61.078125 
z
M 3.796875 42.28125 
L 3.796875 39.703125 
C 9.40625 39.703125 10.203125 39.09375 10.203125 34.328125 
L 10.203125 6.671875 
C 10.203125 2.875 9.796875 2.390625 3.40625 2.390625 
L 3.40625 -0.203125 
C 5.796875 0 10.09375 0 12.59375 0 
C 15 0 19.09375 0 21.40625 -0.203125 
L 21.40625 2.390625 
C 15.5 2.390625 15.296875 2.984375 15.296875 6.5625 
L 15.296875 43.375 
z
" id="CMR17-105"/>
       <path d="M 41.5 30.203125 
C 41.5 35.296875 40.5 43.59375 28.703125 43.59375 
C 20.796875 43.59375 16.703125 37.5 15.203125 33.5 
L 15.09375 33.5 
L 15.09375 43.59375 
L 3.296875 42.5 
L 3.296875 39.90625 
C 9.203125 39.90625 10.09375 39.296875 10.09375 34.5 
L 10.09375 6.6875 
C 10.09375 2.875 9.703125 2.390625 3.296875 2.390625 
L 3.296875 -0.203125 
C 5.703125 0 10.09375 0 12.703125 0 
C 15.296875 0 19.796875 0 22.203125 -0.203125 
L 22.203125 2.390625 
C 15.796875 2.390625 15.40625 2.78125 15.40625 6.6875 
L 15.40625 25.90625 
C 15.40625 35.109375 21 42 28 42 
C 35.40625 42 36.203125 35.40625 36.203125 30.59375 
L 36.203125 6.6875 
C 36.203125 2.875 35.796875 2.390625 29.40625 2.390625 
L 29.40625 -0.203125 
C 31.796875 0 36.203125 0 38.796875 0 
C 41.40625 0 45.90625 0 48.296875 -0.203125 
L 48.296875 2.390625 
C 41.90625 2.390625 41.5 2.78125 41.5 6.6875 
z
" id="CMR17-110"/>
       <path d="M 15.09375 40 
L 29.09375 40 
L 29.09375 42.578125 
L 15.09375 42.578125 
L 15.09375 61 
L 13.296875 61 
C 13.09375 50.703125 9.59375 41.6875 1.09375 41.6875 
L 1.09375 40 
L 9.796875 40 
L 9.796875 12.046875 
C 9.796875 10.15625 9.796875 -1 21.40625 -1 
C 27.296875 -1 30.703125 4.78125 30.703125 12.140625 
L 30.703125 17.8125 
L 28.90625 17.8125 
L 28.90625 12.234375 
C 28.90625 5.375 26.203125 0.796875 22 0.796875 
C 19.09375 0.796875 15.09375 2.78125 15.09375 11.84375 
z
" id="CMR17-116"/>
      </defs>
      <use transform="scale(0.996264)" xlink:href="#CMMI12-28"/>
      <use transform="translate(42.363841 -14.943915)scale(0.697382)" xlink:href="#CMR17-105"/>
      <use transform="translate(59.7735 -14.943915)scale(0.697382)" xlink:href="#CMR17-110"/>
      <use transform="translate(93.578387 -14.943915)scale(0.697382)" xlink:href="#CMR17-116"/>
     </g>
    </g>
   </g>
   <g id="LineCollection_1">
    <path clip-path="url(#p41a6b94d3b)" d="M 89.186603 365.599949 
L 89.186603 279.147824 
" style="fill:none;stroke:#000000;stroke-width:2;"/>
    <path clip-path="url(#p41a6b94d3b)" d="M 95.443085 329.689273 
L 95.443085 187.311406 
" style="fill:none;stroke:#000000;stroke-width:2;"/>
    <path clip-path="url(#p41a6b94d3b)" d="M 101.699566 359.416397 
L 101.699566 269.160461 
" style="fill:none;stroke:#000000;stroke-width:2;"/>
    <path clip-path="url(#p41a6b94d3b)" d="M 107.956048 319.209979 
L 107.956048 205.714709 
" style="fill:none;stroke:#000000;stroke-width:2;"/>
    <path clip-path="url(#p41a6b94d3b)" d="M 114.21253 336.846861 
L 114.21253 233.228424 
" style="fill:none;stroke:#000000;stroke-width:2;"/>
    <path clip-path="url(#p41a6b94d3b)" d="M 120.469012 337.62838 
L 120.469012 234.459036 
" style="fill:none;stroke:#000000;stroke-width:2;"/>
    <path clip-path="url(#p41a6b94d3b)" d="M 126.725494 360.796002 
L 126.725494 271.383385 
" style="fill:none;stroke:#000000;stroke-width:2;"/>
    <path clip-path="url(#p41a6b94d3b)" d="M 132.981976 371.651857 
L 132.981976 288.982374 
" style="fill:none;stroke:#000000;stroke-width:2;"/>
    <path clip-path="url(#p41a6b94d3b)" d="M 139.238457 366.043635 
L 139.238457 279.866816 
" style="fill:none;stroke:#000000;stroke-width:2;"/>
    <path clip-path="url(#p41a6b94d3b)" d="M 145.494939 360.553809 
L 145.494939 270.992923 
" style="fill:none;stroke:#000000;stroke-width:2;"/>
    <path clip-path="url(#p41a6b94d3b)" d="M 151.751421 351.575286 
L 151.751421 256.58442 
" style="fill:none;stroke:#000000;stroke-width:2;"/>
    <path clip-path="url(#p41a6b94d3b)" d="M 158.007903 355.779504 
L 158.007903 263.315106 
" style="fill:none;stroke:#000000;stroke-width:2;"/>
    <path clip-path="url(#p41a6b94d3b)" d="M 164.264385 345.518087 
L 164.264385 246.937067 
" style="fill:none;stroke:#000000;stroke-width:2;"/>
    <path clip-path="url(#p41a6b94d3b)" d="M 170.520867 333.811514 
L 170.520867 228.458064 
" style="fill:none;stroke:#000000;stroke-width:2;"/>
    <path clip-path="url(#p41a6b94d3b)" d="M 176.777348 322.024333 
L 176.777348 210.072069 
" style="fill:none;stroke:#000000;stroke-width:2;"/>
    <path clip-path="url(#p41a6b94d3b)" d="M 183.03383 313.399673 
L 183.03383 196.758411 
" style="fill:none;stroke:#000000;stroke-width:2;"/>
    <path clip-path="url(#p41a6b94d3b)" d="M 189.290312 312.607819 
L 189.290312 195.541932 
" style="fill:none;stroke:#000000;stroke-width:2;"/>
    <path clip-path="url(#p41a6b94d3b)" d="M 195.546794 313.147916 
L 195.546794 196.371544 
" style="fill:none;stroke:#000000;stroke-width:2;"/>
    <path clip-path="url(#p41a6b94d3b)" d="M 201.803276 314.248532 
L 201.803276 198.063563 
" style="fill:none;stroke:#000000;stroke-width:2;"/>
    <path clip-path="url(#p41a6b94d3b)" d="M 208.059758 310.468152 
L 208.059758 192.259826 
" style="fill:none;stroke:#000000;stroke-width:2;"/>
    <path clip-path="url(#p41a6b94d3b)" d="M 214.316239 295.240103 
L 214.316239 126.96079 
" style="fill:none;stroke:#000000;stroke-width:2;"/>
    <path clip-path="url(#p41a6b94d3b)" d="M 220.572721 295.716595 
L 220.572721 127.782581 
" style="fill:none;stroke:#000000;stroke-width:2;"/>
    <path clip-path="url(#p41a6b94d3b)" d="M 226.829203 288.99983 
L 226.829203 116.231626 
" style="fill:none;stroke:#000000;stroke-width:2;"/>
    <path clip-path="url(#p41a6b94d3b)" d="M 233.085685 293.659707 
L 233.085685 124.237711 
" style="fill:none;stroke:#000000;stroke-width:2;"/>
    <path clip-path="url(#p41a6b94d3b)" d="M 239.342167 303.00918 
L 239.342167 140.404956 
" style="fill:none;stroke:#000000;stroke-width:2;"/>
    <path clip-path="url(#p41a6b94d3b)" d="M 245.598649 319.890278 
L 245.598649 169.950236 
" style="fill:none;stroke:#000000;stroke-width:2;"/>
    <path clip-path="url(#p41a6b94d3b)" d="M 251.855131 333.674883 
L 251.855131 194.417505 
" style="fill:none;stroke:#000000;stroke-width:2;"/>
    <path clip-path="url(#p41a6b94d3b)" d="M 258.111612 334.013786 
L 258.111612 195.022945 
" style="fill:none;stroke:#000000;stroke-width:2;"/>
    <path clip-path="url(#p41a6b94d3b)" d="M 264.368094 358.458006 
L 264.368094 239.18972 
" style="fill:none;stroke:#000000;stroke-width:2;"/>
    <path clip-path="url(#p41a6b94d3b)" d="M 270.624576 327.369716 
L 270.624576 218.382644 
" style="fill:none;stroke:#000000;stroke-width:2;"/>
    <path clip-path="url(#p41a6b94d3b)" d="M 276.881058 333.79351 
L 276.881058 228.429812 
" style="fill:none;stroke:#000000;stroke-width:2;"/>
    <path clip-path="url(#p41a6b94d3b)" d="M 283.13754 328.604028 
L 283.13754 220.308092 
" style="fill:none;stroke:#000000;stroke-width:2;"/>
    <path clip-path="url(#p41a6b94d3b)" d="M 289.394022 325.760838 
L 289.394022 215.876527 
" style="fill:none;stroke:#000000;stroke-width:2;"/>
    <path clip-path="url(#p41a6b94d3b)" d="M 295.650503 316.776589 
L 295.650503 164.466175 
" style="fill:none;stroke:#000000;stroke-width:2;"/>
    <path clip-path="url(#p41a6b94d3b)" d="M 301.906985 324.655563 
L 301.906985 178.373572 
" style="fill:none;stroke:#000000;stroke-width:2;"/>
    <path clip-path="url(#p41a6b94d3b)" d="M 308.163467 359.938439 
L 308.163467 270.001254 
" style="fill:none;stroke:#000000;stroke-width:2;"/>
    <path clip-path="url(#p41a6b94d3b)" d="M 314.419949 372.954851 
L 314.419949 291.107543 
" style="fill:none;stroke:#000000;stroke-width:2;"/>
    <path clip-path="url(#p41a6b94d3b)" d="M 320.676431 372.659978 
L 320.676431 290.626368 
" style="fill:none;stroke:#000000;stroke-width:2;"/>
    <path clip-path="url(#p41a6b94d3b)" d="M 326.932913 357.21372 
L 326.932913 265.617692 
" style="fill:none;stroke:#000000;stroke-width:2;"/>
    <path clip-path="url(#p41a6b94d3b)" d="M 333.189394 342.889396 
L 333.189394 242.768598 
" style="fill:none;stroke:#000000;stroke-width:2;"/>
    <path clip-path="url(#p41a6b94d3b)" d="M 339.445876 332.275134 
L 339.445876 226.049071 
" style="fill:none;stroke:#000000;stroke-width:2;"/>
    <path clip-path="url(#p41a6b94d3b)" d="M 345.702358 333.912461 
L 345.702358 228.616476 
" style="fill:none;stroke:#000000;stroke-width:2;"/>
    <path clip-path="url(#p41a6b94d3b)" d="M 351.95884 334.716046 
L 351.95884 229.878095 
" style="fill:none;stroke:#000000;stroke-width:2;"/>
    <path clip-path="url(#p41a6b94d3b)" d="M 358.215322 321.1696 
L 358.215322 208.747392 
" style="fill:none;stroke:#000000;stroke-width:2;"/>
    <path clip-path="url(#p41a6b94d3b)" d="M 364.471804 323.892236 
L 364.471804 212.970991 
" style="fill:none;stroke:#000000;stroke-width:2;"/>
    <path clip-path="url(#p41a6b94d3b)" d="M 370.728286 343.507637 
L 370.728286 243.747986 
" style="fill:none;stroke:#000000;stroke-width:2;"/>
    <path clip-path="url(#p41a6b94d3b)" d="M 376.984767 361.320588 
L 376.984767 272.229443 
" style="fill:none;stroke:#000000;stroke-width:2;"/>
    <path clip-path="url(#p41a6b94d3b)" d="M 383.241249 379.025177 
L 383.241249 301.044502 
" style="fill:none;stroke:#000000;stroke-width:2;"/>
    <path clip-path="url(#p41a6b94d3b)" d="M 389.497731 394.271449 
L 389.497731 326.267092 
" style="fill:none;stroke:#000000;stroke-width:2;"/>
    <path clip-path="url(#p41a6b94d3b)" d="M 395.754213 405.594728 
L 395.754213 345.246379 
" style="fill:none;stroke:#000000;stroke-width:2;"/>
    <path clip-path="url(#p41a6b94d3b)" d="M 402.010695 413.784821 
L 402.010695 359.105957 
" style="fill:none;stroke:#000000;stroke-width:2;"/>
    <path clip-path="url(#p41a6b94d3b)" d="M 408.267177 414.214177 
L 408.267177 359.835595 
" style="fill:none;stroke:#000000;stroke-width:2;"/>
    <path clip-path="url(#p41a6b94d3b)" d="M 414.523658 406.086703 
L 414.523658 346.075784 
" style="fill:none;stroke:#000000;stroke-width:2;"/>
    <path clip-path="url(#p41a6b94d3b)" d="M 420.78014 399.669749 
L 420.78014 335.289016 
" style="fill:none;stroke:#000000;stroke-width:2;"/>
    <path clip-path="url(#p41a6b94d3b)" d="M 427.036622 393.078719 
L 427.036622 324.280195 
" style="fill:none;stroke:#000000;stroke-width:2;"/>
    <path clip-path="url(#p41a6b94d3b)" d="M 433.293104 370.933926 
L 433.293104 287.812614 
" style="fill:none;stroke:#000000;stroke-width:2;"/>
    <path clip-path="url(#p41a6b94d3b)" d="M 439.549586 359.5039 
L 439.549586 269.301361 
" style="fill:none;stroke:#000000;stroke-width:2;"/>
    <path clip-path="url(#p41a6b94d3b)" d="M 445.806068 361.392371 
L 445.806068 272.345251 
" style="fill:none;stroke:#000000;stroke-width:2;"/>
    <path clip-path="url(#p41a6b94d3b)" d="M 452.062549 373.192928 
L 452.062549 291.496142 
" style="fill:none;stroke:#000000;stroke-width:2;"/>
    <path clip-path="url(#p41a6b94d3b)" d="M 458.319031 382.83515 
L 458.319031 307.311938 
" style="fill:none;stroke:#000000;stroke-width:2;"/>
    <path clip-path="url(#p41a6b94d3b)" d="M 464.575513 424.864147 
L 464.575513 378.032098 
" style="fill:none;stroke:#000000;stroke-width:2;"/>
    <path clip-path="url(#p41a6b94d3b)" d="M 470.831995 406.916598 
L 470.831995 347.475784 
" style="fill:none;stroke:#000000;stroke-width:2;"/>
    <path clip-path="url(#p41a6b94d3b)" d="M 477.088477 320.976423 
L 477.088477 208.448165 
" style="fill:none;stroke:#000000;stroke-width:2;"/>
    <path clip-path="url(#p41a6b94d3b)" d="M 483.344959 335.042988 
L 483.344959 230.391683 
" style="fill:none;stroke:#000000;stroke-width:2;"/>
   </g>
   <g id="line2d_13">
    <path clip-path="url(#p41a6b94d3b)" d="M 89.186603 322.373887 
L 95.443085 258.500339 
L 101.699566 314.288429 
L 107.956048 262.462344 
L 114.21253 285.037642 
L 120.469012 286.043708 
L 126.725494 316.089694 
L 132.981976 330.317116 
L 139.238457 322.955226 
L 145.494939 315.773366 
L 151.751421 304.079853 
L 158.007903 309.547305 
L 164.264385 296.227577 
L 170.520867 281.134789 
L 176.777348 266.048201 
L 183.03383 255.079042 
L 189.290312 254.074876 
L 195.546794 254.75973 
L 201.803276 256.156048 
L 208.059758 251.363989 
L 214.316239 211.100446 
L 220.572721 211.749588 
L 226.829203 202.615728 
L 233.085685 208.948709 
L 239.342167 221.707068 
L 245.598649 244.920257 
L 251.855131 264.046194 
L 258.111612 264.518366 
L 264.368094 298.823863 
L 270.624576 272.87618 
L 276.881058 281.111661 
L 283.13754 274.45606 
L 289.394022 270.818682 
L 295.650503 240.621382 
L 301.906985 251.514567 
L 308.163467 314.969847 
L 314.419949 332.031197 
L 320.676431 331.643173 
L 326.932913 311.415706 
L 333.189394 292.828997 
L 339.445876 279.162102 
L 345.702358 281.264468 
L 351.95884 282.297071 
L 358.215322 264.958496 
L 364.471804 268.431613 
L 370.728286 293.627812 
L 376.984767 316.775015 
L 383.241249 340.03484 
L 389.497731 360.269271 
L 395.754213 375.420554 
L 402.010695 386.445389 
L 408.267177 387.024886 
L 414.523658 376.081244 
L 420.78014 367.479383 
L 427.036622 358.679457 
L 433.293104 329.37327 
L 439.549586 314.40263 
L 445.806068 316.868811 
L 452.062549 332.344535 
L 458.319031 345.073544 
L 464.575513 401.448123 
L 470.831995 377.196191 
L 477.088477 264.712294 
L 483.344959 282.717335 
" style="fill:none;stroke:#000000;stroke-linecap:square;stroke-width:2;"/>
   </g>
   <g id="patch_3">
    <path d="M 69.478685 440.295773 
L 69.478685 100.8 
" style="fill:none;stroke:#000000;stroke-linecap:square;stroke-linejoin:miter;stroke-width:0.8;"/>
   </g>
   <g id="patch_4">
    <path d="M 503.052876 440.295773 
L 503.052876 100.8 
" style="fill:none;stroke:#000000;stroke-linecap:square;stroke-linejoin:miter;stroke-width:0.8;"/>
   </g>
   <g id="patch_5">
    <path d="M 69.478685 440.295773 
L 503.052876 440.295773 
" style="fill:none;stroke:#000000;stroke-linecap:square;stroke-linejoin:miter;stroke-width:0.8;"/>
   </g>
   <g id="patch_6">
    <path d="M 69.478685 100.8 
L 503.052876 100.8 
" style="fill:none;stroke:#000000;stroke-linecap:square;stroke-linejoin:miter;stroke-width:0.8;"/>
   </g>
  </g>
  <g id="axes_2">
   <g id="matplotlib.axis_3">
    <g id="ytick_6">
     <g id="line2d_14">
      <defs>
       <path d="M 0 0 
L 3.5 0 
" id="m3177bfa5b6" style="stroke:#000000;stroke-width:0.8;"/>
      </defs>
      <g>
       <use style="stroke:#000000;stroke-width:0.8;" x="503.052876" xlink:href="#m3177bfa5b6" y="429.651015"/>
      </g>
     </g>
     <g id="text_15">
      <!-- $\mathdefault{50}$ -->
      <g transform="translate(510.052876 435.185809)scale(0.16 -0.16)">
       <use transform="scale(0.996264)" xlink:href="#CMR17-53"/>
       <use transform="translate(45.690477 0)scale(0.996264)" xlink:href="#CMR17-48"/>
      </g>
     </g>
    </g>
    <g id="ytick_7">
     <g id="line2d_15">
      <g>
       <use style="stroke:#000000;stroke-width:0.8;" x="503.052876" xlink:href="#m3177bfa5b6" y="374.796749"/>
      </g>
     </g>
     <g id="text_16">
      <!-- $\mathdefault{100}$ -->
      <g transform="translate(510.052876 380.331543)scale(0.16 -0.16)">
       <use transform="scale(0.996264)" xlink:href="#CMR17-49"/>
       <use transform="translate(45.690477 0)scale(0.996264)" xlink:href="#CMR17-48"/>
       <use transform="translate(91.380954 0)scale(0.996264)" xlink:href="#CMR17-48"/>
      </g>
     </g>
    </g>
    <g id="ytick_8">
     <g id="line2d_16">
      <g>
       <use style="stroke:#000000;stroke-width:0.8;" x="503.052876" xlink:href="#m3177bfa5b6" y="319.942482"/>
      </g>
     </g>
     <g id="text_17">
      <!-- $\mathdefault{150}$ -->
      <g transform="translate(510.052876 325.477276)scale(0.16 -0.16)">
       <use transform="scale(0.996264)" xlink:href="#CMR17-49"/>
       <use transform="translate(45.690477 0)scale(0.996264)" xlink:href="#CMR17-53"/>
       <use transform="translate(91.380954 0)scale(0.996264)" xlink:href="#CMR17-48"/>
      </g>
     </g>
    </g>
    <g id="ytick_9">
     <g id="line2d_17">
      <g>
       <use style="stroke:#000000;stroke-width:0.8;" x="503.052876" xlink:href="#m3177bfa5b6" y="265.088215"/>
      </g>
     </g>
     <g id="text_18">
      <!-- $\mathdefault{200}$ -->
      <g transform="translate(510.052876 270.62301)scale(0.16 -0.16)">
       <use transform="scale(0.996264)" xlink:href="#CMR17-50"/>
       <use transform="translate(45.690477 0)scale(0.996264)" xlink:href="#CMR17-48"/>
       <use transform="translate(91.380954 0)scale(0.996264)" xlink:href="#CMR17-48"/>
      </g>
     </g>
    </g>
    <g id="ytick_10">
     <g id="line2d_18">
      <g>
       <use style="stroke:#000000;stroke-width:0.8;" x="503.052876" xlink:href="#m3177bfa5b6" y="210.233949"/>
      </g>
     </g>
     <g id="text_19">
      <!-- $\mathdefault{250}$ -->
      <g transform="translate(510.052876 215.768743)scale(0.16 -0.16)">
       <use transform="scale(0.996264)" xlink:href="#CMR17-50"/>
       <use transform="translate(45.690477 0)scale(0.996264)" xlink:href="#CMR17-53"/>
       <use transform="translate(91.380954 0)scale(0.996264)" xlink:href="#CMR17-48"/>
      </g>
     </g>
    </g>
    <g id="ytick_11">
     <g id="line2d_19">
      <g>
       <use style="stroke:#000000;stroke-width:0.8;" x="503.052876" xlink:href="#m3177bfa5b6" y="155.379682"/>
      </g>
     </g>
     <g id="text_20">
      <!-- $\mathdefault{300}$ -->
      <g transform="translate(510.052876 160.914476)scale(0.16 -0.16)">
       <use transform="scale(0.996264)" xlink:href="#CMR17-51"/>
       <use transform="translate(45.690477 0)scale(0.996264)" xlink:href="#CMR17-48"/>
       <use transform="translate(91.380954 0)scale(0.996264)" xlink:href="#CMR17-48"/>
      </g>
     </g>
    </g>
    <g id="text_21">
     <!-- $N_{\rm ind}$ -->
     <g style="fill:#0000ff;" transform="translate(554.069243 291.302454)rotate(-90)scale(0.24 -0.24)">
      <defs>
       <path d="M 74 57.78125 
C 75.09375 62.09375 76.703125 65.09375 84.296875 65.09375 
C 84.59375 65.09375 85.796875 65.09375 85.796875 66.859375 
C 85.796875 68 84.90625 68 84.5 68 
C 82.5 68 77.40625 68 75.40625 68 
L 70.59375 68 
C 69.203125 68 67.40625 68 66 68 
C 65.40625 68 64.203125 68 64.203125 66.09375 
C 64.203125 65.09375 65 65.09375 65.703125 65.09375 
C 71.703125 65.09375 72.09375 62.796875 72.09375 60.984375 
C 72.09375 60.09375 72 59.78125 71.703125 58.390625 
L 60.40625 13.28125 
L 39 66.390625 
C 38.296875 68 38.203125 68 36 68 
L 23.796875 68 
C 21.796875 68 20.90625 68 20.90625 66.09375 
C 20.90625 65.09375 21.59375 65.09375 23.5 65.09375 
C 24 65.09375 29.90625 65.09375 29.90625 64.296875 
C 29.90625 64.09375 29.703125 63.296875 29.59375 63 
L 16.296875 9.921875 
C 15.09375 5 12.703125 2.90625 6.09375 2.90625 
C 5.59375 2.90625 4.59375 2.90625 4.59375 1.046875 
C 4.59375 0 5.59375 0 5.90625 0 
C 7.90625 0 13 0 15 0 
L 19.796875 0 
C 21.203125 0 22.90625 0 24.296875 0 
C 25 0 26.09375 0 26.09375 1.90625 
C 26.09375 2.8125 25.09375 2.90625 24.703125 2.90625 
C 21.40625 2.90625 18.203125 3.5 18.203125 7.09375 
C 18.203125 7.890625 18.40625 8.78125 18.59375 9.578125 
L 32.09375 63 
C 32.703125 62 32.703125 61.8125 33.09375 60.90625 
L 56.90625 1.796875 
C 57.40625 0.59375 57.59375 0 58.5 0 
C 59.5 0 59.59375 0.296875 60 2 
z
" id="CMMI12-78"/>
       <path d="M 29.203125 67.59375 
L 29.203125 65 
C 35.09375 65 36 64.40625 36 59.6875 
L 36 36.640625 
C 35.59375 37.140625 31.5 43.59375 23.40625 43.59375 
C 13.203125 43.59375 3.296875 34.5 3.296875 21.3125 
C 3.296875 8.203125 12.59375 -1 22.40625 -1 
C 30.90625 -1 35.296875 5.265625 35.796875 5.9375 
L 35.796875 -0.984375 
L 47.90625 -0.984375 
L 47.90625 2 
C 42 2 41.09375 2.59375 41.09375 7.390625 
L 41.09375 68.6875 
z
M 35.796875 11.796875 
C 35.796875 8.796875 34 6.09375 31.703125 4.09375 
C 28.296875 1.09375 24.90625 0.59375 23 0.59375 
C 20.09375 0.59375 9.703125 2.09375 9.703125 21.1875 
C 9.703125 40.8125 21.296875 42 23.90625 42 
C 28.5 42 32.203125 39.40625 34.5 35.796875 
C 35.796875 33.703125 35.796875 33.40625 35.796875 31.609375 
z
" id="CMR17-100"/>
      </defs>
      <use transform="scale(0.996264)" xlink:href="#CMMI12-78"/>
      <use transform="translate(78.115119 -14.943915)scale(0.697382)" xlink:href="#CMR17-105"/>
      <use transform="translate(95.524778 -14.943915)scale(0.697382)" xlink:href="#CMR17-110"/>
      <use transform="translate(131.151386 -14.943915)scale(0.697382)" xlink:href="#CMR17-100"/>
     </g>
    </g>
   </g>
   <g id="LineCollection_2">
    <path clip-path="url(#p41a6b94d3b)" d="M 89.186603 375.121378 
L 89.186603 296.422938 
" style="fill:none;stroke:#0000ff;stroke-width:2;"/>
    <path clip-path="url(#p41a6b94d3b)" d="M 95.443085 411.070658 
L 95.443085 344.07916 
" style="fill:none;stroke:#0000ff;stroke-width:2;"/>
    <path clip-path="url(#p41a6b94d3b)" d="M 101.699566 380.083124 
L 101.699566 305.487654 
" style="fill:none;stroke:#0000ff;stroke-width:2;"/>
    <path clip-path="url(#p41a6b94d3b)" d="M 107.956048 403.334393 
L 107.956048 348.020874 
" style="fill:none;stroke:#0000ff;stroke-width:2;"/>
    <path clip-path="url(#p41a6b94d3b)" d="M 114.21253 394.686874 
L 114.21253 332.188739 
" style="fill:none;stroke:#0000ff;stroke-width:2;"/>
    <path clip-path="url(#p41a6b94d3b)" d="M 120.469012 394.255822 
L 120.469012 331.400048 
" style="fill:none;stroke:#0000ff;stroke-width:2;"/>
    <path clip-path="url(#p41a6b94d3b)" d="M 126.725494 379.018785 
L 126.725494 303.542936 
" style="fill:none;stroke:#0000ff;stroke-width:2;"/>
    <path clip-path="url(#p41a6b94d3b)" d="M 132.981976 369.743182 
L 132.981976 286.600499 
" style="fill:none;stroke:#0000ff;stroke-width:2;"/>
    <path clip-path="url(#p41a6b94d3b)" d="M 139.238457 374.745599 
L 139.238457 295.736537 
" style="fill:none;stroke:#0000ff;stroke-width:2;"/>
    <path clip-path="url(#p41a6b94d3b)" d="M 145.494939 379.207334 
L 145.494939 303.887436 
" style="fill:none;stroke:#0000ff;stroke-width:2;"/>
    <path clip-path="url(#p41a6b94d3b)" d="M 151.751421 385.715545 
L 151.751421 315.781595 
" style="fill:none;stroke:#0000ff;stroke-width:2;"/>
    <path clip-path="url(#p41a6b94d3b)" d="M 158.007903 382.780329 
L 158.007903 310.416558 
" style="fill:none;stroke:#0000ff;stroke-width:2;"/>
    <path clip-path="url(#p41a6b94d3b)" d="M 164.264385 389.634043 
L 164.264385 322.946059 
" style="fill:none;stroke:#0000ff;stroke-width:2;"/>
    <path clip-path="url(#p41a6b94d3b)" d="M 170.520867 396.318814 
L 170.520867 335.175064 
" style="fill:none;stroke:#0000ff;stroke-width:2;"/>
    <path clip-path="url(#p41a6b94d3b)" d="M 176.777348 402.079998 
L 176.777348 345.722989 
" style="fill:none;stroke:#0000ff;stroke-width:2;"/>
    <path clip-path="url(#p41a6b94d3b)" d="M 183.03383 405.793856 
L 183.03383 352.527783 
" style="fill:none;stroke:#0000ff;stroke-width:2;"/>
    <path clip-path="url(#p41a6b94d3b)" d="M 189.290312 406.11619 
L 189.290312 353.11861 
" style="fill:none;stroke:#0000ff;stroke-width:2;"/>
    <path clip-path="url(#p41a6b94d3b)" d="M 195.546794 405.896659 
L 195.546794 352.716214 
" style="fill:none;stroke:#0000ff;stroke-width:2;"/>
    <path clip-path="url(#p41a6b94d3b)" d="M 201.803276 405.444992 
L 201.803276 351.88837 
" style="fill:none;stroke:#0000ff;stroke-width:2;"/>
    <path clip-path="url(#p41a6b94d3b)" d="M 208.059758 406.972518 
L 208.059758 354.688417 
" style="fill:none;stroke:#0000ff;stroke-width:2;"/>
    <path clip-path="url(#p41a6b94d3b)" d="M 214.316239 423.13259 
L 214.316239 368.924544 
" style="fill:none;stroke:#0000ff;stroke-width:2;"/>
    <path clip-path="url(#p41a6b94d3b)" d="M 220.572721 422.995679 
L 220.572721 368.642247 
" style="fill:none;stroke:#0000ff;stroke-width:2;"/>
    <path clip-path="url(#p41a6b94d3b)" d="M 226.829203 424.864147 
L 226.829203 372.49557 
" style="fill:none;stroke:#0000ff;stroke-width:2;"/>
    <path clip-path="url(#p41a6b94d3b)" d="M 233.085685 423.581805 
L 233.085685 369.850838 
" style="fill:none;stroke:#0000ff;stroke-width:2;"/>
    <path clip-path="url(#p41a6b94d3b)" d="M 239.342167 420.810834 
L 239.342167 364.13836 
" style="fill:none;stroke:#0000ff;stroke-width:2;"/>
    <path clip-path="url(#p41a6b94d3b)" d="M 245.598649 415.013256 
L 245.598649 352.195356 
" style="fill:none;stroke:#0000ff;stroke-width:2;"/>
    <path clip-path="url(#p41a6b94d3b)" d="M 251.855131 409.321295 
L 251.855131 340.47912 
" style="fill:none;stroke:#0000ff;stroke-width:2;"/>
    <path clip-path="url(#p41a6b94d3b)" d="M 258.111612 409.168293 
L 258.111612 340.164287 
" style="fill:none;stroke:#0000ff;stroke-width:2;"/>
    <path clip-path="url(#p41a6b94d3b)" d="M 264.368094 395.978913 
L 264.368094 313.039738 
" style="fill:none;stroke:#0000ff;stroke-width:2;"/>
    <path clip-path="url(#p41a6b94d3b)" d="M 270.624576 399.574109 
L 270.624576 341.133951 
" style="fill:none;stroke:#0000ff;stroke-width:2;"/>
    <path clip-path="url(#p41a6b94d3b)" d="M 276.881058 396.328298 
L 276.881058 335.192423 
" style="fill:none;stroke:#0000ff;stroke-width:2;"/>
    <path clip-path="url(#p41a6b94d3b)" d="M 283.13754 398.971124 
L 283.13754 340.029967 
" style="fill:none;stroke:#0000ff;stroke-width:2;"/>
    <path clip-path="url(#p41a6b94d3b)" d="M 289.394022 400.346044 
L 289.394022 342.547404 
" style="fill:none;stroke:#0000ff;stroke-width:2;"/>
    <path clip-path="url(#p41a6b94d3b)" d="M 295.650503 416.170032 
L 295.650503 354.57747 
" style="fill:none;stroke:#0000ff;stroke-width:2;"/>
    <path clip-path="url(#p41a6b94d3b)" d="M 301.906985 413.156036 
L 301.906985 348.371611 
" style="fill:none;stroke:#0000ff;stroke-width:2;"/>
    <path clip-path="url(#p41a6b94d3b)" d="M 308.163467 379.683131 
L 308.163467 304.756786 
" style="fill:none;stroke:#0000ff;stroke-width:2;"/>
    <path clip-path="url(#p41a6b94d3b)" d="M 314.419949 368.509564 
L 314.419949 284.347889 
" style="fill:none;stroke:#0000ff;stroke-width:2;"/>
    <path clip-path="url(#p41a6b94d3b)" d="M 320.676431 368.79123 
L 320.676431 284.862204 
" style="fill:none;stroke:#0000ff;stroke-width:2;"/>
    <path clip-path="url(#p41a6b94d3b)" d="M 326.932913 381.73496 
L 326.932913 308.506119 
" style="fill:none;stroke:#0000ff;stroke-width:2;"/>
    <path clip-path="url(#p41a6b94d3b)" d="M 333.189394 391.230846 
L 333.189394 325.866392 
" style="fill:none;stroke:#0000ff;stroke-width:2;"/>
    <path clip-path="url(#p41a6b94d3b)" d="M 339.445876 397.120134 
L 339.445876 336.641649 
" style="fill:none;stroke:#0000ff;stroke-width:2;"/>
    <path clip-path="url(#p41a6b94d3b)" d="M 345.702358 396.265594 
L 345.702358 335.077666 
" style="fill:none;stroke:#0000ff;stroke-width:2;"/>
    <path clip-path="url(#p41a6b94d3b)" d="M 351.95884 395.839386 
L 351.95884 334.297684 
" style="fill:none;stroke:#0000ff;stroke-width:2;"/>
    <path clip-path="url(#p41a6b94d3b)" d="M 358.215322 402.465524 
L 358.215322 346.429168 
" style="fill:none;stroke:#0000ff;stroke-width:2;"/>
    <path clip-path="url(#p41a6b94d3b)" d="M 364.471804 401.22324 
L 364.471804 344.153801 
" style="fill:none;stroke:#0000ff;stroke-width:2;"/>
    <path clip-path="url(#p41a6b94d3b)" d="M 370.728286 390.860622 
L 370.728286 325.189259 
" style="fill:none;stroke:#0000ff;stroke-width:2;"/>
    <path clip-path="url(#p41a6b94d3b)" d="M 376.984767 378.607866 
L 376.984767 302.792162 
" style="fill:none;stroke:#0000ff;stroke-width:2;"/>
    <path clip-path="url(#p41a6b94d3b)" d="M 383.241249 362.364555 
L 383.241249 273.128959 
" style="fill:none;stroke:#0000ff;stroke-width:2;"/>
    <path clip-path="url(#p41a6b94d3b)" d="M 389.497731 343.327391 
L 389.497731 238.389362 
" style="fill:none;stroke:#0000ff;stroke-width:2;"/>
    <path clip-path="url(#p41a6b94d3b)" d="M 395.754213 324.49508 
L 395.754213 204.040729 
" style="fill:none;stroke:#0000ff;stroke-width:2;"/>
    <path clip-path="url(#p41a6b94d3b)" d="M 402.010695 307.176488 
L 402.010695 172.462962 
" style="fill:none;stroke:#0000ff;stroke-width:2;"/>
    <path clip-path="url(#p41a6b94d3b)" d="M 408.267177 306.159103 
L 408.267177 170.608149 
" style="fill:none;stroke:#0000ff;stroke-width:2;"/>
    <path clip-path="url(#p41a6b94d3b)" d="M 414.523658 323.555369 
L 414.523658 202.327099 
" style="fill:none;stroke:#0000ff;stroke-width:2;"/>
    <path clip-path="url(#p41a6b94d3b)" d="M 420.78014 334.967844 
L 420.78014 223.140536 
" style="fill:none;stroke:#0000ff;stroke-width:2;"/>
    <path clip-path="url(#p41a6b94d3b)" d="M 427.036622 345.042877 
L 427.036622 241.519001 
" style="fill:none;stroke:#0000ff;stroke-width:2;"/>
    <path clip-path="url(#p41a6b94d3b)" d="M 433.293104 370.410899 
L 433.293104 287.819821 
" style="fill:none;stroke:#0000ff;stroke-width:2;"/>
    <path clip-path="url(#p41a6b94d3b)" d="M 439.549586 380.01631 
L 439.549586 305.365571 
" style="fill:none;stroke:#0000ff;stroke-width:2;"/>
    <path clip-path="url(#p41a6b94d3b)" d="M 445.806068 378.551366 
L 445.806068 302.688934 
" style="fill:none;stroke:#0000ff;stroke-width:2;"/>
    <path clip-path="url(#p41a6b94d3b)" d="M 452.062549 368.28107 
L 452.062549 283.93067 
" style="fill:none;stroke:#0000ff;stroke-width:2;"/>
    <path clip-path="url(#p41a6b94d3b)" d="M 458.319031 358.136714 
L 458.319031 265.41191 
" style="fill:none;stroke:#0000ff;stroke-width:2;"/>
    <path clip-path="url(#p41a6b94d3b)" d="M 464.575513 276.328335 
L 464.575513 116.231626 
" style="fill:none;stroke:#0000ff;stroke-width:2;"/>
    <path clip-path="url(#p41a6b94d3b)" d="M 470.831995 321.9436 
L 470.831995 199.387988 
" style="fill:none;stroke:#0000ff;stroke-width:2;"/>
    <path clip-path="url(#p41a6b94d3b)" d="M 477.088477 402.552098 
L 477.088477 346.587756 
" style="fill:none;stroke:#0000ff;stroke-width:2;"/>
    <path clip-path="url(#p41a6b94d3b)" d="M 483.344959 395.664676 
L 483.344959 333.977968 
" style="fill:none;stroke:#0000ff;stroke-width:2;"/>
   </g>
   <g id="line2d_20">
    <path clip-path="url(#p41a6b94d3b)" d="M 89.186603 335.772158 
L 95.443085 377.574909 
L 101.699566 342.785389 
L 107.956048 375.677633 
L 114.21253 363.437807 
L 120.469012 362.827935 
L 126.725494 341.280861 
L 132.981976 328.171841 
L 139.238457 335.241068 
L 145.494939 341.547385 
L 151.751421 350.74857 
L 158.007903 346.598443 
L 164.264385 356.290051 
L 170.520867 365.746939 
L 176.777348 373.901493 
L 183.03383 379.160819 
L 189.290312 379.6174 
L 195.546794 379.306437 
L 201.803276 378.666681 
L 208.059758 380.830468 
L 214.316239 396.028567 
L 220.572721 395.818963 
L 226.829203 398.679858 
L 233.085685 396.716321 
L 239.342167 392.474597 
L 245.598649 383.604306 
L 251.855131 374.900207 
L 258.111612 374.66629 
L 264.368094 354.509325 
L 270.624576 370.35403 
L 276.881058 365.760361 
L 283.13754 369.500546 
L 289.394022 371.446724 
L 295.650503 385.373751 
L 301.906985 380.763823 
L 308.163467 342.219958 
L 314.419949 326.428726 
L 320.676431 326.826717 
L 326.932913 345.12054 
L 333.189394 358.548619 
L 339.445876 366.880891 
L 345.702358 365.67163 
L 351.95884 365.068535 
L 358.215322 374.447346 
L 364.471804 372.68852 
L 370.728286 358.024941 
L 376.984767 340.700014 
L 383.241249 317.746757 
L 389.497731 290.858376 
L 395.754213 264.267904 
L 402.010695 239.819725 
L 408.267177 238.383626 
L 414.523658 262.941234 
L 420.78014 279.05419 
L 427.036622 293.280939 
L 433.293104 329.11536 
L 439.549586 342.69094 
L 445.806068 340.62015 
L 452.062549 326.10587 
L 458.319031 311.774312 
L 464.575513 196.279981 
L 470.831995 260.665794 
L 477.088477 374.569927 
L 483.344959 364.821322 
" style="fill:none;stroke:#0000ff;stroke-linecap:square;stroke-width:2;"/>
   </g>
   <g id="patch_7">
    <path d="M 69.478685 440.295773 
L 69.478685 100.8 
" style="fill:none;stroke:#000000;stroke-linecap:square;stroke-linejoin:miter;stroke-width:0.8;"/>
   </g>
   <g id="patch_8">
    <path d="M 503.052876 440.295773 
L 503.052876 100.8 
" style="fill:none;stroke:#000000;stroke-linecap:square;stroke-linejoin:miter;stroke-width:0.8;"/>
   </g>
   <g id="patch_9">
    <path d="M 69.478685 440.295773 
L 503.052876 440.295773 
" style="fill:none;stroke:#000000;stroke-linecap:square;stroke-linejoin:miter;stroke-width:0.8;"/>
   </g>
   <g id="patch_10">
    <path d="M 69.478685 100.8 
L 503.052876 100.8 
" style="fill:none;stroke:#000000;stroke-linecap:square;stroke-linejoin:miter;stroke-width:0.8;"/>
   </g>
   <g id="text_22">
    <!-- L32 beta11p028 kappa0p1554 N118 MCMC50 Buchoff -->
    <g transform="translate(25.641582 70.223956)scale(0.24 -0.24)">
     <defs>
      <path d="M 54.203125 25.234375 
L 52.40625 25.234375 
C 51.59375 15.359375 50.296875 2.59375 33.203125 2.59375 
L 23.90625 2.59375 
C 19.90625 2.59375 19.703125 3.078125 19.703125 6.46875 
L 19.703125 60.90625 
C 19.703125 64.515625 19.90625 65.5 27.5 65.5 
L 29.703125 65.5 
L 29.703125 68 
C 25.59375 68 20.796875 68 16.703125 68 
C 13.59375 68 8 68 5.09375 68 
L 5.09375 65.5 
C 12 65.5 13.09375 65.5 13.09375 61.015625 
L 13.09375 7.0625 
C 13.09375 2.59375 12 2.59375 5.09375 2.59375 
L 5.09375 0 
L 51.796875 0 
z
" id="CMR17-76"/>
      <path d="M 15 68.6875 
L 3.09375 67.59375 
L 3.09375 65 
C 9 65 9.90625 64.40625 9.90625 59.640625 
L 9.90625 -0.203125 
L 11.703125 -0.203125 
L 14.59375 6.890625 
C 17.5 2.203125 21.796875 -1 27.59375 -1 
C 37.59375 -1 47.703125 7.8125 47.703125 21.40625 
C 47.703125 34.1875 38.703125 43.59375 28.59375 43.59375 
C 22.40625 43.59375 18 40.296875 15 36.40625 
z
M 15.203125 31.3125 
C 15.203125 33.09375 15.203125 33.40625 16.59375 35.5 
C 20.5 41.515625 26.09375 42 28 42 
C 31 42 41.296875 40.390625 41.296875 21.5 
C 41.296875 1.6875 29.5 0.59375 27.09375 0.59375 
C 24 0.59375 19.5 1.78125 16.296875 7.59375 
C 15.203125 9.5 15.203125 9.703125 15.203125 11.484375 
z
" id="CMR17-98"/>
      <path d="M 38.09375 23 
C 38.5 23.40625 38.5 23.609375 38.5 24.625 
C 38.5 34.96875 33.09375 44 21.703125 44 
C 11.09375 44 2.703125 33.890625 2.703125 21.609375 
C 2.703125 8.609375 12.203125 -1 22.796875 -1 
C 34 -1 38.40625 9.484375 38.40625 11.5625 
C 38.40625 12.25 37.796875 12.25 37.59375 12.25 
C 36.90625 12.25 36.796875 12.046875 36.40625 10.875 
C 34.203125 4.140625 28.703125 0.796875 23.5 0.796875 
C 19.203125 0.796875 14.90625 3.171875 12.203125 7.5 
C 9.09375 12.546875 9.09375 18.375 9.09375 23 
z
M 9.203125 24.5 
C 9.90625 39.140625 17.59375 42.40625 21.59375 42.40625 
C 28.40625 42.40625 33 35.890625 33.09375 24.5 
z
" id="CMR17-101"/>
      <path d="M 36 25.828125 
C 36 32.375 36 35.84375 31.796875 39.734375 
C 28.09375 43 23.796875 44 20.40625 44 
C 12.5 44 6.796875 37.609375 6.796875 30.796875 
C 6.796875 27 9.796875 27 10.40625 27 
C 11.703125 27 14 27.78125 14 30.53125 
C 14 33 12.09375 34.078125 10.40625 34.078125 
C 10 34.078125 9.5 33.96875 9.203125 33.875 
C 11.296875 40.5 16.703125 42.40625 20.203125 42.40625 
C 25.203125 42.40625 30.703125 37.953125 30.703125 29.453125 
L 30.703125 25 
C 24.796875 25 17.703125 24.203125 12.09375 21.203125 
C 5.796875 17.703125 4 12.703125 4 8.90625 
C 4 1.203125 13 -1 18.296875 -1 
C 23.796875 -1 28.90625 2.171875 31.09375 7.984375 
C 31.296875 3.640625 34.09375 -0.28125 38.5 -0.28125 
C 40.59375 -0.28125 45.90625 1.09375 45.90625 8.859375 
L 45.90625 14.375 
L 44.09375 14.375 
L 44.09375 8.78125 
C 44.09375 2.78125 41.40625 2 40.09375 2 
C 36 2 36 7.15625 36 11.53125 
z
M 30.703125 13.59375 
C 30.703125 4.953125 24.5 0.59375 19 0.59375 
C 14 0.59375 10.09375 4.296875 10.09375 8.90625 
C 10.09375 11.890625 11.40625 17.1875 17.203125 20.390625 
C 22 23.09375 27.5 23.5 30.703125 23.5 
z
" id="CMR17-97"/>
      <path d="M 22 -16.609375 
C 15.59375 -16.609375 15.203125 -16.203125 15.203125 -12.328125 
L 15.203125 6.28125 
C 18.09375 2.09375 22.296875 -0.59375 27.59375 -0.59375 
C 37.59375 -0.59375 47.703125 8.171875 47.703125 21.6875 
C 47.703125 34.234375 39 43.78125 28.703125 43.78125 
C 22.703125 43.78125 17.796875 40.5 15 36.53125 
L 15 43.78125 
L 3.09375 42.6875 
L 3.09375 40.109375 
C 9 40.109375 9.90625 39.5 9.90625 34.734375 
L 9.90625 -12.328125 
C 9.90625 -16.109375 9.5 -16.609375 3.09375 -16.609375 
L 3.09375 -19.1875 
C 5.5 -19 9.90625 -19 12.5 -19 
C 15.09375 -19 19.59375 -19 22 -19.1875 
z
M 15.203125 31.4375 
C 15.203125 32.84375 15.203125 34.921875 19.09375 38.609375 
C 19.59375 39.015625 23 42 28 42 
C 35.296875 42 41.296875 32.9375 41.296875 21.59375 
C 41.296875 10.25 34.90625 1 27 1 
C 23.40625 1 19.5 2.6875 16.5 7.375 
C 15.203125 9.5625 15.203125 10.15625 15.203125 11.75 
z
" id="CMR17-112"/>
      <path d="M 26.09375 26.140625 
C 26 26.34375 25.5 26.9375 25.5 27.234375 
C 25.5 27.4375 32.59375 33.921875 33.5 34.71875 
C 39.203125 39.5 42.796875 40 45.40625 40 
L 45.40625 42.703125 
C 44.796875 42.703125 44.59375 42.703125 44.5 42.5 
L 39.59375 42.5 
C 36.796875 42.5 32.5 42.5 29.796875 42.703125 
L 29.796875 40.09375 
C 31.203125 39.984375 32.203125 39.1875 32.203125 37.796875 
C 32.203125 35.796875 30.203125 33.90625 30.09375 33.90625 
L 15 20.140625 
L 15 68.6875 
L 3.09375 67.59375 
L 3.09375 65 
C 9 65 9.90625 64.40625 9.90625 59.640625 
L 9.90625 6.65625 
C 9.90625 2.875 9.5 2.390625 3.09375 2.390625 
L 3.09375 -0.203125 
C 5.5 0 9.90625 0 12.40625 0 
C 14.90625 0 19.296875 0 21.703125 -0.203125 
L 21.703125 2.390625 
C 15.296875 2.390625 14.90625 2.78125 14.90625 6.6875 
L 14.90625 17.65625 
L 21.796875 23.9375 
L 31.90625 8.96875 
C 33.09375 7.171875 34.09375 5.765625 34.09375 4.46875 
C 34.09375 2.6875 32.296875 2.390625 31.09375 2.390625 
L 31.09375 -0.203125 
C 33.5 0 37.796875 0 40.296875 0 
C 42.09375 0 45.796875 0 47.5 0 
L 47.5 2.390625 
C 42.796875 2.390625 41.703125 3.28125 38.703125 7.671875 
z
" id="CMR17-107"/>
      <path d="M 20.5 66.40625 
C 19.796875 67.5 19.703125 67.5 17.796875 67.5 
L 5.09375 67.5 
L 5.09375 65 
L 7 65 
C 11 65 12.796875 64.515625 13.09375 64.40625 
L 13.09375 9.53125 
C 13.09375 7.046875 13.09375 2.390625 5.09375 2.390625 
L 5.09375 -0.203125 
C 7.40625 0 11.59375 0 14.09375 0 
C 16.59375 0 20.796875 0 23.09375 -0.203125 
L 23.09375 2.390625 
C 15.09375 2.390625 15.09375 7.046875 15.09375 9.53125 
L 15.09375 63.015625 
C 15.796875 62.421875 15.796875 62.21875 16.5 61.234375 
L 53.59375 1.1875 
C 54.296875 0 54.59375 0 55.09375 0 
C 56.09375 0 56.09375 0.296875 56.09375 2.171875 
L 56.09375 57.890625 
C 56.09375 60.359375 56.09375 65 64.09375 65 
L 64.09375 67.59375 
C 61.796875 67.5 57.59375 67.5 55.09375 67.5 
C 52.59375 67.5 48.40625 67.5 46.09375 67.59375 
L 46.09375 65 
C 54.09375 65 54.09375 60.34375 54.09375 57.859375 
L 54.09375 11.921875 
z
" id="CMR17-78"/>
      <path d="M 20.90625 66 
C 20.296875 67.5 20.203125 67.5 18.09375 67.5 
L 5.296875 67.5 
L 5.296875 65 
C 12.203125 65 13.296875 65 13.296875 60.546875 
L 13.296875 9.53125 
C 13.296875 7.046875 13.296875 2.390625 5.296875 2.390625 
L 5.296875 -0.203125 
C 7.59375 0 11.796875 0 14.296875 0 
C 16.796875 0 21 0 23.296875 -0.203125 
L 23.296875 2.390625 
C 15.296875 2.390625 15.296875 7.046875 15.296875 9.53125 
L 15.296875 64.609375 
L 15.40625 64.609375 
L 38.90625 1.390625 
C 39.296875 0.390625 39.5 -0.203125 40.296875 -0.203125 
C 41.09375 -0.203125 41.296875 0.390625 41.703125 1.390625 
L 65.40625 65.09375 
L 65.5 65.09375 
L 65.5 6.84375 
C 65.5 2.390625 64.40625 2.390625 57.5 2.390625 
L 57.5 -0.203125 
C 60.203125 0 65.59375 0 68.5 0 
C 71.40625 0 76.90625 0 79.59375 -0.203125 
L 79.59375 2.390625 
C 72.703125 2.390625 71.59375 2.390625 71.59375 6.84375 
L 71.59375 60.546875 
C 71.59375 65 72.703125 65 79.59375 65 
L 79.59375 67.5 
L 66.90625 67.5 
C 64.796875 67.5 64.703125 67.40625 64.09375 65.90625 
L 42.5 7.84375 
z
" id="CMR17-77"/>
      <path d="M 62.09375 67.015625 
C 62.09375 68.796875 62 68.90625 61.40625 68.90625 
C 61 68.90625 60.90625 68.796875 60.203125 67.609375 
L 55.796875 59.25 
C 50.90625 65.421875 44.90625 69 37.203125 69 
C 20.09375 69 4.59375 54 4.59375 33.5625 
C 4.59375 12.90625 20.09375 -2 37.296875 -2 
C 52.59375 -2 62.09375 11.40625 62.09375 22.828125 
C 62.09375 23.8125 62.09375 24.21875 61.203125 24.21875 
C 60.40625 24.21875 60.40625 23.921875 60.296875 23.03125 
C 59.5 9.140625 49.5 0.59375 38.703125 0.59375 
C 28.5 0.59375 12.203125 7.734375 12.203125 33.546875 
C 12.203125 59.453125 28.796875 66.40625 38.5 66.40625 
C 49.796875 66.40625 58 56.6875 59.90625 42.890625 
C 60.09375 41.6875 60.09375 41.484375 61 41.484375 
C 62.09375 41.484375 62.09375 41.6875 62.09375 43.484375 
z
" id="CMR17-67"/>
      <path d="M 5.203125 68 
L 5.203125 65.40625 
C 12.09375 65.40625 13.203125 65.40625 13.203125 60.9375 
L 13.203125 7.0625 
C 13.203125 2.59375 12.09375 2.59375 5.203125 2.59375 
L 5.203125 0 
L 39.59375 0 
C 52.40625 0 60.703125 9.109375 60.703125 18.1875 
C 60.703125 27.203125 52.5 34.890625 41.796875 34.890625 
C 51.40625 36.8125 58.09375 43.296875 58.09375 51 
C 58.09375 59.40625 49.90625 68 37 68 
z
M 19.5 36 
L 19.5 61.515625 
C 19.5 64.921875 19.703125 65.40625 23.703125 65.40625 
L 36.5 65.40625 
C 46.40625 65.40625 50.796875 57.40625 50.796875 51.203125 
C 50.796875 43.609375 44.703125 36 33.90625 36 
z
M 23.703125 2.59375 
C 19.703125 2.59375 19.5 3.078125 19.5 6.453125 
L 19.5 34.40625 
L 38 34.40625 
C 48.296875 34.40625 53.296875 25.390625 53.296875 18.15625 
C 53.296875 10.921875 47.59375 2.59375 36.703125 2.59375 
z
" id="CMR17-66"/>
      <path d="M 29.40625 42.078125 
L 29.40625 39.5 
C 35.296875 39.5 36.203125 38.890625 36.203125 34.15625 
L 36.203125 16.125 
C 36.203125 7.8125 31.703125 0.59375 24.296875 0.59375 
C 16.09375 0.59375 15.40625 5.4375 15.40625 10.59375 
L 15.40625 43.171875 
L 3.296875 42.078125 
L 3.296875 39.5 
C 7.296875 39.5 10 39.5 10.09375 35.53125 
L 10.09375 16.53125 
C 10.09375 9.890625 10.09375 5.640625 12.703125 2.859375 
C 14 1.578125 16.5 -1 23.703125 -1 
C 32.203125 -1 35.5 5.890625 36.296875 7.90625 
L 36.40625 7.90625 
L 36.40625 -0.984375 
L 48.296875 -0.984375 
L 48.296875 2 
C 42.40625 2 41.5 2.59375 41.5 7.390625 
L 41.5 43.171875 
z
" id="CMR17-117"/>
      <path d="M 34.90625 35 
C 33 35 30.203125 35 30.203125 31.515625 
C 30.203125 28.71875 32.5 27.921875 33.796875 27.921875 
C 34.5 27.921875 37.40625 28.234375 37.40625 31.625 
C 37.40625 38.546875 30.59375 43.796875 22.90625 43.796875 
C 12.296875 43.796875 3.296875 34.03125 3.296875 21.296875 
C 3.296875 8.0625 12.703125 -1 22.90625 -1 
C 35.296875 -1 38.40625 10.578125 38.40625 11.6875 
C 38.40625 12.09375 38.296875 12.390625 37.59375 12.390625 
C 36.90625 12.390625 36.796875 12.296875 36.40625 10.984375 
C 33.796875 2.8125 28.09375 0.796875 23.796875 0.796875 
C 17.40625 0.796875 9.703125 6.671875 9.703125 21.390625 
C 9.703125 36.53125 17.09375 42 23 42 
C 26.90625 42 32.703125 40.203125 34.90625 35 
z
" id="CMR17-99"/>
      <path d="M 41.5 30.203125 
C 41.5 35.296875 40.5 43.59375 28.703125 43.59375 
C 20.5 43.59375 16.5 37 15.296875 33.703125 
L 15.203125 33.703125 
L 15.203125 68.6875 
L 3.296875 67.59375 
L 3.296875 65 
C 9.203125 65 10.09375 64.40625 10.09375 59.640625 
L 10.09375 6.65625 
C 10.09375 2.875 9.703125 2.390625 3.296875 2.390625 
L 3.296875 -0.203125 
C 5.703125 0 10.09375 0 12.703125 0 
C 15.296875 0 19.796875 0 22.203125 -0.203125 
L 22.203125 2.390625 
C 15.796875 2.390625 15.40625 2.78125 15.40625 6.6875 
L 15.40625 25.90625 
C 15.40625 35.109375 21 42 28 42 
C 35.40625 42 36.203125 35.40625 36.203125 30.59375 
L 36.203125 6.6875 
C 36.203125 2.875 35.796875 2.390625 29.40625 2.390625 
L 29.40625 -0.203125 
C 31.796875 0 36.203125 0 38.796875 0 
C 41.40625 0 45.90625 0 48.296875 -0.203125 
L 48.296875 2.390625 
C 41.90625 2.390625 41.5 2.78125 41.5 6.6875 
z
" id="CMR17-104"/>
      <path d="M 43.09375 21.1875 
C 43.09375 34 33.796875 44 22.90625 44 
C 12 44 2.703125 34 2.703125 21.1875 
C 2.703125 8.609375 12 -1 22.90625 -1 
C 33.796875 -1 43.09375 8.609375 43.09375 21.1875 
z
M 22.90625 0.796875 
C 18.203125 0.796875 14.203125 3.59375 11.90625 7.5 
C 9.40625 11.984375 9.09375 17.59375 9.09375 22 
C 9.09375 26.203125 9.296875 31.40625 11.90625 35.90625 
C 13.90625 39.203125 17.796875 42.40625 22.90625 42.40625 
C 27.40625 42.40625 31.203125 39.90625 33.59375 36.40625 
C 36.703125 31.703125 36.703125 25.109375 36.703125 22 
C 36.703125 18.09375 36.5 12.109375 33.796875 7.296875 
C 31 2.703125 26.703125 0.796875 22.90625 0.796875 
z
" id="CMR17-111"/>
      <path d="M 39.90625 40 
L 51.296875 40 
L 51.296875 42.578125 
L 39.703125 42.578125 
L 39.703125 54.59375 
C 39.703125 62.84375 43.90625 68 48.203125 68 
C 49.5 68 51 67.609375 52 66.90625 
C 51.203125 66.703125 49.09375 66.015625 49.09375 63.546875 
C 49.09375 60.953125 51.09375 60.15625 52.5 60.15625 
C 53.90625 60.15625 55.90625 60.953125 55.90625 63.546875 
C 55.90625 67.3125 52.296875 69.59375 48.296875 69.59375 
C 44.40625 69.59375 41.203125 67.703125 38.703125 65.328125 
C 36.40625 68.59375 32.59375 69.59375 28.703125 69.59375 
C 20.90625 69.59375 9.90625 65.125 9.90625 54.203125 
L 9.90625 42.578125 
L 1.90625 42.578125 
L 1.90625 40 
L 9.90625 40 
L 9.90625 6.671875 
C 9.90625 2.875 9.5 2.390625 3.09375 2.390625 
L 3.09375 -0.203125 
C 5.5 0 9.90625 0 12.40625 0 
C 15 0 19.40625 0 21.796875 -0.203125 
L 21.796875 2.390625 
C 15.40625 2.390625 15 2.78125 15 6.671875 
L 15 40 
L 34.796875 40 
L 34.796875 6.671875 
C 34.796875 2.875 34.40625 2.390625 28 2.390625 
L 28 -0.203125 
C 30.40625 0 35 0 37.59375 0 
C 40.5 0 45.59375 0 48.296875 -0.203125 
L 48.296875 2.390625 
C 41.09375 2.390625 39.90625 2.390625 39.90625 6.859375 
z
M 14.796875 42.578125 
L 14.796875 54.203125 
C 14.796875 63.234375 21.796875 68 28.5 68 
C 30 68 33.90625 67.6875 36.296875 65.421875 
C 34.5 65.421875 32.796875 64.625 32.796875 62.140625 
C 32.796875 59.5625 35.09375 58.859375 35.296875 58.859375 
C 34.796875 57.0625 34.796875 55.09375 34.796875 54.390625 
L 34.796875 42.578125 
z
" id="CMR17-11"/>
     </defs>
     <use transform="scale(0.996264)" xlink:href="#CMR17-76"/>
     <use transform="translate(57.381408 0)scale(0.996264)" xlink:href="#CMR17-51"/>
     <use transform="translate(103.071885 0)scale(0.996264)" xlink:href="#CMR17-50"/>
     <use transform="translate(178.838328 0)scale(0.996264)" xlink:href="#CMR17-98"/>
     <use transform="translate(232.336137 0)scale(0.996264)" xlink:href="#CMR17-101"/>
     <use transform="translate(272.821797 0)scale(0.996264)" xlink:href="#CMR17-116"/>
     <use transform="translate(308.102565 0)scale(0.996264)" xlink:href="#CMR17-97"/>
     <use transform="translate(353.793042 0)scale(0.996264)" xlink:href="#CMR17-49"/>
     <use transform="translate(399.483519 0)scale(0.996264)" xlink:href="#CMR17-49"/>
     <use transform="translate(445.173997 0)scale(0.996264)" xlink:href="#CMR17-112"/>
     <use transform="translate(496.069366 0)scale(0.996264)" xlink:href="#CMR17-48"/>
     <use transform="translate(541.759843 0)scale(0.996264)" xlink:href="#CMR17-50"/>
     <use transform="translate(587.450321 0)scale(0.996264)" xlink:href="#CMR17-56"/>
     <use transform="translate(663.216764 0)scale(0.996264)" xlink:href="#CMR17-107"/>
     <use transform="translate(706.304863 0)scale(0.996264)" xlink:href="#CMR17-97"/>
     <use transform="translate(751.99534 0)scale(0.996264)" xlink:href="#CMR17-112"/>
     <use transform="translate(802.89071 0)scale(0.996264)" xlink:href="#CMR17-112"/>
     <use transform="translate(853.78608 0)scale(0.996264)" xlink:href="#CMR17-97"/>
     <use transform="translate(899.476557 0)scale(0.996264)" xlink:href="#CMR17-48"/>
     <use transform="translate(945.167034 0)scale(0.996264)" xlink:href="#CMR17-112"/>
     <use transform="translate(996.062404 0)scale(0.996264)" xlink:href="#CMR17-49"/>
     <use transform="translate(1041.752881 0)scale(0.996264)" xlink:href="#CMR17-53"/>
     <use transform="translate(1087.443358 0)scale(0.996264)" xlink:href="#CMR17-53"/>
     <use transform="translate(1133.133835 0)scale(0.996264)" xlink:href="#CMR17-52"/>
     <use transform="translate(1208.900279 0)scale(0.996264)" xlink:href="#CMR17-78"/>
     <use transform="translate(1277.972709 0)scale(0.996264)" xlink:href="#CMR17-49"/>
     <use transform="translate(1323.663186 0)scale(0.996264)" xlink:href="#CMR17-49"/>
     <use transform="translate(1369.353663 0)scale(0.996264)" xlink:href="#CMR17-56"/>
     <use transform="translate(1445.120106 0)scale(0.996264)" xlink:href="#CMR17-77"/>
     <use transform="translate(1529.807047 0)scale(0.996264)" xlink:href="#CMR17-67"/>
     <use transform="translate(1596.316927 0)scale(0.996264)" xlink:href="#CMR17-77"/>
     <use transform="translate(1681.003868 0)scale(0.996264)" xlink:href="#CMR17-67"/>
     <use transform="translate(1747.513748 0)scale(0.996264)" xlink:href="#CMR17-53"/>
     <use transform="translate(1793.204226 0)scale(0.996264)" xlink:href="#CMR17-48"/>
     <use transform="translate(1868.970669 0)scale(0.996264)" xlink:href="#CMR17-66"/>
     <use transform="translate(1934.159424 0)scale(0.996264)" xlink:href="#CMR17-117"/>
     <use transform="translate(1985.054793 0)scale(0.996264)" xlink:href="#CMR17-99"/>
     <use transform="translate(2022.938 0)scale(0.996264)" xlink:href="#CMR17-104"/>
     <use transform="translate(2073.83337 0)scale(0.996264)" xlink:href="#CMR17-111"/>
     <use transform="translate(2119.523847 0)scale(0.996264)" xlink:href="#CMR17-11"/>
    </g>
    <!-- bary 2u2d com4 Spin0 -->
    <g transform="translate(178.794629 94.8)scale(0.24 -0.24)">
     <defs>
      <path d="M 15 23.390625 
C 15 33 19.09375 42 26.59375 42 
C 27.296875 42 28 41.90625 28.703125 41.59375 
C 28.703125 41.59375 26.5 40.890625 26.5 38.3125 
C 26.5 35.90625 28.40625 34.90625 29.90625 34.90625 
C 31.09375 34.90625 33.296875 35.609375 33.296875 38.40625 
C 33.296875 41.609375 30.09375 43.59375 26.703125 43.59375 
C 19.09375 43.59375 15.796875 36.203125 14.796875 32.703125 
L 14.703125 32.703125 
L 14.703125 43.59375 
L 3.09375 42.5 
L 3.09375 39.90625 
C 9 39.90625 9.90625 39.296875 9.90625 34.5 
L 9.90625 6.6875 
C 9.90625 2.875 9.5 2.390625 3.09375 2.390625 
L 3.09375 -0.203125 
C 5.5 0 10.09375 0 12.703125 0 
C 15.59375 0 20.703125 0 23.40625 -0.203125 
L 23.40625 2.390625 
C 16.203125 2.390625 15 2.390625 15 6.875 
z
" id="CMR17-114"/>
      <path d="M 39 34.328125 
C 41.5 40.40625 46 40.40625 47.40625 40.40625 
L 47.40625 43 
C 45.5 43 43 43 41.09375 43 
C 39 43 35.703125 43 33.703125 43.09375 
L 33.703125 40.5 
C 37.5 40.203125 37.59375 37.40625 37.59375 36.609375 
C 37.59375 35.625 37.40625 35.125 36.90625 33.921875 
L 26 7.015625 
L 14.09375 36.03125 
C 13.59375 37.21875 13.59375 37.90625 13.59375 38.015625 
C 13.59375 40.203125 15.90625 40.40625 18.296875 40.40625 
L 18.296875 43.09375 
C 15.90625 43 11.59375 43 9.09375 43 
C 6.40625 43 3.203125 43 1 43.09375 
L 1 40.40625 
C 6.40625 40.40625 7 39.90625 8.296875 36.71875 
L 23.203125 0.234375 
C 18.703125 -11.53125 16.09375 -18.40625 9.796875 -18.40625 
C 8.703125 -18.40625 6.203125 -18.109375 4.40625 -16.3125 
C 6.703125 -16.109375 7.703125 -14.71875 7.703125 -13.015625 
C 7.703125 -11.328125 6.5 -9.828125 4.5 -9.828125 
C 2.296875 -9.828125 1.203125 -11.328125 1.203125 -13.125 
C 1.203125 -17.109375 5.296875 -20 9.796875 -20 
C 15.59375 -20 19.203125 -14.40625 21.203125 -9.4375 
z
" id="CMR17-121"/>
      <path d="M 67.59375 30.203125 
C 67.59375 35.1875 66.703125 43.59375 54.796875 43.59375 
C 48 43.59375 43.296875 39 41.5 33.609375 
L 41.40625 33.609375 
C 40.203125 41.8125 34.296875 43.59375 28.703125 43.59375 
C 20.796875 43.59375 16.703125 37.5 15.203125 33.5 
L 15.09375 33.5 
L 15.09375 43.59375 
L 3.296875 42.5 
L 3.296875 39.90625 
C 9.203125 39.90625 10.09375 39.296875 10.09375 34.5 
L 10.09375 6.6875 
C 10.09375 2.875 9.703125 2.390625 3.296875 2.390625 
L 3.296875 -0.203125 
C 5.703125 0 10.09375 0 12.703125 0 
C 15.296875 0 19.796875 0 22.203125 -0.203125 
L 22.203125 2.390625 
C 15.796875 2.390625 15.40625 2.78125 15.40625 6.6875 
L 15.40625 25.90625 
C 15.40625 35.109375 21 42 28 42 
C 35.40625 42 36.203125 35.40625 36.203125 30.59375 
L 36.203125 6.6875 
C 36.203125 2.875 35.796875 2.390625 29.40625 2.390625 
L 29.40625 -0.203125 
C 31.796875 0 36.203125 0 38.796875 0 
C 41.40625 0 45.90625 0 48.296875 -0.203125 
L 48.296875 2.390625 
C 41.90625 2.390625 41.5 2.78125 41.5 6.6875 
L 41.5 25.90625 
C 41.5 35.109375 47.09375 42 54.09375 42 
C 61.5 42 62.296875 35.40625 62.296875 30.59375 
L 62.296875 6.6875 
C 62.296875 2.875 61.90625 2.390625 55.5 2.390625 
L 55.5 -0.203125 
C 57.90625 0 62.296875 0 64.90625 0 
C 67.5 0 72 0 74.40625 -0.203125 
L 74.40625 2.390625 
C 68 2.390625 67.59375 2.78125 67.59375 6.6875 
z
" id="CMR17-109"/>
      <path d="M 43.796875 67.03125 
C 43.796875 68.8125 43.703125 68.921875 43.09375 68.921875 
C 42.5 68.921875 42.296875 68.515625 41.90625 67.625 
L 38.90625 61.046875 
C 35.09375 66.515625 29.296875 69 23 69 
C 12.796875 69 4.59375 60.953125 4.59375 50.828125 
C 4.59375 47.75 5.296875 43.375 8.703125 39.21875 
C 12.40625 34.65625 15.90625 33.859375 23.90625 31.765625 
C 26.90625 30.96875 31.90625 29.671875 32.90625 29.28125 
C 38.59375 26.90625 41.59375 20.953125 41.59375 15.390625 
C 41.59375 8.234375 36.5 0.59375 27.796875 0.59375 
C 17.09375 0.59375 7.09375 6.546875 6.40625 20.484375 
C 6.296875 22.078125 6.203125 22.171875 5.5 22.171875 
C 4.703125 22.171875 4.59375 22.078125 4.59375 20.078125 
L 4.59375 -0.015625 
C 4.59375 -1.796875 4.703125 -1.90625 5.296875 -1.90625 
C 6 -1.90625 6.203125 -1.40625 7.59375 1.6875 
C 7.703125 1.984375 7.703125 2.1875 9.59375 5.953125 
C 14.59375 -0.609375 23 -2 27.796875 -2 
C 38.703125 -2 46.40625 7.046875 46.40625 17.5625 
C 46.40625 22.71875 44.5 26.6875 43.40625 28.484375 
C 39.203125 34.84375 34.703125 36.03125 29.90625 37.21875 
C 29.203125 37.53125 29 37.53125 23.40625 38.90625 
C 18 40.296875 15.703125 41 13.203125 43.6875 
C 10.40625 46.75 9.40625 49.9375 9.40625 53.109375 
C 9.40625 59.5625 14.59375 66.609375 23.09375 66.609375 
C 33.703125 66.609375 40.296875 59.15625 41.796875 46.765625 
C 42.09375 44.96875 42.203125 44.875 42.90625 44.875 
C 43.796875 44.875 43.796875 45.171875 43.796875 46.859375 
z
" id="CMR17-83"/>
     </defs>
     <use transform="scale(0.996264)" xlink:href="#CMR17-98"/>
     <use transform="translate(50.89537 0)scale(0.996264)" xlink:href="#CMR17-97"/>
     <use transform="translate(96.585847 0)scale(0.996264)" xlink:href="#CMR17-114"/>
     <use transform="translate(131.866615 0)scale(0.996264)" xlink:href="#CMR17-121"/>
     <use transform="translate(210.235497 0)scale(0.996264)" xlink:href="#CMR17-50"/>
     <use transform="translate(255.925974 0)scale(0.996264)" xlink:href="#CMR17-117"/>
     <use transform="translate(306.821344 0)scale(0.996264)" xlink:href="#CMR17-50"/>
     <use transform="translate(352.511821 0)scale(0.996264)" xlink:href="#CMR17-100"/>
     <use transform="translate(433.483157 0)scale(0.996264)" xlink:href="#CMR17-99"/>
     <use transform="translate(473.968817 0)scale(0.996264)" xlink:href="#CMR17-111"/>
     <use transform="translate(519.659295 0)scale(0.996264)" xlink:href="#CMR17-109"/>
     <use transform="translate(596.578884 0)scale(0.996264)" xlink:href="#CMR17-52"/>
     <use transform="translate(672.345328 0)scale(0.996264)" xlink:href="#CMR17-83"/>
     <use transform="translate(723.240698 0)scale(0.996264)" xlink:href="#CMR17-112"/>
     <use transform="translate(774.136068 0)scale(0.996264)" xlink:href="#CMR17-105"/>
     <use transform="translate(799.007126 0)scale(0.996264)" xlink:href="#CMR17-110"/>
     <use transform="translate(849.902496 0)scale(0.996264)" xlink:href="#CMR17-48"/>
    </g>
   </g>
  </g>
 </g>
 <defs>
  <clipPath id="p41a6b94d3b">
   <rect height="339.495773" width="433.574192" x="69.478685" y="100.8"/>
  </clipPath>
 </defs>
</svg>
