<?xml version="1.0" encoding="utf-8" standalone="no"?>
<!DOCTYPE svg PUBLIC "-//W3C//DTD SVG 1.1//EN"
  "http://www.w3.org/Graphics/SVG/1.1/DTD/svg11.dtd">
<!-- Created with matplotlib (https://matplotlib.org/) -->
<svg height="360pt" version="1.1" viewBox="0 0 720 360" width="720pt" xmlns="http://www.w3.org/2000/svg" xmlns:xlink="http://www.w3.org/1999/xlink">
 <metadata>
  <rdf:RDF xmlns:cc="http://creativecommons.org/ns#" xmlns:dc="http://purl.org/dc/elements/1.1/" xmlns:rdf="http://www.w3.org/1999/02/22-rdf-syntax-ns#">
   <cc:Work>
    <dc:type rdf:resource="http://purl.org/dc/dcmitype/StillImage"/>
    <dc:date>2022-11-03T15:26:32.264629</dc:date>
    <dc:format>image/svg+xml</dc:format>
    <dc:creator>
     <cc:Agent>
      <dc:title>Matplotlib v3.3.4, https://matplotlib.org/</dc:title>
     </cc:Agent>
    </dc:creator>
   </cc:Work>
  </rdf:RDF>
 </metadata>
 <defs>
  <style type="text/css">*{stroke-linecap:butt;stroke-linejoin:round;}</style>
 </defs>
 <g id="figure_1">
  <g id="patch_1">
   <path d="M 0 360 
L 720 360 
L 720 0 
L 0 0 
z
" style="fill:#ffffff;"/>
  </g>
  <g id="axes_1">
   <g id="patch_2">
    <path d="M 76.865589 273.575773 
L 345.063296 273.575773 
L 345.063296 63.911226 
L 76.865589 63.911226 
z
" style="fill:#ffffff;"/>
   </g>
   <g id="matplotlib.axis_1">
    <g id="xtick_1">
     <g id="line2d_1">
      <defs>
       <path d="M 0 0 
L 0 3.5 
" id="mb5ca285532" style="stroke:#000000;stroke-width:0.8;"/>
      </defs>
      <g>
       <use style="stroke:#000000;stroke-width:0.8;" x="89.056394" xlink:href="#mb5ca285532" y="273.575773"/>
      </g>
     </g>
     <g id="text_1">
      <!-- $\mathdefault{0}$ -->
      <g transform="translate(85.1544 291.645361)scale(0.16 -0.16)">
       <defs>
        <path d="M 42 31.640625 
C 42 37.75 41.90625 48.125 37.703125 56.109375 
C 34 63.109375 28.09375 65.59375 22.90625 65.59375 
C 18.09375 65.59375 12 63.40625 8.203125 56.203125 
C 4.203125 48.71875 3.796875 39.4375 3.796875 31.640625 
C 3.796875 25.953125 3.90625 17.28125 7 9.671875 
C 11.296875 -0.609375 19 -2 22.90625 -2 
C 27.5 -2 34.5 -0.109375 38.59375 9.375 
C 41.59375 16.28125 42 24.359375 42 31.640625 
z
M 22.90625 -0.40625 
C 16.5 -0.40625 12.703125 5.078125 11.296875 12.6875 
C 10.203125 18.5625 10.203125 27.15625 10.203125 32.75 
C 10.203125 40.4375 10.203125 46.828125 11.5 52.921875 
C 13.40625 61.390625 19 64 22.90625 64 
C 27 64 32.296875 61.296875 34.203125 53.125 
C 35.5 47.4375 35.59375 40.734375 35.59375 32.75 
C 35.59375 26.25 35.59375 18.265625 34.40625 12.375 
C 32.296875 1.484375 26.40625 -0.40625 22.90625 -0.40625 
z
" id="CMR17-48"/>
       </defs>
       <use transform="scale(0.996264)" xlink:href="#CMR17-48"/>
      </g>
     </g>
    </g>
    <g id="xtick_2">
     <g id="line2d_2">
      <g>
       <use style="stroke:#000000;stroke-width:0.8;" x="166.458329" xlink:href="#mb5ca285532" y="273.575773"/>
      </g>
     </g>
     <g id="text_2">
      <!-- $\mathdefault{20}$ -->
      <g transform="translate(158.654342 291.645361)scale(0.16 -0.16)">
       <defs>
        <path d="M 41.703125 15.453125 
L 39.90625 15.453125 
C 38.90625 8.375 38.09375 7.171875 37.703125 6.5625 
C 37.203125 5.765625 30 5.765625 28.59375 5.765625 
L 9.40625 5.765625 
C 13 9.671875 20 16.75 28.5 24.953125 
C 34.59375 30.734375 41.703125 37.53125 41.703125 47.421875 
C 41.703125 59.21875 32.296875 66 21.796875 66 
C 10.796875 66 4.09375 56.3125 4.09375 47.34375 
C 4.09375 43.4375 7 42.9375 8.203125 42.9375 
C 9.203125 42.9375 12.203125 43.546875 12.203125 47.03125 
C 12.203125 50.109375 9.59375 51 8.203125 51 
C 7.59375 51 7 50.90625 6.59375 50.703125 
C 8.5 59.21875 14.296875 63.40625 20.40625 63.40625 
C 29.09375 63.40625 34.796875 56.515625 34.796875 47.421875 
C 34.796875 38.734375 29.703125 31.25 24 24.75 
L 4.09375 2.28125 
L 4.09375 0 
L 39.296875 0 
z
" id="CMR17-50"/>
       </defs>
       <use transform="scale(0.996264)" xlink:href="#CMR17-50"/>
       <use transform="translate(45.690477 0)scale(0.996264)" xlink:href="#CMR17-48"/>
      </g>
     </g>
    </g>
    <g id="xtick_3">
     <g id="line2d_3">
      <g>
       <use style="stroke:#000000;stroke-width:0.8;" x="243.860265" xlink:href="#mb5ca285532" y="273.575773"/>
      </g>
     </g>
     <g id="text_3">
      <!-- $\mathdefault{40}$ -->
      <g transform="translate(236.056278 291.645361)scale(0.16 -0.16)">
       <defs>
        <path d="M 33.59375 64.40625 
C 33.59375 66.5 33.5 66.5 31.703125 66.5 
L 2 19.59375 
L 2 17 
L 27.796875 17 
L 27.796875 7.140625 
C 27.796875 3.5 27.59375 2.5 20.59375 2.5 
L 18.703125 2.5 
L 18.703125 0 
C 21.90625 0 27.296875 0 30.703125 0 
C 34.09375 0 39.5 0 42.703125 0 
L 42.703125 2.5 
L 40.796875 2.5 
C 33.796875 2.5 33.59375 3.5 33.59375 7.140625 
L 33.59375 17 
L 43.796875 17 
L 43.796875 19.59375 
L 33.59375 19.59375 
z
M 28.09375 57.859375 
L 28.09375 19.59375 
L 4 19.59375 
z
" id="CMR17-52"/>
       </defs>
       <use transform="scale(0.996264)" xlink:href="#CMR17-52"/>
       <use transform="translate(45.690477 0)scale(0.996264)" xlink:href="#CMR17-48"/>
      </g>
     </g>
    </g>
    <g id="xtick_4">
     <g id="line2d_4">
      <g>
       <use style="stroke:#000000;stroke-width:0.8;" x="321.262201" xlink:href="#mb5ca285532" y="273.575773"/>
      </g>
     </g>
     <g id="text_4">
      <!-- $\mathdefault{60}$ -->
      <g transform="translate(313.458214 291.645361)scale(0.16 -0.16)">
       <defs>
        <path d="M 10.59375 34 
C 10.59375 57.65625 21.796875 63 28.296875 63 
C 30.40625 63 35.5 62.640625 37.5 59 
C 35.90625 59 32.90625 59 32.90625 55.515625 
C 32.90625 52.828125 35.09375 51.921875 36.5 51.921875 
C 37.40625 51.921875 40.09375 52.3125 40.09375 55.625 
C 40.09375 61.78125 35.09375 65.296875 28.203125 65.296875 
C 16.296875 65.296875 3.796875 52.96875 3.796875 31 
C 3.796875 3.953125 15.09375 -2 23.09375 -2 
C 32.796875 -2 42 6.671875 42 20.046875 
C 42 32.515625 33.90625 41.59375 23.703125 41.59375 
C 17.59375 41.59375 13.09375 37.609375 10.59375 30.625 
z
M 23.09375 0.390625 
C 10.796875 0.390625 10.796875 18.75 10.796875 22.4375 
C 10.796875 29.625 14.203125 40 23.5 40 
C 25.203125 40 30.09375 40 33.40625 33.125 
C 35.203125 29.21875 35.203125 25.140625 35.203125 20.140625 
C 35.203125 14.75 35.203125 10.78125 33.09375 6.78125 
C 30.90625 2.671875 27.703125 0.390625 23.09375 0.390625 
z
" id="CMR17-54"/>
       </defs>
       <use transform="scale(0.996264)" xlink:href="#CMR17-54"/>
       <use transform="translate(45.690477 0)scale(0.996264)" xlink:href="#CMR17-48"/>
      </g>
     </g>
    </g>
    <g id="text_5">
     <!-- $t$ -->
     <g transform="translate(206.737283 315.349243)scale(0.24 -0.24)">
      <defs>
       <path d="M 20.09375 40.09375 
L 29.296875 40.09375 
C 31.203125 40.09375 32.203125 40.09375 32.203125 41.890625 
C 32.203125 43 31.59375 43 29.59375 43 
L 20.796875 43 
L 24.5 57.6875 
C 24.90625 59.078125 24.90625 59.28125 24.90625 60 
C 24.90625 61.609375 23.59375 62.5 22.296875 62.5 
C 21.5 62.5 19.203125 62.203125 18.40625 58.984375 
L 14.5 43 
L 5.09375 43 
C 3.09375 43 2.203125 43 2.203125 41.09375 
C 2.203125 40.09375 2.90625 40.09375 4.796875 40.09375 
L 13.703125 40.09375 
L 7.09375 13.765625 
C 6.296875 10.28125 6 9.28125 6 7.984375 
C 6 3.296875 9.296875 -1 14.90625 -1 
C 25 -1 30.40625 13.5625 30.40625 14.25 
C 30.40625 14.859375 30 15.15625 29.40625 15.15625 
C 29.203125 15.15625 28.796875 15.15625 28.59375 14.75 
C 28.5 14.65625 28.40625 14.546875 27.703125 12.953125 
C 25.59375 7.984375 21 1 15.203125 1 
C 12.203125 1 12 3.5 12 5.6875 
C 12 5.78125 12 7.6875 12.296875 8.875 
z
" id="CMMI12-116"/>
      </defs>
      <use transform="scale(0.996264)" xlink:href="#CMMI12-116"/>
     </g>
    </g>
   </g>
   <g id="matplotlib.axis_2">
    <g id="ytick_1">
     <g id="line2d_5">
      <defs>
       <path d="M 0 0 
L -3.5 0 
" id="m81bea144a4" style="stroke:#000000;stroke-width:0.8;"/>
      </defs>
      <g>
       <use style="stroke:#000000;stroke-width:0.8;" x="76.865589" xlink:href="#m81bea144a4" y="236.775807"/>
      </g>
     </g>
     <g id="text_6">
      <!-- $\mathdefault{10^{-2}}$ -->
      <g transform="translate(40 242.310602)scale(0.16 -0.16)">
       <defs>
        <path d="M 26.59375 63.40625 
C 26.59375 65.5 26.5 65.5 25.09375 65.5 
C 21.203125 61.1875 15.296875 59.796875 9.703125 59.796875 
C 9.40625 59.796875 8.90625 59.796875 8.796875 59.5 
C 8.703125 59.296875 8.703125 59.09375 8.703125 57 
C 11.796875 57 17 57.59375 21 59.984375 
L 21 7.203125 
C 21 3.6875 20.796875 2.5 12.203125 2.5 
L 9.203125 2.5 
L 9.203125 0 
C 14 0 19 0 23.796875 0 
C 28.59375 0 33.59375 0 38.40625 0 
L 38.40625 2.5 
L 35.40625 2.5 
C 26.796875 2.5 26.59375 3.59375 26.59375 7.15625 
z
" id="CMR17-49"/>
        <path d="M 65.90625 23 
C 67.59375 23 69.40625 23 69.40625 25 
C 69.40625 27 67.59375 27 65.90625 27 
L 11.796875 27 
C 10.09375 27 8.296875 27 8.296875 25 
C 8.296875 23 10.09375 23 11.796875 23 
z
" id="CMSY10-0"/>
       </defs>
       <use transform="scale(0.996264)" xlink:href="#CMR17-49"/>
       <use transform="translate(45.690477 0)scale(0.996264)" xlink:href="#CMR17-48"/>
       <use transform="translate(91.380954 36.153639)scale(0.697382)" xlink:href="#CMSY10-0"/>
       <use transform="translate(145.621947 36.153639)scale(0.697382)" xlink:href="#CMR17-50"/>
      </g>
     </g>
    </g>
    <g id="ytick_2">
     <g id="line2d_6">
      <g>
       <use style="stroke:#000000;stroke-width:0.8;" x="76.865589" xlink:href="#m81bea144a4" y="188.744082"/>
      </g>
     </g>
     <g id="text_7">
      <!-- $\mathdefault{10^{-1}}$ -->
      <g transform="translate(40 194.278876)scale(0.16 -0.16)">
       <use transform="scale(0.996264)" xlink:href="#CMR17-49"/>
       <use transform="translate(45.690477 0)scale(0.996264)" xlink:href="#CMR17-48"/>
       <use transform="translate(91.380954 36.153639)scale(0.697382)" xlink:href="#CMSY10-0"/>
       <use transform="translate(145.621947 36.153639)scale(0.697382)" xlink:href="#CMR17-49"/>
      </g>
     </g>
    </g>
    <g id="ytick_3">
     <g id="line2d_7">
      <g>
       <use style="stroke:#000000;stroke-width:0.8;" x="76.865589" xlink:href="#m81bea144a4" y="140.712356"/>
      </g>
     </g>
     <g id="text_8">
      <!-- $\mathdefault{10^{0}}$ -->
      <g transform="translate(48.678546 146.24715)scale(0.16 -0.16)">
       <use transform="scale(0.996264)" xlink:href="#CMR17-49"/>
       <use transform="translate(45.690477 0)scale(0.996264)" xlink:href="#CMR17-48"/>
       <use transform="translate(91.380954 36.153639)scale(0.697382)" xlink:href="#CMR17-48"/>
      </g>
     </g>
    </g>
    <g id="ytick_4">
     <g id="line2d_8">
      <g>
       <use style="stroke:#000000;stroke-width:0.8;" x="76.865589" xlink:href="#m81bea144a4" y="92.68063"/>
      </g>
     </g>
     <g id="text_9">
      <!-- $\mathdefault{10^{1}}$ -->
      <g transform="translate(48.678546 98.215425)scale(0.16 -0.16)">
       <use transform="scale(0.996264)" xlink:href="#CMR17-49"/>
       <use transform="translate(45.690477 0)scale(0.996264)" xlink:href="#CMR17-48"/>
       <use transform="translate(91.380954 36.153639)scale(0.697382)" xlink:href="#CMR17-49"/>
      </g>
     </g>
    </g>
    <g id="ytick_5">
     <g id="line2d_9">
      <defs>
       <path d="M 0 0 
L -2 0 
" id="m7b437c4686" style="stroke:#000000;stroke-width:0.6;"/>
      </defs>
      <g>
       <use style="stroke:#000000;stroke-width:0.6;" x="76.865589" xlink:href="#m7b437c4686" y="270.348543"/>
      </g>
     </g>
    </g>
    <g id="ytick_6">
     <g id="line2d_10">
      <g>
       <use style="stroke:#000000;stroke-width:0.6;" x="76.865589" xlink:href="#m7b437c4686" y="261.890576"/>
      </g>
     </g>
    </g>
    <g id="ytick_7">
     <g id="line2d_11">
      <g>
       <use style="stroke:#000000;stroke-width:0.6;" x="76.865589" xlink:href="#m7b437c4686" y="255.889553"/>
      </g>
     </g>
    </g>
    <g id="ytick_8">
     <g id="line2d_12">
      <g>
       <use style="stroke:#000000;stroke-width:0.6;" x="76.865589" xlink:href="#m7b437c4686" y="251.234798"/>
      </g>
     </g>
    </g>
    <g id="ytick_9">
     <g id="line2d_13">
      <g>
       <use style="stroke:#000000;stroke-width:0.6;" x="76.865589" xlink:href="#m7b437c4686" y="247.431586"/>
      </g>
     </g>
    </g>
    <g id="ytick_10">
     <g id="line2d_14">
      <g>
       <use style="stroke:#000000;stroke-width:0.6;" x="76.865589" xlink:href="#m7b437c4686" y="244.216016"/>
      </g>
     </g>
    </g>
    <g id="ytick_11">
     <g id="line2d_15">
      <g>
       <use style="stroke:#000000;stroke-width:0.6;" x="76.865589" xlink:href="#m7b437c4686" y="241.430563"/>
      </g>
     </g>
    </g>
    <g id="ytick_12">
     <g id="line2d_16">
      <g>
       <use style="stroke:#000000;stroke-width:0.6;" x="76.865589" xlink:href="#m7b437c4686" y="238.973619"/>
      </g>
     </g>
    </g>
    <g id="ytick_13">
     <g id="line2d_17">
      <g>
       <use style="stroke:#000000;stroke-width:0.6;" x="76.865589" xlink:href="#m7b437c4686" y="222.316817"/>
      </g>
     </g>
    </g>
    <g id="ytick_14">
     <g id="line2d_18">
      <g>
       <use style="stroke:#000000;stroke-width:0.6;" x="76.865589" xlink:href="#m7b437c4686" y="213.85885"/>
      </g>
     </g>
    </g>
    <g id="ytick_15">
     <g id="line2d_19">
      <g>
       <use style="stroke:#000000;stroke-width:0.6;" x="76.865589" xlink:href="#m7b437c4686" y="207.857827"/>
      </g>
     </g>
    </g>
    <g id="ytick_16">
     <g id="line2d_20">
      <g>
       <use style="stroke:#000000;stroke-width:0.6;" x="76.865589" xlink:href="#m7b437c4686" y="203.203072"/>
      </g>
     </g>
    </g>
    <g id="ytick_17">
     <g id="line2d_21">
      <g>
       <use style="stroke:#000000;stroke-width:0.6;" x="76.865589" xlink:href="#m7b437c4686" y="199.39986"/>
      </g>
     </g>
    </g>
    <g id="ytick_18">
     <g id="line2d_22">
      <g>
       <use style="stroke:#000000;stroke-width:0.6;" x="76.865589" xlink:href="#m7b437c4686" y="196.18429"/>
      </g>
     </g>
    </g>
    <g id="ytick_19">
     <g id="line2d_23">
      <g>
       <use style="stroke:#000000;stroke-width:0.6;" x="76.865589" xlink:href="#m7b437c4686" y="193.398837"/>
      </g>
     </g>
    </g>
    <g id="ytick_20">
     <g id="line2d_24">
      <g>
       <use style="stroke:#000000;stroke-width:0.6;" x="76.865589" xlink:href="#m7b437c4686" y="190.941893"/>
      </g>
     </g>
    </g>
    <g id="ytick_21">
     <g id="line2d_25">
      <g>
       <use style="stroke:#000000;stroke-width:0.6;" x="76.865589" xlink:href="#m7b437c4686" y="174.285092"/>
      </g>
     </g>
    </g>
    <g id="ytick_22">
     <g id="line2d_26">
      <g>
       <use style="stroke:#000000;stroke-width:0.6;" x="76.865589" xlink:href="#m7b437c4686" y="165.827125"/>
      </g>
     </g>
    </g>
    <g id="ytick_23">
     <g id="line2d_27">
      <g>
       <use style="stroke:#000000;stroke-width:0.6;" x="76.865589" xlink:href="#m7b437c4686" y="159.826101"/>
      </g>
     </g>
    </g>
    <g id="ytick_24">
     <g id="line2d_28">
      <g>
       <use style="stroke:#000000;stroke-width:0.6;" x="76.865589" xlink:href="#m7b437c4686" y="155.171346"/>
      </g>
     </g>
    </g>
    <g id="ytick_25">
     <g id="line2d_29">
      <g>
       <use style="stroke:#000000;stroke-width:0.6;" x="76.865589" xlink:href="#m7b437c4686" y="151.368134"/>
      </g>
     </g>
    </g>
    <g id="ytick_26">
     <g id="line2d_30">
      <g>
       <use style="stroke:#000000;stroke-width:0.6;" x="76.865589" xlink:href="#m7b437c4686" y="148.152565"/>
      </g>
     </g>
    </g>
    <g id="ytick_27">
     <g id="line2d_31">
      <g>
       <use style="stroke:#000000;stroke-width:0.6;" x="76.865589" xlink:href="#m7b437c4686" y="145.367111"/>
      </g>
     </g>
    </g>
    <g id="ytick_28">
     <g id="line2d_32">
      <g>
       <use style="stroke:#000000;stroke-width:0.6;" x="76.865589" xlink:href="#m7b437c4686" y="142.910167"/>
      </g>
     </g>
    </g>
    <g id="ytick_29">
     <g id="line2d_33">
      <g>
       <use style="stroke:#000000;stroke-width:0.6;" x="76.865589" xlink:href="#m7b437c4686" y="126.253366"/>
      </g>
     </g>
    </g>
    <g id="ytick_30">
     <g id="line2d_34">
      <g>
       <use style="stroke:#000000;stroke-width:0.6;" x="76.865589" xlink:href="#m7b437c4686" y="117.795399"/>
      </g>
     </g>
    </g>
    <g id="ytick_31">
     <g id="line2d_35">
      <g>
       <use style="stroke:#000000;stroke-width:0.6;" x="76.865589" xlink:href="#m7b437c4686" y="111.794376"/>
      </g>
     </g>
    </g>
    <g id="ytick_32">
     <g id="line2d_36">
      <g>
       <use style="stroke:#000000;stroke-width:0.6;" x="76.865589" xlink:href="#m7b437c4686" y="107.139621"/>
      </g>
     </g>
    </g>
    <g id="ytick_33">
     <g id="line2d_37">
      <g>
       <use style="stroke:#000000;stroke-width:0.6;" x="76.865589" xlink:href="#m7b437c4686" y="103.336409"/>
      </g>
     </g>
    </g>
    <g id="ytick_34">
     <g id="line2d_38">
      <g>
       <use style="stroke:#000000;stroke-width:0.6;" x="76.865589" xlink:href="#m7b437c4686" y="100.120839"/>
      </g>
     </g>
    </g>
    <g id="ytick_35">
     <g id="line2d_39">
      <g>
       <use style="stroke:#000000;stroke-width:0.6;" x="76.865589" xlink:href="#m7b437c4686" y="97.335386"/>
      </g>
     </g>
    </g>
    <g id="ytick_36">
     <g id="line2d_40">
      <g>
       <use style="stroke:#000000;stroke-width:0.6;" x="76.865589" xlink:href="#m7b437c4686" y="94.878442"/>
      </g>
     </g>
    </g>
    <g id="ytick_37">
     <g id="line2d_41">
      <g>
       <use style="stroke:#000000;stroke-width:0.6;" x="76.865589" xlink:href="#m7b437c4686" y="78.22164"/>
      </g>
     </g>
    </g>
    <g id="ytick_38">
     <g id="line2d_42">
      <g>
       <use style="stroke:#000000;stroke-width:0.6;" x="76.865589" xlink:href="#m7b437c4686" y="69.763673"/>
      </g>
     </g>
    </g>
   </g>
   <g id="LineCollection_1">
    <path clip-path="url(#p7b2911bcaf)" d="M 89.056394 73.482759 
L 89.056394 73.441433 
" style="fill:none;stroke:#ff0000;stroke-width:2;"/>
    <path clip-path="url(#p7b2911bcaf)" d="M 92.926491 107.973439 
L 92.926491 107.76996 
" style="fill:none;stroke:#ff0000;stroke-width:2;"/>
    <path clip-path="url(#p7b2911bcaf)" d="M 96.796587 116.026328 
L 96.796587 115.787049 
" style="fill:none;stroke:#ff0000;stroke-width:2;"/>
    <path clip-path="url(#p7b2911bcaf)" d="M 100.666684 122.681918 
L 100.666684 122.453016 
" style="fill:none;stroke:#ff0000;stroke-width:2;"/>
    <path clip-path="url(#p7b2911bcaf)" d="M 104.536781 128.749154 
L 104.536781 128.488004 
" style="fill:none;stroke:#ff0000;stroke-width:2;"/>
    <path clip-path="url(#p7b2911bcaf)" d="M 108.406878 134.731123 
L 108.406878 134.493502 
" style="fill:none;stroke:#ff0000;stroke-width:2;"/>
    <path clip-path="url(#p7b2911bcaf)" d="M 112.276974 140.550249 
L 112.276974 140.284063 
" style="fill:none;stroke:#ff0000;stroke-width:2;"/>
    <path clip-path="url(#p7b2911bcaf)" d="M 116.147071 146.460579 
L 116.147071 146.166813 
" style="fill:none;stroke:#ff0000;stroke-width:2;"/>
    <path clip-path="url(#p7b2911bcaf)" d="M 120.017168 151.984481 
L 120.017168 151.696331 
" style="fill:none;stroke:#ff0000;stroke-width:2;"/>
    <path clip-path="url(#p7b2911bcaf)" d="M 123.887265 157.742741 
L 123.887265 157.42957 
" style="fill:none;stroke:#ff0000;stroke-width:2;"/>
    <path clip-path="url(#p7b2911bcaf)" d="M 127.757362 163.50158 
L 127.757362 163.136355 
" style="fill:none;stroke:#ff0000;stroke-width:2;"/>
    <path clip-path="url(#p7b2911bcaf)" d="M 131.627458 168.895423 
L 131.627458 168.50108 
" style="fill:none;stroke:#ff0000;stroke-width:2;"/>
    <path clip-path="url(#p7b2911bcaf)" d="M 135.497555 174.42133 
L 135.497555 174.029707 
" style="fill:none;stroke:#ff0000;stroke-width:2;"/>
    <path clip-path="url(#p7b2911bcaf)" d="M 139.367652 179.882684 
L 139.367652 179.345045 
" style="fill:none;stroke:#ff0000;stroke-width:2;"/>
    <path clip-path="url(#p7b2911bcaf)" d="M 143.237749 185.327373 
L 143.237749 184.798965 
" style="fill:none;stroke:#ff0000;stroke-width:2;"/>
    <path clip-path="url(#p7b2911bcaf)" d="M 147.107846 191.040503 
L 147.107846 190.372798 
" style="fill:none;stroke:#ff0000;stroke-width:2;"/>
    <path clip-path="url(#p7b2911bcaf)" d="M 150.977942 196.428066 
L 150.977942 195.736006 
" style="fill:none;stroke:#ff0000;stroke-width:2;"/>
    <path clip-path="url(#p7b2911bcaf)" d="M 154.848039 201.550147 
L 154.848039 200.773549 
" style="fill:none;stroke:#ff0000;stroke-width:2;"/>
    <path clip-path="url(#p7b2911bcaf)" d="M 158.718136 207.138452 
L 158.718136 206.313426 
" style="fill:none;stroke:#ff0000;stroke-width:2;"/>
    <path clip-path="url(#p7b2911bcaf)" d="M 162.588233 212.608591 
L 162.588233 211.647347 
" style="fill:none;stroke:#ff0000;stroke-width:2;"/>
    <path clip-path="url(#p7b2911bcaf)" d="M 166.458329 218.122897 
L 166.458329 217.114966 
" style="fill:none;stroke:#ff0000;stroke-width:2;"/>
    <path clip-path="url(#p7b2911bcaf)" d="M 170.328426 223.465628 
L 170.328426 222.48021 
" style="fill:none;stroke:#ff0000;stroke-width:2;"/>
    <path clip-path="url(#p7b2911bcaf)" d="M 174.198523 228.719122 
L 174.198523 227.50509 
" style="fill:none;stroke:#ff0000;stroke-width:2;"/>
    <path clip-path="url(#p7b2911bcaf)" d="M 178.06862 233.80758 
L 178.06862 232.543771 
" style="fill:none;stroke:#ff0000;stroke-width:2;"/>
    <path clip-path="url(#p7b2911bcaf)" d="M 181.938717 238.866262 
L 181.938717 237.687486 
" style="fill:none;stroke:#ff0000;stroke-width:2;"/>
    <path clip-path="url(#p7b2911bcaf)" d="M 185.808813 243.881903 
L 185.808813 242.54179 
" style="fill:none;stroke:#ff0000;stroke-width:2;"/>
    <path clip-path="url(#p7b2911bcaf)" d="M 189.67891 248.516798 
L 189.67891 247.307959 
" style="fill:none;stroke:#ff0000;stroke-width:2;"/>
    <path clip-path="url(#p7b2911bcaf)" d="M 193.549007 252.995474 
L 193.549007 251.426722 
" style="fill:none;stroke:#ff0000;stroke-width:2;"/>
    <path clip-path="url(#p7b2911bcaf)" d="M 197.419104 256.805912 
L 197.419104 255.360591 
" style="fill:none;stroke:#ff0000;stroke-width:2;"/>
    <path clip-path="url(#p7b2911bcaf)" d="M 201.289201 260.001575 
L 201.289201 258.405583 
" style="fill:none;stroke:#ff0000;stroke-width:2;"/>
    <path clip-path="url(#p7b2911bcaf)" d="M 205.159297 262.473678 
L 205.159297 260.832962 
" style="fill:none;stroke:#ff0000;stroke-width:2;"/>
    <path clip-path="url(#p7b2911bcaf)" d="M 209.029394 263.793988 
L 209.029394 262.181933 
" style="fill:none;stroke:#ff0000;stroke-width:2;"/>
    <path clip-path="url(#p7b2911bcaf)" d="M 212.899491 264.045566 
L 212.899491 262.441072 
" style="fill:none;stroke:#ff0000;stroke-width:2;"/>
    <path clip-path="url(#p7b2911bcaf)" d="M 216.769588 262.95278 
L 216.769588 261.30398 
" style="fill:none;stroke:#ff0000;stroke-width:2;"/>
    <path clip-path="url(#p7b2911bcaf)" d="M 220.639684 261.284576 
L 220.639684 259.816215 
" style="fill:none;stroke:#ff0000;stroke-width:2;"/>
    <path clip-path="url(#p7b2911bcaf)" d="M 224.509781 258.324783 
L 224.509781 256.942477 
" style="fill:none;stroke:#ff0000;stroke-width:2;"/>
    <path clip-path="url(#p7b2911bcaf)" d="M 228.379878 254.814387 
L 228.379878 253.428381 
" style="fill:none;stroke:#ff0000;stroke-width:2;"/>
    <path clip-path="url(#p7b2911bcaf)" d="M 232.249975 250.733355 
L 232.249975 249.457062 
" style="fill:none;stroke:#ff0000;stroke-width:2;"/>
    <path clip-path="url(#p7b2911bcaf)" d="M 236.120072 246.122904 
L 236.120072 245.054055 
" style="fill:none;stroke:#ff0000;stroke-width:2;"/>
    <path clip-path="url(#p7b2911bcaf)" d="M 239.990168 241.607995 
L 239.990168 240.580373 
" style="fill:none;stroke:#ff0000;stroke-width:2;"/>
    <path clip-path="url(#p7b2911bcaf)" d="M 243.860265 236.5563 
L 243.860265 235.493846 
" style="fill:none;stroke:#ff0000;stroke-width:2;"/>
    <path clip-path="url(#p7b2911bcaf)" d="M 247.730362 231.612792 
L 247.730362 230.772847 
" style="fill:none;stroke:#ff0000;stroke-width:2;"/>
    <path clip-path="url(#p7b2911bcaf)" d="M 251.600459 226.552374 
L 251.600459 225.732687 
" style="fill:none;stroke:#ff0000;stroke-width:2;"/>
    <path clip-path="url(#p7b2911bcaf)" d="M 255.470555 221.342211 
L 255.470555 220.575369 
" style="fill:none;stroke:#ff0000;stroke-width:2;"/>
    <path clip-path="url(#p7b2911bcaf)" d="M 259.340652 216.369491 
L 259.340652 215.686176 
" style="fill:none;stroke:#ff0000;stroke-width:2;"/>
    <path clip-path="url(#p7b2911bcaf)" d="M 263.210749 211.116811 
L 263.210749 210.435453 
" style="fill:none;stroke:#ff0000;stroke-width:2;"/>
    <path clip-path="url(#p7b2911bcaf)" d="M 267.080846 205.92992 
L 267.080846 205.301851 
" style="fill:none;stroke:#ff0000;stroke-width:2;"/>
    <path clip-path="url(#p7b2911bcaf)" d="M 270.950943 200.484993 
L 270.950943 199.910572 
" style="fill:none;stroke:#ff0000;stroke-width:2;"/>
    <path clip-path="url(#p7b2911bcaf)" d="M 274.821039 195.207154 
L 274.821039 194.700391 
" style="fill:none;stroke:#ff0000;stroke-width:2;"/>
    <path clip-path="url(#p7b2911bcaf)" d="M 278.691136 190.173859 
L 278.691136 189.677703 
" style="fill:none;stroke:#ff0000;stroke-width:2;"/>
    <path clip-path="url(#p7b2911bcaf)" d="M 282.561233 184.852839 
L 282.561233 184.38446 
" style="fill:none;stroke:#ff0000;stroke-width:2;"/>
    <path clip-path="url(#p7b2911bcaf)" d="M 286.43133 179.518604 
L 286.43133 179.105211 
" style="fill:none;stroke:#ff0000;stroke-width:2;"/>
    <path clip-path="url(#p7b2911bcaf)" d="M 290.301427 174.06491 
L 290.301427 173.688471 
" style="fill:none;stroke:#ff0000;stroke-width:2;"/>
    <path clip-path="url(#p7b2911bcaf)" d="M 294.171523 168.992428 
L 294.171523 168.619125 
" style="fill:none;stroke:#ff0000;stroke-width:2;"/>
    <path clip-path="url(#p7b2911bcaf)" d="M 298.04162 163.510094 
L 298.04162 163.135996 
" style="fill:none;stroke:#ff0000;stroke-width:2;"/>
    <path clip-path="url(#p7b2911bcaf)" d="M 301.911717 157.915408 
L 301.911717 157.568925 
" style="fill:none;stroke:#ff0000;stroke-width:2;"/>
    <path clip-path="url(#p7b2911bcaf)" d="M 305.781814 152.471926 
L 305.781814 152.164029 
" style="fill:none;stroke:#ff0000;stroke-width:2;"/>
    <path clip-path="url(#p7b2911bcaf)" d="M 309.65191 146.743826 
L 309.65191 146.437238 
" style="fill:none;stroke:#ff0000;stroke-width:2;"/>
    <path clip-path="url(#p7b2911bcaf)" d="M 313.522007 141.155577 
L 313.522007 140.854125 
" style="fill:none;stroke:#ff0000;stroke-width:2;"/>
    <path clip-path="url(#p7b2911bcaf)" d="M 317.392104 135.142298 
L 317.392104 134.88872 
" style="fill:none;stroke:#ff0000;stroke-width:2;"/>
    <path clip-path="url(#p7b2911bcaf)" d="M 321.262201 129.323688 
L 321.262201 129.083529 
" style="fill:none;stroke:#ff0000;stroke-width:2;"/>
    <path clip-path="url(#p7b2911bcaf)" d="M 325.132298 122.908348 
L 325.132298 122.634113 
" style="fill:none;stroke:#ff0000;stroke-width:2;"/>
    <path clip-path="url(#p7b2911bcaf)" d="M 329.002394 116.354797 
L 329.002394 116.124057 
" style="fill:none;stroke:#ff0000;stroke-width:2;"/>
    <path clip-path="url(#p7b2911bcaf)" d="M 332.872491 107.976909 
L 332.872491 107.751527 
" style="fill:none;stroke:#ff0000;stroke-width:2;"/>
   </g>
   <g id="line2d_43">
    <path clip-path="url(#p7b2911bcaf)" d="M 89.056394 73.462086 
L 92.926491 107.871452 
L 96.796587 115.906346 
L 100.666684 122.567153 
L 104.536781 128.618171 
L 108.406878 134.611974 
L 112.276974 140.416731 
L 116.147071 146.313179 
L 120.017168 151.839908 
L 123.887265 157.585567 
L 127.757362 163.318168 
L 131.627458 168.69732 
L 135.497555 174.224599 
L 139.367652 179.612132 
L 143.237749 185.061496 
L 147.107846 190.703979 
L 150.977942 196.079166 
L 154.848039 201.158234 
L 158.718136 206.721861 
L 162.588233 212.122433 
L 166.458329 217.612844 
L 170.328426 222.967101 
L 174.198523 228.103275 
L 178.06862 233.166106 
L 181.938717 238.268549 
L 185.808813 243.201087 
L 189.67891 247.903623 
L 193.549007 252.196355 
L 197.419104 256.070736 
L 201.289201 259.188319 
L 205.159297 261.637193 
L 209.029394 262.972392 
L 212.899491 263.227896 
L 216.769588 262.112093 
L 220.639684 260.537478 
L 224.509781 257.622182 
L 228.379878 254.109875 
L 232.249975 250.085449 
L 236.120072 245.581634 
L 239.990168 241.087857 
L 243.860265 236.018309 
L 247.730362 231.188592 
L 251.600459 226.138505 
L 255.470555 220.955267 
L 259.340652 216.025036 
L 263.210749 210.773351 
L 267.080846 205.613522 
L 270.950943 200.195805 
L 274.821039 194.952234 
L 278.691136 189.924306 
L 282.561233 184.617335 
L 286.43133 179.310884 
L 290.301427 173.875841 
L 294.171523 168.804941 
L 298.04162 163.322206 
L 301.911717 157.741447 
L 305.781814 152.317409 
L 309.65191 146.589969 
L 313.522007 141.004307 
L 317.392104 135.015124 
L 321.262201 129.203263 
L 325.132298 122.77078 
L 329.002394 116.239108 
L 332.872491 107.863914 
" style="fill:none;stroke:#000000;stroke-linecap:square;stroke-width:2;"/>
   </g>
   <g id="patch_3">
    <path d="M 76.865589 273.575773 
L 76.865589 63.911226 
" style="fill:none;stroke:#000000;stroke-linecap:square;stroke-linejoin:miter;stroke-width:0.8;"/>
   </g>
   <g id="patch_4">
    <path d="M 345.063296 273.575773 
L 345.063296 63.911226 
" style="fill:none;stroke:#000000;stroke-linecap:square;stroke-linejoin:miter;stroke-width:0.8;"/>
   </g>
   <g id="patch_5">
    <path d="M 76.865589 273.575773 
L 345.063296 273.575773 
" style="fill:none;stroke:#000000;stroke-linecap:square;stroke-linejoin:miter;stroke-width:0.8;"/>
   </g>
   <g id="patch_6">
    <path d="M 76.865589 63.911226 
L 345.063296 63.911226 
" style="fill:none;stroke:#000000;stroke-linecap:square;stroke-linejoin:miter;stroke-width:0.8;"/>
   </g>
   <g id="text_10">
    <!-- $C(t)$ -->
    <g transform="translate(189.036289 57.911226)scale(0.24 -0.24)">
     <defs>
      <path d="M 74.703125 69.109375 
C 74.703125 70 74 70 73.796875 70 
C 73.59375 70 73.203125 70 72.40625 69 
L 65.5 60.65625 
C 62 66.625 56.5 70 49 70 
C 27.40625 70 5 48.25 5 24.921875 
C 5 8.328125 16.703125 -2 31.296875 -2 
C 39.296875 -2 46.296875 1.375 52.09375 6.25 
C 60.796875 13.484375 63.40625 23.140625 63.40625 23.921875 
C 63.40625 24.8125 62.59375 24.8125 62.296875 24.8125 
C 61.40625 24.8125 61.296875 24.21875 61.09375 23.8125 
C 56.5 8.34375 43 0.890625 33 0.890625 
C 22.40625 0.890625 13.203125 7.640625 13.203125 21.734375 
C 13.203125 24.921875 14.203125 42.1875 25.5 55.1875 
C 31 61.546875 40.40625 67.109375 49.90625 67.109375 
C 60.90625 67.109375 65.796875 58.078125 65.796875 47.9375 
C 65.796875 45.359375 65.5 43.1875 65.5 42.78125 
C 65.5 41.890625 66.5 41.890625 66.796875 41.890625 
C 67.90625 41.890625 68 41.984375 68.40625 43.765625 
z
" id="CMMI12-67"/>
      <path d="M 30.59375 -24.390625 
C 30.59375 -24.296875 30.59375 -24.09375 30.296875 -23.796875 
C 25.703125 -19.125 13.40625 -6.359375 13.40625 24.703125 
C 13.40625 55.765625 25.5 68.421875 30.40625 73.390625 
C 30.40625 73.5 30.59375 73.703125 30.59375 74 
C 30.59375 74.296875 30.296875 74.5 29.90625 74.5 
C 28.796875 74.5 20.296875 67.125 15.40625 56.15625 
C 10.40625 45.109375 9 34.359375 9 24.8125 
C 9 17.625 9.703125 5.484375 15.703125 -7.359375 
C 20.5 -17.734375 28.703125 -25 29.90625 -25 
C 30.40625 -25 30.59375 -24.796875 30.59375 -24.390625 
z
" id="CMR17-40"/>
      <path d="M 26.296875 24.703125 
C 26.296875 31.875 25.59375 44.015625 19.59375 56.859375 
C 14.796875 67.234375 6.59375 74.5 5.40625 74.5 
C 5.09375 74.5 4.703125 74.390625 4.703125 73.890625 
C 4.703125 73.703125 4.796875 73.59375 4.90625 73.390625 
C 9.703125 68.40625 21.90625 55.75 21.90625 24.75 
C 21.90625 -6.359375 9.796875 -19.015625 4.90625 -24.015625 
C 4.796875 -24.203125 4.703125 -24.3125 4.703125 -24.5 
C 4.703125 -25 5.09375 -25 5.40625 -25 
C 6.5 -25 15 -17.625 19.90625 -6.65625 
C 24.90625 4.390625 26.296875 15.140625 26.296875 24.703125 
z
" id="CMR17-41"/>
     </defs>
     <use transform="scale(0.996264)" xlink:href="#CMMI12-67"/>
     <use transform="translate(76.946847 0)scale(0.996264)" xlink:href="#CMR17-40"/>
     <use transform="translate(112.227614 0)scale(0.996264)" xlink:href="#CMMI12-116"/>
     <use transform="translate(147.453945 0)scale(0.996264)" xlink:href="#CMR17-41"/>
    </g>
   </g>
  </g>
  <g id="axes_2">
   <g id="patch_7">
    <path d="M 407.614792 273.575773 
L 675.8125 273.575773 
L 675.8125 63.911226 
L 407.614792 63.911226 
z
" style="fill:#ffffff;"/>
   </g>
   <g id="matplotlib.axis_3">
    <g id="xtick_5">
     <g id="line2d_44">
      <g>
       <use style="stroke:#000000;stroke-width:0.8;" x="492.047404" xlink:href="#mb5ca285532" y="273.575773"/>
      </g>
     </g>
     <g id="text_11">
      <!-- $\mathdefault{10}$ -->
      <g transform="translate(484.243417 291.645361)scale(0.16 -0.16)">
       <use transform="scale(0.996264)" xlink:href="#CMR17-49"/>
       <use transform="translate(45.690477 0)scale(0.996264)" xlink:href="#CMR17-48"/>
      </g>
     </g>
    </g>
    <g id="xtick_6">
     <g id="line2d_45">
      <g>
       <use style="stroke:#000000;stroke-width:0.8;" x="582.349662" xlink:href="#mb5ca285532" y="273.575773"/>
      </g>
     </g>
     <g id="text_12">
      <!-- $\mathdefault{20}$ -->
      <g transform="translate(574.545675 291.645361)scale(0.16 -0.16)">
       <use transform="scale(0.996264)" xlink:href="#CMR17-50"/>
       <use transform="translate(45.690477 0)scale(0.996264)" xlink:href="#CMR17-48"/>
      </g>
     </g>
    </g>
    <g id="xtick_7">
     <g id="line2d_46">
      <g>
       <use style="stroke:#000000;stroke-width:0.8;" x="672.651921" xlink:href="#mb5ca285532" y="273.575773"/>
      </g>
     </g>
     <g id="text_13">
      <!-- $\mathdefault{30}$ -->
      <g transform="translate(664.847934 291.645361)scale(0.16 -0.16)">
       <defs>
        <path d="M 22.09375 33.703125 
C 31 33.703125 34.90625 25.96875 34.90625 17.03125 
C 34.90625 5 28.5 0.390625 22.703125 0.390625 
C 17.40625 0.390625 8.796875 3.03125 6.09375 10.828125 
C 6.59375 10.625 7.09375 10.625 7.59375 10.625 
C 10 10.625 11.796875 12.21875 11.796875 14.8125 
C 11.796875 17.703125 9.59375 19 7.59375 19 
C 5.90625 19 3.296875 18.203125 3.296875 14.46875 
C 3.296875 5.234375 12.296875 -2 22.90625 -2 
C 34 -2 42.5 6.71875 42.5 16.953125 
C 42.5 26.671875 34.5 33.703125 25 34.796875 
C 32.59375 36.375 39.90625 43.0625 39.90625 52.015625 
C 39.90625 59.6875 32 65.296875 23 65.296875 
C 13.90625 65.296875 5.90625 59.828125 5.90625 52.015625 
C 5.90625 48.59375 8.5 48 9.796875 48 
C 11.90625 48 13.703125 49.296875 13.703125 51.890625 
C 13.703125 54.46875 11.90625 55.765625 9.796875 55.765625 
C 9.40625 55.765625 8.90625 55.765625 8.5 55.578125 
C 11.40625 61.859375 19.296875 63 22.796875 63 
C 26.296875 63 32.90625 61.328125 32.90625 51.875 
C 32.90625 49.109375 32.5 44.1875 29.09375 39.84375 
C 26.09375 36 22.703125 36 19.40625 35.6875 
C 18.90625 35.6875 16.59375 35.453125 16.203125 35.453125 
C 15.5 35.359375 15.09375 35.265625 15.09375 34.5 
C 15.09375 33.796875 15.203125 33.703125 17.203125 33.703125 
z
" id="CMR17-51"/>
       </defs>
       <use transform="scale(0.996264)" xlink:href="#CMR17-51"/>
       <use transform="translate(45.690477 0)scale(0.996264)" xlink:href="#CMR17-48"/>
      </g>
     </g>
    </g>
    <g id="text_14">
     <!-- $t$ -->
     <g transform="translate(537.486486 315.349243)scale(0.24 -0.24)">
      <use transform="scale(0.996264)" xlink:href="#CMMI12-116"/>
     </g>
    </g>
   </g>
   <g id="matplotlib.axis_4">
    <g id="ytick_39">
     <g id="line2d_47">
      <g>
       <use style="stroke:#000000;stroke-width:0.8;" x="407.614792" xlink:href="#m81bea144a4" y="229.200659"/>
      </g>
     </g>
     <g id="text_15">
      <!-- $\mathdefault{0.20}$ -->
      <g transform="translate(372.867283 234.735453)scale(0.16 -0.16)">
       <defs>
        <path d="M 18.40625 4.796875 
C 18.40625 7.6875 16 9.671875 13.59375 9.671875 
C 10.703125 9.671875 8.703125 7.28125 8.703125 4.890625 
C 8.703125 2 11.09375 0 13.5 0 
C 16.40625 0 18.40625 2.390625 18.40625 4.796875 
z
" id="CMMI12-58"/>
       </defs>
       <use transform="scale(0.996264)" xlink:href="#CMR17-48"/>
       <use transform="translate(45.690477 0)scale(0.996264)" xlink:href="#CMMI12-58"/>
       <use transform="translate(72.787654 0)scale(0.996264)" xlink:href="#CMR17-50"/>
       <use transform="translate(118.478131 0)scale(0.996264)" xlink:href="#CMR17-48"/>
      </g>
     </g>
    </g>
    <g id="ytick_40">
     <g id="line2d_48">
      <g>
       <use style="stroke:#000000;stroke-width:0.8;" x="407.614792" xlink:href="#m81bea144a4" y="174.755784"/>
      </g>
     </g>
     <g id="text_16">
      <!-- $\mathdefault{0.25}$ -->
      <g transform="translate(372.867283 180.290578)scale(0.16 -0.16)">
       <defs>
        <path d="M 11.40625 57.6875 
C 12.40625 57.28125 16.5 56 20.703125 56 
C 30 56 35.09375 61.109375 38 64.0625 
C 38 64.953125 38 65.5 37.40625 65.5 
C 37.296875 65.5 37.09375 65.5 36.296875 65.046875 
C 32.796875 63.40625 28.703125 62.078125 23.703125 62.078125 
C 20.703125 62.078125 16.203125 62.484375 11.296875 64.671875 
C 10.203125 65.171875 10 65.171875 9.90625 65.171875 
C 9.40625 65.171875 9.296875 65.0625 9.296875 63.078125 
L 9.296875 34.421875 
C 9.296875 32.640625 9.296875 32.140625 10.296875 32.140625 
C 10.796875 32.140625 11 32.34375 11.5 33.03125 
C 14.703125 37.515625 19.09375 39.40625 24.09375 39.40625 
C 27.59375 39.40625 35.09375 37.21875 35.09375 20.140625 
C 35.09375 16.953125 35.09375 11.171875 32.09375 6.578125 
C 29.59375 2.484375 25.703125 0.390625 21.40625 0.390625 
C 14.796875 0.390625 8.09375 5 6.296875 12.71875 
C 6.703125 12.609375 7.5 12.421875 7.90625 12.421875 
C 9.203125 12.421875 11.703125 13.125 11.703125 16.21875 
C 11.703125 18.90625 9.796875 20 7.90625 20 
C 5.59375 20 4.09375 18.59375 4.09375 15.796875 
C 4.09375 7.09375 11 -2 21.59375 -2 
C 31.90625 -2 41.703125 6.875 41.703125 19.75 
C 41.703125 31.71875 33.90625 41 24.203125 41 
C 19.09375 41 14.796875 39.109375 11.40625 35.53125 
z
" id="CMR17-53"/>
       </defs>
       <use transform="scale(0.996264)" xlink:href="#CMR17-48"/>
       <use transform="translate(45.690477 0)scale(0.996264)" xlink:href="#CMMI12-58"/>
       <use transform="translate(72.787654 0)scale(0.996264)" xlink:href="#CMR17-50"/>
       <use transform="translate(118.478131 0)scale(0.996264)" xlink:href="#CMR17-53"/>
      </g>
     </g>
    </g>
    <g id="ytick_41">
     <g id="line2d_49">
      <g>
       <use style="stroke:#000000;stroke-width:0.8;" x="407.614792" xlink:href="#m81bea144a4" y="120.310909"/>
      </g>
     </g>
     <g id="text_17">
      <!-- $\mathdefault{0.30}$ -->
      <g transform="translate(372.867283 125.845703)scale(0.16 -0.16)">
       <use transform="scale(0.996264)" xlink:href="#CMR17-48"/>
       <use transform="translate(45.690477 0)scale(0.996264)" xlink:href="#CMMI12-58"/>
       <use transform="translate(72.787654 0)scale(0.996264)" xlink:href="#CMR17-51"/>
       <use transform="translate(118.478131 0)scale(0.996264)" xlink:href="#CMR17-48"/>
      </g>
     </g>
    </g>
    <g id="ytick_42">
     <g id="line2d_50">
      <g>
       <use style="stroke:#000000;stroke-width:0.8;" x="407.614792" xlink:href="#m81bea144a4" y="65.866034"/>
      </g>
     </g>
     <g id="text_18">
      <!-- $\mathdefault{0.35}$ -->
      <g transform="translate(372.867283 71.400829)scale(0.16 -0.16)">
       <use transform="scale(0.996264)" xlink:href="#CMR17-48"/>
       <use transform="translate(45.690477 0)scale(0.996264)" xlink:href="#CMMI12-58"/>
       <use transform="translate(72.787654 0)scale(0.996264)" xlink:href="#CMR17-51"/>
       <use transform="translate(118.478131 0)scale(0.996264)" xlink:href="#CMR17-53"/>
      </g>
     </g>
    </g>
   </g>
   <g id="LineCollection_2">
    <path clip-path="url(#pd874a5d9c3)" d="M 419.805597 108.729879 
L 419.805597 96.533302 
" style="fill:none;stroke:#ff0000;stroke-width:2;"/>
    <path clip-path="url(#pd874a5d9c3)" d="M 428.835823 127.784478 
L 428.835823 114.715844 
" style="fill:none;stroke:#ff0000;stroke-width:2;"/>
    <path clip-path="url(#pd874a5d9c3)" d="M 437.866049 145.260953 
L 437.866049 132.324361 
" style="fill:none;stroke:#ff0000;stroke-width:2;"/>
    <path clip-path="url(#pd874a5d9c3)" d="M 446.896275 146.460579 
L 446.896275 131.955994 
" style="fill:none;stroke:#ff0000;stroke-width:2;"/>
    <path clip-path="url(#pd874a5d9c3)" d="M 455.926501 154.849955 
L 455.926501 139.564034 
" style="fill:none;stroke:#ff0000;stroke-width:2;"/>
    <path clip-path="url(#pd874a5d9c3)" d="M 464.956726 161.458164 
L 464.956726 145.119231 
" style="fill:none;stroke:#ff0000;stroke-width:2;"/>
    <path clip-path="url(#pd874a5d9c3)" d="M 473.986952 163.280326 
L 473.986952 147.475382 
" style="fill:none;stroke:#ff0000;stroke-width:2;"/>
    <path clip-path="url(#pd874a5d9c3)" d="M 483.017178 160.806089 
L 483.017178 142.548092 
" style="fill:none;stroke:#ff0000;stroke-width:2;"/>
    <path clip-path="url(#pd874a5d9c3)" d="M 492.047404 173.456702 
L 492.047404 153.486803 
" style="fill:none;stroke:#ff0000;stroke-width:2;"/>
    <path clip-path="url(#pd874a5d9c3)" d="M 501.07763 180.78386 
L 501.07763 159.97711 
" style="fill:none;stroke:#ff0000;stroke-width:2;"/>
    <path clip-path="url(#pd874a5d9c3)" d="M 510.107856 176.466249 
L 510.107856 152.4303 
" style="fill:none;stroke:#ff0000;stroke-width:2;"/>
    <path clip-path="url(#pd874a5d9c3)" d="M 519.138081 178.885001 
L 519.138081 153.557517 
" style="fill:none;stroke:#ff0000;stroke-width:2;"/>
    <path clip-path="url(#pd874a5d9c3)" d="M 528.168307 174.853986 
L 528.168307 147.567782 
" style="fill:none;stroke:#ff0000;stroke-width:2;"/>
    <path clip-path="url(#pd874a5d9c3)" d="M 537.198533 191.328363 
L 537.198533 159.666894 
" style="fill:none;stroke:#ff0000;stroke-width:2;"/>
    <path clip-path="url(#pd874a5d9c3)" d="M 546.228759 195.123566 
L 546.228759 159.200285 
" style="fill:none;stroke:#ff0000;stroke-width:2;"/>
    <path clip-path="url(#pd874a5d9c3)" d="M 555.258985 178.55617 
L 555.258985 141.399768 
" style="fill:none;stroke:#ff0000;stroke-width:2;"/>
    <path clip-path="url(#pd874a5d9c3)" d="M 564.289211 193.454989 
L 564.289211 148.0312 
" style="fill:none;stroke:#ff0000;stroke-width:2;"/>
    <path clip-path="url(#pd874a5d9c3)" d="M 573.319436 187.925209 
L 573.319436 143.161843 
" style="fill:none;stroke:#ff0000;stroke-width:2;"/>
    <path clip-path="url(#pd874a5d9c3)" d="M 582.349662 199.865714 
L 582.349662 154.10423 
" style="fill:none;stroke:#ff0000;stroke-width:2;"/>
    <path clip-path="url(#pd874a5d9c3)" d="M 591.379888 198.773753 
L 591.379888 149.487152 
" style="fill:none;stroke:#ff0000;stroke-width:2;"/>
    <path clip-path="url(#pd874a5d9c3)" d="M 600.410114 205.416505 
L 600.410114 149.675873 
" style="fill:none;stroke:#ff0000;stroke-width:2;"/>
    <path clip-path="url(#pd874a5d9c3)" d="M 609.44034 208.292827 
L 609.44034 150.125188 
" style="fill:none;stroke:#ff0000;stroke-width:2;"/>
    <path clip-path="url(#pd874a5d9c3)" d="M 618.470566 202.544555 
L 618.470566 138.88718 
" style="fill:none;stroke:#ff0000;stroke-width:2;"/>
    <path clip-path="url(#pd874a5d9c3)" d="M 627.500791 218.118578 
L 627.500791 150.422596 
" style="fill:none;stroke:#ff0000;stroke-width:2;"/>
    <path clip-path="url(#pd874a5d9c3)" d="M 636.531017 221.798496 
L 636.531017 138.226367 
" style="fill:none;stroke:#ff0000;stroke-width:2;"/>
    <path clip-path="url(#pd874a5d9c3)" d="M 645.561243 233.89603 
L 645.561243 133.459178 
" style="fill:none;stroke:#ff0000;stroke-width:2;"/>
    <path clip-path="url(#pd874a5d9c3)" d="M 654.591469 249.370163 
L 654.591469 127.918334 
" style="fill:none;stroke:#ff0000;stroke-width:2;"/>
    <path clip-path="url(#pd874a5d9c3)" d="M 663.621695 264.045566 
L 663.621695 73.441433 
" style="fill:none;stroke:#ff0000;stroke-width:2;"/>
   </g>
   <g id="line2d_51">
    <path clip-path="url(#pd874a5d9c3)" d="M 419.805597 102.631591 
L 428.835823 121.250161 
L 437.866049 138.792657 
L 446.896275 139.208286 
L 455.926501 147.206995 
L 464.956726 153.288698 
L 473.986952 155.377854 
L 483.017178 151.67709 
L 492.047404 163.471753 
L 501.07763 170.380485 
L 510.107856 164.448275 
L 519.138081 166.221259 
L 528.168307 161.210884 
L 537.198533 175.497628 
L 546.228759 177.161926 
L 555.258985 159.977969 
L 564.289211 170.743095 
L 573.319436 165.543526 
L 582.349662 176.984972 
L 591.379888 174.130453 
L 600.410114 177.546189 
L 609.44034 179.209008 
L 618.470566 170.715867 
L 627.500791 184.270587 
L 636.531017 180.012431 
L 645.561243 183.677604 
L 654.591469 188.644249 
L 663.621695 168.7435 
" style="fill:none;stroke:#000000;stroke-linecap:square;stroke-width:2;"/>
   </g>
   <g id="patch_8">
    <path d="M 407.614792 273.575773 
L 407.614792 63.911226 
" style="fill:none;stroke:#000000;stroke-linecap:square;stroke-linejoin:miter;stroke-width:0.8;"/>
   </g>
   <g id="patch_9">
    <path d="M 675.8125 273.575773 
L 675.8125 63.911226 
" style="fill:none;stroke:#000000;stroke-linecap:square;stroke-linejoin:miter;stroke-width:0.8;"/>
   </g>
   <g id="patch_10">
    <path d="M 407.614792 273.575773 
L 675.8125 273.575773 
" style="fill:none;stroke:#000000;stroke-linecap:square;stroke-linejoin:miter;stroke-width:0.8;"/>
   </g>
   <g id="patch_11">
    <path d="M 407.614792 63.911226 
L 675.8125 63.911226 
" style="fill:none;stroke:#000000;stroke-linecap:square;stroke-linejoin:miter;stroke-width:0.8;"/>
   </g>
   <g id="text_19">
    <!-- cosh effective mass -->
    <g transform="translate(452.029613 57.911226)scale(0.24 -0.24)">
     <defs>
      <path d="M 34.90625 35 
C 33 35 30.203125 35 30.203125 31.515625 
C 30.203125 28.71875 32.5 27.921875 33.796875 27.921875 
C 34.5 27.921875 37.40625 28.234375 37.40625 31.625 
C 37.40625 38.546875 30.59375 43.796875 22.90625 43.796875 
C 12.296875 43.796875 3.296875 34.03125 3.296875 21.296875 
C 3.296875 8.0625 12.703125 -1 22.90625 -1 
C 35.296875 -1 38.40625 10.578125 38.40625 11.6875 
C 38.40625 12.09375 38.296875 12.390625 37.59375 12.390625 
C 36.90625 12.390625 36.796875 12.296875 36.40625 10.984375 
C 33.796875 2.8125 28.09375 0.796875 23.796875 0.796875 
C 17.40625 0.796875 9.703125 6.671875 9.703125 21.390625 
C 9.703125 36.53125 17.09375 42 23 42 
C 26.90625 42 32.703125 40.203125 34.90625 35 
z
" id="CMR17-99"/>
      <path d="M 43.09375 21.1875 
C 43.09375 34 33.796875 44 22.90625 44 
C 12 44 2.703125 34 2.703125 21.1875 
C 2.703125 8.609375 12 -1 22.90625 -1 
C 33.796875 -1 43.09375 8.609375 43.09375 21.1875 
z
M 22.90625 0.796875 
C 18.203125 0.796875 14.203125 3.59375 11.90625 7.5 
C 9.40625 11.984375 9.09375 17.59375 9.09375 22 
C 9.09375 26.203125 9.296875 31.40625 11.90625 35.90625 
C 13.90625 39.203125 17.796875 42.40625 22.90625 42.40625 
C 27.40625 42.40625 31.203125 39.90625 33.59375 36.40625 
C 36.703125 31.703125 36.703125 25.109375 36.703125 22 
C 36.703125 18.09375 36.5 12.109375 33.796875 7.296875 
C 31 2.703125 26.703125 0.796875 22.90625 0.796875 
z
" id="CMR17-111"/>
      <path d="M 30.90625 42.140625 
C 30.90625 43.953125 30.796875 44.046875 30.203125 44.046875 
C 29.796875 44.046875 29.703125 43.953125 28.5 42.453125 
C 28.203125 42.046875 27.296875 41.03125 27 40.640625 
C 23.796875 44.046875 19.296875 44.046875 17.59375 44.046875 
C 6.5 44.046875 2.5 38.234375 2.5 32.4375 
C 2.5 23.40625 12.703125 21.328125 15.59375 20.703125 
C 21.90625 19.421875 24.09375 19.015625 26.203125 17.203125 
C 27.5 16.015625 29.703125 13.8125 29.703125 10.21875 
C 29.703125 6 27.296875 0.59375 18.09375 0.59375 
C 9.40625 0.59375 6.296875 7.1875 4.5 15.953125 
C 4.203125 17.34375 4.203125 17.453125 3.40625 17.453125 
C 2.59375 17.453125 2.5 17.34375 2.5 15.359375 
L 2.5 0.984375 
C 2.5 -0.796875 2.59375 -0.90625 3.203125 -0.90625 
C 3.703125 -0.90625 3.796875 -0.796875 4.296875 0 
C 4.90625 0.890625 6.40625 3.296875 7 4.3125 
C 9 1.609375 12.5 -1 18.09375 -1 
C 28 -1 33.296875 4.421875 33.296875 12.25 
C 33.296875 17.375 30.59375 20.078125 29.296875 21.28125 
C 26.296875 24.390625 22.796875 25.09375 18.59375 25.890625 
C 13.09375 27.109375 6.09375 28.515625 6.09375 34.640625 
C 6.09375 37.234375 7.5 42.765625 17.59375 42.765625 
C 28.296875 42.765625 28.90625 32.71875 29.09375 29.5 
C 29.203125 29 29.703125 28.890625 30 28.890625 
C 30.90625 28.890625 30.90625 29.203125 30.90625 30.90625 
z
" id="CMR17-115"/>
      <path d="M 41.5 30.203125 
C 41.5 35.296875 40.5 43.59375 28.703125 43.59375 
C 20.5 43.59375 16.5 37 15.296875 33.703125 
L 15.203125 33.703125 
L 15.203125 68.6875 
L 3.296875 67.59375 
L 3.296875 65 
C 9.203125 65 10.09375 64.40625 10.09375 59.640625 
L 10.09375 6.65625 
C 10.09375 2.875 9.703125 2.390625 3.296875 2.390625 
L 3.296875 -0.203125 
C 5.703125 0 10.09375 0 12.703125 0 
C 15.296875 0 19.796875 0 22.203125 -0.203125 
L 22.203125 2.390625 
C 15.796875 2.390625 15.40625 2.78125 15.40625 6.6875 
L 15.40625 25.90625 
C 15.40625 35.109375 21 42 28 42 
C 35.40625 42 36.203125 35.40625 36.203125 30.59375 
L 36.203125 6.6875 
C 36.203125 2.875 35.796875 2.390625 29.40625 2.390625 
L 29.40625 -0.203125 
C 31.796875 0 36.203125 0 38.796875 0 
C 41.40625 0 45.90625 0 48.296875 -0.203125 
L 48.296875 2.390625 
C 41.90625 2.390625 41.5 2.78125 41.5 6.6875 
z
" id="CMR17-104"/>
      <path d="M 38.09375 23 
C 38.5 23.40625 38.5 23.609375 38.5 24.625 
C 38.5 34.96875 33.09375 44 21.703125 44 
C 11.09375 44 2.703125 33.890625 2.703125 21.609375 
C 2.703125 8.609375 12.203125 -1 22.796875 -1 
C 34 -1 38.40625 9.484375 38.40625 11.5625 
C 38.40625 12.25 37.796875 12.25 37.59375 12.25 
C 36.90625 12.25 36.796875 12.046875 36.40625 10.875 
C 34.203125 4.140625 28.703125 0.796875 23.5 0.796875 
C 19.203125 0.796875 14.90625 3.171875 12.203125 7.5 
C 9.09375 12.546875 9.09375 18.375 9.09375 23 
z
M 9.203125 24.5 
C 9.90625 39.140625 17.59375 42.40625 21.59375 42.40625 
C 28.40625 42.40625 33 35.890625 33.09375 24.5 
z
" id="CMR17-101"/>
      <path d="M 39.90625 40 
L 51.296875 40 
L 51.296875 42.578125 
L 39.703125 42.578125 
L 39.703125 54.59375 
C 39.703125 62.84375 43.90625 68 48.203125 68 
C 49.5 68 51 67.609375 52 66.90625 
C 51.203125 66.703125 49.09375 66.015625 49.09375 63.546875 
C 49.09375 60.953125 51.09375 60.15625 52.5 60.15625 
C 53.90625 60.15625 55.90625 60.953125 55.90625 63.546875 
C 55.90625 67.3125 52.296875 69.59375 48.296875 69.59375 
C 44.40625 69.59375 41.203125 67.703125 38.703125 65.328125 
C 36.40625 68.59375 32.59375 69.59375 28.703125 69.59375 
C 20.90625 69.59375 9.90625 65.125 9.90625 54.203125 
L 9.90625 42.578125 
L 1.90625 42.578125 
L 1.90625 40 
L 9.90625 40 
L 9.90625 6.671875 
C 9.90625 2.875 9.5 2.390625 3.09375 2.390625 
L 3.09375 -0.203125 
C 5.5 0 9.90625 0 12.40625 0 
C 15 0 19.40625 0 21.796875 -0.203125 
L 21.796875 2.390625 
C 15.40625 2.390625 15 2.78125 15 6.671875 
L 15 40 
L 34.796875 40 
L 34.796875 6.671875 
C 34.796875 2.875 34.40625 2.390625 28 2.390625 
L 28 -0.203125 
C 30.40625 0 35 0 37.59375 0 
C 40.5 0 45.59375 0 48.296875 -0.203125 
L 48.296875 2.390625 
C 41.09375 2.390625 39.90625 2.390625 39.90625 6.859375 
z
M 14.796875 42.578125 
L 14.796875 54.203125 
C 14.796875 63.234375 21.796875 68 28.5 68 
C 30 68 33.90625 67.6875 36.296875 65.421875 
C 34.5 65.421875 32.796875 64.625 32.796875 62.140625 
C 32.796875 59.5625 35.09375 58.859375 35.296875 58.859375 
C 34.796875 57.0625 34.796875 55.09375 34.796875 54.390625 
L 34.796875 42.578125 
z
" id="CMR17-11"/>
      <path d="M 15.09375 40 
L 29.09375 40 
L 29.09375 42.578125 
L 15.09375 42.578125 
L 15.09375 61 
L 13.296875 61 
C 13.09375 50.703125 9.59375 41.6875 1.09375 41.6875 
L 1.09375 40 
L 9.796875 40 
L 9.796875 12.046875 
C 9.796875 10.15625 9.796875 -1 21.40625 -1 
C 27.296875 -1 30.703125 4.78125 30.703125 12.140625 
L 30.703125 17.8125 
L 28.90625 17.8125 
L 28.90625 12.234375 
C 28.90625 5.375 26.203125 0.796875 22 0.796875 
C 19.09375 0.796875 15.09375 2.78125 15.09375 11.84375 
z
" id="CMR17-116"/>
      <path d="M 15.5 61.078125 
C 15.5 63.265625 13.703125 65.15625 11.40625 65.15625 
C 9.203125 65.15625 7.296875 63.375 7.296875 61.078125 
C 7.296875 58.890625 9.09375 57 11.40625 57 
C 13.59375 57 15.5 58.796875 15.5 61.078125 
z
M 3.796875 42.28125 
L 3.796875 39.703125 
C 9.40625 39.703125 10.203125 39.09375 10.203125 34.328125 
L 10.203125 6.671875 
C 10.203125 2.875 9.796875 2.390625 3.40625 2.390625 
L 3.40625 -0.203125 
C 5.796875 0 10.09375 0 12.59375 0 
C 15 0 19.09375 0 21.40625 -0.203125 
L 21.40625 2.390625 
C 15.5 2.390625 15.296875 2.984375 15.296875 6.5625 
L 15.296875 43.375 
z
" id="CMR17-105"/>
      <path d="M 39.09375 33.796875 
C 40 36 41.59375 40 47.40625 40 
L 47.40625 42.59375 
C 45.5 42.59375 43 42.59375 41.09375 42.59375 
C 39 42.59375 35.703125 42.59375 33.703125 42.6875 
L 33.703125 40.09375 
C 36.203125 39.890625 37.59375 38.703125 37.59375 36.109375 
C 37.59375 35.203125 37.59375 35 37 33.609375 
L 26 5.890625 
L 14.09375 35.71875 
C 13.5 37.015625 13.5 37.203125 13.5 37.609375 
C 13.5 40 16.796875 40 18.296875 40 
L 18.296875 42.6875 
C 15.90625 42.59375 11.5 42.59375 9 42.59375 
C 6.296875 42.59375 3.203125 42.59375 1 42.6875 
L 1 40 
C 4.796875 40 6.90625 40 8.09375 36.90625 
L 22.59375 0.6875 
C 23.203125 -0.796875 23.296875 -1 24.203125 -1 
C 25.09375 -1 25.203125 -0.796875 25.796875 0.6875 
z
" id="CMR17-118"/>
      <path d="M 67.59375 30.203125 
C 67.59375 35.1875 66.703125 43.59375 54.796875 43.59375 
C 48 43.59375 43.296875 39 41.5 33.609375 
L 41.40625 33.609375 
C 40.203125 41.8125 34.296875 43.59375 28.703125 43.59375 
C 20.796875 43.59375 16.703125 37.5 15.203125 33.5 
L 15.09375 33.5 
L 15.09375 43.59375 
L 3.296875 42.5 
L 3.296875 39.90625 
C 9.203125 39.90625 10.09375 39.296875 10.09375 34.5 
L 10.09375 6.6875 
C 10.09375 2.875 9.703125 2.390625 3.296875 2.390625 
L 3.296875 -0.203125 
C 5.703125 0 10.09375 0 12.703125 0 
C 15.296875 0 19.796875 0 22.203125 -0.203125 
L 22.203125 2.390625 
C 15.796875 2.390625 15.40625 2.78125 15.40625 6.6875 
L 15.40625 25.90625 
C 15.40625 35.109375 21 42 28 42 
C 35.40625 42 36.203125 35.40625 36.203125 30.59375 
L 36.203125 6.6875 
C 36.203125 2.875 35.796875 2.390625 29.40625 2.390625 
L 29.40625 -0.203125 
C 31.796875 0 36.203125 0 38.796875 0 
C 41.40625 0 45.90625 0 48.296875 -0.203125 
L 48.296875 2.390625 
C 41.90625 2.390625 41.5 2.78125 41.5 6.6875 
L 41.5 25.90625 
C 41.5 35.109375 47.09375 42 54.09375 42 
C 61.5 42 62.296875 35.40625 62.296875 30.59375 
L 62.296875 6.6875 
C 62.296875 2.875 61.90625 2.390625 55.5 2.390625 
L 55.5 -0.203125 
C 57.90625 0 62.296875 0 64.90625 0 
C 67.5 0 72 0 74.40625 -0.203125 
L 74.40625 2.390625 
C 68 2.390625 67.59375 2.78125 67.59375 6.6875 
z
" id="CMR17-109"/>
      <path d="M 36 25.828125 
C 36 32.375 36 35.84375 31.796875 39.734375 
C 28.09375 43 23.796875 44 20.40625 44 
C 12.5 44 6.796875 37.609375 6.796875 30.796875 
C 6.796875 27 9.796875 27 10.40625 27 
C 11.703125 27 14 27.78125 14 30.53125 
C 14 33 12.09375 34.078125 10.40625 34.078125 
C 10 34.078125 9.5 33.96875 9.203125 33.875 
C 11.296875 40.5 16.703125 42.40625 20.203125 42.40625 
C 25.203125 42.40625 30.703125 37.953125 30.703125 29.453125 
L 30.703125 25 
C 24.796875 25 17.703125 24.203125 12.09375 21.203125 
C 5.796875 17.703125 4 12.703125 4 8.90625 
C 4 1.203125 13 -1 18.296875 -1 
C 23.796875 -1 28.90625 2.171875 31.09375 7.984375 
C 31.296875 3.640625 34.09375 -0.28125 38.5 -0.28125 
C 40.59375 -0.28125 45.90625 1.09375 45.90625 8.859375 
L 45.90625 14.375 
L 44.09375 14.375 
L 44.09375 8.78125 
C 44.09375 2.78125 41.40625 2 40.09375 2 
C 36 2 36 7.15625 36 11.53125 
z
M 30.703125 13.59375 
C 30.703125 4.953125 24.5 0.59375 19 0.59375 
C 14 0.59375 10.09375 4.296875 10.09375 8.90625 
C 10.09375 11.890625 11.40625 17.1875 17.203125 20.390625 
C 22 23.09375 27.5 23.5 30.703125 23.5 
z
" id="CMR17-97"/>
     </defs>
     <use transform="scale(0.996264)" xlink:href="#CMR17-99"/>
     <use transform="translate(40.48566 0)scale(0.996264)" xlink:href="#CMR17-111"/>
     <use transform="translate(86.176138 0)scale(0.996264)" xlink:href="#CMR17-115"/>
     <use transform="translate(121.977475 0)scale(0.996264)" xlink:href="#CMR17-104"/>
     <use transform="translate(202.948811 0)scale(0.996264)" xlink:href="#CMR17-101"/>
     <use transform="translate(243.434472 0)scale(0.996264)" xlink:href="#CMR17-11"/>
     <use transform="translate(295.779149 0)scale(0.996264)" xlink:href="#CMR17-101"/>
     <use transform="translate(336.26481 0)scale(0.996264)" xlink:href="#CMR17-99"/>
     <use transform="translate(376.75047 0)scale(0.996264)" xlink:href="#CMR17-116"/>
     <use transform="translate(412.031238 0)scale(0.996264)" xlink:href="#CMR17-105"/>
     <use transform="translate(436.902296 0)scale(0.996264)" xlink:href="#CMR17-118"/>
     <use transform="translate(482.592758 0)scale(0.996264)" xlink:href="#CMR17-101"/>
     <use transform="translate(553.154385 0)scale(0.996264)" xlink:href="#CMR17-109"/>
     <use transform="translate(630.073975 0)scale(0.996264)" xlink:href="#CMR17-97"/>
     <use transform="translate(675.764452 0)scale(0.996264)" xlink:href="#CMR17-115"/>
     <use transform="translate(711.56579 0)scale(0.996264)" xlink:href="#CMR17-115"/>
    </g>
   </g>
  </g>
 </g>
 <defs>
  <clipPath id="p7b2911bcaf">
   <rect height="209.664547" width="268.197707" x="76.865589" y="63.911226"/>
  </clipPath>
  <clipPath id="pd874a5d9c3">
   <rect height="209.664547" width="268.197707" x="407.614792" y="63.911226"/>
  </clipPath>
 </defs>
</svg>
