<?xml version="1.0" encoding="utf-8" standalone="no"?>
<!DOCTYPE svg PUBLIC "-//W3C//DTD SVG 1.1//EN"
  "http://www.w3.org/Graphics/SVG/1.1/DTD/svg11.dtd">
<!-- Created with matplotlib (https://matplotlib.org/) -->
<svg height="360pt" version="1.1" viewBox="0 0 720 360" width="720pt" xmlns="http://www.w3.org/2000/svg" xmlns:xlink="http://www.w3.org/1999/xlink">
 <metadata>
  <rdf:RDF xmlns:cc="http://creativecommons.org/ns#" xmlns:dc="http://purl.org/dc/elements/1.1/" xmlns:rdf="http://www.w3.org/1999/02/22-rdf-syntax-ns#">
   <cc:Work>
    <dc:type rdf:resource="http://purl.org/dc/dcmitype/StillImage"/>
    <dc:date>2022-11-03T15:44:50.868433</dc:date>
    <dc:format>image/svg+xml</dc:format>
    <dc:creator>
     <cc:Agent>
      <dc:title>Matplotlib v3.3.4, https://matplotlib.org/</dc:title>
     </cc:Agent>
    </dc:creator>
   </cc:Work>
  </rdf:RDF>
 </metadata>
 <defs>
  <style type="text/css">*{stroke-linecap:butt;stroke-linejoin:round;}</style>
 </defs>
 <g id="figure_1">
  <g id="patch_1">
   <path d="M 0 360 
L 720 360 
L 720 0 
L 0 0 
z
" style="fill:#ffffff;"/>
  </g>
  <g id="axes_1">
   <g id="patch_2">
    <path d="M 76.865589 273.575773 
L 348.96529 273.575773 
L 348.96529 63.911226 
L 76.865589 63.911226 
z
" style="fill:#ffffff;"/>
   </g>
   <g id="matplotlib.axis_1">
    <g id="xtick_1">
     <g id="line2d_1">
      <defs>
       <path d="M 0 0 
L 0 3.5 
" id="mf51bc18af2" style="stroke:#000000;stroke-width:0.8;"/>
      </defs>
      <g>
       <use style="stroke:#000000;stroke-width:0.8;" x="89.233757" xlink:href="#mf51bc18af2" y="273.575773"/>
      </g>
     </g>
     <g id="text_1">
      <!-- $\mathdefault{0}$ -->
      <g transform="translate(85.331764 291.645361)scale(0.16 -0.16)">
       <defs>
        <path d="M 42 31.640625 
C 42 37.75 41.90625 48.125 37.703125 56.109375 
C 34 63.109375 28.09375 65.59375 22.90625 65.59375 
C 18.09375 65.59375 12 63.40625 8.203125 56.203125 
C 4.203125 48.71875 3.796875 39.4375 3.796875 31.640625 
C 3.796875 25.953125 3.90625 17.28125 7 9.671875 
C 11.296875 -0.609375 19 -2 22.90625 -2 
C 27.5 -2 34.5 -0.109375 38.59375 9.375 
C 41.59375 16.28125 42 24.359375 42 31.640625 
z
M 22.90625 -0.40625 
C 16.5 -0.40625 12.703125 5.078125 11.296875 12.6875 
C 10.203125 18.5625 10.203125 27.15625 10.203125 32.75 
C 10.203125 40.4375 10.203125 46.828125 11.5 52.921875 
C 13.40625 61.390625 19 64 22.90625 64 
C 27 64 32.296875 61.296875 34.203125 53.125 
C 35.5 47.4375 35.59375 40.734375 35.59375 32.75 
C 35.59375 26.25 35.59375 18.265625 34.40625 12.375 
C 32.296875 1.484375 26.40625 -0.40625 22.90625 -0.40625 
z
" id="CMR17-48"/>
       </defs>
       <use transform="scale(0.996264)" xlink:href="#CMR17-48"/>
      </g>
     </g>
    </g>
    <g id="xtick_2">
     <g id="line2d_2">
      <g>
       <use style="stroke:#000000;stroke-width:0.8;" x="167.761809" xlink:href="#mf51bc18af2" y="273.575773"/>
      </g>
     </g>
     <g id="text_2">
      <!-- $\mathdefault{20}$ -->
      <g transform="translate(159.957822 291.645361)scale(0.16 -0.16)">
       <defs>
        <path d="M 41.703125 15.453125 
L 39.90625 15.453125 
C 38.90625 8.375 38.09375 7.171875 37.703125 6.5625 
C 37.203125 5.765625 30 5.765625 28.59375 5.765625 
L 9.40625 5.765625 
C 13 9.671875 20 16.75 28.5 24.953125 
C 34.59375 30.734375 41.703125 37.53125 41.703125 47.421875 
C 41.703125 59.21875 32.296875 66 21.796875 66 
C 10.796875 66 4.09375 56.3125 4.09375 47.34375 
C 4.09375 43.4375 7 42.9375 8.203125 42.9375 
C 9.203125 42.9375 12.203125 43.546875 12.203125 47.03125 
C 12.203125 50.109375 9.59375 51 8.203125 51 
C 7.59375 51 7 50.90625 6.59375 50.703125 
C 8.5 59.21875 14.296875 63.40625 20.40625 63.40625 
C 29.09375 63.40625 34.796875 56.515625 34.796875 47.421875 
C 34.796875 38.734375 29.703125 31.25 24 24.75 
L 4.09375 2.28125 
L 4.09375 0 
L 39.296875 0 
z
" id="CMR17-50"/>
       </defs>
       <use transform="scale(0.996264)" xlink:href="#CMR17-50"/>
       <use transform="translate(45.690477 0)scale(0.996264)" xlink:href="#CMR17-48"/>
      </g>
     </g>
    </g>
    <g id="xtick_3">
     <g id="line2d_3">
      <g>
       <use style="stroke:#000000;stroke-width:0.8;" x="246.289861" xlink:href="#mf51bc18af2" y="273.575773"/>
      </g>
     </g>
     <g id="text_3">
      <!-- $\mathdefault{40}$ -->
      <g transform="translate(238.485874 291.645361)scale(0.16 -0.16)">
       <defs>
        <path d="M 33.59375 64.40625 
C 33.59375 66.5 33.5 66.5 31.703125 66.5 
L 2 19.59375 
L 2 17 
L 27.796875 17 
L 27.796875 7.140625 
C 27.796875 3.5 27.59375 2.5 20.59375 2.5 
L 18.703125 2.5 
L 18.703125 0 
C 21.90625 0 27.296875 0 30.703125 0 
C 34.09375 0 39.5 0 42.703125 0 
L 42.703125 2.5 
L 40.796875 2.5 
C 33.796875 2.5 33.59375 3.5 33.59375 7.140625 
L 33.59375 17 
L 43.796875 17 
L 43.796875 19.59375 
L 33.59375 19.59375 
z
M 28.09375 57.859375 
L 28.09375 19.59375 
L 4 19.59375 
z
" id="CMR17-52"/>
       </defs>
       <use transform="scale(0.996264)" xlink:href="#CMR17-52"/>
       <use transform="translate(45.690477 0)scale(0.996264)" xlink:href="#CMR17-48"/>
      </g>
     </g>
    </g>
    <g id="xtick_4">
     <g id="line2d_4">
      <g>
       <use style="stroke:#000000;stroke-width:0.8;" x="324.817914" xlink:href="#mf51bc18af2" y="273.575773"/>
      </g>
     </g>
     <g id="text_4">
      <!-- $\mathdefault{60}$ -->
      <g transform="translate(317.013927 291.645361)scale(0.16 -0.16)">
       <defs>
        <path d="M 10.59375 34 
C 10.59375 57.65625 21.796875 63 28.296875 63 
C 30.40625 63 35.5 62.640625 37.5 59 
C 35.90625 59 32.90625 59 32.90625 55.515625 
C 32.90625 52.828125 35.09375 51.921875 36.5 51.921875 
C 37.40625 51.921875 40.09375 52.3125 40.09375 55.625 
C 40.09375 61.78125 35.09375 65.296875 28.203125 65.296875 
C 16.296875 65.296875 3.796875 52.96875 3.796875 31 
C 3.796875 3.953125 15.09375 -2 23.09375 -2 
C 32.796875 -2 42 6.671875 42 20.046875 
C 42 32.515625 33.90625 41.59375 23.703125 41.59375 
C 17.59375 41.59375 13.09375 37.609375 10.59375 30.625 
z
M 23.09375 0.390625 
C 10.796875 0.390625 10.796875 18.75 10.796875 22.4375 
C 10.796875 29.625 14.203125 40 23.5 40 
C 25.203125 40 30.09375 40 33.40625 33.125 
C 35.203125 29.21875 35.203125 25.140625 35.203125 20.140625 
C 35.203125 14.75 35.203125 10.78125 33.09375 6.78125 
C 30.90625 2.671875 27.703125 0.390625 23.09375 0.390625 
z
" id="CMR17-54"/>
       </defs>
       <use transform="scale(0.996264)" xlink:href="#CMR17-54"/>
       <use transform="translate(45.690477 0)scale(0.996264)" xlink:href="#CMR17-48"/>
      </g>
     </g>
    </g>
    <g id="text_5">
     <!-- $t$ -->
     <g transform="translate(208.68828 315.349243)scale(0.24 -0.24)">
      <defs>
       <path d="M 20.09375 40.09375 
L 29.296875 40.09375 
C 31.203125 40.09375 32.203125 40.09375 32.203125 41.890625 
C 32.203125 43 31.59375 43 29.59375 43 
L 20.796875 43 
L 24.5 57.6875 
C 24.90625 59.078125 24.90625 59.28125 24.90625 60 
C 24.90625 61.609375 23.59375 62.5 22.296875 62.5 
C 21.5 62.5 19.203125 62.203125 18.40625 58.984375 
L 14.5 43 
L 5.09375 43 
C 3.09375 43 2.203125 43 2.203125 41.09375 
C 2.203125 40.09375 2.90625 40.09375 4.796875 40.09375 
L 13.703125 40.09375 
L 7.09375 13.765625 
C 6.296875 10.28125 6 9.28125 6 7.984375 
C 6 3.296875 9.296875 -1 14.90625 -1 
C 25 -1 30.40625 13.5625 30.40625 14.25 
C 30.40625 14.859375 30 15.15625 29.40625 15.15625 
C 29.203125 15.15625 28.796875 15.15625 28.59375 14.75 
C 28.5 14.65625 28.40625 14.546875 27.703125 12.953125 
C 25.59375 7.984375 21 1 15.203125 1 
C 12.203125 1 12 3.5 12 5.6875 
C 12 5.78125 12 7.6875 12.296875 8.875 
z
" id="CMMI12-116"/>
      </defs>
      <use transform="scale(0.996264)" xlink:href="#CMMI12-116"/>
     </g>
    </g>
   </g>
   <g id="matplotlib.axis_2">
    <g id="ytick_1">
     <g id="line2d_5">
      <defs>
       <path d="M 0 0 
L -3.5 0 
" id="m0843ee7411" style="stroke:#000000;stroke-width:0.8;"/>
      </defs>
      <g>
       <use style="stroke:#000000;stroke-width:0.8;" x="76.865589" xlink:href="#m0843ee7411" y="245.849554"/>
      </g>
     </g>
     <g id="text_6">
      <!-- $\mathdefault{10^{-2}}$ -->
      <g transform="translate(40 251.384348)scale(0.16 -0.16)">
       <defs>
        <path d="M 26.59375 63.40625 
C 26.59375 65.5 26.5 65.5 25.09375 65.5 
C 21.203125 61.1875 15.296875 59.796875 9.703125 59.796875 
C 9.40625 59.796875 8.90625 59.796875 8.796875 59.5 
C 8.703125 59.296875 8.703125 59.09375 8.703125 57 
C 11.796875 57 17 57.59375 21 59.984375 
L 21 7.203125 
C 21 3.6875 20.796875 2.5 12.203125 2.5 
L 9.203125 2.5 
L 9.203125 0 
C 14 0 19 0 23.796875 0 
C 28.59375 0 33.59375 0 38.40625 0 
L 38.40625 2.5 
L 35.40625 2.5 
C 26.796875 2.5 26.59375 3.59375 26.59375 7.15625 
z
" id="CMR17-49"/>
        <path d="M 65.90625 23 
C 67.59375 23 69.40625 23 69.40625 25 
C 69.40625 27 67.59375 27 65.90625 27 
L 11.796875 27 
C 10.09375 27 8.296875 27 8.296875 25 
C 8.296875 23 10.09375 23 11.796875 23 
z
" id="CMSY10-0"/>
       </defs>
       <use transform="scale(0.996264)" xlink:href="#CMR17-49"/>
       <use transform="translate(45.690477 0)scale(0.996264)" xlink:href="#CMR17-48"/>
       <use transform="translate(91.380954 36.153639)scale(0.697382)" xlink:href="#CMSY10-0"/>
       <use transform="translate(145.621947 36.153639)scale(0.697382)" xlink:href="#CMR17-50"/>
      </g>
     </g>
    </g>
    <g id="ytick_2">
     <g id="line2d_6">
      <g>
       <use style="stroke:#000000;stroke-width:0.8;" x="76.865589" xlink:href="#m0843ee7411" y="197.596552"/>
      </g>
     </g>
     <g id="text_7">
      <!-- $\mathdefault{10^{-1}}$ -->
      <g transform="translate(40 203.131346)scale(0.16 -0.16)">
       <use transform="scale(0.996264)" xlink:href="#CMR17-49"/>
       <use transform="translate(45.690477 0)scale(0.996264)" xlink:href="#CMR17-48"/>
       <use transform="translate(91.380954 36.153639)scale(0.697382)" xlink:href="#CMSY10-0"/>
       <use transform="translate(145.621947 36.153639)scale(0.697382)" xlink:href="#CMR17-49"/>
      </g>
     </g>
    </g>
    <g id="ytick_3">
     <g id="line2d_7">
      <g>
       <use style="stroke:#000000;stroke-width:0.8;" x="76.865589" xlink:href="#m0843ee7411" y="149.34355"/>
      </g>
     </g>
     <g id="text_8">
      <!-- $\mathdefault{10^{0}}$ -->
      <g transform="translate(48.678546 154.878345)scale(0.16 -0.16)">
       <use transform="scale(0.996264)" xlink:href="#CMR17-49"/>
       <use transform="translate(45.690477 0)scale(0.996264)" xlink:href="#CMR17-48"/>
       <use transform="translate(91.380954 36.153639)scale(0.697382)" xlink:href="#CMR17-48"/>
      </g>
     </g>
    </g>
    <g id="ytick_4">
     <g id="line2d_8">
      <g>
       <use style="stroke:#000000;stroke-width:0.8;" x="76.865589" xlink:href="#m0843ee7411" y="101.090549"/>
      </g>
     </g>
     <g id="text_9">
      <!-- $\mathdefault{10^{1}}$ -->
      <g transform="translate(48.678546 106.625343)scale(0.16 -0.16)">
       <use transform="scale(0.996264)" xlink:href="#CMR17-49"/>
       <use transform="translate(45.690477 0)scale(0.996264)" xlink:href="#CMR17-48"/>
       <use transform="translate(91.380954 36.153639)scale(0.697382)" xlink:href="#CMR17-49"/>
      </g>
     </g>
    </g>
    <g id="ytick_5">
     <g id="line2d_9">
      <defs>
       <path d="M 0 0 
L -2 0 
" id="m6c43b86c28" style="stroke:#000000;stroke-width:0.6;"/>
      </defs>
      <g>
       <use style="stroke:#000000;stroke-width:0.6;" x="76.865589" xlink:href="#m6c43b86c28" y="271.080023"/>
      </g>
     </g>
    </g>
    <g id="ytick_6">
     <g id="line2d_10">
      <g>
       <use style="stroke:#000000;stroke-width:0.6;" x="76.865589" xlink:href="#m6c43b86c28" y="265.051354"/>
      </g>
     </g>
    </g>
    <g id="ytick_7">
     <g id="line2d_11">
      <g>
       <use style="stroke:#000000;stroke-width:0.6;" x="76.865589" xlink:href="#m6c43b86c28" y="260.375155"/>
      </g>
     </g>
    </g>
    <g id="ytick_8">
     <g id="line2d_12">
      <g>
       <use style="stroke:#000000;stroke-width:0.6;" x="76.865589" xlink:href="#m6c43b86c28" y="256.554422"/>
      </g>
     </g>
    </g>
    <g id="ytick_9">
     <g id="line2d_13">
      <g>
       <use style="stroke:#000000;stroke-width:0.6;" x="76.865589" xlink:href="#m6c43b86c28" y="253.324039"/>
      </g>
     </g>
    </g>
    <g id="ytick_10">
     <g id="line2d_14">
      <g>
       <use style="stroke:#000000;stroke-width:0.6;" x="76.865589" xlink:href="#m6c43b86c28" y="250.525753"/>
      </g>
     </g>
    </g>
    <g id="ytick_11">
     <g id="line2d_15">
      <g>
       <use style="stroke:#000000;stroke-width:0.6;" x="76.865589" xlink:href="#m6c43b86c28" y="248.05749"/>
      </g>
     </g>
    </g>
    <g id="ytick_12">
     <g id="line2d_16">
      <g>
       <use style="stroke:#000000;stroke-width:0.6;" x="76.865589" xlink:href="#m6c43b86c28" y="231.323953"/>
      </g>
     </g>
    </g>
    <g id="ytick_13">
     <g id="line2d_17">
      <g>
       <use style="stroke:#000000;stroke-width:0.6;" x="76.865589" xlink:href="#m6c43b86c28" y="222.827021"/>
      </g>
     </g>
    </g>
    <g id="ytick_14">
     <g id="line2d_18">
      <g>
       <use style="stroke:#000000;stroke-width:0.6;" x="76.865589" xlink:href="#m6c43b86c28" y="216.798352"/>
      </g>
     </g>
    </g>
    <g id="ytick_15">
     <g id="line2d_19">
      <g>
       <use style="stroke:#000000;stroke-width:0.6;" x="76.865589" xlink:href="#m6c43b86c28" y="212.122153"/>
      </g>
     </g>
    </g>
    <g id="ytick_16">
     <g id="line2d_20">
      <g>
       <use style="stroke:#000000;stroke-width:0.6;" x="76.865589" xlink:href="#m6c43b86c28" y="208.30142"/>
      </g>
     </g>
    </g>
    <g id="ytick_17">
     <g id="line2d_21">
      <g>
       <use style="stroke:#000000;stroke-width:0.6;" x="76.865589" xlink:href="#m6c43b86c28" y="205.071037"/>
      </g>
     </g>
    </g>
    <g id="ytick_18">
     <g id="line2d_22">
      <g>
       <use style="stroke:#000000;stroke-width:0.6;" x="76.865589" xlink:href="#m6c43b86c28" y="202.272751"/>
      </g>
     </g>
    </g>
    <g id="ytick_19">
     <g id="line2d_23">
      <g>
       <use style="stroke:#000000;stroke-width:0.6;" x="76.865589" xlink:href="#m6c43b86c28" y="199.804489"/>
      </g>
     </g>
    </g>
    <g id="ytick_20">
     <g id="line2d_24">
      <g>
       <use style="stroke:#000000;stroke-width:0.6;" x="76.865589" xlink:href="#m6c43b86c28" y="183.070951"/>
      </g>
     </g>
    </g>
    <g id="ytick_21">
     <g id="line2d_25">
      <g>
       <use style="stroke:#000000;stroke-width:0.6;" x="76.865589" xlink:href="#m6c43b86c28" y="174.57402"/>
      </g>
     </g>
    </g>
    <g id="ytick_22">
     <g id="line2d_26">
      <g>
       <use style="stroke:#000000;stroke-width:0.6;" x="76.865589" xlink:href="#m6c43b86c28" y="168.54535"/>
      </g>
     </g>
    </g>
    <g id="ytick_23">
     <g id="line2d_27">
      <g>
       <use style="stroke:#000000;stroke-width:0.6;" x="76.865589" xlink:href="#m6c43b86c28" y="163.869151"/>
      </g>
     </g>
    </g>
    <g id="ytick_24">
     <g id="line2d_28">
      <g>
       <use style="stroke:#000000;stroke-width:0.6;" x="76.865589" xlink:href="#m6c43b86c28" y="160.048419"/>
      </g>
     </g>
    </g>
    <g id="ytick_25">
     <g id="line2d_29">
      <g>
       <use style="stroke:#000000;stroke-width:0.6;" x="76.865589" xlink:href="#m6c43b86c28" y="156.818035"/>
      </g>
     </g>
    </g>
    <g id="ytick_26">
     <g id="line2d_30">
      <g>
       <use style="stroke:#000000;stroke-width:0.6;" x="76.865589" xlink:href="#m6c43b86c28" y="154.019749"/>
      </g>
     </g>
    </g>
    <g id="ytick_27">
     <g id="line2d_31">
      <g>
       <use style="stroke:#000000;stroke-width:0.6;" x="76.865589" xlink:href="#m6c43b86c28" y="151.551487"/>
      </g>
     </g>
    </g>
    <g id="ytick_28">
     <g id="line2d_32">
      <g>
       <use style="stroke:#000000;stroke-width:0.6;" x="76.865589" xlink:href="#m6c43b86c28" y="134.817949"/>
      </g>
     </g>
    </g>
    <g id="ytick_29">
     <g id="line2d_33">
      <g>
       <use style="stroke:#000000;stroke-width:0.6;" x="76.865589" xlink:href="#m6c43b86c28" y="126.321018"/>
      </g>
     </g>
    </g>
    <g id="ytick_30">
     <g id="line2d_34">
      <g>
       <use style="stroke:#000000;stroke-width:0.6;" x="76.865589" xlink:href="#m6c43b86c28" y="120.292349"/>
      </g>
     </g>
    </g>
    <g id="ytick_31">
     <g id="line2d_35">
      <g>
       <use style="stroke:#000000;stroke-width:0.6;" x="76.865589" xlink:href="#m6c43b86c28" y="115.616149"/>
      </g>
     </g>
    </g>
    <g id="ytick_32">
     <g id="line2d_36">
      <g>
       <use style="stroke:#000000;stroke-width:0.6;" x="76.865589" xlink:href="#m6c43b86c28" y="111.795417"/>
      </g>
     </g>
    </g>
    <g id="ytick_33">
     <g id="line2d_37">
      <g>
       <use style="stroke:#000000;stroke-width:0.6;" x="76.865589" xlink:href="#m6c43b86c28" y="108.565033"/>
      </g>
     </g>
    </g>
    <g id="ytick_34">
     <g id="line2d_38">
      <g>
       <use style="stroke:#000000;stroke-width:0.6;" x="76.865589" xlink:href="#m6c43b86c28" y="105.766748"/>
      </g>
     </g>
    </g>
    <g id="ytick_35">
     <g id="line2d_39">
      <g>
       <use style="stroke:#000000;stroke-width:0.6;" x="76.865589" xlink:href="#m6c43b86c28" y="103.298485"/>
      </g>
     </g>
    </g>
    <g id="ytick_36">
     <g id="line2d_40">
      <g>
       <use style="stroke:#000000;stroke-width:0.6;" x="76.865589" xlink:href="#m6c43b86c28" y="86.564948"/>
      </g>
     </g>
    </g>
    <g id="ytick_37">
     <g id="line2d_41">
      <g>
       <use style="stroke:#000000;stroke-width:0.6;" x="76.865589" xlink:href="#m6c43b86c28" y="78.068016"/>
      </g>
     </g>
    </g>
    <g id="ytick_38">
     <g id="line2d_42">
      <g>
       <use style="stroke:#000000;stroke-width:0.6;" x="76.865589" xlink:href="#m6c43b86c28" y="72.039347"/>
      </g>
     </g>
    </g>
    <g id="ytick_39">
     <g id="line2d_43">
      <g>
       <use style="stroke:#000000;stroke-width:0.6;" x="76.865589" xlink:href="#m6c43b86c28" y="67.363148"/>
      </g>
     </g>
    </g>
   </g>
   <g id="LineCollection_1">
    <path clip-path="url(#p12e2551819)" d="M 89.233757 73.474252 
L 89.233757 73.441433 
" style="fill:none;stroke:#ff0000;stroke-width:2;"/>
    <path clip-path="url(#p12e2551819)" d="M 93.16016 104.477709 
L 93.16016 104.348641 
" style="fill:none;stroke:#ff0000;stroke-width:2;"/>
    <path clip-path="url(#p12e2551819)" d="M 97.086562 112.531587 
L 97.086562 112.380287 
" style="fill:none;stroke:#ff0000;stroke-width:2;"/>
    <path clip-path="url(#p12e2551819)" d="M 101.012965 119.252105 
L 101.012965 119.096509 
" style="fill:none;stroke:#ff0000;stroke-width:2;"/>
    <path clip-path="url(#p12e2551819)" d="M 104.939368 125.550413 
L 104.939368 125.375546 
" style="fill:none;stroke:#ff0000;stroke-width:2;"/>
    <path clip-path="url(#p12e2551819)" d="M 108.86577 131.755944 
L 108.86577 131.599401 
" style="fill:none;stroke:#ff0000;stroke-width:2;"/>
    <path clip-path="url(#p12e2551819)" d="M 112.792173 137.842011 
L 112.792173 137.67814 
" style="fill:none;stroke:#ff0000;stroke-width:2;"/>
    <path clip-path="url(#p12e2551819)" d="M 116.718575 143.740694 
L 116.718575 143.538754 
" style="fill:none;stroke:#ff0000;stroke-width:2;"/>
    <path clip-path="url(#p12e2551819)" d="M 120.644978 149.620396 
L 120.644978 149.404652 
" style="fill:none;stroke:#ff0000;stroke-width:2;"/>
    <path clip-path="url(#p12e2551819)" d="M 124.571381 155.282893 
L 124.571381 155.051628 
" style="fill:none;stroke:#ff0000;stroke-width:2;"/>
    <path clip-path="url(#p12e2551819)" d="M 128.497783 161.200833 
L 128.497783 160.96645 
" style="fill:none;stroke:#ff0000;stroke-width:2;"/>
    <path clip-path="url(#p12e2551819)" d="M 132.424186 166.840815 
L 132.424186 166.596496 
" style="fill:none;stroke:#ff0000;stroke-width:2;"/>
    <path clip-path="url(#p12e2551819)" d="M 136.350588 172.571123 
L 136.350588 172.249458 
" style="fill:none;stroke:#ff0000;stroke-width:2;"/>
    <path clip-path="url(#p12e2551819)" d="M 140.276991 178.116749 
L 140.276991 177.729526 
" style="fill:none;stroke:#ff0000;stroke-width:2;"/>
    <path clip-path="url(#p12e2551819)" d="M 144.203394 183.578566 
L 144.203394 183.17927 
" style="fill:none;stroke:#ff0000;stroke-width:2;"/>
    <path clip-path="url(#p12e2551819)" d="M 148.129796 189.373883 
L 148.129796 188.890155 
" style="fill:none;stroke:#ff0000;stroke-width:2;"/>
    <path clip-path="url(#p12e2551819)" d="M 152.056199 194.812338 
L 152.056199 194.277219 
" style="fill:none;stroke:#ff0000;stroke-width:2;"/>
    <path clip-path="url(#p12e2551819)" d="M 155.982601 200.354973 
L 155.982601 199.741519 
" style="fill:none;stroke:#ff0000;stroke-width:2;"/>
    <path clip-path="url(#p12e2551819)" d="M 159.909004 205.966237 
L 159.909004 205.342965 
" style="fill:none;stroke:#ff0000;stroke-width:2;"/>
    <path clip-path="url(#p12e2551819)" d="M 163.835407 211.358511 
L 163.835407 210.588375 
" style="fill:none;stroke:#ff0000;stroke-width:2;"/>
    <path clip-path="url(#p12e2551819)" d="M 167.761809 216.839175 
L 167.761809 216.107305 
" style="fill:none;stroke:#ff0000;stroke-width:2;"/>
    <path clip-path="url(#p12e2551819)" d="M 171.688212 222.291352 
L 171.688212 221.492352 
" style="fill:none;stroke:#ff0000;stroke-width:2;"/>
    <path clip-path="url(#p12e2551819)" d="M 175.614614 227.711142 
L 175.614614 226.764924 
" style="fill:none;stroke:#ff0000;stroke-width:2;"/>
    <path clip-path="url(#p12e2551819)" d="M 179.541017 232.96325 
L 179.541017 231.990127 
" style="fill:none;stroke:#ff0000;stroke-width:2;"/>
    <path clip-path="url(#p12e2551819)" d="M 183.46742 237.976575 
L 183.46742 237.011198 
" style="fill:none;stroke:#ff0000;stroke-width:2;"/>
    <path clip-path="url(#p12e2551819)" d="M 187.393822 243.091851 
L 187.393822 242.055499 
" style="fill:none;stroke:#ff0000;stroke-width:2;"/>
    <path clip-path="url(#p12e2551819)" d="M 191.320225 248.032032 
L 191.320225 246.86717 
" style="fill:none;stroke:#ff0000;stroke-width:2;"/>
    <path clip-path="url(#p12e2551819)" d="M 195.246627 252.394567 
L 195.246627 251.273293 
" style="fill:none;stroke:#ff0000;stroke-width:2;"/>
    <path clip-path="url(#p12e2551819)" d="M 199.17303 256.489272 
L 199.17303 255.306553 
" style="fill:none;stroke:#ff0000;stroke-width:2;"/>
    <path clip-path="url(#p12e2551819)" d="M 203.099433 259.827062 
L 203.099433 258.542993 
" style="fill:none;stroke:#ff0000;stroke-width:2;"/>
    <path clip-path="url(#p12e2551819)" d="M 207.025835 262.22174 
L 207.025835 260.94691 
" style="fill:none;stroke:#ff0000;stroke-width:2;"/>
    <path clip-path="url(#p12e2551819)" d="M 210.952238 263.778917 
L 210.952238 262.399486 
" style="fill:none;stroke:#ff0000;stroke-width:2;"/>
    <path clip-path="url(#p12e2551819)" d="M 214.878641 264.045566 
L 214.878641 262.634697 
" style="fill:none;stroke:#ff0000;stroke-width:2;"/>
    <path clip-path="url(#p12e2551819)" d="M 218.805043 263.060485 
L 218.805043 261.649369 
" style="fill:none;stroke:#ff0000;stroke-width:2;"/>
    <path clip-path="url(#p12e2551819)" d="M 222.731446 261.243777 
L 222.731446 259.959529 
" style="fill:none;stroke:#ff0000;stroke-width:2;"/>
    <path clip-path="url(#p12e2551819)" d="M 226.657848 258.203763 
L 226.657848 257.03379 
" style="fill:none;stroke:#ff0000;stroke-width:2;"/>
    <path clip-path="url(#p12e2551819)" d="M 230.584251 254.519544 
L 230.584251 253.49293 
" style="fill:none;stroke:#ff0000;stroke-width:2;"/>
    <path clip-path="url(#p12e2551819)" d="M 234.510654 250.423955 
L 234.510654 249.399043 
" style="fill:none;stroke:#ff0000;stroke-width:2;"/>
    <path clip-path="url(#p12e2551819)" d="M 238.437056 245.829234 
L 238.437056 244.885976 
" style="fill:none;stroke:#ff0000;stroke-width:2;"/>
    <path clip-path="url(#p12e2551819)" d="M 242.363459 241.080352 
L 242.363459 240.200862 
" style="fill:none;stroke:#ff0000;stroke-width:2;"/>
    <path clip-path="url(#p12e2551819)" d="M 246.289861 236.028806 
L 246.289861 235.272246 
" style="fill:none;stroke:#ff0000;stroke-width:2;"/>
    <path clip-path="url(#p12e2551819)" d="M 250.216264 230.92082 
L 250.216264 230.231421 
" style="fill:none;stroke:#ff0000;stroke-width:2;"/>
    <path clip-path="url(#p12e2551819)" d="M 254.142667 225.776917 
L 254.142667 225.115253 
" style="fill:none;stroke:#ff0000;stroke-width:2;"/>
    <path clip-path="url(#p12e2551819)" d="M 258.069069 220.664299 
L 258.069069 220.047183 
" style="fill:none;stroke:#ff0000;stroke-width:2;"/>
    <path clip-path="url(#p12e2551819)" d="M 261.995472 215.367655 
L 261.995472 214.843497 
" style="fill:none;stroke:#ff0000;stroke-width:2;"/>
    <path clip-path="url(#p12e2551819)" d="M 265.921874 209.963243 
L 265.921874 209.483961 
" style="fill:none;stroke:#ff0000;stroke-width:2;"/>
    <path clip-path="url(#p12e2551819)" d="M 269.848277 204.704889 
L 269.848277 204.257912 
" style="fill:none;stroke:#ff0000;stroke-width:2;"/>
    <path clip-path="url(#p12e2551819)" d="M 273.77468 199.284192 
L 273.77468 198.905604 
" style="fill:none;stroke:#ff0000;stroke-width:2;"/>
    <path clip-path="url(#p12e2551819)" d="M 277.701082 193.882995 
L 277.701082 193.543785 
" style="fill:none;stroke:#ff0000;stroke-width:2;"/>
    <path clip-path="url(#p12e2551819)" d="M 281.627485 188.650911 
L 281.627485 188.320327 
" style="fill:none;stroke:#ff0000;stroke-width:2;"/>
    <path clip-path="url(#p12e2551819)" d="M 285.553887 183.248725 
L 285.553887 182.964755 
" style="fill:none;stroke:#ff0000;stroke-width:2;"/>
    <path clip-path="url(#p12e2551819)" d="M 289.48029 177.728802 
L 289.48029 177.426212 
" style="fill:none;stroke:#ff0000;stroke-width:2;"/>
    <path clip-path="url(#p12e2551819)" d="M 293.406693 172.273379 
L 293.406693 172.008934 
" style="fill:none;stroke:#ff0000;stroke-width:2;"/>
    <path clip-path="url(#p12e2551819)" d="M 297.333095 166.845211 
L 297.333095 166.616444 
" style="fill:none;stroke:#ff0000;stroke-width:2;"/>
    <path clip-path="url(#p12e2551819)" d="M 301.259498 161.153365 
L 301.259498 160.92743 
" style="fill:none;stroke:#ff0000;stroke-width:2;"/>
    <path clip-path="url(#p12e2551819)" d="M 305.1859 155.50467 
L 305.1859 155.271108 
" style="fill:none;stroke:#ff0000;stroke-width:2;"/>
    <path clip-path="url(#p12e2551819)" d="M 309.112303 149.828133 
L 309.112303 149.621877 
" style="fill:none;stroke:#ff0000;stroke-width:2;"/>
    <path clip-path="url(#p12e2551819)" d="M 313.038706 143.91659 
L 313.038706 143.720241 
" style="fill:none;stroke:#ff0000;stroke-width:2;"/>
    <path clip-path="url(#p12e2551819)" d="M 316.965108 138.084579 
L 316.965108 137.899928 
" style="fill:none;stroke:#ff0000;stroke-width:2;"/>
    <path clip-path="url(#p12e2551819)" d="M 320.891511 132.006242 
L 320.891511 131.848032 
" style="fill:none;stroke:#ff0000;stroke-width:2;"/>
    <path clip-path="url(#p12e2551819)" d="M 324.817914 125.941314 
L 324.817914 125.776468 
" style="fill:none;stroke:#ff0000;stroke-width:2;"/>
    <path clip-path="url(#p12e2551819)" d="M 328.744316 119.305606 
L 328.744316 119.131331 
" style="fill:none;stroke:#ff0000;stroke-width:2;"/>
    <path clip-path="url(#p12e2551819)" d="M 332.670719 112.707671 
L 332.670719 112.529844 
" style="fill:none;stroke:#ff0000;stroke-width:2;"/>
    <path clip-path="url(#p12e2551819)" d="M 336.597121 104.468503 
L 336.597121 104.317933 
" style="fill:none;stroke:#ff0000;stroke-width:2;"/>
   </g>
   <g id="line2d_44">
    <path clip-path="url(#p12e2551819)" d="M 89.233757 73.457836 
L 93.16016 104.413076 
L 97.086562 112.4558 
L 101.012965 119.174163 
L 104.939368 125.462797 
L 108.86577 131.677526 
L 112.792173 137.759915 
L 116.718575 143.639481 
L 120.644978 149.512247 
L 124.571381 155.166941 
L 128.497783 161.083314 
L 132.424186 166.718299 
L 136.350588 172.409673 
L 140.276991 177.922244 
L 144.203394 183.377967 
L 148.129796 189.130623 
L 152.056199 194.54307 
L 155.982601 200.046001 
L 159.909004 205.652283 
L 163.835407 210.969906 
L 167.761809 216.470045 
L 171.688212 221.888044 
L 175.614614 227.232693 
L 179.541017 232.471041 
L 183.46742 237.488328 
L 187.393822 242.567269 
L 191.320225 247.441508 
L 195.246627 251.826431 
L 199.17303 255.88957 
L 203.099433 259.175194 
L 207.025835 261.574632 
L 210.952238 263.077853 
L 214.878641 263.32826 
L 218.805043 262.343052 
L 222.731446 260.591817 
L 226.657848 257.610613 
L 230.584251 253.999951 
L 234.510654 249.905234 
L 238.437056 245.352298 
L 242.363459 240.635994 
L 246.289861 235.647112 
L 250.216264 230.573285 
L 254.142667 225.443474 
L 258.069069 220.353469 
L 261.995472 215.103937 
L 265.921874 209.722232 
L 269.848277 204.480209 
L 273.77468 199.094043 
L 277.701082 193.712703 
L 281.627485 188.484967 
L 285.553887 183.106259 
L 289.48029 177.576961 
L 293.406693 172.14074 
L 297.333095 166.730515 
L 301.259498 161.040093 
L 305.1859 155.387564 
L 309.112303 149.724751 
L 313.038706 143.818185 
L 316.965108 137.99205 
L 320.891511 131.926988 
L 324.817914 125.858729 
L 328.744316 119.218287 
L 332.670719 112.618569 
L 336.597121 104.393083 
" style="fill:none;stroke:#000000;stroke-linecap:square;stroke-width:2;"/>
   </g>
   <g id="patch_3">
    <path d="M 76.865589 273.575773 
L 76.865589 63.911226 
" style="fill:none;stroke:#000000;stroke-linecap:square;stroke-linejoin:miter;stroke-width:0.8;"/>
   </g>
   <g id="patch_4">
    <path d="M 348.96529 273.575773 
L 348.96529 63.911226 
" style="fill:none;stroke:#000000;stroke-linecap:square;stroke-linejoin:miter;stroke-width:0.8;"/>
   </g>
   <g id="patch_5">
    <path d="M 76.865589 273.575773 
L 348.96529 273.575773 
" style="fill:none;stroke:#000000;stroke-linecap:square;stroke-linejoin:miter;stroke-width:0.8;"/>
   </g>
   <g id="patch_6">
    <path d="M 76.865589 63.911226 
L 348.96529 63.911226 
" style="fill:none;stroke:#000000;stroke-linecap:square;stroke-linejoin:miter;stroke-width:0.8;"/>
   </g>
   <g id="text_10">
    <!-- $C(t)$ -->
    <g transform="translate(190.987286 57.911226)scale(0.24 -0.24)">
     <defs>
      <path d="M 74.703125 69.109375 
C 74.703125 70 74 70 73.796875 70 
C 73.59375 70 73.203125 70 72.40625 69 
L 65.5 60.65625 
C 62 66.625 56.5 70 49 70 
C 27.40625 70 5 48.25 5 24.921875 
C 5 8.328125 16.703125 -2 31.296875 -2 
C 39.296875 -2 46.296875 1.375 52.09375 6.25 
C 60.796875 13.484375 63.40625 23.140625 63.40625 23.921875 
C 63.40625 24.8125 62.59375 24.8125 62.296875 24.8125 
C 61.40625 24.8125 61.296875 24.21875 61.09375 23.8125 
C 56.5 8.34375 43 0.890625 33 0.890625 
C 22.40625 0.890625 13.203125 7.640625 13.203125 21.734375 
C 13.203125 24.921875 14.203125 42.1875 25.5 55.1875 
C 31 61.546875 40.40625 67.109375 49.90625 67.109375 
C 60.90625 67.109375 65.796875 58.078125 65.796875 47.9375 
C 65.796875 45.359375 65.5 43.1875 65.5 42.78125 
C 65.5 41.890625 66.5 41.890625 66.796875 41.890625 
C 67.90625 41.890625 68 41.984375 68.40625 43.765625 
z
" id="CMMI12-67"/>
      <path d="M 30.59375 -24.390625 
C 30.59375 -24.296875 30.59375 -24.09375 30.296875 -23.796875 
C 25.703125 -19.125 13.40625 -6.359375 13.40625 24.703125 
C 13.40625 55.765625 25.5 68.421875 30.40625 73.390625 
C 30.40625 73.5 30.59375 73.703125 30.59375 74 
C 30.59375 74.296875 30.296875 74.5 29.90625 74.5 
C 28.796875 74.5 20.296875 67.125 15.40625 56.15625 
C 10.40625 45.109375 9 34.359375 9 24.8125 
C 9 17.625 9.703125 5.484375 15.703125 -7.359375 
C 20.5 -17.734375 28.703125 -25 29.90625 -25 
C 30.40625 -25 30.59375 -24.796875 30.59375 -24.390625 
z
" id="CMR17-40"/>
      <path d="M 26.296875 24.703125 
C 26.296875 31.875 25.59375 44.015625 19.59375 56.859375 
C 14.796875 67.234375 6.59375 74.5 5.40625 74.5 
C 5.09375 74.5 4.703125 74.390625 4.703125 73.890625 
C 4.703125 73.703125 4.796875 73.59375 4.90625 73.390625 
C 9.703125 68.40625 21.90625 55.75 21.90625 24.75 
C 21.90625 -6.359375 9.796875 -19.015625 4.90625 -24.015625 
C 4.796875 -24.203125 4.703125 -24.3125 4.703125 -24.5 
C 4.703125 -25 5.09375 -25 5.40625 -25 
C 6.5 -25 15 -17.625 19.90625 -6.65625 
C 24.90625 4.390625 26.296875 15.140625 26.296875 24.703125 
z
" id="CMR17-41"/>
     </defs>
     <use transform="scale(0.996264)" xlink:href="#CMMI12-67"/>
     <use transform="translate(76.946847 0)scale(0.996264)" xlink:href="#CMR17-40"/>
     <use transform="translate(112.227614 0)scale(0.996264)" xlink:href="#CMMI12-116"/>
     <use transform="translate(147.453945 0)scale(0.996264)" xlink:href="#CMR17-41"/>
    </g>
   </g>
  </g>
  <g id="axes_2">
   <g id="patch_7">
    <path d="M 403.712799 273.575773 
L 675.8125 273.575773 
L 675.8125 63.911226 
L 403.712799 63.911226 
z
" style="fill:#ffffff;"/>
   </g>
   <g id="matplotlib.axis_3">
    <g id="xtick_5">
     <g id="line2d_45">
      <g>
       <use style="stroke:#000000;stroke-width:0.8;" x="489.373816" xlink:href="#mf51bc18af2" y="273.575773"/>
      </g>
     </g>
     <g id="text_11">
      <!-- $\mathdefault{10}$ -->
      <g transform="translate(481.569829 291.645361)scale(0.16 -0.16)">
       <use transform="scale(0.996264)" xlink:href="#CMR17-49"/>
       <use transform="translate(45.690477 0)scale(0.996264)" xlink:href="#CMR17-48"/>
      </g>
     </g>
    </g>
    <g id="xtick_6">
     <g id="line2d_46">
      <g>
       <use style="stroke:#000000;stroke-width:0.8;" x="580.989877" xlink:href="#mf51bc18af2" y="273.575773"/>
      </g>
     </g>
     <g id="text_12">
      <!-- $\mathdefault{20}$ -->
      <g transform="translate(573.18589 291.645361)scale(0.16 -0.16)">
       <use transform="scale(0.996264)" xlink:href="#CMR17-50"/>
       <use transform="translate(45.690477 0)scale(0.996264)" xlink:href="#CMR17-48"/>
      </g>
     </g>
    </g>
    <g id="xtick_7">
     <g id="line2d_47">
      <g>
       <use style="stroke:#000000;stroke-width:0.8;" x="672.605937" xlink:href="#mf51bc18af2" y="273.575773"/>
      </g>
     </g>
     <g id="text_13">
      <!-- $\mathdefault{30}$ -->
      <g transform="translate(664.80195 291.645361)scale(0.16 -0.16)">
       <defs>
        <path d="M 22.09375 33.703125 
C 31 33.703125 34.90625 25.96875 34.90625 17.03125 
C 34.90625 5 28.5 0.390625 22.703125 0.390625 
C 17.40625 0.390625 8.796875 3.03125 6.09375 10.828125 
C 6.59375 10.625 7.09375 10.625 7.59375 10.625 
C 10 10.625 11.796875 12.21875 11.796875 14.8125 
C 11.796875 17.703125 9.59375 19 7.59375 19 
C 5.90625 19 3.296875 18.203125 3.296875 14.46875 
C 3.296875 5.234375 12.296875 -2 22.90625 -2 
C 34 -2 42.5 6.71875 42.5 16.953125 
C 42.5 26.671875 34.5 33.703125 25 34.796875 
C 32.59375 36.375 39.90625 43.0625 39.90625 52.015625 
C 39.90625 59.6875 32 65.296875 23 65.296875 
C 13.90625 65.296875 5.90625 59.828125 5.90625 52.015625 
C 5.90625 48.59375 8.5 48 9.796875 48 
C 11.90625 48 13.703125 49.296875 13.703125 51.890625 
C 13.703125 54.46875 11.90625 55.765625 9.796875 55.765625 
C 9.40625 55.765625 8.90625 55.765625 8.5 55.578125 
C 11.40625 61.859375 19.296875 63 22.796875 63 
C 26.296875 63 32.90625 61.328125 32.90625 51.875 
C 32.90625 49.109375 32.5 44.1875 29.09375 39.84375 
C 26.09375 36 22.703125 36 19.40625 35.6875 
C 18.90625 35.6875 16.59375 35.453125 16.203125 35.453125 
C 15.5 35.359375 15.09375 35.265625 15.09375 34.5 
C 15.09375 33.796875 15.203125 33.703125 17.203125 33.703125 
z
" id="CMR17-51"/>
       </defs>
       <use transform="scale(0.996264)" xlink:href="#CMR17-51"/>
       <use transform="translate(45.690477 0)scale(0.996264)" xlink:href="#CMR17-48"/>
      </g>
     </g>
    </g>
    <g id="text_14">
     <!-- $t$ -->
     <g transform="translate(535.53549 315.349243)scale(0.24 -0.24)">
      <use transform="scale(0.996264)" xlink:href="#CMMI12-116"/>
     </g>
    </g>
   </g>
   <g id="matplotlib.axis_4">
    <g id="ytick_40">
     <g id="line2d_48">
      <g>
       <use style="stroke:#000000;stroke-width:0.8;" x="403.712799" xlink:href="#m0843ee7411" y="236.366795"/>
      </g>
     </g>
     <g id="text_15">
      <!-- $\mathdefault{0.20}$ -->
      <g transform="translate(368.96529 241.901589)scale(0.16 -0.16)">
       <defs>
        <path d="M 18.40625 4.796875 
C 18.40625 7.6875 16 9.671875 13.59375 9.671875 
C 10.703125 9.671875 8.703125 7.28125 8.703125 4.890625 
C 8.703125 2 11.09375 0 13.5 0 
C 16.40625 0 18.40625 2.390625 18.40625 4.796875 
z
" id="CMMI12-58"/>
       </defs>
       <use transform="scale(0.996264)" xlink:href="#CMR17-48"/>
       <use transform="translate(45.690477 0)scale(0.996264)" xlink:href="#CMMI12-58"/>
       <use transform="translate(72.787654 0)scale(0.996264)" xlink:href="#CMR17-50"/>
       <use transform="translate(118.478131 0)scale(0.996264)" xlink:href="#CMR17-48"/>
      </g>
     </g>
    </g>
    <g id="ytick_41">
     <g id="line2d_49">
      <g>
       <use style="stroke:#000000;stroke-width:0.8;" x="403.712799" xlink:href="#m0843ee7411" y="169.509911"/>
      </g>
     </g>
     <g id="text_16">
      <!-- $\mathdefault{0.25}$ -->
      <g transform="translate(368.96529 175.044705)scale(0.16 -0.16)">
       <defs>
        <path d="M 11.40625 57.6875 
C 12.40625 57.28125 16.5 56 20.703125 56 
C 30 56 35.09375 61.109375 38 64.0625 
C 38 64.953125 38 65.5 37.40625 65.5 
C 37.296875 65.5 37.09375 65.5 36.296875 65.046875 
C 32.796875 63.40625 28.703125 62.078125 23.703125 62.078125 
C 20.703125 62.078125 16.203125 62.484375 11.296875 64.671875 
C 10.203125 65.171875 10 65.171875 9.90625 65.171875 
C 9.40625 65.171875 9.296875 65.0625 9.296875 63.078125 
L 9.296875 34.421875 
C 9.296875 32.640625 9.296875 32.140625 10.296875 32.140625 
C 10.796875 32.140625 11 32.34375 11.5 33.03125 
C 14.703125 37.515625 19.09375 39.40625 24.09375 39.40625 
C 27.59375 39.40625 35.09375 37.21875 35.09375 20.140625 
C 35.09375 16.953125 35.09375 11.171875 32.09375 6.578125 
C 29.59375 2.484375 25.703125 0.390625 21.40625 0.390625 
C 14.796875 0.390625 8.09375 5 6.296875 12.71875 
C 6.703125 12.609375 7.5 12.421875 7.90625 12.421875 
C 9.203125 12.421875 11.703125 13.125 11.703125 16.21875 
C 11.703125 18.90625 9.796875 20 7.90625 20 
C 5.59375 20 4.09375 18.59375 4.09375 15.796875 
C 4.09375 7.09375 11 -2 21.59375 -2 
C 31.90625 -2 41.703125 6.875 41.703125 19.75 
C 41.703125 31.71875 33.90625 41 24.203125 41 
C 19.09375 41 14.796875 39.109375 11.40625 35.53125 
z
" id="CMR17-53"/>
       </defs>
       <use transform="scale(0.996264)" xlink:href="#CMR17-48"/>
       <use transform="translate(45.690477 0)scale(0.996264)" xlink:href="#CMMI12-58"/>
       <use transform="translate(72.787654 0)scale(0.996264)" xlink:href="#CMR17-50"/>
       <use transform="translate(118.478131 0)scale(0.996264)" xlink:href="#CMR17-53"/>
      </g>
     </g>
    </g>
    <g id="ytick_42">
     <g id="line2d_50">
      <g>
       <use style="stroke:#000000;stroke-width:0.8;" x="403.712799" xlink:href="#m0843ee7411" y="102.653027"/>
      </g>
     </g>
     <g id="text_17">
      <!-- $\mathdefault{0.30}$ -->
      <g transform="translate(368.96529 108.187821)scale(0.16 -0.16)">
       <use transform="scale(0.996264)" xlink:href="#CMR17-48"/>
       <use transform="translate(45.690477 0)scale(0.996264)" xlink:href="#CMMI12-58"/>
       <use transform="translate(72.787654 0)scale(0.996264)" xlink:href="#CMR17-51"/>
       <use transform="translate(118.478131 0)scale(0.996264)" xlink:href="#CMR17-48"/>
      </g>
     </g>
    </g>
   </g>
   <g id="LineCollection_2">
    <path clip-path="url(#pb7821a41b3)" d="M 416.080967 84.342413 
L 416.080967 73.441433 
" style="fill:none;stroke:#ff0000;stroke-width:2;"/>
    <path clip-path="url(#pb7821a41b3)" d="M 425.242573 96.638068 
L 425.242573 86.102871 
" style="fill:none;stroke:#ff0000;stroke-width:2;"/>
    <path clip-path="url(#pb7821a41b3)" d="M 434.404179 116.782201 
L 434.404179 106.996644 
" style="fill:none;stroke:#ff0000;stroke-width:2;"/>
    <path clip-path="url(#pb7821a41b3)" d="M 443.565785 121.545601 
L 443.565785 110.939065 
" style="fill:none;stroke:#ff0000;stroke-width:2;"/>
    <path clip-path="url(#pb7821a41b3)" d="M 452.727391 136.411964 
L 452.727391 124.250578 
" style="fill:none;stroke:#ff0000;stroke-width:2;"/>
    <path clip-path="url(#pb7821a41b3)" d="M 461.888998 134.871066 
L 461.888998 121.117458 
" style="fill:none;stroke:#ff0000;stroke-width:2;"/>
    <path clip-path="url(#pb7821a41b3)" d="M 471.050604 149.958336 
L 471.050604 135.487034 
" style="fill:none;stroke:#ff0000;stroke-width:2;"/>
    <path clip-path="url(#pb7821a41b3)" d="M 480.21221 141.53038 
L 480.21221 127.832716 
" style="fill:none;stroke:#ff0000;stroke-width:2;"/>
    <path clip-path="url(#pb7821a41b3)" d="M 489.373816 149.982871 
L 489.373816 134.934518 
" style="fill:none;stroke:#ff0000;stroke-width:2;"/>
    <path clip-path="url(#pb7821a41b3)" d="M 498.535422 157.766118 
L 498.535422 141.460162 
" style="fill:none;stroke:#ff0000;stroke-width:2;"/>
    <path clip-path="url(#pb7821a41b3)" d="M 507.697028 164.584095 
L 507.697028 144.346696 
" style="fill:none;stroke:#ff0000;stroke-width:2;"/>
    <path clip-path="url(#pb7821a41b3)" d="M 516.858634 164.140661 
L 516.858634 142.358374 
" style="fill:none;stroke:#ff0000;stroke-width:2;"/>
    <path clip-path="url(#pb7821a41b3)" d="M 526.02024 160.801657 
L 526.02024 136.549951 
" style="fill:none;stroke:#ff0000;stroke-width:2;"/>
    <path clip-path="url(#pb7821a41b3)" d="M 535.181846 177.512361 
L 535.181846 150.996272 
" style="fill:none;stroke:#ff0000;stroke-width:2;"/>
    <path clip-path="url(#pb7821a41b3)" d="M 544.343452 171.912262 
L 544.343452 140.700467 
" style="fill:none;stroke:#ff0000;stroke-width:2;"/>
    <path clip-path="url(#pb7821a41b3)" d="M 553.505058 169.878918 
L 553.505058 135.607354 
" style="fill:none;stroke:#ff0000;stroke-width:2;"/>
    <path clip-path="url(#pb7821a41b3)" d="M 562.666664 185.942604 
L 562.666664 146.257049 
" style="fill:none;stroke:#ff0000;stroke-width:2;"/>
    <path clip-path="url(#pb7821a41b3)" d="M 571.828271 175.101775 
L 571.828271 135.479038 
" style="fill:none;stroke:#ff0000;stroke-width:2;"/>
    <path clip-path="url(#pb7821a41b3)" d="M 580.989877 183.577448 
L 580.989877 138.887935 
" style="fill:none;stroke:#ff0000;stroke-width:2;"/>
    <path clip-path="url(#pb7821a41b3)" d="M 590.151483 190.442628 
L 590.151483 144.134584 
" style="fill:none;stroke:#ff0000;stroke-width:2;"/>
    <path clip-path="url(#pb7821a41b3)" d="M 599.313089 193.602033 
L 599.313089 139.799889 
" style="fill:none;stroke:#ff0000;stroke-width:2;"/>
    <path clip-path="url(#pb7821a41b3)" d="M 608.474695 198.101137 
L 608.474695 144.576488 
" style="fill:none;stroke:#ff0000;stroke-width:2;"/>
    <path clip-path="url(#pb7821a41b3)" d="M 617.636301 195.644383 
L 617.636301 134.969067 
" style="fill:none;stroke:#ff0000;stroke-width:2;"/>
    <path clip-path="url(#pb7821a41b3)" d="M 626.797907 203.282763 
L 626.797907 137.005075 
" style="fill:none;stroke:#ff0000;stroke-width:2;"/>
    <path clip-path="url(#pb7821a41b3)" d="M 635.959513 216.356934 
L 635.959513 132.519932 
" style="fill:none;stroke:#ff0000;stroke-width:2;"/>
    <path clip-path="url(#pb7821a41b3)" d="M 645.121119 218.739275 
L 645.121119 130.261177 
" style="fill:none;stroke:#ff0000;stroke-width:2;"/>
    <path clip-path="url(#pb7821a41b3)" d="M 654.282725 236.918411 
L 654.282725 119.961512 
" style="fill:none;stroke:#ff0000;stroke-width:2;"/>
    <path clip-path="url(#pb7821a41b3)" d="M 663.444331 264.045566 
L 663.444331 78.021965 
" style="fill:none;stroke:#ff0000;stroke-width:2;"/>
   </g>
   <g id="line2d_51">
    <path clip-path="url(#pb7821a41b3)" d="M 416.080967 78.891923 
L 425.242573 91.37047 
L 434.404179 111.889423 
L 443.565785 116.242333 
L 452.727391 130.331271 
L 461.888998 127.994262 
L 471.050604 142.722685 
L 480.21221 134.681548 
L 489.373816 142.458694 
L 498.535422 149.61314 
L 507.697028 154.465396 
L 516.858634 153.249517 
L 526.02024 148.675804 
L 535.181846 164.254316 
L 544.343452 156.306364 
L 553.505058 152.743136 
L 562.666664 166.099826 
L 571.828271 155.290407 
L 580.989877 161.232692 
L 590.151483 167.288606 
L 599.313089 166.700961 
L 608.474695 171.338812 
L 617.636301 165.306725 
L 626.797907 170.143919 
L 635.959513 174.438433 
L 645.121119 174.500226 
L 654.282725 178.439961 
L 663.444331 171.033766 
" style="fill:none;stroke:#000000;stroke-linecap:square;stroke-width:2;"/>
   </g>
   <g id="patch_8">
    <path d="M 403.712799 273.575773 
L 403.712799 63.911226 
" style="fill:none;stroke:#000000;stroke-linecap:square;stroke-linejoin:miter;stroke-width:0.8;"/>
   </g>
   <g id="patch_9">
    <path d="M 675.8125 273.575773 
L 675.8125 63.911226 
" style="fill:none;stroke:#000000;stroke-linecap:square;stroke-linejoin:miter;stroke-width:0.8;"/>
   </g>
   <g id="patch_10">
    <path d="M 403.712799 273.575773 
L 675.8125 273.575773 
" style="fill:none;stroke:#000000;stroke-linecap:square;stroke-linejoin:miter;stroke-width:0.8;"/>
   </g>
   <g id="patch_11">
    <path d="M 403.712799 63.911226 
L 675.8125 63.911226 
" style="fill:none;stroke:#000000;stroke-linecap:square;stroke-linejoin:miter;stroke-width:0.8;"/>
   </g>
   <g id="text_18">
    <!-- cosh effective mass -->
    <g transform="translate(450.078617 57.911226)scale(0.24 -0.24)">
     <defs>
      <path d="M 34.90625 35 
C 33 35 30.203125 35 30.203125 31.515625 
C 30.203125 28.71875 32.5 27.921875 33.796875 27.921875 
C 34.5 27.921875 37.40625 28.234375 37.40625 31.625 
C 37.40625 38.546875 30.59375 43.796875 22.90625 43.796875 
C 12.296875 43.796875 3.296875 34.03125 3.296875 21.296875 
C 3.296875 8.0625 12.703125 -1 22.90625 -1 
C 35.296875 -1 38.40625 10.578125 38.40625 11.6875 
C 38.40625 12.09375 38.296875 12.390625 37.59375 12.390625 
C 36.90625 12.390625 36.796875 12.296875 36.40625 10.984375 
C 33.796875 2.8125 28.09375 0.796875 23.796875 0.796875 
C 17.40625 0.796875 9.703125 6.671875 9.703125 21.390625 
C 9.703125 36.53125 17.09375 42 23 42 
C 26.90625 42 32.703125 40.203125 34.90625 35 
z
" id="CMR17-99"/>
      <path d="M 43.09375 21.1875 
C 43.09375 34 33.796875 44 22.90625 44 
C 12 44 2.703125 34 2.703125 21.1875 
C 2.703125 8.609375 12 -1 22.90625 -1 
C 33.796875 -1 43.09375 8.609375 43.09375 21.1875 
z
M 22.90625 0.796875 
C 18.203125 0.796875 14.203125 3.59375 11.90625 7.5 
C 9.40625 11.984375 9.09375 17.59375 9.09375 22 
C 9.09375 26.203125 9.296875 31.40625 11.90625 35.90625 
C 13.90625 39.203125 17.796875 42.40625 22.90625 42.40625 
C 27.40625 42.40625 31.203125 39.90625 33.59375 36.40625 
C 36.703125 31.703125 36.703125 25.109375 36.703125 22 
C 36.703125 18.09375 36.5 12.109375 33.796875 7.296875 
C 31 2.703125 26.703125 0.796875 22.90625 0.796875 
z
" id="CMR17-111"/>
      <path d="M 30.90625 42.140625 
C 30.90625 43.953125 30.796875 44.046875 30.203125 44.046875 
C 29.796875 44.046875 29.703125 43.953125 28.5 42.453125 
C 28.203125 42.046875 27.296875 41.03125 27 40.640625 
C 23.796875 44.046875 19.296875 44.046875 17.59375 44.046875 
C 6.5 44.046875 2.5 38.234375 2.5 32.4375 
C 2.5 23.40625 12.703125 21.328125 15.59375 20.703125 
C 21.90625 19.421875 24.09375 19.015625 26.203125 17.203125 
C 27.5 16.015625 29.703125 13.8125 29.703125 10.21875 
C 29.703125 6 27.296875 0.59375 18.09375 0.59375 
C 9.40625 0.59375 6.296875 7.1875 4.5 15.953125 
C 4.203125 17.34375 4.203125 17.453125 3.40625 17.453125 
C 2.59375 17.453125 2.5 17.34375 2.5 15.359375 
L 2.5 0.984375 
C 2.5 -0.796875 2.59375 -0.90625 3.203125 -0.90625 
C 3.703125 -0.90625 3.796875 -0.796875 4.296875 0 
C 4.90625 0.890625 6.40625 3.296875 7 4.3125 
C 9 1.609375 12.5 -1 18.09375 -1 
C 28 -1 33.296875 4.421875 33.296875 12.25 
C 33.296875 17.375 30.59375 20.078125 29.296875 21.28125 
C 26.296875 24.390625 22.796875 25.09375 18.59375 25.890625 
C 13.09375 27.109375 6.09375 28.515625 6.09375 34.640625 
C 6.09375 37.234375 7.5 42.765625 17.59375 42.765625 
C 28.296875 42.765625 28.90625 32.71875 29.09375 29.5 
C 29.203125 29 29.703125 28.890625 30 28.890625 
C 30.90625 28.890625 30.90625 29.203125 30.90625 30.90625 
z
" id="CMR17-115"/>
      <path d="M 41.5 30.203125 
C 41.5 35.296875 40.5 43.59375 28.703125 43.59375 
C 20.5 43.59375 16.5 37 15.296875 33.703125 
L 15.203125 33.703125 
L 15.203125 68.6875 
L 3.296875 67.59375 
L 3.296875 65 
C 9.203125 65 10.09375 64.40625 10.09375 59.640625 
L 10.09375 6.65625 
C 10.09375 2.875 9.703125 2.390625 3.296875 2.390625 
L 3.296875 -0.203125 
C 5.703125 0 10.09375 0 12.703125 0 
C 15.296875 0 19.796875 0 22.203125 -0.203125 
L 22.203125 2.390625 
C 15.796875 2.390625 15.40625 2.78125 15.40625 6.6875 
L 15.40625 25.90625 
C 15.40625 35.109375 21 42 28 42 
C 35.40625 42 36.203125 35.40625 36.203125 30.59375 
L 36.203125 6.6875 
C 36.203125 2.875 35.796875 2.390625 29.40625 2.390625 
L 29.40625 -0.203125 
C 31.796875 0 36.203125 0 38.796875 0 
C 41.40625 0 45.90625 0 48.296875 -0.203125 
L 48.296875 2.390625 
C 41.90625 2.390625 41.5 2.78125 41.5 6.6875 
z
" id="CMR17-104"/>
      <path d="M 38.09375 23 
C 38.5 23.40625 38.5 23.609375 38.5 24.625 
C 38.5 34.96875 33.09375 44 21.703125 44 
C 11.09375 44 2.703125 33.890625 2.703125 21.609375 
C 2.703125 8.609375 12.203125 -1 22.796875 -1 
C 34 -1 38.40625 9.484375 38.40625 11.5625 
C 38.40625 12.25 37.796875 12.25 37.59375 12.25 
C 36.90625 12.25 36.796875 12.046875 36.40625 10.875 
C 34.203125 4.140625 28.703125 0.796875 23.5 0.796875 
C 19.203125 0.796875 14.90625 3.171875 12.203125 7.5 
C 9.09375 12.546875 9.09375 18.375 9.09375 23 
z
M 9.203125 24.5 
C 9.90625 39.140625 17.59375 42.40625 21.59375 42.40625 
C 28.40625 42.40625 33 35.890625 33.09375 24.5 
z
" id="CMR17-101"/>
      <path d="M 39.90625 40 
L 51.296875 40 
L 51.296875 42.578125 
L 39.703125 42.578125 
L 39.703125 54.59375 
C 39.703125 62.84375 43.90625 68 48.203125 68 
C 49.5 68 51 67.609375 52 66.90625 
C 51.203125 66.703125 49.09375 66.015625 49.09375 63.546875 
C 49.09375 60.953125 51.09375 60.15625 52.5 60.15625 
C 53.90625 60.15625 55.90625 60.953125 55.90625 63.546875 
C 55.90625 67.3125 52.296875 69.59375 48.296875 69.59375 
C 44.40625 69.59375 41.203125 67.703125 38.703125 65.328125 
C 36.40625 68.59375 32.59375 69.59375 28.703125 69.59375 
C 20.90625 69.59375 9.90625 65.125 9.90625 54.203125 
L 9.90625 42.578125 
L 1.90625 42.578125 
L 1.90625 40 
L 9.90625 40 
L 9.90625 6.671875 
C 9.90625 2.875 9.5 2.390625 3.09375 2.390625 
L 3.09375 -0.203125 
C 5.5 0 9.90625 0 12.40625 0 
C 15 0 19.40625 0 21.796875 -0.203125 
L 21.796875 2.390625 
C 15.40625 2.390625 15 2.78125 15 6.671875 
L 15 40 
L 34.796875 40 
L 34.796875 6.671875 
C 34.796875 2.875 34.40625 2.390625 28 2.390625 
L 28 -0.203125 
C 30.40625 0 35 0 37.59375 0 
C 40.5 0 45.59375 0 48.296875 -0.203125 
L 48.296875 2.390625 
C 41.09375 2.390625 39.90625 2.390625 39.90625 6.859375 
z
M 14.796875 42.578125 
L 14.796875 54.203125 
C 14.796875 63.234375 21.796875 68 28.5 68 
C 30 68 33.90625 67.6875 36.296875 65.421875 
C 34.5 65.421875 32.796875 64.625 32.796875 62.140625 
C 32.796875 59.5625 35.09375 58.859375 35.296875 58.859375 
C 34.796875 57.0625 34.796875 55.09375 34.796875 54.390625 
L 34.796875 42.578125 
z
" id="CMR17-11"/>
      <path d="M 15.09375 40 
L 29.09375 40 
L 29.09375 42.578125 
L 15.09375 42.578125 
L 15.09375 61 
L 13.296875 61 
C 13.09375 50.703125 9.59375 41.6875 1.09375 41.6875 
L 1.09375 40 
L 9.796875 40 
L 9.796875 12.046875 
C 9.796875 10.15625 9.796875 -1 21.40625 -1 
C 27.296875 -1 30.703125 4.78125 30.703125 12.140625 
L 30.703125 17.8125 
L 28.90625 17.8125 
L 28.90625 12.234375 
C 28.90625 5.375 26.203125 0.796875 22 0.796875 
C 19.09375 0.796875 15.09375 2.78125 15.09375 11.84375 
z
" id="CMR17-116"/>
      <path d="M 15.5 61.078125 
C 15.5 63.265625 13.703125 65.15625 11.40625 65.15625 
C 9.203125 65.15625 7.296875 63.375 7.296875 61.078125 
C 7.296875 58.890625 9.09375 57 11.40625 57 
C 13.59375 57 15.5 58.796875 15.5 61.078125 
z
M 3.796875 42.28125 
L 3.796875 39.703125 
C 9.40625 39.703125 10.203125 39.09375 10.203125 34.328125 
L 10.203125 6.671875 
C 10.203125 2.875 9.796875 2.390625 3.40625 2.390625 
L 3.40625 -0.203125 
C 5.796875 0 10.09375 0 12.59375 0 
C 15 0 19.09375 0 21.40625 -0.203125 
L 21.40625 2.390625 
C 15.5 2.390625 15.296875 2.984375 15.296875 6.5625 
L 15.296875 43.375 
z
" id="CMR17-105"/>
      <path d="M 39.09375 33.796875 
C 40 36 41.59375 40 47.40625 40 
L 47.40625 42.59375 
C 45.5 42.59375 43 42.59375 41.09375 42.59375 
C 39 42.59375 35.703125 42.59375 33.703125 42.6875 
L 33.703125 40.09375 
C 36.203125 39.890625 37.59375 38.703125 37.59375 36.109375 
C 37.59375 35.203125 37.59375 35 37 33.609375 
L 26 5.890625 
L 14.09375 35.71875 
C 13.5 37.015625 13.5 37.203125 13.5 37.609375 
C 13.5 40 16.796875 40 18.296875 40 
L 18.296875 42.6875 
C 15.90625 42.59375 11.5 42.59375 9 42.59375 
C 6.296875 42.59375 3.203125 42.59375 1 42.6875 
L 1 40 
C 4.796875 40 6.90625 40 8.09375 36.90625 
L 22.59375 0.6875 
C 23.203125 -0.796875 23.296875 -1 24.203125 -1 
C 25.09375 -1 25.203125 -0.796875 25.796875 0.6875 
z
" id="CMR17-118"/>
      <path d="M 67.59375 30.203125 
C 67.59375 35.1875 66.703125 43.59375 54.796875 43.59375 
C 48 43.59375 43.296875 39 41.5 33.609375 
L 41.40625 33.609375 
C 40.203125 41.8125 34.296875 43.59375 28.703125 43.59375 
C 20.796875 43.59375 16.703125 37.5 15.203125 33.5 
L 15.09375 33.5 
L 15.09375 43.59375 
L 3.296875 42.5 
L 3.296875 39.90625 
C 9.203125 39.90625 10.09375 39.296875 10.09375 34.5 
L 10.09375 6.6875 
C 10.09375 2.875 9.703125 2.390625 3.296875 2.390625 
L 3.296875 -0.203125 
C 5.703125 0 10.09375 0 12.703125 0 
C 15.296875 0 19.796875 0 22.203125 -0.203125 
L 22.203125 2.390625 
C 15.796875 2.390625 15.40625 2.78125 15.40625 6.6875 
L 15.40625 25.90625 
C 15.40625 35.109375 21 42 28 42 
C 35.40625 42 36.203125 35.40625 36.203125 30.59375 
L 36.203125 6.6875 
C 36.203125 2.875 35.796875 2.390625 29.40625 2.390625 
L 29.40625 -0.203125 
C 31.796875 0 36.203125 0 38.796875 0 
C 41.40625 0 45.90625 0 48.296875 -0.203125 
L 48.296875 2.390625 
C 41.90625 2.390625 41.5 2.78125 41.5 6.6875 
L 41.5 25.90625 
C 41.5 35.109375 47.09375 42 54.09375 42 
C 61.5 42 62.296875 35.40625 62.296875 30.59375 
L 62.296875 6.6875 
C 62.296875 2.875 61.90625 2.390625 55.5 2.390625 
L 55.5 -0.203125 
C 57.90625 0 62.296875 0 64.90625 0 
C 67.5 0 72 0 74.40625 -0.203125 
L 74.40625 2.390625 
C 68 2.390625 67.59375 2.78125 67.59375 6.6875 
z
" id="CMR17-109"/>
      <path d="M 36 25.828125 
C 36 32.375 36 35.84375 31.796875 39.734375 
C 28.09375 43 23.796875 44 20.40625 44 
C 12.5 44 6.796875 37.609375 6.796875 30.796875 
C 6.796875 27 9.796875 27 10.40625 27 
C 11.703125 27 14 27.78125 14 30.53125 
C 14 33 12.09375 34.078125 10.40625 34.078125 
C 10 34.078125 9.5 33.96875 9.203125 33.875 
C 11.296875 40.5 16.703125 42.40625 20.203125 42.40625 
C 25.203125 42.40625 30.703125 37.953125 30.703125 29.453125 
L 30.703125 25 
C 24.796875 25 17.703125 24.203125 12.09375 21.203125 
C 5.796875 17.703125 4 12.703125 4 8.90625 
C 4 1.203125 13 -1 18.296875 -1 
C 23.796875 -1 28.90625 2.171875 31.09375 7.984375 
C 31.296875 3.640625 34.09375 -0.28125 38.5 -0.28125 
C 40.59375 -0.28125 45.90625 1.09375 45.90625 8.859375 
L 45.90625 14.375 
L 44.09375 14.375 
L 44.09375 8.78125 
C 44.09375 2.78125 41.40625 2 40.09375 2 
C 36 2 36 7.15625 36 11.53125 
z
M 30.703125 13.59375 
C 30.703125 4.953125 24.5 0.59375 19 0.59375 
C 14 0.59375 10.09375 4.296875 10.09375 8.90625 
C 10.09375 11.890625 11.40625 17.1875 17.203125 20.390625 
C 22 23.09375 27.5 23.5 30.703125 23.5 
z
" id="CMR17-97"/>
     </defs>
     <use transform="scale(0.996264)" xlink:href="#CMR17-99"/>
     <use transform="translate(40.48566 0)scale(0.996264)" xlink:href="#CMR17-111"/>
     <use transform="translate(86.176138 0)scale(0.996264)" xlink:href="#CMR17-115"/>
     <use transform="translate(121.977475 0)scale(0.996264)" xlink:href="#CMR17-104"/>
     <use transform="translate(202.948811 0)scale(0.996264)" xlink:href="#CMR17-101"/>
     <use transform="translate(243.434472 0)scale(0.996264)" xlink:href="#CMR17-11"/>
     <use transform="translate(295.779149 0)scale(0.996264)" xlink:href="#CMR17-101"/>
     <use transform="translate(336.26481 0)scale(0.996264)" xlink:href="#CMR17-99"/>
     <use transform="translate(376.75047 0)scale(0.996264)" xlink:href="#CMR17-116"/>
     <use transform="translate(412.031238 0)scale(0.996264)" xlink:href="#CMR17-105"/>
     <use transform="translate(436.902296 0)scale(0.996264)" xlink:href="#CMR17-118"/>
     <use transform="translate(482.592758 0)scale(0.996264)" xlink:href="#CMR17-101"/>
     <use transform="translate(553.154385 0)scale(0.996264)" xlink:href="#CMR17-109"/>
     <use transform="translate(630.073975 0)scale(0.996264)" xlink:href="#CMR17-97"/>
     <use transform="translate(675.764452 0)scale(0.996264)" xlink:href="#CMR17-115"/>
     <use transform="translate(711.56579 0)scale(0.996264)" xlink:href="#CMR17-115"/>
    </g>
   </g>
  </g>
 </g>
 <defs>
  <clipPath id="p12e2551819">
   <rect height="209.664547" width="272.099701" x="76.865589" y="63.911226"/>
  </clipPath>
  <clipPath id="pb7821a41b3">
   <rect height="209.664547" width="272.099701" x="403.712799" y="63.911226"/>
  </clipPath>
 </defs>
</svg>
