<?xml version="1.0" encoding="utf-8" standalone="no"?>
<!DOCTYPE svg PUBLIC "-//W3C//DTD SVG 1.1//EN"
  "http://www.w3.org/Graphics/SVG/1.1/DTD/svg11.dtd">
<!-- Created with matplotlib (https://matplotlib.org/) -->
<svg height="504pt" version="1.1" viewBox="0 0 576 504" width="576pt" xmlns="http://www.w3.org/2000/svg" xmlns:xlink="http://www.w3.org/1999/xlink">
 <metadata>
  <rdf:RDF xmlns:cc="http://creativecommons.org/ns#" xmlns:dc="http://purl.org/dc/elements/1.1/" xmlns:rdf="http://www.w3.org/1999/02/22-rdf-syntax-ns#">
   <cc:Work>
    <dc:type rdf:resource="http://purl.org/dc/dcmitype/StillImage"/>
    <dc:date>2023-01-25T11:34:10.265256</dc:date>
    <dc:format>image/svg+xml</dc:format>
    <dc:creator>
     <cc:Agent>
      <dc:title>Matplotlib v3.3.4, https://matplotlib.org/</dc:title>
     </cc:Agent>
    </dc:creator>
   </cc:Work>
  </rdf:RDF>
 </metadata>
 <defs>
  <style type="text/css">*{stroke-linecap:butt;stroke-linejoin:round;}</style>
 </defs>
 <g id="figure_1">
  <g id="patch_1">
   <path d="M 0 504 
L 576 504 
L 576 0 
L 0 0 
z
" style="fill:#ffffff;"/>
  </g>
  <g id="axes_1">
   <g id="patch_2">
    <path d="M 57.33915 440.295773 
L 503.052876 440.295773 
L 503.052876 100.8 
L 57.33915 100.8 
z
" style="fill:#ffffff;"/>
   </g>
   <g id="matplotlib.axis_1">
    <g id="xtick_1">
     <g id="line2d_1">
      <defs>
       <path d="M 0 0 
L 0 3.5 
" id="mb74d1a2f00" style="stroke:#000000;stroke-width:0.8;"/>
      </defs>
      <g>
       <use style="stroke:#000000;stroke-width:0.8;" x="77.598864" xlink:href="#mb74d1a2f00" y="440.295773"/>
      </g>
     </g>
     <g id="text_1">
      <!-- $\mathdefault{0}$ -->
      <g transform="translate(73.696871 458.365361)scale(0.16 -0.16)">
       <defs>
        <path d="M 42 31.640625 
C 42 37.75 41.90625 48.125 37.703125 56.109375 
C 34 63.109375 28.09375 65.59375 22.90625 65.59375 
C 18.09375 65.59375 12 63.40625 8.203125 56.203125 
C 4.203125 48.71875 3.796875 39.4375 3.796875 31.640625 
C 3.796875 25.953125 3.90625 17.28125 7 9.671875 
C 11.296875 -0.609375 19 -2 22.90625 -2 
C 27.5 -2 34.5 -0.109375 38.59375 9.375 
C 41.59375 16.28125 42 24.359375 42 31.640625 
z
M 22.90625 -0.40625 
C 16.5 -0.40625 12.703125 5.078125 11.296875 12.6875 
C 10.203125 18.5625 10.203125 27.15625 10.203125 32.75 
C 10.203125 40.4375 10.203125 46.828125 11.5 52.921875 
C 13.40625 61.390625 19 64 22.90625 64 
C 27 64 32.296875 61.296875 34.203125 53.125 
C 35.5 47.4375 35.59375 40.734375 35.59375 32.75 
C 35.59375 26.25 35.59375 18.265625 34.40625 12.375 
C 32.296875 1.484375 26.40625 -0.40625 22.90625 -0.40625 
z
" id="CMR17-48"/>
       </defs>
       <use transform="scale(0.996264)" xlink:href="#CMR17-48"/>
      </g>
     </g>
    </g>
    <g id="xtick_2">
     <g id="line2d_2">
      <g>
       <use style="stroke:#000000;stroke-width:0.8;" x="141.91542" xlink:href="#mb74d1a2f00" y="440.295773"/>
      </g>
     </g>
     <g id="text_2">
      <!-- $\mathdefault{10}$ -->
      <g transform="translate(134.111433 458.365361)scale(0.16 -0.16)">
       <defs>
        <path d="M 26.59375 63.40625 
C 26.59375 65.5 26.5 65.5 25.09375 65.5 
C 21.203125 61.1875 15.296875 59.796875 9.703125 59.796875 
C 9.40625 59.796875 8.90625 59.796875 8.796875 59.5 
C 8.703125 59.296875 8.703125 59.09375 8.703125 57 
C 11.796875 57 17 57.59375 21 59.984375 
L 21 7.203125 
C 21 3.6875 20.796875 2.5 12.203125 2.5 
L 9.203125 2.5 
L 9.203125 0 
C 14 0 19 0 23.796875 0 
C 28.59375 0 33.59375 0 38.40625 0 
L 38.40625 2.5 
L 35.40625 2.5 
C 26.796875 2.5 26.59375 3.59375 26.59375 7.15625 
z
" id="CMR17-49"/>
       </defs>
       <use transform="scale(0.996264)" xlink:href="#CMR17-49"/>
       <use transform="translate(45.690477 0)scale(0.996264)" xlink:href="#CMR17-48"/>
      </g>
     </g>
    </g>
    <g id="xtick_3">
     <g id="line2d_3">
      <g>
       <use style="stroke:#000000;stroke-width:0.8;" x="206.231975" xlink:href="#mb74d1a2f00" y="440.295773"/>
      </g>
     </g>
     <g id="text_3">
      <!-- $\mathdefault{20}$ -->
      <g transform="translate(198.427988 458.365361)scale(0.16 -0.16)">
       <defs>
        <path d="M 41.703125 15.453125 
L 39.90625 15.453125 
C 38.90625 8.375 38.09375 7.171875 37.703125 6.5625 
C 37.203125 5.765625 30 5.765625 28.59375 5.765625 
L 9.40625 5.765625 
C 13 9.671875 20 16.75 28.5 24.953125 
C 34.59375 30.734375 41.703125 37.53125 41.703125 47.421875 
C 41.703125 59.21875 32.296875 66 21.796875 66 
C 10.796875 66 4.09375 56.3125 4.09375 47.34375 
C 4.09375 43.4375 7 42.9375 8.203125 42.9375 
C 9.203125 42.9375 12.203125 43.546875 12.203125 47.03125 
C 12.203125 50.109375 9.59375 51 8.203125 51 
C 7.59375 51 7 50.90625 6.59375 50.703125 
C 8.5 59.21875 14.296875 63.40625 20.40625 63.40625 
C 29.09375 63.40625 34.796875 56.515625 34.796875 47.421875 
C 34.796875 38.734375 29.703125 31.25 24 24.75 
L 4.09375 2.28125 
L 4.09375 0 
L 39.296875 0 
z
" id="CMR17-50"/>
       </defs>
       <use transform="scale(0.996264)" xlink:href="#CMR17-50"/>
       <use transform="translate(45.690477 0)scale(0.996264)" xlink:href="#CMR17-48"/>
      </g>
     </g>
    </g>
    <g id="xtick_4">
     <g id="line2d_4">
      <g>
       <use style="stroke:#000000;stroke-width:0.8;" x="270.54853" xlink:href="#mb74d1a2f00" y="440.295773"/>
      </g>
     </g>
     <g id="text_4">
      <!-- $\mathdefault{30}$ -->
      <g transform="translate(262.744543 458.365361)scale(0.16 -0.16)">
       <defs>
        <path d="M 22.09375 33.703125 
C 31 33.703125 34.90625 25.96875 34.90625 17.03125 
C 34.90625 5 28.5 0.390625 22.703125 0.390625 
C 17.40625 0.390625 8.796875 3.03125 6.09375 10.828125 
C 6.59375 10.625 7.09375 10.625 7.59375 10.625 
C 10 10.625 11.796875 12.21875 11.796875 14.8125 
C 11.796875 17.703125 9.59375 19 7.59375 19 
C 5.90625 19 3.296875 18.203125 3.296875 14.46875 
C 3.296875 5.234375 12.296875 -2 22.90625 -2 
C 34 -2 42.5 6.71875 42.5 16.953125 
C 42.5 26.671875 34.5 33.703125 25 34.796875 
C 32.59375 36.375 39.90625 43.0625 39.90625 52.015625 
C 39.90625 59.6875 32 65.296875 23 65.296875 
C 13.90625 65.296875 5.90625 59.828125 5.90625 52.015625 
C 5.90625 48.59375 8.5 48 9.796875 48 
C 11.90625 48 13.703125 49.296875 13.703125 51.890625 
C 13.703125 54.46875 11.90625 55.765625 9.796875 55.765625 
C 9.40625 55.765625 8.90625 55.765625 8.5 55.578125 
C 11.40625 61.859375 19.296875 63 22.796875 63 
C 26.296875 63 32.90625 61.328125 32.90625 51.875 
C 32.90625 49.109375 32.5 44.1875 29.09375 39.84375 
C 26.09375 36 22.703125 36 19.40625 35.6875 
C 18.90625 35.6875 16.59375 35.453125 16.203125 35.453125 
C 15.5 35.359375 15.09375 35.265625 15.09375 34.5 
C 15.09375 33.796875 15.203125 33.703125 17.203125 33.703125 
z
" id="CMR17-51"/>
       </defs>
       <use transform="scale(0.996264)" xlink:href="#CMR17-51"/>
       <use transform="translate(45.690477 0)scale(0.996264)" xlink:href="#CMR17-48"/>
      </g>
     </g>
    </g>
    <g id="xtick_5">
     <g id="line2d_5">
      <g>
       <use style="stroke:#000000;stroke-width:0.8;" x="334.865085" xlink:href="#mb74d1a2f00" y="440.295773"/>
      </g>
     </g>
     <g id="text_5">
      <!-- $\mathdefault{40}$ -->
      <g transform="translate(327.061098 458.365361)scale(0.16 -0.16)">
       <defs>
        <path d="M 33.59375 64.40625 
C 33.59375 66.5 33.5 66.5 31.703125 66.5 
L 2 19.59375 
L 2 17 
L 27.796875 17 
L 27.796875 7.140625 
C 27.796875 3.5 27.59375 2.5 20.59375 2.5 
L 18.703125 2.5 
L 18.703125 0 
C 21.90625 0 27.296875 0 30.703125 0 
C 34.09375 0 39.5 0 42.703125 0 
L 42.703125 2.5 
L 40.796875 2.5 
C 33.796875 2.5 33.59375 3.5 33.59375 7.140625 
L 33.59375 17 
L 43.796875 17 
L 43.796875 19.59375 
L 33.59375 19.59375 
z
M 28.09375 57.859375 
L 28.09375 19.59375 
L 4 19.59375 
z
" id="CMR17-52"/>
       </defs>
       <use transform="scale(0.996264)" xlink:href="#CMR17-52"/>
       <use transform="translate(45.690477 0)scale(0.996264)" xlink:href="#CMR17-48"/>
      </g>
     </g>
    </g>
    <g id="xtick_6">
     <g id="line2d_6">
      <g>
       <use style="stroke:#000000;stroke-width:0.8;" x="399.18164" xlink:href="#mb74d1a2f00" y="440.295773"/>
      </g>
     </g>
     <g id="text_6">
      <!-- $\mathdefault{50}$ -->
      <g transform="translate(391.377653 458.365361)scale(0.16 -0.16)">
       <defs>
        <path d="M 11.40625 57.6875 
C 12.40625 57.28125 16.5 56 20.703125 56 
C 30 56 35.09375 61.109375 38 64.0625 
C 38 64.953125 38 65.5 37.40625 65.5 
C 37.296875 65.5 37.09375 65.5 36.296875 65.046875 
C 32.796875 63.40625 28.703125 62.078125 23.703125 62.078125 
C 20.703125 62.078125 16.203125 62.484375 11.296875 64.671875 
C 10.203125 65.171875 10 65.171875 9.90625 65.171875 
C 9.40625 65.171875 9.296875 65.0625 9.296875 63.078125 
L 9.296875 34.421875 
C 9.296875 32.640625 9.296875 32.140625 10.296875 32.140625 
C 10.796875 32.140625 11 32.34375 11.5 33.03125 
C 14.703125 37.515625 19.09375 39.40625 24.09375 39.40625 
C 27.59375 39.40625 35.09375 37.21875 35.09375 20.140625 
C 35.09375 16.953125 35.09375 11.171875 32.09375 6.578125 
C 29.59375 2.484375 25.703125 0.390625 21.40625 0.390625 
C 14.796875 0.390625 8.09375 5 6.296875 12.71875 
C 6.703125 12.609375 7.5 12.421875 7.90625 12.421875 
C 9.203125 12.421875 11.703125 13.125 11.703125 16.21875 
C 11.703125 18.90625 9.796875 20 7.90625 20 
C 5.59375 20 4.09375 18.59375 4.09375 15.796875 
C 4.09375 7.09375 11 -2 21.59375 -2 
C 31.90625 -2 41.703125 6.875 41.703125 19.75 
C 41.703125 31.71875 33.90625 41 24.203125 41 
C 19.09375 41 14.796875 39.109375 11.40625 35.53125 
z
" id="CMR17-53"/>
       </defs>
       <use transform="scale(0.996264)" xlink:href="#CMR17-53"/>
       <use transform="translate(45.690477 0)scale(0.996264)" xlink:href="#CMR17-48"/>
      </g>
     </g>
    </g>
    <g id="xtick_7">
     <g id="line2d_7">
      <g>
       <use style="stroke:#000000;stroke-width:0.8;" x="463.498195" xlink:href="#mb74d1a2f00" y="440.295773"/>
      </g>
     </g>
     <g id="text_7">
      <!-- $\mathdefault{60}$ -->
      <g transform="translate(455.694208 458.365361)scale(0.16 -0.16)">
       <defs>
        <path d="M 10.59375 34 
C 10.59375 57.65625 21.796875 63 28.296875 63 
C 30.40625 63 35.5 62.640625 37.5 59 
C 35.90625 59 32.90625 59 32.90625 55.515625 
C 32.90625 52.828125 35.09375 51.921875 36.5 51.921875 
C 37.40625 51.921875 40.09375 52.3125 40.09375 55.625 
C 40.09375 61.78125 35.09375 65.296875 28.203125 65.296875 
C 16.296875 65.296875 3.796875 52.96875 3.796875 31 
C 3.796875 3.953125 15.09375 -2 23.09375 -2 
C 32.796875 -2 42 6.671875 42 20.046875 
C 42 32.515625 33.90625 41.59375 23.703125 41.59375 
C 17.59375 41.59375 13.09375 37.609375 10.59375 30.625 
z
M 23.09375 0.390625 
C 10.796875 0.390625 10.796875 18.75 10.796875 22.4375 
C 10.796875 29.625 14.203125 40 23.5 40 
C 25.203125 40 30.09375 40 33.40625 33.125 
C 35.203125 29.21875 35.203125 25.140625 35.203125 20.140625 
C 35.203125 14.75 35.203125 10.78125 33.09375 6.78125 
C 30.90625 2.671875 27.703125 0.390625 23.09375 0.390625 
z
" id="CMR17-54"/>
       </defs>
       <use transform="scale(0.996264)" xlink:href="#CMR17-54"/>
       <use transform="translate(45.690477 0)scale(0.996264)" xlink:href="#CMR17-48"/>
      </g>
     </g>
    </g>
    <g id="text_8">
     <!-- $t$ -->
     <g transform="translate(275.968853 482.069243)scale(0.24 -0.24)">
      <defs>
       <path d="M 20.09375 40.09375 
L 29.296875 40.09375 
C 31.203125 40.09375 32.203125 40.09375 32.203125 41.890625 
C 32.203125 43 31.59375 43 29.59375 43 
L 20.796875 43 
L 24.5 57.6875 
C 24.90625 59.078125 24.90625 59.28125 24.90625 60 
C 24.90625 61.609375 23.59375 62.5 22.296875 62.5 
C 21.5 62.5 19.203125 62.203125 18.40625 58.984375 
L 14.5 43 
L 5.09375 43 
C 3.09375 43 2.203125 43 2.203125 41.09375 
C 2.203125 40.09375 2.90625 40.09375 4.796875 40.09375 
L 13.703125 40.09375 
L 7.09375 13.765625 
C 6.296875 10.28125 6 9.28125 6 7.984375 
C 6 3.296875 9.296875 -1 14.90625 -1 
C 25 -1 30.40625 13.5625 30.40625 14.25 
C 30.40625 14.859375 30 15.15625 29.40625 15.15625 
C 29.203125 15.15625 28.796875 15.15625 28.59375 14.75 
C 28.5 14.65625 28.40625 14.546875 27.703125 12.953125 
C 25.59375 7.984375 21 1 15.203125 1 
C 12.203125 1 12 3.5 12 5.6875 
C 12 5.78125 12 7.6875 12.296875 8.875 
z
" id="CMMI12-116"/>
      </defs>
      <use transform="scale(0.996264)" xlink:href="#CMMI12-116"/>
     </g>
    </g>
   </g>
   <g id="matplotlib.axis_2">
    <g id="ytick_1">
     <g id="line2d_8">
      <defs>
       <path d="M 0 0 
L -3.5 0 
" id="m8ad1c656f8" style="stroke:#000000;stroke-width:0.8;"/>
      </defs>
      <g>
       <use style="stroke:#000000;stroke-width:0.8;" x="57.33915" xlink:href="#m8ad1c656f8" y="386.150865"/>
      </g>
     </g>
     <g id="text_9">
      <!-- $\mathdefault{1}$ -->
      <g transform="translate(42.535163 391.685659)scale(0.16 -0.16)">
       <use transform="scale(0.996264)" xlink:href="#CMR17-49"/>
      </g>
     </g>
    </g>
    <g id="ytick_2">
     <g id="line2d_9">
      <g>
       <use style="stroke:#000000;stroke-width:0.8;" x="57.33915" xlink:href="#m8ad1c656f8" y="320.403202"/>
      </g>
     </g>
     <g id="text_10">
      <!-- $\mathdefault{2}$ -->
      <g transform="translate(42.535163 325.937996)scale(0.16 -0.16)">
       <use transform="scale(0.996264)" xlink:href="#CMR17-50"/>
      </g>
     </g>
    </g>
    <g id="ytick_3">
     <g id="line2d_10">
      <g>
       <use style="stroke:#000000;stroke-width:0.8;" x="57.33915" xlink:href="#m8ad1c656f8" y="254.655538"/>
      </g>
     </g>
     <g id="text_11">
      <!-- $\mathdefault{3}$ -->
      <g transform="translate(42.535163 260.190332)scale(0.16 -0.16)">
       <use transform="scale(0.996264)" xlink:href="#CMR17-51"/>
      </g>
     </g>
    </g>
    <g id="ytick_4">
     <g id="line2d_11">
      <g>
       <use style="stroke:#000000;stroke-width:0.8;" x="57.33915" xlink:href="#m8ad1c656f8" y="188.907874"/>
      </g>
     </g>
     <g id="text_12">
      <!-- $\mathdefault{4}$ -->
      <g transform="translate(42.535163 194.442669)scale(0.16 -0.16)">
       <use transform="scale(0.996264)" xlink:href="#CMR17-52"/>
      </g>
     </g>
    </g>
    <g id="ytick_5">
     <g id="line2d_12">
      <g>
       <use style="stroke:#000000;stroke-width:0.8;" x="57.33915" xlink:href="#m8ad1c656f8" y="123.160211"/>
      </g>
     </g>
     <g id="text_13">
      <!-- $\mathdefault{5}$ -->
      <g transform="translate(42.535163 128.695005)scale(0.16 -0.16)">
       <use transform="scale(0.996264)" xlink:href="#CMR17-53"/>
      </g>
     </g>
    </g>
    <g id="text_14">
     <!-- $\tau_{\rm int}$ -->
     <g transform="translate(33.884405 285.418992)rotate(-90)scale(0.24 -0.24)">
      <defs>
       <path d="M 28.703125 37.625 
L 45.296875 37.625 
C 46.59375 37.625 49.90625 37.625 49.90625 40.8125 
C 49.90625 43 48 43 46.203125 43 
L 18.703125 43 
C 16.40625 43 13 43 8.40625 38.125 
C 5.796875 35.234375 2.59375 29.953125 2.59375 29.359375 
C 2.59375 28.765625 3.09375 28.5625 3.703125 28.5625 
C 4.40625 28.5625 4.5 28.859375 5 29.453125 
C 10.203125 37.625 15.40625 37.625 17.90625 37.625 
L 26.203125 37.625 
L 15.796875 3.484375 
C 15.296875 1.984375 15.296875 1.78125 15.296875 1.484375 
C 15.296875 0.390625 16 -1 18 -1 
C 21.09375 -1 21.59375 1.6875 21.90625 3.171875 
z
" id="CMMI12-28"/>
       <path d="M 15.5 61.078125 
C 15.5 63.265625 13.703125 65.15625 11.40625 65.15625 
C 9.203125 65.15625 7.296875 63.375 7.296875 61.078125 
C 7.296875 58.890625 9.09375 57 11.40625 57 
C 13.59375 57 15.5 58.796875 15.5 61.078125 
z
M 3.796875 42.28125 
L 3.796875 39.703125 
C 9.40625 39.703125 10.203125 39.09375 10.203125 34.328125 
L 10.203125 6.671875 
C 10.203125 2.875 9.796875 2.390625 3.40625 2.390625 
L 3.40625 -0.203125 
C 5.796875 0 10.09375 0 12.59375 0 
C 15 0 19.09375 0 21.40625 -0.203125 
L 21.40625 2.390625 
C 15.5 2.390625 15.296875 2.984375 15.296875 6.5625 
L 15.296875 43.375 
z
" id="CMR17-105"/>
       <path d="M 41.5 30.203125 
C 41.5 35.296875 40.5 43.59375 28.703125 43.59375 
C 20.796875 43.59375 16.703125 37.5 15.203125 33.5 
L 15.09375 33.5 
L 15.09375 43.59375 
L 3.296875 42.5 
L 3.296875 39.90625 
C 9.203125 39.90625 10.09375 39.296875 10.09375 34.5 
L 10.09375 6.6875 
C 10.09375 2.875 9.703125 2.390625 3.296875 2.390625 
L 3.296875 -0.203125 
C 5.703125 0 10.09375 0 12.703125 0 
C 15.296875 0 19.796875 0 22.203125 -0.203125 
L 22.203125 2.390625 
C 15.796875 2.390625 15.40625 2.78125 15.40625 6.6875 
L 15.40625 25.90625 
C 15.40625 35.109375 21 42 28 42 
C 35.40625 42 36.203125 35.40625 36.203125 30.59375 
L 36.203125 6.6875 
C 36.203125 2.875 35.796875 2.390625 29.40625 2.390625 
L 29.40625 -0.203125 
C 31.796875 0 36.203125 0 38.796875 0 
C 41.40625 0 45.90625 0 48.296875 -0.203125 
L 48.296875 2.390625 
C 41.90625 2.390625 41.5 2.78125 41.5 6.6875 
z
" id="CMR17-110"/>
       <path d="M 15.09375 40 
L 29.09375 40 
L 29.09375 42.578125 
L 15.09375 42.578125 
L 15.09375 61 
L 13.296875 61 
C 13.09375 50.703125 9.59375 41.6875 1.09375 41.6875 
L 1.09375 40 
L 9.796875 40 
L 9.796875 12.046875 
C 9.796875 10.15625 9.796875 -1 21.40625 -1 
C 27.296875 -1 30.703125 4.78125 30.703125 12.140625 
L 30.703125 17.8125 
L 28.90625 17.8125 
L 28.90625 12.234375 
C 28.90625 5.375 26.203125 0.796875 22 0.796875 
C 19.09375 0.796875 15.09375 2.78125 15.09375 11.84375 
z
" id="CMR17-116"/>
      </defs>
      <use transform="scale(0.996264)" xlink:href="#CMMI12-28"/>
      <use transform="translate(42.363841 -14.943915)scale(0.697382)" xlink:href="#CMR17-105"/>
      <use transform="translate(59.7735 -14.943915)scale(0.697382)" xlink:href="#CMR17-110"/>
      <use transform="translate(93.578387 -14.943915)scale(0.697382)" xlink:href="#CMR17-116"/>
     </g>
    </g>
   </g>
   <g id="LineCollection_1">
    <path clip-path="url(#p9c6719b38f)" d="M 77.598864 415.482294 
L 77.598864 396.402425 
" style="fill:none;stroke:#000000;stroke-width:2;"/>
    <path clip-path="url(#p9c6719b38f)" d="M 84.03052 415.77698 
L 84.03052 396.828156 
" style="fill:none;stroke:#000000;stroke-width:2;"/>
    <path clip-path="url(#p9c6719b38f)" d="M 90.462175 417.972247 
L 90.462175 400.011594 
" style="fill:none;stroke:#000000;stroke-width:2;"/>
    <path clip-path="url(#p9c6719b38f)" d="M 96.893831 422.382637 
L 96.893831 406.470964 
" style="fill:none;stroke:#000000;stroke-width:2;"/>
    <path clip-path="url(#p9c6719b38f)" d="M 103.325486 416.975745 
L 103.325486 398.563919 
" style="fill:none;stroke:#000000;stroke-width:2;"/>
    <path clip-path="url(#p9c6719b38f)" d="M 109.757142 412.745712 
L 109.757142 392.467025 
" style="fill:none;stroke:#000000;stroke-width:2;"/>
    <path clip-path="url(#p9c6719b38f)" d="M 116.188797 407.717312 
L 116.188797 380.421145 
" style="fill:none;stroke:#000000;stroke-width:2;"/>
    <path clip-path="url(#p9c6719b38f)" d="M 122.620453 397.899878 
L 122.620453 365.670789 
" style="fill:none;stroke:#000000;stroke-width:2;"/>
    <path clip-path="url(#p9c6719b38f)" d="M 129.052108 384.99004 
L 129.052108 339.826147 
" style="fill:none;stroke:#000000;stroke-width:2;"/>
    <path clip-path="url(#p9c6719b38f)" d="M 135.483764 379.520531 
L 135.483764 331.494908 
" style="fill:none;stroke:#000000;stroke-width:2;"/>
    <path clip-path="url(#p9c6719b38f)" d="M 141.91542 377.585396 
L 141.91542 328.576409 
" style="fill:none;stroke:#000000;stroke-width:2;"/>
    <path clip-path="url(#p9c6719b38f)" d="M 148.347075 366.592151 
L 148.347075 303.624211 
" style="fill:none;stroke:#000000;stroke-width:2;"/>
    <path clip-path="url(#p9c6719b38f)" d="M 154.778731 357.765454 
L 154.778731 290.005188 
" style="fill:none;stroke:#000000;stroke-width:2;"/>
    <path clip-path="url(#p9c6719b38f)" d="M 161.210386 346.408942 
L 161.210386 262.555019 
" style="fill:none;stroke:#000000;stroke-width:2;"/>
    <path clip-path="url(#p9c6719b38f)" d="M 167.642042 337.285786 
L 167.642042 248.333188 
" style="fill:none;stroke:#000000;stroke-width:2;"/>
    <path clip-path="url(#p9c6719b38f)" d="M 174.073697 329.666111 
L 174.073697 224.963991 
" style="fill:none;stroke:#000000;stroke-width:2;"/>
    <path clip-path="url(#p9c6719b38f)" d="M 180.505353 324.48841 
L 180.505353 216.713799 
" style="fill:none;stroke:#000000;stroke-width:2;"/>
    <path clip-path="url(#p9c6719b38f)" d="M 186.937008 317.80423 
L 186.937008 206.213753 
" style="fill:none;stroke:#000000;stroke-width:2;"/>
    <path clip-path="url(#p9c6719b38f)" d="M 193.368664 305.186596 
L 193.368664 173.090948 
" style="fill:none;stroke:#000000;stroke-width:2;"/>
    <path clip-path="url(#p9c6719b38f)" d="M 199.800319 292.777043 
L 199.800319 138.830614 
" style="fill:none;stroke:#000000;stroke-width:2;"/>
    <path clip-path="url(#p9c6719b38f)" d="M 206.231975 282.487383 
L 206.231975 122.191154 
" style="fill:none;stroke:#000000;stroke-width:2;"/>
    <path clip-path="url(#p9c6719b38f)" d="M 212.66363 278.742583 
L 212.66363 116.231626 
" style="fill:none;stroke:#000000;stroke-width:2;"/>
    <path clip-path="url(#p9c6719b38f)" d="M 219.095286 284.578945 
L 219.095286 125.541934 
" style="fill:none;stroke:#000000;stroke-width:2;"/>
    <path clip-path="url(#p9c6719b38f)" d="M 225.526941 292.749994 
L 225.526941 138.786361 
" style="fill:none;stroke:#000000;stroke-width:2;"/>
    <path clip-path="url(#p9c6719b38f)" d="M 231.958597 301.063522 
L 231.958597 166.532937 
" style="fill:none;stroke:#000000;stroke-width:2;"/>
    <path clip-path="url(#p9c6719b38f)" d="M 238.390252 304.681126 
L 238.390252 172.283562 
" style="fill:none;stroke:#000000;stroke-width:2;"/>
    <path clip-path="url(#p9c6719b38f)" d="M 244.821908 309.646887 
L 244.821908 180.25678 
" style="fill:none;stroke:#000000;stroke-width:2;"/>
    <path clip-path="url(#p9c6719b38f)" d="M 251.253563 317.135533 
L 251.253563 205.172588 
" style="fill:none;stroke:#000000;stroke-width:2;"/>
    <path clip-path="url(#p9c6719b38f)" d="M 257.685219 319.869579 
L 257.685219 209.440144 
" style="fill:none;stroke:#000000;stroke-width:2;"/>
    <path clip-path="url(#p9c6719b38f)" d="M 264.116874 323.1775 
L 264.116874 214.641185 
" style="fill:none;stroke:#000000;stroke-width:2;"/>
    <path clip-path="url(#p9c6719b38f)" d="M 270.54853 333.780782 
L 270.54853 231.593577 
" style="fill:none;stroke:#000000;stroke-width:2;"/>
    <path clip-path="url(#p9c6719b38f)" d="M 276.980185 341.547612 
L 276.980185 254.936768 
" style="fill:none;stroke:#000000;stroke-width:2;"/>
    <path clip-path="url(#p9c6719b38f)" d="M 283.411841 354.481167 
L 283.411841 285.016302 
" style="fill:none;stroke:#000000;stroke-width:2;"/>
    <path clip-path="url(#p9c6719b38f)" d="M 289.843496 360.909685 
L 289.843496 294.821152 
" style="fill:none;stroke:#000000;stroke-width:2;"/>
    <path clip-path="url(#p9c6719b38f)" d="M 296.275152 357.722514 
L 296.275152 289.939687 
" style="fill:none;stroke:#000000;stroke-width:2;"/>
    <path clip-path="url(#p9c6719b38f)" d="M 302.706807 330.026177 
L 302.706807 225.541534 
" style="fill:none;stroke:#000000;stroke-width:2;"/>
    <path clip-path="url(#p9c6719b38f)" d="M 309.138463 317.02634 
L 309.138463 205.002735 
" style="fill:none;stroke:#000000;stroke-width:2;"/>
    <path clip-path="url(#p9c6719b38f)" d="M 315.570118 307.335856 
L 315.570118 176.534612 
" style="fill:none;stroke:#000000;stroke-width:2;"/>
    <path clip-path="url(#p9c6719b38f)" d="M 322.001774 302.986765 
L 322.001774 169.58411 
" style="fill:none;stroke:#000000;stroke-width:2;"/>
    <path clip-path="url(#p9c6719b38f)" d="M 328.433429 299.811659 
L 328.433429 164.55426 
" style="fill:none;stroke:#000000;stroke-width:2;"/>
    <path clip-path="url(#p9c6719b38f)" d="M 334.865085 298.946057 
L 334.865085 163.189493 
" style="fill:none;stroke:#000000;stroke-width:2;"/>
    <path clip-path="url(#p9c6719b38f)" d="M 341.29674 300.560764 
L 341.29674 165.737589 
" style="fill:none;stroke:#000000;stroke-width:2;"/>
    <path clip-path="url(#p9c6719b38f)" d="M 347.728396 304.568526 
L 347.728396 172.103836 
" style="fill:none;stroke:#000000;stroke-width:2;"/>
    <path clip-path="url(#p9c6719b38f)" d="M 354.160051 309.033351 
L 354.160051 179.266659 
" style="fill:none;stroke:#000000;stroke-width:2;"/>
    <path clip-path="url(#p9c6719b38f)" d="M 360.591707 312.114058 
L 360.591707 184.252598 
" style="fill:none;stroke:#000000;stroke-width:2;"/>
    <path clip-path="url(#p9c6719b38f)" d="M 367.023362 311.584952 
L 367.023362 183.393728 
" style="fill:none;stroke:#000000;stroke-width:2;"/>
    <path clip-path="url(#p9c6719b38f)" d="M 373.455018 312.392013 
L 373.455018 184.704211 
" style="fill:none;stroke:#000000;stroke-width:2;"/>
    <path clip-path="url(#p9c6719b38f)" d="M 379.886673 315.022834 
L 379.886673 188.993172 
" style="fill:none;stroke:#000000;stroke-width:2;"/>
    <path clip-path="url(#p9c6719b38f)" d="M 386.318329 314.002187 
L 386.318329 187.326124 
" style="fill:none;stroke:#000000;stroke-width:2;"/>
    <path clip-path="url(#p9c6719b38f)" d="M 392.749984 314.412345 
L 392.749984 187.99557 
" style="fill:none;stroke:#000000;stroke-width:2;"/>
    <path clip-path="url(#p9c6719b38f)" d="M 399.18164 319.712145 
L 399.18164 209.193642 
" style="fill:none;stroke:#000000;stroke-width:2;"/>
    <path clip-path="url(#p9c6719b38f)" d="M 405.613295 326.823824 
L 405.613295 220.4224 
" style="fill:none;stroke:#000000;stroke-width:2;"/>
    <path clip-path="url(#p9c6719b38f)" d="M 412.044951 335.924083 
L 412.044951 246.238 
" style="fill:none;stroke:#000000;stroke-width:2;"/>
    <path clip-path="url(#p9c6719b38f)" d="M 418.476606 348.855386 
L 418.476606 266.423633 
" style="fill:none;stroke:#000000;stroke-width:2;"/>
    <path clip-path="url(#p9c6719b38f)" d="M 424.908262 360.649716 
L 424.908262 294.421481 
" style="fill:none;stroke:#000000;stroke-width:2;"/>
    <path clip-path="url(#p9c6719b38f)" d="M 431.339918 374.873943 
L 431.339918 324.512623 
" style="fill:none;stroke:#000000;stroke-width:2;"/>
    <path clip-path="url(#p9c6719b38f)" d="M 437.771573 393.204269 
L 437.771573 358.758842 
" style="fill:none;stroke:#000000;stroke-width:2;"/>
    <path clip-path="url(#p9c6719b38f)" d="M 444.203229 403.492289 
L 444.203229 374.023478 
" style="fill:none;stroke:#000000;stroke-width:2;"/>
    <path clip-path="url(#p9c6719b38f)" d="M 450.634884 408.559999 
L 450.634884 381.706179 
" style="fill:none;stroke:#000000;stroke-width:2;"/>
    <path clip-path="url(#p9c6719b38f)" d="M 457.06654 410.078409 
L 457.06654 388.662748 
" style="fill:none;stroke:#000000;stroke-width:2;"/>
    <path clip-path="url(#p9c6719b38f)" d="M 463.498195 414.050303 
L 463.498195 394.339037 
" style="fill:none;stroke:#000000;stroke-width:2;"/>
    <path clip-path="url(#p9c6719b38f)" d="M 469.929851 416.739291 
L 469.929851 398.221046 
" style="fill:none;stroke:#000000;stroke-width:2;"/>
    <path clip-path="url(#p9c6719b38f)" d="M 476.361506 419.649649 
L 476.361506 402.458259 
" style="fill:none;stroke:#000000;stroke-width:2;"/>
    <path clip-path="url(#p9c6719b38f)" d="M 482.793162 424.864147 
L 482.793162 413.357728 
" style="fill:none;stroke:#000000;stroke-width:2;"/>
   </g>
   <g id="line2d_13">
    <path clip-path="url(#p9c6719b38f)" d="M 77.598864 405.942359 
L 84.03052 406.302568 
L 90.462175 408.991921 
L 96.893831 414.426801 
L 103.325486 407.769832 
L 109.757142 402.606368 
L 116.188797 394.069229 
L 122.620453 381.785334 
L 129.052108 362.408093 
L 135.483764 355.50772 
L 141.91542 353.080902 
L 148.347075 335.108181 
L 154.778731 323.885321 
L 161.210386 304.48198 
L 167.642042 292.809487 
L 174.073697 277.315051 
L 180.505353 270.601104 
L 186.937008 262.008992 
L 193.368664 239.138772 
L 199.800319 215.803829 
L 206.231975 202.339268 
L 212.66363 197.487104 
L 219.095286 205.06044 
L 225.526941 215.768178 
L 231.958597 233.79823 
L 238.390252 238.482344 
L 244.821908 244.951834 
L 251.253563 261.154061 
L 257.685219 264.654862 
L 264.116874 268.909342 
L 270.54853 282.687179 
L 276.980185 298.24219 
L 283.411841 319.748734 
L 289.843496 327.865419 
L 296.275152 323.8311 
L 302.706807 277.783855 
L 309.138463 261.014538 
L 315.570118 241.935234 
L 322.001774 236.285437 
L 328.433429 232.182959 
L 334.865085 231.067775 
L 341.29674 233.149177 
L 347.728396 238.336181 
L 354.160051 244.150005 
L 360.591707 248.183328 
L 367.023362 247.48934 
L 373.455018 248.548112 
L 379.886673 252.008003 
L 386.318329 250.664155 
L 392.749984 251.203957 
L 399.18164 264.452893 
L 405.613295 273.623112 
L 412.044951 291.081041 
L 418.476606 307.639509 
L 424.908262 327.535598 
L 431.339918 349.693283 
L 437.771573 375.981556 
L 444.203229 388.757883 
L 450.634884 395.133089 
L 457.06654 399.370578 
L 463.498195 404.19467 
L 469.929851 407.480169 
L 476.361506 411.053954 
L 482.793162 419.110937 
" style="fill:none;stroke:#000000;stroke-linecap:square;stroke-width:2;"/>
   </g>
   <g id="patch_3">
    <path d="M 57.33915 440.295773 
L 57.33915 100.8 
" style="fill:none;stroke:#000000;stroke-linecap:square;stroke-linejoin:miter;stroke-width:0.8;"/>
   </g>
   <g id="patch_4">
    <path d="M 503.052876 440.295773 
L 503.052876 100.8 
" style="fill:none;stroke:#000000;stroke-linecap:square;stroke-linejoin:miter;stroke-width:0.8;"/>
   </g>
   <g id="patch_5">
    <path d="M 57.33915 440.295773 
L 503.052876 440.295773 
" style="fill:none;stroke:#000000;stroke-linecap:square;stroke-linejoin:miter;stroke-width:0.8;"/>
   </g>
   <g id="patch_6">
    <path d="M 57.33915 100.8 
L 503.052876 100.8 
" style="fill:none;stroke:#000000;stroke-linecap:square;stroke-linejoin:miter;stroke-width:0.8;"/>
   </g>
  </g>
  <g id="axes_2">
   <g id="matplotlib.axis_3">
    <g id="ytick_6">
     <g id="line2d_14">
      <defs>
       <path d="M 0 0 
L 3.5 0 
" id="m1a814b5784" style="stroke:#000000;stroke-width:0.8;"/>
      </defs>
      <g>
       <use style="stroke:#000000;stroke-width:0.8;" x="503.052876" xlink:href="#m1a814b5784" y="395.330807"/>
      </g>
     </g>
     <g id="text_15">
      <!-- $\mathdefault{50}$ -->
      <g transform="translate(510.052876 400.865601)scale(0.16 -0.16)">
       <use transform="scale(0.996264)" xlink:href="#CMR17-53"/>
       <use transform="translate(45.690477 0)scale(0.996264)" xlink:href="#CMR17-48"/>
      </g>
     </g>
    </g>
    <g id="ytick_7">
     <g id="line2d_15">
      <g>
       <use style="stroke:#000000;stroke-width:0.8;" x="503.052876" xlink:href="#m1a814b5784" y="340.909775"/>
      </g>
     </g>
     <g id="text_16">
      <!-- $\mathdefault{100}$ -->
      <g transform="translate(510.052876 346.444569)scale(0.16 -0.16)">
       <use transform="scale(0.996264)" xlink:href="#CMR17-49"/>
       <use transform="translate(45.690477 0)scale(0.996264)" xlink:href="#CMR17-48"/>
       <use transform="translate(91.380954 0)scale(0.996264)" xlink:href="#CMR17-48"/>
      </g>
     </g>
    </g>
    <g id="ytick_8">
     <g id="line2d_16">
      <g>
       <use style="stroke:#000000;stroke-width:0.8;" x="503.052876" xlink:href="#m1a814b5784" y="286.488742"/>
      </g>
     </g>
     <g id="text_17">
      <!-- $\mathdefault{150}$ -->
      <g transform="translate(510.052876 292.023536)scale(0.16 -0.16)">
       <use transform="scale(0.996264)" xlink:href="#CMR17-49"/>
       <use transform="translate(45.690477 0)scale(0.996264)" xlink:href="#CMR17-53"/>
       <use transform="translate(91.380954 0)scale(0.996264)" xlink:href="#CMR17-48"/>
      </g>
     </g>
    </g>
    <g id="ytick_9">
     <g id="line2d_17">
      <g>
       <use style="stroke:#000000;stroke-width:0.8;" x="503.052876" xlink:href="#m1a814b5784" y="232.067709"/>
      </g>
     </g>
     <g id="text_18">
      <!-- $\mathdefault{200}$ -->
      <g transform="translate(510.052876 237.602503)scale(0.16 -0.16)">
       <use transform="scale(0.996264)" xlink:href="#CMR17-50"/>
       <use transform="translate(45.690477 0)scale(0.996264)" xlink:href="#CMR17-48"/>
       <use transform="translate(91.380954 0)scale(0.996264)" xlink:href="#CMR17-48"/>
      </g>
     </g>
    </g>
    <g id="ytick_10">
     <g id="line2d_18">
      <g>
       <use style="stroke:#000000;stroke-width:0.8;" x="503.052876" xlink:href="#m1a814b5784" y="177.646677"/>
      </g>
     </g>
     <g id="text_19">
      <!-- $\mathdefault{250}$ -->
      <g transform="translate(510.052876 183.181471)scale(0.16 -0.16)">
       <use transform="scale(0.996264)" xlink:href="#CMR17-50"/>
       <use transform="translate(45.690477 0)scale(0.996264)" xlink:href="#CMR17-53"/>
       <use transform="translate(91.380954 0)scale(0.996264)" xlink:href="#CMR17-48"/>
      </g>
     </g>
    </g>
    <g id="ytick_11">
     <g id="line2d_19">
      <g>
       <use style="stroke:#000000;stroke-width:0.8;" x="503.052876" xlink:href="#m1a814b5784" y="123.225644"/>
      </g>
     </g>
     <g id="text_20">
      <!-- $\mathdefault{300}$ -->
      <g transform="translate(510.052876 128.760438)scale(0.16 -0.16)">
       <use transform="scale(0.996264)" xlink:href="#CMR17-51"/>
       <use transform="translate(45.690477 0)scale(0.996264)" xlink:href="#CMR17-48"/>
       <use transform="translate(91.380954 0)scale(0.996264)" xlink:href="#CMR17-48"/>
      </g>
     </g>
    </g>
    <g id="text_21">
     <!-- $N_{\rm ind}$ -->
     <g style="fill:#0000ff;" transform="translate(554.069243 291.302454)rotate(-90)scale(0.24 -0.24)">
      <defs>
       <path d="M 74 57.78125 
C 75.09375 62.09375 76.703125 65.09375 84.296875 65.09375 
C 84.59375 65.09375 85.796875 65.09375 85.796875 66.859375 
C 85.796875 68 84.90625 68 84.5 68 
C 82.5 68 77.40625 68 75.40625 68 
L 70.59375 68 
C 69.203125 68 67.40625 68 66 68 
C 65.40625 68 64.203125 68 64.203125 66.09375 
C 64.203125 65.09375 65 65.09375 65.703125 65.09375 
C 71.703125 65.09375 72.09375 62.796875 72.09375 60.984375 
C 72.09375 60.09375 72 59.78125 71.703125 58.390625 
L 60.40625 13.28125 
L 39 66.390625 
C 38.296875 68 38.203125 68 36 68 
L 23.796875 68 
C 21.796875 68 20.90625 68 20.90625 66.09375 
C 20.90625 65.09375 21.59375 65.09375 23.5 65.09375 
C 24 65.09375 29.90625 65.09375 29.90625 64.296875 
C 29.90625 64.09375 29.703125 63.296875 29.59375 63 
L 16.296875 9.921875 
C 15.09375 5 12.703125 2.90625 6.09375 2.90625 
C 5.59375 2.90625 4.59375 2.90625 4.59375 1.046875 
C 4.59375 0 5.59375 0 5.90625 0 
C 7.90625 0 13 0 15 0 
L 19.796875 0 
C 21.203125 0 22.90625 0 24.296875 0 
C 25 0 26.09375 0 26.09375 1.90625 
C 26.09375 2.8125 25.09375 2.90625 24.703125 2.90625 
C 21.40625 2.90625 18.203125 3.5 18.203125 7.09375 
C 18.203125 7.890625 18.40625 8.78125 18.59375 9.578125 
L 32.09375 63 
C 32.703125 62 32.703125 61.8125 33.09375 60.90625 
L 56.90625 1.796875 
C 57.40625 0.59375 57.59375 0 58.5 0 
C 59.5 0 59.59375 0.296875 60 2 
z
" id="CMMI12-78"/>
       <path d="M 29.203125 67.59375 
L 29.203125 65 
C 35.09375 65 36 64.40625 36 59.6875 
L 36 36.640625 
C 35.59375 37.140625 31.5 43.59375 23.40625 43.59375 
C 13.203125 43.59375 3.296875 34.5 3.296875 21.3125 
C 3.296875 8.203125 12.59375 -1 22.40625 -1 
C 30.90625 -1 35.296875 5.265625 35.796875 5.9375 
L 35.796875 -0.984375 
L 47.90625 -0.984375 
L 47.90625 2 
C 42 2 41.09375 2.59375 41.09375 7.390625 
L 41.09375 68.6875 
z
M 35.796875 11.796875 
C 35.796875 8.796875 34 6.09375 31.703125 4.09375 
C 28.296875 1.09375 24.90625 0.59375 23 0.59375 
C 20.09375 0.59375 9.703125 2.09375 9.703125 21.1875 
C 9.703125 40.8125 21.296875 42 23.90625 42 
C 28.5 42 32.203125 39.40625 34.5 35.796875 
C 35.796875 33.703125 35.796875 33.40625 35.796875 31.609375 
z
" id="CMR17-100"/>
      </defs>
      <use transform="scale(0.996264)" xlink:href="#CMMI12-78"/>
      <use transform="translate(78.115119 -14.943915)scale(0.697382)" xlink:href="#CMR17-105"/>
      <use transform="translate(95.524778 -14.943915)scale(0.697382)" xlink:href="#CMR17-110"/>
      <use transform="translate(131.151386 -14.943915)scale(0.697382)" xlink:href="#CMR17-100"/>
     </g>
    </g>
   </g>
   <g id="LineCollection_2">
    <path clip-path="url(#p9c6719b38f)" d="M 77.598864 289.343167 
L 77.598864 205.298877 
" style="fill:none;stroke:#0000ff;stroke-width:2;"/>
    <path clip-path="url(#p9c6719b38f)" d="M 84.03052 288.117337 
L 84.03052 203.326295 
" style="fill:none;stroke:#0000ff;stroke-width:2;"/>
    <path clip-path="url(#p9c6719b38f)" d="M 90.462175 278.313343 
L 90.462175 187.553404 
" style="fill:none;stroke:#0000ff;stroke-width:2;"/>
    <path clip-path="url(#p9c6719b38f)" d="M 96.893831 254.196845 
L 96.893831 148.775424 
" style="fill:none;stroke:#0000ff;stroke-width:2;"/>
    <path clip-path="url(#p9c6719b38f)" d="M 103.325486 282.916865 
L 103.325486 194.958912 
" style="fill:none;stroke:#0000ff;stroke-width:2;"/>
    <path clip-path="url(#p9c6719b38f)" d="M 109.757142 299.842823 
L 109.757142 222.199416 
" style="fill:none;stroke:#0000ff;stroke-width:2;"/>
    <path clip-path="url(#p9c6719b38f)" d="M 116.188797 326.848907 
L 116.188797 250.91666 
" style="fill:none;stroke:#0000ff;stroke-width:2;"/>
    <path clip-path="url(#p9c6719b38f)" d="M 122.620453 347.562913 
L 122.620453 286.571461 
" style="fill:none;stroke:#0000ff;stroke-width:2;"/>
    <path clip-path="url(#p9c6719b38f)" d="M 129.052108 372.029042 
L 129.052108 319.565382 
" style="fill:none;stroke:#0000ff;stroke-width:2;"/>
    <path clip-path="url(#p9c6719b38f)" d="M 135.483764 377.282257 
L 135.483764 329.195863 
" style="fill:none;stroke:#0000ff;stroke-width:2;"/>
    <path clip-path="url(#p9c6719b38f)" d="M 141.91542 378.95446 
L 141.91542 332.264087 
" style="fill:none;stroke:#0000ff;stroke-width:2;"/>
    <path clip-path="url(#p9c6719b38f)" d="M 148.347075 391.56992 
L 148.347075 348.623593 
" style="fill:none;stroke:#0000ff;stroke-width:2;"/>
    <path clip-path="url(#p9c6719b38f)" d="M 154.778731 396.313478 
L 154.778731 357.846684 
" style="fill:none;stroke:#0000ff;stroke-width:2;"/>
    <path clip-path="url(#p9c6719b38f)" d="M 161.210386 404.593542 
L 161.210386 368.697104 
" style="fill:none;stroke:#0000ff;stroke-width:2;"/>
    <path clip-path="url(#p9c6719b38f)" d="M 167.642042 407.623648 
L 167.642042 374.927351 
" style="fill:none;stroke:#0000ff;stroke-width:2;"/>
    <path clip-path="url(#p9c6719b38f)" d="M 174.073697 412.44396 
L 174.073697 380.486692 
" style="fill:none;stroke:#0000ff;stroke-width:2;"/>
    <path clip-path="url(#p9c6719b38f)" d="M 180.505353 413.690563 
L 180.505353 383.186784 
" style="fill:none;stroke:#0000ff;stroke-width:2;"/>
    <path clip-path="url(#p9c6719b38f)" d="M 186.937008 415.155617 
L 186.937008 386.365362 
" style="fill:none;stroke:#0000ff;stroke-width:2;"/>
    <path clip-path="url(#p9c6719b38f)" d="M 193.368664 419.600479 
L 193.368664 392.45297 
" style="fill:none;stroke:#0000ff;stroke-width:2;"/>
    <path clip-path="url(#p9c6719b38f)" d="M 199.800319 423.194975 
L 199.800319 397.501811 
" style="fill:none;stroke:#0000ff;stroke-width:2;"/>
    <path clip-path="url(#p9c6719b38f)" d="M 206.231975 424.446332 
L 206.231975 400.50235 
" style="fill:none;stroke:#0000ff;stroke-width:2;"/>
    <path clip-path="url(#p9c6719b38f)" d="M 212.66363 424.864147 
L 212.66363 401.506457 
" style="fill:none;stroke:#0000ff;stroke-width:2;"/>
    <path clip-path="url(#p9c6719b38f)" d="M 219.095286 424.204665 
L 219.095286 399.922115 
" style="fill:none;stroke:#0000ff;stroke-width:2;"/>
    <path clip-path="url(#p9c6719b38f)" d="M 225.526941 423.198481 
L 225.526941 397.510204 
" style="fill:none;stroke:#0000ff;stroke-width:2;"/>
    <path clip-path="url(#p9c6719b38f)" d="M 231.958597 420.252651 
L 231.958597 393.94216 
" style="fill:none;stroke:#0000ff;stroke-width:2;"/>
    <path clip-path="url(#p9c6719b38f)" d="M 238.390252 419.68243 
L 238.390252 392.639999 
" style="fill:none;stroke:#0000ff;stroke-width:2;"/>
    <path clip-path="url(#p9c6719b38f)" d="M 244.821908 418.851679 
L 244.821908 390.745323 
" style="fill:none;stroke:#0000ff;stroke-width:2;"/>
    <path clip-path="url(#p9c6719b38f)" d="M 251.253563 415.294067 
L 251.253563 386.666077 
" style="fill:none;stroke:#0000ff;stroke-width:2;"/>
    <path clip-path="url(#p9c6719b38f)" d="M 257.685219 414.719 
L 257.685219 385.417421 
" style="fill:none;stroke:#0000ff;stroke-width:2;"/>
    <path clip-path="url(#p9c6719b38f)" d="M 264.116874 413.990062 
L 264.116874 383.83608 
" style="fill:none;stroke:#0000ff;stroke-width:2;"/>
    <path clip-path="url(#p9c6719b38f)" d="M 270.54853 411.374345 
L 270.54853 378.172822 
" style="fill:none;stroke:#0000ff;stroke-width:2;"/>
    <path clip-path="url(#p9c6719b38f)" d="M 276.980185 406.271249 
L 276.980185 372.144749 
" style="fill:none;stroke:#0000ff;stroke-width:2;"/>
    <path clip-path="url(#p9c6719b38f)" d="M 283.411841 397.857041 
L 283.411841 360.852701 
" style="fill:none;stroke:#0000ff;stroke-width:2;"/>
    <path clip-path="url(#p9c6719b38f)" d="M 289.843496 394.730226 
L 289.843496 354.76601 
" style="fill:none;stroke:#0000ff;stroke-width:2;"/>
    <path clip-path="url(#p9c6719b38f)" d="M 296.275152 396.334362 
L 296.275152 357.887336 
" style="fill:none;stroke:#0000ff;stroke-width:2;"/>
    <path clip-path="url(#p9c6719b38f)" d="M 302.706807 412.353278 
L 302.706807 380.290425 
" style="fill:none;stroke:#0000ff;stroke-width:2;"/>
    <path clip-path="url(#p9c6719b38f)" d="M 309.138463 415.316542 
L 309.138463 386.714899 
" style="fill:none;stroke:#0000ff;stroke-width:2;"/>
    <path clip-path="url(#p9c6719b38f)" d="M 315.570118 419.245517 
L 315.570118 391.643198 
" style="fill:none;stroke:#0000ff;stroke-width:2;"/>
    <path clip-path="url(#p9c6719b38f)" d="M 322.001774 419.95301 
L 322.001774 393.257719 
" style="fill:none;stroke:#0000ff;stroke-width:2;"/>
    <path clip-path="url(#p9c6719b38f)" d="M 328.433429 420.443548 
L 328.433429 394.378423 
" style="fill:none;stroke:#0000ff;stroke-width:2;"/>
    <path clip-path="url(#p9c6719b38f)" d="M 334.865085 420.573684 
L 334.865085 394.675925 
" style="fill:none;stroke:#0000ff;stroke-width:2;"/>
    <path clip-path="url(#p9c6719b38f)" d="M 341.29674 420.329703 
L 341.29674 394.118228 
" style="fill:none;stroke:#0000ff;stroke-width:2;"/>
    <path clip-path="url(#p9c6719b38f)" d="M 347.728396 419.700608 
L 347.728396 392.681488 
" style="fill:none;stroke:#0000ff;stroke-width:2;"/>
    <path clip-path="url(#p9c6719b38f)" d="M 354.160051 418.957497 
L 354.160051 390.98651 
" style="fill:none;stroke:#0000ff;stroke-width:2;"/>
    <path clip-path="url(#p9c6719b38f)" d="M 360.591707 418.416637 
L 360.591707 389.754192 
" style="fill:none;stroke:#0000ff;stroke-width:2;"/>
    <path clip-path="url(#p9c6719b38f)" d="M 367.023362 418.511243 
L 367.023362 389.96967 
" style="fill:none;stroke:#0000ff;stroke-width:2;"/>
    <path clip-path="url(#p9c6719b38f)" d="M 373.455018 418.366646 
L 373.455018 389.640344 
" style="fill:none;stroke:#0000ff;stroke-width:2;"/>
    <path clip-path="url(#p9c6719b38f)" d="M 379.886673 417.883285 
L 379.886673 388.539995 
" style="fill:none;stroke:#0000ff;stroke-width:2;"/>
    <path clip-path="url(#p9c6719b38f)" d="M 386.318329 418.07303 
L 386.318329 388.971844 
" style="fill:none;stroke:#0000ff;stroke-width:2;"/>
    <path clip-path="url(#p9c6719b38f)" d="M 392.749984 417.997122 
L 392.749984 388.799068 
" style="fill:none;stroke:#0000ff;stroke-width:2;"/>
    <path clip-path="url(#p9c6719b38f)" d="M 399.18164 414.75277 
L 399.18164 385.490718 
" style="fill:none;stroke:#0000ff;stroke-width:2;"/>
    <path clip-path="url(#p9c6719b38f)" d="M 405.613295 413.141226 
L 405.613295 381.996467 
" style="fill:none;stroke:#0000ff;stroke-width:2;"/>
    <path clip-path="url(#p9c6719b38f)" d="M 412.044951 408.034538 
L 412.044951 375.773453 
" style="fill:none;stroke:#0000ff;stroke-width:2;"/>
    <path clip-path="url(#p9c6719b38f)" d="M 418.476606 403.688694 
L 418.476606 366.839412 
" style="fill:none;stroke:#0000ff;stroke-width:2;"/>
    <path clip-path="url(#p9c6719b38f)" d="M 424.908262 394.865309 
L 424.908262 355.028758 
" style="fill:none;stroke:#0000ff;stroke-width:2;"/>
    <path clip-path="url(#p9c6719b38f)" d="M 431.339918 381.155105 
L 431.339918 336.304202 
" style="fill:none;stroke:#0000ff;stroke-width:2;"/>
    <path clip-path="url(#p9c6719b38f)" d="M 437.771573 355.010764 
L 437.771573 299.410833 
" style="fill:none;stroke:#0000ff;stroke-width:2;"/>
    <path clip-path="url(#p9c6719b38f)" d="M 444.203229 336.79728 
L 444.203229 268.032663 
" style="fill:none;stroke:#0000ff;stroke-width:2;"/>
    <path clip-path="url(#p9c6719b38f)" d="M 450.634884 324.631876 
L 450.634884 247.103886 
" style="fill:none;stroke:#0000ff;stroke-width:2;"/>
    <path clip-path="url(#p9c6719b38f)" d="M 457.06654 308.749989 
L 457.06654 236.544365 
" style="fill:none;stroke:#0000ff;stroke-width:2;"/>
    <path clip-path="url(#p9c6719b38f)" d="M 463.498195 295.027387 
L 463.498195 214.44726 
" style="fill:none;stroke:#0000ff;stroke-width:2;"/>
    <path clip-path="url(#p9c6719b38f)" d="M 469.929851 283.9708 
L 469.929851 196.654517 
" style="fill:none;stroke:#0000ff;stroke-width:2;"/>
    <path clip-path="url(#p9c6719b38f)" d="M 476.361506 269.920107 
L 476.361506 174.054528 
" style="fill:none;stroke:#0000ff;stroke-width:2;"/>
    <path clip-path="url(#p9c6719b38f)" d="M 482.793162 215.804633 
L 482.793162 116.231626 
" style="fill:none;stroke:#0000ff;stroke-width:2;"/>
   </g>
   <g id="line2d_20">
    <path clip-path="url(#p9c6719b38f)" d="M 77.598864 247.321022 
L 84.03052 245.721816 
L 90.462175 232.933373 
L 96.893831 201.486134 
L 103.325486 238.937889 
L 109.757142 261.021119 
L 116.188797 288.882783 
L 122.620453 317.067187 
L 129.052108 345.797212 
L 135.483764 353.23906 
L 141.91542 355.609274 
L 148.347075 370.096756 
L 154.778731 377.080081 
L 161.210386 386.645323 
L 167.642042 391.2755 
L 174.073697 396.465326 
L 180.505353 398.438673 
L 186.937008 400.760489 
L 193.368664 406.026724 
L 199.800319 410.348393 
L 206.231975 412.474341 
L 212.66363 413.185302 
L 219.095286 412.06339 
L 225.526941 410.354342 
L 231.958597 407.097405 
L 238.390252 406.161215 
L 244.821908 404.798501 
L 251.253563 400.980072 
L 257.685219 400.068211 
L 264.116874 398.913071 
L 270.54853 394.773584 
L 276.980185 389.207999 
L 283.411841 379.354871 
L 289.843496 374.748118 
L 296.275152 377.110849 
L 302.706807 396.321852 
L 309.138463 401.015721 
L 315.570118 405.444358 
L 322.001774 406.605365 
L 328.433429 407.410985 
L 334.865085 407.624805 
L 341.29674 407.223966 
L 347.728396 406.191048 
L 354.160051 404.972003 
L 360.591707 404.085415 
L 367.023362 404.240457 
L 373.455018 404.003495 
L 379.886673 403.21164 
L 386.318329 403.522437 
L 392.749984 403.398095 
L 399.18164 400.121744 
L 405.613295 397.568846 
L 412.044951 391.903996 
L 418.476606 385.264053 
L 424.908262 374.947033 
L 431.339918 358.729653 
L 437.771573 327.210799 
L 444.203229 302.414971 
L 450.634884 285.867881 
L 457.06654 272.647177 
L 463.498195 254.737323 
L 469.929851 240.312659 
L 476.361506 221.987317 
L 482.793162 166.018129 
" style="fill:none;stroke:#0000ff;stroke-linecap:square;stroke-width:2;"/>
   </g>
   <g id="patch_7">
    <path d="M 57.33915 440.295773 
L 57.33915 100.8 
" style="fill:none;stroke:#000000;stroke-linecap:square;stroke-linejoin:miter;stroke-width:0.8;"/>
   </g>
   <g id="patch_8">
    <path d="M 503.052876 440.295773 
L 503.052876 100.8 
" style="fill:none;stroke:#000000;stroke-linecap:square;stroke-linejoin:miter;stroke-width:0.8;"/>
   </g>
   <g id="patch_9">
    <path d="M 57.33915 440.295773 
L 503.052876 440.295773 
" style="fill:none;stroke:#000000;stroke-linecap:square;stroke-linejoin:miter;stroke-width:0.8;"/>
   </g>
   <g id="patch_10">
    <path d="M 57.33915 100.8 
L 503.052876 100.8 
" style="fill:none;stroke:#000000;stroke-linecap:square;stroke-linejoin:miter;stroke-width:0.8;"/>
   </g>
   <g id="text_22">
    <!-- L32 beta11p5 kappa0p1515 Buchoff -->
    <g transform="translate(109.745967 70.223956)scale(0.24 -0.24)">
     <defs>
      <path d="M 54.203125 25.234375 
L 52.40625 25.234375 
C 51.59375 15.359375 50.296875 2.59375 33.203125 2.59375 
L 23.90625 2.59375 
C 19.90625 2.59375 19.703125 3.078125 19.703125 6.46875 
L 19.703125 60.90625 
C 19.703125 64.515625 19.90625 65.5 27.5 65.5 
L 29.703125 65.5 
L 29.703125 68 
C 25.59375 68 20.796875 68 16.703125 68 
C 13.59375 68 8 68 5.09375 68 
L 5.09375 65.5 
C 12 65.5 13.09375 65.5 13.09375 61.015625 
L 13.09375 7.0625 
C 13.09375 2.59375 12 2.59375 5.09375 2.59375 
L 5.09375 0 
L 51.796875 0 
z
" id="CMR17-76"/>
      <path d="M 15 68.6875 
L 3.09375 67.59375 
L 3.09375 65 
C 9 65 9.90625 64.40625 9.90625 59.640625 
L 9.90625 -0.203125 
L 11.703125 -0.203125 
L 14.59375 6.890625 
C 17.5 2.203125 21.796875 -1 27.59375 -1 
C 37.59375 -1 47.703125 7.8125 47.703125 21.40625 
C 47.703125 34.1875 38.703125 43.59375 28.59375 43.59375 
C 22.40625 43.59375 18 40.296875 15 36.40625 
z
M 15.203125 31.3125 
C 15.203125 33.09375 15.203125 33.40625 16.59375 35.5 
C 20.5 41.515625 26.09375 42 28 42 
C 31 42 41.296875 40.390625 41.296875 21.5 
C 41.296875 1.6875 29.5 0.59375 27.09375 0.59375 
C 24 0.59375 19.5 1.78125 16.296875 7.59375 
C 15.203125 9.5 15.203125 9.703125 15.203125 11.484375 
z
" id="CMR17-98"/>
      <path d="M 38.09375 23 
C 38.5 23.40625 38.5 23.609375 38.5 24.625 
C 38.5 34.96875 33.09375 44 21.703125 44 
C 11.09375 44 2.703125 33.890625 2.703125 21.609375 
C 2.703125 8.609375 12.203125 -1 22.796875 -1 
C 34 -1 38.40625 9.484375 38.40625 11.5625 
C 38.40625 12.25 37.796875 12.25 37.59375 12.25 
C 36.90625 12.25 36.796875 12.046875 36.40625 10.875 
C 34.203125 4.140625 28.703125 0.796875 23.5 0.796875 
C 19.203125 0.796875 14.90625 3.171875 12.203125 7.5 
C 9.09375 12.546875 9.09375 18.375 9.09375 23 
z
M 9.203125 24.5 
C 9.90625 39.140625 17.59375 42.40625 21.59375 42.40625 
C 28.40625 42.40625 33 35.890625 33.09375 24.5 
z
" id="CMR17-101"/>
      <path d="M 36 25.828125 
C 36 32.375 36 35.84375 31.796875 39.734375 
C 28.09375 43 23.796875 44 20.40625 44 
C 12.5 44 6.796875 37.609375 6.796875 30.796875 
C 6.796875 27 9.796875 27 10.40625 27 
C 11.703125 27 14 27.78125 14 30.53125 
C 14 33 12.09375 34.078125 10.40625 34.078125 
C 10 34.078125 9.5 33.96875 9.203125 33.875 
C 11.296875 40.5 16.703125 42.40625 20.203125 42.40625 
C 25.203125 42.40625 30.703125 37.953125 30.703125 29.453125 
L 30.703125 25 
C 24.796875 25 17.703125 24.203125 12.09375 21.203125 
C 5.796875 17.703125 4 12.703125 4 8.90625 
C 4 1.203125 13 -1 18.296875 -1 
C 23.796875 -1 28.90625 2.171875 31.09375 7.984375 
C 31.296875 3.640625 34.09375 -0.28125 38.5 -0.28125 
C 40.59375 -0.28125 45.90625 1.09375 45.90625 8.859375 
L 45.90625 14.375 
L 44.09375 14.375 
L 44.09375 8.78125 
C 44.09375 2.78125 41.40625 2 40.09375 2 
C 36 2 36 7.15625 36 11.53125 
z
M 30.703125 13.59375 
C 30.703125 4.953125 24.5 0.59375 19 0.59375 
C 14 0.59375 10.09375 4.296875 10.09375 8.90625 
C 10.09375 11.890625 11.40625 17.1875 17.203125 20.390625 
C 22 23.09375 27.5 23.5 30.703125 23.5 
z
" id="CMR17-97"/>
      <path d="M 22 -16.609375 
C 15.59375 -16.609375 15.203125 -16.203125 15.203125 -12.328125 
L 15.203125 6.28125 
C 18.09375 2.09375 22.296875 -0.59375 27.59375 -0.59375 
C 37.59375 -0.59375 47.703125 8.171875 47.703125 21.6875 
C 47.703125 34.234375 39 43.78125 28.703125 43.78125 
C 22.703125 43.78125 17.796875 40.5 15 36.53125 
L 15 43.78125 
L 3.09375 42.6875 
L 3.09375 40.109375 
C 9 40.109375 9.90625 39.5 9.90625 34.734375 
L 9.90625 -12.328125 
C 9.90625 -16.109375 9.5 -16.609375 3.09375 -16.609375 
L 3.09375 -19.1875 
C 5.5 -19 9.90625 -19 12.5 -19 
C 15.09375 -19 19.59375 -19 22 -19.1875 
z
M 15.203125 31.4375 
C 15.203125 32.84375 15.203125 34.921875 19.09375 38.609375 
C 19.59375 39.015625 23 42 28 42 
C 35.296875 42 41.296875 32.9375 41.296875 21.59375 
C 41.296875 10.25 34.90625 1 27 1 
C 23.40625 1 19.5 2.6875 16.5 7.375 
C 15.203125 9.5625 15.203125 10.15625 15.203125 11.75 
z
" id="CMR17-112"/>
      <path d="M 26.09375 26.140625 
C 26 26.34375 25.5 26.9375 25.5 27.234375 
C 25.5 27.4375 32.59375 33.921875 33.5 34.71875 
C 39.203125 39.5 42.796875 40 45.40625 40 
L 45.40625 42.703125 
C 44.796875 42.703125 44.59375 42.703125 44.5 42.5 
L 39.59375 42.5 
C 36.796875 42.5 32.5 42.5 29.796875 42.703125 
L 29.796875 40.09375 
C 31.203125 39.984375 32.203125 39.1875 32.203125 37.796875 
C 32.203125 35.796875 30.203125 33.90625 30.09375 33.90625 
L 15 20.140625 
L 15 68.6875 
L 3.09375 67.59375 
L 3.09375 65 
C 9 65 9.90625 64.40625 9.90625 59.640625 
L 9.90625 6.65625 
C 9.90625 2.875 9.5 2.390625 3.09375 2.390625 
L 3.09375 -0.203125 
C 5.5 0 9.90625 0 12.40625 0 
C 14.90625 0 19.296875 0 21.703125 -0.203125 
L 21.703125 2.390625 
C 15.296875 2.390625 14.90625 2.78125 14.90625 6.6875 
L 14.90625 17.65625 
L 21.796875 23.9375 
L 31.90625 8.96875 
C 33.09375 7.171875 34.09375 5.765625 34.09375 4.46875 
C 34.09375 2.6875 32.296875 2.390625 31.09375 2.390625 
L 31.09375 -0.203125 
C 33.5 0 37.796875 0 40.296875 0 
C 42.09375 0 45.796875 0 47.5 0 
L 47.5 2.390625 
C 42.796875 2.390625 41.703125 3.28125 38.703125 7.671875 
z
" id="CMR17-107"/>
      <path d="M 5.203125 68 
L 5.203125 65.40625 
C 12.09375 65.40625 13.203125 65.40625 13.203125 60.9375 
L 13.203125 7.0625 
C 13.203125 2.59375 12.09375 2.59375 5.203125 2.59375 
L 5.203125 0 
L 39.59375 0 
C 52.40625 0 60.703125 9.109375 60.703125 18.1875 
C 60.703125 27.203125 52.5 34.890625 41.796875 34.890625 
C 51.40625 36.8125 58.09375 43.296875 58.09375 51 
C 58.09375 59.40625 49.90625 68 37 68 
z
M 19.5 36 
L 19.5 61.515625 
C 19.5 64.921875 19.703125 65.40625 23.703125 65.40625 
L 36.5 65.40625 
C 46.40625 65.40625 50.796875 57.40625 50.796875 51.203125 
C 50.796875 43.609375 44.703125 36 33.90625 36 
z
M 23.703125 2.59375 
C 19.703125 2.59375 19.5 3.078125 19.5 6.453125 
L 19.5 34.40625 
L 38 34.40625 
C 48.296875 34.40625 53.296875 25.390625 53.296875 18.15625 
C 53.296875 10.921875 47.59375 2.59375 36.703125 2.59375 
z
" id="CMR17-66"/>
      <path d="M 29.40625 42.078125 
L 29.40625 39.5 
C 35.296875 39.5 36.203125 38.890625 36.203125 34.15625 
L 36.203125 16.125 
C 36.203125 7.8125 31.703125 0.59375 24.296875 0.59375 
C 16.09375 0.59375 15.40625 5.4375 15.40625 10.59375 
L 15.40625 43.171875 
L 3.296875 42.078125 
L 3.296875 39.5 
C 7.296875 39.5 10 39.5 10.09375 35.53125 
L 10.09375 16.53125 
C 10.09375 9.890625 10.09375 5.640625 12.703125 2.859375 
C 14 1.578125 16.5 -1 23.703125 -1 
C 32.203125 -1 35.5 5.890625 36.296875 7.90625 
L 36.40625 7.90625 
L 36.40625 -0.984375 
L 48.296875 -0.984375 
L 48.296875 2 
C 42.40625 2 41.5 2.59375 41.5 7.390625 
L 41.5 43.171875 
z
" id="CMR17-117"/>
      <path d="M 34.90625 35 
C 33 35 30.203125 35 30.203125 31.515625 
C 30.203125 28.71875 32.5 27.921875 33.796875 27.921875 
C 34.5 27.921875 37.40625 28.234375 37.40625 31.625 
C 37.40625 38.546875 30.59375 43.796875 22.90625 43.796875 
C 12.296875 43.796875 3.296875 34.03125 3.296875 21.296875 
C 3.296875 8.0625 12.703125 -1 22.90625 -1 
C 35.296875 -1 38.40625 10.578125 38.40625 11.6875 
C 38.40625 12.09375 38.296875 12.390625 37.59375 12.390625 
C 36.90625 12.390625 36.796875 12.296875 36.40625 10.984375 
C 33.796875 2.8125 28.09375 0.796875 23.796875 0.796875 
C 17.40625 0.796875 9.703125 6.671875 9.703125 21.390625 
C 9.703125 36.53125 17.09375 42 23 42 
C 26.90625 42 32.703125 40.203125 34.90625 35 
z
" id="CMR17-99"/>
      <path d="M 41.5 30.203125 
C 41.5 35.296875 40.5 43.59375 28.703125 43.59375 
C 20.5 43.59375 16.5 37 15.296875 33.703125 
L 15.203125 33.703125 
L 15.203125 68.6875 
L 3.296875 67.59375 
L 3.296875 65 
C 9.203125 65 10.09375 64.40625 10.09375 59.640625 
L 10.09375 6.65625 
C 10.09375 2.875 9.703125 2.390625 3.296875 2.390625 
L 3.296875 -0.203125 
C 5.703125 0 10.09375 0 12.703125 0 
C 15.296875 0 19.796875 0 22.203125 -0.203125 
L 22.203125 2.390625 
C 15.796875 2.390625 15.40625 2.78125 15.40625 6.6875 
L 15.40625 25.90625 
C 15.40625 35.109375 21 42 28 42 
C 35.40625 42 36.203125 35.40625 36.203125 30.59375 
L 36.203125 6.6875 
C 36.203125 2.875 35.796875 2.390625 29.40625 2.390625 
L 29.40625 -0.203125 
C 31.796875 0 36.203125 0 38.796875 0 
C 41.40625 0 45.90625 0 48.296875 -0.203125 
L 48.296875 2.390625 
C 41.90625 2.390625 41.5 2.78125 41.5 6.6875 
z
" id="CMR17-104"/>
      <path d="M 43.09375 21.1875 
C 43.09375 34 33.796875 44 22.90625 44 
C 12 44 2.703125 34 2.703125 21.1875 
C 2.703125 8.609375 12 -1 22.90625 -1 
C 33.796875 -1 43.09375 8.609375 43.09375 21.1875 
z
M 22.90625 0.796875 
C 18.203125 0.796875 14.203125 3.59375 11.90625 7.5 
C 9.40625 11.984375 9.09375 17.59375 9.09375 22 
C 9.09375 26.203125 9.296875 31.40625 11.90625 35.90625 
C 13.90625 39.203125 17.796875 42.40625 22.90625 42.40625 
C 27.40625 42.40625 31.203125 39.90625 33.59375 36.40625 
C 36.703125 31.703125 36.703125 25.109375 36.703125 22 
C 36.703125 18.09375 36.5 12.109375 33.796875 7.296875 
C 31 2.703125 26.703125 0.796875 22.90625 0.796875 
z
" id="CMR17-111"/>
      <path d="M 39.90625 40 
L 51.296875 40 
L 51.296875 42.578125 
L 39.703125 42.578125 
L 39.703125 54.59375 
C 39.703125 62.84375 43.90625 68 48.203125 68 
C 49.5 68 51 67.609375 52 66.90625 
C 51.203125 66.703125 49.09375 66.015625 49.09375 63.546875 
C 49.09375 60.953125 51.09375 60.15625 52.5 60.15625 
C 53.90625 60.15625 55.90625 60.953125 55.90625 63.546875 
C 55.90625 67.3125 52.296875 69.59375 48.296875 69.59375 
C 44.40625 69.59375 41.203125 67.703125 38.703125 65.328125 
C 36.40625 68.59375 32.59375 69.59375 28.703125 69.59375 
C 20.90625 69.59375 9.90625 65.125 9.90625 54.203125 
L 9.90625 42.578125 
L 1.90625 42.578125 
L 1.90625 40 
L 9.90625 40 
L 9.90625 6.671875 
C 9.90625 2.875 9.5 2.390625 3.09375 2.390625 
L 3.09375 -0.203125 
C 5.5 0 9.90625 0 12.40625 0 
C 15 0 19.40625 0 21.796875 -0.203125 
L 21.796875 2.390625 
C 15.40625 2.390625 15 2.78125 15 6.671875 
L 15 40 
L 34.796875 40 
L 34.796875 6.671875 
C 34.796875 2.875 34.40625 2.390625 28 2.390625 
L 28 -0.203125 
C 30.40625 0 35 0 37.59375 0 
C 40.5 0 45.59375 0 48.296875 -0.203125 
L 48.296875 2.390625 
C 41.09375 2.390625 39.90625 2.390625 39.90625 6.859375 
z
M 14.796875 42.578125 
L 14.796875 54.203125 
C 14.796875 63.234375 21.796875 68 28.5 68 
C 30 68 33.90625 67.6875 36.296875 65.421875 
C 34.5 65.421875 32.796875 64.625 32.796875 62.140625 
C 32.796875 59.5625 35.09375 58.859375 35.296875 58.859375 
C 34.796875 57.0625 34.796875 55.09375 34.796875 54.390625 
L 34.796875 42.578125 
z
" id="CMR17-11"/>
     </defs>
     <use transform="scale(0.996264)" xlink:href="#CMR17-76"/>
     <use transform="translate(57.381408 0)scale(0.996264)" xlink:href="#CMR17-51"/>
     <use transform="translate(103.071885 0)scale(0.996264)" xlink:href="#CMR17-50"/>
     <use transform="translate(178.838328 0)scale(0.996264)" xlink:href="#CMR17-98"/>
     <use transform="translate(232.336137 0)scale(0.996264)" xlink:href="#CMR17-101"/>
     <use transform="translate(272.821797 0)scale(0.996264)" xlink:href="#CMR17-116"/>
     <use transform="translate(308.102565 0)scale(0.996264)" xlink:href="#CMR17-97"/>
     <use transform="translate(353.793042 0)scale(0.996264)" xlink:href="#CMR17-49"/>
     <use transform="translate(399.483519 0)scale(0.996264)" xlink:href="#CMR17-49"/>
     <use transform="translate(445.173997 0)scale(0.996264)" xlink:href="#CMR17-112"/>
     <use transform="translate(496.069366 0)scale(0.996264)" xlink:href="#CMR17-53"/>
     <use transform="translate(571.83581 0)scale(0.996264)" xlink:href="#CMR17-107"/>
     <use transform="translate(614.923909 0)scale(0.996264)" xlink:href="#CMR17-97"/>
     <use transform="translate(660.614386 0)scale(0.996264)" xlink:href="#CMR17-112"/>
     <use transform="translate(711.509756 0)scale(0.996264)" xlink:href="#CMR17-112"/>
     <use transform="translate(762.405126 0)scale(0.996264)" xlink:href="#CMR17-97"/>
     <use transform="translate(808.095603 0)scale(0.996264)" xlink:href="#CMR17-48"/>
     <use transform="translate(853.78608 0)scale(0.996264)" xlink:href="#CMR17-112"/>
     <use transform="translate(904.68145 0)scale(0.996264)" xlink:href="#CMR17-49"/>
     <use transform="translate(950.371927 0)scale(0.996264)" xlink:href="#CMR17-53"/>
     <use transform="translate(996.062404 0)scale(0.996264)" xlink:href="#CMR17-49"/>
     <use transform="translate(1041.752881 0)scale(0.996264)" xlink:href="#CMR17-53"/>
     <use transform="translate(1117.519325 0)scale(0.996264)" xlink:href="#CMR17-66"/>
     <use transform="translate(1182.708079 0)scale(0.996264)" xlink:href="#CMR17-117"/>
     <use transform="translate(1233.603449 0)scale(0.996264)" xlink:href="#CMR17-99"/>
     <use transform="translate(1271.486655 0)scale(0.996264)" xlink:href="#CMR17-104"/>
     <use transform="translate(1322.382025 0)scale(0.996264)" xlink:href="#CMR17-111"/>
     <use transform="translate(1368.072502 0)scale(0.996264)" xlink:href="#CMR17-11"/>
    </g>
    <!-- bary 2u2d com4 Spin0 -->
    <g transform="translate(172.724861 94.8)scale(0.24 -0.24)">
     <defs>
      <path d="M 15 23.390625 
C 15 33 19.09375 42 26.59375 42 
C 27.296875 42 28 41.90625 28.703125 41.59375 
C 28.703125 41.59375 26.5 40.890625 26.5 38.3125 
C 26.5 35.90625 28.40625 34.90625 29.90625 34.90625 
C 31.09375 34.90625 33.296875 35.609375 33.296875 38.40625 
C 33.296875 41.609375 30.09375 43.59375 26.703125 43.59375 
C 19.09375 43.59375 15.796875 36.203125 14.796875 32.703125 
L 14.703125 32.703125 
L 14.703125 43.59375 
L 3.09375 42.5 
L 3.09375 39.90625 
C 9 39.90625 9.90625 39.296875 9.90625 34.5 
L 9.90625 6.6875 
C 9.90625 2.875 9.5 2.390625 3.09375 2.390625 
L 3.09375 -0.203125 
C 5.5 0 10.09375 0 12.703125 0 
C 15.59375 0 20.703125 0 23.40625 -0.203125 
L 23.40625 2.390625 
C 16.203125 2.390625 15 2.390625 15 6.875 
z
" id="CMR17-114"/>
      <path d="M 39 34.328125 
C 41.5 40.40625 46 40.40625 47.40625 40.40625 
L 47.40625 43 
C 45.5 43 43 43 41.09375 43 
C 39 43 35.703125 43 33.703125 43.09375 
L 33.703125 40.5 
C 37.5 40.203125 37.59375 37.40625 37.59375 36.609375 
C 37.59375 35.625 37.40625 35.125 36.90625 33.921875 
L 26 7.015625 
L 14.09375 36.03125 
C 13.59375 37.21875 13.59375 37.90625 13.59375 38.015625 
C 13.59375 40.203125 15.90625 40.40625 18.296875 40.40625 
L 18.296875 43.09375 
C 15.90625 43 11.59375 43 9.09375 43 
C 6.40625 43 3.203125 43 1 43.09375 
L 1 40.40625 
C 6.40625 40.40625 7 39.90625 8.296875 36.71875 
L 23.203125 0.234375 
C 18.703125 -11.53125 16.09375 -18.40625 9.796875 -18.40625 
C 8.703125 -18.40625 6.203125 -18.109375 4.40625 -16.3125 
C 6.703125 -16.109375 7.703125 -14.71875 7.703125 -13.015625 
C 7.703125 -11.328125 6.5 -9.828125 4.5 -9.828125 
C 2.296875 -9.828125 1.203125 -11.328125 1.203125 -13.125 
C 1.203125 -17.109375 5.296875 -20 9.796875 -20 
C 15.59375 -20 19.203125 -14.40625 21.203125 -9.4375 
z
" id="CMR17-121"/>
      <path d="M 67.59375 30.203125 
C 67.59375 35.1875 66.703125 43.59375 54.796875 43.59375 
C 48 43.59375 43.296875 39 41.5 33.609375 
L 41.40625 33.609375 
C 40.203125 41.8125 34.296875 43.59375 28.703125 43.59375 
C 20.796875 43.59375 16.703125 37.5 15.203125 33.5 
L 15.09375 33.5 
L 15.09375 43.59375 
L 3.296875 42.5 
L 3.296875 39.90625 
C 9.203125 39.90625 10.09375 39.296875 10.09375 34.5 
L 10.09375 6.6875 
C 10.09375 2.875 9.703125 2.390625 3.296875 2.390625 
L 3.296875 -0.203125 
C 5.703125 0 10.09375 0 12.703125 0 
C 15.296875 0 19.796875 0 22.203125 -0.203125 
L 22.203125 2.390625 
C 15.796875 2.390625 15.40625 2.78125 15.40625 6.6875 
L 15.40625 25.90625 
C 15.40625 35.109375 21 42 28 42 
C 35.40625 42 36.203125 35.40625 36.203125 30.59375 
L 36.203125 6.6875 
C 36.203125 2.875 35.796875 2.390625 29.40625 2.390625 
L 29.40625 -0.203125 
C 31.796875 0 36.203125 0 38.796875 0 
C 41.40625 0 45.90625 0 48.296875 -0.203125 
L 48.296875 2.390625 
C 41.90625 2.390625 41.5 2.78125 41.5 6.6875 
L 41.5 25.90625 
C 41.5 35.109375 47.09375 42 54.09375 42 
C 61.5 42 62.296875 35.40625 62.296875 30.59375 
L 62.296875 6.6875 
C 62.296875 2.875 61.90625 2.390625 55.5 2.390625 
L 55.5 -0.203125 
C 57.90625 0 62.296875 0 64.90625 0 
C 67.5 0 72 0 74.40625 -0.203125 
L 74.40625 2.390625 
C 68 2.390625 67.59375 2.78125 67.59375 6.6875 
z
" id="CMR17-109"/>
      <path d="M 43.796875 67.03125 
C 43.796875 68.8125 43.703125 68.921875 43.09375 68.921875 
C 42.5 68.921875 42.296875 68.515625 41.90625 67.625 
L 38.90625 61.046875 
C 35.09375 66.515625 29.296875 69 23 69 
C 12.796875 69 4.59375 60.953125 4.59375 50.828125 
C 4.59375 47.75 5.296875 43.375 8.703125 39.21875 
C 12.40625 34.65625 15.90625 33.859375 23.90625 31.765625 
C 26.90625 30.96875 31.90625 29.671875 32.90625 29.28125 
C 38.59375 26.90625 41.59375 20.953125 41.59375 15.390625 
C 41.59375 8.234375 36.5 0.59375 27.796875 0.59375 
C 17.09375 0.59375 7.09375 6.546875 6.40625 20.484375 
C 6.296875 22.078125 6.203125 22.171875 5.5 22.171875 
C 4.703125 22.171875 4.59375 22.078125 4.59375 20.078125 
L 4.59375 -0.015625 
C 4.59375 -1.796875 4.703125 -1.90625 5.296875 -1.90625 
C 6 -1.90625 6.203125 -1.40625 7.59375 1.6875 
C 7.703125 1.984375 7.703125 2.1875 9.59375 5.953125 
C 14.59375 -0.609375 23 -2 27.796875 -2 
C 38.703125 -2 46.40625 7.046875 46.40625 17.5625 
C 46.40625 22.71875 44.5 26.6875 43.40625 28.484375 
C 39.203125 34.84375 34.703125 36.03125 29.90625 37.21875 
C 29.203125 37.53125 29 37.53125 23.40625 38.90625 
C 18 40.296875 15.703125 41 13.203125 43.6875 
C 10.40625 46.75 9.40625 49.9375 9.40625 53.109375 
C 9.40625 59.5625 14.59375 66.609375 23.09375 66.609375 
C 33.703125 66.609375 40.296875 59.15625 41.796875 46.765625 
C 42.09375 44.96875 42.203125 44.875 42.90625 44.875 
C 43.796875 44.875 43.796875 45.171875 43.796875 46.859375 
z
" id="CMR17-83"/>
     </defs>
     <use transform="scale(0.996264)" xlink:href="#CMR17-98"/>
     <use transform="translate(50.89537 0)scale(0.996264)" xlink:href="#CMR17-97"/>
     <use transform="translate(96.585847 0)scale(0.996264)" xlink:href="#CMR17-114"/>
     <use transform="translate(131.866615 0)scale(0.996264)" xlink:href="#CMR17-121"/>
     <use transform="translate(210.235497 0)scale(0.996264)" xlink:href="#CMR17-50"/>
     <use transform="translate(255.925974 0)scale(0.996264)" xlink:href="#CMR17-117"/>
     <use transform="translate(306.821344 0)scale(0.996264)" xlink:href="#CMR17-50"/>
     <use transform="translate(352.511821 0)scale(0.996264)" xlink:href="#CMR17-100"/>
     <use transform="translate(433.483157 0)scale(0.996264)" xlink:href="#CMR17-99"/>
     <use transform="translate(473.968817 0)scale(0.996264)" xlink:href="#CMR17-111"/>
     <use transform="translate(519.659295 0)scale(0.996264)" xlink:href="#CMR17-109"/>
     <use transform="translate(596.578884 0)scale(0.996264)" xlink:href="#CMR17-52"/>
     <use transform="translate(672.345328 0)scale(0.996264)" xlink:href="#CMR17-83"/>
     <use transform="translate(723.240698 0)scale(0.996264)" xlink:href="#CMR17-112"/>
     <use transform="translate(774.136068 0)scale(0.996264)" xlink:href="#CMR17-105"/>
     <use transform="translate(799.007126 0)scale(0.996264)" xlink:href="#CMR17-110"/>
     <use transform="translate(849.902496 0)scale(0.996264)" xlink:href="#CMR17-48"/>
    </g>
   </g>
  </g>
 </g>
 <defs>
  <clipPath id="p9c6719b38f">
   <rect height="339.495773" width="445.713727" x="57.33915" y="100.8"/>
  </clipPath>
 </defs>
</svg>
