<?xml version="1.0" encoding="utf-8" standalone="no"?>
<!DOCTYPE svg PUBLIC "-//W3C//DTD SVG 1.1//EN"
  "http://www.w3.org/Graphics/SVG/1.1/DTD/svg11.dtd">
<!-- Created with matplotlib (https://matplotlib.org/) -->
<svg height="504pt" version="1.1" viewBox="0 0 576 504" width="576pt" xmlns="http://www.w3.org/2000/svg" xmlns:xlink="http://www.w3.org/1999/xlink">
 <metadata>
  <rdf:RDF xmlns:cc="http://creativecommons.org/ns#" xmlns:dc="http://purl.org/dc/elements/1.1/" xmlns:rdf="http://www.w3.org/1999/02/22-rdf-syntax-ns#">
   <cc:Work>
    <dc:type rdf:resource="http://purl.org/dc/dcmitype/StillImage"/>
    <dc:date>2023-01-25T11:50:37.903461</dc:date>
    <dc:format>image/svg+xml</dc:format>
    <dc:creator>
     <cc:Agent>
      <dc:title>Matplotlib v3.3.4, https://matplotlib.org/</dc:title>
     </cc:Agent>
    </dc:creator>
   </cc:Work>
  </rdf:RDF>
 </metadata>
 <defs>
  <style type="text/css">*{stroke-linecap:butt;stroke-linejoin:round;}</style>
 </defs>
 <g id="figure_1">
  <g id="patch_1">
   <path d="M 0 504 
L 576 504 
L 576 0 
L 0 0 
z
" style="fill:#ffffff;"/>
  </g>
  <g id="axes_1">
   <g id="patch_2">
    <path d="M 77.282672 440.295773 
L 503.052876 440.295773 
L 503.052876 100.8 
L 77.282672 100.8 
z
" style="fill:#ffffff;"/>
   </g>
   <g id="matplotlib.axis_1">
    <g id="xtick_1">
     <g id="line2d_1">
      <defs>
       <path d="M 0 0 
L 0 3.5 
" id="m4a164de110" style="stroke:#000000;stroke-width:0.8;"/>
      </defs>
      <g>
       <use style="stroke:#000000;stroke-width:0.8;" x="96.635863" xlink:href="#m4a164de110" y="440.295773"/>
      </g>
     </g>
     <g id="text_1">
      <!-- $\mathdefault{0}$ -->
      <g transform="translate(92.733869 458.365361)scale(0.16 -0.16)">
       <defs>
        <path d="M 42 31.640625 
C 42 37.75 41.90625 48.125 37.703125 56.109375 
C 34 63.109375 28.09375 65.59375 22.90625 65.59375 
C 18.09375 65.59375 12 63.40625 8.203125 56.203125 
C 4.203125 48.71875 3.796875 39.4375 3.796875 31.640625 
C 3.796875 25.953125 3.90625 17.28125 7 9.671875 
C 11.296875 -0.609375 19 -2 22.90625 -2 
C 27.5 -2 34.5 -0.109375 38.59375 9.375 
C 41.59375 16.28125 42 24.359375 42 31.640625 
z
M 22.90625 -0.40625 
C 16.5 -0.40625 12.703125 5.078125 11.296875 12.6875 
C 10.203125 18.5625 10.203125 27.15625 10.203125 32.75 
C 10.203125 40.4375 10.203125 46.828125 11.5 52.921875 
C 13.40625 61.390625 19 64 22.90625 64 
C 27 64 32.296875 61.296875 34.203125 53.125 
C 35.5 47.4375 35.59375 40.734375 35.59375 32.75 
C 35.59375 26.25 35.59375 18.265625 34.40625 12.375 
C 32.296875 1.484375 26.40625 -0.40625 22.90625 -0.40625 
z
" id="CMR17-48"/>
       </defs>
       <use transform="scale(0.996264)" xlink:href="#CMR17-48"/>
      </g>
     </g>
    </g>
    <g id="xtick_2">
     <g id="line2d_2">
      <g>
       <use style="stroke:#000000;stroke-width:0.8;" x="158.074565" xlink:href="#m4a164de110" y="440.295773"/>
      </g>
     </g>
     <g id="text_2">
      <!-- $\mathdefault{10}$ -->
      <g transform="translate(150.270578 458.365361)scale(0.16 -0.16)">
       <defs>
        <path d="M 26.59375 63.40625 
C 26.59375 65.5 26.5 65.5 25.09375 65.5 
C 21.203125 61.1875 15.296875 59.796875 9.703125 59.796875 
C 9.40625 59.796875 8.90625 59.796875 8.796875 59.5 
C 8.703125 59.296875 8.703125 59.09375 8.703125 57 
C 11.796875 57 17 57.59375 21 59.984375 
L 21 7.203125 
C 21 3.6875 20.796875 2.5 12.203125 2.5 
L 9.203125 2.5 
L 9.203125 0 
C 14 0 19 0 23.796875 0 
C 28.59375 0 33.59375 0 38.40625 0 
L 38.40625 2.5 
L 35.40625 2.5 
C 26.796875 2.5 26.59375 3.59375 26.59375 7.15625 
z
" id="CMR17-49"/>
       </defs>
       <use transform="scale(0.996264)" xlink:href="#CMR17-49"/>
       <use transform="translate(45.690477 0)scale(0.996264)" xlink:href="#CMR17-48"/>
      </g>
     </g>
    </g>
    <g id="xtick_3">
     <g id="line2d_3">
      <g>
       <use style="stroke:#000000;stroke-width:0.8;" x="219.513267" xlink:href="#m4a164de110" y="440.295773"/>
      </g>
     </g>
     <g id="text_3">
      <!-- $\mathdefault{20}$ -->
      <g transform="translate(211.70928 458.365361)scale(0.16 -0.16)">
       <defs>
        <path d="M 41.703125 15.453125 
L 39.90625 15.453125 
C 38.90625 8.375 38.09375 7.171875 37.703125 6.5625 
C 37.203125 5.765625 30 5.765625 28.59375 5.765625 
L 9.40625 5.765625 
C 13 9.671875 20 16.75 28.5 24.953125 
C 34.59375 30.734375 41.703125 37.53125 41.703125 47.421875 
C 41.703125 59.21875 32.296875 66 21.796875 66 
C 10.796875 66 4.09375 56.3125 4.09375 47.34375 
C 4.09375 43.4375 7 42.9375 8.203125 42.9375 
C 9.203125 42.9375 12.203125 43.546875 12.203125 47.03125 
C 12.203125 50.109375 9.59375 51 8.203125 51 
C 7.59375 51 7 50.90625 6.59375 50.703125 
C 8.5 59.21875 14.296875 63.40625 20.40625 63.40625 
C 29.09375 63.40625 34.796875 56.515625 34.796875 47.421875 
C 34.796875 38.734375 29.703125 31.25 24 24.75 
L 4.09375 2.28125 
L 4.09375 0 
L 39.296875 0 
z
" id="CMR17-50"/>
       </defs>
       <use transform="scale(0.996264)" xlink:href="#CMR17-50"/>
       <use transform="translate(45.690477 0)scale(0.996264)" xlink:href="#CMR17-48"/>
      </g>
     </g>
    </g>
    <g id="xtick_4">
     <g id="line2d_4">
      <g>
       <use style="stroke:#000000;stroke-width:0.8;" x="280.951969" xlink:href="#m4a164de110" y="440.295773"/>
      </g>
     </g>
     <g id="text_4">
      <!-- $\mathdefault{30}$ -->
      <g transform="translate(273.147982 458.365361)scale(0.16 -0.16)">
       <defs>
        <path d="M 22.09375 33.703125 
C 31 33.703125 34.90625 25.96875 34.90625 17.03125 
C 34.90625 5 28.5 0.390625 22.703125 0.390625 
C 17.40625 0.390625 8.796875 3.03125 6.09375 10.828125 
C 6.59375 10.625 7.09375 10.625 7.59375 10.625 
C 10 10.625 11.796875 12.21875 11.796875 14.8125 
C 11.796875 17.703125 9.59375 19 7.59375 19 
C 5.90625 19 3.296875 18.203125 3.296875 14.46875 
C 3.296875 5.234375 12.296875 -2 22.90625 -2 
C 34 -2 42.5 6.71875 42.5 16.953125 
C 42.5 26.671875 34.5 33.703125 25 34.796875 
C 32.59375 36.375 39.90625 43.0625 39.90625 52.015625 
C 39.90625 59.6875 32 65.296875 23 65.296875 
C 13.90625 65.296875 5.90625 59.828125 5.90625 52.015625 
C 5.90625 48.59375 8.5 48 9.796875 48 
C 11.90625 48 13.703125 49.296875 13.703125 51.890625 
C 13.703125 54.46875 11.90625 55.765625 9.796875 55.765625 
C 9.40625 55.765625 8.90625 55.765625 8.5 55.578125 
C 11.40625 61.859375 19.296875 63 22.796875 63 
C 26.296875 63 32.90625 61.328125 32.90625 51.875 
C 32.90625 49.109375 32.5 44.1875 29.09375 39.84375 
C 26.09375 36 22.703125 36 19.40625 35.6875 
C 18.90625 35.6875 16.59375 35.453125 16.203125 35.453125 
C 15.5 35.359375 15.09375 35.265625 15.09375 34.5 
C 15.09375 33.796875 15.203125 33.703125 17.203125 33.703125 
z
" id="CMR17-51"/>
       </defs>
       <use transform="scale(0.996264)" xlink:href="#CMR17-51"/>
       <use transform="translate(45.690477 0)scale(0.996264)" xlink:href="#CMR17-48"/>
      </g>
     </g>
    </g>
    <g id="xtick_5">
     <g id="line2d_5">
      <g>
       <use style="stroke:#000000;stroke-width:0.8;" x="342.390671" xlink:href="#m4a164de110" y="440.295773"/>
      </g>
     </g>
     <g id="text_5">
      <!-- $\mathdefault{40}$ -->
      <g transform="translate(334.586684 458.365361)scale(0.16 -0.16)">
       <defs>
        <path d="M 33.59375 64.40625 
C 33.59375 66.5 33.5 66.5 31.703125 66.5 
L 2 19.59375 
L 2 17 
L 27.796875 17 
L 27.796875 7.140625 
C 27.796875 3.5 27.59375 2.5 20.59375 2.5 
L 18.703125 2.5 
L 18.703125 0 
C 21.90625 0 27.296875 0 30.703125 0 
C 34.09375 0 39.5 0 42.703125 0 
L 42.703125 2.5 
L 40.796875 2.5 
C 33.796875 2.5 33.59375 3.5 33.59375 7.140625 
L 33.59375 17 
L 43.796875 17 
L 43.796875 19.59375 
L 33.59375 19.59375 
z
M 28.09375 57.859375 
L 28.09375 19.59375 
L 4 19.59375 
z
" id="CMR17-52"/>
       </defs>
       <use transform="scale(0.996264)" xlink:href="#CMR17-52"/>
       <use transform="translate(45.690477 0)scale(0.996264)" xlink:href="#CMR17-48"/>
      </g>
     </g>
    </g>
    <g id="xtick_6">
     <g id="line2d_6">
      <g>
       <use style="stroke:#000000;stroke-width:0.8;" x="403.829373" xlink:href="#m4a164de110" y="440.295773"/>
      </g>
     </g>
     <g id="text_6">
      <!-- $\mathdefault{50}$ -->
      <g transform="translate(396.025386 458.365361)scale(0.16 -0.16)">
       <defs>
        <path d="M 11.40625 57.6875 
C 12.40625 57.28125 16.5 56 20.703125 56 
C 30 56 35.09375 61.109375 38 64.0625 
C 38 64.953125 38 65.5 37.40625 65.5 
C 37.296875 65.5 37.09375 65.5 36.296875 65.046875 
C 32.796875 63.40625 28.703125 62.078125 23.703125 62.078125 
C 20.703125 62.078125 16.203125 62.484375 11.296875 64.671875 
C 10.203125 65.171875 10 65.171875 9.90625 65.171875 
C 9.40625 65.171875 9.296875 65.0625 9.296875 63.078125 
L 9.296875 34.421875 
C 9.296875 32.640625 9.296875 32.140625 10.296875 32.140625 
C 10.796875 32.140625 11 32.34375 11.5 33.03125 
C 14.703125 37.515625 19.09375 39.40625 24.09375 39.40625 
C 27.59375 39.40625 35.09375 37.21875 35.09375 20.140625 
C 35.09375 16.953125 35.09375 11.171875 32.09375 6.578125 
C 29.59375 2.484375 25.703125 0.390625 21.40625 0.390625 
C 14.796875 0.390625 8.09375 5 6.296875 12.71875 
C 6.703125 12.609375 7.5 12.421875 7.90625 12.421875 
C 9.203125 12.421875 11.703125 13.125 11.703125 16.21875 
C 11.703125 18.90625 9.796875 20 7.90625 20 
C 5.59375 20 4.09375 18.59375 4.09375 15.796875 
C 4.09375 7.09375 11 -2 21.59375 -2 
C 31.90625 -2 41.703125 6.875 41.703125 19.75 
C 41.703125 31.71875 33.90625 41 24.203125 41 
C 19.09375 41 14.796875 39.109375 11.40625 35.53125 
z
" id="CMR17-53"/>
       </defs>
       <use transform="scale(0.996264)" xlink:href="#CMR17-53"/>
       <use transform="translate(45.690477 0)scale(0.996264)" xlink:href="#CMR17-48"/>
      </g>
     </g>
    </g>
    <g id="xtick_7">
     <g id="line2d_7">
      <g>
       <use style="stroke:#000000;stroke-width:0.8;" x="465.268075" xlink:href="#m4a164de110" y="440.295773"/>
      </g>
     </g>
     <g id="text_7">
      <!-- $\mathdefault{60}$ -->
      <g transform="translate(457.464088 458.365361)scale(0.16 -0.16)">
       <defs>
        <path d="M 10.59375 34 
C 10.59375 57.65625 21.796875 63 28.296875 63 
C 30.40625 63 35.5 62.640625 37.5 59 
C 35.90625 59 32.90625 59 32.90625 55.515625 
C 32.90625 52.828125 35.09375 51.921875 36.5 51.921875 
C 37.40625 51.921875 40.09375 52.3125 40.09375 55.625 
C 40.09375 61.78125 35.09375 65.296875 28.203125 65.296875 
C 16.296875 65.296875 3.796875 52.96875 3.796875 31 
C 3.796875 3.953125 15.09375 -2 23.09375 -2 
C 32.796875 -2 42 6.671875 42 20.046875 
C 42 32.515625 33.90625 41.59375 23.703125 41.59375 
C 17.59375 41.59375 13.09375 37.609375 10.59375 30.625 
z
M 23.09375 0.390625 
C 10.796875 0.390625 10.796875 18.75 10.796875 22.4375 
C 10.796875 29.625 14.203125 40 23.5 40 
C 25.203125 40 30.09375 40 33.40625 33.125 
C 35.203125 29.21875 35.203125 25.140625 35.203125 20.140625 
C 35.203125 14.75 35.203125 10.78125 33.09375 6.78125 
C 30.90625 2.671875 27.703125 0.390625 23.09375 0.390625 
z
" id="CMR17-54"/>
       </defs>
       <use transform="scale(0.996264)" xlink:href="#CMR17-54"/>
       <use transform="translate(45.690477 0)scale(0.996264)" xlink:href="#CMR17-48"/>
      </g>
     </g>
    </g>
    <g id="text_8">
     <!-- $t$ -->
     <g transform="translate(285.940615 482.069243)scale(0.24 -0.24)">
      <defs>
       <path d="M 20.09375 40.09375 
L 29.296875 40.09375 
C 31.203125 40.09375 32.203125 40.09375 32.203125 41.890625 
C 32.203125 43 31.59375 43 29.59375 43 
L 20.796875 43 
L 24.5 57.6875 
C 24.90625 59.078125 24.90625 59.28125 24.90625 60 
C 24.90625 61.609375 23.59375 62.5 22.296875 62.5 
C 21.5 62.5 19.203125 62.203125 18.40625 58.984375 
L 14.5 43 
L 5.09375 43 
C 3.09375 43 2.203125 43 2.203125 41.09375 
C 2.203125 40.09375 2.90625 40.09375 4.796875 40.09375 
L 13.703125 40.09375 
L 7.09375 13.765625 
C 6.296875 10.28125 6 9.28125 6 7.984375 
C 6 3.296875 9.296875 -1 14.90625 -1 
C 25 -1 30.40625 13.5625 30.40625 14.25 
C 30.40625 14.859375 30 15.15625 29.40625 15.15625 
C 29.203125 15.15625 28.796875 15.15625 28.59375 14.75 
C 28.5 14.65625 28.40625 14.546875 27.703125 12.953125 
C 25.59375 7.984375 21 1 15.203125 1 
C 12.203125 1 12 3.5 12 5.6875 
C 12 5.78125 12 7.6875 12.296875 8.875 
z
" id="CMMI12-116"/>
      </defs>
      <use transform="scale(0.996264)" xlink:href="#CMMI12-116"/>
     </g>
    </g>
   </g>
   <g id="matplotlib.axis_2">
    <g id="ytick_1">
     <g id="line2d_8">
      <defs>
       <path d="M 0 0 
L -3.5 0 
" id="me002badd1e" style="stroke:#000000;stroke-width:0.8;"/>
      </defs>
      <g>
       <use style="stroke:#000000;stroke-width:0.8;" x="77.282672" xlink:href="#me002badd1e" y="432.589187"/>
      </g>
     </g>
     <g id="text_9">
      <!-- $\mathdefault{0.0}$ -->
      <g transform="translate(50.33915 438.123981)scale(0.16 -0.16)">
       <defs>
        <path d="M 18.40625 4.796875 
C 18.40625 7.6875 16 9.671875 13.59375 9.671875 
C 10.703125 9.671875 8.703125 7.28125 8.703125 4.890625 
C 8.703125 2 11.09375 0 13.5 0 
C 16.40625 0 18.40625 2.390625 18.40625 4.796875 
z
" id="CMMI12-58"/>
       </defs>
       <use transform="scale(0.996264)" xlink:href="#CMR17-48"/>
       <use transform="translate(45.690477 0)scale(0.996264)" xlink:href="#CMMI12-58"/>
       <use transform="translate(72.787654 0)scale(0.996264)" xlink:href="#CMR17-48"/>
      </g>
     </g>
    </g>
    <g id="ytick_2">
     <g id="line2d_9">
      <g>
       <use style="stroke:#000000;stroke-width:0.8;" x="77.282672" xlink:href="#me002badd1e" y="388.553586"/>
      </g>
     </g>
     <g id="text_10">
      <!-- $\mathdefault{2.5}$ -->
      <g transform="translate(50.33915 394.088381)scale(0.16 -0.16)">
       <use transform="scale(0.996264)" xlink:href="#CMR17-50"/>
       <use transform="translate(45.690477 0)scale(0.996264)" xlink:href="#CMMI12-58"/>
       <use transform="translate(72.787654 0)scale(0.996264)" xlink:href="#CMR17-53"/>
      </g>
     </g>
    </g>
    <g id="ytick_3">
     <g id="line2d_10">
      <g>
       <use style="stroke:#000000;stroke-width:0.8;" x="77.282672" xlink:href="#me002badd1e" y="344.517986"/>
      </g>
     </g>
     <g id="text_11">
      <!-- $\mathdefault{5.0}$ -->
      <g transform="translate(50.33915 350.05278)scale(0.16 -0.16)">
       <use transform="scale(0.996264)" xlink:href="#CMR17-53"/>
       <use transform="translate(45.690477 0)scale(0.996264)" xlink:href="#CMMI12-58"/>
       <use transform="translate(72.787654 0)scale(0.996264)" xlink:href="#CMR17-48"/>
      </g>
     </g>
    </g>
    <g id="ytick_4">
     <g id="line2d_11">
      <g>
       <use style="stroke:#000000;stroke-width:0.8;" x="77.282672" xlink:href="#me002badd1e" y="300.482385"/>
      </g>
     </g>
     <g id="text_12">
      <!-- $\mathdefault{7.5}$ -->
      <g transform="translate(50.33915 306.01718)scale(0.16 -0.16)">
       <defs>
        <path d="M 45.09375 61.578125 
L 45.09375 63.765625 
L 21.59375 63.765625 
C 9.90625 63.765625 9.703125 65.078125 9.296875 67 
L 7.5 67 
L 4.59375 48.34375 
L 6.40625 48.34375 
C 6.703125 50.234375 7.40625 55.3125 8.59375 57.203125 
C 9.203125 58 16.59375 58 18.296875 58 
L 40.296875 58 
L 29.203125 41.578125 
C 21.796875 30.53125 16.703125 15.609375 16.703125 2.578125 
C 16.703125 1.390625 16.703125 -2 20.296875 -2 
C 23.90625 -2 23.90625 1.390625 23.90625 2.671875 
L 23.90625 7.265625 
C 23.90625 23.5625 26.703125 34.3125 31.296875 41.1875 
z
" id="CMR17-55"/>
       </defs>
       <use transform="scale(0.996264)" xlink:href="#CMR17-55"/>
       <use transform="translate(45.690477 0)scale(0.996264)" xlink:href="#CMMI12-58"/>
       <use transform="translate(72.787654 0)scale(0.996264)" xlink:href="#CMR17-53"/>
      </g>
     </g>
    </g>
    <g id="ytick_5">
     <g id="line2d_12">
      <g>
       <use style="stroke:#000000;stroke-width:0.8;" x="77.282672" xlink:href="#me002badd1e" y="256.446785"/>
      </g>
     </g>
     <g id="text_13">
      <!-- $\mathdefault{10.0}$ -->
      <g transform="translate(42.535163 261.981579)scale(0.16 -0.16)">
       <use transform="scale(0.996264)" xlink:href="#CMR17-49"/>
       <use transform="translate(45.690477 0)scale(0.996264)" xlink:href="#CMR17-48"/>
       <use transform="translate(91.380954 0)scale(0.996264)" xlink:href="#CMMI12-58"/>
       <use transform="translate(118.478131 0)scale(0.996264)" xlink:href="#CMR17-48"/>
      </g>
     </g>
    </g>
    <g id="ytick_6">
     <g id="line2d_13">
      <g>
       <use style="stroke:#000000;stroke-width:0.8;" x="77.282672" xlink:href="#me002badd1e" y="212.411185"/>
      </g>
     </g>
     <g id="text_14">
      <!-- $\mathdefault{12.5}$ -->
      <g transform="translate(42.535163 217.945979)scale(0.16 -0.16)">
       <use transform="scale(0.996264)" xlink:href="#CMR17-49"/>
       <use transform="translate(45.690477 0)scale(0.996264)" xlink:href="#CMR17-50"/>
       <use transform="translate(91.380954 0)scale(0.996264)" xlink:href="#CMMI12-58"/>
       <use transform="translate(118.478131 0)scale(0.996264)" xlink:href="#CMR17-53"/>
      </g>
     </g>
    </g>
    <g id="ytick_7">
     <g id="line2d_14">
      <g>
       <use style="stroke:#000000;stroke-width:0.8;" x="77.282672" xlink:href="#me002badd1e" y="168.375584"/>
      </g>
     </g>
     <g id="text_15">
      <!-- $\mathdefault{15.0}$ -->
      <g transform="translate(42.535163 173.910378)scale(0.16 -0.16)">
       <use transform="scale(0.996264)" xlink:href="#CMR17-49"/>
       <use transform="translate(45.690477 0)scale(0.996264)" xlink:href="#CMR17-53"/>
       <use transform="translate(91.380954 0)scale(0.996264)" xlink:href="#CMMI12-58"/>
       <use transform="translate(118.478131 0)scale(0.996264)" xlink:href="#CMR17-48"/>
      </g>
     </g>
    </g>
    <g id="ytick_8">
     <g id="line2d_15">
      <g>
       <use style="stroke:#000000;stroke-width:0.8;" x="77.282672" xlink:href="#me002badd1e" y="124.339984"/>
      </g>
     </g>
     <g id="text_16">
      <!-- $\mathdefault{17.5}$ -->
      <g transform="translate(42.535163 129.874778)scale(0.16 -0.16)">
       <use transform="scale(0.996264)" xlink:href="#CMR17-49"/>
       <use transform="translate(45.690477 0)scale(0.996264)" xlink:href="#CMR17-55"/>
       <use transform="translate(91.380954 0)scale(0.996264)" xlink:href="#CMMI12-58"/>
       <use transform="translate(118.478131 0)scale(0.996264)" xlink:href="#CMR17-53"/>
      </g>
     </g>
    </g>
    <g id="text_17">
     <!-- $\tau_{\rm int}$ -->
     <g transform="translate(33.884405 285.418992)rotate(-90)scale(0.24 -0.24)">
      <defs>
       <path d="M 28.703125 37.625 
L 45.296875 37.625 
C 46.59375 37.625 49.90625 37.625 49.90625 40.8125 
C 49.90625 43 48 43 46.203125 43 
L 18.703125 43 
C 16.40625 43 13 43 8.40625 38.125 
C 5.796875 35.234375 2.59375 29.953125 2.59375 29.359375 
C 2.59375 28.765625 3.09375 28.5625 3.703125 28.5625 
C 4.40625 28.5625 4.5 28.859375 5 29.453125 
C 10.203125 37.625 15.40625 37.625 17.90625 37.625 
L 26.203125 37.625 
L 15.796875 3.484375 
C 15.296875 1.984375 15.296875 1.78125 15.296875 1.484375 
C 15.296875 0.390625 16 -1 18 -1 
C 21.09375 -1 21.59375 1.6875 21.90625 3.171875 
z
" id="CMMI12-28"/>
       <path d="M 15.5 61.078125 
C 15.5 63.265625 13.703125 65.15625 11.40625 65.15625 
C 9.203125 65.15625 7.296875 63.375 7.296875 61.078125 
C 7.296875 58.890625 9.09375 57 11.40625 57 
C 13.59375 57 15.5 58.796875 15.5 61.078125 
z
M 3.796875 42.28125 
L 3.796875 39.703125 
C 9.40625 39.703125 10.203125 39.09375 10.203125 34.328125 
L 10.203125 6.671875 
C 10.203125 2.875 9.796875 2.390625 3.40625 2.390625 
L 3.40625 -0.203125 
C 5.796875 0 10.09375 0 12.59375 0 
C 15 0 19.09375 0 21.40625 -0.203125 
L 21.40625 2.390625 
C 15.5 2.390625 15.296875 2.984375 15.296875 6.5625 
L 15.296875 43.375 
z
" id="CMR17-105"/>
       <path d="M 41.5 30.203125 
C 41.5 35.296875 40.5 43.59375 28.703125 43.59375 
C 20.796875 43.59375 16.703125 37.5 15.203125 33.5 
L 15.09375 33.5 
L 15.09375 43.59375 
L 3.296875 42.5 
L 3.296875 39.90625 
C 9.203125 39.90625 10.09375 39.296875 10.09375 34.5 
L 10.09375 6.6875 
C 10.09375 2.875 9.703125 2.390625 3.296875 2.390625 
L 3.296875 -0.203125 
C 5.703125 0 10.09375 0 12.703125 0 
C 15.296875 0 19.796875 0 22.203125 -0.203125 
L 22.203125 2.390625 
C 15.796875 2.390625 15.40625 2.78125 15.40625 6.6875 
L 15.40625 25.90625 
C 15.40625 35.109375 21 42 28 42 
C 35.40625 42 36.203125 35.40625 36.203125 30.59375 
L 36.203125 6.6875 
C 36.203125 2.875 35.796875 2.390625 29.40625 2.390625 
L 29.40625 -0.203125 
C 31.796875 0 36.203125 0 38.796875 0 
C 41.40625 0 45.90625 0 48.296875 -0.203125 
L 48.296875 2.390625 
C 41.90625 2.390625 41.5 2.78125 41.5 6.6875 
z
" id="CMR17-110"/>
       <path d="M 15.09375 40 
L 29.09375 40 
L 29.09375 42.578125 
L 15.09375 42.578125 
L 15.09375 61 
L 13.296875 61 
C 13.09375 50.703125 9.59375 41.6875 1.09375 41.6875 
L 1.09375 40 
L 9.796875 40 
L 9.796875 12.046875 
C 9.796875 10.15625 9.796875 -1 21.40625 -1 
C 27.296875 -1 30.703125 4.78125 30.703125 12.140625 
L 30.703125 17.8125 
L 28.90625 17.8125 
L 28.90625 12.234375 
C 28.90625 5.375 26.203125 0.796875 22 0.796875 
C 19.09375 0.796875 15.09375 2.78125 15.09375 11.84375 
z
" id="CMR17-116"/>
      </defs>
      <use transform="scale(0.996264)" xlink:href="#CMMI12-28"/>
      <use transform="translate(42.363841 -14.943915)scale(0.697382)" xlink:href="#CMR17-105"/>
      <use transform="translate(59.7735 -14.943915)scale(0.697382)" xlink:href="#CMR17-110"/>
      <use transform="translate(93.578387 -14.943915)scale(0.697382)" xlink:href="#CMR17-116"/>
     </g>
    </g>
   </g>
   <g id="LineCollection_1">
    <path clip-path="url(#pff2aacd85c)" d="M 96.635863 423.323869 
L 96.635863 418.432165 
" style="fill:none;stroke:#000000;stroke-width:2;"/>
    <path clip-path="url(#pff2aacd85c)" d="M 102.779733 424.864147 
L 102.779733 420.688105 
" style="fill:none;stroke:#000000;stroke-width:2;"/>
    <path clip-path="url(#pff2aacd85c)" d="M 108.923603 423.625348 
L 108.923603 418.870672 
" style="fill:none;stroke:#000000;stroke-width:2;"/>
    <path clip-path="url(#pff2aacd85c)" d="M 115.067474 420.074218 
L 115.067474 412.410052 
" style="fill:none;stroke:#000000;stroke-width:2;"/>
    <path clip-path="url(#pff2aacd85c)" d="M 121.211344 416.027657 
L 121.211344 406.418143 
" style="fill:none;stroke:#000000;stroke-width:2;"/>
    <path clip-path="url(#pff2aacd85c)" d="M 127.355214 409.282535 
L 127.355214 392.160917 
" style="fill:none;stroke:#000000;stroke-width:2;"/>
    <path clip-path="url(#pff2aacd85c)" d="M 133.499084 407.836847 
L 133.499084 389.930178 
" style="fill:none;stroke:#000000;stroke-width:2;"/>
    <path clip-path="url(#pff2aacd85c)" d="M 139.642954 407.091622 
L 139.642954 388.792322 
" style="fill:none;stroke:#000000;stroke-width:2;"/>
    <path clip-path="url(#pff2aacd85c)" d="M 145.786825 405.832249 
L 145.786825 384.251096 
" style="fill:none;stroke:#000000;stroke-width:2;"/>
    <path clip-path="url(#pff2aacd85c)" d="M 151.930695 404.584095 
L 151.930695 382.2673 
" style="fill:none;stroke:#000000;stroke-width:2;"/>
    <path clip-path="url(#pff2aacd85c)" d="M 158.074565 403.334563 
L 158.074565 380.304025 
" style="fill:none;stroke:#000000;stroke-width:2;"/>
    <path clip-path="url(#pff2aacd85c)" d="M 164.218435 401.775425 
L 164.218435 377.885924 
" style="fill:none;stroke:#000000;stroke-width:2;"/>
    <path clip-path="url(#pff2aacd85c)" d="M 170.362305 400.565406 
L 170.362305 372.955002 
" style="fill:none;stroke:#000000;stroke-width:2;"/>
    <path clip-path="url(#pff2aacd85c)" d="M 176.506176 398.682263 
L 176.506176 369.941611 
" style="fill:none;stroke:#000000;stroke-width:2;"/>
    <path clip-path="url(#pff2aacd85c)" d="M 182.650046 396.833265 
L 182.650046 367.031885 
" style="fill:none;stroke:#000000;stroke-width:2;"/>
    <path clip-path="url(#pff2aacd85c)" d="M 188.793916 394.519357 
L 188.793916 359.879698 
" style="fill:none;stroke:#000000;stroke-width:2;"/>
    <path clip-path="url(#pff2aacd85c)" d="M 194.937786 393.436168 
L 194.937786 358.138007 
" style="fill:none;stroke:#000000;stroke-width:2;"/>
    <path clip-path="url(#pff2aacd85c)" d="M 201.081656 392.517743 
L 201.081656 356.674066 
" style="fill:none;stroke:#000000;stroke-width:2;"/>
    <path clip-path="url(#pff2aacd85c)" d="M 207.225527 391.970075 
L 207.225527 355.806671 
" style="fill:none;stroke:#000000;stroke-width:2;"/>
    <path clip-path="url(#pff2aacd85c)" d="M 213.369397 392.022061 
L 213.369397 355.888828 
" style="fill:none;stroke:#000000;stroke-width:2;"/>
    <path clip-path="url(#pff2aacd85c)" d="M 219.513267 391.660877 
L 219.513267 355.318796 
" style="fill:none;stroke:#000000;stroke-width:2;"/>
    <path clip-path="url(#pff2aacd85c)" d="M 225.657137 389.075107 
L 225.657137 347.274694 
" style="fill:none;stroke:#000000;stroke-width:2;"/>
    <path clip-path="url(#pff2aacd85c)" d="M 231.801007 387.461276 
L 231.801007 344.671921 
" style="fill:none;stroke:#000000;stroke-width:2;"/>
    <path clip-path="url(#pff2aacd85c)" d="M 237.944877 382.337639 
L 237.944877 332.093192 
" style="fill:none;stroke:#000000;stroke-width:2;"/>
    <path clip-path="url(#pff2aacd85c)" d="M 244.088748 375.284493 
L 244.088748 315.954384 
" style="fill:none;stroke:#000000;stroke-width:2;"/>
    <path clip-path="url(#pff2aacd85c)" d="M 250.232618 365.486833 
L 250.232618 289.274722 
" style="fill:none;stroke:#000000;stroke-width:2;"/>
    <path clip-path="url(#pff2aacd85c)" d="M 256.376488 353.977116 
L 256.376488 258.179301 
" style="fill:none;stroke:#000000;stroke-width:2;"/>
    <path clip-path="url(#pff2aacd85c)" d="M 262.520358 341.344944 
L 262.520358 223.749649 
" style="fill:none;stroke:#000000;stroke-width:2;"/>
    <path clip-path="url(#pff2aacd85c)" d="M 268.664228 328.590089 
L 268.664228 187.729457 
" style="fill:none;stroke:#000000;stroke-width:2;"/>
    <path clip-path="url(#pff2aacd85c)" d="M 274.808099 314.242272 
L 274.808099 148.019644 
" style="fill:none;stroke:#000000;stroke-width:2;"/>
    <path clip-path="url(#pff2aacd85c)" d="M 280.951969 303.697507 
L 280.951969 122.85463 
" style="fill:none;stroke:#000000;stroke-width:2;"/>
    <path clip-path="url(#pff2aacd85c)" d="M 287.095839 299.020903 
L 287.095839 116.231626 
" style="fill:none;stroke:#000000;stroke-width:2;"/>
    <path clip-path="url(#pff2aacd85c)" d="M 293.239709 299.922915 
L 293.239709 117.492583 
" style="fill:none;stroke:#000000;stroke-width:2;"/>
    <path clip-path="url(#pff2aacd85c)" d="M 299.383579 306.629836 
L 299.383579 127.116873 
" style="fill:none;stroke:#000000;stroke-width:2;"/>
    <path clip-path="url(#pff2aacd85c)" d="M 305.52745 319.331243 
L 305.52745 164.860723 
" style="fill:none;stroke:#000000;stroke-width:2;"/>
    <path clip-path="url(#pff2aacd85c)" d="M 311.67132 331.594485 
L 311.67132 200.694949 
" style="fill:none;stroke:#000000;stroke-width:2;"/>
    <path clip-path="url(#pff2aacd85c)" d="M 317.81519 342.3891 
L 317.81519 225.405272 
" style="fill:none;stroke:#000000;stroke-width:2;"/>
    <path clip-path="url(#pff2aacd85c)" d="M 323.95906 353.357984 
L 323.95906 257.186988 
" style="fill:none;stroke:#000000;stroke-width:2;"/>
    <path clip-path="url(#pff2aacd85c)" d="M 330.10293 360.508443 
L 330.10293 275.182992 
" style="fill:none;stroke:#000000;stroke-width:2;"/>
    <path clip-path="url(#pff2aacd85c)" d="M 336.246801 366.273334 
L 336.246801 290.549283 
" style="fill:none;stroke:#000000;stroke-width:2;"/>
    <path clip-path="url(#pff2aacd85c)" d="M 342.390671 371.661289 
L 342.390671 304.886093 
" style="fill:none;stroke:#000000;stroke-width:2;"/>
    <path clip-path="url(#pff2aacd85c)" d="M 348.534541 376.126973 
L 348.534541 317.304084 
" style="fill:none;stroke:#000000;stroke-width:2;"/>
    <path clip-path="url(#pff2aacd85c)" d="M 354.678411 378.861707 
L 354.678411 321.749681 
" style="fill:none;stroke:#000000;stroke-width:2;"/>
    <path clip-path="url(#pff2aacd85c)" d="M 360.822281 382.244849 
L 360.822281 331.943596 
" style="fill:none;stroke:#000000;stroke-width:2;"/>
    <path clip-path="url(#pff2aacd85c)" d="M 366.966152 384.523564 
L 366.966152 335.650906 
" style="fill:none;stroke:#000000;stroke-width:2;"/>
    <path clip-path="url(#pff2aacd85c)" d="M 373.110022 387.38733 
L 373.110022 344.553515 
" style="fill:none;stroke:#000000;stroke-width:2;"/>
    <path clip-path="url(#pff2aacd85c)" d="M 379.253892 389.626382 
L 379.253892 348.171991 
" style="fill:none;stroke:#000000;stroke-width:2;"/>
    <path clip-path="url(#pff2aacd85c)" d="M 385.397762 393.114505 
L 385.397762 357.623951 
" style="fill:none;stroke:#000000;stroke-width:2;"/>
    <path clip-path="url(#pff2aacd85c)" d="M 391.541632 394.108002 
L 391.541632 359.216333 
" style="fill:none;stroke:#000000;stroke-width:2;"/>
    <path clip-path="url(#pff2aacd85c)" d="M 397.685503 394.365284 
L 397.685503 359.630957 
" style="fill:none;stroke:#000000;stroke-width:2;"/>
    <path clip-path="url(#pff2aacd85c)" d="M 403.829373 394.330362 
L 403.829373 359.574624 
" style="fill:none;stroke:#000000;stroke-width:2;"/>
    <path clip-path="url(#pff2aacd85c)" d="M 409.973243 394.579353 
L 409.973243 359.976648 
" style="fill:none;stroke:#000000;stroke-width:2;"/>
    <path clip-path="url(#pff2aacd85c)" d="M 416.117113 395.132227 
L 416.117113 360.872439 
" style="fill:none;stroke:#000000;stroke-width:2;"/>
    <path clip-path="url(#pff2aacd85c)" d="M 422.260983 396.652186 
L 422.260983 366.749518 
" style="fill:none;stroke:#000000;stroke-width:2;"/>
    <path clip-path="url(#pff2aacd85c)" d="M 428.404854 397.505655 
L 428.404854 368.084423 
" style="fill:none;stroke:#000000;stroke-width:2;"/>
    <path clip-path="url(#pff2aacd85c)" d="M 434.548724 398.159516 
L 434.548724 369.114073 
" style="fill:none;stroke:#000000;stroke-width:2;"/>
    <path clip-path="url(#pff2aacd85c)" d="M 440.692594 399.009822 
L 440.692594 370.462132 
" style="fill:none;stroke:#000000;stroke-width:2;"/>
    <path clip-path="url(#pff2aacd85c)" d="M 446.836464 401.685479 
L 446.836464 377.747491 
" style="fill:none;stroke:#000000;stroke-width:2;"/>
    <path clip-path="url(#pff2aacd85c)" d="M 452.980334 404.307615 
L 452.980334 381.83094 
" style="fill:none;stroke:#000000;stroke-width:2;"/>
    <path clip-path="url(#pff2aacd85c)" d="M 459.124205 408.179777 
L 459.124205 390.456533 
" style="fill:none;stroke:#000000;stroke-width:2;"/>
    <path clip-path="url(#pff2aacd85c)" d="M 465.268075 412.286297 
L 465.268075 398.959013 
" style="fill:none;stroke:#000000;stroke-width:2;"/>
    <path clip-path="url(#pff2aacd85c)" d="M 471.411945 417.821371 
L 471.411945 409.042555 
" style="fill:none;stroke:#000000;stroke-width:2;"/>
    <path clip-path="url(#pff2aacd85c)" d="M 477.555815 421.277298 
L 477.555815 415.494588 
" style="fill:none;stroke:#000000;stroke-width:2;"/>
    <path clip-path="url(#pff2aacd85c)" d="M 483.699685 424.360976 
L 483.699685 419.946884 
" style="fill:none;stroke:#000000;stroke-width:2;"/>
   </g>
   <g id="line2d_16">
    <path clip-path="url(#pff2aacd85c)" d="M 96.635863 420.878017 
L 102.779733 422.776126 
L 108.923603 421.24801 
L 115.067474 416.242135 
L 121.211344 411.2229 
L 127.355214 400.721726 
L 133.499084 398.883512 
L 139.642954 397.941972 
L 145.786825 395.041672 
L 151.930695 393.425697 
L 158.074565 391.819294 
L 164.218435 389.830674 
L 170.362305 386.760204 
L 176.506176 384.311937 
L 182.650046 381.932575 
L 188.793916 377.199527 
L 194.937786 375.787087 
L 201.081656 374.595904 
L 207.225527 373.888373 
L 213.369397 373.955445 
L 219.513267 373.489836 
L 225.657137 368.174901 
L 231.801007 366.066599 
L 237.944877 357.215416 
L 244.088748 345.619438 
L 250.232618 327.380777 
L 256.376488 306.078208 
L 262.520358 282.547296 
L 268.664228 258.159773 
L 274.808099 231.130958 
L 280.951969 213.276069 
L 287.095839 207.626265 
L 293.239709 208.707749 
L 299.383579 216.873355 
L 305.52745 242.095983 
L 311.67132 266.144717 
L 317.81519 283.897186 
L 323.95906 305.272486 
L 330.10293 317.845718 
L 336.246801 328.411308 
L 342.390671 338.273691 
L 348.534541 346.715529 
L 354.678411 350.305694 
L 360.822281 357.094222 
L 366.966152 360.087235 
L 373.110022 365.970423 
L 379.253892 368.899186 
L 385.397762 375.369228 
L 391.541632 376.662168 
L 397.685503 376.99812 
L 403.829373 376.952493 
L 409.973243 377.278001 
L 416.117113 378.002333 
L 422.260983 381.700852 
L 428.404854 382.795039 
L 434.548724 383.636795 
L 440.692594 384.735977 
L 446.836464 389.716485 
L 452.980334 393.069277 
L 459.124205 399.318155 
L 465.268075 405.622655 
L 471.411945 413.431963 
L 477.555815 418.385943 
L 483.699685 422.15393 
" style="fill:none;stroke:#000000;stroke-linecap:square;stroke-width:2;"/>
   </g>
   <g id="patch_3">
    <path d="M 77.282672 440.295773 
L 77.282672 100.8 
" style="fill:none;stroke:#000000;stroke-linecap:square;stroke-linejoin:miter;stroke-width:0.8;"/>
   </g>
   <g id="patch_4">
    <path d="M 503.052876 440.295773 
L 503.052876 100.8 
" style="fill:none;stroke:#000000;stroke-linecap:square;stroke-linejoin:miter;stroke-width:0.8;"/>
   </g>
   <g id="patch_5">
    <path d="M 77.282672 440.295773 
L 503.052876 440.295773 
" style="fill:none;stroke:#000000;stroke-linecap:square;stroke-linejoin:miter;stroke-width:0.8;"/>
   </g>
   <g id="patch_6">
    <path d="M 77.282672 100.8 
L 503.052876 100.8 
" style="fill:none;stroke:#000000;stroke-linecap:square;stroke-linejoin:miter;stroke-width:0.8;"/>
   </g>
  </g>
  <g id="axes_2">
   <g id="matplotlib.axis_3">
    <g id="ytick_9">
     <g id="line2d_17">
      <defs>
       <path d="M 0 0 
L 3.5 0 
" id="m11b2e66265" style="stroke:#000000;stroke-width:0.8;"/>
      </defs>
      <g>
       <use style="stroke:#000000;stroke-width:0.8;" x="503.052876" xlink:href="#m11b2e66265" y="431.598883"/>
      </g>
     </g>
     <g id="text_18">
      <!-- $\mathdefault{0}$ -->
      <g transform="translate(510.052876 437.133677)scale(0.16 -0.16)">
       <use transform="scale(0.996264)" xlink:href="#CMR17-48"/>
      </g>
     </g>
    </g>
    <g id="ytick_10">
     <g id="line2d_18">
      <g>
       <use style="stroke:#000000;stroke-width:0.8;" x="503.052876" xlink:href="#m11b2e66265" y="375.880067"/>
      </g>
     </g>
     <g id="text_19">
      <!-- $\mathdefault{50}$ -->
      <g transform="translate(510.052876 381.414861)scale(0.16 -0.16)">
       <use transform="scale(0.996264)" xlink:href="#CMR17-53"/>
       <use transform="translate(45.690477 0)scale(0.996264)" xlink:href="#CMR17-48"/>
      </g>
     </g>
    </g>
    <g id="ytick_11">
     <g id="line2d_19">
      <g>
       <use style="stroke:#000000;stroke-width:0.8;" x="503.052876" xlink:href="#m11b2e66265" y="320.16125"/>
      </g>
     </g>
     <g id="text_20">
      <!-- $\mathdefault{100}$ -->
      <g transform="translate(510.052876 325.696044)scale(0.16 -0.16)">
       <use transform="scale(0.996264)" xlink:href="#CMR17-49"/>
       <use transform="translate(45.690477 0)scale(0.996264)" xlink:href="#CMR17-48"/>
       <use transform="translate(91.380954 0)scale(0.996264)" xlink:href="#CMR17-48"/>
      </g>
     </g>
    </g>
    <g id="ytick_12">
     <g id="line2d_20">
      <g>
       <use style="stroke:#000000;stroke-width:0.8;" x="503.052876" xlink:href="#m11b2e66265" y="264.442433"/>
      </g>
     </g>
     <g id="text_21">
      <!-- $\mathdefault{150}$ -->
      <g transform="translate(510.052876 269.977228)scale(0.16 -0.16)">
       <use transform="scale(0.996264)" xlink:href="#CMR17-49"/>
       <use transform="translate(45.690477 0)scale(0.996264)" xlink:href="#CMR17-53"/>
       <use transform="translate(91.380954 0)scale(0.996264)" xlink:href="#CMR17-48"/>
      </g>
     </g>
    </g>
    <g id="ytick_13">
     <g id="line2d_21">
      <g>
       <use style="stroke:#000000;stroke-width:0.8;" x="503.052876" xlink:href="#m11b2e66265" y="208.723617"/>
      </g>
     </g>
     <g id="text_22">
      <!-- $\mathdefault{200}$ -->
      <g transform="translate(510.052876 214.258411)scale(0.16 -0.16)">
       <use transform="scale(0.996264)" xlink:href="#CMR17-50"/>
       <use transform="translate(45.690477 0)scale(0.996264)" xlink:href="#CMR17-48"/>
       <use transform="translate(91.380954 0)scale(0.996264)" xlink:href="#CMR17-48"/>
      </g>
     </g>
    </g>
    <g id="ytick_14">
     <g id="line2d_22">
      <g>
       <use style="stroke:#000000;stroke-width:0.8;" x="503.052876" xlink:href="#m11b2e66265" y="153.0048"/>
      </g>
     </g>
     <g id="text_23">
      <!-- $\mathdefault{250}$ -->
      <g transform="translate(510.052876 158.539594)scale(0.16 -0.16)">
       <use transform="scale(0.996264)" xlink:href="#CMR17-50"/>
       <use transform="translate(45.690477 0)scale(0.996264)" xlink:href="#CMR17-53"/>
       <use transform="translate(91.380954 0)scale(0.996264)" xlink:href="#CMR17-48"/>
      </g>
     </g>
    </g>
    <g id="text_24">
     <!-- $N_{\rm ind}$ -->
     <g style="fill:#0000ff;" transform="translate(554.069243 291.302454)rotate(-90)scale(0.24 -0.24)">
      <defs>
       <path d="M 74 57.78125 
C 75.09375 62.09375 76.703125 65.09375 84.296875 65.09375 
C 84.59375 65.09375 85.796875 65.09375 85.796875 66.859375 
C 85.796875 68 84.90625 68 84.5 68 
C 82.5 68 77.40625 68 75.40625 68 
L 70.59375 68 
C 69.203125 68 67.40625 68 66 68 
C 65.40625 68 64.203125 68 64.203125 66.09375 
C 64.203125 65.09375 65 65.09375 65.703125 65.09375 
C 71.703125 65.09375 72.09375 62.796875 72.09375 60.984375 
C 72.09375 60.09375 72 59.78125 71.703125 58.390625 
L 60.40625 13.28125 
L 39 66.390625 
C 38.296875 68 38.203125 68 36 68 
L 23.796875 68 
C 21.796875 68 20.90625 68 20.90625 66.09375 
C 20.90625 65.09375 21.59375 65.09375 23.5 65.09375 
C 24 65.09375 29.90625 65.09375 29.90625 64.296875 
C 29.90625 64.09375 29.703125 63.296875 29.59375 63 
L 16.296875 9.921875 
C 15.09375 5 12.703125 2.90625 6.09375 2.90625 
C 5.59375 2.90625 4.59375 2.90625 4.59375 1.046875 
C 4.59375 0 5.59375 0 5.90625 0 
C 7.90625 0 13 0 15 0 
L 19.796875 0 
C 21.203125 0 22.90625 0 24.296875 0 
C 25 0 26.09375 0 26.09375 1.90625 
C 26.09375 2.8125 25.09375 2.90625 24.703125 2.90625 
C 21.40625 2.90625 18.203125 3.5 18.203125 7.09375 
C 18.203125 7.890625 18.40625 8.78125 18.59375 9.578125 
L 32.09375 63 
C 32.703125 62 32.703125 61.8125 33.09375 60.90625 
L 56.90625 1.796875 
C 57.40625 0.59375 57.59375 0 58.5 0 
C 59.5 0 59.59375 0.296875 60 2 
z
" id="CMMI12-78"/>
       <path d="M 29.203125 67.59375 
L 29.203125 65 
C 35.09375 65 36 64.40625 36 59.6875 
L 36 36.640625 
C 35.59375 37.140625 31.5 43.59375 23.40625 43.59375 
C 13.203125 43.59375 3.296875 34.5 3.296875 21.3125 
C 3.296875 8.203125 12.59375 -1 22.40625 -1 
C 30.90625 -1 35.296875 5.265625 35.796875 5.9375 
L 35.796875 -0.984375 
L 47.90625 -0.984375 
L 47.90625 2 
C 42 2 41.09375 2.59375 41.09375 7.390625 
L 41.09375 68.6875 
z
M 35.796875 11.796875 
C 35.796875 8.796875 34 6.09375 31.703125 4.09375 
C 28.296875 1.09375 24.90625 0.59375 23 0.59375 
C 20.09375 0.59375 9.703125 2.09375 9.703125 21.1875 
C 9.703125 40.8125 21.296875 42 23.90625 42 
C 28.5 42 32.203125 39.40625 34.5 35.796875 
C 35.796875 33.703125 35.796875 33.40625 35.796875 31.609375 
z
" id="CMR17-100"/>
      </defs>
      <use transform="scale(0.996264)" xlink:href="#CMMI12-78"/>
      <use transform="translate(78.115119 -14.943915)scale(0.697382)" xlink:href="#CMR17-105"/>
      <use transform="translate(95.524778 -14.943915)scale(0.697382)" xlink:href="#CMR17-110"/>
      <use transform="translate(131.151386 -14.943915)scale(0.697382)" xlink:href="#CMR17-100"/>
     </g>
    </g>
   </g>
   <g id="LineCollection_2">
    <path clip-path="url(#pff2aacd85c)" d="M 96.635863 259.214104 
L 96.635863 168.202092 
" style="fill:none;stroke:#0000ff;stroke-width:2;"/>
    <path clip-path="url(#pff2aacd85c)" d="M 102.779733 226.892735 
L 102.779733 116.231626 
" style="fill:none;stroke:#0000ff;stroke-width:2;"/>
    <path clip-path="url(#pff2aacd85c)" d="M 108.923603 253.764003 
L 108.923603 159.435321 
" style="fill:none;stroke:#0000ff;stroke-width:2;"/>
    <path clip-path="url(#pff2aacd85c)" d="M 115.067474 312.092794 
L 115.067474 238.907273 
" style="fill:none;stroke:#0000ff;stroke-width:2;"/>
    <path clip-path="url(#pff2aacd85c)" d="M 121.211344 339.026492 
L 121.211344 285.313115 
" style="fill:none;stroke:#0000ff;stroke-width:2;"/>
    <path clip-path="url(#pff2aacd85c)" d="M 127.355214 373.035776 
L 127.355214 330.01393 
" style="fill:none;stroke:#0000ff;stroke-width:2;"/>
    <path clip-path="url(#pff2aacd85c)" d="M 133.499084 376.002139 
L 133.499084 335.781597 
" style="fill:none;stroke:#0000ff;stroke-width:2;"/>
    <path clip-path="url(#pff2aacd85c)" d="M 139.642954 377.398646 
L 139.642954 338.499776 
" style="fill:none;stroke:#0000ff;stroke-width:2;"/>
    <path clip-path="url(#pff2aacd85c)" d="M 145.786825 383.169028 
L 145.786825 344.107304 
" style="fill:none;stroke:#0000ff;stroke-width:2;"/>
    <path clip-path="url(#pff2aacd85c)" d="M 151.930695 385.006664 
L 151.930695 347.878097 
" style="fill:none;stroke:#0000ff;stroke-width:2;"/>
    <path clip-path="url(#pff2aacd85c)" d="M 158.074565 386.687698 
L 158.074565 351.331619 
" style="fill:none;stroke:#0000ff;stroke-width:2;"/>
    <path clip-path="url(#pff2aacd85c)" d="M 164.218435 388.591928 
L 164.218435 355.249207 
" style="fill:none;stroke:#0000ff;stroke-width:2;"/>
    <path clip-path="url(#pff2aacd85c)" d="M 170.362305 392.691563 
L 170.362305 359.14628 
" style="fill:none;stroke:#0000ff;stroke-width:2;"/>
    <path clip-path="url(#pff2aacd85c)" d="M 176.506176 394.475932 
L 176.506176 363.009267 
" style="fill:none;stroke:#0000ff;stroke-width:2;"/>
    <path clip-path="url(#pff2aacd85c)" d="M 182.650046 396.042723 
L 182.650046 366.407839 
" style="fill:none;stroke:#0000ff;stroke-width:2;"/>
    <path clip-path="url(#pff2aacd85c)" d="M 188.793916 399.935108 
L 188.793916 371.124305 
" style="fill:none;stroke:#0000ff;stroke-width:2;"/>
    <path clip-path="url(#pff2aacd85c)" d="M 194.937786 400.63356 
L 194.937786 372.716964 
" style="fill:none;stroke:#0000ff;stroke-width:2;"/>
    <path clip-path="url(#pff2aacd85c)" d="M 201.081656 401.195721 
L 201.081656 374.000267 
" style="fill:none;stroke:#0000ff;stroke-width:2;"/>
    <path clip-path="url(#pff2aacd85c)" d="M 207.225527 401.518641 
L 207.225527 374.738047 
" style="fill:none;stroke:#0000ff;stroke-width:2;"/>
    <path clip-path="url(#pff2aacd85c)" d="M 213.369397 401.48837 
L 213.369397 374.668866 
" style="fill:none;stroke:#0000ff;stroke-width:2;"/>
    <path clip-path="url(#pff2aacd85c)" d="M 219.513267 401.697069 
L 219.513267 375.145907 
" style="fill:none;stroke:#0000ff;stroke-width:2;"/>
    <path clip-path="url(#pff2aacd85c)" d="M 225.657137 404.837747 
L 225.657137 379.130515 
" style="fill:none;stroke:#0000ff;stroke-width:2;"/>
    <path clip-path="url(#pff2aacd85c)" d="M 231.801007 405.576558 
L 231.801007 380.902726 
" style="fill:none;stroke:#0000ff;stroke-width:2;"/>
    <path clip-path="url(#pff2aacd85c)" d="M 237.944877 409.028024 
L 237.944877 386.460354 
" style="fill:none;stroke:#0000ff;stroke-width:2;"/>
    <path clip-path="url(#pff2aacd85c)" d="M 244.088748 412.266165 
L 244.088748 392.250139 
" style="fill:none;stroke:#0000ff;stroke-width:2;"/>
    <path clip-path="url(#pff2aacd85c)" d="M 250.232618 416.129394 
L 250.232618 398.559779 
" style="fill:none;stroke:#0000ff;stroke-width:2;"/>
    <path clip-path="url(#pff2aacd85c)" d="M 256.376488 419.065395 
L 256.376488 403.791904 
" style="fill:none;stroke:#0000ff;stroke-width:2;"/>
    <path clip-path="url(#pff2aacd85c)" d="M 262.520358 421.256525 
L 262.520358 407.927327 
" style="fill:none;stroke:#0000ff;stroke-width:2;"/>
    <path clip-path="url(#pff2aacd85c)" d="M 268.664228 422.876618 
L 268.664228 411.062826 
" style="fill:none;stroke:#0000ff;stroke-width:2;"/>
    <path clip-path="url(#pff2aacd85c)" d="M 274.808099 424.157973 
L 274.808099 413.706939 
" style="fill:none;stroke:#0000ff;stroke-width:2;"/>
    <path clip-path="url(#pff2aacd85c)" d="M 280.951969 424.760793 
L 280.951969 415.166537 
" style="fill:none;stroke:#0000ff;stroke-width:2;"/>
    <path clip-path="url(#pff2aacd85c)" d="M 287.095839 424.864147 
L 287.095839 415.647606 
" style="fill:none;stroke:#0000ff;stroke-width:2;"/>
    <path clip-path="url(#pff2aacd85c)" d="M 293.239709 424.844845 
L 293.239709 415.55732 
" style="fill:none;stroke:#0000ff;stroke-width:2;"/>
    <path clip-path="url(#pff2aacd85c)" d="M 299.383579 424.691628 
L 299.383579 414.847643 
" style="fill:none;stroke:#0000ff;stroke-width:2;"/>
    <path clip-path="url(#pff2aacd85c)" d="M 305.52745 423.634561 
L 305.52745 412.772161 
" style="fill:none;stroke:#0000ff;stroke-width:2;"/>
    <path clip-path="url(#pff2aacd85c)" d="M 311.67132 422.296398 
L 311.67132 410.239419 
" style="fill:none;stroke:#0000ff;stroke-width:2;"/>
    <path clip-path="url(#pff2aacd85c)" d="M 317.81519 421.1884 
L 317.81519 407.686659 
" style="fill:none;stroke:#0000ff;stroke-width:2;"/>
    <path clip-path="url(#pff2aacd85c)" d="M 323.95906 419.126064 
L 323.95906 403.98653 
" style="fill:none;stroke:#0000ff;stroke-width:2;"/>
    <path clip-path="url(#pff2aacd85c)" d="M 330.10293 417.628689 
L 330.10293 401.091496 
" style="fill:none;stroke:#0000ff;stroke-width:2;"/>
    <path clip-path="url(#pff2aacd85c)" d="M 336.246801 416.006752 
L 336.246801 398.202572 
" style="fill:none;stroke:#0000ff;stroke-width:2;"/>
    <path clip-path="url(#pff2aacd85c)" d="M 342.390671 414.120984 
L 342.390671 394.965717 
" style="fill:none;stroke:#0000ff;stroke-width:2;"/>
    <path clip-path="url(#pff2aacd85c)" d="M 348.534541 412.061018 
L 348.534541 391.706277 
" style="fill:none;stroke:#0000ff;stroke-width:2;"/>
    <path clip-path="url(#pff2aacd85c)" d="M 354.678411 411.349576 
L 354.678411 389.824669 
" style="fill:none;stroke:#0000ff;stroke-width:2;"/>
    <path clip-path="url(#pff2aacd85c)" d="M 360.822281 409.058889 
L 360.822281 386.538184 
" style="fill:none;stroke:#0000ff;stroke-width:2;"/>
    <path clip-path="url(#pff2aacd85c)" d="M 366.966152 408.265682 
L 366.966152 384.54071 
" style="fill:none;stroke:#0000ff;stroke-width:2;"/>
    <path clip-path="url(#pff2aacd85c)" d="M 373.110022 405.609123 
L 373.110022 380.980918 
" style="fill:none;stroke:#0000ff;stroke-width:2;"/>
    <path clip-path="url(#pff2aacd85c)" d="M 379.253892 404.572417 
L 379.253892 378.494843 
" style="fill:none;stroke:#0000ff;stroke-width:2;"/>
    <path clip-path="url(#pff2aacd85c)" d="M 385.397762 400.833474 
L 385.397762 373.173176 
" style="fill:none;stroke:#0000ff;stroke-width:2;"/>
    <path clip-path="url(#pff2aacd85c)" d="M 391.541632 400.205058 
L 391.541632 371.739642 
" style="fill:none;stroke:#0000ff;stroke-width:2;"/>
    <path clip-path="url(#pff2aacd85c)" d="M 397.685503 400.036909 
L 397.685503 371.356323 
" style="fill:none;stroke:#0000ff;stroke-width:2;"/>
    <path clip-path="url(#pff2aacd85c)" d="M 403.829373 400.059867 
L 403.829373 371.408653 
" style="fill:none;stroke:#0000ff;stroke-width:2;"/>
    <path clip-path="url(#pff2aacd85c)" d="M 409.973243 399.89524 
L 409.973243 371.033451 
" style="fill:none;stroke:#0000ff;stroke-width:2;"/>
    <path clip-path="url(#pff2aacd85c)" d="M 416.117113 399.52175 
L 416.117113 370.18259 
" style="fill:none;stroke:#0000ff;stroke-width:2;"/>
    <path clip-path="url(#pff2aacd85c)" d="M 422.260983 396.187369 
L 422.260983 366.721951 
" style="fill:none;stroke:#0000ff;stroke-width:2;"/>
    <path clip-path="url(#pff2aacd85c)" d="M 428.404854 395.492346 
L 428.404854 365.213216 
" style="fill:none;stroke:#0000ff;stroke-width:2;"/>
    <path clip-path="url(#pff2aacd85c)" d="M 434.548724 394.936206 
L 434.548724 364.006962 
" style="fill:none;stroke:#0000ff;stroke-width:2;"/>
    <path clip-path="url(#pff2aacd85c)" d="M 440.692594 394.180116 
L 440.692594 362.368337 
" style="fill:none;stroke:#0000ff;stroke-width:2;"/>
    <path clip-path="url(#pff2aacd85c)" d="M 446.836464 388.695847 
L 446.836464 355.463189 
" style="fill:none;stroke:#0000ff;stroke-width:2;"/>
    <path clip-path="url(#pff2aacd85c)" d="M 452.980334 385.39156 
L 452.980334 348.668461 
" style="fill:none;stroke:#0000ff;stroke-width:2;"/>
    <path clip-path="url(#pff2aacd85c)" d="M 459.124205 375.330571 
L 459.124205 334.475137 
" style="fill:none;stroke:#0000ff;stroke-width:2;"/>
    <path clip-path="url(#pff2aacd85c)" d="M 465.268075 360.355128 
L 465.268075 313.589086 
" style="fill:none;stroke:#0000ff;stroke-width:2;"/>
    <path clip-path="url(#pff2aacd85c)" d="M 471.411945 328.917843 
L 471.411945 267.878489 
" style="fill:none;stroke:#0000ff;stroke-width:2;"/>
    <path clip-path="url(#pff2aacd85c)" d="M 477.555815 288.512212 
L 477.555815 215.365385 
" style="fill:none;stroke:#0000ff;stroke-width:2;"/>
    <path clip-path="url(#pff2aacd85c)" d="M 483.699685 238.785009 
L 483.699685 135.348423 
" style="fill:none;stroke:#0000ff;stroke-width:2;"/>
   </g>
   <g id="line2d_23">
    <path clip-path="url(#pff2aacd85c)" d="M 96.635863 213.708098 
L 102.779733 171.562181 
L 108.923603 206.599662 
L 115.067474 275.500034 
L 121.211344 312.169803 
L 127.355214 351.524853 
L 133.499084 355.891868 
L 139.642954 357.949211 
L 145.786825 363.638166 
L 151.930695 366.442381 
L 158.074565 369.009658 
L 164.218435 371.920568 
L 170.362305 375.918922 
L 176.506176 378.742599 
L 182.650046 381.225281 
L 188.793916 385.529707 
L 194.937786 386.675262 
L 201.081656 387.597994 
L 207.225527 388.128344 
L 213.369397 388.078618 
L 219.513267 388.421488 
L 225.657137 391.984131 
L 231.801007 393.239642 
L 237.944877 397.744189 
L 244.088748 402.258152 
L 250.232618 407.344586 
L 256.376488 411.42865 
L 262.520358 414.591926 
L 268.664228 416.969722 
L 274.808099 418.932456 
L 280.951969 419.963665 
L 287.095839 420.255876 
L 293.239709 420.201083 
L 299.383579 419.769636 
L 305.52745 418.203361 
L 311.67132 416.267908 
L 317.81519 414.43753 
L 323.95906 411.556297 
L 330.10293 409.360093 
L 336.246801 407.104662 
L 342.390671 404.54335 
L 348.534541 401.883647 
L 354.678411 400.587123 
L 360.822281 397.798536 
L 366.966152 396.403196 
L 373.110022 393.29502 
L 379.253892 391.53363 
L 385.397762 387.003325 
L 391.541632 385.97235 
L 397.685503 385.696616 
L 403.829373 385.73426 
L 409.973243 385.464345 
L 416.117113 384.85217 
L 422.260983 381.45466 
L 428.404854 380.352781 
L 434.548724 379.471584 
L 440.692594 378.274226 
L 446.836464 372.079518 
L 452.980334 367.03001 
L 459.124205 354.902854 
L 465.268075 336.972107 
L 471.411945 298.398166 
L 477.555815 251.938799 
L 483.699685 187.066716 
" style="fill:none;stroke:#0000ff;stroke-linecap:square;stroke-width:2;"/>
   </g>
   <g id="patch_7">
    <path d="M 77.282672 440.295773 
L 77.282672 100.8 
" style="fill:none;stroke:#000000;stroke-linecap:square;stroke-linejoin:miter;stroke-width:0.8;"/>
   </g>
   <g id="patch_8">
    <path d="M 503.052876 440.295773 
L 503.052876 100.8 
" style="fill:none;stroke:#000000;stroke-linecap:square;stroke-linejoin:miter;stroke-width:0.8;"/>
   </g>
   <g id="patch_9">
    <path d="M 77.282672 440.295773 
L 503.052876 440.295773 
" style="fill:none;stroke:#000000;stroke-linecap:square;stroke-linejoin:miter;stroke-width:0.8;"/>
   </g>
   <g id="patch_10">
    <path d="M 77.282672 100.8 
L 503.052876 100.8 
" style="fill:none;stroke:#000000;stroke-linecap:square;stroke-linejoin:miter;stroke-width:0.8;"/>
   </g>
   <g id="text_25">
    <!-- L32 beta11p5 kappa0p1515 N260 MCMC5 Buchoff -->
    <g transform="translate(45.992147 70.223956)scale(0.24 -0.24)">
     <defs>
      <path d="M 54.203125 25.234375 
L 52.40625 25.234375 
C 51.59375 15.359375 50.296875 2.59375 33.203125 2.59375 
L 23.90625 2.59375 
C 19.90625 2.59375 19.703125 3.078125 19.703125 6.46875 
L 19.703125 60.90625 
C 19.703125 64.515625 19.90625 65.5 27.5 65.5 
L 29.703125 65.5 
L 29.703125 68 
C 25.59375 68 20.796875 68 16.703125 68 
C 13.59375 68 8 68 5.09375 68 
L 5.09375 65.5 
C 12 65.5 13.09375 65.5 13.09375 61.015625 
L 13.09375 7.0625 
C 13.09375 2.59375 12 2.59375 5.09375 2.59375 
L 5.09375 0 
L 51.796875 0 
z
" id="CMR17-76"/>
      <path d="M 15 68.6875 
L 3.09375 67.59375 
L 3.09375 65 
C 9 65 9.90625 64.40625 9.90625 59.640625 
L 9.90625 -0.203125 
L 11.703125 -0.203125 
L 14.59375 6.890625 
C 17.5 2.203125 21.796875 -1 27.59375 -1 
C 37.59375 -1 47.703125 7.8125 47.703125 21.40625 
C 47.703125 34.1875 38.703125 43.59375 28.59375 43.59375 
C 22.40625 43.59375 18 40.296875 15 36.40625 
z
M 15.203125 31.3125 
C 15.203125 33.09375 15.203125 33.40625 16.59375 35.5 
C 20.5 41.515625 26.09375 42 28 42 
C 31 42 41.296875 40.390625 41.296875 21.5 
C 41.296875 1.6875 29.5 0.59375 27.09375 0.59375 
C 24 0.59375 19.5 1.78125 16.296875 7.59375 
C 15.203125 9.5 15.203125 9.703125 15.203125 11.484375 
z
" id="CMR17-98"/>
      <path d="M 38.09375 23 
C 38.5 23.40625 38.5 23.609375 38.5 24.625 
C 38.5 34.96875 33.09375 44 21.703125 44 
C 11.09375 44 2.703125 33.890625 2.703125 21.609375 
C 2.703125 8.609375 12.203125 -1 22.796875 -1 
C 34 -1 38.40625 9.484375 38.40625 11.5625 
C 38.40625 12.25 37.796875 12.25 37.59375 12.25 
C 36.90625 12.25 36.796875 12.046875 36.40625 10.875 
C 34.203125 4.140625 28.703125 0.796875 23.5 0.796875 
C 19.203125 0.796875 14.90625 3.171875 12.203125 7.5 
C 9.09375 12.546875 9.09375 18.375 9.09375 23 
z
M 9.203125 24.5 
C 9.90625 39.140625 17.59375 42.40625 21.59375 42.40625 
C 28.40625 42.40625 33 35.890625 33.09375 24.5 
z
" id="CMR17-101"/>
      <path d="M 36 25.828125 
C 36 32.375 36 35.84375 31.796875 39.734375 
C 28.09375 43 23.796875 44 20.40625 44 
C 12.5 44 6.796875 37.609375 6.796875 30.796875 
C 6.796875 27 9.796875 27 10.40625 27 
C 11.703125 27 14 27.78125 14 30.53125 
C 14 33 12.09375 34.078125 10.40625 34.078125 
C 10 34.078125 9.5 33.96875 9.203125 33.875 
C 11.296875 40.5 16.703125 42.40625 20.203125 42.40625 
C 25.203125 42.40625 30.703125 37.953125 30.703125 29.453125 
L 30.703125 25 
C 24.796875 25 17.703125 24.203125 12.09375 21.203125 
C 5.796875 17.703125 4 12.703125 4 8.90625 
C 4 1.203125 13 -1 18.296875 -1 
C 23.796875 -1 28.90625 2.171875 31.09375 7.984375 
C 31.296875 3.640625 34.09375 -0.28125 38.5 -0.28125 
C 40.59375 -0.28125 45.90625 1.09375 45.90625 8.859375 
L 45.90625 14.375 
L 44.09375 14.375 
L 44.09375 8.78125 
C 44.09375 2.78125 41.40625 2 40.09375 2 
C 36 2 36 7.15625 36 11.53125 
z
M 30.703125 13.59375 
C 30.703125 4.953125 24.5 0.59375 19 0.59375 
C 14 0.59375 10.09375 4.296875 10.09375 8.90625 
C 10.09375 11.890625 11.40625 17.1875 17.203125 20.390625 
C 22 23.09375 27.5 23.5 30.703125 23.5 
z
" id="CMR17-97"/>
      <path d="M 22 -16.609375 
C 15.59375 -16.609375 15.203125 -16.203125 15.203125 -12.328125 
L 15.203125 6.28125 
C 18.09375 2.09375 22.296875 -0.59375 27.59375 -0.59375 
C 37.59375 -0.59375 47.703125 8.171875 47.703125 21.6875 
C 47.703125 34.234375 39 43.78125 28.703125 43.78125 
C 22.703125 43.78125 17.796875 40.5 15 36.53125 
L 15 43.78125 
L 3.09375 42.6875 
L 3.09375 40.109375 
C 9 40.109375 9.90625 39.5 9.90625 34.734375 
L 9.90625 -12.328125 
C 9.90625 -16.109375 9.5 -16.609375 3.09375 -16.609375 
L 3.09375 -19.1875 
C 5.5 -19 9.90625 -19 12.5 -19 
C 15.09375 -19 19.59375 -19 22 -19.1875 
z
M 15.203125 31.4375 
C 15.203125 32.84375 15.203125 34.921875 19.09375 38.609375 
C 19.59375 39.015625 23 42 28 42 
C 35.296875 42 41.296875 32.9375 41.296875 21.59375 
C 41.296875 10.25 34.90625 1 27 1 
C 23.40625 1 19.5 2.6875 16.5 7.375 
C 15.203125 9.5625 15.203125 10.15625 15.203125 11.75 
z
" id="CMR17-112"/>
      <path d="M 26.09375 26.140625 
C 26 26.34375 25.5 26.9375 25.5 27.234375 
C 25.5 27.4375 32.59375 33.921875 33.5 34.71875 
C 39.203125 39.5 42.796875 40 45.40625 40 
L 45.40625 42.703125 
C 44.796875 42.703125 44.59375 42.703125 44.5 42.5 
L 39.59375 42.5 
C 36.796875 42.5 32.5 42.5 29.796875 42.703125 
L 29.796875 40.09375 
C 31.203125 39.984375 32.203125 39.1875 32.203125 37.796875 
C 32.203125 35.796875 30.203125 33.90625 30.09375 33.90625 
L 15 20.140625 
L 15 68.6875 
L 3.09375 67.59375 
L 3.09375 65 
C 9 65 9.90625 64.40625 9.90625 59.640625 
L 9.90625 6.65625 
C 9.90625 2.875 9.5 2.390625 3.09375 2.390625 
L 3.09375 -0.203125 
C 5.5 0 9.90625 0 12.40625 0 
C 14.90625 0 19.296875 0 21.703125 -0.203125 
L 21.703125 2.390625 
C 15.296875 2.390625 14.90625 2.78125 14.90625 6.6875 
L 14.90625 17.65625 
L 21.796875 23.9375 
L 31.90625 8.96875 
C 33.09375 7.171875 34.09375 5.765625 34.09375 4.46875 
C 34.09375 2.6875 32.296875 2.390625 31.09375 2.390625 
L 31.09375 -0.203125 
C 33.5 0 37.796875 0 40.296875 0 
C 42.09375 0 45.796875 0 47.5 0 
L 47.5 2.390625 
C 42.796875 2.390625 41.703125 3.28125 38.703125 7.671875 
z
" id="CMR17-107"/>
      <path d="M 20.5 66.40625 
C 19.796875 67.5 19.703125 67.5 17.796875 67.5 
L 5.09375 67.5 
L 5.09375 65 
L 7 65 
C 11 65 12.796875 64.515625 13.09375 64.40625 
L 13.09375 9.53125 
C 13.09375 7.046875 13.09375 2.390625 5.09375 2.390625 
L 5.09375 -0.203125 
C 7.40625 0 11.59375 0 14.09375 0 
C 16.59375 0 20.796875 0 23.09375 -0.203125 
L 23.09375 2.390625 
C 15.09375 2.390625 15.09375 7.046875 15.09375 9.53125 
L 15.09375 63.015625 
C 15.796875 62.421875 15.796875 62.21875 16.5 61.234375 
L 53.59375 1.1875 
C 54.296875 0 54.59375 0 55.09375 0 
C 56.09375 0 56.09375 0.296875 56.09375 2.171875 
L 56.09375 57.890625 
C 56.09375 60.359375 56.09375 65 64.09375 65 
L 64.09375 67.59375 
C 61.796875 67.5 57.59375 67.5 55.09375 67.5 
C 52.59375 67.5 48.40625 67.5 46.09375 67.59375 
L 46.09375 65 
C 54.09375 65 54.09375 60.34375 54.09375 57.859375 
L 54.09375 11.921875 
z
" id="CMR17-78"/>
      <path d="M 20.90625 66 
C 20.296875 67.5 20.203125 67.5 18.09375 67.5 
L 5.296875 67.5 
L 5.296875 65 
C 12.203125 65 13.296875 65 13.296875 60.546875 
L 13.296875 9.53125 
C 13.296875 7.046875 13.296875 2.390625 5.296875 2.390625 
L 5.296875 -0.203125 
C 7.59375 0 11.796875 0 14.296875 0 
C 16.796875 0 21 0 23.296875 -0.203125 
L 23.296875 2.390625 
C 15.296875 2.390625 15.296875 7.046875 15.296875 9.53125 
L 15.296875 64.609375 
L 15.40625 64.609375 
L 38.90625 1.390625 
C 39.296875 0.390625 39.5 -0.203125 40.296875 -0.203125 
C 41.09375 -0.203125 41.296875 0.390625 41.703125 1.390625 
L 65.40625 65.09375 
L 65.5 65.09375 
L 65.5 6.84375 
C 65.5 2.390625 64.40625 2.390625 57.5 2.390625 
L 57.5 -0.203125 
C 60.203125 0 65.59375 0 68.5 0 
C 71.40625 0 76.90625 0 79.59375 -0.203125 
L 79.59375 2.390625 
C 72.703125 2.390625 71.59375 2.390625 71.59375 6.84375 
L 71.59375 60.546875 
C 71.59375 65 72.703125 65 79.59375 65 
L 79.59375 67.5 
L 66.90625 67.5 
C 64.796875 67.5 64.703125 67.40625 64.09375 65.90625 
L 42.5 7.84375 
z
" id="CMR17-77"/>
      <path d="M 62.09375 67.015625 
C 62.09375 68.796875 62 68.90625 61.40625 68.90625 
C 61 68.90625 60.90625 68.796875 60.203125 67.609375 
L 55.796875 59.25 
C 50.90625 65.421875 44.90625 69 37.203125 69 
C 20.09375 69 4.59375 54 4.59375 33.5625 
C 4.59375 12.90625 20.09375 -2 37.296875 -2 
C 52.59375 -2 62.09375 11.40625 62.09375 22.828125 
C 62.09375 23.8125 62.09375 24.21875 61.203125 24.21875 
C 60.40625 24.21875 60.40625 23.921875 60.296875 23.03125 
C 59.5 9.140625 49.5 0.59375 38.703125 0.59375 
C 28.5 0.59375 12.203125 7.734375 12.203125 33.546875 
C 12.203125 59.453125 28.796875 66.40625 38.5 66.40625 
C 49.796875 66.40625 58 56.6875 59.90625 42.890625 
C 60.09375 41.6875 60.09375 41.484375 61 41.484375 
C 62.09375 41.484375 62.09375 41.6875 62.09375 43.484375 
z
" id="CMR17-67"/>
      <path d="M 5.203125 68 
L 5.203125 65.40625 
C 12.09375 65.40625 13.203125 65.40625 13.203125 60.9375 
L 13.203125 7.0625 
C 13.203125 2.59375 12.09375 2.59375 5.203125 2.59375 
L 5.203125 0 
L 39.59375 0 
C 52.40625 0 60.703125 9.109375 60.703125 18.1875 
C 60.703125 27.203125 52.5 34.890625 41.796875 34.890625 
C 51.40625 36.8125 58.09375 43.296875 58.09375 51 
C 58.09375 59.40625 49.90625 68 37 68 
z
M 19.5 36 
L 19.5 61.515625 
C 19.5 64.921875 19.703125 65.40625 23.703125 65.40625 
L 36.5 65.40625 
C 46.40625 65.40625 50.796875 57.40625 50.796875 51.203125 
C 50.796875 43.609375 44.703125 36 33.90625 36 
z
M 23.703125 2.59375 
C 19.703125 2.59375 19.5 3.078125 19.5 6.453125 
L 19.5 34.40625 
L 38 34.40625 
C 48.296875 34.40625 53.296875 25.390625 53.296875 18.15625 
C 53.296875 10.921875 47.59375 2.59375 36.703125 2.59375 
z
" id="CMR17-66"/>
      <path d="M 29.40625 42.078125 
L 29.40625 39.5 
C 35.296875 39.5 36.203125 38.890625 36.203125 34.15625 
L 36.203125 16.125 
C 36.203125 7.8125 31.703125 0.59375 24.296875 0.59375 
C 16.09375 0.59375 15.40625 5.4375 15.40625 10.59375 
L 15.40625 43.171875 
L 3.296875 42.078125 
L 3.296875 39.5 
C 7.296875 39.5 10 39.5 10.09375 35.53125 
L 10.09375 16.53125 
C 10.09375 9.890625 10.09375 5.640625 12.703125 2.859375 
C 14 1.578125 16.5 -1 23.703125 -1 
C 32.203125 -1 35.5 5.890625 36.296875 7.90625 
L 36.40625 7.90625 
L 36.40625 -0.984375 
L 48.296875 -0.984375 
L 48.296875 2 
C 42.40625 2 41.5 2.59375 41.5 7.390625 
L 41.5 43.171875 
z
" id="CMR17-117"/>
      <path d="M 34.90625 35 
C 33 35 30.203125 35 30.203125 31.515625 
C 30.203125 28.71875 32.5 27.921875 33.796875 27.921875 
C 34.5 27.921875 37.40625 28.234375 37.40625 31.625 
C 37.40625 38.546875 30.59375 43.796875 22.90625 43.796875 
C 12.296875 43.796875 3.296875 34.03125 3.296875 21.296875 
C 3.296875 8.0625 12.703125 -1 22.90625 -1 
C 35.296875 -1 38.40625 10.578125 38.40625 11.6875 
C 38.40625 12.09375 38.296875 12.390625 37.59375 12.390625 
C 36.90625 12.390625 36.796875 12.296875 36.40625 10.984375 
C 33.796875 2.8125 28.09375 0.796875 23.796875 0.796875 
C 17.40625 0.796875 9.703125 6.671875 9.703125 21.390625 
C 9.703125 36.53125 17.09375 42 23 42 
C 26.90625 42 32.703125 40.203125 34.90625 35 
z
" id="CMR17-99"/>
      <path d="M 41.5 30.203125 
C 41.5 35.296875 40.5 43.59375 28.703125 43.59375 
C 20.5 43.59375 16.5 37 15.296875 33.703125 
L 15.203125 33.703125 
L 15.203125 68.6875 
L 3.296875 67.59375 
L 3.296875 65 
C 9.203125 65 10.09375 64.40625 10.09375 59.640625 
L 10.09375 6.65625 
C 10.09375 2.875 9.703125 2.390625 3.296875 2.390625 
L 3.296875 -0.203125 
C 5.703125 0 10.09375 0 12.703125 0 
C 15.296875 0 19.796875 0 22.203125 -0.203125 
L 22.203125 2.390625 
C 15.796875 2.390625 15.40625 2.78125 15.40625 6.6875 
L 15.40625 25.90625 
C 15.40625 35.109375 21 42 28 42 
C 35.40625 42 36.203125 35.40625 36.203125 30.59375 
L 36.203125 6.6875 
C 36.203125 2.875 35.796875 2.390625 29.40625 2.390625 
L 29.40625 -0.203125 
C 31.796875 0 36.203125 0 38.796875 0 
C 41.40625 0 45.90625 0 48.296875 -0.203125 
L 48.296875 2.390625 
C 41.90625 2.390625 41.5 2.78125 41.5 6.6875 
z
" id="CMR17-104"/>
      <path d="M 43.09375 21.1875 
C 43.09375 34 33.796875 44 22.90625 44 
C 12 44 2.703125 34 2.703125 21.1875 
C 2.703125 8.609375 12 -1 22.90625 -1 
C 33.796875 -1 43.09375 8.609375 43.09375 21.1875 
z
M 22.90625 0.796875 
C 18.203125 0.796875 14.203125 3.59375 11.90625 7.5 
C 9.40625 11.984375 9.09375 17.59375 9.09375 22 
C 9.09375 26.203125 9.296875 31.40625 11.90625 35.90625 
C 13.90625 39.203125 17.796875 42.40625 22.90625 42.40625 
C 27.40625 42.40625 31.203125 39.90625 33.59375 36.40625 
C 36.703125 31.703125 36.703125 25.109375 36.703125 22 
C 36.703125 18.09375 36.5 12.109375 33.796875 7.296875 
C 31 2.703125 26.703125 0.796875 22.90625 0.796875 
z
" id="CMR17-111"/>
      <path d="M 39.90625 40 
L 51.296875 40 
L 51.296875 42.578125 
L 39.703125 42.578125 
L 39.703125 54.59375 
C 39.703125 62.84375 43.90625 68 48.203125 68 
C 49.5 68 51 67.609375 52 66.90625 
C 51.203125 66.703125 49.09375 66.015625 49.09375 63.546875 
C 49.09375 60.953125 51.09375 60.15625 52.5 60.15625 
C 53.90625 60.15625 55.90625 60.953125 55.90625 63.546875 
C 55.90625 67.3125 52.296875 69.59375 48.296875 69.59375 
C 44.40625 69.59375 41.203125 67.703125 38.703125 65.328125 
C 36.40625 68.59375 32.59375 69.59375 28.703125 69.59375 
C 20.90625 69.59375 9.90625 65.125 9.90625 54.203125 
L 9.90625 42.578125 
L 1.90625 42.578125 
L 1.90625 40 
L 9.90625 40 
L 9.90625 6.671875 
C 9.90625 2.875 9.5 2.390625 3.09375 2.390625 
L 3.09375 -0.203125 
C 5.5 0 9.90625 0 12.40625 0 
C 15 0 19.40625 0 21.796875 -0.203125 
L 21.796875 2.390625 
C 15.40625 2.390625 15 2.78125 15 6.671875 
L 15 40 
L 34.796875 40 
L 34.796875 6.671875 
C 34.796875 2.875 34.40625 2.390625 28 2.390625 
L 28 -0.203125 
C 30.40625 0 35 0 37.59375 0 
C 40.5 0 45.59375 0 48.296875 -0.203125 
L 48.296875 2.390625 
C 41.09375 2.390625 39.90625 2.390625 39.90625 6.859375 
z
M 14.796875 42.578125 
L 14.796875 54.203125 
C 14.796875 63.234375 21.796875 68 28.5 68 
C 30 68 33.90625 67.6875 36.296875 65.421875 
C 34.5 65.421875 32.796875 64.625 32.796875 62.140625 
C 32.796875 59.5625 35.09375 58.859375 35.296875 58.859375 
C 34.796875 57.0625 34.796875 55.09375 34.796875 54.390625 
L 34.796875 42.578125 
z
" id="CMR17-11"/>
     </defs>
     <use transform="scale(0.996264)" xlink:href="#CMR17-76"/>
     <use transform="translate(57.381408 0)scale(0.996264)" xlink:href="#CMR17-51"/>
     <use transform="translate(103.071885 0)scale(0.996264)" xlink:href="#CMR17-50"/>
     <use transform="translate(178.838328 0)scale(0.996264)" xlink:href="#CMR17-98"/>
     <use transform="translate(232.336137 0)scale(0.996264)" xlink:href="#CMR17-101"/>
     <use transform="translate(272.821797 0)scale(0.996264)" xlink:href="#CMR17-116"/>
     <use transform="translate(308.102565 0)scale(0.996264)" xlink:href="#CMR17-97"/>
     <use transform="translate(353.793042 0)scale(0.996264)" xlink:href="#CMR17-49"/>
     <use transform="translate(399.483519 0)scale(0.996264)" xlink:href="#CMR17-49"/>
     <use transform="translate(445.173997 0)scale(0.996264)" xlink:href="#CMR17-112"/>
     <use transform="translate(496.069366 0)scale(0.996264)" xlink:href="#CMR17-53"/>
     <use transform="translate(571.83581 0)scale(0.996264)" xlink:href="#CMR17-107"/>
     <use transform="translate(614.923909 0)scale(0.996264)" xlink:href="#CMR17-97"/>
     <use transform="translate(660.614386 0)scale(0.996264)" xlink:href="#CMR17-112"/>
     <use transform="translate(711.509756 0)scale(0.996264)" xlink:href="#CMR17-112"/>
     <use transform="translate(762.405126 0)scale(0.996264)" xlink:href="#CMR17-97"/>
     <use transform="translate(808.095603 0)scale(0.996264)" xlink:href="#CMR17-48"/>
     <use transform="translate(853.78608 0)scale(0.996264)" xlink:href="#CMR17-112"/>
     <use transform="translate(904.68145 0)scale(0.996264)" xlink:href="#CMR17-49"/>
     <use transform="translate(950.371927 0)scale(0.996264)" xlink:href="#CMR17-53"/>
     <use transform="translate(996.062404 0)scale(0.996264)" xlink:href="#CMR17-49"/>
     <use transform="translate(1041.752881 0)scale(0.996264)" xlink:href="#CMR17-53"/>
     <use transform="translate(1117.519325 0)scale(0.996264)" xlink:href="#CMR17-78"/>
     <use transform="translate(1186.591754 0)scale(0.996264)" xlink:href="#CMR17-50"/>
     <use transform="translate(1232.282231 0)scale(0.996264)" xlink:href="#CMR17-54"/>
     <use transform="translate(1277.972709 0)scale(0.996264)" xlink:href="#CMR17-48"/>
     <use transform="translate(1353.739152 0)scale(0.996264)" xlink:href="#CMR17-77"/>
     <use transform="translate(1438.426093 0)scale(0.996264)" xlink:href="#CMR17-67"/>
     <use transform="translate(1504.935973 0)scale(0.996264)" xlink:href="#CMR17-77"/>
     <use transform="translate(1589.622914 0)scale(0.996264)" xlink:href="#CMR17-67"/>
     <use transform="translate(1656.132794 0)scale(0.996264)" xlink:href="#CMR17-53"/>
     <use transform="translate(1731.899238 0)scale(0.996264)" xlink:href="#CMR17-66"/>
     <use transform="translate(1797.087992 0)scale(0.996264)" xlink:href="#CMR17-117"/>
     <use transform="translate(1847.983362 0)scale(0.996264)" xlink:href="#CMR17-99"/>
     <use transform="translate(1885.866568 0)scale(0.996264)" xlink:href="#CMR17-104"/>
     <use transform="translate(1936.761938 0)scale(0.996264)" xlink:href="#CMR17-111"/>
     <use transform="translate(1982.452415 0)scale(0.996264)" xlink:href="#CMR17-11"/>
    </g>
    <!-- pion -->
    <g transform="translate(269.485498 94.8)scale(0.24 -0.24)">
     <use transform="scale(0.996264)" xlink:href="#CMR17-112"/>
     <use transform="translate(50.89537 0)scale(0.996264)" xlink:href="#CMR17-105"/>
     <use transform="translate(75.766428 0)scale(0.996264)" xlink:href="#CMR17-111"/>
     <use transform="translate(121.456905 0)scale(0.996264)" xlink:href="#CMR17-110"/>
    </g>
   </g>
  </g>
 </g>
 <defs>
  <clipPath id="pff2aacd85c">
   <rect height="339.495773" width="425.770205" x="77.282672" y="100.8"/>
  </clipPath>
 </defs>
</svg>
