<?xml version="1.0" encoding="utf-8" standalone="no"?>
<!DOCTYPE svg PUBLIC "-//W3C//DTD SVG 1.1//EN"
  "http://www.w3.org/Graphics/SVG/1.1/DTD/svg11.dtd">
<!-- Created with matplotlib (https://matplotlib.org/) -->
<svg height="504pt" version="1.1" viewBox="0 0 720 504" width="720pt" xmlns="http://www.w3.org/2000/svg" xmlns:xlink="http://www.w3.org/1999/xlink">
 <metadata>
  <rdf:RDF xmlns:cc="http://creativecommons.org/ns#" xmlns:dc="http://purl.org/dc/elements/1.1/" xmlns:rdf="http://www.w3.org/1999/02/22-rdf-syntax-ns#">
   <cc:Work>
    <dc:type rdf:resource="http://purl.org/dc/dcmitype/StillImage"/>
    <dc:date>2023-01-24T17:14:41.825012</dc:date>
    <dc:format>image/svg+xml</dc:format>
    <dc:creator>
     <cc:Agent>
      <dc:title>Matplotlib v3.3.4, https://matplotlib.org/</dc:title>
     </cc:Agent>
    </dc:creator>
   </cc:Work>
  </rdf:RDF>
 </metadata>
 <defs>
  <style type="text/css">*{stroke-linecap:butt;stroke-linejoin:round;}</style>
 </defs>
 <g id="figure_1">
  <g id="patch_1">
   <path d="M 0 504 
L 720 504 
L 720 0 
L 0 0 
z
" style="fill:#ffffff;"/>
  </g>
  <g id="axes_1">
   <g id="patch_2">
    <path d="M 84.490323 156.422282 
L 702.72 156.422282 
L 702.72 71.224945 
L 84.490323 71.224945 
z
" style="fill:#ffffff;"/>
   </g>
   <g id="matplotlib.axis_1">
    <g id="xtick_1">
     <g id="line2d_1">
      <defs>
       <path d="M 0 0 
L 0 3.5 
" id="m4e62dc6898" style="stroke:#000000;stroke-width:0.8;"/>
      </defs>
      <g>
       <use style="stroke:#000000;stroke-width:0.8;" x="103.670609" xlink:href="#m4e62dc6898" y="156.422282"/>
      </g>
     </g>
    </g>
    <g id="xtick_2">
     <g id="line2d_2">
      <g>
       <use style="stroke:#000000;stroke-width:0.8;" x="192.881241" xlink:href="#m4e62dc6898" y="156.422282"/>
      </g>
     </g>
    </g>
    <g id="xtick_3">
     <g id="line2d_3">
      <g>
       <use style="stroke:#000000;stroke-width:0.8;" x="282.091872" xlink:href="#m4e62dc6898" y="156.422282"/>
      </g>
     </g>
    </g>
    <g id="xtick_4">
     <g id="line2d_4">
      <g>
       <use style="stroke:#000000;stroke-width:0.8;" x="371.302504" xlink:href="#m4e62dc6898" y="156.422282"/>
      </g>
     </g>
    </g>
    <g id="xtick_5">
     <g id="line2d_5">
      <g>
       <use style="stroke:#000000;stroke-width:0.8;" x="460.513135" xlink:href="#m4e62dc6898" y="156.422282"/>
      </g>
     </g>
    </g>
    <g id="xtick_6">
     <g id="line2d_6">
      <g>
       <use style="stroke:#000000;stroke-width:0.8;" x="549.723767" xlink:href="#m4e62dc6898" y="156.422282"/>
      </g>
     </g>
    </g>
    <g id="xtick_7">
     <g id="line2d_7">
      <g>
       <use style="stroke:#000000;stroke-width:0.8;" x="638.934398" xlink:href="#m4e62dc6898" y="156.422282"/>
      </g>
     </g>
    </g>
    <g id="text_1">
     <!-- $W$ -->
     <g transform="translate(382.553656 177.026687)scale(0.24 -0.24)">
      <defs>
       <path d="M 90.296875 56.96875 
C 92.59375 60.84375 94.796875 64.515625 100.796875 65.125 
C 101.703125 65.21875 102.59375 65.3125 102.59375 66.90625 
C 102.59375 68 101.703125 68 101.40625 68 
C 101.203125 68 100.5 68 93.90625 68 
C 90.90625 68 87.796875 68 84.90625 68 
C 84.296875 68 83.09375 68 83.09375 66.03125 
C 83.09375 65.09375 83.90625 65 84.5 65 
C 86.5 65 89.703125 64.40625 89.703125 61.328125 
C 89.703125 60.03125 89.296875 59.328125 88.296875 57.65625 
L 61 10.125 
L 57.40625 61.921875 
C 57.40625 63.109375 58.5 65 64.09375 65 
C 65.40625 65 66.40625 65 66.40625 66.96875 
C 66.40625 68 65.40625 68 64.90625 68 
C 61.40625 68 57.703125 68 54.09375 68 
L 48.90625 68 
C 47.40625 68 45.59375 68 44.09375 68 
C 43.5 68 42.296875 68 42.296875 66.03125 
C 42.296875 65 43 65 44.703125 65 
C 49.296875 65 49.296875 64.890625 49.703125 58.9375 
L 50 55.359375 
L 24.09375 10.125 
L 20.40625 61.421875 
C 20.40625 62.53125 20.40625 65 27.203125 65 
C 28.296875 65 29.40625 65 29.40625 66.859375 
C 29.40625 68 28.5 68 27.90625 68 
C 24.40625 68 20.703125 68 17.09375 68 
L 11.90625 68 
C 10.40625 68 8.59375 68 7.09375 68 
C 6.5 68 5.296875 68 5.296875 66.03125 
C 5.296875 65 6.09375 65 7.5 65 
C 12.203125 65 12.296875 64.390625 12.5 61.21875 
L 16.90625 0.28125 
C 17 -1.40625 17.09375 -2 18.296875 -2 
C 19.296875 -2 19.5 -1.609375 20.40625 -0.109375 
L 50.203125 51.671875 
L 53.90625 0.28125 
C 54 -1.40625 54.09375 -2 55.296875 -2 
C 56.296875 -2 56.59375 -1.5 57.40625 -0.109375 
z
" id="CMMI12-87"/>
      </defs>
      <use transform="scale(0.996264)" xlink:href="#CMMI12-87"/>
     </g>
    </g>
   </g>
   <g id="matplotlib.axis_2">
    <g id="ytick_1">
     <g id="line2d_8">
      <defs>
       <path d="M 0 0 
L -3.5 0 
" id="m0a62749faa" style="stroke:#000000;stroke-width:0.8;"/>
      </defs>
      <g>
       <use style="stroke:#000000;stroke-width:0.8;" x="84.490323" xlink:href="#m0a62749faa" y="153.101086"/>
      </g>
     </g>
     <g id="text_2">
      <!-- $\mathdefault{0}$ -->
      <g transform="translate(69.686336 158.63588)scale(0.16 -0.16)">
       <defs>
        <path d="M 42 31.640625 
C 42 37.75 41.90625 48.125 37.703125 56.109375 
C 34 63.109375 28.09375 65.59375 22.90625 65.59375 
C 18.09375 65.59375 12 63.40625 8.203125 56.203125 
C 4.203125 48.71875 3.796875 39.4375 3.796875 31.640625 
C 3.796875 25.953125 3.90625 17.28125 7 9.671875 
C 11.296875 -0.609375 19 -2 22.90625 -2 
C 27.5 -2 34.5 -0.109375 38.59375 9.375 
C 41.59375 16.28125 42 24.359375 42 31.640625 
z
M 22.90625 -0.40625 
C 16.5 -0.40625 12.703125 5.078125 11.296875 12.6875 
C 10.203125 18.5625 10.203125 27.15625 10.203125 32.75 
C 10.203125 40.4375 10.203125 46.828125 11.5 52.921875 
C 13.40625 61.390625 19 64 22.90625 64 
C 27 64 32.296875 61.296875 34.203125 53.125 
C 35.5 47.4375 35.59375 40.734375 35.59375 32.75 
C 35.59375 26.25 35.59375 18.265625 34.40625 12.375 
C 32.296875 1.484375 26.40625 -0.40625 22.90625 -0.40625 
z
" id="CMR17-48"/>
       </defs>
       <use transform="scale(0.996264)" xlink:href="#CMR17-48"/>
      </g>
     </g>
    </g>
    <g id="ytick_2">
     <g id="line2d_9">
      <g>
       <use style="stroke:#000000;stroke-width:0.8;" x="84.490323" xlink:href="#m0a62749faa" y="97.642237"/>
      </g>
     </g>
     <g id="text_3">
      <!-- $\mathdefault{2}$ -->
      <g transform="translate(69.686336 103.177031)scale(0.16 -0.16)">
       <defs>
        <path d="M 41.703125 15.453125 
L 39.90625 15.453125 
C 38.90625 8.375 38.09375 7.171875 37.703125 6.5625 
C 37.203125 5.765625 30 5.765625 28.59375 5.765625 
L 9.40625 5.765625 
C 13 9.671875 20 16.75 28.5 24.953125 
C 34.59375 30.734375 41.703125 37.53125 41.703125 47.421875 
C 41.703125 59.21875 32.296875 66 21.796875 66 
C 10.796875 66 4.09375 56.3125 4.09375 47.34375 
C 4.09375 43.4375 7 42.9375 8.203125 42.9375 
C 9.203125 42.9375 12.203125 43.546875 12.203125 47.03125 
C 12.203125 50.109375 9.59375 51 8.203125 51 
C 7.59375 51 7 50.90625 6.59375 50.703125 
C 8.5 59.21875 14.296875 63.40625 20.40625 63.40625 
C 29.09375 63.40625 34.796875 56.515625 34.796875 47.421875 
C 34.796875 38.734375 29.703125 31.25 24 24.75 
L 4.09375 2.28125 
L 4.09375 0 
L 39.296875 0 
z
" id="CMR17-50"/>
       </defs>
       <use transform="scale(0.996264)" xlink:href="#CMR17-50"/>
      </g>
     </g>
    </g>
    <g id="text_4">
     <!-- $\tau_{\mathrm{int}}$ -->
     <g transform="translate(61.035579 128.694719)rotate(-90)scale(0.24 -0.24)">
      <defs>
       <path d="M 28.703125 37.625 
L 45.296875 37.625 
C 46.59375 37.625 49.90625 37.625 49.90625 40.8125 
C 49.90625 43 48 43 46.203125 43 
L 18.703125 43 
C 16.40625 43 13 43 8.40625 38.125 
C 5.796875 35.234375 2.59375 29.953125 2.59375 29.359375 
C 2.59375 28.765625 3.09375 28.5625 3.703125 28.5625 
C 4.40625 28.5625 4.5 28.859375 5 29.453125 
C 10.203125 37.625 15.40625 37.625 17.90625 37.625 
L 26.203125 37.625 
L 15.796875 3.484375 
C 15.296875 1.984375 15.296875 1.78125 15.296875 1.484375 
C 15.296875 0.390625 16 -1 18 -1 
C 21.09375 -1 21.59375 1.6875 21.90625 3.171875 
z
" id="CMMI12-28"/>
       <path d="M 15.5 61.078125 
C 15.5 63.265625 13.703125 65.15625 11.40625 65.15625 
C 9.203125 65.15625 7.296875 63.375 7.296875 61.078125 
C 7.296875 58.890625 9.09375 57 11.40625 57 
C 13.59375 57 15.5 58.796875 15.5 61.078125 
z
M 3.796875 42.28125 
L 3.796875 39.703125 
C 9.40625 39.703125 10.203125 39.09375 10.203125 34.328125 
L 10.203125 6.671875 
C 10.203125 2.875 9.796875 2.390625 3.40625 2.390625 
L 3.40625 -0.203125 
C 5.796875 0 10.09375 0 12.59375 0 
C 15 0 19.09375 0 21.40625 -0.203125 
L 21.40625 2.390625 
C 15.5 2.390625 15.296875 2.984375 15.296875 6.5625 
L 15.296875 43.375 
z
" id="CMR17-105"/>
       <path d="M 41.5 30.203125 
C 41.5 35.296875 40.5 43.59375 28.703125 43.59375 
C 20.796875 43.59375 16.703125 37.5 15.203125 33.5 
L 15.09375 33.5 
L 15.09375 43.59375 
L 3.296875 42.5 
L 3.296875 39.90625 
C 9.203125 39.90625 10.09375 39.296875 10.09375 34.5 
L 10.09375 6.6875 
C 10.09375 2.875 9.703125 2.390625 3.296875 2.390625 
L 3.296875 -0.203125 
C 5.703125 0 10.09375 0 12.703125 0 
C 15.296875 0 19.796875 0 22.203125 -0.203125 
L 22.203125 2.390625 
C 15.796875 2.390625 15.40625 2.78125 15.40625 6.6875 
L 15.40625 25.90625 
C 15.40625 35.109375 21 42 28 42 
C 35.40625 42 36.203125 35.40625 36.203125 30.59375 
L 36.203125 6.6875 
C 36.203125 2.875 35.796875 2.390625 29.40625 2.390625 
L 29.40625 -0.203125 
C 31.796875 0 36.203125 0 38.796875 0 
C 41.40625 0 45.90625 0 48.296875 -0.203125 
L 48.296875 2.390625 
C 41.90625 2.390625 41.5 2.78125 41.5 6.6875 
z
" id="CMR17-110"/>
       <path d="M 15.09375 40 
L 29.09375 40 
L 29.09375 42.578125 
L 15.09375 42.578125 
L 15.09375 61 
L 13.296875 61 
C 13.09375 50.703125 9.59375 41.6875 1.09375 41.6875 
L 1.09375 40 
L 9.796875 40 
L 9.796875 12.046875 
C 9.796875 10.15625 9.796875 -1 21.40625 -1 
C 27.296875 -1 30.703125 4.78125 30.703125 12.140625 
L 30.703125 17.8125 
L 28.90625 17.8125 
L 28.90625 12.234375 
C 28.90625 5.375 26.203125 0.796875 22 0.796875 
C 19.09375 0.796875 15.09375 2.78125 15.09375 11.84375 
z
" id="CMR17-116"/>
      </defs>
      <use transform="scale(0.996264)" xlink:href="#CMMI12-28"/>
      <use transform="translate(42.363841 -14.943915)scale(0.697382)" xlink:href="#CMR17-105"/>
      <use transform="translate(59.7735 -14.943915)scale(0.697382)" xlink:href="#CMR17-110"/>
      <use transform="translate(93.578387 -14.943915)scale(0.697382)" xlink:href="#CMR17-116"/>
     </g>
    </g>
   </g>
   <g id="LineCollection_1">
    <path clip-path="url(#pdeb4cc42f3)" d="M 112.591672 143.793712 
L 112.591672 140.989994 
" style="fill:none;stroke:#0000ff;stroke-width:2;"/>
    <path clip-path="url(#pdeb4cc42f3)" d="M 121.512735 142.296153 
L 121.512735 137.661911 
" style="fill:none;stroke:#0000ff;stroke-width:2;"/>
    <path clip-path="url(#pdeb4cc42f3)" d="M 130.433799 142.768152 
L 130.433799 137.083802 
" style="fill:none;stroke:#0000ff;stroke-width:2;"/>
    <path clip-path="url(#pdeb4cc42f3)" d="M 139.354862 144.168556 
L 139.354862 138.205863 
" style="fill:none;stroke:#0000ff;stroke-width:2;"/>
    <path clip-path="url(#pdeb4cc42f3)" d="M 148.275925 144.633738 
L 148.275925 138.065783 
" style="fill:none;stroke:#0000ff;stroke-width:2;"/>
    <path clip-path="url(#pdeb4cc42f3)" d="M 157.196988 145.655068 
L 157.196988 139.068346 
" style="fill:none;stroke:#0000ff;stroke-width:2;"/>
    <path clip-path="url(#pdeb4cc42f3)" d="M 166.118051 144.851583 
L 166.118051 136.744215 
" style="fill:none;stroke:#0000ff;stroke-width:2;"/>
    <path clip-path="url(#pdeb4cc42f3)" d="M 175.039114 146.410659 
L 175.039114 139.091211 
" style="fill:none;stroke:#0000ff;stroke-width:2;"/>
    <path clip-path="url(#pdeb4cc42f3)" d="M 183.960178 145.711671 
L 183.960178 136.895633 
" style="fill:none;stroke:#0000ff;stroke-width:2;"/>
    <path clip-path="url(#pdeb4cc42f3)" d="M 192.881241 145.710159 
L 192.881241 136.122887 
" style="fill:none;stroke:#0000ff;stroke-width:2;"/>
    <path clip-path="url(#pdeb4cc42f3)" d="M 201.802304 144.663892 
L 201.802304 132.885885 
" style="fill:none;stroke:#0000ff;stroke-width:2;"/>
    <path clip-path="url(#pdeb4cc42f3)" d="M 210.723367 143.618283 
L 210.723367 129.432164 
" style="fill:none;stroke:#0000ff;stroke-width:2;"/>
    <path clip-path="url(#pdeb4cc42f3)" d="M 219.64443 144.36737 
L 219.64443 130.303275 
" style="fill:none;stroke:#0000ff;stroke-width:2;"/>
    <path clip-path="url(#pdeb4cc42f3)" d="M 228.565493 145.609448 
L 228.565493 132.637392 
" style="fill:none;stroke:#0000ff;stroke-width:2;"/>
    <path clip-path="url(#pdeb4cc42f3)" d="M 237.486556 146.033071 
L 237.486556 132.956501 
" style="fill:none;stroke:#0000ff;stroke-width:2;"/>
    <path clip-path="url(#pdeb4cc42f3)" d="M 246.40762 146.745738 
L 246.40762 134.195273 
" style="fill:none;stroke:#0000ff;stroke-width:2;"/>
    <path clip-path="url(#pdeb4cc42f3)" d="M 255.328683 147.290389 
L 255.328683 135.07484 
" style="fill:none;stroke:#0000ff;stroke-width:2;"/>
    <path clip-path="url(#pdeb4cc42f3)" d="M 264.249746 147.334969 
L 264.249746 134.480226 
" style="fill:none;stroke:#0000ff;stroke-width:2;"/>
    <path clip-path="url(#pdeb4cc42f3)" d="M 273.170809 148.420643 
L 273.170809 137.319852 
" style="fill:none;stroke:#0000ff;stroke-width:2;"/>
    <path clip-path="url(#pdeb4cc42f3)" d="M 282.091872 149.432404 
L 282.091872 140.18887 
" style="fill:none;stroke:#0000ff;stroke-width:2;"/>
    <path clip-path="url(#pdeb4cc42f3)" d="M 291.012935 149.433483 
L 291.012935 139.670824 
" style="fill:none;stroke:#0000ff;stroke-width:2;"/>
    <path clip-path="url(#pdeb4cc42f3)" d="M 299.933999 149.315925 
L 299.933999 138.686517 
" style="fill:none;stroke:#0000ff;stroke-width:2;"/>
    <path clip-path="url(#pdeb4cc42f3)" d="M 308.855062 148.648202 
L 308.855062 135.500614 
" style="fill:none;stroke:#0000ff;stroke-width:2;"/>
    <path clip-path="url(#pdeb4cc42f3)" d="M 317.776125 149.313425 
L 317.776125 137.487643 
" style="fill:none;stroke:#0000ff;stroke-width:2;"/>
    <path clip-path="url(#pdeb4cc42f3)" d="M 326.697188 147.963926 
L 326.697188 131.177546 
" style="fill:none;stroke:#0000ff;stroke-width:2;"/>
    <path clip-path="url(#pdeb4cc42f3)" d="M 335.618251 148.169099 
L 335.618251 131.181514 
" style="fill:none;stroke:#0000ff;stroke-width:2;"/>
    <path clip-path="url(#pdeb4cc42f3)" d="M 344.539314 148.024495 
L 344.539314 129.63124 
" style="fill:none;stroke:#0000ff;stroke-width:2;"/>
    <path clip-path="url(#pdeb4cc42f3)" d="M 353.460377 147.94697 
L 353.460377 128.30161 
" style="fill:none;stroke:#0000ff;stroke-width:2;"/>
    <path clip-path="url(#pdeb4cc42f3)" d="M 362.381441 147.938394 
L 362.381441 127.232258 
" style="fill:none;stroke:#0000ff;stroke-width:2;"/>
    <path clip-path="url(#pdeb4cc42f3)" d="M 371.302504 148.145075 
L 371.302504 127.204639 
" style="fill:none;stroke:#0000ff;stroke-width:2;"/>
    <path clip-path="url(#pdeb4cc42f3)" d="M 380.223567 148.483149 
L 380.223567 127.908752 
" style="fill:none;stroke:#0000ff;stroke-width:2;"/>
    <path clip-path="url(#pdeb4cc42f3)" d="M 389.14463 147.301281 
L 389.14463 120.300611 
" style="fill:none;stroke:#0000ff;stroke-width:2;"/>
    <path clip-path="url(#pdeb4cc42f3)" d="M 398.065693 147.530151 
L 398.065693 120.19473 
" style="fill:none;stroke:#0000ff;stroke-width:2;"/>
    <path clip-path="url(#pdeb4cc42f3)" d="M 406.986756 147.605301 
L 406.986756 119.200612 
" style="fill:none;stroke:#0000ff;stroke-width:2;"/>
    <path clip-path="url(#pdeb4cc42f3)" d="M 415.90782 147.802702 
L 415.90782 118.921839 
" style="fill:none;stroke:#0000ff;stroke-width:2;"/>
    <path clip-path="url(#pdeb4cc42f3)" d="M 424.828883 147.348065 
L 424.828883 114.414235 
" style="fill:none;stroke:#0000ff;stroke-width:2;"/>
    <path clip-path="url(#pdeb4cc42f3)" d="M 433.749946 148.257433 
L 433.749946 118.823606 
" style="fill:none;stroke:#0000ff;stroke-width:2;"/>
    <path clip-path="url(#pdeb4cc42f3)" d="M 442.671009 147.771631 
L 442.671009 113.735794 
" style="fill:none;stroke:#0000ff;stroke-width:2;"/>
    <path clip-path="url(#pdeb4cc42f3)" d="M 451.592072 147.763728 
L 451.592072 111.783162 
" style="fill:none;stroke:#0000ff;stroke-width:2;"/>
    <path clip-path="url(#pdeb4cc42f3)" d="M 460.513135 147.799175 
L 460.513135 110.026712 
" style="fill:none;stroke:#0000ff;stroke-width:2;"/>
    <path clip-path="url(#pdeb4cc42f3)" d="M 469.434198 148.20688 
L 469.434198 111.189616 
" style="fill:none;stroke:#0000ff;stroke-width:2;"/>
    <path clip-path="url(#pdeb4cc42f3)" d="M 478.355262 148.055859 
L 478.355262 107.716633 
" style="fill:none;stroke:#0000ff;stroke-width:2;"/>
    <path clip-path="url(#pdeb4cc42f3)" d="M 487.276325 148.202048 
L 487.276325 106.618796 
" style="fill:none;stroke:#0000ff;stroke-width:2;"/>
    <path clip-path="url(#pdeb4cc42f3)" d="M 496.197388 148.796796 
L 496.197388 109.742512 
" style="fill:none;stroke:#0000ff;stroke-width:2;"/>
    <path clip-path="url(#pdeb4cc42f3)" d="M 505.118451 148.811988 
L 505.118451 107.419794 
" style="fill:none;stroke:#0000ff;stroke-width:2;"/>
    <path clip-path="url(#pdeb4cc42f3)" d="M 514.039514 148.943103 
L 514.039514 106.122812 
" style="fill:none;stroke:#0000ff;stroke-width:2;"/>
    <path clip-path="url(#pdeb4cc42f3)" d="M 522.960577 148.605481 
L 522.960577 99.452479 
" style="fill:none;stroke:#0000ff;stroke-width:2;"/>
    <path clip-path="url(#pdeb4cc42f3)" d="M 531.881641 149.135781 
L 531.881641 102.381585 
" style="fill:none;stroke:#0000ff;stroke-width:2;"/>
    <path clip-path="url(#pdeb4cc42f3)" d="M 540.802704 149.172941 
L 540.802704 99.487707 
" style="fill:none;stroke:#0000ff;stroke-width:2;"/>
    <path clip-path="url(#pdeb4cc42f3)" d="M 549.723767 149.362257 
L 549.723767 98.33931 
" style="fill:none;stroke:#0000ff;stroke-width:2;"/>
    <path clip-path="url(#pdeb4cc42f3)" d="M 558.64483 149.183371 
L 558.64483 91.782051 
" style="fill:none;stroke:#0000ff;stroke-width:2;"/>
    <path clip-path="url(#pdeb4cc42f3)" d="M 567.565893 149.62385 
L 567.565893 93.928043 
" style="fill:none;stroke:#0000ff;stroke-width:2;"/>
    <path clip-path="url(#pdeb4cc42f3)" d="M 576.486956 149.745546 
L 576.486956 91.174 
" style="fill:none;stroke:#0000ff;stroke-width:2;"/>
    <path clip-path="url(#pdeb4cc42f3)" d="M 585.40802 149.696537 
L 585.40802 84.997407 
" style="fill:none;stroke:#0000ff;stroke-width:2;"/>
    <path clip-path="url(#pdeb4cc42f3)" d="M 594.329083 150.222222 
L 594.329083 89.076174 
" style="fill:none;stroke:#0000ff;stroke-width:2;"/>
    <path clip-path="url(#pdeb4cc42f3)" d="M 603.250146 150.499873 
L 603.250146 88.738874 
" style="fill:none;stroke:#0000ff;stroke-width:2;"/>
    <path clip-path="url(#pdeb4cc42f3)" d="M 612.171209 150.774734 
L 612.171209 88.385036 
" style="fill:none;stroke:#0000ff;stroke-width:2;"/>
    <path clip-path="url(#pdeb4cc42f3)" d="M 621.092272 150.844971 
L 621.092272 82.596895 
" style="fill:none;stroke:#0000ff;stroke-width:2;"/>
    <path clip-path="url(#pdeb4cc42f3)" d="M 630.013335 151.081059 
L 630.013335 80.478898 
" style="fill:none;stroke:#0000ff;stroke-width:2;"/>
    <path clip-path="url(#pdeb4cc42f3)" d="M 638.934398 151.374662 
L 638.934398 79.882537 
" style="fill:none;stroke:#0000ff;stroke-width:2;"/>
    <path clip-path="url(#pdeb4cc42f3)" d="M 647.855462 151.561734 
L 647.855462 75.097551 
" style="fill:none;stroke:#0000ff;stroke-width:2;"/>
    <path clip-path="url(#pdeb4cc42f3)" d="M 656.776525 151.978855 
L 656.776525 79.517498 
" style="fill:none;stroke:#0000ff;stroke-width:2;"/>
    <path clip-path="url(#pdeb4cc42f3)" d="M 665.697588 152.209356 
L 665.697588 75.410892 
" style="fill:none;stroke:#0000ff;stroke-width:2;"/>
    <path clip-path="url(#pdeb4cc42f3)" d="M 674.618651 152.549676 
L 674.618651 77.59762 
" style="fill:none;stroke:#0000ff;stroke-width:2;"/>
   </g>
   <g id="LineCollection_2">
    <path clip-path="url(#pdeb4cc42f3)" d="M 121.512735 142.296153 
L 121.512735 137.661911 
" style="fill:none;stroke:#ff0000;stroke-width:2;"/>
   </g>
   <g id="line2d_10">
    <defs>
     <path d="M 0 4 
C 1.060812 4 2.078319 3.578535 2.828427 2.828427 
C 3.578535 2.078319 4 1.060812 4 0 
C 4 -1.060812 3.578535 -2.078319 2.828427 -2.828427 
C 2.078319 -3.578535 1.060812 -4 0 -4 
C -1.060812 -4 -2.078319 -3.578535 -2.828427 -2.828427 
C -3.578535 -2.078319 -4 -1.060812 -4 0 
C -4 1.060812 -3.578535 2.078319 -2.828427 2.828427 
C -2.078319 3.578535 -1.060812 4 0 4 
z
" id="m77d6090dee" style="stroke:#0000ff;"/>
    </defs>
    <g clip-path="url(#pdeb4cc42f3)">
     <use style="fill:#0000ff;stroke:#0000ff;" x="112.591672" xlink:href="#m77d6090dee" y="142.391853"/>
     <use style="fill:#0000ff;stroke:#0000ff;" x="121.512735" xlink:href="#m77d6090dee" y="139.979032"/>
     <use style="fill:#0000ff;stroke:#0000ff;" x="130.433799" xlink:href="#m77d6090dee" y="139.925977"/>
     <use style="fill:#0000ff;stroke:#0000ff;" x="139.354862" xlink:href="#m77d6090dee" y="141.18721"/>
     <use style="fill:#0000ff;stroke:#0000ff;" x="148.275925" xlink:href="#m77d6090dee" y="141.349761"/>
     <use style="fill:#0000ff;stroke:#0000ff;" x="157.196988" xlink:href="#m77d6090dee" y="142.361707"/>
     <use style="fill:#0000ff;stroke:#0000ff;" x="166.118051" xlink:href="#m77d6090dee" y="140.797899"/>
     <use style="fill:#0000ff;stroke:#0000ff;" x="175.039114" xlink:href="#m77d6090dee" y="142.750935"/>
     <use style="fill:#0000ff;stroke:#0000ff;" x="183.960178" xlink:href="#m77d6090dee" y="141.303652"/>
     <use style="fill:#0000ff;stroke:#0000ff;" x="192.881241" xlink:href="#m77d6090dee" y="140.916523"/>
     <use style="fill:#0000ff;stroke:#0000ff;" x="201.802304" xlink:href="#m77d6090dee" y="138.774888"/>
     <use style="fill:#0000ff;stroke:#0000ff;" x="210.723367" xlink:href="#m77d6090dee" y="136.525224"/>
     <use style="fill:#0000ff;stroke:#0000ff;" x="219.64443" xlink:href="#m77d6090dee" y="137.335322"/>
     <use style="fill:#0000ff;stroke:#0000ff;" x="228.565493" xlink:href="#m77d6090dee" y="139.12342"/>
     <use style="fill:#0000ff;stroke:#0000ff;" x="237.486556" xlink:href="#m77d6090dee" y="139.494786"/>
     <use style="fill:#0000ff;stroke:#0000ff;" x="246.40762" xlink:href="#m77d6090dee" y="140.470505"/>
     <use style="fill:#0000ff;stroke:#0000ff;" x="255.328683" xlink:href="#m77d6090dee" y="141.182615"/>
     <use style="fill:#0000ff;stroke:#0000ff;" x="264.249746" xlink:href="#m77d6090dee" y="140.907597"/>
     <use style="fill:#0000ff;stroke:#0000ff;" x="273.170809" xlink:href="#m77d6090dee" y="142.870248"/>
     <use style="fill:#0000ff;stroke:#0000ff;" x="282.091872" xlink:href="#m77d6090dee" y="144.810637"/>
     <use style="fill:#0000ff;stroke:#0000ff;" x="291.012935" xlink:href="#m77d6090dee" y="144.552153"/>
     <use style="fill:#0000ff;stroke:#0000ff;" x="299.933999" xlink:href="#m77d6090dee" y="144.001221"/>
     <use style="fill:#0000ff;stroke:#0000ff;" x="308.855062" xlink:href="#m77d6090dee" y="142.074408"/>
     <use style="fill:#0000ff;stroke:#0000ff;" x="317.776125" xlink:href="#m77d6090dee" y="143.400534"/>
     <use style="fill:#0000ff;stroke:#0000ff;" x="326.697188" xlink:href="#m77d6090dee" y="139.570736"/>
     <use style="fill:#0000ff;stroke:#0000ff;" x="335.618251" xlink:href="#m77d6090dee" y="139.675307"/>
     <use style="fill:#0000ff;stroke:#0000ff;" x="344.539314" xlink:href="#m77d6090dee" y="138.827868"/>
     <use style="fill:#0000ff;stroke:#0000ff;" x="353.460377" xlink:href="#m77d6090dee" y="138.12429"/>
     <use style="fill:#0000ff;stroke:#0000ff;" x="362.381441" xlink:href="#m77d6090dee" y="137.585326"/>
     <use style="fill:#0000ff;stroke:#0000ff;" x="371.302504" xlink:href="#m77d6090dee" y="137.674857"/>
     <use style="fill:#0000ff;stroke:#0000ff;" x="380.223567" xlink:href="#m77d6090dee" y="138.195951"/>
     <use style="fill:#0000ff;stroke:#0000ff;" x="389.14463" xlink:href="#m77d6090dee" y="133.800946"/>
     <use style="fill:#0000ff;stroke:#0000ff;" x="398.065693" xlink:href="#m77d6090dee" y="133.862441"/>
     <use style="fill:#0000ff;stroke:#0000ff;" x="406.986756" xlink:href="#m77d6090dee" y="133.402956"/>
     <use style="fill:#0000ff;stroke:#0000ff;" x="415.90782" xlink:href="#m77d6090dee" y="133.36227"/>
     <use style="fill:#0000ff;stroke:#0000ff;" x="424.828883" xlink:href="#m77d6090dee" y="130.88115"/>
     <use style="fill:#0000ff;stroke:#0000ff;" x="433.749946" xlink:href="#m77d6090dee" y="133.540519"/>
     <use style="fill:#0000ff;stroke:#0000ff;" x="442.671009" xlink:href="#m77d6090dee" y="130.753713"/>
     <use style="fill:#0000ff;stroke:#0000ff;" x="451.592072" xlink:href="#m77d6090dee" y="129.773445"/>
     <use style="fill:#0000ff;stroke:#0000ff;" x="460.513135" xlink:href="#m77d6090dee" y="128.912944"/>
     <use style="fill:#0000ff;stroke:#0000ff;" x="469.434198" xlink:href="#m77d6090dee" y="129.698248"/>
     <use style="fill:#0000ff;stroke:#0000ff;" x="478.355262" xlink:href="#m77d6090dee" y="127.886246"/>
     <use style="fill:#0000ff;stroke:#0000ff;" x="487.276325" xlink:href="#m77d6090dee" y="127.410422"/>
     <use style="fill:#0000ff;stroke:#0000ff;" x="496.197388" xlink:href="#m77d6090dee" y="129.269654"/>
     <use style="fill:#0000ff;stroke:#0000ff;" x="505.118451" xlink:href="#m77d6090dee" y="128.115891"/>
     <use style="fill:#0000ff;stroke:#0000ff;" x="514.039514" xlink:href="#m77d6090dee" y="127.532957"/>
     <use style="fill:#0000ff;stroke:#0000ff;" x="522.960577" xlink:href="#m77d6090dee" y="124.02898"/>
     <use style="fill:#0000ff;stroke:#0000ff;" x="531.881641" xlink:href="#m77d6090dee" y="125.758683"/>
     <use style="fill:#0000ff;stroke:#0000ff;" x="540.802704" xlink:href="#m77d6090dee" y="124.330324"/>
     <use style="fill:#0000ff;stroke:#0000ff;" x="549.723767" xlink:href="#m77d6090dee" y="123.850783"/>
     <use style="fill:#0000ff;stroke:#0000ff;" x="558.64483" xlink:href="#m77d6090dee" y="120.482711"/>
     <use style="fill:#0000ff;stroke:#0000ff;" x="567.565893" xlink:href="#m77d6090dee" y="121.775947"/>
     <use style="fill:#0000ff;stroke:#0000ff;" x="576.486956" xlink:href="#m77d6090dee" y="120.459773"/>
     <use style="fill:#0000ff;stroke:#0000ff;" x="585.40802" xlink:href="#m77d6090dee" y="117.346972"/>
     <use style="fill:#0000ff;stroke:#0000ff;" x="594.329083" xlink:href="#m77d6090dee" y="119.649198"/>
     <use style="fill:#0000ff;stroke:#0000ff;" x="603.250146" xlink:href="#m77d6090dee" y="119.619374"/>
     <use style="fill:#0000ff;stroke:#0000ff;" x="612.171209" xlink:href="#m77d6090dee" y="119.579885"/>
     <use style="fill:#0000ff;stroke:#0000ff;" x="621.092272" xlink:href="#m77d6090dee" y="116.720933"/>
     <use style="fill:#0000ff;stroke:#0000ff;" x="630.013335" xlink:href="#m77d6090dee" y="115.779978"/>
     <use style="fill:#0000ff;stroke:#0000ff;" x="638.934398" xlink:href="#m77d6090dee" y="115.6286"/>
     <use style="fill:#0000ff;stroke:#0000ff;" x="647.855462" xlink:href="#m77d6090dee" y="113.329643"/>
     <use style="fill:#0000ff;stroke:#0000ff;" x="656.776525" xlink:href="#m77d6090dee" y="115.748177"/>
     <use style="fill:#0000ff;stroke:#0000ff;" x="665.697588" xlink:href="#m77d6090dee" y="113.810124"/>
     <use style="fill:#0000ff;stroke:#0000ff;" x="674.618651" xlink:href="#m77d6090dee" y="115.073648"/>
    </g>
   </g>
   <g id="line2d_11">
    <defs>
     <path d="M 0 4 
C 1.060812 4 2.078319 3.578535 2.828427 2.828427 
C 3.578535 2.078319 4 1.060812 4 0 
C 4 -1.060812 3.578535 -2.078319 2.828427 -2.828427 
C 2.078319 -3.578535 1.060812 -4 0 -4 
C -1.060812 -4 -2.078319 -3.578535 -2.828427 -2.828427 
C -3.578535 -2.078319 -4 -1.060812 -4 0 
C -4 1.060812 -3.578535 2.078319 -2.828427 2.828427 
C -2.078319 3.578535 -1.060812 4 0 4 
z
" id="m5f7d37abda" style="stroke:#ff0000;"/>
    </defs>
    <g clip-path="url(#pdeb4cc42f3)">
     <use style="fill:#ff0000;stroke:#ff0000;" x="121.512735" xlink:href="#m5f7d37abda" y="139.979032"/>
    </g>
   </g>
   <g id="patch_3">
    <path d="M 84.490323 156.422282 
L 84.490323 71.224945 
" style="fill:none;stroke:#000000;stroke-linecap:square;stroke-linejoin:miter;stroke-width:0.8;"/>
   </g>
   <g id="patch_4">
    <path d="M 702.72 156.422282 
L 702.72 71.224945 
" style="fill:none;stroke:#000000;stroke-linecap:square;stroke-linejoin:miter;stroke-width:0.8;"/>
   </g>
   <g id="patch_5">
    <path d="M 84.490323 156.422282 
L 702.72 156.422282 
" style="fill:none;stroke:#000000;stroke-linecap:square;stroke-linejoin:miter;stroke-width:0.8;"/>
   </g>
   <g id="patch_6">
    <path d="M 84.490323 71.224945 
L 702.72 71.224945 
" style="fill:none;stroke:#000000;stroke-linecap:square;stroke-linejoin:miter;stroke-width:0.8;"/>
   </g>
  </g>
  <g id="axes_2">
   <g id="patch_7">
    <path d="M 84.490323 298.359028 
L 702.72 298.359028 
L 702.72 213.16169 
L 84.490323 213.16169 
z
" style="fill:#ffffff;"/>
   </g>
   <g id="matplotlib.axis_3">
    <g id="xtick_8">
     <g id="line2d_12">
      <g>
       <use style="stroke:#000000;stroke-width:0.8;" x="103.670609" xlink:href="#m4e62dc6898" y="298.359028"/>
      </g>
     </g>
    </g>
    <g id="xtick_9">
     <g id="line2d_13">
      <g>
       <use style="stroke:#000000;stroke-width:0.8;" x="192.881241" xlink:href="#m4e62dc6898" y="298.359028"/>
      </g>
     </g>
    </g>
    <g id="xtick_10">
     <g id="line2d_14">
      <g>
       <use style="stroke:#000000;stroke-width:0.8;" x="282.091872" xlink:href="#m4e62dc6898" y="298.359028"/>
      </g>
     </g>
    </g>
    <g id="xtick_11">
     <g id="line2d_15">
      <g>
       <use style="stroke:#000000;stroke-width:0.8;" x="371.302504" xlink:href="#m4e62dc6898" y="298.359028"/>
      </g>
     </g>
    </g>
    <g id="xtick_12">
     <g id="line2d_16">
      <g>
       <use style="stroke:#000000;stroke-width:0.8;" x="460.513135" xlink:href="#m4e62dc6898" y="298.359028"/>
      </g>
     </g>
    </g>
    <g id="xtick_13">
     <g id="line2d_17">
      <g>
       <use style="stroke:#000000;stroke-width:0.8;" x="549.723767" xlink:href="#m4e62dc6898" y="298.359028"/>
      </g>
     </g>
    </g>
    <g id="xtick_14">
     <g id="line2d_18">
      <g>
       <use style="stroke:#000000;stroke-width:0.8;" x="638.934398" xlink:href="#m4e62dc6898" y="298.359028"/>
      </g>
     </g>
    </g>
    <g id="text_5">
     <!-- $W$ -->
     <g transform="translate(382.553656 318.963433)scale(0.24 -0.24)">
      <use transform="scale(0.996264)" xlink:href="#CMMI12-87"/>
     </g>
    </g>
   </g>
   <g id="matplotlib.axis_4">
    <g id="ytick_3">
     <g id="line2d_19">
      <g>
       <use style="stroke:#000000;stroke-width:0.8;" x="84.490323" xlink:href="#m0a62749faa" y="264.559926"/>
      </g>
     </g>
     <g id="text_6">
      <!-- $\mathdefault{0.5}$ -->
      <g transform="translate(57.546801 270.09472)scale(0.16 -0.16)">
       <defs>
        <path d="M 18.40625 4.796875 
C 18.40625 7.6875 16 9.671875 13.59375 9.671875 
C 10.703125 9.671875 8.703125 7.28125 8.703125 4.890625 
C 8.703125 2 11.09375 0 13.5 0 
C 16.40625 0 18.40625 2.390625 18.40625 4.796875 
z
" id="CMMI12-58"/>
        <path d="M 11.40625 57.6875 
C 12.40625 57.28125 16.5 56 20.703125 56 
C 30 56 35.09375 61.109375 38 64.0625 
C 38 64.953125 38 65.5 37.40625 65.5 
C 37.296875 65.5 37.09375 65.5 36.296875 65.046875 
C 32.796875 63.40625 28.703125 62.078125 23.703125 62.078125 
C 20.703125 62.078125 16.203125 62.484375 11.296875 64.671875 
C 10.203125 65.171875 10 65.171875 9.90625 65.171875 
C 9.40625 65.171875 9.296875 65.0625 9.296875 63.078125 
L 9.296875 34.421875 
C 9.296875 32.640625 9.296875 32.140625 10.296875 32.140625 
C 10.796875 32.140625 11 32.34375 11.5 33.03125 
C 14.703125 37.515625 19.09375 39.40625 24.09375 39.40625 
C 27.59375 39.40625 35.09375 37.21875 35.09375 20.140625 
C 35.09375 16.953125 35.09375 11.171875 32.09375 6.578125 
C 29.59375 2.484375 25.703125 0.390625 21.40625 0.390625 
C 14.796875 0.390625 8.09375 5 6.296875 12.71875 
C 6.703125 12.609375 7.5 12.421875 7.90625 12.421875 
C 9.203125 12.421875 11.703125 13.125 11.703125 16.21875 
C 11.703125 18.90625 9.796875 20 7.90625 20 
C 5.59375 20 4.09375 18.59375 4.09375 15.796875 
C 4.09375 7.09375 11 -2 21.59375 -2 
C 31.90625 -2 41.703125 6.875 41.703125 19.75 
C 41.703125 31.71875 33.90625 41 24.203125 41 
C 19.09375 41 14.796875 39.109375 11.40625 35.53125 
z
" id="CMR17-53"/>
       </defs>
       <use transform="scale(0.996264)" xlink:href="#CMR17-48"/>
       <use transform="translate(45.690477 0)scale(0.996264)" xlink:href="#CMMI12-58"/>
       <use transform="translate(72.787654 0)scale(0.996264)" xlink:href="#CMR17-53"/>
      </g>
     </g>
    </g>
    <g id="ytick_4">
     <g id="line2d_20">
      <g>
       <use style="stroke:#000000;stroke-width:0.8;" x="84.490323" xlink:href="#m0a62749faa" y="216.288785"/>
      </g>
     </g>
     <g id="text_7">
      <!-- $\mathdefault{1.0}$ -->
      <g transform="translate(57.546801 221.823579)scale(0.16 -0.16)">
       <defs>
        <path d="M 26.59375 63.40625 
C 26.59375 65.5 26.5 65.5 25.09375 65.5 
C 21.203125 61.1875 15.296875 59.796875 9.703125 59.796875 
C 9.40625 59.796875 8.90625 59.796875 8.796875 59.5 
C 8.703125 59.296875 8.703125 59.09375 8.703125 57 
C 11.796875 57 17 57.59375 21 59.984375 
L 21 7.203125 
C 21 3.6875 20.796875 2.5 12.203125 2.5 
L 9.203125 2.5 
L 9.203125 0 
C 14 0 19 0 23.796875 0 
C 28.59375 0 33.59375 0 38.40625 0 
L 38.40625 2.5 
L 35.40625 2.5 
C 26.796875 2.5 26.59375 3.59375 26.59375 7.15625 
z
" id="CMR17-49"/>
       </defs>
       <use transform="scale(0.996264)" xlink:href="#CMR17-49"/>
       <use transform="translate(45.690477 0)scale(0.996264)" xlink:href="#CMMI12-58"/>
       <use transform="translate(72.787654 0)scale(0.996264)" xlink:href="#CMR17-48"/>
      </g>
     </g>
    </g>
    <g id="text_8">
     <!-- $\delta(\sigma_F)/\sigma_F$ -->
     <g transform="translate(47.569217 301.016574)rotate(-90)scale(0.24 -0.24)">
      <defs>
       <path d="M 26 43.671875 
C 13.203125 40.578125 4 27.3125 4 15.640625 
C 4 4.984375 11.203125 -1 19.203125 -1 
C 31 -1 39 15.15625 39 28.40625 
C 39 37.375 34.796875 42.875 32.296875 46.15625 
C 28.59375 50.84375 22.59375 58.53125 22.59375 63.3125 
C 22.59375 65.015625 23.90625 68 28.296875 68 
C 31.40625 68 33.296875 66.90625 36.296875 65.203125 
C 37.203125 64.59375 39.5 63.3125 40.796875 63.3125 
C 42.90625 63.3125 44.40625 65.390625 44.40625 66.984375 
C 44.40625 68.890625 42.90625 69.1875 39.40625 69.984375 
C 34.703125 70.984375 33.296875 70.984375 31.59375 70.984375 
C 29.90625 70.984375 20.09375 70.984375 20.09375 60.8125 
C 20.09375 55.921875 22.59375 50.25 26 43.671875 
z
M 27.09375 41.703125 
C 30.90625 33.828125 32.40625 30.84375 32.40625 24.375 
C 32.40625 16.609375 28.203125 0.984375 19.296875 0.984375 
C 15.40625 0.984375 9.796875 3.578125 9.796875 12.828125 
C 9.796875 19.296875 13.5 38.109375 27.09375 41.703125 
z
" id="CMMI12-14"/>
       <path d="M 30.59375 -24.390625 
C 30.59375 -24.296875 30.59375 -24.09375 30.296875 -23.796875 
C 25.703125 -19.125 13.40625 -6.359375 13.40625 24.703125 
C 13.40625 55.765625 25.5 68.421875 30.40625 73.390625 
C 30.40625 73.5 30.59375 73.703125 30.59375 74 
C 30.59375 74.296875 30.296875 74.5 29.90625 74.5 
C 28.796875 74.5 20.296875 67.125 15.40625 56.15625 
C 10.40625 45.109375 9 34.359375 9 24.8125 
C 9 17.625 9.703125 5.484375 15.703125 -7.359375 
C 20.5 -17.734375 28.703125 -25 29.90625 -25 
C 30.40625 -25 30.59375 -24.796875 30.59375 -24.390625 
z
" id="CMR17-40"/>
       <path d="M 50.796875 37.625 
C 52.09375 37.625 55.40625 37.625 55.40625 40.8125 
C 55.40625 43 53.5 43 51.703125 43 
L 29.59375 43 
C 14.59375 43 3.796875 26.34375 3.796875 14.5625 
C 3.796875 6.09375 9.296875 -1 18.296875 -1 
C 30.09375 -1 43 11.671875 43 26.640625 
C 43 30.53125 42.09375 34.3125 39.703125 37.625 
z
M 18.40625 1 
C 13.296875 1 9.59375 4.890625 9.59375 11.78125 
C 9.59375 17.765625 13.203125 37.625 27.90625 37.625 
C 32.203125 37.625 37 35.53125 37 27.828125 
C 37 24.34375 35.40625 15.953125 31.90625 10.1875 
C 28.296875 4.296875 22.90625 1 18.40625 1 
z
" id="CMMI12-27"/>
       <path d="M 29.703125 32.109375 
L 39.296875 32.109375 
C 46.90625 32.109375 47.5 30.40625 47.5 27.515625 
C 47.5 26.21875 47.296875 24.828125 46.796875 22.625 
C 46.59375 22.234375 46.5 21.734375 46.5 21.53125 
C 46.5 20.828125 46.90625 20.4375 47.59375 20.4375 
C 48.40625 20.4375 48.5 20.828125 48.90625 22.421875 
L 54.703125 45.859375 
C 54.703125 46.265625 54.40625 46.859375 53.703125 46.859375 
C 52.796875 46.859375 52.703125 46.46875 52.296875 44.734375 
C 50.203125 37.125 48.203125 35 39.5 35 
L 30.40625 35 
L 36.90625 61.34375 
C 37.796875 64.90625 38 64.90625 42.09375 64.90625 
L 55.5 64.90625 
C 68 64.90625 69.796875 61.21875 69.796875 54.125 
C 69.796875 53.53125 69.796875 51.328125 69.5 48.734375 
C 69.40625 48.34375 69.203125 47.046875 69.203125 46.640625 
C 69.203125 45.84375 69.703125 45.546875 70.296875 45.546875 
C 71 45.546875 71.40625 45.953125 71.59375 47.734375 
L 73.703125 65.21875 
C 73.703125 65.546875 73.90625 66.609375 73.90625 66.828125 
C 73.90625 68 73 68 71.203125 68 
L 23.796875 68 
C 21.90625 68 20.90625 68 20.90625 66.078125 
C 20.90625 64.90625 21.59375 64.90625 23.296875 64.90625 
C 29.5 64.90625 29.5 64.265625 29.5 63.28125 
C 29.5 62.78125 29.40625 62.375 29.09375 61.28125 
L 15.59375 7.390625 
C 14.703125 3.890625 14.5 2.890625 7.5 2.890625 
C 5.59375 2.890625 4.59375 2.890625 4.59375 1.09375 
C 4.59375 0 5.5 0 6.09375 0 
C 8 0 10 0 11.90625 0 
L 24.90625 0 
C 27.09375 0 29.5 0 31.703125 0 
C 32.59375 0 33.796875 0 33.796875 1.796875 
C 33.796875 2.890625 33.203125 2.890625 31 2.890625 
C 23.09375 2.890625 22.90625 3.578125 22.90625 5.0625 
C 22.90625 5.5625 23.09375 6.34375 23.296875 7.015625 
z
" id="CMMI12-70"/>
       <path d="M 26.296875 24.703125 
C 26.296875 31.875 25.59375 44.015625 19.59375 56.859375 
C 14.796875 67.234375 6.59375 74.5 5.40625 74.5 
C 5.09375 74.5 4.703125 74.390625 4.703125 73.890625 
C 4.703125 73.703125 4.796875 73.59375 4.90625 73.390625 
C 9.703125 68.40625 21.90625 55.75 21.90625 24.75 
C 21.90625 -6.359375 9.796875 -19.015625 4.90625 -24.015625 
C 4.796875 -24.203125 4.703125 -24.3125 4.703125 -24.5 
C 4.703125 -25 5.09375 -25 5.40625 -25 
C 6.5 -25 15 -17.625 19.90625 -6.65625 
C 24.90625 4.390625 26.296875 15.140625 26.296875 24.703125 
z
" id="CMR17-41"/>
       <path d="M 42.90625 71.28125 
C 42.90625 71.390625 43.5 72.90625 43.5 73.09375 
C 43.5 74.296875 42.5 75 41.703125 75 
C 41.203125 75 40.296875 75 39.5 72.796875 
L 6 -21.296875 
C 6 -21.40625 5.40625 -22.890625 5.40625 -23.09375 
C 5.40625 -24.296875 6.40625 -25 7.203125 -25 
C 7.796875 -25 8.703125 -24.890625 9.40625 -22.796875 
z
" id="CMMI12-61"/>
      </defs>
      <use transform="scale(0.996264)" xlink:href="#CMMI12-14"/>
      <use transform="translate(46.941386 0)scale(0.996264)" xlink:href="#CMR17-40"/>
      <use transform="translate(82.222154 0)scale(0.996264)" xlink:href="#CMMI12-27"/>
      <use transform="translate(137.667615 -14.943915)scale(0.697382)" xlink:href="#CMMI12-70"/>
      <use transform="translate(191.853258 0)scale(0.996264)" xlink:href="#CMR17-41"/>
      <use transform="translate(227.134026 0)scale(0.996264)" xlink:href="#CMMI12-61"/>
      <use transform="translate(275.908945 0)scale(0.996264)" xlink:href="#CMMI12-27"/>
      <use transform="translate(331.354406 -14.943915)scale(0.697382)" xlink:href="#CMMI12-70"/>
     </g>
    </g>
   </g>
   <g id="line2d_21">
    <path clip-path="url(#p6be45b74d4)" d="M 112.591672 289.189186 
L 121.512735 294.486421 
L 130.433799 291.920056 
L 139.354862 288.861281 
L 148.275925 286.052567 
L 157.196988 283.499116 
L 166.118051 281.149227 
L 175.039114 278.96179 
L 183.960178 276.907278 
L 192.881241 274.964069 
L 201.802304 273.115824 
L 210.723367 271.349849 
L 219.64443 269.656046 
L 228.565493 268.02623 
L 237.486556 266.453655 
L 246.40762 264.932682 
L 255.328683 263.458542 
L 264.249746 262.027158 
L 273.170809 260.635012 
L 282.091872 259.279044 
L 291.012935 257.956573 
L 299.933999 256.665232 
L 308.855062 255.402921 
L 317.776125 254.167765 
L 326.697188 252.958086 
L 335.618251 251.772367 
L 344.539314 250.609239 
L 353.460377 249.467459 
L 362.381441 248.345892 
L 371.302504 247.243502 
L 380.223567 246.159336 
L 389.14463 245.092521 
L 398.065693 244.042248 
L 406.986756 243.007772 
L 415.90782 241.9884 
L 424.828883 240.983489 
L 433.749946 239.992441 
L 442.671009 239.014698 
L 451.592072 238.049737 
L 460.513135 237.09707 
L 469.434198 236.156239 
L 478.355262 235.226813 
L 487.276325 234.308388 
L 496.197388 233.400581 
L 505.118451 232.503033 
L 514.039514 231.615403 
L 522.960577 230.737371 
L 531.881641 229.86863 
L 540.802704 229.008893 
L 549.723767 228.157884 
L 558.64483 227.315345 
L 567.565893 226.481025 
L 576.486956 225.65469 
L 585.40802 224.836115 
L 594.329083 224.025084 
L 603.250146 223.221394 
L 612.171209 222.424847 
L 621.092272 221.635258 
L 630.013335 220.852447 
L 638.934398 220.076243 
L 647.855462 219.30648 
L 656.776525 218.543001 
L 665.697588 217.785655 
L 674.618651 217.034297 
" style="fill:none;stroke:#0000ff;stroke-linecap:square;stroke-width:2;"/>
    <g clip-path="url(#p6be45b74d4)">
     <use style="fill:#0000ff;stroke:#0000ff;" x="112.591672" xlink:href="#m77d6090dee" y="289.189186"/>
     <use style="fill:#0000ff;stroke:#0000ff;" x="121.512735" xlink:href="#m77d6090dee" y="294.486421"/>
     <use style="fill:#0000ff;stroke:#0000ff;" x="130.433799" xlink:href="#m77d6090dee" y="291.920056"/>
     <use style="fill:#0000ff;stroke:#0000ff;" x="139.354862" xlink:href="#m77d6090dee" y="288.861281"/>
     <use style="fill:#0000ff;stroke:#0000ff;" x="148.275925" xlink:href="#m77d6090dee" y="286.052567"/>
     <use style="fill:#0000ff;stroke:#0000ff;" x="157.196988" xlink:href="#m77d6090dee" y="283.499116"/>
     <use style="fill:#0000ff;stroke:#0000ff;" x="166.118051" xlink:href="#m77d6090dee" y="281.149227"/>
     <use style="fill:#0000ff;stroke:#0000ff;" x="175.039114" xlink:href="#m77d6090dee" y="278.96179"/>
     <use style="fill:#0000ff;stroke:#0000ff;" x="183.960178" xlink:href="#m77d6090dee" y="276.907278"/>
     <use style="fill:#0000ff;stroke:#0000ff;" x="192.881241" xlink:href="#m77d6090dee" y="274.964069"/>
     <use style="fill:#0000ff;stroke:#0000ff;" x="201.802304" xlink:href="#m77d6090dee" y="273.115824"/>
     <use style="fill:#0000ff;stroke:#0000ff;" x="210.723367" xlink:href="#m77d6090dee" y="271.349849"/>
     <use style="fill:#0000ff;stroke:#0000ff;" x="219.64443" xlink:href="#m77d6090dee" y="269.656046"/>
     <use style="fill:#0000ff;stroke:#0000ff;" x="228.565493" xlink:href="#m77d6090dee" y="268.02623"/>
     <use style="fill:#0000ff;stroke:#0000ff;" x="237.486556" xlink:href="#m77d6090dee" y="266.453655"/>
     <use style="fill:#0000ff;stroke:#0000ff;" x="246.40762" xlink:href="#m77d6090dee" y="264.932682"/>
     <use style="fill:#0000ff;stroke:#0000ff;" x="255.328683" xlink:href="#m77d6090dee" y="263.458542"/>
     <use style="fill:#0000ff;stroke:#0000ff;" x="264.249746" xlink:href="#m77d6090dee" y="262.027158"/>
     <use style="fill:#0000ff;stroke:#0000ff;" x="273.170809" xlink:href="#m77d6090dee" y="260.635012"/>
     <use style="fill:#0000ff;stroke:#0000ff;" x="282.091872" xlink:href="#m77d6090dee" y="259.279044"/>
     <use style="fill:#0000ff;stroke:#0000ff;" x="291.012935" xlink:href="#m77d6090dee" y="257.956573"/>
     <use style="fill:#0000ff;stroke:#0000ff;" x="299.933999" xlink:href="#m77d6090dee" y="256.665232"/>
     <use style="fill:#0000ff;stroke:#0000ff;" x="308.855062" xlink:href="#m77d6090dee" y="255.402921"/>
     <use style="fill:#0000ff;stroke:#0000ff;" x="317.776125" xlink:href="#m77d6090dee" y="254.167765"/>
     <use style="fill:#0000ff;stroke:#0000ff;" x="326.697188" xlink:href="#m77d6090dee" y="252.958086"/>
     <use style="fill:#0000ff;stroke:#0000ff;" x="335.618251" xlink:href="#m77d6090dee" y="251.772367"/>
     <use style="fill:#0000ff;stroke:#0000ff;" x="344.539314" xlink:href="#m77d6090dee" y="250.609239"/>
     <use style="fill:#0000ff;stroke:#0000ff;" x="353.460377" xlink:href="#m77d6090dee" y="249.467459"/>
     <use style="fill:#0000ff;stroke:#0000ff;" x="362.381441" xlink:href="#m77d6090dee" y="248.345892"/>
     <use style="fill:#0000ff;stroke:#0000ff;" x="371.302504" xlink:href="#m77d6090dee" y="247.243502"/>
     <use style="fill:#0000ff;stroke:#0000ff;" x="380.223567" xlink:href="#m77d6090dee" y="246.159336"/>
     <use style="fill:#0000ff;stroke:#0000ff;" x="389.14463" xlink:href="#m77d6090dee" y="245.092521"/>
     <use style="fill:#0000ff;stroke:#0000ff;" x="398.065693" xlink:href="#m77d6090dee" y="244.042248"/>
     <use style="fill:#0000ff;stroke:#0000ff;" x="406.986756" xlink:href="#m77d6090dee" y="243.007772"/>
     <use style="fill:#0000ff;stroke:#0000ff;" x="415.90782" xlink:href="#m77d6090dee" y="241.9884"/>
     <use style="fill:#0000ff;stroke:#0000ff;" x="424.828883" xlink:href="#m77d6090dee" y="240.983489"/>
     <use style="fill:#0000ff;stroke:#0000ff;" x="433.749946" xlink:href="#m77d6090dee" y="239.992441"/>
     <use style="fill:#0000ff;stroke:#0000ff;" x="442.671009" xlink:href="#m77d6090dee" y="239.014698"/>
     <use style="fill:#0000ff;stroke:#0000ff;" x="451.592072" xlink:href="#m77d6090dee" y="238.049737"/>
     <use style="fill:#0000ff;stroke:#0000ff;" x="460.513135" xlink:href="#m77d6090dee" y="237.09707"/>
     <use style="fill:#0000ff;stroke:#0000ff;" x="469.434198" xlink:href="#m77d6090dee" y="236.156239"/>
     <use style="fill:#0000ff;stroke:#0000ff;" x="478.355262" xlink:href="#m77d6090dee" y="235.226813"/>
     <use style="fill:#0000ff;stroke:#0000ff;" x="487.276325" xlink:href="#m77d6090dee" y="234.308388"/>
     <use style="fill:#0000ff;stroke:#0000ff;" x="496.197388" xlink:href="#m77d6090dee" y="233.400581"/>
     <use style="fill:#0000ff;stroke:#0000ff;" x="505.118451" xlink:href="#m77d6090dee" y="232.503033"/>
     <use style="fill:#0000ff;stroke:#0000ff;" x="514.039514" xlink:href="#m77d6090dee" y="231.615403"/>
     <use style="fill:#0000ff;stroke:#0000ff;" x="522.960577" xlink:href="#m77d6090dee" y="230.737371"/>
     <use style="fill:#0000ff;stroke:#0000ff;" x="531.881641" xlink:href="#m77d6090dee" y="229.86863"/>
     <use style="fill:#0000ff;stroke:#0000ff;" x="540.802704" xlink:href="#m77d6090dee" y="229.008893"/>
     <use style="fill:#0000ff;stroke:#0000ff;" x="549.723767" xlink:href="#m77d6090dee" y="228.157884"/>
     <use style="fill:#0000ff;stroke:#0000ff;" x="558.64483" xlink:href="#m77d6090dee" y="227.315345"/>
     <use style="fill:#0000ff;stroke:#0000ff;" x="567.565893" xlink:href="#m77d6090dee" y="226.481025"/>
     <use style="fill:#0000ff;stroke:#0000ff;" x="576.486956" xlink:href="#m77d6090dee" y="225.65469"/>
     <use style="fill:#0000ff;stroke:#0000ff;" x="585.40802" xlink:href="#m77d6090dee" y="224.836115"/>
     <use style="fill:#0000ff;stroke:#0000ff;" x="594.329083" xlink:href="#m77d6090dee" y="224.025084"/>
     <use style="fill:#0000ff;stroke:#0000ff;" x="603.250146" xlink:href="#m77d6090dee" y="223.221394"/>
     <use style="fill:#0000ff;stroke:#0000ff;" x="612.171209" xlink:href="#m77d6090dee" y="222.424847"/>
     <use style="fill:#0000ff;stroke:#0000ff;" x="621.092272" xlink:href="#m77d6090dee" y="221.635258"/>
     <use style="fill:#0000ff;stroke:#0000ff;" x="630.013335" xlink:href="#m77d6090dee" y="220.852447"/>
     <use style="fill:#0000ff;stroke:#0000ff;" x="638.934398" xlink:href="#m77d6090dee" y="220.076243"/>
     <use style="fill:#0000ff;stroke:#0000ff;" x="647.855462" xlink:href="#m77d6090dee" y="219.30648"/>
     <use style="fill:#0000ff;stroke:#0000ff;" x="656.776525" xlink:href="#m77d6090dee" y="218.543001"/>
     <use style="fill:#0000ff;stroke:#0000ff;" x="665.697588" xlink:href="#m77d6090dee" y="217.785655"/>
     <use style="fill:#0000ff;stroke:#0000ff;" x="674.618651" xlink:href="#m77d6090dee" y="217.034297"/>
    </g>
   </g>
   <g id="line2d_22">
    <path clip-path="url(#p6be45b74d4)" d="M 121.512735 294.486421 
" style="fill:none;stroke:#ff0000;stroke-linecap:square;stroke-width:2;"/>
    <g clip-path="url(#p6be45b74d4)">
     <use style="fill:#ff0000;stroke:#ff0000;" x="121.512735" xlink:href="#m5f7d37abda" y="294.486421"/>
    </g>
   </g>
   <g id="patch_8">
    <path d="M 84.490323 298.359028 
L 84.490323 213.16169 
" style="fill:none;stroke:#000000;stroke-linecap:square;stroke-linejoin:miter;stroke-width:0.8;"/>
   </g>
   <g id="patch_9">
    <path d="M 702.72 298.359028 
L 702.72 213.16169 
" style="fill:none;stroke:#000000;stroke-linecap:square;stroke-linejoin:miter;stroke-width:0.8;"/>
   </g>
   <g id="patch_10">
    <path d="M 84.490323 298.359028 
L 702.72 298.359028 
" style="fill:none;stroke:#000000;stroke-linecap:square;stroke-linejoin:miter;stroke-width:0.8;"/>
   </g>
   <g id="patch_11">
    <path d="M 84.490323 213.16169 
L 702.72 213.16169 
" style="fill:none;stroke:#000000;stroke-linecap:square;stroke-linejoin:miter;stroke-width:0.8;"/>
   </g>
   <g id="text_9">
    <!-- $W_{\rm opt} = 2$ -->
    <g transform="translate(103.670609 232.524721)scale(0.16 -0.16)">
     <defs>
      <path d="M 43.09375 21.1875 
C 43.09375 34 33.796875 44 22.90625 44 
C 12 44 2.703125 34 2.703125 21.1875 
C 2.703125 8.609375 12 -1 22.90625 -1 
C 33.796875 -1 43.09375 8.609375 43.09375 21.1875 
z
M 22.90625 0.796875 
C 18.203125 0.796875 14.203125 3.59375 11.90625 7.5 
C 9.40625 11.984375 9.09375 17.59375 9.09375 22 
C 9.09375 26.203125 9.296875 31.40625 11.90625 35.90625 
C 13.90625 39.203125 17.796875 42.40625 22.90625 42.40625 
C 27.40625 42.40625 31.203125 39.90625 33.59375 36.40625 
C 36.703125 31.703125 36.703125 25.109375 36.703125 22 
C 36.703125 18.09375 36.5 12.109375 33.796875 7.296875 
C 31 2.703125 26.703125 0.796875 22.90625 0.796875 
z
" id="CMR17-111"/>
      <path d="M 22 -16.609375 
C 15.59375 -16.609375 15.203125 -16.203125 15.203125 -12.328125 
L 15.203125 6.28125 
C 18.09375 2.09375 22.296875 -0.59375 27.59375 -0.59375 
C 37.59375 -0.59375 47.703125 8.171875 47.703125 21.6875 
C 47.703125 34.234375 39 43.78125 28.703125 43.78125 
C 22.703125 43.78125 17.796875 40.5 15 36.53125 
L 15 43.78125 
L 3.09375 42.6875 
L 3.09375 40.109375 
C 9 40.109375 9.90625 39.5 9.90625 34.734375 
L 9.90625 -12.328125 
C 9.90625 -16.109375 9.5 -16.609375 3.09375 -16.609375 
L 3.09375 -19.1875 
C 5.5 -19 9.90625 -19 12.5 -19 
C 15.09375 -19 19.59375 -19 22 -19.1875 
z
M 15.203125 31.4375 
C 15.203125 32.84375 15.203125 34.921875 19.09375 38.609375 
C 19.59375 39.015625 23 42 28 42 
C 35.296875 42 41.296875 32.9375 41.296875 21.59375 
C 41.296875 10.25 34.90625 1 27 1 
C 23.40625 1 19.5 2.6875 16.5 7.375 
C 15.203125 9.5625 15.203125 10.15625 15.203125 11.75 
z
" id="CMR17-112"/>
      <path d="M 64.296875 31.515625 
C 65.796875 31.515625 67.296875 31.515625 67.296875 33.203125 
C 67.296875 35 65.59375 35 63.90625 35 
L 8 35 
C 6.296875 35 4.59375 35 4.59375 33.203125 
C 4.59375 31.515625 6.09375 31.515625 7.59375 31.515625 
z
M 63.90625 14 
C 65.59375 14 67.296875 14 67.296875 15.796875 
C 67.296875 17.484375 65.796875 17.484375 64.296875 17.484375 
L 7.59375 17.484375 
C 6.09375 17.484375 4.59375 17.484375 4.59375 15.796875 
C 4.59375 14 6.296875 14 8 14 
z
" id="CMR17-61"/>
     </defs>
     <use transform="scale(0.996264)" xlink:href="#CMMI12-87"/>
     <use transform="translate(92.095909 -14.943915)scale(0.697382)" xlink:href="#CMR17-111"/>
     <use transform="translate(124.079091 -14.943915)scale(0.697382)" xlink:href="#CMR17-112"/>
     <use transform="translate(159.7057 -14.943915)scale(0.697382)" xlink:href="#CMR17-116"/>
     <use transform="translate(212.574261 0)scale(0.996264)" xlink:href="#CMR17-61"/>
     <use transform="translate(311.963058 0)scale(0.996264)" xlink:href="#CMR17-50"/>
    </g>
   </g>
   <g id="text_10">
    <!-- $\tau_{\rm opt} = 0.5$ -->
    <g transform="translate(103.670609 248.015146)scale(0.16 -0.16)">
     <use transform="scale(0.996264)" xlink:href="#CMMI12-28"/>
     <use transform="translate(42.363841 -14.943915)scale(0.697382)" xlink:href="#CMR17-111"/>
     <use transform="translate(74.347023 -14.943915)scale(0.697382)" xlink:href="#CMR17-112"/>
     <use transform="translate(109.973631 -14.943915)scale(0.697382)" xlink:href="#CMR17-116"/>
     <use transform="translate(162.842192 0)scale(0.996264)" xlink:href="#CMR17-61"/>
     <use transform="translate(262.230989 0)scale(0.996264)" xlink:href="#CMR17-48"/>
     <use transform="translate(307.921466 0)scale(0.996264)" xlink:href="#CMMI12-58"/>
     <use transform="translate(335.018643 0)scale(0.996264)" xlink:href="#CMR17-53"/>
    </g>
   </g>
   <g id="text_11">
    <!-- $N = 260, N_{\rm ind} = 274$ -->
    <g transform="translate(103.670609 263.505571)scale(0.16 -0.16)">
     <defs>
      <path d="M 74 57.78125 
C 75.09375 62.09375 76.703125 65.09375 84.296875 65.09375 
C 84.59375 65.09375 85.796875 65.09375 85.796875 66.859375 
C 85.796875 68 84.90625 68 84.5 68 
C 82.5 68 77.40625 68 75.40625 68 
L 70.59375 68 
C 69.203125 68 67.40625 68 66 68 
C 65.40625 68 64.203125 68 64.203125 66.09375 
C 64.203125 65.09375 65 65.09375 65.703125 65.09375 
C 71.703125 65.09375 72.09375 62.796875 72.09375 60.984375 
C 72.09375 60.09375 72 59.78125 71.703125 58.390625 
L 60.40625 13.28125 
L 39 66.390625 
C 38.296875 68 38.203125 68 36 68 
L 23.796875 68 
C 21.796875 68 20.90625 68 20.90625 66.09375 
C 20.90625 65.09375 21.59375 65.09375 23.5 65.09375 
C 24 65.09375 29.90625 65.09375 29.90625 64.296875 
C 29.90625 64.09375 29.703125 63.296875 29.59375 63 
L 16.296875 9.921875 
C 15.09375 5 12.703125 2.90625 6.09375 2.90625 
C 5.59375 2.90625 4.59375 2.90625 4.59375 1.046875 
C 4.59375 0 5.59375 0 5.90625 0 
C 7.90625 0 13 0 15 0 
L 19.796875 0 
C 21.203125 0 22.90625 0 24.296875 0 
C 25 0 26.09375 0 26.09375 1.90625 
C 26.09375 2.8125 25.09375 2.90625 24.703125 2.90625 
C 21.40625 2.90625 18.203125 3.5 18.203125 7.09375 
C 18.203125 7.890625 18.40625 8.78125 18.59375 9.578125 
L 32.09375 63 
C 32.703125 62 32.703125 61.8125 33.09375 60.90625 
L 56.90625 1.796875 
C 57.40625 0.59375 57.59375 0 58.5 0 
C 59.5 0 59.59375 0.296875 60 2 
z
" id="CMMI12-78"/>
      <path d="M 10.59375 34 
C 10.59375 57.65625 21.796875 63 28.296875 63 
C 30.40625 63 35.5 62.640625 37.5 59 
C 35.90625 59 32.90625 59 32.90625 55.515625 
C 32.90625 52.828125 35.09375 51.921875 36.5 51.921875 
C 37.40625 51.921875 40.09375 52.3125 40.09375 55.625 
C 40.09375 61.78125 35.09375 65.296875 28.203125 65.296875 
C 16.296875 65.296875 3.796875 52.96875 3.796875 31 
C 3.796875 3.953125 15.09375 -2 23.09375 -2 
C 32.796875 -2 42 6.671875 42 20.046875 
C 42 32.515625 33.90625 41.59375 23.703125 41.59375 
C 17.59375 41.59375 13.09375 37.609375 10.59375 30.625 
z
M 23.09375 0.390625 
C 10.796875 0.390625 10.796875 18.75 10.796875 22.4375 
C 10.796875 29.625 14.203125 40 23.5 40 
C 25.203125 40 30.09375 40 33.40625 33.125 
C 35.203125 29.21875 35.203125 25.140625 35.203125 20.140625 
C 35.203125 14.75 35.203125 10.78125 33.09375 6.78125 
C 30.90625 2.671875 27.703125 0.390625 23.09375 0.390625 
z
" id="CMR17-54"/>
      <path d="M 19.5 -0.484375 
C 19.5 5.359375 17.59375 9.671875 13.5 9.671875 
C 10.296875 9.671875 8.703125 7.078125 8.703125 4.890625 
C 8.703125 2.6875 10.203125 0 13.59375 0 
C 14.90625 0 16 0.40625 16.90625 1.296875 
C 17.09375 1.5 17.203125 1.5 17.296875 1.5 
C 17.5 1.5 17.5 0.078125 17.5 -0.421875 
C 17.5 -3.75 16.90625 -10.296875 11.09375 -16.875 
C 10 -18.078125 10 -18.28125 10 -18.484375 
C 10 -19 10.5 -19.5 11 -19.5 
C 11.796875 -19.5 19.5 -12.046875 19.5 -0.484375 
z
" id="CMMI12-59"/>
      <path d="M 29.203125 67.59375 
L 29.203125 65 
C 35.09375 65 36 64.40625 36 59.6875 
L 36 36.640625 
C 35.59375 37.140625 31.5 43.59375 23.40625 43.59375 
C 13.203125 43.59375 3.296875 34.5 3.296875 21.3125 
C 3.296875 8.203125 12.59375 -1 22.40625 -1 
C 30.90625 -1 35.296875 5.265625 35.796875 5.9375 
L 35.796875 -0.984375 
L 47.90625 -0.984375 
L 47.90625 2 
C 42 2 41.09375 2.59375 41.09375 7.390625 
L 41.09375 68.6875 
z
M 35.796875 11.796875 
C 35.796875 8.796875 34 6.09375 31.703125 4.09375 
C 28.296875 1.09375 24.90625 0.59375 23 0.59375 
C 20.09375 0.59375 9.703125 2.09375 9.703125 21.1875 
C 9.703125 40.8125 21.296875 42 23.90625 42 
C 28.5 42 32.203125 39.40625 34.5 35.796875 
C 35.796875 33.703125 35.796875 33.40625 35.796875 31.609375 
z
" id="CMR17-100"/>
      <path d="M 45.09375 61.578125 
L 45.09375 63.765625 
L 21.59375 63.765625 
C 9.90625 63.765625 9.703125 65.078125 9.296875 67 
L 7.5 67 
L 4.59375 48.34375 
L 6.40625 48.34375 
C 6.703125 50.234375 7.40625 55.3125 8.59375 57.203125 
C 9.203125 58 16.59375 58 18.296875 58 
L 40.296875 58 
L 29.203125 41.578125 
C 21.796875 30.53125 16.703125 15.609375 16.703125 2.578125 
C 16.703125 1.390625 16.703125 -2 20.296875 -2 
C 23.90625 -2 23.90625 1.390625 23.90625 2.671875 
L 23.90625 7.265625 
C 23.90625 23.5625 26.703125 34.3125 31.296875 41.1875 
z
" id="CMR17-55"/>
      <path d="M 33.59375 64.40625 
C 33.59375 66.5 33.5 66.5 31.703125 66.5 
L 2 19.59375 
L 2 17 
L 27.796875 17 
L 27.796875 7.140625 
C 27.796875 3.5 27.59375 2.5 20.59375 2.5 
L 18.703125 2.5 
L 18.703125 0 
C 21.90625 0 27.296875 0 30.703125 0 
C 34.09375 0 39.5 0 42.703125 0 
L 42.703125 2.5 
L 40.796875 2.5 
C 33.796875 2.5 33.59375 3.5 33.59375 7.140625 
L 33.59375 17 
L 43.796875 17 
L 43.796875 19.59375 
L 33.59375 19.59375 
z
M 28.09375 57.859375 
L 28.09375 19.59375 
L 4 19.59375 
z
" id="CMR17-52"/>
     </defs>
     <use transform="scale(0.996264)" xlink:href="#CMMI12-78"/>
     <use transform="translate(116.195781 0)scale(0.996264)" xlink:href="#CMR17-61"/>
     <use transform="translate(215.584578 0)scale(0.996264)" xlink:href="#CMR17-50"/>
     <use transform="translate(261.275056 0)scale(0.996264)" xlink:href="#CMR17-54"/>
     <use transform="translate(306.965533 0)scale(0.996264)" xlink:href="#CMR17-48"/>
     <use transform="translate(352.65601 0)scale(0.996264)" xlink:href="#CMMI12-59"/>
     <use transform="translate(396.357592 0)scale(0.996264)" xlink:href="#CMMI12-78"/>
     <use transform="translate(474.472711 -14.943915)scale(0.697382)" xlink:href="#CMR17-105"/>
     <use transform="translate(491.88237 -14.943915)scale(0.697382)" xlink:href="#CMR17-110"/>
     <use transform="translate(527.508978 -14.943915)scale(0.697382)" xlink:href="#CMR17-100"/>
     <use transform="translate(591.307727 0)scale(0.996264)" xlink:href="#CMR17-61"/>
     <use transform="translate(690.696524 0)scale(0.996264)" xlink:href="#CMR17-50"/>
     <use transform="translate(736.387002 0)scale(0.996264)" xlink:href="#CMR17-55"/>
     <use transform="translate(782.077479 0)scale(0.996264)" xlink:href="#CMR17-52"/>
    </g>
   </g>
  </g>
  <g id="axes_3">
   <g id="patch_12">
    <path d="M 84.490323 440.295773 
L 702.72 440.295773 
L 702.72 355.098436 
L 84.490323 355.098436 
z
" style="fill:#ffffff;"/>
   </g>
   <g id="matplotlib.axis_5">
    <g id="xtick_15">
     <g id="line2d_23">
      <g>
       <use style="stroke:#000000;stroke-width:0.8;" x="103.670609" xlink:href="#m4e62dc6898" y="440.295773"/>
      </g>
     </g>
     <g id="text_12">
      <!-- $\mathdefault{0}$ -->
      <g transform="translate(99.768616 458.365361)scale(0.16 -0.16)">
       <use transform="scale(0.996264)" xlink:href="#CMR17-48"/>
      </g>
     </g>
    </g>
    <g id="xtick_16">
     <g id="line2d_24">
      <g>
       <use style="stroke:#000000;stroke-width:0.8;" x="192.881241" xlink:href="#m4e62dc6898" y="440.295773"/>
      </g>
     </g>
     <g id="text_13">
      <!-- $\mathdefault{10}$ -->
      <g transform="translate(185.077254 458.365361)scale(0.16 -0.16)">
       <use transform="scale(0.996264)" xlink:href="#CMR17-49"/>
       <use transform="translate(45.690477 0)scale(0.996264)" xlink:href="#CMR17-48"/>
      </g>
     </g>
    </g>
    <g id="xtick_17">
     <g id="line2d_25">
      <g>
       <use style="stroke:#000000;stroke-width:0.8;" x="282.091872" xlink:href="#m4e62dc6898" y="440.295773"/>
      </g>
     </g>
     <g id="text_14">
      <!-- $\mathdefault{20}$ -->
      <g transform="translate(274.287885 458.365361)scale(0.16 -0.16)">
       <use transform="scale(0.996264)" xlink:href="#CMR17-50"/>
       <use transform="translate(45.690477 0)scale(0.996264)" xlink:href="#CMR17-48"/>
      </g>
     </g>
    </g>
    <g id="xtick_18">
     <g id="line2d_26">
      <g>
       <use style="stroke:#000000;stroke-width:0.8;" x="371.302504" xlink:href="#m4e62dc6898" y="440.295773"/>
      </g>
     </g>
     <g id="text_15">
      <!-- $\mathdefault{30}$ -->
      <g transform="translate(363.498517 458.365361)scale(0.16 -0.16)">
       <defs>
        <path d="M 22.09375 33.703125 
C 31 33.703125 34.90625 25.96875 34.90625 17.03125 
C 34.90625 5 28.5 0.390625 22.703125 0.390625 
C 17.40625 0.390625 8.796875 3.03125 6.09375 10.828125 
C 6.59375 10.625 7.09375 10.625 7.59375 10.625 
C 10 10.625 11.796875 12.21875 11.796875 14.8125 
C 11.796875 17.703125 9.59375 19 7.59375 19 
C 5.90625 19 3.296875 18.203125 3.296875 14.46875 
C 3.296875 5.234375 12.296875 -2 22.90625 -2 
C 34 -2 42.5 6.71875 42.5 16.953125 
C 42.5 26.671875 34.5 33.703125 25 34.796875 
C 32.59375 36.375 39.90625 43.0625 39.90625 52.015625 
C 39.90625 59.6875 32 65.296875 23 65.296875 
C 13.90625 65.296875 5.90625 59.828125 5.90625 52.015625 
C 5.90625 48.59375 8.5 48 9.796875 48 
C 11.90625 48 13.703125 49.296875 13.703125 51.890625 
C 13.703125 54.46875 11.90625 55.765625 9.796875 55.765625 
C 9.40625 55.765625 8.90625 55.765625 8.5 55.578125 
C 11.40625 61.859375 19.296875 63 22.796875 63 
C 26.296875 63 32.90625 61.328125 32.90625 51.875 
C 32.90625 49.109375 32.5 44.1875 29.09375 39.84375 
C 26.09375 36 22.703125 36 19.40625 35.6875 
C 18.90625 35.6875 16.59375 35.453125 16.203125 35.453125 
C 15.5 35.359375 15.09375 35.265625 15.09375 34.5 
C 15.09375 33.796875 15.203125 33.703125 17.203125 33.703125 
z
" id="CMR17-51"/>
       </defs>
       <use transform="scale(0.996264)" xlink:href="#CMR17-51"/>
       <use transform="translate(45.690477 0)scale(0.996264)" xlink:href="#CMR17-48"/>
      </g>
     </g>
    </g>
    <g id="xtick_19">
     <g id="line2d_27">
      <g>
       <use style="stroke:#000000;stroke-width:0.8;" x="460.513135" xlink:href="#m4e62dc6898" y="440.295773"/>
      </g>
     </g>
     <g id="text_16">
      <!-- $\mathdefault{40}$ -->
      <g transform="translate(452.709148 458.365361)scale(0.16 -0.16)">
       <use transform="scale(0.996264)" xlink:href="#CMR17-52"/>
       <use transform="translate(45.690477 0)scale(0.996264)" xlink:href="#CMR17-48"/>
      </g>
     </g>
    </g>
    <g id="xtick_20">
     <g id="line2d_28">
      <g>
       <use style="stroke:#000000;stroke-width:0.8;" x="549.723767" xlink:href="#m4e62dc6898" y="440.295773"/>
      </g>
     </g>
     <g id="text_17">
      <!-- $\mathdefault{50}$ -->
      <g transform="translate(541.91978 458.365361)scale(0.16 -0.16)">
       <use transform="scale(0.996264)" xlink:href="#CMR17-53"/>
       <use transform="translate(45.690477 0)scale(0.996264)" xlink:href="#CMR17-48"/>
      </g>
     </g>
    </g>
    <g id="xtick_21">
     <g id="line2d_29">
      <g>
       <use style="stroke:#000000;stroke-width:0.8;" x="638.934398" xlink:href="#m4e62dc6898" y="440.295773"/>
      </g>
     </g>
     <g id="text_18">
      <!-- $\mathdefault{60}$ -->
      <g transform="translate(631.130411 458.365361)scale(0.16 -0.16)">
       <use transform="scale(0.996264)" xlink:href="#CMR17-54"/>
       <use transform="translate(45.690477 0)scale(0.996264)" xlink:href="#CMR17-48"/>
      </g>
     </g>
    </g>
    <g id="text_19">
     <!-- $\Delta$ -->
     <g transform="translate(384.374814 482.069243)scale(0.24 -0.24)">
      <defs>
       <path d="M 40.59375 68.796875 
C 39.796875 70.5 39.40625 70.5 38.59375 70.5 
C 37.40625 70.5 37.296875 70.296875 36.59375 68.890625 
L 4.203125 1.703125 
C 4.09375 1.5 3.703125 0.59375 3.703125 0.5 
C 3.703125 0.09375 3.796875 0 5.59375 0 
L 71.5 0 
C 73.296875 0 73.40625 0.09375 73.40625 0.5 
C 73.40625 0.59375 73 1.5 72.90625 1.703125 
z
M 36.09375 63.09375 
L 63.796875 5.59375 
L 8.296875 5.59375 
z
" id="CMR17-1"/>
      </defs>
      <use transform="scale(0.996264)" xlink:href="#CMR17-1"/>
     </g>
    </g>
   </g>
   <g id="matplotlib.axis_6">
    <g id="ytick_5">
     <g id="line2d_30">
      <g>
       <use style="stroke:#000000;stroke-width:0.8;" x="84.490323" xlink:href="#m0a62749faa" y="435.276933"/>
      </g>
     </g>
     <g id="text_20">
      <!-- $\mathdefault{2.5}$ -->
      <g transform="translate(45.148805 440.811727)scale(0.16 -0.16)">
       <defs>
        <path d="M 65.90625 23 
C 67.59375 23 69.40625 23 69.40625 25 
C 69.40625 27 67.59375 27 65.90625 27 
L 11.796875 27 
C 10.09375 27 8.296875 27 8.296875 25 
C 8.296875 23 10.09375 23 11.796875 23 
z
" id="CMSY10-0"/>
       </defs>
       <use transform="scale(0.996264)" xlink:href="#CMSY10-0"/>
       <use transform="translate(77.487468 0)scale(0.996264)" xlink:href="#CMR17-50"/>
       <use transform="translate(123.177945 0)scale(0.996264)" xlink:href="#CMMI12-58"/>
       <use transform="translate(150.275122 0)scale(0.996264)" xlink:href="#CMR17-53"/>
      </g>
     </g>
    </g>
    <g id="ytick_6">
     <g id="line2d_31">
      <g>
       <use style="stroke:#000000;stroke-width:0.8;" x="84.490323" xlink:href="#m0a62749faa" y="404.05457"/>
      </g>
     </g>
     <g id="text_21">
      <!-- $\mathdefault{0.0}$ -->
      <g transform="translate(57.546801 409.589364)scale(0.16 -0.16)">
       <use transform="scale(0.996264)" xlink:href="#CMR17-48"/>
       <use transform="translate(45.690477 0)scale(0.996264)" xlink:href="#CMMI12-58"/>
       <use transform="translate(72.787654 0)scale(0.996264)" xlink:href="#CMR17-48"/>
      </g>
     </g>
    </g>
    <g id="ytick_7">
     <g id="line2d_32">
      <g>
       <use style="stroke:#000000;stroke-width:0.8;" x="84.490323" xlink:href="#m0a62749faa" y="372.832207"/>
      </g>
     </g>
     <g id="text_22">
      <!-- $\mathdefault{2.5}$ -->
      <g transform="translate(57.546801 378.367001)scale(0.16 -0.16)">
       <use transform="scale(0.996264)" xlink:href="#CMR17-50"/>
       <use transform="translate(45.690477 0)scale(0.996264)" xlink:href="#CMMI12-58"/>
       <use transform="translate(72.787654 0)scale(0.996264)" xlink:href="#CMR17-53"/>
      </g>
     </g>
    </g>
    <g id="text_23">
     <!-- $\Gamma(\Delta)$ -->
     <g transform="translate(35.191226 422.280598)rotate(-90)scale(0.24 -0.24)">
      <defs>
       <path d="M 51.796875 68 
L 5.09375 68 
L 5.09375 65.40625 
C 12 65.40625 13.09375 65.40625 13.09375 60.90625 
L 13.09375 7 
C 13.09375 2.5 12 2.5 5.09375 2.5 
L 5.09375 0 
C 8 0 13.59375 0 16.703125 0 
C 20.796875 0 25.59375 0 29.703125 0 
L 29.703125 2.5 
L 27.5 2.5 
C 19.90625 2.5 19.703125 3.5 19.703125 7.109375 
L 19.703125 61.5 
C 19.703125 64.90625 19.90625 65.40625 23.90625 65.40625 
L 34.90625 65.40625 
C 50.09375 65.40625 50.90625 58.40625 52.40625 45.90625 
L 54.203125 45.90625 
z
" id="CMR17-0"/>
      </defs>
      <use transform="scale(0.996264)" xlink:href="#CMR17-0"/>
      <use transform="translate(57.381408 0)scale(0.996264)" xlink:href="#CMR17-40"/>
      <use transform="translate(92.662176 0)scale(0.996264)" xlink:href="#CMR17-1"/>
      <use transform="translate(169.581766 0)scale(0.996264)" xlink:href="#CMR17-41"/>
     </g>
    </g>
    <g id="text_24">
     <!-- $\times\mathdefault{10^{64}}\mathdefault{}$ -->
     <g transform="translate(84.490323 352.098436)scale(0.16 -0.16)">
      <defs>
       <path d="M 38.90625 27.890625 
L 18.90625 47.796875 
C 17.703125 49 17.5 49.1875 16.703125 49.1875 
C 15.703125 49.1875 14.703125 48.296875 14.703125 47.1875 
C 14.703125 46.5 14.90625 46.296875 16 45.1875 
L 36 25.09375 
L 16 5 
C 14.90625 3.890625 14.703125 3.6875 14.703125 3 
C 14.703125 1.890625 15.703125 1 16.703125 1 
C 17.5 1 17.703125 1.1875 18.90625 2.390625 
L 38.796875 22.296875 
L 59.5 1.59375 
C 59.703125 1.5 60.40625 1 61 1 
C 62.203125 1 63 1.890625 63 3 
C 63 3.1875 63 3.59375 62.703125 4.09375 
C 62.59375 4.296875 46.703125 20 41.703125 25.09375 
L 60 43.390625 
C 60.5 44 62 45.296875 62.5 45.890625 
C 62.59375 46.09375 63 46.5 63 47.1875 
C 63 48.296875 62.203125 49.1875 61 49.1875 
C 60.203125 49.1875 59.796875 48.796875 58.703125 47.6875 
z
" id="CMSY10-2"/>
      </defs>
      <use transform="scale(0.996264)" xlink:href="#CMSY10-2"/>
      <use transform="translate(77.487468 0)scale(0.996264)" xlink:href="#CMR17-49"/>
      <use transform="translate(123.177945 0)scale(0.996264)" xlink:href="#CMR17-48"/>
      <use transform="translate(168.868422 36.153639)scale(0.697382)" xlink:href="#CMSY10-0"/>
      <use transform="translate(223.109415 36.153639)scale(0.697382)" xlink:href="#CMR17-54"/>
      <use transform="translate(255.092597 36.153639)scale(0.697382)" xlink:href="#CMR17-52"/>
     </g>
    </g>
   </g>
   <g id="line2d_33">
    <path clip-path="url(#p9d17108941)" d="M 84.490323 404.05457 
L 702.72 404.05457 
" style="fill:none;stroke:#000000;stroke-linecap:square;stroke-width:2;"/>
   </g>
   <g id="line2d_34">
    <path clip-path="url(#p9d17108941)" d="M 112.591672 436.423167 
L 121.512735 379.304087 
L 130.433799 403.510339 
L 139.354862 416.992172 
L 148.275925 405.722005 
L 157.196988 414.435017 
L 166.118051 388.013177 
L 175.039114 424.088626 
L 183.960178 389.208478 
L 192.881241 400.083439 
L 201.802304 382.085894 
L 210.723367 380.977729 
L 219.64443 412.364484 
L 228.565493 422.396696 
L 237.486556 407.864008 
L 246.40762 414.063402 
L 255.328683 411.35932 
L 264.249746 401.233468 
L 273.170809 424.187244 
L 282.091872 423.958895 
L 291.012935 401.403069 
L 299.933999 398.403158 
L 308.855062 384.289512 
L 317.776125 417.657839 
L 326.697188 364.768883 
L 335.618251 405.127243 
L 344.539314 395.361621 
L 353.460377 396.837344 
L 362.381441 398.52593 
L 371.302504 404.972969 
L 380.223567 409.399894 
L 389.14463 358.971042 
L 398.065693 404.68538 
L 406.986756 399.341223 
L 415.90782 403.637217 
L 424.828883 378.603478 
L 433.749946 431.334121 
L 442.671009 375.467781 
L 451.592072 393.999079 
L 460.513135 395.227634 
L 469.434198 412.110145 
L 478.355262 385.467225 
L 487.276325 399.173616 
L 496.197388 423.126388 
L 505.118451 392.219386 
L 514.039514 398.07489 
L 522.960577 368.111114 
L 531.881641 421.797695 
L 540.802704 389.402604 
L 549.723767 399.135486 
L 558.64483 369.505216 
L 567.565893 417.320452 
L 576.486956 390.553394 
L 585.40802 372.123759 
L 594.329083 427.670578 
L 603.250146 403.748633 
L 612.171209 403.649498 
L 621.092272 374.727719 
L 630.013335 394.402353 
L 638.934398 402.501741 
L 647.855462 380.472094 
L 656.776525 428.863654 
L 665.697588 384.174213 
L 674.618651 417.01568 
" style="fill:none;stroke:#0000ff;stroke-linecap:square;stroke-width:2;"/>
    <g clip-path="url(#p9d17108941)">
     <use style="fill:#0000ff;stroke:#0000ff;" x="112.591672" xlink:href="#m77d6090dee" y="436.423167"/>
     <use style="fill:#0000ff;stroke:#0000ff;" x="121.512735" xlink:href="#m77d6090dee" y="379.304087"/>
     <use style="fill:#0000ff;stroke:#0000ff;" x="130.433799" xlink:href="#m77d6090dee" y="403.510339"/>
     <use style="fill:#0000ff;stroke:#0000ff;" x="139.354862" xlink:href="#m77d6090dee" y="416.992172"/>
     <use style="fill:#0000ff;stroke:#0000ff;" x="148.275925" xlink:href="#m77d6090dee" y="405.722005"/>
     <use style="fill:#0000ff;stroke:#0000ff;" x="157.196988" xlink:href="#m77d6090dee" y="414.435017"/>
     <use style="fill:#0000ff;stroke:#0000ff;" x="166.118051" xlink:href="#m77d6090dee" y="388.013177"/>
     <use style="fill:#0000ff;stroke:#0000ff;" x="175.039114" xlink:href="#m77d6090dee" y="424.088626"/>
     <use style="fill:#0000ff;stroke:#0000ff;" x="183.960178" xlink:href="#m77d6090dee" y="389.208478"/>
     <use style="fill:#0000ff;stroke:#0000ff;" x="192.881241" xlink:href="#m77d6090dee" y="400.083439"/>
     <use style="fill:#0000ff;stroke:#0000ff;" x="201.802304" xlink:href="#m77d6090dee" y="382.085894"/>
     <use style="fill:#0000ff;stroke:#0000ff;" x="210.723367" xlink:href="#m77d6090dee" y="380.977729"/>
     <use style="fill:#0000ff;stroke:#0000ff;" x="219.64443" xlink:href="#m77d6090dee" y="412.364484"/>
     <use style="fill:#0000ff;stroke:#0000ff;" x="228.565493" xlink:href="#m77d6090dee" y="422.396696"/>
     <use style="fill:#0000ff;stroke:#0000ff;" x="237.486556" xlink:href="#m77d6090dee" y="407.864008"/>
     <use style="fill:#0000ff;stroke:#0000ff;" x="246.40762" xlink:href="#m77d6090dee" y="414.063402"/>
     <use style="fill:#0000ff;stroke:#0000ff;" x="255.328683" xlink:href="#m77d6090dee" y="411.35932"/>
     <use style="fill:#0000ff;stroke:#0000ff;" x="264.249746" xlink:href="#m77d6090dee" y="401.233468"/>
     <use style="fill:#0000ff;stroke:#0000ff;" x="273.170809" xlink:href="#m77d6090dee" y="424.187244"/>
     <use style="fill:#0000ff;stroke:#0000ff;" x="282.091872" xlink:href="#m77d6090dee" y="423.958895"/>
     <use style="fill:#0000ff;stroke:#0000ff;" x="291.012935" xlink:href="#m77d6090dee" y="401.403069"/>
     <use style="fill:#0000ff;stroke:#0000ff;" x="299.933999" xlink:href="#m77d6090dee" y="398.403158"/>
     <use style="fill:#0000ff;stroke:#0000ff;" x="308.855062" xlink:href="#m77d6090dee" y="384.289512"/>
     <use style="fill:#0000ff;stroke:#0000ff;" x="317.776125" xlink:href="#m77d6090dee" y="417.657839"/>
     <use style="fill:#0000ff;stroke:#0000ff;" x="326.697188" xlink:href="#m77d6090dee" y="364.768883"/>
     <use style="fill:#0000ff;stroke:#0000ff;" x="335.618251" xlink:href="#m77d6090dee" y="405.127243"/>
     <use style="fill:#0000ff;stroke:#0000ff;" x="344.539314" xlink:href="#m77d6090dee" y="395.361621"/>
     <use style="fill:#0000ff;stroke:#0000ff;" x="353.460377" xlink:href="#m77d6090dee" y="396.837344"/>
     <use style="fill:#0000ff;stroke:#0000ff;" x="362.381441" xlink:href="#m77d6090dee" y="398.52593"/>
     <use style="fill:#0000ff;stroke:#0000ff;" x="371.302504" xlink:href="#m77d6090dee" y="404.972969"/>
     <use style="fill:#0000ff;stroke:#0000ff;" x="380.223567" xlink:href="#m77d6090dee" y="409.399894"/>
     <use style="fill:#0000ff;stroke:#0000ff;" x="389.14463" xlink:href="#m77d6090dee" y="358.971042"/>
     <use style="fill:#0000ff;stroke:#0000ff;" x="398.065693" xlink:href="#m77d6090dee" y="404.68538"/>
     <use style="fill:#0000ff;stroke:#0000ff;" x="406.986756" xlink:href="#m77d6090dee" y="399.341223"/>
     <use style="fill:#0000ff;stroke:#0000ff;" x="415.90782" xlink:href="#m77d6090dee" y="403.637217"/>
     <use style="fill:#0000ff;stroke:#0000ff;" x="424.828883" xlink:href="#m77d6090dee" y="378.603478"/>
     <use style="fill:#0000ff;stroke:#0000ff;" x="433.749946" xlink:href="#m77d6090dee" y="431.334121"/>
     <use style="fill:#0000ff;stroke:#0000ff;" x="442.671009" xlink:href="#m77d6090dee" y="375.467781"/>
     <use style="fill:#0000ff;stroke:#0000ff;" x="451.592072" xlink:href="#m77d6090dee" y="393.999079"/>
     <use style="fill:#0000ff;stroke:#0000ff;" x="460.513135" xlink:href="#m77d6090dee" y="395.227634"/>
     <use style="fill:#0000ff;stroke:#0000ff;" x="469.434198" xlink:href="#m77d6090dee" y="412.110145"/>
     <use style="fill:#0000ff;stroke:#0000ff;" x="478.355262" xlink:href="#m77d6090dee" y="385.467225"/>
     <use style="fill:#0000ff;stroke:#0000ff;" x="487.276325" xlink:href="#m77d6090dee" y="399.173616"/>
     <use style="fill:#0000ff;stroke:#0000ff;" x="496.197388" xlink:href="#m77d6090dee" y="423.126388"/>
     <use style="fill:#0000ff;stroke:#0000ff;" x="505.118451" xlink:href="#m77d6090dee" y="392.219386"/>
     <use style="fill:#0000ff;stroke:#0000ff;" x="514.039514" xlink:href="#m77d6090dee" y="398.07489"/>
     <use style="fill:#0000ff;stroke:#0000ff;" x="522.960577" xlink:href="#m77d6090dee" y="368.111114"/>
     <use style="fill:#0000ff;stroke:#0000ff;" x="531.881641" xlink:href="#m77d6090dee" y="421.797695"/>
     <use style="fill:#0000ff;stroke:#0000ff;" x="540.802704" xlink:href="#m77d6090dee" y="389.402604"/>
     <use style="fill:#0000ff;stroke:#0000ff;" x="549.723767" xlink:href="#m77d6090dee" y="399.135486"/>
     <use style="fill:#0000ff;stroke:#0000ff;" x="558.64483" xlink:href="#m77d6090dee" y="369.505216"/>
     <use style="fill:#0000ff;stroke:#0000ff;" x="567.565893" xlink:href="#m77d6090dee" y="417.320452"/>
     <use style="fill:#0000ff;stroke:#0000ff;" x="576.486956" xlink:href="#m77d6090dee" y="390.553394"/>
     <use style="fill:#0000ff;stroke:#0000ff;" x="585.40802" xlink:href="#m77d6090dee" y="372.123759"/>
     <use style="fill:#0000ff;stroke:#0000ff;" x="594.329083" xlink:href="#m77d6090dee" y="427.670578"/>
     <use style="fill:#0000ff;stroke:#0000ff;" x="603.250146" xlink:href="#m77d6090dee" y="403.748633"/>
     <use style="fill:#0000ff;stroke:#0000ff;" x="612.171209" xlink:href="#m77d6090dee" y="403.649498"/>
     <use style="fill:#0000ff;stroke:#0000ff;" x="621.092272" xlink:href="#m77d6090dee" y="374.727719"/>
     <use style="fill:#0000ff;stroke:#0000ff;" x="630.013335" xlink:href="#m77d6090dee" y="394.402353"/>
     <use style="fill:#0000ff;stroke:#0000ff;" x="638.934398" xlink:href="#m77d6090dee" y="402.501741"/>
     <use style="fill:#0000ff;stroke:#0000ff;" x="647.855462" xlink:href="#m77d6090dee" y="380.472094"/>
     <use style="fill:#0000ff;stroke:#0000ff;" x="656.776525" xlink:href="#m77d6090dee" y="428.863654"/>
     <use style="fill:#0000ff;stroke:#0000ff;" x="665.697588" xlink:href="#m77d6090dee" y="384.174213"/>
     <use style="fill:#0000ff;stroke:#0000ff;" x="674.618651" xlink:href="#m77d6090dee" y="417.01568"/>
    </g>
   </g>
   <g id="line2d_35">
    <path clip-path="url(#p9d17108941)" d="M 121.512735 379.304087 
" style="fill:none;stroke:#ff0000;stroke-linecap:square;stroke-width:2;"/>
    <g clip-path="url(#p9d17108941)">
     <use style="fill:#ff0000;stroke:#ff0000;" x="121.512735" xlink:href="#m5f7d37abda" y="379.304087"/>
    </g>
   </g>
   <g id="patch_13">
    <path d="M 84.490323 440.295773 
L 84.490323 355.098436 
" style="fill:none;stroke:#000000;stroke-linecap:square;stroke-linejoin:miter;stroke-width:0.8;"/>
   </g>
   <g id="patch_14">
    <path d="M 702.72 440.295773 
L 702.72 355.098436 
" style="fill:none;stroke:#000000;stroke-linecap:square;stroke-linejoin:miter;stroke-width:0.8;"/>
   </g>
   <g id="patch_15">
    <path d="M 84.490323 440.295773 
L 702.72 440.295773 
" style="fill:none;stroke:#000000;stroke-linecap:square;stroke-linejoin:miter;stroke-width:0.8;"/>
   </g>
   <g id="patch_16">
    <path d="M 84.490323 355.098436 
L 702.72 355.098436 
" style="fill:none;stroke:#000000;stroke-linecap:square;stroke-linejoin:miter;stroke-width:0.8;"/>
   </g>
  </g>
  <g id="text_25">
   <!-- L32 beta11p028 kappa0p1554 Buchoff bary 3u1d com1 Spin0 -->
   <g transform="translate(126.003334 23.363515)scale(0.192 -0.192)">
    <defs>
     <path d="M 54.203125 25.234375 
L 52.40625 25.234375 
C 51.59375 15.359375 50.296875 2.59375 33.203125 2.59375 
L 23.90625 2.59375 
C 19.90625 2.59375 19.703125 3.078125 19.703125 6.46875 
L 19.703125 60.90625 
C 19.703125 64.515625 19.90625 65.5 27.5 65.5 
L 29.703125 65.5 
L 29.703125 68 
C 25.59375 68 20.796875 68 16.703125 68 
C 13.59375 68 8 68 5.09375 68 
L 5.09375 65.5 
C 12 65.5 13.09375 65.5 13.09375 61.015625 
L 13.09375 7.0625 
C 13.09375 2.59375 12 2.59375 5.09375 2.59375 
L 5.09375 0 
L 51.796875 0 
z
" id="CMR17-76"/>
     <path d="M 15 68.6875 
L 3.09375 67.59375 
L 3.09375 65 
C 9 65 9.90625 64.40625 9.90625 59.640625 
L 9.90625 -0.203125 
L 11.703125 -0.203125 
L 14.59375 6.890625 
C 17.5 2.203125 21.796875 -1 27.59375 -1 
C 37.59375 -1 47.703125 7.8125 47.703125 21.40625 
C 47.703125 34.1875 38.703125 43.59375 28.59375 43.59375 
C 22.40625 43.59375 18 40.296875 15 36.40625 
z
M 15.203125 31.3125 
C 15.203125 33.09375 15.203125 33.40625 16.59375 35.5 
C 20.5 41.515625 26.09375 42 28 42 
C 31 42 41.296875 40.390625 41.296875 21.5 
C 41.296875 1.6875 29.5 0.59375 27.09375 0.59375 
C 24 0.59375 19.5 1.78125 16.296875 7.59375 
C 15.203125 9.5 15.203125 9.703125 15.203125 11.484375 
z
" id="CMR17-98"/>
     <path d="M 38.09375 23 
C 38.5 23.40625 38.5 23.609375 38.5 24.625 
C 38.5 34.96875 33.09375 44 21.703125 44 
C 11.09375 44 2.703125 33.890625 2.703125 21.609375 
C 2.703125 8.609375 12.203125 -1 22.796875 -1 
C 34 -1 38.40625 9.484375 38.40625 11.5625 
C 38.40625 12.25 37.796875 12.25 37.59375 12.25 
C 36.90625 12.25 36.796875 12.046875 36.40625 10.875 
C 34.203125 4.140625 28.703125 0.796875 23.5 0.796875 
C 19.203125 0.796875 14.90625 3.171875 12.203125 7.5 
C 9.09375 12.546875 9.09375 18.375 9.09375 23 
z
M 9.203125 24.5 
C 9.90625 39.140625 17.59375 42.40625 21.59375 42.40625 
C 28.40625 42.40625 33 35.890625 33.09375 24.5 
z
" id="CMR17-101"/>
     <path d="M 36 25.828125 
C 36 32.375 36 35.84375 31.796875 39.734375 
C 28.09375 43 23.796875 44 20.40625 44 
C 12.5 44 6.796875 37.609375 6.796875 30.796875 
C 6.796875 27 9.796875 27 10.40625 27 
C 11.703125 27 14 27.78125 14 30.53125 
C 14 33 12.09375 34.078125 10.40625 34.078125 
C 10 34.078125 9.5 33.96875 9.203125 33.875 
C 11.296875 40.5 16.703125 42.40625 20.203125 42.40625 
C 25.203125 42.40625 30.703125 37.953125 30.703125 29.453125 
L 30.703125 25 
C 24.796875 25 17.703125 24.203125 12.09375 21.203125 
C 5.796875 17.703125 4 12.703125 4 8.90625 
C 4 1.203125 13 -1 18.296875 -1 
C 23.796875 -1 28.90625 2.171875 31.09375 7.984375 
C 31.296875 3.640625 34.09375 -0.28125 38.5 -0.28125 
C 40.59375 -0.28125 45.90625 1.09375 45.90625 8.859375 
L 45.90625 14.375 
L 44.09375 14.375 
L 44.09375 8.78125 
C 44.09375 2.78125 41.40625 2 40.09375 2 
C 36 2 36 7.15625 36 11.53125 
z
M 30.703125 13.59375 
C 30.703125 4.953125 24.5 0.59375 19 0.59375 
C 14 0.59375 10.09375 4.296875 10.09375 8.90625 
C 10.09375 11.890625 11.40625 17.1875 17.203125 20.390625 
C 22 23.09375 27.5 23.5 30.703125 23.5 
z
" id="CMR17-97"/>
     <path d="M 27.203125 35.375 
C 33.5 38.546875 39.90625 43.328125 39.90625 50.984375 
C 39.90625 60.015625 31.09375 65.296875 23 65.296875 
C 13.90625 65.296875 5.90625 58.734375 5.90625 49.6875 
C 5.90625 47.203125 6.5 42.921875 10.40625 39.140625 
C 11.40625 38.15625 15.59375 35.171875 18.296875 33.28125 
C 13.796875 30.984375 3.296875 25.53125 3.296875 14.59375 
C 3.296875 4.359375 13.09375 -2 22.796875 -2 
C 33.5 -2 42.5 5.65625 42.5 15.78125 
C 42.5 24.84375 36.40625 29.015625 32.40625 31.703125 
z
M 14.09375 44.09375 
C 13.296875 44.59375 9.296875 47.671875 9.296875 52.359375 
C 9.296875 58.421875 15.59375 63 22.796875 63 
C 30.703125 63 36.5 57.4375 36.5 50.96875 
C 36.5 41.703125 26.09375 36.421875 25.59375 36.421875 
C 25.5 36.421875 25.40625 36.421875 24.59375 37.03125 
z
M 32.5 23.734375 
C 34 22.640625 38.796875 19.375 38.796875 13.296875 
C 38.796875 5.953125 31.40625 0.390625 23 0.390625 
C 13.90625 0.390625 7 6.84375 7 14.6875 
C 7 22.546875 13.09375 29.09375 20 32.1875 
z
" id="CMR17-56"/>
     <path d="M 26.09375 26.140625 
C 26 26.34375 25.5 26.9375 25.5 27.234375 
C 25.5 27.4375 32.59375 33.921875 33.5 34.71875 
C 39.203125 39.5 42.796875 40 45.40625 40 
L 45.40625 42.703125 
C 44.796875 42.703125 44.59375 42.703125 44.5 42.5 
L 39.59375 42.5 
C 36.796875 42.5 32.5 42.5 29.796875 42.703125 
L 29.796875 40.09375 
C 31.203125 39.984375 32.203125 39.1875 32.203125 37.796875 
C 32.203125 35.796875 30.203125 33.90625 30.09375 33.90625 
L 15 20.140625 
L 15 68.6875 
L 3.09375 67.59375 
L 3.09375 65 
C 9 65 9.90625 64.40625 9.90625 59.640625 
L 9.90625 6.65625 
C 9.90625 2.875 9.5 2.390625 3.09375 2.390625 
L 3.09375 -0.203125 
C 5.5 0 9.90625 0 12.40625 0 
C 14.90625 0 19.296875 0 21.703125 -0.203125 
L 21.703125 2.390625 
C 15.296875 2.390625 14.90625 2.78125 14.90625 6.6875 
L 14.90625 17.65625 
L 21.796875 23.9375 
L 31.90625 8.96875 
C 33.09375 7.171875 34.09375 5.765625 34.09375 4.46875 
C 34.09375 2.6875 32.296875 2.390625 31.09375 2.390625 
L 31.09375 -0.203125 
C 33.5 0 37.796875 0 40.296875 0 
C 42.09375 0 45.796875 0 47.5 0 
L 47.5 2.390625 
C 42.796875 2.390625 41.703125 3.28125 38.703125 7.671875 
z
" id="CMR17-107"/>
     <path d="M 5.203125 68 
L 5.203125 65.40625 
C 12.09375 65.40625 13.203125 65.40625 13.203125 60.9375 
L 13.203125 7.0625 
C 13.203125 2.59375 12.09375 2.59375 5.203125 2.59375 
L 5.203125 0 
L 39.59375 0 
C 52.40625 0 60.703125 9.109375 60.703125 18.1875 
C 60.703125 27.203125 52.5 34.890625 41.796875 34.890625 
C 51.40625 36.8125 58.09375 43.296875 58.09375 51 
C 58.09375 59.40625 49.90625 68 37 68 
z
M 19.5 36 
L 19.5 61.515625 
C 19.5 64.921875 19.703125 65.40625 23.703125 65.40625 
L 36.5 65.40625 
C 46.40625 65.40625 50.796875 57.40625 50.796875 51.203125 
C 50.796875 43.609375 44.703125 36 33.90625 36 
z
M 23.703125 2.59375 
C 19.703125 2.59375 19.5 3.078125 19.5 6.453125 
L 19.5 34.40625 
L 38 34.40625 
C 48.296875 34.40625 53.296875 25.390625 53.296875 18.15625 
C 53.296875 10.921875 47.59375 2.59375 36.703125 2.59375 
z
" id="CMR17-66"/>
     <path d="M 29.40625 42.078125 
L 29.40625 39.5 
C 35.296875 39.5 36.203125 38.890625 36.203125 34.15625 
L 36.203125 16.125 
C 36.203125 7.8125 31.703125 0.59375 24.296875 0.59375 
C 16.09375 0.59375 15.40625 5.4375 15.40625 10.59375 
L 15.40625 43.171875 
L 3.296875 42.078125 
L 3.296875 39.5 
C 7.296875 39.5 10 39.5 10.09375 35.53125 
L 10.09375 16.53125 
C 10.09375 9.890625 10.09375 5.640625 12.703125 2.859375 
C 14 1.578125 16.5 -1 23.703125 -1 
C 32.203125 -1 35.5 5.890625 36.296875 7.90625 
L 36.40625 7.90625 
L 36.40625 -0.984375 
L 48.296875 -0.984375 
L 48.296875 2 
C 42.40625 2 41.5 2.59375 41.5 7.390625 
L 41.5 43.171875 
z
" id="CMR17-117"/>
     <path d="M 34.90625 35 
C 33 35 30.203125 35 30.203125 31.515625 
C 30.203125 28.71875 32.5 27.921875 33.796875 27.921875 
C 34.5 27.921875 37.40625 28.234375 37.40625 31.625 
C 37.40625 38.546875 30.59375 43.796875 22.90625 43.796875 
C 12.296875 43.796875 3.296875 34.03125 3.296875 21.296875 
C 3.296875 8.0625 12.703125 -1 22.90625 -1 
C 35.296875 -1 38.40625 10.578125 38.40625 11.6875 
C 38.40625 12.09375 38.296875 12.390625 37.59375 12.390625 
C 36.90625 12.390625 36.796875 12.296875 36.40625 10.984375 
C 33.796875 2.8125 28.09375 0.796875 23.796875 0.796875 
C 17.40625 0.796875 9.703125 6.671875 9.703125 21.390625 
C 9.703125 36.53125 17.09375 42 23 42 
C 26.90625 42 32.703125 40.203125 34.90625 35 
z
" id="CMR17-99"/>
     <path d="M 41.5 30.203125 
C 41.5 35.296875 40.5 43.59375 28.703125 43.59375 
C 20.5 43.59375 16.5 37 15.296875 33.703125 
L 15.203125 33.703125 
L 15.203125 68.6875 
L 3.296875 67.59375 
L 3.296875 65 
C 9.203125 65 10.09375 64.40625 10.09375 59.640625 
L 10.09375 6.65625 
C 10.09375 2.875 9.703125 2.390625 3.296875 2.390625 
L 3.296875 -0.203125 
C 5.703125 0 10.09375 0 12.703125 0 
C 15.296875 0 19.796875 0 22.203125 -0.203125 
L 22.203125 2.390625 
C 15.796875 2.390625 15.40625 2.78125 15.40625 6.6875 
L 15.40625 25.90625 
C 15.40625 35.109375 21 42 28 42 
C 35.40625 42 36.203125 35.40625 36.203125 30.59375 
L 36.203125 6.6875 
C 36.203125 2.875 35.796875 2.390625 29.40625 2.390625 
L 29.40625 -0.203125 
C 31.796875 0 36.203125 0 38.796875 0 
C 41.40625 0 45.90625 0 48.296875 -0.203125 
L 48.296875 2.390625 
C 41.90625 2.390625 41.5 2.78125 41.5 6.6875 
z
" id="CMR17-104"/>
     <path d="M 39.90625 40 
L 51.296875 40 
L 51.296875 42.578125 
L 39.703125 42.578125 
L 39.703125 54.59375 
C 39.703125 62.84375 43.90625 68 48.203125 68 
C 49.5 68 51 67.609375 52 66.90625 
C 51.203125 66.703125 49.09375 66.015625 49.09375 63.546875 
C 49.09375 60.953125 51.09375 60.15625 52.5 60.15625 
C 53.90625 60.15625 55.90625 60.953125 55.90625 63.546875 
C 55.90625 67.3125 52.296875 69.59375 48.296875 69.59375 
C 44.40625 69.59375 41.203125 67.703125 38.703125 65.328125 
C 36.40625 68.59375 32.59375 69.59375 28.703125 69.59375 
C 20.90625 69.59375 9.90625 65.125 9.90625 54.203125 
L 9.90625 42.578125 
L 1.90625 42.578125 
L 1.90625 40 
L 9.90625 40 
L 9.90625 6.671875 
C 9.90625 2.875 9.5 2.390625 3.09375 2.390625 
L 3.09375 -0.203125 
C 5.5 0 9.90625 0 12.40625 0 
C 15 0 19.40625 0 21.796875 -0.203125 
L 21.796875 2.390625 
C 15.40625 2.390625 15 2.78125 15 6.671875 
L 15 40 
L 34.796875 40 
L 34.796875 6.671875 
C 34.796875 2.875 34.40625 2.390625 28 2.390625 
L 28 -0.203125 
C 30.40625 0 35 0 37.59375 0 
C 40.5 0 45.59375 0 48.296875 -0.203125 
L 48.296875 2.390625 
C 41.09375 2.390625 39.90625 2.390625 39.90625 6.859375 
z
M 14.796875 42.578125 
L 14.796875 54.203125 
C 14.796875 63.234375 21.796875 68 28.5 68 
C 30 68 33.90625 67.6875 36.296875 65.421875 
C 34.5 65.421875 32.796875 64.625 32.796875 62.140625 
C 32.796875 59.5625 35.09375 58.859375 35.296875 58.859375 
C 34.796875 57.0625 34.796875 55.09375 34.796875 54.390625 
L 34.796875 42.578125 
z
" id="CMR17-11"/>
     <path d="M 15 23.390625 
C 15 33 19.09375 42 26.59375 42 
C 27.296875 42 28 41.90625 28.703125 41.59375 
C 28.703125 41.59375 26.5 40.890625 26.5 38.3125 
C 26.5 35.90625 28.40625 34.90625 29.90625 34.90625 
C 31.09375 34.90625 33.296875 35.609375 33.296875 38.40625 
C 33.296875 41.609375 30.09375 43.59375 26.703125 43.59375 
C 19.09375 43.59375 15.796875 36.203125 14.796875 32.703125 
L 14.703125 32.703125 
L 14.703125 43.59375 
L 3.09375 42.5 
L 3.09375 39.90625 
C 9 39.90625 9.90625 39.296875 9.90625 34.5 
L 9.90625 6.6875 
C 9.90625 2.875 9.5 2.390625 3.09375 2.390625 
L 3.09375 -0.203125 
C 5.5 0 10.09375 0 12.703125 0 
C 15.59375 0 20.703125 0 23.40625 -0.203125 
L 23.40625 2.390625 
C 16.203125 2.390625 15 2.390625 15 6.875 
z
" id="CMR17-114"/>
     <path d="M 39 34.328125 
C 41.5 40.40625 46 40.40625 47.40625 40.40625 
L 47.40625 43 
C 45.5 43 43 43 41.09375 43 
C 39 43 35.703125 43 33.703125 43.09375 
L 33.703125 40.5 
C 37.5 40.203125 37.59375 37.40625 37.59375 36.609375 
C 37.59375 35.625 37.40625 35.125 36.90625 33.921875 
L 26 7.015625 
L 14.09375 36.03125 
C 13.59375 37.21875 13.59375 37.90625 13.59375 38.015625 
C 13.59375 40.203125 15.90625 40.40625 18.296875 40.40625 
L 18.296875 43.09375 
C 15.90625 43 11.59375 43 9.09375 43 
C 6.40625 43 3.203125 43 1 43.09375 
L 1 40.40625 
C 6.40625 40.40625 7 39.90625 8.296875 36.71875 
L 23.203125 0.234375 
C 18.703125 -11.53125 16.09375 -18.40625 9.796875 -18.40625 
C 8.703125 -18.40625 6.203125 -18.109375 4.40625 -16.3125 
C 6.703125 -16.109375 7.703125 -14.71875 7.703125 -13.015625 
C 7.703125 -11.328125 6.5 -9.828125 4.5 -9.828125 
C 2.296875 -9.828125 1.203125 -11.328125 1.203125 -13.125 
C 1.203125 -17.109375 5.296875 -20 9.796875 -20 
C 15.59375 -20 19.203125 -14.40625 21.203125 -9.4375 
z
" id="CMR17-121"/>
     <path d="M 67.59375 30.203125 
C 67.59375 35.1875 66.703125 43.59375 54.796875 43.59375 
C 48 43.59375 43.296875 39 41.5 33.609375 
L 41.40625 33.609375 
C 40.203125 41.8125 34.296875 43.59375 28.703125 43.59375 
C 20.796875 43.59375 16.703125 37.5 15.203125 33.5 
L 15.09375 33.5 
L 15.09375 43.59375 
L 3.296875 42.5 
L 3.296875 39.90625 
C 9.203125 39.90625 10.09375 39.296875 10.09375 34.5 
L 10.09375 6.6875 
C 10.09375 2.875 9.703125 2.390625 3.296875 2.390625 
L 3.296875 -0.203125 
C 5.703125 0 10.09375 0 12.703125 0 
C 15.296875 0 19.796875 0 22.203125 -0.203125 
L 22.203125 2.390625 
C 15.796875 2.390625 15.40625 2.78125 15.40625 6.6875 
L 15.40625 25.90625 
C 15.40625 35.109375 21 42 28 42 
C 35.40625 42 36.203125 35.40625 36.203125 30.59375 
L 36.203125 6.6875 
C 36.203125 2.875 35.796875 2.390625 29.40625 2.390625 
L 29.40625 -0.203125 
C 31.796875 0 36.203125 0 38.796875 0 
C 41.40625 0 45.90625 0 48.296875 -0.203125 
L 48.296875 2.390625 
C 41.90625 2.390625 41.5 2.78125 41.5 6.6875 
L 41.5 25.90625 
C 41.5 35.109375 47.09375 42 54.09375 42 
C 61.5 42 62.296875 35.40625 62.296875 30.59375 
L 62.296875 6.6875 
C 62.296875 2.875 61.90625 2.390625 55.5 2.390625 
L 55.5 -0.203125 
C 57.90625 0 62.296875 0 64.90625 0 
C 67.5 0 72 0 74.40625 -0.203125 
L 74.40625 2.390625 
C 68 2.390625 67.59375 2.78125 67.59375 6.6875 
z
" id="CMR17-109"/>
     <path d="M 43.796875 67.03125 
C 43.796875 68.8125 43.703125 68.921875 43.09375 68.921875 
C 42.5 68.921875 42.296875 68.515625 41.90625 67.625 
L 38.90625 61.046875 
C 35.09375 66.515625 29.296875 69 23 69 
C 12.796875 69 4.59375 60.953125 4.59375 50.828125 
C 4.59375 47.75 5.296875 43.375 8.703125 39.21875 
C 12.40625 34.65625 15.90625 33.859375 23.90625 31.765625 
C 26.90625 30.96875 31.90625 29.671875 32.90625 29.28125 
C 38.59375 26.90625 41.59375 20.953125 41.59375 15.390625 
C 41.59375 8.234375 36.5 0.59375 27.796875 0.59375 
C 17.09375 0.59375 7.09375 6.546875 6.40625 20.484375 
C 6.296875 22.078125 6.203125 22.171875 5.5 22.171875 
C 4.703125 22.171875 4.59375 22.078125 4.59375 20.078125 
L 4.59375 -0.015625 
C 4.59375 -1.796875 4.703125 -1.90625 5.296875 -1.90625 
C 6 -1.90625 6.203125 -1.40625 7.59375 1.6875 
C 7.703125 1.984375 7.703125 2.1875 9.59375 5.953125 
C 14.59375 -0.609375 23 -2 27.796875 -2 
C 38.703125 -2 46.40625 7.046875 46.40625 17.5625 
C 46.40625 22.71875 44.5 26.6875 43.40625 28.484375 
C 39.203125 34.84375 34.703125 36.03125 29.90625 37.21875 
C 29.203125 37.53125 29 37.53125 23.40625 38.90625 
C 18 40.296875 15.703125 41 13.203125 43.6875 
C 10.40625 46.75 9.40625 49.9375 9.40625 53.109375 
C 9.40625 59.5625 14.59375 66.609375 23.09375 66.609375 
C 33.703125 66.609375 40.296875 59.15625 41.796875 46.765625 
C 42.09375 44.96875 42.203125 44.875 42.90625 44.875 
C 43.796875 44.875 43.796875 45.171875 43.796875 46.859375 
z
" id="CMR17-83"/>
    </defs>
    <use transform="scale(0.996264)" xlink:href="#CMR17-76"/>
    <use transform="translate(57.381408 0)scale(0.996264)" xlink:href="#CMR17-51"/>
    <use transform="translate(103.071885 0)scale(0.996264)" xlink:href="#CMR17-50"/>
    <use transform="translate(178.838328 0)scale(0.996264)" xlink:href="#CMR17-98"/>
    <use transform="translate(232.336137 0)scale(0.996264)" xlink:href="#CMR17-101"/>
    <use transform="translate(272.821797 0)scale(0.996264)" xlink:href="#CMR17-116"/>
    <use transform="translate(308.102565 0)scale(0.996264)" xlink:href="#CMR17-97"/>
    <use transform="translate(353.793042 0)scale(0.996264)" xlink:href="#CMR17-49"/>
    <use transform="translate(399.483519 0)scale(0.996264)" xlink:href="#CMR17-49"/>
    <use transform="translate(445.173997 0)scale(0.996264)" xlink:href="#CMR17-112"/>
    <use transform="translate(496.069366 0)scale(0.996264)" xlink:href="#CMR17-48"/>
    <use transform="translate(541.759843 0)scale(0.996264)" xlink:href="#CMR17-50"/>
    <use transform="translate(587.450321 0)scale(0.996264)" xlink:href="#CMR17-56"/>
    <use transform="translate(663.216764 0)scale(0.996264)" xlink:href="#CMR17-107"/>
    <use transform="translate(706.304863 0)scale(0.996264)" xlink:href="#CMR17-97"/>
    <use transform="translate(751.99534 0)scale(0.996264)" xlink:href="#CMR17-112"/>
    <use transform="translate(802.89071 0)scale(0.996264)" xlink:href="#CMR17-112"/>
    <use transform="translate(853.78608 0)scale(0.996264)" xlink:href="#CMR17-97"/>
    <use transform="translate(899.476557 0)scale(0.996264)" xlink:href="#CMR17-48"/>
    <use transform="translate(945.167034 0)scale(0.996264)" xlink:href="#CMR17-112"/>
    <use transform="translate(996.062404 0)scale(0.996264)" xlink:href="#CMR17-49"/>
    <use transform="translate(1041.752881 0)scale(0.996264)" xlink:href="#CMR17-53"/>
    <use transform="translate(1087.443358 0)scale(0.996264)" xlink:href="#CMR17-53"/>
    <use transform="translate(1133.133835 0)scale(0.996264)" xlink:href="#CMR17-52"/>
    <use transform="translate(1208.900279 0)scale(0.996264)" xlink:href="#CMR17-66"/>
    <use transform="translate(1274.089033 0)scale(0.996264)" xlink:href="#CMR17-117"/>
    <use transform="translate(1324.984403 0)scale(0.996264)" xlink:href="#CMR17-99"/>
    <use transform="translate(1362.86761 0)scale(0.996264)" xlink:href="#CMR17-104"/>
    <use transform="translate(1413.762979 0)scale(0.996264)" xlink:href="#CMR17-111"/>
    <use transform="translate(1459.453456 0)scale(0.996264)" xlink:href="#CMR17-11"/>
    <use transform="translate(1541.8741 0)scale(0.996264)" xlink:href="#CMR17-98"/>
    <use transform="translate(1592.76947 0)scale(0.996264)" xlink:href="#CMR17-97"/>
    <use transform="translate(1638.459947 0)scale(0.996264)" xlink:href="#CMR17-114"/>
    <use transform="translate(1673.740715 0)scale(0.996264)" xlink:href="#CMR17-121"/>
    <use transform="translate(1752.109597 0)scale(0.996264)" xlink:href="#CMR17-51"/>
    <use transform="translate(1797.800074 0)scale(0.996264)" xlink:href="#CMR17-117"/>
    <use transform="translate(1848.695444 0)scale(0.996264)" xlink:href="#CMR17-49"/>
    <use transform="translate(1894.385921 0)scale(0.996264)" xlink:href="#CMR17-100"/>
    <use transform="translate(1975.357257 0)scale(0.996264)" xlink:href="#CMR17-99"/>
    <use transform="translate(2015.842918 0)scale(0.996264)" xlink:href="#CMR17-111"/>
    <use transform="translate(2061.533395 0)scale(0.996264)" xlink:href="#CMR17-109"/>
    <use transform="translate(2138.452985 0)scale(0.996264)" xlink:href="#CMR17-49"/>
    <use transform="translate(2214.219428 0)scale(0.996264)" xlink:href="#CMR17-83"/>
    <use transform="translate(2265.114798 0)scale(0.996264)" xlink:href="#CMR17-112"/>
    <use transform="translate(2316.010168 0)scale(0.996264)" xlink:href="#CMR17-105"/>
    <use transform="translate(2340.881226 0)scale(0.996264)" xlink:href="#CMR17-110"/>
    <use transform="translate(2391.776596 0)scale(0.996264)" xlink:href="#CMR17-48"/>
   </g>
   <!--  $t = 16$ -->
   <g transform="translate(335.647695 43.024339)scale(0.192 -0.192)">
    <defs>
     <path d="M 20.09375 40.09375 
L 29.296875 40.09375 
C 31.203125 40.09375 32.203125 40.09375 32.203125 41.890625 
C 32.203125 43 31.59375 43 29.59375 43 
L 20.796875 43 
L 24.5 57.6875 
C 24.90625 59.078125 24.90625 59.28125 24.90625 60 
C 24.90625 61.609375 23.59375 62.5 22.296875 62.5 
C 21.5 62.5 19.203125 62.203125 18.40625 58.984375 
L 14.5 43 
L 5.09375 43 
C 3.09375 43 2.203125 43 2.203125 41.09375 
C 2.203125 40.09375 2.90625 40.09375 4.796875 40.09375 
L 13.703125 40.09375 
L 7.09375 13.765625 
C 6.296875 10.28125 6 9.28125 6 7.984375 
C 6 3.296875 9.296875 -1 14.90625 -1 
C 25 -1 30.40625 13.5625 30.40625 14.25 
C 30.40625 14.859375 30 15.15625 29.40625 15.15625 
C 29.203125 15.15625 28.796875 15.15625 28.59375 14.75 
C 28.5 14.65625 28.40625 14.546875 27.703125 12.953125 
C 25.59375 7.984375 21 1 15.203125 1 
C 12.203125 1 12 3.5 12 5.6875 
C 12 5.78125 12 7.6875 12.296875 8.875 
z
" id="CMMI12-116"/>
    </defs>
    <use transform="scale(0.996264)" xlink:href="#CMMI12-116"/>
    <use transform="translate(62.900339 0)scale(0.996264)" xlink:href="#CMR17-61"/>
    <use transform="translate(162.289136 0)scale(0.996264)" xlink:href="#CMR17-49"/>
    <use transform="translate(207.979613 0)scale(0.996264)" xlink:href="#CMR17-54"/>
   </g>
  </g>
 </g>
 <defs>
  <clipPath id="pdeb4cc42f3">
   <rect height="85.197337" width="618.229677" x="84.490323" y="71.224945"/>
  </clipPath>
  <clipPath id="p6be45b74d4">
   <rect height="85.197337" width="618.229677" x="84.490323" y="213.16169"/>
  </clipPath>
  <clipPath id="p9d17108941">
   <rect height="85.197337" width="618.229677" x="84.490323" y="355.098436"/>
  </clipPath>
 </defs>
</svg>
