<?xml version="1.0" encoding="utf-8" standalone="no"?>
<!DOCTYPE svg PUBLIC "-//W3C//DTD SVG 1.1//EN"
  "http://www.w3.org/Graphics/SVG/1.1/DTD/svg11.dtd">
<!-- Created with matplotlib (https://matplotlib.org/) -->
<svg height="504pt" version="1.1" viewBox="0 0 720 504" width="720pt" xmlns="http://www.w3.org/2000/svg" xmlns:xlink="http://www.w3.org/1999/xlink">
 <metadata>
  <rdf:RDF xmlns:cc="http://creativecommons.org/ns#" xmlns:dc="http://purl.org/dc/elements/1.1/" xmlns:rdf="http://www.w3.org/1999/02/22-rdf-syntax-ns#">
   <cc:Work>
    <dc:type rdf:resource="http://purl.org/dc/dcmitype/StillImage"/>
    <dc:date>2023-01-24T17:16:02.012769</dc:date>
    <dc:format>image/svg+xml</dc:format>
    <dc:creator>
     <cc:Agent>
      <dc:title>Matplotlib v3.3.4, https://matplotlib.org/</dc:title>
     </cc:Agent>
    </dc:creator>
   </cc:Work>
  </rdf:RDF>
 </metadata>
 <defs>
  <style type="text/css">*{stroke-linecap:butt;stroke-linejoin:round;}</style>
 </defs>
 <g id="figure_1">
  <g id="patch_1">
   <path d="M 0 504 
L 720 504 
L 720 0 
L 0 0 
z
" style="fill:#ffffff;"/>
  </g>
  <g id="axes_1">
   <g id="patch_2">
    <path d="M 77.282672 156.422282 
L 702.72 156.422282 
L 702.72 71.224945 
L 77.282672 71.224945 
z
" style="fill:#ffffff;"/>
   </g>
   <g id="matplotlib.axis_1">
    <g id="xtick_1">
     <g id="line2d_1">
      <defs>
       <path d="M 0 0 
L 0 3.5 
" id="mc796658de5" style="stroke:#000000;stroke-width:0.8;"/>
      </defs>
      <g>
       <use style="stroke:#000000;stroke-width:0.8;" x="96.686572" xlink:href="#mc796658de5" y="156.422282"/>
      </g>
     </g>
    </g>
    <g id="xtick_2">
     <g id="line2d_2">
      <g>
       <use style="stroke:#000000;stroke-width:0.8;" x="186.937268" xlink:href="#mc796658de5" y="156.422282"/>
      </g>
     </g>
    </g>
    <g id="xtick_3">
     <g id="line2d_3">
      <g>
       <use style="stroke:#000000;stroke-width:0.8;" x="277.187965" xlink:href="#mc796658de5" y="156.422282"/>
      </g>
     </g>
    </g>
    <g id="xtick_4">
     <g id="line2d_4">
      <g>
       <use style="stroke:#000000;stroke-width:0.8;" x="367.438662" xlink:href="#mc796658de5" y="156.422282"/>
      </g>
     </g>
    </g>
    <g id="xtick_5">
     <g id="line2d_5">
      <g>
       <use style="stroke:#000000;stroke-width:0.8;" x="457.689358" xlink:href="#mc796658de5" y="156.422282"/>
      </g>
     </g>
    </g>
    <g id="xtick_6">
     <g id="line2d_6">
      <g>
       <use style="stroke:#000000;stroke-width:0.8;" x="547.940055" xlink:href="#mc796658de5" y="156.422282"/>
      </g>
     </g>
    </g>
    <g id="xtick_7">
     <g id="line2d_7">
      <g>
       <use style="stroke:#000000;stroke-width:0.8;" x="638.190752" xlink:href="#mc796658de5" y="156.422282"/>
      </g>
     </g>
    </g>
    <g id="text_1">
     <!-- $W$ -->
     <g transform="translate(378.94983 177.026687)scale(0.24 -0.24)">
      <defs>
       <path d="M 90.296875 56.96875 
C 92.59375 60.84375 94.796875 64.515625 100.796875 65.125 
C 101.703125 65.21875 102.59375 65.3125 102.59375 66.90625 
C 102.59375 68 101.703125 68 101.40625 68 
C 101.203125 68 100.5 68 93.90625 68 
C 90.90625 68 87.796875 68 84.90625 68 
C 84.296875 68 83.09375 68 83.09375 66.03125 
C 83.09375 65.09375 83.90625 65 84.5 65 
C 86.5 65 89.703125 64.40625 89.703125 61.328125 
C 89.703125 60.03125 89.296875 59.328125 88.296875 57.65625 
L 61 10.125 
L 57.40625 61.921875 
C 57.40625 63.109375 58.5 65 64.09375 65 
C 65.40625 65 66.40625 65 66.40625 66.96875 
C 66.40625 68 65.40625 68 64.90625 68 
C 61.40625 68 57.703125 68 54.09375 68 
L 48.90625 68 
C 47.40625 68 45.59375 68 44.09375 68 
C 43.5 68 42.296875 68 42.296875 66.03125 
C 42.296875 65 43 65 44.703125 65 
C 49.296875 65 49.296875 64.890625 49.703125 58.9375 
L 50 55.359375 
L 24.09375 10.125 
L 20.40625 61.421875 
C 20.40625 62.53125 20.40625 65 27.203125 65 
C 28.296875 65 29.40625 65 29.40625 66.859375 
C 29.40625 68 28.5 68 27.90625 68 
C 24.40625 68 20.703125 68 17.09375 68 
L 11.90625 68 
C 10.40625 68 8.59375 68 7.09375 68 
C 6.5 68 5.296875 68 5.296875 66.03125 
C 5.296875 65 6.09375 65 7.5 65 
C 12.203125 65 12.296875 64.390625 12.5 61.21875 
L 16.90625 0.28125 
C 17 -1.40625 17.09375 -2 18.296875 -2 
C 19.296875 -2 19.5 -1.609375 20.40625 -0.109375 
L 50.203125 51.671875 
L 53.90625 0.28125 
C 54 -1.40625 54.09375 -2 55.296875 -2 
C 56.296875 -2 56.59375 -1.5 57.40625 -0.109375 
z
" id="CMMI12-87"/>
      </defs>
      <use transform="scale(0.996264)" xlink:href="#CMMI12-87"/>
     </g>
    </g>
   </g>
   <g id="matplotlib.axis_2">
    <g id="ytick_1">
     <g id="line2d_8">
      <defs>
       <path d="M 0 0 
L -3.5 0 
" id="m1ad9c4416b" style="stroke:#000000;stroke-width:0.8;"/>
      </defs>
      <g>
       <use style="stroke:#000000;stroke-width:0.8;" x="77.282672" xlink:href="#m1ad9c4416b" y="146.059832"/>
      </g>
     </g>
     <g id="text_2">
      <!-- $\mathdefault{0.0}$ -->
      <g transform="translate(50.33915 151.594626)scale(0.16 -0.16)">
       <defs>
        <path d="M 42 31.640625 
C 42 37.75 41.90625 48.125 37.703125 56.109375 
C 34 63.109375 28.09375 65.59375 22.90625 65.59375 
C 18.09375 65.59375 12 63.40625 8.203125 56.203125 
C 4.203125 48.71875 3.796875 39.4375 3.796875 31.640625 
C 3.796875 25.953125 3.90625 17.28125 7 9.671875 
C 11.296875 -0.609375 19 -2 22.90625 -2 
C 27.5 -2 34.5 -0.109375 38.59375 9.375 
C 41.59375 16.28125 42 24.359375 42 31.640625 
z
M 22.90625 -0.40625 
C 16.5 -0.40625 12.703125 5.078125 11.296875 12.6875 
C 10.203125 18.5625 10.203125 27.15625 10.203125 32.75 
C 10.203125 40.4375 10.203125 46.828125 11.5 52.921875 
C 13.40625 61.390625 19 64 22.90625 64 
C 27 64 32.296875 61.296875 34.203125 53.125 
C 35.5 47.4375 35.59375 40.734375 35.59375 32.75 
C 35.59375 26.25 35.59375 18.265625 34.40625 12.375 
C 32.296875 1.484375 26.40625 -0.40625 22.90625 -0.40625 
z
" id="CMR17-48"/>
        <path d="M 18.40625 4.796875 
C 18.40625 7.6875 16 9.671875 13.59375 9.671875 
C 10.703125 9.671875 8.703125 7.28125 8.703125 4.890625 
C 8.703125 2 11.09375 0 13.5 0 
C 16.40625 0 18.40625 2.390625 18.40625 4.796875 
z
" id="CMMI12-58"/>
       </defs>
       <use transform="scale(0.996264)" xlink:href="#CMR17-48"/>
       <use transform="translate(45.690477 0)scale(0.996264)" xlink:href="#CMMI12-58"/>
       <use transform="translate(72.787654 0)scale(0.996264)" xlink:href="#CMR17-48"/>
      </g>
     </g>
    </g>
    <g id="ytick_2">
     <g id="line2d_9">
      <g>
       <use style="stroke:#000000;stroke-width:0.8;" x="77.282672" xlink:href="#m1ad9c4416b" y="87.053597"/>
      </g>
     </g>
     <g id="text_3">
      <!-- $\mathdefault{0.5}$ -->
      <g transform="translate(50.33915 92.588392)scale(0.16 -0.16)">
       <defs>
        <path d="M 11.40625 57.6875 
C 12.40625 57.28125 16.5 56 20.703125 56 
C 30 56 35.09375 61.109375 38 64.0625 
C 38 64.953125 38 65.5 37.40625 65.5 
C 37.296875 65.5 37.09375 65.5 36.296875 65.046875 
C 32.796875 63.40625 28.703125 62.078125 23.703125 62.078125 
C 20.703125 62.078125 16.203125 62.484375 11.296875 64.671875 
C 10.203125 65.171875 10 65.171875 9.90625 65.171875 
C 9.40625 65.171875 9.296875 65.0625 9.296875 63.078125 
L 9.296875 34.421875 
C 9.296875 32.640625 9.296875 32.140625 10.296875 32.140625 
C 10.796875 32.140625 11 32.34375 11.5 33.03125 
C 14.703125 37.515625 19.09375 39.40625 24.09375 39.40625 
C 27.59375 39.40625 35.09375 37.21875 35.09375 20.140625 
C 35.09375 16.953125 35.09375 11.171875 32.09375 6.578125 
C 29.59375 2.484375 25.703125 0.390625 21.40625 0.390625 
C 14.796875 0.390625 8.09375 5 6.296875 12.71875 
C 6.703125 12.609375 7.5 12.421875 7.90625 12.421875 
C 9.203125 12.421875 11.703125 13.125 11.703125 16.21875 
C 11.703125 18.90625 9.796875 20 7.90625 20 
C 5.59375 20 4.09375 18.59375 4.09375 15.796875 
C 4.09375 7.09375 11 -2 21.59375 -2 
C 31.90625 -2 41.703125 6.875 41.703125 19.75 
C 41.703125 31.71875 33.90625 41 24.203125 41 
C 19.09375 41 14.796875 39.109375 11.40625 35.53125 
z
" id="CMR17-53"/>
       </defs>
       <use transform="scale(0.996264)" xlink:href="#CMR17-48"/>
       <use transform="translate(45.690477 0)scale(0.996264)" xlink:href="#CMMI12-58"/>
       <use transform="translate(72.787654 0)scale(0.996264)" xlink:href="#CMR17-53"/>
      </g>
     </g>
    </g>
    <g id="text_4">
     <!-- $\tau_{\mathrm{int}}$ -->
     <g transform="translate(41.688392 128.694719)rotate(-90)scale(0.24 -0.24)">
      <defs>
       <path d="M 28.703125 37.625 
L 45.296875 37.625 
C 46.59375 37.625 49.90625 37.625 49.90625 40.8125 
C 49.90625 43 48 43 46.203125 43 
L 18.703125 43 
C 16.40625 43 13 43 8.40625 38.125 
C 5.796875 35.234375 2.59375 29.953125 2.59375 29.359375 
C 2.59375 28.765625 3.09375 28.5625 3.703125 28.5625 
C 4.40625 28.5625 4.5 28.859375 5 29.453125 
C 10.203125 37.625 15.40625 37.625 17.90625 37.625 
L 26.203125 37.625 
L 15.796875 3.484375 
C 15.296875 1.984375 15.296875 1.78125 15.296875 1.484375 
C 15.296875 0.390625 16 -1 18 -1 
C 21.09375 -1 21.59375 1.6875 21.90625 3.171875 
z
" id="CMMI12-28"/>
       <path d="M 15.5 61.078125 
C 15.5 63.265625 13.703125 65.15625 11.40625 65.15625 
C 9.203125 65.15625 7.296875 63.375 7.296875 61.078125 
C 7.296875 58.890625 9.09375 57 11.40625 57 
C 13.59375 57 15.5 58.796875 15.5 61.078125 
z
M 3.796875 42.28125 
L 3.796875 39.703125 
C 9.40625 39.703125 10.203125 39.09375 10.203125 34.328125 
L 10.203125 6.671875 
C 10.203125 2.875 9.796875 2.390625 3.40625 2.390625 
L 3.40625 -0.203125 
C 5.796875 0 10.09375 0 12.59375 0 
C 15 0 19.09375 0 21.40625 -0.203125 
L 21.40625 2.390625 
C 15.5 2.390625 15.296875 2.984375 15.296875 6.5625 
L 15.296875 43.375 
z
" id="CMR17-105"/>
       <path d="M 41.5 30.203125 
C 41.5 35.296875 40.5 43.59375 28.703125 43.59375 
C 20.796875 43.59375 16.703125 37.5 15.203125 33.5 
L 15.09375 33.5 
L 15.09375 43.59375 
L 3.296875 42.5 
L 3.296875 39.90625 
C 9.203125 39.90625 10.09375 39.296875 10.09375 34.5 
L 10.09375 6.6875 
C 10.09375 2.875 9.703125 2.390625 3.296875 2.390625 
L 3.296875 -0.203125 
C 5.703125 0 10.09375 0 12.703125 0 
C 15.296875 0 19.796875 0 22.203125 -0.203125 
L 22.203125 2.390625 
C 15.796875 2.390625 15.40625 2.78125 15.40625 6.6875 
L 15.40625 25.90625 
C 15.40625 35.109375 21 42 28 42 
C 35.40625 42 36.203125 35.40625 36.203125 30.59375 
L 36.203125 6.6875 
C 36.203125 2.875 35.796875 2.390625 29.40625 2.390625 
L 29.40625 -0.203125 
C 31.796875 0 36.203125 0 38.796875 0 
C 41.40625 0 45.90625 0 48.296875 -0.203125 
L 48.296875 2.390625 
C 41.90625 2.390625 41.5 2.78125 41.5 6.6875 
z
" id="CMR17-110"/>
       <path d="M 15.09375 40 
L 29.09375 40 
L 29.09375 42.578125 
L 15.09375 42.578125 
L 15.09375 61 
L 13.296875 61 
C 13.09375 50.703125 9.59375 41.6875 1.09375 41.6875 
L 1.09375 40 
L 9.796875 40 
L 9.796875 12.046875 
C 9.796875 10.15625 9.796875 -1 21.40625 -1 
C 27.296875 -1 30.703125 4.78125 30.703125 12.140625 
L 30.703125 17.8125 
L 28.90625 17.8125 
L 28.90625 12.234375 
C 28.90625 5.375 26.203125 0.796875 22 0.796875 
C 19.09375 0.796875 15.09375 2.78125 15.09375 11.84375 
z
" id="CMR17-116"/>
      </defs>
      <use transform="scale(0.996264)" xlink:href="#CMMI12-28"/>
      <use transform="translate(42.363841 -14.943915)scale(0.697382)" xlink:href="#CMR17-105"/>
      <use transform="translate(59.7735 -14.943915)scale(0.697382)" xlink:href="#CMR17-110"/>
      <use transform="translate(93.578387 -14.943915)scale(0.697382)" xlink:href="#CMR17-116"/>
     </g>
    </g>
   </g>
   <g id="LineCollection_1">
    <path clip-path="url(#p18962caabd)" d="M 105.711641 100.058883 
L 105.711641 86.638649 
" style="fill:none;stroke:#0000ff;stroke-width:2;"/>
    <path clip-path="url(#p18962caabd)" d="M 114.736711 112.239062 
L 114.736711 97.203547 
" style="fill:none;stroke:#0000ff;stroke-width:2;"/>
    <path clip-path="url(#p18962caabd)" d="M 123.761781 107.962618 
L 123.761781 86.729822 
" style="fill:none;stroke:#0000ff;stroke-width:2;"/>
    <path clip-path="url(#p18962caabd)" d="M 132.78685 107.766436 
L 132.78685 82.217535 
" style="fill:none;stroke:#0000ff;stroke-width:2;"/>
    <path clip-path="url(#p18962caabd)" d="M 141.81192 111.870627 
L 141.81192 85.273216 
" style="fill:none;stroke:#0000ff;stroke-width:2;"/>
    <path clip-path="url(#p18962caabd)" d="M 150.83699 110.940658 
L 150.83699 80.025678 
" style="fill:none;stroke:#0000ff;stroke-width:2;"/>
    <path clip-path="url(#p18962caabd)" d="M 159.862059 121.620146 
L 159.862059 97.26298 
" style="fill:none;stroke:#0000ff;stroke-width:2;"/>
    <path clip-path="url(#p18962caabd)" d="M 168.887129 123.050124 
L 168.887129 97.707168 
" style="fill:none;stroke:#0000ff;stroke-width:2;"/>
    <path clip-path="url(#p18962caabd)" d="M 177.912199 117.682586 
L 177.912199 83.704522 
" style="fill:none;stroke:#0000ff;stroke-width:2;"/>
    <path clip-path="url(#p18962caabd)" d="M 186.937268 119.412169 
L 186.937268 84.657663 
" style="fill:none;stroke:#0000ff;stroke-width:2;"/>
    <path clip-path="url(#p18962caabd)" d="M 195.962338 119.883795 
L 195.962338 82.951734 
" style="fill:none;stroke:#0000ff;stroke-width:2;"/>
    <path clip-path="url(#p18962caabd)" d="M 204.987408 127.342198 
L 204.987408 98.685376 
" style="fill:none;stroke:#0000ff;stroke-width:2;"/>
    <path clip-path="url(#p18962caabd)" d="M 214.012477 124.694836 
L 214.012477 89.714006 
" style="fill:none;stroke:#0000ff;stroke-width:2;"/>
    <path clip-path="url(#p18962caabd)" d="M 223.037547 124.031934 
L 223.037547 85.497098 
" style="fill:none;stroke:#0000ff;stroke-width:2;"/>
    <path clip-path="url(#p18962caabd)" d="M 232.062617 126.331938 
L 232.062617 89.44095 
" style="fill:none;stroke:#0000ff;stroke-width:2;"/>
    <path clip-path="url(#p18962caabd)" d="M 241.087686 131.904707 
L 241.087686 103.576973 
" style="fill:none;stroke:#0000ff;stroke-width:2;"/>
    <path clip-path="url(#p18962caabd)" d="M 250.112756 134.796179 
L 250.112756 110.784935 
" style="fill:none;stroke:#0000ff;stroke-width:2;"/>
    <path clip-path="url(#p18962caabd)" d="M 259.137826 136.572489 
L 259.137826 115.088027 
" style="fill:none;stroke:#0000ff;stroke-width:2;"/>
    <path clip-path="url(#p18962caabd)" d="M 268.162895 134.423919 
L 268.162895 106.585621 
" style="fill:none;stroke:#0000ff;stroke-width:2;"/>
    <path clip-path="url(#p18962caabd)" d="M 277.187965 134.332967 
L 277.187965 104.663896 
" style="fill:none;stroke:#0000ff;stroke-width:2;"/>
    <path clip-path="url(#p18962caabd)" d="M 286.213035 135.402357 
L 286.213035 106.881748 
" style="fill:none;stroke:#0000ff;stroke-width:2;"/>
    <path clip-path="url(#p18962caabd)" d="M 295.238104 136.771992 
L 295.238104 110.494209 
" style="fill:none;stroke:#0000ff;stroke-width:2;"/>
    <path clip-path="url(#p18962caabd)" d="M 304.263174 137.104811 
L 304.263174 110.367463 
" style="fill:none;stroke:#0000ff;stroke-width:2;"/>
    <path clip-path="url(#p18962caabd)" d="M 313.288244 135.665769 
L 313.288244 103.000728 
" style="fill:none;stroke:#0000ff;stroke-width:2;"/>
    <path clip-path="url(#p18962caabd)" d="M 322.313313 139.376052 
L 322.313313 117.145231 
" style="fill:none;stroke:#0000ff;stroke-width:2;"/>
    <path clip-path="url(#p18962caabd)" d="M 331.338383 140.064635 
L 331.338383 119.03997 
" style="fill:none;stroke:#0000ff;stroke-width:2;"/>
    <path clip-path="url(#p18962caabd)" d="M 340.363453 145.008309 
L 340.363453 141.100206 
" style="fill:none;stroke:#0000ff;stroke-width:2;"/>
    <path clip-path="url(#p18962caabd)" d="M 349.388522 142.614768 
L 349.388522 129.170275 
" style="fill:none;stroke:#0000ff;stroke-width:2;"/>
    <path clip-path="url(#p18962caabd)" d="M 358.413592 139.864884 
L 358.413592 114.497745 
" style="fill:none;stroke:#0000ff;stroke-width:2;"/>
    <path clip-path="url(#p18962caabd)" d="M 367.438662 137.738769 
L 367.438662 101.963801 
" style="fill:none;stroke:#0000ff;stroke-width:2;"/>
    <path clip-path="url(#p18962caabd)" d="M 376.463731 136.960258 
L 376.463731 95.809377 
" style="fill:none;stroke:#0000ff;stroke-width:2;"/>
    <path clip-path="url(#p18962caabd)" d="M 385.488801 137.688612 
L 385.488801 97.774849 
" style="fill:none;stroke:#0000ff;stroke-width:2;"/>
    <path clip-path="url(#p18962caabd)" d="M 394.513871 140.801258 
L 394.513871 114.257683 
" style="fill:none;stroke:#0000ff;stroke-width:2;"/>
    <path clip-path="url(#p18962caabd)" d="M 403.53894 140.770607 
L 403.53894 112.627836 
" style="fill:none;stroke:#0000ff;stroke-width:2;"/>
    <path clip-path="url(#p18962caabd)" d="M 412.56401 141.304847 
L 412.56401 114.596948 
" style="fill:none;stroke:#0000ff;stroke-width:2;"/>
    <path clip-path="url(#p18962caabd)" d="M 421.58908 141.248792 
L 421.58908 112.73369 
" style="fill:none;stroke:#0000ff;stroke-width:2;"/>
    <path clip-path="url(#p18962caabd)" d="M 430.614149 142.4959 
L 430.614149 120.134667 
" style="fill:none;stroke:#0000ff;stroke-width:2;"/>
    <path clip-path="url(#p18962caabd)" d="M 439.639219 140.918206 
L 439.639219 106.927079 
" style="fill:none;stroke:#0000ff;stroke-width:2;"/>
    <path clip-path="url(#p18962caabd)" d="M 448.664289 137.904652 
L 448.664289 81.241485 
" style="fill:none;stroke:#0000ff;stroke-width:2;"/>
    <path clip-path="url(#p18962caabd)" d="M 457.689358 138.729766 
L 457.689358 84.720364 
" style="fill:none;stroke:#0000ff;stroke-width:2;"/>
    <path clip-path="url(#p18962caabd)" d="M 466.714428 137.991073 
L 466.714428 75.097551 
" style="fill:none;stroke:#0000ff;stroke-width:2;"/>
    <path clip-path="url(#p18962caabd)" d="M 475.739498 138.939297 
L 475.739498 79.905453 
" style="fill:none;stroke:#0000ff;stroke-width:2;"/>
    <path clip-path="url(#p18962caabd)" d="M 484.764567 140.053512 
L 484.764567 86.968396 
" style="fill:none;stroke:#0000ff;stroke-width:2;"/>
    <path clip-path="url(#p18962caabd)" d="M 493.789637 143.084795 
L 493.789637 114.826003 
" style="fill:none;stroke:#0000ff;stroke-width:2;"/>
    <path clip-path="url(#p18962caabd)" d="M 502.814707 142.221655 
L 502.814707 103.417613 
" style="fill:none;stroke:#0000ff;stroke-width:2;"/>
    <path clip-path="url(#p18962caabd)" d="M 511.839776 144.37387 
L 511.839776 125.996265 
" style="fill:none;stroke:#0000ff;stroke-width:2;"/>
    <path clip-path="url(#p18962caabd)" d="M 520.864846 144.696099 
L 520.864846 128.724712 
" style="fill:none;stroke:#0000ff;stroke-width:2;"/>
    <path clip-path="url(#p18962caabd)" d="M 529.889916 144.531637 
L 529.889916 125.285107 
" style="fill:none;stroke:#0000ff;stroke-width:2;"/>
    <path clip-path="url(#p18962caabd)" d="M 538.914985 144.224488 
L 538.914985 119.308727 
" style="fill:none;stroke:#0000ff;stroke-width:2;"/>
    <path clip-path="url(#p18962caabd)" d="M 547.940055 143.098111 
L 547.940055 99.818932 
" style="fill:none;stroke:#0000ff;stroke-width:2;"/>
    <path clip-path="url(#p18962caabd)" d="M 556.965125 142.911477 
L 556.965125 92.960043 
" style="fill:none;stroke:#0000ff;stroke-width:2;"/>
    <path clip-path="url(#p18962caabd)" d="M 565.990194 144.151383 
L 565.990194 110.77837 
" style="fill:none;stroke:#0000ff;stroke-width:2;"/>
    <path clip-path="url(#p18962caabd)" d="M 575.015264 143.876594 
L 575.015264 102.001173 
" style="fill:none;stroke:#0000ff;stroke-width:2;"/>
    <path clip-path="url(#p18962caabd)" d="M 584.040334 143.544139 
L 584.040334 90.341607 
" style="fill:none;stroke:#0000ff;stroke-width:2;"/>
    <path clip-path="url(#p18962caabd)" d="M 593.065404 145.663473 
L 593.065404 136.070563 
" style="fill:none;stroke:#0000ff;stroke-width:2;"/>
    <path clip-path="url(#p18962caabd)" d="M 602.090473 145.728749 
L 602.090473 136.65531 
" style="fill:none;stroke:#0000ff;stroke-width:2;"/>
    <path clip-path="url(#p18962caabd)" d="M 611.115543 146.211364 
L 611.115543 151.020474 
" style="fill:none;stroke:#0000ff;stroke-width:2;"/>
    <path clip-path="url(#p18962caabd)" d="M 620.140613 146.229954 
L 620.140613 152.549676 
" style="fill:none;stroke:#0000ff;stroke-width:2;"/>
    <path clip-path="url(#p18962caabd)" d="M 629.165682 145.626281 
L 629.165682 126.748603 
" style="fill:none;stroke:#0000ff;stroke-width:2;"/>
    <path clip-path="url(#p18962caabd)" d="M 638.190752 145.148967 
L 638.190752 97.608237 
" style="fill:none;stroke:#0000ff;stroke-width:2;"/>
    <path clip-path="url(#p18962caabd)" d="M 647.215822 145.63923 
L 647.215822 116.747836 
" style="fill:none;stroke:#0000ff;stroke-width:2;"/>
    <path clip-path="url(#p18962caabd)" d="M 656.240891 145.746558 
L 656.240891 115.718167 
" style="fill:none;stroke:#0000ff;stroke-width:2;"/>
    <path clip-path="url(#p18962caabd)" d="M 665.265961 145.907611 
L 665.265961 121.689483 
" style="fill:none;stroke:#0000ff;stroke-width:2;"/>
    <path clip-path="url(#p18962caabd)" d="M 674.291031 145.966042 
L 674.291031 109.124858 
" style="fill:none;stroke:#0000ff;stroke-width:2;"/>
   </g>
   <g id="LineCollection_2">
    <path clip-path="url(#p18962caabd)" d="M 114.736711 112.239062 
L 114.736711 97.203547 
" style="fill:none;stroke:#ff0000;stroke-width:2;"/>
   </g>
   <g id="line2d_10">
    <defs>
     <path d="M 0 4 
C 1.060812 4 2.078319 3.578535 2.828427 2.828427 
C 3.578535 2.078319 4 1.060812 4 0 
C 4 -1.060812 3.578535 -2.078319 2.828427 -2.828427 
C 2.078319 -3.578535 1.060812 -4 0 -4 
C -1.060812 -4 -2.078319 -3.578535 -2.828427 -2.828427 
C -3.578535 -2.078319 -4 -1.060812 -4 0 
C -4 1.060812 -3.578535 2.078319 -2.828427 2.828427 
C -2.078319 3.578535 -1.060812 4 0 4 
z
" id="m7948615663" style="stroke:#0000ff;"/>
    </defs>
    <g clip-path="url(#p18962caabd)">
     <use style="fill:#0000ff;stroke:#0000ff;" x="105.711641" xlink:href="#m7948615663" y="93.348766"/>
     <use style="fill:#0000ff;stroke:#0000ff;" x="114.736711" xlink:href="#m7948615663" y="104.721304"/>
     <use style="fill:#0000ff;stroke:#0000ff;" x="123.761781" xlink:href="#m7948615663" y="97.34622"/>
     <use style="fill:#0000ff;stroke:#0000ff;" x="132.78685" xlink:href="#m7948615663" y="94.991985"/>
     <use style="fill:#0000ff;stroke:#0000ff;" x="141.81192" xlink:href="#m7948615663" y="98.571921"/>
     <use style="fill:#0000ff;stroke:#0000ff;" x="150.83699" xlink:href="#m7948615663" y="95.483168"/>
     <use style="fill:#0000ff;stroke:#0000ff;" x="159.862059" xlink:href="#m7948615663" y="109.441563"/>
     <use style="fill:#0000ff;stroke:#0000ff;" x="168.887129" xlink:href="#m7948615663" y="110.378646"/>
     <use style="fill:#0000ff;stroke:#0000ff;" x="177.912199" xlink:href="#m7948615663" y="100.693554"/>
     <use style="fill:#0000ff;stroke:#0000ff;" x="186.937268" xlink:href="#m7948615663" y="102.034916"/>
     <use style="fill:#0000ff;stroke:#0000ff;" x="195.962338" xlink:href="#m7948615663" y="101.417765"/>
     <use style="fill:#0000ff;stroke:#0000ff;" x="204.987408" xlink:href="#m7948615663" y="113.013787"/>
     <use style="fill:#0000ff;stroke:#0000ff;" x="214.012477" xlink:href="#m7948615663" y="107.204421"/>
     <use style="fill:#0000ff;stroke:#0000ff;" x="223.037547" xlink:href="#m7948615663" y="104.764516"/>
     <use style="fill:#0000ff;stroke:#0000ff;" x="232.062617" xlink:href="#m7948615663" y="107.886444"/>
     <use style="fill:#0000ff;stroke:#0000ff;" x="241.087686" xlink:href="#m7948615663" y="117.74084"/>
     <use style="fill:#0000ff;stroke:#0000ff;" x="250.112756" xlink:href="#m7948615663" y="122.790557"/>
     <use style="fill:#0000ff;stroke:#0000ff;" x="259.137826" xlink:href="#m7948615663" y="125.830258"/>
     <use style="fill:#0000ff;stroke:#0000ff;" x="268.162895" xlink:href="#m7948615663" y="120.50477"/>
     <use style="fill:#0000ff;stroke:#0000ff;" x="277.187965" xlink:href="#m7948615663" y="119.498431"/>
     <use style="fill:#0000ff;stroke:#0000ff;" x="286.213035" xlink:href="#m7948615663" y="121.142053"/>
     <use style="fill:#0000ff;stroke:#0000ff;" x="295.238104" xlink:href="#m7948615663" y="123.633101"/>
     <use style="fill:#0000ff;stroke:#0000ff;" x="304.263174" xlink:href="#m7948615663" y="123.736137"/>
     <use style="fill:#0000ff;stroke:#0000ff;" x="313.288244" xlink:href="#m7948615663" y="119.333248"/>
     <use style="fill:#0000ff;stroke:#0000ff;" x="322.313313" xlink:href="#m7948615663" y="128.260641"/>
     <use style="fill:#0000ff;stroke:#0000ff;" x="331.338383" xlink:href="#m7948615663" y="129.552302"/>
     <use style="fill:#0000ff;stroke:#0000ff;" x="340.363453" xlink:href="#m7948615663" y="143.054257"/>
     <use style="fill:#0000ff;stroke:#0000ff;" x="349.388522" xlink:href="#m7948615663" y="135.892521"/>
     <use style="fill:#0000ff;stroke:#0000ff;" x="358.413592" xlink:href="#m7948615663" y="127.181314"/>
     <use style="fill:#0000ff;stroke:#0000ff;" x="367.438662" xlink:href="#m7948615663" y="119.851285"/>
     <use style="fill:#0000ff;stroke:#0000ff;" x="376.463731" xlink:href="#m7948615663" y="116.384818"/>
     <use style="fill:#0000ff;stroke:#0000ff;" x="385.488801" xlink:href="#m7948615663" y="117.73173"/>
     <use style="fill:#0000ff;stroke:#0000ff;" x="394.513871" xlink:href="#m7948615663" y="127.529471"/>
     <use style="fill:#0000ff;stroke:#0000ff;" x="403.53894" xlink:href="#m7948615663" y="126.699222"/>
     <use style="fill:#0000ff;stroke:#0000ff;" x="412.56401" xlink:href="#m7948615663" y="127.950898"/>
     <use style="fill:#0000ff;stroke:#0000ff;" x="421.58908" xlink:href="#m7948615663" y="126.991241"/>
     <use style="fill:#0000ff;stroke:#0000ff;" x="430.614149" xlink:href="#m7948615663" y="131.315283"/>
     <use style="fill:#0000ff;stroke:#0000ff;" x="439.639219" xlink:href="#m7948615663" y="123.922643"/>
     <use style="fill:#0000ff;stroke:#0000ff;" x="448.664289" xlink:href="#m7948615663" y="109.573069"/>
     <use style="fill:#0000ff;stroke:#0000ff;" x="457.689358" xlink:href="#m7948615663" y="111.725065"/>
     <use style="fill:#0000ff;stroke:#0000ff;" x="466.714428" xlink:href="#m7948615663" y="106.544312"/>
     <use style="fill:#0000ff;stroke:#0000ff;" x="475.739498" xlink:href="#m7948615663" y="109.422375"/>
     <use style="fill:#0000ff;stroke:#0000ff;" x="484.764567" xlink:href="#m7948615663" y="113.510954"/>
     <use style="fill:#0000ff;stroke:#0000ff;" x="493.789637" xlink:href="#m7948615663" y="128.955399"/>
     <use style="fill:#0000ff;stroke:#0000ff;" x="502.814707" xlink:href="#m7948615663" y="122.819634"/>
     <use style="fill:#0000ff;stroke:#0000ff;" x="511.839776" xlink:href="#m7948615663" y="135.185068"/>
     <use style="fill:#0000ff;stroke:#0000ff;" x="520.864846" xlink:href="#m7948615663" y="136.710405"/>
     <use style="fill:#0000ff;stroke:#0000ff;" x="529.889916" xlink:href="#m7948615663" y="134.908372"/>
     <use style="fill:#0000ff;stroke:#0000ff;" x="538.914985" xlink:href="#m7948615663" y="131.766608"/>
     <use style="fill:#0000ff;stroke:#0000ff;" x="547.940055" xlink:href="#m7948615663" y="121.458521"/>
     <use style="fill:#0000ff;stroke:#0000ff;" x="556.965125" xlink:href="#m7948615663" y="117.93576"/>
     <use style="fill:#0000ff;stroke:#0000ff;" x="565.990194" xlink:href="#m7948615663" y="127.464876"/>
     <use style="fill:#0000ff;stroke:#0000ff;" x="575.015264" xlink:href="#m7948615663" y="122.938883"/>
     <use style="fill:#0000ff;stroke:#0000ff;" x="584.040334" xlink:href="#m7948615663" y="116.942873"/>
     <use style="fill:#0000ff;stroke:#0000ff;" x="593.065404" xlink:href="#m7948615663" y="140.867018"/>
     <use style="fill:#0000ff;stroke:#0000ff;" x="602.090473" xlink:href="#m7948615663" y="141.192029"/>
     <use style="fill:#0000ff;stroke:#0000ff;" x="611.115543" xlink:href="#m7948615663" y="148.615919"/>
     <use style="fill:#0000ff;stroke:#0000ff;" x="620.140613" xlink:href="#m7948615663" y="149.389815"/>
     <use style="fill:#0000ff;stroke:#0000ff;" x="629.165682" xlink:href="#m7948615663" y="136.187442"/>
     <use style="fill:#0000ff;stroke:#0000ff;" x="638.190752" xlink:href="#m7948615663" y="121.378602"/>
     <use style="fill:#0000ff;stroke:#0000ff;" x="647.215822" xlink:href="#m7948615663" y="131.193533"/>
     <use style="fill:#0000ff;stroke:#0000ff;" x="656.240891" xlink:href="#m7948615663" y="130.732363"/>
     <use style="fill:#0000ff;stroke:#0000ff;" x="665.265961" xlink:href="#m7948615663" y="133.798547"/>
     <use style="fill:#0000ff;stroke:#0000ff;" x="674.291031" xlink:href="#m7948615663" y="127.54545"/>
    </g>
   </g>
   <g id="line2d_11">
    <defs>
     <path d="M 0 4 
C 1.060812 4 2.078319 3.578535 2.828427 2.828427 
C 3.578535 2.078319 4 1.060812 4 0 
C 4 -1.060812 3.578535 -2.078319 2.828427 -2.828427 
C 2.078319 -3.578535 1.060812 -4 0 -4 
C -1.060812 -4 -2.078319 -3.578535 -2.828427 -2.828427 
C -3.578535 -2.078319 -4 -1.060812 -4 0 
C -4 1.060812 -3.578535 2.078319 -2.828427 2.828427 
C -2.078319 3.578535 -1.060812 4 0 4 
z
" id="m2dbee8162c" style="stroke:#ff0000;"/>
    </defs>
    <g clip-path="url(#p18962caabd)">
     <use style="fill:#ff0000;stroke:#ff0000;" x="114.736711" xlink:href="#m2dbee8162c" y="104.721304"/>
    </g>
   </g>
   <g id="patch_3">
    <path d="M 77.282672 156.422282 
L 77.282672 71.224945 
" style="fill:none;stroke:#000000;stroke-linecap:square;stroke-linejoin:miter;stroke-width:0.8;"/>
   </g>
   <g id="patch_4">
    <path d="M 702.72 156.422282 
L 702.72 71.224945 
" style="fill:none;stroke:#000000;stroke-linecap:square;stroke-linejoin:miter;stroke-width:0.8;"/>
   </g>
   <g id="patch_5">
    <path d="M 77.282672 156.422282 
L 702.72 156.422282 
" style="fill:none;stroke:#000000;stroke-linecap:square;stroke-linejoin:miter;stroke-width:0.8;"/>
   </g>
   <g id="patch_6">
    <path d="M 77.282672 71.224945 
L 702.72 71.224945 
" style="fill:none;stroke:#000000;stroke-linecap:square;stroke-linejoin:miter;stroke-width:0.8;"/>
   </g>
  </g>
  <g id="axes_2">
   <g id="patch_7">
    <path d="M 77.282672 298.359028 
L 702.72 298.359028 
L 702.72 213.16169 
L 77.282672 213.16169 
z
" style="fill:#ffffff;"/>
   </g>
   <g id="matplotlib.axis_3">
    <g id="xtick_8">
     <g id="line2d_12">
      <g>
       <use style="stroke:#000000;stroke-width:0.8;" x="96.686572" xlink:href="#mc796658de5" y="298.359028"/>
      </g>
     </g>
    </g>
    <g id="xtick_9">
     <g id="line2d_13">
      <g>
       <use style="stroke:#000000;stroke-width:0.8;" x="186.937268" xlink:href="#mc796658de5" y="298.359028"/>
      </g>
     </g>
    </g>
    <g id="xtick_10">
     <g id="line2d_14">
      <g>
       <use style="stroke:#000000;stroke-width:0.8;" x="277.187965" xlink:href="#mc796658de5" y="298.359028"/>
      </g>
     </g>
    </g>
    <g id="xtick_11">
     <g id="line2d_15">
      <g>
       <use style="stroke:#000000;stroke-width:0.8;" x="367.438662" xlink:href="#mc796658de5" y="298.359028"/>
      </g>
     </g>
    </g>
    <g id="xtick_12">
     <g id="line2d_16">
      <g>
       <use style="stroke:#000000;stroke-width:0.8;" x="457.689358" xlink:href="#mc796658de5" y="298.359028"/>
      </g>
     </g>
    </g>
    <g id="xtick_13">
     <g id="line2d_17">
      <g>
       <use style="stroke:#000000;stroke-width:0.8;" x="547.940055" xlink:href="#mc796658de5" y="298.359028"/>
      </g>
     </g>
    </g>
    <g id="xtick_14">
     <g id="line2d_18">
      <g>
       <use style="stroke:#000000;stroke-width:0.8;" x="638.190752" xlink:href="#mc796658de5" y="298.359028"/>
      </g>
     </g>
    </g>
    <g id="text_5">
     <!-- $W$ -->
     <g transform="translate(378.94983 318.963433)scale(0.24 -0.24)">
      <use transform="scale(0.996264)" xlink:href="#CMMI12-87"/>
     </g>
    </g>
   </g>
   <g id="matplotlib.axis_4">
    <g id="ytick_3">
     <g id="line2d_19">
      <g>
       <use style="stroke:#000000;stroke-width:0.8;" x="77.282672" xlink:href="#m1ad9c4416b" y="263.900336"/>
      </g>
     </g>
     <g id="text_6">
      <!-- $\mathdefault{0.5}$ -->
      <g transform="translate(50.33915 269.43513)scale(0.16 -0.16)">
       <use transform="scale(0.996264)" xlink:href="#CMR17-48"/>
       <use transform="translate(45.690477 0)scale(0.996264)" xlink:href="#CMMI12-58"/>
       <use transform="translate(72.787654 0)scale(0.996264)" xlink:href="#CMR17-53"/>
      </g>
     </g>
    </g>
    <g id="ytick_4">
     <g id="line2d_20">
      <g>
       <use style="stroke:#000000;stroke-width:0.8;" x="77.282672" xlink:href="#m1ad9c4416b" y="216.299132"/>
      </g>
     </g>
     <g id="text_7">
      <!-- $\mathdefault{1.0}$ -->
      <g transform="translate(50.33915 221.833926)scale(0.16 -0.16)">
       <defs>
        <path d="M 26.59375 63.40625 
C 26.59375 65.5 26.5 65.5 25.09375 65.5 
C 21.203125 61.1875 15.296875 59.796875 9.703125 59.796875 
C 9.40625 59.796875 8.90625 59.796875 8.796875 59.5 
C 8.703125 59.296875 8.703125 59.09375 8.703125 57 
C 11.796875 57 17 57.59375 21 59.984375 
L 21 7.203125 
C 21 3.6875 20.796875 2.5 12.203125 2.5 
L 9.203125 2.5 
L 9.203125 0 
C 14 0 19 0 23.796875 0 
C 28.59375 0 33.59375 0 38.40625 0 
L 38.40625 2.5 
L 35.40625 2.5 
C 26.796875 2.5 26.59375 3.59375 26.59375 7.15625 
z
" id="CMR17-49"/>
       </defs>
       <use transform="scale(0.996264)" xlink:href="#CMR17-49"/>
       <use transform="translate(45.690477 0)scale(0.996264)" xlink:href="#CMMI12-58"/>
       <use transform="translate(72.787654 0)scale(0.996264)" xlink:href="#CMR17-48"/>
      </g>
     </g>
    </g>
    <g id="text_8">
     <!-- $\delta(\sigma_F)/\sigma_F$ -->
     <g transform="translate(40.361565 301.016574)rotate(-90)scale(0.24 -0.24)">
      <defs>
       <path d="M 26 43.671875 
C 13.203125 40.578125 4 27.3125 4 15.640625 
C 4 4.984375 11.203125 -1 19.203125 -1 
C 31 -1 39 15.15625 39 28.40625 
C 39 37.375 34.796875 42.875 32.296875 46.15625 
C 28.59375 50.84375 22.59375 58.53125 22.59375 63.3125 
C 22.59375 65.015625 23.90625 68 28.296875 68 
C 31.40625 68 33.296875 66.90625 36.296875 65.203125 
C 37.203125 64.59375 39.5 63.3125 40.796875 63.3125 
C 42.90625 63.3125 44.40625 65.390625 44.40625 66.984375 
C 44.40625 68.890625 42.90625 69.1875 39.40625 69.984375 
C 34.703125 70.984375 33.296875 70.984375 31.59375 70.984375 
C 29.90625 70.984375 20.09375 70.984375 20.09375 60.8125 
C 20.09375 55.921875 22.59375 50.25 26 43.671875 
z
M 27.09375 41.703125 
C 30.90625 33.828125 32.40625 30.84375 32.40625 24.375 
C 32.40625 16.609375 28.203125 0.984375 19.296875 0.984375 
C 15.40625 0.984375 9.796875 3.578125 9.796875 12.828125 
C 9.796875 19.296875 13.5 38.109375 27.09375 41.703125 
z
" id="CMMI12-14"/>
       <path d="M 30.59375 -24.390625 
C 30.59375 -24.296875 30.59375 -24.09375 30.296875 -23.796875 
C 25.703125 -19.125 13.40625 -6.359375 13.40625 24.703125 
C 13.40625 55.765625 25.5 68.421875 30.40625 73.390625 
C 30.40625 73.5 30.59375 73.703125 30.59375 74 
C 30.59375 74.296875 30.296875 74.5 29.90625 74.5 
C 28.796875 74.5 20.296875 67.125 15.40625 56.15625 
C 10.40625 45.109375 9 34.359375 9 24.8125 
C 9 17.625 9.703125 5.484375 15.703125 -7.359375 
C 20.5 -17.734375 28.703125 -25 29.90625 -25 
C 30.40625 -25 30.59375 -24.796875 30.59375 -24.390625 
z
" id="CMR17-40"/>
       <path d="M 50.796875 37.625 
C 52.09375 37.625 55.40625 37.625 55.40625 40.8125 
C 55.40625 43 53.5 43 51.703125 43 
L 29.59375 43 
C 14.59375 43 3.796875 26.34375 3.796875 14.5625 
C 3.796875 6.09375 9.296875 -1 18.296875 -1 
C 30.09375 -1 43 11.671875 43 26.640625 
C 43 30.53125 42.09375 34.3125 39.703125 37.625 
z
M 18.40625 1 
C 13.296875 1 9.59375 4.890625 9.59375 11.78125 
C 9.59375 17.765625 13.203125 37.625 27.90625 37.625 
C 32.203125 37.625 37 35.53125 37 27.828125 
C 37 24.34375 35.40625 15.953125 31.90625 10.1875 
C 28.296875 4.296875 22.90625 1 18.40625 1 
z
" id="CMMI12-27"/>
       <path d="M 29.703125 32.109375 
L 39.296875 32.109375 
C 46.90625 32.109375 47.5 30.40625 47.5 27.515625 
C 47.5 26.21875 47.296875 24.828125 46.796875 22.625 
C 46.59375 22.234375 46.5 21.734375 46.5 21.53125 
C 46.5 20.828125 46.90625 20.4375 47.59375 20.4375 
C 48.40625 20.4375 48.5 20.828125 48.90625 22.421875 
L 54.703125 45.859375 
C 54.703125 46.265625 54.40625 46.859375 53.703125 46.859375 
C 52.796875 46.859375 52.703125 46.46875 52.296875 44.734375 
C 50.203125 37.125 48.203125 35 39.5 35 
L 30.40625 35 
L 36.90625 61.34375 
C 37.796875 64.90625 38 64.90625 42.09375 64.90625 
L 55.5 64.90625 
C 68 64.90625 69.796875 61.21875 69.796875 54.125 
C 69.796875 53.53125 69.796875 51.328125 69.5 48.734375 
C 69.40625 48.34375 69.203125 47.046875 69.203125 46.640625 
C 69.203125 45.84375 69.703125 45.546875 70.296875 45.546875 
C 71 45.546875 71.40625 45.953125 71.59375 47.734375 
L 73.703125 65.21875 
C 73.703125 65.546875 73.90625 66.609375 73.90625 66.828125 
C 73.90625 68 73 68 71.203125 68 
L 23.796875 68 
C 21.90625 68 20.90625 68 20.90625 66.078125 
C 20.90625 64.90625 21.59375 64.90625 23.296875 64.90625 
C 29.5 64.90625 29.5 64.265625 29.5 63.28125 
C 29.5 62.78125 29.40625 62.375 29.09375 61.28125 
L 15.59375 7.390625 
C 14.703125 3.890625 14.5 2.890625 7.5 2.890625 
C 5.59375 2.890625 4.59375 2.890625 4.59375 1.09375 
C 4.59375 0 5.5 0 6.09375 0 
C 8 0 10 0 11.90625 0 
L 24.90625 0 
C 27.09375 0 29.5 0 31.703125 0 
C 32.59375 0 33.796875 0 33.796875 1.796875 
C 33.796875 2.890625 33.203125 2.890625 31 2.890625 
C 23.09375 2.890625 22.90625 3.578125 22.90625 5.0625 
C 22.90625 5.5625 23.09375 6.34375 23.296875 7.015625 
z
" id="CMMI12-70"/>
       <path d="M 26.296875 24.703125 
C 26.296875 31.875 25.59375 44.015625 19.59375 56.859375 
C 14.796875 67.234375 6.59375 74.5 5.40625 74.5 
C 5.09375 74.5 4.703125 74.390625 4.703125 73.890625 
C 4.703125 73.703125 4.796875 73.59375 4.90625 73.390625 
C 9.703125 68.40625 21.90625 55.75 21.90625 24.75 
C 21.90625 -6.359375 9.796875 -19.015625 4.90625 -24.015625 
C 4.796875 -24.203125 4.703125 -24.3125 4.703125 -24.5 
C 4.703125 -25 5.09375 -25 5.40625 -25 
C 6.5 -25 15 -17.625 19.90625 -6.65625 
C 24.90625 4.390625 26.296875 15.140625 26.296875 24.703125 
z
" id="CMR17-41"/>
       <path d="M 42.90625 71.28125 
C 42.90625 71.390625 43.5 72.90625 43.5 73.09375 
C 43.5 74.296875 42.5 75 41.703125 75 
C 41.203125 75 40.296875 75 39.5 72.796875 
L 6 -21.296875 
C 6 -21.40625 5.40625 -22.890625 5.40625 -23.09375 
C 5.40625 -24.296875 6.40625 -25 7.203125 -25 
C 7.796875 -25 8.703125 -24.890625 9.40625 -22.796875 
z
" id="CMMI12-61"/>
      </defs>
      <use transform="scale(0.996264)" xlink:href="#CMMI12-14"/>
      <use transform="translate(46.941386 0)scale(0.996264)" xlink:href="#CMR17-40"/>
      <use transform="translate(82.222154 0)scale(0.996264)" xlink:href="#CMMI12-27"/>
      <use transform="translate(137.667615 -14.943915)scale(0.697382)" xlink:href="#CMMI12-70"/>
      <use transform="translate(191.853258 0)scale(0.996264)" xlink:href="#CMR17-41"/>
      <use transform="translate(227.134026 0)scale(0.996264)" xlink:href="#CMMI12-61"/>
      <use transform="translate(275.908945 0)scale(0.996264)" xlink:href="#CMMI12-27"/>
      <use transform="translate(331.354406 -14.943915)scale(0.697382)" xlink:href="#CMMI12-70"/>
     </g>
    </g>
   </g>
   <g id="line2d_21">
    <path clip-path="url(#p91f8a121b8)" d="M 105.711641 294.212486 
L 114.736711 294.486421 
L 123.761781 291.030619 
L 132.78685 287.883684 
L 141.81192 285.097083 
L 150.83699 282.576969 
L 159.862059 280.259436 
L 168.887129 278.102326 
L 177.912199 276.076324 
L 186.937268 274.160084 
L 195.962338 272.33749 
L 204.987408 270.596024 
L 214.012477 268.925729 
L 223.037547 267.318533 
L 232.062617 265.767783 
L 241.087686 264.267919 
L 250.112756 262.814237 
L 259.137826 261.402719 
L 268.162895 260.029894 
L 277.187965 258.692746 
L 286.213035 257.388629 
L 295.238104 256.115209 
L 304.263174 254.870417 
L 313.288244 253.652404 
L 322.313313 252.459513 
L 331.338383 251.290251 
L 340.363453 250.143266 
L 349.388522 249.017332 
L 358.413592 247.911331 
L 367.438662 246.82424 
L 376.463731 245.755121 
L 385.488801 244.703112 
L 394.513871 243.667415 
L 403.53894 242.647296 
L 412.56401 241.642072 
L 421.58908 240.651108 
L 430.614149 239.673814 
L 439.639219 238.70964 
L 448.664289 237.758072 
L 457.689358 236.818627 
L 466.714428 235.890853 
L 475.739498 234.974326 
L 484.764567 234.068647 
L 493.789637 233.17344 
L 502.814707 232.288348 
L 511.839776 231.413038 
L 520.864846 230.547191 
L 529.889916 229.690507 
L 538.914985 228.842702 
L 547.940055 228.003504 
L 556.965125 227.172658 
L 565.990194 226.349918 
L 575.015264 225.535051 
L 584.040334 224.727836 
L 593.065404 223.928062 
L 602.090473 223.135525 
L 611.115543 222.350034 
L 620.140613 221.571403 
L 629.165682 220.799457 
L 638.190752 220.034025 
L 647.215822 219.274945 
L 656.240891 218.522063 
L 665.265961 217.775228 
L 674.291031 217.034297 
" style="fill:none;stroke:#0000ff;stroke-linecap:square;stroke-width:2;"/>
    <g clip-path="url(#p91f8a121b8)">
     <use style="fill:#0000ff;stroke:#0000ff;" x="105.711641" xlink:href="#m7948615663" y="294.212486"/>
     <use style="fill:#0000ff;stroke:#0000ff;" x="114.736711" xlink:href="#m7948615663" y="294.486421"/>
     <use style="fill:#0000ff;stroke:#0000ff;" x="123.761781" xlink:href="#m7948615663" y="291.030619"/>
     <use style="fill:#0000ff;stroke:#0000ff;" x="132.78685" xlink:href="#m7948615663" y="287.883684"/>
     <use style="fill:#0000ff;stroke:#0000ff;" x="141.81192" xlink:href="#m7948615663" y="285.097083"/>
     <use style="fill:#0000ff;stroke:#0000ff;" x="150.83699" xlink:href="#m7948615663" y="282.576969"/>
     <use style="fill:#0000ff;stroke:#0000ff;" x="159.862059" xlink:href="#m7948615663" y="280.259436"/>
     <use style="fill:#0000ff;stroke:#0000ff;" x="168.887129" xlink:href="#m7948615663" y="278.102326"/>
     <use style="fill:#0000ff;stroke:#0000ff;" x="177.912199" xlink:href="#m7948615663" y="276.076324"/>
     <use style="fill:#0000ff;stroke:#0000ff;" x="186.937268" xlink:href="#m7948615663" y="274.160084"/>
     <use style="fill:#0000ff;stroke:#0000ff;" x="195.962338" xlink:href="#m7948615663" y="272.33749"/>
     <use style="fill:#0000ff;stroke:#0000ff;" x="204.987408" xlink:href="#m7948615663" y="270.596024"/>
     <use style="fill:#0000ff;stroke:#0000ff;" x="214.012477" xlink:href="#m7948615663" y="268.925729"/>
     <use style="fill:#0000ff;stroke:#0000ff;" x="223.037547" xlink:href="#m7948615663" y="267.318533"/>
     <use style="fill:#0000ff;stroke:#0000ff;" x="232.062617" xlink:href="#m7948615663" y="265.767783"/>
     <use style="fill:#0000ff;stroke:#0000ff;" x="241.087686" xlink:href="#m7948615663" y="264.267919"/>
     <use style="fill:#0000ff;stroke:#0000ff;" x="250.112756" xlink:href="#m7948615663" y="262.814237"/>
     <use style="fill:#0000ff;stroke:#0000ff;" x="259.137826" xlink:href="#m7948615663" y="261.402719"/>
     <use style="fill:#0000ff;stroke:#0000ff;" x="268.162895" xlink:href="#m7948615663" y="260.029894"/>
     <use style="fill:#0000ff;stroke:#0000ff;" x="277.187965" xlink:href="#m7948615663" y="258.692746"/>
     <use style="fill:#0000ff;stroke:#0000ff;" x="286.213035" xlink:href="#m7948615663" y="257.388629"/>
     <use style="fill:#0000ff;stroke:#0000ff;" x="295.238104" xlink:href="#m7948615663" y="256.115209"/>
     <use style="fill:#0000ff;stroke:#0000ff;" x="304.263174" xlink:href="#m7948615663" y="254.870417"/>
     <use style="fill:#0000ff;stroke:#0000ff;" x="313.288244" xlink:href="#m7948615663" y="253.652404"/>
     <use style="fill:#0000ff;stroke:#0000ff;" x="322.313313" xlink:href="#m7948615663" y="252.459513"/>
     <use style="fill:#0000ff;stroke:#0000ff;" x="331.338383" xlink:href="#m7948615663" y="251.290251"/>
     <use style="fill:#0000ff;stroke:#0000ff;" x="340.363453" xlink:href="#m7948615663" y="250.143266"/>
     <use style="fill:#0000ff;stroke:#0000ff;" x="349.388522" xlink:href="#m7948615663" y="249.017332"/>
     <use style="fill:#0000ff;stroke:#0000ff;" x="358.413592" xlink:href="#m7948615663" y="247.911331"/>
     <use style="fill:#0000ff;stroke:#0000ff;" x="367.438662" xlink:href="#m7948615663" y="246.82424"/>
     <use style="fill:#0000ff;stroke:#0000ff;" x="376.463731" xlink:href="#m7948615663" y="245.755121"/>
     <use style="fill:#0000ff;stroke:#0000ff;" x="385.488801" xlink:href="#m7948615663" y="244.703112"/>
     <use style="fill:#0000ff;stroke:#0000ff;" x="394.513871" xlink:href="#m7948615663" y="243.667415"/>
     <use style="fill:#0000ff;stroke:#0000ff;" x="403.53894" xlink:href="#m7948615663" y="242.647296"/>
     <use style="fill:#0000ff;stroke:#0000ff;" x="412.56401" xlink:href="#m7948615663" y="241.642072"/>
     <use style="fill:#0000ff;stroke:#0000ff;" x="421.58908" xlink:href="#m7948615663" y="240.651108"/>
     <use style="fill:#0000ff;stroke:#0000ff;" x="430.614149" xlink:href="#m7948615663" y="239.673814"/>
     <use style="fill:#0000ff;stroke:#0000ff;" x="439.639219" xlink:href="#m7948615663" y="238.70964"/>
     <use style="fill:#0000ff;stroke:#0000ff;" x="448.664289" xlink:href="#m7948615663" y="237.758072"/>
     <use style="fill:#0000ff;stroke:#0000ff;" x="457.689358" xlink:href="#m7948615663" y="236.818627"/>
     <use style="fill:#0000ff;stroke:#0000ff;" x="466.714428" xlink:href="#m7948615663" y="235.890853"/>
     <use style="fill:#0000ff;stroke:#0000ff;" x="475.739498" xlink:href="#m7948615663" y="234.974326"/>
     <use style="fill:#0000ff;stroke:#0000ff;" x="484.764567" xlink:href="#m7948615663" y="234.068647"/>
     <use style="fill:#0000ff;stroke:#0000ff;" x="493.789637" xlink:href="#m7948615663" y="233.17344"/>
     <use style="fill:#0000ff;stroke:#0000ff;" x="502.814707" xlink:href="#m7948615663" y="232.288348"/>
     <use style="fill:#0000ff;stroke:#0000ff;" x="511.839776" xlink:href="#m7948615663" y="231.413038"/>
     <use style="fill:#0000ff;stroke:#0000ff;" x="520.864846" xlink:href="#m7948615663" y="230.547191"/>
     <use style="fill:#0000ff;stroke:#0000ff;" x="529.889916" xlink:href="#m7948615663" y="229.690507"/>
     <use style="fill:#0000ff;stroke:#0000ff;" x="538.914985" xlink:href="#m7948615663" y="228.842702"/>
     <use style="fill:#0000ff;stroke:#0000ff;" x="547.940055" xlink:href="#m7948615663" y="228.003504"/>
     <use style="fill:#0000ff;stroke:#0000ff;" x="556.965125" xlink:href="#m7948615663" y="227.172658"/>
     <use style="fill:#0000ff;stroke:#0000ff;" x="565.990194" xlink:href="#m7948615663" y="226.349918"/>
     <use style="fill:#0000ff;stroke:#0000ff;" x="575.015264" xlink:href="#m7948615663" y="225.535051"/>
     <use style="fill:#0000ff;stroke:#0000ff;" x="584.040334" xlink:href="#m7948615663" y="224.727836"/>
     <use style="fill:#0000ff;stroke:#0000ff;" x="593.065404" xlink:href="#m7948615663" y="223.928062"/>
     <use style="fill:#0000ff;stroke:#0000ff;" x="602.090473" xlink:href="#m7948615663" y="223.135525"/>
     <use style="fill:#0000ff;stroke:#0000ff;" x="611.115543" xlink:href="#m7948615663" y="222.350034"/>
     <use style="fill:#0000ff;stroke:#0000ff;" x="620.140613" xlink:href="#m7948615663" y="221.571403"/>
     <use style="fill:#0000ff;stroke:#0000ff;" x="629.165682" xlink:href="#m7948615663" y="220.799457"/>
     <use style="fill:#0000ff;stroke:#0000ff;" x="638.190752" xlink:href="#m7948615663" y="220.034025"/>
     <use style="fill:#0000ff;stroke:#0000ff;" x="647.215822" xlink:href="#m7948615663" y="219.274945"/>
     <use style="fill:#0000ff;stroke:#0000ff;" x="656.240891" xlink:href="#m7948615663" y="218.522063"/>
     <use style="fill:#0000ff;stroke:#0000ff;" x="665.265961" xlink:href="#m7948615663" y="217.775228"/>
     <use style="fill:#0000ff;stroke:#0000ff;" x="674.291031" xlink:href="#m7948615663" y="217.034297"/>
    </g>
   </g>
   <g id="line2d_22">
    <path clip-path="url(#p91f8a121b8)" d="M 114.736711 294.486421 
" style="fill:none;stroke:#ff0000;stroke-linecap:square;stroke-width:2;"/>
    <g clip-path="url(#p91f8a121b8)">
     <use style="fill:#ff0000;stroke:#ff0000;" x="114.736711" xlink:href="#m2dbee8162c" y="294.486421"/>
    </g>
   </g>
   <g id="patch_8">
    <path d="M 77.282672 298.359028 
L 77.282672 213.16169 
" style="fill:none;stroke:#000000;stroke-linecap:square;stroke-linejoin:miter;stroke-width:0.8;"/>
   </g>
   <g id="patch_9">
    <path d="M 702.72 298.359028 
L 702.72 213.16169 
" style="fill:none;stroke:#000000;stroke-linecap:square;stroke-linejoin:miter;stroke-width:0.8;"/>
   </g>
   <g id="patch_10">
    <path d="M 77.282672 298.359028 
L 702.72 298.359028 
" style="fill:none;stroke:#000000;stroke-linecap:square;stroke-linejoin:miter;stroke-width:0.8;"/>
   </g>
   <g id="patch_11">
    <path d="M 77.282672 213.16169 
L 702.72 213.16169 
" style="fill:none;stroke:#000000;stroke-linecap:square;stroke-linejoin:miter;stroke-width:0.8;"/>
   </g>
   <g id="text_9">
    <!-- $W_{\rm opt} = 2$ -->
    <g transform="translate(96.686572 232.524721)scale(0.16 -0.16)">
     <defs>
      <path d="M 43.09375 21.1875 
C 43.09375 34 33.796875 44 22.90625 44 
C 12 44 2.703125 34 2.703125 21.1875 
C 2.703125 8.609375 12 -1 22.90625 -1 
C 33.796875 -1 43.09375 8.609375 43.09375 21.1875 
z
M 22.90625 0.796875 
C 18.203125 0.796875 14.203125 3.59375 11.90625 7.5 
C 9.40625 11.984375 9.09375 17.59375 9.09375 22 
C 9.09375 26.203125 9.296875 31.40625 11.90625 35.90625 
C 13.90625 39.203125 17.796875 42.40625 22.90625 42.40625 
C 27.40625 42.40625 31.203125 39.90625 33.59375 36.40625 
C 36.703125 31.703125 36.703125 25.109375 36.703125 22 
C 36.703125 18.09375 36.5 12.109375 33.796875 7.296875 
C 31 2.703125 26.703125 0.796875 22.90625 0.796875 
z
" id="CMR17-111"/>
      <path d="M 22 -16.609375 
C 15.59375 -16.609375 15.203125 -16.203125 15.203125 -12.328125 
L 15.203125 6.28125 
C 18.09375 2.09375 22.296875 -0.59375 27.59375 -0.59375 
C 37.59375 -0.59375 47.703125 8.171875 47.703125 21.6875 
C 47.703125 34.234375 39 43.78125 28.703125 43.78125 
C 22.703125 43.78125 17.796875 40.5 15 36.53125 
L 15 43.78125 
L 3.09375 42.6875 
L 3.09375 40.109375 
C 9 40.109375 9.90625 39.5 9.90625 34.734375 
L 9.90625 -12.328125 
C 9.90625 -16.109375 9.5 -16.609375 3.09375 -16.609375 
L 3.09375 -19.1875 
C 5.5 -19 9.90625 -19 12.5 -19 
C 15.09375 -19 19.59375 -19 22 -19.1875 
z
M 15.203125 31.4375 
C 15.203125 32.84375 15.203125 34.921875 19.09375 38.609375 
C 19.59375 39.015625 23 42 28 42 
C 35.296875 42 41.296875 32.9375 41.296875 21.59375 
C 41.296875 10.25 34.90625 1 27 1 
C 23.40625 1 19.5 2.6875 16.5 7.375 
C 15.203125 9.5625 15.203125 10.15625 15.203125 11.75 
z
" id="CMR17-112"/>
      <path d="M 64.296875 31.515625 
C 65.796875 31.515625 67.296875 31.515625 67.296875 33.203125 
C 67.296875 35 65.59375 35 63.90625 35 
L 8 35 
C 6.296875 35 4.59375 35 4.59375 33.203125 
C 4.59375 31.515625 6.09375 31.515625 7.59375 31.515625 
z
M 63.90625 14 
C 65.59375 14 67.296875 14 67.296875 15.796875 
C 67.296875 17.484375 65.796875 17.484375 64.296875 17.484375 
L 7.59375 17.484375 
C 6.09375 17.484375 4.59375 17.484375 4.59375 15.796875 
C 4.59375 14 6.296875 14 8 14 
z
" id="CMR17-61"/>
      <path d="M 41.703125 15.453125 
L 39.90625 15.453125 
C 38.90625 8.375 38.09375 7.171875 37.703125 6.5625 
C 37.203125 5.765625 30 5.765625 28.59375 5.765625 
L 9.40625 5.765625 
C 13 9.671875 20 16.75 28.5 24.953125 
C 34.59375 30.734375 41.703125 37.53125 41.703125 47.421875 
C 41.703125 59.21875 32.296875 66 21.796875 66 
C 10.796875 66 4.09375 56.3125 4.09375 47.34375 
C 4.09375 43.4375 7 42.9375 8.203125 42.9375 
C 9.203125 42.9375 12.203125 43.546875 12.203125 47.03125 
C 12.203125 50.109375 9.59375 51 8.203125 51 
C 7.59375 51 7 50.90625 6.59375 50.703125 
C 8.5 59.21875 14.296875 63.40625 20.40625 63.40625 
C 29.09375 63.40625 34.796875 56.515625 34.796875 47.421875 
C 34.796875 38.734375 29.703125 31.25 24 24.75 
L 4.09375 2.28125 
L 4.09375 0 
L 39.296875 0 
z
" id="CMR17-50"/>
     </defs>
     <use transform="scale(0.996264)" xlink:href="#CMMI12-87"/>
     <use transform="translate(92.095909 -14.943915)scale(0.697382)" xlink:href="#CMR17-111"/>
     <use transform="translate(124.079091 -14.943915)scale(0.697382)" xlink:href="#CMR17-112"/>
     <use transform="translate(159.7057 -14.943915)scale(0.697382)" xlink:href="#CMR17-116"/>
     <use transform="translate(212.574261 0)scale(0.996264)" xlink:href="#CMR17-61"/>
     <use transform="translate(311.963058 0)scale(0.996264)" xlink:href="#CMR17-50"/>
    </g>
   </g>
   <g id="text_10">
    <!-- $\tau_{\rm opt} = 0.4$ -->
    <g transform="translate(96.686572 248.015146)scale(0.16 -0.16)">
     <defs>
      <path d="M 33.59375 64.40625 
C 33.59375 66.5 33.5 66.5 31.703125 66.5 
L 2 19.59375 
L 2 17 
L 27.796875 17 
L 27.796875 7.140625 
C 27.796875 3.5 27.59375 2.5 20.59375 2.5 
L 18.703125 2.5 
L 18.703125 0 
C 21.90625 0 27.296875 0 30.703125 0 
C 34.09375 0 39.5 0 42.703125 0 
L 42.703125 2.5 
L 40.796875 2.5 
C 33.796875 2.5 33.59375 3.5 33.59375 7.140625 
L 33.59375 17 
L 43.796875 17 
L 43.796875 19.59375 
L 33.59375 19.59375 
z
M 28.09375 57.859375 
L 28.09375 19.59375 
L 4 19.59375 
z
" id="CMR17-52"/>
     </defs>
     <use transform="scale(0.996264)" xlink:href="#CMMI12-28"/>
     <use transform="translate(42.363841 -14.943915)scale(0.697382)" xlink:href="#CMR17-111"/>
     <use transform="translate(74.347023 -14.943915)scale(0.697382)" xlink:href="#CMR17-112"/>
     <use transform="translate(109.973631 -14.943915)scale(0.697382)" xlink:href="#CMR17-116"/>
     <use transform="translate(162.842192 0)scale(0.996264)" xlink:href="#CMR17-61"/>
     <use transform="translate(262.230989 0)scale(0.996264)" xlink:href="#CMR17-48"/>
     <use transform="translate(307.921466 0)scale(0.996264)" xlink:href="#CMMI12-58"/>
     <use transform="translate(335.018643 0)scale(0.996264)" xlink:href="#CMR17-52"/>
    </g>
   </g>
   <g id="text_11">
    <!-- $N = 260, N_{\rm ind} = 371$ -->
    <g transform="translate(96.686572 263.505571)scale(0.16 -0.16)">
     <defs>
      <path d="M 74 57.78125 
C 75.09375 62.09375 76.703125 65.09375 84.296875 65.09375 
C 84.59375 65.09375 85.796875 65.09375 85.796875 66.859375 
C 85.796875 68 84.90625 68 84.5 68 
C 82.5 68 77.40625 68 75.40625 68 
L 70.59375 68 
C 69.203125 68 67.40625 68 66 68 
C 65.40625 68 64.203125 68 64.203125 66.09375 
C 64.203125 65.09375 65 65.09375 65.703125 65.09375 
C 71.703125 65.09375 72.09375 62.796875 72.09375 60.984375 
C 72.09375 60.09375 72 59.78125 71.703125 58.390625 
L 60.40625 13.28125 
L 39 66.390625 
C 38.296875 68 38.203125 68 36 68 
L 23.796875 68 
C 21.796875 68 20.90625 68 20.90625 66.09375 
C 20.90625 65.09375 21.59375 65.09375 23.5 65.09375 
C 24 65.09375 29.90625 65.09375 29.90625 64.296875 
C 29.90625 64.09375 29.703125 63.296875 29.59375 63 
L 16.296875 9.921875 
C 15.09375 5 12.703125 2.90625 6.09375 2.90625 
C 5.59375 2.90625 4.59375 2.90625 4.59375 1.046875 
C 4.59375 0 5.59375 0 5.90625 0 
C 7.90625 0 13 0 15 0 
L 19.796875 0 
C 21.203125 0 22.90625 0 24.296875 0 
C 25 0 26.09375 0 26.09375 1.90625 
C 26.09375 2.8125 25.09375 2.90625 24.703125 2.90625 
C 21.40625 2.90625 18.203125 3.5 18.203125 7.09375 
C 18.203125 7.890625 18.40625 8.78125 18.59375 9.578125 
L 32.09375 63 
C 32.703125 62 32.703125 61.8125 33.09375 60.90625 
L 56.90625 1.796875 
C 57.40625 0.59375 57.59375 0 58.5 0 
C 59.5 0 59.59375 0.296875 60 2 
z
" id="CMMI12-78"/>
      <path d="M 10.59375 34 
C 10.59375 57.65625 21.796875 63 28.296875 63 
C 30.40625 63 35.5 62.640625 37.5 59 
C 35.90625 59 32.90625 59 32.90625 55.515625 
C 32.90625 52.828125 35.09375 51.921875 36.5 51.921875 
C 37.40625 51.921875 40.09375 52.3125 40.09375 55.625 
C 40.09375 61.78125 35.09375 65.296875 28.203125 65.296875 
C 16.296875 65.296875 3.796875 52.96875 3.796875 31 
C 3.796875 3.953125 15.09375 -2 23.09375 -2 
C 32.796875 -2 42 6.671875 42 20.046875 
C 42 32.515625 33.90625 41.59375 23.703125 41.59375 
C 17.59375 41.59375 13.09375 37.609375 10.59375 30.625 
z
M 23.09375 0.390625 
C 10.796875 0.390625 10.796875 18.75 10.796875 22.4375 
C 10.796875 29.625 14.203125 40 23.5 40 
C 25.203125 40 30.09375 40 33.40625 33.125 
C 35.203125 29.21875 35.203125 25.140625 35.203125 20.140625 
C 35.203125 14.75 35.203125 10.78125 33.09375 6.78125 
C 30.90625 2.671875 27.703125 0.390625 23.09375 0.390625 
z
" id="CMR17-54"/>
      <path d="M 19.5 -0.484375 
C 19.5 5.359375 17.59375 9.671875 13.5 9.671875 
C 10.296875 9.671875 8.703125 7.078125 8.703125 4.890625 
C 8.703125 2.6875 10.203125 0 13.59375 0 
C 14.90625 0 16 0.40625 16.90625 1.296875 
C 17.09375 1.5 17.203125 1.5 17.296875 1.5 
C 17.5 1.5 17.5 0.078125 17.5 -0.421875 
C 17.5 -3.75 16.90625 -10.296875 11.09375 -16.875 
C 10 -18.078125 10 -18.28125 10 -18.484375 
C 10 -19 10.5 -19.5 11 -19.5 
C 11.796875 -19.5 19.5 -12.046875 19.5 -0.484375 
z
" id="CMMI12-59"/>
      <path d="M 29.203125 67.59375 
L 29.203125 65 
C 35.09375 65 36 64.40625 36 59.6875 
L 36 36.640625 
C 35.59375 37.140625 31.5 43.59375 23.40625 43.59375 
C 13.203125 43.59375 3.296875 34.5 3.296875 21.3125 
C 3.296875 8.203125 12.59375 -1 22.40625 -1 
C 30.90625 -1 35.296875 5.265625 35.796875 5.9375 
L 35.796875 -0.984375 
L 47.90625 -0.984375 
L 47.90625 2 
C 42 2 41.09375 2.59375 41.09375 7.390625 
L 41.09375 68.6875 
z
M 35.796875 11.796875 
C 35.796875 8.796875 34 6.09375 31.703125 4.09375 
C 28.296875 1.09375 24.90625 0.59375 23 0.59375 
C 20.09375 0.59375 9.703125 2.09375 9.703125 21.1875 
C 9.703125 40.8125 21.296875 42 23.90625 42 
C 28.5 42 32.203125 39.40625 34.5 35.796875 
C 35.796875 33.703125 35.796875 33.40625 35.796875 31.609375 
z
" id="CMR17-100"/>
      <path d="M 22.09375 33.703125 
C 31 33.703125 34.90625 25.96875 34.90625 17.03125 
C 34.90625 5 28.5 0.390625 22.703125 0.390625 
C 17.40625 0.390625 8.796875 3.03125 6.09375 10.828125 
C 6.59375 10.625 7.09375 10.625 7.59375 10.625 
C 10 10.625 11.796875 12.21875 11.796875 14.8125 
C 11.796875 17.703125 9.59375 19 7.59375 19 
C 5.90625 19 3.296875 18.203125 3.296875 14.46875 
C 3.296875 5.234375 12.296875 -2 22.90625 -2 
C 34 -2 42.5 6.71875 42.5 16.953125 
C 42.5 26.671875 34.5 33.703125 25 34.796875 
C 32.59375 36.375 39.90625 43.0625 39.90625 52.015625 
C 39.90625 59.6875 32 65.296875 23 65.296875 
C 13.90625 65.296875 5.90625 59.828125 5.90625 52.015625 
C 5.90625 48.59375 8.5 48 9.796875 48 
C 11.90625 48 13.703125 49.296875 13.703125 51.890625 
C 13.703125 54.46875 11.90625 55.765625 9.796875 55.765625 
C 9.40625 55.765625 8.90625 55.765625 8.5 55.578125 
C 11.40625 61.859375 19.296875 63 22.796875 63 
C 26.296875 63 32.90625 61.328125 32.90625 51.875 
C 32.90625 49.109375 32.5 44.1875 29.09375 39.84375 
C 26.09375 36 22.703125 36 19.40625 35.6875 
C 18.90625 35.6875 16.59375 35.453125 16.203125 35.453125 
C 15.5 35.359375 15.09375 35.265625 15.09375 34.5 
C 15.09375 33.796875 15.203125 33.703125 17.203125 33.703125 
z
" id="CMR17-51"/>
      <path d="M 45.09375 61.578125 
L 45.09375 63.765625 
L 21.59375 63.765625 
C 9.90625 63.765625 9.703125 65.078125 9.296875 67 
L 7.5 67 
L 4.59375 48.34375 
L 6.40625 48.34375 
C 6.703125 50.234375 7.40625 55.3125 8.59375 57.203125 
C 9.203125 58 16.59375 58 18.296875 58 
L 40.296875 58 
L 29.203125 41.578125 
C 21.796875 30.53125 16.703125 15.609375 16.703125 2.578125 
C 16.703125 1.390625 16.703125 -2 20.296875 -2 
C 23.90625 -2 23.90625 1.390625 23.90625 2.671875 
L 23.90625 7.265625 
C 23.90625 23.5625 26.703125 34.3125 31.296875 41.1875 
z
" id="CMR17-55"/>
     </defs>
     <use transform="scale(0.996264)" xlink:href="#CMMI12-78"/>
     <use transform="translate(116.195781 0)scale(0.996264)" xlink:href="#CMR17-61"/>
     <use transform="translate(215.584578 0)scale(0.996264)" xlink:href="#CMR17-50"/>
     <use transform="translate(261.275056 0)scale(0.996264)" xlink:href="#CMR17-54"/>
     <use transform="translate(306.965533 0)scale(0.996264)" xlink:href="#CMR17-48"/>
     <use transform="translate(352.65601 0)scale(0.996264)" xlink:href="#CMMI12-59"/>
     <use transform="translate(396.357592 0)scale(0.996264)" xlink:href="#CMMI12-78"/>
     <use transform="translate(474.472711 -14.943915)scale(0.697382)" xlink:href="#CMR17-105"/>
     <use transform="translate(491.88237 -14.943915)scale(0.697382)" xlink:href="#CMR17-110"/>
     <use transform="translate(527.508978 -14.943915)scale(0.697382)" xlink:href="#CMR17-100"/>
     <use transform="translate(591.307727 0)scale(0.996264)" xlink:href="#CMR17-61"/>
     <use transform="translate(690.696524 0)scale(0.996264)" xlink:href="#CMR17-51"/>
     <use transform="translate(736.387002 0)scale(0.996264)" xlink:href="#CMR17-55"/>
     <use transform="translate(782.077479 0)scale(0.996264)" xlink:href="#CMR17-49"/>
    </g>
   </g>
  </g>
  <g id="axes_3">
   <g id="patch_12">
    <path d="M 77.282672 440.295773 
L 702.72 440.295773 
L 702.72 355.098436 
L 77.282672 355.098436 
z
" style="fill:#ffffff;"/>
   </g>
   <g id="matplotlib.axis_5">
    <g id="xtick_15">
     <g id="line2d_23">
      <g>
       <use style="stroke:#000000;stroke-width:0.8;" x="96.686572" xlink:href="#mc796658de5" y="440.295773"/>
      </g>
     </g>
     <g id="text_12">
      <!-- $\mathdefault{0}$ -->
      <g transform="translate(92.784578 458.365361)scale(0.16 -0.16)">
       <use transform="scale(0.996264)" xlink:href="#CMR17-48"/>
      </g>
     </g>
    </g>
    <g id="xtick_16">
     <g id="line2d_24">
      <g>
       <use style="stroke:#000000;stroke-width:0.8;" x="186.937268" xlink:href="#mc796658de5" y="440.295773"/>
      </g>
     </g>
     <g id="text_13">
      <!-- $\mathdefault{10}$ -->
      <g transform="translate(179.133281 458.365361)scale(0.16 -0.16)">
       <use transform="scale(0.996264)" xlink:href="#CMR17-49"/>
       <use transform="translate(45.690477 0)scale(0.996264)" xlink:href="#CMR17-48"/>
      </g>
     </g>
    </g>
    <g id="xtick_17">
     <g id="line2d_25">
      <g>
       <use style="stroke:#000000;stroke-width:0.8;" x="277.187965" xlink:href="#mc796658de5" y="440.295773"/>
      </g>
     </g>
     <g id="text_14">
      <!-- $\mathdefault{20}$ -->
      <g transform="translate(269.383978 458.365361)scale(0.16 -0.16)">
       <use transform="scale(0.996264)" xlink:href="#CMR17-50"/>
       <use transform="translate(45.690477 0)scale(0.996264)" xlink:href="#CMR17-48"/>
      </g>
     </g>
    </g>
    <g id="xtick_18">
     <g id="line2d_26">
      <g>
       <use style="stroke:#000000;stroke-width:0.8;" x="367.438662" xlink:href="#mc796658de5" y="440.295773"/>
      </g>
     </g>
     <g id="text_15">
      <!-- $\mathdefault{30}$ -->
      <g transform="translate(359.634675 458.365361)scale(0.16 -0.16)">
       <use transform="scale(0.996264)" xlink:href="#CMR17-51"/>
       <use transform="translate(45.690477 0)scale(0.996264)" xlink:href="#CMR17-48"/>
      </g>
     </g>
    </g>
    <g id="xtick_19">
     <g id="line2d_27">
      <g>
       <use style="stroke:#000000;stroke-width:0.8;" x="457.689358" xlink:href="#mc796658de5" y="440.295773"/>
      </g>
     </g>
     <g id="text_16">
      <!-- $\mathdefault{40}$ -->
      <g transform="translate(449.885371 458.365361)scale(0.16 -0.16)">
       <use transform="scale(0.996264)" xlink:href="#CMR17-52"/>
       <use transform="translate(45.690477 0)scale(0.996264)" xlink:href="#CMR17-48"/>
      </g>
     </g>
    </g>
    <g id="xtick_20">
     <g id="line2d_28">
      <g>
       <use style="stroke:#000000;stroke-width:0.8;" x="547.940055" xlink:href="#mc796658de5" y="440.295773"/>
      </g>
     </g>
     <g id="text_17">
      <!-- $\mathdefault{50}$ -->
      <g transform="translate(540.136068 458.365361)scale(0.16 -0.16)">
       <use transform="scale(0.996264)" xlink:href="#CMR17-53"/>
       <use transform="translate(45.690477 0)scale(0.996264)" xlink:href="#CMR17-48"/>
      </g>
     </g>
    </g>
    <g id="xtick_21">
     <g id="line2d_29">
      <g>
       <use style="stroke:#000000;stroke-width:0.8;" x="638.190752" xlink:href="#mc796658de5" y="440.295773"/>
      </g>
     </g>
     <g id="text_18">
      <!-- $\mathdefault{60}$ -->
      <g transform="translate(630.386765 458.365361)scale(0.16 -0.16)">
       <use transform="scale(0.996264)" xlink:href="#CMR17-54"/>
       <use transform="translate(45.690477 0)scale(0.996264)" xlink:href="#CMR17-48"/>
      </g>
     </g>
    </g>
    <g id="text_19">
     <!-- $\Delta$ -->
     <g transform="translate(380.770988 482.069243)scale(0.24 -0.24)">
      <defs>
       <path d="M 40.59375 68.796875 
C 39.796875 70.5 39.40625 70.5 38.59375 70.5 
C 37.40625 70.5 37.296875 70.296875 36.59375 68.890625 
L 4.203125 1.703125 
C 4.09375 1.5 3.703125 0.59375 3.703125 0.5 
C 3.703125 0.09375 3.796875 0 5.59375 0 
L 71.5 0 
C 73.296875 0 73.40625 0.09375 73.40625 0.5 
C 73.40625 0.59375 73 1.5 72.90625 1.703125 
z
M 36.09375 63.09375 
L 63.796875 5.59375 
L 8.296875 5.59375 
z
" id="CMR17-1"/>
      </defs>
      <use transform="scale(0.996264)" xlink:href="#CMR17-1"/>
     </g>
    </g>
   </g>
   <g id="matplotlib.axis_6">
    <g id="ytick_5">
     <g id="line2d_30">
      <g>
       <use style="stroke:#000000;stroke-width:0.8;" x="77.282672" xlink:href="#m1ad9c4416b" y="439.528671"/>
      </g>
     </g>
     <g id="text_20">
      <!-- $\mathdefault{2}$ -->
      <g transform="translate(50.080689 445.063465)scale(0.16 -0.16)">
       <defs>
        <path d="M 65.90625 23 
C 67.59375 23 69.40625 23 69.40625 25 
C 69.40625 27 67.59375 27 65.90625 27 
L 11.796875 27 
C 10.09375 27 8.296875 27 8.296875 25 
C 8.296875 23 10.09375 23 11.796875 23 
z
" id="CMSY10-0"/>
       </defs>
       <use transform="scale(0.996264)" xlink:href="#CMSY10-0"/>
       <use transform="translate(77.487468 0)scale(0.996264)" xlink:href="#CMR17-50"/>
      </g>
     </g>
    </g>
    <g id="ytick_6">
     <g id="line2d_31">
      <g>
       <use style="stroke:#000000;stroke-width:0.8;" x="77.282672" xlink:href="#m1ad9c4416b" y="388.583429"/>
      </g>
     </g>
     <g id="text_21">
      <!-- $\mathdefault{0}$ -->
      <g transform="translate(62.478685 394.118223)scale(0.16 -0.16)">
       <use transform="scale(0.996264)" xlink:href="#CMR17-48"/>
      </g>
     </g>
    </g>
    <g id="text_22">
     <!-- $\Gamma(\Delta)$ -->
     <g transform="translate(40.12311 422.280598)rotate(-90)scale(0.24 -0.24)">
      <defs>
       <path d="M 51.796875 68 
L 5.09375 68 
L 5.09375 65.40625 
C 12 65.40625 13.09375 65.40625 13.09375 60.90625 
L 13.09375 7 
C 13.09375 2.5 12 2.5 5.09375 2.5 
L 5.09375 0 
C 8 0 13.59375 0 16.703125 0 
C 20.796875 0 25.59375 0 29.703125 0 
L 29.703125 2.5 
L 27.5 2.5 
C 19.90625 2.5 19.703125 3.5 19.703125 7.109375 
L 19.703125 61.5 
C 19.703125 64.90625 19.90625 65.40625 23.90625 65.40625 
L 34.90625 65.40625 
C 50.09375 65.40625 50.90625 58.40625 52.40625 45.90625 
L 54.203125 45.90625 
z
" id="CMR17-0"/>
      </defs>
      <use transform="scale(0.996264)" xlink:href="#CMR17-0"/>
      <use transform="translate(57.381408 0)scale(0.996264)" xlink:href="#CMR17-40"/>
      <use transform="translate(92.662176 0)scale(0.996264)" xlink:href="#CMR17-1"/>
      <use transform="translate(169.581766 0)scale(0.996264)" xlink:href="#CMR17-41"/>
     </g>
    </g>
    <g id="text_23">
     <!-- $\times\mathdefault{10^{64}}\mathdefault{}$ -->
     <g transform="translate(77.282672 352.098436)scale(0.16 -0.16)">
      <defs>
       <path d="M 38.90625 27.890625 
L 18.90625 47.796875 
C 17.703125 49 17.5 49.1875 16.703125 49.1875 
C 15.703125 49.1875 14.703125 48.296875 14.703125 47.1875 
C 14.703125 46.5 14.90625 46.296875 16 45.1875 
L 36 25.09375 
L 16 5 
C 14.90625 3.890625 14.703125 3.6875 14.703125 3 
C 14.703125 1.890625 15.703125 1 16.703125 1 
C 17.5 1 17.703125 1.1875 18.90625 2.390625 
L 38.796875 22.296875 
L 59.5 1.59375 
C 59.703125 1.5 60.40625 1 61 1 
C 62.203125 1 63 1.890625 63 3 
C 63 3.1875 63 3.59375 62.703125 4.09375 
C 62.59375 4.296875 46.703125 20 41.703125 25.09375 
L 60 43.390625 
C 60.5 44 62 45.296875 62.5 45.890625 
C 62.59375 46.09375 63 46.5 63 47.1875 
C 63 48.296875 62.203125 49.1875 61 49.1875 
C 60.203125 49.1875 59.796875 48.796875 58.703125 47.6875 
z
" id="CMSY10-2"/>
      </defs>
      <use transform="scale(0.996264)" xlink:href="#CMSY10-2"/>
      <use transform="translate(77.487468 0)scale(0.996264)" xlink:href="#CMR17-49"/>
      <use transform="translate(123.177945 0)scale(0.996264)" xlink:href="#CMR17-48"/>
      <use transform="translate(168.868422 36.153639)scale(0.697382)" xlink:href="#CMSY10-0"/>
      <use transform="translate(223.109415 36.153639)scale(0.697382)" xlink:href="#CMR17-54"/>
      <use transform="translate(255.092597 36.153639)scale(0.697382)" xlink:href="#CMR17-52"/>
     </g>
    </g>
   </g>
   <g id="line2d_32">
    <path clip-path="url(#p8c6e1669e8)" d="M 77.282672 388.583429 
L 702.72 388.583429 
" style="fill:none;stroke:#000000;stroke-linecap:square;stroke-width:2;"/>
   </g>
   <g id="line2d_33">
    <path clip-path="url(#p8c6e1669e8)" d="M 105.711641 401.171515 
L 114.736711 411.32444 
L 123.761781 373.835897 
L 132.78685 383.875801 
L 141.81192 395.74202 
L 150.83699 382.407026 
L 159.862059 416.49523 
L 168.887129 390.457259 
L 177.912199 369.216707 
L 186.937268 391.265672 
L 195.962338 387.349347 
L 204.987408 411.771328 
L 214.012477 376.966774 
L 223.037547 383.70449 
L 232.062617 394.826169 
L 241.087686 408.288699 
L 250.112756 398.681058 
L 259.137826 394.661744 
L 268.162895 377.934356 
L 277.187965 386.571112 
L 286.213035 391.870083 
L 295.238104 393.564634 
L 304.263174 388.789464 
L 313.288244 379.779226 
L 322.313313 406.435023 
L 331.338383 391.166289 
L 340.363453 415.582512 
L 349.388522 374.262517 
L 358.413592 371.164129 
L 367.438662 373.92599 
L 376.463731 381.651734 
L 385.488801 391.276772 
L 394.513871 408.175407 
L 403.53894 386.923227 
L 412.56401 391.086333 
L 421.58908 386.664458 
L 430.614149 397.229968 
L 439.639219 373.80079 
L 448.664289 359.88941 
L 457.689358 392.886652 
L 466.714428 378.223775 
L 475.739498 394.338526 
L 484.764567 396.759126 
L 493.789637 419.466797 
L 502.814707 376.314091 
L 511.839776 413.309876 
L 520.864846 391.633558 
L 529.889916 384.980006 
L 538.914985 382.301024 
L 547.940055 367.970941 
L 556.965125 381.539164 
L 565.990194 407.638255 
L 575.015264 379.533061 
L 584.040334 376.59355 
L 593.065404 436.423167 
L 602.090473 389.233336 
L 611.115543 403.428555 
L 620.140613 390.130943 
L 629.165682 362.183403 
L 638.190752 358.971042 
L 647.215822 408.209782 
L 656.240891 387.661253 
L 665.265961 394.714702 
L 674.291031 376.079469 
" style="fill:none;stroke:#0000ff;stroke-linecap:square;stroke-width:2;"/>
    <g clip-path="url(#p8c6e1669e8)">
     <use style="fill:#0000ff;stroke:#0000ff;" x="105.711641" xlink:href="#m7948615663" y="401.171515"/>
     <use style="fill:#0000ff;stroke:#0000ff;" x="114.736711" xlink:href="#m7948615663" y="411.32444"/>
     <use style="fill:#0000ff;stroke:#0000ff;" x="123.761781" xlink:href="#m7948615663" y="373.835897"/>
     <use style="fill:#0000ff;stroke:#0000ff;" x="132.78685" xlink:href="#m7948615663" y="383.875801"/>
     <use style="fill:#0000ff;stroke:#0000ff;" x="141.81192" xlink:href="#m7948615663" y="395.74202"/>
     <use style="fill:#0000ff;stroke:#0000ff;" x="150.83699" xlink:href="#m7948615663" y="382.407026"/>
     <use style="fill:#0000ff;stroke:#0000ff;" x="159.862059" xlink:href="#m7948615663" y="416.49523"/>
     <use style="fill:#0000ff;stroke:#0000ff;" x="168.887129" xlink:href="#m7948615663" y="390.457259"/>
     <use style="fill:#0000ff;stroke:#0000ff;" x="177.912199" xlink:href="#m7948615663" y="369.216707"/>
     <use style="fill:#0000ff;stroke:#0000ff;" x="186.937268" xlink:href="#m7948615663" y="391.265672"/>
     <use style="fill:#0000ff;stroke:#0000ff;" x="195.962338" xlink:href="#m7948615663" y="387.349347"/>
     <use style="fill:#0000ff;stroke:#0000ff;" x="204.987408" xlink:href="#m7948615663" y="411.771328"/>
     <use style="fill:#0000ff;stroke:#0000ff;" x="214.012477" xlink:href="#m7948615663" y="376.966774"/>
     <use style="fill:#0000ff;stroke:#0000ff;" x="223.037547" xlink:href="#m7948615663" y="383.70449"/>
     <use style="fill:#0000ff;stroke:#0000ff;" x="232.062617" xlink:href="#m7948615663" y="394.826169"/>
     <use style="fill:#0000ff;stroke:#0000ff;" x="241.087686" xlink:href="#m7948615663" y="408.288699"/>
     <use style="fill:#0000ff;stroke:#0000ff;" x="250.112756" xlink:href="#m7948615663" y="398.681058"/>
     <use style="fill:#0000ff;stroke:#0000ff;" x="259.137826" xlink:href="#m7948615663" y="394.661744"/>
     <use style="fill:#0000ff;stroke:#0000ff;" x="268.162895" xlink:href="#m7948615663" y="377.934356"/>
     <use style="fill:#0000ff;stroke:#0000ff;" x="277.187965" xlink:href="#m7948615663" y="386.571112"/>
     <use style="fill:#0000ff;stroke:#0000ff;" x="286.213035" xlink:href="#m7948615663" y="391.870083"/>
     <use style="fill:#0000ff;stroke:#0000ff;" x="295.238104" xlink:href="#m7948615663" y="393.564634"/>
     <use style="fill:#0000ff;stroke:#0000ff;" x="304.263174" xlink:href="#m7948615663" y="388.789464"/>
     <use style="fill:#0000ff;stroke:#0000ff;" x="313.288244" xlink:href="#m7948615663" y="379.779226"/>
     <use style="fill:#0000ff;stroke:#0000ff;" x="322.313313" xlink:href="#m7948615663" y="406.435023"/>
     <use style="fill:#0000ff;stroke:#0000ff;" x="331.338383" xlink:href="#m7948615663" y="391.166289"/>
     <use style="fill:#0000ff;stroke:#0000ff;" x="340.363453" xlink:href="#m7948615663" y="415.582512"/>
     <use style="fill:#0000ff;stroke:#0000ff;" x="349.388522" xlink:href="#m7948615663" y="374.262517"/>
     <use style="fill:#0000ff;stroke:#0000ff;" x="358.413592" xlink:href="#m7948615663" y="371.164129"/>
     <use style="fill:#0000ff;stroke:#0000ff;" x="367.438662" xlink:href="#m7948615663" y="373.92599"/>
     <use style="fill:#0000ff;stroke:#0000ff;" x="376.463731" xlink:href="#m7948615663" y="381.651734"/>
     <use style="fill:#0000ff;stroke:#0000ff;" x="385.488801" xlink:href="#m7948615663" y="391.276772"/>
     <use style="fill:#0000ff;stroke:#0000ff;" x="394.513871" xlink:href="#m7948615663" y="408.175407"/>
     <use style="fill:#0000ff;stroke:#0000ff;" x="403.53894" xlink:href="#m7948615663" y="386.923227"/>
     <use style="fill:#0000ff;stroke:#0000ff;" x="412.56401" xlink:href="#m7948615663" y="391.086333"/>
     <use style="fill:#0000ff;stroke:#0000ff;" x="421.58908" xlink:href="#m7948615663" y="386.664458"/>
     <use style="fill:#0000ff;stroke:#0000ff;" x="430.614149" xlink:href="#m7948615663" y="397.229968"/>
     <use style="fill:#0000ff;stroke:#0000ff;" x="439.639219" xlink:href="#m7948615663" y="373.80079"/>
     <use style="fill:#0000ff;stroke:#0000ff;" x="448.664289" xlink:href="#m7948615663" y="359.88941"/>
     <use style="fill:#0000ff;stroke:#0000ff;" x="457.689358" xlink:href="#m7948615663" y="392.886652"/>
     <use style="fill:#0000ff;stroke:#0000ff;" x="466.714428" xlink:href="#m7948615663" y="378.223775"/>
     <use style="fill:#0000ff;stroke:#0000ff;" x="475.739498" xlink:href="#m7948615663" y="394.338526"/>
     <use style="fill:#0000ff;stroke:#0000ff;" x="484.764567" xlink:href="#m7948615663" y="396.759126"/>
     <use style="fill:#0000ff;stroke:#0000ff;" x="493.789637" xlink:href="#m7948615663" y="419.466797"/>
     <use style="fill:#0000ff;stroke:#0000ff;" x="502.814707" xlink:href="#m7948615663" y="376.314091"/>
     <use style="fill:#0000ff;stroke:#0000ff;" x="511.839776" xlink:href="#m7948615663" y="413.309876"/>
     <use style="fill:#0000ff;stroke:#0000ff;" x="520.864846" xlink:href="#m7948615663" y="391.633558"/>
     <use style="fill:#0000ff;stroke:#0000ff;" x="529.889916" xlink:href="#m7948615663" y="384.980006"/>
     <use style="fill:#0000ff;stroke:#0000ff;" x="538.914985" xlink:href="#m7948615663" y="382.301024"/>
     <use style="fill:#0000ff;stroke:#0000ff;" x="547.940055" xlink:href="#m7948615663" y="367.970941"/>
     <use style="fill:#0000ff;stroke:#0000ff;" x="556.965125" xlink:href="#m7948615663" y="381.539164"/>
     <use style="fill:#0000ff;stroke:#0000ff;" x="565.990194" xlink:href="#m7948615663" y="407.638255"/>
     <use style="fill:#0000ff;stroke:#0000ff;" x="575.015264" xlink:href="#m7948615663" y="379.533061"/>
     <use style="fill:#0000ff;stroke:#0000ff;" x="584.040334" xlink:href="#m7948615663" y="376.59355"/>
     <use style="fill:#0000ff;stroke:#0000ff;" x="593.065404" xlink:href="#m7948615663" y="436.423167"/>
     <use style="fill:#0000ff;stroke:#0000ff;" x="602.090473" xlink:href="#m7948615663" y="389.233336"/>
     <use style="fill:#0000ff;stroke:#0000ff;" x="611.115543" xlink:href="#m7948615663" y="403.428555"/>
     <use style="fill:#0000ff;stroke:#0000ff;" x="620.140613" xlink:href="#m7948615663" y="390.130943"/>
     <use style="fill:#0000ff;stroke:#0000ff;" x="629.165682" xlink:href="#m7948615663" y="362.183403"/>
     <use style="fill:#0000ff;stroke:#0000ff;" x="638.190752" xlink:href="#m7948615663" y="358.971042"/>
     <use style="fill:#0000ff;stroke:#0000ff;" x="647.215822" xlink:href="#m7948615663" y="408.209782"/>
     <use style="fill:#0000ff;stroke:#0000ff;" x="656.240891" xlink:href="#m7948615663" y="387.661253"/>
     <use style="fill:#0000ff;stroke:#0000ff;" x="665.265961" xlink:href="#m7948615663" y="394.714702"/>
     <use style="fill:#0000ff;stroke:#0000ff;" x="674.291031" xlink:href="#m7948615663" y="376.079469"/>
    </g>
   </g>
   <g id="line2d_34">
    <path clip-path="url(#p8c6e1669e8)" d="M 114.736711 411.32444 
" style="fill:none;stroke:#ff0000;stroke-linecap:square;stroke-width:2;"/>
    <g clip-path="url(#p8c6e1669e8)">
     <use style="fill:#ff0000;stroke:#ff0000;" x="114.736711" xlink:href="#m2dbee8162c" y="411.32444"/>
    </g>
   </g>
   <g id="patch_13">
    <path d="M 77.282672 440.295773 
L 77.282672 355.098436 
" style="fill:none;stroke:#000000;stroke-linecap:square;stroke-linejoin:miter;stroke-width:0.8;"/>
   </g>
   <g id="patch_14">
    <path d="M 702.72 440.295773 
L 702.72 355.098436 
" style="fill:none;stroke:#000000;stroke-linecap:square;stroke-linejoin:miter;stroke-width:0.8;"/>
   </g>
   <g id="patch_15">
    <path d="M 77.282672 440.295773 
L 702.72 440.295773 
" style="fill:none;stroke:#000000;stroke-linecap:square;stroke-linejoin:miter;stroke-width:0.8;"/>
   </g>
   <g id="patch_16">
    <path d="M 77.282672 355.098436 
L 702.72 355.098436 
" style="fill:none;stroke:#000000;stroke-linecap:square;stroke-linejoin:miter;stroke-width:0.8;"/>
   </g>
  </g>
  <g id="text_24">
   <!-- L32 beta11p5 kappa0p1515 Buchoff bary 3u1d com2 Spin0 -->
   <g transform="translate(134.775903 23.363515)scale(0.192 -0.192)">
    <defs>
     <path d="M 54.203125 25.234375 
L 52.40625 25.234375 
C 51.59375 15.359375 50.296875 2.59375 33.203125 2.59375 
L 23.90625 2.59375 
C 19.90625 2.59375 19.703125 3.078125 19.703125 6.46875 
L 19.703125 60.90625 
C 19.703125 64.515625 19.90625 65.5 27.5 65.5 
L 29.703125 65.5 
L 29.703125 68 
C 25.59375 68 20.796875 68 16.703125 68 
C 13.59375 68 8 68 5.09375 68 
L 5.09375 65.5 
C 12 65.5 13.09375 65.5 13.09375 61.015625 
L 13.09375 7.0625 
C 13.09375 2.59375 12 2.59375 5.09375 2.59375 
L 5.09375 0 
L 51.796875 0 
z
" id="CMR17-76"/>
     <path d="M 15 68.6875 
L 3.09375 67.59375 
L 3.09375 65 
C 9 65 9.90625 64.40625 9.90625 59.640625 
L 9.90625 -0.203125 
L 11.703125 -0.203125 
L 14.59375 6.890625 
C 17.5 2.203125 21.796875 -1 27.59375 -1 
C 37.59375 -1 47.703125 7.8125 47.703125 21.40625 
C 47.703125 34.1875 38.703125 43.59375 28.59375 43.59375 
C 22.40625 43.59375 18 40.296875 15 36.40625 
z
M 15.203125 31.3125 
C 15.203125 33.09375 15.203125 33.40625 16.59375 35.5 
C 20.5 41.515625 26.09375 42 28 42 
C 31 42 41.296875 40.390625 41.296875 21.5 
C 41.296875 1.6875 29.5 0.59375 27.09375 0.59375 
C 24 0.59375 19.5 1.78125 16.296875 7.59375 
C 15.203125 9.5 15.203125 9.703125 15.203125 11.484375 
z
" id="CMR17-98"/>
     <path d="M 38.09375 23 
C 38.5 23.40625 38.5 23.609375 38.5 24.625 
C 38.5 34.96875 33.09375 44 21.703125 44 
C 11.09375 44 2.703125 33.890625 2.703125 21.609375 
C 2.703125 8.609375 12.203125 -1 22.796875 -1 
C 34 -1 38.40625 9.484375 38.40625 11.5625 
C 38.40625 12.25 37.796875 12.25 37.59375 12.25 
C 36.90625 12.25 36.796875 12.046875 36.40625 10.875 
C 34.203125 4.140625 28.703125 0.796875 23.5 0.796875 
C 19.203125 0.796875 14.90625 3.171875 12.203125 7.5 
C 9.09375 12.546875 9.09375 18.375 9.09375 23 
z
M 9.203125 24.5 
C 9.90625 39.140625 17.59375 42.40625 21.59375 42.40625 
C 28.40625 42.40625 33 35.890625 33.09375 24.5 
z
" id="CMR17-101"/>
     <path d="M 36 25.828125 
C 36 32.375 36 35.84375 31.796875 39.734375 
C 28.09375 43 23.796875 44 20.40625 44 
C 12.5 44 6.796875 37.609375 6.796875 30.796875 
C 6.796875 27 9.796875 27 10.40625 27 
C 11.703125 27 14 27.78125 14 30.53125 
C 14 33 12.09375 34.078125 10.40625 34.078125 
C 10 34.078125 9.5 33.96875 9.203125 33.875 
C 11.296875 40.5 16.703125 42.40625 20.203125 42.40625 
C 25.203125 42.40625 30.703125 37.953125 30.703125 29.453125 
L 30.703125 25 
C 24.796875 25 17.703125 24.203125 12.09375 21.203125 
C 5.796875 17.703125 4 12.703125 4 8.90625 
C 4 1.203125 13 -1 18.296875 -1 
C 23.796875 -1 28.90625 2.171875 31.09375 7.984375 
C 31.296875 3.640625 34.09375 -0.28125 38.5 -0.28125 
C 40.59375 -0.28125 45.90625 1.09375 45.90625 8.859375 
L 45.90625 14.375 
L 44.09375 14.375 
L 44.09375 8.78125 
C 44.09375 2.78125 41.40625 2 40.09375 2 
C 36 2 36 7.15625 36 11.53125 
z
M 30.703125 13.59375 
C 30.703125 4.953125 24.5 0.59375 19 0.59375 
C 14 0.59375 10.09375 4.296875 10.09375 8.90625 
C 10.09375 11.890625 11.40625 17.1875 17.203125 20.390625 
C 22 23.09375 27.5 23.5 30.703125 23.5 
z
" id="CMR17-97"/>
     <path d="M 26.09375 26.140625 
C 26 26.34375 25.5 26.9375 25.5 27.234375 
C 25.5 27.4375 32.59375 33.921875 33.5 34.71875 
C 39.203125 39.5 42.796875 40 45.40625 40 
L 45.40625 42.703125 
C 44.796875 42.703125 44.59375 42.703125 44.5 42.5 
L 39.59375 42.5 
C 36.796875 42.5 32.5 42.5 29.796875 42.703125 
L 29.796875 40.09375 
C 31.203125 39.984375 32.203125 39.1875 32.203125 37.796875 
C 32.203125 35.796875 30.203125 33.90625 30.09375 33.90625 
L 15 20.140625 
L 15 68.6875 
L 3.09375 67.59375 
L 3.09375 65 
C 9 65 9.90625 64.40625 9.90625 59.640625 
L 9.90625 6.65625 
C 9.90625 2.875 9.5 2.390625 3.09375 2.390625 
L 3.09375 -0.203125 
C 5.5 0 9.90625 0 12.40625 0 
C 14.90625 0 19.296875 0 21.703125 -0.203125 
L 21.703125 2.390625 
C 15.296875 2.390625 14.90625 2.78125 14.90625 6.6875 
L 14.90625 17.65625 
L 21.796875 23.9375 
L 31.90625 8.96875 
C 33.09375 7.171875 34.09375 5.765625 34.09375 4.46875 
C 34.09375 2.6875 32.296875 2.390625 31.09375 2.390625 
L 31.09375 -0.203125 
C 33.5 0 37.796875 0 40.296875 0 
C 42.09375 0 45.796875 0 47.5 0 
L 47.5 2.390625 
C 42.796875 2.390625 41.703125 3.28125 38.703125 7.671875 
z
" id="CMR17-107"/>
     <path d="M 5.203125 68 
L 5.203125 65.40625 
C 12.09375 65.40625 13.203125 65.40625 13.203125 60.9375 
L 13.203125 7.0625 
C 13.203125 2.59375 12.09375 2.59375 5.203125 2.59375 
L 5.203125 0 
L 39.59375 0 
C 52.40625 0 60.703125 9.109375 60.703125 18.1875 
C 60.703125 27.203125 52.5 34.890625 41.796875 34.890625 
C 51.40625 36.8125 58.09375 43.296875 58.09375 51 
C 58.09375 59.40625 49.90625 68 37 68 
z
M 19.5 36 
L 19.5 61.515625 
C 19.5 64.921875 19.703125 65.40625 23.703125 65.40625 
L 36.5 65.40625 
C 46.40625 65.40625 50.796875 57.40625 50.796875 51.203125 
C 50.796875 43.609375 44.703125 36 33.90625 36 
z
M 23.703125 2.59375 
C 19.703125 2.59375 19.5 3.078125 19.5 6.453125 
L 19.5 34.40625 
L 38 34.40625 
C 48.296875 34.40625 53.296875 25.390625 53.296875 18.15625 
C 53.296875 10.921875 47.59375 2.59375 36.703125 2.59375 
z
" id="CMR17-66"/>
     <path d="M 29.40625 42.078125 
L 29.40625 39.5 
C 35.296875 39.5 36.203125 38.890625 36.203125 34.15625 
L 36.203125 16.125 
C 36.203125 7.8125 31.703125 0.59375 24.296875 0.59375 
C 16.09375 0.59375 15.40625 5.4375 15.40625 10.59375 
L 15.40625 43.171875 
L 3.296875 42.078125 
L 3.296875 39.5 
C 7.296875 39.5 10 39.5 10.09375 35.53125 
L 10.09375 16.53125 
C 10.09375 9.890625 10.09375 5.640625 12.703125 2.859375 
C 14 1.578125 16.5 -1 23.703125 -1 
C 32.203125 -1 35.5 5.890625 36.296875 7.90625 
L 36.40625 7.90625 
L 36.40625 -0.984375 
L 48.296875 -0.984375 
L 48.296875 2 
C 42.40625 2 41.5 2.59375 41.5 7.390625 
L 41.5 43.171875 
z
" id="CMR17-117"/>
     <path d="M 34.90625 35 
C 33 35 30.203125 35 30.203125 31.515625 
C 30.203125 28.71875 32.5 27.921875 33.796875 27.921875 
C 34.5 27.921875 37.40625 28.234375 37.40625 31.625 
C 37.40625 38.546875 30.59375 43.796875 22.90625 43.796875 
C 12.296875 43.796875 3.296875 34.03125 3.296875 21.296875 
C 3.296875 8.0625 12.703125 -1 22.90625 -1 
C 35.296875 -1 38.40625 10.578125 38.40625 11.6875 
C 38.40625 12.09375 38.296875 12.390625 37.59375 12.390625 
C 36.90625 12.390625 36.796875 12.296875 36.40625 10.984375 
C 33.796875 2.8125 28.09375 0.796875 23.796875 0.796875 
C 17.40625 0.796875 9.703125 6.671875 9.703125 21.390625 
C 9.703125 36.53125 17.09375 42 23 42 
C 26.90625 42 32.703125 40.203125 34.90625 35 
z
" id="CMR17-99"/>
     <path d="M 41.5 30.203125 
C 41.5 35.296875 40.5 43.59375 28.703125 43.59375 
C 20.5 43.59375 16.5 37 15.296875 33.703125 
L 15.203125 33.703125 
L 15.203125 68.6875 
L 3.296875 67.59375 
L 3.296875 65 
C 9.203125 65 10.09375 64.40625 10.09375 59.640625 
L 10.09375 6.65625 
C 10.09375 2.875 9.703125 2.390625 3.296875 2.390625 
L 3.296875 -0.203125 
C 5.703125 0 10.09375 0 12.703125 0 
C 15.296875 0 19.796875 0 22.203125 -0.203125 
L 22.203125 2.390625 
C 15.796875 2.390625 15.40625 2.78125 15.40625 6.6875 
L 15.40625 25.90625 
C 15.40625 35.109375 21 42 28 42 
C 35.40625 42 36.203125 35.40625 36.203125 30.59375 
L 36.203125 6.6875 
C 36.203125 2.875 35.796875 2.390625 29.40625 2.390625 
L 29.40625 -0.203125 
C 31.796875 0 36.203125 0 38.796875 0 
C 41.40625 0 45.90625 0 48.296875 -0.203125 
L 48.296875 2.390625 
C 41.90625 2.390625 41.5 2.78125 41.5 6.6875 
z
" id="CMR17-104"/>
     <path d="M 39.90625 40 
L 51.296875 40 
L 51.296875 42.578125 
L 39.703125 42.578125 
L 39.703125 54.59375 
C 39.703125 62.84375 43.90625 68 48.203125 68 
C 49.5 68 51 67.609375 52 66.90625 
C 51.203125 66.703125 49.09375 66.015625 49.09375 63.546875 
C 49.09375 60.953125 51.09375 60.15625 52.5 60.15625 
C 53.90625 60.15625 55.90625 60.953125 55.90625 63.546875 
C 55.90625 67.3125 52.296875 69.59375 48.296875 69.59375 
C 44.40625 69.59375 41.203125 67.703125 38.703125 65.328125 
C 36.40625 68.59375 32.59375 69.59375 28.703125 69.59375 
C 20.90625 69.59375 9.90625 65.125 9.90625 54.203125 
L 9.90625 42.578125 
L 1.90625 42.578125 
L 1.90625 40 
L 9.90625 40 
L 9.90625 6.671875 
C 9.90625 2.875 9.5 2.390625 3.09375 2.390625 
L 3.09375 -0.203125 
C 5.5 0 9.90625 0 12.40625 0 
C 15 0 19.40625 0 21.796875 -0.203125 
L 21.796875 2.390625 
C 15.40625 2.390625 15 2.78125 15 6.671875 
L 15 40 
L 34.796875 40 
L 34.796875 6.671875 
C 34.796875 2.875 34.40625 2.390625 28 2.390625 
L 28 -0.203125 
C 30.40625 0 35 0 37.59375 0 
C 40.5 0 45.59375 0 48.296875 -0.203125 
L 48.296875 2.390625 
C 41.09375 2.390625 39.90625 2.390625 39.90625 6.859375 
z
M 14.796875 42.578125 
L 14.796875 54.203125 
C 14.796875 63.234375 21.796875 68 28.5 68 
C 30 68 33.90625 67.6875 36.296875 65.421875 
C 34.5 65.421875 32.796875 64.625 32.796875 62.140625 
C 32.796875 59.5625 35.09375 58.859375 35.296875 58.859375 
C 34.796875 57.0625 34.796875 55.09375 34.796875 54.390625 
L 34.796875 42.578125 
z
" id="CMR17-11"/>
     <path d="M 15 23.390625 
C 15 33 19.09375 42 26.59375 42 
C 27.296875 42 28 41.90625 28.703125 41.59375 
C 28.703125 41.59375 26.5 40.890625 26.5 38.3125 
C 26.5 35.90625 28.40625 34.90625 29.90625 34.90625 
C 31.09375 34.90625 33.296875 35.609375 33.296875 38.40625 
C 33.296875 41.609375 30.09375 43.59375 26.703125 43.59375 
C 19.09375 43.59375 15.796875 36.203125 14.796875 32.703125 
L 14.703125 32.703125 
L 14.703125 43.59375 
L 3.09375 42.5 
L 3.09375 39.90625 
C 9 39.90625 9.90625 39.296875 9.90625 34.5 
L 9.90625 6.6875 
C 9.90625 2.875 9.5 2.390625 3.09375 2.390625 
L 3.09375 -0.203125 
C 5.5 0 10.09375 0 12.703125 0 
C 15.59375 0 20.703125 0 23.40625 -0.203125 
L 23.40625 2.390625 
C 16.203125 2.390625 15 2.390625 15 6.875 
z
" id="CMR17-114"/>
     <path d="M 39 34.328125 
C 41.5 40.40625 46 40.40625 47.40625 40.40625 
L 47.40625 43 
C 45.5 43 43 43 41.09375 43 
C 39 43 35.703125 43 33.703125 43.09375 
L 33.703125 40.5 
C 37.5 40.203125 37.59375 37.40625 37.59375 36.609375 
C 37.59375 35.625 37.40625 35.125 36.90625 33.921875 
L 26 7.015625 
L 14.09375 36.03125 
C 13.59375 37.21875 13.59375 37.90625 13.59375 38.015625 
C 13.59375 40.203125 15.90625 40.40625 18.296875 40.40625 
L 18.296875 43.09375 
C 15.90625 43 11.59375 43 9.09375 43 
C 6.40625 43 3.203125 43 1 43.09375 
L 1 40.40625 
C 6.40625 40.40625 7 39.90625 8.296875 36.71875 
L 23.203125 0.234375 
C 18.703125 -11.53125 16.09375 -18.40625 9.796875 -18.40625 
C 8.703125 -18.40625 6.203125 -18.109375 4.40625 -16.3125 
C 6.703125 -16.109375 7.703125 -14.71875 7.703125 -13.015625 
C 7.703125 -11.328125 6.5 -9.828125 4.5 -9.828125 
C 2.296875 -9.828125 1.203125 -11.328125 1.203125 -13.125 
C 1.203125 -17.109375 5.296875 -20 9.796875 -20 
C 15.59375 -20 19.203125 -14.40625 21.203125 -9.4375 
z
" id="CMR17-121"/>
     <path d="M 67.59375 30.203125 
C 67.59375 35.1875 66.703125 43.59375 54.796875 43.59375 
C 48 43.59375 43.296875 39 41.5 33.609375 
L 41.40625 33.609375 
C 40.203125 41.8125 34.296875 43.59375 28.703125 43.59375 
C 20.796875 43.59375 16.703125 37.5 15.203125 33.5 
L 15.09375 33.5 
L 15.09375 43.59375 
L 3.296875 42.5 
L 3.296875 39.90625 
C 9.203125 39.90625 10.09375 39.296875 10.09375 34.5 
L 10.09375 6.6875 
C 10.09375 2.875 9.703125 2.390625 3.296875 2.390625 
L 3.296875 -0.203125 
C 5.703125 0 10.09375 0 12.703125 0 
C 15.296875 0 19.796875 0 22.203125 -0.203125 
L 22.203125 2.390625 
C 15.796875 2.390625 15.40625 2.78125 15.40625 6.6875 
L 15.40625 25.90625 
C 15.40625 35.109375 21 42 28 42 
C 35.40625 42 36.203125 35.40625 36.203125 30.59375 
L 36.203125 6.6875 
C 36.203125 2.875 35.796875 2.390625 29.40625 2.390625 
L 29.40625 -0.203125 
C 31.796875 0 36.203125 0 38.796875 0 
C 41.40625 0 45.90625 0 48.296875 -0.203125 
L 48.296875 2.390625 
C 41.90625 2.390625 41.5 2.78125 41.5 6.6875 
L 41.5 25.90625 
C 41.5 35.109375 47.09375 42 54.09375 42 
C 61.5 42 62.296875 35.40625 62.296875 30.59375 
L 62.296875 6.6875 
C 62.296875 2.875 61.90625 2.390625 55.5 2.390625 
L 55.5 -0.203125 
C 57.90625 0 62.296875 0 64.90625 0 
C 67.5 0 72 0 74.40625 -0.203125 
L 74.40625 2.390625 
C 68 2.390625 67.59375 2.78125 67.59375 6.6875 
z
" id="CMR17-109"/>
     <path d="M 43.796875 67.03125 
C 43.796875 68.8125 43.703125 68.921875 43.09375 68.921875 
C 42.5 68.921875 42.296875 68.515625 41.90625 67.625 
L 38.90625 61.046875 
C 35.09375 66.515625 29.296875 69 23 69 
C 12.796875 69 4.59375 60.953125 4.59375 50.828125 
C 4.59375 47.75 5.296875 43.375 8.703125 39.21875 
C 12.40625 34.65625 15.90625 33.859375 23.90625 31.765625 
C 26.90625 30.96875 31.90625 29.671875 32.90625 29.28125 
C 38.59375 26.90625 41.59375 20.953125 41.59375 15.390625 
C 41.59375 8.234375 36.5 0.59375 27.796875 0.59375 
C 17.09375 0.59375 7.09375 6.546875 6.40625 20.484375 
C 6.296875 22.078125 6.203125 22.171875 5.5 22.171875 
C 4.703125 22.171875 4.59375 22.078125 4.59375 20.078125 
L 4.59375 -0.015625 
C 4.59375 -1.796875 4.703125 -1.90625 5.296875 -1.90625 
C 6 -1.90625 6.203125 -1.40625 7.59375 1.6875 
C 7.703125 1.984375 7.703125 2.1875 9.59375 5.953125 
C 14.59375 -0.609375 23 -2 27.796875 -2 
C 38.703125 -2 46.40625 7.046875 46.40625 17.5625 
C 46.40625 22.71875 44.5 26.6875 43.40625 28.484375 
C 39.203125 34.84375 34.703125 36.03125 29.90625 37.21875 
C 29.203125 37.53125 29 37.53125 23.40625 38.90625 
C 18 40.296875 15.703125 41 13.203125 43.6875 
C 10.40625 46.75 9.40625 49.9375 9.40625 53.109375 
C 9.40625 59.5625 14.59375 66.609375 23.09375 66.609375 
C 33.703125 66.609375 40.296875 59.15625 41.796875 46.765625 
C 42.09375 44.96875 42.203125 44.875 42.90625 44.875 
C 43.796875 44.875 43.796875 45.171875 43.796875 46.859375 
z
" id="CMR17-83"/>
    </defs>
    <use transform="scale(0.996264)" xlink:href="#CMR17-76"/>
    <use transform="translate(57.381408 0)scale(0.996264)" xlink:href="#CMR17-51"/>
    <use transform="translate(103.071885 0)scale(0.996264)" xlink:href="#CMR17-50"/>
    <use transform="translate(178.838328 0)scale(0.996264)" xlink:href="#CMR17-98"/>
    <use transform="translate(232.336137 0)scale(0.996264)" xlink:href="#CMR17-101"/>
    <use transform="translate(272.821797 0)scale(0.996264)" xlink:href="#CMR17-116"/>
    <use transform="translate(308.102565 0)scale(0.996264)" xlink:href="#CMR17-97"/>
    <use transform="translate(353.793042 0)scale(0.996264)" xlink:href="#CMR17-49"/>
    <use transform="translate(399.483519 0)scale(0.996264)" xlink:href="#CMR17-49"/>
    <use transform="translate(445.173997 0)scale(0.996264)" xlink:href="#CMR17-112"/>
    <use transform="translate(496.069366 0)scale(0.996264)" xlink:href="#CMR17-53"/>
    <use transform="translate(571.83581 0)scale(0.996264)" xlink:href="#CMR17-107"/>
    <use transform="translate(614.923909 0)scale(0.996264)" xlink:href="#CMR17-97"/>
    <use transform="translate(660.614386 0)scale(0.996264)" xlink:href="#CMR17-112"/>
    <use transform="translate(711.509756 0)scale(0.996264)" xlink:href="#CMR17-112"/>
    <use transform="translate(762.405126 0)scale(0.996264)" xlink:href="#CMR17-97"/>
    <use transform="translate(808.095603 0)scale(0.996264)" xlink:href="#CMR17-48"/>
    <use transform="translate(853.78608 0)scale(0.996264)" xlink:href="#CMR17-112"/>
    <use transform="translate(904.68145 0)scale(0.996264)" xlink:href="#CMR17-49"/>
    <use transform="translate(950.371927 0)scale(0.996264)" xlink:href="#CMR17-53"/>
    <use transform="translate(996.062404 0)scale(0.996264)" xlink:href="#CMR17-49"/>
    <use transform="translate(1041.752881 0)scale(0.996264)" xlink:href="#CMR17-53"/>
    <use transform="translate(1117.519325 0)scale(0.996264)" xlink:href="#CMR17-66"/>
    <use transform="translate(1182.708079 0)scale(0.996264)" xlink:href="#CMR17-117"/>
    <use transform="translate(1233.603449 0)scale(0.996264)" xlink:href="#CMR17-99"/>
    <use transform="translate(1271.486655 0)scale(0.996264)" xlink:href="#CMR17-104"/>
    <use transform="translate(1322.382025 0)scale(0.996264)" xlink:href="#CMR17-111"/>
    <use transform="translate(1368.072502 0)scale(0.996264)" xlink:href="#CMR17-11"/>
    <use transform="translate(1450.493146 0)scale(0.996264)" xlink:href="#CMR17-98"/>
    <use transform="translate(1501.388516 0)scale(0.996264)" xlink:href="#CMR17-97"/>
    <use transform="translate(1547.078993 0)scale(0.996264)" xlink:href="#CMR17-114"/>
    <use transform="translate(1582.359761 0)scale(0.996264)" xlink:href="#CMR17-121"/>
    <use transform="translate(1660.728643 0)scale(0.996264)" xlink:href="#CMR17-51"/>
    <use transform="translate(1706.41912 0)scale(0.996264)" xlink:href="#CMR17-117"/>
    <use transform="translate(1757.31449 0)scale(0.996264)" xlink:href="#CMR17-49"/>
    <use transform="translate(1803.004967 0)scale(0.996264)" xlink:href="#CMR17-100"/>
    <use transform="translate(1883.976303 0)scale(0.996264)" xlink:href="#CMR17-99"/>
    <use transform="translate(1924.461963 0)scale(0.996264)" xlink:href="#CMR17-111"/>
    <use transform="translate(1970.15244 0)scale(0.996264)" xlink:href="#CMR17-109"/>
    <use transform="translate(2047.07203 0)scale(0.996264)" xlink:href="#CMR17-50"/>
    <use transform="translate(2122.838474 0)scale(0.996264)" xlink:href="#CMR17-83"/>
    <use transform="translate(2173.733844 0)scale(0.996264)" xlink:href="#CMR17-112"/>
    <use transform="translate(2224.629213 0)scale(0.996264)" xlink:href="#CMR17-105"/>
    <use transform="translate(2249.500272 0)scale(0.996264)" xlink:href="#CMR17-110"/>
    <use transform="translate(2300.395642 0)scale(0.996264)" xlink:href="#CMR17-48"/>
   </g>
   <!--  $t = 16$ -->
   <g transform="translate(335.647695 43.024339)scale(0.192 -0.192)">
    <defs>
     <path d="M 20.09375 40.09375 
L 29.296875 40.09375 
C 31.203125 40.09375 32.203125 40.09375 32.203125 41.890625 
C 32.203125 43 31.59375 43 29.59375 43 
L 20.796875 43 
L 24.5 57.6875 
C 24.90625 59.078125 24.90625 59.28125 24.90625 60 
C 24.90625 61.609375 23.59375 62.5 22.296875 62.5 
C 21.5 62.5 19.203125 62.203125 18.40625 58.984375 
L 14.5 43 
L 5.09375 43 
C 3.09375 43 2.203125 43 2.203125 41.09375 
C 2.203125 40.09375 2.90625 40.09375 4.796875 40.09375 
L 13.703125 40.09375 
L 7.09375 13.765625 
C 6.296875 10.28125 6 9.28125 6 7.984375 
C 6 3.296875 9.296875 -1 14.90625 -1 
C 25 -1 30.40625 13.5625 30.40625 14.25 
C 30.40625 14.859375 30 15.15625 29.40625 15.15625 
C 29.203125 15.15625 28.796875 15.15625 28.59375 14.75 
C 28.5 14.65625 28.40625 14.546875 27.703125 12.953125 
C 25.59375 7.984375 21 1 15.203125 1 
C 12.203125 1 12 3.5 12 5.6875 
C 12 5.78125 12 7.6875 12.296875 8.875 
z
" id="CMMI12-116"/>
    </defs>
    <use transform="scale(0.996264)" xlink:href="#CMMI12-116"/>
    <use transform="translate(62.900339 0)scale(0.996264)" xlink:href="#CMR17-61"/>
    <use transform="translate(162.289136 0)scale(0.996264)" xlink:href="#CMR17-49"/>
    <use transform="translate(207.979613 0)scale(0.996264)" xlink:href="#CMR17-54"/>
   </g>
  </g>
 </g>
 <defs>
  <clipPath id="p18962caabd">
   <rect height="85.197337" width="625.437328" x="77.282672" y="71.224945"/>
  </clipPath>
  <clipPath id="p91f8a121b8">
   <rect height="85.197337" width="625.437328" x="77.282672" y="213.16169"/>
  </clipPath>
  <clipPath id="p8c6e1669e8">
   <rect height="85.197337" width="625.437328" x="77.282672" y="355.098436"/>
  </clipPath>
 </defs>
</svg>
