<?xml version="1.0" encoding="utf-8" standalone="no"?>
<!DOCTYPE svg PUBLIC "-//W3C//DTD SVG 1.1//EN"
  "http://www.w3.org/Graphics/SVG/1.1/DTD/svg11.dtd">
<!-- Created with matplotlib (https://matplotlib.org/) -->
<svg height="504pt" version="1.1" viewBox="0 0 576 504" width="576pt" xmlns="http://www.w3.org/2000/svg" xmlns:xlink="http://www.w3.org/1999/xlink">
 <metadata>
  <rdf:RDF xmlns:cc="http://creativecommons.org/ns#" xmlns:dc="http://purl.org/dc/elements/1.1/" xmlns:rdf="http://www.w3.org/1999/02/22-rdf-syntax-ns#">
   <cc:Work>
    <dc:type rdf:resource="http://purl.org/dc/dcmitype/StillImage"/>
    <dc:date>2023-01-24T17:14:19.055783</dc:date>
    <dc:format>image/svg+xml</dc:format>
    <dc:creator>
     <cc:Agent>
      <dc:title>Matplotlib v3.3.4, https://matplotlib.org/</dc:title>
     </cc:Agent>
    </dc:creator>
   </cc:Work>
  </rdf:RDF>
 </metadata>
 <defs>
  <style type="text/css">*{stroke-linecap:butt;stroke-linejoin:round;}</style>
 </defs>
 <g id="figure_1">
  <g id="patch_1">
   <path d="M 0 504 
L 576 504 
L 576 0 
L 0 0 
z
" style="fill:#ffffff;"/>
  </g>
  <g id="axes_1">
   <g id="patch_2">
    <path d="M 57.33915 440.295773 
L 503.052876 440.295773 
L 503.052876 75.6 
L 57.33915 75.6 
z
" style="fill:#ffffff;"/>
   </g>
   <g id="matplotlib.axis_1">
    <g id="xtick_1">
     <g id="line2d_1">
      <defs>
       <path d="M 0 0 
L 0 3.5 
" id="m5bd1cebaa7" style="stroke:#000000;stroke-width:0.8;"/>
      </defs>
      <g>
       <use style="stroke:#000000;stroke-width:0.8;" x="77.598864" xlink:href="#m5bd1cebaa7" y="440.295773"/>
      </g>
     </g>
     <g id="text_1">
      <!-- $\mathdefault{0}$ -->
      <g transform="translate(73.696871 458.365361)scale(0.16 -0.16)">
       <defs>
        <path d="M 42 31.640625 
C 42 37.75 41.90625 48.125 37.703125 56.109375 
C 34 63.109375 28.09375 65.59375 22.90625 65.59375 
C 18.09375 65.59375 12 63.40625 8.203125 56.203125 
C 4.203125 48.71875 3.796875 39.4375 3.796875 31.640625 
C 3.796875 25.953125 3.90625 17.28125 7 9.671875 
C 11.296875 -0.609375 19 -2 22.90625 -2 
C 27.5 -2 34.5 -0.109375 38.59375 9.375 
C 41.59375 16.28125 42 24.359375 42 31.640625 
z
M 22.90625 -0.40625 
C 16.5 -0.40625 12.703125 5.078125 11.296875 12.6875 
C 10.203125 18.5625 10.203125 27.15625 10.203125 32.75 
C 10.203125 40.4375 10.203125 46.828125 11.5 52.921875 
C 13.40625 61.390625 19 64 22.90625 64 
C 27 64 32.296875 61.296875 34.203125 53.125 
C 35.5 47.4375 35.59375 40.734375 35.59375 32.75 
C 35.59375 26.25 35.59375 18.265625 34.40625 12.375 
C 32.296875 1.484375 26.40625 -0.40625 22.90625 -0.40625 
z
" id="CMR17-48"/>
       </defs>
       <use transform="scale(0.996264)" xlink:href="#CMR17-48"/>
      </g>
     </g>
    </g>
    <g id="xtick_2">
     <g id="line2d_2">
      <g>
       <use style="stroke:#000000;stroke-width:0.8;" x="141.91542" xlink:href="#m5bd1cebaa7" y="440.295773"/>
      </g>
     </g>
     <g id="text_2">
      <!-- $\mathdefault{10}$ -->
      <g transform="translate(134.111433 458.365361)scale(0.16 -0.16)">
       <defs>
        <path d="M 26.59375 63.40625 
C 26.59375 65.5 26.5 65.5 25.09375 65.5 
C 21.203125 61.1875 15.296875 59.796875 9.703125 59.796875 
C 9.40625 59.796875 8.90625 59.796875 8.796875 59.5 
C 8.703125 59.296875 8.703125 59.09375 8.703125 57 
C 11.796875 57 17 57.59375 21 59.984375 
L 21 7.203125 
C 21 3.6875 20.796875 2.5 12.203125 2.5 
L 9.203125 2.5 
L 9.203125 0 
C 14 0 19 0 23.796875 0 
C 28.59375 0 33.59375 0 38.40625 0 
L 38.40625 2.5 
L 35.40625 2.5 
C 26.796875 2.5 26.59375 3.59375 26.59375 7.15625 
z
" id="CMR17-49"/>
       </defs>
       <use transform="scale(0.996264)" xlink:href="#CMR17-49"/>
       <use transform="translate(45.690477 0)scale(0.996264)" xlink:href="#CMR17-48"/>
      </g>
     </g>
    </g>
    <g id="xtick_3">
     <g id="line2d_3">
      <g>
       <use style="stroke:#000000;stroke-width:0.8;" x="206.231975" xlink:href="#m5bd1cebaa7" y="440.295773"/>
      </g>
     </g>
     <g id="text_3">
      <!-- $\mathdefault{20}$ -->
      <g transform="translate(198.427988 458.365361)scale(0.16 -0.16)">
       <defs>
        <path d="M 41.703125 15.453125 
L 39.90625 15.453125 
C 38.90625 8.375 38.09375 7.171875 37.703125 6.5625 
C 37.203125 5.765625 30 5.765625 28.59375 5.765625 
L 9.40625 5.765625 
C 13 9.671875 20 16.75 28.5 24.953125 
C 34.59375 30.734375 41.703125 37.53125 41.703125 47.421875 
C 41.703125 59.21875 32.296875 66 21.796875 66 
C 10.796875 66 4.09375 56.3125 4.09375 47.34375 
C 4.09375 43.4375 7 42.9375 8.203125 42.9375 
C 9.203125 42.9375 12.203125 43.546875 12.203125 47.03125 
C 12.203125 50.109375 9.59375 51 8.203125 51 
C 7.59375 51 7 50.90625 6.59375 50.703125 
C 8.5 59.21875 14.296875 63.40625 20.40625 63.40625 
C 29.09375 63.40625 34.796875 56.515625 34.796875 47.421875 
C 34.796875 38.734375 29.703125 31.25 24 24.75 
L 4.09375 2.28125 
L 4.09375 0 
L 39.296875 0 
z
" id="CMR17-50"/>
       </defs>
       <use transform="scale(0.996264)" xlink:href="#CMR17-50"/>
       <use transform="translate(45.690477 0)scale(0.996264)" xlink:href="#CMR17-48"/>
      </g>
     </g>
    </g>
    <g id="xtick_4">
     <g id="line2d_4">
      <g>
       <use style="stroke:#000000;stroke-width:0.8;" x="270.54853" xlink:href="#m5bd1cebaa7" y="440.295773"/>
      </g>
     </g>
     <g id="text_4">
      <!-- $\mathdefault{30}$ -->
      <g transform="translate(262.744543 458.365361)scale(0.16 -0.16)">
       <defs>
        <path d="M 22.09375 33.703125 
C 31 33.703125 34.90625 25.96875 34.90625 17.03125 
C 34.90625 5 28.5 0.390625 22.703125 0.390625 
C 17.40625 0.390625 8.796875 3.03125 6.09375 10.828125 
C 6.59375 10.625 7.09375 10.625 7.59375 10.625 
C 10 10.625 11.796875 12.21875 11.796875 14.8125 
C 11.796875 17.703125 9.59375 19 7.59375 19 
C 5.90625 19 3.296875 18.203125 3.296875 14.46875 
C 3.296875 5.234375 12.296875 -2 22.90625 -2 
C 34 -2 42.5 6.71875 42.5 16.953125 
C 42.5 26.671875 34.5 33.703125 25 34.796875 
C 32.59375 36.375 39.90625 43.0625 39.90625 52.015625 
C 39.90625 59.6875 32 65.296875 23 65.296875 
C 13.90625 65.296875 5.90625 59.828125 5.90625 52.015625 
C 5.90625 48.59375 8.5 48 9.796875 48 
C 11.90625 48 13.703125 49.296875 13.703125 51.890625 
C 13.703125 54.46875 11.90625 55.765625 9.796875 55.765625 
C 9.40625 55.765625 8.90625 55.765625 8.5 55.578125 
C 11.40625 61.859375 19.296875 63 22.796875 63 
C 26.296875 63 32.90625 61.328125 32.90625 51.875 
C 32.90625 49.109375 32.5 44.1875 29.09375 39.84375 
C 26.09375 36 22.703125 36 19.40625 35.6875 
C 18.90625 35.6875 16.59375 35.453125 16.203125 35.453125 
C 15.5 35.359375 15.09375 35.265625 15.09375 34.5 
C 15.09375 33.796875 15.203125 33.703125 17.203125 33.703125 
z
" id="CMR17-51"/>
       </defs>
       <use transform="scale(0.996264)" xlink:href="#CMR17-51"/>
       <use transform="translate(45.690477 0)scale(0.996264)" xlink:href="#CMR17-48"/>
      </g>
     </g>
    </g>
    <g id="xtick_5">
     <g id="line2d_5">
      <g>
       <use style="stroke:#000000;stroke-width:0.8;" x="334.865085" xlink:href="#m5bd1cebaa7" y="440.295773"/>
      </g>
     </g>
     <g id="text_5">
      <!-- $\mathdefault{40}$ -->
      <g transform="translate(327.061098 458.365361)scale(0.16 -0.16)">
       <defs>
        <path d="M 33.59375 64.40625 
C 33.59375 66.5 33.5 66.5 31.703125 66.5 
L 2 19.59375 
L 2 17 
L 27.796875 17 
L 27.796875 7.140625 
C 27.796875 3.5 27.59375 2.5 20.59375 2.5 
L 18.703125 2.5 
L 18.703125 0 
C 21.90625 0 27.296875 0 30.703125 0 
C 34.09375 0 39.5 0 42.703125 0 
L 42.703125 2.5 
L 40.796875 2.5 
C 33.796875 2.5 33.59375 3.5 33.59375 7.140625 
L 33.59375 17 
L 43.796875 17 
L 43.796875 19.59375 
L 33.59375 19.59375 
z
M 28.09375 57.859375 
L 28.09375 19.59375 
L 4 19.59375 
z
" id="CMR17-52"/>
       </defs>
       <use transform="scale(0.996264)" xlink:href="#CMR17-52"/>
       <use transform="translate(45.690477 0)scale(0.996264)" xlink:href="#CMR17-48"/>
      </g>
     </g>
    </g>
    <g id="xtick_6">
     <g id="line2d_6">
      <g>
       <use style="stroke:#000000;stroke-width:0.8;" x="399.18164" xlink:href="#m5bd1cebaa7" y="440.295773"/>
      </g>
     </g>
     <g id="text_6">
      <!-- $\mathdefault{50}$ -->
      <g transform="translate(391.377653 458.365361)scale(0.16 -0.16)">
       <defs>
        <path d="M 11.40625 57.6875 
C 12.40625 57.28125 16.5 56 20.703125 56 
C 30 56 35.09375 61.109375 38 64.0625 
C 38 64.953125 38 65.5 37.40625 65.5 
C 37.296875 65.5 37.09375 65.5 36.296875 65.046875 
C 32.796875 63.40625 28.703125 62.078125 23.703125 62.078125 
C 20.703125 62.078125 16.203125 62.484375 11.296875 64.671875 
C 10.203125 65.171875 10 65.171875 9.90625 65.171875 
C 9.40625 65.171875 9.296875 65.0625 9.296875 63.078125 
L 9.296875 34.421875 
C 9.296875 32.640625 9.296875 32.140625 10.296875 32.140625 
C 10.796875 32.140625 11 32.34375 11.5 33.03125 
C 14.703125 37.515625 19.09375 39.40625 24.09375 39.40625 
C 27.59375 39.40625 35.09375 37.21875 35.09375 20.140625 
C 35.09375 16.953125 35.09375 11.171875 32.09375 6.578125 
C 29.59375 2.484375 25.703125 0.390625 21.40625 0.390625 
C 14.796875 0.390625 8.09375 5 6.296875 12.71875 
C 6.703125 12.609375 7.5 12.421875 7.90625 12.421875 
C 9.203125 12.421875 11.703125 13.125 11.703125 16.21875 
C 11.703125 18.90625 9.796875 20 7.90625 20 
C 5.59375 20 4.09375 18.59375 4.09375 15.796875 
C 4.09375 7.09375 11 -2 21.59375 -2 
C 31.90625 -2 41.703125 6.875 41.703125 19.75 
C 41.703125 31.71875 33.90625 41 24.203125 41 
C 19.09375 41 14.796875 39.109375 11.40625 35.53125 
z
" id="CMR17-53"/>
       </defs>
       <use transform="scale(0.996264)" xlink:href="#CMR17-53"/>
       <use transform="translate(45.690477 0)scale(0.996264)" xlink:href="#CMR17-48"/>
      </g>
     </g>
    </g>
    <g id="xtick_7">
     <g id="line2d_7">
      <g>
       <use style="stroke:#000000;stroke-width:0.8;" x="463.498195" xlink:href="#m5bd1cebaa7" y="440.295773"/>
      </g>
     </g>
     <g id="text_7">
      <!-- $\mathdefault{60}$ -->
      <g transform="translate(455.694208 458.365361)scale(0.16 -0.16)">
       <defs>
        <path d="M 10.59375 34 
C 10.59375 57.65625 21.796875 63 28.296875 63 
C 30.40625 63 35.5 62.640625 37.5 59 
C 35.90625 59 32.90625 59 32.90625 55.515625 
C 32.90625 52.828125 35.09375 51.921875 36.5 51.921875 
C 37.40625 51.921875 40.09375 52.3125 40.09375 55.625 
C 40.09375 61.78125 35.09375 65.296875 28.203125 65.296875 
C 16.296875 65.296875 3.796875 52.96875 3.796875 31 
C 3.796875 3.953125 15.09375 -2 23.09375 -2 
C 32.796875 -2 42 6.671875 42 20.046875 
C 42 32.515625 33.90625 41.59375 23.703125 41.59375 
C 17.59375 41.59375 13.09375 37.609375 10.59375 30.625 
z
M 23.09375 0.390625 
C 10.796875 0.390625 10.796875 18.75 10.796875 22.4375 
C 10.796875 29.625 14.203125 40 23.5 40 
C 25.203125 40 30.09375 40 33.40625 33.125 
C 35.203125 29.21875 35.203125 25.140625 35.203125 20.140625 
C 35.203125 14.75 35.203125 10.78125 33.09375 6.78125 
C 30.90625 2.671875 27.703125 0.390625 23.09375 0.390625 
z
" id="CMR17-54"/>
       </defs>
       <use transform="scale(0.996264)" xlink:href="#CMR17-54"/>
       <use transform="translate(45.690477 0)scale(0.996264)" xlink:href="#CMR17-48"/>
      </g>
     </g>
    </g>
    <g id="text_8">
     <!-- $t$ -->
     <g transform="translate(275.968853 482.069243)scale(0.24 -0.24)">
      <defs>
       <path d="M 20.09375 40.09375 
L 29.296875 40.09375 
C 31.203125 40.09375 32.203125 40.09375 32.203125 41.890625 
C 32.203125 43 31.59375 43 29.59375 43 
L 20.796875 43 
L 24.5 57.6875 
C 24.90625 59.078125 24.90625 59.28125 24.90625 60 
C 24.90625 61.609375 23.59375 62.5 22.296875 62.5 
C 21.5 62.5 19.203125 62.203125 18.40625 58.984375 
L 14.5 43 
L 5.09375 43 
C 3.09375 43 2.203125 43 2.203125 41.09375 
C 2.203125 40.09375 2.90625 40.09375 4.796875 40.09375 
L 13.703125 40.09375 
L 7.09375 13.765625 
C 6.296875 10.28125 6 9.28125 6 7.984375 
C 6 3.296875 9.296875 -1 14.90625 -1 
C 25 -1 30.40625 13.5625 30.40625 14.25 
C 30.40625 14.859375 30 15.15625 29.40625 15.15625 
C 29.203125 15.15625 28.796875 15.15625 28.59375 14.75 
C 28.5 14.65625 28.40625 14.546875 27.703125 12.953125 
C 25.59375 7.984375 21 1 15.203125 1 
C 12.203125 1 12 3.5 12 5.6875 
C 12 5.78125 12 7.6875 12.296875 8.875 
z
" id="CMMI12-116"/>
      </defs>
      <use transform="scale(0.996264)" xlink:href="#CMMI12-116"/>
     </g>
    </g>
   </g>
   <g id="matplotlib.axis_2">
    <g id="ytick_1">
     <g id="line2d_8">
      <defs>
       <path d="M 0 0 
L -3.5 0 
" id="m3511526dbe" style="stroke:#000000;stroke-width:0.8;"/>
      </defs>
      <g>
       <use style="stroke:#000000;stroke-width:0.8;" x="57.33915" xlink:href="#m3511526dbe" y="439.059532"/>
      </g>
     </g>
     <g id="text_9">
      <!-- $\mathdefault{0}$ -->
      <g transform="translate(42.535163 444.594326)scale(0.16 -0.16)">
       <use transform="scale(0.996264)" xlink:href="#CMR17-48"/>
      </g>
     </g>
    </g>
    <g id="ytick_2">
     <g id="line2d_9">
      <g>
       <use style="stroke:#000000;stroke-width:0.8;" x="57.33915" xlink:href="#m3511526dbe" y="360.076112"/>
      </g>
     </g>
     <g id="text_10">
      <!-- $\mathdefault{2}$ -->
      <g transform="translate(42.535163 365.610906)scale(0.16 -0.16)">
       <use transform="scale(0.996264)" xlink:href="#CMR17-50"/>
      </g>
     </g>
    </g>
    <g id="ytick_3">
     <g id="line2d_10">
      <g>
       <use style="stroke:#000000;stroke-width:0.8;" x="57.33915" xlink:href="#m3511526dbe" y="281.092692"/>
      </g>
     </g>
     <g id="text_11">
      <!-- $\mathdefault{4}$ -->
      <g transform="translate(42.535163 286.627486)scale(0.16 -0.16)">
       <use transform="scale(0.996264)" xlink:href="#CMR17-52"/>
      </g>
     </g>
    </g>
    <g id="ytick_4">
     <g id="line2d_11">
      <g>
       <use style="stroke:#000000;stroke-width:0.8;" x="57.33915" xlink:href="#m3511526dbe" y="202.109272"/>
      </g>
     </g>
     <g id="text_12">
      <!-- $\mathdefault{6}$ -->
      <g transform="translate(42.535163 207.644066)scale(0.16 -0.16)">
       <use transform="scale(0.996264)" xlink:href="#CMR17-54"/>
      </g>
     </g>
    </g>
    <g id="ytick_5">
     <g id="line2d_12">
      <g>
       <use style="stroke:#000000;stroke-width:0.8;" x="57.33915" xlink:href="#m3511526dbe" y="123.125852"/>
      </g>
     </g>
     <g id="text_13">
      <!-- $\mathdefault{8}$ -->
      <g transform="translate(42.535163 128.660646)scale(0.16 -0.16)">
       <defs>
        <path d="M 27.203125 35.375 
C 33.5 38.546875 39.90625 43.328125 39.90625 50.984375 
C 39.90625 60.015625 31.09375 65.296875 23 65.296875 
C 13.90625 65.296875 5.90625 58.734375 5.90625 49.6875 
C 5.90625 47.203125 6.5 42.921875 10.40625 39.140625 
C 11.40625 38.15625 15.59375 35.171875 18.296875 33.28125 
C 13.796875 30.984375 3.296875 25.53125 3.296875 14.59375 
C 3.296875 4.359375 13.09375 -2 22.796875 -2 
C 33.5 -2 42.5 5.65625 42.5 15.78125 
C 42.5 24.84375 36.40625 29.015625 32.40625 31.703125 
z
M 14.09375 44.09375 
C 13.296875 44.59375 9.296875 47.671875 9.296875 52.359375 
C 9.296875 58.421875 15.59375 63 22.796875 63 
C 30.703125 63 36.5 57.4375 36.5 50.96875 
C 36.5 41.703125 26.09375 36.421875 25.59375 36.421875 
C 25.5 36.421875 25.40625 36.421875 24.59375 37.03125 
z
M 32.5 23.734375 
C 34 22.640625 38.796875 19.375 38.796875 13.296875 
C 38.796875 5.953125 31.40625 0.390625 23 0.390625 
C 13.90625 0.390625 7 6.84375 7 14.6875 
C 7 22.546875 13.09375 29.09375 20 32.1875 
z
" id="CMR17-56"/>
       </defs>
       <use transform="scale(0.996264)" xlink:href="#CMR17-56"/>
      </g>
     </g>
    </g>
    <g id="text_14">
     <!-- $\tau_{\rm int}$ -->
     <g transform="translate(33.884405 272.818992)rotate(-90)scale(0.24 -0.24)">
      <defs>
       <path d="M 28.703125 37.625 
L 45.296875 37.625 
C 46.59375 37.625 49.90625 37.625 49.90625 40.8125 
C 49.90625 43 48 43 46.203125 43 
L 18.703125 43 
C 16.40625 43 13 43 8.40625 38.125 
C 5.796875 35.234375 2.59375 29.953125 2.59375 29.359375 
C 2.59375 28.765625 3.09375 28.5625 3.703125 28.5625 
C 4.40625 28.5625 4.5 28.859375 5 29.453125 
C 10.203125 37.625 15.40625 37.625 17.90625 37.625 
L 26.203125 37.625 
L 15.796875 3.484375 
C 15.296875 1.984375 15.296875 1.78125 15.296875 1.484375 
C 15.296875 0.390625 16 -1 18 -1 
C 21.09375 -1 21.59375 1.6875 21.90625 3.171875 
z
" id="CMMI12-28"/>
       <path d="M 15.5 61.078125 
C 15.5 63.265625 13.703125 65.15625 11.40625 65.15625 
C 9.203125 65.15625 7.296875 63.375 7.296875 61.078125 
C 7.296875 58.890625 9.09375 57 11.40625 57 
C 13.59375 57 15.5 58.796875 15.5 61.078125 
z
M 3.796875 42.28125 
L 3.796875 39.703125 
C 9.40625 39.703125 10.203125 39.09375 10.203125 34.328125 
L 10.203125 6.671875 
C 10.203125 2.875 9.796875 2.390625 3.40625 2.390625 
L 3.40625 -0.203125 
C 5.796875 0 10.09375 0 12.59375 0 
C 15 0 19.09375 0 21.40625 -0.203125 
L 21.40625 2.390625 
C 15.5 2.390625 15.296875 2.984375 15.296875 6.5625 
L 15.296875 43.375 
z
" id="CMR17-105"/>
       <path d="M 41.5 30.203125 
C 41.5 35.296875 40.5 43.59375 28.703125 43.59375 
C 20.796875 43.59375 16.703125 37.5 15.203125 33.5 
L 15.09375 33.5 
L 15.09375 43.59375 
L 3.296875 42.5 
L 3.296875 39.90625 
C 9.203125 39.90625 10.09375 39.296875 10.09375 34.5 
L 10.09375 6.6875 
C 10.09375 2.875 9.703125 2.390625 3.296875 2.390625 
L 3.296875 -0.203125 
C 5.703125 0 10.09375 0 12.703125 0 
C 15.296875 0 19.796875 0 22.203125 -0.203125 
L 22.203125 2.390625 
C 15.796875 2.390625 15.40625 2.78125 15.40625 6.6875 
L 15.40625 25.90625 
C 15.40625 35.109375 21 42 28 42 
C 35.40625 42 36.203125 35.40625 36.203125 30.59375 
L 36.203125 6.6875 
C 36.203125 2.875 35.796875 2.390625 29.40625 2.390625 
L 29.40625 -0.203125 
C 31.796875 0 36.203125 0 38.796875 0 
C 41.40625 0 45.90625 0 48.296875 -0.203125 
L 48.296875 2.390625 
C 41.90625 2.390625 41.5 2.78125 41.5 6.6875 
z
" id="CMR17-110"/>
       <path d="M 15.09375 40 
L 29.09375 40 
L 29.09375 42.578125 
L 15.09375 42.578125 
L 15.09375 61 
L 13.296875 61 
C 13.09375 50.703125 9.59375 41.6875 1.09375 41.6875 
L 1.09375 40 
L 9.796875 40 
L 9.796875 12.046875 
C 9.796875 10.15625 9.796875 -1 21.40625 -1 
C 27.296875 -1 30.703125 4.78125 30.703125 12.140625 
L 30.703125 17.8125 
L 28.90625 17.8125 
L 28.90625 12.234375 
C 28.90625 5.375 26.203125 0.796875 22 0.796875 
C 19.09375 0.796875 15.09375 2.78125 15.09375 11.84375 
z
" id="CMR17-116"/>
      </defs>
      <use transform="scale(0.996264)" xlink:href="#CMMI12-28"/>
      <use transform="translate(42.363841 -14.943915)scale(0.697382)" xlink:href="#CMR17-105"/>
      <use transform="translate(59.7735 -14.943915)scale(0.697382)" xlink:href="#CMR17-110"/>
      <use transform="translate(93.578387 -14.943915)scale(0.697382)" xlink:href="#CMR17-116"/>
     </g>
    </g>
   </g>
   <g id="LineCollection_1">
    <path clip-path="url(#pc010df445d)" d="M 77.598864 423.718692 
L 77.598864 417.136198 
" style="fill:none;stroke:#000000;stroke-width:2;"/>
    <path clip-path="url(#pc010df445d)" d="M 84.03052 421.784614 
L 84.03052 414.50116 
" style="fill:none;stroke:#000000;stroke-width:2;"/>
    <path clip-path="url(#pc010df445d)" d="M 90.462175 421.712367 
L 90.462175 414.403293 
" style="fill:none;stroke:#000000;stroke-width:2;"/>
    <path clip-path="url(#pc010df445d)" d="M 96.893831 415.692847 
L 96.893831 403.577527 
" style="fill:none;stroke:#000000;stroke-width:2;"/>
    <path clip-path="url(#pc010df445d)" d="M 103.325486 404.344446 
L 103.325486 383.905175 
" style="fill:none;stroke:#000000;stroke-width:2;"/>
    <path clip-path="url(#pc010df445d)" d="M 109.757142 391.953686 
L 109.757142 361.291617 
" style="fill:none;stroke:#000000;stroke-width:2;"/>
    <path clip-path="url(#pc010df445d)" d="M 116.188797 383.277277 
L 116.188797 342.977582 
" style="fill:none;stroke:#000000;stroke-width:2;"/>
    <path clip-path="url(#pc010df445d)" d="M 122.620453 378.604876 
L 122.620453 329.941786 
" style="fill:none;stroke:#000000;stroke-width:2;"/>
    <path clip-path="url(#pc010df445d)" d="M 129.052108 377.089891 
L 129.052108 327.532154 
" style="fill:none;stroke:#000000;stroke-width:2;"/>
    <path clip-path="url(#pc010df445d)" d="M 135.483764 375.077978 
L 135.483764 324.355206 
" style="fill:none;stroke:#000000;stroke-width:2;"/>
    <path clip-path="url(#pc010df445d)" d="M 141.91542 372.857398 
L 141.91542 320.879169 
" style="fill:none;stroke:#000000;stroke-width:2;"/>
    <path clip-path="url(#pc010df445d)" d="M 148.347075 371.632115 
L 148.347075 318.974743 
" style="fill:none;stroke:#000000;stroke-width:2;"/>
    <path clip-path="url(#pc010df445d)" d="M 154.778731 371.294959 
L 154.778731 318.452402 
" style="fill:none;stroke:#000000;stroke-width:2;"/>
    <path clip-path="url(#pc010df445d)" d="M 161.210386 370.610978 
L 161.210386 317.39498 
" style="fill:none;stroke:#000000;stroke-width:2;"/>
    <path clip-path="url(#pc010df445d)" d="M 167.642042 362.942427 
L 167.642042 298.448246 
" style="fill:none;stroke:#000000;stroke-width:2;"/>
    <path clip-path="url(#pc010df445d)" d="M 174.073697 353.211599 
L 174.073697 275.244966 
" style="fill:none;stroke:#000000;stroke-width:2;"/>
    <path clip-path="url(#pc010df445d)" d="M 180.505353 347.090528 
L 180.505353 265.491689 
" style="fill:none;stroke:#000000;stroke-width:2;"/>
    <path clip-path="url(#pc010df445d)" d="M 186.937008 335.162151 
L 186.937008 237.613201 
" style="fill:none;stroke:#000000;stroke-width:2;"/>
    <path clip-path="url(#pc010df445d)" d="M 193.368664 323.830162 
L 193.368664 209.628957 
" style="fill:none;stroke:#000000;stroke-width:2;"/>
    <path clip-path="url(#pc010df445d)" d="M 199.800319 316.740391 
L 199.800319 187.506013 
" style="fill:none;stroke:#000000;stroke-width:2;"/>
    <path clip-path="url(#pc010df445d)" d="M 206.231975 311.345064 
L 206.231975 178.782793 
" style="fill:none;stroke:#000000;stroke-width:2;"/>
    <path clip-path="url(#pc010df445d)" d="M 212.66363 306.691118 
L 212.66363 159.670676 
" style="fill:none;stroke:#000000;stroke-width:2;"/>
    <path clip-path="url(#pc010df445d)" d="M 219.095286 306.480447 
L 219.095286 159.323597 
" style="fill:none;stroke:#000000;stroke-width:2;"/>
    <path clip-path="url(#pc010df445d)" d="M 225.526941 303.838805 
L 225.526941 154.993524 
" style="fill:none;stroke:#000000;stroke-width:2;"/>
    <path clip-path="url(#pc010df445d)" d="M 231.958597 303.662992 
L 231.958597 154.706781 
" style="fill:none;stroke:#000000;stroke-width:2;"/>
    <path clip-path="url(#pc010df445d)" d="M 238.390252 303.940041 
L 238.390252 155.158716 
" style="fill:none;stroke:#000000;stroke-width:2;"/>
    <path clip-path="url(#pc010df445d)" d="M 244.821908 304.291476 
L 244.821908 155.732637 
" style="fill:none;stroke:#000000;stroke-width:2;"/>
    <path clip-path="url(#pc010df445d)" d="M 251.253563 312.704484 
L 251.253563 180.964621 
" style="fill:none;stroke:#000000;stroke-width:2;"/>
    <path clip-path="url(#pc010df445d)" d="M 257.685219 315.657223 
L 257.685219 185.74099 
" style="fill:none;stroke:#000000;stroke-width:2;"/>
    <path clip-path="url(#pc010df445d)" d="M 264.116874 306.421127 
L 264.116874 159.225915 
" style="fill:none;stroke:#000000;stroke-width:2;"/>
    <path clip-path="url(#pc010df445d)" d="M 270.54853 298.392306 
L 270.54853 146.193422 
" style="fill:none;stroke:#000000;stroke-width:2;"/>
    <path clip-path="url(#pc010df445d)" d="M 276.980185 281.146096 
L 276.980185 92.177081 
" style="fill:none;stroke:#000000;stroke-width:2;"/>
    <path clip-path="url(#pc010df445d)" d="M 283.411841 290.607021 
L 283.411841 120.97511 
" style="fill:none;stroke:#000000;stroke-width:2;"/>
    <path clip-path="url(#pc010df445d)" d="M 289.843496 314.93327 
L 289.843496 184.565173 
" style="fill:none;stroke:#000000;stroke-width:2;"/>
    <path clip-path="url(#pc010df445d)" d="M 296.275152 337.8302 
L 296.275152 241.864331 
" style="fill:none;stroke:#000000;stroke-width:2;"/>
    <path clip-path="url(#pc010df445d)" d="M 302.706807 350.387022 
L 302.706807 270.71543 
" style="fill:none;stroke:#000000;stroke-width:2;"/>
    <path clip-path="url(#pc010df445d)" d="M 309.138463 359.070091 
L 309.138463 292.353472 
" style="fill:none;stroke:#000000;stroke-width:2;"/>
    <path clip-path="url(#pc010df445d)" d="M 315.570118 365.90145 
L 315.570118 303.169516 
" style="fill:none;stroke:#000000;stroke-width:2;"/>
    <path clip-path="url(#pc010df445d)" d="M 322.001774 374.064733 
L 322.001774 322.765151 
" style="fill:none;stroke:#000000;stroke-width:2;"/>
    <path clip-path="url(#pc010df445d)" d="M 328.433429 380.686345 
L 328.433429 339.034269 
" style="fill:none;stroke:#000000;stroke-width:2;"/>
    <path clip-path="url(#pc010df445d)" d="M 334.865085 385.344165 
L 334.865085 346.154939 
" style="fill:none;stroke:#000000;stroke-width:2;"/>
    <path clip-path="url(#pc010df445d)" d="M 341.29674 386.432091 
L 341.29674 347.838687 
" style="fill:none;stroke:#000000;stroke-width:2;"/>
    <path clip-path="url(#pc010df445d)" d="M 347.728396 385.987837 
L 347.728396 347.150184 
" style="fill:none;stroke:#000000;stroke-width:2;"/>
    <path clip-path="url(#pc010df445d)" d="M 354.160051 383.050519 
L 354.160051 342.630707 
" style="fill:none;stroke:#000000;stroke-width:2;"/>
    <path clip-path="url(#pc010df445d)" d="M 360.591707 376.905974 
L 360.591707 327.240645 
" style="fill:none;stroke:#000000;stroke-width:2;"/>
    <path clip-path="url(#pc010df445d)" d="M 367.023362 373.643936 
L 367.023362 322.106755 
" style="fill:none;stroke:#000000;stroke-width:2;"/>
    <path clip-path="url(#pc010df445d)" d="M 373.455018 373.237335 
L 373.455018 321.471656 
" style="fill:none;stroke:#000000;stroke-width:2;"/>
    <path clip-path="url(#pc010df445d)" d="M 379.886673 374.21611 
L 379.886673 323.002281 
" style="fill:none;stroke:#000000;stroke-width:2;"/>
    <path clip-path="url(#pc010df445d)" d="M 386.318329 383.211765 
L 386.318329 342.877332 
" style="fill:none;stroke:#000000;stroke-width:2;"/>
    <path clip-path="url(#pc010df445d)" d="M 392.749984 387.082005 
L 392.749984 348.848272 
" style="fill:none;stroke:#000000;stroke-width:2;"/>
    <path clip-path="url(#pc010df445d)" d="M 399.18164 393.24688 
L 399.18164 363.221009 
" style="fill:none;stroke:#000000;stroke-width:2;"/>
    <path clip-path="url(#pc010df445d)" d="M 405.613295 394.234532 
L 405.613295 364.702129 
" style="fill:none;stroke:#000000;stroke-width:2;"/>
    <path clip-path="url(#pc010df445d)" d="M 412.044951 394.245173 
L 412.044951 364.718123 
" style="fill:none;stroke:#000000;stroke-width:2;"/>
    <path clip-path="url(#pc010df445d)" d="M 418.476606 395.406104 
L 418.476606 366.467596 
" style="fill:none;stroke:#000000;stroke-width:2;"/>
    <path clip-path="url(#pc010df445d)" d="M 424.908262 397.759547 
L 424.908262 370.042103 
" style="fill:none;stroke:#000000;stroke-width:2;"/>
    <path clip-path="url(#pc010df445d)" d="M 431.339918 403.350893 
L 431.339918 382.452125 
" style="fill:none;stroke:#000000;stroke-width:2;"/>
    <path clip-path="url(#pc010df445d)" d="M 437.771573 408.481051 
L 437.771573 390.028843 
" style="fill:none;stroke:#000000;stroke-width:2;"/>
    <path clip-path="url(#pc010df445d)" d="M 444.203229 409.78546 
L 444.203229 391.984636 
" style="fill:none;stroke:#000000;stroke-width:2;"/>
    <path clip-path="url(#pc010df445d)" d="M 450.634884 409.034493 
L 450.634884 390.857203 
" style="fill:none;stroke:#000000;stroke-width:2;"/>
    <path clip-path="url(#pc010df445d)" d="M 457.06654 408.527451 
L 457.06654 390.098209 
" style="fill:none;stroke:#000000;stroke-width:2;"/>
    <path clip-path="url(#pc010df445d)" d="M 463.498195 407.753405 
L 463.498195 388.943004 
" style="fill:none;stroke:#000000;stroke-width:2;"/>
    <path clip-path="url(#pc010df445d)" d="M 469.929851 412.330967 
L 469.929851 398.800437 
" style="fill:none;stroke:#000000;stroke-width:2;"/>
    <path clip-path="url(#pc010df445d)" d="M 476.361506 418.146977 
L 476.361506 407.116668 
" style="fill:none;stroke:#000000;stroke-width:2;"/>
    <path clip-path="url(#pc010df445d)" d="M 482.793162 416.657829 
L 482.793162 404.963914 
" style="fill:none;stroke:#000000;stroke-width:2;"/>
   </g>
   <g id="line2d_13">
    <path clip-path="url(#pc010df445d)" d="M 77.598864 420.427445 
L 84.03052 418.142887 
L 90.462175 418.05783 
L 96.893831 409.635187 
L 103.325486 394.12481 
L 109.757142 376.622652 
L 116.188797 363.12743 
L 122.620453 354.273331 
L 129.052108 352.311023 
L 135.483764 349.716592 
L 141.91542 346.868283 
L 148.347075 345.303429 
L 154.778731 344.873681 
L 161.210386 344.002979 
L 167.642042 330.695336 
L 174.073697 314.228282 
L 180.505353 306.291109 
L 186.937008 286.387676 
L 193.368664 266.729559 
L 199.800319 252.123202 
L 206.231975 245.063929 
L 212.66363 233.180897 
L 219.095286 232.902022 
L 225.526941 229.416164 
L 231.958597 229.184887 
L 238.390252 229.549379 
L 244.821908 230.012056 
L 251.253563 246.834553 
L 257.685219 250.699107 
L 264.116874 232.823521 
L 270.54853 222.292864 
L 276.980185 186.661588 
L 283.411841 205.791066 
L 289.843496 249.749222 
L 296.275152 289.847266 
L 302.706807 310.551226 
L 309.138463 325.711781 
L 315.570118 334.535483 
L 322.001774 348.414942 
L 328.433429 359.860307 
L 334.865085 365.749552 
L 341.29674 367.135389 
L 347.728396 366.569011 
L 354.160051 362.840613 
L 360.591707 352.07331 
L 367.023362 347.875345 
L 373.455018 347.354496 
L 379.886673 348.609195 
L 386.318329 363.044548 
L 392.749984 367.965138 
L 399.18164 378.233945 
L 405.613295 379.46833 
L 412.044951 379.481648 
L 418.476606 380.93685 
L 424.908262 383.900825 
L 431.339918 392.901509 
L 437.771573 399.254947 
L 444.203229 400.885048 
L 450.634884 399.945848 
L 457.06654 399.31283 
L 463.498195 398.348204 
L 469.929851 405.565702 
L 476.361506 412.631823 
L 482.793162 410.810871 
" style="fill:none;stroke:#000000;stroke-linecap:square;stroke-width:2;"/>
   </g>
   <g id="patch_3">
    <path d="M 57.33915 440.295773 
L 57.33915 75.6 
" style="fill:none;stroke:#000000;stroke-linecap:square;stroke-linejoin:miter;stroke-width:0.8;"/>
   </g>
   <g id="patch_4">
    <path d="M 503.052876 440.295773 
L 503.052876 75.6 
" style="fill:none;stroke:#000000;stroke-linecap:square;stroke-linejoin:miter;stroke-width:0.8;"/>
   </g>
   <g id="patch_5">
    <path d="M 57.33915 440.295773 
L 503.052876 440.295773 
" style="fill:none;stroke:#000000;stroke-linecap:square;stroke-linejoin:miter;stroke-width:0.8;"/>
   </g>
   <g id="patch_6">
    <path d="M 57.33915 75.6 
L 503.052876 75.6 
" style="fill:none;stroke:#000000;stroke-linecap:square;stroke-linejoin:miter;stroke-width:0.8;"/>
   </g>
  </g>
  <g id="axes_2">
   <g id="matplotlib.axis_3">
    <g id="ytick_6">
     <g id="line2d_14">
      <defs>
       <path d="M 0 0 
L 3.5 0 
" id="m0d2219f790" style="stroke:#000000;stroke-width:0.8;"/>
      </defs>
      <g>
       <use style="stroke:#000000;stroke-width:0.8;" x="503.052876" xlink:href="#m0d2219f790" y="437.264113"/>
      </g>
     </g>
     <g id="text_15">
      <!-- $\mathdefault{0}$ -->
      <g transform="translate(510.052876 442.798907)scale(0.16 -0.16)">
       <use transform="scale(0.996264)" xlink:href="#CMR17-48"/>
      </g>
     </g>
    </g>
    <g id="ytick_7">
     <g id="line2d_15">
      <g>
       <use style="stroke:#000000;stroke-width:0.8;" x="503.052876" xlink:href="#m0d2219f790" y="384.045232"/>
      </g>
     </g>
     <g id="text_16">
      <!-- $\mathdefault{50}$ -->
      <g transform="translate(510.052876 389.580026)scale(0.16 -0.16)">
       <use transform="scale(0.996264)" xlink:href="#CMR17-53"/>
       <use transform="translate(45.690477 0)scale(0.996264)" xlink:href="#CMR17-48"/>
      </g>
     </g>
    </g>
    <g id="ytick_8">
     <g id="line2d_16">
      <g>
       <use style="stroke:#000000;stroke-width:0.8;" x="503.052876" xlink:href="#m0d2219f790" y="330.826351"/>
      </g>
     </g>
     <g id="text_17">
      <!-- $\mathdefault{100}$ -->
      <g transform="translate(510.052876 336.361145)scale(0.16 -0.16)">
       <use transform="scale(0.996264)" xlink:href="#CMR17-49"/>
       <use transform="translate(45.690477 0)scale(0.996264)" xlink:href="#CMR17-48"/>
       <use transform="translate(91.380954 0)scale(0.996264)" xlink:href="#CMR17-48"/>
      </g>
     </g>
    </g>
    <g id="ytick_9">
     <g id="line2d_17">
      <g>
       <use style="stroke:#000000;stroke-width:0.8;" x="503.052876" xlink:href="#m0d2219f790" y="277.607471"/>
      </g>
     </g>
     <g id="text_18">
      <!-- $\mathdefault{150}$ -->
      <g transform="translate(510.052876 283.142265)scale(0.16 -0.16)">
       <use transform="scale(0.996264)" xlink:href="#CMR17-49"/>
       <use transform="translate(45.690477 0)scale(0.996264)" xlink:href="#CMR17-53"/>
       <use transform="translate(91.380954 0)scale(0.996264)" xlink:href="#CMR17-48"/>
      </g>
     </g>
    </g>
    <g id="ytick_10">
     <g id="line2d_18">
      <g>
       <use style="stroke:#000000;stroke-width:0.8;" x="503.052876" xlink:href="#m0d2219f790" y="224.38859"/>
      </g>
     </g>
     <g id="text_19">
      <!-- $\mathdefault{200}$ -->
      <g transform="translate(510.052876 229.923384)scale(0.16 -0.16)">
       <use transform="scale(0.996264)" xlink:href="#CMR17-50"/>
       <use transform="translate(45.690477 0)scale(0.996264)" xlink:href="#CMR17-48"/>
       <use transform="translate(91.380954 0)scale(0.996264)" xlink:href="#CMR17-48"/>
      </g>
     </g>
    </g>
    <g id="ytick_11">
     <g id="line2d_19">
      <g>
       <use style="stroke:#000000;stroke-width:0.8;" x="503.052876" xlink:href="#m0d2219f790" y="171.169709"/>
      </g>
     </g>
     <g id="text_20">
      <!-- $\mathdefault{250}$ -->
      <g transform="translate(510.052876 176.704504)scale(0.16 -0.16)">
       <use transform="scale(0.996264)" xlink:href="#CMR17-50"/>
       <use transform="translate(45.690477 0)scale(0.996264)" xlink:href="#CMR17-53"/>
       <use transform="translate(91.380954 0)scale(0.996264)" xlink:href="#CMR17-48"/>
      </g>
     </g>
    </g>
    <g id="ytick_12">
     <g id="line2d_20">
      <g>
       <use style="stroke:#000000;stroke-width:0.8;" x="503.052876" xlink:href="#m0d2219f790" y="117.950829"/>
      </g>
     </g>
     <g id="text_21">
      <!-- $\mathdefault{300}$ -->
      <g transform="translate(510.052876 123.485623)scale(0.16 -0.16)">
       <use transform="scale(0.996264)" xlink:href="#CMR17-51"/>
       <use transform="translate(45.690477 0)scale(0.996264)" xlink:href="#CMR17-48"/>
       <use transform="translate(91.380954 0)scale(0.996264)" xlink:href="#CMR17-48"/>
      </g>
     </g>
    </g>
    <g id="text_22">
     <!-- $N_{\rm ind}$ -->
     <g style="fill:#0000ff;" transform="translate(554.069243 278.702454)rotate(-90)scale(0.24 -0.24)">
      <defs>
       <path d="M 74 57.78125 
C 75.09375 62.09375 76.703125 65.09375 84.296875 65.09375 
C 84.59375 65.09375 85.796875 65.09375 85.796875 66.859375 
C 85.796875 68 84.90625 68 84.5 68 
C 82.5 68 77.40625 68 75.40625 68 
L 70.59375 68 
C 69.203125 68 67.40625 68 66 68 
C 65.40625 68 64.203125 68 64.203125 66.09375 
C 64.203125 65.09375 65 65.09375 65.703125 65.09375 
C 71.703125 65.09375 72.09375 62.796875 72.09375 60.984375 
C 72.09375 60.09375 72 59.78125 71.703125 58.390625 
L 60.40625 13.28125 
L 39 66.390625 
C 38.296875 68 38.203125 68 36 68 
L 23.796875 68 
C 21.796875 68 20.90625 68 20.90625 66.09375 
C 20.90625 65.09375 21.59375 65.09375 23.5 65.09375 
C 24 65.09375 29.90625 65.09375 29.90625 64.296875 
C 29.90625 64.09375 29.703125 63.296875 29.59375 63 
L 16.296875 9.921875 
C 15.09375 5 12.703125 2.90625 6.09375 2.90625 
C 5.59375 2.90625 4.59375 2.90625 4.59375 1.046875 
C 4.59375 0 5.59375 0 5.90625 0 
C 7.90625 0 13 0 15 0 
L 19.796875 0 
C 21.203125 0 22.90625 0 24.296875 0 
C 25 0 26.09375 0 26.09375 1.90625 
C 26.09375 2.8125 25.09375 2.90625 24.703125 2.90625 
C 21.40625 2.90625 18.203125 3.5 18.203125 7.09375 
C 18.203125 7.890625 18.40625 8.78125 18.59375 9.578125 
L 32.09375 63 
C 32.703125 62 32.703125 61.8125 33.09375 60.90625 
L 56.90625 1.796875 
C 57.40625 0.59375 57.59375 0 58.5 0 
C 59.5 0 59.59375 0.296875 60 2 
z
" id="CMMI12-78"/>
       <path d="M 29.203125 67.59375 
L 29.203125 65 
C 35.09375 65 36 64.40625 36 59.6875 
L 36 36.640625 
C 35.59375 37.140625 31.5 43.59375 23.40625 43.59375 
C 13.203125 43.59375 3.296875 34.5 3.296875 21.3125 
C 3.296875 8.203125 12.59375 -1 22.40625 -1 
C 30.90625 -1 35.296875 5.265625 35.796875 5.9375 
L 35.796875 -0.984375 
L 47.90625 -0.984375 
L 47.90625 2 
C 42 2 41.09375 2.59375 41.09375 7.390625 
L 41.09375 68.6875 
z
M 35.796875 11.796875 
C 35.796875 8.796875 34 6.09375 31.703125 4.09375 
C 28.296875 1.09375 24.90625 0.59375 23 0.59375 
C 20.09375 0.59375 9.703125 2.09375 9.703125 21.1875 
C 9.703125 40.8125 21.296875 42 23.90625 42 
C 28.5 42 32.203125 39.40625 34.5 35.796875 
C 35.796875 33.703125 35.796875 33.40625 35.796875 31.609375 
z
" id="CMR17-100"/>
      </defs>
      <use transform="scale(0.996264)" xlink:href="#CMMI12-78"/>
      <use transform="translate(78.115119 -14.943915)scale(0.697382)" xlink:href="#CMR17-105"/>
      <use transform="translate(95.524778 -14.943915)scale(0.697382)" xlink:href="#CMR17-110"/>
      <use transform="translate(131.151386 -14.943915)scale(0.697382)" xlink:href="#CMR17-100"/>
     </g>
    </g>
   </g>
   <g id="LineCollection_2">
    <path clip-path="url(#pc010df445d)" d="M 77.598864 195.789669 
L 77.598864 92.177081 
" style="fill:none;stroke:#0000ff;stroke-width:2;"/>
    <path clip-path="url(#pc010df445d)" d="M 84.03052 221.501113 
L 84.03052 130.531068 
" style="fill:none;stroke:#0000ff;stroke-width:2;"/>
    <path clip-path="url(#pc010df445d)" d="M 90.462175 222.35019 
L 90.462175 131.798108 
" style="fill:none;stroke:#0000ff;stroke-width:2;"/>
    <path clip-path="url(#pc010df445d)" d="M 96.893831 289.785677 
L 96.893831 213.320039 
" style="fill:none;stroke:#0000ff;stroke-width:2;"/>
    <path clip-path="url(#pc010df445d)" d="M 103.325486 343.313599 
L 103.325486 287.998163 
" style="fill:none;stroke:#0000ff;stroke-width:2;"/>
    <path clip-path="url(#pc010df445d)" d="M 109.757142 371.234699 
L 109.757142 328.254928 
" style="fill:none;stroke:#0000ff;stroke-width:2;"/>
    <path clip-path="url(#pc010df445d)" d="M 116.188797 384.396434 
L 116.188797 346.202364 
" style="fill:none;stroke:#0000ff;stroke-width:2;"/>
    <path clip-path="url(#pc010df445d)" d="M 122.620453 391.309995 
L 122.620453 354.319141 
" style="fill:none;stroke:#0000ff;stroke-width:2;"/>
    <path clip-path="url(#pc010df445d)" d="M 129.052108 392.265413 
L 129.052108 356.279506 
" style="fill:none;stroke:#0000ff;stroke-width:2;"/>
    <path clip-path="url(#pc010df445d)" d="M 135.483764 393.463586 
L 135.483764 358.739764 
" style="fill:none;stroke:#0000ff;stroke-width:2;"/>
    <path clip-path="url(#pc010df445d)" d="M 141.91542 394.700585 
L 141.91542 361.282072 
" style="fill:none;stroke:#0000ff;stroke-width:2;"/>
    <path clip-path="url(#pc010df445d)" d="M 148.347075 395.34786 
L 148.347075 362.613405 
" style="fill:none;stroke:#0000ff;stroke-width:2;"/>
    <path clip-path="url(#pc010df445d)" d="M 154.778731 395.521811 
L 154.778731 362.971322 
" style="fill:none;stroke:#0000ff;stroke-width:2;"/>
    <path clip-path="url(#pc010df445d)" d="M 161.210386 395.869371 
L 161.210386 363.686624 
" style="fill:none;stroke:#0000ff;stroke-width:2;"/>
    <path clip-path="url(#pc010df445d)" d="M 167.642042 401.843533 
L 167.642042 371.831602 
" style="fill:none;stroke:#0000ff;stroke-width:2;"/>
    <path clip-path="url(#pc010df445d)" d="M 174.073697 407.159834 
L 174.073697 379.819288 
" style="fill:none;stroke:#0000ff;stroke-width:2;"/>
    <path clip-path="url(#pc010df445d)" d="M 180.505353 408.754133 
L 180.505353 383.458858 
" style="fill:none;stroke:#0000ff;stroke-width:2;"/>
    <path clip-path="url(#pc010df445d)" d="M 186.937008 412.906672 
L 186.937008 390.037541 
" style="fill:none;stroke:#0000ff;stroke-width:2;"/>
    <path clip-path="url(#pc010df445d)" d="M 193.368664 416.061637 
L 193.368664 395.048346 
" style="fill:none;stroke:#0000ff;stroke-width:2;"/>
    <path clip-path="url(#pc010df445d)" d="M 199.800319 418.136885 
L 199.800319 397.928312 
" style="fill:none;stroke:#0000ff;stroke-width:2;"/>
    <path clip-path="url(#pc010df445d)" d="M 206.231975 418.720201 
L 206.231975 399.472397 
" style="fill:none;stroke:#0000ff;stroke-width:2;"/>
    <path clip-path="url(#pc010df445d)" d="M 212.66363 420.199092 
L 212.66363 401.245122 
" style="fill:none;stroke:#0000ff;stroke-width:2;"/>
    <path clip-path="url(#pc010df445d)" d="M 219.095286 420.218143 
L 219.095286 401.297879 
" style="fill:none;stroke:#0000ff;stroke-width:2;"/>
    <path clip-path="url(#pc010df445d)" d="M 225.526941 420.451855 
L 225.526941 401.94563 
" style="fill:none;stroke:#0000ff;stroke-width:2;"/>
    <path clip-path="url(#pc010df445d)" d="M 231.958597 420.467077 
L 231.958597 401.987855 
" style="fill:none;stroke:#0000ff;stroke-width:2;"/>
    <path clip-path="url(#pc010df445d)" d="M 238.390252 420.443071 
L 238.390252 401.921267 
" style="fill:none;stroke:#0000ff;stroke-width:2;"/>
    <path clip-path="url(#pc010df445d)" d="M 244.821908 420.412474 
L 244.821908 401.836412 
" style="fill:none;stroke:#0000ff;stroke-width:2;"/>
    <path clip-path="url(#pc010df445d)" d="M 251.253563 418.578042 
L 251.253563 399.095637 
" style="fill:none;stroke:#0000ff;stroke-width:2;"/>
    <path clip-path="url(#pc010df445d)" d="M 257.685219 418.258189 
L 257.685219 398.249017 
" style="fill:none;stroke:#0000ff;stroke-width:2;"/>
    <path clip-path="url(#pc010df445d)" d="M 264.116874 420.223496 
L 264.116874 401.312704 
" style="fill:none;stroke:#0000ff;stroke-width:2;"/>
    <path clip-path="url(#pc010df445d)" d="M 270.54853 420.905256 
L 270.54853 403.205328 
" style="fill:none;stroke:#0000ff;stroke-width:2;"/>
    <path clip-path="url(#pc010df445d)" d="M 276.980185 423.718692 
L 276.980185 407.509402 
" style="fill:none;stroke:#0000ff;stroke-width:2;"/>
    <path clip-path="url(#pc010df445d)" d="M 283.411841 422.356074 
L 283.411841 405.321138 
" style="fill:none;stroke:#0000ff;stroke-width:2;"/>
    <path clip-path="url(#pc010df445d)" d="M 289.843496 418.338055 
L 289.843496 398.460278 
" style="fill:none;stroke:#0000ff;stroke-width:2;"/>
    <path clip-path="url(#pc010df445d)" d="M 296.275152 412.418922 
L 296.275152 388.865567 
" style="fill:none;stroke:#0000ff;stroke-width:2;"/>
    <path clip-path="url(#pc010df445d)" d="M 302.706807 407.923334 
L 302.706807 381.560863 
" style="fill:none;stroke:#0000ff;stroke-width:2;"/>
    <path clip-path="url(#pc010df445d)" d="M 309.138463 403.242737 
L 309.138463 374.866602 
" style="fill:none;stroke:#0000ff;stroke-width:2;"/>
    <path clip-path="url(#pc010df445d)" d="M 315.570118 400.673061 
L 315.570118 369.296796 
" style="fill:none;stroke:#0000ff;stroke-width:2;"/>
    <path clip-path="url(#pc010df445d)" d="M 322.001774 394.03863 
L 322.001774 359.921297 
" style="fill:none;stroke:#0000ff;stroke-width:2;"/>
    <path clip-path="url(#pc010df445d)" d="M 328.433429 386.411114 
L 328.433429 350.125054 
" style="fill:none;stroke:#0000ff;stroke-width:2;"/>
    <path clip-path="url(#pc010df445d)" d="M 334.865085 382.64843 
L 334.865085 342.802357 
" style="fill:none;stroke:#0000ff;stroke-width:2;"/>
    <path clip-path="url(#pc010df445d)" d="M 341.29674 381.672678 
L 341.29674 340.905681 
" style="fill:none;stroke:#0000ff;stroke-width:2;"/>
    <path clip-path="url(#pc010df445d)" d="M 347.728396 382.076001 
L 347.728396 341.689562 
" style="fill:none;stroke:#0000ff;stroke-width:2;"/>
    <path clip-path="url(#pc010df445d)" d="M 354.160051 384.580279 
L 354.160051 346.560135 
" style="fill:none;stroke:#0000ff;stroke-width:2;"/>
    <path clip-path="url(#pc010df445d)" d="M 360.591707 392.378198 
L 360.591707 356.511004 
" style="fill:none;stroke:#0000ff;stroke-width:2;"/>
    <path clip-path="url(#pc010df445d)" d="M 367.023362 394.27215 
L 367.023362 360.401259 
" style="fill:none;stroke:#0000ff;stroke-width:2;"/>
    <path clip-path="url(#pc010df445d)" d="M 373.455018 394.494923 
L 373.455018 360.859216 
" style="fill:none;stroke:#0000ff;stroke-width:2;"/>
    <path clip-path="url(#pc010df445d)" d="M 379.886673 393.953874 
L 379.886673 359.747117 
" style="fill:none;stroke:#0000ff;stroke-width:2;"/>
    <path clip-path="url(#pc010df445d)" d="M 386.318329 384.449703 
L 386.318329 346.306025 
" style="fill:none;stroke:#0000ff;stroke-width:2;"/>
    <path clip-path="url(#pc010df445d)" d="M 392.749984 381.070115 
L 392.749984 339.734822 
" style="fill:none;stroke:#0000ff;stroke-width:2;"/>
    <path clip-path="url(#pc010df445d)" d="M 399.18164 369.600087 
L 399.18164 325.252701 
" style="fill:none;stroke:#0000ff;stroke-width:2;"/>
    <path clip-path="url(#pc010df445d)" d="M 405.613295 368.287631 
L 405.613295 322.843319 
" style="fill:none;stroke:#0000ff;stroke-width:2;"/>
    <path clip-path="url(#pc010df445d)" d="M 412.044951 368.273172 
L 412.044951 322.816782 
" style="fill:none;stroke:#0000ff;stroke-width:2;"/>
    <path clip-path="url(#pc010df445d)" d="M 418.476606 366.653157 
L 418.476606 319.844102 
" style="fill:none;stroke:#0000ff;stroke-width:2;"/>
    <path clip-path="url(#pc010df445d)" d="M 424.908262 363.08754 
L 424.908262 313.305803 
" style="fill:none;stroke:#0000ff;stroke-width:2;"/>
    <path clip-path="url(#pc010df445d)" d="M 431.339918 345.679202 
L 431.339918 292.078398 
" style="fill:none;stroke:#0000ff;stroke-width:2;"/>
    <path clip-path="url(#pc010df445d)" d="M 437.771573 331.802422 
L 437.771573 268.162861 
" style="fill:none;stroke:#0000ff;stroke-width:2;"/>
    <path clip-path="url(#pc010df445d)" d="M 444.203229 327.494581 
L 444.203229 260.746502 
" style="fill:none;stroke:#0000ff;stroke-width:2;"/>
    <path clip-path="url(#pc010df445d)" d="M 450.634884 330.020569 
L 450.634884 265.094858 
" style="fill:none;stroke:#0000ff;stroke-width:2;"/>
    <path clip-path="url(#pc010df445d)" d="M 457.06654 331.655525 
L 457.06654 267.909912 
" style="fill:none;stroke:#0000ff;stroke-width:2;"/>
    <path clip-path="url(#pc010df445d)" d="M 463.498195 334.04887 
L 463.498195 272.031613 
" style="fill:none;stroke:#0000ff;stroke-width:2;"/>
    <path clip-path="url(#pc010df445d)" d="M 469.929851 307.070089 
L 469.929851 241.163289 
" style="fill:none;stroke:#0000ff;stroke-width:2;"/>
    <path clip-path="url(#pc010df445d)" d="M 476.361506 273.645362 
L 476.361506 187.344785 
" style="fill:none;stroke:#0000ff;stroke-width:2;"/>
    <path clip-path="url(#pc010df445d)" d="M 482.793162 283.862349 
L 482.793162 203.785086 
" style="fill:none;stroke:#0000ff;stroke-width:2;"/>
   </g>
   <g id="line2d_21">
    <path clip-path="url(#pc010df445d)" d="M 77.598864 143.983375 
L 84.03052 176.01609 
L 90.462175 177.074149 
L 96.893831 251.552858 
L 103.325486 315.655881 
L 109.757142 349.744813 
L 116.188797 365.299399 
L 122.620453 372.814568 
L 129.052108 374.27246 
L 135.483764 376.101675 
L 141.91542 377.991328 
L 148.347075 378.980632 
L 154.778731 379.246566 
L 161.210386 379.777997 
L 167.642042 386.837568 
L 174.073697 393.489561 
L 180.505353 396.106495 
L 186.937008 401.472107 
L 193.368664 405.554991 
L 199.800319 408.032598 
L 206.231975 409.096299 
L 212.66363 410.722107 
L 219.095286 410.758011 
L 225.526941 411.198742 
L 231.958597 411.227466 
L 238.390252 411.182169 
L 244.821908 411.124443 
L 251.253563 408.83684 
L 257.685219 408.253603 
L 264.116874 410.7681 
L 270.54853 412.055292 
L 276.980185 415.614047 
L 283.411841 413.838606 
L 289.843496 408.399166 
L 296.275152 400.642244 
L 302.706807 394.742099 
L 309.138463 389.054669 
L 315.570118 384.984929 
L 322.001774 376.979963 
L 328.433429 368.268084 
L 334.865085 362.725394 
L 341.29674 361.289179 
L 347.728396 361.882782 
L 354.160051 365.570207 
L 360.591707 374.444601 
L 367.023362 377.336704 
L 373.455018 377.677069 
L 379.886673 376.850496 
L 386.318329 365.377864 
L 392.749984 360.402469 
L 399.18164 347.426394 
L 405.613295 345.565475 
L 412.044951 345.544977 
L 418.476606 343.24863 
L 424.908262 338.196671 
L 431.339918 318.8788 
L 437.771573 299.982641 
L 444.203229 294.120541 
L 450.634884 297.557713 
L 457.06654 299.782719 
L 463.498195 303.040241 
L 469.929851 274.116689 
L 476.361506 230.495074 
L 482.793162 243.823718 
" style="fill:none;stroke:#0000ff;stroke-linecap:square;stroke-width:2;"/>
   </g>
   <g id="patch_7">
    <path d="M 57.33915 440.295773 
L 57.33915 75.6 
" style="fill:none;stroke:#000000;stroke-linecap:square;stroke-linejoin:miter;stroke-width:0.8;"/>
   </g>
   <g id="patch_8">
    <path d="M 503.052876 440.295773 
L 503.052876 75.6 
" style="fill:none;stroke:#000000;stroke-linecap:square;stroke-linejoin:miter;stroke-width:0.8;"/>
   </g>
   <g id="patch_9">
    <path d="M 57.33915 440.295773 
L 503.052876 440.295773 
" style="fill:none;stroke:#000000;stroke-linecap:square;stroke-linejoin:miter;stroke-width:0.8;"/>
   </g>
   <g id="patch_10">
    <path d="M 57.33915 75.6 
L 503.052876 75.6 
" style="fill:none;stroke:#000000;stroke-linecap:square;stroke-linejoin:miter;stroke-width:0.8;"/>
   </g>
   <g id="text_23">
    <!-- L32 beta11p028 kappa0p1554 Buchoff vector1 -->
    <g transform="translate(60.538641 69.6)scale(0.24 -0.24)">
     <defs>
      <path d="M 54.203125 25.234375 
L 52.40625 25.234375 
C 51.59375 15.359375 50.296875 2.59375 33.203125 2.59375 
L 23.90625 2.59375 
C 19.90625 2.59375 19.703125 3.078125 19.703125 6.46875 
L 19.703125 60.90625 
C 19.703125 64.515625 19.90625 65.5 27.5 65.5 
L 29.703125 65.5 
L 29.703125 68 
C 25.59375 68 20.796875 68 16.703125 68 
C 13.59375 68 8 68 5.09375 68 
L 5.09375 65.5 
C 12 65.5 13.09375 65.5 13.09375 61.015625 
L 13.09375 7.0625 
C 13.09375 2.59375 12 2.59375 5.09375 2.59375 
L 5.09375 0 
L 51.796875 0 
z
" id="CMR17-76"/>
      <path d="M 15 68.6875 
L 3.09375 67.59375 
L 3.09375 65 
C 9 65 9.90625 64.40625 9.90625 59.640625 
L 9.90625 -0.203125 
L 11.703125 -0.203125 
L 14.59375 6.890625 
C 17.5 2.203125 21.796875 -1 27.59375 -1 
C 37.59375 -1 47.703125 7.8125 47.703125 21.40625 
C 47.703125 34.1875 38.703125 43.59375 28.59375 43.59375 
C 22.40625 43.59375 18 40.296875 15 36.40625 
z
M 15.203125 31.3125 
C 15.203125 33.09375 15.203125 33.40625 16.59375 35.5 
C 20.5 41.515625 26.09375 42 28 42 
C 31 42 41.296875 40.390625 41.296875 21.5 
C 41.296875 1.6875 29.5 0.59375 27.09375 0.59375 
C 24 0.59375 19.5 1.78125 16.296875 7.59375 
C 15.203125 9.5 15.203125 9.703125 15.203125 11.484375 
z
" id="CMR17-98"/>
      <path d="M 38.09375 23 
C 38.5 23.40625 38.5 23.609375 38.5 24.625 
C 38.5 34.96875 33.09375 44 21.703125 44 
C 11.09375 44 2.703125 33.890625 2.703125 21.609375 
C 2.703125 8.609375 12.203125 -1 22.796875 -1 
C 34 -1 38.40625 9.484375 38.40625 11.5625 
C 38.40625 12.25 37.796875 12.25 37.59375 12.25 
C 36.90625 12.25 36.796875 12.046875 36.40625 10.875 
C 34.203125 4.140625 28.703125 0.796875 23.5 0.796875 
C 19.203125 0.796875 14.90625 3.171875 12.203125 7.5 
C 9.09375 12.546875 9.09375 18.375 9.09375 23 
z
M 9.203125 24.5 
C 9.90625 39.140625 17.59375 42.40625 21.59375 42.40625 
C 28.40625 42.40625 33 35.890625 33.09375 24.5 
z
" id="CMR17-101"/>
      <path d="M 36 25.828125 
C 36 32.375 36 35.84375 31.796875 39.734375 
C 28.09375 43 23.796875 44 20.40625 44 
C 12.5 44 6.796875 37.609375 6.796875 30.796875 
C 6.796875 27 9.796875 27 10.40625 27 
C 11.703125 27 14 27.78125 14 30.53125 
C 14 33 12.09375 34.078125 10.40625 34.078125 
C 10 34.078125 9.5 33.96875 9.203125 33.875 
C 11.296875 40.5 16.703125 42.40625 20.203125 42.40625 
C 25.203125 42.40625 30.703125 37.953125 30.703125 29.453125 
L 30.703125 25 
C 24.796875 25 17.703125 24.203125 12.09375 21.203125 
C 5.796875 17.703125 4 12.703125 4 8.90625 
C 4 1.203125 13 -1 18.296875 -1 
C 23.796875 -1 28.90625 2.171875 31.09375 7.984375 
C 31.296875 3.640625 34.09375 -0.28125 38.5 -0.28125 
C 40.59375 -0.28125 45.90625 1.09375 45.90625 8.859375 
L 45.90625 14.375 
L 44.09375 14.375 
L 44.09375 8.78125 
C 44.09375 2.78125 41.40625 2 40.09375 2 
C 36 2 36 7.15625 36 11.53125 
z
M 30.703125 13.59375 
C 30.703125 4.953125 24.5 0.59375 19 0.59375 
C 14 0.59375 10.09375 4.296875 10.09375 8.90625 
C 10.09375 11.890625 11.40625 17.1875 17.203125 20.390625 
C 22 23.09375 27.5 23.5 30.703125 23.5 
z
" id="CMR17-97"/>
      <path d="M 22 -16.609375 
C 15.59375 -16.609375 15.203125 -16.203125 15.203125 -12.328125 
L 15.203125 6.28125 
C 18.09375 2.09375 22.296875 -0.59375 27.59375 -0.59375 
C 37.59375 -0.59375 47.703125 8.171875 47.703125 21.6875 
C 47.703125 34.234375 39 43.78125 28.703125 43.78125 
C 22.703125 43.78125 17.796875 40.5 15 36.53125 
L 15 43.78125 
L 3.09375 42.6875 
L 3.09375 40.109375 
C 9 40.109375 9.90625 39.5 9.90625 34.734375 
L 9.90625 -12.328125 
C 9.90625 -16.109375 9.5 -16.609375 3.09375 -16.609375 
L 3.09375 -19.1875 
C 5.5 -19 9.90625 -19 12.5 -19 
C 15.09375 -19 19.59375 -19 22 -19.1875 
z
M 15.203125 31.4375 
C 15.203125 32.84375 15.203125 34.921875 19.09375 38.609375 
C 19.59375 39.015625 23 42 28 42 
C 35.296875 42 41.296875 32.9375 41.296875 21.59375 
C 41.296875 10.25 34.90625 1 27 1 
C 23.40625 1 19.5 2.6875 16.5 7.375 
C 15.203125 9.5625 15.203125 10.15625 15.203125 11.75 
z
" id="CMR17-112"/>
      <path d="M 26.09375 26.140625 
C 26 26.34375 25.5 26.9375 25.5 27.234375 
C 25.5 27.4375 32.59375 33.921875 33.5 34.71875 
C 39.203125 39.5 42.796875 40 45.40625 40 
L 45.40625 42.703125 
C 44.796875 42.703125 44.59375 42.703125 44.5 42.5 
L 39.59375 42.5 
C 36.796875 42.5 32.5 42.5 29.796875 42.703125 
L 29.796875 40.09375 
C 31.203125 39.984375 32.203125 39.1875 32.203125 37.796875 
C 32.203125 35.796875 30.203125 33.90625 30.09375 33.90625 
L 15 20.140625 
L 15 68.6875 
L 3.09375 67.59375 
L 3.09375 65 
C 9 65 9.90625 64.40625 9.90625 59.640625 
L 9.90625 6.65625 
C 9.90625 2.875 9.5 2.390625 3.09375 2.390625 
L 3.09375 -0.203125 
C 5.5 0 9.90625 0 12.40625 0 
C 14.90625 0 19.296875 0 21.703125 -0.203125 
L 21.703125 2.390625 
C 15.296875 2.390625 14.90625 2.78125 14.90625 6.6875 
L 14.90625 17.65625 
L 21.796875 23.9375 
L 31.90625 8.96875 
C 33.09375 7.171875 34.09375 5.765625 34.09375 4.46875 
C 34.09375 2.6875 32.296875 2.390625 31.09375 2.390625 
L 31.09375 -0.203125 
C 33.5 0 37.796875 0 40.296875 0 
C 42.09375 0 45.796875 0 47.5 0 
L 47.5 2.390625 
C 42.796875 2.390625 41.703125 3.28125 38.703125 7.671875 
z
" id="CMR17-107"/>
      <path d="M 5.203125 68 
L 5.203125 65.40625 
C 12.09375 65.40625 13.203125 65.40625 13.203125 60.9375 
L 13.203125 7.0625 
C 13.203125 2.59375 12.09375 2.59375 5.203125 2.59375 
L 5.203125 0 
L 39.59375 0 
C 52.40625 0 60.703125 9.109375 60.703125 18.1875 
C 60.703125 27.203125 52.5 34.890625 41.796875 34.890625 
C 51.40625 36.8125 58.09375 43.296875 58.09375 51 
C 58.09375 59.40625 49.90625 68 37 68 
z
M 19.5 36 
L 19.5 61.515625 
C 19.5 64.921875 19.703125 65.40625 23.703125 65.40625 
L 36.5 65.40625 
C 46.40625 65.40625 50.796875 57.40625 50.796875 51.203125 
C 50.796875 43.609375 44.703125 36 33.90625 36 
z
M 23.703125 2.59375 
C 19.703125 2.59375 19.5 3.078125 19.5 6.453125 
L 19.5 34.40625 
L 38 34.40625 
C 48.296875 34.40625 53.296875 25.390625 53.296875 18.15625 
C 53.296875 10.921875 47.59375 2.59375 36.703125 2.59375 
z
" id="CMR17-66"/>
      <path d="M 29.40625 42.078125 
L 29.40625 39.5 
C 35.296875 39.5 36.203125 38.890625 36.203125 34.15625 
L 36.203125 16.125 
C 36.203125 7.8125 31.703125 0.59375 24.296875 0.59375 
C 16.09375 0.59375 15.40625 5.4375 15.40625 10.59375 
L 15.40625 43.171875 
L 3.296875 42.078125 
L 3.296875 39.5 
C 7.296875 39.5 10 39.5 10.09375 35.53125 
L 10.09375 16.53125 
C 10.09375 9.890625 10.09375 5.640625 12.703125 2.859375 
C 14 1.578125 16.5 -1 23.703125 -1 
C 32.203125 -1 35.5 5.890625 36.296875 7.90625 
L 36.40625 7.90625 
L 36.40625 -0.984375 
L 48.296875 -0.984375 
L 48.296875 2 
C 42.40625 2 41.5 2.59375 41.5 7.390625 
L 41.5 43.171875 
z
" id="CMR17-117"/>
      <path d="M 34.90625 35 
C 33 35 30.203125 35 30.203125 31.515625 
C 30.203125 28.71875 32.5 27.921875 33.796875 27.921875 
C 34.5 27.921875 37.40625 28.234375 37.40625 31.625 
C 37.40625 38.546875 30.59375 43.796875 22.90625 43.796875 
C 12.296875 43.796875 3.296875 34.03125 3.296875 21.296875 
C 3.296875 8.0625 12.703125 -1 22.90625 -1 
C 35.296875 -1 38.40625 10.578125 38.40625 11.6875 
C 38.40625 12.09375 38.296875 12.390625 37.59375 12.390625 
C 36.90625 12.390625 36.796875 12.296875 36.40625 10.984375 
C 33.796875 2.8125 28.09375 0.796875 23.796875 0.796875 
C 17.40625 0.796875 9.703125 6.671875 9.703125 21.390625 
C 9.703125 36.53125 17.09375 42 23 42 
C 26.90625 42 32.703125 40.203125 34.90625 35 
z
" id="CMR17-99"/>
      <path d="M 41.5 30.203125 
C 41.5 35.296875 40.5 43.59375 28.703125 43.59375 
C 20.5 43.59375 16.5 37 15.296875 33.703125 
L 15.203125 33.703125 
L 15.203125 68.6875 
L 3.296875 67.59375 
L 3.296875 65 
C 9.203125 65 10.09375 64.40625 10.09375 59.640625 
L 10.09375 6.65625 
C 10.09375 2.875 9.703125 2.390625 3.296875 2.390625 
L 3.296875 -0.203125 
C 5.703125 0 10.09375 0 12.703125 0 
C 15.296875 0 19.796875 0 22.203125 -0.203125 
L 22.203125 2.390625 
C 15.796875 2.390625 15.40625 2.78125 15.40625 6.6875 
L 15.40625 25.90625 
C 15.40625 35.109375 21 42 28 42 
C 35.40625 42 36.203125 35.40625 36.203125 30.59375 
L 36.203125 6.6875 
C 36.203125 2.875 35.796875 2.390625 29.40625 2.390625 
L 29.40625 -0.203125 
C 31.796875 0 36.203125 0 38.796875 0 
C 41.40625 0 45.90625 0 48.296875 -0.203125 
L 48.296875 2.390625 
C 41.90625 2.390625 41.5 2.78125 41.5 6.6875 
z
" id="CMR17-104"/>
      <path d="M 43.09375 21.1875 
C 43.09375 34 33.796875 44 22.90625 44 
C 12 44 2.703125 34 2.703125 21.1875 
C 2.703125 8.609375 12 -1 22.90625 -1 
C 33.796875 -1 43.09375 8.609375 43.09375 21.1875 
z
M 22.90625 0.796875 
C 18.203125 0.796875 14.203125 3.59375 11.90625 7.5 
C 9.40625 11.984375 9.09375 17.59375 9.09375 22 
C 9.09375 26.203125 9.296875 31.40625 11.90625 35.90625 
C 13.90625 39.203125 17.796875 42.40625 22.90625 42.40625 
C 27.40625 42.40625 31.203125 39.90625 33.59375 36.40625 
C 36.703125 31.703125 36.703125 25.109375 36.703125 22 
C 36.703125 18.09375 36.5 12.109375 33.796875 7.296875 
C 31 2.703125 26.703125 0.796875 22.90625 0.796875 
z
" id="CMR17-111"/>
      <path d="M 39.90625 40 
L 51.296875 40 
L 51.296875 42.578125 
L 39.703125 42.578125 
L 39.703125 54.59375 
C 39.703125 62.84375 43.90625 68 48.203125 68 
C 49.5 68 51 67.609375 52 66.90625 
C 51.203125 66.703125 49.09375 66.015625 49.09375 63.546875 
C 49.09375 60.953125 51.09375 60.15625 52.5 60.15625 
C 53.90625 60.15625 55.90625 60.953125 55.90625 63.546875 
C 55.90625 67.3125 52.296875 69.59375 48.296875 69.59375 
C 44.40625 69.59375 41.203125 67.703125 38.703125 65.328125 
C 36.40625 68.59375 32.59375 69.59375 28.703125 69.59375 
C 20.90625 69.59375 9.90625 65.125 9.90625 54.203125 
L 9.90625 42.578125 
L 1.90625 42.578125 
L 1.90625 40 
L 9.90625 40 
L 9.90625 6.671875 
C 9.90625 2.875 9.5 2.390625 3.09375 2.390625 
L 3.09375 -0.203125 
C 5.5 0 9.90625 0 12.40625 0 
C 15 0 19.40625 0 21.796875 -0.203125 
L 21.796875 2.390625 
C 15.40625 2.390625 15 2.78125 15 6.671875 
L 15 40 
L 34.796875 40 
L 34.796875 6.671875 
C 34.796875 2.875 34.40625 2.390625 28 2.390625 
L 28 -0.203125 
C 30.40625 0 35 0 37.59375 0 
C 40.5 0 45.59375 0 48.296875 -0.203125 
L 48.296875 2.390625 
C 41.09375 2.390625 39.90625 2.390625 39.90625 6.859375 
z
M 14.796875 42.578125 
L 14.796875 54.203125 
C 14.796875 63.234375 21.796875 68 28.5 68 
C 30 68 33.90625 67.6875 36.296875 65.421875 
C 34.5 65.421875 32.796875 64.625 32.796875 62.140625 
C 32.796875 59.5625 35.09375 58.859375 35.296875 58.859375 
C 34.796875 57.0625 34.796875 55.09375 34.796875 54.390625 
L 34.796875 42.578125 
z
" id="CMR17-11"/>
      <path d="M 39.09375 33.796875 
C 40 36 41.59375 40 47.40625 40 
L 47.40625 42.59375 
C 45.5 42.59375 43 42.59375 41.09375 42.59375 
C 39 42.59375 35.703125 42.59375 33.703125 42.6875 
L 33.703125 40.09375 
C 36.203125 39.890625 37.59375 38.703125 37.59375 36.109375 
C 37.59375 35.203125 37.59375 35 37 33.609375 
L 26 5.890625 
L 14.09375 35.71875 
C 13.5 37.015625 13.5 37.203125 13.5 37.609375 
C 13.5 40 16.796875 40 18.296875 40 
L 18.296875 42.6875 
C 15.90625 42.59375 11.5 42.59375 9 42.59375 
C 6.296875 42.59375 3.203125 42.59375 1 42.6875 
L 1 40 
C 4.796875 40 6.90625 40 8.09375 36.90625 
L 22.59375 0.6875 
C 23.203125 -0.796875 23.296875 -1 24.203125 -1 
C 25.09375 -1 25.203125 -0.796875 25.796875 0.6875 
z
" id="CMR17-118"/>
      <path d="M 15 23.390625 
C 15 33 19.09375 42 26.59375 42 
C 27.296875 42 28 41.90625 28.703125 41.59375 
C 28.703125 41.59375 26.5 40.890625 26.5 38.3125 
C 26.5 35.90625 28.40625 34.90625 29.90625 34.90625 
C 31.09375 34.90625 33.296875 35.609375 33.296875 38.40625 
C 33.296875 41.609375 30.09375 43.59375 26.703125 43.59375 
C 19.09375 43.59375 15.796875 36.203125 14.796875 32.703125 
L 14.703125 32.703125 
L 14.703125 43.59375 
L 3.09375 42.5 
L 3.09375 39.90625 
C 9 39.90625 9.90625 39.296875 9.90625 34.5 
L 9.90625 6.6875 
C 9.90625 2.875 9.5 2.390625 3.09375 2.390625 
L 3.09375 -0.203125 
C 5.5 0 10.09375 0 12.703125 0 
C 15.59375 0 20.703125 0 23.40625 -0.203125 
L 23.40625 2.390625 
C 16.203125 2.390625 15 2.390625 15 6.875 
z
" id="CMR17-114"/>
     </defs>
     <use transform="scale(0.996264)" xlink:href="#CMR17-76"/>
     <use transform="translate(57.381408 0)scale(0.996264)" xlink:href="#CMR17-51"/>
     <use transform="translate(103.071885 0)scale(0.996264)" xlink:href="#CMR17-50"/>
     <use transform="translate(178.838328 0)scale(0.996264)" xlink:href="#CMR17-98"/>
     <use transform="translate(232.336137 0)scale(0.996264)" xlink:href="#CMR17-101"/>
     <use transform="translate(272.821797 0)scale(0.996264)" xlink:href="#CMR17-116"/>
     <use transform="translate(308.102565 0)scale(0.996264)" xlink:href="#CMR17-97"/>
     <use transform="translate(353.793042 0)scale(0.996264)" xlink:href="#CMR17-49"/>
     <use transform="translate(399.483519 0)scale(0.996264)" xlink:href="#CMR17-49"/>
     <use transform="translate(445.173997 0)scale(0.996264)" xlink:href="#CMR17-112"/>
     <use transform="translate(496.069366 0)scale(0.996264)" xlink:href="#CMR17-48"/>
     <use transform="translate(541.759843 0)scale(0.996264)" xlink:href="#CMR17-50"/>
     <use transform="translate(587.450321 0)scale(0.996264)" xlink:href="#CMR17-56"/>
     <use transform="translate(663.216764 0)scale(0.996264)" xlink:href="#CMR17-107"/>
     <use transform="translate(706.304863 0)scale(0.996264)" xlink:href="#CMR17-97"/>
     <use transform="translate(751.99534 0)scale(0.996264)" xlink:href="#CMR17-112"/>
     <use transform="translate(802.89071 0)scale(0.996264)" xlink:href="#CMR17-112"/>
     <use transform="translate(853.78608 0)scale(0.996264)" xlink:href="#CMR17-97"/>
     <use transform="translate(899.476557 0)scale(0.996264)" xlink:href="#CMR17-48"/>
     <use transform="translate(945.167034 0)scale(0.996264)" xlink:href="#CMR17-112"/>
     <use transform="translate(996.062404 0)scale(0.996264)" xlink:href="#CMR17-49"/>
     <use transform="translate(1041.752881 0)scale(0.996264)" xlink:href="#CMR17-53"/>
     <use transform="translate(1087.443358 0)scale(0.996264)" xlink:href="#CMR17-53"/>
     <use transform="translate(1133.133835 0)scale(0.996264)" xlink:href="#CMR17-52"/>
     <use transform="translate(1208.900279 0)scale(0.996264)" xlink:href="#CMR17-66"/>
     <use transform="translate(1274.089033 0)scale(0.996264)" xlink:href="#CMR17-117"/>
     <use transform="translate(1324.984403 0)scale(0.996264)" xlink:href="#CMR17-99"/>
     <use transform="translate(1362.86761 0)scale(0.996264)" xlink:href="#CMR17-104"/>
     <use transform="translate(1413.762979 0)scale(0.996264)" xlink:href="#CMR17-111"/>
     <use transform="translate(1459.453456 0)scale(0.996264)" xlink:href="#CMR17-11"/>
     <use transform="translate(1541.8741 0)scale(0.996264)" xlink:href="#CMR17-118"/>
     <use transform="translate(1587.564562 0)scale(0.996264)" xlink:href="#CMR17-101"/>
     <use transform="translate(1628.050222 0)scale(0.996264)" xlink:href="#CMR17-99"/>
     <use transform="translate(1668.535883 0)scale(0.996264)" xlink:href="#CMR17-116"/>
     <use transform="translate(1703.816651 0)scale(0.996264)" xlink:href="#CMR17-111"/>
     <use transform="translate(1749.507128 0)scale(0.996264)" xlink:href="#CMR17-114"/>
     <use transform="translate(1784.787896 0)scale(0.996264)" xlink:href="#CMR17-49"/>
    </g>
   </g>
  </g>
 </g>
 <defs>
  <clipPath id="pc010df445d">
   <rect height="364.695773" width="445.713727" x="57.33915" y="75.6"/>
  </clipPath>
 </defs>
</svg>
