<?xml version="1.0" encoding="utf-8" standalone="no"?>
<!DOCTYPE svg PUBLIC "-//W3C//DTD SVG 1.1//EN"
  "http://www.w3.org/Graphics/SVG/1.1/DTD/svg11.dtd">
<!-- Created with matplotlib (https://matplotlib.org/) -->
<svg height="504pt" version="1.1" viewBox="0 0 576 504" width="576pt" xmlns="http://www.w3.org/2000/svg" xmlns:xlink="http://www.w3.org/1999/xlink">
 <metadata>
  <rdf:RDF xmlns:cc="http://creativecommons.org/ns#" xmlns:dc="http://purl.org/dc/elements/1.1/" xmlns:rdf="http://www.w3.org/1999/02/22-rdf-syntax-ns#">
   <cc:Work>
    <dc:type rdf:resource="http://purl.org/dc/dcmitype/StillImage"/>
    <dc:date>2023-01-25T11:50:42.653684</dc:date>
    <dc:format>image/svg+xml</dc:format>
    <dc:creator>
     <cc:Agent>
      <dc:title>Matplotlib v3.3.4, https://matplotlib.org/</dc:title>
     </cc:Agent>
    </dc:creator>
   </cc:Work>
  </rdf:RDF>
 </metadata>
 <defs>
  <style type="text/css">*{stroke-linecap:butt;stroke-linejoin:round;}</style>
 </defs>
 <g id="figure_1">
  <g id="patch_1">
   <path d="M 0 504 
L 576 504 
L 576 0 
L 0 0 
z
" style="fill:#ffffff;"/>
  </g>
  <g id="axes_1">
   <g id="patch_2">
    <path d="M 77.282672 440.295773 
L 503.052876 440.295773 
L 503.052876 100.8 
L 77.282672 100.8 
z
" style="fill:#ffffff;"/>
   </g>
   <g id="matplotlib.axis_1">
    <g id="xtick_1">
     <g id="line2d_1">
      <defs>
       <path d="M 0 0 
L 0 3.5 
" id="m98b062f192" style="stroke:#000000;stroke-width:0.8;"/>
      </defs>
      <g>
       <use style="stroke:#000000;stroke-width:0.8;" x="96.635863" xlink:href="#m98b062f192" y="440.295773"/>
      </g>
     </g>
     <g id="text_1">
      <!-- $\mathdefault{0}$ -->
      <g transform="translate(92.733869 458.365361)scale(0.16 -0.16)">
       <defs>
        <path d="M 42 31.640625 
C 42 37.75 41.90625 48.125 37.703125 56.109375 
C 34 63.109375 28.09375 65.59375 22.90625 65.59375 
C 18.09375 65.59375 12 63.40625 8.203125 56.203125 
C 4.203125 48.71875 3.796875 39.4375 3.796875 31.640625 
C 3.796875 25.953125 3.90625 17.28125 7 9.671875 
C 11.296875 -0.609375 19 -2 22.90625 -2 
C 27.5 -2 34.5 -0.109375 38.59375 9.375 
C 41.59375 16.28125 42 24.359375 42 31.640625 
z
M 22.90625 -0.40625 
C 16.5 -0.40625 12.703125 5.078125 11.296875 12.6875 
C 10.203125 18.5625 10.203125 27.15625 10.203125 32.75 
C 10.203125 40.4375 10.203125 46.828125 11.5 52.921875 
C 13.40625 61.390625 19 64 22.90625 64 
C 27 64 32.296875 61.296875 34.203125 53.125 
C 35.5 47.4375 35.59375 40.734375 35.59375 32.75 
C 35.59375 26.25 35.59375 18.265625 34.40625 12.375 
C 32.296875 1.484375 26.40625 -0.40625 22.90625 -0.40625 
z
" id="CMR17-48"/>
       </defs>
       <use transform="scale(0.996264)" xlink:href="#CMR17-48"/>
      </g>
     </g>
    </g>
    <g id="xtick_2">
     <g id="line2d_2">
      <g>
       <use style="stroke:#000000;stroke-width:0.8;" x="158.074565" xlink:href="#m98b062f192" y="440.295773"/>
      </g>
     </g>
     <g id="text_2">
      <!-- $\mathdefault{10}$ -->
      <g transform="translate(150.270578 458.365361)scale(0.16 -0.16)">
       <defs>
        <path d="M 26.59375 63.40625 
C 26.59375 65.5 26.5 65.5 25.09375 65.5 
C 21.203125 61.1875 15.296875 59.796875 9.703125 59.796875 
C 9.40625 59.796875 8.90625 59.796875 8.796875 59.5 
C 8.703125 59.296875 8.703125 59.09375 8.703125 57 
C 11.796875 57 17 57.59375 21 59.984375 
L 21 7.203125 
C 21 3.6875 20.796875 2.5 12.203125 2.5 
L 9.203125 2.5 
L 9.203125 0 
C 14 0 19 0 23.796875 0 
C 28.59375 0 33.59375 0 38.40625 0 
L 38.40625 2.5 
L 35.40625 2.5 
C 26.796875 2.5 26.59375 3.59375 26.59375 7.15625 
z
" id="CMR17-49"/>
       </defs>
       <use transform="scale(0.996264)" xlink:href="#CMR17-49"/>
       <use transform="translate(45.690477 0)scale(0.996264)" xlink:href="#CMR17-48"/>
      </g>
     </g>
    </g>
    <g id="xtick_3">
     <g id="line2d_3">
      <g>
       <use style="stroke:#000000;stroke-width:0.8;" x="219.513267" xlink:href="#m98b062f192" y="440.295773"/>
      </g>
     </g>
     <g id="text_3">
      <!-- $\mathdefault{20}$ -->
      <g transform="translate(211.70928 458.365361)scale(0.16 -0.16)">
       <defs>
        <path d="M 41.703125 15.453125 
L 39.90625 15.453125 
C 38.90625 8.375 38.09375 7.171875 37.703125 6.5625 
C 37.203125 5.765625 30 5.765625 28.59375 5.765625 
L 9.40625 5.765625 
C 13 9.671875 20 16.75 28.5 24.953125 
C 34.59375 30.734375 41.703125 37.53125 41.703125 47.421875 
C 41.703125 59.21875 32.296875 66 21.796875 66 
C 10.796875 66 4.09375 56.3125 4.09375 47.34375 
C 4.09375 43.4375 7 42.9375 8.203125 42.9375 
C 9.203125 42.9375 12.203125 43.546875 12.203125 47.03125 
C 12.203125 50.109375 9.59375 51 8.203125 51 
C 7.59375 51 7 50.90625 6.59375 50.703125 
C 8.5 59.21875 14.296875 63.40625 20.40625 63.40625 
C 29.09375 63.40625 34.796875 56.515625 34.796875 47.421875 
C 34.796875 38.734375 29.703125 31.25 24 24.75 
L 4.09375 2.28125 
L 4.09375 0 
L 39.296875 0 
z
" id="CMR17-50"/>
       </defs>
       <use transform="scale(0.996264)" xlink:href="#CMR17-50"/>
       <use transform="translate(45.690477 0)scale(0.996264)" xlink:href="#CMR17-48"/>
      </g>
     </g>
    </g>
    <g id="xtick_4">
     <g id="line2d_4">
      <g>
       <use style="stroke:#000000;stroke-width:0.8;" x="280.951969" xlink:href="#m98b062f192" y="440.295773"/>
      </g>
     </g>
     <g id="text_4">
      <!-- $\mathdefault{30}$ -->
      <g transform="translate(273.147982 458.365361)scale(0.16 -0.16)">
       <defs>
        <path d="M 22.09375 33.703125 
C 31 33.703125 34.90625 25.96875 34.90625 17.03125 
C 34.90625 5 28.5 0.390625 22.703125 0.390625 
C 17.40625 0.390625 8.796875 3.03125 6.09375 10.828125 
C 6.59375 10.625 7.09375 10.625 7.59375 10.625 
C 10 10.625 11.796875 12.21875 11.796875 14.8125 
C 11.796875 17.703125 9.59375 19 7.59375 19 
C 5.90625 19 3.296875 18.203125 3.296875 14.46875 
C 3.296875 5.234375 12.296875 -2 22.90625 -2 
C 34 -2 42.5 6.71875 42.5 16.953125 
C 42.5 26.671875 34.5 33.703125 25 34.796875 
C 32.59375 36.375 39.90625 43.0625 39.90625 52.015625 
C 39.90625 59.6875 32 65.296875 23 65.296875 
C 13.90625 65.296875 5.90625 59.828125 5.90625 52.015625 
C 5.90625 48.59375 8.5 48 9.796875 48 
C 11.90625 48 13.703125 49.296875 13.703125 51.890625 
C 13.703125 54.46875 11.90625 55.765625 9.796875 55.765625 
C 9.40625 55.765625 8.90625 55.765625 8.5 55.578125 
C 11.40625 61.859375 19.296875 63 22.796875 63 
C 26.296875 63 32.90625 61.328125 32.90625 51.875 
C 32.90625 49.109375 32.5 44.1875 29.09375 39.84375 
C 26.09375 36 22.703125 36 19.40625 35.6875 
C 18.90625 35.6875 16.59375 35.453125 16.203125 35.453125 
C 15.5 35.359375 15.09375 35.265625 15.09375 34.5 
C 15.09375 33.796875 15.203125 33.703125 17.203125 33.703125 
z
" id="CMR17-51"/>
       </defs>
       <use transform="scale(0.996264)" xlink:href="#CMR17-51"/>
       <use transform="translate(45.690477 0)scale(0.996264)" xlink:href="#CMR17-48"/>
      </g>
     </g>
    </g>
    <g id="xtick_5">
     <g id="line2d_5">
      <g>
       <use style="stroke:#000000;stroke-width:0.8;" x="342.390671" xlink:href="#m98b062f192" y="440.295773"/>
      </g>
     </g>
     <g id="text_5">
      <!-- $\mathdefault{40}$ -->
      <g transform="translate(334.586684 458.365361)scale(0.16 -0.16)">
       <defs>
        <path d="M 33.59375 64.40625 
C 33.59375 66.5 33.5 66.5 31.703125 66.5 
L 2 19.59375 
L 2 17 
L 27.796875 17 
L 27.796875 7.140625 
C 27.796875 3.5 27.59375 2.5 20.59375 2.5 
L 18.703125 2.5 
L 18.703125 0 
C 21.90625 0 27.296875 0 30.703125 0 
C 34.09375 0 39.5 0 42.703125 0 
L 42.703125 2.5 
L 40.796875 2.5 
C 33.796875 2.5 33.59375 3.5 33.59375 7.140625 
L 33.59375 17 
L 43.796875 17 
L 43.796875 19.59375 
L 33.59375 19.59375 
z
M 28.09375 57.859375 
L 28.09375 19.59375 
L 4 19.59375 
z
" id="CMR17-52"/>
       </defs>
       <use transform="scale(0.996264)" xlink:href="#CMR17-52"/>
       <use transform="translate(45.690477 0)scale(0.996264)" xlink:href="#CMR17-48"/>
      </g>
     </g>
    </g>
    <g id="xtick_6">
     <g id="line2d_6">
      <g>
       <use style="stroke:#000000;stroke-width:0.8;" x="403.829373" xlink:href="#m98b062f192" y="440.295773"/>
      </g>
     </g>
     <g id="text_6">
      <!-- $\mathdefault{50}$ -->
      <g transform="translate(396.025386 458.365361)scale(0.16 -0.16)">
       <defs>
        <path d="M 11.40625 57.6875 
C 12.40625 57.28125 16.5 56 20.703125 56 
C 30 56 35.09375 61.109375 38 64.0625 
C 38 64.953125 38 65.5 37.40625 65.5 
C 37.296875 65.5 37.09375 65.5 36.296875 65.046875 
C 32.796875 63.40625 28.703125 62.078125 23.703125 62.078125 
C 20.703125 62.078125 16.203125 62.484375 11.296875 64.671875 
C 10.203125 65.171875 10 65.171875 9.90625 65.171875 
C 9.40625 65.171875 9.296875 65.0625 9.296875 63.078125 
L 9.296875 34.421875 
C 9.296875 32.640625 9.296875 32.140625 10.296875 32.140625 
C 10.796875 32.140625 11 32.34375 11.5 33.03125 
C 14.703125 37.515625 19.09375 39.40625 24.09375 39.40625 
C 27.59375 39.40625 35.09375 37.21875 35.09375 20.140625 
C 35.09375 16.953125 35.09375 11.171875 32.09375 6.578125 
C 29.59375 2.484375 25.703125 0.390625 21.40625 0.390625 
C 14.796875 0.390625 8.09375 5 6.296875 12.71875 
C 6.703125 12.609375 7.5 12.421875 7.90625 12.421875 
C 9.203125 12.421875 11.703125 13.125 11.703125 16.21875 
C 11.703125 18.90625 9.796875 20 7.90625 20 
C 5.59375 20 4.09375 18.59375 4.09375 15.796875 
C 4.09375 7.09375 11 -2 21.59375 -2 
C 31.90625 -2 41.703125 6.875 41.703125 19.75 
C 41.703125 31.71875 33.90625 41 24.203125 41 
C 19.09375 41 14.796875 39.109375 11.40625 35.53125 
z
" id="CMR17-53"/>
       </defs>
       <use transform="scale(0.996264)" xlink:href="#CMR17-53"/>
       <use transform="translate(45.690477 0)scale(0.996264)" xlink:href="#CMR17-48"/>
      </g>
     </g>
    </g>
    <g id="xtick_7">
     <g id="line2d_7">
      <g>
       <use style="stroke:#000000;stroke-width:0.8;" x="465.268075" xlink:href="#m98b062f192" y="440.295773"/>
      </g>
     </g>
     <g id="text_7">
      <!-- $\mathdefault{60}$ -->
      <g transform="translate(457.464088 458.365361)scale(0.16 -0.16)">
       <defs>
        <path d="M 10.59375 34 
C 10.59375 57.65625 21.796875 63 28.296875 63 
C 30.40625 63 35.5 62.640625 37.5 59 
C 35.90625 59 32.90625 59 32.90625 55.515625 
C 32.90625 52.828125 35.09375 51.921875 36.5 51.921875 
C 37.40625 51.921875 40.09375 52.3125 40.09375 55.625 
C 40.09375 61.78125 35.09375 65.296875 28.203125 65.296875 
C 16.296875 65.296875 3.796875 52.96875 3.796875 31 
C 3.796875 3.953125 15.09375 -2 23.09375 -2 
C 32.796875 -2 42 6.671875 42 20.046875 
C 42 32.515625 33.90625 41.59375 23.703125 41.59375 
C 17.59375 41.59375 13.09375 37.609375 10.59375 30.625 
z
M 23.09375 0.390625 
C 10.796875 0.390625 10.796875 18.75 10.796875 22.4375 
C 10.796875 29.625 14.203125 40 23.5 40 
C 25.203125 40 30.09375 40 33.40625 33.125 
C 35.203125 29.21875 35.203125 25.140625 35.203125 20.140625 
C 35.203125 14.75 35.203125 10.78125 33.09375 6.78125 
C 30.90625 2.671875 27.703125 0.390625 23.09375 0.390625 
z
" id="CMR17-54"/>
       </defs>
       <use transform="scale(0.996264)" xlink:href="#CMR17-54"/>
       <use transform="translate(45.690477 0)scale(0.996264)" xlink:href="#CMR17-48"/>
      </g>
     </g>
    </g>
    <g id="text_8">
     <!-- $t$ -->
     <g transform="translate(285.940615 482.069243)scale(0.24 -0.24)">
      <defs>
       <path d="M 20.09375 40.09375 
L 29.296875 40.09375 
C 31.203125 40.09375 32.203125 40.09375 32.203125 41.890625 
C 32.203125 43 31.59375 43 29.59375 43 
L 20.796875 43 
L 24.5 57.6875 
C 24.90625 59.078125 24.90625 59.28125 24.90625 60 
C 24.90625 61.609375 23.59375 62.5 22.296875 62.5 
C 21.5 62.5 19.203125 62.203125 18.40625 58.984375 
L 14.5 43 
L 5.09375 43 
C 3.09375 43 2.203125 43 2.203125 41.09375 
C 2.203125 40.09375 2.90625 40.09375 4.796875 40.09375 
L 13.703125 40.09375 
L 7.09375 13.765625 
C 6.296875 10.28125 6 9.28125 6 7.984375 
C 6 3.296875 9.296875 -1 14.90625 -1 
C 25 -1 30.40625 13.5625 30.40625 14.25 
C 30.40625 14.859375 30 15.15625 29.40625 15.15625 
C 29.203125 15.15625 28.796875 15.15625 28.59375 14.75 
C 28.5 14.65625 28.40625 14.546875 27.703125 12.953125 
C 25.59375 7.984375 21 1 15.203125 1 
C 12.203125 1 12 3.5 12 5.6875 
C 12 5.78125 12 7.6875 12.296875 8.875 
z
" id="CMMI12-116"/>
      </defs>
      <use transform="scale(0.996264)" xlink:href="#CMMI12-116"/>
     </g>
    </g>
   </g>
   <g id="matplotlib.axis_2">
    <g id="ytick_1">
     <g id="line2d_8">
      <defs>
       <path d="M 0 0 
L -3.5 0 
" id="mdd9d91e9e0" style="stroke:#000000;stroke-width:0.8;"/>
      </defs>
      <g>
       <use style="stroke:#000000;stroke-width:0.8;" x="77.282672" xlink:href="#mdd9d91e9e0" y="431.212609"/>
      </g>
     </g>
     <g id="text_9">
      <!-- $\mathdefault{0.0}$ -->
      <g transform="translate(50.33915 436.747403)scale(0.16 -0.16)">
       <defs>
        <path d="M 18.40625 4.796875 
C 18.40625 7.6875 16 9.671875 13.59375 9.671875 
C 10.703125 9.671875 8.703125 7.28125 8.703125 4.890625 
C 8.703125 2 11.09375 0 13.5 0 
C 16.40625 0 18.40625 2.390625 18.40625 4.796875 
z
" id="CMMI12-58"/>
       </defs>
       <use transform="scale(0.996264)" xlink:href="#CMR17-48"/>
       <use transform="translate(45.690477 0)scale(0.996264)" xlink:href="#CMMI12-58"/>
       <use transform="translate(72.787654 0)scale(0.996264)" xlink:href="#CMR17-48"/>
      </g>
     </g>
    </g>
    <g id="ytick_2">
     <g id="line2d_9">
      <g>
       <use style="stroke:#000000;stroke-width:0.8;" x="77.282672" xlink:href="#mdd9d91e9e0" y="392.295128"/>
      </g>
     </g>
     <g id="text_10">
      <!-- $\mathdefault{2.5}$ -->
      <g transform="translate(50.33915 397.829922)scale(0.16 -0.16)">
       <use transform="scale(0.996264)" xlink:href="#CMR17-50"/>
       <use transform="translate(45.690477 0)scale(0.996264)" xlink:href="#CMMI12-58"/>
       <use transform="translate(72.787654 0)scale(0.996264)" xlink:href="#CMR17-53"/>
      </g>
     </g>
    </g>
    <g id="ytick_3">
     <g id="line2d_10">
      <g>
       <use style="stroke:#000000;stroke-width:0.8;" x="77.282672" xlink:href="#mdd9d91e9e0" y="353.377646"/>
      </g>
     </g>
     <g id="text_11">
      <!-- $\mathdefault{5.0}$ -->
      <g transform="translate(50.33915 358.912441)scale(0.16 -0.16)">
       <use transform="scale(0.996264)" xlink:href="#CMR17-53"/>
       <use transform="translate(45.690477 0)scale(0.996264)" xlink:href="#CMMI12-58"/>
       <use transform="translate(72.787654 0)scale(0.996264)" xlink:href="#CMR17-48"/>
      </g>
     </g>
    </g>
    <g id="ytick_4">
     <g id="line2d_11">
      <g>
       <use style="stroke:#000000;stroke-width:0.8;" x="77.282672" xlink:href="#mdd9d91e9e0" y="314.460165"/>
      </g>
     </g>
     <g id="text_12">
      <!-- $\mathdefault{7.5}$ -->
      <g transform="translate(50.33915 319.994959)scale(0.16 -0.16)">
       <defs>
        <path d="M 45.09375 61.578125 
L 45.09375 63.765625 
L 21.59375 63.765625 
C 9.90625 63.765625 9.703125 65.078125 9.296875 67 
L 7.5 67 
L 4.59375 48.34375 
L 6.40625 48.34375 
C 6.703125 50.234375 7.40625 55.3125 8.59375 57.203125 
C 9.203125 58 16.59375 58 18.296875 58 
L 40.296875 58 
L 29.203125 41.578125 
C 21.796875 30.53125 16.703125 15.609375 16.703125 2.578125 
C 16.703125 1.390625 16.703125 -2 20.296875 -2 
C 23.90625 -2 23.90625 1.390625 23.90625 2.671875 
L 23.90625 7.265625 
C 23.90625 23.5625 26.703125 34.3125 31.296875 41.1875 
z
" id="CMR17-55"/>
       </defs>
       <use transform="scale(0.996264)" xlink:href="#CMR17-55"/>
       <use transform="translate(45.690477 0)scale(0.996264)" xlink:href="#CMMI12-58"/>
       <use transform="translate(72.787654 0)scale(0.996264)" xlink:href="#CMR17-53"/>
      </g>
     </g>
    </g>
    <g id="ytick_5">
     <g id="line2d_12">
      <g>
       <use style="stroke:#000000;stroke-width:0.8;" x="77.282672" xlink:href="#mdd9d91e9e0" y="275.542684"/>
      </g>
     </g>
     <g id="text_13">
      <!-- $\mathdefault{10.0}$ -->
      <g transform="translate(42.535163 281.077478)scale(0.16 -0.16)">
       <use transform="scale(0.996264)" xlink:href="#CMR17-49"/>
       <use transform="translate(45.690477 0)scale(0.996264)" xlink:href="#CMR17-48"/>
       <use transform="translate(91.380954 0)scale(0.996264)" xlink:href="#CMMI12-58"/>
       <use transform="translate(118.478131 0)scale(0.996264)" xlink:href="#CMR17-48"/>
      </g>
     </g>
    </g>
    <g id="ytick_6">
     <g id="line2d_13">
      <g>
       <use style="stroke:#000000;stroke-width:0.8;" x="77.282672" xlink:href="#mdd9d91e9e0" y="236.625202"/>
      </g>
     </g>
     <g id="text_14">
      <!-- $\mathdefault{12.5}$ -->
      <g transform="translate(42.535163 242.159997)scale(0.16 -0.16)">
       <use transform="scale(0.996264)" xlink:href="#CMR17-49"/>
       <use transform="translate(45.690477 0)scale(0.996264)" xlink:href="#CMR17-50"/>
       <use transform="translate(91.380954 0)scale(0.996264)" xlink:href="#CMMI12-58"/>
       <use transform="translate(118.478131 0)scale(0.996264)" xlink:href="#CMR17-53"/>
      </g>
     </g>
    </g>
    <g id="ytick_7">
     <g id="line2d_14">
      <g>
       <use style="stroke:#000000;stroke-width:0.8;" x="77.282672" xlink:href="#mdd9d91e9e0" y="197.707721"/>
      </g>
     </g>
     <g id="text_15">
      <!-- $\mathdefault{15.0}$ -->
      <g transform="translate(42.535163 203.242515)scale(0.16 -0.16)">
       <use transform="scale(0.996264)" xlink:href="#CMR17-49"/>
       <use transform="translate(45.690477 0)scale(0.996264)" xlink:href="#CMR17-53"/>
       <use transform="translate(91.380954 0)scale(0.996264)" xlink:href="#CMMI12-58"/>
       <use transform="translate(118.478131 0)scale(0.996264)" xlink:href="#CMR17-48"/>
      </g>
     </g>
    </g>
    <g id="ytick_8">
     <g id="line2d_15">
      <g>
       <use style="stroke:#000000;stroke-width:0.8;" x="77.282672" xlink:href="#mdd9d91e9e0" y="158.79024"/>
      </g>
     </g>
     <g id="text_16">
      <!-- $\mathdefault{17.5}$ -->
      <g transform="translate(42.535163 164.325034)scale(0.16 -0.16)">
       <use transform="scale(0.996264)" xlink:href="#CMR17-49"/>
       <use transform="translate(45.690477 0)scale(0.996264)" xlink:href="#CMR17-55"/>
       <use transform="translate(91.380954 0)scale(0.996264)" xlink:href="#CMMI12-58"/>
       <use transform="translate(118.478131 0)scale(0.996264)" xlink:href="#CMR17-53"/>
      </g>
     </g>
    </g>
    <g id="ytick_9">
     <g id="line2d_16">
      <g>
       <use style="stroke:#000000;stroke-width:0.8;" x="77.282672" xlink:href="#mdd9d91e9e0" y="119.872758"/>
      </g>
     </g>
     <g id="text_17">
      <!-- $\mathdefault{20.0}$ -->
      <g transform="translate(42.535163 125.407553)scale(0.16 -0.16)">
       <use transform="scale(0.996264)" xlink:href="#CMR17-50"/>
       <use transform="translate(45.690477 0)scale(0.996264)" xlink:href="#CMR17-48"/>
       <use transform="translate(91.380954 0)scale(0.996264)" xlink:href="#CMMI12-58"/>
       <use transform="translate(118.478131 0)scale(0.996264)" xlink:href="#CMR17-48"/>
      </g>
     </g>
    </g>
    <g id="text_18">
     <!-- $\tau_{\rm int}$ -->
     <g transform="translate(33.884405 285.418992)rotate(-90)scale(0.24 -0.24)">
      <defs>
       <path d="M 28.703125 37.625 
L 45.296875 37.625 
C 46.59375 37.625 49.90625 37.625 49.90625 40.8125 
C 49.90625 43 48 43 46.203125 43 
L 18.703125 43 
C 16.40625 43 13 43 8.40625 38.125 
C 5.796875 35.234375 2.59375 29.953125 2.59375 29.359375 
C 2.59375 28.765625 3.09375 28.5625 3.703125 28.5625 
C 4.40625 28.5625 4.5 28.859375 5 29.453125 
C 10.203125 37.625 15.40625 37.625 17.90625 37.625 
L 26.203125 37.625 
L 15.796875 3.484375 
C 15.296875 1.984375 15.296875 1.78125 15.296875 1.484375 
C 15.296875 0.390625 16 -1 18 -1 
C 21.09375 -1 21.59375 1.6875 21.90625 3.171875 
z
" id="CMMI12-28"/>
       <path d="M 15.5 61.078125 
C 15.5 63.265625 13.703125 65.15625 11.40625 65.15625 
C 9.203125 65.15625 7.296875 63.375 7.296875 61.078125 
C 7.296875 58.890625 9.09375 57 11.40625 57 
C 13.59375 57 15.5 58.796875 15.5 61.078125 
z
M 3.796875 42.28125 
L 3.796875 39.703125 
C 9.40625 39.703125 10.203125 39.09375 10.203125 34.328125 
L 10.203125 6.671875 
C 10.203125 2.875 9.796875 2.390625 3.40625 2.390625 
L 3.40625 -0.203125 
C 5.796875 0 10.09375 0 12.59375 0 
C 15 0 19.09375 0 21.40625 -0.203125 
L 21.40625 2.390625 
C 15.5 2.390625 15.296875 2.984375 15.296875 6.5625 
L 15.296875 43.375 
z
" id="CMR17-105"/>
       <path d="M 41.5 30.203125 
C 41.5 35.296875 40.5 43.59375 28.703125 43.59375 
C 20.796875 43.59375 16.703125 37.5 15.203125 33.5 
L 15.09375 33.5 
L 15.09375 43.59375 
L 3.296875 42.5 
L 3.296875 39.90625 
C 9.203125 39.90625 10.09375 39.296875 10.09375 34.5 
L 10.09375 6.6875 
C 10.09375 2.875 9.703125 2.390625 3.296875 2.390625 
L 3.296875 -0.203125 
C 5.703125 0 10.09375 0 12.703125 0 
C 15.296875 0 19.796875 0 22.203125 -0.203125 
L 22.203125 2.390625 
C 15.796875 2.390625 15.40625 2.78125 15.40625 6.6875 
L 15.40625 25.90625 
C 15.40625 35.109375 21 42 28 42 
C 35.40625 42 36.203125 35.40625 36.203125 30.59375 
L 36.203125 6.6875 
C 36.203125 2.875 35.796875 2.390625 29.40625 2.390625 
L 29.40625 -0.203125 
C 31.796875 0 36.203125 0 38.796875 0 
C 41.40625 0 45.90625 0 48.296875 -0.203125 
L 48.296875 2.390625 
C 41.90625 2.390625 41.5 2.78125 41.5 6.6875 
z
" id="CMR17-110"/>
       <path d="M 15.09375 40 
L 29.09375 40 
L 29.09375 42.578125 
L 15.09375 42.578125 
L 15.09375 61 
L 13.296875 61 
C 13.09375 50.703125 9.59375 41.6875 1.09375 41.6875 
L 1.09375 40 
L 9.796875 40 
L 9.796875 12.046875 
C 9.796875 10.15625 9.796875 -1 21.40625 -1 
C 27.296875 -1 30.703125 4.78125 30.703125 12.140625 
L 30.703125 17.8125 
L 28.90625 17.8125 
L 28.90625 12.234375 
C 28.90625 5.375 26.203125 0.796875 22 0.796875 
C 19.09375 0.796875 15.09375 2.78125 15.09375 11.84375 
z
" id="CMR17-116"/>
      </defs>
      <use transform="scale(0.996264)" xlink:href="#CMMI12-28"/>
      <use transform="translate(42.363841 -14.943915)scale(0.697382)" xlink:href="#CMR17-105"/>
      <use transform="translate(59.7735 -14.943915)scale(0.697382)" xlink:href="#CMR17-110"/>
      <use transform="translate(93.578387 -14.943915)scale(0.697382)" xlink:href="#CMR17-116"/>
     </g>
    </g>
   </g>
   <g id="LineCollection_1">
    <path clip-path="url(#p105de02355)" d="M 96.635863 422.934278 
L 96.635863 418.570559 
" style="fill:none;stroke:#000000;stroke-width:2;"/>
    <path clip-path="url(#p105de02355)" d="M 102.779733 424.73061 
L 102.779733 421.976876 
" style="fill:none;stroke:#000000;stroke-width:2;"/>
    <path clip-path="url(#p105de02355)" d="M 108.923603 424.864147 
L 108.923603 421.404041 
" style="fill:none;stroke:#000000;stroke-width:2;"/>
    <path clip-path="url(#p105de02355)" d="M 115.067474 424.439486 
L 115.067474 420.774636 
" style="fill:none;stroke:#000000;stroke-width:2;"/>
    <path clip-path="url(#p105de02355)" d="M 121.211344 423.28197 
L 121.211344 419.075968 
" style="fill:none;stroke:#000000;stroke-width:2;"/>
    <path clip-path="url(#p105de02355)" d="M 127.355214 422.286125 
L 127.355214 417.634356 
" style="fill:none;stroke:#000000;stroke-width:2;"/>
    <path clip-path="url(#p105de02355)" d="M 133.499084 420.808558 
L 133.499084 415.52912 
" style="fill:none;stroke:#000000;stroke-width:2;"/>
    <path clip-path="url(#p105de02355)" d="M 139.642954 418.533098 
L 139.642954 410.953277 
" style="fill:none;stroke:#000000;stroke-width:2;"/>
    <path clip-path="url(#p105de02355)" d="M 145.786825 414.264657 
L 145.786825 402.990728 
" style="fill:none;stroke:#000000;stroke-width:2;"/>
    <path clip-path="url(#p105de02355)" d="M 151.930695 412.793693 
L 151.930695 400.780263 
" style="fill:none;stroke:#000000;stroke-width:2;"/>
    <path clip-path="url(#p105de02355)" d="M 158.074565 410.860179 
L 158.074565 395.864923 
" style="fill:none;stroke:#000000;stroke-width:2;"/>
    <path clip-path="url(#p105de02355)" d="M 164.218435 409.403657 
L 164.218435 393.613662 
" style="fill:none;stroke:#000000;stroke-width:2;"/>
    <path clip-path="url(#p105de02355)" d="M 170.362305 406.554239 
L 170.362305 386.884582 
" style="fill:none;stroke:#000000;stroke-width:2;"/>
    <path clip-path="url(#p105de02355)" d="M 176.506176 402.527102 
L 176.506176 377.891469 
" style="fill:none;stroke:#000000;stroke-width:2;"/>
    <path clip-path="url(#p105de02355)" d="M 182.650046 397.839798 
L 182.650046 367.39438 
" style="fill:none;stroke:#000000;stroke-width:2;"/>
    <path clip-path="url(#p105de02355)" d="M 188.793916 391.365309 
L 188.793916 353.57062 
" style="fill:none;stroke:#000000;stroke-width:2;"/>
    <path clip-path="url(#p105de02355)" d="M 194.937786 381.112094 
L 194.937786 329.004347 
" style="fill:none;stroke:#000000;stroke-width:2;"/>
    <path clip-path="url(#p105de02355)" d="M 201.081656 365.965634 
L 201.081656 289.614726 
" style="fill:none;stroke:#000000;stroke-width:2;"/>
    <path clip-path="url(#p105de02355)" d="M 207.225527 351.155968 
L 207.225527 247.568257 
" style="fill:none;stroke:#000000;stroke-width:2;"/>
    <path clip-path="url(#p105de02355)" d="M 213.369397 339.162342 
L 213.369397 214.597612 
" style="fill:none;stroke:#000000;stroke-width:2;"/>
    <path clip-path="url(#p105de02355)" d="M 219.513267 327.341336 
L 219.513267 180.799978 
" style="fill:none;stroke:#000000;stroke-width:2;"/>
    <path clip-path="url(#p105de02355)" d="M 225.657137 319.532836 
L 225.657137 160.716167 
" style="fill:none;stroke:#000000;stroke-width:2;"/>
    <path clip-path="url(#p105de02355)" d="M 231.801007 314.643498 
L 231.801007 153.691621 
" style="fill:none;stroke:#000000;stroke-width:2;"/>
    <path clip-path="url(#p105de02355)" d="M 237.944877 311.824193 
L 237.944877 140.648378 
" style="fill:none;stroke:#000000;stroke-width:2;"/>
    <path clip-path="url(#p105de02355)" d="M 244.088748 310.383063 
L 244.088748 138.607224 
" style="fill:none;stroke:#000000;stroke-width:2;"/>
    <path clip-path="url(#p105de02355)" d="M 250.232618 307.862818 
L 250.232618 135.091272 
" style="fill:none;stroke:#000000;stroke-width:2;"/>
    <path clip-path="url(#p105de02355)" d="M 256.376488 304.415596 
L 256.376488 120.869701 
" style="fill:none;stroke:#000000;stroke-width:2;"/>
    <path clip-path="url(#p105de02355)" d="M 262.520358 301.920818 
L 262.520358 117.438133 
" style="fill:none;stroke:#000000;stroke-width:2;"/>
    <path clip-path="url(#p105de02355)" d="M 268.664228 301.032387 
L 268.664228 116.231626 
" style="fill:none;stroke:#000000;stroke-width:2;"/>
    <path clip-path="url(#p105de02355)" d="M 274.808099 302.245753 
L 274.808099 117.881429 
" style="fill:none;stroke:#000000;stroke-width:2;"/>
    <path clip-path="url(#p105de02355)" d="M 280.951969 305.002439 
L 280.951969 131.182159 
" style="fill:none;stroke:#000000;stroke-width:2;"/>
    <path clip-path="url(#p105de02355)" d="M 287.095839 308.548 
L 287.095839 136.040457 
" style="fill:none;stroke:#000000;stroke-width:2;"/>
    <path clip-path="url(#p105de02355)" d="M 293.239709 313.135013 
L 293.239709 142.524581 
" style="fill:none;stroke:#000000;stroke-width:2;"/>
    <path clip-path="url(#p105de02355)" d="M 299.383579 318.861314 
L 299.383579 159.73556 
" style="fill:none;stroke:#000000;stroke-width:2;"/>
    <path clip-path="url(#p105de02355)" d="M 305.52745 324.731055 
L 305.52745 176.908145 
" style="fill:none;stroke:#000000;stroke-width:2;"/>
    <path clip-path="url(#p105de02355)" d="M 311.67132 329.685424 
L 311.67132 192.463111 
" style="fill:none;stroke:#000000;stroke-width:2;"/>
    <path clip-path="url(#p105de02355)" d="M 317.81519 334.472466 
L 317.81519 199.703233 
" style="fill:none;stroke:#000000;stroke-width:2;"/>
    <path clip-path="url(#p105de02355)" d="M 323.95906 338.687567 
L 323.95906 213.864813 
" style="fill:none;stroke:#000000;stroke-width:2;"/>
    <path clip-path="url(#p105de02355)" d="M 330.10293 341.838874 
L 330.10293 226.091699 
" style="fill:none;stroke:#000000;stroke-width:2;"/>
    <path clip-path="url(#p105de02355)" d="M 336.246801 344.119273 
L 336.246801 229.601935 
" style="fill:none;stroke:#000000;stroke-width:2;"/>
    <path clip-path="url(#p105de02355)" d="M 342.390671 345.967356 
L 342.390671 232.495197 
" style="fill:none;stroke:#000000;stroke-width:2;"/>
    <path clip-path="url(#p105de02355)" d="M 348.534541 348.788114 
L 348.534541 243.846743 
" style="fill:none;stroke:#000000;stroke-width:2;"/>
    <path clip-path="url(#p105de02355)" d="M 354.678411 351.664153 
L 354.678411 248.376554 
" style="fill:none;stroke:#000000;stroke-width:2;"/>
    <path clip-path="url(#p105de02355)" d="M 360.822281 355.482933 
L 360.822281 260.952045 
" style="fill:none;stroke:#000000;stroke-width:2;"/>
    <path clip-path="url(#p105de02355)" d="M 366.966152 360.062066 
L 366.966152 274.401688 
" style="fill:none;stroke:#000000;stroke-width:2;"/>
    <path clip-path="url(#p105de02355)" d="M 373.110022 365.158185 
L 373.110022 288.327619 
" style="fill:none;stroke:#000000;stroke-width:2;"/>
    <path clip-path="url(#p105de02355)" d="M 379.253892 368.730037 
L 379.253892 294.090602 
" style="fill:none;stroke:#000000;stroke-width:2;"/>
    <path clip-path="url(#p105de02355)" d="M 385.397762 373.694638 
L 385.397762 307.462325 
" style="fill:none;stroke:#000000;stroke-width:2;"/>
    <path clip-path="url(#p105de02355)" d="M 391.541632 377.446121 
L 391.541632 318.481889 
" style="fill:none;stroke:#000000;stroke-width:2;"/>
    <path clip-path="url(#p105de02355)" d="M 397.685503 381.104423 
L 397.685503 328.992038 
" style="fill:none;stroke:#000000;stroke-width:2;"/>
    <path clip-path="url(#p105de02355)" d="M 403.829373 385.376822 
L 403.829373 340.114327 
" style="fill:none;stroke:#000000;stroke-width:2;"/>
    <path clip-path="url(#p105de02355)" d="M 409.973243 388.791192 
L 409.973243 345.635933 
" style="fill:none;stroke:#000000;stroke-width:2;"/>
    <path clip-path="url(#p105de02355)" d="M 416.117113 395.103839 
L 416.117113 363.021739 
" style="fill:none;stroke:#000000;stroke-width:2;"/>
    <path clip-path="url(#p105de02355)" d="M 422.260983 400.560089 
L 422.260983 374.760845 
" style="fill:none;stroke:#000000;stroke-width:2;"/>
    <path clip-path="url(#p105de02355)" d="M 428.404854 405.777102 
L 428.404854 385.66028 
" style="fill:none;stroke:#000000;stroke-width:2;"/>
    <path clip-path="url(#p105de02355)" d="M 434.548724 409.980182 
L 434.548724 394.500515 
" style="fill:none;stroke:#000000;stroke-width:2;"/>
    <path clip-path="url(#p105de02355)" d="M 440.692594 413.984944 
L 440.692594 402.567541 
" style="fill:none;stroke:#000000;stroke-width:2;"/>
    <path clip-path="url(#p105de02355)" d="M 446.836464 416.899939 
L 446.836464 408.553736 
" style="fill:none;stroke:#000000;stroke-width:2;"/>
    <path clip-path="url(#p105de02355)" d="M 452.980334 419.769932 
L 452.980334 412.801944 
" style="fill:none;stroke:#000000;stroke-width:2;"/>
    <path clip-path="url(#p105de02355)" d="M 459.124205 420.659056 
L 459.124205 415.318355 
" style="fill:none;stroke:#000000;stroke-width:2;"/>
    <path clip-path="url(#p105de02355)" d="M 465.268075 422.51697 
L 465.268075 417.966903 
" style="fill:none;stroke:#000000;stroke-width:2;"/>
    <path clip-path="url(#p105de02355)" d="M 471.411945 423.344578 
L 471.411945 419.167214 
" style="fill:none;stroke:#000000;stroke-width:2;"/>
    <path clip-path="url(#p105de02355)" d="M 477.555815 423.699559 
L 477.555815 419.685931 
" style="fill:none;stroke:#000000;stroke-width:2;"/>
    <path clip-path="url(#p105de02355)" d="M 483.699685 424.717994 
L 483.699685 421.187046 
" style="fill:none;stroke:#000000;stroke-width:2;"/>
   </g>
   <g id="line2d_17">
    <path clip-path="url(#p105de02355)" d="M 96.635863 420.752419 
L 102.779733 423.353743 
L 108.923603 423.134094 
L 115.067474 422.607061 
L 121.211344 421.178969 
L 127.355214 419.96024 
L 133.499084 418.168839 
L 139.642954 414.743187 
L 145.786825 408.627693 
L 151.930695 406.786978 
L 158.074565 403.362551 
L 164.218435 401.50866 
L 170.362305 396.719411 
L 176.506176 390.209286 
L 182.650046 382.617089 
L 188.793916 372.467964 
L 194.937786 355.058221 
L 201.081656 327.79018 
L 207.225527 299.362113 
L 213.369397 276.879977 
L 219.513267 254.070657 
L 225.657137 240.124501 
L 231.801007 234.16756 
L 237.944877 226.236286 
L 244.088748 224.495144 
L 250.232618 221.477045 
L 256.376488 212.642648 
L 262.520358 209.679475 
L 268.664228 208.632006 
L 274.808099 210.063591 
L 280.951969 218.092299 
L 287.095839 222.294229 
L 293.239709 227.829797 
L 299.383579 239.298437 
L 305.52745 250.8196 
L 311.67132 261.074267 
L 317.81519 267.087849 
L 323.95906 276.27619 
L 330.10293 283.965287 
L 336.246801 286.860604 
L 342.390671 289.231276 
L 348.534541 296.317428 
L 354.678411 300.020353 
L 360.822281 308.217489 
L 366.966152 317.231877 
L 373.110022 326.742902 
L 379.253892 331.41032 
L 385.397762 340.578481 
L 391.541632 347.964005 
L 397.685503 355.048231 
L 403.829373 362.745574 
L 409.973243 367.213562 
L 416.117113 379.062789 
L 422.260983 387.660467 
L 428.404854 395.718691 
L 434.548724 402.240348 
L 440.692594 408.276242 
L 446.836464 412.726838 
L 452.980334 416.285938 
L 459.124205 417.988705 
L 465.268075 420.241936 
L 471.411945 421.255896 
L 477.555815 421.692745 
L 483.699685 422.95252 
" style="fill:none;stroke:#000000;stroke-linecap:square;stroke-width:2;"/>
   </g>
   <g id="patch_3">
    <path d="M 77.282672 440.295773 
L 77.282672 100.8 
" style="fill:none;stroke:#000000;stroke-linecap:square;stroke-linejoin:miter;stroke-width:0.8;"/>
   </g>
   <g id="patch_4">
    <path d="M 503.052876 440.295773 
L 503.052876 100.8 
" style="fill:none;stroke:#000000;stroke-linecap:square;stroke-linejoin:miter;stroke-width:0.8;"/>
   </g>
   <g id="patch_5">
    <path d="M 77.282672 440.295773 
L 503.052876 440.295773 
" style="fill:none;stroke:#000000;stroke-linecap:square;stroke-linejoin:miter;stroke-width:0.8;"/>
   </g>
   <g id="patch_6">
    <path d="M 77.282672 100.8 
L 503.052876 100.8 
" style="fill:none;stroke:#000000;stroke-linecap:square;stroke-linejoin:miter;stroke-width:0.8;"/>
   </g>
  </g>
  <g id="axes_2">
   <g id="matplotlib.axis_3">
    <g id="ytick_10">
     <g id="line2d_18">
      <defs>
       <path d="M 0 0 
L 3.5 0 
" id="m619986e7ad" style="stroke:#000000;stroke-width:0.8;"/>
      </defs>
      <g>
       <use style="stroke:#000000;stroke-width:0.8;" x="503.052876" xlink:href="#m619986e7ad" y="430.356136"/>
      </g>
     </g>
     <g id="text_19">
      <!-- $\mathdefault{0}$ -->
      <g transform="translate(510.052876 435.89093)scale(0.16 -0.16)">
       <use transform="scale(0.996264)" xlink:href="#CMR17-48"/>
      </g>
     </g>
    </g>
    <g id="ytick_11">
     <g id="line2d_19">
      <g>
       <use style="stroke:#000000;stroke-width:0.8;" x="503.052876" xlink:href="#m619986e7ad" y="378.716731"/>
      </g>
     </g>
     <g id="text_20">
      <!-- $\mathdefault{50}$ -->
      <g transform="translate(510.052876 384.251525)scale(0.16 -0.16)">
       <use transform="scale(0.996264)" xlink:href="#CMR17-53"/>
       <use transform="translate(45.690477 0)scale(0.996264)" xlink:href="#CMR17-48"/>
      </g>
     </g>
    </g>
    <g id="ytick_12">
     <g id="line2d_20">
      <g>
       <use style="stroke:#000000;stroke-width:0.8;" x="503.052876" xlink:href="#m619986e7ad" y="327.077325"/>
      </g>
     </g>
     <g id="text_21">
      <!-- $\mathdefault{100}$ -->
      <g transform="translate(510.052876 332.612119)scale(0.16 -0.16)">
       <use transform="scale(0.996264)" xlink:href="#CMR17-49"/>
       <use transform="translate(45.690477 0)scale(0.996264)" xlink:href="#CMR17-48"/>
       <use transform="translate(91.380954 0)scale(0.996264)" xlink:href="#CMR17-48"/>
      </g>
     </g>
    </g>
    <g id="ytick_13">
     <g id="line2d_21">
      <g>
       <use style="stroke:#000000;stroke-width:0.8;" x="503.052876" xlink:href="#m619986e7ad" y="275.43792"/>
      </g>
     </g>
     <g id="text_22">
      <!-- $\mathdefault{150}$ -->
      <g transform="translate(510.052876 280.972714)scale(0.16 -0.16)">
       <use transform="scale(0.996264)" xlink:href="#CMR17-49"/>
       <use transform="translate(45.690477 0)scale(0.996264)" xlink:href="#CMR17-53"/>
       <use transform="translate(91.380954 0)scale(0.996264)" xlink:href="#CMR17-48"/>
      </g>
     </g>
    </g>
    <g id="ytick_14">
     <g id="line2d_22">
      <g>
       <use style="stroke:#000000;stroke-width:0.8;" x="503.052876" xlink:href="#m619986e7ad" y="223.798514"/>
      </g>
     </g>
     <g id="text_23">
      <!-- $\mathdefault{200}$ -->
      <g transform="translate(510.052876 229.333309)scale(0.16 -0.16)">
       <use transform="scale(0.996264)" xlink:href="#CMR17-50"/>
       <use transform="translate(45.690477 0)scale(0.996264)" xlink:href="#CMR17-48"/>
       <use transform="translate(91.380954 0)scale(0.996264)" xlink:href="#CMR17-48"/>
      </g>
     </g>
    </g>
    <g id="ytick_15">
     <g id="line2d_23">
      <g>
       <use style="stroke:#000000;stroke-width:0.8;" x="503.052876" xlink:href="#m619986e7ad" y="172.159109"/>
      </g>
     </g>
     <g id="text_24">
      <!-- $\mathdefault{250}$ -->
      <g transform="translate(510.052876 177.693903)scale(0.16 -0.16)">
       <use transform="scale(0.996264)" xlink:href="#CMR17-50"/>
       <use transform="translate(45.690477 0)scale(0.996264)" xlink:href="#CMR17-53"/>
       <use transform="translate(91.380954 0)scale(0.996264)" xlink:href="#CMR17-48"/>
      </g>
     </g>
    </g>
    <g id="ytick_16">
     <g id="line2d_24">
      <g>
       <use style="stroke:#000000;stroke-width:0.8;" x="503.052876" xlink:href="#m619986e7ad" y="120.519704"/>
      </g>
     </g>
     <g id="text_25">
      <!-- $\mathdefault{300}$ -->
      <g transform="translate(510.052876 126.054498)scale(0.16 -0.16)">
       <use transform="scale(0.996264)" xlink:href="#CMR17-51"/>
       <use transform="translate(45.690477 0)scale(0.996264)" xlink:href="#CMR17-48"/>
       <use transform="translate(91.380954 0)scale(0.996264)" xlink:href="#CMR17-48"/>
      </g>
     </g>
    </g>
    <g id="text_26">
     <!-- $N_{\rm ind}$ -->
     <g style="fill:#0000ff;" transform="translate(554.069243 291.302454)rotate(-90)scale(0.24 -0.24)">
      <defs>
       <path d="M 74 57.78125 
C 75.09375 62.09375 76.703125 65.09375 84.296875 65.09375 
C 84.59375 65.09375 85.796875 65.09375 85.796875 66.859375 
C 85.796875 68 84.90625 68 84.5 68 
C 82.5 68 77.40625 68 75.40625 68 
L 70.59375 68 
C 69.203125 68 67.40625 68 66 68 
C 65.40625 68 64.203125 68 64.203125 66.09375 
C 64.203125 65.09375 65 65.09375 65.703125 65.09375 
C 71.703125 65.09375 72.09375 62.796875 72.09375 60.984375 
C 72.09375 60.09375 72 59.78125 71.703125 58.390625 
L 60.40625 13.28125 
L 39 66.390625 
C 38.296875 68 38.203125 68 36 68 
L 23.796875 68 
C 21.796875 68 20.90625 68 20.90625 66.09375 
C 20.90625 65.09375 21.59375 65.09375 23.5 65.09375 
C 24 65.09375 29.90625 65.09375 29.90625 64.296875 
C 29.90625 64.09375 29.703125 63.296875 29.59375 63 
L 16.296875 9.921875 
C 15.09375 5 12.703125 2.90625 6.09375 2.90625 
C 5.59375 2.90625 4.59375 2.90625 4.59375 1.046875 
C 4.59375 0 5.59375 0 5.90625 0 
C 7.90625 0 13 0 15 0 
L 19.796875 0 
C 21.203125 0 22.90625 0 24.296875 0 
C 25 0 26.09375 0 26.09375 1.90625 
C 26.09375 2.8125 25.09375 2.90625 24.703125 2.90625 
C 21.40625 2.90625 18.203125 3.5 18.203125 7.09375 
C 18.203125 7.890625 18.40625 8.78125 18.59375 9.578125 
L 32.09375 63 
C 32.703125 62 32.703125 61.8125 33.09375 60.90625 
L 56.90625 1.796875 
C 57.40625 0.59375 57.59375 0 58.5 0 
C 59.5 0 59.59375 0.296875 60 2 
z
" id="CMMI12-78"/>
       <path d="M 29.203125 67.59375 
L 29.203125 65 
C 35.09375 65 36 64.40625 36 59.6875 
L 36 36.640625 
C 35.59375 37.140625 31.5 43.59375 23.40625 43.59375 
C 13.203125 43.59375 3.296875 34.5 3.296875 21.3125 
C 3.296875 8.203125 12.59375 -1 22.40625 -1 
C 30.90625 -1 35.296875 5.265625 35.796875 5.9375 
L 35.796875 -0.984375 
L 47.90625 -0.984375 
L 47.90625 2 
C 42 2 41.09375 2.59375 41.09375 7.390625 
L 41.09375 68.6875 
z
M 35.796875 11.796875 
C 35.796875 8.796875 34 6.09375 31.703125 4.09375 
C 28.296875 1.09375 24.90625 0.59375 23 0.59375 
C 20.09375 0.59375 9.703125 2.09375 9.703125 21.1875 
C 9.703125 40.8125 21.296875 42 23.90625 42 
C 28.5 42 32.203125 39.40625 34.5 35.796875 
C 35.796875 33.703125 35.796875 33.40625 35.796875 31.609375 
z
" id="CMR17-100"/>
      </defs>
      <use transform="scale(0.996264)" xlink:href="#CMMI12-78"/>
      <use transform="translate(78.115119 -14.943915)scale(0.697382)" xlink:href="#CMR17-105"/>
      <use transform="translate(95.524778 -14.943915)scale(0.697382)" xlink:href="#CMR17-110"/>
      <use transform="translate(131.151386 -14.943915)scale(0.697382)" xlink:href="#CMR17-100"/>
     </g>
    </g>
   </g>
   <g id="LineCollection_2">
    <path clip-path="url(#p105de02355)" d="M 96.635863 272.222988 
L 96.635863 188.866999 
" style="fill:none;stroke:#0000ff;stroke-width:2;"/>
    <path clip-path="url(#p105de02355)" d="M 102.779733 211.000646 
L 102.779733 117.812341 
" style="fill:none;stroke:#0000ff;stroke-width:2;"/>
    <path clip-path="url(#p105de02355)" d="M 108.923603 227.04332 
L 108.923603 116.231626 
" style="fill:none;stroke:#0000ff;stroke-width:2;"/>
    <path clip-path="url(#p105de02355)" d="M 115.067474 239.19869 
L 115.067474 135.765876 
" style="fill:none;stroke:#0000ff;stroke-width:2;"/>
    <path clip-path="url(#p105de02355)" d="M 121.211344 265.710415 
L 121.211344 178.390826 
" style="fill:none;stroke:#0000ff;stroke-width:2;"/>
    <path clip-path="url(#p105de02355)" d="M 127.355214 283.005559 
L 127.355214 206.218242 
" style="fill:none;stroke:#0000ff;stroke-width:2;"/>
    <path clip-path="url(#p105de02355)" d="M 133.499084 302.548878 
L 133.499084 237.694292 
" style="fill:none;stroke:#0000ff;stroke-width:2;"/>
    <path clip-path="url(#p105de02355)" d="M 139.642954 332.653765 
L 139.642954 274.247216 
" style="fill:none;stroke:#0000ff;stroke-width:2;"/>
    <path clip-path="url(#p105de02355)" d="M 145.786825 360.911366 
L 145.786825 314.716083 
" style="fill:none;stroke:#0000ff;stroke-width:2;"/>
    <path clip-path="url(#p105de02355)" d="M 151.930695 365.830576 
L 151.930695 323.74486 
" style="fill:none;stroke:#0000ff;stroke-width:2;"/>
    <path clip-path="url(#p105de02355)" d="M 158.074565 375.512864 
L 158.074565 335.10546 
" style="fill:none;stroke:#0000ff;stroke-width:2;"/>
    <path clip-path="url(#p105de02355)" d="M 164.218435 378.694792 
L 164.218435 341.291236 
" style="fill:none;stroke:#0000ff;stroke-width:2;"/>
    <path clip-path="url(#p105de02355)" d="M 170.362305 387.0393 
L 170.362305 352.486031 
" style="fill:none;stroke:#0000ff;stroke-width:2;"/>
    <path clip-path="url(#p105de02355)" d="M 176.506176 394.695941 
L 176.506176 364.07032 
" style="fill:none;stroke:#0000ff;stroke-width:2;"/>
    <path clip-path="url(#p105de02355)" d="M 182.650046 400.819596 
L 182.650046 373.873939 
" style="fill:none;stroke:#0000ff;stroke-width:2;"/>
    <path clip-path="url(#p105de02355)" d="M 188.793916 406.222563 
L 188.793916 383.332155 
" style="fill:none;stroke:#0000ff;stroke-width:2;"/>
    <path clip-path="url(#p105de02355)" d="M 194.937786 412.300549 
L 194.937786 393.521581 
" style="fill:none;stroke:#0000ff;stroke-width:2;"/>
    <path clip-path="url(#p105de02355)" d="M 201.081656 417.606723 
L 201.081656 402.687574 
" style="fill:none;stroke:#0000ff;stroke-width:2;"/>
    <path clip-path="url(#p105de02355)" d="M 207.225527 420.731305 
L 207.225527 408.277444 
" style="fill:none;stroke:#0000ff;stroke-width:2;"/>
    <path clip-path="url(#p105de02355)" d="M 213.369397 422.278788 
L 213.369397 411.348317 
" style="fill:none;stroke:#0000ff;stroke-width:2;"/>
    <path clip-path="url(#p105de02355)" d="M 219.513267 423.437637 
L 219.513267 413.677034 
" style="fill:none;stroke:#0000ff;stroke-width:2;"/>
    <path clip-path="url(#p105de02355)" d="M 225.657137 423.963699 
L 225.657137 414.873192 
" style="fill:none;stroke:#0000ff;stroke-width:2;"/>
    <path clip-path="url(#p105de02355)" d="M 231.801007 424.081165 
L 231.801007 415.417049 
" style="fill:none;stroke:#0000ff;stroke-width:2;"/>
    <path clip-path="url(#p105de02355)" d="M 237.944877 424.417126 
L 237.944877 415.901936 
" style="fill:none;stroke:#0000ff;stroke-width:2;"/>
    <path clip-path="url(#p105de02355)" d="M 244.088748 424.446264 
L 244.088748 416.044566 
" style="fill:none;stroke:#0000ff;stroke-width:2;"/>
    <path clip-path="url(#p105de02355)" d="M 250.232618 424.495381 
L 250.232618 416.286436 
" style="fill:none;stroke:#0000ff;stroke-width:2;"/>
    <path clip-path="url(#p105de02355)" d="M 256.376488 424.808763 
L 256.376488 416.778625 
" style="fill:none;stroke:#0000ff;stroke-width:2;"/>
    <path clip-path="url(#p105de02355)" d="M 262.520358 424.849925 
L 262.520358 416.993273 
" style="fill:none;stroke:#0000ff;stroke-width:2;"/>
    <path clip-path="url(#p105de02355)" d="M 268.664228 424.864147 
L 268.664228 417.067849 
" style="fill:none;stroke:#0000ff;stroke-width:2;"/>
    <path clip-path="url(#p105de02355)" d="M 274.808099 424.844667 
L 274.808099 416.965757 
" style="fill:none;stroke:#0000ff;stroke-width:2;"/>
    <path clip-path="url(#p105de02355)" d="M 280.951969 424.548439 
L 280.951969 416.549911 
" style="fill:none;stroke:#0000ff;stroke-width:2;"/>
    <path clip-path="url(#p105de02355)" d="M 287.095839 424.482253 
L 287.095839 416.221606 
" style="fill:none;stroke:#0000ff;stroke-width:2;"/>
    <path clip-path="url(#p105de02355)" d="M 293.239709 424.389929 
L 293.239709 415.769351 
" style="fill:none;stroke:#0000ff;stroke-width:2;"/>
    <path clip-path="url(#p105de02355)" d="M 299.383579 423.980504 
L 299.383579 414.950547 
" style="fill:none;stroke:#0000ff;stroke-width:2;"/>
    <path clip-path="url(#p105de02355)" d="M 305.52745 423.51711 
L 305.52745 414.022839 
" style="fill:none;stroke:#0000ff;stroke-width:2;"/>
    <path clip-path="url(#p105de02355)" d="M 311.67132 423.025574 
L 311.67132 413.11772 
" style="fill:none;stroke:#0000ff;stroke-width:2;"/>
    <path clip-path="url(#p105de02355)" d="M 317.81519 422.849976 
L 317.81519 412.393103 
" style="fill:none;stroke:#0000ff;stroke-width:2;"/>
    <path clip-path="url(#p105de02355)" d="M 323.95906 422.300283 
L 323.95906 411.432373 
" style="fill:none;stroke:#0000ff;stroke-width:2;"/>
    <path clip-path="url(#p105de02355)" d="M 330.10293 421.740757 
L 330.10293 410.583052 
" style="fill:none;stroke:#0000ff;stroke-width:2;"/>
    <path clip-path="url(#p105de02355)" d="M 336.246801 421.620419 
L 336.246801 410.133993 
" style="fill:none;stroke:#0000ff;stroke-width:2;"/>
    <path clip-path="url(#p105de02355)" d="M 342.390671 421.517871 
L 342.390671 409.753029 
" style="fill:none;stroke:#0000ff;stroke-width:2;"/>
    <path clip-path="url(#p105de02355)" d="M 348.534541 420.888911 
L 348.534541 408.835411 
" style="fill:none;stroke:#0000ff;stroke-width:2;"/>
    <path clip-path="url(#p105de02355)" d="M 354.678411 420.696191 
L 354.678411 408.15349 
" style="fill:none;stroke:#0000ff;stroke-width:2;"/>
    <path clip-path="url(#p105de02355)" d="M 360.822281 419.893295 
L 360.822281 406.832871 
" style="fill:none;stroke:#0000ff;stroke-width:2;"/>
    <path clip-path="url(#p105de02355)" d="M 366.966152 418.909586 
L 366.966152 405.128723 
" style="fill:none;stroke:#0000ff;stroke-width:2;"/>
    <path clip-path="url(#p105de02355)" d="M 373.110022 417.706429 
L 373.110022 402.993045 
" style="fill:none;stroke:#0000ff;stroke-width:2;"/>
    <path clip-path="url(#p105de02355)" d="M 379.253892 417.245095 
L 379.253892 401.583116 
" style="fill:none;stroke:#0000ff;stroke-width:2;"/>
    <path clip-path="url(#p105de02355)" d="M 385.397762 415.721587 
L 385.397762 398.86981 
" style="fill:none;stroke:#0000ff;stroke-width:2;"/>
    <path clip-path="url(#p105de02355)" d="M 391.541632 414.141133 
L 391.541632 396.358583 
" style="fill:none;stroke:#0000ff;stroke-width:2;"/>
    <path clip-path="url(#p105de02355)" d="M 397.685503 412.302521 
L 397.685503 393.526808 
" style="fill:none;stroke:#0000ff;stroke-width:2;"/>
    <path clip-path="url(#p105de02355)" d="M 403.829373 409.919898 
L 403.829373 389.739267 
" style="fill:none;stroke:#0000ff;stroke-width:2;"/>
    <path clip-path="url(#p105de02355)" d="M 409.973243 408.709149 
L 409.973243 386.687694 
" style="fill:none;stroke:#0000ff;stroke-width:2;"/>
    <path clip-path="url(#p105de02355)" d="M 416.117113 402.605921 
L 416.117113 377.95027 
" style="fill:none;stroke:#0000ff;stroke-width:2;"/>
    <path clip-path="url(#p105de02355)" d="M 422.260983 396.580274 
L 422.260983 368.152214 
" style="fill:none;stroke:#0000ff;stroke-width:2;"/>
    <path clip-path="url(#p105de02355)" d="M 428.404854 388.158141 
L 428.404854 354.783947 
" style="fill:none;stroke:#0000ff;stroke-width:2;"/>
    <path clip-path="url(#p105de02355)" d="M 434.548724 377.487979 
L 434.548724 338.944036 
" style="fill:none;stroke:#0000ff;stroke-width:2;"/>
    <path clip-path="url(#p105de02355)" d="M 440.692594 361.911965 
L 440.692594 316.551513 
" style="fill:none;stroke:#0000ff;stroke-width:2;"/>
    <path clip-path="url(#p105de02355)" d="M 446.836464 342.816491 
L 446.836464 291.769151 
" style="fill:none;stroke:#0000ff;stroke-width:2;"/>
    <path clip-path="url(#p105de02355)" d="M 452.980334 323.01628 
L 452.980334 257.651953 
" style="fill:none;stroke:#0000ff;stroke-width:2;"/>
    <path clip-path="url(#p105de02355)" d="M 459.124205 304.220253 
L 459.124205 240.388291 
" style="fill:none;stroke:#0000ff;stroke-width:2;"/>
    <path clip-path="url(#p105de02355)" d="M 465.268075 279.350099 
L 465.268075 200.334923 
" style="fill:none;stroke:#0000ff;stroke-width:2;"/>
    <path clip-path="url(#p105de02355)" d="M 471.411945 264.47639 
L 471.411945 176.406047 
" style="fill:none;stroke:#0000ff;stroke-width:2;"/>
    <path clip-path="url(#p105de02355)" d="M 477.555815 257.089844 
L 477.555815 164.527377 
" style="fill:none;stroke:#0000ff;stroke-width:2;"/>
    <path clip-path="url(#p105de02355)" d="M 483.699685 231.406445 
L 483.699685 123.242854 
" style="fill:none;stroke:#0000ff;stroke-width:2;"/>
   </g>
   <g id="line2d_25">
    <path clip-path="url(#p105de02355)" d="M 96.635863 230.544993 
L 102.779733 164.406493 
L 108.923603 171.637473 
L 115.067474 187.482283 
L 121.211344 222.05062 
L 127.355214 244.611901 
L 133.499084 270.121585 
L 139.642954 303.450491 
L 145.786825 337.813725 
L 151.930695 344.787718 
L 158.074565 355.309162 
L 164.218435 359.993014 
L 170.362305 369.762665 
L 176.506176 379.383131 
L 182.650046 387.346768 
L 188.793916 394.777359 
L 194.937786 402.911065 
L 201.081656 410.147148 
L 207.225527 414.504375 
L 213.369397 416.813552 
L 219.513267 418.557335 
L 225.657137 419.418446 
L 231.801007 419.749107 
L 237.944877 420.159531 
L 244.088748 420.245415 
L 250.232618 420.390909 
L 256.376488 420.793694 
L 262.520358 420.921599 
L 268.664228 420.965998 
L 274.808099 420.905212 
L 280.951969 420.549175 
L 287.095839 420.35193 
L 293.239709 420.07964 
L 299.383579 419.465525 
L 305.52745 418.769974 
L 311.67132 418.071647 
L 317.81519 417.62154 
L 323.95906 416.866328 
L 330.10293 416.161904 
L 336.246801 415.877206 
L 342.390671 415.63545 
L 348.534541 414.862161 
L 354.678411 414.42484 
L 360.822281 413.363083 
L 366.966152 412.019154 
L 373.110022 410.349737 
L 379.253892 409.414105 
L 385.397762 407.295699 
L 391.541632 405.249858 
L 397.685503 402.914665 
L 403.829373 399.829582 
L 409.973243 397.698421 
L 416.117113 390.278095 
L 422.260983 382.366244 
L 428.404854 371.471044 
L 434.548724 358.216007 
L 440.692594 339.231739 
L 446.836464 317.292821 
L 452.980334 290.334116 
L 459.124205 272.304272 
L 465.268075 239.842511 
L 471.411945 220.441219 
L 477.555815 210.808611 
L 483.699685 177.324649 
" style="fill:none;stroke:#0000ff;stroke-linecap:square;stroke-width:2;"/>
   </g>
   <g id="patch_7">
    <path d="M 77.282672 440.295773 
L 77.282672 100.8 
" style="fill:none;stroke:#000000;stroke-linecap:square;stroke-linejoin:miter;stroke-width:0.8;"/>
   </g>
   <g id="patch_8">
    <path d="M 503.052876 440.295773 
L 503.052876 100.8 
" style="fill:none;stroke:#000000;stroke-linecap:square;stroke-linejoin:miter;stroke-width:0.8;"/>
   </g>
   <g id="patch_9">
    <path d="M 77.282672 440.295773 
L 503.052876 440.295773 
" style="fill:none;stroke:#000000;stroke-linecap:square;stroke-linejoin:miter;stroke-width:0.8;"/>
   </g>
   <g id="patch_10">
    <path d="M 77.282672 100.8 
L 503.052876 100.8 
" style="fill:none;stroke:#000000;stroke-linecap:square;stroke-linejoin:miter;stroke-width:0.8;"/>
   </g>
   <g id="text_27">
    <!-- L32 beta11p5 kappa0p1515 N260 MCMC5 Buchoff -->
    <g transform="translate(45.992147 70.223956)scale(0.24 -0.24)">
     <defs>
      <path d="M 54.203125 25.234375 
L 52.40625 25.234375 
C 51.59375 15.359375 50.296875 2.59375 33.203125 2.59375 
L 23.90625 2.59375 
C 19.90625 2.59375 19.703125 3.078125 19.703125 6.46875 
L 19.703125 60.90625 
C 19.703125 64.515625 19.90625 65.5 27.5 65.5 
L 29.703125 65.5 
L 29.703125 68 
C 25.59375 68 20.796875 68 16.703125 68 
C 13.59375 68 8 68 5.09375 68 
L 5.09375 65.5 
C 12 65.5 13.09375 65.5 13.09375 61.015625 
L 13.09375 7.0625 
C 13.09375 2.59375 12 2.59375 5.09375 2.59375 
L 5.09375 0 
L 51.796875 0 
z
" id="CMR17-76"/>
      <path d="M 15 68.6875 
L 3.09375 67.59375 
L 3.09375 65 
C 9 65 9.90625 64.40625 9.90625 59.640625 
L 9.90625 -0.203125 
L 11.703125 -0.203125 
L 14.59375 6.890625 
C 17.5 2.203125 21.796875 -1 27.59375 -1 
C 37.59375 -1 47.703125 7.8125 47.703125 21.40625 
C 47.703125 34.1875 38.703125 43.59375 28.59375 43.59375 
C 22.40625 43.59375 18 40.296875 15 36.40625 
z
M 15.203125 31.3125 
C 15.203125 33.09375 15.203125 33.40625 16.59375 35.5 
C 20.5 41.515625 26.09375 42 28 42 
C 31 42 41.296875 40.390625 41.296875 21.5 
C 41.296875 1.6875 29.5 0.59375 27.09375 0.59375 
C 24 0.59375 19.5 1.78125 16.296875 7.59375 
C 15.203125 9.5 15.203125 9.703125 15.203125 11.484375 
z
" id="CMR17-98"/>
      <path d="M 38.09375 23 
C 38.5 23.40625 38.5 23.609375 38.5 24.625 
C 38.5 34.96875 33.09375 44 21.703125 44 
C 11.09375 44 2.703125 33.890625 2.703125 21.609375 
C 2.703125 8.609375 12.203125 -1 22.796875 -1 
C 34 -1 38.40625 9.484375 38.40625 11.5625 
C 38.40625 12.25 37.796875 12.25 37.59375 12.25 
C 36.90625 12.25 36.796875 12.046875 36.40625 10.875 
C 34.203125 4.140625 28.703125 0.796875 23.5 0.796875 
C 19.203125 0.796875 14.90625 3.171875 12.203125 7.5 
C 9.09375 12.546875 9.09375 18.375 9.09375 23 
z
M 9.203125 24.5 
C 9.90625 39.140625 17.59375 42.40625 21.59375 42.40625 
C 28.40625 42.40625 33 35.890625 33.09375 24.5 
z
" id="CMR17-101"/>
      <path d="M 36 25.828125 
C 36 32.375 36 35.84375 31.796875 39.734375 
C 28.09375 43 23.796875 44 20.40625 44 
C 12.5 44 6.796875 37.609375 6.796875 30.796875 
C 6.796875 27 9.796875 27 10.40625 27 
C 11.703125 27 14 27.78125 14 30.53125 
C 14 33 12.09375 34.078125 10.40625 34.078125 
C 10 34.078125 9.5 33.96875 9.203125 33.875 
C 11.296875 40.5 16.703125 42.40625 20.203125 42.40625 
C 25.203125 42.40625 30.703125 37.953125 30.703125 29.453125 
L 30.703125 25 
C 24.796875 25 17.703125 24.203125 12.09375 21.203125 
C 5.796875 17.703125 4 12.703125 4 8.90625 
C 4 1.203125 13 -1 18.296875 -1 
C 23.796875 -1 28.90625 2.171875 31.09375 7.984375 
C 31.296875 3.640625 34.09375 -0.28125 38.5 -0.28125 
C 40.59375 -0.28125 45.90625 1.09375 45.90625 8.859375 
L 45.90625 14.375 
L 44.09375 14.375 
L 44.09375 8.78125 
C 44.09375 2.78125 41.40625 2 40.09375 2 
C 36 2 36 7.15625 36 11.53125 
z
M 30.703125 13.59375 
C 30.703125 4.953125 24.5 0.59375 19 0.59375 
C 14 0.59375 10.09375 4.296875 10.09375 8.90625 
C 10.09375 11.890625 11.40625 17.1875 17.203125 20.390625 
C 22 23.09375 27.5 23.5 30.703125 23.5 
z
" id="CMR17-97"/>
      <path d="M 22 -16.609375 
C 15.59375 -16.609375 15.203125 -16.203125 15.203125 -12.328125 
L 15.203125 6.28125 
C 18.09375 2.09375 22.296875 -0.59375 27.59375 -0.59375 
C 37.59375 -0.59375 47.703125 8.171875 47.703125 21.6875 
C 47.703125 34.234375 39 43.78125 28.703125 43.78125 
C 22.703125 43.78125 17.796875 40.5 15 36.53125 
L 15 43.78125 
L 3.09375 42.6875 
L 3.09375 40.109375 
C 9 40.109375 9.90625 39.5 9.90625 34.734375 
L 9.90625 -12.328125 
C 9.90625 -16.109375 9.5 -16.609375 3.09375 -16.609375 
L 3.09375 -19.1875 
C 5.5 -19 9.90625 -19 12.5 -19 
C 15.09375 -19 19.59375 -19 22 -19.1875 
z
M 15.203125 31.4375 
C 15.203125 32.84375 15.203125 34.921875 19.09375 38.609375 
C 19.59375 39.015625 23 42 28 42 
C 35.296875 42 41.296875 32.9375 41.296875 21.59375 
C 41.296875 10.25 34.90625 1 27 1 
C 23.40625 1 19.5 2.6875 16.5 7.375 
C 15.203125 9.5625 15.203125 10.15625 15.203125 11.75 
z
" id="CMR17-112"/>
      <path d="M 26.09375 26.140625 
C 26 26.34375 25.5 26.9375 25.5 27.234375 
C 25.5 27.4375 32.59375 33.921875 33.5 34.71875 
C 39.203125 39.5 42.796875 40 45.40625 40 
L 45.40625 42.703125 
C 44.796875 42.703125 44.59375 42.703125 44.5 42.5 
L 39.59375 42.5 
C 36.796875 42.5 32.5 42.5 29.796875 42.703125 
L 29.796875 40.09375 
C 31.203125 39.984375 32.203125 39.1875 32.203125 37.796875 
C 32.203125 35.796875 30.203125 33.90625 30.09375 33.90625 
L 15 20.140625 
L 15 68.6875 
L 3.09375 67.59375 
L 3.09375 65 
C 9 65 9.90625 64.40625 9.90625 59.640625 
L 9.90625 6.65625 
C 9.90625 2.875 9.5 2.390625 3.09375 2.390625 
L 3.09375 -0.203125 
C 5.5 0 9.90625 0 12.40625 0 
C 14.90625 0 19.296875 0 21.703125 -0.203125 
L 21.703125 2.390625 
C 15.296875 2.390625 14.90625 2.78125 14.90625 6.6875 
L 14.90625 17.65625 
L 21.796875 23.9375 
L 31.90625 8.96875 
C 33.09375 7.171875 34.09375 5.765625 34.09375 4.46875 
C 34.09375 2.6875 32.296875 2.390625 31.09375 2.390625 
L 31.09375 -0.203125 
C 33.5 0 37.796875 0 40.296875 0 
C 42.09375 0 45.796875 0 47.5 0 
L 47.5 2.390625 
C 42.796875 2.390625 41.703125 3.28125 38.703125 7.671875 
z
" id="CMR17-107"/>
      <path d="M 20.5 66.40625 
C 19.796875 67.5 19.703125 67.5 17.796875 67.5 
L 5.09375 67.5 
L 5.09375 65 
L 7 65 
C 11 65 12.796875 64.515625 13.09375 64.40625 
L 13.09375 9.53125 
C 13.09375 7.046875 13.09375 2.390625 5.09375 2.390625 
L 5.09375 -0.203125 
C 7.40625 0 11.59375 0 14.09375 0 
C 16.59375 0 20.796875 0 23.09375 -0.203125 
L 23.09375 2.390625 
C 15.09375 2.390625 15.09375 7.046875 15.09375 9.53125 
L 15.09375 63.015625 
C 15.796875 62.421875 15.796875 62.21875 16.5 61.234375 
L 53.59375 1.1875 
C 54.296875 0 54.59375 0 55.09375 0 
C 56.09375 0 56.09375 0.296875 56.09375 2.171875 
L 56.09375 57.890625 
C 56.09375 60.359375 56.09375 65 64.09375 65 
L 64.09375 67.59375 
C 61.796875 67.5 57.59375 67.5 55.09375 67.5 
C 52.59375 67.5 48.40625 67.5 46.09375 67.59375 
L 46.09375 65 
C 54.09375 65 54.09375 60.34375 54.09375 57.859375 
L 54.09375 11.921875 
z
" id="CMR17-78"/>
      <path d="M 20.90625 66 
C 20.296875 67.5 20.203125 67.5 18.09375 67.5 
L 5.296875 67.5 
L 5.296875 65 
C 12.203125 65 13.296875 65 13.296875 60.546875 
L 13.296875 9.53125 
C 13.296875 7.046875 13.296875 2.390625 5.296875 2.390625 
L 5.296875 -0.203125 
C 7.59375 0 11.796875 0 14.296875 0 
C 16.796875 0 21 0 23.296875 -0.203125 
L 23.296875 2.390625 
C 15.296875 2.390625 15.296875 7.046875 15.296875 9.53125 
L 15.296875 64.609375 
L 15.40625 64.609375 
L 38.90625 1.390625 
C 39.296875 0.390625 39.5 -0.203125 40.296875 -0.203125 
C 41.09375 -0.203125 41.296875 0.390625 41.703125 1.390625 
L 65.40625 65.09375 
L 65.5 65.09375 
L 65.5 6.84375 
C 65.5 2.390625 64.40625 2.390625 57.5 2.390625 
L 57.5 -0.203125 
C 60.203125 0 65.59375 0 68.5 0 
C 71.40625 0 76.90625 0 79.59375 -0.203125 
L 79.59375 2.390625 
C 72.703125 2.390625 71.59375 2.390625 71.59375 6.84375 
L 71.59375 60.546875 
C 71.59375 65 72.703125 65 79.59375 65 
L 79.59375 67.5 
L 66.90625 67.5 
C 64.796875 67.5 64.703125 67.40625 64.09375 65.90625 
L 42.5 7.84375 
z
" id="CMR17-77"/>
      <path d="M 62.09375 67.015625 
C 62.09375 68.796875 62 68.90625 61.40625 68.90625 
C 61 68.90625 60.90625 68.796875 60.203125 67.609375 
L 55.796875 59.25 
C 50.90625 65.421875 44.90625 69 37.203125 69 
C 20.09375 69 4.59375 54 4.59375 33.5625 
C 4.59375 12.90625 20.09375 -2 37.296875 -2 
C 52.59375 -2 62.09375 11.40625 62.09375 22.828125 
C 62.09375 23.8125 62.09375 24.21875 61.203125 24.21875 
C 60.40625 24.21875 60.40625 23.921875 60.296875 23.03125 
C 59.5 9.140625 49.5 0.59375 38.703125 0.59375 
C 28.5 0.59375 12.203125 7.734375 12.203125 33.546875 
C 12.203125 59.453125 28.796875 66.40625 38.5 66.40625 
C 49.796875 66.40625 58 56.6875 59.90625 42.890625 
C 60.09375 41.6875 60.09375 41.484375 61 41.484375 
C 62.09375 41.484375 62.09375 41.6875 62.09375 43.484375 
z
" id="CMR17-67"/>
      <path d="M 5.203125 68 
L 5.203125 65.40625 
C 12.09375 65.40625 13.203125 65.40625 13.203125 60.9375 
L 13.203125 7.0625 
C 13.203125 2.59375 12.09375 2.59375 5.203125 2.59375 
L 5.203125 0 
L 39.59375 0 
C 52.40625 0 60.703125 9.109375 60.703125 18.1875 
C 60.703125 27.203125 52.5 34.890625 41.796875 34.890625 
C 51.40625 36.8125 58.09375 43.296875 58.09375 51 
C 58.09375 59.40625 49.90625 68 37 68 
z
M 19.5 36 
L 19.5 61.515625 
C 19.5 64.921875 19.703125 65.40625 23.703125 65.40625 
L 36.5 65.40625 
C 46.40625 65.40625 50.796875 57.40625 50.796875 51.203125 
C 50.796875 43.609375 44.703125 36 33.90625 36 
z
M 23.703125 2.59375 
C 19.703125 2.59375 19.5 3.078125 19.5 6.453125 
L 19.5 34.40625 
L 38 34.40625 
C 48.296875 34.40625 53.296875 25.390625 53.296875 18.15625 
C 53.296875 10.921875 47.59375 2.59375 36.703125 2.59375 
z
" id="CMR17-66"/>
      <path d="M 29.40625 42.078125 
L 29.40625 39.5 
C 35.296875 39.5 36.203125 38.890625 36.203125 34.15625 
L 36.203125 16.125 
C 36.203125 7.8125 31.703125 0.59375 24.296875 0.59375 
C 16.09375 0.59375 15.40625 5.4375 15.40625 10.59375 
L 15.40625 43.171875 
L 3.296875 42.078125 
L 3.296875 39.5 
C 7.296875 39.5 10 39.5 10.09375 35.53125 
L 10.09375 16.53125 
C 10.09375 9.890625 10.09375 5.640625 12.703125 2.859375 
C 14 1.578125 16.5 -1 23.703125 -1 
C 32.203125 -1 35.5 5.890625 36.296875 7.90625 
L 36.40625 7.90625 
L 36.40625 -0.984375 
L 48.296875 -0.984375 
L 48.296875 2 
C 42.40625 2 41.5 2.59375 41.5 7.390625 
L 41.5 43.171875 
z
" id="CMR17-117"/>
      <path d="M 34.90625 35 
C 33 35 30.203125 35 30.203125 31.515625 
C 30.203125 28.71875 32.5 27.921875 33.796875 27.921875 
C 34.5 27.921875 37.40625 28.234375 37.40625 31.625 
C 37.40625 38.546875 30.59375 43.796875 22.90625 43.796875 
C 12.296875 43.796875 3.296875 34.03125 3.296875 21.296875 
C 3.296875 8.0625 12.703125 -1 22.90625 -1 
C 35.296875 -1 38.40625 10.578125 38.40625 11.6875 
C 38.40625 12.09375 38.296875 12.390625 37.59375 12.390625 
C 36.90625 12.390625 36.796875 12.296875 36.40625 10.984375 
C 33.796875 2.8125 28.09375 0.796875 23.796875 0.796875 
C 17.40625 0.796875 9.703125 6.671875 9.703125 21.390625 
C 9.703125 36.53125 17.09375 42 23 42 
C 26.90625 42 32.703125 40.203125 34.90625 35 
z
" id="CMR17-99"/>
      <path d="M 41.5 30.203125 
C 41.5 35.296875 40.5 43.59375 28.703125 43.59375 
C 20.5 43.59375 16.5 37 15.296875 33.703125 
L 15.203125 33.703125 
L 15.203125 68.6875 
L 3.296875 67.59375 
L 3.296875 65 
C 9.203125 65 10.09375 64.40625 10.09375 59.640625 
L 10.09375 6.65625 
C 10.09375 2.875 9.703125 2.390625 3.296875 2.390625 
L 3.296875 -0.203125 
C 5.703125 0 10.09375 0 12.703125 0 
C 15.296875 0 19.796875 0 22.203125 -0.203125 
L 22.203125 2.390625 
C 15.796875 2.390625 15.40625 2.78125 15.40625 6.6875 
L 15.40625 25.90625 
C 15.40625 35.109375 21 42 28 42 
C 35.40625 42 36.203125 35.40625 36.203125 30.59375 
L 36.203125 6.6875 
C 36.203125 2.875 35.796875 2.390625 29.40625 2.390625 
L 29.40625 -0.203125 
C 31.796875 0 36.203125 0 38.796875 0 
C 41.40625 0 45.90625 0 48.296875 -0.203125 
L 48.296875 2.390625 
C 41.90625 2.390625 41.5 2.78125 41.5 6.6875 
z
" id="CMR17-104"/>
      <path d="M 43.09375 21.1875 
C 43.09375 34 33.796875 44 22.90625 44 
C 12 44 2.703125 34 2.703125 21.1875 
C 2.703125 8.609375 12 -1 22.90625 -1 
C 33.796875 -1 43.09375 8.609375 43.09375 21.1875 
z
M 22.90625 0.796875 
C 18.203125 0.796875 14.203125 3.59375 11.90625 7.5 
C 9.40625 11.984375 9.09375 17.59375 9.09375 22 
C 9.09375 26.203125 9.296875 31.40625 11.90625 35.90625 
C 13.90625 39.203125 17.796875 42.40625 22.90625 42.40625 
C 27.40625 42.40625 31.203125 39.90625 33.59375 36.40625 
C 36.703125 31.703125 36.703125 25.109375 36.703125 22 
C 36.703125 18.09375 36.5 12.109375 33.796875 7.296875 
C 31 2.703125 26.703125 0.796875 22.90625 0.796875 
z
" id="CMR17-111"/>
      <path d="M 39.90625 40 
L 51.296875 40 
L 51.296875 42.578125 
L 39.703125 42.578125 
L 39.703125 54.59375 
C 39.703125 62.84375 43.90625 68 48.203125 68 
C 49.5 68 51 67.609375 52 66.90625 
C 51.203125 66.703125 49.09375 66.015625 49.09375 63.546875 
C 49.09375 60.953125 51.09375 60.15625 52.5 60.15625 
C 53.90625 60.15625 55.90625 60.953125 55.90625 63.546875 
C 55.90625 67.3125 52.296875 69.59375 48.296875 69.59375 
C 44.40625 69.59375 41.203125 67.703125 38.703125 65.328125 
C 36.40625 68.59375 32.59375 69.59375 28.703125 69.59375 
C 20.90625 69.59375 9.90625 65.125 9.90625 54.203125 
L 9.90625 42.578125 
L 1.90625 42.578125 
L 1.90625 40 
L 9.90625 40 
L 9.90625 6.671875 
C 9.90625 2.875 9.5 2.390625 3.09375 2.390625 
L 3.09375 -0.203125 
C 5.5 0 9.90625 0 12.40625 0 
C 15 0 19.40625 0 21.796875 -0.203125 
L 21.796875 2.390625 
C 15.40625 2.390625 15 2.78125 15 6.671875 
L 15 40 
L 34.796875 40 
L 34.796875 6.671875 
C 34.796875 2.875 34.40625 2.390625 28 2.390625 
L 28 -0.203125 
C 30.40625 0 35 0 37.59375 0 
C 40.5 0 45.59375 0 48.296875 -0.203125 
L 48.296875 2.390625 
C 41.09375 2.390625 39.90625 2.390625 39.90625 6.859375 
z
M 14.796875 42.578125 
L 14.796875 54.203125 
C 14.796875 63.234375 21.796875 68 28.5 68 
C 30 68 33.90625 67.6875 36.296875 65.421875 
C 34.5 65.421875 32.796875 64.625 32.796875 62.140625 
C 32.796875 59.5625 35.09375 58.859375 35.296875 58.859375 
C 34.796875 57.0625 34.796875 55.09375 34.796875 54.390625 
L 34.796875 42.578125 
z
" id="CMR17-11"/>
     </defs>
     <use transform="scale(0.996264)" xlink:href="#CMR17-76"/>
     <use transform="translate(57.381408 0)scale(0.996264)" xlink:href="#CMR17-51"/>
     <use transform="translate(103.071885 0)scale(0.996264)" xlink:href="#CMR17-50"/>
     <use transform="translate(178.838328 0)scale(0.996264)" xlink:href="#CMR17-98"/>
     <use transform="translate(232.336137 0)scale(0.996264)" xlink:href="#CMR17-101"/>
     <use transform="translate(272.821797 0)scale(0.996264)" xlink:href="#CMR17-116"/>
     <use transform="translate(308.102565 0)scale(0.996264)" xlink:href="#CMR17-97"/>
     <use transform="translate(353.793042 0)scale(0.996264)" xlink:href="#CMR17-49"/>
     <use transform="translate(399.483519 0)scale(0.996264)" xlink:href="#CMR17-49"/>
     <use transform="translate(445.173997 0)scale(0.996264)" xlink:href="#CMR17-112"/>
     <use transform="translate(496.069366 0)scale(0.996264)" xlink:href="#CMR17-53"/>
     <use transform="translate(571.83581 0)scale(0.996264)" xlink:href="#CMR17-107"/>
     <use transform="translate(614.923909 0)scale(0.996264)" xlink:href="#CMR17-97"/>
     <use transform="translate(660.614386 0)scale(0.996264)" xlink:href="#CMR17-112"/>
     <use transform="translate(711.509756 0)scale(0.996264)" xlink:href="#CMR17-112"/>
     <use transform="translate(762.405126 0)scale(0.996264)" xlink:href="#CMR17-97"/>
     <use transform="translate(808.095603 0)scale(0.996264)" xlink:href="#CMR17-48"/>
     <use transform="translate(853.78608 0)scale(0.996264)" xlink:href="#CMR17-112"/>
     <use transform="translate(904.68145 0)scale(0.996264)" xlink:href="#CMR17-49"/>
     <use transform="translate(950.371927 0)scale(0.996264)" xlink:href="#CMR17-53"/>
     <use transform="translate(996.062404 0)scale(0.996264)" xlink:href="#CMR17-49"/>
     <use transform="translate(1041.752881 0)scale(0.996264)" xlink:href="#CMR17-53"/>
     <use transform="translate(1117.519325 0)scale(0.996264)" xlink:href="#CMR17-78"/>
     <use transform="translate(1186.591754 0)scale(0.996264)" xlink:href="#CMR17-50"/>
     <use transform="translate(1232.282231 0)scale(0.996264)" xlink:href="#CMR17-54"/>
     <use transform="translate(1277.972709 0)scale(0.996264)" xlink:href="#CMR17-48"/>
     <use transform="translate(1353.739152 0)scale(0.996264)" xlink:href="#CMR17-77"/>
     <use transform="translate(1438.426093 0)scale(0.996264)" xlink:href="#CMR17-67"/>
     <use transform="translate(1504.935973 0)scale(0.996264)" xlink:href="#CMR17-77"/>
     <use transform="translate(1589.622914 0)scale(0.996264)" xlink:href="#CMR17-67"/>
     <use transform="translate(1656.132794 0)scale(0.996264)" xlink:href="#CMR17-53"/>
     <use transform="translate(1731.899238 0)scale(0.996264)" xlink:href="#CMR17-66"/>
     <use transform="translate(1797.087992 0)scale(0.996264)" xlink:href="#CMR17-117"/>
     <use transform="translate(1847.983362 0)scale(0.996264)" xlink:href="#CMR17-99"/>
     <use transform="translate(1885.866568 0)scale(0.996264)" xlink:href="#CMR17-104"/>
     <use transform="translate(1936.761938 0)scale(0.996264)" xlink:href="#CMR17-111"/>
     <use transform="translate(1982.452415 0)scale(0.996264)" xlink:href="#CMR17-11"/>
    </g>
    <!-- vector1 -->
    <g transform="translate(255.535279 94.8)scale(0.24 -0.24)">
     <defs>
      <path d="M 39.09375 33.796875 
C 40 36 41.59375 40 47.40625 40 
L 47.40625 42.59375 
C 45.5 42.59375 43 42.59375 41.09375 42.59375 
C 39 42.59375 35.703125 42.59375 33.703125 42.6875 
L 33.703125 40.09375 
C 36.203125 39.890625 37.59375 38.703125 37.59375 36.109375 
C 37.59375 35.203125 37.59375 35 37 33.609375 
L 26 5.890625 
L 14.09375 35.71875 
C 13.5 37.015625 13.5 37.203125 13.5 37.609375 
C 13.5 40 16.796875 40 18.296875 40 
L 18.296875 42.6875 
C 15.90625 42.59375 11.5 42.59375 9 42.59375 
C 6.296875 42.59375 3.203125 42.59375 1 42.6875 
L 1 40 
C 4.796875 40 6.90625 40 8.09375 36.90625 
L 22.59375 0.6875 
C 23.203125 -0.796875 23.296875 -1 24.203125 -1 
C 25.09375 -1 25.203125 -0.796875 25.796875 0.6875 
z
" id="CMR17-118"/>
      <path d="M 15 23.390625 
C 15 33 19.09375 42 26.59375 42 
C 27.296875 42 28 41.90625 28.703125 41.59375 
C 28.703125 41.59375 26.5 40.890625 26.5 38.3125 
C 26.5 35.90625 28.40625 34.90625 29.90625 34.90625 
C 31.09375 34.90625 33.296875 35.609375 33.296875 38.40625 
C 33.296875 41.609375 30.09375 43.59375 26.703125 43.59375 
C 19.09375 43.59375 15.796875 36.203125 14.796875 32.703125 
L 14.703125 32.703125 
L 14.703125 43.59375 
L 3.09375 42.5 
L 3.09375 39.90625 
C 9 39.90625 9.90625 39.296875 9.90625 34.5 
L 9.90625 6.6875 
C 9.90625 2.875 9.5 2.390625 3.09375 2.390625 
L 3.09375 -0.203125 
C 5.5 0 10.09375 0 12.703125 0 
C 15.59375 0 20.703125 0 23.40625 -0.203125 
L 23.40625 2.390625 
C 16.203125 2.390625 15 2.390625 15 6.875 
z
" id="CMR17-114"/>
     </defs>
     <use transform="scale(0.996264)" xlink:href="#CMR17-118"/>
     <use transform="translate(45.690462 0)scale(0.996264)" xlink:href="#CMR17-101"/>
     <use transform="translate(86.176122 0)scale(0.996264)" xlink:href="#CMR17-99"/>
     <use transform="translate(126.661783 0)scale(0.996264)" xlink:href="#CMR17-116"/>
     <use transform="translate(161.942551 0)scale(0.996264)" xlink:href="#CMR17-111"/>
     <use transform="translate(207.633028 0)scale(0.996264)" xlink:href="#CMR17-114"/>
     <use transform="translate(242.913796 0)scale(0.996264)" xlink:href="#CMR17-49"/>
    </g>
   </g>
  </g>
 </g>
 <defs>
  <clipPath id="p105de02355">
   <rect height="339.495773" width="425.770205" x="77.282672" y="100.8"/>
  </clipPath>
 </defs>
</svg>
