<?xml version="1.0" encoding="utf-8" standalone="no"?>
<!DOCTYPE svg PUBLIC "-//W3C//DTD SVG 1.1//EN"
  "http://www.w3.org/Graphics/SVG/1.1/DTD/svg11.dtd">
<!-- Created with matplotlib (https://matplotlib.org/) -->
<svg height="504pt" version="1.1" viewBox="0 0 576 504" width="576pt" xmlns="http://www.w3.org/2000/svg" xmlns:xlink="http://www.w3.org/1999/xlink">
 <metadata>
  <rdf:RDF xmlns:cc="http://creativecommons.org/ns#" xmlns:dc="http://purl.org/dc/elements/1.1/" xmlns:rdf="http://www.w3.org/1999/02/22-rdf-syntax-ns#">
   <cc:Work>
    <dc:type rdf:resource="http://purl.org/dc/dcmitype/StillImage"/>
    <dc:date>2023-01-25T11:33:12.113029</dc:date>
    <dc:format>image/svg+xml</dc:format>
    <dc:creator>
     <cc:Agent>
      <dc:title>Matplotlib v3.3.4, https://matplotlib.org/</dc:title>
     </cc:Agent>
    </dc:creator>
   </cc:Work>
  </rdf:RDF>
 </metadata>
 <defs>
  <style type="text/css">*{stroke-linecap:butt;stroke-linejoin:round;}</style>
 </defs>
 <g id="figure_1">
  <g id="patch_1">
   <path d="M 0 504 
L 576 504 
L 576 0 
L 0 0 
z
" style="fill:#ffffff;"/>
  </g>
  <g id="axes_1">
   <g id="patch_2">
    <path d="M 57.33915 440.295773 
L 495.248889 440.295773 
L 495.248889 100.8 
L 57.33915 100.8 
z
" style="fill:#ffffff;"/>
   </g>
   <g id="matplotlib.axis_1">
    <g id="xtick_1">
     <g id="line2d_1">
      <defs>
       <path d="M 0 0 
L 0 3.5 
" id="m52247f004a" style="stroke:#000000;stroke-width:0.8;"/>
      </defs>
      <g>
       <use style="stroke:#000000;stroke-width:0.8;" x="77.244138" xlink:href="#m52247f004a" y="440.295773"/>
      </g>
     </g>
     <g id="text_1">
      <!-- $\mathdefault{0}$ -->
      <g transform="translate(73.342144 458.365361)scale(0.16 -0.16)">
       <defs>
        <path d="M 42 31.640625 
C 42 37.75 41.90625 48.125 37.703125 56.109375 
C 34 63.109375 28.09375 65.59375 22.90625 65.59375 
C 18.09375 65.59375 12 63.40625 8.203125 56.203125 
C 4.203125 48.71875 3.796875 39.4375 3.796875 31.640625 
C 3.796875 25.953125 3.90625 17.28125 7 9.671875 
C 11.296875 -0.609375 19 -2 22.90625 -2 
C 27.5 -2 34.5 -0.109375 38.59375 9.375 
C 41.59375 16.28125 42 24.359375 42 31.640625 
z
M 22.90625 -0.40625 
C 16.5 -0.40625 12.703125 5.078125 11.296875 12.6875 
C 10.203125 18.5625 10.203125 27.15625 10.203125 32.75 
C 10.203125 40.4375 10.203125 46.828125 11.5 52.921875 
C 13.40625 61.390625 19 64 22.90625 64 
C 27 64 32.296875 61.296875 34.203125 53.125 
C 35.5 47.4375 35.59375 40.734375 35.59375 32.75 
C 35.59375 26.25 35.59375 18.265625 34.40625 12.375 
C 32.296875 1.484375 26.40625 -0.40625 22.90625 -0.40625 
z
" id="CMR17-48"/>
       </defs>
       <use transform="scale(0.996264)" xlink:href="#CMR17-48"/>
      </g>
     </g>
    </g>
    <g id="xtick_2">
     <g id="line2d_2">
      <g>
       <use style="stroke:#000000;stroke-width:0.8;" x="140.434576" xlink:href="#m52247f004a" y="440.295773"/>
      </g>
     </g>
     <g id="text_2">
      <!-- $\mathdefault{10}$ -->
      <g transform="translate(132.630589 458.365361)scale(0.16 -0.16)">
       <defs>
        <path d="M 26.59375 63.40625 
C 26.59375 65.5 26.5 65.5 25.09375 65.5 
C 21.203125 61.1875 15.296875 59.796875 9.703125 59.796875 
C 9.40625 59.796875 8.90625 59.796875 8.796875 59.5 
C 8.703125 59.296875 8.703125 59.09375 8.703125 57 
C 11.796875 57 17 57.59375 21 59.984375 
L 21 7.203125 
C 21 3.6875 20.796875 2.5 12.203125 2.5 
L 9.203125 2.5 
L 9.203125 0 
C 14 0 19 0 23.796875 0 
C 28.59375 0 33.59375 0 38.40625 0 
L 38.40625 2.5 
L 35.40625 2.5 
C 26.796875 2.5 26.59375 3.59375 26.59375 7.15625 
z
" id="CMR17-49"/>
       </defs>
       <use transform="scale(0.996264)" xlink:href="#CMR17-49"/>
       <use transform="translate(45.690477 0)scale(0.996264)" xlink:href="#CMR17-48"/>
      </g>
     </g>
    </g>
    <g id="xtick_3">
     <g id="line2d_3">
      <g>
       <use style="stroke:#000000;stroke-width:0.8;" x="203.625015" xlink:href="#m52247f004a" y="440.295773"/>
      </g>
     </g>
     <g id="text_3">
      <!-- $\mathdefault{20}$ -->
      <g transform="translate(195.821028 458.365361)scale(0.16 -0.16)">
       <defs>
        <path d="M 41.703125 15.453125 
L 39.90625 15.453125 
C 38.90625 8.375 38.09375 7.171875 37.703125 6.5625 
C 37.203125 5.765625 30 5.765625 28.59375 5.765625 
L 9.40625 5.765625 
C 13 9.671875 20 16.75 28.5 24.953125 
C 34.59375 30.734375 41.703125 37.53125 41.703125 47.421875 
C 41.703125 59.21875 32.296875 66 21.796875 66 
C 10.796875 66 4.09375 56.3125 4.09375 47.34375 
C 4.09375 43.4375 7 42.9375 8.203125 42.9375 
C 9.203125 42.9375 12.203125 43.546875 12.203125 47.03125 
C 12.203125 50.109375 9.59375 51 8.203125 51 
C 7.59375 51 7 50.90625 6.59375 50.703125 
C 8.5 59.21875 14.296875 63.40625 20.40625 63.40625 
C 29.09375 63.40625 34.796875 56.515625 34.796875 47.421875 
C 34.796875 38.734375 29.703125 31.25 24 24.75 
L 4.09375 2.28125 
L 4.09375 0 
L 39.296875 0 
z
" id="CMR17-50"/>
       </defs>
       <use transform="scale(0.996264)" xlink:href="#CMR17-50"/>
       <use transform="translate(45.690477 0)scale(0.996264)" xlink:href="#CMR17-48"/>
      </g>
     </g>
    </g>
    <g id="xtick_4">
     <g id="line2d_4">
      <g>
       <use style="stroke:#000000;stroke-width:0.8;" x="266.815454" xlink:href="#m52247f004a" y="440.295773"/>
      </g>
     </g>
     <g id="text_4">
      <!-- $\mathdefault{30}$ -->
      <g transform="translate(259.011467 458.365361)scale(0.16 -0.16)">
       <defs>
        <path d="M 22.09375 33.703125 
C 31 33.703125 34.90625 25.96875 34.90625 17.03125 
C 34.90625 5 28.5 0.390625 22.703125 0.390625 
C 17.40625 0.390625 8.796875 3.03125 6.09375 10.828125 
C 6.59375 10.625 7.09375 10.625 7.59375 10.625 
C 10 10.625 11.796875 12.21875 11.796875 14.8125 
C 11.796875 17.703125 9.59375 19 7.59375 19 
C 5.90625 19 3.296875 18.203125 3.296875 14.46875 
C 3.296875 5.234375 12.296875 -2 22.90625 -2 
C 34 -2 42.5 6.71875 42.5 16.953125 
C 42.5 26.671875 34.5 33.703125 25 34.796875 
C 32.59375 36.375 39.90625 43.0625 39.90625 52.015625 
C 39.90625 59.6875 32 65.296875 23 65.296875 
C 13.90625 65.296875 5.90625 59.828125 5.90625 52.015625 
C 5.90625 48.59375 8.5 48 9.796875 48 
C 11.90625 48 13.703125 49.296875 13.703125 51.890625 
C 13.703125 54.46875 11.90625 55.765625 9.796875 55.765625 
C 9.40625 55.765625 8.90625 55.765625 8.5 55.578125 
C 11.40625 61.859375 19.296875 63 22.796875 63 
C 26.296875 63 32.90625 61.328125 32.90625 51.875 
C 32.90625 49.109375 32.5 44.1875 29.09375 39.84375 
C 26.09375 36 22.703125 36 19.40625 35.6875 
C 18.90625 35.6875 16.59375 35.453125 16.203125 35.453125 
C 15.5 35.359375 15.09375 35.265625 15.09375 34.5 
C 15.09375 33.796875 15.203125 33.703125 17.203125 33.703125 
z
" id="CMR17-51"/>
       </defs>
       <use transform="scale(0.996264)" xlink:href="#CMR17-51"/>
       <use transform="translate(45.690477 0)scale(0.996264)" xlink:href="#CMR17-48"/>
      </g>
     </g>
    </g>
    <g id="xtick_5">
     <g id="line2d_5">
      <g>
       <use style="stroke:#000000;stroke-width:0.8;" x="330.005892" xlink:href="#m52247f004a" y="440.295773"/>
      </g>
     </g>
     <g id="text_5">
      <!-- $\mathdefault{40}$ -->
      <g transform="translate(322.201905 458.365361)scale(0.16 -0.16)">
       <defs>
        <path d="M 33.59375 64.40625 
C 33.59375 66.5 33.5 66.5 31.703125 66.5 
L 2 19.59375 
L 2 17 
L 27.796875 17 
L 27.796875 7.140625 
C 27.796875 3.5 27.59375 2.5 20.59375 2.5 
L 18.703125 2.5 
L 18.703125 0 
C 21.90625 0 27.296875 0 30.703125 0 
C 34.09375 0 39.5 0 42.703125 0 
L 42.703125 2.5 
L 40.796875 2.5 
C 33.796875 2.5 33.59375 3.5 33.59375 7.140625 
L 33.59375 17 
L 43.796875 17 
L 43.796875 19.59375 
L 33.59375 19.59375 
z
M 28.09375 57.859375 
L 28.09375 19.59375 
L 4 19.59375 
z
" id="CMR17-52"/>
       </defs>
       <use transform="scale(0.996264)" xlink:href="#CMR17-52"/>
       <use transform="translate(45.690477 0)scale(0.996264)" xlink:href="#CMR17-48"/>
      </g>
     </g>
    </g>
    <g id="xtick_6">
     <g id="line2d_6">
      <g>
       <use style="stroke:#000000;stroke-width:0.8;" x="393.196331" xlink:href="#m52247f004a" y="440.295773"/>
      </g>
     </g>
     <g id="text_6">
      <!-- $\mathdefault{50}$ -->
      <g transform="translate(385.392344 458.365361)scale(0.16 -0.16)">
       <defs>
        <path d="M 11.40625 57.6875 
C 12.40625 57.28125 16.5 56 20.703125 56 
C 30 56 35.09375 61.109375 38 64.0625 
C 38 64.953125 38 65.5 37.40625 65.5 
C 37.296875 65.5 37.09375 65.5 36.296875 65.046875 
C 32.796875 63.40625 28.703125 62.078125 23.703125 62.078125 
C 20.703125 62.078125 16.203125 62.484375 11.296875 64.671875 
C 10.203125 65.171875 10 65.171875 9.90625 65.171875 
C 9.40625 65.171875 9.296875 65.0625 9.296875 63.078125 
L 9.296875 34.421875 
C 9.296875 32.640625 9.296875 32.140625 10.296875 32.140625 
C 10.796875 32.140625 11 32.34375 11.5 33.03125 
C 14.703125 37.515625 19.09375 39.40625 24.09375 39.40625 
C 27.59375 39.40625 35.09375 37.21875 35.09375 20.140625 
C 35.09375 16.953125 35.09375 11.171875 32.09375 6.578125 
C 29.59375 2.484375 25.703125 0.390625 21.40625 0.390625 
C 14.796875 0.390625 8.09375 5 6.296875 12.71875 
C 6.703125 12.609375 7.5 12.421875 7.90625 12.421875 
C 9.203125 12.421875 11.703125 13.125 11.703125 16.21875 
C 11.703125 18.90625 9.796875 20 7.90625 20 
C 5.59375 20 4.09375 18.59375 4.09375 15.796875 
C 4.09375 7.09375 11 -2 21.59375 -2 
C 31.90625 -2 41.703125 6.875 41.703125 19.75 
C 41.703125 31.71875 33.90625 41 24.203125 41 
C 19.09375 41 14.796875 39.109375 11.40625 35.53125 
z
" id="CMR17-53"/>
       </defs>
       <use transform="scale(0.996264)" xlink:href="#CMR17-53"/>
       <use transform="translate(45.690477 0)scale(0.996264)" xlink:href="#CMR17-48"/>
      </g>
     </g>
    </g>
    <g id="xtick_7">
     <g id="line2d_7">
      <g>
       <use style="stroke:#000000;stroke-width:0.8;" x="456.38677" xlink:href="#m52247f004a" y="440.295773"/>
      </g>
     </g>
     <g id="text_7">
      <!-- $\mathdefault{60}$ -->
      <g transform="translate(448.582783 458.365361)scale(0.16 -0.16)">
       <defs>
        <path d="M 10.59375 34 
C 10.59375 57.65625 21.796875 63 28.296875 63 
C 30.40625 63 35.5 62.640625 37.5 59 
C 35.90625 59 32.90625 59 32.90625 55.515625 
C 32.90625 52.828125 35.09375 51.921875 36.5 51.921875 
C 37.40625 51.921875 40.09375 52.3125 40.09375 55.625 
C 40.09375 61.78125 35.09375 65.296875 28.203125 65.296875 
C 16.296875 65.296875 3.796875 52.96875 3.796875 31 
C 3.796875 3.953125 15.09375 -2 23.09375 -2 
C 32.796875 -2 42 6.671875 42 20.046875 
C 42 32.515625 33.90625 41.59375 23.703125 41.59375 
C 17.59375 41.59375 13.09375 37.609375 10.59375 30.625 
z
M 23.09375 0.390625 
C 10.796875 0.390625 10.796875 18.75 10.796875 22.4375 
C 10.796875 29.625 14.203125 40 23.5 40 
C 25.203125 40 30.09375 40 33.40625 33.125 
C 35.203125 29.21875 35.203125 25.140625 35.203125 20.140625 
C 35.203125 14.75 35.203125 10.78125 33.09375 6.78125 
C 30.90625 2.671875 27.703125 0.390625 23.09375 0.390625 
z
" id="CMR17-54"/>
       </defs>
       <use transform="scale(0.996264)" xlink:href="#CMR17-54"/>
       <use transform="translate(45.690477 0)scale(0.996264)" xlink:href="#CMR17-48"/>
      </g>
     </g>
    </g>
    <g id="text_8">
     <!-- $t$ -->
     <g transform="translate(272.06686 482.069243)scale(0.24 -0.24)">
      <defs>
       <path d="M 20.09375 40.09375 
L 29.296875 40.09375 
C 31.203125 40.09375 32.203125 40.09375 32.203125 41.890625 
C 32.203125 43 31.59375 43 29.59375 43 
L 20.796875 43 
L 24.5 57.6875 
C 24.90625 59.078125 24.90625 59.28125 24.90625 60 
C 24.90625 61.609375 23.59375 62.5 22.296875 62.5 
C 21.5 62.5 19.203125 62.203125 18.40625 58.984375 
L 14.5 43 
L 5.09375 43 
C 3.09375 43 2.203125 43 2.203125 41.09375 
C 2.203125 40.09375 2.90625 40.09375 4.796875 40.09375 
L 13.703125 40.09375 
L 7.09375 13.765625 
C 6.296875 10.28125 6 9.28125 6 7.984375 
C 6 3.296875 9.296875 -1 14.90625 -1 
C 25 -1 30.40625 13.5625 30.40625 14.25 
C 30.40625 14.859375 30 15.15625 29.40625 15.15625 
C 29.203125 15.15625 28.796875 15.15625 28.59375 14.75 
C 28.5 14.65625 28.40625 14.546875 27.703125 12.953125 
C 25.59375 7.984375 21 1 15.203125 1 
C 12.203125 1 12 3.5 12 5.6875 
C 12 5.78125 12 7.6875 12.296875 8.875 
z
" id="CMMI12-116"/>
      </defs>
      <use transform="scale(0.996264)" xlink:href="#CMMI12-116"/>
     </g>
    </g>
   </g>
   <g id="matplotlib.axis_2">
    <g id="ytick_1">
     <g id="line2d_8">
      <defs>
       <path d="M 0 0 
L -3.5 0 
" id="ma99760614e" style="stroke:#000000;stroke-width:0.8;"/>
      </defs>
      <g>
       <use style="stroke:#000000;stroke-width:0.8;" x="57.33915" xlink:href="#ma99760614e" y="431.573757"/>
      </g>
     </g>
     <g id="text_9">
      <!-- $\mathdefault{0}$ -->
      <g transform="translate(42.535163 437.108551)scale(0.16 -0.16)">
       <use transform="scale(0.996264)" xlink:href="#CMR17-48"/>
      </g>
     </g>
    </g>
    <g id="ytick_2">
     <g id="line2d_9">
      <g>
       <use style="stroke:#000000;stroke-width:0.8;" x="57.33915" xlink:href="#ma99760614e" y="376.517841"/>
      </g>
     </g>
     <g id="text_10">
      <!-- $\mathdefault{1}$ -->
      <g transform="translate(42.535163 382.052636)scale(0.16 -0.16)">
       <use transform="scale(0.996264)" xlink:href="#CMR17-49"/>
      </g>
     </g>
    </g>
    <g id="ytick_3">
     <g id="line2d_10">
      <g>
       <use style="stroke:#000000;stroke-width:0.8;" x="57.33915" xlink:href="#ma99760614e" y="321.461926"/>
      </g>
     </g>
     <g id="text_11">
      <!-- $\mathdefault{2}$ -->
      <g transform="translate(42.535163 326.99672)scale(0.16 -0.16)">
       <use transform="scale(0.996264)" xlink:href="#CMR17-50"/>
      </g>
     </g>
    </g>
    <g id="ytick_4">
     <g id="line2d_11">
      <g>
       <use style="stroke:#000000;stroke-width:0.8;" x="57.33915" xlink:href="#ma99760614e" y="266.406011"/>
      </g>
     </g>
     <g id="text_12">
      <!-- $\mathdefault{3}$ -->
      <g transform="translate(42.535163 271.940805)scale(0.16 -0.16)">
       <use transform="scale(0.996264)" xlink:href="#CMR17-51"/>
      </g>
     </g>
    </g>
    <g id="ytick_5">
     <g id="line2d_12">
      <g>
       <use style="stroke:#000000;stroke-width:0.8;" x="57.33915" xlink:href="#ma99760614e" y="211.350095"/>
      </g>
     </g>
     <g id="text_13">
      <!-- $\mathdefault{4}$ -->
      <g transform="translate(42.535163 216.88489)scale(0.16 -0.16)">
       <use transform="scale(0.996264)" xlink:href="#CMR17-52"/>
      </g>
     </g>
    </g>
    <g id="ytick_6">
     <g id="line2d_13">
      <g>
       <use style="stroke:#000000;stroke-width:0.8;" x="57.33915" xlink:href="#ma99760614e" y="156.29418"/>
      </g>
     </g>
     <g id="text_14">
      <!-- $\mathdefault{5}$ -->
      <g transform="translate(42.535163 161.828974)scale(0.16 -0.16)">
       <use transform="scale(0.996264)" xlink:href="#CMR17-53"/>
      </g>
     </g>
    </g>
    <g id="ytick_7">
     <g id="line2d_14">
      <g>
       <use style="stroke:#000000;stroke-width:0.8;" x="57.33915" xlink:href="#ma99760614e" y="101.238265"/>
      </g>
     </g>
     <g id="text_15">
      <!-- $\mathdefault{6}$ -->
      <g transform="translate(42.535163 106.773059)scale(0.16 -0.16)">
       <use transform="scale(0.996264)" xlink:href="#CMR17-54"/>
      </g>
     </g>
    </g>
    <g id="text_16">
     <!-- $\tau_{\rm int}$ -->
     <g transform="translate(33.884405 285.418992)rotate(-90)scale(0.24 -0.24)">
      <defs>
       <path d="M 28.703125 37.625 
L 45.296875 37.625 
C 46.59375 37.625 49.90625 37.625 49.90625 40.8125 
C 49.90625 43 48 43 46.203125 43 
L 18.703125 43 
C 16.40625 43 13 43 8.40625 38.125 
C 5.796875 35.234375 2.59375 29.953125 2.59375 29.359375 
C 2.59375 28.765625 3.09375 28.5625 3.703125 28.5625 
C 4.40625 28.5625 4.5 28.859375 5 29.453125 
C 10.203125 37.625 15.40625 37.625 17.90625 37.625 
L 26.203125 37.625 
L 15.796875 3.484375 
C 15.296875 1.984375 15.296875 1.78125 15.296875 1.484375 
C 15.296875 0.390625 16 -1 18 -1 
C 21.09375 -1 21.59375 1.6875 21.90625 3.171875 
z
" id="CMMI12-28"/>
       <path d="M 15.5 61.078125 
C 15.5 63.265625 13.703125 65.15625 11.40625 65.15625 
C 9.203125 65.15625 7.296875 63.375 7.296875 61.078125 
C 7.296875 58.890625 9.09375 57 11.40625 57 
C 13.59375 57 15.5 58.796875 15.5 61.078125 
z
M 3.796875 42.28125 
L 3.796875 39.703125 
C 9.40625 39.703125 10.203125 39.09375 10.203125 34.328125 
L 10.203125 6.671875 
C 10.203125 2.875 9.796875 2.390625 3.40625 2.390625 
L 3.40625 -0.203125 
C 5.796875 0 10.09375 0 12.59375 0 
C 15 0 19.09375 0 21.40625 -0.203125 
L 21.40625 2.390625 
C 15.5 2.390625 15.296875 2.984375 15.296875 6.5625 
L 15.296875 43.375 
z
" id="CMR17-105"/>
       <path d="M 41.5 30.203125 
C 41.5 35.296875 40.5 43.59375 28.703125 43.59375 
C 20.796875 43.59375 16.703125 37.5 15.203125 33.5 
L 15.09375 33.5 
L 15.09375 43.59375 
L 3.296875 42.5 
L 3.296875 39.90625 
C 9.203125 39.90625 10.09375 39.296875 10.09375 34.5 
L 10.09375 6.6875 
C 10.09375 2.875 9.703125 2.390625 3.296875 2.390625 
L 3.296875 -0.203125 
C 5.703125 0 10.09375 0 12.703125 0 
C 15.296875 0 19.796875 0 22.203125 -0.203125 
L 22.203125 2.390625 
C 15.796875 2.390625 15.40625 2.78125 15.40625 6.6875 
L 15.40625 25.90625 
C 15.40625 35.109375 21 42 28 42 
C 35.40625 42 36.203125 35.40625 36.203125 30.59375 
L 36.203125 6.6875 
C 36.203125 2.875 35.796875 2.390625 29.40625 2.390625 
L 29.40625 -0.203125 
C 31.796875 0 36.203125 0 38.796875 0 
C 41.40625 0 45.90625 0 48.296875 -0.203125 
L 48.296875 2.390625 
C 41.90625 2.390625 41.5 2.78125 41.5 6.6875 
z
" id="CMR17-110"/>
       <path d="M 15.09375 40 
L 29.09375 40 
L 29.09375 42.578125 
L 15.09375 42.578125 
L 15.09375 61 
L 13.296875 61 
C 13.09375 50.703125 9.59375 41.6875 1.09375 41.6875 
L 1.09375 40 
L 9.796875 40 
L 9.796875 12.046875 
C 9.796875 10.15625 9.796875 -1 21.40625 -1 
C 27.296875 -1 30.703125 4.78125 30.703125 12.140625 
L 30.703125 17.8125 
L 28.90625 17.8125 
L 28.90625 12.234375 
C 28.90625 5.375 26.203125 0.796875 22 0.796875 
C 19.09375 0.796875 15.09375 2.78125 15.09375 11.84375 
z
" id="CMR17-116"/>
      </defs>
      <use transform="scale(0.996264)" xlink:href="#CMMI12-28"/>
      <use transform="translate(42.363841 -14.943915)scale(0.697382)" xlink:href="#CMR17-105"/>
      <use transform="translate(59.7735 -14.943915)scale(0.697382)" xlink:href="#CMR17-110"/>
      <use transform="translate(93.578387 -14.943915)scale(0.697382)" xlink:href="#CMR17-116"/>
     </g>
    </g>
   </g>
   <g id="LineCollection_1">
    <path clip-path="url(#p5e5f7e9c42)" d="M 77.244138 411.306899 
L 77.244138 402.547991 
" style="fill:none;stroke:#000000;stroke-width:2;"/>
    <path clip-path="url(#p5e5f7e9c42)" d="M 83.563182 409.958543 
L 83.563182 398.130042 
" style="fill:none;stroke:#000000;stroke-width:2;"/>
    <path clip-path="url(#p5e5f7e9c42)" d="M 89.882225 399.674267 
L 89.882225 383.078304 
" style="fill:none;stroke:#000000;stroke-width:2;"/>
    <path clip-path="url(#p5e5f7e9c42)" d="M 96.201269 404.080138 
L 96.201269 389.458957 
" style="fill:none;stroke:#000000;stroke-width:2;"/>
    <path clip-path="url(#p5e5f7e9c42)" d="M 102.520313 404.52742 
L 102.520313 390.112385 
" style="fill:none;stroke:#000000;stroke-width:2;"/>
    <path clip-path="url(#p5e5f7e9c42)" d="M 108.839357 400.692485 
L 108.839357 384.5439 
" style="fill:none;stroke:#000000;stroke-width:2;"/>
    <path clip-path="url(#p5e5f7e9c42)" d="M 115.158401 397.957298 
L 115.158401 380.619198 
" style="fill:none;stroke:#000000;stroke-width:2;"/>
    <path clip-path="url(#p5e5f7e9c42)" d="M 121.477445 384.723688 
L 121.477445 356.955666 
" style="fill:none;stroke:#000000;stroke-width:2;"/>
    <path clip-path="url(#p5e5f7e9c42)" d="M 127.796489 370.201906 
L 127.796489 329.596383 
" style="fill:none;stroke:#000000;stroke-width:2;"/>
    <path clip-path="url(#p5e5f7e9c42)" d="M 134.115533 357.41409 
L 134.115533 303.175918 
" style="fill:none;stroke:#000000;stroke-width:2;"/>
    <path clip-path="url(#p5e5f7e9c42)" d="M 140.434576 350.154988 
L 140.434576 292.066775 
" style="fill:none;stroke:#000000;stroke-width:2;"/>
    <path clip-path="url(#p5e5f7e9c42)" d="M 146.75362 345.35151 
L 146.75362 276.362295 
" style="fill:none;stroke:#000000;stroke-width:2;"/>
    <path clip-path="url(#p5e5f7e9c42)" d="M 153.072664 343.490921 
L 153.072664 273.418735 
" style="fill:none;stroke:#000000;stroke-width:2;"/>
    <path clip-path="url(#p5e5f7e9c42)" d="M 159.391708 341.568216 
L 159.391708 270.39382 
" style="fill:none;stroke:#000000;stroke-width:2;"/>
    <path clip-path="url(#p5e5f7e9c42)" d="M 165.710752 338.60607 
L 165.710752 265.767114 
" style="fill:none;stroke:#000000;stroke-width:2;"/>
    <path clip-path="url(#p5e5f7e9c42)" d="M 172.029796 333.610223 
L 172.029796 248.628339 
" style="fill:none;stroke:#000000;stroke-width:2;"/>
    <path clip-path="url(#p5e5f7e9c42)" d="M 178.34884 331.81425 
L 178.34884 245.72003 
" style="fill:none;stroke:#000000;stroke-width:2;"/>
    <path clip-path="url(#p5e5f7e9c42)" d="M 184.667883 329.993095 
L 184.667883 242.786094 
" style="fill:none;stroke:#000000;stroke-width:2;"/>
    <path clip-path="url(#p5e5f7e9c42)" d="M 190.986927 331.936326 
L 190.986927 245.917243 
" style="fill:none;stroke:#000000;stroke-width:2;"/>
    <path clip-path="url(#p5e5f7e9c42)" d="M 197.305971 336.244904 
L 197.305971 262.108102 
" style="fill:none;stroke:#000000;stroke-width:2;"/>
    <path clip-path="url(#p5e5f7e9c42)" d="M 203.625015 344.765846 
L 203.625015 275.434001 
" style="fill:none;stroke:#000000;stroke-width:2;"/>
    <path clip-path="url(#p5e5f7e9c42)" d="M 209.944059 353.109103 
L 209.944059 296.557715 
" style="fill:none;stroke:#000000;stroke-width:2;"/>
    <path clip-path="url(#p5e5f7e9c42)" d="M 216.263103 365.710671 
L 216.263103 322.870644 
" style="fill:none;stroke:#000000;stroke-width:2;"/>
    <path clip-path="url(#p5e5f7e9c42)" d="M 222.582147 371.418786 
L 222.582147 331.435498 
" style="fill:none;stroke:#000000;stroke-width:2;"/>
    <path clip-path="url(#p5e5f7e9c42)" d="M 228.90119 373.512181 
L 228.90119 334.616139 
" style="fill:none;stroke:#000000;stroke-width:2;"/>
    <path clip-path="url(#p5e5f7e9c42)" d="M 235.220234 380.651607 
L 235.220234 350.996198 
" style="fill:none;stroke:#000000;stroke-width:2;"/>
    <path clip-path="url(#p5e5f7e9c42)" d="M 241.539278 385.895408 
L 241.539278 358.685826 
" style="fill:none;stroke:#000000;stroke-width:2;"/>
    <path clip-path="url(#p5e5f7e9c42)" d="M 247.858322 398.956601 
L 247.858322 382.048564 
" style="fill:none;stroke:#000000;stroke-width:2;"/>
    <path clip-path="url(#p5e5f7e9c42)" d="M 254.177366 407.075446 
L 254.177366 393.854692 
" style="fill:none;stroke:#000000;stroke-width:2;"/>
    <path clip-path="url(#p5e5f7e9c42)" d="M 260.49641 407.849647 
L 260.49641 397.823483 
" style="fill:none;stroke:#000000;stroke-width:2;"/>
    <path clip-path="url(#p5e5f7e9c42)" d="M 266.815454 407.957611 
L 266.815454 397.970013 
" style="fill:none;stroke:#000000;stroke-width:2;"/>
    <path clip-path="url(#p5e5f7e9c42)" d="M 273.134498 413.412547 
L 273.134498 405.458062 
" style="fill:none;stroke:#000000;stroke-width:2;"/>
    <path clip-path="url(#p5e5f7e9c42)" d="M 279.453541 423.895979 
L 279.453541 420.311613 
" style="fill:none;stroke:#000000;stroke-width:2;"/>
    <path clip-path="url(#p5e5f7e9c42)" d="M 285.772585 424.864147 
L 285.772585 421.713927 
" style="fill:none;stroke:#000000;stroke-width:2;"/>
    <path clip-path="url(#p5e5f7e9c42)" d="M 292.091629 421.872228 
L 292.091629 417.397025 
" style="fill:none;stroke:#000000;stroke-width:2;"/>
    <path clip-path="url(#p5e5f7e9c42)" d="M 298.410673 417.668852 
L 298.410673 411.415468 
" style="fill:none;stroke:#000000;stroke-width:2;"/>
    <path clip-path="url(#p5e5f7e9c42)" d="M 304.729717 411.130897 
L 304.729717 402.305867 
" style="fill:none;stroke:#000000;stroke-width:2;"/>
    <path clip-path="url(#p5e5f7e9c42)" d="M 311.048761 402.143087 
L 311.048761 386.641206 
" style="fill:none;stroke:#000000;stroke-width:2;"/>
    <path clip-path="url(#p5e5f7e9c42)" d="M 317.367805 396.519426 
L 317.367805 378.57166 
" style="fill:none;stroke:#000000;stroke-width:2;"/>
    <path clip-path="url(#p5e5f7e9c42)" d="M 323.686848 392.716901 
L 323.686848 368.895099 
" style="fill:none;stroke:#000000;stroke-width:2;"/>
    <path clip-path="url(#p5e5f7e9c42)" d="M 330.005892 388.019301 
L 330.005892 361.839483 
" style="fill:none;stroke:#000000;stroke-width:2;"/>
    <path clip-path="url(#p5e5f7e9c42)" d="M 336.324936 383.481045 
L 336.324936 355.128284 
" style="fill:none;stroke:#000000;stroke-width:2;"/>
    <path clip-path="url(#p5e5f7e9c42)" d="M 342.64398 379.667547 
L 342.64398 349.568447 
" style="fill:none;stroke:#000000;stroke-width:2;"/>
    <path clip-path="url(#p5e5f7e9c42)" d="M 348.963024 378.570889 
L 348.963024 342.390299 
" style="fill:none;stroke:#000000;stroke-width:2;"/>
    <path clip-path="url(#p5e5f7e9c42)" d="M 355.282068 369.145356 
L 355.282068 328.005401 
" style="fill:none;stroke:#000000;stroke-width:2;"/>
    <path clip-path="url(#p5e5f7e9c42)" d="M 361.601112 364.487 
L 361.601112 314.240307 
" style="fill:none;stroke:#000000;stroke-width:2;"/>
    <path clip-path="url(#p5e5f7e9c42)" d="M 367.920156 353.625013 
L 367.920156 297.346227 
" style="fill:none;stroke:#000000;stroke-width:2;"/>
    <path clip-path="url(#p5e5f7e9c42)" d="M 374.239199 328.894843 
L 374.239199 241.024128 
" style="fill:none;stroke:#000000;stroke-width:2;"/>
    <path clip-path="url(#p5e5f7e9c42)" d="M 380.558243 304.56064 
L 380.558243 191.496373 
" style="fill:none;stroke:#000000;stroke-width:2;"/>
    <path clip-path="url(#p5e5f7e9c42)" d="M 386.877287 275.711759 
L 386.877287 119.407889 
" style="fill:none;stroke:#000000;stroke-width:2;"/>
    <path clip-path="url(#p5e5f7e9c42)" d="M 393.196331 273.743541 
L 393.196331 116.231626 
" style="fill:none;stroke:#000000;stroke-width:2;"/>
    <path clip-path="url(#p5e5f7e9c42)" d="M 399.515375 276.150523 
L 399.515375 120.118226 
" style="fill:none;stroke:#000000;stroke-width:2;"/>
    <path clip-path="url(#p5e5f7e9c42)" d="M 405.834419 292.494914 
L 405.834419 159.947502 
" style="fill:none;stroke:#000000;stroke-width:2;"/>
    <path clip-path="url(#p5e5f7e9c42)" d="M 412.153463 324.987873 
L 412.153463 234.80068 
" style="fill:none;stroke:#000000;stroke-width:2;"/>
    <path clip-path="url(#p5e5f7e9c42)" d="M 418.472506 366.111607 
L 418.472506 323.467096 
" style="fill:none;stroke:#000000;stroke-width:2;"/>
    <path clip-path="url(#p5e5f7e9c42)" d="M 424.79155 383.52346 
L 424.79155 355.190531 
" style="fill:none;stroke:#000000;stroke-width:2;"/>
    <path clip-path="url(#p5e5f7e9c42)" d="M 431.110594 392.332068 
L 431.110594 368.312923 
" style="fill:none;stroke:#000000;stroke-width:2;"/>
    <path clip-path="url(#p5e5f7e9c42)" d="M 437.429638 397.118771 
L 437.429638 379.423819 
" style="fill:none;stroke:#000000;stroke-width:2;"/>
    <path clip-path="url(#p5e5f7e9c42)" d="M 443.748682 398.111743 
L 443.748682 380.83977 
" style="fill:none;stroke:#000000;stroke-width:2;"/>
    <path clip-path="url(#p5e5f7e9c42)" d="M 450.067726 399.22461 
L 450.067726 382.432801 
" style="fill:none;stroke:#000000;stroke-width:2;"/>
    <path clip-path="url(#p5e5f7e9c42)" d="M 456.38677 401.948585 
L 456.38677 386.359355 
" style="fill:none;stroke:#000000;stroke-width:2;"/>
    <path clip-path="url(#p5e5f7e9c42)" d="M 462.705814 399.70889 
L 462.705814 383.128051 
" style="fill:none;stroke:#000000;stroke-width:2;"/>
    <path clip-path="url(#p5e5f7e9c42)" d="M 469.024857 397.824022 
L 469.024857 380.428958 
" style="fill:none;stroke:#000000;stroke-width:2;"/>
    <path clip-path="url(#p5e5f7e9c42)" d="M 475.343901 401.310261 
L 475.343901 385.435749 
" style="fill:none;stroke:#000000;stroke-width:2;"/>
   </g>
   <g id="line2d_15">
    <path clip-path="url(#p5e5f7e9c42)" d="M 77.244138 406.927445 
L 83.563182 404.044293 
L 89.882225 391.376286 
L 96.201269 396.769548 
L 102.520313 397.319902 
L 108.839357 392.618192 
L 115.158401 389.288248 
L 121.477445 370.839677 
L 127.796489 349.899144 
L 134.115533 330.295004 
L 140.434576 321.110882 
L 146.75362 310.856903 
L 153.072664 308.454828 
L 159.391708 305.981018 
L 165.710752 302.186592 
L 172.029796 291.119281 
L 178.34884 288.76714 
L 184.667883 286.389594 
L 190.986927 288.926785 
L 197.305971 299.176503 
L 203.625015 310.099924 
L 209.944059 324.833409 
L 216.263103 344.290657 
L 222.582147 351.427142 
L 228.90119 354.06416 
L 235.220234 365.823902 
L 241.539278 372.290617 
L 247.858322 390.502582 
L 254.177366 400.465069 
L 260.49641 402.836565 
L 266.815454 402.963812 
L 273.134498 409.435304 
L 279.453541 422.103796 
L 285.772585 423.289037 
L 292.091629 419.634627 
L 298.410673 414.54216 
L 304.729717 406.718382 
L 311.048761 394.392146 
L 317.367805 387.545543 
L 323.686848 380.806 
L 330.005892 374.929392 
L 336.324936 369.304665 
L 342.64398 364.617997 
L 348.963024 360.480594 
L 355.282068 348.575378 
L 361.601112 339.363653 
L 367.920156 325.48562 
L 374.239199 284.959485 
L 380.558243 248.028506 
L 386.877287 197.559824 
L 393.196331 194.987584 
L 399.515375 198.134374 
L 405.834419 226.221208 
L 412.153463 279.894276 
L 418.472506 344.789352 
L 424.79155 369.356995 
L 431.110594 380.322495 
L 437.429638 388.271295 
L 443.748682 389.475756 
L 450.067726 390.828705 
L 456.38677 394.15397 
L 462.705814 391.418471 
L 469.024857 389.12649 
L 475.343901 393.373005 
" style="fill:none;stroke:#000000;stroke-linecap:square;stroke-width:2;"/>
   </g>
   <g id="patch_3">
    <path d="M 57.33915 440.295773 
L 57.33915 100.8 
" style="fill:none;stroke:#000000;stroke-linecap:square;stroke-linejoin:miter;stroke-width:0.8;"/>
   </g>
   <g id="patch_4">
    <path d="M 495.248889 440.295773 
L 495.248889 100.8 
" style="fill:none;stroke:#000000;stroke-linecap:square;stroke-linejoin:miter;stroke-width:0.8;"/>
   </g>
   <g id="patch_5">
    <path d="M 57.33915 440.295773 
L 495.248889 440.295773 
" style="fill:none;stroke:#000000;stroke-linecap:square;stroke-linejoin:miter;stroke-width:0.8;"/>
   </g>
   <g id="patch_6">
    <path d="M 57.33915 100.8 
L 495.248889 100.8 
" style="fill:none;stroke:#000000;stroke-linecap:square;stroke-linejoin:miter;stroke-width:0.8;"/>
   </g>
  </g>
  <g id="axes_2">
   <g id="matplotlib.axis_3">
    <g id="ytick_8">
     <g id="line2d_16">
      <defs>
       <path d="M 0 0 
L 3.5 0 
" id="m90812e614f" style="stroke:#000000;stroke-width:0.8;"/>
      </defs>
      <g>
       <use style="stroke:#000000;stroke-width:0.8;" x="495.248889" xlink:href="#m90812e614f" y="431.043583"/>
      </g>
     </g>
     <g id="text_17">
      <!-- $\mathdefault{0}$ -->
      <g transform="translate(502.248889 436.578378)scale(0.16 -0.16)">
       <use transform="scale(0.996264)" xlink:href="#CMR17-48"/>
      </g>
     </g>
    </g>
    <g id="ytick_9">
     <g id="line2d_17">
      <g>
       <use style="stroke:#000000;stroke-width:0.8;" x="495.248889" xlink:href="#m90812e614f" y="369.80571"/>
      </g>
     </g>
     <g id="text_18">
      <!-- $\mathdefault{200}$ -->
      <g transform="translate(502.248889 375.340504)scale(0.16 -0.16)">
       <use transform="scale(0.996264)" xlink:href="#CMR17-50"/>
       <use transform="translate(45.690477 0)scale(0.996264)" xlink:href="#CMR17-48"/>
       <use transform="translate(91.380954 0)scale(0.996264)" xlink:href="#CMR17-48"/>
      </g>
     </g>
    </g>
    <g id="ytick_10">
     <g id="line2d_18">
      <g>
       <use style="stroke:#000000;stroke-width:0.8;" x="495.248889" xlink:href="#m90812e614f" y="308.567836"/>
      </g>
     </g>
     <g id="text_19">
      <!-- $\mathdefault{400}$ -->
      <g transform="translate(502.248889 314.10263)scale(0.16 -0.16)">
       <use transform="scale(0.996264)" xlink:href="#CMR17-52"/>
       <use transform="translate(45.690477 0)scale(0.996264)" xlink:href="#CMR17-48"/>
       <use transform="translate(91.380954 0)scale(0.996264)" xlink:href="#CMR17-48"/>
      </g>
     </g>
    </g>
    <g id="ytick_11">
     <g id="line2d_19">
      <g>
       <use style="stroke:#000000;stroke-width:0.8;" x="495.248889" xlink:href="#m90812e614f" y="247.329962"/>
      </g>
     </g>
     <g id="text_20">
      <!-- $\mathdefault{600}$ -->
      <g transform="translate(502.248889 252.864756)scale(0.16 -0.16)">
       <use transform="scale(0.996264)" xlink:href="#CMR17-54"/>
       <use transform="translate(45.690477 0)scale(0.996264)" xlink:href="#CMR17-48"/>
       <use transform="translate(91.380954 0)scale(0.996264)" xlink:href="#CMR17-48"/>
      </g>
     </g>
    </g>
    <g id="ytick_12">
     <g id="line2d_20">
      <g>
       <use style="stroke:#000000;stroke-width:0.8;" x="495.248889" xlink:href="#m90812e614f" y="186.092088"/>
      </g>
     </g>
     <g id="text_21">
      <!-- $\mathdefault{800}$ -->
      <g transform="translate(502.248889 191.626882)scale(0.16 -0.16)">
       <defs>
        <path d="M 27.203125 35.375 
C 33.5 38.546875 39.90625 43.328125 39.90625 50.984375 
C 39.90625 60.015625 31.09375 65.296875 23 65.296875 
C 13.90625 65.296875 5.90625 58.734375 5.90625 49.6875 
C 5.90625 47.203125 6.5 42.921875 10.40625 39.140625 
C 11.40625 38.15625 15.59375 35.171875 18.296875 33.28125 
C 13.796875 30.984375 3.296875 25.53125 3.296875 14.59375 
C 3.296875 4.359375 13.09375 -2 22.796875 -2 
C 33.5 -2 42.5 5.65625 42.5 15.78125 
C 42.5 24.84375 36.40625 29.015625 32.40625 31.703125 
z
M 14.09375 44.09375 
C 13.296875 44.59375 9.296875 47.671875 9.296875 52.359375 
C 9.296875 58.421875 15.59375 63 22.796875 63 
C 30.703125 63 36.5 57.4375 36.5 50.96875 
C 36.5 41.703125 26.09375 36.421875 25.59375 36.421875 
C 25.5 36.421875 25.40625 36.421875 24.59375 37.03125 
z
M 32.5 23.734375 
C 34 22.640625 38.796875 19.375 38.796875 13.296875 
C 38.796875 5.953125 31.40625 0.390625 23 0.390625 
C 13.90625 0.390625 7 6.84375 7 14.6875 
C 7 22.546875 13.09375 29.09375 20 32.1875 
z
" id="CMR17-56"/>
       </defs>
       <use transform="scale(0.996264)" xlink:href="#CMR17-56"/>
       <use transform="translate(45.690477 0)scale(0.996264)" xlink:href="#CMR17-48"/>
       <use transform="translate(91.380954 0)scale(0.996264)" xlink:href="#CMR17-48"/>
      </g>
     </g>
    </g>
    <g id="ytick_13">
     <g id="line2d_21">
      <g>
       <use style="stroke:#000000;stroke-width:0.8;" x="495.248889" xlink:href="#m90812e614f" y="124.854214"/>
      </g>
     </g>
     <g id="text_22">
      <!-- $\mathdefault{1000}$ -->
      <g transform="translate(502.248889 130.389008)scale(0.16 -0.16)">
       <use transform="scale(0.996264)" xlink:href="#CMR17-49"/>
       <use transform="translate(45.690477 0)scale(0.996264)" xlink:href="#CMR17-48"/>
       <use transform="translate(91.380954 0)scale(0.996264)" xlink:href="#CMR17-48"/>
       <use transform="translate(137.071431 0)scale(0.996264)" xlink:href="#CMR17-48"/>
      </g>
     </g>
    </g>
    <g id="text_23">
     <!-- $N_{\rm ind}$ -->
     <g style="fill:#0000ff;" transform="translate(554.069243 291.302454)rotate(-90)scale(0.24 -0.24)">
      <defs>
       <path d="M 74 57.78125 
C 75.09375 62.09375 76.703125 65.09375 84.296875 65.09375 
C 84.59375 65.09375 85.796875 65.09375 85.796875 66.859375 
C 85.796875 68 84.90625 68 84.5 68 
C 82.5 68 77.40625 68 75.40625 68 
L 70.59375 68 
C 69.203125 68 67.40625 68 66 68 
C 65.40625 68 64.203125 68 64.203125 66.09375 
C 64.203125 65.09375 65 65.09375 65.703125 65.09375 
C 71.703125 65.09375 72.09375 62.796875 72.09375 60.984375 
C 72.09375 60.09375 72 59.78125 71.703125 58.390625 
L 60.40625 13.28125 
L 39 66.390625 
C 38.296875 68 38.203125 68 36 68 
L 23.796875 68 
C 21.796875 68 20.90625 68 20.90625 66.09375 
C 20.90625 65.09375 21.59375 65.09375 23.5 65.09375 
C 24 65.09375 29.90625 65.09375 29.90625 64.296875 
C 29.90625 64.09375 29.703125 63.296875 29.59375 63 
L 16.296875 9.921875 
C 15.09375 5 12.703125 2.90625 6.09375 2.90625 
C 5.59375 2.90625 4.59375 2.90625 4.59375 1.046875 
C 4.59375 0 5.59375 0 5.90625 0 
C 7.90625 0 13 0 15 0 
L 19.796875 0 
C 21.203125 0 22.90625 0 24.296875 0 
C 25 0 26.09375 0 26.09375 1.90625 
C 26.09375 2.8125 25.09375 2.90625 24.703125 2.90625 
C 21.40625 2.90625 18.203125 3.5 18.203125 7.09375 
C 18.203125 7.890625 18.40625 8.78125 18.59375 9.578125 
L 32.09375 63 
C 32.703125 62 32.703125 61.8125 33.09375 60.90625 
L 56.90625 1.796875 
C 57.40625 0.59375 57.59375 0 58.5 0 
C 59.5 0 59.59375 0.296875 60 2 
z
" id="CMMI12-78"/>
       <path d="M 29.203125 67.59375 
L 29.203125 65 
C 35.09375 65 36 64.40625 36 59.6875 
L 36 36.640625 
C 35.59375 37.140625 31.5 43.59375 23.40625 43.59375 
C 13.203125 43.59375 3.296875 34.5 3.296875 21.3125 
C 3.296875 8.203125 12.59375 -1 22.40625 -1 
C 30.90625 -1 35.296875 5.265625 35.796875 5.9375 
L 35.796875 -0.984375 
L 47.90625 -0.984375 
L 47.90625 2 
C 42 2 41.09375 2.59375 41.09375 7.390625 
L 41.09375 68.6875 
z
M 35.796875 11.796875 
C 35.796875 8.796875 34 6.09375 31.703125 4.09375 
C 28.296875 1.09375 24.90625 0.59375 23 0.59375 
C 20.09375 0.59375 9.703125 2.09375 9.703125 21.1875 
C 9.703125 40.8125 21.296875 42 23.90625 42 
C 28.5 42 32.203125 39.40625 34.5 35.796875 
C 35.796875 33.703125 35.796875 33.40625 35.796875 31.609375 
z
" id="CMR17-100"/>
      </defs>
      <use transform="scale(0.996264)" xlink:href="#CMMI12-78"/>
      <use transform="translate(78.115119 -14.943915)scale(0.697382)" xlink:href="#CMR17-105"/>
      <use transform="translate(95.524778 -14.943915)scale(0.697382)" xlink:href="#CMR17-110"/>
      <use transform="translate(131.151386 -14.943915)scale(0.697382)" xlink:href="#CMR17-100"/>
     </g>
    </g>
   </g>
   <g id="LineCollection_2">
    <path clip-path="url(#p5e5f7e9c42)" d="M 77.244138 357.926309 
L 77.244138 326.326568 
" style="fill:none;stroke:#0000ff;stroke-width:2;"/>
    <path clip-path="url(#p5e5f7e9c42)" d="M 83.563182 368.540497 
L 83.563182 334.33691 
" style="fill:none;stroke:#0000ff;stroke-width:2;"/>
    <path clip-path="url(#p5e5f7e9c42)" d="M 89.882225 387.779877 
L 89.882225 365.27159 
" style="fill:none;stroke:#0000ff;stroke-width:2;"/>
    <path clip-path="url(#p5e5f7e9c42)" d="M 96.201269 381.30358 
L 96.201269 354.851711 
" style="fill:none;stroke:#0000ff;stroke-width:2;"/>
    <path clip-path="url(#p5e5f7e9c42)" d="M 102.520313 380.527811 
L 102.520313 353.604139 
" style="fill:none;stroke:#0000ff;stroke-width:2;"/>
    <path clip-path="url(#p5e5f7e9c42)" d="M 108.839357 386.447817 
L 108.839357 363.127583 
" style="fill:none;stroke:#0000ff;stroke-width:2;"/>
    <path clip-path="url(#p5e5f7e9c42)" d="M 115.158401 389.842723 
L 115.158401 368.592874 
" style="fill:none;stroke:#0000ff;stroke-width:2;"/>
    <path clip-path="url(#p5e5f7e9c42)" d="M 121.477445 403.209126 
L 121.477445 386.71165 
" style="fill:none;stroke:#0000ff;stroke-width:2;"/>
    <path clip-path="url(#p5e5f7e9c42)" d="M 127.796489 410.881635 
L 127.796489 397.541863 
" style="fill:none;stroke:#0000ff;stroke-width:2;"/>
    <path clip-path="url(#p5e5f7e9c42)" d="M 134.115533 415.199449 
L 134.115533 403.61152 
" style="fill:none;stroke:#0000ff;stroke-width:2;"/>
    <path clip-path="url(#p5e5f7e9c42)" d="M 140.434576 416.420826 
L 140.434576 405.98822 
" style="fill:none;stroke:#0000ff;stroke-width:2;"/>
    <path clip-path="url(#p5e5f7e9c42)" d="M 146.75362 418.077137 
L 146.75362 407.702263 
" style="fill:none;stroke:#0000ff;stroke-width:2;"/>
    <path clip-path="url(#p5e5f7e9c42)" d="M 153.072664 418.309166 
L 153.072664 408.178606 
" style="fill:none;stroke:#0000ff;stroke-width:2;"/>
    <path clip-path="url(#p5e5f7e9c42)" d="M 159.391708 418.538758 
L 159.391708 408.650218 
" style="fill:none;stroke:#0000ff;stroke-width:2;"/>
    <path clip-path="url(#p5e5f7e9c42)" d="M 165.710752 418.873682 
L 165.710752 409.338724 
" style="fill:none;stroke:#0000ff;stroke-width:2;"/>
    <path clip-path="url(#p5e5f7e9c42)" d="M 172.029796 420.161032 
L 172.029796 410.720584 
" style="fill:none;stroke:#0000ff;stroke-width:2;"/>
    <path clip-path="url(#p5e5f7e9c42)" d="M 178.34884 420.323576 
L 178.34884 411.07202 
" style="fill:none;stroke:#0000ff;stroke-width:2;"/>
    <path clip-path="url(#p5e5f7e9c42)" d="M 184.667883 420.482463 
L 184.667883 411.415741 
" style="fill:none;stroke:#0000ff;stroke-width:2;"/>
    <path clip-path="url(#p5e5f7e9c42)" d="M 190.986927 420.312716 
L 190.986927 411.048532 
" style="fill:none;stroke:#0000ff;stroke-width:2;"/>
    <path clip-path="url(#p5e5f7e9c42)" d="M 197.305971 419.12557 
L 197.305971 409.856987 
" style="fill:none;stroke:#0000ff;stroke-width:2;"/>
    <path clip-path="url(#p5e5f7e9c42)" d="M 203.625015 418.151258 
L 203.625015 407.854399 
" style="fill:none;stroke:#0000ff;stroke-width:2;"/>
    <path clip-path="url(#p5e5f7e9c42)" d="M 209.944059 415.951323 
L 209.944059 405.073964 
" style="fill:none;stroke:#0000ff;stroke-width:2;"/>
    <path clip-path="url(#p5e5f7e9c42)" d="M 216.263103 412.097511 
L 216.263103 399.774215 
" style="fill:none;stroke:#0000ff;stroke-width:2;"/>
    <path clip-path="url(#p5e5f7e9c42)" d="M 222.582147 410.52069 
L 222.582147 396.879709 
" style="fill:none;stroke:#0000ff;stroke-width:2;"/>
    <path clip-path="url(#p5e5f7e9c42)" d="M 228.90119 409.864103 
L 228.90119 395.675752 
" style="fill:none;stroke:#0000ff;stroke-width:2;"/>
    <path clip-path="url(#p5e5f7e9c42)" d="M 235.220234 405.229626 
L 235.220234 390.196414 
" style="fill:none;stroke:#0000ff;stroke-width:2;"/>
    <path clip-path="url(#p5e5f7e9c42)" d="M 241.539278 402.560602 
L 241.539278 385.593919 
" style="fill:none;stroke:#0000ff;stroke-width:2;"/>
    <path clip-path="url(#p5e5f7e9c42)" d="M 247.858322 388.668624 
L 247.858322 366.70235 
" style="fill:none;stroke:#0000ff;stroke-width:2;"/>
    <path clip-path="url(#p5e5f7e9c42)" d="M 254.177366 375.566937 
L 254.177366 345.628418 
" style="fill:none;stroke:#0000ff;stroke-width:2;"/>
    <path clip-path="url(#p5e5f7e9c42)" d="M 260.49641 368.087351 
L 260.49641 341.481108 
" style="fill:none;stroke:#0000ff;stroke-width:2;"/>
    <path clip-path="url(#p5e5f7e9c42)" d="M 266.815454 367.815149 
L 266.815454 341.074961 
" style="fill:none;stroke:#0000ff;stroke-width:2;"/>
    <path clip-path="url(#p5e5f7e9c42)" d="M 273.134498 349.837661 
L 273.134498 314.270024 
" style="fill:none;stroke:#0000ff;stroke-width:2;"/>
    <path clip-path="url(#p5e5f7e9c42)" d="M 279.453541 243.424666 
L 279.453541 155.834872 
" style="fill:none;stroke:#0000ff;stroke-width:2;"/>
    <path clip-path="url(#p5e5f7e9c42)" d="M 285.772585 216.814184 
L 285.772585 116.231626 
" style="fill:none;stroke:#0000ff;stroke-width:2;"/>
    <path clip-path="url(#p5e5f7e9c42)" d="M 292.091629 281.8905 
L 292.091629 213.087898 
" style="fill:none;stroke:#0000ff;stroke-width:2;"/>
    <path clip-path="url(#p5e5f7e9c42)" d="M 298.410673 325.993902 
L 298.410673 278.750429 
" style="fill:none;stroke:#0000ff;stroke-width:2;"/>
    <path clip-path="url(#p5e5f7e9c42)" d="M 304.729717 358.526811 
L 304.729717 327.221863 
" style="fill:none;stroke:#0000ff;stroke-width:2;"/>
    <path clip-path="url(#p5e5f7e9c42)" d="M 311.048761 384.390409 
L 311.048761 359.816997 
" style="fill:none;stroke:#0000ff;stroke-width:2;"/>
    <path clip-path="url(#p5e5f7e9c42)" d="M 317.367805 391.414229 
L 317.367805 371.124058 
" style="fill:none;stroke:#0000ff;stroke-width:2;"/>
    <path clip-path="url(#p5e5f7e9c42)" d="M 323.686848 398.004412 
L 323.686848 377.749231 
" style="fill:none;stroke:#0000ff;stroke-width:2;"/>
    <path clip-path="url(#p5e5f7e9c42)" d="M 330.005892 401.295663 
L 330.005892 383.41471 
" style="fill:none;stroke:#0000ff;stroke-width:2;"/>
    <path clip-path="url(#p5e5f7e9c42)" d="M 336.324936 403.862195 
L 336.324936 387.837574 
" style="fill:none;stroke:#0000ff;stroke-width:2;"/>
    <path clip-path="url(#p5e5f7e9c42)" d="M 342.64398 405.670054 
L 342.64398 390.956586 
" style="fill:none;stroke:#0000ff;stroke-width:2;"/>
    <path clip-path="url(#p5e5f7e9c42)" d="M 348.963024 408.061937 
L 348.963024 392.374304 
" style="fill:none;stroke:#0000ff;stroke-width:2;"/>
    <path clip-path="url(#p5e5f7e9c42)" d="M 355.282068 411.183529 
L 355.282068 398.095867 
" style="fill:none;stroke:#0000ff;stroke-width:2;"/>
    <path clip-path="url(#p5e5f7e9c42)" d="M 361.601112 413.752698 
L 361.601112 400.802157 
" style="fill:none;stroke:#0000ff;stroke-width:2;"/>
    <path clip-path="url(#p5e5f7e9c42)" d="M 367.920156 415.86564 
L 367.920156 404.907206 
" style="fill:none;stroke:#0000ff;stroke-width:2;"/>
    <path clip-path="url(#p5e5f7e9c42)" d="M 374.239199 420.575523 
L 374.239199 411.617151 
" style="fill:none;stroke:#0000ff;stroke-width:2;"/>
    <path clip-path="url(#p5e5f7e9c42)" d="M 380.558243 422.781307 
L 380.558243 415.426411 
" style="fill:none;stroke:#0000ff;stroke-width:2;"/>
    <path clip-path="url(#p5e5f7e9c42)" d="M 386.877287 424.806318 
L 386.877287 418.551369 
" style="fill:none;stroke:#0000ff;stroke-width:2;"/>
    <path clip-path="url(#p5e5f7e9c42)" d="M 393.196331 424.864147 
L 393.196331 418.697173 
" style="fill:none;stroke:#0000ff;stroke-width:2;"/>
    <path clip-path="url(#p5e5f7e9c42)" d="M 399.515375 424.793222 
L 399.515375 418.518367 
" style="fill:none;stroke:#0000ff;stroke-width:2;"/>
    <path clip-path="url(#p5e5f7e9c42)" d="M 405.834419 423.815913 
L 405.834419 416.92767 
" style="fill:none;stroke:#0000ff;stroke-width:2;"/>
    <path clip-path="url(#p5e5f7e9c42)" d="M 412.153463 420.890839 
L 412.153463 412.300137 
" style="fill:none;stroke:#0000ff;stroke-width:2;"/>
    <path clip-path="url(#p5e5f7e9c42)" d="M 418.472506 411.995805 
L 418.472506 399.587364 
" style="fill:none;stroke:#0000ff;stroke-width:2;"/>
    <path clip-path="url(#p5e5f7e9c42)" d="M 424.79155 403.840463 
L 424.79155 387.800103 
" style="fill:none;stroke:#0000ff;stroke-width:2;"/>
    <path clip-path="url(#p5e5f7e9c42)" d="M 431.110594 398.303784 
L 431.110594 378.26433 
" style="fill:none;stroke:#0000ff;stroke-width:2;"/>
    <path clip-path="url(#p5e5f7e9c42)" d="M 437.429638 390.775186 
L 437.429638 370.094656 
" style="fill:none;stroke:#0000ff;stroke-width:2;"/>
    <path clip-path="url(#p5e5f7e9c42)" d="M 443.748682 389.665861 
L 443.748682 368.308063 
" style="fill:none;stroke:#0000ff;stroke-width:2;"/>
    <path clip-path="url(#p5e5f7e9c42)" d="M 450.067726 388.341355 
L 450.067726 366.175464 
" style="fill:none;stroke:#0000ff;stroke-width:2;"/>
    <path clip-path="url(#p5e5f7e9c42)" d="M 456.38677 384.678003 
L 456.38677 360.279706 
" style="fill:none;stroke:#0000ff;stroke-width:2;"/>
    <path clip-path="url(#p5e5f7e9c42)" d="M 462.705814 387.735985 
L 462.705814 365.200936 
" style="fill:none;stroke:#0000ff;stroke-width:2;"/>
    <path clip-path="url(#p5e5f7e9c42)" d="M 469.024857 389.994038 
L 469.024857 368.836554 
" style="fill:none;stroke:#0000ff;stroke-width:2;"/>
    <path clip-path="url(#p5e5f7e9c42)" d="M 475.343901 385.595799 
L 475.343901 361.756471 
" style="fill:none;stroke:#0000ff;stroke-width:2;"/>
   </g>
   <g id="line2d_22">
    <path clip-path="url(#p5e5f7e9c42)" d="M 77.244138 342.126439 
L 83.563182 351.438704 
L 89.882225 376.525734 
L 96.201269 368.077645 
L 102.520313 367.065975 
L 108.839357 374.7877 
L 115.158401 379.217798 
L 121.477445 394.960388 
L 127.796489 404.211749 
L 134.115533 409.405485 
L 140.434576 411.204523 
L 146.75362 412.8897 
L 153.072664 413.243886 
L 159.391708 413.594488 
L 165.710752 414.106203 
L 172.029796 415.440808 
L 178.34884 415.697798 
L 184.667883 415.949102 
L 190.986927 415.680624 
L 197.305971 414.491279 
L 203.625015 413.002828 
L 209.944059 410.512644 
L 216.263103 405.935863 
L 222.582147 403.700199 
L 228.90119 402.769928 
L 235.220234 397.71302 
L 241.539278 394.077261 
L 247.858322 377.685487 
L 254.177366 360.597678 
L 260.49641 354.784229 
L 266.815454 354.445055 
L 273.134498 332.053842 
L 279.453541 199.629769 
L 285.772585 166.522905 
L 292.091629 247.489199 
L 298.410673 302.372166 
L 304.729717 342.874337 
L 311.048761 372.103703 
L 317.367805 381.269143 
L 323.686848 387.876821 
L 330.005892 392.355186 
L 336.324936 395.849884 
L 342.64398 398.31332 
L 348.963024 400.21812 
L 355.282068 404.639698 
L 361.601112 407.277428 
L 367.920156 410.386423 
L 374.239199 416.096337 
L 380.558243 419.103859 
L 386.877287 421.678843 
L 393.196331 421.78066 
L 399.515375 421.655794 
L 405.834419 420.371792 
L 412.153463 416.595488 
L 418.472506 405.791585 
L 424.79155 395.820283 
L 431.110594 388.284057 
L 437.429638 380.434921 
L 443.748682 378.986962 
L 450.067726 377.25841 
L 456.38677 372.478854 
L 462.705814 376.468461 
L 469.024857 379.415296 
L 475.343901 373.676135 
" style="fill:none;stroke:#0000ff;stroke-linecap:square;stroke-width:2;"/>
   </g>
   <g id="patch_7">
    <path d="M 57.33915 440.295773 
L 57.33915 100.8 
" style="fill:none;stroke:#000000;stroke-linecap:square;stroke-linejoin:miter;stroke-width:0.8;"/>
   </g>
   <g id="patch_8">
    <path d="M 495.248889 440.295773 
L 495.248889 100.8 
" style="fill:none;stroke:#000000;stroke-linecap:square;stroke-linejoin:miter;stroke-width:0.8;"/>
   </g>
   <g id="patch_9">
    <path d="M 57.33915 440.295773 
L 495.248889 440.295773 
" style="fill:none;stroke:#000000;stroke-linecap:square;stroke-linejoin:miter;stroke-width:0.8;"/>
   </g>
   <g id="patch_10">
    <path d="M 57.33915 100.8 
L 495.248889 100.8 
" style="fill:none;stroke:#000000;stroke-linecap:square;stroke-linejoin:miter;stroke-width:0.8;"/>
   </g>
   <g id="text_24">
    <!-- L32 beta11p028 kappa0p1554 Buchoff -->
    <g transform="translate(94.878259 70.223956)scale(0.24 -0.24)">
     <defs>
      <path d="M 54.203125 25.234375 
L 52.40625 25.234375 
C 51.59375 15.359375 50.296875 2.59375 33.203125 2.59375 
L 23.90625 2.59375 
C 19.90625 2.59375 19.703125 3.078125 19.703125 6.46875 
L 19.703125 60.90625 
C 19.703125 64.515625 19.90625 65.5 27.5 65.5 
L 29.703125 65.5 
L 29.703125 68 
C 25.59375 68 20.796875 68 16.703125 68 
C 13.59375 68 8 68 5.09375 68 
L 5.09375 65.5 
C 12 65.5 13.09375 65.5 13.09375 61.015625 
L 13.09375 7.0625 
C 13.09375 2.59375 12 2.59375 5.09375 2.59375 
L 5.09375 0 
L 51.796875 0 
z
" id="CMR17-76"/>
      <path d="M 15 68.6875 
L 3.09375 67.59375 
L 3.09375 65 
C 9 65 9.90625 64.40625 9.90625 59.640625 
L 9.90625 -0.203125 
L 11.703125 -0.203125 
L 14.59375 6.890625 
C 17.5 2.203125 21.796875 -1 27.59375 -1 
C 37.59375 -1 47.703125 7.8125 47.703125 21.40625 
C 47.703125 34.1875 38.703125 43.59375 28.59375 43.59375 
C 22.40625 43.59375 18 40.296875 15 36.40625 
z
M 15.203125 31.3125 
C 15.203125 33.09375 15.203125 33.40625 16.59375 35.5 
C 20.5 41.515625 26.09375 42 28 42 
C 31 42 41.296875 40.390625 41.296875 21.5 
C 41.296875 1.6875 29.5 0.59375 27.09375 0.59375 
C 24 0.59375 19.5 1.78125 16.296875 7.59375 
C 15.203125 9.5 15.203125 9.703125 15.203125 11.484375 
z
" id="CMR17-98"/>
      <path d="M 38.09375 23 
C 38.5 23.40625 38.5 23.609375 38.5 24.625 
C 38.5 34.96875 33.09375 44 21.703125 44 
C 11.09375 44 2.703125 33.890625 2.703125 21.609375 
C 2.703125 8.609375 12.203125 -1 22.796875 -1 
C 34 -1 38.40625 9.484375 38.40625 11.5625 
C 38.40625 12.25 37.796875 12.25 37.59375 12.25 
C 36.90625 12.25 36.796875 12.046875 36.40625 10.875 
C 34.203125 4.140625 28.703125 0.796875 23.5 0.796875 
C 19.203125 0.796875 14.90625 3.171875 12.203125 7.5 
C 9.09375 12.546875 9.09375 18.375 9.09375 23 
z
M 9.203125 24.5 
C 9.90625 39.140625 17.59375 42.40625 21.59375 42.40625 
C 28.40625 42.40625 33 35.890625 33.09375 24.5 
z
" id="CMR17-101"/>
      <path d="M 36 25.828125 
C 36 32.375 36 35.84375 31.796875 39.734375 
C 28.09375 43 23.796875 44 20.40625 44 
C 12.5 44 6.796875 37.609375 6.796875 30.796875 
C 6.796875 27 9.796875 27 10.40625 27 
C 11.703125 27 14 27.78125 14 30.53125 
C 14 33 12.09375 34.078125 10.40625 34.078125 
C 10 34.078125 9.5 33.96875 9.203125 33.875 
C 11.296875 40.5 16.703125 42.40625 20.203125 42.40625 
C 25.203125 42.40625 30.703125 37.953125 30.703125 29.453125 
L 30.703125 25 
C 24.796875 25 17.703125 24.203125 12.09375 21.203125 
C 5.796875 17.703125 4 12.703125 4 8.90625 
C 4 1.203125 13 -1 18.296875 -1 
C 23.796875 -1 28.90625 2.171875 31.09375 7.984375 
C 31.296875 3.640625 34.09375 -0.28125 38.5 -0.28125 
C 40.59375 -0.28125 45.90625 1.09375 45.90625 8.859375 
L 45.90625 14.375 
L 44.09375 14.375 
L 44.09375 8.78125 
C 44.09375 2.78125 41.40625 2 40.09375 2 
C 36 2 36 7.15625 36 11.53125 
z
M 30.703125 13.59375 
C 30.703125 4.953125 24.5 0.59375 19 0.59375 
C 14 0.59375 10.09375 4.296875 10.09375 8.90625 
C 10.09375 11.890625 11.40625 17.1875 17.203125 20.390625 
C 22 23.09375 27.5 23.5 30.703125 23.5 
z
" id="CMR17-97"/>
      <path d="M 22 -16.609375 
C 15.59375 -16.609375 15.203125 -16.203125 15.203125 -12.328125 
L 15.203125 6.28125 
C 18.09375 2.09375 22.296875 -0.59375 27.59375 -0.59375 
C 37.59375 -0.59375 47.703125 8.171875 47.703125 21.6875 
C 47.703125 34.234375 39 43.78125 28.703125 43.78125 
C 22.703125 43.78125 17.796875 40.5 15 36.53125 
L 15 43.78125 
L 3.09375 42.6875 
L 3.09375 40.109375 
C 9 40.109375 9.90625 39.5 9.90625 34.734375 
L 9.90625 -12.328125 
C 9.90625 -16.109375 9.5 -16.609375 3.09375 -16.609375 
L 3.09375 -19.1875 
C 5.5 -19 9.90625 -19 12.5 -19 
C 15.09375 -19 19.59375 -19 22 -19.1875 
z
M 15.203125 31.4375 
C 15.203125 32.84375 15.203125 34.921875 19.09375 38.609375 
C 19.59375 39.015625 23 42 28 42 
C 35.296875 42 41.296875 32.9375 41.296875 21.59375 
C 41.296875 10.25 34.90625 1 27 1 
C 23.40625 1 19.5 2.6875 16.5 7.375 
C 15.203125 9.5625 15.203125 10.15625 15.203125 11.75 
z
" id="CMR17-112"/>
      <path d="M 26.09375 26.140625 
C 26 26.34375 25.5 26.9375 25.5 27.234375 
C 25.5 27.4375 32.59375 33.921875 33.5 34.71875 
C 39.203125 39.5 42.796875 40 45.40625 40 
L 45.40625 42.703125 
C 44.796875 42.703125 44.59375 42.703125 44.5 42.5 
L 39.59375 42.5 
C 36.796875 42.5 32.5 42.5 29.796875 42.703125 
L 29.796875 40.09375 
C 31.203125 39.984375 32.203125 39.1875 32.203125 37.796875 
C 32.203125 35.796875 30.203125 33.90625 30.09375 33.90625 
L 15 20.140625 
L 15 68.6875 
L 3.09375 67.59375 
L 3.09375 65 
C 9 65 9.90625 64.40625 9.90625 59.640625 
L 9.90625 6.65625 
C 9.90625 2.875 9.5 2.390625 3.09375 2.390625 
L 3.09375 -0.203125 
C 5.5 0 9.90625 0 12.40625 0 
C 14.90625 0 19.296875 0 21.703125 -0.203125 
L 21.703125 2.390625 
C 15.296875 2.390625 14.90625 2.78125 14.90625 6.6875 
L 14.90625 17.65625 
L 21.796875 23.9375 
L 31.90625 8.96875 
C 33.09375 7.171875 34.09375 5.765625 34.09375 4.46875 
C 34.09375 2.6875 32.296875 2.390625 31.09375 2.390625 
L 31.09375 -0.203125 
C 33.5 0 37.796875 0 40.296875 0 
C 42.09375 0 45.796875 0 47.5 0 
L 47.5 2.390625 
C 42.796875 2.390625 41.703125 3.28125 38.703125 7.671875 
z
" id="CMR17-107"/>
      <path d="M 5.203125 68 
L 5.203125 65.40625 
C 12.09375 65.40625 13.203125 65.40625 13.203125 60.9375 
L 13.203125 7.0625 
C 13.203125 2.59375 12.09375 2.59375 5.203125 2.59375 
L 5.203125 0 
L 39.59375 0 
C 52.40625 0 60.703125 9.109375 60.703125 18.1875 
C 60.703125 27.203125 52.5 34.890625 41.796875 34.890625 
C 51.40625 36.8125 58.09375 43.296875 58.09375 51 
C 58.09375 59.40625 49.90625 68 37 68 
z
M 19.5 36 
L 19.5 61.515625 
C 19.5 64.921875 19.703125 65.40625 23.703125 65.40625 
L 36.5 65.40625 
C 46.40625 65.40625 50.796875 57.40625 50.796875 51.203125 
C 50.796875 43.609375 44.703125 36 33.90625 36 
z
M 23.703125 2.59375 
C 19.703125 2.59375 19.5 3.078125 19.5 6.453125 
L 19.5 34.40625 
L 38 34.40625 
C 48.296875 34.40625 53.296875 25.390625 53.296875 18.15625 
C 53.296875 10.921875 47.59375 2.59375 36.703125 2.59375 
z
" id="CMR17-66"/>
      <path d="M 29.40625 42.078125 
L 29.40625 39.5 
C 35.296875 39.5 36.203125 38.890625 36.203125 34.15625 
L 36.203125 16.125 
C 36.203125 7.8125 31.703125 0.59375 24.296875 0.59375 
C 16.09375 0.59375 15.40625 5.4375 15.40625 10.59375 
L 15.40625 43.171875 
L 3.296875 42.078125 
L 3.296875 39.5 
C 7.296875 39.5 10 39.5 10.09375 35.53125 
L 10.09375 16.53125 
C 10.09375 9.890625 10.09375 5.640625 12.703125 2.859375 
C 14 1.578125 16.5 -1 23.703125 -1 
C 32.203125 -1 35.5 5.890625 36.296875 7.90625 
L 36.40625 7.90625 
L 36.40625 -0.984375 
L 48.296875 -0.984375 
L 48.296875 2 
C 42.40625 2 41.5 2.59375 41.5 7.390625 
L 41.5 43.171875 
z
" id="CMR17-117"/>
      <path d="M 34.90625 35 
C 33 35 30.203125 35 30.203125 31.515625 
C 30.203125 28.71875 32.5 27.921875 33.796875 27.921875 
C 34.5 27.921875 37.40625 28.234375 37.40625 31.625 
C 37.40625 38.546875 30.59375 43.796875 22.90625 43.796875 
C 12.296875 43.796875 3.296875 34.03125 3.296875 21.296875 
C 3.296875 8.0625 12.703125 -1 22.90625 -1 
C 35.296875 -1 38.40625 10.578125 38.40625 11.6875 
C 38.40625 12.09375 38.296875 12.390625 37.59375 12.390625 
C 36.90625 12.390625 36.796875 12.296875 36.40625 10.984375 
C 33.796875 2.8125 28.09375 0.796875 23.796875 0.796875 
C 17.40625 0.796875 9.703125 6.671875 9.703125 21.390625 
C 9.703125 36.53125 17.09375 42 23 42 
C 26.90625 42 32.703125 40.203125 34.90625 35 
z
" id="CMR17-99"/>
      <path d="M 41.5 30.203125 
C 41.5 35.296875 40.5 43.59375 28.703125 43.59375 
C 20.5 43.59375 16.5 37 15.296875 33.703125 
L 15.203125 33.703125 
L 15.203125 68.6875 
L 3.296875 67.59375 
L 3.296875 65 
C 9.203125 65 10.09375 64.40625 10.09375 59.640625 
L 10.09375 6.65625 
C 10.09375 2.875 9.703125 2.390625 3.296875 2.390625 
L 3.296875 -0.203125 
C 5.703125 0 10.09375 0 12.703125 0 
C 15.296875 0 19.796875 0 22.203125 -0.203125 
L 22.203125 2.390625 
C 15.796875 2.390625 15.40625 2.78125 15.40625 6.6875 
L 15.40625 25.90625 
C 15.40625 35.109375 21 42 28 42 
C 35.40625 42 36.203125 35.40625 36.203125 30.59375 
L 36.203125 6.6875 
C 36.203125 2.875 35.796875 2.390625 29.40625 2.390625 
L 29.40625 -0.203125 
C 31.796875 0 36.203125 0 38.796875 0 
C 41.40625 0 45.90625 0 48.296875 -0.203125 
L 48.296875 2.390625 
C 41.90625 2.390625 41.5 2.78125 41.5 6.6875 
z
" id="CMR17-104"/>
      <path d="M 43.09375 21.1875 
C 43.09375 34 33.796875 44 22.90625 44 
C 12 44 2.703125 34 2.703125 21.1875 
C 2.703125 8.609375 12 -1 22.90625 -1 
C 33.796875 -1 43.09375 8.609375 43.09375 21.1875 
z
M 22.90625 0.796875 
C 18.203125 0.796875 14.203125 3.59375 11.90625 7.5 
C 9.40625 11.984375 9.09375 17.59375 9.09375 22 
C 9.09375 26.203125 9.296875 31.40625 11.90625 35.90625 
C 13.90625 39.203125 17.796875 42.40625 22.90625 42.40625 
C 27.40625 42.40625 31.203125 39.90625 33.59375 36.40625 
C 36.703125 31.703125 36.703125 25.109375 36.703125 22 
C 36.703125 18.09375 36.5 12.109375 33.796875 7.296875 
C 31 2.703125 26.703125 0.796875 22.90625 0.796875 
z
" id="CMR17-111"/>
      <path d="M 39.90625 40 
L 51.296875 40 
L 51.296875 42.578125 
L 39.703125 42.578125 
L 39.703125 54.59375 
C 39.703125 62.84375 43.90625 68 48.203125 68 
C 49.5 68 51 67.609375 52 66.90625 
C 51.203125 66.703125 49.09375 66.015625 49.09375 63.546875 
C 49.09375 60.953125 51.09375 60.15625 52.5 60.15625 
C 53.90625 60.15625 55.90625 60.953125 55.90625 63.546875 
C 55.90625 67.3125 52.296875 69.59375 48.296875 69.59375 
C 44.40625 69.59375 41.203125 67.703125 38.703125 65.328125 
C 36.40625 68.59375 32.59375 69.59375 28.703125 69.59375 
C 20.90625 69.59375 9.90625 65.125 9.90625 54.203125 
L 9.90625 42.578125 
L 1.90625 42.578125 
L 1.90625 40 
L 9.90625 40 
L 9.90625 6.671875 
C 9.90625 2.875 9.5 2.390625 3.09375 2.390625 
L 3.09375 -0.203125 
C 5.5 0 9.90625 0 12.40625 0 
C 15 0 19.40625 0 21.796875 -0.203125 
L 21.796875 2.390625 
C 15.40625 2.390625 15 2.78125 15 6.671875 
L 15 40 
L 34.796875 40 
L 34.796875 6.671875 
C 34.796875 2.875 34.40625 2.390625 28 2.390625 
L 28 -0.203125 
C 30.40625 0 35 0 37.59375 0 
C 40.5 0 45.59375 0 48.296875 -0.203125 
L 48.296875 2.390625 
C 41.09375 2.390625 39.90625 2.390625 39.90625 6.859375 
z
M 14.796875 42.578125 
L 14.796875 54.203125 
C 14.796875 63.234375 21.796875 68 28.5 68 
C 30 68 33.90625 67.6875 36.296875 65.421875 
C 34.5 65.421875 32.796875 64.625 32.796875 62.140625 
C 32.796875 59.5625 35.09375 58.859375 35.296875 58.859375 
C 34.796875 57.0625 34.796875 55.09375 34.796875 54.390625 
L 34.796875 42.578125 
z
" id="CMR17-11"/>
     </defs>
     <use transform="scale(0.996264)" xlink:href="#CMR17-76"/>
     <use transform="translate(57.381408 0)scale(0.996264)" xlink:href="#CMR17-51"/>
     <use transform="translate(103.071885 0)scale(0.996264)" xlink:href="#CMR17-50"/>
     <use transform="translate(178.838328 0)scale(0.996264)" xlink:href="#CMR17-98"/>
     <use transform="translate(232.336137 0)scale(0.996264)" xlink:href="#CMR17-101"/>
     <use transform="translate(272.821797 0)scale(0.996264)" xlink:href="#CMR17-116"/>
     <use transform="translate(308.102565 0)scale(0.996264)" xlink:href="#CMR17-97"/>
     <use transform="translate(353.793042 0)scale(0.996264)" xlink:href="#CMR17-49"/>
     <use transform="translate(399.483519 0)scale(0.996264)" xlink:href="#CMR17-49"/>
     <use transform="translate(445.173997 0)scale(0.996264)" xlink:href="#CMR17-112"/>
     <use transform="translate(496.069366 0)scale(0.996264)" xlink:href="#CMR17-48"/>
     <use transform="translate(541.759843 0)scale(0.996264)" xlink:href="#CMR17-50"/>
     <use transform="translate(587.450321 0)scale(0.996264)" xlink:href="#CMR17-56"/>
     <use transform="translate(663.216764 0)scale(0.996264)" xlink:href="#CMR17-107"/>
     <use transform="translate(706.304863 0)scale(0.996264)" xlink:href="#CMR17-97"/>
     <use transform="translate(751.99534 0)scale(0.996264)" xlink:href="#CMR17-112"/>
     <use transform="translate(802.89071 0)scale(0.996264)" xlink:href="#CMR17-112"/>
     <use transform="translate(853.78608 0)scale(0.996264)" xlink:href="#CMR17-97"/>
     <use transform="translate(899.476557 0)scale(0.996264)" xlink:href="#CMR17-48"/>
     <use transform="translate(945.167034 0)scale(0.996264)" xlink:href="#CMR17-112"/>
     <use transform="translate(996.062404 0)scale(0.996264)" xlink:href="#CMR17-49"/>
     <use transform="translate(1041.752881 0)scale(0.996264)" xlink:href="#CMR17-53"/>
     <use transform="translate(1087.443358 0)scale(0.996264)" xlink:href="#CMR17-53"/>
     <use transform="translate(1133.133835 0)scale(0.996264)" xlink:href="#CMR17-52"/>
     <use transform="translate(1208.900279 0)scale(0.996264)" xlink:href="#CMR17-66"/>
     <use transform="translate(1274.089033 0)scale(0.996264)" xlink:href="#CMR17-117"/>
     <use transform="translate(1324.984403 0)scale(0.996264)" xlink:href="#CMR17-99"/>
     <use transform="translate(1362.86761 0)scale(0.996264)" xlink:href="#CMR17-104"/>
     <use transform="translate(1413.762979 0)scale(0.996264)" xlink:href="#CMR17-111"/>
     <use transform="translate(1459.453456 0)scale(0.996264)" xlink:href="#CMR17-11"/>
    </g>
    <!-- bary 4u Spin2 -->
    <g transform="translate(209.076625 94.8)scale(0.24 -0.24)">
     <defs>
      <path d="M 15 23.390625 
C 15 33 19.09375 42 26.59375 42 
C 27.296875 42 28 41.90625 28.703125 41.59375 
C 28.703125 41.59375 26.5 40.890625 26.5 38.3125 
C 26.5 35.90625 28.40625 34.90625 29.90625 34.90625 
C 31.09375 34.90625 33.296875 35.609375 33.296875 38.40625 
C 33.296875 41.609375 30.09375 43.59375 26.703125 43.59375 
C 19.09375 43.59375 15.796875 36.203125 14.796875 32.703125 
L 14.703125 32.703125 
L 14.703125 43.59375 
L 3.09375 42.5 
L 3.09375 39.90625 
C 9 39.90625 9.90625 39.296875 9.90625 34.5 
L 9.90625 6.6875 
C 9.90625 2.875 9.5 2.390625 3.09375 2.390625 
L 3.09375 -0.203125 
C 5.5 0 10.09375 0 12.703125 0 
C 15.59375 0 20.703125 0 23.40625 -0.203125 
L 23.40625 2.390625 
C 16.203125 2.390625 15 2.390625 15 6.875 
z
" id="CMR17-114"/>
      <path d="M 39 34.328125 
C 41.5 40.40625 46 40.40625 47.40625 40.40625 
L 47.40625 43 
C 45.5 43 43 43 41.09375 43 
C 39 43 35.703125 43 33.703125 43.09375 
L 33.703125 40.5 
C 37.5 40.203125 37.59375 37.40625 37.59375 36.609375 
C 37.59375 35.625 37.40625 35.125 36.90625 33.921875 
L 26 7.015625 
L 14.09375 36.03125 
C 13.59375 37.21875 13.59375 37.90625 13.59375 38.015625 
C 13.59375 40.203125 15.90625 40.40625 18.296875 40.40625 
L 18.296875 43.09375 
C 15.90625 43 11.59375 43 9.09375 43 
C 6.40625 43 3.203125 43 1 43.09375 
L 1 40.40625 
C 6.40625 40.40625 7 39.90625 8.296875 36.71875 
L 23.203125 0.234375 
C 18.703125 -11.53125 16.09375 -18.40625 9.796875 -18.40625 
C 8.703125 -18.40625 6.203125 -18.109375 4.40625 -16.3125 
C 6.703125 -16.109375 7.703125 -14.71875 7.703125 -13.015625 
C 7.703125 -11.328125 6.5 -9.828125 4.5 -9.828125 
C 2.296875 -9.828125 1.203125 -11.328125 1.203125 -13.125 
C 1.203125 -17.109375 5.296875 -20 9.796875 -20 
C 15.59375 -20 19.203125 -14.40625 21.203125 -9.4375 
z
" id="CMR17-121"/>
      <path d="M 43.796875 67.03125 
C 43.796875 68.8125 43.703125 68.921875 43.09375 68.921875 
C 42.5 68.921875 42.296875 68.515625 41.90625 67.625 
L 38.90625 61.046875 
C 35.09375 66.515625 29.296875 69 23 69 
C 12.796875 69 4.59375 60.953125 4.59375 50.828125 
C 4.59375 47.75 5.296875 43.375 8.703125 39.21875 
C 12.40625 34.65625 15.90625 33.859375 23.90625 31.765625 
C 26.90625 30.96875 31.90625 29.671875 32.90625 29.28125 
C 38.59375 26.90625 41.59375 20.953125 41.59375 15.390625 
C 41.59375 8.234375 36.5 0.59375 27.796875 0.59375 
C 17.09375 0.59375 7.09375 6.546875 6.40625 20.484375 
C 6.296875 22.078125 6.203125 22.171875 5.5 22.171875 
C 4.703125 22.171875 4.59375 22.078125 4.59375 20.078125 
L 4.59375 -0.015625 
C 4.59375 -1.796875 4.703125 -1.90625 5.296875 -1.90625 
C 6 -1.90625 6.203125 -1.40625 7.59375 1.6875 
C 7.703125 1.984375 7.703125 2.1875 9.59375 5.953125 
C 14.59375 -0.609375 23 -2 27.796875 -2 
C 38.703125 -2 46.40625 7.046875 46.40625 17.5625 
C 46.40625 22.71875 44.5 26.6875 43.40625 28.484375 
C 39.203125 34.84375 34.703125 36.03125 29.90625 37.21875 
C 29.203125 37.53125 29 37.53125 23.40625 38.90625 
C 18 40.296875 15.703125 41 13.203125 43.6875 
C 10.40625 46.75 9.40625 49.9375 9.40625 53.109375 
C 9.40625 59.5625 14.59375 66.609375 23.09375 66.609375 
C 33.703125 66.609375 40.296875 59.15625 41.796875 46.765625 
C 42.09375 44.96875 42.203125 44.875 42.90625 44.875 
C 43.796875 44.875 43.796875 45.171875 43.796875 46.859375 
z
" id="CMR17-83"/>
     </defs>
     <use transform="scale(0.996264)" xlink:href="#CMR17-98"/>
     <use transform="translate(50.89537 0)scale(0.996264)" xlink:href="#CMR17-97"/>
     <use transform="translate(96.585847 0)scale(0.996264)" xlink:href="#CMR17-114"/>
     <use transform="translate(131.866615 0)scale(0.996264)" xlink:href="#CMR17-121"/>
     <use transform="translate(210.235497 0)scale(0.996264)" xlink:href="#CMR17-52"/>
     <use transform="translate(255.925974 0)scale(0.996264)" xlink:href="#CMR17-117"/>
     <use transform="translate(336.89731 0)scale(0.996264)" xlink:href="#CMR17-83"/>
     <use transform="translate(387.79268 0)scale(0.996264)" xlink:href="#CMR17-112"/>
     <use transform="translate(438.68805 0)scale(0.996264)" xlink:href="#CMR17-105"/>
     <use transform="translate(463.559108 0)scale(0.996264)" xlink:href="#CMR17-110"/>
     <use transform="translate(514.454478 0)scale(0.996264)" xlink:href="#CMR17-50"/>
    </g>
   </g>
  </g>
 </g>
 <defs>
  <clipPath id="p5e5f7e9c42">
   <rect height="339.495773" width="437.90974" x="57.33915" y="100.8"/>
  </clipPath>
 </defs>
</svg>
