<?xml version="1.0" encoding="utf-8" standalone="no"?>
<!DOCTYPE svg PUBLIC "-//W3C//DTD SVG 1.1//EN"
  "http://www.w3.org/Graphics/SVG/1.1/DTD/svg11.dtd">
<!-- Created with matplotlib (https://matplotlib.org/) -->
<svg height="504pt" version="1.1" viewBox="0 0 576 504" width="576pt" xmlns="http://www.w3.org/2000/svg" xmlns:xlink="http://www.w3.org/1999/xlink">
 <metadata>
  <rdf:RDF xmlns:cc="http://creativecommons.org/ns#" xmlns:dc="http://purl.org/dc/elements/1.1/" xmlns:rdf="http://www.w3.org/1999/02/22-rdf-syntax-ns#">
   <cc:Work>
    <dc:type rdf:resource="http://purl.org/dc/dcmitype/StillImage"/>
    <dc:date>2023-01-24T17:17:10.548669</dc:date>
    <dc:format>image/svg+xml</dc:format>
    <dc:creator>
     <cc:Agent>
      <dc:title>Matplotlib v3.3.4, https://matplotlib.org/</dc:title>
     </cc:Agent>
    </dc:creator>
   </cc:Work>
  </rdf:RDF>
 </metadata>
 <defs>
  <style type="text/css">*{stroke-linecap:butt;stroke-linejoin:round;}</style>
 </defs>
 <g id="figure_1">
  <g id="patch_1">
   <path d="M 0 504 
L 576 504 
L 576 0 
L 0 0 
z
" style="fill:#ffffff;"/>
  </g>
  <g id="axes_1">
   <g id="patch_2">
    <path d="M 57.33915 440.295773 
L 503.052876 440.295773 
L 503.052876 75.6 
L 57.33915 75.6 
z
" style="fill:#ffffff;"/>
   </g>
   <g id="matplotlib.axis_1">
    <g id="xtick_1">
     <g id="line2d_1">
      <defs>
       <path d="M 0 0 
L 0 3.5 
" id="m1e7070d065" style="stroke:#000000;stroke-width:0.8;"/>
      </defs>
      <g>
       <use style="stroke:#000000;stroke-width:0.8;" x="77.598864" xlink:href="#m1e7070d065" y="440.295773"/>
      </g>
     </g>
     <g id="text_1">
      <!-- $\mathdefault{0}$ -->
      <g transform="translate(73.696871 458.365361)scale(0.16 -0.16)">
       <defs>
        <path d="M 42 31.640625 
C 42 37.75 41.90625 48.125 37.703125 56.109375 
C 34 63.109375 28.09375 65.59375 22.90625 65.59375 
C 18.09375 65.59375 12 63.40625 8.203125 56.203125 
C 4.203125 48.71875 3.796875 39.4375 3.796875 31.640625 
C 3.796875 25.953125 3.90625 17.28125 7 9.671875 
C 11.296875 -0.609375 19 -2 22.90625 -2 
C 27.5 -2 34.5 -0.109375 38.59375 9.375 
C 41.59375 16.28125 42 24.359375 42 31.640625 
z
M 22.90625 -0.40625 
C 16.5 -0.40625 12.703125 5.078125 11.296875 12.6875 
C 10.203125 18.5625 10.203125 27.15625 10.203125 32.75 
C 10.203125 40.4375 10.203125 46.828125 11.5 52.921875 
C 13.40625 61.390625 19 64 22.90625 64 
C 27 64 32.296875 61.296875 34.203125 53.125 
C 35.5 47.4375 35.59375 40.734375 35.59375 32.75 
C 35.59375 26.25 35.59375 18.265625 34.40625 12.375 
C 32.296875 1.484375 26.40625 -0.40625 22.90625 -0.40625 
z
" id="CMR17-48"/>
       </defs>
       <use transform="scale(0.996264)" xlink:href="#CMR17-48"/>
      </g>
     </g>
    </g>
    <g id="xtick_2">
     <g id="line2d_2">
      <g>
       <use style="stroke:#000000;stroke-width:0.8;" x="141.91542" xlink:href="#m1e7070d065" y="440.295773"/>
      </g>
     </g>
     <g id="text_2">
      <!-- $\mathdefault{10}$ -->
      <g transform="translate(134.111433 458.365361)scale(0.16 -0.16)">
       <defs>
        <path d="M 26.59375 63.40625 
C 26.59375 65.5 26.5 65.5 25.09375 65.5 
C 21.203125 61.1875 15.296875 59.796875 9.703125 59.796875 
C 9.40625 59.796875 8.90625 59.796875 8.796875 59.5 
C 8.703125 59.296875 8.703125 59.09375 8.703125 57 
C 11.796875 57 17 57.59375 21 59.984375 
L 21 7.203125 
C 21 3.6875 20.796875 2.5 12.203125 2.5 
L 9.203125 2.5 
L 9.203125 0 
C 14 0 19 0 23.796875 0 
C 28.59375 0 33.59375 0 38.40625 0 
L 38.40625 2.5 
L 35.40625 2.5 
C 26.796875 2.5 26.59375 3.59375 26.59375 7.15625 
z
" id="CMR17-49"/>
       </defs>
       <use transform="scale(0.996264)" xlink:href="#CMR17-49"/>
       <use transform="translate(45.690477 0)scale(0.996264)" xlink:href="#CMR17-48"/>
      </g>
     </g>
    </g>
    <g id="xtick_3">
     <g id="line2d_3">
      <g>
       <use style="stroke:#000000;stroke-width:0.8;" x="206.231975" xlink:href="#m1e7070d065" y="440.295773"/>
      </g>
     </g>
     <g id="text_3">
      <!-- $\mathdefault{20}$ -->
      <g transform="translate(198.427988 458.365361)scale(0.16 -0.16)">
       <defs>
        <path d="M 41.703125 15.453125 
L 39.90625 15.453125 
C 38.90625 8.375 38.09375 7.171875 37.703125 6.5625 
C 37.203125 5.765625 30 5.765625 28.59375 5.765625 
L 9.40625 5.765625 
C 13 9.671875 20 16.75 28.5 24.953125 
C 34.59375 30.734375 41.703125 37.53125 41.703125 47.421875 
C 41.703125 59.21875 32.296875 66 21.796875 66 
C 10.796875 66 4.09375 56.3125 4.09375 47.34375 
C 4.09375 43.4375 7 42.9375 8.203125 42.9375 
C 9.203125 42.9375 12.203125 43.546875 12.203125 47.03125 
C 12.203125 50.109375 9.59375 51 8.203125 51 
C 7.59375 51 7 50.90625 6.59375 50.703125 
C 8.5 59.21875 14.296875 63.40625 20.40625 63.40625 
C 29.09375 63.40625 34.796875 56.515625 34.796875 47.421875 
C 34.796875 38.734375 29.703125 31.25 24 24.75 
L 4.09375 2.28125 
L 4.09375 0 
L 39.296875 0 
z
" id="CMR17-50"/>
       </defs>
       <use transform="scale(0.996264)" xlink:href="#CMR17-50"/>
       <use transform="translate(45.690477 0)scale(0.996264)" xlink:href="#CMR17-48"/>
      </g>
     </g>
    </g>
    <g id="xtick_4">
     <g id="line2d_4">
      <g>
       <use style="stroke:#000000;stroke-width:0.8;" x="270.54853" xlink:href="#m1e7070d065" y="440.295773"/>
      </g>
     </g>
     <g id="text_4">
      <!-- $\mathdefault{30}$ -->
      <g transform="translate(262.744543 458.365361)scale(0.16 -0.16)">
       <defs>
        <path d="M 22.09375 33.703125 
C 31 33.703125 34.90625 25.96875 34.90625 17.03125 
C 34.90625 5 28.5 0.390625 22.703125 0.390625 
C 17.40625 0.390625 8.796875 3.03125 6.09375 10.828125 
C 6.59375 10.625 7.09375 10.625 7.59375 10.625 
C 10 10.625 11.796875 12.21875 11.796875 14.8125 
C 11.796875 17.703125 9.59375 19 7.59375 19 
C 5.90625 19 3.296875 18.203125 3.296875 14.46875 
C 3.296875 5.234375 12.296875 -2 22.90625 -2 
C 34 -2 42.5 6.71875 42.5 16.953125 
C 42.5 26.671875 34.5 33.703125 25 34.796875 
C 32.59375 36.375 39.90625 43.0625 39.90625 52.015625 
C 39.90625 59.6875 32 65.296875 23 65.296875 
C 13.90625 65.296875 5.90625 59.828125 5.90625 52.015625 
C 5.90625 48.59375 8.5 48 9.796875 48 
C 11.90625 48 13.703125 49.296875 13.703125 51.890625 
C 13.703125 54.46875 11.90625 55.765625 9.796875 55.765625 
C 9.40625 55.765625 8.90625 55.765625 8.5 55.578125 
C 11.40625 61.859375 19.296875 63 22.796875 63 
C 26.296875 63 32.90625 61.328125 32.90625 51.875 
C 32.90625 49.109375 32.5 44.1875 29.09375 39.84375 
C 26.09375 36 22.703125 36 19.40625 35.6875 
C 18.90625 35.6875 16.59375 35.453125 16.203125 35.453125 
C 15.5 35.359375 15.09375 35.265625 15.09375 34.5 
C 15.09375 33.796875 15.203125 33.703125 17.203125 33.703125 
z
" id="CMR17-51"/>
       </defs>
       <use transform="scale(0.996264)" xlink:href="#CMR17-51"/>
       <use transform="translate(45.690477 0)scale(0.996264)" xlink:href="#CMR17-48"/>
      </g>
     </g>
    </g>
    <g id="xtick_5">
     <g id="line2d_5">
      <g>
       <use style="stroke:#000000;stroke-width:0.8;" x="334.865085" xlink:href="#m1e7070d065" y="440.295773"/>
      </g>
     </g>
     <g id="text_5">
      <!-- $\mathdefault{40}$ -->
      <g transform="translate(327.061098 458.365361)scale(0.16 -0.16)">
       <defs>
        <path d="M 33.59375 64.40625 
C 33.59375 66.5 33.5 66.5 31.703125 66.5 
L 2 19.59375 
L 2 17 
L 27.796875 17 
L 27.796875 7.140625 
C 27.796875 3.5 27.59375 2.5 20.59375 2.5 
L 18.703125 2.5 
L 18.703125 0 
C 21.90625 0 27.296875 0 30.703125 0 
C 34.09375 0 39.5 0 42.703125 0 
L 42.703125 2.5 
L 40.796875 2.5 
C 33.796875 2.5 33.59375 3.5 33.59375 7.140625 
L 33.59375 17 
L 43.796875 17 
L 43.796875 19.59375 
L 33.59375 19.59375 
z
M 28.09375 57.859375 
L 28.09375 19.59375 
L 4 19.59375 
z
" id="CMR17-52"/>
       </defs>
       <use transform="scale(0.996264)" xlink:href="#CMR17-52"/>
       <use transform="translate(45.690477 0)scale(0.996264)" xlink:href="#CMR17-48"/>
      </g>
     </g>
    </g>
    <g id="xtick_6">
     <g id="line2d_6">
      <g>
       <use style="stroke:#000000;stroke-width:0.8;" x="399.18164" xlink:href="#m1e7070d065" y="440.295773"/>
      </g>
     </g>
     <g id="text_6">
      <!-- $\mathdefault{50}$ -->
      <g transform="translate(391.377653 458.365361)scale(0.16 -0.16)">
       <defs>
        <path d="M 11.40625 57.6875 
C 12.40625 57.28125 16.5 56 20.703125 56 
C 30 56 35.09375 61.109375 38 64.0625 
C 38 64.953125 38 65.5 37.40625 65.5 
C 37.296875 65.5 37.09375 65.5 36.296875 65.046875 
C 32.796875 63.40625 28.703125 62.078125 23.703125 62.078125 
C 20.703125 62.078125 16.203125 62.484375 11.296875 64.671875 
C 10.203125 65.171875 10 65.171875 9.90625 65.171875 
C 9.40625 65.171875 9.296875 65.0625 9.296875 63.078125 
L 9.296875 34.421875 
C 9.296875 32.640625 9.296875 32.140625 10.296875 32.140625 
C 10.796875 32.140625 11 32.34375 11.5 33.03125 
C 14.703125 37.515625 19.09375 39.40625 24.09375 39.40625 
C 27.59375 39.40625 35.09375 37.21875 35.09375 20.140625 
C 35.09375 16.953125 35.09375 11.171875 32.09375 6.578125 
C 29.59375 2.484375 25.703125 0.390625 21.40625 0.390625 
C 14.796875 0.390625 8.09375 5 6.296875 12.71875 
C 6.703125 12.609375 7.5 12.421875 7.90625 12.421875 
C 9.203125 12.421875 11.703125 13.125 11.703125 16.21875 
C 11.703125 18.90625 9.796875 20 7.90625 20 
C 5.59375 20 4.09375 18.59375 4.09375 15.796875 
C 4.09375 7.09375 11 -2 21.59375 -2 
C 31.90625 -2 41.703125 6.875 41.703125 19.75 
C 41.703125 31.71875 33.90625 41 24.203125 41 
C 19.09375 41 14.796875 39.109375 11.40625 35.53125 
z
" id="CMR17-53"/>
       </defs>
       <use transform="scale(0.996264)" xlink:href="#CMR17-53"/>
       <use transform="translate(45.690477 0)scale(0.996264)" xlink:href="#CMR17-48"/>
      </g>
     </g>
    </g>
    <g id="xtick_7">
     <g id="line2d_7">
      <g>
       <use style="stroke:#000000;stroke-width:0.8;" x="463.498195" xlink:href="#m1e7070d065" y="440.295773"/>
      </g>
     </g>
     <g id="text_7">
      <!-- $\mathdefault{60}$ -->
      <g transform="translate(455.694208 458.365361)scale(0.16 -0.16)">
       <defs>
        <path d="M 10.59375 34 
C 10.59375 57.65625 21.796875 63 28.296875 63 
C 30.40625 63 35.5 62.640625 37.5 59 
C 35.90625 59 32.90625 59 32.90625 55.515625 
C 32.90625 52.828125 35.09375 51.921875 36.5 51.921875 
C 37.40625 51.921875 40.09375 52.3125 40.09375 55.625 
C 40.09375 61.78125 35.09375 65.296875 28.203125 65.296875 
C 16.296875 65.296875 3.796875 52.96875 3.796875 31 
C 3.796875 3.953125 15.09375 -2 23.09375 -2 
C 32.796875 -2 42 6.671875 42 20.046875 
C 42 32.515625 33.90625 41.59375 23.703125 41.59375 
C 17.59375 41.59375 13.09375 37.609375 10.59375 30.625 
z
M 23.09375 0.390625 
C 10.796875 0.390625 10.796875 18.75 10.796875 22.4375 
C 10.796875 29.625 14.203125 40 23.5 40 
C 25.203125 40 30.09375 40 33.40625 33.125 
C 35.203125 29.21875 35.203125 25.140625 35.203125 20.140625 
C 35.203125 14.75 35.203125 10.78125 33.09375 6.78125 
C 30.90625 2.671875 27.703125 0.390625 23.09375 0.390625 
z
" id="CMR17-54"/>
       </defs>
       <use transform="scale(0.996264)" xlink:href="#CMR17-54"/>
       <use transform="translate(45.690477 0)scale(0.996264)" xlink:href="#CMR17-48"/>
      </g>
     </g>
    </g>
    <g id="text_8">
     <!-- $t$ -->
     <g transform="translate(275.968853 482.069243)scale(0.24 -0.24)">
      <defs>
       <path d="M 20.09375 40.09375 
L 29.296875 40.09375 
C 31.203125 40.09375 32.203125 40.09375 32.203125 41.890625 
C 32.203125 43 31.59375 43 29.59375 43 
L 20.796875 43 
L 24.5 57.6875 
C 24.90625 59.078125 24.90625 59.28125 24.90625 60 
C 24.90625 61.609375 23.59375 62.5 22.296875 62.5 
C 21.5 62.5 19.203125 62.203125 18.40625 58.984375 
L 14.5 43 
L 5.09375 43 
C 3.09375 43 2.203125 43 2.203125 41.09375 
C 2.203125 40.09375 2.90625 40.09375 4.796875 40.09375 
L 13.703125 40.09375 
L 7.09375 13.765625 
C 6.296875 10.28125 6 9.28125 6 7.984375 
C 6 3.296875 9.296875 -1 14.90625 -1 
C 25 -1 30.40625 13.5625 30.40625 14.25 
C 30.40625 14.859375 30 15.15625 29.40625 15.15625 
C 29.203125 15.15625 28.796875 15.15625 28.59375 14.75 
C 28.5 14.65625 28.40625 14.546875 27.703125 12.953125 
C 25.59375 7.984375 21 1 15.203125 1 
C 12.203125 1 12 3.5 12 5.6875 
C 12 5.78125 12 7.6875 12.296875 8.875 
z
" id="CMMI12-116"/>
      </defs>
      <use transform="scale(0.996264)" xlink:href="#CMMI12-116"/>
     </g>
    </g>
   </g>
   <g id="matplotlib.axis_2">
    <g id="ytick_1">
     <g id="line2d_8">
      <defs>
       <path d="M 0 0 
L -3.5 0 
" id="m33735bf1e5" style="stroke:#000000;stroke-width:0.8;"/>
      </defs>
      <g>
       <use style="stroke:#000000;stroke-width:0.8;" x="57.33915" xlink:href="#m33735bf1e5" y="393.159143"/>
      </g>
     </g>
     <g id="text_9">
      <!-- $\mathdefault{1}$ -->
      <g transform="translate(42.535163 398.693938)scale(0.16 -0.16)">
       <use transform="scale(0.996264)" xlink:href="#CMR17-49"/>
      </g>
     </g>
    </g>
    <g id="ytick_2">
     <g id="line2d_9">
      <g>
       <use style="stroke:#000000;stroke-width:0.8;" x="57.33915" xlink:href="#m33735bf1e5" y="339.043583"/>
      </g>
     </g>
     <g id="text_10">
      <!-- $\mathdefault{2}$ -->
      <g transform="translate(42.535163 344.578377)scale(0.16 -0.16)">
       <use transform="scale(0.996264)" xlink:href="#CMR17-50"/>
      </g>
     </g>
    </g>
    <g id="ytick_3">
     <g id="line2d_10">
      <g>
       <use style="stroke:#000000;stroke-width:0.8;" x="57.33915" xlink:href="#m33735bf1e5" y="284.928022"/>
      </g>
     </g>
     <g id="text_11">
      <!-- $\mathdefault{3}$ -->
      <g transform="translate(42.535163 290.462816)scale(0.16 -0.16)">
       <use transform="scale(0.996264)" xlink:href="#CMR17-51"/>
      </g>
     </g>
    </g>
    <g id="ytick_4">
     <g id="line2d_11">
      <g>
       <use style="stroke:#000000;stroke-width:0.8;" x="57.33915" xlink:href="#m33735bf1e5" y="230.812461"/>
      </g>
     </g>
     <g id="text_12">
      <!-- $\mathdefault{4}$ -->
      <g transform="translate(42.535163 236.347255)scale(0.16 -0.16)">
       <use transform="scale(0.996264)" xlink:href="#CMR17-52"/>
      </g>
     </g>
    </g>
    <g id="ytick_5">
     <g id="line2d_12">
      <g>
       <use style="stroke:#000000;stroke-width:0.8;" x="57.33915" xlink:href="#m33735bf1e5" y="176.696901"/>
      </g>
     </g>
     <g id="text_13">
      <!-- $\mathdefault{5}$ -->
      <g transform="translate(42.535163 182.231695)scale(0.16 -0.16)">
       <use transform="scale(0.996264)" xlink:href="#CMR17-53"/>
      </g>
     </g>
    </g>
    <g id="ytick_6">
     <g id="line2d_13">
      <g>
       <use style="stroke:#000000;stroke-width:0.8;" x="57.33915" xlink:href="#m33735bf1e5" y="122.58134"/>
      </g>
     </g>
     <g id="text_14">
      <!-- $\mathdefault{6}$ -->
      <g transform="translate(42.535163 128.116134)scale(0.16 -0.16)">
       <use transform="scale(0.996264)" xlink:href="#CMR17-54"/>
      </g>
     </g>
    </g>
    <g id="text_15">
     <!-- $\tau_{\rm int}$ -->
     <g transform="translate(33.884405 272.818992)rotate(-90)scale(0.24 -0.24)">
      <defs>
       <path d="M 28.703125 37.625 
L 45.296875 37.625 
C 46.59375 37.625 49.90625 37.625 49.90625 40.8125 
C 49.90625 43 48 43 46.203125 43 
L 18.703125 43 
C 16.40625 43 13 43 8.40625 38.125 
C 5.796875 35.234375 2.59375 29.953125 2.59375 29.359375 
C 2.59375 28.765625 3.09375 28.5625 3.703125 28.5625 
C 4.40625 28.5625 4.5 28.859375 5 29.453125 
C 10.203125 37.625 15.40625 37.625 17.90625 37.625 
L 26.203125 37.625 
L 15.796875 3.484375 
C 15.296875 1.984375 15.296875 1.78125 15.296875 1.484375 
C 15.296875 0.390625 16 -1 18 -1 
C 21.09375 -1 21.59375 1.6875 21.90625 3.171875 
z
" id="CMMI12-28"/>
       <path d="M 15.5 61.078125 
C 15.5 63.265625 13.703125 65.15625 11.40625 65.15625 
C 9.203125 65.15625 7.296875 63.375 7.296875 61.078125 
C 7.296875 58.890625 9.09375 57 11.40625 57 
C 13.59375 57 15.5 58.796875 15.5 61.078125 
z
M 3.796875 42.28125 
L 3.796875 39.703125 
C 9.40625 39.703125 10.203125 39.09375 10.203125 34.328125 
L 10.203125 6.671875 
C 10.203125 2.875 9.796875 2.390625 3.40625 2.390625 
L 3.40625 -0.203125 
C 5.796875 0 10.09375 0 12.59375 0 
C 15 0 19.09375 0 21.40625 -0.203125 
L 21.40625 2.390625 
C 15.5 2.390625 15.296875 2.984375 15.296875 6.5625 
L 15.296875 43.375 
z
" id="CMR17-105"/>
       <path d="M 41.5 30.203125 
C 41.5 35.296875 40.5 43.59375 28.703125 43.59375 
C 20.796875 43.59375 16.703125 37.5 15.203125 33.5 
L 15.09375 33.5 
L 15.09375 43.59375 
L 3.296875 42.5 
L 3.296875 39.90625 
C 9.203125 39.90625 10.09375 39.296875 10.09375 34.5 
L 10.09375 6.6875 
C 10.09375 2.875 9.703125 2.390625 3.296875 2.390625 
L 3.296875 -0.203125 
C 5.703125 0 10.09375 0 12.703125 0 
C 15.296875 0 19.796875 0 22.203125 -0.203125 
L 22.203125 2.390625 
C 15.796875 2.390625 15.40625 2.78125 15.40625 6.6875 
L 15.40625 25.90625 
C 15.40625 35.109375 21 42 28 42 
C 35.40625 42 36.203125 35.40625 36.203125 30.59375 
L 36.203125 6.6875 
C 36.203125 2.875 35.796875 2.390625 29.40625 2.390625 
L 29.40625 -0.203125 
C 31.796875 0 36.203125 0 38.796875 0 
C 41.40625 0 45.90625 0 48.296875 -0.203125 
L 48.296875 2.390625 
C 41.90625 2.390625 41.5 2.78125 41.5 6.6875 
z
" id="CMR17-110"/>
       <path d="M 15.09375 40 
L 29.09375 40 
L 29.09375 42.578125 
L 15.09375 42.578125 
L 15.09375 61 
L 13.296875 61 
C 13.09375 50.703125 9.59375 41.6875 1.09375 41.6875 
L 1.09375 40 
L 9.796875 40 
L 9.796875 12.046875 
C 9.796875 10.15625 9.796875 -1 21.40625 -1 
C 27.296875 -1 30.703125 4.78125 30.703125 12.140625 
L 30.703125 17.8125 
L 28.90625 17.8125 
L 28.90625 12.234375 
C 28.90625 5.375 26.203125 0.796875 22 0.796875 
C 19.09375 0.796875 15.09375 2.78125 15.09375 11.84375 
z
" id="CMR17-116"/>
      </defs>
      <use transform="scale(0.996264)" xlink:href="#CMMI12-28"/>
      <use transform="translate(42.363841 -14.943915)scale(0.697382)" xlink:href="#CMR17-105"/>
      <use transform="translate(59.7735 -14.943915)scale(0.697382)" xlink:href="#CMR17-110"/>
      <use transform="translate(93.578387 -14.943915)scale(0.697382)" xlink:href="#CMR17-116"/>
     </g>
    </g>
   </g>
   <g id="LineCollection_1">
    <path clip-path="url(#pea8651dab8)" d="M 77.598864 423.718692 
L 77.598864 413.779311 
" style="fill:none;stroke:#000000;stroke-width:2;"/>
    <path clip-path="url(#pea8651dab8)" d="M 84.03052 413.770443 
L 84.03052 396.531432 
" style="fill:none;stroke:#000000;stroke-width:2;"/>
    <path clip-path="url(#pea8651dab8)" d="M 90.462175 418.590296 
L 90.462175 403.462862 
" style="fill:none;stroke:#000000;stroke-width:2;"/>
    <path clip-path="url(#pea8651dab8)" d="M 96.893831 412.625081 
L 96.893831 394.902426 
" style="fill:none;stroke:#000000;stroke-width:2;"/>
    <path clip-path="url(#pea8651dab8)" d="M 103.325486 399.135243 
L 103.325486 370.86283 
" style="fill:none;stroke:#000000;stroke-width:2;"/>
    <path clip-path="url(#pea8651dab8)" d="M 109.757142 383.948098 
L 109.757142 342.531638 
" style="fill:none;stroke:#000000;stroke-width:2;"/>
    <path clip-path="url(#pea8651dab8)" d="M 116.188797 363.722818 
L 116.188797 296.617663 
" style="fill:none;stroke:#000000;stroke-width:2;"/>
    <path clip-path="url(#pea8651dab8)" d="M 122.620453 355.143704 
L 122.620453 283.133167 
" style="fill:none;stroke:#000000;stroke-width:2;"/>
    <path clip-path="url(#pea8651dab8)" d="M 129.052108 342.669425 
L 129.052108 254.1162 
" style="fill:none;stroke:#000000;stroke-width:2;"/>
    <path clip-path="url(#pea8651dab8)" d="M 135.483764 336.646545 
L 135.483764 244.65489 
" style="fill:none;stroke:#000000;stroke-width:2;"/>
    <path clip-path="url(#pea8651dab8)" d="M 141.91542 325.071247 
L 141.91542 215.484596 
" style="fill:none;stroke:#000000;stroke-width:2;"/>
    <path clip-path="url(#pea8651dab8)" d="M 148.347075 310.583683 
L 148.347075 180.307722 
" style="fill:none;stroke:#000000;stroke-width:2;"/>
    <path clip-path="url(#pea8651dab8)" d="M 154.778731 296.354567 
L 154.778731 144.140654 
" style="fill:none;stroke:#000000;stroke-width:2;"/>
    <path clip-path="url(#pea8651dab8)" d="M 161.210386 287.833738 
L 161.210386 130.427397 
" style="fill:none;stroke:#000000;stroke-width:2;"/>
    <path clip-path="url(#pea8651dab8)" d="M 167.642042 276.281814 
L 167.642042 97.078577 
" style="fill:none;stroke:#000000;stroke-width:2;"/>
    <path clip-path="url(#pea8651dab8)" d="M 174.073697 273.240507 
L 174.073697 92.177081 
" style="fill:none;stroke:#000000;stroke-width:2;"/>
    <path clip-path="url(#pea8651dab8)" d="M 180.505353 274.70308 
L 180.505353 94.529288 
" style="fill:none;stroke:#000000;stroke-width:2;"/>
    <path clip-path="url(#pea8651dab8)" d="M 186.937008 280.066194 
L 186.937008 103.233091 
" style="fill:none;stroke:#000000;stroke-width:2;"/>
    <path clip-path="url(#pea8651dab8)" d="M 193.368664 290.341879 
L 193.368664 134.431119 
" style="fill:none;stroke:#000000;stroke-width:2;"/>
    <path clip-path="url(#pea8651dab8)" d="M 199.800319 296.431053 
L 199.800319 144.265187 
" style="fill:none;stroke:#000000;stroke-width:2;"/>
    <path clip-path="url(#pea8651dab8)" d="M 206.231975 306.522856 
L 206.231975 173.804647 
" style="fill:none;stroke:#000000;stroke-width:2;"/>
    <path clip-path="url(#pea8651dab8)" d="M 212.66363 313.26993 
L 212.66363 184.649871 
" style="fill:none;stroke:#000000;stroke-width:2;"/>
    <path clip-path="url(#pea8651dab8)" d="M 219.095286 322.076528 
L 219.095286 210.738182 
" style="fill:none;stroke:#000000;stroke-width:2;"/>
    <path clip-path="url(#pea8651dab8)" d="M 225.526941 326.708667 
L 225.526941 218.096919 
" style="fill:none;stroke:#000000;stroke-width:2;"/>
    <path clip-path="url(#pea8651dab8)" d="M 231.958597 330.12656 
L 231.958597 223.589028 
" style="fill:none;stroke:#000000;stroke-width:2;"/>
    <path clip-path="url(#pea8651dab8)" d="M 238.390252 331.160034 
L 238.390252 225.260177 
" style="fill:none;stroke:#000000;stroke-width:2;"/>
    <path clip-path="url(#pea8651dab8)" d="M 244.821908 328.758166 
L 244.821908 221.383812 
" style="fill:none;stroke:#000000;stroke-width:2;"/>
    <path clip-path="url(#pea8651dab8)" d="M 251.253563 324.102161 
L 251.253563 213.944238 
" style="fill:none;stroke:#000000;stroke-width:2;"/>
    <path clip-path="url(#pea8651dab8)" d="M 257.685219 310.90683 
L 257.685219 180.828363 
" style="fill:none;stroke:#000000;stroke-width:2;"/>
    <path clip-path="url(#pea8651dab8)" d="M 264.116874 295.734946 
L 264.116874 143.132747 
" style="fill:none;stroke:#000000;stroke-width:2;"/>
    <path clip-path="url(#pea8651dab8)" d="M 270.54853 281.452613 
L 270.54853 105.5033 
" style="fill:none;stroke:#000000;stroke-width:2;"/>
    <path clip-path="url(#pea8651dab8)" d="M 276.980185 277.244052 
L 276.980185 98.637612 
" style="fill:none;stroke:#000000;stroke-width:2;"/>
    <path clip-path="url(#pea8651dab8)" d="M 283.411841 288.169524 
L 283.411841 130.96183 
" style="fill:none;stroke:#000000;stroke-width:2;"/>
    <path clip-path="url(#pea8651dab8)" d="M 289.843496 301.125688 
L 289.843496 151.958362 
" style="fill:none;stroke:#000000;stroke-width:2;"/>
    <path clip-path="url(#pea8651dab8)" d="M 296.275152 316.983618 
L 296.275152 190.706124 
" style="fill:none;stroke:#000000;stroke-width:2;"/>
    <path clip-path="url(#pea8651dab8)" d="M 302.706807 328.794647 
L 302.706807 221.442492 
" style="fill:none;stroke:#000000;stroke-width:2;"/>
    <path clip-path="url(#pea8651dab8)" d="M 309.138463 335.85993 
L 309.138463 232.921844 
" style="fill:none;stroke:#000000;stroke-width:2;"/>
    <path clip-path="url(#pea8651dab8)" d="M 315.570118 339.860332 
L 315.570118 249.682668 
" style="fill:none;stroke:#000000;stroke-width:2;"/>
    <path clip-path="url(#pea8651dab8)" d="M 322.001774 341.890441 
L 322.001774 252.883101 
" style="fill:none;stroke:#000000;stroke-width:2;"/>
    <path clip-path="url(#pea8651dab8)" d="M 328.433429 342.078993 
L 328.433429 253.181315 
" style="fill:none;stroke:#000000;stroke-width:2;"/>
    <path clip-path="url(#pea8651dab8)" d="M 334.865085 341.349389 
L 334.865085 252.028286 
" style="fill:none;stroke:#000000;stroke-width:2;"/>
    <path clip-path="url(#pea8651dab8)" d="M 341.29674 340.313728 
L 341.29674 250.395795 
" style="fill:none;stroke:#000000;stroke-width:2;"/>
    <path clip-path="url(#pea8651dab8)" d="M 347.728396 340.297174 
L 347.728396 250.369741 
" style="fill:none;stroke:#000000;stroke-width:2;"/>
    <path clip-path="url(#pea8651dab8)" d="M 354.160051 341.384309 
L 354.160051 252.083416 
" style="fill:none;stroke:#000000;stroke-width:2;"/>
    <path clip-path="url(#pea8651dab8)" d="M 360.591707 343.460736 
L 360.591707 255.371684 
" style="fill:none;stroke:#000000;stroke-width:2;"/>
    <path clip-path="url(#pea8651dab8)" d="M 367.023362 347.340176 
L 367.023362 261.568761 
" style="fill:none;stroke:#000000;stroke-width:2;"/>
    <path clip-path="url(#pea8651dab8)" d="M 373.455018 352.550415 
L 373.455018 279.125212 
" style="fill:none;stroke:#000000;stroke-width:2;"/>
    <path clip-path="url(#pea8651dab8)" d="M 379.886673 355.939279 
L 379.886673 284.369049 
" style="fill:none;stroke:#000000;stroke-width:2;"/>
    <path clip-path="url(#pea8651dab8)" d="M 386.318329 357.722828 
L 386.318329 287.150491 
" style="fill:none;stroke:#000000;stroke-width:2;"/>
    <path clip-path="url(#pea8651dab8)" d="M 392.749984 356.487694 
L 392.749984 285.22271 
" style="fill:none;stroke:#000000;stroke-width:2;"/>
    <path clip-path="url(#pea8651dab8)" d="M 399.18164 354.756713 
L 399.18164 282.533071 
" style="fill:none;stroke:#000000;stroke-width:2;"/>
    <path clip-path="url(#pea8651dab8)" d="M 405.613295 353.307981 
L 405.613295 280.292788 
" style="fill:none;stroke:#000000;stroke-width:2;"/>
    <path clip-path="url(#pea8651dab8)" d="M 412.044951 353.915507 
L 412.044951 281.231055 
" style="fill:none;stroke:#000000;stroke-width:2;"/>
    <path clip-path="url(#pea8651dab8)" d="M 418.476606 355.622648 
L 418.476606 283.876825 
" style="fill:none;stroke:#000000;stroke-width:2;"/>
    <path clip-path="url(#pea8651dab8)" d="M 424.908262 358.626231 
L 424.908262 288.565056 
" style="fill:none;stroke:#000000;stroke-width:2;"/>
    <path clip-path="url(#pea8651dab8)" d="M 431.339918 363.024772 
L 431.339918 295.507471 
" style="fill:none;stroke:#000000;stroke-width:2;"/>
    <path clip-path="url(#pea8651dab8)" d="M 437.771573 369.267939 
L 437.771573 313.219189 
" style="fill:none;stroke:#000000;stroke-width:2;"/>
    <path clip-path="url(#pea8651dab8)" d="M 444.203229 374.734925 
L 444.203229 321.616846 
" style="fill:none;stroke:#000000;stroke-width:2;"/>
    <path clip-path="url(#pea8651dab8)" d="M 450.634884 388.151492 
L 450.634884 348.853336 
" style="fill:none;stroke:#000000;stroke-width:2;"/>
    <path clip-path="url(#pea8651dab8)" d="M 457.06654 402.206192 
L 457.06654 375.379735 
" style="fill:none;stroke:#000000;stroke-width:2;"/>
    <path clip-path="url(#pea8651dab8)" d="M 463.498195 411.217945 
L 463.498195 392.910642 
" style="fill:none;stroke:#000000;stroke-width:2;"/>
    <path clip-path="url(#pea8651dab8)" d="M 469.929851 416.990066 
L 469.929851 401.147893 
" style="fill:none;stroke:#000000;stroke-width:2;"/>
    <path clip-path="url(#pea8651dab8)" d="M 476.361506 423.372478 
L 476.361506 410.462067 
" style="fill:none;stroke:#000000;stroke-width:2;"/>
    <path clip-path="url(#pea8651dab8)" d="M 482.793162 421.291743 
L 482.793162 407.401767 
" style="fill:none;stroke:#000000;stroke-width:2;"/>
   </g>
   <g id="line2d_14">
    <path clip-path="url(#pea8651dab8)" d="M 77.598864 418.749001 
L 84.03052 405.150938 
L 90.462175 411.026579 
L 96.893831 403.763754 
L 103.325486 384.999037 
L 109.757142 363.239868 
L 116.188797 330.17024 
L 122.620453 319.138435 
L 129.052108 298.392812 
L 135.483764 290.650718 
L 141.91542 270.277922 
L 148.347075 245.445703 
L 154.778731 220.247611 
L 161.210386 209.130568 
L 167.642042 186.680195 
L 174.073697 182.708794 
L 180.505353 184.616184 
L 186.937008 191.649642 
L 193.368664 212.386499 
L 199.800319 220.34812 
L 206.231975 240.163751 
L 212.66363 248.9599 
L 219.095286 266.407355 
L 225.526941 272.402793 
L 231.958597 276.857794 
L 238.390252 278.210106 
L 244.821908 275.070989 
L 251.253563 269.0232 
L 257.685219 245.867596 
L 264.116874 219.433846 
L 270.54853 193.477956 
L 276.980185 187.940832 
L 283.411841 209.565677 
L 289.843496 226.542025 
L 296.275152 253.844871 
L 302.706807 275.11857 
L 309.138463 284.390887 
L 315.570118 294.7715 
L 322.001774 297.386771 
L 328.433429 297.630154 
L 334.865085 296.688837 
L 341.29674 295.354762 
L 347.728396 295.333457 
L 354.160051 296.733862 
L 360.591707 299.41621 
L 367.023362 304.454469 
L 373.455018 315.837814 
L 379.886673 320.154164 
L 386.318329 322.43666 
L 392.749984 320.855202 
L 399.18164 318.644892 
L 405.613295 316.800385 
L 412.044951 317.573281 
L 418.476606 319.749737 
L 424.908262 323.595644 
L 431.339918 329.266121 
L 437.771573 341.243564 
L 444.203229 348.175885 
L 450.634884 368.502414 
L 457.06654 388.792964 
L 463.498195 402.064293 
L 469.929851 409.068979 
L 476.361506 416.917272 
L 482.793162 414.346755 
" style="fill:none;stroke:#000000;stroke-linecap:square;stroke-width:2;"/>
   </g>
   <g id="patch_3">
    <path d="M 57.33915 440.295773 
L 57.33915 75.6 
" style="fill:none;stroke:#000000;stroke-linecap:square;stroke-linejoin:miter;stroke-width:0.8;"/>
   </g>
   <g id="patch_4">
    <path d="M 503.052876 440.295773 
L 503.052876 75.6 
" style="fill:none;stroke:#000000;stroke-linecap:square;stroke-linejoin:miter;stroke-width:0.8;"/>
   </g>
   <g id="patch_5">
    <path d="M 57.33915 440.295773 
L 503.052876 440.295773 
" style="fill:none;stroke:#000000;stroke-linecap:square;stroke-linejoin:miter;stroke-width:0.8;"/>
   </g>
   <g id="patch_6">
    <path d="M 57.33915 75.6 
L 503.052876 75.6 
" style="fill:none;stroke:#000000;stroke-linecap:square;stroke-linejoin:miter;stroke-width:0.8;"/>
   </g>
  </g>
  <g id="axes_2">
   <g id="matplotlib.axis_3">
    <g id="ytick_7">
     <g id="line2d_15">
      <defs>
       <path d="M 0 0 
L 3.5 0 
" id="m947761f1ab" style="stroke:#000000;stroke-width:0.8;"/>
      </defs>
      <g>
       <use style="stroke:#000000;stroke-width:0.8;" x="503.052876" xlink:href="#m947761f1ab" y="384.108008"/>
      </g>
     </g>
     <g id="text_16">
      <!-- $\mathdefault{50}$ -->
      <g transform="translate(510.052876 389.642802)scale(0.16 -0.16)">
       <use transform="scale(0.996264)" xlink:href="#CMR17-53"/>
       <use transform="translate(45.690477 0)scale(0.996264)" xlink:href="#CMR17-48"/>
      </g>
     </g>
    </g>
    <g id="ytick_8">
     <g id="line2d_16">
      <g>
       <use style="stroke:#000000;stroke-width:0.8;" x="503.052876" xlink:href="#m947761f1ab" y="323.184028"/>
      </g>
     </g>
     <g id="text_17">
      <!-- $\mathdefault{100}$ -->
      <g transform="translate(510.052876 328.718822)scale(0.16 -0.16)">
       <use transform="scale(0.996264)" xlink:href="#CMR17-49"/>
       <use transform="translate(45.690477 0)scale(0.996264)" xlink:href="#CMR17-48"/>
       <use transform="translate(91.380954 0)scale(0.996264)" xlink:href="#CMR17-48"/>
      </g>
     </g>
    </g>
    <g id="ytick_9">
     <g id="line2d_17">
      <g>
       <use style="stroke:#000000;stroke-width:0.8;" x="503.052876" xlink:href="#m947761f1ab" y="262.260048"/>
      </g>
     </g>
     <g id="text_18">
      <!-- $\mathdefault{150}$ -->
      <g transform="translate(510.052876 267.794842)scale(0.16 -0.16)">
       <use transform="scale(0.996264)" xlink:href="#CMR17-49"/>
       <use transform="translate(45.690477 0)scale(0.996264)" xlink:href="#CMR17-53"/>
       <use transform="translate(91.380954 0)scale(0.996264)" xlink:href="#CMR17-48"/>
      </g>
     </g>
    </g>
    <g id="ytick_10">
     <g id="line2d_18">
      <g>
       <use style="stroke:#000000;stroke-width:0.8;" x="503.052876" xlink:href="#m947761f1ab" y="201.336067"/>
      </g>
     </g>
     <g id="text_19">
      <!-- $\mathdefault{200}$ -->
      <g transform="translate(510.052876 206.870862)scale(0.16 -0.16)">
       <use transform="scale(0.996264)" xlink:href="#CMR17-50"/>
       <use transform="translate(45.690477 0)scale(0.996264)" xlink:href="#CMR17-48"/>
       <use transform="translate(91.380954 0)scale(0.996264)" xlink:href="#CMR17-48"/>
      </g>
     </g>
    </g>
    <g id="ytick_11">
     <g id="line2d_19">
      <g>
       <use style="stroke:#000000;stroke-width:0.8;" x="503.052876" xlink:href="#m947761f1ab" y="140.412087"/>
      </g>
     </g>
     <g id="text_20">
      <!-- $\mathdefault{250}$ -->
      <g transform="translate(510.052876 145.946881)scale(0.16 -0.16)">
       <use transform="scale(0.996264)" xlink:href="#CMR17-50"/>
       <use transform="translate(45.690477 0)scale(0.996264)" xlink:href="#CMR17-53"/>
       <use transform="translate(91.380954 0)scale(0.996264)" xlink:href="#CMR17-48"/>
      </g>
     </g>
    </g>
    <g id="ytick_12">
     <g id="line2d_20">
      <g>
       <use style="stroke:#000000;stroke-width:0.8;" x="503.052876" xlink:href="#m947761f1ab" y="79.488107"/>
      </g>
     </g>
     <g id="text_21">
      <!-- $\mathdefault{300}$ -->
      <g transform="translate(510.052876 85.022901)scale(0.16 -0.16)">
       <use transform="scale(0.996264)" xlink:href="#CMR17-51"/>
       <use transform="translate(45.690477 0)scale(0.996264)" xlink:href="#CMR17-48"/>
       <use transform="translate(91.380954 0)scale(0.996264)" xlink:href="#CMR17-48"/>
      </g>
     </g>
    </g>
    <g id="text_22">
     <!-- $N_{\rm ind}$ -->
     <g style="fill:#0000ff;" transform="translate(554.069243 278.702454)rotate(-90)scale(0.24 -0.24)">
      <defs>
       <path d="M 74 57.78125 
C 75.09375 62.09375 76.703125 65.09375 84.296875 65.09375 
C 84.59375 65.09375 85.796875 65.09375 85.796875 66.859375 
C 85.796875 68 84.90625 68 84.5 68 
C 82.5 68 77.40625 68 75.40625 68 
L 70.59375 68 
C 69.203125 68 67.40625 68 66 68 
C 65.40625 68 64.203125 68 64.203125 66.09375 
C 64.203125 65.09375 65 65.09375 65.703125 65.09375 
C 71.703125 65.09375 72.09375 62.796875 72.09375 60.984375 
C 72.09375 60.09375 72 59.78125 71.703125 58.390625 
L 60.40625 13.28125 
L 39 66.390625 
C 38.296875 68 38.203125 68 36 68 
L 23.796875 68 
C 21.796875 68 20.90625 68 20.90625 66.09375 
C 20.90625 65.09375 21.59375 65.09375 23.5 65.09375 
C 24 65.09375 29.90625 65.09375 29.90625 64.296875 
C 29.90625 64.09375 29.703125 63.296875 29.59375 63 
L 16.296875 9.921875 
C 15.09375 5 12.703125 2.90625 6.09375 2.90625 
C 5.59375 2.90625 4.59375 2.90625 4.59375 1.046875 
C 4.59375 0 5.59375 0 5.90625 0 
C 7.90625 0 13 0 15 0 
L 19.796875 0 
C 21.203125 0 22.90625 0 24.296875 0 
C 25 0 26.09375 0 26.09375 1.90625 
C 26.09375 2.8125 25.09375 2.90625 24.703125 2.90625 
C 21.40625 2.90625 18.203125 3.5 18.203125 7.09375 
C 18.203125 7.890625 18.40625 8.78125 18.59375 9.578125 
L 32.09375 63 
C 32.703125 62 32.703125 61.8125 33.09375 60.90625 
L 56.90625 1.796875 
C 57.40625 0.59375 57.59375 0 58.5 0 
C 59.5 0 59.59375 0.296875 60 2 
z
" id="CMMI12-78"/>
       <path d="M 29.203125 67.59375 
L 29.203125 65 
C 35.09375 65 36 64.40625 36 59.6875 
L 36 36.640625 
C 35.59375 37.140625 31.5 43.59375 23.40625 43.59375 
C 13.203125 43.59375 3.296875 34.5 3.296875 21.3125 
C 3.296875 8.203125 12.59375 -1 22.40625 -1 
C 30.90625 -1 35.296875 5.265625 35.796875 5.9375 
L 35.796875 -0.984375 
L 47.90625 -0.984375 
L 47.90625 2 
C 42 2 41.09375 2.59375 41.09375 7.390625 
L 41.09375 68.6875 
z
M 35.796875 11.796875 
C 35.796875 8.796875 34 6.09375 31.703125 4.09375 
C 28.296875 1.09375 24.90625 0.59375 23 0.59375 
C 20.09375 0.59375 9.703125 2.09375 9.703125 21.1875 
C 9.703125 40.8125 21.296875 42 23.90625 42 
C 28.5 42 32.203125 39.40625 34.5 35.796875 
C 35.796875 33.703125 35.796875 33.40625 35.796875 31.609375 
z
" id="CMR17-100"/>
      </defs>
      <use transform="scale(0.996264)" xlink:href="#CMMI12-78"/>
      <use transform="translate(78.115119 -14.943915)scale(0.697382)" xlink:href="#CMR17-105"/>
      <use transform="translate(95.524778 -14.943915)scale(0.697382)" xlink:href="#CMR17-110"/>
      <use transform="translate(131.151386 -14.943915)scale(0.697382)" xlink:href="#CMR17-100"/>
     </g>
    </g>
   </g>
   <g id="LineCollection_2">
    <path clip-path="url(#pea8651dab8)" d="M 77.598864 196.882811 
L 77.598864 92.177081 
" style="fill:none;stroke:#0000ff;stroke-width:2;"/>
    <path clip-path="url(#pea8651dab8)" d="M 84.03052 283.175754 
L 84.03052 199.895559 
" style="fill:none;stroke:#0000ff;stroke-width:2;"/>
    <path clip-path="url(#pea8651dab8)" d="M 90.462175 257.895459 
L 90.462175 159.204368 
" style="fill:none;stroke:#0000ff;stroke-width:2;"/>
    <path clip-path="url(#pea8651dab8)" d="M 96.893831 288.145642 
L 96.893831 207.901113 
" style="fill:none;stroke:#0000ff;stroke-width:2;"/>
    <path clip-path="url(#pea8651dab8)" d="M 103.325486 338.630373 
L 103.325486 276.140467 
" style="fill:none;stroke:#0000ff;stroke-width:2;"/>
    <path clip-path="url(#pea8651dab8)" d="M 109.757142 368.16298 
L 109.757142 317.889605 
" style="fill:none;stroke:#0000ff;stroke-width:2;"/>
    <path clip-path="url(#pea8651dab8)" d="M 116.188797 392.805222 
L 116.188797 350.859008 
" style="fill:none;stroke:#0000ff;stroke-width:2;"/>
    <path clip-path="url(#pea8651dab8)" d="M 122.620453 396.93195 
L 122.620453 359.336466 
" style="fill:none;stroke:#0000ff;stroke-width:2;"/>
    <path clip-path="url(#pea8651dab8)" d="M 129.052108 404.578719 
L 129.052108 370.333148 
" style="fill:none;stroke:#0000ff;stroke-width:2;"/>
    <path clip-path="url(#pea8651dab8)" d="M 135.483764 406.374563 
L 135.483764 374.229398 
" style="fill:none;stroke:#0000ff;stroke-width:2;"/>
    <path clip-path="url(#pea8651dab8)" d="M 141.91542 411.594278 
L 141.91542 381.608819 
" style="fill:none;stroke:#0000ff;stroke-width:2;"/>
    <path clip-path="url(#pea8651dab8)" d="M 148.347075 416.267502 
L 148.347075 388.852964 
" style="fill:none;stroke:#0000ff;stroke-width:2;"/>
    <path clip-path="url(#pea8651dab8)" d="M 154.778731 419.93188 
L 154.778731 394.616599 
" style="fill:none;stroke:#0000ff;stroke-width:2;"/>
    <path clip-path="url(#pea8651dab8)" d="M 161.210386 420.932717 
L 161.210386 397.140976 
" style="fill:none;stroke:#0000ff;stroke-width:2;"/>
    <path clip-path="url(#pea8651dab8)" d="M 167.642042 423.448019 
L 167.642042 400.82768 
" style="fill:none;stroke:#0000ff;stroke-width:2;"/>
    <path clip-path="url(#pea8651dab8)" d="M 174.073697 423.718692 
L 174.073697 401.544555 
" style="fill:none;stroke:#0000ff;stroke-width:2;"/>
    <path clip-path="url(#pea8651dab8)" d="M 180.505353 423.589747 
L 180.505353 401.202926 
" style="fill:none;stroke:#0000ff;stroke-width:2;"/>
    <path clip-path="url(#pea8651dab8)" d="M 186.937008 423.097106 
L 186.937008 399.899643 
" style="fill:none;stroke:#0000ff;stroke-width:2;"/>
    <path clip-path="url(#pea8651dab8)" d="M 193.368664 420.649661 
L 193.368664 396.42613 
" style="fill:none;stroke:#0000ff;stroke-width:2;"/>
    <path clip-path="url(#pea8651dab8)" d="M 199.800319 419.922372 
L 199.800319 394.592659 
" style="fill:none;stroke:#0000ff;stroke-width:2;"/>
    <path clip-path="url(#pea8651dab8)" d="M 206.231975 416.904448 
L 206.231975 390.382333 
" style="fill:none;stroke:#0000ff;stroke-width:2;"/>
    <path clip-path="url(#pea8651dab8)" d="M 212.66363 415.824529 
L 212.66363 387.790713 
" style="fill:none;stroke:#0000ff;stroke-width:2;"/>
    <path clip-path="url(#pea8651dab8)" d="M 219.095286 412.225372 
L 219.095286 383.050551 
" style="fill:none;stroke:#0000ff;stroke-width:2;"/>
    <path clip-path="url(#pea8651dab8)" d="M 225.526941 411.235727 
L 225.526941 380.790412 
" style="fill:none;stroke:#0000ff;stroke-width:2;"/>
    <path clip-path="url(#pea8651dab8)" d="M 231.958597 410.45447 
L 231.958597 379.008786 
" style="fill:none;stroke:#0000ff;stroke-width:2;"/>
    <path clip-path="url(#pea8651dab8)" d="M 238.390252 410.209041 
L 238.390252 378.449531 
" style="fill:none;stroke:#0000ff;stroke-width:2;"/>
    <path clip-path="url(#pea8651dab8)" d="M 244.821908 410.77275 
L 244.821908 379.734351 
" style="fill:none;stroke:#0000ff;stroke-width:2;"/>
    <path clip-path="url(#pea8651dab8)" d="M 251.253563 411.801916 
L 251.253563 382.08299 
" style="fill:none;stroke:#0000ff;stroke-width:2;"/>
    <path clip-path="url(#pea8651dab8)" d="M 257.685219 416.215154 
L 257.685219 388.727378 
" style="fill:none;stroke:#0000ff;stroke-width:2;"/>
    <path clip-path="url(#pea8651dab8)" d="M 264.116874 420.00854 
L 264.116874 394.809653 
" style="fill:none;stroke:#0000ff;stroke-width:2;"/>
    <path clip-path="url(#pea8651dab8)" d="M 270.54853 422.964441 
L 270.54853 399.549167 
" style="fill:none;stroke:#0000ff;stroke-width:2;"/>
    <path clip-path="url(#pea8651dab8)" d="M 276.980185 423.360311 
L 276.980185 400.595587 
" style="fill:none;stroke:#0000ff;stroke-width:2;"/>
    <path clip-path="url(#pea8651dab8)" d="M 283.411841 420.895351 
L 283.411841 397.046568 
" style="fill:none;stroke:#0000ff;stroke-width:2;"/>
    <path clip-path="url(#pea8651dab8)" d="M 289.843496 419.319363 
L 289.843496 393.075715 
" style="fill:none;stroke:#0000ff;stroke-width:2;"/>
    <path clip-path="url(#pea8651dab8)" d="M 296.275152 415.181491 
L 296.275152 386.250532 
" style="fill:none;stroke:#0000ff;stroke-width:2;"/>
    <path clip-path="url(#pea8651dab8)" d="M 302.706807 410.764361 
L 302.706807 379.715224 
" style="fill:none;stroke:#0000ff;stroke-width:2;"/>
    <path clip-path="url(#pea8651dab8)" d="M 309.138463 409.034625 
L 309.138463 375.776023 
" style="fill:none;stroke:#0000ff;stroke-width:2;"/>
    <path clip-path="url(#pea8651dab8)" d="M 315.570118 405.441738 
L 315.570118 372.204509 
" style="fill:none;stroke:#0000ff;stroke-width:2;"/>
    <path clip-path="url(#pea8651dab8)" d="M 322.001774 404.822717 
L 322.001774 370.862046 
" style="fill:none;stroke:#0000ff;stroke-width:2;"/>
    <path clip-path="url(#pea8651dab8)" d="M 328.433429 404.763993 
L 328.433429 370.734742 
" style="fill:none;stroke:#0000ff;stroke-width:2;"/>
    <path clip-path="url(#pea8651dab8)" d="M 334.865085 404.990047 
L 334.865085 371.224839 
" style="fill:none;stroke:#0000ff;stroke-width:2;"/>
    <path clip-path="url(#pea8651dab8)" d="M 341.29674 405.305556 
L 341.29674 371.909089 
" style="fill:none;stroke:#0000ff;stroke-width:2;"/>
    <path clip-path="url(#pea8651dab8)" d="M 347.728396 405.310549 
L 347.728396 371.919919 
" style="fill:none;stroke:#0000ff;stroke-width:2;"/>
    <path clip-path="url(#pea8651dab8)" d="M 354.160051 404.9793 
L 354.160051 371.201536 
" style="fill:none;stroke:#0000ff;stroke-width:2;"/>
    <path clip-path="url(#pea8651dab8)" d="M 360.591707 404.327058 
L 360.591707 369.787787 
" style="fill:none;stroke:#0000ff;stroke-width:2;"/>
    <path clip-path="url(#pea8651dab8)" d="M 367.023362 403.034834 
L 367.023362 366.989682 
" style="fill:none;stroke:#0000ff;stroke-width:2;"/>
    <path clip-path="url(#pea8651dab8)" d="M 373.455018 398.030611 
L 373.455018 361.597657 
" style="fill:none;stroke:#0000ff;stroke-width:2;"/>
    <path clip-path="url(#pea8651dab8)" d="M 379.886673 396.582234 
L 379.886673 358.617118 
" style="fill:none;stroke:#0000ff;stroke-width:2;"/>
    <path clip-path="url(#pea8651dab8)" d="M 386.318329 395.775374 
L 386.318329 356.95816 
" style="fill:none;stroke:#0000ff;stroke-width:2;"/>
    <path clip-path="url(#pea8651dab8)" d="M 392.749984 396.337552 
L 392.749984 358.113931 
" style="fill:none;stroke:#0000ff;stroke-width:2;"/>
    <path clip-path="url(#pea8651dab8)" d="M 399.18164 397.099861 
L 399.18164 359.681919 
" style="fill:none;stroke:#0000ff;stroke-width:2;"/>
    <path clip-path="url(#pea8651dab8)" d="M 405.613295 397.716015 
L 405.613295 360.949967 
" style="fill:none;stroke:#0000ff;stroke-width:2;"/>
    <path clip-path="url(#pea8651dab8)" d="M 412.044951 397.459988 
L 412.044951 360.422987 
" style="fill:none;stroke:#0000ff;stroke-width:2;"/>
    <path clip-path="url(#pea8651dab8)" d="M 418.476606 396.722154 
L 418.476606 358.904902 
" style="fill:none;stroke:#0000ff;stroke-width:2;"/>
    <path clip-path="url(#pea8651dab8)" d="M 424.908262 395.35415 
L 424.908262 356.092474 
" style="fill:none;stroke:#0000ff;stroke-width:2;"/>
    <path clip-path="url(#pea8651dab8)" d="M 431.339918 393.172748 
L 431.339918 351.613119 
" style="fill:none;stroke:#0000ff;stroke-width:2;"/>
    <path clip-path="url(#pea8651dab8)" d="M 437.771573 385.55497 
L 437.771573 342.820055 
" style="fill:none;stroke:#0000ff;stroke-width:2;"/>
    <path clip-path="url(#pea8651dab8)" d="M 444.203229 381.714591 
L 444.203229 335.349706 
" style="fill:none;stroke:#0000ff;stroke-width:2;"/>
    <path clip-path="url(#pea8651dab8)" d="M 450.634884 363.355913 
L 450.634884 309.067267 
" style="fill:none;stroke:#0000ff;stroke-width:2;"/>
    <path clip-path="url(#pea8651dab8)" d="M 457.06654 332.074137 
L 457.06654 264.837417 
" style="fill:none;stroke:#0000ff;stroke-width:2;"/>
    <path clip-path="url(#pea8651dab8)" d="M 463.498195 293.817444 
L 463.498195 217.040427 
" style="fill:none;stroke:#0000ff;stroke-width:2;"/>
    <path clip-path="url(#pea8651dab8)" d="M 469.929851 267.183867 
L 469.929851 174.149876 
" style="fill:none;stroke:#0000ff;stroke-width:2;"/>
    <path clip-path="url(#pea8651dab8)" d="M 476.361506 222.705052 
L 476.361506 102.618667 
" style="fill:none;stroke:#0000ff;stroke-width:2;"/>
    <path clip-path="url(#pea8651dab8)" d="M 482.793162 239.611831 
L 482.793162 129.798286 
" style="fill:none;stroke:#0000ff;stroke-width:2;"/>
   </g>
   <g id="line2d_21">
    <path clip-path="url(#pea8651dab8)" d="M 77.598864 144.529946 
L 84.03052 241.535656 
L 90.462175 208.549914 
L 96.893831 248.023378 
L 103.325486 307.38542 
L 109.757142 343.026292 
L 116.188797 371.832115 
L 122.620453 378.134208 
L 129.052108 387.455933 
L 135.483764 390.301981 
L 141.91542 396.601549 
L 148.347075 402.560233 
L 154.778731 407.274239 
L 161.210386 409.036846 
L 167.642042 412.137849 
L 174.073697 412.631623 
L 180.505353 412.396336 
L 186.937008 411.498375 
L 193.368664 408.537895 
L 199.800319 407.257516 
L 206.231975 403.64339 
L 212.66363 401.807621 
L 219.095286 397.637962 
L 225.526941 396.01307 
L 231.958597 394.731628 
L 238.390252 394.329286 
L 244.821908 395.25355 
L 251.253563 396.942453 
L 257.685219 402.471266 
L 264.116874 407.409096 
L 270.54853 411.256804 
L 276.980185 411.977949 
L 283.411841 408.97096 
L 289.843496 406.197539 
L 296.275152 400.716012 
L 302.706807 395.239792 
L 309.138463 392.405324 
L 315.570118 388.823124 
L 322.001774 387.842381 
L 328.433429 387.749368 
L 334.865085 388.107443 
L 341.29674 388.607323 
L 347.728396 388.615234 
L 354.160051 388.090418 
L 360.591707 387.057423 
L 367.023362 385.012258 
L 373.455018 379.814134 
L 379.886673 377.599676 
L 386.318329 376.366767 
L 392.749984 377.225741 
L 399.18164 378.39089 
L 405.613295 379.332991 
L 412.044951 378.941488 
L 418.476606 377.813528 
L 424.908262 375.723312 
L 431.339918 372.392933 
L 437.771573 364.187512 
L 444.203229 358.532148 
L 450.634884 336.21159 
L 457.06654 298.455777 
L 463.498195 255.428935 
L 469.929851 220.666871 
L 476.361506 162.66186 
L 482.793162 184.705058 
" style="fill:none;stroke:#0000ff;stroke-linecap:square;stroke-width:2;"/>
   </g>
   <g id="patch_7">
    <path d="M 57.33915 440.295773 
L 57.33915 75.6 
" style="fill:none;stroke:#000000;stroke-linecap:square;stroke-linejoin:miter;stroke-width:0.8;"/>
   </g>
   <g id="patch_8">
    <path d="M 503.052876 440.295773 
L 503.052876 75.6 
" style="fill:none;stroke:#000000;stroke-linecap:square;stroke-linejoin:miter;stroke-width:0.8;"/>
   </g>
   <g id="patch_9">
    <path d="M 57.33915 440.295773 
L 503.052876 440.295773 
" style="fill:none;stroke:#000000;stroke-linecap:square;stroke-linejoin:miter;stroke-width:0.8;"/>
   </g>
   <g id="patch_10">
    <path d="M 57.33915 75.6 
L 503.052876 75.6 
" style="fill:none;stroke:#000000;stroke-linecap:square;stroke-linejoin:miter;stroke-width:0.8;"/>
   </g>
   <g id="text_23">
    <!-- L32 beta12p0 kappa0p1475 Buchoff pion -->
    <g transform="translate(85.454576 69.6)scale(0.24 -0.24)">
     <defs>
      <path d="M 54.203125 25.234375 
L 52.40625 25.234375 
C 51.59375 15.359375 50.296875 2.59375 33.203125 2.59375 
L 23.90625 2.59375 
C 19.90625 2.59375 19.703125 3.078125 19.703125 6.46875 
L 19.703125 60.90625 
C 19.703125 64.515625 19.90625 65.5 27.5 65.5 
L 29.703125 65.5 
L 29.703125 68 
C 25.59375 68 20.796875 68 16.703125 68 
C 13.59375 68 8 68 5.09375 68 
L 5.09375 65.5 
C 12 65.5 13.09375 65.5 13.09375 61.015625 
L 13.09375 7.0625 
C 13.09375 2.59375 12 2.59375 5.09375 2.59375 
L 5.09375 0 
L 51.796875 0 
z
" id="CMR17-76"/>
      <path d="M 15 68.6875 
L 3.09375 67.59375 
L 3.09375 65 
C 9 65 9.90625 64.40625 9.90625 59.640625 
L 9.90625 -0.203125 
L 11.703125 -0.203125 
L 14.59375 6.890625 
C 17.5 2.203125 21.796875 -1 27.59375 -1 
C 37.59375 -1 47.703125 7.8125 47.703125 21.40625 
C 47.703125 34.1875 38.703125 43.59375 28.59375 43.59375 
C 22.40625 43.59375 18 40.296875 15 36.40625 
z
M 15.203125 31.3125 
C 15.203125 33.09375 15.203125 33.40625 16.59375 35.5 
C 20.5 41.515625 26.09375 42 28 42 
C 31 42 41.296875 40.390625 41.296875 21.5 
C 41.296875 1.6875 29.5 0.59375 27.09375 0.59375 
C 24 0.59375 19.5 1.78125 16.296875 7.59375 
C 15.203125 9.5 15.203125 9.703125 15.203125 11.484375 
z
" id="CMR17-98"/>
      <path d="M 38.09375 23 
C 38.5 23.40625 38.5 23.609375 38.5 24.625 
C 38.5 34.96875 33.09375 44 21.703125 44 
C 11.09375 44 2.703125 33.890625 2.703125 21.609375 
C 2.703125 8.609375 12.203125 -1 22.796875 -1 
C 34 -1 38.40625 9.484375 38.40625 11.5625 
C 38.40625 12.25 37.796875 12.25 37.59375 12.25 
C 36.90625 12.25 36.796875 12.046875 36.40625 10.875 
C 34.203125 4.140625 28.703125 0.796875 23.5 0.796875 
C 19.203125 0.796875 14.90625 3.171875 12.203125 7.5 
C 9.09375 12.546875 9.09375 18.375 9.09375 23 
z
M 9.203125 24.5 
C 9.90625 39.140625 17.59375 42.40625 21.59375 42.40625 
C 28.40625 42.40625 33 35.890625 33.09375 24.5 
z
" id="CMR17-101"/>
      <path d="M 36 25.828125 
C 36 32.375 36 35.84375 31.796875 39.734375 
C 28.09375 43 23.796875 44 20.40625 44 
C 12.5 44 6.796875 37.609375 6.796875 30.796875 
C 6.796875 27 9.796875 27 10.40625 27 
C 11.703125 27 14 27.78125 14 30.53125 
C 14 33 12.09375 34.078125 10.40625 34.078125 
C 10 34.078125 9.5 33.96875 9.203125 33.875 
C 11.296875 40.5 16.703125 42.40625 20.203125 42.40625 
C 25.203125 42.40625 30.703125 37.953125 30.703125 29.453125 
L 30.703125 25 
C 24.796875 25 17.703125 24.203125 12.09375 21.203125 
C 5.796875 17.703125 4 12.703125 4 8.90625 
C 4 1.203125 13 -1 18.296875 -1 
C 23.796875 -1 28.90625 2.171875 31.09375 7.984375 
C 31.296875 3.640625 34.09375 -0.28125 38.5 -0.28125 
C 40.59375 -0.28125 45.90625 1.09375 45.90625 8.859375 
L 45.90625 14.375 
L 44.09375 14.375 
L 44.09375 8.78125 
C 44.09375 2.78125 41.40625 2 40.09375 2 
C 36 2 36 7.15625 36 11.53125 
z
M 30.703125 13.59375 
C 30.703125 4.953125 24.5 0.59375 19 0.59375 
C 14 0.59375 10.09375 4.296875 10.09375 8.90625 
C 10.09375 11.890625 11.40625 17.1875 17.203125 20.390625 
C 22 23.09375 27.5 23.5 30.703125 23.5 
z
" id="CMR17-97"/>
      <path d="M 22 -16.609375 
C 15.59375 -16.609375 15.203125 -16.203125 15.203125 -12.328125 
L 15.203125 6.28125 
C 18.09375 2.09375 22.296875 -0.59375 27.59375 -0.59375 
C 37.59375 -0.59375 47.703125 8.171875 47.703125 21.6875 
C 47.703125 34.234375 39 43.78125 28.703125 43.78125 
C 22.703125 43.78125 17.796875 40.5 15 36.53125 
L 15 43.78125 
L 3.09375 42.6875 
L 3.09375 40.109375 
C 9 40.109375 9.90625 39.5 9.90625 34.734375 
L 9.90625 -12.328125 
C 9.90625 -16.109375 9.5 -16.609375 3.09375 -16.609375 
L 3.09375 -19.1875 
C 5.5 -19 9.90625 -19 12.5 -19 
C 15.09375 -19 19.59375 -19 22 -19.1875 
z
M 15.203125 31.4375 
C 15.203125 32.84375 15.203125 34.921875 19.09375 38.609375 
C 19.59375 39.015625 23 42 28 42 
C 35.296875 42 41.296875 32.9375 41.296875 21.59375 
C 41.296875 10.25 34.90625 1 27 1 
C 23.40625 1 19.5 2.6875 16.5 7.375 
C 15.203125 9.5625 15.203125 10.15625 15.203125 11.75 
z
" id="CMR17-112"/>
      <path d="M 26.09375 26.140625 
C 26 26.34375 25.5 26.9375 25.5 27.234375 
C 25.5 27.4375 32.59375 33.921875 33.5 34.71875 
C 39.203125 39.5 42.796875 40 45.40625 40 
L 45.40625 42.703125 
C 44.796875 42.703125 44.59375 42.703125 44.5 42.5 
L 39.59375 42.5 
C 36.796875 42.5 32.5 42.5 29.796875 42.703125 
L 29.796875 40.09375 
C 31.203125 39.984375 32.203125 39.1875 32.203125 37.796875 
C 32.203125 35.796875 30.203125 33.90625 30.09375 33.90625 
L 15 20.140625 
L 15 68.6875 
L 3.09375 67.59375 
L 3.09375 65 
C 9 65 9.90625 64.40625 9.90625 59.640625 
L 9.90625 6.65625 
C 9.90625 2.875 9.5 2.390625 3.09375 2.390625 
L 3.09375 -0.203125 
C 5.5 0 9.90625 0 12.40625 0 
C 14.90625 0 19.296875 0 21.703125 -0.203125 
L 21.703125 2.390625 
C 15.296875 2.390625 14.90625 2.78125 14.90625 6.6875 
L 14.90625 17.65625 
L 21.796875 23.9375 
L 31.90625 8.96875 
C 33.09375 7.171875 34.09375 5.765625 34.09375 4.46875 
C 34.09375 2.6875 32.296875 2.390625 31.09375 2.390625 
L 31.09375 -0.203125 
C 33.5 0 37.796875 0 40.296875 0 
C 42.09375 0 45.796875 0 47.5 0 
L 47.5 2.390625 
C 42.796875 2.390625 41.703125 3.28125 38.703125 7.671875 
z
" id="CMR17-107"/>
      <path d="M 45.09375 61.578125 
L 45.09375 63.765625 
L 21.59375 63.765625 
C 9.90625 63.765625 9.703125 65.078125 9.296875 67 
L 7.5 67 
L 4.59375 48.34375 
L 6.40625 48.34375 
C 6.703125 50.234375 7.40625 55.3125 8.59375 57.203125 
C 9.203125 58 16.59375 58 18.296875 58 
L 40.296875 58 
L 29.203125 41.578125 
C 21.796875 30.53125 16.703125 15.609375 16.703125 2.578125 
C 16.703125 1.390625 16.703125 -2 20.296875 -2 
C 23.90625 -2 23.90625 1.390625 23.90625 2.671875 
L 23.90625 7.265625 
C 23.90625 23.5625 26.703125 34.3125 31.296875 41.1875 
z
" id="CMR17-55"/>
      <path d="M 5.203125 68 
L 5.203125 65.40625 
C 12.09375 65.40625 13.203125 65.40625 13.203125 60.9375 
L 13.203125 7.0625 
C 13.203125 2.59375 12.09375 2.59375 5.203125 2.59375 
L 5.203125 0 
L 39.59375 0 
C 52.40625 0 60.703125 9.109375 60.703125 18.1875 
C 60.703125 27.203125 52.5 34.890625 41.796875 34.890625 
C 51.40625 36.8125 58.09375 43.296875 58.09375 51 
C 58.09375 59.40625 49.90625 68 37 68 
z
M 19.5 36 
L 19.5 61.515625 
C 19.5 64.921875 19.703125 65.40625 23.703125 65.40625 
L 36.5 65.40625 
C 46.40625 65.40625 50.796875 57.40625 50.796875 51.203125 
C 50.796875 43.609375 44.703125 36 33.90625 36 
z
M 23.703125 2.59375 
C 19.703125 2.59375 19.5 3.078125 19.5 6.453125 
L 19.5 34.40625 
L 38 34.40625 
C 48.296875 34.40625 53.296875 25.390625 53.296875 18.15625 
C 53.296875 10.921875 47.59375 2.59375 36.703125 2.59375 
z
" id="CMR17-66"/>
      <path d="M 29.40625 42.078125 
L 29.40625 39.5 
C 35.296875 39.5 36.203125 38.890625 36.203125 34.15625 
L 36.203125 16.125 
C 36.203125 7.8125 31.703125 0.59375 24.296875 0.59375 
C 16.09375 0.59375 15.40625 5.4375 15.40625 10.59375 
L 15.40625 43.171875 
L 3.296875 42.078125 
L 3.296875 39.5 
C 7.296875 39.5 10 39.5 10.09375 35.53125 
L 10.09375 16.53125 
C 10.09375 9.890625 10.09375 5.640625 12.703125 2.859375 
C 14 1.578125 16.5 -1 23.703125 -1 
C 32.203125 -1 35.5 5.890625 36.296875 7.90625 
L 36.40625 7.90625 
L 36.40625 -0.984375 
L 48.296875 -0.984375 
L 48.296875 2 
C 42.40625 2 41.5 2.59375 41.5 7.390625 
L 41.5 43.171875 
z
" id="CMR17-117"/>
      <path d="M 34.90625 35 
C 33 35 30.203125 35 30.203125 31.515625 
C 30.203125 28.71875 32.5 27.921875 33.796875 27.921875 
C 34.5 27.921875 37.40625 28.234375 37.40625 31.625 
C 37.40625 38.546875 30.59375 43.796875 22.90625 43.796875 
C 12.296875 43.796875 3.296875 34.03125 3.296875 21.296875 
C 3.296875 8.0625 12.703125 -1 22.90625 -1 
C 35.296875 -1 38.40625 10.578125 38.40625 11.6875 
C 38.40625 12.09375 38.296875 12.390625 37.59375 12.390625 
C 36.90625 12.390625 36.796875 12.296875 36.40625 10.984375 
C 33.796875 2.8125 28.09375 0.796875 23.796875 0.796875 
C 17.40625 0.796875 9.703125 6.671875 9.703125 21.390625 
C 9.703125 36.53125 17.09375 42 23 42 
C 26.90625 42 32.703125 40.203125 34.90625 35 
z
" id="CMR17-99"/>
      <path d="M 41.5 30.203125 
C 41.5 35.296875 40.5 43.59375 28.703125 43.59375 
C 20.5 43.59375 16.5 37 15.296875 33.703125 
L 15.203125 33.703125 
L 15.203125 68.6875 
L 3.296875 67.59375 
L 3.296875 65 
C 9.203125 65 10.09375 64.40625 10.09375 59.640625 
L 10.09375 6.65625 
C 10.09375 2.875 9.703125 2.390625 3.296875 2.390625 
L 3.296875 -0.203125 
C 5.703125 0 10.09375 0 12.703125 0 
C 15.296875 0 19.796875 0 22.203125 -0.203125 
L 22.203125 2.390625 
C 15.796875 2.390625 15.40625 2.78125 15.40625 6.6875 
L 15.40625 25.90625 
C 15.40625 35.109375 21 42 28 42 
C 35.40625 42 36.203125 35.40625 36.203125 30.59375 
L 36.203125 6.6875 
C 36.203125 2.875 35.796875 2.390625 29.40625 2.390625 
L 29.40625 -0.203125 
C 31.796875 0 36.203125 0 38.796875 0 
C 41.40625 0 45.90625 0 48.296875 -0.203125 
L 48.296875 2.390625 
C 41.90625 2.390625 41.5 2.78125 41.5 6.6875 
z
" id="CMR17-104"/>
      <path d="M 43.09375 21.1875 
C 43.09375 34 33.796875 44 22.90625 44 
C 12 44 2.703125 34 2.703125 21.1875 
C 2.703125 8.609375 12 -1 22.90625 -1 
C 33.796875 -1 43.09375 8.609375 43.09375 21.1875 
z
M 22.90625 0.796875 
C 18.203125 0.796875 14.203125 3.59375 11.90625 7.5 
C 9.40625 11.984375 9.09375 17.59375 9.09375 22 
C 9.09375 26.203125 9.296875 31.40625 11.90625 35.90625 
C 13.90625 39.203125 17.796875 42.40625 22.90625 42.40625 
C 27.40625 42.40625 31.203125 39.90625 33.59375 36.40625 
C 36.703125 31.703125 36.703125 25.109375 36.703125 22 
C 36.703125 18.09375 36.5 12.109375 33.796875 7.296875 
C 31 2.703125 26.703125 0.796875 22.90625 0.796875 
z
" id="CMR17-111"/>
      <path d="M 39.90625 40 
L 51.296875 40 
L 51.296875 42.578125 
L 39.703125 42.578125 
L 39.703125 54.59375 
C 39.703125 62.84375 43.90625 68 48.203125 68 
C 49.5 68 51 67.609375 52 66.90625 
C 51.203125 66.703125 49.09375 66.015625 49.09375 63.546875 
C 49.09375 60.953125 51.09375 60.15625 52.5 60.15625 
C 53.90625 60.15625 55.90625 60.953125 55.90625 63.546875 
C 55.90625 67.3125 52.296875 69.59375 48.296875 69.59375 
C 44.40625 69.59375 41.203125 67.703125 38.703125 65.328125 
C 36.40625 68.59375 32.59375 69.59375 28.703125 69.59375 
C 20.90625 69.59375 9.90625 65.125 9.90625 54.203125 
L 9.90625 42.578125 
L 1.90625 42.578125 
L 1.90625 40 
L 9.90625 40 
L 9.90625 6.671875 
C 9.90625 2.875 9.5 2.390625 3.09375 2.390625 
L 3.09375 -0.203125 
C 5.5 0 9.90625 0 12.40625 0 
C 15 0 19.40625 0 21.796875 -0.203125 
L 21.796875 2.390625 
C 15.40625 2.390625 15 2.78125 15 6.671875 
L 15 40 
L 34.796875 40 
L 34.796875 6.671875 
C 34.796875 2.875 34.40625 2.390625 28 2.390625 
L 28 -0.203125 
C 30.40625 0 35 0 37.59375 0 
C 40.5 0 45.59375 0 48.296875 -0.203125 
L 48.296875 2.390625 
C 41.09375 2.390625 39.90625 2.390625 39.90625 6.859375 
z
M 14.796875 42.578125 
L 14.796875 54.203125 
C 14.796875 63.234375 21.796875 68 28.5 68 
C 30 68 33.90625 67.6875 36.296875 65.421875 
C 34.5 65.421875 32.796875 64.625 32.796875 62.140625 
C 32.796875 59.5625 35.09375 58.859375 35.296875 58.859375 
C 34.796875 57.0625 34.796875 55.09375 34.796875 54.390625 
L 34.796875 42.578125 
z
" id="CMR17-11"/>
     </defs>
     <use transform="scale(0.996264)" xlink:href="#CMR17-76"/>
     <use transform="translate(57.381408 0)scale(0.996264)" xlink:href="#CMR17-51"/>
     <use transform="translate(103.071885 0)scale(0.996264)" xlink:href="#CMR17-50"/>
     <use transform="translate(178.838328 0)scale(0.996264)" xlink:href="#CMR17-98"/>
     <use transform="translate(232.336137 0)scale(0.996264)" xlink:href="#CMR17-101"/>
     <use transform="translate(272.821797 0)scale(0.996264)" xlink:href="#CMR17-116"/>
     <use transform="translate(308.102565 0)scale(0.996264)" xlink:href="#CMR17-97"/>
     <use transform="translate(353.793042 0)scale(0.996264)" xlink:href="#CMR17-49"/>
     <use transform="translate(399.483519 0)scale(0.996264)" xlink:href="#CMR17-50"/>
     <use transform="translate(445.173997 0)scale(0.996264)" xlink:href="#CMR17-112"/>
     <use transform="translate(496.069366 0)scale(0.996264)" xlink:href="#CMR17-48"/>
     <use transform="translate(571.83581 0)scale(0.996264)" xlink:href="#CMR17-107"/>
     <use transform="translate(614.923909 0)scale(0.996264)" xlink:href="#CMR17-97"/>
     <use transform="translate(660.614386 0)scale(0.996264)" xlink:href="#CMR17-112"/>
     <use transform="translate(711.509756 0)scale(0.996264)" xlink:href="#CMR17-112"/>
     <use transform="translate(762.405126 0)scale(0.996264)" xlink:href="#CMR17-97"/>
     <use transform="translate(808.095603 0)scale(0.996264)" xlink:href="#CMR17-48"/>
     <use transform="translate(853.78608 0)scale(0.996264)" xlink:href="#CMR17-112"/>
     <use transform="translate(904.68145 0)scale(0.996264)" xlink:href="#CMR17-49"/>
     <use transform="translate(950.371927 0)scale(0.996264)" xlink:href="#CMR17-52"/>
     <use transform="translate(996.062404 0)scale(0.996264)" xlink:href="#CMR17-55"/>
     <use transform="translate(1041.752881 0)scale(0.996264)" xlink:href="#CMR17-53"/>
     <use transform="translate(1117.519325 0)scale(0.996264)" xlink:href="#CMR17-66"/>
     <use transform="translate(1182.708079 0)scale(0.996264)" xlink:href="#CMR17-117"/>
     <use transform="translate(1233.603449 0)scale(0.996264)" xlink:href="#CMR17-99"/>
     <use transform="translate(1271.486655 0)scale(0.996264)" xlink:href="#CMR17-104"/>
     <use transform="translate(1322.382025 0)scale(0.996264)" xlink:href="#CMR17-111"/>
     <use transform="translate(1368.072502 0)scale(0.996264)" xlink:href="#CMR17-11"/>
     <use transform="translate(1450.493146 0)scale(0.996264)" xlink:href="#CMR17-112"/>
     <use transform="translate(1501.388516 0)scale(0.996264)" xlink:href="#CMR17-105"/>
     <use transform="translate(1526.259574 0)scale(0.996264)" xlink:href="#CMR17-111"/>
     <use transform="translate(1571.950051 0)scale(0.996264)" xlink:href="#CMR17-110"/>
    </g>
   </g>
  </g>
 </g>
 <defs>
  <clipPath id="pea8651dab8">
   <rect height="364.695773" width="445.713727" x="57.33915" y="75.6"/>
  </clipPath>
 </defs>
</svg>
