<?xml version="1.0" encoding="utf-8" standalone="no"?>
<!DOCTYPE svg PUBLIC "-//W3C//DTD SVG 1.1//EN"
  "http://www.w3.org/Graphics/SVG/1.1/DTD/svg11.dtd">
<!-- Created with matplotlib (https://matplotlib.org/) -->
<svg height="432pt" version="1.1" viewBox="0 0 504 432" width="504pt" xmlns="http://www.w3.org/2000/svg" xmlns:xlink="http://www.w3.org/1999/xlink">
 <metadata>
  <rdf:RDF xmlns:cc="http://creativecommons.org/ns#" xmlns:dc="http://purl.org/dc/elements/1.1/" xmlns:rdf="http://www.w3.org/1999/02/22-rdf-syntax-ns#">
   <cc:Work>
    <dc:type rdf:resource="http://purl.org/dc/dcmitype/StillImage"/>
    <dc:date>2022-10-12T17:48:57.422916</dc:date>
    <dc:format>image/svg+xml</dc:format>
    <dc:creator>
     <cc:Agent>
      <dc:title>Matplotlib v3.3.4, https://matplotlib.org/</dc:title>
     </cc:Agent>
    </dc:creator>
   </cc:Work>
  </rdf:RDF>
 </metadata>
 <defs>
  <style type="text/css">*{stroke-linecap:butt;stroke-linejoin:round;}</style>
 </defs>
 <g id="figure_1">
  <g id="patch_1">
   <path d="M 0 432 
L 504 432 
L 504 0 
L 0 0 
z
" style="fill:#ffffff;"/>
  </g>
  <g id="axes_1">
   <g id="patch_2">
    <path d="M 66.943522 345.575773 
L 464 345.575773 
L 464 63.911226 
L 66.943522 63.911226 
z
" style="fill:#ffffff;"/>
   </g>
   <g id="matplotlib.axis_1">
    <g id="xtick_1">
     <g id="line2d_1">
      <defs>
       <path d="M 0 0 
L 0 3.5 
" id="m867ac172d4" style="stroke:#000000;stroke-width:0.8;"/>
      </defs>
      <g>
       <use style="stroke:#000000;stroke-width:0.8;" x="84.991544" xlink:href="#m867ac172d4" y="345.575773"/>
      </g>
     </g>
     <g id="text_1">
      <!-- $\mathdefault{4}$ -->
      <g transform="translate(81.089551 363.645361)scale(0.16 -0.16)">
       <defs>
        <path d="M 33.59375 64.40625 
C 33.59375 66.5 33.5 66.5 31.703125 66.5 
L 2 19.59375 
L 2 17 
L 27.796875 17 
L 27.796875 7.140625 
C 27.796875 3.5 27.59375 2.5 20.59375 2.5 
L 18.703125 2.5 
L 18.703125 0 
C 21.90625 0 27.296875 0 30.703125 0 
C 34.09375 0 39.5 0 42.703125 0 
L 42.703125 2.5 
L 40.796875 2.5 
C 33.796875 2.5 33.59375 3.5 33.59375 7.140625 
L 33.59375 17 
L 43.796875 17 
L 43.796875 19.59375 
L 33.59375 19.59375 
z
M 28.09375 57.859375 
L 28.09375 19.59375 
L 4 19.59375 
z
" id="CMR17-52"/>
       </defs>
       <use transform="scale(0.996264)" xlink:href="#CMR17-52"/>
      </g>
     </g>
    </g>
    <g id="xtick_2">
     <g id="line2d_2">
      <g>
       <use style="stroke:#000000;stroke-width:0.8;" x="102.095296" xlink:href="#m867ac172d4" y="345.575773"/>
      </g>
     </g>
     <g id="text_2">
      <!-- $\mathdefault{8}$ -->
      <g transform="translate(98.193303 363.645361)scale(0.16 -0.16)">
       <defs>
        <path d="M 27.203125 35.375 
C 33.5 38.546875 39.90625 43.328125 39.90625 50.984375 
C 39.90625 60.015625 31.09375 65.296875 23 65.296875 
C 13.90625 65.296875 5.90625 58.734375 5.90625 49.6875 
C 5.90625 47.203125 6.5 42.921875 10.40625 39.140625 
C 11.40625 38.15625 15.59375 35.171875 18.296875 33.28125 
C 13.796875 30.984375 3.296875 25.53125 3.296875 14.59375 
C 3.296875 4.359375 13.09375 -2 22.796875 -2 
C 33.5 -2 42.5 5.65625 42.5 15.78125 
C 42.5 24.84375 36.40625 29.015625 32.40625 31.703125 
z
M 14.09375 44.09375 
C 13.296875 44.59375 9.296875 47.671875 9.296875 52.359375 
C 9.296875 58.421875 15.59375 63 22.796875 63 
C 30.703125 63 36.5 57.4375 36.5 50.96875 
C 36.5 41.703125 26.09375 36.421875 25.59375 36.421875 
C 25.5 36.421875 25.40625 36.421875 24.59375 37.03125 
z
M 32.5 23.734375 
C 34 22.640625 38.796875 19.375 38.796875 13.296875 
C 38.796875 5.953125 31.40625 0.390625 23 0.390625 
C 13.90625 0.390625 7 6.84375 7 14.6875 
C 7 22.546875 13.09375 29.09375 20 32.1875 
z
" id="CMR17-56"/>
       </defs>
       <use transform="scale(0.996264)" xlink:href="#CMR17-56"/>
      </g>
     </g>
    </g>
    <g id="xtick_3">
     <g id="line2d_3">
      <g>
       <use style="stroke:#000000;stroke-width:0.8;" x="170.510304" xlink:href="#m867ac172d4" y="345.575773"/>
      </g>
     </g>
     <g id="text_3">
      <!-- $\mathdefault{24}$ -->
      <g transform="translate(162.706317 363.645361)scale(0.16 -0.16)">
       <defs>
        <path d="M 41.703125 15.453125 
L 39.90625 15.453125 
C 38.90625 8.375 38.09375 7.171875 37.703125 6.5625 
C 37.203125 5.765625 30 5.765625 28.59375 5.765625 
L 9.40625 5.765625 
C 13 9.671875 20 16.75 28.5 24.953125 
C 34.59375 30.734375 41.703125 37.53125 41.703125 47.421875 
C 41.703125 59.21875 32.296875 66 21.796875 66 
C 10.796875 66 4.09375 56.3125 4.09375 47.34375 
C 4.09375 43.4375 7 42.9375 8.203125 42.9375 
C 9.203125 42.9375 12.203125 43.546875 12.203125 47.03125 
C 12.203125 50.109375 9.59375 51 8.203125 51 
C 7.59375 51 7 50.90625 6.59375 50.703125 
C 8.5 59.21875 14.296875 63.40625 20.40625 63.40625 
C 29.09375 63.40625 34.796875 56.515625 34.796875 47.421875 
C 34.796875 38.734375 29.703125 31.25 24 24.75 
L 4.09375 2.28125 
L 4.09375 0 
L 39.296875 0 
z
" id="CMR17-50"/>
       </defs>
       <use transform="scale(0.996264)" xlink:href="#CMR17-50"/>
       <use transform="translate(45.690477 0)scale(0.996264)" xlink:href="#CMR17-52"/>
      </g>
     </g>
    </g>
    <g id="xtick_4">
     <g id="line2d_4">
      <g>
       <use style="stroke:#000000;stroke-width:0.8;" x="204.717809" xlink:href="#m867ac172d4" y="345.575773"/>
      </g>
     </g>
     <g id="text_4">
      <!-- $\mathdefault{32}$ -->
      <g transform="translate(196.913822 363.645361)scale(0.16 -0.16)">
       <defs>
        <path d="M 22.09375 33.703125 
C 31 33.703125 34.90625 25.96875 34.90625 17.03125 
C 34.90625 5 28.5 0.390625 22.703125 0.390625 
C 17.40625 0.390625 8.796875 3.03125 6.09375 10.828125 
C 6.59375 10.625 7.09375 10.625 7.59375 10.625 
C 10 10.625 11.796875 12.21875 11.796875 14.8125 
C 11.796875 17.703125 9.59375 19 7.59375 19 
C 5.90625 19 3.296875 18.203125 3.296875 14.46875 
C 3.296875 5.234375 12.296875 -2 22.90625 -2 
C 34 -2 42.5 6.71875 42.5 16.953125 
C 42.5 26.671875 34.5 33.703125 25 34.796875 
C 32.59375 36.375 39.90625 43.0625 39.90625 52.015625 
C 39.90625 59.6875 32 65.296875 23 65.296875 
C 13.90625 65.296875 5.90625 59.828125 5.90625 52.015625 
C 5.90625 48.59375 8.5 48 9.796875 48 
C 11.90625 48 13.703125 49.296875 13.703125 51.890625 
C 13.703125 54.46875 11.90625 55.765625 9.796875 55.765625 
C 9.40625 55.765625 8.90625 55.765625 8.5 55.578125 
C 11.40625 61.859375 19.296875 63 22.796875 63 
C 26.296875 63 32.90625 61.328125 32.90625 51.875 
C 32.90625 49.109375 32.5 44.1875 29.09375 39.84375 
C 26.09375 36 22.703125 36 19.40625 35.6875 
C 18.90625 35.6875 16.59375 35.453125 16.203125 35.453125 
C 15.5 35.359375 15.09375 35.265625 15.09375 34.5 
C 15.09375 33.796875 15.203125 33.703125 17.203125 33.703125 
z
" id="CMR17-51"/>
       </defs>
       <use transform="scale(0.996264)" xlink:href="#CMR17-51"/>
       <use transform="translate(45.690477 0)scale(0.996264)" xlink:href="#CMR17-50"/>
      </g>
     </g>
    </g>
    <g id="xtick_5">
     <g id="line2d_5">
      <g>
       <use style="stroke:#000000;stroke-width:0.8;" x="273.132817" xlink:href="#m867ac172d4" y="345.575773"/>
      </g>
     </g>
     <g id="text_5">
      <!-- $\mathdefault{48}$ -->
      <g transform="translate(265.32883 363.645361)scale(0.16 -0.16)">
       <use transform="scale(0.996264)" xlink:href="#CMR17-52"/>
       <use transform="translate(45.690477 0)scale(0.996264)" xlink:href="#CMR17-56"/>
      </g>
     </g>
    </g>
    <g id="xtick_6">
     <g id="line2d_6">
      <g>
       <use style="stroke:#000000;stroke-width:0.8;" x="341.547825" xlink:href="#m867ac172d4" y="345.575773"/>
      </g>
     </g>
     <g id="text_6">
      <!-- $\mathdefault{64}$ -->
      <g transform="translate(333.743838 363.645361)scale(0.16 -0.16)">
       <defs>
        <path d="M 10.59375 34 
C 10.59375 57.65625 21.796875 63 28.296875 63 
C 30.40625 63 35.5 62.640625 37.5 59 
C 35.90625 59 32.90625 59 32.90625 55.515625 
C 32.90625 52.828125 35.09375 51.921875 36.5 51.921875 
C 37.40625 51.921875 40.09375 52.3125 40.09375 55.625 
C 40.09375 61.78125 35.09375 65.296875 28.203125 65.296875 
C 16.296875 65.296875 3.796875 52.96875 3.796875 31 
C 3.796875 3.953125 15.09375 -2 23.09375 -2 
C 32.796875 -2 42 6.671875 42 20.046875 
C 42 32.515625 33.90625 41.59375 23.703125 41.59375 
C 17.59375 41.59375 13.09375 37.609375 10.59375 30.625 
z
M 23.09375 0.390625 
C 10.796875 0.390625 10.796875 18.75 10.796875 22.4375 
C 10.796875 29.625 14.203125 40 23.5 40 
C 25.203125 40 30.09375 40 33.40625 33.125 
C 35.203125 29.21875 35.203125 25.140625 35.203125 20.140625 
C 35.203125 14.75 35.203125 10.78125 33.09375 6.78125 
C 30.90625 2.671875 27.703125 0.390625 23.09375 0.390625 
z
" id="CMR17-54"/>
       </defs>
       <use transform="scale(0.996264)" xlink:href="#CMR17-54"/>
       <use transform="translate(45.690477 0)scale(0.996264)" xlink:href="#CMR17-52"/>
      </g>
     </g>
    </g>
    <g id="xtick_7">
     <g id="line2d_7">
      <g>
       <use style="stroke:#000000;stroke-width:0.8;" x="375.755329" xlink:href="#m867ac172d4" y="345.575773"/>
      </g>
     </g>
     <g id="text_7">
      <!-- $\mathdefault{72}$ -->
      <g transform="translate(367.951342 363.645361)scale(0.16 -0.16)">
       <defs>
        <path d="M 45.09375 61.578125 
L 45.09375 63.765625 
L 21.59375 63.765625 
C 9.90625 63.765625 9.703125 65.078125 9.296875 67 
L 7.5 67 
L 4.59375 48.34375 
L 6.40625 48.34375 
C 6.703125 50.234375 7.40625 55.3125 8.59375 57.203125 
C 9.203125 58 16.59375 58 18.296875 58 
L 40.296875 58 
L 29.203125 41.578125 
C 21.796875 30.53125 16.703125 15.609375 16.703125 2.578125 
C 16.703125 1.390625 16.703125 -2 20.296875 -2 
C 23.90625 -2 23.90625 1.390625 23.90625 2.671875 
L 23.90625 7.265625 
C 23.90625 23.5625 26.703125 34.3125 31.296875 41.1875 
z
" id="CMR17-55"/>
       </defs>
       <use transform="scale(0.996264)" xlink:href="#CMR17-55"/>
       <use transform="translate(45.690477 0)scale(0.996264)" xlink:href="#CMR17-50"/>
      </g>
     </g>
    </g>
    <g id="xtick_8">
     <g id="line2d_8">
      <g>
       <use style="stroke:#000000;stroke-width:0.8;" x="444.170337" xlink:href="#m867ac172d4" y="345.575773"/>
      </g>
     </g>
     <g id="text_8">
      <!-- $\mathdefault{88}$ -->
      <g transform="translate(436.36635 363.645361)scale(0.16 -0.16)">
       <use transform="scale(0.996264)" xlink:href="#CMR17-56"/>
       <use transform="translate(45.690477 0)scale(0.996264)" xlink:href="#CMR17-56"/>
      </g>
     </g>
    </g>
    <g id="text_9">
     <!-- $N_{\rm vec}$ -->
     <g transform="translate(244.717201 387.349243)scale(0.24 -0.24)">
      <defs>
       <path d="M 74 57.78125 
C 75.09375 62.09375 76.703125 65.09375 84.296875 65.09375 
C 84.59375 65.09375 85.796875 65.09375 85.796875 66.859375 
C 85.796875 68 84.90625 68 84.5 68 
C 82.5 68 77.40625 68 75.40625 68 
L 70.59375 68 
C 69.203125 68 67.40625 68 66 68 
C 65.40625 68 64.203125 68 64.203125 66.09375 
C 64.203125 65.09375 65 65.09375 65.703125 65.09375 
C 71.703125 65.09375 72.09375 62.796875 72.09375 60.984375 
C 72.09375 60.09375 72 59.78125 71.703125 58.390625 
L 60.40625 13.28125 
L 39 66.390625 
C 38.296875 68 38.203125 68 36 68 
L 23.796875 68 
C 21.796875 68 20.90625 68 20.90625 66.09375 
C 20.90625 65.09375 21.59375 65.09375 23.5 65.09375 
C 24 65.09375 29.90625 65.09375 29.90625 64.296875 
C 29.90625 64.09375 29.703125 63.296875 29.59375 63 
L 16.296875 9.921875 
C 15.09375 5 12.703125 2.90625 6.09375 2.90625 
C 5.59375 2.90625 4.59375 2.90625 4.59375 1.046875 
C 4.59375 0 5.59375 0 5.90625 0 
C 7.90625 0 13 0 15 0 
L 19.796875 0 
C 21.203125 0 22.90625 0 24.296875 0 
C 25 0 26.09375 0 26.09375 1.90625 
C 26.09375 2.8125 25.09375 2.90625 24.703125 2.90625 
C 21.40625 2.90625 18.203125 3.5 18.203125 7.09375 
C 18.203125 7.890625 18.40625 8.78125 18.59375 9.578125 
L 32.09375 63 
C 32.703125 62 32.703125 61.8125 33.09375 60.90625 
L 56.90625 1.796875 
C 57.40625 0.59375 57.59375 0 58.5 0 
C 59.5 0 59.59375 0.296875 60 2 
z
" id="CMMI12-78"/>
       <path d="M 39.09375 33.796875 
C 40 36 41.59375 40 47.40625 40 
L 47.40625 42.59375 
C 45.5 42.59375 43 42.59375 41.09375 42.59375 
C 39 42.59375 35.703125 42.59375 33.703125 42.6875 
L 33.703125 40.09375 
C 36.203125 39.890625 37.59375 38.703125 37.59375 36.109375 
C 37.59375 35.203125 37.59375 35 37 33.609375 
L 26 5.890625 
L 14.09375 35.71875 
C 13.5 37.015625 13.5 37.203125 13.5 37.609375 
C 13.5 40 16.796875 40 18.296875 40 
L 18.296875 42.6875 
C 15.90625 42.59375 11.5 42.59375 9 42.59375 
C 6.296875 42.59375 3.203125 42.59375 1 42.6875 
L 1 40 
C 4.796875 40 6.90625 40 8.09375 36.90625 
L 22.59375 0.6875 
C 23.203125 -0.796875 23.296875 -1 24.203125 -1 
C 25.09375 -1 25.203125 -0.796875 25.796875 0.6875 
z
" id="CMR17-118"/>
       <path d="M 38.09375 23 
C 38.5 23.40625 38.5 23.609375 38.5 24.625 
C 38.5 34.96875 33.09375 44 21.703125 44 
C 11.09375 44 2.703125 33.890625 2.703125 21.609375 
C 2.703125 8.609375 12.203125 -1 22.796875 -1 
C 34 -1 38.40625 9.484375 38.40625 11.5625 
C 38.40625 12.25 37.796875 12.25 37.59375 12.25 
C 36.90625 12.25 36.796875 12.046875 36.40625 10.875 
C 34.203125 4.140625 28.703125 0.796875 23.5 0.796875 
C 19.203125 0.796875 14.90625 3.171875 12.203125 7.5 
C 9.09375 12.546875 9.09375 18.375 9.09375 23 
z
M 9.203125 24.5 
C 9.90625 39.140625 17.59375 42.40625 21.59375 42.40625 
C 28.40625 42.40625 33 35.890625 33.09375 24.5 
z
" id="CMR17-101"/>
       <path d="M 34.90625 35 
C 33 35 30.203125 35 30.203125 31.515625 
C 30.203125 28.71875 32.5 27.921875 33.796875 27.921875 
C 34.5 27.921875 37.40625 28.234375 37.40625 31.625 
C 37.40625 38.546875 30.59375 43.796875 22.90625 43.796875 
C 12.296875 43.796875 3.296875 34.03125 3.296875 21.296875 
C 3.296875 8.0625 12.703125 -1 22.90625 -1 
C 35.296875 -1 38.40625 10.578125 38.40625 11.6875 
C 38.40625 12.09375 38.296875 12.390625 37.59375 12.390625 
C 36.90625 12.390625 36.796875 12.296875 36.40625 10.984375 
C 33.796875 2.8125 28.09375 0.796875 23.796875 0.796875 
C 17.40625 0.796875 9.703125 6.671875 9.703125 21.390625 
C 9.703125 36.53125 17.09375 42 23 42 
C 26.90625 42 32.703125 40.203125 34.90625 35 
z
" id="CMR17-99"/>
      </defs>
      <use transform="scale(0.996264)" xlink:href="#CMMI12-78"/>
      <use transform="translate(78.115119 -14.943915)scale(0.697382)" xlink:href="#CMR17-118"/>
      <use transform="translate(110.098286 -14.943915)scale(0.697382)" xlink:href="#CMR17-101"/>
      <use transform="translate(138.438117 -14.943915)scale(0.697382)" xlink:href="#CMR17-99"/>
     </g>
    </g>
   </g>
   <g id="matplotlib.axis_2">
    <g id="ytick_1">
     <g id="line2d_9">
      <defs>
       <path d="M 0 0 
L -3.5 0 
" id="mf0f7cf8ce6" style="stroke:#000000;stroke-width:0.8;"/>
      </defs>
      <g>
       <use style="stroke:#000000;stroke-width:0.8;" x="66.943522" xlink:href="#mf0f7cf8ce6" y="297.080036"/>
      </g>
     </g>
     <g id="text_10">
      <!-- $\mathdefault{0.4}$ -->
      <g transform="translate(40 302.61483)scale(0.16 -0.16)">
       <defs>
        <path d="M 42 31.640625 
C 42 37.75 41.90625 48.125 37.703125 56.109375 
C 34 63.109375 28.09375 65.59375 22.90625 65.59375 
C 18.09375 65.59375 12 63.40625 8.203125 56.203125 
C 4.203125 48.71875 3.796875 39.4375 3.796875 31.640625 
C 3.796875 25.953125 3.90625 17.28125 7 9.671875 
C 11.296875 -0.609375 19 -2 22.90625 -2 
C 27.5 -2 34.5 -0.109375 38.59375 9.375 
C 41.59375 16.28125 42 24.359375 42 31.640625 
z
M 22.90625 -0.40625 
C 16.5 -0.40625 12.703125 5.078125 11.296875 12.6875 
C 10.203125 18.5625 10.203125 27.15625 10.203125 32.75 
C 10.203125 40.4375 10.203125 46.828125 11.5 52.921875 
C 13.40625 61.390625 19 64 22.90625 64 
C 27 64 32.296875 61.296875 34.203125 53.125 
C 35.5 47.4375 35.59375 40.734375 35.59375 32.75 
C 35.59375 26.25 35.59375 18.265625 34.40625 12.375 
C 32.296875 1.484375 26.40625 -0.40625 22.90625 -0.40625 
z
" id="CMR17-48"/>
        <path d="M 18.40625 4.796875 
C 18.40625 7.6875 16 9.671875 13.59375 9.671875 
C 10.703125 9.671875 8.703125 7.28125 8.703125 4.890625 
C 8.703125 2 11.09375 0 13.5 0 
C 16.40625 0 18.40625 2.390625 18.40625 4.796875 
z
" id="CMMI12-58"/>
       </defs>
       <use transform="scale(0.996264)" xlink:href="#CMR17-48"/>
       <use transform="translate(45.690477 0)scale(0.996264)" xlink:href="#CMMI12-58"/>
       <use transform="translate(72.787654 0)scale(0.996264)" xlink:href="#CMR17-52"/>
      </g>
     </g>
    </g>
    <g id="ytick_2">
     <g id="line2d_10">
      <g>
       <use style="stroke:#000000;stroke-width:0.8;" x="66.943522" xlink:href="#mf0f7cf8ce6" y="240.876579"/>
      </g>
     </g>
     <g id="text_11">
      <!-- $\mathdefault{0.6}$ -->
      <g transform="translate(40 246.411373)scale(0.16 -0.16)">
       <use transform="scale(0.996264)" xlink:href="#CMR17-48"/>
       <use transform="translate(45.690477 0)scale(0.996264)" xlink:href="#CMMI12-58"/>
       <use transform="translate(72.787654 0)scale(0.996264)" xlink:href="#CMR17-54"/>
      </g>
     </g>
    </g>
    <g id="ytick_3">
     <g id="line2d_11">
      <g>
       <use style="stroke:#000000;stroke-width:0.8;" x="66.943522" xlink:href="#mf0f7cf8ce6" y="184.673121"/>
      </g>
     </g>
     <g id="text_12">
      <!-- $\mathdefault{0.8}$ -->
      <g transform="translate(40 190.207915)scale(0.16 -0.16)">
       <use transform="scale(0.996264)" xlink:href="#CMR17-48"/>
       <use transform="translate(45.690477 0)scale(0.996264)" xlink:href="#CMMI12-58"/>
       <use transform="translate(72.787654 0)scale(0.996264)" xlink:href="#CMR17-56"/>
      </g>
     </g>
    </g>
    <g id="ytick_4">
     <g id="line2d_12">
      <g>
       <use style="stroke:#000000;stroke-width:0.8;" x="66.943522" xlink:href="#mf0f7cf8ce6" y="128.469663"/>
      </g>
     </g>
     <g id="text_13">
      <!-- $\mathdefault{1.0}$ -->
      <g transform="translate(40 134.004458)scale(0.16 -0.16)">
       <defs>
        <path d="M 26.59375 63.40625 
C 26.59375 65.5 26.5 65.5 25.09375 65.5 
C 21.203125 61.1875 15.296875 59.796875 9.703125 59.796875 
C 9.40625 59.796875 8.90625 59.796875 8.796875 59.5 
C 8.703125 59.296875 8.703125 59.09375 8.703125 57 
C 11.796875 57 17 57.59375 21 59.984375 
L 21 7.203125 
C 21 3.6875 20.796875 2.5 12.203125 2.5 
L 9.203125 2.5 
L 9.203125 0 
C 14 0 19 0 23.796875 0 
C 28.59375 0 33.59375 0 38.40625 0 
L 38.40625 2.5 
L 35.40625 2.5 
C 26.796875 2.5 26.59375 3.59375 26.59375 7.15625 
z
" id="CMR17-49"/>
       </defs>
       <use transform="scale(0.996264)" xlink:href="#CMR17-49"/>
       <use transform="translate(45.690477 0)scale(0.996264)" xlink:href="#CMMI12-58"/>
       <use transform="translate(72.787654 0)scale(0.996264)" xlink:href="#CMR17-48"/>
      </g>
     </g>
    </g>
    <g id="ytick_5">
     <g id="line2d_13">
      <g>
       <use style="stroke:#000000;stroke-width:0.8;" x="66.943522" xlink:href="#mf0f7cf8ce6" y="72.266206"/>
      </g>
     </g>
     <g id="text_14">
      <!-- $\mathdefault{1.2}$ -->
      <g transform="translate(40 77.801)scale(0.16 -0.16)">
       <use transform="scale(0.996264)" xlink:href="#CMR17-49"/>
       <use transform="translate(45.690477 0)scale(0.996264)" xlink:href="#CMMI12-58"/>
       <use transform="translate(72.787654 0)scale(0.996264)" xlink:href="#CMR17-50"/>
      </g>
     </g>
    </g>
   </g>
   <g id="LineCollection_1">
    <path clip-path="url(#pbdfbcdd00f)" d="M 84.991544 81.800065 
L 84.991544 76.71416 
" style="fill:none;stroke:#8000ff;stroke-width:2;"/>
    <path clip-path="url(#pbdfbcdd00f)" d="M 102.095296 132.244085 
L 102.095296 129.496947 
" style="fill:none;stroke:#8000ff;stroke-width:2;"/>
    <path clip-path="url(#pbdfbcdd00f)" d="M 170.510304 158.920062 
L 170.510304 157.877601 
" style="fill:none;stroke:#8000ff;stroke-width:2;"/>
    <path clip-path="url(#pbdfbcdd00f)" d="M 204.717809 157.625788 
L 204.717809 156.695356 
" style="fill:none;stroke:#8000ff;stroke-width:2;"/>
    <path clip-path="url(#pbdfbcdd00f)" d="M 273.132817 150.883574 
L 273.132817 150.222711 
" style="fill:none;stroke:#8000ff;stroke-width:2;"/>
    <path clip-path="url(#pbdfbcdd00f)" d="M 341.547825 143.023604 
L 341.547825 142.418185 
" style="fill:none;stroke:#8000ff;stroke-width:2;"/>
    <path clip-path="url(#pbdfbcdd00f)" d="M 375.755329 139.243571 
L 375.755329 138.347737 
" style="fill:none;stroke:#8000ff;stroke-width:2;"/>
    <path clip-path="url(#pbdfbcdd00f)" d="M 444.170337 131.476775 
L 444.170337 130.719368 
" style="fill:none;stroke:#8000ff;stroke-width:2;"/>
   </g>
   <g id="LineCollection_2">
    <path clip-path="url(#pbdfbcdd00f)" d="M 85.347872 297.669554 
L 85.347872 291.117083 
" style="fill:none;stroke:#1996f3;stroke-width:2;"/>
    <path clip-path="url(#pbdfbcdd00f)" d="M 102.451624 289.340541 
L 102.451624 285.974078 
" style="fill:none;stroke:#1996f3;stroke-width:2;"/>
    <path clip-path="url(#pbdfbcdd00f)" d="M 170.866633 260.194365 
L 170.866633 258.882979 
" style="fill:none;stroke:#1996f3;stroke-width:2;"/>
    <path clip-path="url(#pbdfbcdd00f)" d="M 205.074137 250.111299 
L 205.074137 249.105548 
" style="fill:none;stroke:#1996f3;stroke-width:2;"/>
    <path clip-path="url(#pbdfbcdd00f)" d="M 273.489145 234.320624 
L 273.489145 233.387554 
" style="fill:none;stroke:#1996f3;stroke-width:2;"/>
    <path clip-path="url(#pbdfbcdd00f)" d="M 341.904153 221.997612 
L 341.904153 221.194266 
" style="fill:none;stroke:#1996f3;stroke-width:2;"/>
    <path clip-path="url(#pbdfbcdd00f)" d="M 376.111657 216.831444 
L 376.111657 215.641332 
" style="fill:none;stroke:#1996f3;stroke-width:2;"/>
    <path clip-path="url(#pbdfbcdd00f)" d="M 444.526666 207.734356 
L 444.526666 206.664591 
" style="fill:none;stroke:#1996f3;stroke-width:2;"/>
   </g>
   <g id="LineCollection_3">
    <path clip-path="url(#pbdfbcdd00f)" d="M 85.7042 317.527658 
L 85.7042 309.129034 
" style="fill:none;stroke:#4df3ce;stroke-width:2;"/>
    <path clip-path="url(#pbdfbcdd00f)" d="M 102.807952 309.352125 
L 102.807952 304.619363 
" style="fill:none;stroke:#4df3ce;stroke-width:2;"/>
    <path clip-path="url(#pbdfbcdd00f)" d="M 171.222961 284.23332 
L 171.222961 282.421706 
" style="fill:none;stroke:#4df3ce;stroke-width:2;"/>
    <path clip-path="url(#pbdfbcdd00f)" d="M 205.430465 275.976471 
L 205.430465 274.450801 
" style="fill:none;stroke:#4df3ce;stroke-width:2;"/>
    <path clip-path="url(#pbdfbcdd00f)" d="M 273.845473 263.634501 
L 273.845473 262.232761 
" style="fill:none;stroke:#4df3ce;stroke-width:2;"/>
    <path clip-path="url(#pbdfbcdd00f)" d="M 342.260481 254.529526 
L 342.260481 253.190886 
" style="fill:none;stroke:#4df3ce;stroke-width:2;"/>
    <path clip-path="url(#pbdfbcdd00f)" d="M 376.467986 249.768588 
L 376.467986 247.605441 
" style="fill:none;stroke:#4df3ce;stroke-width:2;"/>
    <path clip-path="url(#pbdfbcdd00f)" d="M 444.882994 243.286935 
L 444.882994 241.245928 
" style="fill:none;stroke:#4df3ce;stroke-width:2;"/>
   </g>
   <g id="LineCollection_4">
    <path clip-path="url(#pbdfbcdd00f)" d="M 86.060529 329.818177 
L 86.060529 319.541518 
" style="fill:none;stroke:#b2f396;stroke-width:2;"/>
    <path clip-path="url(#pbdfbcdd00f)" d="M 103.164281 318.439408 
L 103.164281 312.03123 
" style="fill:none;stroke:#b2f396;stroke-width:2;"/>
    <path clip-path="url(#pbdfbcdd00f)" d="M 171.579289 298.908542 
L 171.579289 295.974712 
" style="fill:none;stroke:#b2f396;stroke-width:2;"/>
    <path clip-path="url(#pbdfbcdd00f)" d="M 205.786793 292.570855 
L 205.786793 290.010406 
" style="fill:none;stroke:#b2f396;stroke-width:2;"/>
    <path clip-path="url(#pbdfbcdd00f)" d="M 274.201801 283.283277 
L 274.201801 281.018329 
" style="fill:none;stroke:#b2f396;stroke-width:2;"/>
    <path clip-path="url(#pbdfbcdd00f)" d="M 342.61681 276.728616 
L 342.61681 274.558452 
" style="fill:none;stroke:#b2f396;stroke-width:2;"/>
    <path clip-path="url(#pbdfbcdd00f)" d="M 376.824314 272.834444 
L 376.824314 268.897342 
" style="fill:none;stroke:#b2f396;stroke-width:2;"/>
    <path clip-path="url(#pbdfbcdd00f)" d="M 445.239322 268.320888 
L 445.239322 264.664549 
" style="fill:none;stroke:#b2f396;stroke-width:2;"/>
   </g>
   <g id="LineCollection_5">
    <path clip-path="url(#pbdfbcdd00f)" d="M 86.416857 328.910366 
L 86.416857 317.649559 
" style="fill:none;stroke:#ff964f;stroke-width:2;"/>
    <path clip-path="url(#pbdfbcdd00f)" d="M 103.520609 323.045208 
L 103.520609 315.391645 
" style="fill:none;stroke:#ff964f;stroke-width:2;"/>
    <path clip-path="url(#pbdfbcdd00f)" d="M 171.935617 308.070683 
L 171.935617 303.589171 
" style="fill:none;stroke:#ff964f;stroke-width:2;"/>
    <path clip-path="url(#pbdfbcdd00f)" d="M 206.143121 303.499015 
L 206.143121 300.007442 
" style="fill:none;stroke:#ff964f;stroke-width:2;"/>
    <path clip-path="url(#pbdfbcdd00f)" d="M 274.558129 297.296401 
L 274.558129 294.043241 
" style="fill:none;stroke:#ff964f;stroke-width:2;"/>
    <path clip-path="url(#pbdfbcdd00f)" d="M 342.973138 292.513156 
L 342.973138 289.397176 
" style="fill:none;stroke:#ff964f;stroke-width:2;"/>
    <path clip-path="url(#pbdfbcdd00f)" d="M 377.180642 288.77156 
L 377.180642 283.237011 
" style="fill:none;stroke:#ff964f;stroke-width:2;"/>
    <path clip-path="url(#pbdfbcdd00f)" d="M 445.59565 285.928984 
L 445.59565 280.314061 
" style="fill:none;stroke:#ff964f;stroke-width:2;"/>
   </g>
   <g id="LineCollection_6">
    <path clip-path="url(#pbdfbcdd00f)" d="M 86.773185 332.772839 
L 86.773185 319.883514 
" style="fill:none;stroke:#ff0000;stroke-width:2;"/>
    <path clip-path="url(#pbdfbcdd00f)" d="M 103.876937 327.492577 
L 103.876937 317.699988 
" style="fill:none;stroke:#ff0000;stroke-width:2;"/>
    <path clip-path="url(#pbdfbcdd00f)" d="M 172.291945 317.059614 
L 172.291945 311.548112 
" style="fill:none;stroke:#ff0000;stroke-width:2;"/>
    <path clip-path="url(#pbdfbcdd00f)" d="M 206.499449 313.255563 
L 206.499449 308.256159 
" style="fill:none;stroke:#ff0000;stroke-width:2;"/>
    <path clip-path="url(#pbdfbcdd00f)" d="M 274.914458 308.39262 
L 274.914458 304.04831 
" style="fill:none;stroke:#ff0000;stroke-width:2;"/>
    <path clip-path="url(#pbdfbcdd00f)" d="M 343.329466 305.973561 
L 343.329466 301.183242 
" style="fill:none;stroke:#ff0000;stroke-width:2;"/>
    <path clip-path="url(#pbdfbcdd00f)" d="M 377.53697 302.409172 
L 377.53697 295.461816 
" style="fill:none;stroke:#ff0000;stroke-width:2;"/>
    <path clip-path="url(#pbdfbcdd00f)" d="M 445.951978 300.873943 
L 445.951978 292.514965 
" style="fill:none;stroke:#ff0000;stroke-width:2;"/>
   </g>
   <g id="line2d_14">
    <path clip-path="url(#pbdfbcdd00f)" d="M 84.991544 79.257113 
L 102.095296 130.870516 
L 170.510304 158.398831 
L 204.717809 157.160572 
L 273.132817 150.553142 
L 341.547825 142.720894 
L 375.755329 138.795654 
L 444.170337 131.098071 
" style="fill:none;stroke:#8000ff;stroke-linecap:square;stroke-width:2;"/>
    <defs>
     <path d="M 0 4 
C 1.060812 4 2.078319 3.578535 2.828427 2.828427 
C 3.578535 2.078319 4 1.060812 4 0 
C 4 -1.060812 3.578535 -2.078319 2.828427 -2.828427 
C 2.078319 -3.578535 1.060812 -4 0 -4 
C -1.060812 -4 -2.078319 -3.578535 -2.828427 -2.828427 
C -3.578535 -2.078319 -4 -1.060812 -4 0 
C -4 1.060812 -3.578535 2.078319 -2.828427 2.828427 
C -2.078319 3.578535 -1.060812 4 0 4 
z
" id="m74fa55362b" style="stroke:#8000ff;"/>
    </defs>
    <g clip-path="url(#pbdfbcdd00f)">
     <use style="fill-opacity:0;stroke:#8000ff;" x="84.991544" xlink:href="#m74fa55362b" y="79.257113"/>
     <use style="fill-opacity:0;stroke:#8000ff;" x="102.095296" xlink:href="#m74fa55362b" y="130.870516"/>
     <use style="fill-opacity:0;stroke:#8000ff;" x="170.510304" xlink:href="#m74fa55362b" y="158.398831"/>
     <use style="fill-opacity:0;stroke:#8000ff;" x="204.717809" xlink:href="#m74fa55362b" y="157.160572"/>
     <use style="fill-opacity:0;stroke:#8000ff;" x="273.132817" xlink:href="#m74fa55362b" y="150.553142"/>
     <use style="fill-opacity:0;stroke:#8000ff;" x="341.547825" xlink:href="#m74fa55362b" y="142.720894"/>
     <use style="fill-opacity:0;stroke:#8000ff;" x="375.755329" xlink:href="#m74fa55362b" y="138.795654"/>
     <use style="fill-opacity:0;stroke:#8000ff;" x="444.170337" xlink:href="#m74fa55362b" y="131.098071"/>
    </g>
   </g>
   <g id="line2d_15">
    <path clip-path="url(#pbdfbcdd00f)" d="M 85.347872 294.393319 
L 102.451624 287.657309 
L 170.866633 259.538672 
L 205.074137 249.608424 
L 273.489145 233.854089 
L 341.904153 221.595939 
L 376.111657 216.236388 
L 444.526666 207.199473 
" style="fill:none;stroke:#1996f3;stroke-linecap:square;stroke-width:2;"/>
    <defs>
     <path d="M 0 4 
C 1.060812 4 2.078319 3.578535 2.828427 2.828427 
C 3.578535 2.078319 4 1.060812 4 0 
C 4 -1.060812 3.578535 -2.078319 2.828427 -2.828427 
C 2.078319 -3.578535 1.060812 -4 0 -4 
C -1.060812 -4 -2.078319 -3.578535 -2.828427 -2.828427 
C -3.578535 -2.078319 -4 -1.060812 -4 0 
C -4 1.060812 -3.578535 2.078319 -2.828427 2.828427 
C -2.078319 3.578535 -1.060812 4 0 4 
z
" id="m45c6680b48" style="stroke:#1996f3;"/>
    </defs>
    <g clip-path="url(#pbdfbcdd00f)">
     <use style="fill-opacity:0;stroke:#1996f3;" x="85.347872" xlink:href="#m45c6680b48" y="294.393319"/>
     <use style="fill-opacity:0;stroke:#1996f3;" x="102.451624" xlink:href="#m45c6680b48" y="287.657309"/>
     <use style="fill-opacity:0;stroke:#1996f3;" x="170.866633" xlink:href="#m45c6680b48" y="259.538672"/>
     <use style="fill-opacity:0;stroke:#1996f3;" x="205.074137" xlink:href="#m45c6680b48" y="249.608424"/>
     <use style="fill-opacity:0;stroke:#1996f3;" x="273.489145" xlink:href="#m45c6680b48" y="233.854089"/>
     <use style="fill-opacity:0;stroke:#1996f3;" x="341.904153" xlink:href="#m45c6680b48" y="221.595939"/>
     <use style="fill-opacity:0;stroke:#1996f3;" x="376.111657" xlink:href="#m45c6680b48" y="216.236388"/>
     <use style="fill-opacity:0;stroke:#1996f3;" x="444.526666" xlink:href="#m45c6680b48" y="207.199473"/>
    </g>
   </g>
   <g id="line2d_16">
    <path clip-path="url(#pbdfbcdd00f)" d="M 85.7042 313.328346 
L 102.807952 306.985744 
L 171.222961 283.327513 
L 205.430465 275.213636 
L 273.845473 262.933631 
L 342.260481 253.860206 
L 376.467986 248.687014 
L 444.882994 242.266431 
" style="fill:none;stroke:#4df3ce;stroke-linecap:square;stroke-width:2;"/>
    <defs>
     <path d="M 0 4 
C 1.060812 4 2.078319 3.578535 2.828427 2.828427 
C 3.578535 2.078319 4 1.060812 4 0 
C 4 -1.060812 3.578535 -2.078319 2.828427 -2.828427 
C 2.078319 -3.578535 1.060812 -4 0 -4 
C -1.060812 -4 -2.078319 -3.578535 -2.828427 -2.828427 
C -3.578535 -2.078319 -4 -1.060812 -4 0 
C -4 1.060812 -3.578535 2.078319 -2.828427 2.828427 
C -2.078319 3.578535 -1.060812 4 0 4 
z
" id="md00fd00afd" style="stroke:#4df3ce;"/>
    </defs>
    <g clip-path="url(#pbdfbcdd00f)">
     <use style="fill-opacity:0;stroke:#4df3ce;" x="85.7042" xlink:href="#md00fd00afd" y="313.328346"/>
     <use style="fill-opacity:0;stroke:#4df3ce;" x="102.807952" xlink:href="#md00fd00afd" y="306.985744"/>
     <use style="fill-opacity:0;stroke:#4df3ce;" x="171.222961" xlink:href="#md00fd00afd" y="283.327513"/>
     <use style="fill-opacity:0;stroke:#4df3ce;" x="205.430465" xlink:href="#md00fd00afd" y="275.213636"/>
     <use style="fill-opacity:0;stroke:#4df3ce;" x="273.845473" xlink:href="#md00fd00afd" y="262.933631"/>
     <use style="fill-opacity:0;stroke:#4df3ce;" x="342.260481" xlink:href="#md00fd00afd" y="253.860206"/>
     <use style="fill-opacity:0;stroke:#4df3ce;" x="376.467986" xlink:href="#md00fd00afd" y="248.687014"/>
     <use style="fill-opacity:0;stroke:#4df3ce;" x="444.882994" xlink:href="#md00fd00afd" y="242.266431"/>
    </g>
   </g>
   <g id="line2d_17">
    <path clip-path="url(#pbdfbcdd00f)" d="M 86.060529 324.679847 
L 103.164281 315.235319 
L 171.579289 297.441627 
L 205.786793 291.290631 
L 274.201801 282.150803 
L 342.61681 275.643534 
L 376.824314 270.865893 
L 445.239322 266.492718 
" style="fill:none;stroke:#b2f396;stroke-linecap:square;stroke-width:2;"/>
    <defs>
     <path d="M 0 4 
C 1.060812 4 2.078319 3.578535 2.828427 2.828427 
C 3.578535 2.078319 4 1.060812 4 0 
C 4 -1.060812 3.578535 -2.078319 2.828427 -2.828427 
C 2.078319 -3.578535 1.060812 -4 0 -4 
C -1.060812 -4 -2.078319 -3.578535 -2.828427 -2.828427 
C -3.578535 -2.078319 -4 -1.060812 -4 0 
C -4 1.060812 -3.578535 2.078319 -2.828427 2.828427 
C -2.078319 3.578535 -1.060812 4 0 4 
z
" id="m930926ff52" style="stroke:#b2f396;"/>
    </defs>
    <g clip-path="url(#pbdfbcdd00f)">
     <use style="fill-opacity:0;stroke:#b2f396;" x="86.060529" xlink:href="#m930926ff52" y="324.679847"/>
     <use style="fill-opacity:0;stroke:#b2f396;" x="103.164281" xlink:href="#m930926ff52" y="315.235319"/>
     <use style="fill-opacity:0;stroke:#b2f396;" x="171.579289" xlink:href="#m930926ff52" y="297.441627"/>
     <use style="fill-opacity:0;stroke:#b2f396;" x="205.786793" xlink:href="#m930926ff52" y="291.290631"/>
     <use style="fill-opacity:0;stroke:#b2f396;" x="274.201801" xlink:href="#m930926ff52" y="282.150803"/>
     <use style="fill-opacity:0;stroke:#b2f396;" x="342.61681" xlink:href="#m930926ff52" y="275.643534"/>
     <use style="fill-opacity:0;stroke:#b2f396;" x="376.824314" xlink:href="#m930926ff52" y="270.865893"/>
     <use style="fill-opacity:0;stroke:#b2f396;" x="445.239322" xlink:href="#m930926ff52" y="266.492718"/>
    </g>
   </g>
   <g id="line2d_18">
    <path clip-path="url(#pbdfbcdd00f)" d="M 86.416857 323.279963 
L 103.520609 319.218427 
L 171.935617 305.829927 
L 206.143121 301.753229 
L 274.558129 295.669821 
L 342.973138 290.955166 
L 377.180642 286.004286 
L 445.59565 283.121523 
" style="fill:none;stroke:#ff964f;stroke-linecap:square;stroke-width:2;"/>
    <defs>
     <path d="M 0 4 
C 1.060812 4 2.078319 3.578535 2.828427 2.828427 
C 3.578535 2.078319 4 1.060812 4 0 
C 4 -1.060812 3.578535 -2.078319 2.828427 -2.828427 
C 2.078319 -3.578535 1.060812 -4 0 -4 
C -1.060812 -4 -2.078319 -3.578535 -2.828427 -2.828427 
C -3.578535 -2.078319 -4 -1.060812 -4 0 
C -4 1.060812 -3.578535 2.078319 -2.828427 2.828427 
C -2.078319 3.578535 -1.060812 4 0 4 
z
" id="m556de5d0f3" style="stroke:#ff964f;"/>
    </defs>
    <g clip-path="url(#pbdfbcdd00f)">
     <use style="fill-opacity:0;stroke:#ff964f;" x="86.416857" xlink:href="#m556de5d0f3" y="323.279963"/>
     <use style="fill-opacity:0;stroke:#ff964f;" x="103.520609" xlink:href="#m556de5d0f3" y="319.218427"/>
     <use style="fill-opacity:0;stroke:#ff964f;" x="171.935617" xlink:href="#m556de5d0f3" y="305.829927"/>
     <use style="fill-opacity:0;stroke:#ff964f;" x="206.143121" xlink:href="#m556de5d0f3" y="301.753229"/>
     <use style="fill-opacity:0;stroke:#ff964f;" x="274.558129" xlink:href="#m556de5d0f3" y="295.669821"/>
     <use style="fill-opacity:0;stroke:#ff964f;" x="342.973138" xlink:href="#m556de5d0f3" y="290.955166"/>
     <use style="fill-opacity:0;stroke:#ff964f;" x="377.180642" xlink:href="#m556de5d0f3" y="286.004286"/>
     <use style="fill-opacity:0;stroke:#ff964f;" x="445.59565" xlink:href="#m556de5d0f3" y="283.121523"/>
    </g>
   </g>
   <g id="line2d_19">
    <path clip-path="url(#pbdfbcdd00f)" d="M 86.773185 326.328176 
L 103.876937 322.596282 
L 172.291945 314.303863 
L 206.499449 310.755861 
L 274.914458 306.220465 
L 343.329466 303.578401 
L 377.53697 298.935494 
L 445.951978 296.694454 
" style="fill:none;stroke:#ff0000;stroke-linecap:square;stroke-width:2;"/>
    <defs>
     <path d="M 0 4 
C 1.060812 4 2.078319 3.578535 2.828427 2.828427 
C 3.578535 2.078319 4 1.060812 4 0 
C 4 -1.060812 3.578535 -2.078319 2.828427 -2.828427 
C 2.078319 -3.578535 1.060812 -4 0 -4 
C -1.060812 -4 -2.078319 -3.578535 -2.828427 -2.828427 
C -3.578535 -2.078319 -4 -1.060812 -4 0 
C -4 1.060812 -3.578535 2.078319 -2.828427 2.828427 
C -2.078319 3.578535 -1.060812 4 0 4 
z
" id="md9805a1344" style="stroke:#ff0000;"/>
    </defs>
    <g clip-path="url(#pbdfbcdd00f)">
     <use style="fill-opacity:0;stroke:#ff0000;" x="86.773185" xlink:href="#md9805a1344" y="326.328176"/>
     <use style="fill-opacity:0;stroke:#ff0000;" x="103.876937" xlink:href="#md9805a1344" y="322.596282"/>
     <use style="fill-opacity:0;stroke:#ff0000;" x="172.291945" xlink:href="#md9805a1344" y="314.303863"/>
     <use style="fill-opacity:0;stroke:#ff0000;" x="206.499449" xlink:href="#md9805a1344" y="310.755861"/>
     <use style="fill-opacity:0;stroke:#ff0000;" x="274.914458" xlink:href="#md9805a1344" y="306.220465"/>
     <use style="fill-opacity:0;stroke:#ff0000;" x="343.329466" xlink:href="#md9805a1344" y="303.578401"/>
     <use style="fill-opacity:0;stroke:#ff0000;" x="377.53697" xlink:href="#md9805a1344" y="298.935494"/>
     <use style="fill-opacity:0;stroke:#ff0000;" x="445.951978" xlink:href="#md9805a1344" y="296.694454"/>
    </g>
   </g>
   <g id="patch_3">
    <path d="M 66.943522 345.575773 
L 66.943522 63.911226 
" style="fill:none;stroke:#000000;stroke-linecap:square;stroke-linejoin:miter;stroke-width:0.8;"/>
   </g>
   <g id="patch_4">
    <path d="M 464 345.575773 
L 464 63.911226 
" style="fill:none;stroke:#000000;stroke-linecap:square;stroke-linejoin:miter;stroke-width:0.8;"/>
   </g>
   <g id="patch_5">
    <path d="M 66.943522 345.575773 
L 464 345.575773 
" style="fill:none;stroke:#000000;stroke-linecap:square;stroke-linejoin:miter;stroke-width:0.8;"/>
   </g>
   <g id="patch_6">
    <path d="M 66.943522 63.911226 
L 464 63.911226 
" style="fill:none;stroke:#000000;stroke-linecap:square;stroke-linejoin:miter;stroke-width:0.8;"/>
   </g>
   <g id="text_15">
    <!-- $m_{\rm eff}(t)$ vs. $N_{\rm vec}$ -->
    <g transform="translate(190.985779 57.911226)scale(0.24 -0.24)">
     <defs>
      <path d="M 20.59375 29.234375 
C 20.796875 29.84375 23.296875 34.828125 27 38.015625 
C 29.59375 40.40625 33 42.015625 36.90625 42.015625 
C 40.90625 42.015625 42.296875 39.015625 42.296875 35.03125 
C 42.296875 34.421875 42.296875 32.4375 41.09375 27.734375 
L 38.59375 17.46875 
C 37.796875 14.46875 35.90625 7.078125 35.703125 5.984375 
C 35.296875 4.484375 34.703125 1.890625 34.703125 1.5 
C 34.703125 0.09375 35.796875 -1 37.296875 -1 
C 40.296875 -1 40.796875 1.296875 41.703125 4.890625 
L 47.703125 28.734375 
C 47.90625 29.53125 53.09375 42.015625 64.09375 42.015625 
C 68.09375 42.015625 69.5 39.015625 69.5 35.03125 
C 69.5 29.4375 65.59375 18.5625 63.40625 12.578125 
C 62.5 10.171875 62 8.875 62 7.078125 
C 62 2.59375 65.09375 -1 69.90625 -1 
C 79.203125 -1 82.703125 13.671875 82.703125 14.265625 
C 82.703125 14.765625 82.296875 15.171875 81.703125 15.171875 
C 80.796875 15.171875 80.703125 14.875 80.203125 13.171875 
C 77.90625 5.1875 74.203125 1 70.203125 1 
C 69.203125 1 67.59375 1 67.59375 4.203125 
C 67.59375 6.8125 68.796875 10 69.203125 11.09375 
C 71 15.90625 75.5 27.703125 75.5 33.515625 
C 75.5 39.5 72 44 64.40625 44 
C 57.703125 44 52.296875 40.21875 48.296875 34.328125 
C 48 39.71875 44.703125 44 37.203125 44 
C 28.296875 44 23.59375 37.734375 21.796875 35.234375 
C 21.5 40.90625 17.40625 44 13 44 
C 10.09375 44 7.796875 42.609375 5.90625 38.8125 
C 4.09375 35.21875 2.703125 29.140625 2.703125 28.734375 
C 2.703125 28.34375 3.09375 27.84375 3.796875 27.84375 
C 4.59375 27.84375 4.703125 27.9375 5.296875 30.234375 
C 6.796875 36.125 8.703125 42.015625 12.703125 42.015625 
C 15 42.015625 15.796875 40.40625 15.796875 37.421875 
C 15.796875 35.21875 14.796875 31.328125 14.09375 28.234375 
L 11.296875 17.46875 
C 10.90625 15.5625 9.796875 11.078125 9.296875 9.28125 
C 8.59375 6.6875 7.5 2 7.5 1.5 
C 7.5 0.09375 8.59375 -1 10.09375 -1 
C 11.296875 -1 12.703125 -0.40625 13.5 1.09375 
C 13.703125 1.59375 14.59375 5.09375 15.09375 7.078125 
L 17.296875 16.0625 
z
" id="CMMI12-109"/>
      <path d="M 39.90625 40 
L 51.296875 40 
L 51.296875 42.578125 
L 39.703125 42.578125 
L 39.703125 54.59375 
C 39.703125 62.84375 43.90625 68 48.203125 68 
C 49.5 68 51 67.609375 52 66.90625 
C 51.203125 66.703125 49.09375 66.015625 49.09375 63.546875 
C 49.09375 60.953125 51.09375 60.15625 52.5 60.15625 
C 53.90625 60.15625 55.90625 60.953125 55.90625 63.546875 
C 55.90625 67.3125 52.296875 69.59375 48.296875 69.59375 
C 44.40625 69.59375 41.203125 67.703125 38.703125 65.328125 
C 36.40625 68.59375 32.59375 69.59375 28.703125 69.59375 
C 20.90625 69.59375 9.90625 65.125 9.90625 54.203125 
L 9.90625 42.578125 
L 1.90625 42.578125 
L 1.90625 40 
L 9.90625 40 
L 9.90625 6.671875 
C 9.90625 2.875 9.5 2.390625 3.09375 2.390625 
L 3.09375 -0.203125 
C 5.5 0 9.90625 0 12.40625 0 
C 15 0 19.40625 0 21.796875 -0.203125 
L 21.796875 2.390625 
C 15.40625 2.390625 15 2.78125 15 6.671875 
L 15 40 
L 34.796875 40 
L 34.796875 6.671875 
C 34.796875 2.875 34.40625 2.390625 28 2.390625 
L 28 -0.203125 
C 30.40625 0 35 0 37.59375 0 
C 40.5 0 45.59375 0 48.296875 -0.203125 
L 48.296875 2.390625 
C 41.09375 2.390625 39.90625 2.390625 39.90625 6.859375 
z
M 14.796875 42.578125 
L 14.796875 54.203125 
C 14.796875 63.234375 21.796875 68 28.5 68 
C 30 68 33.90625 67.6875 36.296875 65.421875 
C 34.5 65.421875 32.796875 64.625 32.796875 62.140625 
C 32.796875 59.5625 35.09375 58.859375 35.296875 58.859375 
C 34.796875 57.0625 34.796875 55.09375 34.796875 54.390625 
L 34.796875 42.578125 
z
" id="CMR17-11"/>
      <path d="M 30.59375 -24.390625 
C 30.59375 -24.296875 30.59375 -24.09375 30.296875 -23.796875 
C 25.703125 -19.125 13.40625 -6.359375 13.40625 24.703125 
C 13.40625 55.765625 25.5 68.421875 30.40625 73.390625 
C 30.40625 73.5 30.59375 73.703125 30.59375 74 
C 30.59375 74.296875 30.296875 74.5 29.90625 74.5 
C 28.796875 74.5 20.296875 67.125 15.40625 56.15625 
C 10.40625 45.109375 9 34.359375 9 24.8125 
C 9 17.625 9.703125 5.484375 15.703125 -7.359375 
C 20.5 -17.734375 28.703125 -25 29.90625 -25 
C 30.40625 -25 30.59375 -24.796875 30.59375 -24.390625 
z
" id="CMR17-40"/>
      <path d="M 20.09375 40.09375 
L 29.296875 40.09375 
C 31.203125 40.09375 32.203125 40.09375 32.203125 41.890625 
C 32.203125 43 31.59375 43 29.59375 43 
L 20.796875 43 
L 24.5 57.6875 
C 24.90625 59.078125 24.90625 59.28125 24.90625 60 
C 24.90625 61.609375 23.59375 62.5 22.296875 62.5 
C 21.5 62.5 19.203125 62.203125 18.40625 58.984375 
L 14.5 43 
L 5.09375 43 
C 3.09375 43 2.203125 43 2.203125 41.09375 
C 2.203125 40.09375 2.90625 40.09375 4.796875 40.09375 
L 13.703125 40.09375 
L 7.09375 13.765625 
C 6.296875 10.28125 6 9.28125 6 7.984375 
C 6 3.296875 9.296875 -1 14.90625 -1 
C 25 -1 30.40625 13.5625 30.40625 14.25 
C 30.40625 14.859375 30 15.15625 29.40625 15.15625 
C 29.203125 15.15625 28.796875 15.15625 28.59375 14.75 
C 28.5 14.65625 28.40625 14.546875 27.703125 12.953125 
C 25.59375 7.984375 21 1 15.203125 1 
C 12.203125 1 12 3.5 12 5.6875 
C 12 5.78125 12 7.6875 12.296875 8.875 
z
" id="CMMI12-116"/>
      <path d="M 26.296875 24.703125 
C 26.296875 31.875 25.59375 44.015625 19.59375 56.859375 
C 14.796875 67.234375 6.59375 74.5 5.40625 74.5 
C 5.09375 74.5 4.703125 74.390625 4.703125 73.890625 
C 4.703125 73.703125 4.796875 73.59375 4.90625 73.390625 
C 9.703125 68.40625 21.90625 55.75 21.90625 24.75 
C 21.90625 -6.359375 9.796875 -19.015625 4.90625 -24.015625 
C 4.796875 -24.203125 4.703125 -24.3125 4.703125 -24.5 
C 4.703125 -25 5.09375 -25 5.40625 -25 
C 6.5 -25 15 -17.625 19.90625 -6.65625 
C 24.90625 4.390625 26.296875 15.140625 26.296875 24.703125 
z
" id="CMR17-41"/>
      <path d="M 30.90625 42.140625 
C 30.90625 43.953125 30.796875 44.046875 30.203125 44.046875 
C 29.796875 44.046875 29.703125 43.953125 28.5 42.453125 
C 28.203125 42.046875 27.296875 41.03125 27 40.640625 
C 23.796875 44.046875 19.296875 44.046875 17.59375 44.046875 
C 6.5 44.046875 2.5 38.234375 2.5 32.4375 
C 2.5 23.40625 12.703125 21.328125 15.59375 20.703125 
C 21.90625 19.421875 24.09375 19.015625 26.203125 17.203125 
C 27.5 16.015625 29.703125 13.8125 29.703125 10.21875 
C 29.703125 6 27.296875 0.59375 18.09375 0.59375 
C 9.40625 0.59375 6.296875 7.1875 4.5 15.953125 
C 4.203125 17.34375 4.203125 17.453125 3.40625 17.453125 
C 2.59375 17.453125 2.5 17.34375 2.5 15.359375 
L 2.5 0.984375 
C 2.5 -0.796875 2.59375 -0.90625 3.203125 -0.90625 
C 3.703125 -0.90625 3.796875 -0.796875 4.296875 0 
C 4.90625 0.890625 6.40625 3.296875 7 4.3125 
C 9 1.609375 12.5 -1 18.09375 -1 
C 28 -1 33.296875 4.421875 33.296875 12.25 
C 33.296875 17.375 30.59375 20.078125 29.296875 21.28125 
C 26.296875 24.390625 22.796875 25.09375 18.59375 25.890625 
C 13.09375 27.109375 6.09375 28.515625 6.09375 34.640625 
C 6.09375 37.234375 7.5 42.765625 17.59375 42.765625 
C 28.296875 42.765625 28.90625 32.71875 29.09375 29.5 
C 29.203125 29 29.703125 28.890625 30 28.890625 
C 30.90625 28.890625 30.90625 29.203125 30.90625 30.90625 
z
" id="CMR17-115"/>
      <path d="M 16.59375 4.078125 
C 16.59375 6.5625 14.59375 8.15625 12.5 8.15625 
C 10.5 8.15625 8.40625 6.5625 8.40625 4.078125 
C 8.40625 1.59375 10.40625 0 12.5 0 
C 14.5 0 16.59375 1.59375 16.59375 4.078125 
z
" id="CMR17-46"/>
     </defs>
     <use transform="scale(0.996264)" xlink:href="#CMMI12-109"/>
     <use transform="translate(85.327224 -14.943915)scale(0.697382)" xlink:href="#CMR17-101"/>
     <use transform="translate(113.667056 -14.943915)scale(0.697382)" xlink:href="#CMR17-11"/>
     <use transform="translate(154.940123 0)scale(0.996264)" xlink:href="#CMR17-40"/>
     <use transform="translate(190.220891 0)scale(0.996264)" xlink:href="#CMMI12-116"/>
     <use transform="translate(225.447221 0)scale(0.996264)" xlink:href="#CMR17-41"/>
     <use transform="translate(290.803955 0)scale(0.996264)" xlink:href="#CMR17-118"/>
     <use transform="translate(339.096871 0)scale(0.996264)" xlink:href="#CMR17-115"/>
     <use transform="translate(374.898209 0)scale(0.996264)" xlink:href="#CMR17-46"/>
     <use transform="translate(440.254928 0)scale(0.996264)" xlink:href="#CMMI12-78"/>
     <use transform="translate(518.370047 -14.943915)scale(0.697382)" xlink:href="#CMR17-118"/>
     <use transform="translate(550.353213 -14.943915)scale(0.697382)" xlink:href="#CMR17-101"/>
     <use transform="translate(578.693045 -14.943915)scale(0.697382)" xlink:href="#CMR17-99"/>
    </g>
   </g>
   <g id="legend_1">
    <g id="patch_7">
     <path d="M 367.164619 217.393203 
L 452.8 217.393203 
Q 456 217.393203 456 214.193203 
L 456 75.111226 
Q 456 71.911226 452.8 71.911226 
L 367.164619 71.911226 
Q 363.964619 71.911226 363.964619 75.111226 
L 363.964619 214.193203 
Q 363.964619 217.393203 367.164619 217.393203 
z
" style="fill:#ffffff;opacity:0.8;stroke:#cccccc;stroke-linejoin:miter;"/>
    </g>
    <g id="LineCollection_7">
     <path d="M 386.364619 92.868726 
L 386.364619 76.868726 
" style="fill:none;stroke:#8000ff;stroke-width:2;"/>
    </g>
    <g id="line2d_20">
     <path d="M 370.364619 84.868726 
L 402.364619 84.868726 
" style="fill:none;stroke:#8000ff;stroke-linecap:square;stroke-width:2;"/>
    </g>
    <g id="line2d_21">
     <g>
      <use style="fill-opacity:0;stroke:#8000ff;" x="386.364619" xlink:href="#m74fa55362b" y="84.868726"/>
     </g>
    </g>
    <g id="text_16">
     <!-- $t=0$ -->
     <g transform="translate(415.164619 90.468726)scale(0.16 -0.16)">
      <defs>
       <path d="M 64.296875 31.515625 
C 65.796875 31.515625 67.296875 31.515625 67.296875 33.203125 
C 67.296875 35 65.59375 35 63.90625 35 
L 8 35 
C 6.296875 35 4.59375 35 4.59375 33.203125 
C 4.59375 31.515625 6.09375 31.515625 7.59375 31.515625 
z
M 63.90625 14 
C 65.59375 14 67.296875 14 67.296875 15.796875 
C 67.296875 17.484375 65.796875 17.484375 64.296875 17.484375 
L 7.59375 17.484375 
C 6.09375 17.484375 4.59375 17.484375 4.59375 15.796875 
C 4.59375 14 6.296875 14 8 14 
z
" id="CMR17-61"/>
      </defs>
      <use transform="scale(0.996264)" xlink:href="#CMMI12-116"/>
      <use transform="translate(62.900339 0)scale(0.996264)" xlink:href="#CMR17-61"/>
      <use transform="translate(162.289136 0)scale(0.996264)" xlink:href="#CMR17-48"/>
     </g>
    </g>
    <g id="LineCollection_8">
     <path d="M 386.364619 116.353726 
L 386.364619 100.353726 
" style="fill:none;stroke:#1996f3;stroke-width:2;"/>
    </g>
    <g id="line2d_22">
     <path d="M 370.364619 108.353726 
L 402.364619 108.353726 
" style="fill:none;stroke:#1996f3;stroke-linecap:square;stroke-width:2;"/>
    </g>
    <g id="line2d_23">
     <g>
      <use style="fill-opacity:0;stroke:#1996f3;" x="386.364619" xlink:href="#m45c6680b48" y="108.353726"/>
     </g>
    </g>
    <g id="text_17">
     <!-- $t=1$ -->
     <g transform="translate(415.164619 113.953726)scale(0.16 -0.16)">
      <use transform="scale(0.996264)" xlink:href="#CMMI12-116"/>
      <use transform="translate(62.900339 0)scale(0.996264)" xlink:href="#CMR17-61"/>
      <use transform="translate(162.289136 0)scale(0.996264)" xlink:href="#CMR17-49"/>
     </g>
    </g>
    <g id="LineCollection_9">
     <path d="M 386.364619 139.838726 
L 386.364619 123.838726 
" style="fill:none;stroke:#4df3ce;stroke-width:2;"/>
    </g>
    <g id="line2d_24">
     <path d="M 370.364619 131.838726 
L 402.364619 131.838726 
" style="fill:none;stroke:#4df3ce;stroke-linecap:square;stroke-width:2;"/>
    </g>
    <g id="line2d_25">
     <g>
      <use style="fill-opacity:0;stroke:#4df3ce;" x="386.364619" xlink:href="#md00fd00afd" y="131.838726"/>
     </g>
    </g>
    <g id="text_18">
     <!-- $t=2$ -->
     <g transform="translate(415.164619 137.438726)scale(0.16 -0.16)">
      <use transform="scale(0.996264)" xlink:href="#CMMI12-116"/>
      <use transform="translate(62.900339 0)scale(0.996264)" xlink:href="#CMR17-61"/>
      <use transform="translate(162.289136 0)scale(0.996264)" xlink:href="#CMR17-50"/>
     </g>
    </g>
    <g id="LineCollection_10">
     <path d="M 386.364619 163.323726 
L 386.364619 147.323726 
" style="fill:none;stroke:#b2f396;stroke-width:2;"/>
    </g>
    <g id="line2d_26">
     <path d="M 370.364619 155.323726 
L 402.364619 155.323726 
" style="fill:none;stroke:#b2f396;stroke-linecap:square;stroke-width:2;"/>
    </g>
    <g id="line2d_27">
     <g>
      <use style="fill-opacity:0;stroke:#b2f396;" x="386.364619" xlink:href="#m930926ff52" y="155.323726"/>
     </g>
    </g>
    <g id="text_19">
     <!-- $t=3$ -->
     <g transform="translate(415.164619 160.923726)scale(0.16 -0.16)">
      <use transform="scale(0.996264)" xlink:href="#CMMI12-116"/>
      <use transform="translate(62.900339 0)scale(0.996264)" xlink:href="#CMR17-61"/>
      <use transform="translate(162.289136 0)scale(0.996264)" xlink:href="#CMR17-51"/>
     </g>
    </g>
    <g id="LineCollection_11">
     <path d="M 386.364619 186.808726 
L 386.364619 170.808726 
" style="fill:none;stroke:#ff964f;stroke-width:2;"/>
    </g>
    <g id="line2d_28">
     <path d="M 370.364619 178.808726 
L 402.364619 178.808726 
" style="fill:none;stroke:#ff964f;stroke-linecap:square;stroke-width:2;"/>
    </g>
    <g id="line2d_29">
     <g>
      <use style="fill-opacity:0;stroke:#ff964f;" x="386.364619" xlink:href="#m556de5d0f3" y="178.808726"/>
     </g>
    </g>
    <g id="text_20">
     <!-- $t=4$ -->
     <g transform="translate(415.164619 184.408726)scale(0.16 -0.16)">
      <use transform="scale(0.996264)" xlink:href="#CMMI12-116"/>
      <use transform="translate(62.900339 0)scale(0.996264)" xlink:href="#CMR17-61"/>
      <use transform="translate(162.289136 0)scale(0.996264)" xlink:href="#CMR17-52"/>
     </g>
    </g>
    <g id="LineCollection_12">
     <path d="M 386.364619 210.293726 
L 386.364619 194.293726 
" style="fill:none;stroke:#ff0000;stroke-width:2;"/>
    </g>
    <g id="line2d_30">
     <path d="M 370.364619 202.293726 
L 402.364619 202.293726 
" style="fill:none;stroke:#ff0000;stroke-linecap:square;stroke-width:2;"/>
    </g>
    <g id="line2d_31">
     <g>
      <use style="fill-opacity:0;stroke:#ff0000;" x="386.364619" xlink:href="#md9805a1344" y="202.293726"/>
     </g>
    </g>
    <g id="text_21">
     <!-- $t=5$ -->
     <g transform="translate(415.164619 207.893726)scale(0.16 -0.16)">
      <defs>
       <path d="M 11.40625 57.6875 
C 12.40625 57.28125 16.5 56 20.703125 56 
C 30 56 35.09375 61.109375 38 64.0625 
C 38 64.953125 38 65.5 37.40625 65.5 
C 37.296875 65.5 37.09375 65.5 36.296875 65.046875 
C 32.796875 63.40625 28.703125 62.078125 23.703125 62.078125 
C 20.703125 62.078125 16.203125 62.484375 11.296875 64.671875 
C 10.203125 65.171875 10 65.171875 9.90625 65.171875 
C 9.40625 65.171875 9.296875 65.0625 9.296875 63.078125 
L 9.296875 34.421875 
C 9.296875 32.640625 9.296875 32.140625 10.296875 32.140625 
C 10.796875 32.140625 11 32.34375 11.5 33.03125 
C 14.703125 37.515625 19.09375 39.40625 24.09375 39.40625 
C 27.59375 39.40625 35.09375 37.21875 35.09375 20.140625 
C 35.09375 16.953125 35.09375 11.171875 32.09375 6.578125 
C 29.59375 2.484375 25.703125 0.390625 21.40625 0.390625 
C 14.796875 0.390625 8.09375 5 6.296875 12.71875 
C 6.703125 12.609375 7.5 12.421875 7.90625 12.421875 
C 9.203125 12.421875 11.703125 13.125 11.703125 16.21875 
C 11.703125 18.90625 9.796875 20 7.90625 20 
C 5.59375 20 4.09375 18.59375 4.09375 15.796875 
C 4.09375 7.09375 11 -2 21.59375 -2 
C 31.90625 -2 41.703125 6.875 41.703125 19.75 
C 41.703125 31.71875 33.90625 41 24.203125 41 
C 19.09375 41 14.796875 39.109375 11.40625 35.53125 
z
" id="CMR17-53"/>
      </defs>
      <use transform="scale(0.996264)" xlink:href="#CMMI12-116"/>
      <use transform="translate(62.900339 0)scale(0.996264)" xlink:href="#CMR17-61"/>
      <use transform="translate(162.289136 0)scale(0.996264)" xlink:href="#CMR17-53"/>
     </g>
    </g>
   </g>
  </g>
 </g>
 <defs>
  <clipPath id="pbdfbcdd00f">
   <rect height="281.664547" width="397.056478" x="66.943522" y="63.911226"/>
  </clipPath>
 </defs>
</svg>
