<?xml version="1.0" encoding="utf-8" standalone="no"?>
<!DOCTYPE svg PUBLIC "-//W3C//DTD SVG 1.1//EN"
  "http://www.w3.org/Graphics/SVG/1.1/DTD/svg11.dtd">
<!-- Created with matplotlib (https://matplotlib.org/) -->
<svg height="576pt" version="1.1" viewBox="0 0 720 576" width="720pt" xmlns="http://www.w3.org/2000/svg" xmlns:xlink="http://www.w3.org/1999/xlink">
 <metadata>
  <rdf:RDF xmlns:cc="http://creativecommons.org/ns#" xmlns:dc="http://purl.org/dc/elements/1.1/" xmlns:rdf="http://www.w3.org/1999/02/22-rdf-syntax-ns#">
   <cc:Work>
    <dc:type rdf:resource="http://purl.org/dc/dcmitype/StillImage"/>
    <dc:date>2022-11-03T20:42:29.412524</dc:date>
    <dc:format>image/svg+xml</dc:format>
    <dc:creator>
     <cc:Agent>
      <dc:title>Matplotlib v3.3.4, https://matplotlib.org/</dc:title>
     </cc:Agent>
    </dc:creator>
   </cc:Work>
  </rdf:RDF>
 </metadata>
 <defs>
  <style type="text/css">*{stroke-linecap:butt;stroke-linejoin:round;}</style>
 </defs>
 <g id="figure_1">
  <g id="patch_1">
   <path d="M 0 576 
L 720 576 
L 720 0 
L 0 0 
z
" style="fill:#ffffff;"/>
  </g>
  <g id="axes_1">
   <g id="patch_2">
    <path d="M 66.943522 489.575773 
L 680 489.575773 
L 680 87.180449 
L 66.943522 87.180449 
z
" style="fill:#ffffff;"/>
   </g>
   <g id="matplotlib.axis_1">
    <g id="xtick_1">
     <g id="line2d_1">
      <defs>
       <path d="M 0 0 
L 0 3.5 
" id="mf29b9655fb" style="stroke:#000000;stroke-width:0.8;"/>
      </defs>
      <g>
       <use style="stroke:#000000;stroke-width:0.8;" x="94.809726" xlink:href="#mf29b9655fb" y="489.575773"/>
      </g>
     </g>
     <g id="text_1">
      <!-- $\mathdefault{2}$ -->
      <g transform="translate(90.907732 507.645361)scale(0.16 -0.16)">
       <defs>
        <path d="M 41.703125 15.453125 
L 39.90625 15.453125 
C 38.90625 8.375 38.09375 7.171875 37.703125 6.5625 
C 37.203125 5.765625 30 5.765625 28.59375 5.765625 
L 9.40625 5.765625 
C 13 9.671875 20 16.75 28.5 24.953125 
C 34.59375 30.734375 41.703125 37.53125 41.703125 47.421875 
C 41.703125 59.21875 32.296875 66 21.796875 66 
C 10.796875 66 4.09375 56.3125 4.09375 47.34375 
C 4.09375 43.4375 7 42.9375 8.203125 42.9375 
C 9.203125 42.9375 12.203125 43.546875 12.203125 47.03125 
C 12.203125 50.109375 9.59375 51 8.203125 51 
C 7.59375 51 7 50.90625 6.59375 50.703125 
C 8.5 59.21875 14.296875 63.40625 20.40625 63.40625 
C 29.09375 63.40625 34.796875 56.515625 34.796875 47.421875 
C 34.796875 38.734375 29.703125 31.25 24 24.75 
L 4.09375 2.28125 
L 4.09375 0 
L 39.296875 0 
z
" id="CMR17-50"/>
       </defs>
       <use transform="scale(0.996264)" xlink:href="#CMR17-50"/>
      </g>
     </g>
    </g>
    <g id="xtick_2">
     <g id="line2d_2">
      <g>
       <use style="stroke:#000000;stroke-width:0.8;" x="184.494059" xlink:href="#mf29b9655fb" y="489.575773"/>
      </g>
     </g>
     <g id="text_2">
      <!-- $\mathdefault{4}$ -->
      <g transform="translate(180.592066 507.645361)scale(0.16 -0.16)">
       <defs>
        <path d="M 33.59375 64.40625 
C 33.59375 66.5 33.5 66.5 31.703125 66.5 
L 2 19.59375 
L 2 17 
L 27.796875 17 
L 27.796875 7.140625 
C 27.796875 3.5 27.59375 2.5 20.59375 2.5 
L 18.703125 2.5 
L 18.703125 0 
C 21.90625 0 27.296875 0 30.703125 0 
C 34.09375 0 39.5 0 42.703125 0 
L 42.703125 2.5 
L 40.796875 2.5 
C 33.796875 2.5 33.59375 3.5 33.59375 7.140625 
L 33.59375 17 
L 43.796875 17 
L 43.796875 19.59375 
L 33.59375 19.59375 
z
M 28.09375 57.859375 
L 28.09375 19.59375 
L 4 19.59375 
z
" id="CMR17-52"/>
       </defs>
       <use transform="scale(0.996264)" xlink:href="#CMR17-52"/>
      </g>
     </g>
    </g>
    <g id="xtick_3">
     <g id="line2d_3">
      <g>
       <use style="stroke:#000000;stroke-width:0.8;" x="274.178392" xlink:href="#mf29b9655fb" y="489.575773"/>
      </g>
     </g>
     <g id="text_3">
      <!-- $\mathdefault{6}$ -->
      <g transform="translate(270.276399 507.645361)scale(0.16 -0.16)">
       <defs>
        <path d="M 10.59375 34 
C 10.59375 57.65625 21.796875 63 28.296875 63 
C 30.40625 63 35.5 62.640625 37.5 59 
C 35.90625 59 32.90625 59 32.90625 55.515625 
C 32.90625 52.828125 35.09375 51.921875 36.5 51.921875 
C 37.40625 51.921875 40.09375 52.3125 40.09375 55.625 
C 40.09375 61.78125 35.09375 65.296875 28.203125 65.296875 
C 16.296875 65.296875 3.796875 52.96875 3.796875 31 
C 3.796875 3.953125 15.09375 -2 23.09375 -2 
C 32.796875 -2 42 6.671875 42 20.046875 
C 42 32.515625 33.90625 41.59375 23.703125 41.59375 
C 17.59375 41.59375 13.09375 37.609375 10.59375 30.625 
z
M 23.09375 0.390625 
C 10.796875 0.390625 10.796875 18.75 10.796875 22.4375 
C 10.796875 29.625 14.203125 40 23.5 40 
C 25.203125 40 30.09375 40 33.40625 33.125 
C 35.203125 29.21875 35.203125 25.140625 35.203125 20.140625 
C 35.203125 14.75 35.203125 10.78125 33.09375 6.78125 
C 30.90625 2.671875 27.703125 0.390625 23.09375 0.390625 
z
" id="CMR17-54"/>
       </defs>
       <use transform="scale(0.996264)" xlink:href="#CMR17-54"/>
      </g>
     </g>
    </g>
    <g id="xtick_4">
     <g id="line2d_4">
      <g>
       <use style="stroke:#000000;stroke-width:0.8;" x="363.862725" xlink:href="#mf29b9655fb" y="489.575773"/>
      </g>
     </g>
     <g id="text_4">
      <!-- $\mathdefault{8}$ -->
      <g transform="translate(359.960732 507.645361)scale(0.16 -0.16)">
       <defs>
        <path d="M 27.203125 35.375 
C 33.5 38.546875 39.90625 43.328125 39.90625 50.984375 
C 39.90625 60.015625 31.09375 65.296875 23 65.296875 
C 13.90625 65.296875 5.90625 58.734375 5.90625 49.6875 
C 5.90625 47.203125 6.5 42.921875 10.40625 39.140625 
C 11.40625 38.15625 15.59375 35.171875 18.296875 33.28125 
C 13.796875 30.984375 3.296875 25.53125 3.296875 14.59375 
C 3.296875 4.359375 13.09375 -2 22.796875 -2 
C 33.5 -2 42.5 5.65625 42.5 15.78125 
C 42.5 24.84375 36.40625 29.015625 32.40625 31.703125 
z
M 14.09375 44.09375 
C 13.296875 44.59375 9.296875 47.671875 9.296875 52.359375 
C 9.296875 58.421875 15.59375 63 22.796875 63 
C 30.703125 63 36.5 57.4375 36.5 50.96875 
C 36.5 41.703125 26.09375 36.421875 25.59375 36.421875 
C 25.5 36.421875 25.40625 36.421875 24.59375 37.03125 
z
M 32.5 23.734375 
C 34 22.640625 38.796875 19.375 38.796875 13.296875 
C 38.796875 5.953125 31.40625 0.390625 23 0.390625 
C 13.90625 0.390625 7 6.84375 7 14.6875 
C 7 22.546875 13.09375 29.09375 20 32.1875 
z
" id="CMR17-56"/>
       </defs>
       <use transform="scale(0.996264)" xlink:href="#CMR17-56"/>
      </g>
     </g>
    </g>
    <g id="xtick_5">
     <g id="line2d_5">
      <g>
       <use style="stroke:#000000;stroke-width:0.8;" x="453.547059" xlink:href="#mf29b9655fb" y="489.575773"/>
      </g>
     </g>
     <g id="text_5">
      <!-- $\mathdefault{10}$ -->
      <g transform="translate(445.743072 507.645361)scale(0.16 -0.16)">
       <defs>
        <path d="M 26.59375 63.40625 
C 26.59375 65.5 26.5 65.5 25.09375 65.5 
C 21.203125 61.1875 15.296875 59.796875 9.703125 59.796875 
C 9.40625 59.796875 8.90625 59.796875 8.796875 59.5 
C 8.703125 59.296875 8.703125 59.09375 8.703125 57 
C 11.796875 57 17 57.59375 21 59.984375 
L 21 7.203125 
C 21 3.6875 20.796875 2.5 12.203125 2.5 
L 9.203125 2.5 
L 9.203125 0 
C 14 0 19 0 23.796875 0 
C 28.59375 0 33.59375 0 38.40625 0 
L 38.40625 2.5 
L 35.40625 2.5 
C 26.796875 2.5 26.59375 3.59375 26.59375 7.15625 
z
" id="CMR17-49"/>
        <path d="M 42 31.640625 
C 42 37.75 41.90625 48.125 37.703125 56.109375 
C 34 63.109375 28.09375 65.59375 22.90625 65.59375 
C 18.09375 65.59375 12 63.40625 8.203125 56.203125 
C 4.203125 48.71875 3.796875 39.4375 3.796875 31.640625 
C 3.796875 25.953125 3.90625 17.28125 7 9.671875 
C 11.296875 -0.609375 19 -2 22.90625 -2 
C 27.5 -2 34.5 -0.109375 38.59375 9.375 
C 41.59375 16.28125 42 24.359375 42 31.640625 
z
M 22.90625 -0.40625 
C 16.5 -0.40625 12.703125 5.078125 11.296875 12.6875 
C 10.203125 18.5625 10.203125 27.15625 10.203125 32.75 
C 10.203125 40.4375 10.203125 46.828125 11.5 52.921875 
C 13.40625 61.390625 19 64 22.90625 64 
C 27 64 32.296875 61.296875 34.203125 53.125 
C 35.5 47.4375 35.59375 40.734375 35.59375 32.75 
C 35.59375 26.25 35.59375 18.265625 34.40625 12.375 
C 32.296875 1.484375 26.40625 -0.40625 22.90625 -0.40625 
z
" id="CMR17-48"/>
       </defs>
       <use transform="scale(0.996264)" xlink:href="#CMR17-49"/>
       <use transform="translate(45.690477 0)scale(0.996264)" xlink:href="#CMR17-48"/>
      </g>
     </g>
    </g>
    <g id="xtick_6">
     <g id="line2d_6">
      <g>
       <use style="stroke:#000000;stroke-width:0.8;" x="543.231392" xlink:href="#mf29b9655fb" y="489.575773"/>
      </g>
     </g>
     <g id="text_6">
      <!-- $\mathdefault{12}$ -->
      <g transform="translate(535.427405 507.645361)scale(0.16 -0.16)">
       <use transform="scale(0.996264)" xlink:href="#CMR17-49"/>
       <use transform="translate(45.690477 0)scale(0.996264)" xlink:href="#CMR17-50"/>
      </g>
     </g>
    </g>
    <g id="xtick_7">
     <g id="line2d_7">
      <g>
       <use style="stroke:#000000;stroke-width:0.8;" x="632.915725" xlink:href="#mf29b9655fb" y="489.575773"/>
      </g>
     </g>
     <g id="text_7">
      <!-- $\mathdefault{14}$ -->
      <g transform="translate(625.111738 507.645361)scale(0.16 -0.16)">
       <use transform="scale(0.996264)" xlink:href="#CMR17-49"/>
       <use transform="translate(45.690477 0)scale(0.996264)" xlink:href="#CMR17-52"/>
      </g>
     </g>
    </g>
    <g id="text_8">
     <!-- $t$ -->
     <g transform="translate(369.244602 531.349243)scale(0.24 -0.24)">
      <defs>
       <path d="M 20.09375 40.09375 
L 29.296875 40.09375 
C 31.203125 40.09375 32.203125 40.09375 32.203125 41.890625 
C 32.203125 43 31.59375 43 29.59375 43 
L 20.796875 43 
L 24.5 57.6875 
C 24.90625 59.078125 24.90625 59.28125 24.90625 60 
C 24.90625 61.609375 23.59375 62.5 22.296875 62.5 
C 21.5 62.5 19.203125 62.203125 18.40625 58.984375 
L 14.5 43 
L 5.09375 43 
C 3.09375 43 2.203125 43 2.203125 41.09375 
C 2.203125 40.09375 2.90625 40.09375 4.796875 40.09375 
L 13.703125 40.09375 
L 7.09375 13.765625 
C 6.296875 10.28125 6 9.28125 6 7.984375 
C 6 3.296875 9.296875 -1 14.90625 -1 
C 25 -1 30.40625 13.5625 30.40625 14.25 
C 30.40625 14.859375 30 15.15625 29.40625 15.15625 
C 29.203125 15.15625 28.796875 15.15625 28.59375 14.75 
C 28.5 14.65625 28.40625 14.546875 27.703125 12.953125 
C 25.59375 7.984375 21 1 15.203125 1 
C 12.203125 1 12 3.5 12 5.6875 
C 12 5.78125 12 7.6875 12.296875 8.875 
z
" id="CMMI12-116"/>
      </defs>
      <use transform="scale(0.996264)" xlink:href="#CMMI12-116"/>
     </g>
    </g>
   </g>
   <g id="matplotlib.axis_2">
    <g id="ytick_1">
     <g id="line2d_8">
      <defs>
       <path d="M 0 0 
L -3.5 0 
" id="me211837811" style="stroke:#000000;stroke-width:0.8;"/>
      </defs>
      <g>
       <use style="stroke:#000000;stroke-width:0.8;" x="66.943522" xlink:href="#me211837811" y="478.846521"/>
      </g>
     </g>
     <g id="text_9">
      <!-- $\mathdefault{0.2}$ -->
      <g transform="translate(40 484.381315)scale(0.16 -0.16)">
       <defs>
        <path d="M 18.40625 4.796875 
C 18.40625 7.6875 16 9.671875 13.59375 9.671875 
C 10.703125 9.671875 8.703125 7.28125 8.703125 4.890625 
C 8.703125 2 11.09375 0 13.5 0 
C 16.40625 0 18.40625 2.390625 18.40625 4.796875 
z
" id="CMMI12-58"/>
       </defs>
       <use transform="scale(0.996264)" xlink:href="#CMR17-48"/>
       <use transform="translate(45.690477 0)scale(0.996264)" xlink:href="#CMMI12-58"/>
       <use transform="translate(72.787654 0)scale(0.996264)" xlink:href="#CMR17-50"/>
      </g>
     </g>
    </g>
    <g id="ytick_2">
     <g id="line2d_9">
      <g>
       <use style="stroke:#000000;stroke-width:0.8;" x="66.943522" xlink:href="#me211837811" y="408.178174"/>
      </g>
     </g>
     <g id="text_10">
      <!-- $\mathdefault{0.4}$ -->
      <g transform="translate(40 413.712968)scale(0.16 -0.16)">
       <use transform="scale(0.996264)" xlink:href="#CMR17-48"/>
       <use transform="translate(45.690477 0)scale(0.996264)" xlink:href="#CMMI12-58"/>
       <use transform="translate(72.787654 0)scale(0.996264)" xlink:href="#CMR17-52"/>
      </g>
     </g>
    </g>
    <g id="ytick_3">
     <g id="line2d_10">
      <g>
       <use style="stroke:#000000;stroke-width:0.8;" x="66.943522" xlink:href="#me211837811" y="337.509828"/>
      </g>
     </g>
     <g id="text_11">
      <!-- $\mathdefault{0.6}$ -->
      <g transform="translate(40 343.044622)scale(0.16 -0.16)">
       <use transform="scale(0.996264)" xlink:href="#CMR17-48"/>
       <use transform="translate(45.690477 0)scale(0.996264)" xlink:href="#CMMI12-58"/>
       <use transform="translate(72.787654 0)scale(0.996264)" xlink:href="#CMR17-54"/>
      </g>
     </g>
    </g>
    <g id="ytick_4">
     <g id="line2d_11">
      <g>
       <use style="stroke:#000000;stroke-width:0.8;" x="66.943522" xlink:href="#me211837811" y="266.841481"/>
      </g>
     </g>
     <g id="text_12">
      <!-- $\mathdefault{0.8}$ -->
      <g transform="translate(40 272.376275)scale(0.16 -0.16)">
       <use transform="scale(0.996264)" xlink:href="#CMR17-48"/>
       <use transform="translate(45.690477 0)scale(0.996264)" xlink:href="#CMMI12-58"/>
       <use transform="translate(72.787654 0)scale(0.996264)" xlink:href="#CMR17-56"/>
      </g>
     </g>
    </g>
    <g id="ytick_5">
     <g id="line2d_12">
      <g>
       <use style="stroke:#000000;stroke-width:0.8;" x="66.943522" xlink:href="#me211837811" y="196.173135"/>
      </g>
     </g>
     <g id="text_13">
      <!-- $\mathdefault{1.0}$ -->
      <g transform="translate(40 201.707929)scale(0.16 -0.16)">
       <use transform="scale(0.996264)" xlink:href="#CMR17-49"/>
       <use transform="translate(45.690477 0)scale(0.996264)" xlink:href="#CMMI12-58"/>
       <use transform="translate(72.787654 0)scale(0.996264)" xlink:href="#CMR17-48"/>
      </g>
     </g>
    </g>
    <g id="ytick_6">
     <g id="line2d_13">
      <g>
       <use style="stroke:#000000;stroke-width:0.8;" x="66.943522" xlink:href="#me211837811" y="125.504788"/>
      </g>
     </g>
     <g id="text_14">
      <!-- $\mathdefault{1.2}$ -->
      <g transform="translate(40 131.039582)scale(0.16 -0.16)">
       <use transform="scale(0.996264)" xlink:href="#CMR17-49"/>
       <use transform="translate(45.690477 0)scale(0.996264)" xlink:href="#CMMI12-58"/>
       <use transform="translate(72.787654 0)scale(0.996264)" xlink:href="#CMR17-50"/>
      </g>
     </g>
    </g>
   </g>
   <g id="LineCollection_1">
    <path clip-path="url(#p99fd46f8b7)" d="M 94.809726 413.39596 
L 94.809726 403.305568 
" style="fill:none;stroke:#8000ff;stroke-width:2;"/>
    <path clip-path="url(#p99fd46f8b7)" d="M 139.651892 422.329613 
L 139.651892 410.108062 
" style="fill:none;stroke:#8000ff;stroke-width:2;"/>
    <path clip-path="url(#p99fd46f8b7)" d="M 184.494059 432.893427 
L 184.494059 417.617545 
" style="fill:none;stroke:#8000ff;stroke-width:2;"/>
    <path clip-path="url(#p99fd46f8b7)" d="M 229.336226 436.831095 
L 229.336226 418.333311 
" style="fill:none;stroke:#8000ff;stroke-width:2;"/>
    <path clip-path="url(#p99fd46f8b7)" d="M 274.178392 443.479325 
L 274.178392 424.05984 
" style="fill:none;stroke:#8000ff;stroke-width:2;"/>
    <path clip-path="url(#p99fd46f8b7)" d="M 319.020559 443.120524 
L 319.020559 423.507163 
" style="fill:none;stroke:#8000ff;stroke-width:2;"/>
    <path clip-path="url(#p99fd46f8b7)" d="M 363.862725 448.055144 
L 363.862725 426.086603 
" style="fill:none;stroke:#8000ff;stroke-width:2;"/>
    <path clip-path="url(#p99fd46f8b7)" d="M 408.704892 448.505115 
L 408.704892 423.043999 
" style="fill:none;stroke:#8000ff;stroke-width:2;"/>
    <path clip-path="url(#p99fd46f8b7)" d="M 453.547059 447.280406 
L 453.547059 418.089332 
" style="fill:none;stroke:#8000ff;stroke-width:2;"/>
    <path clip-path="url(#p99fd46f8b7)" d="M 498.389225 451.581568 
L 498.389225 418.496741 
" style="fill:none;stroke:#8000ff;stroke-width:2;"/>
    <path clip-path="url(#p99fd46f8b7)" d="M 543.231392 449.692099 
L 543.231392 411.279101 
" style="fill:none;stroke:#8000ff;stroke-width:2;"/>
    <path clip-path="url(#p99fd46f8b7)" d="M 588.073558 451.232542 
L 588.073558 408.08512 
" style="fill:none;stroke:#8000ff;stroke-width:2;"/>
    <path clip-path="url(#p99fd46f8b7)" d="M 632.915725 467.886183 
L 632.915725 370.321167 
" style="fill:none;stroke:#8000ff;stroke-width:2;"/>
   </g>
   <g id="LineCollection_2">
    <path clip-path="url(#p99fd46f8b7)" d="M 98.012738 393.924273 
L 98.012738 389.0243 
" style="fill:none;stroke:#2c7ef7;stroke-width:2;"/>
    <path clip-path="url(#p99fd46f8b7)" d="M 142.854904 409.676834 
L 142.854904 402.049787 
" style="fill:none;stroke:#2c7ef7;stroke-width:2;"/>
    <path clip-path="url(#p99fd46f8b7)" d="M 187.697071 418.865151 
L 187.697071 408.642586 
" style="fill:none;stroke:#2c7ef7;stroke-width:2;"/>
    <path clip-path="url(#p99fd46f8b7)" d="M 232.539238 428.481932 
L 232.539238 415.894214 
" style="fill:none;stroke:#2c7ef7;stroke-width:2;"/>
    <path clip-path="url(#p99fd46f8b7)" d="M 277.381404 433.28848 
L 277.381404 419.064068 
" style="fill:none;stroke:#2c7ef7;stroke-width:2;"/>
    <path clip-path="url(#p99fd46f8b7)" d="M 322.223571 439.372238 
L 322.223571 422.696794 
" style="fill:none;stroke:#2c7ef7;stroke-width:2;"/>
    <path clip-path="url(#p99fd46f8b7)" d="M 367.065737 443.368308 
L 367.065737 425.266321 
" style="fill:none;stroke:#2c7ef7;stroke-width:2;"/>
    <path clip-path="url(#p99fd46f8b7)" d="M 411.907904 446.50227 
L 411.907904 423.159295 
" style="fill:none;stroke:#2c7ef7;stroke-width:2;"/>
    <path clip-path="url(#p99fd46f8b7)" d="M 456.750071 444.401755 
L 456.750071 420.239499 
" style="fill:none;stroke:#2c7ef7;stroke-width:2;"/>
    <path clip-path="url(#p99fd46f8b7)" d="M 501.592237 449.960307 
L 501.592237 418.937804 
" style="fill:none;stroke:#2c7ef7;stroke-width:2;"/>
    <path clip-path="url(#p99fd46f8b7)" d="M 546.434404 451.728807 
L 546.434404 418.640026 
" style="fill:none;stroke:#2c7ef7;stroke-width:2;"/>
    <path clip-path="url(#p99fd46f8b7)" d="M 591.27657 451.54835 
L 591.27657 408.665317 
" style="fill:none;stroke:#2c7ef7;stroke-width:2;"/>
    <path clip-path="url(#p99fd46f8b7)" d="M 636.118737 467.986926 
L 636.118737 372.725863 
" style="fill:none;stroke:#2c7ef7;stroke-width:2;"/>
   </g>
   <g id="LineCollection_3">
    <path clip-path="url(#p99fd46f8b7)" d="M 101.21575 379.824289 
L 101.21575 376.28946 
" style="fill:none;stroke:#2adddd;stroke-width:2;"/>
    <path clip-path="url(#p99fd46f8b7)" d="M 146.057916 398.812641 
L 146.057916 393.050199 
" style="fill:none;stroke:#2adddd;stroke-width:2;"/>
    <path clip-path="url(#p99fd46f8b7)" d="M 190.900083 410.306516 
L 190.900083 401.872994 
" style="fill:none;stroke:#2adddd;stroke-width:2;"/>
    <path clip-path="url(#p99fd46f8b7)" d="M 235.742249 423.046633 
L 235.742249 413.117246 
" style="fill:none;stroke:#2adddd;stroke-width:2;"/>
    <path clip-path="url(#p99fd46f8b7)" d="M 280.584416 430.524582 
L 280.584416 417.131829 
" style="fill:none;stroke:#2adddd;stroke-width:2;"/>
    <path clip-path="url(#p99fd46f8b7)" d="M 325.426583 435.196107 
L 325.426583 421.19815 
" style="fill:none;stroke:#2adddd;stroke-width:2;"/>
    <path clip-path="url(#p99fd46f8b7)" d="M 370.268749 440.420039 
L 370.268749 423.631609 
" style="fill:none;stroke:#2adddd;stroke-width:2;"/>
    <path clip-path="url(#p99fd46f8b7)" d="M 415.110916 443.914976 
L 415.110916 424.389576 
" style="fill:none;stroke:#2adddd;stroke-width:2;"/>
    <path clip-path="url(#p99fd46f8b7)" d="M 459.953082 444.434734 
L 459.953082 422.050619 
" style="fill:none;stroke:#2adddd;stroke-width:2;"/>
    <path clip-path="url(#p99fd46f8b7)" d="M 504.795249 448.677501 
L 504.795249 420.43726 
" style="fill:none;stroke:#2adddd;stroke-width:2;"/>
    <path clip-path="url(#p99fd46f8b7)" d="M 549.637416 452.073761 
L 549.637416 417.121959 
" style="fill:none;stroke:#2adddd;stroke-width:2;"/>
    <path clip-path="url(#p99fd46f8b7)" d="M 594.479582 453.468483 
L 594.479582 408.42618 
" style="fill:none;stroke:#2adddd;stroke-width:2;"/>
    <path clip-path="url(#p99fd46f8b7)" d="M 639.321749 471.285076 
L 639.321749 386.215986 
" style="fill:none;stroke:#2adddd;stroke-width:2;"/>
   </g>
   <g id="LineCollection_4">
    <path clip-path="url(#p99fd46f8b7)" d="M 104.418762 368.815084 
L 104.418762 365.874397 
" style="fill:none;stroke:#80ffb4;stroke-width:2;"/>
    <path clip-path="url(#p99fd46f8b7)" d="M 149.260928 390.923731 
L 149.260928 385.883095 
" style="fill:none;stroke:#80ffb4;stroke-width:2;"/>
    <path clip-path="url(#p99fd46f8b7)" d="M 194.103095 404.64244 
L 194.103095 397.678638 
" style="fill:none;stroke:#80ffb4;stroke-width:2;"/>
    <path clip-path="url(#p99fd46f8b7)" d="M 238.945261 418.337112 
L 238.945261 408.813242 
" style="fill:none;stroke:#80ffb4;stroke-width:2;"/>
    <path clip-path="url(#p99fd46f8b7)" d="M 283.787428 427.388653 
L 283.787428 415.331616 
" style="fill:none;stroke:#80ffb4;stroke-width:2;"/>
    <path clip-path="url(#p99fd46f8b7)" d="M 328.629595 434.067417 
L 328.629595 420.144191 
" style="fill:none;stroke:#80ffb4;stroke-width:2;"/>
    <path clip-path="url(#p99fd46f8b7)" d="M 373.471761 439.00295 
L 373.471761 422.071702 
" style="fill:none;stroke:#80ffb4;stroke-width:2;"/>
    <path clip-path="url(#p99fd46f8b7)" d="M 418.313928 442.96284 
L 418.313928 423.466202 
" style="fill:none;stroke:#80ffb4;stroke-width:2;"/>
    <path clip-path="url(#p99fd46f8b7)" d="M 463.156094 444.42655 
L 463.156094 421.340332 
" style="fill:none;stroke:#80ffb4;stroke-width:2;"/>
    <path clip-path="url(#p99fd46f8b7)" d="M 507.998261 449.148915 
L 507.998261 424.061636 
" style="fill:none;stroke:#80ffb4;stroke-width:2;"/>
    <path clip-path="url(#p99fd46f8b7)" d="M 552.840428 449.30256 
L 552.840428 416.821779 
" style="fill:none;stroke:#80ffb4;stroke-width:2;"/>
    <path clip-path="url(#p99fd46f8b7)" d="M 597.682594 454.214333 
L 597.682594 409.576994 
" style="fill:none;stroke:#80ffb4;stroke-width:2;"/>
    <path clip-path="url(#p99fd46f8b7)" d="M 642.524761 467.846962 
L 642.524761 380.067653 
" style="fill:none;stroke:#80ffb4;stroke-width:2;"/>
   </g>
   <g id="LineCollection_5">
    <path clip-path="url(#p99fd46f8b7)" d="M 107.621773 352.490834 
L 107.621773 350.082512 
" style="fill:none;stroke:#d4dd80;stroke-width:2;"/>
    <path clip-path="url(#p99fd46f8b7)" d="M 152.46394 378.100008 
L 152.46394 373.793654 
" style="fill:none;stroke:#d4dd80;stroke-width:2;"/>
    <path clip-path="url(#p99fd46f8b7)" d="M 197.306107 396.864475 
L 197.306107 390.655371 
" style="fill:none;stroke:#d4dd80;stroke-width:2;"/>
    <path clip-path="url(#p99fd46f8b7)" d="M 242.148273 412.105026 
L 242.148273 403.684791 
" style="fill:none;stroke:#d4dd80;stroke-width:2;"/>
    <path clip-path="url(#p99fd46f8b7)" d="M 286.99044 423.820164 
L 286.99044 412.462339 
" style="fill:none;stroke:#d4dd80;stroke-width:2;"/>
    <path clip-path="url(#p99fd46f8b7)" d="M 331.832606 431.912045 
L 331.832606 418.339797 
" style="fill:none;stroke:#d4dd80;stroke-width:2;"/>
    <path clip-path="url(#p99fd46f8b7)" d="M 376.674773 437.534483 
L 376.674773 421.411503 
" style="fill:none;stroke:#d4dd80;stroke-width:2;"/>
    <path clip-path="url(#p99fd46f8b7)" d="M 421.51694 441.251728 
L 421.51694 421.383459 
" style="fill:none;stroke:#d4dd80;stroke-width:2;"/>
    <path clip-path="url(#p99fd46f8b7)" d="M 466.359106 444.493996 
L 466.359106 422.46057 
" style="fill:none;stroke:#d4dd80;stroke-width:2;"/>
    <path clip-path="url(#p99fd46f8b7)" d="M 511.201273 448.378162 
L 511.201273 420.324417 
" style="fill:none;stroke:#d4dd80;stroke-width:2;"/>
    <path clip-path="url(#p99fd46f8b7)" d="M 556.043439 448.543854 
L 556.043439 414.491163 
" style="fill:none;stroke:#d4dd80;stroke-width:2;"/>
    <path clip-path="url(#p99fd46f8b7)" d="M 600.885606 453.639564 
L 600.885606 409.697116 
" style="fill:none;stroke:#d4dd80;stroke-width:2;"/>
    <path clip-path="url(#p99fd46f8b7)" d="M 645.727773 471.003001 
L 645.727773 377.544031 
" style="fill:none;stroke:#d4dd80;stroke-width:2;"/>
   </g>
   <g id="LineCollection_6">
    <path clip-path="url(#p99fd46f8b7)" d="M 110.824785 340.687293 
L 110.824785 338.366523 
" style="fill:none;stroke:#ff7e41;stroke-width:2;"/>
    <path clip-path="url(#p99fd46f8b7)" d="M 155.666952 369.623309 
L 155.666952 365.343369 
" style="fill:none;stroke:#ff7e41;stroke-width:2;"/>
    <path clip-path="url(#p99fd46f8b7)" d="M 200.509119 390.843911 
L 200.509119 384.826951 
" style="fill:none;stroke:#ff7e41;stroke-width:2;"/>
    <path clip-path="url(#p99fd46f8b7)" d="M 245.351285 407.943143 
L 245.351285 399.743133 
" style="fill:none;stroke:#ff7e41;stroke-width:2;"/>
    <path clip-path="url(#p99fd46f8b7)" d="M 290.193452 421.958294 
L 290.193452 410.768393 
" style="fill:none;stroke:#ff7e41;stroke-width:2;"/>
    <path clip-path="url(#p99fd46f8b7)" d="M 335.035618 430.009231 
L 335.035618 416.986076 
" style="fill:none;stroke:#ff7e41;stroke-width:2;"/>
    <path clip-path="url(#p99fd46f8b7)" d="M 379.877785 435.639452 
L 379.877785 421.157105 
" style="fill:none;stroke:#ff7e41;stroke-width:2;"/>
    <path clip-path="url(#p99fd46f8b7)" d="M 424.719952 441.206645 
L 424.719952 423.915035 
" style="fill:none;stroke:#ff7e41;stroke-width:2;"/>
    <path clip-path="url(#p99fd46f8b7)" d="M 469.562118 441.478311 
L 469.562118 422.357922 
" style="fill:none;stroke:#ff7e41;stroke-width:2;"/>
    <path clip-path="url(#p99fd46f8b7)" d="M 514.404285 445.112007 
L 514.404285 420.887227 
" style="fill:none;stroke:#ff7e41;stroke-width:2;"/>
    <path clip-path="url(#p99fd46f8b7)" d="M 559.246451 451.207852 
L 559.246451 417.968145 
" style="fill:none;stroke:#ff7e41;stroke-width:2;"/>
    <path clip-path="url(#p99fd46f8b7)" d="M 604.088618 452.470564 
L 604.088618 411.026755 
" style="fill:none;stroke:#ff7e41;stroke-width:2;"/>
    <path clip-path="url(#p99fd46f8b7)" d="M 648.930785 471.182139 
L 648.930785 382.563918 
" style="fill:none;stroke:#ff7e41;stroke-width:2;"/>
   </g>
   <g id="LineCollection_7">
    <path clip-path="url(#p99fd46f8b7)" d="M 114.027797 111.793696 
L 114.027797 105.471145 
" style="fill:none;stroke:#ff0000;stroke-width:2;"/>
    <path clip-path="url(#p99fd46f8b7)" d="M 158.869964 227.192371 
L 158.869964 217.926726 
" style="fill:none;stroke:#ff0000;stroke-width:2;"/>
    <path clip-path="url(#p99fd46f8b7)" d="M 203.71213 303.349813 
L 203.71213 290.69164 
" style="fill:none;stroke:#ff0000;stroke-width:2;"/>
    <path clip-path="url(#p99fd46f8b7)" d="M 248.554297 350.784907 
L 248.554297 333.591578 
" style="fill:none;stroke:#ff0000;stroke-width:2;"/>
    <path clip-path="url(#p99fd46f8b7)" d="M 293.396464 377.212433 
L 293.396464 356.843973 
" style="fill:none;stroke:#ff0000;stroke-width:2;"/>
    <path clip-path="url(#p99fd46f8b7)" d="M 338.23863 395.414486 
L 338.23863 369.389874 
" style="fill:none;stroke:#ff0000;stroke-width:2;"/>
    <path clip-path="url(#p99fd46f8b7)" d="M 383.080797 404.474032 
L 383.080797 376.663718 
" style="fill:none;stroke:#ff0000;stroke-width:2;"/>
    <path clip-path="url(#p99fd46f8b7)" d="M 427.922963 415.165586 
L 427.922963 382.200193 
" style="fill:none;stroke:#ff0000;stroke-width:2;"/>
    <path clip-path="url(#p99fd46f8b7)" d="M 472.76513 413.793566 
L 472.76513 379.560485 
" style="fill:none;stroke:#ff0000;stroke-width:2;"/>
    <path clip-path="url(#p99fd46f8b7)" d="M 517.607297 421.417234 
L 517.607297 382.128468 
" style="fill:none;stroke:#ff0000;stroke-width:2;"/>
    <path clip-path="url(#p99fd46f8b7)" d="M 562.449463 425.269048 
L 562.449463 387.340561 
" style="fill:none;stroke:#ff0000;stroke-width:2;"/>
    <path clip-path="url(#p99fd46f8b7)" d="M 607.29163 428.246211 
L 607.29163 383.16132 
" style="fill:none;stroke:#ff0000;stroke-width:2;"/>
    <path clip-path="url(#p99fd46f8b7)" d="M 652.133796 448.124615 
L 652.133796 344.462627 
" style="fill:none;stroke:#ff0000;stroke-width:2;"/>
   </g>
   <g id="line2d_14">
    <path clip-path="url(#p99fd46f8b7)" d="M 94.809726 408.350764 
L 139.651892 416.218837 
L 184.494059 425.255486 
L 229.336226 427.582203 
L 274.178392 433.769582 
L 319.020559 433.313843 
L 363.862725 437.070874 
L 408.704892 435.774557 
L 453.547059 432.684869 
L 498.389225 435.039154 
L 543.231392 430.4856 
L 588.073558 429.658831 
L 632.915725 419.103675 
" style="fill:none;stroke:#8000ff;stroke-linecap:square;stroke-width:2;"/>
   </g>
   <g id="line2d_15">
    <path clip-path="url(#p99fd46f8b7)" d="M 98.012738 391.474286 
L 142.854904 405.863311 
L 187.697071 413.753869 
L 232.539238 422.188073 
L 277.381404 426.176274 
L 322.223571 431.034516 
L 367.065737 434.317314 
L 411.907904 434.830783 
L 456.750071 432.320627 
L 501.592237 434.449056 
L 546.434404 435.184417 
L 591.27657 430.106834 
L 636.118737 420.356395 
" style="fill:none;stroke:#2c7ef7;stroke-linecap:square;stroke-width:2;"/>
   </g>
   <g id="line2d_16">
    <path clip-path="url(#p99fd46f8b7)" d="M 101.21575 378.056875 
L 146.057916 395.93142 
L 190.900083 406.089755 
L 235.742249 418.08194 
L 280.584416 423.828206 
L 325.426583 428.197129 
L 370.268749 432.025824 
L 415.110916 434.152276 
L 459.953082 433.242677 
L 504.795249 434.557381 
L 549.637416 434.59786 
L 594.479582 430.947332 
L 639.321749 428.750531 
" style="fill:none;stroke:#2adddd;stroke-linecap:square;stroke-width:2;"/>
   </g>
   <g id="line2d_17">
    <path clip-path="url(#p99fd46f8b7)" d="M 104.418762 367.34474 
L 149.260928 388.403413 
L 194.103095 401.160539 
L 238.945261 413.575177 
L 283.787428 421.360135 
L 328.629595 427.105804 
L 373.471761 430.537326 
L 418.313928 433.214521 
L 463.156094 432.883441 
L 507.998261 436.605275 
L 552.840428 433.062169 
L 597.682594 431.895663 
L 642.524761 423.957307 
" style="fill:none;stroke:#80ffb4;stroke-linecap:square;stroke-width:2;"/>
   </g>
   <g id="line2d_18">
    <path clip-path="url(#p99fd46f8b7)" d="M 107.621773 351.286673 
L 152.46394 375.946831 
L 197.306107 393.759923 
L 242.148273 407.894909 
L 286.99044 418.141252 
L 331.832606 425.125921 
L 376.674773 429.472993 
L 421.51694 431.317594 
L 466.359106 433.477283 
L 511.201273 434.35129 
L 556.043439 431.517508 
L 600.885606 431.66834 
L 645.727773 424.273516 
" style="fill:none;stroke:#d4dd80;stroke-linecap:square;stroke-width:2;"/>
   </g>
   <g id="line2d_19">
    <path clip-path="url(#p99fd46f8b7)" d="M 110.824785 339.526908 
L 155.666952 367.483339 
L 200.509119 387.835431 
L 245.351285 403.843138 
L 290.193452 416.363344 
L 335.035618 423.497654 
L 379.877785 428.398279 
L 424.719952 432.56084 
L 469.562118 431.918117 
L 514.404285 432.999617 
L 559.246451 434.587999 
L 604.088618 431.748659 
L 648.930785 426.873029 
" style="fill:none;stroke:#ff7e41;stroke-linecap:square;stroke-width:2;"/>
   </g>
   <g id="line2d_20">
    <path clip-path="url(#p99fd46f8b7)" d="M 114.027797 108.63242 
L 158.869964 222.559549 
L 203.71213 297.020727 
L 248.554297 342.188243 
L 293.396464 367.028203 
L 338.23863 382.40218 
L 383.080797 390.568875 
L 427.922963 398.682889 
L 472.76513 396.677026 
L 517.607297 401.772851 
L 562.449463 406.304805 
L 607.29163 405.703765 
L 652.133796 396.293621 
" style="fill:none;stroke:#ff0000;stroke-linecap:square;stroke-width:2;"/>
   </g>
   <g id="patch_3">
    <path d="M 66.943522 489.575773 
L 66.943522 87.180449 
" style="fill:none;stroke:#000000;stroke-linecap:square;stroke-linejoin:miter;stroke-width:0.8;"/>
   </g>
   <g id="patch_4">
    <path d="M 680 489.575773 
L 680 87.180449 
" style="fill:none;stroke:#000000;stroke-linecap:square;stroke-linejoin:miter;stroke-width:0.8;"/>
   </g>
   <g id="patch_5">
    <path d="M 66.943522 489.575773 
L 680 489.575773 
" style="fill:none;stroke:#000000;stroke-linecap:square;stroke-linejoin:miter;stroke-width:0.8;"/>
   </g>
   <g id="patch_6">
    <path d="M 66.943522 87.180449 
L 680 87.180449 
" style="fill:none;stroke:#000000;stroke-linecap:square;stroke-linejoin:miter;stroke-width:0.8;"/>
   </g>
   <g id="text_15">
    <!-- cosh effective mass -->
    <g transform="translate(283.787729 56.604405)scale(0.24 -0.24)">
     <defs>
      <path d="M 34.90625 35 
C 33 35 30.203125 35 30.203125 31.515625 
C 30.203125 28.71875 32.5 27.921875 33.796875 27.921875 
C 34.5 27.921875 37.40625 28.234375 37.40625 31.625 
C 37.40625 38.546875 30.59375 43.796875 22.90625 43.796875 
C 12.296875 43.796875 3.296875 34.03125 3.296875 21.296875 
C 3.296875 8.0625 12.703125 -1 22.90625 -1 
C 35.296875 -1 38.40625 10.578125 38.40625 11.6875 
C 38.40625 12.09375 38.296875 12.390625 37.59375 12.390625 
C 36.90625 12.390625 36.796875 12.296875 36.40625 10.984375 
C 33.796875 2.8125 28.09375 0.796875 23.796875 0.796875 
C 17.40625 0.796875 9.703125 6.671875 9.703125 21.390625 
C 9.703125 36.53125 17.09375 42 23 42 
C 26.90625 42 32.703125 40.203125 34.90625 35 
z
" id="CMR17-99"/>
      <path d="M 43.09375 21.1875 
C 43.09375 34 33.796875 44 22.90625 44 
C 12 44 2.703125 34 2.703125 21.1875 
C 2.703125 8.609375 12 -1 22.90625 -1 
C 33.796875 -1 43.09375 8.609375 43.09375 21.1875 
z
M 22.90625 0.796875 
C 18.203125 0.796875 14.203125 3.59375 11.90625 7.5 
C 9.40625 11.984375 9.09375 17.59375 9.09375 22 
C 9.09375 26.203125 9.296875 31.40625 11.90625 35.90625 
C 13.90625 39.203125 17.796875 42.40625 22.90625 42.40625 
C 27.40625 42.40625 31.203125 39.90625 33.59375 36.40625 
C 36.703125 31.703125 36.703125 25.109375 36.703125 22 
C 36.703125 18.09375 36.5 12.109375 33.796875 7.296875 
C 31 2.703125 26.703125 0.796875 22.90625 0.796875 
z
" id="CMR17-111"/>
      <path d="M 30.90625 42.140625 
C 30.90625 43.953125 30.796875 44.046875 30.203125 44.046875 
C 29.796875 44.046875 29.703125 43.953125 28.5 42.453125 
C 28.203125 42.046875 27.296875 41.03125 27 40.640625 
C 23.796875 44.046875 19.296875 44.046875 17.59375 44.046875 
C 6.5 44.046875 2.5 38.234375 2.5 32.4375 
C 2.5 23.40625 12.703125 21.328125 15.59375 20.703125 
C 21.90625 19.421875 24.09375 19.015625 26.203125 17.203125 
C 27.5 16.015625 29.703125 13.8125 29.703125 10.21875 
C 29.703125 6 27.296875 0.59375 18.09375 0.59375 
C 9.40625 0.59375 6.296875 7.1875 4.5 15.953125 
C 4.203125 17.34375 4.203125 17.453125 3.40625 17.453125 
C 2.59375 17.453125 2.5 17.34375 2.5 15.359375 
L 2.5 0.984375 
C 2.5 -0.796875 2.59375 -0.90625 3.203125 -0.90625 
C 3.703125 -0.90625 3.796875 -0.796875 4.296875 0 
C 4.90625 0.890625 6.40625 3.296875 7 4.3125 
C 9 1.609375 12.5 -1 18.09375 -1 
C 28 -1 33.296875 4.421875 33.296875 12.25 
C 33.296875 17.375 30.59375 20.078125 29.296875 21.28125 
C 26.296875 24.390625 22.796875 25.09375 18.59375 25.890625 
C 13.09375 27.109375 6.09375 28.515625 6.09375 34.640625 
C 6.09375 37.234375 7.5 42.765625 17.59375 42.765625 
C 28.296875 42.765625 28.90625 32.71875 29.09375 29.5 
C 29.203125 29 29.703125 28.890625 30 28.890625 
C 30.90625 28.890625 30.90625 29.203125 30.90625 30.90625 
z
" id="CMR17-115"/>
      <path d="M 41.5 30.203125 
C 41.5 35.296875 40.5 43.59375 28.703125 43.59375 
C 20.5 43.59375 16.5 37 15.296875 33.703125 
L 15.203125 33.703125 
L 15.203125 68.6875 
L 3.296875 67.59375 
L 3.296875 65 
C 9.203125 65 10.09375 64.40625 10.09375 59.640625 
L 10.09375 6.65625 
C 10.09375 2.875 9.703125 2.390625 3.296875 2.390625 
L 3.296875 -0.203125 
C 5.703125 0 10.09375 0 12.703125 0 
C 15.296875 0 19.796875 0 22.203125 -0.203125 
L 22.203125 2.390625 
C 15.796875 2.390625 15.40625 2.78125 15.40625 6.6875 
L 15.40625 25.90625 
C 15.40625 35.109375 21 42 28 42 
C 35.40625 42 36.203125 35.40625 36.203125 30.59375 
L 36.203125 6.6875 
C 36.203125 2.875 35.796875 2.390625 29.40625 2.390625 
L 29.40625 -0.203125 
C 31.796875 0 36.203125 0 38.796875 0 
C 41.40625 0 45.90625 0 48.296875 -0.203125 
L 48.296875 2.390625 
C 41.90625 2.390625 41.5 2.78125 41.5 6.6875 
z
" id="CMR17-104"/>
      <path d="M 38.09375 23 
C 38.5 23.40625 38.5 23.609375 38.5 24.625 
C 38.5 34.96875 33.09375 44 21.703125 44 
C 11.09375 44 2.703125 33.890625 2.703125 21.609375 
C 2.703125 8.609375 12.203125 -1 22.796875 -1 
C 34 -1 38.40625 9.484375 38.40625 11.5625 
C 38.40625 12.25 37.796875 12.25 37.59375 12.25 
C 36.90625 12.25 36.796875 12.046875 36.40625 10.875 
C 34.203125 4.140625 28.703125 0.796875 23.5 0.796875 
C 19.203125 0.796875 14.90625 3.171875 12.203125 7.5 
C 9.09375 12.546875 9.09375 18.375 9.09375 23 
z
M 9.203125 24.5 
C 9.90625 39.140625 17.59375 42.40625 21.59375 42.40625 
C 28.40625 42.40625 33 35.890625 33.09375 24.5 
z
" id="CMR17-101"/>
      <path d="M 39.90625 40 
L 51.296875 40 
L 51.296875 42.578125 
L 39.703125 42.578125 
L 39.703125 54.59375 
C 39.703125 62.84375 43.90625 68 48.203125 68 
C 49.5 68 51 67.609375 52 66.90625 
C 51.203125 66.703125 49.09375 66.015625 49.09375 63.546875 
C 49.09375 60.953125 51.09375 60.15625 52.5 60.15625 
C 53.90625 60.15625 55.90625 60.953125 55.90625 63.546875 
C 55.90625 67.3125 52.296875 69.59375 48.296875 69.59375 
C 44.40625 69.59375 41.203125 67.703125 38.703125 65.328125 
C 36.40625 68.59375 32.59375 69.59375 28.703125 69.59375 
C 20.90625 69.59375 9.90625 65.125 9.90625 54.203125 
L 9.90625 42.578125 
L 1.90625 42.578125 
L 1.90625 40 
L 9.90625 40 
L 9.90625 6.671875 
C 9.90625 2.875 9.5 2.390625 3.09375 2.390625 
L 3.09375 -0.203125 
C 5.5 0 9.90625 0 12.40625 0 
C 15 0 19.40625 0 21.796875 -0.203125 
L 21.796875 2.390625 
C 15.40625 2.390625 15 2.78125 15 6.671875 
L 15 40 
L 34.796875 40 
L 34.796875 6.671875 
C 34.796875 2.875 34.40625 2.390625 28 2.390625 
L 28 -0.203125 
C 30.40625 0 35 0 37.59375 0 
C 40.5 0 45.59375 0 48.296875 -0.203125 
L 48.296875 2.390625 
C 41.09375 2.390625 39.90625 2.390625 39.90625 6.859375 
z
M 14.796875 42.578125 
L 14.796875 54.203125 
C 14.796875 63.234375 21.796875 68 28.5 68 
C 30 68 33.90625 67.6875 36.296875 65.421875 
C 34.5 65.421875 32.796875 64.625 32.796875 62.140625 
C 32.796875 59.5625 35.09375 58.859375 35.296875 58.859375 
C 34.796875 57.0625 34.796875 55.09375 34.796875 54.390625 
L 34.796875 42.578125 
z
" id="CMR17-11"/>
      <path d="M 15.09375 40 
L 29.09375 40 
L 29.09375 42.578125 
L 15.09375 42.578125 
L 15.09375 61 
L 13.296875 61 
C 13.09375 50.703125 9.59375 41.6875 1.09375 41.6875 
L 1.09375 40 
L 9.796875 40 
L 9.796875 12.046875 
C 9.796875 10.15625 9.796875 -1 21.40625 -1 
C 27.296875 -1 30.703125 4.78125 30.703125 12.140625 
L 30.703125 17.8125 
L 28.90625 17.8125 
L 28.90625 12.234375 
C 28.90625 5.375 26.203125 0.796875 22 0.796875 
C 19.09375 0.796875 15.09375 2.78125 15.09375 11.84375 
z
" id="CMR17-116"/>
      <path d="M 15.5 61.078125 
C 15.5 63.265625 13.703125 65.15625 11.40625 65.15625 
C 9.203125 65.15625 7.296875 63.375 7.296875 61.078125 
C 7.296875 58.890625 9.09375 57 11.40625 57 
C 13.59375 57 15.5 58.796875 15.5 61.078125 
z
M 3.796875 42.28125 
L 3.796875 39.703125 
C 9.40625 39.703125 10.203125 39.09375 10.203125 34.328125 
L 10.203125 6.671875 
C 10.203125 2.875 9.796875 2.390625 3.40625 2.390625 
L 3.40625 -0.203125 
C 5.796875 0 10.09375 0 12.59375 0 
C 15 0 19.09375 0 21.40625 -0.203125 
L 21.40625 2.390625 
C 15.5 2.390625 15.296875 2.984375 15.296875 6.5625 
L 15.296875 43.375 
z
" id="CMR17-105"/>
      <path d="M 39.09375 33.796875 
C 40 36 41.59375 40 47.40625 40 
L 47.40625 42.59375 
C 45.5 42.59375 43 42.59375 41.09375 42.59375 
C 39 42.59375 35.703125 42.59375 33.703125 42.6875 
L 33.703125 40.09375 
C 36.203125 39.890625 37.59375 38.703125 37.59375 36.109375 
C 37.59375 35.203125 37.59375 35 37 33.609375 
L 26 5.890625 
L 14.09375 35.71875 
C 13.5 37.015625 13.5 37.203125 13.5 37.609375 
C 13.5 40 16.796875 40 18.296875 40 
L 18.296875 42.6875 
C 15.90625 42.59375 11.5 42.59375 9 42.59375 
C 6.296875 42.59375 3.203125 42.59375 1 42.6875 
L 1 40 
C 4.796875 40 6.90625 40 8.09375 36.90625 
L 22.59375 0.6875 
C 23.203125 -0.796875 23.296875 -1 24.203125 -1 
C 25.09375 -1 25.203125 -0.796875 25.796875 0.6875 
z
" id="CMR17-118"/>
      <path d="M 67.59375 30.203125 
C 67.59375 35.1875 66.703125 43.59375 54.796875 43.59375 
C 48 43.59375 43.296875 39 41.5 33.609375 
L 41.40625 33.609375 
C 40.203125 41.8125 34.296875 43.59375 28.703125 43.59375 
C 20.796875 43.59375 16.703125 37.5 15.203125 33.5 
L 15.09375 33.5 
L 15.09375 43.59375 
L 3.296875 42.5 
L 3.296875 39.90625 
C 9.203125 39.90625 10.09375 39.296875 10.09375 34.5 
L 10.09375 6.6875 
C 10.09375 2.875 9.703125 2.390625 3.296875 2.390625 
L 3.296875 -0.203125 
C 5.703125 0 10.09375 0 12.703125 0 
C 15.296875 0 19.796875 0 22.203125 -0.203125 
L 22.203125 2.390625 
C 15.796875 2.390625 15.40625 2.78125 15.40625 6.6875 
L 15.40625 25.90625 
C 15.40625 35.109375 21 42 28 42 
C 35.40625 42 36.203125 35.40625 36.203125 30.59375 
L 36.203125 6.6875 
C 36.203125 2.875 35.796875 2.390625 29.40625 2.390625 
L 29.40625 -0.203125 
C 31.796875 0 36.203125 0 38.796875 0 
C 41.40625 0 45.90625 0 48.296875 -0.203125 
L 48.296875 2.390625 
C 41.90625 2.390625 41.5 2.78125 41.5 6.6875 
L 41.5 25.90625 
C 41.5 35.109375 47.09375 42 54.09375 42 
C 61.5 42 62.296875 35.40625 62.296875 30.59375 
L 62.296875 6.6875 
C 62.296875 2.875 61.90625 2.390625 55.5 2.390625 
L 55.5 -0.203125 
C 57.90625 0 62.296875 0 64.90625 0 
C 67.5 0 72 0 74.40625 -0.203125 
L 74.40625 2.390625 
C 68 2.390625 67.59375 2.78125 67.59375 6.6875 
z
" id="CMR17-109"/>
      <path d="M 36 25.828125 
C 36 32.375 36 35.84375 31.796875 39.734375 
C 28.09375 43 23.796875 44 20.40625 44 
C 12.5 44 6.796875 37.609375 6.796875 30.796875 
C 6.796875 27 9.796875 27 10.40625 27 
C 11.703125 27 14 27.78125 14 30.53125 
C 14 33 12.09375 34.078125 10.40625 34.078125 
C 10 34.078125 9.5 33.96875 9.203125 33.875 
C 11.296875 40.5 16.703125 42.40625 20.203125 42.40625 
C 25.203125 42.40625 30.703125 37.953125 30.703125 29.453125 
L 30.703125 25 
C 24.796875 25 17.703125 24.203125 12.09375 21.203125 
C 5.796875 17.703125 4 12.703125 4 8.90625 
C 4 1.203125 13 -1 18.296875 -1 
C 23.796875 -1 28.90625 2.171875 31.09375 7.984375 
C 31.296875 3.640625 34.09375 -0.28125 38.5 -0.28125 
C 40.59375 -0.28125 45.90625 1.09375 45.90625 8.859375 
L 45.90625 14.375 
L 44.09375 14.375 
L 44.09375 8.78125 
C 44.09375 2.78125 41.40625 2 40.09375 2 
C 36 2 36 7.15625 36 11.53125 
z
M 30.703125 13.59375 
C 30.703125 4.953125 24.5 0.59375 19 0.59375 
C 14 0.59375 10.09375 4.296875 10.09375 8.90625 
C 10.09375 11.890625 11.40625 17.1875 17.203125 20.390625 
C 22 23.09375 27.5 23.5 30.703125 23.5 
z
" id="CMR17-97"/>
     </defs>
     <use transform="scale(0.996264)" xlink:href="#CMR17-99"/>
     <use transform="translate(40.48566 0)scale(0.996264)" xlink:href="#CMR17-111"/>
     <use transform="translate(86.176138 0)scale(0.996264)" xlink:href="#CMR17-115"/>
     <use transform="translate(121.977475 0)scale(0.996264)" xlink:href="#CMR17-104"/>
     <use transform="translate(202.948811 0)scale(0.996264)" xlink:href="#CMR17-101"/>
     <use transform="translate(243.434472 0)scale(0.996264)" xlink:href="#CMR17-11"/>
     <use transform="translate(295.779149 0)scale(0.996264)" xlink:href="#CMR17-101"/>
     <use transform="translate(336.26481 0)scale(0.996264)" xlink:href="#CMR17-99"/>
     <use transform="translate(376.75047 0)scale(0.996264)" xlink:href="#CMR17-116"/>
     <use transform="translate(412.031238 0)scale(0.996264)" xlink:href="#CMR17-105"/>
     <use transform="translate(436.902296 0)scale(0.996264)" xlink:href="#CMR17-118"/>
     <use transform="translate(482.592758 0)scale(0.996264)" xlink:href="#CMR17-101"/>
     <use transform="translate(553.154385 0)scale(0.996264)" xlink:href="#CMR17-109"/>
     <use transform="translate(630.073975 0)scale(0.996264)" xlink:href="#CMR17-97"/>
     <use transform="translate(675.764452 0)scale(0.996264)" xlink:href="#CMR17-115"/>
     <use transform="translate(711.56579 0)scale(0.996264)" xlink:href="#CMR17-115"/>
    </g>
    <!-- L16T32 beta11p5 kcfgQUENCHED k0p1515 g5meson -->
    <g transform="translate(114.386887 81.180449)scale(0.24 -0.24)">
     <defs>
      <path d="M 54.203125 25.234375 
L 52.40625 25.234375 
C 51.59375 15.359375 50.296875 2.59375 33.203125 2.59375 
L 23.90625 2.59375 
C 19.90625 2.59375 19.703125 3.078125 19.703125 6.46875 
L 19.703125 60.90625 
C 19.703125 64.515625 19.90625 65.5 27.5 65.5 
L 29.703125 65.5 
L 29.703125 68 
C 25.59375 68 20.796875 68 16.703125 68 
C 13.59375 68 8 68 5.09375 68 
L 5.09375 65.5 
C 12 65.5 13.09375 65.5 13.09375 61.015625 
L 13.09375 7.0625 
C 13.09375 2.59375 12 2.59375 5.09375 2.59375 
L 5.09375 0 
L 51.796875 0 
z
" id="CMR17-76"/>
      <path d="M 62.203125 67.59375 
L 4.5 67.59375 
L 2.796875 45.59375 
L 4.59375 45.59375 
C 5.90625 62.125 7.296875 65 22.703125 65 
C 24.5 65 27.40625 65 28.203125 64.90625 
C 30.09375 64.609375 30.09375 63.40625 30.09375 61.125 
L 30.09375 7.171875 
C 30.09375 3.59375 29.796875 2.5 21.5 2.5 
L 18.703125 2.5 
L 18.703125 0 
C 23.5 0 28.5 0 33.40625 0 
C 38.296875 0 43.296875 0 48.09375 0 
L 48.09375 2.5 
L 45.296875 2.5 
C 37 2.5 36.703125 3.59375 36.703125 7.171875 
L 36.703125 61.125 
C 36.703125 63.3125 36.703125 64.515625 38.5 64.90625 
C 39.296875 65 42.203125 65 44 65 
C 59.296875 65 60.796875 62.125 62.09375 45.59375 
L 63.90625 45.59375 
z
" id="CMR17-84"/>
      <path d="M 22.09375 33.703125 
C 31 33.703125 34.90625 25.96875 34.90625 17.03125 
C 34.90625 5 28.5 0.390625 22.703125 0.390625 
C 17.40625 0.390625 8.796875 3.03125 6.09375 10.828125 
C 6.59375 10.625 7.09375 10.625 7.59375 10.625 
C 10 10.625 11.796875 12.21875 11.796875 14.8125 
C 11.796875 17.703125 9.59375 19 7.59375 19 
C 5.90625 19 3.296875 18.203125 3.296875 14.46875 
C 3.296875 5.234375 12.296875 -2 22.90625 -2 
C 34 -2 42.5 6.71875 42.5 16.953125 
C 42.5 26.671875 34.5 33.703125 25 34.796875 
C 32.59375 36.375 39.90625 43.0625 39.90625 52.015625 
C 39.90625 59.6875 32 65.296875 23 65.296875 
C 13.90625 65.296875 5.90625 59.828125 5.90625 52.015625 
C 5.90625 48.59375 8.5 48 9.796875 48 
C 11.90625 48 13.703125 49.296875 13.703125 51.890625 
C 13.703125 54.46875 11.90625 55.765625 9.796875 55.765625 
C 9.40625 55.765625 8.90625 55.765625 8.5 55.578125 
C 11.40625 61.859375 19.296875 63 22.796875 63 
C 26.296875 63 32.90625 61.328125 32.90625 51.875 
C 32.90625 49.109375 32.5 44.1875 29.09375 39.84375 
C 26.09375 36 22.703125 36 19.40625 35.6875 
C 18.90625 35.6875 16.59375 35.453125 16.203125 35.453125 
C 15.5 35.359375 15.09375 35.265625 15.09375 34.5 
C 15.09375 33.796875 15.203125 33.703125 17.203125 33.703125 
z
" id="CMR17-51"/>
      <path d="M 15 68.6875 
L 3.09375 67.59375 
L 3.09375 65 
C 9 65 9.90625 64.40625 9.90625 59.640625 
L 9.90625 -0.203125 
L 11.703125 -0.203125 
L 14.59375 6.890625 
C 17.5 2.203125 21.796875 -1 27.59375 -1 
C 37.59375 -1 47.703125 7.8125 47.703125 21.40625 
C 47.703125 34.1875 38.703125 43.59375 28.59375 43.59375 
C 22.40625 43.59375 18 40.296875 15 36.40625 
z
M 15.203125 31.3125 
C 15.203125 33.09375 15.203125 33.40625 16.59375 35.5 
C 20.5 41.515625 26.09375 42 28 42 
C 31 42 41.296875 40.390625 41.296875 21.5 
C 41.296875 1.6875 29.5 0.59375 27.09375 0.59375 
C 24 0.59375 19.5 1.78125 16.296875 7.59375 
C 15.203125 9.5 15.203125 9.703125 15.203125 11.484375 
z
" id="CMR17-98"/>
      <path d="M 22 -16.609375 
C 15.59375 -16.609375 15.203125 -16.203125 15.203125 -12.328125 
L 15.203125 6.28125 
C 18.09375 2.09375 22.296875 -0.59375 27.59375 -0.59375 
C 37.59375 -0.59375 47.703125 8.171875 47.703125 21.6875 
C 47.703125 34.234375 39 43.78125 28.703125 43.78125 
C 22.703125 43.78125 17.796875 40.5 15 36.53125 
L 15 43.78125 
L 3.09375 42.6875 
L 3.09375 40.109375 
C 9 40.109375 9.90625 39.5 9.90625 34.734375 
L 9.90625 -12.328125 
C 9.90625 -16.109375 9.5 -16.609375 3.09375 -16.609375 
L 3.09375 -19.1875 
C 5.5 -19 9.90625 -19 12.5 -19 
C 15.09375 -19 19.59375 -19 22 -19.1875 
z
M 15.203125 31.4375 
C 15.203125 32.84375 15.203125 34.921875 19.09375 38.609375 
C 19.59375 39.015625 23 42 28 42 
C 35.296875 42 41.296875 32.9375 41.296875 21.59375 
C 41.296875 10.25 34.90625 1 27 1 
C 23.40625 1 19.5 2.6875 16.5 7.375 
C 15.203125 9.5625 15.203125 10.15625 15.203125 11.75 
z
" id="CMR17-112"/>
      <path d="M 11.40625 57.6875 
C 12.40625 57.28125 16.5 56 20.703125 56 
C 30 56 35.09375 61.109375 38 64.0625 
C 38 64.953125 38 65.5 37.40625 65.5 
C 37.296875 65.5 37.09375 65.5 36.296875 65.046875 
C 32.796875 63.40625 28.703125 62.078125 23.703125 62.078125 
C 20.703125 62.078125 16.203125 62.484375 11.296875 64.671875 
C 10.203125 65.171875 10 65.171875 9.90625 65.171875 
C 9.40625 65.171875 9.296875 65.0625 9.296875 63.078125 
L 9.296875 34.421875 
C 9.296875 32.640625 9.296875 32.140625 10.296875 32.140625 
C 10.796875 32.140625 11 32.34375 11.5 33.03125 
C 14.703125 37.515625 19.09375 39.40625 24.09375 39.40625 
C 27.59375 39.40625 35.09375 37.21875 35.09375 20.140625 
C 35.09375 16.953125 35.09375 11.171875 32.09375 6.578125 
C 29.59375 2.484375 25.703125 0.390625 21.40625 0.390625 
C 14.796875 0.390625 8.09375 5 6.296875 12.71875 
C 6.703125 12.609375 7.5 12.421875 7.90625 12.421875 
C 9.203125 12.421875 11.703125 13.125 11.703125 16.21875 
C 11.703125 18.90625 9.796875 20 7.90625 20 
C 5.59375 20 4.09375 18.59375 4.09375 15.796875 
C 4.09375 7.09375 11 -2 21.59375 -2 
C 31.90625 -2 41.703125 6.875 41.703125 19.75 
C 41.703125 31.71875 33.90625 41 24.203125 41 
C 19.09375 41 14.796875 39.109375 11.40625 35.53125 
z
" id="CMR17-53"/>
      <path d="M 26.09375 26.140625 
C 26 26.34375 25.5 26.9375 25.5 27.234375 
C 25.5 27.4375 32.59375 33.921875 33.5 34.71875 
C 39.203125 39.5 42.796875 40 45.40625 40 
L 45.40625 42.703125 
C 44.796875 42.703125 44.59375 42.703125 44.5 42.5 
L 39.59375 42.5 
C 36.796875 42.5 32.5 42.5 29.796875 42.703125 
L 29.796875 40.09375 
C 31.203125 39.984375 32.203125 39.1875 32.203125 37.796875 
C 32.203125 35.796875 30.203125 33.90625 30.09375 33.90625 
L 15 20.140625 
L 15 68.6875 
L 3.09375 67.59375 
L 3.09375 65 
C 9 65 9.90625 64.40625 9.90625 59.640625 
L 9.90625 6.65625 
C 9.90625 2.875 9.5 2.390625 3.09375 2.390625 
L 3.09375 -0.203125 
C 5.5 0 9.90625 0 12.40625 0 
C 14.90625 0 19.296875 0 21.703125 -0.203125 
L 21.703125 2.390625 
C 15.296875 2.390625 14.90625 2.78125 14.90625 6.6875 
L 14.90625 17.65625 
L 21.796875 23.9375 
L 31.90625 8.96875 
C 33.09375 7.171875 34.09375 5.765625 34.09375 4.46875 
C 34.09375 2.6875 32.296875 2.390625 31.09375 2.390625 
L 31.09375 -0.203125 
C 33.5 0 37.796875 0 40.296875 0 
C 42.09375 0 45.796875 0 47.5 0 
L 47.5 2.390625 
C 42.796875 2.390625 41.703125 3.28125 38.703125 7.671875 
z
" id="CMR17-107"/>
      <path d="M 15.296875 40 
L 26.703125 40 
L 26.703125 42.578125 
L 15.09375 42.578125 
L 15.09375 54.59375 
C 15.09375 62.84375 19.296875 68 23.59375 68 
C 24.90625 68 26.40625 67.609375 27.40625 66.90625 
C 26.59375 66.703125 24.5 66.015625 24.5 63.546875 
C 24.5 60.953125 26.5 60.15625 27.90625 60.15625 
C 29.296875 60.15625 31.296875 60.953125 31.296875 63.546875 
C 31.296875 67.3125 27.703125 69.59375 23.703125 69.59375 
C 18 69.59375 10.203125 64.9375 10.203125 54.390625 
L 10.203125 42.578125 
L 2.203125 42.578125 
L 2.203125 40 
L 10.203125 40 
L 10.203125 6.671875 
C 10.203125 2.875 9.796875 2.390625 3.40625 2.390625 
L 3.40625 -0.203125 
C 5.796875 0 10.40625 0 13 0 
C 15.90625 0 21 0 23.703125 -0.203125 
L 23.703125 2.390625 
C 16.5 2.390625 15.296875 2.390625 15.296875 6.859375 
z
" id="CMR17-102"/>
      <path d="M 11.09375 18.1875 
C 13 16.6875 16.296875 15 20.296875 15 
C 28.203125 15 35 21.203125 35 29.5 
C 35 32.09375 34.203125 36.09375 31.203125 39.203125 
C 34 42.0625 38.09375 43 40.40625 43 
C 40.796875 43 41.40625 43 41.90625 42.71875 
C 41.5 42.625 40.59375 42.234375 40.59375 40.703125 
C 40.59375 39.484375 41.5 38.609375 42.796875 38.609375 
C 44.296875 38.609375 45.09375 39.578125 45.09375 40.84375 
C 45.09375 42.671875 43.59375 44.59375 40.40625 44.59375 
C 36.40625 44.59375 32.90625 42.78125 30.09375 40.3125 
C 27.09375 43.015625 23.5 44 20.296875 44 
C 12.40625 44 5.59375 37.796875 5.59375 29.5 
C 5.59375 23.78125 8.90625 20.1875 9.90625 19.1875 
C 6.90625 15.6875 6.90625 11.609375 6.90625 11.109375 
C 6.90625 8.515625 7.90625 4.71875 11.296875 2.625 
C 6.09375 1.328125 2 -2.640625 2 -7.59375 
C 2 -14.734375 11.5 -20 22.90625 -20 
C 33.90625 -20 43.796875 -14.9375 43.796875 -7.484375 
C 43.796875 6 29 6 21.296875 6 
C 19 6 14.90625 6 14.40625 6.109375 
C 11.296875 6.609375 9.203125 9.40625 9.203125 12.90625 
C 9.203125 13.796875 9.203125 16 11.09375 18.1875 
z
M 20.296875 16.6875 
C 11.5 16.6875 11.5 27.5 11.5 29.515625 
C 11.5 31.5 11.5 42.3125 20.296875 42.3125 
C 29.09375 42.3125 29.09375 31.5 29.09375 29.515625 
C 29.09375 27.5 29.09375 16.6875 20.296875 16.6875 
z
M 22.90625 -18.296875 
C 12.90625 -18.296875 6 -13.046875 6 -7.59375 
C 6 -4.515625 7.703125 -1.640625 9.90625 -0.0625 
C 12.40625 1.625 13.40625 1.625 20.203125 1.625 
C 28.40625 1.625 39.796875 1.625 39.796875 -7.59375 
C 39.796875 -13.046875 32.90625 -18.296875 22.90625 -18.296875 
z
" id="CMR17-103"/>
      <path d="M 47.296875 1.296875 
C 59.203125 6.375 67.296875 19.3125 67.296875 34.265625 
C 67.296875 54.671875 52.59375 70 36 70 
C 19 70 4.59375 54.5 4.59375 34.359375 
C 4.59375 14.5 19 -1 36 -1 
C 38.296875 -1 41.5 -0.703125 45.296875 0.59375 
C 47 -11.671875 48.09375 -19 56.703125 -19 
C 67.296875 -19 67.796875 -3.328125 67.796875 -0.515625 
C 67.796875 0.5 67.796875 1.1875 67.09375 1.1875 
C 66.59375 1.1875 66.5 0.484375 66.5 0.28125 
C 65.796875 -9.421875 60.40625 -11.4375 57.203125 -11.4375 
C 51.296875 -11.4375 49.203125 -6.15625 47.296875 1.296875 
z
M 30.59375 1.5625 
C 20.203125 4.84375 12 15.890625 12 34.359375 
C 12 57.984375 25.09375 68.203125 35.90625 68.203125 
C 47.09375 68.203125 59.90625 57.59375 59.90625 34.34375 
C 59.90625 17.5625 53.203125 8.234375 46.5 3.96875 
C 45 9.046875 42.59375 15 36.09375 15 
C 31.296875 15 28.59375 10.8125 28.59375 7.03125 
C 28.59375 4.75 29.5 2.859375 30.59375 1.5625 
z
M 44.90625 3 
C 40.90625 0.890625 37.703125 0.890625 36 0.890625 
C 31.5 0.890625 30.203125 4.921875 30.203125 7.09375 
C 30.203125 10.15625 32.296875 13.40625 36.09375 13.40625 
C 42.5 13.40625 44.09375 7.703125 44.90625 3 
z
" id="CMR17-81"/>
      <path d="M 54 22.390625 
C 54 9.046875 45.296875 0.59375 35.796875 0.59375 
C 30.703125 0.59375 26.09375 3.28125 23.296875 7.453125 
C 20.09375 12.234375 19.703125 18.40625 19.703125 21.890625 
L 19.703125 60.53125 
C 19.703125 65 20.796875 65 27.703125 65 
L 27.703125 67.5 
C 24.796875 67.5 19.5 67.5 16.40625 67.5 
C 13.296875 67.5 8 67.5 5.09375 67.5 
L 5.09375 65 
C 12 65 13.09375 65 13.09375 60.53125 
L 13.09375 22.390625 
C 13.09375 8.0625 24 -2 35.59375 -2 
C 48.59375 -2 56.09375 11.234375 56.09375 21 
L 56.09375 58.84375 
C 56.09375 64.40625 61.203125 65 64.09375 65 
L 64.09375 67.59375 
C 61.796875 67.5 57.59375 67.5 55.09375 67.5 
C 52.59375 67.5 48.296875 67.5 46 67.59375 
L 46 65 
C 54 65 54 60.328125 54 57.84375 
z
" id="CMR17-85"/>
      <path d="M 60.703125 25.234375 
L 58.90625 25.234375 
C 56.703125 10.5625 55.40625 2.59375 37.796875 2.59375 
L 23.90625 2.59375 
C 19.90625 2.59375 19.703125 3.078125 19.703125 6.46875 
L 19.703125 34 
L 29.09375 34 
C 38.5 34 39.40625 30.625 39.40625 22.34375 
L 41.203125 22.34375 
L 41.203125 48.140625 
L 39.40625 48.140625 
C 39.40625 39.953125 38.5 36.59375 29.09375 36.59375 
L 19.703125 36.59375 
L 19.703125 61.140625 
C 19.703125 64.5 19.90625 65 23.90625 65 
L 37.59375 65 
C 53.09375 65 54.90625 58.890625 56.296875 45.765625 
L 58.09375 45.765625 
L 55.703125 67.578125 
L 5.09375 67.578125 
L 5.09375 65 
C 12 65 13.09375 65 13.09375 60.53125 
L 13.09375 7.046875 
C 13.09375 2.59375 12 2.59375 5.09375 2.59375 
L 5.09375 0 
L 57.09375 0 
z
" id="CMR17-69"/>
      <path d="M 20.5 66.40625 
C 19.796875 67.5 19.703125 67.5 17.796875 67.5 
L 5.09375 67.5 
L 5.09375 65 
L 7 65 
C 11 65 12.796875 64.515625 13.09375 64.40625 
L 13.09375 9.53125 
C 13.09375 7.046875 13.09375 2.390625 5.09375 2.390625 
L 5.09375 -0.203125 
C 7.40625 0 11.59375 0 14.09375 0 
C 16.59375 0 20.796875 0 23.09375 -0.203125 
L 23.09375 2.390625 
C 15.09375 2.390625 15.09375 7.046875 15.09375 9.53125 
L 15.09375 63.015625 
C 15.796875 62.421875 15.796875 62.21875 16.5 61.234375 
L 53.59375 1.1875 
C 54.296875 0 54.59375 0 55.09375 0 
C 56.09375 0 56.09375 0.296875 56.09375 2.171875 
L 56.09375 57.890625 
C 56.09375 60.359375 56.09375 65 64.09375 65 
L 64.09375 67.59375 
C 61.796875 67.5 57.59375 67.5 55.09375 67.5 
C 52.59375 67.5 48.40625 67.5 46.09375 67.59375 
L 46.09375 65 
C 54.09375 65 54.09375 60.34375 54.09375 57.859375 
L 54.09375 11.921875 
z
" id="CMR17-78"/>
      <path d="M 62.09375 67.015625 
C 62.09375 68.796875 62 68.90625 61.40625 68.90625 
C 61 68.90625 60.90625 68.796875 60.203125 67.609375 
L 55.796875 59.25 
C 50.90625 65.421875 44.90625 69 37.203125 69 
C 20.09375 69 4.59375 54 4.59375 33.5625 
C 4.59375 12.90625 20.09375 -2 37.296875 -2 
C 52.59375 -2 62.09375 11.40625 62.09375 22.828125 
C 62.09375 23.8125 62.09375 24.21875 61.203125 24.21875 
C 60.40625 24.21875 60.40625 23.921875 60.296875 23.03125 
C 59.5 9.140625 49.5 0.59375 38.703125 0.59375 
C 28.5 0.59375 12.203125 7.734375 12.203125 33.546875 
C 12.203125 59.453125 28.796875 66.40625 38.5 66.40625 
C 49.796875 66.40625 58 56.6875 59.90625 42.890625 
C 60.09375 41.6875 60.09375 41.484375 61 41.484375 
C 62.09375 41.484375 62.09375 41.6875 62.09375 43.484375 
z
" id="CMR17-67"/>
      <path d="M 56.09375 61.015625 
C 56.09375 65.5 57.203125 65.5 64.09375 65.5 
L 64.09375 68 
C 61.203125 68 55.90625 68 52.796875 68 
C 49.703125 68 44.40625 68 41.5 68 
L 41.5 65.5 
C 48.40625 65.5 49.5 65.5 49.5 61 
L 49.5 36.578125 
L 19.703125 36.578125 
L 19.703125 61 
C 19.703125 65.5 20.796875 65.5 27.703125 65.5 
L 27.703125 68 
C 24.796875 68 19.5 68 16.40625 68 
C 13.296875 68 8 68 5.09375 68 
L 5.09375 65.5 
C 12 65.5 13.09375 65.5 13.09375 61.015625 
L 13.09375 6.984375 
C 13.09375 2.5 12 2.5 5.09375 2.5 
L 5.09375 0 
C 8 0 13.296875 0 16.40625 0 
C 19.5 0 24.796875 0 27.703125 0 
L 27.703125 2.5 
C 20.796875 2.5 19.703125 2.5 19.703125 6.96875 
L 19.703125 34 
L 49.5 34 
L 49.5 6.96875 
C 49.5 2.5 48.40625 2.5 41.5 2.5 
L 41.5 0 
C 44.40625 0 49.703125 0 52.796875 0 
C 55.90625 0 61.203125 0 64.09375 0 
L 64.09375 2.5 
C 57.203125 2.5 56.09375 2.5 56.09375 6.984375 
z
" id="CMR17-72"/>
      <path d="M 5.203125 68 
L 5.203125 65.40625 
C 12.09375 65.40625 13.203125 65.40625 13.203125 60.9375 
L 13.203125 7.0625 
C 13.203125 2.59375 12.09375 2.59375 5.203125 2.59375 
L 5.203125 0 
L 37 0 
C 53.09375 0 66 14.734375 66 33.453125 
C 66 52.28125 53.296875 68 37 68 
z
M 23.796875 2.59375 
C 19.796875 2.59375 19.59375 3.078125 19.59375 6.46875 
L 19.59375 61.53125 
C 19.59375 64.921875 19.796875 65.40625 23.796875 65.40625 
L 35 65.40625 
C 43.296875 65.40625 58.59375 60.53125 58.59375 33.453125 
C 58.59375 19.40625 54.5 13.734375 52.59375 11.046875 
C 50.203125 7.96875 44.5 2.59375 35 2.59375 
z
" id="CMR17-68"/>
      <path d="M 41.5 30.203125 
C 41.5 35.296875 40.5 43.59375 28.703125 43.59375 
C 20.796875 43.59375 16.703125 37.5 15.203125 33.5 
L 15.09375 33.5 
L 15.09375 43.59375 
L 3.296875 42.5 
L 3.296875 39.90625 
C 9.203125 39.90625 10.09375 39.296875 10.09375 34.5 
L 10.09375 6.6875 
C 10.09375 2.875 9.703125 2.390625 3.296875 2.390625 
L 3.296875 -0.203125 
C 5.703125 0 10.09375 0 12.703125 0 
C 15.296875 0 19.796875 0 22.203125 -0.203125 
L 22.203125 2.390625 
C 15.796875 2.390625 15.40625 2.78125 15.40625 6.6875 
L 15.40625 25.90625 
C 15.40625 35.109375 21 42 28 42 
C 35.40625 42 36.203125 35.40625 36.203125 30.59375 
L 36.203125 6.6875 
C 36.203125 2.875 35.796875 2.390625 29.40625 2.390625 
L 29.40625 -0.203125 
C 31.796875 0 36.203125 0 38.796875 0 
C 41.40625 0 45.90625 0 48.296875 -0.203125 
L 48.296875 2.390625 
C 41.90625 2.390625 41.5 2.78125 41.5 6.6875 
z
" id="CMR17-110"/>
     </defs>
     <use transform="scale(0.996264)" xlink:href="#CMR17-76"/>
     <use transform="translate(57.381408 0)scale(0.996264)" xlink:href="#CMR17-49"/>
     <use transform="translate(103.071885 0)scale(0.996264)" xlink:href="#CMR17-54"/>
     <use transform="translate(148.762362 0)scale(0.996264)" xlink:href="#CMR17-84"/>
     <use transform="translate(215.272243 0)scale(0.996264)" xlink:href="#CMR17-51"/>
     <use transform="translate(260.96272 0)scale(0.996264)" xlink:href="#CMR17-50"/>
     <use transform="translate(336.729163 0)scale(0.996264)" xlink:href="#CMR17-98"/>
     <use transform="translate(390.226972 0)scale(0.996264)" xlink:href="#CMR17-101"/>
     <use transform="translate(430.712632 0)scale(0.996264)" xlink:href="#CMR17-116"/>
     <use transform="translate(465.9934 0)scale(0.996264)" xlink:href="#CMR17-97"/>
     <use transform="translate(511.683877 0)scale(0.996264)" xlink:href="#CMR17-49"/>
     <use transform="translate(557.374354 0)scale(0.996264)" xlink:href="#CMR17-49"/>
     <use transform="translate(603.064831 0)scale(0.996264)" xlink:href="#CMR17-112"/>
     <use transform="translate(653.960201 0)scale(0.996264)" xlink:href="#CMR17-53"/>
     <use transform="translate(729.726645 0)scale(0.996264)" xlink:href="#CMR17-107"/>
     <use transform="translate(775.417107 0)scale(0.996264)" xlink:href="#CMR17-99"/>
     <use transform="translate(815.902767 0)scale(0.996264)" xlink:href="#CMR17-102"/>
     <use transform="translate(843.376279 0)scale(0.996264)" xlink:href="#CMR17-103"/>
     <use transform="translate(889.066756 0)scale(0.996264)" xlink:href="#CMR17-81"/>
     <use transform="translate(960.781545 0)scale(0.996264)" xlink:href="#CMR17-85"/>
     <use transform="translate(1029.853975 0)scale(0.996264)" xlink:href="#CMR17-69"/>
     <use transform="translate(1092.440275 0)scale(0.996264)" xlink:href="#CMR17-78"/>
     <use transform="translate(1161.512705 0)scale(0.996264)" xlink:href="#CMR17-67"/>
     <use transform="translate(1228.022586 0)scale(0.996264)" xlink:href="#CMR17-72"/>
     <use transform="translate(1297.095015 0)scale(0.996264)" xlink:href="#CMR17-69"/>
     <use transform="translate(1359.681316 0)scale(0.996264)" xlink:href="#CMR17-68"/>
     <use transform="translate(1460.150838 0)scale(0.996264)" xlink:href="#CMR17-107"/>
     <use transform="translate(1508.443754 0)scale(0.996264)" xlink:href="#CMR17-48"/>
     <use transform="translate(1554.134231 0)scale(0.996264)" xlink:href="#CMR17-112"/>
     <use transform="translate(1605.029601 0)scale(0.996264)" xlink:href="#CMR17-49"/>
     <use transform="translate(1650.720078 0)scale(0.996264)" xlink:href="#CMR17-53"/>
     <use transform="translate(1696.410555 0)scale(0.996264)" xlink:href="#CMR17-49"/>
     <use transform="translate(1742.101032 0)scale(0.996264)" xlink:href="#CMR17-53"/>
     <use transform="translate(1817.867476 0)scale(0.996264)" xlink:href="#CMR17-103"/>
     <use transform="translate(1863.557953 0)scale(0.996264)" xlink:href="#CMR17-53"/>
     <use transform="translate(1909.24843 0)scale(0.996264)" xlink:href="#CMR17-109"/>
     <use transform="translate(1986.16802 0)scale(0.996264)" xlink:href="#CMR17-101"/>
     <use transform="translate(2026.65368 0)scale(0.996264)" xlink:href="#CMR17-115"/>
     <use transform="translate(2062.455018 0)scale(0.996264)" xlink:href="#CMR17-111"/>
     <use transform="translate(2108.145495 0)scale(0.996264)" xlink:href="#CMR17-110"/>
    </g>
   </g>
   <g id="legend_1">
    <g id="patch_7">
     <path d="M 525.483386 264.147425 
L 668.8 264.147425 
Q 672 264.147425 672 260.947425 
L 672 98.380449 
Q 672 95.180449 668.8 95.180449 
L 525.483386 95.180449 
Q 522.283386 95.180449 522.283386 98.380449 
L 522.283386 260.947425 
Q 522.283386 264.147425 525.483386 264.147425 
z
" style="fill:#ffffff;opacity:0.8;stroke:#cccccc;stroke-linejoin:miter;"/>
    </g>
    <g id="LineCollection_8">
     <path d="M 544.683386 116.137949 
L 544.683386 100.137949 
" style="fill:none;stroke:#8000ff;stroke-width:2;"/>
    </g>
    <g id="line2d_21">
     <path d="M 528.683386 108.137949 
L 560.683386 108.137949 
" style="fill:none;stroke:#8000ff;stroke-linecap:square;stroke-width:2;"/>
    </g>
    <g id="line2d_22"/>
    <g id="text_16">
     <!-- LapH Nvec8 -->
     <g transform="translate(573.483386 113.737949)scale(0.16 -0.16)">
      <use transform="scale(0.996264)" xlink:href="#CMR17-76"/>
      <use transform="translate(57.381408 0)scale(0.996264)" xlink:href="#CMR17-97"/>
      <use transform="translate(103.071885 0)scale(0.996264)" xlink:href="#CMR17-112"/>
      <use transform="translate(153.967255 0)scale(0.996264)" xlink:href="#CMR17-72"/>
      <use transform="translate(253.115651 0)scale(0.996264)" xlink:href="#CMR17-78"/>
      <use transform="translate(322.188081 0)scale(0.996264)" xlink:href="#CMR17-118"/>
      <use transform="translate(367.878543 0)scale(0.996264)" xlink:href="#CMR17-101"/>
      <use transform="translate(408.364203 0)scale(0.996264)" xlink:href="#CMR17-99"/>
      <use transform="translate(448.849864 0)scale(0.996264)" xlink:href="#CMR17-56"/>
     </g>
    </g>
    <g id="LineCollection_9">
     <path d="M 544.683386 139.622949 
L 544.683386 123.622949 
" style="fill:none;stroke:#2c7ef7;stroke-width:2;"/>
    </g>
    <g id="line2d_23">
     <path d="M 528.683386 131.622949 
L 560.683386 131.622949 
" style="fill:none;stroke:#2c7ef7;stroke-linecap:square;stroke-width:2;"/>
    </g>
    <g id="line2d_24"/>
    <g id="text_17">
     <!-- LapH Nvec16 -->
     <g transform="translate(573.483386 137.222949)scale(0.16 -0.16)">
      <use transform="scale(0.996264)" xlink:href="#CMR17-76"/>
      <use transform="translate(57.381408 0)scale(0.996264)" xlink:href="#CMR17-97"/>
      <use transform="translate(103.071885 0)scale(0.996264)" xlink:href="#CMR17-112"/>
      <use transform="translate(153.967255 0)scale(0.996264)" xlink:href="#CMR17-72"/>
      <use transform="translate(253.115651 0)scale(0.996264)" xlink:href="#CMR17-78"/>
      <use transform="translate(322.188081 0)scale(0.996264)" xlink:href="#CMR17-118"/>
      <use transform="translate(367.878543 0)scale(0.996264)" xlink:href="#CMR17-101"/>
      <use transform="translate(408.364203 0)scale(0.996264)" xlink:href="#CMR17-99"/>
      <use transform="translate(448.849864 0)scale(0.996264)" xlink:href="#CMR17-49"/>
      <use transform="translate(494.540341 0)scale(0.996264)" xlink:href="#CMR17-54"/>
     </g>
    </g>
    <g id="LineCollection_10">
     <path d="M 544.683386 163.107949 
L 544.683386 147.107949 
" style="fill:none;stroke:#2adddd;stroke-width:2;"/>
    </g>
    <g id="line2d_25">
     <path d="M 528.683386 155.107949 
L 560.683386 155.107949 
" style="fill:none;stroke:#2adddd;stroke-linecap:square;stroke-width:2;"/>
    </g>
    <g id="line2d_26"/>
    <g id="text_18">
     <!-- LapH Nvec24 -->
     <g transform="translate(573.483386 160.707949)scale(0.16 -0.16)">
      <use transform="scale(0.996264)" xlink:href="#CMR17-76"/>
      <use transform="translate(57.381408 0)scale(0.996264)" xlink:href="#CMR17-97"/>
      <use transform="translate(103.071885 0)scale(0.996264)" xlink:href="#CMR17-112"/>
      <use transform="translate(153.967255 0)scale(0.996264)" xlink:href="#CMR17-72"/>
      <use transform="translate(253.115651 0)scale(0.996264)" xlink:href="#CMR17-78"/>
      <use transform="translate(322.188081 0)scale(0.996264)" xlink:href="#CMR17-118"/>
      <use transform="translate(367.878543 0)scale(0.996264)" xlink:href="#CMR17-101"/>
      <use transform="translate(408.364203 0)scale(0.996264)" xlink:href="#CMR17-99"/>
      <use transform="translate(448.849864 0)scale(0.996264)" xlink:href="#CMR17-50"/>
      <use transform="translate(494.540341 0)scale(0.996264)" xlink:href="#CMR17-52"/>
     </g>
    </g>
    <g id="LineCollection_11">
     <path d="M 544.683386 186.592949 
L 544.683386 170.592949 
" style="fill:none;stroke:#80ffb4;stroke-width:2;"/>
    </g>
    <g id="line2d_27">
     <path d="M 528.683386 178.592949 
L 560.683386 178.592949 
" style="fill:none;stroke:#80ffb4;stroke-linecap:square;stroke-width:2;"/>
    </g>
    <g id="line2d_28"/>
    <g id="text_19">
     <!-- LapH Nvec32 -->
     <g transform="translate(573.483386 184.192949)scale(0.16 -0.16)">
      <use transform="scale(0.996264)" xlink:href="#CMR17-76"/>
      <use transform="translate(57.381408 0)scale(0.996264)" xlink:href="#CMR17-97"/>
      <use transform="translate(103.071885 0)scale(0.996264)" xlink:href="#CMR17-112"/>
      <use transform="translate(153.967255 0)scale(0.996264)" xlink:href="#CMR17-72"/>
      <use transform="translate(253.115651 0)scale(0.996264)" xlink:href="#CMR17-78"/>
      <use transform="translate(322.188081 0)scale(0.996264)" xlink:href="#CMR17-118"/>
      <use transform="translate(367.878543 0)scale(0.996264)" xlink:href="#CMR17-101"/>
      <use transform="translate(408.364203 0)scale(0.996264)" xlink:href="#CMR17-99"/>
      <use transform="translate(448.849864 0)scale(0.996264)" xlink:href="#CMR17-51"/>
      <use transform="translate(494.540341 0)scale(0.996264)" xlink:href="#CMR17-50"/>
     </g>
    </g>
    <g id="LineCollection_12">
     <path d="M 544.683386 210.077949 
L 544.683386 194.077949 
" style="fill:none;stroke:#d4dd80;stroke-width:2;"/>
    </g>
    <g id="line2d_29">
     <path d="M 528.683386 202.077949 
L 560.683386 202.077949 
" style="fill:none;stroke:#d4dd80;stroke-linecap:square;stroke-width:2;"/>
    </g>
    <g id="line2d_30"/>
    <g id="text_20">
     <!-- LapH Nvec48 -->
     <g transform="translate(573.483386 207.677949)scale(0.16 -0.16)">
      <use transform="scale(0.996264)" xlink:href="#CMR17-76"/>
      <use transform="translate(57.381408 0)scale(0.996264)" xlink:href="#CMR17-97"/>
      <use transform="translate(103.071885 0)scale(0.996264)" xlink:href="#CMR17-112"/>
      <use transform="translate(153.967255 0)scale(0.996264)" xlink:href="#CMR17-72"/>
      <use transform="translate(253.115651 0)scale(0.996264)" xlink:href="#CMR17-78"/>
      <use transform="translate(322.188081 0)scale(0.996264)" xlink:href="#CMR17-118"/>
      <use transform="translate(367.878543 0)scale(0.996264)" xlink:href="#CMR17-101"/>
      <use transform="translate(408.364203 0)scale(0.996264)" xlink:href="#CMR17-99"/>
      <use transform="translate(448.849864 0)scale(0.996264)" xlink:href="#CMR17-52"/>
      <use transform="translate(494.540341 0)scale(0.996264)" xlink:href="#CMR17-56"/>
     </g>
    </g>
    <g id="LineCollection_13">
     <path d="M 544.683386 233.562949 
L 544.683386 217.562949 
" style="fill:none;stroke:#ff7e41;stroke-width:2;"/>
    </g>
    <g id="line2d_31">
     <path d="M 528.683386 225.562949 
L 560.683386 225.562949 
" style="fill:none;stroke:#ff7e41;stroke-linecap:square;stroke-width:2;"/>
    </g>
    <g id="line2d_32"/>
    <g id="text_21">
     <!-- LapH Nvec64 -->
     <g transform="translate(573.483386 231.162949)scale(0.16 -0.16)">
      <use transform="scale(0.996264)" xlink:href="#CMR17-76"/>
      <use transform="translate(57.381408 0)scale(0.996264)" xlink:href="#CMR17-97"/>
      <use transform="translate(103.071885 0)scale(0.996264)" xlink:href="#CMR17-112"/>
      <use transform="translate(153.967255 0)scale(0.996264)" xlink:href="#CMR17-72"/>
      <use transform="translate(253.115651 0)scale(0.996264)" xlink:href="#CMR17-78"/>
      <use transform="translate(322.188081 0)scale(0.996264)" xlink:href="#CMR17-118"/>
      <use transform="translate(367.878543 0)scale(0.996264)" xlink:href="#CMR17-101"/>
      <use transform="translate(408.364203 0)scale(0.996264)" xlink:href="#CMR17-99"/>
      <use transform="translate(448.849864 0)scale(0.996264)" xlink:href="#CMR17-54"/>
      <use transform="translate(494.540341 0)scale(0.996264)" xlink:href="#CMR17-52"/>
     </g>
    </g>
    <g id="LineCollection_14">
     <path d="M 544.683386 257.047949 
L 544.683386 241.047949 
" style="fill:none;stroke:#ff0000;stroke-width:2;"/>
    </g>
    <g id="line2d_33">
     <path d="M 528.683386 249.047949 
L 560.683386 249.047949 
" style="fill:none;stroke:#ff0000;stroke-linecap:square;stroke-width:2;"/>
    </g>
    <g id="line2d_34"/>
    <g id="text_22">
     <!-- point source -->
     <g transform="translate(573.483386 254.647949)scale(0.16 -0.16)">
      <defs>
       <path d="M 29.40625 42.078125 
L 29.40625 39.5 
C 35.296875 39.5 36.203125 38.890625 36.203125 34.15625 
L 36.203125 16.125 
C 36.203125 7.8125 31.703125 0.59375 24.296875 0.59375 
C 16.09375 0.59375 15.40625 5.4375 15.40625 10.59375 
L 15.40625 43.171875 
L 3.296875 42.078125 
L 3.296875 39.5 
C 7.296875 39.5 10 39.5 10.09375 35.53125 
L 10.09375 16.53125 
C 10.09375 9.890625 10.09375 5.640625 12.703125 2.859375 
C 14 1.578125 16.5 -1 23.703125 -1 
C 32.203125 -1 35.5 5.890625 36.296875 7.90625 
L 36.40625 7.90625 
L 36.40625 -0.984375 
L 48.296875 -0.984375 
L 48.296875 2 
C 42.40625 2 41.5 2.59375 41.5 7.390625 
L 41.5 43.171875 
z
" id="CMR17-117"/>
       <path d="M 15 23.390625 
C 15 33 19.09375 42 26.59375 42 
C 27.296875 42 28 41.90625 28.703125 41.59375 
C 28.703125 41.59375 26.5 40.890625 26.5 38.3125 
C 26.5 35.90625 28.40625 34.90625 29.90625 34.90625 
C 31.09375 34.90625 33.296875 35.609375 33.296875 38.40625 
C 33.296875 41.609375 30.09375 43.59375 26.703125 43.59375 
C 19.09375 43.59375 15.796875 36.203125 14.796875 32.703125 
L 14.703125 32.703125 
L 14.703125 43.59375 
L 3.09375 42.5 
L 3.09375 39.90625 
C 9 39.90625 9.90625 39.296875 9.90625 34.5 
L 9.90625 6.6875 
C 9.90625 2.875 9.5 2.390625 3.09375 2.390625 
L 3.09375 -0.203125 
C 5.5 0 10.09375 0 12.703125 0 
C 15.59375 0 20.703125 0 23.40625 -0.203125 
L 23.40625 2.390625 
C 16.203125 2.390625 15 2.390625 15 6.875 
z
" id="CMR17-114"/>
      </defs>
      <use transform="scale(0.996264)" xlink:href="#CMR17-112"/>
      <use transform="translate(53.497809 0)scale(0.996264)" xlink:href="#CMR17-111"/>
      <use transform="translate(99.188286 0)scale(0.996264)" xlink:href="#CMR17-105"/>
      <use transform="translate(124.059344 0)scale(0.996264)" xlink:href="#CMR17-110"/>
      <use transform="translate(172.35226 0)scale(0.996264)" xlink:href="#CMR17-116"/>
      <use transform="translate(237.708994 0)scale(0.996264)" xlink:href="#CMR17-115"/>
      <use transform="translate(273.510332 0)scale(0.996264)" xlink:href="#CMR17-111"/>
      <use transform="translate(319.200809 0)scale(0.996264)" xlink:href="#CMR17-117"/>
      <use transform="translate(370.096179 0)scale(0.996264)" xlink:href="#CMR17-114"/>
      <use transform="translate(405.376946 0)scale(0.996264)" xlink:href="#CMR17-99"/>
      <use transform="translate(445.862607 0)scale(0.996264)" xlink:href="#CMR17-101"/>
     </g>
    </g>
   </g>
  </g>
 </g>
 <defs>
  <clipPath id="p99fd46f8b7">
   <rect height="402.395324" width="613.056478" x="66.943522" y="87.180449"/>
  </clipPath>
 </defs>
</svg>
