<?xml version="1.0" encoding="utf-8" standalone="no"?>
<!DOCTYPE svg PUBLIC "-//W3C//DTD SVG 1.1//EN"
  "http://www.w3.org/Graphics/SVG/1.1/DTD/svg11.dtd">
<!-- Created with matplotlib (https://matplotlib.org/) -->
<svg height="576pt" version="1.1" viewBox="0 0 720 576" width="720pt" xmlns="http://www.w3.org/2000/svg" xmlns:xlink="http://www.w3.org/1999/xlink">
 <metadata>
  <rdf:RDF xmlns:cc="http://creativecommons.org/ns#" xmlns:dc="http://purl.org/dc/elements/1.1/" xmlns:rdf="http://www.w3.org/1999/02/22-rdf-syntax-ns#">
   <cc:Work>
    <dc:type rdf:resource="http://purl.org/dc/dcmitype/StillImage"/>
    <dc:date>2022-11-03T16:07:41.958264</dc:date>
    <dc:format>image/svg+xml</dc:format>
    <dc:creator>
     <cc:Agent>
      <dc:title>Matplotlib v3.3.4, https://matplotlib.org/</dc:title>
     </cc:Agent>
    </dc:creator>
   </cc:Work>
  </rdf:RDF>
 </metadata>
 <defs>
  <style type="text/css">*{stroke-linecap:butt;stroke-linejoin:round;}</style>
 </defs>
 <g id="figure_1">
  <g id="patch_1">
   <path d="M 0 576 
L 720 576 
L 720 0 
L 0 0 
z
" style="fill:#ffffff;"/>
  </g>
  <g id="axes_1">
   <g id="patch_2">
    <path d="M 66.943522 489.575773 
L 680 489.575773 
L 680 87.180449 
L 66.943522 87.180449 
z
" style="fill:#ffffff;"/>
   </g>
   <g id="matplotlib.axis_1">
    <g id="xtick_1">
     <g id="line2d_1">
      <defs>
       <path d="M 0 0 
L 0 3.5 
" id="m73bd68959a" style="stroke:#000000;stroke-width:0.8;"/>
      </defs>
      <g>
       <use style="stroke:#000000;stroke-width:0.8;" x="153.622819" xlink:href="#m73bd68959a" y="489.575773"/>
      </g>
     </g>
     <g id="text_1">
      <!-- $\mathdefault{5}$ -->
      <g transform="translate(149.720825 507.645361)scale(0.16 -0.16)">
       <defs>
        <path d="M 11.40625 57.6875 
C 12.40625 57.28125 16.5 56 20.703125 56 
C 30 56 35.09375 61.109375 38 64.0625 
C 38 64.953125 38 65.5 37.40625 65.5 
C 37.296875 65.5 37.09375 65.5 36.296875 65.046875 
C 32.796875 63.40625 28.703125 62.078125 23.703125 62.078125 
C 20.703125 62.078125 16.203125 62.484375 11.296875 64.671875 
C 10.203125 65.171875 10 65.171875 9.90625 65.171875 
C 9.40625 65.171875 9.296875 65.0625 9.296875 63.078125 
L 9.296875 34.421875 
C 9.296875 32.640625 9.296875 32.140625 10.296875 32.140625 
C 10.796875 32.140625 11 32.34375 11.5 33.03125 
C 14.703125 37.515625 19.09375 39.40625 24.09375 39.40625 
C 27.59375 39.40625 35.09375 37.21875 35.09375 20.140625 
C 35.09375 16.953125 35.09375 11.171875 32.09375 6.578125 
C 29.59375 2.484375 25.703125 0.390625 21.40625 0.390625 
C 14.796875 0.390625 8.09375 5 6.296875 12.71875 
C 6.703125 12.609375 7.5 12.421875 7.90625 12.421875 
C 9.203125 12.421875 11.703125 13.125 11.703125 16.21875 
C 11.703125 18.90625 9.796875 20 7.90625 20 
C 5.59375 20 4.09375 18.59375 4.09375 15.796875 
C 4.09375 7.09375 11 -2 21.59375 -2 
C 31.90625 -2 41.703125 6.875 41.703125 19.75 
C 41.703125 31.71875 33.90625 41 24.203125 41 
C 19.09375 41 14.796875 39.109375 11.40625 35.53125 
z
" id="CMR17-53"/>
       </defs>
       <use transform="scale(0.996264)" xlink:href="#CMR17-53"/>
      </g>
     </g>
    </g>
    <g id="xtick_2">
     <g id="line2d_2">
      <g>
       <use style="stroke:#000000;stroke-width:0.8;" x="251.64464" xlink:href="#m73bd68959a" y="489.575773"/>
      </g>
     </g>
     <g id="text_2">
      <!-- $\mathdefault{10}$ -->
      <g transform="translate(243.840653 507.645361)scale(0.16 -0.16)">
       <defs>
        <path d="M 26.59375 63.40625 
C 26.59375 65.5 26.5 65.5 25.09375 65.5 
C 21.203125 61.1875 15.296875 59.796875 9.703125 59.796875 
C 9.40625 59.796875 8.90625 59.796875 8.796875 59.5 
C 8.703125 59.296875 8.703125 59.09375 8.703125 57 
C 11.796875 57 17 57.59375 21 59.984375 
L 21 7.203125 
C 21 3.6875 20.796875 2.5 12.203125 2.5 
L 9.203125 2.5 
L 9.203125 0 
C 14 0 19 0 23.796875 0 
C 28.59375 0 33.59375 0 38.40625 0 
L 38.40625 2.5 
L 35.40625 2.5 
C 26.796875 2.5 26.59375 3.59375 26.59375 7.15625 
z
" id="CMR17-49"/>
        <path d="M 42 31.640625 
C 42 37.75 41.90625 48.125 37.703125 56.109375 
C 34 63.109375 28.09375 65.59375 22.90625 65.59375 
C 18.09375 65.59375 12 63.40625 8.203125 56.203125 
C 4.203125 48.71875 3.796875 39.4375 3.796875 31.640625 
C 3.796875 25.953125 3.90625 17.28125 7 9.671875 
C 11.296875 -0.609375 19 -2 22.90625 -2 
C 27.5 -2 34.5 -0.109375 38.59375 9.375 
C 41.59375 16.28125 42 24.359375 42 31.640625 
z
M 22.90625 -0.40625 
C 16.5 -0.40625 12.703125 5.078125 11.296875 12.6875 
C 10.203125 18.5625 10.203125 27.15625 10.203125 32.75 
C 10.203125 40.4375 10.203125 46.828125 11.5 52.921875 
C 13.40625 61.390625 19 64 22.90625 64 
C 27 64 32.296875 61.296875 34.203125 53.125 
C 35.5 47.4375 35.59375 40.734375 35.59375 32.75 
C 35.59375 26.25 35.59375 18.265625 34.40625 12.375 
C 32.296875 1.484375 26.40625 -0.40625 22.90625 -0.40625 
z
" id="CMR17-48"/>
       </defs>
       <use transform="scale(0.996264)" xlink:href="#CMR17-49"/>
       <use transform="translate(45.690477 0)scale(0.996264)" xlink:href="#CMR17-48"/>
      </g>
     </g>
    </g>
    <g id="xtick_3">
     <g id="line2d_3">
      <g>
       <use style="stroke:#000000;stroke-width:0.8;" x="349.666462" xlink:href="#m73bd68959a" y="489.575773"/>
      </g>
     </g>
     <g id="text_3">
      <!-- $\mathdefault{15}$ -->
      <g transform="translate(341.862475 507.645361)scale(0.16 -0.16)">
       <use transform="scale(0.996264)" xlink:href="#CMR17-49"/>
       <use transform="translate(45.690477 0)scale(0.996264)" xlink:href="#CMR17-53"/>
      </g>
     </g>
    </g>
    <g id="xtick_4">
     <g id="line2d_4">
      <g>
       <use style="stroke:#000000;stroke-width:0.8;" x="447.688283" xlink:href="#m73bd68959a" y="489.575773"/>
      </g>
     </g>
     <g id="text_4">
      <!-- $\mathdefault{20}$ -->
      <g transform="translate(439.884296 507.645361)scale(0.16 -0.16)">
       <defs>
        <path d="M 41.703125 15.453125 
L 39.90625 15.453125 
C 38.90625 8.375 38.09375 7.171875 37.703125 6.5625 
C 37.203125 5.765625 30 5.765625 28.59375 5.765625 
L 9.40625 5.765625 
C 13 9.671875 20 16.75 28.5 24.953125 
C 34.59375 30.734375 41.703125 37.53125 41.703125 47.421875 
C 41.703125 59.21875 32.296875 66 21.796875 66 
C 10.796875 66 4.09375 56.3125 4.09375 47.34375 
C 4.09375 43.4375 7 42.9375 8.203125 42.9375 
C 9.203125 42.9375 12.203125 43.546875 12.203125 47.03125 
C 12.203125 50.109375 9.59375 51 8.203125 51 
C 7.59375 51 7 50.90625 6.59375 50.703125 
C 8.5 59.21875 14.296875 63.40625 20.40625 63.40625 
C 29.09375 63.40625 34.796875 56.515625 34.796875 47.421875 
C 34.796875 38.734375 29.703125 31.25 24 24.75 
L 4.09375 2.28125 
L 4.09375 0 
L 39.296875 0 
z
" id="CMR17-50"/>
       </defs>
       <use transform="scale(0.996264)" xlink:href="#CMR17-50"/>
       <use transform="translate(45.690477 0)scale(0.996264)" xlink:href="#CMR17-48"/>
      </g>
     </g>
    </g>
    <g id="xtick_5">
     <g id="line2d_5">
      <g>
       <use style="stroke:#000000;stroke-width:0.8;" x="545.710105" xlink:href="#m73bd68959a" y="489.575773"/>
      </g>
     </g>
     <g id="text_5">
      <!-- $\mathdefault{25}$ -->
      <g transform="translate(537.906118 507.645361)scale(0.16 -0.16)">
       <use transform="scale(0.996264)" xlink:href="#CMR17-50"/>
       <use transform="translate(45.690477 0)scale(0.996264)" xlink:href="#CMR17-53"/>
      </g>
     </g>
    </g>
    <g id="xtick_6">
     <g id="line2d_6">
      <g>
       <use style="stroke:#000000;stroke-width:0.8;" x="643.731926" xlink:href="#m73bd68959a" y="489.575773"/>
      </g>
     </g>
     <g id="text_6">
      <!-- $\mathdefault{30}$ -->
      <g transform="translate(635.927939 507.645361)scale(0.16 -0.16)">
       <defs>
        <path d="M 22.09375 33.703125 
C 31 33.703125 34.90625 25.96875 34.90625 17.03125 
C 34.90625 5 28.5 0.390625 22.703125 0.390625 
C 17.40625 0.390625 8.796875 3.03125 6.09375 10.828125 
C 6.59375 10.625 7.09375 10.625 7.59375 10.625 
C 10 10.625 11.796875 12.21875 11.796875 14.8125 
C 11.796875 17.703125 9.59375 19 7.59375 19 
C 5.90625 19 3.296875 18.203125 3.296875 14.46875 
C 3.296875 5.234375 12.296875 -2 22.90625 -2 
C 34 -2 42.5 6.71875 42.5 16.953125 
C 42.5 26.671875 34.5 33.703125 25 34.796875 
C 32.59375 36.375 39.90625 43.0625 39.90625 52.015625 
C 39.90625 59.6875 32 65.296875 23 65.296875 
C 13.90625 65.296875 5.90625 59.828125 5.90625 52.015625 
C 5.90625 48.59375 8.5 48 9.796875 48 
C 11.90625 48 13.703125 49.296875 13.703125 51.890625 
C 13.703125 54.46875 11.90625 55.765625 9.796875 55.765625 
C 9.40625 55.765625 8.90625 55.765625 8.5 55.578125 
C 11.40625 61.859375 19.296875 63 22.796875 63 
C 26.296875 63 32.90625 61.328125 32.90625 51.875 
C 32.90625 49.109375 32.5 44.1875 29.09375 39.84375 
C 26.09375 36 22.703125 36 19.40625 35.6875 
C 18.90625 35.6875 16.59375 35.453125 16.203125 35.453125 
C 15.5 35.359375 15.09375 35.265625 15.09375 34.5 
C 15.09375 33.796875 15.203125 33.703125 17.203125 33.703125 
z
" id="CMR17-51"/>
       </defs>
       <use transform="scale(0.996264)" xlink:href="#CMR17-51"/>
       <use transform="translate(45.690477 0)scale(0.996264)" xlink:href="#CMR17-48"/>
      </g>
     </g>
    </g>
    <g id="text_7">
     <!-- $t$ -->
     <g transform="translate(369.244602 531.349243)scale(0.24 -0.24)">
      <defs>
       <path d="M 20.09375 40.09375 
L 29.296875 40.09375 
C 31.203125 40.09375 32.203125 40.09375 32.203125 41.890625 
C 32.203125 43 31.59375 43 29.59375 43 
L 20.796875 43 
L 24.5 57.6875 
C 24.90625 59.078125 24.90625 59.28125 24.90625 60 
C 24.90625 61.609375 23.59375 62.5 22.296875 62.5 
C 21.5 62.5 19.203125 62.203125 18.40625 58.984375 
L 14.5 43 
L 5.09375 43 
C 3.09375 43 2.203125 43 2.203125 41.09375 
C 2.203125 40.09375 2.90625 40.09375 4.796875 40.09375 
L 13.703125 40.09375 
L 7.09375 13.765625 
C 6.296875 10.28125 6 9.28125 6 7.984375 
C 6 3.296875 9.296875 -1 14.90625 -1 
C 25 -1 30.40625 13.5625 30.40625 14.25 
C 30.40625 14.859375 30 15.15625 29.40625 15.15625 
C 29.203125 15.15625 28.796875 15.15625 28.59375 14.75 
C 28.5 14.65625 28.40625 14.546875 27.703125 12.953125 
C 25.59375 7.984375 21 1 15.203125 1 
C 12.203125 1 12 3.5 12 5.6875 
C 12 5.78125 12 7.6875 12.296875 8.875 
z
" id="CMMI12-116"/>
      </defs>
      <use transform="scale(0.996264)" xlink:href="#CMMI12-116"/>
     </g>
    </g>
   </g>
   <g id="matplotlib.axis_2">
    <g id="ytick_1">
     <g id="line2d_7">
      <defs>
       <path d="M 0 0 
L -3.5 0 
" id="md974c54bbd" style="stroke:#000000;stroke-width:0.8;"/>
      </defs>
      <g>
       <use style="stroke:#000000;stroke-width:0.8;" x="66.943522" xlink:href="#md974c54bbd" y="467.084008"/>
      </g>
     </g>
     <g id="text_8">
      <!-- $\mathdefault{0.0}$ -->
      <g transform="translate(40 472.618802)scale(0.16 -0.16)">
       <defs>
        <path d="M 18.40625 4.796875 
C 18.40625 7.6875 16 9.671875 13.59375 9.671875 
C 10.703125 9.671875 8.703125 7.28125 8.703125 4.890625 
C 8.703125 2 11.09375 0 13.5 0 
C 16.40625 0 18.40625 2.390625 18.40625 4.796875 
z
" id="CMMI12-58"/>
       </defs>
       <use transform="scale(0.996264)" xlink:href="#CMR17-48"/>
       <use transform="translate(45.690477 0)scale(0.996264)" xlink:href="#CMMI12-58"/>
       <use transform="translate(72.787654 0)scale(0.996264)" xlink:href="#CMR17-48"/>
      </g>
     </g>
    </g>
    <g id="ytick_2">
     <g id="line2d_8">
      <g>
       <use style="stroke:#000000;stroke-width:0.8;" x="66.943522" xlink:href="#md974c54bbd" y="394.140061"/>
      </g>
     </g>
     <g id="text_9">
      <!-- $\mathdefault{0.1}$ -->
      <g transform="translate(40 399.674856)scale(0.16 -0.16)">
       <use transform="scale(0.996264)" xlink:href="#CMR17-48"/>
       <use transform="translate(45.690477 0)scale(0.996264)" xlink:href="#CMMI12-58"/>
       <use transform="translate(72.787654 0)scale(0.996264)" xlink:href="#CMR17-49"/>
      </g>
     </g>
    </g>
    <g id="ytick_3">
     <g id="line2d_9">
      <g>
       <use style="stroke:#000000;stroke-width:0.8;" x="66.943522" xlink:href="#md974c54bbd" y="321.196115"/>
      </g>
     </g>
     <g id="text_10">
      <!-- $\mathdefault{0.2}$ -->
      <g transform="translate(40 326.73091)scale(0.16 -0.16)">
       <use transform="scale(0.996264)" xlink:href="#CMR17-48"/>
       <use transform="translate(45.690477 0)scale(0.996264)" xlink:href="#CMMI12-58"/>
       <use transform="translate(72.787654 0)scale(0.996264)" xlink:href="#CMR17-50"/>
      </g>
     </g>
    </g>
    <g id="ytick_4">
     <g id="line2d_10">
      <g>
       <use style="stroke:#000000;stroke-width:0.8;" x="66.943522" xlink:href="#md974c54bbd" y="248.252169"/>
      </g>
     </g>
     <g id="text_11">
      <!-- $\mathdefault{0.3}$ -->
      <g transform="translate(40 253.786963)scale(0.16 -0.16)">
       <use transform="scale(0.996264)" xlink:href="#CMR17-48"/>
       <use transform="translate(45.690477 0)scale(0.996264)" xlink:href="#CMMI12-58"/>
       <use transform="translate(72.787654 0)scale(0.996264)" xlink:href="#CMR17-51"/>
      </g>
     </g>
    </g>
    <g id="ytick_5">
     <g id="line2d_11">
      <g>
       <use style="stroke:#000000;stroke-width:0.8;" x="66.943522" xlink:href="#md974c54bbd" y="175.308223"/>
      </g>
     </g>
     <g id="text_12">
      <!-- $\mathdefault{0.4}$ -->
      <g transform="translate(40 180.843017)scale(0.16 -0.16)">
       <defs>
        <path d="M 33.59375 64.40625 
C 33.59375 66.5 33.5 66.5 31.703125 66.5 
L 2 19.59375 
L 2 17 
L 27.796875 17 
L 27.796875 7.140625 
C 27.796875 3.5 27.59375 2.5 20.59375 2.5 
L 18.703125 2.5 
L 18.703125 0 
C 21.90625 0 27.296875 0 30.703125 0 
C 34.09375 0 39.5 0 42.703125 0 
L 42.703125 2.5 
L 40.796875 2.5 
C 33.796875 2.5 33.59375 3.5 33.59375 7.140625 
L 33.59375 17 
L 43.796875 17 
L 43.796875 19.59375 
L 33.59375 19.59375 
z
M 28.09375 57.859375 
L 28.09375 19.59375 
L 4 19.59375 
z
" id="CMR17-52"/>
       </defs>
       <use transform="scale(0.996264)" xlink:href="#CMR17-48"/>
       <use transform="translate(45.690477 0)scale(0.996264)" xlink:href="#CMMI12-58"/>
       <use transform="translate(72.787654 0)scale(0.996264)" xlink:href="#CMR17-52"/>
      </g>
     </g>
    </g>
    <g id="ytick_6">
     <g id="line2d_12">
      <g>
       <use style="stroke:#000000;stroke-width:0.8;" x="66.943522" xlink:href="#md974c54bbd" y="102.364277"/>
      </g>
     </g>
     <g id="text_13">
      <!-- $\mathdefault{0.5}$ -->
      <g transform="translate(40 107.899071)scale(0.16 -0.16)">
       <use transform="scale(0.996264)" xlink:href="#CMR17-48"/>
       <use transform="translate(45.690477 0)scale(0.996264)" xlink:href="#CMMI12-58"/>
       <use transform="translate(72.787654 0)scale(0.996264)" xlink:href="#CMR17-53"/>
      </g>
     </g>
    </g>
   </g>
   <g id="LineCollection_1">
    <path clip-path="url(#p3570698773)" d="M 94.809726 239.683889 
L 94.809726 228.984882 
" style="fill:none;stroke:#8000ff;stroke-width:2;"/>
    <path clip-path="url(#p3570698773)" d="M 114.41409 262.12571 
L 114.41409 249.977248 
" style="fill:none;stroke:#8000ff;stroke-width:2;"/>
    <path clip-path="url(#p3570698773)" d="M 134.018454 262.846527 
L 134.018454 250.243649 
" style="fill:none;stroke:#8000ff;stroke-width:2;"/>
    <path clip-path="url(#p3570698773)" d="M 153.622819 270.389432 
L 153.622819 257.513466 
" style="fill:none;stroke:#8000ff;stroke-width:2;"/>
    <path clip-path="url(#p3570698773)" d="M 173.227183 267.556744 
L 173.227183 255.077808 
" style="fill:none;stroke:#8000ff;stroke-width:2;"/>
    <path clip-path="url(#p3570698773)" d="M 192.831547 281.855838 
L 192.831547 266.036898 
" style="fill:none;stroke:#8000ff;stroke-width:2;"/>
    <path clip-path="url(#p3570698773)" d="M 212.435912 274.774629 
L 212.435912 257.874219 
" style="fill:none;stroke:#8000ff;stroke-width:2;"/>
    <path clip-path="url(#p3570698773)" d="M 232.040276 274.713235 
L 232.040276 257.131102 
" style="fill:none;stroke:#8000ff;stroke-width:2;"/>
    <path clip-path="url(#p3570698773)" d="M 251.64464 289.435734 
L 251.64464 269.699895 
" style="fill:none;stroke:#8000ff;stroke-width:2;"/>
    <path clip-path="url(#p3570698773)" d="M 271.249005 283.458184 
L 271.249005 261.842205 
" style="fill:none;stroke:#8000ff;stroke-width:2;"/>
    <path clip-path="url(#p3570698773)" d="M 290.853369 291.050553 
L 290.853369 266.678736 
" style="fill:none;stroke:#8000ff;stroke-width:2;"/>
    <path clip-path="url(#p3570698773)" d="M 310.457733 292.305036 
L 310.457733 267.022365 
" style="fill:none;stroke:#8000ff;stroke-width:2;"/>
    <path clip-path="url(#p3570698773)" d="M 330.062097 283.832463 
L 330.062097 252.702199 
" style="fill:none;stroke:#8000ff;stroke-width:2;"/>
    <path clip-path="url(#p3570698773)" d="M 349.666462 294.794616 
L 349.666462 260.134037 
" style="fill:none;stroke:#8000ff;stroke-width:2;"/>
    <path clip-path="url(#p3570698773)" d="M 369.270826 308.593729 
L 369.270826 269.786147 
" style="fill:none;stroke:#8000ff;stroke-width:2;"/>
    <path clip-path="url(#p3570698773)" d="M 388.87519 297.66533 
L 388.87519 253.686397 
" style="fill:none;stroke:#8000ff;stroke-width:2;"/>
    <path clip-path="url(#p3570698773)" d="M 408.479555 297.296642 
L 408.479555 253.470395 
" style="fill:none;stroke:#8000ff;stroke-width:2;"/>
    <path clip-path="url(#p3570698773)" d="M 428.083919 298.462756 
L 428.083919 254.619514 
" style="fill:none;stroke:#8000ff;stroke-width:2;"/>
    <path clip-path="url(#p3570698773)" d="M 447.688283 299.026702 
L 447.688283 249.495076 
" style="fill:none;stroke:#8000ff;stroke-width:2;"/>
    <path clip-path="url(#p3570698773)" d="M 467.292647 313.89339 
L 467.292647 264.088256 
" style="fill:none;stroke:#8000ff;stroke-width:2;"/>
    <path clip-path="url(#p3570698773)" d="M 486.897012 310.540239 
L 486.897012 254.007446 
" style="fill:none;stroke:#8000ff;stroke-width:2;"/>
    <path clip-path="url(#p3570698773)" d="M 506.501376 316.992416 
L 506.501376 251.888076 
" style="fill:none;stroke:#8000ff;stroke-width:2;"/>
    <path clip-path="url(#p3570698773)" d="M 526.10574 313.303545 
L 526.10574 246.309941 
" style="fill:none;stroke:#8000ff;stroke-width:2;"/>
    <path clip-path="url(#p3570698773)" d="M 545.710105 324.276379 
L 545.710105 251.281609 
" style="fill:none;stroke:#8000ff;stroke-width:2;"/>
    <path clip-path="url(#p3570698773)" d="M 565.314469 332.558091 
L 565.314469 249.394626 
" style="fill:none;stroke:#8000ff;stroke-width:2;"/>
    <path clip-path="url(#p3570698773)" d="M 584.918833 335.238704 
L 584.918833 231.904982 
" style="fill:none;stroke:#8000ff;stroke-width:2;"/>
    <path clip-path="url(#p3570698773)" d="M 604.523197 367.556393 
L 604.523197 240.043625 
" style="fill:none;stroke:#8000ff;stroke-width:2;"/>
    <path clip-path="url(#p3570698773)" d="M 624.127562 370.244333 
L 624.127562 161.774514 
" style="fill:none;stroke:#8000ff;stroke-width:2;"/>
    <path clip-path="url(#p3570698773)" d="M 643.731926 443.440561 
L 643.731926 165.572941 
" style="fill:none;stroke:#8000ff;stroke-width:2;"/>
   </g>
   <g id="LineCollection_2">
    <path clip-path="url(#p3570698773)" d="M 96.210038 237.092801 
L 96.210038 230.235495 
" style="fill:none;stroke:#2c7ef7;stroke-width:2;"/>
    <path clip-path="url(#p3570698773)" d="M 115.814402 252.015485 
L 115.814402 244.435257 
" style="fill:none;stroke:#2c7ef7;stroke-width:2;"/>
    <path clip-path="url(#p3570698773)" d="M 135.418766 254.334888 
L 135.418766 246.357101 
" style="fill:none;stroke:#2c7ef7;stroke-width:2;"/>
    <path clip-path="url(#p3570698773)" d="M 155.02313 259.36323 
L 155.02313 251.107487 
" style="fill:none;stroke:#2c7ef7;stroke-width:2;"/>
    <path clip-path="url(#p3570698773)" d="M 174.627495 267.388406 
L 174.627495 257.645139 
" style="fill:none;stroke:#2c7ef7;stroke-width:2;"/>
    <path clip-path="url(#p3570698773)" d="M 194.231859 267.726547 
L 194.231859 257.697307 
" style="fill:none;stroke:#2c7ef7;stroke-width:2;"/>
    <path clip-path="url(#p3570698773)" d="M 213.836223 274.921885 
L 213.836223 264.478474 
" style="fill:none;stroke:#2c7ef7;stroke-width:2;"/>
    <path clip-path="url(#p3570698773)" d="M 233.440588 267.417199 
L 233.440588 256.611326 
" style="fill:none;stroke:#2c7ef7;stroke-width:2;"/>
    <path clip-path="url(#p3570698773)" d="M 253.044952 276.736126 
L 253.044952 264.782003 
" style="fill:none;stroke:#2c7ef7;stroke-width:2;"/>
    <path clip-path="url(#p3570698773)" d="M 272.649316 276.302925 
L 272.649316 261.513289 
" style="fill:none;stroke:#2c7ef7;stroke-width:2;"/>
    <path clip-path="url(#p3570698773)" d="M 292.253681 282.648866 
L 292.253681 266.402987 
" style="fill:none;stroke:#2c7ef7;stroke-width:2;"/>
    <path clip-path="url(#p3570698773)" d="M 311.858045 288.409345 
L 311.858045 269.041276 
" style="fill:none;stroke:#2c7ef7;stroke-width:2;"/>
    <path clip-path="url(#p3570698773)" d="M 331.462409 277.25614 
L 331.462409 254.971324 
" style="fill:none;stroke:#2c7ef7;stroke-width:2;"/>
    <path clip-path="url(#p3570698773)" d="M 351.066773 290.041958 
L 351.066773 265.292198 
" style="fill:none;stroke:#2c7ef7;stroke-width:2;"/>
    <path clip-path="url(#p3570698773)" d="M 370.671138 291.050393 
L 370.671138 260.405833 
" style="fill:none;stroke:#2c7ef7;stroke-width:2;"/>
    <path clip-path="url(#p3570698773)" d="M 390.275502 292.923107 
L 390.275502 257.880469 
" style="fill:none;stroke:#2c7ef7;stroke-width:2;"/>
    <path clip-path="url(#p3570698773)" d="M 409.879866 295.904648 
L 409.879866 264.294273 
" style="fill:none;stroke:#2c7ef7;stroke-width:2;"/>
    <path clip-path="url(#p3570698773)" d="M 429.484231 290.494058 
L 429.484231 257.476581 
" style="fill:none;stroke:#2c7ef7;stroke-width:2;"/>
    <path clip-path="url(#p3570698773)" d="M 449.088595 295.937743 
L 449.088595 255.729264 
" style="fill:none;stroke:#2c7ef7;stroke-width:2;"/>
    <path clip-path="url(#p3570698773)" d="M 468.692959 300.489269 
L 468.692959 258.159795 
" style="fill:none;stroke:#2c7ef7;stroke-width:2;"/>
    <path clip-path="url(#p3570698773)" d="M 488.297323 302.402663 
L 488.297323 257.684011 
" style="fill:none;stroke:#2c7ef7;stroke-width:2;"/>
    <path clip-path="url(#p3570698773)" d="M 507.901688 307.80563 
L 507.901688 259.304173 
" style="fill:none;stroke:#2c7ef7;stroke-width:2;"/>
    <path clip-path="url(#p3570698773)" d="M 527.506052 308.627114 
L 527.506052 256.046157 
" style="fill:none;stroke:#2c7ef7;stroke-width:2;"/>
    <path clip-path="url(#p3570698773)" d="M 547.110416 312.809107 
L 547.110416 255.174314 
" style="fill:none;stroke:#2c7ef7;stroke-width:2;"/>
    <path clip-path="url(#p3570698773)" d="M 566.714781 310.812385 
L 566.714781 248.938498 
" style="fill:none;stroke:#2c7ef7;stroke-width:2;"/>
    <path clip-path="url(#p3570698773)" d="M 586.319145 323.609522 
L 586.319145 245.393829 
" style="fill:none;stroke:#2c7ef7;stroke-width:2;"/>
    <path clip-path="url(#p3570698773)" d="M 605.923509 346.482664 
L 605.923509 245.527094 
" style="fill:none;stroke:#2c7ef7;stroke-width:2;"/>
    <path clip-path="url(#p3570698773)" d="M 625.527874 358.315451 
L 625.527874 188.905571 
" style="fill:none;stroke:#2c7ef7;stroke-width:2;"/>
    <path clip-path="url(#p3570698773)" d="M 645.132238 393.528162 
L 645.132238 173.864966 
" style="fill:none;stroke:#2c7ef7;stroke-width:2;"/>
   </g>
   <g id="LineCollection_3">
    <path clip-path="url(#p3570698773)" d="M 97.610349 232.393355 
L 97.610349 227.232029 
" style="fill:none;stroke:#2adddd;stroke-width:2;"/>
    <path clip-path="url(#p3570698773)" d="M 117.214714 243.437883 
L 117.214714 237.461538 
" style="fill:none;stroke:#2adddd;stroke-width:2;"/>
    <path clip-path="url(#p3570698773)" d="M 136.819078 252.031365 
L 136.819078 245.4868 
" style="fill:none;stroke:#2adddd;stroke-width:2;"/>
    <path clip-path="url(#p3570698773)" d="M 156.423442 254.119839 
L 156.423442 247.642582 
" style="fill:none;stroke:#2adddd;stroke-width:2;"/>
    <path clip-path="url(#p3570698773)" d="M 176.027807 260.769379 
L 176.027807 254.006847 
" style="fill:none;stroke:#2adddd;stroke-width:2;"/>
    <path clip-path="url(#p3570698773)" d="M 195.632171 262.779283 
L 195.632171 255.920933 
" style="fill:none;stroke:#2adddd;stroke-width:2;"/>
    <path clip-path="url(#p3570698773)" d="M 215.236535 268.36314 
L 215.236535 260.229403 
" style="fill:none;stroke:#2adddd;stroke-width:2;"/>
    <path clip-path="url(#p3570698773)" d="M 234.840899 265.552317 
L 234.840899 257.232919 
" style="fill:none;stroke:#2adddd;stroke-width:2;"/>
    <path clip-path="url(#p3570698773)" d="M 254.445264 271.132285 
L 254.445264 262.052438 
" style="fill:none;stroke:#2adddd;stroke-width:2;"/>
    <path clip-path="url(#p3570698773)" d="M 274.049628 273.169719 
L 274.049628 261.752703 
" style="fill:none;stroke:#2adddd;stroke-width:2;"/>
    <path clip-path="url(#p3570698773)" d="M 293.653992 277.044907 
L 293.653992 263.48781 
" style="fill:none;stroke:#2adddd;stroke-width:2;"/>
    <path clip-path="url(#p3570698773)" d="M 313.258357 281.1635 
L 313.258357 265.078267 
" style="fill:none;stroke:#2adddd;stroke-width:2;"/>
    <path clip-path="url(#p3570698773)" d="M 332.862721 274.052533 
L 332.862721 257.180404 
" style="fill:none;stroke:#2adddd;stroke-width:2;"/>
    <path clip-path="url(#p3570698773)" d="M 352.467085 286.367698 
L 352.467085 265.73336 
" style="fill:none;stroke:#2adddd;stroke-width:2;"/>
    <path clip-path="url(#p3570698773)" d="M 372.071449 284.795951 
L 372.071449 261.167684 
" style="fill:none;stroke:#2adddd;stroke-width:2;"/>
    <path clip-path="url(#p3570698773)" d="M 391.675814 286.03293 
L 391.675814 259.434483 
" style="fill:none;stroke:#2adddd;stroke-width:2;"/>
    <path clip-path="url(#p3570698773)" d="M 411.280178 290.494658 
L 411.280178 263.723594 
" style="fill:none;stroke:#2adddd;stroke-width:2;"/>
    <path clip-path="url(#p3570698773)" d="M 430.884542 286.654594 
L 430.884542 258.040753 
" style="fill:none;stroke:#2adddd;stroke-width:2;"/>
    <path clip-path="url(#p3570698773)" d="M 450.488907 296.286689 
L 450.488907 264.097441 
" style="fill:none;stroke:#2adddd;stroke-width:2;"/>
    <path clip-path="url(#p3570698773)" d="M 470.093271 292.308113 
L 470.093271 255.857805 
" style="fill:none;stroke:#2adddd;stroke-width:2;"/>
    <path clip-path="url(#p3570698773)" d="M 489.697635 305.500834 
L 489.697635 266.441716 
" style="fill:none;stroke:#2adddd;stroke-width:2;"/>
    <path clip-path="url(#p3570698773)" d="M 509.301999 295.892823 
L 509.301999 255.156167 
" style="fill:none;stroke:#2adddd;stroke-width:2;"/>
    <path clip-path="url(#p3570698773)" d="M 528.906364 307.199568 
L 528.906364 260.993323 
" style="fill:none;stroke:#2adddd;stroke-width:2;"/>
    <path clip-path="url(#p3570698773)" d="M 548.510728 305.39364 
L 548.510728 252.688601 
" style="fill:none;stroke:#2adddd;stroke-width:2;"/>
    <path clip-path="url(#p3570698773)" d="M 568.115092 314.739983 
L 568.115092 256.619634 
" style="fill:none;stroke:#2adddd;stroke-width:2;"/>
    <path clip-path="url(#p3570698773)" d="M 587.719457 313.868752 
L 587.719457 247.529495 
" style="fill:none;stroke:#2adddd;stroke-width:2;"/>
    <path clip-path="url(#p3570698773)" d="M 607.323821 337.2412 
L 607.323821 250.624231 
" style="fill:none;stroke:#2adddd;stroke-width:2;"/>
    <path clip-path="url(#p3570698773)" d="M 626.928185 356.219879 
L 626.928185 203.667568 
" style="fill:none;stroke:#2adddd;stroke-width:2;"/>
    <path clip-path="url(#p3570698773)" d="M 646.53255 380.998621 
L 646.53255 157.217361 
" style="fill:none;stroke:#2adddd;stroke-width:2;"/>
   </g>
   <g id="LineCollection_4">
    <path clip-path="url(#p3570698773)" d="M 99.010661 221.500825 
L 99.010661 217.620735 
" style="fill:none;stroke:#80ffb4;stroke-width:2;"/>
    <path clip-path="url(#p3570698773)" d="M 118.615025 232.96907 
L 118.615025 229.256113 
" style="fill:none;stroke:#80ffb4;stroke-width:2;"/>
    <path clip-path="url(#p3570698773)" d="M 138.21939 242.056205 
L 138.21939 237.896658 
" style="fill:none;stroke:#80ffb4;stroke-width:2;"/>
    <path clip-path="url(#p3570698773)" d="M 157.823754 245.801449 
L 157.823754 241.54718 
" style="fill:none;stroke:#80ffb4;stroke-width:2;"/>
    <path clip-path="url(#p3570698773)" d="M 177.428118 251.83097 
L 177.428118 247.010738 
" style="fill:none;stroke:#80ffb4;stroke-width:2;"/>
    <path clip-path="url(#p3570698773)" d="M 197.032483 257.280119 
L 197.032483 252.267233 
" style="fill:none;stroke:#80ffb4;stroke-width:2;"/>
    <path clip-path="url(#p3570698773)" d="M 216.636847 258.995263 
L 216.636847 253.683195 
" style="fill:none;stroke:#80ffb4;stroke-width:2;"/>
    <path clip-path="url(#p3570698773)" d="M 236.241211 259.538293 
L 236.241211 253.803124 
" style="fill:none;stroke:#80ffb4;stroke-width:2;"/>
    <path clip-path="url(#p3570698773)" d="M 255.845575 265.392548 
L 255.845575 259.771766 
" style="fill:none;stroke:#80ffb4;stroke-width:2;"/>
    <path clip-path="url(#p3570698773)" d="M 275.44994 267.684931 
L 275.44994 260.141272 
" style="fill:none;stroke:#80ffb4;stroke-width:2;"/>
    <path clip-path="url(#p3570698773)" d="M 295.054304 269.952626 
L 295.054304 260.944173 
" style="fill:none;stroke:#80ffb4;stroke-width:2;"/>
    <path clip-path="url(#p3570698773)" d="M 314.658668 273.258759 
L 314.658668 263.015059 
" style="fill:none;stroke:#80ffb4;stroke-width:2;"/>
    <path clip-path="url(#p3570698773)" d="M 334.263033 272.198804 
L 334.263033 259.676531 
" style="fill:none;stroke:#80ffb4;stroke-width:2;"/>
    <path clip-path="url(#p3570698773)" d="M 353.867397 277.95376 
L 353.867397 263.948825 
" style="fill:none;stroke:#80ffb4;stroke-width:2;"/>
    <path clip-path="url(#p3570698773)" d="M 373.471761 278.829981 
L 373.471761 260.693388 
" style="fill:none;stroke:#80ffb4;stroke-width:2;"/>
    <path clip-path="url(#p3570698773)" d="M 393.076125 282.336992 
L 393.076125 261.122892 
" style="fill:none;stroke:#80ffb4;stroke-width:2;"/>
    <path clip-path="url(#p3570698773)" d="M 412.68049 284.41198 
L 412.68049 261.171065 
" style="fill:none;stroke:#80ffb4;stroke-width:2;"/>
    <path clip-path="url(#p3570698773)" d="M 432.284854 286.34671 
L 432.284854 262.966465 
" style="fill:none;stroke:#80ffb4;stroke-width:2;"/>
    <path clip-path="url(#p3570698773)" d="M 451.889218 287.877334 
L 451.889218 261.917906 
" style="fill:none;stroke:#80ffb4;stroke-width:2;"/>
    <path clip-path="url(#p3570698773)" d="M 471.493583 290.146275 
L 471.493583 260.47983 
" style="fill:none;stroke:#80ffb4;stroke-width:2;"/>
    <path clip-path="url(#p3570698773)" d="M 491.097947 295.020875 
L 491.097947 261.195989 
" style="fill:none;stroke:#80ffb4;stroke-width:2;"/>
    <path clip-path="url(#p3570698773)" d="M 510.702311 295.856605 
L 510.702311 259.272339 
" style="fill:none;stroke:#80ffb4;stroke-width:2;"/>
    <path clip-path="url(#p3570698773)" d="M 530.306676 299.688378 
L 530.306676 259.992632 
" style="fill:none;stroke:#80ffb4;stroke-width:2;"/>
    <path clip-path="url(#p3570698773)" d="M 549.91104 300.1483 
L 549.91104 256.58989 
" style="fill:none;stroke:#80ffb4;stroke-width:2;"/>
    <path clip-path="url(#p3570698773)" d="M 569.515404 311.732243 
L 569.515404 263.452734 
" style="fill:none;stroke:#80ffb4;stroke-width:2;"/>
    <path clip-path="url(#p3570698773)" d="M 589.119768 308.299112 
L 589.119768 253.65204 
" style="fill:none;stroke:#80ffb4;stroke-width:2;"/>
    <path clip-path="url(#p3570698773)" d="M 608.724133 323.594069 
L 608.724133 246.104234 
" style="fill:none;stroke:#80ffb4;stroke-width:2;"/>
    <path clip-path="url(#p3570698773)" d="M 628.328497 338.18854 
L 628.328497 232.796955 
" style="fill:none;stroke:#80ffb4;stroke-width:2;"/>
    <path clip-path="url(#p3570698773)" d="M 647.932861 379.70932 
L 647.932861 177.900518 
" style="fill:none;stroke:#80ffb4;stroke-width:2;"/>
   </g>
   <g id="LineCollection_5">
    <path clip-path="url(#p3570698773)" d="M 100.410973 221.908106 
L 100.410973 217.980017 
" style="fill:none;stroke:#d4dd80;stroke-width:2;"/>
    <path clip-path="url(#p3570698773)" d="M 120.015337 232.769904 
L 120.015337 229.011271 
" style="fill:none;stroke:#d4dd80;stroke-width:2;"/>
    <path clip-path="url(#p3570698773)" d="M 139.619701 241.762354 
L 139.619701 238.009126 
" style="fill:none;stroke:#d4dd80;stroke-width:2;"/>
    <path clip-path="url(#p3570698773)" d="M 159.224066 245.878063 
L 159.224066 241.761176 
" style="fill:none;stroke:#d4dd80;stroke-width:2;"/>
    <path clip-path="url(#p3570698773)" d="M 178.82843 251.567701 
L 178.82843 247.000025 
" style="fill:none;stroke:#d4dd80;stroke-width:2;"/>
    <path clip-path="url(#p3570698773)" d="M 198.432794 257.377927 
L 198.432794 252.157793 
" style="fill:none;stroke:#d4dd80;stroke-width:2;"/>
    <path clip-path="url(#p3570698773)" d="M 218.037159 259.272857 
L 218.037159 253.687809 
" style="fill:none;stroke:#d4dd80;stroke-width:2;"/>
    <path clip-path="url(#p3570698773)" d="M 237.641523 259.420176 
L 237.641523 253.918179 
" style="fill:none;stroke:#d4dd80;stroke-width:2;"/>
    <path clip-path="url(#p3570698773)" d="M 257.245887 266.095426 
L 257.245887 260.004341 
" style="fill:none;stroke:#d4dd80;stroke-width:2;"/>
    <path clip-path="url(#p3570698773)" d="M 276.850251 266.959336 
L 276.850251 259.114335 
" style="fill:none;stroke:#d4dd80;stroke-width:2;"/>
    <path clip-path="url(#p3570698773)" d="M 296.454616 270.900064 
L 296.454616 261.615435 
" style="fill:none;stroke:#d4dd80;stroke-width:2;"/>
    <path clip-path="url(#p3570698773)" d="M 316.05898 272.522515 
L 316.05898 261.958881 
" style="fill:none;stroke:#d4dd80;stroke-width:2;"/>
    <path clip-path="url(#p3570698773)" d="M 335.663344 272.2541 
L 335.663344 260.038344 
" style="fill:none;stroke:#d4dd80;stroke-width:2;"/>
    <path clip-path="url(#p3570698773)" d="M 355.267709 278.571929 
L 355.267709 263.726081 
" style="fill:none;stroke:#d4dd80;stroke-width:2;"/>
    <path clip-path="url(#p3570698773)" d="M 374.872073 279.671074 
L 374.872073 261.575501 
" style="fill:none;stroke:#d4dd80;stroke-width:2;"/>
    <path clip-path="url(#p3570698773)" d="M 394.476437 281.330852 
L 394.476437 260.707004 
" style="fill:none;stroke:#d4dd80;stroke-width:2;"/>
    <path clip-path="url(#p3570698773)" d="M 414.080801 284.376247 
L 414.080801 261.599877 
" style="fill:none;stroke:#d4dd80;stroke-width:2;"/>
    <path clip-path="url(#p3570698773)" d="M 433.685166 285.918243 
L 433.685166 261.671019 
" style="fill:none;stroke:#d4dd80;stroke-width:2;"/>
    <path clip-path="url(#p3570698773)" d="M 453.28953 287.851091 
L 453.28953 260.880715 
" style="fill:none;stroke:#d4dd80;stroke-width:2;"/>
    <path clip-path="url(#p3570698773)" d="M 472.893894 292.39467 
L 472.893894 262.836125 
" style="fill:none;stroke:#d4dd80;stroke-width:2;"/>
    <path clip-path="url(#p3570698773)" d="M 492.498259 293.006926 
L 492.498259 262.273537 
" style="fill:none;stroke:#d4dd80;stroke-width:2;"/>
    <path clip-path="url(#p3570698773)" d="M 512.102623 293.367173 
L 512.102623 261.550585 
" style="fill:none;stroke:#d4dd80;stroke-width:2;"/>
    <path clip-path="url(#p3570698773)" d="M 531.706987 298.367041 
L 531.706987 261.203822 
" style="fill:none;stroke:#d4dd80;stroke-width:2;"/>
    <path clip-path="url(#p3570698773)" d="M 551.311352 305.131429 
L 551.311352 258.057727 
" style="fill:none;stroke:#d4dd80;stroke-width:2;"/>
    <path clip-path="url(#p3570698773)" d="M 570.915716 304.456238 
L 570.915716 255.916817 
" style="fill:none;stroke:#d4dd80;stroke-width:2;"/>
    <path clip-path="url(#p3570698773)" d="M 590.52008 313.544409 
L 590.52008 258.193021 
" style="fill:none;stroke:#d4dd80;stroke-width:2;"/>
    <path clip-path="url(#p3570698773)" d="M 610.124444 326.457778 
L 610.124444 246.443628 
" style="fill:none;stroke:#d4dd80;stroke-width:2;"/>
    <path clip-path="url(#p3570698773)" d="M 629.728809 336.223838 
L 629.728809 218.03926 
" style="fill:none;stroke:#d4dd80;stroke-width:2;"/>
    <path clip-path="url(#p3570698773)" d="M 649.333173 368.474457 
L 649.333173 176.926716 
" style="fill:none;stroke:#d4dd80;stroke-width:2;"/>
   </g>
   <g id="LineCollection_6">
    <path clip-path="url(#p3570698773)" d="M 101.811285 191.666516 
L 101.811285 189.542458 
" style="fill:none;stroke:#ff7e41;stroke-width:2;"/>
    <path clip-path="url(#p3570698773)" d="M 121.415649 207.971914 
L 121.415649 205.65089 
" style="fill:none;stroke:#ff7e41;stroke-width:2;"/>
    <path clip-path="url(#p3570698773)" d="M 141.020013 219.371107 
L 141.020013 216.749412 
" style="fill:none;stroke:#ff7e41;stroke-width:2;"/>
    <path clip-path="url(#p3570698773)" d="M 160.624377 227.704 
L 160.624377 225.128325 
" style="fill:none;stroke:#ff7e41;stroke-width:2;"/>
    <path clip-path="url(#p3570698773)" d="M 180.228742 235.694414 
L 180.228742 232.783934 
" style="fill:none;stroke:#ff7e41;stroke-width:2;"/>
    <path clip-path="url(#p3570698773)" d="M 199.833106 241.386711 
L 199.833106 237.880273 
" style="fill:none;stroke:#ff7e41;stroke-width:2;"/>
    <path clip-path="url(#p3570698773)" d="M 219.43747 246.706544 
L 219.43747 243.118633 
" style="fill:none;stroke:#ff7e41;stroke-width:2;"/>
    <path clip-path="url(#p3570698773)" d="M 239.041835 250.002693 
L 239.041835 245.837022 
" style="fill:none;stroke:#ff7e41;stroke-width:2;"/>
    <path clip-path="url(#p3570698773)" d="M 258.646199 255.054632 
L 258.646199 250.924062 
" style="fill:none;stroke:#ff7e41;stroke-width:2;"/>
    <path clip-path="url(#p3570698773)" d="M 278.250563 258.950942 
L 278.250563 254.11684 
" style="fill:none;stroke:#ff7e41;stroke-width:2;"/>
    <path clip-path="url(#p3570698773)" d="M 297.854927 262.541967 
L 297.854927 256.58464 
" style="fill:none;stroke:#ff7e41;stroke-width:2;"/>
    <path clip-path="url(#p3570698773)" d="M 317.459292 264.916873 
L 317.459292 258.525892 
" style="fill:none;stroke:#ff7e41;stroke-width:2;"/>
    <path clip-path="url(#p3570698773)" d="M 337.063656 265.3219 
L 337.063656 256.95372 
" style="fill:none;stroke:#ff7e41;stroke-width:2;"/>
    <path clip-path="url(#p3570698773)" d="M 356.66802 271.158065 
L 356.66802 261.052475 
" style="fill:none;stroke:#ff7e41;stroke-width:2;"/>
    <path clip-path="url(#p3570698773)" d="M 376.272385 271.729176 
L 376.272385 259.579372 
" style="fill:none;stroke:#ff7e41;stroke-width:2;"/>
    <path clip-path="url(#p3570698773)" d="M 395.876749 275.562669 
L 395.876749 261.090204 
" style="fill:none;stroke:#ff7e41;stroke-width:2;"/>
    <path clip-path="url(#p3570698773)" d="M 415.481113 277.51998 
L 415.481113 260.306353 
" style="fill:none;stroke:#ff7e41;stroke-width:2;"/>
    <path clip-path="url(#p3570698773)" d="M 435.085478 280.117844 
L 435.085478 261.153559 
" style="fill:none;stroke:#ff7e41;stroke-width:2;"/>
    <path clip-path="url(#p3570698773)" d="M 454.689842 282.254098 
L 454.689842 262.524366 
" style="fill:none;stroke:#ff7e41;stroke-width:2;"/>
    <path clip-path="url(#p3570698773)" d="M 474.294206 285.844115 
L 474.294206 264.259451 
" style="fill:none;stroke:#ff7e41;stroke-width:2;"/>
    <path clip-path="url(#p3570698773)" d="M 493.89857 286.30824 
L 493.89857 261.342728 
" style="fill:none;stroke:#ff7e41;stroke-width:2;"/>
    <path clip-path="url(#p3570698773)" d="M 513.502935 290.294604 
L 513.502935 261.693421 
" style="fill:none;stroke:#ff7e41;stroke-width:2;"/>
    <path clip-path="url(#p3570698773)" d="M 533.107299 292.352724 
L 533.107299 261.871509 
" style="fill:none;stroke:#ff7e41;stroke-width:2;"/>
    <path clip-path="url(#p3570698773)" d="M 552.711663 295.689316 
L 552.711663 261.110667 
" style="fill:none;stroke:#ff7e41;stroke-width:2;"/>
    <path clip-path="url(#p3570698773)" d="M 572.316028 300.262691 
L 572.316028 262.931696 
" style="fill:none;stroke:#ff7e41;stroke-width:2;"/>
    <path clip-path="url(#p3570698773)" d="M 591.920392 301.349964 
L 591.920392 256.931347 
" style="fill:none;stroke:#ff7e41;stroke-width:2;"/>
    <path clip-path="url(#p3570698773)" d="M 611.524756 308.590529 
L 611.524756 252.536937 
" style="fill:none;stroke:#ff7e41;stroke-width:2;"/>
    <path clip-path="url(#p3570698773)" d="M 631.12912 332.306902 
L 631.12912 246.076931 
" style="fill:none;stroke:#ff7e41;stroke-width:2;"/>
    <path clip-path="url(#p3570698773)" d="M 650.733485 335.112505 
L 650.733485 171.152014 
" style="fill:none;stroke:#ff7e41;stroke-width:2;"/>
   </g>
   <g id="LineCollection_7">
    <path clip-path="url(#p3570698773)" d="M 103.211596 231.480018 
L 103.211596 220.038569 
" style="fill:none;stroke:#ff0000;stroke-width:2;"/>
    <path clip-path="url(#p3570698773)" d="M 122.815961 254.746338 
L 122.815961 243.096114 
" style="fill:none;stroke:#ff0000;stroke-width:2;"/>
    <path clip-path="url(#p3570698773)" d="M 142.420325 256.932042 
L 142.420325 244.627218 
" style="fill:none;stroke:#ff0000;stroke-width:2;"/>
    <path clip-path="url(#p3570698773)" d="M 162.024689 265.890396 
L 162.024689 253.146193 
" style="fill:none;stroke:#ff0000;stroke-width:2;"/>
    <path clip-path="url(#p3570698773)" d="M 181.629053 262.596903 
L 181.629053 247.388955 
" style="fill:none;stroke:#ff0000;stroke-width:2;"/>
    <path clip-path="url(#p3570698773)" d="M 201.233418 276.659958 
L 201.233418 261.51574 
" style="fill:none;stroke:#ff0000;stroke-width:2;"/>
    <path clip-path="url(#p3570698773)" d="M 220.837782 267.850385 
L 220.837782 250.674598 
" style="fill:none;stroke:#ff0000;stroke-width:2;"/>
    <path clip-path="url(#p3570698773)" d="M 240.442146 270.190775 
L 240.442146 252.574655 
" style="fill:none;stroke:#ff0000;stroke-width:2;"/>
    <path clip-path="url(#p3570698773)" d="M 260.046511 284.511531 
L 260.046511 264.093011 
" style="fill:none;stroke:#ff0000;stroke-width:2;"/>
    <path clip-path="url(#p3570698773)" d="M 279.650875 281.110535 
L 279.650875 257.304844 
" style="fill:none;stroke:#ff0000;stroke-width:2;"/>
    <path clip-path="url(#p3570698773)" d="M 299.255239 287.429795 
L 299.255239 257.996319 
" style="fill:none;stroke:#ff0000;stroke-width:2;"/>
    <path clip-path="url(#p3570698773)" d="M 318.859603 292.343303 
L 318.859603 258.654222 
" style="fill:none;stroke:#ff0000;stroke-width:2;"/>
    <path clip-path="url(#p3570698773)" d="M 338.463968 280.922422 
L 338.463968 244.247519 
" style="fill:none;stroke:#ff0000;stroke-width:2;"/>
    <path clip-path="url(#p3570698773)" d="M 358.068332 293.810224 
L 358.068332 253.54247 
" style="fill:none;stroke:#ff0000;stroke-width:2;"/>
    <path clip-path="url(#p3570698773)" d="M 377.672696 308.786611 
L 377.672696 261.646765 
" style="fill:none;stroke:#ff0000;stroke-width:2;"/>
    <path clip-path="url(#p3570698773)" d="M 397.277061 298.262653 
L 397.277061 247.349057 
" style="fill:none;stroke:#ff0000;stroke-width:2;"/>
    <path clip-path="url(#p3570698773)" d="M 416.881425 296.801558 
L 416.881425 248.094361 
" style="fill:none;stroke:#ff0000;stroke-width:2;"/>
    <path clip-path="url(#p3570698773)" d="M 436.485789 298.399824 
L 436.485789 240.632812 
" style="fill:none;stroke:#ff0000;stroke-width:2;"/>
    <path clip-path="url(#p3570698773)" d="M 456.090154 301.995304 
L 456.090154 242.097765 
" style="fill:none;stroke:#ff0000;stroke-width:2;"/>
    <path clip-path="url(#p3570698773)" d="M 475.694518 313.971654 
L 475.694518 250.110528 
" style="fill:none;stroke:#ff0000;stroke-width:2;"/>
    <path clip-path="url(#p3570698773)" d="M 495.298882 311.349399 
L 495.298882 256.074692 
" style="fill:none;stroke:#ff0000;stroke-width:2;"/>
    <path clip-path="url(#p3570698773)" d="M 514.903246 311.582013 
L 514.903246 245.875439 
" style="fill:none;stroke:#ff0000;stroke-width:2;"/>
    <path clip-path="url(#p3570698773)" d="M 534.507611 314.158146 
L 534.507611 236.637877 
" style="fill:none;stroke:#ff0000;stroke-width:2;"/>
    <path clip-path="url(#p3570698773)" d="M 554.111975 333.500275 
L 554.111975 245.291115 
" style="fill:none;stroke:#ff0000;stroke-width:2;"/>
    <path clip-path="url(#p3570698773)" d="M 573.716339 332.292734 
L 573.716339 232.720773 
" style="fill:none;stroke:#ff0000;stroke-width:2;"/>
    <path clip-path="url(#p3570698773)" d="M 593.320704 337.804226 
L 593.320704 221.192325 
" style="fill:none;stroke:#ff0000;stroke-width:2;"/>
    <path clip-path="url(#p3570698773)" d="M 612.925068 378.240786 
L 612.925068 217.09408 
" style="fill:none;stroke:#ff0000;stroke-width:2;"/>
    <path clip-path="url(#p3570698773)" d="M 632.529432 394.967414 
L 632.529432 105.471145 
" style="fill:none;stroke:#ff0000;stroke-width:2;"/>
    <path clip-path="url(#p3570698773)" d="M 652.133796 471.285076 
L 652.133796 170.351336 
" style="fill:none;stroke:#ff0000;stroke-width:2;"/>
   </g>
   <g id="line2d_13">
    <path clip-path="url(#p3570698773)" d="M 94.809726 234.334386 
L 114.41409 256.051479 
L 134.018454 256.545088 
L 153.622819 263.951449 
L 173.227183 261.317276 
L 192.831547 273.946368 
L 212.435912 266.324424 
L 232.040276 265.922169 
L 251.64464 279.567814 
L 271.249005 272.650195 
L 290.853369 278.864645 
L 310.457733 279.663701 
L 330.062097 268.267331 
L 349.666462 277.464326 
L 369.270826 289.189938 
L 388.87519 275.675864 
L 408.479555 275.383519 
L 428.083919 276.541135 
L 447.688283 274.260889 
L 467.292647 288.990823 
L 486.897012 282.273842 
L 506.501376 284.440246 
L 526.10574 279.806743 
L 545.710105 287.778994 
L 565.314469 290.976359 
L 584.918833 283.571843 
L 604.523197 303.800009 
L 624.127562 266.009423 
L 643.731926 304.506751 
" style="fill:none;stroke:#8000ff;stroke-linecap:square;stroke-width:2;"/>
   </g>
   <g id="line2d_14">
    <path clip-path="url(#p3570698773)" d="M 96.210038 233.664148 
L 115.814402 248.225371 
L 135.418766 250.345994 
L 155.02313 255.235358 
L 174.627495 262.516773 
L 194.231859 262.711927 
L 213.836223 269.700179 
L 233.440588 262.014263 
L 253.044952 270.759065 
L 272.649316 268.908107 
L 292.253681 274.525927 
L 311.858045 278.72531 
L 331.462409 266.113732 
L 351.066773 277.667078 
L 370.671138 275.728113 
L 390.275502 275.401788 
L 409.879866 280.09946 
L 429.484231 273.985319 
L 449.088595 275.833503 
L 468.692959 279.324532 
L 488.297323 280.043337 
L 507.901688 283.554902 
L 527.506052 282.336636 
L 547.110416 283.991711 
L 566.714781 279.875441 
L 586.319145 284.501675 
L 605.923509 296.004879 
L 625.527874 273.610511 
L 645.132238 283.696564 
" style="fill:none;stroke:#2c7ef7;stroke-linecap:square;stroke-width:2;"/>
   </g>
   <g id="line2d_15">
    <path clip-path="url(#p3570698773)" d="M 97.610349 229.812692 
L 117.214714 240.44971 
L 136.819078 248.759083 
L 156.423442 250.88121 
L 176.027807 257.388113 
L 195.632171 259.350108 
L 215.236535 264.296271 
L 234.840899 261.392618 
L 254.445264 266.592361 
L 274.049628 267.461211 
L 293.653992 270.266359 
L 313.258357 273.120884 
L 332.862721 265.616468 
L 352.467085 276.050529 
L 372.071449 272.981817 
L 391.675814 272.733706 
L 411.280178 277.109126 
L 430.884542 272.347673 
L 450.488907 280.192065 
L 470.093271 274.082959 
L 489.697635 285.971275 
L 509.301999 275.524495 
L 528.906364 284.096446 
L 548.510728 279.04112 
L 568.115092 285.679809 
L 587.719457 280.699123 
L 607.323821 293.932715 
L 626.928185 279.943724 
L 646.53255 269.107991 
" style="fill:none;stroke:#2adddd;stroke-linecap:square;stroke-width:2;"/>
   </g>
   <g id="line2d_16">
    <path clip-path="url(#p3570698773)" d="M 99.010661 219.56078 
L 118.615025 231.112591 
L 138.21939 239.976431 
L 157.823754 243.674315 
L 177.428118 249.420854 
L 197.032483 254.773676 
L 216.636847 256.339229 
L 236.241211 256.670708 
L 255.845575 262.582157 
L 275.44994 263.913102 
L 295.054304 265.448399 
L 314.658668 268.136909 
L 334.263033 265.937667 
L 353.867397 270.951292 
L 373.471761 269.761684 
L 393.076125 271.729942 
L 412.68049 272.791523 
L 432.284854 274.656587 
L 451.889218 274.89762 
L 471.493583 275.313052 
L 491.097947 278.108432 
L 510.702311 277.564472 
L 530.306676 279.840505 
L 549.91104 278.369095 
L 569.515404 287.592488 
L 589.119768 280.975576 
L 608.724133 284.849151 
L 628.328497 285.492748 
L 647.932861 278.804919 
" style="fill:none;stroke:#80ffb4;stroke-linecap:square;stroke-width:2;"/>
   </g>
   <g id="line2d_17">
    <path clip-path="url(#p3570698773)" d="M 100.410973 219.944062 
L 120.015337 230.890588 
L 139.619701 239.88574 
L 159.224066 243.819619 
L 178.82843 249.283863 
L 198.432794 254.76786 
L 218.037159 256.480333 
L 237.641523 256.669177 
L 257.245887 263.049884 
L 276.850251 263.036836 
L 296.454616 266.25775 
L 316.05898 267.240698 
L 335.663344 266.146222 
L 355.267709 271.149005 
L 374.872073 270.623287 
L 394.476437 271.018928 
L 414.080801 272.988062 
L 433.685166 273.794631 
L 453.28953 274.365903 
L 472.893894 277.615397 
L 492.498259 277.640231 
L 512.102623 277.458879 
L 531.706987 279.785431 
L 551.311352 281.594578 
L 570.915716 280.186528 
L 590.52008 285.868715 
L 610.124444 286.450703 
L 629.728809 277.131549 
L 649.333173 272.700586 
" style="fill:none;stroke:#d4dd80;stroke-linecap:square;stroke-width:2;"/>
   </g>
   <g id="line2d_18">
    <path clip-path="url(#p3570698773)" d="M 101.811285 190.604487 
L 121.415649 206.811402 
L 141.020013 218.060259 
L 160.624377 226.416162 
L 180.228742 234.239174 
L 199.833106 239.633492 
L 219.43747 244.912588 
L 239.041835 247.919858 
L 258.646199 252.989347 
L 278.250563 256.533891 
L 297.854927 259.563303 
L 317.459292 261.721382 
L 337.063656 261.13781 
L 356.66802 266.10527 
L 376.272385 265.654274 
L 395.876749 268.326437 
L 415.481113 268.913166 
L 435.085478 270.635702 
L 454.689842 272.389232 
L 474.294206 275.051783 
L 493.89857 273.825484 
L 513.502935 275.994013 
L 533.107299 277.112117 
L 552.711663 278.399992 
L 572.316028 281.597193 
L 591.920392 279.140655 
L 611.524756 280.563733 
L 631.12912 289.191917 
L 650.733485 253.132259 
" style="fill:none;stroke:#ff7e41;stroke-linecap:square;stroke-width:2;"/>
   </g>
   <g id="line2d_19">
    <path clip-path="url(#p3570698773)" d="M 103.211596 225.759294 
L 122.815961 248.921226 
L 142.420325 250.77963 
L 162.024689 259.518294 
L 181.629053 254.992929 
L 201.233418 269.087849 
L 220.837782 259.262492 
L 240.442146 261.382715 
L 260.046511 274.302271 
L 279.650875 269.20769 
L 299.255239 272.713057 
L 318.859603 275.498762 
L 338.463968 262.58497 
L 358.068332 273.676347 
L 377.672696 285.216688 
L 397.277061 272.805855 
L 416.881425 272.447959 
L 436.485789 269.516318 
L 456.090154 272.046534 
L 475.694518 282.041091 
L 495.298882 283.712045 
L 514.903246 278.728726 
L 534.507611 275.398012 
L 554.111975 289.395695 
L 573.716339 282.506754 
L 593.320704 279.498275 
L 612.925068 297.667433 
L 632.529432 250.219279 
L 652.133796 320.818206 
" style="fill:none;stroke:#ff0000;stroke-linecap:square;stroke-width:2;"/>
   </g>
   <g id="patch_3">
    <path d="M 66.943522 489.575773 
L 66.943522 87.180449 
" style="fill:none;stroke:#000000;stroke-linecap:square;stroke-linejoin:miter;stroke-width:0.8;"/>
   </g>
   <g id="patch_4">
    <path d="M 680 489.575773 
L 680 87.180449 
" style="fill:none;stroke:#000000;stroke-linecap:square;stroke-linejoin:miter;stroke-width:0.8;"/>
   </g>
   <g id="patch_5">
    <path d="M 66.943522 489.575773 
L 680 489.575773 
" style="fill:none;stroke:#000000;stroke-linecap:square;stroke-linejoin:miter;stroke-width:0.8;"/>
   </g>
   <g id="patch_6">
    <path d="M 66.943522 87.180449 
L 680 87.180449 
" style="fill:none;stroke:#000000;stroke-linecap:square;stroke-linejoin:miter;stroke-width:0.8;"/>
   </g>
   <g id="text_14">
    <!-- cosh effective mass -->
    <g transform="translate(283.787729 56.604405)scale(0.24 -0.24)">
     <defs>
      <path d="M 34.90625 35 
C 33 35 30.203125 35 30.203125 31.515625 
C 30.203125 28.71875 32.5 27.921875 33.796875 27.921875 
C 34.5 27.921875 37.40625 28.234375 37.40625 31.625 
C 37.40625 38.546875 30.59375 43.796875 22.90625 43.796875 
C 12.296875 43.796875 3.296875 34.03125 3.296875 21.296875 
C 3.296875 8.0625 12.703125 -1 22.90625 -1 
C 35.296875 -1 38.40625 10.578125 38.40625 11.6875 
C 38.40625 12.09375 38.296875 12.390625 37.59375 12.390625 
C 36.90625 12.390625 36.796875 12.296875 36.40625 10.984375 
C 33.796875 2.8125 28.09375 0.796875 23.796875 0.796875 
C 17.40625 0.796875 9.703125 6.671875 9.703125 21.390625 
C 9.703125 36.53125 17.09375 42 23 42 
C 26.90625 42 32.703125 40.203125 34.90625 35 
z
" id="CMR17-99"/>
      <path d="M 43.09375 21.1875 
C 43.09375 34 33.796875 44 22.90625 44 
C 12 44 2.703125 34 2.703125 21.1875 
C 2.703125 8.609375 12 -1 22.90625 -1 
C 33.796875 -1 43.09375 8.609375 43.09375 21.1875 
z
M 22.90625 0.796875 
C 18.203125 0.796875 14.203125 3.59375 11.90625 7.5 
C 9.40625 11.984375 9.09375 17.59375 9.09375 22 
C 9.09375 26.203125 9.296875 31.40625 11.90625 35.90625 
C 13.90625 39.203125 17.796875 42.40625 22.90625 42.40625 
C 27.40625 42.40625 31.203125 39.90625 33.59375 36.40625 
C 36.703125 31.703125 36.703125 25.109375 36.703125 22 
C 36.703125 18.09375 36.5 12.109375 33.796875 7.296875 
C 31 2.703125 26.703125 0.796875 22.90625 0.796875 
z
" id="CMR17-111"/>
      <path d="M 30.90625 42.140625 
C 30.90625 43.953125 30.796875 44.046875 30.203125 44.046875 
C 29.796875 44.046875 29.703125 43.953125 28.5 42.453125 
C 28.203125 42.046875 27.296875 41.03125 27 40.640625 
C 23.796875 44.046875 19.296875 44.046875 17.59375 44.046875 
C 6.5 44.046875 2.5 38.234375 2.5 32.4375 
C 2.5 23.40625 12.703125 21.328125 15.59375 20.703125 
C 21.90625 19.421875 24.09375 19.015625 26.203125 17.203125 
C 27.5 16.015625 29.703125 13.8125 29.703125 10.21875 
C 29.703125 6 27.296875 0.59375 18.09375 0.59375 
C 9.40625 0.59375 6.296875 7.1875 4.5 15.953125 
C 4.203125 17.34375 4.203125 17.453125 3.40625 17.453125 
C 2.59375 17.453125 2.5 17.34375 2.5 15.359375 
L 2.5 0.984375 
C 2.5 -0.796875 2.59375 -0.90625 3.203125 -0.90625 
C 3.703125 -0.90625 3.796875 -0.796875 4.296875 0 
C 4.90625 0.890625 6.40625 3.296875 7 4.3125 
C 9 1.609375 12.5 -1 18.09375 -1 
C 28 -1 33.296875 4.421875 33.296875 12.25 
C 33.296875 17.375 30.59375 20.078125 29.296875 21.28125 
C 26.296875 24.390625 22.796875 25.09375 18.59375 25.890625 
C 13.09375 27.109375 6.09375 28.515625 6.09375 34.640625 
C 6.09375 37.234375 7.5 42.765625 17.59375 42.765625 
C 28.296875 42.765625 28.90625 32.71875 29.09375 29.5 
C 29.203125 29 29.703125 28.890625 30 28.890625 
C 30.90625 28.890625 30.90625 29.203125 30.90625 30.90625 
z
" id="CMR17-115"/>
      <path d="M 41.5 30.203125 
C 41.5 35.296875 40.5 43.59375 28.703125 43.59375 
C 20.5 43.59375 16.5 37 15.296875 33.703125 
L 15.203125 33.703125 
L 15.203125 68.6875 
L 3.296875 67.59375 
L 3.296875 65 
C 9.203125 65 10.09375 64.40625 10.09375 59.640625 
L 10.09375 6.65625 
C 10.09375 2.875 9.703125 2.390625 3.296875 2.390625 
L 3.296875 -0.203125 
C 5.703125 0 10.09375 0 12.703125 0 
C 15.296875 0 19.796875 0 22.203125 -0.203125 
L 22.203125 2.390625 
C 15.796875 2.390625 15.40625 2.78125 15.40625 6.6875 
L 15.40625 25.90625 
C 15.40625 35.109375 21 42 28 42 
C 35.40625 42 36.203125 35.40625 36.203125 30.59375 
L 36.203125 6.6875 
C 36.203125 2.875 35.796875 2.390625 29.40625 2.390625 
L 29.40625 -0.203125 
C 31.796875 0 36.203125 0 38.796875 0 
C 41.40625 0 45.90625 0 48.296875 -0.203125 
L 48.296875 2.390625 
C 41.90625 2.390625 41.5 2.78125 41.5 6.6875 
z
" id="CMR17-104"/>
      <path d="M 38.09375 23 
C 38.5 23.40625 38.5 23.609375 38.5 24.625 
C 38.5 34.96875 33.09375 44 21.703125 44 
C 11.09375 44 2.703125 33.890625 2.703125 21.609375 
C 2.703125 8.609375 12.203125 -1 22.796875 -1 
C 34 -1 38.40625 9.484375 38.40625 11.5625 
C 38.40625 12.25 37.796875 12.25 37.59375 12.25 
C 36.90625 12.25 36.796875 12.046875 36.40625 10.875 
C 34.203125 4.140625 28.703125 0.796875 23.5 0.796875 
C 19.203125 0.796875 14.90625 3.171875 12.203125 7.5 
C 9.09375 12.546875 9.09375 18.375 9.09375 23 
z
M 9.203125 24.5 
C 9.90625 39.140625 17.59375 42.40625 21.59375 42.40625 
C 28.40625 42.40625 33 35.890625 33.09375 24.5 
z
" id="CMR17-101"/>
      <path d="M 39.90625 40 
L 51.296875 40 
L 51.296875 42.578125 
L 39.703125 42.578125 
L 39.703125 54.59375 
C 39.703125 62.84375 43.90625 68 48.203125 68 
C 49.5 68 51 67.609375 52 66.90625 
C 51.203125 66.703125 49.09375 66.015625 49.09375 63.546875 
C 49.09375 60.953125 51.09375 60.15625 52.5 60.15625 
C 53.90625 60.15625 55.90625 60.953125 55.90625 63.546875 
C 55.90625 67.3125 52.296875 69.59375 48.296875 69.59375 
C 44.40625 69.59375 41.203125 67.703125 38.703125 65.328125 
C 36.40625 68.59375 32.59375 69.59375 28.703125 69.59375 
C 20.90625 69.59375 9.90625 65.125 9.90625 54.203125 
L 9.90625 42.578125 
L 1.90625 42.578125 
L 1.90625 40 
L 9.90625 40 
L 9.90625 6.671875 
C 9.90625 2.875 9.5 2.390625 3.09375 2.390625 
L 3.09375 -0.203125 
C 5.5 0 9.90625 0 12.40625 0 
C 15 0 19.40625 0 21.796875 -0.203125 
L 21.796875 2.390625 
C 15.40625 2.390625 15 2.78125 15 6.671875 
L 15 40 
L 34.796875 40 
L 34.796875 6.671875 
C 34.796875 2.875 34.40625 2.390625 28 2.390625 
L 28 -0.203125 
C 30.40625 0 35 0 37.59375 0 
C 40.5 0 45.59375 0 48.296875 -0.203125 
L 48.296875 2.390625 
C 41.09375 2.390625 39.90625 2.390625 39.90625 6.859375 
z
M 14.796875 42.578125 
L 14.796875 54.203125 
C 14.796875 63.234375 21.796875 68 28.5 68 
C 30 68 33.90625 67.6875 36.296875 65.421875 
C 34.5 65.421875 32.796875 64.625 32.796875 62.140625 
C 32.796875 59.5625 35.09375 58.859375 35.296875 58.859375 
C 34.796875 57.0625 34.796875 55.09375 34.796875 54.390625 
L 34.796875 42.578125 
z
" id="CMR17-11"/>
      <path d="M 15.09375 40 
L 29.09375 40 
L 29.09375 42.578125 
L 15.09375 42.578125 
L 15.09375 61 
L 13.296875 61 
C 13.09375 50.703125 9.59375 41.6875 1.09375 41.6875 
L 1.09375 40 
L 9.796875 40 
L 9.796875 12.046875 
C 9.796875 10.15625 9.796875 -1 21.40625 -1 
C 27.296875 -1 30.703125 4.78125 30.703125 12.140625 
L 30.703125 17.8125 
L 28.90625 17.8125 
L 28.90625 12.234375 
C 28.90625 5.375 26.203125 0.796875 22 0.796875 
C 19.09375 0.796875 15.09375 2.78125 15.09375 11.84375 
z
" id="CMR17-116"/>
      <path d="M 15.5 61.078125 
C 15.5 63.265625 13.703125 65.15625 11.40625 65.15625 
C 9.203125 65.15625 7.296875 63.375 7.296875 61.078125 
C 7.296875 58.890625 9.09375 57 11.40625 57 
C 13.59375 57 15.5 58.796875 15.5 61.078125 
z
M 3.796875 42.28125 
L 3.796875 39.703125 
C 9.40625 39.703125 10.203125 39.09375 10.203125 34.328125 
L 10.203125 6.671875 
C 10.203125 2.875 9.796875 2.390625 3.40625 2.390625 
L 3.40625 -0.203125 
C 5.796875 0 10.09375 0 12.59375 0 
C 15 0 19.09375 0 21.40625 -0.203125 
L 21.40625 2.390625 
C 15.5 2.390625 15.296875 2.984375 15.296875 6.5625 
L 15.296875 43.375 
z
" id="CMR17-105"/>
      <path d="M 39.09375 33.796875 
C 40 36 41.59375 40 47.40625 40 
L 47.40625 42.59375 
C 45.5 42.59375 43 42.59375 41.09375 42.59375 
C 39 42.59375 35.703125 42.59375 33.703125 42.6875 
L 33.703125 40.09375 
C 36.203125 39.890625 37.59375 38.703125 37.59375 36.109375 
C 37.59375 35.203125 37.59375 35 37 33.609375 
L 26 5.890625 
L 14.09375 35.71875 
C 13.5 37.015625 13.5 37.203125 13.5 37.609375 
C 13.5 40 16.796875 40 18.296875 40 
L 18.296875 42.6875 
C 15.90625 42.59375 11.5 42.59375 9 42.59375 
C 6.296875 42.59375 3.203125 42.59375 1 42.6875 
L 1 40 
C 4.796875 40 6.90625 40 8.09375 36.90625 
L 22.59375 0.6875 
C 23.203125 -0.796875 23.296875 -1 24.203125 -1 
C 25.09375 -1 25.203125 -0.796875 25.796875 0.6875 
z
" id="CMR17-118"/>
      <path d="M 67.59375 30.203125 
C 67.59375 35.1875 66.703125 43.59375 54.796875 43.59375 
C 48 43.59375 43.296875 39 41.5 33.609375 
L 41.40625 33.609375 
C 40.203125 41.8125 34.296875 43.59375 28.703125 43.59375 
C 20.796875 43.59375 16.703125 37.5 15.203125 33.5 
L 15.09375 33.5 
L 15.09375 43.59375 
L 3.296875 42.5 
L 3.296875 39.90625 
C 9.203125 39.90625 10.09375 39.296875 10.09375 34.5 
L 10.09375 6.6875 
C 10.09375 2.875 9.703125 2.390625 3.296875 2.390625 
L 3.296875 -0.203125 
C 5.703125 0 10.09375 0 12.703125 0 
C 15.296875 0 19.796875 0 22.203125 -0.203125 
L 22.203125 2.390625 
C 15.796875 2.390625 15.40625 2.78125 15.40625 6.6875 
L 15.40625 25.90625 
C 15.40625 35.109375 21 42 28 42 
C 35.40625 42 36.203125 35.40625 36.203125 30.59375 
L 36.203125 6.6875 
C 36.203125 2.875 35.796875 2.390625 29.40625 2.390625 
L 29.40625 -0.203125 
C 31.796875 0 36.203125 0 38.796875 0 
C 41.40625 0 45.90625 0 48.296875 -0.203125 
L 48.296875 2.390625 
C 41.90625 2.390625 41.5 2.78125 41.5 6.6875 
L 41.5 25.90625 
C 41.5 35.109375 47.09375 42 54.09375 42 
C 61.5 42 62.296875 35.40625 62.296875 30.59375 
L 62.296875 6.6875 
C 62.296875 2.875 61.90625 2.390625 55.5 2.390625 
L 55.5 -0.203125 
C 57.90625 0 62.296875 0 64.90625 0 
C 67.5 0 72 0 74.40625 -0.203125 
L 74.40625 2.390625 
C 68 2.390625 67.59375 2.78125 67.59375 6.6875 
z
" id="CMR17-109"/>
      <path d="M 36 25.828125 
C 36 32.375 36 35.84375 31.796875 39.734375 
C 28.09375 43 23.796875 44 20.40625 44 
C 12.5 44 6.796875 37.609375 6.796875 30.796875 
C 6.796875 27 9.796875 27 10.40625 27 
C 11.703125 27 14 27.78125 14 30.53125 
C 14 33 12.09375 34.078125 10.40625 34.078125 
C 10 34.078125 9.5 33.96875 9.203125 33.875 
C 11.296875 40.5 16.703125 42.40625 20.203125 42.40625 
C 25.203125 42.40625 30.703125 37.953125 30.703125 29.453125 
L 30.703125 25 
C 24.796875 25 17.703125 24.203125 12.09375 21.203125 
C 5.796875 17.703125 4 12.703125 4 8.90625 
C 4 1.203125 13 -1 18.296875 -1 
C 23.796875 -1 28.90625 2.171875 31.09375 7.984375 
C 31.296875 3.640625 34.09375 -0.28125 38.5 -0.28125 
C 40.59375 -0.28125 45.90625 1.09375 45.90625 8.859375 
L 45.90625 14.375 
L 44.09375 14.375 
L 44.09375 8.78125 
C 44.09375 2.78125 41.40625 2 40.09375 2 
C 36 2 36 7.15625 36 11.53125 
z
M 30.703125 13.59375 
C 30.703125 4.953125 24.5 0.59375 19 0.59375 
C 14 0.59375 10.09375 4.296875 10.09375 8.90625 
C 10.09375 11.890625 11.40625 17.1875 17.203125 20.390625 
C 22 23.09375 27.5 23.5 30.703125 23.5 
z
" id="CMR17-97"/>
     </defs>
     <use transform="scale(0.996264)" xlink:href="#CMR17-99"/>
     <use transform="translate(40.48566 0)scale(0.996264)" xlink:href="#CMR17-111"/>
     <use transform="translate(86.176138 0)scale(0.996264)" xlink:href="#CMR17-115"/>
     <use transform="translate(121.977475 0)scale(0.996264)" xlink:href="#CMR17-104"/>
     <use transform="translate(202.948811 0)scale(0.996264)" xlink:href="#CMR17-101"/>
     <use transform="translate(243.434472 0)scale(0.996264)" xlink:href="#CMR17-11"/>
     <use transform="translate(295.779149 0)scale(0.996264)" xlink:href="#CMR17-101"/>
     <use transform="translate(336.26481 0)scale(0.996264)" xlink:href="#CMR17-99"/>
     <use transform="translate(376.75047 0)scale(0.996264)" xlink:href="#CMR17-116"/>
     <use transform="translate(412.031238 0)scale(0.996264)" xlink:href="#CMR17-105"/>
     <use transform="translate(436.902296 0)scale(0.996264)" xlink:href="#CMR17-118"/>
     <use transform="translate(482.592758 0)scale(0.996264)" xlink:href="#CMR17-101"/>
     <use transform="translate(553.154385 0)scale(0.996264)" xlink:href="#CMR17-109"/>
     <use transform="translate(630.073975 0)scale(0.996264)" xlink:href="#CMR17-97"/>
     <use transform="translate(675.764452 0)scale(0.996264)" xlink:href="#CMR17-115"/>
     <use transform="translate(711.56579 0)scale(0.996264)" xlink:href="#CMR17-115"/>
    </g>
    <!-- L32T64 beta12p0 kcfgQUENCHED k0p1475 g1meson -->
    <g transform="translate(114.386887 81.180449)scale(0.24 -0.24)">
     <defs>
      <path d="M 54.203125 25.234375 
L 52.40625 25.234375 
C 51.59375 15.359375 50.296875 2.59375 33.203125 2.59375 
L 23.90625 2.59375 
C 19.90625 2.59375 19.703125 3.078125 19.703125 6.46875 
L 19.703125 60.90625 
C 19.703125 64.515625 19.90625 65.5 27.5 65.5 
L 29.703125 65.5 
L 29.703125 68 
C 25.59375 68 20.796875 68 16.703125 68 
C 13.59375 68 8 68 5.09375 68 
L 5.09375 65.5 
C 12 65.5 13.09375 65.5 13.09375 61.015625 
L 13.09375 7.0625 
C 13.09375 2.59375 12 2.59375 5.09375 2.59375 
L 5.09375 0 
L 51.796875 0 
z
" id="CMR17-76"/>
      <path d="M 62.203125 67.59375 
L 4.5 67.59375 
L 2.796875 45.59375 
L 4.59375 45.59375 
C 5.90625 62.125 7.296875 65 22.703125 65 
C 24.5 65 27.40625 65 28.203125 64.90625 
C 30.09375 64.609375 30.09375 63.40625 30.09375 61.125 
L 30.09375 7.171875 
C 30.09375 3.59375 29.796875 2.5 21.5 2.5 
L 18.703125 2.5 
L 18.703125 0 
C 23.5 0 28.5 0 33.40625 0 
C 38.296875 0 43.296875 0 48.09375 0 
L 48.09375 2.5 
L 45.296875 2.5 
C 37 2.5 36.703125 3.59375 36.703125 7.171875 
L 36.703125 61.125 
C 36.703125 63.3125 36.703125 64.515625 38.5 64.90625 
C 39.296875 65 42.203125 65 44 65 
C 59.296875 65 60.796875 62.125 62.09375 45.59375 
L 63.90625 45.59375 
z
" id="CMR17-84"/>
      <path d="M 10.59375 34 
C 10.59375 57.65625 21.796875 63 28.296875 63 
C 30.40625 63 35.5 62.640625 37.5 59 
C 35.90625 59 32.90625 59 32.90625 55.515625 
C 32.90625 52.828125 35.09375 51.921875 36.5 51.921875 
C 37.40625 51.921875 40.09375 52.3125 40.09375 55.625 
C 40.09375 61.78125 35.09375 65.296875 28.203125 65.296875 
C 16.296875 65.296875 3.796875 52.96875 3.796875 31 
C 3.796875 3.953125 15.09375 -2 23.09375 -2 
C 32.796875 -2 42 6.671875 42 20.046875 
C 42 32.515625 33.90625 41.59375 23.703125 41.59375 
C 17.59375 41.59375 13.09375 37.609375 10.59375 30.625 
z
M 23.09375 0.390625 
C 10.796875 0.390625 10.796875 18.75 10.796875 22.4375 
C 10.796875 29.625 14.203125 40 23.5 40 
C 25.203125 40 30.09375 40 33.40625 33.125 
C 35.203125 29.21875 35.203125 25.140625 35.203125 20.140625 
C 35.203125 14.75 35.203125 10.78125 33.09375 6.78125 
C 30.90625 2.671875 27.703125 0.390625 23.09375 0.390625 
z
" id="CMR17-54"/>
      <path d="M 15 68.6875 
L 3.09375 67.59375 
L 3.09375 65 
C 9 65 9.90625 64.40625 9.90625 59.640625 
L 9.90625 -0.203125 
L 11.703125 -0.203125 
L 14.59375 6.890625 
C 17.5 2.203125 21.796875 -1 27.59375 -1 
C 37.59375 -1 47.703125 7.8125 47.703125 21.40625 
C 47.703125 34.1875 38.703125 43.59375 28.59375 43.59375 
C 22.40625 43.59375 18 40.296875 15 36.40625 
z
M 15.203125 31.3125 
C 15.203125 33.09375 15.203125 33.40625 16.59375 35.5 
C 20.5 41.515625 26.09375 42 28 42 
C 31 42 41.296875 40.390625 41.296875 21.5 
C 41.296875 1.6875 29.5 0.59375 27.09375 0.59375 
C 24 0.59375 19.5 1.78125 16.296875 7.59375 
C 15.203125 9.5 15.203125 9.703125 15.203125 11.484375 
z
" id="CMR17-98"/>
      <path d="M 22 -16.609375 
C 15.59375 -16.609375 15.203125 -16.203125 15.203125 -12.328125 
L 15.203125 6.28125 
C 18.09375 2.09375 22.296875 -0.59375 27.59375 -0.59375 
C 37.59375 -0.59375 47.703125 8.171875 47.703125 21.6875 
C 47.703125 34.234375 39 43.78125 28.703125 43.78125 
C 22.703125 43.78125 17.796875 40.5 15 36.53125 
L 15 43.78125 
L 3.09375 42.6875 
L 3.09375 40.109375 
C 9 40.109375 9.90625 39.5 9.90625 34.734375 
L 9.90625 -12.328125 
C 9.90625 -16.109375 9.5 -16.609375 3.09375 -16.609375 
L 3.09375 -19.1875 
C 5.5 -19 9.90625 -19 12.5 -19 
C 15.09375 -19 19.59375 -19 22 -19.1875 
z
M 15.203125 31.4375 
C 15.203125 32.84375 15.203125 34.921875 19.09375 38.609375 
C 19.59375 39.015625 23 42 28 42 
C 35.296875 42 41.296875 32.9375 41.296875 21.59375 
C 41.296875 10.25 34.90625 1 27 1 
C 23.40625 1 19.5 2.6875 16.5 7.375 
C 15.203125 9.5625 15.203125 10.15625 15.203125 11.75 
z
" id="CMR17-112"/>
      <path d="M 26.09375 26.140625 
C 26 26.34375 25.5 26.9375 25.5 27.234375 
C 25.5 27.4375 32.59375 33.921875 33.5 34.71875 
C 39.203125 39.5 42.796875 40 45.40625 40 
L 45.40625 42.703125 
C 44.796875 42.703125 44.59375 42.703125 44.5 42.5 
L 39.59375 42.5 
C 36.796875 42.5 32.5 42.5 29.796875 42.703125 
L 29.796875 40.09375 
C 31.203125 39.984375 32.203125 39.1875 32.203125 37.796875 
C 32.203125 35.796875 30.203125 33.90625 30.09375 33.90625 
L 15 20.140625 
L 15 68.6875 
L 3.09375 67.59375 
L 3.09375 65 
C 9 65 9.90625 64.40625 9.90625 59.640625 
L 9.90625 6.65625 
C 9.90625 2.875 9.5 2.390625 3.09375 2.390625 
L 3.09375 -0.203125 
C 5.5 0 9.90625 0 12.40625 0 
C 14.90625 0 19.296875 0 21.703125 -0.203125 
L 21.703125 2.390625 
C 15.296875 2.390625 14.90625 2.78125 14.90625 6.6875 
L 14.90625 17.65625 
L 21.796875 23.9375 
L 31.90625 8.96875 
C 33.09375 7.171875 34.09375 5.765625 34.09375 4.46875 
C 34.09375 2.6875 32.296875 2.390625 31.09375 2.390625 
L 31.09375 -0.203125 
C 33.5 0 37.796875 0 40.296875 0 
C 42.09375 0 45.796875 0 47.5 0 
L 47.5 2.390625 
C 42.796875 2.390625 41.703125 3.28125 38.703125 7.671875 
z
" id="CMR17-107"/>
      <path d="M 15.296875 40 
L 26.703125 40 
L 26.703125 42.578125 
L 15.09375 42.578125 
L 15.09375 54.59375 
C 15.09375 62.84375 19.296875 68 23.59375 68 
C 24.90625 68 26.40625 67.609375 27.40625 66.90625 
C 26.59375 66.703125 24.5 66.015625 24.5 63.546875 
C 24.5 60.953125 26.5 60.15625 27.90625 60.15625 
C 29.296875 60.15625 31.296875 60.953125 31.296875 63.546875 
C 31.296875 67.3125 27.703125 69.59375 23.703125 69.59375 
C 18 69.59375 10.203125 64.9375 10.203125 54.390625 
L 10.203125 42.578125 
L 2.203125 42.578125 
L 2.203125 40 
L 10.203125 40 
L 10.203125 6.671875 
C 10.203125 2.875 9.796875 2.390625 3.40625 2.390625 
L 3.40625 -0.203125 
C 5.796875 0 10.40625 0 13 0 
C 15.90625 0 21 0 23.703125 -0.203125 
L 23.703125 2.390625 
C 16.5 2.390625 15.296875 2.390625 15.296875 6.859375 
z
" id="CMR17-102"/>
      <path d="M 11.09375 18.1875 
C 13 16.6875 16.296875 15 20.296875 15 
C 28.203125 15 35 21.203125 35 29.5 
C 35 32.09375 34.203125 36.09375 31.203125 39.203125 
C 34 42.0625 38.09375 43 40.40625 43 
C 40.796875 43 41.40625 43 41.90625 42.71875 
C 41.5 42.625 40.59375 42.234375 40.59375 40.703125 
C 40.59375 39.484375 41.5 38.609375 42.796875 38.609375 
C 44.296875 38.609375 45.09375 39.578125 45.09375 40.84375 
C 45.09375 42.671875 43.59375 44.59375 40.40625 44.59375 
C 36.40625 44.59375 32.90625 42.78125 30.09375 40.3125 
C 27.09375 43.015625 23.5 44 20.296875 44 
C 12.40625 44 5.59375 37.796875 5.59375 29.5 
C 5.59375 23.78125 8.90625 20.1875 9.90625 19.1875 
C 6.90625 15.6875 6.90625 11.609375 6.90625 11.109375 
C 6.90625 8.515625 7.90625 4.71875 11.296875 2.625 
C 6.09375 1.328125 2 -2.640625 2 -7.59375 
C 2 -14.734375 11.5 -20 22.90625 -20 
C 33.90625 -20 43.796875 -14.9375 43.796875 -7.484375 
C 43.796875 6 29 6 21.296875 6 
C 19 6 14.90625 6 14.40625 6.109375 
C 11.296875 6.609375 9.203125 9.40625 9.203125 12.90625 
C 9.203125 13.796875 9.203125 16 11.09375 18.1875 
z
M 20.296875 16.6875 
C 11.5 16.6875 11.5 27.5 11.5 29.515625 
C 11.5 31.5 11.5 42.3125 20.296875 42.3125 
C 29.09375 42.3125 29.09375 31.5 29.09375 29.515625 
C 29.09375 27.5 29.09375 16.6875 20.296875 16.6875 
z
M 22.90625 -18.296875 
C 12.90625 -18.296875 6 -13.046875 6 -7.59375 
C 6 -4.515625 7.703125 -1.640625 9.90625 -0.0625 
C 12.40625 1.625 13.40625 1.625 20.203125 1.625 
C 28.40625 1.625 39.796875 1.625 39.796875 -7.59375 
C 39.796875 -13.046875 32.90625 -18.296875 22.90625 -18.296875 
z
" id="CMR17-103"/>
      <path d="M 47.296875 1.296875 
C 59.203125 6.375 67.296875 19.3125 67.296875 34.265625 
C 67.296875 54.671875 52.59375 70 36 70 
C 19 70 4.59375 54.5 4.59375 34.359375 
C 4.59375 14.5 19 -1 36 -1 
C 38.296875 -1 41.5 -0.703125 45.296875 0.59375 
C 47 -11.671875 48.09375 -19 56.703125 -19 
C 67.296875 -19 67.796875 -3.328125 67.796875 -0.515625 
C 67.796875 0.5 67.796875 1.1875 67.09375 1.1875 
C 66.59375 1.1875 66.5 0.484375 66.5 0.28125 
C 65.796875 -9.421875 60.40625 -11.4375 57.203125 -11.4375 
C 51.296875 -11.4375 49.203125 -6.15625 47.296875 1.296875 
z
M 30.59375 1.5625 
C 20.203125 4.84375 12 15.890625 12 34.359375 
C 12 57.984375 25.09375 68.203125 35.90625 68.203125 
C 47.09375 68.203125 59.90625 57.59375 59.90625 34.34375 
C 59.90625 17.5625 53.203125 8.234375 46.5 3.96875 
C 45 9.046875 42.59375 15 36.09375 15 
C 31.296875 15 28.59375 10.8125 28.59375 7.03125 
C 28.59375 4.75 29.5 2.859375 30.59375 1.5625 
z
M 44.90625 3 
C 40.90625 0.890625 37.703125 0.890625 36 0.890625 
C 31.5 0.890625 30.203125 4.921875 30.203125 7.09375 
C 30.203125 10.15625 32.296875 13.40625 36.09375 13.40625 
C 42.5 13.40625 44.09375 7.703125 44.90625 3 
z
" id="CMR17-81"/>
      <path d="M 54 22.390625 
C 54 9.046875 45.296875 0.59375 35.796875 0.59375 
C 30.703125 0.59375 26.09375 3.28125 23.296875 7.453125 
C 20.09375 12.234375 19.703125 18.40625 19.703125 21.890625 
L 19.703125 60.53125 
C 19.703125 65 20.796875 65 27.703125 65 
L 27.703125 67.5 
C 24.796875 67.5 19.5 67.5 16.40625 67.5 
C 13.296875 67.5 8 67.5 5.09375 67.5 
L 5.09375 65 
C 12 65 13.09375 65 13.09375 60.53125 
L 13.09375 22.390625 
C 13.09375 8.0625 24 -2 35.59375 -2 
C 48.59375 -2 56.09375 11.234375 56.09375 21 
L 56.09375 58.84375 
C 56.09375 64.40625 61.203125 65 64.09375 65 
L 64.09375 67.59375 
C 61.796875 67.5 57.59375 67.5 55.09375 67.5 
C 52.59375 67.5 48.296875 67.5 46 67.59375 
L 46 65 
C 54 65 54 60.328125 54 57.84375 
z
" id="CMR17-85"/>
      <path d="M 60.703125 25.234375 
L 58.90625 25.234375 
C 56.703125 10.5625 55.40625 2.59375 37.796875 2.59375 
L 23.90625 2.59375 
C 19.90625 2.59375 19.703125 3.078125 19.703125 6.46875 
L 19.703125 34 
L 29.09375 34 
C 38.5 34 39.40625 30.625 39.40625 22.34375 
L 41.203125 22.34375 
L 41.203125 48.140625 
L 39.40625 48.140625 
C 39.40625 39.953125 38.5 36.59375 29.09375 36.59375 
L 19.703125 36.59375 
L 19.703125 61.140625 
C 19.703125 64.5 19.90625 65 23.90625 65 
L 37.59375 65 
C 53.09375 65 54.90625 58.890625 56.296875 45.765625 
L 58.09375 45.765625 
L 55.703125 67.578125 
L 5.09375 67.578125 
L 5.09375 65 
C 12 65 13.09375 65 13.09375 60.53125 
L 13.09375 7.046875 
C 13.09375 2.59375 12 2.59375 5.09375 2.59375 
L 5.09375 0 
L 57.09375 0 
z
" id="CMR17-69"/>
      <path d="M 20.5 66.40625 
C 19.796875 67.5 19.703125 67.5 17.796875 67.5 
L 5.09375 67.5 
L 5.09375 65 
L 7 65 
C 11 65 12.796875 64.515625 13.09375 64.40625 
L 13.09375 9.53125 
C 13.09375 7.046875 13.09375 2.390625 5.09375 2.390625 
L 5.09375 -0.203125 
C 7.40625 0 11.59375 0 14.09375 0 
C 16.59375 0 20.796875 0 23.09375 -0.203125 
L 23.09375 2.390625 
C 15.09375 2.390625 15.09375 7.046875 15.09375 9.53125 
L 15.09375 63.015625 
C 15.796875 62.421875 15.796875 62.21875 16.5 61.234375 
L 53.59375 1.1875 
C 54.296875 0 54.59375 0 55.09375 0 
C 56.09375 0 56.09375 0.296875 56.09375 2.171875 
L 56.09375 57.890625 
C 56.09375 60.359375 56.09375 65 64.09375 65 
L 64.09375 67.59375 
C 61.796875 67.5 57.59375 67.5 55.09375 67.5 
C 52.59375 67.5 48.40625 67.5 46.09375 67.59375 
L 46.09375 65 
C 54.09375 65 54.09375 60.34375 54.09375 57.859375 
L 54.09375 11.921875 
z
" id="CMR17-78"/>
      <path d="M 62.09375 67.015625 
C 62.09375 68.796875 62 68.90625 61.40625 68.90625 
C 61 68.90625 60.90625 68.796875 60.203125 67.609375 
L 55.796875 59.25 
C 50.90625 65.421875 44.90625 69 37.203125 69 
C 20.09375 69 4.59375 54 4.59375 33.5625 
C 4.59375 12.90625 20.09375 -2 37.296875 -2 
C 52.59375 -2 62.09375 11.40625 62.09375 22.828125 
C 62.09375 23.8125 62.09375 24.21875 61.203125 24.21875 
C 60.40625 24.21875 60.40625 23.921875 60.296875 23.03125 
C 59.5 9.140625 49.5 0.59375 38.703125 0.59375 
C 28.5 0.59375 12.203125 7.734375 12.203125 33.546875 
C 12.203125 59.453125 28.796875 66.40625 38.5 66.40625 
C 49.796875 66.40625 58 56.6875 59.90625 42.890625 
C 60.09375 41.6875 60.09375 41.484375 61 41.484375 
C 62.09375 41.484375 62.09375 41.6875 62.09375 43.484375 
z
" id="CMR17-67"/>
      <path d="M 56.09375 61.015625 
C 56.09375 65.5 57.203125 65.5 64.09375 65.5 
L 64.09375 68 
C 61.203125 68 55.90625 68 52.796875 68 
C 49.703125 68 44.40625 68 41.5 68 
L 41.5 65.5 
C 48.40625 65.5 49.5 65.5 49.5 61 
L 49.5 36.578125 
L 19.703125 36.578125 
L 19.703125 61 
C 19.703125 65.5 20.796875 65.5 27.703125 65.5 
L 27.703125 68 
C 24.796875 68 19.5 68 16.40625 68 
C 13.296875 68 8 68 5.09375 68 
L 5.09375 65.5 
C 12 65.5 13.09375 65.5 13.09375 61.015625 
L 13.09375 6.984375 
C 13.09375 2.5 12 2.5 5.09375 2.5 
L 5.09375 0 
C 8 0 13.296875 0 16.40625 0 
C 19.5 0 24.796875 0 27.703125 0 
L 27.703125 2.5 
C 20.796875 2.5 19.703125 2.5 19.703125 6.96875 
L 19.703125 34 
L 49.5 34 
L 49.5 6.96875 
C 49.5 2.5 48.40625 2.5 41.5 2.5 
L 41.5 0 
C 44.40625 0 49.703125 0 52.796875 0 
C 55.90625 0 61.203125 0 64.09375 0 
L 64.09375 2.5 
C 57.203125 2.5 56.09375 2.5 56.09375 6.984375 
z
" id="CMR17-72"/>
      <path d="M 5.203125 68 
L 5.203125 65.40625 
C 12.09375 65.40625 13.203125 65.40625 13.203125 60.9375 
L 13.203125 7.0625 
C 13.203125 2.59375 12.09375 2.59375 5.203125 2.59375 
L 5.203125 0 
L 37 0 
C 53.09375 0 66 14.734375 66 33.453125 
C 66 52.28125 53.296875 68 37 68 
z
M 23.796875 2.59375 
C 19.796875 2.59375 19.59375 3.078125 19.59375 6.46875 
L 19.59375 61.53125 
C 19.59375 64.921875 19.796875 65.40625 23.796875 65.40625 
L 35 65.40625 
C 43.296875 65.40625 58.59375 60.53125 58.59375 33.453125 
C 58.59375 19.40625 54.5 13.734375 52.59375 11.046875 
C 50.203125 7.96875 44.5 2.59375 35 2.59375 
z
" id="CMR17-68"/>
      <path d="M 45.09375 61.578125 
L 45.09375 63.765625 
L 21.59375 63.765625 
C 9.90625 63.765625 9.703125 65.078125 9.296875 67 
L 7.5 67 
L 4.59375 48.34375 
L 6.40625 48.34375 
C 6.703125 50.234375 7.40625 55.3125 8.59375 57.203125 
C 9.203125 58 16.59375 58 18.296875 58 
L 40.296875 58 
L 29.203125 41.578125 
C 21.796875 30.53125 16.703125 15.609375 16.703125 2.578125 
C 16.703125 1.390625 16.703125 -2 20.296875 -2 
C 23.90625 -2 23.90625 1.390625 23.90625 2.671875 
L 23.90625 7.265625 
C 23.90625 23.5625 26.703125 34.3125 31.296875 41.1875 
z
" id="CMR17-55"/>
      <path d="M 41.5 30.203125 
C 41.5 35.296875 40.5 43.59375 28.703125 43.59375 
C 20.796875 43.59375 16.703125 37.5 15.203125 33.5 
L 15.09375 33.5 
L 15.09375 43.59375 
L 3.296875 42.5 
L 3.296875 39.90625 
C 9.203125 39.90625 10.09375 39.296875 10.09375 34.5 
L 10.09375 6.6875 
C 10.09375 2.875 9.703125 2.390625 3.296875 2.390625 
L 3.296875 -0.203125 
C 5.703125 0 10.09375 0 12.703125 0 
C 15.296875 0 19.796875 0 22.203125 -0.203125 
L 22.203125 2.390625 
C 15.796875 2.390625 15.40625 2.78125 15.40625 6.6875 
L 15.40625 25.90625 
C 15.40625 35.109375 21 42 28 42 
C 35.40625 42 36.203125 35.40625 36.203125 30.59375 
L 36.203125 6.6875 
C 36.203125 2.875 35.796875 2.390625 29.40625 2.390625 
L 29.40625 -0.203125 
C 31.796875 0 36.203125 0 38.796875 0 
C 41.40625 0 45.90625 0 48.296875 -0.203125 
L 48.296875 2.390625 
C 41.90625 2.390625 41.5 2.78125 41.5 6.6875 
z
" id="CMR17-110"/>
     </defs>
     <use transform="scale(0.996264)" xlink:href="#CMR17-76"/>
     <use transform="translate(57.381408 0)scale(0.996264)" xlink:href="#CMR17-51"/>
     <use transform="translate(103.071885 0)scale(0.996264)" xlink:href="#CMR17-50"/>
     <use transform="translate(148.762362 0)scale(0.996264)" xlink:href="#CMR17-84"/>
     <use transform="translate(215.272243 0)scale(0.996264)" xlink:href="#CMR17-54"/>
     <use transform="translate(260.96272 0)scale(0.996264)" xlink:href="#CMR17-52"/>
     <use transform="translate(336.729163 0)scale(0.996264)" xlink:href="#CMR17-98"/>
     <use transform="translate(390.226972 0)scale(0.996264)" xlink:href="#CMR17-101"/>
     <use transform="translate(430.712632 0)scale(0.996264)" xlink:href="#CMR17-116"/>
     <use transform="translate(465.9934 0)scale(0.996264)" xlink:href="#CMR17-97"/>
     <use transform="translate(511.683877 0)scale(0.996264)" xlink:href="#CMR17-49"/>
     <use transform="translate(557.374354 0)scale(0.996264)" xlink:href="#CMR17-50"/>
     <use transform="translate(603.064831 0)scale(0.996264)" xlink:href="#CMR17-112"/>
     <use transform="translate(653.960201 0)scale(0.996264)" xlink:href="#CMR17-48"/>
     <use transform="translate(729.726645 0)scale(0.996264)" xlink:href="#CMR17-107"/>
     <use transform="translate(775.417107 0)scale(0.996264)" xlink:href="#CMR17-99"/>
     <use transform="translate(815.902767 0)scale(0.996264)" xlink:href="#CMR17-102"/>
     <use transform="translate(843.376279 0)scale(0.996264)" xlink:href="#CMR17-103"/>
     <use transform="translate(889.066756 0)scale(0.996264)" xlink:href="#CMR17-81"/>
     <use transform="translate(960.781545 0)scale(0.996264)" xlink:href="#CMR17-85"/>
     <use transform="translate(1029.853975 0)scale(0.996264)" xlink:href="#CMR17-69"/>
     <use transform="translate(1092.440275 0)scale(0.996264)" xlink:href="#CMR17-78"/>
     <use transform="translate(1161.512705 0)scale(0.996264)" xlink:href="#CMR17-67"/>
     <use transform="translate(1228.022586 0)scale(0.996264)" xlink:href="#CMR17-72"/>
     <use transform="translate(1297.095015 0)scale(0.996264)" xlink:href="#CMR17-69"/>
     <use transform="translate(1359.681316 0)scale(0.996264)" xlink:href="#CMR17-68"/>
     <use transform="translate(1460.150838 0)scale(0.996264)" xlink:href="#CMR17-107"/>
     <use transform="translate(1508.443754 0)scale(0.996264)" xlink:href="#CMR17-48"/>
     <use transform="translate(1554.134231 0)scale(0.996264)" xlink:href="#CMR17-112"/>
     <use transform="translate(1605.029601 0)scale(0.996264)" xlink:href="#CMR17-49"/>
     <use transform="translate(1650.720078 0)scale(0.996264)" xlink:href="#CMR17-52"/>
     <use transform="translate(1696.410555 0)scale(0.996264)" xlink:href="#CMR17-55"/>
     <use transform="translate(1742.101032 0)scale(0.996264)" xlink:href="#CMR17-53"/>
     <use transform="translate(1817.867476 0)scale(0.996264)" xlink:href="#CMR17-103"/>
     <use transform="translate(1863.557953 0)scale(0.996264)" xlink:href="#CMR17-49"/>
     <use transform="translate(1909.24843 0)scale(0.996264)" xlink:href="#CMR17-109"/>
     <use transform="translate(1986.16802 0)scale(0.996264)" xlink:href="#CMR17-101"/>
     <use transform="translate(2026.65368 0)scale(0.996264)" xlink:href="#CMR17-115"/>
     <use transform="translate(2062.455018 0)scale(0.996264)" xlink:href="#CMR17-111"/>
     <use transform="translate(2108.145495 0)scale(0.996264)" xlink:href="#CMR17-110"/>
    </g>
   </g>
   <g id="legend_1">
    <g id="patch_7">
     <path d="M 78.143522 481.575773 
L 221.460136 481.575773 
Q 224.660136 481.575773 224.660136 478.375773 
L 224.660136 315.808797 
Q 224.660136 312.608797 221.460136 312.608797 
L 78.143522 312.608797 
Q 74.943522 312.608797 74.943522 315.808797 
L 74.943522 478.375773 
Q 74.943522 481.575773 78.143522 481.575773 
z
" style="fill:#ffffff;opacity:0.8;stroke:#cccccc;stroke-linejoin:miter;"/>
    </g>
    <g id="LineCollection_8">
     <path d="M 97.343522 333.566297 
L 97.343522 317.566297 
" style="fill:none;stroke:#8000ff;stroke-width:2;"/>
    </g>
    <g id="line2d_20">
     <path d="M 81.343522 325.566297 
L 113.343522 325.566297 
" style="fill:none;stroke:#8000ff;stroke-linecap:square;stroke-width:2;"/>
    </g>
    <g id="line2d_21"/>
    <g id="text_15">
     <!-- LapH Nvec8 -->
     <g transform="translate(126.143522 331.166297)scale(0.16 -0.16)">
      <defs>
       <path d="M 27.203125 35.375 
C 33.5 38.546875 39.90625 43.328125 39.90625 50.984375 
C 39.90625 60.015625 31.09375 65.296875 23 65.296875 
C 13.90625 65.296875 5.90625 58.734375 5.90625 49.6875 
C 5.90625 47.203125 6.5 42.921875 10.40625 39.140625 
C 11.40625 38.15625 15.59375 35.171875 18.296875 33.28125 
C 13.796875 30.984375 3.296875 25.53125 3.296875 14.59375 
C 3.296875 4.359375 13.09375 -2 22.796875 -2 
C 33.5 -2 42.5 5.65625 42.5 15.78125 
C 42.5 24.84375 36.40625 29.015625 32.40625 31.703125 
z
M 14.09375 44.09375 
C 13.296875 44.59375 9.296875 47.671875 9.296875 52.359375 
C 9.296875 58.421875 15.59375 63 22.796875 63 
C 30.703125 63 36.5 57.4375 36.5 50.96875 
C 36.5 41.703125 26.09375 36.421875 25.59375 36.421875 
C 25.5 36.421875 25.40625 36.421875 24.59375 37.03125 
z
M 32.5 23.734375 
C 34 22.640625 38.796875 19.375 38.796875 13.296875 
C 38.796875 5.953125 31.40625 0.390625 23 0.390625 
C 13.90625 0.390625 7 6.84375 7 14.6875 
C 7 22.546875 13.09375 29.09375 20 32.1875 
z
" id="CMR17-56"/>
      </defs>
      <use transform="scale(0.996264)" xlink:href="#CMR17-76"/>
      <use transform="translate(57.381408 0)scale(0.996264)" xlink:href="#CMR17-97"/>
      <use transform="translate(103.071885 0)scale(0.996264)" xlink:href="#CMR17-112"/>
      <use transform="translate(153.967255 0)scale(0.996264)" xlink:href="#CMR17-72"/>
      <use transform="translate(253.115651 0)scale(0.996264)" xlink:href="#CMR17-78"/>
      <use transform="translate(322.188081 0)scale(0.996264)" xlink:href="#CMR17-118"/>
      <use transform="translate(367.878543 0)scale(0.996264)" xlink:href="#CMR17-101"/>
      <use transform="translate(408.364203 0)scale(0.996264)" xlink:href="#CMR17-99"/>
      <use transform="translate(448.849864 0)scale(0.996264)" xlink:href="#CMR17-56"/>
     </g>
    </g>
    <g id="LineCollection_9">
     <path d="M 97.343522 357.051297 
L 97.343522 341.051297 
" style="fill:none;stroke:#2c7ef7;stroke-width:2;"/>
    </g>
    <g id="line2d_22">
     <path d="M 81.343522 349.051297 
L 113.343522 349.051297 
" style="fill:none;stroke:#2c7ef7;stroke-linecap:square;stroke-width:2;"/>
    </g>
    <g id="line2d_23"/>
    <g id="text_16">
     <!-- LapH Nvec12 -->
     <g transform="translate(126.143522 354.651297)scale(0.16 -0.16)">
      <use transform="scale(0.996264)" xlink:href="#CMR17-76"/>
      <use transform="translate(57.381408 0)scale(0.996264)" xlink:href="#CMR17-97"/>
      <use transform="translate(103.071885 0)scale(0.996264)" xlink:href="#CMR17-112"/>
      <use transform="translate(153.967255 0)scale(0.996264)" xlink:href="#CMR17-72"/>
      <use transform="translate(253.115651 0)scale(0.996264)" xlink:href="#CMR17-78"/>
      <use transform="translate(322.188081 0)scale(0.996264)" xlink:href="#CMR17-118"/>
      <use transform="translate(367.878543 0)scale(0.996264)" xlink:href="#CMR17-101"/>
      <use transform="translate(408.364203 0)scale(0.996264)" xlink:href="#CMR17-99"/>
      <use transform="translate(448.849864 0)scale(0.996264)" xlink:href="#CMR17-49"/>
      <use transform="translate(494.540341 0)scale(0.996264)" xlink:href="#CMR17-50"/>
     </g>
    </g>
    <g id="LineCollection_10">
     <path d="M 97.343522 380.536297 
L 97.343522 364.536297 
" style="fill:none;stroke:#2adddd;stroke-width:2;"/>
    </g>
    <g id="line2d_24">
     <path d="M 81.343522 372.536297 
L 113.343522 372.536297 
" style="fill:none;stroke:#2adddd;stroke-linecap:square;stroke-width:2;"/>
    </g>
    <g id="line2d_25"/>
    <g id="text_17">
     <!-- LapH Nvec16 -->
     <g transform="translate(126.143522 378.136297)scale(0.16 -0.16)">
      <use transform="scale(0.996264)" xlink:href="#CMR17-76"/>
      <use transform="translate(57.381408 0)scale(0.996264)" xlink:href="#CMR17-97"/>
      <use transform="translate(103.071885 0)scale(0.996264)" xlink:href="#CMR17-112"/>
      <use transform="translate(153.967255 0)scale(0.996264)" xlink:href="#CMR17-72"/>
      <use transform="translate(253.115651 0)scale(0.996264)" xlink:href="#CMR17-78"/>
      <use transform="translate(322.188081 0)scale(0.996264)" xlink:href="#CMR17-118"/>
      <use transform="translate(367.878543 0)scale(0.996264)" xlink:href="#CMR17-101"/>
      <use transform="translate(408.364203 0)scale(0.996264)" xlink:href="#CMR17-99"/>
      <use transform="translate(448.849864 0)scale(0.996264)" xlink:href="#CMR17-49"/>
      <use transform="translate(494.540341 0)scale(0.996264)" xlink:href="#CMR17-54"/>
     </g>
    </g>
    <g id="LineCollection_11">
     <path d="M 97.343522 404.021297 
L 97.343522 388.021297 
" style="fill:none;stroke:#80ffb4;stroke-width:2;"/>
    </g>
    <g id="line2d_26">
     <path d="M 81.343522 396.021297 
L 113.343522 396.021297 
" style="fill:none;stroke:#80ffb4;stroke-linecap:square;stroke-width:2;"/>
    </g>
    <g id="line2d_27"/>
    <g id="text_18">
     <!-- LapH Nvec24 -->
     <g transform="translate(126.143522 401.621297)scale(0.16 -0.16)">
      <use transform="scale(0.996264)" xlink:href="#CMR17-76"/>
      <use transform="translate(57.381408 0)scale(0.996264)" xlink:href="#CMR17-97"/>
      <use transform="translate(103.071885 0)scale(0.996264)" xlink:href="#CMR17-112"/>
      <use transform="translate(153.967255 0)scale(0.996264)" xlink:href="#CMR17-72"/>
      <use transform="translate(253.115651 0)scale(0.996264)" xlink:href="#CMR17-78"/>
      <use transform="translate(322.188081 0)scale(0.996264)" xlink:href="#CMR17-118"/>
      <use transform="translate(367.878543 0)scale(0.996264)" xlink:href="#CMR17-101"/>
      <use transform="translate(408.364203 0)scale(0.996264)" xlink:href="#CMR17-99"/>
      <use transform="translate(448.849864 0)scale(0.996264)" xlink:href="#CMR17-50"/>
      <use transform="translate(494.540341 0)scale(0.996264)" xlink:href="#CMR17-52"/>
     </g>
    </g>
    <g id="LineCollection_12">
     <path d="M 97.343522 427.506297 
L 97.343522 411.506297 
" style="fill:none;stroke:#d4dd80;stroke-width:2;"/>
    </g>
    <g id="line2d_28">
     <path d="M 81.343522 419.506297 
L 113.343522 419.506297 
" style="fill:none;stroke:#d4dd80;stroke-linecap:square;stroke-width:2;"/>
    </g>
    <g id="line2d_29"/>
    <g id="text_19">
     <!-- LapH Nvec32 -->
     <g transform="translate(126.143522 425.106297)scale(0.16 -0.16)">
      <use transform="scale(0.996264)" xlink:href="#CMR17-76"/>
      <use transform="translate(57.381408 0)scale(0.996264)" xlink:href="#CMR17-97"/>
      <use transform="translate(103.071885 0)scale(0.996264)" xlink:href="#CMR17-112"/>
      <use transform="translate(153.967255 0)scale(0.996264)" xlink:href="#CMR17-72"/>
      <use transform="translate(253.115651 0)scale(0.996264)" xlink:href="#CMR17-78"/>
      <use transform="translate(322.188081 0)scale(0.996264)" xlink:href="#CMR17-118"/>
      <use transform="translate(367.878543 0)scale(0.996264)" xlink:href="#CMR17-101"/>
      <use transform="translate(408.364203 0)scale(0.996264)" xlink:href="#CMR17-99"/>
      <use transform="translate(448.849864 0)scale(0.996264)" xlink:href="#CMR17-51"/>
      <use transform="translate(494.540341 0)scale(0.996264)" xlink:href="#CMR17-50"/>
     </g>
    </g>
    <g id="LineCollection_13">
     <path d="M 97.343522 450.991297 
L 97.343522 434.991297 
" style="fill:none;stroke:#ff7e41;stroke-width:2;"/>
    </g>
    <g id="line2d_30">
     <path d="M 81.343522 442.991297 
L 113.343522 442.991297 
" style="fill:none;stroke:#ff7e41;stroke-linecap:square;stroke-width:2;"/>
    </g>
    <g id="line2d_31"/>
    <g id="text_20">
     <!-- LapH Nvec48 -->
     <g transform="translate(126.143522 448.591297)scale(0.16 -0.16)">
      <use transform="scale(0.996264)" xlink:href="#CMR17-76"/>
      <use transform="translate(57.381408 0)scale(0.996264)" xlink:href="#CMR17-97"/>
      <use transform="translate(103.071885 0)scale(0.996264)" xlink:href="#CMR17-112"/>
      <use transform="translate(153.967255 0)scale(0.996264)" xlink:href="#CMR17-72"/>
      <use transform="translate(253.115651 0)scale(0.996264)" xlink:href="#CMR17-78"/>
      <use transform="translate(322.188081 0)scale(0.996264)" xlink:href="#CMR17-118"/>
      <use transform="translate(367.878543 0)scale(0.996264)" xlink:href="#CMR17-101"/>
      <use transform="translate(408.364203 0)scale(0.996264)" xlink:href="#CMR17-99"/>
      <use transform="translate(448.849864 0)scale(0.996264)" xlink:href="#CMR17-52"/>
      <use transform="translate(494.540341 0)scale(0.996264)" xlink:href="#CMR17-56"/>
     </g>
    </g>
    <g id="LineCollection_14">
     <path d="M 97.343522 474.476297 
L 97.343522 458.476297 
" style="fill:none;stroke:#ff0000;stroke-width:2;"/>
    </g>
    <g id="line2d_32">
     <path d="M 81.343522 466.476297 
L 113.343522 466.476297 
" style="fill:none;stroke:#ff0000;stroke-linecap:square;stroke-width:2;"/>
    </g>
    <g id="line2d_33"/>
    <g id="text_21">
     <!-- point source -->
     <g transform="translate(126.143522 472.076297)scale(0.16 -0.16)">
      <defs>
       <path d="M 29.40625 42.078125 
L 29.40625 39.5 
C 35.296875 39.5 36.203125 38.890625 36.203125 34.15625 
L 36.203125 16.125 
C 36.203125 7.8125 31.703125 0.59375 24.296875 0.59375 
C 16.09375 0.59375 15.40625 5.4375 15.40625 10.59375 
L 15.40625 43.171875 
L 3.296875 42.078125 
L 3.296875 39.5 
C 7.296875 39.5 10 39.5 10.09375 35.53125 
L 10.09375 16.53125 
C 10.09375 9.890625 10.09375 5.640625 12.703125 2.859375 
C 14 1.578125 16.5 -1 23.703125 -1 
C 32.203125 -1 35.5 5.890625 36.296875 7.90625 
L 36.40625 7.90625 
L 36.40625 -0.984375 
L 48.296875 -0.984375 
L 48.296875 2 
C 42.40625 2 41.5 2.59375 41.5 7.390625 
L 41.5 43.171875 
z
" id="CMR17-117"/>
       <path d="M 15 23.390625 
C 15 33 19.09375 42 26.59375 42 
C 27.296875 42 28 41.90625 28.703125 41.59375 
C 28.703125 41.59375 26.5 40.890625 26.5 38.3125 
C 26.5 35.90625 28.40625 34.90625 29.90625 34.90625 
C 31.09375 34.90625 33.296875 35.609375 33.296875 38.40625 
C 33.296875 41.609375 30.09375 43.59375 26.703125 43.59375 
C 19.09375 43.59375 15.796875 36.203125 14.796875 32.703125 
L 14.703125 32.703125 
L 14.703125 43.59375 
L 3.09375 42.5 
L 3.09375 39.90625 
C 9 39.90625 9.90625 39.296875 9.90625 34.5 
L 9.90625 6.6875 
C 9.90625 2.875 9.5 2.390625 3.09375 2.390625 
L 3.09375 -0.203125 
C 5.5 0 10.09375 0 12.703125 0 
C 15.59375 0 20.703125 0 23.40625 -0.203125 
L 23.40625 2.390625 
C 16.203125 2.390625 15 2.390625 15 6.875 
z
" id="CMR17-114"/>
      </defs>
      <use transform="scale(0.996264)" xlink:href="#CMR17-112"/>
      <use transform="translate(53.497809 0)scale(0.996264)" xlink:href="#CMR17-111"/>
      <use transform="translate(99.188286 0)scale(0.996264)" xlink:href="#CMR17-105"/>
      <use transform="translate(124.059344 0)scale(0.996264)" xlink:href="#CMR17-110"/>
      <use transform="translate(172.35226 0)scale(0.996264)" xlink:href="#CMR17-116"/>
      <use transform="translate(237.708994 0)scale(0.996264)" xlink:href="#CMR17-115"/>
      <use transform="translate(273.510332 0)scale(0.996264)" xlink:href="#CMR17-111"/>
      <use transform="translate(319.200809 0)scale(0.996264)" xlink:href="#CMR17-117"/>
      <use transform="translate(370.096179 0)scale(0.996264)" xlink:href="#CMR17-114"/>
      <use transform="translate(405.376946 0)scale(0.996264)" xlink:href="#CMR17-99"/>
      <use transform="translate(445.862607 0)scale(0.996264)" xlink:href="#CMR17-101"/>
     </g>
    </g>
   </g>
  </g>
 </g>
 <defs>
  <clipPath id="p3570698773">
   <rect height="402.395324" width="613.056478" x="66.943522" y="87.180449"/>
  </clipPath>
 </defs>
</svg>
