<?xml version="1.0" encoding="utf-8" standalone="no"?>
<!DOCTYPE svg PUBLIC "-//W3C//DTD SVG 1.1//EN"
  "http://www.w3.org/Graphics/SVG/1.1/DTD/svg11.dtd">
<!-- Created with matplotlib (https://matplotlib.org/) -->
<svg height="345.6pt" version="1.1" viewBox="0 0 460.8 345.6" width="460.8pt" xmlns="http://www.w3.org/2000/svg" xmlns:xlink="http://www.w3.org/1999/xlink">
 <defs>
  <style type="text/css">
*{stroke-linecap:butt;stroke-linejoin:round;}
  </style>
 </defs>
 <g id="figure_1">
  <g id="patch_1">
   <path d="M 0 345.6 
L 460.8 345.6 
L 460.8 0 
L 0 0 
z
" style="fill:#ffffff;"/>
  </g>
  <g id="axes_1">
   <g id="patch_2">
    <path d="M 57.6 307.584 
L 414.72 307.584 
L 414.72 41.472 
L 57.6 41.472 
z
" style="fill:#ffffff;"/>
   </g>
   <g id="matplotlib.axis_1">
    <g id="xtick_1">
     <g id="line2d_1">
      <defs>
       <path d="M 0 0 
L 0 3.5 
" id="mb19a736b1b" style="stroke:#000000;stroke-width:0.8;"/>
      </defs>
      <g>
       <use style="stroke:#000000;stroke-width:0.8;" x="73.507748" xlink:href="#mb19a736b1b" y="307.584"/>
      </g>
     </g>
     <g id="text_1">
      <!-- 0 -->
      <defs>
       <path d="M 31.78125 66.40625 
Q 24.171875 66.40625 20.328125 58.90625 
Q 16.5 51.421875 16.5 36.375 
Q 16.5 21.390625 20.328125 13.890625 
Q 24.171875 6.390625 31.78125 6.390625 
Q 39.453125 6.390625 43.28125 13.890625 
Q 47.125 21.390625 47.125 36.375 
Q 47.125 51.421875 43.28125 58.90625 
Q 39.453125 66.40625 31.78125 66.40625 
z
M 31.78125 74.21875 
Q 44.046875 74.21875 50.515625 64.515625 
Q 56.984375 54.828125 56.984375 36.375 
Q 56.984375 17.96875 50.515625 8.265625 
Q 44.046875 -1.421875 31.78125 -1.421875 
Q 19.53125 -1.421875 13.0625 8.265625 
Q 6.59375 17.96875 6.59375 36.375 
Q 6.59375 54.828125 13.0625 64.515625 
Q 19.53125 74.21875 31.78125 74.21875 
z
" id="DejaVuSans-48"/>
      </defs>
      <g transform="translate(70.326498 322.182437)scale(0.1 -0.1)">
       <use xlink:href="#DejaVuSans-48"/>
      </g>
     </g>
    </g>
    <g id="xtick_2">
     <g id="line2d_2">
      <g>
       <use style="stroke:#000000;stroke-width:0.8;" x="138.503653" xlink:href="#mb19a736b1b" y="307.584"/>
      </g>
     </g>
     <g id="text_2">
      <!-- 200 -->
      <defs>
       <path d="M 19.1875 8.296875 
L 53.609375 8.296875 
L 53.609375 0 
L 7.328125 0 
L 7.328125 8.296875 
Q 12.9375 14.109375 22.625 23.890625 
Q 32.328125 33.6875 34.8125 36.53125 
Q 39.546875 41.84375 41.421875 45.53125 
Q 43.3125 49.21875 43.3125 52.78125 
Q 43.3125 58.59375 39.234375 62.25 
Q 35.15625 65.921875 28.609375 65.921875 
Q 23.96875 65.921875 18.8125 64.3125 
Q 13.671875 62.703125 7.8125 59.421875 
L 7.8125 69.390625 
Q 13.765625 71.78125 18.9375 73 
Q 24.125 74.21875 28.421875 74.21875 
Q 39.75 74.21875 46.484375 68.546875 
Q 53.21875 62.890625 53.21875 53.421875 
Q 53.21875 48.921875 51.53125 44.890625 
Q 49.859375 40.875 45.40625 35.40625 
Q 44.1875 33.984375 37.640625 27.21875 
Q 31.109375 20.453125 19.1875 8.296875 
z
" id="DejaVuSans-50"/>
      </defs>
      <g transform="translate(128.959903 322.182437)scale(0.1 -0.1)">
       <use xlink:href="#DejaVuSans-50"/>
       <use x="63.623047" xlink:href="#DejaVuSans-48"/>
       <use x="127.246094" xlink:href="#DejaVuSans-48"/>
      </g>
     </g>
    </g>
    <g id="xtick_3">
     <g id="line2d_3">
      <g>
       <use style="stroke:#000000;stroke-width:0.8;" x="203.499558" xlink:href="#mb19a736b1b" y="307.584"/>
      </g>
     </g>
     <g id="text_3">
      <!-- 400 -->
      <defs>
       <path d="M 37.796875 64.3125 
L 12.890625 25.390625 
L 37.796875 25.390625 
z
M 35.203125 72.90625 
L 47.609375 72.90625 
L 47.609375 25.390625 
L 58.015625 25.390625 
L 58.015625 17.1875 
L 47.609375 17.1875 
L 47.609375 0 
L 37.796875 0 
L 37.796875 17.1875 
L 4.890625 17.1875 
L 4.890625 26.703125 
z
" id="DejaVuSans-52"/>
      </defs>
      <g transform="translate(193.955808 322.182437)scale(0.1 -0.1)">
       <use xlink:href="#DejaVuSans-52"/>
       <use x="63.623047" xlink:href="#DejaVuSans-48"/>
       <use x="127.246094" xlink:href="#DejaVuSans-48"/>
      </g>
     </g>
    </g>
    <g id="xtick_4">
     <g id="line2d_4">
      <g>
       <use style="stroke:#000000;stroke-width:0.8;" x="268.495463" xlink:href="#mb19a736b1b" y="307.584"/>
      </g>
     </g>
     <g id="text_4">
      <!-- 600 -->
      <defs>
       <path d="M 33.015625 40.375 
Q 26.375 40.375 22.484375 35.828125 
Q 18.609375 31.296875 18.609375 23.390625 
Q 18.609375 15.53125 22.484375 10.953125 
Q 26.375 6.390625 33.015625 6.390625 
Q 39.65625 6.390625 43.53125 10.953125 
Q 47.40625 15.53125 47.40625 23.390625 
Q 47.40625 31.296875 43.53125 35.828125 
Q 39.65625 40.375 33.015625 40.375 
z
M 52.59375 71.296875 
L 52.59375 62.3125 
Q 48.875 64.0625 45.09375 64.984375 
Q 41.3125 65.921875 37.59375 65.921875 
Q 27.828125 65.921875 22.671875 59.328125 
Q 17.53125 52.734375 16.796875 39.40625 
Q 19.671875 43.65625 24.015625 45.921875 
Q 28.375 48.1875 33.59375 48.1875 
Q 44.578125 48.1875 50.953125 41.515625 
Q 57.328125 34.859375 57.328125 23.390625 
Q 57.328125 12.15625 50.6875 5.359375 
Q 44.046875 -1.421875 33.015625 -1.421875 
Q 20.359375 -1.421875 13.671875 8.265625 
Q 6.984375 17.96875 6.984375 36.375 
Q 6.984375 53.65625 15.1875 63.9375 
Q 23.390625 74.21875 37.203125 74.21875 
Q 40.921875 74.21875 44.703125 73.484375 
Q 48.484375 72.75 52.59375 71.296875 
z
" id="DejaVuSans-54"/>
      </defs>
      <g transform="translate(258.951713 322.182437)scale(0.1 -0.1)">
       <use xlink:href="#DejaVuSans-54"/>
       <use x="63.623047" xlink:href="#DejaVuSans-48"/>
       <use x="127.246094" xlink:href="#DejaVuSans-48"/>
      </g>
     </g>
    </g>
    <g id="xtick_5">
     <g id="line2d_5">
      <g>
       <use style="stroke:#000000;stroke-width:0.8;" x="333.491368" xlink:href="#mb19a736b1b" y="307.584"/>
      </g>
     </g>
     <g id="text_5">
      <!-- 800 -->
      <defs>
       <path d="M 31.78125 34.625 
Q 24.75 34.625 20.71875 30.859375 
Q 16.703125 27.09375 16.703125 20.515625 
Q 16.703125 13.921875 20.71875 10.15625 
Q 24.75 6.390625 31.78125 6.390625 
Q 38.8125 6.390625 42.859375 10.171875 
Q 46.921875 13.96875 46.921875 20.515625 
Q 46.921875 27.09375 42.890625 30.859375 
Q 38.875 34.625 31.78125 34.625 
z
M 21.921875 38.8125 
Q 15.578125 40.375 12.03125 44.71875 
Q 8.5 49.078125 8.5 55.328125 
Q 8.5 64.0625 14.71875 69.140625 
Q 20.953125 74.21875 31.78125 74.21875 
Q 42.671875 74.21875 48.875 69.140625 
Q 55.078125 64.0625 55.078125 55.328125 
Q 55.078125 49.078125 51.53125 44.71875 
Q 48 40.375 41.703125 38.8125 
Q 48.828125 37.15625 52.796875 32.3125 
Q 56.78125 27.484375 56.78125 20.515625 
Q 56.78125 9.90625 50.3125 4.234375 
Q 43.84375 -1.421875 31.78125 -1.421875 
Q 19.734375 -1.421875 13.25 4.234375 
Q 6.78125 9.90625 6.78125 20.515625 
Q 6.78125 27.484375 10.78125 32.3125 
Q 14.796875 37.15625 21.921875 38.8125 
z
M 18.3125 54.390625 
Q 18.3125 48.734375 21.84375 45.5625 
Q 25.390625 42.390625 31.78125 42.390625 
Q 38.140625 42.390625 41.71875 45.5625 
Q 45.3125 48.734375 45.3125 54.390625 
Q 45.3125 60.0625 41.71875 63.234375 
Q 38.140625 66.40625 31.78125 66.40625 
Q 25.390625 66.40625 21.84375 63.234375 
Q 18.3125 60.0625 18.3125 54.390625 
z
" id="DejaVuSans-56"/>
      </defs>
      <g transform="translate(323.947618 322.182437)scale(0.1 -0.1)">
       <use xlink:href="#DejaVuSans-56"/>
       <use x="63.623047" xlink:href="#DejaVuSans-48"/>
       <use x="127.246094" xlink:href="#DejaVuSans-48"/>
      </g>
     </g>
    </g>
    <g id="xtick_6">
     <g id="line2d_6">
      <g>
       <use style="stroke:#000000;stroke-width:0.8;" x="398.487273" xlink:href="#mb19a736b1b" y="307.584"/>
      </g>
     </g>
     <g id="text_6">
      <!-- 1000 -->
      <defs>
       <path d="M 12.40625 8.296875 
L 28.515625 8.296875 
L 28.515625 63.921875 
L 10.984375 60.40625 
L 10.984375 69.390625 
L 28.421875 72.90625 
L 38.28125 72.90625 
L 38.28125 8.296875 
L 54.390625 8.296875 
L 54.390625 0 
L 12.40625 0 
z
" id="DejaVuSans-49"/>
      </defs>
      <g transform="translate(385.762273 322.182437)scale(0.1 -0.1)">
       <use xlink:href="#DejaVuSans-49"/>
       <use x="63.623047" xlink:href="#DejaVuSans-48"/>
       <use x="127.246094" xlink:href="#DejaVuSans-48"/>
       <use x="190.869141" xlink:href="#DejaVuSans-48"/>
      </g>
     </g>
    </g>
   </g>
   <g id="matplotlib.axis_2">
    <g id="ytick_1">
     <g id="line2d_7">
      <defs>
       <path d="M 0 0 
L -3.5 0 
" id="mc7502265e5" style="stroke:#000000;stroke-width:0.8;"/>
      </defs>
      <g>
       <use style="stroke:#000000;stroke-width:0.8;" x="57.6" xlink:href="#mc7502265e5" y="294.851016"/>
      </g>
     </g>
     <g id="text_7">
      <!-- −0.003 -->
      <defs>
       <path d="M 10.59375 35.5 
L 73.1875 35.5 
L 73.1875 27.203125 
L 10.59375 27.203125 
z
" id="DejaVuSans-8722"/>
       <path d="M 10.6875 12.40625 
L 21 12.40625 
L 21 0 
L 10.6875 0 
z
" id="DejaVuSans-46"/>
       <path d="M 40.578125 39.3125 
Q 47.65625 37.796875 51.625 33 
Q 55.609375 28.21875 55.609375 21.1875 
Q 55.609375 10.40625 48.1875 4.484375 
Q 40.765625 -1.421875 27.09375 -1.421875 
Q 22.515625 -1.421875 17.65625 -0.515625 
Q 12.796875 0.390625 7.625 2.203125 
L 7.625 11.71875 
Q 11.71875 9.328125 16.59375 8.109375 
Q 21.484375 6.890625 26.8125 6.890625 
Q 36.078125 6.890625 40.9375 10.546875 
Q 45.796875 14.203125 45.796875 21.1875 
Q 45.796875 27.640625 41.28125 31.265625 
Q 36.765625 34.90625 28.71875 34.90625 
L 20.21875 34.90625 
L 20.21875 43.015625 
L 29.109375 43.015625 
Q 36.375 43.015625 40.234375 45.921875 
Q 44.09375 48.828125 44.09375 54.296875 
Q 44.09375 59.90625 40.109375 62.90625 
Q 36.140625 65.921875 28.71875 65.921875 
Q 24.65625 65.921875 20.015625 65.03125 
Q 15.375 64.15625 9.8125 62.3125 
L 9.8125 71.09375 
Q 15.4375 72.65625 20.34375 73.4375 
Q 25.25 74.21875 29.59375 74.21875 
Q 40.828125 74.21875 47.359375 69.109375 
Q 53.90625 64.015625 53.90625 55.328125 
Q 53.90625 49.265625 50.4375 45.09375 
Q 46.96875 40.921875 40.578125 39.3125 
z
" id="DejaVuSans-51"/>
      </defs>
      <g transform="translate(13.592188 298.650235)scale(0.1 -0.1)">
       <use xlink:href="#DejaVuSans-8722"/>
       <use x="83.789062" xlink:href="#DejaVuSans-48"/>
       <use x="147.412109" xlink:href="#DejaVuSans-46"/>
       <use x="179.199219" xlink:href="#DejaVuSans-48"/>
       <use x="242.822266" xlink:href="#DejaVuSans-48"/>
       <use x="306.445312" xlink:href="#DejaVuSans-51"/>
      </g>
     </g>
    </g>
    <g id="ytick_2">
     <g id="line2d_8">
      <g>
       <use style="stroke:#000000;stroke-width:0.8;" x="57.6" xlink:href="#mc7502265e5" y="257.150463"/>
      </g>
     </g>
     <g id="text_8">
      <!-- −0.002 -->
      <g transform="translate(13.592188 260.949681)scale(0.1 -0.1)">
       <use xlink:href="#DejaVuSans-8722"/>
       <use x="83.789062" xlink:href="#DejaVuSans-48"/>
       <use x="147.412109" xlink:href="#DejaVuSans-46"/>
       <use x="179.199219" xlink:href="#DejaVuSans-48"/>
       <use x="242.822266" xlink:href="#DejaVuSans-48"/>
       <use x="306.445312" xlink:href="#DejaVuSans-50"/>
      </g>
     </g>
    </g>
    <g id="ytick_3">
     <g id="line2d_9">
      <g>
       <use style="stroke:#000000;stroke-width:0.8;" x="57.6" xlink:href="#mc7502265e5" y="219.449909"/>
      </g>
     </g>
     <g id="text_9">
      <!-- −0.001 -->
      <g transform="translate(13.592188 223.249128)scale(0.1 -0.1)">
       <use xlink:href="#DejaVuSans-8722"/>
       <use x="83.789062" xlink:href="#DejaVuSans-48"/>
       <use x="147.412109" xlink:href="#DejaVuSans-46"/>
       <use x="179.199219" xlink:href="#DejaVuSans-48"/>
       <use x="242.822266" xlink:href="#DejaVuSans-48"/>
       <use x="306.445312" xlink:href="#DejaVuSans-49"/>
      </g>
     </g>
    </g>
    <g id="ytick_4">
     <g id="line2d_10">
      <g>
       <use style="stroke:#000000;stroke-width:0.8;" x="57.6" xlink:href="#mc7502265e5" y="181.749356"/>
      </g>
     </g>
     <g id="text_10">
      <!-- 0.000 -->
      <g transform="translate(21.971875 185.548575)scale(0.1 -0.1)">
       <use xlink:href="#DejaVuSans-48"/>
       <use x="63.623047" xlink:href="#DejaVuSans-46"/>
       <use x="95.410156" xlink:href="#DejaVuSans-48"/>
       <use x="159.033203" xlink:href="#DejaVuSans-48"/>
       <use x="222.65625" xlink:href="#DejaVuSans-48"/>
      </g>
     </g>
    </g>
    <g id="ytick_5">
     <g id="line2d_11">
      <g>
       <use style="stroke:#000000;stroke-width:0.8;" x="57.6" xlink:href="#mc7502265e5" y="144.048803"/>
      </g>
     </g>
     <g id="text_11">
      <!-- 0.001 -->
      <g transform="translate(21.971875 147.848022)scale(0.1 -0.1)">
       <use xlink:href="#DejaVuSans-48"/>
       <use x="63.623047" xlink:href="#DejaVuSans-46"/>
       <use x="95.410156" xlink:href="#DejaVuSans-48"/>
       <use x="159.033203" xlink:href="#DejaVuSans-48"/>
       <use x="222.65625" xlink:href="#DejaVuSans-49"/>
      </g>
     </g>
    </g>
    <g id="ytick_6">
     <g id="line2d_12">
      <g>
       <use style="stroke:#000000;stroke-width:0.8;" x="57.6" xlink:href="#mc7502265e5" y="106.348249"/>
      </g>
     </g>
     <g id="text_12">
      <!-- 0.002 -->
      <g transform="translate(21.971875 110.147468)scale(0.1 -0.1)">
       <use xlink:href="#DejaVuSans-48"/>
       <use x="63.623047" xlink:href="#DejaVuSans-46"/>
       <use x="95.410156" xlink:href="#DejaVuSans-48"/>
       <use x="159.033203" xlink:href="#DejaVuSans-48"/>
       <use x="222.65625" xlink:href="#DejaVuSans-50"/>
      </g>
     </g>
    </g>
    <g id="ytick_7">
     <g id="line2d_13">
      <g>
       <use style="stroke:#000000;stroke-width:0.8;" x="57.6" xlink:href="#mc7502265e5" y="68.647696"/>
      </g>
     </g>
     <g id="text_13">
      <!-- 0.003 -->
      <g transform="translate(21.971875 72.446915)scale(0.1 -0.1)">
       <use xlink:href="#DejaVuSans-48"/>
       <use x="63.623047" xlink:href="#DejaVuSans-46"/>
       <use x="95.410156" xlink:href="#DejaVuSans-48"/>
       <use x="159.033203" xlink:href="#DejaVuSans-48"/>
       <use x="222.65625" xlink:href="#DejaVuSans-51"/>
      </g>
     </g>
    </g>
   </g>
   <g id="line2d_14">
    <path clip-path="url(#pbd7cb3f30d)" d="M 73.832727 169.375095 
L 74.157707 217.482165 
L 74.482686 151.622451 
L 74.807666 128.24828 
L 75.132645 193.477365 
L 75.457625 125.750933 
L 75.782604 182.215291 
L 76.107584 168.840772 
L 76.432563 170.753398 
L 76.757543 265.630391 
L 77.082523 136.366513 
L 77.407502 213.200719 
L 77.732482 132.218671 
L 78.057461 149.571053 
L 78.382441 129.986585 
L 79.0324 211.171945 
L 79.357379 155.21438 
L 79.682359 238.214567 
L 80.007338 277.887417 
L 80.332318 155.052453 
L 80.657297 224.928727 
L 80.982277 98.311784 
L 81.307256 282.245543 
L 81.632236 177.01436 
L 81.957215 161.1261 
L 82.282195 223.243253 
L 82.607174 122.907031 
L 82.932154 202.257639 
L 83.582113 155.935127 
L 83.907093 192.916885 
L 84.232072 166.102208 
L 84.557052 159.101477 
L 84.882031 186.464413 
L 85.207011 180.932801 
L 85.53199 192.412419 
L 85.85697 178.276001 
L 86.181949 129.44165 
L 86.506929 238.444388 
L 86.831908 194.690717 
L 87.481867 148.759981 
L 88.131826 213.432594 
L 88.456806 153.604458 
L 89.106765 240.021087 
L 89.431744 166.738063 
L 89.756724 231.312326 
L 90.081704 161.921269 
L 90.406683 133.194545 
L 90.731663 235.407625 
L 91.381622 100.914523 
L 91.706601 77.637208 
L 92.031581 197.411988 
L 92.35656 210.405901 
L 92.68154 152.819429 
L 93.006519 162.695406 
L 93.656478 187.048562 
L 93.981458 216.502485 
L 94.306437 186.051694 
L 94.631417 135.847342 
L 94.956396 252.237716 
L 95.281376 180.990839 
L 95.606355 205.911991 
L 95.931335 171.457288 
L 96.256314 184.372478 
L 96.581294 177.419381 
L 96.906274 195.795732 
L 97.231253 179.461339 
L 97.556233 182.766327 
L 97.881212 179.003585 
L 98.206192 151.274247 
L 98.531171 216.702161 
L 98.856151 135.664821 
L 99.18113 219.775103 
L 99.50611 203.127945 
L 99.831089 241.650067 
L 100.156069 183.066898 
L 100.481048 201.931052 
L 100.806028 180.929875 
L 101.131007 200.056581 
L 101.455987 103.152319 
L 101.780966 140.748936 
L 102.105946 210.867198 
L 102.430925 217.064814 
L 102.755905 167.067822 
L 103.080885 198.485571 
L 103.405864 117.354509 
L 103.730844 173.093071 
L 104.055823 190.638928 
L 104.380803 171.432874 
L 104.705782 185.163356 
L 105.030762 181.206572 
L 105.680721 206.352331 
L 106.33068 218.32762 
L 106.655659 218.32762 
L 106.980639 259.946012 
L 107.305618 181.053825 
L 107.630598 160.430909 
L 107.955577 169.484561 
L 108.605536 169.484561 
L 109.255495 171.336155 
L 109.905455 171.336155 
L 110.230434 171.754713 
L 110.880393 207.875976 
L 111.205373 184.7165 
L 111.530352 184.7165 
L 111.855332 201.999758 
L 112.180311 147.462661 
L 112.505291 217.135238 
L 112.83027 149.432048 
L 113.15525 226.974985 
L 113.480229 185.003436 
L 113.805209 185.003436 
L 114.130188 190.826321 
L 114.455168 271.371055 
L 115.105127 140.672232 
L 115.430106 174.700515 
L 116.080066 193.46463 
L 116.405045 170.785826 
L 116.730025 170.785826 
L 117.055004 178.274405 
L 117.379984 176.670777 
L 117.704963 220.452237 
L 118.029943 209.540058 
L 118.354922 219.202935 
L 118.679902 158.296857 
L 119.004881 158.296857 
L 119.329861 123.402409 
L 119.65484 211.389017 
L 120.304799 129.810813 
L 120.629779 178.479623 
L 120.954758 183.472212 
L 121.279738 164.269188 
L 121.604717 164.269188 
L 121.929697 156.916522 
L 122.254676 121.674539 
L 122.579656 121.674539 
L 122.904636 153.946656 
L 123.229615 147.132267 
L 123.554595 206.71621 
L 123.879574 167.066881 
L 124.204554 180.527618 
L 124.529533 180.527618 
L 124.854513 154.596434 
L 125.179492 238.722103 
L 125.504472 121.354985 
L 125.829451 139.133941 
L 126.154431 114.120907 
L 126.47941 208.6889 
L 126.80439 156.222773 
L 127.129369 124.189889 
L 127.454349 182.559837 
L 128.104308 222.665441 
L 128.429287 128.801753 
L 128.754267 173.641196 
L 129.079247 235.100963 
L 129.404226 171.642004 
L 129.729206 148.282265 
L 130.054185 159.000855 
L 130.379165 232.73438 
L 130.704144 232.73438 
L 131.029124 103.182124 
L 131.679083 228.572178 
L 132.004062 158.091773 
L 132.329042 235.180743 
L 132.654021 235.180743 
L 132.979001 151.034217 
L 133.30398 169.222878 
L 133.62896 131.3287 
L 133.953939 216.340875 
L 134.278919 216.340875 
L 134.603898 140.507617 
L 134.928878 212.169734 
L 135.253857 246.818721 
L 135.578837 150.629701 
L 135.903817 160.387625 
L 136.228796 113.153722 
L 136.553776 113.153722 
L 136.878755 162.086165 
L 137.203735 156.354681 
L 137.528714 156.354681 
L 137.853694 219.027432 
L 138.178673 192.948779 
L 138.503653 188.9067 
L 138.828632 205.605645 
L 139.153612 194.183236 
L 139.478591 194.183236 
L 139.803571 164.333518 
L 140.12855 197.930626 
L 140.45353 210.742731 
L 140.778509 209.202635 
L 141.103489 224.274855 
L 141.428468 157.454564 
L 141.753448 141.458102 
L 142.078428 201.024054 
L 142.403407 136.121511 
L 142.728387 183.776318 
L 143.378346 183.776318 
L 143.703325 217.337562 
L 144.028305 217.337562 
L 144.353284 173.327448 
L 144.678264 200.99131 
L 145.003243 181.94264 
L 145.328223 140.077453 
L 145.653202 264.783924 
L 145.978182 153.292627 
L 146.303161 153.292627 
L 146.628141 154.910162 
L 146.95312 136.913429 
L 147.2781 176.840513 
L 147.603079 179.676985 
L 147.928059 232.097353 
L 148.253038 215.760049 
L 148.578018 133.633315 
L 148.902998 178.688791 
L 149.227977 153.256786 
L 149.552957 249.236782 
L 149.877936 157.558255 
L 150.202916 157.558255 
L 150.527895 126.842582 
L 150.852875 112.533656 
L 151.177854 190.197551 
L 151.502834 216.031893 
L 151.827813 119.363437 
L 152.152793 142.529781 
L 152.477772 111.430878 
L 152.802752 197.165612 
L 153.127731 140.100614 
L 153.452711 207.597137 
L 153.77769 207.225511 
L 154.427649 155.856485 
L 154.752629 156.219417 
L 155.077609 195.716573 
L 155.402588 195.209906 
L 156.052547 171.985195 
L 156.377527 213.873647 
L 156.702506 138.170862 
L 157.027486 206.421349 
L 157.677445 189.576832 
L 158.002424 189.576832 
L 158.327404 183.17042 
L 158.652383 247.185258 
L 158.977363 184.248232 
L 159.302342 192.013206 
L 159.627322 132.972139 
L 159.952301 145.785476 
L 160.277281 145.785476 
L 160.60226 175.07732 
L 160.92724 233.810274 
L 161.252219 177.015784 
L 161.577199 178.870003 
L 161.902179 130.735815 
L 162.227158 134.105852 
L 162.877117 198.383848 
L 163.202097 165.402299 
L 163.527076 165.402299 
L 163.852056 189.668362 
L 164.177035 231.1533 
L 164.502015 156.130586 
L 164.826994 193.518294 
L 165.476953 193.518294 
L 165.801933 160.126934 
L 166.126912 215.147309 
L 166.451892 202.701574 
L 166.776871 185.346486 
L 167.101851 199.196453 
L 167.42683 164.810468 
L 167.75181 177.577845 
L 168.07679 155.207438 
L 168.401769 169.585062 
L 169.376708 169.585062 
L 169.701687 154.994605 
L 170.026667 155.425164 
L 170.351646 229.082722 
L 170.676626 234.100165 
L 171.001605 217.888934 
L 171.326585 217.888934 
L 171.651564 264.594807 
L 171.976544 210.138795 
L 172.301523 201.067506 
L 172.626503 201.067506 
L 172.951482 165.240609 
L 173.276462 202.547921 
L 173.601441 202.547921 
L 173.926421 117.971901 
L 174.2514 117.971901 
L 174.57638 183.978709 
L 174.90136 150.863044 
L 175.226339 215.892975 
L 175.551319 159.661572 
L 175.876298 149.712044 
L 176.201278 157.231162 
L 176.526257 157.231162 
L 176.851237 256.663479 
L 177.176216 258.809919 
L 177.826175 147.38183 
L 178.151155 229.61569 
L 178.476134 157.528246 
L 178.801114 215.128202 
L 179.126093 150.627688 
L 179.451073 210.105049 
L 179.776052 231.856231 
L 180.101032 136.326043 
L 180.426011 120.251388 
L 180.750991 127.059751 
L 181.075971 215.287634 
L 181.40095 215.287634 
L 181.72593 197.915452 
L 182.050909 163.958986 
L 182.375889 163.958986 
L 182.700868 161.532168 
L 183.025848 146.564143 
L 183.350827 169.330528 
L 183.675807 133.333854 
L 184.325766 245.073882 
L 184.650745 91.351326 
L 184.975725 91.351326 
L 185.300704 197.306342 
L 185.625684 189.811893 
L 185.950663 191.22025 
L 186.275643 158.945969 
L 186.600622 158.945969 
L 186.925602 72.825285 
L 187.250581 159.425943 
L 187.575561 101.308029 
L 187.900541 101.308029 
L 188.22552 172.333033 
L 188.5505 216.663798 
L 188.875479 188.012079 
L 189.200459 258.751195 
L 189.525438 140.661169 
L 189.850418 215.825196 
L 190.175397 145.094864 
L 190.500377 175.515497 
L 190.825356 175.515497 
L 191.150336 175.172035 
L 191.475315 219.523765 
L 191.800295 219.523765 
L 192.125274 188.657306 
L 192.450254 124.995774 
L 192.775233 174.018546 
L 193.100213 158.168203 
L 193.425192 158.168203 
L 193.750172 210.139207 
L 194.075152 165.574624 
L 194.400131 160.387812 
L 194.725111 160.563909 
L 195.05009 163.522003 
L 195.37507 200.126344 
L 195.700049 185.070315 
L 196.025029 123.683917 
L 196.350008 150.101097 
L 196.674988 162.147386 
L 196.999967 97.575031 
L 197.324947 97.575031 
L 197.974906 184.408119 
L 198.299885 114.655996 
L 198.624865 150.817358 
L 198.949844 256.554348 
L 199.599803 195.231982 
L 199.924783 195.231982 
L 200.249762 205.102316 
L 200.574742 118.935228 
L 200.899722 209.734943 
L 201.224701 201.619832 
L 201.549681 201.619832 
L 201.87466 228.455751 
L 202.19964 225.267227 
L 202.524619 245.12158 
L 202.849599 160.045088 
L 203.174578 193.094956 
L 203.499558 178.753925 
L 203.824537 175.124694 
L 204.149517 178.18289 
L 204.474496 124.072051 
L 204.799476 177.17737 
L 205.124455 187.293297 
L 205.449435 113.4334 
L 205.774414 221.417742 
L 206.099394 150.186139 
L 206.424373 171.760231 
L 206.749353 218.717983 
L 207.074333 204.889767 
L 207.399312 204.889767 
L 207.724292 154.976047 
L 208.049271 188.187091 
L 208.374251 144.659883 
L 209.02421 230.217519 
L 209.349189 178.537623 
L 209.674169 179.014605 
L 209.999148 255.945862 
L 210.324128 240.171351 
L 210.649107 156.085955 
L 211.299066 213.252266 
L 211.624046 135.723092 
L 211.949025 220.411376 
L 212.274005 176.654591 
L 212.598984 176.692192 
L 212.923964 153.562802 
L 213.248943 179.693515 
L 213.573923 119.531102 
L 213.898903 149.614687 
L 214.223882 158.705596 
L 214.548862 145.646061 
L 214.873841 200.55747 
L 215.198821 219.712061 
L 215.5238 219.712061 
L 215.84878 158.080476 
L 216.173759 181.972862 
L 216.823718 181.972862 
L 217.148698 145.272195 
L 217.473677 247.288011 
L 217.798657 254.479298 
L 218.123636 233.749942 
L 218.448616 159.013485 
L 218.773595 195.612864 
L 219.098575 199.971139 
L 219.423554 178.376843 
L 219.748534 187.934678 
L 220.398493 153.311312 
L 220.723473 214.825378 
L 221.048452 167.23103 
L 221.373432 268.640961 
L 221.698411 189.936504 
L 222.023391 189.936504 
L 222.34837 212.796927 
L 222.67335 215.892275 
L 222.998329 179.213322 
L 223.323309 232.906629 
L 223.648288 203.411551 
L 223.973268 184.848265 
L 224.298247 224.802028 
L 224.623227 182.184742 
L 224.948206 197.748472 
L 225.273186 116.145748 
L 225.598165 118.169018 
L 225.923145 197.815399 
L 226.248124 167.059817 
L 226.573104 238.614396 
L 226.898084 167.052316 
L 227.223063 189.61321 
L 227.548043 198.722826 
L 227.873022 179.364662 
L 228.198002 174.738001 
L 228.522981 172.53358 
L 228.847961 150.023522 
L 229.17294 179.55827 
L 229.49792 174.339965 
L 229.822899 174.339965 
L 230.147879 274.052907 
L 230.472858 225.794681 
L 230.797838 202.218907 
L 231.122817 189.711932 
L 231.447797 189.711932 
L 231.772776 198.650144 
L 232.097756 130.541974 
L 232.422735 203.116904 
L 232.747715 181.954528 
L 233.072695 132.91077 
L 233.397674 190.441409 
L 233.722654 152.365459 
L 234.047633 191.412476 
L 234.372613 108.493619 
L 235.022572 199.527045 
L 235.347551 218.574089 
L 235.672531 200.64434 
L 235.99751 200.64434 
L 236.647469 150.636254 
L 236.972449 197.826777 
L 237.297428 148.253928 
L 237.622408 143.449934 
L 237.947387 143.449934 
L 238.272367 188.110377 
L 238.597346 116.171539 
L 238.922326 181.77595 
L 239.247305 173.092583 
L 239.572285 139.306273 
L 239.897265 197.262601 
L 240.222244 169.338161 
L 240.547224 191.318643 
L 240.872203 191.318643 
L 241.197183 150.67195 
L 241.522162 187.790743 
L 241.847142 204.592494 
L 242.172121 178.545364 
L 242.497101 178.545364 
L 242.82208 175.714017 
L 243.472039 175.714017 
L 243.797019 153.694416 
L 244.121998 172.249059 
L 244.446978 132.772674 
L 244.771957 140.896208 
L 245.096937 207.816938 
L 245.421916 164.070149 
L 245.746896 209.302869 
L 246.071876 164.820607 
L 246.396855 253.270871 
L 246.721835 131.486075 
L 247.046814 160.342221 
L 247.371794 96.425213 
L 247.696773 96.425213 
L 248.346732 203.79487 
L 248.671712 197.209275 
L 248.996691 198.182313 
L 249.321671 231.402057 
L 249.64665 209.995243 
L 249.97163 160.716903 
L 250.296609 141.23071 
L 250.621589 245.771539 
L 250.946568 191.678061 
L 251.271548 229.647243 
L 251.596527 229.647243 
L 251.921507 192.855501 
L 252.246486 192.855501 
L 252.571466 197.318381 
L 252.896446 53.568 
L 253.546405 250.94183 
L 254.196364 250.94183 
L 254.521343 278.75788 
L 254.846323 136.478444 
L 255.171302 173.296491 
L 255.496282 180.664388 
L 255.821261 220.120213 
L 256.7962 148.933671 
L 257.121179 194.073706 
L 257.446159 165.388538 
L 258.096118 165.388538 
L 258.421097 201.347621 
L 258.746077 178.765354 
L 259.071057 179.544273 
L 259.396036 131.712575 
L 259.721016 214.473952 
L 260.045995 221.130101 
L 260.370975 161.651323 
L 260.695954 163.102067 
L 261.020934 126.335251 
L 261.345913 106.756033 
L 261.670893 176.816381 
L 261.995872 176.816381 
L 262.320852 190.358196 
L 262.645831 230.081062 
L 262.970811 212.21775 
L 263.29579 201.969046 
L 263.945749 114.559829 
L 264.270729 171.528054 
L 264.595708 157.168823 
L 264.920688 162.097824 
L 265.245667 195.472348 
L 265.570647 127.789458 
L 265.895627 201.054111 
L 266.220606 204.970343 
L 266.545586 194.092229 
L 266.870565 131.936464 
L 267.195545 201.168054 
L 267.520524 143.042384 
L 267.845504 143.042384 
L 268.495463 160.519062 
L 268.820442 183.176272 
L 269.145422 165.926647 
L 269.470401 162.350866 
L 269.795381 183.642276 
L 270.12036 195.064657 
L 270.44534 195.575165 
L 270.770319 205.86643 
L 271.095299 205.86643 
L 271.420278 165.383654 
L 272.070238 142.782011 
L 272.395217 137.164767 
L 272.720197 135.947785 
L 273.045176 249.835513 
L 273.370156 198.300064 
L 273.695135 214.973337 
L 274.020115 191.059963 
L 274.345094 187.702318 
L 274.670074 222.064871 
L 274.995053 207.024031 
L 275.320033 218.426918 
L 275.969992 180.615113 
L 276.294971 193.139279 
L 276.619951 151.232498 
L 276.94493 167.904076 
L 277.26991 162.109329 
L 277.594889 202.507209 
L 277.919869 194.276081 
L 278.244848 218.739688 
L 278.569828 217.911358 
L 279.219787 251.195857 
L 279.544767 176.706346 
L 279.869746 193.075495 
L 280.194726 193.075495 
L 280.519705 183.921828 
L 280.844685 151.193482 
L 281.169664 197.208396 
L 281.494644 197.208396 
L 281.819623 217.888786 
L 282.144603 164.291758 
L 282.469582 172.848938 
L 282.794562 218.252922 
L 283.119541 143.342649 
L 283.444521 169.812195 
L 283.7695 147.682541 
L 284.09448 147.579568 
L 284.419459 170.135796 
L 285.069419 181.062318 
L 285.719378 167.746329 
L 286.044357 172.417716 
L 286.369337 172.417716 
L 286.694316 235.966359 
L 287.019296 214.721018 
L 287.344275 206.020866 
L 287.669255 204.305161 
L 287.994234 206.697607 
L 288.319214 152.048607 
L 288.644193 120.903261 
L 288.969173 120.903261 
L 289.294152 117.887244 
L 289.619132 167.662707 
L 289.944111 186.969352 
L 290.269091 165.694416 
L 290.59407 175.661992 
L 290.91905 173.682091 
L 291.569009 240.007455 
L 291.893989 209.915035 
L 292.218968 209.915035 
L 292.543948 172.332612 
L 292.868927 172.332612 
L 293.193907 171.981048 
L 293.518886 253.518806 
L 293.843866 191.272487 
L 294.168845 162.51419 
L 294.493825 254.087843 
L 295.143784 254.087843 
L 295.468763 193.419878 
L 295.793743 208.418342 
L 296.118722 140.587007 
L 296.443702 261.887682 
L 296.768681 197.728447 
L 297.093661 221.939844 
L 297.41864 151.17954 
L 297.74362 154.062274 
L 298.0686 219.448155 
L 298.393579 190.677154 
L 298.718559 197.249753 
L 299.043538 171.316416 
L 299.368518 171.316416 
L 299.693497 251.768629 
L 300.018477 153.953898 
L 300.343456 187.308802 
L 300.668436 187.308802 
L 300.993415 120.694791 
L 301.318395 161.011481 
L 301.643374 167.353091 
L 301.968354 242.569102 
L 302.293333 187.967162 
L 302.618313 234.533734 
L 302.943292 143.792307 
L 303.268272 202.430512 
L 303.593251 163.726479 
L 303.918231 163.726479 
L 304.24321 134.517097 
L 304.56819 235.910923 
L 304.89317 181.923283 
L 305.218149 193.487838 
L 305.543129 215.126655 
L 305.868108 208.837331 
L 306.193088 208.837331 
L 306.518067 258.114901 
L 306.843047 189.055731 
L 307.168026 183.385823 
L 307.493006 183.385823 
L 307.817985 216.533094 
L 308.142965 186.420158 
L 308.467944 186.420158 
L 308.792924 197.598354 
L 309.117903 168.864344 
L 309.442883 176.103188 
L 309.767862 133.748681 
L 310.092842 164.197154 
L 310.417821 172.085806 
L 310.742801 170.946008 
L 311.067781 189.248051 
L 311.39276 160.491471 
L 311.71774 163.652333 
L 312.042719 135.705612 
L 312.367699 183.207765 
L 312.692678 175.273616 
L 313.017658 140.161315 
L 313.342637 158.404622 
L 313.667617 122.886839 
L 313.992596 170.392933 
L 314.317576 165.864693 
L 314.642555 233.276035 
L 314.967535 200.149904 
L 315.617494 165.821273 
L 315.942473 254.396875 
L 316.267453 142.908025 
L 316.592432 191.056215 
L 316.917412 191.056215 
L 317.242391 166.354613 
L 317.567371 176.465826 
L 318.21733 210.727905 
L 318.54231 166.758012 
L 318.867289 210.966251 
L 319.192269 146.286252 
L 319.517248 218.860646 
L 319.842228 165.573127 
L 320.167207 250.001753 
L 320.492187 209.417875 
L 320.817166 236.971231 
L 321.142146 170.575599 
L 321.467125 189.961457 
L 321.792105 170.377218 
L 322.117084 170.377218 
L 322.442064 170.890666 
L 322.767043 170.890666 
L 323.092023 257.548241 
L 323.417002 220.407761 
L 323.741982 220.407761 
L 324.066962 152.141302 
L 324.391941 219.320918 
L 324.716921 131.381626 
L 325.0419 211.370021 
L 325.36688 229.626927 
L 325.691859 182.483541 
L 326.016839 196.58389 
L 326.341818 194.099626 
L 326.666798 194.099626 
L 326.991777 184.203765 
L 327.316757 219.88366 
L 327.641736 186.924547 
L 327.966716 197.776913 
L 328.291695 283.100002 
L 328.616675 121.023 
L 328.941654 191.94164 
L 329.591613 191.94164 
L 329.916593 203.693782 
L 330.241572 150.939565 
L 330.566552 144.047175 
L 330.891532 146.302452 
L 331.216511 236.609674 
L 331.541491 120.893804 
L 331.86647 250.032851 
L 332.516429 250.032851 
L 333.166388 133.433176 
L 333.491368 144.336859 
L 333.816347 114.976484 
L 334.141327 152.877938 
L 334.466306 81.437108 
L 335.116265 235.620721 
L 335.441245 230.383303 
L 335.766224 171.40632 
L 336.091204 175.49219 
L 336.416183 238.367601 
L 336.741163 223.281941 
L 337.391122 156.140005 
L 337.716102 207.327204 
L 338.041081 186.777348 
L 338.366061 209.831062 
L 338.69104 148.358626 
L 339.01602 177.521684 
L 339.340999 177.521684 
L 339.665979 118.200636 
L 339.990958 125.116743 
L 340.315938 206.543121 
L 340.640917 206.543121 
L 340.965897 202.885028 
L 341.290876 202.885028 
L 341.940835 144.060491 
L 342.265815 207.155689 
L 342.590794 215.144887 
L 342.915774 198.61299 
L 343.240753 170.67603 
L 343.565733 186.819587 
L 343.890713 179.358214 
L 344.215692 219.197949 
L 344.865651 117.550061 
L 345.190631 127.672266 
L 345.51561 201.841325 
L 345.84059 180.893094 
L 346.165569 104.967603 
L 346.490549 163.315459 
L 346.815528 183.640534 
L 347.140508 165.38358 
L 347.465487 179.477811 
L 347.790467 145.941082 
L 348.115446 203.994653 
L 348.440426 137.543387 
L 348.765405 195.336033 
L 349.090385 151.759777 
L 349.415364 134.715236 
L 349.740344 244.341786 
L 350.065324 119.797689 
L 350.390303 164.13095 
L 350.715283 164.13095 
L 351.040262 177.586216 
L 351.365242 155.525956 
L 351.690221 207.903819 
L 352.015201 207.903819 
L 352.34018 193.120835 
L 352.66516 193.120835 
L 352.990139 188.426298 
L 353.315119 199.537607 
L 353.640098 199.537607 
L 353.965078 245.797042 
L 354.290057 161.716983 
L 354.615037 172.234471 
L 354.940016 263.030251 
L 355.264996 186.568524 
L 355.589975 165.912627 
L 355.914955 239.61369 
L 356.239934 109.927599 
L 356.564914 204.791915 
L 356.889894 176.033974 
L 357.214873 204.494472 
L 357.539853 166.823935 
L 357.864832 166.823935 
L 358.189812 98.081821 
L 358.514791 202.67355 
L 358.839771 159.798318 
L 359.16475 194.496803 
L 359.48973 123.003871 
L 359.814709 182.174893 
L 360.139689 182.174893 
L 360.464668 202.021288 
L 360.789648 193.114559 
L 361.114627 193.114559 
L 361.439607 155.835534 
L 361.764586 159.816355 
L 362.089566 158.803962 
L 362.414545 212.805089 
L 362.739525 162.247509 
L 363.064505 178.618737 
L 363.389484 178.230354 
L 363.714464 216.134924 
L 364.039443 142.556497 
L 364.364423 221.545109 
L 364.689402 196.580705 
L 365.014382 239.090671 
L 365.339361 90.077872 
L 365.664341 164.286796 
L 365.98932 124.804263 
L 366.3143 213.201892 
L 366.639279 165.396592 
L 366.964259 184.465735 
L 367.289238 194.126927 
L 367.614218 184.474734 
L 367.939197 186.779562 
L 368.264177 186.779562 
L 368.589156 173.168173 
L 368.914136 153.98197 
L 369.239115 169.767919 
L 369.564095 175.071975 
L 369.889075 175.071975 
L 370.214054 157.27247 
L 370.539034 166.748338 
L 370.864013 166.459107 
L 371.188993 154.28406 
L 371.513972 193.920271 
L 371.838952 201.843128 
L 372.163931 238.713848 
L 372.488911 238.713848 
L 372.81389 198.281786 
L 373.13887 197.387944 
L 373.463849 160.957778 
L 373.788829 160.957778 
L 374.113808 206.749034 
L 374.438788 187.427019 
L 374.763767 196.400434 
L 375.413726 170.941694 
L 375.738706 170.397098 
L 376.063686 92.982322 
L 376.388665 176.698664 
L 376.713645 207.846724 
L 377.038624 207.318579 
L 377.363604 217.581209 
L 377.688583 244.550697 
L 378.013563 157.470486 
L 378.338542 219.330431 
L 378.988501 196.812187 
L 379.313481 170.946612 
L 379.63846 173.380805 
L 379.96344 167.835455 
L 380.613399 167.835455 
L 380.938378 231.542517 
L 381.263358 224.439944 
L 381.588337 197.475003 
L 381.913317 197.475003 
L 382.238296 157.415929 
L 382.888256 243.751696 
L 383.213235 238.144646 
L 383.538215 147.714599 
L 383.863194 178.362863 
L 384.188174 178.362863 
L 384.513153 177.897774 
L 384.838133 266.170729 
L 385.163112 266.170729 
L 385.488092 172.441429 
L 385.813071 200.308232 
L 386.138051 201.799324 
L 386.46303 251.048198 
L 386.78801 177.732463 
L 387.112989 187.425969 
L 387.437969 150.324422 
L 387.762948 158.773882 
L 388.087928 216.856275 
L 388.412907 159.173813 
L 388.737887 209.579013 
L 389.062867 217.809191 
L 389.387846 165.631546 
L 389.712826 150.808572 
L 390.037805 201.307219 
L 390.362785 193.055528 
L 390.687764 150.22106 
L 391.012744 221.548412 
L 391.337723 114.224283 
L 391.662703 208.808269 
L 391.987682 133.865773 
L 392.312662 185.809949 
L 392.637641 153.086761 
L 392.962621 178.666532 
L 393.2876 219.636174 
L 393.61258 219.636174 
L 393.937559 129.555168 
L 394.262539 225.01385 
L 394.587518 89.8574 
L 394.912498 155.761166 
L 395.237477 155.761166 
L 395.562457 175.180702 
L 395.887437 175.180702 
L 396.212416 218.945969 
L 396.537396 213.735928 
L 396.862375 100.881573 
L 397.512334 250.440161 
L 397.837314 201.849417 
L 398.162293 191.995036 
L 398.487273 191.995036 
L 398.487273 191.995036 
" style="fill:none;stroke:#1f77b4;stroke-linecap:square;stroke-width:1.5;"/>
   </g>
   <g id="line2d_15">
    <path clip-path="url(#pbd7cb3f30d)" d="M 73.832727 124.785964 
L 74.157707 192.064036 
L 74.482686 184.466072 
L 74.807666 221.324869 
L 75.132645 160.809778 
L 75.457625 232.518091 
L 75.782604 180.378737 
L 76.107584 242.351941 
L 76.432563 169.496289 
L 76.757543 196.641077 
L 77.082523 189.867227 
L 77.407502 136.247216 
L 77.732482 198.74959 
L 78.057461 201.583861 
L 78.382441 161.878828 
L 78.70742 203.054171 
L 79.0324 166.283446 
L 79.357379 221.631035 
L 80.007338 173.889393 
L 80.332318 168.988835 
L 80.657297 168.434385 
L 80.982277 148.386468 
L 81.307256 205.585906 
L 81.632236 142.477826 
L 82.282195 186.570272 
L 82.607174 192.641754 
L 82.932154 137.665261 
L 83.257133 209.104414 
L 83.582113 218.125625 
L 83.907093 156.560906 
L 84.232072 153.852025 
L 84.557052 167.922463 
L 84.882031 122.443736 
L 85.53199 199.864489 
L 85.85697 213.62935 
L 86.181949 217.138708 
L 86.506929 189.798904 
L 86.831908 178.762126 
L 87.156888 241.67321 
L 87.481867 107.218579 
L 87.806847 228.736256 
L 88.131826 182.281228 
L 88.456806 228.089633 
L 88.781785 136.880228 
L 89.431744 200.555878 
L 89.756724 224.764103 
L 90.081704 189.264178 
L 90.406683 126.836889 
L 90.731663 155.620136 
L 91.056642 214.122926 
L 91.381622 152.064271 
L 91.706601 260.482488 
L 92.031581 162.897972 
L 92.35656 156.356495 
L 92.68154 139.987586 
L 93.006519 133.742442 
L 93.331499 220.45891 
L 93.656478 241.7759 
L 93.981458 167.221161 
L 94.306437 177.15705 
L 94.631417 168.177341 
L 95.281376 207.437946 
L 95.606355 183.650746 
L 95.931335 217.197989 
L 96.256314 174.417319 
L 96.581294 174.989996 
L 96.906274 138.666866 
L 97.231253 150.342739 
L 97.556233 237.401288 
L 97.881212 173.260303 
L 98.206192 183.383964 
L 98.531171 230.931168 
L 98.856151 155.130755 
L 99.18113 162.137546 
L 99.50611 157.02389 
L 99.831089 184.191556 
L 100.156069 144.44569 
L 100.806028 225.442477 
L 101.131007 174.176805 
L 101.455987 167.961045 
L 101.780966 107.52858 
L 102.105946 190.465088 
L 102.430925 240.271185 
L 102.755905 131.089336 
L 103.405864 162.363085 
L 103.730844 226.312957 
L 104.055823 201.055812 
L 104.380803 227.595826 
L 104.705782 216.976389 
L 105.030762 96.497819 
L 105.355741 128.262525 
L 105.680721 172.349404 
L 106.0057 160.808288 
L 106.33068 247.866148 
L 106.655659 247.866148 
L 106.980639 213.76761 
L 107.305618 202.765204 
L 107.630598 158.257155 
L 107.955577 210.272019 
L 108.605536 210.272019 
L 108.930516 167.079191 
L 109.255495 179.858163 
L 109.905455 179.858163 
L 110.230434 178.117517 
L 110.555414 166.238729 
L 110.880393 183.043904 
L 111.205373 182.609606 
L 111.530352 182.609606 
L 111.855332 193.291354 
L 112.180311 133.38812 
L 112.505291 124.29521 
L 112.83027 129.861604 
L 113.15525 236.941726 
L 113.480229 170.136565 
L 113.805209 170.136565 
L 114.130188 179.312323 
L 114.455168 169.504186 
L 114.780147 129.70956 
L 115.105127 238.740577 
L 115.430106 178.566946 
L 115.755086 226.04095 
L 116.080066 227.877647 
L 116.405045 199.802595 
L 116.730025 199.802595 
L 117.055004 132.899992 
L 117.379984 123.368869 
L 117.704963 160.420587 
L 118.029943 151.128785 
L 118.354922 183.093445 
L 118.679902 164.95541 
L 119.004881 164.95541 
L 119.329861 149.983123 
L 119.65484 246.288054 
L 119.97982 261.933926 
L 120.304799 148.002252 
L 120.629779 184.185466 
L 120.954758 190.579568 
L 121.279738 207.245157 
L 121.604717 207.245157 
L 121.929697 206.457498 
L 122.254676 229.264108 
L 122.579656 229.264108 
L 122.904636 259.741748 
L 123.229615 213.890483 
L 123.554595 189.261802 
L 123.879574 197.944515 
L 124.204554 215.128818 
L 124.529533 215.128818 
L 124.854513 220.928151 
L 125.179492 149.274864 
L 125.504472 209.644718 
L 125.829451 148.818006 
L 126.154431 211.25938 
L 126.47941 216.48575 
L 126.80439 120.475047 
L 127.454349 206.367048 
L 127.779328 211.347699 
L 128.429287 165.250205 
L 128.754267 197.802396 
L 129.079247 124.884108 
L 129.404226 141.384198 
L 129.729206 183.268212 
L 130.054185 202.878568 
L 130.379165 283.190627 
L 130.704144 283.190627 
L 131.029124 157.443694 
L 131.354103 225.737095 
L 131.679083 210.128875 
L 132.004062 183.771443 
L 132.329042 215.93275 
L 132.654021 215.93275 
L 132.979001 197.690286 
L 133.30398 142.238005 
L 133.62896 157.361943 
L 133.953939 188.219667 
L 134.278919 188.219667 
L 134.603898 163.799392 
L 134.928878 206.818269 
L 135.253857 176.580602 
L 135.578837 129.405415 
L 135.903817 163.620286 
L 136.228796 168.678778 
L 136.553776 168.678778 
L 136.878755 171.147064 
L 137.203735 202.206087 
L 137.528714 202.206087 
L 137.853694 209.934472 
L 138.178673 163.085817 
L 138.828632 198.272181 
L 139.153612 197.740938 
L 139.478591 197.740938 
L 139.803571 202.524021 
L 140.12855 180.797756 
L 140.45353 217.909608 
L 140.778509 161.553341 
L 141.103489 165.617615 
L 141.428468 187.110321 
L 141.753448 256.507302 
L 142.078428 182.349497 
L 142.403407 141.303165 
L 142.728387 198.629797 
L 143.378346 198.629797 
L 143.703325 198.206842 
L 144.028305 198.206842 
L 144.353284 118.766209 
L 144.678264 138.304556 
L 145.328223 211.874974 
L 145.653202 163.111975 
L 145.978182 208.844234 
L 146.303161 208.844234 
L 146.628141 126.400701 
L 146.95312 191.903684 
L 147.2781 123.735685 
L 147.603079 197.119027 
L 147.928059 191.15405 
L 148.253038 224.410728 
L 148.578018 208.592907 
L 148.902998 127.080695 
L 149.227977 201.201355 
L 149.552957 121.326619 
L 149.877936 111.960331 
L 150.202916 111.960331 
L 150.852875 168.439465 
L 151.177854 227.233047 
L 151.502834 161.291214 
L 151.827813 188.6938 
L 152.152793 241.164766 
L 152.477772 213.932815 
L 152.802752 160.383967 
L 153.127731 161.490533 
L 153.452711 234.053896 
L 153.77769 116.503499 
L 154.10267 214.207215 
L 154.427649 164.518863 
L 154.752629 223.982646 
L 155.077609 226.890008 
L 156.052547 115.843263 
L 156.377527 189.596365 
L 156.702506 177.446433 
L 157.027486 238.269172 
L 157.352465 164.075196 
L 157.677445 152.331547 
L 158.002424 152.331547 
L 158.327404 191.905425 
L 158.652383 154.19099 
L 158.977363 187.936379 
L 159.302342 253.087474 
L 159.627322 178.133988 
L 159.952301 231.299389 
L 160.277281 231.299389 
L 160.60226 202.270482 
L 160.92724 124.126484 
L 161.252219 192.445757 
L 161.577199 151.312064 
L 161.902179 214.116379 
L 162.227158 126.968747 
L 162.552138 199.53224 
L 162.877117 139.516864 
L 163.202097 186.506807 
L 163.527076 186.506807 
L 163.852056 284.6563 
L 164.177035 188.01988 
L 164.502015 186.68898 
L 164.826994 165.679658 
L 165.476953 165.679658 
L 165.801933 254.381553 
L 166.126912 239.787292 
L 166.451892 181.993319 
L 166.776871 189.479158 
L 167.101851 181.137031 
L 167.42683 152.786236 
L 167.75181 208.336309 
L 168.07679 168.686553 
L 168.401769 253.157931 
L 169.376708 253.157931 
L 169.701687 245.826826 
L 170.026667 180.302854 
L 170.351646 173.620915 
L 170.676626 193.546492 
L 171.001605 188.705675 
L 171.326585 188.705675 
L 171.651564 252.420169 
L 171.976544 196.228972 
L 172.301523 196.020756 
L 172.626503 196.020756 
L 172.951482 156.953349 
L 173.276462 178.19367 
L 173.601441 178.19367 
L 173.926421 203.6651 
L 174.2514 203.6651 
L 174.57638 149.234593 
L 174.90136 211.867689 
L 175.226339 187.62928 
L 175.551319 191.590641 
L 175.876298 147.311396 
L 176.201278 128.13255 
L 176.526257 128.13255 
L 176.851237 146.357509 
L 177.176216 172.554565 
L 177.501196 144.695211 
L 177.826175 135.073641 
L 178.151155 140.320197 
L 178.801114 192.024143 
L 179.126093 251.519871 
L 179.451073 161.198183 
L 179.776052 172.979227 
L 180.426011 247.833311 
L 180.750991 180.497292 
L 181.075971 251.145812 
L 181.40095 251.145812 
L 181.72593 123.491394 
L 182.050909 211.44629 
L 182.375889 211.44629 
L 182.700868 173.709552 
L 183.025848 181.598407 
L 183.350827 168.406384 
L 183.675807 139.947053 
L 184.000786 231.866805 
L 184.325766 197.866676 
L 184.650745 207.673377 
L 184.975725 207.673377 
L 185.300704 195.370972 
L 185.625684 189.605297 
L 185.950663 193.936759 
L 186.275643 238.300338 
L 186.600622 238.300338 
L 186.925602 115.778226 
L 187.250581 161.236396 
L 187.575561 186.33199 
L 187.900541 186.33199 
L 188.22552 128.62288 
L 188.5505 192.857793 
L 188.875479 193.636028 
L 189.200459 133.939129 
L 189.525438 216.086168 
L 189.850418 168.610612 
L 190.175397 191.8144 
L 190.500377 180.756101 
L 190.825356 180.756101 
L 191.475315 201.169579 
L 191.800295 201.169579 
L 192.125274 174.401307 
L 192.450254 208.038392 
L 193.100213 164.724104 
L 193.425192 164.724104 
L 193.750172 156.580257 
L 194.075152 162.167315 
L 194.400131 93.379101 
L 194.725111 137.186762 
L 195.05009 254.718407 
L 195.37507 217.695976 
L 195.700049 163.504555 
L 196.025029 193.406177 
L 196.350008 191.563394 
L 196.674988 200.486596 
L 196.999967 227.037442 
L 197.324947 227.037442 
L 197.649926 136.027072 
L 197.974906 195.965632 
L 198.299885 174.574058 
L 198.624865 183.43086 
L 198.949844 177.020531 
L 199.274824 178.647322 
L 199.599803 166.534818 
L 199.924783 166.534818 
L 200.249762 186.496306 
L 200.574742 153.967416 
L 200.899722 213.351836 
L 201.224701 185.839734 
L 201.549681 185.839734 
L 201.87466 105.472426 
L 202.19964 139.693071 
L 202.524619 154.149586 
L 202.849599 196.428268 
L 203.174578 147.593333 
L 203.499558 196.051227 
L 203.824537 166.193049 
L 204.149517 178.661735 
L 204.474496 167.181502 
L 204.799476 128.439565 
L 205.449435 212.620569 
L 205.774414 168.618615 
L 206.099394 149.321017 
L 206.424373 218.116426 
L 206.749353 174.643722 
L 207.074333 219.16388 
L 207.399312 219.16388 
L 207.724292 166.660953 
L 208.049271 160.714034 
L 208.374251 174.875474 
L 208.69923 156.44952 
L 209.02421 176.733657 
L 209.349189 189.632167 
L 209.674169 191.084242 
L 209.999148 126.621591 
L 210.324128 124.21854 
L 210.649107 228.393202 
L 210.974087 143.371834 
L 211.299066 151.883489 
L 211.624046 238.372901 
L 211.949025 144.990728 
L 212.274005 159.578877 
L 212.598984 267.013002 
L 213.248943 118.498129 
L 213.573923 197.798755 
L 213.898903 108.212975 
L 214.223882 170.101097 
L 214.548862 198.792162 
L 214.873841 195.440765 
L 215.198821 151.79111 
L 215.5238 151.79111 
L 215.84878 199.569307 
L 216.173759 195.606335 
L 216.823718 195.606335 
L 217.148698 230.778285 
L 217.473677 203.364239 
L 217.798657 267.862147 
L 218.123636 218.550558 
L 218.448616 214.548021 
L 219.098575 131.680344 
L 219.423554 218.044842 
L 219.748534 120.201987 
L 220.073514 110.699524 
L 220.398493 121.4135 
L 220.723473 146.496021 
L 221.048452 162.761685 
L 221.373432 145.940441 
L 221.698411 106.343916 
L 222.023391 106.343916 
L 222.34837 197.939289 
L 222.67335 96.703981 
L 222.998329 150.341141 
L 223.648288 216.930437 
L 224.298247 150.468948 
L 224.623227 235.409778 
L 224.948206 152.97606 
L 225.273186 171.35161 
L 225.598165 172.873806 
L 225.923145 214.156698 
L 226.248124 149.099378 
L 226.573104 192.998047 
L 227.223063 136.541829 
L 227.873022 234.376136 
L 228.198002 215.554997 
L 228.522981 208.455233 
L 228.847961 179.22543 
L 229.17294 116.760982 
L 229.49792 213.731275 
L 229.822899 213.731275 
L 230.147879 169.784157 
L 230.472858 200.400344 
L 230.797838 78.294032 
L 231.122817 248.092463 
L 231.447797 248.092463 
L 231.772776 242.449814 
L 232.097756 130.449984 
L 232.422735 205.862135 
L 233.072695 146.758844 
L 233.397674 198.269849 
L 233.722654 146.88201 
L 234.047633 180.925141 
L 234.372613 234.362955 
L 234.697592 140.605965 
L 235.022572 177.971401 
L 235.347551 158.626412 
L 235.672531 157.587458 
L 235.99751 157.587458 
L 236.32249 154.420037 
L 236.647469 206.126185 
L 236.972449 161.635969 
L 237.297428 165.37882 
L 237.622408 148.164126 
L 237.947387 148.164126 
L 238.272367 149.029083 
L 238.597346 172.461986 
L 238.922326 159.478716 
L 239.247305 196.933294 
L 239.572285 168.024848 
L 239.897265 151.20351 
L 240.222244 169.827224 
L 240.547224 211.852377 
L 240.872203 211.852377 
L 241.197183 241.608661 
L 241.847142 172.285249 
L 242.172121 164.036842 
L 242.497101 164.036842 
L 242.82208 188.623975 
L 243.472039 188.623975 
L 243.797019 178.286383 
L 244.121998 246.598448 
L 244.446978 151.545009 
L 244.771957 187.800772 
L 245.096937 171.530884 
L 245.421916 174.605414 
L 245.746896 179.80898 
L 246.071876 170.358497 
L 246.396855 216.815205 
L 246.721835 208.335835 
L 247.046814 195.945826 
L 247.371794 256.849714 
L 247.696773 256.849714 
L 248.021753 215.597181 
L 248.346732 134.481218 
L 248.671712 183.480118 
L 248.996691 152.480973 
L 249.321671 190.407379 
L 249.64665 148.260272 
L 249.97163 206.416653 
L 250.296609 201.397483 
L 250.946568 157.024976 
L 251.271548 142.036221 
L 251.596527 142.036221 
L 251.921507 177.253086 
L 252.246486 177.253086 
L 252.571466 154.132401 
L 252.896446 212.603941 
L 253.221425 147.340798 
L 253.546405 197.328454 
L 254.196364 197.328454 
L 254.521343 135.090734 
L 254.846323 184.073776 
L 255.171302 167.902388 
L 255.496282 165.955491 
L 255.821261 184.737068 
L 256.146241 155.547846 
L 256.47122 295.488 
L 257.121179 148.591745 
L 257.446159 180.021738 
L 258.096118 180.021738 
L 258.421097 181.91221 
L 258.746077 198.267725 
L 259.071057 167.210623 
L 259.396036 161.356897 
L 259.721016 221.152351 
L 260.045995 249.555305 
L 260.370975 121.476342 
L 260.695954 203.610345 
L 261.020934 161.891007 
L 261.345913 196.092183 
L 261.670893 138.101772 
L 261.995872 138.101772 
L 262.320852 112.113407 
L 262.645831 209.893643 
L 262.970811 168.154198 
L 263.29579 231.081706 
L 263.62077 161.854902 
L 263.945749 161.446205 
L 264.270729 85.580798 
L 264.595708 179.295925 
L 264.920688 186.707934 
L 265.245667 226.001511 
L 265.570647 217.788141 
L 265.895627 236.99517 
L 266.220606 158.328181 
L 266.545586 217.764861 
L 266.870565 157.203269 
L 267.195545 140.456936 
L 267.520524 104.768293 
L 267.845504 104.768293 
L 268.170483 198.487285 
L 268.495463 181.429509 
L 268.820442 174.67152 
L 269.145422 194.554793 
L 269.470401 139.187573 
L 269.795381 204.021644 
L 270.12036 155.33333 
L 270.44534 236.46294 
L 270.770319 148.10782 
L 271.095299 148.10782 
L 271.420278 277.590729 
L 271.745258 154.632938 
L 272.070238 135.498632 
L 272.395217 194.387613 
L 272.720197 174.549518 
L 273.370156 209.387046 
L 273.695135 161.923349 
L 274.020115 200.891458 
L 274.345094 195.450198 
L 274.670074 159.105478 
L 274.995053 231.485075 
L 275.320033 161.718089 
L 275.645012 216.079576 
L 275.969992 233.508565 
L 276.619951 199.16544 
L 276.94493 158.230593 
L 277.26991 189.728236 
L 277.594889 171.469378 
L 277.919869 197.915121 
L 278.244848 197.679476 
L 278.569828 196.716991 
L 278.894808 222.896255 
L 279.219787 198.859862 
L 279.544767 243.284428 
L 279.869746 168.248775 
L 280.194726 168.248775 
L 280.519705 145.90697 
L 280.844685 159.171034 
L 281.169664 191.667836 
L 281.494644 191.667836 
L 281.819623 219.156538 
L 282.144603 180.785245 
L 282.469582 196.177287 
L 283.119541 235.985781 
L 283.444521 215.354433 
L 283.7695 171.174903 
L 284.09448 170.135011 
L 284.419459 152.243065 
L 284.744439 216.235466 
L 285.069419 215.187695 
L 285.394398 155.744227 
L 285.719378 252.610337 
L 286.044357 161.770985 
L 286.369337 161.770985 
L 286.694316 215.761322 
L 287.019296 136.325366 
L 287.344275 156.417003 
L 287.669255 213.351992 
L 287.994234 160.797152 
L 288.319214 177.456193 
L 288.644193 206.506562 
L 288.969173 206.506562 
L 289.619132 129.524307 
L 289.944111 232.101703 
L 290.59407 142.122057 
L 290.91905 196.38869 
L 291.244029 192.936149 
L 291.569009 179.991329 
L 291.893989 162.118033 
L 292.218968 162.118033 
L 292.543948 155.861639 
L 292.868927 155.861639 
L 293.193907 129.07413 
L 293.843866 235.881866 
L 294.168845 244.201293 
L 294.493825 203.67338 
L 295.143784 203.67338 
L 295.468763 187.87151 
L 295.793743 202.596542 
L 296.118722 193.932859 
L 296.443702 116.247132 
L 296.768681 166.798205 
L 297.093661 185.260168 
L 297.41864 192.246813 
L 297.74362 190.12678 
L 298.0686 152.985361 
L 298.393579 244.183544 
L 298.718559 228.301834 
L 299.043538 227.546504 
L 299.368518 227.546504 
L 299.693497 104.650635 
L 300.018477 197.927352 
L 300.343456 176.252908 
L 300.668436 176.252908 
L 300.993415 157.492772 
L 301.318395 166.284432 
L 301.643374 147.486911 
L 302.293333 193.843534 
L 302.618313 166.555757 
L 302.943292 166.915513 
L 303.268272 197.809789 
L 303.593251 170.847985 
L 303.918231 170.847985 
L 304.24321 129.654566 
L 304.56819 139.895191 
L 304.89317 139.247397 
L 305.218149 114.349045 
L 305.543129 194.141026 
L 305.868108 171.592634 
L 306.193088 171.592634 
L 306.518067 206.099126 
L 306.843047 182.971845 
L 307.168026 194.740674 
L 307.493006 194.740674 
L 307.817985 182.742457 
L 308.142965 180.261757 
L 308.467944 180.261757 
L 308.792924 232.026015 
L 309.117903 198.293474 
L 309.442883 188.516212 
L 309.767862 173.364571 
L 310.092842 188.706405 
L 310.417821 154.081466 
L 310.742801 205.552093 
L 311.71774 118.435701 
L 312.042719 204.622122 
L 312.367699 232.970351 
L 312.692678 193.458632 
L 313.017658 281.849384 
L 313.342637 223.123937 
L 313.667617 128.988834 
L 313.992596 178.871069 
L 314.317576 146.890873 
L 314.642555 175.469653 
L 314.967535 169.407002 
L 315.292514 167.852071 
L 315.617494 135.953006 
L 315.942473 125.132616 
L 316.267453 256.97827 
L 316.592432 198.369474 
L 316.917412 198.369474 
L 317.242391 205.743183 
L 317.567371 216.417008 
L 317.892351 231.934465 
L 318.21733 135.649706 
L 318.54231 176.022725 
L 318.867289 173.506006 
L 319.192269 159.783149 
L 319.517248 177.290246 
L 319.842228 259.025445 
L 320.167207 131.100344 
L 320.492187 166.633978 
L 320.817166 231.53257 
L 321.142146 142.11845 
L 321.467125 143.568581 
L 321.792105 173.259301 
L 322.117084 173.259301 
L 322.442064 248.313249 
L 322.767043 248.313249 
L 323.417002 155.769946 
L 323.741982 155.769946 
L 324.066962 126.189772 
L 324.391941 212.441754 
L 324.716921 183.581577 
L 325.0419 201.750093 
L 325.36688 156.317371 
L 325.691859 211.882116 
L 326.016839 218.630739 
L 326.341818 132.636563 
L 326.666798 132.636563 
L 326.991777 217.75593 
L 327.316757 212.584039 
L 327.966716 145.566705 
L 328.291695 143.717891 
L 328.616675 219.785032 
L 328.941654 131.370116 
L 329.591613 131.370116 
L 329.916593 225.65665 
L 330.241572 203.996398 
L 330.566552 158.239857 
L 330.891532 170.119446 
L 331.216511 134.89452 
L 331.541491 240.133501 
L 331.86647 121.162745 
L 332.516429 121.162745 
L 332.841409 146.185571 
L 333.166388 193.119298 
L 333.491368 168.312834 
L 333.816347 250.802224 
L 334.141327 101.275219 
L 334.466306 224.916306 
L 335.116265 184.345385 
L 335.766224 140.323284 
L 336.091204 146.336561 
L 336.416183 199.860798 
L 336.741163 197.079294 
L 337.066143 145.221821 
L 337.391122 223.878592 
L 337.716102 166.753144 
L 338.041081 215.780152 
L 338.69104 136.535351 
L 339.01602 169.227823 
L 339.665979 169.203731 
L 339.990958 202.069787 
L 340.315938 154.615302 
L 340.640917 154.615302 
L 340.965897 163.278436 
L 341.290876 163.278436 
L 341.615856 258.130784 
L 342.265815 140.345768 
L 342.590794 173.143389 
L 342.915774 192.737016 
L 343.240753 246.675531 
L 343.565733 189.425258 
L 343.890713 238.352999 
L 344.215692 122.171334 
L 344.540672 249.576895 
L 344.865651 189.432796 
L 345.190631 204.737465 
L 345.84059 139.559554 
L 346.165569 195.433644 
L 346.815528 162.560062 
L 347.140508 207.155389 
L 347.790467 172.630947 
L 348.115446 226.172679 
L 348.440426 154.327616 
L 348.765405 156.561961 
L 349.090385 215.724844 
L 349.740344 167.317315 
L 350.065324 170.365834 
L 350.390303 202.444022 
L 350.715283 202.444022 
L 351.040262 154.625052 
L 351.365242 200.198958 
L 351.690221 140.609749 
L 352.015201 140.609749 
L 352.34018 259.302773 
L 352.66516 259.302773 
L 352.990139 149.948674 
L 353.315119 140.937849 
L 353.640098 140.937849 
L 354.290057 206.386825 
L 354.615037 150.445987 
L 354.940016 170.877211 
L 355.264996 180.265504 
L 355.589975 145.662863 
L 355.914955 208.001262 
L 356.239934 218.540839 
L 356.564914 151.516414 
L 356.889894 153.038325 
L 357.214873 187.021719 
L 357.539853 285.194754 
L 357.864832 285.194754 
L 358.514791 168.510462 
L 358.839771 149.73942 
L 359.16475 162.251544 
L 359.48973 184.571139 
L 359.814709 167.3021 
L 360.139689 167.3021 
L 360.464668 154.121893 
L 360.789648 174.166989 
L 361.114627 174.166989 
L 361.439607 231.206143 
L 361.764586 201.976627 
L 362.414545 121.74198 
L 362.739525 168.525447 
L 363.064505 182.555682 
L 363.389484 180.209891 
L 363.714464 94.343898 
L 364.039443 173.23256 
L 364.364423 162.817962 
L 364.689402 130.637991 
L 365.014382 191.490393 
L 365.339361 228.168588 
L 365.664341 162.767873 
L 365.98932 174.832216 
L 366.3143 175.205975 
L 366.964259 218.160995 
L 367.289238 266.493457 
L 367.614218 184.177587 
L 367.939197 144.383415 
L 368.264177 144.383415 
L 368.589156 141.307562 
L 368.914136 143.333775 
L 369.239115 157.691157 
L 369.564095 203.439755 
L 369.889075 203.439755 
L 370.214054 197.864789 
L 370.539034 98.461378 
L 370.864013 170.401339 
L 371.188993 152.021184 
L 371.513972 205.169542 
L 371.838952 139.756522 
L 372.163931 153.331763 
L 372.488911 153.331763 
L 372.81389 213.001615 
L 373.13887 150.221841 
L 373.463849 119.772618 
L 373.788829 119.772618 
L 374.113808 177.032717 
L 374.438788 206.331135 
L 374.763767 206.384445 
L 375.088747 173.108008 
L 375.413726 225.141848 
L 375.738706 191.166698 
L 376.063686 189.066665 
L 376.388665 146.075696 
L 376.713645 186.435892 
L 377.038624 207.162167 
L 377.363604 194.853965 
L 377.688583 207.727714 
L 378.013563 185.817354 
L 378.338542 205.093169 
L 378.663522 252.155594 
L 378.988501 163.513233 
L 379.313481 236.914473 
L 379.63846 193.88182 
L 379.96344 171.955378 
L 380.613399 171.955378 
L 380.938378 176.639633 
L 381.263358 209.225968 
L 381.588337 153.447434 
L 381.913317 153.447434 
L 382.238296 217.86455 
L 382.563276 154.144593 
L 382.888256 217.083191 
L 383.213235 132.891092 
L 383.538215 170.18836 
L 383.863194 182.479967 
L 384.188174 182.479967 
L 384.513153 200.025685 
L 384.838133 150.269565 
L 385.163112 150.269565 
L 385.488092 205.525769 
L 385.813071 176.971023 
L 386.138051 172.790427 
L 386.46303 177.686243 
L 386.78801 267.417464 
L 387.112989 127.010443 
L 387.437969 187.241009 
L 387.762948 216.410555 
L 388.087928 174.346589 
L 388.412907 107.698052 
L 389.062867 181.67778 
L 389.387846 221.272607 
L 389.712826 220.772508 
L 390.037805 109.715742 
L 390.362785 212.159726 
L 390.687764 170.018555 
L 391.012744 210.623364 
L 391.337723 218.617398 
L 391.662703 265.180911 
L 392.312662 173.526825 
L 392.637641 148.280035 
L 392.962621 175.919092 
L 393.2876 144.076391 
L 393.61258 144.076391 
L 393.937559 196.59476 
L 394.262539 164.415686 
L 394.587518 219.598483 
L 394.912498 172.887196 
L 395.237477 172.887196 
L 395.562457 176.180727 
L 395.887437 176.180727 
L 396.212416 135.628892 
L 396.537396 210.616693 
L 396.862375 179.106509 
L 397.187355 223.500117 
L 397.512334 116.515328 
L 397.837314 198.451553 
L 398.162293 173.769398 
L 398.487273 173.769398 
L 398.487273 173.769398 
" style="fill:none;stroke:#ff7f0e;stroke-linecap:square;stroke-width:1.5;"/>
   </g>
   <g id="patch_3">
    <path d="M 57.6 307.584 
L 57.6 41.472 
" style="fill:none;stroke:#000000;stroke-linecap:square;stroke-linejoin:miter;stroke-width:0.8;"/>
   </g>
   <g id="patch_4">
    <path d="M 414.72 307.584 
L 414.72 41.472 
" style="fill:none;stroke:#000000;stroke-linecap:square;stroke-linejoin:miter;stroke-width:0.8;"/>
   </g>
   <g id="patch_5">
    <path d="M 57.6 307.584 
L 414.72 307.584 
" style="fill:none;stroke:#000000;stroke-linecap:square;stroke-linejoin:miter;stroke-width:0.8;"/>
   </g>
   <g id="patch_6">
    <path d="M 57.6 41.472 
L 414.72 41.472 
" style="fill:none;stroke:#000000;stroke-linecap:square;stroke-linejoin:miter;stroke-width:0.8;"/>
   </g>
   <g id="text_14">
    <!-- Polyakov loop 3 direction -->
    <defs>
     <path d="M 19.671875 64.796875 
L 19.671875 37.40625 
L 32.078125 37.40625 
Q 38.96875 37.40625 42.71875 40.96875 
Q 46.484375 44.53125 46.484375 51.125 
Q 46.484375 57.671875 42.71875 61.234375 
Q 38.96875 64.796875 32.078125 64.796875 
z
M 9.8125 72.90625 
L 32.078125 72.90625 
Q 44.34375 72.90625 50.609375 67.359375 
Q 56.890625 61.8125 56.890625 51.125 
Q 56.890625 40.328125 50.609375 34.8125 
Q 44.34375 29.296875 32.078125 29.296875 
L 19.671875 29.296875 
L 19.671875 0 
L 9.8125 0 
z
" id="DejaVuSans-80"/>
     <path d="M 30.609375 48.390625 
Q 23.390625 48.390625 19.1875 42.75 
Q 14.984375 37.109375 14.984375 27.296875 
Q 14.984375 17.484375 19.15625 11.84375 
Q 23.34375 6.203125 30.609375 6.203125 
Q 37.796875 6.203125 41.984375 11.859375 
Q 46.1875 17.53125 46.1875 27.296875 
Q 46.1875 37.015625 41.984375 42.703125 
Q 37.796875 48.390625 30.609375 48.390625 
z
M 30.609375 56 
Q 42.328125 56 49.015625 48.375 
Q 55.71875 40.765625 55.71875 27.296875 
Q 55.71875 13.875 49.015625 6.21875 
Q 42.328125 -1.421875 30.609375 -1.421875 
Q 18.84375 -1.421875 12.171875 6.21875 
Q 5.515625 13.875 5.515625 27.296875 
Q 5.515625 40.765625 12.171875 48.375 
Q 18.84375 56 30.609375 56 
z
" id="DejaVuSans-111"/>
     <path d="M 9.421875 75.984375 
L 18.40625 75.984375 
L 18.40625 0 
L 9.421875 0 
z
" id="DejaVuSans-108"/>
     <path d="M 32.171875 -5.078125 
Q 28.375 -14.84375 24.75 -17.8125 
Q 21.140625 -20.796875 15.09375 -20.796875 
L 7.90625 -20.796875 
L 7.90625 -13.28125 
L 13.1875 -13.28125 
Q 16.890625 -13.28125 18.9375 -11.515625 
Q 21 -9.765625 23.484375 -3.21875 
L 25.09375 0.875 
L 2.984375 54.6875 
L 12.5 54.6875 
L 29.59375 11.921875 
L 46.6875 54.6875 
L 56.203125 54.6875 
z
" id="DejaVuSans-121"/>
     <path d="M 34.28125 27.484375 
Q 23.390625 27.484375 19.1875 25 
Q 14.984375 22.515625 14.984375 16.5 
Q 14.984375 11.71875 18.140625 8.90625 
Q 21.296875 6.109375 26.703125 6.109375 
Q 34.1875 6.109375 38.703125 11.40625 
Q 43.21875 16.703125 43.21875 25.484375 
L 43.21875 27.484375 
z
M 52.203125 31.203125 
L 52.203125 0 
L 43.21875 0 
L 43.21875 8.296875 
Q 40.140625 3.328125 35.546875 0.953125 
Q 30.953125 -1.421875 24.3125 -1.421875 
Q 15.921875 -1.421875 10.953125 3.296875 
Q 6 8.015625 6 15.921875 
Q 6 25.140625 12.171875 29.828125 
Q 18.359375 34.515625 30.609375 34.515625 
L 43.21875 34.515625 
L 43.21875 35.40625 
Q 43.21875 41.609375 39.140625 45 
Q 35.0625 48.390625 27.6875 48.390625 
Q 23 48.390625 18.546875 47.265625 
Q 14.109375 46.140625 10.015625 43.890625 
L 10.015625 52.203125 
Q 14.9375 54.109375 19.578125 55.046875 
Q 24.21875 56 28.609375 56 
Q 40.484375 56 46.34375 49.84375 
Q 52.203125 43.703125 52.203125 31.203125 
z
" id="DejaVuSans-97"/>
     <path d="M 9.078125 75.984375 
L 18.109375 75.984375 
L 18.109375 31.109375 
L 44.921875 54.6875 
L 56.390625 54.6875 
L 27.390625 29.109375 
L 57.625 0 
L 45.90625 0 
L 18.109375 26.703125 
L 18.109375 0 
L 9.078125 0 
z
" id="DejaVuSans-107"/>
     <path d="M 2.984375 54.6875 
L 12.5 54.6875 
L 29.59375 8.796875 
L 46.6875 54.6875 
L 56.203125 54.6875 
L 35.6875 0 
L 23.484375 0 
z
" id="DejaVuSans-118"/>
     <path id="DejaVuSans-32"/>
     <path d="M 18.109375 8.203125 
L 18.109375 -20.796875 
L 9.078125 -20.796875 
L 9.078125 54.6875 
L 18.109375 54.6875 
L 18.109375 46.390625 
Q 20.953125 51.265625 25.265625 53.625 
Q 29.59375 56 35.59375 56 
Q 45.5625 56 51.78125 48.09375 
Q 58.015625 40.1875 58.015625 27.296875 
Q 58.015625 14.40625 51.78125 6.484375 
Q 45.5625 -1.421875 35.59375 -1.421875 
Q 29.59375 -1.421875 25.265625 0.953125 
Q 20.953125 3.328125 18.109375 8.203125 
z
M 48.6875 27.296875 
Q 48.6875 37.203125 44.609375 42.84375 
Q 40.53125 48.484375 33.40625 48.484375 
Q 26.265625 48.484375 22.1875 42.84375 
Q 18.109375 37.203125 18.109375 27.296875 
Q 18.109375 17.390625 22.1875 11.75 
Q 26.265625 6.109375 33.40625 6.109375 
Q 40.53125 6.109375 44.609375 11.75 
Q 48.6875 17.390625 48.6875 27.296875 
z
" id="DejaVuSans-112"/>
     <path d="M 45.40625 46.390625 
L 45.40625 75.984375 
L 54.390625 75.984375 
L 54.390625 0 
L 45.40625 0 
L 45.40625 8.203125 
Q 42.578125 3.328125 38.25 0.953125 
Q 33.9375 -1.421875 27.875 -1.421875 
Q 17.96875 -1.421875 11.734375 6.484375 
Q 5.515625 14.40625 5.515625 27.296875 
Q 5.515625 40.1875 11.734375 48.09375 
Q 17.96875 56 27.875 56 
Q 33.9375 56 38.25 53.625 
Q 42.578125 51.265625 45.40625 46.390625 
z
M 14.796875 27.296875 
Q 14.796875 17.390625 18.875 11.75 
Q 22.953125 6.109375 30.078125 6.109375 
Q 37.203125 6.109375 41.296875 11.75 
Q 45.40625 17.390625 45.40625 27.296875 
Q 45.40625 37.203125 41.296875 42.84375 
Q 37.203125 48.484375 30.078125 48.484375 
Q 22.953125 48.484375 18.875 42.84375 
Q 14.796875 37.203125 14.796875 27.296875 
z
" id="DejaVuSans-100"/>
     <path d="M 9.421875 54.6875 
L 18.40625 54.6875 
L 18.40625 0 
L 9.421875 0 
z
M 9.421875 75.984375 
L 18.40625 75.984375 
L 18.40625 64.59375 
L 9.421875 64.59375 
z
" id="DejaVuSans-105"/>
     <path d="M 41.109375 46.296875 
Q 39.59375 47.171875 37.8125 47.578125 
Q 36.03125 48 33.890625 48 
Q 26.265625 48 22.1875 43.046875 
Q 18.109375 38.09375 18.109375 28.8125 
L 18.109375 0 
L 9.078125 0 
L 9.078125 54.6875 
L 18.109375 54.6875 
L 18.109375 46.1875 
Q 20.953125 51.171875 25.484375 53.578125 
Q 30.03125 56 36.53125 56 
Q 37.453125 56 38.578125 55.875 
Q 39.703125 55.765625 41.0625 55.515625 
z
" id="DejaVuSans-114"/>
     <path d="M 56.203125 29.59375 
L 56.203125 25.203125 
L 14.890625 25.203125 
Q 15.484375 15.921875 20.484375 11.0625 
Q 25.484375 6.203125 34.421875 6.203125 
Q 39.59375 6.203125 44.453125 7.46875 
Q 49.3125 8.734375 54.109375 11.28125 
L 54.109375 2.78125 
Q 49.265625 0.734375 44.1875 -0.34375 
Q 39.109375 -1.421875 33.890625 -1.421875 
Q 20.796875 -1.421875 13.15625 6.1875 
Q 5.515625 13.8125 5.515625 26.8125 
Q 5.515625 40.234375 12.765625 48.109375 
Q 20.015625 56 32.328125 56 
Q 43.359375 56 49.78125 48.890625 
Q 56.203125 41.796875 56.203125 29.59375 
z
M 47.21875 32.234375 
Q 47.125 39.59375 43.09375 43.984375 
Q 39.0625 48.390625 32.421875 48.390625 
Q 24.90625 48.390625 20.390625 44.140625 
Q 15.875 39.890625 15.1875 32.171875 
z
" id="DejaVuSans-101"/>
     <path d="M 48.78125 52.59375 
L 48.78125 44.1875 
Q 44.96875 46.296875 41.140625 47.34375 
Q 37.3125 48.390625 33.40625 48.390625 
Q 24.65625 48.390625 19.8125 42.84375 
Q 14.984375 37.3125 14.984375 27.296875 
Q 14.984375 17.28125 19.8125 11.734375 
Q 24.65625 6.203125 33.40625 6.203125 
Q 37.3125 6.203125 41.140625 7.25 
Q 44.96875 8.296875 48.78125 10.40625 
L 48.78125 2.09375 
Q 45.015625 0.34375 40.984375 -0.53125 
Q 36.96875 -1.421875 32.421875 -1.421875 
Q 20.0625 -1.421875 12.78125 6.34375 
Q 5.515625 14.109375 5.515625 27.296875 
Q 5.515625 40.671875 12.859375 48.328125 
Q 20.21875 56 33.015625 56 
Q 37.15625 56 41.109375 55.140625 
Q 45.0625 54.296875 48.78125 52.59375 
z
" id="DejaVuSans-99"/>
     <path d="M 18.3125 70.21875 
L 18.3125 54.6875 
L 36.8125 54.6875 
L 36.8125 47.703125 
L 18.3125 47.703125 
L 18.3125 18.015625 
Q 18.3125 11.328125 20.140625 9.421875 
Q 21.96875 7.515625 27.59375 7.515625 
L 36.8125 7.515625 
L 36.8125 0 
L 27.59375 0 
Q 17.1875 0 13.234375 3.875 
Q 9.28125 7.765625 9.28125 18.015625 
L 9.28125 47.703125 
L 2.6875 47.703125 
L 2.6875 54.6875 
L 9.28125 54.6875 
L 9.28125 70.21875 
z
" id="DejaVuSans-116"/>
     <path d="M 54.890625 33.015625 
L 54.890625 0 
L 45.90625 0 
L 45.90625 32.71875 
Q 45.90625 40.484375 42.875 44.328125 
Q 39.84375 48.1875 33.796875 48.1875 
Q 26.515625 48.1875 22.3125 43.546875 
Q 18.109375 38.921875 18.109375 30.90625 
L 18.109375 0 
L 9.078125 0 
L 9.078125 54.6875 
L 18.109375 54.6875 
L 18.109375 46.1875 
Q 21.34375 51.125 25.703125 53.5625 
Q 30.078125 56 35.796875 56 
Q 45.21875 56 50.046875 50.171875 
Q 54.890625 44.34375 54.890625 33.015625 
z
" id="DejaVuSans-110"/>
    </defs>
    <g transform="translate(161.06625 35.472)scale(0.12 -0.12)">
     <use xlink:href="#DejaVuSans-80"/>
     <use x="56.677734" xlink:href="#DejaVuSans-111"/>
     <use x="117.859375" xlink:href="#DejaVuSans-108"/>
     <use x="145.642578" xlink:href="#DejaVuSans-121"/>
     <use x="204.822266" xlink:href="#DejaVuSans-97"/>
     <use x="266.101562" xlink:href="#DejaVuSans-107"/>
     <use x="320.386719" xlink:href="#DejaVuSans-111"/>
     <use x="381.568359" xlink:href="#DejaVuSans-118"/>
     <use x="440.748047" xlink:href="#DejaVuSans-32"/>
     <use x="472.535156" xlink:href="#DejaVuSans-108"/>
     <use x="500.318359" xlink:href="#DejaVuSans-111"/>
     <use x="561.5" xlink:href="#DejaVuSans-111"/>
     <use x="622.681641" xlink:href="#DejaVuSans-112"/>
     <use x="686.158203" xlink:href="#DejaVuSans-32"/>
     <use x="717.945312" xlink:href="#DejaVuSans-51"/>
     <use x="781.568359" xlink:href="#DejaVuSans-32"/>
     <use x="813.355469" xlink:href="#DejaVuSans-100"/>
     <use x="876.832031" xlink:href="#DejaVuSans-105"/>
     <use x="904.615234" xlink:href="#DejaVuSans-114"/>
     <use x="943.478516" xlink:href="#DejaVuSans-101"/>
     <use x="1005.001953" xlink:href="#DejaVuSans-99"/>
     <use x="1059.982422" xlink:href="#DejaVuSans-116"/>
     <use x="1099.191406" xlink:href="#DejaVuSans-105"/>
     <use x="1126.974609" xlink:href="#DejaVuSans-111"/>
     <use x="1188.15625" xlink:href="#DejaVuSans-110"/>
    </g>
   </g>
   <g id="legend_1">
    <g id="patch_7">
     <path d="M 350.724688 78.82825 
L 407.72 78.82825 
Q 409.72 78.82825 409.72 76.82825 
L 409.72 48.472 
Q 409.72 46.472 407.72 46.472 
L 350.724688 46.472 
Q 348.724688 46.472 348.724688 48.472 
L 348.724688 76.82825 
Q 348.724688 78.82825 350.724688 78.82825 
z
" style="fill:#ffffff;opacity:0.8;stroke:#cccccc;stroke-linejoin:miter;"/>
    </g>
    <g id="line2d_16">
     <path d="M 352.724688 54.570437 
L 372.724688 54.570437 
" style="fill:none;stroke:#1f77b4;stroke-linecap:square;stroke-width:1.5;"/>
    </g>
    <g id="line2d_17"/>
    <g id="text_15">
     <!-- real -->
     <g transform="translate(380.724688 58.070437)scale(0.1 -0.1)">
      <use xlink:href="#DejaVuSans-114"/>
      <use x="38.863281" xlink:href="#DejaVuSans-101"/>
      <use x="100.386719" xlink:href="#DejaVuSans-97"/>
      <use x="161.666016" xlink:href="#DejaVuSans-108"/>
     </g>
    </g>
    <g id="line2d_18">
     <path d="M 352.724688 69.248562 
L 372.724688 69.248562 
" style="fill:none;stroke:#ff7f0e;stroke-linecap:square;stroke-width:1.5;"/>
    </g>
    <g id="line2d_19"/>
    <g id="text_16">
     <!-- imag -->
     <defs>
      <path d="M 52 44.1875 
Q 55.375 50.25 60.0625 53.125 
Q 64.75 56 71.09375 56 
Q 79.640625 56 84.28125 50.015625 
Q 88.921875 44.046875 88.921875 33.015625 
L 88.921875 0 
L 79.890625 0 
L 79.890625 32.71875 
Q 79.890625 40.578125 77.09375 44.375 
Q 74.3125 48.1875 68.609375 48.1875 
Q 61.625 48.1875 57.5625 43.546875 
Q 53.515625 38.921875 53.515625 30.90625 
L 53.515625 0 
L 44.484375 0 
L 44.484375 32.71875 
Q 44.484375 40.625 41.703125 44.40625 
Q 38.921875 48.1875 33.109375 48.1875 
Q 26.21875 48.1875 22.15625 43.53125 
Q 18.109375 38.875 18.109375 30.90625 
L 18.109375 0 
L 9.078125 0 
L 9.078125 54.6875 
L 18.109375 54.6875 
L 18.109375 46.1875 
Q 21.1875 51.21875 25.484375 53.609375 
Q 29.78125 56 35.6875 56 
Q 41.65625 56 45.828125 52.96875 
Q 50 49.953125 52 44.1875 
z
" id="DejaVuSans-109"/>
      <path d="M 45.40625 27.984375 
Q 45.40625 37.75 41.375 43.109375 
Q 37.359375 48.484375 30.078125 48.484375 
Q 22.859375 48.484375 18.828125 43.109375 
Q 14.796875 37.75 14.796875 27.984375 
Q 14.796875 18.265625 18.828125 12.890625 
Q 22.859375 7.515625 30.078125 7.515625 
Q 37.359375 7.515625 41.375 12.890625 
Q 45.40625 18.265625 45.40625 27.984375 
z
M 54.390625 6.78125 
Q 54.390625 -7.171875 48.1875 -13.984375 
Q 42 -20.796875 29.203125 -20.796875 
Q 24.46875 -20.796875 20.265625 -20.09375 
Q 16.0625 -19.390625 12.109375 -17.921875 
L 12.109375 -9.1875 
Q 16.0625 -11.328125 19.921875 -12.34375 
Q 23.78125 -13.375 27.78125 -13.375 
Q 36.625 -13.375 41.015625 -8.765625 
Q 45.40625 -4.15625 45.40625 5.171875 
L 45.40625 9.625 
Q 42.625 4.78125 38.28125 2.390625 
Q 33.9375 0 27.875 0 
Q 17.828125 0 11.671875 7.65625 
Q 5.515625 15.328125 5.515625 27.984375 
Q 5.515625 40.671875 11.671875 48.328125 
Q 17.828125 56 27.875 56 
Q 33.9375 56 38.28125 53.609375 
Q 42.625 51.21875 45.40625 46.390625 
L 45.40625 54.6875 
L 54.390625 54.6875 
z
" id="DejaVuSans-103"/>
     </defs>
     <g transform="translate(380.724688 72.748562)scale(0.1 -0.1)">
      <use xlink:href="#DejaVuSans-105"/>
      <use x="27.783203" xlink:href="#DejaVuSans-109"/>
      <use x="125.195312" xlink:href="#DejaVuSans-97"/>
      <use x="186.474609" xlink:href="#DejaVuSans-103"/>
     </g>
    </g>
   </g>
  </g>
 </g>
 <defs>
  <clipPath id="pbd7cb3f30d">
   <rect height="266.112" width="357.12" x="57.6" y="41.472"/>
  </clipPath>
 </defs>
</svg>
