<?xml version="1.0" encoding="utf-8" standalone="no"?>
<!DOCTYPE svg PUBLIC "-//W3C//DTD SVG 1.1//EN"
  "http://www.w3.org/Graphics/SVG/1.1/DTD/svg11.dtd">
<!-- Created with matplotlib (https://matplotlib.org/) -->
<svg height="345.6pt" version="1.1" viewBox="0 0 460.8 345.6" width="460.8pt" xmlns="http://www.w3.org/2000/svg" xmlns:xlink="http://www.w3.org/1999/xlink">
 <defs>
  <style type="text/css">
*{stroke-linecap:butt;stroke-linejoin:round;}
  </style>
 </defs>
 <g id="figure_1">
  <g id="patch_1">
   <path d="M 0 345.6 
L 460.8 345.6 
L 460.8 0 
L 0 0 
z
" style="fill:#ffffff;"/>
  </g>
  <g id="axes_1">
   <g id="patch_2">
    <path d="M 57.6 307.584 
L 414.72 307.584 
L 414.72 41.472 
L 57.6 41.472 
z
" style="fill:#ffffff;"/>
   </g>
   <g id="PolyCollection_1">
    <defs>
     <path d="M 73.832727 -96.208676 
L 73.832727 -95.911241 
L 84.305455 -95.911241 
L 94.778182 -95.911241 
L 105.250909 -95.911241 
L 115.723636 -95.911241 
L 126.196364 -95.911241 
L 136.669091 -95.911241 
L 147.141818 -95.911241 
L 157.614545 -95.911241 
L 168.087273 -95.911241 
L 178.56 -95.911241 
L 189.032727 -95.911241 
L 199.505455 -95.911241 
L 209.978182 -95.911241 
L 220.450909 -95.911241 
L 230.923636 -95.911241 
L 241.396364 -95.911241 
L 251.869091 -95.911241 
L 262.341818 -95.911241 
L 272.814545 -95.911241 
L 283.287273 -95.911241 
L 293.76 -95.911241 
L 304.232727 -95.911241 
L 314.705455 -95.911241 
L 325.178182 -95.911241 
L 335.650909 -95.911241 
L 346.123636 -95.911241 
L 356.596364 -95.911241 
L 367.069091 -95.911241 
L 377.541818 -95.911241 
L 388.014545 -95.911241 
L 398.487273 -95.911241 
L 398.487273 -96.208676 
L 398.487273 -96.208676 
L 388.014545 -96.208676 
L 377.541818 -96.208676 
L 367.069091 -96.208676 
L 356.596364 -96.208676 
L 346.123636 -96.208676 
L 335.650909 -96.208676 
L 325.178182 -96.208676 
L 314.705455 -96.208676 
L 304.232727 -96.208676 
L 293.76 -96.208676 
L 283.287273 -96.208676 
L 272.814545 -96.208676 
L 262.341818 -96.208676 
L 251.869091 -96.208676 
L 241.396364 -96.208676 
L 230.923636 -96.208676 
L 220.450909 -96.208676 
L 209.978182 -96.208676 
L 199.505455 -96.208676 
L 189.032727 -96.208676 
L 178.56 -96.208676 
L 168.087273 -96.208676 
L 157.614545 -96.208676 
L 147.141818 -96.208676 
L 136.669091 -96.208676 
L 126.196364 -96.208676 
L 115.723636 -96.208676 
L 105.250909 -96.208676 
L 94.778182 -96.208676 
L 84.305455 -96.208676 
L 73.832727 -96.208676 
z
" id="m360210cea6" style="stroke:#808080;stroke-opacity:0.4;"/>
    </defs>
    <g clip-path="url(#p18f2ab824c)">
     <use style="fill:#808080;fill-opacity:0.4;stroke:#808080;stroke-opacity:0.4;" x="0" xlink:href="#m360210cea6" y="345.6"/>
    </g>
   </g>
   <g id="PolyCollection_2">
    <defs>
     <path d="M 84.305455 -149.76466 
L 84.305455 -149.469263 
L 94.778182 -149.469263 
L 105.250909 -149.469263 
L 115.723636 -149.469263 
L 126.196364 -149.469263 
L 136.669091 -149.469263 
L 147.141818 -149.469263 
L 157.614545 -149.469263 
L 168.087273 -149.469263 
L 178.56 -149.469263 
L 189.032727 -149.469263 
L 199.505455 -149.469263 
L 209.978182 -149.469263 
L 220.450909 -149.469263 
L 230.923636 -149.469263 
L 241.396364 -149.469263 
L 251.869091 -149.469263 
L 262.341818 -149.469263 
L 272.814545 -149.469263 
L 283.287273 -149.469263 
L 293.76 -149.469263 
L 304.232727 -149.469263 
L 314.705455 -149.469263 
L 325.178182 -149.469263 
L 335.650909 -149.469263 
L 346.123636 -149.469263 
L 356.596364 -149.469263 
L 367.069091 -149.469263 
L 377.541818 -149.469263 
L 388.014545 -149.469263 
L 398.487273 -149.469263 
L 398.487273 -149.76466 
L 398.487273 -149.76466 
L 388.014545 -149.76466 
L 377.541818 -149.76466 
L 367.069091 -149.76466 
L 356.596364 -149.76466 
L 346.123636 -149.76466 
L 335.650909 -149.76466 
L 325.178182 -149.76466 
L 314.705455 -149.76466 
L 304.232727 -149.76466 
L 293.76 -149.76466 
L 283.287273 -149.76466 
L 272.814545 -149.76466 
L 262.341818 -149.76466 
L 251.869091 -149.76466 
L 241.396364 -149.76466 
L 230.923636 -149.76466 
L 220.450909 -149.76466 
L 209.978182 -149.76466 
L 199.505455 -149.76466 
L 189.032727 -149.76466 
L 178.56 -149.76466 
L 168.087273 -149.76466 
L 157.614545 -149.76466 
L 147.141818 -149.76466 
L 136.669091 -149.76466 
L 126.196364 -149.76466 
L 115.723636 -149.76466 
L 105.250909 -149.76466 
L 94.778182 -149.76466 
L 84.305455 -149.76466 
z
" id="m16e98cbe2a" style="stroke:#ff6347;stroke-opacity:0.4;"/>
    </defs>
    <g clip-path="url(#p18f2ab824c)">
     <use style="fill:#ff6347;fill-opacity:0.4;stroke:#ff6347;stroke-opacity:0.4;" x="0" xlink:href="#m16e98cbe2a" y="345.6"/>
    </g>
   </g>
   <g id="PolyCollection_3">
    <defs>
     <path d="M 84.305455 -150.281057 
L 84.305455 -150.006218 
L 94.778182 -150.006218 
L 105.250909 -150.006218 
L 115.723636 -150.006218 
L 126.196364 -150.006218 
L 136.669091 -150.006218 
L 147.141818 -150.006218 
L 157.614545 -150.006218 
L 168.087273 -150.006218 
L 178.56 -150.006218 
L 189.032727 -150.006218 
L 199.505455 -150.006218 
L 209.978182 -150.006218 
L 220.450909 -150.006218 
L 230.923636 -150.006218 
L 241.396364 -150.006218 
L 251.869091 -150.006218 
L 262.341818 -150.006218 
L 272.814545 -150.006218 
L 283.287273 -150.006218 
L 293.76 -150.006218 
L 304.232727 -150.006218 
L 314.705455 -150.006218 
L 325.178182 -150.006218 
L 335.650909 -150.006218 
L 346.123636 -150.006218 
L 356.596364 -150.006218 
L 367.069091 -150.006218 
L 377.541818 -150.006218 
L 388.014545 -150.006218 
L 398.487273 -150.006218 
L 398.487273 -150.281057 
L 398.487273 -150.281057 
L 388.014545 -150.281057 
L 377.541818 -150.281057 
L 367.069091 -150.281057 
L 356.596364 -150.281057 
L 346.123636 -150.281057 
L 335.650909 -150.281057 
L 325.178182 -150.281057 
L 314.705455 -150.281057 
L 304.232727 -150.281057 
L 293.76 -150.281057 
L 283.287273 -150.281057 
L 272.814545 -150.281057 
L 262.341818 -150.281057 
L 251.869091 -150.281057 
L 241.396364 -150.281057 
L 230.923636 -150.281057 
L 220.450909 -150.281057 
L 209.978182 -150.281057 
L 199.505455 -150.281057 
L 189.032727 -150.281057 
L 178.56 -150.281057 
L 168.087273 -150.281057 
L 157.614545 -150.281057 
L 147.141818 -150.281057 
L 136.669091 -150.281057 
L 126.196364 -150.281057 
L 115.723636 -150.281057 
L 105.250909 -150.281057 
L 94.778182 -150.281057 
L 84.305455 -150.281057 
z
" id="me20a014a0f" style="stroke:#ff6347;stroke-opacity:0.4;"/>
    </defs>
    <g clip-path="url(#p18f2ab824c)">
     <use style="fill:#ff6347;fill-opacity:0.4;stroke:#ff6347;stroke-opacity:0.4;" x="0" xlink:href="#me20a014a0f" y="345.6"/>
    </g>
   </g>
   <g id="PolyCollection_4">
    <defs>
     <path d="M 84.305455 -64.443664 
L 84.305455 -64.137393 
L 94.778182 -64.137393 
L 105.250909 -64.137393 
L 115.723636 -64.137393 
L 126.196364 -64.137393 
L 136.669091 -64.137393 
L 147.141818 -64.137393 
L 157.614545 -64.137393 
L 168.087273 -64.137393 
L 178.56 -64.137393 
L 189.032727 -64.137393 
L 199.505455 -64.137393 
L 209.978182 -64.137393 
L 220.450909 -64.137393 
L 230.923636 -64.137393 
L 241.396364 -64.137393 
L 251.869091 -64.137393 
L 262.341818 -64.137393 
L 272.814545 -64.137393 
L 283.287273 -64.137393 
L 293.76 -64.137393 
L 304.232727 -64.137393 
L 314.705455 -64.137393 
L 325.178182 -64.137393 
L 335.650909 -64.137393 
L 346.123636 -64.137393 
L 356.596364 -64.137393 
L 367.069091 -64.137393 
L 377.541818 -64.137393 
L 388.014545 -64.137393 
L 398.487273 -64.137393 
L 398.487273 -64.443664 
L 398.487273 -64.443664 
L 388.014545 -64.443664 
L 377.541818 -64.443664 
L 367.069091 -64.443664 
L 356.596364 -64.443664 
L 346.123636 -64.443664 
L 335.650909 -64.443664 
L 325.178182 -64.443664 
L 314.705455 -64.443664 
L 304.232727 -64.443664 
L 293.76 -64.443664 
L 283.287273 -64.443664 
L 272.814545 -64.443664 
L 262.341818 -64.443664 
L 251.869091 -64.443664 
L 241.396364 -64.443664 
L 230.923636 -64.443664 
L 220.450909 -64.443664 
L 209.978182 -64.443664 
L 199.505455 -64.443664 
L 189.032727 -64.443664 
L 178.56 -64.443664 
L 168.087273 -64.443664 
L 157.614545 -64.443664 
L 147.141818 -64.443664 
L 136.669091 -64.443664 
L 126.196364 -64.443664 
L 115.723636 -64.443664 
L 105.250909 -64.443664 
L 94.778182 -64.443664 
L 84.305455 -64.443664 
z
" id="mb6dbabfadd" style="stroke:#ff6347;stroke-opacity:0.4;"/>
    </defs>
    <g clip-path="url(#p18f2ab824c)">
     <use style="fill:#ff6347;fill-opacity:0.4;stroke:#ff6347;stroke-opacity:0.4;" x="0" xlink:href="#mb6dbabfadd" y="345.6"/>
    </g>
   </g>
   <g id="matplotlib.axis_1">
    <g id="xtick_1">
     <g id="line2d_1">
      <defs>
       <path d="M 0 0 
L 0 3.5 
" id="m4f1c4862f9" style="stroke:#000000;stroke-width:0.8;"/>
      </defs>
      <g>
       <use style="stroke:#000000;stroke-width:0.8;" x="73.832727" xlink:href="#m4f1c4862f9" y="307.584"/>
      </g>
     </g>
     <g id="text_1">
      <!-- 0 -->
      <defs>
       <path d="M 31.78125 66.40625 
Q 24.171875 66.40625 20.328125 58.90625 
Q 16.5 51.421875 16.5 36.375 
Q 16.5 21.390625 20.328125 13.890625 
Q 24.171875 6.390625 31.78125 6.390625 
Q 39.453125 6.390625 43.28125 13.890625 
Q 47.125 21.390625 47.125 36.375 
Q 47.125 51.421875 43.28125 58.90625 
Q 39.453125 66.40625 31.78125 66.40625 
z
M 31.78125 74.21875 
Q 44.046875 74.21875 50.515625 64.515625 
Q 56.984375 54.828125 56.984375 36.375 
Q 56.984375 17.96875 50.515625 8.265625 
Q 44.046875 -1.421875 31.78125 -1.421875 
Q 19.53125 -1.421875 13.0625 8.265625 
Q 6.59375 17.96875 6.59375 36.375 
Q 6.59375 54.828125 13.0625 64.515625 
Q 19.53125 74.21875 31.78125 74.21875 
z
" id="DejaVuSans-48"/>
      </defs>
      <g transform="translate(70.651477 322.182437)scale(0.1 -0.1)">
       <use xlink:href="#DejaVuSans-48"/>
      </g>
     </g>
    </g>
    <g id="xtick_2">
     <g id="line2d_2">
      <g>
       <use style="stroke:#000000;stroke-width:0.8;" x="126.196364" xlink:href="#m4f1c4862f9" y="307.584"/>
      </g>
     </g>
     <g id="text_2">
      <!-- 5 -->
      <defs>
       <path d="M 10.796875 72.90625 
L 49.515625 72.90625 
L 49.515625 64.59375 
L 19.828125 64.59375 
L 19.828125 46.734375 
Q 21.96875 47.46875 24.109375 47.828125 
Q 26.265625 48.1875 28.421875 48.1875 
Q 40.625 48.1875 47.75 41.5 
Q 54.890625 34.8125 54.890625 23.390625 
Q 54.890625 11.625 47.5625 5.09375 
Q 40.234375 -1.421875 26.90625 -1.421875 
Q 22.3125 -1.421875 17.546875 -0.640625 
Q 12.796875 0.140625 7.71875 1.703125 
L 7.71875 11.625 
Q 12.109375 9.234375 16.796875 8.0625 
Q 21.484375 6.890625 26.703125 6.890625 
Q 35.15625 6.890625 40.078125 11.328125 
Q 45.015625 15.765625 45.015625 23.390625 
Q 45.015625 31 40.078125 35.4375 
Q 35.15625 39.890625 26.703125 39.890625 
Q 22.75 39.890625 18.8125 39.015625 
Q 14.890625 38.140625 10.796875 36.28125 
z
" id="DejaVuSans-53"/>
      </defs>
      <g transform="translate(123.015114 322.182437)scale(0.1 -0.1)">
       <use xlink:href="#DejaVuSans-53"/>
      </g>
     </g>
    </g>
    <g id="xtick_3">
     <g id="line2d_3">
      <g>
       <use style="stroke:#000000;stroke-width:0.8;" x="178.56" xlink:href="#m4f1c4862f9" y="307.584"/>
      </g>
     </g>
     <g id="text_3">
      <!-- 10 -->
      <defs>
       <path d="M 12.40625 8.296875 
L 28.515625 8.296875 
L 28.515625 63.921875 
L 10.984375 60.40625 
L 10.984375 69.390625 
L 28.421875 72.90625 
L 38.28125 72.90625 
L 38.28125 8.296875 
L 54.390625 8.296875 
L 54.390625 0 
L 12.40625 0 
z
" id="DejaVuSans-49"/>
      </defs>
      <g transform="translate(172.1975 322.182437)scale(0.1 -0.1)">
       <use xlink:href="#DejaVuSans-49"/>
       <use x="63.623047" xlink:href="#DejaVuSans-48"/>
      </g>
     </g>
    </g>
    <g id="xtick_4">
     <g id="line2d_4">
      <g>
       <use style="stroke:#000000;stroke-width:0.8;" x="230.923636" xlink:href="#m4f1c4862f9" y="307.584"/>
      </g>
     </g>
     <g id="text_4">
      <!-- 15 -->
      <g transform="translate(224.561136 322.182437)scale(0.1 -0.1)">
       <use xlink:href="#DejaVuSans-49"/>
       <use x="63.623047" xlink:href="#DejaVuSans-53"/>
      </g>
     </g>
    </g>
    <g id="xtick_5">
     <g id="line2d_5">
      <g>
       <use style="stroke:#000000;stroke-width:0.8;" x="283.287273" xlink:href="#m4f1c4862f9" y="307.584"/>
      </g>
     </g>
     <g id="text_5">
      <!-- 20 -->
      <defs>
       <path d="M 19.1875 8.296875 
L 53.609375 8.296875 
L 53.609375 0 
L 7.328125 0 
L 7.328125 8.296875 
Q 12.9375 14.109375 22.625 23.890625 
Q 32.328125 33.6875 34.8125 36.53125 
Q 39.546875 41.84375 41.421875 45.53125 
Q 43.3125 49.21875 43.3125 52.78125 
Q 43.3125 58.59375 39.234375 62.25 
Q 35.15625 65.921875 28.609375 65.921875 
Q 23.96875 65.921875 18.8125 64.3125 
Q 13.671875 62.703125 7.8125 59.421875 
L 7.8125 69.390625 
Q 13.765625 71.78125 18.9375 73 
Q 24.125 74.21875 28.421875 74.21875 
Q 39.75 74.21875 46.484375 68.546875 
Q 53.21875 62.890625 53.21875 53.421875 
Q 53.21875 48.921875 51.53125 44.890625 
Q 49.859375 40.875 45.40625 35.40625 
Q 44.1875 33.984375 37.640625 27.21875 
Q 31.109375 20.453125 19.1875 8.296875 
z
" id="DejaVuSans-50"/>
      </defs>
      <g transform="translate(276.924773 322.182437)scale(0.1 -0.1)">
       <use xlink:href="#DejaVuSans-50"/>
       <use x="63.623047" xlink:href="#DejaVuSans-48"/>
      </g>
     </g>
    </g>
    <g id="xtick_6">
     <g id="line2d_6">
      <g>
       <use style="stroke:#000000;stroke-width:0.8;" x="335.650909" xlink:href="#m4f1c4862f9" y="307.584"/>
      </g>
     </g>
     <g id="text_6">
      <!-- 25 -->
      <g transform="translate(329.288409 322.182437)scale(0.1 -0.1)">
       <use xlink:href="#DejaVuSans-50"/>
       <use x="63.623047" xlink:href="#DejaVuSans-53"/>
      </g>
     </g>
    </g>
    <g id="xtick_7">
     <g id="line2d_7">
      <g>
       <use style="stroke:#000000;stroke-width:0.8;" x="388.014545" xlink:href="#m4f1c4862f9" y="307.584"/>
      </g>
     </g>
     <g id="text_7">
      <!-- 30 -->
      <defs>
       <path d="M 40.578125 39.3125 
Q 47.65625 37.796875 51.625 33 
Q 55.609375 28.21875 55.609375 21.1875 
Q 55.609375 10.40625 48.1875 4.484375 
Q 40.765625 -1.421875 27.09375 -1.421875 
Q 22.515625 -1.421875 17.65625 -0.515625 
Q 12.796875 0.390625 7.625 2.203125 
L 7.625 11.71875 
Q 11.71875 9.328125 16.59375 8.109375 
Q 21.484375 6.890625 26.8125 6.890625 
Q 36.078125 6.890625 40.9375 10.546875 
Q 45.796875 14.203125 45.796875 21.1875 
Q 45.796875 27.640625 41.28125 31.265625 
Q 36.765625 34.90625 28.71875 34.90625 
L 20.21875 34.90625 
L 20.21875 43.015625 
L 29.109375 43.015625 
Q 36.375 43.015625 40.234375 45.921875 
Q 44.09375 48.828125 44.09375 54.296875 
Q 44.09375 59.90625 40.109375 62.90625 
Q 36.140625 65.921875 28.71875 65.921875 
Q 24.65625 65.921875 20.015625 65.03125 
Q 15.375 64.15625 9.8125 62.3125 
L 9.8125 71.09375 
Q 15.4375 72.65625 20.34375 73.4375 
Q 25.25 74.21875 29.59375 74.21875 
Q 40.828125 74.21875 47.359375 69.109375 
Q 53.90625 64.015625 53.90625 55.328125 
Q 53.90625 49.265625 50.4375 45.09375 
Q 46.96875 40.921875 40.578125 39.3125 
z
" id="DejaVuSans-51"/>
      </defs>
      <g transform="translate(381.652045 322.182437)scale(0.1 -0.1)">
       <use xlink:href="#DejaVuSans-51"/>
       <use x="63.623047" xlink:href="#DejaVuSans-48"/>
      </g>
     </g>
    </g>
   </g>
   <g id="matplotlib.axis_2">
    <g id="ytick_1">
     <g id="line2d_8">
      <defs>
       <path d="M 0 0 
L -3.5 0 
" id="madf7a25f4d" style="stroke:#000000;stroke-width:0.8;"/>
      </defs>
      <g>
       <use style="stroke:#000000;stroke-width:0.8;" x="57.6" xlink:href="#madf7a25f4d" y="295.488"/>
      </g>
     </g>
     <g id="text_8">
      <!-- 0.00 -->
      <defs>
       <path d="M 10.6875 12.40625 
L 21 12.40625 
L 21 0 
L 10.6875 0 
z
" id="DejaVuSans-46"/>
      </defs>
      <g transform="translate(28.334375 299.287219)scale(0.1 -0.1)">
       <use xlink:href="#DejaVuSans-48"/>
       <use x="63.623047" xlink:href="#DejaVuSans-46"/>
       <use x="95.410156" xlink:href="#DejaVuSans-48"/>
       <use x="159.033203" xlink:href="#DejaVuSans-48"/>
      </g>
     </g>
    </g>
    <g id="ytick_2">
     <g id="line2d_9">
      <g>
       <use style="stroke:#000000;stroke-width:0.8;" x="57.6" xlink:href="#madf7a25f4d" y="260.786062"/>
      </g>
     </g>
     <g id="text_9">
      <!-- 0.25 -->
      <g transform="translate(28.334375 264.585281)scale(0.1 -0.1)">
       <use xlink:href="#DejaVuSans-48"/>
       <use x="63.623047" xlink:href="#DejaVuSans-46"/>
       <use x="95.410156" xlink:href="#DejaVuSans-50"/>
       <use x="159.033203" xlink:href="#DejaVuSans-53"/>
      </g>
     </g>
    </g>
    <g id="ytick_3">
     <g id="line2d_10">
      <g>
       <use style="stroke:#000000;stroke-width:0.8;" x="57.6" xlink:href="#madf7a25f4d" y="226.084124"/>
      </g>
     </g>
     <g id="text_10">
      <!-- 0.50 -->
      <g transform="translate(28.334375 229.883343)scale(0.1 -0.1)">
       <use xlink:href="#DejaVuSans-48"/>
       <use x="63.623047" xlink:href="#DejaVuSans-46"/>
       <use x="95.410156" xlink:href="#DejaVuSans-53"/>
       <use x="159.033203" xlink:href="#DejaVuSans-48"/>
      </g>
     </g>
    </g>
    <g id="ytick_4">
     <g id="line2d_11">
      <g>
       <use style="stroke:#000000;stroke-width:0.8;" x="57.6" xlink:href="#madf7a25f4d" y="191.382186"/>
      </g>
     </g>
     <g id="text_11">
      <!-- 0.75 -->
      <defs>
       <path d="M 8.203125 72.90625 
L 55.078125 72.90625 
L 55.078125 68.703125 
L 28.609375 0 
L 18.3125 0 
L 43.21875 64.59375 
L 8.203125 64.59375 
z
" id="DejaVuSans-55"/>
      </defs>
      <g transform="translate(28.334375 195.181405)scale(0.1 -0.1)">
       <use xlink:href="#DejaVuSans-48"/>
       <use x="63.623047" xlink:href="#DejaVuSans-46"/>
       <use x="95.410156" xlink:href="#DejaVuSans-55"/>
       <use x="159.033203" xlink:href="#DejaVuSans-53"/>
      </g>
     </g>
    </g>
    <g id="ytick_5">
     <g id="line2d_12">
      <g>
       <use style="stroke:#000000;stroke-width:0.8;" x="57.6" xlink:href="#madf7a25f4d" y="156.680248"/>
      </g>
     </g>
     <g id="text_12">
      <!-- 1.00 -->
      <g transform="translate(28.334375 160.479467)scale(0.1 -0.1)">
       <use xlink:href="#DejaVuSans-49"/>
       <use x="63.623047" xlink:href="#DejaVuSans-46"/>
       <use x="95.410156" xlink:href="#DejaVuSans-48"/>
       <use x="159.033203" xlink:href="#DejaVuSans-48"/>
      </g>
     </g>
    </g>
    <g id="ytick_6">
     <g id="line2d_13">
      <g>
       <use style="stroke:#000000;stroke-width:0.8;" x="57.6" xlink:href="#madf7a25f4d" y="121.978311"/>
      </g>
     </g>
     <g id="text_13">
      <!-- 1.25 -->
      <g transform="translate(28.334375 125.777529)scale(0.1 -0.1)">
       <use xlink:href="#DejaVuSans-49"/>
       <use x="63.623047" xlink:href="#DejaVuSans-46"/>
       <use x="95.410156" xlink:href="#DejaVuSans-50"/>
       <use x="159.033203" xlink:href="#DejaVuSans-53"/>
      </g>
     </g>
    </g>
    <g id="ytick_7">
     <g id="line2d_14">
      <g>
       <use style="stroke:#000000;stroke-width:0.8;" x="57.6" xlink:href="#madf7a25f4d" y="87.276373"/>
      </g>
     </g>
     <g id="text_14">
      <!-- 1.50 -->
      <g transform="translate(28.334375 91.075591)scale(0.1 -0.1)">
       <use xlink:href="#DejaVuSans-49"/>
       <use x="63.623047" xlink:href="#DejaVuSans-46"/>
       <use x="95.410156" xlink:href="#DejaVuSans-53"/>
       <use x="159.033203" xlink:href="#DejaVuSans-48"/>
      </g>
     </g>
    </g>
    <g id="ytick_8">
     <g id="line2d_15">
      <g>
       <use style="stroke:#000000;stroke-width:0.8;" x="57.6" xlink:href="#madf7a25f4d" y="52.574435"/>
      </g>
     </g>
     <g id="text_15">
      <!-- 1.75 -->
      <g transform="translate(28.334375 56.373654)scale(0.1 -0.1)">
       <use xlink:href="#DejaVuSans-49"/>
       <use x="63.623047" xlink:href="#DejaVuSans-46"/>
       <use x="95.410156" xlink:href="#DejaVuSans-55"/>
       <use x="159.033203" xlink:href="#DejaVuSans-53"/>
      </g>
     </g>
    </g>
   </g>
   <g id="LineCollection_1">
    <path clip-path="url(#p18f2ab824c)" d="M 73.832727 295.488 
L 73.832727 295.488 
" style="fill:none;stroke:#000000;stroke-width:1.5;"/>
    <path clip-path="url(#p18f2ab824c)" d="M 84.305455 68.746934 
L 84.305455 68.135763 
" style="fill:none;stroke:#000000;stroke-width:1.5;"/>
    <path clip-path="url(#p18f2ab824c)" d="M 94.778182 111.865933 
L 94.778182 111.352497 
" style="fill:none;stroke:#000000;stroke-width:1.5;"/>
    <path clip-path="url(#p18f2ab824c)" d="M 105.250909 143.258876 
L 105.250909 142.817759 
" style="fill:none;stroke:#000000;stroke-width:1.5;"/>
    <path clip-path="url(#p18f2ab824c)" d="M 115.723636 163.385151 
L 115.723636 162.873654 
" style="fill:none;stroke:#000000;stroke-width:1.5;"/>
    <path clip-path="url(#p18f2ab824c)" d="M 126.196364 175.322973 
L 126.196364 174.91442 
" style="fill:none;stroke:#000000;stroke-width:1.5;"/>
    <path clip-path="url(#p18f2ab824c)" d="M 136.669091 182.407531 
L 136.669091 182.077457 
" style="fill:none;stroke:#000000;stroke-width:1.5;"/>
    <path clip-path="url(#p18f2ab824c)" d="M 147.141818 187.206855 
L 147.141818 186.885173 
" style="fill:none;stroke:#000000;stroke-width:1.5;"/>
    <path clip-path="url(#p18f2ab824c)" d="M 157.614545 190.385777 
L 157.614545 190.057585 
" style="fill:none;stroke:#000000;stroke-width:1.5;"/>
    <path clip-path="url(#p18f2ab824c)" d="M 168.087273 192.698959 
L 168.087273 192.364057 
" style="fill:none;stroke:#000000;stroke-width:1.5;"/>
    <path clip-path="url(#p18f2ab824c)" d="M 178.56 194.395043 
L 178.56 194.088248 
" style="fill:none;stroke:#000000;stroke-width:1.5;"/>
    <path clip-path="url(#p18f2ab824c)" d="M 189.032727 195.615752 
L 189.032727 195.326566 
" style="fill:none;stroke:#000000;stroke-width:1.5;"/>
    <path clip-path="url(#p18f2ab824c)" d="M 199.505455 196.516137 
L 199.505455 196.224442 
" style="fill:none;stroke:#000000;stroke-width:1.5;"/>
    <path clip-path="url(#p18f2ab824c)" d="M 209.978182 197.325953 
L 209.978182 197.039389 
" style="fill:none;stroke:#000000;stroke-width:1.5;"/>
    <path clip-path="url(#p18f2ab824c)" d="M 220.450909 197.760484 
L 220.450909 197.474861 
" style="fill:none;stroke:#000000;stroke-width:1.5;"/>
    <path clip-path="url(#p18f2ab824c)" d="M 230.923636 198.08124 
L 230.923636 197.797692 
" style="fill:none;stroke:#000000;stroke-width:1.5;"/>
    <path clip-path="url(#p18f2ab824c)" d="M 241.396364 198.407969 
L 241.396364 198.125593 
" style="fill:none;stroke:#000000;stroke-width:1.5;"/>
    <path clip-path="url(#p18f2ab824c)" d="M 251.869091 198.602733 
L 251.869091 198.286482 
" style="fill:none;stroke:#000000;stroke-width:1.5;"/>
    <path clip-path="url(#p18f2ab824c)" d="M 262.341818 198.817954 
L 262.341818 198.444369 
" style="fill:none;stroke:#000000;stroke-width:1.5;"/>
    <path clip-path="url(#p18f2ab824c)" d="M 272.814545 199.048427 
L 272.814545 198.652255 
" style="fill:none;stroke:#000000;stroke-width:1.5;"/>
    <path clip-path="url(#p18f2ab824c)" d="M 283.287273 199.142627 
L 283.287273 198.763819 
" style="fill:none;stroke:#000000;stroke-width:1.5;"/>
    <path clip-path="url(#p18f2ab824c)" d="M 293.76 199.209591 
L 293.76 198.837925 
" style="fill:none;stroke:#000000;stroke-width:1.5;"/>
    <path clip-path="url(#p18f2ab824c)" d="M 304.232727 199.278974 
L 304.232727 198.928756 
" style="fill:none;stroke:#000000;stroke-width:1.5;"/>
    <path clip-path="url(#p18f2ab824c)" d="M 314.705455 199.274884 
L 314.705455 198.925677 
" style="fill:none;stroke:#000000;stroke-width:1.5;"/>
    <path clip-path="url(#p18f2ab824c)" d="M 325.178182 199.347796 
L 325.178182 199.027054 
" style="fill:none;stroke:#000000;stroke-width:1.5;"/>
    <path clip-path="url(#p18f2ab824c)" d="M 335.650909 199.329395 
L 335.650909 199.014827 
" style="fill:none;stroke:#000000;stroke-width:1.5;"/>
    <path clip-path="url(#p18f2ab824c)" d="M 346.123636 199.612466 
L 346.123636 199.266992 
" style="fill:none;stroke:#000000;stroke-width:1.5;"/>
    <path clip-path="url(#p18f2ab824c)" d="M 356.596364 200.046478 
L 356.596364 199.680181 
" style="fill:none;stroke:#000000;stroke-width:1.5;"/>
    <path clip-path="url(#p18f2ab824c)" d="M 367.069091 201.415965 
L 367.069091 201.029624 
" style="fill:none;stroke:#000000;stroke-width:1.5;"/>
    <path clip-path="url(#p18f2ab824c)" d="M 377.541818 206.31516 
L 377.541818 205.867957 
" style="fill:none;stroke:#000000;stroke-width:1.5;"/>
    <path clip-path="url(#p18f2ab824c)" d="M 388.014545 222.707868 
L 388.014545 222.269917 
" style="fill:none;stroke:#000000;stroke-width:1.5;"/>
   </g>
   <g id="LineCollection_2">
    <path clip-path="url(#p18f2ab824c)" d="M 73.832727 295.488 
L 73.832727 295.488 
" style="fill:none;stroke:#ff0000;stroke-width:1.5;"/>
    <path clip-path="url(#p18f2ab824c)" d="M 84.305455 54.494575 
L 84.305455 53.775159 
" style="fill:none;stroke:#ff0000;stroke-width:1.5;"/>
    <path clip-path="url(#p18f2ab824c)" d="M 94.778182 100.840364 
L 94.778182 100.166061 
" style="fill:none;stroke:#ff0000;stroke-width:1.5;"/>
    <path clip-path="url(#p18f2ab824c)" d="M 105.250909 135.880366 
L 105.250909 135.345966 
" style="fill:none;stroke:#ff0000;stroke-width:1.5;"/>
    <path clip-path="url(#p18f2ab824c)" d="M 115.723636 158.658842 
L 115.723636 158.055163 
" style="fill:none;stroke:#ff0000;stroke-width:1.5;"/>
    <path clip-path="url(#p18f2ab824c)" d="M 126.196364 171.828179 
L 126.196364 171.354056 
" style="fill:none;stroke:#ff0000;stroke-width:1.5;"/>
    <path clip-path="url(#p18f2ab824c)" d="M 136.669091 179.601427 
L 136.669091 179.236858 
" style="fill:none;stroke:#ff0000;stroke-width:1.5;"/>
    <path clip-path="url(#p18f2ab824c)" d="M 147.141818 184.923427 
L 147.141818 184.552701 
" style="fill:none;stroke:#ff0000;stroke-width:1.5;"/>
    <path clip-path="url(#p18f2ab824c)" d="M 157.614545 188.130799 
L 157.614545 187.772236 
" style="fill:none;stroke:#ff0000;stroke-width:1.5;"/>
    <path clip-path="url(#p18f2ab824c)" d="M 168.087273 190.467441 
L 168.087273 190.147137 
" style="fill:none;stroke:#ff0000;stroke-width:1.5;"/>
    <path clip-path="url(#p18f2ab824c)" d="M 178.56 192.256324 
L 178.56 191.926081 
" style="fill:none;stroke:#ff0000;stroke-width:1.5;"/>
    <path clip-path="url(#p18f2ab824c)" d="M 189.032727 193.508414 
L 189.032727 193.174634 
" style="fill:none;stroke:#ff0000;stroke-width:1.5;"/>
    <path clip-path="url(#p18f2ab824c)" d="M 199.505455 194.4169 
L 199.505455 194.066739 
" style="fill:none;stroke:#ff0000;stroke-width:1.5;"/>
    <path clip-path="url(#p18f2ab824c)" d="M 209.978182 195.38208 
L 209.978182 195.037425 
" style="fill:none;stroke:#ff0000;stroke-width:1.5;"/>
    <path clip-path="url(#p18f2ab824c)" d="M 220.450909 195.860606 
L 220.450909 195.52653 
" style="fill:none;stroke:#ff0000;stroke-width:1.5;"/>
    <path clip-path="url(#p18f2ab824c)" d="M 230.923636 196.18391 
L 230.923636 195.858133 
" style="fill:none;stroke:#ff0000;stroke-width:1.5;"/>
    <path clip-path="url(#p18f2ab824c)" d="M 241.396364 196.520315 
L 241.396364 196.168917 
" style="fill:none;stroke:#ff0000;stroke-width:1.5;"/>
    <path clip-path="url(#p18f2ab824c)" d="M 251.869091 196.758338 
L 251.869091 196.359011 
" style="fill:none;stroke:#ff0000;stroke-width:1.5;"/>
    <path clip-path="url(#p18f2ab824c)" d="M 262.341818 196.957574 
L 262.341818 196.502151 
" style="fill:none;stroke:#ff0000;stroke-width:1.5;"/>
    <path clip-path="url(#p18f2ab824c)" d="M 272.814545 197.232506 
L 272.814545 196.765086 
" style="fill:none;stroke:#ff0000;stroke-width:1.5;"/>
    <path clip-path="url(#p18f2ab824c)" d="M 283.287273 197.284705 
L 283.287273 196.846437 
" style="fill:none;stroke:#ff0000;stroke-width:1.5;"/>
    <path clip-path="url(#p18f2ab824c)" d="M 293.76 197.368482 
L 293.76 196.929156 
" style="fill:none;stroke:#ff0000;stroke-width:1.5;"/>
    <path clip-path="url(#p18f2ab824c)" d="M 304.232727 197.298499 
L 304.232727 196.904361 
" style="fill:none;stroke:#ff0000;stroke-width:1.5;"/>
    <path clip-path="url(#p18f2ab824c)" d="M 314.705455 197.395076 
L 314.705455 196.974456 
" style="fill:none;stroke:#ff0000;stroke-width:1.5;"/>
    <path clip-path="url(#p18f2ab824c)" d="M 325.178182 197.464314 
L 325.178182 197.04758 
" style="fill:none;stroke:#ff0000;stroke-width:1.5;"/>
    <path clip-path="url(#p18f2ab824c)" d="M 335.650909 197.539824 
L 335.650909 197.117373 
" style="fill:none;stroke:#ff0000;stroke-width:1.5;"/>
    <path clip-path="url(#p18f2ab824c)" d="M 346.123636 197.879447 
L 346.123636 197.432487 
" style="fill:none;stroke:#ff0000;stroke-width:1.5;"/>
    <path clip-path="url(#p18f2ab824c)" d="M 356.596364 198.253224 
L 356.596364 197.769826 
" style="fill:none;stroke:#ff0000;stroke-width:1.5;"/>
    <path clip-path="url(#p18f2ab824c)" d="M 367.069091 199.566875 
L 367.069091 199.051217 
" style="fill:none;stroke:#ff0000;stroke-width:1.5;"/>
    <path clip-path="url(#p18f2ab824c)" d="M 377.541818 204.400368 
L 377.541818 203.793248 
" style="fill:none;stroke:#ff0000;stroke-width:1.5;"/>
    <path clip-path="url(#p18f2ab824c)" d="M 388.014545 220.818414 
L 388.014545 220.217546 
" style="fill:none;stroke:#ff0000;stroke-width:1.5;"/>
   </g>
   <g id="LineCollection_3">
    <path clip-path="url(#p18f2ab824c)" d="M 73.832727 295.488 
L 73.832727 295.488 
" style="fill:none;stroke:#ff0000;stroke-width:1.5;"/>
    <path clip-path="url(#p18f2ab824c)" d="M 84.305455 54.332932 
L 84.305455 53.594839 
" style="fill:none;stroke:#ff0000;stroke-width:1.5;"/>
    <path clip-path="url(#p18f2ab824c)" d="M 94.778182 101.031169 
L 94.778182 100.334241 
" style="fill:none;stroke:#ff0000;stroke-width:1.5;"/>
    <path clip-path="url(#p18f2ab824c)" d="M 105.250909 136.255747 
L 105.250909 135.664518 
" style="fill:none;stroke:#ff0000;stroke-width:1.5;"/>
    <path clip-path="url(#p18f2ab824c)" d="M 115.723636 158.978976 
L 115.723636 158.370415 
" style="fill:none;stroke:#ff0000;stroke-width:1.5;"/>
    <path clip-path="url(#p18f2ab824c)" d="M 126.196364 172.230094 
L 126.196364 171.768041 
" style="fill:none;stroke:#ff0000;stroke-width:1.5;"/>
    <path clip-path="url(#p18f2ab824c)" d="M 136.669091 179.799135 
L 136.669091 179.394379 
" style="fill:none;stroke:#ff0000;stroke-width:1.5;"/>
    <path clip-path="url(#p18f2ab824c)" d="M 147.141818 184.900563 
L 147.141818 184.50194 
" style="fill:none;stroke:#ff0000;stroke-width:1.5;"/>
    <path clip-path="url(#p18f2ab824c)" d="M 157.614545 188.210244 
L 157.614545 187.825468 
" style="fill:none;stroke:#ff0000;stroke-width:1.5;"/>
    <path clip-path="url(#p18f2ab824c)" d="M 168.087273 190.576176 
L 168.087273 190.173705 
" style="fill:none;stroke:#ff0000;stroke-width:1.5;"/>
    <path clip-path="url(#p18f2ab824c)" d="M 178.56 192.298619 
L 178.56 191.94518 
" style="fill:none;stroke:#ff0000;stroke-width:1.5;"/>
    <path clip-path="url(#p18f2ab824c)" d="M 189.032727 193.577278 
L 189.032727 193.231769 
" style="fill:none;stroke:#ff0000;stroke-width:1.5;"/>
    <path clip-path="url(#p18f2ab824c)" d="M 199.505455 194.376389 
L 199.505455 194.013957 
" style="fill:none;stroke:#ff0000;stroke-width:1.5;"/>
    <path clip-path="url(#p18f2ab824c)" d="M 209.978182 195.227291 
L 209.978182 194.848176 
" style="fill:none;stroke:#ff0000;stroke-width:1.5;"/>
    <path clip-path="url(#p18f2ab824c)" d="M 220.450909 195.738588 
L 220.450909 195.37272 
" style="fill:none;stroke:#ff0000;stroke-width:1.5;"/>
    <path clip-path="url(#p18f2ab824c)" d="M 230.923636 196.111184 
L 230.923636 195.741667 
" style="fill:none;stroke:#ff0000;stroke-width:1.5;"/>
    <path clip-path="url(#p18f2ab824c)" d="M 241.396364 196.480849 
L 241.396364 196.102059 
" style="fill:none;stroke:#ff0000;stroke-width:1.5;"/>
    <path clip-path="url(#p18f2ab824c)" d="M 251.869091 196.701856 
L 251.869091 196.281593 
" style="fill:none;stroke:#ff0000;stroke-width:1.5;"/>
    <path clip-path="url(#p18f2ab824c)" d="M 262.341818 196.974641 
L 262.341818 196.500632 
" style="fill:none;stroke:#ff0000;stroke-width:1.5;"/>
    <path clip-path="url(#p18f2ab824c)" d="M 272.814545 197.107405 
L 272.814545 196.640034 
" style="fill:none;stroke:#ff0000;stroke-width:1.5;"/>
    <path clip-path="url(#p18f2ab824c)" d="M 283.287273 197.226617 
L 283.287273 196.790618 
" style="fill:none;stroke:#ff0000;stroke-width:1.5;"/>
    <path clip-path="url(#p18f2ab824c)" d="M 293.76 197.278542 
L 293.76 196.881049 
" style="fill:none;stroke:#ff0000;stroke-width:1.5;"/>
    <path clip-path="url(#p18f2ab824c)" d="M 304.232727 197.362764 
L 304.232727 196.975185 
" style="fill:none;stroke:#ff0000;stroke-width:1.5;"/>
    <path clip-path="url(#p18f2ab824c)" d="M 314.705455 197.423819 
L 314.705455 197.008554 
" style="fill:none;stroke:#ff0000;stroke-width:1.5;"/>
    <path clip-path="url(#p18f2ab824c)" d="M 325.178182 197.524973 
L 325.178182 197.125739 
" style="fill:none;stroke:#ff0000;stroke-width:1.5;"/>
    <path clip-path="url(#p18f2ab824c)" d="M 335.650909 197.583832 
L 335.650909 197.176486 
" style="fill:none;stroke:#ff0000;stroke-width:1.5;"/>
    <path clip-path="url(#p18f2ab824c)" d="M 346.123636 197.992017 
L 346.123636 197.560279 
" style="fill:none;stroke:#ff0000;stroke-width:1.5;"/>
    <path clip-path="url(#p18f2ab824c)" d="M 356.596364 198.388227 
L 356.596364 197.926536 
" style="fill:none;stroke:#ff0000;stroke-width:1.5;"/>
    <path clip-path="url(#p18f2ab824c)" d="M 367.069091 199.664808 
L 367.069091 199.149271 
" style="fill:none;stroke:#ff0000;stroke-width:1.5;"/>
    <path clip-path="url(#p18f2ab824c)" d="M 377.541818 204.589819 
L 377.541818 203.989365 
" style="fill:none;stroke:#ff0000;stroke-width:1.5;"/>
    <path clip-path="url(#p18f2ab824c)" d="M 388.014545 220.986057 
L 388.014545 220.387979 
" style="fill:none;stroke:#ff0000;stroke-width:1.5;"/>
   </g>
   <g id="LineCollection_4">
    <path clip-path="url(#p18f2ab824c)" d="M 73.832727 295.488 
L 73.832727 295.488 
" style="fill:none;stroke:#ff0000;stroke-width:1.5;"/>
    <path clip-path="url(#p18f2ab824c)" d="M 84.305455 54.335062 
L 84.305455 53.568 
" style="fill:none;stroke:#ff0000;stroke-width:1.5;"/>
    <path clip-path="url(#p18f2ab824c)" d="M 94.778182 100.937495 
L 94.778182 100.254438 
" style="fill:none;stroke:#ff0000;stroke-width:1.5;"/>
    <path clip-path="url(#p18f2ab824c)" d="M 105.250909 135.986361 
L 105.250909 135.433104 
" style="fill:none;stroke:#ff0000;stroke-width:1.5;"/>
    <path clip-path="url(#p18f2ab824c)" d="M 115.723636 158.719441 
L 115.723636 158.104756 
" style="fill:none;stroke:#ff0000;stroke-width:1.5;"/>
    <path clip-path="url(#p18f2ab824c)" d="M 126.196364 172.006094 
L 126.196364 171.530194 
" style="fill:none;stroke:#ff0000;stroke-width:1.5;"/>
    <path clip-path="url(#p18f2ab824c)" d="M 136.669091 179.667829 
L 136.669091 179.266996 
" style="fill:none;stroke:#ff0000;stroke-width:1.5;"/>
    <path clip-path="url(#p18f2ab824c)" d="M 147.141818 184.965367 
L 147.141818 184.591158 
" style="fill:none;stroke:#ff0000;stroke-width:1.5;"/>
    <path clip-path="url(#p18f2ab824c)" d="M 157.614545 188.22204 
L 157.614545 187.826882 
" style="fill:none;stroke:#ff0000;stroke-width:1.5;"/>
    <path clip-path="url(#p18f2ab824c)" d="M 168.087273 190.602862 
L 168.087273 190.239034 
" style="fill:none;stroke:#ff0000;stroke-width:1.5;"/>
    <path clip-path="url(#p18f2ab824c)" d="M 178.56 192.290657 
L 178.56 191.96659 
" style="fill:none;stroke:#ff0000;stroke-width:1.5;"/>
    <path clip-path="url(#p18f2ab824c)" d="M 189.032727 193.473652 
L 189.032727 193.15567 
" style="fill:none;stroke:#ff0000;stroke-width:1.5;"/>
    <path clip-path="url(#p18f2ab824c)" d="M 199.505455 194.485962 
L 199.505455 194.138182 
" style="fill:none;stroke:#ff0000;stroke-width:1.5;"/>
    <path clip-path="url(#p18f2ab824c)" d="M 209.978182 195.377245 
L 209.978182 195.010409 
" style="fill:none;stroke:#ff0000;stroke-width:1.5;"/>
    <path clip-path="url(#p18f2ab824c)" d="M 220.450909 195.923702 
L 220.450909 195.551306 
" style="fill:none;stroke:#ff0000;stroke-width:1.5;"/>
    <path clip-path="url(#p18f2ab824c)" d="M 230.923636 196.272868 
L 230.923636 195.914507 
" style="fill:none;stroke:#ff0000;stroke-width:1.5;"/>
    <path clip-path="url(#p18f2ab824c)" d="M 241.396364 196.640715 
L 241.396364 196.267162 
" style="fill:none;stroke:#ff0000;stroke-width:1.5;"/>
    <path clip-path="url(#p18f2ab824c)" d="M 251.869091 196.83056 
L 251.869091 196.410251 
" style="fill:none;stroke:#ff0000;stroke-width:1.5;"/>
    <path clip-path="url(#p18f2ab824c)" d="M 262.341818 197.04139 
L 262.341818 196.572821 
" style="fill:none;stroke:#ff0000;stroke-width:1.5;"/>
    <path clip-path="url(#p18f2ab824c)" d="M 272.814545 197.228874 
L 272.814545 196.746517 
" style="fill:none;stroke:#ff0000;stroke-width:1.5;"/>
    <path clip-path="url(#p18f2ab824c)" d="M 283.287273 197.352174 
L 283.287273 196.907874 
" style="fill:none;stroke:#ff0000;stroke-width:1.5;"/>
    <path clip-path="url(#p18f2ab824c)" d="M 293.76 197.341008 
L 293.76 196.90497 
" style="fill:none;stroke:#ff0000;stroke-width:1.5;"/>
    <path clip-path="url(#p18f2ab824c)" d="M 304.232727 197.37289 
L 304.232727 196.948611 
" style="fill:none;stroke:#ff0000;stroke-width:1.5;"/>
    <path clip-path="url(#p18f2ab824c)" d="M 314.705455 197.374511 
L 314.705455 196.955671 
" style="fill:none;stroke:#ff0000;stroke-width:1.5;"/>
    <path clip-path="url(#p18f2ab824c)" d="M 325.178182 197.483541 
L 325.178182 197.089514 
" style="fill:none;stroke:#ff0000;stroke-width:1.5;"/>
    <path clip-path="url(#p18f2ab824c)" d="M 335.650909 197.559722 
L 335.650909 197.172811 
" style="fill:none;stroke:#ff0000;stroke-width:1.5;"/>
    <path clip-path="url(#p18f2ab824c)" d="M 346.123636 197.932352 
L 346.123636 197.515526 
" style="fill:none;stroke:#ff0000;stroke-width:1.5;"/>
    <path clip-path="url(#p18f2ab824c)" d="M 356.596364 198.318759 
L 356.596364 197.857636 
" style="fill:none;stroke:#ff0000;stroke-width:1.5;"/>
    <path clip-path="url(#p18f2ab824c)" d="M 367.069091 199.617844 
L 367.069091 199.120864 
" style="fill:none;stroke:#ff0000;stroke-width:1.5;"/>
    <path clip-path="url(#p18f2ab824c)" d="M 377.541818 204.361567 
L 377.541818 203.760429 
" style="fill:none;stroke:#ff0000;stroke-width:1.5;"/>
    <path clip-path="url(#p18f2ab824c)" d="M 388.014545 220.746556 
L 388.014545 220.153781 
" style="fill:none;stroke:#ff0000;stroke-width:1.5;"/>
   </g>
   <g id="line2d_16">
    <path clip-path="url(#p18f2ab824c)" d="M 73.832727 249.540041 
L 84.305455 249.540041 
L 94.778182 249.540041 
L 105.250909 249.540041 
L 115.723636 249.540041 
L 126.196364 249.540041 
L 136.669091 249.540041 
L 147.141818 249.540041 
L 157.614545 249.540041 
L 168.087273 249.540041 
L 178.56 249.540041 
L 189.032727 249.540041 
L 199.505455 249.540041 
L 209.978182 249.540041 
L 220.450909 249.540041 
L 230.923636 249.540041 
L 241.396364 249.540041 
L 251.869091 249.540041 
L 262.341818 249.540041 
L 272.814545 249.540041 
L 283.287273 249.540041 
L 293.76 249.540041 
L 304.232727 249.540041 
L 314.705455 249.540041 
L 325.178182 249.540041 
L 335.650909 249.540041 
L 346.123636 249.540041 
L 356.596364 249.540041 
L 367.069091 249.540041 
L 377.541818 249.540041 
L 388.014545 249.540041 
L 398.487273 249.540041 
" style="fill:none;stroke:#000000;stroke-linecap:square;stroke-width:1.5;"/>
   </g>
   <g id="line2d_17">
    <path clip-path="url(#p18f2ab824c)" d="M 84.305455 195.983039 
L 94.778182 195.983039 
L 105.250909 195.983039 
L 115.723636 195.983039 
L 126.196364 195.983039 
L 136.669091 195.983039 
L 147.141818 195.983039 
L 157.614545 195.983039 
L 168.087273 195.983039 
L 178.56 195.983039 
L 189.032727 195.983039 
L 199.505455 195.983039 
L 209.978182 195.983039 
L 220.450909 195.983039 
L 230.923636 195.983039 
L 241.396364 195.983039 
L 251.869091 195.983039 
L 262.341818 195.983039 
L 272.814545 195.983039 
L 283.287273 195.983039 
L 293.76 195.983039 
L 304.232727 195.983039 
L 314.705455 195.983039 
L 325.178182 195.983039 
L 335.650909 195.983039 
L 346.123636 195.983039 
L 356.596364 195.983039 
L 367.069091 195.983039 
L 377.541818 195.983039 
L 388.014545 195.983039 
L 398.487273 195.983039 
" style="fill:none;stroke:#ff0000;stroke-linecap:square;stroke-width:1.5;"/>
   </g>
   <g id="line2d_18">
    <path clip-path="url(#p18f2ab824c)" d="M 84.305455 195.456363 
L 94.778182 195.456363 
L 105.250909 195.456363 
L 115.723636 195.456363 
L 126.196364 195.456363 
L 136.669091 195.456363 
L 147.141818 195.456363 
L 157.614545 195.456363 
L 168.087273 195.456363 
L 178.56 195.456363 
L 189.032727 195.456363 
L 199.505455 195.456363 
L 209.978182 195.456363 
L 220.450909 195.456363 
L 230.923636 195.456363 
L 241.396364 195.456363 
L 251.869091 195.456363 
L 262.341818 195.456363 
L 272.814545 195.456363 
L 283.287273 195.456363 
L 293.76 195.456363 
L 304.232727 195.456363 
L 314.705455 195.456363 
L 325.178182 195.456363 
L 335.650909 195.456363 
L 346.123636 195.456363 
L 356.596364 195.456363 
L 367.069091 195.456363 
L 377.541818 195.456363 
L 388.014545 195.456363 
L 398.487273 195.456363 
" style="fill:none;stroke:#ff0000;stroke-linecap:square;stroke-width:1.5;"/>
   </g>
   <g id="line2d_19">
    <path clip-path="url(#p18f2ab824c)" d="M 84.305455 281.309471 
L 94.778182 281.309471 
L 105.250909 281.309471 
L 115.723636 281.309471 
L 126.196364 281.309471 
L 136.669091 281.309471 
L 147.141818 281.309471 
L 157.614545 281.309471 
L 168.087273 281.309471 
L 178.56 281.309471 
L 189.032727 281.309471 
L 199.505455 281.309471 
L 209.978182 281.309471 
L 220.450909 281.309471 
L 230.923636 281.309471 
L 241.396364 281.309471 
L 251.869091 281.309471 
L 262.341818 281.309471 
L 272.814545 281.309471 
L 283.287273 281.309471 
L 293.76 281.309471 
L 304.232727 281.309471 
L 314.705455 281.309471 
L 325.178182 281.309471 
L 335.650909 281.309471 
L 346.123636 281.309471 
L 356.596364 281.309471 
L 367.069091 281.309471 
L 377.541818 281.309471 
L 388.014545 281.309471 
L 398.487273 281.309471 
" style="fill:none;stroke:#ff0000;stroke-linecap:square;stroke-width:1.5;"/>
   </g>
   <g id="line2d_20">
    <defs>
     <path d="M 0 3 
C 0.795609 3 1.55874 2.683901 2.12132 2.12132 
C 2.683901 1.55874 3 0.795609 3 0 
C 3 -0.795609 2.683901 -1.55874 2.12132 -2.12132 
C 1.55874 -2.683901 0.795609 -3 0 -3 
C -0.795609 -3 -1.55874 -2.683901 -2.12132 -2.12132 
C -2.683901 -1.55874 -3 -0.795609 -3 0 
C -3 0.795609 -2.683901 1.55874 -2.12132 2.12132 
C -1.55874 2.683901 -0.795609 3 0 3 
z
" id="m657e546e17" style="stroke:#000000;"/>
    </defs>
    <g clip-path="url(#p18f2ab824c)">
     <use style="fill-opacity:0;stroke:#000000;" x="73.832727" xlink:href="#m657e546e17" y="295.488"/>
     <use style="fill-opacity:0;stroke:#000000;" x="84.305455" xlink:href="#m657e546e17" y="68.441348"/>
     <use style="fill-opacity:0;stroke:#000000;" x="94.778182" xlink:href="#m657e546e17" y="111.609215"/>
     <use style="fill-opacity:0;stroke:#000000;" x="105.250909" xlink:href="#m657e546e17" y="143.038318"/>
     <use style="fill-opacity:0;stroke:#000000;" x="115.723636" xlink:href="#m657e546e17" y="163.129402"/>
     <use style="fill-opacity:0;stroke:#000000;" x="126.196364" xlink:href="#m657e546e17" y="175.118696"/>
     <use style="fill-opacity:0;stroke:#000000;" x="136.669091" xlink:href="#m657e546e17" y="182.242494"/>
     <use style="fill-opacity:0;stroke:#000000;" x="147.141818" xlink:href="#m657e546e17" y="187.046014"/>
     <use style="fill-opacity:0;stroke:#000000;" x="157.614545" xlink:href="#m657e546e17" y="190.221681"/>
     <use style="fill-opacity:0;stroke:#000000;" x="168.087273" xlink:href="#m657e546e17" y="192.531508"/>
     <use style="fill-opacity:0;stroke:#000000;" x="178.56" xlink:href="#m657e546e17" y="194.241645"/>
     <use style="fill-opacity:0;stroke:#000000;" x="189.032727" xlink:href="#m657e546e17" y="195.471159"/>
     <use style="fill-opacity:0;stroke:#000000;" x="199.505455" xlink:href="#m657e546e17" y="196.37029"/>
     <use style="fill-opacity:0;stroke:#000000;" x="209.978182" xlink:href="#m657e546e17" y="197.182671"/>
     <use style="fill-opacity:0;stroke:#000000;" x="220.450909" xlink:href="#m657e546e17" y="197.617673"/>
     <use style="fill-opacity:0;stroke:#000000;" x="230.923636" xlink:href="#m657e546e17" y="197.939466"/>
     <use style="fill-opacity:0;stroke:#000000;" x="241.396364" xlink:href="#m657e546e17" y="198.266781"/>
     <use style="fill-opacity:0;stroke:#000000;" x="251.869091" xlink:href="#m657e546e17" y="198.444607"/>
     <use style="fill-opacity:0;stroke:#000000;" x="262.341818" xlink:href="#m657e546e17" y="198.631162"/>
     <use style="fill-opacity:0;stroke:#000000;" x="272.814545" xlink:href="#m657e546e17" y="198.850341"/>
     <use style="fill-opacity:0;stroke:#000000;" x="283.287273" xlink:href="#m657e546e17" y="198.953223"/>
     <use style="fill-opacity:0;stroke:#000000;" x="293.76" xlink:href="#m657e546e17" y="199.023758"/>
     <use style="fill-opacity:0;stroke:#000000;" x="304.232727" xlink:href="#m657e546e17" y="199.103865"/>
     <use style="fill-opacity:0;stroke:#000000;" x="314.705455" xlink:href="#m657e546e17" y="199.10028"/>
     <use style="fill-opacity:0;stroke:#000000;" x="325.178182" xlink:href="#m657e546e17" y="199.187425"/>
     <use style="fill-opacity:0;stroke:#000000;" x="335.650909" xlink:href="#m657e546e17" y="199.172111"/>
     <use style="fill-opacity:0;stroke:#000000;" x="346.123636" xlink:href="#m657e546e17" y="199.439729"/>
     <use style="fill-opacity:0;stroke:#000000;" x="356.596364" xlink:href="#m657e546e17" y="199.863329"/>
     <use style="fill-opacity:0;stroke:#000000;" x="367.069091" xlink:href="#m657e546e17" y="201.222794"/>
     <use style="fill-opacity:0;stroke:#000000;" x="377.541818" xlink:href="#m657e546e17" y="206.091558"/>
     <use style="fill-opacity:0;stroke:#000000;" x="388.014545" xlink:href="#m657e546e17" y="222.488892"/>
    </g>
   </g>
   <g id="line2d_21">
    <defs>
     <path d="M 0 3 
C 0.795609 3 1.55874 2.683901 2.12132 2.12132 
C 2.683901 1.55874 3 0.795609 3 0 
C 3 -0.795609 2.683901 -1.55874 2.12132 -2.12132 
C 1.55874 -2.683901 0.795609 -3 0 -3 
C -0.795609 -3 -1.55874 -2.683901 -2.12132 -2.12132 
C -2.683901 -1.55874 -3 -0.795609 -3 0 
C -3 0.795609 -2.683901 1.55874 -2.12132 2.12132 
C -1.55874 2.683901 -0.795609 3 0 3 
z
" id="mda2a861c36" style="stroke:#ff0000;"/>
    </defs>
    <g clip-path="url(#p18f2ab824c)">
     <use style="fill-opacity:0;stroke:#ff0000;" x="73.832727" xlink:href="#mda2a861c36" y="295.488"/>
     <use style="fill-opacity:0;stroke:#ff0000;" x="84.305455" xlink:href="#mda2a861c36" y="54.134867"/>
     <use style="fill-opacity:0;stroke:#ff0000;" x="94.778182" xlink:href="#mda2a861c36" y="100.503213"/>
     <use style="fill-opacity:0;stroke:#ff0000;" x="105.250909" xlink:href="#mda2a861c36" y="135.613166"/>
     <use style="fill-opacity:0;stroke:#ff0000;" x="115.723636" xlink:href="#mda2a861c36" y="158.357003"/>
     <use style="fill-opacity:0;stroke:#ff0000;" x="126.196364" xlink:href="#mda2a861c36" y="171.591117"/>
     <use style="fill-opacity:0;stroke:#ff0000;" x="136.669091" xlink:href="#mda2a861c36" y="179.419143"/>
     <use style="fill-opacity:0;stroke:#ff0000;" x="147.141818" xlink:href="#mda2a861c36" y="184.738064"/>
     <use style="fill-opacity:0;stroke:#ff0000;" x="157.614545" xlink:href="#mda2a861c36" y="187.951517"/>
     <use style="fill-opacity:0;stroke:#ff0000;" x="168.087273" xlink:href="#mda2a861c36" y="190.307289"/>
     <use style="fill-opacity:0;stroke:#ff0000;" x="178.56" xlink:href="#mda2a861c36" y="192.091202"/>
     <use style="fill-opacity:0;stroke:#ff0000;" x="189.032727" xlink:href="#mda2a861c36" y="193.341524"/>
     <use style="fill-opacity:0;stroke:#ff0000;" x="199.505455" xlink:href="#mda2a861c36" y="194.241819"/>
     <use style="fill-opacity:0;stroke:#ff0000;" x="209.978182" xlink:href="#mda2a861c36" y="195.209752"/>
     <use style="fill-opacity:0;stroke:#ff0000;" x="220.450909" xlink:href="#mda2a861c36" y="195.693568"/>
     <use style="fill-opacity:0;stroke:#ff0000;" x="230.923636" xlink:href="#mda2a861c36" y="196.021022"/>
     <use style="fill-opacity:0;stroke:#ff0000;" x="241.396364" xlink:href="#mda2a861c36" y="196.344616"/>
     <use style="fill-opacity:0;stroke:#ff0000;" x="251.869091" xlink:href="#mda2a861c36" y="196.558675"/>
     <use style="fill-opacity:0;stroke:#ff0000;" x="262.341818" xlink:href="#mda2a861c36" y="196.729862"/>
     <use style="fill-opacity:0;stroke:#ff0000;" x="272.814545" xlink:href="#mda2a861c36" y="196.998796"/>
     <use style="fill-opacity:0;stroke:#ff0000;" x="283.287273" xlink:href="#mda2a861c36" y="197.065571"/>
     <use style="fill-opacity:0;stroke:#ff0000;" x="293.76" xlink:href="#mda2a861c36" y="197.148819"/>
     <use style="fill-opacity:0;stroke:#ff0000;" x="304.232727" xlink:href="#mda2a861c36" y="197.10143"/>
     <use style="fill-opacity:0;stroke:#ff0000;" x="314.705455" xlink:href="#mda2a861c36" y="197.184766"/>
     <use style="fill-opacity:0;stroke:#ff0000;" x="325.178182" xlink:href="#mda2a861c36" y="197.255947"/>
     <use style="fill-opacity:0;stroke:#ff0000;" x="335.650909" xlink:href="#mda2a861c36" y="197.328598"/>
     <use style="fill-opacity:0;stroke:#ff0000;" x="346.123636" xlink:href="#mda2a861c36" y="197.655967"/>
     <use style="fill-opacity:0;stroke:#ff0000;" x="356.596364" xlink:href="#mda2a861c36" y="198.011525"/>
     <use style="fill-opacity:0;stroke:#ff0000;" x="367.069091" xlink:href="#mda2a861c36" y="199.309046"/>
     <use style="fill-opacity:0;stroke:#ff0000;" x="377.541818" xlink:href="#mda2a861c36" y="204.096808"/>
     <use style="fill-opacity:0;stroke:#ff0000;" x="388.014545" xlink:href="#mda2a861c36" y="220.51798"/>
    </g>
   </g>
   <g id="line2d_22">
    <g clip-path="url(#p18f2ab824c)">
     <use style="fill-opacity:0;stroke:#ff0000;" x="73.832727" xlink:href="#mda2a861c36" y="295.488"/>
     <use style="fill-opacity:0;stroke:#ff0000;" x="84.305455" xlink:href="#mda2a861c36" y="53.963886"/>
     <use style="fill-opacity:0;stroke:#ff0000;" x="94.778182" xlink:href="#mda2a861c36" y="100.682705"/>
     <use style="fill-opacity:0;stroke:#ff0000;" x="105.250909" xlink:href="#mda2a861c36" y="135.960132"/>
     <use style="fill-opacity:0;stroke:#ff0000;" x="115.723636" xlink:href="#mda2a861c36" y="158.674695"/>
     <use style="fill-opacity:0;stroke:#ff0000;" x="126.196364" xlink:href="#mda2a861c36" y="171.999068"/>
     <use style="fill-opacity:0;stroke:#ff0000;" x="136.669091" xlink:href="#mda2a861c36" y="179.596757"/>
     <use style="fill-opacity:0;stroke:#ff0000;" x="147.141818" xlink:href="#mda2a861c36" y="184.701251"/>
     <use style="fill-opacity:0;stroke:#ff0000;" x="157.614545" xlink:href="#mda2a861c36" y="188.017856"/>
     <use style="fill-opacity:0;stroke:#ff0000;" x="168.087273" xlink:href="#mda2a861c36" y="190.37494"/>
     <use style="fill-opacity:0;stroke:#ff0000;" x="178.56" xlink:href="#mda2a861c36" y="192.121899"/>
     <use style="fill-opacity:0;stroke:#ff0000;" x="189.032727" xlink:href="#mda2a861c36" y="193.404524"/>
     <use style="fill-opacity:0;stroke:#ff0000;" x="199.505455" xlink:href="#mda2a861c36" y="194.195173"/>
     <use style="fill-opacity:0;stroke:#ff0000;" x="209.978182" xlink:href="#mda2a861c36" y="195.037734"/>
     <use style="fill-opacity:0;stroke:#ff0000;" x="220.450909" xlink:href="#mda2a861c36" y="195.555654"/>
     <use style="fill-opacity:0;stroke:#ff0000;" x="230.923636" xlink:href="#mda2a861c36" y="195.926426"/>
     <use style="fill-opacity:0;stroke:#ff0000;" x="241.396364" xlink:href="#mda2a861c36" y="196.291454"/>
     <use style="fill-opacity:0;stroke:#ff0000;" x="251.869091" xlink:href="#mda2a861c36" y="196.491725"/>
     <use style="fill-opacity:0;stroke:#ff0000;" x="262.341818" xlink:href="#mda2a861c36" y="196.737637"/>
     <use style="fill-opacity:0;stroke:#ff0000;" x="272.814545" xlink:href="#mda2a861c36" y="196.87372"/>
     <use style="fill-opacity:0;stroke:#ff0000;" x="283.287273" xlink:href="#mda2a861c36" y="197.008618"/>
     <use style="fill-opacity:0;stroke:#ff0000;" x="293.76" xlink:href="#mda2a861c36" y="197.079796"/>
     <use style="fill-opacity:0;stroke:#ff0000;" x="304.232727" xlink:href="#mda2a861c36" y="197.168974"/>
     <use style="fill-opacity:0;stroke:#ff0000;" x="314.705455" xlink:href="#mda2a861c36" y="197.216186"/>
     <use style="fill-opacity:0;stroke:#ff0000;" x="325.178182" xlink:href="#mda2a861c36" y="197.325356"/>
     <use style="fill-opacity:0;stroke:#ff0000;" x="335.650909" xlink:href="#mda2a861c36" y="197.380159"/>
     <use style="fill-opacity:0;stroke:#ff0000;" x="346.123636" xlink:href="#mda2a861c36" y="197.776148"/>
     <use style="fill-opacity:0;stroke:#ff0000;" x="356.596364" xlink:href="#mda2a861c36" y="198.157382"/>
     <use style="fill-opacity:0;stroke:#ff0000;" x="367.069091" xlink:href="#mda2a861c36" y="199.407039"/>
     <use style="fill-opacity:0;stroke:#ff0000;" x="377.541818" xlink:href="#mda2a861c36" y="204.289592"/>
     <use style="fill-opacity:0;stroke:#ff0000;" x="388.014545" xlink:href="#mda2a861c36" y="220.687018"/>
    </g>
   </g>
   <g id="line2d_23">
    <g clip-path="url(#p18f2ab824c)">
     <use style="fill-opacity:0;stroke:#ff0000;" x="73.832727" xlink:href="#mda2a861c36" y="295.488"/>
     <use style="fill-opacity:0;stroke:#ff0000;" x="84.305455" xlink:href="#mda2a861c36" y="53.951531"/>
     <use style="fill-opacity:0;stroke:#ff0000;" x="94.778182" xlink:href="#mda2a861c36" y="100.595967"/>
     <use style="fill-opacity:0;stroke:#ff0000;" x="105.250909" xlink:href="#mda2a861c36" y="135.709732"/>
     <use style="fill-opacity:0;stroke:#ff0000;" x="115.723636" xlink:href="#mda2a861c36" y="158.412098"/>
     <use style="fill-opacity:0;stroke:#ff0000;" x="126.196364" xlink:href="#mda2a861c36" y="171.768144"/>
     <use style="fill-opacity:0;stroke:#ff0000;" x="136.669091" xlink:href="#mda2a861c36" y="179.467413"/>
     <use style="fill-opacity:0;stroke:#ff0000;" x="147.141818" xlink:href="#mda2a861c36" y="184.778262"/>
     <use style="fill-opacity:0;stroke:#ff0000;" x="157.614545" xlink:href="#mda2a861c36" y="188.024461"/>
     <use style="fill-opacity:0;stroke:#ff0000;" x="168.087273" xlink:href="#mda2a861c36" y="190.420948"/>
     <use style="fill-opacity:0;stroke:#ff0000;" x="178.56" xlink:href="#mda2a861c36" y="192.128624"/>
     <use style="fill-opacity:0;stroke:#ff0000;" x="189.032727" xlink:href="#mda2a861c36" y="193.314661"/>
     <use style="fill-opacity:0;stroke:#ff0000;" x="199.505455" xlink:href="#mda2a861c36" y="194.312072"/>
     <use style="fill-opacity:0;stroke:#ff0000;" x="209.978182" xlink:href="#mda2a861c36" y="195.193827"/>
     <use style="fill-opacity:0;stroke:#ff0000;" x="220.450909" xlink:href="#mda2a861c36" y="195.737504"/>
     <use style="fill-opacity:0;stroke:#ff0000;" x="230.923636" xlink:href="#mda2a861c36" y="196.093688"/>
     <use style="fill-opacity:0;stroke:#ff0000;" x="241.396364" xlink:href="#mda2a861c36" y="196.453939"/>
     <use style="fill-opacity:0;stroke:#ff0000;" x="251.869091" xlink:href="#mda2a861c36" y="196.620406"/>
     <use style="fill-opacity:0;stroke:#ff0000;" x="262.341818" xlink:href="#mda2a861c36" y="196.807105"/>
     <use style="fill-opacity:0;stroke:#ff0000;" x="272.814545" xlink:href="#mda2a861c36" y="196.987696"/>
     <use style="fill-opacity:0;stroke:#ff0000;" x="283.287273" xlink:href="#mda2a861c36" y="197.130024"/>
     <use style="fill-opacity:0;stroke:#ff0000;" x="293.76" xlink:href="#mda2a861c36" y="197.122989"/>
     <use style="fill-opacity:0;stroke:#ff0000;" x="304.232727" xlink:href="#mda2a861c36" y="197.16075"/>
     <use style="fill-opacity:0;stroke:#ff0000;" x="314.705455" xlink:href="#mda2a861c36" y="197.165091"/>
     <use style="fill-opacity:0;stroke:#ff0000;" x="325.178182" xlink:href="#mda2a861c36" y="197.286528"/>
     <use style="fill-opacity:0;stroke:#ff0000;" x="335.650909" xlink:href="#mda2a861c36" y="197.366266"/>
     <use style="fill-opacity:0;stroke:#ff0000;" x="346.123636" xlink:href="#mda2a861c36" y="197.723939"/>
     <use style="fill-opacity:0;stroke:#ff0000;" x="356.596364" xlink:href="#mda2a861c36" y="198.088198"/>
     <use style="fill-opacity:0;stroke:#ff0000;" x="367.069091" xlink:href="#mda2a861c36" y="199.369354"/>
     <use style="fill-opacity:0;stroke:#ff0000;" x="377.541818" xlink:href="#mda2a861c36" y="204.060998"/>
     <use style="fill-opacity:0;stroke:#ff0000;" x="388.014545" xlink:href="#mda2a861c36" y="220.450168"/>
    </g>
   </g>
   <g id="patch_3">
    <path d="M 57.6 307.584 
L 57.6 41.472 
" style="fill:none;stroke:#000000;stroke-linecap:square;stroke-linejoin:miter;stroke-width:0.8;"/>
   </g>
   <g id="patch_4">
    <path d="M 414.72 307.584 
L 414.72 41.472 
" style="fill:none;stroke:#000000;stroke-linecap:square;stroke-linejoin:miter;stroke-width:0.8;"/>
   </g>
   <g id="patch_5">
    <path d="M 57.6 307.584 
L 414.72 307.584 
" style="fill:none;stroke:#000000;stroke-linecap:square;stroke-linejoin:miter;stroke-width:0.8;"/>
   </g>
   <g id="patch_6">
    <path d="M 57.6 41.472 
L 414.72 41.472 
" style="fill:none;stroke:#000000;stroke-linecap:square;stroke-linejoin:miter;stroke-width:0.8;"/>
   </g>
   <g id="legend_1">
    <g id="patch_7">
     <path d="M 272.66375 108.1845 
L 407.72 108.1845 
Q 409.72 108.1845 409.72 106.1845 
L 409.72 48.472 
Q 409.72 46.472 407.72 46.472 
L 272.66375 46.472 
Q 270.66375 46.472 270.66375 48.472 
L 270.66375 106.1845 
Q 270.66375 108.1845 272.66375 108.1845 
z
" style="fill:#ffffff;opacity:0.8;stroke:#cccccc;stroke-linejoin:miter;"/>
    </g>
    <g id="LineCollection_5">
     <path d="M 284.66375 59.570438 
L 284.66375 49.570438 
" style="fill:none;stroke:#000000;stroke-width:1.5;"/>
    </g>
    <g id="line2d_24"/>
    <g id="line2d_25">
     <g>
      <use style="fill-opacity:0;stroke:#000000;" x="284.66375" xlink:href="#m657e546e17" y="54.570438"/>
     </g>
    </g>
    <g id="text_16">
     <!-- G5-0.3310+/-0.0011 -->
     <defs>
      <path d="M 59.515625 10.40625 
L 59.515625 29.984375 
L 43.40625 29.984375 
L 43.40625 38.09375 
L 69.28125 38.09375 
L 69.28125 6.78125 
Q 63.578125 2.734375 56.6875 0.65625 
Q 49.8125 -1.421875 42 -1.421875 
Q 24.90625 -1.421875 15.25 8.5625 
Q 5.609375 18.5625 5.609375 36.375 
Q 5.609375 54.25 15.25 64.234375 
Q 24.90625 74.21875 42 74.21875 
Q 49.125 74.21875 55.546875 72.453125 
Q 61.96875 70.703125 67.390625 67.28125 
L 67.390625 56.78125 
Q 61.921875 61.421875 55.765625 63.765625 
Q 49.609375 66.109375 42.828125 66.109375 
Q 29.4375 66.109375 22.71875 58.640625 
Q 16.015625 51.171875 16.015625 36.375 
Q 16.015625 21.625 22.71875 14.15625 
Q 29.4375 6.6875 42.828125 6.6875 
Q 48.046875 6.6875 52.140625 7.59375 
Q 56.25 8.5 59.515625 10.40625 
z
" id="DejaVuSans-71"/>
      <path d="M 4.890625 31.390625 
L 31.203125 31.390625 
L 31.203125 23.390625 
L 4.890625 23.390625 
z
" id="DejaVuSans-45"/>
      <path d="M 46 62.703125 
L 46 35.5 
L 73.1875 35.5 
L 73.1875 27.203125 
L 46 27.203125 
L 46 0 
L 37.796875 0 
L 37.796875 27.203125 
L 10.59375 27.203125 
L 10.59375 35.5 
L 37.796875 35.5 
L 37.796875 62.703125 
z
" id="DejaVuSans-43"/>
      <path d="M 25.390625 72.90625 
L 33.6875 72.90625 
L 8.296875 -9.28125 
L 0 -9.28125 
z
" id="DejaVuSans-47"/>
     </defs>
     <g transform="translate(302.66375 58.070438)scale(0.1 -0.1)">
      <use xlink:href="#DejaVuSans-71"/>
      <use x="77.490234" xlink:href="#DejaVuSans-53"/>
      <use x="141.113281" xlink:href="#DejaVuSans-45"/>
      <use x="177.197266" xlink:href="#DejaVuSans-48"/>
      <use x="240.820312" xlink:href="#DejaVuSans-46"/>
      <use x="272.607422" xlink:href="#DejaVuSans-51"/>
      <use x="336.230469" xlink:href="#DejaVuSans-51"/>
      <use x="399.853516" xlink:href="#DejaVuSans-49"/>
      <use x="463.476562" xlink:href="#DejaVuSans-48"/>
      <use x="527.099609" xlink:href="#DejaVuSans-43"/>
      <use x="610.888672" xlink:href="#DejaVuSans-47"/>
      <use x="644.580078" xlink:href="#DejaVuSans-45"/>
      <use x="680.664062" xlink:href="#DejaVuSans-48"/>
      <use x="744.287109" xlink:href="#DejaVuSans-46"/>
      <use x="776.074219" xlink:href="#DejaVuSans-48"/>
      <use x="839.697266" xlink:href="#DejaVuSans-48"/>
      <use x="903.320312" xlink:href="#DejaVuSans-49"/>
      <use x="966.943359" xlink:href="#DejaVuSans-49"/>
     </g>
    </g>
    <g id="LineCollection_6">
     <path d="M 284.66375 74.248563 
L 284.66375 64.248563 
" style="fill:none;stroke:#ff0000;stroke-width:1.5;"/>
    </g>
    <g id="line2d_26"/>
    <g id="line2d_27">
     <g>
      <use style="fill-opacity:0;stroke:#ff0000;" x="284.66375" xlink:href="#mda2a861c36" y="69.248563"/>
     </g>
    </g>
    <g id="text_17">
     <!-- G0-0.7169+/-0.0011 -->
     <defs>
      <path d="M 33.015625 40.375 
Q 26.375 40.375 22.484375 35.828125 
Q 18.609375 31.296875 18.609375 23.390625 
Q 18.609375 15.53125 22.484375 10.953125 
Q 26.375 6.390625 33.015625 6.390625 
Q 39.65625 6.390625 43.53125 10.953125 
Q 47.40625 15.53125 47.40625 23.390625 
Q 47.40625 31.296875 43.53125 35.828125 
Q 39.65625 40.375 33.015625 40.375 
z
M 52.59375 71.296875 
L 52.59375 62.3125 
Q 48.875 64.0625 45.09375 64.984375 
Q 41.3125 65.921875 37.59375 65.921875 
Q 27.828125 65.921875 22.671875 59.328125 
Q 17.53125 52.734375 16.796875 39.40625 
Q 19.671875 43.65625 24.015625 45.921875 
Q 28.375 48.1875 33.59375 48.1875 
Q 44.578125 48.1875 50.953125 41.515625 
Q 57.328125 34.859375 57.328125 23.390625 
Q 57.328125 12.15625 50.6875 5.359375 
Q 44.046875 -1.421875 33.015625 -1.421875 
Q 20.359375 -1.421875 13.671875 8.265625 
Q 6.984375 17.96875 6.984375 36.375 
Q 6.984375 53.65625 15.1875 63.9375 
Q 23.390625 74.21875 37.203125 74.21875 
Q 40.921875 74.21875 44.703125 73.484375 
Q 48.484375 72.75 52.59375 71.296875 
z
" id="DejaVuSans-54"/>
      <path d="M 10.984375 1.515625 
L 10.984375 10.5 
Q 14.703125 8.734375 18.5 7.8125 
Q 22.3125 6.890625 25.984375 6.890625 
Q 35.75 6.890625 40.890625 13.453125 
Q 46.046875 20.015625 46.78125 33.40625 
Q 43.953125 29.203125 39.59375 26.953125 
Q 35.25 24.703125 29.984375 24.703125 
Q 19.046875 24.703125 12.671875 31.3125 
Q 6.296875 37.9375 6.296875 49.421875 
Q 6.296875 60.640625 12.9375 67.421875 
Q 19.578125 74.21875 30.609375 74.21875 
Q 43.265625 74.21875 49.921875 64.515625 
Q 56.59375 54.828125 56.59375 36.375 
Q 56.59375 19.140625 48.40625 8.859375 
Q 40.234375 -1.421875 26.421875 -1.421875 
Q 22.703125 -1.421875 18.890625 -0.6875 
Q 15.09375 0.046875 10.984375 1.515625 
z
M 30.609375 32.421875 
Q 37.25 32.421875 41.125 36.953125 
Q 45.015625 41.5 45.015625 49.421875 
Q 45.015625 57.28125 41.125 61.84375 
Q 37.25 66.40625 30.609375 66.40625 
Q 23.96875 66.40625 20.09375 61.84375 
Q 16.21875 57.28125 16.21875 49.421875 
Q 16.21875 41.5 20.09375 36.953125 
Q 23.96875 32.421875 30.609375 32.421875 
z
" id="DejaVuSans-57"/>
     </defs>
     <g transform="translate(302.66375 72.748563)scale(0.1 -0.1)">
      <use xlink:href="#DejaVuSans-71"/>
      <use x="77.490234" xlink:href="#DejaVuSans-48"/>
      <use x="141.113281" xlink:href="#DejaVuSans-45"/>
      <use x="177.197266" xlink:href="#DejaVuSans-48"/>
      <use x="240.820312" xlink:href="#DejaVuSans-46"/>
      <use x="272.607422" xlink:href="#DejaVuSans-55"/>
      <use x="336.230469" xlink:href="#DejaVuSans-49"/>
      <use x="399.853516" xlink:href="#DejaVuSans-54"/>
      <use x="463.476562" xlink:href="#DejaVuSans-57"/>
      <use x="527.099609" xlink:href="#DejaVuSans-43"/>
      <use x="610.888672" xlink:href="#DejaVuSans-47"/>
      <use x="644.580078" xlink:href="#DejaVuSans-45"/>
      <use x="680.664062" xlink:href="#DejaVuSans-48"/>
      <use x="744.287109" xlink:href="#DejaVuSans-46"/>
      <use x="776.074219" xlink:href="#DejaVuSans-48"/>
      <use x="839.697266" xlink:href="#DejaVuSans-48"/>
      <use x="903.320312" xlink:href="#DejaVuSans-49"/>
      <use x="966.943359" xlink:href="#DejaVuSans-49"/>
     </g>
    </g>
    <g id="LineCollection_7">
     <path d="M 284.66375 88.926688 
L 284.66375 78.926688 
" style="fill:none;stroke:#ff0000;stroke-width:1.5;"/>
    </g>
    <g id="line2d_28"/>
    <g id="line2d_29">
     <g>
      <use style="fill-opacity:0;stroke:#ff0000;" x="284.66375" xlink:href="#mda2a861c36" y="83.926688"/>
     </g>
    </g>
    <g id="text_18">
     <!-- G1-0.7206+/-0.0010 -->
     <g transform="translate(302.66375 87.426688)scale(0.1 -0.1)">
      <use xlink:href="#DejaVuSans-71"/>
      <use x="77.490234" xlink:href="#DejaVuSans-49"/>
      <use x="141.113281" xlink:href="#DejaVuSans-45"/>
      <use x="177.197266" xlink:href="#DejaVuSans-48"/>
      <use x="240.820312" xlink:href="#DejaVuSans-46"/>
      <use x="272.607422" xlink:href="#DejaVuSans-55"/>
      <use x="336.230469" xlink:href="#DejaVuSans-50"/>
      <use x="399.853516" xlink:href="#DejaVuSans-48"/>
      <use x="463.476562" xlink:href="#DejaVuSans-54"/>
      <use x="527.099609" xlink:href="#DejaVuSans-43"/>
      <use x="610.888672" xlink:href="#DejaVuSans-47"/>
      <use x="644.580078" xlink:href="#DejaVuSans-45"/>
      <use x="680.664062" xlink:href="#DejaVuSans-48"/>
      <use x="744.287109" xlink:href="#DejaVuSans-46"/>
      <use x="776.074219" xlink:href="#DejaVuSans-48"/>
      <use x="839.697266" xlink:href="#DejaVuSans-48"/>
      <use x="903.320312" xlink:href="#DejaVuSans-49"/>
      <use x="966.943359" xlink:href="#DejaVuSans-48"/>
     </g>
    </g>
    <g id="LineCollection_8">
     <path d="M 284.66375 103.604813 
L 284.66375 93.604813 
" style="fill:none;stroke:#ff0000;stroke-width:1.5;"/>
    </g>
    <g id="line2d_30"/>
    <g id="line2d_31">
     <g>
      <use style="fill-opacity:0;stroke:#ff0000;" x="284.66375" xlink:href="#mda2a861c36" y="98.604813"/>
     </g>
    </g>
    <g id="text_19">
     <!-- G2-0.1021+/-0.0011 -->
     <g transform="translate(302.66375 102.104813)scale(0.1 -0.1)">
      <use xlink:href="#DejaVuSans-71"/>
      <use x="77.490234" xlink:href="#DejaVuSans-50"/>
      <use x="141.113281" xlink:href="#DejaVuSans-45"/>
      <use x="177.197266" xlink:href="#DejaVuSans-48"/>
      <use x="240.820312" xlink:href="#DejaVuSans-46"/>
      <use x="272.607422" xlink:href="#DejaVuSans-49"/>
      <use x="336.230469" xlink:href="#DejaVuSans-48"/>
      <use x="399.853516" xlink:href="#DejaVuSans-50"/>
      <use x="463.476562" xlink:href="#DejaVuSans-49"/>
      <use x="527.099609" xlink:href="#DejaVuSans-43"/>
      <use x="610.888672" xlink:href="#DejaVuSans-47"/>
      <use x="644.580078" xlink:href="#DejaVuSans-45"/>
      <use x="680.664062" xlink:href="#DejaVuSans-48"/>
      <use x="744.287109" xlink:href="#DejaVuSans-46"/>
      <use x="776.074219" xlink:href="#DejaVuSans-48"/>
      <use x="839.697266" xlink:href="#DejaVuSans-48"/>
      <use x="903.320312" xlink:href="#DejaVuSans-49"/>
      <use x="966.943359" xlink:href="#DejaVuSans-49"/>
     </g>
    </g>
   </g>
  </g>
 </g>
 <defs>
  <clipPath id="p18f2ab824c">
   <rect height="266.112" width="357.12" x="57.6" y="41.472"/>
  </clipPath>
 </defs>
</svg>
