<?xml version="1.0" encoding="utf-8" standalone="no"?>
<!DOCTYPE svg PUBLIC "-//W3C//DTD SVG 1.1//EN"
  "http://www.w3.org/Graphics/SVG/1.1/DTD/svg11.dtd">
<!-- Created with matplotlib (https://matplotlib.org/) -->
<svg height="345.6pt" version="1.1" viewBox="0 0 460.8 345.6" width="460.8pt" xmlns="http://www.w3.org/2000/svg" xmlns:xlink="http://www.w3.org/1999/xlink">
 <defs>
  <style type="text/css">
*{stroke-linecap:butt;stroke-linejoin:round;}
  </style>
 </defs>
 <g id="figure_1">
  <g id="patch_1">
   <path d="M 0 345.6 
L 460.8 345.6 
L 460.8 0 
L 0 0 
z
" style="fill:#ffffff;"/>
  </g>
  <g id="axes_1">
   <g id="patch_2">
    <path d="M 57.6 307.584 
L 414.72 307.584 
L 414.72 41.472 
L 57.6 41.472 
z
" style="fill:#ffffff;"/>
   </g>
   <g id="matplotlib.axis_1">
    <g id="xtick_1">
     <g id="line2d_1">
      <defs>
       <path d="M 0 0 
L 0 3.5 
" id="mee0aa80132" style="stroke:#000000;stroke-width:0.8;"/>
      </defs>
      <g>
       <use style="stroke:#000000;stroke-width:0.8;" x="73.290733" xlink:href="#mee0aa80132" y="307.584"/>
      </g>
     </g>
     <g id="text_1">
      <!-- 0 -->
      <defs>
       <path d="M 31.78125 66.40625 
Q 24.171875 66.40625 20.328125 58.90625 
Q 16.5 51.421875 16.5 36.375 
Q 16.5 21.390625 20.328125 13.890625 
Q 24.171875 6.390625 31.78125 6.390625 
Q 39.453125 6.390625 43.28125 13.890625 
Q 47.125 21.390625 47.125 36.375 
Q 47.125 51.421875 43.28125 58.90625 
Q 39.453125 66.40625 31.78125 66.40625 
z
M 31.78125 74.21875 
Q 44.046875 74.21875 50.515625 64.515625 
Q 56.984375 54.828125 56.984375 36.375 
Q 56.984375 17.96875 50.515625 8.265625 
Q 44.046875 -1.421875 31.78125 -1.421875 
Q 19.53125 -1.421875 13.0625 8.265625 
Q 6.59375 17.96875 6.59375 36.375 
Q 6.59375 54.828125 13.0625 64.515625 
Q 19.53125 74.21875 31.78125 74.21875 
z
" id="DejaVuSans-48"/>
      </defs>
      <g transform="translate(70.109483 322.182437)scale(0.1 -0.1)">
       <use xlink:href="#DejaVuSans-48"/>
      </g>
     </g>
    </g>
    <g id="xtick_2">
     <g id="line2d_2">
      <g>
       <use style="stroke:#000000;stroke-width:0.8;" x="127.490156" xlink:href="#mee0aa80132" y="307.584"/>
      </g>
     </g>
     <g id="text_2">
      <!-- 100 -->
      <defs>
       <path d="M 12.40625 8.296875 
L 28.515625 8.296875 
L 28.515625 63.921875 
L 10.984375 60.40625 
L 10.984375 69.390625 
L 28.421875 72.90625 
L 38.28125 72.90625 
L 38.28125 8.296875 
L 54.390625 8.296875 
L 54.390625 0 
L 12.40625 0 
z
" id="DejaVuSans-49"/>
      </defs>
      <g transform="translate(117.946406 322.182437)scale(0.1 -0.1)">
       <use xlink:href="#DejaVuSans-49"/>
       <use x="63.623047" xlink:href="#DejaVuSans-48"/>
       <use x="127.246094" xlink:href="#DejaVuSans-48"/>
      </g>
     </g>
    </g>
    <g id="xtick_3">
     <g id="line2d_3">
      <g>
       <use style="stroke:#000000;stroke-width:0.8;" x="181.68958" xlink:href="#mee0aa80132" y="307.584"/>
      </g>
     </g>
     <g id="text_3">
      <!-- 200 -->
      <defs>
       <path d="M 19.1875 8.296875 
L 53.609375 8.296875 
L 53.609375 0 
L 7.328125 0 
L 7.328125 8.296875 
Q 12.9375 14.109375 22.625 23.890625 
Q 32.328125 33.6875 34.8125 36.53125 
Q 39.546875 41.84375 41.421875 45.53125 
Q 43.3125 49.21875 43.3125 52.78125 
Q 43.3125 58.59375 39.234375 62.25 
Q 35.15625 65.921875 28.609375 65.921875 
Q 23.96875 65.921875 18.8125 64.3125 
Q 13.671875 62.703125 7.8125 59.421875 
L 7.8125 69.390625 
Q 13.765625 71.78125 18.9375 73 
Q 24.125 74.21875 28.421875 74.21875 
Q 39.75 74.21875 46.484375 68.546875 
Q 53.21875 62.890625 53.21875 53.421875 
Q 53.21875 48.921875 51.53125 44.890625 
Q 49.859375 40.875 45.40625 35.40625 
Q 44.1875 33.984375 37.640625 27.21875 
Q 31.109375 20.453125 19.1875 8.296875 
z
" id="DejaVuSans-50"/>
      </defs>
      <g transform="translate(172.14583 322.182437)scale(0.1 -0.1)">
       <use xlink:href="#DejaVuSans-50"/>
       <use x="63.623047" xlink:href="#DejaVuSans-48"/>
       <use x="127.246094" xlink:href="#DejaVuSans-48"/>
      </g>
     </g>
    </g>
    <g id="xtick_4">
     <g id="line2d_4">
      <g>
       <use style="stroke:#000000;stroke-width:0.8;" x="235.889003" xlink:href="#mee0aa80132" y="307.584"/>
      </g>
     </g>
     <g id="text_4">
      <!-- 300 -->
      <defs>
       <path d="M 40.578125 39.3125 
Q 47.65625 37.796875 51.625 33 
Q 55.609375 28.21875 55.609375 21.1875 
Q 55.609375 10.40625 48.1875 4.484375 
Q 40.765625 -1.421875 27.09375 -1.421875 
Q 22.515625 -1.421875 17.65625 -0.515625 
Q 12.796875 0.390625 7.625 2.203125 
L 7.625 11.71875 
Q 11.71875 9.328125 16.59375 8.109375 
Q 21.484375 6.890625 26.8125 6.890625 
Q 36.078125 6.890625 40.9375 10.546875 
Q 45.796875 14.203125 45.796875 21.1875 
Q 45.796875 27.640625 41.28125 31.265625 
Q 36.765625 34.90625 28.71875 34.90625 
L 20.21875 34.90625 
L 20.21875 43.015625 
L 29.109375 43.015625 
Q 36.375 43.015625 40.234375 45.921875 
Q 44.09375 48.828125 44.09375 54.296875 
Q 44.09375 59.90625 40.109375 62.90625 
Q 36.140625 65.921875 28.71875 65.921875 
Q 24.65625 65.921875 20.015625 65.03125 
Q 15.375 64.15625 9.8125 62.3125 
L 9.8125 71.09375 
Q 15.4375 72.65625 20.34375 73.4375 
Q 25.25 74.21875 29.59375 74.21875 
Q 40.828125 74.21875 47.359375 69.109375 
Q 53.90625 64.015625 53.90625 55.328125 
Q 53.90625 49.265625 50.4375 45.09375 
Q 46.96875 40.921875 40.578125 39.3125 
z
" id="DejaVuSans-51"/>
      </defs>
      <g transform="translate(226.345253 322.182437)scale(0.1 -0.1)">
       <use xlink:href="#DejaVuSans-51"/>
       <use x="63.623047" xlink:href="#DejaVuSans-48"/>
       <use x="127.246094" xlink:href="#DejaVuSans-48"/>
      </g>
     </g>
    </g>
    <g id="xtick_5">
     <g id="line2d_5">
      <g>
       <use style="stroke:#000000;stroke-width:0.8;" x="290.088426" xlink:href="#mee0aa80132" y="307.584"/>
      </g>
     </g>
     <g id="text_5">
      <!-- 400 -->
      <defs>
       <path d="M 37.796875 64.3125 
L 12.890625 25.390625 
L 37.796875 25.390625 
z
M 35.203125 72.90625 
L 47.609375 72.90625 
L 47.609375 25.390625 
L 58.015625 25.390625 
L 58.015625 17.1875 
L 47.609375 17.1875 
L 47.609375 0 
L 37.796875 0 
L 37.796875 17.1875 
L 4.890625 17.1875 
L 4.890625 26.703125 
z
" id="DejaVuSans-52"/>
      </defs>
      <g transform="translate(280.544676 322.182437)scale(0.1 -0.1)">
       <use xlink:href="#DejaVuSans-52"/>
       <use x="63.623047" xlink:href="#DejaVuSans-48"/>
       <use x="127.246094" xlink:href="#DejaVuSans-48"/>
      </g>
     </g>
    </g>
    <g id="xtick_6">
     <g id="line2d_6">
      <g>
       <use style="stroke:#000000;stroke-width:0.8;" x="344.287849" xlink:href="#mee0aa80132" y="307.584"/>
      </g>
     </g>
     <g id="text_6">
      <!-- 500 -->
      <defs>
       <path d="M 10.796875 72.90625 
L 49.515625 72.90625 
L 49.515625 64.59375 
L 19.828125 64.59375 
L 19.828125 46.734375 
Q 21.96875 47.46875 24.109375 47.828125 
Q 26.265625 48.1875 28.421875 48.1875 
Q 40.625 48.1875 47.75 41.5 
Q 54.890625 34.8125 54.890625 23.390625 
Q 54.890625 11.625 47.5625 5.09375 
Q 40.234375 -1.421875 26.90625 -1.421875 
Q 22.3125 -1.421875 17.546875 -0.640625 
Q 12.796875 0.140625 7.71875 1.703125 
L 7.71875 11.625 
Q 12.109375 9.234375 16.796875 8.0625 
Q 21.484375 6.890625 26.703125 6.890625 
Q 35.15625 6.890625 40.078125 11.328125 
Q 45.015625 15.765625 45.015625 23.390625 
Q 45.015625 31 40.078125 35.4375 
Q 35.15625 39.890625 26.703125 39.890625 
Q 22.75 39.890625 18.8125 39.015625 
Q 14.890625 38.140625 10.796875 36.28125 
z
" id="DejaVuSans-53"/>
      </defs>
      <g transform="translate(334.744099 322.182437)scale(0.1 -0.1)">
       <use xlink:href="#DejaVuSans-53"/>
       <use x="63.623047" xlink:href="#DejaVuSans-48"/>
       <use x="127.246094" xlink:href="#DejaVuSans-48"/>
      </g>
     </g>
    </g>
    <g id="xtick_7">
     <g id="line2d_7">
      <g>
       <use style="stroke:#000000;stroke-width:0.8;" x="398.487273" xlink:href="#mee0aa80132" y="307.584"/>
      </g>
     </g>
     <g id="text_7">
      <!-- 600 -->
      <defs>
       <path d="M 33.015625 40.375 
Q 26.375 40.375 22.484375 35.828125 
Q 18.609375 31.296875 18.609375 23.390625 
Q 18.609375 15.53125 22.484375 10.953125 
Q 26.375 6.390625 33.015625 6.390625 
Q 39.65625 6.390625 43.53125 10.953125 
Q 47.40625 15.53125 47.40625 23.390625 
Q 47.40625 31.296875 43.53125 35.828125 
Q 39.65625 40.375 33.015625 40.375 
z
M 52.59375 71.296875 
L 52.59375 62.3125 
Q 48.875 64.0625 45.09375 64.984375 
Q 41.3125 65.921875 37.59375 65.921875 
Q 27.828125 65.921875 22.671875 59.328125 
Q 17.53125 52.734375 16.796875 39.40625 
Q 19.671875 43.65625 24.015625 45.921875 
Q 28.375 48.1875 33.59375 48.1875 
Q 44.578125 48.1875 50.953125 41.515625 
Q 57.328125 34.859375 57.328125 23.390625 
Q 57.328125 12.15625 50.6875 5.359375 
Q 44.046875 -1.421875 33.015625 -1.421875 
Q 20.359375 -1.421875 13.671875 8.265625 
Q 6.984375 17.96875 6.984375 36.375 
Q 6.984375 53.65625 15.1875 63.9375 
Q 23.390625 74.21875 37.203125 74.21875 
Q 40.921875 74.21875 44.703125 73.484375 
Q 48.484375 72.75 52.59375 71.296875 
z
" id="DejaVuSans-54"/>
      </defs>
      <g transform="translate(388.943523 322.182437)scale(0.1 -0.1)">
       <use xlink:href="#DejaVuSans-54"/>
       <use x="63.623047" xlink:href="#DejaVuSans-48"/>
       <use x="127.246094" xlink:href="#DejaVuSans-48"/>
      </g>
     </g>
    </g>
   </g>
   <g id="matplotlib.axis_2">
    <g id="ytick_1">
     <g id="line2d_8">
      <defs>
       <path d="M 0 0 
L -3.5 0 
" id="m8e02034787" style="stroke:#000000;stroke-width:0.8;"/>
      </defs>
      <g>
       <use style="stroke:#000000;stroke-width:0.8;" x="57.6" xlink:href="#m8e02034787" y="293.996234"/>
      </g>
     </g>
     <g id="text_8">
      <!-- −0.00015 -->
      <defs>
       <path d="M 10.59375 35.5 
L 73.1875 35.5 
L 73.1875 27.203125 
L 10.59375 27.203125 
z
" id="DejaVuSans-8722"/>
       <path d="M 10.6875 12.40625 
L 21 12.40625 
L 21 0 
L 10.6875 0 
z
" id="DejaVuSans-46"/>
      </defs>
      <g transform="translate(0.867188 297.795453)scale(0.1 -0.1)">
       <use xlink:href="#DejaVuSans-8722"/>
       <use x="83.789062" xlink:href="#DejaVuSans-48"/>
       <use x="147.412109" xlink:href="#DejaVuSans-46"/>
       <use x="179.199219" xlink:href="#DejaVuSans-48"/>
       <use x="242.822266" xlink:href="#DejaVuSans-48"/>
       <use x="306.445312" xlink:href="#DejaVuSans-48"/>
       <use x="370.068359" xlink:href="#DejaVuSans-49"/>
       <use x="433.691406" xlink:href="#DejaVuSans-53"/>
      </g>
     </g>
    </g>
    <g id="ytick_2">
     <g id="line2d_9">
      <g>
       <use style="stroke:#000000;stroke-width:0.8;" x="57.6" xlink:href="#m8e02034787" y="261.65821"/>
      </g>
     </g>
     <g id="text_9">
      <!-- −0.00010 -->
      <g transform="translate(0.867188 265.457429)scale(0.1 -0.1)">
       <use xlink:href="#DejaVuSans-8722"/>
       <use x="83.789062" xlink:href="#DejaVuSans-48"/>
       <use x="147.412109" xlink:href="#DejaVuSans-46"/>
       <use x="179.199219" xlink:href="#DejaVuSans-48"/>
       <use x="242.822266" xlink:href="#DejaVuSans-48"/>
       <use x="306.445312" xlink:href="#DejaVuSans-48"/>
       <use x="370.068359" xlink:href="#DejaVuSans-49"/>
       <use x="433.691406" xlink:href="#DejaVuSans-48"/>
      </g>
     </g>
    </g>
    <g id="ytick_3">
     <g id="line2d_10">
      <g>
       <use style="stroke:#000000;stroke-width:0.8;" x="57.6" xlink:href="#m8e02034787" y="229.320186"/>
      </g>
     </g>
     <g id="text_10">
      <!-- −0.00005 -->
      <g transform="translate(0.867188 233.119404)scale(0.1 -0.1)">
       <use xlink:href="#DejaVuSans-8722"/>
       <use x="83.789062" xlink:href="#DejaVuSans-48"/>
       <use x="147.412109" xlink:href="#DejaVuSans-46"/>
       <use x="179.199219" xlink:href="#DejaVuSans-48"/>
       <use x="242.822266" xlink:href="#DejaVuSans-48"/>
       <use x="306.445312" xlink:href="#DejaVuSans-48"/>
       <use x="370.068359" xlink:href="#DejaVuSans-48"/>
       <use x="433.691406" xlink:href="#DejaVuSans-53"/>
      </g>
     </g>
    </g>
    <g id="ytick_4">
     <g id="line2d_11">
      <g>
       <use style="stroke:#000000;stroke-width:0.8;" x="57.6" xlink:href="#m8e02034787" y="196.982161"/>
      </g>
     </g>
     <g id="text_11">
      <!-- 0.00000 -->
      <g transform="translate(9.246875 200.78138)scale(0.1 -0.1)">
       <use xlink:href="#DejaVuSans-48"/>
       <use x="63.623047" xlink:href="#DejaVuSans-46"/>
       <use x="95.410156" xlink:href="#DejaVuSans-48"/>
       <use x="159.033203" xlink:href="#DejaVuSans-48"/>
       <use x="222.65625" xlink:href="#DejaVuSans-48"/>
       <use x="286.279297" xlink:href="#DejaVuSans-48"/>
       <use x="349.902344" xlink:href="#DejaVuSans-48"/>
      </g>
     </g>
    </g>
    <g id="ytick_5">
     <g id="line2d_12">
      <g>
       <use style="stroke:#000000;stroke-width:0.8;" x="57.6" xlink:href="#m8e02034787" y="164.644137"/>
      </g>
     </g>
     <g id="text_12">
      <!-- 0.00005 -->
      <g transform="translate(9.246875 168.443356)scale(0.1 -0.1)">
       <use xlink:href="#DejaVuSans-48"/>
       <use x="63.623047" xlink:href="#DejaVuSans-46"/>
       <use x="95.410156" xlink:href="#DejaVuSans-48"/>
       <use x="159.033203" xlink:href="#DejaVuSans-48"/>
       <use x="222.65625" xlink:href="#DejaVuSans-48"/>
       <use x="286.279297" xlink:href="#DejaVuSans-48"/>
       <use x="349.902344" xlink:href="#DejaVuSans-53"/>
      </g>
     </g>
    </g>
    <g id="ytick_6">
     <g id="line2d_13">
      <g>
       <use style="stroke:#000000;stroke-width:0.8;" x="57.6" xlink:href="#m8e02034787" y="132.306113"/>
      </g>
     </g>
     <g id="text_13">
      <!-- 0.00010 -->
      <g transform="translate(9.246875 136.105332)scale(0.1 -0.1)">
       <use xlink:href="#DejaVuSans-48"/>
       <use x="63.623047" xlink:href="#DejaVuSans-46"/>
       <use x="95.410156" xlink:href="#DejaVuSans-48"/>
       <use x="159.033203" xlink:href="#DejaVuSans-48"/>
       <use x="222.65625" xlink:href="#DejaVuSans-48"/>
       <use x="286.279297" xlink:href="#DejaVuSans-49"/>
       <use x="349.902344" xlink:href="#DejaVuSans-48"/>
      </g>
     </g>
    </g>
    <g id="ytick_7">
     <g id="line2d_14">
      <g>
       <use style="stroke:#000000;stroke-width:0.8;" x="57.6" xlink:href="#m8e02034787" y="99.968089"/>
      </g>
     </g>
     <g id="text_14">
      <!-- 0.00015 -->
      <g transform="translate(9.246875 103.767307)scale(0.1 -0.1)">
       <use xlink:href="#DejaVuSans-48"/>
       <use x="63.623047" xlink:href="#DejaVuSans-46"/>
       <use x="95.410156" xlink:href="#DejaVuSans-48"/>
       <use x="159.033203" xlink:href="#DejaVuSans-48"/>
       <use x="222.65625" xlink:href="#DejaVuSans-48"/>
       <use x="286.279297" xlink:href="#DejaVuSans-49"/>
       <use x="349.902344" xlink:href="#DejaVuSans-53"/>
      </g>
     </g>
    </g>
    <g id="ytick_8">
     <g id="line2d_15">
      <g>
       <use style="stroke:#000000;stroke-width:0.8;" x="57.6" xlink:href="#m8e02034787" y="67.630064"/>
      </g>
     </g>
     <g id="text_15">
      <!-- 0.00020 -->
      <g transform="translate(9.246875 71.429283)scale(0.1 -0.1)">
       <use xlink:href="#DejaVuSans-48"/>
       <use x="63.623047" xlink:href="#DejaVuSans-46"/>
       <use x="95.410156" xlink:href="#DejaVuSans-48"/>
       <use x="159.033203" xlink:href="#DejaVuSans-48"/>
       <use x="222.65625" xlink:href="#DejaVuSans-48"/>
       <use x="286.279297" xlink:href="#DejaVuSans-50"/>
       <use x="349.902344" xlink:href="#DejaVuSans-48"/>
      </g>
     </g>
    </g>
   </g>
   <g id="line2d_16">
    <path clip-path="url(#peac207b760)" d="M 75.462274 346.6 
L 75.854693 -1 
M 76.07577 -1 
L 76.277517 346.6 
M 76.74797 346.6 
L 76.904139 -1 
M 78.449686 -1 
L 78.710675 172.740535 
L 79.25267 277.757721 
L 79.401038 -1 
M 80.569096 -1 
L 80.666836 346.6 
M 81.135814 346.6 
L 81.254478 -1 
M 81.652698 -1 
L 81.81841 346.6 
M 83.283472 346.6 
L 83.468354 -1 
M 84.108714 -1 
L 84.130618 8.523086 
L 84.396057 346.6 
M 86.635624 346.6 
L 86.819694 -1 
M 87.694781 -1 
L 87.924577 110.17182 
L 88.122472 346.6 
M 88.69157 346.6 
L 88.881814 -1 
M 89.125211 -1 
L 89.300286 346.6 
M 89.74723 346.6 
L 89.884807 -1 
M 90.563779 -1 
L 90.634548 77.829037 
L 91.086667 346.6 
M 92.005265 346.6 
L 92.260531 222.594211 
L 92.360063 346.6 
M 93.255942 346.6 
L 93.641387 -1 
M 94.126927 -1 
L 94.428508 247.495719 
L 95.005392 -1 
M 96.061546 -1 
L 96.219981 346.6 
M 97.328703 346.6 
L 97.599824 -1 
M 98.411825 -1 
L 98.587864 346.6 
M 99.000748 346.6 
L 99.236287 -1 
M 99.385818 -1 
L 99.652216 346.6 
M 100.749842 346.6 
L 100.968379 -1 
M 101.583058 -1 
L 101.659923 346.6 
M 102.43406 346.6 
L 102.524105 -1 
M 102.773851 -1 
L 103.100416 199.813559 
L 103.211831 346.6 
M 103.859065 346.6 
L 103.991821 -1 
M 104.410857 -1 
L 104.566959 346.6 
M 106.151931 346.6 
L 106.352381 155.162384 
L 106.53048 346.6 
M 107.907066 346.6 
L 107.978364 214.79988 
L 108.106872 346.6 
M 108.825642 346.6 
L 109.062352 17.778303 
L 109.604347 243.141435 
L 110.146341 111.117043 
L 110.259141 -1 
M 112.683494 -1 
L 112.801714 346.6 
M 112.965177 346.6 
L 113.200898 -1 
M 113.548928 -1 
L 113.72878 346.6 
M 114.283167 346.6 
L 114.646593 -1 
M 115.116843 -1 
L 115.243863 346.6 
M 115.867037 346.6 
L 115.985522 -1 
M 116.228693 -1 
L 116.34492 346.6 
M 117.154394 346.6 
L 117.192266 277.995566 
L 117.767817 -1 
M 119.273331 -1 
L 119.360243 230.581791 
L 119.902237 300.975374 
L 120.158795 -1 
M 121.139575 -1 
L 121.240779 346.6 
M 121.911175 346.6 
L 122.046009 -1 
M 123.458278 -1 
L 123.594833 346.6 
M 123.893835 346.6 
L 124.16009 -1 
M 125.187977 -1 
L 125.322179 280.263825 
L 125.427831 -1 
M 126.685014 -1 
L 127.028817 346.6 
M 127.609189 346.6 
L 127.694829 -1 
M 128.711462 -1 
L 128.782245 346.6 
M 131.649537 346.6 
L 131.776689 -1 
M 133.138553 -1 
L 133.325023 346.6 
M 134.224465 346.6 
L 134.332463 -1 
M 134.768722 -1 
L 134.892113 346.6 
M 135.946948 346.6 
L 136.033221 -1 
M 136.304301 -1 
L 136.399542 346.6 
M 137.112023 346.6 
L 137.239619 -1 
M 137.262012 -1 
L 137.578531 346.6 
M 139.915299 346.6 
L 139.956024 305.309119 
L 139.988594 346.6 
M 142.596115 346.6 
L 142.834441 -1 
M 143.393946 -1 
L 143.505439 346.6 
M 144.904056 346.6 
L 145.199072 -1 
M 145.56224 -1 
L 145.872901 346.6 
M 145.952711 346.6 
L 146.192301 -1 
M 146.589592 -1 
L 146.705637 346.6 
M 147.317147 346.6 
L 147.440589 -1 
M 148.040144 -1 
L 148.085937 25.859096 
L 148.239009 346.6 
M 149.251046 346.6 
L 149.379204 -1 
M 149.959673 -1 
L 150.055104 346.6 
M 150.716914 346.6 
L 150.795908 223.051427 
L 151.301811 -1 
M 151.492459 -1 
L 151.879897 39.068705 
L 152.421891 209.957706 
L 152.679493 -1 
M 153.622771 -1 
L 153.739885 346.6 
M 155.380066 346.6 
L 155.501492 -1 
M 155.950085 -1 
L 156.144679 346.6 
M 156.321816 346.6 
L 156.611543 -1 
M 157.208885 -1 
L 157.299839 34.395646 
L 157.841833 28.149062 
L 158.040834 346.6 
M 158.736609 346.6 
L 158.925822 52.211762 
L 159.467816 299.621945 
L 160.00981 21.54046 
L 160.551805 325.128952 
L 161.093799 49.86256 
L 161.357726 346.6 
M 161.766108 346.6 
L 161.910997 -1 
M 162.474795 -1 
L 162.636094 346.6 
M 165.408608 346.6 
L 165.429753 327.296841 
L 165.441515 346.6 
M 166.417446 346.6 
L 166.696444 -1 
M 167.327814 -1 
L 167.701204 346.6 
M 168.677527 346.6 
L 168.681718 345.402907 
L 168.684669 346.6 
M 170.194749 346.6 
L 170.307701 309.901531 
L 170.358937 346.6 
M 170.968111 346.6 
L 171.085211 -1 
M 171.720241 -1 
L 171.845775 346.6 
M 172.724537 346.6 
L 172.973663 -1 
M 173.072793 -1 
L 173.384823 346.6 
M 174.620286 346.6 
L 174.643655 294.928136 
L 174.905871 -1 
M 176.602205 -1 
L 176.736304 346.6 
M 176.900559 346.6 
L 177.05887 -1 
M 177.647302 -1 
L 177.805032 346.6 
M 178.113909 346.6 
L 178.437614 50.561732 
L 178.979608 127.799796 
L 179.138793 -1 
M 182.12444 -1 
L 182.231574 140.113063 
L 182.743944 346.6 
M 182.778666 346.6 
L 182.927106 -1 
M 185.892534 -1 
L 186.268565 346.6 
M 186.7566 346.6 
L 187.017689 -1 
M 187.812639 -1 
L 187.898133 346.6 
M 188.512847 346.6 
L 188.605275 -1 
M 188.910604 -1 
L 189.034877 346.6 
M 189.700199 346.6 
L 189.819493 155.078643 
L 189.947715 346.6 
M 190.887592 346.6 
L 190.903482 327.933897 
L 191.459946 -1 
M 192.32177 -1 
L 192.529464 329.885091 
L 193.071458 329.885091 
L 193.09649 346.6 
M 193.927771 346.6 
L 194.155447 96.553347 
L 194.588178 346.6 
M 194.791281 346.6 
L 195.323787 -1 
M 196.55732 -1 
L 196.743749 346.6 
M 197.621649 346.6 
L 198.085365 -1 
M 198.914172 -1 
L 199.033395 92.657024 
L 199.575389 92.657024 
L 200.117384 260.394532 
L 200.235879 -1 
M 200.975186 -1 
L 201.092691 346.6 
M 201.377139 346.6 
L 201.567176 -1 
M 201.904946 -1 
L 202.079225 346.6 
M 202.931026 346.6 
L 203.072994 -1 
M 204.136126 -1 
L 204.453337 107.213834 
L 204.51785 -1 
M 208.931467 -1 
L 209.031303 346.6 
M 209.794286 346.6 
L 209.87328 168.404813 
L 210.415274 197.621379 
L 210.566406 -1 
M 211.076492 -1 
L 211.15717 346.6 
M 213.194029 346.6 
L 213.624018 -1 
M 213.678257 -1 
L 213.787866 346.6 
M 215.094523 346.6 
L 215.266034 -1 
M 215.340596 -1 
L 215.639441 346.6 
M 217.581053 346.6 
L 217.688101 -1 
M 218.392217 -1 
L 218.524383 346.6 
M 219.901109 346.6 
L 220.036628 -1 
M 221.504136 -1 
L 221.647964 346.6 
M 222.861582 346.6 
L 222.881141 311.647892 
L 223.460316 -1 
M 225.923736 -1 
L 226.203331 346.6 
M 227.497556 346.6 
L 227.744649 -1 
M 227.798858 -1 
L 228.301084 255.539989 
L 228.539196 -1 
M 229.327871 -1 
L 229.385072 37.630125 
L 229.927066 246.086227 
L 230.332394 346.6 
M 231.060889 346.6 
L 231.188614 -1 
M 231.930993 -1 
L 232.063454 346.6 
M 234.029957 346.6 
L 234.205829 -1 
M 235.498224 -1 
L 235.851132 346.6 
M 238.456474 346.6 
L 238.598974 209.435777 
L 238.670935 346.6 
M 239.930096 346.6 
L 240.156209 -1 
M 240.838836 -1 
L 241.191704 346.6 
M 241.5111 346.6 
L 241.850939 152.44915 
L 241.970976 -1 
M 243.250707 -1 
L 243.428488 346.6 
M 243.508246 346.6 
L 243.623222 -1 
M 244.688501 -1 
L 244.855484 346.6 
M 245.782937 346.6 
L 245.975169 -1 
M 247.999851 -1 
L 248.240643 346.6 
M 248.468146 346.6 
L 248.706932 -1 
M 249.718536 -1 
L 249.845195 346.6 
M 251.209464 346.6 
L 251.399421 -1 
M 252.144181 -1 
L 252.14883 2.283331 
L 252.690824 223.858603 
L 253.172336 346.6 
M 253.939138 346.6 
L 254.225057 -1 
M 254.424001 -1 
L 254.75805 346.6 
M 254.923024 346.6 
L 255.135964 -1 
M 255.769607 -1 
L 256.079374 346.6 
M 256.819528 346.6 
L 257.026778 80.863994 
L 257.132743 346.6 
M 257.806068 346.6 
L 257.881503 -1 
M 259.482157 -1 
L 259.736749 189.173777 
L 260.133879 346.6 
M 261.27735 346.6 
L 261.468035 -1 
M 262.122974 -1 
L 262.278507 346.6 
M 263.848737 346.6 
L 263.940443 -1 
M 264.824918 -1 
L 264.981957 346.6 
M 265.306799 346.6 
L 265.441706 -1 
M 266.088121 -1 
L 266.24068 258.387991 
L 266.782674 87.837416 
L 266.885043 -1 
M 267.705695 -1 
L 267.866663 160.173848 
L 267.957066 -1 
M 270.673458 -1 
L 271.118628 126.370892 
L 271.377563 -1 
M 272.577188 -1 
L 272.744611 273.581698 
L 272.892509 -1 
M 273.972274 -1 
L 274.353677 346.6 
M 274.395631 346.6 
L 274.951844 -1 
M 275.693303 -1 
L 275.914616 346.6 
M 276.59269 346.6 
L 276.694483 -1 
M 277.456873 -1 
L 277.55609 346.6 
M 277.72252 346.6 
L 277.87173 -1 
M 278.481007 -1 
L 278.642258 346.6 
M 278.780567 346.6 
L 278.966225 -1 
M 279.736136 -1 
L 279.790536 57.970916 
L 280.33253 184.66778 
L 280.874524 61.648778 
L 280.926411 -1 
M 282.42784 -1 
L 282.500507 90.623392 
L 282.727034 -1 
M 283.668637 -1 
L 283.897857 346.6 
M 284.400722 346.6 
L 284.668484 8.07117 
L 285.210478 195.635526 
L 285.483003 -1 
M 286.073655 -1 
L 286.679275 346.6 
M 286.886475 346.6 
L 287.085422 -1 
M 287.555912 -1 
L 287.676391 346.6 
M 288.277775 346.6 
L 288.454169 -1 
M 288.47806 -1 
L 288.810981 346.6 
M 289.142135 346.6 
L 289.379101 -1 
M 289.993105 -1 
L 290.088426 51.380752 
L 290.406681 346.6 
M 290.869966 346.6 
L 291.172415 84.556669 
L 291.520939 -1 
M 291.747705 -1 
L 291.991392 346.6 
M 292.774917 346.6 
L 292.798397 329.481815 
L 292.83292 346.6 
M 294.320724 346.6 
L 294.42438 181.908219 
L 294.927795 -1 
M 295.701786 -1 
L 295.792928 346.6 
M 297.581865 346.6 
L 297.676345 265.285105 
L 297.821879 -1 
M 298.571635 -1 
L 298.740927 346.6 
M 299.351054 346.6 
L 299.776097 -1 
M 299.86963 -1 
L 300.027294 346.6 
M 300.766564 346.6 
L 300.937704 -1 
M 302.702175 -1 
L 303.096288 197.186804 
L 303.241975 346.6 
M 304.124024 346.6 
L 304.180276 299.531075 
L 304.272906 346.6 
M 304.84787 346.6 
L 305.03907 -1 
M 305.731781 -1 
L 305.806259 64.219808 
L 306.156924 -1 
M 306.447131 -1 
L 307.449738 346.6 
M 308.13183 346.6 
L 308.264608 -1 
M 309.85268 -1 
L 310.142213 120.511104 
L 310.352308 346.6 
M 310.865959 346.6 
L 311.042843 -1 
M 311.505461 -1 
L 311.768195 338.000141 
L 312.31019 320.818345 
L 312.852184 320.818345 
L 313.394178 275.868207 
L 313.640134 346.6 
M 314.067881 346.6 
L 314.478167 81.39621 
L 314.8361 346.6 
M 315.085335 346.6 
L 315.251455 -1 
M 315.832279 -1 
L 315.976703 346.6 
M 316.46819 346.6 
L 316.856538 -1 
M 318.323349 -1 
L 318.814121 182.98801 
L 318.980049 346.6 
M 319.726204 346.6 
L 320.013719 -1 
M 320.844909 -1 
L 320.982097 218.179105 
L 321.104058 -1 
M 322.478016 -1 
L 322.60808 102.693966 
L 322.801582 346.6 
M 323.773982 346.6 
L 324.071928 -1 
M 325.244806 -1 
L 325.496055 346.6 
M 327.035957 346.6 
L 327.199257 -1 
M 327.679648 -1 
L 327.789904 346.6 
M 328.302026 346.6 
L 328.428898 -1 
M 330.231752 -1 
L 330.524621 346.6 
M 330.896117 346.6 
L 331.113153 -1 
M 331.545007 -1 
L 331.862709 346.6 
M 332.642764 346.6 
L 332.757965 -1 
M 333.422244 -1 
L 333.447965 21.248414 
L 333.989959 21.248414 
L 334.406897 346.6 
M 335.256728 346.6 
L 335.615942 34.043411 
L 335.995267 346.6 
M 337.64384 346.6 
L 337.802132 -1 
M 338.811154 -1 
L 338.867907 211.795158 
L 339.267162 -1 
M 339.450721 -1 
L 339.637226 346.6 
M 340.5104 346.6 
L 340.737208 -1 
M 341.248504 -1 
L 341.409962 346.6 
M 342.723988 346.6 
L 343.058786 -1 
M 344.005741 -1 
L 344.100217 346.6 
M 344.63033 346.6 
L 344.802776 -1 
M 344.933555 -1 
L 345.371838 229.577117 
L 345.810104 -1 
M 345.952581 -1 
L 346.199394 346.6 
M 346.783957 346.6 
L 346.997821 111.2155 
L 347.474241 346.6 
M 347.65755 346.6 
L 348.081809 229.852702 
L 348.149238 346.6 
M 348.981752 346.6 
L 349.13318 -1 
M 349.225966 -1 
L 349.5053 346.6 
M 351.160701 346.6 
L 351.333774 114.333211 
L 351.694566 346.6 
M 351.976668 346.6 
L 352.277324 -1 
M 354.21868 -1 
L 354.346249 346.6 
M 354.835074 346.6 
L 354.967886 -1 
M 355.386051 -1 
L 355.600676 346.6 
M 357.277373 346.6 
L 357.295711 341.276859 
L 357.438258 -1 
M 359.669608 -1 
L 360.07871 346.6 
M 361.152721 346.6 
L 361.269619 -1 
M 361.894196 -1 
L 361.978962 346.6 
M 362.675493 346.6 
L 362.715653 282.707339 
L 362.837161 346.6 
M 363.44049 346.6 
L 363.727937 -1 
M 363.866783 -1 
L 364.135938 346.6 
M 364.541471 346.6 
L 364.802953 -1 
M 364.935773 -1 
L 365.104772 346.6 
M 365.776344 346.6 
L 365.961075 -1 
M 365.97332 -1 
L 366.134277 346.6 
M 368.885993 346.6 
L 369.029965 -1 
M 369.53943 -1 
L 369.761578 316.971706 
L 370.303573 174.291524 
L 370.521035 -1 
M 371.654404 -1 
L 371.836188 346.6 
M 372.666015 346.6 
L 372.862814 -1 
M 373.249876 -1 
L 373.55654 346.6 
M 374.435769 346.6 
L 374.502382 -1 
M 375.587192 -1 
L 375.699208 346.6 
M 376.38335 346.6 
L 376.807503 0.359658 
L 377.349498 22.332397 
L 377.547503 346.6 
M 378.105132 346.6 
L 378.236955 -1 
M 380.393129 -1 
L 380.601463 281.586721 
L 380.881656 -1 
M 381.221202 -1 
L 381.323552 346.6 
M 383.711153 346.6 
L 383.853428 207.576644 
L 384.395423 207.576644 
L 384.453898 346.6 
M 385.428615 346.6 
L 385.479411 227.722911 
L 385.925943 -1 
M 386.143176 -1 
L 386.5634 167.742647 
L 386.792752 -1 
M 388.945426 -1 
L 389.057545 346.6 
M 389.727191 346.6 
L 389.815365 216.595096 
L 390.357359 206.133505 
L 390.978482 -1 
M 391.694799 -1 
L 391.983342 187.12178 
L 392.342178 -1 
M 392.580978 -1 
L 392.782404 346.6 
M 393.531423 346.6 
L 393.609325 264.065203 
L 393.694612 346.6 
M 394.941792 346.6 
L 395.11209 -1 
M 395.472631 -1 
L 395.777302 321.871195 
L 395.959569 -1 
M 397.356399 -1 
L 397.403284 59.343391 
L 398.487273 307.739901 
L 398.487273 307.739901 
" style="fill:none;stroke:#1f77b4;stroke-linecap:square;stroke-width:1.5;"/>
   </g>
   <g id="line2d_17">
    <path clip-path="url(#peac207b760)" d="M 73.959322 346.6 
L 74.098983 -1 
M 75.628911 -1 
L 75.768548 346.6 
M 76.924974 346.6 
L 77.07258 -1 
M 78.185668 -1 
L 78.710675 26.023745 
L 79.25267 177.333268 
L 79.498032 346.6 
M 80.136808 346.6 
L 80.336658 227.07 
L 80.686508 346.6 
M 81.02282 346.6 
L 81.420647 165.446367 
L 81.962641 77.767906 
L 82.073529 346.6 
M 82.827465 346.6 
L 82.934833 -1 
M 83.282681 -1 
L 83.509383 346.6 
M 83.758979 346.6 
L 84.130618 81.54651 
L 84.276992 346.6 
M 85.52004 346.6 
L 85.7566 250.588362 
L 85.791832 346.6 
M 86.656394 346.6 
L 86.746453 -1 
M 87.743379 -1 
L 87.924577 257.245178 
L 88.080214 -1 
M 88.742148 -1 
L 88.89157 346.6 
M 90.984162 346.6 
L 91.087384 -1 
M 91.86031 -1 
L 92.007421 346.6 
M 93.821051 346.6 
L 93.886514 191.256862 
L 94.161273 346.6 
M 94.521617 346.6 
L 94.735826 -1 
M 95.580209 -1 
L 95.698678 346.6 
M 97.147968 346.6 
L 97.354466 -1 
M 98.137682 -1 
L 98.222468 100.765651 
L 98.764462 262.143527 
L 98.889948 -1 
M 100.693437 -1 
L 100.815425 346.6 
M 101.374015 346.6 
L 101.474433 270.776242 
L 101.546789 346.6 
M 102.238435 346.6 
L 102.395238 -1 
M 102.750392 -1 
L 102.934856 346.6 
M 103.248808 346.6 
L 103.414145 -1 
M 104.130213 -1 
L 104.184404 52.313844 
L 104.216985 -1 
M 105.413519 -1 
L 105.519501 346.6 
M 106.32561 346.6 
L 106.352381 297.026606 
L 106.419301 346.6 
M 107.575337 346.6 
L 107.810213 -1 
M 108.35889 -1 
L 108.520358 104.594601 
L 108.658579 346.6 
M 109.296477 346.6 
L 109.411593 -1 
M 110.432579 -1 
L 110.595045 346.6 
M 110.8163 346.6 
L 111.039154 -1 
M 111.457465 -1 
L 111.722238 346.6 
M 112.355291 346.6 
L 112.423927 -1 
M 113.534122 -1 
L 113.841357 346.6 
M 114.980538 346.6 
L 115.024289 320.732744 
L 115.254581 -1 
M 115.702363 -1 
L 115.810985 346.6 
M 116.997163 346.6 
L 117.324234 -1 
M 117.871279 -1 
L 118.017323 346.6 
M 118.719011 346.6 
L 118.818249 208.468689 
L 119.360243 53.966424 
L 119.72408 346.6 
M 120.543719 346.6 
L 120.636219 -1 
M 122.017161 -1 
L 122.267292 346.6 
M 122.826138 346.6 
L 122.976747 -1 
M 123.260027 -1 
L 123.349841 346.6 
M 125.124676 346.6 
L 125.285963 -1 
M 127.278736 -1 
L 127.474975 346.6 
M 127.530126 346.6 
L 128.032151 8.841738 
L 128.235551 346.6 
M 131.482242 346.6 
L 131.555734 -1 
M 132.339897 -1 
L 132.579746 346.6 
M 133.214318 346.6 
L 133.468625 -1 
M 134.118018 -1 
L 134.26556 346.6 
M 134.898673 346.6 
L 135.078076 31.260494 
L 135.276111 346.6 
M 135.868969 346.6 
L 136.026935 -1 
M 136.547129 -1 
L 136.704058 120.181851 
L 136.856715 -1 
M 137.979388 -1 
L 138.092997 346.6 
M 138.68013 346.6 
L 138.847918 -1 
M 140.1042 -1 
L 140.225993 346.6 
M 140.893969 346.6 
L 141.12851 -1 
M 141.817676 -1 
L 142.078685 346.6 
M 142.143516 346.6 
L 142.25592 -1 
M 143.430011 -1 
L 143.749983 126.591881 
L 144.088092 346.6 
M 144.460824 346.6 
L 144.879095 -1 
M 145.913241 -1 
L 145.91796 4.261873 
L 146.463885 346.6 
M 147.837322 346.6 
L 147.998514 -1 
M 148.156894 -1 
L 148.287724 346.6 
M 149.240148 346.6 
L 149.417508 -1 
M 151.390539 -1 
L 151.5203 346.6 
M 152.777034 346.6 
L 152.963885 188.121923 
L 153.505879 311.780888 
L 154.047874 164.96069 
L 154.17458 346.6 
M 156.069212 346.6 
L 156.18201 -1 
M 156.796738 -1 
L 157.053314 346.6 
M 157.463672 346.6 
L 157.634185 -1 
M 158.026867 -1 
L 158.17881 346.6 
M 158.924508 346.6 
L 158.925822 345.460345 
L 159.467816 345.347021 
L 159.717508 -1 
M 160.141993 -1 
L 160.255316 346.6 
M 161.593467 346.6 
L 161.635793 308.995794 
L 161.658088 346.6 
M 162.568916 346.6 
L 162.719781 8.495325 
L 162.905354 346.6 
M 163.554287 346.6 
L 163.710861 -1 
M 164.032626 -1 
L 164.345764 281.220924 
L 164.894769 346.6 
M 165.494211 346.6 
L 165.629447 -1 
M 166.24147 -1 
L 166.348033 346.6 
M 166.790806 346.6 
L 166.968979 -1 
M 167.141237 -1 
L 167.316833 346.6 
M 168.076859 346.6 
L 168.139724 273.64332 
L 168.182917 346.6 
M 169.073773 346.6 
L 169.223712 24.383743 
L 169.32967 346.6 
M 170.259406 346.6 
L 170.307701 216.889905 
L 170.707178 -1 
M 170.900427 -1 
L 171.127281 346.6 
M 172.389998 346.6 
L 172.475678 311.500438 
L 172.654491 -1 
M 173.320202 -1 
L 173.485884 346.6 
M 173.644414 346.6 
L 173.834721 -1 
M 174.359302 -1 
L 174.542979 346.6 
M 175.470726 346.6 
L 175.660336 -1 
M 177.506804 -1 
L 177.745898 346.6 
M 178.003263 346.6 
L 178.17516 -1 
M 178.961031 -1 
L 178.979608 17.836386 
L 179.007078 -1 
M 179.688375 -1 
L 179.852679 346.6 
M 180.334728 346.6 
L 180.545936 -1 
M 180.698068 -1 
L 181.025482 346.6 
M 181.186705 346.6 
L 181.291604 -1 
M 182.533795 -1 
L 182.686528 346.6 
M 182.925789 346.6 
L 183.1929 -1 
M 183.405699 -1 
L 183.601981 346.6 
M 184.194421 346.6 
L 184.399551 70.990821 
L 184.558936 346.6 
M 185.198149 346.6 
L 185.332966 -1 
M 185.671069 -1 
L 185.838976 346.6 
M 186.732305 346.6 
L 186.950366 -1 
M 187.739951 -1 
L 188.049097 346.6 
M 188.621592 346.6 
L 189.277499 108.638804 
L 189.443243 346.6 
M 190.657585 346.6 
L 190.753614 -1 
M 191.187702 -1 
L 191.36982 346.6 
M 191.507914 346.6 
L 191.658216 -1 
M 192.195061 -1 
L 192.289825 346.6 
M 193.306485 346.6 
L 193.399425 -1 
M 194.370071 -1 
L 194.532817 346.6 
M 194.884837 346.6 
L 195.070097 -1 
M 195.348968 -1 
L 195.468798 346.6 
M 196.255599 346.6 
L 196.323424 216.881074 
L 196.390562 346.6 
M 198.059269 346.6 
L 198.161274 -1 
M 198.93035 -1 
L 199.033395 263.087312 
L 199.575389 263.087312 
L 200.117384 310.240155 
L 200.490108 -1 
M 200.750958 -1 
L 200.976171 346.6 
M 201.382028 346.6 
L 201.562694 -1 
M 202.605498 -1 
L 202.692211 346.6 
M 203.578404 346.6 
L 203.729036 -1 
M 204.092934 -1 
L 204.242973 346.6 
M 204.742515 346.6 
L 204.948767 -1 
M 206.968213 -1 
L 207.145625 346.6 
M 207.964748 346.6 
L 208.184801 -1 
M 208.294555 -1 
L 208.460952 346.6 
M 211.171199 346.6 
L 211.354102 -1 
M 212.15986 -1 
L 212.309301 346.6 
M 213.477004 346.6 
L 213.671842 -1 
M 215.467635 -1 
L 215.673686 346.6 
M 217.045081 346.6 
L 217.244371 -1 
M 217.786986 -1 
L 218.054324 346.6 
M 218.782456 346.6 
L 218.871375 -1 
M 219.841841 -1 
L 219.929465 346.6 
M 220.684208 346.6 
L 220.937425 -1 
M 221.461322 -1 
L 221.633668 346.6 
M 222.818518 346.6 
L 222.881141 249.586899 
L 223.423136 137.923067 
L 223.527699 346.6 
M 225.676259 346.6 
L 225.985236 -1 
M 226.25855 -1 
L 226.520662 346.6 
M 227.441958 346.6 
L 227.61828 -1 
M 228.075917 -1 
L 228.301084 196.280611 
L 228.861957 -1 
M 229.71431 -1 
L 229.833188 346.6 
M 230.0782 346.6 
L 230.269583 -1 
M 230.693021 -1 
L 230.907893 346.6 
M 233.807438 346.6 
L 233.940432 -1 
M 234.466105 -1 
L 234.549832 346.6 
M 235.083597 346.6 
L 235.175001 -1 
M 236.202637 -1 
L 236.294767 346.6 
M 236.836321 346.6 
L 236.972991 173.289987 
L 237.074126 346.6 
M 238.344176 346.6 
L 238.536847 -1 
M 238.734508 -1 
L 239.238928 346.6 
M 239.837281 346.6 
L 240.224957 216.077409 
L 240.344373 346.6 
M 242.465618 346.6 
L 242.750134 -1 
M 243.058894 -1 
L 243.249757 346.6 
M 245.117748 346.6 
L 245.292018 -1 
M 245.848338 -1 
L 245.948807 346.6 
M 246.609371 346.6 
L 246.728888 113.569825 
L 247.270882 271.473313 
L 247.302501 346.6 
M 248.673405 346.6 
L 248.781219 -1 
M 249.551528 -1 
L 249.687961 346.6 
M 250.828269 346.6 
L 250.948717 -1 
M 251.211257 -1 
L 251.363124 346.6 
M 252.286414 346.6 
L 252.690824 94.275976 
L 252.957651 -1 
M 253.264671 -1 
L 253.377356 346.6 
M 255.510572 346.6 
L 255.673334 -1 
M 256.636697 -1 
L 256.777827 346.6 
M 257.551471 346.6 
L 257.739465 -1 
M 259.833328 -1 
L 260.145266 346.6 
M 261.233599 346.6 
L 261.362732 168.810101 
L 261.63372 -1 
M 262.099071 -1 
L 262.44672 302.780043 
L 262.988715 84.085315 
L 263.096328 346.6 
M 264.090069 346.6 
L 264.3605 -1 
M 266.055022 -1 
L 266.24068 237.221721 
L 266.713216 -1 
M 266.825198 -1 
L 267.24733 346.6 
M 268.324934 346.6 
L 268.408657 229.154904 
L 268.520687 346.6 
M 269.407577 346.6 
L 269.492645 262.681763 
L 269.918324 -1 
M 270.096536 -1 
L 270.395152 346.6 
M 271.8917 346.6 
L 271.956602 -1 
M 273.817674 -1 
L 273.828599 28.78753 
L 274.273764 346.6 
M 275.224382 346.6 
L 275.454582 92.096392 
L 275.591387 346.6 
M 276.492195 346.6 
L 276.53857 276.067297 
L 276.76239 346.6 
M 277.794201 346.6 
L 278.164553 158.085939 
L 278.390706 346.6 
M 279.462008 346.6 
L 279.600782 -1 
M 280.729862 -1 
L 280.874524 214.220725 
L 281.416518 181.285117 
L 281.958513 181.285117 
L 282.500507 323.317979 
L 282.830528 -1 
M 283.767139 -1 
L 284.07191 346.6 
M 284.178062 346.6 
L 284.466042 -1 
M 285.097171 -1 
L 285.210478 63.585171 
L 285.239197 -1 
M 286.57459 -1 
L 286.804122 346.6 
M 286.877449 346.6 
L 287.168374 -1 
M 287.485231 -1 
L 287.633096 346.6 
M 289.950304 346.6 
L 290.066117 -1 
M 290.248667 -1 
L 291.128633 346.6 
M 292.069395 346.6 
L 292.205976 -1 
M 293.310371 -1 
L 293.340392 68.470268 
L 293.375655 -1 
M 295.186141 -1 
L 295.301072 346.6 
M 295.92316 346.6 
L 296.050363 154.336451 
L 296.592357 74.81631 
L 297.134351 147.93476 
L 297.336586 -1 
M 298.515496 -1 
L 298.625259 346.6 
M 299.92348 346.6 
L 300.084532 -1 
M 300.585604 -1 
L 300.691957 346.6 
M 301.188366 346.6 
L 301.305383 -1 
M 301.635821 -1 
L 301.75326 346.6 
M 302.395156 346.6 
L 302.554294 27.908326 
L 303.096288 105.311836 
L 303.638282 128.766671 
L 303.795356 346.6 
M 304.365207 346.6 
L 304.485628 -1 
M 305.115078 -1 
L 305.264265 258.431656 
L 305.806259 259.364075 
L 306.331696 -1 
M 306.389663 -1 
L 306.890247 98.18223 
L 307.288026 -1 
M 307.449069 -1 
L 307.611738 346.6 
M 308.256072 346.6 
L 308.382545 -1 
M 308.821514 -1 
L 309.097945 346.6 
M 309.805651 346.6 
L 309.895703 -1 
M 311.56368 -1 
L 311.829495 346.6 
M 313.691612 346.6 
L 313.864416 -1 
M 314.107288 -1 
L 314.478167 311.844171 
L 314.648322 -1 
M 315.149582 -1 
L 315.215386 346.6 
M 316.097714 346.6 
L 316.104149 324.589876 
L 316.371168 -1 
M 316.746945 -1 
L 316.851447 346.6 
M 317.564515 346.6 
L 317.681334 -1 
M 317.97467 -1 
L 318.272126 175.620211 
L 318.360251 -1 
M 319.146408 -1 
L 319.273383 346.6 
M 321.03144 346.6 
L 321.452357 -1 
M 323.695524 -1 
L 323.857928 346.6 
M 325.686733 346.6 
L 325.790002 -1 
M 326.136999 -1 
L 326.523472 346.6 
M 327.405549 346.6 
L 327.486028 272.935255 
L 327.937372 -1 
M 328.086251 -1 
L 328.454134 346.6 
M 330.186568 346.6 
L 330.41355 -1 
M 332.538401 -1 
L 332.668281 346.6 
M 335.64636 346.6 
L 335.969909 -1 
M 337.53827 -1 
L 337.65174 346.6 
M 338.075087 346.6 
L 338.325044 -1 
M 338.332834 -1 
L 338.867907 92.428784 
L 339.028457 346.6 
M 340.752506 346.6 
L 340.957886 -1 
M 341.204314 -1 
L 341.602778 346.6 
M 343.112214 346.6 
L 343.203861 114.962459 
L 343.401071 346.6 
M 343.94552 346.6 
L 344.116898 -1 
M 344.861138 -1 
L 345.240714 346.6 
M 346.825004 346.6 
L 346.997821 98.122321 
L 347.219677 346.6 
M 347.66397 346.6 
L 347.784332 -1 
M 348.439081 -1 
L 348.583636 346.6 
M 348.759502 346.6 
L 349.165798 57.409817 
L 349.424118 346.6 
M 352.894583 346.6 
L 353.208843 -1 
M 353.633375 -1 
L 353.774794 346.6 
M 354.357341 346.6 
L 354.522234 -1 
M 354.866658 -1 
L 355.127734 123.417334 
L 355.389775 -1 
M 356.661995 -1 
L 356.753717 46.57698 
L 357.295711 250.241496 
L 357.757949 -1 
M 358.562712 -1 
L 358.921694 254.150042 
L 359.340155 -1 
M 359.505602 -1 
L 359.699031 346.6 
M 360.1863 346.6 
L 360.300229 -1 
M 360.977659 -1 
L 361.14455 346.6 
M 362.136512 346.6 
L 362.173659 248.02687 
L 362.715653 76.341595 
L 363.257648 171.488427 
L 363.391021 346.6 
M 364.433598 346.6 
L 364.729894 -1 
M 364.979552 -1 
L 365.164422 346.6 
M 365.949282 346.6 
L 365.967619 329.402315 
L 366.064678 346.6 
M 366.676356 346.6 
L 367.051607 169.177706 
L 367.183839 -1 
M 369.639806 -1 
L 369.761578 54.391739 
L 369.777115 -1 
M 370.98217 -1 
L 371.387561 101.394495 
L 371.679762 346.6 
M 372.025572 346.6 
L 372.184791 -1 
M 373.518493 -1 
L 373.555538 73.906003 
L 374.098504 346.6 
M 376.066638 346.6 
L 376.146763 -1 
M 376.411492 -1 
L 376.509996 346.6 
M 377.65251 346.6 
L 377.891492 2.154732 
L 378.229913 346.6 
M 379.412619 346.6 
L 379.517475 194.966444 
L 379.865337 -1 
M 381.416004 -1 
L 381.685452 276.858998 
L 382.227446 180.468324 
L 382.364407 -1 
M 383.180115 -1 
L 383.311434 170.601323 
L 383.630488 -1 
M 384.574795 -1 
L 384.937417 241.405315 
L 385.062168 -1 
M 385.789035 -1 
L 385.921783 346.6 
M 386.124319 346.6 
L 386.261452 -1 
M 387.262636 -1 
L 387.43176 346.6 
M 387.847824 346.6 
L 388.005032 -1 
M 389.091163 -1 
L 389.370816 346.6 
M 390.257119 346.6 
L 390.357359 282.431953 
L 390.503664 -1 
M 392.837512 -1 
L 392.996575 346.6 
M 393.169718 346.6 
L 393.399894 -1 
M 393.720596 -1 
L 393.842891 346.6 
M 394.588498 346.6 
L 394.693313 136.420033 
L 395.205118 346.6 
M 395.324449 346.6 
L 395.777302 283.618463 
L 395.946548 -1 
M 397.894616 -1 
L 398.16381 346.6 
L 398.16381 346.6 
" style="fill:none;stroke:#ff7f0e;stroke-linecap:square;stroke-width:1.5;"/>
   </g>
   <g id="patch_3">
    <path d="M 57.6 307.584 
L 57.6 41.472 
" style="fill:none;stroke:#000000;stroke-linecap:square;stroke-linejoin:miter;stroke-width:0.8;"/>
   </g>
   <g id="patch_4">
    <path d="M 414.72 307.584 
L 414.72 41.472 
" style="fill:none;stroke:#000000;stroke-linecap:square;stroke-linejoin:miter;stroke-width:0.8;"/>
   </g>
   <g id="patch_5">
    <path d="M 57.6 307.584 
L 414.72 307.584 
" style="fill:none;stroke:#000000;stroke-linecap:square;stroke-linejoin:miter;stroke-width:0.8;"/>
   </g>
   <g id="patch_6">
    <path d="M 57.6 41.472 
L 414.72 41.472 
" style="fill:none;stroke:#000000;stroke-linecap:square;stroke-linejoin:miter;stroke-width:0.8;"/>
   </g>
   <g id="text_16">
    <!-- Polyakov loop 3 direction -->
    <defs>
     <path d="M 19.671875 64.796875 
L 19.671875 37.40625 
L 32.078125 37.40625 
Q 38.96875 37.40625 42.71875 40.96875 
Q 46.484375 44.53125 46.484375 51.125 
Q 46.484375 57.671875 42.71875 61.234375 
Q 38.96875 64.796875 32.078125 64.796875 
z
M 9.8125 72.90625 
L 32.078125 72.90625 
Q 44.34375 72.90625 50.609375 67.359375 
Q 56.890625 61.8125 56.890625 51.125 
Q 56.890625 40.328125 50.609375 34.8125 
Q 44.34375 29.296875 32.078125 29.296875 
L 19.671875 29.296875 
L 19.671875 0 
L 9.8125 0 
z
" id="DejaVuSans-80"/>
     <path d="M 30.609375 48.390625 
Q 23.390625 48.390625 19.1875 42.75 
Q 14.984375 37.109375 14.984375 27.296875 
Q 14.984375 17.484375 19.15625 11.84375 
Q 23.34375 6.203125 30.609375 6.203125 
Q 37.796875 6.203125 41.984375 11.859375 
Q 46.1875 17.53125 46.1875 27.296875 
Q 46.1875 37.015625 41.984375 42.703125 
Q 37.796875 48.390625 30.609375 48.390625 
z
M 30.609375 56 
Q 42.328125 56 49.015625 48.375 
Q 55.71875 40.765625 55.71875 27.296875 
Q 55.71875 13.875 49.015625 6.21875 
Q 42.328125 -1.421875 30.609375 -1.421875 
Q 18.84375 -1.421875 12.171875 6.21875 
Q 5.515625 13.875 5.515625 27.296875 
Q 5.515625 40.765625 12.171875 48.375 
Q 18.84375 56 30.609375 56 
z
" id="DejaVuSans-111"/>
     <path d="M 9.421875 75.984375 
L 18.40625 75.984375 
L 18.40625 0 
L 9.421875 0 
z
" id="DejaVuSans-108"/>
     <path d="M 32.171875 -5.078125 
Q 28.375 -14.84375 24.75 -17.8125 
Q 21.140625 -20.796875 15.09375 -20.796875 
L 7.90625 -20.796875 
L 7.90625 -13.28125 
L 13.1875 -13.28125 
Q 16.890625 -13.28125 18.9375 -11.515625 
Q 21 -9.765625 23.484375 -3.21875 
L 25.09375 0.875 
L 2.984375 54.6875 
L 12.5 54.6875 
L 29.59375 11.921875 
L 46.6875 54.6875 
L 56.203125 54.6875 
z
" id="DejaVuSans-121"/>
     <path d="M 34.28125 27.484375 
Q 23.390625 27.484375 19.1875 25 
Q 14.984375 22.515625 14.984375 16.5 
Q 14.984375 11.71875 18.140625 8.90625 
Q 21.296875 6.109375 26.703125 6.109375 
Q 34.1875 6.109375 38.703125 11.40625 
Q 43.21875 16.703125 43.21875 25.484375 
L 43.21875 27.484375 
z
M 52.203125 31.203125 
L 52.203125 0 
L 43.21875 0 
L 43.21875 8.296875 
Q 40.140625 3.328125 35.546875 0.953125 
Q 30.953125 -1.421875 24.3125 -1.421875 
Q 15.921875 -1.421875 10.953125 3.296875 
Q 6 8.015625 6 15.921875 
Q 6 25.140625 12.171875 29.828125 
Q 18.359375 34.515625 30.609375 34.515625 
L 43.21875 34.515625 
L 43.21875 35.40625 
Q 43.21875 41.609375 39.140625 45 
Q 35.0625 48.390625 27.6875 48.390625 
Q 23 48.390625 18.546875 47.265625 
Q 14.109375 46.140625 10.015625 43.890625 
L 10.015625 52.203125 
Q 14.9375 54.109375 19.578125 55.046875 
Q 24.21875 56 28.609375 56 
Q 40.484375 56 46.34375 49.84375 
Q 52.203125 43.703125 52.203125 31.203125 
z
" id="DejaVuSans-97"/>
     <path d="M 9.078125 75.984375 
L 18.109375 75.984375 
L 18.109375 31.109375 
L 44.921875 54.6875 
L 56.390625 54.6875 
L 27.390625 29.109375 
L 57.625 0 
L 45.90625 0 
L 18.109375 26.703125 
L 18.109375 0 
L 9.078125 0 
z
" id="DejaVuSans-107"/>
     <path d="M 2.984375 54.6875 
L 12.5 54.6875 
L 29.59375 8.796875 
L 46.6875 54.6875 
L 56.203125 54.6875 
L 35.6875 0 
L 23.484375 0 
z
" id="DejaVuSans-118"/>
     <path id="DejaVuSans-32"/>
     <path d="M 18.109375 8.203125 
L 18.109375 -20.796875 
L 9.078125 -20.796875 
L 9.078125 54.6875 
L 18.109375 54.6875 
L 18.109375 46.390625 
Q 20.953125 51.265625 25.265625 53.625 
Q 29.59375 56 35.59375 56 
Q 45.5625 56 51.78125 48.09375 
Q 58.015625 40.1875 58.015625 27.296875 
Q 58.015625 14.40625 51.78125 6.484375 
Q 45.5625 -1.421875 35.59375 -1.421875 
Q 29.59375 -1.421875 25.265625 0.953125 
Q 20.953125 3.328125 18.109375 8.203125 
z
M 48.6875 27.296875 
Q 48.6875 37.203125 44.609375 42.84375 
Q 40.53125 48.484375 33.40625 48.484375 
Q 26.265625 48.484375 22.1875 42.84375 
Q 18.109375 37.203125 18.109375 27.296875 
Q 18.109375 17.390625 22.1875 11.75 
Q 26.265625 6.109375 33.40625 6.109375 
Q 40.53125 6.109375 44.609375 11.75 
Q 48.6875 17.390625 48.6875 27.296875 
z
" id="DejaVuSans-112"/>
     <path d="M 45.40625 46.390625 
L 45.40625 75.984375 
L 54.390625 75.984375 
L 54.390625 0 
L 45.40625 0 
L 45.40625 8.203125 
Q 42.578125 3.328125 38.25 0.953125 
Q 33.9375 -1.421875 27.875 -1.421875 
Q 17.96875 -1.421875 11.734375 6.484375 
Q 5.515625 14.40625 5.515625 27.296875 
Q 5.515625 40.1875 11.734375 48.09375 
Q 17.96875 56 27.875 56 
Q 33.9375 56 38.25 53.625 
Q 42.578125 51.265625 45.40625 46.390625 
z
M 14.796875 27.296875 
Q 14.796875 17.390625 18.875 11.75 
Q 22.953125 6.109375 30.078125 6.109375 
Q 37.203125 6.109375 41.296875 11.75 
Q 45.40625 17.390625 45.40625 27.296875 
Q 45.40625 37.203125 41.296875 42.84375 
Q 37.203125 48.484375 30.078125 48.484375 
Q 22.953125 48.484375 18.875 42.84375 
Q 14.796875 37.203125 14.796875 27.296875 
z
" id="DejaVuSans-100"/>
     <path d="M 9.421875 54.6875 
L 18.40625 54.6875 
L 18.40625 0 
L 9.421875 0 
z
M 9.421875 75.984375 
L 18.40625 75.984375 
L 18.40625 64.59375 
L 9.421875 64.59375 
z
" id="DejaVuSans-105"/>
     <path d="M 41.109375 46.296875 
Q 39.59375 47.171875 37.8125 47.578125 
Q 36.03125 48 33.890625 48 
Q 26.265625 48 22.1875 43.046875 
Q 18.109375 38.09375 18.109375 28.8125 
L 18.109375 0 
L 9.078125 0 
L 9.078125 54.6875 
L 18.109375 54.6875 
L 18.109375 46.1875 
Q 20.953125 51.171875 25.484375 53.578125 
Q 30.03125 56 36.53125 56 
Q 37.453125 56 38.578125 55.875 
Q 39.703125 55.765625 41.0625 55.515625 
z
" id="DejaVuSans-114"/>
     <path d="M 56.203125 29.59375 
L 56.203125 25.203125 
L 14.890625 25.203125 
Q 15.484375 15.921875 20.484375 11.0625 
Q 25.484375 6.203125 34.421875 6.203125 
Q 39.59375 6.203125 44.453125 7.46875 
Q 49.3125 8.734375 54.109375 11.28125 
L 54.109375 2.78125 
Q 49.265625 0.734375 44.1875 -0.34375 
Q 39.109375 -1.421875 33.890625 -1.421875 
Q 20.796875 -1.421875 13.15625 6.1875 
Q 5.515625 13.8125 5.515625 26.8125 
Q 5.515625 40.234375 12.765625 48.109375 
Q 20.015625 56 32.328125 56 
Q 43.359375 56 49.78125 48.890625 
Q 56.203125 41.796875 56.203125 29.59375 
z
M 47.21875 32.234375 
Q 47.125 39.59375 43.09375 43.984375 
Q 39.0625 48.390625 32.421875 48.390625 
Q 24.90625 48.390625 20.390625 44.140625 
Q 15.875 39.890625 15.1875 32.171875 
z
" id="DejaVuSans-101"/>
     <path d="M 48.78125 52.59375 
L 48.78125 44.1875 
Q 44.96875 46.296875 41.140625 47.34375 
Q 37.3125 48.390625 33.40625 48.390625 
Q 24.65625 48.390625 19.8125 42.84375 
Q 14.984375 37.3125 14.984375 27.296875 
Q 14.984375 17.28125 19.8125 11.734375 
Q 24.65625 6.203125 33.40625 6.203125 
Q 37.3125 6.203125 41.140625 7.25 
Q 44.96875 8.296875 48.78125 10.40625 
L 48.78125 2.09375 
Q 45.015625 0.34375 40.984375 -0.53125 
Q 36.96875 -1.421875 32.421875 -1.421875 
Q 20.0625 -1.421875 12.78125 6.34375 
Q 5.515625 14.109375 5.515625 27.296875 
Q 5.515625 40.671875 12.859375 48.328125 
Q 20.21875 56 33.015625 56 
Q 37.15625 56 41.109375 55.140625 
Q 45.0625 54.296875 48.78125 52.59375 
z
" id="DejaVuSans-99"/>
     <path d="M 18.3125 70.21875 
L 18.3125 54.6875 
L 36.8125 54.6875 
L 36.8125 47.703125 
L 18.3125 47.703125 
L 18.3125 18.015625 
Q 18.3125 11.328125 20.140625 9.421875 
Q 21.96875 7.515625 27.59375 7.515625 
L 36.8125 7.515625 
L 36.8125 0 
L 27.59375 0 
Q 17.1875 0 13.234375 3.875 
Q 9.28125 7.765625 9.28125 18.015625 
L 9.28125 47.703125 
L 2.6875 47.703125 
L 2.6875 54.6875 
L 9.28125 54.6875 
L 9.28125 70.21875 
z
" id="DejaVuSans-116"/>
     <path d="M 54.890625 33.015625 
L 54.890625 0 
L 45.90625 0 
L 45.90625 32.71875 
Q 45.90625 40.484375 42.875 44.328125 
Q 39.84375 48.1875 33.796875 48.1875 
Q 26.515625 48.1875 22.3125 43.546875 
Q 18.109375 38.921875 18.109375 30.90625 
L 18.109375 0 
L 9.078125 0 
L 9.078125 54.6875 
L 18.109375 54.6875 
L 18.109375 46.1875 
Q 21.34375 51.125 25.703125 53.5625 
Q 30.078125 56 35.796875 56 
Q 45.21875 56 50.046875 50.171875 
Q 54.890625 44.34375 54.890625 33.015625 
z
" id="DejaVuSans-110"/>
    </defs>
    <g transform="translate(161.06625 35.472)scale(0.12 -0.12)">
     <use xlink:href="#DejaVuSans-80"/>
     <use x="56.677734" xlink:href="#DejaVuSans-111"/>
     <use x="117.859375" xlink:href="#DejaVuSans-108"/>
     <use x="145.642578" xlink:href="#DejaVuSans-121"/>
     <use x="204.822266" xlink:href="#DejaVuSans-97"/>
     <use x="266.101562" xlink:href="#DejaVuSans-107"/>
     <use x="320.386719" xlink:href="#DejaVuSans-111"/>
     <use x="381.568359" xlink:href="#DejaVuSans-118"/>
     <use x="440.748047" xlink:href="#DejaVuSans-32"/>
     <use x="472.535156" xlink:href="#DejaVuSans-108"/>
     <use x="500.318359" xlink:href="#DejaVuSans-111"/>
     <use x="561.5" xlink:href="#DejaVuSans-111"/>
     <use x="622.681641" xlink:href="#DejaVuSans-112"/>
     <use x="686.158203" xlink:href="#DejaVuSans-32"/>
     <use x="717.945312" xlink:href="#DejaVuSans-51"/>
     <use x="781.568359" xlink:href="#DejaVuSans-32"/>
     <use x="813.355469" xlink:href="#DejaVuSans-100"/>
     <use x="876.832031" xlink:href="#DejaVuSans-105"/>
     <use x="904.615234" xlink:href="#DejaVuSans-114"/>
     <use x="943.478516" xlink:href="#DejaVuSans-101"/>
     <use x="1005.001953" xlink:href="#DejaVuSans-99"/>
     <use x="1059.982422" xlink:href="#DejaVuSans-116"/>
     <use x="1099.191406" xlink:href="#DejaVuSans-105"/>
     <use x="1126.974609" xlink:href="#DejaVuSans-111"/>
     <use x="1188.15625" xlink:href="#DejaVuSans-110"/>
    </g>
   </g>
   <g id="legend_1">
    <g id="patch_7">
     <path d="M 64.6 190.706125 
L 210.540625 190.706125 
Q 212.540625 190.706125 212.540625 188.706125 
L 212.540625 160.349875 
Q 212.540625 158.349875 210.540625 158.349875 
L 64.6 158.349875 
Q 62.6 158.349875 62.6 160.349875 
L 62.6 188.706125 
Q 62.6 190.706125 64.6 190.706125 
z
" style="fill:#ffffff;opacity:0.8;stroke:#cccccc;stroke-linejoin:miter;"/>
    </g>
    <g id="line2d_18">
     <path d="M 66.6 166.448312 
L 86.6 166.448312 
" style="fill:none;stroke:#1f77b4;stroke-linecap:square;stroke-width:1.5;"/>
    </g>
    <g id="line2d_19"/>
    <g id="text_17">
     <!-- real0.0000+/-0.0000 -->
     <defs>
      <path d="M 46 62.703125 
L 46 35.5 
L 73.1875 35.5 
L 73.1875 27.203125 
L 46 27.203125 
L 46 0 
L 37.796875 0 
L 37.796875 27.203125 
L 10.59375 27.203125 
L 10.59375 35.5 
L 37.796875 35.5 
L 37.796875 62.703125 
z
" id="DejaVuSans-43"/>
      <path d="M 25.390625 72.90625 
L 33.6875 72.90625 
L 8.296875 -9.28125 
L 0 -9.28125 
z
" id="DejaVuSans-47"/>
      <path d="M 4.890625 31.390625 
L 31.203125 31.390625 
L 31.203125 23.390625 
L 4.890625 23.390625 
z
" id="DejaVuSans-45"/>
     </defs>
     <g transform="translate(94.6 169.948312)scale(0.1 -0.1)">
      <use xlink:href="#DejaVuSans-114"/>
      <use x="38.863281" xlink:href="#DejaVuSans-101"/>
      <use x="100.386719" xlink:href="#DejaVuSans-97"/>
      <use x="161.666016" xlink:href="#DejaVuSans-108"/>
      <use x="189.449219" xlink:href="#DejaVuSans-48"/>
      <use x="253.072266" xlink:href="#DejaVuSans-46"/>
      <use x="284.859375" xlink:href="#DejaVuSans-48"/>
      <use x="348.482422" xlink:href="#DejaVuSans-48"/>
      <use x="412.105469" xlink:href="#DejaVuSans-48"/>
      <use x="475.728516" xlink:href="#DejaVuSans-48"/>
      <use x="539.351562" xlink:href="#DejaVuSans-43"/>
      <use x="623.140625" xlink:href="#DejaVuSans-47"/>
      <use x="656.832031" xlink:href="#DejaVuSans-45"/>
      <use x="692.916016" xlink:href="#DejaVuSans-48"/>
      <use x="756.539062" xlink:href="#DejaVuSans-46"/>
      <use x="788.326172" xlink:href="#DejaVuSans-48"/>
      <use x="851.949219" xlink:href="#DejaVuSans-48"/>
      <use x="915.572266" xlink:href="#DejaVuSans-48"/>
      <use x="979.195312" xlink:href="#DejaVuSans-48"/>
     </g>
    </g>
    <g id="line2d_20">
     <path d="M 66.6 181.126437 
L 86.6 181.126437 
" style="fill:none;stroke:#ff7f0e;stroke-linecap:square;stroke-width:1.5;"/>
    </g>
    <g id="line2d_21"/>
    <g id="text_18">
     <!-- imag-0.0001+/-0.0000 -->
     <defs>
      <path d="M 52 44.1875 
Q 55.375 50.25 60.0625 53.125 
Q 64.75 56 71.09375 56 
Q 79.640625 56 84.28125 50.015625 
Q 88.921875 44.046875 88.921875 33.015625 
L 88.921875 0 
L 79.890625 0 
L 79.890625 32.71875 
Q 79.890625 40.578125 77.09375 44.375 
Q 74.3125 48.1875 68.609375 48.1875 
Q 61.625 48.1875 57.5625 43.546875 
Q 53.515625 38.921875 53.515625 30.90625 
L 53.515625 0 
L 44.484375 0 
L 44.484375 32.71875 
Q 44.484375 40.625 41.703125 44.40625 
Q 38.921875 48.1875 33.109375 48.1875 
Q 26.21875 48.1875 22.15625 43.53125 
Q 18.109375 38.875 18.109375 30.90625 
L 18.109375 0 
L 9.078125 0 
L 9.078125 54.6875 
L 18.109375 54.6875 
L 18.109375 46.1875 
Q 21.1875 51.21875 25.484375 53.609375 
Q 29.78125 56 35.6875 56 
Q 41.65625 56 45.828125 52.96875 
Q 50 49.953125 52 44.1875 
z
" id="DejaVuSans-109"/>
      <path d="M 45.40625 27.984375 
Q 45.40625 37.75 41.375 43.109375 
Q 37.359375 48.484375 30.078125 48.484375 
Q 22.859375 48.484375 18.828125 43.109375 
Q 14.796875 37.75 14.796875 27.984375 
Q 14.796875 18.265625 18.828125 12.890625 
Q 22.859375 7.515625 30.078125 7.515625 
Q 37.359375 7.515625 41.375 12.890625 
Q 45.40625 18.265625 45.40625 27.984375 
z
M 54.390625 6.78125 
Q 54.390625 -7.171875 48.1875 -13.984375 
Q 42 -20.796875 29.203125 -20.796875 
Q 24.46875 -20.796875 20.265625 -20.09375 
Q 16.0625 -19.390625 12.109375 -17.921875 
L 12.109375 -9.1875 
Q 16.0625 -11.328125 19.921875 -12.34375 
Q 23.78125 -13.375 27.78125 -13.375 
Q 36.625 -13.375 41.015625 -8.765625 
Q 45.40625 -4.15625 45.40625 5.171875 
L 45.40625 9.625 
Q 42.625 4.78125 38.28125 2.390625 
Q 33.9375 0 27.875 0 
Q 17.828125 0 11.671875 7.65625 
Q 5.515625 15.328125 5.515625 27.984375 
Q 5.515625 40.671875 11.671875 48.328125 
Q 17.828125 56 27.875 56 
Q 33.9375 56 38.28125 53.609375 
Q 42.625 51.21875 45.40625 46.390625 
L 45.40625 54.6875 
L 54.390625 54.6875 
z
" id="DejaVuSans-103"/>
     </defs>
     <g transform="translate(94.6 184.626437)scale(0.1 -0.1)">
      <use xlink:href="#DejaVuSans-105"/>
      <use x="27.783203" xlink:href="#DejaVuSans-109"/>
      <use x="125.195312" xlink:href="#DejaVuSans-97"/>
      <use x="186.474609" xlink:href="#DejaVuSans-103"/>
      <use x="249.951172" xlink:href="#DejaVuSans-45"/>
      <use x="286.035156" xlink:href="#DejaVuSans-48"/>
      <use x="349.658203" xlink:href="#DejaVuSans-46"/>
      <use x="381.445312" xlink:href="#DejaVuSans-48"/>
      <use x="445.068359" xlink:href="#DejaVuSans-48"/>
      <use x="508.691406" xlink:href="#DejaVuSans-48"/>
      <use x="572.314453" xlink:href="#DejaVuSans-49"/>
      <use x="635.9375" xlink:href="#DejaVuSans-43"/>
      <use x="719.726562" xlink:href="#DejaVuSans-47"/>
      <use x="753.417969" xlink:href="#DejaVuSans-45"/>
      <use x="789.501953" xlink:href="#DejaVuSans-48"/>
      <use x="853.125" xlink:href="#DejaVuSans-46"/>
      <use x="884.912109" xlink:href="#DejaVuSans-48"/>
      <use x="948.535156" xlink:href="#DejaVuSans-48"/>
      <use x="1012.158203" xlink:href="#DejaVuSans-48"/>
      <use x="1075.78125" xlink:href="#DejaVuSans-48"/>
     </g>
    </g>
   </g>
  </g>
 </g>
 <defs>
  <clipPath id="peac207b760">
   <rect height="266.112" width="357.12" x="57.6" y="41.472"/>
  </clipPath>
 </defs>
</svg>
