<?xml version="1.0" encoding="utf-8" standalone="no"?>
<!DOCTYPE svg PUBLIC "-//W3C//DTD SVG 1.1//EN"
  "http://www.w3.org/Graphics/SVG/1.1/DTD/svg11.dtd">
<!-- Created with matplotlib (https://matplotlib.org/) -->
<svg height="345.6pt" version="1.1" viewBox="0 0 460.8 345.6" width="460.8pt" xmlns="http://www.w3.org/2000/svg" xmlns:xlink="http://www.w3.org/1999/xlink">
 <defs>
  <style type="text/css">
*{stroke-linecap:butt;stroke-linejoin:round;}
  </style>
 </defs>
 <g id="figure_1">
  <g id="patch_1">
   <path d="M 0 345.6 
L 460.8 345.6 
L 460.8 0 
L 0 0 
z
" style="fill:#ffffff;"/>
  </g>
  <g id="axes_1">
   <g id="patch_2">
    <path d="M 57.6 307.584 
L 414.72 307.584 
L 414.72 41.472 
L 57.6 41.472 
z
" style="fill:#ffffff;"/>
   </g>
   <g id="matplotlib.axis_1">
    <g id="xtick_1">
     <g id="line2d_1">
      <defs>
       <path d="M 0 0 
L 0 3.5 
" id="m961abd1e3b" style="stroke:#000000;stroke-width:0.8;"/>
      </defs>
      <g>
       <use style="stroke:#000000;stroke-width:0.8;" x="73.507748" xlink:href="#m961abd1e3b" y="307.584"/>
      </g>
     </g>
     <g id="text_1">
      <!-- 0 -->
      <defs>
       <path d="M 31.78125 66.40625 
Q 24.171875 66.40625 20.328125 58.90625 
Q 16.5 51.421875 16.5 36.375 
Q 16.5 21.390625 20.328125 13.890625 
Q 24.171875 6.390625 31.78125 6.390625 
Q 39.453125 6.390625 43.28125 13.890625 
Q 47.125 21.390625 47.125 36.375 
Q 47.125 51.421875 43.28125 58.90625 
Q 39.453125 66.40625 31.78125 66.40625 
z
M 31.78125 74.21875 
Q 44.046875 74.21875 50.515625 64.515625 
Q 56.984375 54.828125 56.984375 36.375 
Q 56.984375 17.96875 50.515625 8.265625 
Q 44.046875 -1.421875 31.78125 -1.421875 
Q 19.53125 -1.421875 13.0625 8.265625 
Q 6.59375 17.96875 6.59375 36.375 
Q 6.59375 54.828125 13.0625 64.515625 
Q 19.53125 74.21875 31.78125 74.21875 
z
" id="DejaVuSans-48"/>
      </defs>
      <g transform="translate(70.326498 322.182437)scale(0.1 -0.1)">
       <use xlink:href="#DejaVuSans-48"/>
      </g>
     </g>
    </g>
    <g id="xtick_2">
     <g id="line2d_2">
      <g>
       <use style="stroke:#000000;stroke-width:0.8;" x="138.503653" xlink:href="#m961abd1e3b" y="307.584"/>
      </g>
     </g>
     <g id="text_2">
      <!-- 200 -->
      <defs>
       <path d="M 19.1875 8.296875 
L 53.609375 8.296875 
L 53.609375 0 
L 7.328125 0 
L 7.328125 8.296875 
Q 12.9375 14.109375 22.625 23.890625 
Q 32.328125 33.6875 34.8125 36.53125 
Q 39.546875 41.84375 41.421875 45.53125 
Q 43.3125 49.21875 43.3125 52.78125 
Q 43.3125 58.59375 39.234375 62.25 
Q 35.15625 65.921875 28.609375 65.921875 
Q 23.96875 65.921875 18.8125 64.3125 
Q 13.671875 62.703125 7.8125 59.421875 
L 7.8125 69.390625 
Q 13.765625 71.78125 18.9375 73 
Q 24.125 74.21875 28.421875 74.21875 
Q 39.75 74.21875 46.484375 68.546875 
Q 53.21875 62.890625 53.21875 53.421875 
Q 53.21875 48.921875 51.53125 44.890625 
Q 49.859375 40.875 45.40625 35.40625 
Q 44.1875 33.984375 37.640625 27.21875 
Q 31.109375 20.453125 19.1875 8.296875 
z
" id="DejaVuSans-50"/>
      </defs>
      <g transform="translate(128.959903 322.182437)scale(0.1 -0.1)">
       <use xlink:href="#DejaVuSans-50"/>
       <use x="63.623047" xlink:href="#DejaVuSans-48"/>
       <use x="127.246094" xlink:href="#DejaVuSans-48"/>
      </g>
     </g>
    </g>
    <g id="xtick_3">
     <g id="line2d_3">
      <g>
       <use style="stroke:#000000;stroke-width:0.8;" x="203.499558" xlink:href="#m961abd1e3b" y="307.584"/>
      </g>
     </g>
     <g id="text_3">
      <!-- 400 -->
      <defs>
       <path d="M 37.796875 64.3125 
L 12.890625 25.390625 
L 37.796875 25.390625 
z
M 35.203125 72.90625 
L 47.609375 72.90625 
L 47.609375 25.390625 
L 58.015625 25.390625 
L 58.015625 17.1875 
L 47.609375 17.1875 
L 47.609375 0 
L 37.796875 0 
L 37.796875 17.1875 
L 4.890625 17.1875 
L 4.890625 26.703125 
z
" id="DejaVuSans-52"/>
      </defs>
      <g transform="translate(193.955808 322.182437)scale(0.1 -0.1)">
       <use xlink:href="#DejaVuSans-52"/>
       <use x="63.623047" xlink:href="#DejaVuSans-48"/>
       <use x="127.246094" xlink:href="#DejaVuSans-48"/>
      </g>
     </g>
    </g>
    <g id="xtick_4">
     <g id="line2d_4">
      <g>
       <use style="stroke:#000000;stroke-width:0.8;" x="268.495463" xlink:href="#m961abd1e3b" y="307.584"/>
      </g>
     </g>
     <g id="text_4">
      <!-- 600 -->
      <defs>
       <path d="M 33.015625 40.375 
Q 26.375 40.375 22.484375 35.828125 
Q 18.609375 31.296875 18.609375 23.390625 
Q 18.609375 15.53125 22.484375 10.953125 
Q 26.375 6.390625 33.015625 6.390625 
Q 39.65625 6.390625 43.53125 10.953125 
Q 47.40625 15.53125 47.40625 23.390625 
Q 47.40625 31.296875 43.53125 35.828125 
Q 39.65625 40.375 33.015625 40.375 
z
M 52.59375 71.296875 
L 52.59375 62.3125 
Q 48.875 64.0625 45.09375 64.984375 
Q 41.3125 65.921875 37.59375 65.921875 
Q 27.828125 65.921875 22.671875 59.328125 
Q 17.53125 52.734375 16.796875 39.40625 
Q 19.671875 43.65625 24.015625 45.921875 
Q 28.375 48.1875 33.59375 48.1875 
Q 44.578125 48.1875 50.953125 41.515625 
Q 57.328125 34.859375 57.328125 23.390625 
Q 57.328125 12.15625 50.6875 5.359375 
Q 44.046875 -1.421875 33.015625 -1.421875 
Q 20.359375 -1.421875 13.671875 8.265625 
Q 6.984375 17.96875 6.984375 36.375 
Q 6.984375 53.65625 15.1875 63.9375 
Q 23.390625 74.21875 37.203125 74.21875 
Q 40.921875 74.21875 44.703125 73.484375 
Q 48.484375 72.75 52.59375 71.296875 
z
" id="DejaVuSans-54"/>
      </defs>
      <g transform="translate(258.951713 322.182437)scale(0.1 -0.1)">
       <use xlink:href="#DejaVuSans-54"/>
       <use x="63.623047" xlink:href="#DejaVuSans-48"/>
       <use x="127.246094" xlink:href="#DejaVuSans-48"/>
      </g>
     </g>
    </g>
    <g id="xtick_5">
     <g id="line2d_5">
      <g>
       <use style="stroke:#000000;stroke-width:0.8;" x="333.491368" xlink:href="#m961abd1e3b" y="307.584"/>
      </g>
     </g>
     <g id="text_5">
      <!-- 800 -->
      <defs>
       <path d="M 31.78125 34.625 
Q 24.75 34.625 20.71875 30.859375 
Q 16.703125 27.09375 16.703125 20.515625 
Q 16.703125 13.921875 20.71875 10.15625 
Q 24.75 6.390625 31.78125 6.390625 
Q 38.8125 6.390625 42.859375 10.171875 
Q 46.921875 13.96875 46.921875 20.515625 
Q 46.921875 27.09375 42.890625 30.859375 
Q 38.875 34.625 31.78125 34.625 
z
M 21.921875 38.8125 
Q 15.578125 40.375 12.03125 44.71875 
Q 8.5 49.078125 8.5 55.328125 
Q 8.5 64.0625 14.71875 69.140625 
Q 20.953125 74.21875 31.78125 74.21875 
Q 42.671875 74.21875 48.875 69.140625 
Q 55.078125 64.0625 55.078125 55.328125 
Q 55.078125 49.078125 51.53125 44.71875 
Q 48 40.375 41.703125 38.8125 
Q 48.828125 37.15625 52.796875 32.3125 
Q 56.78125 27.484375 56.78125 20.515625 
Q 56.78125 9.90625 50.3125 4.234375 
Q 43.84375 -1.421875 31.78125 -1.421875 
Q 19.734375 -1.421875 13.25 4.234375 
Q 6.78125 9.90625 6.78125 20.515625 
Q 6.78125 27.484375 10.78125 32.3125 
Q 14.796875 37.15625 21.921875 38.8125 
z
M 18.3125 54.390625 
Q 18.3125 48.734375 21.84375 45.5625 
Q 25.390625 42.390625 31.78125 42.390625 
Q 38.140625 42.390625 41.71875 45.5625 
Q 45.3125 48.734375 45.3125 54.390625 
Q 45.3125 60.0625 41.71875 63.234375 
Q 38.140625 66.40625 31.78125 66.40625 
Q 25.390625 66.40625 21.84375 63.234375 
Q 18.3125 60.0625 18.3125 54.390625 
z
" id="DejaVuSans-56"/>
      </defs>
      <g transform="translate(323.947618 322.182437)scale(0.1 -0.1)">
       <use xlink:href="#DejaVuSans-56"/>
       <use x="63.623047" xlink:href="#DejaVuSans-48"/>
       <use x="127.246094" xlink:href="#DejaVuSans-48"/>
      </g>
     </g>
    </g>
    <g id="xtick_6">
     <g id="line2d_6">
      <g>
       <use style="stroke:#000000;stroke-width:0.8;" x="398.487273" xlink:href="#m961abd1e3b" y="307.584"/>
      </g>
     </g>
     <g id="text_6">
      <!-- 1000 -->
      <defs>
       <path d="M 12.40625 8.296875 
L 28.515625 8.296875 
L 28.515625 63.921875 
L 10.984375 60.40625 
L 10.984375 69.390625 
L 28.421875 72.90625 
L 38.28125 72.90625 
L 38.28125 8.296875 
L 54.390625 8.296875 
L 54.390625 0 
L 12.40625 0 
z
" id="DejaVuSans-49"/>
      </defs>
      <g transform="translate(385.762273 322.182437)scale(0.1 -0.1)">
       <use xlink:href="#DejaVuSans-49"/>
       <use x="63.623047" xlink:href="#DejaVuSans-48"/>
       <use x="127.246094" xlink:href="#DejaVuSans-48"/>
       <use x="190.869141" xlink:href="#DejaVuSans-48"/>
      </g>
     </g>
    </g>
   </g>
   <g id="matplotlib.axis_2">
    <g id="ytick_1">
     <g id="line2d_7">
      <defs>
       <path d="M 0 0 
L -3.5 0 
" id="mdd9f0780a6" style="stroke:#000000;stroke-width:0.8;"/>
      </defs>
      <g>
       <use style="stroke:#000000;stroke-width:0.8;" x="57.6" xlink:href="#mdd9f0780a6" y="278.683106"/>
      </g>
     </g>
     <g id="text_7">
      <!-- 500 -->
      <defs>
       <path d="M 10.796875 72.90625 
L 49.515625 72.90625 
L 49.515625 64.59375 
L 19.828125 64.59375 
L 19.828125 46.734375 
Q 21.96875 47.46875 24.109375 47.828125 
Q 26.265625 48.1875 28.421875 48.1875 
Q 40.625 48.1875 47.75 41.5 
Q 54.890625 34.8125 54.890625 23.390625 
Q 54.890625 11.625 47.5625 5.09375 
Q 40.234375 -1.421875 26.90625 -1.421875 
Q 22.3125 -1.421875 17.546875 -0.640625 
Q 12.796875 0.140625 7.71875 1.703125 
L 7.71875 11.625 
Q 12.109375 9.234375 16.796875 8.0625 
Q 21.484375 6.890625 26.703125 6.890625 
Q 35.15625 6.890625 40.078125 11.328125 
Q 45.015625 15.765625 45.015625 23.390625 
Q 45.015625 31 40.078125 35.4375 
Q 35.15625 39.890625 26.703125 39.890625 
Q 22.75 39.890625 18.8125 39.015625 
Q 14.890625 38.140625 10.796875 36.28125 
z
" id="DejaVuSans-53"/>
      </defs>
      <g transform="translate(31.5125 282.482325)scale(0.1 -0.1)">
       <use xlink:href="#DejaVuSans-53"/>
       <use x="63.623047" xlink:href="#DejaVuSans-48"/>
       <use x="127.246094" xlink:href="#DejaVuSans-48"/>
      </g>
     </g>
    </g>
    <g id="ytick_2">
     <g id="line2d_8">
      <g>
       <use style="stroke:#000000;stroke-width:0.8;" x="57.6" xlink:href="#mdd9f0780a6" y="238.209562"/>
      </g>
     </g>
     <g id="text_8">
      <!-- 600 -->
      <g transform="translate(31.5125 242.008781)scale(0.1 -0.1)">
       <use xlink:href="#DejaVuSans-54"/>
       <use x="63.623047" xlink:href="#DejaVuSans-48"/>
       <use x="127.246094" xlink:href="#DejaVuSans-48"/>
      </g>
     </g>
    </g>
    <g id="ytick_3">
     <g id="line2d_9">
      <g>
       <use style="stroke:#000000;stroke-width:0.8;" x="57.6" xlink:href="#mdd9f0780a6" y="197.736018"/>
      </g>
     </g>
     <g id="text_9">
      <!-- 700 -->
      <defs>
       <path d="M 8.203125 72.90625 
L 55.078125 72.90625 
L 55.078125 68.703125 
L 28.609375 0 
L 18.3125 0 
L 43.21875 64.59375 
L 8.203125 64.59375 
z
" id="DejaVuSans-55"/>
      </defs>
      <g transform="translate(31.5125 201.535237)scale(0.1 -0.1)">
       <use xlink:href="#DejaVuSans-55"/>
       <use x="63.623047" xlink:href="#DejaVuSans-48"/>
       <use x="127.246094" xlink:href="#DejaVuSans-48"/>
      </g>
     </g>
    </g>
    <g id="ytick_4">
     <g id="line2d_10">
      <g>
       <use style="stroke:#000000;stroke-width:0.8;" x="57.6" xlink:href="#mdd9f0780a6" y="157.262474"/>
      </g>
     </g>
     <g id="text_10">
      <!-- 800 -->
      <g transform="translate(31.5125 161.061693)scale(0.1 -0.1)">
       <use xlink:href="#DejaVuSans-56"/>
       <use x="63.623047" xlink:href="#DejaVuSans-48"/>
       <use x="127.246094" xlink:href="#DejaVuSans-48"/>
      </g>
     </g>
    </g>
    <g id="ytick_5">
     <g id="line2d_11">
      <g>
       <use style="stroke:#000000;stroke-width:0.8;" x="57.6" xlink:href="#mdd9f0780a6" y="116.78893"/>
      </g>
     </g>
     <g id="text_11">
      <!-- 900 -->
      <defs>
       <path d="M 10.984375 1.515625 
L 10.984375 10.5 
Q 14.703125 8.734375 18.5 7.8125 
Q 22.3125 6.890625 25.984375 6.890625 
Q 35.75 6.890625 40.890625 13.453125 
Q 46.046875 20.015625 46.78125 33.40625 
Q 43.953125 29.203125 39.59375 26.953125 
Q 35.25 24.703125 29.984375 24.703125 
Q 19.046875 24.703125 12.671875 31.3125 
Q 6.296875 37.9375 6.296875 49.421875 
Q 6.296875 60.640625 12.9375 67.421875 
Q 19.578125 74.21875 30.609375 74.21875 
Q 43.265625 74.21875 49.921875 64.515625 
Q 56.59375 54.828125 56.59375 36.375 
Q 56.59375 19.140625 48.40625 8.859375 
Q 40.234375 -1.421875 26.421875 -1.421875 
Q 22.703125 -1.421875 18.890625 -0.6875 
Q 15.09375 0.046875 10.984375 1.515625 
z
M 30.609375 32.421875 
Q 37.25 32.421875 41.125 36.953125 
Q 45.015625 41.5 45.015625 49.421875 
Q 45.015625 57.28125 41.125 61.84375 
Q 37.25 66.40625 30.609375 66.40625 
Q 23.96875 66.40625 20.09375 61.84375 
Q 16.21875 57.28125 16.21875 49.421875 
Q 16.21875 41.5 20.09375 36.953125 
Q 23.96875 32.421875 30.609375 32.421875 
z
" id="DejaVuSans-57"/>
      </defs>
      <g transform="translate(31.5125 120.588149)scale(0.1 -0.1)">
       <use xlink:href="#DejaVuSans-57"/>
       <use x="63.623047" xlink:href="#DejaVuSans-48"/>
       <use x="127.246094" xlink:href="#DejaVuSans-48"/>
      </g>
     </g>
    </g>
    <g id="ytick_6">
     <g id="line2d_12">
      <g>
       <use style="stroke:#000000;stroke-width:0.8;" x="57.6" xlink:href="#mdd9f0780a6" y="76.315386"/>
      </g>
     </g>
     <g id="text_12">
      <!-- 1000 -->
      <g transform="translate(25.15 80.114605)scale(0.1 -0.1)">
       <use xlink:href="#DejaVuSans-49"/>
       <use x="63.623047" xlink:href="#DejaVuSans-48"/>
       <use x="127.246094" xlink:href="#DejaVuSans-48"/>
       <use x="190.869141" xlink:href="#DejaVuSans-48"/>
      </g>
     </g>
    </g>
   </g>
   <g id="line2d_13">
    <path clip-path="url(#p6589c55ab3)" d="M 73.832727 225.589418 
L 74.157707 226.909756 
L 74.807666 220.92635 
L 75.457625 211.259567 
L 76.432563 190.550462 
L 76.757543 182.705577 
L 77.082523 195.372324 
L 77.407502 195.72955 
L 77.732482 193.24109 
L 78.057461 187.845037 
L 78.70742 191.557797 
L 79.0324 190.863636 
L 79.682359 185.055234 
L 80.007338 177.890109 
L 80.332318 206.813926 
L 80.657297 208.783927 
L 81.307256 208.039134 
L 81.632236 207.44875 
L 81.957215 208.065903 
L 82.607174 207.621131 
L 82.932154 206.707669 
L 83.257133 207.413611 
L 83.582113 53.568 
L 83.907093 186.949263 
L 84.232072 233.486239 
L 84.557052 233.61996 
L 84.882031 235.805377 
L 85.207011 235.648633 
L 85.53199 235.781185 
L 85.85697 235.558096 
L 86.181949 235.165435 
L 86.506929 235.937493 
L 86.831908 257.573693 
L 87.156888 261.563595 
L 87.481867 261.766731 
L 87.806847 260.929743 
L 88.131826 260.420176 
L 88.781785 261.392131 
L 89.106765 261.333858 
L 89.431744 262.82003 
L 89.756724 263.627142 
L 90.081704 263.445841 
L 90.406683 262.254548 
L 90.731663 262.408822 
L 91.056642 262.085847 
L 91.381622 262.781555 
L 91.706601 262.114991 
L 92.35656 260.059464 
L 92.68154 259.824138 
L 93.006519 259.369316 
L 93.331499 276.402003 
L 93.656478 280.543817 
L 93.981458 280.932985 
L 94.306437 280.060324 
L 94.631417 279.856663 
L 95.281376 281.488668 
L 95.931335 281.294626 
L 96.256314 280.793591 
L 96.581294 279.680118 
L 96.906274 280.107236 
L 97.231253 280.809603 
L 97.556233 281.962039 
L 97.881212 281.928609 
L 98.206192 282.25523 
L 98.531171 282.989115 
L 98.856151 282.854938 
L 99.18113 281.656951 
L 99.50611 282.635175 
L 99.831089 284.590182 
L 100.156069 288.449922 
L 100.481048 287.685891 
L 100.806028 285.79072 
L 101.131007 285.541528 
L 101.455987 285.87584 
L 101.780966 285.983066 
L 102.430925 286.88539 
L 103.080885 285.844425 
L 103.405864 285.823281 
L 103.730844 285.029431 
L 104.380803 285.328281 
L 105.030762 286.38967 
L 105.355741 285.820413 
L 105.680721 285.977878 
L 106.0057 94.165607 
L 106.33068 276.352241 
L 106.655659 281.316393 
L 106.980639 280.541332 
L 107.305618 280.484869 
L 107.630598 280.085512 
L 107.955577 280.614185 
L 108.280557 280.429301 
L 108.605536 280.471437 
L 108.930516 280.280324 
L 109.255495 279.595325 
L 109.580475 280.874333 
L 109.905455 281.651535 
L 110.230434 280.611789 
L 110.880393 280.968656 
L 111.205373 279.718752 
L 111.530352 279.659447 
L 111.855332 279.048848 
L 112.180311 279.174278 
L 112.83027 279.922802 
L 113.15525 279.362305 
L 113.480229 280.144482 
L 113.805209 279.801244 
L 114.130188 279.663375 
L 114.455168 280.324674 
L 114.780147 279.830982 
L 115.105127 279.66564 
L 115.430106 279.069445 
L 115.755086 278.99061 
L 116.405045 279.756098 
L 116.730025 279.060545 
L 117.055004 281.487126 
L 117.379984 280.86617 
L 117.704963 280.813375 
L 118.029943 281.849164 
L 118.354922 282.413266 
L 118.679902 282.178286 
L 119.004881 283.4955 
L 119.329861 282.815508 
L 119.65484 283.495635 
L 120.304799 283.85578 
L 120.629779 283.872866 
L 120.954758 283.241479 
L 121.279738 285.150795 
L 121.604717 284.192025 
L 121.929697 284.062071 
L 122.254676 284.626968 
L 122.579656 279.867024 
L 122.904636 282.448068 
L 123.229615 282.736009 
L 123.554595 282.476179 
L 123.879574 281.742309 
L 124.204554 282.959448 
L 124.529533 283.618194 
L 125.179492 282.216168 
L 125.504472 283.076062 
L 125.829451 281.945439 
L 126.154431 281.474713 
L 127.129369 283.0307 
L 127.454349 282.037474 
L 127.779328 281.670807 
L 128.104308 282.314755 
L 128.429287 282.528374 
L 128.754267 282.451711 
L 129.404226 281.863818 
L 129.729206 281.978435 
L 130.054185 282.410456 
L 130.379165 282.232678 
L 130.704144 280.832059 
L 131.029124 286.126487 
L 131.354103 284.927269 
L 132.004062 287.060411 
L 132.654021 286.268795 
L 132.979001 286.43567 
L 133.30398 286.232261 
L 133.62896 286.979253 
L 133.953939 288.222334 
L 134.278919 286.948897 
L 134.603898 286.720056 
L 134.928878 286.776969 
L 135.253857 286.363459 
L 135.578837 286.83343 
L 135.903817 286.974238 
L 136.228796 286.099811 
L 136.553776 285.930957 
L 136.878755 286.936144 
L 137.203735 285.86484 
L 137.853694 286.811391 
L 138.178673 286.766905 
L 138.503653 92.898112 
L 138.828632 286.509543 
L 139.153612 290.636171 
L 139.478591 291.643539 
L 139.803571 290.665531 
L 140.12855 291.000076 
L 140.45353 291.008546 
L 140.778509 290.576511 
L 141.103489 291.611193 
L 141.753448 291.986536 
L 142.078428 290.632912 
L 142.728387 292.773991 
L 143.053366 292.09151 
L 143.378346 290.897095 
L 143.703325 291.210165 
L 144.028305 290.925224 
L 144.678264 291.48464 
L 145.003243 291.566861 
L 145.328223 291.510103 
L 145.653202 291.933772 
L 145.978182 291.211398 
L 146.303161 291.266165 
L 146.628141 292.478146 
L 146.95312 292.706142 
L 147.2781 292.728651 
L 147.603079 291.578943 
L 148.253038 292.430809 
L 148.578018 291.610362 
L 148.902998 291.485433 
L 149.227977 291.485011 
L 149.877936 291.356304 
L 150.202916 290.493967 
L 150.527895 290.846273 
L 150.852875 290.974188 
L 151.177854 291.830542 
L 151.502834 292.098959 
L 151.827813 292.217993 
L 152.152793 293.167112 
L 152.477772 291.935503 
L 152.802752 292.979087 
L 153.127731 293.606868 
L 153.452711 292.560173 
L 153.77769 293.473843 
L 154.10267 293.681635 
L 154.427649 292.058266 
L 154.752629 292.865235 
L 155.077609 289.127383 
L 155.402588 292.758139 
L 156.052547 292.728636 
L 156.377527 291.971608 
L 156.702506 292.284529 
L 157.027486 293.308168 
L 157.352465 293.891989 
L 158.327404 290.514086 
L 158.652383 291.564675 
L 158.977363 291.35008 
L 159.302342 291.597116 
L 159.627322 292.347813 
L 160.277281 292.853173 
L 160.60226 293.749653 
L 160.92724 292.815251 
L 161.252219 292.807601 
L 161.577199 292.608838 
L 161.902179 293.001741 
L 162.227158 292.49755 
L 162.552138 291.022897 
L 162.877117 292.32135 
L 163.202097 291.727225 
L 163.527076 293.029199 
L 164.177035 291.814869 
L 164.502015 290.290774 
L 164.826994 290.395945 
L 165.151974 291.004234 
L 165.476953 291.022736 
L 165.801933 291.665271 
L 166.126912 288.350478 
L 166.451892 286.669229 
L 167.101851 287.005695 
L 167.42683 287.047809 
L 167.75181 288.085602 
L 168.07679 288.218018 
L 168.401769 287.900496 
L 169.051728 287.600328 
L 169.376708 288.008429 
L 169.701687 287.682509 
L 170.026667 287.108354 
L 170.351646 287.824753 
L 170.676626 288.97991 
L 171.001605 97.300481 
L 171.326585 285.866736 
L 171.651564 290.37383 
L 171.976544 290.457883 
L 172.301523 289.983296 
L 172.626503 289.976603 
L 172.951482 290.43163 
L 173.276462 289.846817 
L 173.601441 289.917065 
L 173.926421 289.188855 
L 174.2514 289.145751 
L 174.57638 289.421877 
L 174.90136 287.995255 
L 175.226339 289.345511 
L 175.551319 288.033428 
L 175.876298 288.93506 
L 176.201278 286.762344 
L 176.526257 285.574377 
L 177.176216 286.234086 
L 177.501196 285.901593 
L 177.826175 287.224132 
L 178.151155 287.567173 
L 178.476134 289.802061 
L 178.801114 289.476543 
L 179.126093 288.69063 
L 179.451073 288.751812 
L 179.776052 288.078514 
L 180.101032 290.002308 
L 180.426011 289.916718 
L 180.750991 290.271891 
L 181.40095 290.196744 
L 181.72593 290.699468 
L 182.050909 290.607015 
L 182.375889 290.137727 
L 182.700868 288.554216 
L 183.025848 289.106204 
L 183.350827 288.070943 
L 183.675807 288.765015 
L 184.000786 288.666243 
L 184.650745 287.954443 
L 184.975725 285.98922 
L 185.625684 287.976742 
L 185.950663 288.210909 
L 186.275643 289.205665 
L 186.600622 288.788124 
L 186.925602 289.401883 
L 187.250581 289.259946 
L 187.575561 285.375123 
L 187.900541 289.228033 
L 188.22552 287.657655 
L 188.5505 288.563347 
L 188.875479 288.904626 
L 189.200459 287.872544 
L 189.525438 287.390897 
L 189.850418 288.216096 
L 190.175397 287.096661 
L 190.500377 287.194308 
L 190.825356 285.869228 
L 191.150336 285.627581 
L 191.800295 288.070374 
L 192.125274 288.787186 
L 192.775233 288.01507 
L 193.100213 288.62643 
L 193.425192 287.947759 
L 193.750172 288.970516 
L 194.075152 287.597218 
L 194.400131 287.450176 
L 194.725111 287.643456 
L 195.37507 288.694631 
L 195.700049 288.438802 
L 196.025029 288.449467 
L 196.350008 288.656885 
L 196.999967 288.447053 
L 197.324947 288.855443 
L 197.649926 288.944727 
L 197.974906 288.784773 
L 198.299885 288.938837 
L 198.624865 289.301926 
L 199.274824 288.58379 
L 199.599803 289.647564 
L 199.924783 289.105818 
L 200.249762 290.368386 
L 200.574742 289.166843 
L 200.899722 288.894807 
L 201.224701 288.998086 
L 201.87466 288.760784 
L 202.19964 289.765932 
L 202.524619 289.370882 
L 202.849599 290.271503 
L 203.174578 290.763888 
L 203.499558 101.59737 
L 203.824537 289.53328 
L 204.149517 292.371131 
L 204.474496 292.59616 
L 204.799476 291.607508 
L 205.124455 292.121492 
L 205.449435 291.802236 
L 205.774414 292.034492 
L 206.099394 291.926802 
L 206.424373 291.115706 
L 206.749353 291.095027 
L 207.074333 291.470566 
L 207.399312 291.640412 
L 207.724292 291.418964 
L 208.049271 291.481249 
L 208.374251 291.4223 
L 208.69923 291.617387 
L 209.02421 291.597625 
L 209.349189 291.424612 
L 209.674169 290.655085 
L 209.999148 291.194027 
L 210.324128 290.195858 
L 210.649107 290.436971 
L 210.974087 291.209659 
L 211.299066 291.472386 
L 211.624046 291.354699 
L 211.949025 291.586219 
L 212.274005 291.485618 
L 212.598984 292.40555 
L 212.923964 291.051407 
L 213.248943 291.762112 
L 213.573923 291.367002 
L 213.898903 290.712023 
L 214.223882 291.294641 
L 214.548862 291.518208 
L 215.198821 290.503937 
L 215.84878 292.683867 
L 216.173759 291.98539 
L 216.498739 291.935612 
L 216.823718 291.176875 
L 217.473677 290.423617 
L 217.798657 291.383902 
L 218.123636 291.188976 
L 218.448616 291.243025 
L 218.773595 291.446659 
L 219.098575 291.196863 
L 219.423554 290.507924 
L 219.748534 291.7667 
L 220.073514 289.084944 
L 220.398493 292.054605 
L 220.723473 292.039724 
L 221.048452 292.178405 
L 221.373432 292.502889 
L 221.698411 290.195466 
L 222.023391 291.075886 
L 222.34837 292.50406 
L 222.998329 291.068763 
L 223.323309 290.856936 
L 223.648288 291.254188 
L 223.973268 290.881585 
L 224.298247 290.924705 
L 224.623227 291.6039 
L 225.273186 291.204435 
L 225.598165 291.248153 
L 225.923145 291.919088 
L 226.248124 291.723155 
L 226.573104 291.896273 
L 227.548043 292.982978 
L 227.873022 292.992659 
L 228.198002 288.895668 
L 228.847961 292.683332 
L 229.17294 292.705673 
L 229.49792 293.01172 
L 229.822899 291.978664 
L 230.147879 289.978563 
L 230.472858 290.777823 
L 230.797838 291.948473 
L 231.122817 291.65962 
L 231.447797 291.643502 
L 231.772776 292.109105 
L 232.097756 292.270347 
L 232.422735 292.7755 
L 232.747715 291.751938 
L 233.072695 291.347495 
L 233.397674 289.697649 
L 233.722654 290.183021 
L 234.047633 291.088076 
L 234.372613 290.889362 
L 234.697592 290.51124 
L 235.022572 291.439373 
L 235.347551 291.17415 
L 235.672531 290.499835 
L 235.99751 101.046516 
L 236.32249 288.562508 
L 236.647469 292.345598 
L 236.972449 292.730793 
L 237.297428 292.240558 
L 237.622408 292.156864 
L 237.947387 291.922378 
L 238.272367 291.922324 
L 238.597346 291.595051 
L 238.922326 291.669761 
L 239.247305 292.254917 
L 239.572285 291.511691 
L 239.897265 292.241753 
L 240.222244 291.6227 
L 240.547224 291.718345 
L 240.872203 291.287342 
L 241.847142 292.620264 
L 242.172121 292.4302 
L 242.497101 293.128583 
L 243.14706 292.366972 
L 243.472039 292.15296 
L 243.797019 292.325911 
L 244.121998 291.238671 
L 244.446978 291.146874 
L 244.771957 292.115688 
L 245.096937 292.371491 
L 245.421916 292.203512 
L 246.071876 292.29098 
L 246.396855 291.195863 
L 246.721835 291.372227 
L 247.046814 292.323274 
L 247.371794 292.624833 
L 247.696773 292.468414 
L 248.346732 292.880603 
L 248.671712 292.697306 
L 248.996691 291.917944 
L 249.321671 291.725586 
L 249.64665 292.004691 
L 249.97163 293.13472 
L 250.296609 292.771055 
L 250.621589 292.226948 
L 250.946568 291.001763 
L 251.271548 291.841145 
L 251.596527 291.922254 
L 251.921507 292.189541 
L 252.246486 292.780392 
L 252.571466 288.373195 
L 252.896446 292.255909 
L 253.221425 292.038622 
L 253.871384 293.272962 
L 254.196364 293.342155 
L 254.521343 292.97783 
L 254.846323 293.192326 
L 255.171302 292.985402 
L 255.496282 292.206318 
L 255.821261 292.829765 
L 256.146241 292.26279 
L 256.47122 293.005989 
L 256.7962 292.199528 
L 257.121179 292.324764 
L 257.446159 292.312334 
L 257.771138 291.213852 
L 258.096118 290.834963 
L 258.421097 290.639493 
L 258.746077 291.190377 
L 259.071057 292.275504 
L 259.721016 292.612085 
L 260.370975 292.530983 
L 260.695954 292.613803 
L 261.020934 292.27144 
L 261.345913 292.422898 
L 261.670893 292.199109 
L 261.995872 292.69478 
L 262.645831 292.973573 
L 262.970811 292.862578 
L 263.29579 292.269101 
L 263.62077 292.042827 
L 263.945749 291.657436 
L 264.270729 292.265447 
L 264.595708 292.515786 
L 264.920688 292.4206 
L 265.245667 291.002035 
L 265.570647 291.740768 
L 265.895627 290.408866 
L 266.545586 291.105241 
L 266.870565 290.228417 
L 267.195545 290.031386 
L 267.520524 288.913653 
L 267.845504 286.521312 
L 268.170483 287.986775 
L 268.495463 99.915727 
L 268.820442 287.772791 
L 269.145422 290.972127 
L 269.795381 291.128956 
L 270.12036 292.292961 
L 270.44534 291.201114 
L 270.770319 290.795785 
L 271.420278 291.342032 
L 271.745258 289.60205 
L 272.070238 290.211965 
L 272.395217 290.119325 
L 273.045176 291.638163 
L 273.370156 291.353224 
L 273.695135 290.671098 
L 274.020115 292.166967 
L 274.345094 292.992705 
L 274.995053 291.287849 
L 275.320033 291.57029 
L 275.645012 291.686683 
L 275.969992 292.517877 
L 276.294971 292.244893 
L 276.94493 292.952819 
L 277.26991 292.736095 
L 277.594889 293.017078 
L 277.919869 292.642329 
L 278.244848 292.586982 
L 278.569828 292.715484 
L 278.894808 292.101192 
L 279.219787 292.492404 
L 279.544767 292.494029 
L 279.869746 291.671125 
L 280.194726 291.400824 
L 280.844685 291.137493 
L 281.494644 289.598128 
L 281.819623 290.154253 
L 282.144603 290.299048 
L 282.794562 290.358595 
L 283.444521 289.56689 
L 284.419459 289.484318 
L 284.744439 289.742834 
L 285.069419 290.639294 
L 285.394398 295.300334 
L 285.719378 294.720665 
L 286.044357 294.807585 
L 286.369337 295.181128 
L 286.694316 294.615352 
L 287.019296 295.390888 
L 287.344275 295.253328 
L 287.669255 294.920265 
L 287.994234 294.818104 
L 288.319214 295.159737 
L 288.969173 293.63905 
L 289.294152 293.128592 
L 289.619132 290.833786 
L 289.944111 290.747817 
L 290.269091 290.944482 
L 290.59407 290.650959 
L 290.91905 289.886478 
L 291.244029 288.700613 
L 291.569009 289.645398 
L 291.893989 289.796053 
L 292.218968 290.595602 
L 292.543948 290.439534 
L 293.843866 290.424512 
L 294.168845 289.882668 
L 294.493825 289.775974 
L 294.818804 289.943908 
L 295.143784 289.275491 
L 296.118722 289.623362 
L 296.443702 289.757637 
L 297.093661 289.524443 
L 297.41864 289.601086 
L 297.74362 289.147018 
L 298.0686 289.312643 
L 298.393579 288.682768 
L 299.043538 288.436951 
L 299.368518 287.914484 
L 299.693497 287.948798 
L 300.668436 287.809845 
L 300.993415 94.20866 
L 301.318395 240.583132 
L 301.643374 272.059024 
L 301.968354 290.440068 
L 302.293333 290.117643 
L 302.618313 244.067613 
L 302.943292 285.50706 
L 303.268272 285.041301 
L 303.593251 291.203644 
L 303.918231 268.697615 
L 304.24321 290.553438 
L 304.56819 291.088981 
L 304.89317 290.476292 
L 305.218149 292.010112 
L 305.543129 291.392012 
L 305.868108 286.545302 
L 306.193088 291.620144 
L 306.518067 292.127368 
L 306.843047 289.430925 
L 307.168026 289.571055 
L 307.493006 292.145908 
L 307.817985 285.623174 
L 308.142965 282.626838 
L 308.467944 290.122003 
L 308.792924 292.662784 
L 309.117903 291.349484 
L 309.767862 282.095183 
L 310.092842 290.127632 
L 310.417821 290.69247 
L 310.742801 291.785468 
L 311.39276 292.172893 
L 311.71774 292.215017 
L 312.042719 291.858658 
L 312.367699 291.811047 
L 312.692678 292.217028 
L 313.017658 291.58939 
L 313.342637 291.501417 
L 313.667617 290.407218 
L 313.992596 290.346969 
L 314.317576 290.926364 
L 314.642555 290.854417 
L 314.967535 291.01564 
L 315.292514 291.442944 
L 315.617494 291.448792 
L 315.942473 291.56853 
L 316.267453 292.439803 
L 316.917412 291.684852 
L 317.242391 292.148401 
L 317.567371 290.154545 
L 317.892351 294.330341 
L 318.21733 294.00357 
L 318.54231 293.956596 
L 318.867289 294.757695 
L 319.192269 295.055972 
L 319.517248 294.65091 
L 319.842228 295.331934 
L 320.167207 295.488 
L 320.817166 295.05227 
L 321.142146 295.126853 
L 321.467125 294.862718 
L 321.792105 294.784722 
L 322.442064 294.254718 
L 322.767043 293.085535 
L 323.092023 293.670733 
L 323.417002 292.598575 
L 323.741982 293.366748 
L 324.391941 293.929587 
L 325.0419 293.678874 
L 325.691859 293.761399 
L 326.016839 294.425677 
L 326.341818 294.010218 
L 326.666798 294.490425 
L 326.991777 294.295389 
L 327.316757 293.931406 
L 327.641736 295.020016 
L 327.966716 294.536074 
L 328.291695 293.487582 
L 328.941654 293.388174 
L 329.266634 293.878859 
L 329.591613 292.770955 
L 329.916593 293.090056 
L 330.241572 292.618489 
L 331.216511 292.305231 
L 331.86647 292.96633 
L 332.19145 292.424852 
L 332.516429 292.869531 
L 332.841409 292.709454 
L 333.166388 293.751196 
L 333.491368 109.101797 
L 333.816347 288.781807 
L 334.141327 292.046486 
L 334.466306 292.333052 
L 334.791286 292.252179 
L 335.116265 291.540939 
L 335.441245 289.799418 
L 335.766224 291.337262 
L 336.091204 291.592691 
L 336.416183 291.239176 
L 336.741163 292.687433 
L 337.066143 293.329336 
L 337.391122 293.577476 
L 337.716102 293.476272 
L 338.041081 293.002557 
L 338.366061 293.111479 
L 338.69104 292.957115 
L 339.01602 292.106194 
L 339.340999 291.78904 
L 339.665979 292.727354 
L 339.990958 292.543704 
L 340.315938 291.834602 
L 340.640917 291.892738 
L 341.290876 292.782435 
L 341.615856 292.876309 
L 341.940835 292.413308 
L 342.265815 292.367633 
L 342.590794 292.559544 
L 342.915774 291.254778 
L 343.240753 292.570767 
L 343.565733 291.820984 
L 343.890713 292.282836 
L 344.215692 290.980367 
L 344.540672 292.196588 
L 344.865651 291.942356 
L 345.190631 291.357524 
L 345.51561 291.994201 
L 346.165569 295.196931 
L 346.490549 293.75544 
L 346.815528 293.997966 
L 347.140508 293.530829 
L 348.115446 293.425509 
L 348.440426 293.64431 
L 348.765405 293.515515 
L 349.090385 294.058222 
L 349.740344 292.953928 
L 350.065324 288.182104 
L 350.390303 292.242824 
L 351.040262 291.87202 
L 351.365242 292.237989 
L 351.690221 292.044402 
L 352.015201 290.677311 
L 352.34018 290.962412 
L 352.66516 291.6252 
L 353.315119 290.574007 
L 353.640098 289.890997 
L 353.965078 290.975548 
L 354.290057 290.790569 
L 354.615037 291.279305 
L 354.940016 290.894558 
L 355.264996 291.507281 
L 355.914955 291.32171 
L 356.239934 291.474271 
L 356.564914 291.084393 
L 356.889894 290.877235 
L 357.539853 291.830734 
L 357.864832 291.675606 
L 358.189812 291.0701 
L 358.839771 291.850903 
L 359.16475 292.625511 
L 359.48973 291.929946 
L 359.814709 292.369324 
L 360.139689 290.981873 
L 360.464668 290.995439 
L 360.789648 291.238995 
L 361.114627 290.827815 
L 361.439607 291.807125 
L 361.764586 291.936602 
L 362.414545 292.353096 
L 362.739525 291.747215 
L 363.389484 291.640407 
L 363.714464 291.70447 
L 364.039443 291.986112 
L 364.364423 291.816928 
L 364.689402 291.893098 
L 365.014382 291.674907 
L 365.664341 292.402953 
L 365.98932 105.242809 
L 366.3143 288.642865 
L 366.639279 292.403754 
L 366.964259 291.597028 
L 367.289238 291.541567 
L 367.614218 291.177046 
L 368.264177 292.662555 
L 368.589156 292.668737 
L 368.914136 291.565657 
L 369.239115 287.642518 
L 369.564095 288.405418 
L 369.889075 287.361443 
L 370.214054 289.653732 
L 370.864013 288.933025 
L 371.513972 288.50892 
L 371.838952 289.610372 
L 372.163931 288.982155 
L 372.81389 288.667247 
L 373.13887 290.416494 
L 373.463849 290.400426 
L 373.788829 288.629237 
L 374.113808 289.072088 
L 374.438788 289.007231 
L 374.763767 289.145493 
L 375.088747 289.035839 
L 375.413726 289.792938 
L 375.738706 287.961071 
L 376.063686 288.019117 
L 376.388665 288.787312 
L 376.713645 288.849881 
L 377.038624 288.424596 
L 377.363604 287.429331 
L 377.688583 288.257915 
L 378.013563 288.030583 
L 378.338542 288.12443 
L 378.663522 289.095338 
L 378.988501 289.026826 
L 379.63846 287.683553 
L 379.96344 289.475888 
L 380.288419 288.62203 
L 380.613399 288.905472 
L 380.938378 288.208729 
L 381.263358 289.141552 
L 381.913317 289.382738 
L 382.238296 290.138507 
L 382.563276 289.733593 
L 382.888256 293.213884 
L 383.213235 293.076197 
L 383.538215 293.308274 
L 383.863194 293.40116 
L 384.188174 293.825285 
L 384.513153 293.805104 
L 384.838133 294.229064 
L 385.163112 293.647737 
L 385.488092 292.71672 
L 385.813071 292.377448 
L 386.138051 291.712235 
L 386.78801 293.643908 
L 387.437969 292.463768 
L 387.762948 292.767289 
L 388.087928 292.807355 
L 388.412907 293.554612 
L 388.737887 293.067157 
L 389.062867 293.530699 
L 389.387846 294.221042 
L 390.037805 292.671379 
L 390.362785 292.634521 
L 390.687764 291.34613 
L 391.012744 292.795115 
L 391.337723 292.583065 
L 391.987682 293.768203 
L 392.312662 292.848311 
L 392.637641 293.202837 
L 392.962621 293.303755 
L 393.2876 293.618838 
L 393.61258 293.135778 
L 393.937559 292.052145 
L 394.587518 291.217081 
L 394.912498 291.16462 
L 395.237477 290.968855 
L 395.562457 291.355333 
L 396.212416 291.074945 
L 396.537396 292.44347 
L 396.862375 291.234086 
L 397.187355 292.086588 
L 397.512334 292.451852 
L 397.837314 292.528617 
L 398.162293 293.312341 
L 398.487273 106.419271 
L 398.487273 106.419271 
" style="fill:none;stroke:#1f77b4;stroke-linecap:square;stroke-width:1.5;"/>
   </g>
   <g id="patch_3">
    <path d="M 57.6 307.584 
L 57.6 41.472 
" style="fill:none;stroke:#000000;stroke-linecap:square;stroke-linejoin:miter;stroke-width:0.8;"/>
   </g>
   <g id="patch_4">
    <path d="M 414.72 307.584 
L 414.72 41.472 
" style="fill:none;stroke:#000000;stroke-linecap:square;stroke-linejoin:miter;stroke-width:0.8;"/>
   </g>
   <g id="patch_5">
    <path d="M 57.6 307.584 
L 414.72 307.584 
" style="fill:none;stroke:#000000;stroke-linecap:square;stroke-linejoin:miter;stroke-width:0.8;"/>
   </g>
   <g id="patch_6">
    <path d="M 57.6 41.472 
L 414.72 41.472 
" style="fill:none;stroke:#000000;stroke-linecap:square;stroke-linejoin:miter;stroke-width:0.8;"/>
   </g>
   <g id="text_13">
    <!-- Time/trajectory [s] -->
    <defs>
     <path d="M -0.296875 72.90625 
L 61.375 72.90625 
L 61.375 64.59375 
L 35.5 64.59375 
L 35.5 0 
L 25.59375 0 
L 25.59375 64.59375 
L -0.296875 64.59375 
z
" id="DejaVuSans-84"/>
     <path d="M 9.421875 54.6875 
L 18.40625 54.6875 
L 18.40625 0 
L 9.421875 0 
z
M 9.421875 75.984375 
L 18.40625 75.984375 
L 18.40625 64.59375 
L 9.421875 64.59375 
z
" id="DejaVuSans-105"/>
     <path d="M 52 44.1875 
Q 55.375 50.25 60.0625 53.125 
Q 64.75 56 71.09375 56 
Q 79.640625 56 84.28125 50.015625 
Q 88.921875 44.046875 88.921875 33.015625 
L 88.921875 0 
L 79.890625 0 
L 79.890625 32.71875 
Q 79.890625 40.578125 77.09375 44.375 
Q 74.3125 48.1875 68.609375 48.1875 
Q 61.625 48.1875 57.5625 43.546875 
Q 53.515625 38.921875 53.515625 30.90625 
L 53.515625 0 
L 44.484375 0 
L 44.484375 32.71875 
Q 44.484375 40.625 41.703125 44.40625 
Q 38.921875 48.1875 33.109375 48.1875 
Q 26.21875 48.1875 22.15625 43.53125 
Q 18.109375 38.875 18.109375 30.90625 
L 18.109375 0 
L 9.078125 0 
L 9.078125 54.6875 
L 18.109375 54.6875 
L 18.109375 46.1875 
Q 21.1875 51.21875 25.484375 53.609375 
Q 29.78125 56 35.6875 56 
Q 41.65625 56 45.828125 52.96875 
Q 50 49.953125 52 44.1875 
z
" id="DejaVuSans-109"/>
     <path d="M 56.203125 29.59375 
L 56.203125 25.203125 
L 14.890625 25.203125 
Q 15.484375 15.921875 20.484375 11.0625 
Q 25.484375 6.203125 34.421875 6.203125 
Q 39.59375 6.203125 44.453125 7.46875 
Q 49.3125 8.734375 54.109375 11.28125 
L 54.109375 2.78125 
Q 49.265625 0.734375 44.1875 -0.34375 
Q 39.109375 -1.421875 33.890625 -1.421875 
Q 20.796875 -1.421875 13.15625 6.1875 
Q 5.515625 13.8125 5.515625 26.8125 
Q 5.515625 40.234375 12.765625 48.109375 
Q 20.015625 56 32.328125 56 
Q 43.359375 56 49.78125 48.890625 
Q 56.203125 41.796875 56.203125 29.59375 
z
M 47.21875 32.234375 
Q 47.125 39.59375 43.09375 43.984375 
Q 39.0625 48.390625 32.421875 48.390625 
Q 24.90625 48.390625 20.390625 44.140625 
Q 15.875 39.890625 15.1875 32.171875 
z
" id="DejaVuSans-101"/>
     <path d="M 25.390625 72.90625 
L 33.6875 72.90625 
L 8.296875 -9.28125 
L 0 -9.28125 
z
" id="DejaVuSans-47"/>
     <path d="M 18.3125 70.21875 
L 18.3125 54.6875 
L 36.8125 54.6875 
L 36.8125 47.703125 
L 18.3125 47.703125 
L 18.3125 18.015625 
Q 18.3125 11.328125 20.140625 9.421875 
Q 21.96875 7.515625 27.59375 7.515625 
L 36.8125 7.515625 
L 36.8125 0 
L 27.59375 0 
Q 17.1875 0 13.234375 3.875 
Q 9.28125 7.765625 9.28125 18.015625 
L 9.28125 47.703125 
L 2.6875 47.703125 
L 2.6875 54.6875 
L 9.28125 54.6875 
L 9.28125 70.21875 
z
" id="DejaVuSans-116"/>
     <path d="M 41.109375 46.296875 
Q 39.59375 47.171875 37.8125 47.578125 
Q 36.03125 48 33.890625 48 
Q 26.265625 48 22.1875 43.046875 
Q 18.109375 38.09375 18.109375 28.8125 
L 18.109375 0 
L 9.078125 0 
L 9.078125 54.6875 
L 18.109375 54.6875 
L 18.109375 46.1875 
Q 20.953125 51.171875 25.484375 53.578125 
Q 30.03125 56 36.53125 56 
Q 37.453125 56 38.578125 55.875 
Q 39.703125 55.765625 41.0625 55.515625 
z
" id="DejaVuSans-114"/>
     <path d="M 34.28125 27.484375 
Q 23.390625 27.484375 19.1875 25 
Q 14.984375 22.515625 14.984375 16.5 
Q 14.984375 11.71875 18.140625 8.90625 
Q 21.296875 6.109375 26.703125 6.109375 
Q 34.1875 6.109375 38.703125 11.40625 
Q 43.21875 16.703125 43.21875 25.484375 
L 43.21875 27.484375 
z
M 52.203125 31.203125 
L 52.203125 0 
L 43.21875 0 
L 43.21875 8.296875 
Q 40.140625 3.328125 35.546875 0.953125 
Q 30.953125 -1.421875 24.3125 -1.421875 
Q 15.921875 -1.421875 10.953125 3.296875 
Q 6 8.015625 6 15.921875 
Q 6 25.140625 12.171875 29.828125 
Q 18.359375 34.515625 30.609375 34.515625 
L 43.21875 34.515625 
L 43.21875 35.40625 
Q 43.21875 41.609375 39.140625 45 
Q 35.0625 48.390625 27.6875 48.390625 
Q 23 48.390625 18.546875 47.265625 
Q 14.109375 46.140625 10.015625 43.890625 
L 10.015625 52.203125 
Q 14.9375 54.109375 19.578125 55.046875 
Q 24.21875 56 28.609375 56 
Q 40.484375 56 46.34375 49.84375 
Q 52.203125 43.703125 52.203125 31.203125 
z
" id="DejaVuSans-97"/>
     <path d="M 9.421875 54.6875 
L 18.40625 54.6875 
L 18.40625 -0.984375 
Q 18.40625 -11.421875 14.421875 -16.109375 
Q 10.453125 -20.796875 1.609375 -20.796875 
L -1.8125 -20.796875 
L -1.8125 -13.1875 
L 0.59375 -13.1875 
Q 5.71875 -13.1875 7.5625 -10.8125 
Q 9.421875 -8.453125 9.421875 -0.984375 
z
M 9.421875 75.984375 
L 18.40625 75.984375 
L 18.40625 64.59375 
L 9.421875 64.59375 
z
" id="DejaVuSans-106"/>
     <path d="M 48.78125 52.59375 
L 48.78125 44.1875 
Q 44.96875 46.296875 41.140625 47.34375 
Q 37.3125 48.390625 33.40625 48.390625 
Q 24.65625 48.390625 19.8125 42.84375 
Q 14.984375 37.3125 14.984375 27.296875 
Q 14.984375 17.28125 19.8125 11.734375 
Q 24.65625 6.203125 33.40625 6.203125 
Q 37.3125 6.203125 41.140625 7.25 
Q 44.96875 8.296875 48.78125 10.40625 
L 48.78125 2.09375 
Q 45.015625 0.34375 40.984375 -0.53125 
Q 36.96875 -1.421875 32.421875 -1.421875 
Q 20.0625 -1.421875 12.78125 6.34375 
Q 5.515625 14.109375 5.515625 27.296875 
Q 5.515625 40.671875 12.859375 48.328125 
Q 20.21875 56 33.015625 56 
Q 37.15625 56 41.109375 55.140625 
Q 45.0625 54.296875 48.78125 52.59375 
z
" id="DejaVuSans-99"/>
     <path d="M 30.609375 48.390625 
Q 23.390625 48.390625 19.1875 42.75 
Q 14.984375 37.109375 14.984375 27.296875 
Q 14.984375 17.484375 19.15625 11.84375 
Q 23.34375 6.203125 30.609375 6.203125 
Q 37.796875 6.203125 41.984375 11.859375 
Q 46.1875 17.53125 46.1875 27.296875 
Q 46.1875 37.015625 41.984375 42.703125 
Q 37.796875 48.390625 30.609375 48.390625 
z
M 30.609375 56 
Q 42.328125 56 49.015625 48.375 
Q 55.71875 40.765625 55.71875 27.296875 
Q 55.71875 13.875 49.015625 6.21875 
Q 42.328125 -1.421875 30.609375 -1.421875 
Q 18.84375 -1.421875 12.171875 6.21875 
Q 5.515625 13.875 5.515625 27.296875 
Q 5.515625 40.765625 12.171875 48.375 
Q 18.84375 56 30.609375 56 
z
" id="DejaVuSans-111"/>
     <path d="M 32.171875 -5.078125 
Q 28.375 -14.84375 24.75 -17.8125 
Q 21.140625 -20.796875 15.09375 -20.796875 
L 7.90625 -20.796875 
L 7.90625 -13.28125 
L 13.1875 -13.28125 
Q 16.890625 -13.28125 18.9375 -11.515625 
Q 21 -9.765625 23.484375 -3.21875 
L 25.09375 0.875 
L 2.984375 54.6875 
L 12.5 54.6875 
L 29.59375 11.921875 
L 46.6875 54.6875 
L 56.203125 54.6875 
z
" id="DejaVuSans-121"/>
     <path id="DejaVuSans-32"/>
     <path d="M 8.59375 75.984375 
L 29.296875 75.984375 
L 29.296875 69 
L 17.578125 69 
L 17.578125 -6.203125 
L 29.296875 -6.203125 
L 29.296875 -13.1875 
L 8.59375 -13.1875 
z
" id="DejaVuSans-91"/>
     <path d="M 44.28125 53.078125 
L 44.28125 44.578125 
Q 40.484375 46.53125 36.375 47.5 
Q 32.28125 48.484375 27.875 48.484375 
Q 21.1875 48.484375 17.84375 46.4375 
Q 14.5 44.390625 14.5 40.28125 
Q 14.5 37.15625 16.890625 35.375 
Q 19.28125 33.59375 26.515625 31.984375 
L 29.59375 31.296875 
Q 39.15625 29.25 43.1875 25.515625 
Q 47.21875 21.78125 47.21875 15.09375 
Q 47.21875 7.46875 41.1875 3.015625 
Q 35.15625 -1.421875 24.609375 -1.421875 
Q 20.21875 -1.421875 15.453125 -0.5625 
Q 10.6875 0.296875 5.421875 2 
L 5.421875 11.28125 
Q 10.40625 8.6875 15.234375 7.390625 
Q 20.0625 6.109375 24.8125 6.109375 
Q 31.15625 6.109375 34.5625 8.28125 
Q 37.984375 10.453125 37.984375 14.40625 
Q 37.984375 18.0625 35.515625 20.015625 
Q 33.0625 21.96875 24.703125 23.78125 
L 21.578125 24.515625 
Q 13.234375 26.265625 9.515625 29.90625 
Q 5.8125 33.546875 5.8125 39.890625 
Q 5.8125 47.609375 11.28125 51.796875 
Q 16.75 56 26.8125 56 
Q 31.78125 56 36.171875 55.265625 
Q 40.578125 54.546875 44.28125 53.078125 
z
" id="DejaVuSans-115"/>
     <path d="M 30.421875 75.984375 
L 30.421875 -13.1875 
L 9.71875 -13.1875 
L 9.71875 -6.203125 
L 21.390625 -6.203125 
L 21.390625 69 
L 9.71875 69 
L 9.71875 75.984375 
z
" id="DejaVuSans-93"/>
    </defs>
    <g transform="translate(180.549375 35.472)scale(0.12 -0.12)">
     <use xlink:href="#DejaVuSans-84"/>
     <use x="57.958984" xlink:href="#DejaVuSans-105"/>
     <use x="85.742188" xlink:href="#DejaVuSans-109"/>
     <use x="183.154297" xlink:href="#DejaVuSans-101"/>
     <use x="244.677734" xlink:href="#DejaVuSans-47"/>
     <use x="278.369141" xlink:href="#DejaVuSans-116"/>
     <use x="317.578125" xlink:href="#DejaVuSans-114"/>
     <use x="358.691406" xlink:href="#DejaVuSans-97"/>
     <use x="419.970703" xlink:href="#DejaVuSans-106"/>
     <use x="447.753906" xlink:href="#DejaVuSans-101"/>
     <use x="509.277344" xlink:href="#DejaVuSans-99"/>
     <use x="564.257812" xlink:href="#DejaVuSans-116"/>
     <use x="603.466797" xlink:href="#DejaVuSans-111"/>
     <use x="664.648438" xlink:href="#DejaVuSans-114"/>
     <use x="705.761719" xlink:href="#DejaVuSans-121"/>
     <use x="764.941406" xlink:href="#DejaVuSans-32"/>
     <use x="796.728516" xlink:href="#DejaVuSans-91"/>
     <use x="835.742188" xlink:href="#DejaVuSans-115"/>
     <use x="887.841797" xlink:href="#DejaVuSans-93"/>
    </g>
   </g>
  </g>
 </g>
 <defs>
  <clipPath id="p6589c55ab3">
   <rect height="266.112" width="357.12" x="57.6" y="41.472"/>
  </clipPath>
 </defs>
</svg>
