<?xml version="1.0" encoding="utf-8" standalone="no"?>
<!DOCTYPE svg PUBLIC "-//W3C//DTD SVG 1.1//EN"
  "http://www.w3.org/Graphics/SVG/1.1/DTD/svg11.dtd">
<!-- Created with matplotlib (https://matplotlib.org/) -->
<svg height="345.6pt" version="1.1" viewBox="0 0 460.8 345.6" width="460.8pt" xmlns="http://www.w3.org/2000/svg" xmlns:xlink="http://www.w3.org/1999/xlink">
 <defs>
  <style type="text/css">
*{stroke-linecap:butt;stroke-linejoin:round;}
  </style>
 </defs>
 <g id="figure_1">
  <g id="patch_1">
   <path d="M 0 345.6 
L 460.8 345.6 
L 460.8 0 
L 0 0 
z
" style="fill:#ffffff;"/>
  </g>
  <g id="axes_1">
   <g id="patch_2">
    <path d="M 57.6 307.584 
L 414.72 307.584 
L 414.72 41.472 
L 57.6 41.472 
z
" style="fill:#ffffff;"/>
   </g>
   <g id="matplotlib.axis_1">
    <g id="xtick_1">
     <g id="line2d_1">
      <defs>
       <path d="M 0 0 
L 0 3.5 
" id="m5c605aed80" style="stroke:#000000;stroke-width:0.8;"/>
      </defs>
      <g>
       <use style="stroke:#000000;stroke-width:0.8;" x="73.670319" xlink:href="#m5c605aed80" y="307.584"/>
      </g>
     </g>
     <g id="text_1">
      <!-- 0 -->
      <defs>
       <path d="M 31.78125 66.40625 
Q 24.171875 66.40625 20.328125 58.90625 
Q 16.5 51.421875 16.5 36.375 
Q 16.5 21.390625 20.328125 13.890625 
Q 24.171875 6.390625 31.78125 6.390625 
Q 39.453125 6.390625 43.28125 13.890625 
Q 47.125 21.390625 47.125 36.375 
Q 47.125 51.421875 43.28125 58.90625 
Q 39.453125 66.40625 31.78125 66.40625 
z
M 31.78125 74.21875 
Q 44.046875 74.21875 50.515625 64.515625 
Q 56.984375 54.828125 56.984375 36.375 
Q 56.984375 17.96875 50.515625 8.265625 
Q 44.046875 -1.421875 31.78125 -1.421875 
Q 19.53125 -1.421875 13.0625 8.265625 
Q 6.59375 17.96875 6.59375 36.375 
Q 6.59375 54.828125 13.0625 64.515625 
Q 19.53125 74.21875 31.78125 74.21875 
z
" id="DejaVuSans-48"/>
      </defs>
      <g transform="translate(70.489069 322.182437)scale(0.1 -0.1)">
       <use xlink:href="#DejaVuSans-48"/>
      </g>
     </g>
    </g>
    <g id="xtick_2">
     <g id="line2d_2">
      <g>
       <use style="stroke:#000000;stroke-width:0.8;" x="114.272438" xlink:href="#m5c605aed80" y="307.584"/>
      </g>
     </g>
     <g id="text_2">
      <!-- 250 -->
      <defs>
       <path d="M 19.1875 8.296875 
L 53.609375 8.296875 
L 53.609375 0 
L 7.328125 0 
L 7.328125 8.296875 
Q 12.9375 14.109375 22.625 23.890625 
Q 32.328125 33.6875 34.8125 36.53125 
Q 39.546875 41.84375 41.421875 45.53125 
Q 43.3125 49.21875 43.3125 52.78125 
Q 43.3125 58.59375 39.234375 62.25 
Q 35.15625 65.921875 28.609375 65.921875 
Q 23.96875 65.921875 18.8125 64.3125 
Q 13.671875 62.703125 7.8125 59.421875 
L 7.8125 69.390625 
Q 13.765625 71.78125 18.9375 73 
Q 24.125 74.21875 28.421875 74.21875 
Q 39.75 74.21875 46.484375 68.546875 
Q 53.21875 62.890625 53.21875 53.421875 
Q 53.21875 48.921875 51.53125 44.890625 
Q 49.859375 40.875 45.40625 35.40625 
Q 44.1875 33.984375 37.640625 27.21875 
Q 31.109375 20.453125 19.1875 8.296875 
z
" id="DejaVuSans-50"/>
       <path d="M 10.796875 72.90625 
L 49.515625 72.90625 
L 49.515625 64.59375 
L 19.828125 64.59375 
L 19.828125 46.734375 
Q 21.96875 47.46875 24.109375 47.828125 
Q 26.265625 48.1875 28.421875 48.1875 
Q 40.625 48.1875 47.75 41.5 
Q 54.890625 34.8125 54.890625 23.390625 
Q 54.890625 11.625 47.5625 5.09375 
Q 40.234375 -1.421875 26.90625 -1.421875 
Q 22.3125 -1.421875 17.546875 -0.640625 
Q 12.796875 0.140625 7.71875 1.703125 
L 7.71875 11.625 
Q 12.109375 9.234375 16.796875 8.0625 
Q 21.484375 6.890625 26.703125 6.890625 
Q 35.15625 6.890625 40.078125 11.328125 
Q 45.015625 15.765625 45.015625 23.390625 
Q 45.015625 31 40.078125 35.4375 
Q 35.15625 39.890625 26.703125 39.890625 
Q 22.75 39.890625 18.8125 39.015625 
Q 14.890625 38.140625 10.796875 36.28125 
z
" id="DejaVuSans-53"/>
      </defs>
      <g transform="translate(104.728688 322.182437)scale(0.1 -0.1)">
       <use xlink:href="#DejaVuSans-50"/>
       <use x="63.623047" xlink:href="#DejaVuSans-53"/>
       <use x="127.246094" xlink:href="#DejaVuSans-48"/>
      </g>
     </g>
    </g>
    <g id="xtick_3">
     <g id="line2d_3">
      <g>
       <use style="stroke:#000000;stroke-width:0.8;" x="154.874557" xlink:href="#m5c605aed80" y="307.584"/>
      </g>
     </g>
     <g id="text_3">
      <!-- 500 -->
      <g transform="translate(145.330807 322.182437)scale(0.1 -0.1)">
       <use xlink:href="#DejaVuSans-53"/>
       <use x="63.623047" xlink:href="#DejaVuSans-48"/>
       <use x="127.246094" xlink:href="#DejaVuSans-48"/>
      </g>
     </g>
    </g>
    <g id="xtick_4">
     <g id="line2d_4">
      <g>
       <use style="stroke:#000000;stroke-width:0.8;" x="195.476677" xlink:href="#m5c605aed80" y="307.584"/>
      </g>
     </g>
     <g id="text_4">
      <!-- 750 -->
      <defs>
       <path d="M 8.203125 72.90625 
L 55.078125 72.90625 
L 55.078125 68.703125 
L 28.609375 0 
L 18.3125 0 
L 43.21875 64.59375 
L 8.203125 64.59375 
z
" id="DejaVuSans-55"/>
      </defs>
      <g transform="translate(185.932927 322.182437)scale(0.1 -0.1)">
       <use xlink:href="#DejaVuSans-55"/>
       <use x="63.623047" xlink:href="#DejaVuSans-53"/>
       <use x="127.246094" xlink:href="#DejaVuSans-48"/>
      </g>
     </g>
    </g>
    <g id="xtick_5">
     <g id="line2d_5">
      <g>
       <use style="stroke:#000000;stroke-width:0.8;" x="236.078796" xlink:href="#m5c605aed80" y="307.584"/>
      </g>
     </g>
     <g id="text_5">
      <!-- 1000 -->
      <defs>
       <path d="M 12.40625 8.296875 
L 28.515625 8.296875 
L 28.515625 63.921875 
L 10.984375 60.40625 
L 10.984375 69.390625 
L 28.421875 72.90625 
L 38.28125 72.90625 
L 38.28125 8.296875 
L 54.390625 8.296875 
L 54.390625 0 
L 12.40625 0 
z
" id="DejaVuSans-49"/>
      </defs>
      <g transform="translate(223.353796 322.182437)scale(0.1 -0.1)">
       <use xlink:href="#DejaVuSans-49"/>
       <use x="63.623047" xlink:href="#DejaVuSans-48"/>
       <use x="127.246094" xlink:href="#DejaVuSans-48"/>
       <use x="190.869141" xlink:href="#DejaVuSans-48"/>
      </g>
     </g>
    </g>
    <g id="xtick_6">
     <g id="line2d_6">
      <g>
       <use style="stroke:#000000;stroke-width:0.8;" x="276.680915" xlink:href="#m5c605aed80" y="307.584"/>
      </g>
     </g>
     <g id="text_6">
      <!-- 1250 -->
      <g transform="translate(263.955915 322.182437)scale(0.1 -0.1)">
       <use xlink:href="#DejaVuSans-49"/>
       <use x="63.623047" xlink:href="#DejaVuSans-50"/>
       <use x="127.246094" xlink:href="#DejaVuSans-53"/>
       <use x="190.869141" xlink:href="#DejaVuSans-48"/>
      </g>
     </g>
    </g>
    <g id="xtick_7">
     <g id="line2d_7">
      <g>
       <use style="stroke:#000000;stroke-width:0.8;" x="317.283034" xlink:href="#m5c605aed80" y="307.584"/>
      </g>
     </g>
     <g id="text_7">
      <!-- 1500 -->
      <g transform="translate(304.558034 322.182437)scale(0.1 -0.1)">
       <use xlink:href="#DejaVuSans-49"/>
       <use x="63.623047" xlink:href="#DejaVuSans-53"/>
       <use x="127.246094" xlink:href="#DejaVuSans-48"/>
       <use x="190.869141" xlink:href="#DejaVuSans-48"/>
      </g>
     </g>
    </g>
    <g id="xtick_8">
     <g id="line2d_8">
      <g>
       <use style="stroke:#000000;stroke-width:0.8;" x="357.885153" xlink:href="#m5c605aed80" y="307.584"/>
      </g>
     </g>
     <g id="text_8">
      <!-- 1750 -->
      <g transform="translate(345.160153 322.182437)scale(0.1 -0.1)">
       <use xlink:href="#DejaVuSans-49"/>
       <use x="63.623047" xlink:href="#DejaVuSans-55"/>
       <use x="127.246094" xlink:href="#DejaVuSans-53"/>
       <use x="190.869141" xlink:href="#DejaVuSans-48"/>
      </g>
     </g>
    </g>
    <g id="xtick_9">
     <g id="line2d_9">
      <g>
       <use style="stroke:#000000;stroke-width:0.8;" x="398.487273" xlink:href="#m5c605aed80" y="307.584"/>
      </g>
     </g>
     <g id="text_9">
      <!-- 2000 -->
      <g transform="translate(385.762273 322.182437)scale(0.1 -0.1)">
       <use xlink:href="#DejaVuSans-50"/>
       <use x="63.623047" xlink:href="#DejaVuSans-48"/>
       <use x="127.246094" xlink:href="#DejaVuSans-48"/>
       <use x="190.869141" xlink:href="#DejaVuSans-48"/>
      </g>
     </g>
    </g>
   </g>
   <g id="matplotlib.axis_2">
    <g id="ytick_1">
     <g id="line2d_10">
      <defs>
       <path d="M 0 0 
L -3.5 0 
" id="ma5436666c2" style="stroke:#000000;stroke-width:0.8;"/>
      </defs>
      <g>
       <use style="stroke:#000000;stroke-width:0.8;" x="57.6" xlink:href="#ma5436666c2" y="290.121426"/>
      </g>
     </g>
     <g id="text_10">
      <!-- 0.86 -->
      <defs>
       <path d="M 10.6875 12.40625 
L 21 12.40625 
L 21 0 
L 10.6875 0 
z
" id="DejaVuSans-46"/>
       <path d="M 31.78125 34.625 
Q 24.75 34.625 20.71875 30.859375 
Q 16.703125 27.09375 16.703125 20.515625 
Q 16.703125 13.921875 20.71875 10.15625 
Q 24.75 6.390625 31.78125 6.390625 
Q 38.8125 6.390625 42.859375 10.171875 
Q 46.921875 13.96875 46.921875 20.515625 
Q 46.921875 27.09375 42.890625 30.859375 
Q 38.875 34.625 31.78125 34.625 
z
M 21.921875 38.8125 
Q 15.578125 40.375 12.03125 44.71875 
Q 8.5 49.078125 8.5 55.328125 
Q 8.5 64.0625 14.71875 69.140625 
Q 20.953125 74.21875 31.78125 74.21875 
Q 42.671875 74.21875 48.875 69.140625 
Q 55.078125 64.0625 55.078125 55.328125 
Q 55.078125 49.078125 51.53125 44.71875 
Q 48 40.375 41.703125 38.8125 
Q 48.828125 37.15625 52.796875 32.3125 
Q 56.78125 27.484375 56.78125 20.515625 
Q 56.78125 9.90625 50.3125 4.234375 
Q 43.84375 -1.421875 31.78125 -1.421875 
Q 19.734375 -1.421875 13.25 4.234375 
Q 6.78125 9.90625 6.78125 20.515625 
Q 6.78125 27.484375 10.78125 32.3125 
Q 14.796875 37.15625 21.921875 38.8125 
z
M 18.3125 54.390625 
Q 18.3125 48.734375 21.84375 45.5625 
Q 25.390625 42.390625 31.78125 42.390625 
Q 38.140625 42.390625 41.71875 45.5625 
Q 45.3125 48.734375 45.3125 54.390625 
Q 45.3125 60.0625 41.71875 63.234375 
Q 38.140625 66.40625 31.78125 66.40625 
Q 25.390625 66.40625 21.84375 63.234375 
Q 18.3125 60.0625 18.3125 54.390625 
z
" id="DejaVuSans-56"/>
       <path d="M 33.015625 40.375 
Q 26.375 40.375 22.484375 35.828125 
Q 18.609375 31.296875 18.609375 23.390625 
Q 18.609375 15.53125 22.484375 10.953125 
Q 26.375 6.390625 33.015625 6.390625 
Q 39.65625 6.390625 43.53125 10.953125 
Q 47.40625 15.53125 47.40625 23.390625 
Q 47.40625 31.296875 43.53125 35.828125 
Q 39.65625 40.375 33.015625 40.375 
z
M 52.59375 71.296875 
L 52.59375 62.3125 
Q 48.875 64.0625 45.09375 64.984375 
Q 41.3125 65.921875 37.59375 65.921875 
Q 27.828125 65.921875 22.671875 59.328125 
Q 17.53125 52.734375 16.796875 39.40625 
Q 19.671875 43.65625 24.015625 45.921875 
Q 28.375 48.1875 33.59375 48.1875 
Q 44.578125 48.1875 50.953125 41.515625 
Q 57.328125 34.859375 57.328125 23.390625 
Q 57.328125 12.15625 50.6875 5.359375 
Q 44.046875 -1.421875 33.015625 -1.421875 
Q 20.359375 -1.421875 13.671875 8.265625 
Q 6.984375 17.96875 6.984375 36.375 
Q 6.984375 53.65625 15.1875 63.9375 
Q 23.390625 74.21875 37.203125 74.21875 
Q 40.921875 74.21875 44.703125 73.484375 
Q 48.484375 72.75 52.59375 71.296875 
z
" id="DejaVuSans-54"/>
      </defs>
      <g transform="translate(28.334375 293.920644)scale(0.1 -0.1)">
       <use xlink:href="#DejaVuSans-48"/>
       <use x="63.623047" xlink:href="#DejaVuSans-46"/>
       <use x="95.410156" xlink:href="#DejaVuSans-56"/>
       <use x="159.033203" xlink:href="#DejaVuSans-54"/>
      </g>
     </g>
    </g>
    <g id="ytick_2">
     <g id="line2d_11">
      <g>
       <use style="stroke:#000000;stroke-width:0.8;" x="57.6" xlink:href="#ma5436666c2" y="256.328079"/>
      </g>
     </g>
     <g id="text_11">
      <!-- 0.88 -->
      <g transform="translate(28.334375 260.127298)scale(0.1 -0.1)">
       <use xlink:href="#DejaVuSans-48"/>
       <use x="63.623047" xlink:href="#DejaVuSans-46"/>
       <use x="95.410156" xlink:href="#DejaVuSans-56"/>
       <use x="159.033203" xlink:href="#DejaVuSans-56"/>
      </g>
     </g>
    </g>
    <g id="ytick_3">
     <g id="line2d_12">
      <g>
       <use style="stroke:#000000;stroke-width:0.8;" x="57.6" xlink:href="#ma5436666c2" y="222.534733"/>
      </g>
     </g>
     <g id="text_12">
      <!-- 0.90 -->
      <defs>
       <path d="M 10.984375 1.515625 
L 10.984375 10.5 
Q 14.703125 8.734375 18.5 7.8125 
Q 22.3125 6.890625 25.984375 6.890625 
Q 35.75 6.890625 40.890625 13.453125 
Q 46.046875 20.015625 46.78125 33.40625 
Q 43.953125 29.203125 39.59375 26.953125 
Q 35.25 24.703125 29.984375 24.703125 
Q 19.046875 24.703125 12.671875 31.3125 
Q 6.296875 37.9375 6.296875 49.421875 
Q 6.296875 60.640625 12.9375 67.421875 
Q 19.578125 74.21875 30.609375 74.21875 
Q 43.265625 74.21875 49.921875 64.515625 
Q 56.59375 54.828125 56.59375 36.375 
Q 56.59375 19.140625 48.40625 8.859375 
Q 40.234375 -1.421875 26.421875 -1.421875 
Q 22.703125 -1.421875 18.890625 -0.6875 
Q 15.09375 0.046875 10.984375 1.515625 
z
M 30.609375 32.421875 
Q 37.25 32.421875 41.125 36.953125 
Q 45.015625 41.5 45.015625 49.421875 
Q 45.015625 57.28125 41.125 61.84375 
Q 37.25 66.40625 30.609375 66.40625 
Q 23.96875 66.40625 20.09375 61.84375 
Q 16.21875 57.28125 16.21875 49.421875 
Q 16.21875 41.5 20.09375 36.953125 
Q 23.96875 32.421875 30.609375 32.421875 
z
" id="DejaVuSans-57"/>
      </defs>
      <g transform="translate(28.334375 226.333951)scale(0.1 -0.1)">
       <use xlink:href="#DejaVuSans-48"/>
       <use x="63.623047" xlink:href="#DejaVuSans-46"/>
       <use x="95.410156" xlink:href="#DejaVuSans-57"/>
       <use x="159.033203" xlink:href="#DejaVuSans-48"/>
      </g>
     </g>
    </g>
    <g id="ytick_4">
     <g id="line2d_13">
      <g>
       <use style="stroke:#000000;stroke-width:0.8;" x="57.6" xlink:href="#ma5436666c2" y="188.741386"/>
      </g>
     </g>
     <g id="text_13">
      <!-- 0.92 -->
      <g transform="translate(28.334375 192.540605)scale(0.1 -0.1)">
       <use xlink:href="#DejaVuSans-48"/>
       <use x="63.623047" xlink:href="#DejaVuSans-46"/>
       <use x="95.410156" xlink:href="#DejaVuSans-57"/>
       <use x="159.033203" xlink:href="#DejaVuSans-50"/>
      </g>
     </g>
    </g>
    <g id="ytick_5">
     <g id="line2d_14">
      <g>
       <use style="stroke:#000000;stroke-width:0.8;" x="57.6" xlink:href="#ma5436666c2" y="154.94804"/>
      </g>
     </g>
     <g id="text_14">
      <!-- 0.94 -->
      <defs>
       <path d="M 37.796875 64.3125 
L 12.890625 25.390625 
L 37.796875 25.390625 
z
M 35.203125 72.90625 
L 47.609375 72.90625 
L 47.609375 25.390625 
L 58.015625 25.390625 
L 58.015625 17.1875 
L 47.609375 17.1875 
L 47.609375 0 
L 37.796875 0 
L 37.796875 17.1875 
L 4.890625 17.1875 
L 4.890625 26.703125 
z
" id="DejaVuSans-52"/>
      </defs>
      <g transform="translate(28.334375 158.747258)scale(0.1 -0.1)">
       <use xlink:href="#DejaVuSans-48"/>
       <use x="63.623047" xlink:href="#DejaVuSans-46"/>
       <use x="95.410156" xlink:href="#DejaVuSans-57"/>
       <use x="159.033203" xlink:href="#DejaVuSans-52"/>
      </g>
     </g>
    </g>
    <g id="ytick_6">
     <g id="line2d_15">
      <g>
       <use style="stroke:#000000;stroke-width:0.8;" x="57.6" xlink:href="#ma5436666c2" y="121.154693"/>
      </g>
     </g>
     <g id="text_15">
      <!-- 0.96 -->
      <g transform="translate(28.334375 124.953912)scale(0.1 -0.1)">
       <use xlink:href="#DejaVuSans-48"/>
       <use x="63.623047" xlink:href="#DejaVuSans-46"/>
       <use x="95.410156" xlink:href="#DejaVuSans-57"/>
       <use x="159.033203" xlink:href="#DejaVuSans-54"/>
      </g>
     </g>
    </g>
    <g id="ytick_7">
     <g id="line2d_16">
      <g>
       <use style="stroke:#000000;stroke-width:0.8;" x="57.6" xlink:href="#ma5436666c2" y="87.361347"/>
      </g>
     </g>
     <g id="text_16">
      <!-- 0.98 -->
      <g transform="translate(28.334375 91.160565)scale(0.1 -0.1)">
       <use xlink:href="#DejaVuSans-48"/>
       <use x="63.623047" xlink:href="#DejaVuSans-46"/>
       <use x="95.410156" xlink:href="#DejaVuSans-57"/>
       <use x="159.033203" xlink:href="#DejaVuSans-56"/>
      </g>
     </g>
    </g>
    <g id="ytick_8">
     <g id="line2d_17">
      <g>
       <use style="stroke:#000000;stroke-width:0.8;" x="57.6" xlink:href="#ma5436666c2" y="53.568"/>
      </g>
     </g>
     <g id="text_17">
      <!-- 1.00 -->
      <g transform="translate(28.334375 57.367219)scale(0.1 -0.1)">
       <use xlink:href="#DejaVuSans-49"/>
       <use x="63.623047" xlink:href="#DejaVuSans-46"/>
       <use x="95.410156" xlink:href="#DejaVuSans-48"/>
       <use x="159.033203" xlink:href="#DejaVuSans-48"/>
      </g>
     </g>
    </g>
   </g>
   <g id="line2d_18">
    <path clip-path="url(#p255fde8912)" d="M 73.832727 53.568 
L 76.268854 53.568 
L 76.593671 118.400474 
L 76.75608 53.568 
L 76.918488 79.721532 
L 77.080897 59.034962 
L 77.243305 53.568 
L 77.405714 64.184013 
L 77.568122 53.568 
L 77.730531 53.568 
L 77.892939 92.513531 
L 78.055348 53.568 
L 78.542573 53.568 
L 78.704982 105.872757 
L 78.86739 53.568 
L 79.029799 55.834312 
L 79.192207 53.568 
L 79.354615 91.572869 
L 79.517024 53.568 
L 80.329066 53.568 
L 80.491475 167.761882 
L 80.653883 53.568 
L 80.9787 53.568 
L 81.141109 179.610992 
L 81.303517 57.794034 
L 81.465926 53.568 
L 81.628334 76.358264 
L 81.790743 53.568 
L 82.440377 53.568 
L 82.602785 113.765578 
L 82.927602 72.62599 
L 83.09001 158.794874 
L 83.252419 156.135652 
L 83.414827 53.568 
L 83.577236 104.522989 
L 83.739644 53.568 
L 84.064461 53.568 
L 84.22687 68.700466 
L 84.389278 53.568 
L 84.551687 188.411156 
L 84.714095 92.477267 
L 84.876504 84.593858 
L 85.038912 59.854466 
L 85.201321 117.255645 
L 85.363729 53.568 
L 85.688546 53.568 
L 85.850955 144.249594 
L 86.013363 53.568 
L 86.825405 53.568 
L 86.987814 172.041561 
L 87.312631 53.568 
L 87.475039 118.865034 
L 87.637448 53.568 
L 87.799856 85.635754 
L 87.962265 53.568 
L 88.124673 55.244816 
L 88.287082 53.568 
L 88.44949 147.33069 
L 88.774307 53.568 
L 88.936716 117.475387 
L 89.099124 53.568 
L 89.261533 53.568 
L 89.58635 136.926578 
L 89.748758 53.568 
L 89.911166 198.643228 
L 90.073575 53.568 
L 90.723209 53.568 
L 90.885617 123.277098 
L 91.048026 53.568 
L 91.210434 53.568 
L 91.372843 108.576023 
L 91.535251 95.419792 
L 91.69766 53.568 
L 91.860068 59.537032 
L 92.022477 83.697994 
L 92.184885 77.910147 
L 92.347294 83.365139 
L 92.509702 53.568 
L 92.672111 53.568 
L 92.834519 66.770431 
L 92.996928 90.966154 
L 93.159336 53.568 
L 93.80897 53.568 
L 93.971378 68.254424 
L 94.133787 134.476149 
L 94.296195 66.424149 
L 94.458604 95.604878 
L 94.621012 232.8875 
L 94.783421 53.568 
L 94.945829 53.568 
L 95.108238 63.953709 
L 95.270646 60.745458 
L 95.433055 169.264932 
L 95.757872 53.568 
L 96.245097 53.568 
L 96.407506 92.787514 
L 96.569914 53.568 
L 96.732323 54.792114 
L 96.894731 160.935333 
L 97.057139 53.568 
L 97.219548 53.568 
L 97.381956 133.22004 
L 97.544365 113.543665 
L 97.706773 53.568 
L 97.869182 53.568 
L 98.03159 53.744791 
L 98.193999 75.62173 
L 98.356407 53.568 
L 98.518816 67.278704 
L 98.681224 162.228588 
L 99.006041 53.568 
L 99.16845 104.61665 
L 99.330858 109.328887 
L 99.493267 53.568 
L 99.655675 69.41027 
L 99.818084 99.164154 
L 99.980492 168.06245 
L 100.142901 53.568 
L 100.305309 104.828054 
L 100.467717 53.568 
L 100.630126 99.439433 
L 100.792534 53.568 
L 100.954943 127.483433 
L 101.117351 54.727175 
L 101.27976 53.568 
L 101.442168 80.855569 
L 101.604577 176.664637 
L 101.766985 53.568 
L 102.091802 53.568 
L 102.579028 118.02922 
L 102.741436 53.568 
L 102.903845 60.258225 
L 103.066253 53.568 
L 103.228662 53.568 
L 103.39107 107.097066 
L 103.553479 109.928422 
L 103.715887 140.552861 
L 103.878296 205.90181 
L 104.203112 53.568 
L 104.365521 53.568 
L 104.527929 84.60658 
L 104.690338 84.925176 
L 104.852746 130.966468 
L 105.177563 53.568 
L 105.50238 53.568 
L 105.664789 84.03171 
L 105.827197 59.686826 
L 105.989606 53.568 
L 236.241204 53.568 
L 236.403613 72.594898 
L 236.566021 53.568 
L 236.72843 134.559152 
L 236.890838 53.568 
L 237.053247 53.568 
L 237.215655 76.847906 
L 237.378064 53.568 
L 237.540472 53.568 
L 237.702881 56.146681 
L 237.865289 113.700194 
L 238.027697 53.568 
L 238.83974 53.568 
L 239.002148 102.088572 
L 239.164557 103.445855 
L 239.326965 53.568 
L 239.489374 53.568 
L 239.651782 101.135498 
L 239.814191 53.568 
L 239.976599 53.568 
L 240.139008 58.645093 
L 240.301416 53.568 
L 240.463825 53.568 
L 240.626233 62.149246 
L 240.788642 77.442226 
L 240.95105 53.568 
L 241.113459 119.139532 
L 241.438276 64.021677 
L 241.600684 53.568 
L 241.763092 161.828178 
L 241.925501 53.568 
L 242.087909 53.568 
L 242.250318 208.739403 
L 242.575135 53.568 
L 242.899952 53.568 
L 243.06236 198.310038 
L 243.387177 53.568 
L 243.549586 159.677831 
L 243.711994 71.200424 
L 243.874403 65.564689 
L 244.036811 53.568 
L 244.524037 53.568 
L 244.686445 96.95849 
L 244.848854 53.815752 
L 245.011262 86.985377 
L 245.17367 53.568 
L 245.336079 77.039641 
L 245.498487 53.568 
L 245.660896 84.217667 
L 245.823304 53.568 
L 245.985713 53.568 
L 246.148121 112.419315 
L 246.31053 53.568 
L 246.472938 62.015159 
L 246.797755 135.29234 
L 247.122572 82.780287 
L 247.284981 122.24699 
L 247.447389 64.524367 
L 247.609798 123.982499 
L 247.772206 119.016708 
L 247.934615 70.07524 
L 248.097023 89.441791 
L 248.42184 53.568 
L 248.584248 54.919002 
L 248.746657 53.568 
L 248.909065 133.966758 
L 249.071474 53.568 
L 249.233882 53.568 
L 249.396291 69.314771 
L 249.558699 71.869751 
L 249.721108 115.943007 
L 249.883516 61.113655 
L 250.045925 58.737749 
L 250.208333 53.568 
L 250.370742 53.568 
L 250.53315 62.531812 
L 250.695559 53.568 
L 251.345193 53.568 
L 251.507601 112.982735 
L 251.67001 99.054562 
L 251.832418 53.568 
L 251.994827 143.217051 
L 252.157235 72.603766 
L 252.319643 53.568 
L 252.806869 53.568 
L 252.969277 127.482633 
L 253.131686 53.568 
L 253.294094 65.564814 
L 253.456503 53.568 
L 253.78132 53.568 
L 254.106137 69.955599 
L 254.268545 96.187422 
L 254.430954 56.922474 
L 254.593362 96.040777 
L 254.755771 53.568 
L 254.918179 83.352005 
L 255.080588 53.568 
L 255.242996 53.568 
L 255.405405 157.337692 
L 255.567813 53.568 
L 255.89263 53.568 
L 256.217447 92.416281 
L 256.379855 53.568 
L 256.542264 195.847332 
L 256.704672 63.263689 
L 256.867081 53.568 
L 257.029489 162.039045 
L 257.191898 53.568 
L 257.354306 92.225492 
L 257.516715 99.033804 
L 257.679123 53.568 
L 257.841532 110.540504 
L 258.00394 53.568 
L 258.328757 53.568 
L 258.491166 103.705283 
L 258.653574 53.568 
L 258.815983 67.09412 
L 258.978391 53.568 
L 259.140799 67.300644 
L 259.303208 259.093908 
L 259.465616 53.568 
L 259.790433 53.568 
L 259.952842 108.026828 
L 260.11525 53.568 
L 260.277659 88.349134 
L 260.440067 53.568 
L 260.764884 53.568 
L 261.089701 129.185587 
L 261.25211 53.568 
L 261.576927 91.119386 
L 261.739335 53.568 
L 262.064152 91.821336 
L 262.226561 214.344967 
L 262.388969 53.568 
L 262.551378 81.642574 
L 262.713786 53.568 
L 262.876194 66.651373 
L 263.038603 53.568 
L 263.201011 53.568 
L 263.36342 146.982638 
L 263.525828 129.969418 
L 263.850645 169.417944 
L 264.013054 112.183694 
L 264.175462 112.845403 
L 264.337871 62.596638 
L 264.500279 53.568 
L 264.662688 53.568 
L 264.825096 57.400467 
L 264.987505 180.505705 
L 265.149913 53.568 
L 265.312322 89.484282 
L 265.47473 53.568 
L 265.637139 190.756582 
L 265.799547 146.4153 
L 265.961956 53.568 
L 266.124364 53.568 
L 266.286772 134.223125 
L 266.449181 128.863335 
L 266.611589 107.557029 
L 266.773998 53.596237 
L 266.936406 100.1799 
L 267.098815 53.568 
L 267.423632 53.568 
L 267.748449 96.614143 
L 268.073266 53.568 
L 268.235674 53.568 
L 268.398083 172.306827 
L 268.560491 53.568 
L 268.885308 53.568 
L 269.047717 143.516229 
L 269.210125 53.568 
L 269.534942 53.568 
L 269.69735 56.404933 
L 269.859759 109.383619 
L 270.022167 53.568 
L 270.184576 147.814884 
L 270.346984 53.568 
L 270.509393 60.101472 
L 270.83421 155.514988 
L 271.321435 66.235322 
L 271.483844 141.164149 
L 271.646252 53.568 
L 271.808661 155.236671 
L 271.971069 53.568 
L 272.133478 53.568 
L 272.295886 55.402857 
L 272.458295 53.568 
L 273.270337 53.568 
L 273.432745 70.818299 
L 273.595154 53.568 
L 273.757562 53.568 
L 273.919971 99.608584 
L 274.082379 53.568 
L 274.407196 53.568 
L 274.569605 149.640828 
L 274.732013 138.073032 
L 274.894422 73.582207 
L 275.05683 130.265378 
L 275.219239 53.568 
L 275.381647 103.463173 
L 275.706464 53.568 
L 275.868873 67.196127 
L 276.031281 53.568 
L 276.356098 53.568 
L 276.518507 65.413493 
L 276.680915 53.568 
L 277.005732 53.568 
L 277.330549 85.053512 
L 277.492957 53.568 
L 277.655366 53.568 
L 277.817774 198.255448 
L 277.980183 53.568 
L 278.305 53.568 
L 278.467408 125.978832 
L 279.117042 57.209606 
L 279.279451 131.598614 
L 279.441859 53.568 
L 279.604268 54.901335 
L 279.766676 144.703209 
L 279.929085 53.568 
L 280.091493 70.346005 
L 280.253901 53.568 
L 280.41631 146.21539 
L 280.578718 53.568 
L 280.903535 53.568 
L 281.065944 121.292094 
L 281.228352 109.835965 
L 281.390761 53.568 
L 281.715578 53.568 
L 281.877986 60.501913 
L 282.040395 86.390437 
L 282.202803 53.568 
L 282.365212 53.568 
L 282.690029 60.959244 
L 282.852437 100.290947 
L 283.177254 120.379694 
L 283.339663 60.500308 
L 283.502071 53.568 
L 283.66448 102.019595 
L 283.826888 53.568 
L 283.989296 83.420709 
L 284.151705 53.568 
L 284.314113 110.234768 
L 284.63893 53.568 
L 284.801339 135.986323 
L 285.288564 53.568 
L 285.450973 53.568 
L 285.613381 96.033806 
L 285.77579 53.568 
L 285.938198 105.247411 
L 286.100607 53.568 
L 286.263015 57.203784 
L 286.425424 53.568 
L 286.912649 53.568 
L 287.075058 114.216347 
L 287.237466 53.568 
L 287.399874 214.80474 
L 287.562283 53.568 
L 287.724691 53.568 
L 287.8871 54.336547 
L 288.049508 53.568 
L 288.211917 53.568 
L 288.374325 147.286398 
L 288.536734 53.568 
L 288.699142 131.794026 
L 288.861551 53.568 
L 289.023959 100.439281 
L 289.186368 53.568 
L 289.99841 53.568 
L 290.160819 100.92188 
L 290.323227 53.568 
L 290.485636 93.690399 
L 290.648044 53.568 
L 290.810452 145.764275 
L 290.972861 118.931203 
L 291.135269 53.568 
L 291.297678 104.675849 
L 291.460086 53.568 
L 291.622495 65.798353 
L 291.784903 61.130273 
L 291.947312 178.760031 
L 292.10972 53.568 
L 292.272129 174.344655 
L 292.434537 130.598969 
L 292.596946 176.186537 
L 293.084171 53.568 
L 293.408988 73.266895 
L 293.571397 189.744319 
L 293.733805 53.568 
L 293.896214 53.568 
L 294.058622 197.640155 
L 294.221031 53.568 
L 294.383439 53.568 
L 294.545847 101.418447 
L 294.708256 53.568 
L 294.870664 105.668614 
L 295.033073 113.919015 
L 295.35789 53.568 
L 295.520298 152.021164 
L 295.682707 87.984031 
L 295.845115 181.2712 
L 296.007524 53.568 
L 296.332341 53.568 
L 296.494749 119.88773 
L 296.657158 53.568 
L 296.819566 147.797624 
L 296.981975 53.568 
L 297.144383 96.059867 
L 297.306792 53.568 
L 297.4692 163.651631 
L 297.956425 53.568 
L 298.118834 82.736628 
L 298.281242 58.216817 
L 298.443651 102.700651 
L 298.768468 53.568 
L 298.930876 59.077149 
L 299.093285 53.568 
L 299.58051 53.568 
L 299.742919 54.186806 
L 299.905327 95.959506 
L 300.067736 53.568 
L 300.230144 53.568 
L 300.392553 72.819966 
L 300.554961 141.569015 
L 300.71737 53.568 
L 301.042187 63.741498 
L 301.204595 53.568 
L 301.529412 167.11794 
L 301.69182 53.568 
L 301.854229 156.512334 
L 302.179046 53.568 
L 302.341454 53.568 
L 302.666271 82.907521 
L 302.82868 53.568 
L 302.991088 181.251998 
L 303.153497 53.953532 
L 303.315905 53.568 
L 303.478314 53.568 
L 303.803131 164.311906 
L 303.965539 74.928512 
L 304.127948 98.830008 
L 304.290356 53.568 
L 304.452765 53.568 
L 304.615173 148.733267 
L 304.93999 53.568 
L 305.264807 53.568 
L 305.427215 105.516883 
L 305.589624 53.568 
L 305.752032 88.935833 
L 305.914441 172.976651 
L 306.239258 53.568 
L 306.564075 53.568 
L 306.726483 153.234713 
L 306.888892 53.568 
L 307.213709 53.568 
L 307.376117 129.248943 
L 307.538526 53.568 
L 307.700934 53.568 
L 307.863343 104.82947 
L 308.025751 53.568 
L 308.18816 53.568 
L 308.350568 61.172928 
L 308.512976 53.568 
L 308.675385 53.568 
L 308.837793 164.633151 
L 309.000202 53.568 
L 309.325019 53.568 
L 309.487427 178.927779 
L 309.649836 170.780186 
L 309.812244 89.997272 
L 309.974653 99.445398 
L 310.137061 53.568 
L 310.624287 53.568 
L 310.786695 120.855293 
L 310.949104 101.279554 
L 311.111512 53.568 
L 311.273921 126.009208 
L 311.598738 53.568 
L 311.761146 152.042302 
L 312.085963 53.568 
L 312.248371 115.785912 
L 312.41078 130.910658 
L 312.573188 53.568 
L 312.735597 66.519594 
L 312.898005 53.568 
L 313.060414 176.67681 
L 313.222822 53.568 
L 313.547639 138.460093 
L 313.710048 130.774632 
L 314.034865 53.568 
L 314.359682 53.568 
L 314.52209 67.415936 
L 314.684499 53.568 
L 314.846907 142.867213 
L 315.009316 146.169674 
L 315.171724 53.568 
L 315.334133 69.59566 
L 315.496541 53.568 
L 315.658949 53.568 
L 315.821358 182.949107 
L 315.983766 53.568 
L 316.146175 68.29754 
L 316.308583 53.568 
L 316.470992 143.173407 
L 316.6334 151.903737 
L 316.795809 53.568 
L 316.958217 58.484725 
L 317.120626 118.974721 
L 317.283034 53.568 
L 317.445443 54.890177 
L 317.607851 125.473716 
L 317.77026 53.568 
L 317.932668 164.86236 
L 318.095077 53.568 
L 318.257485 70.505412 
L 318.419894 155.560229 
L 318.744711 53.568 
L 319.069527 126.801585 
L 319.231936 60.633888 
L 319.394344 77.38244 
L 319.556753 53.568 
L 319.719161 133.956051 
L 319.88157 103.881982 
L 320.206387 121.856586 
L 320.368795 53.568 
L 320.531204 53.568 
L 320.693612 142.763348 
L 320.856021 53.568 
L 321.018429 131.112868 
L 321.343246 67.77122 
L 321.505655 201.937014 
L 321.668063 53.568 
L 321.830472 53.568 
L 321.99288 62.713574 
L 322.155289 53.568 
L 323.129739 53.568 
L 323.454556 128.969731 
L 323.616965 54.220035 
L 323.779373 74.447513 
L 323.941782 56.660839 
L 324.10419 53.568 
L 324.429007 106.136528 
L 324.591416 53.568 
L 324.753824 53.568 
L 324.916233 64.916415 
L 325.078641 95.034802 
L 325.24105 53.568 
L 325.403458 269.894455 
L 325.565867 53.568 
L 325.728275 53.568 
L 325.890684 257.404461 
L 326.053092 53.568 
L 326.2155 119.985236 
L 326.377909 53.568 
L 326.540317 53.568 
L 326.702726 59.797016 
L 326.865134 60.574208 
L 327.027543 53.568 
L 327.35236 53.568 
L 327.514768 59.352172 
L 327.677177 53.568 
L 328.164402 163.782418 
L 328.326811 53.568 
L 328.489219 118.490231 
L 328.651628 129.712066 
L 328.814036 53.568 
L 329.138853 53.568 
L 329.46367 204.80011 
L 329.626078 53.568 
L 330.113304 53.568 
L 330.275712 68.737295 
L 330.438121 94.424075 
L 330.600529 53.568 
L 330.762938 58.283423 
L 330.925346 118.330088 
L 331.250163 53.568 
L 331.412572 106.758882 
L 331.57498 115.283265 
L 331.737389 72.28365 
L 331.899797 127.587688 
L 332.062206 108.551647 
L 332.224614 102.926222 
L 332.387023 64.364015 
L 332.549431 63.569595 
L 332.71184 84.551143 
L 332.874248 53.568 
L 333.036657 53.568 
L 333.361473 136.205336 
L 333.523882 53.568 
L 333.68629 53.568 
L 333.848699 111.518293 
L 334.011107 53.568 
L 334.82315 53.568 
L 334.985558 63.330326 
L 335.147967 53.568 
L 335.472784 53.568 
L 335.635192 80.685207 
L 335.797601 53.568 
L 335.960009 112.303432 
L 336.284826 53.568 
L 336.609643 53.568 
L 336.772051 127.701486 
L 336.93446 53.568 
L 337.259277 119.717359 
L 337.421685 53.568 
L 337.584094 76.146019 
L 337.746502 53.568 
L 337.908911 164.502605 
L 338.071319 53.568 
L 338.233728 53.568 
L 338.396136 95.881889 
L 338.558545 53.568 
L 338.720953 129.370843 
L 339.04577 53.568 
L 339.532996 53.568 
L 339.695404 145.605833 
L 339.857813 53.568 
L 340.020221 53.568 
L 340.345038 126.499883 
L 340.507446 53.568 
L 340.669855 162.937155 
L 340.832263 67.954974 
L 340.994672 53.568 
L 341.15708 61.273998 
L 341.319489 53.568 
L 341.481897 53.568 
L 341.644306 95.029583 
L 341.806714 53.568 
L 342.131531 53.568 
L 342.29394 75.85513 
L 342.456348 53.568 
L 343.105982 53.568 
L 343.268391 136.013476 
L 343.430799 53.568 
L 343.593208 190.808175 
L 343.918024 53.568 
L 344.080433 79.510564 
L 344.242841 53.568 
L 344.40525 95.292503 
L 344.567658 53.568 
L 344.892475 53.568 
L 345.054884 171.431626 
L 345.217292 81.376826 
L 345.379701 53.568 
L 345.704518 53.568 
L 345.866926 74.327277 
L 346.029335 53.568 
L 346.354152 53.568 
L 346.51656 57.239327 
L 346.678969 53.568 
L 346.841377 159.478331 
L 347.003786 73.539855 
L 347.166194 199.795082 
L 347.491011 53.568 
L 347.978236 53.568 
L 348.140645 143.057604 
L 348.303053 74.604397 
L 348.465462 53.568 
L 348.952687 53.568 
L 349.277504 175.783595 
L 349.439913 53.568 
L 349.602321 99.889164 
L 349.927138 53.568 
L 350.414364 106.087805 
L 350.576772 53.568 
L 350.73918 53.568 
L 350.901589 142.445673 
L 351.063997 77.133576 
L 351.226406 181.783942 
L 351.388814 53.568 
L 351.551223 53.568 
L 351.713631 80.176564 
L 351.87604 53.568 
L 352.038448 53.568 
L 352.200857 56.998126 
L 352.363265 53.568 
L 352.525674 132.061657 
L 352.688082 73.559398 
L 352.850491 102.768359 
L 353.012899 210.647747 
L 353.175308 53.568 
L 353.662533 53.568 
L 353.824942 59.170874 
L 353.98735 57.431893 
L 354.149759 53.568 
L 354.312167 140.070202 
L 354.474575 68.318106 
L 354.636984 53.568 
L 354.799392 96.83554 
L 354.961801 53.568 
L 355.124209 141.909509 
L 355.286618 53.568 
L 355.449026 53.568 
L 355.773843 87.010581 
L 355.936252 53.568 
L 356.09866 144.190735 
L 356.261069 53.568 
L 356.423477 53.568 
L 356.585886 66.789704 
L 356.748294 126.534821 
L 356.910703 53.568 
L 357.073111 229.635328 
L 357.23552 53.568 
L 357.560337 53.568 
L 357.722745 89.151657 
L 357.885153 53.568 
L 358.047562 65.564045 
L 358.20997 53.568 
L 358.372379 63.681653 
L 358.534787 84.822098 
L 358.697196 58.012175 
L 358.859604 163.30619 
L 359.184421 103.027087 
L 359.34683 58.814952 
L 359.509238 61.827126 
L 359.671647 53.568 
L 359.834055 53.568 
L 359.996464 184.085581 
L 360.158872 53.704056 
L 360.321281 58.333086 
L 360.483689 53.568 
L 360.646098 75.108107 
L 360.808506 53.568 
L 360.970915 53.568 
L 361.133323 102.646008 
L 361.295732 53.568 
L 361.45814 53.568 
L 361.782957 183.560801 
L 362.107774 63.325652 
L 362.270182 77.179766 
L 362.432591 208.66603 
L 362.594999 90.042144 
L 362.757408 119.327919 
L 362.919816 175.811939 
L 363.082225 53.568 
L 363.407042 53.568 
L 363.56945 167.487542 
L 363.731859 53.568 
L 363.894267 202.726692 
L 364.056676 53.568 
L 364.219084 140.789483 
L 364.381493 53.568 
L 364.543901 57.210021 
L 364.70631 142.280526 
L 364.868718 72.474883 
L 365.031126 74.003735 
L 365.193535 69.29839 
L 365.355943 113.228698 
L 365.518352 53.568 
L 365.843169 84.766327 
L 366.005577 54.391001 
L 366.167986 53.568 
L 367.142437 53.568 
L 367.304845 169.790243 
L 367.629662 53.568 
L 367.792071 108.366809 
L 367.954479 53.568 
L 368.116888 116.23097 
L 368.279296 53.568 
L 368.92893 53.568 
L 369.091338 73.927515 
L 369.253747 53.568 
L 369.416155 61.225143 
L 369.578564 74.327855 
L 369.740972 53.568 
L 369.903381 53.568 
L 370.065789 112.464727 
L 370.390606 139.587601 
L 370.553015 53.568 
L 371.04024 53.568 
L 371.202649 137.439908 
L 371.365057 151.14924 
L 371.527466 53.568 
L 371.689874 66.751602 
L 371.852283 53.568 
L 372.014691 60.767714 
L 372.339508 159.136268 
L 372.501916 53.568 
L 372.664325 125.154014 
L 372.826733 53.568 
L 373.15155 53.568 
L 373.313959 175.194407 
L 373.638776 53.568 
L 373.801184 99.934129 
L 373.963593 53.568 
L 374.126001 224.668822 
L 374.28841 65.567989 
L 374.450818 72.605291 
L 374.613227 53.568 
L 374.938044 114.100955 
L 375.262861 53.568 
L 375.425269 145.527799 
L 375.587677 53.568 
L 375.750086 130.137956 
L 375.912494 55.088306 
L 376.074903 106.845442 
L 376.237311 53.568 
L 376.39972 53.568 
L 376.562128 88.168307 
L 376.724537 84.448493 
L 376.886945 53.568 
L 377.049354 63.702995 
L 377.211762 53.568 
L 377.698988 53.568 
L 377.861396 61.199408 
L 378.023805 129.470803 
L 378.186213 126.888313 
L 378.348622 138.937552 
L 378.673439 66.053315 
L 378.835847 151.746319 
L 378.998255 85.890233 
L 379.160664 83.590722 
L 379.323072 53.568 
L 379.485481 87.028017 
L 379.647889 53.568 
L 379.810298 103.41208 
L 379.972706 53.568 
L 380.135115 128.553439 
L 380.459932 53.568 
L 380.62234 96.852119 
L 380.784749 53.568 
L 381.434383 53.568 
L 381.596791 96.550605 
L 381.7592 53.568 
L 381.921608 109.022688 
L 382.084017 53.568 
L 382.246425 53.568 
L 382.408834 121.917137 
L 382.571242 53.568 
L 382.73365 65.908 
L 382.896059 65.412662 
L 383.058467 62.302351 
L 383.220876 53.568 
L 383.87051 53.568 
L 384.032918 91.722385 
L 384.195327 67.446501 
L 384.357735 115.242134 
L 384.520144 122.293964 
L 384.682552 53.568 
L 384.844961 109.177892 
L 385.007369 87.702448 
L 385.169778 93.215504 
L 385.332186 53.568 
L 385.657003 178.17163 
L 385.819412 134.656058 
L 385.98182 53.568 
L 386.631454 53.568 
L 386.793862 102.168806 
L 386.956271 96.505111 
L 387.118679 113.351772 
L 387.281088 53.568 
L 387.443496 53.568 
L 387.605905 115.776478 
L 387.768313 98.083865 
L 387.930722 53.568 
L 388.417947 53.568 
L 388.580356 108.374555 
L 388.742764 53.568 
L 388.905173 163.168883 
L 389.067581 159.754873 
L 389.22999 100.332969 
L 389.392398 120.772738 
L 389.554806 164.354708 
L 389.717215 53.568 
L 390.042032 53.568 
L 390.20444 54.044036 
L 390.366849 53.568 
L 391.3413 53.568 
L 391.503708 85.285944 
L 391.666117 57.788728 
L 391.828525 135.581076 
L 392.153342 54.610262 
L 392.315751 53.568 
L 392.478159 53.568 
L 392.640568 82.621555 
L 392.802976 194.866104 
L 392.965385 53.568 
L 393.127793 53.568 
L 393.290201 179.276085 
L 393.45261 189.280741 
L 393.615018 95.027943 
L 393.777427 100.392414 
L 393.939835 64.962749 
L 394.427061 200.281263 
L 394.589469 53.568 
L 395.076695 53.568 
L 395.239103 198.32541 
L 395.401512 73.89205 
L 395.56392 53.568 
L 395.726329 92.572281 
L 395.888737 53.568 
L 396.051146 53.568 
L 396.213554 104.603715 
L 396.375963 53.568 
L 396.538371 73.311779 
L 396.700779 121.575691 
L 396.863188 64.992009 
L 397.025596 53.568 
L 397.188005 105.708241 
L 397.67523 53.568 
L 398.162456 53.568 
L 398.324864 134.588912 
L 398.487273 66.538039 
L 106.314423 69.001615 
L 106.476831 74.576063 
L 106.63924 53.568 
L 106.801648 53.568 
L 106.964057 107.822569 
L 107.126465 53.568 
L 107.288874 158.786717 
L 107.61369 102.978254 
L 107.938507 219.293173 
L 108.100916 53.568 
L 109.075367 53.568 
L 109.237775 57.252479 
L 109.400184 53.568 
L 109.562592 150.958138 
L 109.887409 53.568 
L 110.212226 53.568 
L 110.374635 295.488 
L 110.537043 53.568 
L 110.699452 74.825235 
L 111.024268 53.568 
L 111.186677 110.502343 
L 111.349085 69.097937 
L 111.673902 53.568 
L 111.998719 53.568 
L 112.323536 112.873682 
L 112.485945 53.568 
L 112.648353 75.271099 
L 112.810762 53.568 
L 113.460396 53.568 
L 113.622804 86.63492 
L 113.785213 55.714716 
L 113.947621 53.568 
L 114.11003 177.85009 
L 114.272438 53.568 
L 114.759663 53.568 
L 114.922072 90.714794 
L 115.08448 59.883175 
L 115.246889 53.568 
L 115.409297 53.568 
L 115.571706 141.356826 
L 115.734114 152.825046 
L 116.058931 53.568 
L 116.22134 53.568 
L 116.383748 118.583814 
L 116.870974 53.568 
L 117.033382 53.568 
L 117.195791 169.723537 
L 117.358199 53.568 
L 117.520608 53.568 
L 117.683016 202.727868 
L 117.845425 53.568 
L 118.007833 160.681517 
L 118.170241 176.103522 
L 118.495058 53.568 
L 118.819875 53.568 
L 118.982284 118.546731 
L 119.307101 73.658294 
L 119.631918 65.147506 
L 119.794326 106.962463 
L 119.956735 60.92737 
L 120.119143 180.465203 
L 120.281552 81.004432 
L 120.44396 53.568 
L 120.768777 53.568 
L 121.093594 127.145453 
L 121.418411 69.868092 
L 121.58082 102.150979 
L 121.743228 53.568 
L 121.905636 103.565172 
L 122.068045 72.351412 
L 122.230453 145.253118 
L 122.55527 53.568 
L 122.717679 53.568 
L 122.880087 79.286614 
L 123.042496 84.328922 
L 123.204904 80.249259 
L 123.367313 53.568 
L 123.529721 141.916125 
L 123.854538 53.568 
L 124.016947 114.436021 
L 124.179355 53.568 
L 124.341764 109.337275 
L 124.504172 53.568 
L 124.828989 53.568 
L 124.991398 128.145163 
L 125.153806 53.568 
L 125.316214 104.099019 
L 125.478623 95.105214 
L 125.641031 53.568 
L 126.453074 53.568 
L 126.615482 169.086121 
L 126.777891 71.873655 
L 127.102708 118.169264 
L 127.265116 55.392162 
L 127.427525 126.331434 
L 127.589933 108.054556 
L 127.752342 127.848068 
L 127.91475 53.568 
L 128.077159 53.568 
L 128.239567 106.776141 
L 128.401976 54.647005 
L 128.564384 53.568 
L 128.726792 120.944467 
L 128.889201 140.247658 
L 129.214018 53.568 
L 129.376426 153.189157 
L 129.538835 56.698889 
L 129.701243 53.568 
L 130.02606 53.568 
L 130.188469 127.838789 
L 130.350877 53.568 
L 130.675694 117.085585 
L 130.838103 53.568 
L 131.000511 172.441356 
L 131.16292 54.712909 
L 131.325328 53.568 
L 131.487737 67.709895 
L 131.650145 53.568 
L 131.974962 61.158183 
L 132.137371 53.877372 
L 132.299779 53.568 
L 133.27423 53.568 
L 133.436638 210.842668 
L 133.599047 53.568 
L 133.761455 85.725148 
L 133.923864 53.568 
L 134.086272 87.965242 
L 134.411089 53.568 
L 134.573498 124.094205 
L 134.735906 111.792404 
L 134.898315 148.615396 
L 135.060723 53.568 
L 135.223132 53.568 
L 135.38554 70.202719 
L 135.547949 68.555491 
L 135.710357 83.96839 
L 135.872765 53.568 
L 136.035174 53.568 
L 136.359991 104.395048 
L 136.522399 53.568 
L 136.847216 53.568 
L 137.009625 79.269097 
L 137.172033 174.518744 
L 137.334442 152.065781 
L 137.659259 53.568 
L 137.984076 53.568 
L 138.308893 103.530672 
L 138.471301 53.568 
L 138.63371 71.725736 
L 138.958527 53.568 
L 139.120935 53.568 
L 139.283343 56.590996 
L 139.445752 53.568 
L 139.60816 96.703601 
L 139.770569 106.904316 
L 139.932977 53.568 
L 140.095386 53.568 
L 140.257794 141.576545 
L 140.420203 53.568 
L 140.582611 64.349974 
L 140.74502 53.568 
L 140.907428 53.568 
L 141.069837 117.3436 
L 141.394654 54.34613 
L 141.557062 53.568 
L 141.719471 86.573675 
L 141.881879 53.568 
L 142.044288 53.568 
L 142.206696 107.689073 
L 142.369105 53.568 
L 142.531513 165.050811 
L 142.693922 53.568 
L 142.85633 96.798538 
L 143.018738 63.897662 
L 143.343555 53.568 
L 143.505964 162.564625 
L 143.668372 55.028976 
L 143.830781 53.568 
L 144.155598 53.568 
L 144.318006 94.745833 
L 144.480415 60.407911 
L 144.642823 117.488469 
L 144.805232 53.568 
L 144.96764 53.568 
L 145.130049 139.312682 
L 145.454866 53.568 
L 145.617274 53.568 
L 145.779683 108.520278 
L 145.942091 53.568 
L 146.1045 168.862358 
L 146.429316 77.135587 
L 146.591725 53.568 
L 146.754133 73.822547 
L 147.07895 53.568 
L 147.403767 53.568 
L 147.566176 88.354732 
L 147.728584 53.568 
L 147.890993 74.964396 
L 148.053401 53.568 
L 148.21581 95.367987 
L 148.378218 53.568 
L 148.540627 97.615838 
L 148.703035 53.568 
L 148.865444 160.82348 
L 149.027852 53.568 
L 149.190261 88.769282 
L 149.352669 53.568 
L 149.677486 53.568 
L 149.839894 96.845022 
L 150.002303 53.568 
L 150.164711 84.955125 
L 150.32712 53.568 
L 150.489528 83.153149 
L 150.651937 53.568 
L 151.139162 114.284423 
L 151.301571 53.568 
L 151.463979 53.568 
L 151.626388 63.44658 
L 151.788796 53.568 
L 152.276022 53.568 
L 152.600839 173.93547 
L 152.763247 53.568 
L 152.925656 138.225764 
L 153.088064 53.568 
L 153.250473 126.175438 
L 153.412881 53.568 
L 153.575289 155.721416 
L 153.737698 53.568 
L 154.062515 53.568 
L 154.224923 168.67015 
L 154.387332 56.364502 
L 154.54974 201.16057 
L 154.712149 65.525658 
L 154.874557 53.568 
L 155.036966 104.820711 
L 155.361783 53.568 
L 155.524191 68.291456 
L 155.6866 68.869853 
L 156.011417 53.568 
L 156.173825 111.033324 
L 156.336234 53.568 
L 156.498642 104.051109 
L 156.661051 53.568 
L 156.823459 108.861167 
L 156.985867 53.568 
L 157.148276 189.724075 
L 157.310684 74.666644 
L 157.473093 156.889524 
L 157.635501 53.568 
L 157.79791 170.632134 
L 157.960318 148.894072 
L 158.122727 169.05436 
L 158.285135 105.336626 
L 158.447544 102.631364 
L 158.609952 106.987357 
L 158.772361 53.568 
L 158.934769 53.568 
L 159.097178 79.93238 
L 159.259586 172.790211 
L 159.421995 86.299185 
L 159.584403 116.521444 
L 159.746812 66.910102 
L 159.90922 53.568 
L 160.234037 53.568 
L 160.396445 149.482379 
L 160.721262 53.568 
L 161.046079 53.568 
L 161.208488 76.175791 
L 161.370896 72.004993 
L 161.533305 53.568 
L 161.695713 82.687901 
L 161.858122 78.931559 
L 162.02053 164.749627 
L 162.182939 53.568 
L 162.345347 107.73851 
L 162.832573 53.568 
L 163.644615 53.568 
L 163.807024 133.055939 
L 163.969432 53.568 
L 164.13184 53.568 
L 164.294249 127.871772 
L 164.456657 53.568 
L 164.619066 53.568 
L 164.781474 167.827555 
L 164.943883 53.568 
L 165.106291 53.568 
L 165.2687 152.204214 
L 165.431108 53.568 
L 165.593517 140.132372 
L 165.755925 74.095211 
L 165.918334 55.683547 
L 166.080742 152.656052 
L 166.243151 129.202591 
L 166.405559 163.242918 
L 166.567968 53.568 
L 166.730376 53.568 
L 166.892785 79.18822 
L 167.055193 81.343915 
L 167.217602 53.568 
L 167.38001 74.51459 
L 167.542418 53.568 
L 167.867235 53.568 
L 168.029644 73.372028 
L 168.192052 74.5301 
L 168.354461 70.048064 
L 168.516869 53.957371 
L 168.679278 63.941416 
L 168.841686 103.740518 
L 169.004095 189.337257 
L 169.328912 53.568 
L 170.303363 53.568 
L 170.465771 83.258507 
L 170.62818 53.568 
L 171.115405 53.568 
L 171.277813 149.235515 
L 171.440222 53.568 
L 171.927447 53.568 
L 172.089856 96.492002 
L 172.252264 53.568 
L 172.414673 157.020977 
L 172.577081 53.568 
L 172.73949 53.568 
L 172.901898 71.47067 
L 173.064307 53.568 
L 173.226715 53.568 
L 173.551532 100.679934 
L 173.713941 53.568 
L 173.876349 53.568 
L 174.201166 112.407797 
L 174.363575 53.568 
L 174.525983 53.568 
L 174.688391 62.135518 
L 174.8508 53.568 
L 175.013208 53.568 
L 175.175617 92.311725 
L 175.338025 53.568 
L 175.500434 53.832348 
L 175.662842 53.568 
L 176.150068 53.568 
L 176.312476 147.993734 
L 176.474885 53.568 
L 176.637293 72.101011 
L 176.799702 68.2955 
L 176.96211 53.568 
L 177.124519 157.03185 
L 177.286927 53.568 
L 177.449336 203.912098 
L 177.774153 53.568 
L 177.936561 71.021255 
L 178.261378 136.133644 
L 178.423786 53.568 
L 178.586195 53.568 
L 178.748603 193.253137 
L 178.911012 210.13309 
L 179.235829 53.568 
L 179.398237 53.568 
L 179.560646 60.888137 
L 179.723054 82.477928 
L 179.885463 53.568 
L 180.047871 53.568 
L 180.21028 69.711049 
L 180.372688 53.568 
L 180.535097 53.568 
L 180.697505 232.897582 
L 180.859914 53.568 
L 181.022322 53.568 
L 181.184731 130.588089 
L 181.347139 53.568 
L 181.509548 188.132371 
L 181.671956 111.919026 
L 181.834364 198.779541 
L 182.159181 53.568 
L 182.32159 134.094032 
L 182.483998 53.568 
L 182.646407 96.552157 
L 182.808815 61.241773 
L 182.971224 149.189862 
L 183.133632 53.568 
L 183.296041 66.058451 
L 183.620858 186.01778 
L 183.783266 107.676302 
L 183.945675 119.895429 
L 184.108083 112.789166 
L 184.270492 134.395846 
L 184.4329 118.255559 
L 184.595309 53.568 
L 184.757717 53.568 
L 184.920126 118.578664 
L 185.082534 53.568 
L 185.244942 115.614024 
L 185.407351 53.568 
L 185.569759 105.933197 
L 185.732168 53.568 
L 185.894576 53.568 
L 186.056985 82.484171 
L 186.219393 53.568 
L 186.54421 53.568 
L 186.706619 72.702071 
L 186.869027 53.568 
L 188.005887 53.568 
L 188.168295 125.960257 
L 188.330704 53.568 
L 188.493112 77.757947 
L 188.65552 248.027627 
L 188.980337 53.568 
L 189.142746 53.568 
L 189.305154 111.540638 
L 189.629971 71.898485 
L 189.79238 69.672851 
L 189.954788 53.568 
L 190.279605 53.568 
L 190.442014 106.788156 
L 190.604422 53.568 
L 190.929239 53.568 
L 191.091648 162.99088 
L 191.254056 53.568 
L 191.416465 90.727715 
L 191.578873 53.568 
L 191.90369 53.568 
L 192.066099 135.224243 
L 192.228507 53.568 
L 192.390915 53.568 
L 192.553324 60.307886 
L 192.715732 53.568 
L 192.878141 96.363753 
L 193.040549 60.434981 
L 193.202958 53.568 
L 193.365366 211.405211 
L 193.527775 55.936137 
L 193.690183 72.926279 
L 193.852592 53.568 
L 194.015 53.568 
L 194.177409 55.496283 
L 194.339817 63.985044 
L 194.502226 53.568 
L 194.664634 161.372911 
L 194.827043 90.571639 
L 195.15186 53.568 
L 195.314268 94.960377 
L 195.639085 87.017016 
L 195.801493 149.478442 
L 195.963902 102.546409 
L 196.12631 122.204356 
L 196.288719 122.936922 
L 196.451127 53.568 
L 196.613536 53.568 
L 196.775944 192.181977 
L 196.938353 53.568 
L 197.100761 53.568 
L 197.26317 90.508656 
L 197.425578 180.527862 
L 197.587987 53.568 
L 197.750395 99.484331 
L 197.912804 98.810601 
L 198.075212 194.096532 
L 198.237621 113.385427 
L 198.400029 112.223316 
L 198.562438 63.179042 
L 198.724846 53.568 
L 198.887255 99.424161 
L 199.049663 53.568 
L 199.212071 53.568 
L 199.536888 58.28815 
L 199.699297 53.568 
L 199.861705 151.086204 
L 200.186522 53.568 
L 200.348931 158.451748 
L 200.511339 168.222263 
L 200.673748 53.568 
L 200.836156 63.972151 
L 200.998565 53.568 
L 201.160973 53.568 
L 201.323382 69.040871 
L 201.48579 97.104722 
L 201.648199 53.568 
L 201.973016 53.568 
L 202.135424 83.024059 
L 202.297833 145.661057 
L 202.460241 112.427809 
L 202.62265 53.568 
L 202.785058 107.348403 
L 202.947466 53.568 
L 203.109875 108.418953 
L 203.272283 53.568 
L 203.434692 67.444784 
L 203.5971 53.568 
L 204.084326 210.831668 
L 204.246734 53.568 
L 204.409143 111.865601 
L 204.571551 115.652266 
L 204.73396 93.522569 
L 204.896368 151.864972 
L 205.221185 64.075849 
L 205.383594 53.568 
L 205.546002 53.568 
L 205.708411 78.040322 
L 205.870819 53.568 
L 206.520453 53.568 
L 206.682861 60.477195 
L 206.84527 270.933167 
L 207.007678 53.568 
L 207.170087 163.500971 
L 207.332495 77.868059 
L 207.494904 53.568 
L 207.819721 53.568 
L 207.982129 77.363891 
L 208.144538 54.535754 
L 208.306946 53.568 
L 208.469355 97.743726 
L 208.794172 86.680667 
L 208.95658 57.969014 
L 209.118989 57.08338 
L 209.281397 173.547826 
L 209.443806 53.568 
L 209.606214 91.555998 
L 209.768622 100.815073 
L 209.931031 53.568 
L 210.255848 53.568 
L 210.418256 122.919508 
L 210.743073 53.568 
L 210.905482 53.568 
L 211.06789 61.347644 
L 211.230299 53.568 
L 211.392707 53.568 
L 211.555116 53.999785 
L 211.717524 53.568 
L 212.042341 53.568 
L 212.20475 137.382055 
L 212.367158 67.309553 
L 212.529567 53.568 
L 213.016792 53.568 
L 213.179201 61.589476 
L 213.341609 189.985186 
L 213.504017 109.756008 
L 213.666426 110.777032 
L 213.828834 53.568 
L 214.153651 53.568 
L 214.478468 75.609349 
L 214.640877 53.568 
L 214.803285 53.568 
L 214.965694 256.389782 
L 215.128102 100.130216 
L 215.290511 53.568 
L 215.452919 129.697682 
L 215.615328 53.568 
L 215.777736 53.568 
L 215.940145 97.347611 
L 216.102553 88.399834 
L 216.264962 53.568 
L 216.42737 53.568 
L 216.589779 69.794669 
L 216.752187 160.392094 
L 216.914595 88.63507 
L 217.239412 53.568 
L 217.401821 53.568 
L 217.564229 170.761663 
L 217.726638 53.568 
L 218.051455 53.568 
L 218.213863 159.299959 
L 218.53868 53.568 
L 219.025906 53.568 
L 219.188314 82.280718 
L 219.350723 53.568 
L 220.162765 53.568 
L 220.325173 185.984998 
L 220.487582 85.760479 
L 220.64999 111.95141 
L 220.812399 53.568 
L 220.974807 212.223346 
L 221.137216 82.403134 
L 221.299624 53.568 
L 221.624441 53.568 
L 221.949258 134.288788 
L 222.111667 83.379546 
L 222.274075 97.407931 
L 222.436484 53.568 
L 222.598892 53.568 
L 222.761301 133.507692 
L 222.923709 56.222758 
L 223.086118 130.900831 
L 223.410935 53.568 
L 223.573343 105.672969 
L 223.735752 59.65864 
L 223.89816 53.568 
L 224.060568 83.487345 
L 224.222977 53.568 
L 224.547794 53.568 
L 224.710202 129.085212 
L 224.872611 101.46271 
L 225.035019 53.568 
L 225.359836 53.568 
L 225.522245 150.563501 
L 225.684653 53.568 
L 226.171879 53.568 
L 226.334287 131.051825 
L 226.496696 53.568 
L 226.659104 85.364271 
L 226.983921 53.568 
L 227.795963 53.568 
L 227.958372 104.247901 
L 228.12078 97.024196 
L 228.283189 135.325141 
L 228.445597 53.568 
L 228.608006 53.568 
L 228.770414 103.507594 
L 228.932823 53.568 
L 229.25764 53.568 
L 229.582457 145.135441 
L 229.744865 53.568 
L 230.069682 53.568 
L 230.394499 166.927433 
L 230.556908 125.24942 
L 230.719316 145.964955 
L 231.044133 53.568 
L 231.206541 65.82971 
L 231.36895 141.515487 
L 231.531358 53.568 
L 231.693767 53.568 
L 231.856175 78.165544 
L 232.018584 53.568 
L 232.180992 116.193839 
L 232.343401 56.091336 
L 232.505809 53.568 
L 232.668218 161.684379 
L 232.830626 76.628062 
L 232.993035 197.344844 
L 233.155443 53.568 
L 233.317852 53.568 
L 233.48026 75.25618 
L 233.642669 53.568 
L 233.805077 53.568 
L 233.967486 119.428979 
L 234.129894 53.568 
L 234.292303 126.079653 
L 234.454711 53.568 
L 234.617119 53.568 
L 234.779528 128.142834 
L 234.941936 53.568 
L 235.753979 53.568 
L 235.916387 66.823247 
L 236.078796 53.568 
L 236.078796 53.568 
" style="fill:none;stroke:#1f77b4;stroke-linecap:square;stroke-width:1.5;"/>
   </g>
   <g id="patch_3">
    <path d="M 57.6 307.584 
L 57.6 41.472 
" style="fill:none;stroke:#000000;stroke-linecap:square;stroke-linejoin:miter;stroke-width:0.8;"/>
   </g>
   <g id="patch_4">
    <path d="M 414.72 307.584 
L 414.72 41.472 
" style="fill:none;stroke:#000000;stroke-linecap:square;stroke-linejoin:miter;stroke-width:0.8;"/>
   </g>
   <g id="patch_5">
    <path d="M 57.6 307.584 
L 414.72 307.584 
" style="fill:none;stroke:#000000;stroke-linecap:square;stroke-linejoin:miter;stroke-width:0.8;"/>
   </g>
   <g id="patch_6">
    <path d="M 57.6 41.472 
L 414.72 41.472 
" style="fill:none;stroke:#000000;stroke-linecap:square;stroke-linejoin:miter;stroke-width:0.8;"/>
   </g>
   <g id="text_18">
    <!-- Acceptance probability -->
    <defs>
     <path d="M 34.1875 63.1875 
L 20.796875 26.90625 
L 47.609375 26.90625 
z
M 28.609375 72.90625 
L 39.796875 72.90625 
L 67.578125 0 
L 57.328125 0 
L 50.6875 18.703125 
L 17.828125 18.703125 
L 11.1875 0 
L 0.78125 0 
z
" id="DejaVuSans-65"/>
     <path d="M 48.78125 52.59375 
L 48.78125 44.1875 
Q 44.96875 46.296875 41.140625 47.34375 
Q 37.3125 48.390625 33.40625 48.390625 
Q 24.65625 48.390625 19.8125 42.84375 
Q 14.984375 37.3125 14.984375 27.296875 
Q 14.984375 17.28125 19.8125 11.734375 
Q 24.65625 6.203125 33.40625 6.203125 
Q 37.3125 6.203125 41.140625 7.25 
Q 44.96875 8.296875 48.78125 10.40625 
L 48.78125 2.09375 
Q 45.015625 0.34375 40.984375 -0.53125 
Q 36.96875 -1.421875 32.421875 -1.421875 
Q 20.0625 -1.421875 12.78125 6.34375 
Q 5.515625 14.109375 5.515625 27.296875 
Q 5.515625 40.671875 12.859375 48.328125 
Q 20.21875 56 33.015625 56 
Q 37.15625 56 41.109375 55.140625 
Q 45.0625 54.296875 48.78125 52.59375 
z
" id="DejaVuSans-99"/>
     <path d="M 56.203125 29.59375 
L 56.203125 25.203125 
L 14.890625 25.203125 
Q 15.484375 15.921875 20.484375 11.0625 
Q 25.484375 6.203125 34.421875 6.203125 
Q 39.59375 6.203125 44.453125 7.46875 
Q 49.3125 8.734375 54.109375 11.28125 
L 54.109375 2.78125 
Q 49.265625 0.734375 44.1875 -0.34375 
Q 39.109375 -1.421875 33.890625 -1.421875 
Q 20.796875 -1.421875 13.15625 6.1875 
Q 5.515625 13.8125 5.515625 26.8125 
Q 5.515625 40.234375 12.765625 48.109375 
Q 20.015625 56 32.328125 56 
Q 43.359375 56 49.78125 48.890625 
Q 56.203125 41.796875 56.203125 29.59375 
z
M 47.21875 32.234375 
Q 47.125 39.59375 43.09375 43.984375 
Q 39.0625 48.390625 32.421875 48.390625 
Q 24.90625 48.390625 20.390625 44.140625 
Q 15.875 39.890625 15.1875 32.171875 
z
" id="DejaVuSans-101"/>
     <path d="M 18.109375 8.203125 
L 18.109375 -20.796875 
L 9.078125 -20.796875 
L 9.078125 54.6875 
L 18.109375 54.6875 
L 18.109375 46.390625 
Q 20.953125 51.265625 25.265625 53.625 
Q 29.59375 56 35.59375 56 
Q 45.5625 56 51.78125 48.09375 
Q 58.015625 40.1875 58.015625 27.296875 
Q 58.015625 14.40625 51.78125 6.484375 
Q 45.5625 -1.421875 35.59375 -1.421875 
Q 29.59375 -1.421875 25.265625 0.953125 
Q 20.953125 3.328125 18.109375 8.203125 
z
M 48.6875 27.296875 
Q 48.6875 37.203125 44.609375 42.84375 
Q 40.53125 48.484375 33.40625 48.484375 
Q 26.265625 48.484375 22.1875 42.84375 
Q 18.109375 37.203125 18.109375 27.296875 
Q 18.109375 17.390625 22.1875 11.75 
Q 26.265625 6.109375 33.40625 6.109375 
Q 40.53125 6.109375 44.609375 11.75 
Q 48.6875 17.390625 48.6875 27.296875 
z
" id="DejaVuSans-112"/>
     <path d="M 18.3125 70.21875 
L 18.3125 54.6875 
L 36.8125 54.6875 
L 36.8125 47.703125 
L 18.3125 47.703125 
L 18.3125 18.015625 
Q 18.3125 11.328125 20.140625 9.421875 
Q 21.96875 7.515625 27.59375 7.515625 
L 36.8125 7.515625 
L 36.8125 0 
L 27.59375 0 
Q 17.1875 0 13.234375 3.875 
Q 9.28125 7.765625 9.28125 18.015625 
L 9.28125 47.703125 
L 2.6875 47.703125 
L 2.6875 54.6875 
L 9.28125 54.6875 
L 9.28125 70.21875 
z
" id="DejaVuSans-116"/>
     <path d="M 34.28125 27.484375 
Q 23.390625 27.484375 19.1875 25 
Q 14.984375 22.515625 14.984375 16.5 
Q 14.984375 11.71875 18.140625 8.90625 
Q 21.296875 6.109375 26.703125 6.109375 
Q 34.1875 6.109375 38.703125 11.40625 
Q 43.21875 16.703125 43.21875 25.484375 
L 43.21875 27.484375 
z
M 52.203125 31.203125 
L 52.203125 0 
L 43.21875 0 
L 43.21875 8.296875 
Q 40.140625 3.328125 35.546875 0.953125 
Q 30.953125 -1.421875 24.3125 -1.421875 
Q 15.921875 -1.421875 10.953125 3.296875 
Q 6 8.015625 6 15.921875 
Q 6 25.140625 12.171875 29.828125 
Q 18.359375 34.515625 30.609375 34.515625 
L 43.21875 34.515625 
L 43.21875 35.40625 
Q 43.21875 41.609375 39.140625 45 
Q 35.0625 48.390625 27.6875 48.390625 
Q 23 48.390625 18.546875 47.265625 
Q 14.109375 46.140625 10.015625 43.890625 
L 10.015625 52.203125 
Q 14.9375 54.109375 19.578125 55.046875 
Q 24.21875 56 28.609375 56 
Q 40.484375 56 46.34375 49.84375 
Q 52.203125 43.703125 52.203125 31.203125 
z
" id="DejaVuSans-97"/>
     <path d="M 54.890625 33.015625 
L 54.890625 0 
L 45.90625 0 
L 45.90625 32.71875 
Q 45.90625 40.484375 42.875 44.328125 
Q 39.84375 48.1875 33.796875 48.1875 
Q 26.515625 48.1875 22.3125 43.546875 
Q 18.109375 38.921875 18.109375 30.90625 
L 18.109375 0 
L 9.078125 0 
L 9.078125 54.6875 
L 18.109375 54.6875 
L 18.109375 46.1875 
Q 21.34375 51.125 25.703125 53.5625 
Q 30.078125 56 35.796875 56 
Q 45.21875 56 50.046875 50.171875 
Q 54.890625 44.34375 54.890625 33.015625 
z
" id="DejaVuSans-110"/>
     <path id="DejaVuSans-32"/>
     <path d="M 41.109375 46.296875 
Q 39.59375 47.171875 37.8125 47.578125 
Q 36.03125 48 33.890625 48 
Q 26.265625 48 22.1875 43.046875 
Q 18.109375 38.09375 18.109375 28.8125 
L 18.109375 0 
L 9.078125 0 
L 9.078125 54.6875 
L 18.109375 54.6875 
L 18.109375 46.1875 
Q 20.953125 51.171875 25.484375 53.578125 
Q 30.03125 56 36.53125 56 
Q 37.453125 56 38.578125 55.875 
Q 39.703125 55.765625 41.0625 55.515625 
z
" id="DejaVuSans-114"/>
     <path d="M 30.609375 48.390625 
Q 23.390625 48.390625 19.1875 42.75 
Q 14.984375 37.109375 14.984375 27.296875 
Q 14.984375 17.484375 19.15625 11.84375 
Q 23.34375 6.203125 30.609375 6.203125 
Q 37.796875 6.203125 41.984375 11.859375 
Q 46.1875 17.53125 46.1875 27.296875 
Q 46.1875 37.015625 41.984375 42.703125 
Q 37.796875 48.390625 30.609375 48.390625 
z
M 30.609375 56 
Q 42.328125 56 49.015625 48.375 
Q 55.71875 40.765625 55.71875 27.296875 
Q 55.71875 13.875 49.015625 6.21875 
Q 42.328125 -1.421875 30.609375 -1.421875 
Q 18.84375 -1.421875 12.171875 6.21875 
Q 5.515625 13.875 5.515625 27.296875 
Q 5.515625 40.765625 12.171875 48.375 
Q 18.84375 56 30.609375 56 
z
" id="DejaVuSans-111"/>
     <path d="M 48.6875 27.296875 
Q 48.6875 37.203125 44.609375 42.84375 
Q 40.53125 48.484375 33.40625 48.484375 
Q 26.265625 48.484375 22.1875 42.84375 
Q 18.109375 37.203125 18.109375 27.296875 
Q 18.109375 17.390625 22.1875 11.75 
Q 26.265625 6.109375 33.40625 6.109375 
Q 40.53125 6.109375 44.609375 11.75 
Q 48.6875 17.390625 48.6875 27.296875 
z
M 18.109375 46.390625 
Q 20.953125 51.265625 25.265625 53.625 
Q 29.59375 56 35.59375 56 
Q 45.5625 56 51.78125 48.09375 
Q 58.015625 40.1875 58.015625 27.296875 
Q 58.015625 14.40625 51.78125 6.484375 
Q 45.5625 -1.421875 35.59375 -1.421875 
Q 29.59375 -1.421875 25.265625 0.953125 
Q 20.953125 3.328125 18.109375 8.203125 
L 18.109375 0 
L 9.078125 0 
L 9.078125 75.984375 
L 18.109375 75.984375 
z
" id="DejaVuSans-98"/>
     <path d="M 9.421875 54.6875 
L 18.40625 54.6875 
L 18.40625 0 
L 9.421875 0 
z
M 9.421875 75.984375 
L 18.40625 75.984375 
L 18.40625 64.59375 
L 9.421875 64.59375 
z
" id="DejaVuSans-105"/>
     <path d="M 9.421875 75.984375 
L 18.40625 75.984375 
L 18.40625 0 
L 9.421875 0 
z
" id="DejaVuSans-108"/>
     <path d="M 32.171875 -5.078125 
Q 28.375 -14.84375 24.75 -17.8125 
Q 21.140625 -20.796875 15.09375 -20.796875 
L 7.90625 -20.796875 
L 7.90625 -13.28125 
L 13.1875 -13.28125 
Q 16.890625 -13.28125 18.9375 -11.515625 
Q 21 -9.765625 23.484375 -3.21875 
L 25.09375 0.875 
L 2.984375 54.6875 
L 12.5 54.6875 
L 29.59375 11.921875 
L 46.6875 54.6875 
L 56.203125 54.6875 
z
" id="DejaVuSans-121"/>
    </defs>
    <g transform="translate(167.32125 35.472)scale(0.12 -0.12)">
     <use xlink:href="#DejaVuSans-65"/>
     <use x="66.658203" xlink:href="#DejaVuSans-99"/>
     <use x="121.638672" xlink:href="#DejaVuSans-99"/>
     <use x="176.619141" xlink:href="#DejaVuSans-101"/>
     <use x="238.142578" xlink:href="#DejaVuSans-112"/>
     <use x="301.619141" xlink:href="#DejaVuSans-116"/>
     <use x="340.828125" xlink:href="#DejaVuSans-97"/>
     <use x="402.107422" xlink:href="#DejaVuSans-110"/>
     <use x="465.486328" xlink:href="#DejaVuSans-99"/>
     <use x="520.466797" xlink:href="#DejaVuSans-101"/>
     <use x="581.990234" xlink:href="#DejaVuSans-32"/>
     <use x="613.777344" xlink:href="#DejaVuSans-112"/>
     <use x="677.253906" xlink:href="#DejaVuSans-114"/>
     <use x="716.117188" xlink:href="#DejaVuSans-111"/>
     <use x="777.298828" xlink:href="#DejaVuSans-98"/>
     <use x="840.775391" xlink:href="#DejaVuSans-97"/>
     <use x="902.054688" xlink:href="#DejaVuSans-98"/>
     <use x="965.53125" xlink:href="#DejaVuSans-105"/>
     <use x="993.314453" xlink:href="#DejaVuSans-108"/>
     <use x="1021.097656" xlink:href="#DejaVuSans-105"/>
     <use x="1048.880859" xlink:href="#DejaVuSans-116"/>
     <use x="1088.089844" xlink:href="#DejaVuSans-121"/>
    </g>
   </g>
  </g>
 </g>
 <defs>
  <clipPath id="p255fde8912">
   <rect height="266.112" width="357.12" x="57.6" y="41.472"/>
  </clipPath>
 </defs>
</svg>
