<?xml version="1.0" encoding="utf-8" standalone="no"?>
<!DOCTYPE svg PUBLIC "-//W3C//DTD SVG 1.1//EN"
  "http://www.w3.org/Graphics/SVG/1.1/DTD/svg11.dtd">
<!-- Created with matplotlib (https://matplotlib.org/) -->
<svg height="345.6pt" version="1.1" viewBox="0 0 460.8 345.6" width="460.8pt" xmlns="http://www.w3.org/2000/svg" xmlns:xlink="http://www.w3.org/1999/xlink">
 <defs>
  <style type="text/css">
*{stroke-linecap:butt;stroke-linejoin:round;}
  </style>
 </defs>
 <g id="figure_1">
  <g id="patch_1">
   <path d="M 0 345.6 
L 460.8 345.6 
L 460.8 0 
L 0 0 
z
" style="fill:#ffffff;"/>
  </g>
  <g id="axes_1">
   <g id="patch_2">
    <path d="M 57.6 307.584 
L 414.72 307.584 
L 414.72 41.472 
L 57.6 41.472 
z
" style="fill:#ffffff;"/>
   </g>
   <g id="PolyCollection_1">
    <defs>
     <path d="M 182.050909 -86.517461 
L 182.050909 -86.141362 
L 192.872727 -86.141362 
L 203.694545 -86.141362 
L 214.516364 -86.141362 
L 225.338182 -86.141362 
L 236.16 -86.141362 
L 246.981818 -86.141362 
L 257.803636 -86.141362 
L 268.625455 -86.141362 
L 279.447273 -86.141362 
L 279.447273 -86.517461 
L 279.447273 -86.517461 
L 268.625455 -86.517461 
L 257.803636 -86.517461 
L 246.981818 -86.517461 
L 236.16 -86.517461 
L 225.338182 -86.517461 
L 214.516364 -86.517461 
L 203.694545 -86.517461 
L 192.872727 -86.517461 
L 182.050909 -86.517461 
z
" id="me723e3d9be" style="stroke:#808080;stroke-opacity:0.4;"/>
    </defs>
    <g clip-path="url(#p0965a94b4f)">
     <use style="fill:#808080;fill-opacity:0.4;stroke:#808080;stroke-opacity:0.4;" x="0" xlink:href="#me723e3d9be" y="345.6"/>
    </g>
   </g>
   <g id="matplotlib.axis_1">
    <g id="xtick_1">
     <g id="line2d_1">
      <defs>
       <path d="M 0 0 
L 0 3.5 
" id="m59206d254f" style="stroke:#000000;stroke-width:0.8;"/>
      </defs>
      <g>
       <use style="stroke:#000000;stroke-width:0.8;" x="73.832727" xlink:href="#m59206d254f" y="307.584"/>
      </g>
     </g>
     <g id="text_1">
      <!-- 0 -->
      <defs>
       <path d="M 31.78125 66.40625 
Q 24.171875 66.40625 20.328125 58.90625 
Q 16.5 51.421875 16.5 36.375 
Q 16.5 21.390625 20.328125 13.890625 
Q 24.171875 6.390625 31.78125 6.390625 
Q 39.453125 6.390625 43.28125 13.890625 
Q 47.125 21.390625 47.125 36.375 
Q 47.125 51.421875 43.28125 58.90625 
Q 39.453125 66.40625 31.78125 66.40625 
z
M 31.78125 74.21875 
Q 44.046875 74.21875 50.515625 64.515625 
Q 56.984375 54.828125 56.984375 36.375 
Q 56.984375 17.96875 50.515625 8.265625 
Q 44.046875 -1.421875 31.78125 -1.421875 
Q 19.53125 -1.421875 13.0625 8.265625 
Q 6.59375 17.96875 6.59375 36.375 
Q 6.59375 54.828125 13.0625 64.515625 
Q 19.53125 74.21875 31.78125 74.21875 
z
" id="DejaVuSans-48"/>
      </defs>
      <g transform="translate(70.651477 322.182437)scale(0.1 -0.1)">
       <use xlink:href="#DejaVuSans-48"/>
      </g>
     </g>
    </g>
    <g id="xtick_2">
     <g id="line2d_2">
      <g>
       <use style="stroke:#000000;stroke-width:0.8;" x="127.941818" xlink:href="#m59206d254f" y="307.584"/>
      </g>
     </g>
     <g id="text_2">
      <!-- 5 -->
      <defs>
       <path d="M 10.796875 72.90625 
L 49.515625 72.90625 
L 49.515625 64.59375 
L 19.828125 64.59375 
L 19.828125 46.734375 
Q 21.96875 47.46875 24.109375 47.828125 
Q 26.265625 48.1875 28.421875 48.1875 
Q 40.625 48.1875 47.75 41.5 
Q 54.890625 34.8125 54.890625 23.390625 
Q 54.890625 11.625 47.5625 5.09375 
Q 40.234375 -1.421875 26.90625 -1.421875 
Q 22.3125 -1.421875 17.546875 -0.640625 
Q 12.796875 0.140625 7.71875 1.703125 
L 7.71875 11.625 
Q 12.109375 9.234375 16.796875 8.0625 
Q 21.484375 6.890625 26.703125 6.890625 
Q 35.15625 6.890625 40.078125 11.328125 
Q 45.015625 15.765625 45.015625 23.390625 
Q 45.015625 31 40.078125 35.4375 
Q 35.15625 39.890625 26.703125 39.890625 
Q 22.75 39.890625 18.8125 39.015625 
Q 14.890625 38.140625 10.796875 36.28125 
z
" id="DejaVuSans-53"/>
      </defs>
      <g transform="translate(124.760568 322.182437)scale(0.1 -0.1)">
       <use xlink:href="#DejaVuSans-53"/>
      </g>
     </g>
    </g>
    <g id="xtick_3">
     <g id="line2d_3">
      <g>
       <use style="stroke:#000000;stroke-width:0.8;" x="182.050909" xlink:href="#m59206d254f" y="307.584"/>
      </g>
     </g>
     <g id="text_3">
      <!-- 10 -->
      <defs>
       <path d="M 12.40625 8.296875 
L 28.515625 8.296875 
L 28.515625 63.921875 
L 10.984375 60.40625 
L 10.984375 69.390625 
L 28.421875 72.90625 
L 38.28125 72.90625 
L 38.28125 8.296875 
L 54.390625 8.296875 
L 54.390625 0 
L 12.40625 0 
z
" id="DejaVuSans-49"/>
      </defs>
      <g transform="translate(175.688409 322.182437)scale(0.1 -0.1)">
       <use xlink:href="#DejaVuSans-49"/>
       <use x="63.623047" xlink:href="#DejaVuSans-48"/>
      </g>
     </g>
    </g>
    <g id="xtick_4">
     <g id="line2d_4">
      <g>
       <use style="stroke:#000000;stroke-width:0.8;" x="236.16" xlink:href="#m59206d254f" y="307.584"/>
      </g>
     </g>
     <g id="text_4">
      <!-- 15 -->
      <g transform="translate(229.7975 322.182437)scale(0.1 -0.1)">
       <use xlink:href="#DejaVuSans-49"/>
       <use x="63.623047" xlink:href="#DejaVuSans-53"/>
      </g>
     </g>
    </g>
    <g id="xtick_5">
     <g id="line2d_5">
      <g>
       <use style="stroke:#000000;stroke-width:0.8;" x="290.269091" xlink:href="#m59206d254f" y="307.584"/>
      </g>
     </g>
     <g id="text_5">
      <!-- 20 -->
      <defs>
       <path d="M 19.1875 8.296875 
L 53.609375 8.296875 
L 53.609375 0 
L 7.328125 0 
L 7.328125 8.296875 
Q 12.9375 14.109375 22.625 23.890625 
Q 32.328125 33.6875 34.8125 36.53125 
Q 39.546875 41.84375 41.421875 45.53125 
Q 43.3125 49.21875 43.3125 52.78125 
Q 43.3125 58.59375 39.234375 62.25 
Q 35.15625 65.921875 28.609375 65.921875 
Q 23.96875 65.921875 18.8125 64.3125 
Q 13.671875 62.703125 7.8125 59.421875 
L 7.8125 69.390625 
Q 13.765625 71.78125 18.9375 73 
Q 24.125 74.21875 28.421875 74.21875 
Q 39.75 74.21875 46.484375 68.546875 
Q 53.21875 62.890625 53.21875 53.421875 
Q 53.21875 48.921875 51.53125 44.890625 
Q 49.859375 40.875 45.40625 35.40625 
Q 44.1875 33.984375 37.640625 27.21875 
Q 31.109375 20.453125 19.1875 8.296875 
z
" id="DejaVuSans-50"/>
      </defs>
      <g transform="translate(283.906591 322.182437)scale(0.1 -0.1)">
       <use xlink:href="#DejaVuSans-50"/>
       <use x="63.623047" xlink:href="#DejaVuSans-48"/>
      </g>
     </g>
    </g>
    <g id="xtick_6">
     <g id="line2d_6">
      <g>
       <use style="stroke:#000000;stroke-width:0.8;" x="344.378182" xlink:href="#m59206d254f" y="307.584"/>
      </g>
     </g>
     <g id="text_6">
      <!-- 25 -->
      <g transform="translate(338.015682 322.182437)scale(0.1 -0.1)">
       <use xlink:href="#DejaVuSans-50"/>
       <use x="63.623047" xlink:href="#DejaVuSans-53"/>
      </g>
     </g>
    </g>
    <g id="xtick_7">
     <g id="line2d_7">
      <g>
       <use style="stroke:#000000;stroke-width:0.8;" x="398.487273" xlink:href="#m59206d254f" y="307.584"/>
      </g>
     </g>
     <g id="text_7">
      <!-- 30 -->
      <defs>
       <path d="M 40.578125 39.3125 
Q 47.65625 37.796875 51.625 33 
Q 55.609375 28.21875 55.609375 21.1875 
Q 55.609375 10.40625 48.1875 4.484375 
Q 40.765625 -1.421875 27.09375 -1.421875 
Q 22.515625 -1.421875 17.65625 -0.515625 
Q 12.796875 0.390625 7.625 2.203125 
L 7.625 11.71875 
Q 11.71875 9.328125 16.59375 8.109375 
Q 21.484375 6.890625 26.8125 6.890625 
Q 36.078125 6.890625 40.9375 10.546875 
Q 45.796875 14.203125 45.796875 21.1875 
Q 45.796875 27.640625 41.28125 31.265625 
Q 36.765625 34.90625 28.71875 34.90625 
L 20.21875 34.90625 
L 20.21875 43.015625 
L 29.109375 43.015625 
Q 36.375 43.015625 40.234375 45.921875 
Q 44.09375 48.828125 44.09375 54.296875 
Q 44.09375 59.90625 40.109375 62.90625 
Q 36.140625 65.921875 28.71875 65.921875 
Q 24.65625 65.921875 20.015625 65.03125 
Q 15.375 64.15625 9.8125 62.3125 
L 9.8125 71.09375 
Q 15.4375 72.65625 20.34375 73.4375 
Q 25.25 74.21875 29.59375 74.21875 
Q 40.828125 74.21875 47.359375 69.109375 
Q 53.90625 64.015625 53.90625 55.328125 
Q 53.90625 49.265625 50.4375 45.09375 
Q 46.96875 40.921875 40.578125 39.3125 
z
" id="DejaVuSans-51"/>
      </defs>
      <g transform="translate(392.124773 322.182437)scale(0.1 -0.1)">
       <use xlink:href="#DejaVuSans-51"/>
       <use x="63.623047" xlink:href="#DejaVuSans-48"/>
      </g>
     </g>
    </g>
   </g>
   <g id="matplotlib.axis_2">
    <g id="ytick_1">
     <g id="line2d_8">
      <defs>
       <path d="M 0 0 
L -3.5 0 
" id="m3f9774204a" style="stroke:#000000;stroke-width:0.8;"/>
      </defs>
      <g>
       <use style="stroke:#000000;stroke-width:0.8;" x="57.6" xlink:href="#m3f9774204a" y="273.326024"/>
      </g>
     </g>
     <g id="text_8">
      <!-- 0.8 -->
      <defs>
       <path d="M 10.6875 12.40625 
L 21 12.40625 
L 21 0 
L 10.6875 0 
z
" id="DejaVuSans-46"/>
       <path d="M 31.78125 34.625 
Q 24.75 34.625 20.71875 30.859375 
Q 16.703125 27.09375 16.703125 20.515625 
Q 16.703125 13.921875 20.71875 10.15625 
Q 24.75 6.390625 31.78125 6.390625 
Q 38.8125 6.390625 42.859375 10.171875 
Q 46.921875 13.96875 46.921875 20.515625 
Q 46.921875 27.09375 42.890625 30.859375 
Q 38.875 34.625 31.78125 34.625 
z
M 21.921875 38.8125 
Q 15.578125 40.375 12.03125 44.71875 
Q 8.5 49.078125 8.5 55.328125 
Q 8.5 64.0625 14.71875 69.140625 
Q 20.953125 74.21875 31.78125 74.21875 
Q 42.671875 74.21875 48.875 69.140625 
Q 55.078125 64.0625 55.078125 55.328125 
Q 55.078125 49.078125 51.53125 44.71875 
Q 48 40.375 41.703125 38.8125 
Q 48.828125 37.15625 52.796875 32.3125 
Q 56.78125 27.484375 56.78125 20.515625 
Q 56.78125 9.90625 50.3125 4.234375 
Q 43.84375 -1.421875 31.78125 -1.421875 
Q 19.734375 -1.421875 13.25 4.234375 
Q 6.78125 9.90625 6.78125 20.515625 
Q 6.78125 27.484375 10.78125 32.3125 
Q 14.796875 37.15625 21.921875 38.8125 
z
M 18.3125 54.390625 
Q 18.3125 48.734375 21.84375 45.5625 
Q 25.390625 42.390625 31.78125 42.390625 
Q 38.140625 42.390625 41.71875 45.5625 
Q 45.3125 48.734375 45.3125 54.390625 
Q 45.3125 60.0625 41.71875 63.234375 
Q 38.140625 66.40625 31.78125 66.40625 
Q 25.390625 66.40625 21.84375 63.234375 
Q 18.3125 60.0625 18.3125 54.390625 
z
" id="DejaVuSans-56"/>
      </defs>
      <g transform="translate(34.696875 277.125243)scale(0.1 -0.1)">
       <use xlink:href="#DejaVuSans-48"/>
       <use x="63.623047" xlink:href="#DejaVuSans-46"/>
       <use x="95.410156" xlink:href="#DejaVuSans-56"/>
      </g>
     </g>
    </g>
    <g id="ytick_2">
     <g id="line2d_9">
      <g>
       <use style="stroke:#000000;stroke-width:0.8;" x="57.6" xlink:href="#m3f9774204a" y="221.267614"/>
      </g>
     </g>
     <g id="text_9">
      <!-- 1.0 -->
      <g transform="translate(34.696875 225.066833)scale(0.1 -0.1)">
       <use xlink:href="#DejaVuSans-49"/>
       <use x="63.623047" xlink:href="#DejaVuSans-46"/>
       <use x="95.410156" xlink:href="#DejaVuSans-48"/>
      </g>
     </g>
    </g>
    <g id="ytick_3">
     <g id="line2d_10">
      <g>
       <use style="stroke:#000000;stroke-width:0.8;" x="57.6" xlink:href="#m3f9774204a" y="169.209204"/>
      </g>
     </g>
     <g id="text_10">
      <!-- 1.2 -->
      <g transform="translate(34.696875 173.008423)scale(0.1 -0.1)">
       <use xlink:href="#DejaVuSans-49"/>
       <use x="63.623047" xlink:href="#DejaVuSans-46"/>
       <use x="95.410156" xlink:href="#DejaVuSans-50"/>
      </g>
     </g>
    </g>
    <g id="ytick_4">
     <g id="line2d_11">
      <g>
       <use style="stroke:#000000;stroke-width:0.8;" x="57.6" xlink:href="#m3f9774204a" y="117.150794"/>
      </g>
     </g>
     <g id="text_11">
      <!-- 1.4 -->
      <defs>
       <path d="M 37.796875 64.3125 
L 12.890625 25.390625 
L 37.796875 25.390625 
z
M 35.203125 72.90625 
L 47.609375 72.90625 
L 47.609375 25.390625 
L 58.015625 25.390625 
L 58.015625 17.1875 
L 47.609375 17.1875 
L 47.609375 0 
L 37.796875 0 
L 37.796875 17.1875 
L 4.890625 17.1875 
L 4.890625 26.703125 
z
" id="DejaVuSans-52"/>
      </defs>
      <g transform="translate(34.696875 120.950013)scale(0.1 -0.1)">
       <use xlink:href="#DejaVuSans-49"/>
       <use x="63.623047" xlink:href="#DejaVuSans-46"/>
       <use x="95.410156" xlink:href="#DejaVuSans-52"/>
      </g>
     </g>
    </g>
    <g id="ytick_5">
     <g id="line2d_12">
      <g>
       <use style="stroke:#000000;stroke-width:0.8;" x="57.6" xlink:href="#m3f9774204a" y="65.092384"/>
      </g>
     </g>
     <g id="text_12">
      <!-- 1.6 -->
      <defs>
       <path d="M 33.015625 40.375 
Q 26.375 40.375 22.484375 35.828125 
Q 18.609375 31.296875 18.609375 23.390625 
Q 18.609375 15.53125 22.484375 10.953125 
Q 26.375 6.390625 33.015625 6.390625 
Q 39.65625 6.390625 43.53125 10.953125 
Q 47.40625 15.53125 47.40625 23.390625 
Q 47.40625 31.296875 43.53125 35.828125 
Q 39.65625 40.375 33.015625 40.375 
z
M 52.59375 71.296875 
L 52.59375 62.3125 
Q 48.875 64.0625 45.09375 64.984375 
Q 41.3125 65.921875 37.59375 65.921875 
Q 27.828125 65.921875 22.671875 59.328125 
Q 17.53125 52.734375 16.796875 39.40625 
Q 19.671875 43.65625 24.015625 45.921875 
Q 28.375 48.1875 33.59375 48.1875 
Q 44.578125 48.1875 50.953125 41.515625 
Q 57.328125 34.859375 57.328125 23.390625 
Q 57.328125 12.15625 50.6875 5.359375 
Q 44.046875 -1.421875 33.015625 -1.421875 
Q 20.359375 -1.421875 13.671875 8.265625 
Q 6.984375 17.96875 6.984375 36.375 
Q 6.984375 53.65625 15.1875 63.9375 
Q 23.390625 74.21875 37.203125 74.21875 
Q 40.921875 74.21875 44.703125 73.484375 
Q 48.484375 72.75 52.59375 71.296875 
z
" id="DejaVuSans-54"/>
      </defs>
      <g transform="translate(34.696875 68.891603)scale(0.1 -0.1)">
       <use xlink:href="#DejaVuSans-49"/>
       <use x="63.623047" xlink:href="#DejaVuSans-46"/>
       <use x="95.410156" xlink:href="#DejaVuSans-54"/>
      </g>
     </g>
    </g>
   </g>
   <g id="LineCollection_1">
    <path clip-path="url(#p0965a94b4f)" d="M 73.832727 54.943963 
L 73.832727 53.568 
" style="fill:none;stroke:#000000;stroke-width:1.5;"/>
    <path clip-path="url(#p0965a94b4f)" d="M 84.654545 179.586174 
L 84.654545 178.379152 
" style="fill:none;stroke:#000000;stroke-width:1.5;"/>
    <path clip-path="url(#p0965a94b4f)" d="M 95.476364 206.641257 
L 95.476364 205.634627 
" style="fill:none;stroke:#000000;stroke-width:1.5;"/>
    <path clip-path="url(#p0965a94b4f)" d="M 106.298182 224.427955 
L 106.298182 223.516106 
" style="fill:none;stroke:#000000;stroke-width:1.5;"/>
    <path clip-path="url(#p0965a94b4f)" d="M 117.12 236.238919 
L 117.12 235.327881 
" style="fill:none;stroke:#000000;stroke-width:1.5;"/>
    <path clip-path="url(#p0965a94b4f)" d="M 127.941818 243.869276 
L 127.941818 243.052622 
" style="fill:none;stroke:#000000;stroke-width:1.5;"/>
    <path clip-path="url(#p0965a94b4f)" d="M 138.763636 248.382811 
L 138.763636 247.66987 
" style="fill:none;stroke:#000000;stroke-width:1.5;"/>
    <path clip-path="url(#p0965a94b4f)" d="M 149.585455 252.275382 
L 149.585455 251.458504 
" style="fill:none;stroke:#000000;stroke-width:1.5;"/>
    <path clip-path="url(#p0965a94b4f)" d="M 160.407273 253.933746 
L 160.407273 253.238886 
" style="fill:none;stroke:#000000;stroke-width:1.5;"/>
    <path clip-path="url(#p0965a94b4f)" d="M 171.229091 256.038934 
L 171.229091 255.357834 
" style="fill:none;stroke:#000000;stroke-width:1.5;"/>
    <path clip-path="url(#p0965a94b4f)" d="M 182.050909 256.738806 
L 182.050909 256.036684 
" style="fill:none;stroke:#000000;stroke-width:1.5;"/>
    <path clip-path="url(#p0965a94b4f)" d="M 192.872727 257.607763 
L 192.872727 256.886106 
" style="fill:none;stroke:#000000;stroke-width:1.5;"/>
    <path clip-path="url(#p0965a94b4f)" d="M 203.694545 259.192931 
L 203.694545 258.537139 
" style="fill:none;stroke:#000000;stroke-width:1.5;"/>
    <path clip-path="url(#p0965a94b4f)" d="M 214.516364 258.867004 
L 214.516364 258.269413 
" style="fill:none;stroke:#000000;stroke-width:1.5;"/>
    <path clip-path="url(#p0965a94b4f)" d="M 225.338182 259.143588 
L 225.338182 258.520379 
" style="fill:none;stroke:#000000;stroke-width:1.5;"/>
    <path clip-path="url(#p0965a94b4f)" d="M 236.16 260.060523 
L 236.16 259.505757 
" style="fill:none;stroke:#000000;stroke-width:1.5;"/>
    <path clip-path="url(#p0965a94b4f)" d="M 246.981818 260.792395 
L 246.981818 260.207231 
" style="fill:none;stroke:#000000;stroke-width:1.5;"/>
    <path clip-path="url(#p0965a94b4f)" d="M 257.803636 261.027107 
L 257.803636 260.481204 
" style="fill:none;stroke:#000000;stroke-width:1.5;"/>
    <path clip-path="url(#p0965a94b4f)" d="M 268.625455 261.056574 
L 268.625455 260.489407 
" style="fill:none;stroke:#000000;stroke-width:1.5;"/>
    <path clip-path="url(#p0965a94b4f)" d="M 279.447273 261.08034 
L 279.447273 260.507483 
" style="fill:none;stroke:#000000;stroke-width:1.5;"/>
    <path clip-path="url(#p0965a94b4f)" d="M 290.269091 261.218494 
L 290.269091 260.72052 
" style="fill:none;stroke:#000000;stroke-width:1.5;"/>
    <path clip-path="url(#p0965a94b4f)" d="M 301.090909 261.6387 
L 301.090909 261.129664 
" style="fill:none;stroke:#000000;stroke-width:1.5;"/>
    <path clip-path="url(#p0965a94b4f)" d="M 311.912727 261.234973 
L 311.912727 260.761699 
" style="fill:none;stroke:#000000;stroke-width:1.5;"/>
    <path clip-path="url(#p0965a94b4f)" d="M 322.734545 261.31956 
L 322.734545 260.858029 
" style="fill:none;stroke:#000000;stroke-width:1.5;"/>
    <path clip-path="url(#p0965a94b4f)" d="M 333.556364 261.052986 
L 333.556364 260.614427 
" style="fill:none;stroke:#000000;stroke-width:1.5;"/>
    <path clip-path="url(#p0965a94b4f)" d="M 344.378182 261.549859 
L 344.378182 261.103929 
" style="fill:none;stroke:#000000;stroke-width:1.5;"/>
    <path clip-path="url(#p0965a94b4f)" d="M 355.2 261.246878 
L 355.2 260.788662 
" style="fill:none;stroke:#000000;stroke-width:1.5;"/>
    <path clip-path="url(#p0965a94b4f)" d="M 366.021818 261.182209 
L 366.021818 260.748563 
" style="fill:none;stroke:#000000;stroke-width:1.5;"/>
    <path clip-path="url(#p0965a94b4f)" d="M 376.843636 262.087941 
L 376.843636 261.63999 
" style="fill:none;stroke:#000000;stroke-width:1.5;"/>
    <path clip-path="url(#p0965a94b4f)" d="M 387.665455 267.555145 
L 387.665455 267.097902 
" style="fill:none;stroke:#000000;stroke-width:1.5;"/>
    <path clip-path="url(#p0965a94b4f)" d="M 398.487273 295.488 
L 398.487273 295.023191 
" style="fill:none;stroke:#000000;stroke-width:1.5;"/>
   </g>
   <g id="line2d_13">
    <path clip-path="url(#p0965a94b4f)" d="M 182.050909 259.270588 
L 192.872727 259.270588 
L 203.694545 259.270588 
L 214.516364 259.270588 
L 225.338182 259.270588 
L 236.16 259.270588 
L 246.981818 259.270588 
L 257.803636 259.270588 
L 268.625455 259.270588 
L 279.447273 259.270588 
" style="fill:none;stroke:#000000;stroke-linecap:square;stroke-width:1.5;"/>
   </g>
   <g id="line2d_14">
    <defs>
     <path d="M 0 3 
C 0.795609 3 1.55874 2.683901 2.12132 2.12132 
C 2.683901 1.55874 3 0.795609 3 0 
C 3 -0.795609 2.683901 -1.55874 2.12132 -2.12132 
C 1.55874 -2.683901 0.795609 -3 0 -3 
C -0.795609 -3 -1.55874 -2.683901 -2.12132 -2.12132 
C -2.683901 -1.55874 -3 -0.795609 -3 0 
C -3 0.795609 -2.683901 1.55874 -2.12132 2.12132 
C -1.55874 2.683901 -0.795609 3 0 3 
z
" id="m99cbb9c84f" style="stroke:#000000;"/>
    </defs>
    <g clip-path="url(#p0965a94b4f)">
     <use style="fill-opacity:0;stroke:#000000;" x="73.832727" xlink:href="#m99cbb9c84f" y="54.255982"/>
     <use style="fill-opacity:0;stroke:#000000;" x="84.654545" xlink:href="#m99cbb9c84f" y="178.982663"/>
     <use style="fill-opacity:0;stroke:#000000;" x="95.476364" xlink:href="#m99cbb9c84f" y="206.137942"/>
     <use style="fill-opacity:0;stroke:#000000;" x="106.298182" xlink:href="#m99cbb9c84f" y="223.97203"/>
     <use style="fill-opacity:0;stroke:#000000;" x="117.12" xlink:href="#m99cbb9c84f" y="235.7834"/>
     <use style="fill-opacity:0;stroke:#000000;" x="127.941818" xlink:href="#m99cbb9c84f" y="243.460949"/>
     <use style="fill-opacity:0;stroke:#000000;" x="138.763636" xlink:href="#m99cbb9c84f" y="248.02634"/>
     <use style="fill-opacity:0;stroke:#000000;" x="149.585455" xlink:href="#m99cbb9c84f" y="251.866943"/>
     <use style="fill-opacity:0;stroke:#000000;" x="160.407273" xlink:href="#m99cbb9c84f" y="253.586316"/>
     <use style="fill-opacity:0;stroke:#000000;" x="171.229091" xlink:href="#m99cbb9c84f" y="255.698384"/>
     <use style="fill-opacity:0;stroke:#000000;" x="182.050909" xlink:href="#m99cbb9c84f" y="256.387745"/>
     <use style="fill-opacity:0;stroke:#000000;" x="192.872727" xlink:href="#m99cbb9c84f" y="257.246934"/>
     <use style="fill-opacity:0;stroke:#000000;" x="203.694545" xlink:href="#m99cbb9c84f" y="258.865035"/>
     <use style="fill-opacity:0;stroke:#000000;" x="214.516364" xlink:href="#m99cbb9c84f" y="258.568209"/>
     <use style="fill-opacity:0;stroke:#000000;" x="225.338182" xlink:href="#m99cbb9c84f" y="258.831983"/>
     <use style="fill-opacity:0;stroke:#000000;" x="236.16" xlink:href="#m99cbb9c84f" y="259.78314"/>
     <use style="fill-opacity:0;stroke:#000000;" x="246.981818" xlink:href="#m99cbb9c84f" y="260.499813"/>
     <use style="fill-opacity:0;stroke:#000000;" x="257.803636" xlink:href="#m99cbb9c84f" y="260.754155"/>
     <use style="fill-opacity:0;stroke:#000000;" x="268.625455" xlink:href="#m99cbb9c84f" y="260.77299"/>
     <use style="fill-opacity:0;stroke:#000000;" x="279.447273" xlink:href="#m99cbb9c84f" y="260.793911"/>
     <use style="fill-opacity:0;stroke:#000000;" x="290.269091" xlink:href="#m99cbb9c84f" y="260.969507"/>
     <use style="fill-opacity:0;stroke:#000000;" x="301.090909" xlink:href="#m99cbb9c84f" y="261.384182"/>
     <use style="fill-opacity:0;stroke:#000000;" x="311.912727" xlink:href="#m99cbb9c84f" y="260.998336"/>
     <use style="fill-opacity:0;stroke:#000000;" x="322.734545" xlink:href="#m99cbb9c84f" y="261.088794"/>
     <use style="fill-opacity:0;stroke:#000000;" x="333.556364" xlink:href="#m99cbb9c84f" y="260.833707"/>
     <use style="fill-opacity:0;stroke:#000000;" x="344.378182" xlink:href="#m99cbb9c84f" y="261.326894"/>
     <use style="fill-opacity:0;stroke:#000000;" x="355.2" xlink:href="#m99cbb9c84f" y="261.01777"/>
     <use style="fill-opacity:0;stroke:#000000;" x="366.021818" xlink:href="#m99cbb9c84f" y="260.965386"/>
     <use style="fill-opacity:0;stroke:#000000;" x="376.843636" xlink:href="#m99cbb9c84f" y="261.863965"/>
     <use style="fill-opacity:0;stroke:#000000;" x="387.665455" xlink:href="#m99cbb9c84f" y="267.326524"/>
     <use style="fill-opacity:0;stroke:#000000;" x="398.487273" xlink:href="#m99cbb9c84f" y="295.255596"/>
    </g>
   </g>
   <g id="patch_3">
    <path d="M 57.6 307.584 
L 57.6 41.472 
" style="fill:none;stroke:#000000;stroke-linecap:square;stroke-linejoin:miter;stroke-width:0.8;"/>
   </g>
   <g id="patch_4">
    <path d="M 414.72 307.584 
L 414.72 41.472 
" style="fill:none;stroke:#000000;stroke-linecap:square;stroke-linejoin:miter;stroke-width:0.8;"/>
   </g>
   <g id="patch_5">
    <path d="M 57.6 307.584 
L 414.72 307.584 
" style="fill:none;stroke:#000000;stroke-linecap:square;stroke-linejoin:miter;stroke-width:0.8;"/>
   </g>
   <g id="patch_6">
    <path d="M 57.6 41.472 
L 414.72 41.472 
" style="fill:none;stroke:#000000;stroke-linecap:square;stroke-linejoin:miter;stroke-width:0.8;"/>
   </g>
   <g id="legend_1">
    <g id="patch_7">
     <path d="M 290.729375 64.150125 
L 407.72 64.150125 
Q 409.72 64.150125 409.72 62.150125 
L 409.72 48.472 
Q 409.72 46.472 407.72 46.472 
L 290.729375 46.472 
Q 288.729375 46.472 288.729375 48.472 
L 288.729375 62.150125 
Q 288.729375 64.150125 290.729375 64.150125 
z
" style="fill:#ffffff;opacity:0.8;stroke:#cccccc;stroke-linejoin:miter;"/>
    </g>
    <g id="LineCollection_2">
     <path d="M 302.729375 59.570438 
L 302.729375 49.570438 
" style="fill:none;stroke:#000000;stroke-width:1.5;"/>
    </g>
    <g id="line2d_15"/>
    <g id="line2d_16">
     <g>
      <use style="fill-opacity:0;stroke:#000000;" x="302.729375" xlink:href="#m99cbb9c84f" y="54.570438"/>
     </g>
    </g>
    <g id="text_13">
     <!-- G5 chi2/d=15.64 -->
     <defs>
      <path d="M 59.515625 10.40625 
L 59.515625 29.984375 
L 43.40625 29.984375 
L 43.40625 38.09375 
L 69.28125 38.09375 
L 69.28125 6.78125 
Q 63.578125 2.734375 56.6875 0.65625 
Q 49.8125 -1.421875 42 -1.421875 
Q 24.90625 -1.421875 15.25 8.5625 
Q 5.609375 18.5625 5.609375 36.375 
Q 5.609375 54.25 15.25 64.234375 
Q 24.90625 74.21875 42 74.21875 
Q 49.125 74.21875 55.546875 72.453125 
Q 61.96875 70.703125 67.390625 67.28125 
L 67.390625 56.78125 
Q 61.921875 61.421875 55.765625 63.765625 
Q 49.609375 66.109375 42.828125 66.109375 
Q 29.4375 66.109375 22.71875 58.640625 
Q 16.015625 51.171875 16.015625 36.375 
Q 16.015625 21.625 22.71875 14.15625 
Q 29.4375 6.6875 42.828125 6.6875 
Q 48.046875 6.6875 52.140625 7.59375 
Q 56.25 8.5 59.515625 10.40625 
z
" id="DejaVuSans-71"/>
      <path id="DejaVuSans-32"/>
      <path d="M 48.78125 52.59375 
L 48.78125 44.1875 
Q 44.96875 46.296875 41.140625 47.34375 
Q 37.3125 48.390625 33.40625 48.390625 
Q 24.65625 48.390625 19.8125 42.84375 
Q 14.984375 37.3125 14.984375 27.296875 
Q 14.984375 17.28125 19.8125 11.734375 
Q 24.65625 6.203125 33.40625 6.203125 
Q 37.3125 6.203125 41.140625 7.25 
Q 44.96875 8.296875 48.78125 10.40625 
L 48.78125 2.09375 
Q 45.015625 0.34375 40.984375 -0.53125 
Q 36.96875 -1.421875 32.421875 -1.421875 
Q 20.0625 -1.421875 12.78125 6.34375 
Q 5.515625 14.109375 5.515625 27.296875 
Q 5.515625 40.671875 12.859375 48.328125 
Q 20.21875 56 33.015625 56 
Q 37.15625 56 41.109375 55.140625 
Q 45.0625 54.296875 48.78125 52.59375 
z
" id="DejaVuSans-99"/>
      <path d="M 54.890625 33.015625 
L 54.890625 0 
L 45.90625 0 
L 45.90625 32.71875 
Q 45.90625 40.484375 42.875 44.328125 
Q 39.84375 48.1875 33.796875 48.1875 
Q 26.515625 48.1875 22.3125 43.546875 
Q 18.109375 38.921875 18.109375 30.90625 
L 18.109375 0 
L 9.078125 0 
L 9.078125 75.984375 
L 18.109375 75.984375 
L 18.109375 46.1875 
Q 21.34375 51.125 25.703125 53.5625 
Q 30.078125 56 35.796875 56 
Q 45.21875 56 50.046875 50.171875 
Q 54.890625 44.34375 54.890625 33.015625 
z
" id="DejaVuSans-104"/>
      <path d="M 9.421875 54.6875 
L 18.40625 54.6875 
L 18.40625 0 
L 9.421875 0 
z
M 9.421875 75.984375 
L 18.40625 75.984375 
L 18.40625 64.59375 
L 9.421875 64.59375 
z
" id="DejaVuSans-105"/>
      <path d="M 25.390625 72.90625 
L 33.6875 72.90625 
L 8.296875 -9.28125 
L 0 -9.28125 
z
" id="DejaVuSans-47"/>
      <path d="M 45.40625 46.390625 
L 45.40625 75.984375 
L 54.390625 75.984375 
L 54.390625 0 
L 45.40625 0 
L 45.40625 8.203125 
Q 42.578125 3.328125 38.25 0.953125 
Q 33.9375 -1.421875 27.875 -1.421875 
Q 17.96875 -1.421875 11.734375 6.484375 
Q 5.515625 14.40625 5.515625 27.296875 
Q 5.515625 40.1875 11.734375 48.09375 
Q 17.96875 56 27.875 56 
Q 33.9375 56 38.25 53.625 
Q 42.578125 51.265625 45.40625 46.390625 
z
M 14.796875 27.296875 
Q 14.796875 17.390625 18.875 11.75 
Q 22.953125 6.109375 30.078125 6.109375 
Q 37.203125 6.109375 41.296875 11.75 
Q 45.40625 17.390625 45.40625 27.296875 
Q 45.40625 37.203125 41.296875 42.84375 
Q 37.203125 48.484375 30.078125 48.484375 
Q 22.953125 48.484375 18.875 42.84375 
Q 14.796875 37.203125 14.796875 27.296875 
z
" id="DejaVuSans-100"/>
      <path d="M 10.59375 45.40625 
L 73.1875 45.40625 
L 73.1875 37.203125 
L 10.59375 37.203125 
z
M 10.59375 25.484375 
L 73.1875 25.484375 
L 73.1875 17.1875 
L 10.59375 17.1875 
z
" id="DejaVuSans-61"/>
     </defs>
     <g transform="translate(320.729375 58.070438)scale(0.1 -0.1)">
      <use xlink:href="#DejaVuSans-71"/>
      <use x="77.490234" xlink:href="#DejaVuSans-53"/>
      <use x="141.113281" xlink:href="#DejaVuSans-32"/>
      <use x="172.900391" xlink:href="#DejaVuSans-99"/>
      <use x="227.880859" xlink:href="#DejaVuSans-104"/>
      <use x="291.259766" xlink:href="#DejaVuSans-105"/>
      <use x="319.042969" xlink:href="#DejaVuSans-50"/>
      <use x="382.666016" xlink:href="#DejaVuSans-47"/>
      <use x="416.357422" xlink:href="#DejaVuSans-100"/>
      <use x="479.833984" xlink:href="#DejaVuSans-61"/>
      <use x="563.623047" xlink:href="#DejaVuSans-49"/>
      <use x="627.246094" xlink:href="#DejaVuSans-53"/>
      <use x="690.869141" xlink:href="#DejaVuSans-46"/>
      <use x="722.65625" xlink:href="#DejaVuSans-54"/>
      <use x="786.279297" xlink:href="#DejaVuSans-52"/>
     </g>
    </g>
   </g>
  </g>
 </g>
 <defs>
  <clipPath id="p0965a94b4f">
   <rect height="266.112" width="357.12" x="57.6" y="41.472"/>
  </clipPath>
 </defs>
</svg>
