<?xml version="1.0" encoding="utf-8" standalone="no"?>
<!DOCTYPE svg PUBLIC "-//W3C//DTD SVG 1.1//EN"
  "http://www.w3.org/Graphics/SVG/1.1/DTD/svg11.dtd">
<!-- Created with matplotlib (https://matplotlib.org/) -->
<svg height="345.6pt" version="1.1" viewBox="0 0 460.8 345.6" width="460.8pt" xmlns="http://www.w3.org/2000/svg" xmlns:xlink="http://www.w3.org/1999/xlink">
 <defs>
  <style type="text/css">
*{stroke-linecap:butt;stroke-linejoin:round;}
  </style>
 </defs>
 <g id="figure_1">
  <g id="patch_1">
   <path d="M 0 345.6 
L 460.8 345.6 
L 460.8 0 
L 0 0 
z
" style="fill:#ffffff;"/>
  </g>
  <g id="axes_1">
   <g id="patch_2">
    <path d="M 57.6 307.584 
L 414.72 307.584 
L 414.72 41.472 
L 57.6 41.472 
z
" style="fill:#ffffff;"/>
   </g>
   <g id="matplotlib.axis_1">
    <g id="xtick_1">
     <g id="line2d_1">
      <defs>
       <path d="M 0 0 
L 0 3.5 
" id="mcffcf5308e" style="stroke:#000000;stroke-width:0.8;"/>
      </defs>
      <g>
       <use style="stroke:#000000;stroke-width:0.8;" x="73.490626" xlink:href="#mcffcf5308e" y="307.584"/>
      </g>
     </g>
     <g id="text_1">
      <!-- 0 -->
      <defs>
       <path d="M 31.78125 66.40625 
Q 24.171875 66.40625 20.328125 58.90625 
Q 16.5 51.421875 16.5 36.375 
Q 16.5 21.390625 20.328125 13.890625 
Q 24.171875 6.390625 31.78125 6.390625 
Q 39.453125 6.390625 43.28125 13.890625 
Q 47.125 21.390625 47.125 36.375 
Q 47.125 51.421875 43.28125 58.90625 
Q 39.453125 66.40625 31.78125 66.40625 
z
M 31.78125 74.21875 
Q 44.046875 74.21875 50.515625 64.515625 
Q 56.984375 54.828125 56.984375 36.375 
Q 56.984375 17.96875 50.515625 8.265625 
Q 44.046875 -1.421875 31.78125 -1.421875 
Q 19.53125 -1.421875 13.0625 8.265625 
Q 6.59375 17.96875 6.59375 36.375 
Q 6.59375 54.828125 13.0625 64.515625 
Q 19.53125 74.21875 31.78125 74.21875 
z
" id="DejaVuSans-48"/>
      </defs>
      <g transform="translate(70.309376 322.182437)scale(0.1 -0.1)">
       <use xlink:href="#DejaVuSans-48"/>
      </g>
     </g>
    </g>
    <g id="xtick_2">
     <g id="line2d_2">
      <g>
       <use style="stroke:#000000;stroke-width:0.8;" x="141.910972" xlink:href="#mcffcf5308e" y="307.584"/>
      </g>
     </g>
     <g id="text_2">
      <!-- 200 -->
      <defs>
       <path d="M 19.1875 8.296875 
L 53.609375 8.296875 
L 53.609375 0 
L 7.328125 0 
L 7.328125 8.296875 
Q 12.9375 14.109375 22.625 23.890625 
Q 32.328125 33.6875 34.8125 36.53125 
Q 39.546875 41.84375 41.421875 45.53125 
Q 43.3125 49.21875 43.3125 52.78125 
Q 43.3125 58.59375 39.234375 62.25 
Q 35.15625 65.921875 28.609375 65.921875 
Q 23.96875 65.921875 18.8125 64.3125 
Q 13.671875 62.703125 7.8125 59.421875 
L 7.8125 69.390625 
Q 13.765625 71.78125 18.9375 73 
Q 24.125 74.21875 28.421875 74.21875 
Q 39.75 74.21875 46.484375 68.546875 
Q 53.21875 62.890625 53.21875 53.421875 
Q 53.21875 48.921875 51.53125 44.890625 
Q 49.859375 40.875 45.40625 35.40625 
Q 44.1875 33.984375 37.640625 27.21875 
Q 31.109375 20.453125 19.1875 8.296875 
z
" id="DejaVuSans-50"/>
      </defs>
      <g transform="translate(132.367222 322.182437)scale(0.1 -0.1)">
       <use xlink:href="#DejaVuSans-50"/>
       <use x="63.623047" xlink:href="#DejaVuSans-48"/>
       <use x="127.246094" xlink:href="#DejaVuSans-48"/>
      </g>
     </g>
    </g>
    <g id="xtick_3">
     <g id="line2d_3">
      <g>
       <use style="stroke:#000000;stroke-width:0.8;" x="210.331319" xlink:href="#mcffcf5308e" y="307.584"/>
      </g>
     </g>
     <g id="text_3">
      <!-- 400 -->
      <defs>
       <path d="M 37.796875 64.3125 
L 12.890625 25.390625 
L 37.796875 25.390625 
z
M 35.203125 72.90625 
L 47.609375 72.90625 
L 47.609375 25.390625 
L 58.015625 25.390625 
L 58.015625 17.1875 
L 47.609375 17.1875 
L 47.609375 0 
L 37.796875 0 
L 37.796875 17.1875 
L 4.890625 17.1875 
L 4.890625 26.703125 
z
" id="DejaVuSans-52"/>
      </defs>
      <g transform="translate(200.787569 322.182437)scale(0.1 -0.1)">
       <use xlink:href="#DejaVuSans-52"/>
       <use x="63.623047" xlink:href="#DejaVuSans-48"/>
       <use x="127.246094" xlink:href="#DejaVuSans-48"/>
      </g>
     </g>
    </g>
    <g id="xtick_4">
     <g id="line2d_4">
      <g>
       <use style="stroke:#000000;stroke-width:0.8;" x="278.751666" xlink:href="#mcffcf5308e" y="307.584"/>
      </g>
     </g>
     <g id="text_4">
      <!-- 600 -->
      <defs>
       <path d="M 33.015625 40.375 
Q 26.375 40.375 22.484375 35.828125 
Q 18.609375 31.296875 18.609375 23.390625 
Q 18.609375 15.53125 22.484375 10.953125 
Q 26.375 6.390625 33.015625 6.390625 
Q 39.65625 6.390625 43.53125 10.953125 
Q 47.40625 15.53125 47.40625 23.390625 
Q 47.40625 31.296875 43.53125 35.828125 
Q 39.65625 40.375 33.015625 40.375 
z
M 52.59375 71.296875 
L 52.59375 62.3125 
Q 48.875 64.0625 45.09375 64.984375 
Q 41.3125 65.921875 37.59375 65.921875 
Q 27.828125 65.921875 22.671875 59.328125 
Q 17.53125 52.734375 16.796875 39.40625 
Q 19.671875 43.65625 24.015625 45.921875 
Q 28.375 48.1875 33.59375 48.1875 
Q 44.578125 48.1875 50.953125 41.515625 
Q 57.328125 34.859375 57.328125 23.390625 
Q 57.328125 12.15625 50.6875 5.359375 
Q 44.046875 -1.421875 33.015625 -1.421875 
Q 20.359375 -1.421875 13.671875 8.265625 
Q 6.984375 17.96875 6.984375 36.375 
Q 6.984375 53.65625 15.1875 63.9375 
Q 23.390625 74.21875 37.203125 74.21875 
Q 40.921875 74.21875 44.703125 73.484375 
Q 48.484375 72.75 52.59375 71.296875 
z
" id="DejaVuSans-54"/>
      </defs>
      <g transform="translate(269.207916 322.182437)scale(0.1 -0.1)">
       <use xlink:href="#DejaVuSans-54"/>
       <use x="63.623047" xlink:href="#DejaVuSans-48"/>
       <use x="127.246094" xlink:href="#DejaVuSans-48"/>
      </g>
     </g>
    </g>
    <g id="xtick_5">
     <g id="line2d_5">
      <g>
       <use style="stroke:#000000;stroke-width:0.8;" x="347.172013" xlink:href="#mcffcf5308e" y="307.584"/>
      </g>
     </g>
     <g id="text_5">
      <!-- 800 -->
      <defs>
       <path d="M 31.78125 34.625 
Q 24.75 34.625 20.71875 30.859375 
Q 16.703125 27.09375 16.703125 20.515625 
Q 16.703125 13.921875 20.71875 10.15625 
Q 24.75 6.390625 31.78125 6.390625 
Q 38.8125 6.390625 42.859375 10.171875 
Q 46.921875 13.96875 46.921875 20.515625 
Q 46.921875 27.09375 42.890625 30.859375 
Q 38.875 34.625 31.78125 34.625 
z
M 21.921875 38.8125 
Q 15.578125 40.375 12.03125 44.71875 
Q 8.5 49.078125 8.5 55.328125 
Q 8.5 64.0625 14.71875 69.140625 
Q 20.953125 74.21875 31.78125 74.21875 
Q 42.671875 74.21875 48.875 69.140625 
Q 55.078125 64.0625 55.078125 55.328125 
Q 55.078125 49.078125 51.53125 44.71875 
Q 48 40.375 41.703125 38.8125 
Q 48.828125 37.15625 52.796875 32.3125 
Q 56.78125 27.484375 56.78125 20.515625 
Q 56.78125 9.90625 50.3125 4.234375 
Q 43.84375 -1.421875 31.78125 -1.421875 
Q 19.734375 -1.421875 13.25 4.234375 
Q 6.78125 9.90625 6.78125 20.515625 
Q 6.78125 27.484375 10.78125 32.3125 
Q 14.796875 37.15625 21.921875 38.8125 
z
M 18.3125 54.390625 
Q 18.3125 48.734375 21.84375 45.5625 
Q 25.390625 42.390625 31.78125 42.390625 
Q 38.140625 42.390625 41.71875 45.5625 
Q 45.3125 48.734375 45.3125 54.390625 
Q 45.3125 60.0625 41.71875 63.234375 
Q 38.140625 66.40625 31.78125 66.40625 
Q 25.390625 66.40625 21.84375 63.234375 
Q 18.3125 60.0625 18.3125 54.390625 
z
" id="DejaVuSans-56"/>
      </defs>
      <g transform="translate(337.628263 322.182437)scale(0.1 -0.1)">
       <use xlink:href="#DejaVuSans-56"/>
       <use x="63.623047" xlink:href="#DejaVuSans-48"/>
       <use x="127.246094" xlink:href="#DejaVuSans-48"/>
      </g>
     </g>
    </g>
   </g>
   <g id="matplotlib.axis_2">
    <g id="ytick_1">
     <g id="line2d_6">
      <defs>
       <path d="M 0 0 
L -3.5 0 
" id="m88136a568b" style="stroke:#000000;stroke-width:0.8;"/>
      </defs>
      <g>
       <use style="stroke:#000000;stroke-width:0.8;" x="57.6" xlink:href="#m88136a568b" y="295.488"/>
      </g>
     </g>
     <g id="text_6">
      <!-- 0.0 -->
      <defs>
       <path d="M 10.6875 12.40625 
L 21 12.40625 
L 21 0 
L 10.6875 0 
z
" id="DejaVuSans-46"/>
      </defs>
      <g transform="translate(34.696875 299.287219)scale(0.1 -0.1)">
       <use xlink:href="#DejaVuSans-48"/>
       <use x="63.623047" xlink:href="#DejaVuSans-46"/>
       <use x="95.410156" xlink:href="#DejaVuSans-48"/>
      </g>
     </g>
    </g>
    <g id="ytick_2">
     <g id="line2d_7">
      <g>
       <use style="stroke:#000000;stroke-width:0.8;" x="57.6" xlink:href="#m88136a568b" y="242.705455"/>
      </g>
     </g>
     <g id="text_7">
      <!-- 0.2 -->
      <g transform="translate(34.696875 246.504673)scale(0.1 -0.1)">
       <use xlink:href="#DejaVuSans-48"/>
       <use x="63.623047" xlink:href="#DejaVuSans-46"/>
       <use x="95.410156" xlink:href="#DejaVuSans-50"/>
      </g>
     </g>
    </g>
    <g id="ytick_3">
     <g id="line2d_8">
      <g>
       <use style="stroke:#000000;stroke-width:0.8;" x="57.6" xlink:href="#m88136a568b" y="189.922909"/>
      </g>
     </g>
     <g id="text_8">
      <!-- 0.4 -->
      <g transform="translate(34.696875 193.722128)scale(0.1 -0.1)">
       <use xlink:href="#DejaVuSans-48"/>
       <use x="63.623047" xlink:href="#DejaVuSans-46"/>
       <use x="95.410156" xlink:href="#DejaVuSans-52"/>
      </g>
     </g>
    </g>
    <g id="ytick_4">
     <g id="line2d_9">
      <g>
       <use style="stroke:#000000;stroke-width:0.8;" x="57.6" xlink:href="#m88136a568b" y="137.140364"/>
      </g>
     </g>
     <g id="text_9">
      <!-- 0.6 -->
      <g transform="translate(34.696875 140.939582)scale(0.1 -0.1)">
       <use xlink:href="#DejaVuSans-48"/>
       <use x="63.623047" xlink:href="#DejaVuSans-46"/>
       <use x="95.410156" xlink:href="#DejaVuSans-54"/>
      </g>
     </g>
    </g>
    <g id="ytick_5">
     <g id="line2d_10">
      <g>
       <use style="stroke:#000000;stroke-width:0.8;" x="57.6" xlink:href="#m88136a568b" y="84.357818"/>
      </g>
     </g>
     <g id="text_10">
      <!-- 0.8 -->
      <g transform="translate(34.696875 88.157037)scale(0.1 -0.1)">
       <use xlink:href="#DejaVuSans-48"/>
       <use x="63.623047" xlink:href="#DejaVuSans-46"/>
       <use x="95.410156" xlink:href="#DejaVuSans-56"/>
      </g>
     </g>
    </g>
   </g>
   <g id="line2d_11">
    <path clip-path="url(#p009388208a)" d="M 73.832727 295.488 
L 74.174829 163.531636 
L 74.516931 119.546182 
L 74.859032 97.553455 
L 75.201134 84.357818 
L 75.885338 69.277091 
L 76.569541 60.898909 
L 77.253745 55.567339 
L 77.595846 53.568 
L 77.937948 72.177231 
L 78.28005 69.277091 
L 78.622152 84.357818 
L 79.306355 78.148107 
L 80.33266 71.162182 
L 81.358965 65.998672 
L 82.385271 62.026741 
L 83.411576 58.876589 
L 83.753678 57.966545 
L 84.095779 65.628528 
L 85.122084 62.623829 
L 85.464186 69.277091 
L 86.14839 67.239155 
L 86.490491 73.245703 
L 87.858898 69.277091 
L 89.227305 65.998672 
L 90.595712 63.2448 
L 90.937814 62.623829 
L 91.622017 71.411156 
L 93.332526 67.977028 
L 95.043035 65.088 
L 96.06934 63.564694 
L 96.411442 67.026236 
L 96.753543 66.504898 
L 97.095645 69.823494 
L 98.806154 67.239155 
L 100.858764 64.564364 
L 101.542968 63.759752 
L 101.885069 66.551658 
L 103.93768 64.1937 
L 106.332392 61.815273 
L 107.358697 60.898909 
L 108.042901 65.544238 
L 108.727104 64.884646 
L 109.411308 69.277091 
L 110.095511 68.572384 
L 110.437613 70.673455 
L 111.463918 69.616747 
L 111.80602 71.633455 
L 113.85863 69.596598 
L 114.200732 71.494845 
L 114.884935 70.835017 
L 115.227037 72.676435 
L 116.253342 71.690007 
L 116.595444 73.466182 
L 119.332258 70.965232 
L 120.016461 70.385968 
L 120.358563 72.029048 
L 121.72697 70.881424 
L 122.069072 72.46316 
L 124.463784 70.542253 
L 124.805886 72.041891 
L 126.516394 70.736516 
L 127.200598 73.599592 
L 130.279513 71.321165 
L 130.621615 72.663482 
L 131.305819 72.177231 
L 131.990022 74.789053 
L 132.332124 74.53781 
L 132.674226 75.814978 
L 133.700531 75.060893 
L 134.042632 76.306243 
L 134.384734 76.054946 
L 135.411039 79.691958 
L 138.489955 77.412746 
L 138.832057 78.554502 
L 140.884667 77.123662 
L 141.226769 78.226512 
L 142.937278 77.077467 
L 143.279379 78.148107 
L 143.621481 77.920922 
L 143.963583 78.977073 
L 144.647786 78.521287 
L 146.016193 82.614998 
L 146.700397 82.137992 
L 147.042498 83.130317 
L 147.3846 82.891636 
L 148.068804 84.842062 
L 149.43721 83.8823 
L 149.779312 84.831204 
L 150.463516 84.357818 
L 151.147719 86.217996 
L 152.516126 85.271802 
L 152.858228 86.177906 
L 154.568736 85.025952 
L 154.910838 85.910246 
L 155.25294 85.682903 
L 155.595042 86.557091 
L 157.647652 85.216071 
L 157.989754 86.067374 
L 158.673957 85.629687 
L 159.358161 87.301865 
L 160.726568 86.427722 
L 161.068669 87.244364 
L 162.779178 86.177906 
L 163.12128 86.976799 
L 163.805483 86.557091 
L 164.147585 87.345509 
L 165.17389 86.721216 
L 165.515992 87.4973 
L 166.884399 86.67793 
L 167.226501 87.440011 
L 167.910704 87.035194 
L 168.252806 87.787731 
L 168.594908 87.585528 
L 169.621213 89.805127 
L 171.673823 88.587778 
L 172.015925 89.306182 
L 174.068535 88.128 
L 174.410637 88.830915 
L 174.752739 88.637484 
L 175.779044 90.712907 
L 176.463247 90.319966 
L 177.147451 91.674211 
L 178.173756 91.085005 
L 178.85796 92.412298 
L 181.936875 90.685063 
L 182.278977 91.329098 
L 182.621079 91.141782 
L 182.96318 91.780364 
L 183.305282 91.592809 
L 183.989486 92.855318 
L 185.015791 92.291391 
L 185.699994 93.530395 
L 187.410503 92.600138 
L 187.752605 93.207586 
L 188.436808 92.840727 
L 188.77891 93.442054 
L 189.121012 93.259017 
L 189.463113 93.855562 
L 189.805215 93.672385 
L 190.147317 94.26422 
L 191.857825 93.35831 
L 192.199927 93.940816 
L 192.542029 93.761605 
L 193.226232 94.914327 
L 193.568334 94.733874 
L 193.910436 95.304198 
L 194.252538 95.123663 
L 194.594639 95.689664 
L 195.620945 95.150888 
L 196.64725 96.820364 
L 196.989351 96.639629 
L 198.015657 98.27849 
L 199.384064 97.553455 
L 200.068267 98.623371 
L 200.410369 98.442648 
L 200.752471 98.97234 
L 201.094572 98.791651 
L 201.778776 99.840698 
L 202.805081 99.298909 
L 203.147183 99.816558 
L 203.489284 99.636976 
L 204.173488 100.662374 
L 205.199793 100.124033 
L 205.883997 101.133666 
L 207.936607 100.071706 
L 208.278709 100.567686 
L 208.962912 100.21924 
L 209.305014 100.711101 
L 211.357624 99.681783 
L 212.041828 100.648727 
L 212.383929 100.478596 
L 212.726031 100.957734 
L 213.752336 100.450058 
L 214.094438 100.924603 
L 216.147049 99.92677 
L 216.48915 100.39462 
L 217.173354 100.066909 
L 217.857557 100.993075 
L 219.568066 100.180221 
L 219.910168 100.636547 
L 222.30488 99.525216 
L 222.989083 100.422071 
L 224.35749 99.79761 
L 225.383795 101.119843 
L 226.067999 100.807984 
L 226.410101 101.243509 
L 228.462711 100.320751 
L 228.804813 100.750635 
L 229.146914 100.598601 
L 229.489016 101.02599 
L 229.831118 100.874019 
L 230.17322 101.298941 
L 230.515321 101.147037 
L 230.857423 101.569518 
L 232.910034 100.668304 
L 233.252135 101.085477 
L 233.936339 100.789058 
L 234.620542 101.615805 
L 235.988949 101.02599 
L 236.331051 101.434524 
L 237.357356 100.996992 
L 237.699458 101.402182 
L 238.04156 101.257012 
L 238.725763 102.061281 
L 239.067865 101.915648 
L 239.409966 102.314767 
L 240.09417 102.024255 
L 240.436272 102.420697 
L 243.857289 100.998099 
L 244.199391 101.387858 
L 245.909899 100.695273 
L 246.252001 101.081001 
L 246.594103 100.943638 
L 246.936205 101.327354 
L 247.278306 101.190047 
L 247.620408 101.571772 
L 249.673018 100.756279 
L 250.01512 101.133666 
L 252.409832 100.202674 
L 253.436138 101.316469 
L 254.804544 100.79012 
L 256.172951 102.248531 
L 256.515053 102.116432 
L 256.857155 102.477199 
L 258.909765 101.692307 
L 259.593969 102.404791 
L 261.304477 101.759714 
L 261.646579 102.111947 
L 261.988681 101.983931 
L 262.330783 102.334482 
L 263.014986 102.079034 
L 263.357088 102.427518 
L 264.725495 101.920526 
L 265.067597 102.266182 
L 270.883326 100.183434 
L 271.567529 100.858061 
L 272.593835 100.500933 
L 272.935936 100.835388 
L 274.304343 100.363428 
L 274.646445 100.695273 
L 275.330649 100.460968 
L 275.67275 100.790963 
L 276.014852 100.674044 
L 276.699055 101.329983 
L 277.041157 101.212749 
L 277.383259 101.538714 
L 278.067462 101.304722 
L 278.751666 101.952 
L 279.435869 101.71819 
L 279.777971 102.039533 
L 281.146378 101.575189 
L 281.48848 101.894124 
L 283.54109 101.206969 
L 283.883192 101.522874 
L 286.277904 100.735682 
L 286.620006 101.048286 
L 287.988413 100.605077 
L 288.672616 101.224737 
L 290.041023 100.784614 
L 290.725227 101.397853 
L 291.40943 101.178629 
L 291.751532 101.48319 
L 293.119939 101.047626 
L 293.46204 101.350022 
L 293.804142 101.241676 
L 294.146244 101.542833 
L 294.488346 101.434524 
L 294.830447 101.734452 
L 295.514651 101.518245 
L 296.540956 102.410744 
L 296.883058 102.302267 
L 297.225159 102.597658 
L 297.909363 102.381126 
L 298.593566 102.968077 
L 298.935668 102.859742 
L 299.27777 103.151603 
L 301.33038 102.506771 
L 301.672482 102.796099 
L 303.040889 102.371533 
L 303.725092 102.945431 
L 305.093499 102.523746 
L 305.777703 103.092124 
L 306.461906 102.882089 
L 307.14611 103.446089 
L 308.514517 103.027627 
L 308.856618 103.307366 
L 310.225025 102.892729 
L 311.251331 103.724076 
L 313.988144 102.903037 
L 314.330246 103.176595 
L 315.356551 102.87277 
L 315.698653 103.144826 
L 316.040755 103.043882 
L 316.382857 103.31493 
L 316.724958 103.21403 
L 317.06706 103.484078 
L 320.830179 102.390029 
L 321.514383 102.922713 
L 321.856484 102.824439 
L 322.198586 103.089451 
L 323.909095 102.600966 
L 324.251196 102.864113 
L 326.303807 102.285313 
L 326.645909 102.546398 
L 328.356417 102.070082 
L 328.698519 102.329355 
L 329.382722 102.140173 
L 330.066926 102.655767 
L 330.751129 102.466723 
L 331.093231 102.72306 
L 332.461638 102.347114 
L 333.145842 102.856049 
L 335.198452 102.296984 
L 335.882655 102.800741 
L 338.277368 102.156584 
L 338.619469 102.406043 
L 338.961571 102.314767 
L 339.303673 102.563381 
L 339.987876 102.381126 
L 340.329978 102.628699 
L 342.040487 102.17613 
L 342.72469 102.667392 
L 343.408894 102.487184 
L 344.093097 102.975176 
L 346.829911 102.260284 
L 347.172013 102.501818 
L 347.514114 102.413271 
L 347.856216 102.654012 
L 348.54042 102.477199 
L 348.882521 102.716964 
L 350.935132 102.190639 
L 351.277233 102.42869 
L 352.64564 102.081369 
L 352.987742 102.318097 
L 355.382454 101.717126 
L 355.724556 101.952 
L 357.092963 101.612426 
L 357.435065 101.846011 
L 357.777166 101.761449 
L 358.46137 102.226579 
L 358.803472 102.141865 
L 359.829777 102.834862 
L 360.171879 102.749827 
L 360.51398 102.979551 
L 361.540285 102.725141 
L 361.882387 102.953804 
L 362.566591 102.784861 
L 364.619201 104.14352 
L 365.303405 103.973371 
L 365.645506 104.197627 
L 365.987608 104.112689 
L 366.32971 104.336258 
L 367.356015 104.082145 
L 368.040218 104.526758 
L 368.38232 104.442128 
L 369.066524 104.884364 
L 370.092829 104.630699 
L 370.434931 104.850581 
L 371.803337 104.514455 
L 372.145439 104.733211 
L 373.855948 104.316594 
L 374.19805 104.534081 
L 375.224355 104.285922 
L 375.566457 104.502459 
L 376.934863 104.173588 
L 377.619067 104.603991 
L 378.645372 104.358379 
L 378.987474 104.57241 
L 380.013779 104.328 
L 380.355881 104.54111 
L 382.06639 104.056288 
L 382.06639 103.976109 
L 382.750593 103.736636 
L 382.750593 103.657163 
L 383.434796 103.419791 
L 383.434796 103.341014 
L 384.119 103.105717 
L 384.119 103.027627 
L 384.803203 102.794376 
L 384.803203 102.716964 
L 385.487407 102.485735 
L 385.487407 102.408992 
L 386.17161 102.179756 
L 386.17161 102.103674 
L 386.513712 102.027755 
L 386.513712 102.235777 
L 386.855814 102.443352 
L 386.855814 102.367313 
L 387.540017 102.140173 
L 387.540017 102.064783 
L 388.224221 101.839577 
L 388.224221 102.045586 
L 388.566322 102.251157 
L 388.566322 102.17613 
L 388.908424 102.101261 
L 388.908424 102.30612 
L 389.250526 102.510545 
L 389.250526 102.435561 
L 389.592628 102.360735 
L 389.592628 102.564456 
L 389.934729 102.767747 
L 389.934729 102.692808 
L 390.276831 102.618026 
L 390.276831 102.82062 
L 390.618933 103.02279 
L 390.618933 103.224535 
L 390.961035 103.425858 
L 390.961035 103.350701 
L 391.645238 103.126169 
L 391.645238 103.051636 
L 392.329442 102.828969 
L 392.329442 102.755054 
L 392.671543 102.681293 
L 392.671543 102.880885 
L 393.013645 103.080065 
L 393.013645 103.006197 
L 393.355747 102.932481 
L 393.355747 103.130992 
L 393.697848 103.329094 
L 393.697848 103.255273 
L 394.382052 103.034719 
L 394.382052 102.961502 
L 394.724154 102.888435 
L 394.724154 103.085368 
L 395.066255 103.281897 
L 395.066255 103.478026 
L 395.408357 103.673755 
L 395.408357 103.869085 
L 395.750459 104.064018 
L 395.750459 104.258554 
L 396.092561 104.452696 
L 396.092561 104.646444 
L 396.434662 104.839799 
L 396.434662 105.032763 
L 396.776764 105.225336 
L 396.776764 105.150942 
L 397.460968 104.928659 
L 397.460968 105.120369 
L 397.803069 105.311693 
L 397.803069 105.23766 
L 398.487273 105.016452 
L 398.487273 104.943011 
L 398.487273 104.943011 
" style="fill:none;stroke:#1f77b4;stroke-linecap:square;stroke-width:1.5;"/>
   </g>
   <g id="patch_3">
    <path d="M 57.6 307.584 
L 57.6 41.472 
" style="fill:none;stroke:#000000;stroke-linecap:square;stroke-linejoin:miter;stroke-width:0.8;"/>
   </g>
   <g id="patch_4">
    <path d="M 414.72 307.584 
L 414.72 41.472 
" style="fill:none;stroke:#000000;stroke-linecap:square;stroke-linejoin:miter;stroke-width:0.8;"/>
   </g>
   <g id="patch_5">
    <path d="M 57.6 307.584 
L 414.72 307.584 
" style="fill:none;stroke:#000000;stroke-linecap:square;stroke-linejoin:miter;stroke-width:0.8;"/>
   </g>
   <g id="patch_6">
    <path d="M 57.6 41.472 
L 414.72 41.472 
" style="fill:none;stroke:#000000;stroke-linecap:square;stroke-linejoin:miter;stroke-width:0.8;"/>
   </g>
   <g id="text_11">
    <!-- Acceptance probability -->
    <defs>
     <path d="M 34.1875 63.1875 
L 20.796875 26.90625 
L 47.609375 26.90625 
z
M 28.609375 72.90625 
L 39.796875 72.90625 
L 67.578125 0 
L 57.328125 0 
L 50.6875 18.703125 
L 17.828125 18.703125 
L 11.1875 0 
L 0.78125 0 
z
" id="DejaVuSans-65"/>
     <path d="M 48.78125 52.59375 
L 48.78125 44.1875 
Q 44.96875 46.296875 41.140625 47.34375 
Q 37.3125 48.390625 33.40625 48.390625 
Q 24.65625 48.390625 19.8125 42.84375 
Q 14.984375 37.3125 14.984375 27.296875 
Q 14.984375 17.28125 19.8125 11.734375 
Q 24.65625 6.203125 33.40625 6.203125 
Q 37.3125 6.203125 41.140625 7.25 
Q 44.96875 8.296875 48.78125 10.40625 
L 48.78125 2.09375 
Q 45.015625 0.34375 40.984375 -0.53125 
Q 36.96875 -1.421875 32.421875 -1.421875 
Q 20.0625 -1.421875 12.78125 6.34375 
Q 5.515625 14.109375 5.515625 27.296875 
Q 5.515625 40.671875 12.859375 48.328125 
Q 20.21875 56 33.015625 56 
Q 37.15625 56 41.109375 55.140625 
Q 45.0625 54.296875 48.78125 52.59375 
z
" id="DejaVuSans-99"/>
     <path d="M 56.203125 29.59375 
L 56.203125 25.203125 
L 14.890625 25.203125 
Q 15.484375 15.921875 20.484375 11.0625 
Q 25.484375 6.203125 34.421875 6.203125 
Q 39.59375 6.203125 44.453125 7.46875 
Q 49.3125 8.734375 54.109375 11.28125 
L 54.109375 2.78125 
Q 49.265625 0.734375 44.1875 -0.34375 
Q 39.109375 -1.421875 33.890625 -1.421875 
Q 20.796875 -1.421875 13.15625 6.1875 
Q 5.515625 13.8125 5.515625 26.8125 
Q 5.515625 40.234375 12.765625 48.109375 
Q 20.015625 56 32.328125 56 
Q 43.359375 56 49.78125 48.890625 
Q 56.203125 41.796875 56.203125 29.59375 
z
M 47.21875 32.234375 
Q 47.125 39.59375 43.09375 43.984375 
Q 39.0625 48.390625 32.421875 48.390625 
Q 24.90625 48.390625 20.390625 44.140625 
Q 15.875 39.890625 15.1875 32.171875 
z
" id="DejaVuSans-101"/>
     <path d="M 18.109375 8.203125 
L 18.109375 -20.796875 
L 9.078125 -20.796875 
L 9.078125 54.6875 
L 18.109375 54.6875 
L 18.109375 46.390625 
Q 20.953125 51.265625 25.265625 53.625 
Q 29.59375 56 35.59375 56 
Q 45.5625 56 51.78125 48.09375 
Q 58.015625 40.1875 58.015625 27.296875 
Q 58.015625 14.40625 51.78125 6.484375 
Q 45.5625 -1.421875 35.59375 -1.421875 
Q 29.59375 -1.421875 25.265625 0.953125 
Q 20.953125 3.328125 18.109375 8.203125 
z
M 48.6875 27.296875 
Q 48.6875 37.203125 44.609375 42.84375 
Q 40.53125 48.484375 33.40625 48.484375 
Q 26.265625 48.484375 22.1875 42.84375 
Q 18.109375 37.203125 18.109375 27.296875 
Q 18.109375 17.390625 22.1875 11.75 
Q 26.265625 6.109375 33.40625 6.109375 
Q 40.53125 6.109375 44.609375 11.75 
Q 48.6875 17.390625 48.6875 27.296875 
z
" id="DejaVuSans-112"/>
     <path d="M 18.3125 70.21875 
L 18.3125 54.6875 
L 36.8125 54.6875 
L 36.8125 47.703125 
L 18.3125 47.703125 
L 18.3125 18.015625 
Q 18.3125 11.328125 20.140625 9.421875 
Q 21.96875 7.515625 27.59375 7.515625 
L 36.8125 7.515625 
L 36.8125 0 
L 27.59375 0 
Q 17.1875 0 13.234375 3.875 
Q 9.28125 7.765625 9.28125 18.015625 
L 9.28125 47.703125 
L 2.6875 47.703125 
L 2.6875 54.6875 
L 9.28125 54.6875 
L 9.28125 70.21875 
z
" id="DejaVuSans-116"/>
     <path d="M 34.28125 27.484375 
Q 23.390625 27.484375 19.1875 25 
Q 14.984375 22.515625 14.984375 16.5 
Q 14.984375 11.71875 18.140625 8.90625 
Q 21.296875 6.109375 26.703125 6.109375 
Q 34.1875 6.109375 38.703125 11.40625 
Q 43.21875 16.703125 43.21875 25.484375 
L 43.21875 27.484375 
z
M 52.203125 31.203125 
L 52.203125 0 
L 43.21875 0 
L 43.21875 8.296875 
Q 40.140625 3.328125 35.546875 0.953125 
Q 30.953125 -1.421875 24.3125 -1.421875 
Q 15.921875 -1.421875 10.953125 3.296875 
Q 6 8.015625 6 15.921875 
Q 6 25.140625 12.171875 29.828125 
Q 18.359375 34.515625 30.609375 34.515625 
L 43.21875 34.515625 
L 43.21875 35.40625 
Q 43.21875 41.609375 39.140625 45 
Q 35.0625 48.390625 27.6875 48.390625 
Q 23 48.390625 18.546875 47.265625 
Q 14.109375 46.140625 10.015625 43.890625 
L 10.015625 52.203125 
Q 14.9375 54.109375 19.578125 55.046875 
Q 24.21875 56 28.609375 56 
Q 40.484375 56 46.34375 49.84375 
Q 52.203125 43.703125 52.203125 31.203125 
z
" id="DejaVuSans-97"/>
     <path d="M 54.890625 33.015625 
L 54.890625 0 
L 45.90625 0 
L 45.90625 32.71875 
Q 45.90625 40.484375 42.875 44.328125 
Q 39.84375 48.1875 33.796875 48.1875 
Q 26.515625 48.1875 22.3125 43.546875 
Q 18.109375 38.921875 18.109375 30.90625 
L 18.109375 0 
L 9.078125 0 
L 9.078125 54.6875 
L 18.109375 54.6875 
L 18.109375 46.1875 
Q 21.34375 51.125 25.703125 53.5625 
Q 30.078125 56 35.796875 56 
Q 45.21875 56 50.046875 50.171875 
Q 54.890625 44.34375 54.890625 33.015625 
z
" id="DejaVuSans-110"/>
     <path id="DejaVuSans-32"/>
     <path d="M 41.109375 46.296875 
Q 39.59375 47.171875 37.8125 47.578125 
Q 36.03125 48 33.890625 48 
Q 26.265625 48 22.1875 43.046875 
Q 18.109375 38.09375 18.109375 28.8125 
L 18.109375 0 
L 9.078125 0 
L 9.078125 54.6875 
L 18.109375 54.6875 
L 18.109375 46.1875 
Q 20.953125 51.171875 25.484375 53.578125 
Q 30.03125 56 36.53125 56 
Q 37.453125 56 38.578125 55.875 
Q 39.703125 55.765625 41.0625 55.515625 
z
" id="DejaVuSans-114"/>
     <path d="M 30.609375 48.390625 
Q 23.390625 48.390625 19.1875 42.75 
Q 14.984375 37.109375 14.984375 27.296875 
Q 14.984375 17.484375 19.15625 11.84375 
Q 23.34375 6.203125 30.609375 6.203125 
Q 37.796875 6.203125 41.984375 11.859375 
Q 46.1875 17.53125 46.1875 27.296875 
Q 46.1875 37.015625 41.984375 42.703125 
Q 37.796875 48.390625 30.609375 48.390625 
z
M 30.609375 56 
Q 42.328125 56 49.015625 48.375 
Q 55.71875 40.765625 55.71875 27.296875 
Q 55.71875 13.875 49.015625 6.21875 
Q 42.328125 -1.421875 30.609375 -1.421875 
Q 18.84375 -1.421875 12.171875 6.21875 
Q 5.515625 13.875 5.515625 27.296875 
Q 5.515625 40.765625 12.171875 48.375 
Q 18.84375 56 30.609375 56 
z
" id="DejaVuSans-111"/>
     <path d="M 48.6875 27.296875 
Q 48.6875 37.203125 44.609375 42.84375 
Q 40.53125 48.484375 33.40625 48.484375 
Q 26.265625 48.484375 22.1875 42.84375 
Q 18.109375 37.203125 18.109375 27.296875 
Q 18.109375 17.390625 22.1875 11.75 
Q 26.265625 6.109375 33.40625 6.109375 
Q 40.53125 6.109375 44.609375 11.75 
Q 48.6875 17.390625 48.6875 27.296875 
z
M 18.109375 46.390625 
Q 20.953125 51.265625 25.265625 53.625 
Q 29.59375 56 35.59375 56 
Q 45.5625 56 51.78125 48.09375 
Q 58.015625 40.1875 58.015625 27.296875 
Q 58.015625 14.40625 51.78125 6.484375 
Q 45.5625 -1.421875 35.59375 -1.421875 
Q 29.59375 -1.421875 25.265625 0.953125 
Q 20.953125 3.328125 18.109375 8.203125 
L 18.109375 0 
L 9.078125 0 
L 9.078125 75.984375 
L 18.109375 75.984375 
z
" id="DejaVuSans-98"/>
     <path d="M 9.421875 54.6875 
L 18.40625 54.6875 
L 18.40625 0 
L 9.421875 0 
z
M 9.421875 75.984375 
L 18.40625 75.984375 
L 18.40625 64.59375 
L 9.421875 64.59375 
z
" id="DejaVuSans-105"/>
     <path d="M 9.421875 75.984375 
L 18.40625 75.984375 
L 18.40625 0 
L 9.421875 0 
z
" id="DejaVuSans-108"/>
     <path d="M 32.171875 -5.078125 
Q 28.375 -14.84375 24.75 -17.8125 
Q 21.140625 -20.796875 15.09375 -20.796875 
L 7.90625 -20.796875 
L 7.90625 -13.28125 
L 13.1875 -13.28125 
Q 16.890625 -13.28125 18.9375 -11.515625 
Q 21 -9.765625 23.484375 -3.21875 
L 25.09375 0.875 
L 2.984375 54.6875 
L 12.5 54.6875 
L 29.59375 11.921875 
L 46.6875 54.6875 
L 56.203125 54.6875 
z
" id="DejaVuSans-121"/>
    </defs>
    <g transform="translate(167.32125 35.472)scale(0.12 -0.12)">
     <use xlink:href="#DejaVuSans-65"/>
     <use x="66.658203" xlink:href="#DejaVuSans-99"/>
     <use x="121.638672" xlink:href="#DejaVuSans-99"/>
     <use x="176.619141" xlink:href="#DejaVuSans-101"/>
     <use x="238.142578" xlink:href="#DejaVuSans-112"/>
     <use x="301.619141" xlink:href="#DejaVuSans-116"/>
     <use x="340.828125" xlink:href="#DejaVuSans-97"/>
     <use x="402.107422" xlink:href="#DejaVuSans-110"/>
     <use x="465.486328" xlink:href="#DejaVuSans-99"/>
     <use x="520.466797" xlink:href="#DejaVuSans-101"/>
     <use x="581.990234" xlink:href="#DejaVuSans-32"/>
     <use x="613.777344" xlink:href="#DejaVuSans-112"/>
     <use x="677.253906" xlink:href="#DejaVuSans-114"/>
     <use x="716.117188" xlink:href="#DejaVuSans-111"/>
     <use x="777.298828" xlink:href="#DejaVuSans-98"/>
     <use x="840.775391" xlink:href="#DejaVuSans-97"/>
     <use x="902.054688" xlink:href="#DejaVuSans-98"/>
     <use x="965.53125" xlink:href="#DejaVuSans-105"/>
     <use x="993.314453" xlink:href="#DejaVuSans-108"/>
     <use x="1021.097656" xlink:href="#DejaVuSans-105"/>
     <use x="1048.880859" xlink:href="#DejaVuSans-116"/>
     <use x="1088.089844" xlink:href="#DejaVuSans-121"/>
    </g>
   </g>
  </g>
 </g>
 <defs>
  <clipPath id="p009388208a">
   <rect height="266.112" width="357.12" x="57.6" y="41.472"/>
  </clipPath>
 </defs>
</svg>
