<?xml version="1.0" encoding="utf-8" standalone="no"?>
<!DOCTYPE svg PUBLIC "-//W3C//DTD SVG 1.1//EN"
  "http://www.w3.org/Graphics/SVG/1.1/DTD/svg11.dtd">
<!-- Created with matplotlib (https://matplotlib.org/) -->
<svg height="345.6pt" version="1.1" viewBox="0 0 460.8 345.6" width="460.8pt" xmlns="http://www.w3.org/2000/svg" xmlns:xlink="http://www.w3.org/1999/xlink">
 <defs>
  <style type="text/css">
*{stroke-linecap:butt;stroke-linejoin:round;}
  </style>
 </defs>
 <g id="figure_1">
  <g id="patch_1">
   <path d="M 0 345.6 
L 460.8 345.6 
L 460.8 0 
L 0 0 
z
" style="fill:#ffffff;"/>
  </g>
  <g id="axes_1">
   <g id="patch_2">
    <path d="M 57.6 307.584 
L 414.72 307.584 
L 414.72 41.472 
L 57.6 41.472 
z
" style="fill:#ffffff;"/>
   </g>
   <g id="matplotlib.axis_1">
    <g id="xtick_1">
     <g id="line2d_1">
      <defs>
       <path d="M 0 0 
L 0 3.5 
" id="m523a929fb9" style="stroke:#000000;stroke-width:0.8;"/>
      </defs>
      <g>
       <use style="stroke:#000000;stroke-width:0.8;" x="73.290733" xlink:href="#m523a929fb9" y="307.584"/>
      </g>
     </g>
     <g id="text_1">
      <!-- 0 -->
      <defs>
       <path d="M 31.78125 66.40625 
Q 24.171875 66.40625 20.328125 58.90625 
Q 16.5 51.421875 16.5 36.375 
Q 16.5 21.390625 20.328125 13.890625 
Q 24.171875 6.390625 31.78125 6.390625 
Q 39.453125 6.390625 43.28125 13.890625 
Q 47.125 21.390625 47.125 36.375 
Q 47.125 51.421875 43.28125 58.90625 
Q 39.453125 66.40625 31.78125 66.40625 
z
M 31.78125 74.21875 
Q 44.046875 74.21875 50.515625 64.515625 
Q 56.984375 54.828125 56.984375 36.375 
Q 56.984375 17.96875 50.515625 8.265625 
Q 44.046875 -1.421875 31.78125 -1.421875 
Q 19.53125 -1.421875 13.0625 8.265625 
Q 6.59375 17.96875 6.59375 36.375 
Q 6.59375 54.828125 13.0625 64.515625 
Q 19.53125 74.21875 31.78125 74.21875 
z
" id="DejaVuSans-48"/>
      </defs>
      <g transform="translate(70.109483 322.182437)scale(0.1 -0.1)">
       <use xlink:href="#DejaVuSans-48"/>
      </g>
     </g>
    </g>
    <g id="xtick_2">
     <g id="line2d_2">
      <g>
       <use style="stroke:#000000;stroke-width:0.8;" x="127.490156" xlink:href="#m523a929fb9" y="307.584"/>
      </g>
     </g>
     <g id="text_2">
      <!-- 100 -->
      <defs>
       <path d="M 12.40625 8.296875 
L 28.515625 8.296875 
L 28.515625 63.921875 
L 10.984375 60.40625 
L 10.984375 69.390625 
L 28.421875 72.90625 
L 38.28125 72.90625 
L 38.28125 8.296875 
L 54.390625 8.296875 
L 54.390625 0 
L 12.40625 0 
z
" id="DejaVuSans-49"/>
      </defs>
      <g transform="translate(117.946406 322.182437)scale(0.1 -0.1)">
       <use xlink:href="#DejaVuSans-49"/>
       <use x="63.623047" xlink:href="#DejaVuSans-48"/>
       <use x="127.246094" xlink:href="#DejaVuSans-48"/>
      </g>
     </g>
    </g>
    <g id="xtick_3">
     <g id="line2d_3">
      <g>
       <use style="stroke:#000000;stroke-width:0.8;" x="181.68958" xlink:href="#m523a929fb9" y="307.584"/>
      </g>
     </g>
     <g id="text_3">
      <!-- 200 -->
      <defs>
       <path d="M 19.1875 8.296875 
L 53.609375 8.296875 
L 53.609375 0 
L 7.328125 0 
L 7.328125 8.296875 
Q 12.9375 14.109375 22.625 23.890625 
Q 32.328125 33.6875 34.8125 36.53125 
Q 39.546875 41.84375 41.421875 45.53125 
Q 43.3125 49.21875 43.3125 52.78125 
Q 43.3125 58.59375 39.234375 62.25 
Q 35.15625 65.921875 28.609375 65.921875 
Q 23.96875 65.921875 18.8125 64.3125 
Q 13.671875 62.703125 7.8125 59.421875 
L 7.8125 69.390625 
Q 13.765625 71.78125 18.9375 73 
Q 24.125 74.21875 28.421875 74.21875 
Q 39.75 74.21875 46.484375 68.546875 
Q 53.21875 62.890625 53.21875 53.421875 
Q 53.21875 48.921875 51.53125 44.890625 
Q 49.859375 40.875 45.40625 35.40625 
Q 44.1875 33.984375 37.640625 27.21875 
Q 31.109375 20.453125 19.1875 8.296875 
z
" id="DejaVuSans-50"/>
      </defs>
      <g transform="translate(172.14583 322.182437)scale(0.1 -0.1)">
       <use xlink:href="#DejaVuSans-50"/>
       <use x="63.623047" xlink:href="#DejaVuSans-48"/>
       <use x="127.246094" xlink:href="#DejaVuSans-48"/>
      </g>
     </g>
    </g>
    <g id="xtick_4">
     <g id="line2d_4">
      <g>
       <use style="stroke:#000000;stroke-width:0.8;" x="235.889003" xlink:href="#m523a929fb9" y="307.584"/>
      </g>
     </g>
     <g id="text_4">
      <!-- 300 -->
      <defs>
       <path d="M 40.578125 39.3125 
Q 47.65625 37.796875 51.625 33 
Q 55.609375 28.21875 55.609375 21.1875 
Q 55.609375 10.40625 48.1875 4.484375 
Q 40.765625 -1.421875 27.09375 -1.421875 
Q 22.515625 -1.421875 17.65625 -0.515625 
Q 12.796875 0.390625 7.625 2.203125 
L 7.625 11.71875 
Q 11.71875 9.328125 16.59375 8.109375 
Q 21.484375 6.890625 26.8125 6.890625 
Q 36.078125 6.890625 40.9375 10.546875 
Q 45.796875 14.203125 45.796875 21.1875 
Q 45.796875 27.640625 41.28125 31.265625 
Q 36.765625 34.90625 28.71875 34.90625 
L 20.21875 34.90625 
L 20.21875 43.015625 
L 29.109375 43.015625 
Q 36.375 43.015625 40.234375 45.921875 
Q 44.09375 48.828125 44.09375 54.296875 
Q 44.09375 59.90625 40.109375 62.90625 
Q 36.140625 65.921875 28.71875 65.921875 
Q 24.65625 65.921875 20.015625 65.03125 
Q 15.375 64.15625 9.8125 62.3125 
L 9.8125 71.09375 
Q 15.4375 72.65625 20.34375 73.4375 
Q 25.25 74.21875 29.59375 74.21875 
Q 40.828125 74.21875 47.359375 69.109375 
Q 53.90625 64.015625 53.90625 55.328125 
Q 53.90625 49.265625 50.4375 45.09375 
Q 46.96875 40.921875 40.578125 39.3125 
z
" id="DejaVuSans-51"/>
      </defs>
      <g transform="translate(226.345253 322.182437)scale(0.1 -0.1)">
       <use xlink:href="#DejaVuSans-51"/>
       <use x="63.623047" xlink:href="#DejaVuSans-48"/>
       <use x="127.246094" xlink:href="#DejaVuSans-48"/>
      </g>
     </g>
    </g>
    <g id="xtick_5">
     <g id="line2d_5">
      <g>
       <use style="stroke:#000000;stroke-width:0.8;" x="290.088426" xlink:href="#m523a929fb9" y="307.584"/>
      </g>
     </g>
     <g id="text_5">
      <!-- 400 -->
      <defs>
       <path d="M 37.796875 64.3125 
L 12.890625 25.390625 
L 37.796875 25.390625 
z
M 35.203125 72.90625 
L 47.609375 72.90625 
L 47.609375 25.390625 
L 58.015625 25.390625 
L 58.015625 17.1875 
L 47.609375 17.1875 
L 47.609375 0 
L 37.796875 0 
L 37.796875 17.1875 
L 4.890625 17.1875 
L 4.890625 26.703125 
z
" id="DejaVuSans-52"/>
      </defs>
      <g transform="translate(280.544676 322.182437)scale(0.1 -0.1)">
       <use xlink:href="#DejaVuSans-52"/>
       <use x="63.623047" xlink:href="#DejaVuSans-48"/>
       <use x="127.246094" xlink:href="#DejaVuSans-48"/>
      </g>
     </g>
    </g>
    <g id="xtick_6">
     <g id="line2d_6">
      <g>
       <use style="stroke:#000000;stroke-width:0.8;" x="344.287849" xlink:href="#m523a929fb9" y="307.584"/>
      </g>
     </g>
     <g id="text_6">
      <!-- 500 -->
      <defs>
       <path d="M 10.796875 72.90625 
L 49.515625 72.90625 
L 49.515625 64.59375 
L 19.828125 64.59375 
L 19.828125 46.734375 
Q 21.96875 47.46875 24.109375 47.828125 
Q 26.265625 48.1875 28.421875 48.1875 
Q 40.625 48.1875 47.75 41.5 
Q 54.890625 34.8125 54.890625 23.390625 
Q 54.890625 11.625 47.5625 5.09375 
Q 40.234375 -1.421875 26.90625 -1.421875 
Q 22.3125 -1.421875 17.546875 -0.640625 
Q 12.796875 0.140625 7.71875 1.703125 
L 7.71875 11.625 
Q 12.109375 9.234375 16.796875 8.0625 
Q 21.484375 6.890625 26.703125 6.890625 
Q 35.15625 6.890625 40.078125 11.328125 
Q 45.015625 15.765625 45.015625 23.390625 
Q 45.015625 31 40.078125 35.4375 
Q 35.15625 39.890625 26.703125 39.890625 
Q 22.75 39.890625 18.8125 39.015625 
Q 14.890625 38.140625 10.796875 36.28125 
z
" id="DejaVuSans-53"/>
      </defs>
      <g transform="translate(334.744099 322.182437)scale(0.1 -0.1)">
       <use xlink:href="#DejaVuSans-53"/>
       <use x="63.623047" xlink:href="#DejaVuSans-48"/>
       <use x="127.246094" xlink:href="#DejaVuSans-48"/>
      </g>
     </g>
    </g>
    <g id="xtick_7">
     <g id="line2d_7">
      <g>
       <use style="stroke:#000000;stroke-width:0.8;" x="398.487273" xlink:href="#m523a929fb9" y="307.584"/>
      </g>
     </g>
     <g id="text_7">
      <!-- 600 -->
      <defs>
       <path d="M 33.015625 40.375 
Q 26.375 40.375 22.484375 35.828125 
Q 18.609375 31.296875 18.609375 23.390625 
Q 18.609375 15.53125 22.484375 10.953125 
Q 26.375 6.390625 33.015625 6.390625 
Q 39.65625 6.390625 43.53125 10.953125 
Q 47.40625 15.53125 47.40625 23.390625 
Q 47.40625 31.296875 43.53125 35.828125 
Q 39.65625 40.375 33.015625 40.375 
z
M 52.59375 71.296875 
L 52.59375 62.3125 
Q 48.875 64.0625 45.09375 64.984375 
Q 41.3125 65.921875 37.59375 65.921875 
Q 27.828125 65.921875 22.671875 59.328125 
Q 17.53125 52.734375 16.796875 39.40625 
Q 19.671875 43.65625 24.015625 45.921875 
Q 28.375 48.1875 33.59375 48.1875 
Q 44.578125 48.1875 50.953125 41.515625 
Q 57.328125 34.859375 57.328125 23.390625 
Q 57.328125 12.15625 50.6875 5.359375 
Q 44.046875 -1.421875 33.015625 -1.421875 
Q 20.359375 -1.421875 13.671875 8.265625 
Q 6.984375 17.96875 6.984375 36.375 
Q 6.984375 53.65625 15.1875 63.9375 
Q 23.390625 74.21875 37.203125 74.21875 
Q 40.921875 74.21875 44.703125 73.484375 
Q 48.484375 72.75 52.59375 71.296875 
z
" id="DejaVuSans-54"/>
      </defs>
      <g transform="translate(388.943523 322.182437)scale(0.1 -0.1)">
       <use xlink:href="#DejaVuSans-54"/>
       <use x="63.623047" xlink:href="#DejaVuSans-48"/>
       <use x="127.246094" xlink:href="#DejaVuSans-48"/>
      </g>
     </g>
    </g>
   </g>
   <g id="matplotlib.axis_2">
    <g id="ytick_1">
     <g id="line2d_8">
      <defs>
       <path d="M 0 0 
L -3.5 0 
" id="mbebe878a26" style="stroke:#000000;stroke-width:0.8;"/>
      </defs>
      <g>
       <use style="stroke:#000000;stroke-width:0.8;" x="57.6" xlink:href="#mbebe878a26" y="263.34463"/>
      </g>
     </g>
     <g id="text_8">
      <!-- −0.00005 -->
      <defs>
       <path d="M 10.59375 35.5 
L 73.1875 35.5 
L 73.1875 27.203125 
L 10.59375 27.203125 
z
" id="DejaVuSans-8722"/>
       <path d="M 10.6875 12.40625 
L 21 12.40625 
L 21 0 
L 10.6875 0 
z
" id="DejaVuSans-46"/>
      </defs>
      <g transform="translate(0.867188 267.143849)scale(0.1 -0.1)">
       <use xlink:href="#DejaVuSans-8722"/>
       <use x="83.789062" xlink:href="#DejaVuSans-48"/>
       <use x="147.412109" xlink:href="#DejaVuSans-46"/>
       <use x="179.199219" xlink:href="#DejaVuSans-48"/>
       <use x="242.822266" xlink:href="#DejaVuSans-48"/>
       <use x="306.445312" xlink:href="#DejaVuSans-48"/>
       <use x="370.068359" xlink:href="#DejaVuSans-48"/>
       <use x="433.691406" xlink:href="#DejaVuSans-53"/>
      </g>
     </g>
    </g>
    <g id="ytick_2">
     <g id="line2d_9">
      <g>
       <use style="stroke:#000000;stroke-width:0.8;" x="57.6" xlink:href="#mbebe878a26" y="217.00815"/>
      </g>
     </g>
     <g id="text_9">
      <!-- 0.00000 -->
      <g transform="translate(9.246875 220.807369)scale(0.1 -0.1)">
       <use xlink:href="#DejaVuSans-48"/>
       <use x="63.623047" xlink:href="#DejaVuSans-46"/>
       <use x="95.410156" xlink:href="#DejaVuSans-48"/>
       <use x="159.033203" xlink:href="#DejaVuSans-48"/>
       <use x="222.65625" xlink:href="#DejaVuSans-48"/>
       <use x="286.279297" xlink:href="#DejaVuSans-48"/>
       <use x="349.902344" xlink:href="#DejaVuSans-48"/>
      </g>
     </g>
    </g>
    <g id="ytick_3">
     <g id="line2d_10">
      <g>
       <use style="stroke:#000000;stroke-width:0.8;" x="57.6" xlink:href="#mbebe878a26" y="170.67167"/>
      </g>
     </g>
     <g id="text_10">
      <!-- 0.00005 -->
      <g transform="translate(9.246875 174.470889)scale(0.1 -0.1)">
       <use xlink:href="#DejaVuSans-48"/>
       <use x="63.623047" xlink:href="#DejaVuSans-46"/>
       <use x="95.410156" xlink:href="#DejaVuSans-48"/>
       <use x="159.033203" xlink:href="#DejaVuSans-48"/>
       <use x="222.65625" xlink:href="#DejaVuSans-48"/>
       <use x="286.279297" xlink:href="#DejaVuSans-48"/>
       <use x="349.902344" xlink:href="#DejaVuSans-53"/>
      </g>
     </g>
    </g>
    <g id="ytick_4">
     <g id="line2d_11">
      <g>
       <use style="stroke:#000000;stroke-width:0.8;" x="57.6" xlink:href="#mbebe878a26" y="124.33519"/>
      </g>
     </g>
     <g id="text_11">
      <!-- 0.00010 -->
      <g transform="translate(9.246875 128.134409)scale(0.1 -0.1)">
       <use xlink:href="#DejaVuSans-48"/>
       <use x="63.623047" xlink:href="#DejaVuSans-46"/>
       <use x="95.410156" xlink:href="#DejaVuSans-48"/>
       <use x="159.033203" xlink:href="#DejaVuSans-48"/>
       <use x="222.65625" xlink:href="#DejaVuSans-48"/>
       <use x="286.279297" xlink:href="#DejaVuSans-49"/>
       <use x="349.902344" xlink:href="#DejaVuSans-48"/>
      </g>
     </g>
    </g>
    <g id="ytick_5">
     <g id="line2d_12">
      <g>
       <use style="stroke:#000000;stroke-width:0.8;" x="57.6" xlink:href="#mbebe878a26" y="77.99871"/>
      </g>
     </g>
     <g id="text_12">
      <!-- 0.00015 -->
      <g transform="translate(9.246875 81.797929)scale(0.1 -0.1)">
       <use xlink:href="#DejaVuSans-48"/>
       <use x="63.623047" xlink:href="#DejaVuSans-46"/>
       <use x="95.410156" xlink:href="#DejaVuSans-48"/>
       <use x="159.033203" xlink:href="#DejaVuSans-48"/>
       <use x="222.65625" xlink:href="#DejaVuSans-48"/>
       <use x="286.279297" xlink:href="#DejaVuSans-49"/>
       <use x="349.902344" xlink:href="#DejaVuSans-53"/>
      </g>
     </g>
    </g>
   </g>
   <g id="line2d_13">
    <path clip-path="url(#pabe00cc011)" d="M 74.53019 -1 
L 74.916716 322.220958 
L 75.060066 -1 
M 75.785037 -1 
L 75.911233 346.6 
M 77.389743 346.6 
L 77.528898 -1 
M 79.330738 -1 
L 79.471874 346.6 
M 81.74672 346.6 
L 82.01939 -1 
M 82.753692 -1 
L 82.825742 346.6 
M 83.535082 346.6 
L 83.588623 229.78885 
L 83.862853 346.6 
M 84.230529 346.6 
L 84.53502 -1 
M 84.783559 -1 
L 85.029086 346.6 
M 85.286433 346.6 
L 85.381491 -1 
M 86.477815 -1 
L 86.617057 346.6 
M 87.40179 346.6 
L 87.756839 -1 
M 88.777493 -1 
L 89.008566 261.458484 
L 89.55056 197.051734 
L 90.092554 270.866361 
L 90.179566 346.6 
M 91.777032 346.6 
L 91.931974 -1 
M 92.542449 -1 
L 92.675395 346.6 
M 92.907104 346.6 
L 93.016467 -1 
M 96.444967 -1 
L 96.596485 62.775742 
L 96.660156 -1 
M 97.411267 -1 
L 97.609176 346.6 
M 97.859347 346.6 
L 98.222468 92.389631 
L 98.764462 113.265911 
L 99.110626 -1 
M 99.329183 -1 
L 99.451393 346.6 
M 100.387231 346.6 
L 100.390445 339.862909 
L 100.393908 346.6 
M 101.5265 346.6 
L 101.686079 -1 
M 102.337996 -1 
L 102.493335 346.6 
M 103.174942 346.6 
L 103.352809 -1 
M 104.16286 -1 
L 104.184404 22.428573 
L 104.726399 22.428573 
L 105.104875 346.6 
M 106.931683 346.6 
L 107.227651 -1 
M 110.661118 -1 
L 110.688335 69.977069 
L 110.688335 69.977069 
L 111.074172 -1 
M 111.260806 -1 
L 111.629586 346.6 
M 112.577732 346.6 
L 112.732311 -1 
M 114.766571 -1 
L 114.911565 346.6 
M 115.240253 346.6 
L 115.518043 -1 
M 115.680244 -1 
L 116.108277 225.725514 
L 116.108277 225.725514 
L 117.192266 225.725514 
L 117.73426 287.758414 
L 118.276254 319.485289 
L 118.818249 195.54264 
L 118.93106 346.6 
M 120.125489 346.6 
L 120.260524 -1 
M 121.650296 -1 
L 121.80821 346.6 
M 122.249947 346.6 
L 122.358276 -1 
M 123.518125 -1 
L 123.673375 346.6 
M 123.711721 346.6 
L 123.817327 -1 
M 124.560294 -1 
L 124.641119 346.6 
M 125.493001 346.6 
L 125.592282 -1 
M 126.268151 -1 
L 126.42248 346.6 
M 128.031953 346.6 
L 128.229289 -1 
M 128.771049 -1 
L 128.883695 346.6 
M 129.451495 346.6 
L 129.614014 -1 
M 129.80413 -1 
L 130.200127 254.949579 
L 130.742122 163.010368 
L 131.284116 34.430164 
L 131.309634 -1 
M 132.656378 -1 
L 132.941945 346.6 
M 133.52466 346.6 
L 133.677449 -1 
M 134.441431 -1 
L 134.536081 151.415691 
L 134.903557 -1 
M 135.656488 -1 
L 135.911857 346.6 
M 136.652108 346.6 
L 137.141752 -1 
M 137.702168 -1 
L 137.788047 12.97575 
L 138.058629 346.6 
M 138.553493 346.6 
L 138.785594 -1 
M 138.939775 -1 
L 139.121662 346.6 
M 140.172826 346.6 
L 140.307703 -1 
M 141.116171 -1 
L 141.30336 346.6 
M 142.827212 346.6 
L 143.150612 -1 
M 143.277973 -1 
L 143.67243 346.6 
M 144.453845 346.6 
L 144.676636 -1 
M 146.27909 -1 
L 146.426825 346.6 
M 147.065218 346.6 
L 147.347358 -1 
M 147.889299 -1 
L 148.085937 136.90105 
L 148.345612 -1 
M 149.312951 -1 
L 149.486537 346.6 
M 150.021157 346.6 
L 150.253914 6.898598 
L 150.795908 58.454622 
L 150.999079 346.6 
M 152.769782 346.6 
L 152.963885 113.868554 
L 153.505879 115.938732 
L 153.668977 346.6 
M 155.699662 346.6 
L 156.190323 -1 
M 158.005194 -1 
L 158.513643 346.6 
M 159.140968 346.6 
L 159.467816 173.122915 
L 160.00981 55.553641 
L 160.057909 -1 
M 160.735986 -1 
L 160.846234 346.6 
M 161.399397 346.6 
L 161.535488 -1 
M 162.353284 -1 
L 162.719781 114.686456 
L 163.261776 114.686456 
L 163.605737 -1 
M 163.875757 -1 
L 164.251439 346.6 
M 164.387338 346.6 
L 164.552922 -1 
M 165.057402 -1 
L 165.141295 346.6 
M 166.067568 346.6 
L 166.415029 -1 
M 166.56276 -1 
L 166.735305 346.6 
M 168.250526 346.6 
L 168.395949 -1 
M 168.972296 -1 
L 169.120167 346.6 
M 169.351166 346.6 
L 169.53318 -1 
M 170.004169 -1 
L 170.190831 346.6 
M 170.566716 346.6 
L 170.849695 108.830557 
L 171.080743 346.6 
M 172.441897 346.6 
L 172.475678 298.491014 
L 172.490637 346.6 
M 173.529859 346.6 
L 173.686737 -1 
M 175.553067 -1 
L 175.670522 346.6 
M 175.973525 346.6 
L 176.269637 143.020644 
L 176.811632 4.007968 
L 177.20066 346.6 
M 179.071281 346.6 
L 179.338697 -1 
M 179.800769 -1 
L 180.063597 222.835118 
L 180.24808 -1 
M 180.935527 -1 
L 181.289577 346.6 
M 182.023419 346.6 
L 182.231574 225.745693 
L 182.773568 307.292356 
L 183.315562 307.292356 
L 183.568708 -1 
M 184.611015 -1 
L 184.785611 346.6 
M 185.653793 346.6 
L 185.967542 -1 
M 186.780165 -1 
L 186.900662 346.6 
M 187.790188 346.6 
L 187.900314 -1 
M 188.906895 -1 
L 189.277499 316.410807 
L 189.819493 200.898167 
L 190.013988 -1 
M 190.765607 -1 
L 190.903482 122.069919 
L 191.445476 122.069919 
L 191.705779 346.6 
M 192.73338 346.6 
L 192.837817 -1 
M 193.676098 -1 
L 193.853043 346.6 
M 194.55028 346.6 
L 194.697441 125.184354 
L 194.947907 -1 
M 195.316498 -1 
L 195.498882 346.6 
M 196.520491 346.6 
L 196.647697 -1 
M 197.595314 -1 
L 197.705098 346.6 
M 198.178568 346.6 
L 198.281545 -1 
M 198.823268 -1 
L 198.986116 346.6 
M 200.310455 346.6 
L 200.549038 -1 
M 201.797886 -1 
L 201.920195 346.6 
M 203.037941 346.6 
L 203.139671 -1 
M 203.628943 -1 
L 203.743923 346.6 
M 205.489036 346.6 
L 205.537326 227.905699 
L 205.627977 346.6 
M 206.41571 346.6 
L 206.613572 -1 
M 206.638735 -1 
L 207.083937 346.6 
M 207.282611 346.6 
L 207.705303 127.033384 
L 207.928773 346.6 
M 208.967116 346.6 
L 209.232 -1 
M 209.762101 -1 
L 209.87328 32.623365 
L 210.156988 346.6 
M 211.086574 346.6 
L 211.220191 -1 
M 211.914202 -1 
L 212.148812 346.6 
M 212.771761 346.6 
L 212.901228 -1 
M 213.903435 -1 
L 214.03994 346.6 
M 214.492485 346.6 
L 214.720878 -1 
M 215.678611 -1 
L 215.941366 346.6 
M 216.454482 346.6 
L 216.535318 -1 
M 217.821482 -1 
L 217.897348 346.6 
M 218.990389 346.6 
L 219.087182 241.162916 
L 220.713164 241.162916 
L 220.740267 346.6 
M 222.766225 346.6 
L 222.881141 99.912408 
L 223.423136 206.626602 
L 223.96513 140.00648 
L 224.068585 -1 
M 225.346744 -1 
L 225.519829 346.6 
M 225.754094 346.6 
L 226.133107 13.689155 
L 226.675101 13.689155 
L 227.217095 247.230337 
L 227.281735 346.6 
M 228.049635 346.6 
L 228.187259 -1 
M 228.58193 -1 
L 228.843078 266.323653 
L 229.375961 -1 
M 230.594737 -1 
L 230.718853 346.6 
M 231.258201 346.6 
L 231.36318 -1 
M 231.805218 -1 
L 231.944643 346.6 
M 233.133141 346.6 
L 233.179032 311.915425 
L 233.721026 311.915425 
L 233.812023 -1 
M 236.456559 -1 
L 236.744347 346.6 
M 237.177769 346.6 
L 237.435516 -1 
M 238.627867 -1 
L 239.127193 346.6 
M 239.151474 346.6 
L 239.532265 -1 
M 242.39445 -1 
L 242.87247 346.6 
M 242.9565 346.6 
L 243.1216 -1 
M 243.836534 -1 
L 244.003628 346.6 
M 244.588221 346.6 
L 244.886697 -1 
M 245.306277 -1 
L 245.587033 346.6 
M 245.697596 346.6 
L 245.953276 -1 
M 246.638958 -1 
L 246.728888 62.181286 
L 246.873329 346.6 
M 247.77436 346.6 
L 247.812876 286.714886 
L 247.881173 346.6 
M 249.344614 346.6 
L 249.5313 -1 
M 250.418996 -1 
L 250.639951 346.6 
M 251.638073 346.6 
L 251.803272 -1 
M 252.454034 -1 
L 252.599941 346.6 
M 254.203194 346.6 
L 254.316807 193.337474 
L 254.493398 346.6 
M 255.727158 346.6 
L 255.942789 64.763096 
L 256.298917 346.6 
M 257.157067 346.6 
L 257.360459 -1 
M 259.342885 -1 
L 259.426089 346.6 
M 260.129154 346.6 
L 260.234251 -1 
M 260.532885 -1 
L 260.820738 165.673147 
L 261.904726 66.672073 
L 262.058425 346.6 
M 262.69724 346.6 
L 262.820377 -1 
M 263.506777 -1 
L 263.530709 20.951783 
L 263.701723 346.6 
M 264.441732 346.6 
L 264.614697 15.494973 
L 265.698686 15.494973 
L 265.71719 -1 
M 266.685024 -1 
L 266.782674 101.551161 
L 267.324668 310.045471 
L 267.609976 -1 
M 267.928346 -1 
L 268.004963 346.6 
M 270.254842 346.6 
L 270.428736 -1 
M 271.464025 -1 
L 271.660622 167.273877 
L 272.202616 163.747036 
L 272.760796 346.6 
M 273.440707 346.6 
L 273.608195 -1 
M 276.687378 -1 
L 276.947952 346.6 
M 277.685478 346.6 
L 277.887362 -1 
M 279.04133 -1 
L 279.217202 346.6 
M 279.391193 346.6 
L 279.790536 173.20125 
L 279.958794 346.6 
M 280.511805 346.6 
L 280.6736 -1 
M 281.063053 -1 
L 281.214866 346.6 
M 281.654753 346.6 
L 281.834108 -1 
M 282.306027 -1 
L 282.500507 133.929009 
L 283.042501 61.038917 
L 283.208763 346.6 
M 284.051719 346.6 
L 284.12649 243.326779 
L 284.668484 116.929213 
L 285.210478 116.929213 
L 285.313473 -1 
M 286.094917 -1 
L 286.294467 291.908276 
L 286.836461 307.412036 
L 287.281042 -1 
M 287.422229 -1 
L 287.647391 346.6 
M 288.110631 346.6 
L 288.267453 -1 
M 289.176546 -1 
L 289.287109 346.6 
M 290.433355 346.6 
L 290.580416 -1 
M 290.69654 -1 
L 290.890996 346.6 
M 291.417183 346.6 
L 291.586314 -1 
M 293.61733 -1 
L 293.882386 274.470422 
L 294.42438 238.729996 
L 294.966374 238.729996 
L 295.107906 346.6 
M 297.08494 346.6 
L 297.134351 287.166212 
L 297.414456 346.6 
M 297.88979 346.6 
L 298.21834 261.064416 
L 298.35084 -1 
M 299.160337 -1 
L 299.302328 286.497359 
L 299.49422 -1 
M 300.160394 -1 
L 300.369849 346.6 
M 301.798315 346.6 
L 301.959549 -1 
M 302.187792 -1 
L 302.647945 346.6 
M 303.336925 346.6 
L 303.495623 -1 
M 303.789447 -1 
L 303.957607 346.6 
M 304.373041 346.6 
L 304.518617 -1 
M 306.546754 -1 
L 306.890247 150.477105 
L 307.063906 -1 
M 308.117352 -1 
L 308.238723 346.6 
M 309.88141 346.6 
L 310.073363 -1 
M 310.176228 -1 
L 310.271062 346.6 
M 312.82892 346.6 
L 313.035304 -1 
M 315.686043 -1 
L 316.082459 346.6 
M 316.194638 346.6 
L 316.646144 251.699215 
L 317.132945 346.6 
M 317.195885 346.6 
L 317.44617 -1 
M 318.108874 -1 
L 318.272126 168.989041 
L 318.814121 35.755308 
L 319.356115 8.566918 
L 319.898109 44.706497 
L 320.982097 44.706497 
L 321.170337 346.6 
M 322.91698 346.6 
L 323.137833 -1 
M 323.163081 -1 
L 323.397742 346.6 
M 325.468727 346.6 
L 325.588016 -1 
M 326.046255 -1 
L 326.12791 346.6 
M 327.113553 346.6 
L 327.271825 -1 
M 327.692619 -1 
L 327.845266 346.6 
M 328.86301 346.6 
L 329.112011 224.487731 
L 329.429521 346.6 
M 329.839183 346.6 
L 330.660911 -1 
M 332.77844 -1 
L 332.976381 346.6 
M 333.899791 346.6 
L 334.240492 -1 
M 334.787757 -1 
L 335.069563 346.6 
M 335.628992 346.6 
L 336.157936 127.428554 
L 336.69993 127.428554 
L 336.881933 346.6 
M 337.700043 346.6 
L 337.783919 267.230149 
L 337.869241 346.6 
M 339.70602 346.6 
L 339.797768 -1 
M 340.480881 -1 
L 340.708099 346.6 
M 342.376417 346.6 
L 342.57514 -1 
M 344.377643 -1 
L 344.45445 346.6 
M 345.261339 346.6 
L 345.349625 -1 
M 346.897039 -1 
L 346.997821 113.576616 
L 347.407018 346.6 
M 347.636766 346.6 
L 348.082394 -1 
M 350.540058 -1 
L 350.642883 346.6 
M 351.244268 346.6 
L 351.333774 247.032246 
L 351.808834 -1 
M 352.44885 -1 
L 352.758055 346.6 
M 353.072101 346.6 
L 353.244323 -1 
M 353.664263 -1 
L 353.772984 346.6 
M 355.699116 346.6 
L 355.98006 -1 
M 356.854899 -1 
L 356.977606 346.6 
M 358.512747 346.6 
L 358.638161 -1 
M 360.776922 -1 
L 360.988609 346.6 
M 362.22577 346.6 
L 362.334924 -1 
M 362.988536 -1 
L 363.06677 346.6 
M 364.130403 346.6 
L 364.26597 -1 
M 364.418095 -1 
L 364.555084 346.6 
M 367.177736 346.6 
L 367.593601 20.144429 
L 367.814196 346.6 
M 372.304632 346.6 
L 372.382613 -1 
M 372.766206 -1 
L 373.013544 331.772828 
L 373.555538 331.772828 
L 373.765456 -1 
M 374.488077 -1 
L 374.639526 203.143549 
L 374.945791 346.6 
M 375.768289 346.6 
L 376.128044 -1 
M 378.544036 -1 
L 378.908869 346.6 
M 379.423292 346.6 
L 379.517475 333.252118 
L 380.059469 333.252118 
L 380.601463 92.453211 
L 381.685452 92.453211 
L 382.007339 346.6 
M 384.626662 346.6 
L 384.791717 -1 
M 388.637334 -1 
L 388.731377 100.177485 
L 389.273371 100.177485 
L 389.340563 -1 
M 390.212434 -1 
L 390.491111 346.6 
M 391.014891 346.6 
L 391.166742 -1 
M 393.130706 -1 
L 393.255294 346.6 
M 394.148961 346.6 
L 394.151319 342.284311 
L 394.201507 346.6 
M 395.781616 346.6 
L 395.916891 -1 
M 396.632611 -1 
L 396.737936 346.6 
M 397.238521 346.6 
L 397.403284 168.792708 
L 397.945278 168.382915 
L 398.487273 168.382915 
L 398.487273 168.382915 
" style="fill:none;stroke:#1f77b4;stroke-linecap:square;stroke-width:1.5;"/>
   </g>
   <g id="line2d_14">
    <path clip-path="url(#pabe00cc011)" d="M 75.367073 -1 
L 75.45871 199.149466 
L 75.636796 -1 
M 76.724599 -1 
L 76.888635 346.6 
M 77.389034 346.6 
L 77.626687 22.178055 
L 78.710675 22.178055 
L 79.11506 346.6 
M 80.14806 346.6 
L 80.316852 -1 
M 80.347136 -1 
L 80.436435 346.6 
M 82.184048 346.6 
L 82.504635 29.602607 
L 83.046629 34.074062 
L 83.231045 346.6 
M 83.801796 346.6 
L 83.924075 -1 
M 84.789267 -1 
L 84.961924 346.6 
M 88.204775 346.6 
L 88.263966 -1 
M 88.79176 -1 
L 88.886763 346.6 
M 89.680203 346.6 
L 90.093578 -1 
M 90.716564 -1 
L 91.045431 346.6 
M 92.835224 346.6 
L 92.988042 -1 
M 93.728526 -1 
L 93.886514 332.599513 
L 94.037938 -1 
M 95.852319 -1 
L 95.989598 346.6 
M 96.145716 346.6 
L 96.338701 -1 
M 97.593497 -1 
L 97.680474 90.412089 
L 98.155316 -1 
M 99.469283 -1 
L 99.5786 346.6 
M 101.119503 346.6 
L 101.492326 -1 
M 103.553843 -1 
L 103.781317 346.6 
M 105.026747 346.6 
L 105.204257 -1 
M 107.629708 -1 
L 107.726449 346.6 
M 110.355986 346.6 
L 110.498259 -1 
M 110.942886 -1 
L 111.133419 346.6 
M 112.594586 346.6 
L 112.769004 -1 
M 112.931274 -1 
L 113.081027 346.6 
M 114.275592 346.6 
L 114.433847 -1 
M 115.259655 -1 
L 115.454193 346.6 
M 115.779059 346.6 
L 116.108277 36.710086 
L 116.108277 36.710086 
L 117.192266 36.710086 
L 117.73426 39.000004 
L 118.114056 346.6 
M 118.371146 346.6 
L 118.622233 -1 
M 119.034056 -1 
L 119.310495 346.6 
M 123.52441 346.6 
L 123.696197 130.953336 
L 123.885471 346.6 
M 126.581922 346.6 
L 126.948162 91.822019 
L 127.490156 91.822019 
L 127.587486 346.6 
M 129.264555 346.6 
L 129.359226 -1 
M 130.191889 -1 
L 130.200127 15.93988 
L 130.742122 322.020959 
L 130.988574 -1 
M 132.009848 -1 
L 132.314479 346.6 
M 132.468745 346.6 
L 132.910099 78.258026 
L 133.426365 346.6 
M 133.461349 346.6 
L 133.70194 -1 
M 134.239554 -1 
L 134.441703 346.6 
M 135.664734 346.6 
L 135.77514 -1 
M 136.702241 -1 
L 136.704058 3.098155 
L 137.246053 17.818082 
L 137.502387 346.6 
M 138.549156 346.6 
L 138.821214 -1 
M 139.003786 -1 
L 139.414029 201.187235 
L 139.956024 201.187235 
L 140.169987 -1 
M 140.782379 -1 
L 141.040012 279.841443 
L 141.172339 -1 
M 141.84317 -1 
L 141.947582 346.6 
M 143.77343 346.6 
L 143.892432 -1 
M 144.741734 -1 
L 144.833972 238.344763 
L 145.213367 -1 
M 145.627959 -1 
L 146.406835 346.6 
M 147.040998 346.6 
L 147.543943 25.353376 
L 147.841079 346.6 
M 148.927044 346.6 
L 149.169926 136.900671 
L 149.214886 -1 
M 150.085805 -1 
L 150.171056 346.6 
M 151.236399 346.6 
L 151.337903 152.078016 
L 151.879897 152.078016 
L 152.064245 346.6 
M 153.63863 346.6 
L 153.849082 -1 
M 154.904295 -1 
L 155.131862 236.638821 
L 155.673856 236.638821 
L 155.809088 346.6 
M 158.02773 346.6 
L 158.105654 -1 
M 158.823688 -1 
L 158.925822 287.124352 
L 159.467816 137.709658 
L 159.617667 -1 
M 160.615441 -1 
L 160.761462 346.6 
M 161.54423 346.6 
L 161.635793 185.783448 
L 161.803447 346.6 
M 164.325606 346.6 
L 164.345764 331.670062 
L 164.361639 346.6 
M 166.185658 346.6 
L 166.513741 103.297577 
L 166.582386 346.6 
M 168.564105 346.6 
L 168.681718 196.426427 
L 169.207198 -1 
M 169.227577 -1 
L 169.444095 346.6 
M 170.668012 346.6 
L 170.779631 -1 
M 171.898345 -1 
L 172.129832 346.6 
M 173.457943 346.6 
L 173.559666 212.807854 
L 174.10166 259.055391 
L 174.14652 346.6 
M 175.477779 346.6 
L 175.582447 -1 
M 175.861343 -1 
L 175.957724 346.6 
M 176.833205 346.6 
L 176.926429 -1 
M 178.018669 -1 
L 178.11536 346.6 
M 179.123611 346.6 
L 179.210016 -1 
M 179.804475 -1 
L 179.882918 346.6 
M 180.510788 346.6 
L 180.605591 176.866538 
L 181.147585 187.377077 
L 181.63184 -1 
M 182.301649 -1 
L 182.773568 233.51289 
L 183.315562 233.51289 
L 183.503535 -1 
M 185.508536 -1 
L 185.649873 346.6 
M 187.83954 346.6 
L 188.063882 -1 
M 188.344764 -1 
L 188.606531 346.6 
M 188.837386 346.6 
L 189.044168 -1 
M 189.565512 -1 
L 189.819493 344.882623 
L 190.191551 -1 
M 190.508381 -1 
L 190.831589 346.6 
M 192.790272 346.6 
L 193.071458 225.850038 
L 193.613453 41.238558 
L 194.035872 346.6 
M 194.237162 346.6 
L 194.565765 -1 
M 194.776855 -1 
L 194.975036 346.6 
M 195.49744 346.6 
L 195.690826 -1 
M 196.426883 -1 
L 196.647711 346.6 
M 197.752108 346.6 
L 197.949407 150.449501 
L 198.163361 346.6 
M 198.828021 346.6 
L 199.033395 163.115849 
L 199.288549 346.6 
M 201.566917 346.6 
L 201.729844 -1 
M 201.750236 -1 
L 201.833011 346.6 
M 204.202368 346.6 
L 204.2909 -1 
M 205.403385 -1 
L 205.537326 208.342162 
L 206.07932 160.826618 
L 206.163218 346.6 
M 207.414933 346.6 
L 207.490134 -1 
M 208.009531 -1 
L 208.115859 346.6 
M 208.461726 346.6 
L 208.635188 -1 
M 208.883053 -1 
L 208.988593 346.6 
M 209.650154 346.6 
L 209.748358 -1 
M 210.095346 -1 
L 210.269917 346.6 
M 210.526586 346.6 
L 210.66027 -1 
M 211.870191 -1 
L 212.041257 176.096605 
L 212.35159 -1 
M 213.80386 -1 
L 213.961846 346.6 
M 215.147057 346.6 
L 215.293222 45.318051 
L 215.403643 346.6 
M 217.600925 346.6 
L 217.840961 -1 
M 218.677021 -1 
L 218.87208 346.6 
M 220.984394 346.6 
L 221.230352 -1 
M 221.277733 -1 
L 221.501559 346.6 
M 222.800251 346.6 
L 222.881141 190.26392 
L 223.423136 149.868667 
L 223.630508 -1 
M 224.078405 -1 
L 224.240144 346.6 
M 225.183925 346.6 
L 225.265592 -1 
M 225.930412 -1 
L 226.015536 346.6 
M 227.524753 346.6 
L 227.634432 -1 
M 229.194897 -1 
L 229.385072 243.79653 
L 229.927066 243.79653 
L 230.469061 163.525907 
L 230.740281 -1 
M 231.723121 -1 
L 232.090599 346.6 
M 232.638747 346.6 
L 232.780119 -1 
M 234.511954 -1 
L 234.750127 346.6 
M 234.912425 346.6 
L 235.347009 22.489993 
L 235.889003 22.489993 
L 236.430997 75.197599 
L 236.614213 346.6 
M 237.491779 346.6 
L 237.514986 322.826124 
L 238.05698 258.174737 
L 238.283696 -1 
M 238.75538 -1 
L 238.906225 346.6 
M 240.335936 346.6 
L 240.450071 -1 
M 241.008057 -1 
L 241.0949 346.6 
M 242.658137 346.6 
L 242.728062 -1 
M 243.286139 -1 
L 243.404854 346.6 
M 246.104073 346.6 
L 246.186893 260.523959 
L 246.228802 346.6 
M 248.662884 346.6 
L 248.896864 58.987821 
L 249.298837 346.6 
M 249.59183 346.6 
L 249.980853 91.816681 
L 250.522847 338.715694 
L 250.958718 -1 
M 251.851971 -1 
L 251.959501 346.6 
M 252.384862 346.6 
L 252.518918 -1 
M 253.542033 -1 
L 254.141883 346.6 
M 254.924153 346.6 
L 255.098263 -1 
M 255.899234 -1 
L 255.942789 51.779362 
L 256.484784 32.354036 
L 256.638534 346.6 
M 258.824712 346.6 
L 258.995921 -1 
M 261.257662 -1 
L 261.362732 121.758332 
L 261.774067 -1 
M 262.138964 -1 
L 262.44672 50.232453 
L 262.988715 91.248484 
L 263.207228 -1 
M 264.134414 -1 
L 264.614697 206.847342 
L 265.698686 206.847342 
L 265.806991 -1 
M 267.133028 -1 
L 267.324668 316.493483 
L 267.866663 174.513603 
L 268.023326 -1 
M 271.619855 -1 
L 271.660622 14.467975 
L 271.7561 346.6 
M 273.145598 346.6 
L 273.249539 -1 
M 273.54712 -1 
L 273.828599 132.932519 
L 273.939092 346.6 
M 275.303705 346.6 
L 275.468363 -1 
M 276.343497 -1 
L 276.465841 346.6 
M 276.73877 346.6 
L 277.07554 -1 
M 277.082681 -1 
L 277.224507 346.6 
M 278.528649 346.6 
L 278.642246 -1 
M 279.418611 -1 
L 279.550807 346.6 
M 280.074509 346.6 
L 280.231103 -1 
M 280.44838 -1 
L 280.627244 346.6 
M 281.078725 346.6 
L 281.226429 -1 
M 282.310464 -1 
L 282.426469 346.6 
M 284.394588 346.6 
L 284.668484 82.063274 
L 285.210478 82.063274 
L 285.271418 -1 
M 286.343334 -1 
L 286.488588 346.6 
M 287.336176 346.6 
L 287.378455 276.167679 
L 287.423669 346.6 
M 288.582074 346.6 
L 288.697834 -1 
M 289.225287 -1 
L 289.30867 346.6 
M 290.373401 346.6 
L 290.473342 -1 
M 290.826359 -1 
L 290.951025 346.6 
M 292.469133 346.6 
L 292.737172 -1 
M 295.289785 -1 
L 295.508368 223.890006 
L 295.678704 -1 
M 296.620522 -1 
L 296.876354 346.6 
M 297.343621 346.6 
L 297.551134 -1 
M 297.877985 -1 
L 298.212162 346.6 
M 298.228913 346.6 
L 298.760334 23.618319 
L 299.302328 53.856155 
L 299.525258 -1 
M 300.982087 -1 
L 301.323599 346.6 
M 301.599583 346.6 
L 301.900525 -1 
M 302.120742 -1 
L 302.412712 346.6 
M 302.787274 346.6 
L 303.096288 123.034521 
L 303.638282 331.6177 
L 303.830614 -1 
M 304.879567 -1 
L 305.062759 346.6 
M 305.504675 346.6 
L 305.723238 -1 
M 307.309141 -1 
L 307.432242 181.912896 
L 307.78819 346.6 
M 307.999686 346.6 
L 308.102461 -1 
M 313.74604 -1 
L 313.915961 346.6 
M 315.588923 346.6 
L 315.813957 -1 
M 317.085406 -1 
L 317.188138 144.293387 
L 317.255755 -1 
M 318.008708 -1 
L 318.103706 346.6 
M 319.673978 346.6 
L 319.898109 138.282363 
L 320.982097 138.282363 
L 321.192304 346.6 
M 322.908334 346.6 
L 323.074449 -1 
M 323.970177 -1 
L 324.051932 346.6 
M 325.124714 346.6 
L 325.281219 -1 
M 326.193134 -1 
L 326.305177 346.6 
M 327.028575 346.6 
L 327.167202 -1 
M 327.764272 -1 
L 327.885253 346.6 
M 328.277755 346.6 
L 328.489377 -1 
M 328.624386 -1 
L 328.767069 346.6 
M 329.964044 346.6 
L 330.195999 197.903421 
L 330.302935 346.6 
M 331.034719 346.6 
L 331.205213 -1 
M 332.277116 -1 
L 332.420469 346.6 
M 333.233359 346.6 
L 333.319109 -1 
M 334.798577 -1 
L 335.073947 249.89673 
L 335.615942 249.89673 
L 335.733257 346.6 
M 336.879712 346.6 
L 337.058229 -1 
M 337.443406 -1 
L 337.639208 346.6 
M 339.357651 346.6 
L 339.409901 221.667438 
L 339.951896 186.445548 
L 340.132047 -1 
M 341.144301 -1 
L 341.28927 346.6 
M 341.836846 346.6 
L 341.966927 -1 
M 342.720839 -1 
L 343.196453 346.6 
M 344.304094 346.6 
L 344.829844 171.36343 
L 344.941544 346.6 
M 346.289267 346.6 
L 346.455826 156.330389 
L 346.508743 346.6 
M 347.726918 346.6 
L 347.902663 -1 
M 348.21841 -1 
L 348.352418 346.6 
M 349.357167 346.6 
L 349.451664 -1 
M 350.243652 -1 
L 350.249786 9.784746 
L 350.256111 -1 
M 352.706383 -1 
L 352.93095 346.6 
M 353.007458 346.6 
L 353.379313 -1 
M 354.210668 -1 
L 354.421529 346.6 
M 355.109269 346.6 
L 355.127734 337.052481 
L 355.669728 117.681539 
L 356.052178 346.6 
M 356.800098 346.6 
L 356.968924 -1 
M 357.546272 -1 
L 357.675718 346.6 
M 358.675051 346.6 
L 358.911069 -1 
M 359.211085 -1 
L 359.463688 12.657909 
L 360.005682 12.657909 
L 360.034693 -1 
M 360.667756 -1 
L 360.840589 346.6 
M 362.516868 346.6 
L 362.741131 -1 
M 364.14584 -1 
L 364.249158 346.6 
M 364.613543 346.6 
L 364.88363 37.551736 
L 365.425625 37.551736 
L 365.673713 346.6 
M 366.132195 346.6 
L 366.288444 -1 
M 367.30486 -1 
L 367.483776 346.6 
M 367.724883 346.6 
L 367.938752 -1 
M 369.444417 -1 
L 369.688697 346.6 
M 370.927239 346.6 
L 371.200983 -1 
M 372.021147 -1 
L 372.260783 346.6 
M 372.812205 346.6 
L 373.013544 165.907644 
L 373.555538 165.907644 
L 373.638791 -1 
M 375.89242 -1 
L 376.180201 346.6 
M 378.469223 346.6 
L 378.96987 -1 
M 378.978682 -1 
L 379.264373 346.6 
M 381.802353 346.6 
L 381.911018 -1 
M 382.86092 -1 
L 383.011979 346.6 
M 387.570561 346.6 
L 387.647388 311.13118 
L 388.077591 -1 
M 388.220717 -1 
L 388.355001 346.6 
M 389.516843 346.6 
L 389.60371 -1 
M 390.251073 -1 
L 390.531845 346.6 
M 391.120993 346.6 
L 391.380415 -1 
M 391.464993 -1 
L 391.565666 346.6 
M 392.981883 346.6 
L 393.06733 76.686316 
L 393.609325 73.891147 
L 394.0829 346.6 
M 394.167128 346.6 
L 394.306602 -1 
M 395.335887 -1 
L 395.777302 213.567914 
L 395.981744 -1 
M 397.126883 -1 
L 397.403284 293.46075 
L 397.517669 -1 
L 397.517669 -1 
" style="fill:none;stroke:#ff7f0e;stroke-linecap:square;stroke-width:1.5;"/>
   </g>
   <g id="patch_3">
    <path d="M 57.6 307.584 
L 57.6 41.472 
" style="fill:none;stroke:#000000;stroke-linecap:square;stroke-linejoin:miter;stroke-width:0.8;"/>
   </g>
   <g id="patch_4">
    <path d="M 414.72 307.584 
L 414.72 41.472 
" style="fill:none;stroke:#000000;stroke-linecap:square;stroke-linejoin:miter;stroke-width:0.8;"/>
   </g>
   <g id="patch_5">
    <path d="M 57.6 307.584 
L 414.72 307.584 
" style="fill:none;stroke:#000000;stroke-linecap:square;stroke-linejoin:miter;stroke-width:0.8;"/>
   </g>
   <g id="patch_6">
    <path d="M 57.6 41.472 
L 414.72 41.472 
" style="fill:none;stroke:#000000;stroke-linecap:square;stroke-linejoin:miter;stroke-width:0.8;"/>
   </g>
   <g id="text_13">
    <!-- Polyakov loop 0 direction -->
    <defs>
     <path d="M 19.671875 64.796875 
L 19.671875 37.40625 
L 32.078125 37.40625 
Q 38.96875 37.40625 42.71875 40.96875 
Q 46.484375 44.53125 46.484375 51.125 
Q 46.484375 57.671875 42.71875 61.234375 
Q 38.96875 64.796875 32.078125 64.796875 
z
M 9.8125 72.90625 
L 32.078125 72.90625 
Q 44.34375 72.90625 50.609375 67.359375 
Q 56.890625 61.8125 56.890625 51.125 
Q 56.890625 40.328125 50.609375 34.8125 
Q 44.34375 29.296875 32.078125 29.296875 
L 19.671875 29.296875 
L 19.671875 0 
L 9.8125 0 
z
" id="DejaVuSans-80"/>
     <path d="M 30.609375 48.390625 
Q 23.390625 48.390625 19.1875 42.75 
Q 14.984375 37.109375 14.984375 27.296875 
Q 14.984375 17.484375 19.15625 11.84375 
Q 23.34375 6.203125 30.609375 6.203125 
Q 37.796875 6.203125 41.984375 11.859375 
Q 46.1875 17.53125 46.1875 27.296875 
Q 46.1875 37.015625 41.984375 42.703125 
Q 37.796875 48.390625 30.609375 48.390625 
z
M 30.609375 56 
Q 42.328125 56 49.015625 48.375 
Q 55.71875 40.765625 55.71875 27.296875 
Q 55.71875 13.875 49.015625 6.21875 
Q 42.328125 -1.421875 30.609375 -1.421875 
Q 18.84375 -1.421875 12.171875 6.21875 
Q 5.515625 13.875 5.515625 27.296875 
Q 5.515625 40.765625 12.171875 48.375 
Q 18.84375 56 30.609375 56 
z
" id="DejaVuSans-111"/>
     <path d="M 9.421875 75.984375 
L 18.40625 75.984375 
L 18.40625 0 
L 9.421875 0 
z
" id="DejaVuSans-108"/>
     <path d="M 32.171875 -5.078125 
Q 28.375 -14.84375 24.75 -17.8125 
Q 21.140625 -20.796875 15.09375 -20.796875 
L 7.90625 -20.796875 
L 7.90625 -13.28125 
L 13.1875 -13.28125 
Q 16.890625 -13.28125 18.9375 -11.515625 
Q 21 -9.765625 23.484375 -3.21875 
L 25.09375 0.875 
L 2.984375 54.6875 
L 12.5 54.6875 
L 29.59375 11.921875 
L 46.6875 54.6875 
L 56.203125 54.6875 
z
" id="DejaVuSans-121"/>
     <path d="M 34.28125 27.484375 
Q 23.390625 27.484375 19.1875 25 
Q 14.984375 22.515625 14.984375 16.5 
Q 14.984375 11.71875 18.140625 8.90625 
Q 21.296875 6.109375 26.703125 6.109375 
Q 34.1875 6.109375 38.703125 11.40625 
Q 43.21875 16.703125 43.21875 25.484375 
L 43.21875 27.484375 
z
M 52.203125 31.203125 
L 52.203125 0 
L 43.21875 0 
L 43.21875 8.296875 
Q 40.140625 3.328125 35.546875 0.953125 
Q 30.953125 -1.421875 24.3125 -1.421875 
Q 15.921875 -1.421875 10.953125 3.296875 
Q 6 8.015625 6 15.921875 
Q 6 25.140625 12.171875 29.828125 
Q 18.359375 34.515625 30.609375 34.515625 
L 43.21875 34.515625 
L 43.21875 35.40625 
Q 43.21875 41.609375 39.140625 45 
Q 35.0625 48.390625 27.6875 48.390625 
Q 23 48.390625 18.546875 47.265625 
Q 14.109375 46.140625 10.015625 43.890625 
L 10.015625 52.203125 
Q 14.9375 54.109375 19.578125 55.046875 
Q 24.21875 56 28.609375 56 
Q 40.484375 56 46.34375 49.84375 
Q 52.203125 43.703125 52.203125 31.203125 
z
" id="DejaVuSans-97"/>
     <path d="M 9.078125 75.984375 
L 18.109375 75.984375 
L 18.109375 31.109375 
L 44.921875 54.6875 
L 56.390625 54.6875 
L 27.390625 29.109375 
L 57.625 0 
L 45.90625 0 
L 18.109375 26.703125 
L 18.109375 0 
L 9.078125 0 
z
" id="DejaVuSans-107"/>
     <path d="M 2.984375 54.6875 
L 12.5 54.6875 
L 29.59375 8.796875 
L 46.6875 54.6875 
L 56.203125 54.6875 
L 35.6875 0 
L 23.484375 0 
z
" id="DejaVuSans-118"/>
     <path id="DejaVuSans-32"/>
     <path d="M 18.109375 8.203125 
L 18.109375 -20.796875 
L 9.078125 -20.796875 
L 9.078125 54.6875 
L 18.109375 54.6875 
L 18.109375 46.390625 
Q 20.953125 51.265625 25.265625 53.625 
Q 29.59375 56 35.59375 56 
Q 45.5625 56 51.78125 48.09375 
Q 58.015625 40.1875 58.015625 27.296875 
Q 58.015625 14.40625 51.78125 6.484375 
Q 45.5625 -1.421875 35.59375 -1.421875 
Q 29.59375 -1.421875 25.265625 0.953125 
Q 20.953125 3.328125 18.109375 8.203125 
z
M 48.6875 27.296875 
Q 48.6875 37.203125 44.609375 42.84375 
Q 40.53125 48.484375 33.40625 48.484375 
Q 26.265625 48.484375 22.1875 42.84375 
Q 18.109375 37.203125 18.109375 27.296875 
Q 18.109375 17.390625 22.1875 11.75 
Q 26.265625 6.109375 33.40625 6.109375 
Q 40.53125 6.109375 44.609375 11.75 
Q 48.6875 17.390625 48.6875 27.296875 
z
" id="DejaVuSans-112"/>
     <path d="M 45.40625 46.390625 
L 45.40625 75.984375 
L 54.390625 75.984375 
L 54.390625 0 
L 45.40625 0 
L 45.40625 8.203125 
Q 42.578125 3.328125 38.25 0.953125 
Q 33.9375 -1.421875 27.875 -1.421875 
Q 17.96875 -1.421875 11.734375 6.484375 
Q 5.515625 14.40625 5.515625 27.296875 
Q 5.515625 40.1875 11.734375 48.09375 
Q 17.96875 56 27.875 56 
Q 33.9375 56 38.25 53.625 
Q 42.578125 51.265625 45.40625 46.390625 
z
M 14.796875 27.296875 
Q 14.796875 17.390625 18.875 11.75 
Q 22.953125 6.109375 30.078125 6.109375 
Q 37.203125 6.109375 41.296875 11.75 
Q 45.40625 17.390625 45.40625 27.296875 
Q 45.40625 37.203125 41.296875 42.84375 
Q 37.203125 48.484375 30.078125 48.484375 
Q 22.953125 48.484375 18.875 42.84375 
Q 14.796875 37.203125 14.796875 27.296875 
z
" id="DejaVuSans-100"/>
     <path d="M 9.421875 54.6875 
L 18.40625 54.6875 
L 18.40625 0 
L 9.421875 0 
z
M 9.421875 75.984375 
L 18.40625 75.984375 
L 18.40625 64.59375 
L 9.421875 64.59375 
z
" id="DejaVuSans-105"/>
     <path d="M 41.109375 46.296875 
Q 39.59375 47.171875 37.8125 47.578125 
Q 36.03125 48 33.890625 48 
Q 26.265625 48 22.1875 43.046875 
Q 18.109375 38.09375 18.109375 28.8125 
L 18.109375 0 
L 9.078125 0 
L 9.078125 54.6875 
L 18.109375 54.6875 
L 18.109375 46.1875 
Q 20.953125 51.171875 25.484375 53.578125 
Q 30.03125 56 36.53125 56 
Q 37.453125 56 38.578125 55.875 
Q 39.703125 55.765625 41.0625 55.515625 
z
" id="DejaVuSans-114"/>
     <path d="M 56.203125 29.59375 
L 56.203125 25.203125 
L 14.890625 25.203125 
Q 15.484375 15.921875 20.484375 11.0625 
Q 25.484375 6.203125 34.421875 6.203125 
Q 39.59375 6.203125 44.453125 7.46875 
Q 49.3125 8.734375 54.109375 11.28125 
L 54.109375 2.78125 
Q 49.265625 0.734375 44.1875 -0.34375 
Q 39.109375 -1.421875 33.890625 -1.421875 
Q 20.796875 -1.421875 13.15625 6.1875 
Q 5.515625 13.8125 5.515625 26.8125 
Q 5.515625 40.234375 12.765625 48.109375 
Q 20.015625 56 32.328125 56 
Q 43.359375 56 49.78125 48.890625 
Q 56.203125 41.796875 56.203125 29.59375 
z
M 47.21875 32.234375 
Q 47.125 39.59375 43.09375 43.984375 
Q 39.0625 48.390625 32.421875 48.390625 
Q 24.90625 48.390625 20.390625 44.140625 
Q 15.875 39.890625 15.1875 32.171875 
z
" id="DejaVuSans-101"/>
     <path d="M 48.78125 52.59375 
L 48.78125 44.1875 
Q 44.96875 46.296875 41.140625 47.34375 
Q 37.3125 48.390625 33.40625 48.390625 
Q 24.65625 48.390625 19.8125 42.84375 
Q 14.984375 37.3125 14.984375 27.296875 
Q 14.984375 17.28125 19.8125 11.734375 
Q 24.65625 6.203125 33.40625 6.203125 
Q 37.3125 6.203125 41.140625 7.25 
Q 44.96875 8.296875 48.78125 10.40625 
L 48.78125 2.09375 
Q 45.015625 0.34375 40.984375 -0.53125 
Q 36.96875 -1.421875 32.421875 -1.421875 
Q 20.0625 -1.421875 12.78125 6.34375 
Q 5.515625 14.109375 5.515625 27.296875 
Q 5.515625 40.671875 12.859375 48.328125 
Q 20.21875 56 33.015625 56 
Q 37.15625 56 41.109375 55.140625 
Q 45.0625 54.296875 48.78125 52.59375 
z
" id="DejaVuSans-99"/>
     <path d="M 18.3125 70.21875 
L 18.3125 54.6875 
L 36.8125 54.6875 
L 36.8125 47.703125 
L 18.3125 47.703125 
L 18.3125 18.015625 
Q 18.3125 11.328125 20.140625 9.421875 
Q 21.96875 7.515625 27.59375 7.515625 
L 36.8125 7.515625 
L 36.8125 0 
L 27.59375 0 
Q 17.1875 0 13.234375 3.875 
Q 9.28125 7.765625 9.28125 18.015625 
L 9.28125 47.703125 
L 2.6875 47.703125 
L 2.6875 54.6875 
L 9.28125 54.6875 
L 9.28125 70.21875 
z
" id="DejaVuSans-116"/>
     <path d="M 54.890625 33.015625 
L 54.890625 0 
L 45.90625 0 
L 45.90625 32.71875 
Q 45.90625 40.484375 42.875 44.328125 
Q 39.84375 48.1875 33.796875 48.1875 
Q 26.515625 48.1875 22.3125 43.546875 
Q 18.109375 38.921875 18.109375 30.90625 
L 18.109375 0 
L 9.078125 0 
L 9.078125 54.6875 
L 18.109375 54.6875 
L 18.109375 46.1875 
Q 21.34375 51.125 25.703125 53.5625 
Q 30.078125 56 35.796875 56 
Q 45.21875 56 50.046875 50.171875 
Q 54.890625 44.34375 54.890625 33.015625 
z
" id="DejaVuSans-110"/>
    </defs>
    <g transform="translate(161.06625 35.472)scale(0.12 -0.12)">
     <use xlink:href="#DejaVuSans-80"/>
     <use x="56.677734" xlink:href="#DejaVuSans-111"/>
     <use x="117.859375" xlink:href="#DejaVuSans-108"/>
     <use x="145.642578" xlink:href="#DejaVuSans-121"/>
     <use x="204.822266" xlink:href="#DejaVuSans-97"/>
     <use x="266.101562" xlink:href="#DejaVuSans-107"/>
     <use x="320.386719" xlink:href="#DejaVuSans-111"/>
     <use x="381.568359" xlink:href="#DejaVuSans-118"/>
     <use x="440.748047" xlink:href="#DejaVuSans-32"/>
     <use x="472.535156" xlink:href="#DejaVuSans-108"/>
     <use x="500.318359" xlink:href="#DejaVuSans-111"/>
     <use x="561.5" xlink:href="#DejaVuSans-111"/>
     <use x="622.681641" xlink:href="#DejaVuSans-112"/>
     <use x="686.158203" xlink:href="#DejaVuSans-32"/>
     <use x="717.945312" xlink:href="#DejaVuSans-48"/>
     <use x="781.568359" xlink:href="#DejaVuSans-32"/>
     <use x="813.355469" xlink:href="#DejaVuSans-100"/>
     <use x="876.832031" xlink:href="#DejaVuSans-105"/>
     <use x="904.615234" xlink:href="#DejaVuSans-114"/>
     <use x="943.478516" xlink:href="#DejaVuSans-101"/>
     <use x="1005.001953" xlink:href="#DejaVuSans-99"/>
     <use x="1059.982422" xlink:href="#DejaVuSans-116"/>
     <use x="1099.191406" xlink:href="#DejaVuSans-105"/>
     <use x="1126.974609" xlink:href="#DejaVuSans-111"/>
     <use x="1188.15625" xlink:href="#DejaVuSans-110"/>
    </g>
   </g>
   <g id="legend_1">
    <g id="patch_7">
     <path d="M 64.6 78.82825 
L 210.540625 78.82825 
Q 212.540625 78.82825 212.540625 76.82825 
L 212.540625 48.472 
Q 212.540625 46.472 210.540625 46.472 
L 64.6 46.472 
Q 62.6 46.472 62.6 48.472 
L 62.6 76.82825 
Q 62.6 78.82825 64.6 78.82825 
z
" style="fill:#ffffff;opacity:0.8;stroke:#cccccc;stroke-linejoin:miter;"/>
    </g>
    <g id="line2d_15">
     <path d="M 66.6 54.570437 
L 86.6 54.570437 
" style="fill:none;stroke:#1f77b4;stroke-linecap:square;stroke-width:1.5;"/>
    </g>
    <g id="line2d_16"/>
    <g id="text_14">
     <!-- real0.0000+/-0.0000 -->
     <defs>
      <path d="M 46 62.703125 
L 46 35.5 
L 73.1875 35.5 
L 73.1875 27.203125 
L 46 27.203125 
L 46 0 
L 37.796875 0 
L 37.796875 27.203125 
L 10.59375 27.203125 
L 10.59375 35.5 
L 37.796875 35.5 
L 37.796875 62.703125 
z
" id="DejaVuSans-43"/>
      <path d="M 25.390625 72.90625 
L 33.6875 72.90625 
L 8.296875 -9.28125 
L 0 -9.28125 
z
" id="DejaVuSans-47"/>
      <path d="M 4.890625 31.390625 
L 31.203125 31.390625 
L 31.203125 23.390625 
L 4.890625 23.390625 
z
" id="DejaVuSans-45"/>
     </defs>
     <g transform="translate(94.6 58.070437)scale(0.1 -0.1)">
      <use xlink:href="#DejaVuSans-114"/>
      <use x="38.863281" xlink:href="#DejaVuSans-101"/>
      <use x="100.386719" xlink:href="#DejaVuSans-97"/>
      <use x="161.666016" xlink:href="#DejaVuSans-108"/>
      <use x="189.449219" xlink:href="#DejaVuSans-48"/>
      <use x="253.072266" xlink:href="#DejaVuSans-46"/>
      <use x="284.859375" xlink:href="#DejaVuSans-48"/>
      <use x="348.482422" xlink:href="#DejaVuSans-48"/>
      <use x="412.105469" xlink:href="#DejaVuSans-48"/>
      <use x="475.728516" xlink:href="#DejaVuSans-48"/>
      <use x="539.351562" xlink:href="#DejaVuSans-43"/>
      <use x="623.140625" xlink:href="#DejaVuSans-47"/>
      <use x="656.832031" xlink:href="#DejaVuSans-45"/>
      <use x="692.916016" xlink:href="#DejaVuSans-48"/>
      <use x="756.539062" xlink:href="#DejaVuSans-46"/>
      <use x="788.326172" xlink:href="#DejaVuSans-48"/>
      <use x="851.949219" xlink:href="#DejaVuSans-48"/>
      <use x="915.572266" xlink:href="#DejaVuSans-48"/>
      <use x="979.195312" xlink:href="#DejaVuSans-48"/>
     </g>
    </g>
    <g id="line2d_17">
     <path d="M 66.6 69.248562 
L 86.6 69.248562 
" style="fill:none;stroke:#ff7f0e;stroke-linecap:square;stroke-width:1.5;"/>
    </g>
    <g id="line2d_18"/>
    <g id="text_15">
     <!-- imag-0.0000+/-0.0000 -->
     <defs>
      <path d="M 52 44.1875 
Q 55.375 50.25 60.0625 53.125 
Q 64.75 56 71.09375 56 
Q 79.640625 56 84.28125 50.015625 
Q 88.921875 44.046875 88.921875 33.015625 
L 88.921875 0 
L 79.890625 0 
L 79.890625 32.71875 
Q 79.890625 40.578125 77.09375 44.375 
Q 74.3125 48.1875 68.609375 48.1875 
Q 61.625 48.1875 57.5625 43.546875 
Q 53.515625 38.921875 53.515625 30.90625 
L 53.515625 0 
L 44.484375 0 
L 44.484375 32.71875 
Q 44.484375 40.625 41.703125 44.40625 
Q 38.921875 48.1875 33.109375 48.1875 
Q 26.21875 48.1875 22.15625 43.53125 
Q 18.109375 38.875 18.109375 30.90625 
L 18.109375 0 
L 9.078125 0 
L 9.078125 54.6875 
L 18.109375 54.6875 
L 18.109375 46.1875 
Q 21.1875 51.21875 25.484375 53.609375 
Q 29.78125 56 35.6875 56 
Q 41.65625 56 45.828125 52.96875 
Q 50 49.953125 52 44.1875 
z
" id="DejaVuSans-109"/>
      <path d="M 45.40625 27.984375 
Q 45.40625 37.75 41.375 43.109375 
Q 37.359375 48.484375 30.078125 48.484375 
Q 22.859375 48.484375 18.828125 43.109375 
Q 14.796875 37.75 14.796875 27.984375 
Q 14.796875 18.265625 18.828125 12.890625 
Q 22.859375 7.515625 30.078125 7.515625 
Q 37.359375 7.515625 41.375 12.890625 
Q 45.40625 18.265625 45.40625 27.984375 
z
M 54.390625 6.78125 
Q 54.390625 -7.171875 48.1875 -13.984375 
Q 42 -20.796875 29.203125 -20.796875 
Q 24.46875 -20.796875 20.265625 -20.09375 
Q 16.0625 -19.390625 12.109375 -17.921875 
L 12.109375 -9.1875 
Q 16.0625 -11.328125 19.921875 -12.34375 
Q 23.78125 -13.375 27.78125 -13.375 
Q 36.625 -13.375 41.015625 -8.765625 
Q 45.40625 -4.15625 45.40625 5.171875 
L 45.40625 9.625 
Q 42.625 4.78125 38.28125 2.390625 
Q 33.9375 0 27.875 0 
Q 17.828125 0 11.671875 7.65625 
Q 5.515625 15.328125 5.515625 27.984375 
Q 5.515625 40.671875 11.671875 48.328125 
Q 17.828125 56 27.875 56 
Q 33.9375 56 38.28125 53.609375 
Q 42.625 51.21875 45.40625 46.390625 
L 45.40625 54.6875 
L 54.390625 54.6875 
z
" id="DejaVuSans-103"/>
     </defs>
     <g transform="translate(94.6 72.748562)scale(0.1 -0.1)">
      <use xlink:href="#DejaVuSans-105"/>
      <use x="27.783203" xlink:href="#DejaVuSans-109"/>
      <use x="125.195312" xlink:href="#DejaVuSans-97"/>
      <use x="186.474609" xlink:href="#DejaVuSans-103"/>
      <use x="249.951172" xlink:href="#DejaVuSans-45"/>
      <use x="286.035156" xlink:href="#DejaVuSans-48"/>
      <use x="349.658203" xlink:href="#DejaVuSans-46"/>
      <use x="381.445312" xlink:href="#DejaVuSans-48"/>
      <use x="445.068359" xlink:href="#DejaVuSans-48"/>
      <use x="508.691406" xlink:href="#DejaVuSans-48"/>
      <use x="572.314453" xlink:href="#DejaVuSans-48"/>
      <use x="635.9375" xlink:href="#DejaVuSans-43"/>
      <use x="719.726562" xlink:href="#DejaVuSans-47"/>
      <use x="753.417969" xlink:href="#DejaVuSans-45"/>
      <use x="789.501953" xlink:href="#DejaVuSans-48"/>
      <use x="853.125" xlink:href="#DejaVuSans-46"/>
      <use x="884.912109" xlink:href="#DejaVuSans-48"/>
      <use x="948.535156" xlink:href="#DejaVuSans-48"/>
      <use x="1012.158203" xlink:href="#DejaVuSans-48"/>
      <use x="1075.78125" xlink:href="#DejaVuSans-48"/>
     </g>
    </g>
   </g>
  </g>
 </g>
 <defs>
  <clipPath id="pabe00cc011">
   <rect height="266.112" width="357.12" x="57.6" y="41.472"/>
  </clipPath>
 </defs>
</svg>
