<?xml version="1.0" encoding="utf-8" standalone="no"?>
<!DOCTYPE svg PUBLIC "-//W3C//DTD SVG 1.1//EN"
  "http://www.w3.org/Graphics/SVG/1.1/DTD/svg11.dtd">
<!-- Created with matplotlib (https://matplotlib.org/) -->
<svg height="345.6pt" version="1.1" viewBox="0 0 460.8 345.6" width="460.8pt" xmlns="http://www.w3.org/2000/svg" xmlns:xlink="http://www.w3.org/1999/xlink">
 <defs>
  <style type="text/css">
*{stroke-linecap:butt;stroke-linejoin:round;}
  </style>
 </defs>
 <g id="figure_1">
  <g id="patch_1">
   <path d="M 0 345.6 
L 460.8 345.6 
L 460.8 0 
L 0 0 
z
" style="fill:#ffffff;"/>
  </g>
  <g id="axes_1">
   <g id="patch_2">
    <path d="M 57.6 307.584 
L 414.72 307.584 
L 414.72 41.472 
L 57.6 41.472 
z
" style="fill:#ffffff;"/>
   </g>
   <g id="matplotlib.axis_1">
    <g id="xtick_1">
     <g id="line2d_1">
      <defs>
       <path d="M 0 0 
L 0 3.5 
" id="m496ce40a8f" style="stroke:#000000;stroke-width:0.8;"/>
      </defs>
      <g>
       <use style="stroke:#000000;stroke-width:0.8;" x="73.019057" xlink:href="#m496ce40a8f" y="307.584"/>
      </g>
     </g>
     <g id="text_1">
      <!-- 0 -->
      <defs>
       <path d="M 31.78125 66.40625 
Q 24.171875 66.40625 20.328125 58.90625 
Q 16.5 51.421875 16.5 36.375 
Q 16.5 21.390625 20.328125 13.890625 
Q 24.171875 6.390625 31.78125 6.390625 
Q 39.453125 6.390625 43.28125 13.890625 
Q 47.125 21.390625 47.125 36.375 
Q 47.125 51.421875 43.28125 58.90625 
Q 39.453125 66.40625 31.78125 66.40625 
z
M 31.78125 74.21875 
Q 44.046875 74.21875 50.515625 64.515625 
Q 56.984375 54.828125 56.984375 36.375 
Q 56.984375 17.96875 50.515625 8.265625 
Q 44.046875 -1.421875 31.78125 -1.421875 
Q 19.53125 -1.421875 13.0625 8.265625 
Q 6.59375 17.96875 6.59375 36.375 
Q 6.59375 54.828125 13.0625 64.515625 
Q 19.53125 74.21875 31.78125 74.21875 
z
" id="DejaVuSans-48"/>
      </defs>
      <g transform="translate(69.837807 322.182437)scale(0.1 -0.1)">
       <use xlink:href="#DejaVuSans-48"/>
      </g>
     </g>
    </g>
    <g id="xtick_2">
     <g id="line2d_2">
      <g>
       <use style="stroke:#000000;stroke-width:0.8;" x="113.702584" xlink:href="#m496ce40a8f" y="307.584"/>
      </g>
     </g>
     <g id="text_2">
      <!-- 50 -->
      <defs>
       <path d="M 10.796875 72.90625 
L 49.515625 72.90625 
L 49.515625 64.59375 
L 19.828125 64.59375 
L 19.828125 46.734375 
Q 21.96875 47.46875 24.109375 47.828125 
Q 26.265625 48.1875 28.421875 48.1875 
Q 40.625 48.1875 47.75 41.5 
Q 54.890625 34.8125 54.890625 23.390625 
Q 54.890625 11.625 47.5625 5.09375 
Q 40.234375 -1.421875 26.90625 -1.421875 
Q 22.3125 -1.421875 17.546875 -0.640625 
Q 12.796875 0.140625 7.71875 1.703125 
L 7.71875 11.625 
Q 12.109375 9.234375 16.796875 8.0625 
Q 21.484375 6.890625 26.703125 6.890625 
Q 35.15625 6.890625 40.078125 11.328125 
Q 45.015625 15.765625 45.015625 23.390625 
Q 45.015625 31 40.078125 35.4375 
Q 35.15625 39.890625 26.703125 39.890625 
Q 22.75 39.890625 18.8125 39.015625 
Q 14.890625 38.140625 10.796875 36.28125 
z
" id="DejaVuSans-53"/>
      </defs>
      <g transform="translate(107.340084 322.182437)scale(0.1 -0.1)">
       <use xlink:href="#DejaVuSans-53"/>
       <use x="63.623047" xlink:href="#DejaVuSans-48"/>
      </g>
     </g>
    </g>
    <g id="xtick_3">
     <g id="line2d_3">
      <g>
       <use style="stroke:#000000;stroke-width:0.8;" x="154.386111" xlink:href="#m496ce40a8f" y="307.584"/>
      </g>
     </g>
     <g id="text_3">
      <!-- 100 -->
      <defs>
       <path d="M 12.40625 8.296875 
L 28.515625 8.296875 
L 28.515625 63.921875 
L 10.984375 60.40625 
L 10.984375 69.390625 
L 28.421875 72.90625 
L 38.28125 72.90625 
L 38.28125 8.296875 
L 54.390625 8.296875 
L 54.390625 0 
L 12.40625 0 
z
" id="DejaVuSans-49"/>
      </defs>
      <g transform="translate(144.842361 322.182437)scale(0.1 -0.1)">
       <use xlink:href="#DejaVuSans-49"/>
       <use x="63.623047" xlink:href="#DejaVuSans-48"/>
       <use x="127.246094" xlink:href="#DejaVuSans-48"/>
      </g>
     </g>
    </g>
    <g id="xtick_4">
     <g id="line2d_4">
      <g>
       <use style="stroke:#000000;stroke-width:0.8;" x="195.069638" xlink:href="#m496ce40a8f" y="307.584"/>
      </g>
     </g>
     <g id="text_4">
      <!-- 150 -->
      <g transform="translate(185.525888 322.182437)scale(0.1 -0.1)">
       <use xlink:href="#DejaVuSans-49"/>
       <use x="63.623047" xlink:href="#DejaVuSans-53"/>
       <use x="127.246094" xlink:href="#DejaVuSans-48"/>
      </g>
     </g>
    </g>
    <g id="xtick_5">
     <g id="line2d_5">
      <g>
       <use style="stroke:#000000;stroke-width:0.8;" x="235.753165" xlink:href="#m496ce40a8f" y="307.584"/>
      </g>
     </g>
     <g id="text_5">
      <!-- 200 -->
      <defs>
       <path d="M 19.1875 8.296875 
L 53.609375 8.296875 
L 53.609375 0 
L 7.328125 0 
L 7.328125 8.296875 
Q 12.9375 14.109375 22.625 23.890625 
Q 32.328125 33.6875 34.8125 36.53125 
Q 39.546875 41.84375 41.421875 45.53125 
Q 43.3125 49.21875 43.3125 52.78125 
Q 43.3125 58.59375 39.234375 62.25 
Q 35.15625 65.921875 28.609375 65.921875 
Q 23.96875 65.921875 18.8125 64.3125 
Q 13.671875 62.703125 7.8125 59.421875 
L 7.8125 69.390625 
Q 13.765625 71.78125 18.9375 73 
Q 24.125 74.21875 28.421875 74.21875 
Q 39.75 74.21875 46.484375 68.546875 
Q 53.21875 62.890625 53.21875 53.421875 
Q 53.21875 48.921875 51.53125 44.890625 
Q 49.859375 40.875 45.40625 35.40625 
Q 44.1875 33.984375 37.640625 27.21875 
Q 31.109375 20.453125 19.1875 8.296875 
z
" id="DejaVuSans-50"/>
      </defs>
      <g transform="translate(226.209415 322.182437)scale(0.1 -0.1)">
       <use xlink:href="#DejaVuSans-50"/>
       <use x="63.623047" xlink:href="#DejaVuSans-48"/>
       <use x="127.246094" xlink:href="#DejaVuSans-48"/>
      </g>
     </g>
    </g>
    <g id="xtick_6">
     <g id="line2d_6">
      <g>
       <use style="stroke:#000000;stroke-width:0.8;" x="276.436692" xlink:href="#m496ce40a8f" y="307.584"/>
      </g>
     </g>
     <g id="text_6">
      <!-- 250 -->
      <g transform="translate(266.892942 322.182437)scale(0.1 -0.1)">
       <use xlink:href="#DejaVuSans-50"/>
       <use x="63.623047" xlink:href="#DejaVuSans-53"/>
       <use x="127.246094" xlink:href="#DejaVuSans-48"/>
      </g>
     </g>
    </g>
    <g id="xtick_7">
     <g id="line2d_7">
      <g>
       <use style="stroke:#000000;stroke-width:0.8;" x="317.120219" xlink:href="#m496ce40a8f" y="307.584"/>
      </g>
     </g>
     <g id="text_7">
      <!-- 300 -->
      <defs>
       <path d="M 40.578125 39.3125 
Q 47.65625 37.796875 51.625 33 
Q 55.609375 28.21875 55.609375 21.1875 
Q 55.609375 10.40625 48.1875 4.484375 
Q 40.765625 -1.421875 27.09375 -1.421875 
Q 22.515625 -1.421875 17.65625 -0.515625 
Q 12.796875 0.390625 7.625 2.203125 
L 7.625 11.71875 
Q 11.71875 9.328125 16.59375 8.109375 
Q 21.484375 6.890625 26.8125 6.890625 
Q 36.078125 6.890625 40.9375 10.546875 
Q 45.796875 14.203125 45.796875 21.1875 
Q 45.796875 27.640625 41.28125 31.265625 
Q 36.765625 34.90625 28.71875 34.90625 
L 20.21875 34.90625 
L 20.21875 43.015625 
L 29.109375 43.015625 
Q 36.375 43.015625 40.234375 45.921875 
Q 44.09375 48.828125 44.09375 54.296875 
Q 44.09375 59.90625 40.109375 62.90625 
Q 36.140625 65.921875 28.71875 65.921875 
Q 24.65625 65.921875 20.015625 65.03125 
Q 15.375 64.15625 9.8125 62.3125 
L 9.8125 71.09375 
Q 15.4375 72.65625 20.34375 73.4375 
Q 25.25 74.21875 29.59375 74.21875 
Q 40.828125 74.21875 47.359375 69.109375 
Q 53.90625 64.015625 53.90625 55.328125 
Q 53.90625 49.265625 50.4375 45.09375 
Q 46.96875 40.921875 40.578125 39.3125 
z
" id="DejaVuSans-51"/>
      </defs>
      <g transform="translate(307.576469 322.182437)scale(0.1 -0.1)">
       <use xlink:href="#DejaVuSans-51"/>
       <use x="63.623047" xlink:href="#DejaVuSans-48"/>
       <use x="127.246094" xlink:href="#DejaVuSans-48"/>
      </g>
     </g>
    </g>
    <g id="xtick_8">
     <g id="line2d_8">
      <g>
       <use style="stroke:#000000;stroke-width:0.8;" x="357.803746" xlink:href="#m496ce40a8f" y="307.584"/>
      </g>
     </g>
     <g id="text_8">
      <!-- 350 -->
      <g transform="translate(348.259996 322.182437)scale(0.1 -0.1)">
       <use xlink:href="#DejaVuSans-51"/>
       <use x="63.623047" xlink:href="#DejaVuSans-53"/>
       <use x="127.246094" xlink:href="#DejaVuSans-48"/>
      </g>
     </g>
    </g>
    <g id="xtick_9">
     <g id="line2d_9">
      <g>
       <use style="stroke:#000000;stroke-width:0.8;" x="398.487273" xlink:href="#m496ce40a8f" y="307.584"/>
      </g>
     </g>
     <g id="text_9">
      <!-- 400 -->
      <defs>
       <path d="M 37.796875 64.3125 
L 12.890625 25.390625 
L 37.796875 25.390625 
z
M 35.203125 72.90625 
L 47.609375 72.90625 
L 47.609375 25.390625 
L 58.015625 25.390625 
L 58.015625 17.1875 
L 47.609375 17.1875 
L 47.609375 0 
L 37.796875 0 
L 37.796875 17.1875 
L 4.890625 17.1875 
L 4.890625 26.703125 
z
" id="DejaVuSans-52"/>
      </defs>
      <g transform="translate(388.943523 322.182437)scale(0.1 -0.1)">
       <use xlink:href="#DejaVuSans-52"/>
       <use x="63.623047" xlink:href="#DejaVuSans-48"/>
       <use x="127.246094" xlink:href="#DejaVuSans-48"/>
      </g>
     </g>
    </g>
   </g>
   <g id="matplotlib.axis_2">
    <g id="ytick_1">
     <g id="line2d_10">
      <defs>
       <path d="M 0 0 
L -3.5 0 
" id="m77322e4e49" style="stroke:#000000;stroke-width:0.8;"/>
      </defs>
      <g>
       <use style="stroke:#000000;stroke-width:0.8;" x="57.6" xlink:href="#m77322e4e49" y="272.645292"/>
      </g>
     </g>
     <g id="text_10">
      <!-- −0.00005 -->
      <defs>
       <path d="M 10.59375 35.5 
L 73.1875 35.5 
L 73.1875 27.203125 
L 10.59375 27.203125 
z
" id="DejaVuSans-8722"/>
       <path d="M 10.6875 12.40625 
L 21 12.40625 
L 21 0 
L 10.6875 0 
z
" id="DejaVuSans-46"/>
      </defs>
      <g transform="translate(0.867188 276.444511)scale(0.1 -0.1)">
       <use xlink:href="#DejaVuSans-8722"/>
       <use x="83.789062" xlink:href="#DejaVuSans-48"/>
       <use x="147.412109" xlink:href="#DejaVuSans-46"/>
       <use x="179.199219" xlink:href="#DejaVuSans-48"/>
       <use x="242.822266" xlink:href="#DejaVuSans-48"/>
       <use x="306.445312" xlink:href="#DejaVuSans-48"/>
       <use x="370.068359" xlink:href="#DejaVuSans-48"/>
       <use x="433.691406" xlink:href="#DejaVuSans-53"/>
      </g>
     </g>
    </g>
    <g id="ytick_2">
     <g id="line2d_11">
      <g>
       <use style="stroke:#000000;stroke-width:0.8;" x="57.6" xlink:href="#m77322e4e49" y="234.058036"/>
      </g>
     </g>
     <g id="text_11">
      <!-- 0.00000 -->
      <g transform="translate(9.246875 237.857254)scale(0.1 -0.1)">
       <use xlink:href="#DejaVuSans-48"/>
       <use x="63.623047" xlink:href="#DejaVuSans-46"/>
       <use x="95.410156" xlink:href="#DejaVuSans-48"/>
       <use x="159.033203" xlink:href="#DejaVuSans-48"/>
       <use x="222.65625" xlink:href="#DejaVuSans-48"/>
       <use x="286.279297" xlink:href="#DejaVuSans-48"/>
       <use x="349.902344" xlink:href="#DejaVuSans-48"/>
      </g>
     </g>
    </g>
    <g id="ytick_3">
     <g id="line2d_12">
      <g>
       <use style="stroke:#000000;stroke-width:0.8;" x="57.6" xlink:href="#m77322e4e49" y="195.470779"/>
      </g>
     </g>
     <g id="text_12">
      <!-- 0.00005 -->
      <g transform="translate(9.246875 199.269998)scale(0.1 -0.1)">
       <use xlink:href="#DejaVuSans-48"/>
       <use x="63.623047" xlink:href="#DejaVuSans-46"/>
       <use x="95.410156" xlink:href="#DejaVuSans-48"/>
       <use x="159.033203" xlink:href="#DejaVuSans-48"/>
       <use x="222.65625" xlink:href="#DejaVuSans-48"/>
       <use x="286.279297" xlink:href="#DejaVuSans-48"/>
       <use x="349.902344" xlink:href="#DejaVuSans-53"/>
      </g>
     </g>
    </g>
    <g id="ytick_4">
     <g id="line2d_13">
      <g>
       <use style="stroke:#000000;stroke-width:0.8;" x="57.6" xlink:href="#m77322e4e49" y="156.883522"/>
      </g>
     </g>
     <g id="text_13">
      <!-- 0.00010 -->
      <g transform="translate(9.246875 160.682741)scale(0.1 -0.1)">
       <use xlink:href="#DejaVuSans-48"/>
       <use x="63.623047" xlink:href="#DejaVuSans-46"/>
       <use x="95.410156" xlink:href="#DejaVuSans-48"/>
       <use x="159.033203" xlink:href="#DejaVuSans-48"/>
       <use x="222.65625" xlink:href="#DejaVuSans-48"/>
       <use x="286.279297" xlink:href="#DejaVuSans-49"/>
       <use x="349.902344" xlink:href="#DejaVuSans-48"/>
      </g>
     </g>
    </g>
    <g id="ytick_5">
     <g id="line2d_14">
      <g>
       <use style="stroke:#000000;stroke-width:0.8;" x="57.6" xlink:href="#m77322e4e49" y="118.296265"/>
      </g>
     </g>
     <g id="text_14">
      <!-- 0.00015 -->
      <g transform="translate(9.246875 122.095484)scale(0.1 -0.1)">
       <use xlink:href="#DejaVuSans-48"/>
       <use x="63.623047" xlink:href="#DejaVuSans-46"/>
       <use x="95.410156" xlink:href="#DejaVuSans-48"/>
       <use x="159.033203" xlink:href="#DejaVuSans-48"/>
       <use x="222.65625" xlink:href="#DejaVuSans-48"/>
       <use x="286.279297" xlink:href="#DejaVuSans-49"/>
       <use x="349.902344" xlink:href="#DejaVuSans-53"/>
      </g>
     </g>
    </g>
    <g id="ytick_6">
     <g id="line2d_15">
      <g>
       <use style="stroke:#000000;stroke-width:0.8;" x="57.6" xlink:href="#m77322e4e49" y="79.709009"/>
      </g>
     </g>
     <g id="text_15">
      <!-- 0.00020 -->
      <g transform="translate(9.246875 83.508228)scale(0.1 -0.1)">
       <use xlink:href="#DejaVuSans-48"/>
       <use x="63.623047" xlink:href="#DejaVuSans-46"/>
       <use x="95.410156" xlink:href="#DejaVuSans-48"/>
       <use x="159.033203" xlink:href="#DejaVuSans-48"/>
       <use x="222.65625" xlink:href="#DejaVuSans-48"/>
       <use x="286.279297" xlink:href="#DejaVuSans-50"/>
       <use x="349.902344" xlink:href="#DejaVuSans-48"/>
      </g>
     </g>
    </g>
   </g>
   <g id="line2d_16">
    <path clip-path="url(#pbe7bc729c2)" d="M 73.832727 87.372161 
L 74.646398 210.52317 
L 75.460068 228.873453 
L 75.64363 346.6 
M 80.740705 346.6 
L 80.944464 -1 
M 148.038839 -1 
L 155.199781 42.938891 
L 155.422008 -1 
M 156.875072 -1 
L 157.263989 346.6 
M 157.961372 346.6 
L 158.292256 -1 
M 158.977881 -1 
L 159.268134 93.493187 
L 161.709146 93.493187 
L 161.855742 -1 
M 164.633814 -1 
L 164.963828 46.463827 
L 165.777498 46.463827 
L 165.853569 -1 
M 166.936558 -1 
L 167.197426 346.6 
M 167.750184 346.6 
L 168.184532 -1 
M 168.236187 -1 
L 168.462151 346.6 
M 169.55071 346.6 
L 169.75626 -1 
M 169.996391 -1 
L 170.341773 346.6 
M 172.523836 346.6 
L 172.728006 -1 
M 173.388355 -1 
L 173.546101 346.6 
M 175.87997 346.6 
L 176.204752 -1 
M 176.96419 -1 
L 177.168886 53.128935 
L 177.849559 346.6 
M 179.643133 346.6 
L 180.034759 -1 
M 181.675185 -1 
L 182.050909 30.797784 
L 182.734511 346.6 
M 182.968587 346.6 
L 183.570257 -1 
M 183.774659 -1 
L 184.311786 346.6 
M 185.524145 346.6 
L 186.119262 29.172413 
L 186.507086 -1 
M 186.970127 -1 
L 187.360365 346.6 
M 190.329775 346.6 
L 190.500475 -1 
M 195.258181 -1 
L 195.883308 299.571741 
L 196.593247 -1 
M 198.425572 -1 
L 199.13799 308.010171 
L 199.91891 -1 
M 199.962673 -1 
L 200.258046 346.6 
M 201.053246 346.6 
L 201.220888 -1 
M 201.992213 -1 
L 202.185647 346.6 
M 203.795755 346.6 
L 204.020014 185.704863 
L 204.412124 -1 
M 206.20366 -1 
L 206.461025 91.863115 
L 207.274696 91.863115 
L 207.538937 346.6 
M 209.330577 346.6 
L 209.611811 -1 
M 211.761397 -1 
L 211.913999 346.6 
M 213.724576 346.6 
L 213.989808 -1 
M 216.858543 -1 
L 217.038742 180.826648 
L 217.852413 180.826648 
L 218.080798 346.6 
M 219.071364 346.6 
L 219.40297 -1 
M 222.276098 -1 
L 222.580964 346.6 
M 224.014934 346.6 
L 224.361777 216.590725 
L 225.175448 289.765273 
L 225.29913 346.6 
M 226.240011 346.6 
L 226.515068 -1 
M 228.905669 -1 
L 229.15454 346.6 
M 232.748375 346.6 
L 232.877545 -1 
M 234.14724 -1 
L 234.375636 346.6 
M 238.092218 346.6 
L 238.194176 227.525592 
L 238.428998 346.6 
M 239.213992 346.6 
L 239.458116 -1 
M 240.191821 -1 
L 240.440581 346.6 
M 240.829717 346.6 
L 241.078376 -1 
M 241.849859 -1 
L 242.119002 346.6 
M 242.662325 346.6 
L 243.0762 154.705116 
L 243.270769 -1 
M 244.255481 -1 
L 244.511993 346.6 
M 244.930263 346.6 
L 245.233879 -1 
M 246.971535 -1 
L 247.144552 86.602632 
L 247.256392 -1 
M 248.291252 -1 
L 248.501828 346.6 
M 249.504923 346.6 
L 249.585564 297.556974 
L 249.702217 346.6 
M 251.647511 346.6 
L 252.026576 91.011972 
L 252.181796 346.6 
M 253.390279 346.6 
L 253.56662 -1 
M 253.781273 -1 
L 254.038536 346.6 
M 255.154415 346.6 
L 255.281258 239.539176 
L 255.442106 346.6 
M 257.553019 346.6 
L 257.722269 232.478334 
L 258.196551 -1 
M 260.4793 -1 
L 260.642756 346.6 
M 262.264897 346.6 
L 262.496867 -1 
M 263.237683 -1 
L 263.417963 44.81758 
L 264.231634 44.81758 
L 264.357415 -1 
M 266.513804 -1 
L 266.672645 146.689436 
L 267.486316 218.266666 
L 269.113657 218.266666 
L 269.263419 -1 
M 272.705699 -1 
L 273.167189 346.6 
M 275.635578 346.6 
L 276.026582 -1 
M 278.930802 -1 
L 279.319623 346.6 
M 280.11291 346.6 
L 280.505044 37.439215 
L 280.825846 -1 
M 282.195571 -1 
L 282.567471 346.6 
M 284.234595 346.6 
L 284.573397 94.141579 
L 285.292439 -1 
M 288.126973 -1 
L 288.319475 346.6 
M 290.612718 346.6 
L 290.817974 -1 
M 291.7056 -1 
L 291.896432 136.390632 
L 292.017 -1 
M 293.315454 -1 
L 293.523773 270.798168 
L 293.746933 346.6 
M 295.396733 346.6 
L 295.822382 -1 
M 297.490384 -1 
L 297.592126 15.619065 
L 298.405796 15.619065 
L 299.219467 271.461588 
L 299.594497 346.6 
M 302.109161 346.6 
L 302.83784 -1 
M 303.540749 -1 
L 303.917404 346.6 
M 304.287066 346.6 
L 304.666771 -1 
M 306.112407 -1 
L 306.61526 346.6 
M 307.980941 346.6 
L 308.169843 61.378693 
L 308.433084 346.6 
M 311.121631 346.6 
L 311.329401 -1 
M 315.958352 -1 
L 316.306548 110.812067 
L 317.120219 110.812067 
L 317.278009 -1 
M 318.418026 -1 
L 318.74756 315.347915 
L 319.342081 -1 
M 327.360637 -1 
L 327.697936 144.414131 
L 328.511606 144.414131 
L 329.272292 346.6 
M 329.490995 346.6 
L 330.138947 291.53559 
L 330.303246 346.6 
M 332.020382 346.6 
L 332.42621 -1 
M 332.690987 -1 
L 332.98405 346.6 
M 333.923652 346.6 
L 334.267957 -1 
M 335.726103 -1 
L 335.834641 166.430489 
L 336.648312 276.690741 
L 336.901612 -1 
M 339.359865 -1 
L 339.643016 346.6 
M 340.287563 346.6 
L 340.706411 -1 
M 343.182449 -1 
L 343.971347 269.966909 
L 344.193357 -1 
M 345.180133 -1 
L 345.370324 346.6 
M 346.635408 346.6 
L 346.821173 -1 
M 347.9259 -1 
L 348.039699 122.178708 
L 348.85337 122.178708 
L 349.273566 346.6 
M 350.646035 346.6 
L 350.91949 -1 
M 351.648224 -1 
L 351.906325 346.6 
M 352.995594 346.6 
L 353.595671 -1 
M 355.109522 -1 
L 355.362734 302.586249 
L 356.990075 302.586249 
L 357.238647 346.6 
M 359.514963 346.6 
L 360.281644 -1 
M 362.951038 -1 
L 363.169231 346.6 
M 364.593053 346.6 
L 365.126781 18.640298 
L 365.322638 -1 
M 367.716177 -1 
L 367.996115 346.6 
M 372.010111 346.6 
L 372.425404 -1 
M 378.421751 -1 
L 378.756506 346.6 
M 380.135984 346.6 
L 380.586521 85.496346 
L 381.400191 284.706159 
L 383.027532 284.706159 
L 383.080502 346.6 
M 384.574564 346.6 
L 384.654874 249.260855 
L 384.78482 346.6 
M 385.932103 346.6 
L 386.246721 -1 
M 386.298713 -1 
L 386.444958 346.6 
M 301.186355 346.6 
L 197.563449 -1 
M 94.791043 -1 
L 94.988161 77.637832 
L 95.196256 -1 
M 96.834069 -1 
L 97.16606 346.6 
M 98.353948 346.6 
L 98.815544 -1 
M 99.367643 -1 
L 99.870185 292.097501 
L 100.605266 346.6 
M 100.699654 346.6 
L 101.600665 -1 
M 102.865332 -1 
L 103.124867 171.090691 
L 103.534136 -1 
M 104.01112 -1 
L 104.159492 346.6 
M 106.49663 346.6 
L 107.193219 99.961634 
L 108.00689 319.390107 
L 108.82056 319.390107 
L 109.093207 -1 
M 110.222296 -1 
L 110.447902 242.905411 
L 111.261572 222.465432 
L 111.42353 -1 
M 112.612561 -1 
L 112.820266 346.6 
M 114.675455 346.6 
L 114.864708 -1 
M 115.919439 -1 
L 116.188274 346.6 
M 117.366856 346.6 
L 117.731216 -1 
M 117.942262 -1 
L 118.584607 141.073177 
L 119.123871 -1 
M 119.473314 -1 
L 119.834096 346.6 
M 121.457959 346.6 
L 121.83348 -1 
M 121.85304 -1 
L 122.65296 311.80837 
L 123.080005 -1 
M 123.816003 -1 
L 124.244822 346.6 
M 125.477309 346.6 
L 125.696796 -1 
M 126.614147 -1 
L 126.721312 49.649573 
L 126.895845 -1 
M 128.806583 -1 
L 129.10966 346.6 
M 129.250779 346.6 
L 129.759834 -1 
M 130.1767 -1 
L 130.649358 346.6 
M 131.546223 346.6 
L 131.603336 338.810585 
L 132.417006 338.810585 
L 133.230677 172.885175 
L 133.67399 -1 
M 134.968439 -1 
L 135.175474 346.6 
M 136.066141 346.6 
L 136.230718 -1 
M 136.980996 -1 
L 137.307841 346.6 
M 138.847049 346.6 
L 138.92637 321.951211 
L 138.951079 346.6 
M 140.251283 346.6 
L 140.477072 -1 
M 140.706933 -1 
L 141.158339 346.6 
M 141.761883 346.6 
L 142.181053 175.563432 
L 142.994723 175.563432 
L 143.242781 346.6 
M 151.325118 346.6 
L 151.596723 -1 
M 152.439698 -1 
L 152.75877 286.624159 
L 153.57244 82.014912 
L 154.386111 82.014912 
L 154.386111 82.014912 
" style="fill:none;stroke:#1f77b4;stroke-linecap:square;stroke-width:1.5;"/>
   </g>
   <g id="line2d_17">
    <path clip-path="url(#pbe7bc729c2)" d="M 74.612217 -1 
L 74.723039 346.6 
M 75.608497 346.6 
L 75.845472 -1 
M 78.410882 -1 
L 78.699194 346.6 
M 78.741418 346.6 
L 79.235629 -1 
M 80.811838 -1 
L 81.155762 332.565534 
L 89.292468 332.565534 
L 149.103264 -1 
M 156.254656 -1 
L 156.827122 109.815609 
L 157.032307 -1 
M 158.821993 -1 
L 159.268134 306.249952 
L 161.709146 306.249952 
L 161.976307 -1 
M 164.012934 -1 
L 164.150157 126.499402 
L 164.953894 -1 
M 165.779243 -1 
L 166.164134 346.6 
M 167.124099 346.6 
L 167.404839 143.439706 
L 167.70885 346.6 
M 171.25134 346.6 
L 171.473192 231.687516 
L 171.680472 -1 
M 173.662601 -1 
L 173.914204 78.608263 
L 174.727874 81.173254 
L 175.541545 81.173254 
L 176.355215 181.599262 
L 177.168886 154.273794 
L 177.351693 346.6 
M 180.914697 346.6 
L 181.192233 -1 
M 181.328032 -1 
L 181.887934 346.6 
M 185.54698 346.6 
L 186.118655 -1 
M 186.119598 -1 
L 186.436547 346.6 
M 187.340168 346.6 
L 187.600193 -1 
M 188.703637 -1 
L 188.958254 346.6 
M 189.804259 346.6 
L 190.067833 -1 
M 190.298403 -1 
L 190.542189 346.6 
M 191.584962 346.6 
L 191.814956 88.661048 
L 192.244928 -1 
M 193.690134 -1 
L 193.990933 346.6 
M 194.738268 346.6 
L 195.069638 136.174055 
L 195.883308 345.450529 
L 196.696979 266.024584 
L 198.32432 266.024584 
L 198.613092 -1 
M 199.71625 -1 
L 199.951661 196.593954 
L 200.765332 114.742551 
L 200.939869 -1 
M 202.241452 -1 
L 202.392673 95.751007 
L 202.682302 -1 
M 209.808839 -1 
L 210.529378 301.519651 
L 210.795213 -1 
M 212.110606 -1 
L 212.156719 36.454744 
L 213.139086 346.6 
M 213.986058 346.6 
L 214.420156 -1 
M 215.670308 -1 
L 216.225072 303.675934 
L 217.038742 207.125619 
L 217.852413 207.125619 
L 218.248141 346.6 
M 218.949212 346.6 
L 219.479754 70.573885 
L 219.987441 346.6 
M 220.833726 346.6 
L 221.107095 262.428742 
L 221.227051 346.6 
M 222.338031 346.6 
L 222.635998 -1 
M 223.981882 -1 
L 224.361777 99.570974 
L 225.096124 -1 
M 226.549213 -1 
L 226.757778 346.6 
M 227.040118 346.6 
L 227.616459 164.428685 
L 228.43013 164.428685 
L 228.717546 346.6 
M 232.104838 346.6 
L 232.498483 33.99719 
L 233.312153 42.430449 
L 233.381716 -1 
M 236.028652 -1 
L 236.566835 280.109132 
L 237.010698 -1 
M 237.717439 -1 
L 238.234432 346.6 
M 240.444153 346.6 
L 240.583216 -1 
M 240.760886 -1 
L 241.097223 346.6 
M 243.026928 346.6 
L 243.0762 316.060477 
L 243.88987 272.868195 
L 244.703541 315.091198 
L 244.810412 346.6 
M 248.943681 346.6 
L 249.080532 -1 
M 250.098397 -1 
L 250.237362 346.6 
M 252.851501 346.6 
L 253.558262 -1 
M 255.531118 -1 
L 255.685958 346.6 
M 259.882353 346.6 
L 260.101781 -1 
M 260.227671 -1 
L 260.457412 346.6 
M 262.23919 346.6 
L 262.437547 -1 
M 262.952744 -1 
L 263.367255 346.6 
M 266.505973 346.6 
L 266.672645 262.992321 
L 267.486316 313.487138 
L 269.113657 313.487138 
L 269.144405 346.6 
M 272.18969 346.6 
L 272.447654 -1 
M 276.177325 -1 
L 276.365817 346.6 
M 279.109714 346.6 
L 279.52889 -1 
M 280.282492 -1 
L 280.505044 49.728367 
L 280.872277 346.6 
M 282.458509 346.6 
L 282.772613 -1 
M 284.144649 -1 
L 284.573397 212.792358 
L 285.387068 202.247604 
L 285.630504 346.6 
M 287.353943 346.6 
L 287.58355 -1 
M 290.381485 -1 
L 290.911891 346.6 
M 291.220534 346.6 
L 291.648201 -1 
M 292.847673 -1 
L 293.291458 346.6 
M 293.764139 346.6 
L 294.223304 -1 
M 295.325555 -1 
L 295.964785 315.635837 
L 296.778455 315.635837 
L 297.592126 63.028568 
L 298.405796 63.028568 
L 299.219467 297.953797 
L 300.033137 198.118072 
L 300.310947 346.6 
M 301.152524 346.6 
L 301.523562 -1 
M 301.943695 -1 
L 302.474149 239.239828 
L 303.030354 -1 
M 304.196608 -1 
L 304.915161 332.063495 
L 305.728831 332.063495 
L 306.234132 -1 
M 308.423219 -1 
L 308.813793 346.6 
M 310.416124 346.6 
L 310.792021 -1 
M 317.74253 -1 
L 317.933889 151.335155 
L 318.242328 -1 
M 318.908447 -1 
L 319.132567 346.6 
M 320.893167 346.6 
L 321.164134 -1 
M 327.123776 -1 
L 327.295528 346.6 
M 329.431432 346.6 
L 329.959103 -1 
M 330.757958 -1 
L 330.952618 36.255519 
L 331.766288 36.255519 
L 332.579959 303.836622 
L 333.39363 169.359976 
L 333.730015 346.6 
M 334.494426 346.6 
L 334.891298 -1 
M 335.938018 -1 
L 336.261367 346.6 
M 336.932505 346.6 
L 337.169991 -1 
M 338.930155 -1 
L 339.089323 102.934581 
L 339.303252 346.6 
M 340.60077 346.6 
L 340.716664 233.142144 
L 343.157676 233.142144 
L 343.523935 346.6 
M 347.48117 346.6 
L 347.850923 -1 
M 349.005461 -1 
L 349.303361 346.6 
M 350.814935 346.6 
L 351.088707 -1 
M 351.472204 -1 
L 351.708902 346.6 
M 352.425723 346.6 
L 352.614103 -1 
M 353.454544 -1 
L 353.782433 346.6 
M 355.345752 346.6 
L 355.362734 329.783011 
L 356.990075 329.783011 
L 357.019224 346.6 
M 359.566551 346.6 
L 359.900457 -1 
M 360.770612 -1 
L 361.385284 346.6 
M 363.162005 346.6 
L 363.49944 188.647093 
L 363.848628 346.6 
M 365.789595 346.6 
L 365.940451 296.22653 
L 366.524393 346.6 
M 370.372736 346.6 
L 370.69447 -1 
M 370.934716 -1 
L 371.216831 346.6 
M 371.989205 346.6 
L 372.226744 -1 
M 372.657776 -1 
L 372.879225 346.6 
M 383.219643 346.6 
L 383.572415 -1 
M 385.1284 -1 
L 385.468544 187.063667 
L 386.282215 78.17103 
L 386.458045 -1 
M 388.881764 -1 
L 389.073643 346.6 
M 389.899056 346.6 
L 390.049062 -1 
M 391.438802 -1 
L 391.763851 346.6 
M 393.004317 346.6 
L 393.327362 -1 
M 395.759518 -1 
L 396.046261 161.715719 
L 396.143265 346.6 
M 397.534184 346.6 
L 397.673602 64.159904 
L 398.487273 64.159904 
L 90.106138 332.565534 
L 91.733479 332.565534 
L 92.322774 -1 
M 95.59009 -1 
L 95.768464 346.6 
M 96.67352 346.6 
L 96.98366 -1 
M 98.057962 -1 
L 98.242843 145.815574 
L 98.722626 -1 
M 99.187931 -1 
L 99.635029 346.6 
M 100.764161 346.6 
L 101.049385 -1 
M 101.858794 -1 
L 102.088728 346.6 
M 103.691377 346.6 
L 103.938537 90.40911 
L 104.165114 -1 
M 105.091993 -1 
L 105.593513 346.6 
M 106.693346 346.6 
L 106.915423 -1 
M 107.473764 -1 
L 107.698039 346.6 
M 113.990155 346.6 
L 115.329925 82.430915 
L 115.540912 -1 
M 116.313322 -1 
L 116.560876 346.6 
M 117.475971 346.6 
L 117.811258 -1 
M 119.508026 -1 
L 120.276949 346.6 
M 121.401225 346.6 
L 121.766351 -1 
M 123.043377 -1 
L 123.208246 346.6 
M 124.155623 346.6 
L 124.280301 248.022436 
L 125.093971 281.421387 
L 125.29627 346.6 
M 127.011075 346.6 
L 127.534983 111.603952 
L 127.789273 346.6 
M 129.058371 346.6 
L 129.162324 270.88324 
L 129.708933 -1 
M 130.462707 -1 
L 130.789665 88.235161 
L 131.170198 346.6 
M 132.697722 346.6 
L 133.029525 -1 
M 135.267644 -1 
L 135.671688 188.413434 
L 135.808876 -1 
M 136.773868 -1 
L 136.881238 346.6 
M 138.074572 346.6 
L 138.1127 280.104088 
L 138.161623 346.6 
M 139.660109 346.6 
L 139.740041 233.365485 
L 140.553712 231.765281 
L 141.367382 314.68517 
L 141.419459 346.6 
M 145.333648 346.6 
L 145.435735 221.451208 
L 147.063076 221.451208 
L 147.876746 260.530265 
L 148.690417 277.674857 
L 149.504087 277.674857 
L 150.032302 -1 
M 152.970908 -1 
L 153.236138 346.6 
L 153.236138 346.6 
" style="fill:none;stroke:#ff7f0e;stroke-linecap:square;stroke-width:1.5;"/>
   </g>
   <g id="patch_3">
    <path d="M 57.6 307.584 
L 57.6 41.472 
" style="fill:none;stroke:#000000;stroke-linecap:square;stroke-linejoin:miter;stroke-width:0.8;"/>
   </g>
   <g id="patch_4">
    <path d="M 414.72 307.584 
L 414.72 41.472 
" style="fill:none;stroke:#000000;stroke-linecap:square;stroke-linejoin:miter;stroke-width:0.8;"/>
   </g>
   <g id="patch_5">
    <path d="M 57.6 307.584 
L 414.72 307.584 
" style="fill:none;stroke:#000000;stroke-linecap:square;stroke-linejoin:miter;stroke-width:0.8;"/>
   </g>
   <g id="patch_6">
    <path d="M 57.6 41.472 
L 414.72 41.472 
" style="fill:none;stroke:#000000;stroke-linecap:square;stroke-linejoin:miter;stroke-width:0.8;"/>
   </g>
   <g id="text_16">
    <!-- Polyakov loop 2 direction -->
    <defs>
     <path d="M 19.671875 64.796875 
L 19.671875 37.40625 
L 32.078125 37.40625 
Q 38.96875 37.40625 42.71875 40.96875 
Q 46.484375 44.53125 46.484375 51.125 
Q 46.484375 57.671875 42.71875 61.234375 
Q 38.96875 64.796875 32.078125 64.796875 
z
M 9.8125 72.90625 
L 32.078125 72.90625 
Q 44.34375 72.90625 50.609375 67.359375 
Q 56.890625 61.8125 56.890625 51.125 
Q 56.890625 40.328125 50.609375 34.8125 
Q 44.34375 29.296875 32.078125 29.296875 
L 19.671875 29.296875 
L 19.671875 0 
L 9.8125 0 
z
" id="DejaVuSans-80"/>
     <path d="M 30.609375 48.390625 
Q 23.390625 48.390625 19.1875 42.75 
Q 14.984375 37.109375 14.984375 27.296875 
Q 14.984375 17.484375 19.15625 11.84375 
Q 23.34375 6.203125 30.609375 6.203125 
Q 37.796875 6.203125 41.984375 11.859375 
Q 46.1875 17.53125 46.1875 27.296875 
Q 46.1875 37.015625 41.984375 42.703125 
Q 37.796875 48.390625 30.609375 48.390625 
z
M 30.609375 56 
Q 42.328125 56 49.015625 48.375 
Q 55.71875 40.765625 55.71875 27.296875 
Q 55.71875 13.875 49.015625 6.21875 
Q 42.328125 -1.421875 30.609375 -1.421875 
Q 18.84375 -1.421875 12.171875 6.21875 
Q 5.515625 13.875 5.515625 27.296875 
Q 5.515625 40.765625 12.171875 48.375 
Q 18.84375 56 30.609375 56 
z
" id="DejaVuSans-111"/>
     <path d="M 9.421875 75.984375 
L 18.40625 75.984375 
L 18.40625 0 
L 9.421875 0 
z
" id="DejaVuSans-108"/>
     <path d="M 32.171875 -5.078125 
Q 28.375 -14.84375 24.75 -17.8125 
Q 21.140625 -20.796875 15.09375 -20.796875 
L 7.90625 -20.796875 
L 7.90625 -13.28125 
L 13.1875 -13.28125 
Q 16.890625 -13.28125 18.9375 -11.515625 
Q 21 -9.765625 23.484375 -3.21875 
L 25.09375 0.875 
L 2.984375 54.6875 
L 12.5 54.6875 
L 29.59375 11.921875 
L 46.6875 54.6875 
L 56.203125 54.6875 
z
" id="DejaVuSans-121"/>
     <path d="M 34.28125 27.484375 
Q 23.390625 27.484375 19.1875 25 
Q 14.984375 22.515625 14.984375 16.5 
Q 14.984375 11.71875 18.140625 8.90625 
Q 21.296875 6.109375 26.703125 6.109375 
Q 34.1875 6.109375 38.703125 11.40625 
Q 43.21875 16.703125 43.21875 25.484375 
L 43.21875 27.484375 
z
M 52.203125 31.203125 
L 52.203125 0 
L 43.21875 0 
L 43.21875 8.296875 
Q 40.140625 3.328125 35.546875 0.953125 
Q 30.953125 -1.421875 24.3125 -1.421875 
Q 15.921875 -1.421875 10.953125 3.296875 
Q 6 8.015625 6 15.921875 
Q 6 25.140625 12.171875 29.828125 
Q 18.359375 34.515625 30.609375 34.515625 
L 43.21875 34.515625 
L 43.21875 35.40625 
Q 43.21875 41.609375 39.140625 45 
Q 35.0625 48.390625 27.6875 48.390625 
Q 23 48.390625 18.546875 47.265625 
Q 14.109375 46.140625 10.015625 43.890625 
L 10.015625 52.203125 
Q 14.9375 54.109375 19.578125 55.046875 
Q 24.21875 56 28.609375 56 
Q 40.484375 56 46.34375 49.84375 
Q 52.203125 43.703125 52.203125 31.203125 
z
" id="DejaVuSans-97"/>
     <path d="M 9.078125 75.984375 
L 18.109375 75.984375 
L 18.109375 31.109375 
L 44.921875 54.6875 
L 56.390625 54.6875 
L 27.390625 29.109375 
L 57.625 0 
L 45.90625 0 
L 18.109375 26.703125 
L 18.109375 0 
L 9.078125 0 
z
" id="DejaVuSans-107"/>
     <path d="M 2.984375 54.6875 
L 12.5 54.6875 
L 29.59375 8.796875 
L 46.6875 54.6875 
L 56.203125 54.6875 
L 35.6875 0 
L 23.484375 0 
z
" id="DejaVuSans-118"/>
     <path id="DejaVuSans-32"/>
     <path d="M 18.109375 8.203125 
L 18.109375 -20.796875 
L 9.078125 -20.796875 
L 9.078125 54.6875 
L 18.109375 54.6875 
L 18.109375 46.390625 
Q 20.953125 51.265625 25.265625 53.625 
Q 29.59375 56 35.59375 56 
Q 45.5625 56 51.78125 48.09375 
Q 58.015625 40.1875 58.015625 27.296875 
Q 58.015625 14.40625 51.78125 6.484375 
Q 45.5625 -1.421875 35.59375 -1.421875 
Q 29.59375 -1.421875 25.265625 0.953125 
Q 20.953125 3.328125 18.109375 8.203125 
z
M 48.6875 27.296875 
Q 48.6875 37.203125 44.609375 42.84375 
Q 40.53125 48.484375 33.40625 48.484375 
Q 26.265625 48.484375 22.1875 42.84375 
Q 18.109375 37.203125 18.109375 27.296875 
Q 18.109375 17.390625 22.1875 11.75 
Q 26.265625 6.109375 33.40625 6.109375 
Q 40.53125 6.109375 44.609375 11.75 
Q 48.6875 17.390625 48.6875 27.296875 
z
" id="DejaVuSans-112"/>
     <path d="M 45.40625 46.390625 
L 45.40625 75.984375 
L 54.390625 75.984375 
L 54.390625 0 
L 45.40625 0 
L 45.40625 8.203125 
Q 42.578125 3.328125 38.25 0.953125 
Q 33.9375 -1.421875 27.875 -1.421875 
Q 17.96875 -1.421875 11.734375 6.484375 
Q 5.515625 14.40625 5.515625 27.296875 
Q 5.515625 40.1875 11.734375 48.09375 
Q 17.96875 56 27.875 56 
Q 33.9375 56 38.25 53.625 
Q 42.578125 51.265625 45.40625 46.390625 
z
M 14.796875 27.296875 
Q 14.796875 17.390625 18.875 11.75 
Q 22.953125 6.109375 30.078125 6.109375 
Q 37.203125 6.109375 41.296875 11.75 
Q 45.40625 17.390625 45.40625 27.296875 
Q 45.40625 37.203125 41.296875 42.84375 
Q 37.203125 48.484375 30.078125 48.484375 
Q 22.953125 48.484375 18.875 42.84375 
Q 14.796875 37.203125 14.796875 27.296875 
z
" id="DejaVuSans-100"/>
     <path d="M 9.421875 54.6875 
L 18.40625 54.6875 
L 18.40625 0 
L 9.421875 0 
z
M 9.421875 75.984375 
L 18.40625 75.984375 
L 18.40625 64.59375 
L 9.421875 64.59375 
z
" id="DejaVuSans-105"/>
     <path d="M 41.109375 46.296875 
Q 39.59375 47.171875 37.8125 47.578125 
Q 36.03125 48 33.890625 48 
Q 26.265625 48 22.1875 43.046875 
Q 18.109375 38.09375 18.109375 28.8125 
L 18.109375 0 
L 9.078125 0 
L 9.078125 54.6875 
L 18.109375 54.6875 
L 18.109375 46.1875 
Q 20.953125 51.171875 25.484375 53.578125 
Q 30.03125 56 36.53125 56 
Q 37.453125 56 38.578125 55.875 
Q 39.703125 55.765625 41.0625 55.515625 
z
" id="DejaVuSans-114"/>
     <path d="M 56.203125 29.59375 
L 56.203125 25.203125 
L 14.890625 25.203125 
Q 15.484375 15.921875 20.484375 11.0625 
Q 25.484375 6.203125 34.421875 6.203125 
Q 39.59375 6.203125 44.453125 7.46875 
Q 49.3125 8.734375 54.109375 11.28125 
L 54.109375 2.78125 
Q 49.265625 0.734375 44.1875 -0.34375 
Q 39.109375 -1.421875 33.890625 -1.421875 
Q 20.796875 -1.421875 13.15625 6.1875 
Q 5.515625 13.8125 5.515625 26.8125 
Q 5.515625 40.234375 12.765625 48.109375 
Q 20.015625 56 32.328125 56 
Q 43.359375 56 49.78125 48.890625 
Q 56.203125 41.796875 56.203125 29.59375 
z
M 47.21875 32.234375 
Q 47.125 39.59375 43.09375 43.984375 
Q 39.0625 48.390625 32.421875 48.390625 
Q 24.90625 48.390625 20.390625 44.140625 
Q 15.875 39.890625 15.1875 32.171875 
z
" id="DejaVuSans-101"/>
     <path d="M 48.78125 52.59375 
L 48.78125 44.1875 
Q 44.96875 46.296875 41.140625 47.34375 
Q 37.3125 48.390625 33.40625 48.390625 
Q 24.65625 48.390625 19.8125 42.84375 
Q 14.984375 37.3125 14.984375 27.296875 
Q 14.984375 17.28125 19.8125 11.734375 
Q 24.65625 6.203125 33.40625 6.203125 
Q 37.3125 6.203125 41.140625 7.25 
Q 44.96875 8.296875 48.78125 10.40625 
L 48.78125 2.09375 
Q 45.015625 0.34375 40.984375 -0.53125 
Q 36.96875 -1.421875 32.421875 -1.421875 
Q 20.0625 -1.421875 12.78125 6.34375 
Q 5.515625 14.109375 5.515625 27.296875 
Q 5.515625 40.671875 12.859375 48.328125 
Q 20.21875 56 33.015625 56 
Q 37.15625 56 41.109375 55.140625 
Q 45.0625 54.296875 48.78125 52.59375 
z
" id="DejaVuSans-99"/>
     <path d="M 18.3125 70.21875 
L 18.3125 54.6875 
L 36.8125 54.6875 
L 36.8125 47.703125 
L 18.3125 47.703125 
L 18.3125 18.015625 
Q 18.3125 11.328125 20.140625 9.421875 
Q 21.96875 7.515625 27.59375 7.515625 
L 36.8125 7.515625 
L 36.8125 0 
L 27.59375 0 
Q 17.1875 0 13.234375 3.875 
Q 9.28125 7.765625 9.28125 18.015625 
L 9.28125 47.703125 
L 2.6875 47.703125 
L 2.6875 54.6875 
L 9.28125 54.6875 
L 9.28125 70.21875 
z
" id="DejaVuSans-116"/>
     <path d="M 54.890625 33.015625 
L 54.890625 0 
L 45.90625 0 
L 45.90625 32.71875 
Q 45.90625 40.484375 42.875 44.328125 
Q 39.84375 48.1875 33.796875 48.1875 
Q 26.515625 48.1875 22.3125 43.546875 
Q 18.109375 38.921875 18.109375 30.90625 
L 18.109375 0 
L 9.078125 0 
L 9.078125 54.6875 
L 18.109375 54.6875 
L 18.109375 46.1875 
Q 21.34375 51.125 25.703125 53.5625 
Q 30.078125 56 35.796875 56 
Q 45.21875 56 50.046875 50.171875 
Q 54.890625 44.34375 54.890625 33.015625 
z
" id="DejaVuSans-110"/>
    </defs>
    <g transform="translate(161.06625 35.472)scale(0.12 -0.12)">
     <use xlink:href="#DejaVuSans-80"/>
     <use x="56.677734" xlink:href="#DejaVuSans-111"/>
     <use x="117.859375" xlink:href="#DejaVuSans-108"/>
     <use x="145.642578" xlink:href="#DejaVuSans-121"/>
     <use x="204.822266" xlink:href="#DejaVuSans-97"/>
     <use x="266.101562" xlink:href="#DejaVuSans-107"/>
     <use x="320.386719" xlink:href="#DejaVuSans-111"/>
     <use x="381.568359" xlink:href="#DejaVuSans-118"/>
     <use x="440.748047" xlink:href="#DejaVuSans-32"/>
     <use x="472.535156" xlink:href="#DejaVuSans-108"/>
     <use x="500.318359" xlink:href="#DejaVuSans-111"/>
     <use x="561.5" xlink:href="#DejaVuSans-111"/>
     <use x="622.681641" xlink:href="#DejaVuSans-112"/>
     <use x="686.158203" xlink:href="#DejaVuSans-32"/>
     <use x="717.945312" xlink:href="#DejaVuSans-50"/>
     <use x="781.568359" xlink:href="#DejaVuSans-32"/>
     <use x="813.355469" xlink:href="#DejaVuSans-100"/>
     <use x="876.832031" xlink:href="#DejaVuSans-105"/>
     <use x="904.615234" xlink:href="#DejaVuSans-114"/>
     <use x="943.478516" xlink:href="#DejaVuSans-101"/>
     <use x="1005.001953" xlink:href="#DejaVuSans-99"/>
     <use x="1059.982422" xlink:href="#DejaVuSans-116"/>
     <use x="1099.191406" xlink:href="#DejaVuSans-105"/>
     <use x="1126.974609" xlink:href="#DejaVuSans-111"/>
     <use x="1188.15625" xlink:href="#DejaVuSans-110"/>
    </g>
   </g>
   <g id="legend_1">
    <g id="patch_7">
     <path d="M 64.6 78.82825 
L 210.540625 78.82825 
Q 212.540625 78.82825 212.540625 76.82825 
L 212.540625 48.472 
Q 212.540625 46.472 210.540625 46.472 
L 64.6 46.472 
Q 62.6 46.472 62.6 48.472 
L 62.6 76.82825 
Q 62.6 78.82825 64.6 78.82825 
z
" style="fill:#ffffff;opacity:0.8;stroke:#cccccc;stroke-linejoin:miter;"/>
    </g>
    <g id="line2d_18">
     <path d="M 66.6 54.570437 
L 86.6 54.570437 
" style="fill:none;stroke:#1f77b4;stroke-linecap:square;stroke-width:1.5;"/>
    </g>
    <g id="line2d_19"/>
    <g id="text_17">
     <!-- real0.0001+/-0.0000 -->
     <defs>
      <path d="M 46 62.703125 
L 46 35.5 
L 73.1875 35.5 
L 73.1875 27.203125 
L 46 27.203125 
L 46 0 
L 37.796875 0 
L 37.796875 27.203125 
L 10.59375 27.203125 
L 10.59375 35.5 
L 37.796875 35.5 
L 37.796875 62.703125 
z
" id="DejaVuSans-43"/>
      <path d="M 25.390625 72.90625 
L 33.6875 72.90625 
L 8.296875 -9.28125 
L 0 -9.28125 
z
" id="DejaVuSans-47"/>
      <path d="M 4.890625 31.390625 
L 31.203125 31.390625 
L 31.203125 23.390625 
L 4.890625 23.390625 
z
" id="DejaVuSans-45"/>
     </defs>
     <g transform="translate(94.6 58.070437)scale(0.1 -0.1)">
      <use xlink:href="#DejaVuSans-114"/>
      <use x="38.863281" xlink:href="#DejaVuSans-101"/>
      <use x="100.386719" xlink:href="#DejaVuSans-97"/>
      <use x="161.666016" xlink:href="#DejaVuSans-108"/>
      <use x="189.449219" xlink:href="#DejaVuSans-48"/>
      <use x="253.072266" xlink:href="#DejaVuSans-46"/>
      <use x="284.859375" xlink:href="#DejaVuSans-48"/>
      <use x="348.482422" xlink:href="#DejaVuSans-48"/>
      <use x="412.105469" xlink:href="#DejaVuSans-48"/>
      <use x="475.728516" xlink:href="#DejaVuSans-49"/>
      <use x="539.351562" xlink:href="#DejaVuSans-43"/>
      <use x="623.140625" xlink:href="#DejaVuSans-47"/>
      <use x="656.832031" xlink:href="#DejaVuSans-45"/>
      <use x="692.916016" xlink:href="#DejaVuSans-48"/>
      <use x="756.539062" xlink:href="#DejaVuSans-46"/>
      <use x="788.326172" xlink:href="#DejaVuSans-48"/>
      <use x="851.949219" xlink:href="#DejaVuSans-48"/>
      <use x="915.572266" xlink:href="#DejaVuSans-48"/>
      <use x="979.195312" xlink:href="#DejaVuSans-48"/>
     </g>
    </g>
    <g id="line2d_20">
     <path d="M 66.6 69.248562 
L 86.6 69.248562 
" style="fill:none;stroke:#ff7f0e;stroke-linecap:square;stroke-width:1.5;"/>
    </g>
    <g id="line2d_21"/>
    <g id="text_18">
     <!-- imag-0.0000+/-0.0000 -->
     <defs>
      <path d="M 52 44.1875 
Q 55.375 50.25 60.0625 53.125 
Q 64.75 56 71.09375 56 
Q 79.640625 56 84.28125 50.015625 
Q 88.921875 44.046875 88.921875 33.015625 
L 88.921875 0 
L 79.890625 0 
L 79.890625 32.71875 
Q 79.890625 40.578125 77.09375 44.375 
Q 74.3125 48.1875 68.609375 48.1875 
Q 61.625 48.1875 57.5625 43.546875 
Q 53.515625 38.921875 53.515625 30.90625 
L 53.515625 0 
L 44.484375 0 
L 44.484375 32.71875 
Q 44.484375 40.625 41.703125 44.40625 
Q 38.921875 48.1875 33.109375 48.1875 
Q 26.21875 48.1875 22.15625 43.53125 
Q 18.109375 38.875 18.109375 30.90625 
L 18.109375 0 
L 9.078125 0 
L 9.078125 54.6875 
L 18.109375 54.6875 
L 18.109375 46.1875 
Q 21.1875 51.21875 25.484375 53.609375 
Q 29.78125 56 35.6875 56 
Q 41.65625 56 45.828125 52.96875 
Q 50 49.953125 52 44.1875 
z
" id="DejaVuSans-109"/>
      <path d="M 45.40625 27.984375 
Q 45.40625 37.75 41.375 43.109375 
Q 37.359375 48.484375 30.078125 48.484375 
Q 22.859375 48.484375 18.828125 43.109375 
Q 14.796875 37.75 14.796875 27.984375 
Q 14.796875 18.265625 18.828125 12.890625 
Q 22.859375 7.515625 30.078125 7.515625 
Q 37.359375 7.515625 41.375 12.890625 
Q 45.40625 18.265625 45.40625 27.984375 
z
M 54.390625 6.78125 
Q 54.390625 -7.171875 48.1875 -13.984375 
Q 42 -20.796875 29.203125 -20.796875 
Q 24.46875 -20.796875 20.265625 -20.09375 
Q 16.0625 -19.390625 12.109375 -17.921875 
L 12.109375 -9.1875 
Q 16.0625 -11.328125 19.921875 -12.34375 
Q 23.78125 -13.375 27.78125 -13.375 
Q 36.625 -13.375 41.015625 -8.765625 
Q 45.40625 -4.15625 45.40625 5.171875 
L 45.40625 9.625 
Q 42.625 4.78125 38.28125 2.390625 
Q 33.9375 0 27.875 0 
Q 17.828125 0 11.671875 7.65625 
Q 5.515625 15.328125 5.515625 27.984375 
Q 5.515625 40.671875 11.671875 48.328125 
Q 17.828125 56 27.875 56 
Q 33.9375 56 38.28125 53.609375 
Q 42.625 51.21875 45.40625 46.390625 
L 45.40625 54.6875 
L 54.390625 54.6875 
z
" id="DejaVuSans-103"/>
     </defs>
     <g transform="translate(94.6 72.748562)scale(0.1 -0.1)">
      <use xlink:href="#DejaVuSans-105"/>
      <use x="27.783203" xlink:href="#DejaVuSans-109"/>
      <use x="125.195312" xlink:href="#DejaVuSans-97"/>
      <use x="186.474609" xlink:href="#DejaVuSans-103"/>
      <use x="249.951172" xlink:href="#DejaVuSans-45"/>
      <use x="286.035156" xlink:href="#DejaVuSans-48"/>
      <use x="349.658203" xlink:href="#DejaVuSans-46"/>
      <use x="381.445312" xlink:href="#DejaVuSans-48"/>
      <use x="445.068359" xlink:href="#DejaVuSans-48"/>
      <use x="508.691406" xlink:href="#DejaVuSans-48"/>
      <use x="572.314453" xlink:href="#DejaVuSans-48"/>
      <use x="635.9375" xlink:href="#DejaVuSans-43"/>
      <use x="719.726562" xlink:href="#DejaVuSans-47"/>
      <use x="753.417969" xlink:href="#DejaVuSans-45"/>
      <use x="789.501953" xlink:href="#DejaVuSans-48"/>
      <use x="853.125" xlink:href="#DejaVuSans-46"/>
      <use x="884.912109" xlink:href="#DejaVuSans-48"/>
      <use x="948.535156" xlink:href="#DejaVuSans-48"/>
      <use x="1012.158203" xlink:href="#DejaVuSans-48"/>
      <use x="1075.78125" xlink:href="#DejaVuSans-48"/>
     </g>
    </g>
   </g>
  </g>
 </g>
 <defs>
  <clipPath id="pbe7bc729c2">
   <rect height="266.112" width="357.12" x="57.6" y="41.472"/>
  </clipPath>
 </defs>
</svg>
