<?xml version="1.0" encoding="utf-8" standalone="no"?>
<!DOCTYPE svg PUBLIC "-//W3C//DTD SVG 1.1//EN"
  "http://www.w3.org/Graphics/SVG/1.1/DTD/svg11.dtd">
<!-- Created with matplotlib (https://matplotlib.org/) -->
<svg height="345.6pt" version="1.1" viewBox="0 0 460.8 345.6" width="460.8pt" xmlns="http://www.w3.org/2000/svg" xmlns:xlink="http://www.w3.org/1999/xlink">
 <defs>
  <style type="text/css">
*{stroke-linecap:butt;stroke-linejoin:round;}
  </style>
 </defs>
 <g id="figure_1">
  <g id="patch_1">
   <path d="M 0 345.6 
L 460.8 345.6 
L 460.8 0 
L 0 0 
z
" style="fill:#ffffff;"/>
  </g>
  <g id="axes_1">
   <g id="patch_2">
    <path d="M 57.6 307.584 
L 414.72 307.584 
L 414.72 41.472 
L 57.6 41.472 
z
" style="fill:#ffffff;"/>
   </g>
   <g id="matplotlib.axis_1">
    <g id="xtick_1">
     <g id="line2d_1">
      <defs>
       <path d="M 0 0 
L 0 3.5 
" id="mfd7d57ccc3" style="stroke:#000000;stroke-width:0.8;"/>
      </defs>
      <g>
       <use style="stroke:#000000;stroke-width:0.8;" x="73.290733" xlink:href="#mfd7d57ccc3" y="307.584"/>
      </g>
     </g>
     <g id="text_1">
      <!-- 0 -->
      <defs>
       <path d="M 31.78125 66.40625 
Q 24.171875 66.40625 20.328125 58.90625 
Q 16.5 51.421875 16.5 36.375 
Q 16.5 21.390625 20.328125 13.890625 
Q 24.171875 6.390625 31.78125 6.390625 
Q 39.453125 6.390625 43.28125 13.890625 
Q 47.125 21.390625 47.125 36.375 
Q 47.125 51.421875 43.28125 58.90625 
Q 39.453125 66.40625 31.78125 66.40625 
z
M 31.78125 74.21875 
Q 44.046875 74.21875 50.515625 64.515625 
Q 56.984375 54.828125 56.984375 36.375 
Q 56.984375 17.96875 50.515625 8.265625 
Q 44.046875 -1.421875 31.78125 -1.421875 
Q 19.53125 -1.421875 13.0625 8.265625 
Q 6.59375 17.96875 6.59375 36.375 
Q 6.59375 54.828125 13.0625 64.515625 
Q 19.53125 74.21875 31.78125 74.21875 
z
" id="DejaVuSans-48"/>
      </defs>
      <g transform="translate(70.109483 322.182437)scale(0.1 -0.1)">
       <use xlink:href="#DejaVuSans-48"/>
      </g>
     </g>
    </g>
    <g id="xtick_2">
     <g id="line2d_2">
      <g>
       <use style="stroke:#000000;stroke-width:0.8;" x="127.490156" xlink:href="#mfd7d57ccc3" y="307.584"/>
      </g>
     </g>
     <g id="text_2">
      <!-- 100 -->
      <defs>
       <path d="M 12.40625 8.296875 
L 28.515625 8.296875 
L 28.515625 63.921875 
L 10.984375 60.40625 
L 10.984375 69.390625 
L 28.421875 72.90625 
L 38.28125 72.90625 
L 38.28125 8.296875 
L 54.390625 8.296875 
L 54.390625 0 
L 12.40625 0 
z
" id="DejaVuSans-49"/>
      </defs>
      <g transform="translate(117.946406 322.182437)scale(0.1 -0.1)">
       <use xlink:href="#DejaVuSans-49"/>
       <use x="63.623047" xlink:href="#DejaVuSans-48"/>
       <use x="127.246094" xlink:href="#DejaVuSans-48"/>
      </g>
     </g>
    </g>
    <g id="xtick_3">
     <g id="line2d_3">
      <g>
       <use style="stroke:#000000;stroke-width:0.8;" x="181.68958" xlink:href="#mfd7d57ccc3" y="307.584"/>
      </g>
     </g>
     <g id="text_3">
      <!-- 200 -->
      <defs>
       <path d="M 19.1875 8.296875 
L 53.609375 8.296875 
L 53.609375 0 
L 7.328125 0 
L 7.328125 8.296875 
Q 12.9375 14.109375 22.625 23.890625 
Q 32.328125 33.6875 34.8125 36.53125 
Q 39.546875 41.84375 41.421875 45.53125 
Q 43.3125 49.21875 43.3125 52.78125 
Q 43.3125 58.59375 39.234375 62.25 
Q 35.15625 65.921875 28.609375 65.921875 
Q 23.96875 65.921875 18.8125 64.3125 
Q 13.671875 62.703125 7.8125 59.421875 
L 7.8125 69.390625 
Q 13.765625 71.78125 18.9375 73 
Q 24.125 74.21875 28.421875 74.21875 
Q 39.75 74.21875 46.484375 68.546875 
Q 53.21875 62.890625 53.21875 53.421875 
Q 53.21875 48.921875 51.53125 44.890625 
Q 49.859375 40.875 45.40625 35.40625 
Q 44.1875 33.984375 37.640625 27.21875 
Q 31.109375 20.453125 19.1875 8.296875 
z
" id="DejaVuSans-50"/>
      </defs>
      <g transform="translate(172.14583 322.182437)scale(0.1 -0.1)">
       <use xlink:href="#DejaVuSans-50"/>
       <use x="63.623047" xlink:href="#DejaVuSans-48"/>
       <use x="127.246094" xlink:href="#DejaVuSans-48"/>
      </g>
     </g>
    </g>
    <g id="xtick_4">
     <g id="line2d_4">
      <g>
       <use style="stroke:#000000;stroke-width:0.8;" x="235.889003" xlink:href="#mfd7d57ccc3" y="307.584"/>
      </g>
     </g>
     <g id="text_4">
      <!-- 300 -->
      <defs>
       <path d="M 40.578125 39.3125 
Q 47.65625 37.796875 51.625 33 
Q 55.609375 28.21875 55.609375 21.1875 
Q 55.609375 10.40625 48.1875 4.484375 
Q 40.765625 -1.421875 27.09375 -1.421875 
Q 22.515625 -1.421875 17.65625 -0.515625 
Q 12.796875 0.390625 7.625 2.203125 
L 7.625 11.71875 
Q 11.71875 9.328125 16.59375 8.109375 
Q 21.484375 6.890625 26.8125 6.890625 
Q 36.078125 6.890625 40.9375 10.546875 
Q 45.796875 14.203125 45.796875 21.1875 
Q 45.796875 27.640625 41.28125 31.265625 
Q 36.765625 34.90625 28.71875 34.90625 
L 20.21875 34.90625 
L 20.21875 43.015625 
L 29.109375 43.015625 
Q 36.375 43.015625 40.234375 45.921875 
Q 44.09375 48.828125 44.09375 54.296875 
Q 44.09375 59.90625 40.109375 62.90625 
Q 36.140625 65.921875 28.71875 65.921875 
Q 24.65625 65.921875 20.015625 65.03125 
Q 15.375 64.15625 9.8125 62.3125 
L 9.8125 71.09375 
Q 15.4375 72.65625 20.34375 73.4375 
Q 25.25 74.21875 29.59375 74.21875 
Q 40.828125 74.21875 47.359375 69.109375 
Q 53.90625 64.015625 53.90625 55.328125 
Q 53.90625 49.265625 50.4375 45.09375 
Q 46.96875 40.921875 40.578125 39.3125 
z
" id="DejaVuSans-51"/>
      </defs>
      <g transform="translate(226.345253 322.182437)scale(0.1 -0.1)">
       <use xlink:href="#DejaVuSans-51"/>
       <use x="63.623047" xlink:href="#DejaVuSans-48"/>
       <use x="127.246094" xlink:href="#DejaVuSans-48"/>
      </g>
     </g>
    </g>
    <g id="xtick_5">
     <g id="line2d_5">
      <g>
       <use style="stroke:#000000;stroke-width:0.8;" x="290.088426" xlink:href="#mfd7d57ccc3" y="307.584"/>
      </g>
     </g>
     <g id="text_5">
      <!-- 400 -->
      <defs>
       <path d="M 37.796875 64.3125 
L 12.890625 25.390625 
L 37.796875 25.390625 
z
M 35.203125 72.90625 
L 47.609375 72.90625 
L 47.609375 25.390625 
L 58.015625 25.390625 
L 58.015625 17.1875 
L 47.609375 17.1875 
L 47.609375 0 
L 37.796875 0 
L 37.796875 17.1875 
L 4.890625 17.1875 
L 4.890625 26.703125 
z
" id="DejaVuSans-52"/>
      </defs>
      <g transform="translate(280.544676 322.182437)scale(0.1 -0.1)">
       <use xlink:href="#DejaVuSans-52"/>
       <use x="63.623047" xlink:href="#DejaVuSans-48"/>
       <use x="127.246094" xlink:href="#DejaVuSans-48"/>
      </g>
     </g>
    </g>
    <g id="xtick_6">
     <g id="line2d_6">
      <g>
       <use style="stroke:#000000;stroke-width:0.8;" x="344.287849" xlink:href="#mfd7d57ccc3" y="307.584"/>
      </g>
     </g>
     <g id="text_6">
      <!-- 500 -->
      <defs>
       <path d="M 10.796875 72.90625 
L 49.515625 72.90625 
L 49.515625 64.59375 
L 19.828125 64.59375 
L 19.828125 46.734375 
Q 21.96875 47.46875 24.109375 47.828125 
Q 26.265625 48.1875 28.421875 48.1875 
Q 40.625 48.1875 47.75 41.5 
Q 54.890625 34.8125 54.890625 23.390625 
Q 54.890625 11.625 47.5625 5.09375 
Q 40.234375 -1.421875 26.90625 -1.421875 
Q 22.3125 -1.421875 17.546875 -0.640625 
Q 12.796875 0.140625 7.71875 1.703125 
L 7.71875 11.625 
Q 12.109375 9.234375 16.796875 8.0625 
Q 21.484375 6.890625 26.703125 6.890625 
Q 35.15625 6.890625 40.078125 11.328125 
Q 45.015625 15.765625 45.015625 23.390625 
Q 45.015625 31 40.078125 35.4375 
Q 35.15625 39.890625 26.703125 39.890625 
Q 22.75 39.890625 18.8125 39.015625 
Q 14.890625 38.140625 10.796875 36.28125 
z
" id="DejaVuSans-53"/>
      </defs>
      <g transform="translate(334.744099 322.182437)scale(0.1 -0.1)">
       <use xlink:href="#DejaVuSans-53"/>
       <use x="63.623047" xlink:href="#DejaVuSans-48"/>
       <use x="127.246094" xlink:href="#DejaVuSans-48"/>
      </g>
     </g>
    </g>
    <g id="xtick_7">
     <g id="line2d_7">
      <g>
       <use style="stroke:#000000;stroke-width:0.8;" x="398.487273" xlink:href="#mfd7d57ccc3" y="307.584"/>
      </g>
     </g>
     <g id="text_7">
      <!-- 600 -->
      <defs>
       <path d="M 33.015625 40.375 
Q 26.375 40.375 22.484375 35.828125 
Q 18.609375 31.296875 18.609375 23.390625 
Q 18.609375 15.53125 22.484375 10.953125 
Q 26.375 6.390625 33.015625 6.390625 
Q 39.65625 6.390625 43.53125 10.953125 
Q 47.40625 15.53125 47.40625 23.390625 
Q 47.40625 31.296875 43.53125 35.828125 
Q 39.65625 40.375 33.015625 40.375 
z
M 52.59375 71.296875 
L 52.59375 62.3125 
Q 48.875 64.0625 45.09375 64.984375 
Q 41.3125 65.921875 37.59375 65.921875 
Q 27.828125 65.921875 22.671875 59.328125 
Q 17.53125 52.734375 16.796875 39.40625 
Q 19.671875 43.65625 24.015625 45.921875 
Q 28.375 48.1875 33.59375 48.1875 
Q 44.578125 48.1875 50.953125 41.515625 
Q 57.328125 34.859375 57.328125 23.390625 
Q 57.328125 12.15625 50.6875 5.359375 
Q 44.046875 -1.421875 33.015625 -1.421875 
Q 20.359375 -1.421875 13.671875 8.265625 
Q 6.984375 17.96875 6.984375 36.375 
Q 6.984375 53.65625 15.1875 63.9375 
Q 23.390625 74.21875 37.203125 74.21875 
Q 40.921875 74.21875 44.703125 73.484375 
Q 48.484375 72.75 52.59375 71.296875 
z
" id="DejaVuSans-54"/>
      </defs>
      <g transform="translate(388.943523 322.182437)scale(0.1 -0.1)">
       <use xlink:href="#DejaVuSans-54"/>
       <use x="63.623047" xlink:href="#DejaVuSans-48"/>
       <use x="127.246094" xlink:href="#DejaVuSans-48"/>
      </g>
     </g>
    </g>
   </g>
   <g id="matplotlib.axis_2">
    <g id="ytick_1">
     <g id="line2d_8">
      <defs>
       <path d="M 0 0 
L -3.5 0 
" id="m9645c5eeb1" style="stroke:#000000;stroke-width:0.8;"/>
      </defs>
      <g>
       <use style="stroke:#000000;stroke-width:0.8;" x="57.6" xlink:href="#m9645c5eeb1" y="297.769489"/>
      </g>
     </g>
     <g id="text_8">
      <!-- 0.55 -->
      <defs>
       <path d="M 10.6875 12.40625 
L 21 12.40625 
L 21 0 
L 10.6875 0 
z
" id="DejaVuSans-46"/>
      </defs>
      <g transform="translate(28.334375 301.568707)scale(0.1 -0.1)">
       <use xlink:href="#DejaVuSans-48"/>
       <use x="63.623047" xlink:href="#DejaVuSans-46"/>
       <use x="95.410156" xlink:href="#DejaVuSans-53"/>
       <use x="159.033203" xlink:href="#DejaVuSans-53"/>
      </g>
     </g>
    </g>
    <g id="ytick_2">
     <g id="line2d_9">
      <g>
       <use style="stroke:#000000;stroke-width:0.8;" x="57.6" xlink:href="#m9645c5eeb1" y="251.626243"/>
      </g>
     </g>
     <g id="text_9">
      <!-- 0.56 -->
      <g transform="translate(28.334375 255.425462)scale(0.1 -0.1)">
       <use xlink:href="#DejaVuSans-48"/>
       <use x="63.623047" xlink:href="#DejaVuSans-46"/>
       <use x="95.410156" xlink:href="#DejaVuSans-53"/>
       <use x="159.033203" xlink:href="#DejaVuSans-54"/>
      </g>
     </g>
    </g>
    <g id="ytick_3">
     <g id="line2d_10">
      <g>
       <use style="stroke:#000000;stroke-width:0.8;" x="57.6" xlink:href="#m9645c5eeb1" y="205.482997"/>
      </g>
     </g>
     <g id="text_10">
      <!-- 0.57 -->
      <defs>
       <path d="M 8.203125 72.90625 
L 55.078125 72.90625 
L 55.078125 68.703125 
L 28.609375 0 
L 18.3125 0 
L 43.21875 64.59375 
L 8.203125 64.59375 
z
" id="DejaVuSans-55"/>
      </defs>
      <g transform="translate(28.334375 209.282216)scale(0.1 -0.1)">
       <use xlink:href="#DejaVuSans-48"/>
       <use x="63.623047" xlink:href="#DejaVuSans-46"/>
       <use x="95.410156" xlink:href="#DejaVuSans-53"/>
       <use x="159.033203" xlink:href="#DejaVuSans-55"/>
      </g>
     </g>
    </g>
    <g id="ytick_4">
     <g id="line2d_11">
      <g>
       <use style="stroke:#000000;stroke-width:0.8;" x="57.6" xlink:href="#m9645c5eeb1" y="159.339752"/>
      </g>
     </g>
     <g id="text_11">
      <!-- 0.58 -->
      <defs>
       <path d="M 31.78125 34.625 
Q 24.75 34.625 20.71875 30.859375 
Q 16.703125 27.09375 16.703125 20.515625 
Q 16.703125 13.921875 20.71875 10.15625 
Q 24.75 6.390625 31.78125 6.390625 
Q 38.8125 6.390625 42.859375 10.171875 
Q 46.921875 13.96875 46.921875 20.515625 
Q 46.921875 27.09375 42.890625 30.859375 
Q 38.875 34.625 31.78125 34.625 
z
M 21.921875 38.8125 
Q 15.578125 40.375 12.03125 44.71875 
Q 8.5 49.078125 8.5 55.328125 
Q 8.5 64.0625 14.71875 69.140625 
Q 20.953125 74.21875 31.78125 74.21875 
Q 42.671875 74.21875 48.875 69.140625 
Q 55.078125 64.0625 55.078125 55.328125 
Q 55.078125 49.078125 51.53125 44.71875 
Q 48 40.375 41.703125 38.8125 
Q 48.828125 37.15625 52.796875 32.3125 
Q 56.78125 27.484375 56.78125 20.515625 
Q 56.78125 9.90625 50.3125 4.234375 
Q 43.84375 -1.421875 31.78125 -1.421875 
Q 19.734375 -1.421875 13.25 4.234375 
Q 6.78125 9.90625 6.78125 20.515625 
Q 6.78125 27.484375 10.78125 32.3125 
Q 14.796875 37.15625 21.921875 38.8125 
z
M 18.3125 54.390625 
Q 18.3125 48.734375 21.84375 45.5625 
Q 25.390625 42.390625 31.78125 42.390625 
Q 38.140625 42.390625 41.71875 45.5625 
Q 45.3125 48.734375 45.3125 54.390625 
Q 45.3125 60.0625 41.71875 63.234375 
Q 38.140625 66.40625 31.78125 66.40625 
Q 25.390625 66.40625 21.84375 63.234375 
Q 18.3125 60.0625 18.3125 54.390625 
z
" id="DejaVuSans-56"/>
      </defs>
      <g transform="translate(28.334375 163.138971)scale(0.1 -0.1)">
       <use xlink:href="#DejaVuSans-48"/>
       <use x="63.623047" xlink:href="#DejaVuSans-46"/>
       <use x="95.410156" xlink:href="#DejaVuSans-53"/>
       <use x="159.033203" xlink:href="#DejaVuSans-56"/>
      </g>
     </g>
    </g>
    <g id="ytick_5">
     <g id="line2d_12">
      <g>
       <use style="stroke:#000000;stroke-width:0.8;" x="57.6" xlink:href="#m9645c5eeb1" y="113.196506"/>
      </g>
     </g>
     <g id="text_12">
      <!-- 0.59 -->
      <defs>
       <path d="M 10.984375 1.515625 
L 10.984375 10.5 
Q 14.703125 8.734375 18.5 7.8125 
Q 22.3125 6.890625 25.984375 6.890625 
Q 35.75 6.890625 40.890625 13.453125 
Q 46.046875 20.015625 46.78125 33.40625 
Q 43.953125 29.203125 39.59375 26.953125 
Q 35.25 24.703125 29.984375 24.703125 
Q 19.046875 24.703125 12.671875 31.3125 
Q 6.296875 37.9375 6.296875 49.421875 
Q 6.296875 60.640625 12.9375 67.421875 
Q 19.578125 74.21875 30.609375 74.21875 
Q 43.265625 74.21875 49.921875 64.515625 
Q 56.59375 54.828125 56.59375 36.375 
Q 56.59375 19.140625 48.40625 8.859375 
Q 40.234375 -1.421875 26.421875 -1.421875 
Q 22.703125 -1.421875 18.890625 -0.6875 
Q 15.09375 0.046875 10.984375 1.515625 
z
M 30.609375 32.421875 
Q 37.25 32.421875 41.125 36.953125 
Q 45.015625 41.5 45.015625 49.421875 
Q 45.015625 57.28125 41.125 61.84375 
Q 37.25 66.40625 30.609375 66.40625 
Q 23.96875 66.40625 20.09375 61.84375 
Q 16.21875 57.28125 16.21875 49.421875 
Q 16.21875 41.5 20.09375 36.953125 
Q 23.96875 32.421875 30.609375 32.421875 
z
" id="DejaVuSans-57"/>
      </defs>
      <g transform="translate(28.334375 116.995725)scale(0.1 -0.1)">
       <use xlink:href="#DejaVuSans-48"/>
       <use x="63.623047" xlink:href="#DejaVuSans-46"/>
       <use x="95.410156" xlink:href="#DejaVuSans-53"/>
       <use x="159.033203" xlink:href="#DejaVuSans-57"/>
      </g>
     </g>
    </g>
    <g id="ytick_6">
     <g id="line2d_13">
      <g>
       <use style="stroke:#000000;stroke-width:0.8;" x="57.6" xlink:href="#m9645c5eeb1" y="67.05326"/>
      </g>
     </g>
     <g id="text_13">
      <!-- 0.60 -->
      <g transform="translate(28.334375 70.852479)scale(0.1 -0.1)">
       <use xlink:href="#DejaVuSans-48"/>
       <use x="63.623047" xlink:href="#DejaVuSans-46"/>
       <use x="95.410156" xlink:href="#DejaVuSans-54"/>
       <use x="159.033203" xlink:href="#DejaVuSans-48"/>
      </g>
     </g>
    </g>
   </g>
   <g id="line2d_14">
    <path clip-path="url(#pe1e07e16c1)" d="M 76.357414 -1 
L 76.542698 25.256908 
L 77.084693 75.00168 
L 77.626687 107.272743 
L 78.168681 107.272743 
L 78.710675 128.572259 
L 80.878652 128.572259 
L 81.420647 142.410809 
L 81.962641 142.410809 
L 82.504635 151.52787 
L 83.046629 151.52787 
L 83.588623 157.88551 
L 84.130618 161.967248 
L 84.672612 161.967248 
L 85.7566 166.455336 
L 86.298595 166.455336 
L 86.840589 168.291842 
L 87.382583 169.396268 
L 88.466572 170.899834 
L 89.008566 171.177326 
L 89.55056 172.237664 
L 90.092554 172.237664 
L 91.176543 172.823119 
L 91.718537 173.387843 
L 92.802525 173.308373 
L 93.886514 173.720458 
L 94.428508 173.649367 
L 94.970502 173.321517 
L 95.512497 173.856415 
L 96.054491 174.025949 
L 96.596485 173.991723 
L 97.680474 174.192949 
L 98.222468 173.923192 
L 98.764462 174.051925 
L 99.84845 174.822506 
L 100.932439 174.816462 
L 101.474433 174.407974 
L 102.558422 174.092459 
L 103.100416 174.332028 
L 105.268393 174.77989 
L 105.810387 174.408968 
L 106.352381 174.251157 
L 106.894375 174.646285 
L 107.43637 174.152743 
L 107.978364 174.442036 
L 108.520358 174.369788 
L 109.062352 174.572398 
L 109.604347 174.627891 
L 110.146341 174.808054 
L 111.772324 174.773405 
L 112.314318 174.765127 
L 112.856312 174.473882 
L 113.398306 174.852925 
L 113.940301 174.95649 
L 114.482295 174.453446 
L 115.024289 174.305462 
L 115.566283 174.919644 
L 117.192266 174.636563 
L 117.73426 174.636563 
L 118.276254 174.839621 
L 119.360243 174.271927 
L 119.902237 174.778612 
L 120.444231 174.981212 
L 120.986226 174.981212 
L 121.52822 174.353209 
L 122.070214 174.637153 
L 122.612208 175.074502 
L 123.154202 175.012535 
L 124.780185 175.215224 
L 125.322179 175.207729 
L 125.864174 174.75723 
L 126.406168 174.75723 
L 126.948162 175.14538 
L 127.490156 174.782283 
L 128.032151 175.096165 
L 128.574145 174.779247 
L 129.116139 175.601053 
L 129.658133 175.497502 
L 130.200127 174.624224 
L 131.284116 174.639348 
L 131.82611 175.335752 
L 132.368104 175.204295 
L 132.910099 174.956842 
L 133.452093 175.224305 
L 134.536081 175.224305 
L 135.078076 174.920129 
L 136.162064 174.868629 
L 136.704058 174.522443 
L 137.788047 174.522443 
L 138.330041 174.847277 
L 138.872035 175.034168 
L 139.414029 174.884826 
L 140.498018 174.88066 
L 141.040012 175.02699 
L 141.582006 174.941686 
L 142.124001 175.138641 
L 142.665995 174.804814 
L 143.749983 174.874116 
L 144.833972 175.153573 
L 145.375966 174.903842 
L 145.91796 175.291082 
L 146.459954 175.214483 
L 147.001949 174.514804 
L 147.543943 174.722036 
L 150.253914 174.837093 
L 151.337903 174.76952 
L 151.879897 175.019312 
L 152.421891 175.48454 
L 152.963885 174.912765 
L 154.047874 175.38783 
L 154.589868 174.984213 
L 155.131862 175.024229 
L 155.673856 175.534267 
L 156.215851 175.443622 
L 156.757845 175.039382 
L 157.299839 175.003548 
L 157.841833 175.767037 
L 158.925822 175.775515 
L 159.467816 175.775515 
L 160.00981 175.424207 
L 160.551805 175.307635 
L 161.093799 174.819842 
L 161.635793 174.6316 
L 162.177787 174.815443 
L 162.719781 174.815443 
L 163.261776 175.194368 
L 163.80377 174.689783 
L 164.345764 174.648229 
L 164.887758 175.171578 
L 165.971747 175.708028 
L 166.513741 175.925433 
L 167.055735 175.362057 
L 167.59773 175.250199 
L 168.139724 174.994102 
L 168.681718 175.618369 
L 169.223712 175.405415 
L 169.765706 175.691502 
L 171.391689 175.606728 
L 171.933683 175.522473 
L 172.475678 175.790499 
L 173.017672 175.007241 
L 173.559666 175.120044 
L 174.10166 175.592504 
L 174.643655 175.564372 
L 176.269637 175.016875 
L 176.811632 174.952968 
L 177.353626 175.069534 
L 177.89562 174.883084 
L 180.063597 175.01391 
L 181.147585 175.801428 
L 181.68958 175.430639 
L 183.315562 175.481398 
L 183.857557 175.327193 
L 184.399551 175.753178 
L 187.109522 175.752779 
L 187.651516 175.199062 
L 188.19351 174.980404 
L 188.735505 175.13838 
L 189.277499 174.782298 
L 189.819493 174.782298 
L 190.361487 174.94587 
L 190.903482 175.283226 
L 191.98747 175.182978 
L 193.071458 175.182978 
L 193.613453 175.01793 
L 194.155447 175.01793 
L 194.697441 174.832152 
L 195.239435 175.008281 
L 196.323424 175.023507 
L 196.865418 174.848573 
L 197.407412 174.848573 
L 197.949407 174.979523 
L 198.491401 174.851234 
L 199.033395 175.323298 
L 199.575389 175.333955 
L 200.117384 175.476956 
L 200.659378 175.303493 
L 201.201372 175.49982 
L 201.743366 175.328938 
L 202.28536 175.328938 
L 203.369349 174.957655 
L 203.911343 174.566727 
L 204.453337 174.660181 
L 204.995332 175.264386 
L 205.537326 175.403297 
L 206.621314 175.372044 
L 207.163309 175.792597 
L 207.705303 175.69096 
L 208.247297 175.08469 
L 208.789291 175.125282 
L 209.331285 174.984985 
L 212.041257 174.959827 
L 213.125245 174.959827 
L 213.667239 174.800989 
L 215.835216 174.834532 
L 216.377211 175.129307 
L 216.919205 174.715373 
L 217.461199 174.715373 
L 218.003193 174.995517 
L 218.545187 174.829941 
L 219.087182 175.076841 
L 219.629176 175.029382 
L 220.17117 175.506948 
L 220.713164 175.506948 
L 221.255159 175.73271 
L 221.797153 175.530549 
L 222.881141 175.583111 
L 223.423136 175.146508 
L 224.507124 175.040932 
L 225.049118 175.394328 
L 225.591112 175.464137 
L 226.133107 175.224711 
L 227.217095 175.162695 
L 227.759089 175.176071 
L 228.301084 175.356146 
L 228.843078 174.960856 
L 232.095043 174.860484 
L 232.637037 174.514194 
L 234.805014 174.516305 
L 235.347009 174.262933 
L 235.889003 174.636816 
L 236.430997 174.305902 
L 236.972991 174.305902 
L 237.514986 174.688331 
L 238.05698 174.637994 
L 239.140968 175.405149 
L 239.682963 175.639074 
L 240.224957 175.303641 
L 241.308945 175.303641 
L 241.850939 174.964726 
L 242.392934 174.765744 
L 246.186893 174.814684 
L 246.728888 174.522979 
L 247.812876 174.579916 
L 248.35487 174.95293 
L 248.896864 174.95293 
L 249.438859 175.458024 
L 249.980853 176.373838 
L 250.522847 175.872386 
L 251.064841 175.65866 
L 252.14883 175.390269 
L 252.690824 175.167276 
L 253.232818 175.167276 
L 253.774813 175.605182 
L 255.400795 175.605182 
L 255.942789 175.191058 
L 256.484784 175.468463 
L 257.026778 175.468463 
L 257.568772 175.337538 
L 258.110766 175.337538 
L 258.652761 174.97194 
L 259.194755 175.228521 
L 259.736749 175.228521 
L 260.278743 174.61309 
L 260.820738 174.558396 
L 261.904726 174.62149 
L 262.44672 174.29583 
L 262.988715 174.29583 
L 263.530709 174.714817 
L 264.072703 174.813638 
L 264.614697 175.601628 
L 265.156691 175.294706 
L 265.698686 175.294706 
L 266.24068 175.027004 
L 266.782674 175.170968 
L 269.492645 175.264801 
L 270.03464 175.686313 
L 272.202616 175.686313 
L 272.744611 175.823271 
L 273.286605 175.330759 
L 273.828599 175.525109 
L 274.370593 175.315614 
L 277.080565 175.209545 
L 277.622559 174.869897 
L 278.164553 175.557247 
L 279.790536 175.604511 
L 280.33253 175.604511 
L 280.874524 175.938877 
L 281.416518 175.938877 
L 281.958513 175.676456 
L 282.500507 175.797897 
L 283.042501 175.400328 
L 284.12649 175.010187 
L 287.378455 175.010187 
L 287.920449 175.233582 
L 288.462443 175.189986 
L 289.004438 175.328337 
L 289.546432 174.84384 
L 290.088426 174.84384 
L 290.63042 175.220939 
L 291.172415 175.33853 
L 293.340392 175.346242 
L 293.882386 175.504989 
L 294.42438 175.276453 
L 295.508368 175.276453 
L 296.050363 175.447632 
L 296.592357 175.447632 
L 297.134351 175.579719 
L 297.676345 175.980926 
L 299.844322 175.248936 
L 300.928311 175.849809 
L 302.012299 175.943545 
L 302.554294 175.889909 
L 303.096288 175.608456 
L 304.72227 175.481973 
L 305.264265 175.688577 
L 306.348253 175.634762 
L 306.890247 175.16189 
L 307.432242 175.3023 
L 307.974236 175.878978 
L 309.600219 175.902825 
L 310.142213 175.39944 
L 310.684207 175.607497 
L 311.768195 175.607497 
L 312.31019 175.136812 
L 313.394178 175.19916 
L 313.936172 175.592533 
L 317.188138 175.431861 
L 318.814121 175.238085 
L 320.982097 175.151273 
L 321.524092 175.566635 
L 322.066086 175.566635 
L 322.60808 175.847869 
L 325.318051 176.097952 
L 325.860046 175.917397 
L 326.40204 175.917397 
L 326.944034 176.112238 
L 327.486028 175.857189 
L 328.570017 175.857189 
L 329.654005 175.688554 
L 330.195999 175.859003 
L 330.737994 175.563952 
L 332.363976 175.580102 
L 332.905971 175.303799 
L 333.447965 175.320789 
L 333.989959 175.585128 
L 334.531953 175.652064 
L 335.073947 175.913849 
L 336.157936 175.941567 
L 336.69993 175.675056 
L 337.241924 175.944944 
L 337.783919 175.944944 
L 338.325913 175.71843 
L 339.951896 175.71843 
L 340.49389 175.378264 
L 341.035884 175.378264 
L 341.577878 175.620825 
L 342.661867 175.620825 
L 343.203861 175.41865 
L 346.997821 175.34664 
L 347.539815 175.934391 
L 348.623803 175.377183 
L 349.165798 176.180856 
L 349.707792 175.698712 
L 350.249786 175.53426 
L 350.79178 175.576112 
L 351.333774 175.445964 
L 351.875769 175.694466 
L 353.501751 175.694466 
L 354.043746 175.311653 
L 355.127734 175.311653 
L 355.669728 175.559877 
L 356.211723 175.195072 
L 356.753717 175.195072 
L 357.295711 175.615844 
L 357.837705 175.422149 
L 358.379699 174.940599 
L 358.921694 174.940599 
L 359.463688 175.320849 
L 360.005682 175.320849 
L 360.547676 175.74849 
L 361.089671 175.471755 
L 361.631665 175.471755 
L 362.715653 175.226761 
L 363.257648 175.226761 
L 363.799642 175.413139 
L 364.341636 175.335025 
L 364.88363 175.488586 
L 365.967619 175.331007 
L 366.509613 175.65757 
L 367.051607 175.65757 
L 367.593601 175.400829 
L 369.761578 175.400829 
L 370.303573 175.877893 
L 370.845567 176.054129 
L 371.929555 176.054129 
L 372.47155 175.918064 
L 375.181521 175.96844 
L 375.723515 175.695624 
L 376.265509 175.695624 
L 376.807503 175.97172 
L 377.891492 175.496163 
L 380.059469 175.458539 
L 380.601463 175.865644 
L 381.143457 176.06056 
L 382.227446 176.06056 
L 383.853428 176.375535 
L 384.395423 175.81224 
L 384.937417 175.81224 
L 385.479411 175.427628 
L 386.021405 175.427628 
L 386.5634 175.834155 
L 387.647388 175.745437 
L 388.189382 175.971246 
L 388.731377 175.566251 
L 389.273371 175.607332 
L 389.815365 175.134028 
L 391.983342 175.12154 
L 392.525336 175.324685 
L 393.609325 175.324685 
L 394.151319 175.527192 
L 394.693313 175.924252 
L 395.235307 175.443413 
L 396.319296 175.443413 
L 396.86129 175.919536 
L 397.403284 175.460245 
L 397.945278 175.312108 
L 398.487273 175.458038 
L 398.487273 175.458038 
" style="fill:none;stroke:#1f77b4;stroke-linecap:square;stroke-width:1.5;"/>
   </g>
   <g id="line2d_15">
    <path clip-path="url(#pe1e07e16c1)" d="M 76.356189 -1 
L 76.542698 25.460196 
L 77.084693 75.153812 
L 77.626687 106.929478 
L 78.168681 106.929478 
L 78.710675 128.47828 
L 80.878652 128.47828 
L 81.420647 142.394621 
L 81.962641 142.394621 
L 82.504635 151.602156 
L 83.046629 151.602156 
L 83.588623 158.051514 
L 84.130618 161.861333 
L 84.672612 161.861333 
L 85.214606 164.656644 
L 85.7566 166.415316 
L 86.298595 166.415316 
L 86.840589 168.153794 
L 87.924577 170.509109 
L 89.008566 171.24945 
L 89.55056 172.368768 
L 90.092554 172.368768 
L 90.634548 172.811508 
L 91.176543 173.068534 
L 91.718537 173.642769 
L 92.260531 173.518051 
L 92.802525 173.518051 
L 93.34452 173.815697 
L 94.428508 173.696203 
L 94.970502 173.342659 
L 95.512497 174.151486 
L 96.054491 173.9882 
L 96.596485 174.135126 
L 97.680474 174.116341 
L 98.222468 173.819507 
L 98.764462 173.784824 
L 99.306456 174.092719 
L 99.84845 174.901276 
L 100.390445 174.600098 
L 100.932439 174.87772 
L 101.474433 174.230694 
L 102.016427 174.114893 
L 102.558422 174.174452 
L 103.100416 174.771732 
L 103.64241 174.542198 
L 104.184404 174.807372 
L 104.726399 174.476369 
L 105.268393 175.355299 
L 105.810387 174.460837 
L 106.352381 174.168214 
L 106.894375 174.44386 
L 107.43637 173.86594 
L 107.978364 174.441928 
L 108.520358 174.474036 
L 109.062352 174.325799 
L 109.604347 174.978439 
L 110.146341 174.735927 
L 110.688335 175.058355 
L 111.772324 175.091609 
L 112.314318 174.837517 
L 112.856312 174.393181 
L 113.398306 175.049813 
L 113.940301 174.602195 
L 115.024289 174.387802 
L 115.566283 174.839748 
L 116.650272 174.651013 
L 117.73426 174.651013 
L 118.276254 174.950599 
L 118.818249 174.604307 
L 119.360243 174.643774 
L 119.902237 174.848151 
L 120.444231 175.568595 
L 120.986226 175.568595 
L 121.52822 174.15768 
L 122.070214 174.366635 
L 122.612208 174.932625 
L 123.154202 174.696033 
L 123.696197 174.770516 
L 124.238191 175.179528 
L 125.322179 175.208723 
L 125.864174 174.895017 
L 126.406168 174.895017 
L 126.948162 175.179908 
L 127.490156 174.879599 
L 128.032151 175.218963 
L 128.574145 174.558493 
L 129.116139 175.492693 
L 129.658133 175.273928 
L 130.200127 174.568607 
L 130.742122 174.568607 
L 131.284116 174.894364 
L 131.82611 175.441411 
L 132.368104 175.267873 
L 134.536081 175.393514 
L 135.078076 175.022861 
L 135.62007 175.088564 
L 136.162064 174.873338 
L 136.704058 174.508468 
L 137.788047 174.508468 
L 138.330041 174.805498 
L 138.872035 174.804562 
L 139.414029 175.087674 
L 139.956024 174.706293 
L 140.498018 174.706293 
L 141.040012 175.090464 
L 141.582006 174.72097 
L 142.124001 175.145607 
L 142.665995 174.897898 
L 143.207989 174.841851 
L 143.749983 175.219464 
L 144.291978 175.00335 
L 144.833972 175.085227 
L 145.375966 174.614646 
L 145.91796 175.398508 
L 146.459954 175.344873 
L 147.001949 174.273172 
L 147.543943 174.782954 
L 151.337903 174.938812 
L 152.421891 175.806643 
L 152.963885 174.962836 
L 153.505879 174.987539 
L 154.047874 175.480112 
L 154.589868 175.052229 
L 155.131862 174.82477 
L 155.673856 175.604747 
L 156.215851 175.153378 
L 156.757845 174.919263 
L 157.299839 174.931904 
L 157.841833 176.056848 
L 158.925822 175.948566 
L 160.00981 175.841012 
L 160.551805 175.368696 
L 161.635793 174.64885 
L 162.177787 174.971837 
L 163.261776 175.012623 
L 163.80377 174.687383 
L 164.345764 174.612501 
L 164.887758 175.057487 
L 165.971747 176.12323 
L 166.513741 176.094119 
L 167.055735 175.448717 
L 167.59773 175.640479 
L 168.139724 175.375324 
L 168.681718 175.721159 
L 169.223712 175.223232 
L 169.765706 175.693804 
L 170.849695 175.693804 
L 171.391689 175.836724 
L 171.933683 175.823256 
L 172.475678 176.218387 
L 173.017672 175.527542 
L 173.559666 175.43356 
L 174.10166 175.861069 
L 174.643655 175.742874 
L 175.185649 175.209778 
L 175.727643 174.947481 
L 176.269637 174.884996 
L 177.353626 175.202238 
L 177.89562 174.843286 
L 178.979608 175.193215 
L 179.521603 174.877571 
L 180.063597 174.71144 
L 180.605591 175.086241 
L 181.147585 175.785641 
L 181.68958 175.036781 
L 182.231574 175.179724 
L 183.857557 175.270637 
L 184.399551 175.61352 
L 186.567528 175.61352 
L 187.109522 175.840073 
L 187.651516 175.277393 
L 188.735505 174.956874 
L 189.277499 174.632537 
L 189.819493 174.632537 
L 190.361487 175.119093 
L 191.445476 175.245509 
L 193.071458 175.245509 
L 193.613453 175.043488 
L 194.155447 175.043488 
L 195.239435 174.832517 
L 195.78143 174.832517 
L 196.865418 174.547922 
L 197.407412 174.547922 
L 197.949407 174.928596 
L 198.491401 174.861275 
L 199.033395 175.320679 
L 199.575389 175.205855 
L 200.659378 175.538287 
L 201.743366 175.250118 
L 202.28536 175.250118 
L 203.369349 174.723803 
L 203.911343 174.294638 
L 204.453337 174.615948 
L 204.995332 175.085167 
L 205.537326 175.282237 
L 206.621314 175.30898 
L 207.163309 175.781631 
L 207.705303 175.986779 
L 208.789291 174.769632 
L 209.331285 174.936526 
L 210.957268 174.97623 
L 213.125245 174.97623 
L 213.667239 174.707418 
L 215.835216 174.708035 
L 216.377211 175.082264 
L 216.919205 174.848675 
L 217.461199 174.848675 
L 219.629176 175.225203 
L 220.17117 175.764115 
L 220.713164 175.764115 
L 221.255159 175.993353 
L 221.797153 175.762526 
L 222.339147 175.762526 
L 223.423136 175.37082 
L 223.96513 175.37082 
L 224.507124 175.247491 
L 225.049118 175.648796 
L 225.591112 175.853706 
L 226.133107 175.223827 
L 227.217095 175.112017 
L 227.759089 175.386795 
L 228.301084 175.441146 
L 228.843078 174.883621 
L 229.385072 174.883621 
L 229.927066 174.761636 
L 230.469061 174.912831 
L 231.553049 174.912831 
L 232.095043 174.606373 
L 233.721026 174.851128 
L 234.26302 174.424268 
L 235.347009 174.367906 
L 235.889003 174.55919 
L 236.430997 174.421307 
L 236.972991 174.421307 
L 237.514986 174.63481 
L 238.05698 174.375825 
L 238.598974 174.813114 
L 239.140968 175.49193 
L 239.682963 175.658449 
L 240.224957 175.433099 
L 241.308945 175.433099 
L 241.850939 174.787149 
L 242.392934 174.62811 
L 244.018916 174.62811 
L 244.560911 174.88398 
L 246.186893 174.88398 
L 246.728888 174.308247 
L 247.270882 174.057197 
L 247.812876 174.057197 
L 248.35487 174.948089 
L 248.896864 174.948089 
L 249.438859 175.318544 
L 249.980853 176.47256 
L 250.522847 175.868468 
L 251.064841 175.709984 
L 251.606836 175.801309 
L 252.690824 175.272375 
L 253.232818 175.272375 
L 253.774813 175.652723 
L 255.400795 175.652723 
L 255.942789 175.184714 
L 256.484784 175.393265 
L 258.110766 175.352602 
L 258.652761 174.716024 
L 259.194755 175.039942 
L 259.736749 175.039942 
L 260.278743 174.714656 
L 260.820738 174.737227 
L 261.362732 174.96951 
L 261.904726 174.96951 
L 262.44672 174.546726 
L 263.530709 174.580621 
L 264.614697 175.715402 
L 265.156691 175.24783 
L 265.698686 175.24783 
L 266.24068 174.66054 
L 266.782674 175.120118 
L 268.950651 175.120118 
L 269.492645 174.968207 
L 270.03464 175.676725 
L 272.202616 175.676725 
L 272.744611 175.82253 
L 273.828599 175.307513 
L 274.912588 175.339351 
L 275.454582 175.080132 
L 277.080565 175.080132 
L 277.622559 174.725362 
L 278.164553 175.334793 
L 278.706547 175.682807 
L 280.33253 175.682807 
L 280.874524 176.049462 
L 281.416518 176.049462 
L 282.500507 175.769417 
L 283.042501 175.116194 
L 284.12649 174.664281 
L 287.378455 174.664281 
L 287.920449 175.146568 
L 288.462443 175.156777 
L 289.004438 175.323711 
L 289.546432 174.484066 
L 290.088426 174.484066 
L 290.63042 175.433538 
L 291.172415 175.680829 
L 292.798397 175.674839 
L 293.340392 175.79683 
L 294.42438 175.307489 
L 295.508368 175.307489 
L 296.050363 175.454073 
L 296.592357 175.454073 
L 297.676345 176.055542 
L 298.21834 175.652302 
L 298.760334 175.46908 
L 299.302328 175.46908 
L 299.844322 174.93479 
L 300.928311 176.02935 
L 302.012299 176.05801 
L 303.096288 176.00843 
L 303.638282 175.563866 
L 304.180276 175.770826 
L 304.72227 175.770826 
L 305.264265 176.06351 
L 305.806259 176.06351 
L 306.348253 175.874737 
L 306.890247 175.088128 
L 307.432242 175.352417 
L 307.974236 176.226148 
L 308.51623 176.018562 
L 309.058224 176.018562 
L 309.600219 176.165871 
L 310.142213 175.083897 
L 310.684207 175.637316 
L 311.768195 175.637316 
L 312.31019 175.220399 
L 312.852184 175.220399 
L 313.394178 175.66942 
L 313.936172 175.851303 
L 314.478167 175.39942 
L 316.646144 175.422406 
L 317.730132 175.272433 
L 318.272126 175.015633 
L 319.898109 175.015633 
L 320.440103 175.224396 
L 320.982097 175.224396 
L 321.524092 175.502402 
L 322.60808 175.477058 
L 323.150074 176.028535 
L 323.692069 176.023068 
L 324.234063 175.755212 
L 324.776057 175.755212 
L 325.318051 175.950643 
L 325.860046 176.374337 
L 326.40204 176.374337 
L 326.944034 175.704256 
L 327.486028 175.57071 
L 328.570017 175.57071 
L 329.112011 175.735638 
L 329.654005 175.614378 
L 330.195999 175.799895 
L 330.737994 175.569557 
L 332.905971 175.486371 
L 333.447965 175.20052 
L 333.989959 175.810129 
L 334.531953 175.926822 
L 335.073947 175.528322 
L 336.157936 175.628953 
L 336.69993 175.558884 
L 337.241924 175.904274 
L 337.783919 175.904274 
L 338.325913 175.728945 
L 339.951896 175.728945 
L 340.49389 175.368513 
L 341.035884 175.368513 
L 341.577878 175.624161 
L 342.661867 175.624161 
L 343.203861 175.276753 
L 343.745855 175.276753 
L 344.287849 175.41248 
L 346.997821 175.324899 
L 347.539815 175.966172 
L 348.081809 175.610171 
L 348.623803 175.031214 
L 349.165798 175.836423 
L 350.249786 175.247631 
L 350.79178 175.256331 
L 351.333774 175.386729 
L 351.875769 175.665042 
L 353.501751 175.665042 
L 354.043746 175.311 
L 355.127734 175.311 
L 355.669728 175.645479 
L 356.211723 175.500476 
L 356.753717 175.500476 
L 357.295711 175.856397 
L 357.837705 175.502646 
L 358.379699 174.819601 
L 358.921694 174.819601 
L 359.463688 175.262195 
L 360.005682 175.262195 
L 360.547676 175.567477 
L 361.089671 175.162712 
L 361.631665 175.162712 
L 362.173659 174.806215 
L 362.715653 175.027877 
L 363.257648 175.027877 
L 363.799642 175.505847 
L 364.341636 175.339237 
L 364.88363 175.531838 
L 365.425625 175.395006 
L 365.967619 175.383616 
L 366.509613 175.894312 
L 367.051607 175.894312 
L 367.593601 175.652275 
L 369.761578 175.652275 
L 370.845567 176.152481 
L 371.929555 176.152481 
L 372.47155 175.99941 
L 373.013544 175.99941 
L 373.555538 176.167702 
L 374.639526 176.167702 
L 375.181521 175.899978 
L 375.723515 175.775656 
L 376.265509 175.775656 
L 376.807503 176.215847 
L 377.349498 176.07119 
L 377.891492 175.441579 
L 378.97548 175.441579 
L 379.517475 175.329415 
L 380.059469 175.453548 
L 380.601463 176.044193 
L 381.143457 175.850778 
L 383.311434 175.928997 
L 383.853428 176.192215 
L 384.395423 175.67788 
L 384.937417 175.67788 
L 385.479411 175.489337 
L 386.021405 175.489337 
L 386.5634 175.774916 
L 387.105394 175.459665 
L 387.647388 175.459665 
L 388.189382 175.804242 
L 388.731377 175.690686 
L 389.273371 175.879321 
L 389.815365 175.488888 
L 390.899353 175.488888 
L 391.441348 175.161072 
L 391.983342 175.161072 
L 392.525336 175.338503 
L 393.609325 175.338503 
L 394.693313 176.039217 
L 395.235307 175.235235 
L 396.319296 175.235235 
L 396.86129 175.694515 
L 397.945278 175.118549 
L 398.487273 175.325712 
L 398.487273 175.325712 
" style="fill:none;stroke:#ff7f0e;stroke-linecap:square;stroke-width:1.5;"/>
   </g>
   <g id="line2d_16">
    <path clip-path="url(#pe1e07e16c1)" d="M 76.358643 -1 
L 76.542698 25.05362 
L 77.084693 74.849548 
L 77.626687 107.616007 
L 78.168681 107.616007 
L 78.710675 128.666238 
L 80.878652 128.666238 
L 81.420647 142.426997 
L 81.962641 142.426997 
L 82.504635 151.453584 
L 83.046629 151.453584 
L 83.588623 157.719505 
L 84.130618 162.073163 
L 84.672612 162.073163 
L 85.7566 166.495355 
L 86.298595 166.495355 
L 86.840589 168.429889 
L 87.382583 169.470585 
L 87.924577 169.727786 
L 88.466572 170.849615 
L 89.008566 171.105203 
L 89.55056 172.10656 
L 90.092554 172.10656 
L 90.634548 172.255032 
L 91.176543 172.577704 
L 91.718537 173.132916 
L 93.34452 173.120663 
L 93.886514 173.690392 
L 94.428508 173.60253 
L 94.970502 173.300374 
L 95.512497 173.561343 
L 96.054491 174.063698 
L 96.596485 173.84832 
L 97.138479 174.167013 
L 97.680474 174.269557 
L 98.222468 174.026877 
L 99.306456 174.701301 
L 99.84845 174.743736 
L 100.390445 174.967006 
L 103.100416 173.892324 
L 103.64241 174.290877 
L 104.184404 174.173551 
L 104.726399 174.630593 
L 105.268393 174.204481 
L 105.810387 174.357099 
L 106.352381 174.334099 
L 106.894375 174.848711 
L 107.43637 174.439546 
L 107.978364 174.442144 
L 108.520358 174.265539 
L 109.062352 174.818996 
L 109.604347 174.277343 
L 110.146341 174.880182 
L 110.688335 174.593168 
L 111.230329 174.593168 
L 111.772324 174.455202 
L 112.314318 174.692737 
L 112.856312 174.554584 
L 113.398306 174.656037 
L 113.940301 175.310785 
L 114.482295 174.452373 
L 115.024289 174.223122 
L 115.566283 174.99954 
L 116.108277 174.897531 
L 116.650272 174.622113 
L 118.276254 174.728644 
L 118.818249 174.396447 
L 119.360243 173.90008 
L 119.902237 174.709073 
L 120.444231 174.393828 
L 120.986226 174.393828 
L 121.52822 174.548737 
L 122.612208 175.216379 
L 124.238191 175.455321 
L 124.780185 175.205611 
L 125.322179 175.206736 
L 125.864174 174.619443 
L 126.406168 174.619443 
L 126.948162 175.110853 
L 127.490156 174.684967 
L 128.032151 174.973368 
L 128.574145 175.000002 
L 129.116139 175.709413 
L 129.658133 175.721075 
L 130.200127 174.67984 
L 130.742122 174.67984 
L 131.284116 174.384332 
L 131.82611 175.230094 
L 132.368104 175.140717 
L 132.910099 174.622843 
L 133.452093 175.055097 
L 134.536081 175.055097 
L 135.078076 174.817397 
L 136.162064 174.863919 
L 136.704058 174.536418 
L 137.788047 174.536418 
L 138.872035 175.263774 
L 139.414029 174.681977 
L 139.956024 175.055026 
L 142.124001 175.131675 
L 142.665995 174.711731 
L 143.207989 174.811996 
L 143.749983 174.528767 
L 144.291978 174.985169 
L 144.833972 175.221918 
L 146.459954 175.084093 
L 147.001949 174.756436 
L 147.543943 174.661117 
L 148.627931 174.734728 
L 149.169926 175.014338 
L 151.337903 174.600228 
L 151.879897 174.725387 
L 152.421891 175.162436 
L 152.963885 174.862694 
L 153.505879 175.2995 
L 154.047874 175.295549 
L 154.589868 174.916198 
L 156.215851 175.733866 
L 156.757845 175.159501 
L 157.299839 175.075192 
L 157.841833 175.477227 
L 158.383828 175.477934 
L 158.925822 175.602465 
L 159.467816 175.602465 
L 160.00981 175.007402 
L 160.551805 175.246574 
L 161.093799 174.594977 
L 162.719781 174.65905 
L 163.261776 175.376114 
L 163.80377 174.692184 
L 164.345764 174.683956 
L 164.887758 175.28567 
L 165.971747 175.292826 
L 166.513741 175.756747 
L 167.59773 174.859919 
L 168.139724 174.61288 
L 168.681718 175.515578 
L 170.307701 175.6892 
L 170.849695 175.6892 
L 171.391689 175.376731 
L 171.933683 175.22169 
L 172.475678 175.362612 
L 173.017672 174.48694 
L 173.559666 174.806528 
L 174.10166 175.32394 
L 175.185649 175.549747 
L 176.811632 174.884425 
L 177.89562 174.922881 
L 178.979608 174.737164 
L 180.605591 175.840329 
L 183.315562 175.783071 
L 183.857557 175.383748 
L 184.399551 175.892836 
L 186.567528 175.892836 
L 187.109522 175.665486 
L 187.651516 175.120732 
L 188.19351 174.819054 
L 188.735505 175.319886 
L 189.277499 174.932059 
L 189.819493 174.932059 
L 190.361487 174.772647 
L 190.903482 175.365725 
L 191.445476 175.120446 
L 193.071458 175.120446 
L 193.613453 174.992372 
L 194.155447 174.992372 
L 194.697441 174.738601 
L 195.239435 175.184045 
L 195.78143 175.184045 
L 196.323424 175.366073 
L 196.865418 175.149223 
L 197.407412 175.149223 
L 198.491401 174.841193 
L 199.033395 175.325917 
L 200.117384 175.541809 
L 200.659378 175.068699 
L 201.201372 175.599884 
L 201.743366 175.407757 
L 202.827355 175.34823 
L 203.369349 175.191507 
L 203.911343 174.838815 
L 204.453337 174.704414 
L 204.995332 175.443604 
L 205.537326 175.524357 
L 206.621314 175.435107 
L 207.163309 175.803562 
L 208.247297 174.862406 
L 208.789291 175.480932 
L 209.331285 175.033444 
L 210.415274 174.943424 
L 214.209234 174.894561 
L 214.751228 174.684955 
L 215.293222 174.684955 
L 216.377211 175.17635 
L 216.919205 174.58207 
L 217.461199 174.58207 
L 218.003193 175.024044 
L 218.545187 174.635142 
L 219.087182 174.941165 
L 219.629176 174.83356 
L 220.17117 175.249781 
L 220.713164 175.249781 
L 221.255159 175.472068 
L 221.797153 175.298571 
L 222.339147 175.298571 
L 222.881141 175.577573 
L 223.423136 174.922195 
L 224.507124 174.834372 
L 225.049118 175.13986 
L 225.591112 175.074569 
L 226.133107 175.225595 
L 227.217095 175.213373 
L 227.759089 174.965347 
L 228.301084 175.271147 
L 228.843078 175.038092 
L 229.385072 175.038092 
L 229.927066 175.347609 
L 230.469061 175.146401 
L 232.095043 175.114596 
L 232.637037 174.314683 
L 233.721026 174.359325 
L 234.26302 174.608343 
L 234.805014 174.608343 
L 235.347009 174.157959 
L 235.889003 174.714443 
L 236.430997 174.190497 
L 236.972991 174.190497 
L 237.514986 174.741851 
L 238.05698 174.900163 
L 238.598974 175.236521 
L 239.140968 175.318368 
L 239.682963 175.619698 
L 240.224957 175.174182 
L 241.850939 175.142303 
L 242.392934 174.903379 
L 244.018916 174.903379 
L 244.560911 174.745388 
L 246.728888 174.737712 
L 247.270882 175.102634 
L 247.812876 175.102634 
L 248.35487 174.957771 
L 248.896864 174.957771 
L 249.980853 176.275116 
L 251.064841 175.607336 
L 251.606836 175.353454 
L 253.232818 175.062177 
L 253.774813 175.557641 
L 255.400795 175.557641 
L 255.942789 175.197402 
L 256.484784 175.543661 
L 257.026778 175.543661 
L 257.568772 175.322474 
L 259.736749 175.4171 
L 260.278743 174.511523 
L 261.362732 174.273471 
L 261.904726 174.273471 
L 262.44672 174.044933 
L 262.988715 174.044933 
L 263.530709 174.849012 
L 264.072703 174.509714 
L 264.614697 175.487854 
L 265.156691 175.341582 
L 266.24068 175.393469 
L 266.782674 175.221818 
L 268.950651 175.221818 
L 269.492645 175.561395 
L 270.03464 175.695901 
L 272.202616 175.695901 
L 272.744611 175.824013 
L 273.286605 175.111154 
L 273.828599 175.742705 
L 274.370593 175.291877 
L 277.080565 175.338957 
L 277.622559 175.014432 
L 278.164553 175.7797 
L 278.706547 175.526215 
L 280.33253 175.526215 
L 280.874524 175.828293 
L 281.416518 175.828293 
L 281.958513 175.434231 
L 282.500507 175.826377 
L 284.668484 175.356092 
L 287.920449 175.320596 
L 288.462443 175.223195 
L 289.004438 175.332964 
L 289.546432 175.203614 
L 290.088426 175.203614 
L 290.63042 175.008341 
L 291.714409 174.99623 
L 292.256403 174.857925 
L 293.340392 174.895654 
L 293.882386 175.452284 
L 294.42438 175.245418 
L 295.508368 175.245418 
L 296.050363 175.44119 
L 297.134351 175.422787 
L 297.676345 175.90631 
L 298.21834 175.971897 
L 298.760334 175.70176 
L 299.302328 175.70176 
L 299.844322 175.563083 
L 300.386317 175.728204 
L 300.928311 175.670268 
L 302.012299 175.82908 
L 302.554294 175.745549 
L 303.096288 175.208483 
L 303.638282 175.564727 
L 304.180276 175.19312 
L 304.72227 175.19312 
L 305.264265 175.313644 
L 307.432242 175.252183 
L 308.51623 175.737436 
L 310.142213 175.714983 
L 310.684207 175.577678 
L 311.768195 175.577678 
L 312.31019 175.053226 
L 312.852184 175.053226 
L 313.394178 174.7289 
L 313.936172 175.333762 
L 314.478167 175.747362 
L 316.104149 175.71517 
L 316.646144 175.428467 
L 317.188138 175.500121 
L 317.730132 175.401916 
L 318.814121 175.460537 
L 319.898109 175.460537 
L 320.440103 175.078149 
L 320.982097 175.078149 
L 321.524092 175.630868 
L 322.066086 175.630868 
L 322.60808 176.21868 
L 323.150074 175.784973 
L 323.692069 175.937223 
L 324.234063 176.226558 
L 325.318051 176.24526 
L 325.860046 175.460456 
L 326.40204 175.460456 
L 326.944034 176.520219 
L 327.486028 176.143669 
L 328.570017 176.143669 
L 329.112011 175.708133 
L 330.195999 175.918111 
L 330.737994 175.558346 
L 332.363976 175.526454 
L 332.905971 175.121227 
L 333.447965 175.441058 
L 334.531953 175.377305 
L 335.073947 176.299375 
L 336.157936 176.254181 
L 336.69993 175.791227 
L 337.241924 175.985614 
L 337.783919 175.985614 
L 338.325913 175.707916 
L 339.951896 175.707916 
L 340.49389 175.388016 
L 341.035884 175.388016 
L 341.577878 175.617488 
L 343.745855 175.560547 
L 344.287849 175.415831 
L 346.997821 175.368381 
L 347.539815 175.90261 
L 348.081809 175.620579 
L 348.623803 175.723152 
L 349.165798 176.525288 
L 349.707792 175.878653 
L 350.249786 175.82089 
L 350.79178 175.895893 
L 351.333774 175.505199 
L 351.875769 175.72389 
L 353.501751 175.72389 
L 354.043746 175.312305 
L 355.127734 175.312305 
L 355.669728 175.474274 
L 356.211723 174.889668 
L 356.753717 174.889668 
L 357.295711 175.375292 
L 357.837705 175.341651 
L 358.379699 175.061596 
L 358.921694 175.061596 
L 359.463688 175.379503 
L 360.005682 175.379503 
L 360.547676 175.929503 
L 361.089671 175.780799 
L 362.173659 175.886743 
L 362.715653 175.425645 
L 365.425625 175.407456 
L 365.967619 175.278398 
L 366.509613 175.420827 
L 367.051607 175.420827 
L 367.593601 175.149382 
L 369.761578 175.149382 
L 370.303573 175.859615 
L 371.387561 175.955776 
L 371.929555 175.955776 
L 372.47155 175.836719 
L 373.013544 175.836719 
L 373.555538 175.626381 
L 374.639526 175.626381 
L 375.181521 176.036901 
L 375.723515 175.615591 
L 376.265509 175.615591 
L 376.807503 175.727592 
L 377.349498 175.38527 
L 377.891492 175.550746 
L 380.059469 175.463531 
L 380.601463 175.687094 
L 381.143457 176.270342 
L 382.227446 176.270342 
L 382.76944 176.629066 
L 383.853428 176.558855 
L 384.395423 175.9466 
L 384.937417 175.9466 
L 385.479411 175.36592 
L 386.021405 175.36592 
L 386.5634 175.893394 
L 387.105394 176.031209 
L 388.189382 176.138251 
L 388.731377 175.441816 
L 389.273371 175.335343 
L 389.815365 174.779167 
L 390.899353 174.779167 
L 391.441348 175.082008 
L 391.983342 175.082008 
L 392.525336 175.310867 
L 394.151319 175.34394 
L 394.693313 175.809287 
L 395.235307 175.651592 
L 396.319296 175.651592 
L 396.86129 176.144557 
L 397.403284 175.510343 
L 398.487273 175.590365 
L 398.487273 175.590365 
" style="fill:none;stroke:#2ca02c;stroke-linecap:square;stroke-width:1.5;"/>
   </g>
   <g id="patch_3">
    <path d="M 57.6 307.584 
L 57.6 41.472 
" style="fill:none;stroke:#000000;stroke-linecap:square;stroke-linejoin:miter;stroke-width:0.8;"/>
   </g>
   <g id="patch_4">
    <path d="M 414.72 307.584 
L 414.72 41.472 
" style="fill:none;stroke:#000000;stroke-linecap:square;stroke-linejoin:miter;stroke-width:0.8;"/>
   </g>
   <g id="patch_5">
    <path d="M 57.6 307.584 
L 414.72 307.584 
" style="fill:none;stroke:#000000;stroke-linecap:square;stroke-linejoin:miter;stroke-width:0.8;"/>
   </g>
   <g id="patch_6">
    <path d="M 57.6 41.472 
L 414.72 41.472 
" style="fill:none;stroke:#000000;stroke-linecap:square;stroke-linejoin:miter;stroke-width:0.8;"/>
   </g>
   <g id="text_14">
    <!-- Plaquettes -->
    <defs>
     <path d="M 19.671875 64.796875 
L 19.671875 37.40625 
L 32.078125 37.40625 
Q 38.96875 37.40625 42.71875 40.96875 
Q 46.484375 44.53125 46.484375 51.125 
Q 46.484375 57.671875 42.71875 61.234375 
Q 38.96875 64.796875 32.078125 64.796875 
z
M 9.8125 72.90625 
L 32.078125 72.90625 
Q 44.34375 72.90625 50.609375 67.359375 
Q 56.890625 61.8125 56.890625 51.125 
Q 56.890625 40.328125 50.609375 34.8125 
Q 44.34375 29.296875 32.078125 29.296875 
L 19.671875 29.296875 
L 19.671875 0 
L 9.8125 0 
z
" id="DejaVuSans-80"/>
     <path d="M 9.421875 75.984375 
L 18.40625 75.984375 
L 18.40625 0 
L 9.421875 0 
z
" id="DejaVuSans-108"/>
     <path d="M 34.28125 27.484375 
Q 23.390625 27.484375 19.1875 25 
Q 14.984375 22.515625 14.984375 16.5 
Q 14.984375 11.71875 18.140625 8.90625 
Q 21.296875 6.109375 26.703125 6.109375 
Q 34.1875 6.109375 38.703125 11.40625 
Q 43.21875 16.703125 43.21875 25.484375 
L 43.21875 27.484375 
z
M 52.203125 31.203125 
L 52.203125 0 
L 43.21875 0 
L 43.21875 8.296875 
Q 40.140625 3.328125 35.546875 0.953125 
Q 30.953125 -1.421875 24.3125 -1.421875 
Q 15.921875 -1.421875 10.953125 3.296875 
Q 6 8.015625 6 15.921875 
Q 6 25.140625 12.171875 29.828125 
Q 18.359375 34.515625 30.609375 34.515625 
L 43.21875 34.515625 
L 43.21875 35.40625 
Q 43.21875 41.609375 39.140625 45 
Q 35.0625 48.390625 27.6875 48.390625 
Q 23 48.390625 18.546875 47.265625 
Q 14.109375 46.140625 10.015625 43.890625 
L 10.015625 52.203125 
Q 14.9375 54.109375 19.578125 55.046875 
Q 24.21875 56 28.609375 56 
Q 40.484375 56 46.34375 49.84375 
Q 52.203125 43.703125 52.203125 31.203125 
z
" id="DejaVuSans-97"/>
     <path d="M 14.796875 27.296875 
Q 14.796875 17.390625 18.875 11.75 
Q 22.953125 6.109375 30.078125 6.109375 
Q 37.203125 6.109375 41.296875 11.75 
Q 45.40625 17.390625 45.40625 27.296875 
Q 45.40625 37.203125 41.296875 42.84375 
Q 37.203125 48.484375 30.078125 48.484375 
Q 22.953125 48.484375 18.875 42.84375 
Q 14.796875 37.203125 14.796875 27.296875 
z
M 45.40625 8.203125 
Q 42.578125 3.328125 38.25 0.953125 
Q 33.9375 -1.421875 27.875 -1.421875 
Q 17.96875 -1.421875 11.734375 6.484375 
Q 5.515625 14.40625 5.515625 27.296875 
Q 5.515625 40.1875 11.734375 48.09375 
Q 17.96875 56 27.875 56 
Q 33.9375 56 38.25 53.625 
Q 42.578125 51.265625 45.40625 46.390625 
L 45.40625 54.6875 
L 54.390625 54.6875 
L 54.390625 -20.796875 
L 45.40625 -20.796875 
z
" id="DejaVuSans-113"/>
     <path d="M 8.5 21.578125 
L 8.5 54.6875 
L 17.484375 54.6875 
L 17.484375 21.921875 
Q 17.484375 14.15625 20.5 10.265625 
Q 23.53125 6.390625 29.59375 6.390625 
Q 36.859375 6.390625 41.078125 11.03125 
Q 45.3125 15.671875 45.3125 23.6875 
L 45.3125 54.6875 
L 54.296875 54.6875 
L 54.296875 0 
L 45.3125 0 
L 45.3125 8.40625 
Q 42.046875 3.421875 37.71875 1 
Q 33.40625 -1.421875 27.6875 -1.421875 
Q 18.265625 -1.421875 13.375 4.4375 
Q 8.5 10.296875 8.5 21.578125 
z
M 31.109375 56 
z
" id="DejaVuSans-117"/>
     <path d="M 56.203125 29.59375 
L 56.203125 25.203125 
L 14.890625 25.203125 
Q 15.484375 15.921875 20.484375 11.0625 
Q 25.484375 6.203125 34.421875 6.203125 
Q 39.59375 6.203125 44.453125 7.46875 
Q 49.3125 8.734375 54.109375 11.28125 
L 54.109375 2.78125 
Q 49.265625 0.734375 44.1875 -0.34375 
Q 39.109375 -1.421875 33.890625 -1.421875 
Q 20.796875 -1.421875 13.15625 6.1875 
Q 5.515625 13.8125 5.515625 26.8125 
Q 5.515625 40.234375 12.765625 48.109375 
Q 20.015625 56 32.328125 56 
Q 43.359375 56 49.78125 48.890625 
Q 56.203125 41.796875 56.203125 29.59375 
z
M 47.21875 32.234375 
Q 47.125 39.59375 43.09375 43.984375 
Q 39.0625 48.390625 32.421875 48.390625 
Q 24.90625 48.390625 20.390625 44.140625 
Q 15.875 39.890625 15.1875 32.171875 
z
" id="DejaVuSans-101"/>
     <path d="M 18.3125 70.21875 
L 18.3125 54.6875 
L 36.8125 54.6875 
L 36.8125 47.703125 
L 18.3125 47.703125 
L 18.3125 18.015625 
Q 18.3125 11.328125 20.140625 9.421875 
Q 21.96875 7.515625 27.59375 7.515625 
L 36.8125 7.515625 
L 36.8125 0 
L 27.59375 0 
Q 17.1875 0 13.234375 3.875 
Q 9.28125 7.765625 9.28125 18.015625 
L 9.28125 47.703125 
L 2.6875 47.703125 
L 2.6875 54.6875 
L 9.28125 54.6875 
L 9.28125 70.21875 
z
" id="DejaVuSans-116"/>
     <path d="M 44.28125 53.078125 
L 44.28125 44.578125 
Q 40.484375 46.53125 36.375 47.5 
Q 32.28125 48.484375 27.875 48.484375 
Q 21.1875 48.484375 17.84375 46.4375 
Q 14.5 44.390625 14.5 40.28125 
Q 14.5 37.15625 16.890625 35.375 
Q 19.28125 33.59375 26.515625 31.984375 
L 29.59375 31.296875 
Q 39.15625 29.25 43.1875 25.515625 
Q 47.21875 21.78125 47.21875 15.09375 
Q 47.21875 7.46875 41.1875 3.015625 
Q 35.15625 -1.421875 24.609375 -1.421875 
Q 20.21875 -1.421875 15.453125 -0.5625 
Q 10.6875 0.296875 5.421875 2 
L 5.421875 11.28125 
Q 10.40625 8.6875 15.234375 7.390625 
Q 20.0625 6.109375 24.8125 6.109375 
Q 31.15625 6.109375 34.5625 8.28125 
Q 37.984375 10.453125 37.984375 14.40625 
Q 37.984375 18.0625 35.515625 20.015625 
Q 33.0625 21.96875 24.703125 23.78125 
L 21.578125 24.515625 
Q 13.234375 26.265625 9.515625 29.90625 
Q 5.8125 33.546875 5.8125 39.890625 
Q 5.8125 47.609375 11.28125 51.796875 
Q 16.75 56 26.8125 56 
Q 31.78125 56 36.171875 55.265625 
Q 40.578125 54.546875 44.28125 53.078125 
z
" id="DejaVuSans-115"/>
    </defs>
    <g transform="translate(204.373125 35.472)scale(0.12 -0.12)">
     <use xlink:href="#DejaVuSans-80"/>
     <use x="60.302734" xlink:href="#DejaVuSans-108"/>
     <use x="88.085938" xlink:href="#DejaVuSans-97"/>
     <use x="149.365234" xlink:href="#DejaVuSans-113"/>
     <use x="212.841797" xlink:href="#DejaVuSans-117"/>
     <use x="276.220703" xlink:href="#DejaVuSans-101"/>
     <use x="337.744141" xlink:href="#DejaVuSans-116"/>
     <use x="376.953125" xlink:href="#DejaVuSans-116"/>
     <use x="416.162109" xlink:href="#DejaVuSans-101"/>
     <use x="477.685547" xlink:href="#DejaVuSans-115"/>
    </g>
   </g>
   <g id="legend_1">
    <g id="patch_7">
     <path d="M 245.084062 93.506375 
L 407.72 93.506375 
Q 409.72 93.506375 409.72 91.506375 
L 409.72 48.472 
Q 409.72 46.472 407.72 46.472 
L 245.084062 46.472 
Q 243.084062 46.472 243.084062 48.472 
L 243.084062 91.506375 
Q 243.084062 93.506375 245.084062 93.506375 
z
" style="fill:#ffffff;opacity:0.8;stroke:#cccccc;stroke-linejoin:miter;"/>
    </g>
    <g id="line2d_17">
     <path d="M 247.084062 54.570438 
L 267.084062 54.570438 
" style="fill:none;stroke:#1f77b4;stroke-linecap:square;stroke-width:1.5;"/>
    </g>
    <g id="line2d_18"/>
    <g id="text_15">
     <!-- full 0.5767+/-0.0000 -->
     <defs>
      <path d="M 37.109375 75.984375 
L 37.109375 68.5 
L 28.515625 68.5 
Q 23.6875 68.5 21.796875 66.546875 
Q 19.921875 64.59375 19.921875 59.515625 
L 19.921875 54.6875 
L 34.71875 54.6875 
L 34.71875 47.703125 
L 19.921875 47.703125 
L 19.921875 0 
L 10.890625 0 
L 10.890625 47.703125 
L 2.296875 47.703125 
L 2.296875 54.6875 
L 10.890625 54.6875 
L 10.890625 58.5 
Q 10.890625 67.625 15.140625 71.796875 
Q 19.390625 75.984375 28.609375 75.984375 
z
" id="DejaVuSans-102"/>
      <path id="DejaVuSans-32"/>
      <path d="M 46 62.703125 
L 46 35.5 
L 73.1875 35.5 
L 73.1875 27.203125 
L 46 27.203125 
L 46 0 
L 37.796875 0 
L 37.796875 27.203125 
L 10.59375 27.203125 
L 10.59375 35.5 
L 37.796875 35.5 
L 37.796875 62.703125 
z
" id="DejaVuSans-43"/>
      <path d="M 25.390625 72.90625 
L 33.6875 72.90625 
L 8.296875 -9.28125 
L 0 -9.28125 
z
" id="DejaVuSans-47"/>
      <path d="M 4.890625 31.390625 
L 31.203125 31.390625 
L 31.203125 23.390625 
L 4.890625 23.390625 
z
" id="DejaVuSans-45"/>
     </defs>
     <g transform="translate(275.084062 58.070438)scale(0.1 -0.1)">
      <use xlink:href="#DejaVuSans-102"/>
      <use x="35.205078" xlink:href="#DejaVuSans-117"/>
      <use x="98.583984" xlink:href="#DejaVuSans-108"/>
      <use x="126.367188" xlink:href="#DejaVuSans-108"/>
      <use x="154.150391" xlink:href="#DejaVuSans-32"/>
      <use x="185.9375" xlink:href="#DejaVuSans-48"/>
      <use x="249.560547" xlink:href="#DejaVuSans-46"/>
      <use x="281.347656" xlink:href="#DejaVuSans-53"/>
      <use x="344.970703" xlink:href="#DejaVuSans-55"/>
      <use x="408.59375" xlink:href="#DejaVuSans-54"/>
      <use x="472.216797" xlink:href="#DejaVuSans-55"/>
      <use x="535.839844" xlink:href="#DejaVuSans-43"/>
      <use x="619.628906" xlink:href="#DejaVuSans-47"/>
      <use x="653.320312" xlink:href="#DejaVuSans-45"/>
      <use x="689.404297" xlink:href="#DejaVuSans-48"/>
      <use x="753.027344" xlink:href="#DejaVuSans-46"/>
      <use x="784.814453" xlink:href="#DejaVuSans-48"/>
      <use x="848.4375" xlink:href="#DejaVuSans-48"/>
      <use x="912.060547" xlink:href="#DejaVuSans-48"/>
      <use x="975.683594" xlink:href="#DejaVuSans-48"/>
     </g>
    </g>
    <g id="line2d_19">
     <path d="M 247.084062 69.248563 
L 267.084062 69.248563 
" style="fill:none;stroke:#ff7f0e;stroke-linecap:square;stroke-width:1.5;"/>
    </g>
    <g id="line2d_20"/>
    <g id="text_16">
     <!-- spatial 0.5767+/-0.0000 -->
     <defs>
      <path d="M 18.109375 8.203125 
L 18.109375 -20.796875 
L 9.078125 -20.796875 
L 9.078125 54.6875 
L 18.109375 54.6875 
L 18.109375 46.390625 
Q 20.953125 51.265625 25.265625 53.625 
Q 29.59375 56 35.59375 56 
Q 45.5625 56 51.78125 48.09375 
Q 58.015625 40.1875 58.015625 27.296875 
Q 58.015625 14.40625 51.78125 6.484375 
Q 45.5625 -1.421875 35.59375 -1.421875 
Q 29.59375 -1.421875 25.265625 0.953125 
Q 20.953125 3.328125 18.109375 8.203125 
z
M 48.6875 27.296875 
Q 48.6875 37.203125 44.609375 42.84375 
Q 40.53125 48.484375 33.40625 48.484375 
Q 26.265625 48.484375 22.1875 42.84375 
Q 18.109375 37.203125 18.109375 27.296875 
Q 18.109375 17.390625 22.1875 11.75 
Q 26.265625 6.109375 33.40625 6.109375 
Q 40.53125 6.109375 44.609375 11.75 
Q 48.6875 17.390625 48.6875 27.296875 
z
" id="DejaVuSans-112"/>
      <path d="M 9.421875 54.6875 
L 18.40625 54.6875 
L 18.40625 0 
L 9.421875 0 
z
M 9.421875 75.984375 
L 18.40625 75.984375 
L 18.40625 64.59375 
L 9.421875 64.59375 
z
" id="DejaVuSans-105"/>
     </defs>
     <g transform="translate(275.084062 72.748563)scale(0.1 -0.1)">
      <use xlink:href="#DejaVuSans-115"/>
      <use x="52.099609" xlink:href="#DejaVuSans-112"/>
      <use x="115.576172" xlink:href="#DejaVuSans-97"/>
      <use x="176.855469" xlink:href="#DejaVuSans-116"/>
      <use x="216.064453" xlink:href="#DejaVuSans-105"/>
      <use x="243.847656" xlink:href="#DejaVuSans-97"/>
      <use x="305.126953" xlink:href="#DejaVuSans-108"/>
      <use x="332.910156" xlink:href="#DejaVuSans-32"/>
      <use x="364.697266" xlink:href="#DejaVuSans-48"/>
      <use x="428.320312" xlink:href="#DejaVuSans-46"/>
      <use x="460.107422" xlink:href="#DejaVuSans-53"/>
      <use x="523.730469" xlink:href="#DejaVuSans-55"/>
      <use x="587.353516" xlink:href="#DejaVuSans-54"/>
      <use x="650.976562" xlink:href="#DejaVuSans-55"/>
      <use x="714.599609" xlink:href="#DejaVuSans-43"/>
      <use x="798.388672" xlink:href="#DejaVuSans-47"/>
      <use x="832.080078" xlink:href="#DejaVuSans-45"/>
      <use x="868.164062" xlink:href="#DejaVuSans-48"/>
      <use x="931.787109" xlink:href="#DejaVuSans-46"/>
      <use x="963.574219" xlink:href="#DejaVuSans-48"/>
      <use x="1027.197266" xlink:href="#DejaVuSans-48"/>
      <use x="1090.820312" xlink:href="#DejaVuSans-48"/>
      <use x="1154.443359" xlink:href="#DejaVuSans-48"/>
     </g>
    </g>
    <g id="line2d_21">
     <path d="M 247.084062 83.926688 
L 267.084062 83.926688 
" style="fill:none;stroke:#2ca02c;stroke-linecap:square;stroke-width:1.5;"/>
    </g>
    <g id="line2d_22"/>
    <g id="text_17">
     <!-- temporal0.5767+/-0.0000 -->
     <defs>
      <path d="M 52 44.1875 
Q 55.375 50.25 60.0625 53.125 
Q 64.75 56 71.09375 56 
Q 79.640625 56 84.28125 50.015625 
Q 88.921875 44.046875 88.921875 33.015625 
L 88.921875 0 
L 79.890625 0 
L 79.890625 32.71875 
Q 79.890625 40.578125 77.09375 44.375 
Q 74.3125 48.1875 68.609375 48.1875 
Q 61.625 48.1875 57.5625 43.546875 
Q 53.515625 38.921875 53.515625 30.90625 
L 53.515625 0 
L 44.484375 0 
L 44.484375 32.71875 
Q 44.484375 40.625 41.703125 44.40625 
Q 38.921875 48.1875 33.109375 48.1875 
Q 26.21875 48.1875 22.15625 43.53125 
Q 18.109375 38.875 18.109375 30.90625 
L 18.109375 0 
L 9.078125 0 
L 9.078125 54.6875 
L 18.109375 54.6875 
L 18.109375 46.1875 
Q 21.1875 51.21875 25.484375 53.609375 
Q 29.78125 56 35.6875 56 
Q 41.65625 56 45.828125 52.96875 
Q 50 49.953125 52 44.1875 
z
" id="DejaVuSans-109"/>
      <path d="M 30.609375 48.390625 
Q 23.390625 48.390625 19.1875 42.75 
Q 14.984375 37.109375 14.984375 27.296875 
Q 14.984375 17.484375 19.15625 11.84375 
Q 23.34375 6.203125 30.609375 6.203125 
Q 37.796875 6.203125 41.984375 11.859375 
Q 46.1875 17.53125 46.1875 27.296875 
Q 46.1875 37.015625 41.984375 42.703125 
Q 37.796875 48.390625 30.609375 48.390625 
z
M 30.609375 56 
Q 42.328125 56 49.015625 48.375 
Q 55.71875 40.765625 55.71875 27.296875 
Q 55.71875 13.875 49.015625 6.21875 
Q 42.328125 -1.421875 30.609375 -1.421875 
Q 18.84375 -1.421875 12.171875 6.21875 
Q 5.515625 13.875 5.515625 27.296875 
Q 5.515625 40.765625 12.171875 48.375 
Q 18.84375 56 30.609375 56 
z
" id="DejaVuSans-111"/>
      <path d="M 41.109375 46.296875 
Q 39.59375 47.171875 37.8125 47.578125 
Q 36.03125 48 33.890625 48 
Q 26.265625 48 22.1875 43.046875 
Q 18.109375 38.09375 18.109375 28.8125 
L 18.109375 0 
L 9.078125 0 
L 9.078125 54.6875 
L 18.109375 54.6875 
L 18.109375 46.1875 
Q 20.953125 51.171875 25.484375 53.578125 
Q 30.03125 56 36.53125 56 
Q 37.453125 56 38.578125 55.875 
Q 39.703125 55.765625 41.0625 55.515625 
z
" id="DejaVuSans-114"/>
     </defs>
     <g transform="translate(275.084062 87.426688)scale(0.1 -0.1)">
      <use xlink:href="#DejaVuSans-116"/>
      <use x="39.208984" xlink:href="#DejaVuSans-101"/>
      <use x="100.732422" xlink:href="#DejaVuSans-109"/>
      <use x="198.144531" xlink:href="#DejaVuSans-112"/>
      <use x="261.621094" xlink:href="#DejaVuSans-111"/>
      <use x="322.802734" xlink:href="#DejaVuSans-114"/>
      <use x="363.916016" xlink:href="#DejaVuSans-97"/>
      <use x="425.195312" xlink:href="#DejaVuSans-108"/>
      <use x="452.978516" xlink:href="#DejaVuSans-48"/>
      <use x="516.601562" xlink:href="#DejaVuSans-46"/>
      <use x="548.388672" xlink:href="#DejaVuSans-53"/>
      <use x="612.011719" xlink:href="#DejaVuSans-55"/>
      <use x="675.634766" xlink:href="#DejaVuSans-54"/>
      <use x="739.257812" xlink:href="#DejaVuSans-55"/>
      <use x="802.880859" xlink:href="#DejaVuSans-43"/>
      <use x="886.669922" xlink:href="#DejaVuSans-47"/>
      <use x="920.361328" xlink:href="#DejaVuSans-45"/>
      <use x="956.445312" xlink:href="#DejaVuSans-48"/>
      <use x="1020.068359" xlink:href="#DejaVuSans-46"/>
      <use x="1051.855469" xlink:href="#DejaVuSans-48"/>
      <use x="1115.478516" xlink:href="#DejaVuSans-48"/>
      <use x="1179.101562" xlink:href="#DejaVuSans-48"/>
      <use x="1242.724609" xlink:href="#DejaVuSans-48"/>
     </g>
    </g>
   </g>
  </g>
 </g>
 <defs>
  <clipPath id="pe1e07e16c1">
   <rect height="266.112" width="357.12" x="57.6" y="41.472"/>
  </clipPath>
 </defs>
</svg>
