<?xml version="1.0" encoding="utf-8" standalone="no"?>
<!DOCTYPE svg PUBLIC "-//W3C//DTD SVG 1.1//EN"
  "http://www.w3.org/Graphics/SVG/1.1/DTD/svg11.dtd">
<!-- Created with matplotlib (https://matplotlib.org/) -->
<svg height="345.6pt" version="1.1" viewBox="0 0 460.8 345.6" width="460.8pt" xmlns="http://www.w3.org/2000/svg" xmlns:xlink="http://www.w3.org/1999/xlink">
 <defs>
  <style type="text/css">
*{stroke-linecap:butt;stroke-linejoin:round;}
  </style>
 </defs>
 <g id="figure_1">
  <g id="patch_1">
   <path d="M 0 345.6 
L 460.8 345.6 
L 460.8 0 
L 0 0 
z
" style="fill:#ffffff;"/>
  </g>
  <g id="axes_1">
   <g id="patch_2">
    <path d="M 57.6 307.584 
L 414.72 307.584 
L 414.72 41.472 
L 57.6 41.472 
z
" style="fill:#ffffff;"/>
   </g>
   <g id="matplotlib.axis_1">
    <g id="xtick_1">
     <g id="line2d_1">
      <defs>
       <path d="M 0 0 
L 0 3.5 
" id="m7326a9baba" style="stroke:#000000;stroke-width:0.8;"/>
      </defs>
      <g>
       <use style="stroke:#000000;stroke-width:0.8;" x="73.290733" xlink:href="#m7326a9baba" y="307.584"/>
      </g>
     </g>
     <g id="text_1">
      <!-- 0 -->
      <defs>
       <path d="M 31.78125 66.40625 
Q 24.171875 66.40625 20.328125 58.90625 
Q 16.5 51.421875 16.5 36.375 
Q 16.5 21.390625 20.328125 13.890625 
Q 24.171875 6.390625 31.78125 6.390625 
Q 39.453125 6.390625 43.28125 13.890625 
Q 47.125 21.390625 47.125 36.375 
Q 47.125 51.421875 43.28125 58.90625 
Q 39.453125 66.40625 31.78125 66.40625 
z
M 31.78125 74.21875 
Q 44.046875 74.21875 50.515625 64.515625 
Q 56.984375 54.828125 56.984375 36.375 
Q 56.984375 17.96875 50.515625 8.265625 
Q 44.046875 -1.421875 31.78125 -1.421875 
Q 19.53125 -1.421875 13.0625 8.265625 
Q 6.59375 17.96875 6.59375 36.375 
Q 6.59375 54.828125 13.0625 64.515625 
Q 19.53125 74.21875 31.78125 74.21875 
z
" id="DejaVuSans-48"/>
      </defs>
      <g transform="translate(70.109483 322.182437)scale(0.1 -0.1)">
       <use xlink:href="#DejaVuSans-48"/>
      </g>
     </g>
    </g>
    <g id="xtick_2">
     <g id="line2d_2">
      <g>
       <use style="stroke:#000000;stroke-width:0.8;" x="127.490156" xlink:href="#m7326a9baba" y="307.584"/>
      </g>
     </g>
     <g id="text_2">
      <!-- 100 -->
      <defs>
       <path d="M 12.40625 8.296875 
L 28.515625 8.296875 
L 28.515625 63.921875 
L 10.984375 60.40625 
L 10.984375 69.390625 
L 28.421875 72.90625 
L 38.28125 72.90625 
L 38.28125 8.296875 
L 54.390625 8.296875 
L 54.390625 0 
L 12.40625 0 
z
" id="DejaVuSans-49"/>
      </defs>
      <g transform="translate(117.946406 322.182437)scale(0.1 -0.1)">
       <use xlink:href="#DejaVuSans-49"/>
       <use x="63.623047" xlink:href="#DejaVuSans-48"/>
       <use x="127.246094" xlink:href="#DejaVuSans-48"/>
      </g>
     </g>
    </g>
    <g id="xtick_3">
     <g id="line2d_3">
      <g>
       <use style="stroke:#000000;stroke-width:0.8;" x="181.68958" xlink:href="#m7326a9baba" y="307.584"/>
      </g>
     </g>
     <g id="text_3">
      <!-- 200 -->
      <defs>
       <path d="M 19.1875 8.296875 
L 53.609375 8.296875 
L 53.609375 0 
L 7.328125 0 
L 7.328125 8.296875 
Q 12.9375 14.109375 22.625 23.890625 
Q 32.328125 33.6875 34.8125 36.53125 
Q 39.546875 41.84375 41.421875 45.53125 
Q 43.3125 49.21875 43.3125 52.78125 
Q 43.3125 58.59375 39.234375 62.25 
Q 35.15625 65.921875 28.609375 65.921875 
Q 23.96875 65.921875 18.8125 64.3125 
Q 13.671875 62.703125 7.8125 59.421875 
L 7.8125 69.390625 
Q 13.765625 71.78125 18.9375 73 
Q 24.125 74.21875 28.421875 74.21875 
Q 39.75 74.21875 46.484375 68.546875 
Q 53.21875 62.890625 53.21875 53.421875 
Q 53.21875 48.921875 51.53125 44.890625 
Q 49.859375 40.875 45.40625 35.40625 
Q 44.1875 33.984375 37.640625 27.21875 
Q 31.109375 20.453125 19.1875 8.296875 
z
" id="DejaVuSans-50"/>
      </defs>
      <g transform="translate(172.14583 322.182437)scale(0.1 -0.1)">
       <use xlink:href="#DejaVuSans-50"/>
       <use x="63.623047" xlink:href="#DejaVuSans-48"/>
       <use x="127.246094" xlink:href="#DejaVuSans-48"/>
      </g>
     </g>
    </g>
    <g id="xtick_4">
     <g id="line2d_4">
      <g>
       <use style="stroke:#000000;stroke-width:0.8;" x="235.889003" xlink:href="#m7326a9baba" y="307.584"/>
      </g>
     </g>
     <g id="text_4">
      <!-- 300 -->
      <defs>
       <path d="M 40.578125 39.3125 
Q 47.65625 37.796875 51.625 33 
Q 55.609375 28.21875 55.609375 21.1875 
Q 55.609375 10.40625 48.1875 4.484375 
Q 40.765625 -1.421875 27.09375 -1.421875 
Q 22.515625 -1.421875 17.65625 -0.515625 
Q 12.796875 0.390625 7.625 2.203125 
L 7.625 11.71875 
Q 11.71875 9.328125 16.59375 8.109375 
Q 21.484375 6.890625 26.8125 6.890625 
Q 36.078125 6.890625 40.9375 10.546875 
Q 45.796875 14.203125 45.796875 21.1875 
Q 45.796875 27.640625 41.28125 31.265625 
Q 36.765625 34.90625 28.71875 34.90625 
L 20.21875 34.90625 
L 20.21875 43.015625 
L 29.109375 43.015625 
Q 36.375 43.015625 40.234375 45.921875 
Q 44.09375 48.828125 44.09375 54.296875 
Q 44.09375 59.90625 40.109375 62.90625 
Q 36.140625 65.921875 28.71875 65.921875 
Q 24.65625 65.921875 20.015625 65.03125 
Q 15.375 64.15625 9.8125 62.3125 
L 9.8125 71.09375 
Q 15.4375 72.65625 20.34375 73.4375 
Q 25.25 74.21875 29.59375 74.21875 
Q 40.828125 74.21875 47.359375 69.109375 
Q 53.90625 64.015625 53.90625 55.328125 
Q 53.90625 49.265625 50.4375 45.09375 
Q 46.96875 40.921875 40.578125 39.3125 
z
" id="DejaVuSans-51"/>
      </defs>
      <g transform="translate(226.345253 322.182437)scale(0.1 -0.1)">
       <use xlink:href="#DejaVuSans-51"/>
       <use x="63.623047" xlink:href="#DejaVuSans-48"/>
       <use x="127.246094" xlink:href="#DejaVuSans-48"/>
      </g>
     </g>
    </g>
    <g id="xtick_5">
     <g id="line2d_5">
      <g>
       <use style="stroke:#000000;stroke-width:0.8;" x="290.088426" xlink:href="#m7326a9baba" y="307.584"/>
      </g>
     </g>
     <g id="text_5">
      <!-- 400 -->
      <defs>
       <path d="M 37.796875 64.3125 
L 12.890625 25.390625 
L 37.796875 25.390625 
z
M 35.203125 72.90625 
L 47.609375 72.90625 
L 47.609375 25.390625 
L 58.015625 25.390625 
L 58.015625 17.1875 
L 47.609375 17.1875 
L 47.609375 0 
L 37.796875 0 
L 37.796875 17.1875 
L 4.890625 17.1875 
L 4.890625 26.703125 
z
" id="DejaVuSans-52"/>
      </defs>
      <g transform="translate(280.544676 322.182437)scale(0.1 -0.1)">
       <use xlink:href="#DejaVuSans-52"/>
       <use x="63.623047" xlink:href="#DejaVuSans-48"/>
       <use x="127.246094" xlink:href="#DejaVuSans-48"/>
      </g>
     </g>
    </g>
    <g id="xtick_6">
     <g id="line2d_6">
      <g>
       <use style="stroke:#000000;stroke-width:0.8;" x="344.287849" xlink:href="#m7326a9baba" y="307.584"/>
      </g>
     </g>
     <g id="text_6">
      <!-- 500 -->
      <defs>
       <path d="M 10.796875 72.90625 
L 49.515625 72.90625 
L 49.515625 64.59375 
L 19.828125 64.59375 
L 19.828125 46.734375 
Q 21.96875 47.46875 24.109375 47.828125 
Q 26.265625 48.1875 28.421875 48.1875 
Q 40.625 48.1875 47.75 41.5 
Q 54.890625 34.8125 54.890625 23.390625 
Q 54.890625 11.625 47.5625 5.09375 
Q 40.234375 -1.421875 26.90625 -1.421875 
Q 22.3125 -1.421875 17.546875 -0.640625 
Q 12.796875 0.140625 7.71875 1.703125 
L 7.71875 11.625 
Q 12.109375 9.234375 16.796875 8.0625 
Q 21.484375 6.890625 26.703125 6.890625 
Q 35.15625 6.890625 40.078125 11.328125 
Q 45.015625 15.765625 45.015625 23.390625 
Q 45.015625 31 40.078125 35.4375 
Q 35.15625 39.890625 26.703125 39.890625 
Q 22.75 39.890625 18.8125 39.015625 
Q 14.890625 38.140625 10.796875 36.28125 
z
" id="DejaVuSans-53"/>
      </defs>
      <g transform="translate(334.744099 322.182437)scale(0.1 -0.1)">
       <use xlink:href="#DejaVuSans-53"/>
       <use x="63.623047" xlink:href="#DejaVuSans-48"/>
       <use x="127.246094" xlink:href="#DejaVuSans-48"/>
      </g>
     </g>
    </g>
    <g id="xtick_7">
     <g id="line2d_7">
      <g>
       <use style="stroke:#000000;stroke-width:0.8;" x="398.487273" xlink:href="#m7326a9baba" y="307.584"/>
      </g>
     </g>
     <g id="text_7">
      <!-- 600 -->
      <defs>
       <path d="M 33.015625 40.375 
Q 26.375 40.375 22.484375 35.828125 
Q 18.609375 31.296875 18.609375 23.390625 
Q 18.609375 15.53125 22.484375 10.953125 
Q 26.375 6.390625 33.015625 6.390625 
Q 39.65625 6.390625 43.53125 10.953125 
Q 47.40625 15.53125 47.40625 23.390625 
Q 47.40625 31.296875 43.53125 35.828125 
Q 39.65625 40.375 33.015625 40.375 
z
M 52.59375 71.296875 
L 52.59375 62.3125 
Q 48.875 64.0625 45.09375 64.984375 
Q 41.3125 65.921875 37.59375 65.921875 
Q 27.828125 65.921875 22.671875 59.328125 
Q 17.53125 52.734375 16.796875 39.40625 
Q 19.671875 43.65625 24.015625 45.921875 
Q 28.375 48.1875 33.59375 48.1875 
Q 44.578125 48.1875 50.953125 41.515625 
Q 57.328125 34.859375 57.328125 23.390625 
Q 57.328125 12.15625 50.6875 5.359375 
Q 44.046875 -1.421875 33.015625 -1.421875 
Q 20.359375 -1.421875 13.671875 8.265625 
Q 6.984375 17.96875 6.984375 36.375 
Q 6.984375 53.65625 15.1875 63.9375 
Q 23.390625 74.21875 37.203125 74.21875 
Q 40.921875 74.21875 44.703125 73.484375 
Q 48.484375 72.75 52.59375 71.296875 
z
" id="DejaVuSans-54"/>
      </defs>
      <g transform="translate(388.943523 322.182437)scale(0.1 -0.1)">
       <use xlink:href="#DejaVuSans-54"/>
       <use x="63.623047" xlink:href="#DejaVuSans-48"/>
       <use x="127.246094" xlink:href="#DejaVuSans-48"/>
      </g>
     </g>
    </g>
   </g>
   <g id="matplotlib.axis_2">
    <g id="ytick_1">
     <g id="line2d_8">
      <defs>
       <path d="M 0 0 
L -3.5 0 
" id="mec08ad25a5" style="stroke:#000000;stroke-width:0.8;"/>
      </defs>
      <g>
       <use style="stroke:#000000;stroke-width:0.8;" x="57.6" xlink:href="#mec08ad25a5" y="269.757124"/>
      </g>
     </g>
     <g id="text_8">
      <!-- −0.0010 -->
      <defs>
       <path d="M 10.59375 35.5 
L 73.1875 35.5 
L 73.1875 27.203125 
L 10.59375 27.203125 
z
" id="DejaVuSans-8722"/>
       <path d="M 10.6875 12.40625 
L 21 12.40625 
L 21 0 
L 10.6875 0 
z
" id="DejaVuSans-46"/>
      </defs>
      <g transform="translate(7.229687 273.556343)scale(0.1 -0.1)">
       <use xlink:href="#DejaVuSans-8722"/>
       <use x="83.789062" xlink:href="#DejaVuSans-48"/>
       <use x="147.412109" xlink:href="#DejaVuSans-46"/>
       <use x="179.199219" xlink:href="#DejaVuSans-48"/>
       <use x="242.822266" xlink:href="#DejaVuSans-48"/>
       <use x="306.445312" xlink:href="#DejaVuSans-49"/>
       <use x="370.068359" xlink:href="#DejaVuSans-48"/>
      </g>
     </g>
    </g>
    <g id="ytick_2">
     <g id="line2d_9">
      <g>
       <use style="stroke:#000000;stroke-width:0.8;" x="57.6" xlink:href="#mec08ad25a5" y="221.753325"/>
      </g>
     </g>
     <g id="text_9">
      <!-- −0.0005 -->
      <g transform="translate(7.229687 225.552544)scale(0.1 -0.1)">
       <use xlink:href="#DejaVuSans-8722"/>
       <use x="83.789062" xlink:href="#DejaVuSans-48"/>
       <use x="147.412109" xlink:href="#DejaVuSans-46"/>
       <use x="179.199219" xlink:href="#DejaVuSans-48"/>
       <use x="242.822266" xlink:href="#DejaVuSans-48"/>
       <use x="306.445312" xlink:href="#DejaVuSans-48"/>
       <use x="370.068359" xlink:href="#DejaVuSans-53"/>
      </g>
     </g>
    </g>
    <g id="ytick_3">
     <g id="line2d_10">
      <g>
       <use style="stroke:#000000;stroke-width:0.8;" x="57.6" xlink:href="#mec08ad25a5" y="173.749526"/>
      </g>
     </g>
     <g id="text_10">
      <!-- 0.0000 -->
      <g transform="translate(15.609375 177.548745)scale(0.1 -0.1)">
       <use xlink:href="#DejaVuSans-48"/>
       <use x="63.623047" xlink:href="#DejaVuSans-46"/>
       <use x="95.410156" xlink:href="#DejaVuSans-48"/>
       <use x="159.033203" xlink:href="#DejaVuSans-48"/>
       <use x="222.65625" xlink:href="#DejaVuSans-48"/>
       <use x="286.279297" xlink:href="#DejaVuSans-48"/>
      </g>
     </g>
    </g>
    <g id="ytick_4">
     <g id="line2d_11">
      <g>
       <use style="stroke:#000000;stroke-width:0.8;" x="57.6" xlink:href="#mec08ad25a5" y="125.745727"/>
      </g>
     </g>
     <g id="text_11">
      <!-- 0.0005 -->
      <g transform="translate(15.609375 129.544945)scale(0.1 -0.1)">
       <use xlink:href="#DejaVuSans-48"/>
       <use x="63.623047" xlink:href="#DejaVuSans-46"/>
       <use x="95.410156" xlink:href="#DejaVuSans-48"/>
       <use x="159.033203" xlink:href="#DejaVuSans-48"/>
       <use x="222.65625" xlink:href="#DejaVuSans-48"/>
       <use x="286.279297" xlink:href="#DejaVuSans-53"/>
      </g>
     </g>
    </g>
    <g id="ytick_5">
     <g id="line2d_12">
      <g>
       <use style="stroke:#000000;stroke-width:0.8;" x="57.6" xlink:href="#mec08ad25a5" y="77.741927"/>
      </g>
     </g>
     <g id="text_12">
      <!-- 0.0010 -->
      <g transform="translate(15.609375 81.541146)scale(0.1 -0.1)">
       <use xlink:href="#DejaVuSans-48"/>
       <use x="63.623047" xlink:href="#DejaVuSans-46"/>
       <use x="95.410156" xlink:href="#DejaVuSans-48"/>
       <use x="159.033203" xlink:href="#DejaVuSans-48"/>
       <use x="222.65625" xlink:href="#DejaVuSans-49"/>
       <use x="286.279297" xlink:href="#DejaVuSans-48"/>
      </g>
     </g>
    </g>
   </g>
   <g id="line2d_13">
    <path clip-path="url(#pca1aca6d18)" d="M 73.832727 4.171446 
L 74.374722 34.090489 
L 74.916716 204.924555 
L 75.45871 166.382736 
L 76.000704 74.845527 
L 76.542698 214.644012 
L 77.084693 266.006487 
L 77.626687 298.733408 
L 78.168681 126.229831 
L 78.710675 182.271661 
L 79.25267 149.398921 
L 79.794664 272.732852 
L 80.336658 177.963128 
L 80.878652 202.454743 
L 81.420647 108.571701 
L 81.962641 138.393177 
L 82.504635 123.792753 
L 83.046629 144.874174 
L 83.588623 241.062167 
L 84.130618 290.936315 
L 84.672612 141.203922 
L 85.214606 219.000785 
L 85.7566 112.609983 
L 86.298595 188.847392 
L 86.840589 222.581906 
L 87.382583 198.103014 
L 87.924577 111.48286 
L 88.466572 108.123379 
L 89.008566 156.353179 
L 89.55056 233.102934 
L 90.092554 336.579794 
L 90.634548 105.784194 
L 91.176543 151.532811 
L 91.718537 98.491127 
L 92.260531 128.061244 
L 92.802525 76.556506 
L 93.34452 152.240538 
L 93.886514 192.479993 
L 94.428508 142.307661 
L 94.970502 168.385654 
L 95.512497 285.518599 
L 96.054491 190.59683 
L 96.596485 120.440579 
L 97.138479 171.777869 
L 97.680474 246.282928 
L 98.222468 62.085658 
L 98.764462 131.854618 
L 99.306456 119.094953 
L 99.84845 141.065917 
L 100.390445 258.529356 
L 100.932439 238.430901 
L 101.474433 94.492018 
L 102.016427 139.978866 
L 102.558422 152.240589 
L 103.100416 254.555632 
L 103.64241 228.432231 
L 104.184404 95.346887 
L 104.726399 138.84292 
L 105.268393 80.272737 
L 105.810387 97.38702 
L 106.352381 74.655244 
L 107.43637 201.390288 
L 107.978364 208.184774 
L 108.520358 128.828849 
L 109.062352 215.85344 
L 109.604347 124.062769 
L 110.688335 196.077545 
L 111.230329 100.009673 
L 111.772324 197.139196 
L 112.314318 166.955489 
L 112.856312 230.223956 
L 113.398306 112.607833 
L 113.940301 195.249855 
L 114.482295 156.339052 
L 115.024289 201.10842 
L 115.566283 71.413909 
L 116.108277 226.777599 
L 116.650272 166.221517 
L 117.192266 70.758034 
L 117.73426 110.150055 
L 118.276254 224.81822 
L 118.818249 219.621661 
L 119.360243 260.683239 
L 119.902237 255.131401 
L 120.986226 186.827957 
L 121.52822 220.730218 
L 122.070214 72.622336 
L 122.612208 195.44863 
L 123.154202 83.540181 
L 123.696197 221.690226 
L 124.238191 203.009037 
L 124.780185 165.878717 
L 125.322179 159.436651 
L 125.864174 162.830092 
L 126.406168 193.296181 
L 126.948162 32.888806 
L 127.490156 201.286586 
L 128.032151 215.014645 
L 128.574145 216.731945 
L 129.116139 142.650758 
L 129.658133 134.054053 
L 130.200127 134.054053 
L 130.742122 209.981423 
L 131.284116 168.644597 
L 131.82611 263.488838 
L 132.368104 173.033205 
L 132.910099 153.925454 
L 133.994087 196.755655 
L 134.536081 168.294751 
L 135.078076 167.986353 
L 135.62007 84.733598 
L 136.162064 183.16907 
L 137.246053 109.320045 
L 137.788047 226.760778 
L 138.330041 91.224637 
L 138.872035 150.144055 
L 139.414029 98.437341 
L 139.956024 127.324261 
L 140.498018 105.665873 
L 141.040012 177.173542 
L 141.582006 67.254596 
L 142.665995 195.886384 
L 143.207989 172.29369 
L 143.749983 191.554239 
L 144.291978 161.249826 
L 144.825245 346.6 
M 144.847106 346.6 
L 145.91796 114.81933 
L 146.459954 137.915193 
L 147.001949 143.551597 
L 148.085937 213.325648 
L 148.627931 207.02312 
L 149.169926 194.219046 
L 150.253914 295.999309 
L 150.795908 71.980769 
L 151.337903 193.9362 
L 151.879897 270.103602 
L 152.421891 203.684774 
L 152.963885 168.09611 
L 153.505879 83.53113 
L 154.047874 214.123546 
L 154.589868 197.796674 
L 155.673856 319.449779 
L 156.215851 175.81342 
L 156.757845 183.526875 
L 157.299839 289.340805 
L 157.841833 182.902042 
L 158.383828 182.114025 
L 158.925822 233.121155 
L 159.467816 189.944956 
L 160.00981 123.76826 
L 161.093799 272.094579 
L 161.635793 131.598929 
L 162.177787 128.448668 
L 162.719781 173.013814 
L 163.261776 228.949578 
L 163.80377 175.917515 
L 164.345764 149.97728 
L 164.887758 304.082222 
L 165.429753 175.043905 
L 165.971747 232.572288 
L 166.513741 79.143946 
L 167.055735 170.908245 
L 167.59773 105.385326 
L 168.139724 258.584794 
L 168.681718 299.176384 
L 169.223712 168.504364 
L 169.765706 177.772439 
L 170.307701 182.286569 
L 170.849695 213.145041 
L 171.391689 181.602867 
L 171.933683 159.358057 
L 172.475678 181.529548 
L 173.017672 48.531425 
L 173.559666 126.181742 
L 174.10166 301.412978 
L 174.643655 27.82042 
L 175.185649 133.89731 
L 175.727643 84.192348 
L 176.269637 84.192348 
L 176.811632 174.793534 
L 177.353626 115.513603 
L 177.89562 103.183031 
L 178.437614 174.26319 
L 178.979608 183.350701 
L 179.521603 186.703978 
L 180.063597 261.368449 
L 180.605591 292.981341 
L 181.147585 76.328423 
L 181.68958 188.543083 
L 182.231574 251.279437 
L 182.773568 249.120132 
L 183.315562 194.205174 
L 183.857557 70.117113 
L 184.399551 194.596974 
L 184.941545 76.063894 
L 185.483539 219.364676 
L 186.025533 78.740102 
L 186.567528 183.30823 
L 187.109522 101.079158 
L 187.651516 247.300744 
L 188.19351 249.537286 
L 188.735505 189.070187 
L 189.277499 251.590685 
L 189.819493 123.051398 
L 190.903482 29.376689 
L 191.445476 139.794374 
L 191.98747 275.992326 
L 192.529464 155.997529 
L 193.071458 155.997529 
L 193.613453 236.006395 
L 194.155447 163.231282 
L 194.697441 251.845476 
L 195.239435 160.97943 
L 195.78143 101.230567 
L 196.323424 301.712734 
L 196.865418 275.019962 
L 197.949407 123.232301 
L 198.491401 104.88833 
L 199.033395 73.349235 
L 199.575389 73.349235 
L 200.117384 228.535954 
L 200.659378 115.563363 
L 201.201372 206.898477 
L 201.743366 63.339455 
L 202.28536 248.042654 
L 202.827355 141.853625 
L 203.369349 96.687065 
L 203.911343 271.494112 
L 204.453337 241.814446 
L 204.995332 117.597205 
L 205.537326 126.016743 
L 206.621314 310.559015 
L 207.163309 181.470547 
L 207.705303 117.599422 
L 208.247297 236.418974 
L 208.789291 150.52323 
L 209.331285 160.085067 
L 209.87328 330.114457 
L 210.415274 99.833272 
L 211.499262 231.334747 
L 212.041257 231.334747 
L 212.583251 148.087928 
L 213.125245 148.087928 
L 213.667239 185.730681 
L 214.209234 240.286678 
L 214.751228 189.954265 
L 215.293222 164.052341 
L 215.835216 42.599936 
L 216.377211 32.086184 
L 216.919205 176.301505 
L 217.461199 182.770198 
L 218.003193 158.217331 
L 218.545187 46.533252 
L 219.087182 112.978842 
L 219.629176 112.978842 
L 220.17117 84.440405 
L 220.713164 185.949359 
L 221.255159 64.22974 
L 221.797153 323.416532 
L 222.339147 265.825132 
L 222.881141 338.74981 
L 223.96513 142.364449 
L 224.507124 108.197645 
L 225.049118 175.365373 
L 225.591112 109.496274 
L 226.133107 268.742699 
L 226.675101 267.428519 
L 227.217095 163.23021 
L 227.759089 177.253565 
L 228.301084 155.560485 
L 228.843078 246.654167 
L 229.385072 180.410397 
L 229.927066 86.160886 
L 230.469061 300.924012 
L 231.011055 204.223154 
L 231.553049 206.793518 
L 232.095043 162.495933 
L 232.637037 162.495933 
L 233.179032 179.910994 
L 233.721026 184.190344 
L 234.26302 202.142092 
L 234.805014 226.843171 
L 235.347009 72.024926 
L 235.87079 346.6 
M 235.913609 346.6 
L 236.430997 145.845772 
L 236.972991 203.205575 
L 237.514986 172.040477 
L 238.05698 122.721826 
L 238.598974 204.056006 
L 239.140968 183.614559 
L 239.682963 185.147993 
L 240.224957 219.142655 
L 240.766951 231.528062 
L 241.308945 159.814706 
L 241.850939 230.477573 
L 242.392934 247.13513 
L 242.934928 62.893986 
L 243.476922 237.9021 
L 244.018916 130.093268 
L 244.560911 111.788745 
L 245.102905 203.809241 
L 245.644899 211.429224 
L 246.186893 171.565229 
L 246.728888 170.315299 
L 247.270882 238.978287 
L 247.812876 218.561269 
L 248.35487 230.30925 
L 248.896864 167.305176 
L 249.438859 170.258332 
L 249.980853 98.937614 
L 250.522847 132.757897 
L 251.064841 132.809832 
L 251.606836 307.432325 
L 252.14883 200.244645 
L 252.690824 165.754254 
L 253.232818 113.243336 
L 253.774813 171.852521 
L 254.316807 89.950325 
L 254.858801 148.63183 
L 255.400795 240.819611 
L 255.942789 123.859224 
L 256.484784 184.238039 
L 257.026778 171.925898 
L 257.568772 115.51928 
L 258.110766 203.144476 
L 258.652761 186.740603 
L 259.194755 27.71824 
L 259.736749 122.16189 
L 260.278743 194.948216 
L 260.820738 131.783988 
L 261.362732 177.31643 
L 261.904726 158.939204 
L 262.44672 169.309535 
L 262.988715 231.393864 
L 263.530709 119.702291 
L 264.072703 44.633567 
L 264.614697 145.778518 
L 265.156691 121.023753 
L 265.698686 39.715366 
L 266.782674 259.608166 
L 267.324668 177.599778 
L 267.866663 281.509702 
L 268.408657 46.653984 
L 268.950651 221.110034 
L 269.492645 84.962417 
L 270.03464 84.111665 
L 270.576634 224.142118 
L 271.118628 115.432133 
L 271.660622 192.440229 
L 272.202616 213.380135 
L 272.744611 74.019238 
L 273.286605 218.255429 
L 273.828599 286.759067 
L 274.370593 231.363991 
L 274.912588 97.01958 
L 275.454582 133.451714 
L 275.996576 218.595862 
L 276.53857 274.522783 
L 277.080565 155.099079 
L 277.622559 182.851983 
L 278.164553 258.398367 
L 278.706547 215.030022 
L 279.248542 249.210569 
L 279.790536 82.554805 
L 280.33253 130.247778 
L 281.416518 330.031062 
L 281.958513 330.031062 
L 282.500507 128.058194 
L 283.042501 157.61448 
L 283.584495 157.61448 
L 284.12649 160.820697 
L 285.210478 141.956486 
L 285.752472 118.036832 
L 286.294467 173.08964 
L 286.836461 166.596025 
L 287.378455 87.801551 
L 287.920449 95.848534 
L 289.004438 202.070323 
L 289.546432 204.331945 
L 290.088426 264.271115 
L 290.63042 20.516013 
L 291.172415 114.627212 
L 291.714409 142.326483 
L 292.256403 108.930862 
L 292.798397 279.200424 
L 293.340392 172.577756 
L 293.882386 218.340257 
L 294.42438 109.641493 
L 294.966374 166.843739 
L 295.508368 207.659438 
L 296.050363 158.996092 
L 296.592357 136.422309 
L 297.134351 222.865772 
L 297.676345 273.500614 
L 298.21834 176.527155 
L 298.760334 233.42899 
L 299.302328 233.42899 
L 299.844322 198.885919 
L 300.386317 199.740677 
L 300.928311 67.180949 
L 301.470305 176.448503 
L 302.012299 213.580357 
L 302.554294 226.981792 
L 303.096288 144.221349 
L 303.638282 287.39225 
L 304.180276 230.256601 
L 304.72227 140.896552 
L 305.264265 273.499643 
L 305.806259 168.721625 
L 306.348253 197.409349 
L 306.890247 63.460736 
L 307.974236 291.21382 
L 308.51623 186.218965 
L 309.058224 212.479411 
L 309.600219 189.424766 
L 310.142213 246.120745 
L 310.684207 172.280135 
L 311.226201 174.886631 
L 311.768195 55.122881 
L 312.31019 190.91545 
L 312.852184 190.91545 
L 313.394178 141.834828 
L 313.936172 244.194813 
L 314.478167 194.689745 
L 315.020161 249.664743 
L 315.562155 194.700413 
L 316.104149 161.356845 
L 316.646144 159.817864 
L 317.188138 27.770005 
L 317.730132 177.081449 
L 318.272126 107.639514 
L 318.814121 154.849659 
L 319.356115 212.602828 
L 319.898109 143.886932 
L 320.440103 199.861621 
L 320.982097 224.683693 
L 321.524092 159.770232 
L 322.066086 165.621765 
L 322.60808 176.226876 
L 323.150074 256.012748 
L 323.692069 204.215666 
L 324.234063 218.852244 
L 324.776057 93.431236 
L 325.318051 124.627972 
L 325.860046 215.513495 
L 326.40204 174.871498 
L 326.944034 149.51395 
L 327.486028 100.805933 
L 328.028022 136.61213 
L 328.570017 150.929072 
L 329.112011 315.88529 
L 329.654005 332.221274 
L 330.195999 140.575829 
L 331.279988 238.373122 
L 331.821982 213.611153 
L 332.363976 124.912726 
L 332.905971 301.44071 
L 333.447965 103.405612 
L 333.989959 103.405612 
L 334.531953 152.791458 
L 335.024135 -1 
M 335.099193 -1 
L 335.615942 317.59357 
L 336.157936 191.983237 
L 336.69993 251.658431 
L 337.241924 251.658431 
L 337.783919 233.700174 
L 338.325913 158.072473 
L 338.867907 208.607358 
L 339.409901 225.934035 
L 339.951896 286.061204 
L 340.49389 105.600064 
L 341.035884 305.413988 
L 341.577878 151.542539 
L 342.119873 168.288022 
L 342.661867 168.288022 
L 343.203861 208.246928 
L 343.745855 55.956033 
L 344.287849 130.438484 
L 345.371838 308.880114 
L 345.913832 210.526672 
L 346.455826 55.199878 
L 346.997821 201.53299 
L 347.539815 206.91502 
L 348.081809 188.693386 
L 348.623803 231.81762 
L 349.165798 185.050827 
L 349.707792 56.042917 
L 350.249786 56.042917 
L 350.79178 243.687691 
L 351.333774 131.442309 
L 351.875769 204.009873 
L 352.417763 237.741452 
L 352.959757 179.514224 
L 353.501751 164.493119 
L 354.043746 160.538154 
L 354.58574 217.003724 
L 355.127734 253.315987 
L 355.669728 273.98049 
L 356.211723 218.058354 
L 356.753717 42.051707 
L 357.295711 163.344397 
L 357.837705 69.810757 
L 358.379699 248.673823 
L 358.921694 110.892509 
L 359.463688 142.433078 
L 360.005682 204.487124 
L 360.547676 142.029755 
L 361.089671 236.024232 
L 361.631665 103.161019 
L 362.173659 103.437689 
L 362.715653 93.557695 
L 363.257648 104.412586 
L 363.799642 49.619578 
L 364.341636 227.224063 
L 364.88363 161.472401 
L 365.425625 234.52569 
L 365.967619 267.614188 
L 366.509613 163.726994 
L 367.051607 151.872885 
L 367.593601 244.463651 
L 368.135596 107.681252 
L 368.67759 225.098618 
L 369.219584 152.141089 
L 369.761578 232.564582 
L 370.303573 137.390271 
L 370.845567 187.511226 
L 371.387561 113.05107 
L 371.929555 251.070358 
L 372.47155 227.474025 
L 373.013544 55.71174 
L 373.555538 323.334977 
L 374.097532 179.401584 
L 374.639526 209.621878 
L 375.181521 211.199601 
L 375.723515 231.744583 
L 376.265509 202.074098 
L 376.807503 73.606321 
L 377.349498 153.742173 
L 377.891492 140.518693 
L 378.433486 74.732922 
L 378.97548 112.964649 
L 380.059469 254.970273 
L 380.601463 101.219447 
L 381.143457 60.39476 
L 381.685452 168.583118 
L 382.227446 113.45962 
L 382.76944 251.326832 
L 383.311434 210.099354 
L 383.853428 188.836235 
L 384.395423 188.836235 
L 384.937417 56.726912 
L 385.479411 100.164671 
L 386.021405 168.291416 
L 386.5634 168.279064 
L 387.105394 201.130464 
L 387.647388 138.4771 
L 388.731377 340.160041 
L 389.273371 157.549595 
L 389.815365 96.916152 
L 390.357359 230.845864 
L 390.899353 82.221946 
L 391.441348 187.540084 
L 391.983342 115.591163 
L 392.525336 229.465209 
L 393.06733 70.786392 
L 393.609325 51.784941 
L 394.151319 277.368748 
L 394.693313 264.340447 
L 395.235307 164.181169 
L 396.319296 119.321356 
L 396.86129 119.321356 
L 397.403284 73.350089 
L 397.945278 41.500272 
L 398.487273 267.862153 
L 398.487273 267.862153 
" style="fill:none;stroke:#1f77b4;stroke-linecap:square;stroke-width:1.5;"/>
   </g>
   <g id="line2d_14">
    <path clip-path="url(#pca1aca6d18)" d="M 75.036083 -1 
L 76.000704 127.451272 
L 76.542698 148.598207 
L 77.084693 204.017819 
L 77.626687 184.11408 
L 78.168681 156.642689 
L 78.710675 41.697448 
L 79.25267 134.018813 
L 79.794664 206.345884 
L 80.336658 122.559994 
L 80.878652 147.717412 
L 81.420647 198.53936 
L 81.962641 102.29802 
L 82.504635 119.097829 
L 83.046629 207.262423 
L 83.588623 223.088592 
L 84.130618 25.609784 
L 85.214606 182.589915 
L 85.7566 156.768517 
L 86.298595 57.532972 
L 86.840589 175.680145 
L 87.382583 115.431237 
L 87.924577 144.434058 
L 88.466572 257.82339 
L 89.008566 197.476391 
L 89.55056 179.309523 
L 90.092554 57.873568 
L 90.634548 44.824415 
L 91.176543 237.339738 
L 91.718537 145.978597 
L 92.260531 221.515348 
L 92.802525 242.767809 
L 93.886514 75.174357 
L 94.428508 169.983588 
L 94.970502 139.780026 
L 95.512497 176.918889 
L 96.054491 235.886057 
L 96.596485 213.171669 
L 97.138479 38.63453 
L 97.680474 265.267818 
L 98.222468 192.559494 
L 98.764462 230.805963 
L 99.306456 45.348284 
L 99.84845 260.647626 
L 100.390445 212.483447 
L 100.932439 198.317474 
L 101.474433 241.570292 
L 102.016427 105.636546 
L 102.558422 81.843343 
L 103.100416 179.246253 
L 104.726399 198.505571 
L 105.268393 198.844601 
L 105.810387 177.791365 
L 106.352381 239.634069 
L 106.894375 29.738029 
L 107.43637 126.487167 
L 107.978364 125.64665 
L 108.520358 148.998744 
L 109.062352 217.122948 
L 109.604347 269.85818 
L 110.146341 229.155996 
L 110.688335 150.926858 
L 111.230329 120.757337 
L 111.772324 189.461246 
L 112.314318 295.440786 
L 112.856312 230.654819 
L 113.398306 214.965042 
L 113.940301 117.671336 
L 114.482295 52.753576 
L 115.024289 151.633646 
L 115.566283 279.149594 
L 116.108277 242.990153 
L 116.650272 302.826193 
L 117.192266 289.156627 
L 117.73426 52.570141 
L 118.276254 192.501799 
L 118.818249 114.08601 
L 119.360243 142.200118 
L 119.902237 288.096636 
L 120.444231 119.093177 
L 120.986226 51.601177 
L 121.52822 310.093756 
L 122.070214 159.316722 
L 122.612208 261.271985 
L 123.154202 198.681531 
L 123.696197 123.215508 
L 124.238191 141.451939 
L 124.780185 172.194653 
L 125.322179 121.092677 
L 125.864174 100.760123 
L 126.948162 310.651776 
L 127.490156 170.033455 
L 128.032151 143.694949 
L 128.574145 126.077826 
L 129.116139 243.455695 
L 129.658133 195.701319 
L 130.200127 195.701319 
L 130.742122 161.403496 
L 131.284116 52.850988 
L 131.82611 141.902894 
L 132.368104 209.898151 
L 132.910099 232.632383 
L 133.452093 175.380682 
L 133.994087 61.031032 
L 134.536081 179.763645 
L 135.078076 215.24524 
L 135.62007 171.717304 
L 136.162064 180.737447 
L 136.704058 76.867259 
L 137.246053 224.218972 
L 137.788047 47.146029 
L 138.330041 202.879885 
L 138.872035 106.80612 
L 139.414029 154.825704 
L 139.956024 154.752398 
L 140.498018 41.634714 
L 141.040012 144.696414 
L 141.582006 286.3837 
L 142.124001 173.266788 
L 142.665995 153.28061 
L 143.207989 342.716054 
L 143.749983 156.384741 
L 144.291978 201.438404 
L 144.833972 276.057448 
L 145.91796 165.311776 
L 146.459954 104.884481 
L 147.001949 101.465891 
L 147.543943 173.420083 
L 148.085937 200.092555 
L 148.627931 106.395025 
L 149.169926 129.539512 
L 149.71192 101.776159 
L 150.253914 84.127013 
L 150.795908 179.334452 
L 151.337903 113.970352 
L 151.879897 133.973148 
L 152.421891 161.771158 
L 152.963885 341.903547 
L 153.505879 139.489563 
L 154.047874 145.425047 
L 154.589868 163.280495 
L 155.131862 168.899336 
L 155.673856 133.119309 
L 156.215851 179.219022 
L 156.757845 174.111396 
L 157.299839 142.357742 
L 157.841833 182.991242 
L 158.383828 141.99294 
L 158.925822 68.027411 
L 159.467816 169.729432 
L 160.00981 143.982317 
L 160.551805 175.11801 
L 161.093799 191.130831 
L 161.635793 246.199549 
L 162.177787 137.648736 
L 162.719781 173.949211 
L 163.261776 244.206334 
L 163.80377 166.753517 
L 164.345764 315.011586 
L 164.887758 77.309923 
L 165.429753 183.737501 
L 165.971747 167.757662 
L 166.513741 174.647397 
L 167.055735 193.884725 
L 167.59773 126.068464 
L 168.139724 233.635468 
L 168.681718 163.355073 
L 169.223712 208.727059 
L 169.765706 241.269934 
L 170.307701 171.117977 
L 170.849695 229.008642 
L 171.391689 217.232468 
L 171.933683 75.773567 
L 172.475678 177.033636 
L 173.017672 204.629006 
L 173.559666 96.143385 
L 174.10166 51.115213 
L 174.643655 223.912626 
L 175.185649 150.372627 
L 175.727643 93.39267 
L 176.269637 93.39267 
L 176.811632 162.674798 
L 177.353626 120.369175 
L 177.89562 67.437167 
L 178.437614 177.135264 
L 179.521603 230.081797 
L 180.063597 169.404316 
L 180.605591 145.502788 
L 181.147585 325.997941 
L 181.68958 175.921624 
L 182.231574 92.488779 
L 182.773568 139.765191 
L 183.315562 151.805102 
L 183.857557 219.687611 
L 184.399551 87.543346 
L 185.483539 215.797469 
L 186.025533 194.42434 
L 186.567528 236.87831 
L 187.109522 122.80647 
L 187.651516 74.816691 
L 188.19351 226.153307 
L 188.735505 118.887669 
L 189.277499 290.823369 
L 189.819493 177.804475 
L 190.361487 246.135784 
L 190.903482 261.843586 
L 191.445476 158.363544 
L 191.98747 228.183377 
L 192.529464 165.140675 
L 193.071458 165.140675 
L 193.613453 166.328471 
L 194.155447 59.299184 
L 194.697441 254.710404 
L 195.239435 285.564129 
L 195.78143 220.243639 
L 196.323424 195.803881 
L 196.865418 310.195957 
L 197.407412 190.824972 
L 197.949407 165.771968 
L 198.491401 252.220524 
L 199.033395 229.945249 
L 199.575389 229.945249 
L 200.117384 291.676476 
L 200.659378 179.227277 
L 201.201372 224.112878 
L 201.743366 290.9047 
L 202.28536 161.781143 
L 202.827355 237.946091 
L 203.369349 2.947159 
L 203.911343 17.074053 
L 204.453337 157.348428 
L 204.995332 41.068077 
L 205.537326 92.884227 
L 206.07932 224.391056 
L 206.621314 136.877349 
L 207.163309 168.30706 
L 207.705303 224.914739 
L 208.247297 88.9499 
L 208.789291 204.785529 
L 209.331285 272.200887 
L 209.87328 193.113664 
L 210.415274 147.401356 
L 210.957268 186.496664 
L 211.499262 238.131008 
L 212.041257 238.131008 
L 212.583251 221.958558 
L 213.125245 221.958558 
L 213.667239 165.925927 
L 214.209234 183.446086 
L 214.751228 174.38729 
L 215.293222 246.333382 
L 215.835216 140.818422 
L 216.377211 287.387734 
L 216.919205 226.143892 
L 217.461199 199.385656 
L 218.003193 163.322667 
L 218.545187 142.790863 
L 219.087182 178.671711 
L 219.629176 178.671711 
L 220.17117 149.397881 
L 221.255159 114.92381 
L 221.797153 159.267858 
L 222.881141 338.4812 
L 223.423136 189.072737 
L 223.96513 180.636284 
L 224.507124 102.115321 
L 225.049118 158.151192 
L 225.591112 165.999743 
L 226.133107 188.379919 
L 226.675101 188.796732 
L 227.217095 74.213576 
L 227.759089 176.422028 
L 228.301084 187.09728 
L 228.843078 170.81842 
L 229.385072 55.800445 
L 229.927066 145.600201 
L 230.469061 201.861239 
L 231.011055 167.368244 
L 231.553049 76.613298 
L 232.095043 90.897625 
L 232.637037 90.897625 
L 233.179032 134.246254 
L 233.721026 215.238938 
L 234.26302 223.642762 
L 234.805014 76.975523 
L 235.347009 196.250142 
L 235.889003 118.900809 
L 236.430997 175.386005 
L 236.972991 173.954968 
L 237.514986 193.741299 
L 238.05698 57.496045 
L 239.140968 257.819129 
L 239.682963 181.450912 
L 240.224957 177.745902 
L 240.766951 115.282013 
L 241.308945 140.210827 
L 241.850939 62.499833 
L 242.392934 146.330942 
L 242.934928 103.318166 
L 243.476922 225.736704 
L 244.018916 134.605824 
L 244.560911 172.892344 
L 245.644899 17.323975 
L 246.186893 181.366937 
L 246.728888 196.698468 
L 247.270882 42.999492 
L 247.812876 110.491258 
L 248.35487 135.806055 
L 248.875637 -1 
M 248.936237 -1 
L 250.522847 225.036539 
L 251.064841 141.953121 
L 251.606836 132.543722 
L 252.14883 131.219988 
L 252.690824 155.34301 
L 253.232818 77.555635 
L 253.774813 141.057161 
L 254.316807 162.650883 
L 254.858801 196.525676 
L 255.400795 200.08747 
L 255.942789 97.293686 
L 256.484784 97.312696 
L 257.026778 123.950829 
L 258.110766 248.37592 
L 258.652761 70.572773 
L 259.194755 48.636997 
L 259.736749 169.450892 
L 260.278743 260.004378 
L 260.820738 250.003141 
L 261.362732 250.653247 
L 261.904726 175.155723 
L 262.44672 142.179975 
L 262.988715 179.720698 
L 263.530709 300.467703 
L 264.072703 188.618592 
L 264.614697 187.030043 
L 265.156691 78.685778 
L 265.698686 236.375917 
L 266.24068 228.199882 
L 267.324668 173.259825 
L 267.866663 161.437794 
L 268.408657 47.174264 
L 268.950651 170.624476 
L 270.03464 238.014197 
L 270.576634 94.002119 
L 271.118628 199.316428 
L 271.660622 117.761048 
L 272.202616 279.163653 
L 272.744611 255.773834 
L 273.286605 166.031127 
L 273.828599 202.940025 
L 274.370593 133.609531 
L 274.912588 150.929452 
L 275.454582 240.160561 
L 275.996576 131.920285 
L 276.53857 110.908366 
L 277.080565 290.508862 
L 277.622559 224.9556 
L 278.164553 194.499718 
L 278.706547 263.329506 
L 279.248542 200.272675 
L 279.790536 176.362175 
L 280.33253 122.774889 
L 280.874524 187.852868 
L 281.416518 221.559408 
L 281.958513 221.559408 
L 282.500507 135.74672 
L 283.042501 139.368823 
L 283.584495 139.368823 
L 284.12649 171.712208 
L 284.572755 346.6 
M 284.767216 346.6 
L 285.210478 178.172085 
L 285.752472 139.73574 
L 286.294467 270.790591 
L 286.836461 227.593752 
L 287.378455 158.954644 
L 287.920449 183.074228 
L 288.462443 269.335874 
L 289.004438 219.647779 
L 289.546432 196.123385 
L 290.088426 205.802108 
L 290.63042 157.829812 
L 291.172415 234.654672 
L 291.714409 275.716699 
L 292.256403 114.230372 
L 292.798397 125.505283 
L 293.340392 35.5784 
L 294.966374 202.132887 
L 295.508368 94.616146 
L 296.050363 98.382635 
L 297.134351 192.533986 
L 297.676345 76.560583 
L 298.21834 136.551424 
L 298.760334 164.530278 
L 299.302328 164.530278 
L 299.844322 162.263525 
L 300.386317 113.167845 
L 300.928311 174.825445 
L 301.470305 116.949751 
L 302.012299 134.497612 
L 302.554294 122.155787 
L 303.638282 164.295932 
L 304.180276 203.134773 
L 304.72227 108.263975 
L 305.264265 213.361928 
L 305.806259 231.824042 
L 306.348253 84.100235 
L 306.890247 101.229262 
L 307.432242 204.742662 
L 307.974236 236.113144 
L 308.51623 245.25933 
L 309.058224 110.249667 
L 309.600219 216.6009 
L 310.142213 254.915787 
L 310.684207 159.178437 
L 311.226201 141.289241 
L 311.768195 253.713425 
L 312.31019 137.258898 
L 312.852184 137.258898 
L 313.394178 172.788896 
L 313.936172 109.011119 
L 314.478167 122.800869 
L 315.020161 234.703786 
L 315.562155 246.498797 
L 316.104149 154.684976 
L 316.646144 212.925484 
L 317.188138 104.239253 
L 317.730132 167.432299 
L 318.272126 98.659534 
L 318.814121 291.262735 
L 319.356115 197.616321 
L 319.898109 229.634271 
L 320.440103 98.222892 
L 321.524092 286.552192 
L 322.066086 94.118547 
L 322.60808 305.81925 
L 323.150074 222.603532 
L 323.692069 120.8186 
L 324.234063 182.991504 
L 324.776057 74.762332 
L 325.318051 187.250456 
L 325.793249 -1 
M 325.952336 -1 
L 326.40204 127.93833 
L 326.944034 149.838054 
L 327.486028 177.086587 
L 328.028022 159.767322 
L 328.570017 202.412963 
L 329.112011 128.742491 
L 329.654005 167.238285 
L 330.195999 125.523841 
L 330.737994 269.797827 
L 331.279988 193.109256 
L 331.821982 203.917314 
L 332.363976 205.981241 
L 332.905971 215.55585 
L 333.447965 52.9754 
L 333.989959 52.9754 
L 334.531953 197.659495 
L 335.073947 127.431442 
L 335.615942 132.678059 
L 336.157936 268.374283 
L 336.69993 329.864381 
L 337.241924 329.864381 
L 337.476492 346.6 
M 337.820089 346.6 
L 338.325913 39.863129 
L 338.867907 116.841393 
L 339.409901 220.480193 
L 339.951896 144.620043 
L 340.49389 237.805165 
L 341.035884 68.060075 
L 341.577878 260.91808 
L 342.119873 37.65908 
L 342.661867 37.65908 
L 343.203861 242.142734 
L 343.745855 211.444033 
L 344.287849 131.977081 
L 344.829844 276.054937 
L 345.339195 -1 
M 345.406275 -1 
L 345.913832 260.69817 
L 346.455826 180.854354 
L 346.997821 139.291458 
L 347.539815 171.269692 
L 348.081809 80.694149 
L 348.623803 271.536739 
L 349.165798 182.313047 
L 349.707792 164.932328 
L 350.249786 164.932328 
L 350.79178 170.23782 
L 351.333774 83.186859 
L 351.875769 213.615283 
L 352.417763 40.0074 
L 352.959757 132.487128 
L 353.501751 244.897927 
L 354.043746 181.545086 
L 354.58574 267.241194 
L 355.127734 192.817981 
L 355.669728 173.453268 
L 356.211723 108.659016 
L 356.753717 120.791883 
L 357.295711 165.654437 
L 357.837705 179.284894 
L 358.379699 207.594268 
L 358.921694 120.462563 
L 359.463688 131.73208 
L 360.005682 128.376133 
L 361.089671 233.322026 
L 361.631665 271.418247 
L 362.173659 140.991467 
L 362.715653 225.552904 
L 363.257648 71.211509 
L 363.799642 88.544001 
L 364.341636 122.958329 
L 364.88363 283.942649 
L 365.425625 75.53097 
L 365.967619 71.458845 
L 366.509613 159.810565 
L 367.051607 206.088671 
L 367.593601 217.71931 
L 368.135596 215.647123 
L 368.67759 248.565667 
L 369.219584 157.986092 
L 369.761578 93.512169 
L 370.303573 222.930935 
L 370.845567 239.023518 
L 371.387561 38.701195 
L 371.929555 162.432248 
L 372.47155 202.614912 
L 373.013544 178.808862 
L 373.555538 193.447806 
L 374.097532 194.526812 
L 374.639526 185.822999 
L 375.181521 171.282046 
L 375.723515 94.413622 
L 376.265509 52.353107 
L 376.807503 244.281563 
L 377.349498 79.344105 
L 377.891492 151.852267 
L 378.433486 261.059626 
L 378.97548 153.485551 
L 379.517475 217.382297 
L 380.059469 163.815157 
L 380.601463 158.361408 
L 381.143457 154.082903 
L 381.685452 109.816163 
L 382.227446 42.924454 
L 382.76944 183.99708 
L 383.311434 186.221535 
L 383.853428 94.900221 
L 384.395423 94.900221 
L 384.937417 143.550592 
L 385.479411 161.464292 
L 386.021405 117.703692 
L 386.5634 126.783794 
L 387.105394 163.186781 
L 387.647388 319.711306 
L 388.189382 179.457889 
L 388.731377 103.948878 
L 389.273371 164.913626 
L 389.815365 131.020047 
L 390.357359 233.481679 
L 390.899353 180.860463 
L 391.441348 231.198904 
L 391.983342 216.515224 
L 392.525336 180.082051 
L 393.06733 251.303523 
L 393.609325 93.750439 
L 394.151319 168.176706 
L 394.693313 214.543822 
L 395.235307 222.82926 
L 395.777302 156.811317 
L 396.319296 185.854838 
L 396.86129 185.854838 
L 397.403284 167.891497 
L 397.945278 208.546623 
L 398.487273 135.097259 
L 398.487273 135.097259 
" style="fill:none;stroke:#ff7f0e;stroke-linecap:square;stroke-width:1.5;"/>
   </g>
   <g id="patch_3">
    <path d="M 57.6 307.584 
L 57.6 41.472 
" style="fill:none;stroke:#000000;stroke-linecap:square;stroke-linejoin:miter;stroke-width:0.8;"/>
   </g>
   <g id="patch_4">
    <path d="M 414.72 307.584 
L 414.72 41.472 
" style="fill:none;stroke:#000000;stroke-linecap:square;stroke-linejoin:miter;stroke-width:0.8;"/>
   </g>
   <g id="patch_5">
    <path d="M 57.6 307.584 
L 414.72 307.584 
" style="fill:none;stroke:#000000;stroke-linecap:square;stroke-linejoin:miter;stroke-width:0.8;"/>
   </g>
   <g id="patch_6">
    <path d="M 57.6 41.472 
L 414.72 41.472 
" style="fill:none;stroke:#000000;stroke-linecap:square;stroke-linejoin:miter;stroke-width:0.8;"/>
   </g>
   <g id="text_13">
    <!-- Polyakov loop 1 direction -->
    <defs>
     <path d="M 19.671875 64.796875 
L 19.671875 37.40625 
L 32.078125 37.40625 
Q 38.96875 37.40625 42.71875 40.96875 
Q 46.484375 44.53125 46.484375 51.125 
Q 46.484375 57.671875 42.71875 61.234375 
Q 38.96875 64.796875 32.078125 64.796875 
z
M 9.8125 72.90625 
L 32.078125 72.90625 
Q 44.34375 72.90625 50.609375 67.359375 
Q 56.890625 61.8125 56.890625 51.125 
Q 56.890625 40.328125 50.609375 34.8125 
Q 44.34375 29.296875 32.078125 29.296875 
L 19.671875 29.296875 
L 19.671875 0 
L 9.8125 0 
z
" id="DejaVuSans-80"/>
     <path d="M 30.609375 48.390625 
Q 23.390625 48.390625 19.1875 42.75 
Q 14.984375 37.109375 14.984375 27.296875 
Q 14.984375 17.484375 19.15625 11.84375 
Q 23.34375 6.203125 30.609375 6.203125 
Q 37.796875 6.203125 41.984375 11.859375 
Q 46.1875 17.53125 46.1875 27.296875 
Q 46.1875 37.015625 41.984375 42.703125 
Q 37.796875 48.390625 30.609375 48.390625 
z
M 30.609375 56 
Q 42.328125 56 49.015625 48.375 
Q 55.71875 40.765625 55.71875 27.296875 
Q 55.71875 13.875 49.015625 6.21875 
Q 42.328125 -1.421875 30.609375 -1.421875 
Q 18.84375 -1.421875 12.171875 6.21875 
Q 5.515625 13.875 5.515625 27.296875 
Q 5.515625 40.765625 12.171875 48.375 
Q 18.84375 56 30.609375 56 
z
" id="DejaVuSans-111"/>
     <path d="M 9.421875 75.984375 
L 18.40625 75.984375 
L 18.40625 0 
L 9.421875 0 
z
" id="DejaVuSans-108"/>
     <path d="M 32.171875 -5.078125 
Q 28.375 -14.84375 24.75 -17.8125 
Q 21.140625 -20.796875 15.09375 -20.796875 
L 7.90625 -20.796875 
L 7.90625 -13.28125 
L 13.1875 -13.28125 
Q 16.890625 -13.28125 18.9375 -11.515625 
Q 21 -9.765625 23.484375 -3.21875 
L 25.09375 0.875 
L 2.984375 54.6875 
L 12.5 54.6875 
L 29.59375 11.921875 
L 46.6875 54.6875 
L 56.203125 54.6875 
z
" id="DejaVuSans-121"/>
     <path d="M 34.28125 27.484375 
Q 23.390625 27.484375 19.1875 25 
Q 14.984375 22.515625 14.984375 16.5 
Q 14.984375 11.71875 18.140625 8.90625 
Q 21.296875 6.109375 26.703125 6.109375 
Q 34.1875 6.109375 38.703125 11.40625 
Q 43.21875 16.703125 43.21875 25.484375 
L 43.21875 27.484375 
z
M 52.203125 31.203125 
L 52.203125 0 
L 43.21875 0 
L 43.21875 8.296875 
Q 40.140625 3.328125 35.546875 0.953125 
Q 30.953125 -1.421875 24.3125 -1.421875 
Q 15.921875 -1.421875 10.953125 3.296875 
Q 6 8.015625 6 15.921875 
Q 6 25.140625 12.171875 29.828125 
Q 18.359375 34.515625 30.609375 34.515625 
L 43.21875 34.515625 
L 43.21875 35.40625 
Q 43.21875 41.609375 39.140625 45 
Q 35.0625 48.390625 27.6875 48.390625 
Q 23 48.390625 18.546875 47.265625 
Q 14.109375 46.140625 10.015625 43.890625 
L 10.015625 52.203125 
Q 14.9375 54.109375 19.578125 55.046875 
Q 24.21875 56 28.609375 56 
Q 40.484375 56 46.34375 49.84375 
Q 52.203125 43.703125 52.203125 31.203125 
z
" id="DejaVuSans-97"/>
     <path d="M 9.078125 75.984375 
L 18.109375 75.984375 
L 18.109375 31.109375 
L 44.921875 54.6875 
L 56.390625 54.6875 
L 27.390625 29.109375 
L 57.625 0 
L 45.90625 0 
L 18.109375 26.703125 
L 18.109375 0 
L 9.078125 0 
z
" id="DejaVuSans-107"/>
     <path d="M 2.984375 54.6875 
L 12.5 54.6875 
L 29.59375 8.796875 
L 46.6875 54.6875 
L 56.203125 54.6875 
L 35.6875 0 
L 23.484375 0 
z
" id="DejaVuSans-118"/>
     <path id="DejaVuSans-32"/>
     <path d="M 18.109375 8.203125 
L 18.109375 -20.796875 
L 9.078125 -20.796875 
L 9.078125 54.6875 
L 18.109375 54.6875 
L 18.109375 46.390625 
Q 20.953125 51.265625 25.265625 53.625 
Q 29.59375 56 35.59375 56 
Q 45.5625 56 51.78125 48.09375 
Q 58.015625 40.1875 58.015625 27.296875 
Q 58.015625 14.40625 51.78125 6.484375 
Q 45.5625 -1.421875 35.59375 -1.421875 
Q 29.59375 -1.421875 25.265625 0.953125 
Q 20.953125 3.328125 18.109375 8.203125 
z
M 48.6875 27.296875 
Q 48.6875 37.203125 44.609375 42.84375 
Q 40.53125 48.484375 33.40625 48.484375 
Q 26.265625 48.484375 22.1875 42.84375 
Q 18.109375 37.203125 18.109375 27.296875 
Q 18.109375 17.390625 22.1875 11.75 
Q 26.265625 6.109375 33.40625 6.109375 
Q 40.53125 6.109375 44.609375 11.75 
Q 48.6875 17.390625 48.6875 27.296875 
z
" id="DejaVuSans-112"/>
     <path d="M 45.40625 46.390625 
L 45.40625 75.984375 
L 54.390625 75.984375 
L 54.390625 0 
L 45.40625 0 
L 45.40625 8.203125 
Q 42.578125 3.328125 38.25 0.953125 
Q 33.9375 -1.421875 27.875 -1.421875 
Q 17.96875 -1.421875 11.734375 6.484375 
Q 5.515625 14.40625 5.515625 27.296875 
Q 5.515625 40.1875 11.734375 48.09375 
Q 17.96875 56 27.875 56 
Q 33.9375 56 38.25 53.625 
Q 42.578125 51.265625 45.40625 46.390625 
z
M 14.796875 27.296875 
Q 14.796875 17.390625 18.875 11.75 
Q 22.953125 6.109375 30.078125 6.109375 
Q 37.203125 6.109375 41.296875 11.75 
Q 45.40625 17.390625 45.40625 27.296875 
Q 45.40625 37.203125 41.296875 42.84375 
Q 37.203125 48.484375 30.078125 48.484375 
Q 22.953125 48.484375 18.875 42.84375 
Q 14.796875 37.203125 14.796875 27.296875 
z
" id="DejaVuSans-100"/>
     <path d="M 9.421875 54.6875 
L 18.40625 54.6875 
L 18.40625 0 
L 9.421875 0 
z
M 9.421875 75.984375 
L 18.40625 75.984375 
L 18.40625 64.59375 
L 9.421875 64.59375 
z
" id="DejaVuSans-105"/>
     <path d="M 41.109375 46.296875 
Q 39.59375 47.171875 37.8125 47.578125 
Q 36.03125 48 33.890625 48 
Q 26.265625 48 22.1875 43.046875 
Q 18.109375 38.09375 18.109375 28.8125 
L 18.109375 0 
L 9.078125 0 
L 9.078125 54.6875 
L 18.109375 54.6875 
L 18.109375 46.1875 
Q 20.953125 51.171875 25.484375 53.578125 
Q 30.03125 56 36.53125 56 
Q 37.453125 56 38.578125 55.875 
Q 39.703125 55.765625 41.0625 55.515625 
z
" id="DejaVuSans-114"/>
     <path d="M 56.203125 29.59375 
L 56.203125 25.203125 
L 14.890625 25.203125 
Q 15.484375 15.921875 20.484375 11.0625 
Q 25.484375 6.203125 34.421875 6.203125 
Q 39.59375 6.203125 44.453125 7.46875 
Q 49.3125 8.734375 54.109375 11.28125 
L 54.109375 2.78125 
Q 49.265625 0.734375 44.1875 -0.34375 
Q 39.109375 -1.421875 33.890625 -1.421875 
Q 20.796875 -1.421875 13.15625 6.1875 
Q 5.515625 13.8125 5.515625 26.8125 
Q 5.515625 40.234375 12.765625 48.109375 
Q 20.015625 56 32.328125 56 
Q 43.359375 56 49.78125 48.890625 
Q 56.203125 41.796875 56.203125 29.59375 
z
M 47.21875 32.234375 
Q 47.125 39.59375 43.09375 43.984375 
Q 39.0625 48.390625 32.421875 48.390625 
Q 24.90625 48.390625 20.390625 44.140625 
Q 15.875 39.890625 15.1875 32.171875 
z
" id="DejaVuSans-101"/>
     <path d="M 48.78125 52.59375 
L 48.78125 44.1875 
Q 44.96875 46.296875 41.140625 47.34375 
Q 37.3125 48.390625 33.40625 48.390625 
Q 24.65625 48.390625 19.8125 42.84375 
Q 14.984375 37.3125 14.984375 27.296875 
Q 14.984375 17.28125 19.8125 11.734375 
Q 24.65625 6.203125 33.40625 6.203125 
Q 37.3125 6.203125 41.140625 7.25 
Q 44.96875 8.296875 48.78125 10.40625 
L 48.78125 2.09375 
Q 45.015625 0.34375 40.984375 -0.53125 
Q 36.96875 -1.421875 32.421875 -1.421875 
Q 20.0625 -1.421875 12.78125 6.34375 
Q 5.515625 14.109375 5.515625 27.296875 
Q 5.515625 40.671875 12.859375 48.328125 
Q 20.21875 56 33.015625 56 
Q 37.15625 56 41.109375 55.140625 
Q 45.0625 54.296875 48.78125 52.59375 
z
" id="DejaVuSans-99"/>
     <path d="M 18.3125 70.21875 
L 18.3125 54.6875 
L 36.8125 54.6875 
L 36.8125 47.703125 
L 18.3125 47.703125 
L 18.3125 18.015625 
Q 18.3125 11.328125 20.140625 9.421875 
Q 21.96875 7.515625 27.59375 7.515625 
L 36.8125 7.515625 
L 36.8125 0 
L 27.59375 0 
Q 17.1875 0 13.234375 3.875 
Q 9.28125 7.765625 9.28125 18.015625 
L 9.28125 47.703125 
L 2.6875 47.703125 
L 2.6875 54.6875 
L 9.28125 54.6875 
L 9.28125 70.21875 
z
" id="DejaVuSans-116"/>
     <path d="M 54.890625 33.015625 
L 54.890625 0 
L 45.90625 0 
L 45.90625 32.71875 
Q 45.90625 40.484375 42.875 44.328125 
Q 39.84375 48.1875 33.796875 48.1875 
Q 26.515625 48.1875 22.3125 43.546875 
Q 18.109375 38.921875 18.109375 30.90625 
L 18.109375 0 
L 9.078125 0 
L 9.078125 54.6875 
L 18.109375 54.6875 
L 18.109375 46.1875 
Q 21.34375 51.125 25.703125 53.5625 
Q 30.078125 56 35.796875 56 
Q 45.21875 56 50.046875 50.171875 
Q 54.890625 44.34375 54.890625 33.015625 
z
" id="DejaVuSans-110"/>
    </defs>
    <g transform="translate(161.06625 35.472)scale(0.12 -0.12)">
     <use xlink:href="#DejaVuSans-80"/>
     <use x="56.677734" xlink:href="#DejaVuSans-111"/>
     <use x="117.859375" xlink:href="#DejaVuSans-108"/>
     <use x="145.642578" xlink:href="#DejaVuSans-121"/>
     <use x="204.822266" xlink:href="#DejaVuSans-97"/>
     <use x="266.101562" xlink:href="#DejaVuSans-107"/>
     <use x="320.386719" xlink:href="#DejaVuSans-111"/>
     <use x="381.568359" xlink:href="#DejaVuSans-118"/>
     <use x="440.748047" xlink:href="#DejaVuSans-32"/>
     <use x="472.535156" xlink:href="#DejaVuSans-108"/>
     <use x="500.318359" xlink:href="#DejaVuSans-111"/>
     <use x="561.5" xlink:href="#DejaVuSans-111"/>
     <use x="622.681641" xlink:href="#DejaVuSans-112"/>
     <use x="686.158203" xlink:href="#DejaVuSans-32"/>
     <use x="717.945312" xlink:href="#DejaVuSans-49"/>
     <use x="781.568359" xlink:href="#DejaVuSans-32"/>
     <use x="813.355469" xlink:href="#DejaVuSans-100"/>
     <use x="876.832031" xlink:href="#DejaVuSans-105"/>
     <use x="904.615234" xlink:href="#DejaVuSans-114"/>
     <use x="943.478516" xlink:href="#DejaVuSans-101"/>
     <use x="1005.001953" xlink:href="#DejaVuSans-99"/>
     <use x="1059.982422" xlink:href="#DejaVuSans-116"/>
     <use x="1099.191406" xlink:href="#DejaVuSans-105"/>
     <use x="1126.974609" xlink:href="#DejaVuSans-111"/>
     <use x="1188.15625" xlink:href="#DejaVuSans-110"/>
    </g>
   </g>
   <g id="legend_1">
    <g id="patch_7">
     <path d="M 265.387188 302.584 
L 407.72 302.584 
Q 409.72 302.584 409.72 300.584 
L 409.72 272.22775 
Q 409.72 270.22775 407.72 270.22775 
L 265.387188 270.22775 
Q 263.387188 270.22775 263.387188 272.22775 
L 263.387188 300.584 
Q 263.387188 302.584 265.387188 302.584 
z
" style="fill:#ffffff;opacity:0.8;stroke:#cccccc;stroke-linejoin:miter;"/>
    </g>
    <g id="line2d_15">
     <path d="M 267.387188 278.326187 
L 287.387188 278.326187 
" style="fill:none;stroke:#1f77b4;stroke-linecap:square;stroke-width:1.5;"/>
    </g>
    <g id="line2d_16"/>
    <g id="text_14">
     <!-- real-0.0000+/-0.0007 -->
     <defs>
      <path d="M 4.890625 31.390625 
L 31.203125 31.390625 
L 31.203125 23.390625 
L 4.890625 23.390625 
z
" id="DejaVuSans-45"/>
      <path d="M 46 62.703125 
L 46 35.5 
L 73.1875 35.5 
L 73.1875 27.203125 
L 46 27.203125 
L 46 0 
L 37.796875 0 
L 37.796875 27.203125 
L 10.59375 27.203125 
L 10.59375 35.5 
L 37.796875 35.5 
L 37.796875 62.703125 
z
" id="DejaVuSans-43"/>
      <path d="M 25.390625 72.90625 
L 33.6875 72.90625 
L 8.296875 -9.28125 
L 0 -9.28125 
z
" id="DejaVuSans-47"/>
      <path d="M 8.203125 72.90625 
L 55.078125 72.90625 
L 55.078125 68.703125 
L 28.609375 0 
L 18.3125 0 
L 43.21875 64.59375 
L 8.203125 64.59375 
z
" id="DejaVuSans-55"/>
     </defs>
     <g transform="translate(295.387188 281.826187)scale(0.1 -0.1)">
      <use xlink:href="#DejaVuSans-114"/>
      <use x="38.863281" xlink:href="#DejaVuSans-101"/>
      <use x="100.386719" xlink:href="#DejaVuSans-97"/>
      <use x="161.666016" xlink:href="#DejaVuSans-108"/>
      <use x="189.449219" xlink:href="#DejaVuSans-45"/>
      <use x="225.533203" xlink:href="#DejaVuSans-48"/>
      <use x="289.15625" xlink:href="#DejaVuSans-46"/>
      <use x="320.943359" xlink:href="#DejaVuSans-48"/>
      <use x="384.566406" xlink:href="#DejaVuSans-48"/>
      <use x="448.189453" xlink:href="#DejaVuSans-48"/>
      <use x="511.8125" xlink:href="#DejaVuSans-48"/>
      <use x="575.435547" xlink:href="#DejaVuSans-43"/>
      <use x="659.224609" xlink:href="#DejaVuSans-47"/>
      <use x="692.916016" xlink:href="#DejaVuSans-45"/>
      <use x="729" xlink:href="#DejaVuSans-48"/>
      <use x="792.623047" xlink:href="#DejaVuSans-46"/>
      <use x="824.410156" xlink:href="#DejaVuSans-48"/>
      <use x="888.033203" xlink:href="#DejaVuSans-48"/>
      <use x="951.65625" xlink:href="#DejaVuSans-48"/>
      <use x="1015.279297" xlink:href="#DejaVuSans-55"/>
     </g>
    </g>
    <g id="line2d_17">
     <path d="M 267.387188 293.004312 
L 287.387188 293.004312 
" style="fill:none;stroke:#ff7f0e;stroke-linecap:square;stroke-width:1.5;"/>
    </g>
    <g id="line2d_18"/>
    <g id="text_15">
     <!-- imag0.0000+/-0.0007 -->
     <defs>
      <path d="M 52 44.1875 
Q 55.375 50.25 60.0625 53.125 
Q 64.75 56 71.09375 56 
Q 79.640625 56 84.28125 50.015625 
Q 88.921875 44.046875 88.921875 33.015625 
L 88.921875 0 
L 79.890625 0 
L 79.890625 32.71875 
Q 79.890625 40.578125 77.09375 44.375 
Q 74.3125 48.1875 68.609375 48.1875 
Q 61.625 48.1875 57.5625 43.546875 
Q 53.515625 38.921875 53.515625 30.90625 
L 53.515625 0 
L 44.484375 0 
L 44.484375 32.71875 
Q 44.484375 40.625 41.703125 44.40625 
Q 38.921875 48.1875 33.109375 48.1875 
Q 26.21875 48.1875 22.15625 43.53125 
Q 18.109375 38.875 18.109375 30.90625 
L 18.109375 0 
L 9.078125 0 
L 9.078125 54.6875 
L 18.109375 54.6875 
L 18.109375 46.1875 
Q 21.1875 51.21875 25.484375 53.609375 
Q 29.78125 56 35.6875 56 
Q 41.65625 56 45.828125 52.96875 
Q 50 49.953125 52 44.1875 
z
" id="DejaVuSans-109"/>
      <path d="M 45.40625 27.984375 
Q 45.40625 37.75 41.375 43.109375 
Q 37.359375 48.484375 30.078125 48.484375 
Q 22.859375 48.484375 18.828125 43.109375 
Q 14.796875 37.75 14.796875 27.984375 
Q 14.796875 18.265625 18.828125 12.890625 
Q 22.859375 7.515625 30.078125 7.515625 
Q 37.359375 7.515625 41.375 12.890625 
Q 45.40625 18.265625 45.40625 27.984375 
z
M 54.390625 6.78125 
Q 54.390625 -7.171875 48.1875 -13.984375 
Q 42 -20.796875 29.203125 -20.796875 
Q 24.46875 -20.796875 20.265625 -20.09375 
Q 16.0625 -19.390625 12.109375 -17.921875 
L 12.109375 -9.1875 
Q 16.0625 -11.328125 19.921875 -12.34375 
Q 23.78125 -13.375 27.78125 -13.375 
Q 36.625 -13.375 41.015625 -8.765625 
Q 45.40625 -4.15625 45.40625 5.171875 
L 45.40625 9.625 
Q 42.625 4.78125 38.28125 2.390625 
Q 33.9375 0 27.875 0 
Q 17.828125 0 11.671875 7.65625 
Q 5.515625 15.328125 5.515625 27.984375 
Q 5.515625 40.671875 11.671875 48.328125 
Q 17.828125 56 27.875 56 
Q 33.9375 56 38.28125 53.609375 
Q 42.625 51.21875 45.40625 46.390625 
L 45.40625 54.6875 
L 54.390625 54.6875 
z
" id="DejaVuSans-103"/>
     </defs>
     <g transform="translate(295.387188 296.504312)scale(0.1 -0.1)">
      <use xlink:href="#DejaVuSans-105"/>
      <use x="27.783203" xlink:href="#DejaVuSans-109"/>
      <use x="125.195312" xlink:href="#DejaVuSans-97"/>
      <use x="186.474609" xlink:href="#DejaVuSans-103"/>
      <use x="249.951172" xlink:href="#DejaVuSans-48"/>
      <use x="313.574219" xlink:href="#DejaVuSans-46"/>
      <use x="345.361328" xlink:href="#DejaVuSans-48"/>
      <use x="408.984375" xlink:href="#DejaVuSans-48"/>
      <use x="472.607422" xlink:href="#DejaVuSans-48"/>
      <use x="536.230469" xlink:href="#DejaVuSans-48"/>
      <use x="599.853516" xlink:href="#DejaVuSans-43"/>
      <use x="683.642578" xlink:href="#DejaVuSans-47"/>
      <use x="717.333984" xlink:href="#DejaVuSans-45"/>
      <use x="753.417969" xlink:href="#DejaVuSans-48"/>
      <use x="817.041016" xlink:href="#DejaVuSans-46"/>
      <use x="848.828125" xlink:href="#DejaVuSans-48"/>
      <use x="912.451172" xlink:href="#DejaVuSans-48"/>
      <use x="976.074219" xlink:href="#DejaVuSans-48"/>
      <use x="1039.697266" xlink:href="#DejaVuSans-55"/>
     </g>
    </g>
   </g>
  </g>
 </g>
 <defs>
  <clipPath id="pca1aca6d18">
   <rect height="266.112" width="357.12" x="57.6" y="41.472"/>
  </clipPath>
 </defs>
</svg>
