<?xml version="1.0" encoding="utf-8" standalone="no"?>
<!DOCTYPE svg PUBLIC "-//W3C//DTD SVG 1.1//EN"
  "http://www.w3.org/Graphics/SVG/1.1/DTD/svg11.dtd">
<!-- Created with matplotlib (https://matplotlib.org/) -->
<svg height="345.6pt" version="1.1" viewBox="0 0 460.8 345.6" width="460.8pt" xmlns="http://www.w3.org/2000/svg" xmlns:xlink="http://www.w3.org/1999/xlink">
 <defs>
  <style type="text/css">
*{stroke-linecap:butt;stroke-linejoin:round;}
  </style>
 </defs>
 <g id="figure_1">
  <g id="patch_1">
   <path d="M 0 345.6 
L 460.8 345.6 
L 460.8 0 
L 0 0 
z
" style="fill:#ffffff;"/>
  </g>
  <g id="axes_1">
   <g id="patch_2">
    <path d="M 57.6 307.584 
L 414.72 307.584 
L 414.72 41.472 
L 57.6 41.472 
z
" style="fill:#ffffff;"/>
   </g>
   <g id="matplotlib.axis_1">
    <g id="xtick_1">
     <g id="line2d_1">
      <defs>
       <path d="M 0 0 
L 0 3.5 
" id="mea79b221c5" style="stroke:#000000;stroke-width:0.8;"/>
      </defs>
      <g>
       <use style="stroke:#000000;stroke-width:0.8;" x="73.019057" xlink:href="#mea79b221c5" y="307.584"/>
      </g>
     </g>
     <g id="text_1">
      <!-- 0 -->
      <defs>
       <path d="M 31.78125 66.40625 
Q 24.171875 66.40625 20.328125 58.90625 
Q 16.5 51.421875 16.5 36.375 
Q 16.5 21.390625 20.328125 13.890625 
Q 24.171875 6.390625 31.78125 6.390625 
Q 39.453125 6.390625 43.28125 13.890625 
Q 47.125 21.390625 47.125 36.375 
Q 47.125 51.421875 43.28125 58.90625 
Q 39.453125 66.40625 31.78125 66.40625 
z
M 31.78125 74.21875 
Q 44.046875 74.21875 50.515625 64.515625 
Q 56.984375 54.828125 56.984375 36.375 
Q 56.984375 17.96875 50.515625 8.265625 
Q 44.046875 -1.421875 31.78125 -1.421875 
Q 19.53125 -1.421875 13.0625 8.265625 
Q 6.59375 17.96875 6.59375 36.375 
Q 6.59375 54.828125 13.0625 64.515625 
Q 19.53125 74.21875 31.78125 74.21875 
z
" id="DejaVuSans-48"/>
      </defs>
      <g transform="translate(69.837807 322.182437)scale(0.1 -0.1)">
       <use xlink:href="#DejaVuSans-48"/>
      </g>
     </g>
    </g>
    <g id="xtick_2">
     <g id="line2d_2">
      <g>
       <use style="stroke:#000000;stroke-width:0.8;" x="113.702584" xlink:href="#mea79b221c5" y="307.584"/>
      </g>
     </g>
     <g id="text_2">
      <!-- 50 -->
      <defs>
       <path d="M 10.796875 72.90625 
L 49.515625 72.90625 
L 49.515625 64.59375 
L 19.828125 64.59375 
L 19.828125 46.734375 
Q 21.96875 47.46875 24.109375 47.828125 
Q 26.265625 48.1875 28.421875 48.1875 
Q 40.625 48.1875 47.75 41.5 
Q 54.890625 34.8125 54.890625 23.390625 
Q 54.890625 11.625 47.5625 5.09375 
Q 40.234375 -1.421875 26.90625 -1.421875 
Q 22.3125 -1.421875 17.546875 -0.640625 
Q 12.796875 0.140625 7.71875 1.703125 
L 7.71875 11.625 
Q 12.109375 9.234375 16.796875 8.0625 
Q 21.484375 6.890625 26.703125 6.890625 
Q 35.15625 6.890625 40.078125 11.328125 
Q 45.015625 15.765625 45.015625 23.390625 
Q 45.015625 31 40.078125 35.4375 
Q 35.15625 39.890625 26.703125 39.890625 
Q 22.75 39.890625 18.8125 39.015625 
Q 14.890625 38.140625 10.796875 36.28125 
z
" id="DejaVuSans-53"/>
      </defs>
      <g transform="translate(107.340084 322.182437)scale(0.1 -0.1)">
       <use xlink:href="#DejaVuSans-53"/>
       <use x="63.623047" xlink:href="#DejaVuSans-48"/>
      </g>
     </g>
    </g>
    <g id="xtick_3">
     <g id="line2d_3">
      <g>
       <use style="stroke:#000000;stroke-width:0.8;" x="154.386111" xlink:href="#mea79b221c5" y="307.584"/>
      </g>
     </g>
     <g id="text_3">
      <!-- 100 -->
      <defs>
       <path d="M 12.40625 8.296875 
L 28.515625 8.296875 
L 28.515625 63.921875 
L 10.984375 60.40625 
L 10.984375 69.390625 
L 28.421875 72.90625 
L 38.28125 72.90625 
L 38.28125 8.296875 
L 54.390625 8.296875 
L 54.390625 0 
L 12.40625 0 
z
" id="DejaVuSans-49"/>
      </defs>
      <g transform="translate(144.842361 322.182437)scale(0.1 -0.1)">
       <use xlink:href="#DejaVuSans-49"/>
       <use x="63.623047" xlink:href="#DejaVuSans-48"/>
       <use x="127.246094" xlink:href="#DejaVuSans-48"/>
      </g>
     </g>
    </g>
    <g id="xtick_4">
     <g id="line2d_4">
      <g>
       <use style="stroke:#000000;stroke-width:0.8;" x="195.069638" xlink:href="#mea79b221c5" y="307.584"/>
      </g>
     </g>
     <g id="text_4">
      <!-- 150 -->
      <g transform="translate(185.525888 322.182437)scale(0.1 -0.1)">
       <use xlink:href="#DejaVuSans-49"/>
       <use x="63.623047" xlink:href="#DejaVuSans-53"/>
       <use x="127.246094" xlink:href="#DejaVuSans-48"/>
      </g>
     </g>
    </g>
    <g id="xtick_5">
     <g id="line2d_5">
      <g>
       <use style="stroke:#000000;stroke-width:0.8;" x="235.753165" xlink:href="#mea79b221c5" y="307.584"/>
      </g>
     </g>
     <g id="text_5">
      <!-- 200 -->
      <defs>
       <path d="M 19.1875 8.296875 
L 53.609375 8.296875 
L 53.609375 0 
L 7.328125 0 
L 7.328125 8.296875 
Q 12.9375 14.109375 22.625 23.890625 
Q 32.328125 33.6875 34.8125 36.53125 
Q 39.546875 41.84375 41.421875 45.53125 
Q 43.3125 49.21875 43.3125 52.78125 
Q 43.3125 58.59375 39.234375 62.25 
Q 35.15625 65.921875 28.609375 65.921875 
Q 23.96875 65.921875 18.8125 64.3125 
Q 13.671875 62.703125 7.8125 59.421875 
L 7.8125 69.390625 
Q 13.765625 71.78125 18.9375 73 
Q 24.125 74.21875 28.421875 74.21875 
Q 39.75 74.21875 46.484375 68.546875 
Q 53.21875 62.890625 53.21875 53.421875 
Q 53.21875 48.921875 51.53125 44.890625 
Q 49.859375 40.875 45.40625 35.40625 
Q 44.1875 33.984375 37.640625 27.21875 
Q 31.109375 20.453125 19.1875 8.296875 
z
" id="DejaVuSans-50"/>
      </defs>
      <g transform="translate(226.209415 322.182437)scale(0.1 -0.1)">
       <use xlink:href="#DejaVuSans-50"/>
       <use x="63.623047" xlink:href="#DejaVuSans-48"/>
       <use x="127.246094" xlink:href="#DejaVuSans-48"/>
      </g>
     </g>
    </g>
    <g id="xtick_6">
     <g id="line2d_6">
      <g>
       <use style="stroke:#000000;stroke-width:0.8;" x="276.436692" xlink:href="#mea79b221c5" y="307.584"/>
      </g>
     </g>
     <g id="text_6">
      <!-- 250 -->
      <g transform="translate(266.892942 322.182437)scale(0.1 -0.1)">
       <use xlink:href="#DejaVuSans-50"/>
       <use x="63.623047" xlink:href="#DejaVuSans-53"/>
       <use x="127.246094" xlink:href="#DejaVuSans-48"/>
      </g>
     </g>
    </g>
    <g id="xtick_7">
     <g id="line2d_7">
      <g>
       <use style="stroke:#000000;stroke-width:0.8;" x="317.120219" xlink:href="#mea79b221c5" y="307.584"/>
      </g>
     </g>
     <g id="text_7">
      <!-- 300 -->
      <defs>
       <path d="M 40.578125 39.3125 
Q 47.65625 37.796875 51.625 33 
Q 55.609375 28.21875 55.609375 21.1875 
Q 55.609375 10.40625 48.1875 4.484375 
Q 40.765625 -1.421875 27.09375 -1.421875 
Q 22.515625 -1.421875 17.65625 -0.515625 
Q 12.796875 0.390625 7.625 2.203125 
L 7.625 11.71875 
Q 11.71875 9.328125 16.59375 8.109375 
Q 21.484375 6.890625 26.8125 6.890625 
Q 36.078125 6.890625 40.9375 10.546875 
Q 45.796875 14.203125 45.796875 21.1875 
Q 45.796875 27.640625 41.28125 31.265625 
Q 36.765625 34.90625 28.71875 34.90625 
L 20.21875 34.90625 
L 20.21875 43.015625 
L 29.109375 43.015625 
Q 36.375 43.015625 40.234375 45.921875 
Q 44.09375 48.828125 44.09375 54.296875 
Q 44.09375 59.90625 40.109375 62.90625 
Q 36.140625 65.921875 28.71875 65.921875 
Q 24.65625 65.921875 20.015625 65.03125 
Q 15.375 64.15625 9.8125 62.3125 
L 9.8125 71.09375 
Q 15.4375 72.65625 20.34375 73.4375 
Q 25.25 74.21875 29.59375 74.21875 
Q 40.828125 74.21875 47.359375 69.109375 
Q 53.90625 64.015625 53.90625 55.328125 
Q 53.90625 49.265625 50.4375 45.09375 
Q 46.96875 40.921875 40.578125 39.3125 
z
" id="DejaVuSans-51"/>
      </defs>
      <g transform="translate(307.576469 322.182437)scale(0.1 -0.1)">
       <use xlink:href="#DejaVuSans-51"/>
       <use x="63.623047" xlink:href="#DejaVuSans-48"/>
       <use x="127.246094" xlink:href="#DejaVuSans-48"/>
      </g>
     </g>
    </g>
    <g id="xtick_8">
     <g id="line2d_8">
      <g>
       <use style="stroke:#000000;stroke-width:0.8;" x="357.803746" xlink:href="#mea79b221c5" y="307.584"/>
      </g>
     </g>
     <g id="text_8">
      <!-- 350 -->
      <g transform="translate(348.259996 322.182437)scale(0.1 -0.1)">
       <use xlink:href="#DejaVuSans-51"/>
       <use x="63.623047" xlink:href="#DejaVuSans-53"/>
       <use x="127.246094" xlink:href="#DejaVuSans-48"/>
      </g>
     </g>
    </g>
    <g id="xtick_9">
     <g id="line2d_9">
      <g>
       <use style="stroke:#000000;stroke-width:0.8;" x="398.487273" xlink:href="#mea79b221c5" y="307.584"/>
      </g>
     </g>
     <g id="text_9">
      <!-- 400 -->
      <defs>
       <path d="M 37.796875 64.3125 
L 12.890625 25.390625 
L 37.796875 25.390625 
z
M 35.203125 72.90625 
L 47.609375 72.90625 
L 47.609375 25.390625 
L 58.015625 25.390625 
L 58.015625 17.1875 
L 47.609375 17.1875 
L 47.609375 0 
L 37.796875 0 
L 37.796875 17.1875 
L 4.890625 17.1875 
L 4.890625 26.703125 
z
" id="DejaVuSans-52"/>
      </defs>
      <g transform="translate(388.943523 322.182437)scale(0.1 -0.1)">
       <use xlink:href="#DejaVuSans-52"/>
       <use x="63.623047" xlink:href="#DejaVuSans-48"/>
       <use x="127.246094" xlink:href="#DejaVuSans-48"/>
      </g>
     </g>
    </g>
   </g>
   <g id="matplotlib.axis_2">
    <g id="ytick_1">
     <g id="line2d_10">
      <defs>
       <path d="M 0 0 
L -3.5 0 
" id="me02330d11e" style="stroke:#000000;stroke-width:0.8;"/>
      </defs>
      <g>
       <use style="stroke:#000000;stroke-width:0.8;" x="57.6" xlink:href="#me02330d11e" y="292.083539"/>
      </g>
     </g>
     <g id="text_10">
      <!-- −0.00020 -->
      <defs>
       <path d="M 10.59375 35.5 
L 73.1875 35.5 
L 73.1875 27.203125 
L 10.59375 27.203125 
z
" id="DejaVuSans-8722"/>
       <path d="M 10.6875 12.40625 
L 21 12.40625 
L 21 0 
L 10.6875 0 
z
" id="DejaVuSans-46"/>
      </defs>
      <g transform="translate(0.867188 295.882758)scale(0.1 -0.1)">
       <use xlink:href="#DejaVuSans-8722"/>
       <use x="83.789062" xlink:href="#DejaVuSans-48"/>
       <use x="147.412109" xlink:href="#DejaVuSans-46"/>
       <use x="179.199219" xlink:href="#DejaVuSans-48"/>
       <use x="242.822266" xlink:href="#DejaVuSans-48"/>
       <use x="306.445312" xlink:href="#DejaVuSans-48"/>
       <use x="370.068359" xlink:href="#DejaVuSans-50"/>
       <use x="433.691406" xlink:href="#DejaVuSans-48"/>
      </g>
     </g>
    </g>
    <g id="ytick_2">
     <g id="line2d_11">
      <g>
       <use style="stroke:#000000;stroke-width:0.8;" x="57.6" xlink:href="#me02330d11e" y="258.217754"/>
      </g>
     </g>
     <g id="text_11">
      <!-- −0.00015 -->
      <g transform="translate(0.867188 262.016972)scale(0.1 -0.1)">
       <use xlink:href="#DejaVuSans-8722"/>
       <use x="83.789062" xlink:href="#DejaVuSans-48"/>
       <use x="147.412109" xlink:href="#DejaVuSans-46"/>
       <use x="179.199219" xlink:href="#DejaVuSans-48"/>
       <use x="242.822266" xlink:href="#DejaVuSans-48"/>
       <use x="306.445312" xlink:href="#DejaVuSans-48"/>
       <use x="370.068359" xlink:href="#DejaVuSans-49"/>
       <use x="433.691406" xlink:href="#DejaVuSans-53"/>
      </g>
     </g>
    </g>
    <g id="ytick_3">
     <g id="line2d_12">
      <g>
       <use style="stroke:#000000;stroke-width:0.8;" x="57.6" xlink:href="#me02330d11e" y="224.351968"/>
      </g>
     </g>
     <g id="text_12">
      <!-- −0.00010 -->
      <g transform="translate(0.867188 228.151187)scale(0.1 -0.1)">
       <use xlink:href="#DejaVuSans-8722"/>
       <use x="83.789062" xlink:href="#DejaVuSans-48"/>
       <use x="147.412109" xlink:href="#DejaVuSans-46"/>
       <use x="179.199219" xlink:href="#DejaVuSans-48"/>
       <use x="242.822266" xlink:href="#DejaVuSans-48"/>
       <use x="306.445312" xlink:href="#DejaVuSans-48"/>
       <use x="370.068359" xlink:href="#DejaVuSans-49"/>
       <use x="433.691406" xlink:href="#DejaVuSans-48"/>
      </g>
     </g>
    </g>
    <g id="ytick_4">
     <g id="line2d_13">
      <g>
       <use style="stroke:#000000;stroke-width:0.8;" x="57.6" xlink:href="#me02330d11e" y="190.486183"/>
      </g>
     </g>
     <g id="text_13">
      <!-- −0.00005 -->
      <g transform="translate(0.867188 194.285402)scale(0.1 -0.1)">
       <use xlink:href="#DejaVuSans-8722"/>
       <use x="83.789062" xlink:href="#DejaVuSans-48"/>
       <use x="147.412109" xlink:href="#DejaVuSans-46"/>
       <use x="179.199219" xlink:href="#DejaVuSans-48"/>
       <use x="242.822266" xlink:href="#DejaVuSans-48"/>
       <use x="306.445312" xlink:href="#DejaVuSans-48"/>
       <use x="370.068359" xlink:href="#DejaVuSans-48"/>
       <use x="433.691406" xlink:href="#DejaVuSans-53"/>
      </g>
     </g>
    </g>
    <g id="ytick_5">
     <g id="line2d_14">
      <g>
       <use style="stroke:#000000;stroke-width:0.8;" x="57.6" xlink:href="#me02330d11e" y="156.620398"/>
      </g>
     </g>
     <g id="text_14">
      <!-- 0.00000 -->
      <g transform="translate(9.246875 160.419616)scale(0.1 -0.1)">
       <use xlink:href="#DejaVuSans-48"/>
       <use x="63.623047" xlink:href="#DejaVuSans-46"/>
       <use x="95.410156" xlink:href="#DejaVuSans-48"/>
       <use x="159.033203" xlink:href="#DejaVuSans-48"/>
       <use x="222.65625" xlink:href="#DejaVuSans-48"/>
       <use x="286.279297" xlink:href="#DejaVuSans-48"/>
       <use x="349.902344" xlink:href="#DejaVuSans-48"/>
      </g>
     </g>
    </g>
    <g id="ytick_6">
     <g id="line2d_15">
      <g>
       <use style="stroke:#000000;stroke-width:0.8;" x="57.6" xlink:href="#me02330d11e" y="122.754612"/>
      </g>
     </g>
     <g id="text_15">
      <!-- 0.00005 -->
      <g transform="translate(9.246875 126.553831)scale(0.1 -0.1)">
       <use xlink:href="#DejaVuSans-48"/>
       <use x="63.623047" xlink:href="#DejaVuSans-46"/>
       <use x="95.410156" xlink:href="#DejaVuSans-48"/>
       <use x="159.033203" xlink:href="#DejaVuSans-48"/>
       <use x="222.65625" xlink:href="#DejaVuSans-48"/>
       <use x="286.279297" xlink:href="#DejaVuSans-48"/>
       <use x="349.902344" xlink:href="#DejaVuSans-53"/>
      </g>
     </g>
    </g>
    <g id="ytick_7">
     <g id="line2d_16">
      <g>
       <use style="stroke:#000000;stroke-width:0.8;" x="57.6" xlink:href="#me02330d11e" y="88.888827"/>
      </g>
     </g>
     <g id="text_16">
      <!-- 0.00010 -->
      <g transform="translate(9.246875 92.688046)scale(0.1 -0.1)">
       <use xlink:href="#DejaVuSans-48"/>
       <use x="63.623047" xlink:href="#DejaVuSans-46"/>
       <use x="95.410156" xlink:href="#DejaVuSans-48"/>
       <use x="159.033203" xlink:href="#DejaVuSans-48"/>
       <use x="222.65625" xlink:href="#DejaVuSans-48"/>
       <use x="286.279297" xlink:href="#DejaVuSans-49"/>
       <use x="349.902344" xlink:href="#DejaVuSans-48"/>
      </g>
     </g>
    </g>
    <g id="ytick_8">
     <g id="line2d_17">
      <g>
       <use style="stroke:#000000;stroke-width:0.8;" x="57.6" xlink:href="#me02330d11e" y="55.023042"/>
      </g>
     </g>
     <g id="text_17">
      <!-- 0.00015 -->
      <g transform="translate(9.246875 58.822261)scale(0.1 -0.1)">
       <use xlink:href="#DejaVuSans-48"/>
       <use x="63.623047" xlink:href="#DejaVuSans-46"/>
       <use x="95.410156" xlink:href="#DejaVuSans-48"/>
       <use x="159.033203" xlink:href="#DejaVuSans-48"/>
       <use x="222.65625" xlink:href="#DejaVuSans-48"/>
       <use x="286.279297" xlink:href="#DejaVuSans-49"/>
       <use x="349.902344" xlink:href="#DejaVuSans-53"/>
      </g>
     </g>
    </g>
   </g>
   <g id="line2d_18">
    <path clip-path="url(#p4315978267)" d="M 74.414073 346.6 
L 74.646398 31.777178 
L 74.868496 -1 
M 76.35977 -1 
L 76.575503 346.6 
M 77.648923 346.6 
L 77.885562 -1 
M 77.945631 -1 
L 78.624985 346.6 
M 80.123628 346.6 
L 80.342092 243.410401 
L 81.056999 -1 
M 81.282016 -1 
L 81.969433 182.838731 
L 82.707197 -1 
M 82.83851 -1 
L 83.596774 257.856897 
L 83.740393 346.6 
M 84.668803 346.6 
L 84.885709 -1 
M 85.800656 -1 
L 86.150711 346.6 
M 87.141286 346.6 
L 87.271636 -1 
M 90.275618 -1 
L 90.607817 346.6 
M 91.379252 346.6 
L 91.733479 94.904739 
L 92.545858 346.6 
M 92.939103 346.6 
L 93.36082 346.169436 
L 93.361276 346.6 
M 94.583568 346.6 
L 94.768821 -1 
M 95.331907 -1 
L 95.622229 346.6 
M 96.00987 346.6 
L 96.346156 -1 
M 96.853031 -1 
L 97.149592 346.6 
M 145.504697 346.6 
L 196.500204 -1 
M 237.057082 -1 
L 237.380506 179.172092 
L 238.194176 325.076493 
L 239.007847 193.644343 
L 239.392962 -1 
M 240.029528 -1 
L 240.363344 346.6 
M 241.656103 346.6 
L 241.910592 -1 
M 244.508956 -1 
L 244.703541 150.089484 
L 245.232946 346.6 
M 245.621795 346.6 
L 245.966322 -1 
M 248.099844 -1 
L 248.771893 285.188634 
L 249.533859 -1 
M 249.624162 -1 
L 250.31503 346.6 
M 250.452875 346.6 
L 250.892976 -1 
M 251.758362 -1 
L 252.026576 123.251479 
L 252.840246 325.726485 
L 253.653917 289.204677 
L 254.229878 -1 
M 254.638095 -1 
L 255.132941 346.6 
M 258.249904 346.6 
L 258.873031 -1 
M 259.485032 -1 
L 259.659119 346.6 
M 260.531773 346.6 
L 260.659013 -1 
M 261.40032 -1 
L 261.569753 346.6 
M 263.396899 346.6 
L 263.417963 321.24447 
L 264.231634 89.943427 
L 265.045304 213.958218 
L 265.858975 213.958218 
L 266.651121 -1 
M 267.496396 -1 
L 268.096279 346.6 
M 268.507631 346.6 
L 269.113657 2.100741 
L 269.45736 346.6 
M 272.368336 346.6 
L 272.368339 346.599298 
L 272.368342 346.6 
M 275.132848 346.6 
L 275.623021 44.912043 
L 276.436692 57.87203 
L 276.631427 346.6 
M 277.926211 346.6 
L 278.064033 159.464447 
L 278.685406 -1 
M 279.324631 -1 
L 279.691374 39.749771 
L 279.909621 -1 
M 280.575537 -1 
L 280.795941 346.6 
M 281.76087 346.6 
L 281.947285 -1 
M 282.366927 -1 
L 282.603135 346.6 
M 283.642466 346.6 
L 283.759727 261.629481 
L 283.913685 346.6 
M 284.855908 346.6 
L 285.125617 -1 
M 285.711319 -1 
L 286.045813 346.6 
M 286.373498 346.6 
L 286.746499 -1 
M 289.820802 -1 
L 290.138136 346.6 
M 290.694476 346.6 
L 291.082761 215.665556 
L 291.896432 5.634804 
L 292.710103 248.869249 
L 292.974479 -1 
M 294.856709 -1 
L 295.151114 293.341329 
L 295.380829 -1 
M 298.529554 -1 
L 298.783438 346.6 
M 299.992708 346.6 
L 300.033137 315.386354 
L 300.226274 346.6 
M 300.933015 346.6 
L 301.231812 -1 
M 302.586658 -1 
L 303.010452 346.6 
M 303.442603 346.6 
L 303.679099 -1 
M 305.23127 -1 
L 305.40826 346.6 
M 306.357996 346.6 
L 306.542502 161.96992 
L 307.356172 43.454037 
L 308.169843 297.264205 
L 308.983513 297.264205 
L 309.464537 -1 
M 310.176065 -1 
L 310.610854 235.697241 
L 311.424525 290.154747 
L 312.004403 346.6 
M 312.357557 346.6 
L 313.051866 214.223966 
L 313.21302 -1 
M 314.459011 -1 
L 314.679207 322.33181 
L 316.306548 322.33181 
L 317.120219 195.072018 
L 317.386956 -1 
M 319.043335 -1 
L 319.29906 346.6 
M 320.011637 346.6 
L 320.374901 59.187377 
L 321.188571 59.187377 
L 322.002242 289.548079 
L 322.815913 289.548079 
L 323.629583 178.711576 
L 324.443254 168.690599 
L 324.718441 346.6 
M 325.765264 346.6 
L 326.29704 -1 
M 332.77285 -1 
L 333.122701 346.6 
M 334.421672 346.6 
L 334.794279 -1 
M 335.956023 -1 
L 336.213097 346.6 
M 337.973325 346.6 
L 338.222774 -1 
M 339.166515 -1 
L 339.530658 346.6 
M 340.084728 346.6 
L 340.262464 -1 
M 344.267555 -1 
L 344.785017 281.801437 
L 345.598688 281.801437 
L 345.662158 346.6 
M 346.892703 346.6 
L 347.110705 -1 
M 349.921683 -1 
L 350.403047 346.6 
M 350.565411 346.6 
L 351.090389 -1 
M 351.445714 -1 
L 351.835171 346.6 
M 352.567315 346.6 
L 352.921722 158.653587 
L 353.417815 -1 
M 353.838043 -1 
L 354.187161 346.6 
M 354.885147 346.6 
L 355.209357 -1 
M 356.901254 -1 
L 356.990075 19.15027 
L 357.803746 84.30691 
L 358.509191 346.6 
M 360.010374 346.6 
L 360.244757 308.735718 
L 360.280254 346.6 
M 362.92772 346.6 
L 363.629169 -1 
M 364.481649 -1 
L 364.803584 346.6 
M 365.62703 346.6 
L 365.940451 127.964544 
L 366.490088 346.6 
M 367.05977 346.6 
L 367.567792 172.032446 
L 368.381463 172.032446 
L 368.69655 -1 
M 370.24113 -1 
L 370.579289 346.6 
M 372.407314 346.6 
L 372.449815 260.761376 
L 373.044391 -1 
M 374.301901 -1 
L 374.890827 251.755963 
L 375.704498 251.755963 
L 376.150408 -1 
M 378.610017 -1 
L 378.865015 346.6 
M 383.336706 346.6 
L 383.841203 96.064142 
L 384.654874 96.064142 
L 384.807217 346.6 
M 388.972905 346.6 
L 389.232877 -1 
M 390.327348 -1 
L 390.350567 10.940548 
L 391.164238 10.940548 
L 391.977908 121.321578 
L 392.658368 346.6 
M 394.081765 346.6 
L 394.41892 249.219491 
L 394.64948 346.6 
M 395.505162 346.6 
L 395.88986 -1 
M 396.252933 -1 
L 396.761283 346.6 
M 220.015946 346.6 
L 123.979057 -1 
M 101.109335 -1 
L 101.497526 8.867053 
L 102.311196 8.867053 
L 102.636038 346.6 
M 103.782481 346.6 
L 103.938537 225.993844 
L 104.752208 82.386215 
L 104.961077 346.6 
M 106.082102 346.6 
L 106.316646 -1 
M 106.450863 -1 
L 106.716767 346.6 
M 107.616789 346.6 
L 107.853179 -1 
M 108.3588 -1 
L 108.96494 346.6 
M 110.033073 346.6 
L 110.447902 100.607591 
L 110.96315 346.6 
M 112.281753 346.6 
L 112.69893 -1 
M 112.9658 -1 
L 113.134634 346.6 
M 114.282619 346.6 
L 114.455046 -1 
M 114.656482 -1 
L 115.051505 346.6 
M 115.917636 346.6 
L 116.143595 252.406447 
L 116.957266 208.714363 
L 117.188427 -1 
M 118.233294 -1 
L 118.537411 346.6 
M 118.761177 346.6 
L 119.398278 151.958818 
L 119.994432 346.6 
M 122.51359 346.6 
L 122.65296 267.411876 
L 122.728081 346.6 
M 123.89848 346.6 
L 124.091293 -1 
M 127.283734 -1 
L 127.510818 346.6 
M 127.55888 346.6 
L 127.783449 -1 
M 129.062832 -1 
L 129.44183 346.6 
M 130.417275 346.6 
L 130.772851 -1 
M 132.866003 -1 
L 133.230677 191.123389 
L 134.044347 280.026922 
L 134.851365 -1 
M 134.868789 -1 
L 135.671688 171.695429 
L 136.485359 171.695429 
L 136.744023 346.6 
M 137.61334 346.6 
L 137.904463 -1 
M 138.542742 -1 
L 138.92637 220.800279 
L 139.709324 -1 
M 139.75234 -1 
L 140.243622 346.6 
M 141.22144 346.6 
L 141.367382 298.646838 
L 141.850368 -1 
M 144.160694 -1 
L 144.590605 346.6 
M 144.669622 346.6 
L 145.319535 -1 
M 145.581784 -1 
L 146.416182 346.6 
M 147.570866 346.6 
L 147.876746 198.217233 
L 148.690417 122.834789 
L 149.504087 122.834789 
L 149.811165 346.6 
M 150.506095 346.6 
L 150.683436 -1 
M 151.567825 -1 
L 151.740576 346.6 
M 153.19693 346.6 
L 153.567023 -1 
M 153.585394 -1 
L 154.386111 313.495713 
L 155.199781 44.805222 
L 156.013452 44.805222 
L 156.827122 -0.162111 
L 157.640793 -0.162111 
L 158.454463 50.615867 
L 158.792202 346.6 
M 159.883984 346.6 
L 160.081805 212.623423 
L 160.527607 -1 
M 161.079702 -1 
L 161.442976 346.6 
M 162.123883 346.6 
L 162.522816 101.620182 
L 163.336487 42.329746 
L 164.150157 277.587412 
L 164.963828 277.587412 
L 165.777498 240.039217 
L 166.059172 346.6 
M 167.866548 346.6 
L 168.21851 2.212181 
L 168.523766 346.6 
M 171.996325 346.6 
L 172.286863 327.057317 
L 173.100533 327.057317 
L 173.686198 346.6 
M 174.924193 346.6 
L 175.20968 -1 
M 177.203335 -1 
L 177.61913 346.6 
M 178.482156 346.6 
L 179.154378 -1 
M 181.232989 -1 
L 181.237239 1.026469 
L 181.240401 -1 
M 182.615028 -1 
L 182.86458 228.749723 
L 183.039593 -1 
M 185.146343 -1 
L 185.305591 203.018254 
L 186.119262 334.226981 
L 187.090666 -1 
M 187.953804 -1 
L 188.328783 346.6 
M 190.6025 346.6 
L 191.001285 140.33872 
L 191.144296 -1 
M 194.28826 -1 
L 194.626276 346.6 
M 195.347554 346.6 
L 195.559434 -1 
M 196.258878 -1 
L 196.504579 346.6 
M 196.987325 346.6 
L 197.358106 -1 
M 198.429203 -1 
L 198.684139 346.6 
M 199.807906 346.6 
L 199.951661 213.810026 
L 200.426734 346.6 
M 200.860101 346.6 
L 201.208165 -1 
M 201.883678 -1 
L 202.169645 346.6 
M 203.599704 346.6 
L 204.020014 56.932108 
L 204.833684 154.04368 
L 205.163619 -1 
M 206.882127 -1 
L 207.212999 346.6 
M 207.400226 346.6 
L 208.073435 -1 
M 208.09291 -1 
L 208.297768 346.6 
M 209.46421 346.6 
L 209.654796 -1 
M 209.789705 -1 
L 210.021237 346.6 
M 211.332705 346.6 
L 211.343049 336.777304 
L 212.156719 176.70141 
L 212.97039 176.70141 
L 213.240043 346.6 
M 214.1708 346.6 
L 214.562996 -1 
M 214.769286 -1 
L 215.411401 114.22625 
L 215.96338 -1 
M 218.221448 -1 
L 218.482664 346.6 
M 218.895886 346.6 
L 219.223158 -1 
M 219.825733 -1 
L 220.267009 346.6 
M 221.156096 346.6 
L 221.920766 21.886275 
L 222.734436 21.886275 
L 223.548225 -1 
M 224.753952 -1 
L 225.022567 346.6 
M 228.091157 346.6 
L 228.412927 -1 
M 228.481404 -1 
L 229.474252 346.6 
M 230.326782 346.6 
L 230.845758 -1 
M 233.668779 -1 
L 234.090037 346.6 
M 235.1796 346.6 
L 235.753165 276.060993 
L 235.753165 276.060993 
" style="fill:none;stroke:#1f77b4;stroke-linecap:square;stroke-width:1.5;"/>
   </g>
   <g id="line2d_19">
    <path clip-path="url(#p4315978267)" d="M 74.639433 -1 
L 74.646398 34.884133 
L 75.460068 -0.940866 
L 76.076497 346.6 
M 77.566448 346.6 
L 77.90108 149.742231 
L 78.429076 346.6 
M 78.92877 346.6 
L 79.64662 -1 
M 80.957403 -1 
L 81.61408 346.6 
M 82.47119 346.6 
L 82.783103 224.016521 
L 83.530206 -1 
M 86.69813 -1 
L 87.112489 346.6 
M 88.477535 346.6 
L 88.478797 345.933102 
L 88.790028 -1 
M 89.618536 -1 
L 89.820904 346.6 
M 90.626757 346.6 
L 90.919809 70.820214 
L 91.733479 49.427245 
L 92.54715 268.249193 
L 93.086971 346.6 
M 93.425294 346.6 
L 93.989138 -1 
M 96.041668 -1 
L 96.45228 346.6 
M 170.49922 346.6 
L 236.566835 237.004511 
L 237.380506 238.166327 
L 237.668251 -1 
M 238.453205 -1 
L 238.65918 346.6 
M 239.556367 346.6 
L 239.821517 62.16884 
L 240.19576 346.6 
M 245.903485 346.6 
L 246.330882 211.239813 
L 246.982963 346.6 
M 248.006395 346.6 
L 248.505593 -1 
M 248.9163 -1 
L 249.187001 346.6 
M 249.833447 346.6 
L 250.001807 -1 
M 251.017483 -1 
L 251.212905 258.363426 
L 252.026576 287.229526 
L 252.062486 346.6 
M 253.999848 346.6 
L 254.282474 -1 
M 258.323788 -1 
L 258.53594 160.404667 
L 259.34961 259.517147 
L 259.437866 346.6 
M 260.834866 346.6 
L 260.976951 195.165565 
L 261.790622 181.126413 
L 262.604293 76.318037 
L 262.825392 346.6 
M 263.852982 346.6 
L 264.061727 -1 
M 264.44025 -1 
L 264.696554 346.6 
M 266.325246 346.6 
L 266.667918 -1 
M 267.491457 -1 
L 267.864154 346.6 
M 269.26402 346.6 
L 269.538732 -1 
M 270.663676 -1 
L 270.740998 50.632117 
L 271.554668 50.632117 
L 272.368339 265.477074 
L 272.440474 346.6 
M 275.31588 346.6 
L 275.527014 -1 
M 275.837421 -1 
L 276.308918 346.6 
M 276.714631 346.6 
L 277.250362 165.032336 
L 277.850508 346.6 
M 278.108386 346.6 
L 278.347045 -1 
M 279.255875 -1 
L 279.425953 346.6 
M 280.061239 346.6 
L 280.298244 -1 
M 281.445584 -1 
L 282.042376 346.6 
M 282.303812 346.6 
L 282.946056 150.188778 
L 283.200686 -1 
M 284.021768 -1 
L 284.296175 346.6 
M 285.407092 346.6 
L 285.873231 -1 
M 287.883305 -1 
L 288.324588 346.6 
M 289.925949 346.6 
L 290.269091 164.40731 
L 290.749311 346.6 
M 291.382233 346.6 
L 292.259511 -1 
M 295.110145 -1 
L 295.151114 32.622346 
L 295.237544 -1 
M 297.300916 -1 
L 297.592126 156.687145 
L 298.405796 271.697483 
L 299.095334 -1 
M 299.449108 -1 
L 300.033137 123.851164 
L 300.504425 -1 
M 303.290259 -1 
L 303.619452 346.6 
M 305.228503 346.6 
L 305.44249 -1 
M 306.808141 -1 
L 307.009527 346.6 
M 308.046848 346.6 
L 308.169843 240.050645 
L 308.983513 240.050645 
L 309.192006 346.6 
M 310.376133 346.6 
L 310.610854 221.212256 
L 311.316345 346.6 
M 311.460841 346.6 
L 312.117387 -1 
M 313.510402 -1 
L 313.792812 346.6 
M 313.953901 346.6 
L 314.297041 -1 
M 316.621509 -1 
L 316.904308 346.6 
M 318.981094 346.6 
L 319.183419 -1 
M 320.10125 -1 
L 320.374901 327.923063 
L 321.188571 327.923063 
L 321.245246 346.6 
M 323.956837 346.6 
L 324.355178 -1 
M 324.568498 -1 
L 325.134942 346.6 
M 326.222722 346.6 
L 326.54885 -1 
M 327.925095 -1 
L 328.145964 346.6 
M 330.686435 346.6 
L 330.952618 166.869045 
L 331.766288 169.325718 
L 332.005561 346.6 
M 333.749323 346.6 
L 333.970686 -1 
M 334.570251 -1 
L 334.909807 346.6 
M 336.384331 346.6 
L 336.648312 256.184831 
L 336.801156 346.6 
M 337.776648 346.6 
L 338.056449 -1 
M 340.345606 -1 
L 340.634675 346.6 
M 341.759585 346.6 
L 341.93476 -1 
M 344.459722 -1 
L 344.785017 130.67901 
L 345.598688 130.67901 
L 345.78133 346.6 
M 351.885456 346.6 
L 352.077214 -1 
M 352.150544 -1 
L 352.414768 346.6 
M 353.447789 346.6 
L 353.721974 -1 
M 353.746891 -1 
L 353.981829 346.6 
M 356.312808 346.6 
L 356.990075 64.159874 
L 357.385387 346.6 
M 358.015389 346.6 
L 358.26151 -1 
M 359.727203 -1 
L 359.948079 346.6 
M 360.571187 346.6 
L 360.814213 -1 
M 361.789804 -1 
L 361.872098 38.303386 
L 362.685769 244.875405 
L 362.82213 346.6 
M 363.754241 346.6 
L 363.929532 -1 
M 364.70426 -1 
L 364.883011 346.6 
M 367.244175 346.6 
L 367.567792 23.074982 
L 368.381463 23.074982 
L 368.809059 346.6 
M 369.359055 346.6 
L 369.554115 -1 
M 371.604658 -1 
L 371.636145 18.426465 
L 371.671459 -1 
M 372.92904 -1 
L 373.263486 297.819451 
L 374.077157 297.819451 
L 374.497732 346.6 
M 375.763553 346.6 
L 376.213791 -1 
M 378.834693 -1 
L 378.95918 61.400412 
L 381.400191 61.400412 
L 381.768314 346.6 
M 389.216903 346.6 
L 389.422484 -1 
M 391.436409 -1 
L 391.617598 346.6 
M 393.004239 346.6 
L 393.296185 -1 
M 394.62674 -1 
L 394.88681 346.6 
M 395.527486 346.6 
L 395.749283 -1 
M 397.259107 -1 
L 397.673602 234.995298 
L 398.487273 171.658664 
L 98.242843 236.971802 
L 99.056514 177.045672 
L 99.260526 346.6 
M 101.010661 346.6 
L 101.234858 -1 
M 104.275343 -1 
L 104.506193 346.6 
M 105.086792 346.6 
L 105.400751 -1 
M 106.194591 -1 
L 106.379549 52.782952 
L 107.193219 7.022127 
L 108.121407 346.6 
M 109.938915 346.6 
L 110.291673 -1 
M 112.142623 -1 
L 112.888913 261.295124 
L 112.974438 346.6 
M 114.085248 346.6 
L 114.268392 -1 
M 115.240339 -1 
L 115.329925 57.202835 
L 115.61478 346.6 
M 117.123557 346.6 
L 117.677913 -1 
M 118.05555 -1 
L 118.584607 107.425147 
L 118.983919 -1 
M 119.4943 -1 
L 119.790961 346.6 
M 120.617479 346.6 
L 120.903247 -1 
M 121.804098 -1 
L 121.839289 5.728708 
L 122.166939 346.6 
M 123.848066 346.6 
L 124.181109 -1 
M 127.97211 -1 
L 128.486206 346.6 
M 129.704958 346.6 
L 129.975995 147.869491 
L 130.447824 -1 
M 133.000998 -1 
L 133.230677 121.55955 
L 133.319998 -1 
M 136.781728 -1 
L 137.299029 256.074291 
L 137.564273 -1 
M 139.937134 -1 
L 140.203558 346.6 
M 141.337084 346.6 
L 141.367382 328.93092 
L 141.608601 -1 
M 142.517172 -1 
L 142.666391 346.6 
M 143.600042 346.6 
L 143.94039 -1 
M 146.375037 -1 
L 146.735266 346.6 
M 147.979394 346.6 
L 148.33629 -1 
M 149.880867 -1 
L 150.260592 346.6 
M 150.601802 346.6 
L 151.131429 249.02699 
L 151.83231 -1 
M 152.941653 -1 
L 154.473425 346.6 
M 156.214438 346.6 
L 156.396094 -1 
M 158.383612 -1 
L 158.454463 77.668428 
L 158.574124 -1 
M 161.293473 -1 
L 161.709146 151.312272 
L 161.847514 -1 
M 165.219564 -1 
L 165.522971 346.6 
M 166.457188 346.6 
L 166.591169 289.119606 
L 167.989882 -1 
M 169.718944 -1 
L 169.845851 30.016953 
L 170.164757 346.6 
M 173.282363 346.6 
L 173.576273 -1 
M 177.60293 -1 
L 177.982556 315.225313 
L 178.796227 174.053101 
L 179.018422 346.6 
M 180.55616 346.6 
L 180.821241 -1 
M 181.780292 -1 
L 182.050909 270.833543 
L 182.265536 -1 
M 186.504357 -1 
L 186.932932 160.654775 
L 187.203426 346.6 
M 187.974313 346.6 
L 188.186292 -1 
M 191.939812 -1 
L 192.144254 346.6 
M 193.27547 346.6 
L 193.442297 134.199886 
L 193.676749 346.6 
M 194.59149 346.6 
L 194.813748 -1 
M 196.073084 -1 
L 196.423777 346.6 
M 200.764584 346.6 
L 200.765332 346.244257 
L 201.579002 193.309279 
L 201.780616 346.6 
M 204.429923 346.6 
L 204.63721 -1 
M 205.109151 -1 
L 205.399777 346.6 
M 207.465964 346.6 
L 207.721998 -1 
M 209.049799 -1 
L 209.331183 346.6 
M 210.784418 346.6 
L 211.306991 -1 
M 211.411201 -1 
L 212.156719 261.369477 
L 212.97039 261.369477 
L 213.183406 -1 
M 216.055575 -1 
L 216.225072 174.394763 
L 217.038742 101.147027 
L 217.518737 346.6 
M 219.527689 346.6 
L 219.974811 -1 
M 221.33623 -1 
L 221.657783 346.6 
M 223.274496 346.6 
L 223.923694 -1 
M 224.57985 -1 
L 224.899089 346.6 
M 227.914088 346.6 
L 228.170336 -1 
M 230.157359 -1 
L 230.419661 346.6 
M 232.393248 346.6 
L 232.498483 218.565525 
L 233.312153 99.852022 
L 233.480856 346.6 
M 235.514832 346.6 
L 235.72683 -1 
L 235.72683 -1 
" style="fill:none;stroke:#ff7f0e;stroke-linecap:square;stroke-width:1.5;"/>
   </g>
   <g id="patch_3">
    <path d="M 57.6 307.584 
L 57.6 41.472 
" style="fill:none;stroke:#000000;stroke-linecap:square;stroke-linejoin:miter;stroke-width:0.8;"/>
   </g>
   <g id="patch_4">
    <path d="M 414.72 307.584 
L 414.72 41.472 
" style="fill:none;stroke:#000000;stroke-linecap:square;stroke-linejoin:miter;stroke-width:0.8;"/>
   </g>
   <g id="patch_5">
    <path d="M 57.6 307.584 
L 414.72 307.584 
" style="fill:none;stroke:#000000;stroke-linecap:square;stroke-linejoin:miter;stroke-width:0.8;"/>
   </g>
   <g id="patch_6">
    <path d="M 57.6 41.472 
L 414.72 41.472 
" style="fill:none;stroke:#000000;stroke-linecap:square;stroke-linejoin:miter;stroke-width:0.8;"/>
   </g>
   <g id="text_18">
    <!-- Polyakov loop 0 direction -->
    <defs>
     <path d="M 19.671875 64.796875 
L 19.671875 37.40625 
L 32.078125 37.40625 
Q 38.96875 37.40625 42.71875 40.96875 
Q 46.484375 44.53125 46.484375 51.125 
Q 46.484375 57.671875 42.71875 61.234375 
Q 38.96875 64.796875 32.078125 64.796875 
z
M 9.8125 72.90625 
L 32.078125 72.90625 
Q 44.34375 72.90625 50.609375 67.359375 
Q 56.890625 61.8125 56.890625 51.125 
Q 56.890625 40.328125 50.609375 34.8125 
Q 44.34375 29.296875 32.078125 29.296875 
L 19.671875 29.296875 
L 19.671875 0 
L 9.8125 0 
z
" id="DejaVuSans-80"/>
     <path d="M 30.609375 48.390625 
Q 23.390625 48.390625 19.1875 42.75 
Q 14.984375 37.109375 14.984375 27.296875 
Q 14.984375 17.484375 19.15625 11.84375 
Q 23.34375 6.203125 30.609375 6.203125 
Q 37.796875 6.203125 41.984375 11.859375 
Q 46.1875 17.53125 46.1875 27.296875 
Q 46.1875 37.015625 41.984375 42.703125 
Q 37.796875 48.390625 30.609375 48.390625 
z
M 30.609375 56 
Q 42.328125 56 49.015625 48.375 
Q 55.71875 40.765625 55.71875 27.296875 
Q 55.71875 13.875 49.015625 6.21875 
Q 42.328125 -1.421875 30.609375 -1.421875 
Q 18.84375 -1.421875 12.171875 6.21875 
Q 5.515625 13.875 5.515625 27.296875 
Q 5.515625 40.765625 12.171875 48.375 
Q 18.84375 56 30.609375 56 
z
" id="DejaVuSans-111"/>
     <path d="M 9.421875 75.984375 
L 18.40625 75.984375 
L 18.40625 0 
L 9.421875 0 
z
" id="DejaVuSans-108"/>
     <path d="M 32.171875 -5.078125 
Q 28.375 -14.84375 24.75 -17.8125 
Q 21.140625 -20.796875 15.09375 -20.796875 
L 7.90625 -20.796875 
L 7.90625 -13.28125 
L 13.1875 -13.28125 
Q 16.890625 -13.28125 18.9375 -11.515625 
Q 21 -9.765625 23.484375 -3.21875 
L 25.09375 0.875 
L 2.984375 54.6875 
L 12.5 54.6875 
L 29.59375 11.921875 
L 46.6875 54.6875 
L 56.203125 54.6875 
z
" id="DejaVuSans-121"/>
     <path d="M 34.28125 27.484375 
Q 23.390625 27.484375 19.1875 25 
Q 14.984375 22.515625 14.984375 16.5 
Q 14.984375 11.71875 18.140625 8.90625 
Q 21.296875 6.109375 26.703125 6.109375 
Q 34.1875 6.109375 38.703125 11.40625 
Q 43.21875 16.703125 43.21875 25.484375 
L 43.21875 27.484375 
z
M 52.203125 31.203125 
L 52.203125 0 
L 43.21875 0 
L 43.21875 8.296875 
Q 40.140625 3.328125 35.546875 0.953125 
Q 30.953125 -1.421875 24.3125 -1.421875 
Q 15.921875 -1.421875 10.953125 3.296875 
Q 6 8.015625 6 15.921875 
Q 6 25.140625 12.171875 29.828125 
Q 18.359375 34.515625 30.609375 34.515625 
L 43.21875 34.515625 
L 43.21875 35.40625 
Q 43.21875 41.609375 39.140625 45 
Q 35.0625 48.390625 27.6875 48.390625 
Q 23 48.390625 18.546875 47.265625 
Q 14.109375 46.140625 10.015625 43.890625 
L 10.015625 52.203125 
Q 14.9375 54.109375 19.578125 55.046875 
Q 24.21875 56 28.609375 56 
Q 40.484375 56 46.34375 49.84375 
Q 52.203125 43.703125 52.203125 31.203125 
z
" id="DejaVuSans-97"/>
     <path d="M 9.078125 75.984375 
L 18.109375 75.984375 
L 18.109375 31.109375 
L 44.921875 54.6875 
L 56.390625 54.6875 
L 27.390625 29.109375 
L 57.625 0 
L 45.90625 0 
L 18.109375 26.703125 
L 18.109375 0 
L 9.078125 0 
z
" id="DejaVuSans-107"/>
     <path d="M 2.984375 54.6875 
L 12.5 54.6875 
L 29.59375 8.796875 
L 46.6875 54.6875 
L 56.203125 54.6875 
L 35.6875 0 
L 23.484375 0 
z
" id="DejaVuSans-118"/>
     <path id="DejaVuSans-32"/>
     <path d="M 18.109375 8.203125 
L 18.109375 -20.796875 
L 9.078125 -20.796875 
L 9.078125 54.6875 
L 18.109375 54.6875 
L 18.109375 46.390625 
Q 20.953125 51.265625 25.265625 53.625 
Q 29.59375 56 35.59375 56 
Q 45.5625 56 51.78125 48.09375 
Q 58.015625 40.1875 58.015625 27.296875 
Q 58.015625 14.40625 51.78125 6.484375 
Q 45.5625 -1.421875 35.59375 -1.421875 
Q 29.59375 -1.421875 25.265625 0.953125 
Q 20.953125 3.328125 18.109375 8.203125 
z
M 48.6875 27.296875 
Q 48.6875 37.203125 44.609375 42.84375 
Q 40.53125 48.484375 33.40625 48.484375 
Q 26.265625 48.484375 22.1875 42.84375 
Q 18.109375 37.203125 18.109375 27.296875 
Q 18.109375 17.390625 22.1875 11.75 
Q 26.265625 6.109375 33.40625 6.109375 
Q 40.53125 6.109375 44.609375 11.75 
Q 48.6875 17.390625 48.6875 27.296875 
z
" id="DejaVuSans-112"/>
     <path d="M 45.40625 46.390625 
L 45.40625 75.984375 
L 54.390625 75.984375 
L 54.390625 0 
L 45.40625 0 
L 45.40625 8.203125 
Q 42.578125 3.328125 38.25 0.953125 
Q 33.9375 -1.421875 27.875 -1.421875 
Q 17.96875 -1.421875 11.734375 6.484375 
Q 5.515625 14.40625 5.515625 27.296875 
Q 5.515625 40.1875 11.734375 48.09375 
Q 17.96875 56 27.875 56 
Q 33.9375 56 38.25 53.625 
Q 42.578125 51.265625 45.40625 46.390625 
z
M 14.796875 27.296875 
Q 14.796875 17.390625 18.875 11.75 
Q 22.953125 6.109375 30.078125 6.109375 
Q 37.203125 6.109375 41.296875 11.75 
Q 45.40625 17.390625 45.40625 27.296875 
Q 45.40625 37.203125 41.296875 42.84375 
Q 37.203125 48.484375 30.078125 48.484375 
Q 22.953125 48.484375 18.875 42.84375 
Q 14.796875 37.203125 14.796875 27.296875 
z
" id="DejaVuSans-100"/>
     <path d="M 9.421875 54.6875 
L 18.40625 54.6875 
L 18.40625 0 
L 9.421875 0 
z
M 9.421875 75.984375 
L 18.40625 75.984375 
L 18.40625 64.59375 
L 9.421875 64.59375 
z
" id="DejaVuSans-105"/>
     <path d="M 41.109375 46.296875 
Q 39.59375 47.171875 37.8125 47.578125 
Q 36.03125 48 33.890625 48 
Q 26.265625 48 22.1875 43.046875 
Q 18.109375 38.09375 18.109375 28.8125 
L 18.109375 0 
L 9.078125 0 
L 9.078125 54.6875 
L 18.109375 54.6875 
L 18.109375 46.1875 
Q 20.953125 51.171875 25.484375 53.578125 
Q 30.03125 56 36.53125 56 
Q 37.453125 56 38.578125 55.875 
Q 39.703125 55.765625 41.0625 55.515625 
z
" id="DejaVuSans-114"/>
     <path d="M 56.203125 29.59375 
L 56.203125 25.203125 
L 14.890625 25.203125 
Q 15.484375 15.921875 20.484375 11.0625 
Q 25.484375 6.203125 34.421875 6.203125 
Q 39.59375 6.203125 44.453125 7.46875 
Q 49.3125 8.734375 54.109375 11.28125 
L 54.109375 2.78125 
Q 49.265625 0.734375 44.1875 -0.34375 
Q 39.109375 -1.421875 33.890625 -1.421875 
Q 20.796875 -1.421875 13.15625 6.1875 
Q 5.515625 13.8125 5.515625 26.8125 
Q 5.515625 40.234375 12.765625 48.109375 
Q 20.015625 56 32.328125 56 
Q 43.359375 56 49.78125 48.890625 
Q 56.203125 41.796875 56.203125 29.59375 
z
M 47.21875 32.234375 
Q 47.125 39.59375 43.09375 43.984375 
Q 39.0625 48.390625 32.421875 48.390625 
Q 24.90625 48.390625 20.390625 44.140625 
Q 15.875 39.890625 15.1875 32.171875 
z
" id="DejaVuSans-101"/>
     <path d="M 48.78125 52.59375 
L 48.78125 44.1875 
Q 44.96875 46.296875 41.140625 47.34375 
Q 37.3125 48.390625 33.40625 48.390625 
Q 24.65625 48.390625 19.8125 42.84375 
Q 14.984375 37.3125 14.984375 27.296875 
Q 14.984375 17.28125 19.8125 11.734375 
Q 24.65625 6.203125 33.40625 6.203125 
Q 37.3125 6.203125 41.140625 7.25 
Q 44.96875 8.296875 48.78125 10.40625 
L 48.78125 2.09375 
Q 45.015625 0.34375 40.984375 -0.53125 
Q 36.96875 -1.421875 32.421875 -1.421875 
Q 20.0625 -1.421875 12.78125 6.34375 
Q 5.515625 14.109375 5.515625 27.296875 
Q 5.515625 40.671875 12.859375 48.328125 
Q 20.21875 56 33.015625 56 
Q 37.15625 56 41.109375 55.140625 
Q 45.0625 54.296875 48.78125 52.59375 
z
" id="DejaVuSans-99"/>
     <path d="M 18.3125 70.21875 
L 18.3125 54.6875 
L 36.8125 54.6875 
L 36.8125 47.703125 
L 18.3125 47.703125 
L 18.3125 18.015625 
Q 18.3125 11.328125 20.140625 9.421875 
Q 21.96875 7.515625 27.59375 7.515625 
L 36.8125 7.515625 
L 36.8125 0 
L 27.59375 0 
Q 17.1875 0 13.234375 3.875 
Q 9.28125 7.765625 9.28125 18.015625 
L 9.28125 47.703125 
L 2.6875 47.703125 
L 2.6875 54.6875 
L 9.28125 54.6875 
L 9.28125 70.21875 
z
" id="DejaVuSans-116"/>
     <path d="M 54.890625 33.015625 
L 54.890625 0 
L 45.90625 0 
L 45.90625 32.71875 
Q 45.90625 40.484375 42.875 44.328125 
Q 39.84375 48.1875 33.796875 48.1875 
Q 26.515625 48.1875 22.3125 43.546875 
Q 18.109375 38.921875 18.109375 30.90625 
L 18.109375 0 
L 9.078125 0 
L 9.078125 54.6875 
L 18.109375 54.6875 
L 18.109375 46.1875 
Q 21.34375 51.125 25.703125 53.5625 
Q 30.078125 56 35.796875 56 
Q 45.21875 56 50.046875 50.171875 
Q 54.890625 44.34375 54.890625 33.015625 
z
" id="DejaVuSans-110"/>
    </defs>
    <g transform="translate(161.06625 35.472)scale(0.12 -0.12)">
     <use xlink:href="#DejaVuSans-80"/>
     <use x="56.677734" xlink:href="#DejaVuSans-111"/>
     <use x="117.859375" xlink:href="#DejaVuSans-108"/>
     <use x="145.642578" xlink:href="#DejaVuSans-121"/>
     <use x="204.822266" xlink:href="#DejaVuSans-97"/>
     <use x="266.101562" xlink:href="#DejaVuSans-107"/>
     <use x="320.386719" xlink:href="#DejaVuSans-111"/>
     <use x="381.568359" xlink:href="#DejaVuSans-118"/>
     <use x="440.748047" xlink:href="#DejaVuSans-32"/>
     <use x="472.535156" xlink:href="#DejaVuSans-108"/>
     <use x="500.318359" xlink:href="#DejaVuSans-111"/>
     <use x="561.5" xlink:href="#DejaVuSans-111"/>
     <use x="622.681641" xlink:href="#DejaVuSans-112"/>
     <use x="686.158203" xlink:href="#DejaVuSans-32"/>
     <use x="717.945312" xlink:href="#DejaVuSans-48"/>
     <use x="781.568359" xlink:href="#DejaVuSans-32"/>
     <use x="813.355469" xlink:href="#DejaVuSans-100"/>
     <use x="876.832031" xlink:href="#DejaVuSans-105"/>
     <use x="904.615234" xlink:href="#DejaVuSans-114"/>
     <use x="943.478516" xlink:href="#DejaVuSans-101"/>
     <use x="1005.001953" xlink:href="#DejaVuSans-99"/>
     <use x="1059.982422" xlink:href="#DejaVuSans-116"/>
     <use x="1099.191406" xlink:href="#DejaVuSans-105"/>
     <use x="1126.974609" xlink:href="#DejaVuSans-111"/>
     <use x="1188.15625" xlink:href="#DejaVuSans-110"/>
    </g>
   </g>
   <g id="legend_1">
    <g id="patch_7">
     <path d="M 163.189687 78.82825 
L 309.130313 78.82825 
Q 311.130313 78.82825 311.130313 76.82825 
L 311.130313 48.472 
Q 311.130313 46.472 309.130313 46.472 
L 163.189687 46.472 
Q 161.189687 46.472 161.189687 48.472 
L 161.189687 76.82825 
Q 161.189687 78.82825 163.189687 78.82825 
z
" style="fill:#ffffff;opacity:0.8;stroke:#cccccc;stroke-linejoin:miter;"/>
    </g>
    <g id="line2d_20">
     <path d="M 165.189687 54.570437 
L 185.189687 54.570437 
" style="fill:none;stroke:#1f77b4;stroke-linecap:square;stroke-width:1.5;"/>
    </g>
    <g id="line2d_21"/>
    <g id="text_19">
     <!-- real-0.0000+/-0.0000 -->
     <defs>
      <path d="M 4.890625 31.390625 
L 31.203125 31.390625 
L 31.203125 23.390625 
L 4.890625 23.390625 
z
" id="DejaVuSans-45"/>
      <path d="M 46 62.703125 
L 46 35.5 
L 73.1875 35.5 
L 73.1875 27.203125 
L 46 27.203125 
L 46 0 
L 37.796875 0 
L 37.796875 27.203125 
L 10.59375 27.203125 
L 10.59375 35.5 
L 37.796875 35.5 
L 37.796875 62.703125 
z
" id="DejaVuSans-43"/>
      <path d="M 25.390625 72.90625 
L 33.6875 72.90625 
L 8.296875 -9.28125 
L 0 -9.28125 
z
" id="DejaVuSans-47"/>
     </defs>
     <g transform="translate(193.189687 58.070437)scale(0.1 -0.1)">
      <use xlink:href="#DejaVuSans-114"/>
      <use x="38.863281" xlink:href="#DejaVuSans-101"/>
      <use x="100.386719" xlink:href="#DejaVuSans-97"/>
      <use x="161.666016" xlink:href="#DejaVuSans-108"/>
      <use x="189.449219" xlink:href="#DejaVuSans-45"/>
      <use x="225.533203" xlink:href="#DejaVuSans-48"/>
      <use x="289.15625" xlink:href="#DejaVuSans-46"/>
      <use x="320.943359" xlink:href="#DejaVuSans-48"/>
      <use x="384.566406" xlink:href="#DejaVuSans-48"/>
      <use x="448.189453" xlink:href="#DejaVuSans-48"/>
      <use x="511.8125" xlink:href="#DejaVuSans-48"/>
      <use x="575.435547" xlink:href="#DejaVuSans-43"/>
      <use x="659.224609" xlink:href="#DejaVuSans-47"/>
      <use x="692.916016" xlink:href="#DejaVuSans-45"/>
      <use x="729" xlink:href="#DejaVuSans-48"/>
      <use x="792.623047" xlink:href="#DejaVuSans-46"/>
      <use x="824.410156" xlink:href="#DejaVuSans-48"/>
      <use x="888.033203" xlink:href="#DejaVuSans-48"/>
      <use x="951.65625" xlink:href="#DejaVuSans-48"/>
      <use x="1015.279297" xlink:href="#DejaVuSans-48"/>
     </g>
    </g>
    <g id="line2d_22">
     <path d="M 165.189687 69.248562 
L 185.189687 69.248562 
" style="fill:none;stroke:#ff7f0e;stroke-linecap:square;stroke-width:1.5;"/>
    </g>
    <g id="line2d_23"/>
    <g id="text_20">
     <!-- imag-0.0000+/-0.0000 -->
     <defs>
      <path d="M 52 44.1875 
Q 55.375 50.25 60.0625 53.125 
Q 64.75 56 71.09375 56 
Q 79.640625 56 84.28125 50.015625 
Q 88.921875 44.046875 88.921875 33.015625 
L 88.921875 0 
L 79.890625 0 
L 79.890625 32.71875 
Q 79.890625 40.578125 77.09375 44.375 
Q 74.3125 48.1875 68.609375 48.1875 
Q 61.625 48.1875 57.5625 43.546875 
Q 53.515625 38.921875 53.515625 30.90625 
L 53.515625 0 
L 44.484375 0 
L 44.484375 32.71875 
Q 44.484375 40.625 41.703125 44.40625 
Q 38.921875 48.1875 33.109375 48.1875 
Q 26.21875 48.1875 22.15625 43.53125 
Q 18.109375 38.875 18.109375 30.90625 
L 18.109375 0 
L 9.078125 0 
L 9.078125 54.6875 
L 18.109375 54.6875 
L 18.109375 46.1875 
Q 21.1875 51.21875 25.484375 53.609375 
Q 29.78125 56 35.6875 56 
Q 41.65625 56 45.828125 52.96875 
Q 50 49.953125 52 44.1875 
z
" id="DejaVuSans-109"/>
      <path d="M 45.40625 27.984375 
Q 45.40625 37.75 41.375 43.109375 
Q 37.359375 48.484375 30.078125 48.484375 
Q 22.859375 48.484375 18.828125 43.109375 
Q 14.796875 37.75 14.796875 27.984375 
Q 14.796875 18.265625 18.828125 12.890625 
Q 22.859375 7.515625 30.078125 7.515625 
Q 37.359375 7.515625 41.375 12.890625 
Q 45.40625 18.265625 45.40625 27.984375 
z
M 54.390625 6.78125 
Q 54.390625 -7.171875 48.1875 -13.984375 
Q 42 -20.796875 29.203125 -20.796875 
Q 24.46875 -20.796875 20.265625 -20.09375 
Q 16.0625 -19.390625 12.109375 -17.921875 
L 12.109375 -9.1875 
Q 16.0625 -11.328125 19.921875 -12.34375 
Q 23.78125 -13.375 27.78125 -13.375 
Q 36.625 -13.375 41.015625 -8.765625 
Q 45.40625 -4.15625 45.40625 5.171875 
L 45.40625 9.625 
Q 42.625 4.78125 38.28125 2.390625 
Q 33.9375 0 27.875 0 
Q 17.828125 0 11.671875 7.65625 
Q 5.515625 15.328125 5.515625 27.984375 
Q 5.515625 40.671875 11.671875 48.328125 
Q 17.828125 56 27.875 56 
Q 33.9375 56 38.28125 53.609375 
Q 42.625 51.21875 45.40625 46.390625 
L 45.40625 54.6875 
L 54.390625 54.6875 
z
" id="DejaVuSans-103"/>
     </defs>
     <g transform="translate(193.189687 72.748562)scale(0.1 -0.1)">
      <use xlink:href="#DejaVuSans-105"/>
      <use x="27.783203" xlink:href="#DejaVuSans-109"/>
      <use x="125.195312" xlink:href="#DejaVuSans-97"/>
      <use x="186.474609" xlink:href="#DejaVuSans-103"/>
      <use x="249.951172" xlink:href="#DejaVuSans-45"/>
      <use x="286.035156" xlink:href="#DejaVuSans-48"/>
      <use x="349.658203" xlink:href="#DejaVuSans-46"/>
      <use x="381.445312" xlink:href="#DejaVuSans-48"/>
      <use x="445.068359" xlink:href="#DejaVuSans-48"/>
      <use x="508.691406" xlink:href="#DejaVuSans-48"/>
      <use x="572.314453" xlink:href="#DejaVuSans-48"/>
      <use x="635.9375" xlink:href="#DejaVuSans-43"/>
      <use x="719.726562" xlink:href="#DejaVuSans-47"/>
      <use x="753.417969" xlink:href="#DejaVuSans-45"/>
      <use x="789.501953" xlink:href="#DejaVuSans-48"/>
      <use x="853.125" xlink:href="#DejaVuSans-46"/>
      <use x="884.912109" xlink:href="#DejaVuSans-48"/>
      <use x="948.535156" xlink:href="#DejaVuSans-48"/>
      <use x="1012.158203" xlink:href="#DejaVuSans-48"/>
      <use x="1075.78125" xlink:href="#DejaVuSans-48"/>
     </g>
    </g>
   </g>
  </g>
 </g>
 <defs>
  <clipPath id="p4315978267">
   <rect height="266.112" width="357.12" x="57.6" y="41.472"/>
  </clipPath>
 </defs>
</svg>
