<?xml version="1.0" encoding="utf-8" standalone="no"?>
<!DOCTYPE svg PUBLIC "-//W3C//DTD SVG 1.1//EN"
  "http://www.w3.org/Graphics/SVG/1.1/DTD/svg11.dtd">
<!-- Created with matplotlib (https://matplotlib.org/) -->
<svg height="345.6pt" version="1.1" viewBox="0 0 460.8 345.6" width="460.8pt" xmlns="http://www.w3.org/2000/svg" xmlns:xlink="http://www.w3.org/1999/xlink">
 <defs>
  <style type="text/css">
*{stroke-linecap:butt;stroke-linejoin:round;}
  </style>
 </defs>
 <g id="figure_1">
  <g id="patch_1">
   <path d="M 0 345.6 
L 460.8 345.6 
L 460.8 0 
L 0 0 
z
" style="fill:#ffffff;"/>
  </g>
  <g id="axes_1">
   <g id="patch_2">
    <path d="M 57.6 307.584 
L 414.72 307.584 
L 414.72 41.472 
L 57.6 41.472 
z
" style="fill:#ffffff;"/>
   </g>
   <g id="matplotlib.axis_1">
    <g id="xtick_1">
     <g id="line2d_1">
      <defs>
       <path d="M 0 0 
L 0 3.5 
" id="mc997d90d7e" style="stroke:#000000;stroke-width:0.8;"/>
      </defs>
      <g>
       <use style="stroke:#000000;stroke-width:0.8;" x="73.507748" xlink:href="#mc997d90d7e" y="307.584"/>
      </g>
     </g>
     <g id="text_1">
      <!-- 0 -->
      <defs>
       <path d="M 31.78125 66.40625 
Q 24.171875 66.40625 20.328125 58.90625 
Q 16.5 51.421875 16.5 36.375 
Q 16.5 21.390625 20.328125 13.890625 
Q 24.171875 6.390625 31.78125 6.390625 
Q 39.453125 6.390625 43.28125 13.890625 
Q 47.125 21.390625 47.125 36.375 
Q 47.125 51.421875 43.28125 58.90625 
Q 39.453125 66.40625 31.78125 66.40625 
z
M 31.78125 74.21875 
Q 44.046875 74.21875 50.515625 64.515625 
Q 56.984375 54.828125 56.984375 36.375 
Q 56.984375 17.96875 50.515625 8.265625 
Q 44.046875 -1.421875 31.78125 -1.421875 
Q 19.53125 -1.421875 13.0625 8.265625 
Q 6.59375 17.96875 6.59375 36.375 
Q 6.59375 54.828125 13.0625 64.515625 
Q 19.53125 74.21875 31.78125 74.21875 
z
" id="DejaVuSans-48"/>
      </defs>
      <g transform="translate(70.326498 322.182437)scale(0.1 -0.1)">
       <use xlink:href="#DejaVuSans-48"/>
      </g>
     </g>
    </g>
    <g id="xtick_2">
     <g id="line2d_2">
      <g>
       <use style="stroke:#000000;stroke-width:0.8;" x="138.503653" xlink:href="#mc997d90d7e" y="307.584"/>
      </g>
     </g>
     <g id="text_2">
      <!-- 200 -->
      <defs>
       <path d="M 19.1875 8.296875 
L 53.609375 8.296875 
L 53.609375 0 
L 7.328125 0 
L 7.328125 8.296875 
Q 12.9375 14.109375 22.625 23.890625 
Q 32.328125 33.6875 34.8125 36.53125 
Q 39.546875 41.84375 41.421875 45.53125 
Q 43.3125 49.21875 43.3125 52.78125 
Q 43.3125 58.59375 39.234375 62.25 
Q 35.15625 65.921875 28.609375 65.921875 
Q 23.96875 65.921875 18.8125 64.3125 
Q 13.671875 62.703125 7.8125 59.421875 
L 7.8125 69.390625 
Q 13.765625 71.78125 18.9375 73 
Q 24.125 74.21875 28.421875 74.21875 
Q 39.75 74.21875 46.484375 68.546875 
Q 53.21875 62.890625 53.21875 53.421875 
Q 53.21875 48.921875 51.53125 44.890625 
Q 49.859375 40.875 45.40625 35.40625 
Q 44.1875 33.984375 37.640625 27.21875 
Q 31.109375 20.453125 19.1875 8.296875 
z
" id="DejaVuSans-50"/>
      </defs>
      <g transform="translate(128.959903 322.182437)scale(0.1 -0.1)">
       <use xlink:href="#DejaVuSans-50"/>
       <use x="63.623047" xlink:href="#DejaVuSans-48"/>
       <use x="127.246094" xlink:href="#DejaVuSans-48"/>
      </g>
     </g>
    </g>
    <g id="xtick_3">
     <g id="line2d_3">
      <g>
       <use style="stroke:#000000;stroke-width:0.8;" x="203.499558" xlink:href="#mc997d90d7e" y="307.584"/>
      </g>
     </g>
     <g id="text_3">
      <!-- 400 -->
      <defs>
       <path d="M 37.796875 64.3125 
L 12.890625 25.390625 
L 37.796875 25.390625 
z
M 35.203125 72.90625 
L 47.609375 72.90625 
L 47.609375 25.390625 
L 58.015625 25.390625 
L 58.015625 17.1875 
L 47.609375 17.1875 
L 47.609375 0 
L 37.796875 0 
L 37.796875 17.1875 
L 4.890625 17.1875 
L 4.890625 26.703125 
z
" id="DejaVuSans-52"/>
      </defs>
      <g transform="translate(193.955808 322.182437)scale(0.1 -0.1)">
       <use xlink:href="#DejaVuSans-52"/>
       <use x="63.623047" xlink:href="#DejaVuSans-48"/>
       <use x="127.246094" xlink:href="#DejaVuSans-48"/>
      </g>
     </g>
    </g>
    <g id="xtick_4">
     <g id="line2d_4">
      <g>
       <use style="stroke:#000000;stroke-width:0.8;" x="268.495463" xlink:href="#mc997d90d7e" y="307.584"/>
      </g>
     </g>
     <g id="text_4">
      <!-- 600 -->
      <defs>
       <path d="M 33.015625 40.375 
Q 26.375 40.375 22.484375 35.828125 
Q 18.609375 31.296875 18.609375 23.390625 
Q 18.609375 15.53125 22.484375 10.953125 
Q 26.375 6.390625 33.015625 6.390625 
Q 39.65625 6.390625 43.53125 10.953125 
Q 47.40625 15.53125 47.40625 23.390625 
Q 47.40625 31.296875 43.53125 35.828125 
Q 39.65625 40.375 33.015625 40.375 
z
M 52.59375 71.296875 
L 52.59375 62.3125 
Q 48.875 64.0625 45.09375 64.984375 
Q 41.3125 65.921875 37.59375 65.921875 
Q 27.828125 65.921875 22.671875 59.328125 
Q 17.53125 52.734375 16.796875 39.40625 
Q 19.671875 43.65625 24.015625 45.921875 
Q 28.375 48.1875 33.59375 48.1875 
Q 44.578125 48.1875 50.953125 41.515625 
Q 57.328125 34.859375 57.328125 23.390625 
Q 57.328125 12.15625 50.6875 5.359375 
Q 44.046875 -1.421875 33.015625 -1.421875 
Q 20.359375 -1.421875 13.671875 8.265625 
Q 6.984375 17.96875 6.984375 36.375 
Q 6.984375 53.65625 15.1875 63.9375 
Q 23.390625 74.21875 37.203125 74.21875 
Q 40.921875 74.21875 44.703125 73.484375 
Q 48.484375 72.75 52.59375 71.296875 
z
" id="DejaVuSans-54"/>
      </defs>
      <g transform="translate(258.951713 322.182437)scale(0.1 -0.1)">
       <use xlink:href="#DejaVuSans-54"/>
       <use x="63.623047" xlink:href="#DejaVuSans-48"/>
       <use x="127.246094" xlink:href="#DejaVuSans-48"/>
      </g>
     </g>
    </g>
    <g id="xtick_5">
     <g id="line2d_5">
      <g>
       <use style="stroke:#000000;stroke-width:0.8;" x="333.491368" xlink:href="#mc997d90d7e" y="307.584"/>
      </g>
     </g>
     <g id="text_5">
      <!-- 800 -->
      <defs>
       <path d="M 31.78125 34.625 
Q 24.75 34.625 20.71875 30.859375 
Q 16.703125 27.09375 16.703125 20.515625 
Q 16.703125 13.921875 20.71875 10.15625 
Q 24.75 6.390625 31.78125 6.390625 
Q 38.8125 6.390625 42.859375 10.171875 
Q 46.921875 13.96875 46.921875 20.515625 
Q 46.921875 27.09375 42.890625 30.859375 
Q 38.875 34.625 31.78125 34.625 
z
M 21.921875 38.8125 
Q 15.578125 40.375 12.03125 44.71875 
Q 8.5 49.078125 8.5 55.328125 
Q 8.5 64.0625 14.71875 69.140625 
Q 20.953125 74.21875 31.78125 74.21875 
Q 42.671875 74.21875 48.875 69.140625 
Q 55.078125 64.0625 55.078125 55.328125 
Q 55.078125 49.078125 51.53125 44.71875 
Q 48 40.375 41.703125 38.8125 
Q 48.828125 37.15625 52.796875 32.3125 
Q 56.78125 27.484375 56.78125 20.515625 
Q 56.78125 9.90625 50.3125 4.234375 
Q 43.84375 -1.421875 31.78125 -1.421875 
Q 19.734375 -1.421875 13.25 4.234375 
Q 6.78125 9.90625 6.78125 20.515625 
Q 6.78125 27.484375 10.78125 32.3125 
Q 14.796875 37.15625 21.921875 38.8125 
z
M 18.3125 54.390625 
Q 18.3125 48.734375 21.84375 45.5625 
Q 25.390625 42.390625 31.78125 42.390625 
Q 38.140625 42.390625 41.71875 45.5625 
Q 45.3125 48.734375 45.3125 54.390625 
Q 45.3125 60.0625 41.71875 63.234375 
Q 38.140625 66.40625 31.78125 66.40625 
Q 25.390625 66.40625 21.84375 63.234375 
Q 18.3125 60.0625 18.3125 54.390625 
z
" id="DejaVuSans-56"/>
      </defs>
      <g transform="translate(323.947618 322.182437)scale(0.1 -0.1)">
       <use xlink:href="#DejaVuSans-56"/>
       <use x="63.623047" xlink:href="#DejaVuSans-48"/>
       <use x="127.246094" xlink:href="#DejaVuSans-48"/>
      </g>
     </g>
    </g>
    <g id="xtick_6">
     <g id="line2d_6">
      <g>
       <use style="stroke:#000000;stroke-width:0.8;" x="398.487273" xlink:href="#mc997d90d7e" y="307.584"/>
      </g>
     </g>
     <g id="text_6">
      <!-- 1000 -->
      <defs>
       <path d="M 12.40625 8.296875 
L 28.515625 8.296875 
L 28.515625 63.921875 
L 10.984375 60.40625 
L 10.984375 69.390625 
L 28.421875 72.90625 
L 38.28125 72.90625 
L 38.28125 8.296875 
L 54.390625 8.296875 
L 54.390625 0 
L 12.40625 0 
z
" id="DejaVuSans-49"/>
      </defs>
      <g transform="translate(385.762273 322.182437)scale(0.1 -0.1)">
       <use xlink:href="#DejaVuSans-49"/>
       <use x="63.623047" xlink:href="#DejaVuSans-48"/>
       <use x="127.246094" xlink:href="#DejaVuSans-48"/>
       <use x="190.869141" xlink:href="#DejaVuSans-48"/>
      </g>
     </g>
    </g>
   </g>
   <g id="matplotlib.axis_2">
    <g id="ytick_1">
     <g id="line2d_7">
      <defs>
       <path d="M 0 0 
L -3.5 0 
" id="mff92f80167" style="stroke:#000000;stroke-width:0.8;"/>
      </defs>
      <g>
       <use style="stroke:#000000;stroke-width:0.8;" x="57.6" xlink:href="#mff92f80167" y="307.584"/>
      </g>
     </g>
     <g id="text_7">
      <!-- 0.00 -->
      <defs>
       <path d="M 10.6875 12.40625 
L 21 12.40625 
L 21 0 
L 10.6875 0 
z
" id="DejaVuSans-46"/>
      </defs>
      <g transform="translate(28.334375 311.383219)scale(0.1 -0.1)">
       <use xlink:href="#DejaVuSans-48"/>
       <use x="63.623047" xlink:href="#DejaVuSans-46"/>
       <use x="95.410156" xlink:href="#DejaVuSans-48"/>
       <use x="159.033203" xlink:href="#DejaVuSans-48"/>
      </g>
     </g>
    </g>
    <g id="ytick_2">
     <g id="line2d_8">
      <g>
       <use style="stroke:#000000;stroke-width:0.8;" x="57.6" xlink:href="#mff92f80167" y="275.904"/>
      </g>
     </g>
     <g id="text_8">
      <!-- 0.25 -->
      <defs>
       <path d="M 10.796875 72.90625 
L 49.515625 72.90625 
L 49.515625 64.59375 
L 19.828125 64.59375 
L 19.828125 46.734375 
Q 21.96875 47.46875 24.109375 47.828125 
Q 26.265625 48.1875 28.421875 48.1875 
Q 40.625 48.1875 47.75 41.5 
Q 54.890625 34.8125 54.890625 23.390625 
Q 54.890625 11.625 47.5625 5.09375 
Q 40.234375 -1.421875 26.90625 -1.421875 
Q 22.3125 -1.421875 17.546875 -0.640625 
Q 12.796875 0.140625 7.71875 1.703125 
L 7.71875 11.625 
Q 12.109375 9.234375 16.796875 8.0625 
Q 21.484375 6.890625 26.703125 6.890625 
Q 35.15625 6.890625 40.078125 11.328125 
Q 45.015625 15.765625 45.015625 23.390625 
Q 45.015625 31 40.078125 35.4375 
Q 35.15625 39.890625 26.703125 39.890625 
Q 22.75 39.890625 18.8125 39.015625 
Q 14.890625 38.140625 10.796875 36.28125 
z
" id="DejaVuSans-53"/>
      </defs>
      <g transform="translate(28.334375 279.703219)scale(0.1 -0.1)">
       <use xlink:href="#DejaVuSans-48"/>
       <use x="63.623047" xlink:href="#DejaVuSans-46"/>
       <use x="95.410156" xlink:href="#DejaVuSans-50"/>
       <use x="159.033203" xlink:href="#DejaVuSans-53"/>
      </g>
     </g>
    </g>
    <g id="ytick_3">
     <g id="line2d_9">
      <g>
       <use style="stroke:#000000;stroke-width:0.8;" x="57.6" xlink:href="#mff92f80167" y="244.224"/>
      </g>
     </g>
     <g id="text_9">
      <!-- 0.50 -->
      <g transform="translate(28.334375 248.023219)scale(0.1 -0.1)">
       <use xlink:href="#DejaVuSans-48"/>
       <use x="63.623047" xlink:href="#DejaVuSans-46"/>
       <use x="95.410156" xlink:href="#DejaVuSans-53"/>
       <use x="159.033203" xlink:href="#DejaVuSans-48"/>
      </g>
     </g>
    </g>
    <g id="ytick_4">
     <g id="line2d_10">
      <g>
       <use style="stroke:#000000;stroke-width:0.8;" x="57.6" xlink:href="#mff92f80167" y="212.544"/>
      </g>
     </g>
     <g id="text_10">
      <!-- 0.75 -->
      <defs>
       <path d="M 8.203125 72.90625 
L 55.078125 72.90625 
L 55.078125 68.703125 
L 28.609375 0 
L 18.3125 0 
L 43.21875 64.59375 
L 8.203125 64.59375 
z
" id="DejaVuSans-55"/>
      </defs>
      <g transform="translate(28.334375 216.343219)scale(0.1 -0.1)">
       <use xlink:href="#DejaVuSans-48"/>
       <use x="63.623047" xlink:href="#DejaVuSans-46"/>
       <use x="95.410156" xlink:href="#DejaVuSans-55"/>
       <use x="159.033203" xlink:href="#DejaVuSans-53"/>
      </g>
     </g>
    </g>
    <g id="ytick_5">
     <g id="line2d_11">
      <g>
       <use style="stroke:#000000;stroke-width:0.8;" x="57.6" xlink:href="#mff92f80167" y="180.864"/>
      </g>
     </g>
     <g id="text_11">
      <!-- 1.00 -->
      <g transform="translate(28.334375 184.663219)scale(0.1 -0.1)">
       <use xlink:href="#DejaVuSans-49"/>
       <use x="63.623047" xlink:href="#DejaVuSans-46"/>
       <use x="95.410156" xlink:href="#DejaVuSans-48"/>
       <use x="159.033203" xlink:href="#DejaVuSans-48"/>
      </g>
     </g>
    </g>
    <g id="ytick_6">
     <g id="line2d_12">
      <g>
       <use style="stroke:#000000;stroke-width:0.8;" x="57.6" xlink:href="#mff92f80167" y="149.184"/>
      </g>
     </g>
     <g id="text_12">
      <!-- 1.25 -->
      <g transform="translate(28.334375 152.983219)scale(0.1 -0.1)">
       <use xlink:href="#DejaVuSans-49"/>
       <use x="63.623047" xlink:href="#DejaVuSans-46"/>
       <use x="95.410156" xlink:href="#DejaVuSans-50"/>
       <use x="159.033203" xlink:href="#DejaVuSans-53"/>
      </g>
     </g>
    </g>
    <g id="ytick_7">
     <g id="line2d_13">
      <g>
       <use style="stroke:#000000;stroke-width:0.8;" x="57.6" xlink:href="#mff92f80167" y="117.504"/>
      </g>
     </g>
     <g id="text_13">
      <!-- 1.50 -->
      <g transform="translate(28.334375 121.303219)scale(0.1 -0.1)">
       <use xlink:href="#DejaVuSans-49"/>
       <use x="63.623047" xlink:href="#DejaVuSans-46"/>
       <use x="95.410156" xlink:href="#DejaVuSans-53"/>
       <use x="159.033203" xlink:href="#DejaVuSans-48"/>
      </g>
     </g>
    </g>
    <g id="ytick_8">
     <g id="line2d_14">
      <g>
       <use style="stroke:#000000;stroke-width:0.8;" x="57.6" xlink:href="#mff92f80167" y="85.824"/>
      </g>
     </g>
     <g id="text_14">
      <!-- 1.75 -->
      <g transform="translate(28.334375 89.623219)scale(0.1 -0.1)">
       <use xlink:href="#DejaVuSans-49"/>
       <use x="63.623047" xlink:href="#DejaVuSans-46"/>
       <use x="95.410156" xlink:href="#DejaVuSans-55"/>
       <use x="159.033203" xlink:href="#DejaVuSans-53"/>
      </g>
     </g>
    </g>
    <g id="ytick_9">
     <g id="line2d_15">
      <g>
       <use style="stroke:#000000;stroke-width:0.8;" x="57.6" xlink:href="#mff92f80167" y="54.144"/>
      </g>
     </g>
     <g id="text_15">
      <!-- 2.00 -->
      <g transform="translate(28.334375 57.943219)scale(0.1 -0.1)">
       <use xlink:href="#DejaVuSans-50"/>
       <use x="63.623047" xlink:href="#DejaVuSans-46"/>
       <use x="95.410156" xlink:href="#DejaVuSans-48"/>
       <use x="159.033203" xlink:href="#DejaVuSans-48"/>
      </g>
     </g>
    </g>
   </g>
   <g id="line2d_16">
    <path clip-path="url(#pdc7e90e390)" d="M 73.832727 134.866194 
L 74.157707 163.295888 
L 74.482686 172.897994 
L 74.807666 177.144024 
L 75.132645 178.712255 
L 75.782604 180.656381 
L 76.107584 180.90495 
L 76.432563 183.822808 
L 76.757543 176.107465 
L 77.082523 190.351676 
L 77.407502 141.569322 
L 78.057461 207.447073 
L 78.70742 173.9935 
L 79.357379 196.376432 
L 79.682359 191.403497 
L 80.007338 168.877091 
L 80.332318 182.444429 
L 80.657297 181.077013 
L 80.982277 223.469727 
L 81.307256 161.662892 
L 81.632236 121.867244 
L 82.282195 180.800925 
L 82.607174 201.459902 
L 82.932154 178.12214 
L 83.257133 142.307862 
L 83.582113 198.403001 
L 83.907093 139.857021 
L 84.232072 232.213616 
L 84.557052 183.292767 
L 84.882031 167.698127 
L 85.207011 208.286753 
L 85.53199 222.322803 
L 85.85697 179.867622 
L 86.181949 230.161813 
L 86.506929 204.40601 
L 86.831908 216.307404 
L 87.156888 83.868404 
L 87.481867 183.149916 
L 87.806847 221.328285 
L 88.131826 185.621842 
L 88.456806 203.16182 
L 88.781785 191.262664 
L 89.106765 168.616607 
L 89.431744 77.270105 
L 89.756724 104.080272 
L 90.081704 145.272875 
L 90.406683 245.905667 
L 90.731663 143.08033 
L 91.056642 229.038089 
L 92.031581 72.857212 
L 92.68154 193.88716 
L 93.006519 191.774796 
L 93.331499 239.47562 
L 93.656478 118.83983 
L 93.981458 197.833041 
L 94.306437 249.100186 
L 94.631417 253.291538 
L 94.956396 249.15706 
L 95.281376 236.355396 
L 95.606355 33.222334 
L 95.931335 210.427211 
L 96.256314 166.596934 
L 96.364013 -1 
M 96.807297 -1 
L 96.906274 147.080926 
L 97.231253 206.023634 
L 97.556233 207.439605 
L 97.881212 234.076405 
L 98.206192 194.260143 
L 98.531171 224.787442 
L 98.856151 116.911801 
L 99.18113 187.092941 
L 99.50611 204.928453 
L 99.831089 265.512414 
L 100.156069 269.46914 
L 100.481048 183.938851 
L 100.806028 246.894435 
L 101.131007 215.389171 
L 101.455987 206.54348 
L 101.780966 202.731615 
L 102.105946 208.022049 
L 102.430925 119.21165 
L 102.755905 152.972856 
L 103.080885 165.430426 
L 103.405864 279.117212 
L 103.523238 -1 
M 103.963099 -1 
L 104.055823 196.804923 
L 104.380803 250.951427 
L 104.705782 92.687733 
L 105.030762 194.860105 
L 105.355741 251.034934 
L 105.680721 142.089111 
L 106.33068 220.708392 
L 106.980639 99.831159 
L 107.305618 251.342609 
L 107.630598 165.335655 
L 107.955577 175.890739 
L 108.280557 242.990137 
L 108.930516 220.039969 
L 109.255495 239.134122 
L 109.580475 139.978099 
L 109.905455 260.046127 
L 110.230434 227.956873 
L 110.555414 148.87747 
L 110.880393 147.187585 
L 111.205373 194.981261 
L 111.530352 190.88264 
L 111.855332 172.234876 
L 112.180311 203.425879 
L 112.434259 -1 
M 112.64588 -1 
L 113.15525 222.049873 
L 113.480229 215.717236 
L 113.805209 230.288885 
L 114.130188 167.927513 
L 114.455168 227.631884 
L 114.780147 230.672718 
L 115.105127 11.220078 
L 115.430106 238.705952 
L 115.755086 263.850426 
L 116.080066 168.29642 
L 116.405045 221.345522 
L 116.730025 252.896201 
L 117.055004 195.738214 
L 117.379984 195.045566 
L 117.704963 132.77788 
L 118.029943 160.267633 
L 118.354922 243.423997 
L 118.679902 122.525387 
L 119.004881 190.53523 
L 119.329861 234.707 
L 119.65484 165.154773 
L 119.97982 160.118168 
L 120.304799 256.957083 
L 120.629779 30.997423 
L 120.954758 293.222358 
L 121.279738 114.740843 
L 121.604717 284.015979 
L 121.929697 264.965965 
L 122.254676 228.973336 
L 122.579656 29.528963 
L 123.229615 218.884617 
L 123.554595 176.160326 
L 123.879574 178.059672 
L 124.204554 85.621881 
L 124.854513 227.775126 
L 125.179492 130.477163 
L 125.504472 227.458713 
L 125.829451 177.286264 
L 126.154431 220.610879 
L 126.47941 225.354503 
L 126.80439 127.997852 
L 127.129369 116.276239 
L 127.454349 130.902337 
L 127.779328 239.525377 
L 128.104308 202.605185 
L 128.429287 201.133357 
L 128.754267 205.443971 
L 129.079247 238.260816 
L 129.729206 205.630229 
L 130.054185 140.810804 
L 130.379165 202.092915 
L 130.704144 215.567477 
L 131.029124 221.640807 
L 131.211115 -1 
M 131.482328 -1 
L 131.679083 267.413686 
L 132.004062 245.868366 
L 132.329042 158.973089 
L 132.654021 239.494761 
L 132.979001 163.380435 
L 133.30398 213.985725 
L 133.62896 156.891917 
L 133.953939 205.502004 
L 134.278919 93.087316 
L 134.603898 234.571945 
L 134.928878 179.19503 
L 135.253857 244.941591 
L 135.578837 202.095755 
L 135.903817 247.197152 
L 136.228796 103.685219 
L 136.553776 187.689944 
L 136.878755 228.148132 
L 137.203735 205.252716 
L 137.528714 273.589921 
L 137.853694 110.794051 
L 138.178673 246.739258 
L 138.828632 198.59033 
L 139.153612 237.033135 
L 139.478591 200.371022 
L 139.803571 245.822573 
L 140.12855 91.203174 
L 140.45353 247.403639 
L 140.778509 259.624733 
L 141.103489 225.031825 
L 141.428468 220.34605 
L 142.403407 149.112634 
L 143.053366 242.841011 
L 143.378346 264.955144 
L 143.946015 -1 
M 144.076873 -1 
L 144.353284 238.725007 
L 144.678264 134.735612 
L 145.003243 141.972605 
L 145.328223 142.98415 
L 145.653202 184.403209 
L 145.978182 78.426296 
L 146.628141 197.586834 
L 146.95312 254.784303 
L 147.2781 156.627389 
L 147.603079 161.671739 
L 147.928059 241.686183 
L 148.253038 224.328497 
L 148.578018 190.055745 
L 148.902998 226.35281 
L 149.227977 78.294965 
L 149.552957 274.174108 
L 149.877936 257.494399 
L 150.202916 202.598061 
L 150.527895 208.177903 
L 150.852875 246.093177 
L 151.177854 88.666508 
L 151.502834 156.547843 
L 151.827813 192.397754 
L 152.152793 248.550393 
L 152.477772 222.969676 
L 152.802752 245.227953 
L 153.127731 95.434269 
L 153.452711 254.406437 
L 153.768655 -1 
M 153.787725 -1 
L 154.10267 228.261376 
L 154.427649 281.180501 
L 154.601455 -1 
M 154.922192 -1 
L 155.077609 223.960689 
L 155.402588 263.754523 
L 155.727568 231.495418 
L 156.052547 227.852058 
L 156.377527 214.010981 
L 156.702506 159.465549 
L 157.027486 244.709681 
L 157.352465 181.421246 
L 157.677445 230.92978 
L 158.002424 244.347234 
L 158.327404 286.470739 
L 158.652383 243.034275 
L 158.977363 106.89839 
L 159.302342 206.725011 
L 159.627322 228.772887 
L 160.277281 239.332762 
L 160.60226 170.421419 
L 160.92724 173.425785 
L 161.252219 161.173155 
L 161.902179 242.227625 
L 162.227158 236.550556 
L 162.552138 80.512623 
L 163.202097 274.792524 
L 163.852056 219.764219 
L 164.177035 75.653498 
L 164.502015 192.817356 
L 164.826994 246.499431 
L 165.151974 74.039463 
L 165.476953 169.58183 
L 165.801933 123.943371 
L 166.126912 232.062266 
L 166.451892 275.538306 
L 166.776871 230.585992 
L 167.101851 153.305171 
L 167.42683 253.37182 
L 167.75181 261.061256 
L 168.268493 -1 
M 168.551228 -1 
L 169.051728 221.91213 
L 169.376708 153.558731 
L 169.701687 185.953824 
L 170.026667 253.585298 
L 170.351646 163.777594 
L 170.676626 209.322823 
L 171.326585 200.805102 
L 171.651564 201.922992 
L 171.976544 256.039717 
L 172.301523 188.171365 
L 172.626503 170.541768 
L 172.951482 164.644073 
L 173.276462 215.758254 
L 173.601441 177.687391 
L 173.926421 236.579646 
L 174.2514 98.473546 
L 174.90136 251.835878 
L 175.226339 72.667787 
L 175.475033 -1 
M 175.606461 -1 
L 175.876298 109.579691 
L 176.201278 97.68174 
L 176.526257 171.378516 
L 176.851237 137.997988 
L 177.176216 255.899687 
L 177.501196 191.019782 
L 177.826175 213.606248 
L 178.151155 206.408164 
L 178.476134 192.644823 
L 178.801114 187.782539 
L 179.126093 150.989508 
L 179.451073 161.532152 
L 179.776052 187.606567 
L 180.101032 76.785009 
L 180.426011 249.37437 
L 180.750991 228.222524 
L 181.075971 156.00021 
L 181.40095 249.381647 
L 181.72593 183.062707 
L 182.050909 204.709453 
L 182.375889 209.236354 
L 182.700868 225.349291 
L 183.025848 125.805366 
L 183.350827 167.478536 
L 183.675807 174.7145 
L 184.000786 174.270424 
L 184.325766 192.715974 
L 184.650745 155.849429 
L 184.975725 209.380824 
L 185.300704 292.433506 
L 185.625684 163.965299 
L 186.275643 245.363712 
L 186.600622 173.429403 
L 186.925602 251.102244 
L 187.575561 6.066787 
L 187.900541 250.077344 
L 188.22552 198.159146 
L 188.5505 104.151787 
L 188.732273 -1 
M 188.965306 -1 
L 189.200459 215.866622 
L 189.525438 185.628873 
L 189.850418 228.215774 
L 190.175397 227.772415 
L 190.500377 194.462201 
L 190.825356 265.246341 
L 191.150336 227.837608 
L 192.125274 170.353364 
L 192.450254 184.475636 
L 192.775233 224.594048 
L 193.312757 -1 
M 193.476533 -1 
L 193.750172 241.544762 
L 194.075152 203.82934 
L 194.400131 74.812392 
L 195.05009 211.82758 
L 195.37507 81.221497 
L 195.700049 178.621744 
L 196.025029 153.699389 
L 196.350008 115.207064 
L 196.674988 255.197277 
L 196.999967 219.656968 
L 197.324947 153.287732 
L 197.649926 125.838187 
L 197.974906 166.390674 
L 198.299885 236.829077 
L 198.624865 70.961318 
L 198.949844 122.369284 
L 199.274824 219.15573 
L 199.599803 270.511289 
L 199.924783 83.897203 
L 200.249762 196.190115 
L 200.574742 204.826546 
L 200.899722 230.59354 
L 201.224701 115.852961 
L 201.549681 176.25707 
L 201.87466 104.487819 
L 202.19964 189.205674 
L 202.524619 31.725047 
L 202.849599 59.772856 
L 203.174578 224.713722 
L 203.499558 191.997811 
L 204.149517 253.89666 
L 204.474496 265.003455 
L 204.799476 232.105893 
L 205.124455 218.211236 
L 205.449435 276.185866 
L 205.774414 180.000773 
L 206.099394 214.813363 
L 206.424373 170.38767 
L 206.749353 184.23523 
L 207.074333 221.329735 
L 207.399312 205.489372 
L 207.724292 251.435848 
L 208.049271 92.356871 
L 208.374251 187.710977 
L 208.69923 198.909337 
L 209.02421 246.536463 
L 209.349189 150.1548 
L 209.674169 226.341393 
L 209.999148 137.17663 
L 210.324128 265.87882 
L 210.649107 220.492628 
L 210.974087 68.492037 
L 211.299066 248.836362 
L 211.624046 203.766645 
L 211.949025 116.917001 
L 212.274005 78.09024 
L 212.598984 249.954027 
L 212.923964 241.865485 
L 213.101911 -1 
M 213.407209 -1 
L 213.573923 210.385433 
L 213.898903 209.520759 
L 214.223882 212.745246 
L 214.548862 202.051772 
L 214.873841 135.186246 
L 215.198821 103.393336 
L 215.5238 147.101262 
L 215.84878 221.570496 
L 216.173759 155.087114 
L 216.498739 226.404994 
L 216.823718 40.690749 
L 217.148698 196.711086 
L 217.473677 209.942811 
L 217.798657 93.42459 
L 218.123636 173.431671 
L 218.773595 229.056469 
L 219.098575 214.161592 
L 219.423554 232.080246 
L 219.748534 150.476514 
L 220.073514 36.413501 
L 220.398493 216.593117 
L 220.723473 146.458805 
L 221.048452 113.174728 
L 222.023391 255.397866 
L 222.34837 256.233474 
L 222.67335 140.148764 
L 222.998329 260.587694 
L 223.116896 -1 
M 223.52828 -1 
L 223.648288 265.63161 
L 223.973268 84.989023 
L 224.298247 240.952368 
L 224.623227 165.295285 
L 224.948206 141.564574 
L 225.273186 235.210223 
L 225.598165 193.774144 
L 225.923145 233.527632 
L 226.248124 169.617983 
L 226.573104 243.707808 
L 226.898084 221.461745 
L 227.223063 243.241912 
L 227.548043 217.870026 
L 227.873022 165.510652 
L 228.198002 234.617729 
L 228.522981 111.988143 
L 228.847961 230.018831 
L 229.17294 116.741474 
L 229.49792 230.222502 
L 229.822899 226.716786 
L 230.147879 226.173624 
L 230.472858 244.915702 
L 230.797838 12.977059 
L 231.122817 186.938651 
L 231.447797 234.527398 
L 231.772776 104.757071 
L 232.097756 139.212307 
L 232.422735 189.243745 
L 232.747715 261.412799 
L 233.072695 209.736801 
L 233.397674 270.2139 
L 233.722654 218.449358 
L 234.047633 61.712203 
L 234.372613 260.725594 
L 234.697592 176.541941 
L 235.022572 31.463612 
L 235.347551 212.011338 
L 235.99751 145.14654 
L 236.647469 267.507635 
L 236.972449 251.18172 
L 237.297428 169.428935 
L 237.622408 219.192994 
L 237.947387 242.794746 
L 238.272367 248.607889 
L 238.523076 -1 
M 238.691616 -1 
L 238.922326 179.968224 
L 239.247305 226.445075 
L 239.572285 187.798355 
L 239.897265 227.186627 
L 240.222244 192.819061 
L 240.872203 5.174637 
L 241.522162 204.992566 
L 241.847142 30.010064 
L 242.172121 224.142092 
L 242.497101 266.487009 
L 242.82208 173.358427 
L 243.14706 124.751322 
L 243.472039 160.560368 
L 243.797019 221.699652 
L 243.989149 -1 
M 244.243662 -1 
L 244.446978 256.332518 
L 244.771957 218.03689 
L 245.096937 110.548699 
L 245.421916 220.887484 
L 245.746896 111.100261 
L 246.071876 259.784849 
L 246.396855 142.47732 
L 246.721835 267.656264 
L 247.046814 177.271687 
L 247.371794 135.395865 
L 248.021753 87.846587 
L 248.346732 193.418103 
L 248.671712 155.115343 
L 248.996691 255.637987 
L 249.64665 97.094418 
L 249.97163 265.072903 
L 250.296609 136.203901 
L 250.621589 178.324178 
L 250.946568 245.537099 
L 251.271548 155.575193 
L 251.596527 200.752665 
L 251.921507 213.914265 
L 252.362019 -1 
M 252.667717 -1 
L 252.896446 264.174817 
L 253.221425 38.624004 
L 253.546405 254.951326 
L 253.871384 187.941859 
L 254.196364 187.510175 
L 254.521343 203.78482 
L 254.846323 271.163656 
L 255.171302 202.396847 
L 255.496282 214.494862 
L 255.821261 159.886009 
L 256.146241 180.143043 
L 256.47122 244.576963 
L 256.7962 271.706723 
L 257.121179 224.60161 
L 257.446159 215.754987 
L 258.096118 273.000078 
L 258.421097 99.402317 
L 258.746077 158.99567 
L 259.071057 142.276886 
L 259.396036 238.9638 
L 259.721016 124.292645 
L 260.045995 225.756417 
L 260.370975 185.851371 
L 260.695954 164.145419 
L 261.345913 247.333105 
L 261.670893 256.345335 
L 262.320852 137.12097 
L 262.645831 60.622946 
L 262.970811 162.495807 
L 263.29579 160.512339 
L 263.62077 77.623831 
L 263.945749 186.182514 
L 264.270729 163.269862 
L 264.595708 288.164226 
L 264.920688 219.050065 
L 265.245667 234.519114 
L 265.570647 214.517161 
L 265.895627 86.095304 
L 266.220606 266.210291 
L 266.545586 253.164187 
L 266.870565 182.442911 
L 267.195545 197.104315 
L 267.520524 239.185868 
L 267.845504 231.831031 
L 268.170483 180.440753 
L 268.820442 289.381302 
L 269.145422 170.870114 
L 269.470401 140.957758 
L 269.795381 186.300257 
L 270.12036 186.800142 
L 270.44534 182.330321 
L 270.770319 188.646696 
L 271.095299 180.189799 
L 271.420278 209.010468 
L 271.745258 184.918182 
L 272.070238 204.03102 
L 272.395217 261.759436 
L 273.045176 181.193213 
L 273.370156 51.370535 
L 273.695135 249.324813 
L 274.020115 136.440137 
L 274.345094 152.78449 
L 274.670074 62.987045 
L 274.995053 234.968213 
L 275.320033 209.272701 
L 275.645012 250.404713 
L 275.969992 38.223662 
L 276.294971 246.247471 
L 276.619951 205.947255 
L 276.94493 87.750988 
L 277.26991 264.18283 
L 277.594889 104.279393 
L 277.919869 238.109166 
L 278.569828 78.666437 
L 278.894808 168.180892 
L 279.219787 32.325541 
L 279.544767 254.786349 
L 279.869746 189.793327 
L 280.194726 200.548141 
L 280.519705 255.301363 
L 280.844685 258.072457 
L 281.169664 100.222359 
L 281.494644 220.110535 
L 281.819623 190.624473 
L 282.144603 224.574362 
L 282.469582 11.939539 
L 282.794562 269.174451 
L 283.119541 221.467747 
L 283.444521 94.3458 
L 283.7695 223.976867 
L 284.09448 209.995853 
L 284.522438 -1 
M 284.853198 -1 
L 285.069419 203.825241 
L 285.394398 244.239151 
L 285.719378 209.63893 
L 286.369337 248.156127 
L 286.694316 235.633432 
L 287.344275 154.888869 
L 287.669255 275.026904 
L 287.994234 157.656146 
L 288.319214 240.715885 
L 288.644193 120.265613 
L 288.969173 268.527394 
L 289.294152 137.183334 
L 289.619132 197.578259 
L 289.944111 235.192991 
L 290.269091 209.668919 
L 290.59407 121.601053 
L 290.91905 156.493891 
L 291.244029 261.829004 
L 291.569009 258.584938 
L 291.893989 279.814152 
L 292.218968 20.592125 
L 292.543948 180.923692 
L 292.868927 157.649545 
L 293.193907 159.952107 
L 293.518886 205.512975 
L 293.843866 207.852403 
L 294.168845 218.496446 
L 294.493825 280.445033 
L 294.818804 216.021929 
L 295.143784 240.127733 
L 295.468763 230.431515 
L 295.793743 203.20974 
L 296.118722 254.380352 
L 296.443702 178.956937 
L 296.768681 203.498319 
L 297.093661 178.780194 
L 297.41864 227.766446 
L 297.74362 168.613336 
L 298.0686 140.000881 
L 298.393579 133.197886 
L 298.718559 185.612564 
L 299.043538 166.929991 
L 299.368518 238.511592 
L 299.693497 158.062798 
L 300.018477 128.185675 
L 300.343456 227.031768 
L 300.668436 201.312673 
L 300.993415 293.42546 
L 301.204885 -1 
M 301.499894 -1 
L 301.643374 123.932375 
L 301.968354 183.669477 
L 302.293333 184.155067 
L 302.618313 241.520348 
L 302.943292 238.794424 
L 303.268272 173.442757 
L 303.593251 286.645317 
L 304.24321 227.650196 
L 304.56819 239.889324 
L 304.89317 259.634885 
L 305.218149 238.913457 
L 305.543129 285.069328 
L 305.868108 243.693773 
L 306.193088 238.769258 
L 306.518067 161.293082 
L 306.843047 160.663308 
L 307.168026 222.967599 
L 307.493006 216.372507 
L 307.817985 170.33176 
L 308.142965 224.200914 
L 308.467944 259.277665 
L 308.792924 201.177807 
L 309.117903 169.08993 
L 309.442883 216.705177 
L 309.767862 233.858978 
L 310.092842 181.41286 
L 310.417821 151.185545 
L 310.742801 208.406111 
L 311.067781 123.743374 
L 311.39276 236.46824 
L 311.71774 139.156109 
L 312.042719 122.331554 
L 312.308788 -1 
M 312.404225 -1 
L 312.692678 214.646142 
L 313.017658 41.407616 
L 313.342637 211.649243 
L 313.667617 222.724248 
L 313.992596 145.589266 
L 314.317576 158.194565 
L 314.642555 232.604432 
L 314.967535 201.918231 
L 315.292514 159.234133 
L 315.617494 261.378549 
L 315.942473 147.45369 
L 316.267453 227.442336 
L 316.592432 221.015489 
L 316.917412 282.003013 
L 317.242391 185.5755 
L 317.567371 239.283538 
L 317.892351 186.401268 
L 318.179596 -1 
M 318.252534 -1 
L 318.54231 201.641897 
L 318.867289 223.045938 
L 319.192269 205.278391 
L 319.517248 96.576996 
L 319.842228 82.935887 
L 320.167207 123.984092 
L 320.492187 247.782047 
L 320.817166 63.389922 
L 321.142146 245.322917 
L 321.467125 211.442163 
L 321.792105 198.400875 
L 322.059849 -1 
M 322.165173 -1 
L 322.442064 244.433948 
L 322.767043 250.78442 
L 323.092023 222.246265 
L 323.417002 267.39062 
L 323.741982 227.90458 
L 324.066962 230.141948 
L 324.391941 266.935991 
L 324.716921 192.604195 
L 325.0419 190.961736 
L 325.36688 103.972316 
L 325.691859 185.777833 
L 326.016839 195.932229 
L 326.341818 101.316307 
L 326.666798 240.463852 
L 326.991777 237.911761 
L 327.316757 247.643298 
L 327.641736 194.585243 
L 327.966716 206.888025 
L 328.291695 247.971619 
L 328.616675 203.830088 
L 328.941654 201.480312 
L 329.266634 197.619393 
L 329.591613 285.613777 
L 329.916593 156.86756 
L 330.241572 167.057394 
L 330.891532 226.224043 
L 331.216511 268.621394 
L 331.541491 57.350014 
L 331.86647 206.877279 
L 332.19145 183.999607 
L 332.516429 278.701417 
L 332.841409 151.522655 
L 333.166388 202.664223 
L 333.471856 -1 
M 333.507243 -1 
L 333.816347 252.299365 
L 334.141327 78.631467 
L 334.466306 288.342607 
L 334.791286 254.334983 
L 335.116265 196.171318 
L 335.441245 40.198287 
L 335.766224 172.984942 
L 336.091204 239.634622 
L 336.416183 154.362869 
L 336.741163 231.370965 
L 337.066143 136.233188 
L 337.391122 167.962651 
L 337.716102 218.40518 
L 338.041081 204.348454 
L 338.366061 204.898701 
L 338.69104 66.612543 
L 339.01602 25.835551 
L 339.340999 23.737781 
L 339.665979 93.798414 
L 339.990958 209.013947 
L 340.315938 107.677893 
L 340.640917 267.699619 
L 340.965897 159.608536 
L 341.290876 260.057871 
L 341.615856 248.057474 
L 341.940835 158.542975 
L 342.265815 194.488005 
L 342.590794 165.496628 
L 342.915774 189.259843 
L 343.106059 -1 
M 343.396237 -1 
L 343.565733 145.813333 
L 343.890713 235.576275 
L 344.215692 261.680678 
L 344.540672 253.101177 
L 344.865651 266.235301 
L 345.190631 123.193609 
L 345.51561 140.192615 
L 345.84059 163.278836 
L 346.165569 228.939362 
L 346.490549 139.823128 
L 346.815528 187.854489 
L 347.140508 206.865655 
L 347.465487 42.506292 
L 347.790467 165.437598 
L 348.115446 238.369218 
L 348.440426 224.151508 
L 348.765405 235.076346 
L 349.090385 201.881193 
L 349.415364 218.145302 
L 349.740344 98.93598 
L 350.065324 128.622597 
L 350.390303 196.933197 
L 350.715283 234.983752 
L 351.040262 50.756071 
L 351.365242 239.406258 
L 351.690221 187.527184 
L 352.015201 282.094569 
L 352.34018 131.853779 
L 352.66516 221.108044 
L 352.990139 91.100386 
L 353.315119 202.46353 
L 353.640098 214.862214 
L 353.965078 174.716743 
L 354.290057 260.049385 
L 354.940016 137.753072 
L 355.264996 211.936446 
L 355.589975 260.115645 
L 355.83516 -1 
M 355.99186 -1 
L 356.239934 273.119212 
L 356.564914 215.321141 
L 356.889894 111.122367 
L 357.214873 175.92031 
L 357.539853 282.265109 
L 358.514791 194.140787 
L 358.839771 25.262659 
L 359.16475 211.91852 
L 359.48973 236.128347 
L 359.814709 216.927225 
L 360.139689 134.876566 
L 360.464668 228.3511 
L 360.789648 158.227283 
L 361.114627 240.27342 
L 361.439607 132.611742 
L 361.764586 143.695662 
L 362.089566 172.610343 
L 362.414545 240.488431 
L 362.739525 174.129229 
L 363.064505 261.201653 
L 363.389484 234.129273 
L 363.714464 260.727463 
L 364.039443 275.118239 
L 364.364423 152.715431 
L 364.689402 232.722972 
L 365.014382 153.613579 
L 365.339361 283.947998 
L 365.664341 240.778774 
L 365.98932 266.456051 
L 366.3143 193.606059 
L 366.53422 -1 
M 366.72786 -1 
L 366.964259 247.102835 
L 367.289238 176.519394 
L 367.614218 240.944784 
L 367.939197 149.373186 
L 368.264177 251.67175 
L 368.914136 153.964524 
L 369.239115 142.583511 
L 369.564095 258.3198 
L 370.214054 184.412561 
L 370.539034 91.59113 
L 370.864013 255.13026 
L 371.188993 214.244167 
L 371.513972 151.663212 
L 371.838952 148.838616 
L 372.163931 202.012456 
L 372.488911 102.521795 
L 372.602652 -1 
M 372.967635 -1 
L 373.13887 213.130282 
L 373.463849 273.275774 
L 373.788829 120.760349 
L 374.113808 215.292789 
L 374.438788 160.005069 
L 374.763767 236.872122 
L 375.088747 269.08266 
L 375.413726 251.854237 
L 375.738706 165.496761 
L 376.063686 267.666939 
L 376.388665 241.295236 
L 376.713645 235.926285 
L 377.038624 190.076215 
L 377.363604 182.699864 
L 377.688583 186.453439 
L 378.013563 232.717921 
L 378.338542 214.276133 
L 378.663522 221.508867 
L 378.988501 63.921381 
L 379.313481 130.468114 
L 379.63846 251.677094 
L 379.96344 178.075675 
L 380.288419 252.804611 
L 380.613399 205.282053 
L 380.938378 111.729749 
L 381.263358 106.886949 
L 381.588337 152.443672 
L 381.913317 218.088468 
L 382.238296 168.268176 
L 382.563276 223.203171 
L 382.888256 170.554564 
L 383.213235 150.7982 
L 383.538215 245.869175 
L 383.863194 253.147505 
L 384.188174 181.568606 
L 384.513153 257.445056 
L 384.838133 262.529229 
L 385.163112 151.327267 
L 385.488092 146.498039 
L 385.813071 251.366776 
L 386.138051 53.315497 
L 386.46303 54.924184 
L 387.112989 182.925522 
L 387.762948 220.552816 
L 388.087928 246.627271 
L 388.412907 227.908493 
L 388.737887 89.731868 
L 389.062867 281.005187 
L 389.387846 261.978684 
L 389.712826 271.284399 
L 390.037805 126.009065 
L 390.687764 258.023059 
L 391.012744 89.827765 
L 391.337723 125.714507 
L 391.662703 275.605848 
L 391.987682 129.383353 
L 392.312662 261.004871 
L 392.637641 241.136705 
L 392.962621 192.185319 
L 393.2876 87.490035 
L 393.61258 115.816706 
L 393.937559 194.082606 
L 394.262539 237.658796 
L 394.587518 186.523027 
L 394.912498 259.546242 
L 395.237477 290.03345 
L 395.562457 14.952077 
L 395.887437 260.236099 
L 396.212416 130.348753 
L 396.537396 170.240743 
L 396.862375 255.52169 
L 397.187355 250.957489 
L 397.512334 265.845052 
L 397.837314 235.664882 
L 398.162293 138.701093 
L 398.487273 198.552963 
L 398.487273 198.552963 
" style="fill:none;stroke:#1f77b4;stroke-linecap:square;stroke-width:1.5;"/>
   </g>
   <g id="patch_3">
    <path d="M 57.6 307.584 
L 57.6 41.472 
" style="fill:none;stroke:#000000;stroke-linecap:square;stroke-linejoin:miter;stroke-width:0.8;"/>
   </g>
   <g id="patch_4">
    <path d="M 414.72 307.584 
L 414.72 41.472 
" style="fill:none;stroke:#000000;stroke-linecap:square;stroke-linejoin:miter;stroke-width:0.8;"/>
   </g>
   <g id="patch_5">
    <path d="M 57.6 307.584 
L 414.72 307.584 
" style="fill:none;stroke:#000000;stroke-linecap:square;stroke-linejoin:miter;stroke-width:0.8;"/>
   </g>
   <g id="patch_6">
    <path d="M 57.6 41.472 
L 414.72 41.472 
" style="fill:none;stroke:#000000;stroke-linecap:square;stroke-linejoin:miter;stroke-width:0.8;"/>
   </g>
   <g id="text_16">
    <!-- exp(-deltaH) -->
    <defs>
     <path d="M 56.203125 29.59375 
L 56.203125 25.203125 
L 14.890625 25.203125 
Q 15.484375 15.921875 20.484375 11.0625 
Q 25.484375 6.203125 34.421875 6.203125 
Q 39.59375 6.203125 44.453125 7.46875 
Q 49.3125 8.734375 54.109375 11.28125 
L 54.109375 2.78125 
Q 49.265625 0.734375 44.1875 -0.34375 
Q 39.109375 -1.421875 33.890625 -1.421875 
Q 20.796875 -1.421875 13.15625 6.1875 
Q 5.515625 13.8125 5.515625 26.8125 
Q 5.515625 40.234375 12.765625 48.109375 
Q 20.015625 56 32.328125 56 
Q 43.359375 56 49.78125 48.890625 
Q 56.203125 41.796875 56.203125 29.59375 
z
M 47.21875 32.234375 
Q 47.125 39.59375 43.09375 43.984375 
Q 39.0625 48.390625 32.421875 48.390625 
Q 24.90625 48.390625 20.390625 44.140625 
Q 15.875 39.890625 15.1875 32.171875 
z
" id="DejaVuSans-101"/>
     <path d="M 54.890625 54.6875 
L 35.109375 28.078125 
L 55.90625 0 
L 45.3125 0 
L 29.390625 21.484375 
L 13.484375 0 
L 2.875 0 
L 24.125 28.609375 
L 4.6875 54.6875 
L 15.28125 54.6875 
L 29.78125 35.203125 
L 44.28125 54.6875 
z
" id="DejaVuSans-120"/>
     <path d="M 18.109375 8.203125 
L 18.109375 -20.796875 
L 9.078125 -20.796875 
L 9.078125 54.6875 
L 18.109375 54.6875 
L 18.109375 46.390625 
Q 20.953125 51.265625 25.265625 53.625 
Q 29.59375 56 35.59375 56 
Q 45.5625 56 51.78125 48.09375 
Q 58.015625 40.1875 58.015625 27.296875 
Q 58.015625 14.40625 51.78125 6.484375 
Q 45.5625 -1.421875 35.59375 -1.421875 
Q 29.59375 -1.421875 25.265625 0.953125 
Q 20.953125 3.328125 18.109375 8.203125 
z
M 48.6875 27.296875 
Q 48.6875 37.203125 44.609375 42.84375 
Q 40.53125 48.484375 33.40625 48.484375 
Q 26.265625 48.484375 22.1875 42.84375 
Q 18.109375 37.203125 18.109375 27.296875 
Q 18.109375 17.390625 22.1875 11.75 
Q 26.265625 6.109375 33.40625 6.109375 
Q 40.53125 6.109375 44.609375 11.75 
Q 48.6875 17.390625 48.6875 27.296875 
z
" id="DejaVuSans-112"/>
     <path d="M 31 75.875 
Q 24.46875 64.65625 21.28125 53.65625 
Q 18.109375 42.671875 18.109375 31.390625 
Q 18.109375 20.125 21.3125 9.0625 
Q 24.515625 -2 31 -13.1875 
L 23.1875 -13.1875 
Q 15.875 -1.703125 12.234375 9.375 
Q 8.59375 20.453125 8.59375 31.390625 
Q 8.59375 42.28125 12.203125 53.3125 
Q 15.828125 64.359375 23.1875 75.875 
z
" id="DejaVuSans-40"/>
     <path d="M 4.890625 31.390625 
L 31.203125 31.390625 
L 31.203125 23.390625 
L 4.890625 23.390625 
z
" id="DejaVuSans-45"/>
     <path d="M 45.40625 46.390625 
L 45.40625 75.984375 
L 54.390625 75.984375 
L 54.390625 0 
L 45.40625 0 
L 45.40625 8.203125 
Q 42.578125 3.328125 38.25 0.953125 
Q 33.9375 -1.421875 27.875 -1.421875 
Q 17.96875 -1.421875 11.734375 6.484375 
Q 5.515625 14.40625 5.515625 27.296875 
Q 5.515625 40.1875 11.734375 48.09375 
Q 17.96875 56 27.875 56 
Q 33.9375 56 38.25 53.625 
Q 42.578125 51.265625 45.40625 46.390625 
z
M 14.796875 27.296875 
Q 14.796875 17.390625 18.875 11.75 
Q 22.953125 6.109375 30.078125 6.109375 
Q 37.203125 6.109375 41.296875 11.75 
Q 45.40625 17.390625 45.40625 27.296875 
Q 45.40625 37.203125 41.296875 42.84375 
Q 37.203125 48.484375 30.078125 48.484375 
Q 22.953125 48.484375 18.875 42.84375 
Q 14.796875 37.203125 14.796875 27.296875 
z
" id="DejaVuSans-100"/>
     <path d="M 9.421875 75.984375 
L 18.40625 75.984375 
L 18.40625 0 
L 9.421875 0 
z
" id="DejaVuSans-108"/>
     <path d="M 18.3125 70.21875 
L 18.3125 54.6875 
L 36.8125 54.6875 
L 36.8125 47.703125 
L 18.3125 47.703125 
L 18.3125 18.015625 
Q 18.3125 11.328125 20.140625 9.421875 
Q 21.96875 7.515625 27.59375 7.515625 
L 36.8125 7.515625 
L 36.8125 0 
L 27.59375 0 
Q 17.1875 0 13.234375 3.875 
Q 9.28125 7.765625 9.28125 18.015625 
L 9.28125 47.703125 
L 2.6875 47.703125 
L 2.6875 54.6875 
L 9.28125 54.6875 
L 9.28125 70.21875 
z
" id="DejaVuSans-116"/>
     <path d="M 34.28125 27.484375 
Q 23.390625 27.484375 19.1875 25 
Q 14.984375 22.515625 14.984375 16.5 
Q 14.984375 11.71875 18.140625 8.90625 
Q 21.296875 6.109375 26.703125 6.109375 
Q 34.1875 6.109375 38.703125 11.40625 
Q 43.21875 16.703125 43.21875 25.484375 
L 43.21875 27.484375 
z
M 52.203125 31.203125 
L 52.203125 0 
L 43.21875 0 
L 43.21875 8.296875 
Q 40.140625 3.328125 35.546875 0.953125 
Q 30.953125 -1.421875 24.3125 -1.421875 
Q 15.921875 -1.421875 10.953125 3.296875 
Q 6 8.015625 6 15.921875 
Q 6 25.140625 12.171875 29.828125 
Q 18.359375 34.515625 30.609375 34.515625 
L 43.21875 34.515625 
L 43.21875 35.40625 
Q 43.21875 41.609375 39.140625 45 
Q 35.0625 48.390625 27.6875 48.390625 
Q 23 48.390625 18.546875 47.265625 
Q 14.109375 46.140625 10.015625 43.890625 
L 10.015625 52.203125 
Q 14.9375 54.109375 19.578125 55.046875 
Q 24.21875 56 28.609375 56 
Q 40.484375 56 46.34375 49.84375 
Q 52.203125 43.703125 52.203125 31.203125 
z
" id="DejaVuSans-97"/>
     <path d="M 9.8125 72.90625 
L 19.671875 72.90625 
L 19.671875 43.015625 
L 55.515625 43.015625 
L 55.515625 72.90625 
L 65.375 72.90625 
L 65.375 0 
L 55.515625 0 
L 55.515625 34.71875 
L 19.671875 34.71875 
L 19.671875 0 
L 9.8125 0 
z
" id="DejaVuSans-72"/>
     <path d="M 8.015625 75.875 
L 15.828125 75.875 
Q 23.140625 64.359375 26.78125 53.3125 
Q 30.421875 42.28125 30.421875 31.390625 
Q 30.421875 20.453125 26.78125 9.375 
Q 23.140625 -1.703125 15.828125 -13.1875 
L 8.015625 -13.1875 
Q 14.5 -2 17.703125 9.0625 
Q 20.90625 20.125 20.90625 31.390625 
Q 20.90625 42.671875 17.703125 53.65625 
Q 14.5 64.65625 8.015625 75.875 
z
" id="DejaVuSans-41"/>
    </defs>
    <g transform="translate(198.657187 35.472)scale(0.12 -0.12)">
     <use xlink:href="#DejaVuSans-101"/>
     <use x="59.773438" xlink:href="#DejaVuSans-120"/>
     <use x="118.953125" xlink:href="#DejaVuSans-112"/>
     <use x="182.429688" xlink:href="#DejaVuSans-40"/>
     <use x="221.443359" xlink:href="#DejaVuSans-45"/>
     <use x="257.527344" xlink:href="#DejaVuSans-100"/>
     <use x="321.003906" xlink:href="#DejaVuSans-101"/>
     <use x="382.527344" xlink:href="#DejaVuSans-108"/>
     <use x="410.310547" xlink:href="#DejaVuSans-116"/>
     <use x="449.519531" xlink:href="#DejaVuSans-97"/>
     <use x="510.798828" xlink:href="#DejaVuSans-72"/>
     <use x="585.994141" xlink:href="#DejaVuSans-41"/>
    </g>
   </g>
   <g id="legend_1">
    <g id="patch_7">
     <path d="M 64.6 64.150125 
L 181.9375 64.150125 
Q 183.9375 64.150125 183.9375 62.150125 
L 183.9375 48.472 
Q 183.9375 46.472 181.9375 46.472 
L 64.6 46.472 
Q 62.6 46.472 62.6 48.472 
L 62.6 62.150125 
Q 62.6 64.150125 64.6 64.150125 
z
" style="fill:#ffffff;opacity:0.8;stroke:#cccccc;stroke-linejoin:miter;"/>
    </g>
    <g id="line2d_17">
     <path d="M 66.6 54.570438 
L 86.6 54.570438 
" style="fill:none;stroke:#1f77b4;stroke-linecap:square;stroke-width:1.5;"/>
    </g>
    <g id="line2d_18"/>
    <g id="text_17">
     <!-- 0.9895+/-0.0202 -->
     <defs>
      <path d="M 10.984375 1.515625 
L 10.984375 10.5 
Q 14.703125 8.734375 18.5 7.8125 
Q 22.3125 6.890625 25.984375 6.890625 
Q 35.75 6.890625 40.890625 13.453125 
Q 46.046875 20.015625 46.78125 33.40625 
Q 43.953125 29.203125 39.59375 26.953125 
Q 35.25 24.703125 29.984375 24.703125 
Q 19.046875 24.703125 12.671875 31.3125 
Q 6.296875 37.9375 6.296875 49.421875 
Q 6.296875 60.640625 12.9375 67.421875 
Q 19.578125 74.21875 30.609375 74.21875 
Q 43.265625 74.21875 49.921875 64.515625 
Q 56.59375 54.828125 56.59375 36.375 
Q 56.59375 19.140625 48.40625 8.859375 
Q 40.234375 -1.421875 26.421875 -1.421875 
Q 22.703125 -1.421875 18.890625 -0.6875 
Q 15.09375 0.046875 10.984375 1.515625 
z
M 30.609375 32.421875 
Q 37.25 32.421875 41.125 36.953125 
Q 45.015625 41.5 45.015625 49.421875 
Q 45.015625 57.28125 41.125 61.84375 
Q 37.25 66.40625 30.609375 66.40625 
Q 23.96875 66.40625 20.09375 61.84375 
Q 16.21875 57.28125 16.21875 49.421875 
Q 16.21875 41.5 20.09375 36.953125 
Q 23.96875 32.421875 30.609375 32.421875 
z
" id="DejaVuSans-57"/>
      <path d="M 46 62.703125 
L 46 35.5 
L 73.1875 35.5 
L 73.1875 27.203125 
L 46 27.203125 
L 46 0 
L 37.796875 0 
L 37.796875 27.203125 
L 10.59375 27.203125 
L 10.59375 35.5 
L 37.796875 35.5 
L 37.796875 62.703125 
z
" id="DejaVuSans-43"/>
      <path d="M 25.390625 72.90625 
L 33.6875 72.90625 
L 8.296875 -9.28125 
L 0 -9.28125 
z
" id="DejaVuSans-47"/>
     </defs>
     <g transform="translate(94.6 58.070438)scale(0.1 -0.1)">
      <use xlink:href="#DejaVuSans-48"/>
      <use x="63.623047" xlink:href="#DejaVuSans-46"/>
      <use x="95.410156" xlink:href="#DejaVuSans-57"/>
      <use x="159.033203" xlink:href="#DejaVuSans-56"/>
      <use x="222.65625" xlink:href="#DejaVuSans-57"/>
      <use x="286.279297" xlink:href="#DejaVuSans-53"/>
      <use x="349.902344" xlink:href="#DejaVuSans-43"/>
      <use x="433.691406" xlink:href="#DejaVuSans-47"/>
      <use x="467.382812" xlink:href="#DejaVuSans-45"/>
      <use x="503.466797" xlink:href="#DejaVuSans-48"/>
      <use x="567.089844" xlink:href="#DejaVuSans-46"/>
      <use x="598.876953" xlink:href="#DejaVuSans-48"/>
      <use x="662.5" xlink:href="#DejaVuSans-50"/>
      <use x="726.123047" xlink:href="#DejaVuSans-48"/>
      <use x="789.746094" xlink:href="#DejaVuSans-50"/>
     </g>
    </g>
   </g>
  </g>
 </g>
 <defs>
  <clipPath id="pdc7e90e390">
   <rect height="266.112" width="357.12" x="57.6" y="41.472"/>
  </clipPath>
 </defs>
</svg>
