<?xml version="1.0" encoding="utf-8" standalone="no"?>
<!DOCTYPE svg PUBLIC "-//W3C//DTD SVG 1.1//EN"
  "http://www.w3.org/Graphics/SVG/1.1/DTD/svg11.dtd">
<!-- Created with matplotlib (https://matplotlib.org/) -->
<svg height="345.6pt" version="1.1" viewBox="0 0 460.8 345.6" width="460.8pt" xmlns="http://www.w3.org/2000/svg" xmlns:xlink="http://www.w3.org/1999/xlink">
 <defs>
  <style type="text/css">
*{stroke-linecap:butt;stroke-linejoin:round;}
  </style>
 </defs>
 <g id="figure_1">
  <g id="patch_1">
   <path d="M 0 345.6 
L 460.8 345.6 
L 460.8 0 
L 0 0 
z
" style="fill:#ffffff;"/>
  </g>
  <g id="axes_1">
   <g id="patch_2">
    <path d="M 57.6 307.584 
L 414.72 307.584 
L 414.72 41.472 
L 57.6 41.472 
z
" style="fill:#ffffff;"/>
   </g>
   <g id="matplotlib.axis_1">
    <g id="xtick_1">
     <g id="line2d_1">
      <defs>
       <path d="M 0 0 
L 0 3.5 
" id="m41764d9aae" style="stroke:#000000;stroke-width:0.8;"/>
      </defs>
      <g>
       <use style="stroke:#000000;stroke-width:0.8;" x="73.507748" xlink:href="#m41764d9aae" y="307.584"/>
      </g>
     </g>
     <g id="text_1">
      <!-- 0 -->
      <defs>
       <path d="M 31.78125 66.40625 
Q 24.171875 66.40625 20.328125 58.90625 
Q 16.5 51.421875 16.5 36.375 
Q 16.5 21.390625 20.328125 13.890625 
Q 24.171875 6.390625 31.78125 6.390625 
Q 39.453125 6.390625 43.28125 13.890625 
Q 47.125 21.390625 47.125 36.375 
Q 47.125 51.421875 43.28125 58.90625 
Q 39.453125 66.40625 31.78125 66.40625 
z
M 31.78125 74.21875 
Q 44.046875 74.21875 50.515625 64.515625 
Q 56.984375 54.828125 56.984375 36.375 
Q 56.984375 17.96875 50.515625 8.265625 
Q 44.046875 -1.421875 31.78125 -1.421875 
Q 19.53125 -1.421875 13.0625 8.265625 
Q 6.59375 17.96875 6.59375 36.375 
Q 6.59375 54.828125 13.0625 64.515625 
Q 19.53125 74.21875 31.78125 74.21875 
z
" id="DejaVuSans-48"/>
      </defs>
      <g transform="translate(70.326498 322.182437)scale(0.1 -0.1)">
       <use xlink:href="#DejaVuSans-48"/>
      </g>
     </g>
    </g>
    <g id="xtick_2">
     <g id="line2d_2">
      <g>
       <use style="stroke:#000000;stroke-width:0.8;" x="138.503653" xlink:href="#m41764d9aae" y="307.584"/>
      </g>
     </g>
     <g id="text_2">
      <!-- 200 -->
      <defs>
       <path d="M 19.1875 8.296875 
L 53.609375 8.296875 
L 53.609375 0 
L 7.328125 0 
L 7.328125 8.296875 
Q 12.9375 14.109375 22.625 23.890625 
Q 32.328125 33.6875 34.8125 36.53125 
Q 39.546875 41.84375 41.421875 45.53125 
Q 43.3125 49.21875 43.3125 52.78125 
Q 43.3125 58.59375 39.234375 62.25 
Q 35.15625 65.921875 28.609375 65.921875 
Q 23.96875 65.921875 18.8125 64.3125 
Q 13.671875 62.703125 7.8125 59.421875 
L 7.8125 69.390625 
Q 13.765625 71.78125 18.9375 73 
Q 24.125 74.21875 28.421875 74.21875 
Q 39.75 74.21875 46.484375 68.546875 
Q 53.21875 62.890625 53.21875 53.421875 
Q 53.21875 48.921875 51.53125 44.890625 
Q 49.859375 40.875 45.40625 35.40625 
Q 44.1875 33.984375 37.640625 27.21875 
Q 31.109375 20.453125 19.1875 8.296875 
z
" id="DejaVuSans-50"/>
      </defs>
      <g transform="translate(128.959903 322.182437)scale(0.1 -0.1)">
       <use xlink:href="#DejaVuSans-50"/>
       <use x="63.623047" xlink:href="#DejaVuSans-48"/>
       <use x="127.246094" xlink:href="#DejaVuSans-48"/>
      </g>
     </g>
    </g>
    <g id="xtick_3">
     <g id="line2d_3">
      <g>
       <use style="stroke:#000000;stroke-width:0.8;" x="203.499558" xlink:href="#m41764d9aae" y="307.584"/>
      </g>
     </g>
     <g id="text_3">
      <!-- 400 -->
      <defs>
       <path d="M 37.796875 64.3125 
L 12.890625 25.390625 
L 37.796875 25.390625 
z
M 35.203125 72.90625 
L 47.609375 72.90625 
L 47.609375 25.390625 
L 58.015625 25.390625 
L 58.015625 17.1875 
L 47.609375 17.1875 
L 47.609375 0 
L 37.796875 0 
L 37.796875 17.1875 
L 4.890625 17.1875 
L 4.890625 26.703125 
z
" id="DejaVuSans-52"/>
      </defs>
      <g transform="translate(193.955808 322.182437)scale(0.1 -0.1)">
       <use xlink:href="#DejaVuSans-52"/>
       <use x="63.623047" xlink:href="#DejaVuSans-48"/>
       <use x="127.246094" xlink:href="#DejaVuSans-48"/>
      </g>
     </g>
    </g>
    <g id="xtick_4">
     <g id="line2d_4">
      <g>
       <use style="stroke:#000000;stroke-width:0.8;" x="268.495463" xlink:href="#m41764d9aae" y="307.584"/>
      </g>
     </g>
     <g id="text_4">
      <!-- 600 -->
      <defs>
       <path d="M 33.015625 40.375 
Q 26.375 40.375 22.484375 35.828125 
Q 18.609375 31.296875 18.609375 23.390625 
Q 18.609375 15.53125 22.484375 10.953125 
Q 26.375 6.390625 33.015625 6.390625 
Q 39.65625 6.390625 43.53125 10.953125 
Q 47.40625 15.53125 47.40625 23.390625 
Q 47.40625 31.296875 43.53125 35.828125 
Q 39.65625 40.375 33.015625 40.375 
z
M 52.59375 71.296875 
L 52.59375 62.3125 
Q 48.875 64.0625 45.09375 64.984375 
Q 41.3125 65.921875 37.59375 65.921875 
Q 27.828125 65.921875 22.671875 59.328125 
Q 17.53125 52.734375 16.796875 39.40625 
Q 19.671875 43.65625 24.015625 45.921875 
Q 28.375 48.1875 33.59375 48.1875 
Q 44.578125 48.1875 50.953125 41.515625 
Q 57.328125 34.859375 57.328125 23.390625 
Q 57.328125 12.15625 50.6875 5.359375 
Q 44.046875 -1.421875 33.015625 -1.421875 
Q 20.359375 -1.421875 13.671875 8.265625 
Q 6.984375 17.96875 6.984375 36.375 
Q 6.984375 53.65625 15.1875 63.9375 
Q 23.390625 74.21875 37.203125 74.21875 
Q 40.921875 74.21875 44.703125 73.484375 
Q 48.484375 72.75 52.59375 71.296875 
z
" id="DejaVuSans-54"/>
      </defs>
      <g transform="translate(258.951713 322.182437)scale(0.1 -0.1)">
       <use xlink:href="#DejaVuSans-54"/>
       <use x="63.623047" xlink:href="#DejaVuSans-48"/>
       <use x="127.246094" xlink:href="#DejaVuSans-48"/>
      </g>
     </g>
    </g>
    <g id="xtick_5">
     <g id="line2d_5">
      <g>
       <use style="stroke:#000000;stroke-width:0.8;" x="333.491368" xlink:href="#m41764d9aae" y="307.584"/>
      </g>
     </g>
     <g id="text_5">
      <!-- 800 -->
      <defs>
       <path d="M 31.78125 34.625 
Q 24.75 34.625 20.71875 30.859375 
Q 16.703125 27.09375 16.703125 20.515625 
Q 16.703125 13.921875 20.71875 10.15625 
Q 24.75 6.390625 31.78125 6.390625 
Q 38.8125 6.390625 42.859375 10.171875 
Q 46.921875 13.96875 46.921875 20.515625 
Q 46.921875 27.09375 42.890625 30.859375 
Q 38.875 34.625 31.78125 34.625 
z
M 21.921875 38.8125 
Q 15.578125 40.375 12.03125 44.71875 
Q 8.5 49.078125 8.5 55.328125 
Q 8.5 64.0625 14.71875 69.140625 
Q 20.953125 74.21875 31.78125 74.21875 
Q 42.671875 74.21875 48.875 69.140625 
Q 55.078125 64.0625 55.078125 55.328125 
Q 55.078125 49.078125 51.53125 44.71875 
Q 48 40.375 41.703125 38.8125 
Q 48.828125 37.15625 52.796875 32.3125 
Q 56.78125 27.484375 56.78125 20.515625 
Q 56.78125 9.90625 50.3125 4.234375 
Q 43.84375 -1.421875 31.78125 -1.421875 
Q 19.734375 -1.421875 13.25 4.234375 
Q 6.78125 9.90625 6.78125 20.515625 
Q 6.78125 27.484375 10.78125 32.3125 
Q 14.796875 37.15625 21.921875 38.8125 
z
M 18.3125 54.390625 
Q 18.3125 48.734375 21.84375 45.5625 
Q 25.390625 42.390625 31.78125 42.390625 
Q 38.140625 42.390625 41.71875 45.5625 
Q 45.3125 48.734375 45.3125 54.390625 
Q 45.3125 60.0625 41.71875 63.234375 
Q 38.140625 66.40625 31.78125 66.40625 
Q 25.390625 66.40625 21.84375 63.234375 
Q 18.3125 60.0625 18.3125 54.390625 
z
" id="DejaVuSans-56"/>
      </defs>
      <g transform="translate(323.947618 322.182437)scale(0.1 -0.1)">
       <use xlink:href="#DejaVuSans-56"/>
       <use x="63.623047" xlink:href="#DejaVuSans-48"/>
       <use x="127.246094" xlink:href="#DejaVuSans-48"/>
      </g>
     </g>
    </g>
    <g id="xtick_6">
     <g id="line2d_6">
      <g>
       <use style="stroke:#000000;stroke-width:0.8;" x="398.487273" xlink:href="#m41764d9aae" y="307.584"/>
      </g>
     </g>
     <g id="text_6">
      <!-- 1000 -->
      <defs>
       <path d="M 12.40625 8.296875 
L 28.515625 8.296875 
L 28.515625 63.921875 
L 10.984375 60.40625 
L 10.984375 69.390625 
L 28.421875 72.90625 
L 38.28125 72.90625 
L 38.28125 8.296875 
L 54.390625 8.296875 
L 54.390625 0 
L 12.40625 0 
z
" id="DejaVuSans-49"/>
      </defs>
      <g transform="translate(385.762273 322.182437)scale(0.1 -0.1)">
       <use xlink:href="#DejaVuSans-49"/>
       <use x="63.623047" xlink:href="#DejaVuSans-48"/>
       <use x="127.246094" xlink:href="#DejaVuSans-48"/>
       <use x="190.869141" xlink:href="#DejaVuSans-48"/>
      </g>
     </g>
    </g>
   </g>
   <g id="matplotlib.axis_2">
    <g id="ytick_1">
     <g id="line2d_7">
      <defs>
       <path d="M 0 0 
L -3.5 0 
" id="m30f1fd0ab8" style="stroke:#000000;stroke-width:0.8;"/>
      </defs>
      <g>
       <use style="stroke:#000000;stroke-width:0.8;" x="57.6" xlink:href="#m30f1fd0ab8" y="275.455172"/>
      </g>
     </g>
     <g id="text_7">
      <!-- 60 -->
      <g transform="translate(37.875 279.254391)scale(0.1 -0.1)">
       <use xlink:href="#DejaVuSans-54"/>
       <use x="63.623047" xlink:href="#DejaVuSans-48"/>
      </g>
     </g>
    </g>
    <g id="ytick_2">
     <g id="line2d_8">
      <g>
       <use style="stroke:#000000;stroke-width:0.8;" x="57.6" xlink:href="#m30f1fd0ab8" y="238.33875"/>
      </g>
     </g>
     <g id="text_8">
      <!-- 80 -->
      <g transform="translate(37.875 242.137969)scale(0.1 -0.1)">
       <use xlink:href="#DejaVuSans-56"/>
       <use x="63.623047" xlink:href="#DejaVuSans-48"/>
      </g>
     </g>
    </g>
    <g id="ytick_3">
     <g id="line2d_9">
      <g>
       <use style="stroke:#000000;stroke-width:0.8;" x="57.6" xlink:href="#m30f1fd0ab8" y="201.222328"/>
      </g>
     </g>
     <g id="text_9">
      <!-- 100 -->
      <g transform="translate(31.5125 205.021547)scale(0.1 -0.1)">
       <use xlink:href="#DejaVuSans-49"/>
       <use x="63.623047" xlink:href="#DejaVuSans-48"/>
       <use x="127.246094" xlink:href="#DejaVuSans-48"/>
      </g>
     </g>
    </g>
    <g id="ytick_4">
     <g id="line2d_10">
      <g>
       <use style="stroke:#000000;stroke-width:0.8;" x="57.6" xlink:href="#m30f1fd0ab8" y="164.105906"/>
      </g>
     </g>
     <g id="text_10">
      <!-- 120 -->
      <g transform="translate(31.5125 167.905125)scale(0.1 -0.1)">
       <use xlink:href="#DejaVuSans-49"/>
       <use x="63.623047" xlink:href="#DejaVuSans-50"/>
       <use x="127.246094" xlink:href="#DejaVuSans-48"/>
      </g>
     </g>
    </g>
    <g id="ytick_5">
     <g id="line2d_11">
      <g>
       <use style="stroke:#000000;stroke-width:0.8;" x="57.6" xlink:href="#m30f1fd0ab8" y="126.989484"/>
      </g>
     </g>
     <g id="text_11">
      <!-- 140 -->
      <g transform="translate(31.5125 130.788703)scale(0.1 -0.1)">
       <use xlink:href="#DejaVuSans-49"/>
       <use x="63.623047" xlink:href="#DejaVuSans-52"/>
       <use x="127.246094" xlink:href="#DejaVuSans-48"/>
      </g>
     </g>
    </g>
    <g id="ytick_6">
     <g id="line2d_12">
      <g>
       <use style="stroke:#000000;stroke-width:0.8;" x="57.6" xlink:href="#m30f1fd0ab8" y="89.873063"/>
      </g>
     </g>
     <g id="text_12">
      <!-- 160 -->
      <g transform="translate(31.5125 93.672281)scale(0.1 -0.1)">
       <use xlink:href="#DejaVuSans-49"/>
       <use x="63.623047" xlink:href="#DejaVuSans-54"/>
       <use x="127.246094" xlink:href="#DejaVuSans-48"/>
      </g>
     </g>
    </g>
    <g id="ytick_7">
     <g id="line2d_13">
      <g>
       <use style="stroke:#000000;stroke-width:0.8;" x="57.6" xlink:href="#m30f1fd0ab8" y="52.756641"/>
      </g>
     </g>
     <g id="text_13">
      <!-- 180 -->
      <g transform="translate(31.5125 56.555859)scale(0.1 -0.1)">
       <use xlink:href="#DejaVuSans-49"/>
       <use x="63.623047" xlink:href="#DejaVuSans-56"/>
       <use x="127.246094" xlink:href="#DejaVuSans-48"/>
      </g>
     </g>
    </g>
   </g>
   <g id="line2d_14">
    <path clip-path="url(#p9f5117bce5)" d="M 73.832727 240.604554 
L 74.157707 252.633906 
L 74.482686 245.185121 
L 74.807666 234.187681 
L 75.457625 194.933639 
L 75.782604 169.826243 
L 76.432563 188.526836 
L 76.757543 195.35152 
L 77.082523 171.869031 
L 77.407502 194.307262 
L 77.732482 199.891404 
L 78.057461 201.112163 
L 78.382441 203.522882 
L 78.70742 204.311975 
L 79.0324 205.917506 
L 79.357379 206.870182 
L 79.682359 207.147724 
L 80.007338 207.911767 
L 80.332318 207.328759 
L 80.657297 208.031297 
L 80.982277 208.30033 
L 81.307256 209.312547 
L 81.957215 209.159159 
L 82.282195 208.943307 
L 82.932154 210.461714 
L 83.257133 210.711778 
L 83.582113 196.655262 
L 83.907093 215.254216 
L 84.232072 215.719292 
L 84.557052 215.83423 
L 85.207011 215.509837 
L 85.53199 216.703237 
L 85.85697 216.394995 
L 86.506929 216.256853 
L 87.156888 216.663727 
L 87.481867 215.965398 
L 87.806847 216.283616 
L 88.131826 216.413467 
L 88.456806 216.167387 
L 88.781785 216.321305 
L 89.106765 217.413276 
L 89.431744 217.638461 
L 89.756724 218.15433 
L 90.081704 218.279238 
L 90.406683 218.281802 
L 90.731663 217.86515 
L 91.056642 217.776295 
L 91.381622 218.308088 
L 91.706601 218.252655 
L 92.031581 218.605135 
L 92.35656 218.469589 
L 93.006519 218.802499 
L 93.331499 218.478226 
L 93.656478 218.812792 
L 93.981458 218.694246 
L 94.306437 218.979639 
L 94.956396 219.029299 
L 95.606355 219.326117 
L 95.931335 218.483218 
L 96.256314 218.984123 
L 96.581294 219.128077 
L 96.906274 219.122372 
L 97.231253 219.442327 
L 97.556233 219.20238 
L 97.881212 218.241455 
L 98.206192 218.22893 
L 98.531171 218.820189 
L 98.856151 218.129387 
L 99.18113 218.493325 
L 99.831089 218.307864 
L 100.156069 218.757488 
L 100.481048 218.754554 
L 101.131007 219.213983 
L 101.455987 218.62875 
L 101.780966 219.304172 
L 102.105946 218.487984 
L 102.430925 218.428965 
L 102.755905 219.04298 
L 103.080885 218.690974 
L 103.730844 218.774768 
L 104.055823 219.169672 
L 104.380803 218.864955 
L 104.705782 218.960162 
L 105.030762 219.649364 
L 105.355741 219.456591 
L 105.680721 219.072705 
L 106.0057 53.568 
L 106.33068 229.463883 
L 106.655659 247.516552 
L 106.980639 247.748455 
L 107.305618 247.821549 
L 107.630598 248.160739 
L 107.955577 247.66087 
L 108.280557 248.382701 
L 108.605536 248.408864 
L 108.930516 248.209805 
L 109.255495 248.263663 
L 109.580475 248.090119 
L 110.230434 248.484003 
L 110.555414 248.417369 
L 110.880393 248.077272 
L 111.855332 248.077689 
L 112.180311 247.948324 
L 112.505291 248.256666 
L 112.83027 247.81239 
L 113.15525 248.248915 
L 113.480229 247.925924 
L 113.805209 247.922151 
L 114.130188 248.355663 
L 114.455168 247.727704 
L 114.780147 248.079886 
L 115.105127 248.24388 
L 115.755086 248.073085 
L 116.080066 247.712087 
L 116.405045 248.144473 
L 116.730025 248.058392 
L 117.055004 248.320874 
L 117.379984 248.164696 
L 118.354922 248.444412 
L 118.679902 248.052084 
L 119.004881 248.338493 
L 119.329861 247.930894 
L 119.65484 248.325323 
L 119.97982 248.22472 
L 120.304799 248.412461 
L 120.954758 248.029735 
L 121.279738 248.012676 
L 121.604717 247.853168 
L 121.929697 248.488332 
L 122.254676 248.476086 
L 122.579656 222.907319 
L 122.904636 240.731796 
L 123.229615 240.943783 
L 124.204554 240.337661 
L 124.529533 240.389076 
L 124.854513 239.9966 
L 125.179492 240.520201 
L 125.504472 239.950739 
L 125.829451 239.785107 
L 126.154431 240.115287 
L 126.47941 239.995406 
L 126.80439 240.252063 
L 127.129369 240.125756 
L 128.104308 240.183989 
L 128.429287 240.05823 
L 128.754267 240.535077 
L 129.079247 240.419042 
L 129.404226 240.578327 
L 129.729206 241.314828 
L 130.054185 241.420627 
L 130.379165 241.397979 
L 130.704144 241.591867 
L 131.029124 241.931856 
L 131.354103 241.483367 
L 131.679083 241.383472 
L 132.004062 241.62576 
L 132.329042 241.573495 
L 132.654021 241.707971 
L 133.30398 241.764921 
L 133.953939 240.897577 
L 134.278919 241.093531 
L 134.603898 241.510083 
L 134.928878 241.127049 
L 135.253857 241.165273 
L 135.578837 241.450159 
L 135.903817 241.298965 
L 136.228796 240.939405 
L 136.553776 241.326296 
L 136.878755 241.080474 
L 137.203735 240.530828 
L 137.528714 241.273965 
L 138.178673 241.738449 
L 138.503653 98.017461 
L 138.828632 225.33406 
L 139.153612 243.089687 
L 139.478591 242.829902 
L 139.803571 242.96171 
L 140.12855 243.688921 
L 140.45353 243.276032 
L 140.778509 243.843444 
L 141.103489 243.843147 
L 141.428468 243.332563 
L 141.753448 243.536512 
L 142.078428 242.805374 
L 142.403407 243.403459 
L 142.728387 242.945882 
L 143.053366 242.815082 
L 143.378346 242.388534 
L 143.703325 243.208711 
L 144.028305 243.44726 
L 144.353284 243.162284 
L 144.678264 243.108418 
L 145.003243 242.750284 
L 145.328223 243.324035 
L 145.978182 243.132217 
L 146.303161 243.320583 
L 146.628141 243.317328 
L 146.95312 243.105753 
L 147.2781 243.344533 
L 147.603079 243.371995 
L 148.578018 242.802492 
L 148.902998 243.120214 
L 149.227977 243.013732 
L 150.202916 243.302456 
L 150.527895 242.608898 
L 150.852875 243.388458 
L 151.177854 243.24085 
L 151.502834 243.473583 
L 152.152793 243.002527 
L 152.477772 243.57352 
L 153.127731 243.658779 
L 153.452711 243.33965 
L 153.77769 243.324996 
L 154.10267 243.540569 
L 154.752629 243.039599 
L 155.402588 276.23779 
L 155.727568 276.28609 
L 156.052547 276.541486 
L 156.377527 276.363858 
L 156.702506 275.716199 
L 157.027486 276.243365 
L 157.352465 276.106723 
L 157.677445 276.741434 
L 158.002424 276.644653 
L 158.327404 276.39761 
L 158.652383 275.919296 
L 158.977363 276.077583 
L 159.302342 276.923895 
L 159.952301 275.975763 
L 160.60226 276.261539 
L 161.252219 276.8258 
L 161.577199 276.199334 
L 162.227158 276.111149 
L 162.552138 275.943392 
L 162.877117 276.287126 
L 163.202097 275.978172 
L 163.527076 276.62845 
L 163.852056 275.896954 
L 164.502015 276.772302 
L 164.826994 276.256987 
L 165.151974 276.374602 
L 165.476953 275.780112 
L 165.801933 275.908089 
L 166.126912 276.50743 
L 166.451892 275.601739 
L 166.776871 276.083967 
L 167.101851 275.864 
L 167.42683 275.929195 
L 167.75181 276.58276 
L 168.07679 275.739736 
L 168.401769 276.413258 
L 168.726749 275.852722 
L 169.376708 275.753714 
L 169.701687 276.262228 
L 170.026667 276.327651 
L 170.351646 276.025876 
L 170.676626 276.255263 
L 171.001605 167.988763 
L 171.326585 252.664071 
L 171.651564 270.862251 
L 172.301523 270.61697 
L 172.626503 270.924114 
L 172.951482 270.6697 
L 173.276462 271.132607 
L 173.601441 270.950315 
L 174.2514 270.812812 
L 174.57638 270.694284 
L 174.90136 271.159267 
L 175.226339 270.931829 
L 176.526257 270.879959 
L 176.851237 270.482294 
L 177.176216 270.624583 
L 177.501196 270.358377 
L 178.801114 270.940763 
L 179.126093 270.845992 
L 179.451073 270.539269 
L 179.776052 270.829334 
L 180.101032 270.648052 
L 180.750991 271.110858 
L 181.40095 270.612795 
L 181.72593 270.978004 
L 182.050909 270.638808 
L 182.375889 270.583523 
L 182.700868 270.850344 
L 183.025848 270.963632 
L 183.675807 270.870732 
L 184.000786 270.719917 
L 184.650745 270.852715 
L 184.975725 270.603115 
L 185.300704 270.555855 
L 185.625684 270.680226 
L 185.950663 270.633662 
L 186.600622 270.829403 
L 186.925602 270.782348 
L 187.250581 270.884396 
L 187.575561 250.39398 
L 187.900541 269.272322 
L 188.22552 268.973001 
L 188.875479 269.292775 
L 189.200459 268.776039 
L 189.525438 269.353244 
L 189.850418 268.797353 
L 190.500377 269.37489 
L 190.825356 268.940383 
L 191.150336 269.170234 
L 191.800295 269.436078 
L 192.125274 269.651075 
L 192.450254 268.655668 
L 192.775233 269.480042 
L 193.425192 268.898701 
L 193.750172 269.134064 
L 194.075152 268.788731 
L 194.400131 268.991581 
L 194.725111 268.854529 
L 195.05009 269.069941 
L 195.700049 268.678515 
L 196.025029 268.860729 
L 196.350008 268.914303 
L 196.999967 269.182506 
L 197.324947 268.859467 
L 197.649926 269.121121 
L 197.974906 269.010525 
L 198.299885 269.464988 
L 198.624865 269.273942 
L 198.949844 268.608037 
L 199.274824 269.129688 
L 199.599803 269.165763 
L 199.924783 269.000825 
L 200.249762 269.080607 
L 200.574742 268.647239 
L 200.899722 268.986932 
L 201.224701 269.123083 
L 201.87466 269.051587 
L 202.19964 268.450452 
L 202.524619 269.272799 
L 202.849599 269.044298 
L 203.174578 269.50389 
L 203.499558 152.965485 
L 203.824537 277.28691 
L 204.149517 295.303561 
L 204.474496 295.342205 
L 204.799476 294.936819 
L 205.124455 295.435799 
L 205.449435 294.874421 
L 206.749353 295.032405 
L 207.074333 295.16611 
L 207.399312 294.544012 
L 207.724292 295.361182 
L 208.049271 295.213778 
L 208.374251 295.38976 
L 208.69923 295.064374 
L 209.02421 295.488 
L 209.349189 294.968457 
L 209.674169 295.248209 
L 209.999148 295.119467 
L 210.324128 294.679885 
L 210.649107 295.316624 
L 211.624046 295.150541 
L 211.949025 294.895418 
L 212.274005 295.05732 
L 212.598984 294.877858 
L 212.923964 295.034623 
L 213.248943 294.793117 
L 213.573923 295.128398 
L 213.898903 294.848796 
L 214.223882 295.215285 
L 214.548862 295.207277 
L 215.198821 294.544753 
L 215.5238 295.281184 
L 215.84878 295.017952 
L 216.173759 295.28224 
L 216.498739 294.799097 
L 216.823718 295.114149 
L 217.473677 295.294317 
L 217.798657 295.004019 
L 218.123636 295.051498 
L 218.773595 294.78412 
L 219.423554 295.080885 
L 219.748534 295.009399 
L 220.073514 251.409436 
L 220.398493 271.017479 
L 220.723473 270.74615 
L 221.048452 273.034554 
L 221.373432 270.832801 
L 221.698411 271.49645 
L 222.023391 272.544727 
L 222.34837 271.447289 
L 222.67335 273.362506 
L 222.998329 270.95185 
L 223.323309 272.398351 
L 223.648288 269.694071 
L 223.973268 270.50051 
L 224.298247 270.518313 
L 224.623227 270.845383 
L 224.948206 272.177829 
L 225.273186 271.295433 
L 225.923145 270.946217 
L 226.248124 273.407632 
L 226.573104 272.302858 
L 226.898084 273.395099 
L 227.223063 271.23955 
L 227.548043 270.653814 
L 227.873022 272.078478 
L 228.198002 271.638665 
L 228.522981 272.465266 
L 228.847961 271.231038 
L 229.17294 271.792899 
L 229.49792 272.936454 
L 230.147879 272.313234 
L 230.472858 271.538194 
L 230.797838 273.059173 
L 231.122817 271.783135 
L 231.447797 272.452472 
L 231.772776 271.770167 
L 232.097756 269.908351 
L 232.422735 271.631559 
L 232.747715 271.431394 
L 233.072695 270.686842 
L 233.397674 271.597132 
L 233.722654 270.91325 
L 234.047633 270.929446 
L 234.372613 269.646445 
L 235.022572 273.529893 
L 235.672531 270.655585 
L 235.99751 159.064867 
L 236.32249 251.838371 
L 236.647469 270.171694 
L 236.972449 269.986663 
L 237.622408 270.830399 
L 237.947387 269.715134 
L 238.272367 270.391505 
L 238.597346 270.74072 
L 238.922326 270.413446 
L 239.572285 270.305488 
L 240.222244 270.015074 
L 240.547224 270.049011 
L 240.872203 269.831414 
L 241.197183 269.851713 
L 241.522162 270.484461 
L 241.847142 270.047178 
L 242.497101 269.804253 
L 242.82208 269.884305 
L 243.14706 270.243845 
L 243.472039 270.420691 
L 244.121998 268.956521 
L 244.446978 268.969107 
L 244.771957 269.357623 
L 245.096937 269.279762 
L 245.421916 270.105738 
L 245.746896 269.401695 
L 246.071876 267.464702 
L 246.396855 267.689877 
L 246.721835 267.748821 
L 247.046814 267.933446 
L 247.371794 266.988805 
L 247.696773 267.339067 
L 248.346732 267.494802 
L 248.671712 267.947296 
L 248.996691 266.121682 
L 249.321671 267.657233 
L 249.64665 266.430728 
L 249.97163 267.187632 
L 250.296609 267.139245 
L 250.621589 266.261646 
L 250.946568 267.75592 
L 251.271548 266.847358 
L 251.596527 266.733321 
L 251.921507 267.349411 
L 252.246486 265.915905 
L 252.571466 251.004065 
L 252.896446 269.239933 
L 253.221425 268.968641 
L 253.546405 269.11248 
L 253.871384 269.025832 
L 254.521343 269.609284 
L 254.846323 269.368736 
L 255.171302 269.703864 
L 255.496282 269.630169 
L 255.821261 269.387396 
L 256.146241 269.758822 
L 256.47122 269.626136 
L 256.7962 269.30196 
L 257.121179 269.287234 
L 257.446159 269.100484 
L 257.771138 269.690483 
L 258.096118 267.913197 
L 258.421097 267.372401 
L 258.746077 267.281089 
L 259.071057 266.846094 
L 259.396036 267.013656 
L 259.721016 266.94681 
L 260.045995 266.462231 
L 260.370975 267.144659 
L 260.695954 268.495837 
L 261.020934 269.225572 
L 261.345913 269.324963 
L 261.670893 269.650568 
L 261.995872 269.538228 
L 262.320852 269.284122 
L 262.645831 269.820799 
L 262.970811 269.317345 
L 263.62077 268.990412 
L 263.945749 269.610913 
L 264.595708 269.75424 
L 264.920688 270.081954 
L 266.220606 269.977499 
L 266.545586 270.129873 
L 266.870565 270.138989 
L 267.195545 269.152804 
L 267.520524 269.783213 
L 268.170483 269.637945 
L 268.495463 154.496162 
L 268.820442 251.398557 
L 269.145422 269.413545 
L 269.795381 269.479161 
L 270.12036 270.079482 
L 270.44534 269.364714 
L 270.770319 269.784984 
L 272.070238 269.356552 
L 272.395217 269.55973 
L 272.720197 269.53638 
L 273.045176 269.758445 
L 273.370156 269.483205 
L 273.695135 269.718747 
L 274.020115 269.380158 
L 274.345094 269.743235 
L 274.670074 269.586632 
L 274.995053 269.767175 
L 275.320033 269.085577 
L 275.645012 269.75211 
L 276.294971 269.723018 
L 276.619951 269.617308 
L 276.94493 269.390833 
L 277.594889 269.502225 
L 277.919869 269.571536 
L 278.569828 269.414055 
L 278.894808 269.722821 
L 279.544767 269.384761 
L 279.869746 269.44475 
L 280.194726 268.964022 
L 280.519705 269.280887 
L 280.844685 269.038491 
L 281.494644 269.454531 
L 281.819623 269.27825 
L 282.144603 269.479128 
L 282.469582 269.287186 
L 282.794562 269.226328 
L 283.119541 269.038452 
L 283.444521 268.997765 
L 283.7695 268.655188 
L 284.419459 269.718063 
L 284.744439 269.264656 
L 285.069419 252.672472 
L 285.394398 270.610815 
L 285.719378 270.613105 
L 286.044357 270.440254 
L 286.369337 270.635709 
L 286.694316 270.308592 
L 287.344275 270.889119 
L 287.994234 271.016733 
L 288.644193 270.77664 
L 288.969173 270.744655 
L 289.294152 271.006702 
L 289.619132 271.084682 
L 289.944111 270.475006 
L 290.269091 270.749136 
L 290.59407 270.657388 
L 290.91905 270.925523 
L 291.244029 270.587511 
L 291.569009 270.704163 
L 291.893989 270.567179 
L 292.218968 270.86491 
L 292.868927 270.554116 
L 293.518886 270.952265 
L 293.843866 270.919219 
L 294.493825 271.042195 
L 294.818804 270.45227 
L 295.143784 270.714266 
L 296.118722 270.881585 
L 296.443702 270.622156 
L 296.768681 271.048085 
L 297.093661 270.788278 
L 297.41864 271.037195 
L 297.74362 271.033719 
L 298.0686 270.66638 
L 298.393579 270.877975 
L 298.718559 270.916699 
L 299.043538 270.705638 
L 299.368518 271.069861 
L 299.693497 270.858756 
L 300.343456 271.064888 
L 300.668436 270.90224 
L 300.993415 156.681382 
L 301.318395 252.834662 
L 301.643374 270.608914 
L 301.968354 270.849104 
L 302.618313 270.561285 
L 302.943292 270.549046 
L 303.268272 270.974034 
L 303.918231 271.214278 
L 304.56819 270.644329 
L 304.89317 271.232416 
L 305.218149 270.813476 
L 305.868108 271.008521 
L 306.193088 270.81656 
L 306.843047 270.926065 
L 307.493006 270.856247 
L 307.817985 270.452445 
L 308.142965 270.796662 
L 308.792924 271.145312 
L 309.117903 271.061336 
L 309.442883 270.695221 
L 309.767862 270.970742 
L 310.417821 270.581498 
L 310.742801 270.840725 
L 311.067781 270.569901 
L 311.39276 270.506171 
L 312.367699 270.805626 
L 312.692678 270.408779 
L 313.017658 270.69922 
L 313.342637 270.519577 
L 313.667617 270.733041 
L 313.992596 270.446185 
L 314.317576 270.336673 
L 314.642555 270.698387 
L 314.967535 270.864119 
L 315.292514 270.763506 
L 315.617494 270.409738 
L 315.942473 270.301637 
L 316.592432 270.860905 
L 316.917412 270.295073 
L 317.242391 270.494915 
L 317.567371 252.554637 
L 317.892351 270.622694 
L 318.21733 271.05389 
L 318.54231 271.036462 
L 319.192269 270.664476 
L 319.517248 270.970606 
L 320.167207 270.530354 
L 320.492187 271.037516 
L 320.817166 270.418839 
L 321.792105 271.169576 
L 322.117084 270.77813 
L 322.442064 271.060334 
L 322.767043 270.905586 
L 323.417002 271.045305 
L 323.741982 270.747175 
L 324.066962 270.181465 
L 324.391941 270.420367 
L 324.716921 270.857188 
L 325.0419 270.768927 
L 326.016839 270.822093 
L 326.341818 270.729203 
L 326.666798 270.830123 
L 327.316757 270.41698 
L 327.641736 270.789209 
L 327.966716 270.666194 
L 328.291695 270.677971 
L 328.616675 270.837093 
L 328.941654 270.439697 
L 329.266634 270.958872 
L 329.591613 270.913085 
L 329.916593 270.750168 
L 330.241572 270.93825 
L 331.541491 270.777467 
L 332.19145 270.104797 
L 332.516429 270.641426 
L 332.841409 270.444372 
L 333.166388 270.910803 
L 333.491368 156.060918 
L 333.816347 251.799273 
L 334.141327 269.885998 
L 334.466306 270.034647 
L 334.791286 269.649832 
L 335.766224 270.378876 
L 336.091204 270.169554 
L 336.741163 270.405231 
L 337.066143 269.852456 
L 337.716102 270.076726 
L 338.041081 270.129686 
L 338.366061 270.059352 
L 338.69104 269.671192 
L 339.01602 270.137866 
L 339.340999 270.341429 
L 339.665979 270.412671 
L 339.990958 270.052498 
L 340.315938 270.196579 
L 340.640917 270.042906 
L 340.965897 270.252838 
L 341.290876 270.056268 
L 341.615856 269.583352 
L 341.940835 269.466074 
L 342.265815 270.465491 
L 342.590794 270.093145 
L 342.915774 270.431665 
L 343.240753 270.450572 
L 343.890713 269.930254 
L 344.215692 270.378188 
L 344.540672 270.257646 
L 344.865651 270.302719 
L 345.190631 269.841449 
L 345.51561 270.318417 
L 345.84059 270.221567 
L 346.165569 269.977087 
L 346.490549 270.210974 
L 346.815528 269.940386 
L 347.140508 269.93326 
L 347.465487 270.227066 
L 348.115446 270.389987 
L 348.440426 270.169439 
L 348.765405 270.735285 
L 349.090385 270.420174 
L 349.415364 270.523491 
L 349.740344 270.50576 
L 350.065324 250.596638 
L 350.390303 269.004769 
L 350.715283 268.303504 
L 351.040262 268.819407 
L 351.365242 268.745744 
L 351.690221 268.472452 
L 352.015201 268.70183 
L 352.66516 268.520744 
L 352.990139 268.673584 
L 353.640098 268.401115 
L 353.965078 268.667612 
L 354.290057 268.501054 
L 354.615037 268.748103 
L 354.940016 268.058745 
L 355.264996 268.622562 
L 355.589975 268.411654 
L 355.914955 268.563864 
L 356.239934 269.018593 
L 356.564914 268.405622 
L 356.889894 268.50618 
L 357.214873 268.265612 
L 357.539853 268.535205 
L 358.189812 268.586426 
L 358.514791 268.91661 
L 358.839771 268.615904 
L 359.16475 268.682706 
L 359.48973 268.544122 
L 359.814709 268.132739 
L 360.139689 268.672283 
L 360.789648 268.468238 
L 361.114627 268.205903 
L 362.414545 268.351258 
L 362.739525 268.618682 
L 363.064505 268.529292 
L 363.389484 268.812567 
L 363.714464 268.638149 
L 364.039443 268.837843 
L 364.364423 268.8741 
L 364.689402 268.201237 
L 365.014382 268.618253 
L 365.339361 268.583191 
L 365.664341 268.900616 
L 365.98932 151.840369 
L 366.3143 252.838241 
L 366.639279 271.133013 
L 366.964259 270.711654 
L 367.289238 271.102696 
L 367.614218 271.12613 
L 367.939197 270.917675 
L 368.589156 271.107653 
L 369.564095 270.98729 
L 369.889075 270.846586 
L 370.214054 271.318552 
L 370.539034 271.279623 
L 370.864013 270.987008 
L 371.188993 271.06656 
L 371.513972 271.028293 
L 371.838952 271.197031 
L 372.163931 270.799316 
L 372.488911 270.999518 
L 372.81389 270.699579 
L 373.463849 271.125701 
L 374.113808 270.983254 
L 374.438788 270.610321 
L 374.763767 271.244982 
L 375.088747 270.927928 
L 375.413726 271.124003 
L 375.738706 271.009746 
L 376.388665 270.589799 
L 377.363604 270.693768 
L 377.688583 270.709132 
L 378.013563 271.166193 
L 378.338542 270.625136 
L 378.663522 270.599689 
L 378.988501 270.822284 
L 379.313481 270.535394 
L 379.63846 270.804214 
L 379.96344 270.699556 
L 380.288419 270.720607 
L 380.613399 270.892723 
L 381.263358 270.504099 
L 381.588337 270.794782 
L 381.913317 270.7597 
L 382.238296 270.912616 
L 382.563276 250.831013 
L 382.888256 269.156462 
L 383.213235 269.422642 
L 383.863194 269.122751 
L 384.188174 269.060473 
L 384.838133 269.397781 
L 385.163112 269.511903 
L 385.488092 269.330703 
L 385.813071 269.297387 
L 386.138051 269.688587 
L 386.46303 269.332237 
L 386.78801 269.216508 
L 387.112989 269.24547 
L 387.437969 268.79463 
L 387.762948 269.358063 
L 388.412907 269.327681 
L 388.737887 269.649713 
L 389.062867 268.776764 
L 389.387846 269.483728 
L 389.712826 269.031171 
L 390.037805 269.088386 
L 390.362785 269.333997 
L 390.687764 268.951915 
L 391.012744 269.030152 
L 391.337723 268.683593 
L 391.662703 269.017587 
L 391.987682 268.9268 
L 392.312662 270.227007 
L 392.637641 270.013122 
L 393.2876 270.251559 
L 393.937559 269.68811 
L 394.262539 270.066972 
L 394.587518 269.978019 
L 394.912498 270.119043 
L 395.237477 269.855507 
L 395.562457 270.184696 
L 395.887437 270.292553 
L 396.537396 269.96397 
L 396.862375 270.016733 
L 397.187355 269.898835 
L 397.512334 270.287592 
L 397.837314 270.030332 
L 398.162293 270.212541 
L 398.487273 155.33933 
L 398.487273 155.33933 
" style="fill:none;stroke:#1f77b4;stroke-linecap:square;stroke-width:1.5;"/>
   </g>
   <g id="patch_3">
    <path d="M 57.6 307.584 
L 57.6 41.472 
" style="fill:none;stroke:#000000;stroke-linecap:square;stroke-linejoin:miter;stroke-width:0.8;"/>
   </g>
   <g id="patch_4">
    <path d="M 414.72 307.584 
L 414.72 41.472 
" style="fill:none;stroke:#000000;stroke-linecap:square;stroke-linejoin:miter;stroke-width:0.8;"/>
   </g>
   <g id="patch_5">
    <path d="M 57.6 307.584 
L 414.72 307.584 
" style="fill:none;stroke:#000000;stroke-linecap:square;stroke-linejoin:miter;stroke-width:0.8;"/>
   </g>
   <g id="patch_6">
    <path d="M 57.6 41.472 
L 414.72 41.472 
" style="fill:none;stroke:#000000;stroke-linecap:square;stroke-linejoin:miter;stroke-width:0.8;"/>
   </g>
   <g id="text_14">
    <!-- Time/trajectory [s] -->
    <defs>
     <path d="M -0.296875 72.90625 
L 61.375 72.90625 
L 61.375 64.59375 
L 35.5 64.59375 
L 35.5 0 
L 25.59375 0 
L 25.59375 64.59375 
L -0.296875 64.59375 
z
" id="DejaVuSans-84"/>
     <path d="M 9.421875 54.6875 
L 18.40625 54.6875 
L 18.40625 0 
L 9.421875 0 
z
M 9.421875 75.984375 
L 18.40625 75.984375 
L 18.40625 64.59375 
L 9.421875 64.59375 
z
" id="DejaVuSans-105"/>
     <path d="M 52 44.1875 
Q 55.375 50.25 60.0625 53.125 
Q 64.75 56 71.09375 56 
Q 79.640625 56 84.28125 50.015625 
Q 88.921875 44.046875 88.921875 33.015625 
L 88.921875 0 
L 79.890625 0 
L 79.890625 32.71875 
Q 79.890625 40.578125 77.09375 44.375 
Q 74.3125 48.1875 68.609375 48.1875 
Q 61.625 48.1875 57.5625 43.546875 
Q 53.515625 38.921875 53.515625 30.90625 
L 53.515625 0 
L 44.484375 0 
L 44.484375 32.71875 
Q 44.484375 40.625 41.703125 44.40625 
Q 38.921875 48.1875 33.109375 48.1875 
Q 26.21875 48.1875 22.15625 43.53125 
Q 18.109375 38.875 18.109375 30.90625 
L 18.109375 0 
L 9.078125 0 
L 9.078125 54.6875 
L 18.109375 54.6875 
L 18.109375 46.1875 
Q 21.1875 51.21875 25.484375 53.609375 
Q 29.78125 56 35.6875 56 
Q 41.65625 56 45.828125 52.96875 
Q 50 49.953125 52 44.1875 
z
" id="DejaVuSans-109"/>
     <path d="M 56.203125 29.59375 
L 56.203125 25.203125 
L 14.890625 25.203125 
Q 15.484375 15.921875 20.484375 11.0625 
Q 25.484375 6.203125 34.421875 6.203125 
Q 39.59375 6.203125 44.453125 7.46875 
Q 49.3125 8.734375 54.109375 11.28125 
L 54.109375 2.78125 
Q 49.265625 0.734375 44.1875 -0.34375 
Q 39.109375 -1.421875 33.890625 -1.421875 
Q 20.796875 -1.421875 13.15625 6.1875 
Q 5.515625 13.8125 5.515625 26.8125 
Q 5.515625 40.234375 12.765625 48.109375 
Q 20.015625 56 32.328125 56 
Q 43.359375 56 49.78125 48.890625 
Q 56.203125 41.796875 56.203125 29.59375 
z
M 47.21875 32.234375 
Q 47.125 39.59375 43.09375 43.984375 
Q 39.0625 48.390625 32.421875 48.390625 
Q 24.90625 48.390625 20.390625 44.140625 
Q 15.875 39.890625 15.1875 32.171875 
z
" id="DejaVuSans-101"/>
     <path d="M 25.390625 72.90625 
L 33.6875 72.90625 
L 8.296875 -9.28125 
L 0 -9.28125 
z
" id="DejaVuSans-47"/>
     <path d="M 18.3125 70.21875 
L 18.3125 54.6875 
L 36.8125 54.6875 
L 36.8125 47.703125 
L 18.3125 47.703125 
L 18.3125 18.015625 
Q 18.3125 11.328125 20.140625 9.421875 
Q 21.96875 7.515625 27.59375 7.515625 
L 36.8125 7.515625 
L 36.8125 0 
L 27.59375 0 
Q 17.1875 0 13.234375 3.875 
Q 9.28125 7.765625 9.28125 18.015625 
L 9.28125 47.703125 
L 2.6875 47.703125 
L 2.6875 54.6875 
L 9.28125 54.6875 
L 9.28125 70.21875 
z
" id="DejaVuSans-116"/>
     <path d="M 41.109375 46.296875 
Q 39.59375 47.171875 37.8125 47.578125 
Q 36.03125 48 33.890625 48 
Q 26.265625 48 22.1875 43.046875 
Q 18.109375 38.09375 18.109375 28.8125 
L 18.109375 0 
L 9.078125 0 
L 9.078125 54.6875 
L 18.109375 54.6875 
L 18.109375 46.1875 
Q 20.953125 51.171875 25.484375 53.578125 
Q 30.03125 56 36.53125 56 
Q 37.453125 56 38.578125 55.875 
Q 39.703125 55.765625 41.0625 55.515625 
z
" id="DejaVuSans-114"/>
     <path d="M 34.28125 27.484375 
Q 23.390625 27.484375 19.1875 25 
Q 14.984375 22.515625 14.984375 16.5 
Q 14.984375 11.71875 18.140625 8.90625 
Q 21.296875 6.109375 26.703125 6.109375 
Q 34.1875 6.109375 38.703125 11.40625 
Q 43.21875 16.703125 43.21875 25.484375 
L 43.21875 27.484375 
z
M 52.203125 31.203125 
L 52.203125 0 
L 43.21875 0 
L 43.21875 8.296875 
Q 40.140625 3.328125 35.546875 0.953125 
Q 30.953125 -1.421875 24.3125 -1.421875 
Q 15.921875 -1.421875 10.953125 3.296875 
Q 6 8.015625 6 15.921875 
Q 6 25.140625 12.171875 29.828125 
Q 18.359375 34.515625 30.609375 34.515625 
L 43.21875 34.515625 
L 43.21875 35.40625 
Q 43.21875 41.609375 39.140625 45 
Q 35.0625 48.390625 27.6875 48.390625 
Q 23 48.390625 18.546875 47.265625 
Q 14.109375 46.140625 10.015625 43.890625 
L 10.015625 52.203125 
Q 14.9375 54.109375 19.578125 55.046875 
Q 24.21875 56 28.609375 56 
Q 40.484375 56 46.34375 49.84375 
Q 52.203125 43.703125 52.203125 31.203125 
z
" id="DejaVuSans-97"/>
     <path d="M 9.421875 54.6875 
L 18.40625 54.6875 
L 18.40625 -0.984375 
Q 18.40625 -11.421875 14.421875 -16.109375 
Q 10.453125 -20.796875 1.609375 -20.796875 
L -1.8125 -20.796875 
L -1.8125 -13.1875 
L 0.59375 -13.1875 
Q 5.71875 -13.1875 7.5625 -10.8125 
Q 9.421875 -8.453125 9.421875 -0.984375 
z
M 9.421875 75.984375 
L 18.40625 75.984375 
L 18.40625 64.59375 
L 9.421875 64.59375 
z
" id="DejaVuSans-106"/>
     <path d="M 48.78125 52.59375 
L 48.78125 44.1875 
Q 44.96875 46.296875 41.140625 47.34375 
Q 37.3125 48.390625 33.40625 48.390625 
Q 24.65625 48.390625 19.8125 42.84375 
Q 14.984375 37.3125 14.984375 27.296875 
Q 14.984375 17.28125 19.8125 11.734375 
Q 24.65625 6.203125 33.40625 6.203125 
Q 37.3125 6.203125 41.140625 7.25 
Q 44.96875 8.296875 48.78125 10.40625 
L 48.78125 2.09375 
Q 45.015625 0.34375 40.984375 -0.53125 
Q 36.96875 -1.421875 32.421875 -1.421875 
Q 20.0625 -1.421875 12.78125 6.34375 
Q 5.515625 14.109375 5.515625 27.296875 
Q 5.515625 40.671875 12.859375 48.328125 
Q 20.21875 56 33.015625 56 
Q 37.15625 56 41.109375 55.140625 
Q 45.0625 54.296875 48.78125 52.59375 
z
" id="DejaVuSans-99"/>
     <path d="M 30.609375 48.390625 
Q 23.390625 48.390625 19.1875 42.75 
Q 14.984375 37.109375 14.984375 27.296875 
Q 14.984375 17.484375 19.15625 11.84375 
Q 23.34375 6.203125 30.609375 6.203125 
Q 37.796875 6.203125 41.984375 11.859375 
Q 46.1875 17.53125 46.1875 27.296875 
Q 46.1875 37.015625 41.984375 42.703125 
Q 37.796875 48.390625 30.609375 48.390625 
z
M 30.609375 56 
Q 42.328125 56 49.015625 48.375 
Q 55.71875 40.765625 55.71875 27.296875 
Q 55.71875 13.875 49.015625 6.21875 
Q 42.328125 -1.421875 30.609375 -1.421875 
Q 18.84375 -1.421875 12.171875 6.21875 
Q 5.515625 13.875 5.515625 27.296875 
Q 5.515625 40.765625 12.171875 48.375 
Q 18.84375 56 30.609375 56 
z
" id="DejaVuSans-111"/>
     <path d="M 32.171875 -5.078125 
Q 28.375 -14.84375 24.75 -17.8125 
Q 21.140625 -20.796875 15.09375 -20.796875 
L 7.90625 -20.796875 
L 7.90625 -13.28125 
L 13.1875 -13.28125 
Q 16.890625 -13.28125 18.9375 -11.515625 
Q 21 -9.765625 23.484375 -3.21875 
L 25.09375 0.875 
L 2.984375 54.6875 
L 12.5 54.6875 
L 29.59375 11.921875 
L 46.6875 54.6875 
L 56.203125 54.6875 
z
" id="DejaVuSans-121"/>
     <path id="DejaVuSans-32"/>
     <path d="M 8.59375 75.984375 
L 29.296875 75.984375 
L 29.296875 69 
L 17.578125 69 
L 17.578125 -6.203125 
L 29.296875 -6.203125 
L 29.296875 -13.1875 
L 8.59375 -13.1875 
z
" id="DejaVuSans-91"/>
     <path d="M 44.28125 53.078125 
L 44.28125 44.578125 
Q 40.484375 46.53125 36.375 47.5 
Q 32.28125 48.484375 27.875 48.484375 
Q 21.1875 48.484375 17.84375 46.4375 
Q 14.5 44.390625 14.5 40.28125 
Q 14.5 37.15625 16.890625 35.375 
Q 19.28125 33.59375 26.515625 31.984375 
L 29.59375 31.296875 
Q 39.15625 29.25 43.1875 25.515625 
Q 47.21875 21.78125 47.21875 15.09375 
Q 47.21875 7.46875 41.1875 3.015625 
Q 35.15625 -1.421875 24.609375 -1.421875 
Q 20.21875 -1.421875 15.453125 -0.5625 
Q 10.6875 0.296875 5.421875 2 
L 5.421875 11.28125 
Q 10.40625 8.6875 15.234375 7.390625 
Q 20.0625 6.109375 24.8125 6.109375 
Q 31.15625 6.109375 34.5625 8.28125 
Q 37.984375 10.453125 37.984375 14.40625 
Q 37.984375 18.0625 35.515625 20.015625 
Q 33.0625 21.96875 24.703125 23.78125 
L 21.578125 24.515625 
Q 13.234375 26.265625 9.515625 29.90625 
Q 5.8125 33.546875 5.8125 39.890625 
Q 5.8125 47.609375 11.28125 51.796875 
Q 16.75 56 26.8125 56 
Q 31.78125 56 36.171875 55.265625 
Q 40.578125 54.546875 44.28125 53.078125 
z
" id="DejaVuSans-115"/>
     <path d="M 30.421875 75.984375 
L 30.421875 -13.1875 
L 9.71875 -13.1875 
L 9.71875 -6.203125 
L 21.390625 -6.203125 
L 21.390625 69 
L 9.71875 69 
L 9.71875 75.984375 
z
" id="DejaVuSans-93"/>
    </defs>
    <g transform="translate(180.549375 35.472)scale(0.12 -0.12)">
     <use xlink:href="#DejaVuSans-84"/>
     <use x="57.958984" xlink:href="#DejaVuSans-105"/>
     <use x="85.742188" xlink:href="#DejaVuSans-109"/>
     <use x="183.154297" xlink:href="#DejaVuSans-101"/>
     <use x="244.677734" xlink:href="#DejaVuSans-47"/>
     <use x="278.369141" xlink:href="#DejaVuSans-116"/>
     <use x="317.578125" xlink:href="#DejaVuSans-114"/>
     <use x="358.691406" xlink:href="#DejaVuSans-97"/>
     <use x="419.970703" xlink:href="#DejaVuSans-106"/>
     <use x="447.753906" xlink:href="#DejaVuSans-101"/>
     <use x="509.277344" xlink:href="#DejaVuSans-99"/>
     <use x="564.257812" xlink:href="#DejaVuSans-116"/>
     <use x="603.466797" xlink:href="#DejaVuSans-111"/>
     <use x="664.648438" xlink:href="#DejaVuSans-114"/>
     <use x="705.761719" xlink:href="#DejaVuSans-121"/>
     <use x="764.941406" xlink:href="#DejaVuSans-32"/>
     <use x="796.728516" xlink:href="#DejaVuSans-91"/>
     <use x="835.742188" xlink:href="#DejaVuSans-115"/>
     <use x="887.841797" xlink:href="#DejaVuSans-93"/>
    </g>
   </g>
  </g>
 </g>
 <defs>
  <clipPath id="p9f5117bce5">
   <rect height="266.112" width="357.12" x="57.6" y="41.472"/>
  </clipPath>
 </defs>
</svg>
