<?xml version="1.0" encoding="utf-8" standalone="no"?>
<!DOCTYPE svg PUBLIC "-//W3C//DTD SVG 1.1//EN"
  "http://www.w3.org/Graphics/SVG/1.1/DTD/svg11.dtd">
<!-- Created with matplotlib (https://matplotlib.org/) -->
<svg height="345.6pt" version="1.1" viewBox="0 0 460.8 345.6" width="460.8pt" xmlns="http://www.w3.org/2000/svg" xmlns:xlink="http://www.w3.org/1999/xlink">
 <defs>
  <style type="text/css">
*{stroke-linecap:butt;stroke-linejoin:round;}
  </style>
 </defs>
 <g id="figure_1">
  <g id="patch_1">
   <path d="M 0 345.6 
L 460.8 345.6 
L 460.8 0 
L 0 0 
z
" style="fill:#ffffff;"/>
  </g>
  <g id="axes_1">
   <g id="patch_2">
    <path d="M 57.6 307.584 
L 414.72 307.584 
L 414.72 41.472 
L 57.6 41.472 
z
" style="fill:#ffffff;"/>
   </g>
   <g id="matplotlib.axis_1">
    <g id="xtick_1">
     <g id="line2d_1">
      <defs>
       <path d="M 0 0 
L 0 3.5 
" id="m30dd25099b" style="stroke:#000000;stroke-width:0.8;"/>
      </defs>
      <g>
       <use style="stroke:#000000;stroke-width:0.8;" x="73.670319" xlink:href="#m30dd25099b" y="307.584"/>
      </g>
     </g>
     <g id="text_1">
      <!-- 0 -->
      <defs>
       <path d="M 31.78125 66.40625 
Q 24.171875 66.40625 20.328125 58.90625 
Q 16.5 51.421875 16.5 36.375 
Q 16.5 21.390625 20.328125 13.890625 
Q 24.171875 6.390625 31.78125 6.390625 
Q 39.453125 6.390625 43.28125 13.890625 
Q 47.125 21.390625 47.125 36.375 
Q 47.125 51.421875 43.28125 58.90625 
Q 39.453125 66.40625 31.78125 66.40625 
z
M 31.78125 74.21875 
Q 44.046875 74.21875 50.515625 64.515625 
Q 56.984375 54.828125 56.984375 36.375 
Q 56.984375 17.96875 50.515625 8.265625 
Q 44.046875 -1.421875 31.78125 -1.421875 
Q 19.53125 -1.421875 13.0625 8.265625 
Q 6.59375 17.96875 6.59375 36.375 
Q 6.59375 54.828125 13.0625 64.515625 
Q 19.53125 74.21875 31.78125 74.21875 
z
" id="DejaVuSans-48"/>
      </defs>
      <g transform="translate(70.489069 322.182437)scale(0.1 -0.1)">
       <use xlink:href="#DejaVuSans-48"/>
      </g>
     </g>
    </g>
    <g id="xtick_2">
     <g id="line2d_2">
      <g>
       <use style="stroke:#000000;stroke-width:0.8;" x="114.272438" xlink:href="#m30dd25099b" y="307.584"/>
      </g>
     </g>
     <g id="text_2">
      <!-- 250 -->
      <defs>
       <path d="M 19.1875 8.296875 
L 53.609375 8.296875 
L 53.609375 0 
L 7.328125 0 
L 7.328125 8.296875 
Q 12.9375 14.109375 22.625 23.890625 
Q 32.328125 33.6875 34.8125 36.53125 
Q 39.546875 41.84375 41.421875 45.53125 
Q 43.3125 49.21875 43.3125 52.78125 
Q 43.3125 58.59375 39.234375 62.25 
Q 35.15625 65.921875 28.609375 65.921875 
Q 23.96875 65.921875 18.8125 64.3125 
Q 13.671875 62.703125 7.8125 59.421875 
L 7.8125 69.390625 
Q 13.765625 71.78125 18.9375 73 
Q 24.125 74.21875 28.421875 74.21875 
Q 39.75 74.21875 46.484375 68.546875 
Q 53.21875 62.890625 53.21875 53.421875 
Q 53.21875 48.921875 51.53125 44.890625 
Q 49.859375 40.875 45.40625 35.40625 
Q 44.1875 33.984375 37.640625 27.21875 
Q 31.109375 20.453125 19.1875 8.296875 
z
" id="DejaVuSans-50"/>
       <path d="M 10.796875 72.90625 
L 49.515625 72.90625 
L 49.515625 64.59375 
L 19.828125 64.59375 
L 19.828125 46.734375 
Q 21.96875 47.46875 24.109375 47.828125 
Q 26.265625 48.1875 28.421875 48.1875 
Q 40.625 48.1875 47.75 41.5 
Q 54.890625 34.8125 54.890625 23.390625 
Q 54.890625 11.625 47.5625 5.09375 
Q 40.234375 -1.421875 26.90625 -1.421875 
Q 22.3125 -1.421875 17.546875 -0.640625 
Q 12.796875 0.140625 7.71875 1.703125 
L 7.71875 11.625 
Q 12.109375 9.234375 16.796875 8.0625 
Q 21.484375 6.890625 26.703125 6.890625 
Q 35.15625 6.890625 40.078125 11.328125 
Q 45.015625 15.765625 45.015625 23.390625 
Q 45.015625 31 40.078125 35.4375 
Q 35.15625 39.890625 26.703125 39.890625 
Q 22.75 39.890625 18.8125 39.015625 
Q 14.890625 38.140625 10.796875 36.28125 
z
" id="DejaVuSans-53"/>
      </defs>
      <g transform="translate(104.728688 322.182437)scale(0.1 -0.1)">
       <use xlink:href="#DejaVuSans-50"/>
       <use x="63.623047" xlink:href="#DejaVuSans-53"/>
       <use x="127.246094" xlink:href="#DejaVuSans-48"/>
      </g>
     </g>
    </g>
    <g id="xtick_3">
     <g id="line2d_3">
      <g>
       <use style="stroke:#000000;stroke-width:0.8;" x="154.874557" xlink:href="#m30dd25099b" y="307.584"/>
      </g>
     </g>
     <g id="text_3">
      <!-- 500 -->
      <g transform="translate(145.330807 322.182437)scale(0.1 -0.1)">
       <use xlink:href="#DejaVuSans-53"/>
       <use x="63.623047" xlink:href="#DejaVuSans-48"/>
       <use x="127.246094" xlink:href="#DejaVuSans-48"/>
      </g>
     </g>
    </g>
    <g id="xtick_4">
     <g id="line2d_4">
      <g>
       <use style="stroke:#000000;stroke-width:0.8;" x="195.476677" xlink:href="#m30dd25099b" y="307.584"/>
      </g>
     </g>
     <g id="text_4">
      <!-- 750 -->
      <defs>
       <path d="M 8.203125 72.90625 
L 55.078125 72.90625 
L 55.078125 68.703125 
L 28.609375 0 
L 18.3125 0 
L 43.21875 64.59375 
L 8.203125 64.59375 
z
" id="DejaVuSans-55"/>
      </defs>
      <g transform="translate(185.932927 322.182437)scale(0.1 -0.1)">
       <use xlink:href="#DejaVuSans-55"/>
       <use x="63.623047" xlink:href="#DejaVuSans-53"/>
       <use x="127.246094" xlink:href="#DejaVuSans-48"/>
      </g>
     </g>
    </g>
    <g id="xtick_5">
     <g id="line2d_5">
      <g>
       <use style="stroke:#000000;stroke-width:0.8;" x="236.078796" xlink:href="#m30dd25099b" y="307.584"/>
      </g>
     </g>
     <g id="text_5">
      <!-- 1000 -->
      <defs>
       <path d="M 12.40625 8.296875 
L 28.515625 8.296875 
L 28.515625 63.921875 
L 10.984375 60.40625 
L 10.984375 69.390625 
L 28.421875 72.90625 
L 38.28125 72.90625 
L 38.28125 8.296875 
L 54.390625 8.296875 
L 54.390625 0 
L 12.40625 0 
z
" id="DejaVuSans-49"/>
      </defs>
      <g transform="translate(223.353796 322.182437)scale(0.1 -0.1)">
       <use xlink:href="#DejaVuSans-49"/>
       <use x="63.623047" xlink:href="#DejaVuSans-48"/>
       <use x="127.246094" xlink:href="#DejaVuSans-48"/>
       <use x="190.869141" xlink:href="#DejaVuSans-48"/>
      </g>
     </g>
    </g>
    <g id="xtick_6">
     <g id="line2d_6">
      <g>
       <use style="stroke:#000000;stroke-width:0.8;" x="276.680915" xlink:href="#m30dd25099b" y="307.584"/>
      </g>
     </g>
     <g id="text_6">
      <!-- 1250 -->
      <g transform="translate(263.955915 322.182437)scale(0.1 -0.1)">
       <use xlink:href="#DejaVuSans-49"/>
       <use x="63.623047" xlink:href="#DejaVuSans-50"/>
       <use x="127.246094" xlink:href="#DejaVuSans-53"/>
       <use x="190.869141" xlink:href="#DejaVuSans-48"/>
      </g>
     </g>
    </g>
    <g id="xtick_7">
     <g id="line2d_7">
      <g>
       <use style="stroke:#000000;stroke-width:0.8;" x="317.283034" xlink:href="#m30dd25099b" y="307.584"/>
      </g>
     </g>
     <g id="text_7">
      <!-- 1500 -->
      <g transform="translate(304.558034 322.182437)scale(0.1 -0.1)">
       <use xlink:href="#DejaVuSans-49"/>
       <use x="63.623047" xlink:href="#DejaVuSans-53"/>
       <use x="127.246094" xlink:href="#DejaVuSans-48"/>
       <use x="190.869141" xlink:href="#DejaVuSans-48"/>
      </g>
     </g>
    </g>
    <g id="xtick_8">
     <g id="line2d_8">
      <g>
       <use style="stroke:#000000;stroke-width:0.8;" x="357.885153" xlink:href="#m30dd25099b" y="307.584"/>
      </g>
     </g>
     <g id="text_8">
      <!-- 1750 -->
      <g transform="translate(345.160153 322.182437)scale(0.1 -0.1)">
       <use xlink:href="#DejaVuSans-49"/>
       <use x="63.623047" xlink:href="#DejaVuSans-55"/>
       <use x="127.246094" xlink:href="#DejaVuSans-53"/>
       <use x="190.869141" xlink:href="#DejaVuSans-48"/>
      </g>
     </g>
    </g>
    <g id="xtick_9">
     <g id="line2d_9">
      <g>
       <use style="stroke:#000000;stroke-width:0.8;" x="398.487273" xlink:href="#m30dd25099b" y="307.584"/>
      </g>
     </g>
     <g id="text_9">
      <!-- 2000 -->
      <g transform="translate(385.762273 322.182437)scale(0.1 -0.1)">
       <use xlink:href="#DejaVuSans-50"/>
       <use x="63.623047" xlink:href="#DejaVuSans-48"/>
       <use x="127.246094" xlink:href="#DejaVuSans-48"/>
       <use x="190.869141" xlink:href="#DejaVuSans-48"/>
      </g>
     </g>
    </g>
   </g>
   <g id="matplotlib.axis_2">
    <g id="ytick_1">
     <g id="line2d_10">
      <defs>
       <path d="M 0 0 
L -3.5 0 
" id="m60da241e51" style="stroke:#000000;stroke-width:0.8;"/>
      </defs>
      <g>
       <use style="stroke:#000000;stroke-width:0.8;" x="57.6" xlink:href="#m60da241e51" y="295.488"/>
      </g>
     </g>
     <g id="text_10">
      <!-- −1.00 -->
      <defs>
       <path d="M 10.59375 35.5 
L 73.1875 35.5 
L 73.1875 27.203125 
L 10.59375 27.203125 
z
" id="DejaVuSans-8722"/>
       <path d="M 10.6875 12.40625 
L 21 12.40625 
L 21 0 
L 10.6875 0 
z
" id="DejaVuSans-46"/>
      </defs>
      <g transform="translate(19.954687 299.287219)scale(0.1 -0.1)">
       <use xlink:href="#DejaVuSans-8722"/>
       <use x="83.789062" xlink:href="#DejaVuSans-49"/>
       <use x="147.412109" xlink:href="#DejaVuSans-46"/>
       <use x="179.199219" xlink:href="#DejaVuSans-48"/>
       <use x="242.822266" xlink:href="#DejaVuSans-48"/>
      </g>
     </g>
    </g>
    <g id="ytick_2">
     <g id="line2d_11">
      <g>
       <use style="stroke:#000000;stroke-width:0.8;" x="57.6" xlink:href="#m60da241e51" y="265.248"/>
      </g>
     </g>
     <g id="text_11">
      <!-- −0.75 -->
      <g transform="translate(19.954687 269.047219)scale(0.1 -0.1)">
       <use xlink:href="#DejaVuSans-8722"/>
       <use x="83.789062" xlink:href="#DejaVuSans-48"/>
       <use x="147.412109" xlink:href="#DejaVuSans-46"/>
       <use x="179.199219" xlink:href="#DejaVuSans-55"/>
       <use x="242.822266" xlink:href="#DejaVuSans-53"/>
      </g>
     </g>
    </g>
    <g id="ytick_3">
     <g id="line2d_12">
      <g>
       <use style="stroke:#000000;stroke-width:0.8;" x="57.6" xlink:href="#m60da241e51" y="235.008"/>
      </g>
     </g>
     <g id="text_12">
      <!-- −0.50 -->
      <g transform="translate(19.954687 238.807219)scale(0.1 -0.1)">
       <use xlink:href="#DejaVuSans-8722"/>
       <use x="83.789062" xlink:href="#DejaVuSans-48"/>
       <use x="147.412109" xlink:href="#DejaVuSans-46"/>
       <use x="179.199219" xlink:href="#DejaVuSans-53"/>
       <use x="242.822266" xlink:href="#DejaVuSans-48"/>
      </g>
     </g>
    </g>
    <g id="ytick_4">
     <g id="line2d_13">
      <g>
       <use style="stroke:#000000;stroke-width:0.8;" x="57.6" xlink:href="#m60da241e51" y="204.768"/>
      </g>
     </g>
     <g id="text_13">
      <!-- −0.25 -->
      <g transform="translate(19.954687 208.567219)scale(0.1 -0.1)">
       <use xlink:href="#DejaVuSans-8722"/>
       <use x="83.789062" xlink:href="#DejaVuSans-48"/>
       <use x="147.412109" xlink:href="#DejaVuSans-46"/>
       <use x="179.199219" xlink:href="#DejaVuSans-50"/>
       <use x="242.822266" xlink:href="#DejaVuSans-53"/>
      </g>
     </g>
    </g>
    <g id="ytick_5">
     <g id="line2d_14">
      <g>
       <use style="stroke:#000000;stroke-width:0.8;" x="57.6" xlink:href="#m60da241e51" y="174.528"/>
      </g>
     </g>
     <g id="text_14">
      <!-- 0.00 -->
      <g transform="translate(28.334375 178.327219)scale(0.1 -0.1)">
       <use xlink:href="#DejaVuSans-48"/>
       <use x="63.623047" xlink:href="#DejaVuSans-46"/>
       <use x="95.410156" xlink:href="#DejaVuSans-48"/>
       <use x="159.033203" xlink:href="#DejaVuSans-48"/>
      </g>
     </g>
    </g>
    <g id="ytick_6">
     <g id="line2d_15">
      <g>
       <use style="stroke:#000000;stroke-width:0.8;" x="57.6" xlink:href="#m60da241e51" y="144.288"/>
      </g>
     </g>
     <g id="text_15">
      <!-- 0.25 -->
      <g transform="translate(28.334375 148.087219)scale(0.1 -0.1)">
       <use xlink:href="#DejaVuSans-48"/>
       <use x="63.623047" xlink:href="#DejaVuSans-46"/>
       <use x="95.410156" xlink:href="#DejaVuSans-50"/>
       <use x="159.033203" xlink:href="#DejaVuSans-53"/>
      </g>
     </g>
    </g>
    <g id="ytick_7">
     <g id="line2d_16">
      <g>
       <use style="stroke:#000000;stroke-width:0.8;" x="57.6" xlink:href="#m60da241e51" y="114.048"/>
      </g>
     </g>
     <g id="text_16">
      <!-- 0.50 -->
      <g transform="translate(28.334375 117.847219)scale(0.1 -0.1)">
       <use xlink:href="#DejaVuSans-48"/>
       <use x="63.623047" xlink:href="#DejaVuSans-46"/>
       <use x="95.410156" xlink:href="#DejaVuSans-53"/>
       <use x="159.033203" xlink:href="#DejaVuSans-48"/>
      </g>
     </g>
    </g>
    <g id="ytick_8">
     <g id="line2d_17">
      <g>
       <use style="stroke:#000000;stroke-width:0.8;" x="57.6" xlink:href="#m60da241e51" y="83.808"/>
      </g>
     </g>
     <g id="text_17">
      <!-- 0.75 -->
      <g transform="translate(28.334375 87.607219)scale(0.1 -0.1)">
       <use xlink:href="#DejaVuSans-48"/>
       <use x="63.623047" xlink:href="#DejaVuSans-46"/>
       <use x="95.410156" xlink:href="#DejaVuSans-55"/>
       <use x="159.033203" xlink:href="#DejaVuSans-53"/>
      </g>
     </g>
    </g>
    <g id="ytick_9">
     <g id="line2d_18">
      <g>
       <use style="stroke:#000000;stroke-width:0.8;" x="57.6" xlink:href="#m60da241e51" y="53.568"/>
      </g>
     </g>
     <g id="text_18">
      <!-- 1.00 -->
      <g transform="translate(28.334375 57.367219)scale(0.1 -0.1)">
       <use xlink:href="#DejaVuSans-49"/>
       <use x="63.623047" xlink:href="#DejaVuSans-46"/>
       <use x="95.410156" xlink:href="#DejaVuSans-48"/>
       <use x="159.033203" xlink:href="#DejaVuSans-48"/>
      </g>
     </g>
    </g>
   </g>
   <g id="line2d_19">
    <path clip-path="url(#p63c8013472)" d="M 74.624665 346.6 
L 74.807178 274.207086 
L 75.131995 210.858282 
L 75.294404 205.297915 
L 75.456812 185.863601 
L 75.619221 180.834036 
L 75.781629 192.110201 
L 75.944037 174.673671 
L 76.106446 176.506868 
L 76.268854 173.1197 
L 76.431263 172.981892 
L 76.593671 177.147003 
L 76.75608 176.656531 
L 76.918488 177.296327 
L 77.080897 179.245336 
L 77.243305 177.566845 
L 77.405714 180.508977 
L 77.730531 166.45602 
L 78.055348 177.043299 
L 78.217756 168.978882 
L 78.380165 181.164479 
L 78.542573 167.07507 
L 78.704982 173.638575 
L 78.86739 173.24129 
L 79.029799 171.092735 
L 79.354615 180.295743 
L 79.517024 175.667139 
L 79.679432 182.188053 
L 79.841841 176.447148 
L 80.004249 180.469265 
L 80.166658 170.850705 
L 80.329066 173.379087 
L 80.653883 169.133351 
L 80.816292 172.172453 
L 80.9787 170.418044 
L 81.141109 171.561258 
L 81.303517 164.154323 
L 81.628334 180.160013 
L 81.790743 172.862064 
L 81.953151 176.142751 
L 82.11556 177.16759 
L 82.277968 179.185688 
L 82.440377 187.632104 
L 82.602785 184.10152 
L 82.765194 173.367579 
L 83.09001 182.811964 
L 83.252419 183.999488 
L 83.414827 167.337707 
L 83.577236 166.917383 
L 83.739644 178.456233 
L 83.902053 181.213358 
L 84.064461 180.893764 
L 84.22687 181.763562 
L 84.389278 178.584161 
L 84.551687 180.801425 
L 84.714095 185.977068 
L 84.876504 171.625308 
L 85.038912 167.281525 
L 85.201321 178.3567 
L 85.363729 179.193651 
L 85.688546 176.080072 
L 85.850955 171.492367 
L 86.013363 183.995829 
L 86.500588 173.590216 
L 86.662997 170.882178 
L 86.825405 176.300269 
L 86.987814 171.350253 
L 87.150222 173.848953 
L 87.312631 183.293233 
L 87.475039 167.507352 
L 87.637448 185.81569 
L 87.799856 177.046945 
L 87.962265 185.773036 
L 88.124673 173.201861 
L 88.44949 180.590922 
L 88.611899 170.52977 
L 88.774307 179.003867 
L 88.936716 172.716275 
L 89.099124 173.40016 
L 89.261533 186.668042 
L 89.423941 169.722205 
L 89.58635 168.189338 
L 89.748758 175.908234 
L 89.911166 176.879936 
L 90.073575 159.417689 
L 90.235983 172.592172 
L 90.5608 168.793219 
L 90.723209 177.553571 
L 90.885617 171.887353 
L 91.048026 178.133212 
L 91.210434 174.056711 
L 91.372843 175.422634 
L 91.535251 174.339893 
L 91.69766 175.647033 
L 91.860068 184.415594 
L 92.022477 172.485639 
L 92.184885 170.420169 
L 92.347294 171.413823 
L 92.509702 171.277355 
L 92.672111 169.434539 
L 92.834519 169.320937 
L 92.996928 174.166423 
L 93.159336 171.662124 
L 93.321745 175.321075 
L 93.484153 165.846795 
L 93.646561 165.3547 
L 93.80897 181.160752 
L 93.971378 161.414627 
L 94.133787 164.619181 
L 94.296195 171.672556 
L 94.458604 171.899438 
L 94.783421 165.428995 
L 94.945829 170.256838 
L 95.108238 167.757569 
L 95.270646 174.043692 
L 95.433055 184.971789 
L 95.595463 180.458259 
L 95.757872 170.055987 
L 95.92028 175.002057 
L 96.082689 173.415025 
L 96.245097 166.412823 
L 96.407506 169.247654 
L 96.569914 168.825296 
L 96.732323 172.182781 
L 96.894731 167.663464 
L 97.057139 179.67411 
L 97.219548 172.785743 
L 97.381956 185.678877 
L 97.544365 158.658585 
L 97.706773 179.434542 
L 97.869182 177.539419 
L 98.03159 164.336865 
L 98.193999 172.688435 
L 98.356407 167.128207 
L 98.518816 169.480999 
L 98.681224 169.967998 
L 98.843633 175.508263 
L 99.006041 172.336832 
L 99.330858 175.600998 
L 99.493267 171.809681 
L 99.655675 173.074992 
L 99.818084 168.431822 
L 99.980492 171.358141 
L 100.142901 169.603658 
L 100.305309 160.577934 
L 100.467717 179.214535 
L 100.630126 177.243837 
L 100.792534 181.177163 
L 100.954943 169.808762 
L 101.117351 172.818994 
L 101.27976 183.235654 
L 101.442168 170.301514 
L 101.604577 170.691229 
L 101.766985 178.284037 
L 101.929394 172.852099 
L 102.091802 178.424406 
L 102.416619 171.693751 
L 102.741436 183.318412 
L 102.903845 175.815684 
L 103.066253 175.953102 
L 103.228662 179.94165 
L 103.553479 165.688884 
L 103.715887 189.567833 
L 103.878296 179.20289 
L 104.040704 176.241111 
L 104.203112 177.243372 
L 104.365521 175.693998 
L 104.527929 172.483915 
L 104.690338 175.873526 
L 104.852746 169.24339 
L 105.015155 171.801883 
L 105.177563 166.314217 
L 105.339972 178.77658 
L 105.50238 178.739482 
L 105.664789 177.339313 
L 105.827197 167.251347 
L 105.989606 169.80752 
L 106.152014 179.665521 
L 236.241204 171.070254 
L 236.566021 165.386626 
L 236.72843 168.463525 
L 236.890838 174.712988 
L 237.053247 172.605238 
L 237.215655 173.253298 
L 237.378064 169.053127 
L 237.702881 175.046383 
L 237.865289 170.083293 
L 238.027697 169.536386 
L 238.190106 181.305736 
L 238.514923 167.461108 
L 238.677331 175.13436 
L 238.83974 175.58263 
L 239.002148 167.875834 
L 239.326965 181.438585 
L 239.489374 174.510417 
L 239.651782 180.007593 
L 239.976599 161.66129 
L 240.301416 186.295024 
L 240.463825 167.600789 
L 240.626233 170.98128 
L 240.788642 163.775555 
L 240.95105 177.045002 
L 241.113459 166.242214 
L 241.275867 173.104577 
L 241.438276 172.966194 
L 241.600684 181.293335 
L 241.763092 178.706136 
L 242.087909 168.288418 
L 242.412726 184.819977 
L 242.575135 169.379289 
L 242.737543 172.743536 
L 242.899952 186.897493 
L 243.06236 176.738087 
L 243.224769 180.189611 
L 243.387177 170.341649 
L 243.549586 178.719757 
L 243.874403 180.379195 
L 244.036811 171.329232 
L 244.19922 178.930883 
L 244.524037 161.923404 
L 244.686445 173.129905 
L 244.848854 172.421905 
L 245.011262 176.413355 
L 245.336079 165.603299 
L 245.498487 184.194409 
L 245.660896 171.247483 
L 245.823304 172.825116 
L 245.985713 188.721617 
L 246.148121 160.346964 
L 246.31053 179.326483 
L 246.472938 168.115971 
L 246.635347 172.739147 
L 246.797755 171.692758 
L 246.960164 181.517835 
L 247.284981 171.073864 
L 247.447389 173.988304 
L 247.772206 171.222663 
L 248.097023 182.035202 
L 248.259432 175.133364 
L 248.42184 173.864279 
L 248.584248 177.148978 
L 248.909065 166.566415 
L 249.071474 190.455352 
L 249.233882 170.405338 
L 249.396291 180.80358 
L 249.558699 179.342773 
L 249.721108 170.227039 
L 249.883516 174.605197 
L 250.045925 172.258201 
L 250.208333 174.386231 
L 250.370742 182.558285 
L 250.53315 173.754809 
L 250.695559 178.340713 
L 250.857967 175.557332 
L 251.020376 177.646114 
L 251.182784 166.089791 
L 251.345193 185.585066 
L 251.507601 169.665804 
L 251.67001 181.042069 
L 251.832418 171.884356 
L 251.994827 174.585035 
L 252.157235 187.373932 
L 252.319643 175.088263 
L 252.482052 172.622711 
L 252.64446 185.462907 
L 252.969277 169.813095 
L 253.131686 169.070806 
L 253.294094 175.270688 
L 253.456503 175.484493 
L 253.78132 174.839149 
L 253.943728 170.47023 
L 254.268545 177.485062 
L 254.593362 166.774348 
L 254.755771 171.371814 
L 255.080588 167.045289 
L 255.242996 169.436374 
L 255.405405 179.638676 
L 255.567813 180.625312 
L 255.730221 166.085452 
L 256.055038 177.530397 
L 256.217447 175.599264 
L 256.379855 179.808574 
L 256.704672 170.980301 
L 256.867081 174.9503 
L 257.029489 183.191479 
L 257.191898 168.059446 
L 257.354306 168.981994 
L 257.516715 173.80315 
L 257.679123 173.00394 
L 257.841532 172.978459 
L 258.00394 179.622069 
L 258.166349 171.186071 
L 258.653574 178.872834 
L 258.815983 170.178124 
L 258.978391 174.581029 
L 259.140799 174.327667 
L 259.303208 167.817123 
L 259.465616 177.717267 
L 259.628025 174.470406 
L 259.952842 183.311812 
L 260.11525 172.562518 
L 260.277659 176.730807 
L 260.440067 176.550368 
L 260.602476 172.099748 
L 260.764884 181.177444 
L 260.927293 174.136233 
L 261.25211 180.809598 
L 261.414518 172.297027 
L 261.576927 171.270374 
L 261.739335 171.618038 
L 261.901744 167.979958 
L 262.226561 177.382207 
L 262.388969 176.114662 
L 262.551378 185.071536 
L 262.713786 176.226574 
L 262.876194 176.572616 
L 263.038603 180.908234 
L 263.201011 179.182621 
L 263.36342 182.547452 
L 263.525828 173.643744 
L 263.688237 177.015925 
L 263.850645 175.501484 
L 264.013054 176.958168 
L 264.175462 190.00002 
L 264.337871 169.461208 
L 264.500279 183.685676 
L 264.662688 181.438734 
L 264.825096 181.132436 
L 264.987505 190.223187 
L 265.312322 170.327711 
L 265.47473 171.565556 
L 265.637139 174.945735 
L 265.799547 172.331224 
L 265.961956 164.467583 
L 266.124364 177.294098 
L 266.286772 162.0574 
L 266.449181 176.654429 
L 266.611589 167.934542 
L 266.773998 184.779668 
L 266.936406 169.915455 
L 267.098815 179.403856 
L 267.423632 171.55273 
L 267.58604 176.026245 
L 267.748449 169.960316 
L 267.910857 182.640865 
L 268.235674 167.966024 
L 268.560491 170.339078 
L 268.7229 169.691015 
L 268.885308 180.1636 
L 269.047717 164.626593 
L 269.210125 181.436162 
L 269.372534 175.310089 
L 269.534942 178.210802 
L 269.69735 170.581328 
L 269.859759 175.194568 
L 270.022167 174.566388 
L 270.184576 169.876432 
L 270.509393 168.953666 
L 270.671801 185.455299 
L 270.83421 171.693453 
L 270.996618 173.35976 
L 271.159027 181.065466 
L 271.321435 169.604568 
L 271.483844 168.831957 
L 271.646252 179.174472 
L 271.808661 162.478818 
L 271.971069 166.533362 
L 272.133478 159.139808 
L 272.295886 171.939215 
L 272.458295 168.743899 
L 272.783112 176.214828 
L 272.94552 173.905426 
L 273.107929 165.809618 
L 273.270337 170.919337 
L 273.432745 172.431085 
L 273.595154 176.023201 
L 273.757562 175.430406 
L 273.919971 169.262007 
L 274.082379 175.719947 
L 274.244788 174.032718 
L 274.407196 177.248264 
L 274.569605 182.719473 
L 274.732013 170.091848 
L 274.894422 176.107378 
L 275.219239 170.530428 
L 275.544056 177.975389 
L 275.706464 168.347208 
L 275.868873 176.795376 
L 276.031281 178.133358 
L 276.19369 174.84828 
L 276.356098 181.18362 
L 276.518507 166.183685 
L 276.680915 182.383335 
L 276.843323 176.06036 
L 277.005732 175.042962 
L 277.16814 171.799185 
L 277.330549 173.107595 
L 277.492957 181.277903 
L 277.655366 165.182419 
L 277.817774 180.52389 
L 277.980183 171.869079 
L 278.142591 184.471269 
L 278.629817 171.118794 
L 278.792225 180.909946 
L 279.117042 171.04656 
L 279.279451 171.950804 
L 279.441859 179.217148 
L 279.604268 176.878767 
L 279.766676 171.365187 
L 279.929085 189.109858 
L 280.091493 167.883296 
L 280.253901 170.440002 
L 280.41631 176.877603 
L 280.578718 176.721124 
L 280.741127 169.459138 
L 280.903535 180.318017 
L 281.065944 166.303943 
L 281.228352 171.008682 
L 281.390761 169.16859 
L 281.553169 170.425704 
L 281.715578 174.144311 
L 282.040395 183.882708 
L 282.202803 177.268265 
L 282.365212 180.334523 
L 282.52762 167.608347 
L 282.690029 184.107126 
L 283.014846 176.157418 
L 283.177254 183.082243 
L 283.339663 183.547803 
L 283.502071 176.32803 
L 283.66448 174.405571 
L 283.826888 184.431539 
L 284.151705 170.213257 
L 284.314113 169.653662 
L 284.476522 177.838069 
L 284.63893 169.886757 
L 284.801339 169.283461 
L 284.963747 169.497296 
L 285.126156 170.68402 
L 285.288564 160.498842 
L 285.613381 178.642648 
L 285.77579 171.869867 
L 285.938198 176.125192 
L 286.100607 173.850831 
L 286.425424 176.100818 
L 286.587832 183.345047 
L 286.750241 176.018999 
L 286.912649 178.321253 
L 287.075058 178.927795 
L 287.237466 174.951439 
L 287.399874 187.545436 
L 287.724691 168.523801 
L 287.8871 170.040097 
L 288.049508 169.633608 
L 288.211917 172.689253 
L 288.374325 172.35561 
L 288.536734 177.71002 
L 288.699142 167.73953 
L 288.861551 166.144075 
L 289.023959 178.557881 
L 289.186368 171.136881 
L 289.511185 175.871759 
L 289.673593 182.641258 
L 289.99841 171.838595 
L 290.160819 170.540175 
L 290.323227 172.791181 
L 290.485636 177.407167 
L 290.648044 175.159094 
L 290.810452 169.147823 
L 291.135269 185.000954 
L 291.297678 173.765601 
L 291.622495 169.147302 
L 291.784903 176.109983 
L 291.947312 176.577605 
L 292.272129 178.163603 
L 292.434537 175.521467 
L 292.596946 180.991741 
L 292.759354 180.633887 
L 292.921763 185.977309 
L 293.24658 166.399099 
L 293.408988 169.867944 
L 293.571397 161.550812 
L 293.733805 160.095927 
L 293.896214 182.546486 
L 294.058622 171.440261 
L 294.221031 170.212002 
L 294.383439 179.111493 
L 294.545847 169.429397 
L 294.870664 165.465358 
L 295.195481 174.125862 
L 295.35789 176.323417 
L 295.845115 168.288198 
L 296.169932 184.444496 
L 296.332341 172.953168 
L 296.494749 181.476441 
L 296.657158 175.161139 
L 296.819566 182.34049 
L 297.144383 167.491404 
L 297.4692 187.431038 
L 297.631609 178.393311 
L 297.794017 176.968165 
L 297.956425 171.818908 
L 298.118834 180.747126 
L 298.281242 163.042118 
L 298.443651 173.365011 
L 298.606059 173.537483 
L 298.768468 174.856949 
L 298.930876 158.43939 
L 299.093285 174.586724 
L 299.255693 174.566131 
L 299.418102 166.952469 
L 299.58051 179.345545 
L 299.905327 169.560328 
L 300.067736 172.036668 
L 300.230144 178.633388 
L 300.392553 174.633986 
L 300.554961 175.127678 
L 300.71737 171.462443 
L 300.879778 180.673066 
L 301.204595 165.974676 
L 301.367004 173.4682 
L 301.529412 169.952293 
L 301.69182 181.05648 
L 301.854229 169.694631 
L 302.016637 175.467147 
L 302.179046 169.785519 
L 302.341454 169.630698 
L 302.503863 169.190289 
L 302.82868 177.649347 
L 302.991088 177.929521 
L 303.153497 178.891082 
L 303.315905 179.15413 
L 303.478314 170.697554 
L 303.640722 179.765763 
L 303.803131 172.93782 
L 303.965539 174.490379 
L 304.127948 180.996317 
L 304.290356 172.441365 
L 304.452765 178.962977 
L 304.615173 165.973241 
L 304.777582 163.679085 
L 304.93999 177.840131 
L 305.102398 175.671247 
L 305.427215 179.556305 
L 305.589624 180.631583 
L 305.752032 170.316776 
L 305.914441 180.965364 
L 306.076849 184.2095 
L 306.239258 167.363546 
L 306.564075 183.445022 
L 306.726483 170.496146 
L 306.888892 175.753255 
L 307.0513 167.918424 
L 307.213709 167.552516 
L 307.376117 180.53394 
L 307.538526 171.968293 
L 307.700934 178.881007 
L 308.025751 168.382244 
L 308.18816 176.503114 
L 308.350568 175.995362 
L 308.512976 174.881374 
L 308.675385 172.190431 
L 308.837793 173.229524 
L 309.000202 182.296474 
L 309.16261 167.07144 
L 309.325019 169.0517 
L 309.487427 169.227512 
L 309.649836 170.808641 
L 309.812244 177.656407 
L 309.974653 170.432083 
L 310.137061 175.165945 
L 310.29947 174.56312 
L 310.461878 167.336985 
L 310.624287 187.984351 
L 310.949104 166.111562 
L 311.111512 172.879395 
L 311.273921 172.281997 
L 311.436329 182.456947 
L 311.761146 173.668562 
L 311.923555 186.790141 
L 312.085963 184.138632 
L 312.41078 169.777337 
L 312.573188 170.775955 
L 312.735597 178.213698 
L 313.060414 157.627844 
L 313.222822 182.255628 
L 313.385231 174.839279 
L 313.710048 182.352241 
L 313.872456 176.589231 
L 314.034865 176.148346 
L 314.359682 179.064486 
L 314.52209 173.879981 
L 314.684499 172.654599 
L 314.846907 177.123534 
L 315.171724 165.665499 
L 315.496541 179.566648 
L 315.658949 162.153487 
L 315.821358 181.110561 
L 316.146175 177.10354 
L 316.308583 173.966137 
L 316.470992 174.431543 
L 316.6334 177.201034 
L 316.795809 182.849397 
L 316.958217 179.575054 
L 317.120626 181.665766 
L 317.445443 166.620142 
L 317.607851 176.68629 
L 317.77026 173.436025 
L 317.932668 166.80321 
L 318.095077 187.551201 
L 318.257485 170.53045 
L 318.419894 166.426233 
L 318.582302 178.729592 
L 318.744711 180.457064 
L 319.069527 171.939064 
L 319.394344 181.615081 
L 319.556753 174.099478 
L 319.719161 176.349916 
L 319.88157 166.336618 
L 320.043978 167.332245 
L 320.206387 177.478393 
L 320.531204 170.828031 
L 320.693612 178.541023 
L 320.856021 164.866361 
L 321.018429 183.83819 
L 321.180838 170.200456 
L 321.343246 174.735058 
L 321.505655 172.308007 
L 321.668063 177.454607 
L 321.830472 178.597176 
L 321.99288 171.614304 
L 322.155289 177.726057 
L 322.317697 172.570781 
L 322.480106 177.022928 
L 322.642514 168.800575 
L 322.967331 184.036967 
L 323.129739 166.520563 
L 323.292148 176.921632 
L 323.454556 175.292043 
L 323.779373 180.153681 
L 323.941782 187.259584 
L 324.10419 172.770912 
L 324.266599 184.091595 
L 324.429007 172.70776 
L 324.753824 183.725788 
L 324.916233 169.447044 
L 325.078641 184.441698 
L 325.24105 168.154448 
L 325.403458 180.678576 
L 325.565867 173.858894 
L 325.728275 173.349566 
L 325.890684 167.117486 
L 326.2155 179.216698 
L 326.540317 170.781209 
L 326.865134 180.089893 
L 327.027543 167.504847 
L 327.189951 166.716238 
L 327.35236 167.089703 
L 327.514768 176.872272 
L 327.677177 174.515829 
L 327.839585 176.022856 
L 328.001994 182.511349 
L 328.164402 174.670066 
L 328.326811 174.259325 
L 328.489219 170.022499 
L 328.651628 170.533226 
L 328.814036 170.395045 
L 328.976445 183.312539 
L 329.138853 183.816108 
L 329.301262 182.395163 
L 329.626078 169.583468 
L 329.788487 177.179393 
L 329.950895 174.295941 
L 330.113304 165.501533 
L 330.600529 177.519153 
L 330.762938 173.595203 
L 330.925346 162.14654 
L 331.087755 174.829359 
L 331.412572 175.984125 
L 331.57498 170.249019 
L 331.737389 180.404614 
L 331.899797 175.576529 
L 332.062206 161.894296 
L 332.224614 179.974775 
L 332.387023 164.716472 
L 332.71184 173.417997 
L 332.874248 160.368506 
L 333.036657 185.873893 
L 333.199065 169.208614 
L 333.361473 170.000782 
L 333.523882 179.090382 
L 333.848699 167.205879 
L 334.011107 176.374675 
L 334.173516 177.259506 
L 334.335924 171.343188 
L 334.498333 179.083151 
L 334.660741 179.271371 
L 334.82315 186.949531 
L 334.985558 168.765266 
L 335.147967 165.869372 
L 335.310375 185.719773 
L 335.472784 174.927213 
L 335.635192 177.696742 
L 335.797601 165.573918 
L 335.960009 169.30032 
L 336.122418 167.86157 
L 336.284826 174.398066 
L 336.447235 164.047613 
L 336.609643 178.697063 
L 336.772051 172.848188 
L 337.096868 176.499155 
L 337.259277 182.472917 
L 337.421685 167.320404 
L 337.584094 172.952716 
L 337.746502 165.058668 
L 337.908911 165.074244 
L 338.071319 180.986516 
L 338.233728 168.658321 
L 338.396136 167.364303 
L 338.558545 170.507739 
L 338.720953 167.448898 
L 339.04577 177.676592 
L 339.208179 169.389033 
L 339.370587 174.62408 
L 339.695404 170.20572 
L 339.857813 165.919471 
L 340.020221 176.69962 
L 340.182629 171.060298 
L 340.345038 183.06371 
L 340.507446 175.521988 
L 340.669855 180.78115 
L 340.832263 178.675133 
L 340.994672 184.630025 
L 341.15708 178.064462 
L 341.319489 180.981102 
L 341.481897 172.437335 
L 341.644306 175.442134 
L 341.806714 175.087503 
L 341.969123 172.338377 
L 342.131531 175.835428 
L 342.29394 172.593896 
L 342.456348 172.700625 
L 342.618757 159.970828 
L 342.943574 183.229487 
L 343.105982 184.124169 
L 343.268391 172.489483 
L 343.430799 170.937836 
L 343.593208 180.484128 
L 343.755616 170.569561 
L 344.080433 181.361329 
L 344.242841 171.467264 
L 344.40525 170.39545 
L 344.567658 172.44486 
L 344.730067 177.608089 
L 344.892475 178.809555 
L 345.054884 173.727652 
L 345.217292 179.314482 
L 345.542109 168.618478 
L 345.704518 172.429953 
L 345.866926 171.354904 
L 346.029335 182.112018 
L 346.191743 170.179149 
L 346.51656 176.043594 
L 346.678969 170.452822 
L 346.841377 174.090518 
L 347.003786 181.635888 
L 347.328602 164.424408 
L 347.491011 164.06312 
L 347.653419 178.082607 
L 347.815828 166.597515 
L 347.978236 166.318467 
L 348.140645 175.533126 
L 348.303053 162.68641 
L 348.465462 169.97341 
L 348.62787 166.248299 
L 348.790279 178.856971 
L 348.952687 172.512802 
L 349.115096 171.386708 
L 349.277504 167.028567 
L 349.439913 172.03675 
L 349.602321 168.307417 
L 349.76473 179.319378 
L 350.251955 172.788459 
L 350.414364 177.736879 
L 350.576772 175.174473 
L 350.73918 169.823389 
L 350.901589 170.860431 
L 351.063997 179.027059 
L 351.226406 177.659244 
L 351.388814 178.974435 
L 351.551223 182.861452 
L 351.713631 168.569644 
L 351.87604 179.593493 
L 352.038448 162.130479 
L 352.363265 179.048423 
L 352.525674 179.78052 
L 352.688082 183.505396 
L 352.850491 164.162512 
L 353.012899 174.529125 
L 353.175308 172.302896 
L 353.337716 180.468866 
L 353.500125 172.53503 
L 353.662533 180.163683 
L 353.824942 162.610956 
L 353.98735 167.485873 
L 354.149759 178.28174 
L 354.312167 164.550287 
L 354.636984 182.456945 
L 355.124209 170.88738 
L 355.286618 182.01533 
L 355.611435 172.536236 
L 355.773843 179.855272 
L 355.936252 172.35406 
L 356.261069 177.457555 
L 356.423477 176.192164 
L 356.585886 171.502519 
L 356.748294 171.890099 
L 356.910703 162.790206 
L 357.073111 175.799069 
L 357.23552 167.772074 
L 357.560337 179.080545 
L 357.885153 168.020336 
L 358.047562 176.874606 
L 358.20997 163.368798 
L 358.372379 180.592391 
L 358.534787 175.522437 
L 358.697196 174.749633 
L 358.859604 170.376172 
L 359.022013 182.043298 
L 359.34683 170.72622 
L 359.509238 179.949033 
L 359.671647 172.075617 
L 359.834055 177.747867 
L 359.996464 179.286462 
L 360.158872 173.036972 
L 360.321281 187.956389 
L 360.808506 171.657223 
L 360.970915 171.199541 
L 361.133323 173.477888 
L 361.295732 182.627804 
L 361.45814 167.487447 
L 361.782957 175.711485 
L 361.945365 178.909391 
L 362.107774 172.019557 
L 362.270182 182.699277 
L 362.594999 167.194661 
L 362.757408 178.760798 
L 362.919816 173.187071 
L 363.082225 181.11139 
L 363.244633 164.843862 
L 363.407042 179.235861 
L 363.56945 165.926742 
L 363.731859 182.793535 
L 363.894267 175.704343 
L 364.056676 174.672636 
L 364.219084 172.216815 
L 364.381493 174.894361 
L 364.543901 175.004627 
L 364.868718 178.707862 
L 365.031126 175.048208 
L 365.355943 187.373 
L 365.518352 171.656352 
L 365.68076 182.020493 
L 366.005577 165.073975 
L 366.167986 169.779526 
L 366.330394 171.248362 
L 366.655211 166.47352 
L 366.81762 182.126564 
L 366.980028 185.59813 
L 367.304845 172.403955 
L 367.467254 173.531153 
L 367.629662 173.418736 
L 367.792071 166.120187 
L 367.954479 167.913331 
L 368.116888 181.296621 
L 368.279296 170.539039 
L 368.441704 173.320143 
L 368.604113 178.717433 
L 368.766521 178.043695 
L 368.92893 178.469073 
L 369.091338 168.328061 
L 369.253747 175.106436 
L 369.416155 169.73583 
L 369.578564 171.907145 
L 369.740972 175.70248 
L 369.903381 176.743699 
L 370.228198 160.397599 
L 370.390606 180.084957 
L 370.553015 179.507842 
L 370.715423 180.447712 
L 370.877832 169.280075 
L 371.04024 174.620784 
L 371.202649 185.805242 
L 371.527466 175.22076 
L 371.689874 187.389394 
L 371.852283 187.511046 
L 372.014691 174.2925 
L 372.177099 171.145347 
L 372.339508 177.013617 
L 372.501916 172.991841 
L 372.664325 182.512976 
L 372.989142 172.247854 
L 373.15155 189.506224 
L 373.638776 172.849843 
L 373.801184 176.814929 
L 373.963593 174.966419 
L 374.126001 170.95877 
L 374.28841 158.831667 
L 374.450818 179.005725 
L 374.613227 174.239278 
L 374.775635 177.883462 
L 374.938044 173.101635 
L 375.100452 172.692311 
L 375.262861 177.855951 
L 375.425269 165.022813 
L 375.750086 175.337498 
L 375.912494 171.950223 
L 376.074903 161.646993 
L 376.237311 174.852699 
L 376.39972 175.705176 
L 376.724537 167.069908 
L 376.886945 176.000306 
L 377.049354 168.996263 
L 377.211762 181.792637 
L 377.374171 182.730833 
L 377.536579 182.060868 
L 377.698988 174.029147 
L 377.861396 173.087374 
L 378.023805 173.019004 
L 378.348622 174.668365 
L 378.51103 171.633491 
L 378.673439 172.734157 
L 378.835847 172.878096 
L 378.998255 170.267082 
L 379.160664 178.578469 
L 379.323072 176.29916 
L 379.485481 180.698323 
L 379.647889 181.417559 
L 379.810298 178.499918 
L 379.972706 179.601368 
L 380.135115 178.116043 
L 380.297523 168.479058 
L 380.459932 185.250811 
L 380.784749 167.148058 
L 380.947157 177.554572 
L 381.109566 177.658528 
L 381.271974 170.785259 
L 381.434383 178.639582 
L 381.596791 167.550103 
L 381.7592 176.968509 
L 381.921608 176.22868 
L 382.084017 178.805141 
L 382.246425 175.729827 
L 382.408834 169.030972 
L 382.571242 168.731044 
L 382.73365 177.705519 
L 382.896059 170.850303 
L 383.058467 184.265077 
L 383.220876 169.379773 
L 383.383284 187.911296 
L 383.545693 171.873296 
L 383.708101 171.878819 
L 383.87051 170.010295 
L 384.032918 160.206405 
L 384.195327 177.632796 
L 384.520144 162.360284 
L 384.682552 182.945541 
L 384.844961 173.81271 
L 385.007369 176.8897 
L 385.169778 182.854537 
L 385.332186 173.864552 
L 385.494595 173.663411 
L 385.657003 161.087006 
L 385.819412 176.902463 
L 385.98182 178.566422 
L 386.469045 169.744882 
L 386.631454 176.579636 
L 386.793862 164.131945 
L 386.956271 181.445879 
L 387.118679 164.155403 
L 387.281088 161.008549 
L 387.443496 166.003104 
L 387.605905 175.189279 
L 387.768313 172.190519 
L 387.930722 172.901875 
L 388.09313 172.563126 
L 388.255539 169.194333 
L 388.417947 177.481143 
L 388.580356 173.266428 
L 388.742764 183.040872 
L 388.905173 179.441873 
L 389.22999 183.453112 
L 389.392398 166.196205 
L 389.554806 174.198671 
L 389.717215 168.505892 
L 390.042032 173.170884 
L 390.20444 186.533971 
L 390.366849 175.525156 
L 390.529257 174.673513 
L 390.854074 190.2435 
L 391.016483 184.344111 
L 391.178891 169.76551 
L 391.3413 180.164691 
L 391.503708 171.751475 
L 391.666117 176.639654 
L 391.828525 174.683027 
L 391.990934 179.733924 
L 392.153342 179.776365 
L 392.315751 168.132097 
L 392.478159 184.620191 
L 392.965385 167.891864 
L 393.127793 177.926283 
L 393.45261 169.923461 
L 393.615018 167.678445 
L 393.939835 175.377984 
L 394.102244 174.532106 
L 394.264652 176.860227 
L 394.427061 163.000534 
L 394.751878 184.342747 
L 394.914286 172.051473 
L 395.076695 170.425818 
L 395.239103 187.072678 
L 395.56392 173.512125 
L 395.726329 181.365539 
L 395.888737 171.498259 
L 396.051146 170.848869 
L 396.213554 180.034909 
L 396.375963 165.843841 
L 396.538371 163.689576 
L 396.700779 170.186014 
L 396.863188 170.553113 
L 397.025596 177.891649 
L 397.350413 168.141342 
L 397.512822 172.695019 
L 397.67523 167.679899 
L 397.837639 180.038058 
L 398.000047 173.917797 
L 398.162456 177.841822 
L 398.324864 172.872558 
L 398.487273 179.404329 
L 106.314423 171.009281 
L 106.476831 169.649318 
L 106.801648 182.572509 
L 106.964057 170.017442 
L 107.126465 174.391691 
L 107.288874 183.138355 
L 107.451282 171.253223 
L 107.61369 178.513421 
L 107.938507 174.505152 
L 108.100916 175.122645 
L 108.263324 167.564303 
L 108.425733 183.030921 
L 108.75055 165.208884 
L 108.912958 170.669725 
L 109.075367 167.304535 
L 109.237775 167.974462 
L 109.400184 169.215481 
L 109.562592 167.442909 
L 109.725001 179.821057 
L 109.887409 175.272098 
L 110.049818 176.734502 
L 110.212226 171.630531 
L 110.374635 171.341528 
L 110.537043 169.635703 
L 110.699452 169.743688 
L 110.86186 177.853953 
L 111.024268 166.241892 
L 111.349085 178.953022 
L 111.511494 167.272819 
L 111.673902 170.911363 
L 111.836311 185.450115 
L 111.998719 167.726507 
L 112.161128 174.316211 
L 112.323536 167.114012 
L 112.485945 174.636007 
L 112.810762 176.354401 
L 113.135579 168.632342 
L 113.297987 171.376808 
L 113.460396 176.246429 
L 113.785213 166.490173 
L 113.947621 180.072737 
L 114.11003 169.006175 
L 114.272438 172.837244 
L 114.434847 169.140548 
L 114.597255 184.260679 
L 114.922072 159.61892 
L 115.08448 171.201346 
L 115.246889 173.233757 
L 115.409297 172.001243 
L 115.571706 175.519096 
L 115.734114 167.771965 
L 115.896523 172.828313 
L 116.058931 169.214017 
L 116.383748 179.218133 
L 116.546157 179.376092 
L 116.708565 172.838131 
L 117.033382 175.344679 
L 117.195791 169.084868 
L 117.358199 173.296965 
L 117.520608 167.581719 
L 117.845425 177.573166 
L 118.007833 170.041367 
L 118.170241 171.021929 
L 118.33265 173.942593 
L 118.495058 171.153023 
L 118.657467 191.123828 
L 118.819875 171.373429 
L 118.982284 169.293488 
L 119.144692 173.274026 
L 119.307101 172.044115 
L 119.469509 173.221536 
L 119.631918 179.153104 
L 119.794326 172.811036 
L 119.956735 171.634754 
L 120.119143 172.765991 
L 120.281552 165.283567 
L 120.44396 164.944242 
L 120.606369 170.786145 
L 120.768777 181.651017 
L 120.931186 181.820187 
L 121.093594 177.103205 
L 121.256003 176.594766 
L 121.418411 168.765543 
L 121.58082 167.493391 
L 121.905636 176.729169 
L 122.068045 174.161389 
L 122.392862 179.376613 
L 122.55527 167.994886 
L 122.717679 176.540976 
L 122.880087 173.260649 
L 123.042496 173.51014 
L 123.204904 168.039714 
L 123.367313 172.849468 
L 123.529721 181.857352 
L 123.854538 169.250394 
L 124.016947 177.278305 
L 124.179355 173.498329 
L 124.341764 174.364541 
L 124.504172 177.637887 
L 124.666581 184.236176 
L 124.991398 166.776578 
L 125.153806 165.447145 
L 125.316214 180.169821 
L 125.478623 177.583949 
L 125.641031 177.344423 
L 125.80344 179.56814 
L 125.965848 173.570347 
L 126.128257 174.859492 
L 126.453074 164.364186 
L 126.615482 183.188667 
L 126.777891 182.512818 
L 126.940299 178.100575 
L 127.102708 178.301617 
L 127.265116 163.415937 
L 127.427525 173.528892 
L 127.589933 172.382761 
L 127.752342 173.000459 
L 127.91475 172.958751 
L 128.077159 176.002879 
L 128.239567 181.534002 
L 128.564384 171.505313 
L 128.726792 168.209665 
L 128.889201 180.261522 
L 129.051609 174.238857 
L 129.214018 173.771717 
L 129.376426 182.609898 
L 129.701243 161.383508 
L 129.863652 178.11461 
L 130.02606 178.13099 
L 130.188469 172.358763 
L 130.350877 175.594552 
L 130.513286 166.182663 
L 130.675694 175.849978 
L 130.838103 177.322238 
L 131.000511 183.551536 
L 131.16292 173.640998 
L 131.325328 181.073398 
L 131.487737 180.054374 
L 131.812554 176.198486 
L 131.974962 182.050173 
L 132.137371 162.799779 
L 132.299779 178.034714 
L 132.462187 170.966347 
L 132.624596 170.731554 
L 132.787004 182.876213 
L 132.949413 164.175209 
L 133.111821 173.793027 
L 133.436638 162.57909 
L 133.599047 168.253483 
L 133.761455 177.966384 
L 133.923864 174.220722 
L 134.086272 183.088547 
L 134.248681 175.432323 
L 134.411089 181.186454 
L 134.735906 167.536587 
L 134.898315 173.34314 
L 135.060723 183.165859 
L 135.223132 173.855318 
L 135.38554 179.849875 
L 135.710357 163.533556 
L 135.872765 165.737108 
L 136.035174 166.349898 
L 136.197582 175.01514 
L 136.359991 175.758226 
L 136.522399 172.691838 
L 136.847216 185.830025 
L 137.172033 173.632875 
L 137.334442 181.309757 
L 137.659259 179.501928 
L 137.984076 183.087591 
L 138.308893 176.655837 
L 138.471301 177.132405 
L 138.63371 167.242598 
L 138.796118 171.810843 
L 138.958527 181.15633 
L 139.120935 168.814418 
L 139.283343 180.019821 
L 139.445752 179.947754 
L 139.932977 167.998152 
L 140.095386 173.27068 
L 140.257794 170.809425 
L 140.420203 172.332491 
L 140.74502 170.466544 
L 141.069837 178.994566 
L 141.232245 178.04584 
L 141.719471 169.453036 
L 141.881879 176.565914 
L 142.044288 175.667992 
L 142.369105 160.954402 
L 142.531513 175.956245 
L 142.693922 170.7462 
L 142.85633 173.802131 
L 143.018738 174.092731 
L 143.181147 175.123437 
L 143.343555 178.217087 
L 143.505964 171.593034 
L 143.830781 179.617173 
L 143.993189 173.658004 
L 144.155598 178.843354 
L 144.318006 171.019198 
L 144.480415 172.262589 
L 144.642823 171.110892 
L 144.805232 175.191109 
L 144.96764 174.501946 
L 145.130049 175.038846 
L 145.292457 180.553436 
L 145.454866 170.064403 
L 145.617274 184.171279 
L 145.779683 164.40738 
L 145.942091 164.124453 
L 146.1045 174.320608 
L 146.266908 169.325153 
L 146.591725 178.64851 
L 146.754133 174.255119 
L 146.916542 174.997397 
L 147.07895 174.849035 
L 147.241359 179.32292 
L 147.566176 165.480328 
L 147.728584 171.89613 
L 147.890993 169.352898 
L 148.053401 175.022746 
L 148.378218 169.923944 
L 148.540627 177.754154 
L 148.703035 174.458109 
L 148.865444 183.876099 
L 149.027852 183.831095 
L 149.190261 185.19391 
L 149.352669 170.285414 
L 149.515078 176.442916 
L 149.677486 175.73007 
L 149.839894 176.434088 
L 150.002303 168.456049 
L 150.164711 176.818263 
L 150.32712 177.110181 
L 150.489528 170.470013 
L 150.651937 171.922545 
L 150.814345 167.003459 
L 151.139162 175.479882 
L 151.301571 175.417833 
L 151.463979 171.22123 
L 151.626388 177.571127 
L 151.788796 160.134767 
L 151.951205 176.049025 
L 152.113613 173.247789 
L 152.276022 174.280688 
L 152.43843 167.470784 
L 152.763247 179.027709 
L 152.925656 175.567282 
L 153.088064 166.815694 
L 153.250473 174.745808 
L 153.412881 164.798019 
L 153.575289 177.365794 
L 154.387332 165.281538 
L 154.54974 173.424662 
L 154.712149 174.806532 
L 154.874557 173.733474 
L 155.036966 174.576919 
L 155.199374 178.715587 
L 155.361783 161.089614 
L 155.6866 180.214822 
L 155.849008 176.156367 
L 156.011417 175.159248 
L 156.173825 167.139307 
L 156.498642 169.761422 
L 156.661051 183.48314 
L 156.985867 174.481182 
L 157.148276 174.1859 
L 157.473093 169.1776 
L 157.635501 170.773873 
L 157.79791 175.288804 
L 157.960318 169.759225 
L 158.285135 184.319509 
L 158.609952 169.053185 
L 158.772361 165.4835 
L 158.934769 175.730338 
L 159.097178 164.784966 
L 159.259586 175.78707 
L 159.421995 170.509741 
L 159.746812 176.396852 
L 159.90922 176.670772 
L 160.071629 168.111292 
L 160.396445 179.283792 
L 160.558854 170.057252 
L 160.721262 179.612313 
L 160.883671 168.989952 
L 161.046079 169.439968 
L 161.208488 179.821769 
L 161.370896 178.449368 
L 161.533305 173.343745 
L 161.695713 174.435875 
L 161.858122 173.945039 
L 162.02053 177.440911 
L 162.182939 176.28929 
L 162.345347 167.55967 
L 162.670164 175.399508 
L 162.832573 165.080143 
L 162.994981 182.052179 
L 163.319798 172.371196 
L 163.482207 173.471773 
L 163.807024 162.489461 
L 163.969432 174.003209 
L 164.13184 166.909744 
L 164.294249 168.500711 
L 164.456657 176.991825 
L 164.619066 161.758047 
L 164.781474 174.985694 
L 165.106291 180.168346 
L 165.431108 162.651024 
L 165.593517 175.401936 
L 165.755925 170.391443 
L 165.918334 187.17486 
L 166.080742 186.755641 
L 166.243151 174.511239 
L 166.405559 180.574521 
L 166.567968 176.328376 
L 166.730376 179.895073 
L 166.892785 169.35143 
L 167.055193 175.833978 
L 167.217602 177.633607 
L 167.38001 171.176368 
L 167.704827 173.671252 
L 167.867235 169.909213 
L 168.029644 179.038933 
L 168.354461 170.614523 
L 168.516869 187.636997 
L 168.679278 179.310026 
L 168.841686 182.973386 
L 169.004095 178.788342 
L 169.166503 168.979702 
L 169.328912 171.087434 
L 169.653729 181.546511 
L 169.816137 167.494153 
L 169.978546 178.839107 
L 170.140954 169.861751 
L 170.303363 180.4105 
L 170.465771 168.973881 
L 171.115405 178.482271 
L 171.277813 175.439276 
L 171.440222 183.346614 
L 171.60263 169.671094 
L 171.765039 178.02405 
L 172.089856 173.386768 
L 172.252264 174.524314 
L 172.414673 184.395457 
L 172.577081 169.49169 
L 172.73949 168.952061 
L 173.064307 180.26878 
L 173.226715 174.991471 
L 173.389124 177.480518 
L 173.551532 176.724306 
L 173.713941 171.137506 
L 173.876349 174.958744 
L 174.038758 185.914145 
L 174.201166 175.357439 
L 174.8508 169.251455 
L 175.013208 173.42703 
L 175.175617 188.184684 
L 175.338025 175.315968 
L 175.500434 174.276148 
L 175.662842 167.186156 
L 175.825251 176.013586 
L 175.987659 159.753286 
L 176.150068 176.359559 
L 176.312476 177.77191 
L 176.474885 172.108282 
L 176.637293 171.029381 
L 176.799702 163.847816 
L 176.96211 176.45407 
L 177.286927 183.37784 
L 177.611744 166.787195 
L 177.774153 179.016324 
L 177.936561 169.626987 
L 178.098969 170.944322 
L 178.261378 167.326955 
L 178.423786 173.748117 
L 178.586195 173.026649 
L 178.748603 187.169498 
L 178.911012 166.761689 
L 179.07342 174.881467 
L 179.235829 167.912006 
L 179.398237 172.928523 
L 179.723054 175.118322 
L 179.885463 182.914138 
L 180.047871 175.350052 
L 180.21028 156.39403 
L 180.535097 169.351194 
L 180.697505 169.338854 
L 180.859914 175.977848 
L 181.022322 167.779721 
L 181.347139 177.908763 
L 181.509548 175.478584 
L 181.671956 170.865943 
L 181.996773 184.169392 
L 182.159181 185.152694 
L 182.32159 170.309467 
L 182.483998 181.934391 
L 182.971224 170.102963 
L 183.133632 177.349021 
L 183.296041 173.891676 
L 183.458449 174.553245 
L 183.620858 176.367444 
L 183.783266 180.590168 
L 183.945675 171.232235 
L 184.270492 182.21359 
L 184.4329 166.900679 
L 184.595309 172.563623 
L 184.757717 171.581441 
L 184.920126 178.426308 
L 185.082534 166.099609 
L 185.407351 181.15206 
L 185.569759 185.379911 
L 185.894576 168.69116 
L 186.056985 178.19994 
L 186.219393 178.677094 
L 186.381802 186.355705 
L 186.706619 168.780673 
L 186.869027 164.319123 
L 187.031436 165.966253 
L 187.193844 169.206895 
L 187.356253 170.019463 
L 187.518661 183.483837 
L 187.68107 167.524445 
L 187.843478 178.752939 
L 188.005887 173.939264 
L 188.168295 180.514909 
L 188.330704 176.331435 
L 188.493112 179.260709 
L 188.65552 177.683403 
L 188.817929 167.000553 
L 188.980337 174.879722 
L 189.142746 170.363158 
L 189.305154 180.789867 
L 189.629971 161.582291 
L 189.79238 186.510132 
L 190.117197 168.225465 
L 190.279605 176.010469 
L 190.604422 179.240095 
L 190.766831 169.499417 
L 191.091648 180.843425 
L 191.254056 170.288013 
L 191.416465 170.22267 
L 191.741282 184.598076 
L 191.90369 179.568622 
L 192.066099 170.001156 
L 192.228507 173.42691 
L 192.390915 187.334542 
L 192.715732 173.621158 
L 192.878141 178.252127 
L 193.202958 165.254884 
L 193.365366 168.554267 
L 193.527775 181.903156 
L 193.690183 179.272253 
L 193.852592 163.836026 
L 194.015 175.214791 
L 194.177409 178.314496 
L 194.339817 170.639325 
L 194.502226 177.188158 
L 194.664634 164.613422 
L 194.827043 178.689512 
L 194.989451 169.52229 
L 195.15186 182.77394 
L 195.314268 175.747007 
L 195.476677 181.393927 
L 195.639085 182.211865 
L 196.12631 171.544571 
L 196.288719 171.776515 
L 196.451127 177.123691 
L 196.775944 164.114898 
L 196.938353 176.65565 
L 197.26317 169.038575 
L 197.587987 182.059155 
L 197.750395 168.679576 
L 198.075212 179.534948 
L 198.237621 175.198959 
L 198.400029 166.59375 
L 198.562438 173.628454 
L 198.724846 173.922053 
L 199.049663 165.64128 
L 199.212071 185.561114 
L 199.37448 183.509436 
L 199.536888 167.565481 
L 199.861705 172.762442 
L 200.024114 185.934361 
L 200.186522 178.916297 
L 200.348931 177.26695 
L 200.511339 183.891455 
L 200.836156 169.005684 
L 200.998565 174.725287 
L 201.160973 162.49058 
L 201.323382 173.540789 
L 201.48579 174.187252 
L 201.648199 177.377923 
L 201.973016 162.491592 
L 202.297833 184.992226 
L 202.460241 178.587107 
L 202.62265 177.866689 
L 202.785058 173.459982 
L 202.947466 175.210899 
L 203.109875 178.395125 
L 203.434692 171.857944 
L 203.5971 175.311566 
L 203.759509 159.763944 
L 204.084326 174.460496 
L 204.246734 176.960371 
L 204.409143 164.394616 
L 204.571551 166.741042 
L 204.73396 183.846015 
L 205.058777 161.789569 
L 205.383594 179.483382 
L 205.546002 172.873464 
L 205.708411 180.443072 
L 205.870819 167.163977 
L 206.033228 179.105979 
L 206.195636 172.904323 
L 206.358044 176.548711 
L 206.520453 170.930034 
L 206.682861 174.87668 
L 206.84527 173.921181 
L 207.007678 165.701051 
L 207.170087 174.77681 
L 207.332495 167.644575 
L 207.494904 169.003298 
L 207.657312 178.338596 
L 207.819721 179.769973 
L 208.306946 169.640365 
L 208.469355 177.212614 
L 208.631763 171.455144 
L 208.794172 178.368403 
L 208.95658 164.88976 
L 209.118989 177.299705 
L 209.281397 168.974032 
L 209.443806 182.944523 
L 209.606214 165.169381 
L 209.931031 181.198549 
L 210.093439 176.935927 
L 210.255848 166.082807 
L 210.418256 178.519047 
L 210.580665 163.812318 
L 210.905482 180.170253 
L 211.06789 169.401444 
L 211.230299 181.895486 
L 211.392707 172.977964 
L 211.717524 178.571288 
L 211.879933 177.685013 
L 212.042341 160.258734 
L 212.20475 177.192741 
L 212.529567 184.491256 
L 213.016792 170.192013 
L 213.341609 180.091794 
L 213.504017 180.140552 
L 213.828834 168.000434 
L 213.991243 177.57799 
L 214.153651 179.106396 
L 214.31606 168.075116 
L 214.640877 180.760909 
L 214.803285 170.57816 
L 214.965694 174.737846 
L 215.128102 167.503343 
L 215.290511 169.516409 
L 215.452919 175.976973 
L 215.615328 173.144083 
L 215.777736 173.449971 
L 215.940145 167.827188 
L 216.264962 169.843943 
L 216.42737 176.143318 
L 216.589779 173.133667 
L 216.752187 172.603008 
L 217.077004 179.358342 
L 217.401821 174.437122 
L 217.564229 170.143691 
L 217.726638 169.141387 
L 217.889046 164.19762 
L 218.051455 174.294452 
L 218.213863 169.173676 
L 218.701089 175.870659 
L 218.863497 165.322573 
L 219.025906 181.340746 
L 219.350723 172.26401 
L 219.513131 186.876814 
L 219.67554 169.820266 
L 219.837948 181.365637 
L 220.000357 168.570605 
L 220.162765 185.460633 
L 220.487582 168.743833 
L 220.64999 166.18961 
L 220.812399 175.201358 
L 220.974807 169.617612 
L 221.137216 170.167345 
L 221.299624 187.907318 
L 221.462033 174.744853 
L 221.624441 178.526117 
L 221.78685 171.179541 
L 221.949258 185.944476 
L 222.111667 162.275978 
L 222.436484 170.132116 
L 222.761301 175.682951 
L 222.923709 162.930609 
L 223.086118 180.459226 
L 223.248526 178.316115 
L 223.410935 171.863829 
L 223.573343 182.079469 
L 223.735752 178.897315 
L 223.89816 180.771878 
L 224.060568 173.427268 
L 224.222977 192.130416 
L 224.385385 175.554916 
L 224.547794 174.172887 
L 224.710202 175.853873 
L 224.872611 170.089587 
L 225.035019 180.581029 
L 225.197428 183.143415 
L 225.522245 165.111055 
L 225.684653 168.690122 
L 225.847062 182.196445 
L 226.00947 173.088095 
L 226.171879 182.272733 
L 226.334287 158.741529 
L 226.496696 174.508256 
L 226.659104 171.263227 
L 226.983921 173.957425 
L 227.14633 159.123006 
L 227.308738 175.923551 
L 227.471146 178.107026 
L 227.633555 169.19906 
L 227.958372 169.350633 
L 228.12078 174.151441 
L 228.283189 168.132759 
L 228.608006 186.258369 
L 228.770414 170.147733 
L 228.932823 170.895769 
L 229.25764 174.193249 
L 229.582457 171.340599 
L 229.744865 179.418437 
L 229.907274 172.056514 
L 230.069682 173.481216 
L 230.232091 178.109144 
L 230.394499 170.011031 
L 230.719316 183.965876 
L 230.881724 171.037218 
L 231.044133 169.568876 
L 231.206541 175.590881 
L 231.531358 164.915955 
L 231.693767 174.196781 
L 231.856175 170.087082 
L 232.018584 169.332485 
L 232.180992 186.689731 
L 232.343401 170.333074 
L 232.505809 172.984182 
L 232.830626 166.595082 
L 232.993035 182.560245 
L 233.317852 174.383697 
L 233.48026 179.840229 
L 233.642669 173.12102 
L 233.967486 176.403242 
L 234.129894 167.703995 
L 234.292303 168.580731 
L 234.454711 166.910828 
L 234.617119 170.18202 
L 234.941936 164.310785 
L 235.104345 171.904749 
L 235.266753 173.904873 
L 235.429162 183.221687 
L 235.753979 170.860677 
L 235.916387 175.39602 
L 236.078796 174.339233 
L 236.078796 174.339233 
" style="fill:none;stroke:#1f77b4;stroke-linecap:square;stroke-width:1.5;"/>
   </g>
   <g id="patch_3">
    <path d="M 57.6 307.584 
L 57.6 41.472 
" style="fill:none;stroke:#000000;stroke-linecap:square;stroke-linejoin:miter;stroke-width:0.8;"/>
   </g>
   <g id="patch_4">
    <path d="M 414.72 307.584 
L 414.72 41.472 
" style="fill:none;stroke:#000000;stroke-linecap:square;stroke-linejoin:miter;stroke-width:0.8;"/>
   </g>
   <g id="patch_5">
    <path d="M 57.6 307.584 
L 414.72 307.584 
" style="fill:none;stroke:#000000;stroke-linecap:square;stroke-linejoin:miter;stroke-width:0.8;"/>
   </g>
   <g id="patch_6">
    <path d="M 57.6 41.472 
L 414.72 41.472 
" style="fill:none;stroke:#000000;stroke-linecap:square;stroke-linejoin:miter;stroke-width:0.8;"/>
   </g>
   <g id="text_19">
    <!-- deltaH -->
    <defs>
     <path d="M 45.40625 46.390625 
L 45.40625 75.984375 
L 54.390625 75.984375 
L 54.390625 0 
L 45.40625 0 
L 45.40625 8.203125 
Q 42.578125 3.328125 38.25 0.953125 
Q 33.9375 -1.421875 27.875 -1.421875 
Q 17.96875 -1.421875 11.734375 6.484375 
Q 5.515625 14.40625 5.515625 27.296875 
Q 5.515625 40.1875 11.734375 48.09375 
Q 17.96875 56 27.875 56 
Q 33.9375 56 38.25 53.625 
Q 42.578125 51.265625 45.40625 46.390625 
z
M 14.796875 27.296875 
Q 14.796875 17.390625 18.875 11.75 
Q 22.953125 6.109375 30.078125 6.109375 
Q 37.203125 6.109375 41.296875 11.75 
Q 45.40625 17.390625 45.40625 27.296875 
Q 45.40625 37.203125 41.296875 42.84375 
Q 37.203125 48.484375 30.078125 48.484375 
Q 22.953125 48.484375 18.875 42.84375 
Q 14.796875 37.203125 14.796875 27.296875 
z
" id="DejaVuSans-100"/>
     <path d="M 56.203125 29.59375 
L 56.203125 25.203125 
L 14.890625 25.203125 
Q 15.484375 15.921875 20.484375 11.0625 
Q 25.484375 6.203125 34.421875 6.203125 
Q 39.59375 6.203125 44.453125 7.46875 
Q 49.3125 8.734375 54.109375 11.28125 
L 54.109375 2.78125 
Q 49.265625 0.734375 44.1875 -0.34375 
Q 39.109375 -1.421875 33.890625 -1.421875 
Q 20.796875 -1.421875 13.15625 6.1875 
Q 5.515625 13.8125 5.515625 26.8125 
Q 5.515625 40.234375 12.765625 48.109375 
Q 20.015625 56 32.328125 56 
Q 43.359375 56 49.78125 48.890625 
Q 56.203125 41.796875 56.203125 29.59375 
z
M 47.21875 32.234375 
Q 47.125 39.59375 43.09375 43.984375 
Q 39.0625 48.390625 32.421875 48.390625 
Q 24.90625 48.390625 20.390625 44.140625 
Q 15.875 39.890625 15.1875 32.171875 
z
" id="DejaVuSans-101"/>
     <path d="M 9.421875 75.984375 
L 18.40625 75.984375 
L 18.40625 0 
L 9.421875 0 
z
" id="DejaVuSans-108"/>
     <path d="M 18.3125 70.21875 
L 18.3125 54.6875 
L 36.8125 54.6875 
L 36.8125 47.703125 
L 18.3125 47.703125 
L 18.3125 18.015625 
Q 18.3125 11.328125 20.140625 9.421875 
Q 21.96875 7.515625 27.59375 7.515625 
L 36.8125 7.515625 
L 36.8125 0 
L 27.59375 0 
Q 17.1875 0 13.234375 3.875 
Q 9.28125 7.765625 9.28125 18.015625 
L 9.28125 47.703125 
L 2.6875 47.703125 
L 2.6875 54.6875 
L 9.28125 54.6875 
L 9.28125 70.21875 
z
" id="DejaVuSans-116"/>
     <path d="M 34.28125 27.484375 
Q 23.390625 27.484375 19.1875 25 
Q 14.984375 22.515625 14.984375 16.5 
Q 14.984375 11.71875 18.140625 8.90625 
Q 21.296875 6.109375 26.703125 6.109375 
Q 34.1875 6.109375 38.703125 11.40625 
Q 43.21875 16.703125 43.21875 25.484375 
L 43.21875 27.484375 
z
M 52.203125 31.203125 
L 52.203125 0 
L 43.21875 0 
L 43.21875 8.296875 
Q 40.140625 3.328125 35.546875 0.953125 
Q 30.953125 -1.421875 24.3125 -1.421875 
Q 15.921875 -1.421875 10.953125 3.296875 
Q 6 8.015625 6 15.921875 
Q 6 25.140625 12.171875 29.828125 
Q 18.359375 34.515625 30.609375 34.515625 
L 43.21875 34.515625 
L 43.21875 35.40625 
Q 43.21875 41.609375 39.140625 45 
Q 35.0625 48.390625 27.6875 48.390625 
Q 23 48.390625 18.546875 47.265625 
Q 14.109375 46.140625 10.015625 43.890625 
L 10.015625 52.203125 
Q 14.9375 54.109375 19.578125 55.046875 
Q 24.21875 56 28.609375 56 
Q 40.484375 56 46.34375 49.84375 
Q 52.203125 43.703125 52.203125 31.203125 
z
" id="DejaVuSans-97"/>
     <path d="M 9.8125 72.90625 
L 19.671875 72.90625 
L 19.671875 43.015625 
L 55.515625 43.015625 
L 55.515625 72.90625 
L 65.375 72.90625 
L 65.375 0 
L 55.515625 0 
L 55.515625 34.71875 
L 19.671875 34.71875 
L 19.671875 0 
L 9.8125 0 
z
" id="DejaVuSans-72"/>
    </defs>
    <g transform="translate(216.450938 35.472)scale(0.12 -0.12)">
     <use xlink:href="#DejaVuSans-100"/>
     <use x="63.476562" xlink:href="#DejaVuSans-101"/>
     <use x="125" xlink:href="#DejaVuSans-108"/>
     <use x="152.783203" xlink:href="#DejaVuSans-116"/>
     <use x="191.992188" xlink:href="#DejaVuSans-97"/>
     <use x="253.271484" xlink:href="#DejaVuSans-72"/>
    </g>
   </g>
   <g id="legend_1">
    <g id="patch_7">
     <path d="M 290.3825 64.150125 
L 407.72 64.150125 
Q 409.72 64.150125 409.72 62.150125 
L 409.72 48.472 
Q 409.72 46.472 407.72 46.472 
L 290.3825 46.472 
Q 288.3825 46.472 288.3825 48.472 
L 288.3825 62.150125 
Q 288.3825 64.150125 290.3825 64.150125 
z
" style="fill:#ffffff;opacity:0.8;stroke:#cccccc;stroke-linejoin:miter;"/>
    </g>
    <g id="line2d_20">
     <path d="M 292.3825 54.570438 
L 312.3825 54.570438 
" style="fill:none;stroke:#1f77b4;stroke-linecap:square;stroke-width:1.5;"/>
    </g>
    <g id="line2d_21"/>
    <g id="text_20">
     <!-- 0.0018+/-0.0473 -->
     <defs>
      <path d="M 31.78125 34.625 
Q 24.75 34.625 20.71875 30.859375 
Q 16.703125 27.09375 16.703125 20.515625 
Q 16.703125 13.921875 20.71875 10.15625 
Q 24.75 6.390625 31.78125 6.390625 
Q 38.8125 6.390625 42.859375 10.171875 
Q 46.921875 13.96875 46.921875 20.515625 
Q 46.921875 27.09375 42.890625 30.859375 
Q 38.875 34.625 31.78125 34.625 
z
M 21.921875 38.8125 
Q 15.578125 40.375 12.03125 44.71875 
Q 8.5 49.078125 8.5 55.328125 
Q 8.5 64.0625 14.71875 69.140625 
Q 20.953125 74.21875 31.78125 74.21875 
Q 42.671875 74.21875 48.875 69.140625 
Q 55.078125 64.0625 55.078125 55.328125 
Q 55.078125 49.078125 51.53125 44.71875 
Q 48 40.375 41.703125 38.8125 
Q 48.828125 37.15625 52.796875 32.3125 
Q 56.78125 27.484375 56.78125 20.515625 
Q 56.78125 9.90625 50.3125 4.234375 
Q 43.84375 -1.421875 31.78125 -1.421875 
Q 19.734375 -1.421875 13.25 4.234375 
Q 6.78125 9.90625 6.78125 20.515625 
Q 6.78125 27.484375 10.78125 32.3125 
Q 14.796875 37.15625 21.921875 38.8125 
z
M 18.3125 54.390625 
Q 18.3125 48.734375 21.84375 45.5625 
Q 25.390625 42.390625 31.78125 42.390625 
Q 38.140625 42.390625 41.71875 45.5625 
Q 45.3125 48.734375 45.3125 54.390625 
Q 45.3125 60.0625 41.71875 63.234375 
Q 38.140625 66.40625 31.78125 66.40625 
Q 25.390625 66.40625 21.84375 63.234375 
Q 18.3125 60.0625 18.3125 54.390625 
z
" id="DejaVuSans-56"/>
      <path d="M 46 62.703125 
L 46 35.5 
L 73.1875 35.5 
L 73.1875 27.203125 
L 46 27.203125 
L 46 0 
L 37.796875 0 
L 37.796875 27.203125 
L 10.59375 27.203125 
L 10.59375 35.5 
L 37.796875 35.5 
L 37.796875 62.703125 
z
" id="DejaVuSans-43"/>
      <path d="M 25.390625 72.90625 
L 33.6875 72.90625 
L 8.296875 -9.28125 
L 0 -9.28125 
z
" id="DejaVuSans-47"/>
      <path d="M 4.890625 31.390625 
L 31.203125 31.390625 
L 31.203125 23.390625 
L 4.890625 23.390625 
z
" id="DejaVuSans-45"/>
      <path d="M 37.796875 64.3125 
L 12.890625 25.390625 
L 37.796875 25.390625 
z
M 35.203125 72.90625 
L 47.609375 72.90625 
L 47.609375 25.390625 
L 58.015625 25.390625 
L 58.015625 17.1875 
L 47.609375 17.1875 
L 47.609375 0 
L 37.796875 0 
L 37.796875 17.1875 
L 4.890625 17.1875 
L 4.890625 26.703125 
z
" id="DejaVuSans-52"/>
      <path d="M 40.578125 39.3125 
Q 47.65625 37.796875 51.625 33 
Q 55.609375 28.21875 55.609375 21.1875 
Q 55.609375 10.40625 48.1875 4.484375 
Q 40.765625 -1.421875 27.09375 -1.421875 
Q 22.515625 -1.421875 17.65625 -0.515625 
Q 12.796875 0.390625 7.625 2.203125 
L 7.625 11.71875 
Q 11.71875 9.328125 16.59375 8.109375 
Q 21.484375 6.890625 26.8125 6.890625 
Q 36.078125 6.890625 40.9375 10.546875 
Q 45.796875 14.203125 45.796875 21.1875 
Q 45.796875 27.640625 41.28125 31.265625 
Q 36.765625 34.90625 28.71875 34.90625 
L 20.21875 34.90625 
L 20.21875 43.015625 
L 29.109375 43.015625 
Q 36.375 43.015625 40.234375 45.921875 
Q 44.09375 48.828125 44.09375 54.296875 
Q 44.09375 59.90625 40.109375 62.90625 
Q 36.140625 65.921875 28.71875 65.921875 
Q 24.65625 65.921875 20.015625 65.03125 
Q 15.375 64.15625 9.8125 62.3125 
L 9.8125 71.09375 
Q 15.4375 72.65625 20.34375 73.4375 
Q 25.25 74.21875 29.59375 74.21875 
Q 40.828125 74.21875 47.359375 69.109375 
Q 53.90625 64.015625 53.90625 55.328125 
Q 53.90625 49.265625 50.4375 45.09375 
Q 46.96875 40.921875 40.578125 39.3125 
z
" id="DejaVuSans-51"/>
     </defs>
     <g transform="translate(320.3825 58.070438)scale(0.1 -0.1)">
      <use xlink:href="#DejaVuSans-48"/>
      <use x="63.623047" xlink:href="#DejaVuSans-46"/>
      <use x="95.410156" xlink:href="#DejaVuSans-48"/>
      <use x="159.033203" xlink:href="#DejaVuSans-48"/>
      <use x="222.65625" xlink:href="#DejaVuSans-49"/>
      <use x="286.279297" xlink:href="#DejaVuSans-56"/>
      <use x="349.902344" xlink:href="#DejaVuSans-43"/>
      <use x="433.691406" xlink:href="#DejaVuSans-47"/>
      <use x="467.382812" xlink:href="#DejaVuSans-45"/>
      <use x="503.466797" xlink:href="#DejaVuSans-48"/>
      <use x="567.089844" xlink:href="#DejaVuSans-46"/>
      <use x="598.876953" xlink:href="#DejaVuSans-48"/>
      <use x="662.5" xlink:href="#DejaVuSans-52"/>
      <use x="726.123047" xlink:href="#DejaVuSans-55"/>
      <use x="789.746094" xlink:href="#DejaVuSans-51"/>
     </g>
    </g>
   </g>
  </g>
 </g>
 <defs>
  <clipPath id="p63c8013472">
   <rect height="266.112" width="357.12" x="57.6" y="41.472"/>
  </clipPath>
 </defs>
</svg>
