<?xml version="1.0" encoding="utf-8" standalone="no"?>
<!DOCTYPE svg PUBLIC "-//W3C//DTD SVG 1.1//EN"
  "http://www.w3.org/Graphics/SVG/1.1/DTD/svg11.dtd">
<!-- Created with matplotlib (https://matplotlib.org/) -->
<svg height="345.6pt" version="1.1" viewBox="0 0 460.8 345.6" width="460.8pt" xmlns="http://www.w3.org/2000/svg" xmlns:xlink="http://www.w3.org/1999/xlink">
 <defs>
  <style type="text/css">
*{stroke-linecap:butt;stroke-linejoin:round;}
  </style>
 </defs>
 <g id="figure_1">
  <g id="patch_1">
   <path d="M 0 345.6 
L 460.8 345.6 
L 460.8 0 
L 0 0 
z
" style="fill:#ffffff;"/>
  </g>
  <g id="axes_1">
   <g id="patch_2">
    <path d="M 57.6 307.584 
L 414.72 307.584 
L 414.72 41.472 
L 57.6 41.472 
z
" style="fill:#ffffff;"/>
   </g>
   <g id="matplotlib.axis_1">
    <g id="xtick_1">
     <g id="line2d_1">
      <defs>
       <path d="M 0 0 
L 0 3.5 
" id="mdf30986dce" style="stroke:#000000;stroke-width:0.8;"/>
      </defs>
      <g>
       <use style="stroke:#000000;stroke-width:0.8;" x="73.182117" xlink:href="#mdf30986dce" y="307.584"/>
      </g>
     </g>
     <g id="text_1">
      <!-- 0 -->
      <defs>
       <path d="M 31.78125 66.40625 
Q 24.171875 66.40625 20.328125 58.90625 
Q 16.5 51.421875 16.5 36.375 
Q 16.5 21.390625 20.328125 13.890625 
Q 24.171875 6.390625 31.78125 6.390625 
Q 39.453125 6.390625 43.28125 13.890625 
Q 47.125 21.390625 47.125 36.375 
Q 47.125 51.421875 43.28125 58.90625 
Q 39.453125 66.40625 31.78125 66.40625 
z
M 31.78125 74.21875 
Q 44.046875 74.21875 50.515625 64.515625 
Q 56.984375 54.828125 56.984375 36.375 
Q 56.984375 17.96875 50.515625 8.265625 
Q 44.046875 -1.421875 31.78125 -1.421875 
Q 19.53125 -1.421875 13.0625 8.265625 
Q 6.59375 17.96875 6.59375 36.375 
Q 6.59375 54.828125 13.0625 64.515625 
Q 19.53125 74.21875 31.78125 74.21875 
z
" id="DejaVuSans-48"/>
      </defs>
      <g transform="translate(70.000867 322.182437)scale(0.1 -0.1)">
       <use xlink:href="#DejaVuSans-48"/>
      </g>
     </g>
    </g>
    <g id="xtick_2">
     <g id="line2d_2">
      <g>
       <use style="stroke:#000000;stroke-width:0.8;" x="138.243148" xlink:href="#mdf30986dce" y="307.584"/>
      </g>
     </g>
     <g id="text_2">
      <!-- 100 -->
      <defs>
       <path d="M 12.40625 8.296875 
L 28.515625 8.296875 
L 28.515625 63.921875 
L 10.984375 60.40625 
L 10.984375 69.390625 
L 28.421875 72.90625 
L 38.28125 72.90625 
L 38.28125 8.296875 
L 54.390625 8.296875 
L 54.390625 0 
L 12.40625 0 
z
" id="DejaVuSans-49"/>
      </defs>
      <g transform="translate(128.699398 322.182437)scale(0.1 -0.1)">
       <use xlink:href="#DejaVuSans-49"/>
       <use x="63.623047" xlink:href="#DejaVuSans-48"/>
       <use x="127.246094" xlink:href="#DejaVuSans-48"/>
      </g>
     </g>
    </g>
    <g id="xtick_3">
     <g id="line2d_3">
      <g>
       <use style="stroke:#000000;stroke-width:0.8;" x="203.304179" xlink:href="#mdf30986dce" y="307.584"/>
      </g>
     </g>
     <g id="text_3">
      <!-- 200 -->
      <defs>
       <path d="M 19.1875 8.296875 
L 53.609375 8.296875 
L 53.609375 0 
L 7.328125 0 
L 7.328125 8.296875 
Q 12.9375 14.109375 22.625 23.890625 
Q 32.328125 33.6875 34.8125 36.53125 
Q 39.546875 41.84375 41.421875 45.53125 
Q 43.3125 49.21875 43.3125 52.78125 
Q 43.3125 58.59375 39.234375 62.25 
Q 35.15625 65.921875 28.609375 65.921875 
Q 23.96875 65.921875 18.8125 64.3125 
Q 13.671875 62.703125 7.8125 59.421875 
L 7.8125 69.390625 
Q 13.765625 71.78125 18.9375 73 
Q 24.125 74.21875 28.421875 74.21875 
Q 39.75 74.21875 46.484375 68.546875 
Q 53.21875 62.890625 53.21875 53.421875 
Q 53.21875 48.921875 51.53125 44.890625 
Q 49.859375 40.875 45.40625 35.40625 
Q 44.1875 33.984375 37.640625 27.21875 
Q 31.109375 20.453125 19.1875 8.296875 
z
" id="DejaVuSans-50"/>
      </defs>
      <g transform="translate(193.760429 322.182437)scale(0.1 -0.1)">
       <use xlink:href="#DejaVuSans-50"/>
       <use x="63.623047" xlink:href="#DejaVuSans-48"/>
       <use x="127.246094" xlink:href="#DejaVuSans-48"/>
      </g>
     </g>
    </g>
    <g id="xtick_4">
     <g id="line2d_4">
      <g>
       <use style="stroke:#000000;stroke-width:0.8;" x="268.36521" xlink:href="#mdf30986dce" y="307.584"/>
      </g>
     </g>
     <g id="text_4">
      <!-- 300 -->
      <defs>
       <path d="M 40.578125 39.3125 
Q 47.65625 37.796875 51.625 33 
Q 55.609375 28.21875 55.609375 21.1875 
Q 55.609375 10.40625 48.1875 4.484375 
Q 40.765625 -1.421875 27.09375 -1.421875 
Q 22.515625 -1.421875 17.65625 -0.515625 
Q 12.796875 0.390625 7.625 2.203125 
L 7.625 11.71875 
Q 11.71875 9.328125 16.59375 8.109375 
Q 21.484375 6.890625 26.8125 6.890625 
Q 36.078125 6.890625 40.9375 10.546875 
Q 45.796875 14.203125 45.796875 21.1875 
Q 45.796875 27.640625 41.28125 31.265625 
Q 36.765625 34.90625 28.71875 34.90625 
L 20.21875 34.90625 
L 20.21875 43.015625 
L 29.109375 43.015625 
Q 36.375 43.015625 40.234375 45.921875 
Q 44.09375 48.828125 44.09375 54.296875 
Q 44.09375 59.90625 40.109375 62.90625 
Q 36.140625 65.921875 28.71875 65.921875 
Q 24.65625 65.921875 20.015625 65.03125 
Q 15.375 64.15625 9.8125 62.3125 
L 9.8125 71.09375 
Q 15.4375 72.65625 20.34375 73.4375 
Q 25.25 74.21875 29.59375 74.21875 
Q 40.828125 74.21875 47.359375 69.109375 
Q 53.90625 64.015625 53.90625 55.328125 
Q 53.90625 49.265625 50.4375 45.09375 
Q 46.96875 40.921875 40.578125 39.3125 
z
" id="DejaVuSans-51"/>
      </defs>
      <g transform="translate(258.82146 322.182437)scale(0.1 -0.1)">
       <use xlink:href="#DejaVuSans-51"/>
       <use x="63.623047" xlink:href="#DejaVuSans-48"/>
       <use x="127.246094" xlink:href="#DejaVuSans-48"/>
      </g>
     </g>
    </g>
    <g id="xtick_5">
     <g id="line2d_5">
      <g>
       <use style="stroke:#000000;stroke-width:0.8;" x="333.426242" xlink:href="#mdf30986dce" y="307.584"/>
      </g>
     </g>
     <g id="text_5">
      <!-- 400 -->
      <defs>
       <path d="M 37.796875 64.3125 
L 12.890625 25.390625 
L 37.796875 25.390625 
z
M 35.203125 72.90625 
L 47.609375 72.90625 
L 47.609375 25.390625 
L 58.015625 25.390625 
L 58.015625 17.1875 
L 47.609375 17.1875 
L 47.609375 0 
L 37.796875 0 
L 37.796875 17.1875 
L 4.890625 17.1875 
L 4.890625 26.703125 
z
" id="DejaVuSans-52"/>
      </defs>
      <g transform="translate(323.882492 322.182437)scale(0.1 -0.1)">
       <use xlink:href="#DejaVuSans-52"/>
       <use x="63.623047" xlink:href="#DejaVuSans-48"/>
       <use x="127.246094" xlink:href="#DejaVuSans-48"/>
      </g>
     </g>
    </g>
    <g id="xtick_6">
     <g id="line2d_6">
      <g>
       <use style="stroke:#000000;stroke-width:0.8;" x="398.487273" xlink:href="#mdf30986dce" y="307.584"/>
      </g>
     </g>
     <g id="text_6">
      <!-- 500 -->
      <defs>
       <path d="M 10.796875 72.90625 
L 49.515625 72.90625 
L 49.515625 64.59375 
L 19.828125 64.59375 
L 19.828125 46.734375 
Q 21.96875 47.46875 24.109375 47.828125 
Q 26.265625 48.1875 28.421875 48.1875 
Q 40.625 48.1875 47.75 41.5 
Q 54.890625 34.8125 54.890625 23.390625 
Q 54.890625 11.625 47.5625 5.09375 
Q 40.234375 -1.421875 26.90625 -1.421875 
Q 22.3125 -1.421875 17.546875 -0.640625 
Q 12.796875 0.140625 7.71875 1.703125 
L 7.71875 11.625 
Q 12.109375 9.234375 16.796875 8.0625 
Q 21.484375 6.890625 26.703125 6.890625 
Q 35.15625 6.890625 40.078125 11.328125 
Q 45.015625 15.765625 45.015625 23.390625 
Q 45.015625 31 40.078125 35.4375 
Q 35.15625 39.890625 26.703125 39.890625 
Q 22.75 39.890625 18.8125 39.015625 
Q 14.890625 38.140625 10.796875 36.28125 
z
" id="DejaVuSans-53"/>
      </defs>
      <g transform="translate(388.943523 322.182437)scale(0.1 -0.1)">
       <use xlink:href="#DejaVuSans-53"/>
       <use x="63.623047" xlink:href="#DejaVuSans-48"/>
       <use x="127.246094" xlink:href="#DejaVuSans-48"/>
      </g>
     </g>
    </g>
   </g>
   <g id="matplotlib.axis_2">
    <g id="ytick_1">
     <g id="line2d_7">
      <defs>
       <path d="M 0 0 
L -3.5 0 
" id="m305d0911b8" style="stroke:#000000;stroke-width:0.8;"/>
      </defs>
      <g>
       <use style="stroke:#000000;stroke-width:0.8;" x="57.6" xlink:href="#m305d0911b8" y="299.633789"/>
      </g>
     </g>
     <g id="text_7">
      <!-- −0.00015 -->
      <defs>
       <path d="M 10.59375 35.5 
L 73.1875 35.5 
L 73.1875 27.203125 
L 10.59375 27.203125 
z
" id="DejaVuSans-8722"/>
       <path d="M 10.6875 12.40625 
L 21 12.40625 
L 21 0 
L 10.6875 0 
z
" id="DejaVuSans-46"/>
      </defs>
      <g transform="translate(0.867188 303.433007)scale(0.1 -0.1)">
       <use xlink:href="#DejaVuSans-8722"/>
       <use x="83.789062" xlink:href="#DejaVuSans-48"/>
       <use x="147.412109" xlink:href="#DejaVuSans-46"/>
       <use x="179.199219" xlink:href="#DejaVuSans-48"/>
       <use x="242.822266" xlink:href="#DejaVuSans-48"/>
       <use x="306.445312" xlink:href="#DejaVuSans-48"/>
       <use x="370.068359" xlink:href="#DejaVuSans-49"/>
       <use x="433.691406" xlink:href="#DejaVuSans-53"/>
      </g>
     </g>
    </g>
    <g id="ytick_2">
     <g id="line2d_8">
      <g>
       <use style="stroke:#000000;stroke-width:0.8;" x="57.6" xlink:href="#m305d0911b8" y="259.243822"/>
      </g>
     </g>
     <g id="text_8">
      <!-- −0.00010 -->
      <g transform="translate(0.867188 263.043041)scale(0.1 -0.1)">
       <use xlink:href="#DejaVuSans-8722"/>
       <use x="83.789062" xlink:href="#DejaVuSans-48"/>
       <use x="147.412109" xlink:href="#DejaVuSans-46"/>
       <use x="179.199219" xlink:href="#DejaVuSans-48"/>
       <use x="242.822266" xlink:href="#DejaVuSans-48"/>
       <use x="306.445312" xlink:href="#DejaVuSans-48"/>
       <use x="370.068359" xlink:href="#DejaVuSans-49"/>
       <use x="433.691406" xlink:href="#DejaVuSans-48"/>
      </g>
     </g>
    </g>
    <g id="ytick_3">
     <g id="line2d_9">
      <g>
       <use style="stroke:#000000;stroke-width:0.8;" x="57.6" xlink:href="#m305d0911b8" y="218.853856"/>
      </g>
     </g>
     <g id="text_9">
      <!-- −0.00005 -->
      <g transform="translate(0.867188 222.653075)scale(0.1 -0.1)">
       <use xlink:href="#DejaVuSans-8722"/>
       <use x="83.789062" xlink:href="#DejaVuSans-48"/>
       <use x="147.412109" xlink:href="#DejaVuSans-46"/>
       <use x="179.199219" xlink:href="#DejaVuSans-48"/>
       <use x="242.822266" xlink:href="#DejaVuSans-48"/>
       <use x="306.445312" xlink:href="#DejaVuSans-48"/>
       <use x="370.068359" xlink:href="#DejaVuSans-48"/>
       <use x="433.691406" xlink:href="#DejaVuSans-53"/>
      </g>
     </g>
    </g>
    <g id="ytick_4">
     <g id="line2d_10">
      <g>
       <use style="stroke:#000000;stroke-width:0.8;" x="57.6" xlink:href="#m305d0911b8" y="178.46389"/>
      </g>
     </g>
     <g id="text_10">
      <!-- 0.00000 -->
      <g transform="translate(9.246875 182.263109)scale(0.1 -0.1)">
       <use xlink:href="#DejaVuSans-48"/>
       <use x="63.623047" xlink:href="#DejaVuSans-46"/>
       <use x="95.410156" xlink:href="#DejaVuSans-48"/>
       <use x="159.033203" xlink:href="#DejaVuSans-48"/>
       <use x="222.65625" xlink:href="#DejaVuSans-48"/>
       <use x="286.279297" xlink:href="#DejaVuSans-48"/>
       <use x="349.902344" xlink:href="#DejaVuSans-48"/>
      </g>
     </g>
    </g>
    <g id="ytick_5">
     <g id="line2d_11">
      <g>
       <use style="stroke:#000000;stroke-width:0.8;" x="57.6" xlink:href="#m305d0911b8" y="138.073924"/>
      </g>
     </g>
     <g id="text_11">
      <!-- 0.00005 -->
      <g transform="translate(9.246875 141.873143)scale(0.1 -0.1)">
       <use xlink:href="#DejaVuSans-48"/>
       <use x="63.623047" xlink:href="#DejaVuSans-46"/>
       <use x="95.410156" xlink:href="#DejaVuSans-48"/>
       <use x="159.033203" xlink:href="#DejaVuSans-48"/>
       <use x="222.65625" xlink:href="#DejaVuSans-48"/>
       <use x="286.279297" xlink:href="#DejaVuSans-48"/>
       <use x="349.902344" xlink:href="#DejaVuSans-53"/>
      </g>
     </g>
    </g>
    <g id="ytick_6">
     <g id="line2d_12">
      <g>
       <use style="stroke:#000000;stroke-width:0.8;" x="57.6" xlink:href="#m305d0911b8" y="97.683958"/>
      </g>
     </g>
     <g id="text_12">
      <!-- 0.00010 -->
      <g transform="translate(9.246875 101.483177)scale(0.1 -0.1)">
       <use xlink:href="#DejaVuSans-48"/>
       <use x="63.623047" xlink:href="#DejaVuSans-46"/>
       <use x="95.410156" xlink:href="#DejaVuSans-48"/>
       <use x="159.033203" xlink:href="#DejaVuSans-48"/>
       <use x="222.65625" xlink:href="#DejaVuSans-48"/>
       <use x="286.279297" xlink:href="#DejaVuSans-49"/>
       <use x="349.902344" xlink:href="#DejaVuSans-48"/>
      </g>
     </g>
    </g>
    <g id="ytick_7">
     <g id="line2d_13">
      <g>
       <use style="stroke:#000000;stroke-width:0.8;" x="57.6" xlink:href="#m305d0911b8" y="57.293992"/>
      </g>
     </g>
     <g id="text_13">
      <!-- 0.00015 -->
      <g transform="translate(9.246875 61.09321)scale(0.1 -0.1)">
       <use xlink:href="#DejaVuSans-48"/>
       <use x="63.623047" xlink:href="#DejaVuSans-46"/>
       <use x="95.410156" xlink:href="#DejaVuSans-48"/>
       <use x="159.033203" xlink:href="#DejaVuSans-48"/>
       <use x="222.65625" xlink:href="#DejaVuSans-48"/>
       <use x="286.279297" xlink:href="#DejaVuSans-49"/>
       <use x="349.902344" xlink:href="#DejaVuSans-53"/>
      </g>
     </g>
    </g>
   </g>
   <g id="line2d_14">
    <path clip-path="url(#p6ecc279ef9)" d="M 74.262638 -1 
L 74.483338 257.555913 
L 75.133948 107.659005 
L 75.802985 346.6 
M 77.274999 346.6 
L 77.50674 -1 
M 79.326891 -1 
L 79.668962 346.6 
M 81.341208 346.6 
L 81.750977 -1 
M 82.467552 -1 
L 82.716064 346.6 
M 83.868713 346.6 
L 84.122597 -1 
M 85.278463 -1 
L 85.443242 346.6 
M 85.862344 346.6 
L 86.194323 125.778717 
L 86.507947 -1 
M 86.96195 -1 
L 87.260541 346.6 
M 87.676813 346.6 
L 87.907131 -1 
M 88.789103 -1 
L 88.796764 3.298358 
L 88.9684 346.6 
M 90.99873 346.6 
L 91.213267 -1 
M 91.992907 -1 
L 92.049816 27.877572 
L 92.350099 346.6 
M 92.873682 346.6 
L 93.035644 -1 
M 93.817582 -1 
L 94.001647 266.053744 
L 94.652257 3.353026 
L 95.288742 346.6 
M 96.354879 346.6 
L 96.604088 166.791039 
L 97.254698 166.791039 
L 97.350601 -1 
M 98.39573 -1 
L 98.555919 316.00542 
L 98.810716 -1 
M 99.86138 -1 
L 100.13957 346.6 
M 100.87159 346.6 
L 101.146502 -1 
M 101.421917 -1 
L 101.808971 21.020228 
L 102.459581 328.559735 
L 102.850642 -1 
M 103.451545 -1 
L 103.760802 197.162715 
L 104.411412 92.602892 
L 104.970699 346.6 
M 105.092347 346.6 
L 105.346506 -1 
M 108.128835 -1 
L 108.315074 327.826797 
L 108.315074 327.826797 
L 109.28635 -1 
M 110.487463 -1 
L 110.665045 346.6 
M 111.729892 346.6 
L 111.843675 -1 
M 113.32113 -1 
L 113.458188 346.6 
M 115.69784 346.6 
L 115.969063 -1 
M 116.21293 -1 
L 116.373067 346.6 
M 118.797878 346.6 
L 119.217624 -1 
M 119.563815 -1 
L 120.026059 319.730203 
L 120.026059 319.730203 
L 120.224865 -1 
M 121.694044 -1 
L 121.86895 346.6 
M 122.246394 346.6 
L 122.628501 38.496284 
L 123.279111 38.496284 
L 123.423682 346.6 
M 124.553445 346.6 
L 124.580332 300.111804 
L 125.230942 300.111804 
L 125.823445 346.6 
M 126.942974 346.6 
L 127.114415 -1 
M 127.335958 -1 
L 127.720146 346.6 
M 128.362848 346.6 
L 128.483993 323.158159 
L 129.134604 323.158159 
L 129.785214 261.409354 
L 130.435824 71.750939 
L 131.086435 283.371229 
L 131.390886 -1 
M 131.86512 -1 
L 132.002811 346.6 
M 132.701581 346.6 
L 132.813898 -1 
M 135.851561 -1 
L 136.038801 346.6 
M 136.781008 346.6 
L 136.941927 192.551506 
L 137.592538 104.31111 
L 138.012925 -1 
M 140.793122 -1 
L 140.968207 346.6 
M 141.986895 346.6 
L 142.14681 4.259048 
L 142.555266 346.6 
M 147.456016 346.6 
L 147.625291 -1 
M 149.138505 -1 
L 149.303523 262.089139 
L 150.604744 262.089139 
L 151.255354 172.840104 
L 151.785106 346.6 
M 154.771938 346.6 
L 155.159016 82.25208 
L 156.460237 82.25208 
L 157.110847 19.409932 
L 157.409991 346.6 
M 158.63776 346.6 
L 158.841836 -1 
M 159.230105 -1 
L 159.384821 346.6 
M 161.784503 346.6 
L 162.168763 -1 
M 162.489666 -1 
L 162.944443 346.6 
M 166.467374 346.6 
L 166.695198 -1 
M 167.827119 -1 
L 168.171222 298.418691 
L 168.457061 -1 
M 169.138198 -1 
L 169.425996 346.6 
M 170.830839 346.6 
L 171.185111 -1 
M 173.163434 -1 
L 173.376105 112.953947 
L 174.026715 112.953947 
L 174.201777 346.6 
M 175.834309 346.6 
L 175.978546 165.812447 
L 176.154106 346.6 
M 176.932788 346.6 
L 177.148534 -1 
M 178.735443 -1 
L 178.989367 346.6 
M 180.424568 346.6 
L 180.532818 197.610175 
L 180.845212 -1 
M 181.318986 -1 
L 181.53812 346.6 
M 182.328964 346.6 
L 182.484649 198.943506 
L 184.43648 198.943506 
L 185.087091 176.507451 
L 185.737701 75.10499 
L 186.388311 75.10499 
L 186.802658 346.6 
M 187.151211 346.6 
L 187.403339 -1 
M 188.036222 -1 
L 188.340142 344.885547 
L 188.990752 92.20315 
L 189.459238 346.6 
M 189.83873 346.6 
L 190.291973 119.487053 
L 190.455675 346.6 
M 191.436901 346.6 
L 191.676491 -1 
M 195.061791 -1 
L 195.496856 61.063459 
L 195.676527 346.6 
M 197.988568 346.6 
L 198.099297 193.100851 
L 198.749907 193.100851 
L 199.400517 241.307959 
L 199.494358 346.6 
M 201.159339 346.6 
L 201.352348 229.74604 
L 202.002959 229.74604 
L 202.653569 243.937883 
L 202.935355 346.6 
M 204.206692 346.6 
L 204.765464 -1 
M 205.582252 -1 
L 205.856515 346.6 
M 206.599044 346.6 
L 206.827915 -1 
M 208.122765 -1 
L 208.448252 346.6 
M 209.386942 346.6 
L 209.470212 -1 
M 211.800523 -1 
L 211.924753 346.6 
M 215.271212 346.6 
L 215.586478 -1 
M 218.506432 -1 
L 218.685024 346.6 
M 219.344781 346.6 
L 219.569437 106.594415 
L 219.569437 106.594415 
L 220.220047 106.594415 
L 220.220047 106.594415 
L 220.40546 346.6 
M 221.230548 346.6 
L 221.438293 -1 
M 223.251056 -1 
L 223.473099 106.797102 
L 223.473099 106.797102 
L 223.639568 -1 
M 224.742557 -1 
L 224.77432 15.090765 
L 224.77432 15.090765 
L 226.07554 15.090765 
L 226.07554 15.090765 
L 226.45855 346.6 
M 227.050144 346.6 
L 227.376761 113.105622 
L 227.376761 113.105622 
L 227.611354 346.6 
M 228.236197 346.6 
L 228.411502 -1 
M 229.378194 -1 
L 229.577456 346.6 
M 235.286804 346.6 
L 235.496026 -1 
M 258.545701 -1 
L 272.576078 346.6 
M 311.860605 346.6 
L 311.956101 181.53513 
L 312.606712 181.53513 
L 312.740664 -1 
M 313.9205 -1 
L 314.192517 346.6 
M 314.946005 346.6 
L 315.209153 28.937125 
L 315.859763 28.937125 
L 316.098913 -1 
M 316.607947 -1 
L 317.160984 290.935638 
L 317.811594 136.46922 
L 319.112815 136.46922 
L 319.293571 -1 
M 320.02223 -1 
L 320.273985 346.6 
M 320.53292 346.6 
L 320.746627 -1 
M 321.912411 -1 
L 322.493881 346.6 
M 323.248655 346.6 
L 323.479932 -1 
M 324.144595 -1 
L 324.317697 100.970273 
L 324.431099 -1 
M 326.159419 -1 
L 326.269528 97.407147 
L 326.920138 28.410047 
L 327.570749 28.410047 
L 327.82134 346.6 
M 331.147746 346.6 
L 331.481814 -1 
M 332.817778 -1 
L 333.074376 346.6 
M 333.773926 346.6 
L 334.027476 -1 
M 335.463789 -1 
L 335.903951 346.6 
M 336.769807 346.6 
L 337.089217 -1 
M 337.746163 -1 
L 337.980514 146.463887 
L 339.281734 146.463887 
L 339.405579 346.6 
M 340.833434 346.6 
L 340.935713 -1 
M 341.81736 -1 
L 341.884176 114.855241 
L 343.185396 114.855241 
L 343.415584 346.6 
M 344.545552 346.6 
L 344.869896 -1 
M 347.457596 -1 
L 347.947011 346.6 
M 349.158898 346.6 
L 349.308429 -1 
M 351.410282 -1 
L 351.64333 182.739441 
L 352.293941 300.055972 
L 352.421952 346.6 
M 354.649983 346.6 
L 354.896382 63.120323 
L 355.097946 346.6 
M 356.75436 346.6 
L 356.848213 249.758999 
L 358.800044 249.758999 
L 358.946493 -1 
M 360.608826 -1 
L 360.751875 242.296389 
L 362.703706 242.296389 
L 362.843818 346.6 
M 364.114472 346.6 
L 364.242726 -1 
M 365.105833 -1 
L 365.245733 346.6 
M 365.446611 346.6 
L 365.771883 -1 
M 370.126633 -1 
L 370.300955 346.6 
M 372.901694 346.6 
L 373.113471 127.447797 
L 373.229856 346.6 
M 374.10497 346.6 
L 374.222764 -1 
M 374.989312 -1 
L 375.272505 346.6 
M 376.209319 346.6 
L 376.366522 160.669645 
L 376.900314 346.6 
M 377.708934 346.6 
L 378.060811 -1 
M 379.2978 -1 
L 379.50073 346.6 
M 379.760304 346.6 
L 380.000606 -1 
M 380.552798 -1 
L 380.80472 346.6 
M 381.114153 346.6 
L 381.53381 -1 
M 381.625991 -1 
L 382.222015 339.008617 
L 382.486403 -1 
M 383.075299 -1 
L 383.217137 346.6 
M 383.697115 346.6 
L 383.777686 -1 
M 386.014063 -1 
L 386.125677 66.527291 
L 386.776287 230.241192 
L 386.873995 346.6 
M 387.902974 346.6 
L 388.077508 105.208745 
L 388.728118 303.013294 
L 389.073131 -1 
M 389.810647 -1 
L 390.029339 135.344205 
L 390.679949 215.090108 
L 391.223453 -1 
M 392.008716 -1 
L 392.233572 346.6 
M 394.427199 346.6 
L 394.583611 180.99842 
L 395.234221 158.555333 
L 395.884831 158.555333 
L 396.535442 71.405213 
L 397.186052 71.405213 
L 397.445906 346.6 
L 397.445906 346.6 
" style="fill:none;stroke:#1f77b4;stroke-linecap:square;stroke-width:1.5;"/>
   </g>
   <g id="line2d_15">
    <path clip-path="url(#p6ecc279ef9)" d="M 75.10722 -1 
L 75.133948 33.296282 
L 75.184505 -1 
M 76.080431 -1 
L 76.333086 346.6 
M 76.617039 346.6 
L 77.067171 -1 
M 77.292364 -1 
L 77.736389 29.885657 
L 77.779516 -1 
M 78.640951 -1 
L 78.843854 346.6 
M 79.969169 346.6 
L 80.081016 -1 
M 81.168631 -1 
L 81.402406 346.6 
M 82.550962 346.6 
L 82.721389 -1 
M 83.247807 -1 
L 83.485396 346.6 
M 83.709678 346.6 
L 83.972502 -1 
M 84.94086 -1 
L 85.075176 346.6 
M 85.985405 346.6 
L 86.112024 -1 
M 86.44472 -1 
L 86.829963 346.6 
M 86.879584 346.6 
L 87.495544 106.48499 
L 88.146154 235.061929 
L 88.266884 346.6 
M 89.230053 346.6 
L 89.447375 101.065727 
L 90.097985 101.065727 
L 90.748595 219.360693 
L 91.399206 181.516198 
L 91.759297 346.6 
M 92.195401 346.6 
L 92.575355 -1 
M 95.109565 -1 
L 95.302868 147.129701 
L 95.953478 70.595654 
L 96.604088 299.096095 
L 97.254698 299.096095 
L 97.905309 47.605174 
L 98.177943 346.6 
M 98.886003 346.6 
L 99.162798 -1 
M 99.295766 -1 
L 99.85714 344.486986 
L 100.033979 -1 
M 102.282523 -1 
L 102.459581 69.15926 
L 102.621311 -1 
M 103.870063 -1 
L 104.248209 346.6 
M 104.481579 346.6 
L 104.64416 -1 
M 105.559656 -1 
L 105.712633 273.637447 
L 106.363243 273.637447 
L 106.363243 273.637447 
L 107.013853 45.715256 
L 107.013853 45.715256 
L 107.664463 45.715256 
L 107.664463 45.715256 
L 107.71909 -1 
M 108.646337 -1 
L 108.872261 346.6 
M 112.098903 346.6 
L 112.218736 69.834797 
L 112.218736 69.834797 
L 112.869346 69.834797 
L 112.869346 69.834797 
L 113.05355 346.6 
M 115.294136 346.6 
L 115.404515 -1 
M 115.558097 -1 
L 115.699712 346.6 
M 116.718868 346.6 
L 116.773008 252.428584 
L 116.773008 252.428584 
L 117.423618 252.428584 
L 117.423618 252.428584 
L 117.633861 -1 
M 118.832431 -1 
L 118.939637 346.6 
M 119.822331 346.6 
L 119.93226 -1 
M 121.712373 -1 
L 122.123181 346.6 
M 123.605511 346.6 
L 123.817248 -1 
M 126.633079 -1 
L 127.032935 346.6 
M 127.281183 346.6 
L 127.5438 -1 
M 128.111003 -1 
L 128.36277 346.6 
M 129.420056 346.6 
L 129.785214 132.499422 
L 130.435824 118.045754 
L 130.854034 -1 
M 135.176995 -1 
L 135.357928 346.6 
M 135.958793 346.6 
L 136.162316 -1 
M 137.159311 -1 
L 137.592538 333.786727 
L 138.243148 57.41131 
L 138.893758 57.41131 
L 138.944962 -1 
M 140.297003 -1 
L 140.845589 92.030833 
L 141.530891 346.6 
M 145.375606 346.6 
L 145.399862 338.805962 
L 146.701082 338.805962 
L 147.129409 -1 
M 147.585821 -1 
L 148.002303 312.693748 
L 148.652913 312.693748 
L 148.81023 346.6 
M 152.710773 346.6 
L 153.111232 -1 
M 157.515491 -1 
L 157.761457 191.615622 
L 158.412068 191.615622 
L 158.913003 346.6 
M 159.10905 346.6 
L 159.457131 -1 
M 160.148883 -1 
L 160.363899 125.268289 
L 160.927938 346.6 
M 164.901204 346.6 
L 164.918171 342.413709 
L 166.219392 342.413709 
L 166.226318 346.6 
M 168.812655 346.6 
L 168.821833 343.819689 
L 169.435109 -1 
M 170.787592 -1 
L 171.018237 346.6 
M 173.038115 346.6 
L 173.215696 -1 
M 174.215565 -1 
L 174.42463 346.6 
M 175.495309 346.6 
L 175.633785 -1 
M 176.467996 -1 
L 176.629156 283.954883 
L 177.279767 131.042037 
L 178.580987 131.042037 
L 178.690453 -1 
M 181.866204 -1 
L 182.484649 297.310053 
L 184.43648 297.310053 
L 184.614597 -1 
M 185.488566 -1 
L 185.664917 346.6 
M 187.227485 346.6 
L 187.609335 -1 
M 188.353076 -1 
L 188.990752 51.191428 
L 189.641363 308.396755 
L 190.034224 -1 
M 191.279975 -1 
L 191.4047 346.6 
M 194.576079 346.6 
L 194.829084 -1 
M 195.716813 -1 
L 195.90558 346.6 
M 197.577184 346.6 
L 197.677463 -1 
M 199.5263 -1 
L 199.900053 346.6 
M 200.152876 346.6 
L 200.404598 -1 
M 201.079988 -1 
L 201.352348 294.450892 
L 202.002959 294.450892 
L 202.653569 292.094223 
L 203.112138 -1 
M 205.300922 -1 
L 205.504889 346.6 
M 207.032808 346.6 
L 207.319072 -1 
M 209.452717 -1 
L 209.685802 346.6 
M 209.895505 346.6 
L 210.05508 -1 
M 212.939269 -1 
L 213.063334 129.769073 
L 213.063334 129.769073 
L 214.364555 129.769073 
L 214.364555 129.769073 
L 214.475825 346.6 
M 215.984871 346.6 
L 216.190382 -1 
M 218.575425 -1 
L 218.918827 237.229427 
L 218.918827 237.229427 
L 219.051075 -1 
M 223.228767 -1 
L 223.375651 346.6 
M 224.014297 346.6 
L 224.123709 299.978554 
L 224.123709 299.978554 
L 224.77432 174.997862 
L 224.77432 174.997862 
L 226.07554 174.997862 
L 226.07554 174.997862 
L 226.437746 346.6 
M 226.82418 346.6 
L 227.073562 -1 
M 228.130704 -1 
L 228.677981 249.323285 
L 228.677981 249.323285 
L 228.809328 -1 
M 229.677765 -1 
L 229.800411 346.6 
M 230.213205 346.6 
L 230.373724 -1 
M 230.97429 -1 
L 231.190213 346.6 
M 234.16897 346.6 
L 234.533474 161.583285 
L 234.533474 161.583285 
L 235.184085 206.156335 
L 235.184085 206.156335 
L 235.834695 242.619274 
L 235.834695 242.619274 
L 311.305491 171.9419 
L 311.753387 346.6 
M 312.648723 346.6 
L 312.833458 -1 
M 313.537426 -1 
L 313.659506 346.6 
M 314.970981 346.6 
L 315.209153 84.422221 
L 315.859763 84.422221 
L 316.510373 250.865073 
L 317.160984 322.703075 
L 317.374503 -1 
M 320.537902 -1 
L 320.68482 346.6 
M 321.692937 346.6 
L 321.715256 314.676892 
L 321.776254 346.6 
M 322.579664 346.6 
L 322.820504 -1 
M 323.593766 -1 
L 323.667087 34.923734 
L 323.831764 -1 
M 324.454351 -1 
L 324.902452 346.6 
M 329.848676 346.6 
L 330.061592 -1 
M 330.914158 -1 
L 331.086551 346.6 
M 332.39554 346.6 
L 332.775631 22.021496 
L 333.152742 346.6 
M 335.423904 346.6 
L 336.028683 217.658378 
L 336.679293 217.658378 
L 336.874376 346.6 
M 339.35912 346.6 
L 339.738333 -1 
M 340.763866 -1 
L 341.117472 346.6 
M 341.310097 346.6 
L 341.543204 -1 
M 344.105061 -1 
L 344.486617 102.347055 
L 344.622774 -1 
M 349.451623 -1 
L 349.663035 346.6 
M 350.36734 346.6 
L 350.554726 -1 
M 351.985644 -1 
L 352.184654 346.6 
M 353.568204 346.6 
L 353.595161 331.412566 
L 353.920944 -1 
M 354.431651 -1 
L 354.626594 346.6 
M 355.100996 346.6 
L 355.248846 -1 
M 359.214357 -1 
L 359.450654 147.067289 
L 360.101264 147.067289 
L 360.292744 346.6 
M 363.080364 346.6 
L 363.354015 -1 
M 369.392157 -1 
L 369.655667 346.6 
M 369.990338 346.6 
L 370.15754 -1 
M 371.428936 -1 
L 371.664121 346.6 
M 371.94878 346.6 
L 372.165551 -1 
M 372.849504 -1 
L 373.113471 324.47993 
L 373.764081 17.545368 
L 374.414691 245.745688 
L 375.065302 122.042174 
L 375.524811 346.6 
M 376.026492 346.6 
L 376.366522 244.355434 
L 376.824359 -1 
M 377.721034 -1 
L 377.900345 346.6 
M 379.23782 346.6 
L 379.353118 -1 
M 380.692056 -1 
L 380.920794 147.97139 
L 381.16687 -1 
M 381.779524 -1 
L 382.074918 346.6 
M 383.415304 346.6 
L 383.523236 119.863077 
L 384.173846 155.18714 
L 384.824456 155.18714 
L 385.039526 346.6 
M 385.592116 346.6 
L 385.697077 -1 
M 386.820649 -1 
L 387.210126 346.6 
M 387.587996 346.6 
L 387.877447 -1 
M 388.232946 -1 
L 388.457835 346.6 
M 390.20872 346.6 
L 390.410804 -1 
M 392.450785 -1 
L 392.63178 222.79591 
L 393.28239 222.79591 
L 393.535511 -1 
M 394.373557 -1 
L 394.583611 166.562541 
L 395.234221 202.222416 
L 395.884831 202.222416 
L 396.535442 171.11195 
L 397.186052 171.11195 
L 397.395398 346.6 
M 398.065289 346.6 
L 398.280135 -1 
L 398.280135 -1 
" style="fill:none;stroke:#ff7f0e;stroke-linecap:square;stroke-width:1.5;"/>
   </g>
   <g id="patch_3">
    <path d="M 57.6 307.584 
L 57.6 41.472 
" style="fill:none;stroke:#000000;stroke-linecap:square;stroke-linejoin:miter;stroke-width:0.8;"/>
   </g>
   <g id="patch_4">
    <path d="M 414.72 307.584 
L 414.72 41.472 
" style="fill:none;stroke:#000000;stroke-linecap:square;stroke-linejoin:miter;stroke-width:0.8;"/>
   </g>
   <g id="patch_5">
    <path d="M 57.6 307.584 
L 414.72 307.584 
" style="fill:none;stroke:#000000;stroke-linecap:square;stroke-linejoin:miter;stroke-width:0.8;"/>
   </g>
   <g id="patch_6">
    <path d="M 57.6 41.472 
L 414.72 41.472 
" style="fill:none;stroke:#000000;stroke-linecap:square;stroke-linejoin:miter;stroke-width:0.8;"/>
   </g>
   <g id="text_14">
    <!-- Polyakov loop 1 direction -->
    <defs>
     <path d="M 19.671875 64.796875 
L 19.671875 37.40625 
L 32.078125 37.40625 
Q 38.96875 37.40625 42.71875 40.96875 
Q 46.484375 44.53125 46.484375 51.125 
Q 46.484375 57.671875 42.71875 61.234375 
Q 38.96875 64.796875 32.078125 64.796875 
z
M 9.8125 72.90625 
L 32.078125 72.90625 
Q 44.34375 72.90625 50.609375 67.359375 
Q 56.890625 61.8125 56.890625 51.125 
Q 56.890625 40.328125 50.609375 34.8125 
Q 44.34375 29.296875 32.078125 29.296875 
L 19.671875 29.296875 
L 19.671875 0 
L 9.8125 0 
z
" id="DejaVuSans-80"/>
     <path d="M 30.609375 48.390625 
Q 23.390625 48.390625 19.1875 42.75 
Q 14.984375 37.109375 14.984375 27.296875 
Q 14.984375 17.484375 19.15625 11.84375 
Q 23.34375 6.203125 30.609375 6.203125 
Q 37.796875 6.203125 41.984375 11.859375 
Q 46.1875 17.53125 46.1875 27.296875 
Q 46.1875 37.015625 41.984375 42.703125 
Q 37.796875 48.390625 30.609375 48.390625 
z
M 30.609375 56 
Q 42.328125 56 49.015625 48.375 
Q 55.71875 40.765625 55.71875 27.296875 
Q 55.71875 13.875 49.015625 6.21875 
Q 42.328125 -1.421875 30.609375 -1.421875 
Q 18.84375 -1.421875 12.171875 6.21875 
Q 5.515625 13.875 5.515625 27.296875 
Q 5.515625 40.765625 12.171875 48.375 
Q 18.84375 56 30.609375 56 
z
" id="DejaVuSans-111"/>
     <path d="M 9.421875 75.984375 
L 18.40625 75.984375 
L 18.40625 0 
L 9.421875 0 
z
" id="DejaVuSans-108"/>
     <path d="M 32.171875 -5.078125 
Q 28.375 -14.84375 24.75 -17.8125 
Q 21.140625 -20.796875 15.09375 -20.796875 
L 7.90625 -20.796875 
L 7.90625 -13.28125 
L 13.1875 -13.28125 
Q 16.890625 -13.28125 18.9375 -11.515625 
Q 21 -9.765625 23.484375 -3.21875 
L 25.09375 0.875 
L 2.984375 54.6875 
L 12.5 54.6875 
L 29.59375 11.921875 
L 46.6875 54.6875 
L 56.203125 54.6875 
z
" id="DejaVuSans-121"/>
     <path d="M 34.28125 27.484375 
Q 23.390625 27.484375 19.1875 25 
Q 14.984375 22.515625 14.984375 16.5 
Q 14.984375 11.71875 18.140625 8.90625 
Q 21.296875 6.109375 26.703125 6.109375 
Q 34.1875 6.109375 38.703125 11.40625 
Q 43.21875 16.703125 43.21875 25.484375 
L 43.21875 27.484375 
z
M 52.203125 31.203125 
L 52.203125 0 
L 43.21875 0 
L 43.21875 8.296875 
Q 40.140625 3.328125 35.546875 0.953125 
Q 30.953125 -1.421875 24.3125 -1.421875 
Q 15.921875 -1.421875 10.953125 3.296875 
Q 6 8.015625 6 15.921875 
Q 6 25.140625 12.171875 29.828125 
Q 18.359375 34.515625 30.609375 34.515625 
L 43.21875 34.515625 
L 43.21875 35.40625 
Q 43.21875 41.609375 39.140625 45 
Q 35.0625 48.390625 27.6875 48.390625 
Q 23 48.390625 18.546875 47.265625 
Q 14.109375 46.140625 10.015625 43.890625 
L 10.015625 52.203125 
Q 14.9375 54.109375 19.578125 55.046875 
Q 24.21875 56 28.609375 56 
Q 40.484375 56 46.34375 49.84375 
Q 52.203125 43.703125 52.203125 31.203125 
z
" id="DejaVuSans-97"/>
     <path d="M 9.078125 75.984375 
L 18.109375 75.984375 
L 18.109375 31.109375 
L 44.921875 54.6875 
L 56.390625 54.6875 
L 27.390625 29.109375 
L 57.625 0 
L 45.90625 0 
L 18.109375 26.703125 
L 18.109375 0 
L 9.078125 0 
z
" id="DejaVuSans-107"/>
     <path d="M 2.984375 54.6875 
L 12.5 54.6875 
L 29.59375 8.796875 
L 46.6875 54.6875 
L 56.203125 54.6875 
L 35.6875 0 
L 23.484375 0 
z
" id="DejaVuSans-118"/>
     <path id="DejaVuSans-32"/>
     <path d="M 18.109375 8.203125 
L 18.109375 -20.796875 
L 9.078125 -20.796875 
L 9.078125 54.6875 
L 18.109375 54.6875 
L 18.109375 46.390625 
Q 20.953125 51.265625 25.265625 53.625 
Q 29.59375 56 35.59375 56 
Q 45.5625 56 51.78125 48.09375 
Q 58.015625 40.1875 58.015625 27.296875 
Q 58.015625 14.40625 51.78125 6.484375 
Q 45.5625 -1.421875 35.59375 -1.421875 
Q 29.59375 -1.421875 25.265625 0.953125 
Q 20.953125 3.328125 18.109375 8.203125 
z
M 48.6875 27.296875 
Q 48.6875 37.203125 44.609375 42.84375 
Q 40.53125 48.484375 33.40625 48.484375 
Q 26.265625 48.484375 22.1875 42.84375 
Q 18.109375 37.203125 18.109375 27.296875 
Q 18.109375 17.390625 22.1875 11.75 
Q 26.265625 6.109375 33.40625 6.109375 
Q 40.53125 6.109375 44.609375 11.75 
Q 48.6875 17.390625 48.6875 27.296875 
z
" id="DejaVuSans-112"/>
     <path d="M 45.40625 46.390625 
L 45.40625 75.984375 
L 54.390625 75.984375 
L 54.390625 0 
L 45.40625 0 
L 45.40625 8.203125 
Q 42.578125 3.328125 38.25 0.953125 
Q 33.9375 -1.421875 27.875 -1.421875 
Q 17.96875 -1.421875 11.734375 6.484375 
Q 5.515625 14.40625 5.515625 27.296875 
Q 5.515625 40.1875 11.734375 48.09375 
Q 17.96875 56 27.875 56 
Q 33.9375 56 38.25 53.625 
Q 42.578125 51.265625 45.40625 46.390625 
z
M 14.796875 27.296875 
Q 14.796875 17.390625 18.875 11.75 
Q 22.953125 6.109375 30.078125 6.109375 
Q 37.203125 6.109375 41.296875 11.75 
Q 45.40625 17.390625 45.40625 27.296875 
Q 45.40625 37.203125 41.296875 42.84375 
Q 37.203125 48.484375 30.078125 48.484375 
Q 22.953125 48.484375 18.875 42.84375 
Q 14.796875 37.203125 14.796875 27.296875 
z
" id="DejaVuSans-100"/>
     <path d="M 9.421875 54.6875 
L 18.40625 54.6875 
L 18.40625 0 
L 9.421875 0 
z
M 9.421875 75.984375 
L 18.40625 75.984375 
L 18.40625 64.59375 
L 9.421875 64.59375 
z
" id="DejaVuSans-105"/>
     <path d="M 41.109375 46.296875 
Q 39.59375 47.171875 37.8125 47.578125 
Q 36.03125 48 33.890625 48 
Q 26.265625 48 22.1875 43.046875 
Q 18.109375 38.09375 18.109375 28.8125 
L 18.109375 0 
L 9.078125 0 
L 9.078125 54.6875 
L 18.109375 54.6875 
L 18.109375 46.1875 
Q 20.953125 51.171875 25.484375 53.578125 
Q 30.03125 56 36.53125 56 
Q 37.453125 56 38.578125 55.875 
Q 39.703125 55.765625 41.0625 55.515625 
z
" id="DejaVuSans-114"/>
     <path d="M 56.203125 29.59375 
L 56.203125 25.203125 
L 14.890625 25.203125 
Q 15.484375 15.921875 20.484375 11.0625 
Q 25.484375 6.203125 34.421875 6.203125 
Q 39.59375 6.203125 44.453125 7.46875 
Q 49.3125 8.734375 54.109375 11.28125 
L 54.109375 2.78125 
Q 49.265625 0.734375 44.1875 -0.34375 
Q 39.109375 -1.421875 33.890625 -1.421875 
Q 20.796875 -1.421875 13.15625 6.1875 
Q 5.515625 13.8125 5.515625 26.8125 
Q 5.515625 40.234375 12.765625 48.109375 
Q 20.015625 56 32.328125 56 
Q 43.359375 56 49.78125 48.890625 
Q 56.203125 41.796875 56.203125 29.59375 
z
M 47.21875 32.234375 
Q 47.125 39.59375 43.09375 43.984375 
Q 39.0625 48.390625 32.421875 48.390625 
Q 24.90625 48.390625 20.390625 44.140625 
Q 15.875 39.890625 15.1875 32.171875 
z
" id="DejaVuSans-101"/>
     <path d="M 48.78125 52.59375 
L 48.78125 44.1875 
Q 44.96875 46.296875 41.140625 47.34375 
Q 37.3125 48.390625 33.40625 48.390625 
Q 24.65625 48.390625 19.8125 42.84375 
Q 14.984375 37.3125 14.984375 27.296875 
Q 14.984375 17.28125 19.8125 11.734375 
Q 24.65625 6.203125 33.40625 6.203125 
Q 37.3125 6.203125 41.140625 7.25 
Q 44.96875 8.296875 48.78125 10.40625 
L 48.78125 2.09375 
Q 45.015625 0.34375 40.984375 -0.53125 
Q 36.96875 -1.421875 32.421875 -1.421875 
Q 20.0625 -1.421875 12.78125 6.34375 
Q 5.515625 14.109375 5.515625 27.296875 
Q 5.515625 40.671875 12.859375 48.328125 
Q 20.21875 56 33.015625 56 
Q 37.15625 56 41.109375 55.140625 
Q 45.0625 54.296875 48.78125 52.59375 
z
" id="DejaVuSans-99"/>
     <path d="M 18.3125 70.21875 
L 18.3125 54.6875 
L 36.8125 54.6875 
L 36.8125 47.703125 
L 18.3125 47.703125 
L 18.3125 18.015625 
Q 18.3125 11.328125 20.140625 9.421875 
Q 21.96875 7.515625 27.59375 7.515625 
L 36.8125 7.515625 
L 36.8125 0 
L 27.59375 0 
Q 17.1875 0 13.234375 3.875 
Q 9.28125 7.765625 9.28125 18.015625 
L 9.28125 47.703125 
L 2.6875 47.703125 
L 2.6875 54.6875 
L 9.28125 54.6875 
L 9.28125 70.21875 
z
" id="DejaVuSans-116"/>
     <path d="M 54.890625 33.015625 
L 54.890625 0 
L 45.90625 0 
L 45.90625 32.71875 
Q 45.90625 40.484375 42.875 44.328125 
Q 39.84375 48.1875 33.796875 48.1875 
Q 26.515625 48.1875 22.3125 43.546875 
Q 18.109375 38.921875 18.109375 30.90625 
L 18.109375 0 
L 9.078125 0 
L 9.078125 54.6875 
L 18.109375 54.6875 
L 18.109375 46.1875 
Q 21.34375 51.125 25.703125 53.5625 
Q 30.078125 56 35.796875 56 
Q 45.21875 56 50.046875 50.171875 
Q 54.890625 44.34375 54.890625 33.015625 
z
" id="DejaVuSans-110"/>
    </defs>
    <g transform="translate(161.06625 35.472)scale(0.12 -0.12)">
     <use xlink:href="#DejaVuSans-80"/>
     <use x="56.677734" xlink:href="#DejaVuSans-111"/>
     <use x="117.859375" xlink:href="#DejaVuSans-108"/>
     <use x="145.642578" xlink:href="#DejaVuSans-121"/>
     <use x="204.822266" xlink:href="#DejaVuSans-97"/>
     <use x="266.101562" xlink:href="#DejaVuSans-107"/>
     <use x="320.386719" xlink:href="#DejaVuSans-111"/>
     <use x="381.568359" xlink:href="#DejaVuSans-118"/>
     <use x="440.748047" xlink:href="#DejaVuSans-32"/>
     <use x="472.535156" xlink:href="#DejaVuSans-108"/>
     <use x="500.318359" xlink:href="#DejaVuSans-111"/>
     <use x="561.5" xlink:href="#DejaVuSans-111"/>
     <use x="622.681641" xlink:href="#DejaVuSans-112"/>
     <use x="686.158203" xlink:href="#DejaVuSans-32"/>
     <use x="717.945312" xlink:href="#DejaVuSans-49"/>
     <use x="781.568359" xlink:href="#DejaVuSans-32"/>
     <use x="813.355469" xlink:href="#DejaVuSans-100"/>
     <use x="876.832031" xlink:href="#DejaVuSans-105"/>
     <use x="904.615234" xlink:href="#DejaVuSans-114"/>
     <use x="943.478516" xlink:href="#DejaVuSans-101"/>
     <use x="1005.001953" xlink:href="#DejaVuSans-99"/>
     <use x="1059.982422" xlink:href="#DejaVuSans-116"/>
     <use x="1099.191406" xlink:href="#DejaVuSans-105"/>
     <use x="1126.974609" xlink:href="#DejaVuSans-111"/>
     <use x="1188.15625" xlink:href="#DejaVuSans-110"/>
    </g>
   </g>
   <g id="legend_1">
    <g id="patch_7">
     <path d="M 265.387188 302.584 
L 407.72 302.584 
Q 409.72 302.584 409.72 300.584 
L 409.72 272.22775 
Q 409.72 270.22775 407.72 270.22775 
L 265.387188 270.22775 
Q 263.387188 270.22775 263.387188 272.22775 
L 263.387188 300.584 
Q 263.387188 302.584 265.387188 302.584 
z
" style="fill:#ffffff;opacity:0.8;stroke:#cccccc;stroke-linejoin:miter;"/>
    </g>
    <g id="line2d_16">
     <path d="M 267.387188 278.326187 
L 287.387188 278.326187 
" style="fill:none;stroke:#1f77b4;stroke-linecap:square;stroke-width:1.5;"/>
    </g>
    <g id="line2d_17"/>
    <g id="text_15">
     <!-- real0.0000+/-0.0000 -->
     <defs>
      <path d="M 46 62.703125 
L 46 35.5 
L 73.1875 35.5 
L 73.1875 27.203125 
L 46 27.203125 
L 46 0 
L 37.796875 0 
L 37.796875 27.203125 
L 10.59375 27.203125 
L 10.59375 35.5 
L 37.796875 35.5 
L 37.796875 62.703125 
z
" id="DejaVuSans-43"/>
      <path d="M 25.390625 72.90625 
L 33.6875 72.90625 
L 8.296875 -9.28125 
L 0 -9.28125 
z
" id="DejaVuSans-47"/>
      <path d="M 4.890625 31.390625 
L 31.203125 31.390625 
L 31.203125 23.390625 
L 4.890625 23.390625 
z
" id="DejaVuSans-45"/>
     </defs>
     <g transform="translate(295.387188 281.826187)scale(0.1 -0.1)">
      <use xlink:href="#DejaVuSans-114"/>
      <use x="38.863281" xlink:href="#DejaVuSans-101"/>
      <use x="100.386719" xlink:href="#DejaVuSans-97"/>
      <use x="161.666016" xlink:href="#DejaVuSans-108"/>
      <use x="189.449219" xlink:href="#DejaVuSans-48"/>
      <use x="253.072266" xlink:href="#DejaVuSans-46"/>
      <use x="284.859375" xlink:href="#DejaVuSans-48"/>
      <use x="348.482422" xlink:href="#DejaVuSans-48"/>
      <use x="412.105469" xlink:href="#DejaVuSans-48"/>
      <use x="475.728516" xlink:href="#DejaVuSans-48"/>
      <use x="539.351562" xlink:href="#DejaVuSans-43"/>
      <use x="623.140625" xlink:href="#DejaVuSans-47"/>
      <use x="656.832031" xlink:href="#DejaVuSans-45"/>
      <use x="692.916016" xlink:href="#DejaVuSans-48"/>
      <use x="756.539062" xlink:href="#DejaVuSans-46"/>
      <use x="788.326172" xlink:href="#DejaVuSans-48"/>
      <use x="851.949219" xlink:href="#DejaVuSans-48"/>
      <use x="915.572266" xlink:href="#DejaVuSans-48"/>
      <use x="979.195312" xlink:href="#DejaVuSans-48"/>
     </g>
    </g>
    <g id="line2d_18">
     <path d="M 267.387188 293.004312 
L 287.387188 293.004312 
" style="fill:none;stroke:#ff7f0e;stroke-linecap:square;stroke-width:1.5;"/>
    </g>
    <g id="line2d_19"/>
    <g id="text_16">
     <!-- imag0.0001+/-0.0000 -->
     <defs>
      <path d="M 52 44.1875 
Q 55.375 50.25 60.0625 53.125 
Q 64.75 56 71.09375 56 
Q 79.640625 56 84.28125 50.015625 
Q 88.921875 44.046875 88.921875 33.015625 
L 88.921875 0 
L 79.890625 0 
L 79.890625 32.71875 
Q 79.890625 40.578125 77.09375 44.375 
Q 74.3125 48.1875 68.609375 48.1875 
Q 61.625 48.1875 57.5625 43.546875 
Q 53.515625 38.921875 53.515625 30.90625 
L 53.515625 0 
L 44.484375 0 
L 44.484375 32.71875 
Q 44.484375 40.625 41.703125 44.40625 
Q 38.921875 48.1875 33.109375 48.1875 
Q 26.21875 48.1875 22.15625 43.53125 
Q 18.109375 38.875 18.109375 30.90625 
L 18.109375 0 
L 9.078125 0 
L 9.078125 54.6875 
L 18.109375 54.6875 
L 18.109375 46.1875 
Q 21.1875 51.21875 25.484375 53.609375 
Q 29.78125 56 35.6875 56 
Q 41.65625 56 45.828125 52.96875 
Q 50 49.953125 52 44.1875 
z
" id="DejaVuSans-109"/>
      <path d="M 45.40625 27.984375 
Q 45.40625 37.75 41.375 43.109375 
Q 37.359375 48.484375 30.078125 48.484375 
Q 22.859375 48.484375 18.828125 43.109375 
Q 14.796875 37.75 14.796875 27.984375 
Q 14.796875 18.265625 18.828125 12.890625 
Q 22.859375 7.515625 30.078125 7.515625 
Q 37.359375 7.515625 41.375 12.890625 
Q 45.40625 18.265625 45.40625 27.984375 
z
M 54.390625 6.78125 
Q 54.390625 -7.171875 48.1875 -13.984375 
Q 42 -20.796875 29.203125 -20.796875 
Q 24.46875 -20.796875 20.265625 -20.09375 
Q 16.0625 -19.390625 12.109375 -17.921875 
L 12.109375 -9.1875 
Q 16.0625 -11.328125 19.921875 -12.34375 
Q 23.78125 -13.375 27.78125 -13.375 
Q 36.625 -13.375 41.015625 -8.765625 
Q 45.40625 -4.15625 45.40625 5.171875 
L 45.40625 9.625 
Q 42.625 4.78125 38.28125 2.390625 
Q 33.9375 0 27.875 0 
Q 17.828125 0 11.671875 7.65625 
Q 5.515625 15.328125 5.515625 27.984375 
Q 5.515625 40.671875 11.671875 48.328125 
Q 17.828125 56 27.875 56 
Q 33.9375 56 38.28125 53.609375 
Q 42.625 51.21875 45.40625 46.390625 
L 45.40625 54.6875 
L 54.390625 54.6875 
z
" id="DejaVuSans-103"/>
     </defs>
     <g transform="translate(295.387188 296.504312)scale(0.1 -0.1)">
      <use xlink:href="#DejaVuSans-105"/>
      <use x="27.783203" xlink:href="#DejaVuSans-109"/>
      <use x="125.195312" xlink:href="#DejaVuSans-97"/>
      <use x="186.474609" xlink:href="#DejaVuSans-103"/>
      <use x="249.951172" xlink:href="#DejaVuSans-48"/>
      <use x="313.574219" xlink:href="#DejaVuSans-46"/>
      <use x="345.361328" xlink:href="#DejaVuSans-48"/>
      <use x="408.984375" xlink:href="#DejaVuSans-48"/>
      <use x="472.607422" xlink:href="#DejaVuSans-48"/>
      <use x="536.230469" xlink:href="#DejaVuSans-49"/>
      <use x="599.853516" xlink:href="#DejaVuSans-43"/>
      <use x="683.642578" xlink:href="#DejaVuSans-47"/>
      <use x="717.333984" xlink:href="#DejaVuSans-45"/>
      <use x="753.417969" xlink:href="#DejaVuSans-48"/>
      <use x="817.041016" xlink:href="#DejaVuSans-46"/>
      <use x="848.828125" xlink:href="#DejaVuSans-48"/>
      <use x="912.451172" xlink:href="#DejaVuSans-48"/>
      <use x="976.074219" xlink:href="#DejaVuSans-48"/>
      <use x="1039.697266" xlink:href="#DejaVuSans-48"/>
     </g>
    </g>
   </g>
  </g>
 </g>
 <defs>
  <clipPath id="p6ecc279ef9">
   <rect height="266.112" width="357.12" x="57.6" y="41.472"/>
  </clipPath>
 </defs>
</svg>
