<?xml version="1.0" encoding="utf-8" standalone="no"?>
<!DOCTYPE svg PUBLIC "-//W3C//DTD SVG 1.1//EN"
  "http://www.w3.org/Graphics/SVG/1.1/DTD/svg11.dtd">
<!-- Created with matplotlib (https://matplotlib.org/) -->
<svg height="345.6pt" version="1.1" viewBox="0 0 460.8 345.6" width="460.8pt" xmlns="http://www.w3.org/2000/svg" xmlns:xlink="http://www.w3.org/1999/xlink">
 <defs>
  <style type="text/css">
*{stroke-linecap:butt;stroke-linejoin:round;}
  </style>
 </defs>
 <g id="figure_1">
  <g id="patch_1">
   <path d="M 0 345.6 
L 460.8 345.6 
L 460.8 0 
L 0 0 
z
" style="fill:#ffffff;"/>
  </g>
  <g id="axes_1">
   <g id="patch_2">
    <path d="M 57.6 307.584 
L 414.72 307.584 
L 414.72 41.472 
L 57.6 41.472 
z
" style="fill:#ffffff;"/>
   </g>
   <g id="matplotlib.axis_1">
    <g id="xtick_1">
     <g id="line2d_1">
      <defs>
       <path d="M 0 0 
L 0 3.5 
" id="me4e3ec6d4e" style="stroke:#000000;stroke-width:0.8;"/>
      </defs>
      <g>
       <use style="stroke:#000000;stroke-width:0.8;" x="73.019057" xlink:href="#me4e3ec6d4e" y="307.584"/>
      </g>
     </g>
     <g id="text_1">
      <!-- 0 -->
      <defs>
       <path d="M 31.78125 66.40625 
Q 24.171875 66.40625 20.328125 58.90625 
Q 16.5 51.421875 16.5 36.375 
Q 16.5 21.390625 20.328125 13.890625 
Q 24.171875 6.390625 31.78125 6.390625 
Q 39.453125 6.390625 43.28125 13.890625 
Q 47.125 21.390625 47.125 36.375 
Q 47.125 51.421875 43.28125 58.90625 
Q 39.453125 66.40625 31.78125 66.40625 
z
M 31.78125 74.21875 
Q 44.046875 74.21875 50.515625 64.515625 
Q 56.984375 54.828125 56.984375 36.375 
Q 56.984375 17.96875 50.515625 8.265625 
Q 44.046875 -1.421875 31.78125 -1.421875 
Q 19.53125 -1.421875 13.0625 8.265625 
Q 6.59375 17.96875 6.59375 36.375 
Q 6.59375 54.828125 13.0625 64.515625 
Q 19.53125 74.21875 31.78125 74.21875 
z
" id="DejaVuSans-48"/>
      </defs>
      <g transform="translate(69.837807 322.182437)scale(0.1 -0.1)">
       <use xlink:href="#DejaVuSans-48"/>
      </g>
     </g>
    </g>
    <g id="xtick_2">
     <g id="line2d_2">
      <g>
       <use style="stroke:#000000;stroke-width:0.8;" x="113.702584" xlink:href="#me4e3ec6d4e" y="307.584"/>
      </g>
     </g>
     <g id="text_2">
      <!-- 50 -->
      <defs>
       <path d="M 10.796875 72.90625 
L 49.515625 72.90625 
L 49.515625 64.59375 
L 19.828125 64.59375 
L 19.828125 46.734375 
Q 21.96875 47.46875 24.109375 47.828125 
Q 26.265625 48.1875 28.421875 48.1875 
Q 40.625 48.1875 47.75 41.5 
Q 54.890625 34.8125 54.890625 23.390625 
Q 54.890625 11.625 47.5625 5.09375 
Q 40.234375 -1.421875 26.90625 -1.421875 
Q 22.3125 -1.421875 17.546875 -0.640625 
Q 12.796875 0.140625 7.71875 1.703125 
L 7.71875 11.625 
Q 12.109375 9.234375 16.796875 8.0625 
Q 21.484375 6.890625 26.703125 6.890625 
Q 35.15625 6.890625 40.078125 11.328125 
Q 45.015625 15.765625 45.015625 23.390625 
Q 45.015625 31 40.078125 35.4375 
Q 35.15625 39.890625 26.703125 39.890625 
Q 22.75 39.890625 18.8125 39.015625 
Q 14.890625 38.140625 10.796875 36.28125 
z
" id="DejaVuSans-53"/>
      </defs>
      <g transform="translate(107.340084 322.182437)scale(0.1 -0.1)">
       <use xlink:href="#DejaVuSans-53"/>
       <use x="63.623047" xlink:href="#DejaVuSans-48"/>
      </g>
     </g>
    </g>
    <g id="xtick_3">
     <g id="line2d_3">
      <g>
       <use style="stroke:#000000;stroke-width:0.8;" x="154.386111" xlink:href="#me4e3ec6d4e" y="307.584"/>
      </g>
     </g>
     <g id="text_3">
      <!-- 100 -->
      <defs>
       <path d="M 12.40625 8.296875 
L 28.515625 8.296875 
L 28.515625 63.921875 
L 10.984375 60.40625 
L 10.984375 69.390625 
L 28.421875 72.90625 
L 38.28125 72.90625 
L 38.28125 8.296875 
L 54.390625 8.296875 
L 54.390625 0 
L 12.40625 0 
z
" id="DejaVuSans-49"/>
      </defs>
      <g transform="translate(144.842361 322.182437)scale(0.1 -0.1)">
       <use xlink:href="#DejaVuSans-49"/>
       <use x="63.623047" xlink:href="#DejaVuSans-48"/>
       <use x="127.246094" xlink:href="#DejaVuSans-48"/>
      </g>
     </g>
    </g>
    <g id="xtick_4">
     <g id="line2d_4">
      <g>
       <use style="stroke:#000000;stroke-width:0.8;" x="195.069638" xlink:href="#me4e3ec6d4e" y="307.584"/>
      </g>
     </g>
     <g id="text_4">
      <!-- 150 -->
      <g transform="translate(185.525888 322.182437)scale(0.1 -0.1)">
       <use xlink:href="#DejaVuSans-49"/>
       <use x="63.623047" xlink:href="#DejaVuSans-53"/>
       <use x="127.246094" xlink:href="#DejaVuSans-48"/>
      </g>
     </g>
    </g>
    <g id="xtick_5">
     <g id="line2d_5">
      <g>
       <use style="stroke:#000000;stroke-width:0.8;" x="235.753165" xlink:href="#me4e3ec6d4e" y="307.584"/>
      </g>
     </g>
     <g id="text_5">
      <!-- 200 -->
      <defs>
       <path d="M 19.1875 8.296875 
L 53.609375 8.296875 
L 53.609375 0 
L 7.328125 0 
L 7.328125 8.296875 
Q 12.9375 14.109375 22.625 23.890625 
Q 32.328125 33.6875 34.8125 36.53125 
Q 39.546875 41.84375 41.421875 45.53125 
Q 43.3125 49.21875 43.3125 52.78125 
Q 43.3125 58.59375 39.234375 62.25 
Q 35.15625 65.921875 28.609375 65.921875 
Q 23.96875 65.921875 18.8125 64.3125 
Q 13.671875 62.703125 7.8125 59.421875 
L 7.8125 69.390625 
Q 13.765625 71.78125 18.9375 73 
Q 24.125 74.21875 28.421875 74.21875 
Q 39.75 74.21875 46.484375 68.546875 
Q 53.21875 62.890625 53.21875 53.421875 
Q 53.21875 48.921875 51.53125 44.890625 
Q 49.859375 40.875 45.40625 35.40625 
Q 44.1875 33.984375 37.640625 27.21875 
Q 31.109375 20.453125 19.1875 8.296875 
z
" id="DejaVuSans-50"/>
      </defs>
      <g transform="translate(226.209415 322.182437)scale(0.1 -0.1)">
       <use xlink:href="#DejaVuSans-50"/>
       <use x="63.623047" xlink:href="#DejaVuSans-48"/>
       <use x="127.246094" xlink:href="#DejaVuSans-48"/>
      </g>
     </g>
    </g>
    <g id="xtick_6">
     <g id="line2d_6">
      <g>
       <use style="stroke:#000000;stroke-width:0.8;" x="276.436692" xlink:href="#me4e3ec6d4e" y="307.584"/>
      </g>
     </g>
     <g id="text_6">
      <!-- 250 -->
      <g transform="translate(266.892942 322.182437)scale(0.1 -0.1)">
       <use xlink:href="#DejaVuSans-50"/>
       <use x="63.623047" xlink:href="#DejaVuSans-53"/>
       <use x="127.246094" xlink:href="#DejaVuSans-48"/>
      </g>
     </g>
    </g>
    <g id="xtick_7">
     <g id="line2d_7">
      <g>
       <use style="stroke:#000000;stroke-width:0.8;" x="317.120219" xlink:href="#me4e3ec6d4e" y="307.584"/>
      </g>
     </g>
     <g id="text_7">
      <!-- 300 -->
      <defs>
       <path d="M 40.578125 39.3125 
Q 47.65625 37.796875 51.625 33 
Q 55.609375 28.21875 55.609375 21.1875 
Q 55.609375 10.40625 48.1875 4.484375 
Q 40.765625 -1.421875 27.09375 -1.421875 
Q 22.515625 -1.421875 17.65625 -0.515625 
Q 12.796875 0.390625 7.625 2.203125 
L 7.625 11.71875 
Q 11.71875 9.328125 16.59375 8.109375 
Q 21.484375 6.890625 26.8125 6.890625 
Q 36.078125 6.890625 40.9375 10.546875 
Q 45.796875 14.203125 45.796875 21.1875 
Q 45.796875 27.640625 41.28125 31.265625 
Q 36.765625 34.90625 28.71875 34.90625 
L 20.21875 34.90625 
L 20.21875 43.015625 
L 29.109375 43.015625 
Q 36.375 43.015625 40.234375 45.921875 
Q 44.09375 48.828125 44.09375 54.296875 
Q 44.09375 59.90625 40.109375 62.90625 
Q 36.140625 65.921875 28.71875 65.921875 
Q 24.65625 65.921875 20.015625 65.03125 
Q 15.375 64.15625 9.8125 62.3125 
L 9.8125 71.09375 
Q 15.4375 72.65625 20.34375 73.4375 
Q 25.25 74.21875 29.59375 74.21875 
Q 40.828125 74.21875 47.359375 69.109375 
Q 53.90625 64.015625 53.90625 55.328125 
Q 53.90625 49.265625 50.4375 45.09375 
Q 46.96875 40.921875 40.578125 39.3125 
z
" id="DejaVuSans-51"/>
      </defs>
      <g transform="translate(307.576469 322.182437)scale(0.1 -0.1)">
       <use xlink:href="#DejaVuSans-51"/>
       <use x="63.623047" xlink:href="#DejaVuSans-48"/>
       <use x="127.246094" xlink:href="#DejaVuSans-48"/>
      </g>
     </g>
    </g>
    <g id="xtick_8">
     <g id="line2d_8">
      <g>
       <use style="stroke:#000000;stroke-width:0.8;" x="357.803746" xlink:href="#me4e3ec6d4e" y="307.584"/>
      </g>
     </g>
     <g id="text_8">
      <!-- 350 -->
      <g transform="translate(348.259996 322.182437)scale(0.1 -0.1)">
       <use xlink:href="#DejaVuSans-51"/>
       <use x="63.623047" xlink:href="#DejaVuSans-53"/>
       <use x="127.246094" xlink:href="#DejaVuSans-48"/>
      </g>
     </g>
    </g>
    <g id="xtick_9">
     <g id="line2d_9">
      <g>
       <use style="stroke:#000000;stroke-width:0.8;" x="398.487273" xlink:href="#me4e3ec6d4e" y="307.584"/>
      </g>
     </g>
     <g id="text_9">
      <!-- 400 -->
      <defs>
       <path d="M 37.796875 64.3125 
L 12.890625 25.390625 
L 37.796875 25.390625 
z
M 35.203125 72.90625 
L 47.609375 72.90625 
L 47.609375 25.390625 
L 58.015625 25.390625 
L 58.015625 17.1875 
L 47.609375 17.1875 
L 47.609375 0 
L 37.796875 0 
L 37.796875 17.1875 
L 4.890625 17.1875 
L 4.890625 26.703125 
z
" id="DejaVuSans-52"/>
      </defs>
      <g transform="translate(388.943523 322.182437)scale(0.1 -0.1)">
       <use xlink:href="#DejaVuSans-52"/>
       <use x="63.623047" xlink:href="#DejaVuSans-48"/>
       <use x="127.246094" xlink:href="#DejaVuSans-48"/>
      </g>
     </g>
    </g>
   </g>
   <g id="matplotlib.axis_2">
    <g id="ytick_1">
     <g id="line2d_10">
      <defs>
       <path d="M 0 0 
L -3.5 0 
" id="mb7714b455b" style="stroke:#000000;stroke-width:0.8;"/>
      </defs>
      <g>
       <use style="stroke:#000000;stroke-width:0.8;" x="57.6" xlink:href="#mb7714b455b" y="279.83811"/>
      </g>
     </g>
     <g id="text_10">
      <!-- 0.55 -->
      <defs>
       <path d="M 10.6875 12.40625 
L 21 12.40625 
L 21 0 
L 10.6875 0 
z
" id="DejaVuSans-46"/>
      </defs>
      <g transform="translate(28.334375 283.637328)scale(0.1 -0.1)">
       <use xlink:href="#DejaVuSans-48"/>
       <use x="63.623047" xlink:href="#DejaVuSans-46"/>
       <use x="95.410156" xlink:href="#DejaVuSans-53"/>
       <use x="159.033203" xlink:href="#DejaVuSans-53"/>
      </g>
     </g>
    </g>
    <g id="ytick_2">
     <g id="line2d_11">
      <g>
       <use style="stroke:#000000;stroke-width:0.8;" x="57.6" xlink:href="#mb7714b455b" y="233.368839"/>
      </g>
     </g>
     <g id="text_11">
      <!-- 0.56 -->
      <defs>
       <path d="M 33.015625 40.375 
Q 26.375 40.375 22.484375 35.828125 
Q 18.609375 31.296875 18.609375 23.390625 
Q 18.609375 15.53125 22.484375 10.953125 
Q 26.375 6.390625 33.015625 6.390625 
Q 39.65625 6.390625 43.53125 10.953125 
Q 47.40625 15.53125 47.40625 23.390625 
Q 47.40625 31.296875 43.53125 35.828125 
Q 39.65625 40.375 33.015625 40.375 
z
M 52.59375 71.296875 
L 52.59375 62.3125 
Q 48.875 64.0625 45.09375 64.984375 
Q 41.3125 65.921875 37.59375 65.921875 
Q 27.828125 65.921875 22.671875 59.328125 
Q 17.53125 52.734375 16.796875 39.40625 
Q 19.671875 43.65625 24.015625 45.921875 
Q 28.375 48.1875 33.59375 48.1875 
Q 44.578125 48.1875 50.953125 41.515625 
Q 57.328125 34.859375 57.328125 23.390625 
Q 57.328125 12.15625 50.6875 5.359375 
Q 44.046875 -1.421875 33.015625 -1.421875 
Q 20.359375 -1.421875 13.671875 8.265625 
Q 6.984375 17.96875 6.984375 36.375 
Q 6.984375 53.65625 15.1875 63.9375 
Q 23.390625 74.21875 37.203125 74.21875 
Q 40.921875 74.21875 44.703125 73.484375 
Q 48.484375 72.75 52.59375 71.296875 
z
" id="DejaVuSans-54"/>
      </defs>
      <g transform="translate(28.334375 237.168058)scale(0.1 -0.1)">
       <use xlink:href="#DejaVuSans-48"/>
       <use x="63.623047" xlink:href="#DejaVuSans-46"/>
       <use x="95.410156" xlink:href="#DejaVuSans-53"/>
       <use x="159.033203" xlink:href="#DejaVuSans-54"/>
      </g>
     </g>
    </g>
    <g id="ytick_3">
     <g id="line2d_12">
      <g>
       <use style="stroke:#000000;stroke-width:0.8;" x="57.6" xlink:href="#mb7714b455b" y="186.899568"/>
      </g>
     </g>
     <g id="text_12">
      <!-- 0.57 -->
      <defs>
       <path d="M 8.203125 72.90625 
L 55.078125 72.90625 
L 55.078125 68.703125 
L 28.609375 0 
L 18.3125 0 
L 43.21875 64.59375 
L 8.203125 64.59375 
z
" id="DejaVuSans-55"/>
      </defs>
      <g transform="translate(28.334375 190.698787)scale(0.1 -0.1)">
       <use xlink:href="#DejaVuSans-48"/>
       <use x="63.623047" xlink:href="#DejaVuSans-46"/>
       <use x="95.410156" xlink:href="#DejaVuSans-53"/>
       <use x="159.033203" xlink:href="#DejaVuSans-55"/>
      </g>
     </g>
    </g>
    <g id="ytick_4">
     <g id="line2d_13">
      <g>
       <use style="stroke:#000000;stroke-width:0.8;" x="57.6" xlink:href="#mb7714b455b" y="140.430297"/>
      </g>
     </g>
     <g id="text_13">
      <!-- 0.58 -->
      <defs>
       <path d="M 31.78125 34.625 
Q 24.75 34.625 20.71875 30.859375 
Q 16.703125 27.09375 16.703125 20.515625 
Q 16.703125 13.921875 20.71875 10.15625 
Q 24.75 6.390625 31.78125 6.390625 
Q 38.8125 6.390625 42.859375 10.171875 
Q 46.921875 13.96875 46.921875 20.515625 
Q 46.921875 27.09375 42.890625 30.859375 
Q 38.875 34.625 31.78125 34.625 
z
M 21.921875 38.8125 
Q 15.578125 40.375 12.03125 44.71875 
Q 8.5 49.078125 8.5 55.328125 
Q 8.5 64.0625 14.71875 69.140625 
Q 20.953125 74.21875 31.78125 74.21875 
Q 42.671875 74.21875 48.875 69.140625 
Q 55.078125 64.0625 55.078125 55.328125 
Q 55.078125 49.078125 51.53125 44.71875 
Q 48 40.375 41.703125 38.8125 
Q 48.828125 37.15625 52.796875 32.3125 
Q 56.78125 27.484375 56.78125 20.515625 
Q 56.78125 9.90625 50.3125 4.234375 
Q 43.84375 -1.421875 31.78125 -1.421875 
Q 19.734375 -1.421875 13.25 4.234375 
Q 6.78125 9.90625 6.78125 20.515625 
Q 6.78125 27.484375 10.78125 32.3125 
Q 14.796875 37.15625 21.921875 38.8125 
z
M 18.3125 54.390625 
Q 18.3125 48.734375 21.84375 45.5625 
Q 25.390625 42.390625 31.78125 42.390625 
Q 38.140625 42.390625 41.71875 45.5625 
Q 45.3125 48.734375 45.3125 54.390625 
Q 45.3125 60.0625 41.71875 63.234375 
Q 38.140625 66.40625 31.78125 66.40625 
Q 25.390625 66.40625 21.84375 63.234375 
Q 18.3125 60.0625 18.3125 54.390625 
z
" id="DejaVuSans-56"/>
      </defs>
      <g transform="translate(28.334375 144.229516)scale(0.1 -0.1)">
       <use xlink:href="#DejaVuSans-48"/>
       <use x="63.623047" xlink:href="#DejaVuSans-46"/>
       <use x="95.410156" xlink:href="#DejaVuSans-53"/>
       <use x="159.033203" xlink:href="#DejaVuSans-56"/>
      </g>
     </g>
    </g>
    <g id="ytick_5">
     <g id="line2d_14">
      <g>
       <use style="stroke:#000000;stroke-width:0.8;" x="57.6" xlink:href="#mb7714b455b" y="93.961027"/>
      </g>
     </g>
     <g id="text_14">
      <!-- 0.59 -->
      <defs>
       <path d="M 10.984375 1.515625 
L 10.984375 10.5 
Q 14.703125 8.734375 18.5 7.8125 
Q 22.3125 6.890625 25.984375 6.890625 
Q 35.75 6.890625 40.890625 13.453125 
Q 46.046875 20.015625 46.78125 33.40625 
Q 43.953125 29.203125 39.59375 26.953125 
Q 35.25 24.703125 29.984375 24.703125 
Q 19.046875 24.703125 12.671875 31.3125 
Q 6.296875 37.9375 6.296875 49.421875 
Q 6.296875 60.640625 12.9375 67.421875 
Q 19.578125 74.21875 30.609375 74.21875 
Q 43.265625 74.21875 49.921875 64.515625 
Q 56.59375 54.828125 56.59375 36.375 
Q 56.59375 19.140625 48.40625 8.859375 
Q 40.234375 -1.421875 26.421875 -1.421875 
Q 22.703125 -1.421875 18.890625 -0.6875 
Q 15.09375 0.046875 10.984375 1.515625 
z
M 30.609375 32.421875 
Q 37.25 32.421875 41.125 36.953125 
Q 45.015625 41.5 45.015625 49.421875 
Q 45.015625 57.28125 41.125 61.84375 
Q 37.25 66.40625 30.609375 66.40625 
Q 23.96875 66.40625 20.09375 61.84375 
Q 16.21875 57.28125 16.21875 49.421875 
Q 16.21875 41.5 20.09375 36.953125 
Q 23.96875 32.421875 30.609375 32.421875 
z
" id="DejaVuSans-57"/>
      </defs>
      <g transform="translate(28.334375 97.760245)scale(0.1 -0.1)">
       <use xlink:href="#DejaVuSans-48"/>
       <use x="63.623047" xlink:href="#DejaVuSans-46"/>
       <use x="95.410156" xlink:href="#DejaVuSans-53"/>
       <use x="159.033203" xlink:href="#DejaVuSans-57"/>
      </g>
     </g>
    </g>
    <g id="ytick_6">
     <g id="line2d_15">
      <g>
       <use style="stroke:#000000;stroke-width:0.8;" x="57.6" xlink:href="#mb7714b455b" y="47.491756"/>
      </g>
     </g>
     <g id="text_15">
      <!-- 0.60 -->
      <g transform="translate(28.334375 51.290975)scale(0.1 -0.1)">
       <use xlink:href="#DejaVuSans-48"/>
       <use x="63.623047" xlink:href="#DejaVuSans-46"/>
       <use x="95.410156" xlink:href="#DejaVuSans-54"/>
       <use x="159.033203" xlink:href="#DejaVuSans-48"/>
      </g>
     </g>
    </g>
   </g>
   <g id="line2d_16">
    <path clip-path="url(#p93ad96278b)" d="M 77.971631 -1 
L 78.714751 58.565037 
L 79.528421 94.727732 
L 80.342092 119.060902 
L 81.155762 135.427617 
L 81.969433 146.322643 
L 82.783103 154.013789 
L 83.596774 159.026794 
L 84.410444 161.962102 
L 85.224115 161.962102 
L 86.037785 164.433058 
L 86.851456 165.828809 
L 87.665126 166.97014 
L 88.478797 168.433094 
L 89.292468 168.433094 
L 90.106138 169.241146 
L 90.919809 170.229468 
L 91.733479 170.229468 
L 92.54715 170.881962 
L 93.36082 170.881962 
L 94.174491 171.523449 
L 94.988161 171.447609 
L 95.801832 171.685561 
L 96.615502 172.173633 
L 97.429173 172.440781 
L 98.242843 172.003431 
L 99.056514 171.820372 
L 99.870185 172.501518 
L 100.683855 172.399982 
L 101.497526 172.611582 
L 103.124867 172.611582 
L 103.938537 173.021642 
L 104.752208 172.735823 
L 105.565878 173.062711 
L 106.379549 173.018759 
L 107.193219 173.339576 
L 108.00689 173.339576 
L 108.82056 173.507035 
L 111.261572 173.387469 
L 112.888913 173.6742 
L 114.516254 173.606455 
L 115.329925 173.977426 
L 116.143595 173.977426 
L 116.957266 174.566739 
L 117.770936 173.899978 
L 119.398278 173.83913 
L 120.211948 174.170065 
L 121.025619 174.028171 
L 121.839289 173.458365 
L 122.65296 173.458365 
L 123.46663 173.867555 
L 125.093971 174.177168 
L 125.907642 173.857973 
L 126.721312 173.836085 
L 127.534983 174.162551 
L 128.348653 174.050948 
L 129.162324 174.459065 
L 129.975995 174.459065 
L 130.789665 173.815906 
L 131.603336 174.072489 
L 132.417006 173.954686 
L 133.230677 174.169472 
L 134.858018 174.07321 
L 136.485359 174.693095 
L 137.299029 174.693095 
L 138.1127 174.426175 
L 138.92637 174.542433 
L 139.740041 174.542433 
L 140.553712 174.677904 
L 142.994723 174.677904 
L 144.622064 174.214914 
L 145.435735 174.597369 
L 146.249405 173.822547 
L 147.063076 174.221275 
L 147.876746 174.343319 
L 148.690417 174.347361 
L 149.504087 174.541455 
L 150.317758 174.541455 
L 151.945099 173.930573 
L 152.75877 174.620308 
L 153.57244 175.01989 
L 155.199781 175.014943 
L 156.013452 174.462621 
L 156.827122 174.663871 
L 157.640793 174.421159 
L 160.895475 174.622323 
L 162.522816 174.467718 
L 164.150157 174.467718 
L 164.963828 174.785026 
L 167.404839 174.733818 
L 168.21851 174.351406 
L 170.659522 174.311329 
L 172.286863 174.793211 
L 174.727874 174.866122 
L 175.541545 174.567214 
L 176.355215 174.722769 
L 177.168886 174.722769 
L 177.982556 175.204088 
L 178.796227 175.2621 
L 179.609897 174.832383 
L 180.423568 175.071064 
L 181.237239 174.854456 
L 182.050909 175.329122 
L 182.86458 175.467527 
L 184.491921 175.422242 
L 185.305591 175.766098 
L 186.932932 174.786593 
L 188.560273 175.046122 
L 189.373944 174.879082 
L 190.187614 174.994755 
L 191.001285 174.655226 
L 191.814956 174.655226 
L 192.628626 174.203742 
L 194.255967 174.80459 
L 195.883308 174.80459 
L 196.696979 174.930042 
L 199.13799 174.691231 
L 199.951661 174.743595 
L 200.765332 175.225781 
L 201.579002 174.983775 
L 204.020014 175.095343 
L 204.833684 175.37496 
L 205.647355 175.202477 
L 206.461025 175.376211 
L 207.274696 175.213217 
L 208.088366 175.213217 
L 208.902037 175.019874 
L 209.715707 175.019874 
L 210.529378 175.492144 
L 212.156719 175.390138 
L 212.97039 175.315516 
L 213.78406 174.905997 
L 214.597731 175.247534 
L 216.225072 175.247534 
L 217.038742 175.041102 
L 217.852413 175.041102 
L 218.666083 175.265809 
L 219.479754 175.088494 
L 221.107095 175.121232 
L 221.920766 174.765728 
L 222.734436 174.942491 
L 223.548107 175.005082 
L 225.989118 174.733789 
L 226.802789 175.410204 
L 230.057471 175.489132 
L 230.871141 175.790502 
L 232.498483 175.772987 
L 233.312153 175.13442 
L 234.125824 175.451239 
L 234.939494 175.128819 
L 235.753165 175.188424 
L 236.566835 174.793005 
L 237.380506 174.544194 
L 238.194176 174.813404 
L 239.007847 174.93436 
L 239.821517 175.172704 
L 240.635188 175.005813 
L 242.262529 175.004488 
L 243.0762 174.530203 
L 243.88987 174.464866 
L 245.517211 175.215552 
L 247.144552 175.281195 
L 247.958223 175.653902 
L 248.771893 175.4505 
L 249.585564 175.79129 
L 250.399234 175.79129 
L 252.026576 175.18419 
L 252.840246 175.18419 
L 254.467587 175.588169 
L 256.094928 175.223811 
L 256.908599 175.44233 
L 260.163281 175.460407 
L 260.976951 175.583703 
L 261.790622 175.50558 
L 262.604293 175.593578 
L 264.231634 175.373844 
L 265.045304 174.938189 
L 265.858975 175.219854 
L 266.672645 175.219854 
L 267.486316 174.795718 
L 268.299986 175.147225 
L 269.113657 175.147225 
L 269.927327 175.462439 
L 270.740998 175.474088 
L 272.368339 175.908278 
L 273.18201 175.446606 
L 273.99568 175.543277 
L 274.809351 175.912143 
L 277.250362 175.83021 
L 278.064033 175.464952 
L 278.877703 175.673235 
L 279.691374 175.673235 
L 280.505044 175.428309 
L 281.318715 175.467247 
L 282.132386 175.212814 
L 282.946056 175.212814 
L 283.759727 174.932724 
L 285.387068 174.941343 
L 286.200738 175.413275 
L 287.828079 175.413275 
L 288.64175 175.085074 
L 290.269091 174.93216 
L 291.082761 175.356675 
L 291.896432 175.060427 
L 292.710103 175.060427 
L 293.523773 174.912386 
L 294.337444 175.530562 
L 295.151114 175.530562 
L 295.964785 175.250061 
L 296.778455 175.224565 
L 299.219467 175.474094 
L 301.660478 175.468317 
L 302.474149 174.968443 
L 303.28782 174.968443 
L 304.915161 175.080596 
L 305.728831 174.83993 
L 306.542502 175.623446 
L 307.356172 175.537111 
L 308.169843 175.312535 
L 308.983513 175.404316 
L 309.797184 176.091396 
L 310.610854 175.746951 
L 311.424525 175.279624 
L 312.238195 175.89514 
L 313.051866 175.297427 
L 313.865537 175.865943 
L 314.679207 175.714965 
L 315.492878 175.192864 
L 317.120219 174.904023 
L 317.933889 175.111824 
L 318.74756 174.873903 
L 319.56123 175.436717 
L 320.374901 176.409297 
L 321.188571 175.384437 
L 322.002242 175.690033 
L 324.443254 174.950996 
L 325.256924 175.364677 
L 326.070595 175.364677 
L 326.884265 175.045503 
L 327.697936 175.045503 
L 328.511606 175.620729 
L 330.138947 176.046487 
L 330.952618 175.463157 
L 331.766288 175.451508 
L 332.579959 175.242312 
L 333.39363 175.282556 
L 334.2073 175.463332 
L 335.020971 175.522147 
L 335.834641 175.144397 
L 336.648312 175.278163 
L 339.902994 175.128118 
L 340.716664 175.475621 
L 341.530335 175.48055 
L 342.344005 175.189692 
L 343.157676 175.189692 
L 343.971347 175.892483 
L 347.226029 175.322621 
L 348.039699 175.294172 
L 348.85337 175.492751 
L 351.294381 175.480599 
L 352.108052 175.175822 
L 352.921722 175.39896 
L 353.735393 175.350925 
L 354.549064 174.983795 
L 355.362734 174.983795 
L 356.176405 175.398412 
L 358.617416 175.329701 
L 359.431087 175.656538 
L 361.058428 175.81965 
L 361.872098 175.488933 
L 362.685769 175.324101 
L 363.49944 175.510683 
L 364.31311 175.510683 
L 365.126781 175.826801 
L 365.940451 175.706224 
L 366.754122 175.939053 
L 367.567792 175.234692 
L 368.381463 174.856714 
L 369.195133 175.516359 
L 370.008804 175.64963 
L 370.822474 175.64963 
L 371.636145 175.512504 
L 373.263486 175.512504 
L 374.077157 175.262385 
L 374.890827 175.350514 
L 375.704498 175.707581 
L 376.518168 175.568151 
L 377.331839 175.238504 
L 378.145509 175.124576 
L 379.77285 175.209675 
L 380.586521 175.209675 
L 381.400191 175.043968 
L 382.213862 175.265044 
L 383.841203 175.346971 
L 384.654874 175.292817 
L 385.468544 175.105899 
L 386.282215 175.706978 
L 387.095885 175.577437 
L 387.909556 175.237872 
L 388.723226 175.365864 
L 389.536897 174.82979 
L 390.350567 174.82979 
L 391.164238 175.200138 
L 391.977908 175.220017 
L 392.791579 174.991094 
L 393.605249 174.991094 
L 394.41892 175.203447 
L 395.232591 175.108463 
L 396.859932 175.620503 
L 398.487273 175.704421 
L 398.487273 175.704421 
" style="fill:none;stroke:#1f77b4;stroke-linecap:square;stroke-width:1.5;"/>
   </g>
   <g id="line2d_17">
    <path clip-path="url(#p93ad96278b)" d="M 77.972505 -1 
L 78.714751 58.495884 
L 79.528421 94.632423 
L 80.342092 118.841823 
L 81.155762 135.182065 
L 81.969433 146.194503 
L 82.783103 154.140847 
L 83.596774 159.402148 
L 84.410444 161.897846 
L 85.224115 161.897846 
L 86.037785 164.51742 
L 88.478797 168.689457 
L 89.292468 168.689457 
L 90.106138 169.370445 
L 90.919809 169.769203 
L 91.733479 169.769203 
L 92.54715 170.55222 
L 93.36082 170.55222 
L 94.174491 171.539869 
L 94.988161 171.241188 
L 95.801832 171.427523 
L 96.615502 171.824933 
L 97.429173 172.443798 
L 98.242843 172.260321 
L 99.056514 171.632252 
L 99.870185 172.421284 
L 100.683855 172.142744 
L 101.497526 172.617634 
L 103.124867 172.617634 
L 103.938537 172.939687 
L 104.752208 172.816872 
L 105.565878 173.113236 
L 106.379549 172.942325 
L 107.193219 173.313327 
L 108.82056 173.338194 
L 109.634231 173.769384 
L 110.447902 173.913057 
L 112.075243 173.860772 
L 112.888913 173.46019 
L 113.702584 173.46019 
L 114.516254 173.8222 
L 115.329925 173.962345 
L 116.143595 173.962345 
L 116.957266 174.627514 
L 117.770936 173.88733 
L 118.584607 173.665101 
L 119.398278 173.665101 
L 121.025619 174.054697 
L 121.839289 173.145678 
L 122.65296 173.145678 
L 123.46663 173.839573 
L 125.093971 174.233423 
L 125.907642 173.880428 
L 126.721312 173.827036 
L 127.534983 174.19546 
L 128.348653 174.138046 
L 129.162324 174.500856 
L 129.975995 174.500856 
L 130.789665 173.999234 
L 131.603336 174.037631 
L 132.417006 173.547451 
L 133.230677 173.840651 
L 134.858018 173.793488 
L 135.671688 174.469545 
L 136.485359 174.646709 
L 137.299029 174.646709 
L 138.1127 174.166984 
L 138.92637 174.535512 
L 142.994723 174.63643 
L 143.808394 174.386492 
L 144.622064 174.328313 
L 145.435735 174.606854 
L 146.249405 174.127119 
L 147.063076 174.242206 
L 148.690417 174.656921 
L 150.317758 174.679118 
L 151.131429 174.509553 
L 151.945099 174.489209 
L 152.75877 174.912762 
L 155.199781 174.888501 
L 156.013452 174.040387 
L 156.827122 174.463638 
L 157.640793 174.288108 
L 158.454463 174.683842 
L 159.268134 174.870031 
L 160.081805 174.870031 
L 161.709146 174.342315 
L 162.522816 174.581791 
L 164.150157 174.581791 
L 164.963828 175.075218 
L 165.777498 174.706407 
L 167.404839 174.706407 
L 168.21851 174.096219 
L 169.845851 174.096219 
L 170.659522 174.375428 
L 171.473192 174.531202 
L 172.286863 174.812098 
L 173.100533 174.664046 
L 174.727874 174.748352 
L 175.541545 174.205692 
L 176.355215 174.415907 
L 177.168886 174.415907 
L 177.982556 175.288129 
L 178.796227 175.471148 
L 179.609897 174.641396 
L 180.423568 174.896962 
L 181.237239 174.928354 
L 182.050909 175.702037 
L 182.86458 175.585012 
L 183.67825 175.585012 
L 184.491921 175.346009 
L 185.305591 175.656596 
L 186.932932 174.761074 
L 187.746603 174.764172 
L 189.373944 175.079258 
L 190.187614 174.91163 
L 191.001285 174.518398 
L 191.814956 174.518398 
L 192.628626 174.017787 
L 194.255967 175.069534 
L 195.883308 175.069534 
L 196.696979 175.31703 
L 198.32432 174.738514 
L 199.13799 174.738514 
L 200.765332 175.361509 
L 201.579002 174.941389 
L 202.392673 175.16335 
L 203.206343 174.812423 
L 204.020014 175.062012 
L 204.833684 175.106734 
L 205.647355 175.003924 
L 206.461025 175.726298 
L 207.274696 175.380984 
L 208.088366 175.380984 
L 208.902037 174.909819 
L 209.715707 174.909819 
L 210.529378 175.817037 
L 211.343049 175.394643 
L 212.156719 175.394643 
L 212.97039 175.575494 
L 213.78406 174.768459 
L 214.597731 175.382748 
L 216.225072 175.382748 
L 217.038742 174.926694 
L 217.852413 174.926694 
L 218.666083 175.104375 
L 219.479754 174.803844 
L 220.293424 175.372252 
L 221.107095 175.40495 
L 221.920766 174.743674 
L 222.734436 174.950285 
L 223.548107 174.836267 
L 224.361777 175.055662 
L 225.175448 174.634774 
L 225.989118 174.634774 
L 226.802789 175.725335 
L 227.616459 175.725335 
L 228.43013 175.527452 
L 229.2438 175.738905 
L 230.057471 175.738905 
L 230.871141 176.219344 
L 231.684812 176.219344 
L 233.312153 174.97376 
L 234.125824 175.319916 
L 234.939494 175.127657 
L 235.753165 175.44522 
L 236.566835 174.899596 
L 237.380506 174.721322 
L 238.194176 174.956781 
L 239.007847 174.992133 
L 239.821517 175.169629 
L 240.635188 175.001396 
L 241.448859 174.692016 
L 242.262529 174.692016 
L 243.88987 174.51597 
L 244.703541 175.021166 
L 245.517211 175.393624 
L 246.330882 174.928751 
L 247.958223 175.424982 
L 248.771893 175.254957 
L 249.585564 175.657681 
L 251.212905 175.679692 
L 252.026576 175.347909 
L 252.840246 175.347909 
L 253.653917 175.208296 
L 254.467587 175.579305 
L 255.281258 175.535453 
L 256.094928 175.241243 
L 257.722269 175.339234 
L 258.53594 175.339234 
L 259.34961 175.733611 
L 260.163281 175.151464 
L 261.790622 175.565601 
L 262.604293 175.692042 
L 263.417963 175.43348 
L 264.231634 175.35987 
L 265.045304 174.856172 
L 265.858975 175.293681 
L 266.672645 175.293681 
L 267.486316 174.770892 
L 268.299986 175.059968 
L 269.113657 175.059968 
L 269.927327 175.437399 
L 271.554668 175.930374 
L 272.368339 175.940705 
L 273.18201 175.545132 
L 273.99568 175.527715 
L 274.809351 176.002889 
L 276.436692 176.002889 
L 277.250362 175.688348 
L 278.064033 175.74154 
L 278.877703 175.972706 
L 280.505044 176.019532 
L 281.318715 175.712222 
L 282.132386 175.170355 
L 282.946056 175.170355 
L 283.759727 174.88188 
L 284.573397 175.042561 
L 285.387068 175.042561 
L 286.200738 175.439467 
L 287.828079 175.439467 
L 288.64175 175.109019 
L 289.45542 174.56773 
L 290.269091 174.8446 
L 291.082761 175.416548 
L 291.896432 175.034173 
L 293.523773 175.061232 
L 294.337444 175.42329 
L 295.151114 175.42329 
L 295.964785 175.076865 
L 296.778455 175.528863 
L 297.592126 175.16171 
L 299.219467 175.480048 
L 300.033137 175.159763 
L 301.660478 175.30955 
L 302.474149 174.843682 
L 303.28782 174.843682 
L 304.10149 175.045276 
L 305.728831 174.950333 
L 306.542502 175.600907 
L 307.356172 175.665637 
L 308.169843 175.487141 
L 308.983513 175.522032 
L 309.797184 176.266053 
L 311.424525 175.30381 
L 312.238195 175.942261 
L 313.051866 175.552566 
L 313.865537 175.800049 
L 314.679207 175.787395 
L 316.306548 174.880105 
L 317.120219 175.133789 
L 318.74756 175.186566 
L 319.56123 175.585933 
L 320.374901 176.517418 
L 321.188571 175.644583 
L 322.002242 175.983145 
L 323.629583 175.008214 
L 326.070595 175.216205 
L 326.884265 175.020133 
L 327.697936 175.020133 
L 329.325277 176.17869 
L 330.138947 176.256539 
L 330.952618 175.073356 
L 331.766288 175.332541 
L 332.579959 174.825844 
L 333.39363 175.207229 
L 334.2073 175.452241 
L 335.020971 175.579971 
L 335.834641 175.150043 
L 337.461982 175.347375 
L 338.275653 175.192248 
L 339.089323 175.192575 
L 339.902994 174.858166 
L 340.716664 175.215167 
L 341.530335 175.362428 
L 343.157676 175.379232 
L 343.971347 175.944109 
L 344.785017 175.71774 
L 345.598688 175.258746 
L 346.412358 175.16173 
L 347.226029 174.944745 
L 348.039699 175.154376 
L 348.85337 175.547218 
L 349.66704 175.697979 
L 351.294381 175.697979 
L 352.921722 175.157092 
L 353.735393 175.441076 
L 354.549064 175.231301 
L 355.362734 175.231301 
L 356.176405 175.490045 
L 357.803746 175.522593 
L 358.617416 175.37003 
L 359.431087 175.725317 
L 360.244757 175.895991 
L 361.058428 175.666133 
L 361.872098 175.741226 
L 362.685769 175.321889 
L 363.49944 175.710399 
L 364.31311 175.710399 
L 365.126781 175.846102 
L 365.940451 175.443418 
L 366.754122 175.751157 
L 367.567792 175.490461 
L 368.381463 174.767568 
L 369.195133 175.597564 
L 370.008804 175.848873 
L 370.822474 175.848873 
L 371.636145 175.613646 
L 373.263486 175.613646 
L 374.077157 175.424015 
L 374.890827 175.37772 
L 375.704498 175.850842 
L 376.518168 175.734892 
L 378.145509 174.642683 
L 378.95918 174.989966 
L 380.586521 174.989966 
L 381.400191 174.800761 
L 382.213862 175.23472 
L 383.027532 175.400637 
L 383.841203 175.400637 
L 384.654874 175.193716 
L 385.468544 175.143135 
L 386.282215 175.766558 
L 387.095885 175.732556 
L 387.909556 175.250937 
L 388.723226 175.54133 
L 389.536897 174.844222 
L 390.350567 174.844222 
L 391.164238 175.30973 
L 391.977908 175.476545 
L 392.791579 175.026568 
L 393.605249 175.026568 
L 394.41892 175.394754 
L 395.232591 175.040439 
L 396.046261 175.461265 
L 396.859932 175.637913 
L 397.673602 175.637913 
L 398.487273 175.988397 
L 398.487273 175.988397 
" style="fill:none;stroke:#ff7f0e;stroke-linecap:square;stroke-width:1.5;"/>
   </g>
   <g id="line2d_18">
    <path clip-path="url(#p93ad96278b)" d="M 77.970758 -1 
L 78.714751 58.63419 
L 79.528421 94.82304 
L 80.342092 119.27998 
L 81.155762 135.673169 
L 81.969433 146.450783 
L 82.783103 153.886732 
L 83.596774 158.65144 
L 84.410444 162.026358 
L 85.224115 162.026358 
L 86.037785 164.348696 
L 86.851456 165.784695 
L 87.665126 166.667177 
L 88.478797 168.176731 
L 89.292468 168.176731 
L 90.106138 169.111846 
L 90.919809 170.689733 
L 91.733479 170.689733 
L 92.54715 171.211704 
L 93.36082 171.211704 
L 94.174491 171.507029 
L 94.988161 171.65403 
L 95.801832 171.9436 
L 96.615502 172.522332 
L 97.429173 172.437765 
L 98.242843 171.746541 
L 99.056514 172.008491 
L 99.870185 172.581752 
L 100.683855 172.65722 
L 103.124867 172.605531 
L 103.938537 173.103597 
L 104.752208 172.654774 
L 105.565878 173.012186 
L 106.379549 173.095194 
L 107.193219 173.365826 
L 108.00689 173.365826 
L 108.82056 173.675876 
L 109.634231 173.165604 
L 110.447902 172.861881 
L 111.261572 172.861881 
L 112.075243 173.311054 
L 112.888913 173.88821 
L 113.702584 173.88821 
L 114.516254 173.390709 
L 115.329925 173.992507 
L 116.143595 173.992507 
L 116.957266 174.505964 
L 117.770936 173.912626 
L 119.398278 174.013158 
L 120.211948 174.472653 
L 121.025619 174.001646 
L 121.839289 173.771053 
L 122.65296 173.771053 
L 125.093971 174.120913 
L 125.907642 173.835517 
L 126.721312 173.845134 
L 127.534983 174.129642 
L 128.348653 173.96385 
L 129.162324 174.417274 
L 129.975995 174.417274 
L 130.789665 173.632578 
L 131.603336 174.107348 
L 132.417006 174.361921 
L 133.230677 174.498293 
L 134.044347 174.352932 
L 135.671688 174.348551 
L 136.485359 174.739481 
L 138.1127 174.685365 
L 138.92637 174.549355 
L 139.740041 174.549355 
L 140.553712 174.719379 
L 142.994723 174.719379 
L 144.622064 174.101516 
L 145.435735 174.587885 
L 146.249405 173.517975 
L 147.063076 174.200344 
L 147.876746 174.206023 
L 148.690417 174.037801 
L 149.504087 174.403791 
L 150.317758 174.403791 
L 151.945099 173.371937 
L 153.57244 175.113406 
L 154.386111 175.244402 
L 155.199781 175.141385 
L 156.013452 174.884856 
L 156.827122 174.864105 
L 158.454463 174.277389 
L 160.081805 174.190911 
L 160.895475 174.678235 
L 161.709146 174.672797 
L 162.522816 174.353644 
L 164.150157 174.353644 
L 164.963828 174.494833 
L 165.777498 174.761229 
L 167.404839 174.761229 
L 168.21851 174.606594 
L 169.845851 174.606594 
L 170.659522 174.247231 
L 172.286863 174.774324 
L 173.100533 174.947871 
L 173.914204 174.85115 
L 174.727874 174.983893 
L 175.541545 174.928736 
L 177.982556 175.120047 
L 179.609897 175.02337 
L 180.423568 175.245165 
L 181.237239 174.780558 
L 182.050909 174.956208 
L 182.86458 175.350042 
L 183.67825 175.350042 
L 184.491921 175.498474 
L 185.305591 175.875601 
L 186.119262 175.179554 
L 186.932932 174.812112 
L 187.746603 175.124496 
L 188.560273 175.122224 
L 189.373944 174.678907 
L 190.187614 175.07788 
L 191.001285 174.792054 
L 191.814956 174.792054 
L 192.628626 174.389697 
L 193.442297 174.400144 
L 194.255967 174.539646 
L 199.951661 174.436735 
L 200.765332 175.090053 
L 202.392673 174.925895 
L 203.206343 175.177147 
L 204.020014 175.128674 
L 204.833684 175.643185 
L 205.647355 175.401031 
L 206.461025 175.026123 
L 210.529378 175.167252 
L 211.343049 175.385633 
L 212.156719 175.385633 
L 212.97039 175.055538 
L 216.225072 175.112319 
L 217.852413 175.15551 
L 218.666083 175.427243 
L 219.479754 175.373145 
L 220.293424 174.824756 
L 222.734436 174.934697 
L 223.548107 175.173897 
L 224.361777 174.761517 
L 225.989118 174.832804 
L 226.802789 175.095074 
L 227.616459 175.095074 
L 228.43013 175.225416 
L 231.684812 175.36166 
L 232.498483 175.902291 
L 233.312153 175.29508 
L 234.125824 175.582562 
L 234.939494 175.129981 
L 236.566835 174.686413 
L 237.380506 174.367065 
L 239.821517 175.175779 
L 240.635188 175.01023 
L 241.448859 175.316959 
L 242.262529 175.316959 
L 243.0762 174.49807 
L 243.88987 174.413762 
L 244.703541 174.541544 
L 246.330882 175.660733 
L 247.144552 175.370435 
L 247.958223 175.882821 
L 248.771893 175.646043 
L 249.585564 175.924898 
L 250.399234 175.924898 
L 251.212905 175.363572 
L 252.026576 175.020472 
L 252.840246 175.020472 
L 253.653917 175.611933 
L 254.467587 175.597033 
L 255.281258 175.318032 
L 256.094928 175.20638 
L 256.908599 175.545426 
L 258.53594 175.545426 
L 259.34961 174.983782 
L 260.163281 175.76935 
L 260.976951 175.765686 
L 261.790622 175.445559 
L 263.417963 175.47226 
L 264.231634 175.387818 
L 265.045304 175.020207 
L 265.858975 175.146027 
L 266.672645 175.146027 
L 267.486316 174.820543 
L 268.299986 175.234481 
L 269.113657 175.234481 
L 269.927327 175.487479 
L 270.740998 175.303619 
L 271.554668 175.461581 
L 272.368339 175.875851 
L 273.18201 175.34808 
L 274.809351 175.821398 
L 276.436692 175.821398 
L 277.250362 175.972073 
L 278.064033 175.188364 
L 278.877703 175.373764 
L 279.691374 175.373764 
L 280.505044 174.837086 
L 281.318715 175.222272 
L 282.946056 175.255274 
L 283.759727 174.983567 
L 284.573397 174.840125 
L 285.387068 174.840125 
L 286.200738 175.387084 
L 287.828079 175.387084 
L 288.64175 175.061129 
L 289.45542 175.417027 
L 290.269091 175.019719 
L 291.082761 175.296803 
L 291.896432 175.08668 
L 292.710103 175.08668 
L 293.523773 174.76354 
L 294.337444 175.637834 
L 295.151114 175.637834 
L 295.964785 175.423256 
L 296.778455 174.920267 
L 297.592126 175.469199 
L 298.405796 175.366565 
L 299.219467 175.468141 
L 300.033137 175.767834 
L 300.846808 175.471152 
L 301.660478 175.627085 
L 302.474149 175.093205 
L 304.915161 175.115916 
L 305.728831 174.729528 
L 306.542502 175.645985 
L 308.169843 175.137929 
L 308.983513 175.286599 
L 309.797184 175.91674 
L 310.610854 175.694688 
L 311.424525 175.255439 
L 312.238195 175.848019 
L 313.051866 175.042288 
L 313.865537 175.931836 
L 314.679207 175.642534 
L 315.492878 175.010872 
L 316.306548 175.118079 
L 317.120219 174.674257 
L 317.933889 175.045269 
L 318.74756 174.561239 
L 319.56123 175.287501 
L 320.374901 176.301177 
L 321.188571 175.124292 
L 322.002242 175.39692 
L 322.815913 175.354168 
L 323.629583 175.196748 
L 324.443254 174.793494 
L 325.256924 175.513149 
L 326.070595 175.513149 
L 326.884265 175.070872 
L 327.697936 175.070872 
L 328.511606 175.647207 
L 329.325277 175.572498 
L 330.138947 175.836434 
L 330.952618 175.852957 
L 331.766288 175.570474 
L 332.579959 175.65878 
L 333.39363 175.357883 
L 334.2073 175.474424 
L 335.020971 175.464323 
L 335.834641 175.138751 
L 336.648312 175.348741 
L 337.461982 175.112721 
L 338.275653 175.237887 
L 339.089323 175.191705 
L 339.902994 175.398071 
L 340.716664 175.736075 
L 341.530335 175.598673 
L 342.344005 175.000152 
L 343.157676 175.000152 
L 343.971347 175.840856 
L 346.412358 175.536815 
L 347.226029 175.700498 
L 348.039699 175.433968 
L 348.85337 175.438284 
L 349.66704 175.26322 
L 351.294381 175.26322 
L 352.108052 174.911375 
L 352.921722 175.640828 
L 353.735393 175.260774 
L 354.549064 174.736289 
L 355.362734 174.736289 
L 356.176405 175.306778 
L 358.617416 175.289371 
L 359.431087 175.58776 
L 360.244757 175.481959 
L 361.058428 175.973167 
L 361.872098 175.236639 
L 363.49944 175.310967 
L 364.31311 175.310967 
L 365.126781 175.8075 
L 366.754122 176.126949 
L 367.567792 174.978923 
L 368.381463 174.945861 
L 369.195133 175.435154 
L 373.263486 175.411361 
L 374.077157 175.100755 
L 375.704498 175.564319 
L 377.331839 175.224382 
L 378.145509 175.60647 
L 378.95918 175.429383 
L 380.586521 175.429383 
L 381.400191 175.287175 
L 384.654874 175.391918 
L 385.468544 175.068663 
L 386.282215 175.647398 
L 387.909556 175.224807 
L 388.723226 175.190398 
L 389.536897 174.815359 
L 390.350567 174.815359 
L 391.164238 175.090547 
L 391.977908 174.963489 
L 394.41892 175.01214 
L 395.232591 175.176487 
L 396.046261 175.220885 
L 396.859932 175.603093 
L 397.673602 175.603093 
L 398.487273 175.420445 
L 398.487273 175.420445 
" style="fill:none;stroke:#2ca02c;stroke-linecap:square;stroke-width:1.5;"/>
   </g>
   <g id="patch_3">
    <path d="M 57.6 307.584 
L 57.6 41.472 
" style="fill:none;stroke:#000000;stroke-linecap:square;stroke-linejoin:miter;stroke-width:0.8;"/>
   </g>
   <g id="patch_4">
    <path d="M 414.72 307.584 
L 414.72 41.472 
" style="fill:none;stroke:#000000;stroke-linecap:square;stroke-linejoin:miter;stroke-width:0.8;"/>
   </g>
   <g id="patch_5">
    <path d="M 57.6 307.584 
L 414.72 307.584 
" style="fill:none;stroke:#000000;stroke-linecap:square;stroke-linejoin:miter;stroke-width:0.8;"/>
   </g>
   <g id="patch_6">
    <path d="M 57.6 41.472 
L 414.72 41.472 
" style="fill:none;stroke:#000000;stroke-linecap:square;stroke-linejoin:miter;stroke-width:0.8;"/>
   </g>
   <g id="text_16">
    <!-- Plaquettes -->
    <defs>
     <path d="M 19.671875 64.796875 
L 19.671875 37.40625 
L 32.078125 37.40625 
Q 38.96875 37.40625 42.71875 40.96875 
Q 46.484375 44.53125 46.484375 51.125 
Q 46.484375 57.671875 42.71875 61.234375 
Q 38.96875 64.796875 32.078125 64.796875 
z
M 9.8125 72.90625 
L 32.078125 72.90625 
Q 44.34375 72.90625 50.609375 67.359375 
Q 56.890625 61.8125 56.890625 51.125 
Q 56.890625 40.328125 50.609375 34.8125 
Q 44.34375 29.296875 32.078125 29.296875 
L 19.671875 29.296875 
L 19.671875 0 
L 9.8125 0 
z
" id="DejaVuSans-80"/>
     <path d="M 9.421875 75.984375 
L 18.40625 75.984375 
L 18.40625 0 
L 9.421875 0 
z
" id="DejaVuSans-108"/>
     <path d="M 34.28125 27.484375 
Q 23.390625 27.484375 19.1875 25 
Q 14.984375 22.515625 14.984375 16.5 
Q 14.984375 11.71875 18.140625 8.90625 
Q 21.296875 6.109375 26.703125 6.109375 
Q 34.1875 6.109375 38.703125 11.40625 
Q 43.21875 16.703125 43.21875 25.484375 
L 43.21875 27.484375 
z
M 52.203125 31.203125 
L 52.203125 0 
L 43.21875 0 
L 43.21875 8.296875 
Q 40.140625 3.328125 35.546875 0.953125 
Q 30.953125 -1.421875 24.3125 -1.421875 
Q 15.921875 -1.421875 10.953125 3.296875 
Q 6 8.015625 6 15.921875 
Q 6 25.140625 12.171875 29.828125 
Q 18.359375 34.515625 30.609375 34.515625 
L 43.21875 34.515625 
L 43.21875 35.40625 
Q 43.21875 41.609375 39.140625 45 
Q 35.0625 48.390625 27.6875 48.390625 
Q 23 48.390625 18.546875 47.265625 
Q 14.109375 46.140625 10.015625 43.890625 
L 10.015625 52.203125 
Q 14.9375 54.109375 19.578125 55.046875 
Q 24.21875 56 28.609375 56 
Q 40.484375 56 46.34375 49.84375 
Q 52.203125 43.703125 52.203125 31.203125 
z
" id="DejaVuSans-97"/>
     <path d="M 14.796875 27.296875 
Q 14.796875 17.390625 18.875 11.75 
Q 22.953125 6.109375 30.078125 6.109375 
Q 37.203125 6.109375 41.296875 11.75 
Q 45.40625 17.390625 45.40625 27.296875 
Q 45.40625 37.203125 41.296875 42.84375 
Q 37.203125 48.484375 30.078125 48.484375 
Q 22.953125 48.484375 18.875 42.84375 
Q 14.796875 37.203125 14.796875 27.296875 
z
M 45.40625 8.203125 
Q 42.578125 3.328125 38.25 0.953125 
Q 33.9375 -1.421875 27.875 -1.421875 
Q 17.96875 -1.421875 11.734375 6.484375 
Q 5.515625 14.40625 5.515625 27.296875 
Q 5.515625 40.1875 11.734375 48.09375 
Q 17.96875 56 27.875 56 
Q 33.9375 56 38.25 53.625 
Q 42.578125 51.265625 45.40625 46.390625 
L 45.40625 54.6875 
L 54.390625 54.6875 
L 54.390625 -20.796875 
L 45.40625 -20.796875 
z
" id="DejaVuSans-113"/>
     <path d="M 8.5 21.578125 
L 8.5 54.6875 
L 17.484375 54.6875 
L 17.484375 21.921875 
Q 17.484375 14.15625 20.5 10.265625 
Q 23.53125 6.390625 29.59375 6.390625 
Q 36.859375 6.390625 41.078125 11.03125 
Q 45.3125 15.671875 45.3125 23.6875 
L 45.3125 54.6875 
L 54.296875 54.6875 
L 54.296875 0 
L 45.3125 0 
L 45.3125 8.40625 
Q 42.046875 3.421875 37.71875 1 
Q 33.40625 -1.421875 27.6875 -1.421875 
Q 18.265625 -1.421875 13.375 4.4375 
Q 8.5 10.296875 8.5 21.578125 
z
M 31.109375 56 
z
" id="DejaVuSans-117"/>
     <path d="M 56.203125 29.59375 
L 56.203125 25.203125 
L 14.890625 25.203125 
Q 15.484375 15.921875 20.484375 11.0625 
Q 25.484375 6.203125 34.421875 6.203125 
Q 39.59375 6.203125 44.453125 7.46875 
Q 49.3125 8.734375 54.109375 11.28125 
L 54.109375 2.78125 
Q 49.265625 0.734375 44.1875 -0.34375 
Q 39.109375 -1.421875 33.890625 -1.421875 
Q 20.796875 -1.421875 13.15625 6.1875 
Q 5.515625 13.8125 5.515625 26.8125 
Q 5.515625 40.234375 12.765625 48.109375 
Q 20.015625 56 32.328125 56 
Q 43.359375 56 49.78125 48.890625 
Q 56.203125 41.796875 56.203125 29.59375 
z
M 47.21875 32.234375 
Q 47.125 39.59375 43.09375 43.984375 
Q 39.0625 48.390625 32.421875 48.390625 
Q 24.90625 48.390625 20.390625 44.140625 
Q 15.875 39.890625 15.1875 32.171875 
z
" id="DejaVuSans-101"/>
     <path d="M 18.3125 70.21875 
L 18.3125 54.6875 
L 36.8125 54.6875 
L 36.8125 47.703125 
L 18.3125 47.703125 
L 18.3125 18.015625 
Q 18.3125 11.328125 20.140625 9.421875 
Q 21.96875 7.515625 27.59375 7.515625 
L 36.8125 7.515625 
L 36.8125 0 
L 27.59375 0 
Q 17.1875 0 13.234375 3.875 
Q 9.28125 7.765625 9.28125 18.015625 
L 9.28125 47.703125 
L 2.6875 47.703125 
L 2.6875 54.6875 
L 9.28125 54.6875 
L 9.28125 70.21875 
z
" id="DejaVuSans-116"/>
     <path d="M 44.28125 53.078125 
L 44.28125 44.578125 
Q 40.484375 46.53125 36.375 47.5 
Q 32.28125 48.484375 27.875 48.484375 
Q 21.1875 48.484375 17.84375 46.4375 
Q 14.5 44.390625 14.5 40.28125 
Q 14.5 37.15625 16.890625 35.375 
Q 19.28125 33.59375 26.515625 31.984375 
L 29.59375 31.296875 
Q 39.15625 29.25 43.1875 25.515625 
Q 47.21875 21.78125 47.21875 15.09375 
Q 47.21875 7.46875 41.1875 3.015625 
Q 35.15625 -1.421875 24.609375 -1.421875 
Q 20.21875 -1.421875 15.453125 -0.5625 
Q 10.6875 0.296875 5.421875 2 
L 5.421875 11.28125 
Q 10.40625 8.6875 15.234375 7.390625 
Q 20.0625 6.109375 24.8125 6.109375 
Q 31.15625 6.109375 34.5625 8.28125 
Q 37.984375 10.453125 37.984375 14.40625 
Q 37.984375 18.0625 35.515625 20.015625 
Q 33.0625 21.96875 24.703125 23.78125 
L 21.578125 24.515625 
Q 13.234375 26.265625 9.515625 29.90625 
Q 5.8125 33.546875 5.8125 39.890625 
Q 5.8125 47.609375 11.28125 51.796875 
Q 16.75 56 26.8125 56 
Q 31.78125 56 36.171875 55.265625 
Q 40.578125 54.546875 44.28125 53.078125 
z
" id="DejaVuSans-115"/>
    </defs>
    <g transform="translate(204.373125 35.472)scale(0.12 -0.12)">
     <use xlink:href="#DejaVuSans-80"/>
     <use x="60.302734" xlink:href="#DejaVuSans-108"/>
     <use x="88.085938" xlink:href="#DejaVuSans-97"/>
     <use x="149.365234" xlink:href="#DejaVuSans-113"/>
     <use x="212.841797" xlink:href="#DejaVuSans-117"/>
     <use x="276.220703" xlink:href="#DejaVuSans-101"/>
     <use x="337.744141" xlink:href="#DejaVuSans-116"/>
     <use x="376.953125" xlink:href="#DejaVuSans-116"/>
     <use x="416.162109" xlink:href="#DejaVuSans-101"/>
     <use x="477.685547" xlink:href="#DejaVuSans-115"/>
    </g>
   </g>
   <g id="legend_1">
    <g id="patch_7">
     <path d="M 245.084062 93.506375 
L 407.72 93.506375 
Q 409.72 93.506375 409.72 91.506375 
L 409.72 48.472 
Q 409.72 46.472 407.72 46.472 
L 245.084062 46.472 
Q 243.084062 46.472 243.084062 48.472 
L 243.084062 91.506375 
Q 243.084062 93.506375 245.084062 93.506375 
z
" style="fill:#ffffff;opacity:0.8;stroke:#cccccc;stroke-linejoin:miter;"/>
    </g>
    <g id="line2d_19">
     <path d="M 247.084062 54.570438 
L 267.084062 54.570438 
" style="fill:none;stroke:#1f77b4;stroke-linecap:square;stroke-width:1.5;"/>
    </g>
    <g id="line2d_20"/>
    <g id="text_17">
     <!-- full 0.5727+/-0.0000 -->
     <defs>
      <path d="M 37.109375 75.984375 
L 37.109375 68.5 
L 28.515625 68.5 
Q 23.6875 68.5 21.796875 66.546875 
Q 19.921875 64.59375 19.921875 59.515625 
L 19.921875 54.6875 
L 34.71875 54.6875 
L 34.71875 47.703125 
L 19.921875 47.703125 
L 19.921875 0 
L 10.890625 0 
L 10.890625 47.703125 
L 2.296875 47.703125 
L 2.296875 54.6875 
L 10.890625 54.6875 
L 10.890625 58.5 
Q 10.890625 67.625 15.140625 71.796875 
Q 19.390625 75.984375 28.609375 75.984375 
z
" id="DejaVuSans-102"/>
      <path id="DejaVuSans-32"/>
      <path d="M 46 62.703125 
L 46 35.5 
L 73.1875 35.5 
L 73.1875 27.203125 
L 46 27.203125 
L 46 0 
L 37.796875 0 
L 37.796875 27.203125 
L 10.59375 27.203125 
L 10.59375 35.5 
L 37.796875 35.5 
L 37.796875 62.703125 
z
" id="DejaVuSans-43"/>
      <path d="M 25.390625 72.90625 
L 33.6875 72.90625 
L 8.296875 -9.28125 
L 0 -9.28125 
z
" id="DejaVuSans-47"/>
      <path d="M 4.890625 31.390625 
L 31.203125 31.390625 
L 31.203125 23.390625 
L 4.890625 23.390625 
z
" id="DejaVuSans-45"/>
     </defs>
     <g transform="translate(275.084062 58.070438)scale(0.1 -0.1)">
      <use xlink:href="#DejaVuSans-102"/>
      <use x="35.205078" xlink:href="#DejaVuSans-117"/>
      <use x="98.583984" xlink:href="#DejaVuSans-108"/>
      <use x="126.367188" xlink:href="#DejaVuSans-108"/>
      <use x="154.150391" xlink:href="#DejaVuSans-32"/>
      <use x="185.9375" xlink:href="#DejaVuSans-48"/>
      <use x="249.560547" xlink:href="#DejaVuSans-46"/>
      <use x="281.347656" xlink:href="#DejaVuSans-53"/>
      <use x="344.970703" xlink:href="#DejaVuSans-55"/>
      <use x="408.59375" xlink:href="#DejaVuSans-50"/>
      <use x="472.216797" xlink:href="#DejaVuSans-55"/>
      <use x="535.839844" xlink:href="#DejaVuSans-43"/>
      <use x="619.628906" xlink:href="#DejaVuSans-47"/>
      <use x="653.320312" xlink:href="#DejaVuSans-45"/>
      <use x="689.404297" xlink:href="#DejaVuSans-48"/>
      <use x="753.027344" xlink:href="#DejaVuSans-46"/>
      <use x="784.814453" xlink:href="#DejaVuSans-48"/>
      <use x="848.4375" xlink:href="#DejaVuSans-48"/>
      <use x="912.060547" xlink:href="#DejaVuSans-48"/>
      <use x="975.683594" xlink:href="#DejaVuSans-48"/>
     </g>
    </g>
    <g id="line2d_21">
     <path d="M 247.084062 69.248563 
L 267.084062 69.248563 
" style="fill:none;stroke:#ff7f0e;stroke-linecap:square;stroke-width:1.5;"/>
    </g>
    <g id="line2d_22"/>
    <g id="text_18">
     <!-- spatial 0.5727+/-0.0000 -->
     <defs>
      <path d="M 18.109375 8.203125 
L 18.109375 -20.796875 
L 9.078125 -20.796875 
L 9.078125 54.6875 
L 18.109375 54.6875 
L 18.109375 46.390625 
Q 20.953125 51.265625 25.265625 53.625 
Q 29.59375 56 35.59375 56 
Q 45.5625 56 51.78125 48.09375 
Q 58.015625 40.1875 58.015625 27.296875 
Q 58.015625 14.40625 51.78125 6.484375 
Q 45.5625 -1.421875 35.59375 -1.421875 
Q 29.59375 -1.421875 25.265625 0.953125 
Q 20.953125 3.328125 18.109375 8.203125 
z
M 48.6875 27.296875 
Q 48.6875 37.203125 44.609375 42.84375 
Q 40.53125 48.484375 33.40625 48.484375 
Q 26.265625 48.484375 22.1875 42.84375 
Q 18.109375 37.203125 18.109375 27.296875 
Q 18.109375 17.390625 22.1875 11.75 
Q 26.265625 6.109375 33.40625 6.109375 
Q 40.53125 6.109375 44.609375 11.75 
Q 48.6875 17.390625 48.6875 27.296875 
z
" id="DejaVuSans-112"/>
      <path d="M 9.421875 54.6875 
L 18.40625 54.6875 
L 18.40625 0 
L 9.421875 0 
z
M 9.421875 75.984375 
L 18.40625 75.984375 
L 18.40625 64.59375 
L 9.421875 64.59375 
z
" id="DejaVuSans-105"/>
     </defs>
     <g transform="translate(275.084062 72.748563)scale(0.1 -0.1)">
      <use xlink:href="#DejaVuSans-115"/>
      <use x="52.099609" xlink:href="#DejaVuSans-112"/>
      <use x="115.576172" xlink:href="#DejaVuSans-97"/>
      <use x="176.855469" xlink:href="#DejaVuSans-116"/>
      <use x="216.064453" xlink:href="#DejaVuSans-105"/>
      <use x="243.847656" xlink:href="#DejaVuSans-97"/>
      <use x="305.126953" xlink:href="#DejaVuSans-108"/>
      <use x="332.910156" xlink:href="#DejaVuSans-32"/>
      <use x="364.697266" xlink:href="#DejaVuSans-48"/>
      <use x="428.320312" xlink:href="#DejaVuSans-46"/>
      <use x="460.107422" xlink:href="#DejaVuSans-53"/>
      <use x="523.730469" xlink:href="#DejaVuSans-55"/>
      <use x="587.353516" xlink:href="#DejaVuSans-50"/>
      <use x="650.976562" xlink:href="#DejaVuSans-55"/>
      <use x="714.599609" xlink:href="#DejaVuSans-43"/>
      <use x="798.388672" xlink:href="#DejaVuSans-47"/>
      <use x="832.080078" xlink:href="#DejaVuSans-45"/>
      <use x="868.164062" xlink:href="#DejaVuSans-48"/>
      <use x="931.787109" xlink:href="#DejaVuSans-46"/>
      <use x="963.574219" xlink:href="#DejaVuSans-48"/>
      <use x="1027.197266" xlink:href="#DejaVuSans-48"/>
      <use x="1090.820312" xlink:href="#DejaVuSans-48"/>
      <use x="1154.443359" xlink:href="#DejaVuSans-48"/>
     </g>
    </g>
    <g id="line2d_23">
     <path d="M 247.084062 83.926688 
L 267.084062 83.926688 
" style="fill:none;stroke:#2ca02c;stroke-linecap:square;stroke-width:1.5;"/>
    </g>
    <g id="line2d_24"/>
    <g id="text_19">
     <!-- temporal0.5727+/-0.0000 -->
     <defs>
      <path d="M 52 44.1875 
Q 55.375 50.25 60.0625 53.125 
Q 64.75 56 71.09375 56 
Q 79.640625 56 84.28125 50.015625 
Q 88.921875 44.046875 88.921875 33.015625 
L 88.921875 0 
L 79.890625 0 
L 79.890625 32.71875 
Q 79.890625 40.578125 77.09375 44.375 
Q 74.3125 48.1875 68.609375 48.1875 
Q 61.625 48.1875 57.5625 43.546875 
Q 53.515625 38.921875 53.515625 30.90625 
L 53.515625 0 
L 44.484375 0 
L 44.484375 32.71875 
Q 44.484375 40.625 41.703125 44.40625 
Q 38.921875 48.1875 33.109375 48.1875 
Q 26.21875 48.1875 22.15625 43.53125 
Q 18.109375 38.875 18.109375 30.90625 
L 18.109375 0 
L 9.078125 0 
L 9.078125 54.6875 
L 18.109375 54.6875 
L 18.109375 46.1875 
Q 21.1875 51.21875 25.484375 53.609375 
Q 29.78125 56 35.6875 56 
Q 41.65625 56 45.828125 52.96875 
Q 50 49.953125 52 44.1875 
z
" id="DejaVuSans-109"/>
      <path d="M 30.609375 48.390625 
Q 23.390625 48.390625 19.1875 42.75 
Q 14.984375 37.109375 14.984375 27.296875 
Q 14.984375 17.484375 19.15625 11.84375 
Q 23.34375 6.203125 30.609375 6.203125 
Q 37.796875 6.203125 41.984375 11.859375 
Q 46.1875 17.53125 46.1875 27.296875 
Q 46.1875 37.015625 41.984375 42.703125 
Q 37.796875 48.390625 30.609375 48.390625 
z
M 30.609375 56 
Q 42.328125 56 49.015625 48.375 
Q 55.71875 40.765625 55.71875 27.296875 
Q 55.71875 13.875 49.015625 6.21875 
Q 42.328125 -1.421875 30.609375 -1.421875 
Q 18.84375 -1.421875 12.171875 6.21875 
Q 5.515625 13.875 5.515625 27.296875 
Q 5.515625 40.765625 12.171875 48.375 
Q 18.84375 56 30.609375 56 
z
" id="DejaVuSans-111"/>
      <path d="M 41.109375 46.296875 
Q 39.59375 47.171875 37.8125 47.578125 
Q 36.03125 48 33.890625 48 
Q 26.265625 48 22.1875 43.046875 
Q 18.109375 38.09375 18.109375 28.8125 
L 18.109375 0 
L 9.078125 0 
L 9.078125 54.6875 
L 18.109375 54.6875 
L 18.109375 46.1875 
Q 20.953125 51.171875 25.484375 53.578125 
Q 30.03125 56 36.53125 56 
Q 37.453125 56 38.578125 55.875 
Q 39.703125 55.765625 41.0625 55.515625 
z
" id="DejaVuSans-114"/>
     </defs>
     <g transform="translate(275.084062 87.426688)scale(0.1 -0.1)">
      <use xlink:href="#DejaVuSans-116"/>
      <use x="39.208984" xlink:href="#DejaVuSans-101"/>
      <use x="100.732422" xlink:href="#DejaVuSans-109"/>
      <use x="198.144531" xlink:href="#DejaVuSans-112"/>
      <use x="261.621094" xlink:href="#DejaVuSans-111"/>
      <use x="322.802734" xlink:href="#DejaVuSans-114"/>
      <use x="363.916016" xlink:href="#DejaVuSans-97"/>
      <use x="425.195312" xlink:href="#DejaVuSans-108"/>
      <use x="452.978516" xlink:href="#DejaVuSans-48"/>
      <use x="516.601562" xlink:href="#DejaVuSans-46"/>
      <use x="548.388672" xlink:href="#DejaVuSans-53"/>
      <use x="612.011719" xlink:href="#DejaVuSans-55"/>
      <use x="675.634766" xlink:href="#DejaVuSans-50"/>
      <use x="739.257812" xlink:href="#DejaVuSans-55"/>
      <use x="802.880859" xlink:href="#DejaVuSans-43"/>
      <use x="886.669922" xlink:href="#DejaVuSans-47"/>
      <use x="920.361328" xlink:href="#DejaVuSans-45"/>
      <use x="956.445312" xlink:href="#DejaVuSans-48"/>
      <use x="1020.068359" xlink:href="#DejaVuSans-46"/>
      <use x="1051.855469" xlink:href="#DejaVuSans-48"/>
      <use x="1115.478516" xlink:href="#DejaVuSans-48"/>
      <use x="1179.101562" xlink:href="#DejaVuSans-48"/>
      <use x="1242.724609" xlink:href="#DejaVuSans-48"/>
     </g>
    </g>
   </g>
  </g>
 </g>
 <defs>
  <clipPath id="p93ad96278b">
   <rect height="266.112" width="357.12" x="57.6" y="41.472"/>
  </clipPath>
 </defs>
</svg>
