<?xml version="1.0" encoding="utf-8" standalone="no"?>
<!DOCTYPE svg PUBLIC "-//W3C//DTD SVG 1.1//EN"
  "http://www.w3.org/Graphics/SVG/1.1/DTD/svg11.dtd">
<!-- Created with matplotlib (https://matplotlib.org/) -->
<svg height="345.6pt" version="1.1" viewBox="0 0 460.8 345.6" width="460.8pt" xmlns="http://www.w3.org/2000/svg" xmlns:xlink="http://www.w3.org/1999/xlink">
 <defs>
  <style type="text/css">
*{stroke-linecap:butt;stroke-linejoin:round;}
  </style>
 </defs>
 <g id="figure_1">
  <g id="patch_1">
   <path d="M 0 345.6 
L 460.8 345.6 
L 460.8 0 
L 0 0 
z
" style="fill:#ffffff;"/>
  </g>
  <g id="axes_1">
   <g id="patch_2">
    <path d="M 57.6 307.584 
L 414.72 307.584 
L 414.72 41.472 
L 57.6 41.472 
z
" style="fill:#ffffff;"/>
   </g>
   <g id="matplotlib.axis_1">
    <g id="xtick_1">
     <g id="line2d_1">
      <defs>
       <path d="M 0 0 
L 0 3.5 
" id="mc2aaac415a" style="stroke:#000000;stroke-width:0.8;"/>
      </defs>
      <g>
       <use style="stroke:#000000;stroke-width:0.8;" x="73.290733" xlink:href="#mc2aaac415a" y="307.584"/>
      </g>
     </g>
     <g id="text_1">
      <!-- 0 -->
      <defs>
       <path d="M 31.78125 66.40625 
Q 24.171875 66.40625 20.328125 58.90625 
Q 16.5 51.421875 16.5 36.375 
Q 16.5 21.390625 20.328125 13.890625 
Q 24.171875 6.390625 31.78125 6.390625 
Q 39.453125 6.390625 43.28125 13.890625 
Q 47.125 21.390625 47.125 36.375 
Q 47.125 51.421875 43.28125 58.90625 
Q 39.453125 66.40625 31.78125 66.40625 
z
M 31.78125 74.21875 
Q 44.046875 74.21875 50.515625 64.515625 
Q 56.984375 54.828125 56.984375 36.375 
Q 56.984375 17.96875 50.515625 8.265625 
Q 44.046875 -1.421875 31.78125 -1.421875 
Q 19.53125 -1.421875 13.0625 8.265625 
Q 6.59375 17.96875 6.59375 36.375 
Q 6.59375 54.828125 13.0625 64.515625 
Q 19.53125 74.21875 31.78125 74.21875 
z
" id="DejaVuSans-48"/>
      </defs>
      <g transform="translate(70.109483 322.182437)scale(0.1 -0.1)">
       <use xlink:href="#DejaVuSans-48"/>
      </g>
     </g>
    </g>
    <g id="xtick_2">
     <g id="line2d_2">
      <g>
       <use style="stroke:#000000;stroke-width:0.8;" x="127.490156" xlink:href="#mc2aaac415a" y="307.584"/>
      </g>
     </g>
     <g id="text_2">
      <!-- 100 -->
      <defs>
       <path d="M 12.40625 8.296875 
L 28.515625 8.296875 
L 28.515625 63.921875 
L 10.984375 60.40625 
L 10.984375 69.390625 
L 28.421875 72.90625 
L 38.28125 72.90625 
L 38.28125 8.296875 
L 54.390625 8.296875 
L 54.390625 0 
L 12.40625 0 
z
" id="DejaVuSans-49"/>
      </defs>
      <g transform="translate(117.946406 322.182437)scale(0.1 -0.1)">
       <use xlink:href="#DejaVuSans-49"/>
       <use x="63.623047" xlink:href="#DejaVuSans-48"/>
       <use x="127.246094" xlink:href="#DejaVuSans-48"/>
      </g>
     </g>
    </g>
    <g id="xtick_3">
     <g id="line2d_3">
      <g>
       <use style="stroke:#000000;stroke-width:0.8;" x="181.68958" xlink:href="#mc2aaac415a" y="307.584"/>
      </g>
     </g>
     <g id="text_3">
      <!-- 200 -->
      <defs>
       <path d="M 19.1875 8.296875 
L 53.609375 8.296875 
L 53.609375 0 
L 7.328125 0 
L 7.328125 8.296875 
Q 12.9375 14.109375 22.625 23.890625 
Q 32.328125 33.6875 34.8125 36.53125 
Q 39.546875 41.84375 41.421875 45.53125 
Q 43.3125 49.21875 43.3125 52.78125 
Q 43.3125 58.59375 39.234375 62.25 
Q 35.15625 65.921875 28.609375 65.921875 
Q 23.96875 65.921875 18.8125 64.3125 
Q 13.671875 62.703125 7.8125 59.421875 
L 7.8125 69.390625 
Q 13.765625 71.78125 18.9375 73 
Q 24.125 74.21875 28.421875 74.21875 
Q 39.75 74.21875 46.484375 68.546875 
Q 53.21875 62.890625 53.21875 53.421875 
Q 53.21875 48.921875 51.53125 44.890625 
Q 49.859375 40.875 45.40625 35.40625 
Q 44.1875 33.984375 37.640625 27.21875 
Q 31.109375 20.453125 19.1875 8.296875 
z
" id="DejaVuSans-50"/>
      </defs>
      <g transform="translate(172.14583 322.182437)scale(0.1 -0.1)">
       <use xlink:href="#DejaVuSans-50"/>
       <use x="63.623047" xlink:href="#DejaVuSans-48"/>
       <use x="127.246094" xlink:href="#DejaVuSans-48"/>
      </g>
     </g>
    </g>
    <g id="xtick_4">
     <g id="line2d_4">
      <g>
       <use style="stroke:#000000;stroke-width:0.8;" x="235.889003" xlink:href="#mc2aaac415a" y="307.584"/>
      </g>
     </g>
     <g id="text_4">
      <!-- 300 -->
      <defs>
       <path d="M 40.578125 39.3125 
Q 47.65625 37.796875 51.625 33 
Q 55.609375 28.21875 55.609375 21.1875 
Q 55.609375 10.40625 48.1875 4.484375 
Q 40.765625 -1.421875 27.09375 -1.421875 
Q 22.515625 -1.421875 17.65625 -0.515625 
Q 12.796875 0.390625 7.625 2.203125 
L 7.625 11.71875 
Q 11.71875 9.328125 16.59375 8.109375 
Q 21.484375 6.890625 26.8125 6.890625 
Q 36.078125 6.890625 40.9375 10.546875 
Q 45.796875 14.203125 45.796875 21.1875 
Q 45.796875 27.640625 41.28125 31.265625 
Q 36.765625 34.90625 28.71875 34.90625 
L 20.21875 34.90625 
L 20.21875 43.015625 
L 29.109375 43.015625 
Q 36.375 43.015625 40.234375 45.921875 
Q 44.09375 48.828125 44.09375 54.296875 
Q 44.09375 59.90625 40.109375 62.90625 
Q 36.140625 65.921875 28.71875 65.921875 
Q 24.65625 65.921875 20.015625 65.03125 
Q 15.375 64.15625 9.8125 62.3125 
L 9.8125 71.09375 
Q 15.4375 72.65625 20.34375 73.4375 
Q 25.25 74.21875 29.59375 74.21875 
Q 40.828125 74.21875 47.359375 69.109375 
Q 53.90625 64.015625 53.90625 55.328125 
Q 53.90625 49.265625 50.4375 45.09375 
Q 46.96875 40.921875 40.578125 39.3125 
z
" id="DejaVuSans-51"/>
      </defs>
      <g transform="translate(226.345253 322.182437)scale(0.1 -0.1)">
       <use xlink:href="#DejaVuSans-51"/>
       <use x="63.623047" xlink:href="#DejaVuSans-48"/>
       <use x="127.246094" xlink:href="#DejaVuSans-48"/>
      </g>
     </g>
    </g>
    <g id="xtick_5">
     <g id="line2d_5">
      <g>
       <use style="stroke:#000000;stroke-width:0.8;" x="290.088426" xlink:href="#mc2aaac415a" y="307.584"/>
      </g>
     </g>
     <g id="text_5">
      <!-- 400 -->
      <defs>
       <path d="M 37.796875 64.3125 
L 12.890625 25.390625 
L 37.796875 25.390625 
z
M 35.203125 72.90625 
L 47.609375 72.90625 
L 47.609375 25.390625 
L 58.015625 25.390625 
L 58.015625 17.1875 
L 47.609375 17.1875 
L 47.609375 0 
L 37.796875 0 
L 37.796875 17.1875 
L 4.890625 17.1875 
L 4.890625 26.703125 
z
" id="DejaVuSans-52"/>
      </defs>
      <g transform="translate(280.544676 322.182437)scale(0.1 -0.1)">
       <use xlink:href="#DejaVuSans-52"/>
       <use x="63.623047" xlink:href="#DejaVuSans-48"/>
       <use x="127.246094" xlink:href="#DejaVuSans-48"/>
      </g>
     </g>
    </g>
    <g id="xtick_6">
     <g id="line2d_6">
      <g>
       <use style="stroke:#000000;stroke-width:0.8;" x="344.287849" xlink:href="#mc2aaac415a" y="307.584"/>
      </g>
     </g>
     <g id="text_6">
      <!-- 500 -->
      <defs>
       <path d="M 10.796875 72.90625 
L 49.515625 72.90625 
L 49.515625 64.59375 
L 19.828125 64.59375 
L 19.828125 46.734375 
Q 21.96875 47.46875 24.109375 47.828125 
Q 26.265625 48.1875 28.421875 48.1875 
Q 40.625 48.1875 47.75 41.5 
Q 54.890625 34.8125 54.890625 23.390625 
Q 54.890625 11.625 47.5625 5.09375 
Q 40.234375 -1.421875 26.90625 -1.421875 
Q 22.3125 -1.421875 17.546875 -0.640625 
Q 12.796875 0.140625 7.71875 1.703125 
L 7.71875 11.625 
Q 12.109375 9.234375 16.796875 8.0625 
Q 21.484375 6.890625 26.703125 6.890625 
Q 35.15625 6.890625 40.078125 11.328125 
Q 45.015625 15.765625 45.015625 23.390625 
Q 45.015625 31 40.078125 35.4375 
Q 35.15625 39.890625 26.703125 39.890625 
Q 22.75 39.890625 18.8125 39.015625 
Q 14.890625 38.140625 10.796875 36.28125 
z
" id="DejaVuSans-53"/>
      </defs>
      <g transform="translate(334.744099 322.182437)scale(0.1 -0.1)">
       <use xlink:href="#DejaVuSans-53"/>
       <use x="63.623047" xlink:href="#DejaVuSans-48"/>
       <use x="127.246094" xlink:href="#DejaVuSans-48"/>
      </g>
     </g>
    </g>
    <g id="xtick_7">
     <g id="line2d_7">
      <g>
       <use style="stroke:#000000;stroke-width:0.8;" x="398.487273" xlink:href="#mc2aaac415a" y="307.584"/>
      </g>
     </g>
     <g id="text_7">
      <!-- 600 -->
      <defs>
       <path d="M 33.015625 40.375 
Q 26.375 40.375 22.484375 35.828125 
Q 18.609375 31.296875 18.609375 23.390625 
Q 18.609375 15.53125 22.484375 10.953125 
Q 26.375 6.390625 33.015625 6.390625 
Q 39.65625 6.390625 43.53125 10.953125 
Q 47.40625 15.53125 47.40625 23.390625 
Q 47.40625 31.296875 43.53125 35.828125 
Q 39.65625 40.375 33.015625 40.375 
z
M 52.59375 71.296875 
L 52.59375 62.3125 
Q 48.875 64.0625 45.09375 64.984375 
Q 41.3125 65.921875 37.59375 65.921875 
Q 27.828125 65.921875 22.671875 59.328125 
Q 17.53125 52.734375 16.796875 39.40625 
Q 19.671875 43.65625 24.015625 45.921875 
Q 28.375 48.1875 33.59375 48.1875 
Q 44.578125 48.1875 50.953125 41.515625 
Q 57.328125 34.859375 57.328125 23.390625 
Q 57.328125 12.15625 50.6875 5.359375 
Q 44.046875 -1.421875 33.015625 -1.421875 
Q 20.359375 -1.421875 13.671875 8.265625 
Q 6.984375 17.96875 6.984375 36.375 
Q 6.984375 53.65625 15.1875 63.9375 
Q 23.390625 74.21875 37.203125 74.21875 
Q 40.921875 74.21875 44.703125 73.484375 
Q 48.484375 72.75 52.59375 71.296875 
z
" id="DejaVuSans-54"/>
      </defs>
      <g transform="translate(388.943523 322.182437)scale(0.1 -0.1)">
       <use xlink:href="#DejaVuSans-54"/>
       <use x="63.623047" xlink:href="#DejaVuSans-48"/>
       <use x="127.246094" xlink:href="#DejaVuSans-48"/>
      </g>
     </g>
    </g>
   </g>
   <g id="matplotlib.axis_2">
    <g id="ytick_1">
     <g id="line2d_8">
      <defs>
       <path d="M 0 0 
L -3.5 0 
" id="m08c87783ac" style="stroke:#000000;stroke-width:0.8;"/>
      </defs>
      <g>
       <use style="stroke:#000000;stroke-width:0.8;" x="57.6" xlink:href="#m08c87783ac" y="280.493008"/>
      </g>
     </g>
     <g id="text_8">
      <!-- 40 -->
      <g transform="translate(37.875 284.292226)scale(0.1 -0.1)">
       <use xlink:href="#DejaVuSans-52"/>
       <use x="63.623047" xlink:href="#DejaVuSans-48"/>
      </g>
     </g>
    </g>
    <g id="ytick_2">
     <g id="line2d_9">
      <g>
       <use style="stroke:#000000;stroke-width:0.8;" x="57.6" xlink:href="#m08c87783ac" y="223.838435"/>
      </g>
     </g>
     <g id="text_9">
      <!-- 60 -->
      <g transform="translate(37.875 227.637654)scale(0.1 -0.1)">
       <use xlink:href="#DejaVuSans-54"/>
       <use x="63.623047" xlink:href="#DejaVuSans-48"/>
      </g>
     </g>
    </g>
    <g id="ytick_3">
     <g id="line2d_10">
      <g>
       <use style="stroke:#000000;stroke-width:0.8;" x="57.6" xlink:href="#m08c87783ac" y="167.183862"/>
      </g>
     </g>
     <g id="text_10">
      <!-- 80 -->
      <defs>
       <path d="M 31.78125 34.625 
Q 24.75 34.625 20.71875 30.859375 
Q 16.703125 27.09375 16.703125 20.515625 
Q 16.703125 13.921875 20.71875 10.15625 
Q 24.75 6.390625 31.78125 6.390625 
Q 38.8125 6.390625 42.859375 10.171875 
Q 46.921875 13.96875 46.921875 20.515625 
Q 46.921875 27.09375 42.890625 30.859375 
Q 38.875 34.625 31.78125 34.625 
z
M 21.921875 38.8125 
Q 15.578125 40.375 12.03125 44.71875 
Q 8.5 49.078125 8.5 55.328125 
Q 8.5 64.0625 14.71875 69.140625 
Q 20.953125 74.21875 31.78125 74.21875 
Q 42.671875 74.21875 48.875 69.140625 
Q 55.078125 64.0625 55.078125 55.328125 
Q 55.078125 49.078125 51.53125 44.71875 
Q 48 40.375 41.703125 38.8125 
Q 48.828125 37.15625 52.796875 32.3125 
Q 56.78125 27.484375 56.78125 20.515625 
Q 56.78125 9.90625 50.3125 4.234375 
Q 43.84375 -1.421875 31.78125 -1.421875 
Q 19.734375 -1.421875 13.25 4.234375 
Q 6.78125 9.90625 6.78125 20.515625 
Q 6.78125 27.484375 10.78125 32.3125 
Q 14.796875 37.15625 21.921875 38.8125 
z
M 18.3125 54.390625 
Q 18.3125 48.734375 21.84375 45.5625 
Q 25.390625 42.390625 31.78125 42.390625 
Q 38.140625 42.390625 41.71875 45.5625 
Q 45.3125 48.734375 45.3125 54.390625 
Q 45.3125 60.0625 41.71875 63.234375 
Q 38.140625 66.40625 31.78125 66.40625 
Q 25.390625 66.40625 21.84375 63.234375 
Q 18.3125 60.0625 18.3125 54.390625 
z
" id="DejaVuSans-56"/>
      </defs>
      <g transform="translate(37.875 170.983081)scale(0.1 -0.1)">
       <use xlink:href="#DejaVuSans-56"/>
       <use x="63.623047" xlink:href="#DejaVuSans-48"/>
      </g>
     </g>
    </g>
    <g id="ytick_4">
     <g id="line2d_11">
      <g>
       <use style="stroke:#000000;stroke-width:0.8;" x="57.6" xlink:href="#m08c87783ac" y="110.529289"/>
      </g>
     </g>
     <g id="text_11">
      <!-- 100 -->
      <g transform="translate(31.5125 114.328508)scale(0.1 -0.1)">
       <use xlink:href="#DejaVuSans-49"/>
       <use x="63.623047" xlink:href="#DejaVuSans-48"/>
       <use x="127.246094" xlink:href="#DejaVuSans-48"/>
      </g>
     </g>
    </g>
    <g id="ytick_5">
     <g id="line2d_12">
      <g>
       <use style="stroke:#000000;stroke-width:0.8;" x="57.6" xlink:href="#m08c87783ac" y="53.874717"/>
      </g>
     </g>
     <g id="text_12">
      <!-- 120 -->
      <g transform="translate(31.5125 57.673935)scale(0.1 -0.1)">
       <use xlink:href="#DejaVuSans-49"/>
       <use x="63.623047" xlink:href="#DejaVuSans-50"/>
       <use x="127.246094" xlink:href="#DejaVuSans-48"/>
      </g>
     </g>
    </g>
   </g>
   <g id="line2d_13">
    <path clip-path="url(#p7006ffc6a3)" d="M 73.832727 274.442047 
L 74.374722 295.488 
L 74.916716 289.815773 
L 76.542698 266.87997 
L 78.168681 241.272081 
L 78.710675 235.109766 
L 79.25267 226.760139 
L 79.794664 223.156674 
L 80.336658 224.303699 
L 80.878652 224.419071 
L 81.420647 229.501133 
L 82.504635 236.671882 
L 83.046629 235.069609 
L 83.588623 235.726122 
L 84.130618 235.50622 
L 84.672612 234.882145 
L 85.214606 237.492127 
L 85.7566 223.363871 
L 86.298595 221.383595 
L 86.840589 222.015653 
L 87.382583 218.686002 
L 87.924577 221.598837 
L 88.466572 219.849508 
L 89.008566 220.064532 
L 89.55056 221.8057 
L 90.634548 219.328606 
L 91.176543 223.05791 
L 91.718537 219.443734 
L 92.260531 219.99896 
L 92.802525 218.8118 
L 93.34452 218.52987 
L 93.886514 219.154858 
L 94.428508 220.762967 
L 94.970502 220.086545 
L 95.512497 219.091028 
L 96.054491 219.202921 
L 96.596485 219.191018 
L 97.138479 218.618073 
L 97.680474 221.545531 
L 98.222468 221.744683 
L 98.764462 219.719055 
L 99.306456 221.227614 
L 99.84845 219.359914 
L 100.390445 218.401652 
L 100.932439 220.10649 
L 101.474433 217.325575 
L 102.016427 217.799896 
L 102.558422 225.356457 
L 103.100416 221.375553 
L 103.64241 221.033696 
L 104.184404 223.001304 
L 104.726399 221.869402 
L 105.268393 223.055755 
L 105.810387 221.173899 
L 106.352381 222.374568 
L 106.894375 223.011383 
L 107.43637 222.233085 
L 107.978364 219.727568 
L 108.520358 224.111062 
L 109.062352 219.531803 
L 109.604347 222.438506 
L 110.146341 221.195298 
L 110.688335 220.850212 
L 111.230329 223.571966 
L 111.772324 220.953227 
L 112.314318 222.286581 
L 112.856312 222.592898 
L 113.398306 221.894724 
L 113.940301 222.919095 
L 114.482295 221.825232 
L 115.024289 221.657072 
L 115.566283 223.781273 
L 116.108277 220.65549 
L 116.650272 221.171234 
L 117.192266 223.440283 
L 117.73426 220.83089 
L 118.276254 222.391588 
L 118.818249 223.565431 
L 119.360243 220.393148 
L 119.902237 221.429179 
L 120.444231 222.930112 
L 120.986226 221.746941 
L 121.52822 224.144874 
L 122.070214 220.225975 
L 123.154202 221.887877 
L 123.696197 219.562669 
L 124.238191 222.865319 
L 124.780185 218.81333 
L 125.322179 219.750513 
L 125.864174 222.099386 
L 126.406168 219.960104 
L 126.948162 220.973501 
L 127.490156 53.568 
L 128.032151 222.338508 
L 128.574145 221.679881 
L 129.116139 220.760916 
L 129.658133 224.208185 
L 130.200127 234.351124 
L 130.742122 235.526641 
L 131.284116 234.507108 
L 131.82611 234.869927 
L 132.368104 235.398203 
L 132.910099 235.690302 
L 133.452093 219.159965 
L 133.994087 222.632403 
L 134.536081 221.303061 
L 135.078076 221.865125 
L 135.62007 221.754784 
L 136.162064 220.209718 
L 136.704058 224.535448 
L 137.246053 219.788684 
L 137.788047 221.555006 
L 138.330041 221.919049 
L 138.872035 220.464576 
L 139.414029 222.455525 
L 139.956024 221.609454 
L 140.498018 221.632479 
L 141.040012 221.967364 
L 141.582006 219.866264 
L 142.124001 219.188321 
L 142.665995 224.390511 
L 143.207989 221.533684 
L 143.749983 219.813416 
L 144.291978 220.747265 
L 144.833972 219.954121 
L 145.375966 222.695415 
L 145.91796 220.05466 
L 146.459954 220.650332 
L 147.001949 222.812024 
L 147.543943 221.622757 
L 148.085937 221.379743 
L 148.627931 221.483367 
L 149.169926 220.59698 
L 149.71192 221.388751 
L 150.253914 221.032053 
L 150.795908 220.364626 
L 151.337903 221.295353 
L 151.879897 219.898019 
L 152.421891 222.835689 
L 152.963885 221.023269 
L 153.505879 221.681626 
L 154.047874 223.337977 
L 155.131862 219.738423 
L 155.673856 223.073425 
L 156.215851 220.763763 
L 156.757845 221.039101 
L 157.299839 219.492819 
L 157.841833 219.366032 
L 158.383828 227.685164 
L 158.925822 227.705189 
L 159.467816 228.806721 
L 160.00981 226.742177 
L 160.551805 228.259659 
L 161.093799 227.279719 
L 161.635793 227.602862 
L 162.719781 227.864844 
L 163.261776 227.588285 
L 163.80377 228.2419 
L 164.345764 227.027337 
L 164.887758 227.430723 
L 165.429753 227.68215 
L 165.971747 228.362155 
L 167.055735 227.817725 
L 167.59773 227.877059 
L 168.139724 228.799288 
L 168.681718 227.368179 
L 169.223712 228.110688 
L 169.765706 227.145586 
L 170.307701 228.341111 
L 170.849695 226.469085 
L 171.391689 227.508093 
L 171.933683 227.833755 
L 172.475678 226.290184 
L 173.017672 228.07701 
L 173.559666 227.588667 
L 174.10166 225.628377 
L 174.643655 224.90064 
L 175.185649 225.571141 
L 175.727643 224.877378 
L 176.269637 225.380949 
L 176.811632 224.067455 
L 177.353626 226.202653 
L 177.89562 225.385935 
L 178.437614 225.390473 
L 178.979608 225.954248 
L 179.521603 225.706092 
L 180.063597 224.891601 
L 180.605591 227.742374 
L 181.147585 225.690297 
L 181.68958 61.557196 
L 182.231574 212.204246 
L 182.773568 238.863907 
L 183.315562 240.860168 
L 183.857557 239.519707 
L 184.399551 238.936199 
L 184.941545 239.864492 
L 186.025533 238.806281 
L 186.567528 239.964366 
L 187.109522 240.43778 
L 187.651516 239.782074 
L 188.19351 239.518831 
L 188.735505 240.023088 
L 189.819493 239.9352 
L 190.361487 239.49098 
L 190.903482 239.99684 
L 191.445476 240.130687 
L 191.98747 239.73779 
L 193.071458 239.348531 
L 193.613453 239.601473 
L 194.155447 239.185708 
L 194.697441 239.377971 
L 195.239435 239.247473 
L 195.78143 238.778189 
L 196.323424 239.403902 
L 196.865418 239.158545 
L 197.949407 239.366091 
L 198.491401 238.991972 
L 199.575389 239.734258 
L 200.117384 240.059718 
L 200.659378 239.683118 
L 201.201372 239.100882 
L 201.743366 239.691857 
L 202.28536 239.583446 
L 202.827355 240.023836 
L 203.369349 240.24005 
L 203.911343 239.449483 
L 204.995332 239.148495 
L 205.537326 239.183249 
L 206.07932 239.7877 
L 206.621314 239.785799 
L 207.163309 240.183885 
L 207.705303 239.679255 
L 208.247297 240.009381 
L 208.789291 239.001728 
L 209.331285 238.679097 
L 209.87328 239.533131 
L 210.415274 239.622866 
L 210.957268 239.54806 
L 211.499262 239.150826 
L 212.041257 239.033443 
L 212.583251 239.57522 
L 213.125245 239.942616 
L 213.667239 239.310751 
L 214.209234 239.657088 
L 214.751228 239.103468 
L 215.293222 239.555456 
L 215.835216 239.492479 
L 216.377211 240.044631 
L 216.919205 239.045383 
L 217.461199 240.164427 
L 218.003193 240.003135 
L 218.545187 240.100884 
L 221.255159 239.554096 
L 222.339147 239.429943 
L 222.881141 240.101002 
L 223.423136 239.606122 
L 223.96513 239.855453 
L 224.507124 239.339741 
L 225.049118 239.973445 
L 225.591112 239.229369 
L 226.133107 239.431184 
L 226.675101 238.95615 
L 227.217095 239.243853 
L 227.759089 240.137293 
L 228.301084 239.543318 
L 228.843078 240.239475 
L 229.927066 239.217174 
L 230.469061 239.789623 
L 231.011055 239.129716 
L 231.553049 239.890148 
L 232.095043 240.083723 
L 232.637037 239.725884 
L 233.179032 240.113299 
L 233.721026 239.389149 
L 234.26302 239.416921 
L 234.805014 239.741008 
L 235.347009 239.607065 
L 235.889003 88.762693 
L 236.430997 239.020965 
L 236.972991 239.895644 
L 238.05698 239.806087 
L 238.598974 240.118401 
L 239.682963 239.506285 
L 240.224957 240.064304 
L 240.766951 239.720304 
L 241.308945 240.01942 
L 241.850939 238.604854 
L 242.392934 239.577996 
L 243.476922 240.049832 
L 244.018916 239.752274 
L 244.560911 238.304766 
L 245.644899 239.411706 
L 246.186893 239.632064 
L 246.728888 239.348032 
L 247.812876 240.146932 
L 248.35487 240.102784 
L 248.896864 240.300492 
L 249.438859 239.234734 
L 249.980853 238.856673 
L 250.522847 239.655304 
L 251.064841 239.755293 
L 251.606836 239.971603 
L 252.14883 239.79981 
L 252.690824 238.834793 
L 253.232818 239.739365 
L 253.774813 239.515126 
L 254.316807 239.443781 
L 254.858801 238.764246 
L 255.400795 238.647847 
L 255.942789 240.01844 
L 257.026778 238.903313 
L 257.568772 239.775851 
L 258.652761 239.283871 
L 259.194755 239.858388 
L 259.736749 239.680532 
L 260.278743 239.752583 
L 260.820738 239.442013 
L 261.362732 238.975981 
L 261.904726 240.405427 
L 262.44672 239.212871 
L 262.988715 239.565824 
L 263.530709 238.756649 
L 264.072703 239.563784 
L 264.614697 239.892128 
L 265.156691 238.940519 
L 266.24068 239.588913 
L 266.782674 239.135781 
L 267.324668 239.85749 
L 267.866663 239.801512 
L 268.408657 239.433433 
L 268.950651 239.511189 
L 269.492645 238.879385 
L 270.576634 239.690022 
L 271.660622 239.876072 
L 272.202616 239.543366 
L 273.286605 239.342845 
L 273.828599 239.866894 
L 274.370593 239.398687 
L 274.912588 240.460122 
L 275.454582 239.601692 
L 275.996576 239.841964 
L 276.53857 239.940358 
L 277.080565 239.495484 
L 277.622559 239.961091 
L 278.164553 239.467239 
L 278.706547 240.024411 
L 279.790536 240.19165 
L 280.33253 240.503105 
L 280.874524 240.000016 
L 281.416518 240.451179 
L 282.500507 238.992457 
L 283.042501 239.935798 
L 284.12649 238.936669 
L 284.668484 238.933151 
L 285.210478 238.66903 
L 285.752472 239.867824 
L 286.294467 239.403046 
L 286.836461 240.466526 
L 287.378455 239.475074 
L 287.920449 239.376552 
L 288.462443 238.700666 
L 289.004438 239.985617 
L 289.546432 239.788555 
L 290.088426 90.702444 
L 290.63042 210.918946 
L 291.172415 239.137008 
L 291.714409 238.213541 
L 292.256403 238.822496 
L 292.798397 237.785751 
L 293.340392 238.351073 
L 293.882386 238.255848 
L 294.42438 238.741882 
L 294.966374 238.808389 
L 295.508368 238.635827 
L 296.050363 237.451007 
L 296.592357 239.058578 
L 297.134351 238.957523 
L 297.676345 237.383189 
L 298.21834 239.393081 
L 298.760334 238.123347 
L 299.302328 239.157041 
L 299.844322 237.921818 
L 300.386317 238.250746 
L 301.470305 238.606698 
L 302.012299 239.069184 
L 302.554294 239.767452 
L 303.096288 238.135854 
L 303.638282 238.609596 
L 305.264265 238.809734 
L 305.806259 238.405342 
L 306.890247 238.166226 
L 307.432242 238.818643 
L 307.974236 235.583293 
L 308.51623 237.531641 
L 309.058224 235.168216 
L 309.600219 237.621813 
L 310.142213 237.274554 
L 310.684207 235.92394 
L 311.226201 236.689071 
L 311.768195 235.599607 
L 312.31019 237.483669 
L 312.852184 237.771933 
L 313.394178 234.849291 
L 313.936172 238.79188 
L 314.478167 234.802658 
L 315.020161 237.151871 
L 315.562155 237.109514 
L 316.104149 236.001526 
L 316.646144 237.615337 
L 317.188138 234.698442 
L 317.730132 237.49049 
L 318.272126 238.470019 
L 318.814121 236.358588 
L 319.356115 238.284172 
L 319.898109 235.562365 
L 320.440103 237.820948 
L 320.982097 237.048174 
L 321.524092 238.339235 
L 322.066086 238.857579 
L 322.60808 239.172196 
L 323.150074 237.070102 
L 323.692069 238.674709 
L 324.234063 237.472477 
L 324.776057 238.003169 
L 325.318051 237.817364 
L 325.860046 238.198519 
L 326.40204 238.425344 
L 326.944034 238.001203 
L 327.486028 238.851695 
L 328.028022 238.343912 
L 328.570017 238.330734 
L 329.112011 239.097081 
L 329.654005 238.125089 
L 330.195999 238.292645 
L 330.737994 238.732871 
L 331.279988 238.40907 
L 331.821982 238.291237 
L 332.363976 238.303033 
L 332.905971 238.875224 
L 333.447965 239.184674 
L 333.989959 238.086496 
L 334.531953 238.607509 
L 335.073947 238.027587 
L 335.615942 238.61031 
L 336.157936 238.985888 
L 336.69993 236.706456 
L 337.241924 239.017744 
L 338.325913 238.630193 
L 338.867907 237.984235 
L 339.409901 237.597015 
L 339.951896 238.552973 
L 340.49389 238.111373 
L 341.035884 237.921212 
L 341.577878 237.967216 
L 342.119873 237.542318 
L 342.661867 238.413801 
L 343.203861 239.545742 
L 343.745855 238.942643 
L 344.287849 85.63425 
L 344.829844 238.033034 
L 345.371838 238.516581 
L 345.913832 238.559301 
L 346.455826 237.347638 
L 346.997821 238.743448 
L 347.539815 238.531671 
L 348.081809 238.877261 
L 348.623803 237.380626 
L 349.165798 237.970961 
L 349.707792 238.751669 
L 350.249786 238.18631 
L 351.333774 238.592852 
L 351.875769 238.260038 
L 352.417763 238.414937 
L 352.959757 237.597624 
L 353.501751 237.600315 
L 354.043746 238.261369 
L 354.58574 237.114491 
L 355.127734 237.855793 
L 355.669728 238.167461 
L 356.211723 238.244724 
L 356.753717 238.783801 
L 357.295711 237.353853 
L 357.837705 238.25795 
L 358.379699 237.930637 
L 358.921694 238.963243 
L 359.463688 239.021588 
L 360.005682 238.840461 
L 361.089671 236.647039 
L 361.631665 238.372149 
L 362.173659 238.404589 
L 362.715653 237.049576 
L 363.257648 237.860555 
L 364.341636 238.450321 
L 364.88363 237.145965 
L 365.425625 238.198635 
L 365.967619 238.913021 
L 366.509613 238.204145 
L 367.051607 237.900414 
L 367.593601 238.150725 
L 368.135596 238.689964 
L 368.67759 237.599003 
L 369.219584 238.375913 
L 369.761578 238.094179 
L 370.303573 238.842087 
L 370.845567 236.393139 
L 371.387561 237.866039 
L 371.929555 237.991767 
L 372.47155 237.688019 
L 373.013544 239.005663 
L 373.555538 238.527764 
L 374.097532 239.094038 
L 374.639526 237.379155 
L 375.181521 237.99443 
L 375.723515 237.896882 
L 376.265509 238.653506 
L 376.807503 237.557821 
L 377.349498 238.766784 
L 377.891492 237.841023 
L 378.433486 238.254797 
L 378.97548 237.394993 
L 379.517475 238.533305 
L 380.059469 238.379924 
L 380.601463 237.957267 
L 381.143457 238.375616 
L 382.227446 238.645784 
L 382.76944 238.454074 
L 383.311434 238.777098 
L 383.853428 238.732387 
L 384.395423 238.461198 
L 384.937417 238.917075 
L 385.479411 238.197862 
L 386.021405 238.508887 
L 386.5634 238.222708 
L 387.105394 237.476349 
L 387.647388 238.389264 
L 388.189382 237.535451 
L 388.731377 238.673551 
L 389.273371 238.448964 
L 390.357359 238.796511 
L 390.899353 238.174331 
L 391.983342 238.23107 
L 392.525336 238.662529 
L 393.06733 237.858008 
L 393.609325 238.043467 
L 394.151319 238.599801 
L 394.693313 235.815829 
L 395.235307 235.947653 
L 395.777302 237.228752 
L 396.319296 236.887317 
L 396.86129 237.846547 
L 397.403284 236.887932 
L 397.945278 237.487669 
L 398.487273 83.711247 
L 398.487273 83.711247 
" style="fill:none;stroke:#1f77b4;stroke-linecap:square;stroke-width:1.5;"/>
   </g>
   <g id="patch_3">
    <path d="M 57.6 307.584 
L 57.6 41.472 
" style="fill:none;stroke:#000000;stroke-linecap:square;stroke-linejoin:miter;stroke-width:0.8;"/>
   </g>
   <g id="patch_4">
    <path d="M 414.72 307.584 
L 414.72 41.472 
" style="fill:none;stroke:#000000;stroke-linecap:square;stroke-linejoin:miter;stroke-width:0.8;"/>
   </g>
   <g id="patch_5">
    <path d="M 57.6 307.584 
L 414.72 307.584 
" style="fill:none;stroke:#000000;stroke-linecap:square;stroke-linejoin:miter;stroke-width:0.8;"/>
   </g>
   <g id="patch_6">
    <path d="M 57.6 41.472 
L 414.72 41.472 
" style="fill:none;stroke:#000000;stroke-linecap:square;stroke-linejoin:miter;stroke-width:0.8;"/>
   </g>
   <g id="text_13">
    <!-- Time/trajectory [s] -->
    <defs>
     <path d="M -0.296875 72.90625 
L 61.375 72.90625 
L 61.375 64.59375 
L 35.5 64.59375 
L 35.5 0 
L 25.59375 0 
L 25.59375 64.59375 
L -0.296875 64.59375 
z
" id="DejaVuSans-84"/>
     <path d="M 9.421875 54.6875 
L 18.40625 54.6875 
L 18.40625 0 
L 9.421875 0 
z
M 9.421875 75.984375 
L 18.40625 75.984375 
L 18.40625 64.59375 
L 9.421875 64.59375 
z
" id="DejaVuSans-105"/>
     <path d="M 52 44.1875 
Q 55.375 50.25 60.0625 53.125 
Q 64.75 56 71.09375 56 
Q 79.640625 56 84.28125 50.015625 
Q 88.921875 44.046875 88.921875 33.015625 
L 88.921875 0 
L 79.890625 0 
L 79.890625 32.71875 
Q 79.890625 40.578125 77.09375 44.375 
Q 74.3125 48.1875 68.609375 48.1875 
Q 61.625 48.1875 57.5625 43.546875 
Q 53.515625 38.921875 53.515625 30.90625 
L 53.515625 0 
L 44.484375 0 
L 44.484375 32.71875 
Q 44.484375 40.625 41.703125 44.40625 
Q 38.921875 48.1875 33.109375 48.1875 
Q 26.21875 48.1875 22.15625 43.53125 
Q 18.109375 38.875 18.109375 30.90625 
L 18.109375 0 
L 9.078125 0 
L 9.078125 54.6875 
L 18.109375 54.6875 
L 18.109375 46.1875 
Q 21.1875 51.21875 25.484375 53.609375 
Q 29.78125 56 35.6875 56 
Q 41.65625 56 45.828125 52.96875 
Q 50 49.953125 52 44.1875 
z
" id="DejaVuSans-109"/>
     <path d="M 56.203125 29.59375 
L 56.203125 25.203125 
L 14.890625 25.203125 
Q 15.484375 15.921875 20.484375 11.0625 
Q 25.484375 6.203125 34.421875 6.203125 
Q 39.59375 6.203125 44.453125 7.46875 
Q 49.3125 8.734375 54.109375 11.28125 
L 54.109375 2.78125 
Q 49.265625 0.734375 44.1875 -0.34375 
Q 39.109375 -1.421875 33.890625 -1.421875 
Q 20.796875 -1.421875 13.15625 6.1875 
Q 5.515625 13.8125 5.515625 26.8125 
Q 5.515625 40.234375 12.765625 48.109375 
Q 20.015625 56 32.328125 56 
Q 43.359375 56 49.78125 48.890625 
Q 56.203125 41.796875 56.203125 29.59375 
z
M 47.21875 32.234375 
Q 47.125 39.59375 43.09375 43.984375 
Q 39.0625 48.390625 32.421875 48.390625 
Q 24.90625 48.390625 20.390625 44.140625 
Q 15.875 39.890625 15.1875 32.171875 
z
" id="DejaVuSans-101"/>
     <path d="M 25.390625 72.90625 
L 33.6875 72.90625 
L 8.296875 -9.28125 
L 0 -9.28125 
z
" id="DejaVuSans-47"/>
     <path d="M 18.3125 70.21875 
L 18.3125 54.6875 
L 36.8125 54.6875 
L 36.8125 47.703125 
L 18.3125 47.703125 
L 18.3125 18.015625 
Q 18.3125 11.328125 20.140625 9.421875 
Q 21.96875 7.515625 27.59375 7.515625 
L 36.8125 7.515625 
L 36.8125 0 
L 27.59375 0 
Q 17.1875 0 13.234375 3.875 
Q 9.28125 7.765625 9.28125 18.015625 
L 9.28125 47.703125 
L 2.6875 47.703125 
L 2.6875 54.6875 
L 9.28125 54.6875 
L 9.28125 70.21875 
z
" id="DejaVuSans-116"/>
     <path d="M 41.109375 46.296875 
Q 39.59375 47.171875 37.8125 47.578125 
Q 36.03125 48 33.890625 48 
Q 26.265625 48 22.1875 43.046875 
Q 18.109375 38.09375 18.109375 28.8125 
L 18.109375 0 
L 9.078125 0 
L 9.078125 54.6875 
L 18.109375 54.6875 
L 18.109375 46.1875 
Q 20.953125 51.171875 25.484375 53.578125 
Q 30.03125 56 36.53125 56 
Q 37.453125 56 38.578125 55.875 
Q 39.703125 55.765625 41.0625 55.515625 
z
" id="DejaVuSans-114"/>
     <path d="M 34.28125 27.484375 
Q 23.390625 27.484375 19.1875 25 
Q 14.984375 22.515625 14.984375 16.5 
Q 14.984375 11.71875 18.140625 8.90625 
Q 21.296875 6.109375 26.703125 6.109375 
Q 34.1875 6.109375 38.703125 11.40625 
Q 43.21875 16.703125 43.21875 25.484375 
L 43.21875 27.484375 
z
M 52.203125 31.203125 
L 52.203125 0 
L 43.21875 0 
L 43.21875 8.296875 
Q 40.140625 3.328125 35.546875 0.953125 
Q 30.953125 -1.421875 24.3125 -1.421875 
Q 15.921875 -1.421875 10.953125 3.296875 
Q 6 8.015625 6 15.921875 
Q 6 25.140625 12.171875 29.828125 
Q 18.359375 34.515625 30.609375 34.515625 
L 43.21875 34.515625 
L 43.21875 35.40625 
Q 43.21875 41.609375 39.140625 45 
Q 35.0625 48.390625 27.6875 48.390625 
Q 23 48.390625 18.546875 47.265625 
Q 14.109375 46.140625 10.015625 43.890625 
L 10.015625 52.203125 
Q 14.9375 54.109375 19.578125 55.046875 
Q 24.21875 56 28.609375 56 
Q 40.484375 56 46.34375 49.84375 
Q 52.203125 43.703125 52.203125 31.203125 
z
" id="DejaVuSans-97"/>
     <path d="M 9.421875 54.6875 
L 18.40625 54.6875 
L 18.40625 -0.984375 
Q 18.40625 -11.421875 14.421875 -16.109375 
Q 10.453125 -20.796875 1.609375 -20.796875 
L -1.8125 -20.796875 
L -1.8125 -13.1875 
L 0.59375 -13.1875 
Q 5.71875 -13.1875 7.5625 -10.8125 
Q 9.421875 -8.453125 9.421875 -0.984375 
z
M 9.421875 75.984375 
L 18.40625 75.984375 
L 18.40625 64.59375 
L 9.421875 64.59375 
z
" id="DejaVuSans-106"/>
     <path d="M 48.78125 52.59375 
L 48.78125 44.1875 
Q 44.96875 46.296875 41.140625 47.34375 
Q 37.3125 48.390625 33.40625 48.390625 
Q 24.65625 48.390625 19.8125 42.84375 
Q 14.984375 37.3125 14.984375 27.296875 
Q 14.984375 17.28125 19.8125 11.734375 
Q 24.65625 6.203125 33.40625 6.203125 
Q 37.3125 6.203125 41.140625 7.25 
Q 44.96875 8.296875 48.78125 10.40625 
L 48.78125 2.09375 
Q 45.015625 0.34375 40.984375 -0.53125 
Q 36.96875 -1.421875 32.421875 -1.421875 
Q 20.0625 -1.421875 12.78125 6.34375 
Q 5.515625 14.109375 5.515625 27.296875 
Q 5.515625 40.671875 12.859375 48.328125 
Q 20.21875 56 33.015625 56 
Q 37.15625 56 41.109375 55.140625 
Q 45.0625 54.296875 48.78125 52.59375 
z
" id="DejaVuSans-99"/>
     <path d="M 30.609375 48.390625 
Q 23.390625 48.390625 19.1875 42.75 
Q 14.984375 37.109375 14.984375 27.296875 
Q 14.984375 17.484375 19.15625 11.84375 
Q 23.34375 6.203125 30.609375 6.203125 
Q 37.796875 6.203125 41.984375 11.859375 
Q 46.1875 17.53125 46.1875 27.296875 
Q 46.1875 37.015625 41.984375 42.703125 
Q 37.796875 48.390625 30.609375 48.390625 
z
M 30.609375 56 
Q 42.328125 56 49.015625 48.375 
Q 55.71875 40.765625 55.71875 27.296875 
Q 55.71875 13.875 49.015625 6.21875 
Q 42.328125 -1.421875 30.609375 -1.421875 
Q 18.84375 -1.421875 12.171875 6.21875 
Q 5.515625 13.875 5.515625 27.296875 
Q 5.515625 40.765625 12.171875 48.375 
Q 18.84375 56 30.609375 56 
z
" id="DejaVuSans-111"/>
     <path d="M 32.171875 -5.078125 
Q 28.375 -14.84375 24.75 -17.8125 
Q 21.140625 -20.796875 15.09375 -20.796875 
L 7.90625 -20.796875 
L 7.90625 -13.28125 
L 13.1875 -13.28125 
Q 16.890625 -13.28125 18.9375 -11.515625 
Q 21 -9.765625 23.484375 -3.21875 
L 25.09375 0.875 
L 2.984375 54.6875 
L 12.5 54.6875 
L 29.59375 11.921875 
L 46.6875 54.6875 
L 56.203125 54.6875 
z
" id="DejaVuSans-121"/>
     <path id="DejaVuSans-32"/>
     <path d="M 8.59375 75.984375 
L 29.296875 75.984375 
L 29.296875 69 
L 17.578125 69 
L 17.578125 -6.203125 
L 29.296875 -6.203125 
L 29.296875 -13.1875 
L 8.59375 -13.1875 
z
" id="DejaVuSans-91"/>
     <path d="M 44.28125 53.078125 
L 44.28125 44.578125 
Q 40.484375 46.53125 36.375 47.5 
Q 32.28125 48.484375 27.875 48.484375 
Q 21.1875 48.484375 17.84375 46.4375 
Q 14.5 44.390625 14.5 40.28125 
Q 14.5 37.15625 16.890625 35.375 
Q 19.28125 33.59375 26.515625 31.984375 
L 29.59375 31.296875 
Q 39.15625 29.25 43.1875 25.515625 
Q 47.21875 21.78125 47.21875 15.09375 
Q 47.21875 7.46875 41.1875 3.015625 
Q 35.15625 -1.421875 24.609375 -1.421875 
Q 20.21875 -1.421875 15.453125 -0.5625 
Q 10.6875 0.296875 5.421875 2 
L 5.421875 11.28125 
Q 10.40625 8.6875 15.234375 7.390625 
Q 20.0625 6.109375 24.8125 6.109375 
Q 31.15625 6.109375 34.5625 8.28125 
Q 37.984375 10.453125 37.984375 14.40625 
Q 37.984375 18.0625 35.515625 20.015625 
Q 33.0625 21.96875 24.703125 23.78125 
L 21.578125 24.515625 
Q 13.234375 26.265625 9.515625 29.90625 
Q 5.8125 33.546875 5.8125 39.890625 
Q 5.8125 47.609375 11.28125 51.796875 
Q 16.75 56 26.8125 56 
Q 31.78125 56 36.171875 55.265625 
Q 40.578125 54.546875 44.28125 53.078125 
z
" id="DejaVuSans-115"/>
     <path d="M 30.421875 75.984375 
L 30.421875 -13.1875 
L 9.71875 -13.1875 
L 9.71875 -6.203125 
L 21.390625 -6.203125 
L 21.390625 69 
L 9.71875 69 
L 9.71875 75.984375 
z
" id="DejaVuSans-93"/>
    </defs>
    <g transform="translate(180.549375 35.472)scale(0.12 -0.12)">
     <use xlink:href="#DejaVuSans-84"/>
     <use x="57.958984" xlink:href="#DejaVuSans-105"/>
     <use x="85.742188" xlink:href="#DejaVuSans-109"/>
     <use x="183.154297" xlink:href="#DejaVuSans-101"/>
     <use x="244.677734" xlink:href="#DejaVuSans-47"/>
     <use x="278.369141" xlink:href="#DejaVuSans-116"/>
     <use x="317.578125" xlink:href="#DejaVuSans-114"/>
     <use x="358.691406" xlink:href="#DejaVuSans-97"/>
     <use x="419.970703" xlink:href="#DejaVuSans-106"/>
     <use x="447.753906" xlink:href="#DejaVuSans-101"/>
     <use x="509.277344" xlink:href="#DejaVuSans-99"/>
     <use x="564.257812" xlink:href="#DejaVuSans-116"/>
     <use x="603.466797" xlink:href="#DejaVuSans-111"/>
     <use x="664.648438" xlink:href="#DejaVuSans-114"/>
     <use x="705.761719" xlink:href="#DejaVuSans-121"/>
     <use x="764.941406" xlink:href="#DejaVuSans-32"/>
     <use x="796.728516" xlink:href="#DejaVuSans-91"/>
     <use x="835.742188" xlink:href="#DejaVuSans-115"/>
     <use x="887.841797" xlink:href="#DejaVuSans-93"/>
    </g>
   </g>
  </g>
 </g>
 <defs>
  <clipPath id="p7006ffc6a3">
   <rect height="266.112" width="357.12" x="57.6" y="41.472"/>
  </clipPath>
 </defs>
</svg>
