<?xml version="1.0" encoding="utf-8" standalone="no"?>
<!DOCTYPE svg PUBLIC "-//W3C//DTD SVG 1.1//EN"
  "http://www.w3.org/Graphics/SVG/1.1/DTD/svg11.dtd">
<!-- Created with matplotlib (https://matplotlib.org/) -->
<svg height="345.6pt" version="1.1" viewBox="0 0 460.8 345.6" width="460.8pt" xmlns="http://www.w3.org/2000/svg" xmlns:xlink="http://www.w3.org/1999/xlink">
 <defs>
  <style type="text/css">
*{stroke-linecap:butt;stroke-linejoin:round;}
  </style>
 </defs>
 <g id="figure_1">
  <g id="patch_1">
   <path d="M 0 345.6 
L 460.8 345.6 
L 460.8 0 
L 0 0 
z
" style="fill:#ffffff;"/>
  </g>
  <g id="axes_1">
   <g id="patch_2">
    <path d="M 57.6 307.584 
L 414.72 307.584 
L 414.72 41.472 
L 57.6 41.472 
z
" style="fill:#ffffff;"/>
   </g>
   <g id="matplotlib.axis_1">
    <g id="xtick_1">
     <g id="line2d_1">
      <defs>
       <path d="M 0 0 
L 0 3.5 
" id="me720342b25" style="stroke:#000000;stroke-width:0.8;"/>
      </defs>
      <g>
       <use style="stroke:#000000;stroke-width:0.8;" x="73.290733" xlink:href="#me720342b25" y="307.584"/>
      </g>
     </g>
     <g id="text_1">
      <!-- 0 -->
      <defs>
       <path d="M 31.78125 66.40625 
Q 24.171875 66.40625 20.328125 58.90625 
Q 16.5 51.421875 16.5 36.375 
Q 16.5 21.390625 20.328125 13.890625 
Q 24.171875 6.390625 31.78125 6.390625 
Q 39.453125 6.390625 43.28125 13.890625 
Q 47.125 21.390625 47.125 36.375 
Q 47.125 51.421875 43.28125 58.90625 
Q 39.453125 66.40625 31.78125 66.40625 
z
M 31.78125 74.21875 
Q 44.046875 74.21875 50.515625 64.515625 
Q 56.984375 54.828125 56.984375 36.375 
Q 56.984375 17.96875 50.515625 8.265625 
Q 44.046875 -1.421875 31.78125 -1.421875 
Q 19.53125 -1.421875 13.0625 8.265625 
Q 6.59375 17.96875 6.59375 36.375 
Q 6.59375 54.828125 13.0625 64.515625 
Q 19.53125 74.21875 31.78125 74.21875 
z
" id="DejaVuSans-48"/>
      </defs>
      <g transform="translate(70.109483 322.182437)scale(0.1 -0.1)">
       <use xlink:href="#DejaVuSans-48"/>
      </g>
     </g>
    </g>
    <g id="xtick_2">
     <g id="line2d_2">
      <g>
       <use style="stroke:#000000;stroke-width:0.8;" x="127.490156" xlink:href="#me720342b25" y="307.584"/>
      </g>
     </g>
     <g id="text_2">
      <!-- 100 -->
      <defs>
       <path d="M 12.40625 8.296875 
L 28.515625 8.296875 
L 28.515625 63.921875 
L 10.984375 60.40625 
L 10.984375 69.390625 
L 28.421875 72.90625 
L 38.28125 72.90625 
L 38.28125 8.296875 
L 54.390625 8.296875 
L 54.390625 0 
L 12.40625 0 
z
" id="DejaVuSans-49"/>
      </defs>
      <g transform="translate(117.946406 322.182437)scale(0.1 -0.1)">
       <use xlink:href="#DejaVuSans-49"/>
       <use x="63.623047" xlink:href="#DejaVuSans-48"/>
       <use x="127.246094" xlink:href="#DejaVuSans-48"/>
      </g>
     </g>
    </g>
    <g id="xtick_3">
     <g id="line2d_3">
      <g>
       <use style="stroke:#000000;stroke-width:0.8;" x="181.68958" xlink:href="#me720342b25" y="307.584"/>
      </g>
     </g>
     <g id="text_3">
      <!-- 200 -->
      <defs>
       <path d="M 19.1875 8.296875 
L 53.609375 8.296875 
L 53.609375 0 
L 7.328125 0 
L 7.328125 8.296875 
Q 12.9375 14.109375 22.625 23.890625 
Q 32.328125 33.6875 34.8125 36.53125 
Q 39.546875 41.84375 41.421875 45.53125 
Q 43.3125 49.21875 43.3125 52.78125 
Q 43.3125 58.59375 39.234375 62.25 
Q 35.15625 65.921875 28.609375 65.921875 
Q 23.96875 65.921875 18.8125 64.3125 
Q 13.671875 62.703125 7.8125 59.421875 
L 7.8125 69.390625 
Q 13.765625 71.78125 18.9375 73 
Q 24.125 74.21875 28.421875 74.21875 
Q 39.75 74.21875 46.484375 68.546875 
Q 53.21875 62.890625 53.21875 53.421875 
Q 53.21875 48.921875 51.53125 44.890625 
Q 49.859375 40.875 45.40625 35.40625 
Q 44.1875 33.984375 37.640625 27.21875 
Q 31.109375 20.453125 19.1875 8.296875 
z
" id="DejaVuSans-50"/>
      </defs>
      <g transform="translate(172.14583 322.182437)scale(0.1 -0.1)">
       <use xlink:href="#DejaVuSans-50"/>
       <use x="63.623047" xlink:href="#DejaVuSans-48"/>
       <use x="127.246094" xlink:href="#DejaVuSans-48"/>
      </g>
     </g>
    </g>
    <g id="xtick_4">
     <g id="line2d_4">
      <g>
       <use style="stroke:#000000;stroke-width:0.8;" x="235.889003" xlink:href="#me720342b25" y="307.584"/>
      </g>
     </g>
     <g id="text_4">
      <!-- 300 -->
      <defs>
       <path d="M 40.578125 39.3125 
Q 47.65625 37.796875 51.625 33 
Q 55.609375 28.21875 55.609375 21.1875 
Q 55.609375 10.40625 48.1875 4.484375 
Q 40.765625 -1.421875 27.09375 -1.421875 
Q 22.515625 -1.421875 17.65625 -0.515625 
Q 12.796875 0.390625 7.625 2.203125 
L 7.625 11.71875 
Q 11.71875 9.328125 16.59375 8.109375 
Q 21.484375 6.890625 26.8125 6.890625 
Q 36.078125 6.890625 40.9375 10.546875 
Q 45.796875 14.203125 45.796875 21.1875 
Q 45.796875 27.640625 41.28125 31.265625 
Q 36.765625 34.90625 28.71875 34.90625 
L 20.21875 34.90625 
L 20.21875 43.015625 
L 29.109375 43.015625 
Q 36.375 43.015625 40.234375 45.921875 
Q 44.09375 48.828125 44.09375 54.296875 
Q 44.09375 59.90625 40.109375 62.90625 
Q 36.140625 65.921875 28.71875 65.921875 
Q 24.65625 65.921875 20.015625 65.03125 
Q 15.375 64.15625 9.8125 62.3125 
L 9.8125 71.09375 
Q 15.4375 72.65625 20.34375 73.4375 
Q 25.25 74.21875 29.59375 74.21875 
Q 40.828125 74.21875 47.359375 69.109375 
Q 53.90625 64.015625 53.90625 55.328125 
Q 53.90625 49.265625 50.4375 45.09375 
Q 46.96875 40.921875 40.578125 39.3125 
z
" id="DejaVuSans-51"/>
      </defs>
      <g transform="translate(226.345253 322.182437)scale(0.1 -0.1)">
       <use xlink:href="#DejaVuSans-51"/>
       <use x="63.623047" xlink:href="#DejaVuSans-48"/>
       <use x="127.246094" xlink:href="#DejaVuSans-48"/>
      </g>
     </g>
    </g>
    <g id="xtick_5">
     <g id="line2d_5">
      <g>
       <use style="stroke:#000000;stroke-width:0.8;" x="290.088426" xlink:href="#me720342b25" y="307.584"/>
      </g>
     </g>
     <g id="text_5">
      <!-- 400 -->
      <defs>
       <path d="M 37.796875 64.3125 
L 12.890625 25.390625 
L 37.796875 25.390625 
z
M 35.203125 72.90625 
L 47.609375 72.90625 
L 47.609375 25.390625 
L 58.015625 25.390625 
L 58.015625 17.1875 
L 47.609375 17.1875 
L 47.609375 0 
L 37.796875 0 
L 37.796875 17.1875 
L 4.890625 17.1875 
L 4.890625 26.703125 
z
" id="DejaVuSans-52"/>
      </defs>
      <g transform="translate(280.544676 322.182437)scale(0.1 -0.1)">
       <use xlink:href="#DejaVuSans-52"/>
       <use x="63.623047" xlink:href="#DejaVuSans-48"/>
       <use x="127.246094" xlink:href="#DejaVuSans-48"/>
      </g>
     </g>
    </g>
    <g id="xtick_6">
     <g id="line2d_6">
      <g>
       <use style="stroke:#000000;stroke-width:0.8;" x="344.287849" xlink:href="#me720342b25" y="307.584"/>
      </g>
     </g>
     <g id="text_6">
      <!-- 500 -->
      <defs>
       <path d="M 10.796875 72.90625 
L 49.515625 72.90625 
L 49.515625 64.59375 
L 19.828125 64.59375 
L 19.828125 46.734375 
Q 21.96875 47.46875 24.109375 47.828125 
Q 26.265625 48.1875 28.421875 48.1875 
Q 40.625 48.1875 47.75 41.5 
Q 54.890625 34.8125 54.890625 23.390625 
Q 54.890625 11.625 47.5625 5.09375 
Q 40.234375 -1.421875 26.90625 -1.421875 
Q 22.3125 -1.421875 17.546875 -0.640625 
Q 12.796875 0.140625 7.71875 1.703125 
L 7.71875 11.625 
Q 12.109375 9.234375 16.796875 8.0625 
Q 21.484375 6.890625 26.703125 6.890625 
Q 35.15625 6.890625 40.078125 11.328125 
Q 45.015625 15.765625 45.015625 23.390625 
Q 45.015625 31 40.078125 35.4375 
Q 35.15625 39.890625 26.703125 39.890625 
Q 22.75 39.890625 18.8125 39.015625 
Q 14.890625 38.140625 10.796875 36.28125 
z
" id="DejaVuSans-53"/>
      </defs>
      <g transform="translate(334.744099 322.182437)scale(0.1 -0.1)">
       <use xlink:href="#DejaVuSans-53"/>
       <use x="63.623047" xlink:href="#DejaVuSans-48"/>
       <use x="127.246094" xlink:href="#DejaVuSans-48"/>
      </g>
     </g>
    </g>
    <g id="xtick_7">
     <g id="line2d_7">
      <g>
       <use style="stroke:#000000;stroke-width:0.8;" x="398.487273" xlink:href="#me720342b25" y="307.584"/>
      </g>
     </g>
     <g id="text_7">
      <!-- 600 -->
      <defs>
       <path d="M 33.015625 40.375 
Q 26.375 40.375 22.484375 35.828125 
Q 18.609375 31.296875 18.609375 23.390625 
Q 18.609375 15.53125 22.484375 10.953125 
Q 26.375 6.390625 33.015625 6.390625 
Q 39.65625 6.390625 43.53125 10.953125 
Q 47.40625 15.53125 47.40625 23.390625 
Q 47.40625 31.296875 43.53125 35.828125 
Q 39.65625 40.375 33.015625 40.375 
z
M 52.59375 71.296875 
L 52.59375 62.3125 
Q 48.875 64.0625 45.09375 64.984375 
Q 41.3125 65.921875 37.59375 65.921875 
Q 27.828125 65.921875 22.671875 59.328125 
Q 17.53125 52.734375 16.796875 39.40625 
Q 19.671875 43.65625 24.015625 45.921875 
Q 28.375 48.1875 33.59375 48.1875 
Q 44.578125 48.1875 50.953125 41.515625 
Q 57.328125 34.859375 57.328125 23.390625 
Q 57.328125 12.15625 50.6875 5.359375 
Q 44.046875 -1.421875 33.015625 -1.421875 
Q 20.359375 -1.421875 13.671875 8.265625 
Q 6.984375 17.96875 6.984375 36.375 
Q 6.984375 53.65625 15.1875 63.9375 
Q 23.390625 74.21875 37.203125 74.21875 
Q 40.921875 74.21875 44.703125 73.484375 
Q 48.484375 72.75 52.59375 71.296875 
z
" id="DejaVuSans-54"/>
      </defs>
      <g transform="translate(388.943523 322.182437)scale(0.1 -0.1)">
       <use xlink:href="#DejaVuSans-54"/>
       <use x="63.623047" xlink:href="#DejaVuSans-48"/>
       <use x="127.246094" xlink:href="#DejaVuSans-48"/>
      </g>
     </g>
    </g>
   </g>
   <g id="matplotlib.axis_2">
    <g id="ytick_1">
     <g id="line2d_8">
      <defs>
       <path d="M 0 0 
L -3.5 0 
" id="m8ee8b8cf35" style="stroke:#000000;stroke-width:0.8;"/>
      </defs>
      <g>
       <use style="stroke:#000000;stroke-width:0.8;" x="57.6" xlink:href="#m8ee8b8cf35" y="295.488"/>
      </g>
     </g>
     <g id="text_8">
      <!-- 0.0 -->
      <defs>
       <path d="M 10.6875 12.40625 
L 21 12.40625 
L 21 0 
L 10.6875 0 
z
" id="DejaVuSans-46"/>
      </defs>
      <g transform="translate(34.696875 299.287219)scale(0.1 -0.1)">
       <use xlink:href="#DejaVuSans-48"/>
       <use x="63.623047" xlink:href="#DejaVuSans-46"/>
       <use x="95.410156" xlink:href="#DejaVuSans-48"/>
      </g>
     </g>
    </g>
    <g id="ytick_2">
     <g id="line2d_9">
      <g>
       <use style="stroke:#000000;stroke-width:0.8;" x="57.6" xlink:href="#m8ee8b8cf35" y="247.104"/>
      </g>
     </g>
     <g id="text_9">
      <!-- 0.2 -->
      <g transform="translate(34.696875 250.903219)scale(0.1 -0.1)">
       <use xlink:href="#DejaVuSans-48"/>
       <use x="63.623047" xlink:href="#DejaVuSans-46"/>
       <use x="95.410156" xlink:href="#DejaVuSans-50"/>
      </g>
     </g>
    </g>
    <g id="ytick_3">
     <g id="line2d_10">
      <g>
       <use style="stroke:#000000;stroke-width:0.8;" x="57.6" xlink:href="#m8ee8b8cf35" y="198.72"/>
      </g>
     </g>
     <g id="text_10">
      <!-- 0.4 -->
      <g transform="translate(34.696875 202.519219)scale(0.1 -0.1)">
       <use xlink:href="#DejaVuSans-48"/>
       <use x="63.623047" xlink:href="#DejaVuSans-46"/>
       <use x="95.410156" xlink:href="#DejaVuSans-52"/>
      </g>
     </g>
    </g>
    <g id="ytick_4">
     <g id="line2d_11">
      <g>
       <use style="stroke:#000000;stroke-width:0.8;" x="57.6" xlink:href="#m8ee8b8cf35" y="150.336"/>
      </g>
     </g>
     <g id="text_11">
      <!-- 0.6 -->
      <g transform="translate(34.696875 154.135219)scale(0.1 -0.1)">
       <use xlink:href="#DejaVuSans-48"/>
       <use x="63.623047" xlink:href="#DejaVuSans-46"/>
       <use x="95.410156" xlink:href="#DejaVuSans-54"/>
      </g>
     </g>
    </g>
    <g id="ytick_5">
     <g id="line2d_12">
      <g>
       <use style="stroke:#000000;stroke-width:0.8;" x="57.6" xlink:href="#m8ee8b8cf35" y="101.952"/>
      </g>
     </g>
     <g id="text_12">
      <!-- 0.8 -->
      <defs>
       <path d="M 31.78125 34.625 
Q 24.75 34.625 20.71875 30.859375 
Q 16.703125 27.09375 16.703125 20.515625 
Q 16.703125 13.921875 20.71875 10.15625 
Q 24.75 6.390625 31.78125 6.390625 
Q 38.8125 6.390625 42.859375 10.171875 
Q 46.921875 13.96875 46.921875 20.515625 
Q 46.921875 27.09375 42.890625 30.859375 
Q 38.875 34.625 31.78125 34.625 
z
M 21.921875 38.8125 
Q 15.578125 40.375 12.03125 44.71875 
Q 8.5 49.078125 8.5 55.328125 
Q 8.5 64.0625 14.71875 69.140625 
Q 20.953125 74.21875 31.78125 74.21875 
Q 42.671875 74.21875 48.875 69.140625 
Q 55.078125 64.0625 55.078125 55.328125 
Q 55.078125 49.078125 51.53125 44.71875 
Q 48 40.375 41.703125 38.8125 
Q 48.828125 37.15625 52.796875 32.3125 
Q 56.78125 27.484375 56.78125 20.515625 
Q 56.78125 9.90625 50.3125 4.234375 
Q 43.84375 -1.421875 31.78125 -1.421875 
Q 19.734375 -1.421875 13.25 4.234375 
Q 6.78125 9.90625 6.78125 20.515625 
Q 6.78125 27.484375 10.78125 32.3125 
Q 14.796875 37.15625 21.921875 38.8125 
z
M 18.3125 54.390625 
Q 18.3125 48.734375 21.84375 45.5625 
Q 25.390625 42.390625 31.78125 42.390625 
Q 38.140625 42.390625 41.71875 45.5625 
Q 45.3125 48.734375 45.3125 54.390625 
Q 45.3125 60.0625 41.71875 63.234375 
Q 38.140625 66.40625 31.78125 66.40625 
Q 25.390625 66.40625 21.84375 63.234375 
Q 18.3125 60.0625 18.3125 54.390625 
z
" id="DejaVuSans-56"/>
      </defs>
      <g transform="translate(34.696875 105.751219)scale(0.1 -0.1)">
       <use xlink:href="#DejaVuSans-48"/>
       <use x="63.623047" xlink:href="#DejaVuSans-46"/>
       <use x="95.410156" xlink:href="#DejaVuSans-56"/>
      </g>
     </g>
    </g>
    <g id="ytick_6">
     <g id="line2d_13">
      <g>
       <use style="stroke:#000000;stroke-width:0.8;" x="57.6" xlink:href="#m8ee8b8cf35" y="53.568"/>
      </g>
     </g>
     <g id="text_13">
      <!-- 1.0 -->
      <g transform="translate(34.696875 57.367219)scale(0.1 -0.1)">
       <use xlink:href="#DejaVuSans-49"/>
       <use x="63.623047" xlink:href="#DejaVuSans-46"/>
       <use x="95.410156" xlink:href="#DejaVuSans-48"/>
      </g>
     </g>
    </g>
   </g>
   <g id="line2d_14">
    <path clip-path="url(#p1c20d9e586)" d="M 73.832727 53.568 
L 74.374722 53.568 
L 74.916716 295.488 
L 75.45871 295.488 
L 76.000704 53.568 
L 79.794664 53.568 
L 80.336658 64.397208 
L 80.878652 53.568 
L 81.962641 70.043328 
L 82.504635 90.496649 
L 83.046629 54.763571 
L 83.588623 78.707788 
L 84.130618 53.568 
L 85.214606 53.568 
L 85.7566 85.723958 
L 86.298595 59.373045 
L 86.840589 82.283774 
L 87.382583 66.008049 
L 87.924577 53.568 
L 89.008566 53.568 
L 89.55056 80.513139 
L 90.092554 53.568 
L 90.634548 63.855424 
L 91.176543 65.290032 
L 91.718537 53.568 
L 92.260531 53.568 
L 92.802525 63.991342 
L 93.34452 53.568 
L 93.886514 99.285037 
L 94.428508 53.568 
L 94.970502 79.364682 
L 95.512497 99.288083 
L 96.054491 53.568 
L 97.138479 53.568 
L 97.680474 84.858839 
L 98.222468 53.568 
L 98.764462 77.539702 
L 99.306456 75.771669 
L 99.84845 53.568 
L 100.390445 53.568 
L 100.932439 69.427324 
L 101.474433 53.568 
L 102.016427 53.568 
L 102.558422 84.608003 
L 103.100416 60.843918 
L 103.64241 59.835512 
L 104.184404 70.510415 
L 104.726399 53.568 
L 107.43637 53.568 
L 107.978364 58.309296 
L 108.520358 94.182732 
L 109.062352 56.144048 
L 109.604347 60.698482 
L 110.146341 57.860477 
L 110.688335 53.568 
L 111.230329 53.568 
L 111.772324 80.641945 
L 112.314318 53.568 
L 112.856312 53.568 
L 113.398306 78.790954 
L 113.940301 53.568 
L 116.108277 53.568 
L 116.650272 69.218737 
L 117.192266 62.151181 
L 117.73426 53.568 
L 118.276254 53.568 
L 118.818249 69.351987 
L 119.360243 53.568 
L 119.902237 53.568 
L 120.444231 87.000512 
L 120.986226 71.878141 
L 121.52822 68.861499 
L 122.070214 53.718478 
L 122.612208 53.568 
L 123.154202 61.909166 
L 123.696197 53.568 
L 124.238191 83.44514 
L 124.780185 64.291335 
L 125.322179 98.237268 
L 125.864174 53.568 
L 126.406168 89.37874 
L 126.948162 57.647657 
L 127.490156 74.411371 
L 128.032151 53.568 
L 128.574145 72.489236 
L 129.116139 53.568 
L 129.658133 53.568 
L 130.200127 89.160074 
L 130.742122 53.568 
L 131.284116 95.863987 
L 131.82611 53.568 
L 132.910099 53.568 
L 133.452093 66.422402 
L 133.994087 53.568 
L 134.536081 82.446634 
L 135.078076 53.568 
L 135.62007 111.349473 
L 136.162064 91.750752 
L 136.704058 79.479862 
L 137.246053 53.568 
L 137.788047 53.568 
L 138.330041 82.233603 
L 138.872035 85.224564 
L 139.414029 72.537388 
L 139.956024 53.568 
L 140.498018 82.801324 
L 141.040012 53.568 
L 141.582006 61.506003 
L 142.124001 53.568 
L 143.207989 72.92592 
L 143.749983 86.197359 
L 144.291978 53.568 
L 144.833972 64.595305 
L 145.375966 53.568 
L 145.91796 87.048467 
L 146.459954 69.552252 
L 147.001949 76.508175 
L 147.543943 61.629489 
L 148.085937 99.825666 
L 148.627931 68.44882 
L 149.169926 56.501018 
L 150.253914 74.736089 
L 150.795908 53.568 
L 151.337903 67.262349 
L 151.879897 85.800079 
L 152.421891 53.568 
L 154.047874 53.568 
L 154.589868 92.614361 
L 155.131862 75.107828 
L 155.673856 53.568 
L 156.215851 57.060177 
L 156.757845 53.66045 
L 157.299839 85.141656 
L 157.841833 53.568 
L 158.383828 65.206644 
L 158.925822 53.568 
L 159.467816 53.568 
L 160.00981 79.037833 
L 160.551805 53.568 
L 161.093799 92.452577 
L 162.177787 53.568 
L 162.719781 65.246094 
L 163.261776 53.568 
L 164.345764 72.603173 
L 164.887758 53.568 
L 165.971747 53.568 
L 166.513741 81.609561 
L 167.055735 53.568 
L 167.59773 92.458338 
L 168.139724 53.568 
L 168.681718 53.568 
L 169.223712 55.000558 
L 169.765706 53.568 
L 170.307701 76.94509 
L 170.849695 53.568 
L 172.475678 53.568 
L 173.017672 78.224409 
L 173.559666 53.568 
L 174.10166 81.076272 
L 174.643655 90.721233 
L 175.185649 67.361754 
L 175.727643 62.480338 
L 176.269637 53.568 
L 177.353626 53.568 
L 177.89562 62.996272 
L 178.437614 75.185955 
L 178.979608 55.65931 
L 179.521603 69.643604 
L 180.063597 79.082527 
L 180.605591 75.992114 
L 181.147585 57.72824 
L 181.68958 87.172607 
L 182.231574 86.128756 
L 182.773568 53.568 
L 183.315562 69.940442 
L 183.857557 76.788215 
L 184.399551 61.730927 
L 184.941545 53.601425 
L 185.483539 68.501658 
L 186.025533 92.784992 
L 186.567528 53.568 
L 187.109522 74.344384 
L 187.651516 61.598988 
L 188.19351 53.568 
L 188.735505 62.156393 
L 189.277499 53.568 
L 189.819493 58.504102 
L 190.361487 53.568 
L 190.903482 87.059365 
L 191.445476 53.568 
L 191.98747 107.950693 
L 192.529464 53.568 
L 193.071458 53.568 
L 193.613453 69.86264 
L 194.155447 108.000489 
L 194.697441 78.151474 
L 195.239435 75.583653 
L 195.78143 75.843741 
L 196.323424 53.568 
L 196.865418 84.848386 
L 197.407412 53.568 
L 197.949407 53.568 
L 198.491401 65.915977 
L 199.033395 53.568 
L 200.659378 53.568 
L 201.201372 82.805833 
L 201.743366 53.568 
L 202.28536 78.905165 
L 202.827355 53.568 
L 203.369349 54.537444 
L 203.911343 53.568 
L 204.453337 59.154776 
L 204.995332 53.568 
L 205.537326 53.568 
L 206.07932 58.117754 
L 206.621314 53.568 
L 207.163309 104.099415 
L 208.247297 68.805997 
L 208.789291 65.258736 
L 209.331285 53.568 
L 209.87328 73.582655 
L 210.415274 53.568 
L 210.957268 73.072683 
L 211.499262 86.592659 
L 212.041257 53.568 
L 213.125245 53.568 
L 213.667239 84.24072 
L 214.209234 56.388767 
L 214.751228 77.894196 
L 215.293222 62.431967 
L 215.835216 53.568 
L 216.377211 83.940685 
L 216.919205 53.568 
L 218.003193 53.568 
L 218.545187 63.949542 
L 219.087182 78.889861 
L 219.629176 53.568 
L 220.17117 53.568 
L 220.713164 87.275262 
L 221.255159 67.470823 
L 221.797153 79.820724 
L 222.339147 64.269241 
L 223.423136 93.017416 
L 223.96513 53.568 
L 224.507124 82.655328 
L 225.049118 53.568 
L 225.591112 53.568 
L 226.133107 57.92222 
L 226.675101 53.568 
L 227.217095 87.051528 
L 227.759089 80.209785 
L 228.301084 62.407207 
L 228.843078 53.568 
L 229.385072 63.009066 
L 229.927066 53.568 
L 230.469061 90.024679 
L 231.011055 53.568 
L 231.553049 80.84305 
L 232.095043 72.596654 
L 232.637037 59.920975 
L 233.179032 54.527818 
L 233.721026 61.279828 
L 234.26302 87.523642 
L 234.805014 53.568 
L 235.347009 92.700768 
L 235.889003 83.523552 
L 236.430997 70.393803 
L 236.972991 96.952199 
L 237.514986 58.554151 
L 238.05698 106.18534 
L 238.598974 53.568 
L 239.140968 54.105952 
L 239.682963 53.568 
L 240.224957 62.518282 
L 240.766951 53.568 
L 241.308945 53.568 
L 241.850939 102.458273 
L 242.392934 53.568 
L 243.476922 53.568 
L 244.018916 113.369366 
L 244.560911 56.428483 
L 245.102905 53.568 
L 245.644899 61.240728 
L 246.186893 53.568 
L 246.728888 83.015555 
L 247.270882 61.223475 
L 247.812876 53.568 
L 248.35487 98.582725 
L 248.896864 59.053542 
L 249.438859 71.760134 
L 249.980853 53.568 
L 250.522847 53.568 
L 251.064841 72.816596 
L 251.606836 53.568 
L 252.14883 53.568 
L 252.690824 73.467115 
L 253.232818 53.990918 
L 253.774813 53.568 
L 254.316807 53.568 
L 254.858801 68.034362 
L 255.400795 53.568 
L 255.942789 55.264474 
L 256.484784 53.568 
L 257.026778 53.568 
L 257.568772 69.774439 
L 258.110766 53.568 
L 259.194755 53.568 
L 259.736749 96.231832 
L 260.278743 53.568 
L 261.362732 53.568 
L 261.904726 66.400829 
L 262.44672 57.025371 
L 262.988715 53.568 
L 263.530709 99.230636 
L 264.072703 81.233826 
L 264.614697 53.568 
L 265.156691 60.151098 
L 265.698686 57.132908 
L 266.24068 79.965989 
L 266.782674 80.017112 
L 267.324668 53.568 
L 269.492645 53.568 
L 270.03464 62.568252 
L 270.576634 53.568 
L 271.118628 108.698281 
L 271.660622 77.796368 
L 272.202616 77.734483 
L 272.744611 67.74177 
L 273.286605 53.568 
L 273.828599 80.715762 
L 274.370593 86.52952 
L 274.912588 53.568 
L 275.454582 57.623372 
L 275.996576 78.224304 
L 276.53857 53.568 
L 277.080565 53.568 
L 277.622559 55.149871 
L 278.164553 67.107928 
L 278.706547 53.568 
L 279.790536 53.568 
L 280.33253 54.782556 
L 280.874524 53.568 
L 281.416518 80.777743 
L 281.958513 53.568 
L 284.668484 53.568 
L 285.210478 63.509283 
L 285.752472 80.212017 
L 286.294467 53.568 
L 286.836461 80.149219 
L 287.378455 53.568 
L 287.920449 84.5957 
L 288.462443 59.357421 
L 289.004438 64.02439 
L 289.546432 53.568 
L 290.088426 53.568 
L 290.63042 117.509062 
L 291.172415 61.944751 
L 291.714409 72.307713 
L 292.256403 53.568 
L 292.798397 81.565985 
L 293.340392 62.497904 
L 293.882386 67.350123 
L 294.42438 53.568 
L 296.050363 53.568 
L 296.592357 71.221499 
L 297.134351 59.196335 
L 297.676345 88.261554 
L 298.21834 105.342166 
L 298.760334 53.568 
L 299.302328 74.728109 
L 299.844322 53.568 
L 300.386317 53.568 
L 300.928311 69.004665 
L 301.470305 53.568 
L 302.012299 68.932293 
L 302.554294 53.568 
L 305.264265 53.568 
L 305.806259 60.271421 
L 306.348253 53.568 
L 306.890247 53.568 
L 307.432242 57.602578 
L 307.974236 74.280861 
L 308.51623 70.434709 
L 309.058224 67.696456 
L 309.600219 53.568 
L 310.142213 54.556566 
L 310.684207 53.568 
L 311.768195 53.568 
L 312.31019 63.684632 
L 312.852184 53.568 
L 313.394178 77.785926 
L 313.936172 95.066639 
L 314.478167 53.568 
L 315.020161 56.557106 
L 315.562155 53.568 
L 316.104149 73.84966 
L 316.646144 53.568 
L 317.188138 119.952547 
L 317.730132 53.568 
L 322.60808 53.568 
L 323.150074 56.507535 
L 323.692069 64.158407 
L 324.234063 83.799008 
L 324.776057 53.950987 
L 325.318051 109.922862 
L 325.860046 53.568 
L 326.944034 66.44796 
L 327.486028 112.065426 
L 328.028022 94.497773 
L 328.570017 53.568 
L 329.112011 87.150934 
L 329.654005 54.557906 
L 330.195999 53.568 
L 330.737994 55.373707 
L 331.279988 53.568 
L 331.821982 62.286349 
L 332.363976 53.568 
L 332.905971 53.568 
L 333.447965 54.769684 
L 333.989959 53.568 
L 334.531953 59.048205 
L 335.073947 67.342875 
L 335.615942 53.568 
L 336.157936 53.568 
L 336.69993 84.295875 
L 337.241924 82.699338 
L 337.783919 53.568 
L 338.325913 75.380044 
L 338.867907 83.181123 
L 339.409901 53.568 
L 339.951896 66.76047 
L 340.49389 53.568 
L 341.035884 84.629559 
L 341.577878 64.312126 
L 342.119873 53.568 
L 342.661867 80.320089 
L 343.203861 53.568 
L 343.745855 82.951075 
L 344.287849 78.712915 
L 344.829844 53.568 
L 345.371838 53.568 
L 345.913832 73.783884 
L 346.455826 53.568 
L 346.997821 53.568 
L 347.539815 60.380378 
L 348.081809 53.568 
L 348.623803 53.568 
L 349.707792 65.877337 
L 350.249786 64.176419 
L 350.79178 74.450518 
L 351.333774 53.568 
L 351.875769 66.849082 
L 352.417763 53.568 
L 352.959757 100.929834 
L 353.501751 53.568 
L 356.211723 53.568 
L 356.753717 56.327687 
L 357.295711 53.568 
L 358.379699 53.568 
L 358.921694 103.574501 
L 359.463688 80.302033 
L 360.005682 63.920141 
L 360.547676 72.218103 
L 361.089671 53.568 
L 361.631665 65.495268 
L 362.173659 53.568 
L 362.715653 102.475205 
L 363.257648 85.693461 
L 363.799642 87.652045 
L 364.341636 53.568 
L 364.88363 53.568 
L 365.425625 86.843582 
L 365.967619 91.245493 
L 366.509613 53.568 
L 367.051607 53.568 
L 367.593601 87.748378 
L 368.135596 58.145217 
L 368.67759 53.568 
L 369.219584 73.788766 
L 369.761578 53.568 
L 370.303573 84.118606 
L 370.845567 63.364239 
L 371.387561 53.568 
L 373.013544 53.568 
L 373.555538 84.206332 
L 374.097532 65.885262 
L 374.639526 53.568 
L 375.181521 85.099158 
L 375.723515 75.823703 
L 376.265509 53.568 
L 376.807503 66.886615 
L 377.349498 53.568 
L 381.143457 53.568 
L 381.685452 66.407392 
L 382.227446 62.716749 
L 382.76944 53.568 
L 383.853428 53.568 
L 384.395423 73.265883 
L 385.479411 53.568 
L 386.5634 53.568 
L 387.105394 72.402055 
L 387.647388 60.630257 
L 388.189382 53.568 
L 388.731377 105.709344 
L 389.273371 88.948117 
L 389.815365 53.568 
L 391.983342 53.568 
L 392.525336 115.138852 
L 393.06733 53.568 
L 396.319296 53.568 
L 396.86129 53.995237 
L 397.403284 53.568 
L 398.487273 53.568 
L 398.487273 53.568 
" style="fill:none;stroke:#1f77b4;stroke-linecap:square;stroke-width:1.5;"/>
   </g>
   <g id="patch_3">
    <path d="M 57.6 307.584 
L 57.6 41.472 
" style="fill:none;stroke:#000000;stroke-linecap:square;stroke-linejoin:miter;stroke-width:0.8;"/>
   </g>
   <g id="patch_4">
    <path d="M 414.72 307.584 
L 414.72 41.472 
" style="fill:none;stroke:#000000;stroke-linecap:square;stroke-linejoin:miter;stroke-width:0.8;"/>
   </g>
   <g id="patch_5">
    <path d="M 57.6 307.584 
L 414.72 307.584 
" style="fill:none;stroke:#000000;stroke-linecap:square;stroke-linejoin:miter;stroke-width:0.8;"/>
   </g>
   <g id="patch_6">
    <path d="M 57.6 41.472 
L 414.72 41.472 
" style="fill:none;stroke:#000000;stroke-linecap:square;stroke-linejoin:miter;stroke-width:0.8;"/>
   </g>
   <g id="text_14">
    <!-- Acceptance probability -->
    <defs>
     <path d="M 34.1875 63.1875 
L 20.796875 26.90625 
L 47.609375 26.90625 
z
M 28.609375 72.90625 
L 39.796875 72.90625 
L 67.578125 0 
L 57.328125 0 
L 50.6875 18.703125 
L 17.828125 18.703125 
L 11.1875 0 
L 0.78125 0 
z
" id="DejaVuSans-65"/>
     <path d="M 48.78125 52.59375 
L 48.78125 44.1875 
Q 44.96875 46.296875 41.140625 47.34375 
Q 37.3125 48.390625 33.40625 48.390625 
Q 24.65625 48.390625 19.8125 42.84375 
Q 14.984375 37.3125 14.984375 27.296875 
Q 14.984375 17.28125 19.8125 11.734375 
Q 24.65625 6.203125 33.40625 6.203125 
Q 37.3125 6.203125 41.140625 7.25 
Q 44.96875 8.296875 48.78125 10.40625 
L 48.78125 2.09375 
Q 45.015625 0.34375 40.984375 -0.53125 
Q 36.96875 -1.421875 32.421875 -1.421875 
Q 20.0625 -1.421875 12.78125 6.34375 
Q 5.515625 14.109375 5.515625 27.296875 
Q 5.515625 40.671875 12.859375 48.328125 
Q 20.21875 56 33.015625 56 
Q 37.15625 56 41.109375 55.140625 
Q 45.0625 54.296875 48.78125 52.59375 
z
" id="DejaVuSans-99"/>
     <path d="M 56.203125 29.59375 
L 56.203125 25.203125 
L 14.890625 25.203125 
Q 15.484375 15.921875 20.484375 11.0625 
Q 25.484375 6.203125 34.421875 6.203125 
Q 39.59375 6.203125 44.453125 7.46875 
Q 49.3125 8.734375 54.109375 11.28125 
L 54.109375 2.78125 
Q 49.265625 0.734375 44.1875 -0.34375 
Q 39.109375 -1.421875 33.890625 -1.421875 
Q 20.796875 -1.421875 13.15625 6.1875 
Q 5.515625 13.8125 5.515625 26.8125 
Q 5.515625 40.234375 12.765625 48.109375 
Q 20.015625 56 32.328125 56 
Q 43.359375 56 49.78125 48.890625 
Q 56.203125 41.796875 56.203125 29.59375 
z
M 47.21875 32.234375 
Q 47.125 39.59375 43.09375 43.984375 
Q 39.0625 48.390625 32.421875 48.390625 
Q 24.90625 48.390625 20.390625 44.140625 
Q 15.875 39.890625 15.1875 32.171875 
z
" id="DejaVuSans-101"/>
     <path d="M 18.109375 8.203125 
L 18.109375 -20.796875 
L 9.078125 -20.796875 
L 9.078125 54.6875 
L 18.109375 54.6875 
L 18.109375 46.390625 
Q 20.953125 51.265625 25.265625 53.625 
Q 29.59375 56 35.59375 56 
Q 45.5625 56 51.78125 48.09375 
Q 58.015625 40.1875 58.015625 27.296875 
Q 58.015625 14.40625 51.78125 6.484375 
Q 45.5625 -1.421875 35.59375 -1.421875 
Q 29.59375 -1.421875 25.265625 0.953125 
Q 20.953125 3.328125 18.109375 8.203125 
z
M 48.6875 27.296875 
Q 48.6875 37.203125 44.609375 42.84375 
Q 40.53125 48.484375 33.40625 48.484375 
Q 26.265625 48.484375 22.1875 42.84375 
Q 18.109375 37.203125 18.109375 27.296875 
Q 18.109375 17.390625 22.1875 11.75 
Q 26.265625 6.109375 33.40625 6.109375 
Q 40.53125 6.109375 44.609375 11.75 
Q 48.6875 17.390625 48.6875 27.296875 
z
" id="DejaVuSans-112"/>
     <path d="M 18.3125 70.21875 
L 18.3125 54.6875 
L 36.8125 54.6875 
L 36.8125 47.703125 
L 18.3125 47.703125 
L 18.3125 18.015625 
Q 18.3125 11.328125 20.140625 9.421875 
Q 21.96875 7.515625 27.59375 7.515625 
L 36.8125 7.515625 
L 36.8125 0 
L 27.59375 0 
Q 17.1875 0 13.234375 3.875 
Q 9.28125 7.765625 9.28125 18.015625 
L 9.28125 47.703125 
L 2.6875 47.703125 
L 2.6875 54.6875 
L 9.28125 54.6875 
L 9.28125 70.21875 
z
" id="DejaVuSans-116"/>
     <path d="M 34.28125 27.484375 
Q 23.390625 27.484375 19.1875 25 
Q 14.984375 22.515625 14.984375 16.5 
Q 14.984375 11.71875 18.140625 8.90625 
Q 21.296875 6.109375 26.703125 6.109375 
Q 34.1875 6.109375 38.703125 11.40625 
Q 43.21875 16.703125 43.21875 25.484375 
L 43.21875 27.484375 
z
M 52.203125 31.203125 
L 52.203125 0 
L 43.21875 0 
L 43.21875 8.296875 
Q 40.140625 3.328125 35.546875 0.953125 
Q 30.953125 -1.421875 24.3125 -1.421875 
Q 15.921875 -1.421875 10.953125 3.296875 
Q 6 8.015625 6 15.921875 
Q 6 25.140625 12.171875 29.828125 
Q 18.359375 34.515625 30.609375 34.515625 
L 43.21875 34.515625 
L 43.21875 35.40625 
Q 43.21875 41.609375 39.140625 45 
Q 35.0625 48.390625 27.6875 48.390625 
Q 23 48.390625 18.546875 47.265625 
Q 14.109375 46.140625 10.015625 43.890625 
L 10.015625 52.203125 
Q 14.9375 54.109375 19.578125 55.046875 
Q 24.21875 56 28.609375 56 
Q 40.484375 56 46.34375 49.84375 
Q 52.203125 43.703125 52.203125 31.203125 
z
" id="DejaVuSans-97"/>
     <path d="M 54.890625 33.015625 
L 54.890625 0 
L 45.90625 0 
L 45.90625 32.71875 
Q 45.90625 40.484375 42.875 44.328125 
Q 39.84375 48.1875 33.796875 48.1875 
Q 26.515625 48.1875 22.3125 43.546875 
Q 18.109375 38.921875 18.109375 30.90625 
L 18.109375 0 
L 9.078125 0 
L 9.078125 54.6875 
L 18.109375 54.6875 
L 18.109375 46.1875 
Q 21.34375 51.125 25.703125 53.5625 
Q 30.078125 56 35.796875 56 
Q 45.21875 56 50.046875 50.171875 
Q 54.890625 44.34375 54.890625 33.015625 
z
" id="DejaVuSans-110"/>
     <path id="DejaVuSans-32"/>
     <path d="M 41.109375 46.296875 
Q 39.59375 47.171875 37.8125 47.578125 
Q 36.03125 48 33.890625 48 
Q 26.265625 48 22.1875 43.046875 
Q 18.109375 38.09375 18.109375 28.8125 
L 18.109375 0 
L 9.078125 0 
L 9.078125 54.6875 
L 18.109375 54.6875 
L 18.109375 46.1875 
Q 20.953125 51.171875 25.484375 53.578125 
Q 30.03125 56 36.53125 56 
Q 37.453125 56 38.578125 55.875 
Q 39.703125 55.765625 41.0625 55.515625 
z
" id="DejaVuSans-114"/>
     <path d="M 30.609375 48.390625 
Q 23.390625 48.390625 19.1875 42.75 
Q 14.984375 37.109375 14.984375 27.296875 
Q 14.984375 17.484375 19.15625 11.84375 
Q 23.34375 6.203125 30.609375 6.203125 
Q 37.796875 6.203125 41.984375 11.859375 
Q 46.1875 17.53125 46.1875 27.296875 
Q 46.1875 37.015625 41.984375 42.703125 
Q 37.796875 48.390625 30.609375 48.390625 
z
M 30.609375 56 
Q 42.328125 56 49.015625 48.375 
Q 55.71875 40.765625 55.71875 27.296875 
Q 55.71875 13.875 49.015625 6.21875 
Q 42.328125 -1.421875 30.609375 -1.421875 
Q 18.84375 -1.421875 12.171875 6.21875 
Q 5.515625 13.875 5.515625 27.296875 
Q 5.515625 40.765625 12.171875 48.375 
Q 18.84375 56 30.609375 56 
z
" id="DejaVuSans-111"/>
     <path d="M 48.6875 27.296875 
Q 48.6875 37.203125 44.609375 42.84375 
Q 40.53125 48.484375 33.40625 48.484375 
Q 26.265625 48.484375 22.1875 42.84375 
Q 18.109375 37.203125 18.109375 27.296875 
Q 18.109375 17.390625 22.1875 11.75 
Q 26.265625 6.109375 33.40625 6.109375 
Q 40.53125 6.109375 44.609375 11.75 
Q 48.6875 17.390625 48.6875 27.296875 
z
M 18.109375 46.390625 
Q 20.953125 51.265625 25.265625 53.625 
Q 29.59375 56 35.59375 56 
Q 45.5625 56 51.78125 48.09375 
Q 58.015625 40.1875 58.015625 27.296875 
Q 58.015625 14.40625 51.78125 6.484375 
Q 45.5625 -1.421875 35.59375 -1.421875 
Q 29.59375 -1.421875 25.265625 0.953125 
Q 20.953125 3.328125 18.109375 8.203125 
L 18.109375 0 
L 9.078125 0 
L 9.078125 75.984375 
L 18.109375 75.984375 
z
" id="DejaVuSans-98"/>
     <path d="M 9.421875 54.6875 
L 18.40625 54.6875 
L 18.40625 0 
L 9.421875 0 
z
M 9.421875 75.984375 
L 18.40625 75.984375 
L 18.40625 64.59375 
L 9.421875 64.59375 
z
" id="DejaVuSans-105"/>
     <path d="M 9.421875 75.984375 
L 18.40625 75.984375 
L 18.40625 0 
L 9.421875 0 
z
" id="DejaVuSans-108"/>
     <path d="M 32.171875 -5.078125 
Q 28.375 -14.84375 24.75 -17.8125 
Q 21.140625 -20.796875 15.09375 -20.796875 
L 7.90625 -20.796875 
L 7.90625 -13.28125 
L 13.1875 -13.28125 
Q 16.890625 -13.28125 18.9375 -11.515625 
Q 21 -9.765625 23.484375 -3.21875 
L 25.09375 0.875 
L 2.984375 54.6875 
L 12.5 54.6875 
L 29.59375 11.921875 
L 46.6875 54.6875 
L 56.203125 54.6875 
z
" id="DejaVuSans-121"/>
    </defs>
    <g transform="translate(167.32125 35.472)scale(0.12 -0.12)">
     <use xlink:href="#DejaVuSans-65"/>
     <use x="66.658203" xlink:href="#DejaVuSans-99"/>
     <use x="121.638672" xlink:href="#DejaVuSans-99"/>
     <use x="176.619141" xlink:href="#DejaVuSans-101"/>
     <use x="238.142578" xlink:href="#DejaVuSans-112"/>
     <use x="301.619141" xlink:href="#DejaVuSans-116"/>
     <use x="340.828125" xlink:href="#DejaVuSans-97"/>
     <use x="402.107422" xlink:href="#DejaVuSans-110"/>
     <use x="465.486328" xlink:href="#DejaVuSans-99"/>
     <use x="520.466797" xlink:href="#DejaVuSans-101"/>
     <use x="581.990234" xlink:href="#DejaVuSans-32"/>
     <use x="613.777344" xlink:href="#DejaVuSans-112"/>
     <use x="677.253906" xlink:href="#DejaVuSans-114"/>
     <use x="716.117188" xlink:href="#DejaVuSans-111"/>
     <use x="777.298828" xlink:href="#DejaVuSans-98"/>
     <use x="840.775391" xlink:href="#DejaVuSans-97"/>
     <use x="902.054688" xlink:href="#DejaVuSans-98"/>
     <use x="965.53125" xlink:href="#DejaVuSans-105"/>
     <use x="993.314453" xlink:href="#DejaVuSans-108"/>
     <use x="1021.097656" xlink:href="#DejaVuSans-105"/>
     <use x="1048.880859" xlink:href="#DejaVuSans-116"/>
     <use x="1088.089844" xlink:href="#DejaVuSans-121"/>
    </g>
   </g>
  </g>
 </g>
 <defs>
  <clipPath id="p1c20d9e586">
   <rect height="266.112" width="357.12" x="57.6" y="41.472"/>
  </clipPath>
 </defs>
</svg>
