<?xml version="1.0" encoding="utf-8" standalone="no"?>
<!DOCTYPE svg PUBLIC "-//W3C//DTD SVG 1.1//EN"
  "http://www.w3.org/Graphics/SVG/1.1/DTD/svg11.dtd">
<!-- Created with matplotlib (https://matplotlib.org/) -->
<svg height="345.6pt" version="1.1" viewBox="0 0 460.8 345.6" width="460.8pt" xmlns="http://www.w3.org/2000/svg" xmlns:xlink="http://www.w3.org/1999/xlink">
 <defs>
  <style type="text/css">
*{stroke-linecap:butt;stroke-linejoin:round;}
  </style>
 </defs>
 <g id="figure_1">
  <g id="patch_1">
   <path d="M 0 345.6 
L 460.8 345.6 
L 460.8 0 
L 0 0 
z
" style="fill:#ffffff;"/>
  </g>
  <g id="axes_1">
   <g id="patch_2">
    <path d="M 57.6 307.584 
L 414.72 307.584 
L 414.72 41.472 
L 57.6 41.472 
z
" style="fill:#ffffff;"/>
   </g>
   <g id="matplotlib.axis_1">
    <g id="xtick_1">
     <g id="line2d_1">
      <defs>
       <path d="M 0 0 
L 0 3.5 
" id="m61a7d788e5" style="stroke:#000000;stroke-width:0.8;"/>
      </defs>
      <g>
       <use style="stroke:#000000;stroke-width:0.8;" x="73.507748" xlink:href="#m61a7d788e5" y="307.584"/>
      </g>
     </g>
     <g id="text_1">
      <!-- 0 -->
      <defs>
       <path d="M 31.78125 66.40625 
Q 24.171875 66.40625 20.328125 58.90625 
Q 16.5 51.421875 16.5 36.375 
Q 16.5 21.390625 20.328125 13.890625 
Q 24.171875 6.390625 31.78125 6.390625 
Q 39.453125 6.390625 43.28125 13.890625 
Q 47.125 21.390625 47.125 36.375 
Q 47.125 51.421875 43.28125 58.90625 
Q 39.453125 66.40625 31.78125 66.40625 
z
M 31.78125 74.21875 
Q 44.046875 74.21875 50.515625 64.515625 
Q 56.984375 54.828125 56.984375 36.375 
Q 56.984375 17.96875 50.515625 8.265625 
Q 44.046875 -1.421875 31.78125 -1.421875 
Q 19.53125 -1.421875 13.0625 8.265625 
Q 6.59375 17.96875 6.59375 36.375 
Q 6.59375 54.828125 13.0625 64.515625 
Q 19.53125 74.21875 31.78125 74.21875 
z
" id="DejaVuSans-48"/>
      </defs>
      <g transform="translate(70.326498 322.182437)scale(0.1 -0.1)">
       <use xlink:href="#DejaVuSans-48"/>
      </g>
     </g>
    </g>
    <g id="xtick_2">
     <g id="line2d_2">
      <g>
       <use style="stroke:#000000;stroke-width:0.8;" x="138.503653" xlink:href="#m61a7d788e5" y="307.584"/>
      </g>
     </g>
     <g id="text_2">
      <!-- 200 -->
      <defs>
       <path d="M 19.1875 8.296875 
L 53.609375 8.296875 
L 53.609375 0 
L 7.328125 0 
L 7.328125 8.296875 
Q 12.9375 14.109375 22.625 23.890625 
Q 32.328125 33.6875 34.8125 36.53125 
Q 39.546875 41.84375 41.421875 45.53125 
Q 43.3125 49.21875 43.3125 52.78125 
Q 43.3125 58.59375 39.234375 62.25 
Q 35.15625 65.921875 28.609375 65.921875 
Q 23.96875 65.921875 18.8125 64.3125 
Q 13.671875 62.703125 7.8125 59.421875 
L 7.8125 69.390625 
Q 13.765625 71.78125 18.9375 73 
Q 24.125 74.21875 28.421875 74.21875 
Q 39.75 74.21875 46.484375 68.546875 
Q 53.21875 62.890625 53.21875 53.421875 
Q 53.21875 48.921875 51.53125 44.890625 
Q 49.859375 40.875 45.40625 35.40625 
Q 44.1875 33.984375 37.640625 27.21875 
Q 31.109375 20.453125 19.1875 8.296875 
z
" id="DejaVuSans-50"/>
      </defs>
      <g transform="translate(128.959903 322.182437)scale(0.1 -0.1)">
       <use xlink:href="#DejaVuSans-50"/>
       <use x="63.623047" xlink:href="#DejaVuSans-48"/>
       <use x="127.246094" xlink:href="#DejaVuSans-48"/>
      </g>
     </g>
    </g>
    <g id="xtick_3">
     <g id="line2d_3">
      <g>
       <use style="stroke:#000000;stroke-width:0.8;" x="203.499558" xlink:href="#m61a7d788e5" y="307.584"/>
      </g>
     </g>
     <g id="text_3">
      <!-- 400 -->
      <defs>
       <path d="M 37.796875 64.3125 
L 12.890625 25.390625 
L 37.796875 25.390625 
z
M 35.203125 72.90625 
L 47.609375 72.90625 
L 47.609375 25.390625 
L 58.015625 25.390625 
L 58.015625 17.1875 
L 47.609375 17.1875 
L 47.609375 0 
L 37.796875 0 
L 37.796875 17.1875 
L 4.890625 17.1875 
L 4.890625 26.703125 
z
" id="DejaVuSans-52"/>
      </defs>
      <g transform="translate(193.955808 322.182437)scale(0.1 -0.1)">
       <use xlink:href="#DejaVuSans-52"/>
       <use x="63.623047" xlink:href="#DejaVuSans-48"/>
       <use x="127.246094" xlink:href="#DejaVuSans-48"/>
      </g>
     </g>
    </g>
    <g id="xtick_4">
     <g id="line2d_4">
      <g>
       <use style="stroke:#000000;stroke-width:0.8;" x="268.495463" xlink:href="#m61a7d788e5" y="307.584"/>
      </g>
     </g>
     <g id="text_4">
      <!-- 600 -->
      <defs>
       <path d="M 33.015625 40.375 
Q 26.375 40.375 22.484375 35.828125 
Q 18.609375 31.296875 18.609375 23.390625 
Q 18.609375 15.53125 22.484375 10.953125 
Q 26.375 6.390625 33.015625 6.390625 
Q 39.65625 6.390625 43.53125 10.953125 
Q 47.40625 15.53125 47.40625 23.390625 
Q 47.40625 31.296875 43.53125 35.828125 
Q 39.65625 40.375 33.015625 40.375 
z
M 52.59375 71.296875 
L 52.59375 62.3125 
Q 48.875 64.0625 45.09375 64.984375 
Q 41.3125 65.921875 37.59375 65.921875 
Q 27.828125 65.921875 22.671875 59.328125 
Q 17.53125 52.734375 16.796875 39.40625 
Q 19.671875 43.65625 24.015625 45.921875 
Q 28.375 48.1875 33.59375 48.1875 
Q 44.578125 48.1875 50.953125 41.515625 
Q 57.328125 34.859375 57.328125 23.390625 
Q 57.328125 12.15625 50.6875 5.359375 
Q 44.046875 -1.421875 33.015625 -1.421875 
Q 20.359375 -1.421875 13.671875 8.265625 
Q 6.984375 17.96875 6.984375 36.375 
Q 6.984375 53.65625 15.1875 63.9375 
Q 23.390625 74.21875 37.203125 74.21875 
Q 40.921875 74.21875 44.703125 73.484375 
Q 48.484375 72.75 52.59375 71.296875 
z
" id="DejaVuSans-54"/>
      </defs>
      <g transform="translate(258.951713 322.182437)scale(0.1 -0.1)">
       <use xlink:href="#DejaVuSans-54"/>
       <use x="63.623047" xlink:href="#DejaVuSans-48"/>
       <use x="127.246094" xlink:href="#DejaVuSans-48"/>
      </g>
     </g>
    </g>
    <g id="xtick_5">
     <g id="line2d_5">
      <g>
       <use style="stroke:#000000;stroke-width:0.8;" x="333.491368" xlink:href="#m61a7d788e5" y="307.584"/>
      </g>
     </g>
     <g id="text_5">
      <!-- 800 -->
      <defs>
       <path d="M 31.78125 34.625 
Q 24.75 34.625 20.71875 30.859375 
Q 16.703125 27.09375 16.703125 20.515625 
Q 16.703125 13.921875 20.71875 10.15625 
Q 24.75 6.390625 31.78125 6.390625 
Q 38.8125 6.390625 42.859375 10.171875 
Q 46.921875 13.96875 46.921875 20.515625 
Q 46.921875 27.09375 42.890625 30.859375 
Q 38.875 34.625 31.78125 34.625 
z
M 21.921875 38.8125 
Q 15.578125 40.375 12.03125 44.71875 
Q 8.5 49.078125 8.5 55.328125 
Q 8.5 64.0625 14.71875 69.140625 
Q 20.953125 74.21875 31.78125 74.21875 
Q 42.671875 74.21875 48.875 69.140625 
Q 55.078125 64.0625 55.078125 55.328125 
Q 55.078125 49.078125 51.53125 44.71875 
Q 48 40.375 41.703125 38.8125 
Q 48.828125 37.15625 52.796875 32.3125 
Q 56.78125 27.484375 56.78125 20.515625 
Q 56.78125 9.90625 50.3125 4.234375 
Q 43.84375 -1.421875 31.78125 -1.421875 
Q 19.734375 -1.421875 13.25 4.234375 
Q 6.78125 9.90625 6.78125 20.515625 
Q 6.78125 27.484375 10.78125 32.3125 
Q 14.796875 37.15625 21.921875 38.8125 
z
M 18.3125 54.390625 
Q 18.3125 48.734375 21.84375 45.5625 
Q 25.390625 42.390625 31.78125 42.390625 
Q 38.140625 42.390625 41.71875 45.5625 
Q 45.3125 48.734375 45.3125 54.390625 
Q 45.3125 60.0625 41.71875 63.234375 
Q 38.140625 66.40625 31.78125 66.40625 
Q 25.390625 66.40625 21.84375 63.234375 
Q 18.3125 60.0625 18.3125 54.390625 
z
" id="DejaVuSans-56"/>
      </defs>
      <g transform="translate(323.947618 322.182437)scale(0.1 -0.1)">
       <use xlink:href="#DejaVuSans-56"/>
       <use x="63.623047" xlink:href="#DejaVuSans-48"/>
       <use x="127.246094" xlink:href="#DejaVuSans-48"/>
      </g>
     </g>
    </g>
    <g id="xtick_6">
     <g id="line2d_6">
      <g>
       <use style="stroke:#000000;stroke-width:0.8;" x="398.487273" xlink:href="#m61a7d788e5" y="307.584"/>
      </g>
     </g>
     <g id="text_6">
      <!-- 1000 -->
      <defs>
       <path d="M 12.40625 8.296875 
L 28.515625 8.296875 
L 28.515625 63.921875 
L 10.984375 60.40625 
L 10.984375 69.390625 
L 28.421875 72.90625 
L 38.28125 72.90625 
L 38.28125 8.296875 
L 54.390625 8.296875 
L 54.390625 0 
L 12.40625 0 
z
" id="DejaVuSans-49"/>
      </defs>
      <g transform="translate(385.762273 322.182437)scale(0.1 -0.1)">
       <use xlink:href="#DejaVuSans-49"/>
       <use x="63.623047" xlink:href="#DejaVuSans-48"/>
       <use x="127.246094" xlink:href="#DejaVuSans-48"/>
       <use x="190.869141" xlink:href="#DejaVuSans-48"/>
      </g>
     </g>
    </g>
   </g>
   <g id="matplotlib.axis_2">
    <g id="ytick_1">
     <g id="line2d_7">
      <defs>
       <path d="M 0 0 
L -3.5 0 
" id="mdcfbcbf226" style="stroke:#000000;stroke-width:0.8;"/>
      </defs>
      <g>
       <use style="stroke:#000000;stroke-width:0.8;" x="57.6" xlink:href="#mdcfbcbf226" y="305.05331"/>
      </g>
     </g>
     <g id="text_7">
      <!-- 30 -->
      <defs>
       <path d="M 40.578125 39.3125 
Q 47.65625 37.796875 51.625 33 
Q 55.609375 28.21875 55.609375 21.1875 
Q 55.609375 10.40625 48.1875 4.484375 
Q 40.765625 -1.421875 27.09375 -1.421875 
Q 22.515625 -1.421875 17.65625 -0.515625 
Q 12.796875 0.390625 7.625 2.203125 
L 7.625 11.71875 
Q 11.71875 9.328125 16.59375 8.109375 
Q 21.484375 6.890625 26.8125 6.890625 
Q 36.078125 6.890625 40.9375 10.546875 
Q 45.796875 14.203125 45.796875 21.1875 
Q 45.796875 27.640625 41.28125 31.265625 
Q 36.765625 34.90625 28.71875 34.90625 
L 20.21875 34.90625 
L 20.21875 43.015625 
L 29.109375 43.015625 
Q 36.375 43.015625 40.234375 45.921875 
Q 44.09375 48.828125 44.09375 54.296875 
Q 44.09375 59.90625 40.109375 62.90625 
Q 36.140625 65.921875 28.71875 65.921875 
Q 24.65625 65.921875 20.015625 65.03125 
Q 15.375 64.15625 9.8125 62.3125 
L 9.8125 71.09375 
Q 15.4375 72.65625 20.34375 73.4375 
Q 25.25 74.21875 29.59375 74.21875 
Q 40.828125 74.21875 47.359375 69.109375 
Q 53.90625 64.015625 53.90625 55.328125 
Q 53.90625 49.265625 50.4375 45.09375 
Q 46.96875 40.921875 40.578125 39.3125 
z
" id="DejaVuSans-51"/>
      </defs>
      <g transform="translate(37.875 308.852529)scale(0.1 -0.1)">
       <use xlink:href="#DejaVuSans-51"/>
       <use x="63.623047" xlink:href="#DejaVuSans-48"/>
      </g>
     </g>
    </g>
    <g id="ytick_2">
     <g id="line2d_8">
      <g>
       <use style="stroke:#000000;stroke-width:0.8;" x="57.6" xlink:href="#mdcfbcbf226" y="266.749784"/>
      </g>
     </g>
     <g id="text_8">
      <!-- 35 -->
      <defs>
       <path d="M 10.796875 72.90625 
L 49.515625 72.90625 
L 49.515625 64.59375 
L 19.828125 64.59375 
L 19.828125 46.734375 
Q 21.96875 47.46875 24.109375 47.828125 
Q 26.265625 48.1875 28.421875 48.1875 
Q 40.625 48.1875 47.75 41.5 
Q 54.890625 34.8125 54.890625 23.390625 
Q 54.890625 11.625 47.5625 5.09375 
Q 40.234375 -1.421875 26.90625 -1.421875 
Q 22.3125 -1.421875 17.546875 -0.640625 
Q 12.796875 0.140625 7.71875 1.703125 
L 7.71875 11.625 
Q 12.109375 9.234375 16.796875 8.0625 
Q 21.484375 6.890625 26.703125 6.890625 
Q 35.15625 6.890625 40.078125 11.328125 
Q 45.015625 15.765625 45.015625 23.390625 
Q 45.015625 31 40.078125 35.4375 
Q 35.15625 39.890625 26.703125 39.890625 
Q 22.75 39.890625 18.8125 39.015625 
Q 14.890625 38.140625 10.796875 36.28125 
z
" id="DejaVuSans-53"/>
      </defs>
      <g transform="translate(37.875 270.549002)scale(0.1 -0.1)">
       <use xlink:href="#DejaVuSans-51"/>
       <use x="63.623047" xlink:href="#DejaVuSans-53"/>
      </g>
     </g>
    </g>
    <g id="ytick_3">
     <g id="line2d_9">
      <g>
       <use style="stroke:#000000;stroke-width:0.8;" x="57.6" xlink:href="#mdcfbcbf226" y="228.446257"/>
      </g>
     </g>
     <g id="text_9">
      <!-- 40 -->
      <g transform="translate(37.875 232.245476)scale(0.1 -0.1)">
       <use xlink:href="#DejaVuSans-52"/>
       <use x="63.623047" xlink:href="#DejaVuSans-48"/>
      </g>
     </g>
    </g>
    <g id="ytick_4">
     <g id="line2d_10">
      <g>
       <use style="stroke:#000000;stroke-width:0.8;" x="57.6" xlink:href="#mdcfbcbf226" y="190.142731"/>
      </g>
     </g>
     <g id="text_10">
      <!-- 45 -->
      <g transform="translate(37.875 193.94195)scale(0.1 -0.1)">
       <use xlink:href="#DejaVuSans-52"/>
       <use x="63.623047" xlink:href="#DejaVuSans-53"/>
      </g>
     </g>
    </g>
    <g id="ytick_5">
     <g id="line2d_11">
      <g>
       <use style="stroke:#000000;stroke-width:0.8;" x="57.6" xlink:href="#mdcfbcbf226" y="151.839205"/>
      </g>
     </g>
     <g id="text_11">
      <!-- 50 -->
      <g transform="translate(37.875 155.638424)scale(0.1 -0.1)">
       <use xlink:href="#DejaVuSans-53"/>
       <use x="63.623047" xlink:href="#DejaVuSans-48"/>
      </g>
     </g>
    </g>
    <g id="ytick_6">
     <g id="line2d_12">
      <g>
       <use style="stroke:#000000;stroke-width:0.8;" x="57.6" xlink:href="#mdcfbcbf226" y="113.535679"/>
      </g>
     </g>
     <g id="text_12">
      <!-- 55 -->
      <g transform="translate(37.875 117.334898)scale(0.1 -0.1)">
       <use xlink:href="#DejaVuSans-53"/>
       <use x="63.623047" xlink:href="#DejaVuSans-53"/>
      </g>
     </g>
    </g>
    <g id="ytick_7">
     <g id="line2d_13">
      <g>
       <use style="stroke:#000000;stroke-width:0.8;" x="57.6" xlink:href="#mdcfbcbf226" y="75.232153"/>
      </g>
     </g>
     <g id="text_13">
      <!-- 60 -->
      <g transform="translate(37.875 79.031371)scale(0.1 -0.1)">
       <use xlink:href="#DejaVuSans-54"/>
       <use x="63.623047" xlink:href="#DejaVuSans-48"/>
      </g>
     </g>
    </g>
   </g>
   <g id="line2d_14">
    <path clip-path="url(#p6393c64c32)" d="M 73.832727 156.870932 
L 74.157707 216.372281 
L 74.482686 236.766434 
L 74.807666 265.902916 
L 75.132645 277.075097 
L 75.782604 285.639949 
L 76.107584 288.122929 
L 76.757543 290.935281 
L 77.082523 291.109149 
L 77.407502 292.264406 
L 78.382441 293.279886 
L 78.70742 292.3739 
L 79.0324 293.356485 
L 79.357379 293.386094 
L 79.682359 293.557311 
L 80.007338 293.597744 
L 80.332318 293.084339 
L 80.657297 293.976995 
L 81.307256 293.970905 
L 81.632236 294.380584 
L 81.957215 293.317761 
L 82.282195 294.360436 
L 82.607174 294.178257 
L 82.932154 294.270484 
L 83.257133 294.568309 
L 83.582113 293.522868 
L 83.907093 294.240615 
L 84.557052 294.398954 
L 84.882031 294.481207 
L 85.207011 293.606975 
L 85.53199 294.168781 
L 85.85697 293.776085 
L 86.506929 294.397782 
L 86.831908 293.787186 
L 87.806847 294.129029 
L 88.131826 294.379925 
L 88.456806 293.268648 
L 89.106765 294.530098 
L 89.431744 294.264539 
L 89.756724 294.433726 
L 90.081704 293.671631 
L 90.406683 294.713189 
L 90.731663 294.849534 
L 91.056642 294.584136 
L 91.381622 294.657656 
L 91.706601 293.519789 
L 92.031581 294.505262 
L 92.35656 294.804887 
L 92.68154 294.680738 
L 93.006519 294.832435 
L 93.331499 294.155313 
L 93.656478 294.606935 
L 93.981458 294.795557 
L 94.306437 294.614618 
L 94.631417 294.849626 
L 94.956396 293.823536 
L 95.281376 294.53235 
L 95.606355 294.666765 
L 95.931335 294.670963 
L 96.256314 294.487811 
L 96.581294 293.581955 
L 96.906274 294.55999 
L 97.231253 294.380231 
L 97.556233 294.782012 
L 98.206192 294.077419 
L 98.531171 294.661877 
L 98.856151 294.497854 
L 99.18113 294.966023 
L 99.50611 294.662337 
L 99.831089 293.692262 
L 100.156069 294.396181 
L 100.481048 294.559201 
L 100.806028 294.373092 
L 101.131007 294.501117 
L 101.455987 293.525534 
L 101.780966 294.525616 
L 102.430925 294.882712 
L 102.755905 294.819228 
L 103.080885 293.875276 
L 103.405864 294.651328 
L 103.730844 294.798238 
L 104.380803 294.852843 
L 104.705782 293.297222 
L 105.030762 294.586166 
L 105.680721 294.50648 
L 106.0057 58.471847 
L 106.33068 293.79048 
L 106.655659 294.644932 
L 106.980639 294.383556 
L 107.630598 294.437465 
L 107.955577 294.077687 
L 108.280557 294.547281 
L 108.930516 293.924251 
L 109.255495 294.234816 
L 109.580475 293.332132 
L 110.230434 294.48051 
L 110.555414 294.295458 
L 111.205373 293.103031 
L 111.530352 294.465633 
L 111.855332 294.424832 
L 112.180311 294.22023 
L 112.505291 294.332911 
L 112.83027 293.160157 
L 113.15525 294.08426 
L 113.480229 293.859426 
L 113.805209 293.881527 
L 114.130188 294.189196 
L 114.455168 293.488947 
L 114.780147 294.205858 
L 115.430106 294.074945 
L 115.755086 293.856078 
L 116.080066 293.409727 
L 116.405045 294.338864 
L 116.730025 294.072983 
L 117.055004 294.370487 
L 117.379984 293.972008 
L 117.704963 293.260389 
L 118.029943 294.037637 
L 118.354922 294.367921 
L 118.679902 294.235207 
L 119.004881 294.345819 
L 119.329861 294.017918 
L 119.65484 294.306819 
L 119.97982 293.978389 
L 120.629779 294.20389 
L 120.954758 293.786182 
L 121.279738 294.168068 
L 121.604717 293.984502 
L 121.929697 293.977523 
L 122.254676 294.217985 
L 122.579656 293.165198 
L 122.904636 294.105342 
L 123.229615 294.118266 
L 123.554595 293.951286 
L 123.879574 294.37208 
L 124.204554 293.434395 
L 124.529533 294.157994 
L 124.854513 294.36815 
L 125.179492 294.031309 
L 125.504472 294.353289 
L 125.829451 293.612361 
L 126.154431 294.601595 
L 126.47941 294.038541 
L 127.129369 294.525356 
L 127.454349 293.651147 
L 127.779328 294.232311 
L 128.429287 294.547143 
L 128.754267 294.241312 
L 129.079247 293.723257 
L 129.404226 294.613622 
L 129.729206 293.9012 
L 130.379165 294.294117 
L 130.704144 293.515705 
L 131.029124 294.120288 
L 132.004062 294.515029 
L 132.329042 293.457591 
L 132.979001 294.615178 
L 133.62896 294.441793 
L 133.953939 293.636683 
L 134.278919 294.416903 
L 134.603898 294.31618 
L 134.928878 294.59015 
L 135.253857 294.518645 
L 135.578837 293.767114 
L 135.903817 294.517825 
L 136.228796 294.705007 
L 136.878755 294.596225 
L 137.203735 293.605972 
L 137.528714 294.281546 
L 138.178673 294.228879 
L 138.503653 59.21512 
L 138.828632 219.02323 
L 139.153612 294.57466 
L 139.478591 294.173569 
L 139.803571 294.682002 
L 140.12855 294.676869 
L 140.45353 293.918161 
L 140.778509 294.666359 
L 141.103489 294.697201 
L 141.428468 294.906315 
L 141.753448 294.6601 
L 142.078428 293.848471 
L 142.403407 294.933572 
L 142.728387 295.258056 
L 143.378346 295.317189 
L 143.703325 294.557109 
L 144.028305 295.288584 
L 144.353284 295.074383 
L 145.003243 295.158276 
L 145.328223 294.402562 
L 145.653202 295.198609 
L 145.978182 295.324735 
L 146.628141 295.229919 
L 146.95312 294.683695 
L 147.2781 295.208921 
L 147.603079 295.355945 
L 147.928059 295.075448 
L 148.253038 295.337934 
L 148.578018 294.524168 
L 148.902998 295.260194 
L 149.227977 295.267142 
L 149.552957 295.386534 
L 149.877936 295.279958 
L 150.202916 294.175047 
L 150.527895 294.871735 
L 150.852875 295.10259 
L 151.177854 295.029767 
L 151.502834 295.275209 
L 151.827813 294.249402 
L 152.152793 295.135531 
L 152.802752 295.175673 
L 153.127731 295.069419 
L 153.452711 294.293397 
L 153.77769 295.057384 
L 154.10267 295.16694 
L 154.427649 294.994352 
L 154.752629 294.950318 
L 155.077609 294.468176 
L 155.402588 295.089122 
L 156.377527 295.060058 
L 156.702506 294.352653 
L 157.027486 295.007092 
L 157.677445 295.21665 
L 158.002424 295.488 
L 158.327404 294.257193 
L 158.652383 295.10606 
L 158.977363 294.917546 
L 159.302342 295.083997 
L 159.627322 295.05884 
L 159.952301 294.300836 
L 160.277281 295.026082 
L 161.252219 295.245753 
L 161.577199 294.356966 
L 161.902179 295.244321 
L 162.552138 295.05396 
L 162.877117 294.942251 
L 163.202097 294.281178 
L 163.527076 295.092708 
L 163.852056 295.150178 
L 164.177035 294.706463 
L 164.502015 295.148776 
L 164.826994 294.371605 
L 165.151974 295.268245 
L 165.476953 295.177711 
L 165.801933 295.270153 
L 166.126912 295.139377 
L 166.451892 294.44498 
L 166.776871 295.097051 
L 167.101851 294.905886 
L 167.42683 295.223713 
L 167.75181 294.851464 
L 168.07679 294.159373 
L 168.401769 295.06817 
L 168.726749 294.949912 
L 169.376708 295.163454 
L 169.701687 294.317536 
L 170.351646 294.924302 
L 170.676626 294.939991 
L 171.001605 58.753677 
L 171.326585 293.89586 
L 171.651564 294.570033 
L 171.976544 294.938191 
L 172.301523 294.747984 
L 172.626503 294.790025 
L 172.951482 293.999824 
L 173.276462 294.690245 
L 173.601441 294.441777 
L 173.926421 294.606965 
L 174.2514 294.646449 
L 174.57638 293.637687 
L 174.90136 294.887079 
L 175.226339 294.767005 
L 175.551319 294.79702 
L 175.876298 294.508226 
L 176.201278 293.843316 
L 176.526257 294.823733 
L 176.851237 294.787658 
L 177.176216 294.36563 
L 177.501196 294.615698 
L 177.826175 294.09143 
L 178.151155 294.922318 
L 178.476134 294.693861 
L 178.801114 294.834994 
L 179.126093 294.541558 
L 179.451073 294.031845 
L 179.776052 294.556803 
L 180.101032 294.524299 
L 180.426011 294.744881 
L 180.750991 295.099939 
L 181.075971 294.092963 
L 181.40095 294.867651 
L 181.72593 294.595965 
L 182.050909 294.942627 
L 182.375889 294.549755 
L 182.700868 293.732358 
L 183.025848 294.444489 
L 184.000786 294.949177 
L 184.325766 294.101703 
L 184.975725 294.994888 
L 185.300704 294.802122 
L 185.625684 294.77354 
L 185.950663 293.997932 
L 186.275643 294.640213 
L 186.600622 294.675567 
L 186.925602 294.557469 
L 187.250581 294.928738 
L 187.575561 293.953607 
L 187.900541 294.535407 
L 188.22552 294.580536 
L 188.5505 294.487788 
L 188.875479 294.618096 
L 189.200459 293.807034 
L 189.525438 294.516814 
L 189.850418 294.800705 
L 190.825356 294.10466 
L 191.150336 294.770276 
L 191.475315 294.630491 
L 191.800295 295.071181 
L 192.450254 294.031631 
L 192.775233 294.882582 
L 193.100213 294.62663 
L 193.425192 294.84745 
L 193.750172 294.875243 
L 194.075152 294.205422 
L 194.400131 294.763443 
L 194.725111 294.14907 
L 195.05009 294.706164 
L 195.37507 294.705045 
L 195.700049 293.507455 
L 196.025029 294.466545 
L 196.350008 294.885187 
L 196.999967 294.686223 
L 197.324947 293.821659 
L 197.649926 294.533101 
L 198.624865 294.633004 
L 198.949844 293.997028 
L 199.274824 294.632483 
L 199.599803 294.757077 
L 199.924783 294.56883 
L 200.249762 294.634544 
L 200.574742 294.076561 
L 200.899722 294.707045 
L 201.224701 294.87856 
L 201.87466 294.541551 
L 202.19964 293.919057 
L 202.524619 294.495985 
L 202.849599 294.457451 
L 203.174578 294.554581 
L 203.499558 59.815259 
L 203.824537 219.769329 
L 204.149517 294.470727 
L 204.799476 294.123682 
L 205.124455 294.575357 
L 205.449435 293.733637 
L 205.774414 294.290839 
L 206.099394 294.267527 
L 206.424373 294.601005 
L 206.749353 294.608206 
L 207.074333 293.924481 
L 207.399312 294.793243 
L 207.724292 294.663195 
L 208.049271 294.726503 
L 208.374251 294.43774 
L 208.69923 293.678105 
L 209.02421 294.598232 
L 209.349189 294.752297 
L 209.674169 294.574231 
L 209.999148 294.694313 
L 210.324128 293.802898 
L 210.649107 294.731888 
L 210.974087 294.536609 
L 211.624046 294.597167 
L 211.949025 293.847705 
L 212.274005 294.321083 
L 212.923964 294.209413 
L 213.248943 294.455207 
L 213.573923 293.375974 
L 214.223882 294.293949 
L 214.548862 293.675753 
L 214.873841 293.850746 
L 215.198821 293.391602 
L 215.5238 294.118266 
L 215.84878 294.098241 
L 216.173759 294.296155 
L 216.498739 294.27672 
L 216.823718 293.707169 
L 217.148698 294.308742 
L 217.473677 293.705928 
L 218.123636 294.024484 
L 218.448616 293.479164 
L 218.773595 294.250857 
L 219.098575 294.058099 
L 219.423554 294.25943 
L 219.748534 294.311997 
L 220.073514 293.391464 
L 220.398493 294.139371 
L 220.723473 294.187251 
L 221.048452 294.359195 
L 221.373432 294.338297 
L 221.698411 293.324908 
L 222.023391 294.125107 
L 222.34837 293.622672 
L 222.67335 294.507445 
L 223.323309 293.629996 
L 223.648288 294.333754 
L 223.973268 294.027992 
L 224.623227 294.252979 
L 224.948206 293.515491 
L 225.273186 294.489067 
L 225.598165 294.10581 
L 225.923145 294.291605 
L 226.248124 294.28199 
L 226.573104 293.618298 
L 227.223063 294.463304 
L 227.548043 294.615691 
L 228.198002 293.839975 
L 228.522981 294.257652 
L 228.847961 294.167762 
L 229.17294 294.603449 
L 229.49792 294.277509 
L 229.822899 293.773458 
L 230.147879 294.767334 
L 230.472858 294.226764 
L 230.797838 293.941288 
L 231.122817 294.259491 
L 231.447797 293.398857 
L 231.772776 294.15267 
L 232.097756 294.204732 
L 232.422735 294.037208 
L 232.747715 294.349412 
L 233.072695 293.489437 
L 233.397674 294.366695 
L 233.722654 294.120748 
L 234.047633 294.400992 
L 234.372613 294.46492 
L 234.697592 293.423654 
L 235.022572 294.356483 
L 235.347551 294.177529 
L 235.672531 294.240791 
L 235.99751 58.171908 
L 236.32249 293.629092 
L 236.647469 294.523785 
L 236.972449 294.443769 
L 237.297428 294.193915 
L 237.622408 294.090618 
L 237.947387 293.317485 
L 238.272367 294.30757 
L 238.597346 293.93673 
L 238.922326 294.164621 
L 239.247305 294.054353 
L 239.572285 293.4108 
L 239.897265 294.118955 
L 240.222244 294.33999 
L 240.872203 293.600824 
L 241.197183 293.668697 
L 241.522162 294.458348 
L 242.172121 294.186124 
L 242.497101 294.427031 
L 242.82208 293.263569 
L 243.14706 294.340426 
L 243.797019 293.798753 
L 244.121998 294.001486 
L 244.446978 293.313034 
L 244.771957 294.516377 
L 245.096937 293.92016 
L 245.421916 293.725716 
L 245.746896 293.84664 
L 246.071876 292.940961 
L 246.396855 294.174074 
L 246.721835 294.045474 
L 247.046814 294.150165 
L 247.371794 294.086574 
L 247.696773 293.036268 
L 248.021753 294.130722 
L 248.671712 294.024422 
L 248.996691 294.041544 
L 249.321671 293.427232 
L 249.64665 294.030099 
L 249.97163 293.982549 
L 250.296609 293.697517 
L 250.621589 294.015942 
L 250.946568 293.324525 
L 251.271548 293.866259 
L 251.921507 293.725931 
L 252.571466 292.885758 
L 252.896446 293.470806 
L 253.221425 293.703408 
L 253.546405 294.172665 
L 253.871384 293.890161 
L 254.196364 292.913543 
L 254.521343 294.413624 
L 254.846323 293.839386 
L 255.171302 293.650051 
L 255.496282 294.007178 
L 255.821261 293.03374 
L 256.146241 293.908309 
L 256.47122 293.717565 
L 256.7962 293.901943 
L 257.121179 293.719059 
L 257.446159 292.988189 
L 257.771138 293.864896 
L 258.096118 293.644367 
L 258.746077 293.974436 
L 259.071057 293.276178 
L 259.396036 293.796922 
L 259.721016 293.272501 
L 260.045995 293.774162 
L 260.370975 293.766333 
L 260.695954 292.891864 
L 261.020934 294.077978 
L 261.345913 293.827665 
L 261.995872 293.705837 
L 262.320852 293.152266 
L 262.645831 294.204089 
L 262.970811 293.887326 
L 263.29579 293.91063 
L 263.62077 294.142757 
L 263.945749 293.036291 
L 264.270729 294.025794 
L 264.595708 293.777004 
L 264.920688 294.038097 
L 265.245667 294.154884 
L 265.570647 293.068994 
L 265.895627 293.917433 
L 266.220606 293.93136 
L 266.545586 294.178356 
L 266.870565 294.022936 
L 267.195545 293.22443 
L 267.520524 294.067391 
L 267.845504 293.965075 
L 268.170483 293.995787 
L 268.495463 58.713956 
L 268.820442 217.47828 
L 269.145422 292.032953 
L 269.470401 291.775362 
L 270.12036 291.878383 
L 270.44534 291.090089 
L 270.770319 292.023431 
L 271.095299 292.084785 
L 271.420278 291.701084 
L 271.745258 291.92355 
L 272.070238 291.039674 
L 272.395217 291.991708 
L 272.720197 291.914817 
L 273.370156 292.220464 
L 273.695135 291.880888 
L 274.020115 292.938648 
L 274.995053 292.438549 
L 275.320033 291.284265 
L 275.645012 292.094009 
L 275.969992 291.854443 
L 276.294971 291.857086 
L 276.619951 292.003865 
L 276.94493 291.166719 
L 277.26991 291.944219 
L 277.594889 292.073739 
L 277.919869 291.817304 
L 278.244848 291.842699 
L 278.569828 291.264669 
L 278.894808 291.997231 
L 279.219787 291.725605 
L 279.869746 291.779721 
L 280.194726 291.130813 
L 280.519705 292.06463 
L 280.844685 291.776557 
L 281.169664 292.027866 
L 281.494644 291.910121 
L 281.819623 291.646348 
L 282.144603 292.937813 
L 282.469582 292.98429 
L 282.794562 292.836783 
L 283.119541 292.93828 
L 283.444521 291.508945 
L 283.7695 292.047386 
L 284.419459 292.292168 
L 284.744439 292.205441 
L 285.069419 291.329654 
L 285.394398 291.905012 
L 286.044357 292.297339 
L 286.369337 292.148997 
L 286.694316 291.176999 
L 287.019296 292.120431 
L 287.344275 292.059114 
L 287.669255 292.378175 
L 288.319214 291.39559 
L 288.644193 292.150721 
L 288.969173 292.128696 
L 289.294152 292.333276 
L 289.619132 292.083935 
L 289.944111 291.330574 
L 290.269091 292.182 
L 290.59407 292.705785 
L 291.244029 292.981042 
L 291.569009 292.148967 
L 291.893989 292.729288 
L 292.218968 292.131768 
L 292.868927 292.083376 
L 293.193907 291.41527 
L 293.518886 292.215515 
L 293.843866 292.315541 
L 294.493825 291.894501 
L 294.818804 291.136589 
L 295.143784 292.025997 
L 295.468763 291.937608 
L 295.793743 292.085536 
L 296.118722 292.076719 
L 296.443702 291.15925 
L 296.768681 292.114769 
L 297.093661 292.082725 
L 297.41864 292.188557 
L 297.74362 292.102236 
L 298.0686 291.199729 
L 298.393579 292.030057 
L 298.718559 292.01004 
L 299.368518 292.688135 
L 299.693497 292.08978 
L 300.018477 292.766565 
L 300.343456 292.74831 
L 300.668436 292.387759 
L 300.993415 53.568 
L 301.318395 290.99312 
L 301.968354 291.544483 
L 302.618313 291.582787 
L 302.943292 290.788387 
L 303.268272 291.605616 
L 303.593251 291.750028 
L 304.24321 291.669874 
L 304.56819 290.758533 
L 305.218149 291.121681 
L 305.543129 291.155458 
L 306.193088 290.204189 
L 306.518067 290.963948 
L 307.168026 290.77269 
L 307.493006 291.503882 
L 307.817985 290.942421 
L 308.142965 291.605715 
L 308.467944 291.352721 
L 308.792924 291.462736 
L 309.117903 290.623368 
L 309.442883 290.265207 
L 309.767862 290.587202 
L 310.092842 291.124784 
L 310.417821 291.029899 
L 310.742801 291.061507 
L 311.067781 290.287683 
L 311.39276 290.730105 
L 311.71774 290.528643 
L 312.367699 290.922802 
L 312.692678 290.32683 
L 313.017658 290.842732 
L 313.342637 290.364176 
L 313.667617 291.256142 
L 313.992596 290.800399 
L 314.642555 292.045739 
L 314.967535 292.080166 
L 315.292514 292.273806 
L 315.942473 291.923757 
L 316.267453 293.035172 
L 317.242391 293.048931 
L 317.567371 291.343689 
L 317.892351 292.248793 
L 318.21733 292.187814 
L 318.54231 292.472333 
L 318.867289 292.08752 
L 319.192269 291.393483 
L 319.517248 292.175695 
L 319.842228 291.603639 
L 320.167207 291.80399 
L 320.492187 291.187533 
L 320.817166 290.970842 
L 321.142146 291.764024 
L 321.467125 291.297257 
L 321.792105 291.425252 
L 322.117084 291.24151 
L 322.442064 290.730955 
L 322.767043 291.401887 
L 323.092023 291.370562 
L 323.417002 290.93008 
L 323.741982 291.364595 
L 324.066962 291.077824 
L 324.391941 291.113201 
L 325.0419 292.340737 
L 325.36688 292.276517 
L 325.691859 291.897535 
L 326.016839 291.849065 
L 326.341818 291.42526 
L 326.991777 291.830404 
L 327.316757 291.025992 
L 327.641736 291.17785 
L 328.291695 291.698732 
L 328.616675 291.515403 
L 328.941654 290.614351 
L 329.591613 292.293294 
L 329.916593 292.483579 
L 330.241572 292.503604 
L 330.566552 291.606198 
L 330.891532 292.38746 
L 331.216511 292.228745 
L 331.541491 292.567517 
L 331.86647 292.148323 
L 332.19145 291.390526 
L 332.516429 292.558048 
L 332.841409 292.351554 
L 333.166388 292.896161 
L 333.491368 56.820092 
L 333.816347 218.920906 
L 334.141327 293.795911 
L 334.466306 293.933068 
L 334.791286 293.772569 
L 335.116265 294.043697 
L 335.441245 293.781578 
L 336.091204 294.165333 
L 336.416183 294.199339 
L 336.741163 294.393615 
L 337.066143 293.350073 
L 337.391122 294.211635 
L 337.716102 294.226267 
L 338.041081 294.542853 
L 338.366061 294.46417 
L 338.69104 293.456205 
L 339.01602 294.63125 
L 339.340999 294.263482 
L 339.665979 294.361899 
L 339.990958 294.342418 
L 340.315938 293.654625 
L 340.640917 294.332482 
L 340.965897 294.479529 
L 341.290876 294.31582 
L 341.615856 294.302085 
L 341.940835 293.748545 
L 342.265815 293.987796 
L 342.590794 294.620349 
L 342.915774 294.452763 
L 343.240753 294.44799 
L 343.565733 293.622886 
L 343.890713 294.706754 
L 344.215692 294.448228 
L 344.865651 294.350048 
L 345.190631 293.899821 
L 345.51561 294.339928 
L 345.84059 294.500696 
L 346.165569 294.352477 
L 346.490549 294.391822 
L 346.815528 293.774798 
L 347.140508 294.505668 
L 347.465487 294.381465 
L 348.115446 294.360536 
L 348.440426 293.464762 
L 348.765405 294.132201 
L 349.090385 294.323037 
L 349.415364 294.361984 
L 349.740344 294.693715 
L 350.065324 293.388469 
L 350.390303 294.205897 
L 351.040262 294.47347 
L 351.365242 294.333631 
L 351.690221 293.78285 
L 352.015201 294.425307 
L 352.34018 294.075703 
L 352.66516 294.510234 
L 352.990139 294.438767 
L 353.315119 293.647516 
L 353.640098 294.158921 
L 354.290057 294.501339 
L 354.615037 294.411418 
L 354.940016 293.639748 
L 355.264996 294.707106 
L 355.914955 294.279087 
L 356.239934 294.365255 
L 356.564914 293.733384 
L 356.889894 294.312151 
L 357.214873 294.497341 
L 357.864832 294.465173 
L 358.189812 293.474912 
L 358.514791 294.480878 
L 358.839771 294.509705 
L 359.16475 294.300775 
L 359.48973 294.506687 
L 359.814709 293.607948 
L 360.139689 294.357311 
L 360.464668 294.281929 
L 360.789648 294.576874 
L 361.114627 294.36897 
L 361.439607 293.727095 
L 361.764586 294.470574 
L 362.089566 294.199569 
L 362.414545 294.547051 
L 362.739525 294.424273 
L 363.064505 293.535508 
L 363.389484 294.434439 
L 364.364423 294.445309 
L 364.689402 293.759691 
L 365.014382 294.272093 
L 365.339361 294.404937 
L 365.664341 294.387624 
L 365.98932 58.328768 
L 366.3143 293.688539 
L 366.639279 294.372111 
L 366.964259 294.266746 
L 367.289238 294.382307 
L 367.939197 293.871269 
L 368.264177 294.076753 
L 368.589156 293.922504 
L 368.914136 294.337293 
L 369.239115 294.286089 
L 369.564095 293.593768 
L 369.889075 294.412314 
L 370.214054 294.446788 
L 370.539034 294.202097 
L 370.864013 294.294156 
L 371.188993 293.518157 
L 371.513972 294.143623 
L 372.163931 294.049818 
L 372.488911 294.076147 
L 372.81389 293.591738 
L 373.13887 294.089883 
L 373.463849 294.301625 
L 373.788829 294.115837 
L 374.113808 294.133549 
L 374.438788 293.601015 
L 375.088747 294.096916 
L 375.413726 294.122747 
L 375.738706 294.465664 
L 376.063686 293.485438 
L 376.388665 294.326423 
L 376.713645 294.27446 
L 377.038624 293.953706 
L 377.363604 294.179283 
L 377.688583 293.699225 
L 378.013563 294.297082 
L 378.338542 294.493081 
L 378.663522 294.328805 
L 378.988501 294.572431 
L 379.313481 293.586919 
L 379.63846 294.360076 
L 379.96344 294.388283 
L 380.288419 293.60028 
L 380.613399 293.998675 
L 380.938378 293.343171 
L 381.263358 293.948397 
L 381.588337 293.994492 
L 381.913317 294.157029 
L 382.238296 293.912852 
L 382.563276 293.161589 
L 382.888256 293.802936 
L 383.213235 294.0409 
L 383.538215 293.574394 
L 383.863194 293.640429 
L 384.188174 293.257272 
L 384.513153 293.915372 
L 384.838133 293.481454 
L 385.163112 293.963818 
L 385.488092 293.851842 
L 385.813071 293.327221 
L 386.138051 293.958088 
L 386.46303 294.24718 
L 387.112989 294.093591 
L 387.437969 293.260818 
L 387.762948 293.654119 
L 388.087928 293.775158 
L 388.412907 293.745458 
L 388.737887 294.16767 
L 389.062867 293.394214 
L 389.387846 293.915135 
L 390.362785 294.2274 
L 390.687764 293.495987 
L 391.012744 294.133549 
L 391.662703 294.095483 
L 391.987682 294.267129 
L 392.312662 293.69086 
L 392.637641 294.11167 
L 393.2876 294.108613 
L 393.61258 294.027226 
L 393.937559 293.302454 
L 394.262539 294.203744 
L 394.587518 293.940499 
L 394.912498 293.913886 
L 395.237477 294.098111 
L 395.562457 293.193734 
L 395.887437 293.923876 
L 396.537396 294.050461 
L 396.862375 294.102891 
L 397.187355 293.487897 
L 397.512334 293.895194 
L 397.837314 294.024246 
L 398.162293 293.889724 
L 398.487273 58.551273 
L 398.487273 58.551273 
" style="fill:none;stroke:#1f77b4;stroke-linecap:square;stroke-width:1.5;"/>
   </g>
   <g id="patch_3">
    <path d="M 57.6 307.584 
L 57.6 41.472 
" style="fill:none;stroke:#000000;stroke-linecap:square;stroke-linejoin:miter;stroke-width:0.8;"/>
   </g>
   <g id="patch_4">
    <path d="M 414.72 307.584 
L 414.72 41.472 
" style="fill:none;stroke:#000000;stroke-linecap:square;stroke-linejoin:miter;stroke-width:0.8;"/>
   </g>
   <g id="patch_5">
    <path d="M 57.6 307.584 
L 414.72 307.584 
" style="fill:none;stroke:#000000;stroke-linecap:square;stroke-linejoin:miter;stroke-width:0.8;"/>
   </g>
   <g id="patch_6">
    <path d="M 57.6 41.472 
L 414.72 41.472 
" style="fill:none;stroke:#000000;stroke-linecap:square;stroke-linejoin:miter;stroke-width:0.8;"/>
   </g>
   <g id="text_14">
    <!-- Time/trajectory [s] -->
    <defs>
     <path d="M -0.296875 72.90625 
L 61.375 72.90625 
L 61.375 64.59375 
L 35.5 64.59375 
L 35.5 0 
L 25.59375 0 
L 25.59375 64.59375 
L -0.296875 64.59375 
z
" id="DejaVuSans-84"/>
     <path d="M 9.421875 54.6875 
L 18.40625 54.6875 
L 18.40625 0 
L 9.421875 0 
z
M 9.421875 75.984375 
L 18.40625 75.984375 
L 18.40625 64.59375 
L 9.421875 64.59375 
z
" id="DejaVuSans-105"/>
     <path d="M 52 44.1875 
Q 55.375 50.25 60.0625 53.125 
Q 64.75 56 71.09375 56 
Q 79.640625 56 84.28125 50.015625 
Q 88.921875 44.046875 88.921875 33.015625 
L 88.921875 0 
L 79.890625 0 
L 79.890625 32.71875 
Q 79.890625 40.578125 77.09375 44.375 
Q 74.3125 48.1875 68.609375 48.1875 
Q 61.625 48.1875 57.5625 43.546875 
Q 53.515625 38.921875 53.515625 30.90625 
L 53.515625 0 
L 44.484375 0 
L 44.484375 32.71875 
Q 44.484375 40.625 41.703125 44.40625 
Q 38.921875 48.1875 33.109375 48.1875 
Q 26.21875 48.1875 22.15625 43.53125 
Q 18.109375 38.875 18.109375 30.90625 
L 18.109375 0 
L 9.078125 0 
L 9.078125 54.6875 
L 18.109375 54.6875 
L 18.109375 46.1875 
Q 21.1875 51.21875 25.484375 53.609375 
Q 29.78125 56 35.6875 56 
Q 41.65625 56 45.828125 52.96875 
Q 50 49.953125 52 44.1875 
z
" id="DejaVuSans-109"/>
     <path d="M 56.203125 29.59375 
L 56.203125 25.203125 
L 14.890625 25.203125 
Q 15.484375 15.921875 20.484375 11.0625 
Q 25.484375 6.203125 34.421875 6.203125 
Q 39.59375 6.203125 44.453125 7.46875 
Q 49.3125 8.734375 54.109375 11.28125 
L 54.109375 2.78125 
Q 49.265625 0.734375 44.1875 -0.34375 
Q 39.109375 -1.421875 33.890625 -1.421875 
Q 20.796875 -1.421875 13.15625 6.1875 
Q 5.515625 13.8125 5.515625 26.8125 
Q 5.515625 40.234375 12.765625 48.109375 
Q 20.015625 56 32.328125 56 
Q 43.359375 56 49.78125 48.890625 
Q 56.203125 41.796875 56.203125 29.59375 
z
M 47.21875 32.234375 
Q 47.125 39.59375 43.09375 43.984375 
Q 39.0625 48.390625 32.421875 48.390625 
Q 24.90625 48.390625 20.390625 44.140625 
Q 15.875 39.890625 15.1875 32.171875 
z
" id="DejaVuSans-101"/>
     <path d="M 25.390625 72.90625 
L 33.6875 72.90625 
L 8.296875 -9.28125 
L 0 -9.28125 
z
" id="DejaVuSans-47"/>
     <path d="M 18.3125 70.21875 
L 18.3125 54.6875 
L 36.8125 54.6875 
L 36.8125 47.703125 
L 18.3125 47.703125 
L 18.3125 18.015625 
Q 18.3125 11.328125 20.140625 9.421875 
Q 21.96875 7.515625 27.59375 7.515625 
L 36.8125 7.515625 
L 36.8125 0 
L 27.59375 0 
Q 17.1875 0 13.234375 3.875 
Q 9.28125 7.765625 9.28125 18.015625 
L 9.28125 47.703125 
L 2.6875 47.703125 
L 2.6875 54.6875 
L 9.28125 54.6875 
L 9.28125 70.21875 
z
" id="DejaVuSans-116"/>
     <path d="M 41.109375 46.296875 
Q 39.59375 47.171875 37.8125 47.578125 
Q 36.03125 48 33.890625 48 
Q 26.265625 48 22.1875 43.046875 
Q 18.109375 38.09375 18.109375 28.8125 
L 18.109375 0 
L 9.078125 0 
L 9.078125 54.6875 
L 18.109375 54.6875 
L 18.109375 46.1875 
Q 20.953125 51.171875 25.484375 53.578125 
Q 30.03125 56 36.53125 56 
Q 37.453125 56 38.578125 55.875 
Q 39.703125 55.765625 41.0625 55.515625 
z
" id="DejaVuSans-114"/>
     <path d="M 34.28125 27.484375 
Q 23.390625 27.484375 19.1875 25 
Q 14.984375 22.515625 14.984375 16.5 
Q 14.984375 11.71875 18.140625 8.90625 
Q 21.296875 6.109375 26.703125 6.109375 
Q 34.1875 6.109375 38.703125 11.40625 
Q 43.21875 16.703125 43.21875 25.484375 
L 43.21875 27.484375 
z
M 52.203125 31.203125 
L 52.203125 0 
L 43.21875 0 
L 43.21875 8.296875 
Q 40.140625 3.328125 35.546875 0.953125 
Q 30.953125 -1.421875 24.3125 -1.421875 
Q 15.921875 -1.421875 10.953125 3.296875 
Q 6 8.015625 6 15.921875 
Q 6 25.140625 12.171875 29.828125 
Q 18.359375 34.515625 30.609375 34.515625 
L 43.21875 34.515625 
L 43.21875 35.40625 
Q 43.21875 41.609375 39.140625 45 
Q 35.0625 48.390625 27.6875 48.390625 
Q 23 48.390625 18.546875 47.265625 
Q 14.109375 46.140625 10.015625 43.890625 
L 10.015625 52.203125 
Q 14.9375 54.109375 19.578125 55.046875 
Q 24.21875 56 28.609375 56 
Q 40.484375 56 46.34375 49.84375 
Q 52.203125 43.703125 52.203125 31.203125 
z
" id="DejaVuSans-97"/>
     <path d="M 9.421875 54.6875 
L 18.40625 54.6875 
L 18.40625 -0.984375 
Q 18.40625 -11.421875 14.421875 -16.109375 
Q 10.453125 -20.796875 1.609375 -20.796875 
L -1.8125 -20.796875 
L -1.8125 -13.1875 
L 0.59375 -13.1875 
Q 5.71875 -13.1875 7.5625 -10.8125 
Q 9.421875 -8.453125 9.421875 -0.984375 
z
M 9.421875 75.984375 
L 18.40625 75.984375 
L 18.40625 64.59375 
L 9.421875 64.59375 
z
" id="DejaVuSans-106"/>
     <path d="M 48.78125 52.59375 
L 48.78125 44.1875 
Q 44.96875 46.296875 41.140625 47.34375 
Q 37.3125 48.390625 33.40625 48.390625 
Q 24.65625 48.390625 19.8125 42.84375 
Q 14.984375 37.3125 14.984375 27.296875 
Q 14.984375 17.28125 19.8125 11.734375 
Q 24.65625 6.203125 33.40625 6.203125 
Q 37.3125 6.203125 41.140625 7.25 
Q 44.96875 8.296875 48.78125 10.40625 
L 48.78125 2.09375 
Q 45.015625 0.34375 40.984375 -0.53125 
Q 36.96875 -1.421875 32.421875 -1.421875 
Q 20.0625 -1.421875 12.78125 6.34375 
Q 5.515625 14.109375 5.515625 27.296875 
Q 5.515625 40.671875 12.859375 48.328125 
Q 20.21875 56 33.015625 56 
Q 37.15625 56 41.109375 55.140625 
Q 45.0625 54.296875 48.78125 52.59375 
z
" id="DejaVuSans-99"/>
     <path d="M 30.609375 48.390625 
Q 23.390625 48.390625 19.1875 42.75 
Q 14.984375 37.109375 14.984375 27.296875 
Q 14.984375 17.484375 19.15625 11.84375 
Q 23.34375 6.203125 30.609375 6.203125 
Q 37.796875 6.203125 41.984375 11.859375 
Q 46.1875 17.53125 46.1875 27.296875 
Q 46.1875 37.015625 41.984375 42.703125 
Q 37.796875 48.390625 30.609375 48.390625 
z
M 30.609375 56 
Q 42.328125 56 49.015625 48.375 
Q 55.71875 40.765625 55.71875 27.296875 
Q 55.71875 13.875 49.015625 6.21875 
Q 42.328125 -1.421875 30.609375 -1.421875 
Q 18.84375 -1.421875 12.171875 6.21875 
Q 5.515625 13.875 5.515625 27.296875 
Q 5.515625 40.765625 12.171875 48.375 
Q 18.84375 56 30.609375 56 
z
" id="DejaVuSans-111"/>
     <path d="M 32.171875 -5.078125 
Q 28.375 -14.84375 24.75 -17.8125 
Q 21.140625 -20.796875 15.09375 -20.796875 
L 7.90625 -20.796875 
L 7.90625 -13.28125 
L 13.1875 -13.28125 
Q 16.890625 -13.28125 18.9375 -11.515625 
Q 21 -9.765625 23.484375 -3.21875 
L 25.09375 0.875 
L 2.984375 54.6875 
L 12.5 54.6875 
L 29.59375 11.921875 
L 46.6875 54.6875 
L 56.203125 54.6875 
z
" id="DejaVuSans-121"/>
     <path id="DejaVuSans-32"/>
     <path d="M 8.59375 75.984375 
L 29.296875 75.984375 
L 29.296875 69 
L 17.578125 69 
L 17.578125 -6.203125 
L 29.296875 -6.203125 
L 29.296875 -13.1875 
L 8.59375 -13.1875 
z
" id="DejaVuSans-91"/>
     <path d="M 44.28125 53.078125 
L 44.28125 44.578125 
Q 40.484375 46.53125 36.375 47.5 
Q 32.28125 48.484375 27.875 48.484375 
Q 21.1875 48.484375 17.84375 46.4375 
Q 14.5 44.390625 14.5 40.28125 
Q 14.5 37.15625 16.890625 35.375 
Q 19.28125 33.59375 26.515625 31.984375 
L 29.59375 31.296875 
Q 39.15625 29.25 43.1875 25.515625 
Q 47.21875 21.78125 47.21875 15.09375 
Q 47.21875 7.46875 41.1875 3.015625 
Q 35.15625 -1.421875 24.609375 -1.421875 
Q 20.21875 -1.421875 15.453125 -0.5625 
Q 10.6875 0.296875 5.421875 2 
L 5.421875 11.28125 
Q 10.40625 8.6875 15.234375 7.390625 
Q 20.0625 6.109375 24.8125 6.109375 
Q 31.15625 6.109375 34.5625 8.28125 
Q 37.984375 10.453125 37.984375 14.40625 
Q 37.984375 18.0625 35.515625 20.015625 
Q 33.0625 21.96875 24.703125 23.78125 
L 21.578125 24.515625 
Q 13.234375 26.265625 9.515625 29.90625 
Q 5.8125 33.546875 5.8125 39.890625 
Q 5.8125 47.609375 11.28125 51.796875 
Q 16.75 56 26.8125 56 
Q 31.78125 56 36.171875 55.265625 
Q 40.578125 54.546875 44.28125 53.078125 
z
" id="DejaVuSans-115"/>
     <path d="M 30.421875 75.984375 
L 30.421875 -13.1875 
L 9.71875 -13.1875 
L 9.71875 -6.203125 
L 21.390625 -6.203125 
L 21.390625 69 
L 9.71875 69 
L 9.71875 75.984375 
z
" id="DejaVuSans-93"/>
    </defs>
    <g transform="translate(180.549375 35.472)scale(0.12 -0.12)">
     <use xlink:href="#DejaVuSans-84"/>
     <use x="57.958984" xlink:href="#DejaVuSans-105"/>
     <use x="85.742188" xlink:href="#DejaVuSans-109"/>
     <use x="183.154297" xlink:href="#DejaVuSans-101"/>
     <use x="244.677734" xlink:href="#DejaVuSans-47"/>
     <use x="278.369141" xlink:href="#DejaVuSans-116"/>
     <use x="317.578125" xlink:href="#DejaVuSans-114"/>
     <use x="358.691406" xlink:href="#DejaVuSans-97"/>
     <use x="419.970703" xlink:href="#DejaVuSans-106"/>
     <use x="447.753906" xlink:href="#DejaVuSans-101"/>
     <use x="509.277344" xlink:href="#DejaVuSans-99"/>
     <use x="564.257812" xlink:href="#DejaVuSans-116"/>
     <use x="603.466797" xlink:href="#DejaVuSans-111"/>
     <use x="664.648438" xlink:href="#DejaVuSans-114"/>
     <use x="705.761719" xlink:href="#DejaVuSans-121"/>
     <use x="764.941406" xlink:href="#DejaVuSans-32"/>
     <use x="796.728516" xlink:href="#DejaVuSans-91"/>
     <use x="835.742188" xlink:href="#DejaVuSans-115"/>
     <use x="887.841797" xlink:href="#DejaVuSans-93"/>
    </g>
   </g>
  </g>
 </g>
 <defs>
  <clipPath id="p6393c64c32">
   <rect height="266.112" width="357.12" x="57.6" y="41.472"/>
  </clipPath>
 </defs>
</svg>
