<?xml version="1.0" encoding="utf-8" standalone="no"?>
<!DOCTYPE svg PUBLIC "-//W3C//DTD SVG 1.1//EN"
  "http://www.w3.org/Graphics/SVG/1.1/DTD/svg11.dtd">
<!-- Created with matplotlib (https://matplotlib.org/) -->
<svg height="345.6pt" version="1.1" viewBox="0 0 460.8 345.6" width="460.8pt" xmlns="http://www.w3.org/2000/svg" xmlns:xlink="http://www.w3.org/1999/xlink">
 <defs>
  <style type="text/css">
*{stroke-linecap:butt;stroke-linejoin:round;}
  </style>
 </defs>
 <g id="figure_1">
  <g id="patch_1">
   <path d="M 0 345.6 
L 460.8 345.6 
L 460.8 0 
L 0 0 
z
" style="fill:#ffffff;"/>
  </g>
  <g id="axes_1">
   <g id="patch_2">
    <path d="M 57.6 307.584 
L 414.72 307.584 
L 414.72 41.472 
L 57.6 41.472 
z
" style="fill:#ffffff;"/>
   </g>
   <g id="matplotlib.axis_1">
    <g id="xtick_1">
     <g id="line2d_1">
      <defs>
       <path d="M 0 0 
L 0 3.5 
" id="m52ef479feb" style="stroke:#000000;stroke-width:0.8;"/>
      </defs>
      <g>
       <use style="stroke:#000000;stroke-width:0.8;" x="73.109666" xlink:href="#m52ef479feb" y="307.584"/>
      </g>
     </g>
     <g id="text_1">
      <!-- 0 -->
      <defs>
       <path d="M 31.78125 66.40625 
Q 24.171875 66.40625 20.328125 58.90625 
Q 16.5 51.421875 16.5 36.375 
Q 16.5 21.390625 20.328125 13.890625 
Q 24.171875 6.390625 31.78125 6.390625 
Q 39.453125 6.390625 43.28125 13.890625 
Q 47.125 21.390625 47.125 36.375 
Q 47.125 51.421875 43.28125 58.90625 
Q 39.453125 66.40625 31.78125 66.40625 
z
M 31.78125 74.21875 
Q 44.046875 74.21875 50.515625 64.515625 
Q 56.984375 54.828125 56.984375 36.375 
Q 56.984375 17.96875 50.515625 8.265625 
Q 44.046875 -1.421875 31.78125 -1.421875 
Q 19.53125 -1.421875 13.0625 8.265625 
Q 6.59375 17.96875 6.59375 36.375 
Q 6.59375 54.828125 13.0625 64.515625 
Q 19.53125 74.21875 31.78125 74.21875 
z
" id="DejaVuSans-48"/>
      </defs>
      <g transform="translate(69.928416 322.182437)scale(0.1 -0.1)">
       <use xlink:href="#DejaVuSans-48"/>
      </g>
     </g>
    </g>
    <g id="xtick_2">
     <g id="line2d_2">
      <g>
       <use style="stroke:#000000;stroke-width:0.8;" x="145.415801" xlink:href="#m52ef479feb" y="307.584"/>
      </g>
     </g>
     <g id="text_2">
      <!-- 100 -->
      <defs>
       <path d="M 12.40625 8.296875 
L 28.515625 8.296875 
L 28.515625 63.921875 
L 10.984375 60.40625 
L 10.984375 69.390625 
L 28.421875 72.90625 
L 38.28125 72.90625 
L 38.28125 8.296875 
L 54.390625 8.296875 
L 54.390625 0 
L 12.40625 0 
z
" id="DejaVuSans-49"/>
      </defs>
      <g transform="translate(135.872051 322.182437)scale(0.1 -0.1)">
       <use xlink:href="#DejaVuSans-49"/>
       <use x="63.623047" xlink:href="#DejaVuSans-48"/>
       <use x="127.246094" xlink:href="#DejaVuSans-48"/>
      </g>
     </g>
    </g>
    <g id="xtick_3">
     <g id="line2d_3">
      <g>
       <use style="stroke:#000000;stroke-width:0.8;" x="217.721936" xlink:href="#m52ef479feb" y="307.584"/>
      </g>
     </g>
     <g id="text_3">
      <!-- 200 -->
      <defs>
       <path d="M 19.1875 8.296875 
L 53.609375 8.296875 
L 53.609375 0 
L 7.328125 0 
L 7.328125 8.296875 
Q 12.9375 14.109375 22.625 23.890625 
Q 32.328125 33.6875 34.8125 36.53125 
Q 39.546875 41.84375 41.421875 45.53125 
Q 43.3125 49.21875 43.3125 52.78125 
Q 43.3125 58.59375 39.234375 62.25 
Q 35.15625 65.921875 28.609375 65.921875 
Q 23.96875 65.921875 18.8125 64.3125 
Q 13.671875 62.703125 7.8125 59.421875 
L 7.8125 69.390625 
Q 13.765625 71.78125 18.9375 73 
Q 24.125 74.21875 28.421875 74.21875 
Q 39.75 74.21875 46.484375 68.546875 
Q 53.21875 62.890625 53.21875 53.421875 
Q 53.21875 48.921875 51.53125 44.890625 
Q 49.859375 40.875 45.40625 35.40625 
Q 44.1875 33.984375 37.640625 27.21875 
Q 31.109375 20.453125 19.1875 8.296875 
z
" id="DejaVuSans-50"/>
      </defs>
      <g transform="translate(208.178186 322.182437)scale(0.1 -0.1)">
       <use xlink:href="#DejaVuSans-50"/>
       <use x="63.623047" xlink:href="#DejaVuSans-48"/>
       <use x="127.246094" xlink:href="#DejaVuSans-48"/>
      </g>
     </g>
    </g>
    <g id="xtick_4">
     <g id="line2d_4">
      <g>
       <use style="stroke:#000000;stroke-width:0.8;" x="290.02807" xlink:href="#m52ef479feb" y="307.584"/>
      </g>
     </g>
     <g id="text_4">
      <!-- 300 -->
      <defs>
       <path d="M 40.578125 39.3125 
Q 47.65625 37.796875 51.625 33 
Q 55.609375 28.21875 55.609375 21.1875 
Q 55.609375 10.40625 48.1875 4.484375 
Q 40.765625 -1.421875 27.09375 -1.421875 
Q 22.515625 -1.421875 17.65625 -0.515625 
Q 12.796875 0.390625 7.625 2.203125 
L 7.625 11.71875 
Q 11.71875 9.328125 16.59375 8.109375 
Q 21.484375 6.890625 26.8125 6.890625 
Q 36.078125 6.890625 40.9375 10.546875 
Q 45.796875 14.203125 45.796875 21.1875 
Q 45.796875 27.640625 41.28125 31.265625 
Q 36.765625 34.90625 28.71875 34.90625 
L 20.21875 34.90625 
L 20.21875 43.015625 
L 29.109375 43.015625 
Q 36.375 43.015625 40.234375 45.921875 
Q 44.09375 48.828125 44.09375 54.296875 
Q 44.09375 59.90625 40.109375 62.90625 
Q 36.140625 65.921875 28.71875 65.921875 
Q 24.65625 65.921875 20.015625 65.03125 
Q 15.375 64.15625 9.8125 62.3125 
L 9.8125 71.09375 
Q 15.4375 72.65625 20.34375 73.4375 
Q 25.25 74.21875 29.59375 74.21875 
Q 40.828125 74.21875 47.359375 69.109375 
Q 53.90625 64.015625 53.90625 55.328125 
Q 53.90625 49.265625 50.4375 45.09375 
Q 46.96875 40.921875 40.578125 39.3125 
z
" id="DejaVuSans-51"/>
      </defs>
      <g transform="translate(280.48432 322.182437)scale(0.1 -0.1)">
       <use xlink:href="#DejaVuSans-51"/>
       <use x="63.623047" xlink:href="#DejaVuSans-48"/>
       <use x="127.246094" xlink:href="#DejaVuSans-48"/>
      </g>
     </g>
    </g>
    <g id="xtick_5">
     <g id="line2d_5">
      <g>
       <use style="stroke:#000000;stroke-width:0.8;" x="362.334205" xlink:href="#m52ef479feb" y="307.584"/>
      </g>
     </g>
     <g id="text_5">
      <!-- 400 -->
      <defs>
       <path d="M 37.796875 64.3125 
L 12.890625 25.390625 
L 37.796875 25.390625 
z
M 35.203125 72.90625 
L 47.609375 72.90625 
L 47.609375 25.390625 
L 58.015625 25.390625 
L 58.015625 17.1875 
L 47.609375 17.1875 
L 47.609375 0 
L 37.796875 0 
L 37.796875 17.1875 
L 4.890625 17.1875 
L 4.890625 26.703125 
z
" id="DejaVuSans-52"/>
      </defs>
      <g transform="translate(352.790455 322.182437)scale(0.1 -0.1)">
       <use xlink:href="#DejaVuSans-52"/>
       <use x="63.623047" xlink:href="#DejaVuSans-48"/>
       <use x="127.246094" xlink:href="#DejaVuSans-48"/>
      </g>
     </g>
    </g>
   </g>
   <g id="matplotlib.axis_2">
    <g id="ytick_1">
     <g id="line2d_6">
      <defs>
       <path d="M 0 0 
L -3.5 0 
" id="m96eb54877b" style="stroke:#000000;stroke-width:0.8;"/>
      </defs>
      <g>
       <use style="stroke:#000000;stroke-width:0.8;" x="57.6" xlink:href="#m96eb54877b" y="279.7632"/>
      </g>
     </g>
     <g id="text_6">
      <!-- 100 -->
      <g transform="translate(31.5125 283.562419)scale(0.1 -0.1)">
       <use xlink:href="#DejaVuSans-49"/>
       <use x="63.623047" xlink:href="#DejaVuSans-48"/>
       <use x="127.246094" xlink:href="#DejaVuSans-48"/>
      </g>
     </g>
    </g>
    <g id="ytick_2">
     <g id="line2d_7">
      <g>
       <use style="stroke:#000000;stroke-width:0.8;" x="57.6" xlink:href="#m96eb54877b" y="239.4432"/>
      </g>
     </g>
     <g id="text_7">
      <!-- 200 -->
      <g transform="translate(31.5125 243.242419)scale(0.1 -0.1)">
       <use xlink:href="#DejaVuSans-50"/>
       <use x="63.623047" xlink:href="#DejaVuSans-48"/>
       <use x="127.246094" xlink:href="#DejaVuSans-48"/>
      </g>
     </g>
    </g>
    <g id="ytick_3">
     <g id="line2d_8">
      <g>
       <use style="stroke:#000000;stroke-width:0.8;" x="57.6" xlink:href="#m96eb54877b" y="199.1232"/>
      </g>
     </g>
     <g id="text_8">
      <!-- 300 -->
      <g transform="translate(31.5125 202.922419)scale(0.1 -0.1)">
       <use xlink:href="#DejaVuSans-51"/>
       <use x="63.623047" xlink:href="#DejaVuSans-48"/>
       <use x="127.246094" xlink:href="#DejaVuSans-48"/>
      </g>
     </g>
    </g>
    <g id="ytick_4">
     <g id="line2d_9">
      <g>
       <use style="stroke:#000000;stroke-width:0.8;" x="57.6" xlink:href="#m96eb54877b" y="158.8032"/>
      </g>
     </g>
     <g id="text_9">
      <!-- 400 -->
      <g transform="translate(31.5125 162.602419)scale(0.1 -0.1)">
       <use xlink:href="#DejaVuSans-52"/>
       <use x="63.623047" xlink:href="#DejaVuSans-48"/>
       <use x="127.246094" xlink:href="#DejaVuSans-48"/>
      </g>
     </g>
    </g>
    <g id="ytick_5">
     <g id="line2d_10">
      <g>
       <use style="stroke:#000000;stroke-width:0.8;" x="57.6" xlink:href="#m96eb54877b" y="118.4832"/>
      </g>
     </g>
     <g id="text_10">
      <!-- 500 -->
      <defs>
       <path d="M 10.796875 72.90625 
L 49.515625 72.90625 
L 49.515625 64.59375 
L 19.828125 64.59375 
L 19.828125 46.734375 
Q 21.96875 47.46875 24.109375 47.828125 
Q 26.265625 48.1875 28.421875 48.1875 
Q 40.625 48.1875 47.75 41.5 
Q 54.890625 34.8125 54.890625 23.390625 
Q 54.890625 11.625 47.5625 5.09375 
Q 40.234375 -1.421875 26.90625 -1.421875 
Q 22.3125 -1.421875 17.546875 -0.640625 
Q 12.796875 0.140625 7.71875 1.703125 
L 7.71875 11.625 
Q 12.109375 9.234375 16.796875 8.0625 
Q 21.484375 6.890625 26.703125 6.890625 
Q 35.15625 6.890625 40.078125 11.328125 
Q 45.015625 15.765625 45.015625 23.390625 
Q 45.015625 31 40.078125 35.4375 
Q 35.15625 39.890625 26.703125 39.890625 
Q 22.75 39.890625 18.8125 39.015625 
Q 14.890625 38.140625 10.796875 36.28125 
z
" id="DejaVuSans-53"/>
      </defs>
      <g transform="translate(31.5125 122.282419)scale(0.1 -0.1)">
       <use xlink:href="#DejaVuSans-53"/>
       <use x="63.623047" xlink:href="#DejaVuSans-48"/>
       <use x="127.246094" xlink:href="#DejaVuSans-48"/>
      </g>
     </g>
    </g>
    <g id="ytick_6">
     <g id="line2d_11">
      <g>
       <use style="stroke:#000000;stroke-width:0.8;" x="57.6" xlink:href="#m96eb54877b" y="78.1632"/>
      </g>
     </g>
     <g id="text_11">
      <!-- 600 -->
      <defs>
       <path d="M 33.015625 40.375 
Q 26.375 40.375 22.484375 35.828125 
Q 18.609375 31.296875 18.609375 23.390625 
Q 18.609375 15.53125 22.484375 10.953125 
Q 26.375 6.390625 33.015625 6.390625 
Q 39.65625 6.390625 43.53125 10.953125 
Q 47.40625 15.53125 47.40625 23.390625 
Q 47.40625 31.296875 43.53125 35.828125 
Q 39.65625 40.375 33.015625 40.375 
z
M 52.59375 71.296875 
L 52.59375 62.3125 
Q 48.875 64.0625 45.09375 64.984375 
Q 41.3125 65.921875 37.59375 65.921875 
Q 27.828125 65.921875 22.671875 59.328125 
Q 17.53125 52.734375 16.796875 39.40625 
Q 19.671875 43.65625 24.015625 45.921875 
Q 28.375 48.1875 33.59375 48.1875 
Q 44.578125 48.1875 50.953125 41.515625 
Q 57.328125 34.859375 57.328125 23.390625 
Q 57.328125 12.15625 50.6875 5.359375 
Q 44.046875 -1.421875 33.015625 -1.421875 
Q 20.359375 -1.421875 13.671875 8.265625 
Q 6.984375 17.96875 6.984375 36.375 
Q 6.984375 53.65625 15.1875 63.9375 
Q 23.390625 74.21875 37.203125 74.21875 
Q 40.921875 74.21875 44.703125 73.484375 
Q 48.484375 72.75 52.59375 71.296875 
z
" id="DejaVuSans-54"/>
      </defs>
      <g transform="translate(31.5125 81.962419)scale(0.1 -0.1)">
       <use xlink:href="#DejaVuSans-54"/>
       <use x="63.623047" xlink:href="#DejaVuSans-48"/>
       <use x="127.246094" xlink:href="#DejaVuSans-48"/>
      </g>
     </g>
    </g>
   </g>
   <g id="line2d_12">
    <path clip-path="url(#pb27a1cbb6e)" d="M 363.057267 209.2032 
L 363.780328 209.6064 
L 364.503389 209.2032 
L 365.226451 209.2032 
L 365.949512 210.0096 
L 366.672573 209.2032 
L 367.395635 209.2032 
L 368.841757 210.0096 
L 369.564819 208.8 
L 371.010941 209.6064 
L 371.734003 209.2032 
L 372.457064 209.6064 
L 373.180126 209.2032 
L 373.903187 210.0096 
L 374.626248 210.0096 
L 375.34931 208.8 
L 376.072371 208.8 
L 376.795432 209.6064 
L 377.518494 209.6064 
L 378.964616 208.8 
L 379.687678 209.2032 
L 381.1338 209.2032 
L 381.856862 208.3968 
L 382.579923 209.2032 
L 383.302984 209.2032 
L 384.026046 208.8 
L 384.749107 209.2032 
L 385.472168 208.8 
L 386.19523 209.6064 
L 386.918291 209.2032 
L 387.641353 209.6064 
L 388.364414 209.2032 
L 389.087475 210.0096 
L 389.810537 208.8 
L 390.533598 209.6064 
L 391.256659 209.2032 
L 391.979721 210.0096 
L 393.425843 209.2032 
L 394.148905 209.2032 
L 394.871966 210.4128 
L 395.595027 208.3968 
L 396.318089 207.9936 
L 397.04115 209.6064 
L 397.764211 209.6064 
L 398.487273 210.0096 
L 73.832727 295.488 
L 74.555789 281.7792 
L 75.27885 260.8128 
L 76.001911 229.7664 
L 76.724973 175.7376 
L 78.171095 53.568 
L 78.894157 105.984 
L 79.617218 122.9184 
L 80.340279 144.6912 
L 95.524568 196.3008 
L 96.247629 197.5104 
L 96.97069 197.5104 
L 99.139874 198.72 
L 99.862936 199.9296 
L 101.309059 199.9296 
L 102.03212 200.3328 
L 102.755181 199.5264 
L 103.478243 201.1392 
L 104.201304 199.9296 
L 104.924365 201.1392 
L 105.647427 200.3328 
L 106.370488 201.5424 
L 107.816611 199.9296 
L 108.539672 200.3328 
L 109.262733 201.1392 
L 109.985795 201.1392 
L 110.708856 202.3488 
L 111.431917 200.736 
L 112.154979 200.736 
L 112.87804 201.1392 
L 113.601101 201.9456 
L 115.770285 203.1552 
L 116.493347 202.3488 
L 117.93947 203.1552 
L 118.662531 202.752 
L 119.385592 203.5584 
L 120.108654 203.5584 
L 120.831715 203.1552 
L 121.554776 203.1552 
L 122.277838 204.3648 
L 123.72396 203.5584 
L 125.170083 204.3648 
L 125.893144 203.5584 
L 126.616206 204.768 
L 127.339267 204.3648 
L 128.062328 204.3648 
L 128.78539 204.768 
L 129.508451 204.3648 
L 130.231512 203.5584 
L 130.954574 203.5584 
L 132.400696 204.3648 
L 133.846819 204.3648 
L 134.569881 204.768 
L 136.016003 204.768 
L 136.739065 203.9616 
L 137.462126 204.768 
L 138.185187 205.1712 
L 139.63131 205.1712 
L 140.354371 204.3648 
L 141.077433 204.3648 
L 141.800494 204.768 
L 142.523555 205.5744 
L 143.246617 205.9776 
L 143.969678 204.768 
L 144.692739 205.5744 
L 145.415801 204.768 
L 146.138862 205.5744 
L 147.584985 205.5744 
L 148.308046 205.9776 
L 149.031108 205.9776 
L 149.754169 205.5744 
L 150.47723 205.9776 
L 151.200292 205.9776 
L 151.923353 205.5744 
L 152.646414 205.9776 
L 155.53866 205.9776 
L 156.261721 206.784 
L 156.984782 205.5744 
L 157.707844 206.3808 
L 158.430905 205.5744 
L 159.153966 205.5744 
L 159.877028 205.9776 
L 160.600089 205.5744 
L 161.32315 205.9776 
L 162.046212 205.1712 
L 162.769273 205.9776 
L 163.492334 205.1712 
L 164.215396 205.9776 
L 164.938457 205.9776 
L 165.661519 205.5744 
L 166.38458 206.3808 
L 167.107641 205.9776 
L 167.830703 205.9776 
L 168.553764 206.3808 
L 169.276825 206.3808 
L 169.999887 206.784 
L 170.722948 205.9776 
L 171.446009 206.3808 
L 172.169071 205.9776 
L 172.892132 207.1872 
L 173.615193 206.3808 
L 174.338255 206.3808 
L 175.061316 205.9776 
L 175.784377 206.3808 
L 176.507439 205.9776 
L 177.2305 205.9776 
L 177.953561 206.3808 
L 178.676623 206.3808 
L 179.399684 205.5744 
L 180.845807 207.1872 
L 181.568868 207.1872 
L 182.29193 207.5904 
L 183.014991 207.1872 
L 183.738052 207.5904 
L 184.461114 207.1872 
L 185.184175 207.9936 
L 185.907236 207.5904 
L 186.630298 206.784 
L 187.353359 206.784 
L 188.07642 207.1872 
L 188.799482 206.784 
L 190.968666 206.784 
L 191.691727 207.1872 
L 192.414788 207.1872 
L 193.860911 207.9936 
L 194.583972 207.9936 
L 195.307034 207.1872 
L 196.030095 207.1872 
L 196.753157 208.3968 
L 197.476218 207.5904 
L 198.199279 207.9936 
L 198.922341 207.9936 
L 199.645402 207.5904 
L 200.368463 208.3968 
L 201.814586 208.3968 
L 202.537647 207.1872 
L 203.98377 209.6064 
L 204.706831 207.9936 
L 205.429893 208.3968 
L 206.152954 208.3968 
L 206.876015 207.9936 
L 207.599077 208.3968 
L 208.322138 207.5904 
L 209.045199 207.9936 
L 209.768261 206.784 
L 210.491322 207.1872 
L 211.214383 208.3968 
L 212.660506 206.784 
L 213.383568 207.5904 
L 214.106629 207.1872 
L 214.82969 208.8 
L 215.552752 208.3968 
L 216.998874 208.3968 
L 217.721936 209.2032 
L 218.444997 208.8 
L 219.168058 208.8 
L 219.89112 207.5904 
L 220.614181 208.8 
L 221.337242 208.8 
L 222.060304 209.2032 
L 223.506426 208.3968 
L 224.229488 208.3968 
L 224.952549 209.2032 
L 225.67561 209.6064 
L 226.398672 207.9936 
L 227.121733 207.5904 
L 227.844794 208.3968 
L 228.567856 207.1872 
L 229.290917 208.8 
L 230.013979 206.784 
L 230.73704 207.9936 
L 231.460101 207.9936 
L 232.183163 207.5904 
L 232.906224 208.3968 
L 233.629285 208.3968 
L 234.352347 207.9936 
L 235.075408 208.3968 
L 237.967653 208.3968 
L 238.690715 207.9936 
L 239.413776 207.9936 
L 240.136837 208.3968 
L 242.306021 208.3968 
L 243.029083 207.9936 
L 243.752144 208.8 
L 244.475206 208.3968 
L 245.921328 208.3968 
L 246.64439 209.2032 
L 248.090512 209.2032 
L 248.813574 208.8 
L 250.259696 209.6064 
L 250.982758 208.3968 
L 252.42888 208.3968 
L 253.151942 207.9936 
L 253.875003 208.3968 
L 81.063341 155.5776 
L 81.786402 168.48 
L 82.509463 174.1248 
L 83.232525 177.7536 
L 83.955586 182.1888 
L 84.678647 184.608 
L 85.401709 186.624 
L 86.12477 187.4304 
L 86.847832 189.0432 
L 87.570893 190.2528 
L 88.293954 190.2528 
L 89.017016 191.4624 
L 89.740077 191.8656 
L 90.463138 193.0752 
L 91.1862 193.8816 
L 91.909261 194.2848 
L 92.632322 193.8816 
L 93.355384 194.2848 
L 94.078445 195.8976 
L 94.801506 196.704 
L 254.598064 208.8 
L 255.321126 209.2032 
L 256.767248 208.3968 
L 257.49031 208.3968 
L 258.213371 209.2032 
L 258.936432 208.8 
L 259.659494 209.2032 
L 260.382555 208.8 
L 261.105617 209.2032 
L 263.274801 209.2032 
L 263.997862 210.0096 
L 264.720923 209.6064 
L 265.443985 209.6064 
L 266.167046 209.2032 
L 266.890107 209.2032 
L 267.613169 208.8 
L 268.33623 209.6064 
L 269.059291 208.8 
L 269.782353 208.3968 
L 271.228475 209.2032 
L 271.951537 208.8 
L 272.674598 209.6064 
L 273.397659 210.0096 
L 274.120721 209.2032 
L 274.843782 208.8 
L 275.566843 209.6064 
L 276.289905 210.0096 
L 277.012966 209.2032 
L 277.736028 209.2032 
L 278.459089 208.8 
L 279.905212 209.6064 
L 280.628273 208.8 
L 281.351334 208.8 
L 282.074396 210.0096 
L 282.797457 209.6064 
L 283.520518 208.8 
L 284.24358 208.8 
L 284.966641 209.2032 
L 285.689702 208.8 
L 286.412764 209.6064 
L 290.02807 209.6064 
L 290.751132 208.3968 
L 291.474193 209.2032 
L 292.920316 210.0096 
L 293.643377 209.2032 
L 294.366439 210.0096 
L 295.0895 209.2032 
L 295.812561 209.6064 
L 296.535623 209.6064 
L 297.258684 208.8 
L 297.981745 209.6064 
L 298.704807 209.6064 
L 300.150929 210.4128 
L 300.873991 209.6064 
L 301.597052 209.2032 
L 302.320113 209.2032 
L 303.043175 208.3968 
L 303.766236 209.2032 
L 304.489297 208.8 
L 305.212359 209.6064 
L 305.93542 209.6064 
L 306.658481 209.2032 
L 307.381543 210.0096 
L 308.104604 210.0096 
L 308.827666 209.2032 
L 309.550727 210.0096 
L 310.273788 210.4128 
L 310.99685 210.0096 
L 311.719911 210.4128 
L 312.442972 210.0096 
L 313.166034 210.4128 
L 313.889095 210.4128 
L 314.612156 209.6064 
L 315.335218 209.6064 
L 316.058279 210.0096 
L 316.78134 209.6064 
L 317.504402 209.6064 
L 318.227463 210.4128 
L 319.673586 209.6064 
L 320.396647 209.6064 
L 321.119708 209.2032 
L 321.84277 209.6064 
L 322.565831 209.2032 
L 323.288892 209.6064 
L 326.181138 209.6064 
L 326.904199 209.2032 
L 327.627261 210.0096 
L 329.073383 210.0096 
L 329.796445 209.6064 
L 330.519506 210.0096 
L 331.242567 209.6064 
L 332.68869 209.6064 
L 334.134813 210.4128 
L 334.857874 209.6064 
L 335.580935 209.6064 
L 336.303997 210.0096 
L 337.027058 210.0096 
L 337.750119 209.2032 
L 338.473181 210.0096 
L 339.919304 209.2032 
L 340.642365 209.2032 
L 341.365426 209.6064 
L 342.088488 209.6064 
L 342.811549 208.8 
L 343.53461 209.6064 
L 344.257672 208.8 
L 344.980733 208.8 
L 345.703794 208.3968 
L 346.426856 208.8 
L 347.149917 209.6064 
L 347.872978 208.8 
L 349.319101 210.4128 
L 350.042162 208.8 
L 350.765224 209.6064 
L 352.211346 209.6064 
L 352.934408 208.8 
L 353.657469 209.6064 
L 354.38053 209.6064 
L 355.103592 209.2032 
L 356.549715 210.0096 
L 357.272776 209.6064 
L 357.995837 208.8 
L 358.718899 209.2032 
L 359.44196 208.8 
L 360.165021 210.0096 
L 360.888083 209.2032 
L 361.611144 209.6064 
L 362.334205 209.6064 
L 362.334205 209.6064 
" style="fill:none;stroke:#1f77b4;stroke-linecap:square;stroke-width:1.5;"/>
   </g>
   <g id="patch_3">
    <path d="M 57.6 307.584 
L 57.6 41.472 
" style="fill:none;stroke:#000000;stroke-linecap:square;stroke-linejoin:miter;stroke-width:0.8;"/>
   </g>
   <g id="patch_4">
    <path d="M 414.72 307.584 
L 414.72 41.472 
" style="fill:none;stroke:#000000;stroke-linecap:square;stroke-linejoin:miter;stroke-width:0.8;"/>
   </g>
   <g id="patch_5">
    <path d="M 57.6 307.584 
L 414.72 307.584 
" style="fill:none;stroke:#000000;stroke-linecap:square;stroke-linejoin:miter;stroke-width:0.8;"/>
   </g>
   <g id="patch_6">
    <path d="M 57.6 41.472 
L 414.72 41.472 
" style="fill:none;stroke:#000000;stroke-linecap:square;stroke-linejoin:miter;stroke-width:0.8;"/>
   </g>
   <g id="text_12">
    <!-- n_count -->
    <defs>
     <path d="M 54.890625 33.015625 
L 54.890625 0 
L 45.90625 0 
L 45.90625 32.71875 
Q 45.90625 40.484375 42.875 44.328125 
Q 39.84375 48.1875 33.796875 48.1875 
Q 26.515625 48.1875 22.3125 43.546875 
Q 18.109375 38.921875 18.109375 30.90625 
L 18.109375 0 
L 9.078125 0 
L 9.078125 54.6875 
L 18.109375 54.6875 
L 18.109375 46.1875 
Q 21.34375 51.125 25.703125 53.5625 
Q 30.078125 56 35.796875 56 
Q 45.21875 56 50.046875 50.171875 
Q 54.890625 44.34375 54.890625 33.015625 
z
" id="DejaVuSans-110"/>
     <path d="M 50.984375 -16.609375 
L 50.984375 -23.578125 
L -0.984375 -23.578125 
L -0.984375 -16.609375 
z
" id="DejaVuSans-95"/>
     <path d="M 48.78125 52.59375 
L 48.78125 44.1875 
Q 44.96875 46.296875 41.140625 47.34375 
Q 37.3125 48.390625 33.40625 48.390625 
Q 24.65625 48.390625 19.8125 42.84375 
Q 14.984375 37.3125 14.984375 27.296875 
Q 14.984375 17.28125 19.8125 11.734375 
Q 24.65625 6.203125 33.40625 6.203125 
Q 37.3125 6.203125 41.140625 7.25 
Q 44.96875 8.296875 48.78125 10.40625 
L 48.78125 2.09375 
Q 45.015625 0.34375 40.984375 -0.53125 
Q 36.96875 -1.421875 32.421875 -1.421875 
Q 20.0625 -1.421875 12.78125 6.34375 
Q 5.515625 14.109375 5.515625 27.296875 
Q 5.515625 40.671875 12.859375 48.328125 
Q 20.21875 56 33.015625 56 
Q 37.15625 56 41.109375 55.140625 
Q 45.0625 54.296875 48.78125 52.59375 
z
" id="DejaVuSans-99"/>
     <path d="M 30.609375 48.390625 
Q 23.390625 48.390625 19.1875 42.75 
Q 14.984375 37.109375 14.984375 27.296875 
Q 14.984375 17.484375 19.15625 11.84375 
Q 23.34375 6.203125 30.609375 6.203125 
Q 37.796875 6.203125 41.984375 11.859375 
Q 46.1875 17.53125 46.1875 27.296875 
Q 46.1875 37.015625 41.984375 42.703125 
Q 37.796875 48.390625 30.609375 48.390625 
z
M 30.609375 56 
Q 42.328125 56 49.015625 48.375 
Q 55.71875 40.765625 55.71875 27.296875 
Q 55.71875 13.875 49.015625 6.21875 
Q 42.328125 -1.421875 30.609375 -1.421875 
Q 18.84375 -1.421875 12.171875 6.21875 
Q 5.515625 13.875 5.515625 27.296875 
Q 5.515625 40.765625 12.171875 48.375 
Q 18.84375 56 30.609375 56 
z
" id="DejaVuSans-111"/>
     <path d="M 8.5 21.578125 
L 8.5 54.6875 
L 17.484375 54.6875 
L 17.484375 21.921875 
Q 17.484375 14.15625 20.5 10.265625 
Q 23.53125 6.390625 29.59375 6.390625 
Q 36.859375 6.390625 41.078125 11.03125 
Q 45.3125 15.671875 45.3125 23.6875 
L 45.3125 54.6875 
L 54.296875 54.6875 
L 54.296875 0 
L 45.3125 0 
L 45.3125 8.40625 
Q 42.046875 3.421875 37.71875 1 
Q 33.40625 -1.421875 27.6875 -1.421875 
Q 18.265625 -1.421875 13.375 4.4375 
Q 8.5 10.296875 8.5 21.578125 
z
M 31.109375 56 
z
" id="DejaVuSans-117"/>
     <path d="M 18.3125 70.21875 
L 18.3125 54.6875 
L 36.8125 54.6875 
L 36.8125 47.703125 
L 18.3125 47.703125 
L 18.3125 18.015625 
Q 18.3125 11.328125 20.140625 9.421875 
Q 21.96875 7.515625 27.59375 7.515625 
L 36.8125 7.515625 
L 36.8125 0 
L 27.59375 0 
Q 17.1875 0 13.234375 3.875 
Q 9.28125 7.765625 9.28125 18.015625 
L 9.28125 47.703125 
L 2.6875 47.703125 
L 2.6875 54.6875 
L 9.28125 54.6875 
L 9.28125 70.21875 
z
" id="DejaVuSans-116"/>
    </defs>
    <g transform="translate(212.43 35.472)scale(0.12 -0.12)">
     <use xlink:href="#DejaVuSans-110"/>
     <use x="63.378906" xlink:href="#DejaVuSans-95"/>
     <use x="113.378906" xlink:href="#DejaVuSans-99"/>
     <use x="168.359375" xlink:href="#DejaVuSans-111"/>
     <use x="229.541016" xlink:href="#DejaVuSans-117"/>
     <use x="292.919922" xlink:href="#DejaVuSans-110"/>
     <use x="356.298828" xlink:href="#DejaVuSans-116"/>
    </g>
   </g>
   <g id="legend_1">
    <g id="patch_7">
     <path d="M 313.954375 64.150125 
L 407.72 64.150125 
Q 409.72 64.150125 409.72 62.150125 
L 409.72 48.472 
Q 409.72 46.472 407.72 46.472 
L 313.954375 46.472 
Q 311.954375 46.472 311.954375 48.472 
L 311.954375 62.150125 
Q 311.954375 64.150125 313.954375 64.150125 
z
" style="fill:#ffffff;opacity:0.8;stroke:#cccccc;stroke-linejoin:miter;"/>
    </g>
    <g id="line2d_13">
     <path d="M 315.954375 54.570438 
L 335.954375 54.570438 
" style="fill:none;stroke:#1f77b4;stroke-linecap:square;stroke-width:1.5;"/>
    </g>
    <g id="line2d_14"/>
    <g id="text_13">
     <!-- avg=283.01 -->
     <defs>
      <path d="M 34.28125 27.484375 
Q 23.390625 27.484375 19.1875 25 
Q 14.984375 22.515625 14.984375 16.5 
Q 14.984375 11.71875 18.140625 8.90625 
Q 21.296875 6.109375 26.703125 6.109375 
Q 34.1875 6.109375 38.703125 11.40625 
Q 43.21875 16.703125 43.21875 25.484375 
L 43.21875 27.484375 
z
M 52.203125 31.203125 
L 52.203125 0 
L 43.21875 0 
L 43.21875 8.296875 
Q 40.140625 3.328125 35.546875 0.953125 
Q 30.953125 -1.421875 24.3125 -1.421875 
Q 15.921875 -1.421875 10.953125 3.296875 
Q 6 8.015625 6 15.921875 
Q 6 25.140625 12.171875 29.828125 
Q 18.359375 34.515625 30.609375 34.515625 
L 43.21875 34.515625 
L 43.21875 35.40625 
Q 43.21875 41.609375 39.140625 45 
Q 35.0625 48.390625 27.6875 48.390625 
Q 23 48.390625 18.546875 47.265625 
Q 14.109375 46.140625 10.015625 43.890625 
L 10.015625 52.203125 
Q 14.9375 54.109375 19.578125 55.046875 
Q 24.21875 56 28.609375 56 
Q 40.484375 56 46.34375 49.84375 
Q 52.203125 43.703125 52.203125 31.203125 
z
" id="DejaVuSans-97"/>
      <path d="M 2.984375 54.6875 
L 12.5 54.6875 
L 29.59375 8.796875 
L 46.6875 54.6875 
L 56.203125 54.6875 
L 35.6875 0 
L 23.484375 0 
z
" id="DejaVuSans-118"/>
      <path d="M 45.40625 27.984375 
Q 45.40625 37.75 41.375 43.109375 
Q 37.359375 48.484375 30.078125 48.484375 
Q 22.859375 48.484375 18.828125 43.109375 
Q 14.796875 37.75 14.796875 27.984375 
Q 14.796875 18.265625 18.828125 12.890625 
Q 22.859375 7.515625 30.078125 7.515625 
Q 37.359375 7.515625 41.375 12.890625 
Q 45.40625 18.265625 45.40625 27.984375 
z
M 54.390625 6.78125 
Q 54.390625 -7.171875 48.1875 -13.984375 
Q 42 -20.796875 29.203125 -20.796875 
Q 24.46875 -20.796875 20.265625 -20.09375 
Q 16.0625 -19.390625 12.109375 -17.921875 
L 12.109375 -9.1875 
Q 16.0625 -11.328125 19.921875 -12.34375 
Q 23.78125 -13.375 27.78125 -13.375 
Q 36.625 -13.375 41.015625 -8.765625 
Q 45.40625 -4.15625 45.40625 5.171875 
L 45.40625 9.625 
Q 42.625 4.78125 38.28125 2.390625 
Q 33.9375 0 27.875 0 
Q 17.828125 0 11.671875 7.65625 
Q 5.515625 15.328125 5.515625 27.984375 
Q 5.515625 40.671875 11.671875 48.328125 
Q 17.828125 56 27.875 56 
Q 33.9375 56 38.28125 53.609375 
Q 42.625 51.21875 45.40625 46.390625 
L 45.40625 54.6875 
L 54.390625 54.6875 
z
" id="DejaVuSans-103"/>
      <path d="M 10.59375 45.40625 
L 73.1875 45.40625 
L 73.1875 37.203125 
L 10.59375 37.203125 
z
M 10.59375 25.484375 
L 73.1875 25.484375 
L 73.1875 17.1875 
L 10.59375 17.1875 
z
" id="DejaVuSans-61"/>
      <path d="M 31.78125 34.625 
Q 24.75 34.625 20.71875 30.859375 
Q 16.703125 27.09375 16.703125 20.515625 
Q 16.703125 13.921875 20.71875 10.15625 
Q 24.75 6.390625 31.78125 6.390625 
Q 38.8125 6.390625 42.859375 10.171875 
Q 46.921875 13.96875 46.921875 20.515625 
Q 46.921875 27.09375 42.890625 30.859375 
Q 38.875 34.625 31.78125 34.625 
z
M 21.921875 38.8125 
Q 15.578125 40.375 12.03125 44.71875 
Q 8.5 49.078125 8.5 55.328125 
Q 8.5 64.0625 14.71875 69.140625 
Q 20.953125 74.21875 31.78125 74.21875 
Q 42.671875 74.21875 48.875 69.140625 
Q 55.078125 64.0625 55.078125 55.328125 
Q 55.078125 49.078125 51.53125 44.71875 
Q 48 40.375 41.703125 38.8125 
Q 48.828125 37.15625 52.796875 32.3125 
Q 56.78125 27.484375 56.78125 20.515625 
Q 56.78125 9.90625 50.3125 4.234375 
Q 43.84375 -1.421875 31.78125 -1.421875 
Q 19.734375 -1.421875 13.25 4.234375 
Q 6.78125 9.90625 6.78125 20.515625 
Q 6.78125 27.484375 10.78125 32.3125 
Q 14.796875 37.15625 21.921875 38.8125 
z
M 18.3125 54.390625 
Q 18.3125 48.734375 21.84375 45.5625 
Q 25.390625 42.390625 31.78125 42.390625 
Q 38.140625 42.390625 41.71875 45.5625 
Q 45.3125 48.734375 45.3125 54.390625 
Q 45.3125 60.0625 41.71875 63.234375 
Q 38.140625 66.40625 31.78125 66.40625 
Q 25.390625 66.40625 21.84375 63.234375 
Q 18.3125 60.0625 18.3125 54.390625 
z
" id="DejaVuSans-56"/>
      <path d="M 10.6875 12.40625 
L 21 12.40625 
L 21 0 
L 10.6875 0 
z
" id="DejaVuSans-46"/>
     </defs>
     <g transform="translate(343.954375 58.070438)scale(0.1 -0.1)">
      <use xlink:href="#DejaVuSans-97"/>
      <use x="61.279297" xlink:href="#DejaVuSans-118"/>
      <use x="120.458984" xlink:href="#DejaVuSans-103"/>
      <use x="183.935547" xlink:href="#DejaVuSans-61"/>
      <use x="267.724609" xlink:href="#DejaVuSans-50"/>
      <use x="331.347656" xlink:href="#DejaVuSans-56"/>
      <use x="394.970703" xlink:href="#DejaVuSans-51"/>
      <use x="458.59375" xlink:href="#DejaVuSans-46"/>
      <use x="490.380859" xlink:href="#DejaVuSans-48"/>
      <use x="554.003906" xlink:href="#DejaVuSans-49"/>
     </g>
    </g>
   </g>
  </g>
 </g>
 <defs>
  <clipPath id="pb27a1cbb6e">
   <rect height="266.112" width="357.12" x="57.6" y="41.472"/>
  </clipPath>
 </defs>
</svg>
