<?xml version="1.0" encoding="utf-8" standalone="no"?>
<!DOCTYPE svg PUBLIC "-//W3C//DTD SVG 1.1//EN"
  "http://www.w3.org/Graphics/SVG/1.1/DTD/svg11.dtd">
<!-- Created with matplotlib (https://matplotlib.org/) -->
<svg height="345.6pt" version="1.1" viewBox="0 0 460.8 345.6" width="460.8pt" xmlns="http://www.w3.org/2000/svg" xmlns:xlink="http://www.w3.org/1999/xlink">
 <defs>
  <style type="text/css">
*{stroke-linecap:butt;stroke-linejoin:round;}
  </style>
 </defs>
 <g id="figure_1">
  <g id="patch_1">
   <path d="M 0 345.6 
L 460.8 345.6 
L 460.8 0 
L 0 0 
z
" style="fill:#ffffff;"/>
  </g>
  <g id="axes_1">
   <g id="patch_2">
    <path d="M 57.6 307.584 
L 414.72 307.584 
L 414.72 41.472 
L 57.6 41.472 
z
" style="fill:#ffffff;"/>
   </g>
   <g id="matplotlib.axis_1">
    <g id="xtick_1">
     <g id="line2d_1">
      <defs>
       <path d="M 0 0 
L 0 3.5 
" id="m443f0469da" style="stroke:#000000;stroke-width:0.8;"/>
      </defs>
      <g>
       <use style="stroke:#000000;stroke-width:0.8;" x="73.507748" xlink:href="#m443f0469da" y="307.584"/>
      </g>
     </g>
     <g id="text_1">
      <!-- 0 -->
      <defs>
       <path d="M 31.78125 66.40625 
Q 24.171875 66.40625 20.328125 58.90625 
Q 16.5 51.421875 16.5 36.375 
Q 16.5 21.390625 20.328125 13.890625 
Q 24.171875 6.390625 31.78125 6.390625 
Q 39.453125 6.390625 43.28125 13.890625 
Q 47.125 21.390625 47.125 36.375 
Q 47.125 51.421875 43.28125 58.90625 
Q 39.453125 66.40625 31.78125 66.40625 
z
M 31.78125 74.21875 
Q 44.046875 74.21875 50.515625 64.515625 
Q 56.984375 54.828125 56.984375 36.375 
Q 56.984375 17.96875 50.515625 8.265625 
Q 44.046875 -1.421875 31.78125 -1.421875 
Q 19.53125 -1.421875 13.0625 8.265625 
Q 6.59375 17.96875 6.59375 36.375 
Q 6.59375 54.828125 13.0625 64.515625 
Q 19.53125 74.21875 31.78125 74.21875 
z
" id="DejaVuSans-48"/>
      </defs>
      <g transform="translate(70.326498 322.182437)scale(0.1 -0.1)">
       <use xlink:href="#DejaVuSans-48"/>
      </g>
     </g>
    </g>
    <g id="xtick_2">
     <g id="line2d_2">
      <g>
       <use style="stroke:#000000;stroke-width:0.8;" x="138.503653" xlink:href="#m443f0469da" y="307.584"/>
      </g>
     </g>
     <g id="text_2">
      <!-- 200 -->
      <defs>
       <path d="M 19.1875 8.296875 
L 53.609375 8.296875 
L 53.609375 0 
L 7.328125 0 
L 7.328125 8.296875 
Q 12.9375 14.109375 22.625 23.890625 
Q 32.328125 33.6875 34.8125 36.53125 
Q 39.546875 41.84375 41.421875 45.53125 
Q 43.3125 49.21875 43.3125 52.78125 
Q 43.3125 58.59375 39.234375 62.25 
Q 35.15625 65.921875 28.609375 65.921875 
Q 23.96875 65.921875 18.8125 64.3125 
Q 13.671875 62.703125 7.8125 59.421875 
L 7.8125 69.390625 
Q 13.765625 71.78125 18.9375 73 
Q 24.125 74.21875 28.421875 74.21875 
Q 39.75 74.21875 46.484375 68.546875 
Q 53.21875 62.890625 53.21875 53.421875 
Q 53.21875 48.921875 51.53125 44.890625 
Q 49.859375 40.875 45.40625 35.40625 
Q 44.1875 33.984375 37.640625 27.21875 
Q 31.109375 20.453125 19.1875 8.296875 
z
" id="DejaVuSans-50"/>
      </defs>
      <g transform="translate(128.959903 322.182437)scale(0.1 -0.1)">
       <use xlink:href="#DejaVuSans-50"/>
       <use x="63.623047" xlink:href="#DejaVuSans-48"/>
       <use x="127.246094" xlink:href="#DejaVuSans-48"/>
      </g>
     </g>
    </g>
    <g id="xtick_3">
     <g id="line2d_3">
      <g>
       <use style="stroke:#000000;stroke-width:0.8;" x="203.499558" xlink:href="#m443f0469da" y="307.584"/>
      </g>
     </g>
     <g id="text_3">
      <!-- 400 -->
      <defs>
       <path d="M 37.796875 64.3125 
L 12.890625 25.390625 
L 37.796875 25.390625 
z
M 35.203125 72.90625 
L 47.609375 72.90625 
L 47.609375 25.390625 
L 58.015625 25.390625 
L 58.015625 17.1875 
L 47.609375 17.1875 
L 47.609375 0 
L 37.796875 0 
L 37.796875 17.1875 
L 4.890625 17.1875 
L 4.890625 26.703125 
z
" id="DejaVuSans-52"/>
      </defs>
      <g transform="translate(193.955808 322.182437)scale(0.1 -0.1)">
       <use xlink:href="#DejaVuSans-52"/>
       <use x="63.623047" xlink:href="#DejaVuSans-48"/>
       <use x="127.246094" xlink:href="#DejaVuSans-48"/>
      </g>
     </g>
    </g>
    <g id="xtick_4">
     <g id="line2d_4">
      <g>
       <use style="stroke:#000000;stroke-width:0.8;" x="268.495463" xlink:href="#m443f0469da" y="307.584"/>
      </g>
     </g>
     <g id="text_4">
      <!-- 600 -->
      <defs>
       <path d="M 33.015625 40.375 
Q 26.375 40.375 22.484375 35.828125 
Q 18.609375 31.296875 18.609375 23.390625 
Q 18.609375 15.53125 22.484375 10.953125 
Q 26.375 6.390625 33.015625 6.390625 
Q 39.65625 6.390625 43.53125 10.953125 
Q 47.40625 15.53125 47.40625 23.390625 
Q 47.40625 31.296875 43.53125 35.828125 
Q 39.65625 40.375 33.015625 40.375 
z
M 52.59375 71.296875 
L 52.59375 62.3125 
Q 48.875 64.0625 45.09375 64.984375 
Q 41.3125 65.921875 37.59375 65.921875 
Q 27.828125 65.921875 22.671875 59.328125 
Q 17.53125 52.734375 16.796875 39.40625 
Q 19.671875 43.65625 24.015625 45.921875 
Q 28.375 48.1875 33.59375 48.1875 
Q 44.578125 48.1875 50.953125 41.515625 
Q 57.328125 34.859375 57.328125 23.390625 
Q 57.328125 12.15625 50.6875 5.359375 
Q 44.046875 -1.421875 33.015625 -1.421875 
Q 20.359375 -1.421875 13.671875 8.265625 
Q 6.984375 17.96875 6.984375 36.375 
Q 6.984375 53.65625 15.1875 63.9375 
Q 23.390625 74.21875 37.203125 74.21875 
Q 40.921875 74.21875 44.703125 73.484375 
Q 48.484375 72.75 52.59375 71.296875 
z
" id="DejaVuSans-54"/>
      </defs>
      <g transform="translate(258.951713 322.182437)scale(0.1 -0.1)">
       <use xlink:href="#DejaVuSans-54"/>
       <use x="63.623047" xlink:href="#DejaVuSans-48"/>
       <use x="127.246094" xlink:href="#DejaVuSans-48"/>
      </g>
     </g>
    </g>
    <g id="xtick_5">
     <g id="line2d_5">
      <g>
       <use style="stroke:#000000;stroke-width:0.8;" x="333.491368" xlink:href="#m443f0469da" y="307.584"/>
      </g>
     </g>
     <g id="text_5">
      <!-- 800 -->
      <defs>
       <path d="M 31.78125 34.625 
Q 24.75 34.625 20.71875 30.859375 
Q 16.703125 27.09375 16.703125 20.515625 
Q 16.703125 13.921875 20.71875 10.15625 
Q 24.75 6.390625 31.78125 6.390625 
Q 38.8125 6.390625 42.859375 10.171875 
Q 46.921875 13.96875 46.921875 20.515625 
Q 46.921875 27.09375 42.890625 30.859375 
Q 38.875 34.625 31.78125 34.625 
z
M 21.921875 38.8125 
Q 15.578125 40.375 12.03125 44.71875 
Q 8.5 49.078125 8.5 55.328125 
Q 8.5 64.0625 14.71875 69.140625 
Q 20.953125 74.21875 31.78125 74.21875 
Q 42.671875 74.21875 48.875 69.140625 
Q 55.078125 64.0625 55.078125 55.328125 
Q 55.078125 49.078125 51.53125 44.71875 
Q 48 40.375 41.703125 38.8125 
Q 48.828125 37.15625 52.796875 32.3125 
Q 56.78125 27.484375 56.78125 20.515625 
Q 56.78125 9.90625 50.3125 4.234375 
Q 43.84375 -1.421875 31.78125 -1.421875 
Q 19.734375 -1.421875 13.25 4.234375 
Q 6.78125 9.90625 6.78125 20.515625 
Q 6.78125 27.484375 10.78125 32.3125 
Q 14.796875 37.15625 21.921875 38.8125 
z
M 18.3125 54.390625 
Q 18.3125 48.734375 21.84375 45.5625 
Q 25.390625 42.390625 31.78125 42.390625 
Q 38.140625 42.390625 41.71875 45.5625 
Q 45.3125 48.734375 45.3125 54.390625 
Q 45.3125 60.0625 41.71875 63.234375 
Q 38.140625 66.40625 31.78125 66.40625 
Q 25.390625 66.40625 21.84375 63.234375 
Q 18.3125 60.0625 18.3125 54.390625 
z
" id="DejaVuSans-56"/>
      </defs>
      <g transform="translate(323.947618 322.182437)scale(0.1 -0.1)">
       <use xlink:href="#DejaVuSans-56"/>
       <use x="63.623047" xlink:href="#DejaVuSans-48"/>
       <use x="127.246094" xlink:href="#DejaVuSans-48"/>
      </g>
     </g>
    </g>
    <g id="xtick_6">
     <g id="line2d_6">
      <g>
       <use style="stroke:#000000;stroke-width:0.8;" x="398.487273" xlink:href="#m443f0469da" y="307.584"/>
      </g>
     </g>
     <g id="text_6">
      <!-- 1000 -->
      <defs>
       <path d="M 12.40625 8.296875 
L 28.515625 8.296875 
L 28.515625 63.921875 
L 10.984375 60.40625 
L 10.984375 69.390625 
L 28.421875 72.90625 
L 38.28125 72.90625 
L 38.28125 8.296875 
L 54.390625 8.296875 
L 54.390625 0 
L 12.40625 0 
z
" id="DejaVuSans-49"/>
      </defs>
      <g transform="translate(385.762273 322.182437)scale(0.1 -0.1)">
       <use xlink:href="#DejaVuSans-49"/>
       <use x="63.623047" xlink:href="#DejaVuSans-48"/>
       <use x="127.246094" xlink:href="#DejaVuSans-48"/>
       <use x="190.869141" xlink:href="#DejaVuSans-48"/>
      </g>
     </g>
    </g>
   </g>
   <g id="matplotlib.axis_2">
    <g id="ytick_1">
     <g id="line2d_7">
      <defs>
       <path d="M 0 0 
L -3.5 0 
" id="m2d01169694" style="stroke:#000000;stroke-width:0.8;"/>
      </defs>
      <g>
       <use style="stroke:#000000;stroke-width:0.8;" x="57.6" xlink:href="#m2d01169694" y="288.396703"/>
      </g>
     </g>
     <g id="text_7">
      <!-- −0.000075 -->
      <defs>
       <path d="M 10.59375 35.5 
L 73.1875 35.5 
L 73.1875 27.203125 
L 10.59375 27.203125 
z
" id="DejaVuSans-8722"/>
       <path d="M 10.6875 12.40625 
L 21 12.40625 
L 21 0 
L 10.6875 0 
z
" id="DejaVuSans-46"/>
       <path d="M 8.203125 72.90625 
L 55.078125 72.90625 
L 55.078125 68.703125 
L 28.609375 0 
L 18.3125 0 
L 43.21875 64.59375 
L 8.203125 64.59375 
z
" id="DejaVuSans-55"/>
       <path d="M 10.796875 72.90625 
L 49.515625 72.90625 
L 49.515625 64.59375 
L 19.828125 64.59375 
L 19.828125 46.734375 
Q 21.96875 47.46875 24.109375 47.828125 
Q 26.265625 48.1875 28.421875 48.1875 
Q 40.625 48.1875 47.75 41.5 
Q 54.890625 34.8125 54.890625 23.390625 
Q 54.890625 11.625 47.5625 5.09375 
Q 40.234375 -1.421875 26.90625 -1.421875 
Q 22.3125 -1.421875 17.546875 -0.640625 
Q 12.796875 0.140625 7.71875 1.703125 
L 7.71875 11.625 
Q 12.109375 9.234375 16.796875 8.0625 
Q 21.484375 6.890625 26.703125 6.890625 
Q 35.15625 6.890625 40.078125 11.328125 
Q 45.015625 15.765625 45.015625 23.390625 
Q 45.015625 31 40.078125 35.4375 
Q 35.15625 39.890625 26.703125 39.890625 
Q 22.75 39.890625 18.8125 39.015625 
Q 14.890625 38.140625 10.796875 36.28125 
z
" id="DejaVuSans-53"/>
      </defs>
      <g transform="translate(-5.495313 292.195921)scale(0.1 -0.1)">
       <use xlink:href="#DejaVuSans-8722"/>
       <use x="83.789062" xlink:href="#DejaVuSans-48"/>
       <use x="147.412109" xlink:href="#DejaVuSans-46"/>
       <use x="179.199219" xlink:href="#DejaVuSans-48"/>
       <use x="242.822266" xlink:href="#DejaVuSans-48"/>
       <use x="306.445312" xlink:href="#DejaVuSans-48"/>
       <use x="370.068359" xlink:href="#DejaVuSans-48"/>
       <use x="433.691406" xlink:href="#DejaVuSans-55"/>
       <use x="497.314453" xlink:href="#DejaVuSans-53"/>
      </g>
     </g>
    </g>
    <g id="ytick_2">
     <g id="line2d_8">
      <g>
       <use style="stroke:#000000;stroke-width:0.8;" x="57.6" xlink:href="#m2d01169694" y="256.462147"/>
      </g>
     </g>
     <g id="text_8">
      <!-- −0.000050 -->
      <g transform="translate(-5.495313 260.261365)scale(0.1 -0.1)">
       <use xlink:href="#DejaVuSans-8722"/>
       <use x="83.789062" xlink:href="#DejaVuSans-48"/>
       <use x="147.412109" xlink:href="#DejaVuSans-46"/>
       <use x="179.199219" xlink:href="#DejaVuSans-48"/>
       <use x="242.822266" xlink:href="#DejaVuSans-48"/>
       <use x="306.445312" xlink:href="#DejaVuSans-48"/>
       <use x="370.068359" xlink:href="#DejaVuSans-48"/>
       <use x="433.691406" xlink:href="#DejaVuSans-53"/>
       <use x="497.314453" xlink:href="#DejaVuSans-48"/>
      </g>
     </g>
    </g>
    <g id="ytick_3">
     <g id="line2d_9">
      <g>
       <use style="stroke:#000000;stroke-width:0.8;" x="57.6" xlink:href="#m2d01169694" y="224.527591"/>
      </g>
     </g>
     <g id="text_9">
      <!-- −0.000025 -->
      <g transform="translate(-5.495313 228.32681)scale(0.1 -0.1)">
       <use xlink:href="#DejaVuSans-8722"/>
       <use x="83.789062" xlink:href="#DejaVuSans-48"/>
       <use x="147.412109" xlink:href="#DejaVuSans-46"/>
       <use x="179.199219" xlink:href="#DejaVuSans-48"/>
       <use x="242.822266" xlink:href="#DejaVuSans-48"/>
       <use x="306.445312" xlink:href="#DejaVuSans-48"/>
       <use x="370.068359" xlink:href="#DejaVuSans-48"/>
       <use x="433.691406" xlink:href="#DejaVuSans-50"/>
       <use x="497.314453" xlink:href="#DejaVuSans-53"/>
      </g>
     </g>
    </g>
    <g id="ytick_4">
     <g id="line2d_10">
      <g>
       <use style="stroke:#000000;stroke-width:0.8;" x="57.6" xlink:href="#m2d01169694" y="192.593035"/>
      </g>
     </g>
     <g id="text_10">
      <!-- 0.000000 -->
      <g transform="translate(2.884375 196.392254)scale(0.1 -0.1)">
       <use xlink:href="#DejaVuSans-48"/>
       <use x="63.623047" xlink:href="#DejaVuSans-46"/>
       <use x="95.410156" xlink:href="#DejaVuSans-48"/>
       <use x="159.033203" xlink:href="#DejaVuSans-48"/>
       <use x="222.65625" xlink:href="#DejaVuSans-48"/>
       <use x="286.279297" xlink:href="#DejaVuSans-48"/>
       <use x="349.902344" xlink:href="#DejaVuSans-48"/>
       <use x="413.525391" xlink:href="#DejaVuSans-48"/>
      </g>
     </g>
    </g>
    <g id="ytick_5">
     <g id="line2d_11">
      <g>
       <use style="stroke:#000000;stroke-width:0.8;" x="57.6" xlink:href="#m2d01169694" y="160.658479"/>
      </g>
     </g>
     <g id="text_11">
      <!-- 0.000025 -->
      <g transform="translate(2.884375 164.457698)scale(0.1 -0.1)">
       <use xlink:href="#DejaVuSans-48"/>
       <use x="63.623047" xlink:href="#DejaVuSans-46"/>
       <use x="95.410156" xlink:href="#DejaVuSans-48"/>
       <use x="159.033203" xlink:href="#DejaVuSans-48"/>
       <use x="222.65625" xlink:href="#DejaVuSans-48"/>
       <use x="286.279297" xlink:href="#DejaVuSans-48"/>
       <use x="349.902344" xlink:href="#DejaVuSans-50"/>
       <use x="413.525391" xlink:href="#DejaVuSans-53"/>
      </g>
     </g>
    </g>
    <g id="ytick_6">
     <g id="line2d_12">
      <g>
       <use style="stroke:#000000;stroke-width:0.8;" x="57.6" xlink:href="#m2d01169694" y="128.723923"/>
      </g>
     </g>
     <g id="text_12">
      <!-- 0.000050 -->
      <g transform="translate(2.884375 132.523142)scale(0.1 -0.1)">
       <use xlink:href="#DejaVuSans-48"/>
       <use x="63.623047" xlink:href="#DejaVuSans-46"/>
       <use x="95.410156" xlink:href="#DejaVuSans-48"/>
       <use x="159.033203" xlink:href="#DejaVuSans-48"/>
       <use x="222.65625" xlink:href="#DejaVuSans-48"/>
       <use x="286.279297" xlink:href="#DejaVuSans-48"/>
       <use x="349.902344" xlink:href="#DejaVuSans-53"/>
       <use x="413.525391" xlink:href="#DejaVuSans-48"/>
      </g>
     </g>
    </g>
    <g id="ytick_7">
     <g id="line2d_13">
      <g>
       <use style="stroke:#000000;stroke-width:0.8;" x="57.6" xlink:href="#m2d01169694" y="96.789367"/>
      </g>
     </g>
     <g id="text_13">
      <!-- 0.000075 -->
      <g transform="translate(2.884375 100.588586)scale(0.1 -0.1)">
       <use xlink:href="#DejaVuSans-48"/>
       <use x="63.623047" xlink:href="#DejaVuSans-46"/>
       <use x="95.410156" xlink:href="#DejaVuSans-48"/>
       <use x="159.033203" xlink:href="#DejaVuSans-48"/>
       <use x="222.65625" xlink:href="#DejaVuSans-48"/>
       <use x="286.279297" xlink:href="#DejaVuSans-48"/>
       <use x="349.902344" xlink:href="#DejaVuSans-55"/>
       <use x="413.525391" xlink:href="#DejaVuSans-53"/>
      </g>
     </g>
    </g>
    <g id="ytick_8">
     <g id="line2d_14">
      <g>
       <use style="stroke:#000000;stroke-width:0.8;" x="57.6" xlink:href="#m2d01169694" y="64.854811"/>
      </g>
     </g>
     <g id="text_14">
      <!-- 0.000100 -->
      <g transform="translate(2.884375 68.65403)scale(0.1 -0.1)">
       <use xlink:href="#DejaVuSans-48"/>
       <use x="63.623047" xlink:href="#DejaVuSans-46"/>
       <use x="95.410156" xlink:href="#DejaVuSans-48"/>
       <use x="159.033203" xlink:href="#DejaVuSans-48"/>
       <use x="222.65625" xlink:href="#DejaVuSans-48"/>
       <use x="286.279297" xlink:href="#DejaVuSans-49"/>
       <use x="349.902344" xlink:href="#DejaVuSans-48"/>
       <use x="413.525391" xlink:href="#DejaVuSans-48"/>
      </g>
     </g>
    </g>
   </g>
   <g id="line2d_15">
    <path clip-path="url(#p8af846e98e)" d="M 73.941324 346.6 
L 74.017216 -1 
M 74.355544 -1 
L 74.462413 346.6 
M 75.542479 346.6 
L 75.707663 -1 
M 75.823596 -1 
L 75.913948 346.6 
M 76.207417 346.6 
L 76.254 -1 
M 76.69205 -1 
L 76.782921 346.6 
M 77.21644 346.6 
L 77.407502 156.231053 
L 77.724124 -1 
M 77.775107 -1 
L 78.057461 26.49158 
L 78.382441 26.49158 
L 78.70742 123.862925 
L 78.736525 -1 
M 79.246008 -1 
L 79.304505 346.6 
M 79.87479 346.6 
L 79.928728 -1 
M 80.721795 -1 
L 80.766578 346.6 
M 81.430185 346.6 
L 81.51071 -1 
M 82.484258 -1 
L 82.857271 346.6 
M 83.839087 346.6 
L 83.907093 274.686847 
L 84.232072 274.686847 
L 84.43165 346.6 
M 86.018145 346.6 
L 86.091154 -1 
M 86.442721 -1 
L 86.506929 105.437112 
L 86.831908 105.437112 
L 86.89969 346.6 
M 87.463501 346.6 
L 87.560729 -1 
M 88.978486 -1 
L 89.014585 346.6 
M 89.378326 346.6 
L 89.431744 171.998705 
L 89.493255 346.6 
M 90.034034 346.6 
L 90.081704 218.041069 
L 90.406683 87.411673 
L 90.437417 -1 
M 90.954673 -1 
L 91.046255 346.6 
M 91.068103 346.6 
L 91.169152 -1 
M 91.673072 -1 
L 91.814457 346.6 
M 92.460089 346.6 
L 92.525753 -1 
M 93.468298 -1 
L 93.524992 346.6 
M 93.88512 346.6 
L 93.986523 -1 
M 95.36093 -1 
L 95.606355 324.354203 
L 95.931335 324.354203 
L 95.935861 346.6 
M 96.602673 346.6 
L 96.665503 -1 
M 97.313605 -1 
L 97.373018 346.6 
M 98.127607 346.6 
L 98.207711 -1 
M 98.76243 -1 
L 98.828412 346.6 
M 98.904385 346.6 
L 99.019118 -1 
M 102.543959 -1 
L 102.669493 346.6 
M 104.513131 346.6 
L 104.577462 -1 
M 104.763572 -1 
L 104.792544 346.6 
M 106.438487 346.6 
L 106.506163 -1 
M 106.878344 -1 
L 106.979153 346.6 
M 107.309143 346.6 
L 107.548183 -1 
M 108.042079 -1 
L 108.125642 346.6 
M 109.291926 346.6 
L 109.426083 -1 
M 110.322852 -1 
L 110.403157 346.6 
M 110.60706 346.6 
L 110.6343 -1 
M 111.598954 -1 
L 111.683687 346.6 
M 112.467541 346.6 
L 112.505291 254.056413 
L 112.554163 346.6 
M 113.275952 346.6 
L 113.3562 -1 
M 113.914461 -1 
L 113.985149 346.6 
M 114.923359 346.6 
L 114.993156 -1 
M 116.646404 -1 
L 116.837787 346.6 
M 117.146087 346.6 
L 117.228775 -1 
M 117.96613 -1 
L 118.029943 294.25673 
L 118.029943 294.25673 
L 118.147014 -1 
M 118.694158 -1 
L 118.747993 346.6 
M 119.491117 346.6 
L 119.550877 -1 
M 120.593052 -1 
L 120.629779 77.198757 
L 120.629779 77.198757 
L 120.954758 77.198757 
L 120.954758 77.198757 
L 121.118885 -1 
M 122.649315 -1 
L 122.72609 346.6 
M 123.047254 346.6 
L 123.108581 -1 
M 123.31492 -1 
L 123.358143 346.6 
M 123.773578 346.6 
L 123.821758 -1 
M 124.166917 -1 
L 124.346496 346.6 
M 124.654755 346.6 
L 124.769972 -1 
M 124.922964 -1 
L 125.016254 346.6 
M 126.406238 346.6 
L 126.458128 -1 
M 126.525906 -1 
L 126.639269 346.6 
M 126.913695 346.6 
L 126.988737 -1 
M 127.343873 -1 
L 127.454349 334.497532 
L 127.779328 334.497532 
L 127.782876 346.6 
M 128.269265 346.6 
L 128.32155 -1 
M 128.558191 -1 
L 128.620748 346.6 
M 129.059882 346.6 
L 129.079247 299.59275 
L 129.113136 346.6 
M 129.905054 346.6 
L 130.054185 4.176817 
L 130.35152 346.6 
M 130.7307 346.6 
L 131.020642 -1 
M 131.035762 -1 
L 131.262682 346.6 
M 132.674751 346.6 
L 132.733861 -1 
M 133.208495 -1 
L 133.263832 346.6 
M 133.378157 346.6 
L 133.480395 -1 
M 133.747475 -1 
L 133.829034 346.6 
M 135.062299 346.6 
L 135.102697 -1 
M 135.628594 -1 
L 135.694171 346.6 
M 136.082692 346.6 
L 136.138644 -1 
M 137.024249 -1 
L 137.064581 346.6 
M 137.813971 346.6 
L 137.853694 179.592706 
L 138.178673 99.126011 
L 138.349535 346.6 
M 138.670455 346.6 
L 138.828632 134.921137 
L 139.153612 234.656857 
L 139.478591 151.367177 
L 139.803571 151.367177 
L 140.12855 307.659597 
L 140.778509 307.659597 
L 140.958735 -1 
M 141.163419 -1 
L 141.247447 346.6 
M 141.895969 346.6 
L 141.962126 -1 
M 142.567218 -1 
L 142.728387 252.097746 
L 143.053366 176.743699 
L 143.102918 -1 
M 144.618729 -1 
L 144.836821 346.6 
M 146.032518 346.6 
L 146.065016 -1 
M 147.457757 -1 
L 147.487421 346.6 
M 147.890118 346.6 
L 148.05226 -1 
M 148.289541 -1 
L 148.336137 346.6 
M 148.842295 346.6 
L 148.893204 -1 
M 148.930992 -1 
L 149.076516 346.6 
M 149.990934 346.6 
L 150.099504 -1 
M 150.336865 -1 
L 150.477496 346.6 
M 151.284918 346.6 
L 151.345365 -1 
M 152.793246 -1 
L 152.802752 13.650261 
L 152.806783 -1 
M 153.719035 -1 
L 153.77769 255.900973 
L 154.427649 255.900973 
L 154.481612 346.6 
M 155.874046 346.6 
L 155.98052 -1 
M 156.433926 -1 
L 156.517299 346.6 
M 157.182044 346.6 
L 157.25162 -1 
M 157.969978 -1 
L 158.054975 346.6 
M 158.777951 346.6 
L 158.811405 -1 
M 159.239723 -1 
L 159.292609 346.6 
M 160.404443 346.6 
L 160.460115 -1 
M 160.771509 -1 
L 160.837795 346.6 
M 161.061146 346.6 
L 161.160382 -1 
M 161.30146 -1 
L 161.354668 346.6 
M 162.373119 346.6 
L 162.552138 118.27746 
L 162.635085 346.6 
M 165.304669 346.6 
L 165.405764 -1 
M 165.543804 -1 
L 165.638738 346.6 
M 166.519879 346.6 
L 166.628136 -1 
M 168.342846 -1 
L 168.382619 346.6 
M 168.500221 346.6 
L 168.704693 -1 
M 168.762698 -1 
L 169.063554 346.6 
M 171.282497 346.6 
L 171.472716 -1 
M 172.570205 -1 
L 172.69158 346.6 
M 174.947152 346.6 
L 175.0015 -1 
M 175.932334 -1 
L 175.965806 346.6 
M 176.725291 346.6 
L 176.825357 -1 
M 177.530761 -1 
L 177.613514 346.6 
M 178.892342 346.6 
L 178.950265 -1 
M 179.261444 -1 
L 179.306032 346.6 
M 179.575762 346.6 
L 179.614093 -1 
M 180.982983 -1 
L 181.075971 137.348537 
L 181.173033 -1 
M 181.838014 -1 
L 181.906422 346.6 
M 182.138835 346.6 
L 182.180464 -1 
M 183.215977 -1 
L 183.308192 346.6 
M 183.37883 346.6 
L 183.439398 -1 
M 185.856978 -1 
L 185.933883 346.6 
M 186.358195 346.6 
L 186.404371 -1 
M 187.19206 -1 
L 187.250581 25.010148 
L 187.67386 346.6 
M 188.442808 346.6 
L 188.534229 -1 
M 188.567897 -1 
L 188.66565 346.6 
M 189.770488 346.6 
L 189.814082 -1 
M 190.246999 -1 
L 190.316519 346.6 
M 190.658246 346.6 
L 190.71794 -1 
M 191.098257 -1 
L 191.150336 118.364832 
L 191.248156 -1 
M 191.961998 -1 
L 192.017681 346.6 
M 192.751998 346.6 
L 192.775233 309.260106 
L 193.100213 188.554318 
L 193.158608 -1 
M 194.306117 -1 
L 194.39593 346.6 
M 194.406741 346.6 
L 194.548061 -1 
M 195.191873 -1 
L 195.305043 346.6 
M 195.885957 346.6 
L 195.948452 -1 
M 196.075473 -1 
L 196.116641 346.6 
M 196.595505 346.6 
L 196.638812 -1 
M 197.081726 -1 
L 197.160509 346.6 
M 197.472885 346.6 
L 197.543764 -1 
M 198.383561 -1 
L 198.433748 346.6 
M 198.85816 346.6 
L 198.919423 -1 
M 199.680118 -1 
L 199.76087 346.6 
M 201.052614 346.6 
L 201.0985 -1 
M 201.4203 -1 
L 201.491417 346.6 
M 201.621274 346.6 
L 201.708663 -1 
M 202.323587 -1 
L 202.418897 346.6 
M 202.700408 346.6 
L 202.849599 19.368629 
L 203.174578 198.719514 
L 203.29706 -1 
M 204.357382 -1 
L 204.434955 346.6 
M 204.865755 346.6 
L 204.995783 -1 
M 205.615979 -1 
L 205.774414 326.229123 
L 206.099394 326.229123 
L 206.178642 -1 
M 207.392845 -1 
L 207.399312 15.848162 
L 207.724292 15.848162 
L 207.732665 -1 
M 208.290479 -1 
L 208.374251 220.250007 
L 208.69923 258.6212 
L 209.02421 258.6212 
L 209.272628 -1 
M 209.701751 -1 
L 209.821577 346.6 
M 210.910109 346.6 
L 211.037163 -1 
M 211.453338 -1 
L 211.511688 346.6 
M 211.753218 346.6 
L 211.820301 -1 
M 212.769334 -1 
L 212.894412 346.6 
M 212.942779 346.6 
L 213.022414 -1 
M 213.397222 -1 
L 213.449348 346.6 
M 214.108585 346.6 
L 214.167191 -1 
M 214.783053 -1 
L 214.832733 346.6 
M 216.127801 346.6 
L 216.173759 108.850889 
L 216.498739 108.850889 
L 216.55515 346.6 
M 216.960176 346.6 
L 217.002081 -1 
M 217.355724 -1 
L 217.414895 346.6 
M 217.552946 346.6 
L 217.63274 -1 
M 217.945937 -1 
L 218.016768 346.6 
M 218.242111 346.6 
L 218.320633 -1 
M 218.997339 -1 
L 219.077357 346.6 
M 219.144197 346.6 
L 219.316249 -1 
M 219.472259 -1 
L 219.550351 346.6 
M 220.666229 346.6 
L 220.720366 -1 
M 220.730414 -1 
L 220.851355 346.6 
M 222.029765 346.6 
L 222.112891 -1 
M 222.485916 -1 
L 222.534471 346.6 
M 223.168063 346.6 
L 223.281998 -1 
M 224.225029 -1 
L 224.298247 99.200696 
L 224.323009 -1 
M 224.938638 -1 
L 224.948206 35.855201 
L 225.273186 35.855201 
L 225.360228 346.6 
M 226.032776 346.6 
L 226.076343 -1 
M 226.718225 -1 
L 226.811924 346.6 
M 226.969198 346.6 
L 227.046536 -1 
M 227.481963 -1 
L 227.548043 201.501946 
L 227.61857 -1 
M 228.378082 -1 
L 228.522981 341.396409 
L 228.847961 341.396409 
L 228.853348 346.6 
M 229.304662 346.6 
L 229.452976 -1 
M 230.859984 -1 
L 230.903266 346.6 
M 231.691416 346.6 
L 231.772776 119.385683 
L 231.95252 346.6 
M 232.202118 346.6 
L 232.399708 -1 
M 232.446783 -1 
L 232.653126 346.6 
M 232.876627 346.6 
L 233.072695 104.252149 
L 233.397674 104.252149 
L 233.450403 -1 
M 233.786468 -1 
L 233.827285 346.6 
M 234.614713 346.6 
L 234.65956 -1 
M 235.172406 -1 
L 235.206162 346.6 
M 235.64726 346.6 
L 235.672531 223.837257 
L 235.696634 346.6 
M 236.231686 346.6 
L 236.284804 -1 
M 236.378999 -1 
L 236.458648 346.6 
M 237.206027 346.6 
L 237.306372 -1 
M 237.920538 -1 
L 237.947387 79.009555 
L 238.272367 79.009555 
L 238.284732 -1 
M 238.839041 -1 
L 238.880576 346.6 
M 239.351157 346.6 
L 239.454473 -1 
M 239.778893 -1 
L 239.897265 226.093493 
L 240.128479 346.6 
M 240.307099 346.6 
L 240.547224 208.309998 
L 240.637924 346.6 
M 241.090459 346.6 
L 241.197183 171.933672 
L 241.304936 346.6 
M 241.702041 346.6 
L 241.847142 62.558347 
L 242.497101 62.558347 
L 242.82208 55.262389 
L 242.846633 -1 
M 244.156979 -1 
L 244.23653 346.6 
M 244.670309 346.6 
L 244.754729 -1 
M 244.796648 -1 
L 244.917635 346.6 
M 245.499246 346.6 
L 245.551426 -1 
M 246.347589 -1 
L 246.456095 346.6 
M 248.118628 346.6 
L 248.182201 -1 
M 249.272162 -1 
L 249.321671 143.71629 
L 249.404617 -1 
M 250.150006 -1 
L 250.201384 346.6 
M 251.939522 346.6 
L 252.197946 -1 
M 252.405011 -1 
L 252.571466 67.555972 
L 252.896446 67.555972 
L 253.022131 346.6 
M 253.928346 346.6 
L 254.019721 -1 
M 254.424538 -1 
L 254.521343 284.086157 
L 254.671404 -1 
M 255.312573 -1 
L 255.449715 346.6 
M 255.60631 346.6 
L 255.992291 -1 
M 256.854325 -1 
L 257.046129 346.6 
M 257.168548 346.6 
L 257.289606 -1 
M 257.897782 -1 
L 258.052301 346.6 
M 259.858161 346.6 
L 259.941767 -1 
M 260.593632 -1 
L 260.647418 346.6 
M 260.740306 346.6 
L 260.789454 -1 
M 261.963698 -1 
L 261.995872 178.89362 
L 262.179885 -1 
M 262.809944 -1 
L 262.839638 346.6 
M 264.043386 346.6 
L 264.076861 -1 
M 265.589443 -1 
L 265.746219 346.6 
M 266.667877 346.6 
L 266.755012 -1 
M 266.996621 -1 
L 267.091676 346.6 
M 267.518191 346.6 
L 267.520524 343.853098 
L 267.522482 346.6 
M 267.988766 346.6 
L 268.098624 -1 
M 268.250972 -1 
L 268.374022 346.6 
M 269.400356 346.6 
L 269.470401 118.383036 
L 269.583018 346.6 
M 269.899844 346.6 
L 269.984219 -1 
M 270.394676 -1 
L 270.44534 102.586752 
L 270.770319 244.121505 
L 271.095299 316.015307 
L 271.100439 346.6 
M 271.78942 346.6 
L 271.845774 -1 
M 272.681098 -1 
L 272.720197 188.353185 
L 272.759615 -1 
M 275.018367 -1 
L 275.261443 346.6 
M 275.417534 346.6 
L 275.645012 151.125339 
L 275.700321 -1 
M 276.066962 -1 
L 276.112407 346.6 
M 276.49754 346.6 
L 276.547964 -1 
M 277.44631 -1 
L 277.594889 181.202233 
L 277.919869 181.202233 
L 278.061925 -1 
M 278.707183 -1 
L 278.761223 346.6 
M 279.030558 346.6 
L 279.085474 -1 
M 279.396894 -1 
L 279.469305 346.6 
M 279.960794 346.6 
L 280.048162 -1 
M 280.389013 -1 
L 280.50483 346.6 
M 280.880364 346.6 
L 280.961096 -1 
M 281.832971 -1 
L 281.884495 346.6 
M 282.402821 346.6 
L 282.453971 -1 
M 283.179912 -1 
L 283.256928 346.6 
M 284.263043 346.6 
L 284.332246 -1 
M 284.52536 -1 
L 284.609392 346.6 
M 286.803872 346.6 
L 286.850666 -1 
M 287.240257 -1 
L 287.301573 346.6 
M 287.762085 346.6 
L 287.89538 -1 
M 288.361277 -1 
L 288.417995 346.6 
M 289.122043 346.6 
L 289.160374 -1 
M 289.918831 -1 
L 289.944111 101.330663 
L 289.968876 -1 
M 290.443971 -1 
L 290.492973 346.6 
M 290.791695 346.6 
L 290.887484 -1 
M 291.263109 -1 
L 291.321008 346.6 
M 292.085692 346.6 
L 292.130448 -1 
M 292.724973 -1 
L 292.782171 346.6 
M 293.915914 346.6 
L 294.168845 80.342978 
L 294.312724 346.6 
M 294.881098 346.6 
L 295.143784 48.199644 
L 296.118722 48.199644 
L 296.167945 346.6 
M 296.876217 346.6 
L 296.969349 -1 
M 297.294211 -1 
L 297.41864 286.868046 
L 297.466289 -1 
M 298.864358 -1 
L 298.90757 346.6 
M 299.685897 346.6 
L 299.758858 -1 
M 300.204809 -1 
L 300.255542 346.6 
M 301.210339 346.6 
L 301.307591 -1 
M 301.901056 -1 
L 302.066552 346.6 
M 303.1641 346.6 
L 303.268272 132.898949 
L 304.56819 132.898949 
L 304.89317 199.880072 
L 305.543129 199.880072 
L 305.612937 -1 
M 306.772311 -1 
L 306.843047 259.635082 
L 307.168026 131.206412 
L 307.279528 346.6 
M 309.914825 346.6 
L 309.979284 -1 
M 310.855859 -1 
L 310.908308 346.6 
M 311.934144 346.6 
L 311.991616 -1 
M 312.308096 -1 
L 312.367699 68.418595 
L 312.418641 -1 
M 313.186377 -1 
L 313.265119 346.6 
M 313.395468 346.6 
L 313.449134 -1 
M 313.944895 -1 
L 314.018524 346.6 
M 314.694261 346.6 
L 314.767175 -1 
M 315.184861 -1 
L 315.26395 346.6 
M 315.856327 346.6 
L 315.942473 301.316018 
L 316.917412 301.316018 
L 317.076517 346.6 
M 318.068955 346.6 
L 318.342824 -1 
M 319.122166 -1 
L 319.224458 346.6 
M 320.114308 346.6 
L 320.167207 155.940251 
L 320.492187 155.940251 
L 320.817166 204.54056 
L 320.92094 -1 
M 321.810597 -1 
L 321.924615 346.6 
M 322.776551 346.6 
L 322.841496 -1 
M 323.49072 -1 
L 323.545565 346.6 
M 323.993116 346.6 
L 324.063238 -1 
M 325.281098 -1 
L 325.363805 346.6 
M 325.495782 346.6 
L 325.691859 326.942838 
L 325.874275 -1 
M 326.085546 -1 
L 326.178729 346.6 
M 326.558962 346.6 
L 326.666798 44.47379 
L 327.316757 44.47379 
L 327.342692 -1 
M 328.991762 -1 
L 329.076057 346.6 
M 331.366144 346.6 
L 331.439456 -1 
M 331.683995 -1 
L 331.786385 346.6 
M 331.956657 346.6 
L 332.071961 -1 
M 332.603654 -1 
L 332.687824 346.6 
M 332.927674 346.6 
L 332.974951 -1 
M 333.516143 -1 
L 333.639977 346.6 
M 334.912654 346.6 
L 335.10795 -1 
M 335.89409 -1 
L 335.949042 346.6 
M 336.24983 346.6 
L 336.311146 -1 
M 337.987607 -1 
L 338.041081 213.896773 
L 338.109958 -1 
M 338.525899 -1 
L 338.595431 346.6 
M 338.824361 346.6 
L 338.92132 -1 
M 339.624703 -1 
L 339.748019 346.6 
M 340.078561 346.6 
L 340.144407 -1 
M 341.163862 -1 
L 341.232893 346.6 
M 343.042729 346.6 
L 343.100497 -1 
M 344.866631 -1 
L 345.045336 346.6 
M 345.788492 346.6 
L 345.92776 -1 
M 346.696364 -1 
L 346.753321 346.6 
M 347.125289 346.6 
L 347.140508 327.948013 
L 347.207761 -1 
M 347.705113 -1 
L 347.771189 346.6 
M 349.492058 346.6 
L 349.540561 -1 
M 349.931144 -1 
L 349.977465 346.6 
M 350.160773 346.6 
L 350.211097 -1 
M 350.942331 -1 
L 351.006089 346.6 
M 351.071795 346.6 
L 351.130627 -1 
M 352.156909 -1 
L 352.248313 346.6 
M 352.766803 346.6 
L 352.818613 -1 
M 354.240313 -1 
L 354.290057 230.076471 
L 354.441972 -1 
M 354.958987 -1 
L 355.039269 346.6 
M 355.798439 346.6 
L 355.87258 -1 
M 356.628633 -1 
L 356.740121 346.6 
M 357.025305 346.6 
L 357.126103 -1 
M 357.312985 -1 
L 357.424391 346.6 
M 357.637843 346.6 
L 357.732391 -1 
M 357.974245 -1 
L 358.052354 346.6 
M 358.400337 346.6 
L 358.514791 14.032736 
L 358.839771 247.061466 
L 358.952117 -1 
M 359.71684 -1 
L 359.814709 201.318958 
L 359.982155 -1 
M 360.505 -1 
L 360.611801 346.6 
M 360.938013 346.6 
L 361.027109 -1 
M 361.243255 -1 
L 361.374203 346.6 
M 361.52541 346.6 
L 361.6972 -1 
M 361.872934 -1 
L 362.117212 346.6 
M 362.61865 346.6 
L 362.706634 -1 
M 363.455638 -1 
L 363.6326 346.6 
M 363.742073 346.6 
L 363.801755 -1 
M 364.364289 -1 
L 364.364423 -0.430009 
L 364.689402 77.981689 
L 364.747932 -1 
M 365.453068 -1 
L 365.562994 346.6 
M 365.793372 346.6 
L 365.933326 -1 
M 366.380466 -1 
L 366.545842 346.6 
M 366.678234 346.6 
L 366.74718 -1 
M 367.198278 -1 
L 367.272605 346.6 
M 367.628866 346.6 
L 367.694323 -1 
M 368.251914 -1 
L 368.264177 49.992133 
L 368.589156 49.992133 
L 368.609294 -1 
M 369.044217 -1 
L 369.102794 346.6 
M 369.683505 346.6 
L 369.734815 -1 
M 370.320051 -1 
L 370.438921 346.6 
M 370.924065 346.6 
L 370.956727 -1 
M 371.397229 -1 
L 371.426512 346.6 
M 372.604871 346.6 
L 372.692597 -1 
M 373.225695 -1 
L 373.288491 346.6 
M 374.334644 346.6 
L 374.380905 -1 
M 375.021774 -1 
L 375.087248 346.6 
M 376.917027 346.6 
L 377.042181 -1 
M 377.671897 -1 
L 377.688583 62.902816 
L 377.967343 -1 
M 379.136037 -1 
L 379.313481 304.425066 
L 379.496831 -1 
M 379.827797 -1 
L 379.96344 168.021165 
L 380.288419 168.021165 
L 380.375227 -1 
M 380.69647 -1 
L 380.758737 346.6 
M 381.970315 346.6 
L 382.004869 -1 
M 382.55153 -1 
L 382.640221 346.6 
M 385.043677 346.6 
L 385.104471 -1 
M 385.341759 -1 
L 385.488092 273.647379 
L 385.813071 273.647379 
L 385.854326 346.6 
M 386.572944 346.6 
L 386.598474 -1 
M 387.01512 -1 
L 387.045712 346.6 
M 387.255966 346.6 
L 387.320979 -1 
M 388.072971 -1 
L 388.087928 1.383728 
L 388.089185 -1 
M 388.680401 -1 
L 388.737887 130.892124 
L 389.062867 12.32627 
L 389.387846 12.32627 
L 389.457204 -1 
M 390.456385 -1 
L 390.532049 346.6 
M 390.947604 346.6 
L 391.012744 167.266579 
L 391.109809 346.6 
M 391.720794 346.6 
L 391.768748 -1 
M 392.230863 -1 
L 392.284127 346.6 
M 392.450329 346.6 
L 392.637641 93.235106 
L 392.962621 254.41608 
L 392.983647 346.6 
M 393.713074 346.6 
L 393.82624 -1 
M 394.104508 -1 
L 394.262539 322.66035 
L 394.587518 325.596245 
L 394.912498 325.596245 
L 394.933569 346.6 
M 395.889098 346.6 
L 395.955086 -1 
M 396.899002 -1 
L 396.951869 346.6 
M 397.759942 346.6 
L 397.81553 -1 
M 397.906016 -1 
L 398.08133 346.6 
M 398.207762 346.6 
L 398.306218 -1 
L 398.306218 -1 
" style="fill:none;stroke:#1f77b4;stroke-linecap:square;stroke-width:1.5;"/>
   </g>
   <g id="line2d_16">
    <path clip-path="url(#p8af846e98e)" d="M 75.083368 -1 
L 75.129553 346.6 
M 75.620666 346.6 
L 75.707442 -1 
M 75.879155 -1 
L 75.990625 346.6 
M 76.175089 346.6 
L 76.239426 -1 
M 76.672903 -1 
L 76.752964 346.6 
M 77.359401 346.6 
L 77.553046 -1 
M 77.818474 -1 
L 77.968995 346.6 
M 78.728057 346.6 
L 78.806587 -1 
M 79.312997 -1 
L 79.357379 157.094433 
L 79.441489 -1 
M 80.378681 -1 
L 80.953787 346.6 
M 81.454775 346.6 
L 81.632236 14.377575 
L 81.851178 346.6 
M 81.981921 346.6 
L 82.035293 -1 
M 82.87326 -1 
L 82.932154 231.359224 
L 83.257133 226.015708 
L 83.386862 -1 
M 83.758602 -1 
L 83.907093 286.471563 
L 84.232072 286.471563 
L 84.557052 227.273239 
L 84.602839 -1 
M 85.353825 -1 
L 85.390489 346.6 
M 85.827955 346.6 
L 85.914685 -1 
M 86.356861 -1 
L 86.417624 346.6 
M 87.041963 346.6 
L 87.184784 -1 
M 88.274124 -1 
L 88.327888 346.6 
M 89.608838 346.6 
L 89.645195 -1 
M 89.885975 -1 
L 89.92811 346.6 
M 90.273365 346.6 
L 90.325943 -1 
M 90.546724 -1 
L 90.637918 346.6 
M 91.559123 346.6 
L 91.720293 -1 
M 92.345082 -1 
L 92.35656 39.753922 
L 92.387579 -1 
M 92.744568 -1 
L 92.801294 346.6 
M 93.630245 346.6 
L 93.656478 236.175217 
L 93.696826 346.6 
M 94.153907 346.6 
L 94.230858 -1 
M 95.229369 -1 
L 95.281376 105.285746 
L 95.606355 44.978791 
L 95.931335 44.978791 
L 95.945787 -1 
M 96.459042 -1 
L 96.530373 346.6 
M 96.696302 346.6 
L 96.857406 -1 
M 97.537715 -1 
L 97.556233 88.223201 
L 97.881212 88.223201 
L 97.956495 -1 
M 98.278745 -1 
L 98.363967 346.6 
M 98.836437 346.6 
L 98.856151 302.55737 
L 99.18113 291.517356 
L 99.831089 291.517356 
L 100.156069 91.387732 
L 100.170164 -1 
M 100.699981 -1 
L 100.737326 346.6 
M 101.383034 346.6 
L 101.455987 161.504341 
L 101.582542 346.6 
M 102.294962 346.6 
L 102.510048 -1 
M 102.843538 -1 
L 102.914143 346.6 
M 104.653687 346.6 
L 104.744679 -1 
M 105.438721 -1 
L 105.480721 346.6 
M 105.870599 346.6 
L 105.910473 -1 
M 106.197792 -1 
L 106.278225 346.6 
M 106.399346 346.6 
L 106.504637 -1 
M 106.734294 -1 
L 106.789118 346.6 
M 107.609187 346.6 
L 107.630598 260.953617 
L 107.630598 260.953617 
L 107.861765 -1 
M 109.085712 -1 
L 109.201349 346.6 
M 109.387346 346.6 
L 109.580475 108.192039 
L 109.580475 108.192039 
L 110.230434 108.192039 
L 110.230434 108.192039 
L 110.347145 346.6 
M 111.011541 346.6 
L 111.155106 -1 
M 112.569683 -1 
L 112.691488 346.6 
M 113.258302 346.6 
L 113.348748 -1 
M 116.508239 -1 
L 116.622056 346.6 
M 117.133251 346.6 
L 117.379984 127.831353 
L 117.379984 127.831353 
L 117.405742 346.6 
M 118.179426 346.6 
L 118.226811 -1 
M 119.265301 -1 
L 119.329861 64.479167 
L 119.329861 64.479167 
L 119.483455 346.6 
M 119.738167 346.6 
L 119.830176 -1 
M 120.962676 -1 
L 121.218599 346.6 
M 122.276302 346.6 
L 122.366822 -1 
M 122.942971 -1 
L 123.229615 204.978571 
L 123.40941 -1 
M 124.318889 -1 
L 124.388553 346.6 
M 126.009893 346.6 
L 126.123144 -1 
M 126.604479 -1 
L 126.676947 346.6 
M 127.062335 346.6 
L 127.129369 187.739904 
L 127.454349 271.600396 
L 127.779328 271.600396 
L 127.827656 346.6 
M 128.178863 346.6 
L 128.239224 -1 
M 129.122878 -1 
L 129.179825 346.6 
M 129.989339 346.6 
L 130.054185 5.156396 
L 130.379165 170.767652 
L 130.704144 170.767652 
L 130.788136 -1 
M 131.133554 -1 
L 131.20721 346.6 
M 132.973273 346.6 
L 133.08672 -1 
M 133.467126 -1 
L 133.55271 346.6 
M 133.700779 346.6 
L 133.78139 -1 
M 134.270365 -1 
L 134.278919 19.113686 
L 134.297081 -1 
M 134.643393 -1 
L 134.683796 346.6 
M 135.415661 346.6 
L 135.497669 -1 
M 135.680497 -1 
L 135.783209 346.6 
M 136.011353 346.6 
L 136.102935 -1 
M 136.387241 -1 
L 136.502531 346.6 
M 136.939202 346.6 
L 137.075196 -1 
M 137.978048 -1 
L 138.03046 346.6 
M 138.492367 346.6 
L 138.503653 311.237276 
L 138.528095 346.6 
M 138.893598 346.6 
L 138.945534 -1 
M 139.470335 -1 
L 139.478591 35.302597 
L 139.803571 35.302597 
L 139.829085 -1 
M 140.998378 -1 
L 141.103489 202.696191 
L 141.345352 -1 
M 141.784699 -1 
L 141.939879 346.6 
M 142.150043 346.6 
L 142.230256 -1 
M 142.643836 -1 
L 142.81516 346.6 
M 143.159735 346.6 
L 143.320595 -1 
M 143.523787 -1 
L 143.703325 153.048429 
L 144.028305 335.075657 
L 144.353284 335.075657 
L 144.487617 -1 
M 144.998581 -1 
L 145.003243 5.94286 
L 145.328223 134.258286 
L 145.479785 346.6 
M 145.686582 346.6 
L 145.734338 -1 
M 146.209339 -1 
L 146.25461 346.6 
M 146.470989 346.6 
L 146.627478 -1 
M 146.954085 -1 
L 147.181932 346.6 
M 147.853098 346.6 
L 147.920302 -1 
M 147.958717 -1 
L 148.224346 346.6 
M 148.923837 346.6 
L 149.064516 -1 
M 150.219923 -1 
L 150.281475 346.6 
M 151.096524 346.6 
L 151.173252 -1 
M 152.442568 -1 
L 152.477772 51.496404 
L 152.802752 33.868123 
L 153.127731 95.397599 
L 153.452711 95.397599 
L 153.599105 346.6 
M 154.514368 346.6 
L 154.612735 -1 
M 155.517068 -1 
L 155.556738 346.6 
M 155.906212 346.6 
L 155.947696 -1 
M 156.492508 -1 
L 156.538 346.6 
M 157.552476 346.6 
L 157.661873 -1 
M 157.70196 -1 
L 157.874194 346.6 
M 158.758403 346.6 
L 158.801511 -1 
M 159.724084 -1 
L 160.060495 346.6 
M 160.624975 346.6 
L 160.718998 -1 
M 161.17589 -1 
L 161.309566 346.6 
M 162.458478 346.6 
L 162.552138 94.981914 
L 162.877117 301.900029 
L 163.527076 301.900029 
L 163.54586 346.6 
M 164.713946 346.6 
L 164.826994 134.135029 
L 165.151974 163.105405 
L 165.210423 346.6 
M 166.553016 346.6 
L 166.737831 -1 
M 168.926654 -1 
L 169.051728 335.784994 
L 169.130566 -1 
M 170.218334 -1 
L 170.270611 346.6 
M 170.844521 346.6 
L 170.989996 -1 
M 171.329553 -1 
L 171.646472 346.6 
M 171.653987 346.6 
L 171.804755 -1 
M 172.059673 -1 
L 172.13263 346.6 
M 173.192212 346.6 
L 173.276462 61.394222 
L 173.548533 -1 
M 173.943183 -1 
L 174.316557 346.6 
M 174.676662 346.6 
L 174.746876 -1 
M 175.058658 -1 
L 175.130152 346.6 
M 175.633084 346.6 
L 175.670867 -1 
M 176.040298 -1 
L 176.070461 346.6 
M 177.816443 346.6 
L 177.826175 312.665453 
L 177.841036 346.6 
M 178.650574 346.6 
L 178.734346 -1 
M 179.314298 -1 
L 179.410557 346.6 
M 180.947448 346.6 
L 181.021547 -1 
M 181.218362 -1 
L 181.431564 346.6 
M 182.347949 346.6 
L 182.375889 314.325717 
L 182.48639 -1 
M 183.093483 -1 
L 183.138895 346.6 
M 183.577357 346.6 
L 183.625897 -1 
M 184.482926 -1 
L 184.650745 143.170043 
L 184.713362 -1 
M 185.376559 -1 
L 185.420209 346.6 
M 186.111303 346.6 
L 186.163067 -1 
M 186.518707 -1 
L 186.617378 346.6 
M 187.139491 346.6 
L 187.183025 -1 
M 187.71111 -1 
L 187.900541 280.914758 
L 188.035157 -1 
M 188.688398 -1 
L 188.746606 346.6 
M 189.332891 346.6 
L 189.457737 -1 
M 189.624115 -1 
L 189.806081 346.6 
M 190.179958 346.6 
L 190.286005 -1 
M 190.937777 -1 
L 191.057004 346.6 
M 191.212242 346.6 
L 191.291324 -1 
M 191.655416 -1 
L 191.732826 346.6 
M 191.963169 346.6 
L 192.158818 -1 
M 192.493474 -1 
L 192.53101 346.6 
M 193.17689 346.6 
L 193.32337 -1 
M 193.839545 -1 
L 193.968117 346.6 
M 194.180072 346.6 
L 194.306104 -1 
M 194.456016 -1 
L 194.530925 346.6 
M 195.669289 346.6 
L 195.700049 159.708677 
L 195.768308 346.6 
M 196.298568 346.6 
L 196.350008 214.417088 
L 196.47266 346.6 
M 197.127781 346.6 
L 197.178144 -1 
M 197.447487 -1 
L 197.489527 346.6 
M 199.198355 346.6 
L 199.274824 166.469407 
L 199.599803 166.469407 
L 199.741757 -1 
M 200.301023 -1 
L 200.383544 346.6 
M 201.150874 346.6 
L 201.362042 -1 
M 202.076625 -1 
L 202.126779 346.6 
M 202.390242 346.6 
L 202.521442 -1 
M 202.529191 -1 
L 202.718009 346.6 
M 202.912047 346.6 
L 203.001654 -1 
M 203.292551 -1 
L 203.353683 346.6 
M 204.984857 346.6 
L 205.083275 -1 
M 206.810768 -1 
L 206.974994 346.6 
M 207.10407 346.6 
L 207.153233 -1 
M 207.938863 -1 
L 207.98173 346.6 
M 208.155583 346.6 
L 208.223058 -1 
M 209.19117 -1 
L 209.2583 346.6 
M 209.780007 346.6 
L 209.858178 -1 
M 210.766194 -1 
L 210.831121 346.6 
M 211.216992 346.6 
L 211.299066 87.980832 
L 211.399531 346.6 
M 212.101889 346.6 
L 212.165629 -1 
M 212.738441 -1 
L 212.82046 346.6 
M 213.072349 346.6 
L 213.189934 -1 
M 213.285844 -1 
L 213.359374 346.6 
M 213.74239 346.6 
L 213.800126 -1 
M 214.030148 -1 
L 214.106863 346.6 
M 214.885437 346.6 
L 215.027853 -1 
M 215.464287 -1 
L 215.5238 92.548719 
L 215.84878 92.548719 
L 215.907583 -1 
M 216.627857 -1 
L 216.733846 346.6 
M 217.350554 346.6 
L 217.441012 -1 
M 217.663625 -1 
L 217.798657 88.230844 
L 218.030413 346.6 
M 218.147152 346.6 
L 218.225804 -1 
M 218.651957 -1 
L 218.723736 346.6 
M 218.915133 346.6 
L 219.098575 33.663653 
L 219.314416 346.6 
M 219.846772 346.6 
L 219.918474 -1 
M 220.422808 -1 
L 220.568068 346.6 
M 220.871413 346.6 
L 221.009697 -1 
M 221.296429 -1 
L 221.373432 29.250844 
L 221.501566 -1 
M 222.087919 -1 
L 222.34837 186.574511 
L 222.411811 346.6 
M 222.903009 346.6 
L 223.122383 -1 
M 225.720742 -1 
L 225.775853 346.6 
M 226.080236 346.6 
L 226.139013 -1 
M 226.448825 -1 
L 226.556941 346.6 
M 226.5812 346.6 
L 226.635354 -1 
M 227.051557 -1 
L 227.083191 346.6 
M 227.813575 346.6 
L 228.177575 -1 
M 228.202292 -1 
L 228.280807 346.6 
M 229.292863 346.6 
L 229.49792 147.53951 
L 229.599338 346.6 
M 231.236319 346.6 
L 231.388779 -1 
M 231.5016 -1 
L 231.640589 346.6 
M 231.873286 346.6 
L 231.978966 -1 
M 232.263195 -1 
L 232.410377 346.6 
M 232.431364 346.6 
L 232.53412 -1 
M 232.994022 -1 
L 233.072695 229.785117 
L 233.397674 229.785117 
L 233.426296 346.6 
M 233.935933 346.6 
L 233.997226 -1 
M 234.485493 -1 
L 234.622751 346.6 
M 234.746175 346.6 
L 234.835275 -1 
M 235.111104 -1 
L 235.15322 346.6 
M 235.501939 346.6 
L 235.535399 -1 
M 235.853074 -1 
L 235.897126 346.6 
M 236.106644 346.6 
L 236.154535 -1 
M 236.621062 -1 
L 236.647469 106.815759 
L 236.972449 106.815759 
L 237.011163 -1 
M 237.490317 -1 
L 237.574417 346.6 
M 238.435527 346.6 
L 238.597346 176.918264 
L 238.710565 346.6 
M 240.096409 346.6 
L 240.181687 -1 
M 240.25327 -1 
L 240.318509 346.6 
M 241.72052 346.6 
L 241.782794 -1 
M 243.25371 -1 
L 243.332448 346.6 
M 243.626806 346.6 
L 243.714104 -1 
M 243.996101 -1 
L 244.121998 207.783959 
L 244.446978 258.415731 
L 244.497351 346.6 
M 244.967664 346.6 
L 245.096937 29.05944 
L 245.421916 29.05944 
L 245.466943 346.6 
M 246.3321 346.6 
L 246.377915 -1 
M 246.422958 -1 
L 246.486097 346.6 
M 247.285596 346.6 
L 247.335162 -1 
M 248.338225 -1 
L 248.640262 346.6 
M 249.019116 346.6 
L 249.237998 -1 
M 249.453701 -1 
L 249.64665 193.189679 
L 249.885649 -1 
M 249.998857 -1 
L 250.134329 346.6 
M 251.009531 346.6 
L 251.05024 -1 
M 253.280261 -1 
L 253.456372 346.6 
M 254.047708 346.6 
L 254.196364 197.112774 
L 254.255159 -1 
M 254.75367 -1 
L 254.843708 346.6 
M 254.852155 346.6 
L 255.05298 -1 
M 255.242135 -1 
L 255.362359 346.6 
M 257.485097 346.6 
L 257.627821 -1 
M 257.856409 -1 
L 257.941326 346.6 
M 258.217329 346.6 
L 258.283825 -1 
M 259.595761 -1 
L 259.662774 346.6 
M 259.841257 346.6 
L 259.979605 -1 
M 260.252949 -1 
L 260.370975 94.128094 
L 260.506867 346.6 
M 260.819735 346.6 
L 260.942211 -1 
M 262.053553 -1 
L 262.16141 346.6 
M 262.841717 346.6 
L 262.935325 -1 
M 263.533394 -1 
L 263.82409 346.6 
M 264.758338 346.6 
L 264.800311 -1 
M 265.355056 -1 
L 265.393197 346.6 
M 267.251324 346.6 
L 267.520524 81.737144 
L 267.606775 346.6 
M 268.263203 346.6 
L 268.495463 170.04069 
L 268.820442 170.04069 
L 269.145422 71.415345 
L 269.220086 346.6 
M 269.669924 346.6 
L 269.745099 -1 
M 269.839393 -1 
L 269.905192 346.6 
M 270.367545 346.6 
L 270.443136 -1 
M 270.452443 -1 
L 270.696063 346.6 
M 271.111812 346.6 
L 271.420278 306.144054 
L 271.486803 346.6 
M 271.900116 346.6 
L 272.070238 173.931864 
L 272.395217 173.931864 
L 272.671984 346.6 
M 272.729337 346.6 
L 272.834971 -1 
M 274.153567 -1 
L 274.252267 346.6 
M 275.263489 346.6 
L 275.299221 -1 
M 276.369242 -1 
L 276.436841 346.6 
M 278.272821 346.6 
L 278.365434 -1 
M 279.497199 -1 
L 279.544767 128.110259 
L 279.869746 128.110259 
L 280.057104 346.6 
M 280.902466 346.6 
L 281.003991 -1 
M 281.770393 -1 
L 281.949022 346.6 
M 283.287491 346.6 
L 283.403489 -1 
M 284.64676 -1 
L 284.744439 229.51065 
L 285.069419 284.463338 
L 285.394398 284.463338 
L 285.435805 346.6 
M 287.756364 346.6 
L 287.887567 -1 
M 289.991866 -1 
L 290.046126 346.6 
M 290.512239 346.6 
L 290.571411 -1 
M 291.992836 -1 
L 292.086497 346.6 
M 292.409625 346.6 
L 292.543948 0.231134 
L 292.868927 115.290228 
L 292.914144 -1 
M 293.340585 -1 
L 293.411447 346.6 
M 293.712023 346.6 
L 293.839407 -1 
M 293.857946 -1 
L 294.188136 346.6 
M 294.661566 346.6 
L 294.70818 -1 
M 294.896575 -1 
L 294.929346 346.6 
M 296.329699 346.6 
L 296.36194 -1 
M 296.73972 -1 
L 296.768681 85.241263 
L 297.093661 284.56144 
L 297.41864 225.371964 
L 297.443646 346.6 
M 299.527911 346.6 
L 299.66311 -1 
M 301.598003 -1 
L 301.643374 143.831321 
L 301.678273 -1 
M 302.993491 -1 
L 303.12729 346.6 
M 304.643662 346.6 
L 304.715288 -1 
M 305.680683 -1 
L 305.736071 346.6 
M 306.360878 346.6 
L 306.431264 -1 
M 309.017387 -1 
L 309.11542 346.6 
M 309.122406 346.6 
L 309.300142 -1 
M 310.201904 -1 
L 310.287189 346.6 
M 310.867873 346.6 
L 310.957185 -1 
M 312.308458 -1 
L 312.367699 85.844225 
L 312.439835 -1 
M 312.767902 -1 
L 312.853804 346.6 
M 313.121701 346.6 
L 313.176247 -1 
M 313.528052 -1 
L 313.588835 346.6 
M 313.76564 346.6 
L 313.841268 -1 
M 314.260036 -1 
L 314.473312 346.6 
M 314.714853 346.6 
L 314.831672 -1 
M 315.05307 -1 
L 315.126615 346.6 
M 318.703717 346.6 
L 318.775996 -1 
M 319.761199 -1 
L 319.842228 72.415249 
L 319.902656 -1 
M 321.002691 -1 
L 321.102682 346.6 
M 321.215939 346.6 
L 321.402914 -1 
M 321.514586 -1 
L 321.652787 346.6 
M 322.953201 346.6 
L 323.154138 -1 
M 323.564265 -1 
L 323.628919 346.6 
M 323.846409 346.6 
L 323.906124 -1 
M 324.895657 -1 
L 325.070708 346.6 
M 326.273775 346.6 
L 326.310834 -1 
M 326.655863 -1 
L 326.666798 9.11877 
L 327.316757 9.11877 
L 327.423869 346.6 
M 328.021038 346.6 
L 328.111491 -1 
M 328.525892 -1 
L 328.616675 267.440779 
L 328.941654 267.440779 
L 328.977744 346.6 
M 329.670818 346.6 
L 329.714267 -1 
M 331.420637 -1 
L 331.504394 346.6 
M 331.620286 346.6 
L 331.79819 -1 
M 332.521005 -1 
L 332.655657 346.6 
M 332.951757 346.6 
L 333.031749 -1 
M 333.546404 -1 
L 333.601168 346.6 
M 334.04058 346.6 
L 334.097648 -1 
M 334.906198 -1 
L 335.056337 346.6 
M 335.605683 346.6 
L 335.787047 -1 
M 336.47786 -1 
L 336.642555 346.6 
M 336.862938 346.6 
L 337.066221 -1 
M 338.077139 -1 
L 338.358366 346.6 
M 338.396721 346.6 
L 339.01602 155.263461 
L 339.282259 346.6 
M 339.400033 346.6 
L 339.665979 156.424927 
L 339.719971 346.6 
M 341.898214 346.6 
L 341.940835 72.733378 
L 342.051187 346.6 
M 342.590782 346.6 
L 342.73465 -1 
M 343.344253 -1 
L 343.37506 346.6 
M 345.135348 346.6 
L 345.190631 206.763398 
L 345.373451 346.6 
M 345.534597 346.6 
L 345.595294 -1 
M 346.092663 -1 
L 346.155038 346.6 
M 346.599595 346.6 
L 346.642472 -1 
M 347.32848 -1 
L 347.424579 346.6 
M 348.286869 346.6 
L 348.439729 -1 
M 349.139197 -1 
L 349.202303 346.6 
M 349.809667 346.6 
L 349.900342 -1 
M 350.265294 -1 
L 350.3752 346.6 
M 350.734626 346.6 
L 350.875383 -1 
M 351.417167 -1 
L 351.540104 346.6 
M 352.12867 346.6 
L 352.221594 -1 
M 352.430389 -1 
L 352.501077 346.6 
M 352.826265 346.6 
L 352.89567 -1 
M 353.13477 -1 
L 353.241027 346.6 
M 354.409625 346.6 
L 354.471543 -1 
M 355.095315 -1 
L 355.156732 346.6 
M 356.636027 346.6 
L 356.685522 -1 
M 357.164668 -1 
L 357.214873 261.243404 
L 357.404238 346.6 
M 358.456081 346.6 
L 358.514791 312.392023 
L 358.648472 -1 
M 359.508878 -1 
L 359.738126 346.6 
M 360.854952 346.6 
L 360.952295 -1 
M 361.274808 -1 
L 361.370861 346.6 
M 361.878016 346.6 
L 361.972145 -1 
M 362.187459 -1 
L 362.265933 346.6 
M 362.504552 346.6 
L 362.552079 -1 
M 363.570575 -1 
L 363.616491 346.6 
M 364.255585 346.6 
L 364.319281 -1 
M 364.76622 -1 
L 364.81847 346.6 
M 365.787892 346.6 
L 365.933662 -1 
M 366.401531 -1 
L 366.629989 346.6 
M 366.647626 346.6 
L 366.852884 -1 
M 367.035411 -1 
L 367.16654 346.6 
M 367.724966 346.6 
L 367.843324 -1 
M 368.068767 -1 
L 368.228725 346.6 
M 369.111305 346.6 
L 369.172382 -1 
M 369.728331 -1 
L 369.878644 346.6 
M 370.651843 346.6 
L 370.718761 -1 
M 371.286976 -1 
L 371.3491 346.6 
M 371.666517 346.6 
L 371.723995 -1 
M 371.955966 -1 
L 372.014472 346.6 
M 372.722541 346.6 
L 372.81389 68.885017 
L 373.13887 68.885017 
L 373.205341 346.6 
M 373.76596 346.6 
L 373.788829 264.84373 
L 374.113808 264.84373 
L 374.438788 296.644186 
L 374.451601 346.6 
M 374.920843 346.6 
L 374.965704 -1 
M 375.412548 -1 
L 375.413726 2.469797 
L 375.42314 -1 
M 376.745229 -1 
L 376.83962 346.6 
M 377.592534 346.6 
L 377.688583 78.401944 
L 378.013563 176.835937 
L 378.663522 176.835937 
L 378.903028 346.6 
M 379.467521 346.6 
L 379.542069 -1 
M 380.348909 -1 
L 380.420294 346.6 
M 380.925695 346.6 
L 381.061535 -1 
M 381.532995 -1 
L 381.588337 103.071868 
L 381.662473 -1 
M 382.804008 -1 
L 382.907001 346.6 
M 383.533786 346.6 
L 383.538215 333.4777 
L 383.863194 333.4777 
L 383.872299 346.6 
M 385.195625 346.6 
L 385.322787 -1 
M 385.94431 -1 
L 386.045266 346.6 
M 386.234314 346.6 
L 386.339054 -1 
M 386.513212 -1 
L 386.555608 346.6 
M 387.26558 346.6 
L 387.391411 -1 
M 388.167124 -1 
L 388.31354 346.6 
M 388.517172 346.6 
L 388.670801 -1 
M 388.784642 -1 
L 388.891713 346.6 
M 389.974857 346.6 
L 390.037805 166.368426 
L 390.362785 166.368426 
L 390.687764 178.996527 
L 390.757701 346.6 
M 391.878195 346.6 
L 392.000556 -1 
M 392.457656 -1 
L 392.501897 346.6 
M 393.2075 346.6 
L 393.277562 -1 
M 393.320738 -1 
L 393.552016 346.6 
M 394.185109 346.6 
L 394.25513 -1 
M 394.412094 -1 
L 394.587518 42.140762 
L 394.912498 42.140762 
L 395.237477 189.013316 
L 395.562457 46.506106 
L 395.887437 46.506106 
L 396.010829 346.6 
M 397.66398 346.6 
L 397.753617 -1 
M 397.95168 -1 
L 398.074162 346.6 
M 398.243567 346.6 
L 398.356518 -1 
L 398.356518 -1 
" style="fill:none;stroke:#ff7f0e;stroke-linecap:square;stroke-width:1.5;"/>
   </g>
   <g id="patch_3">
    <path d="M 57.6 307.584 
L 57.6 41.472 
" style="fill:none;stroke:#000000;stroke-linecap:square;stroke-linejoin:miter;stroke-width:0.8;"/>
   </g>
   <g id="patch_4">
    <path d="M 414.72 307.584 
L 414.72 41.472 
" style="fill:none;stroke:#000000;stroke-linecap:square;stroke-linejoin:miter;stroke-width:0.8;"/>
   </g>
   <g id="patch_5">
    <path d="M 57.6 307.584 
L 414.72 307.584 
" style="fill:none;stroke:#000000;stroke-linecap:square;stroke-linejoin:miter;stroke-width:0.8;"/>
   </g>
   <g id="patch_6">
    <path d="M 57.6 41.472 
L 414.72 41.472 
" style="fill:none;stroke:#000000;stroke-linecap:square;stroke-linejoin:miter;stroke-width:0.8;"/>
   </g>
   <g id="text_15">
    <!-- Polyakov loop 0 direction -->
    <defs>
     <path d="M 19.671875 64.796875 
L 19.671875 37.40625 
L 32.078125 37.40625 
Q 38.96875 37.40625 42.71875 40.96875 
Q 46.484375 44.53125 46.484375 51.125 
Q 46.484375 57.671875 42.71875 61.234375 
Q 38.96875 64.796875 32.078125 64.796875 
z
M 9.8125 72.90625 
L 32.078125 72.90625 
Q 44.34375 72.90625 50.609375 67.359375 
Q 56.890625 61.8125 56.890625 51.125 
Q 56.890625 40.328125 50.609375 34.8125 
Q 44.34375 29.296875 32.078125 29.296875 
L 19.671875 29.296875 
L 19.671875 0 
L 9.8125 0 
z
" id="DejaVuSans-80"/>
     <path d="M 30.609375 48.390625 
Q 23.390625 48.390625 19.1875 42.75 
Q 14.984375 37.109375 14.984375 27.296875 
Q 14.984375 17.484375 19.15625 11.84375 
Q 23.34375 6.203125 30.609375 6.203125 
Q 37.796875 6.203125 41.984375 11.859375 
Q 46.1875 17.53125 46.1875 27.296875 
Q 46.1875 37.015625 41.984375 42.703125 
Q 37.796875 48.390625 30.609375 48.390625 
z
M 30.609375 56 
Q 42.328125 56 49.015625 48.375 
Q 55.71875 40.765625 55.71875 27.296875 
Q 55.71875 13.875 49.015625 6.21875 
Q 42.328125 -1.421875 30.609375 -1.421875 
Q 18.84375 -1.421875 12.171875 6.21875 
Q 5.515625 13.875 5.515625 27.296875 
Q 5.515625 40.765625 12.171875 48.375 
Q 18.84375 56 30.609375 56 
z
" id="DejaVuSans-111"/>
     <path d="M 9.421875 75.984375 
L 18.40625 75.984375 
L 18.40625 0 
L 9.421875 0 
z
" id="DejaVuSans-108"/>
     <path d="M 32.171875 -5.078125 
Q 28.375 -14.84375 24.75 -17.8125 
Q 21.140625 -20.796875 15.09375 -20.796875 
L 7.90625 -20.796875 
L 7.90625 -13.28125 
L 13.1875 -13.28125 
Q 16.890625 -13.28125 18.9375 -11.515625 
Q 21 -9.765625 23.484375 -3.21875 
L 25.09375 0.875 
L 2.984375 54.6875 
L 12.5 54.6875 
L 29.59375 11.921875 
L 46.6875 54.6875 
L 56.203125 54.6875 
z
" id="DejaVuSans-121"/>
     <path d="M 34.28125 27.484375 
Q 23.390625 27.484375 19.1875 25 
Q 14.984375 22.515625 14.984375 16.5 
Q 14.984375 11.71875 18.140625 8.90625 
Q 21.296875 6.109375 26.703125 6.109375 
Q 34.1875 6.109375 38.703125 11.40625 
Q 43.21875 16.703125 43.21875 25.484375 
L 43.21875 27.484375 
z
M 52.203125 31.203125 
L 52.203125 0 
L 43.21875 0 
L 43.21875 8.296875 
Q 40.140625 3.328125 35.546875 0.953125 
Q 30.953125 -1.421875 24.3125 -1.421875 
Q 15.921875 -1.421875 10.953125 3.296875 
Q 6 8.015625 6 15.921875 
Q 6 25.140625 12.171875 29.828125 
Q 18.359375 34.515625 30.609375 34.515625 
L 43.21875 34.515625 
L 43.21875 35.40625 
Q 43.21875 41.609375 39.140625 45 
Q 35.0625 48.390625 27.6875 48.390625 
Q 23 48.390625 18.546875 47.265625 
Q 14.109375 46.140625 10.015625 43.890625 
L 10.015625 52.203125 
Q 14.9375 54.109375 19.578125 55.046875 
Q 24.21875 56 28.609375 56 
Q 40.484375 56 46.34375 49.84375 
Q 52.203125 43.703125 52.203125 31.203125 
z
" id="DejaVuSans-97"/>
     <path d="M 9.078125 75.984375 
L 18.109375 75.984375 
L 18.109375 31.109375 
L 44.921875 54.6875 
L 56.390625 54.6875 
L 27.390625 29.109375 
L 57.625 0 
L 45.90625 0 
L 18.109375 26.703125 
L 18.109375 0 
L 9.078125 0 
z
" id="DejaVuSans-107"/>
     <path d="M 2.984375 54.6875 
L 12.5 54.6875 
L 29.59375 8.796875 
L 46.6875 54.6875 
L 56.203125 54.6875 
L 35.6875 0 
L 23.484375 0 
z
" id="DejaVuSans-118"/>
     <path id="DejaVuSans-32"/>
     <path d="M 18.109375 8.203125 
L 18.109375 -20.796875 
L 9.078125 -20.796875 
L 9.078125 54.6875 
L 18.109375 54.6875 
L 18.109375 46.390625 
Q 20.953125 51.265625 25.265625 53.625 
Q 29.59375 56 35.59375 56 
Q 45.5625 56 51.78125 48.09375 
Q 58.015625 40.1875 58.015625 27.296875 
Q 58.015625 14.40625 51.78125 6.484375 
Q 45.5625 -1.421875 35.59375 -1.421875 
Q 29.59375 -1.421875 25.265625 0.953125 
Q 20.953125 3.328125 18.109375 8.203125 
z
M 48.6875 27.296875 
Q 48.6875 37.203125 44.609375 42.84375 
Q 40.53125 48.484375 33.40625 48.484375 
Q 26.265625 48.484375 22.1875 42.84375 
Q 18.109375 37.203125 18.109375 27.296875 
Q 18.109375 17.390625 22.1875 11.75 
Q 26.265625 6.109375 33.40625 6.109375 
Q 40.53125 6.109375 44.609375 11.75 
Q 48.6875 17.390625 48.6875 27.296875 
z
" id="DejaVuSans-112"/>
     <path d="M 45.40625 46.390625 
L 45.40625 75.984375 
L 54.390625 75.984375 
L 54.390625 0 
L 45.40625 0 
L 45.40625 8.203125 
Q 42.578125 3.328125 38.25 0.953125 
Q 33.9375 -1.421875 27.875 -1.421875 
Q 17.96875 -1.421875 11.734375 6.484375 
Q 5.515625 14.40625 5.515625 27.296875 
Q 5.515625 40.1875 11.734375 48.09375 
Q 17.96875 56 27.875 56 
Q 33.9375 56 38.25 53.625 
Q 42.578125 51.265625 45.40625 46.390625 
z
M 14.796875 27.296875 
Q 14.796875 17.390625 18.875 11.75 
Q 22.953125 6.109375 30.078125 6.109375 
Q 37.203125 6.109375 41.296875 11.75 
Q 45.40625 17.390625 45.40625 27.296875 
Q 45.40625 37.203125 41.296875 42.84375 
Q 37.203125 48.484375 30.078125 48.484375 
Q 22.953125 48.484375 18.875 42.84375 
Q 14.796875 37.203125 14.796875 27.296875 
z
" id="DejaVuSans-100"/>
     <path d="M 9.421875 54.6875 
L 18.40625 54.6875 
L 18.40625 0 
L 9.421875 0 
z
M 9.421875 75.984375 
L 18.40625 75.984375 
L 18.40625 64.59375 
L 9.421875 64.59375 
z
" id="DejaVuSans-105"/>
     <path d="M 41.109375 46.296875 
Q 39.59375 47.171875 37.8125 47.578125 
Q 36.03125 48 33.890625 48 
Q 26.265625 48 22.1875 43.046875 
Q 18.109375 38.09375 18.109375 28.8125 
L 18.109375 0 
L 9.078125 0 
L 9.078125 54.6875 
L 18.109375 54.6875 
L 18.109375 46.1875 
Q 20.953125 51.171875 25.484375 53.578125 
Q 30.03125 56 36.53125 56 
Q 37.453125 56 38.578125 55.875 
Q 39.703125 55.765625 41.0625 55.515625 
z
" id="DejaVuSans-114"/>
     <path d="M 56.203125 29.59375 
L 56.203125 25.203125 
L 14.890625 25.203125 
Q 15.484375 15.921875 20.484375 11.0625 
Q 25.484375 6.203125 34.421875 6.203125 
Q 39.59375 6.203125 44.453125 7.46875 
Q 49.3125 8.734375 54.109375 11.28125 
L 54.109375 2.78125 
Q 49.265625 0.734375 44.1875 -0.34375 
Q 39.109375 -1.421875 33.890625 -1.421875 
Q 20.796875 -1.421875 13.15625 6.1875 
Q 5.515625 13.8125 5.515625 26.8125 
Q 5.515625 40.234375 12.765625 48.109375 
Q 20.015625 56 32.328125 56 
Q 43.359375 56 49.78125 48.890625 
Q 56.203125 41.796875 56.203125 29.59375 
z
M 47.21875 32.234375 
Q 47.125 39.59375 43.09375 43.984375 
Q 39.0625 48.390625 32.421875 48.390625 
Q 24.90625 48.390625 20.390625 44.140625 
Q 15.875 39.890625 15.1875 32.171875 
z
" id="DejaVuSans-101"/>
     <path d="M 48.78125 52.59375 
L 48.78125 44.1875 
Q 44.96875 46.296875 41.140625 47.34375 
Q 37.3125 48.390625 33.40625 48.390625 
Q 24.65625 48.390625 19.8125 42.84375 
Q 14.984375 37.3125 14.984375 27.296875 
Q 14.984375 17.28125 19.8125 11.734375 
Q 24.65625 6.203125 33.40625 6.203125 
Q 37.3125 6.203125 41.140625 7.25 
Q 44.96875 8.296875 48.78125 10.40625 
L 48.78125 2.09375 
Q 45.015625 0.34375 40.984375 -0.53125 
Q 36.96875 -1.421875 32.421875 -1.421875 
Q 20.0625 -1.421875 12.78125 6.34375 
Q 5.515625 14.109375 5.515625 27.296875 
Q 5.515625 40.671875 12.859375 48.328125 
Q 20.21875 56 33.015625 56 
Q 37.15625 56 41.109375 55.140625 
Q 45.0625 54.296875 48.78125 52.59375 
z
" id="DejaVuSans-99"/>
     <path d="M 18.3125 70.21875 
L 18.3125 54.6875 
L 36.8125 54.6875 
L 36.8125 47.703125 
L 18.3125 47.703125 
L 18.3125 18.015625 
Q 18.3125 11.328125 20.140625 9.421875 
Q 21.96875 7.515625 27.59375 7.515625 
L 36.8125 7.515625 
L 36.8125 0 
L 27.59375 0 
Q 17.1875 0 13.234375 3.875 
Q 9.28125 7.765625 9.28125 18.015625 
L 9.28125 47.703125 
L 2.6875 47.703125 
L 2.6875 54.6875 
L 9.28125 54.6875 
L 9.28125 70.21875 
z
" id="DejaVuSans-116"/>
     <path d="M 54.890625 33.015625 
L 54.890625 0 
L 45.90625 0 
L 45.90625 32.71875 
Q 45.90625 40.484375 42.875 44.328125 
Q 39.84375 48.1875 33.796875 48.1875 
Q 26.515625 48.1875 22.3125 43.546875 
Q 18.109375 38.921875 18.109375 30.90625 
L 18.109375 0 
L 9.078125 0 
L 9.078125 54.6875 
L 18.109375 54.6875 
L 18.109375 46.1875 
Q 21.34375 51.125 25.703125 53.5625 
Q 30.078125 56 35.796875 56 
Q 45.21875 56 50.046875 50.171875 
Q 54.890625 44.34375 54.890625 33.015625 
z
" id="DejaVuSans-110"/>
    </defs>
    <g transform="translate(161.06625 35.472)scale(0.12 -0.12)">
     <use xlink:href="#DejaVuSans-80"/>
     <use x="56.677734" xlink:href="#DejaVuSans-111"/>
     <use x="117.859375" xlink:href="#DejaVuSans-108"/>
     <use x="145.642578" xlink:href="#DejaVuSans-121"/>
     <use x="204.822266" xlink:href="#DejaVuSans-97"/>
     <use x="266.101562" xlink:href="#DejaVuSans-107"/>
     <use x="320.386719" xlink:href="#DejaVuSans-111"/>
     <use x="381.568359" xlink:href="#DejaVuSans-118"/>
     <use x="440.748047" xlink:href="#DejaVuSans-32"/>
     <use x="472.535156" xlink:href="#DejaVuSans-108"/>
     <use x="500.318359" xlink:href="#DejaVuSans-111"/>
     <use x="561.5" xlink:href="#DejaVuSans-111"/>
     <use x="622.681641" xlink:href="#DejaVuSans-112"/>
     <use x="686.158203" xlink:href="#DejaVuSans-32"/>
     <use x="717.945312" xlink:href="#DejaVuSans-48"/>
     <use x="781.568359" xlink:href="#DejaVuSans-32"/>
     <use x="813.355469" xlink:href="#DejaVuSans-100"/>
     <use x="876.832031" xlink:href="#DejaVuSans-105"/>
     <use x="904.615234" xlink:href="#DejaVuSans-114"/>
     <use x="943.478516" xlink:href="#DejaVuSans-101"/>
     <use x="1005.001953" xlink:href="#DejaVuSans-99"/>
     <use x="1059.982422" xlink:href="#DejaVuSans-116"/>
     <use x="1099.191406" xlink:href="#DejaVuSans-105"/>
     <use x="1126.974609" xlink:href="#DejaVuSans-111"/>
     <use x="1188.15625" xlink:href="#DejaVuSans-110"/>
    </g>
   </g>
   <g id="legend_1">
    <g id="patch_7">
     <path d="M 64.6 78.82825 
L 210.540625 78.82825 
Q 212.540625 78.82825 212.540625 76.82825 
L 212.540625 48.472 
Q 212.540625 46.472 210.540625 46.472 
L 64.6 46.472 
Q 62.6 46.472 62.6 48.472 
L 62.6 76.82825 
Q 62.6 78.82825 64.6 78.82825 
z
" style="fill:#ffffff;opacity:0.8;stroke:#cccccc;stroke-linejoin:miter;"/>
    </g>
    <g id="line2d_17">
     <path d="M 66.6 54.570437 
L 86.6 54.570437 
" style="fill:none;stroke:#1f77b4;stroke-linecap:square;stroke-width:1.5;"/>
    </g>
    <g id="line2d_18"/>
    <g id="text_16">
     <!-- real0.0000+/-0.0000 -->
     <defs>
      <path d="M 46 62.703125 
L 46 35.5 
L 73.1875 35.5 
L 73.1875 27.203125 
L 46 27.203125 
L 46 0 
L 37.796875 0 
L 37.796875 27.203125 
L 10.59375 27.203125 
L 10.59375 35.5 
L 37.796875 35.5 
L 37.796875 62.703125 
z
" id="DejaVuSans-43"/>
      <path d="M 25.390625 72.90625 
L 33.6875 72.90625 
L 8.296875 -9.28125 
L 0 -9.28125 
z
" id="DejaVuSans-47"/>
      <path d="M 4.890625 31.390625 
L 31.203125 31.390625 
L 31.203125 23.390625 
L 4.890625 23.390625 
z
" id="DejaVuSans-45"/>
     </defs>
     <g transform="translate(94.6 58.070437)scale(0.1 -0.1)">
      <use xlink:href="#DejaVuSans-114"/>
      <use x="38.863281" xlink:href="#DejaVuSans-101"/>
      <use x="100.386719" xlink:href="#DejaVuSans-97"/>
      <use x="161.666016" xlink:href="#DejaVuSans-108"/>
      <use x="189.449219" xlink:href="#DejaVuSans-48"/>
      <use x="253.072266" xlink:href="#DejaVuSans-46"/>
      <use x="284.859375" xlink:href="#DejaVuSans-48"/>
      <use x="348.482422" xlink:href="#DejaVuSans-48"/>
      <use x="412.105469" xlink:href="#DejaVuSans-48"/>
      <use x="475.728516" xlink:href="#DejaVuSans-48"/>
      <use x="539.351562" xlink:href="#DejaVuSans-43"/>
      <use x="623.140625" xlink:href="#DejaVuSans-47"/>
      <use x="656.832031" xlink:href="#DejaVuSans-45"/>
      <use x="692.916016" xlink:href="#DejaVuSans-48"/>
      <use x="756.539062" xlink:href="#DejaVuSans-46"/>
      <use x="788.326172" xlink:href="#DejaVuSans-48"/>
      <use x="851.949219" xlink:href="#DejaVuSans-48"/>
      <use x="915.572266" xlink:href="#DejaVuSans-48"/>
      <use x="979.195312" xlink:href="#DejaVuSans-48"/>
     </g>
    </g>
    <g id="line2d_19">
     <path d="M 66.6 69.248562 
L 86.6 69.248562 
" style="fill:none;stroke:#ff7f0e;stroke-linecap:square;stroke-width:1.5;"/>
    </g>
    <g id="line2d_20"/>
    <g id="text_17">
     <!-- imag-0.0000+/-0.0000 -->
     <defs>
      <path d="M 52 44.1875 
Q 55.375 50.25 60.0625 53.125 
Q 64.75 56 71.09375 56 
Q 79.640625 56 84.28125 50.015625 
Q 88.921875 44.046875 88.921875 33.015625 
L 88.921875 0 
L 79.890625 0 
L 79.890625 32.71875 
Q 79.890625 40.578125 77.09375 44.375 
Q 74.3125 48.1875 68.609375 48.1875 
Q 61.625 48.1875 57.5625 43.546875 
Q 53.515625 38.921875 53.515625 30.90625 
L 53.515625 0 
L 44.484375 0 
L 44.484375 32.71875 
Q 44.484375 40.625 41.703125 44.40625 
Q 38.921875 48.1875 33.109375 48.1875 
Q 26.21875 48.1875 22.15625 43.53125 
Q 18.109375 38.875 18.109375 30.90625 
L 18.109375 0 
L 9.078125 0 
L 9.078125 54.6875 
L 18.109375 54.6875 
L 18.109375 46.1875 
Q 21.1875 51.21875 25.484375 53.609375 
Q 29.78125 56 35.6875 56 
Q 41.65625 56 45.828125 52.96875 
Q 50 49.953125 52 44.1875 
z
" id="DejaVuSans-109"/>
      <path d="M 45.40625 27.984375 
Q 45.40625 37.75 41.375 43.109375 
Q 37.359375 48.484375 30.078125 48.484375 
Q 22.859375 48.484375 18.828125 43.109375 
Q 14.796875 37.75 14.796875 27.984375 
Q 14.796875 18.265625 18.828125 12.890625 
Q 22.859375 7.515625 30.078125 7.515625 
Q 37.359375 7.515625 41.375 12.890625 
Q 45.40625 18.265625 45.40625 27.984375 
z
M 54.390625 6.78125 
Q 54.390625 -7.171875 48.1875 -13.984375 
Q 42 -20.796875 29.203125 -20.796875 
Q 24.46875 -20.796875 20.265625 -20.09375 
Q 16.0625 -19.390625 12.109375 -17.921875 
L 12.109375 -9.1875 
Q 16.0625 -11.328125 19.921875 -12.34375 
Q 23.78125 -13.375 27.78125 -13.375 
Q 36.625 -13.375 41.015625 -8.765625 
Q 45.40625 -4.15625 45.40625 5.171875 
L 45.40625 9.625 
Q 42.625 4.78125 38.28125 2.390625 
Q 33.9375 0 27.875 0 
Q 17.828125 0 11.671875 7.65625 
Q 5.515625 15.328125 5.515625 27.984375 
Q 5.515625 40.671875 11.671875 48.328125 
Q 17.828125 56 27.875 56 
Q 33.9375 56 38.28125 53.609375 
Q 42.625 51.21875 45.40625 46.390625 
L 45.40625 54.6875 
L 54.390625 54.6875 
z
" id="DejaVuSans-103"/>
     </defs>
     <g transform="translate(94.6 72.748562)scale(0.1 -0.1)">
      <use xlink:href="#DejaVuSans-105"/>
      <use x="27.783203" xlink:href="#DejaVuSans-109"/>
      <use x="125.195312" xlink:href="#DejaVuSans-97"/>
      <use x="186.474609" xlink:href="#DejaVuSans-103"/>
      <use x="249.951172" xlink:href="#DejaVuSans-45"/>
      <use x="286.035156" xlink:href="#DejaVuSans-48"/>
      <use x="349.658203" xlink:href="#DejaVuSans-46"/>
      <use x="381.445312" xlink:href="#DejaVuSans-48"/>
      <use x="445.068359" xlink:href="#DejaVuSans-48"/>
      <use x="508.691406" xlink:href="#DejaVuSans-48"/>
      <use x="572.314453" xlink:href="#DejaVuSans-48"/>
      <use x="635.9375" xlink:href="#DejaVuSans-43"/>
      <use x="719.726562" xlink:href="#DejaVuSans-47"/>
      <use x="753.417969" xlink:href="#DejaVuSans-45"/>
      <use x="789.501953" xlink:href="#DejaVuSans-48"/>
      <use x="853.125" xlink:href="#DejaVuSans-46"/>
      <use x="884.912109" xlink:href="#DejaVuSans-48"/>
      <use x="948.535156" xlink:href="#DejaVuSans-48"/>
      <use x="1012.158203" xlink:href="#DejaVuSans-48"/>
      <use x="1075.78125" xlink:href="#DejaVuSans-48"/>
     </g>
    </g>
   </g>
  </g>
 </g>
 <defs>
  <clipPath id="p8af846e98e">
   <rect height="266.112" width="357.12" x="57.6" y="41.472"/>
  </clipPath>
 </defs>
</svg>
