<?xml version="1.0" encoding="utf-8" standalone="no"?>
<!DOCTYPE svg PUBLIC "-//W3C//DTD SVG 1.1//EN"
  "http://www.w3.org/Graphics/SVG/1.1/DTD/svg11.dtd">
<!-- Created with matplotlib (https://matplotlib.org/) -->
<svg height="345.6pt" version="1.1" viewBox="0 0 460.8 345.6" width="460.8pt" xmlns="http://www.w3.org/2000/svg" xmlns:xlink="http://www.w3.org/1999/xlink">
 <defs>
  <style type="text/css">
*{stroke-linecap:butt;stroke-linejoin:round;}
  </style>
 </defs>
 <g id="figure_1">
  <g id="patch_1">
   <path d="M 0 345.6 
L 460.8 345.6 
L 460.8 0 
L 0 0 
z
" style="fill:#ffffff;"/>
  </g>
  <g id="axes_1">
   <g id="patch_2">
    <path d="M 57.6 307.584 
L 414.72 307.584 
L 414.72 41.472 
L 57.6 41.472 
z
" style="fill:#ffffff;"/>
   </g>
   <g id="matplotlib.axis_1">
    <g id="xtick_1">
     <g id="line2d_1">
      <defs>
       <path d="M 0 0 
L 0 3.5 
" id="mdd83429de5" style="stroke:#000000;stroke-width:0.8;"/>
      </defs>
      <g>
       <use style="stroke:#000000;stroke-width:0.8;" x="73.290733" xlink:href="#mdd83429de5" y="307.584"/>
      </g>
     </g>
     <g id="text_1">
      <!-- 0 -->
      <defs>
       <path d="M 31.78125 66.40625 
Q 24.171875 66.40625 20.328125 58.90625 
Q 16.5 51.421875 16.5 36.375 
Q 16.5 21.390625 20.328125 13.890625 
Q 24.171875 6.390625 31.78125 6.390625 
Q 39.453125 6.390625 43.28125 13.890625 
Q 47.125 21.390625 47.125 36.375 
Q 47.125 51.421875 43.28125 58.90625 
Q 39.453125 66.40625 31.78125 66.40625 
z
M 31.78125 74.21875 
Q 44.046875 74.21875 50.515625 64.515625 
Q 56.984375 54.828125 56.984375 36.375 
Q 56.984375 17.96875 50.515625 8.265625 
Q 44.046875 -1.421875 31.78125 -1.421875 
Q 19.53125 -1.421875 13.0625 8.265625 
Q 6.59375 17.96875 6.59375 36.375 
Q 6.59375 54.828125 13.0625 64.515625 
Q 19.53125 74.21875 31.78125 74.21875 
z
" id="DejaVuSans-48"/>
      </defs>
      <g transform="translate(70.109483 322.182437)scale(0.1 -0.1)">
       <use xlink:href="#DejaVuSans-48"/>
      </g>
     </g>
    </g>
    <g id="xtick_2">
     <g id="line2d_2">
      <g>
       <use style="stroke:#000000;stroke-width:0.8;" x="127.490156" xlink:href="#mdd83429de5" y="307.584"/>
      </g>
     </g>
     <g id="text_2">
      <!-- 100 -->
      <defs>
       <path d="M 12.40625 8.296875 
L 28.515625 8.296875 
L 28.515625 63.921875 
L 10.984375 60.40625 
L 10.984375 69.390625 
L 28.421875 72.90625 
L 38.28125 72.90625 
L 38.28125 8.296875 
L 54.390625 8.296875 
L 54.390625 0 
L 12.40625 0 
z
" id="DejaVuSans-49"/>
      </defs>
      <g transform="translate(117.946406 322.182437)scale(0.1 -0.1)">
       <use xlink:href="#DejaVuSans-49"/>
       <use x="63.623047" xlink:href="#DejaVuSans-48"/>
       <use x="127.246094" xlink:href="#DejaVuSans-48"/>
      </g>
     </g>
    </g>
    <g id="xtick_3">
     <g id="line2d_3">
      <g>
       <use style="stroke:#000000;stroke-width:0.8;" x="181.68958" xlink:href="#mdd83429de5" y="307.584"/>
      </g>
     </g>
     <g id="text_3">
      <!-- 200 -->
      <defs>
       <path d="M 19.1875 8.296875 
L 53.609375 8.296875 
L 53.609375 0 
L 7.328125 0 
L 7.328125 8.296875 
Q 12.9375 14.109375 22.625 23.890625 
Q 32.328125 33.6875 34.8125 36.53125 
Q 39.546875 41.84375 41.421875 45.53125 
Q 43.3125 49.21875 43.3125 52.78125 
Q 43.3125 58.59375 39.234375 62.25 
Q 35.15625 65.921875 28.609375 65.921875 
Q 23.96875 65.921875 18.8125 64.3125 
Q 13.671875 62.703125 7.8125 59.421875 
L 7.8125 69.390625 
Q 13.765625 71.78125 18.9375 73 
Q 24.125 74.21875 28.421875 74.21875 
Q 39.75 74.21875 46.484375 68.546875 
Q 53.21875 62.890625 53.21875 53.421875 
Q 53.21875 48.921875 51.53125 44.890625 
Q 49.859375 40.875 45.40625 35.40625 
Q 44.1875 33.984375 37.640625 27.21875 
Q 31.109375 20.453125 19.1875 8.296875 
z
" id="DejaVuSans-50"/>
      </defs>
      <g transform="translate(172.14583 322.182437)scale(0.1 -0.1)">
       <use xlink:href="#DejaVuSans-50"/>
       <use x="63.623047" xlink:href="#DejaVuSans-48"/>
       <use x="127.246094" xlink:href="#DejaVuSans-48"/>
      </g>
     </g>
    </g>
    <g id="xtick_4">
     <g id="line2d_4">
      <g>
       <use style="stroke:#000000;stroke-width:0.8;" x="235.889003" xlink:href="#mdd83429de5" y="307.584"/>
      </g>
     </g>
     <g id="text_4">
      <!-- 300 -->
      <defs>
       <path d="M 40.578125 39.3125 
Q 47.65625 37.796875 51.625 33 
Q 55.609375 28.21875 55.609375 21.1875 
Q 55.609375 10.40625 48.1875 4.484375 
Q 40.765625 -1.421875 27.09375 -1.421875 
Q 22.515625 -1.421875 17.65625 -0.515625 
Q 12.796875 0.390625 7.625 2.203125 
L 7.625 11.71875 
Q 11.71875 9.328125 16.59375 8.109375 
Q 21.484375 6.890625 26.8125 6.890625 
Q 36.078125 6.890625 40.9375 10.546875 
Q 45.796875 14.203125 45.796875 21.1875 
Q 45.796875 27.640625 41.28125 31.265625 
Q 36.765625 34.90625 28.71875 34.90625 
L 20.21875 34.90625 
L 20.21875 43.015625 
L 29.109375 43.015625 
Q 36.375 43.015625 40.234375 45.921875 
Q 44.09375 48.828125 44.09375 54.296875 
Q 44.09375 59.90625 40.109375 62.90625 
Q 36.140625 65.921875 28.71875 65.921875 
Q 24.65625 65.921875 20.015625 65.03125 
Q 15.375 64.15625 9.8125 62.3125 
L 9.8125 71.09375 
Q 15.4375 72.65625 20.34375 73.4375 
Q 25.25 74.21875 29.59375 74.21875 
Q 40.828125 74.21875 47.359375 69.109375 
Q 53.90625 64.015625 53.90625 55.328125 
Q 53.90625 49.265625 50.4375 45.09375 
Q 46.96875 40.921875 40.578125 39.3125 
z
" id="DejaVuSans-51"/>
      </defs>
      <g transform="translate(226.345253 322.182437)scale(0.1 -0.1)">
       <use xlink:href="#DejaVuSans-51"/>
       <use x="63.623047" xlink:href="#DejaVuSans-48"/>
       <use x="127.246094" xlink:href="#DejaVuSans-48"/>
      </g>
     </g>
    </g>
    <g id="xtick_5">
     <g id="line2d_5">
      <g>
       <use style="stroke:#000000;stroke-width:0.8;" x="290.088426" xlink:href="#mdd83429de5" y="307.584"/>
      </g>
     </g>
     <g id="text_5">
      <!-- 400 -->
      <defs>
       <path d="M 37.796875 64.3125 
L 12.890625 25.390625 
L 37.796875 25.390625 
z
M 35.203125 72.90625 
L 47.609375 72.90625 
L 47.609375 25.390625 
L 58.015625 25.390625 
L 58.015625 17.1875 
L 47.609375 17.1875 
L 47.609375 0 
L 37.796875 0 
L 37.796875 17.1875 
L 4.890625 17.1875 
L 4.890625 26.703125 
z
" id="DejaVuSans-52"/>
      </defs>
      <g transform="translate(280.544676 322.182437)scale(0.1 -0.1)">
       <use xlink:href="#DejaVuSans-52"/>
       <use x="63.623047" xlink:href="#DejaVuSans-48"/>
       <use x="127.246094" xlink:href="#DejaVuSans-48"/>
      </g>
     </g>
    </g>
    <g id="xtick_6">
     <g id="line2d_6">
      <g>
       <use style="stroke:#000000;stroke-width:0.8;" x="344.287849" xlink:href="#mdd83429de5" y="307.584"/>
      </g>
     </g>
     <g id="text_6">
      <!-- 500 -->
      <defs>
       <path d="M 10.796875 72.90625 
L 49.515625 72.90625 
L 49.515625 64.59375 
L 19.828125 64.59375 
L 19.828125 46.734375 
Q 21.96875 47.46875 24.109375 47.828125 
Q 26.265625 48.1875 28.421875 48.1875 
Q 40.625 48.1875 47.75 41.5 
Q 54.890625 34.8125 54.890625 23.390625 
Q 54.890625 11.625 47.5625 5.09375 
Q 40.234375 -1.421875 26.90625 -1.421875 
Q 22.3125 -1.421875 17.546875 -0.640625 
Q 12.796875 0.140625 7.71875 1.703125 
L 7.71875 11.625 
Q 12.109375 9.234375 16.796875 8.0625 
Q 21.484375 6.890625 26.703125 6.890625 
Q 35.15625 6.890625 40.078125 11.328125 
Q 45.015625 15.765625 45.015625 23.390625 
Q 45.015625 31 40.078125 35.4375 
Q 35.15625 39.890625 26.703125 39.890625 
Q 22.75 39.890625 18.8125 39.015625 
Q 14.890625 38.140625 10.796875 36.28125 
z
" id="DejaVuSans-53"/>
      </defs>
      <g transform="translate(334.744099 322.182437)scale(0.1 -0.1)">
       <use xlink:href="#DejaVuSans-53"/>
       <use x="63.623047" xlink:href="#DejaVuSans-48"/>
       <use x="127.246094" xlink:href="#DejaVuSans-48"/>
      </g>
     </g>
    </g>
    <g id="xtick_7">
     <g id="line2d_7">
      <g>
       <use style="stroke:#000000;stroke-width:0.8;" x="398.487273" xlink:href="#mdd83429de5" y="307.584"/>
      </g>
     </g>
     <g id="text_7">
      <!-- 600 -->
      <defs>
       <path d="M 33.015625 40.375 
Q 26.375 40.375 22.484375 35.828125 
Q 18.609375 31.296875 18.609375 23.390625 
Q 18.609375 15.53125 22.484375 10.953125 
Q 26.375 6.390625 33.015625 6.390625 
Q 39.65625 6.390625 43.53125 10.953125 
Q 47.40625 15.53125 47.40625 23.390625 
Q 47.40625 31.296875 43.53125 35.828125 
Q 39.65625 40.375 33.015625 40.375 
z
M 52.59375 71.296875 
L 52.59375 62.3125 
Q 48.875 64.0625 45.09375 64.984375 
Q 41.3125 65.921875 37.59375 65.921875 
Q 27.828125 65.921875 22.671875 59.328125 
Q 17.53125 52.734375 16.796875 39.40625 
Q 19.671875 43.65625 24.015625 45.921875 
Q 28.375 48.1875 33.59375 48.1875 
Q 44.578125 48.1875 50.953125 41.515625 
Q 57.328125 34.859375 57.328125 23.390625 
Q 57.328125 12.15625 50.6875 5.359375 
Q 44.046875 -1.421875 33.015625 -1.421875 
Q 20.359375 -1.421875 13.671875 8.265625 
Q 6.984375 17.96875 6.984375 36.375 
Q 6.984375 53.65625 15.1875 63.9375 
Q 23.390625 74.21875 37.203125 74.21875 
Q 40.921875 74.21875 44.703125 73.484375 
Q 48.484375 72.75 52.59375 71.296875 
z
" id="DejaVuSans-54"/>
      </defs>
      <g transform="translate(388.943523 322.182437)scale(0.1 -0.1)">
       <use xlink:href="#DejaVuSans-54"/>
       <use x="63.623047" xlink:href="#DejaVuSans-48"/>
       <use x="127.246094" xlink:href="#DejaVuSans-48"/>
      </g>
     </g>
    </g>
   </g>
   <g id="matplotlib.axis_2">
    <g id="ytick_1">
     <g id="line2d_8">
      <defs>
       <path d="M 0 0 
L -3.5 0 
" id="md221acdfa5" style="stroke:#000000;stroke-width:0.8;"/>
      </defs>
      <g>
       <use style="stroke:#000000;stroke-width:0.8;" x="57.6" xlink:href="#md221acdfa5" y="264.567899"/>
      </g>
     </g>
     <g id="text_8">
      <!-- −0.00010 -->
      <defs>
       <path d="M 10.59375 35.5 
L 73.1875 35.5 
L 73.1875 27.203125 
L 10.59375 27.203125 
z
" id="DejaVuSans-8722"/>
       <path d="M 10.6875 12.40625 
L 21 12.40625 
L 21 0 
L 10.6875 0 
z
" id="DejaVuSans-46"/>
      </defs>
      <g transform="translate(0.867188 268.367117)scale(0.1 -0.1)">
       <use xlink:href="#DejaVuSans-8722"/>
       <use x="83.789062" xlink:href="#DejaVuSans-48"/>
       <use x="147.412109" xlink:href="#DejaVuSans-46"/>
       <use x="179.199219" xlink:href="#DejaVuSans-48"/>
       <use x="242.822266" xlink:href="#DejaVuSans-48"/>
       <use x="306.445312" xlink:href="#DejaVuSans-48"/>
       <use x="370.068359" xlink:href="#DejaVuSans-49"/>
       <use x="433.691406" xlink:href="#DejaVuSans-48"/>
      </g>
     </g>
    </g>
    <g id="ytick_2">
     <g id="line2d_9">
      <g>
       <use style="stroke:#000000;stroke-width:0.8;" x="57.6" xlink:href="#md221acdfa5" y="216.664086"/>
      </g>
     </g>
     <g id="text_9">
      <!-- −0.00005 -->
      <g transform="translate(0.867188 220.463305)scale(0.1 -0.1)">
       <use xlink:href="#DejaVuSans-8722"/>
       <use x="83.789062" xlink:href="#DejaVuSans-48"/>
       <use x="147.412109" xlink:href="#DejaVuSans-46"/>
       <use x="179.199219" xlink:href="#DejaVuSans-48"/>
       <use x="242.822266" xlink:href="#DejaVuSans-48"/>
       <use x="306.445312" xlink:href="#DejaVuSans-48"/>
       <use x="370.068359" xlink:href="#DejaVuSans-48"/>
       <use x="433.691406" xlink:href="#DejaVuSans-53"/>
      </g>
     </g>
    </g>
    <g id="ytick_3">
     <g id="line2d_10">
      <g>
       <use style="stroke:#000000;stroke-width:0.8;" x="57.6" xlink:href="#md221acdfa5" y="168.760274"/>
      </g>
     </g>
     <g id="text_10">
      <!-- 0.00000 -->
      <g transform="translate(9.246875 172.559493)scale(0.1 -0.1)">
       <use xlink:href="#DejaVuSans-48"/>
       <use x="63.623047" xlink:href="#DejaVuSans-46"/>
       <use x="95.410156" xlink:href="#DejaVuSans-48"/>
       <use x="159.033203" xlink:href="#DejaVuSans-48"/>
       <use x="222.65625" xlink:href="#DejaVuSans-48"/>
       <use x="286.279297" xlink:href="#DejaVuSans-48"/>
       <use x="349.902344" xlink:href="#DejaVuSans-48"/>
      </g>
     </g>
    </g>
    <g id="ytick_4">
     <g id="line2d_11">
      <g>
       <use style="stroke:#000000;stroke-width:0.8;" x="57.6" xlink:href="#md221acdfa5" y="120.856462"/>
      </g>
     </g>
     <g id="text_11">
      <!-- 0.00005 -->
      <g transform="translate(9.246875 124.655681)scale(0.1 -0.1)">
       <use xlink:href="#DejaVuSans-48"/>
       <use x="63.623047" xlink:href="#DejaVuSans-46"/>
       <use x="95.410156" xlink:href="#DejaVuSans-48"/>
       <use x="159.033203" xlink:href="#DejaVuSans-48"/>
       <use x="222.65625" xlink:href="#DejaVuSans-48"/>
       <use x="286.279297" xlink:href="#DejaVuSans-48"/>
       <use x="349.902344" xlink:href="#DejaVuSans-53"/>
      </g>
     </g>
    </g>
    <g id="ytick_5">
     <g id="line2d_12">
      <g>
       <use style="stroke:#000000;stroke-width:0.8;" x="57.6" xlink:href="#md221acdfa5" y="72.95265"/>
      </g>
     </g>
     <g id="text_12">
      <!-- 0.00010 -->
      <g transform="translate(9.246875 76.751868)scale(0.1 -0.1)">
       <use xlink:href="#DejaVuSans-48"/>
       <use x="63.623047" xlink:href="#DejaVuSans-46"/>
       <use x="95.410156" xlink:href="#DejaVuSans-48"/>
       <use x="159.033203" xlink:href="#DejaVuSans-48"/>
       <use x="222.65625" xlink:href="#DejaVuSans-48"/>
       <use x="286.279297" xlink:href="#DejaVuSans-49"/>
       <use x="349.902344" xlink:href="#DejaVuSans-48"/>
      </g>
     </g>
    </g>
   </g>
   <g id="line2d_13">
    <path clip-path="url(#pac8aa89497)" d="M 74.542561 -1 
L 74.670957 346.6 
M 75.474001 346.6 
L 75.689526 -1 
M 76.589205 -1 
L 77.04091 346.6 
M 77.102909 346.6 
L 77.290847 -1 
M 77.980179 -1 
L 78.176379 346.6 
M 79.768358 346.6 
L 80.133047 -1 
M 81.209163 -1 
L 81.420647 256.009562 
L 81.962641 130.022165 
L 82.504635 127.011918 
L 82.762633 346.6 
M 83.455951 346.6 
L 83.97854 -1 
M 84.203271 -1 
L 84.443754 346.6 
M 84.787039 346.6 
L 84.907278 -1 
M 85.51938 -1 
L 85.63862 346.6 
M 85.94835 346.6 
L 86.142146 -1 
M 87.026812 -1 
L 87.132751 346.6 
M 87.66997 346.6 
L 87.791833 -1 
M 88.21217 -1 
L 88.466572 333.936992 
L 88.763364 -1 
M 89.222138 -1 
L 89.490419 346.6 
M 89.940489 346.6 
L 90.092554 316.211783 
L 90.280934 -1 
M 90.994487 -1 
L 91.176543 300.175636 
L 91.718537 281.437376 
L 91.82791 346.6 
M 94.034168 346.6 
L 94.423399 -1 
M 94.433193 -1 
L 94.790074 346.6 
M 95.042868 346.6 
L 95.186004 -1 
M 96.136444 -1 
L 96.234857 346.6 
M 96.953238 346.6 
L 97.050324 -1 
M 97.290311 -1 
L 97.457523 346.6 
M 99.202596 346.6 
L 99.306456 147.896897 
L 99.49201 346.6 
M 100.028872 346.6 
L 100.193175 -1 
M 100.825328 -1 
L 101.294619 346.6 
M 101.536585 346.6 
L 101.714332 -1 
M 102.692765 -1 
L 102.914545 346.6 
M 104.272839 346.6 
L 104.472817 -1 
M 105.903248 -1 
L 106.076883 346.6 
M 106.941951 346.6 
L 107.059791 -1 
M 107.734417 -1 
L 107.827683 346.6 
M 108.238404 346.6 
L 108.39936 -1 
M 108.882047 -1 
L 109.062352 129.265241 
L 109.225312 -1 
M 109.70355 -1 
L 109.817359 346.6 
M 110.824301 346.6 
L 111.0457 -1 
M 111.649784 -1 
L 111.772324 83.68294 
L 111.827556 -1 
M 112.627082 -1 
L 112.772754 346.6 
M 113.637741 346.6 
L 113.940301 169.677334 
L 114.482295 170.543349 
L 114.539549 -1 
M 116.022808 -1 
L 116.108277 84.440181 
L 116.242537 -1 
M 116.784255 -1 
L 116.963744 346.6 
M 119.641638 346.6 
L 119.740473 -1 
M 121.400569 -1 
L 121.52822 329.550605 
L 122.247851 -1 
M 123.582314 -1 
L 123.696197 61.641951 
L 124.133113 -1 
M 125.575068 -1 
L 125.694771 346.6 
M 126.425106 346.6 
L 126.839352 -1 
M 127.00111 -1 
L 127.202685 346.6 
M 127.635435 346.6 
L 127.737305 -1 
M 128.946127 -1 
L 129.074647 346.6 
M 129.931411 346.6 
L 130.107713 -1 
M 131.250751 -1 
L 131.284116 69.682133 
L 131.82611 158.127666 
L 131.980299 -1 
M 134.001285 -1 
L 134.237053 346.6 
M 136.052517 346.6 
L 136.162064 227.748889 
L 136.704058 66.617368 
L 136.90539 346.6 
M 138.474456 346.6 
L 138.587886 -1 
M 139.18555 -1 
L 139.310702 346.6 
M 139.586364 346.6 
L 139.795101 -1 
M 140.779768 -1 
L 140.855114 346.6 
M 142.398429 346.6 
L 142.551252 -1 
M 143.720685 -1 
L 143.749983 70.575541 
L 143.782729 -1 
M 145.492264 -1 
L 145.63723 346.6 
M 146.059842 346.6 
L 146.133108 -1 
M 147.194258 -1 
L 147.352856 346.6 
M 147.664612 346.6 
L 147.764765 -1 
M 148.517588 -1 
L 148.627931 283.949134 
L 148.869473 346.6 
M 149.226321 346.6 
L 149.477863 -1 
M 150.001841 -1 
L 150.253914 280.212892 
L 150.832509 -1 
M 151.446155 -1 
L 151.593622 346.6 
M 152.631364 346.6 
L 152.798274 -1 
M 153.09051 -1 
L 153.218128 346.6 
M 153.945673 346.6 
L 154.174473 -1 
M 154.935731 -1 
L 155.181412 346.6 
M 156.560277 346.6 
L 156.757845 30.402006 
L 156.925734 346.6 
M 157.766698 346.6 
L 158.067019 -1 
M 158.493395 -1 
L 158.60898 346.6 
M 161.257146 346.6 
L 161.635793 183.321076 
L 161.938834 -1 
M 162.282871 -1 
L 162.534193 346.6 
M 162.906878 346.6 
L 163.160242 -1 
M 163.411468 -1 
L 163.785004 346.6 
M 164.663602 346.6 
L 165.025994 -1 
M 168.736157 -1 
L 168.903921 346.6 
M 169.450997 346.6 
L 169.570232 -1 
M 171.680186 -1 
L 171.7868 346.6 
M 172.195705 346.6 
L 172.385892 -1 
M 172.588883 -1 
L 172.828677 346.6 
M 173.127745 346.6 
L 173.267404 -1 
M 174.851057 -1 
L 174.933033 346.6 
M 175.543737 346.6 
L 175.659939 -1 
M 175.815185 -1 
L 175.965434 346.6 
M 176.50435 346.6 
L 176.620278 -1 
M 177.62477 -1 
L 177.89562 112.859733 
L 178.105058 -1 
M 178.737189 -1 
L 178.979608 145.299462 
L 179.150758 -1 
M 179.713758 -1 
L 179.924462 346.6 
M 180.753502 346.6 
L 180.936825 -1 
M 182.232057 -1 
L 182.43224 346.6 
M 182.898667 346.6 
L 182.972035 -1 
M 184.599169 -1 
L 184.674261 346.6 
M 185.244202 346.6 
L 185.329232 -1 
M 185.674665 -1 
L 185.779984 346.6 
M 186.318161 346.6 
L 186.443671 -1 
M 186.820547 -1 
L 187.076944 346.6 
M 187.999629 346.6 
L 188.249203 -1 
M 189.398728 -1 
L 189.56521 346.6 
M 190.046058 346.6 
L 190.194394 -1 
M 190.787891 -1 
L 190.903482 105.144306 
L 191.445476 214.881637 
L 191.98747 241.571623 
L 192.34352 -1 
M 192.623414 -1 
L 192.881205 346.6 
M 193.896412 346.6 
L 194.016271 -1 
M 195.157104 -1 
L 195.456285 346.6 
M 196.054208 346.6 
L 196.286566 -1 
M 196.367864 -1 
L 196.648026 346.6 
M 197.018336 346.6 
L 197.215407 -1 
M 197.634744 -1 
L 197.868072 346.6 
M 198.003286 346.6 
L 198.157854 -1 
M 199.768865 -1 
L 200.009594 346.6 
M 200.927222 346.6 
L 201.172504 -1 
M 201.217806 -1 
L 201.357441 346.6 
M 202.086903 346.6 
L 202.211201 -1 
M 204.647393 -1 
L 204.995332 138.151865 
L 205.154337 -1 
M 206.125265 -1 
L 206.388647 346.6 
M 207.497974 346.6 
L 207.652149 -1 
M 209.704554 -1 
L 209.87328 227.647803 
L 209.972747 -1 
M 211.229308 -1 
L 211.501596 346.6 
M 212.57344 346.6 
L 212.583251 332.887034 
L 212.687284 346.6 
M 213.751236 346.6 
L 214.209234 31.828277 
L 214.751228 134.648711 
L 214.842989 -1 
M 215.874027 -1 
L 216.063204 346.6 
M 216.567733 346.6 
L 216.682515 -1 
M 217.203373 -1 
L 217.34118 346.6 
M 219.449095 346.6 
L 219.539214 -1 
M 219.842809 -1 
L 220.056816 346.6 
M 220.300967 346.6 
L 220.543876 -1 
M 220.804096 -1 
L 220.934573 346.6 
M 221.75116 346.6 
L 221.797153 267.403868 
L 222.23143 -1 
M 223.469496 -1 
L 223.657895 346.6 
M 224.146521 346.6 
L 224.257751 -1 
M 225.686797 -1 
L 225.854705 346.6 
M 226.479371 346.6 
L 226.74447 -1 
M 227.37902 -1 
L 227.757694 346.6 
M 229.799623 346.6 
L 229.90516 -1 
M 229.96245 -1 
L 230.132921 346.6 
M 230.693041 346.6 
L 230.806631 -1 
M 231.212328 -1 
L 231.324167 346.6 
M 235.145822 346.6 
L 235.347009 158.441996 
L 235.675619 346.6 
M 236.787845 346.6 
L 236.922091 -1 
M 238.005785 -1 
L 238.178907 346.6 
M 239.674915 346.6 
L 239.890696 -1 
M 240.479511 -1 
L 240.644578 346.6 
M 241.079441 346.6 
L 241.308945 157.340234 
L 241.76415 346.6 
M 241.973727 346.6 
L 242.392934 223.405651 
L 242.476593 346.6 
M 243.334443 346.6 
L 243.476922 105.899689 
L 243.658717 346.6 
M 244.233147 346.6 
L 244.38929 -1 
M 244.700467 -1 
L 244.827437 346.6 
M 245.611364 346.6 
L 245.843007 -1 
M 246.356183 -1 
L 246.469993 346.6 
M 247.413623 346.6 
L 247.50691 -1 
M 248.448926 -1 
L 248.607496 346.6 
M 249.44233 346.6 
L 249.924558 -1 
M 250.026804 -1 
L 250.420431 346.6 
M 253.883314 346.6 
L 254.144008 -1 
M 255.634934 -1 
L 255.838479 346.6 
M 256.769826 346.6 
L 256.874549 -1 
M 257.9806 -1 
L 258.071581 346.6 
M 258.205335 346.6 
L 258.424902 -1 
M 258.922214 -1 
L 259.181863 346.6 
M 259.391269 346.6 
L 259.736749 316.257566 
L 260.278743 325.108975 
L 260.370313 346.6 
M 261.449682 346.6 
L 261.572015 -1 
M 262.925705 -1 
L 263.152793 346.6 
M 263.74761 346.6 
L 263.89139 -1 
M 265.978911 -1 
L 266.154109 346.6 
M 266.347468 346.6 
L 266.563583 -1 
M 267.5062 -1 
L 267.681156 346.6 
M 268.025297 346.6 
L 268.174909 -1 
M 269.347853 -1 
L 269.484245 346.6 
M 269.498445 346.6 
L 269.592616 -1 
M 270.594483 -1 
L 270.754348 346.6 
M 271.561179 346.6 
L 271.660622 168.618317 
L 271.765072 346.6 
M 272.881219 346.6 
L 273.082588 -1 
M 274.36022 -1 
L 274.370593 24.436787 
L 274.86086 346.6 
M 274.967167 346.6 
L 275.454582 43.041018 
L 275.995698 346.6 
M 277.39123 346.6 
L 277.521239 -1 
M 279.186145 -1 
L 279.427858 346.6 
M 280.159763 346.6 
L 280.36835 -1 
M 281.573261 -1 
L 281.712731 346.6 
M 282.146208 346.6 
L 282.252717 -1 
M 283.385854 -1 
L 283.622281 346.6 
M 284.572812 346.6 
L 284.668484 202.24992 
L 285.210478 158.25157 
L 285.752472 37.292027 
L 285.912918 346.6 
M 287.200633 346.6 
L 287.372729 -1 
M 287.389606 -1 
L 287.724788 346.6 
M 289.255676 346.6 
L 289.546432 21.58922 
L 289.718906 346.6 
M 290.298744 346.6 
L 290.403734 -1 
M 291.504269 -1 
L 291.714409 148.677763 
L 292.256403 293.250798 
L 292.353251 -1 
M 293.799081 -1 
L 293.882386 244.628617 
L 294.218366 -1 
M 294.531328 -1 
L 294.778154 346.6 
M 295.494826 346.6 
L 295.508368 339.80737 
L 295.51926 346.6 
M 297.00721 346.6 
L 297.122669 -1 
M 297.163137 -1 
L 297.44764 346.6 
M 297.8607 346.6 
L 298.090034 -1 
M 298.362762 -1 
L 298.620901 346.6 
M 299.089442 346.6 
L 299.302328 225.14963 
L 299.446314 -1 
M 301.015309 -1 
L 301.205806 346.6 
M 301.778207 346.6 
L 301.999963 -1 
M 302.020791 -1 
L 302.173448 346.6 
M 303.282051 346.6 
L 303.372081 -1 
M 304.059132 -1 
L 304.180276 294.853915 
L 304.634881 346.6 
M 304.728607 346.6 
L 304.950034 -1 
M 305.545321 -1 
L 305.743371 346.6 
M 305.884566 346.6 
L 306.131173 -1 
M 306.481329 -1 
L 306.632505 346.6 
M 307.127313 346.6 
L 307.266361 -1 
M 308.409889 -1 
L 308.570294 346.6 
M 309.269484 346.6 
L 309.383594 -1 
M 310.012773 -1 
L 310.142213 206.038325 
L 310.653164 -1 
M 310.689502 -1 
L 310.83584 346.6 
M 311.67083 346.6 
L 311.768195 143.55285 
L 312.32579 346.6 
M 313.061996 346.6 
L 313.246961 -1 
M 314.091904 -1 
L 314.287566 346.6 
M 315.383008 346.6 
L 315.541555 -1 
M 316.877265 -1 
L 316.994683 346.6 
M 317.527041 346.6 
L 317.738963 -1 
M 318.439854 -1 
L 318.659082 346.6 
M 320.637994 346.6 
L 320.733305 -1 
M 322.442215 -1 
L 322.596384 346.6 
M 323.712007 346.6 
L 324.051811 -1 
M 324.389471 -1 
L 324.679228 346.6 
M 324.814282 346.6 
L 324.928668 -1 
M 325.548473 -1 
L 325.616163 346.6 
M 326.163324 346.6 
L 326.247498 -1 
M 326.549055 -1 
L 326.62913 346.6 
M 329.122331 346.6 
L 329.412075 -1 
M 330.490781 -1 
L 330.811851 346.6 
M 331.95356 346.6 
L 332.170211 -1 
M 332.550293 -1 
L 332.758615 346.6 
M 333.004979 346.6 
L 333.144952 -1 
M 333.717371 -1 
L 333.841819 346.6 
M 334.24688 346.6 
L 334.462712 -1 
M 334.652295 -1 
L 335.027415 346.6 
M 336.535425 346.6 
L 336.668026 -1 
M 338.122823 -1 
L 338.27446 346.6 
M 339.260444 346.6 
L 339.409901 167.065445 
L 339.789595 346.6 
M 340.074149 346.6 
L 340.655282 -1 
M 343.208246 -1 
L 343.5615 346.6 
M 345.280832 346.6 
L 345.371838 253.43364 
L 345.448129 346.6 
M 346.092813 346.6 
L 346.202206 -1 
M 346.63028 -1 
L 346.705526 346.6 
M 347.324152 346.6 
L 347.40816 -1 
M 347.729825 -1 
L 347.85107 346.6 
M 349.47977 346.6 
L 349.634705 -1 
M 350.276667 -1 
L 350.665515 346.6 
M 350.895095 346.6 
L 351.213263 -1 
M 351.423851 -1 
L 351.661666 346.6 
M 353.157253 346.6 
L 353.501751 95.538444 
L 353.674778 346.6 
M 354.408904 346.6 
L 354.58574 87.33367 
L 355.133755 346.6 
M 357.194657 346.6 
L 357.295711 220.849275 
L 357.377926 346.6 
M 358.185849 346.6 
L 358.357929 -1 
M 359.111582 -1 
L 359.24989 346.6 
M 359.901269 346.6 
L 360.079808 -1 
M 361.142054 -1 
L 361.311635 346.6 
M 362.085333 346.6 
L 362.291568 -1 
M 363.118038 -1 
L 363.257648 273.394782 
L 363.391482 -1 
M 364.064134 -1 
L 364.173998 346.6 
M 364.689621 346.6 
L 364.906975 -1 
M 365.756321 -1 
L 365.856025 346.6 
M 366.210829 346.6 
L 366.428128 -1 
M 368.297457 -1 
L 368.509452 346.6 
M 368.877964 346.6 
L 369.130605 -1 
M 369.31927 -1 
L 369.60231 346.6 
M 371.911732 346.6 
L 371.929555 325.590281 
L 372.47155 312.560774 
L 373.013544 264.024791 
L 373.085553 346.6 
M 373.760578 346.6 
L 373.892821 -1 
M 374.320601 -1 
L 374.464703 346.6 
M 375.042709 346.6 
L 375.348678 -1 
M 376.021142 -1 
L 376.249072 346.6 
M 376.296156 346.6 
L 376.721109 -1 
M 376.844457 -1 
L 377.02622 346.6 
M 377.484288 346.6 
L 377.560073 -1 
M 379.440365 -1 
L 379.517475 264.071937 
L 379.736945 346.6 
M 380.804529 346.6 
L 380.946444 -1 
M 382.291305 -1 
L 382.538378 346.6 
M 383.465526 346.6 
L 383.630296 -1 
M 384.463237 -1 
L 384.937417 257.021092 
L 385.414156 -1 
M 385.505646 -1 
L 385.763849 346.6 
M 386.199491 346.6 
L 386.378023 -1 
M 387.174429 -1 
L 387.657817 346.6 
M 388.417193 346.6 
L 388.531799 -1 
M 389.75511 -1 
L 389.815365 64.004013 
L 389.911588 -1 
M 390.574549 -1 
L 390.825244 346.6 
M 392.178912 346.6 
L 392.317748 -1 
M 392.939186 -1 
L 393.1796 346.6 
M 395.100641 346.6 
L 395.325567 -1 
M 396.875135 -1 
L 397.016011 346.6 
M 397.623509 346.6 
L 397.703618 -1 
M 398.283876 -1 
L 398.396119 346.6 
L 398.396119 346.6 
" style="fill:none;stroke:#1f77b4;stroke-linecap:square;stroke-width:1.5;"/>
   </g>
   <g id="line2d_14">
    <path clip-path="url(#pac8aa89497)" d="M 76.200633 -1 
L 76.332024 346.6 
M 76.721215 346.6 
L 76.83255 -1 
M 77.720693 -1 
L 77.876313 346.6 
M 78.472768 346.6 
L 78.634627 -1 
M 80.46779 -1 
L 80.565981 346.6 
M 82.053607 346.6 
L 82.377303 -1 
M 83.443454 -1 
L 83.588623 288.54399 
L 83.971142 346.6 
M 84.146578 346.6 
L 84.375784 -1 
M 84.940605 -1 
L 85.147545 346.6 
M 85.921066 346.6 
L 86.077069 -1 
M 86.601515 -1 
L 86.814839 346.6 
M 87.012097 346.6 
L 87.382583 255.965416 
L 87.614004 -1 
M 88.79719 -1 
L 89.003601 346.6 
M 89.019652 346.6 
L 89.480539 -1 
M 89.574038 -1 
L 89.728569 346.6 
M 90.422617 346.6 
L 90.562746 -1 
M 90.927779 -1 
L 91.176543 150.101814 
L 91.290085 -1 
M 91.954288 -1 
L 92.098009 346.6 
M 92.588398 346.6 
L 92.941338 -1 
M 95.668926 -1 
L 96.120188 346.6 
M 96.810019 346.6 
L 96.959309 -1 
M 99.696596 -1 
L 99.84845 177.42485 
L 100.184932 -1 
M 100.513687 -1 
L 100.906788 346.6 
M 100.938379 346.6 
L 101.029407 -1 
M 101.95548 -1 
L 102.016427 214.305779 
L 102.319413 346.6 
M 103.298474 346.6 
L 103.454653 -1 
M 104.30173 -1 
L 104.605649 346.6 
M 104.839305 346.6 
L 105.123485 -1 
M 106.486683 -1 
L 106.753001 346.6 
M 107.230064 346.6 
L 107.947737 -1 
M 108.049837 -1 
L 108.520358 91.340502 
L 108.771025 346.6 
M 109.905087 346.6 
L 110.146341 108.030952 
L 110.688335 162.405269 
L 111.086311 -1 
M 113.278184 -1 
L 113.398306 238.766863 
L 113.940301 327.584223 
L 114.455179 -1 
M 114.515527 -1 
L 115.024289 263.922195 
L 115.336964 -1 
M 117.504982 -1 
L 117.604856 346.6 
M 118.971438 346.6 
L 119.14287 -1 
M 119.822579 -1 
L 119.902237 74.939027 
L 120.061058 -1 
M 120.806798 -1 
L 120.986226 89.667357 
L 121.346391 -1 
M 122.273522 -1 
L 122.416915 346.6 
M 122.845515 346.6 
L 123.016819 -1 
M 123.824148 -1 
L 124.14752 346.6 
M 124.909971 346.6 
L 125.061448 -1 
M 126.16062 -1 
L 126.296448 346.6 
M 127.060977 346.6 
L 127.249036 -1 
M 127.785049 -1 
L 128.015048 346.6 
M 128.58364 346.6 
L 128.711327 -1 
M 129.569846 -1 
L 129.658133 213.443387 
L 129.839199 -1 
M 130.47746 -1 
L 130.702979 346.6 
M 131.530753 346.6 
L 131.82611 9.787243 
L 132.180243 346.6 
M 134.783899 346.6 
L 135.08185 -1 
M 136.101561 -1 
L 136.162064 98.691323 
L 136.326072 -1 
M 136.92389 -1 
L 137.246053 335.709227 
L 137.486577 -1 
M 137.944368 -1 
L 138.073122 346.6 
M 138.654963 346.6 
L 138.817796 -1 
M 139.166001 -1 
L 139.414029 96.691606 
L 139.488929 -1 
M 140.891741 -1 
L 141.040012 73.229835 
L 141.168719 346.6 
M 142.542863 346.6 
L 142.665995 63.727694 
L 142.840218 346.6 
M 143.597997 346.6 
L 143.749983 113.902225 
L 143.984128 346.6 
M 145.301455 346.6 
L 145.375966 169.406671 
L 145.867104 346.6 
M 146.657381 346.6 
L 146.803817 -1 
M 148.210316 -1 
L 148.318103 346.6 
M 149.421961 346.6 
L 149.518055 -1 
M 150.892286 -1 
L 151.206832 346.6 
M 151.405777 346.6 
L 151.568664 -1 
M 152.124193 -1 
L 152.252047 346.6 
M 152.933243 346.6 
L 152.963885 318.929717 
L 153.505879 105.514476 
L 154.036942 346.6 
M 155.624136 346.6 
L 155.673856 245.948781 
L 155.966876 346.6 
M 156.272066 346.6 
L 156.500549 -1 
M 156.962276 -1 
L 157.143814 346.6 
M 157.411201 346.6 
L 157.540773 -1 
M 158.239367 -1 
L 158.383828 292.492442 
L 158.558533 -1 
M 159.081718 -1 
L 159.169543 346.6 
M 159.747733 346.6 
L 159.830153 -1 
M 160.803875 -1 
L 160.897215 346.6 
M 162.631634 346.6 
L 162.719781 129.718972 
L 162.844341 346.6 
M 163.52565 346.6 
L 163.651846 -1 
M 163.960695 -1 
L 164.091044 346.6 
M 166.478788 346.6 
L 166.513741 315.726709 
L 166.527894 346.6 
M 167.397029 346.6 
L 167.500062 -1 
M 167.77914 -1 
L 167.970518 346.6 
M 168.294644 346.6 
L 168.469863 -1 
M 169.170339 -1 
L 169.223712 44.907419 
L 169.30391 -1 
M 169.960761 -1 
L 170.217249 346.6 
M 172.160563 346.6 
L 172.556521 -1 
M 174.367024 -1 
L 174.492264 346.6 
M 174.862643 346.6 
L 175.043804 -1 
M 176.149487 -1 
L 176.269637 279.748877 
L 176.536289 -1 
M 176.975833 -1 
L 177.172717 346.6 
M 178.316633 346.6 
L 178.437614 249.983179 
L 178.979608 60.530483 
L 179.521603 240.772291 
L 180.063597 342.528077 
L 180.309348 -1 
M 182.113733 -1 
L 182.220051 346.6 
M 182.256867 346.6 
L 182.490234 -1 
M 182.983984 -1 
L 183.157292 346.6 
M 184.821667 346.6 
L 184.941545 301.131433 
L 184.968458 346.6 
M 187.930074 346.6 
L 188.19351 92.726828 
L 188.465819 346.6 
M 189.20833 346.6 
L 189.277499 309.81915 
L 189.306721 346.6 
M 190.015449 346.6 
L 190.120986 -1 
M 190.614485 -1 
L 190.725507 346.6 
M 191.48313 346.6 
L 191.712228 -1 
M 192.885922 -1 
L 193.071458 286.999563 
L 193.27867 -1 
M 193.785873 -1 
L 193.914676 346.6 
M 194.461988 346.6 
L 194.625975 -1 
M 194.993013 -1 
L 195.239435 125.295112 
L 195.390261 346.6 
M 196.708019 346.6 
L 197.087691 -1 
M 197.720625 -1 
L 197.949407 160.920474 
L 198.303008 -1 
M 199.134072 -1 
L 199.495251 346.6 
M 199.609786 346.6 
L 199.764811 -1 
M 200.828187 -1 
L 200.998889 346.6 
M 201.440112 346.6 
L 201.641382 -1 
M 202.988988 -1 
L 203.289525 346.6 
M 205.857477 346.6 
L 206.011976 -1 
M 207.426809 -1 
L 207.576955 346.6 
M 207.863868 346.6 
L 208.049366 -1 
M 208.674234 -1 
L 208.789291 98.955658 
L 208.872299 -1 
M 209.596887 -1 
L 209.763926 346.6 
M 209.963108 346.6 
L 210.100322 -1 
M 210.683266 -1 
L 210.800021 346.6 
M 211.652272 346.6 
L 211.965801 -1 
M 213.769784 -1 
L 213.921274 346.6 
M 214.578016 346.6 
L 214.751228 36.262026 
L 215.080461 346.6 
M 215.934075 346.6 
L 216.043559 -1 
M 216.8103 -1 
L 216.919205 265.372997 
L 217.239177 -1 
M 218.695508 -1 
L 218.815183 346.6 
M 219.511155 346.6 
L 219.629176 126.680002 
L 219.785166 346.6 
M 221.022038 346.6 
L 221.255159 271.330098 
L 221.749544 346.6 
M 222.553272 346.6 
L 222.817563 -1 
M 223.086069 -1 
L 223.423136 136.536123 
L 223.510567 -1 
M 224.796883 -1 
L 225.049118 111.896448 
L 225.289682 -1 
M 227.224497 -1 
L 227.50556 346.6 
M 228.533523 346.6 
L 228.614151 -1 
M 229.101581 -1 
L 229.192625 346.6 
M 229.851093 346.6 
L 229.927066 226.818509 
L 230.101531 346.6 
M 230.606868 346.6 
L 230.796704 -1 
M 231.709588 -1 
L 231.836818 346.6 
M 233.311329 346.6 
L 233.452365 -1 
M 233.992907 -1 
L 234.135633 346.6 
M 235.329835 346.6 
L 235.347009 333.615854 
L 235.604514 346.6 
M 235.898688 346.6 
L 236.133366 -1 
M 236.578349 -1 
L 236.694534 346.6 
M 237.250467 346.6 
L 237.366243 -1 
M 237.913633 -1 
L 238.05698 159.581914 
L 238.598974 207.125806 
L 239.140968 207.125806 
L 239.381747 346.6 
M 239.954994 346.6 
L 240.224957 173.443881 
L 240.36036 346.6 
M 241.921044 346.6 
L 242.054616 -1 
M 242.699342 -1 
L 242.820316 346.6 
M 244.358679 346.6 
L 244.470465 -1 
M 244.992752 -1 
L 245.102905 70.737555 
L 245.644899 163.467975 
L 245.848954 346.6 
M 246.443607 346.6 
L 246.728888 9.562445 
L 247.270882 35.974414 
L 247.312174 -1 
M 248.079457 -1 
L 248.286135 346.6 
M 248.846881 346.6 
L 248.896864 334.855802 
L 249.054843 -1 
M 249.638585 -1 
L 249.723623 346.6 
M 250.278563 346.6 
L 250.376983 -1 
M 251.231534 -1 
L 251.358429 346.6 
M 252.427078 346.6 
L 252.690824 243.579798 
L 253.232818 216.402638 
L 253.774813 216.402638 
L 253.840069 346.6 
M 254.578563 346.6 
L 254.67422 -1 
M 255.139496 -1 
L 255.284965 346.6 
M 256.666476 346.6 
L 256.960337 -1 
M 257.062027 -1 
L 257.217928 346.6 
M 257.821267 346.6 
L 257.933465 -1 
M 260.21186 -1 
L 260.278743 49.477469 
L 260.297288 -1 
M 262.102225 -1 
L 262.225553 346.6 
M 263.385211 346.6 
L 263.496308 -1 
M 263.580227 -1 
L 263.740142 346.6 
M 264.273196 346.6 
L 264.369605 -1 
M 264.977384 -1 
L 265.12005 346.6 
M 265.914648 346.6 
L 266.107707 -1 
M 266.336955 -1 
L 266.476733 346.6 
M 267.115004 346.6 
L 267.26684 -1 
M 267.384032 -1 
L 267.539898 346.6 
M 268.756095 346.6 
L 268.849491 -1 
M 269.197531 -1 
L 269.425461 346.6 
M 270.220045 346.6 
L 270.506711 -1 
M 270.62111 -1 
L 270.803451 346.6 
M 272.409694 346.6 
L 272.533709 -1 
M 272.973752 -1 
L 273.108493 346.6 
M 273.534295 346.6 
L 273.721672 -1 
M 273.994318 -1 
L 274.284723 346.6 
M 275.649634 346.6 
L 276.208692 -1 
M 276.603714 -1 
L 276.720693 346.6 
M 277.632812 346.6 
L 277.786317 -1 
M 278.824131 -1 
L 279.058266 346.6 
M 279.374297 346.6 
L 279.529041 -1 
M 280.130356 -1 
L 280.33145 346.6 
M 280.333769 346.6 
L 280.564419 -1 
M 281.347917 -1 
L 281.416518 66.725393 
L 281.958513 57.514365 
L 282.264128 346.6 
M 282.87897 346.6 
L 283.042501 249.987163 
L 283.584495 224.270798 
L 284.12649 282.859839 
L 284.518907 -1 
M 285.272883 -1 
L 285.555254 346.6 
M 285.892476 346.6 
L 286.092928 -1 
M 287.66836 -1 
L 287.867452 346.6 
M 289.423577 346.6 
L 289.546432 135.745516 
L 289.713555 346.6 
M 292.030343 346.6 
L 292.256403 229.654037 
L 292.487618 346.6 
M 293.790209 346.6 
L 293.882386 314.388714 
L 294.135739 -1 
M 295.239796 -1 
L 295.474734 346.6 
M 297.446231 346.6 
L 297.55015 -1 
M 298.056304 -1 
L 298.21834 179.013385 
L 298.365024 -1 
M 298.945627 -1 
L 299.07839 346.6 
M 300.005852 346.6 
L 300.136566 -1 
M 301.040581 -1 
L 301.223105 346.6 
M 301.625832 346.6 
L 301.740669 -1 
M 302.349202 -1 
L 302.491634 346.6 
M 302.617531 346.6 
L 302.761277 -1 
M 303.673176 -1 
L 303.956263 346.6 
M 305.182235 346.6 
L 305.264265 299.944957 
L 305.304017 346.6 
M 306.111211 346.6 
L 306.291041 -1 
M 306.417926 -1 
L 306.636925 346.6 
M 307.115019 346.6 
L 307.309336 -1 
M 307.578894 -1 
L 307.810756 346.6 
M 308.236554 346.6 
L 308.51623 85.298051 
L 308.646843 346.6 
M 309.437076 346.6 
L 309.597088 -1 
M 309.604856 -1 
L 309.841869 346.6 
M 311.439003 346.6 
L 311.746229 -1 
M 312.907908 -1 
L 313.093663 346.6 
M 314.210656 346.6 
L 314.380319 -1 
M 315.388913 -1 
L 315.562155 338.996318 
L 315.996994 -1 
M 316.2109 -1 
L 316.657448 346.6 
M 317.28972 346.6 
L 317.415134 -1 
M 318.801052 -1 
L 318.814121 6.340011 
L 319.356115 147.025877 
L 319.47228 346.6 
M 320.793348 346.6 
L 320.958067 -1 
M 321.641197 -1 
L 322.066086 333.839984 
L 322.20161 346.6 
M 322.625158 346.6 
L 322.780268 -1 
M 323.470807 -1 
L 323.605334 346.6 
M 323.769149 346.6 
L 323.888702 -1 
M 324.944439 -1 
L 325.204004 346.6 
M 325.589697 346.6 
L 325.860046 194.600588 
L 325.92234 -1 
M 326.766852 -1 
L 326.851041 346.6 
M 327.060813 346.6 
L 327.166536 -1 
M 328.023257 -1 
L 328.028022 8.31796 
L 328.346292 346.6 
M 329.511933 346.6 
L 329.654005 1.594318 
L 330.195999 1.594318 
L 330.216369 -1 
M 330.893374 -1 
L 331.279988 164.298885 
L 331.813577 -1 
M 333.135059 -1 
L 333.321049 346.6 
M 333.923269 346.6 
L 333.989959 313.319288 
L 334.531953 240.888892 
L 334.785123 -1 
M 335.220065 -1 
L 335.404119 346.6 
M 335.953276 346.6 
L 336.157936 103.896212 
L 336.31161 346.6 
M 337.520159 346.6 
L 337.670113 -1 
M 338.0304 -1 
L 338.325913 315.280986 
L 338.442238 -1 
M 339.268144 -1 
L 339.388351 346.6 
M 339.469206 346.6 
L 339.8 -1 
M 340.065101 -1 
L 340.311638 346.6 
M 340.72588 346.6 
L 341.035884 3.224513 
L 341.254242 346.6 
M 342.8519 346.6 
L 342.976713 -1 
M 343.488778 -1 
L 343.645333 346.6 
M 343.802892 346.6 
L 343.891721 -1 
M 344.804796 -1 
L 344.829844 74.108117 
L 345.371838 104.58923 
L 345.882567 346.6 
M 346.549865 346.6 
L 346.704657 -1 
M 347.913128 -1 
L 348.081809 101.085107 
L 348.623803 317.220386 
L 349.707792 317.237089 
L 349.994662 -1 
M 351.462742 -1 
L 351.667722 346.6 
M 353.787773 346.6 
L 353.893519 -1 
M 354.22477 -1 
L 354.352194 346.6 
M 354.792059 346.6 
L 354.904628 -1 
M 355.438512 -1 
L 355.595316 346.6 
M 355.90339 346.6 
L 356.211723 128.93052 
L 356.37117 346.6 
M 356.98126 346.6 
L 357.132713 -1 
M 357.621257 -1 
L 357.837705 247.727397 
L 358.379699 195.830459 
L 358.515101 346.6 
M 359.339393 346.6 
L 359.580417 -1 
M 360.680159 -1 
L 360.877329 346.6 
M 361.628998 346.6 
L 361.631665 344.748776 
L 361.956666 -1 
M 362.434217 -1 
L 362.793955 346.6 
M 364.230637 346.6 
L 364.341636 54.132881 
L 364.742665 346.6 
M 365.380171 346.6 
L 365.425625 337.189123 
L 365.468229 346.6 
M 366.043441 346.6 
L 366.282367 -1 
M 367.31412 -1 
L 367.458712 346.6 
M 368.778171 346.6 
L 369.249508 -1 
M 370.661094 -1 
L 370.845567 259.150712 
L 371.375399 346.6 
M 373.617729 346.6 
L 373.790529 -1 
M 374.458137 -1 
L 374.639526 309.640609 
L 374.959492 -1 
M 375.368983 -1 
L 375.671276 346.6 
M 375.746007 346.6 
L 375.87616 -1 
M 377.03178 -1 
L 377.221269 346.6 
M 377.472725 346.6 
L 377.654824 -1 
M 379.558786 -1 
L 379.741759 346.6 
M 380.299897 346.6 
L 380.438361 -1 
M 380.803109 -1 
L 380.974296 346.6 
M 381.291999 346.6 
L 381.44232 -1 
M 381.878421 -1 
L 381.997728 346.6 
M 382.536943 346.6 
L 382.697684 -1 
M 383.414338 -1 
L 383.644857 346.6 
M 384.095164 346.6 
L 384.362336 -1 
M 384.420856 -1 
L 384.62623 346.6 
M 385.182592 346.6 
L 385.3444 -1 
M 386.515936 -1 
L 386.5634 17.755714 
L 386.585574 -1 
M 387.360048 -1 
L 387.561372 346.6 
M 388.555974 346.6 
L 388.723529 -1 
M 388.743973 -1 
L 389.012937 346.6 
M 389.765233 346.6 
L 389.815365 312.295173 
L 389.936216 346.6 
M 390.454133 346.6 
L 390.735519 -1 
M 391.047676 -1 
L 391.30242 346.6 
M 392.025668 346.6 
L 392.15719 -1 
M 392.843054 -1 
L 392.956561 346.6 
M 394.811987 346.6 
L 395.183746 -1 
M 395.326688 -1 
L 395.777302 236.73146 
L 396.319296 236.73146 
L 396.67327 -1 
M 396.905011 -1 
L 397.025363 346.6 
M 397.827543 346.6 
L 397.961798 -1 
L 397.961798 -1 
" style="fill:none;stroke:#ff7f0e;stroke-linecap:square;stroke-width:1.5;"/>
   </g>
   <g id="patch_3">
    <path d="M 57.6 307.584 
L 57.6 41.472 
" style="fill:none;stroke:#000000;stroke-linecap:square;stroke-linejoin:miter;stroke-width:0.8;"/>
   </g>
   <g id="patch_4">
    <path d="M 414.72 307.584 
L 414.72 41.472 
" style="fill:none;stroke:#000000;stroke-linecap:square;stroke-linejoin:miter;stroke-width:0.8;"/>
   </g>
   <g id="patch_5">
    <path d="M 57.6 307.584 
L 414.72 307.584 
" style="fill:none;stroke:#000000;stroke-linecap:square;stroke-linejoin:miter;stroke-width:0.8;"/>
   </g>
   <g id="patch_6">
    <path d="M 57.6 41.472 
L 414.72 41.472 
" style="fill:none;stroke:#000000;stroke-linecap:square;stroke-linejoin:miter;stroke-width:0.8;"/>
   </g>
   <g id="text_13">
    <!-- Polyakov loop 0 direction -->
    <defs>
     <path d="M 19.671875 64.796875 
L 19.671875 37.40625 
L 32.078125 37.40625 
Q 38.96875 37.40625 42.71875 40.96875 
Q 46.484375 44.53125 46.484375 51.125 
Q 46.484375 57.671875 42.71875 61.234375 
Q 38.96875 64.796875 32.078125 64.796875 
z
M 9.8125 72.90625 
L 32.078125 72.90625 
Q 44.34375 72.90625 50.609375 67.359375 
Q 56.890625 61.8125 56.890625 51.125 
Q 56.890625 40.328125 50.609375 34.8125 
Q 44.34375 29.296875 32.078125 29.296875 
L 19.671875 29.296875 
L 19.671875 0 
L 9.8125 0 
z
" id="DejaVuSans-80"/>
     <path d="M 30.609375 48.390625 
Q 23.390625 48.390625 19.1875 42.75 
Q 14.984375 37.109375 14.984375 27.296875 
Q 14.984375 17.484375 19.15625 11.84375 
Q 23.34375 6.203125 30.609375 6.203125 
Q 37.796875 6.203125 41.984375 11.859375 
Q 46.1875 17.53125 46.1875 27.296875 
Q 46.1875 37.015625 41.984375 42.703125 
Q 37.796875 48.390625 30.609375 48.390625 
z
M 30.609375 56 
Q 42.328125 56 49.015625 48.375 
Q 55.71875 40.765625 55.71875 27.296875 
Q 55.71875 13.875 49.015625 6.21875 
Q 42.328125 -1.421875 30.609375 -1.421875 
Q 18.84375 -1.421875 12.171875 6.21875 
Q 5.515625 13.875 5.515625 27.296875 
Q 5.515625 40.765625 12.171875 48.375 
Q 18.84375 56 30.609375 56 
z
" id="DejaVuSans-111"/>
     <path d="M 9.421875 75.984375 
L 18.40625 75.984375 
L 18.40625 0 
L 9.421875 0 
z
" id="DejaVuSans-108"/>
     <path d="M 32.171875 -5.078125 
Q 28.375 -14.84375 24.75 -17.8125 
Q 21.140625 -20.796875 15.09375 -20.796875 
L 7.90625 -20.796875 
L 7.90625 -13.28125 
L 13.1875 -13.28125 
Q 16.890625 -13.28125 18.9375 -11.515625 
Q 21 -9.765625 23.484375 -3.21875 
L 25.09375 0.875 
L 2.984375 54.6875 
L 12.5 54.6875 
L 29.59375 11.921875 
L 46.6875 54.6875 
L 56.203125 54.6875 
z
" id="DejaVuSans-121"/>
     <path d="M 34.28125 27.484375 
Q 23.390625 27.484375 19.1875 25 
Q 14.984375 22.515625 14.984375 16.5 
Q 14.984375 11.71875 18.140625 8.90625 
Q 21.296875 6.109375 26.703125 6.109375 
Q 34.1875 6.109375 38.703125 11.40625 
Q 43.21875 16.703125 43.21875 25.484375 
L 43.21875 27.484375 
z
M 52.203125 31.203125 
L 52.203125 0 
L 43.21875 0 
L 43.21875 8.296875 
Q 40.140625 3.328125 35.546875 0.953125 
Q 30.953125 -1.421875 24.3125 -1.421875 
Q 15.921875 -1.421875 10.953125 3.296875 
Q 6 8.015625 6 15.921875 
Q 6 25.140625 12.171875 29.828125 
Q 18.359375 34.515625 30.609375 34.515625 
L 43.21875 34.515625 
L 43.21875 35.40625 
Q 43.21875 41.609375 39.140625 45 
Q 35.0625 48.390625 27.6875 48.390625 
Q 23 48.390625 18.546875 47.265625 
Q 14.109375 46.140625 10.015625 43.890625 
L 10.015625 52.203125 
Q 14.9375 54.109375 19.578125 55.046875 
Q 24.21875 56 28.609375 56 
Q 40.484375 56 46.34375 49.84375 
Q 52.203125 43.703125 52.203125 31.203125 
z
" id="DejaVuSans-97"/>
     <path d="M 9.078125 75.984375 
L 18.109375 75.984375 
L 18.109375 31.109375 
L 44.921875 54.6875 
L 56.390625 54.6875 
L 27.390625 29.109375 
L 57.625 0 
L 45.90625 0 
L 18.109375 26.703125 
L 18.109375 0 
L 9.078125 0 
z
" id="DejaVuSans-107"/>
     <path d="M 2.984375 54.6875 
L 12.5 54.6875 
L 29.59375 8.796875 
L 46.6875 54.6875 
L 56.203125 54.6875 
L 35.6875 0 
L 23.484375 0 
z
" id="DejaVuSans-118"/>
     <path id="DejaVuSans-32"/>
     <path d="M 18.109375 8.203125 
L 18.109375 -20.796875 
L 9.078125 -20.796875 
L 9.078125 54.6875 
L 18.109375 54.6875 
L 18.109375 46.390625 
Q 20.953125 51.265625 25.265625 53.625 
Q 29.59375 56 35.59375 56 
Q 45.5625 56 51.78125 48.09375 
Q 58.015625 40.1875 58.015625 27.296875 
Q 58.015625 14.40625 51.78125 6.484375 
Q 45.5625 -1.421875 35.59375 -1.421875 
Q 29.59375 -1.421875 25.265625 0.953125 
Q 20.953125 3.328125 18.109375 8.203125 
z
M 48.6875 27.296875 
Q 48.6875 37.203125 44.609375 42.84375 
Q 40.53125 48.484375 33.40625 48.484375 
Q 26.265625 48.484375 22.1875 42.84375 
Q 18.109375 37.203125 18.109375 27.296875 
Q 18.109375 17.390625 22.1875 11.75 
Q 26.265625 6.109375 33.40625 6.109375 
Q 40.53125 6.109375 44.609375 11.75 
Q 48.6875 17.390625 48.6875 27.296875 
z
" id="DejaVuSans-112"/>
     <path d="M 45.40625 46.390625 
L 45.40625 75.984375 
L 54.390625 75.984375 
L 54.390625 0 
L 45.40625 0 
L 45.40625 8.203125 
Q 42.578125 3.328125 38.25 0.953125 
Q 33.9375 -1.421875 27.875 -1.421875 
Q 17.96875 -1.421875 11.734375 6.484375 
Q 5.515625 14.40625 5.515625 27.296875 
Q 5.515625 40.1875 11.734375 48.09375 
Q 17.96875 56 27.875 56 
Q 33.9375 56 38.25 53.625 
Q 42.578125 51.265625 45.40625 46.390625 
z
M 14.796875 27.296875 
Q 14.796875 17.390625 18.875 11.75 
Q 22.953125 6.109375 30.078125 6.109375 
Q 37.203125 6.109375 41.296875 11.75 
Q 45.40625 17.390625 45.40625 27.296875 
Q 45.40625 37.203125 41.296875 42.84375 
Q 37.203125 48.484375 30.078125 48.484375 
Q 22.953125 48.484375 18.875 42.84375 
Q 14.796875 37.203125 14.796875 27.296875 
z
" id="DejaVuSans-100"/>
     <path d="M 9.421875 54.6875 
L 18.40625 54.6875 
L 18.40625 0 
L 9.421875 0 
z
M 9.421875 75.984375 
L 18.40625 75.984375 
L 18.40625 64.59375 
L 9.421875 64.59375 
z
" id="DejaVuSans-105"/>
     <path d="M 41.109375 46.296875 
Q 39.59375 47.171875 37.8125 47.578125 
Q 36.03125 48 33.890625 48 
Q 26.265625 48 22.1875 43.046875 
Q 18.109375 38.09375 18.109375 28.8125 
L 18.109375 0 
L 9.078125 0 
L 9.078125 54.6875 
L 18.109375 54.6875 
L 18.109375 46.1875 
Q 20.953125 51.171875 25.484375 53.578125 
Q 30.03125 56 36.53125 56 
Q 37.453125 56 38.578125 55.875 
Q 39.703125 55.765625 41.0625 55.515625 
z
" id="DejaVuSans-114"/>
     <path d="M 56.203125 29.59375 
L 56.203125 25.203125 
L 14.890625 25.203125 
Q 15.484375 15.921875 20.484375 11.0625 
Q 25.484375 6.203125 34.421875 6.203125 
Q 39.59375 6.203125 44.453125 7.46875 
Q 49.3125 8.734375 54.109375 11.28125 
L 54.109375 2.78125 
Q 49.265625 0.734375 44.1875 -0.34375 
Q 39.109375 -1.421875 33.890625 -1.421875 
Q 20.796875 -1.421875 13.15625 6.1875 
Q 5.515625 13.8125 5.515625 26.8125 
Q 5.515625 40.234375 12.765625 48.109375 
Q 20.015625 56 32.328125 56 
Q 43.359375 56 49.78125 48.890625 
Q 56.203125 41.796875 56.203125 29.59375 
z
M 47.21875 32.234375 
Q 47.125 39.59375 43.09375 43.984375 
Q 39.0625 48.390625 32.421875 48.390625 
Q 24.90625 48.390625 20.390625 44.140625 
Q 15.875 39.890625 15.1875 32.171875 
z
" id="DejaVuSans-101"/>
     <path d="M 48.78125 52.59375 
L 48.78125 44.1875 
Q 44.96875 46.296875 41.140625 47.34375 
Q 37.3125 48.390625 33.40625 48.390625 
Q 24.65625 48.390625 19.8125 42.84375 
Q 14.984375 37.3125 14.984375 27.296875 
Q 14.984375 17.28125 19.8125 11.734375 
Q 24.65625 6.203125 33.40625 6.203125 
Q 37.3125 6.203125 41.140625 7.25 
Q 44.96875 8.296875 48.78125 10.40625 
L 48.78125 2.09375 
Q 45.015625 0.34375 40.984375 -0.53125 
Q 36.96875 -1.421875 32.421875 -1.421875 
Q 20.0625 -1.421875 12.78125 6.34375 
Q 5.515625 14.109375 5.515625 27.296875 
Q 5.515625 40.671875 12.859375 48.328125 
Q 20.21875 56 33.015625 56 
Q 37.15625 56 41.109375 55.140625 
Q 45.0625 54.296875 48.78125 52.59375 
z
" id="DejaVuSans-99"/>
     <path d="M 18.3125 70.21875 
L 18.3125 54.6875 
L 36.8125 54.6875 
L 36.8125 47.703125 
L 18.3125 47.703125 
L 18.3125 18.015625 
Q 18.3125 11.328125 20.140625 9.421875 
Q 21.96875 7.515625 27.59375 7.515625 
L 36.8125 7.515625 
L 36.8125 0 
L 27.59375 0 
Q 17.1875 0 13.234375 3.875 
Q 9.28125 7.765625 9.28125 18.015625 
L 9.28125 47.703125 
L 2.6875 47.703125 
L 2.6875 54.6875 
L 9.28125 54.6875 
L 9.28125 70.21875 
z
" id="DejaVuSans-116"/>
     <path d="M 54.890625 33.015625 
L 54.890625 0 
L 45.90625 0 
L 45.90625 32.71875 
Q 45.90625 40.484375 42.875 44.328125 
Q 39.84375 48.1875 33.796875 48.1875 
Q 26.515625 48.1875 22.3125 43.546875 
Q 18.109375 38.921875 18.109375 30.90625 
L 18.109375 0 
L 9.078125 0 
L 9.078125 54.6875 
L 18.109375 54.6875 
L 18.109375 46.1875 
Q 21.34375 51.125 25.703125 53.5625 
Q 30.078125 56 35.796875 56 
Q 45.21875 56 50.046875 50.171875 
Q 54.890625 44.34375 54.890625 33.015625 
z
" id="DejaVuSans-110"/>
    </defs>
    <g transform="translate(161.06625 35.472)scale(0.12 -0.12)">
     <use xlink:href="#DejaVuSans-80"/>
     <use x="56.677734" xlink:href="#DejaVuSans-111"/>
     <use x="117.859375" xlink:href="#DejaVuSans-108"/>
     <use x="145.642578" xlink:href="#DejaVuSans-121"/>
     <use x="204.822266" xlink:href="#DejaVuSans-97"/>
     <use x="266.101562" xlink:href="#DejaVuSans-107"/>
     <use x="320.386719" xlink:href="#DejaVuSans-111"/>
     <use x="381.568359" xlink:href="#DejaVuSans-118"/>
     <use x="440.748047" xlink:href="#DejaVuSans-32"/>
     <use x="472.535156" xlink:href="#DejaVuSans-108"/>
     <use x="500.318359" xlink:href="#DejaVuSans-111"/>
     <use x="561.5" xlink:href="#DejaVuSans-111"/>
     <use x="622.681641" xlink:href="#DejaVuSans-112"/>
     <use x="686.158203" xlink:href="#DejaVuSans-32"/>
     <use x="717.945312" xlink:href="#DejaVuSans-48"/>
     <use x="781.568359" xlink:href="#DejaVuSans-32"/>
     <use x="813.355469" xlink:href="#DejaVuSans-100"/>
     <use x="876.832031" xlink:href="#DejaVuSans-105"/>
     <use x="904.615234" xlink:href="#DejaVuSans-114"/>
     <use x="943.478516" xlink:href="#DejaVuSans-101"/>
     <use x="1005.001953" xlink:href="#DejaVuSans-99"/>
     <use x="1059.982422" xlink:href="#DejaVuSans-116"/>
     <use x="1099.191406" xlink:href="#DejaVuSans-105"/>
     <use x="1126.974609" xlink:href="#DejaVuSans-111"/>
     <use x="1188.15625" xlink:href="#DejaVuSans-110"/>
    </g>
   </g>
   <g id="legend_1">
    <g id="patch_7">
     <path d="M 261.779375 190.706125 
L 407.72 190.706125 
Q 409.72 190.706125 409.72 188.706125 
L 409.72 160.349875 
Q 409.72 158.349875 407.72 158.349875 
L 261.779375 158.349875 
Q 259.779375 158.349875 259.779375 160.349875 
L 259.779375 188.706125 
Q 259.779375 190.706125 261.779375 190.706125 
z
" style="fill:#ffffff;opacity:0.8;stroke:#cccccc;stroke-linejoin:miter;"/>
    </g>
    <g id="line2d_15">
     <path d="M 263.779375 166.448312 
L 283.779375 166.448312 
" style="fill:none;stroke:#1f77b4;stroke-linecap:square;stroke-width:1.5;"/>
    </g>
    <g id="line2d_16"/>
    <g id="text_14">
     <!-- real0.0000+/-0.0000 -->
     <defs>
      <path d="M 46 62.703125 
L 46 35.5 
L 73.1875 35.5 
L 73.1875 27.203125 
L 46 27.203125 
L 46 0 
L 37.796875 0 
L 37.796875 27.203125 
L 10.59375 27.203125 
L 10.59375 35.5 
L 37.796875 35.5 
L 37.796875 62.703125 
z
" id="DejaVuSans-43"/>
      <path d="M 25.390625 72.90625 
L 33.6875 72.90625 
L 8.296875 -9.28125 
L 0 -9.28125 
z
" id="DejaVuSans-47"/>
      <path d="M 4.890625 31.390625 
L 31.203125 31.390625 
L 31.203125 23.390625 
L 4.890625 23.390625 
z
" id="DejaVuSans-45"/>
     </defs>
     <g transform="translate(291.779375 169.948312)scale(0.1 -0.1)">
      <use xlink:href="#DejaVuSans-114"/>
      <use x="38.863281" xlink:href="#DejaVuSans-101"/>
      <use x="100.386719" xlink:href="#DejaVuSans-97"/>
      <use x="161.666016" xlink:href="#DejaVuSans-108"/>
      <use x="189.449219" xlink:href="#DejaVuSans-48"/>
      <use x="253.072266" xlink:href="#DejaVuSans-46"/>
      <use x="284.859375" xlink:href="#DejaVuSans-48"/>
      <use x="348.482422" xlink:href="#DejaVuSans-48"/>
      <use x="412.105469" xlink:href="#DejaVuSans-48"/>
      <use x="475.728516" xlink:href="#DejaVuSans-48"/>
      <use x="539.351562" xlink:href="#DejaVuSans-43"/>
      <use x="623.140625" xlink:href="#DejaVuSans-47"/>
      <use x="656.832031" xlink:href="#DejaVuSans-45"/>
      <use x="692.916016" xlink:href="#DejaVuSans-48"/>
      <use x="756.539062" xlink:href="#DejaVuSans-46"/>
      <use x="788.326172" xlink:href="#DejaVuSans-48"/>
      <use x="851.949219" xlink:href="#DejaVuSans-48"/>
      <use x="915.572266" xlink:href="#DejaVuSans-48"/>
      <use x="979.195312" xlink:href="#DejaVuSans-48"/>
     </g>
    </g>
    <g id="line2d_17">
     <path d="M 263.779375 181.126437 
L 283.779375 181.126437 
" style="fill:none;stroke:#ff7f0e;stroke-linecap:square;stroke-width:1.5;"/>
    </g>
    <g id="line2d_18"/>
    <g id="text_15">
     <!-- imag-0.0000+/-0.0000 -->
     <defs>
      <path d="M 52 44.1875 
Q 55.375 50.25 60.0625 53.125 
Q 64.75 56 71.09375 56 
Q 79.640625 56 84.28125 50.015625 
Q 88.921875 44.046875 88.921875 33.015625 
L 88.921875 0 
L 79.890625 0 
L 79.890625 32.71875 
Q 79.890625 40.578125 77.09375 44.375 
Q 74.3125 48.1875 68.609375 48.1875 
Q 61.625 48.1875 57.5625 43.546875 
Q 53.515625 38.921875 53.515625 30.90625 
L 53.515625 0 
L 44.484375 0 
L 44.484375 32.71875 
Q 44.484375 40.625 41.703125 44.40625 
Q 38.921875 48.1875 33.109375 48.1875 
Q 26.21875 48.1875 22.15625 43.53125 
Q 18.109375 38.875 18.109375 30.90625 
L 18.109375 0 
L 9.078125 0 
L 9.078125 54.6875 
L 18.109375 54.6875 
L 18.109375 46.1875 
Q 21.1875 51.21875 25.484375 53.609375 
Q 29.78125 56 35.6875 56 
Q 41.65625 56 45.828125 52.96875 
Q 50 49.953125 52 44.1875 
z
" id="DejaVuSans-109"/>
      <path d="M 45.40625 27.984375 
Q 45.40625 37.75 41.375 43.109375 
Q 37.359375 48.484375 30.078125 48.484375 
Q 22.859375 48.484375 18.828125 43.109375 
Q 14.796875 37.75 14.796875 27.984375 
Q 14.796875 18.265625 18.828125 12.890625 
Q 22.859375 7.515625 30.078125 7.515625 
Q 37.359375 7.515625 41.375 12.890625 
Q 45.40625 18.265625 45.40625 27.984375 
z
M 54.390625 6.78125 
Q 54.390625 -7.171875 48.1875 -13.984375 
Q 42 -20.796875 29.203125 -20.796875 
Q 24.46875 -20.796875 20.265625 -20.09375 
Q 16.0625 -19.390625 12.109375 -17.921875 
L 12.109375 -9.1875 
Q 16.0625 -11.328125 19.921875 -12.34375 
Q 23.78125 -13.375 27.78125 -13.375 
Q 36.625 -13.375 41.015625 -8.765625 
Q 45.40625 -4.15625 45.40625 5.171875 
L 45.40625 9.625 
Q 42.625 4.78125 38.28125 2.390625 
Q 33.9375 0 27.875 0 
Q 17.828125 0 11.671875 7.65625 
Q 5.515625 15.328125 5.515625 27.984375 
Q 5.515625 40.671875 11.671875 48.328125 
Q 17.828125 56 27.875 56 
Q 33.9375 56 38.28125 53.609375 
Q 42.625 51.21875 45.40625 46.390625 
L 45.40625 54.6875 
L 54.390625 54.6875 
z
" id="DejaVuSans-103"/>
     </defs>
     <g transform="translate(291.779375 184.626437)scale(0.1 -0.1)">
      <use xlink:href="#DejaVuSans-105"/>
      <use x="27.783203" xlink:href="#DejaVuSans-109"/>
      <use x="125.195312" xlink:href="#DejaVuSans-97"/>
      <use x="186.474609" xlink:href="#DejaVuSans-103"/>
      <use x="249.951172" xlink:href="#DejaVuSans-45"/>
      <use x="286.035156" xlink:href="#DejaVuSans-48"/>
      <use x="349.658203" xlink:href="#DejaVuSans-46"/>
      <use x="381.445312" xlink:href="#DejaVuSans-48"/>
      <use x="445.068359" xlink:href="#DejaVuSans-48"/>
      <use x="508.691406" xlink:href="#DejaVuSans-48"/>
      <use x="572.314453" xlink:href="#DejaVuSans-48"/>
      <use x="635.9375" xlink:href="#DejaVuSans-43"/>
      <use x="719.726562" xlink:href="#DejaVuSans-47"/>
      <use x="753.417969" xlink:href="#DejaVuSans-45"/>
      <use x="789.501953" xlink:href="#DejaVuSans-48"/>
      <use x="853.125" xlink:href="#DejaVuSans-46"/>
      <use x="884.912109" xlink:href="#DejaVuSans-48"/>
      <use x="948.535156" xlink:href="#DejaVuSans-48"/>
      <use x="1012.158203" xlink:href="#DejaVuSans-48"/>
      <use x="1075.78125" xlink:href="#DejaVuSans-48"/>
     </g>
    </g>
   </g>
  </g>
 </g>
 <defs>
  <clipPath id="pac8aa89497">
   <rect height="266.112" width="357.12" x="57.6" y="41.472"/>
  </clipPath>
 </defs>
</svg>
