<?xml version="1.0" encoding="utf-8" standalone="no"?>
<!DOCTYPE svg PUBLIC "-//W3C//DTD SVG 1.1//EN"
  "http://www.w3.org/Graphics/SVG/1.1/DTD/svg11.dtd">
<!-- Created with matplotlib (https://matplotlib.org/) -->
<svg height="345.6pt" version="1.1" viewBox="0 0 460.8 345.6" width="460.8pt" xmlns="http://www.w3.org/2000/svg" xmlns:xlink="http://www.w3.org/1999/xlink">
 <defs>
  <style type="text/css">
*{stroke-linecap:butt;stroke-linejoin:round;}
  </style>
 </defs>
 <g id="figure_1">
  <g id="patch_1">
   <path d="M 0 345.6 
L 460.8 345.6 
L 460.8 0 
L 0 0 
z
" style="fill:#ffffff;"/>
  </g>
  <g id="axes_1">
   <g id="patch_2">
    <path d="M 57.6 307.584 
L 414.72 307.584 
L 414.72 41.472 
L 57.6 41.472 
z
" style="fill:#ffffff;"/>
   </g>
   <g id="matplotlib.axis_1">
    <g id="xtick_1">
     <g id="line2d_1">
      <defs>
       <path d="M 0 0 
L 0 3.5 
" id="m364759cb94" style="stroke:#000000;stroke-width:0.8;"/>
      </defs>
      <g>
       <use style="stroke:#000000;stroke-width:0.8;" x="73.290733" xlink:href="#m364759cb94" y="307.584"/>
      </g>
     </g>
     <g id="text_1">
      <!-- 0 -->
      <defs>
       <path d="M 31.78125 66.40625 
Q 24.171875 66.40625 20.328125 58.90625 
Q 16.5 51.421875 16.5 36.375 
Q 16.5 21.390625 20.328125 13.890625 
Q 24.171875 6.390625 31.78125 6.390625 
Q 39.453125 6.390625 43.28125 13.890625 
Q 47.125 21.390625 47.125 36.375 
Q 47.125 51.421875 43.28125 58.90625 
Q 39.453125 66.40625 31.78125 66.40625 
z
M 31.78125 74.21875 
Q 44.046875 74.21875 50.515625 64.515625 
Q 56.984375 54.828125 56.984375 36.375 
Q 56.984375 17.96875 50.515625 8.265625 
Q 44.046875 -1.421875 31.78125 -1.421875 
Q 19.53125 -1.421875 13.0625 8.265625 
Q 6.59375 17.96875 6.59375 36.375 
Q 6.59375 54.828125 13.0625 64.515625 
Q 19.53125 74.21875 31.78125 74.21875 
z
" id="DejaVuSans-48"/>
      </defs>
      <g transform="translate(70.109483 322.182437)scale(0.1 -0.1)">
       <use xlink:href="#DejaVuSans-48"/>
      </g>
     </g>
    </g>
    <g id="xtick_2">
     <g id="line2d_2">
      <g>
       <use style="stroke:#000000;stroke-width:0.8;" x="127.490156" xlink:href="#m364759cb94" y="307.584"/>
      </g>
     </g>
     <g id="text_2">
      <!-- 100 -->
      <defs>
       <path d="M 12.40625 8.296875 
L 28.515625 8.296875 
L 28.515625 63.921875 
L 10.984375 60.40625 
L 10.984375 69.390625 
L 28.421875 72.90625 
L 38.28125 72.90625 
L 38.28125 8.296875 
L 54.390625 8.296875 
L 54.390625 0 
L 12.40625 0 
z
" id="DejaVuSans-49"/>
      </defs>
      <g transform="translate(117.946406 322.182437)scale(0.1 -0.1)">
       <use xlink:href="#DejaVuSans-49"/>
       <use x="63.623047" xlink:href="#DejaVuSans-48"/>
       <use x="127.246094" xlink:href="#DejaVuSans-48"/>
      </g>
     </g>
    </g>
    <g id="xtick_3">
     <g id="line2d_3">
      <g>
       <use style="stroke:#000000;stroke-width:0.8;" x="181.68958" xlink:href="#m364759cb94" y="307.584"/>
      </g>
     </g>
     <g id="text_3">
      <!-- 200 -->
      <defs>
       <path d="M 19.1875 8.296875 
L 53.609375 8.296875 
L 53.609375 0 
L 7.328125 0 
L 7.328125 8.296875 
Q 12.9375 14.109375 22.625 23.890625 
Q 32.328125 33.6875 34.8125 36.53125 
Q 39.546875 41.84375 41.421875 45.53125 
Q 43.3125 49.21875 43.3125 52.78125 
Q 43.3125 58.59375 39.234375 62.25 
Q 35.15625 65.921875 28.609375 65.921875 
Q 23.96875 65.921875 18.8125 64.3125 
Q 13.671875 62.703125 7.8125 59.421875 
L 7.8125 69.390625 
Q 13.765625 71.78125 18.9375 73 
Q 24.125 74.21875 28.421875 74.21875 
Q 39.75 74.21875 46.484375 68.546875 
Q 53.21875 62.890625 53.21875 53.421875 
Q 53.21875 48.921875 51.53125 44.890625 
Q 49.859375 40.875 45.40625 35.40625 
Q 44.1875 33.984375 37.640625 27.21875 
Q 31.109375 20.453125 19.1875 8.296875 
z
" id="DejaVuSans-50"/>
      </defs>
      <g transform="translate(172.14583 322.182437)scale(0.1 -0.1)">
       <use xlink:href="#DejaVuSans-50"/>
       <use x="63.623047" xlink:href="#DejaVuSans-48"/>
       <use x="127.246094" xlink:href="#DejaVuSans-48"/>
      </g>
     </g>
    </g>
    <g id="xtick_4">
     <g id="line2d_4">
      <g>
       <use style="stroke:#000000;stroke-width:0.8;" x="235.889003" xlink:href="#m364759cb94" y="307.584"/>
      </g>
     </g>
     <g id="text_4">
      <!-- 300 -->
      <defs>
       <path d="M 40.578125 39.3125 
Q 47.65625 37.796875 51.625 33 
Q 55.609375 28.21875 55.609375 21.1875 
Q 55.609375 10.40625 48.1875 4.484375 
Q 40.765625 -1.421875 27.09375 -1.421875 
Q 22.515625 -1.421875 17.65625 -0.515625 
Q 12.796875 0.390625 7.625 2.203125 
L 7.625 11.71875 
Q 11.71875 9.328125 16.59375 8.109375 
Q 21.484375 6.890625 26.8125 6.890625 
Q 36.078125 6.890625 40.9375 10.546875 
Q 45.796875 14.203125 45.796875 21.1875 
Q 45.796875 27.640625 41.28125 31.265625 
Q 36.765625 34.90625 28.71875 34.90625 
L 20.21875 34.90625 
L 20.21875 43.015625 
L 29.109375 43.015625 
Q 36.375 43.015625 40.234375 45.921875 
Q 44.09375 48.828125 44.09375 54.296875 
Q 44.09375 59.90625 40.109375 62.90625 
Q 36.140625 65.921875 28.71875 65.921875 
Q 24.65625 65.921875 20.015625 65.03125 
Q 15.375 64.15625 9.8125 62.3125 
L 9.8125 71.09375 
Q 15.4375 72.65625 20.34375 73.4375 
Q 25.25 74.21875 29.59375 74.21875 
Q 40.828125 74.21875 47.359375 69.109375 
Q 53.90625 64.015625 53.90625 55.328125 
Q 53.90625 49.265625 50.4375 45.09375 
Q 46.96875 40.921875 40.578125 39.3125 
z
" id="DejaVuSans-51"/>
      </defs>
      <g transform="translate(226.345253 322.182437)scale(0.1 -0.1)">
       <use xlink:href="#DejaVuSans-51"/>
       <use x="63.623047" xlink:href="#DejaVuSans-48"/>
       <use x="127.246094" xlink:href="#DejaVuSans-48"/>
      </g>
     </g>
    </g>
    <g id="xtick_5">
     <g id="line2d_5">
      <g>
       <use style="stroke:#000000;stroke-width:0.8;" x="290.088426" xlink:href="#m364759cb94" y="307.584"/>
      </g>
     </g>
     <g id="text_5">
      <!-- 400 -->
      <defs>
       <path d="M 37.796875 64.3125 
L 12.890625 25.390625 
L 37.796875 25.390625 
z
M 35.203125 72.90625 
L 47.609375 72.90625 
L 47.609375 25.390625 
L 58.015625 25.390625 
L 58.015625 17.1875 
L 47.609375 17.1875 
L 47.609375 0 
L 37.796875 0 
L 37.796875 17.1875 
L 4.890625 17.1875 
L 4.890625 26.703125 
z
" id="DejaVuSans-52"/>
      </defs>
      <g transform="translate(280.544676 322.182437)scale(0.1 -0.1)">
       <use xlink:href="#DejaVuSans-52"/>
       <use x="63.623047" xlink:href="#DejaVuSans-48"/>
       <use x="127.246094" xlink:href="#DejaVuSans-48"/>
      </g>
     </g>
    </g>
    <g id="xtick_6">
     <g id="line2d_6">
      <g>
       <use style="stroke:#000000;stroke-width:0.8;" x="344.287849" xlink:href="#m364759cb94" y="307.584"/>
      </g>
     </g>
     <g id="text_6">
      <!-- 500 -->
      <defs>
       <path d="M 10.796875 72.90625 
L 49.515625 72.90625 
L 49.515625 64.59375 
L 19.828125 64.59375 
L 19.828125 46.734375 
Q 21.96875 47.46875 24.109375 47.828125 
Q 26.265625 48.1875 28.421875 48.1875 
Q 40.625 48.1875 47.75 41.5 
Q 54.890625 34.8125 54.890625 23.390625 
Q 54.890625 11.625 47.5625 5.09375 
Q 40.234375 -1.421875 26.90625 -1.421875 
Q 22.3125 -1.421875 17.546875 -0.640625 
Q 12.796875 0.140625 7.71875 1.703125 
L 7.71875 11.625 
Q 12.109375 9.234375 16.796875 8.0625 
Q 21.484375 6.890625 26.703125 6.890625 
Q 35.15625 6.890625 40.078125 11.328125 
Q 45.015625 15.765625 45.015625 23.390625 
Q 45.015625 31 40.078125 35.4375 
Q 35.15625 39.890625 26.703125 39.890625 
Q 22.75 39.890625 18.8125 39.015625 
Q 14.890625 38.140625 10.796875 36.28125 
z
" id="DejaVuSans-53"/>
      </defs>
      <g transform="translate(334.744099 322.182437)scale(0.1 -0.1)">
       <use xlink:href="#DejaVuSans-53"/>
       <use x="63.623047" xlink:href="#DejaVuSans-48"/>
       <use x="127.246094" xlink:href="#DejaVuSans-48"/>
      </g>
     </g>
    </g>
    <g id="xtick_7">
     <g id="line2d_7">
      <g>
       <use style="stroke:#000000;stroke-width:0.8;" x="398.487273" xlink:href="#m364759cb94" y="307.584"/>
      </g>
     </g>
     <g id="text_7">
      <!-- 600 -->
      <defs>
       <path d="M 33.015625 40.375 
Q 26.375 40.375 22.484375 35.828125 
Q 18.609375 31.296875 18.609375 23.390625 
Q 18.609375 15.53125 22.484375 10.953125 
Q 26.375 6.390625 33.015625 6.390625 
Q 39.65625 6.390625 43.53125 10.953125 
Q 47.40625 15.53125 47.40625 23.390625 
Q 47.40625 31.296875 43.53125 35.828125 
Q 39.65625 40.375 33.015625 40.375 
z
M 52.59375 71.296875 
L 52.59375 62.3125 
Q 48.875 64.0625 45.09375 64.984375 
Q 41.3125 65.921875 37.59375 65.921875 
Q 27.828125 65.921875 22.671875 59.328125 
Q 17.53125 52.734375 16.796875 39.40625 
Q 19.671875 43.65625 24.015625 45.921875 
Q 28.375 48.1875 33.59375 48.1875 
Q 44.578125 48.1875 50.953125 41.515625 
Q 57.328125 34.859375 57.328125 23.390625 
Q 57.328125 12.15625 50.6875 5.359375 
Q 44.046875 -1.421875 33.015625 -1.421875 
Q 20.359375 -1.421875 13.671875 8.265625 
Q 6.984375 17.96875 6.984375 36.375 
Q 6.984375 53.65625 15.1875 63.9375 
Q 23.390625 74.21875 37.203125 74.21875 
Q 40.921875 74.21875 44.703125 73.484375 
Q 48.484375 72.75 52.59375 71.296875 
z
" id="DejaVuSans-54"/>
      </defs>
      <g transform="translate(388.943523 322.182437)scale(0.1 -0.1)">
       <use xlink:href="#DejaVuSans-54"/>
       <use x="63.623047" xlink:href="#DejaVuSans-48"/>
       <use x="127.246094" xlink:href="#DejaVuSans-48"/>
      </g>
     </g>
    </g>
   </g>
   <g id="matplotlib.axis_2">
    <g id="ytick_1">
     <g id="line2d_8">
      <defs>
       <path d="M 0 0 
L -3.5 0 
" id="mff82bb84ca" style="stroke:#000000;stroke-width:0.8;"/>
      </defs>
      <g>
       <use style="stroke:#000000;stroke-width:0.8;" x="57.6" xlink:href="#mff82bb84ca" y="263.8789"/>
      </g>
     </g>
     <g id="text_8">
      <!-- −0.00010 -->
      <defs>
       <path d="M 10.59375 35.5 
L 73.1875 35.5 
L 73.1875 27.203125 
L 10.59375 27.203125 
z
" id="DejaVuSans-8722"/>
       <path d="M 10.6875 12.40625 
L 21 12.40625 
L 21 0 
L 10.6875 0 
z
" id="DejaVuSans-46"/>
      </defs>
      <g transform="translate(0.867188 267.678119)scale(0.1 -0.1)">
       <use xlink:href="#DejaVuSans-8722"/>
       <use x="83.789062" xlink:href="#DejaVuSans-48"/>
       <use x="147.412109" xlink:href="#DejaVuSans-46"/>
       <use x="179.199219" xlink:href="#DejaVuSans-48"/>
       <use x="242.822266" xlink:href="#DejaVuSans-48"/>
       <use x="306.445312" xlink:href="#DejaVuSans-48"/>
       <use x="370.068359" xlink:href="#DejaVuSans-49"/>
       <use x="433.691406" xlink:href="#DejaVuSans-48"/>
      </g>
     </g>
    </g>
    <g id="ytick_2">
     <g id="line2d_9">
      <g>
       <use style="stroke:#000000;stroke-width:0.8;" x="57.6" xlink:href="#mff82bb84ca" y="216.991717"/>
      </g>
     </g>
     <g id="text_9">
      <!-- −0.00005 -->
      <g transform="translate(0.867188 220.790936)scale(0.1 -0.1)">
       <use xlink:href="#DejaVuSans-8722"/>
       <use x="83.789062" xlink:href="#DejaVuSans-48"/>
       <use x="147.412109" xlink:href="#DejaVuSans-46"/>
       <use x="179.199219" xlink:href="#DejaVuSans-48"/>
       <use x="242.822266" xlink:href="#DejaVuSans-48"/>
       <use x="306.445312" xlink:href="#DejaVuSans-48"/>
       <use x="370.068359" xlink:href="#DejaVuSans-48"/>
       <use x="433.691406" xlink:href="#DejaVuSans-53"/>
      </g>
     </g>
    </g>
    <g id="ytick_3">
     <g id="line2d_10">
      <g>
       <use style="stroke:#000000;stroke-width:0.8;" x="57.6" xlink:href="#mff82bb84ca" y="170.104535"/>
      </g>
     </g>
     <g id="text_10">
      <!-- 0.00000 -->
      <g transform="translate(9.246875 173.903754)scale(0.1 -0.1)">
       <use xlink:href="#DejaVuSans-48"/>
       <use x="63.623047" xlink:href="#DejaVuSans-46"/>
       <use x="95.410156" xlink:href="#DejaVuSans-48"/>
       <use x="159.033203" xlink:href="#DejaVuSans-48"/>
       <use x="222.65625" xlink:href="#DejaVuSans-48"/>
       <use x="286.279297" xlink:href="#DejaVuSans-48"/>
       <use x="349.902344" xlink:href="#DejaVuSans-48"/>
      </g>
     </g>
    </g>
    <g id="ytick_4">
     <g id="line2d_11">
      <g>
       <use style="stroke:#000000;stroke-width:0.8;" x="57.6" xlink:href="#mff82bb84ca" y="123.217353"/>
      </g>
     </g>
     <g id="text_11">
      <!-- 0.00005 -->
      <g transform="translate(9.246875 127.016571)scale(0.1 -0.1)">
       <use xlink:href="#DejaVuSans-48"/>
       <use x="63.623047" xlink:href="#DejaVuSans-46"/>
       <use x="95.410156" xlink:href="#DejaVuSans-48"/>
       <use x="159.033203" xlink:href="#DejaVuSans-48"/>
       <use x="222.65625" xlink:href="#DejaVuSans-48"/>
       <use x="286.279297" xlink:href="#DejaVuSans-48"/>
       <use x="349.902344" xlink:href="#DejaVuSans-53"/>
      </g>
     </g>
    </g>
    <g id="ytick_5">
     <g id="line2d_12">
      <g>
       <use style="stroke:#000000;stroke-width:0.8;" x="57.6" xlink:href="#mff82bb84ca" y="76.33017"/>
      </g>
     </g>
     <g id="text_12">
      <!-- 0.00010 -->
      <g transform="translate(9.246875 80.129389)scale(0.1 -0.1)">
       <use xlink:href="#DejaVuSans-48"/>
       <use x="63.623047" xlink:href="#DejaVuSans-46"/>
       <use x="95.410156" xlink:href="#DejaVuSans-48"/>
       <use x="159.033203" xlink:href="#DejaVuSans-48"/>
       <use x="222.65625" xlink:href="#DejaVuSans-48"/>
       <use x="286.279297" xlink:href="#DejaVuSans-49"/>
       <use x="349.902344" xlink:href="#DejaVuSans-48"/>
      </g>
     </g>
    </g>
   </g>
   <g id="line2d_13">
    <path clip-path="url(#p1faf85e551)" d="M 74.217228 -1 
L 74.52425 346.6 
M 75.070742 346.6 
L 75.21509 -1 
M 75.641771 -1 
L 75.750236 346.6 
M 76.823794 346.6 
L 77.164752 -1 
M 78.82215 -1 
L 78.93127 346.6 
M 79.588533 346.6 
L 79.702564 -1 
M 79.941609 -1 
L 80.123545 346.6 
M 80.536156 346.6 
L 80.706469 -1 
M 81.113565 -1 
L 81.345925 346.6 
M 82.026989 346.6 
L 82.161837 -1 
M 82.818621 -1 
L 82.942135 346.6 
M 83.83257 346.6 
L 83.941307 -1 
M 84.384917 -1 
L 84.530981 346.6 
M 84.820891 346.6 
L 84.973812 -1 
M 85.389041 -1 
L 85.49982 346.6 
M 86.648022 346.6 
L 86.840589 37.661582 
L 87.059817 346.6 
M 88.218307 346.6 
L 88.408095 -1 
M 88.585303 -1 
L 88.970653 346.6 
M 90.40701 346.6 
L 90.634548 48.264451 
L 90.792514 -1 
M 91.428613 -1 
L 91.718537 136.751656 
L 91.810698 346.6 
M 92.626572 346.6 
L 92.750794 -1 
M 92.92994 -1 
L 93.235903 346.6 
M 93.475691 346.6 
L 93.84519 -1 
M 93.910111 -1 
L 94.121108 346.6 
M 95.754564 346.6 
L 95.932262 -1 
M 96.301706 -1 
L 96.596485 284.096605 
L 96.981534 -1 
M 97.20255 -1 
L 97.394204 346.6 
M 97.869392 346.6 
L 97.99587 -1 
M 99.647219 -1 
L 99.84845 31.329112 
L 100.293432 346.6 
M 100.435046 346.6 
L 100.660604 -1 
M 101.122271 -1 
L 101.279787 346.6 
M 101.670488 346.6 
L 101.829144 -1 
M 102.198284 -1 
L 102.352343 346.6 
M 103.86409 346.6 
L 104.184404 141.105778 
L 104.548971 -1 
M 108.575154 -1 
L 108.821439 346.6 
M 109.558825 346.6 
L 109.604347 315.423988 
L 109.787496 -1 
M 110.580511 -1 
L 110.866619 346.6 
M 115.363203 346.6 
L 115.566283 143.748161 
L 115.655067 346.6 
M 116.862377 346.6 
L 117.066187 -1 
M 118.049987 -1 
L 118.268873 346.6 
M 118.287134 346.6 
L 118.609737 -1 
M 119.344105 -1 
L 119.360243 5.894691 
L 119.495858 346.6 
M 120.575294 346.6 
L 120.769175 -1 
M 121.681174 -1 
L 121.824988 346.6 
M 122.350248 346.6 
L 122.514475 -1 
M 124.764741 -1 
L 125.181005 346.6 
M 125.416867 346.6 
L 125.696791 -1 
M 127.241236 -1 
L 127.335737 346.6 
M 127.834963 346.6 
L 128.032151 21.776683 
L 128.574145 209.407002 
L 129.116139 265.615804 
L 129.364482 -1 
M 131.363264 -1 
L 131.494994 346.6 
M 132.248849 346.6 
L 132.368104 100.118812 
L 132.910099 100.118812 
L 133.058735 346.6 
M 133.659598 346.6 
L 133.770175 -1 
M 134.213729 -1 
L 134.322197 346.6 
M 134.980562 346.6 
L 135.180493 -1 
M 135.870193 -1 
L 135.972902 346.6 
M 136.739812 346.6 
L 136.946278 -1 
M 137.651239 -1 
L 137.909995 346.6 
M 138.553129 346.6 
L 138.680183 -1 
M 139.249422 -1 
L 139.580103 346.6 
M 140.183617 346.6 
L 140.478157 -1 
M 140.554981 -1 
L 141.040012 198.579714 
L 141.133116 346.6 
M 142.464914 346.6 
L 142.628711 -1 
M 142.713824 -1 
L 142.923951 346.6 
M 143.548633 346.6 
L 143.749983 68.867263 
L 144.013362 346.6 
M 144.829631 346.6 
L 144.833972 344.227839 
L 145.375966 119.88749 
L 145.774559 346.6 
M 146.174602 346.6 
L 146.459954 255.91122 
L 146.672529 -1 
M 150.180514 -1 
L 150.253914 106.944652 
L 150.720938 -1 
M 150.804408 -1 
L 150.974903 346.6 
M 152.318901 346.6 
L 152.667406 -1 
M 153.186201 -1 
L 153.454613 346.6 
M 153.635116 346.6 
L 154.047874 134.559019 
L 154.459626 346.6 
M 156.287656 346.6 
L 156.440975 -1 
M 157.52776 -1 
L 157.630694 346.6 
M 158.381703 346.6 
L 158.383828 343.793658 
L 158.386948 346.6 
M 159.668707 346.6 
L 159.758338 -1 
M 160.394143 -1 
L 160.531129 346.6 
M 161.126214 346.6 
L 161.270037 -1 
M 162.548438 -1 
L 162.719781 3.67376 
L 162.852323 346.6 
M 164.133703 346.6 
L 164.257634 -1 
M 164.864242 -1 
L 164.887758 10.211846 
L 164.962837 -1 
M 165.491905 -1 
L 165.801745 346.6 
M 166.213298 346.6 
L 166.513741 109.382559 
L 166.753043 346.6 
M 167.253961 346.6 
L 167.483595 -1 
M 168.823688 -1 
L 168.968208 346.6 
M 169.670621 346.6 
L 169.765706 215.848757 
L 170.053982 -1 
M 170.965203 -1 
L 171.06513 346.6 
M 172.025493 346.6 
L 172.177459 -1 
M 172.864468 -1 
L 173.017672 267.796945 
L 173.798738 -1 
M 174.144032 -1 
L 174.315736 346.6 
M 174.836097 346.6 
L 174.936863 -1 
M 177.18351 -1 
L 177.504642 346.6 
M 178.225692 346.6 
L 178.437614 169.753263 
L 178.848323 346.6 
M 179.050206 346.6 
L 179.484303 -1 
M 179.739506 -1 
L 180.063597 43.421901 
L 180.82112 346.6 
M 182.012312 346.6 
L 182.118953 -1 
M 182.887803 -1 
L 183.032597 346.6 
M 183.725616 346.6 
L 183.857557 128.026469 
L 184.133782 346.6 
M 186.965956 346.6 
L 187.109522 10.831151 
L 187.386201 346.6 
M 187.776979 346.6 
L 187.912427 -1 
M 188.513434 -1 
L 188.667597 346.6 
M 188.851198 346.6 
L 189.113845 -1 
M 190.897142 -1 
L 190.903482 5.756083 
L 190.925793 -1 
M 192.889057 -1 
L 193.071458 226.589504 
L 193.28425 346.6 
M 193.697438 346.6 
L 193.854676 -1 
M 194.40194 -1 
L 194.530801 346.6 
M 195.424147 346.6 
L 195.78143 196.10248 
L 196.323424 196.10248 
L 196.656657 346.6 
M 197.666268 346.6 
L 197.949407 243.472865 
L 198.325701 346.6 
M 199.689181 346.6 
L 200.073391 -1 
M 200.193333 -1 
L 200.659378 243.226758 
L 201.117019 -1 
M 202.242887 -1 
L 202.827355 171.15486 
L 202.935212 346.6 
M 203.581305 346.6 
L 203.685635 -1 
M 204.091483 -1 
L 204.17475 346.6 
M 204.753007 346.6 
L 204.842575 -1 
M 205.217303 -1 
L 205.347455 346.6 
M 205.741679 346.6 
L 205.881758 -1 
M 206.973136 -1 
L 207.339419 346.6 
M 207.876616 346.6 
L 208.048238 -1 
M 209.676804 -1 
L 209.806912 346.6 
M 210.218013 346.6 
L 210.415274 245.140476 
L 211.015573 346.6 
M 212.066398 346.6 
L 212.206202 -1 
M 213.235543 -1 
L 213.416884 346.6 
M 213.895204 346.6 
L 214.060327 -1 
M 214.397541 -1 
L 214.606357 346.6 
M 216.087775 346.6 
L 216.336604 -1 
M 218.449264 -1 
L 218.545187 243.08886 
L 219.087182 172.675692 
L 219.292118 346.6 
M 219.789932 346.6 
L 219.985275 -1 
M 221.620125 -1 
L 221.797153 151.277453 
L 222.339147 78.055135 
L 222.881141 61.182387 
L 222.956988 -1 
M 227.177583 -1 
L 227.544697 346.6 
M 227.87787 346.6 
L 228.076794 -1 
M 228.883969 -1 
L 229.038536 346.6 
M 231.08279 346.6 
L 231.57437 -1 
M 234.667851 -1 
L 234.75593 346.6 
M 237.234737 346.6 
L 237.472667 -1 
M 237.529924 -1 
L 237.613914 346.6 
M 238.394514 346.6 
L 238.458499 -1 
M 239.128893 -1 
L 239.308753 346.6 
M 239.909583 346.6 
L 240.016545 -1 
M 240.6615 -1 
L 240.766951 162.605447 
L 240.930995 -1 
M 242.646172 -1 
L 242.735437 346.6 
M 243.350993 346.6 
L 243.476922 111.479887 
L 243.618214 346.6 
M 245.004975 346.6 
L 245.102905 253.002536 
L 245.221511 -1 
M 246.293272 -1 
L 246.422561 346.6 
M 247.108439 346.6 
L 247.268633 -1 
M 247.995873 -1 
L 248.10609 346.6 
M 248.674099 346.6 
L 248.815528 -1 
M 249.631981 -1 
L 249.723323 346.6 
M 250.410177 346.6 
L 250.658581 -1 
M 251.704152 -1 
L 251.931644 346.6 
M 252.556343 346.6 
L 252.690824 237.087464 
L 252.775968 -1 
M 254.537668 -1 
L 254.694265 346.6 
M 257.283678 346.6 
L 257.375603 -1 
M 258.069169 -1 
L 258.110766 59.719757 
L 258.138976 -1 
M 259.350441 -1 
L 259.507851 346.6 
M 260.155111 346.6 
L 260.278743 197.227947 
L 260.820738 219.552568 
L 260.891642 346.6 
M 261.935871 346.6 
L 262.05648 -1 
M 263.350831 -1 
L 263.428692 346.6 
M 263.721756 346.6 
L 263.867565 -1 
M 264.285567 -1 
L 264.436867 346.6 
M 264.916286 346.6 
L 265.156691 20.930344 
L 265.411697 346.6 
M 265.922329 346.6 
L 266.13443 -1 
M 266.371406 -1 
L 266.632368 346.6 
M 267.10443 346.6 
L 267.324668 209.560695 
L 267.517462 346.6 
M 268.047581 346.6 
L 268.300939 -1 
M 270.956578 -1 
L 271.040052 346.6 
M 271.261667 346.6 
L 271.413623 -1 
M 272.37866 -1 
L 272.56041 346.6 
M 273.564769 346.6 
L 273.657605 -1 
M 274.166213 -1 
L 274.34951 346.6 
M 274.41162 346.6 
L 274.768305 -1 
M 276.707718 -1 
L 276.853366 346.6 
M 278.965006 346.6 
L 279.070876 -1 
M 279.53524 -1 
L 279.706083 346.6 
M 280.503329 346.6 
L 280.813245 -1 
M 281.10717 -1 
L 281.416518 90.391237 
L 281.584115 346.6 
M 282.285896 346.6 
L 282.484723 -1 
M 282.790933 -1 
L 283.042501 22.902308 
L 283.12349 -1 
M 283.655976 -1 
L 283.838596 346.6 
M 286.462574 346.6 
L 286.607123 -1 
M 287.156589 -1 
L 287.358364 346.6 
M 288.943354 346.6 
L 289.004438 292.220247 
L 289.117051 346.6 
M 290.232572 346.6 
L 290.597644 -1 
M 290.662695 -1 
L 291.022177 346.6 
M 291.427376 346.6 
L 291.714409 183.055278 
L 291.829165 -1 
M 293.457663 -1 
L 293.605198 346.6 
M 294.251843 346.6 
L 294.512967 -1 
M 295.326898 -1 
L 295.508368 108.788729 
L 295.618839 -1 
M 296.464668 -1 
L 296.592357 131.175853 
L 296.93173 346.6 
M 297.922337 346.6 
L 298.025419 -1 
M 298.703084 -1 
L 298.760334 75.831138 
L 299.302328 244.709538 
L 299.536998 -1 
M 300.587811 -1 
L 300.805472 346.6 
M 302.406361 346.6 
L 302.516819 -1 
M 303.471683 -1 
L 303.638282 339.705234 
L 304.03086 -1 
M 305.954064 -1 
L 306.202105 346.6 
M 306.511886 346.6 
L 306.789601 -1 
M 306.949824 -1 
L 307.114217 346.6 
M 307.737726 346.6 
L 307.895636 -1 
M 308.048247 -1 
L 308.196937 346.6 
M 308.787208 346.6 
L 308.913398 -1 
M 309.732523 -1 
L 310.142213 277.095097 
L 310.684207 146.905297 
L 310.876481 -1 
M 314.249752 -1 
L 314.478167 313.096002 
L 315.020161 5.930828 
L 315.296216 346.6 
M 318.107042 346.6 
L 318.272126 49.972718 
L 318.510963 346.6 
M 318.91343 346.6 
L 319.005114 -1 
M 319.736969 -1 
L 319.83645 346.6 
M 321.060708 346.6 
L 321.232546 -1 
M 321.883377 -1 
L 322.07888 346.6 
M 324.553481 346.6 
L 324.680696 -1 
M 325.88544 -1 
L 326.006854 346.6 
M 326.785866 346.6 
L 326.90379 -1 
M 327.63899 -1 
L 327.840119 346.6 
M 328.227186 346.6 
L 328.440368 -1 
M 331.255231 -1 
L 331.279988 14.000364 
L 332.363976 307.937067 
L 332.398182 346.6 
M 333.296758 346.6 
L 333.447965 124.518748 
L 333.525216 346.6 
M 334.335695 346.6 
L 334.425646 -1 
M 334.766794 -1 
L 334.965504 346.6 
M 336.129332 346.6 
L 336.157936 334.834248 
L 336.277496 -1 
M 337.797022 -1 
L 337.930788 346.6 
M 338.618374 346.6 
L 338.717384 -1 
M 339.188259 -1 
L 339.398977 346.6 
M 339.504051 346.6 
L 339.951896 260.881846 
L 340.05023 346.6 
M 340.70634 346.6 
L 340.897291 -1 
M 341.807702 -1 
L 341.918224 346.6 
M 342.579974 346.6 
L 342.661867 233.720159 
L 342.7498 346.6 
M 344.43135 346.6 
L 344.829844 104.769891 
L 344.966713 346.6 
M 345.603886 346.6 
L 345.716571 -1 
M 348.14612 -1 
L 348.254953 346.6 
M 349.057028 346.6 
L 349.165798 50.823193 
L 349.281636 346.6 
M 350.477503 346.6 
L 350.645911 -1 
M 351.144733 -1 
L 351.333774 160.257102 
L 351.450998 -1 
M 352.034805 -1 
L 352.129411 346.6 
M 352.997389 346.6 
L 353.398468 -1 
M 354.56973 -1 
L 354.58574 23.326802 
L 354.605959 -1 
M 355.71026 -1 
L 355.956439 346.6 
M 356.66463 346.6 
L 356.753717 275.698838 
L 357.295711 150.897741 
L 357.373992 -1 
M 358.107816 -1 
L 358.212163 346.6 
M 359.056791 346.6 
L 359.219411 -1 
M 359.769551 -1 
L 359.97317 346.6 
M 360.68538 346.6 
L 360.757748 -1 
M 361.514176 -1 
L 361.60673 346.6 
M 363.579109 346.6 
L 363.71327 -1 
M 363.971684 -1 
L 364.238918 346.6 
M 364.47114 346.6 
L 364.80806 -1 
M 365.32933 -1 
L 365.425625 15.844718 
L 365.967619 249.238094 
L 366.236684 -1 
M 366.805889 -1 
L 367.142414 346.6 
M 368.013034 346.6 
L 368.135596 147.572386 
L 368.202133 346.6 
M 369.120948 346.6 
L 369.324922 -1 
M 369.826341 -1 
L 370.000416 346.6 
M 372.502747 346.6 
L 372.65498 -1 
M 373.390355 -1 
L 373.550336 346.6 
M 373.633806 346.6 
L 374.097532 279.627865 
L 374.268273 -1 
M 375.171179 -1 
L 375.181521 10.869489 
L 375.723515 213.865991 
L 375.937404 -1 
M 377.058314 -1 
L 377.317409 346.6 
M 377.370753 346.6 
L 377.54238 -1 
M 378.319519 -1 
L 378.567898 346.6 
M 379.394523 346.6 
L 379.754616 -1 
M 380.169884 -1 
L 380.314931 346.6 
M 380.830521 346.6 
L 380.946473 -1 
M 381.393467 -1 
L 381.540632 346.6 
M 382.103557 346.6 
L 382.227446 245.243823 
L 382.323685 346.6 
M 383.036318 346.6 
L 383.233925 -1 
M 384.823246 -1 
L 384.937417 221.156552 
L 386.021405 140.062988 
L 386.090955 346.6 
M 387.255707 346.6 
L 387.38366 -1 
M 388.124633 -1 
L 388.345956 346.6 
M 388.948131 346.6 
L 389.070367 -1 
M 389.579496 -1 
L 389.763827 346.6 
M 391.831241 346.6 
L 392.015591 -1 
M 392.820747 -1 
L 392.891031 346.6 
M 393.846328 346.6 
L 394.077925 -1 
M 394.1926 -1 
L 394.322863 346.6 
M 395.04596 346.6 
L 395.169963 -1 
M 395.672109 -1 
L 395.777302 43.111788 
L 396.319296 27.263315 
L 396.331265 -1 
M 397.170577 -1 
L 397.256476 346.6 
M 397.662722 346.6 
L 397.814522 -1 
M 398.122366 -1 
L 398.327951 346.6 
L 398.327951 346.6 
" style="fill:none;stroke:#1f77b4;stroke-linecap:square;stroke-width:1.5;"/>
   </g>
   <g id="line2d_14">
    <path clip-path="url(#p1faf85e551)" d="M 75.813829 -1 
L 75.886597 346.6 
M 76.135366 346.6 
L 76.221243 -1 
M 77.491554 -1 
L 77.626687 273.270567 
L 78.168681 149.638092 
L 78.284189 -1 
M 78.938335 -1 
L 79.080612 346.6 
M 79.499836 346.6 
L 79.704222 -1 
M 80.166446 -1 
L 80.336658 69.42032 
L 80.472885 -1 
M 84.616211 -1 
L 84.672612 142.284424 
L 84.864797 -1 
M 85.403781 -1 
L 85.655916 346.6 
M 85.812906 346.6 
L 85.953908 -1 
M 86.697312 -1 
L 86.854637 346.6 
M 87.806514 346.6 
L 87.899313 -1 
M 88.083306 -1 
L 88.693231 346.6 
M 89.150028 346.6 
L 89.446784 -1 
M 90.419401 -1 
L 90.634548 291.580504 
L 90.941417 346.6 
M 92.089343 346.6 
L 92.259995 -1 
M 92.261 -1 
L 92.410177 346.6 
M 93.154192 346.6 
L 93.287901 -1 
M 94.317234 -1 
L 94.428508 234.613633 
L 94.632856 346.6 
M 96.578831 346.6 
L 96.596485 321.966127 
L 97.138479 253.643923 
L 97.193446 346.6 
M 98.241169 346.6 
L 98.394333 -1 
M 98.964033 -1 
L 99.046619 346.6 
M 100.455868 346.6 
L 100.680443 -1 
M 101.095036 -1 
L 101.239941 346.6 
M 101.877844 346.6 
L 102.196835 -1 
M 103.829645 -1 
L 103.993035 346.6 
M 105.6035 346.6 
L 105.747555 -1 
M 107.364962 -1 
L 107.43637 91.619238 
L 107.978364 212.82319 
L 108.210356 -1 
M 108.896674 -1 
L 109.062352 124.793297 
L 109.604347 269.607949 
L 109.633631 346.6 
M 110.608165 346.6 
L 110.688335 112.599879 
L 110.898524 346.6 
M 111.989339 346.6 
L 112.231196 -1 
M 112.610212 -1 
L 112.856312 98.359282 
L 113.241411 346.6 
M 113.865112 346.6 
L 113.940301 330.3098 
L 114.482295 117.050515 
L 114.71785 346.6 
M 115.805255 346.6 
L 116.051423 -1 
M 116.332319 -1 
L 116.650272 112.931926 
L 116.822667 346.6 
M 117.369616 346.6 
L 117.492673 -1 
M 118.210956 -1 
L 118.276254 92.476848 
L 118.553618 -1 
M 120.49082 -1 
L 120.624755 346.6 
M 121.49305 346.6 
L 121.737195 -1 
M 123.137002 -1 
L 123.154202 0.44074 
L 123.696197 157.286893 
L 124.238191 127.041114 
L 124.321254 -1 
M 125.156864 -1 
L 125.343467 346.6 
M 126.425611 346.6 
L 126.628824 -1 
M 127.315182 -1 
L 127.490156 259.41333 
L 128.051976 -1 
M 128.74103 -1 
L 128.842911 346.6 
M 129.627876 346.6 
L 129.658133 291.482925 
L 129.741811 346.6 
M 130.798865 346.6 
L 131.064279 -1 
M 133.262523 -1 
L 133.42793 346.6 
M 133.478626 346.6 
L 133.660256 -1 
M 134.924335 -1 
L 135.077718 346.6 
M 135.078654 346.6 
L 135.326837 -1 
M 136.188189 -1 
L 136.413386 346.6 
M 137.529371 346.6 
L 137.788047 20.681118 
L 138.090085 346.6 
M 138.418616 346.6 
L 138.537524 -1 
M 139.125935 -1 
L 139.216188 346.6 
M 140.279963 346.6 
L 140.402742 -1 
M 140.930723 -1 
L 141.040012 67.127712 
L 141.131644 -1 
M 141.872359 -1 
L 142.124001 289.19958 
L 142.307067 -1 
M 142.920882 -1 
L 143.076597 346.6 
M 143.360885 346.6 
L 143.542085 -1 
M 144.567037 -1 
L 144.648672 346.6 
M 147.1432 346.6 
L 147.369567 -1 
M 147.787362 -1 
L 148.085937 327.437827 
L 148.386086 -1 
M 148.76775 -1 
L 148.951401 346.6 
M 149.313061 346.6 
L 149.433354 -1 
M 150.006704 -1 
L 150.134 346.6 
M 151.085846 346.6 
L 151.230286 -1 
M 151.540954 -1 
L 151.813486 346.6 
M 151.920991 346.6 
L 152.08963 -1 
M 152.608775 -1 
L 152.703628 346.6 
M 153.206445 346.6 
L 153.294849 -1 
M 155.425068 -1 
L 155.528551 346.6 
M 156.684337 346.6 
L 156.757845 160.13882 
L 156.995258 -1 
M 157.614089 -1 
L 157.841833 148.820629 
L 158.060497 -1 
M 158.848539 -1 
L 158.925822 35.841894 
L 159.467816 202.828779 
L 159.638776 -1 
M 162.512767 -1 
L 162.719781 163.235936 
L 163.149556 346.6 
M 163.326465 346.6 
L 163.796105 -1 
M 164.581397 -1 
L 164.682591 346.6 
M 165.402371 346.6 
L 165.429753 309.101449 
L 165.538746 346.6 
M 166.117855 346.6 
L 166.458774 -1 
M 167.305772 -1 
L 167.453241 346.6 
M 167.787904 346.6 
L 167.982001 -1 
M 170.360804 -1 
L 170.570355 346.6 
M 171.114181 346.6 
L 171.312589 -1 
M 172.223422 -1 
L 172.323379 346.6 
M 172.677351 346.6 
L 172.809713 -1 
M 173.700103 -1 
L 174.027884 346.6 
M 174.754897 346.6 
L 175.185649 2.88808 
L 175.727643 2.88808 
L 175.731794 -1 
M 177.215129 -1 
L 177.353626 48.56239 
L 177.4821 346.6 
M 178.254299 346.6 
L 178.384266 -1 
M 179.316141 -1 
L 179.407796 346.6 
M 180.477527 346.6 
L 180.605591 2.700615 
L 181.27577 346.6 
M 182.440116 346.6 
L 182.773568 288.419391 
L 182.968387 -1 
M 183.509045 -1 
L 183.639444 346.6 
M 184.737418 346.6 
L 184.941545 285.850118 
L 185.328325 -1 
M 185.61736 -1 
L 186.021453 346.6 
M 186.766625 346.6 
L 186.871846 -1 
M 187.355915 -1 
L 187.464995 346.6 
M 187.986617 346.6 
L 188.182589 -1 
M 188.213194 -1 
L 188.566409 346.6 
M 189.03488 346.6 
L 189.277499 211.740691 
L 189.819493 319.149614 
L 190.903482 121.821134 
L 190.977769 -1 
M 191.630027 -1 
L 191.712987 346.6 
M 192.463105 346.6 
L 192.529464 186.145075 
L 193.071458 217.752411 
L 193.276417 346.6 
M 193.804496 346.6 
L 194.117915 -1 
M 195.030004 -1 
L 195.161652 346.6 
M 195.778532 346.6 
L 195.78143 345.496105 
L 196.323424 345.496105 
L 196.719644 -1 
M 198.833923 -1 
L 198.936175 346.6 
M 199.492343 346.6 
L 199.575389 286.796788 
L 199.766177 -1 
M 201.688192 -1 
L 201.743366 118.572946 
L 201.918889 -1 
M 203.482401 -1 
L 203.551316 346.6 
M 204.316554 346.6 
L 204.394119 -1 
M 204.579854 -1 
L 204.745566 346.6 
M 205.307992 346.6 
L 205.515431 -1 
M 205.643071 -1 
L 206.07932 150.354887 
L 206.351115 346.6 
M 206.755572 346.6 
L 206.994781 -1 
M 207.390037 -1 
L 207.705303 339.521227 
L 208.247297 149.221982 
L 208.789291 88.616391 
L 209.331285 149.653818 
L 209.87328 136.386353 
L 210.06269 346.6 
M 210.755959 346.6 
L 210.957268 115.376514 
L 211.323749 -1 
M 211.686146 -1 
L 212.041257 104.904749 
L 212.086325 -1 
M 213.119908 -1 
L 213.268807 346.6 
M 214.059297 346.6 
L 214.205444 -1 
M 214.212659 -1 
L 214.344783 346.6 
M 215.572556 346.6 
L 215.654645 -1 
M 216.198997 -1 
L 216.364375 346.6 
M 216.412245 346.6 
L 216.863635 -1 
M 216.941155 -1 
L 217.119457 346.6 
M 218.046543 346.6 
L 218.13499 -1 
M 219.004825 -1 
L 219.087182 287.851872 
L 219.629176 89.187059 
L 220.184806 -1 
M 220.886435 -1 
L 221.02348 346.6 
M 223.160261 346.6 
L 223.372092 -1 
M 224.032792 -1 
L 224.144644 346.6 
M 224.810929 346.6 
L 224.904675 -1 
M 225.208909 -1 
L 225.312616 346.6 
M 225.981752 346.6 
L 226.12722 -1 
M 226.780876 -1 
L 226.998659 346.6 
M 229.820045 346.6 
L 229.927066 207.6576 
L 230.469061 165.280487 
L 230.729687 -1 
M 231.122115 -1 
L 231.337168 346.6 
M 232.225995 346.6 
L 232.415339 -1 
M 232.823748 -1 
L 232.98321 346.6 
M 233.593408 346.6 
L 233.721026 215.138286 
L 234.142784 -1 
M 234.387385 -1 
L 234.805014 205.915956 
L 235.347009 205.915956 
L 235.552381 -1 
M 237.945323 -1 
L 238.05698 191.565031 
L 238.266395 346.6 
M 238.772526 346.6 
L 239.017543 -1 
M 239.750767 -1 
L 240.224957 127.588942 
L 240.60895 -1 
M 242.116255 -1 
L 242.392934 109.100598 
L 242.564129 346.6 
M 243.238955 346.6 
L 243.444395 -1 
M 243.598053 -1 
L 244.018916 190.214454 
L 244.198886 346.6 
M 244.756846 346.6 
L 244.973345 -1 
M 246.07111 -1 
L 246.186893 34.155117 
L 246.395884 346.6 
M 248.059617 346.6 
L 248.336847 -1 
M 249.154461 -1 
L 249.225906 346.6 
M 249.815628 346.6 
L 249.942032 -1 
M 250.185837 -1 
L 250.763442 346.6 
M 253.117147 346.6 
L 253.368084 -1 
M 253.943338 -1 
L 254.090414 346.6 
M 254.648245 346.6 
L 254.858801 6.686801 
L 255.466208 346.6 
M 257.314204 346.6 
L 257.408544 -1 
M 257.99822 -1 
L 258.110766 153.719956 
L 258.188968 -1 
M 259.376596 -1 
L 259.736749 279.334225 
L 259.858368 -1 
M 260.669117 -1 
L 260.809156 346.6 
M 260.892561 346.6 
L 261.362732 158.408516 
L 261.488608 346.6 
M 262.286691 346.6 
L 262.44672 85.95503 
L 262.988715 26.76806 
L 263.530709 81.578527 
L 263.661859 346.6 
M 264.467714 346.6 
L 264.614697 37.67634 
L 265.156691 198.695716 
L 265.405915 -1 
M 266.555232 -1 
L 266.65665 346.6 
M 267.174478 346.6 
L 267.324668 181.02485 
L 267.866663 0.593069 
L 268.408657 20.752746 
L 268.44338 -1 
M 270.858951 -1 
L 271.111269 346.6 
M 271.12179 346.6 
L 271.230199 -1 
M 273.040367 -1 
L 273.138679 346.6 
M 273.588596 346.6 
L 273.789302 -1 
M 273.868561 -1 
L 274.072665 346.6 
M 274.527687 346.6 
L 274.635307 -1 
M 276.325013 -1 
L 276.617301 346.6 
M 277.220026 346.6 
L 277.368208 -1 
M 278.120253 -1 
L 278.493592 346.6 
M 278.888442 346.6 
L 279.220172 -1 
M 279.283539 -1 
L 279.692771 346.6 
M 279.836926 346.6 
L 280.03111 -1 
M 280.531555 -1 
L 280.659773 346.6 
M 281.059428 346.6 
L 281.169826 -1 
M 281.801549 -1 
L 281.958513 315.651305 
L 282.139119 346.6 
M 283.209065 346.6 
L 283.342491 -1 
M 284.964667 -1 
L 285.089401 346.6 
M 286.027425 346.6 
L 286.11593 -1 
M 286.510343 -1 
L 286.617358 346.6 
M 288.184554 346.6 
L 288.605693 -1 
M 289.309057 -1 
L 289.546432 277.499772 
L 289.842678 -1 
M 290.346946 -1 
L 290.63042 252.329317 
L 290.941164 -1 
M 292.610799 -1 
L 292.798397 230.093502 
L 293.340392 233.805684 
L 293.882386 182.810186 
L 294.085186 -1 
M 296.406101 -1 
L 296.592357 275.593443 
L 297.134351 187.927145 
L 297.178212 -1 
M 298.879976 -1 
L 299.171808 346.6 
M 299.399615 346.6 
L 299.617139 -1 
M 300.703258 -1 
L 300.928311 256.782048 
L 301.217755 -1 
M 301.974001 -1 
L 302.012299 16.101954 
L 302.285718 346.6 
M 302.71989 346.6 
L 302.897197 -1 
M 303.453641 -1 
L 303.638282 200.667588 
L 303.924109 -1 
M 304.417843 -1 
L 304.72227 230.608809 
L 305.264265 174.155959 
L 305.591868 -1 
M 305.91611 -1 
L 306.249232 346.6 
M 306.410817 346.6 
L 306.62129 -1 
M 307.424732 -1 
L 307.432242 5.240734 
L 307.637107 346.6 
M 308.132843 346.6 
L 308.230987 -1 
M 309.854833 -1 
L 309.937799 346.6 
M 310.487515 346.6 
L 310.627663 -1 
M 310.76208 -1 
L 310.955095 346.6 
M 311.492356 346.6 
L 311.681846 -1 
M 312.134274 -1 
L 312.31019 75.116722 
L 312.852184 206.629268 
L 312.986677 -1 
M 313.625361 -1 
L 313.753098 346.6 
M 314.217719 346.6 
L 314.414165 -1 
M 315.31634 -1 
L 315.717117 346.6 
M 316.981322 346.6 
L 317.111368 -1 
M 317.421499 -1 
L 317.730132 270.388462 
L 318.039563 -1 
M 318.556505 -1 
L 318.814121 183.774221 
L 318.91858 346.6 
M 319.671905 346.6 
L 319.832854 -1 
M 320.172472 -1 
L 320.440103 136.473296 
L 320.982097 248.962303 
L 321.15914 346.6 
M 321.646398 346.6 
L 321.857627 -1 
M 322.169107 -1 
L 322.273496 346.6 
M 322.892149 346.6 
L 322.980778 -1 
M 324.469877 -1 
L 324.572051 346.6 
M 326.742367 346.6 
L 326.944034 282.484635 
L 327.001802 346.6 
M 327.919805 346.6 
L 328.028022 212.523158 
L 328.516246 -1 
M 329.334004 -1 
L 329.654005 32.898857 
L 329.67302 -1 
M 331.123002 -1 
L 331.266539 346.6 
M 331.40595 346.6 
L 331.821982 239.030577 
L 331.923781 346.6 
M 333.932511 346.6 
L 334.136785 -1 
M 334.90681 -1 
L 335.073947 277.040611 
L 335.231358 -1 
M 335.899582 -1 
L 336.04472 346.6 
M 336.314554 346.6 
L 336.515332 -1 
M 338.456796 -1 
L 338.614346 346.6 
M 339.14226 346.6 
L 339.312728 -1 
M 339.77895 -1 
L 339.951896 91.85516 
L 340.120834 346.6 
M 342.287439 346.6 
L 342.381681 -1 
M 344.565257 -1 
L 344.709946 346.6 
M 345.023928 346.6 
L 345.258142 -1 
M 346.115373 -1 
L 346.185628 346.6 
M 346.83243 346.6 
L 346.930352 -1 
M 347.684682 -1 
L 347.894937 346.6 
M 348.330351 346.6 
L 348.609992 -1 
M 348.638395 -1 
L 348.933824 346.6 
M 349.931721 346.6 
L 350.060205 -1 
M 351.037149 -1 
L 351.188966 346.6 
M 351.475444 346.6 
L 351.62397 -1 
M 352.138169 -1 
L 352.292949 346.6 
M 354.353551 346.6 
L 354.517009 -1 
M 355.752864 -1 
L 355.93697 346.6 
M 356.871391 346.6 
L 357.161581 -1 
M 357.449453 -1 
L 357.782076 346.6 
M 357.866655 346.6 
L 358.03975 -1 
M 358.660979 -1 
L 358.804202 346.6 
M 359.675151 346.6 
L 359.851869 -1 
M 360.936147 -1 
L 361.164331 346.6 
M 362.408167 346.6 
L 362.715653 110.57677 
L 363.257648 110.57677 
L 363.670103 -1 
M 364.937896 -1 
L 365.133626 346.6 
M 366.042135 346.6 
L 366.33464 -1 
M 366.658236 -1 
L 366.906693 346.6 
M 367.161938 346.6 
L 367.351099 -1 
M 368.264223 -1 
L 368.719079 346.6 
M 370.312832 346.6 
L 370.617616 -1 
M 371.049508 -1 
L 371.322192 346.6 
M 372.190229 346.6 
L 372.286653 -1 
M 373.46428 -1 
L 373.720802 346.6 
M 374.989509 346.6 
L 375.09809 -1 
M 375.420738 -1 
L 375.746632 346.6 
M 376.354982 346.6 
L 376.500056 -1 
M 377.1477 -1 
L 377.308227 346.6 
M 377.49798 346.6 
L 377.968139 -1 
M 378.640092 -1 
L 378.746891 346.6 
M 379.782962 346.6 
L 380.044332 -1 
M 381.466461 -1 
L 381.62991 346.6 
M 383.708313 346.6 
L 383.853428 136.261428 
L 384.395423 137.748052 
L 384.682424 -1 
M 387.914962 -1 
L 388.049026 346.6 
M 388.395698 346.6 
L 388.592765 -1 
M 390.569733 -1 
L 390.65803 346.6 
M 391.283829 346.6 
L 391.424505 -1 
M 391.490695 -1 
L 391.902863 346.6 
M 393.42148 346.6 
L 393.714594 -1 
M 394.459894 -1 
L 394.61132 346.6 
M 395.435399 346.6 
L 395.529972 -1 
M 396.091803 -1 
L 396.212061 346.6 
M 398.432529 346.6 
L 398.487273 210.664451 
L 398.487273 210.664451 
" style="fill:none;stroke:#ff7f0e;stroke-linecap:square;stroke-width:1.5;"/>
   </g>
   <g id="patch_3">
    <path d="M 57.6 307.584 
L 57.6 41.472 
" style="fill:none;stroke:#000000;stroke-linecap:square;stroke-linejoin:miter;stroke-width:0.8;"/>
   </g>
   <g id="patch_4">
    <path d="M 414.72 307.584 
L 414.72 41.472 
" style="fill:none;stroke:#000000;stroke-linecap:square;stroke-linejoin:miter;stroke-width:0.8;"/>
   </g>
   <g id="patch_5">
    <path d="M 57.6 307.584 
L 414.72 307.584 
" style="fill:none;stroke:#000000;stroke-linecap:square;stroke-linejoin:miter;stroke-width:0.8;"/>
   </g>
   <g id="patch_6">
    <path d="M 57.6 41.472 
L 414.72 41.472 
" style="fill:none;stroke:#000000;stroke-linecap:square;stroke-linejoin:miter;stroke-width:0.8;"/>
   </g>
   <g id="text_13">
    <!-- Polyakov loop 2 direction -->
    <defs>
     <path d="M 19.671875 64.796875 
L 19.671875 37.40625 
L 32.078125 37.40625 
Q 38.96875 37.40625 42.71875 40.96875 
Q 46.484375 44.53125 46.484375 51.125 
Q 46.484375 57.671875 42.71875 61.234375 
Q 38.96875 64.796875 32.078125 64.796875 
z
M 9.8125 72.90625 
L 32.078125 72.90625 
Q 44.34375 72.90625 50.609375 67.359375 
Q 56.890625 61.8125 56.890625 51.125 
Q 56.890625 40.328125 50.609375 34.8125 
Q 44.34375 29.296875 32.078125 29.296875 
L 19.671875 29.296875 
L 19.671875 0 
L 9.8125 0 
z
" id="DejaVuSans-80"/>
     <path d="M 30.609375 48.390625 
Q 23.390625 48.390625 19.1875 42.75 
Q 14.984375 37.109375 14.984375 27.296875 
Q 14.984375 17.484375 19.15625 11.84375 
Q 23.34375 6.203125 30.609375 6.203125 
Q 37.796875 6.203125 41.984375 11.859375 
Q 46.1875 17.53125 46.1875 27.296875 
Q 46.1875 37.015625 41.984375 42.703125 
Q 37.796875 48.390625 30.609375 48.390625 
z
M 30.609375 56 
Q 42.328125 56 49.015625 48.375 
Q 55.71875 40.765625 55.71875 27.296875 
Q 55.71875 13.875 49.015625 6.21875 
Q 42.328125 -1.421875 30.609375 -1.421875 
Q 18.84375 -1.421875 12.171875 6.21875 
Q 5.515625 13.875 5.515625 27.296875 
Q 5.515625 40.765625 12.171875 48.375 
Q 18.84375 56 30.609375 56 
z
" id="DejaVuSans-111"/>
     <path d="M 9.421875 75.984375 
L 18.40625 75.984375 
L 18.40625 0 
L 9.421875 0 
z
" id="DejaVuSans-108"/>
     <path d="M 32.171875 -5.078125 
Q 28.375 -14.84375 24.75 -17.8125 
Q 21.140625 -20.796875 15.09375 -20.796875 
L 7.90625 -20.796875 
L 7.90625 -13.28125 
L 13.1875 -13.28125 
Q 16.890625 -13.28125 18.9375 -11.515625 
Q 21 -9.765625 23.484375 -3.21875 
L 25.09375 0.875 
L 2.984375 54.6875 
L 12.5 54.6875 
L 29.59375 11.921875 
L 46.6875 54.6875 
L 56.203125 54.6875 
z
" id="DejaVuSans-121"/>
     <path d="M 34.28125 27.484375 
Q 23.390625 27.484375 19.1875 25 
Q 14.984375 22.515625 14.984375 16.5 
Q 14.984375 11.71875 18.140625 8.90625 
Q 21.296875 6.109375 26.703125 6.109375 
Q 34.1875 6.109375 38.703125 11.40625 
Q 43.21875 16.703125 43.21875 25.484375 
L 43.21875 27.484375 
z
M 52.203125 31.203125 
L 52.203125 0 
L 43.21875 0 
L 43.21875 8.296875 
Q 40.140625 3.328125 35.546875 0.953125 
Q 30.953125 -1.421875 24.3125 -1.421875 
Q 15.921875 -1.421875 10.953125 3.296875 
Q 6 8.015625 6 15.921875 
Q 6 25.140625 12.171875 29.828125 
Q 18.359375 34.515625 30.609375 34.515625 
L 43.21875 34.515625 
L 43.21875 35.40625 
Q 43.21875 41.609375 39.140625 45 
Q 35.0625 48.390625 27.6875 48.390625 
Q 23 48.390625 18.546875 47.265625 
Q 14.109375 46.140625 10.015625 43.890625 
L 10.015625 52.203125 
Q 14.9375 54.109375 19.578125 55.046875 
Q 24.21875 56 28.609375 56 
Q 40.484375 56 46.34375 49.84375 
Q 52.203125 43.703125 52.203125 31.203125 
z
" id="DejaVuSans-97"/>
     <path d="M 9.078125 75.984375 
L 18.109375 75.984375 
L 18.109375 31.109375 
L 44.921875 54.6875 
L 56.390625 54.6875 
L 27.390625 29.109375 
L 57.625 0 
L 45.90625 0 
L 18.109375 26.703125 
L 18.109375 0 
L 9.078125 0 
z
" id="DejaVuSans-107"/>
     <path d="M 2.984375 54.6875 
L 12.5 54.6875 
L 29.59375 8.796875 
L 46.6875 54.6875 
L 56.203125 54.6875 
L 35.6875 0 
L 23.484375 0 
z
" id="DejaVuSans-118"/>
     <path id="DejaVuSans-32"/>
     <path d="M 18.109375 8.203125 
L 18.109375 -20.796875 
L 9.078125 -20.796875 
L 9.078125 54.6875 
L 18.109375 54.6875 
L 18.109375 46.390625 
Q 20.953125 51.265625 25.265625 53.625 
Q 29.59375 56 35.59375 56 
Q 45.5625 56 51.78125 48.09375 
Q 58.015625 40.1875 58.015625 27.296875 
Q 58.015625 14.40625 51.78125 6.484375 
Q 45.5625 -1.421875 35.59375 -1.421875 
Q 29.59375 -1.421875 25.265625 0.953125 
Q 20.953125 3.328125 18.109375 8.203125 
z
M 48.6875 27.296875 
Q 48.6875 37.203125 44.609375 42.84375 
Q 40.53125 48.484375 33.40625 48.484375 
Q 26.265625 48.484375 22.1875 42.84375 
Q 18.109375 37.203125 18.109375 27.296875 
Q 18.109375 17.390625 22.1875 11.75 
Q 26.265625 6.109375 33.40625 6.109375 
Q 40.53125 6.109375 44.609375 11.75 
Q 48.6875 17.390625 48.6875 27.296875 
z
" id="DejaVuSans-112"/>
     <path d="M 45.40625 46.390625 
L 45.40625 75.984375 
L 54.390625 75.984375 
L 54.390625 0 
L 45.40625 0 
L 45.40625 8.203125 
Q 42.578125 3.328125 38.25 0.953125 
Q 33.9375 -1.421875 27.875 -1.421875 
Q 17.96875 -1.421875 11.734375 6.484375 
Q 5.515625 14.40625 5.515625 27.296875 
Q 5.515625 40.1875 11.734375 48.09375 
Q 17.96875 56 27.875 56 
Q 33.9375 56 38.25 53.625 
Q 42.578125 51.265625 45.40625 46.390625 
z
M 14.796875 27.296875 
Q 14.796875 17.390625 18.875 11.75 
Q 22.953125 6.109375 30.078125 6.109375 
Q 37.203125 6.109375 41.296875 11.75 
Q 45.40625 17.390625 45.40625 27.296875 
Q 45.40625 37.203125 41.296875 42.84375 
Q 37.203125 48.484375 30.078125 48.484375 
Q 22.953125 48.484375 18.875 42.84375 
Q 14.796875 37.203125 14.796875 27.296875 
z
" id="DejaVuSans-100"/>
     <path d="M 9.421875 54.6875 
L 18.40625 54.6875 
L 18.40625 0 
L 9.421875 0 
z
M 9.421875 75.984375 
L 18.40625 75.984375 
L 18.40625 64.59375 
L 9.421875 64.59375 
z
" id="DejaVuSans-105"/>
     <path d="M 41.109375 46.296875 
Q 39.59375 47.171875 37.8125 47.578125 
Q 36.03125 48 33.890625 48 
Q 26.265625 48 22.1875 43.046875 
Q 18.109375 38.09375 18.109375 28.8125 
L 18.109375 0 
L 9.078125 0 
L 9.078125 54.6875 
L 18.109375 54.6875 
L 18.109375 46.1875 
Q 20.953125 51.171875 25.484375 53.578125 
Q 30.03125 56 36.53125 56 
Q 37.453125 56 38.578125 55.875 
Q 39.703125 55.765625 41.0625 55.515625 
z
" id="DejaVuSans-114"/>
     <path d="M 56.203125 29.59375 
L 56.203125 25.203125 
L 14.890625 25.203125 
Q 15.484375 15.921875 20.484375 11.0625 
Q 25.484375 6.203125 34.421875 6.203125 
Q 39.59375 6.203125 44.453125 7.46875 
Q 49.3125 8.734375 54.109375 11.28125 
L 54.109375 2.78125 
Q 49.265625 0.734375 44.1875 -0.34375 
Q 39.109375 -1.421875 33.890625 -1.421875 
Q 20.796875 -1.421875 13.15625 6.1875 
Q 5.515625 13.8125 5.515625 26.8125 
Q 5.515625 40.234375 12.765625 48.109375 
Q 20.015625 56 32.328125 56 
Q 43.359375 56 49.78125 48.890625 
Q 56.203125 41.796875 56.203125 29.59375 
z
M 47.21875 32.234375 
Q 47.125 39.59375 43.09375 43.984375 
Q 39.0625 48.390625 32.421875 48.390625 
Q 24.90625 48.390625 20.390625 44.140625 
Q 15.875 39.890625 15.1875 32.171875 
z
" id="DejaVuSans-101"/>
     <path d="M 48.78125 52.59375 
L 48.78125 44.1875 
Q 44.96875 46.296875 41.140625 47.34375 
Q 37.3125 48.390625 33.40625 48.390625 
Q 24.65625 48.390625 19.8125 42.84375 
Q 14.984375 37.3125 14.984375 27.296875 
Q 14.984375 17.28125 19.8125 11.734375 
Q 24.65625 6.203125 33.40625 6.203125 
Q 37.3125 6.203125 41.140625 7.25 
Q 44.96875 8.296875 48.78125 10.40625 
L 48.78125 2.09375 
Q 45.015625 0.34375 40.984375 -0.53125 
Q 36.96875 -1.421875 32.421875 -1.421875 
Q 20.0625 -1.421875 12.78125 6.34375 
Q 5.515625 14.109375 5.515625 27.296875 
Q 5.515625 40.671875 12.859375 48.328125 
Q 20.21875 56 33.015625 56 
Q 37.15625 56 41.109375 55.140625 
Q 45.0625 54.296875 48.78125 52.59375 
z
" id="DejaVuSans-99"/>
     <path d="M 18.3125 70.21875 
L 18.3125 54.6875 
L 36.8125 54.6875 
L 36.8125 47.703125 
L 18.3125 47.703125 
L 18.3125 18.015625 
Q 18.3125 11.328125 20.140625 9.421875 
Q 21.96875 7.515625 27.59375 7.515625 
L 36.8125 7.515625 
L 36.8125 0 
L 27.59375 0 
Q 17.1875 0 13.234375 3.875 
Q 9.28125 7.765625 9.28125 18.015625 
L 9.28125 47.703125 
L 2.6875 47.703125 
L 2.6875 54.6875 
L 9.28125 54.6875 
L 9.28125 70.21875 
z
" id="DejaVuSans-116"/>
     <path d="M 54.890625 33.015625 
L 54.890625 0 
L 45.90625 0 
L 45.90625 32.71875 
Q 45.90625 40.484375 42.875 44.328125 
Q 39.84375 48.1875 33.796875 48.1875 
Q 26.515625 48.1875 22.3125 43.546875 
Q 18.109375 38.921875 18.109375 30.90625 
L 18.109375 0 
L 9.078125 0 
L 9.078125 54.6875 
L 18.109375 54.6875 
L 18.109375 46.1875 
Q 21.34375 51.125 25.703125 53.5625 
Q 30.078125 56 35.796875 56 
Q 45.21875 56 50.046875 50.171875 
Q 54.890625 44.34375 54.890625 33.015625 
z
" id="DejaVuSans-110"/>
    </defs>
    <g transform="translate(161.06625 35.472)scale(0.12 -0.12)">
     <use xlink:href="#DejaVuSans-80"/>
     <use x="56.677734" xlink:href="#DejaVuSans-111"/>
     <use x="117.859375" xlink:href="#DejaVuSans-108"/>
     <use x="145.642578" xlink:href="#DejaVuSans-121"/>
     <use x="204.822266" xlink:href="#DejaVuSans-97"/>
     <use x="266.101562" xlink:href="#DejaVuSans-107"/>
     <use x="320.386719" xlink:href="#DejaVuSans-111"/>
     <use x="381.568359" xlink:href="#DejaVuSans-118"/>
     <use x="440.748047" xlink:href="#DejaVuSans-32"/>
     <use x="472.535156" xlink:href="#DejaVuSans-108"/>
     <use x="500.318359" xlink:href="#DejaVuSans-111"/>
     <use x="561.5" xlink:href="#DejaVuSans-111"/>
     <use x="622.681641" xlink:href="#DejaVuSans-112"/>
     <use x="686.158203" xlink:href="#DejaVuSans-32"/>
     <use x="717.945312" xlink:href="#DejaVuSans-50"/>
     <use x="781.568359" xlink:href="#DejaVuSans-32"/>
     <use x="813.355469" xlink:href="#DejaVuSans-100"/>
     <use x="876.832031" xlink:href="#DejaVuSans-105"/>
     <use x="904.615234" xlink:href="#DejaVuSans-114"/>
     <use x="943.478516" xlink:href="#DejaVuSans-101"/>
     <use x="1005.001953" xlink:href="#DejaVuSans-99"/>
     <use x="1059.982422" xlink:href="#DejaVuSans-116"/>
     <use x="1099.191406" xlink:href="#DejaVuSans-105"/>
     <use x="1126.974609" xlink:href="#DejaVuSans-111"/>
     <use x="1188.15625" xlink:href="#DejaVuSans-110"/>
    </g>
   </g>
   <g id="legend_1">
    <g id="patch_7">
     <path d="M 265.387188 78.82825 
L 407.72 78.82825 
Q 409.72 78.82825 409.72 76.82825 
L 409.72 48.472 
Q 409.72 46.472 407.72 46.472 
L 265.387188 46.472 
Q 263.387188 46.472 263.387188 48.472 
L 263.387188 76.82825 
Q 263.387188 78.82825 265.387188 78.82825 
z
" style="fill:#ffffff;opacity:0.8;stroke:#cccccc;stroke-linejoin:miter;"/>
    </g>
    <g id="line2d_15">
     <path d="M 267.387188 54.570437 
L 287.387188 54.570437 
" style="fill:none;stroke:#1f77b4;stroke-linecap:square;stroke-width:1.5;"/>
    </g>
    <g id="line2d_16"/>
    <g id="text_14">
     <!-- real-0.0000+/-0.0000 -->
     <defs>
      <path d="M 4.890625 31.390625 
L 31.203125 31.390625 
L 31.203125 23.390625 
L 4.890625 23.390625 
z
" id="DejaVuSans-45"/>
      <path d="M 46 62.703125 
L 46 35.5 
L 73.1875 35.5 
L 73.1875 27.203125 
L 46 27.203125 
L 46 0 
L 37.796875 0 
L 37.796875 27.203125 
L 10.59375 27.203125 
L 10.59375 35.5 
L 37.796875 35.5 
L 37.796875 62.703125 
z
" id="DejaVuSans-43"/>
      <path d="M 25.390625 72.90625 
L 33.6875 72.90625 
L 8.296875 -9.28125 
L 0 -9.28125 
z
" id="DejaVuSans-47"/>
     </defs>
     <g transform="translate(295.387188 58.070437)scale(0.1 -0.1)">
      <use xlink:href="#DejaVuSans-114"/>
      <use x="38.863281" xlink:href="#DejaVuSans-101"/>
      <use x="100.386719" xlink:href="#DejaVuSans-97"/>
      <use x="161.666016" xlink:href="#DejaVuSans-108"/>
      <use x="189.449219" xlink:href="#DejaVuSans-45"/>
      <use x="225.533203" xlink:href="#DejaVuSans-48"/>
      <use x="289.15625" xlink:href="#DejaVuSans-46"/>
      <use x="320.943359" xlink:href="#DejaVuSans-48"/>
      <use x="384.566406" xlink:href="#DejaVuSans-48"/>
      <use x="448.189453" xlink:href="#DejaVuSans-48"/>
      <use x="511.8125" xlink:href="#DejaVuSans-48"/>
      <use x="575.435547" xlink:href="#DejaVuSans-43"/>
      <use x="659.224609" xlink:href="#DejaVuSans-47"/>
      <use x="692.916016" xlink:href="#DejaVuSans-45"/>
      <use x="729" xlink:href="#DejaVuSans-48"/>
      <use x="792.623047" xlink:href="#DejaVuSans-46"/>
      <use x="824.410156" xlink:href="#DejaVuSans-48"/>
      <use x="888.033203" xlink:href="#DejaVuSans-48"/>
      <use x="951.65625" xlink:href="#DejaVuSans-48"/>
      <use x="1015.279297" xlink:href="#DejaVuSans-48"/>
     </g>
    </g>
    <g id="line2d_17">
     <path d="M 267.387188 69.248562 
L 287.387188 69.248562 
" style="fill:none;stroke:#ff7f0e;stroke-linecap:square;stroke-width:1.5;"/>
    </g>
    <g id="line2d_18"/>
    <g id="text_15">
     <!-- imag0.0000+/-0.0000 -->
     <defs>
      <path d="M 52 44.1875 
Q 55.375 50.25 60.0625 53.125 
Q 64.75 56 71.09375 56 
Q 79.640625 56 84.28125 50.015625 
Q 88.921875 44.046875 88.921875 33.015625 
L 88.921875 0 
L 79.890625 0 
L 79.890625 32.71875 
Q 79.890625 40.578125 77.09375 44.375 
Q 74.3125 48.1875 68.609375 48.1875 
Q 61.625 48.1875 57.5625 43.546875 
Q 53.515625 38.921875 53.515625 30.90625 
L 53.515625 0 
L 44.484375 0 
L 44.484375 32.71875 
Q 44.484375 40.625 41.703125 44.40625 
Q 38.921875 48.1875 33.109375 48.1875 
Q 26.21875 48.1875 22.15625 43.53125 
Q 18.109375 38.875 18.109375 30.90625 
L 18.109375 0 
L 9.078125 0 
L 9.078125 54.6875 
L 18.109375 54.6875 
L 18.109375 46.1875 
Q 21.1875 51.21875 25.484375 53.609375 
Q 29.78125 56 35.6875 56 
Q 41.65625 56 45.828125 52.96875 
Q 50 49.953125 52 44.1875 
z
" id="DejaVuSans-109"/>
      <path d="M 45.40625 27.984375 
Q 45.40625 37.75 41.375 43.109375 
Q 37.359375 48.484375 30.078125 48.484375 
Q 22.859375 48.484375 18.828125 43.109375 
Q 14.796875 37.75 14.796875 27.984375 
Q 14.796875 18.265625 18.828125 12.890625 
Q 22.859375 7.515625 30.078125 7.515625 
Q 37.359375 7.515625 41.375 12.890625 
Q 45.40625 18.265625 45.40625 27.984375 
z
M 54.390625 6.78125 
Q 54.390625 -7.171875 48.1875 -13.984375 
Q 42 -20.796875 29.203125 -20.796875 
Q 24.46875 -20.796875 20.265625 -20.09375 
Q 16.0625 -19.390625 12.109375 -17.921875 
L 12.109375 -9.1875 
Q 16.0625 -11.328125 19.921875 -12.34375 
Q 23.78125 -13.375 27.78125 -13.375 
Q 36.625 -13.375 41.015625 -8.765625 
Q 45.40625 -4.15625 45.40625 5.171875 
L 45.40625 9.625 
Q 42.625 4.78125 38.28125 2.390625 
Q 33.9375 0 27.875 0 
Q 17.828125 0 11.671875 7.65625 
Q 5.515625 15.328125 5.515625 27.984375 
Q 5.515625 40.671875 11.671875 48.328125 
Q 17.828125 56 27.875 56 
Q 33.9375 56 38.28125 53.609375 
Q 42.625 51.21875 45.40625 46.390625 
L 45.40625 54.6875 
L 54.390625 54.6875 
z
" id="DejaVuSans-103"/>
     </defs>
     <g transform="translate(295.387188 72.748562)scale(0.1 -0.1)">
      <use xlink:href="#DejaVuSans-105"/>
      <use x="27.783203" xlink:href="#DejaVuSans-109"/>
      <use x="125.195312" xlink:href="#DejaVuSans-97"/>
      <use x="186.474609" xlink:href="#DejaVuSans-103"/>
      <use x="249.951172" xlink:href="#DejaVuSans-48"/>
      <use x="313.574219" xlink:href="#DejaVuSans-46"/>
      <use x="345.361328" xlink:href="#DejaVuSans-48"/>
      <use x="408.984375" xlink:href="#DejaVuSans-48"/>
      <use x="472.607422" xlink:href="#DejaVuSans-48"/>
      <use x="536.230469" xlink:href="#DejaVuSans-48"/>
      <use x="599.853516" xlink:href="#DejaVuSans-43"/>
      <use x="683.642578" xlink:href="#DejaVuSans-47"/>
      <use x="717.333984" xlink:href="#DejaVuSans-45"/>
      <use x="753.417969" xlink:href="#DejaVuSans-48"/>
      <use x="817.041016" xlink:href="#DejaVuSans-46"/>
      <use x="848.828125" xlink:href="#DejaVuSans-48"/>
      <use x="912.451172" xlink:href="#DejaVuSans-48"/>
      <use x="976.074219" xlink:href="#DejaVuSans-48"/>
      <use x="1039.697266" xlink:href="#DejaVuSans-48"/>
     </g>
    </g>
   </g>
  </g>
 </g>
 <defs>
  <clipPath id="p1faf85e551">
   <rect height="266.112" width="357.12" x="57.6" y="41.472"/>
  </clipPath>
 </defs>
</svg>
